%FSLAX44Y44*%
%MOMM*%
G71*
G01*
G75*
G04 Layer_Physical_Order=2*
G04 Layer_Color=16711680*
%ADD10R,4.8600X3.3600*%
%ADD11R,1.4000X1.3900*%
%ADD12R,1.4224X3.0226*%
%ADD13R,3.0226X1.4224*%
%ADD14R,0.7000X0.9000*%
%ADD15O,0.8000X1.4000*%
%ADD16R,0.8000X1.4000*%
%ADD17R,0.8000X0.9000*%
%ADD18R,2.6000X1.1000*%
%ADD19R,2.0000X3.5000*%
%ADD20R,2.1800X1.5200*%
%ADD21R,1.5500X3.3000*%
%ADD22R,1.5200X2.1800*%
%ADD23R,0.9000X0.7000*%
%ADD24R,0.9000X0.8000*%
%ADD25R,1.1430X0.7620*%
%ADD26R,2.2606X2.9972*%
%ADD27R,1.8800X1.1700*%
%ADD28R,1.1000X1.4000*%
%ADD29R,1.1000X1.7000*%
G04:AMPARAMS|DCode=30|XSize=0.9mm|YSize=0.7mm|CornerRadius=0mm|HoleSize=0mm|Usage=FLASHONLY|Rotation=225.000|XOffset=0mm|YOffset=0mm|HoleType=Round|Shape=Rectangle|*
%AMROTATEDRECTD30*
4,1,4,0.0707,0.5657,0.5657,0.0707,-0.0707,-0.5657,-0.5657,-0.0707,0.0707,0.5657,0.0*
%
%ADD30ROTATEDRECTD30*%

%ADD31R,1.8000X3.2000*%
%ADD32R,1.2000X1.2000*%
%ADD33R,4.0000X3.1000*%
G04:AMPARAMS|DCode=34|XSize=0.9mm|YSize=0.8mm|CornerRadius=0mm|HoleSize=0mm|Usage=FLASHONLY|Rotation=135.000|XOffset=0mm|YOffset=0mm|HoleType=Round|Shape=Rectangle|*
%AMROTATEDRECTD34*
4,1,4,0.6010,-0.0354,0.0354,-0.6010,-0.6010,0.0354,-0.0354,0.6010,0.6010,-0.0354,0.0*
%
%ADD34ROTATEDRECTD34*%

G04:AMPARAMS|DCode=35|XSize=0.9mm|YSize=0.8mm|CornerRadius=0mm|HoleSize=0mm|Usage=FLASHONLY|Rotation=45.000|XOffset=0mm|YOffset=0mm|HoleType=Round|Shape=Rectangle|*
%AMROTATEDRECTD35*
4,1,4,-0.0354,-0.6010,-0.6010,-0.0354,0.0354,0.6010,0.6010,0.0354,-0.0354,-0.6010,0.0*
%
%ADD35ROTATEDRECTD35*%

G04:AMPARAMS|DCode=36|XSize=0.9mm|YSize=0.7mm|CornerRadius=0mm|HoleSize=0mm|Usage=FLASHONLY|Rotation=315.000|XOffset=0mm|YOffset=0mm|HoleType=Round|Shape=Rectangle|*
%AMROTATEDRECTD36*
4,1,4,-0.5657,0.0707,-0.0707,0.5657,0.5657,-0.0707,0.0707,-0.5657,-0.5657,0.0707,0.0*
%
%ADD36ROTATEDRECTD36*%

%ADD37R,1.2192X1.2192*%
%ADD38R,1.4000X3.3000*%
%ADD39R,2.1000X1.8000*%
%ADD40O,1.0000X0.5500*%
%ADD41R,1.0000X0.5500*%
%ADD42O,0.5500X1.0000*%
%ADD43R,0.5500X1.0000*%
G04:AMPARAMS|DCode=44|XSize=1.55mm|YSize=1.3mm|CornerRadius=0.0975mm|HoleSize=0mm|Usage=FLASHONLY|Rotation=90.000|XOffset=0mm|YOffset=0mm|HoleType=Round|Shape=RoundedRectangle|*
%AMROUNDEDRECTD44*
21,1,1.5500,1.1050,0,0,90.0*
21,1,1.3550,1.3000,0,0,90.0*
1,1,0.1950,0.5525,0.6775*
1,1,0.1950,0.5525,-0.6775*
1,1,0.1950,-0.5525,-0.6775*
1,1,0.1950,-0.5525,0.6775*
%
%ADD44ROUNDEDRECTD44*%
G04:AMPARAMS|DCode=45|XSize=0.55mm|YSize=1.65mm|CornerRadius=0mm|HoleSize=0mm|Usage=FLASHONLY|Rotation=135.000|XOffset=0mm|YOffset=0mm|HoleType=Round|Shape=Round|*
%AMOVALD45*
21,1,1.1000,0.5500,0.0000,0.0000,225.0*
1,1,0.5500,0.3889,0.3889*
1,1,0.5500,-0.3889,-0.3889*
%
%ADD45OVALD45*%

G04:AMPARAMS|DCode=46|XSize=0.55mm|YSize=1.65mm|CornerRadius=0mm|HoleSize=0mm|Usage=FLASHONLY|Rotation=225.000|XOffset=0mm|YOffset=0mm|HoleType=Round|Shape=Round|*
%AMOVALD46*
21,1,1.1000,0.5500,0.0000,0.0000,315.0*
1,1,0.5500,-0.3889,0.3889*
1,1,0.5500,0.3889,-0.3889*
%
%ADD46OVALD46*%

%ADD47R,1.2192X1.2192*%
%ADD48R,0.7112X2.0066*%
%ADD49R,1.2192X2.2352*%
%ADD50R,3.6068X2.2098*%
%ADD51C,0.5000*%
%ADD52C,1.0000*%
%ADD53C,0.7500*%
%ADD54C,1.2700*%
%ADD55C,0.3000*%
%ADD56C,0.6350*%
%ADD57C,0.5080*%
%ADD58C,0.2540*%
%ADD59C,0.7000*%
%ADD60R,1.3716X1.3716*%
%ADD61C,1.3716*%
%ADD62C,2.4003*%
%ADD63C,3.2512*%
%ADD64C,3.0000*%
%ADD65O,1.4224X2.8448*%
%ADD66C,1.7780*%
%ADD67C,2.3000*%
%ADD68C,1.6900*%
%ADD69R,1.6900X1.6900*%
%ADD70C,4.7600*%
G04:AMPARAMS|DCode=71|XSize=1.5748mm|YSize=1.5748mm|CornerRadius=0mm|HoleSize=0mm|Usage=FLASHONLY|Rotation=0.000|XOffset=0mm|YOffset=0mm|HoleType=Round|Shape=Octagon|*
%AMOCTAGOND71*
4,1,8,0.7874,-0.3937,0.7874,0.3937,0.3937,0.7874,-0.3937,0.7874,-0.7874,0.3937,-0.7874,-0.3937,-0.3937,-0.7874,0.3937,-0.7874,0.7874,-0.3937,0.0*
%
%ADD71OCTAGOND71*%

%ADD72C,1.2700*%
%ADD73C,0.8000*%
G36*
X350350Y588278D02*
X352660Y587974D01*
X354970Y588278D01*
X355355Y588437D01*
X409542Y534251D01*
Y501432D01*
X408272Y501001D01*
X407775Y501647D01*
X405768Y503188D01*
X404998Y503507D01*
Y525780D01*
X404998Y525780D01*
X404688Y527341D01*
X404395Y527780D01*
X403804Y528664D01*
X403804Y528664D01*
X348423Y584045D01*
X348582Y584430D01*
X348886Y586740D01*
X348754Y587748D01*
X349761Y588522D01*
X350350Y588278D01*
D02*
G37*
G36*
X331883Y519935D02*
X334036Y519043D01*
X336346Y518739D01*
X338657Y519043D01*
X340810Y519935D01*
X342232Y521026D01*
X343502Y520467D01*
Y509689D01*
X334536Y500724D01*
X334198Y500217D01*
X334155Y500195D01*
X332671Y500219D01*
X331575Y501647D01*
X329567Y503188D01*
X328798Y503507D01*
Y520989D01*
X329601Y521261D01*
X330068Y521327D01*
X331883Y519935D01*
D02*
G37*
G36*
X1021793Y739140D02*
X1021793Y739140D01*
X1090248Y739140D01*
X1234440Y739140D01*
X1267132Y670784D01*
X1265417Y668776D01*
X1263254Y665247D01*
X1261670Y661422D01*
X1260704Y657397D01*
X1260379Y653270D01*
X1260704Y649143D01*
X1261670Y645118D01*
X1263254Y641293D01*
X1265417Y637763D01*
X1268106Y634616D01*
X1271254Y631927D01*
X1274783Y629764D01*
X1278608Y628180D01*
X1282633Y627214D01*
X1286760Y626889D01*
X1288076Y626992D01*
X1290320Y622300D01*
X1315720Y596900D01*
Y574040D01*
Y543560D01*
X1305560Y533400D01*
X1297940D01*
X1292860Y538480D01*
Y601980D01*
X1285240Y609600D01*
X1160780D01*
X1117600Y566420D01*
Y495300D01*
X1092200Y469900D01*
X1061720Y439420D01*
X1026160D01*
Y439420D01*
X897518Y439420D01*
X896620Y440318D01*
X896620Y739140D01*
X1021793Y739140D01*
D02*
G37*
G36*
X422242Y536791D02*
Y503507D01*
X421473Y503188D01*
X419465Y501647D01*
X418968Y501001D01*
X417698Y501432D01*
Y535940D01*
X417698Y535940D01*
X417388Y537501D01*
X417095Y537940D01*
X416504Y538824D01*
X416504Y538824D01*
X361123Y594205D01*
X361282Y594590D01*
X361441Y595795D01*
X362782Y596250D01*
X422242Y536791D01*
D02*
G37*
G36*
X1285240Y502920D02*
Y469900D01*
X1277620Y462280D01*
X1172680D01*
X1167600Y467360D01*
X1168400Y468160D01*
Y510540D01*
X1277620D01*
X1285240Y502920D01*
D02*
G37*
G36*
X1313180Y518160D02*
X1318260Y513080D01*
Y368300D01*
X1310640Y360680D01*
X1112520D01*
X1104900Y353060D01*
Y165100D01*
X1075755Y135955D01*
X892810D01*
X892810Y397882D01*
X893708Y398780D01*
X1035422Y398780D01*
X1035872Y398330D01*
X1036321Y398780D01*
X1071880Y398780D01*
X1122680Y449580D01*
X1275080D01*
X1290320Y464820D01*
X1292860Y467360D01*
Y520700D01*
X1297940Y525780D01*
X1305560D01*
X1313180Y518160D01*
D02*
G37*
G36*
X388620Y386490D02*
Y342900D01*
X276860D01*
Y411480D01*
X279400Y414020D01*
X361090D01*
X388620Y386490D01*
D02*
G37*
G36*
X419465Y473713D02*
X421473Y472172D01*
X423811Y471203D01*
X426320Y470873D01*
X428829Y471203D01*
X431167Y472172D01*
X433175Y473713D01*
X433672Y474359D01*
X434942Y473928D01*
Y470487D01*
X434173Y470168D01*
X432165Y468627D01*
X430624Y466619D01*
X429655Y464281D01*
X429325Y461772D01*
Y447548D01*
X429655Y445039D01*
X430624Y442701D01*
X432165Y440693D01*
X433474Y439688D01*
X433042Y438418D01*
X419598D01*
X419166Y439688D01*
X420475Y440693D01*
X422016Y442701D01*
X422985Y445039D01*
X423315Y447548D01*
Y461772D01*
X422985Y464281D01*
X422016Y466619D01*
X420475Y468627D01*
X418467Y470168D01*
X417698Y470487D01*
Y473928D01*
X418968Y474359D01*
X419465Y473713D01*
D02*
G37*
G36*
X396842Y524091D02*
Y503507D01*
X396073Y503188D01*
X394065Y501647D01*
X392524Y499640D01*
X391555Y497301D01*
X391225Y494792D01*
Y480568D01*
X391555Y478059D01*
X392524Y475720D01*
X394065Y473713D01*
X396073Y472172D01*
X396842Y471853D01*
Y439820D01*
X396842Y439820D01*
X397101Y438518D01*
X397152Y438259D01*
X398036Y436936D01*
X403516Y431456D01*
X403516Y431456D01*
X404839Y430572D01*
X404961Y430548D01*
X404836Y429278D01*
X395812D01*
X380618Y444472D01*
Y472364D01*
X382375Y473713D01*
X383916Y475720D01*
X384885Y478059D01*
X385215Y480568D01*
Y494792D01*
X384885Y497301D01*
X383916Y499640D01*
X382375Y501647D01*
X380368Y503188D01*
X378029Y504157D01*
X375520Y504487D01*
X373011Y504157D01*
X370672Y503188D01*
X368665Y501647D01*
X367124Y499640D01*
X366155Y497301D01*
X365825Y494792D01*
Y480568D01*
X366155Y478059D01*
X367124Y475720D01*
X368665Y473713D01*
X370422Y472364D01*
Y469655D01*
X369152Y469029D01*
X367668Y470168D01*
X365329Y471137D01*
X362820Y471467D01*
X360311Y471137D01*
X357972Y470168D01*
X355965Y468627D01*
X354424Y466619D01*
X353455Y464281D01*
X353125Y461772D01*
Y447548D01*
X353455Y445039D01*
X354424Y442701D01*
X355965Y440693D01*
X357972Y439152D01*
X360311Y438183D01*
X362820Y437853D01*
X365329Y438183D01*
X367668Y439152D01*
X369487Y440549D01*
X370306Y440462D01*
X370926Y440236D01*
X371915Y438755D01*
X390095Y420575D01*
X391749Y419470D01*
X393700Y419082D01*
X418604D01*
X418687Y417812D01*
X416790Y417562D01*
X414637Y416670D01*
X412788Y415252D01*
X411370Y413403D01*
X410478Y411250D01*
X410174Y408940D01*
X410478Y406630D01*
X411370Y404477D01*
X412788Y402628D01*
X414637Y401209D01*
X416790Y400318D01*
X419100Y400014D01*
X513080D01*
X515390Y400318D01*
X516105Y400614D01*
X576580D01*
X578794Y401054D01*
X580671Y402309D01*
X608943Y430580D01*
X609600Y430494D01*
X611910Y430798D01*
X614063Y431689D01*
X615912Y433108D01*
X615999Y433222D01*
X617202Y432814D01*
Y320040D01*
X617590Y318089D01*
X618695Y316435D01*
X629299Y305831D01*
X628813Y304658D01*
X484872D01*
X350489Y439041D01*
X348835Y440146D01*
X346884Y440534D01*
X345754D01*
X345128Y441804D01*
X345816Y442701D01*
X346785Y445039D01*
X347115Y447548D01*
Y461772D01*
X346785Y464281D01*
X345816Y466619D01*
X344275Y468627D01*
X342267Y470168D01*
X341498Y470487D01*
Y473928D01*
X342768Y474359D01*
X343265Y473713D01*
X345272Y472172D01*
X347611Y471203D01*
X350120Y470873D01*
X352629Y471203D01*
X354967Y472172D01*
X356975Y473713D01*
X358516Y475720D01*
X359485Y478059D01*
X359815Y480568D01*
Y491607D01*
X361792Y493584D01*
X361792Y493584D01*
X362676Y494907D01*
X362727Y495166D01*
X362986Y496468D01*
X362986Y496468D01*
Y552898D01*
X362986Y552898D01*
X362727Y554200D01*
X362676Y554459D01*
X361792Y555782D01*
X361792Y555782D01*
X340915Y576658D01*
X341370Y577999D01*
X342270Y578118D01*
X342655Y578277D01*
X396842Y524091D01*
D02*
G37*
G36*
X332268Y550564D02*
Y535555D01*
X331883Y535396D01*
X330068Y534003D01*
X329601Y534069D01*
X328798Y534342D01*
Y548054D01*
X328798Y548054D01*
X328539Y549356D01*
X328488Y549614D01*
X327604Y550938D01*
X327604Y550938D01*
X284193Y594349D01*
X284667Y595671D01*
X286390Y595898D01*
X286775Y596057D01*
X332268Y550564D01*
D02*
G37*
G36*
X871220Y735703D02*
X871220Y340360D01*
X881380D01*
Y294640D01*
X871220D01*
X871220Y135955D01*
X796763D01*
X767349Y165369D01*
X765782Y166571D01*
X763958Y167327D01*
X762000Y167585D01*
X447633D01*
X292045Y323173D01*
Y340351D01*
X388620D01*
X389595Y340545D01*
X390422Y341098D01*
X390975Y341925D01*
X391169Y342900D01*
Y382282D01*
X392342Y382768D01*
X479155Y295955D01*
X480809Y294850D01*
X481133Y294786D01*
X482760Y294462D01*
X635499D01*
X636308Y293408D01*
X638157Y291989D01*
X640310Y291098D01*
X642620Y290794D01*
X644930Y291098D01*
X647083Y291989D01*
X648932Y293408D01*
X650350Y295257D01*
X651242Y297410D01*
X651546Y299720D01*
X651242Y302030D01*
X650350Y304183D01*
X648932Y306032D01*
X647083Y307451D01*
X644930Y308342D01*
X642620Y308646D01*
X641103Y308447D01*
X627398Y322152D01*
Y607488D01*
X638563Y618653D01*
X640080Y618454D01*
X642390Y618758D01*
X644543Y619650D01*
X646392Y621068D01*
X647811Y622917D01*
X648702Y625070D01*
X649006Y627380D01*
X648702Y629690D01*
X647811Y631843D01*
X646392Y633692D01*
X644543Y635111D01*
X642390Y636002D01*
X640080Y636306D01*
X637770Y636002D01*
X635617Y635111D01*
X633768Y633692D01*
X632350Y631843D01*
X631458Y629690D01*
X631154Y627380D01*
X631353Y625863D01*
X618695Y613205D01*
X617590Y611551D01*
X617202Y609600D01*
Y446026D01*
X615999Y445618D01*
X615912Y445732D01*
X614063Y447150D01*
X611910Y448042D01*
X609600Y448346D01*
X607290Y448042D01*
X605137Y447150D01*
X603288Y445732D01*
X601870Y443883D01*
X600978Y441730D01*
X600674Y439420D01*
X600760Y438763D01*
X574183Y412186D01*
X530609D01*
X530123Y413359D01*
X539712Y422948D01*
X541130Y424797D01*
X542022Y426950D01*
X542326Y429260D01*
Y473534D01*
X554952Y486159D01*
X556371Y488008D01*
X557262Y490161D01*
X557566Y492471D01*
X557262Y494781D01*
X556371Y496934D01*
X554952Y498783D01*
X553103Y500201D01*
X550950Y501093D01*
X548640Y501397D01*
X546330Y501093D01*
X544177Y500201D01*
X542328Y498783D01*
X539835Y496290D01*
X539515Y496076D01*
X539300Y495755D01*
X527088Y483543D01*
X525670Y481694D01*
X524778Y479541D01*
X524474Y477231D01*
Y432957D01*
X509383Y417866D01*
X466489D01*
X466364Y419136D01*
X468041Y419470D01*
X469695Y420575D01*
X498682Y449562D01*
X500757D01*
X501688Y448348D01*
X503537Y446930D01*
X505690Y446038D01*
X506895Y445879D01*
X507351Y444538D01*
X500535Y437723D01*
X500150Y437882D01*
X497840Y438186D01*
X495530Y437882D01*
X493377Y436991D01*
X491528Y435572D01*
X490109Y433723D01*
X489218Y431570D01*
X488914Y429260D01*
X489218Y426950D01*
X490109Y424797D01*
X491528Y422948D01*
X493377Y421530D01*
X495530Y420638D01*
X497840Y420334D01*
X500150Y420638D01*
X502303Y421530D01*
X504152Y422948D01*
X505570Y424797D01*
X506462Y426950D01*
X506766Y429260D01*
X506462Y431570D01*
X506303Y431955D01*
X521234Y446886D01*
X521234Y446886D01*
X522118Y448209D01*
X522428Y449770D01*
Y458947D01*
X522428Y458947D01*
X522118Y460508D01*
X521825Y460947D01*
X521234Y461831D01*
X521234Y461831D01*
X515171Y467894D01*
X513848Y468778D01*
X513589Y468829D01*
X512287Y469088D01*
X512287Y469088D01*
X497728D01*
X497728Y469088D01*
X496167Y468778D01*
X495728Y468485D01*
X494844Y467894D01*
X494844Y467894D01*
X465369Y438418D01*
X444998D01*
X444566Y439688D01*
X445875Y440693D01*
X447416Y442701D01*
X448385Y445039D01*
X448715Y447548D01*
Y461772D01*
X448385Y464281D01*
X447416Y466619D01*
X446468Y467855D01*
X447268Y468898D01*
X447270Y468898D01*
X449580Y468594D01*
X451890Y468898D01*
X454043Y469790D01*
X455892Y471208D01*
X457310Y473057D01*
X457470Y473442D01*
X487680D01*
X487680Y473442D01*
X488982Y473701D01*
X489241Y473752D01*
X490564Y474636D01*
X548984Y533056D01*
X548984Y533056D01*
X549868Y534379D01*
X550178Y535940D01*
Y563880D01*
X550178Y563880D01*
X549919Y565182D01*
X549868Y565441D01*
X548984Y566764D01*
X548984Y566764D01*
X534243Y581505D01*
X534402Y581890D01*
X534706Y584200D01*
X534402Y586510D01*
X533511Y588663D01*
X532092Y590512D01*
X530243Y591931D01*
X528090Y592822D01*
X525780Y593126D01*
X523470Y592822D01*
X521317Y591931D01*
X519468Y590512D01*
X518050Y588663D01*
X517158Y586510D01*
X516854Y584200D01*
X517158Y581890D01*
X518050Y579737D01*
X519468Y577888D01*
X521317Y576469D01*
X523470Y575578D01*
X525780Y575274D01*
X528090Y575578D01*
X528475Y575737D01*
X542022Y562191D01*
Y537629D01*
X485991Y481598D01*
X457470D01*
X457310Y481983D01*
X455892Y483832D01*
X454043Y485251D01*
X451890Y486142D01*
X449580Y486446D01*
X447270Y486142D01*
X445117Y485251D01*
X444368Y484676D01*
X443098Y485303D01*
Y505302D01*
X444237Y505863D01*
X444907Y505350D01*
X447060Y504458D01*
X449370Y504154D01*
X451680Y504458D01*
X453833Y505350D01*
X455682Y506768D01*
X456613Y507982D01*
X467737D01*
X468668Y506768D01*
X470517Y505350D01*
X472670Y504458D01*
X474980Y504154D01*
X477290Y504458D01*
X479443Y505350D01*
X481292Y506768D01*
X482710Y508617D01*
X483602Y510770D01*
X483906Y513080D01*
X483602Y515390D01*
X482710Y517543D01*
X481292Y519392D01*
X479443Y520811D01*
X477290Y521702D01*
X474980Y522006D01*
X472670Y521702D01*
X470517Y520811D01*
X468668Y519392D01*
X467737Y518178D01*
X456613D01*
X455682Y519392D01*
X453833Y520811D01*
X451680Y521702D01*
X449370Y522006D01*
X447060Y521702D01*
X444907Y520811D01*
X444237Y520297D01*
X443098Y520858D01*
Y599440D01*
X442788Y601001D01*
X441904Y602324D01*
X441904Y602324D01*
X394143Y650085D01*
X394302Y650470D01*
X394606Y652780D01*
X394302Y655090D01*
X393410Y657243D01*
X391992Y659092D01*
X390143Y660510D01*
X387990Y661402D01*
X385680Y661706D01*
X383370Y661402D01*
X381217Y660510D01*
X379368Y659092D01*
X377949Y657243D01*
X377058Y655090D01*
X376754Y652780D01*
X377058Y650470D01*
X377949Y648317D01*
X379368Y646468D01*
X381217Y645050D01*
X383370Y644158D01*
X385680Y643854D01*
X387990Y644158D01*
X388375Y644317D01*
X434942Y597751D01*
Y501432D01*
X433672Y501001D01*
X433175Y501647D01*
X431167Y503188D01*
X430398Y503507D01*
Y538480D01*
X430088Y540041D01*
X429204Y541364D01*
X348423Y622145D01*
X348582Y622530D01*
X348886Y624840D01*
X348582Y627150D01*
X347691Y629303D01*
X346272Y631152D01*
X344423Y632570D01*
X342270Y633462D01*
X339960Y633766D01*
X338475Y633571D01*
X337881Y634774D01*
X380944Y677836D01*
X380944Y677836D01*
X381828Y679159D01*
X382096Y680506D01*
X383247D01*
X388434Y685693D01*
Y696067D01*
X383247Y701254D01*
X372873D01*
X367686Y696067D01*
Y685693D01*
X372476Y680903D01*
X316756Y625184D01*
X315872Y623861D01*
X315821Y623602D01*
X315562Y622300D01*
X315562Y622300D01*
Y608330D01*
X315562Y608330D01*
X315821Y607028D01*
X315872Y606769D01*
X316756Y605446D01*
X320067Y602135D01*
X319908Y601750D01*
X319642Y599728D01*
X318482Y599091D01*
X313141Y604432D01*
X313301Y604817D01*
X313605Y607127D01*
X313301Y609438D01*
X312409Y611590D01*
X310991Y613439D01*
X309142Y614858D01*
X306989Y615750D01*
X304679Y616054D01*
X302368Y615750D01*
X300215Y614858D01*
X298367Y613439D01*
X296948Y611590D01*
X296056Y609438D01*
X295752Y607127D01*
X296056Y604817D01*
X296948Y602664D01*
X298367Y600815D01*
X300215Y599397D01*
X302368Y598505D01*
X304679Y598201D01*
X306989Y598505D01*
X307374Y598665D01*
X354290Y551749D01*
X354187Y551246D01*
X352784Y550722D01*
X352043Y551291D01*
X349890Y552182D01*
X347580Y552486D01*
X345270Y552182D01*
X343117Y551291D01*
X341695Y550199D01*
X340425Y550758D01*
Y552254D01*
X340114Y553814D01*
X339230Y555137D01*
X339230Y555138D01*
X292543Y601825D01*
X292702Y602210D01*
X293006Y604520D01*
X292702Y606830D01*
X291810Y608983D01*
X290392Y610832D01*
X288543Y612251D01*
X286390Y613142D01*
X284080Y613446D01*
X281770Y613142D01*
X279617Y612251D01*
X277768Y610832D01*
X276350Y608983D01*
X275458Y606830D01*
X275231Y605107D01*
X273909Y604633D01*
X272918Y605623D01*
Y611870D01*
X273303Y612029D01*
X275152Y613448D01*
X276570Y615297D01*
X277462Y617450D01*
X277766Y619760D01*
X277462Y622070D01*
X276570Y624223D01*
X275152Y626072D01*
X273303Y627491D01*
X271150Y628382D01*
X268840Y628686D01*
X266530Y628382D01*
X264377Y627491D01*
X262528Y626072D01*
X261110Y624223D01*
X260218Y622070D01*
X259914Y619760D01*
X260218Y617450D01*
X261110Y615297D01*
X262528Y613448D01*
X264377Y612029D01*
X264762Y611870D01*
Y603934D01*
X264762Y603934D01*
X265021Y602632D01*
X265072Y602373D01*
X265956Y601050D01*
X287839Y579167D01*
X287384Y577826D01*
X285783Y577616D01*
X283630Y576724D01*
X281782Y575305D01*
X280363Y573456D01*
X279471Y571304D01*
X279167Y568993D01*
X279455Y566805D01*
X279172Y566459D01*
X279062Y566377D01*
X277873Y567073D01*
X277956Y567710D01*
X277652Y570020D01*
X276760Y572173D01*
X275342Y574021D01*
X273493Y575440D01*
X271340Y576332D01*
X269030Y576636D01*
X266720Y576332D01*
X264567Y575440D01*
X262718Y574021D01*
X261299Y572173D01*
X261028Y571518D01*
X243063D01*
X242132Y572732D01*
X240283Y574151D01*
X238130Y575042D01*
X235820Y575346D01*
X233510Y575042D01*
X231357Y574151D01*
X229508Y572732D01*
X228090Y570883D01*
X227198Y568730D01*
X226894Y566420D01*
X227198Y564110D01*
X228090Y561957D01*
X229508Y560108D01*
X231357Y558689D01*
X233510Y557798D01*
X235820Y557494D01*
X238130Y557798D01*
X240283Y558689D01*
X242132Y560108D01*
X243063Y561322D01*
X262817D01*
X264567Y559979D01*
X266720Y559087D01*
X269030Y558783D01*
X270515Y558979D01*
X271109Y557776D01*
X245636Y532304D01*
X244752Y530980D01*
X244701Y530721D01*
X244442Y529420D01*
X244442Y529420D01*
Y503507D01*
X243673Y503188D01*
X241665Y501647D01*
X240124Y499640D01*
X239155Y497301D01*
X238825Y494792D01*
Y480568D01*
X239155Y478059D01*
X240124Y475720D01*
X241665Y473713D01*
X243673Y472172D01*
X246011Y471203D01*
X248520Y470873D01*
X251029Y471203D01*
X253368Y472172D01*
X255375Y473713D01*
X256916Y475720D01*
X257885Y478059D01*
X258215Y480568D01*
Y494792D01*
X257885Y497301D01*
X256916Y499640D01*
X255375Y501647D01*
X253368Y503188D01*
X252598Y503507D01*
Y527730D01*
X285399Y560531D01*
X285783Y560371D01*
X288094Y560067D01*
X290404Y560371D01*
X292557Y561263D01*
X294405Y562681D01*
X295824Y564530D01*
X296716Y566683D01*
X296927Y568284D01*
X298267Y568739D01*
X320642Y546364D01*
Y503507D01*
X319872Y503188D01*
X317865Y501647D01*
X316324Y499640D01*
X315355Y497301D01*
X315025Y494792D01*
Y480568D01*
X315355Y478059D01*
X316324Y475720D01*
X317865Y473713D01*
X319622Y472364D01*
Y469655D01*
X318352Y469029D01*
X316868Y470168D01*
X314529Y471137D01*
X312020Y471467D01*
X309511Y471137D01*
X307173Y470168D01*
X305165Y468627D01*
X303624Y466619D01*
X302655Y464281D01*
X302325Y461772D01*
Y447548D01*
X302655Y445039D01*
X303624Y442701D01*
X305165Y440693D01*
X307173Y439152D01*
X309511Y438183D01*
X312020Y437853D01*
X314529Y438183D01*
X316868Y439152D01*
X318875Y440693D01*
X319289Y441232D01*
X320526Y440943D01*
X320598Y440580D01*
X321703Y438926D01*
X328798Y431831D01*
X330452Y430726D01*
X332403Y430338D01*
X344772D01*
X357368Y417742D01*
X356882Y416569D01*
X279400D01*
X278425Y416375D01*
X278150Y416192D01*
X277598Y415822D01*
X275058Y413282D01*
X274505Y412455D01*
X274311Y411480D01*
Y342900D01*
X274505Y341925D01*
X275058Y341098D01*
X275885Y340545D01*
X276860Y340351D01*
X276915D01*
Y320040D01*
X277173Y318082D01*
X277929Y316258D01*
X279131Y314691D01*
X439151Y154671D01*
X439151Y154671D01*
X440432Y153688D01*
X440106Y152418D01*
X431372D01*
X256558Y327232D01*
Y404288D01*
X290225Y437955D01*
X290855Y438898D01*
X291467Y439152D01*
X293475Y440693D01*
X295016Y442701D01*
X295985Y445039D01*
X296315Y447548D01*
Y461772D01*
X295985Y464281D01*
X295016Y466619D01*
X293475Y468627D01*
X291467Y470168D01*
X289129Y471137D01*
X286620Y471467D01*
X284111Y471137D01*
X281772Y470168D01*
X279765Y468627D01*
X278224Y466619D01*
X277255Y464281D01*
X276925Y461772D01*
Y447548D01*
X277255Y445039D01*
X278224Y442701D01*
X279234Y441384D01*
X247855Y410005D01*
X247668Y409725D01*
X246398Y410110D01*
Y432628D01*
X254420Y440650D01*
X256373Y439152D01*
X258711Y438183D01*
X261220Y437853D01*
X263729Y438183D01*
X266068Y439152D01*
X268075Y440693D01*
X269616Y442701D01*
X270585Y445039D01*
X270915Y447548D01*
Y461772D01*
X270585Y464281D01*
X269616Y466619D01*
X268075Y468627D01*
X266068Y470168D01*
X263729Y471137D01*
X261220Y471467D01*
X258711Y471137D01*
X256373Y470168D01*
X254365Y468627D01*
X252824Y466619D01*
X251855Y464281D01*
X251525Y461772D01*
Y452175D01*
X237695Y438345D01*
X236590Y436691D01*
X236202Y434740D01*
Y322580D01*
X236590Y320629D01*
X237695Y318975D01*
X423115Y133555D01*
X423422Y133350D01*
X423037Y132080D01*
X289560D01*
X223520Y198120D01*
X223520Y722933D01*
X224790Y723121D01*
X225054Y722251D01*
X226679Y719211D01*
X228866Y716546D01*
X231530Y714359D01*
X234571Y712734D01*
X237869Y711733D01*
X241300Y711395D01*
X244731Y711733D01*
X248029Y712734D01*
X251070Y714359D01*
X253734Y716546D01*
X255921Y719211D01*
X257546Y722251D01*
X258547Y725549D01*
X258885Y728980D01*
X258547Y732411D01*
X257661Y735330D01*
X258333Y736600D01*
X870322Y736601D01*
X871220Y735703D01*
D02*
G37*
G36*
X331229Y626325D02*
X331034Y624840D01*
X331338Y622530D01*
X332229Y620377D01*
X333648Y618528D01*
X335497Y617109D01*
X337650Y616218D01*
X339960Y615914D01*
X342270Y616218D01*
X342655Y616377D01*
X352010Y607022D01*
X351555Y605681D01*
X350350Y605522D01*
X348197Y604631D01*
X346348Y603212D01*
X344930Y601363D01*
X344038Y599210D01*
X343734Y596900D01*
X343866Y595892D01*
X342859Y595118D01*
X342270Y595362D01*
X339960Y595666D01*
X337803Y595382D01*
X337368Y595731D01*
X336853Y596407D01*
X337152Y597130D01*
X337456Y599440D01*
X337152Y601750D01*
X336260Y603903D01*
X334842Y605752D01*
X332993Y607170D01*
X330840Y608062D01*
X328530Y608366D01*
X326220Y608062D01*
X325835Y607903D01*
X323718Y610019D01*
Y620611D01*
X330026Y626919D01*
X331229Y626325D01*
D02*
G37*
G36*
X1285240Y553720D02*
X1277620Y546100D01*
X1176020D01*
X1173480Y548640D01*
X1165060Y557060D01*
Y594360D01*
X1285240D01*
Y553720D01*
D02*
G37*
%LPC*%
G36*
X1286760Y429751D02*
X1282633Y429426D01*
X1278608Y428460D01*
X1274783Y426876D01*
X1271254Y424713D01*
X1268106Y422024D01*
X1265417Y418877D01*
X1263254Y415347D01*
X1261670Y411522D01*
X1260704Y407497D01*
X1260379Y403370D01*
X1260704Y399243D01*
X1261670Y395218D01*
X1263254Y391393D01*
X1265417Y387864D01*
X1268106Y384716D01*
X1271254Y382027D01*
X1274783Y379864D01*
X1278608Y378280D01*
X1282633Y377313D01*
X1286760Y376989D01*
X1290887Y377313D01*
X1294912Y378280D01*
X1298737Y379864D01*
X1302267Y382027D01*
X1305414Y384716D01*
X1308103Y387864D01*
X1310266Y391393D01*
X1311850Y395218D01*
X1312817Y399243D01*
X1313141Y403370D01*
X1312817Y407497D01*
X1311850Y411522D01*
X1310266Y415347D01*
X1308103Y418877D01*
X1305414Y422024D01*
X1302267Y424713D01*
X1298737Y426876D01*
X1294912Y428460D01*
X1290887Y429426D01*
X1286760Y429751D01*
D02*
G37*
G36*
X357847Y726654D02*
X347473D01*
X342286Y721467D01*
Y711093D01*
X347473Y705906D01*
X357847D01*
X363034Y711093D01*
Y721467D01*
X357847Y726654D01*
D02*
G37*
G36*
X264160Y223671D02*
X260505Y223190D01*
X257100Y221779D01*
X254175Y219535D01*
X251931Y216610D01*
X250520Y213205D01*
X250039Y209550D01*
X250520Y205895D01*
X251931Y202490D01*
X254175Y199565D01*
X257100Y197321D01*
X260505Y195910D01*
X264160Y195429D01*
X267815Y195910D01*
X271220Y197321D01*
X274145Y199565D01*
X276389Y202490D01*
X277800Y205895D01*
X278281Y209550D01*
X277800Y213205D01*
X276389Y216610D01*
X274145Y219535D01*
X271220Y221779D01*
X267815Y223190D01*
X264160Y223671D01*
D02*
G37*
G36*
X680720Y334068D02*
X677747Y333677D01*
X674976Y332529D01*
X672597Y330703D01*
X670771Y328324D01*
X669623Y325553D01*
X669232Y322580D01*
X669623Y319607D01*
X670771Y316836D01*
X672597Y314457D01*
X674976Y312631D01*
X677747Y311483D01*
X680720Y311092D01*
X683693Y311483D01*
X686464Y312631D01*
X688843Y314457D01*
X690669Y316836D01*
X691817Y319607D01*
X692208Y322580D01*
X691817Y325553D01*
X690669Y328324D01*
X688843Y330703D01*
X686464Y332529D01*
X683693Y333677D01*
X680720Y334068D01*
D02*
G37*
G36*
X332447Y726654D02*
X322073D01*
X316886Y721467D01*
Y711093D01*
X322073Y705906D01*
X332447D01*
X337634Y711093D01*
Y721467D01*
X332447Y726654D01*
D02*
G37*
G36*
X513080Y666786D02*
X510770Y666482D01*
X508617Y665591D01*
X506768Y664172D01*
X505350Y662323D01*
X504458Y660170D01*
X504154Y657860D01*
X504458Y655550D01*
X505350Y653397D01*
X506768Y651548D01*
X508617Y650129D01*
X510770Y649238D01*
X513080Y648934D01*
X515390Y649238D01*
X517543Y650129D01*
X519392Y651548D01*
X520811Y653397D01*
X521702Y655550D01*
X522006Y657860D01*
X521702Y660170D01*
X520811Y662323D01*
X519392Y664172D01*
X517543Y665591D01*
X515390Y666482D01*
X513080Y666786D01*
D02*
G37*
G36*
X678180Y661728D02*
X675207Y661337D01*
X672436Y660189D01*
X670057Y658363D01*
X668231Y655984D01*
X667083Y653213D01*
X666692Y650240D01*
X667083Y647267D01*
X668231Y644496D01*
X670057Y642117D01*
X672436Y640291D01*
X675207Y639143D01*
X678180Y638752D01*
X681153Y639143D01*
X683924Y640291D01*
X686303Y642117D01*
X688129Y644496D01*
X689277Y647267D01*
X689668Y650240D01*
X689277Y653213D01*
X688129Y655984D01*
X686303Y658363D01*
X683924Y660189D01*
X681153Y661337D01*
X678180Y661728D01*
D02*
G37*
G36*
X273920Y504487D02*
X271411Y504157D01*
X269072Y503188D01*
X267065Y501647D01*
X265524Y499640D01*
X264555Y497301D01*
X264225Y494792D01*
Y480568D01*
X264555Y478059D01*
X265524Y475720D01*
X267065Y473713D01*
X269072Y472172D01*
X271411Y471203D01*
X273920Y470873D01*
X276429Y471203D01*
X278768Y472172D01*
X280775Y473713D01*
X282316Y475720D01*
X283285Y478059D01*
X283615Y480568D01*
Y494792D01*
X283285Y497301D01*
X282316Y499640D01*
X280775Y501647D01*
X278768Y503188D01*
X276429Y504157D01*
X273920Y504487D01*
D02*
G37*
G36*
X357847Y701254D02*
X347473D01*
X342286Y696067D01*
Y685693D01*
X347473Y680506D01*
X357847D01*
X363034Y685693D01*
Y696067D01*
X357847Y701254D01*
D02*
G37*
G36*
X332447D02*
X322073D01*
X316886Y696067D01*
Y685693D01*
X322073Y680506D01*
X332447D01*
X337634Y685693D01*
Y696067D01*
X332447Y701254D01*
D02*
G37*
%LPD*%
D18*
X1242060Y443700D02*
D03*
Y470700D02*
D03*
X1211580Y443700D02*
D03*
Y470700D02*
D03*
X1181100Y443700D02*
D03*
Y470700D02*
D03*
X1178560Y588480D02*
D03*
Y615480D02*
D03*
X1209040Y588480D02*
D03*
Y615480D02*
D03*
X1239520Y588480D02*
D03*
Y615480D02*
D03*
D51*
X251460Y406400D02*
X286620Y441560D01*
X251460Y325120D02*
Y406400D01*
Y325120D02*
X429260Y147320D01*
X756920D01*
X788750Y115490D01*
X751840Y137160D02*
X784860Y104140D01*
X426720Y137160D02*
X751840D01*
X241300Y322580D02*
X426720Y137160D01*
X1118950Y115490D02*
X1130300Y104140D01*
X788750Y115490D02*
X1118950D01*
X1130300Y104140D02*
X1176020D01*
X784860D02*
X1097280D01*
X286620Y441560D02*
Y454660D01*
X241300Y434740D02*
X261220Y454660D01*
X241300Y322580D02*
Y434740D01*
X543119Y492471D02*
X548640D01*
X449370Y513080D02*
X474980D01*
X496571Y454660D02*
X508000D01*
X622300Y320040D02*
X642620Y299720D01*
X622300Y609600D02*
X640080Y627380D01*
X622300Y320040D02*
Y609600D01*
X267740Y566420D02*
X269030Y567710D01*
X235820Y566420D02*
X267740D01*
X375520Y442360D02*
Y487680D01*
Y442360D02*
X393700Y424180D01*
X324720Y467377D02*
X325308Y466789D01*
X324720Y467377D02*
Y487680D01*
X325308Y442531D02*
X332403Y435436D01*
X325308Y442531D02*
Y466789D01*
X332403Y435436D02*
X346884D01*
X482760Y299560D01*
X642780D01*
X393700Y424180D02*
X466091D01*
X496571Y454660D01*
D52*
X762000Y160020D02*
X793630Y128390D01*
X444500Y160020D02*
X762000D01*
X284480Y320040D02*
X444500Y160020D01*
X793630Y128390D02*
X1116450D01*
X1124330Y136270D02*
X1150620D01*
X1116450Y128390D02*
X1124330Y136270D01*
X284480Y320040D02*
Y370840D01*
D54*
X533400Y477231D02*
X548640Y492471D01*
X533400Y429260D02*
Y477231D01*
X419100Y408940D02*
X513080D01*
X533400Y429260D01*
D55*
X497840D02*
X518350Y449770D01*
Y458947D01*
X512287Y465010D02*
X518350Y458947D01*
X497728Y465010D02*
X512287D01*
X467058Y434340D02*
X497728Y465010D01*
X406400Y434340D02*
X467058D01*
X400920Y439820D02*
X406400Y434340D01*
X400920Y439820D02*
Y487680D01*
X546100Y535940D02*
Y563880D01*
X487680Y477520D02*
X546100Y535940D01*
X449580Y477520D02*
X487680D01*
X525780Y584200D02*
X546100Y563880D01*
X248520Y487680D02*
Y529420D01*
X288094Y568993D01*
X268840Y603934D02*
X324720Y548054D01*
X268840Y603934D02*
Y619760D01*
X284080Y604520D02*
X336346Y552254D01*
Y527665D02*
Y552254D01*
X339960Y586740D02*
X400920Y525780D01*
Y487680D02*
Y525780D01*
X378060Y680720D02*
Y690880D01*
X319640Y608330D02*
X328530Y599440D01*
X319640Y608330D02*
Y622300D01*
X378060Y680720D01*
X339960Y624840D02*
X426320Y538480D01*
Y487680D02*
Y538480D01*
X350120Y487680D02*
X358908Y496468D01*
Y552898D01*
X304679Y607127D02*
X358908Y552898D01*
X347580Y508000D02*
Y543560D01*
X385680Y652780D02*
X439020Y599440D01*
Y454660D02*
Y599440D01*
X413620Y454660D02*
Y535940D01*
X352660Y596900D02*
X413620Y535940D01*
X337420Y497840D02*
X347580Y508000D01*
X324720Y487680D02*
Y548054D01*
X337420Y454660D02*
Y497840D01*
D56*
X505460Y406400D02*
X576580D01*
X609600Y439420D01*
D60*
X1239520Y220980D02*
D03*
D61*
X1214120Y233680D02*
D03*
X1239520Y246380D02*
D03*
X1214120Y259080D02*
D03*
X1239520Y271780D02*
D03*
X1214120Y284480D02*
D03*
X1239520Y297180D02*
D03*
X1214120Y309880D02*
D03*
D62*
X1333520Y187480D02*
D03*
Y343408D02*
D03*
D63*
X1303020Y208280D02*
D03*
Y322580D02*
D03*
D64*
X1351280Y119380D02*
D03*
X1348740Y723900D02*
D03*
X243840Y116840D02*
D03*
X241300Y728980D02*
D03*
D65*
X261220Y454660D02*
D03*
X286620D02*
D03*
X312020D02*
D03*
X337420D02*
D03*
X362820D02*
D03*
X388220D02*
D03*
X413620D02*
D03*
X439020D02*
D03*
X426320Y487680D02*
D03*
X400920D02*
D03*
X375520D02*
D03*
X350120D02*
D03*
X324720D02*
D03*
X299320D02*
D03*
X273920D02*
D03*
X248520D02*
D03*
D66*
X680720Y322580D02*
D03*
X706120D02*
D03*
X678180Y650240D02*
D03*
X703580D02*
D03*
D67*
X264160Y247650D02*
D03*
Y209550D02*
D03*
D68*
X1272560Y472920D02*
D03*
X1300960Y486770D02*
D03*
X1272560Y500620D02*
D03*
X1300960Y514470D02*
D03*
X1272560Y528320D02*
D03*
X1300960Y542170D02*
D03*
X1272560Y556020D02*
D03*
X1300960Y569870D02*
D03*
D69*
X1272560Y583720D02*
D03*
D70*
X1286760Y653270D02*
D03*
Y403370D02*
D03*
D71*
X327260Y690880D02*
D03*
Y716280D02*
D03*
X352660Y690880D02*
D03*
Y716280D02*
D03*
X378060Y690880D02*
D03*
Y716280D02*
D03*
D72*
X1150620Y136270D02*
D03*
X863600Y142240D02*
D03*
X650240Y200660D02*
D03*
X695960D02*
D03*
X1176020Y104140D02*
D03*
X1097280D02*
D03*
X1018540Y474980D02*
D03*
Y459740D02*
D03*
X1026160Y360680D02*
D03*
Y375920D02*
D03*
Y391160D02*
D03*
X558800Y243840D02*
D03*
X543560D02*
D03*
X525780D02*
D03*
X459740Y342900D02*
D03*
X449580Y495300D02*
D03*
X497840Y429260D02*
D03*
X609600Y439420D02*
D03*
X388620Y508000D02*
D03*
X548640Y492471D02*
D03*
X515620Y485140D02*
D03*
X474980Y513080D02*
D03*
X419100Y408940D02*
D03*
X525780Y584200D02*
D03*
X449580Y477520D02*
D03*
X513080Y657860D02*
D03*
X508000Y454660D02*
D03*
X642620Y299720D02*
D03*
X640080Y627380D02*
D03*
X642620Y279400D02*
D03*
X640080Y607060D02*
D03*
X680720Y187960D02*
D03*
X665480D02*
D03*
X655320Y248920D02*
D03*
Y576580D02*
D03*
X1018540Y490220D02*
D03*
X1003300Y459740D02*
D03*
Y474980D02*
D03*
Y490220D02*
D03*
X328530Y599440D02*
D03*
X288094Y568993D02*
D03*
X268840Y619760D02*
D03*
X304679Y607127D02*
D03*
X284080Y604520D02*
D03*
X336346Y527665D02*
D03*
X339960Y586740D02*
D03*
Y624840D02*
D03*
X347580Y543560D02*
D03*
X385680Y652780D02*
D03*
X352660Y596900D02*
D03*
X269030Y567710D02*
D03*
X449370Y513080D02*
D03*
X240900Y683260D02*
D03*
X279000Y660400D02*
D03*
X451720Y535940D02*
D03*
X240900Y668020D02*
D03*
Y652780D02*
D03*
X235820Y566420D02*
D03*
X375920Y424180D02*
D03*
X320040Y370840D02*
D03*
X340360D02*
D03*
X358140D02*
D03*
X375920D02*
D03*
X302260D02*
D03*
X284480D02*
D03*
X873760Y332740D02*
D03*
Y317500D02*
D03*
Y302260D02*
D03*
X929640Y345440D02*
D03*
X944880Y340360D02*
D03*
Y322580D02*
D03*
Y307340D02*
D03*
D73*
X916940Y464820D02*
D03*
Y452120D02*
D03*
X911860Y474980D02*
D03*
X901700D02*
D03*
X850900Y452120D02*
D03*
Y464820D02*
D03*
X855980Y474980D02*
D03*
X866140D02*
D03*
M02*
