%FSLAX42Y42*%
%MOMM*%
G71*
G01*
G75*
G04 Layer_Color=65535*
%ADD10R,4.86X3.36*%
%ADD11R,1.40X1.39*%
%ADD12R,1.42X3.02*%
%ADD13R,3.02X1.42*%
%ADD14R,0.70X0.90*%
%ADD15O,0.80X1.40*%
%ADD16R,0.80X1.40*%
%ADD17R,0.80X0.90*%
%ADD18R,2.60X1.10*%
%ADD19R,2.00X3.50*%
%ADD20R,2.18X1.52*%
%ADD21R,1.55X3.30*%
%ADD22R,1.52X2.18*%
%ADD23R,0.90X0.70*%
%ADD24R,0.90X0.80*%
%ADD25R,1.14X0.76*%
%ADD26R,2.26X3.00*%
%ADD27R,1.88X1.17*%
%ADD28R,1.10X1.40*%
%ADD29R,1.10X1.70*%
G04:AMPARAMS|DCode=30|XSize=0.9mm|YSize=0.7mm|CornerRadius=0mm|HoleSize=0mm|Usage=FLASHONLY|Rotation=225.000|XOffset=0mm|YOffset=0mm|HoleType=Round|Shape=Rectangle|*
%AMROTATEDRECTD30*
4,1,4,0.07,0.57,0.57,0.07,-0.07,-0.57,-0.57,-0.07,0.07,0.57,0.0*
%
%ADD30ROTATEDRECTD30*%

%ADD31R,1.80X3.20*%
%ADD32R,1.20X1.20*%
%ADD33R,4.00X3.10*%
G04:AMPARAMS|DCode=34|XSize=0.9mm|YSize=0.8mm|CornerRadius=0mm|HoleSize=0mm|Usage=FLASHONLY|Rotation=135.000|XOffset=0mm|YOffset=0mm|HoleType=Round|Shape=Rectangle|*
%AMROTATEDRECTD34*
4,1,4,0.60,-0.04,0.04,-0.60,-0.60,0.04,-0.04,0.60,0.60,-0.04,0.0*
%
%ADD34ROTATEDRECTD34*%

G04:AMPARAMS|DCode=35|XSize=0.9mm|YSize=0.8mm|CornerRadius=0mm|HoleSize=0mm|Usage=FLASHONLY|Rotation=45.000|XOffset=0mm|YOffset=0mm|HoleType=Round|Shape=Rectangle|*
%AMROTATEDRECTD35*
4,1,4,-0.04,-0.60,-0.60,-0.04,0.04,0.60,0.60,0.04,-0.04,-0.60,0.0*
%
%ADD35ROTATEDRECTD35*%

G04:AMPARAMS|DCode=36|XSize=0.9mm|YSize=0.7mm|CornerRadius=0mm|HoleSize=0mm|Usage=FLASHONLY|Rotation=315.000|XOffset=0mm|YOffset=0mm|HoleType=Round|Shape=Rectangle|*
%AMROTATEDRECTD36*
4,1,4,-0.57,0.07,-0.07,0.57,0.57,-0.07,0.07,-0.57,-0.57,0.07,0.0*
%
%ADD36ROTATEDRECTD36*%

%ADD37R,1.22X1.22*%
%ADD38R,1.40X3.30*%
%ADD39R,2.10X1.80*%
%ADD40O,1.00X0.55*%
%ADD41R,1.00X0.55*%
%ADD42O,0.55X1.00*%
%ADD43R,0.55X1.00*%
G04:AMPARAMS|DCode=44|XSize=1.55mm|YSize=1.3mm|CornerRadius=0.1mm|HoleSize=0mm|Usage=FLASHONLY|Rotation=90.000|XOffset=0mm|YOffset=0mm|HoleType=Round|Shape=RoundedRectangle|*
%AMROUNDEDRECTD44*
21,1,1.55,1.10,0,0,90.0*
21,1,1.35,1.30,0,0,90.0*
1,1,0.20,0.55,0.68*
1,1,0.20,0.55,-0.68*
1,1,0.20,-0.55,-0.68*
1,1,0.20,-0.55,0.68*
%
%ADD44ROUNDEDRECTD44*%
G04:AMPARAMS|DCode=45|XSize=0.55mm|YSize=1.65mm|CornerRadius=0mm|HoleSize=0mm|Usage=FLASHONLY|Rotation=135.000|XOffset=0mm|YOffset=0mm|HoleType=Round|Shape=Round|*
%AMOVALD45*
21,1,1.10,0.55,0.00,0.00,225.0*
1,1,0.55,0.39,0.39*
1,1,0.55,-0.39,-0.39*
%
%ADD45OVALD45*%

G04:AMPARAMS|DCode=46|XSize=0.55mm|YSize=1.65mm|CornerRadius=0mm|HoleSize=0mm|Usage=FLASHONLY|Rotation=225.000|XOffset=0mm|YOffset=0mm|HoleType=Round|Shape=Round|*
%AMOVALD46*
21,1,1.10,0.55,0.00,0.00,315.0*
1,1,0.55,-0.39,0.39*
1,1,0.55,0.39,-0.39*
%
%ADD46OVALD46*%

%ADD47R,1.22X1.22*%
%ADD48R,0.71X2.01*%
%ADD49R,1.22X2.24*%
%ADD50R,3.61X2.21*%
%ADD51C,0.75*%
%ADD52C,0.50*%
%ADD53C,1.00*%
%ADD54C,1.27*%
%ADD55C,0.30*%
%ADD56C,0.64*%
%ADD57C,0.51*%
%ADD58C,0.25*%
%ADD59C,0.70*%
%ADD60R,1.37X1.37*%
%ADD61C,1.37*%
%ADD62C,2.40*%
%ADD63C,3.25*%
%ADD64C,3.00*%
%ADD65O,1.42X2.84*%
%ADD66C,1.78*%
%ADD67C,2.30*%
%ADD68C,1.69*%
%ADD69R,1.69X1.69*%
%ADD70C,4.76*%
G04:AMPARAMS|DCode=71|XSize=1.57mm|YSize=1.57mm|CornerRadius=0mm|HoleSize=0mm|Usage=FLASHONLY|Rotation=0.000|XOffset=0mm|YOffset=0mm|HoleType=Round|Shape=Octagon|*
%AMOCTAGOND71*
4,1,8,0.79,-0.39,0.79,0.39,0.39,0.79,-0.39,0.79,-0.79,0.39,-0.79,-0.39,-0.39,-0.79,0.39,-0.79,0.79,-0.39,0.0*
%
%ADD71OCTAGOND71*%

%ADD72C,1.27*%
%ADD73C,0.80*%
%ADD74C,0.10*%
%ADD75C,0.15*%
%ADD76C,0.20*%
%ADD77C,0.60*%
%ADD78C,0.25*%
%ADD79C,0.13*%
%ADD80C,0.03*%
%ADD81C,0.23*%
%ADD82C,0.20*%
%ADD83C,0.15*%
%ADD84R,1.27X0.64*%
%ADD85R,0.30X0.30*%
%ADD86R,0.15X0.30*%
%ADD87R,0.15X0.30*%
%ADD88R,0.30X0.30*%
%ADD89R,0.30X0.15*%
%ADD90R,0.30X0.15*%
G36*
X3627Y4128D02*
X3628Y4128D01*
X3628Y4128D01*
X3629Y4129D01*
X3630Y4130D01*
X3631Y4131D01*
X3633Y4132D01*
X3635Y4134D01*
X3637Y4135D01*
X3637D01*
X3637Y4135D01*
X3637Y4135D01*
X3638Y4135D01*
X3639Y4136D01*
X3640Y4137D01*
X3642Y4138D01*
X3644Y4138D01*
X3645Y4139D01*
X3647Y4140D01*
Y4130D01*
X3647D01*
X3647Y4130D01*
X3646Y4130D01*
X3646Y4130D01*
X3645Y4129D01*
X3644Y4129D01*
X3642Y4128D01*
X3640Y4126D01*
X3638Y4125D01*
X3635Y4123D01*
X3633Y4121D01*
X3633Y4121D01*
X3632Y4121D01*
X3632Y4120D01*
X3632Y4120D01*
X3631Y4119D01*
X3629Y4117D01*
X3628Y4116D01*
X3626Y4114D01*
X3625Y4112D01*
X3624Y4110D01*
X3618D01*
Y4191D01*
X3627D01*
Y4128D01*
D02*
G37*
G36*
X3431Y4192D02*
Y4191D01*
Y4191D01*
X3431Y4190D01*
X3431Y4189D01*
X3431Y4188D01*
X3430Y4186D01*
X3430Y4185D01*
Y4185D01*
X3430Y4185D01*
X3430Y4185D01*
X3429Y4184D01*
X3429Y4183D01*
X3428Y4182D01*
X3427Y4180D01*
X3426Y4178D01*
X3425Y4176D01*
X3423Y4174D01*
X3423Y4174D01*
X3423Y4174D01*
X3423Y4174D01*
X3422Y4173D01*
X3421Y4172D01*
X3420Y4171D01*
X3418Y4169D01*
X3416Y4167D01*
X3413Y4165D01*
X3410Y4162D01*
X3410Y4162D01*
X3410Y4162D01*
X3409Y4161D01*
X3408Y4160D01*
X3407Y4159D01*
X3406Y4158D01*
X3405Y4157D01*
X3403Y4156D01*
X3400Y4153D01*
X3397Y4150D01*
X3396Y4149D01*
X3395Y4148D01*
X3394Y4146D01*
X3393Y4145D01*
X3392Y4145D01*
X3392Y4145D01*
X3392Y4144D01*
X3392Y4144D01*
X3392Y4143D01*
X3391Y4143D01*
X3390Y4141D01*
X3389Y4139D01*
X3389Y4137D01*
X3388Y4135D01*
X3388Y4134D01*
Y4133D01*
Y4133D01*
Y4133D01*
Y4133D01*
X3388Y4132D01*
X3388Y4131D01*
X3388Y4130D01*
X3389Y4128D01*
X3390Y4126D01*
X3391Y4125D01*
X3392Y4123D01*
X3392Y4123D01*
X3393Y4123D01*
X3394Y4122D01*
X3395Y4121D01*
X3397Y4120D01*
X3399Y4120D01*
X3401Y4119D01*
X3403Y4119D01*
X3404D01*
X3404Y4119D01*
X3405D01*
X3406Y4119D01*
X3407Y4120D01*
X3409Y4120D01*
X3411Y4121D01*
X3413Y4122D01*
X3415Y4123D01*
X3415Y4124D01*
X3415Y4124D01*
X3416Y4125D01*
X3417Y4126D01*
X3418Y4128D01*
X3418Y4130D01*
X3419Y4133D01*
X3419Y4135D01*
X3429Y4134D01*
Y4134D01*
X3429Y4134D01*
Y4133D01*
X3429Y4132D01*
X3429Y4131D01*
X3428Y4130D01*
X3428Y4129D01*
X3428Y4128D01*
X3427Y4125D01*
X3426Y4124D01*
X3425Y4122D01*
X3425Y4121D01*
X3424Y4119D01*
X3423Y4118D01*
X3421Y4117D01*
X3421Y4117D01*
X3421Y4117D01*
X3421Y4116D01*
X3420Y4116D01*
X3419Y4116D01*
X3418Y4115D01*
X3418Y4115D01*
X3416Y4114D01*
X3415Y4113D01*
X3414Y4113D01*
X3412Y4112D01*
X3411Y4112D01*
X3409Y4111D01*
X3407Y4111D01*
X3405Y4111D01*
X3403Y4111D01*
X3402D01*
X3401Y4111D01*
X3400Y4111D01*
X3399Y4111D01*
X3398Y4111D01*
X3396Y4112D01*
X3393Y4113D01*
X3392Y4113D01*
X3390Y4114D01*
X3389Y4114D01*
X3387Y4115D01*
X3386Y4116D01*
X3384Y4117D01*
X3384Y4118D01*
X3384Y4118D01*
X3384Y4118D01*
X3383Y4119D01*
X3383Y4119D01*
X3382Y4120D01*
X3382Y4121D01*
X3381Y4122D01*
X3380Y4123D01*
X3380Y4124D01*
X3379Y4127D01*
X3378Y4128D01*
X3378Y4130D01*
X3378Y4132D01*
X3378Y4133D01*
Y4134D01*
Y4134D01*
X3378Y4135D01*
X3378Y4136D01*
X3378Y4138D01*
X3379Y4139D01*
X3379Y4141D01*
X3380Y4143D01*
X3380Y4143D01*
X3380Y4144D01*
X3380Y4145D01*
X3381Y4146D01*
X3382Y4147D01*
X3383Y4149D01*
X3385Y4151D01*
X3386Y4153D01*
Y4153D01*
X3386Y4153D01*
X3387Y4153D01*
X3387Y4154D01*
X3388Y4154D01*
X3388Y4155D01*
X3389Y4156D01*
X3390Y4156D01*
X3391Y4157D01*
X3392Y4158D01*
X3393Y4160D01*
X3395Y4161D01*
X3396Y4162D01*
X3398Y4164D01*
X3400Y4165D01*
X3402Y4167D01*
X3402Y4167D01*
X3402Y4167D01*
X3402Y4168D01*
X3403Y4168D01*
X3404Y4169D01*
X3405Y4169D01*
X3406Y4171D01*
X3408Y4173D01*
X3410Y4174D01*
X3411Y4175D01*
X3412Y4176D01*
X3412Y4177D01*
X3413Y4177D01*
X3413Y4177D01*
X3413Y4178D01*
X3414Y4178D01*
X3414Y4179D01*
X3415Y4180D01*
X3416Y4181D01*
X3417Y4182D01*
X3378D01*
Y4192D01*
X3431D01*
Y4192D01*
D02*
G37*
G36*
X3076Y3486D02*
X3111D01*
Y3477D01*
X3075Y3425D01*
X3067D01*
Y3477D01*
X3056D01*
Y3486D01*
X3067D01*
Y3505D01*
X3076D01*
Y3486D01*
D02*
G37*
G36*
X3174Y4192D02*
X3175Y4192D01*
X3176Y4192D01*
X3177Y4192D01*
X3178Y4192D01*
X3181Y4191D01*
X3183Y4190D01*
X3184Y4190D01*
X3186Y4189D01*
X3187Y4188D01*
X3189Y4187D01*
X3190Y4186D01*
X3190Y4186D01*
X3190Y4186D01*
X3191Y4185D01*
X3191Y4185D01*
X3192Y4184D01*
X3192Y4184D01*
X3193Y4183D01*
X3194Y4182D01*
X3194Y4181D01*
X3195Y4179D01*
X3196Y4178D01*
X3196Y4176D01*
X3197Y4175D01*
X3197Y4173D01*
X3198Y4171D01*
X3198Y4170D01*
X3188Y4168D01*
Y4168D01*
X3188Y4169D01*
X3188Y4169D01*
X3188Y4170D01*
X3187Y4170D01*
X3187Y4171D01*
X3187Y4173D01*
X3186Y4175D01*
X3185Y4177D01*
X3184Y4179D01*
X3183Y4180D01*
X3182Y4181D01*
X3182Y4181D01*
X3182Y4181D01*
X3181Y4182D01*
X3180Y4182D01*
X3178Y4183D01*
X3176Y4184D01*
X3174Y4184D01*
X3172Y4184D01*
X3172D01*
X3171Y4184D01*
X3170D01*
X3170Y4184D01*
X3168Y4184D01*
X3166Y4183D01*
X3164Y4182D01*
X3162Y4181D01*
X3161Y4180D01*
X3160Y4179D01*
X3160Y4179D01*
X3160Y4179D01*
X3160Y4179D01*
X3160Y4179D01*
X3159Y4177D01*
X3158Y4176D01*
X3157Y4174D01*
X3156Y4172D01*
X3156Y4170D01*
X3156Y4169D01*
Y4167D01*
Y4167D01*
Y4167D01*
Y4167D01*
X3156Y4166D01*
Y4166D01*
X3156Y4165D01*
X3156Y4163D01*
X3157Y4162D01*
X3157Y4160D01*
X3159Y4158D01*
X3159Y4157D01*
X3160Y4156D01*
X3160Y4156D01*
X3161Y4155D01*
X3162Y4155D01*
X3163Y4154D01*
X3165Y4153D01*
X3167Y4153D01*
X3169Y4152D01*
X3171Y4152D01*
X3173D01*
X3173Y4152D01*
X3174Y4152D01*
X3176Y4152D01*
X3177Y4153D01*
X3178Y4153D01*
X3177Y4144D01*
X3177D01*
X3177Y4144D01*
X3176Y4144D01*
X3175D01*
X3175Y4144D01*
X3173Y4144D01*
X3172Y4144D01*
X3170Y4143D01*
X3168Y4143D01*
X3166Y4142D01*
X3164Y4141D01*
X3164D01*
X3164Y4141D01*
X3164Y4140D01*
X3163Y4140D01*
X3162Y4139D01*
X3161Y4137D01*
X3160Y4135D01*
X3159Y4133D01*
X3159Y4132D01*
X3159Y4131D01*
Y4131D01*
Y4131D01*
X3159Y4130D01*
X3159Y4129D01*
X3160Y4128D01*
X3160Y4126D01*
X3161Y4125D01*
X3162Y4123D01*
X3163Y4122D01*
X3163Y4122D01*
X3164Y4121D01*
X3165Y4121D01*
X3166Y4120D01*
X3167Y4119D01*
X3169Y4119D01*
X3170Y4118D01*
X3172Y4118D01*
X3173D01*
X3173Y4118D01*
X3175Y4118D01*
X3176Y4119D01*
X3177Y4119D01*
X3179Y4120D01*
X3181Y4121D01*
X3182Y4122D01*
X3182Y4122D01*
X3183Y4122D01*
X3183Y4123D01*
X3184Y4125D01*
X3185Y4126D01*
X3186Y4128D01*
X3187Y4130D01*
X3187Y4133D01*
X3197Y4131D01*
Y4131D01*
X3197Y4130D01*
X3197Y4130D01*
X3196Y4129D01*
X3196Y4128D01*
X3196Y4127D01*
X3196Y4126D01*
X3195Y4125D01*
X3194Y4123D01*
X3193Y4120D01*
X3191Y4118D01*
X3190Y4117D01*
X3189Y4116D01*
X3189Y4115D01*
X3188Y4115D01*
X3188Y4115D01*
X3188Y4115D01*
X3187Y4114D01*
X3186Y4114D01*
X3185Y4113D01*
X3184Y4113D01*
X3183Y4112D01*
X3182Y4112D01*
X3179Y4111D01*
X3176Y4110D01*
X3174Y4110D01*
X3173Y4110D01*
X3172D01*
X3171Y4110D01*
X3170D01*
X3169Y4110D01*
X3167Y4111D01*
X3165Y4111D01*
X3163Y4112D01*
X3161Y4113D01*
X3161D01*
X3160Y4113D01*
X3160Y4113D01*
X3160Y4113D01*
X3159Y4114D01*
X3157Y4115D01*
X3156Y4116D01*
X3155Y4117D01*
X3153Y4119D01*
X3152Y4121D01*
Y4121D01*
X3152Y4121D01*
X3152Y4121D01*
X3151Y4122D01*
X3151Y4124D01*
X3150Y4125D01*
X3150Y4127D01*
X3149Y4129D01*
X3149Y4131D01*
Y4131D01*
Y4131D01*
Y4132D01*
X3149Y4133D01*
X3149Y4134D01*
X3150Y4136D01*
X3150Y4137D01*
X3151Y4139D01*
X3152Y4141D01*
X3152Y4141D01*
X3152Y4141D01*
X3153Y4142D01*
X3154Y4143D01*
X3155Y4144D01*
X3157Y4145D01*
X3158Y4146D01*
X3160Y4147D01*
X3160D01*
X3160Y4147D01*
X3159Y4148D01*
X3159Y4148D01*
X3158Y4148D01*
X3158Y4148D01*
X3156Y4149D01*
X3154Y4150D01*
X3153Y4151D01*
X3151Y4153D01*
X3149Y4154D01*
Y4154D01*
X3149Y4154D01*
X3149Y4155D01*
X3148Y4155D01*
X3148Y4156D01*
X3148Y4156D01*
X3147Y4158D01*
X3146Y4160D01*
X3146Y4162D01*
X3145Y4164D01*
X3145Y4167D01*
Y4167D01*
Y4168D01*
Y4168D01*
X3145Y4169D01*
X3145Y4170D01*
X3146Y4171D01*
X3146Y4172D01*
X3146Y4173D01*
X3146Y4175D01*
X3147Y4176D01*
X3148Y4178D01*
X3148Y4179D01*
X3149Y4181D01*
X3150Y4182D01*
X3151Y4184D01*
X3153Y4185D01*
X3153Y4185D01*
X3153Y4185D01*
X3154Y4186D01*
X3154Y4186D01*
X3155Y4187D01*
X3156Y4187D01*
X3157Y4188D01*
X3158Y4189D01*
X3159Y4189D01*
X3161Y4190D01*
X3163Y4191D01*
X3164Y4191D01*
X3166Y4192D01*
X3168Y4192D01*
X3170Y4192D01*
X3172Y4192D01*
X3173D01*
X3174Y4192D01*
D02*
G37*
%LPC*%
G36*
X3102Y3477D02*
X3076D01*
Y3440D01*
X3102Y3477D01*
D02*
G37*
%LPD*%
D58*
X10592Y2603D02*
Y2984D01*
X9804Y2603D02*
X10592D01*
X9804D02*
Y2984D01*
X10592D01*
X10363Y6109D02*
Y6490D01*
X9576Y6109D02*
X10363D01*
X9576D02*
Y6490D01*
X10363D01*
X2188Y4229D02*
X2688D01*
X6210Y2798D02*
Y3298D01*
X7836Y6655D02*
Y7061D01*
X10427Y5245D02*
X10554D01*
Y5423D01*
X10427Y5245D02*
Y5423D01*
X8050Y3093D02*
X8088D01*
Y3360D01*
X8050D02*
X8088D01*
X8050Y3093D02*
Y3360D01*
X7301D02*
X8050D01*
X7301Y3093D02*
Y3360D01*
Y3093D02*
X8050D01*
X5283Y4547D02*
X5397D01*
X5283Y4293D02*
Y4547D01*
X5397Y4293D02*
Y4547D01*
X5283Y4293D02*
X5397D01*
X10478Y2045D02*
X10604D01*
Y2223D01*
X10478Y2045D02*
Y2223D01*
X5232Y6223D02*
Y6337D01*
Y6223D02*
X5486D01*
X5232Y6337D02*
X5486D01*
Y6223D02*
Y6337D01*
X2282Y1905D02*
Y2667D01*
X3002D01*
Y1905D02*
Y2667D01*
X2282Y1905D02*
X3002D01*
X7785Y3429D02*
Y3835D01*
X5998Y5728D02*
X6498D01*
X8141Y6299D02*
X8179D01*
Y6566D01*
X8141D02*
X8179D01*
X8141Y6299D02*
Y6566D01*
X7391D02*
X8141D01*
X7391Y6299D02*
Y6566D01*
Y6299D02*
X8141D01*
X11868Y5366D02*
X11817D01*
X11843D01*
Y5239D01*
X11817Y5213D01*
X11792D01*
X11767Y5239D01*
X12020Y5213D02*
X11919D01*
X12020Y5315D01*
Y5340D01*
X11995Y5366D01*
X11944D01*
X11919Y5340D01*
D74*
X4211Y1989D02*
G03*
X4211Y2581I-95J296D01*
G01*
X4020D02*
G03*
X4020Y1989I95J-296D01*
G01*
X3818Y3002D02*
G03*
X4410Y3002I296J95D01*
G01*
Y3194D02*
G03*
X3818Y3194I-296J-95D01*
G01*
X3970Y3739D02*
G03*
X4562Y3739I296J95D01*
G01*
Y3930D02*
G03*
X3970Y3930I-296J-95D01*
G01*
X4211Y2611D02*
X4440D01*
Y2129D02*
Y2611D01*
X4272Y1961D02*
X4440Y2129D01*
X4211Y1961D02*
X4272D01*
X3960D02*
X4020D01*
X3790Y2129D02*
X3960Y1961D01*
X3790Y2129D02*
Y2611D01*
X4020D01*
X4440Y2774D02*
Y3002D01*
X3957Y2774D02*
X4440D01*
X3790Y2941D02*
X3957Y2774D01*
X3790Y2941D02*
Y3002D01*
Y3194D02*
Y3254D01*
X3957Y3424D01*
X4440D01*
Y3194D02*
Y3424D01*
X4592Y3510D02*
Y3739D01*
X4110Y3510D02*
X4592D01*
X3942Y3678D02*
X4110Y3510D01*
X3942Y3678D02*
Y3739D01*
Y3930D02*
Y3990D01*
X4110Y4160D01*
X4592D01*
Y3930D02*
Y4160D01*
D75*
X12428Y1728D02*
G03*
X12428Y1728I-33J0D01*
G01*
X11976Y1910D02*
Y3485D01*
X13160D01*
X13510D02*
X13858D01*
Y1824D02*
Y3485D01*
X13520Y1824D02*
X13858D01*
X11976D02*
Y1910D01*
Y1824D02*
X13160D01*
X4073Y4674D02*
X4200D01*
X4263Y4610D01*
Y4483D02*
Y4610D01*
X4200Y4420D02*
X4263Y4483D01*
X3755Y4610D02*
X3819Y4674D01*
X3946D01*
X4009Y4610D01*
Y4483D02*
Y4610D01*
X3946Y4420D02*
X4009Y4483D01*
X3819Y4420D02*
X3946D01*
X3755Y4483D02*
X3819Y4420D01*
X4009Y4610D02*
X4073Y4674D01*
X4009Y4483D02*
X4073Y4420D01*
X4200D01*
X3311Y4674D02*
X3438D01*
X3501Y4610D01*
Y4483D02*
Y4610D01*
X3438Y4420D02*
X3501Y4483D01*
Y4610D02*
X3565Y4674D01*
X3692D01*
X3755Y4610D01*
Y4483D02*
Y4610D01*
X3692Y4420D02*
X3755Y4483D01*
X3565Y4420D02*
X3692D01*
X3501Y4483D02*
X3565Y4420D01*
X2993Y4610D02*
X3057Y4674D01*
X3184D01*
X3247Y4610D01*
Y4483D02*
Y4610D01*
X3184Y4420D02*
X3247Y4483D01*
X3057Y4420D02*
X3184D01*
X2993Y4483D02*
X3057Y4420D01*
X3247Y4610D02*
X3311Y4674D01*
X3247Y4483D02*
X3311Y4420D01*
X3438D01*
X2549Y4674D02*
X2676D01*
X2739Y4610D01*
Y4483D02*
Y4610D01*
X2676Y4420D02*
X2739Y4483D01*
Y4610D02*
X2803Y4674D01*
X2930D01*
X2993Y4610D01*
Y4483D02*
Y4610D01*
X2930Y4420D02*
X2993Y4483D01*
X2803Y4420D02*
X2930D01*
X2739Y4483D02*
X2803Y4420D01*
X2485Y4483D02*
Y4610D01*
X2549Y4674D01*
X2485Y4483D02*
X2549Y4420D01*
X2676D01*
X4327Y4674D02*
X4454D01*
X4517Y4610D01*
Y4483D02*
Y4610D01*
X4454Y4420D02*
X4517Y4483D01*
X4263Y4610D02*
X4327Y4674D01*
X4263Y4483D02*
X4327Y4420D01*
X4454D01*
X4200Y4750D02*
X4327D01*
X4136Y4813D02*
X4200Y4750D01*
X4136Y4940D02*
X4200Y5004D01*
X4327Y4750D02*
X4390Y4813D01*
Y4940D01*
X4327Y5004D02*
X4390Y4940D01*
X4200Y5004D02*
X4327D01*
X2422Y4750D02*
X2549D01*
X2358Y4813D02*
X2422Y4750D01*
X2358Y4940D02*
X2422Y5004D01*
X2358Y4813D02*
Y4940D01*
X2612Y4813D02*
X2676Y4750D01*
X2803D01*
X2866Y4813D01*
Y4940D01*
X2803Y5004D02*
X2866Y4940D01*
X2676Y5004D02*
X2803D01*
X2612Y4940D02*
X2676Y5004D01*
X2549Y4750D02*
X2612Y4813D01*
Y4940D01*
X2549Y5004D02*
X2612Y4940D01*
X2422Y5004D02*
X2549D01*
X3184Y4750D02*
X3311D01*
X3120Y4813D02*
X3184Y4750D01*
X3120Y4940D02*
X3184Y5004D01*
X2866Y4813D02*
X2930Y4750D01*
X3057D01*
X3120Y4813D01*
Y4940D01*
X3057Y5004D02*
X3120Y4940D01*
X2930Y5004D02*
X3057D01*
X2866Y4940D02*
X2930Y5004D01*
X3374Y4813D02*
X3438Y4750D01*
X3565D01*
X3628Y4813D01*
Y4940D01*
X3565Y5004D02*
X3628Y4940D01*
X3438Y5004D02*
X3565D01*
X3374Y4940D02*
X3438Y5004D01*
X3311Y4750D02*
X3374Y4813D01*
Y4940D01*
X3311Y5004D02*
X3374Y4940D01*
X3184Y5004D02*
X3311D01*
X3946Y4750D02*
X4073D01*
X3882Y4813D02*
X3946Y4750D01*
X3882Y4940D02*
X3946Y5004D01*
X3628Y4813D02*
X3692Y4750D01*
X3819D01*
X3882Y4813D01*
Y4940D01*
X3819Y5004D02*
X3882Y4940D01*
X3692Y5004D02*
X3819D01*
X3628Y4940D02*
X3692Y5004D01*
X4073Y4750D02*
X4136Y4813D01*
Y4940D01*
X4073Y5004D02*
X4136Y4940D01*
X3946Y5004D02*
X4073D01*
X3146Y6845D02*
X3209Y6782D01*
X3336D02*
X3400Y6845D01*
X3463Y6782D01*
X3590D02*
X3654Y6845D01*
X3146D02*
Y7226D01*
X3209Y7290D01*
X3336D01*
X3400Y7226D01*
X3463Y7290D01*
X3590D01*
X3654Y7226D01*
X3400Y6845D02*
Y7226D01*
X3654Y6845D02*
Y7226D01*
X3463Y6782D02*
X3590D01*
X3209D02*
X3336D01*
X3654Y6845D02*
X3717Y6782D01*
X3844D02*
X3908Y6845D01*
X3654Y7226D02*
X3717Y7290D01*
X3844D01*
X3908Y7226D01*
Y6845D02*
Y7226D01*
X3717Y6782D02*
X3844D01*
D76*
X11443Y1437D02*
G03*
X11443Y1501I0J32D01*
G01*
X7239Y5906D02*
G03*
X7302Y5906I32J0D01*
G01*
X7242Y2620D02*
G03*
X7305Y2620I32J0D01*
G01*
X13818Y6239D02*
G03*
X13888Y6170I69J0D01*
G01*
X14418Y6100D02*
G03*
X14348Y6169I-69J0D01*
G01*
X13888Y4397D02*
G03*
X13818Y4327I0J-69D01*
G01*
X14348Y4397D02*
G03*
X14418Y4467I0J69D01*
G01*
X11537Y1940D02*
X11577D01*
X11537Y1870D02*
X11577D01*
X11443Y1363D02*
X11951D01*
Y1576D01*
X11443D02*
X11951D01*
X11443Y1501D02*
Y1576D01*
Y1363D02*
Y1437D01*
X11816Y1940D02*
X11856D01*
X11816Y1870D02*
X11856D01*
X10864Y5294D02*
Y5374D01*
X10624Y5294D02*
Y5374D01*
X10940Y2068D02*
Y2148D01*
X10700Y2068D02*
Y2148D01*
X2188Y4287D02*
X2438D01*
X2188Y3485D02*
Y4287D01*
Y3485D02*
X2688D01*
Y4287D01*
X2438D02*
X2688D01*
X3624Y3023D02*
Y3273D01*
X2879D02*
X3624D01*
X2879Y2773D02*
Y3273D01*
Y2773D02*
X3624D01*
Y3023D01*
X6268Y3048D02*
Y3298D01*
X5466D02*
X6268D01*
X5466Y2798D02*
Y3298D01*
Y2798D02*
X6268D01*
Y3048D01*
X7071Y5035D02*
Y5075D01*
X7001Y5035D02*
Y5075D01*
X6178Y4181D02*
X6218D01*
X6178Y4251D02*
X6218D01*
X7151Y5906D02*
X7239D01*
X7302D02*
X7390D01*
Y5397D02*
Y5906D01*
X7151Y5397D02*
X7390D01*
X7151D02*
Y5906D01*
X8184Y2873D02*
X9484D01*
X8184Y1523D02*
X9484D01*
X8184D02*
Y2873D01*
X9484Y1523D02*
Y2873D01*
X7760Y2486D02*
Y2526D01*
X7690Y2486D02*
Y2526D01*
X7760Y2207D02*
Y2247D01*
X7690Y2207D02*
Y2247D01*
X5242Y4654D02*
Y4694D01*
X5172Y4654D02*
Y4694D01*
X6787Y2657D02*
X6827D01*
X6787Y2727D02*
X6827D01*
X6854Y2136D02*
Y2216D01*
X6614Y2136D02*
Y2216D01*
X6975Y6051D02*
Y6091D01*
X7045Y6051D02*
Y6091D01*
X8393Y7164D02*
X8473D01*
X8393Y7314D02*
X8473D01*
X5162Y5959D02*
X5202D01*
X5162Y6029D02*
X5202D01*
X7695Y5492D02*
Y5532D01*
X7765Y5492D02*
Y5532D01*
X7625Y6055D02*
X7665D01*
X7625Y5985D02*
X7665D01*
X7695Y5771D02*
Y5811D01*
X7765Y5771D02*
Y5811D01*
X5774Y7010D02*
Y7260D01*
X6519D01*
Y6760D02*
Y7260D01*
X5774Y6760D02*
X6519D01*
X5774D02*
Y7010D01*
X2801Y6440D02*
X2829Y6411D01*
X2751Y6390D02*
X2779Y6362D01*
X7775Y6655D02*
Y6858D01*
Y6655D02*
X8785D01*
Y7061D01*
X7775D02*
X8785D01*
X7775Y6858D02*
Y7061D01*
X9811Y5294D02*
Y5374D01*
X10051Y5294D02*
Y5374D01*
X10116Y5294D02*
Y5374D01*
X10356Y5294D02*
Y5374D01*
X5817Y4819D02*
X6067D01*
Y3969D02*
Y4819D01*
X5567Y3969D02*
X6067D01*
X5567D02*
Y4819D01*
X5817D01*
X2719Y6893D02*
X2759D01*
X2719Y6823D02*
X2759D01*
X4040Y5782D02*
X4080D01*
X4040Y5852D02*
X4080D01*
X4091Y7122D02*
X4131D01*
X4091Y7052D02*
X4131D01*
X2491Y5826D02*
X2531D01*
X2491Y5756D02*
X2531Y5756D01*
X2700Y5548D02*
X2729Y5576D01*
X2750Y5498D02*
X2778Y5527D01*
X2929Y5599D02*
X2957Y5627D01*
X2978Y5549D02*
X3007Y5577D01*
X8759Y4676D02*
X8919D01*
X8759Y4366D02*
X8919D01*
X12121Y4461D02*
X12161D01*
X12121Y4531D02*
X12161D01*
X11994Y6036D02*
X12034D01*
X11994Y6106D02*
X12034D01*
X6635Y5909D02*
X6675D01*
X6635Y5979D02*
X6675D01*
X6876Y5421D02*
Y5501D01*
X6636Y5421D02*
Y5501D01*
X7636Y2728D02*
X7676D01*
X7636Y2798D02*
X7676D01*
X10142Y2068D02*
Y2148D01*
X10382Y2068D02*
Y2148D01*
X9837Y2068D02*
Y2148D01*
X10077Y2068D02*
Y2148D01*
X7154Y2112D02*
Y2620D01*
Y2112D02*
X7393D01*
Y2620D01*
X7305D02*
X7393D01*
X7154D02*
X7242D01*
X7056Y2769D02*
Y2809D01*
X6986Y2769D02*
Y2809D01*
X8317Y4114D02*
X8397D01*
X8317Y3964D02*
X8397D01*
X9013Y3355D02*
X9173D01*
X9013Y3045D02*
X9173D01*
X3400Y6488D02*
X3817Y6071D01*
X2982D02*
X3400Y5653D01*
X2982Y6071D02*
X3400Y6488D01*
Y5653D02*
X3817Y6071D01*
X13518Y3743D02*
Y6823D01*
X12578Y3743D02*
X13818D01*
X12578Y6823D02*
X13818D01*
X14418Y4467D02*
Y6100D01*
X12578Y3743D02*
Y6823D01*
X12578Y4583D02*
X13518D01*
X13818Y3743D02*
Y6823D01*
X12578Y5983D02*
X13518D01*
X13888Y6170D02*
X14348D01*
X13888Y4397D02*
X14348D01*
X5567Y5849D02*
X5817D01*
X5567D02*
Y6699D01*
X6067D01*
Y5849D02*
Y6699D01*
X5817Y5849D02*
X6067D01*
X7725Y3429D02*
Y3632D01*
Y3429D02*
X8735D01*
Y3835D01*
X7725D02*
X8735D01*
X7725Y3632D02*
Y3835D01*
X5998Y5786D02*
X6248D01*
X5998Y4984D02*
Y5786D01*
Y4984D02*
X6498D01*
Y5786D01*
X6248D02*
X6498D01*
X5800Y3658D02*
Y3908D01*
X6545D01*
Y3408D02*
Y3908D01*
X5800Y3408D02*
X6545D01*
X5800D02*
Y3658D01*
X9488Y4794D02*
Y6144D01*
X8188Y4794D02*
Y6144D01*
Y4794D02*
X9488D01*
X8188Y6144D02*
X9488D01*
D77*
X8341Y1623D02*
G03*
X8341Y1623I-30J0D01*
G01*
X3430Y5795D02*
G03*
X3430Y5795I-30J0D01*
G01*
X8345Y4894D02*
G03*
X8345Y4894I-30J0D01*
G01*
D78*
X8029Y1588D02*
G03*
X8029Y1588I-12J0D01*
G01*
X3453Y5517D02*
G03*
X3453Y5517I-12J0D01*
G01*
X8032Y4860D02*
G03*
X8032Y4860I-12J0D01*
G01*
D79*
X4436Y6502D02*
G03*
X4436Y6502I-122J0D01*
G01*
X4466D02*
G03*
X4466Y6502I-152J0D01*
G01*
X6664Y3098D02*
Y3348D01*
Y3098D02*
X7162D01*
X7192Y3128D01*
Y3321D01*
X7164Y3348D02*
X7192Y3321D01*
X6664Y3348D02*
X7164D01*
X6639Y6375D02*
Y6625D01*
Y6375D02*
X7136D01*
X7166Y6405D01*
Y6597D01*
X7139Y6625D02*
X7166Y6597D01*
X6639Y6625D02*
X7139D01*
X4514Y6217D02*
Y6402D01*
Y6604D02*
Y6789D01*
X4113Y6604D02*
Y6789D01*
Y6217D02*
Y6402D01*
X4514D02*
X4534D01*
X4494D02*
X4514D01*
X4494D02*
Y6604D01*
X4514D01*
X4534D01*
Y6402D02*
Y6604D01*
X4113Y6402D02*
X4134D01*
X4093D02*
X4113D01*
X4093D02*
Y6604D01*
X4113D01*
X4134D01*
Y6402D02*
Y6604D01*
X4364Y6192D02*
Y6217D01*
X4263Y6192D02*
X4364D01*
X4263D02*
Y6217D01*
X4364D02*
X4514D01*
X4113D02*
X4263D01*
X4113Y6789D02*
X4514D01*
D80*
X7295Y4864D02*
X7353D01*
X7275Y4862D02*
X7374D01*
X7262Y4859D02*
X7389D01*
X7249Y4856D02*
X7402D01*
X7242Y4854D02*
X7409D01*
X7234Y4851D02*
X7419D01*
X7226Y4849D02*
X7427D01*
X6317Y4846D02*
X6320D01*
X7219D02*
X7435D01*
X7656D02*
X7821D01*
X6317Y4844D02*
X6320D01*
X6495D02*
X6662D01*
X6815D02*
X6982D01*
X7211D02*
X7440D01*
X7656D02*
X7821D01*
X6314Y4841D02*
X6322D01*
X6495D02*
X6662D01*
X6815D02*
X6982D01*
X7206D02*
X7447D01*
X7656D02*
X7821D01*
X6314Y4839D02*
X6325D01*
X6495D02*
X6662D01*
X6815D02*
X6982D01*
X7201D02*
X7452D01*
X7656D02*
X7821D01*
X6314Y4836D02*
X6322D01*
X6495D02*
X6662D01*
X6815D02*
X6982D01*
X7196D02*
X7457D01*
X7656D02*
X7821D01*
X6314Y4834D02*
X6322D01*
X6495D02*
X6662D01*
X6815D02*
X6982D01*
X7191D02*
X7463D01*
X7656D02*
X7821D01*
X6314Y4831D02*
X6322D01*
X6495D02*
X6662D01*
X6815D02*
X6982D01*
X7186D02*
X7468D01*
X7656D02*
X7821D01*
X6314Y4829D02*
X6322D01*
X6495D02*
X6662D01*
X6815D02*
X6982D01*
X7183D02*
X7473D01*
X7656D02*
X7821D01*
X6314Y4826D02*
X6322D01*
X6495D02*
X6662D01*
X6815D02*
X6982D01*
X7178D02*
X7478D01*
X7656D02*
X7821D01*
X6312Y4823D02*
X6327D01*
X6495D02*
X6662D01*
X6815D02*
X6982D01*
X7175D02*
X7483D01*
X7656D02*
X7821D01*
X6312Y4821D02*
X6325D01*
X6495D02*
X6662D01*
X6815D02*
X6982D01*
X7170D02*
X7485D01*
X7656D02*
X7821D01*
X6309Y4818D02*
X6327D01*
X6495D02*
X6662D01*
X6815D02*
X6982D01*
X7168D02*
X7490D01*
X7656D02*
X7821D01*
X6307Y4816D02*
X6330D01*
X6495D02*
X6662D01*
X6815D02*
X6982D01*
X7163D02*
X7496D01*
X7656D02*
X7821D01*
X6302Y4813D02*
X6335D01*
X6495D02*
X6662D01*
X6815D02*
X6982D01*
X7160D02*
X7498D01*
X7656D02*
X7821D01*
X6297Y4811D02*
X6340D01*
X6495D02*
X6662D01*
X6815D02*
X6982D01*
X7155D02*
X7501D01*
X7656D02*
X7821D01*
X6297Y4808D02*
X6342D01*
X6495D02*
X6662D01*
X6815D02*
X6982D01*
X7153D02*
X7506D01*
X7656D02*
X7821D01*
X6294Y4806D02*
X6345D01*
X6495D02*
X6662D01*
X6815D02*
X6982D01*
X7150D02*
X7508D01*
X7656D02*
X7821D01*
X6292Y4803D02*
X6347D01*
X6495D02*
X6662D01*
X6815D02*
X6982D01*
X7148D02*
X7511D01*
X7656D02*
X7821D01*
X6289Y4801D02*
X6347D01*
X6495D02*
X6662D01*
X6815D02*
X6982D01*
X7142D02*
X7513D01*
X7656D02*
X7821D01*
X6287Y4798D02*
X6350D01*
X6495D02*
X6662D01*
X6815D02*
X6982D01*
X7140D02*
X7518D01*
X7656D02*
X7821D01*
X6287Y4796D02*
X6350D01*
X6495D02*
X6662D01*
X6815D02*
X6982D01*
X7137D02*
X7521D01*
X7656D02*
X7821D01*
X6287Y4793D02*
X6353D01*
X6495D02*
X6662D01*
X6815D02*
X6982D01*
X7135D02*
X7523D01*
X7656D02*
X7821D01*
X6284Y4790D02*
X6353D01*
X6495D02*
X6662D01*
X6815D02*
X6982D01*
X7132D02*
X7526D01*
X7656D02*
X7821D01*
X6284Y4788D02*
X6353D01*
X6495D02*
X6662D01*
X6815D02*
X6982D01*
X7130D02*
X7529D01*
X7656D02*
X7821D01*
X6284Y4785D02*
X6353D01*
X6495D02*
X6662D01*
X6815D02*
X6982D01*
X7127D02*
X7531D01*
X7656D02*
X7821D01*
X6284Y4783D02*
X6353D01*
X6495D02*
X6662D01*
X6815D02*
X6982D01*
X7125D02*
X7536D01*
X7656D02*
X7821D01*
X6284Y4780D02*
X6353D01*
X6495D02*
X6662D01*
X6815D02*
X6982D01*
X7122D02*
X7539D01*
X7656D02*
X7821D01*
X6284Y4778D02*
X6353D01*
X6495D02*
X6662D01*
X6815D02*
X6982D01*
X7122D02*
X7541D01*
X7656D02*
X7821D01*
X6281Y4775D02*
X6355D01*
X6495D02*
X6662D01*
X6815D02*
X6982D01*
X7117D02*
X7541D01*
X7656D02*
X7821D01*
X6279Y4773D02*
X6358D01*
X6495D02*
X6662D01*
X6815D02*
X6982D01*
X7117D02*
X7544D01*
X7656D02*
X7821D01*
X6279Y4770D02*
X6322D01*
X6325D02*
X6358D01*
X6495D02*
X6662D01*
X6815D02*
X6982D01*
X7115D02*
X7546D01*
X7656D02*
X7821D01*
X6281Y4768D02*
X6358D01*
X6495D02*
X6662D01*
X6815D02*
X6982D01*
X7112D02*
X7549D01*
X7656D02*
X7821D01*
X6281Y4765D02*
X6314D01*
X6317D02*
X6335D01*
X6337D02*
X6358D01*
X6495D02*
X6662D01*
X6815D02*
X6982D01*
X7109D02*
X7551D01*
X7656D02*
X7821D01*
X6281Y4762D02*
X6304D01*
X6307D02*
X6317D01*
X6320D02*
X6358D01*
X6495D02*
X6662D01*
X6815D02*
X6982D01*
X7107D02*
X7554D01*
X7656D02*
X7821D01*
X6279Y4760D02*
X6294D01*
X6297D02*
X6304D01*
X6332D02*
X6358D01*
X6495D02*
X6662D01*
X6815D02*
X6982D01*
X7107D02*
X7557D01*
X7656D02*
X7821D01*
X6279Y4757D02*
X6294D01*
X6342D02*
X6358D01*
X6495D02*
X6662D01*
X6815D02*
X6982D01*
X7104D02*
X7557D01*
X7656D02*
X7821D01*
X6279Y4755D02*
X6281D01*
X6355D02*
X6358D01*
X6495D02*
X6662D01*
X6815D02*
X6982D01*
X7102D02*
X7559D01*
X7656D02*
X7821D01*
X6307Y4752D02*
X6330D01*
X6495D02*
X6662D01*
X6815D02*
X6982D01*
X7099D02*
X7300D01*
X7303D02*
X7325D01*
X7328D02*
X7346D01*
X7348D02*
X7562D01*
X7656D02*
X7821D01*
X6294Y4750D02*
X6342D01*
X6495D02*
X6662D01*
X6815D02*
X6982D01*
X7099D02*
X7308D01*
X7310D02*
X7564D01*
X7656D02*
X7821D01*
X6284Y4747D02*
X6353D01*
X6495D02*
X6662D01*
X6815D02*
X6982D01*
X7097D02*
X7315D01*
X7318D02*
X7564D01*
X7656D02*
X7821D01*
X6271Y4745D02*
X6365D01*
X6495D02*
X6662D01*
X6815D02*
X6982D01*
X7094D02*
X7333D01*
X7336D02*
X7567D01*
X7656D02*
X7821D01*
X6259Y4742D02*
X6378D01*
X6495D02*
X6662D01*
X6815D02*
X6982D01*
X7094D02*
X7341D01*
X7343D02*
X7569D01*
X7656D02*
X7821D01*
X6248Y4740D02*
X6388D01*
X6495D02*
X6662D01*
X6815D02*
X6982D01*
X7092D02*
X7109D01*
X7112D02*
X7569D01*
X7656D02*
X7821D01*
X6236Y4737D02*
X6401D01*
X6495D02*
X6662D01*
X6815D02*
X6982D01*
X7092D02*
X7572D01*
X7656D02*
X7821D01*
X6231Y4735D02*
X6406D01*
X6495D02*
X6662D01*
X6815D02*
X6982D01*
X7089D02*
X7297D01*
X7300D02*
X7308D01*
X7356D02*
X7572D01*
X7656D02*
X7821D01*
X6231Y4732D02*
X6406D01*
X6495D02*
X6662D01*
X6815D02*
X6982D01*
X7089D02*
X7259D01*
X7262D02*
X7277D01*
X7280D02*
X7297D01*
X7366D02*
X7374D01*
X7376D02*
X7391D01*
X7394D02*
X7404D01*
X7407D02*
X7574D01*
X7656D02*
X7821D01*
X6233Y4729D02*
X6403D01*
X6495D02*
X6662D01*
X6815D02*
X6982D01*
X7087D02*
X7287D01*
X7374D02*
X7412D01*
X7414D02*
X7577D01*
X7656D02*
X7821D01*
X6233Y4727D02*
X6403D01*
X6495D02*
X6662D01*
X6815D02*
X6982D01*
X7084D02*
X7285D01*
X7379D02*
X7577D01*
X7656D02*
X7821D01*
X6236Y4724D02*
X6401D01*
X6495D02*
X6662D01*
X6815D02*
X6982D01*
X7084D02*
X7280D01*
X7384D02*
X7579D01*
X7656D02*
X7821D01*
X6238Y4722D02*
X6251D01*
X6269D02*
X6281D01*
X6297D02*
X6309D01*
X6327D02*
X6340D01*
X6355D02*
X6368D01*
X6386D02*
X6398D01*
X6495D02*
X6662D01*
X6815D02*
X6982D01*
X7082D02*
X7275D01*
X7389D02*
X7579D01*
X7656D02*
X7821D01*
X6241Y4719D02*
X6251D01*
X6269D02*
X6279D01*
X6299D02*
X6309D01*
X6327D02*
X6337D01*
X6358D02*
X6368D01*
X6386D02*
X6396D01*
X6495D02*
X6662D01*
X6815D02*
X6982D01*
X7082D02*
X7267D01*
X7269D02*
X7272D01*
X7391D02*
X7582D01*
X7656D02*
X7821D01*
X6241Y4717D02*
X6251D01*
X6271D02*
X6279D01*
X6299D02*
X6307D01*
X6330D02*
X6337D01*
X6358D02*
X6368D01*
X6386D02*
X6396D01*
X6495D02*
X6662D01*
X6815D02*
X6982D01*
X7079D02*
X7267D01*
X7396D02*
X7579D01*
X7656D02*
X7821D01*
X6241Y4714D02*
X6251D01*
X6271D02*
X6279D01*
X6299D02*
X6309D01*
X6327D02*
X6337D01*
X6358D02*
X6365D01*
X6386D02*
X6396D01*
X6495D02*
X6662D01*
X6815D02*
X6982D01*
X7079D02*
X7264D01*
X7399D02*
X7414D01*
X7417D02*
X7574D01*
X7656D02*
X7821D01*
X6241Y4712D02*
X6251D01*
X6271D02*
X6279D01*
X6299D02*
X6307D01*
X6330D02*
X6337D01*
X6358D02*
X6365D01*
X6388D02*
X6396D01*
X6495D02*
X6662D01*
X6815D02*
X6982D01*
X7076D02*
X7234D01*
X7236D02*
X7254D01*
X7257D02*
X7262D01*
X7402D02*
X7429D01*
X7432D02*
X7541D01*
X7544D02*
X7569D01*
X7656D02*
X7821D01*
X6241Y4709D02*
X6251D01*
X6271D02*
X6279D01*
X6299D02*
X6307D01*
X6330D02*
X6337D01*
X6358D02*
X6365D01*
X6388D02*
X6396D01*
X6495D02*
X6662D01*
X6815D02*
X6982D01*
X7076D02*
X7259D01*
X7404D02*
X7531D01*
X7534D02*
X7564D01*
X7656D02*
X7821D01*
X6241Y4707D02*
X6251D01*
X6271D02*
X6279D01*
X6299D02*
X6307D01*
X6330D02*
X6337D01*
X6358D02*
X6365D01*
X6388D02*
X6396D01*
X6495D02*
X6662D01*
X6815D02*
X6982D01*
X7074D02*
X7257D01*
X7407D02*
X7559D01*
X7656D02*
X7821D01*
X6241Y4704D02*
X6251D01*
X6271D02*
X6279D01*
X6299D02*
X6307D01*
X6330D02*
X6337D01*
X6358D02*
X6365D01*
X6388D02*
X6396D01*
X6495D02*
X6662D01*
X6815D02*
X6982D01*
X7074D02*
X7239D01*
X7242D02*
X7254D01*
X7409D02*
X7521D01*
X7523D02*
X7554D01*
X7656D02*
X7821D01*
X6241Y4702D02*
X6251D01*
X6271D02*
X6279D01*
X6299D02*
X6307D01*
X6330D02*
X6337D01*
X6358D02*
X6365D01*
X6388D02*
X6396D01*
X6495D02*
X6662D01*
X6815D02*
X6982D01*
X7074D02*
X7252D01*
X7412D02*
X7549D01*
X7656D02*
X7821D01*
X6241Y4699D02*
X6251D01*
X6271D02*
X6279D01*
X6299D02*
X6307D01*
X6330D02*
X6337D01*
X6358D02*
X6365D01*
X6388D02*
X6396D01*
X6495D02*
X6662D01*
X6815D02*
X6982D01*
X7071D02*
X7249D01*
X7414D02*
X7419D01*
X7422D02*
X7544D01*
X7656D02*
X7821D01*
X6241Y4696D02*
X6251D01*
X6271D02*
X6279D01*
X6299D02*
X6307D01*
X6330D02*
X6337D01*
X6358D02*
X6365D01*
X6388D02*
X6396D01*
X6495D02*
X6662D01*
X6815D02*
X6982D01*
X7071D02*
X7247D01*
X7417D02*
X7539D01*
X7656D02*
X7821D01*
X6241Y4694D02*
X6251D01*
X6271D02*
X6279D01*
X6299D02*
X6307D01*
X6330D02*
X6337D01*
X6358D02*
X6365D01*
X6388D02*
X6396D01*
X6495D02*
X6662D01*
X6815D02*
X6982D01*
X7069D02*
X7244D01*
X7417D02*
X7534D01*
X7656D02*
X7821D01*
X6241Y4691D02*
X6251D01*
X6271D02*
X6279D01*
X6299D02*
X6307D01*
X6330D02*
X6337D01*
X6358D02*
X6365D01*
X6388D02*
X6396D01*
X6495D02*
X6662D01*
X6815D02*
X6982D01*
X7069D02*
X7244D01*
X7419D02*
X7432D01*
X7435D02*
X7488D01*
X7490D02*
X7508D01*
X7511D02*
X7529D01*
X7656D02*
X7821D01*
X6241Y4689D02*
X6251D01*
X6271D02*
X6279D01*
X6299D02*
X6307D01*
X6330D02*
X6337D01*
X6358D02*
X6365D01*
X6388D02*
X6396D01*
X6495D02*
X6662D01*
X6815D02*
X6982D01*
X7066D02*
X7242D01*
X7422D02*
X7478D01*
X7480D02*
X7523D01*
X7656D02*
X7821D01*
X6241Y4686D02*
X6251D01*
X6271D02*
X6279D01*
X6299D02*
X6307D01*
X6330D02*
X6337D01*
X6358D02*
X6365D01*
X6388D02*
X6396D01*
X6495D02*
X6662D01*
X6815D02*
X6982D01*
X7066D02*
X7239D01*
X7424D02*
X7496D01*
X7498D02*
X7518D01*
X7656D02*
X7821D01*
X6241Y4684D02*
X6251D01*
X6271D02*
X6279D01*
X6299D02*
X6307D01*
X6330D02*
X6337D01*
X6358D02*
X6365D01*
X6388D02*
X6396D01*
X6495D02*
X6662D01*
X6815D02*
X6982D01*
X7066D02*
X7239D01*
X7424D02*
X7513D01*
X7656D02*
X7821D01*
X6388Y4681D02*
X6396D01*
X6495D02*
X6662D01*
X6815D02*
X6982D01*
X7064D02*
X7236D01*
X7427D02*
X7508D01*
X7656D02*
X7821D01*
X6388Y4679D02*
X6396D01*
X6495D02*
X6662D01*
X6815D02*
X6982D01*
X7064D02*
X7236D01*
X7427D02*
X7503D01*
X7656D02*
X7821D01*
X6388Y4676D02*
X6396D01*
X6495D02*
X6662D01*
X6815D02*
X6982D01*
X7064D02*
X7234D01*
X7432D02*
X7498D01*
X7656D02*
X7821D01*
X6388Y4674D02*
X6396D01*
X6495D02*
X6662D01*
X6815D02*
X6982D01*
X7061D02*
X7234D01*
X7432D02*
X7493D01*
X7656D02*
X7821D01*
X6388Y4671D02*
X6396D01*
X6495D02*
X6662D01*
X6815D02*
X6982D01*
X7061D02*
X7231D01*
X7432D02*
X7437D01*
X7440D02*
X7468D01*
X7470D02*
X7488D01*
X7656D02*
X7821D01*
X6388Y4669D02*
X6396D01*
X6495D02*
X6662D01*
X6815D02*
X6982D01*
X7061D02*
X7231D01*
X7435D02*
X7450D01*
X7452D02*
X7460D01*
X7463D02*
X7483D01*
X7656D02*
X7821D01*
X6388Y4666D02*
X6396D01*
X6495D02*
X6662D01*
X6815D02*
X6982D01*
X7059D02*
X7229D01*
X7435D02*
X7478D01*
X7656D02*
X7821D01*
X6388Y4663D02*
X6396D01*
X6495D02*
X6662D01*
X6815D02*
X6982D01*
X7059D02*
X7214D01*
X7216D02*
X7229D01*
X7437D02*
X7473D01*
X7656D02*
X7821D01*
X6386Y4661D02*
X6396D01*
X6495D02*
X6662D01*
X6815D02*
X6982D01*
X7059D02*
X7229D01*
X7437D02*
X7468D01*
X7656D02*
X7821D01*
X6241Y4658D02*
X6396D01*
X6495D02*
X6662D01*
X6815D02*
X6982D01*
X7059D02*
X7226D01*
X7440D02*
X7460D01*
X7656D02*
X7821D01*
X6241Y4656D02*
X6396D01*
X6495D02*
X6662D01*
X6815D02*
X6982D01*
X7056D02*
X7226D01*
X7440D02*
X7455D01*
X7656D02*
X7821D01*
X6233Y4653D02*
X6403D01*
X6495D02*
X6662D01*
X6815D02*
X6982D01*
X7056D02*
X7226D01*
X7442D02*
X7450D01*
X7656D02*
X7821D01*
X6233Y4651D02*
X6403D01*
X6495D02*
X6662D01*
X6815D02*
X6982D01*
X7056D02*
X7224D01*
X7442D02*
X7445D01*
X7656D02*
X7821D01*
X6233Y4648D02*
X6403D01*
X6495D02*
X6662D01*
X6815D02*
X6982D01*
X7056D02*
X7214D01*
X7216D02*
X7224D01*
X7656D02*
X7821D01*
X6233Y4646D02*
X6403D01*
X6495D02*
X6662D01*
X6815D02*
X6982D01*
X7054D02*
X7064D01*
X7066D02*
X7224D01*
X7656D02*
X7821D01*
X6233Y4643D02*
X6403D01*
X6495D02*
X6662D01*
X6815D02*
X6982D01*
X7054D02*
X7224D01*
X7656D02*
X7821D01*
X6226Y4641D02*
X6411D01*
X6495D02*
X6662D01*
X6815D02*
X6982D01*
X7054D02*
X7221D01*
X7656D02*
X7821D01*
X6226Y4638D02*
X6411D01*
X6495D02*
X6662D01*
X6815D02*
X6982D01*
X7054D02*
X7221D01*
X7656D02*
X7821D01*
X6226Y4635D02*
X6411D01*
X6495D02*
X6662D01*
X6815D02*
X6982D01*
X7054D02*
X7221D01*
X7656D02*
X7821D01*
X6226Y4633D02*
X6411D01*
X6495D02*
X6662D01*
X6815D02*
X6982D01*
X7051D02*
X7221D01*
X7656D02*
X7821D01*
X6495Y4630D02*
X6662D01*
X6815D02*
X6982D01*
X7051D02*
X7221D01*
X7656D02*
X7821D01*
X6495Y4628D02*
X6662D01*
X6815D02*
X6982D01*
X7051D02*
X7219D01*
X7656D02*
X7821D01*
X6495Y4625D02*
X6662D01*
X6815D02*
X6982D01*
X7051D02*
X7219D01*
X7656D02*
X7821D01*
X6495Y4623D02*
X6662D01*
X6815D02*
X6982D01*
X7051D02*
X7219D01*
X7656D02*
X7821D01*
X6495Y4620D02*
X6662D01*
X6815D02*
X6982D01*
X7051D02*
X7219D01*
X7656D02*
X7821D01*
X6495Y4618D02*
X6662D01*
X6815D02*
X6982D01*
X7049D02*
X7219D01*
X7656D02*
X7821D01*
X6495Y4615D02*
X6662D01*
X6815D02*
X6982D01*
X7049D02*
X7219D01*
X7656D02*
X7821D01*
X6495Y4613D02*
X6662D01*
X6815D02*
X6982D01*
X7049D02*
X7219D01*
X7656D02*
X7821D01*
X6495Y4610D02*
X6662D01*
X6815D02*
X6982D01*
X7049D02*
X7219D01*
X7656D02*
X7821D01*
X6495Y4608D02*
X6662D01*
X6815D02*
X6982D01*
X7049D02*
X7219D01*
X7656D02*
X7821D01*
X6495Y4605D02*
X6662D01*
X6815D02*
X6982D01*
X7049D02*
X7219D01*
X7656D02*
X7821D01*
X6495Y4602D02*
X6662D01*
X6815D02*
X6982D01*
X7049D02*
X7216D01*
X7656D02*
X7821D01*
X6495Y4600D02*
X6662D01*
X6815D02*
X6982D01*
X7049D02*
X7216D01*
X7656D02*
X7821D01*
X6495Y4597D02*
X6662D01*
X6815D02*
X6982D01*
X7049D02*
X7216D01*
X7656D02*
X7821D01*
X6495Y4595D02*
X6662D01*
X6815D02*
X6982D01*
X7049D02*
X7216D01*
X7656D02*
X7821D01*
X6495Y4592D02*
X6662D01*
X6815D02*
X6982D01*
X7049D02*
X7216D01*
X7656D02*
X7821D01*
X6495Y4590D02*
X6662D01*
X6815D02*
X6982D01*
X7046D02*
X7216D01*
X7656D02*
X7821D01*
X6495Y4587D02*
X6662D01*
X6815D02*
X6982D01*
X7046D02*
X7216D01*
X7656D02*
X7821D01*
X6495Y4585D02*
X6662D01*
X6815D02*
X6982D01*
X7046D02*
X7216D01*
X7656D02*
X7821D01*
X6495Y4582D02*
X6662D01*
X6815D02*
X6982D01*
X7046D02*
X7216D01*
X7656D02*
X7821D01*
X6495Y4580D02*
X6662D01*
X6815D02*
X6982D01*
X7046D02*
X7216D01*
X7656D02*
X7821D01*
X6495Y4577D02*
X6662D01*
X6815D02*
X6982D01*
X7046D02*
X7216D01*
X7656D02*
X7821D01*
X6495Y4575D02*
X6662D01*
X6815D02*
X6982D01*
X7046D02*
X7216D01*
X7656D02*
X7821D01*
X6495Y4572D02*
X6662D01*
X6815D02*
X6982D01*
X7046D02*
X7216D01*
X7656D02*
X7821D01*
X6495Y4569D02*
X6662D01*
X6815D02*
X6982D01*
X7046D02*
X7219D01*
X7656D02*
X7821D01*
X6495Y4567D02*
X6662D01*
X6815D02*
X6982D01*
X7046D02*
X7219D01*
X7656D02*
X7821D01*
X6495Y4564D02*
X6662D01*
X6815D02*
X6982D01*
X7046D02*
X7219D01*
X7656D02*
X7821D01*
X6495Y4562D02*
X6662D01*
X6815D02*
X6982D01*
X7046D02*
X7219D01*
X7656D02*
X7821D01*
X6495Y4559D02*
X6662D01*
X6815D02*
X6982D01*
X7049D02*
X7219D01*
X7656D02*
X7821D01*
X6495Y4557D02*
X6662D01*
X6815D02*
X6982D01*
X7049D02*
X7219D01*
X7656D02*
X7821D01*
X6495Y4554D02*
X6662D01*
X6815D02*
X6982D01*
X7049D02*
X7219D01*
X7656D02*
X7821D01*
X6495Y4552D02*
X6662D01*
X6815D02*
X6982D01*
X7049D02*
X7219D01*
X7656D02*
X7821D01*
X6495Y4549D02*
X6662D01*
X6815D02*
X6982D01*
X7049D02*
X7219D01*
X7656D02*
X7821D01*
X6495Y4547D02*
X6662D01*
X6815D02*
X6982D01*
X7049D02*
X7219D01*
X7656D02*
X7821D01*
X6495Y4544D02*
X6662D01*
X6815D02*
X6982D01*
X7049D02*
X7221D01*
X7656D02*
X7821D01*
X6495Y4542D02*
X6662D01*
X6815D02*
X6982D01*
X7049D02*
X7221D01*
X7656D02*
X7821D01*
X6495Y4539D02*
X6662D01*
X6815D02*
X6982D01*
X7049D02*
X7221D01*
X7656D02*
X7821D01*
X6495Y4536D02*
X6662D01*
X6815D02*
X6982D01*
X7049D02*
X7221D01*
X7656D02*
X7821D01*
X6495Y4534D02*
X6662D01*
X6815D02*
X6982D01*
X7051D02*
X7221D01*
X7656D02*
X7821D01*
X6495Y4531D02*
X6662D01*
X6815D02*
X6982D01*
X7051D02*
X7221D01*
X7656D02*
X7821D01*
X6495Y4529D02*
X6662D01*
X6815D02*
X6982D01*
X7051D02*
X7224D01*
X7656D02*
X7821D01*
X6495Y4526D02*
X6662D01*
X6815D02*
X6982D01*
X7051D02*
X7224D01*
X7656D02*
X7821D01*
X6495Y4524D02*
X6662D01*
X6815D02*
X6982D01*
X7051D02*
X7224D01*
X7656D02*
X7821D01*
X6495Y4521D02*
X6662D01*
X6815D02*
X6982D01*
X7051D02*
X7224D01*
X7656D02*
X7821D01*
X6495Y4519D02*
X6662D01*
X6815D02*
X6982D01*
X7051D02*
X7226D01*
X7656D02*
X7821D01*
X6495Y4516D02*
X6662D01*
X6815D02*
X6982D01*
X7054D02*
X7064D01*
X7066D02*
X7226D01*
X7440D02*
X7445D01*
X7656D02*
X7821D01*
X6495Y4514D02*
X6662D01*
X6815D02*
X6982D01*
X7054D02*
X7226D01*
X7440D02*
X7450D01*
X7656D02*
X7821D01*
X6495Y4511D02*
X6662D01*
X6815D02*
X6982D01*
X7054D02*
X7226D01*
X7440D02*
X7455D01*
X7656D02*
X7821D01*
X6495Y4508D02*
X6662D01*
X6815D02*
X6980D01*
X7054D02*
X7229D01*
X7437D02*
X7460D01*
X7656D02*
X7821D01*
X6495Y4506D02*
X6662D01*
X6815D02*
X6980D01*
X7054D02*
X7229D01*
X7437D02*
X7465D01*
X7656D02*
X7821D01*
X6495Y4503D02*
X6662D01*
X6815D02*
X6980D01*
X7056D02*
X7231D01*
X7437D02*
X7470D01*
X7656D02*
X7821D01*
X6495Y4501D02*
X6662D01*
X6815D02*
X6980D01*
X7056D02*
X7231D01*
X7435D02*
X7475D01*
X7656D02*
X7821D01*
X6497Y4498D02*
X6645D01*
X6647D02*
X6662D01*
X6815D02*
X6820D01*
X6822D02*
X6980D01*
X7056D02*
X7231D01*
X7435D02*
X7480D01*
X7656D02*
X7821D01*
X6497Y4496D02*
X6662D01*
X6812D02*
X6970D01*
X6972D02*
X6980D01*
X7056D02*
X7214D01*
X7216D02*
X7234D01*
X7432D02*
X7485D01*
X7656D02*
X7821D01*
X6497Y4493D02*
X6662D01*
X6812D02*
X6980D01*
X7059D02*
X7066D01*
X7069D02*
X7234D01*
X7432D02*
X7493D01*
X7656D02*
X7821D01*
X6497Y4491D02*
X6662D01*
X6812D02*
X6980D01*
X7059D02*
X7236D01*
X7429D02*
X7498D01*
X7656D02*
X7821D01*
X6497Y4488D02*
X6665D01*
X6812D02*
X6980D01*
X7059D02*
X7236D01*
X7429D02*
X7503D01*
X7656D02*
X7821D01*
X6497Y4486D02*
X6665D01*
X6812D02*
X6980D01*
X7061D02*
X7239D01*
X7427D02*
X7508D01*
X7656D02*
X7821D01*
X6497Y4483D02*
X6665D01*
X6812D02*
X6977D01*
X7061D02*
X7239D01*
X7427D02*
X7513D01*
X7656D02*
X7821D01*
X6497Y4481D02*
X6665D01*
X6812D02*
X6977D01*
X7061D02*
X7242D01*
X7424D02*
X7518D01*
X7656D02*
X7821D01*
X6497Y4478D02*
X6665D01*
X6812D02*
X6977D01*
X7064D02*
X7242D01*
X7422D02*
X7523D01*
X7656D02*
X7821D01*
X6497Y4475D02*
X6665D01*
X6810D02*
X6977D01*
X7064D02*
X7244D01*
X7419D02*
X7529D01*
X7656D02*
X7821D01*
X6497Y4473D02*
X6668D01*
X6810D02*
X6977D01*
X7064D02*
X7247D01*
X7419D02*
X7534D01*
X7656D02*
X7821D01*
X6497Y4470D02*
X6668D01*
X6810D02*
X6977D01*
X7066D02*
X7249D01*
X7417D02*
X7539D01*
X7656D02*
X7821D01*
X6500Y4468D02*
X6670D01*
X6807D02*
X6975D01*
X7066D02*
X7087D01*
X7089D02*
X7249D01*
X7414D02*
X7544D01*
X7656D02*
X7821D01*
X6500Y4465D02*
X6670D01*
X6807D02*
X6975D01*
X7066D02*
X7076D01*
X7079D02*
X7252D01*
X7412D02*
X7549D01*
X7656D02*
X7821D01*
X6500Y4463D02*
X6673D01*
X6805D02*
X6975D01*
X7069D02*
X7254D01*
X7409D02*
X7557D01*
X7656D02*
X7821D01*
X6500Y4460D02*
X6673D01*
X6805D02*
X6975D01*
X7069D02*
X7257D01*
X7407D02*
X7562D01*
X7656D02*
X7821D01*
X6500Y4458D02*
X6675D01*
X6802D02*
X6975D01*
X7071D02*
X7259D01*
X7407D02*
X7567D01*
X7656D02*
X7821D01*
X6500Y4455D02*
X6675D01*
X6800D02*
X6972D01*
X7071D02*
X7262D01*
X7402D02*
X7569D01*
X7656D02*
X7821D01*
X6502Y4453D02*
X6678D01*
X6800D02*
X6972D01*
X7071D02*
X7264D01*
X7399D02*
X7577D01*
X7656D02*
X7821D01*
X6502Y4450D02*
X6680D01*
X6797D02*
X6972D01*
X7074D02*
X7239D01*
X7242D02*
X7267D01*
X7396D02*
X7582D01*
X7656D02*
X8042D01*
X6502Y4448D02*
X6683D01*
X6794D02*
X6970D01*
X7074D02*
X7272D01*
X7391D02*
X7582D01*
X7656D02*
X8042D01*
X6502Y4445D02*
X6685D01*
X6792D02*
X6970D01*
X7076D02*
X7275D01*
X7389D02*
X7579D01*
X7656D02*
X8042D01*
X6505Y4442D02*
X6515D01*
X6518D02*
X6688D01*
X6789D02*
X6957D01*
X6960D02*
X6970D01*
X7076D02*
X7084D01*
X7087D02*
X7280D01*
X7384D02*
X7579D01*
X7656D02*
X8042D01*
X6505Y4440D02*
X6690D01*
X6784D02*
X6967D01*
X7079D02*
X7285D01*
X7379D02*
X7577D01*
X7656D02*
X8042D01*
X6505Y4437D02*
X6695D01*
X6779D02*
X6967D01*
X7079D02*
X7290D01*
X7371D02*
X7577D01*
X7656D02*
X8042D01*
X6505Y4435D02*
X6701D01*
X6774D02*
X6967D01*
X7082D02*
X7297D01*
X7363D02*
X7574D01*
X7656D02*
X8042D01*
X6507Y4432D02*
X6665D01*
X6668D02*
X6706D01*
X6769D02*
X6802D01*
X6805D02*
X6965D01*
X7082D02*
X7310D01*
X7353D02*
X7574D01*
X7656D02*
X8042D01*
X6507Y4430D02*
X6716D01*
X6761D02*
X6949D01*
X6952D02*
X6965D01*
X7084D02*
X7572D01*
X7656D02*
X8042D01*
X6507Y4427D02*
X6965D01*
X7084D02*
X7107D01*
X7109D02*
X7572D01*
X7656D02*
X8042D01*
X6510Y4425D02*
X6520D01*
X6523D02*
X6962D01*
X7087D02*
X7097D01*
X7099D02*
X7569D01*
X7656D02*
X8042D01*
X6510Y4422D02*
X6962D01*
X7089D02*
X7567D01*
X7656D02*
X8042D01*
X6510Y4420D02*
X6960D01*
X7089D02*
X7567D01*
X7656D02*
X8042D01*
X6513Y4417D02*
X6960D01*
X7092D02*
X7564D01*
X7656D02*
X8042D01*
X6513Y4415D02*
X6957D01*
X7092D02*
X7564D01*
X7656D02*
X8042D01*
X6515Y4412D02*
X6957D01*
X7094D02*
X7562D01*
X7656D02*
X8042D01*
X6515Y4409D02*
X6955D01*
X7097D02*
X7559D01*
X7656D02*
X8042D01*
X6518Y4407D02*
X6535D01*
X6538D02*
X6955D01*
X7097D02*
X7559D01*
X7656D02*
X8042D01*
X6518Y4404D02*
X6937D01*
X6939D02*
X6952D01*
X7099D02*
X7557D01*
X7656D02*
X8042D01*
X6520Y4402D02*
X6525D01*
X6528D02*
X6952D01*
X7102D02*
X7104D01*
X7107D02*
X7544D01*
X7546D02*
X7554D01*
X7656D02*
X8042D01*
X6523Y4399D02*
X6949D01*
X7102D02*
X7551D01*
X7656D02*
X8042D01*
X6523Y4397D02*
X6949D01*
X7104D02*
X7551D01*
X7656D02*
X8042D01*
X6525Y4394D02*
X6538D01*
X6540D02*
X6947D01*
X7107D02*
X7549D01*
X7656D02*
X8042D01*
X6525Y4392D02*
X6944D01*
X7109D02*
X7546D01*
X7656D02*
X8042D01*
X6528Y4389D02*
X6942D01*
X7112D02*
X7544D01*
X7656D02*
X8042D01*
X6530Y4387D02*
X6556D01*
X6558D02*
X6916D01*
X6919D02*
X6932D01*
X6934D02*
X6942D01*
X7115D02*
X7117D01*
X7120D02*
X7526D01*
X7529D02*
X7541D01*
X7656D02*
X8042D01*
X6530Y4384D02*
X6939D01*
X7117D02*
X7539D01*
X7656D02*
X8042D01*
X6533Y4381D02*
X6937D01*
X7117D02*
X7536D01*
X7656D02*
X8042D01*
X6535Y4379D02*
X6548D01*
X6551D02*
X6909D01*
X6911D02*
X6934D01*
X7120D02*
X7130D01*
X7132D02*
X7534D01*
X7656D02*
X8042D01*
X6538Y4376D02*
X6921D01*
X6924D02*
X6932D01*
X7122D02*
X7531D01*
X7656D02*
X8042D01*
X6540Y4374D02*
X6929D01*
X7125D02*
X7529D01*
X7656D02*
X8042D01*
X6543Y4371D02*
X6929D01*
X7127D02*
X7526D01*
X7656D02*
X8042D01*
X6546Y4369D02*
X6927D01*
X7130D02*
X7523D01*
X7656D02*
X8042D01*
X6546Y4366D02*
X6571D01*
X6574D02*
X6896D01*
X6899D02*
X6924D01*
X7132D02*
X7140D01*
X7142D02*
X7150D01*
X7153D02*
X7165D01*
X7168D02*
X7506D01*
X7508D02*
X7521D01*
X7656D02*
X8042D01*
X6548Y4364D02*
X6909D01*
X6911D02*
X6921D01*
X7135D02*
X7518D01*
X7656D02*
X8042D01*
X6556Y4361D02*
X6579D01*
X6581D02*
X6919D01*
X7137D02*
X7516D01*
X7656D02*
X8042D01*
X6553Y4359D02*
X6914D01*
X7140D02*
X7513D01*
X7656D02*
X8042D01*
X6558Y4356D02*
X6911D01*
X7145D02*
X7508D01*
X7656D02*
X8042D01*
X6561Y4354D02*
X6568D01*
X6571D02*
X6891D01*
X6894D02*
X6909D01*
X7148D02*
X7155D01*
X7158D02*
X7506D01*
X7656D02*
X8042D01*
X6563Y4351D02*
X6906D01*
X7150D02*
X7503D01*
X7656D02*
X8042D01*
X6568Y4348D02*
X6901D01*
X7155D02*
X7498D01*
X7656D02*
X8042D01*
X6571Y4346D02*
X6899D01*
X7158D02*
X7496D01*
X7656D02*
X8042D01*
D81*
X4245Y5532D02*
Y5693D01*
X3925Y5532D02*
Y5693D01*
D82*
X2974Y3581D02*
Y3937D01*
X3630D01*
Y3581D02*
Y3937D01*
X2974Y3581D02*
X3630D01*
D83*
X10465Y3103D02*
Y3023D01*
X10505D01*
X10518Y3036D01*
Y3089D01*
X10505Y3103D01*
X10465D01*
X10598Y3023D02*
X10545D01*
X10598Y3076D01*
Y3089D01*
X10585Y3103D01*
X10558D01*
X10545Y3089D01*
X10236Y6633D02*
Y6553D01*
X10276D01*
X10290Y6567D01*
Y6620D01*
X10276Y6633D01*
X10236D01*
X10316D02*
X10369D01*
Y6620D01*
X10316Y6567D01*
Y6553D01*
X3711Y2607D02*
X3698Y2620D01*
X3671D01*
X3658Y2607D01*
Y2553D01*
X3671Y2540D01*
X3698D01*
X3711Y2553D01*
X3738Y2540D02*
X3764D01*
X3751D01*
Y2620D01*
X3738Y2607D01*
X4484Y2691D02*
Y2771D01*
X4524D01*
X4538Y2758D01*
Y2731D01*
X4524Y2718D01*
X4484D01*
X4618Y2758D02*
X4604Y2771D01*
X4578D01*
X4564Y2758D01*
Y2704D01*
X4578Y2691D01*
X4604D01*
X4618Y2704D01*
X4644Y2691D02*
X4671D01*
X4658D01*
Y2771D01*
X4644Y2758D01*
X4637Y3428D02*
Y3508D01*
X4677D01*
X4690Y3494D01*
Y3468D01*
X4677Y3454D01*
X4637D01*
X4770Y3494D02*
X4757Y3508D01*
X4730D01*
X4717Y3494D01*
Y3441D01*
X4730Y3428D01*
X4757D01*
X4770Y3441D01*
X4850Y3428D02*
X4797D01*
X4850Y3481D01*
Y3494D01*
X4837Y3508D01*
X4810D01*
X4797Y3494D01*
X11481Y2007D02*
Y2087D01*
X11521D01*
X11534Y2073D01*
Y2047D01*
X11521Y2033D01*
X11481D01*
X11507D02*
X11534Y2007D01*
X11614Y2087D02*
X11561D01*
Y2047D01*
X11587Y2060D01*
X11601D01*
X11614Y2047D01*
Y2020D01*
X11601Y2007D01*
X11574D01*
X11561Y2020D01*
X11641Y2007D02*
X11667D01*
X11654D01*
Y2087D01*
X11641Y2073D01*
X12014Y1528D02*
Y1461D01*
X12028Y1448D01*
X12054D01*
X12068Y1461D01*
Y1528D01*
X12147D02*
X12094D01*
Y1488D01*
X12121Y1501D01*
X12134D01*
X12147Y1488D01*
Y1461D01*
X12134Y1448D01*
X12108D01*
X12094Y1461D01*
X11229Y1362D02*
X11216Y1375D01*
X11189D01*
X11176Y1362D01*
Y1309D01*
X11189Y1295D01*
X11216D01*
X11229Y1309D01*
X11256Y1362D02*
X11269Y1375D01*
X11296D01*
X11309Y1362D01*
Y1349D01*
X11296Y1335D01*
X11283D01*
X11296D01*
X11309Y1322D01*
Y1309D01*
X11296Y1295D01*
X11269D01*
X11256Y1309D01*
X11389Y1375D02*
X11336D01*
Y1335D01*
X11363Y1349D01*
X11376D01*
X11389Y1335D01*
Y1309D01*
X11376Y1295D01*
X11349D01*
X11336Y1309D01*
X11735Y2007D02*
Y2087D01*
X11775D01*
X11788Y2073D01*
Y2047D01*
X11775Y2033D01*
X11735D01*
X11761D02*
X11788Y2007D01*
X11868Y2087D02*
X11815D01*
Y2047D01*
X11841Y2060D01*
X11855D01*
X11868Y2047D01*
Y2020D01*
X11855Y2007D01*
X11828D01*
X11815Y2020D01*
X11948Y2007D02*
X11895D01*
X11948Y2060D01*
Y2073D01*
X11935Y2087D01*
X11908D01*
X11895Y2073D01*
X11739Y4699D02*
X11659D01*
Y4646D01*
Y4566D02*
Y4619D01*
X11712Y4566D01*
X11725D01*
X11739Y4579D01*
Y4606D01*
X11725Y4619D01*
X12294Y6100D02*
Y6020D01*
X12347D01*
X12374D02*
X12400D01*
X12387D01*
Y6100D01*
X12374Y6086D01*
X10696Y5070D02*
X10683Y5084D01*
X10656D01*
X10643Y5070D01*
Y5017D01*
X10656Y5004D01*
X10683D01*
X10696Y5017D01*
X10776Y5004D02*
X10723D01*
X10776Y5057D01*
Y5070D01*
X10763Y5084D01*
X10736D01*
X10723Y5070D01*
X10843Y5004D02*
Y5084D01*
X10803Y5044D01*
X10856D01*
X10772Y1845D02*
X10759Y1858D01*
X10732D01*
X10719Y1845D01*
Y1791D01*
X10732Y1778D01*
X10759D01*
X10772Y1791D01*
X10852Y1778D02*
X10799D01*
X10852Y1831D01*
Y1845D01*
X10839Y1858D01*
X10812D01*
X10799Y1845D01*
X10879D02*
X10892Y1858D01*
X10919D01*
X10932Y1845D01*
Y1791D01*
X10919Y1778D01*
X10892D01*
X10879Y1791D01*
Y1845D01*
X2261Y3433D02*
Y3353D01*
X2301D01*
X2314Y3366D01*
Y3419D01*
X2301Y3433D01*
X2261D01*
X2341D02*
X2394D01*
X2367D01*
Y3353D01*
X2421Y3433D02*
Y3379D01*
X2447Y3353D01*
X2474Y3379D01*
Y3433D01*
X2554Y3419D02*
X2541Y3433D01*
X2514D01*
X2501Y3419D01*
Y3406D01*
X2514Y3393D01*
X2541D01*
X2554Y3379D01*
Y3366D01*
X2541Y3353D01*
X2514D01*
X2501Y3366D01*
X2580Y3419D02*
X2594Y3433D01*
X2620D01*
X2634Y3419D01*
Y3406D01*
X2620Y3393D01*
X2607D01*
X2620D01*
X2634Y3379D01*
Y3366D01*
X2620Y3353D01*
X2594D01*
X2580Y3366D01*
X3533Y2722D02*
X3480D01*
Y2682D01*
X3506D01*
X3480D01*
Y2642D01*
X3560Y2708D02*
X3573Y2722D01*
X3600D01*
X3613Y2708D01*
Y2695D01*
X3600Y2682D01*
X3586D01*
X3600D01*
X3613Y2668D01*
Y2655D01*
X3600Y2642D01*
X3573D01*
X3560Y2655D01*
X5461Y2747D02*
Y2667D01*
X5501D01*
X5514Y2680D01*
Y2734D01*
X5501Y2747D01*
X5461D01*
X5541D02*
X5594D01*
X5568D01*
Y2667D01*
X5621Y2747D02*
Y2694D01*
X5648Y2667D01*
X5674Y2694D01*
Y2747D01*
X5754Y2734D02*
X5741Y2747D01*
X5714D01*
X5701Y2734D01*
Y2720D01*
X5714Y2707D01*
X5741D01*
X5754Y2694D01*
Y2680D01*
X5741Y2667D01*
X5714D01*
X5701Y2680D01*
X5834Y2667D02*
X5781D01*
X5834Y2720D01*
Y2734D01*
X5821Y2747D01*
X5794D01*
X5781Y2734D01*
X6096Y4064D02*
Y4144D01*
X6136D01*
X6149Y4131D01*
Y4104D01*
X6136Y4091D01*
X6096D01*
X6123D02*
X6149Y4064D01*
X6176Y4051D02*
X6229D01*
X6256Y4064D02*
Y4144D01*
X6309Y4064D01*
Y4144D01*
X6336D02*
X6389D01*
X6363D01*
Y4064D01*
X6469Y4131D02*
X6456Y4144D01*
X6429D01*
X6416Y4131D01*
Y4077D01*
X6429Y4064D01*
X6456D01*
X6469Y4077D01*
X6756Y5004D02*
Y5084D01*
X6810Y5004D01*
Y5084D01*
X6836D02*
X6890D01*
X6863D01*
Y5004D01*
X6970Y5070D02*
X6956Y5084D01*
X6930D01*
X6916Y5070D01*
Y5017D01*
X6930Y5004D01*
X6956D01*
X6970Y5017D01*
X5283Y4246D02*
Y4179D01*
X5297Y4166D01*
X5323D01*
X5337Y4179D01*
Y4246D01*
X5363Y4166D02*
X5390D01*
X5377D01*
Y4246D01*
X5363Y4232D01*
X5308Y4715D02*
X5294Y4728D01*
X5268D01*
X5255Y4715D01*
Y4662D01*
X5268Y4648D01*
X5294D01*
X5308Y4662D01*
X5334Y4728D02*
X5388D01*
Y4715D01*
X5334Y4662D01*
Y4648D01*
X4981Y6391D02*
X4968Y6405D01*
X4941D01*
X4928Y6391D01*
Y6338D01*
X4941Y6325D01*
X4968D01*
X4981Y6338D01*
X5008Y6391D02*
X5021Y6405D01*
X5048D01*
X5061Y6391D01*
Y6378D01*
X5048Y6365D01*
X5061Y6351D01*
Y6338D01*
X5048Y6325D01*
X5021D01*
X5008Y6338D01*
Y6351D01*
X5021Y6365D01*
X5008Y6378D01*
Y6391D01*
X5021Y6365D02*
X5048D01*
X9398Y1452D02*
X9451D01*
X9425D01*
Y1372D01*
X9478D02*
X9505D01*
X9491D01*
Y1452D01*
X9478Y1438D01*
X7544Y1981D02*
Y2061D01*
X7584D01*
X7597Y2048D01*
Y2021D01*
X7584Y2008D01*
X7544D01*
X7570D02*
X7597Y1981D01*
X7637Y2048D02*
Y2035D01*
X7624D01*
X7650D01*
X7637D01*
Y1995D01*
X7650Y1981D01*
X7744Y2035D02*
X7704D01*
X7690Y2021D01*
Y1995D01*
X7704Y1981D01*
X7744D01*
X7770D02*
X7797D01*
X7784D01*
Y2061D01*
X7770Y2048D01*
X7544Y1829D02*
Y1909D01*
X7584D01*
X7597Y1895D01*
Y1869D01*
X7584Y1855D01*
X7544D01*
X7570D02*
X7597Y1829D01*
X7637D02*
Y1895D01*
Y1869D01*
X7624D01*
X7650D01*
X7637D01*
Y1895D01*
X7650Y1909D01*
X7690D02*
Y1829D01*
X7730D01*
X7744Y1842D01*
Y1855D01*
Y1869D01*
X7730Y1882D01*
X7690D01*
X7770Y1829D02*
X7797D01*
X7784D01*
Y1909D01*
X7770Y1895D01*
X4978Y4648D02*
Y4728D01*
X5018D01*
X5032Y4715D01*
Y4688D01*
X5018Y4675D01*
X4978D01*
X5005D02*
X5032Y4648D01*
X5098D02*
Y4728D01*
X5058Y4688D01*
X5112D01*
X6553Y2616D02*
Y2696D01*
X6593D01*
X6607Y2683D01*
Y2656D01*
X6593Y2643D01*
X6553D01*
X6580D02*
X6607Y2616D01*
X6633D02*
X6660D01*
X6647D01*
Y2696D01*
X6633Y2683D01*
X6556Y3112D02*
Y3165D01*
X6542Y3179D01*
X6516D01*
X6502Y3165D01*
Y3112D01*
X6516Y3099D01*
X6542D01*
X6529Y3125D02*
X6556Y3099D01*
X6542D02*
X6556Y3112D01*
X6582Y3099D02*
X6609D01*
X6596D01*
Y3179D01*
X6582Y3165D01*
X7366Y3509D02*
Y3429D01*
X7406D01*
X7419Y3442D01*
Y3496D01*
X7406Y3509D01*
X7366D01*
X7486Y3429D02*
Y3509D01*
X7446Y3469D01*
X7499D01*
X7394Y4080D02*
X7381Y4093D01*
X7354D01*
X7341Y4080D01*
Y4027D01*
X7354Y4013D01*
X7381D01*
X7394Y4027D01*
X7474Y4093D02*
X7447Y4080D01*
X7421Y4053D01*
Y4027D01*
X7434Y4013D01*
X7461D01*
X7474Y4027D01*
Y4040D01*
X7461Y4053D01*
X7421D01*
X6353Y2505D02*
X6339Y2518D01*
X6313D01*
X6299Y2505D01*
Y2452D01*
X6313Y2438D01*
X6339D01*
X6353Y2452D01*
X6432Y2518D02*
X6379D01*
Y2478D01*
X6406Y2492D01*
X6419D01*
X6432Y2478D01*
Y2452D01*
X6419Y2438D01*
X6393D01*
X6379Y2452D01*
X6480Y2200D02*
X6466Y2214D01*
X6440D01*
X6426Y2200D01*
Y2147D01*
X6440Y2134D01*
X6466D01*
X6480Y2147D01*
X6559Y2134D02*
X6506D01*
X6559Y2187D01*
Y2200D01*
X6546Y2214D01*
X6520D01*
X6506Y2200D01*
X2750Y4050D02*
Y4104D01*
X2776Y4130D01*
X2803Y4104D01*
Y4050D01*
Y4090D01*
X2750D01*
X2830Y4130D02*
Y4064D01*
X2843Y4050D01*
X2870D01*
X2883Y4064D01*
Y4130D01*
X2910Y4050D02*
X2936D01*
X2923D01*
Y4130D01*
X2910Y4117D01*
X6708Y5223D02*
X6695Y5236D01*
X6668D01*
X6655Y5223D01*
Y5170D01*
X6668Y5156D01*
X6695D01*
X6708Y5170D01*
X6735Y5156D02*
X6761D01*
X6748D01*
Y5236D01*
X6735Y5223D01*
X6801Y5156D02*
X6828D01*
X6815D01*
Y5236D01*
X6801Y5223D01*
X6378Y5909D02*
X6365Y5922D01*
X6338D01*
X6325Y5909D01*
Y5855D01*
X6338Y5842D01*
X6365D01*
X6378Y5855D01*
X6405Y5842D02*
X6431D01*
X6418D01*
Y5922D01*
X6405Y5909D01*
X6525Y5842D02*
X6471D01*
X6525Y5895D01*
Y5909D01*
X6511Y5922D01*
X6485D01*
X6471Y5909D01*
X7369Y7229D02*
X7355Y7243D01*
X7329D01*
X7315Y7229D01*
Y7176D01*
X7329Y7163D01*
X7355D01*
X7369Y7176D01*
X7395Y7163D02*
X7422D01*
X7409D01*
Y7243D01*
X7395Y7229D01*
X7462D02*
X7475Y7243D01*
X7502D01*
X7515Y7229D01*
Y7216D01*
X7502Y7203D01*
X7488D01*
X7502D01*
X7515Y7189D01*
Y7176D01*
X7502Y7163D01*
X7475D01*
X7462Y7176D01*
X7391Y6684D02*
Y6604D01*
X7431D01*
X7445Y6617D01*
Y6671D01*
X7431Y6684D01*
X7391D01*
X7471Y6671D02*
X7485Y6684D01*
X7511D01*
X7525Y6671D01*
Y6657D01*
X7511Y6644D01*
X7525Y6631D01*
Y6617D01*
X7511Y6604D01*
X7485D01*
X7471Y6617D01*
Y6631D01*
X7485Y6644D01*
X7471Y6657D01*
Y6671D01*
X7485Y6644D02*
X7511D01*
X2765Y7299D02*
X2791D01*
X2778D01*
Y7219D01*
X2765D01*
X2791D01*
X2885Y7285D02*
X2871Y7299D01*
X2845D01*
X2831Y7285D01*
Y7232D01*
X2845Y7219D01*
X2871D01*
X2885Y7232D01*
X2965Y7285D02*
X2951Y7299D01*
X2925D01*
X2911Y7285D01*
Y7272D01*
X2925Y7259D01*
X2951D01*
X2965Y7245D01*
Y7232D01*
X2951Y7219D01*
X2925D01*
X2911Y7232D01*
X2991Y7219D02*
Y7299D01*
X3031D01*
X3045Y7285D01*
Y7259D01*
X3031Y7245D01*
X2991D01*
X3071Y7219D02*
X3098D01*
X3084D01*
Y7299D01*
X3071Y7285D01*
X7163Y5338D02*
Y5258D01*
X7216D01*
X7243Y5338D02*
X7296D01*
X7269D01*
Y5258D01*
X7376D02*
X7323D01*
X7376Y5311D01*
Y5324D01*
X7363Y5338D01*
X7336D01*
X7323Y5324D01*
X4581Y4521D02*
X4608D01*
X4621Y4535D01*
Y4561D01*
X4608Y4575D01*
X4581D01*
X4568Y4561D01*
Y4535D01*
X4581Y4521D01*
X4648Y4575D02*
Y4535D01*
X4661Y4521D01*
X4701D01*
Y4575D01*
X4741Y4588D02*
Y4575D01*
X4728D01*
X4755D01*
X4741D01*
Y4535D01*
X4755Y4521D01*
X4795D02*
X4821D01*
X4808D01*
Y4601D01*
X4795Y4588D01*
X6499Y6364D02*
Y6418D01*
X6485Y6431D01*
X6459D01*
X6445Y6418D01*
Y6364D01*
X6459Y6351D01*
X6485D01*
X6472Y6378D02*
X6499Y6351D01*
X6485D02*
X6499Y6364D01*
X6579Y6351D02*
X6525D01*
X6579Y6404D01*
Y6418D01*
X6565Y6431D01*
X6539D01*
X6525Y6418D01*
X6654Y6007D02*
Y6087D01*
X6694D01*
X6707Y6074D01*
Y6047D01*
X6694Y6034D01*
X6654D01*
X6680D02*
X6707Y6007D01*
X6787Y6087D02*
X6760Y6074D01*
X6734Y6047D01*
Y6021D01*
X6747Y6007D01*
X6774D01*
X6787Y6021D01*
Y6034D01*
X6774Y6047D01*
X6734D01*
X7087Y5994D02*
Y6074D01*
X7127D01*
X7140Y6061D01*
Y6034D01*
X7127Y6021D01*
X7087D01*
X7113D02*
X7140Y5994D01*
X7167Y6074D02*
X7220D01*
Y6061D01*
X7167Y6008D01*
Y5994D01*
X8052Y7188D02*
Y7268D01*
X8092D01*
X8105Y7255D01*
Y7228D01*
X8092Y7215D01*
X8052D01*
X8078D02*
X8105Y7188D01*
X8132Y7255D02*
X8145Y7268D01*
X8172D01*
X8185Y7255D01*
Y7242D01*
X8172Y7228D01*
X8185Y7215D01*
Y7202D01*
X8172Y7188D01*
X8145D01*
X8132Y7202D01*
Y7215D01*
X8145Y7228D01*
X8132Y7242D01*
Y7255D01*
X8145Y7228D02*
X8172D01*
X4902Y5969D02*
Y6049D01*
X4942D01*
X4956Y6036D01*
Y6009D01*
X4942Y5996D01*
X4902D01*
X4929D02*
X4956Y5969D01*
X5035Y6049D02*
X4982D01*
Y6009D01*
X5009Y6022D01*
X5022D01*
X5035Y6009D01*
Y5982D01*
X5022Y5969D01*
X4996D01*
X4982Y5982D01*
X7518Y5156D02*
Y5236D01*
X7558D01*
X7572Y5223D01*
Y5196D01*
X7558Y5183D01*
X7518D01*
X7545D02*
X7572Y5156D01*
X7612D02*
Y5223D01*
Y5196D01*
X7598D01*
X7625D01*
X7612D01*
Y5223D01*
X7625Y5236D01*
X7665D02*
Y5156D01*
X7705D01*
X7718Y5170D01*
Y5183D01*
Y5196D01*
X7705Y5210D01*
X7665D01*
X7798Y5156D02*
X7745D01*
X7798Y5210D01*
Y5223D01*
X7785Y5236D01*
X7758D01*
X7745Y5223D01*
X7493Y6121D02*
Y6201D01*
X7533D01*
X7546Y6188D01*
Y6161D01*
X7533Y6148D01*
X7493D01*
X7520D02*
X7546Y6121D01*
X7573Y6175D02*
Y6121D01*
Y6148D01*
X7586Y6161D01*
X7600Y6175D01*
X7613D01*
X7693Y6121D02*
X7666D01*
X7653Y6135D01*
Y6161D01*
X7666Y6175D01*
X7693D01*
X7706Y6161D01*
Y6148D01*
X7653D01*
X7746Y6121D02*
Y6188D01*
Y6161D01*
X7733D01*
X7760D01*
X7746D01*
Y6188D01*
X7760Y6201D01*
X7853Y6121D02*
X7800D01*
X7853Y6175D01*
Y6188D01*
X7840Y6201D01*
X7813D01*
X7800Y6188D01*
X7518Y5283D02*
Y5363D01*
X7558D01*
X7572Y5350D01*
Y5323D01*
X7558Y5310D01*
X7518D01*
X7545D02*
X7572Y5283D01*
X7612Y5350D02*
Y5337D01*
X7598D01*
X7625D01*
X7612D01*
Y5297D01*
X7625Y5283D01*
X7718Y5337D02*
X7678D01*
X7665Y5323D01*
Y5297D01*
X7678Y5283D01*
X7718D01*
X7798D02*
X7745D01*
X7798Y5337D01*
Y5350D01*
X7785Y5363D01*
X7758D01*
X7745Y5350D01*
X8661Y6328D02*
X8715D01*
X8688D01*
Y6248D01*
X8795D02*
X8741D01*
X8795Y6302D01*
Y6315D01*
X8781Y6328D01*
X8755D01*
X8741Y6315D01*
X4314Y5668D02*
Y5655D01*
X4341Y5628D01*
X4367Y5655D01*
Y5668D01*
X4341Y5628D02*
Y5588D01*
X4394D02*
X4421D01*
X4407D01*
Y5668D01*
X4394Y5655D01*
X6657Y7268D02*
X6604D01*
Y7228D01*
X6631D01*
X6604D01*
Y7188D01*
X6737D02*
X6684D01*
X6737Y7242D01*
Y7255D01*
X6724Y7268D01*
X6697D01*
X6684Y7255D01*
X5692Y3890D02*
X5639D01*
Y3850D01*
X5665D01*
X5639D01*
Y3810D01*
X5719D02*
X5745D01*
X5732D01*
Y3890D01*
X5719Y3877D01*
X5613Y5414D02*
Y5334D01*
X5653D01*
X5667Y5347D01*
Y5401D01*
X5653Y5414D01*
X5613D01*
X5693D02*
X5747D01*
X5720D01*
Y5334D01*
X5773Y5414D02*
Y5361D01*
X5800Y5334D01*
X5827Y5361D01*
Y5414D01*
X5907Y5401D02*
X5893Y5414D01*
X5867D01*
X5853Y5401D01*
Y5387D01*
X5867Y5374D01*
X5893D01*
X5907Y5361D01*
Y5347D01*
X5893Y5334D01*
X5867D01*
X5853Y5347D01*
X5933Y5334D02*
X5960D01*
X5947D01*
Y5414D01*
X5933Y5401D01*
X2489Y6325D02*
X2433Y6381D01*
X2461Y6409D01*
X2480D01*
X2499Y6391D01*
X2499Y6372D01*
X2470Y6343D01*
X2489Y6362D02*
X2527D01*
X2555Y6372D02*
X2593Y6409D01*
X2621Y6419D02*
X2565Y6475D01*
X2593Y6504D01*
X2612D01*
X2631Y6485D01*
X2631Y6466D01*
X2602Y6438D01*
X2621Y6532D02*
X2649Y6504D01*
X2668D01*
X2697Y6532D01*
X2659Y6570D01*
X2715Y6551D02*
X2734Y6570D01*
X2725Y6560D01*
X2668Y6617D01*
X2668Y6598D01*
X8839Y6887D02*
Y6807D01*
X8879D01*
X8893Y6821D01*
Y6874D01*
X8879Y6887D01*
X8839D01*
X8919Y6807D02*
X8946D01*
X8933D01*
Y6887D01*
X8919Y6874D01*
X8986D02*
X8999Y6887D01*
X9026D01*
X9039Y6874D01*
Y6821D01*
X9026Y6807D01*
X8999D01*
X8986Y6821D01*
Y6874D01*
X8814Y3712D02*
Y3632D01*
X8854D01*
X8867Y3646D01*
Y3699D01*
X8854Y3712D01*
X8814D01*
X8947D02*
X8894D01*
Y3672D01*
X8920Y3686D01*
X8934D01*
X8947Y3672D01*
Y3646D01*
X8934Y3632D01*
X8907D01*
X8894Y3646D01*
X9909Y5070D02*
X9895Y5084D01*
X9869D01*
X9855Y5070D01*
Y5017D01*
X9869Y5004D01*
X9895D01*
X9909Y5017D01*
X9935D02*
X9949Y5004D01*
X9975D01*
X9988Y5017D01*
Y5070D01*
X9975Y5084D01*
X9949D01*
X9935Y5070D01*
Y5057D01*
X9949Y5044D01*
X9988D01*
X10188Y5070D02*
X10175Y5084D01*
X10148D01*
X10135Y5070D01*
Y5017D01*
X10148Y5004D01*
X10175D01*
X10188Y5017D01*
X10215Y5004D02*
X10241D01*
X10228D01*
Y5084D01*
X10215Y5070D01*
X10281D02*
X10295Y5084D01*
X10321D01*
X10335Y5070D01*
Y5017D01*
X10321Y5004D01*
X10295D01*
X10281Y5017D01*
Y5070D01*
X10439Y5084D02*
Y5004D01*
X10479D01*
X10493Y5017D01*
Y5070D01*
X10479Y5084D01*
X10439D01*
X10573D02*
X10546Y5070D01*
X10519Y5044D01*
Y5017D01*
X10533Y5004D01*
X10559D01*
X10573Y5017D01*
Y5030D01*
X10559Y5044D01*
X10519D01*
X5029Y3988D02*
Y4068D01*
X5069D01*
X5083Y4054D01*
Y4028D01*
X5069Y4014D01*
X5029D01*
X5056D02*
X5083Y3988D01*
X5109D02*
X5149D01*
X5162Y4001D01*
X5149Y4014D01*
X5123D01*
X5109Y4028D01*
X5123Y4041D01*
X5162D01*
X5229Y3988D02*
X5202D01*
X5189Y4001D01*
Y4028D01*
X5202Y4041D01*
X5229D01*
X5242Y4028D01*
Y4014D01*
X5189D01*
X5269Y3988D02*
Y4041D01*
X5309D01*
X5322Y4028D01*
Y3988D01*
X5349D02*
X5389D01*
X5402Y4001D01*
X5389Y4014D01*
X5362D01*
X5349Y4028D01*
X5362Y4041D01*
X5402D01*
X5469Y3988D02*
X5442D01*
X5429Y4001D01*
Y4028D01*
X5442Y4041D01*
X5469D01*
X5482Y4028D01*
Y4014D01*
X5429D01*
X5509Y3988D02*
X5536D01*
X5522D01*
Y4068D01*
X5509Y4054D01*
X5410Y5715D02*
Y5795D01*
X5450D01*
X5464Y5782D01*
Y5755D01*
X5450Y5742D01*
X5410D01*
X5437D02*
X5464Y5715D01*
X5490D02*
X5530D01*
X5543Y5728D01*
X5530Y5742D01*
X5504D01*
X5490Y5755D01*
X5504Y5768D01*
X5543D01*
X5610Y5715D02*
X5583D01*
X5570Y5728D01*
Y5755D01*
X5583Y5768D01*
X5610D01*
X5623Y5755D01*
Y5742D01*
X5570D01*
X5650Y5715D02*
Y5768D01*
X5690D01*
X5703Y5755D01*
Y5715D01*
X5730D02*
X5770D01*
X5783Y5728D01*
X5770Y5742D01*
X5743D01*
X5730Y5755D01*
X5743Y5768D01*
X5783D01*
X5850Y5715D02*
X5823D01*
X5810Y5728D01*
Y5755D01*
X5823Y5768D01*
X5850D01*
X5863Y5755D01*
Y5742D01*
X5810D01*
X5943Y5715D02*
X5890D01*
X5943Y5768D01*
Y5782D01*
X5930Y5795D01*
X5903D01*
X5890Y5782D01*
X12652Y6938D02*
X12625D01*
X12638D01*
Y6871D01*
X12625Y6858D01*
X12612D01*
X12598Y6871D01*
X12678Y6858D02*
X12705D01*
X12692D01*
Y6938D01*
X12678Y6925D01*
X2642Y6706D02*
Y6786D01*
X2682D01*
X2695Y6772D01*
Y6746D01*
X2682Y6732D01*
X2642D01*
X2668D02*
X2695Y6706D01*
X2722Y6786D02*
Y6706D01*
X2775D01*
X2855Y6786D02*
X2802D01*
Y6706D01*
X2855D01*
X2802Y6746D02*
X2828D01*
X2882Y6786D02*
Y6706D01*
X2922D01*
X2935Y6719D01*
Y6772D01*
X2922Y6786D01*
X2882D01*
X2961Y6706D02*
X2988D01*
X2975D01*
Y6786D01*
X2961Y6772D01*
X3021Y6599D02*
Y6652D01*
X3047Y6679D01*
X3074Y6652D01*
Y6599D01*
Y6639D01*
X3021D01*
X3154Y6666D02*
X3141Y6679D01*
X3114D01*
X3101Y6666D01*
Y6612D01*
X3114Y6599D01*
X3141D01*
X3154Y6612D01*
X3221Y6599D02*
Y6679D01*
X3181Y6639D01*
X3234D01*
X3806Y5359D02*
Y5413D01*
X3833Y5439D01*
X3859Y5413D01*
Y5359D01*
Y5399D01*
X3806D01*
X3939Y5426D02*
X3926Y5439D01*
X3899D01*
X3886Y5426D01*
Y5373D01*
X3899Y5359D01*
X3926D01*
X3939Y5373D01*
X3966Y5359D02*
X3993D01*
X3979D01*
Y5439D01*
X3966Y5426D01*
X4033D02*
X4046Y5439D01*
X4073D01*
X4086Y5426D01*
Y5373D01*
X4073Y5359D01*
X4046D01*
X4033Y5373D01*
Y5426D01*
X4238Y5791D02*
Y5845D01*
X4264Y5871D01*
X4291Y5845D01*
Y5791D01*
Y5831D01*
X4238D01*
X4318Y5791D02*
Y5871D01*
X4358D01*
X4371Y5858D01*
Y5831D01*
X4358Y5818D01*
X4318D01*
X4344D02*
X4371Y5791D01*
X4451D02*
X4398D01*
X4451Y5845D01*
Y5858D01*
X4438Y5871D01*
X4411D01*
X4398Y5858D01*
X2851Y7110D02*
Y7030D01*
X2904D01*
X2984Y7110D02*
X2931D01*
Y7030D01*
X2984D01*
X2931Y7070D02*
X2957D01*
X3011Y7110D02*
Y7030D01*
X3050D01*
X3064Y7043D01*
Y7097D01*
X3050Y7110D01*
X3011D01*
X3090Y7030D02*
X3117D01*
X3104D01*
Y7110D01*
X3090Y7097D01*
X4623Y7141D02*
Y7061D01*
X4676D01*
X4756Y7141D02*
X4703D01*
Y7061D01*
X4756D01*
X4703Y7101D02*
X4729D01*
X4783Y7141D02*
Y7061D01*
X4823D01*
X4836Y7075D01*
Y7128D01*
X4823Y7141D01*
X4783D01*
X4916Y7061D02*
X4863D01*
X4916Y7115D01*
Y7128D01*
X4903Y7141D01*
X4876D01*
X4863Y7128D01*
X4454Y4851D02*
X4481D01*
X4494Y4865D01*
Y4891D01*
X4481Y4905D01*
X4454D01*
X4441Y4891D01*
Y4865D01*
X4454Y4851D01*
X4521Y4905D02*
Y4865D01*
X4534Y4851D01*
X4574D01*
Y4905D01*
X4614Y4918D02*
Y4905D01*
X4601D01*
X4628D01*
X4614D01*
Y4865D01*
X4628Y4851D01*
X4721D02*
X4668D01*
X4721Y4905D01*
Y4918D01*
X4708Y4931D01*
X4681D01*
X4668Y4918D01*
X2358Y5893D02*
Y5973D01*
X2398D01*
X2412Y5959D01*
Y5933D01*
X2398Y5919D01*
X2358D01*
X2385D02*
X2412Y5893D01*
X2438Y5879D02*
X2491D01*
X2518Y5866D02*
Y5946D01*
X2558D01*
X2571Y5933D01*
Y5906D01*
X2558Y5893D01*
X2518D01*
X2598Y5946D02*
Y5906D01*
X2611Y5893D01*
X2651D01*
Y5946D01*
X2731Y5893D02*
X2678D01*
X2731Y5946D01*
Y5959D01*
X2718Y5973D01*
X2691D01*
X2678Y5959D01*
X2388Y5156D02*
X2331Y5213D01*
X2359Y5241D01*
X2378D01*
X2397Y5222D01*
X2397Y5203D01*
X2369Y5175D01*
X2388Y5194D02*
X2425D01*
X2454Y5203D02*
X2491Y5241D01*
X2520Y5250D02*
X2463Y5307D01*
X2491Y5335D01*
X2510D01*
X2529Y5316D01*
X2529Y5298D01*
X2501Y5269D01*
X2520Y5364D02*
X2548Y5335D01*
X2567D01*
X2595Y5364D01*
X2557Y5401D01*
X2567Y5430D02*
X2567Y5448D01*
X2586Y5467D01*
X2604D01*
X2614Y5458D01*
Y5439D01*
X2604Y5430D01*
X2614Y5439D01*
X2633D01*
X2642Y5430D01*
X2642Y5411D01*
X2623Y5392D01*
X2604D01*
X2642Y5207D02*
X2585Y5264D01*
X2613Y5292D01*
X2632D01*
X2651Y5273D01*
X2651Y5254D01*
X2623Y5226D01*
X2642Y5245D02*
X2679D01*
X2708Y5254D02*
X2745Y5292D01*
X2774Y5301D02*
X2717Y5358D01*
X2745Y5386D01*
X2764D01*
X2783Y5367D01*
X2783Y5348D01*
X2755Y5320D01*
X2774Y5414D02*
X2802Y5386D01*
X2821D01*
X2849Y5414D01*
X2811Y5452D01*
X2896Y5461D02*
X2840Y5518D01*
X2840Y5461D01*
X2877Y5499D01*
X3962Y7163D02*
Y7243D01*
X4002D01*
X4016Y7229D01*
Y7203D01*
X4002Y7189D01*
X3962D01*
X3989D02*
X4016Y7163D01*
X4042Y7243D02*
Y7163D01*
X4096D01*
X4176Y7243D02*
X4122D01*
Y7163D01*
X4176D01*
X4122Y7203D02*
X4149D01*
X4202Y7243D02*
Y7163D01*
X4242D01*
X4256Y7176D01*
Y7229D01*
X4242Y7243D01*
X4202D01*
X4336Y7163D02*
X4282D01*
X4336Y7216D01*
Y7229D01*
X4322Y7243D01*
X4296D01*
X4282Y7229D01*
X3888Y6405D02*
Y6338D01*
X3901Y6325D01*
X3928D01*
X3941Y6338D01*
Y6405D01*
X3968Y6391D02*
X3981Y6405D01*
X4008D01*
X4021Y6391D01*
Y6378D01*
X4008Y6365D01*
X3995D01*
X4008D01*
X4021Y6351D01*
Y6338D01*
X4008Y6325D01*
X3981D01*
X3968Y6338D01*
X4597Y6655D02*
Y6735D01*
X4637D01*
X4651Y6721D01*
Y6695D01*
X4637Y6681D01*
X4597D01*
X4624D02*
X4651Y6655D01*
X4731Y6735D02*
X4677D01*
Y6655D01*
X4731D01*
X4677Y6695D02*
X4704D01*
X4811Y6721D02*
X4797Y6735D01*
X4771D01*
X4757Y6721D01*
Y6708D01*
X4771Y6695D01*
X4797D01*
X4811Y6681D01*
Y6668D01*
X4797Y6655D01*
X4771D01*
X4757Y6668D01*
X4891Y6735D02*
X4837D01*
Y6655D01*
X4891D01*
X4837Y6695D02*
X4864D01*
X4917Y6735D02*
X4971D01*
X4944D01*
Y6655D01*
X4997D02*
X5024D01*
X5011D01*
Y6735D01*
X4997Y6721D01*
X3048Y2591D02*
Y2671D01*
X3088D01*
X3101Y2657D01*
Y2631D01*
X3088Y2617D01*
X3048D01*
X3128Y2591D02*
X3155D01*
X3141D01*
Y2671D01*
X3128Y2657D01*
X6680Y3458D02*
Y3378D01*
X6720D01*
X6734Y3392D01*
Y3445D01*
X6720Y3458D01*
X6680D01*
X6760Y3445D02*
X6774Y3458D01*
X6800D01*
X6813Y3445D01*
Y3432D01*
X6800Y3418D01*
X6787D01*
X6800D01*
X6813Y3405D01*
Y3392D01*
X6800Y3378D01*
X6774D01*
X6760Y3392D01*
X6655Y6735D02*
Y6655D01*
X6695D01*
X6708Y6668D01*
Y6721D01*
X6695Y6735D01*
X6655D01*
X6735Y6668D02*
X6748Y6655D01*
X6775D01*
X6788Y6668D01*
Y6721D01*
X6775Y6735D01*
X6748D01*
X6735Y6721D01*
Y6708D01*
X6748Y6695D01*
X6788D01*
X8791Y4308D02*
X8778Y4322D01*
X8751D01*
X8738Y4308D01*
Y4255D01*
X8751Y4242D01*
X8778D01*
X8791Y4255D01*
X8818Y4308D02*
X8831Y4322D01*
X8858D01*
X8871Y4308D01*
Y4295D01*
X8858Y4282D01*
X8844D01*
X8858D01*
X8871Y4268D01*
Y4255D01*
X8858Y4242D01*
X8831D01*
X8818Y4255D01*
X8898Y4308D02*
X8911Y4322D01*
X8938D01*
X8951Y4308D01*
Y4255D01*
X8938Y4242D01*
X8911D01*
X8898Y4255D01*
Y4308D01*
X9045Y3496D02*
X9032Y3509D01*
X9005D01*
X8992Y3496D01*
Y3442D01*
X9005Y3429D01*
X9032D01*
X9045Y3442D01*
X9072Y3496D02*
X9085Y3509D01*
X9112D01*
X9125Y3496D01*
Y3482D01*
X9112Y3469D01*
X9098D01*
X9112D01*
X9125Y3456D01*
Y3442D01*
X9112Y3429D01*
X9085D01*
X9072Y3442D01*
X9152Y3429D02*
X9178D01*
X9165D01*
Y3509D01*
X9152Y3496D01*
X11836Y4547D02*
X11916D01*
Y4507D01*
X11903Y4493D01*
X11876D01*
X11863Y4507D01*
Y4547D01*
Y4520D02*
X11836Y4493D01*
Y4427D02*
X11916D01*
X11876Y4467D01*
Y4413D01*
X11916Y4333D02*
Y4387D01*
X11876D01*
X11890Y4360D01*
Y4347D01*
X11876Y4333D01*
X11850D01*
X11836Y4347D01*
Y4373D01*
X11850Y4387D01*
X11913Y5893D02*
Y5973D01*
X11953D01*
X11966Y5959D01*
Y5933D01*
X11953Y5919D01*
X11913D01*
X11939D02*
X11966Y5893D01*
X12033D02*
Y5973D01*
X11993Y5933D01*
X12046D01*
X12126Y5973D02*
X12099Y5959D01*
X12073Y5933D01*
Y5906D01*
X12086Y5893D01*
X12113D01*
X12126Y5906D01*
Y5919D01*
X12113Y5933D01*
X12073D01*
X5283Y6608D02*
Y6541D01*
X5297Y6528D01*
X5323D01*
X5337Y6541D01*
Y6608D01*
X5416Y6528D02*
X5363D01*
X5416Y6581D01*
Y6594D01*
X5403Y6608D01*
X5377D01*
X5363Y6594D01*
X7620Y2896D02*
Y2976D01*
X7660D01*
X7673Y2962D01*
Y2936D01*
X7660Y2922D01*
X7620D01*
X7647D02*
X7673Y2896D01*
X7700Y2949D02*
Y2896D01*
Y2922D01*
X7713Y2936D01*
X7727Y2949D01*
X7740D01*
X7820Y2896D02*
X7793D01*
X7780Y2909D01*
Y2936D01*
X7793Y2949D01*
X7820D01*
X7833Y2936D01*
Y2922D01*
X7780D01*
X7873Y2896D02*
Y2962D01*
Y2936D01*
X7860D01*
X7887D01*
X7873D01*
Y2962D01*
X7887Y2976D01*
X7927Y2896D02*
X7953D01*
X7940D01*
Y2976D01*
X7927Y2962D01*
X8001Y4013D02*
Y4093D01*
X8041D01*
X8054Y4080D01*
Y4053D01*
X8041Y4040D01*
X8001D01*
X8028D02*
X8054Y4013D01*
X8081Y4080D02*
X8094Y4093D01*
X8121D01*
X8134Y4080D01*
Y4067D01*
X8121Y4053D01*
X8108D01*
X8121D01*
X8134Y4040D01*
Y4027D01*
X8121Y4013D01*
X8094D01*
X8081Y4027D01*
X7112Y2743D02*
Y2823D01*
X7152D01*
X7165Y2810D01*
Y2783D01*
X7152Y2770D01*
X7112D01*
X7139D02*
X7165Y2743D01*
X7245D02*
X7192D01*
X7245Y2797D01*
Y2810D01*
X7232Y2823D01*
X7205D01*
X7192Y2810D01*
X7157Y2056D02*
Y1976D01*
X7211D01*
X7237Y2056D02*
X7291D01*
X7264D01*
Y1976D01*
X7317D02*
X7344D01*
X7331D01*
Y2056D01*
X7317Y2042D01*
X10516Y1883D02*
Y1803D01*
X10556D01*
X10569Y1817D01*
Y1870D01*
X10556Y1883D01*
X10516D01*
X10596Y1803D02*
X10622D01*
X10609D01*
Y1883D01*
X10596Y1870D01*
X10264Y1845D02*
X10251Y1858D01*
X10224D01*
X10211Y1845D01*
Y1791D01*
X10224Y1778D01*
X10251D01*
X10264Y1791D01*
X10331Y1778D02*
Y1858D01*
X10291Y1818D01*
X10344D01*
X9934Y1845D02*
X9921Y1858D01*
X9894D01*
X9881Y1845D01*
Y1791D01*
X9894Y1778D01*
X9921D01*
X9934Y1791D01*
X9961Y1845D02*
X9974Y1858D01*
X10001D01*
X10014Y1845D01*
Y1831D01*
X10001Y1818D01*
X9987D01*
X10001D01*
X10014Y1805D01*
Y1791D01*
X10001Y1778D01*
X9974D01*
X9961Y1791D01*
X3480Y4267D02*
Y4321D01*
X3506Y4347D01*
X3533Y4321D01*
Y4267D01*
Y4307D01*
X3480D01*
X3613Y4334D02*
X3600Y4347D01*
X3573D01*
X3560Y4334D01*
Y4281D01*
X3573Y4267D01*
X3600D01*
X3613Y4281D01*
X3640Y4267D02*
X3666D01*
X3653D01*
Y4347D01*
X3640Y4334D01*
X3429Y1067D02*
Y1147D01*
X3469D01*
X3482Y1133D01*
Y1107D01*
X3469Y1093D01*
X3429D01*
X3456D02*
X3482Y1067D01*
X3549D02*
X3522D01*
X3509Y1080D01*
Y1107D01*
X3522Y1120D01*
X3549D01*
X3562Y1107D01*
Y1093D01*
X3509D01*
X3589Y1120D02*
X3616Y1067D01*
X3642Y1120D01*
X3669Y1067D02*
Y1080D01*
X3682D01*
Y1067D01*
X3669D01*
X3869D02*
X3816D01*
X3869Y1120D01*
Y1133D01*
X3856Y1147D01*
X3829D01*
X3816Y1133D01*
X3896Y1067D02*
Y1080D01*
X3909D01*
Y1067D01*
X3896D01*
X3962Y1133D02*
X3975Y1147D01*
X4002D01*
X4015Y1133D01*
Y1080D01*
X4002Y1067D01*
X3975D01*
X3962Y1080D01*
Y1133D01*
X4122Y1067D02*
Y1147D01*
X4149Y1120D01*
X4175Y1147D01*
Y1067D01*
X4215Y1120D02*
X4242D01*
X4255Y1107D01*
Y1067D01*
X4215D01*
X4202Y1080D01*
X4215Y1093D01*
X4255D01*
X4282Y1120D02*
Y1080D01*
X4295Y1067D01*
X4335D01*
Y1053D01*
X4322Y1040D01*
X4309D01*
X4335Y1067D02*
Y1120D01*
X4495Y1067D02*
X4442D01*
X4495Y1120D01*
Y1133D01*
X4482Y1147D01*
X4455D01*
X4442Y1133D01*
X4522D02*
X4535Y1147D01*
X4562D01*
X4575Y1133D01*
Y1080D01*
X4562Y1067D01*
X4535D01*
X4522Y1080D01*
Y1133D01*
X4602Y1067D02*
X4629D01*
X4615D01*
Y1147D01*
X4602Y1133D01*
X4722Y1147D02*
X4669D01*
Y1107D01*
X4695Y1120D01*
X4709D01*
X4722Y1107D01*
Y1080D01*
X4709Y1067D01*
X4682D01*
X4669Y1080D01*
X4981Y1133D02*
X4968Y1147D01*
X4941D01*
X4928Y1133D01*
Y1080D01*
X4941Y1067D01*
X4968D01*
X4981Y1080D01*
Y1107D01*
X4954D01*
X5008D02*
X5061D01*
X5141Y1067D02*
X5088D01*
X5141Y1120D01*
Y1133D01*
X5128Y1147D01*
X5101D01*
X5088Y1133D01*
X5247Y1147D02*
Y1067D01*
X5301D01*
X5327Y1147D02*
Y1093D01*
X5354Y1067D01*
X5381Y1093D01*
Y1147D01*
X5487Y1067D02*
Y1147D01*
X5527D01*
X5541Y1133D01*
Y1107D01*
X5527Y1093D01*
X5487D01*
X5581Y1067D02*
X5607D01*
X5621Y1080D01*
Y1107D01*
X5607Y1120D01*
X5581D01*
X5567Y1107D01*
Y1080D01*
X5581Y1067D01*
X5647Y1120D02*
Y1080D01*
X5661Y1067D01*
X5674Y1080D01*
X5687Y1067D01*
X5701Y1080D01*
Y1120D01*
X5767Y1067D02*
X5741D01*
X5727Y1080D01*
Y1107D01*
X5741Y1120D01*
X5767D01*
X5781Y1107D01*
Y1093D01*
X5727D01*
X5807Y1120D02*
Y1067D01*
Y1093D01*
X5821Y1107D01*
X5834Y1120D01*
X5847D01*
X5967Y1067D02*
X6007D01*
X6021Y1080D01*
X6007Y1093D01*
X5981D01*
X5967Y1107D01*
X5981Y1120D01*
X6021D01*
X6047D02*
Y1080D01*
X6061Y1067D01*
X6101D01*
Y1120D01*
X6127Y1040D02*
Y1120D01*
X6167D01*
X6181Y1107D01*
Y1080D01*
X6167Y1067D01*
X6127D01*
X6207Y1040D02*
Y1120D01*
X6247D01*
X6261Y1107D01*
Y1080D01*
X6247Y1067D01*
X6207D01*
X6287D02*
X6314D01*
X6300D01*
Y1147D01*
X6287D01*
X6354Y1120D02*
Y1080D01*
X6367Y1067D01*
X6407D01*
Y1053D01*
X6394Y1040D01*
X6380D01*
X6407Y1067D02*
Y1120D01*
X6538Y4230D02*
Y4150D01*
Y4190D01*
X6591D01*
Y4230D01*
Y4150D01*
X6671Y4230D02*
X6618D01*
Y4150D01*
X6671D01*
X6618Y4190D02*
X6645D01*
X6698Y4150D02*
Y4230D01*
X6738D01*
X6751Y4217D01*
Y4190D01*
X6738Y4177D01*
X6698D01*
X12380Y5862D02*
Y5812D01*
Y5837D01*
X12530D01*
X12505Y5862D01*
X12530Y4679D02*
Y4779D01*
X12455D01*
X12480Y4729D01*
Y4704D01*
X12455Y4679D01*
X12405D01*
X12380Y4704D01*
Y4754D01*
X12405Y4779D01*
X13345Y4918D02*
X13320Y4893D01*
Y4843D01*
X13345Y4818D01*
X13445D01*
X13470Y4843D01*
Y4893D01*
X13445Y4918D01*
X13420D01*
X13395Y4893D01*
Y4818D01*
X13470Y5649D02*
X13445Y5699D01*
X13395Y5749D01*
X13345D01*
X13320Y5724D01*
Y5674D01*
X13345Y5649D01*
X13370D01*
X13395Y5674D01*
Y5749D01*
D84*
X10490Y5404D02*
D03*
X10541Y2203D02*
D03*
D85*
X2765Y7127D02*
D03*
D86*
X2826Y7127D02*
D03*
D87*
X2705D02*
D03*
D88*
X4431Y7086D02*
D03*
D89*
Y7026D02*
D03*
D90*
Y7147D02*
D03*
M02*
