G04 Layer_Physical_Order=2*
G04 Layer_Color=16711680*
%FSLAX42Y42*%
%MOMM*%
G71*
G01*
G75*
%ADD10C,1.52*%
%ADD11C,1.27*%
%ADD12C,0.30*%
%ADD14C,0.64*%
%ADD16C,1.20*%
%ADD17C,1.69*%
%ADD18R,1.69X1.69*%
%ADD19C,4.76*%
%ADD20C,1.52*%
%ADD21C,3.25*%
%ADD22C,1.37*%
%ADD23R,1.37X1.37*%
%ADD24C,1.10*%
%ADD25C,2.00*%
%ADD26R,0.90X0.70*%
G36*
X22682Y5055D02*
X9779D01*
Y15850D01*
X22682D01*
Y5055D01*
D02*
G37*
%LPC*%
G36*
X11048Y15203D02*
Y15138D01*
X11113D01*
X11108Y15151D01*
X11088Y15177D01*
X11062Y15197D01*
X11048Y15203D01*
D02*
G37*
G36*
X10948D02*
X10935Y15197D01*
X10909Y15177D01*
X10888Y15151D01*
X10883Y15138D01*
X10948D01*
Y15203D01*
D02*
G37*
G36*
X10744Y15169D02*
X10723Y15166D01*
X10704Y15158D01*
X10687Y15145D01*
X10674Y15128D01*
X10666Y15109D01*
X10663Y15088D01*
X10666Y15067D01*
X10674Y15047D01*
X10687Y15030D01*
X10704Y15017D01*
X10723Y15009D01*
X10744Y15006D01*
X10765Y15009D01*
X10785Y15017D01*
X10802Y15030D01*
X10815Y15047D01*
X10823Y15067D01*
X10825Y15088D01*
X10823Y15109D01*
X10815Y15128D01*
X10802Y15145D01*
X10785Y15158D01*
X10765Y15166D01*
X10744Y15169D01*
D02*
G37*
G36*
Y14915D02*
X10723Y14912D01*
X10704Y14904D01*
X10687Y14891D01*
X10674Y14874D01*
X10666Y14855D01*
X10663Y14834D01*
X10666Y14813D01*
X10674Y14793D01*
X10687Y14776D01*
X10704Y14763D01*
X10723Y14755D01*
X10744Y14752D01*
X10765Y14755D01*
X10785Y14763D01*
X10802Y14776D01*
X10815Y14793D01*
X10823Y14813D01*
X10825Y14834D01*
X10823Y14855D01*
X10815Y14874D01*
X10802Y14891D01*
X10785Y14904D01*
X10765Y14912D01*
X10744Y14915D01*
D02*
G37*
G36*
X11113Y15038D02*
X10998D01*
X10883D01*
X10888Y15024D01*
X10909Y14998D01*
X10935Y14978D01*
X10960Y14967D01*
Y14954D01*
X10935Y14943D01*
X10909Y14923D01*
X10888Y14897D01*
X10876Y14866D01*
X10872Y14834D01*
X10876Y14801D01*
X10888Y14770D01*
X10909Y14744D01*
X10935Y14724D01*
X10944Y14720D01*
X10942Y14707D01*
X10846D01*
X10836Y14705D01*
X10827Y14700D01*
X10822Y14691D01*
X10820Y14681D01*
Y14634D01*
X10807Y14630D01*
X10802Y14637D01*
X10785Y14650D01*
X10765Y14658D01*
X10744Y14661D01*
X10723Y14658D01*
X10704Y14650D01*
X10687Y14637D01*
X10674Y14620D01*
X10666Y14601D01*
X10663Y14580D01*
X10666Y14559D01*
X10674Y14539D01*
X10687Y14522D01*
X10704Y14509D01*
X10723Y14501D01*
X10744Y14498D01*
X10765Y14501D01*
X10785Y14509D01*
X10802Y14522D01*
X10807Y14529D01*
X10820Y14525D01*
Y14224D01*
X10822Y14214D01*
X10827Y14206D01*
X10836Y14200D01*
X10846Y14198D01*
X12548Y14198D01*
X21717Y14198D01*
X21727Y14200D01*
X21735Y14206D01*
X21741Y14214D01*
X21743Y14224D01*
X21743Y14681D01*
X21741Y14691D01*
X21735Y14700D01*
X21727Y14705D01*
X21717Y14707D01*
X11055Y14707D01*
X11052Y14720D01*
X11062Y14724D01*
X11088Y14744D01*
X11108Y14770D01*
X11121Y14801D01*
X11125Y14834D01*
X11121Y14866D01*
X11108Y14897D01*
X11088Y14923D01*
X11062Y14943D01*
X11036Y14954D01*
Y14967D01*
X11062Y14978D01*
X11088Y14998D01*
X11108Y15024D01*
X11113Y15038D01*
D02*
G37*
G36*
X21590Y14162D02*
X21589Y14161D01*
X21083D01*
X21082Y14162D01*
X21055Y14158D01*
X21033Y14149D01*
X16559D01*
X16537Y14158D01*
X16510Y14162D01*
X16483Y14158D01*
X16461Y14149D01*
X16051D01*
X16029Y14158D01*
X16002Y14162D01*
X15975Y14158D01*
X15953Y14149D01*
X12495D01*
X12473Y14158D01*
X12446Y14162D01*
X12419Y14158D01*
X12397Y14149D01*
X11987D01*
X11965Y14158D01*
X11938Y14162D01*
X11911Y14158D01*
X11887Y14148D01*
X11865Y14132D01*
X11849Y14110D01*
X11839Y14085D01*
X11835Y14059D01*
X11839Y14032D01*
X11849Y14008D01*
X11865Y13986D01*
X11887Y13970D01*
X11911Y13960D01*
X11938Y13956D01*
X11965Y13960D01*
X11987Y13969D01*
X12397D01*
X12419Y13960D01*
X12446Y13956D01*
X12473Y13960D01*
X12495Y13969D01*
X15953D01*
X15975Y13960D01*
X16002Y13956D01*
X16029Y13960D01*
X16051Y13969D01*
X16461D01*
X16483Y13960D01*
X16510Y13956D01*
X16537Y13960D01*
X16559Y13969D01*
X21033D01*
X21055Y13960D01*
X21082Y13956D01*
X21109Y13960D01*
X21133Y13970D01*
X21142Y13977D01*
X21152Y13981D01*
X21153Y13982D01*
X21523D01*
X21539Y13970D01*
X21563Y13960D01*
X21590Y13956D01*
X21617Y13960D01*
X21641Y13970D01*
X21663Y13986D01*
X21673Y14000D01*
X21705D01*
X21811Y13895D01*
Y13775D01*
X21799D01*
Y13654D01*
X21940D01*
Y13656D01*
X21973D01*
X22065Y13565D01*
Y13547D01*
X22053D01*
Y13426D01*
X22194D01*
Y13547D01*
X22182D01*
Y13589D01*
X22177Y13611D01*
X22165Y13630D01*
X22039Y13756D01*
X22020Y13769D01*
X21998Y13773D01*
X21940D01*
Y13775D01*
X21928D01*
Y13919D01*
X21923Y13942D01*
X21911Y13961D01*
X21771Y14100D01*
X21752Y14113D01*
X21730Y14117D01*
X21673D01*
X21663Y14132D01*
X21641Y14148D01*
X21617Y14158D01*
X21590Y14162D01*
D02*
G37*
G36*
X21640Y13894D02*
Y13855D01*
X21679D01*
X21679Y13856D01*
X21663Y13878D01*
X21641Y13894D01*
X21640Y13894D01*
D02*
G37*
G36*
X21132D02*
Y13855D01*
X21171D01*
X21171Y13856D01*
X21155Y13878D01*
X21133Y13894D01*
X21132Y13894D01*
D02*
G37*
G36*
X16560D02*
Y13855D01*
X16599D01*
X16599Y13856D01*
X16583Y13878D01*
X16561Y13894D01*
X16560Y13894D01*
D02*
G37*
G36*
X16052D02*
Y13855D01*
X16091D01*
X16091Y13856D01*
X16075Y13878D01*
X16053Y13894D01*
X16052Y13894D01*
D02*
G37*
G36*
X12496D02*
Y13855D01*
X12535D01*
X12535Y13856D01*
X12519Y13878D01*
X12497Y13894D01*
X12496Y13894D01*
D02*
G37*
G36*
X11988D02*
Y13855D01*
X12027D01*
X12027Y13856D01*
X12011Y13878D01*
X11989Y13894D01*
X11988Y13894D01*
D02*
G37*
G36*
X21540D02*
X21539Y13894D01*
X21517Y13878D01*
X21501Y13856D01*
X21501Y13855D01*
X21540D01*
Y13894D01*
D02*
G37*
G36*
X21032D02*
X21031Y13894D01*
X21009Y13878D01*
X20993Y13856D01*
X20993Y13855D01*
X21032D01*
Y13894D01*
D02*
G37*
G36*
X16460D02*
X16459Y13894D01*
X16437Y13878D01*
X16421Y13856D01*
X16421Y13855D01*
X16460D01*
Y13894D01*
D02*
G37*
G36*
X15952D02*
X15951Y13894D01*
X15929Y13878D01*
X15913Y13856D01*
X15913Y13855D01*
X15952D01*
Y13894D01*
D02*
G37*
G36*
X12396D02*
X12395Y13894D01*
X12373Y13878D01*
X12357Y13856D01*
X12357Y13855D01*
X12396D01*
Y13894D01*
D02*
G37*
G36*
X11888D02*
X11887Y13894D01*
X11865Y13878D01*
X11849Y13856D01*
X11849Y13855D01*
X11888D01*
Y13894D01*
D02*
G37*
G36*
X21679Y13755D02*
X21640D01*
Y13715D01*
X21641Y13716D01*
X21663Y13732D01*
X21679Y13754D01*
X21679Y13755D01*
D02*
G37*
G36*
X21171D02*
X21132D01*
Y13715D01*
X21133Y13716D01*
X21155Y13732D01*
X21171Y13754D01*
X21171Y13755D01*
D02*
G37*
G36*
X16599D02*
X16560D01*
Y13715D01*
X16561Y13716D01*
X16583Y13732D01*
X16599Y13754D01*
X16599Y13755D01*
D02*
G37*
G36*
X16091D02*
X16052D01*
Y13715D01*
X16053Y13716D01*
X16075Y13732D01*
X16091Y13754D01*
X16091Y13755D01*
D02*
G37*
G36*
X12535D02*
X12496D01*
Y13715D01*
X12497Y13716D01*
X12519Y13732D01*
X12535Y13754D01*
X12535Y13755D01*
D02*
G37*
G36*
X12027D02*
X11988D01*
Y13715D01*
X11989Y13716D01*
X12011Y13732D01*
X12027Y13754D01*
X12027Y13755D01*
D02*
G37*
G36*
X21540D02*
X21501D01*
X21501Y13754D01*
X21517Y13732D01*
X21539Y13716D01*
X21540Y13715D01*
Y13755D01*
D02*
G37*
G36*
X21032D02*
X20993D01*
X20993Y13754D01*
X21009Y13732D01*
X21031Y13716D01*
X21032Y13715D01*
Y13755D01*
D02*
G37*
G36*
X16460D02*
X16421D01*
X16421Y13754D01*
X16437Y13732D01*
X16459Y13716D01*
X16460Y13715D01*
Y13755D01*
D02*
G37*
G36*
X15952D02*
X15913D01*
X15913Y13754D01*
X15929Y13732D01*
X15951Y13716D01*
X15952Y13715D01*
Y13755D01*
D02*
G37*
G36*
X12396D02*
X12357D01*
X12357Y13754D01*
X12373Y13732D01*
X12395Y13716D01*
X12396Y13715D01*
Y13755D01*
D02*
G37*
G36*
X11888D02*
X11849D01*
X11849Y13754D01*
X11865Y13732D01*
X11887Y13716D01*
X11888Y13715D01*
Y13755D01*
D02*
G37*
G36*
X21590Y13656D02*
X12448D01*
X12425Y13652D01*
X12403Y13643D01*
X12403Y13643D01*
X12397Y13641D01*
X11987D01*
X11965Y13650D01*
X11938Y13654D01*
X11911Y13650D01*
X11887Y13640D01*
X11865Y13624D01*
X11849Y13602D01*
X11839Y13577D01*
X11835Y13551D01*
X11839Y13524D01*
X11849Y13500D01*
X11865Y13478D01*
X11887Y13462D01*
X11911Y13452D01*
X11938Y13448D01*
X11965Y13452D01*
X11987Y13461D01*
X12397D01*
X12419Y13452D01*
X12446Y13448D01*
X12473Y13452D01*
X12497Y13462D01*
X12515Y13476D01*
X15933D01*
X15951Y13462D01*
X15975Y13452D01*
X16002Y13448D01*
X16029Y13452D01*
X16053Y13462D01*
X16071Y13476D01*
X16441D01*
X16459Y13462D01*
X16483Y13452D01*
X16510Y13448D01*
X16537Y13452D01*
X16561Y13462D01*
X16579Y13476D01*
X21013D01*
X21031Y13462D01*
X21055Y13452D01*
X21082Y13448D01*
X21109Y13452D01*
X21133Y13462D01*
X21151Y13476D01*
X21521D01*
X21539Y13462D01*
X21563Y13452D01*
X21590Y13448D01*
X21617Y13452D01*
X21639Y13461D01*
X21855D01*
X21879Y13464D01*
X21900Y13473D01*
X21919Y13487D01*
X21932Y13504D01*
X21940D01*
Y13522D01*
X21942Y13528D01*
X21945Y13551D01*
X21942Y13574D01*
X21940Y13580D01*
Y13625D01*
X21905D01*
X21900Y13629D01*
X21879Y13638D01*
X21855Y13641D01*
X21639D01*
X21638Y13641D01*
X21635Y13643D01*
X21613Y13652D01*
X21590Y13656D01*
D02*
G37*
G36*
Y13400D02*
X21563Y13396D01*
X21541Y13387D01*
X21131D01*
X21109Y13396D01*
X21082Y13400D01*
X21055Y13396D01*
X21033Y13387D01*
X16559D01*
X16537Y13396D01*
X16510Y13400D01*
X16483Y13396D01*
X16461Y13387D01*
X16051D01*
X16029Y13396D01*
X16002Y13400D01*
X15975Y13396D01*
X15953Y13387D01*
X12495D01*
X12473Y13396D01*
X12446Y13400D01*
X12419Y13396D01*
X12397Y13387D01*
X11987D01*
X11965Y13396D01*
X11938Y13400D01*
X11911Y13396D01*
X11887Y13386D01*
X11865Y13370D01*
X11849Y13348D01*
X11839Y13323D01*
X11835Y13297D01*
X11839Y13270D01*
X11849Y13246D01*
X11865Y13224D01*
X11887Y13208D01*
X11911Y13198D01*
X11938Y13194D01*
X11965Y13198D01*
X11987Y13207D01*
X12397D01*
X12419Y13198D01*
X12446Y13194D01*
X12473Y13198D01*
X12495Y13207D01*
X15953D01*
X15975Y13198D01*
X16002Y13194D01*
X16029Y13198D01*
X16051Y13207D01*
X16461D01*
X16483Y13198D01*
X16510Y13194D01*
X16537Y13198D01*
X16559Y13207D01*
X21033D01*
X21055Y13198D01*
X21082Y13194D01*
X21109Y13198D01*
X21131Y13207D01*
X21541D01*
X21563Y13198D01*
X21590Y13194D01*
X21617Y13198D01*
X21639Y13207D01*
X22123D01*
X22147Y13210D01*
X22168Y13219D01*
X22187Y13233D01*
X22201Y13252D01*
X22210Y13274D01*
X22213Y13297D01*
X22210Y13320D01*
X22201Y13342D01*
X22194Y13351D01*
Y13397D01*
X22053D01*
Y13387D01*
X21639D01*
X21617Y13396D01*
X21590Y13400D01*
D02*
G37*
G36*
X21640Y13132D02*
Y13093D01*
X21679D01*
X21679Y13094D01*
X21663Y13116D01*
X21641Y13132D01*
X21640Y13132D01*
D02*
G37*
G36*
X21132D02*
Y13093D01*
X21171D01*
X21171Y13094D01*
X21155Y13116D01*
X21133Y13132D01*
X21132Y13132D01*
D02*
G37*
G36*
X16560D02*
Y13093D01*
X16599D01*
X16599Y13094D01*
X16583Y13116D01*
X16561Y13132D01*
X16560Y13132D01*
D02*
G37*
G36*
X16052D02*
Y13093D01*
X16091D01*
X16091Y13094D01*
X16075Y13116D01*
X16053Y13132D01*
X16052Y13132D01*
D02*
G37*
G36*
X12496D02*
Y13093D01*
X12535D01*
X12535Y13094D01*
X12519Y13116D01*
X12497Y13132D01*
X12496Y13132D01*
D02*
G37*
G36*
X11988D02*
Y13093D01*
X12027D01*
X12027Y13094D01*
X12011Y13116D01*
X11989Y13132D01*
X11988Y13132D01*
D02*
G37*
G36*
X21540D02*
X21539Y13132D01*
X21517Y13116D01*
X21501Y13094D01*
X21501Y13093D01*
X21540D01*
Y13132D01*
D02*
G37*
G36*
X21032D02*
X21031Y13132D01*
X21009Y13116D01*
X20993Y13094D01*
X20993Y13093D01*
X21032D01*
Y13132D01*
D02*
G37*
G36*
X16460D02*
X16459Y13132D01*
X16437Y13116D01*
X16421Y13094D01*
X16421Y13093D01*
X16460D01*
Y13132D01*
D02*
G37*
G36*
X15952D02*
X15951Y13132D01*
X15929Y13116D01*
X15913Y13094D01*
X15913Y13093D01*
X15952D01*
Y13132D01*
D02*
G37*
G36*
X12396D02*
X12395Y13132D01*
X12373Y13116D01*
X12357Y13094D01*
X12357Y13093D01*
X12396D01*
Y13132D01*
D02*
G37*
G36*
X11888D02*
X11887Y13132D01*
X11865Y13116D01*
X11849Y13094D01*
X11849Y13093D01*
X11888D01*
Y13132D01*
D02*
G37*
G36*
X16599Y12993D02*
X16560D01*
Y12953D01*
X16561Y12954D01*
X16583Y12970D01*
X16599Y12992D01*
X16599Y12993D01*
D02*
G37*
G36*
X16091D02*
X16052D01*
Y12953D01*
X16053Y12954D01*
X16075Y12970D01*
X16091Y12992D01*
X16091Y12993D01*
D02*
G37*
G36*
X12535D02*
X12496D01*
Y12953D01*
X12497Y12954D01*
X12519Y12970D01*
X12535Y12992D01*
X12535Y12993D01*
D02*
G37*
G36*
X12027D02*
X11988D01*
Y12953D01*
X11989Y12954D01*
X12011Y12970D01*
X12027Y12992D01*
X12027Y12993D01*
D02*
G37*
G36*
X21679D02*
X21640D01*
Y12953D01*
X21641Y12954D01*
X21663Y12970D01*
X21679Y12992D01*
X21679Y12993D01*
D02*
G37*
G36*
X21171D02*
X21132D01*
Y12953D01*
X21133Y12954D01*
X21155Y12970D01*
X21171Y12992D01*
X21171Y12993D01*
D02*
G37*
G36*
X16460D02*
X16421D01*
X16421Y12992D01*
X16437Y12970D01*
X16459Y12954D01*
X16460Y12953D01*
Y12993D01*
D02*
G37*
G36*
X15952D02*
X15913D01*
X15913Y12992D01*
X15929Y12970D01*
X15951Y12954D01*
X15952Y12953D01*
Y12993D01*
D02*
G37*
G36*
X12396D02*
X12357D01*
X12357Y12992D01*
X12373Y12970D01*
X12395Y12954D01*
X12396Y12953D01*
Y12993D01*
D02*
G37*
G36*
X11888D02*
X11849D01*
X11849Y12992D01*
X11865Y12970D01*
X11887Y12954D01*
X11888Y12953D01*
Y12993D01*
D02*
G37*
G36*
X21540D02*
X21501D01*
X21501Y12992D01*
X21517Y12970D01*
X21539Y12954D01*
X21540Y12953D01*
Y12993D01*
D02*
G37*
G36*
X21032D02*
X20993D01*
X20993Y12992D01*
X21009Y12970D01*
X21031Y12954D01*
X21032Y12953D01*
Y12993D01*
D02*
G37*
G36*
X20011Y13139D02*
X19974Y13134D01*
X19940Y13120D01*
X19910Y13097D01*
X19888Y13068D01*
X19874Y13034D01*
X19869Y12997D01*
X19874Y12960D01*
X19888Y12926D01*
X19910Y12897D01*
X19940Y12874D01*
X19974Y12860D01*
X20011Y12855D01*
X20047Y12860D01*
X20082Y12874D01*
X20111Y12897D01*
X20134Y12926D01*
X20148Y12960D01*
X20153Y12997D01*
X20148Y13034D01*
X20134Y13068D01*
X20111Y13097D01*
X20082Y13120D01*
X20047Y13134D01*
X20011Y13139D01*
D02*
G37*
G36*
X21640Y12878D02*
Y12839D01*
X21679D01*
X21679Y12840D01*
X21663Y12862D01*
X21641Y12878D01*
X21640Y12878D01*
D02*
G37*
G36*
X16560D02*
Y12839D01*
X16599D01*
X16599Y12840D01*
X16583Y12862D01*
X16561Y12878D01*
X16560Y12878D01*
D02*
G37*
G36*
X16052D02*
Y12839D01*
X16091D01*
X16091Y12840D01*
X16075Y12862D01*
X16053Y12878D01*
X16052Y12878D01*
D02*
G37*
G36*
X12496D02*
Y12839D01*
X12535D01*
X12535Y12840D01*
X12519Y12862D01*
X12497Y12878D01*
X12496Y12878D01*
D02*
G37*
G36*
X11988D02*
Y12839D01*
X12027D01*
X12027Y12840D01*
X12011Y12862D01*
X11989Y12878D01*
X11988Y12878D01*
D02*
G37*
G36*
X21540D02*
X21539Y12878D01*
X21517Y12862D01*
X21501Y12840D01*
X21501Y12839D01*
X21540D01*
Y12878D01*
D02*
G37*
G36*
X16460D02*
X16459Y12878D01*
X16437Y12862D01*
X16421Y12840D01*
X16421Y12839D01*
X16460D01*
Y12878D01*
D02*
G37*
G36*
X15952D02*
X15951Y12878D01*
X15929Y12862D01*
X15913Y12840D01*
X15913Y12839D01*
X15952D01*
Y12878D01*
D02*
G37*
G36*
X12396D02*
X12395Y12878D01*
X12373Y12862D01*
X12357Y12840D01*
X12357Y12839D01*
X12396D01*
Y12878D01*
D02*
G37*
G36*
X11888D02*
X11887Y12878D01*
X11865Y12862D01*
X11849Y12840D01*
X11849Y12839D01*
X11888D01*
Y12878D01*
D02*
G37*
G36*
X17831Y13143D02*
X17794Y13139D01*
X17758Y13129D01*
X17726Y13111D01*
X17697Y13088D01*
X17674Y13059D01*
X17656Y13026D01*
X17645Y12991D01*
X17642Y12954D01*
X17645Y12917D01*
X17656Y12882D01*
X17674Y12849D01*
X17697Y12820D01*
X17726Y12797D01*
X17758Y12779D01*
X17794Y12769D01*
X17831Y12765D01*
X17868Y12769D01*
X17903Y12779D01*
X17936Y12797D01*
X17964Y12820D01*
X17988Y12849D01*
X18005Y12882D01*
X18016Y12917D01*
X18020Y12954D01*
X18016Y12991D01*
X18005Y13026D01*
X17988Y13059D01*
X17964Y13088D01*
X17936Y13111D01*
X17903Y13129D01*
X17868Y13139D01*
X17831Y13143D01*
D02*
G37*
G36*
X13767D02*
X13730Y13139D01*
X13694Y13129D01*
X13662Y13111D01*
X13633Y13088D01*
X13610Y13059D01*
X13592Y13026D01*
X13581Y12991D01*
X13578Y12954D01*
X13581Y12917D01*
X13592Y12882D01*
X13610Y12849D01*
X13633Y12820D01*
X13662Y12797D01*
X13694Y12779D01*
X13730Y12769D01*
X13767Y12765D01*
X13804Y12769D01*
X13839Y12779D01*
X13872Y12797D01*
X13900Y12820D01*
X13924Y12849D01*
X13941Y12882D01*
X13952Y12917D01*
X13956Y12954D01*
X13952Y12991D01*
X13941Y13026D01*
X13924Y13059D01*
X13900Y13088D01*
X13872Y13111D01*
X13839Y13129D01*
X13804Y13139D01*
X13767Y13143D01*
D02*
G37*
G36*
X17290Y12921D02*
X17102D01*
Y12792D01*
X17044Y12734D01*
X17030Y12735D01*
X17029Y12736D01*
X17024Y12747D01*
X17009Y12767D01*
X16989Y12782D01*
X16966Y12792D01*
X16942Y12795D01*
X16917Y12792D01*
X16894Y12782D01*
X16875Y12767D01*
X16860Y12747D01*
X16850Y12725D01*
X16847Y12700D01*
X16850Y12675D01*
X16852Y12670D01*
X16642Y12460D01*
X16596D01*
X16590Y12472D01*
X16599Y12484D01*
X16609Y12508D01*
X16613Y12535D01*
X16609Y12561D01*
X16599Y12586D01*
X16583Y12608D01*
X16561Y12624D01*
X16537Y12634D01*
X16510Y12638D01*
X16483Y12634D01*
X16459Y12624D01*
X16437Y12608D01*
X16421Y12586D01*
X16411Y12561D01*
X16407Y12535D01*
X16411Y12508D01*
X16421Y12484D01*
X16430Y12472D01*
X16430Y12471D01*
X16425Y12458D01*
X16415Y12456D01*
X16402Y12447D01*
X16328Y12374D01*
X16319Y12360D01*
X16316Y12344D01*
Y11925D01*
X16319Y11909D01*
X16328Y11896D01*
X16415Y11809D01*
X16411Y11799D01*
X16407Y11773D01*
X16411Y11746D01*
X16421Y11722D01*
X16437Y11700D01*
X16459Y11684D01*
X16483Y11674D01*
X16510Y11670D01*
X16537Y11674D01*
X16561Y11684D01*
X16583Y11700D01*
X16599Y11722D01*
X16609Y11746D01*
X16613Y11773D01*
X16609Y11799D01*
X16599Y11824D01*
X16583Y11846D01*
X16561Y11862D01*
X16537Y11872D01*
X16510Y11876D01*
X16483Y11872D01*
X16474Y11868D01*
X16399Y11943D01*
Y11995D01*
X16412Y11998D01*
X16421Y11976D01*
X16437Y11954D01*
X16459Y11938D01*
X16483Y11928D01*
X16510Y11924D01*
X16537Y11928D01*
X16561Y11938D01*
X16583Y11954D01*
X16599Y11976D01*
X16609Y12000D01*
X16613Y12027D01*
X16609Y12053D01*
X16605Y12063D01*
X16819Y12277D01*
X16877D01*
X16882Y12265D01*
X16875Y12259D01*
X16860Y12239D01*
X16850Y12217D01*
X16847Y12192D01*
X16850Y12167D01*
X16860Y12145D01*
X16875Y12125D01*
X16894Y12110D01*
X16917Y12100D01*
X16942Y12097D01*
X16966Y12100D01*
X16989Y12110D01*
X17009Y12125D01*
X17024Y12145D01*
X17034Y12167D01*
X17037Y12192D01*
X17034Y12217D01*
X17024Y12239D01*
X17009Y12259D01*
X17000Y12266D01*
X17003Y12279D01*
X17009Y12281D01*
X17022Y12290D01*
X17098Y12366D01*
X17101Y12371D01*
X17113Y12365D01*
X17111Y12361D01*
X17104Y12344D01*
X17101Y12319D01*
X17104Y12294D01*
X17114Y12272D01*
X17129Y12252D01*
X17148Y12237D01*
X17171Y12227D01*
X17196Y12224D01*
X17220Y12227D01*
X17243Y12237D01*
X17263Y12252D01*
X17278Y12272D01*
X17288Y12294D01*
X17291Y12319D01*
X17288Y12344D01*
X17278Y12366D01*
X17263Y12386D01*
X17243Y12401D01*
X17220Y12411D01*
X17196Y12414D01*
X17171Y12411D01*
X17148Y12401D01*
X17129Y12386D01*
X17120Y12375D01*
X17117Y12371D01*
X17107Y12378D01*
X17107Y12379D01*
X17108Y12382D01*
X17110Y12395D01*
Y12509D01*
X17123Y12513D01*
X17129Y12506D01*
X17148Y12491D01*
X17171Y12481D01*
X17196Y12478D01*
X17220Y12481D01*
X17243Y12491D01*
X17263Y12506D01*
X17278Y12526D01*
X17288Y12548D01*
X17291Y12573D01*
X17288Y12598D01*
X17278Y12620D01*
X17263Y12640D01*
X17243Y12655D01*
X17220Y12665D01*
X17196Y12668D01*
X17171Y12665D01*
X17148Y12655D01*
X17129Y12640D01*
X17123Y12633D01*
X17110Y12637D01*
Y12683D01*
X17161Y12733D01*
X17290D01*
Y12921D01*
D02*
G37*
G36*
X13226D02*
X13038D01*
Y12792D01*
X12980Y12734D01*
X12966Y12735D01*
X12965Y12736D01*
X12960Y12747D01*
X12945Y12767D01*
X12925Y12782D01*
X12902Y12792D01*
X12878Y12795D01*
X12853Y12792D01*
X12830Y12782D01*
X12811Y12767D01*
X12796Y12747D01*
X12786Y12725D01*
X12783Y12700D01*
X12786Y12675D01*
X12788Y12670D01*
X12558Y12440D01*
X12510D01*
X12506Y12452D01*
X12519Y12462D01*
X12535Y12484D01*
X12545Y12508D01*
X12549Y12535D01*
X12545Y12561D01*
X12535Y12586D01*
X12519Y12608D01*
X12497Y12624D01*
X12473Y12634D01*
X12446Y12638D01*
X12419Y12634D01*
X12395Y12624D01*
X12373Y12608D01*
X12357Y12586D01*
X12347Y12561D01*
X12343Y12535D01*
X12347Y12508D01*
X12357Y12484D01*
X12373Y12462D01*
X12388Y12451D01*
X12385Y12437D01*
X12382Y12436D01*
X12368Y12427D01*
X12264Y12323D01*
X12255Y12310D01*
X12252Y12294D01*
Y11925D01*
X12255Y11909D01*
X12264Y11896D01*
X12351Y11809D01*
X12347Y11799D01*
X12343Y11773D01*
X12347Y11746D01*
X12357Y11722D01*
X12373Y11700D01*
X12395Y11684D01*
X12419Y11674D01*
X12446Y11670D01*
X12473Y11674D01*
X12497Y11684D01*
X12519Y11700D01*
X12535Y11722D01*
X12545Y11746D01*
X12549Y11773D01*
X12545Y11799D01*
X12535Y11824D01*
X12519Y11846D01*
X12497Y11862D01*
X12473Y11872D01*
X12446Y11876D01*
X12419Y11872D01*
X12410Y11868D01*
X12335Y11943D01*
Y11995D01*
X12348Y11998D01*
X12357Y11976D01*
X12373Y11954D01*
X12395Y11938D01*
X12419Y11928D01*
X12446Y11924D01*
X12473Y11928D01*
X12497Y11938D01*
X12519Y11954D01*
X12535Y11976D01*
X12545Y12000D01*
X12549Y12027D01*
X12545Y12053D01*
X12541Y12063D01*
X12755Y12277D01*
X12813D01*
X12818Y12265D01*
X12811Y12259D01*
X12796Y12239D01*
X12786Y12217D01*
X12783Y12192D01*
X12786Y12167D01*
X12796Y12145D01*
X12811Y12125D01*
X12830Y12110D01*
X12853Y12100D01*
X12878Y12097D01*
X12902Y12100D01*
X12925Y12110D01*
X12945Y12125D01*
X12960Y12145D01*
X12970Y12167D01*
X12973Y12192D01*
X12970Y12217D01*
X12960Y12239D01*
X12945Y12259D01*
X12936Y12266D01*
X12939Y12279D01*
X12945Y12281D01*
X12958Y12290D01*
X13034Y12366D01*
X13037Y12371D01*
X13049Y12365D01*
X13047Y12361D01*
X13040Y12344D01*
X13037Y12319D01*
X13040Y12294D01*
X13050Y12272D01*
X13065Y12252D01*
X13084Y12237D01*
X13107Y12227D01*
X13132Y12224D01*
X13156Y12227D01*
X13179Y12237D01*
X13199Y12252D01*
X13214Y12272D01*
X13224Y12294D01*
X13227Y12319D01*
X13224Y12344D01*
X13214Y12366D01*
X13199Y12386D01*
X13179Y12401D01*
X13156Y12411D01*
X13132Y12414D01*
X13107Y12411D01*
X13084Y12401D01*
X13065Y12386D01*
X13056Y12375D01*
X13053Y12371D01*
X13043Y12378D01*
X13043Y12379D01*
X13044Y12382D01*
X13046Y12395D01*
Y12509D01*
X13059Y12513D01*
X13065Y12506D01*
X13084Y12491D01*
X13107Y12481D01*
X13132Y12478D01*
X13156Y12481D01*
X13179Y12491D01*
X13199Y12506D01*
X13214Y12526D01*
X13224Y12548D01*
X13227Y12573D01*
X13224Y12598D01*
X13214Y12620D01*
X13199Y12640D01*
X13179Y12655D01*
X13156Y12665D01*
X13132Y12668D01*
X13107Y12665D01*
X13084Y12655D01*
X13065Y12640D01*
X13059Y12633D01*
X13046Y12637D01*
Y12683D01*
X13097Y12733D01*
X13226D01*
Y12921D01*
D02*
G37*
G36*
X21679Y12739D02*
X21640D01*
Y12699D01*
X21641Y12700D01*
X21663Y12716D01*
X21679Y12738D01*
X21679Y12739D01*
D02*
G37*
G36*
X16599D02*
X16560D01*
Y12699D01*
X16561Y12700D01*
X16583Y12716D01*
X16599Y12738D01*
X16599Y12739D01*
D02*
G37*
G36*
X16091D02*
X16052D01*
Y12699D01*
X16053Y12700D01*
X16075Y12716D01*
X16091Y12738D01*
X16091Y12739D01*
D02*
G37*
G36*
X12535D02*
X12496D01*
Y12699D01*
X12497Y12700D01*
X12519Y12716D01*
X12535Y12738D01*
X12535Y12739D01*
D02*
G37*
G36*
X12027D02*
X11988D01*
Y12699D01*
X11989Y12700D01*
X12011Y12716D01*
X12027Y12738D01*
X12027Y12739D01*
D02*
G37*
G36*
X21540D02*
X21501D01*
X21501Y12738D01*
X21517Y12716D01*
X21539Y12700D01*
X21540Y12699D01*
Y12739D01*
D02*
G37*
G36*
X16460D02*
X16421D01*
X16421Y12738D01*
X16437Y12716D01*
X16459Y12700D01*
X16460Y12699D01*
Y12739D01*
D02*
G37*
G36*
X15952D02*
X15913D01*
X15913Y12738D01*
X15929Y12716D01*
X15951Y12700D01*
X15952Y12699D01*
Y12739D01*
D02*
G37*
G36*
X12396D02*
X12357D01*
X12357Y12738D01*
X12373Y12716D01*
X12395Y12700D01*
X12396Y12699D01*
Y12739D01*
D02*
G37*
G36*
X11888D02*
X11849D01*
X11849Y12738D01*
X11865Y12716D01*
X11887Y12700D01*
X11888Y12699D01*
Y12739D01*
D02*
G37*
G36*
X21082Y12892D02*
X21055Y12888D01*
X21031Y12878D01*
X21009Y12862D01*
X20993Y12840D01*
X20983Y12815D01*
X20979Y12789D01*
X20983Y12762D01*
X20993Y12738D01*
X21009Y12716D01*
X21031Y12700D01*
X21055Y12690D01*
X21082Y12686D01*
X21109Y12690D01*
X21133Y12700D01*
X21155Y12716D01*
X21171Y12738D01*
X21181Y12762D01*
X21185Y12789D01*
X21181Y12815D01*
X21171Y12840D01*
X21155Y12862D01*
X21133Y12878D01*
X21109Y12888D01*
X21082Y12892D01*
D02*
G37*
G36*
X21640Y12624D02*
Y12585D01*
X21679D01*
X21679Y12586D01*
X21663Y12608D01*
X21641Y12624D01*
X21640Y12624D01*
D02*
G37*
G36*
X11988D02*
Y12585D01*
X12027D01*
X12027Y12586D01*
X12011Y12608D01*
X11989Y12624D01*
X11988Y12624D01*
D02*
G37*
G36*
X21540D02*
X21539Y12624D01*
X21517Y12608D01*
X21501Y12586D01*
X21501Y12585D01*
X21540D01*
Y12624D01*
D02*
G37*
G36*
X11888D02*
X11887Y12624D01*
X11865Y12608D01*
X11849Y12586D01*
X11849Y12585D01*
X11888D01*
Y12624D01*
D02*
G37*
G36*
X20010Y12610D02*
Y12570D01*
X20050D01*
X20049Y12572D01*
X20033Y12593D01*
X20012Y12609D01*
X20010Y12610D01*
D02*
G37*
G36*
X19910Y12610D02*
X19909Y12609D01*
X19888Y12593D01*
X19871Y12572D01*
X19871Y12570D01*
X19910D01*
Y12610D01*
D02*
G37*
G36*
X12027Y12485D02*
X11988D01*
Y12445D01*
X11989Y12446D01*
X12011Y12462D01*
X12027Y12484D01*
X12027Y12485D01*
D02*
G37*
G36*
X21679D02*
X21640D01*
Y12445D01*
X21641Y12446D01*
X21663Y12462D01*
X21679Y12484D01*
X21679Y12485D01*
D02*
G37*
G36*
X21540D02*
X21501D01*
X21501Y12484D01*
X21517Y12462D01*
X21539Y12446D01*
X21540Y12445D01*
Y12485D01*
D02*
G37*
G36*
X11888D02*
X11849D01*
X11849Y12484D01*
X11865Y12462D01*
X11887Y12446D01*
X11888Y12445D01*
Y12485D01*
D02*
G37*
G36*
X21082Y12638D02*
X21055Y12634D01*
X21031Y12624D01*
X21009Y12608D01*
X20993Y12586D01*
X20983Y12561D01*
X20979Y12535D01*
X20983Y12508D01*
X20993Y12484D01*
X21009Y12462D01*
X21031Y12446D01*
X21055Y12436D01*
X21082Y12432D01*
X21109Y12436D01*
X21133Y12446D01*
X21155Y12462D01*
X21171Y12484D01*
X21181Y12508D01*
X21185Y12535D01*
X21181Y12561D01*
X21171Y12586D01*
X21155Y12608D01*
X21133Y12624D01*
X21109Y12634D01*
X21082Y12638D01*
D02*
G37*
G36*
X16002D02*
X15975Y12634D01*
X15951Y12624D01*
X15929Y12608D01*
X15913Y12586D01*
X15903Y12561D01*
X15899Y12535D01*
X15903Y12508D01*
X15913Y12484D01*
X15929Y12462D01*
X15951Y12446D01*
X15975Y12436D01*
X16002Y12432D01*
X16029Y12436D01*
X16053Y12446D01*
X16075Y12462D01*
X16091Y12484D01*
X16101Y12508D01*
X16105Y12535D01*
X16101Y12561D01*
X16091Y12586D01*
X16075Y12608D01*
X16053Y12624D01*
X16029Y12634D01*
X16002Y12638D01*
D02*
G37*
G36*
X20050Y12470D02*
X20010D01*
Y12431D01*
X20012Y12431D01*
X20033Y12448D01*
X20049Y12469D01*
X20050Y12470D01*
D02*
G37*
G36*
X19910D02*
X19871D01*
X19871Y12469D01*
X19888Y12448D01*
X19909Y12431D01*
X19910Y12431D01*
Y12470D01*
D02*
G37*
G36*
X20281Y12623D02*
X20255Y12619D01*
X20230Y12609D01*
X20209Y12593D01*
X20192Y12572D01*
X20182Y12547D01*
X20179Y12520D01*
X20182Y12494D01*
X20192Y12469D01*
X20209Y12448D01*
X20230Y12431D01*
X20255Y12421D01*
X20281Y12418D01*
X20308Y12421D01*
X20333Y12431D01*
X20354Y12448D01*
X20370Y12469D01*
X20380Y12494D01*
X20384Y12520D01*
X20380Y12547D01*
X20370Y12572D01*
X20354Y12593D01*
X20333Y12609D01*
X20308Y12619D01*
X20281Y12623D01*
D02*
G37*
G36*
X21640Y12370D02*
Y12331D01*
X21679D01*
X21679Y12332D01*
X21663Y12354D01*
X21641Y12370D01*
X21640Y12370D01*
D02*
G37*
G36*
X16052D02*
Y12331D01*
X16091D01*
X16091Y12332D01*
X16075Y12354D01*
X16053Y12370D01*
X16052Y12370D01*
D02*
G37*
G36*
X21540D02*
X21539Y12370D01*
X21517Y12354D01*
X21501Y12332D01*
X21501Y12331D01*
X21540D01*
Y12370D01*
D02*
G37*
G36*
X15952D02*
X15951Y12370D01*
X15929Y12354D01*
X15913Y12332D01*
X15913Y12331D01*
X15952D01*
Y12370D01*
D02*
G37*
G36*
X21679Y12231D02*
X21640D01*
Y12191D01*
X21641Y12192D01*
X21663Y12208D01*
X21679Y12230D01*
X21679Y12231D01*
D02*
G37*
G36*
X16091D02*
X16052D01*
Y12191D01*
X16053Y12192D01*
X16075Y12208D01*
X16091Y12230D01*
X16091Y12231D01*
D02*
G37*
G36*
X21540D02*
X21501D01*
X21501Y12230D01*
X21517Y12208D01*
X21539Y12192D01*
X21540Y12191D01*
Y12231D01*
D02*
G37*
G36*
X15952D02*
X15913D01*
X15913Y12230D01*
X15929Y12208D01*
X15951Y12192D01*
X15952Y12191D01*
Y12231D01*
D02*
G37*
G36*
X21082Y12384D02*
X21055Y12380D01*
X21031Y12370D01*
X21009Y12354D01*
X20993Y12332D01*
X20983Y12307D01*
X20979Y12281D01*
X20983Y12254D01*
X20993Y12230D01*
X21009Y12208D01*
X21031Y12192D01*
X21055Y12182D01*
X21082Y12178D01*
X21109Y12182D01*
X21133Y12192D01*
X21155Y12208D01*
X21171Y12230D01*
X21181Y12254D01*
X21185Y12281D01*
X21181Y12307D01*
X21171Y12332D01*
X21155Y12354D01*
X21133Y12370D01*
X21109Y12380D01*
X21082Y12384D01*
D02*
G37*
G36*
X11938D02*
X11911Y12380D01*
X11887Y12370D01*
X11865Y12354D01*
X11849Y12332D01*
X11839Y12307D01*
X11835Y12281D01*
X11839Y12254D01*
X11849Y12230D01*
X11865Y12208D01*
X11887Y12192D01*
X11911Y12182D01*
X11938Y12178D01*
X11965Y12182D01*
X11989Y12192D01*
X12011Y12208D01*
X12027Y12230D01*
X12037Y12254D01*
X12041Y12281D01*
X12037Y12307D01*
X12027Y12332D01*
X12011Y12354D01*
X11989Y12370D01*
X11965Y12380D01*
X11938Y12384D01*
D02*
G37*
G36*
X20281Y12373D02*
X20255Y12369D01*
X20230Y12359D01*
X20209Y12343D01*
X20192Y12322D01*
X20182Y12297D01*
X20179Y12270D01*
X20182Y12244D01*
X20192Y12219D01*
X20209Y12198D01*
X20230Y12181D01*
X20255Y12171D01*
X20281Y12168D01*
X20308Y12171D01*
X20333Y12181D01*
X20354Y12198D01*
X20370Y12219D01*
X20380Y12244D01*
X20384Y12270D01*
X20380Y12297D01*
X20370Y12322D01*
X20354Y12343D01*
X20333Y12359D01*
X20308Y12369D01*
X20281Y12373D01*
D02*
G37*
G36*
X19960D02*
X19934Y12369D01*
X19909Y12359D01*
X19888Y12343D01*
X19871Y12322D01*
X19861Y12297D01*
X19858Y12270D01*
X19861Y12244D01*
X19871Y12219D01*
X19888Y12198D01*
X19909Y12181D01*
X19934Y12171D01*
X19960Y12168D01*
X19987Y12171D01*
X20012Y12181D01*
X20033Y12198D01*
X20049Y12219D01*
X20059Y12244D01*
X20063Y12270D01*
X20059Y12297D01*
X20049Y12322D01*
X20033Y12343D01*
X20012Y12359D01*
X19987Y12369D01*
X19960Y12373D01*
D02*
G37*
G36*
X21640Y12116D02*
Y12077D01*
X21679D01*
X21679Y12078D01*
X21663Y12100D01*
X21641Y12116D01*
X21640Y12116D01*
D02*
G37*
G36*
X21132D02*
Y12077D01*
X21171D01*
X21171Y12078D01*
X21155Y12100D01*
X21133Y12116D01*
X21132Y12116D01*
D02*
G37*
G36*
X11988D02*
Y12077D01*
X12027D01*
X12027Y12078D01*
X12011Y12100D01*
X11989Y12116D01*
X11988Y12116D01*
D02*
G37*
G36*
X21540D02*
X21539Y12116D01*
X21517Y12100D01*
X21501Y12078D01*
X21501Y12077D01*
X21540D01*
Y12116D01*
D02*
G37*
G36*
X21032D02*
X21031Y12116D01*
X21009Y12100D01*
X20993Y12078D01*
X20993Y12077D01*
X21032D01*
Y12116D01*
D02*
G37*
G36*
X11888D02*
X11887Y12116D01*
X11865Y12100D01*
X11849Y12078D01*
X11849Y12077D01*
X11888D01*
Y12116D01*
D02*
G37*
G36*
X16992Y12018D02*
Y11988D01*
X17022D01*
X17009Y12005D01*
X16992Y12018D01*
D02*
G37*
G36*
X12928D02*
Y11988D01*
X12958D01*
X12945Y12005D01*
X12928Y12018D01*
D02*
G37*
G36*
X16892D02*
X16875Y12005D01*
X16861Y11988D01*
X16892D01*
Y12018D01*
D02*
G37*
G36*
X12828D02*
X12811Y12005D01*
X12797Y11988D01*
X12828D01*
Y12018D01*
D02*
G37*
G36*
X12027Y11977D02*
X11988D01*
Y11937D01*
X11989Y11938D01*
X12011Y11954D01*
X12027Y11976D01*
X12027Y11977D01*
D02*
G37*
G36*
X21679D02*
X21640D01*
Y11937D01*
X21641Y11938D01*
X21663Y11954D01*
X21679Y11976D01*
X21679Y11977D01*
D02*
G37*
G36*
X21171D02*
X21132D01*
Y11937D01*
X21133Y11938D01*
X21155Y11954D01*
X21171Y11976D01*
X21171Y11977D01*
D02*
G37*
G36*
X21540D02*
X21501D01*
X21501Y11976D01*
X21517Y11954D01*
X21539Y11938D01*
X21540Y11937D01*
Y11977D01*
D02*
G37*
G36*
X21032D02*
X20993D01*
X20993Y11976D01*
X21009Y11954D01*
X21031Y11938D01*
X21032Y11937D01*
Y11977D01*
D02*
G37*
G36*
X11888D02*
X11849D01*
X11849Y11976D01*
X11865Y11954D01*
X11887Y11938D01*
X11888Y11937D01*
Y11977D01*
D02*
G37*
G36*
X16002Y12130D02*
X15975Y12126D01*
X15951Y12116D01*
X15929Y12100D01*
X15913Y12078D01*
X15903Y12053D01*
X15899Y12027D01*
X15903Y12000D01*
X15913Y11976D01*
X15929Y11954D01*
X15951Y11938D01*
X15975Y11928D01*
X16002Y11924D01*
X16029Y11928D01*
X16053Y11938D01*
X16075Y11954D01*
X16091Y11976D01*
X16101Y12000D01*
X16105Y12027D01*
X16101Y12053D01*
X16091Y12078D01*
X16075Y12100D01*
X16053Y12116D01*
X16029Y12126D01*
X16002Y12130D01*
D02*
G37*
G36*
X17022Y11888D02*
X16992D01*
Y11858D01*
X17009Y11871D01*
X17022Y11888D01*
D02*
G37*
G36*
X12958D02*
X12928D01*
Y11858D01*
X12945Y11871D01*
X12958Y11888D01*
D02*
G37*
G36*
X16892D02*
X16861D01*
X16875Y11871D01*
X16892Y11858D01*
Y11888D01*
D02*
G37*
G36*
X12828D02*
X12797D01*
X12811Y11871D01*
X12828Y11858D01*
Y11888D01*
D02*
G37*
G36*
X21640Y11862D02*
Y11823D01*
X21679D01*
X21679Y11824D01*
X21663Y11846D01*
X21641Y11862D01*
X21640Y11862D01*
D02*
G37*
G36*
X21132D02*
Y11823D01*
X21171D01*
X21171Y11824D01*
X21155Y11846D01*
X21133Y11862D01*
X21132Y11862D01*
D02*
G37*
G36*
X16052D02*
Y11823D01*
X16091D01*
X16091Y11824D01*
X16075Y11846D01*
X16053Y11862D01*
X16052Y11862D01*
D02*
G37*
G36*
X21540D02*
X21539Y11862D01*
X21517Y11846D01*
X21501Y11824D01*
X21501Y11823D01*
X21540D01*
Y11862D01*
D02*
G37*
G36*
X21032D02*
X21031Y11862D01*
X21009Y11846D01*
X20993Y11824D01*
X20993Y11823D01*
X21032D01*
Y11862D01*
D02*
G37*
G36*
X15952D02*
X15951Y11862D01*
X15929Y11846D01*
X15913Y11824D01*
X15913Y11823D01*
X15952D01*
Y11862D01*
D02*
G37*
G36*
X16091Y11723D02*
X16052D01*
Y11683D01*
X16053Y11684D01*
X16075Y11700D01*
X16091Y11722D01*
X16091Y11723D01*
D02*
G37*
G36*
X21679D02*
X21640D01*
Y11683D01*
X21641Y11684D01*
X21663Y11700D01*
X21679Y11722D01*
X21679Y11723D01*
D02*
G37*
G36*
X21171D02*
X21132D01*
Y11683D01*
X21133Y11684D01*
X21155Y11700D01*
X21171Y11722D01*
X21171Y11723D01*
D02*
G37*
G36*
X15952D02*
X15913D01*
X15913Y11722D01*
X15929Y11700D01*
X15951Y11684D01*
X15952Y11683D01*
Y11723D01*
D02*
G37*
G36*
X21540D02*
X21501D01*
X21501Y11722D01*
X21517Y11700D01*
X21539Y11684D01*
X21540Y11683D01*
Y11723D01*
D02*
G37*
G36*
X21032D02*
X20993D01*
X20993Y11722D01*
X21009Y11700D01*
X21031Y11684D01*
X21032Y11683D01*
Y11723D01*
D02*
G37*
G36*
X11938Y11876D02*
X11911Y11872D01*
X11887Y11862D01*
X11865Y11846D01*
X11849Y11824D01*
X11839Y11799D01*
X11835Y11773D01*
X11839Y11746D01*
X11849Y11722D01*
X11865Y11700D01*
X11887Y11684D01*
X11911Y11674D01*
X11938Y11670D01*
X11965Y11674D01*
X11989Y11684D01*
X12011Y11700D01*
X12027Y11722D01*
X12037Y11746D01*
X12041Y11773D01*
X12037Y11799D01*
X12027Y11824D01*
X12011Y11846D01*
X11989Y11862D01*
X11965Y11872D01*
X11938Y11876D01*
D02*
G37*
G36*
X20011Y11935D02*
X19974Y11930D01*
X19940Y11916D01*
X19910Y11893D01*
X19888Y11864D01*
X19874Y11830D01*
X19869Y11793D01*
X19874Y11756D01*
X19888Y11722D01*
X19910Y11693D01*
X19940Y11670D01*
X19974Y11656D01*
X20011Y11651D01*
X20047Y11656D01*
X20082Y11670D01*
X20111Y11693D01*
X20134Y11722D01*
X20148Y11756D01*
X20153Y11793D01*
X20148Y11830D01*
X20134Y11864D01*
X20111Y11893D01*
X20082Y11916D01*
X20047Y11930D01*
X20011Y11935D01*
D02*
G37*
G36*
X17831Y12000D02*
X17794Y11996D01*
X17758Y11986D01*
X17726Y11968D01*
X17697Y11945D01*
X17674Y11916D01*
X17656Y11883D01*
X17645Y11848D01*
X17642Y11811D01*
X17645Y11774D01*
X17656Y11739D01*
X17674Y11706D01*
X17697Y11677D01*
X17726Y11654D01*
X17758Y11636D01*
X17794Y11626D01*
X17831Y11622D01*
X17868Y11626D01*
X17903Y11636D01*
X17936Y11654D01*
X17964Y11677D01*
X17988Y11706D01*
X18005Y11739D01*
X18016Y11774D01*
X18020Y11811D01*
X18016Y11848D01*
X18005Y11883D01*
X17988Y11916D01*
X17964Y11945D01*
X17936Y11968D01*
X17903Y11986D01*
X17868Y11996D01*
X17831Y12000D01*
D02*
G37*
G36*
X13767D02*
X13730Y11996D01*
X13694Y11986D01*
X13662Y11968D01*
X13633Y11945D01*
X13610Y11916D01*
X13592Y11883D01*
X13581Y11848D01*
X13578Y11811D01*
X13581Y11774D01*
X13592Y11739D01*
X13610Y11706D01*
X13633Y11677D01*
X13662Y11654D01*
X13694Y11636D01*
X13730Y11626D01*
X13767Y11622D01*
X13804Y11626D01*
X13839Y11636D01*
X13872Y11654D01*
X13900Y11677D01*
X13924Y11706D01*
X13941Y11739D01*
X13952Y11774D01*
X13956Y11811D01*
X13952Y11848D01*
X13941Y11883D01*
X13924Y11916D01*
X13900Y11945D01*
X13872Y11968D01*
X13839Y11986D01*
X13804Y11996D01*
X13767Y12000D01*
D02*
G37*
G36*
X16052Y11608D02*
Y11569D01*
X16091D01*
X16091Y11570D01*
X16075Y11592D01*
X16053Y11608D01*
X16052Y11608D01*
D02*
G37*
G36*
X11988D02*
Y11569D01*
X12027D01*
X12027Y11570D01*
X12011Y11592D01*
X11989Y11608D01*
X11988Y11608D01*
D02*
G37*
G36*
X21640D02*
Y11569D01*
X21679D01*
X21679Y11570D01*
X21663Y11592D01*
X21641Y11608D01*
X21640Y11608D01*
D02*
G37*
G36*
X21132D02*
Y11569D01*
X21171D01*
X21171Y11570D01*
X21155Y11592D01*
X21133Y11608D01*
X21132Y11608D01*
D02*
G37*
G36*
X15952D02*
X15951Y11608D01*
X15929Y11592D01*
X15913Y11570D01*
X15913Y11569D01*
X15952D01*
Y11608D01*
D02*
G37*
G36*
X11888D02*
X11887Y11608D01*
X11865Y11592D01*
X11849Y11570D01*
X11849Y11569D01*
X11888D01*
Y11608D01*
D02*
G37*
G36*
X21540D02*
X21539Y11608D01*
X21517Y11592D01*
X21501Y11570D01*
X21501Y11569D01*
X21540D01*
Y11608D01*
D02*
G37*
G36*
X21032D02*
X21031Y11608D01*
X21009Y11592D01*
X20993Y11570D01*
X20993Y11569D01*
X21032D01*
Y11608D01*
D02*
G37*
G36*
X21679Y11469D02*
X21640D01*
Y11429D01*
X21641Y11430D01*
X21663Y11446D01*
X21679Y11468D01*
X21679Y11469D01*
D02*
G37*
G36*
X21171D02*
X21132D01*
Y11429D01*
X21133Y11430D01*
X21155Y11446D01*
X21171Y11468D01*
X21171Y11469D01*
D02*
G37*
G36*
X16091D02*
X16052D01*
Y11429D01*
X16053Y11430D01*
X16075Y11446D01*
X16091Y11468D01*
X16091Y11469D01*
D02*
G37*
G36*
X12027D02*
X11988D01*
Y11429D01*
X11989Y11430D01*
X12011Y11446D01*
X12027Y11468D01*
X12027Y11469D01*
D02*
G37*
G36*
X21540D02*
X21501D01*
X21501Y11468D01*
X21517Y11446D01*
X21539Y11430D01*
X21540Y11429D01*
Y11469D01*
D02*
G37*
G36*
X21032D02*
X20993D01*
X20993Y11468D01*
X21009Y11446D01*
X21031Y11430D01*
X21032Y11429D01*
Y11469D01*
D02*
G37*
G36*
X15952D02*
X15913D01*
X15913Y11468D01*
X15929Y11446D01*
X15951Y11430D01*
X15952Y11429D01*
Y11469D01*
D02*
G37*
G36*
X11888D02*
X11849D01*
X11849Y11468D01*
X11865Y11446D01*
X11887Y11430D01*
X11888Y11429D01*
Y11469D01*
D02*
G37*
G36*
X16510Y11622D02*
X16483Y11618D01*
X16459Y11608D01*
X16437Y11592D01*
X16421Y11570D01*
X16411Y11545D01*
X16407Y11519D01*
X16411Y11492D01*
X16421Y11468D01*
X16437Y11446D01*
X16459Y11430D01*
X16483Y11420D01*
X16510Y11416D01*
X16537Y11420D01*
X16561Y11430D01*
X16583Y11446D01*
X16599Y11468D01*
X16609Y11492D01*
X16613Y11519D01*
X16609Y11545D01*
X16599Y11570D01*
X16583Y11592D01*
X16561Y11608D01*
X16537Y11618D01*
X16510Y11622D01*
D02*
G37*
G36*
X12446D02*
X12419Y11618D01*
X12395Y11608D01*
X12373Y11592D01*
X12357Y11570D01*
X12347Y11545D01*
X12343Y11519D01*
X12347Y11492D01*
X12357Y11468D01*
X12373Y11446D01*
X12395Y11430D01*
X12419Y11420D01*
X12446Y11416D01*
X12473Y11420D01*
X12497Y11430D01*
X12519Y11446D01*
X12535Y11468D01*
X12545Y11492D01*
X12549Y11519D01*
X12545Y11545D01*
X12535Y11570D01*
X12519Y11592D01*
X12497Y11608D01*
X12473Y11618D01*
X12446Y11622D01*
D02*
G37*
G36*
X21640Y11354D02*
Y11315D01*
X21679D01*
X21679Y11316D01*
X21663Y11338D01*
X21641Y11354D01*
X21640Y11354D01*
D02*
G37*
G36*
X21132D02*
Y11315D01*
X21171D01*
X21171Y11316D01*
X21155Y11338D01*
X21133Y11354D01*
X21132Y11354D01*
D02*
G37*
G36*
X16052D02*
Y11315D01*
X16091D01*
X16091Y11316D01*
X16075Y11338D01*
X16053Y11354D01*
X16052Y11354D01*
D02*
G37*
G36*
X11988D02*
Y11315D01*
X12027D01*
X12027Y11316D01*
X12011Y11338D01*
X11989Y11354D01*
X11988Y11354D01*
D02*
G37*
G36*
X21540D02*
X21539Y11354D01*
X21517Y11338D01*
X21501Y11316D01*
X21501Y11315D01*
X21540D01*
Y11354D01*
D02*
G37*
G36*
X21032D02*
X21031Y11354D01*
X21009Y11338D01*
X20993Y11316D01*
X20993Y11315D01*
X21032D01*
Y11354D01*
D02*
G37*
G36*
X15952D02*
X15951Y11354D01*
X15929Y11338D01*
X15913Y11316D01*
X15913Y11315D01*
X15952D01*
Y11354D01*
D02*
G37*
G36*
X11888D02*
X11887Y11354D01*
X11865Y11338D01*
X11849Y11316D01*
X11849Y11315D01*
X11888D01*
Y11354D01*
D02*
G37*
G36*
X21679Y11215D02*
X21640D01*
Y11175D01*
X21641Y11176D01*
X21663Y11192D01*
X21679Y11214D01*
X21679Y11215D01*
D02*
G37*
G36*
X21171D02*
X21132D01*
Y11175D01*
X21133Y11176D01*
X21155Y11192D01*
X21171Y11214D01*
X21171Y11215D01*
D02*
G37*
G36*
X16091D02*
X16052D01*
Y11175D01*
X16053Y11176D01*
X16075Y11192D01*
X16091Y11214D01*
X16091Y11215D01*
D02*
G37*
G36*
X12027D02*
X11988D01*
Y11175D01*
X11989Y11176D01*
X12011Y11192D01*
X12027Y11214D01*
X12027Y11215D01*
D02*
G37*
G36*
X21540D02*
X21501D01*
X21501Y11214D01*
X21517Y11192D01*
X21539Y11176D01*
X21540Y11175D01*
Y11215D01*
D02*
G37*
G36*
X21032D02*
X20993D01*
X20993Y11214D01*
X21009Y11192D01*
X21031Y11176D01*
X21032Y11175D01*
Y11215D01*
D02*
G37*
G36*
X15952D02*
X15913D01*
X15913Y11214D01*
X15929Y11192D01*
X15951Y11176D01*
X15952Y11175D01*
Y11215D01*
D02*
G37*
G36*
X11888D02*
X11849D01*
X11849Y11214D01*
X11865Y11192D01*
X11887Y11176D01*
X11888Y11175D01*
Y11215D01*
D02*
G37*
G36*
X16510Y11368D02*
X16483Y11364D01*
X16459Y11354D01*
X16437Y11338D01*
X16421Y11316D01*
X16411Y11291D01*
X16407Y11265D01*
X16411Y11238D01*
X16421Y11214D01*
X16437Y11192D01*
X16459Y11176D01*
X16483Y11166D01*
X16510Y11162D01*
X16537Y11166D01*
X16561Y11176D01*
X16583Y11192D01*
X16599Y11214D01*
X16609Y11238D01*
X16613Y11265D01*
X16609Y11291D01*
X16599Y11316D01*
X16583Y11338D01*
X16561Y11354D01*
X16537Y11364D01*
X16510Y11368D01*
D02*
G37*
G36*
X12446D02*
X12419Y11364D01*
X12395Y11354D01*
X12373Y11338D01*
X12357Y11316D01*
X12347Y11291D01*
X12343Y11265D01*
X12347Y11238D01*
X12357Y11214D01*
X12373Y11192D01*
X12395Y11176D01*
X12419Y11166D01*
X12446Y11162D01*
X12473Y11166D01*
X12497Y11176D01*
X12519Y11192D01*
X12535Y11214D01*
X12545Y11238D01*
X12549Y11265D01*
X12545Y11291D01*
X12535Y11316D01*
X12519Y11338D01*
X12497Y11354D01*
X12473Y11364D01*
X12446Y11368D01*
D02*
G37*
G36*
X21640Y11100D02*
Y11061D01*
X21679D01*
X21679Y11062D01*
X21663Y11084D01*
X21641Y11100D01*
X21640Y11100D01*
D02*
G37*
G36*
X21132D02*
Y11061D01*
X21171D01*
X21171Y11062D01*
X21155Y11084D01*
X21133Y11100D01*
X21132Y11100D01*
D02*
G37*
G36*
X16052D02*
Y11061D01*
X16091D01*
X16091Y11062D01*
X16075Y11084D01*
X16053Y11100D01*
X16052Y11100D01*
D02*
G37*
G36*
X11988D02*
Y11061D01*
X12027D01*
X12027Y11062D01*
X12011Y11084D01*
X11989Y11100D01*
X11988Y11100D01*
D02*
G37*
G36*
X21540D02*
X21539Y11100D01*
X21517Y11084D01*
X21501Y11062D01*
X21501Y11061D01*
X21540D01*
Y11100D01*
D02*
G37*
G36*
X21032D02*
X21031Y11100D01*
X21009Y11084D01*
X20993Y11062D01*
X20993Y11061D01*
X21032D01*
Y11100D01*
D02*
G37*
G36*
X15952D02*
X15951Y11100D01*
X15929Y11084D01*
X15913Y11062D01*
X15913Y11061D01*
X15952D01*
Y11100D01*
D02*
G37*
G36*
X11888D02*
X11887Y11100D01*
X11865Y11084D01*
X11849Y11062D01*
X11849Y11061D01*
X11888D01*
Y11100D01*
D02*
G37*
G36*
X21679Y10961D02*
X21640D01*
Y10921D01*
X21641Y10922D01*
X21663Y10938D01*
X21679Y10960D01*
X21679Y10961D01*
D02*
G37*
G36*
X21171D02*
X21132D01*
Y10921D01*
X21133Y10922D01*
X21155Y10938D01*
X21171Y10960D01*
X21171Y10961D01*
D02*
G37*
G36*
X16091D02*
X16052D01*
Y10921D01*
X16053Y10922D01*
X16075Y10938D01*
X16091Y10960D01*
X16091Y10961D01*
D02*
G37*
G36*
X12027D02*
X11988D01*
Y10921D01*
X11989Y10922D01*
X12011Y10938D01*
X12027Y10960D01*
X12027Y10961D01*
D02*
G37*
G36*
X21540D02*
X21501D01*
X21501Y10960D01*
X21517Y10938D01*
X21539Y10922D01*
X21540Y10921D01*
Y10961D01*
D02*
G37*
G36*
X21032D02*
X20993D01*
X20993Y10960D01*
X21009Y10938D01*
X21031Y10922D01*
X21032Y10921D01*
Y10961D01*
D02*
G37*
G36*
X15952D02*
X15913D01*
X15913Y10960D01*
X15929Y10938D01*
X15951Y10922D01*
X15952Y10921D01*
Y10961D01*
D02*
G37*
G36*
X11888D02*
X11849D01*
X11849Y10960D01*
X11865Y10938D01*
X11887Y10922D01*
X11888Y10921D01*
Y10961D01*
D02*
G37*
G36*
X17831Y11289D02*
X17794Y11285D01*
X17758Y11274D01*
X17726Y11257D01*
X17697Y11233D01*
X17674Y11205D01*
X17656Y11172D01*
X17645Y11137D01*
X17642Y11100D01*
X17645Y11063D01*
X17656Y11027D01*
X17674Y10995D01*
X17697Y10966D01*
X17726Y10943D01*
X17758Y10925D01*
X17794Y10914D01*
X17831Y10911D01*
X17868Y10914D01*
X17903Y10925D01*
X17936Y10943D01*
X17964Y10966D01*
X17988Y10995D01*
X18005Y11027D01*
X18016Y11063D01*
X18020Y11100D01*
X18016Y11137D01*
X18005Y11172D01*
X17988Y11205D01*
X17964Y11233D01*
X17936Y11257D01*
X17903Y11274D01*
X17868Y11285D01*
X17831Y11289D01*
D02*
G37*
G36*
X13767D02*
X13730Y11285D01*
X13694Y11274D01*
X13662Y11257D01*
X13633Y11233D01*
X13610Y11205D01*
X13592Y11172D01*
X13581Y11137D01*
X13578Y11100D01*
X13581Y11063D01*
X13592Y11027D01*
X13610Y10995D01*
X13633Y10966D01*
X13662Y10943D01*
X13694Y10925D01*
X13730Y10914D01*
X13767Y10911D01*
X13804Y10914D01*
X13839Y10925D01*
X13872Y10943D01*
X13900Y10966D01*
X13924Y10995D01*
X13941Y11027D01*
X13952Y11063D01*
X13956Y11100D01*
X13952Y11137D01*
X13941Y11172D01*
X13924Y11205D01*
X13900Y11233D01*
X13872Y11257D01*
X13839Y11274D01*
X13804Y11285D01*
X13767Y11289D01*
D02*
G37*
G36*
X16510Y11114D02*
X16483Y11110D01*
X16459Y11100D01*
X16437Y11084D01*
X16421Y11062D01*
X16411Y11037D01*
X16407Y11011D01*
X16411Y10984D01*
X16421Y10960D01*
X16437Y10938D01*
X16459Y10922D01*
X16483Y10912D01*
X16510Y10908D01*
X16537Y10912D01*
X16561Y10922D01*
X16573Y10931D01*
X16877D01*
X16882Y10918D01*
X16875Y10913D01*
X16860Y10893D01*
X16857Y10887D01*
X16599D01*
X16583Y10884D01*
X16569Y10875D01*
X16546Y10852D01*
X16537Y10856D01*
X16510Y10860D01*
X16483Y10856D01*
X16459Y10846D01*
X16437Y10830D01*
X16421Y10808D01*
X16411Y10783D01*
X16407Y10757D01*
X16411Y10730D01*
X16421Y10706D01*
X16437Y10684D01*
X16459Y10668D01*
X16483Y10658D01*
X16510Y10654D01*
X16537Y10658D01*
X16561Y10668D01*
X16583Y10684D01*
X16599Y10706D01*
X16609Y10730D01*
X16613Y10757D01*
X16609Y10783D01*
X16605Y10793D01*
X16616Y10804D01*
X16857D01*
X16860Y10798D01*
X16875Y10779D01*
X16894Y10764D01*
X16917Y10754D01*
X16942Y10751D01*
X16966Y10754D01*
X16989Y10764D01*
X17009Y10779D01*
X17024Y10798D01*
X17034Y10821D01*
X17037Y10846D01*
X17034Y10870D01*
X17024Y10893D01*
X17009Y10913D01*
X17002Y10918D01*
X17006Y10931D01*
X17102D01*
Y10879D01*
X17290D01*
Y11067D01*
X17102D01*
Y11014D01*
X16612D01*
X16609Y11037D01*
X16599Y11062D01*
X16583Y11084D01*
X16561Y11100D01*
X16537Y11110D01*
X16510Y11114D01*
D02*
G37*
G36*
X12446D02*
X12419Y11110D01*
X12395Y11100D01*
X12373Y11084D01*
X12357Y11062D01*
X12347Y11037D01*
X12343Y11011D01*
X12347Y10984D01*
X12357Y10960D01*
X12373Y10938D01*
X12395Y10922D01*
X12419Y10912D01*
X12446Y10908D01*
X12473Y10912D01*
X12497Y10922D01*
X12509Y10931D01*
X12813D01*
X12818Y10918D01*
X12811Y10913D01*
X12796Y10893D01*
X12793Y10887D01*
X12535D01*
X12519Y10884D01*
X12505Y10875D01*
X12482Y10852D01*
X12473Y10856D01*
X12446Y10860D01*
X12419Y10856D01*
X12395Y10846D01*
X12373Y10830D01*
X12357Y10808D01*
X12347Y10783D01*
X12343Y10757D01*
X12347Y10730D01*
X12357Y10706D01*
X12373Y10684D01*
X12395Y10668D01*
X12419Y10658D01*
X12446Y10654D01*
X12473Y10658D01*
X12497Y10668D01*
X12519Y10684D01*
X12535Y10706D01*
X12545Y10730D01*
X12549Y10757D01*
X12545Y10783D01*
X12541Y10793D01*
X12552Y10804D01*
X12793D01*
X12796Y10798D01*
X12811Y10779D01*
X12830Y10764D01*
X12853Y10754D01*
X12878Y10751D01*
X12902Y10754D01*
X12925Y10764D01*
X12945Y10779D01*
X12960Y10798D01*
X12970Y10821D01*
X12973Y10846D01*
X12970Y10870D01*
X12960Y10893D01*
X12945Y10913D01*
X12938Y10918D01*
X12942Y10931D01*
X13038D01*
Y10879D01*
X13226D01*
Y11067D01*
X13038D01*
Y11014D01*
X12548D01*
X12545Y11037D01*
X12535Y11062D01*
X12519Y11084D01*
X12497Y11100D01*
X12473Y11110D01*
X12446Y11114D01*
D02*
G37*
G36*
X21640Y10846D02*
Y10807D01*
X21679D01*
X21679Y10808D01*
X21663Y10830D01*
X21641Y10846D01*
X21640Y10846D01*
D02*
G37*
G36*
X21132D02*
Y10807D01*
X21171D01*
X21171Y10808D01*
X21155Y10830D01*
X21133Y10846D01*
X21132Y10846D01*
D02*
G37*
G36*
X16052D02*
Y10807D01*
X16091D01*
X16091Y10808D01*
X16075Y10830D01*
X16053Y10846D01*
X16052Y10846D01*
D02*
G37*
G36*
X11988D02*
Y10807D01*
X12027D01*
X12027Y10808D01*
X12011Y10830D01*
X11989Y10846D01*
X11988Y10846D01*
D02*
G37*
G36*
X21540D02*
X21539Y10846D01*
X21517Y10830D01*
X21501Y10808D01*
X21501Y10807D01*
X21540D01*
Y10846D01*
D02*
G37*
G36*
X21032D02*
X21031Y10846D01*
X21009Y10830D01*
X20993Y10808D01*
X20993Y10807D01*
X21032D01*
Y10846D01*
D02*
G37*
G36*
X15952D02*
X15951Y10846D01*
X15929Y10830D01*
X15913Y10808D01*
X15913Y10807D01*
X15952D01*
Y10846D01*
D02*
G37*
G36*
X11888D02*
X11887Y10846D01*
X11865Y10830D01*
X11849Y10808D01*
X11849Y10807D01*
X11888D01*
Y10846D01*
D02*
G37*
G36*
X16091Y10707D02*
X16052D01*
Y10667D01*
X16053Y10668D01*
X16075Y10684D01*
X16091Y10706D01*
X16091Y10707D01*
D02*
G37*
G36*
X12027D02*
X11988D01*
Y10667D01*
X11989Y10668D01*
X12011Y10684D01*
X12027Y10706D01*
X12027Y10707D01*
D02*
G37*
G36*
X21679D02*
X21640D01*
Y10667D01*
X21641Y10668D01*
X21663Y10684D01*
X21679Y10706D01*
X21679Y10707D01*
D02*
G37*
G36*
X21171D02*
X21132D01*
Y10667D01*
X21133Y10668D01*
X21155Y10684D01*
X21171Y10706D01*
X21171Y10707D01*
D02*
G37*
G36*
X15952D02*
X15913D01*
X15913Y10706D01*
X15929Y10684D01*
X15951Y10668D01*
X15952Y10667D01*
Y10707D01*
D02*
G37*
G36*
X11888D02*
X11849D01*
X11849Y10706D01*
X11865Y10684D01*
X11887Y10668D01*
X11888Y10667D01*
Y10707D01*
D02*
G37*
G36*
X21540D02*
X21501D01*
X21501Y10706D01*
X21517Y10684D01*
X21539Y10668D01*
X21540Y10667D01*
Y10707D01*
D02*
G37*
G36*
X21032D02*
X20993D01*
X20993Y10706D01*
X21009Y10684D01*
X21031Y10668D01*
X21032Y10667D01*
Y10707D01*
D02*
G37*
G36*
X17196Y10814D02*
X17171Y10811D01*
X17148Y10801D01*
X17129Y10786D01*
X17114Y10766D01*
X17104Y10743D01*
X17101Y10719D01*
X17104Y10694D01*
X17114Y10671D01*
X17129Y10652D01*
X17148Y10637D01*
X17171Y10627D01*
X17196Y10624D01*
X17220Y10627D01*
X17243Y10637D01*
X17263Y10652D01*
X17278Y10671D01*
X17288Y10694D01*
X17291Y10719D01*
X17288Y10743D01*
X17278Y10766D01*
X17263Y10786D01*
X17243Y10801D01*
X17220Y10811D01*
X17196Y10814D01*
D02*
G37*
G36*
X13132D02*
X13107Y10811D01*
X13084Y10801D01*
X13065Y10786D01*
X13050Y10766D01*
X13040Y10743D01*
X13037Y10719D01*
X13040Y10694D01*
X13050Y10671D01*
X13065Y10652D01*
X13084Y10637D01*
X13107Y10627D01*
X13132Y10624D01*
X13156Y10627D01*
X13179Y10637D01*
X13199Y10652D01*
X13214Y10671D01*
X13224Y10694D01*
X13227Y10719D01*
X13224Y10743D01*
X13214Y10766D01*
X13199Y10786D01*
X13179Y10801D01*
X13156Y10811D01*
X13132Y10814D01*
D02*
G37*
G36*
X21640Y10592D02*
Y10553D01*
X21679D01*
X21679Y10554D01*
X21663Y10576D01*
X21641Y10592D01*
X21640Y10592D01*
D02*
G37*
G36*
X21132D02*
Y10553D01*
X21171D01*
X21171Y10554D01*
X21155Y10576D01*
X21133Y10592D01*
X21132Y10592D01*
D02*
G37*
G36*
X16560D02*
Y10553D01*
X16599D01*
X16599Y10554D01*
X16583Y10576D01*
X16561Y10592D01*
X16560Y10592D01*
D02*
G37*
G36*
X16052D02*
Y10553D01*
X16091D01*
X16091Y10554D01*
X16075Y10576D01*
X16053Y10592D01*
X16052Y10592D01*
D02*
G37*
G36*
X12496D02*
Y10553D01*
X12535D01*
X12535Y10554D01*
X12519Y10576D01*
X12497Y10592D01*
X12496Y10592D01*
D02*
G37*
G36*
X11988D02*
Y10553D01*
X12027D01*
X12027Y10554D01*
X12011Y10576D01*
X11989Y10592D01*
X11988Y10592D01*
D02*
G37*
G36*
X21540D02*
X21539Y10592D01*
X21517Y10576D01*
X21501Y10554D01*
X21501Y10553D01*
X21540D01*
Y10592D01*
D02*
G37*
G36*
X21032D02*
X21031Y10592D01*
X21009Y10576D01*
X20993Y10554D01*
X20993Y10553D01*
X21032D01*
Y10592D01*
D02*
G37*
G36*
X16460D02*
X16459Y10592D01*
X16437Y10576D01*
X16421Y10554D01*
X16421Y10553D01*
X16460D01*
Y10592D01*
D02*
G37*
G36*
X15952D02*
X15951Y10592D01*
X15929Y10576D01*
X15913Y10554D01*
X15913Y10553D01*
X15952D01*
Y10592D01*
D02*
G37*
G36*
X12396D02*
X12395Y10592D01*
X12373Y10576D01*
X12357Y10554D01*
X12357Y10553D01*
X12396D01*
Y10592D01*
D02*
G37*
G36*
X11888D02*
X11887Y10592D01*
X11865Y10576D01*
X11849Y10554D01*
X11849Y10553D01*
X11888D01*
Y10592D01*
D02*
G37*
G36*
X16942Y10687D02*
X16917Y10684D01*
X16894Y10674D01*
X16875Y10659D01*
X16860Y10639D01*
X16850Y10616D01*
X16847Y10592D01*
X16850Y10567D01*
X16860Y10544D01*
X16875Y10525D01*
X16894Y10510D01*
X16917Y10500D01*
X16942Y10497D01*
X16966Y10500D01*
X16989Y10510D01*
X17009Y10525D01*
X17024Y10544D01*
X17034Y10567D01*
X17037Y10592D01*
X17034Y10616D01*
X17024Y10639D01*
X17009Y10659D01*
X16989Y10674D01*
X16966Y10684D01*
X16942Y10687D01*
D02*
G37*
G36*
X12878D02*
X12853Y10684D01*
X12830Y10674D01*
X12811Y10659D01*
X12796Y10639D01*
X12786Y10616D01*
X12783Y10592D01*
X12786Y10567D01*
X12796Y10544D01*
X12811Y10525D01*
X12830Y10510D01*
X12853Y10500D01*
X12878Y10497D01*
X12902Y10500D01*
X12925Y10510D01*
X12945Y10525D01*
X12960Y10544D01*
X12970Y10567D01*
X12973Y10592D01*
X12970Y10616D01*
X12960Y10639D01*
X12945Y10659D01*
X12925Y10674D01*
X12902Y10684D01*
X12878Y10687D01*
D02*
G37*
G36*
X13132Y12160D02*
X13107Y12157D01*
X13084Y12147D01*
X13065Y12132D01*
X13050Y12112D01*
X13040Y12090D01*
X13037Y12065D01*
X13040Y12040D01*
X13050Y12018D01*
X13065Y11998D01*
X13084Y11983D01*
X13089Y11981D01*
X13296Y11774D01*
Y10502D01*
X13237Y10443D01*
X13225Y10449D01*
X13227Y10465D01*
X13224Y10489D01*
X13214Y10512D01*
X13199Y10532D01*
X13179Y10547D01*
X13156Y10557D01*
X13132Y10560D01*
X13107Y10557D01*
X13084Y10547D01*
X13065Y10532D01*
X13050Y10512D01*
X13040Y10489D01*
X13037Y10465D01*
X13040Y10440D01*
X13050Y10417D01*
X13065Y10398D01*
X13084Y10383D01*
X13107Y10373D01*
X13132Y10370D01*
X13148Y10372D01*
X13154Y10360D01*
X13089Y10295D01*
X13084Y10293D01*
X13065Y10278D01*
X13050Y10258D01*
X13040Y10235D01*
X13037Y10211D01*
X13040Y10186D01*
X13050Y10163D01*
X13065Y10144D01*
X13084Y10129D01*
X13107Y10119D01*
X13132Y10116D01*
X13156Y10119D01*
X13179Y10129D01*
X13199Y10144D01*
X13214Y10163D01*
X13216Y10168D01*
X13449Y10401D01*
X13464Y10420D01*
X13473Y10442D01*
X13476Y10465D01*
Y11811D01*
X13473Y11834D01*
X13464Y11856D01*
X13449Y11875D01*
X13216Y12108D01*
X13214Y12112D01*
X13199Y12132D01*
X13179Y12147D01*
X13156Y12157D01*
X13132Y12160D01*
D02*
G37*
G36*
X16599Y10453D02*
X16560D01*
Y10413D01*
X16561Y10414D01*
X16583Y10430D01*
X16599Y10452D01*
X16599Y10453D01*
D02*
G37*
G36*
X16091D02*
X16052D01*
Y10413D01*
X16053Y10414D01*
X16075Y10430D01*
X16091Y10452D01*
X16091Y10453D01*
D02*
G37*
G36*
X12535D02*
X12496D01*
Y10413D01*
X12497Y10414D01*
X12519Y10430D01*
X12535Y10452D01*
X12535Y10453D01*
D02*
G37*
G36*
X12027D02*
X11988D01*
Y10413D01*
X11989Y10414D01*
X12011Y10430D01*
X12027Y10452D01*
X12027Y10453D01*
D02*
G37*
G36*
X21679D02*
X21640D01*
Y10413D01*
X21641Y10414D01*
X21663Y10430D01*
X21679Y10452D01*
X21679Y10453D01*
D02*
G37*
G36*
X21171D02*
X21132D01*
Y10413D01*
X21133Y10414D01*
X21155Y10430D01*
X21171Y10452D01*
X21171Y10453D01*
D02*
G37*
G36*
X16460D02*
X16421D01*
X16421Y10452D01*
X16437Y10430D01*
X16459Y10414D01*
X16460Y10413D01*
Y10453D01*
D02*
G37*
G36*
X15952D02*
X15913D01*
X15913Y10452D01*
X15929Y10430D01*
X15951Y10414D01*
X15952Y10413D01*
Y10453D01*
D02*
G37*
G36*
X12396D02*
X12357D01*
X12357Y10452D01*
X12373Y10430D01*
X12395Y10414D01*
X12396Y10413D01*
Y10453D01*
D02*
G37*
G36*
X11888D02*
X11849D01*
X11849Y10452D01*
X11865Y10430D01*
X11887Y10414D01*
X11888Y10413D01*
Y10453D01*
D02*
G37*
G36*
X21540D02*
X21501D01*
X21501Y10452D01*
X21517Y10430D01*
X21539Y10414D01*
X21540Y10413D01*
Y10453D01*
D02*
G37*
G36*
X21032D02*
X20993D01*
X20993Y10452D01*
X21009Y10430D01*
X21031Y10414D01*
X21032Y10413D01*
Y10453D01*
D02*
G37*
G36*
X17196Y10560D02*
X17171Y10557D01*
X17148Y10547D01*
X17129Y10532D01*
X17114Y10512D01*
X17104Y10489D01*
X17101Y10465D01*
X17104Y10440D01*
X17114Y10417D01*
X17129Y10398D01*
X17148Y10383D01*
X17171Y10373D01*
X17196Y10370D01*
X17220Y10373D01*
X17243Y10383D01*
X17263Y10398D01*
X17278Y10417D01*
X17288Y10440D01*
X17291Y10465D01*
X17288Y10489D01*
X17278Y10512D01*
X17263Y10532D01*
X17243Y10547D01*
X17220Y10557D01*
X17196Y10560D01*
D02*
G37*
G36*
Y12160D02*
X17171Y12157D01*
X17148Y12147D01*
X17129Y12132D01*
X17114Y12112D01*
X17104Y12090D01*
X17101Y12065D01*
X17104Y12040D01*
X17114Y12018D01*
X17129Y11998D01*
X17148Y11983D01*
X17153Y11981D01*
X17360Y11774D01*
Y10451D01*
X17212Y10304D01*
X17196Y10306D01*
X17171Y10303D01*
X17148Y10293D01*
X17129Y10278D01*
X17114Y10258D01*
X17104Y10235D01*
X17101Y10211D01*
X17104Y10186D01*
X17114Y10163D01*
X17129Y10144D01*
X17148Y10129D01*
X17171Y10119D01*
X17196Y10116D01*
X17220Y10119D01*
X17225Y10121D01*
X17247D01*
X17270Y10124D01*
X17292Y10133D01*
X17310Y10147D01*
X17513Y10350D01*
X17528Y10369D01*
X17537Y10391D01*
X17540Y10414D01*
Y11811D01*
X17537Y11834D01*
X17528Y11856D01*
X17513Y11875D01*
X17280Y12108D01*
X17278Y12112D01*
X17263Y12132D01*
X17243Y12147D01*
X17220Y12157D01*
X17196Y12160D01*
D02*
G37*
G36*
X16560Y10338D02*
Y10299D01*
X16599D01*
X16599Y10300D01*
X16583Y10322D01*
X16561Y10338D01*
X16560Y10338D01*
D02*
G37*
G36*
X16052D02*
Y10299D01*
X16091D01*
X16091Y10300D01*
X16075Y10322D01*
X16053Y10338D01*
X16052Y10338D01*
D02*
G37*
G36*
X12496D02*
Y10299D01*
X12535D01*
X12535Y10300D01*
X12519Y10322D01*
X12497Y10338D01*
X12496Y10338D01*
D02*
G37*
G36*
X11988D02*
Y10299D01*
X12027D01*
X12027Y10300D01*
X12011Y10322D01*
X11989Y10338D01*
X11988Y10338D01*
D02*
G37*
G36*
X21640D02*
Y10299D01*
X21679D01*
X21679Y10300D01*
X21663Y10322D01*
X21641Y10338D01*
X21640Y10338D01*
D02*
G37*
G36*
X21132D02*
Y10299D01*
X21171D01*
X21171Y10300D01*
X21155Y10322D01*
X21133Y10338D01*
X21132Y10338D01*
D02*
G37*
G36*
X16460D02*
X16459Y10338D01*
X16437Y10322D01*
X16421Y10300D01*
X16421Y10299D01*
X16460D01*
Y10338D01*
D02*
G37*
G36*
X15952D02*
X15951Y10338D01*
X15929Y10322D01*
X15913Y10300D01*
X15913Y10299D01*
X15952D01*
Y10338D01*
D02*
G37*
G36*
X12396D02*
X12395Y10338D01*
X12373Y10322D01*
X12357Y10300D01*
X12357Y10299D01*
X12396D01*
Y10338D01*
D02*
G37*
G36*
X11888D02*
X11887Y10338D01*
X11865Y10322D01*
X11849Y10300D01*
X11849Y10299D01*
X11888D01*
Y10338D01*
D02*
G37*
G36*
X21540D02*
X21539Y10338D01*
X21517Y10322D01*
X21501Y10300D01*
X21501Y10299D01*
X21540D01*
Y10338D01*
D02*
G37*
G36*
X21032D02*
X21031Y10338D01*
X21009Y10322D01*
X20993Y10300D01*
X20993Y10299D01*
X21032D01*
Y10338D01*
D02*
G37*
G36*
X16942Y10433D02*
X16917Y10430D01*
X16894Y10420D01*
X16875Y10405D01*
X16860Y10385D01*
X16850Y10362D01*
X16847Y10338D01*
X16850Y10313D01*
X16860Y10290D01*
X16875Y10271D01*
X16894Y10256D01*
X16917Y10246D01*
X16942Y10243D01*
X16966Y10246D01*
X16989Y10256D01*
X17009Y10271D01*
X17024Y10290D01*
X17034Y10313D01*
X17037Y10338D01*
X17034Y10362D01*
X17024Y10385D01*
X17009Y10405D01*
X16989Y10420D01*
X16966Y10430D01*
X16942Y10433D01*
D02*
G37*
G36*
X12878D02*
X12853Y10430D01*
X12830Y10420D01*
X12811Y10405D01*
X12796Y10385D01*
X12786Y10362D01*
X12783Y10338D01*
X12786Y10313D01*
X12796Y10290D01*
X12811Y10271D01*
X12830Y10256D01*
X12853Y10246D01*
X12878Y10243D01*
X12902Y10246D01*
X12925Y10256D01*
X12945Y10271D01*
X12960Y10290D01*
X12970Y10313D01*
X12973Y10338D01*
X12970Y10362D01*
X12960Y10385D01*
X12945Y10405D01*
X12925Y10420D01*
X12902Y10430D01*
X12878Y10433D01*
D02*
G37*
G36*
X21679Y10199D02*
X21640D01*
Y10159D01*
X21641Y10160D01*
X21663Y10176D01*
X21679Y10198D01*
X21679Y10199D01*
D02*
G37*
G36*
X21171D02*
X21132D01*
Y10159D01*
X21133Y10160D01*
X21155Y10176D01*
X21171Y10198D01*
X21171Y10199D01*
D02*
G37*
G36*
X16599D02*
X16560D01*
Y10159D01*
X16561Y10160D01*
X16583Y10176D01*
X16599Y10198D01*
X16599Y10199D01*
D02*
G37*
G36*
X16091D02*
X16052D01*
Y10159D01*
X16053Y10160D01*
X16075Y10176D01*
X16091Y10198D01*
X16091Y10199D01*
D02*
G37*
G36*
X12535D02*
X12496D01*
Y10159D01*
X12497Y10160D01*
X12519Y10176D01*
X12535Y10198D01*
X12535Y10199D01*
D02*
G37*
G36*
X12027D02*
X11988D01*
Y10159D01*
X11989Y10160D01*
X12011Y10176D01*
X12027Y10198D01*
X12027Y10199D01*
D02*
G37*
G36*
X21540D02*
X21501D01*
X21501Y10198D01*
X21517Y10176D01*
X21539Y10160D01*
X21540Y10159D01*
Y10199D01*
D02*
G37*
G36*
X21032D02*
X20993D01*
X20993Y10198D01*
X21009Y10176D01*
X21031Y10160D01*
X21032Y10159D01*
Y10199D01*
D02*
G37*
G36*
X16460D02*
X16421D01*
X16421Y10198D01*
X16437Y10176D01*
X16459Y10160D01*
X16460Y10159D01*
Y10199D01*
D02*
G37*
G36*
X15952D02*
X15913D01*
X15913Y10198D01*
X15929Y10176D01*
X15951Y10160D01*
X15952Y10159D01*
Y10199D01*
D02*
G37*
G36*
X12396D02*
X12357D01*
X12357Y10198D01*
X12373Y10176D01*
X12395Y10160D01*
X12396Y10159D01*
Y10199D01*
D02*
G37*
G36*
X11888D02*
X11849D01*
X11849Y10198D01*
X11865Y10176D01*
X11887Y10160D01*
X11888Y10159D01*
Y10199D01*
D02*
G37*
G36*
X16992Y10164D02*
Y10134D01*
X17022D01*
X17009Y10151D01*
X16992Y10164D01*
D02*
G37*
G36*
X12928D02*
Y10134D01*
X12958D01*
X12945Y10151D01*
X12928Y10164D01*
D02*
G37*
G36*
X16892D02*
X16875Y10151D01*
X16861Y10134D01*
X16892D01*
Y10164D01*
D02*
G37*
G36*
X12828D02*
X12811Y10151D01*
X12797Y10134D01*
X12828D01*
Y10164D01*
D02*
G37*
G36*
X21640Y10084D02*
Y10045D01*
X21679D01*
X21679Y10046D01*
X21663Y10068D01*
X21641Y10084D01*
X21640Y10084D01*
D02*
G37*
G36*
X21132D02*
Y10045D01*
X21171D01*
X21171Y10046D01*
X21155Y10068D01*
X21133Y10084D01*
X21132Y10084D01*
D02*
G37*
G36*
X16560D02*
Y10045D01*
X16599D01*
X16599Y10046D01*
X16583Y10068D01*
X16561Y10084D01*
X16560Y10084D01*
D02*
G37*
G36*
X16052D02*
Y10045D01*
X16091D01*
X16091Y10046D01*
X16075Y10068D01*
X16053Y10084D01*
X16052Y10084D01*
D02*
G37*
G36*
X12496D02*
Y10045D01*
X12535D01*
X12535Y10046D01*
X12519Y10068D01*
X12497Y10084D01*
X12496Y10084D01*
D02*
G37*
G36*
X11988D02*
Y10045D01*
X12027D01*
X12027Y10046D01*
X12011Y10068D01*
X11989Y10084D01*
X11988Y10084D01*
D02*
G37*
G36*
X21540D02*
X21539Y10084D01*
X21517Y10068D01*
X21501Y10046D01*
X21501Y10045D01*
X21540D01*
Y10084D01*
D02*
G37*
G36*
X21032D02*
X21031Y10084D01*
X21009Y10068D01*
X20993Y10046D01*
X20993Y10045D01*
X21032D01*
Y10084D01*
D02*
G37*
G36*
X16460D02*
X16459Y10084D01*
X16437Y10068D01*
X16421Y10046D01*
X16421Y10045D01*
X16460D01*
Y10084D01*
D02*
G37*
G36*
X15952D02*
X15951Y10084D01*
X15929Y10068D01*
X15913Y10046D01*
X15913Y10045D01*
X15952D01*
Y10084D01*
D02*
G37*
G36*
X12396D02*
X12395Y10084D01*
X12373Y10068D01*
X12357Y10046D01*
X12357Y10045D01*
X12396D01*
Y10084D01*
D02*
G37*
G36*
X11888D02*
X11887Y10084D01*
X11865Y10068D01*
X11849Y10046D01*
X11849Y10045D01*
X11888D01*
Y10084D01*
D02*
G37*
G36*
X17022Y10034D02*
X16992D01*
Y10003D01*
X17009Y10017D01*
X17022Y10034D01*
D02*
G37*
G36*
X12958D02*
X12928D01*
Y10003D01*
X12945Y10017D01*
X12958Y10034D01*
D02*
G37*
G36*
X16892D02*
X16861D01*
X16875Y10017D01*
X16892Y10003D01*
Y10034D01*
D02*
G37*
G36*
X12828D02*
X12797D01*
X12811Y10017D01*
X12828Y10003D01*
Y10034D01*
D02*
G37*
G36*
X21679Y9945D02*
X21640D01*
Y9905D01*
X21641Y9906D01*
X21663Y9922D01*
X21679Y9944D01*
X21679Y9945D01*
D02*
G37*
G36*
X21171D02*
X21132D01*
Y9905D01*
X21133Y9906D01*
X21155Y9922D01*
X21171Y9944D01*
X21171Y9945D01*
D02*
G37*
G36*
X16599D02*
X16560D01*
Y9905D01*
X16561Y9906D01*
X16583Y9922D01*
X16599Y9944D01*
X16599Y9945D01*
D02*
G37*
G36*
X16091D02*
X16052D01*
Y9905D01*
X16053Y9906D01*
X16075Y9922D01*
X16091Y9944D01*
X16091Y9945D01*
D02*
G37*
G36*
X12535D02*
X12496D01*
Y9905D01*
X12497Y9906D01*
X12519Y9922D01*
X12535Y9944D01*
X12535Y9945D01*
D02*
G37*
G36*
X12027D02*
X11988D01*
Y9905D01*
X11989Y9906D01*
X12011Y9922D01*
X12027Y9944D01*
X12027Y9945D01*
D02*
G37*
G36*
X21540D02*
X21501D01*
X21501Y9944D01*
X21517Y9922D01*
X21539Y9906D01*
X21540Y9905D01*
Y9945D01*
D02*
G37*
G36*
X21032D02*
X20993D01*
X20993Y9944D01*
X21009Y9922D01*
X21031Y9906D01*
X21032Y9905D01*
Y9945D01*
D02*
G37*
G36*
X16460D02*
X16421D01*
X16421Y9944D01*
X16437Y9922D01*
X16459Y9906D01*
X16460Y9905D01*
Y9945D01*
D02*
G37*
G36*
X15952D02*
X15913D01*
X15913Y9944D01*
X15929Y9922D01*
X15951Y9906D01*
X15952Y9905D01*
Y9945D01*
D02*
G37*
G36*
X12396D02*
X12357D01*
X12357Y9944D01*
X12373Y9922D01*
X12395Y9906D01*
X12396Y9905D01*
Y9945D01*
D02*
G37*
G36*
X11888D02*
X11849D01*
X11849Y9944D01*
X11865Y9922D01*
X11887Y9906D01*
X11888Y9905D01*
Y9945D01*
D02*
G37*
G36*
X21640Y9830D02*
Y9791D01*
X21679D01*
X21679Y9792D01*
X21663Y9814D01*
X21641Y9830D01*
X21640Y9830D01*
D02*
G37*
G36*
X21132D02*
Y9791D01*
X21171D01*
X21171Y9792D01*
X21155Y9814D01*
X21133Y9830D01*
X21132Y9830D01*
D02*
G37*
G36*
X16560D02*
Y9791D01*
X16599D01*
X16599Y9792D01*
X16583Y9814D01*
X16561Y9830D01*
X16560Y9830D01*
D02*
G37*
G36*
X16052D02*
Y9791D01*
X16091D01*
X16091Y9792D01*
X16075Y9814D01*
X16053Y9830D01*
X16052Y9830D01*
D02*
G37*
G36*
X12496D02*
Y9791D01*
X12535D01*
X12535Y9792D01*
X12519Y9814D01*
X12497Y9830D01*
X12496Y9830D01*
D02*
G37*
G36*
X11988D02*
Y9791D01*
X12027D01*
X12027Y9792D01*
X12011Y9814D01*
X11989Y9830D01*
X11988Y9830D01*
D02*
G37*
G36*
X21540D02*
X21539Y9830D01*
X21517Y9814D01*
X21501Y9792D01*
X21501Y9791D01*
X21540D01*
Y9830D01*
D02*
G37*
G36*
X21032D02*
X21031Y9830D01*
X21009Y9814D01*
X20993Y9792D01*
X20993Y9791D01*
X21032D01*
Y9830D01*
D02*
G37*
G36*
X16460D02*
X16459Y9830D01*
X16437Y9814D01*
X16421Y9792D01*
X16421Y9791D01*
X16460D01*
Y9830D01*
D02*
G37*
G36*
X15952D02*
X15951Y9830D01*
X15929Y9814D01*
X15913Y9792D01*
X15913Y9791D01*
X15952D01*
Y9830D01*
D02*
G37*
G36*
X12396D02*
X12395Y9830D01*
X12373Y9814D01*
X12357Y9792D01*
X12357Y9791D01*
X12396D01*
Y9830D01*
D02*
G37*
G36*
X11888D02*
X11887Y9830D01*
X11865Y9814D01*
X11849Y9792D01*
X11849Y9791D01*
X11888D01*
Y9830D01*
D02*
G37*
G36*
X17831Y10146D02*
X17794Y10142D01*
X17758Y10131D01*
X17726Y10114D01*
X17697Y10090D01*
X17674Y10062D01*
X17656Y10029D01*
X17645Y9994D01*
X17642Y9957D01*
X17645Y9920D01*
X17656Y9884D01*
X17674Y9852D01*
X17697Y9823D01*
X17726Y9800D01*
X17758Y9782D01*
X17794Y9771D01*
X17831Y9768D01*
X17868Y9771D01*
X17903Y9782D01*
X17936Y9800D01*
X17964Y9823D01*
X17988Y9852D01*
X18005Y9884D01*
X18016Y9920D01*
X18020Y9957D01*
X18016Y9994D01*
X18005Y10029D01*
X17988Y10062D01*
X17964Y10090D01*
X17936Y10114D01*
X17903Y10131D01*
X17868Y10142D01*
X17831Y10146D01*
D02*
G37*
G36*
X13767D02*
X13730Y10142D01*
X13694Y10131D01*
X13662Y10114D01*
X13633Y10090D01*
X13610Y10062D01*
X13592Y10029D01*
X13581Y9994D01*
X13578Y9957D01*
X13581Y9920D01*
X13592Y9884D01*
X13610Y9852D01*
X13633Y9823D01*
X13662Y9800D01*
X13694Y9782D01*
X13730Y9771D01*
X13767Y9768D01*
X13804Y9771D01*
X13839Y9782D01*
X13872Y9800D01*
X13900Y9823D01*
X13924Y9852D01*
X13941Y9884D01*
X13952Y9920D01*
X13956Y9957D01*
X13952Y9994D01*
X13941Y10029D01*
X13924Y10062D01*
X13900Y10090D01*
X13872Y10114D01*
X13839Y10131D01*
X13804Y10142D01*
X13767Y10146D01*
D02*
G37*
G36*
X21679Y9691D02*
X21640D01*
Y9651D01*
X21641Y9652D01*
X21663Y9668D01*
X21679Y9690D01*
X21679Y9691D01*
D02*
G37*
G36*
X21171D02*
X21132D01*
Y9651D01*
X21133Y9652D01*
X21155Y9668D01*
X21171Y9690D01*
X21171Y9691D01*
D02*
G37*
G36*
X16599D02*
X16560D01*
Y9651D01*
X16561Y9652D01*
X16583Y9668D01*
X16599Y9690D01*
X16599Y9691D01*
D02*
G37*
G36*
X16091D02*
X16052D01*
Y9651D01*
X16053Y9652D01*
X16075Y9668D01*
X16091Y9690D01*
X16091Y9691D01*
D02*
G37*
G36*
X12535D02*
X12496D01*
Y9651D01*
X12497Y9652D01*
X12519Y9668D01*
X12535Y9690D01*
X12535Y9691D01*
D02*
G37*
G36*
X12027D02*
X11988D01*
Y9651D01*
X11989Y9652D01*
X12011Y9668D01*
X12027Y9690D01*
X12027Y9691D01*
D02*
G37*
G36*
X21540D02*
X21501D01*
X21501Y9690D01*
X21517Y9668D01*
X21539Y9652D01*
X21540Y9651D01*
Y9691D01*
D02*
G37*
G36*
X21032D02*
X20993D01*
X20993Y9690D01*
X21009Y9668D01*
X21031Y9652D01*
X21032Y9651D01*
Y9691D01*
D02*
G37*
G36*
X16460D02*
X16421D01*
X16421Y9690D01*
X16437Y9668D01*
X16459Y9652D01*
X16460Y9651D01*
Y9691D01*
D02*
G37*
G36*
X15952D02*
X15913D01*
X15913Y9690D01*
X15929Y9668D01*
X15951Y9652D01*
X15952Y9651D01*
Y9691D01*
D02*
G37*
G36*
X12396D02*
X12357D01*
X12357Y9690D01*
X12373Y9668D01*
X12395Y9652D01*
X12396Y9651D01*
Y9691D01*
D02*
G37*
G36*
X11888D02*
X11849D01*
X11849Y9690D01*
X11865Y9668D01*
X11887Y9652D01*
X11888Y9651D01*
Y9691D01*
D02*
G37*
G36*
X21640Y9576D02*
Y9537D01*
X21679D01*
X21679Y9538D01*
X21663Y9560D01*
X21641Y9576D01*
X21640Y9576D01*
D02*
G37*
G36*
X21132D02*
Y9537D01*
X21171D01*
X21171Y9538D01*
X21155Y9560D01*
X21133Y9576D01*
X21132Y9576D01*
D02*
G37*
G36*
X21540D02*
X21539Y9576D01*
X21517Y9560D01*
X21501Y9538D01*
X21501Y9537D01*
X21540D01*
Y9576D01*
D02*
G37*
G36*
X21032D02*
X21031Y9576D01*
X21009Y9560D01*
X20993Y9538D01*
X20993Y9537D01*
X21032D01*
Y9576D01*
D02*
G37*
G36*
X21679Y9437D02*
X21640D01*
Y9397D01*
X21641Y9398D01*
X21663Y9414D01*
X21679Y9436D01*
X21679Y9437D01*
D02*
G37*
G36*
X21171D02*
X21132D01*
Y9397D01*
X21133Y9398D01*
X21155Y9414D01*
X21171Y9436D01*
X21171Y9437D01*
D02*
G37*
G36*
X21540D02*
X21501D01*
X21501Y9436D01*
X21517Y9414D01*
X21539Y9398D01*
X21540Y9397D01*
Y9437D01*
D02*
G37*
G36*
X21032D02*
X20993D01*
X20993Y9436D01*
X21009Y9414D01*
X21031Y9398D01*
X21032Y9397D01*
Y9437D01*
D02*
G37*
G36*
X16510Y9590D02*
X16483Y9586D01*
X16459Y9576D01*
X16437Y9560D01*
X16421Y9538D01*
X16411Y9513D01*
X16407Y9487D01*
X16411Y9460D01*
X16421Y9436D01*
X16437Y9414D01*
X16459Y9398D01*
X16483Y9388D01*
X16510Y9384D01*
X16537Y9388D01*
X16561Y9398D01*
X16583Y9414D01*
X16599Y9436D01*
X16609Y9460D01*
X16613Y9487D01*
X16609Y9513D01*
X16599Y9538D01*
X16583Y9560D01*
X16561Y9576D01*
X16537Y9586D01*
X16510Y9590D01*
D02*
G37*
G36*
X16002D02*
X15975Y9586D01*
X15951Y9576D01*
X15929Y9560D01*
X15913Y9538D01*
X15903Y9513D01*
X15899Y9487D01*
X15903Y9460D01*
X15913Y9436D01*
X15929Y9414D01*
X15951Y9398D01*
X15975Y9388D01*
X16002Y9384D01*
X16029Y9388D01*
X16053Y9398D01*
X16075Y9414D01*
X16091Y9436D01*
X16101Y9460D01*
X16105Y9487D01*
X16101Y9513D01*
X16091Y9538D01*
X16075Y9560D01*
X16053Y9576D01*
X16029Y9586D01*
X16002Y9590D01*
D02*
G37*
G36*
X12446D02*
X12419Y9586D01*
X12395Y9576D01*
X12373Y9560D01*
X12357Y9538D01*
X12347Y9513D01*
X12343Y9487D01*
X12347Y9460D01*
X12357Y9436D01*
X12373Y9414D01*
X12395Y9398D01*
X12419Y9388D01*
X12446Y9384D01*
X12473Y9388D01*
X12497Y9398D01*
X12519Y9414D01*
X12535Y9436D01*
X12545Y9460D01*
X12549Y9487D01*
X12545Y9513D01*
X12535Y9538D01*
X12519Y9560D01*
X12497Y9576D01*
X12473Y9586D01*
X12446Y9590D01*
D02*
G37*
G36*
X11938D02*
X11911Y9586D01*
X11887Y9576D01*
X11865Y9560D01*
X11849Y9538D01*
X11839Y9513D01*
X11835Y9487D01*
X11839Y9460D01*
X11849Y9436D01*
X11865Y9414D01*
X11887Y9398D01*
X11911Y9388D01*
X11938Y9384D01*
X11965Y9388D01*
X11989Y9398D01*
X12011Y9414D01*
X12027Y9436D01*
X12037Y9460D01*
X12041Y9487D01*
X12037Y9513D01*
X12027Y9538D01*
X12011Y9560D01*
X11989Y9576D01*
X11965Y9586D01*
X11938Y9590D01*
D02*
G37*
G36*
X21640Y9322D02*
Y9283D01*
X21679D01*
X21679Y9284D01*
X21663Y9306D01*
X21641Y9322D01*
X21640Y9322D01*
D02*
G37*
G36*
X21132D02*
Y9283D01*
X21171D01*
X21171Y9284D01*
X21155Y9306D01*
X21133Y9322D01*
X21132Y9322D01*
D02*
G37*
G36*
X21540D02*
X21539Y9322D01*
X21517Y9306D01*
X21501Y9284D01*
X21501Y9283D01*
X21540D01*
Y9322D01*
D02*
G37*
G36*
X21032D02*
X21031Y9322D01*
X21009Y9306D01*
X20993Y9284D01*
X20993Y9283D01*
X21032D01*
Y9322D01*
D02*
G37*
G36*
X21679Y9183D02*
X21640D01*
Y9143D01*
X21641Y9144D01*
X21663Y9160D01*
X21679Y9182D01*
X21679Y9183D01*
D02*
G37*
G36*
X21171D02*
X21132D01*
Y9143D01*
X21133Y9144D01*
X21155Y9160D01*
X21171Y9182D01*
X21171Y9183D01*
D02*
G37*
G36*
X21540D02*
X21501D01*
X21501Y9182D01*
X21517Y9160D01*
X21539Y9144D01*
X21540Y9143D01*
Y9183D01*
D02*
G37*
G36*
X21032D02*
X20993D01*
X20993Y9182D01*
X21009Y9160D01*
X21031Y9144D01*
X21032Y9143D01*
Y9183D01*
D02*
G37*
G36*
X16510Y9336D02*
X16483Y9332D01*
X16459Y9322D01*
X16437Y9306D01*
X16421Y9284D01*
X16411Y9259D01*
X16407Y9233D01*
X16411Y9206D01*
X16421Y9182D01*
X16437Y9160D01*
X16459Y9144D01*
X16483Y9134D01*
X16510Y9130D01*
X16537Y9134D01*
X16561Y9144D01*
X16583Y9160D01*
X16599Y9182D01*
X16609Y9206D01*
X16613Y9233D01*
X16609Y9259D01*
X16599Y9284D01*
X16583Y9306D01*
X16561Y9322D01*
X16537Y9332D01*
X16510Y9336D01*
D02*
G37*
G36*
X16002D02*
X15975Y9332D01*
X15951Y9322D01*
X15929Y9306D01*
X15913Y9284D01*
X15903Y9259D01*
X15899Y9233D01*
X15903Y9206D01*
X15913Y9182D01*
X15929Y9160D01*
X15951Y9144D01*
X15975Y9134D01*
X16002Y9130D01*
X16029Y9134D01*
X16053Y9144D01*
X16075Y9160D01*
X16091Y9182D01*
X16101Y9206D01*
X16105Y9233D01*
X16101Y9259D01*
X16091Y9284D01*
X16075Y9306D01*
X16053Y9322D01*
X16029Y9332D01*
X16002Y9336D01*
D02*
G37*
G36*
X12446D02*
X12419Y9332D01*
X12395Y9322D01*
X12373Y9306D01*
X12357Y9284D01*
X12347Y9259D01*
X12343Y9233D01*
X12347Y9206D01*
X12357Y9182D01*
X12373Y9160D01*
X12395Y9144D01*
X12419Y9134D01*
X12446Y9130D01*
X12473Y9134D01*
X12497Y9144D01*
X12519Y9160D01*
X12535Y9182D01*
X12545Y9206D01*
X12549Y9233D01*
X12545Y9259D01*
X12535Y9284D01*
X12519Y9306D01*
X12497Y9322D01*
X12473Y9332D01*
X12446Y9336D01*
D02*
G37*
G36*
X11938D02*
X11911Y9332D01*
X11887Y9322D01*
X11865Y9306D01*
X11849Y9284D01*
X11839Y9259D01*
X11835Y9233D01*
X11839Y9206D01*
X11849Y9182D01*
X11865Y9160D01*
X11887Y9144D01*
X11911Y9134D01*
X11938Y9130D01*
X11965Y9134D01*
X11989Y9144D01*
X12011Y9160D01*
X12027Y9182D01*
X12037Y9206D01*
X12041Y9233D01*
X12037Y9259D01*
X12027Y9284D01*
X12011Y9306D01*
X11989Y9322D01*
X11965Y9332D01*
X11938Y9336D01*
D02*
G37*
G36*
X21640Y9068D02*
Y9029D01*
X21679D01*
X21679Y9030D01*
X21663Y9052D01*
X21641Y9068D01*
X21640Y9068D01*
D02*
G37*
G36*
X21132D02*
Y9029D01*
X21171D01*
X21171Y9030D01*
X21155Y9052D01*
X21133Y9068D01*
X21132Y9068D01*
D02*
G37*
G36*
X21540D02*
X21539Y9068D01*
X21517Y9052D01*
X21501Y9030D01*
X21501Y9029D01*
X21540D01*
Y9068D01*
D02*
G37*
G36*
X21032D02*
X21031Y9068D01*
X21009Y9052D01*
X20993Y9030D01*
X20993Y9029D01*
X21032D01*
Y9068D01*
D02*
G37*
G36*
X17460Y9490D02*
X17419Y9486D01*
X17378Y9477D01*
X17340Y9461D01*
X17305Y9439D01*
X17273Y9412D01*
X17246Y9381D01*
X17224Y9345D01*
X17209Y9307D01*
X17199Y9266D01*
X17196Y9225D01*
X17199Y9184D01*
X17209Y9143D01*
X17224Y9105D01*
X17246Y9070D01*
X17273Y9038D01*
X17305Y9011D01*
X17340Y8990D01*
X17378Y8974D01*
X17419Y8964D01*
X17460Y8961D01*
X17501Y8964D01*
X17542Y8974D01*
X17580Y8990D01*
X17615Y9011D01*
X17647Y9038D01*
X17674Y9070D01*
X17696Y9105D01*
X17711Y9143D01*
X17721Y9184D01*
X17724Y9225D01*
X17721Y9266D01*
X17711Y9307D01*
X17696Y9345D01*
X17674Y9381D01*
X17647Y9412D01*
X17615Y9439D01*
X17580Y9461D01*
X17542Y9477D01*
X17501Y9486D01*
X17460Y9490D01*
D02*
G37*
G36*
X15052D02*
X15011Y9486D01*
X14970Y9477D01*
X14932Y9461D01*
X14897Y9439D01*
X14865Y9412D01*
X14838Y9381D01*
X14816Y9345D01*
X14801Y9307D01*
X14791Y9266D01*
X14788Y9225D01*
X14791Y9184D01*
X14801Y9143D01*
X14816Y9105D01*
X14838Y9070D01*
X14865Y9038D01*
X14897Y9011D01*
X14932Y8990D01*
X14970Y8974D01*
X15011Y8964D01*
X15052Y8961D01*
X15093Y8964D01*
X15134Y8974D01*
X15172Y8990D01*
X15207Y9011D01*
X15239Y9038D01*
X15266Y9070D01*
X15288Y9105D01*
X15303Y9143D01*
X15313Y9184D01*
X15316Y9225D01*
X15313Y9266D01*
X15303Y9307D01*
X15288Y9345D01*
X15266Y9381D01*
X15239Y9412D01*
X15207Y9439D01*
X15172Y9461D01*
X15134Y9477D01*
X15093Y9486D01*
X15052Y9490D01*
D02*
G37*
G36*
X13396D02*
X13355Y9486D01*
X13314Y9477D01*
X13276Y9461D01*
X13241Y9439D01*
X13209Y9412D01*
X13182Y9381D01*
X13160Y9345D01*
X13145Y9307D01*
X13135Y9266D01*
X13132Y9225D01*
X13135Y9184D01*
X13145Y9143D01*
X13160Y9105D01*
X13182Y9070D01*
X13209Y9038D01*
X13241Y9011D01*
X13276Y8990D01*
X13314Y8974D01*
X13355Y8964D01*
X13396Y8961D01*
X13437Y8964D01*
X13478Y8974D01*
X13516Y8990D01*
X13551Y9011D01*
X13583Y9038D01*
X13610Y9070D01*
X13632Y9105D01*
X13647Y9143D01*
X13657Y9184D01*
X13660Y9225D01*
X13657Y9266D01*
X13647Y9307D01*
X13632Y9345D01*
X13610Y9381D01*
X13583Y9412D01*
X13551Y9439D01*
X13516Y9461D01*
X13478Y9477D01*
X13437Y9486D01*
X13396Y9490D01*
D02*
G37*
G36*
X10988D02*
X10947Y9486D01*
X10906Y9477D01*
X10868Y9461D01*
X10833Y9439D01*
X10801Y9412D01*
X10774Y9381D01*
X10752Y9345D01*
X10737Y9307D01*
X10727Y9266D01*
X10724Y9225D01*
X10727Y9184D01*
X10737Y9143D01*
X10752Y9105D01*
X10774Y9070D01*
X10801Y9038D01*
X10833Y9011D01*
X10868Y8990D01*
X10906Y8974D01*
X10947Y8964D01*
X10988Y8961D01*
X11029Y8964D01*
X11070Y8974D01*
X11108Y8990D01*
X11143Y9011D01*
X11175Y9038D01*
X11202Y9070D01*
X11224Y9105D01*
X11239Y9143D01*
X11249Y9184D01*
X11252Y9225D01*
X11249Y9266D01*
X11239Y9307D01*
X11224Y9345D01*
X11202Y9381D01*
X11175Y9412D01*
X11143Y9439D01*
X11108Y9461D01*
X11070Y9477D01*
X11029Y9486D01*
X10988Y9490D01*
D02*
G37*
G36*
X21679Y8929D02*
X21640D01*
Y8889D01*
X21641Y8890D01*
X21663Y8906D01*
X21679Y8928D01*
X21679Y8929D01*
D02*
G37*
G36*
X21171D02*
X21132D01*
Y8889D01*
X21133Y8890D01*
X21155Y8906D01*
X21171Y8928D01*
X21171Y8929D01*
D02*
G37*
G36*
X21540D02*
X21501D01*
X21501Y8928D01*
X21517Y8906D01*
X21539Y8890D01*
X21540Y8889D01*
Y8929D01*
D02*
G37*
G36*
X21032D02*
X20993D01*
X20993Y8928D01*
X21009Y8906D01*
X21031Y8890D01*
X21032Y8889D01*
Y8929D01*
D02*
G37*
G36*
X16510Y9082D02*
X16483Y9078D01*
X16459Y9068D01*
X16437Y9052D01*
X16421Y9030D01*
X16411Y9005D01*
X16407Y8979D01*
X16411Y8952D01*
X16421Y8928D01*
X16437Y8906D01*
X16459Y8890D01*
X16483Y8880D01*
X16510Y8876D01*
X16537Y8880D01*
X16561Y8890D01*
X16583Y8906D01*
X16599Y8928D01*
X16609Y8952D01*
X16613Y8979D01*
X16609Y9005D01*
X16599Y9030D01*
X16583Y9052D01*
X16561Y9068D01*
X16537Y9078D01*
X16510Y9082D01*
D02*
G37*
G36*
X16002D02*
X15975Y9078D01*
X15951Y9068D01*
X15929Y9052D01*
X15913Y9030D01*
X15903Y9005D01*
X15899Y8979D01*
X15903Y8952D01*
X15913Y8928D01*
X15929Y8906D01*
X15951Y8890D01*
X15975Y8880D01*
X16002Y8876D01*
X16029Y8880D01*
X16053Y8890D01*
X16075Y8906D01*
X16091Y8928D01*
X16101Y8952D01*
X16105Y8979D01*
X16101Y9005D01*
X16091Y9030D01*
X16075Y9052D01*
X16053Y9068D01*
X16029Y9078D01*
X16002Y9082D01*
D02*
G37*
G36*
X12446D02*
X12419Y9078D01*
X12395Y9068D01*
X12373Y9052D01*
X12357Y9030D01*
X12347Y9005D01*
X12343Y8979D01*
X12347Y8952D01*
X12357Y8928D01*
X12373Y8906D01*
X12395Y8890D01*
X12419Y8880D01*
X12446Y8876D01*
X12473Y8880D01*
X12497Y8890D01*
X12519Y8906D01*
X12535Y8928D01*
X12545Y8952D01*
X12549Y8979D01*
X12545Y9005D01*
X12535Y9030D01*
X12519Y9052D01*
X12497Y9068D01*
X12473Y9078D01*
X12446Y9082D01*
D02*
G37*
G36*
X11938D02*
X11911Y9078D01*
X11887Y9068D01*
X11865Y9052D01*
X11849Y9030D01*
X11839Y9005D01*
X11835Y8979D01*
X11839Y8952D01*
X11849Y8928D01*
X11865Y8906D01*
X11887Y8890D01*
X11911Y8880D01*
X11938Y8876D01*
X11965Y8880D01*
X11989Y8890D01*
X12011Y8906D01*
X12027Y8928D01*
X12037Y8952D01*
X12041Y8979D01*
X12037Y9005D01*
X12027Y9030D01*
X12011Y9052D01*
X11989Y9068D01*
X11965Y9078D01*
X11938Y9082D01*
D02*
G37*
G36*
X21640Y8814D02*
Y8775D01*
X21679D01*
X21679Y8776D01*
X21663Y8798D01*
X21641Y8814D01*
X21640Y8814D01*
D02*
G37*
G36*
X21132D02*
Y8775D01*
X21171D01*
X21171Y8776D01*
X21155Y8798D01*
X21133Y8814D01*
X21132Y8814D01*
D02*
G37*
G36*
X21540D02*
X21539Y8814D01*
X21517Y8798D01*
X21501Y8776D01*
X21501Y8775D01*
X21540D01*
Y8814D01*
D02*
G37*
G36*
X21032D02*
X21031Y8814D01*
X21009Y8798D01*
X20993Y8776D01*
X20993Y8775D01*
X21032D01*
Y8814D01*
D02*
G37*
G36*
X21679Y8675D02*
X21640D01*
Y8635D01*
X21641Y8636D01*
X21663Y8652D01*
X21679Y8674D01*
X21679Y8675D01*
D02*
G37*
G36*
X21171D02*
X21132D01*
Y8635D01*
X21133Y8636D01*
X21155Y8652D01*
X21171Y8674D01*
X21171Y8675D01*
D02*
G37*
G36*
X21540D02*
X21501D01*
X21501Y8674D01*
X21517Y8652D01*
X21539Y8636D01*
X21540Y8635D01*
Y8675D01*
D02*
G37*
G36*
X21032D02*
X20993D01*
X20993Y8674D01*
X21009Y8652D01*
X21031Y8636D01*
X21032Y8635D01*
Y8675D01*
D02*
G37*
G36*
X16510Y8828D02*
X16483Y8824D01*
X16459Y8814D01*
X16437Y8798D01*
X16421Y8776D01*
X16411Y8751D01*
X16407Y8725D01*
X16411Y8698D01*
X16421Y8674D01*
X16437Y8652D01*
X16459Y8636D01*
X16483Y8626D01*
X16510Y8622D01*
X16537Y8626D01*
X16561Y8636D01*
X16583Y8652D01*
X16599Y8674D01*
X16609Y8698D01*
X16613Y8725D01*
X16609Y8751D01*
X16599Y8776D01*
X16583Y8798D01*
X16561Y8814D01*
X16537Y8824D01*
X16510Y8828D01*
D02*
G37*
G36*
X16002D02*
X15975Y8824D01*
X15951Y8814D01*
X15929Y8798D01*
X15913Y8776D01*
X15903Y8751D01*
X15899Y8725D01*
X15903Y8698D01*
X15913Y8674D01*
X15929Y8652D01*
X15951Y8636D01*
X15975Y8626D01*
X16002Y8622D01*
X16029Y8626D01*
X16053Y8636D01*
X16075Y8652D01*
X16091Y8674D01*
X16101Y8698D01*
X16105Y8725D01*
X16101Y8751D01*
X16091Y8776D01*
X16075Y8798D01*
X16053Y8814D01*
X16029Y8824D01*
X16002Y8828D01*
D02*
G37*
G36*
X12446D02*
X12419Y8824D01*
X12395Y8814D01*
X12373Y8798D01*
X12357Y8776D01*
X12347Y8751D01*
X12343Y8725D01*
X12347Y8698D01*
X12357Y8674D01*
X12373Y8652D01*
X12395Y8636D01*
X12419Y8626D01*
X12446Y8622D01*
X12473Y8626D01*
X12497Y8636D01*
X12519Y8652D01*
X12535Y8674D01*
X12545Y8698D01*
X12549Y8725D01*
X12545Y8751D01*
X12535Y8776D01*
X12519Y8798D01*
X12497Y8814D01*
X12473Y8824D01*
X12446Y8828D01*
D02*
G37*
G36*
X11938D02*
X11911Y8824D01*
X11887Y8814D01*
X11865Y8798D01*
X11849Y8776D01*
X11839Y8751D01*
X11835Y8725D01*
X11839Y8698D01*
X11849Y8674D01*
X11865Y8652D01*
X11887Y8636D01*
X11911Y8626D01*
X11938Y8622D01*
X11965Y8626D01*
X11989Y8636D01*
X12011Y8652D01*
X12027Y8674D01*
X12037Y8698D01*
X12041Y8725D01*
X12037Y8751D01*
X12027Y8776D01*
X12011Y8798D01*
X11989Y8814D01*
X11965Y8824D01*
X11938Y8828D01*
D02*
G37*
G36*
X21640Y8560D02*
Y8521D01*
X21679D01*
X21679Y8522D01*
X21663Y8544D01*
X21641Y8560D01*
X21640Y8560D01*
D02*
G37*
G36*
X21132D02*
Y8521D01*
X21171D01*
X21171Y8522D01*
X21155Y8544D01*
X21133Y8560D01*
X21132Y8560D01*
D02*
G37*
G36*
X21540D02*
X21539Y8560D01*
X21517Y8544D01*
X21501Y8522D01*
X21501Y8521D01*
X21540D01*
Y8560D01*
D02*
G37*
G36*
X21032D02*
X21031Y8560D01*
X21009Y8544D01*
X20993Y8522D01*
X20993Y8521D01*
X21032D01*
Y8560D01*
D02*
G37*
G36*
X17712Y8640D02*
X17492D01*
Y8419D01*
X17712D01*
Y8640D01*
D02*
G37*
G36*
X13648D02*
X13428D01*
Y8419D01*
X13648D01*
Y8640D01*
D02*
G37*
G36*
X21679Y8421D02*
X21640D01*
Y8381D01*
X21641Y8382D01*
X21663Y8398D01*
X21679Y8420D01*
X21679Y8421D01*
D02*
G37*
G36*
X21171D02*
X21132D01*
Y8381D01*
X21133Y8382D01*
X21155Y8398D01*
X21171Y8420D01*
X21171Y8421D01*
D02*
G37*
G36*
X21540D02*
X21501D01*
X21501Y8420D01*
X21517Y8398D01*
X21539Y8382D01*
X21540Y8381D01*
Y8421D01*
D02*
G37*
G36*
X21032D02*
X20993D01*
X20993Y8420D01*
X21009Y8398D01*
X21031Y8382D01*
X21032Y8381D01*
Y8421D01*
D02*
G37*
G36*
X16510Y8574D02*
X16483Y8570D01*
X16459Y8560D01*
X16437Y8544D01*
X16421Y8522D01*
X16411Y8497D01*
X16407Y8471D01*
X16411Y8444D01*
X16421Y8420D01*
X16437Y8398D01*
X16459Y8382D01*
X16483Y8372D01*
X16510Y8368D01*
X16537Y8372D01*
X16561Y8382D01*
X16583Y8398D01*
X16599Y8420D01*
X16609Y8444D01*
X16613Y8471D01*
X16609Y8497D01*
X16599Y8522D01*
X16583Y8544D01*
X16561Y8560D01*
X16537Y8570D01*
X16510Y8574D01*
D02*
G37*
G36*
X16002D02*
X15975Y8570D01*
X15951Y8560D01*
X15929Y8544D01*
X15913Y8522D01*
X15903Y8497D01*
X15899Y8471D01*
X15903Y8444D01*
X15913Y8420D01*
X15929Y8398D01*
X15951Y8382D01*
X15975Y8372D01*
X16002Y8368D01*
X16029Y8372D01*
X16053Y8382D01*
X16075Y8398D01*
X16091Y8420D01*
X16101Y8444D01*
X16105Y8471D01*
X16101Y8497D01*
X16091Y8522D01*
X16075Y8544D01*
X16053Y8560D01*
X16029Y8570D01*
X16002Y8574D01*
D02*
G37*
G36*
X12446D02*
X12419Y8570D01*
X12395Y8560D01*
X12373Y8544D01*
X12357Y8522D01*
X12347Y8497D01*
X12343Y8471D01*
X12347Y8444D01*
X12357Y8420D01*
X12373Y8398D01*
X12395Y8382D01*
X12419Y8372D01*
X12446Y8368D01*
X12473Y8372D01*
X12497Y8382D01*
X12519Y8398D01*
X12535Y8420D01*
X12545Y8444D01*
X12549Y8471D01*
X12545Y8497D01*
X12535Y8522D01*
X12519Y8544D01*
X12497Y8560D01*
X12473Y8570D01*
X12446Y8574D01*
D02*
G37*
G36*
X11938D02*
X11911Y8570D01*
X11887Y8560D01*
X11865Y8544D01*
X11849Y8522D01*
X11839Y8497D01*
X11835Y8471D01*
X11839Y8444D01*
X11849Y8420D01*
X11865Y8398D01*
X11887Y8382D01*
X11911Y8372D01*
X11938Y8368D01*
X11965Y8372D01*
X11989Y8382D01*
X12011Y8398D01*
X12027Y8420D01*
X12037Y8444D01*
X12041Y8471D01*
X12037Y8497D01*
X12027Y8522D01*
X12011Y8544D01*
X11989Y8560D01*
X11965Y8570D01*
X11938Y8574D01*
D02*
G37*
G36*
X17318Y8502D02*
X17289Y8498D01*
X17262Y8487D01*
X17239Y8470D01*
X17222Y8447D01*
X17211Y8420D01*
X17207Y8391D01*
X17211Y8362D01*
X17222Y8336D01*
X17239Y8313D01*
X17262Y8295D01*
X17289Y8284D01*
X17318Y8280D01*
X17347Y8284D01*
X17374Y8295D01*
X17397Y8313D01*
X17414Y8336D01*
X17425Y8362D01*
X17429Y8391D01*
X17425Y8420D01*
X17414Y8447D01*
X17397Y8470D01*
X17374Y8487D01*
X17347Y8498D01*
X17318Y8502D01*
D02*
G37*
G36*
X13254D02*
X13225Y8498D01*
X13198Y8487D01*
X13175Y8470D01*
X13158Y8447D01*
X13147Y8420D01*
X13143Y8391D01*
X13147Y8362D01*
X13158Y8336D01*
X13175Y8313D01*
X13198Y8295D01*
X13225Y8284D01*
X13254Y8280D01*
X13283Y8284D01*
X13310Y8295D01*
X13333Y8313D01*
X13350Y8336D01*
X13361Y8362D01*
X13365Y8391D01*
X13361Y8420D01*
X13350Y8447D01*
X13333Y8470D01*
X13310Y8487D01*
X13283Y8498D01*
X13254Y8502D01*
D02*
G37*
G36*
X15194Y8502D02*
X15165Y8498D01*
X15138Y8487D01*
X15115Y8470D01*
X15098Y8447D01*
X15087Y8420D01*
X15083Y8391D01*
X15087Y8362D01*
X15098Y8336D01*
X15115Y8313D01*
X15138Y8295D01*
X15165Y8284D01*
X15194Y8280D01*
X15223Y8284D01*
X15250Y8295D01*
X15273Y8313D01*
X15290Y8336D01*
X15301Y8362D01*
X15305Y8391D01*
X15301Y8420D01*
X15290Y8447D01*
X15273Y8470D01*
X15250Y8487D01*
X15223Y8498D01*
X15194Y8502D01*
D02*
G37*
G36*
X11130D02*
X11101Y8498D01*
X11074Y8487D01*
X11051Y8470D01*
X11034Y8447D01*
X11023Y8420D01*
X11019Y8391D01*
X11023Y8362D01*
X11034Y8336D01*
X11051Y8313D01*
X11074Y8295D01*
X11101Y8284D01*
X11130Y8280D01*
X11159Y8284D01*
X11186Y8295D01*
X11209Y8313D01*
X11226Y8336D01*
X11237Y8362D01*
X11241Y8391D01*
X11237Y8420D01*
X11226Y8447D01*
X11209Y8470D01*
X11186Y8487D01*
X11159Y8498D01*
X11130Y8502D01*
D02*
G37*
G36*
X21640Y8306D02*
Y8267D01*
X21679D01*
X21679Y8268D01*
X21663Y8290D01*
X21641Y8306D01*
X21640Y8306D01*
D02*
G37*
G36*
X21132D02*
Y8267D01*
X21171D01*
X21171Y8268D01*
X21155Y8290D01*
X21133Y8306D01*
X21132Y8306D01*
D02*
G37*
G36*
X21540D02*
X21539Y8306D01*
X21517Y8290D01*
X21501Y8268D01*
X21501Y8267D01*
X21540D01*
Y8306D01*
D02*
G37*
G36*
X21032D02*
X21031Y8306D01*
X21009Y8290D01*
X20993Y8268D01*
X20993Y8267D01*
X21032D01*
Y8306D01*
D02*
G37*
G36*
X17602Y8364D02*
X17573Y8360D01*
X17546Y8349D01*
X17523Y8331D01*
X17506Y8308D01*
X17495Y8281D01*
X17491Y8253D01*
X17495Y8224D01*
X17506Y8197D01*
X17523Y8174D01*
X17546Y8156D01*
X17573Y8145D01*
X17602Y8142D01*
X17631Y8145D01*
X17658Y8156D01*
X17681Y8174D01*
X17698Y8197D01*
X17709Y8224D01*
X17713Y8253D01*
X17709Y8281D01*
X17698Y8308D01*
X17681Y8331D01*
X17658Y8349D01*
X17631Y8360D01*
X17602Y8364D01*
D02*
G37*
G36*
X13538D02*
X13509Y8360D01*
X13482Y8349D01*
X13459Y8331D01*
X13442Y8308D01*
X13431Y8281D01*
X13427Y8253D01*
X13431Y8224D01*
X13442Y8197D01*
X13459Y8174D01*
X13482Y8156D01*
X13509Y8145D01*
X13538Y8142D01*
X13567Y8145D01*
X13594Y8156D01*
X13617Y8174D01*
X13634Y8197D01*
X13645Y8224D01*
X13649Y8253D01*
X13645Y8281D01*
X13634Y8308D01*
X13617Y8331D01*
X13594Y8349D01*
X13567Y8360D01*
X13538Y8364D01*
D02*
G37*
G36*
X21679Y8167D02*
X21640D01*
Y8127D01*
X21641Y8128D01*
X21663Y8144D01*
X21679Y8166D01*
X21679Y8167D01*
D02*
G37*
G36*
X21171D02*
X21132D01*
Y8127D01*
X21133Y8128D01*
X21155Y8144D01*
X21171Y8166D01*
X21171Y8167D01*
D02*
G37*
G36*
X21540D02*
X21501D01*
X21501Y8166D01*
X21517Y8144D01*
X21539Y8128D01*
X21540Y8127D01*
Y8167D01*
D02*
G37*
G36*
X21032D02*
X20993D01*
X20993Y8166D01*
X21009Y8144D01*
X21031Y8128D01*
X21032Y8127D01*
Y8167D01*
D02*
G37*
G36*
X15367Y8840D02*
X15118D01*
X15091Y8837D01*
X15067Y8827D01*
X15045Y8810D01*
X14866Y8630D01*
X14854Y8626D01*
X14831Y8608D01*
X14814Y8585D01*
X14803Y8558D01*
X14799Y8530D01*
X14803Y8501D01*
X14807Y8490D01*
Y8292D01*
X14803Y8281D01*
X14799Y8253D01*
X14803Y8224D01*
X14814Y8197D01*
X14831Y8174D01*
X14854Y8156D01*
X14881Y8145D01*
X14910Y8142D01*
X14939Y8145D01*
X14966Y8156D01*
X14989Y8174D01*
X15006Y8197D01*
X15017Y8224D01*
X15021Y8253D01*
X15017Y8281D01*
X15013Y8292D01*
Y8487D01*
X15161Y8635D01*
X15324D01*
X15802Y8157D01*
X15824Y8141D01*
X15848Y8130D01*
X15875Y8127D01*
X15953D01*
X15975Y8118D01*
X16002Y8114D01*
X16029Y8118D01*
X16051Y8127D01*
X16461D01*
X16483Y8118D01*
X16510Y8114D01*
X16537Y8118D01*
X16561Y8128D01*
X16583Y8144D01*
X16599Y8166D01*
X16609Y8190D01*
X16613Y8217D01*
X16612Y8223D01*
X16613Y8230D01*
X16609Y8256D01*
X16599Y8281D01*
X16583Y8302D01*
X16561Y8319D01*
X16537Y8329D01*
X16510Y8332D01*
X15918D01*
X15440Y8810D01*
X15418Y8827D01*
X15394Y8837D01*
X15367Y8840D01*
D02*
G37*
G36*
X11303D02*
X11054D01*
X11027Y8837D01*
X11003Y8827D01*
X10981Y8810D01*
X10802Y8630D01*
X10790Y8626D01*
X10767Y8608D01*
X10750Y8585D01*
X10739Y8558D01*
X10735Y8530D01*
X10739Y8501D01*
X10743Y8490D01*
Y8292D01*
X10739Y8281D01*
X10735Y8253D01*
X10739Y8224D01*
X10750Y8197D01*
X10767Y8174D01*
X10790Y8156D01*
X10817Y8145D01*
X10846Y8142D01*
X10875Y8145D01*
X10902Y8156D01*
X10925Y8174D01*
X10942Y8197D01*
X10953Y8224D01*
X10957Y8253D01*
X10953Y8281D01*
X10949Y8292D01*
Y8487D01*
X11097Y8635D01*
X11260D01*
X11738Y8157D01*
X11760Y8141D01*
X11784Y8130D01*
X11811Y8127D01*
X11889D01*
X11911Y8118D01*
X11938Y8114D01*
X11965Y8118D01*
X11987Y8127D01*
X12397D01*
X12419Y8118D01*
X12446Y8114D01*
X12473Y8118D01*
X12497Y8128D01*
X12519Y8144D01*
X12535Y8166D01*
X12545Y8190D01*
X12549Y8217D01*
X12548Y8223D01*
X12549Y8230D01*
X12545Y8256D01*
X12535Y8281D01*
X12519Y8302D01*
X12497Y8319D01*
X12473Y8329D01*
X12446Y8332D01*
X11854D01*
X11376Y8810D01*
X11354Y8827D01*
X11330Y8837D01*
X11303Y8840D01*
D02*
G37*
G36*
X21640Y8052D02*
Y8013D01*
X21679D01*
X21679Y8014D01*
X21663Y8036D01*
X21641Y8052D01*
X21640Y8052D01*
D02*
G37*
G36*
X21132D02*
Y8013D01*
X21171D01*
X21171Y8014D01*
X21155Y8036D01*
X21133Y8052D01*
X21132Y8052D01*
D02*
G37*
G36*
X21540D02*
X21539Y8052D01*
X21517Y8036D01*
X21501Y8014D01*
X21501Y8013D01*
X21540D01*
Y8052D01*
D02*
G37*
G36*
X21032D02*
X21031Y8052D01*
X21009Y8036D01*
X20993Y8014D01*
X20993Y8013D01*
X21032D01*
Y8052D01*
D02*
G37*
G36*
X17318Y8225D02*
X17289Y8221D01*
X17262Y8210D01*
X17239Y8193D01*
X17222Y8170D01*
X17211Y8143D01*
X17207Y8114D01*
X17211Y8085D01*
X17222Y8059D01*
X17239Y8036D01*
X17262Y8018D01*
X17289Y8007D01*
X17318Y8003D01*
X17347Y8007D01*
X17374Y8018D01*
X17397Y8036D01*
X17414Y8059D01*
X17425Y8085D01*
X17429Y8114D01*
X17425Y8143D01*
X17414Y8170D01*
X17397Y8193D01*
X17374Y8210D01*
X17347Y8221D01*
X17318Y8225D01*
D02*
G37*
G36*
X13254D02*
X13225Y8221D01*
X13198Y8210D01*
X13175Y8193D01*
X13158Y8170D01*
X13147Y8143D01*
X13143Y8114D01*
X13147Y8085D01*
X13158Y8059D01*
X13175Y8036D01*
X13198Y8018D01*
X13225Y8007D01*
X13254Y8003D01*
X13283Y8007D01*
X13310Y8018D01*
X13333Y8036D01*
X13350Y8059D01*
X13361Y8085D01*
X13365Y8114D01*
X13361Y8143D01*
X13350Y8170D01*
X13333Y8193D01*
X13310Y8210D01*
X13283Y8221D01*
X13254Y8225D01*
D02*
G37*
G36*
X15194Y8225D02*
X15165Y8221D01*
X15138Y8210D01*
X15115Y8193D01*
X15098Y8170D01*
X15087Y8143D01*
X15083Y8114D01*
X15087Y8085D01*
X15098Y8059D01*
X15115Y8036D01*
X15138Y8018D01*
X15165Y8007D01*
X15194Y8003D01*
X15223Y8007D01*
X15250Y8018D01*
X15273Y8036D01*
X15290Y8059D01*
X15301Y8085D01*
X15305Y8114D01*
X15301Y8143D01*
X15290Y8170D01*
X15273Y8193D01*
X15250Y8210D01*
X15223Y8221D01*
X15194Y8225D01*
D02*
G37*
G36*
X11130D02*
X11101Y8221D01*
X11074Y8210D01*
X11051Y8193D01*
X11034Y8170D01*
X11023Y8143D01*
X11019Y8114D01*
X11023Y8085D01*
X11034Y8059D01*
X11051Y8036D01*
X11074Y8018D01*
X11101Y8007D01*
X11130Y8003D01*
X11159Y8007D01*
X11186Y8018D01*
X11209Y8036D01*
X11226Y8059D01*
X11237Y8085D01*
X11241Y8114D01*
X11237Y8143D01*
X11226Y8170D01*
X11209Y8193D01*
X11186Y8210D01*
X11159Y8221D01*
X11130Y8225D01*
D02*
G37*
G36*
X21679Y7913D02*
X21640D01*
Y7873D01*
X21641Y7874D01*
X21663Y7890D01*
X21679Y7912D01*
X21679Y7913D01*
D02*
G37*
G36*
X21171D02*
X21132D01*
Y7873D01*
X21133Y7874D01*
X21155Y7890D01*
X21171Y7912D01*
X21171Y7913D01*
D02*
G37*
G36*
X21540D02*
X21501D01*
X21501Y7912D01*
X21517Y7890D01*
X21539Y7874D01*
X21540Y7873D01*
Y7913D01*
D02*
G37*
G36*
X21032D02*
X20993D01*
X20993Y7912D01*
X21009Y7890D01*
X21031Y7874D01*
X21032Y7873D01*
Y7913D01*
D02*
G37*
G36*
X17602Y8087D02*
X17573Y8083D01*
X17546Y8072D01*
X17523Y8054D01*
X17506Y8031D01*
X17495Y8004D01*
X17491Y7976D01*
X17495Y7947D01*
X17506Y7920D01*
X17523Y7897D01*
X17546Y7879D01*
X17573Y7868D01*
X17602Y7865D01*
X17631Y7868D01*
X17658Y7879D01*
X17681Y7897D01*
X17698Y7920D01*
X17709Y7947D01*
X17713Y7976D01*
X17709Y8004D01*
X17698Y8031D01*
X17681Y8054D01*
X17658Y8072D01*
X17631Y8083D01*
X17602Y8087D01*
D02*
G37*
G36*
X13538D02*
X13509Y8083D01*
X13482Y8072D01*
X13459Y8054D01*
X13442Y8031D01*
X13431Y8004D01*
X13427Y7976D01*
X13431Y7947D01*
X13442Y7920D01*
X13459Y7897D01*
X13482Y7879D01*
X13509Y7868D01*
X13538Y7865D01*
X13567Y7868D01*
X13594Y7879D01*
X13617Y7897D01*
X13634Y7920D01*
X13645Y7947D01*
X13649Y7976D01*
X13645Y8004D01*
X13634Y8031D01*
X13617Y8054D01*
X13594Y8072D01*
X13567Y8083D01*
X13538Y8087D01*
D02*
G37*
G36*
X14910Y8087D02*
X14881Y8083D01*
X14854Y8072D01*
X14831Y8054D01*
X14814Y8031D01*
X14803Y8004D01*
X14799Y7976D01*
X14803Y7947D01*
X14814Y7920D01*
X14831Y7897D01*
X14854Y7879D01*
X14881Y7868D01*
X14910Y7865D01*
X14939Y7868D01*
X14966Y7879D01*
X14989Y7897D01*
X15006Y7920D01*
X15017Y7947D01*
X15021Y7976D01*
X15017Y8004D01*
X15006Y8031D01*
X14989Y8054D01*
X14966Y8072D01*
X14939Y8083D01*
X14910Y8087D01*
D02*
G37*
G36*
X10846D02*
X10817Y8083D01*
X10790Y8072D01*
X10767Y8054D01*
X10750Y8031D01*
X10739Y8004D01*
X10735Y7976D01*
X10739Y7947D01*
X10750Y7920D01*
X10767Y7897D01*
X10790Y7879D01*
X10817Y7868D01*
X10846Y7865D01*
X10875Y7868D01*
X10902Y7879D01*
X10925Y7897D01*
X10942Y7920D01*
X10953Y7947D01*
X10957Y7976D01*
X10953Y8004D01*
X10942Y8031D01*
X10925Y8054D01*
X10902Y8072D01*
X10875Y8083D01*
X10846Y8087D01*
D02*
G37*
G36*
X21640Y7798D02*
Y7759D01*
X21679D01*
X21679Y7760D01*
X21663Y7782D01*
X21641Y7798D01*
X21640Y7798D01*
D02*
G37*
G36*
X21132D02*
Y7759D01*
X21171D01*
X21171Y7760D01*
X21155Y7782D01*
X21133Y7798D01*
X21132Y7798D01*
D02*
G37*
G36*
X21540D02*
X21539Y7798D01*
X21517Y7782D01*
X21501Y7760D01*
X21501Y7759D01*
X21540D01*
Y7798D01*
D02*
G37*
G36*
X21032D02*
X21031Y7798D01*
X21009Y7782D01*
X20993Y7760D01*
X20993Y7759D01*
X21032D01*
Y7798D01*
D02*
G37*
G36*
X17318Y7948D02*
X17289Y7944D01*
X17262Y7933D01*
X17239Y7916D01*
X17222Y7893D01*
X17211Y7866D01*
X17207Y7837D01*
X17211Y7808D01*
X17222Y7782D01*
X17239Y7759D01*
X17262Y7741D01*
X17289Y7730D01*
X17318Y7726D01*
X17347Y7730D01*
X17374Y7741D01*
X17397Y7759D01*
X17414Y7782D01*
X17425Y7808D01*
X17429Y7837D01*
X17425Y7866D01*
X17414Y7893D01*
X17397Y7916D01*
X17374Y7933D01*
X17347Y7944D01*
X17318Y7948D01*
D02*
G37*
G36*
X13254D02*
X13225Y7944D01*
X13198Y7933D01*
X13175Y7916D01*
X13158Y7893D01*
X13147Y7866D01*
X13143Y7837D01*
X13147Y7808D01*
X13158Y7782D01*
X13175Y7759D01*
X13198Y7741D01*
X13225Y7730D01*
X13254Y7726D01*
X13283Y7730D01*
X13310Y7741D01*
X13333Y7759D01*
X13350Y7782D01*
X13361Y7808D01*
X13365Y7837D01*
X13361Y7866D01*
X13350Y7893D01*
X13333Y7916D01*
X13310Y7933D01*
X13283Y7944D01*
X13254Y7948D01*
D02*
G37*
G36*
X15194Y7948D02*
X15165Y7944D01*
X15138Y7933D01*
X15115Y7916D01*
X15098Y7893D01*
X15087Y7866D01*
X15083Y7837D01*
X15087Y7808D01*
X15098Y7782D01*
X15115Y7759D01*
X15138Y7741D01*
X15165Y7730D01*
X15194Y7726D01*
X15223Y7730D01*
X15250Y7741D01*
X15273Y7759D01*
X15290Y7782D01*
X15301Y7808D01*
X15305Y7837D01*
X15301Y7866D01*
X15290Y7893D01*
X15273Y7916D01*
X15250Y7933D01*
X15223Y7944D01*
X15194Y7948D01*
D02*
G37*
G36*
X11130D02*
X11101Y7944D01*
X11074Y7933D01*
X11051Y7916D01*
X11034Y7893D01*
X11023Y7866D01*
X11019Y7837D01*
X11023Y7808D01*
X11034Y7782D01*
X11051Y7759D01*
X11074Y7741D01*
X11101Y7730D01*
X11130Y7726D01*
X11159Y7730D01*
X11186Y7741D01*
X11209Y7759D01*
X11226Y7782D01*
X11237Y7808D01*
X11241Y7837D01*
X11237Y7866D01*
X11226Y7893D01*
X11209Y7916D01*
X11186Y7933D01*
X11159Y7944D01*
X11130Y7948D01*
D02*
G37*
G36*
X21679Y7659D02*
X21640D01*
Y7619D01*
X21641Y7620D01*
X21663Y7636D01*
X21679Y7658D01*
X21679Y7659D01*
D02*
G37*
G36*
X21171D02*
X21132D01*
Y7619D01*
X21133Y7620D01*
X21155Y7636D01*
X21171Y7658D01*
X21171Y7659D01*
D02*
G37*
G36*
X21540D02*
X21501D01*
X21501Y7658D01*
X21517Y7636D01*
X21539Y7620D01*
X21540Y7619D01*
Y7659D01*
D02*
G37*
G36*
X21032D02*
X20993D01*
X20993Y7658D01*
X21009Y7636D01*
X21031Y7620D01*
X21032Y7619D01*
Y7659D01*
D02*
G37*
G36*
X17602Y7810D02*
X17573Y7806D01*
X17546Y7795D01*
X17523Y7777D01*
X17506Y7754D01*
X17495Y7727D01*
X17491Y7699D01*
X17495Y7670D01*
X17506Y7643D01*
X17523Y7620D01*
X17546Y7602D01*
X17573Y7591D01*
X17602Y7588D01*
X17631Y7591D01*
X17658Y7602D01*
X17681Y7620D01*
X17698Y7643D01*
X17709Y7670D01*
X17713Y7699D01*
X17709Y7727D01*
X17698Y7754D01*
X17681Y7777D01*
X17658Y7795D01*
X17631Y7806D01*
X17602Y7810D01*
D02*
G37*
G36*
X13538D02*
X13509Y7806D01*
X13482Y7795D01*
X13459Y7777D01*
X13442Y7754D01*
X13431Y7727D01*
X13427Y7699D01*
X13431Y7670D01*
X13442Y7643D01*
X13459Y7620D01*
X13482Y7602D01*
X13509Y7591D01*
X13538Y7588D01*
X13567Y7591D01*
X13594Y7602D01*
X13617Y7620D01*
X13634Y7643D01*
X13645Y7670D01*
X13649Y7699D01*
X13645Y7727D01*
X13634Y7754D01*
X13617Y7777D01*
X13594Y7795D01*
X13567Y7806D01*
X13538Y7810D01*
D02*
G37*
G36*
X21640Y7544D02*
Y7505D01*
X21679D01*
X21679Y7506D01*
X21663Y7528D01*
X21641Y7544D01*
X21640Y7544D01*
D02*
G37*
G36*
X21132D02*
Y7505D01*
X21171D01*
X21171Y7506D01*
X21155Y7528D01*
X21133Y7544D01*
X21132Y7544D01*
D02*
G37*
G36*
X21540D02*
X21539Y7544D01*
X21517Y7528D01*
X21501Y7506D01*
X21501Y7505D01*
X21540D01*
Y7544D01*
D02*
G37*
G36*
X21032D02*
X21031Y7544D01*
X21009Y7528D01*
X20993Y7506D01*
X20993Y7505D01*
X21032D01*
Y7544D01*
D02*
G37*
G36*
X17318Y7671D02*
X17289Y7667D01*
X17262Y7656D01*
X17239Y7639D01*
X17222Y7616D01*
X17211Y7589D01*
X17207Y7560D01*
X17211Y7531D01*
X17222Y7505D01*
X17239Y7482D01*
X17262Y7464D01*
X17289Y7453D01*
X17318Y7449D01*
X17347Y7453D01*
X17374Y7464D01*
X17397Y7482D01*
X17414Y7505D01*
X17425Y7531D01*
X17429Y7560D01*
X17425Y7589D01*
X17414Y7616D01*
X17397Y7639D01*
X17374Y7656D01*
X17347Y7667D01*
X17318Y7671D01*
D02*
G37*
G36*
X13254D02*
X13225Y7667D01*
X13198Y7656D01*
X13175Y7639D01*
X13158Y7616D01*
X13147Y7589D01*
X13143Y7560D01*
X13147Y7531D01*
X13158Y7505D01*
X13175Y7482D01*
X13198Y7464D01*
X13225Y7453D01*
X13254Y7449D01*
X13283Y7453D01*
X13310Y7464D01*
X13333Y7482D01*
X13350Y7505D01*
X13361Y7531D01*
X13365Y7560D01*
X13361Y7589D01*
X13350Y7616D01*
X13333Y7639D01*
X13310Y7656D01*
X13283Y7667D01*
X13254Y7671D01*
D02*
G37*
G36*
X15194Y7671D02*
X15165Y7667D01*
X15138Y7656D01*
X15115Y7639D01*
X15098Y7616D01*
X15087Y7589D01*
X15083Y7560D01*
X15087Y7531D01*
X15098Y7505D01*
X15115Y7482D01*
X15138Y7464D01*
X15165Y7453D01*
X15194Y7449D01*
X15223Y7453D01*
X15250Y7464D01*
X15273Y7482D01*
X15290Y7505D01*
X15301Y7531D01*
X15305Y7560D01*
X15301Y7589D01*
X15290Y7616D01*
X15273Y7639D01*
X15250Y7656D01*
X15223Y7667D01*
X15194Y7671D01*
D02*
G37*
G36*
X11130D02*
X11101Y7667D01*
X11074Y7656D01*
X11051Y7639D01*
X11034Y7616D01*
X11023Y7589D01*
X11019Y7560D01*
X11023Y7531D01*
X11034Y7505D01*
X11051Y7482D01*
X11074Y7464D01*
X11101Y7453D01*
X11130Y7449D01*
X11159Y7453D01*
X11186Y7464D01*
X11209Y7482D01*
X11226Y7505D01*
X11237Y7531D01*
X11241Y7560D01*
X11237Y7589D01*
X11226Y7616D01*
X11209Y7639D01*
X11186Y7656D01*
X11159Y7667D01*
X11130Y7671D01*
D02*
G37*
G36*
X21679Y7405D02*
X21640D01*
Y7365D01*
X21641Y7366D01*
X21663Y7382D01*
X21679Y7404D01*
X21679Y7405D01*
D02*
G37*
G36*
X21171D02*
X21132D01*
Y7365D01*
X21133Y7366D01*
X21155Y7382D01*
X21171Y7404D01*
X21171Y7405D01*
D02*
G37*
G36*
X21540D02*
X21501D01*
X21501Y7404D01*
X21517Y7382D01*
X21539Y7366D01*
X21540Y7365D01*
Y7405D01*
D02*
G37*
G36*
X21032D02*
X20993D01*
X20993Y7404D01*
X21009Y7382D01*
X21031Y7366D01*
X21032Y7365D01*
Y7405D01*
D02*
G37*
G36*
X16510Y7558D02*
X16483Y7554D01*
X16459Y7544D01*
X16437Y7528D01*
X16421Y7506D01*
X16411Y7481D01*
X16407Y7455D01*
X16411Y7428D01*
X16421Y7404D01*
X16437Y7382D01*
X16459Y7366D01*
X16483Y7356D01*
X16510Y7352D01*
X16537Y7356D01*
X16561Y7366D01*
X16583Y7382D01*
X16599Y7404D01*
X16609Y7428D01*
X16613Y7455D01*
X16609Y7481D01*
X16599Y7506D01*
X16583Y7528D01*
X16561Y7544D01*
X16537Y7554D01*
X16510Y7558D01*
D02*
G37*
G36*
X16002D02*
X15975Y7554D01*
X15951Y7544D01*
X15929Y7528D01*
X15913Y7506D01*
X15903Y7481D01*
X15899Y7455D01*
X15903Y7428D01*
X15913Y7404D01*
X15929Y7382D01*
X15951Y7366D01*
X15975Y7356D01*
X16002Y7352D01*
X16029Y7356D01*
X16053Y7366D01*
X16075Y7382D01*
X16091Y7404D01*
X16101Y7428D01*
X16105Y7455D01*
X16101Y7481D01*
X16091Y7506D01*
X16075Y7528D01*
X16053Y7544D01*
X16029Y7554D01*
X16002Y7558D01*
D02*
G37*
G36*
X12446D02*
X12419Y7554D01*
X12395Y7544D01*
X12373Y7528D01*
X12357Y7506D01*
X12347Y7481D01*
X12343Y7455D01*
X12347Y7428D01*
X12357Y7404D01*
X12373Y7382D01*
X12395Y7366D01*
X12419Y7356D01*
X12446Y7352D01*
X12473Y7356D01*
X12497Y7366D01*
X12519Y7382D01*
X12535Y7404D01*
X12545Y7428D01*
X12549Y7455D01*
X12545Y7481D01*
X12535Y7506D01*
X12519Y7528D01*
X12497Y7544D01*
X12473Y7554D01*
X12446Y7558D01*
D02*
G37*
G36*
X11938D02*
X11911Y7554D01*
X11887Y7544D01*
X11865Y7528D01*
X11849Y7506D01*
X11839Y7481D01*
X11835Y7455D01*
X11839Y7428D01*
X11849Y7404D01*
X11865Y7382D01*
X11887Y7366D01*
X11911Y7356D01*
X11938Y7352D01*
X11965Y7356D01*
X11989Y7366D01*
X12011Y7382D01*
X12027Y7404D01*
X12037Y7428D01*
X12041Y7455D01*
X12037Y7481D01*
X12027Y7506D01*
X12011Y7528D01*
X11989Y7544D01*
X11965Y7554D01*
X11938Y7558D01*
D02*
G37*
G36*
X16510Y8078D02*
X16002D01*
X15975Y8075D01*
X15951Y8065D01*
X15929Y8048D01*
X15913Y8027D01*
X15903Y8002D01*
X15899Y7976D01*
X15900Y7969D01*
X15899Y7963D01*
X15903Y7936D01*
X15913Y7912D01*
X15929Y7890D01*
X15951Y7874D01*
X15975Y7864D01*
X16002Y7860D01*
X16029Y7864D01*
X16051Y7873D01*
X16407D01*
Y7824D01*
X15875D01*
X15848Y7821D01*
X15824Y7811D01*
X15802Y7794D01*
X15324Y7316D01*
X15161D01*
X15020Y7457D01*
Y7532D01*
X15013D01*
Y7659D01*
X15017Y7670D01*
X15021Y7699D01*
X15017Y7727D01*
X15006Y7754D01*
X14989Y7777D01*
X14966Y7795D01*
X14939Y7806D01*
X14910Y7810D01*
X14881Y7806D01*
X14854Y7795D01*
X14831Y7777D01*
X14814Y7754D01*
X14803Y7727D01*
X14799Y7699D01*
X14803Y7670D01*
X14807Y7659D01*
Y7532D01*
X14800D01*
Y7311D01*
X14875D01*
X15045Y7141D01*
X15067Y7125D01*
X15091Y7114D01*
X15118Y7111D01*
X15367D01*
X15394Y7114D01*
X15418Y7125D01*
X15440Y7141D01*
X15918Y7619D01*
X15953D01*
X15975Y7610D01*
X16002Y7606D01*
X16029Y7610D01*
X16051Y7619D01*
X16461D01*
X16483Y7610D01*
X16510Y7606D01*
X16537Y7610D01*
X16561Y7620D01*
X16583Y7636D01*
X16599Y7658D01*
X16609Y7682D01*
X16613Y7709D01*
X16612Y7715D01*
X16613Y7722D01*
Y7976D01*
X16609Y8002D01*
X16599Y8027D01*
X16583Y8048D01*
X16561Y8065D01*
X16537Y8075D01*
X16510Y8078D01*
D02*
G37*
G36*
X12446D02*
X11938D01*
X11911Y8075D01*
X11887Y8065D01*
X11865Y8048D01*
X11849Y8027D01*
X11839Y8002D01*
X11835Y7976D01*
X11836Y7969D01*
X11835Y7963D01*
X11839Y7936D01*
X11849Y7912D01*
X11865Y7890D01*
X11887Y7874D01*
X11911Y7864D01*
X11938Y7860D01*
X11965Y7864D01*
X11987Y7873D01*
X12343D01*
Y7824D01*
X11811D01*
X11784Y7821D01*
X11760Y7811D01*
X11738Y7794D01*
X11260Y7316D01*
X11097D01*
X10956Y7457D01*
Y7532D01*
X10949D01*
Y7659D01*
X10953Y7670D01*
X10957Y7699D01*
X10953Y7727D01*
X10942Y7754D01*
X10925Y7777D01*
X10902Y7795D01*
X10875Y7806D01*
X10846Y7810D01*
X10817Y7806D01*
X10790Y7795D01*
X10767Y7777D01*
X10750Y7754D01*
X10739Y7727D01*
X10735Y7699D01*
X10739Y7670D01*
X10743Y7659D01*
Y7532D01*
X10736D01*
Y7311D01*
X10811D01*
X10981Y7141D01*
X11003Y7125D01*
X11027Y7114D01*
X11054Y7111D01*
X11303D01*
X11330Y7114D01*
X11354Y7125D01*
X11376Y7141D01*
X11854Y7619D01*
X11889D01*
X11911Y7610D01*
X11938Y7606D01*
X11965Y7610D01*
X11987Y7619D01*
X12397D01*
X12419Y7610D01*
X12446Y7606D01*
X12473Y7610D01*
X12497Y7620D01*
X12519Y7636D01*
X12535Y7658D01*
X12545Y7682D01*
X12549Y7709D01*
X12548Y7715D01*
X12549Y7722D01*
Y7976D01*
X12545Y8002D01*
X12535Y8027D01*
X12519Y8048D01*
X12497Y8065D01*
X12473Y8075D01*
X12446Y8078D01*
D02*
G37*
G36*
X17602Y7533D02*
X17573Y7529D01*
X17546Y7518D01*
X17523Y7500D01*
X17506Y7477D01*
X17495Y7450D01*
X17491Y7422D01*
X17495Y7393D01*
X17506Y7366D01*
X17523Y7343D01*
X17546Y7325D01*
X17573Y7314D01*
X17602Y7311D01*
X17631Y7314D01*
X17658Y7325D01*
X17681Y7343D01*
X17698Y7366D01*
X17709Y7393D01*
X17713Y7422D01*
X17709Y7450D01*
X17698Y7477D01*
X17681Y7500D01*
X17658Y7518D01*
X17631Y7529D01*
X17602Y7533D01*
D02*
G37*
G36*
X13538D02*
X13509Y7529D01*
X13482Y7518D01*
X13459Y7500D01*
X13442Y7477D01*
X13431Y7450D01*
X13427Y7422D01*
X13431Y7393D01*
X13442Y7366D01*
X13459Y7343D01*
X13482Y7325D01*
X13509Y7314D01*
X13538Y7311D01*
X13567Y7314D01*
X13594Y7325D01*
X13617Y7343D01*
X13634Y7366D01*
X13645Y7393D01*
X13649Y7422D01*
X13645Y7450D01*
X13634Y7477D01*
X13617Y7500D01*
X13594Y7518D01*
X13567Y7529D01*
X13538Y7533D01*
D02*
G37*
G36*
X21640Y7290D02*
Y7251D01*
X21679D01*
X21679Y7252D01*
X21663Y7274D01*
X21641Y7290D01*
X21640Y7290D01*
D02*
G37*
G36*
X21132D02*
Y7251D01*
X21171D01*
X21171Y7252D01*
X21155Y7274D01*
X21133Y7290D01*
X21132Y7290D01*
D02*
G37*
G36*
X21540D02*
X21539Y7290D01*
X21517Y7274D01*
X21501Y7252D01*
X21501Y7251D01*
X21540D01*
Y7290D01*
D02*
G37*
G36*
X21032D02*
X21031Y7290D01*
X21009Y7274D01*
X20993Y7252D01*
X20993Y7251D01*
X21032D01*
Y7290D01*
D02*
G37*
G36*
X21679Y7151D02*
X21640D01*
Y7111D01*
X21641Y7112D01*
X21663Y7128D01*
X21679Y7150D01*
X21679Y7151D01*
D02*
G37*
G36*
X21171D02*
X21132D01*
Y7111D01*
X21133Y7112D01*
X21155Y7128D01*
X21171Y7150D01*
X21171Y7151D01*
D02*
G37*
G36*
X21540D02*
X21501D01*
X21501Y7150D01*
X21517Y7128D01*
X21539Y7112D01*
X21540Y7111D01*
Y7151D01*
D02*
G37*
G36*
X21032D02*
X20993D01*
X20993Y7150D01*
X21009Y7128D01*
X21031Y7112D01*
X21032Y7111D01*
Y7151D01*
D02*
G37*
G36*
X16510Y7304D02*
X16483Y7300D01*
X16459Y7290D01*
X16437Y7274D01*
X16421Y7252D01*
X16411Y7227D01*
X16407Y7201D01*
X16411Y7174D01*
X16421Y7150D01*
X16437Y7128D01*
X16459Y7112D01*
X16483Y7102D01*
X16510Y7098D01*
X16537Y7102D01*
X16561Y7112D01*
X16583Y7128D01*
X16599Y7150D01*
X16609Y7174D01*
X16613Y7201D01*
X16609Y7227D01*
X16599Y7252D01*
X16583Y7274D01*
X16561Y7290D01*
X16537Y7300D01*
X16510Y7304D01*
D02*
G37*
G36*
X16002D02*
X15975Y7300D01*
X15951Y7290D01*
X15929Y7274D01*
X15913Y7252D01*
X15903Y7227D01*
X15899Y7201D01*
X15903Y7174D01*
X15913Y7150D01*
X15929Y7128D01*
X15951Y7112D01*
X15975Y7102D01*
X16002Y7098D01*
X16029Y7102D01*
X16053Y7112D01*
X16075Y7128D01*
X16091Y7150D01*
X16101Y7174D01*
X16105Y7201D01*
X16101Y7227D01*
X16091Y7252D01*
X16075Y7274D01*
X16053Y7290D01*
X16029Y7300D01*
X16002Y7304D01*
D02*
G37*
G36*
X12446D02*
X12419Y7300D01*
X12395Y7290D01*
X12373Y7274D01*
X12357Y7252D01*
X12347Y7227D01*
X12343Y7201D01*
X12347Y7174D01*
X12357Y7150D01*
X12373Y7128D01*
X12395Y7112D01*
X12419Y7102D01*
X12446Y7098D01*
X12473Y7102D01*
X12497Y7112D01*
X12519Y7128D01*
X12535Y7150D01*
X12545Y7174D01*
X12549Y7201D01*
X12545Y7227D01*
X12535Y7252D01*
X12519Y7274D01*
X12497Y7290D01*
X12473Y7300D01*
X12446Y7304D01*
D02*
G37*
G36*
X11938D02*
X11911Y7300D01*
X11887Y7290D01*
X11865Y7274D01*
X11849Y7252D01*
X11839Y7227D01*
X11835Y7201D01*
X11839Y7174D01*
X11849Y7150D01*
X11865Y7128D01*
X11887Y7112D01*
X11911Y7102D01*
X11938Y7098D01*
X11965Y7102D01*
X11989Y7112D01*
X12011Y7128D01*
X12027Y7150D01*
X12037Y7174D01*
X12041Y7201D01*
X12037Y7227D01*
X12027Y7252D01*
X12011Y7274D01*
X11989Y7290D01*
X11965Y7300D01*
X11938Y7304D01*
D02*
G37*
G36*
X21640Y7036D02*
Y6997D01*
X21679D01*
X21679Y6998D01*
X21663Y7020D01*
X21641Y7036D01*
X21640Y7036D01*
D02*
G37*
G36*
X21132D02*
Y6997D01*
X21171D01*
X21171Y6998D01*
X21155Y7020D01*
X21133Y7036D01*
X21132Y7036D01*
D02*
G37*
G36*
X21540D02*
X21539Y7036D01*
X21517Y7020D01*
X21501Y6998D01*
X21501Y6997D01*
X21540D01*
Y7036D01*
D02*
G37*
G36*
X21032D02*
X21031Y7036D01*
X21009Y7020D01*
X20993Y6998D01*
X20993Y6997D01*
X21032D01*
Y7036D01*
D02*
G37*
G36*
X21679Y6897D02*
X21640D01*
Y6857D01*
X21641Y6858D01*
X21663Y6874D01*
X21679Y6896D01*
X21679Y6897D01*
D02*
G37*
G36*
X21171D02*
X21132D01*
Y6857D01*
X21133Y6858D01*
X21155Y6874D01*
X21171Y6896D01*
X21171Y6897D01*
D02*
G37*
G36*
X21540D02*
X21501D01*
X21501Y6896D01*
X21517Y6874D01*
X21539Y6858D01*
X21540Y6857D01*
Y6897D01*
D02*
G37*
G36*
X21032D02*
X20993D01*
X20993Y6896D01*
X21009Y6874D01*
X21031Y6858D01*
X21032Y6857D01*
Y6897D01*
D02*
G37*
G36*
X16510Y7050D02*
X16483Y7046D01*
X16459Y7036D01*
X16437Y7020D01*
X16421Y6998D01*
X16411Y6973D01*
X16407Y6947D01*
X16411Y6920D01*
X16421Y6896D01*
X16437Y6874D01*
X16459Y6858D01*
X16483Y6848D01*
X16510Y6844D01*
X16537Y6848D01*
X16561Y6858D01*
X16583Y6874D01*
X16599Y6896D01*
X16609Y6920D01*
X16613Y6947D01*
X16609Y6973D01*
X16599Y6998D01*
X16583Y7020D01*
X16561Y7036D01*
X16537Y7046D01*
X16510Y7050D01*
D02*
G37*
G36*
X16002D02*
X15975Y7046D01*
X15951Y7036D01*
X15929Y7020D01*
X15913Y6998D01*
X15903Y6973D01*
X15899Y6947D01*
X15903Y6920D01*
X15913Y6896D01*
X15929Y6874D01*
X15951Y6858D01*
X15975Y6848D01*
X16002Y6844D01*
X16029Y6848D01*
X16053Y6858D01*
X16075Y6874D01*
X16091Y6896D01*
X16101Y6920D01*
X16105Y6947D01*
X16101Y6973D01*
X16091Y6998D01*
X16075Y7020D01*
X16053Y7036D01*
X16029Y7046D01*
X16002Y7050D01*
D02*
G37*
G36*
X12446D02*
X12419Y7046D01*
X12395Y7036D01*
X12373Y7020D01*
X12357Y6998D01*
X12347Y6973D01*
X12343Y6947D01*
X12347Y6920D01*
X12357Y6896D01*
X12373Y6874D01*
X12395Y6858D01*
X12419Y6848D01*
X12446Y6844D01*
X12473Y6848D01*
X12497Y6858D01*
X12519Y6874D01*
X12535Y6896D01*
X12545Y6920D01*
X12549Y6947D01*
X12545Y6973D01*
X12535Y6998D01*
X12519Y7020D01*
X12497Y7036D01*
X12473Y7046D01*
X12446Y7050D01*
D02*
G37*
G36*
X11938D02*
X11911Y7046D01*
X11887Y7036D01*
X11865Y7020D01*
X11849Y6998D01*
X11839Y6973D01*
X11835Y6947D01*
X11839Y6920D01*
X11849Y6896D01*
X11865Y6874D01*
X11887Y6858D01*
X11911Y6848D01*
X11938Y6844D01*
X11965Y6848D01*
X11989Y6858D01*
X12011Y6874D01*
X12027Y6896D01*
X12037Y6920D01*
X12041Y6947D01*
X12037Y6973D01*
X12027Y6998D01*
X12011Y7020D01*
X11989Y7036D01*
X11965Y7046D01*
X11938Y7050D01*
D02*
G37*
G36*
X21640Y6782D02*
Y6743D01*
X21679D01*
X21679Y6744D01*
X21663Y6766D01*
X21641Y6782D01*
X21640Y6782D01*
D02*
G37*
G36*
X21132D02*
Y6743D01*
X21171D01*
X21171Y6744D01*
X21155Y6766D01*
X21133Y6782D01*
X21132Y6782D01*
D02*
G37*
G36*
X21540D02*
X21539Y6782D01*
X21517Y6766D01*
X21501Y6744D01*
X21501Y6743D01*
X21540D01*
Y6782D01*
D02*
G37*
G36*
X21032D02*
X21031Y6782D01*
X21009Y6766D01*
X20993Y6744D01*
X20993Y6743D01*
X21032D01*
Y6782D01*
D02*
G37*
G36*
X21679Y6643D02*
X21640D01*
Y6603D01*
X21641Y6604D01*
X21663Y6620D01*
X21679Y6642D01*
X21679Y6643D01*
D02*
G37*
G36*
X21171D02*
X21132D01*
Y6603D01*
X21133Y6604D01*
X21155Y6620D01*
X21171Y6642D01*
X21171Y6643D01*
D02*
G37*
G36*
X21540D02*
X21501D01*
X21501Y6642D01*
X21517Y6620D01*
X21539Y6604D01*
X21540Y6603D01*
Y6643D01*
D02*
G37*
G36*
X21032D02*
X20993D01*
X20993Y6642D01*
X21009Y6620D01*
X21031Y6604D01*
X21032Y6603D01*
Y6643D01*
D02*
G37*
G36*
X16510Y6796D02*
X16483Y6792D01*
X16459Y6782D01*
X16437Y6766D01*
X16421Y6744D01*
X16411Y6719D01*
X16407Y6693D01*
X16411Y6666D01*
X16421Y6642D01*
X16437Y6620D01*
X16459Y6604D01*
X16483Y6594D01*
X16510Y6590D01*
X16537Y6594D01*
X16561Y6604D01*
X16583Y6620D01*
X16599Y6642D01*
X16609Y6666D01*
X16613Y6693D01*
X16609Y6719D01*
X16599Y6744D01*
X16583Y6766D01*
X16561Y6782D01*
X16537Y6792D01*
X16510Y6796D01*
D02*
G37*
G36*
X16002D02*
X15975Y6792D01*
X15951Y6782D01*
X15929Y6766D01*
X15913Y6744D01*
X15903Y6719D01*
X15899Y6693D01*
X15903Y6666D01*
X15913Y6642D01*
X15929Y6620D01*
X15951Y6604D01*
X15975Y6594D01*
X16002Y6590D01*
X16029Y6594D01*
X16053Y6604D01*
X16075Y6620D01*
X16091Y6642D01*
X16101Y6666D01*
X16105Y6693D01*
X16101Y6719D01*
X16091Y6744D01*
X16075Y6766D01*
X16053Y6782D01*
X16029Y6792D01*
X16002Y6796D01*
D02*
G37*
G36*
X12446D02*
X12419Y6792D01*
X12395Y6782D01*
X12373Y6766D01*
X12357Y6744D01*
X12347Y6719D01*
X12343Y6693D01*
X12347Y6666D01*
X12357Y6642D01*
X12373Y6620D01*
X12395Y6604D01*
X12419Y6594D01*
X12446Y6590D01*
X12473Y6594D01*
X12497Y6604D01*
X12519Y6620D01*
X12535Y6642D01*
X12545Y6666D01*
X12549Y6693D01*
X12545Y6719D01*
X12535Y6744D01*
X12519Y6766D01*
X12497Y6782D01*
X12473Y6792D01*
X12446Y6796D01*
D02*
G37*
G36*
X11938D02*
X11911Y6792D01*
X11887Y6782D01*
X11865Y6766D01*
X11849Y6744D01*
X11839Y6719D01*
X11835Y6693D01*
X11839Y6666D01*
X11849Y6642D01*
X11865Y6620D01*
X11887Y6604D01*
X11911Y6594D01*
X11938Y6590D01*
X11965Y6594D01*
X11989Y6604D01*
X12011Y6620D01*
X12027Y6642D01*
X12037Y6666D01*
X12041Y6693D01*
X12037Y6719D01*
X12027Y6744D01*
X12011Y6766D01*
X11989Y6782D01*
X11965Y6792D01*
X11938Y6796D01*
D02*
G37*
G36*
X17460Y6991D02*
X17419Y6987D01*
X17378Y6978D01*
X17340Y6962D01*
X17305Y6940D01*
X17273Y6913D01*
X17246Y6882D01*
X17224Y6846D01*
X17209Y6808D01*
X17199Y6767D01*
X17196Y6726D01*
X17199Y6685D01*
X17209Y6644D01*
X17224Y6606D01*
X17246Y6571D01*
X17273Y6539D01*
X17305Y6512D01*
X17340Y6491D01*
X17378Y6475D01*
X17419Y6465D01*
X17460Y6462D01*
X17501Y6465D01*
X17542Y6475D01*
X17580Y6491D01*
X17615Y6512D01*
X17647Y6539D01*
X17674Y6571D01*
X17696Y6606D01*
X17711Y6644D01*
X17721Y6685D01*
X17724Y6726D01*
X17721Y6767D01*
X17711Y6808D01*
X17696Y6846D01*
X17674Y6882D01*
X17647Y6913D01*
X17615Y6940D01*
X17580Y6962D01*
X17542Y6978D01*
X17501Y6987D01*
X17460Y6991D01*
D02*
G37*
G36*
X15052D02*
X15011Y6987D01*
X14970Y6978D01*
X14932Y6962D01*
X14897Y6940D01*
X14865Y6913D01*
X14838Y6882D01*
X14816Y6846D01*
X14801Y6808D01*
X14791Y6767D01*
X14788Y6726D01*
X14791Y6685D01*
X14801Y6644D01*
X14816Y6606D01*
X14838Y6571D01*
X14865Y6539D01*
X14897Y6512D01*
X14932Y6491D01*
X14970Y6475D01*
X15011Y6465D01*
X15052Y6462D01*
X15093Y6465D01*
X15134Y6475D01*
X15172Y6491D01*
X15207Y6512D01*
X15239Y6539D01*
X15266Y6571D01*
X15288Y6606D01*
X15303Y6644D01*
X15313Y6685D01*
X15316Y6726D01*
X15313Y6767D01*
X15303Y6808D01*
X15288Y6846D01*
X15266Y6882D01*
X15239Y6913D01*
X15207Y6940D01*
X15172Y6962D01*
X15134Y6978D01*
X15093Y6987D01*
X15052Y6991D01*
D02*
G37*
G36*
X13396D02*
X13355Y6987D01*
X13314Y6978D01*
X13276Y6962D01*
X13241Y6940D01*
X13209Y6913D01*
X13182Y6882D01*
X13160Y6846D01*
X13145Y6808D01*
X13135Y6767D01*
X13132Y6726D01*
X13135Y6685D01*
X13145Y6644D01*
X13160Y6606D01*
X13182Y6571D01*
X13209Y6539D01*
X13241Y6512D01*
X13276Y6491D01*
X13314Y6475D01*
X13355Y6465D01*
X13396Y6462D01*
X13437Y6465D01*
X13478Y6475D01*
X13516Y6491D01*
X13551Y6512D01*
X13583Y6539D01*
X13610Y6571D01*
X13632Y6606D01*
X13647Y6644D01*
X13657Y6685D01*
X13660Y6726D01*
X13657Y6767D01*
X13647Y6808D01*
X13632Y6846D01*
X13610Y6882D01*
X13583Y6913D01*
X13551Y6940D01*
X13516Y6962D01*
X13478Y6978D01*
X13437Y6987D01*
X13396Y6991D01*
D02*
G37*
G36*
X10988D02*
X10947Y6987D01*
X10906Y6978D01*
X10868Y6962D01*
X10833Y6940D01*
X10801Y6913D01*
X10774Y6882D01*
X10752Y6846D01*
X10737Y6808D01*
X10727Y6767D01*
X10724Y6726D01*
X10727Y6685D01*
X10737Y6644D01*
X10752Y6606D01*
X10774Y6571D01*
X10801Y6539D01*
X10833Y6512D01*
X10868Y6491D01*
X10906Y6475D01*
X10947Y6465D01*
X10988Y6462D01*
X11029Y6465D01*
X11070Y6475D01*
X11108Y6491D01*
X11143Y6512D01*
X11175Y6539D01*
X11202Y6571D01*
X11224Y6606D01*
X11239Y6644D01*
X11249Y6685D01*
X11252Y6726D01*
X11249Y6767D01*
X11239Y6808D01*
X11224Y6846D01*
X11202Y6882D01*
X11175Y6913D01*
X11143Y6940D01*
X11108Y6962D01*
X11070Y6978D01*
X11029Y6987D01*
X10988Y6991D01*
D02*
G37*
%LPD*%
G36*
X21717Y14224D02*
X12548Y14224D01*
X10846Y14224D01*
Y14681D01*
X21717Y14681D01*
X21717Y14224D01*
D02*
G37*
G36*
X17027Y12636D02*
Y12510D01*
X17014Y12506D01*
X17009Y12513D01*
X16989Y12528D01*
X16966Y12538D01*
X16942Y12541D01*
X16917Y12538D01*
X16894Y12528D01*
X16875Y12513D01*
X16860Y12493D01*
X16850Y12471D01*
X16847Y12446D01*
X16850Y12421D01*
X16860Y12399D01*
X16875Y12379D01*
X16882Y12373D01*
X16877Y12361D01*
X16802D01*
X16786Y12357D01*
X16773Y12348D01*
X16546Y12122D01*
X16537Y12126D01*
X16510Y12130D01*
X16483Y12126D01*
X16459Y12116D01*
X16437Y12100D01*
X16421Y12078D01*
X16412Y12056D01*
X16399Y12059D01*
Y12249D01*
X16412Y12252D01*
X16421Y12230D01*
X16437Y12208D01*
X16459Y12192D01*
X16483Y12182D01*
X16510Y12178D01*
X16537Y12182D01*
X16561Y12192D01*
X16583Y12208D01*
X16599Y12230D01*
X16609Y12254D01*
X16613Y12281D01*
X16609Y12307D01*
X16599Y12332D01*
X16583Y12354D01*
X16570Y12364D01*
X16574Y12376D01*
X16660D01*
X16676Y12379D01*
X16689Y12388D01*
X16911Y12611D01*
X16917Y12608D01*
X16942Y12605D01*
X16966Y12608D01*
X16989Y12618D01*
X17009Y12633D01*
X17014Y12640D01*
X17027Y12636D01*
D02*
G37*
G36*
X12963D02*
Y12510D01*
X12950Y12506D01*
X12945Y12513D01*
X12925Y12528D01*
X12902Y12538D01*
X12878Y12541D01*
X12853Y12538D01*
X12830Y12528D01*
X12811Y12513D01*
X12796Y12493D01*
X12786Y12471D01*
X12783Y12446D01*
X12786Y12421D01*
X12796Y12399D01*
X12811Y12379D01*
X12818Y12373D01*
X12813Y12361D01*
X12738D01*
X12722Y12357D01*
X12709Y12348D01*
X12482Y12122D01*
X12473Y12126D01*
X12446Y12130D01*
X12419Y12126D01*
X12395Y12116D01*
X12373Y12100D01*
X12357Y12078D01*
X12348Y12056D01*
X12335Y12059D01*
Y12249D01*
X12348Y12252D01*
X12357Y12230D01*
X12373Y12208D01*
X12395Y12192D01*
X12419Y12182D01*
X12446Y12178D01*
X12473Y12182D01*
X12497Y12192D01*
X12519Y12208D01*
X12535Y12230D01*
X12545Y12254D01*
X12549Y12281D01*
X12545Y12307D01*
X12535Y12332D01*
X12526Y12344D01*
X12532Y12356D01*
X12576D01*
X12592Y12359D01*
X12605Y12368D01*
X12847Y12611D01*
X12853Y12608D01*
X12878Y12605D01*
X12902Y12608D01*
X12925Y12618D01*
X12945Y12633D01*
X12950Y12640D01*
X12963Y12636D01*
D02*
G37*
D10*
X14910Y8253D02*
Y8530D01*
X15118Y8738D01*
X15367D01*
X15875Y8230D01*
X16002D02*
X16510D01*
X15875D02*
X16002D01*
X14910Y7422D02*
Y7699D01*
Y7422D02*
X15118Y7214D01*
X15367D01*
X15875Y7722D01*
X16510D02*
Y7976D01*
X16002D02*
X16510D01*
X16002Y7722D02*
X16510D01*
X15875D02*
X16002D01*
X11811D02*
X11938D01*
X12446D01*
X11938Y7976D02*
X12446D01*
Y7722D02*
Y7976D01*
X11303Y7214D02*
X11811Y7722D01*
X11054Y7214D02*
X11303D01*
X10846Y7422D02*
X11054Y7214D01*
X10846Y7422D02*
Y7699D01*
X11811Y8230D02*
X11938D01*
X12446D01*
X11303Y8738D02*
X11811Y8230D01*
X11054Y8738D02*
X11303D01*
X10846Y8530D02*
X11054Y8738D01*
X10846Y8253D02*
Y8530D01*
D11*
X21590Y13551D02*
X21855D01*
X21590Y13297D02*
X22123D01*
X21590Y13564D02*
Y13566D01*
X11938Y13297D02*
X12446D01*
X16002D01*
X16510D01*
X21590D01*
X21082D02*
X21590D01*
X12446Y14059D02*
X16002D01*
X16510D01*
X11938D02*
X12446D01*
X16510D02*
X21107D01*
X21082Y14072D02*
X21590D01*
X11938Y13551D02*
X12446D01*
X12448Y13566D02*
X21590D01*
X17196Y10211D02*
X17247D01*
X17450Y10414D01*
Y11811D01*
X17196Y12065D02*
X17450Y11811D01*
X13132Y12065D02*
X13386Y11811D01*
Y10465D02*
Y11811D01*
X13132Y10211D02*
X13386Y10465D01*
D12*
X16599Y10846D02*
X16942D01*
X16510Y10757D02*
X16599Y10846D01*
X16548Y10973D02*
X17196D01*
X16510Y10998D02*
Y11011D01*
X16660Y12418D02*
X16942Y12700D01*
X16431Y12418D02*
X16660D01*
X16358Y12344D02*
X16431Y12418D01*
X16358Y11925D02*
Y12344D01*
Y11925D02*
X16510Y11773D01*
X17069Y12700D02*
X17196Y12827D01*
X16510Y12027D02*
X16802Y12319D01*
X17069Y12395D02*
Y12700D01*
X16993Y12319D02*
X17069Y12395D01*
X16802Y12319D02*
X16993D01*
X12484Y10973D02*
X13132D01*
X12446Y11011D02*
X12484Y10973D01*
X12535Y10846D02*
X12878D01*
X12446Y10757D02*
X12535Y10846D01*
X12576Y12398D02*
X12878Y12700D01*
X12398Y12398D02*
X12576D01*
X12294Y12294D02*
X12398Y12398D01*
X12294Y11925D02*
Y12294D01*
Y11925D02*
X12446Y11773D01*
X13005Y12700D02*
X13132Y12827D01*
X13005Y12395D02*
Y12700D01*
X12929Y12319D02*
X13005Y12395D01*
X12738Y12319D02*
X12929D01*
X12446Y12027D02*
X12738Y12319D01*
D14*
X22123Y13486D02*
Y13589D01*
X21998Y13715D02*
X22123Y13589D01*
X21869Y13715D02*
X21998D01*
X21590Y14059D02*
X21730D01*
X21869Y13919D01*
Y13715D02*
Y13919D01*
D16*
X9474Y4140D02*
X22911Y4140D01*
X22911Y17120D02*
X22911Y4140D01*
X9474Y17120D02*
X22911Y17120D01*
X9474Y17120D02*
X9474Y4140D01*
D17*
X13538Y7422D02*
D03*
X13254Y7560D02*
D03*
X13538Y7699D02*
D03*
X13254Y7837D02*
D03*
X13538Y7976D02*
D03*
X13254Y8114D02*
D03*
X13538Y8253D02*
D03*
X13254Y8391D02*
D03*
X10846Y8530D02*
D03*
X11130Y8391D02*
D03*
X10846Y8253D02*
D03*
X11130Y8114D02*
D03*
X10846Y7976D02*
D03*
X11130Y7837D02*
D03*
X10846Y7699D02*
D03*
X11130Y7560D02*
D03*
X17602Y7422D02*
D03*
X17318Y7560D02*
D03*
X17602Y7699D02*
D03*
X17318Y7837D02*
D03*
X17602Y7976D02*
D03*
X17318Y8114D02*
D03*
X17602Y8253D02*
D03*
X17318Y8391D02*
D03*
X14910Y8530D02*
D03*
X15194Y8391D02*
D03*
X14910Y8253D02*
D03*
X15194Y8114D02*
D03*
X14910Y7976D02*
D03*
X15194Y7837D02*
D03*
X14910Y7699D02*
D03*
X15194Y7560D02*
D03*
D18*
X13538Y8530D02*
D03*
X10846Y7422D02*
D03*
X17602Y8530D02*
D03*
X14910Y7422D02*
D03*
D19*
X13396Y9225D02*
D03*
Y6726D02*
D03*
X10988D02*
D03*
Y9225D02*
D03*
X17460D02*
D03*
Y6726D02*
D03*
X15052D02*
D03*
Y9225D02*
D03*
D20*
X12446Y14567D02*
D03*
Y14313D02*
D03*
Y14059D02*
D03*
Y13805D02*
D03*
Y13551D02*
D03*
Y13297D02*
D03*
Y13043D02*
D03*
Y12789D02*
D03*
Y12535D02*
D03*
Y12281D02*
D03*
Y12027D02*
D03*
Y11773D02*
D03*
Y11519D02*
D03*
Y11265D02*
D03*
Y11011D02*
D03*
Y10757D02*
D03*
Y10503D02*
D03*
Y10249D02*
D03*
Y9995D02*
D03*
Y9741D02*
D03*
Y9487D02*
D03*
Y9233D02*
D03*
Y8979D02*
D03*
Y8725D02*
D03*
Y8471D02*
D03*
Y8217D02*
D03*
Y7963D02*
D03*
Y7709D02*
D03*
Y7455D02*
D03*
Y7201D02*
D03*
Y6947D02*
D03*
Y6693D02*
D03*
X11938Y14567D02*
D03*
Y14313D02*
D03*
Y14059D02*
D03*
Y13805D02*
D03*
Y13551D02*
D03*
Y13297D02*
D03*
Y13043D02*
D03*
Y12789D02*
D03*
Y12535D02*
D03*
Y12281D02*
D03*
Y12027D02*
D03*
Y11773D02*
D03*
Y11519D02*
D03*
Y11265D02*
D03*
Y11011D02*
D03*
Y10757D02*
D03*
Y10503D02*
D03*
Y10249D02*
D03*
Y9995D02*
D03*
Y9741D02*
D03*
Y9487D02*
D03*
Y9233D02*
D03*
Y8979D02*
D03*
Y8725D02*
D03*
Y8471D02*
D03*
Y8217D02*
D03*
Y7963D02*
D03*
Y7709D02*
D03*
Y7455D02*
D03*
Y7201D02*
D03*
Y6947D02*
D03*
Y6693D02*
D03*
X21590Y14567D02*
D03*
Y14313D02*
D03*
Y14059D02*
D03*
Y13805D02*
D03*
Y13551D02*
D03*
Y13297D02*
D03*
Y13043D02*
D03*
Y12789D02*
D03*
Y12535D02*
D03*
Y12281D02*
D03*
Y12027D02*
D03*
Y11773D02*
D03*
Y11519D02*
D03*
Y11265D02*
D03*
Y11011D02*
D03*
Y10757D02*
D03*
Y10503D02*
D03*
Y10249D02*
D03*
Y9995D02*
D03*
Y9741D02*
D03*
Y9487D02*
D03*
Y9233D02*
D03*
Y8979D02*
D03*
Y8725D02*
D03*
Y8471D02*
D03*
Y8217D02*
D03*
Y7963D02*
D03*
Y7709D02*
D03*
Y7455D02*
D03*
Y7201D02*
D03*
Y6947D02*
D03*
Y6693D02*
D03*
X21082Y14567D02*
D03*
Y14313D02*
D03*
Y14059D02*
D03*
Y13805D02*
D03*
Y13551D02*
D03*
Y13297D02*
D03*
Y13043D02*
D03*
Y12789D02*
D03*
Y12535D02*
D03*
Y12281D02*
D03*
Y12027D02*
D03*
Y11773D02*
D03*
Y11519D02*
D03*
Y11265D02*
D03*
Y11011D02*
D03*
Y10757D02*
D03*
Y10503D02*
D03*
Y10249D02*
D03*
Y9995D02*
D03*
Y9741D02*
D03*
Y9487D02*
D03*
Y9233D02*
D03*
Y8979D02*
D03*
Y8725D02*
D03*
Y8471D02*
D03*
Y8217D02*
D03*
Y7963D02*
D03*
Y7709D02*
D03*
Y7455D02*
D03*
Y7201D02*
D03*
Y6947D02*
D03*
Y6693D02*
D03*
X16510Y14567D02*
D03*
Y14313D02*
D03*
Y14059D02*
D03*
Y13805D02*
D03*
Y13551D02*
D03*
Y13297D02*
D03*
Y13043D02*
D03*
Y12789D02*
D03*
Y12535D02*
D03*
Y12281D02*
D03*
Y12027D02*
D03*
Y11773D02*
D03*
Y11519D02*
D03*
Y11265D02*
D03*
Y11011D02*
D03*
Y10757D02*
D03*
Y10503D02*
D03*
Y10249D02*
D03*
Y9995D02*
D03*
Y9741D02*
D03*
Y9487D02*
D03*
Y9233D02*
D03*
Y8979D02*
D03*
Y8725D02*
D03*
Y8471D02*
D03*
Y8217D02*
D03*
Y7963D02*
D03*
Y7709D02*
D03*
Y7455D02*
D03*
Y7201D02*
D03*
Y6947D02*
D03*
Y6693D02*
D03*
X16002Y14567D02*
D03*
Y14313D02*
D03*
Y14059D02*
D03*
Y13805D02*
D03*
Y13551D02*
D03*
Y13297D02*
D03*
Y13043D02*
D03*
Y12789D02*
D03*
Y12535D02*
D03*
Y12281D02*
D03*
Y12027D02*
D03*
Y11773D02*
D03*
Y11519D02*
D03*
Y11265D02*
D03*
Y11011D02*
D03*
Y10757D02*
D03*
Y10503D02*
D03*
Y10249D02*
D03*
Y9995D02*
D03*
Y9741D02*
D03*
Y9487D02*
D03*
Y9233D02*
D03*
Y8979D02*
D03*
Y8725D02*
D03*
Y8471D02*
D03*
Y8217D02*
D03*
Y7963D02*
D03*
Y7709D02*
D03*
Y7455D02*
D03*
Y7201D02*
D03*
Y6947D02*
D03*
Y6693D02*
D03*
X19960Y12270D02*
D03*
Y12520D02*
D03*
X20281D02*
D03*
Y12270D02*
D03*
D21*
X13767Y9957D02*
D03*
Y11100D02*
D03*
Y12954D02*
D03*
Y11811D02*
D03*
X17831Y12954D02*
D03*
Y11811D02*
D03*
Y9957D02*
D03*
Y11100D02*
D03*
D22*
X12878Y10084D02*
D03*
X13132Y10211D02*
D03*
X12878Y10338D02*
D03*
X13132Y10465D02*
D03*
X12878Y10592D02*
D03*
X13132Y10719D02*
D03*
X12878Y10846D02*
D03*
Y12700D02*
D03*
X13132Y12573D02*
D03*
X12878Y12446D02*
D03*
X13132Y12319D02*
D03*
X12878Y12192D02*
D03*
X13132Y12065D02*
D03*
X12878Y11938D02*
D03*
X16942Y12700D02*
D03*
X17196Y12573D02*
D03*
X16942Y12446D02*
D03*
X17196Y12319D02*
D03*
X16942Y12192D02*
D03*
X17196Y12065D02*
D03*
X16942Y11938D02*
D03*
Y10084D02*
D03*
X17196Y10211D02*
D03*
X16942Y10338D02*
D03*
X17196Y10465D02*
D03*
X16942Y10592D02*
D03*
X17196Y10719D02*
D03*
X16942Y10846D02*
D03*
D23*
X13132Y10973D02*
D03*
Y12827D02*
D03*
X17196D02*
D03*
Y10973D02*
D03*
D24*
X10744Y15088D02*
D03*
Y14834D02*
D03*
Y14580D02*
D03*
D25*
X10998Y15088D02*
D03*
Y14834D02*
D03*
Y14580D02*
D03*
X18796Y4519D02*
D03*
X19304D02*
D03*
X18288D02*
D03*
X16764D02*
D03*
X17780D02*
D03*
X17272D02*
D03*
X15240D02*
D03*
X16256D02*
D03*
X15748D02*
D03*
X11176D02*
D03*
X11684D02*
D03*
X10668D02*
D03*
X12700D02*
D03*
X13208D02*
D03*
X12192D02*
D03*
X13716D02*
D03*
X14732D02*
D03*
X14224D02*
D03*
X10160D02*
D03*
X19304Y16741D02*
D03*
X18796D02*
D03*
X17780D02*
D03*
X18288D02*
D03*
X16256D02*
D03*
X15748D02*
D03*
X16764D02*
D03*
X17272D02*
D03*
X13208D02*
D03*
X12700D02*
D03*
X11684D02*
D03*
X12192D02*
D03*
X14224D02*
D03*
X13716D02*
D03*
X14732D02*
D03*
X15240D02*
D03*
X10160D02*
D03*
X10668D02*
D03*
X11176D02*
D03*
X19812Y4519D02*
D03*
Y16741D02*
D03*
X20828D02*
D03*
X20320D02*
D03*
X21844D02*
D03*
X21336D02*
D03*
X22352D02*
D03*
X20320Y4519D02*
D03*
X20828D02*
D03*
X21336D02*
D03*
X22352D02*
D03*
X21844D02*
D03*
D26*
X21869Y13715D02*
D03*
Y13565D02*
D03*
X22123Y13486D02*
D03*
Y13336D02*
D03*
M02*
