G04 Layer_Color=32896*
%FSLAX42Y42*%
%MOMM*%
G71*
G01*
G75*
%ADD12C,0.70*%
%ADD25C,0.25*%
%ADD37C,0.20*%
%ADD38C,0.15*%
D12*
X4648Y5283D02*
X46812Y5283D01*
Y18263D01*
X4648Y18263D02*
X46812Y18263D01*
X4648Y18263D02*
X4648Y5283D01*
D25*
X40386Y10901D02*
X41910D01*
X40386D02*
Y12409D01*
X41910Y10901D02*
Y12409D01*
X40386D02*
X41910D01*
X44802Y13005D02*
Y14529D01*
X43294Y13005D02*
X44802D01*
X43294Y14529D02*
X44802D01*
X43294Y13005D02*
Y14529D01*
X36322Y10901D02*
X37846D01*
X36322D02*
Y12409D01*
X37846Y10901D02*
Y12409D01*
X36322D02*
X37846D01*
X40738Y13005D02*
Y14529D01*
X39230Y13005D02*
X40738D01*
X39230Y14529D02*
X40738D01*
X39230Y13005D02*
Y14529D01*
X32258Y10901D02*
X33782D01*
X32258D02*
Y12409D01*
X33782Y10901D02*
Y12409D01*
X32258D02*
X33782D01*
X36674Y13005D02*
Y14529D01*
X35166Y13005D02*
X36674D01*
X35166Y14529D02*
X36674D01*
X35166Y13005D02*
Y14529D01*
X28194Y10901D02*
X29718D01*
X28194D02*
Y12409D01*
X29718Y10901D02*
Y12409D01*
X28194D02*
X29718D01*
X32610Y13005D02*
Y14529D01*
X31102Y13005D02*
X32610D01*
X31102Y14529D02*
X32610D01*
X31102Y13005D02*
Y14529D01*
X24130Y10901D02*
X25654D01*
X24130D02*
Y12409D01*
X25654Y10901D02*
Y12409D01*
X24130D02*
X25654D01*
X28546Y13005D02*
Y14529D01*
X27038Y13005D02*
X28546D01*
X27038Y14529D02*
X28546D01*
X27038Y13005D02*
Y14529D01*
X20066Y10901D02*
X21590D01*
X20066D02*
Y12409D01*
X21590Y10901D02*
Y12409D01*
X20066D02*
X21590D01*
X24482Y13005D02*
Y14529D01*
X22974Y13005D02*
X24482D01*
X22974Y14529D02*
X24482D01*
X22974Y13005D02*
Y14529D01*
X16002Y10901D02*
X17526D01*
X16002D02*
Y12409D01*
X17526Y10901D02*
Y12409D01*
X16002D02*
X17526D01*
X20418Y13005D02*
Y14529D01*
X18910Y13005D02*
X20418D01*
X18910Y14529D02*
X20418D01*
X18910Y13005D02*
Y14529D01*
X16354Y13005D02*
Y14529D01*
X14846Y13005D02*
X16354D01*
X14846Y14529D02*
X16354D01*
X14846Y13005D02*
Y14529D01*
X11938Y10901D02*
X13462D01*
X11938D02*
Y12409D01*
X13462Y10901D02*
Y12409D01*
X11938D02*
X13462D01*
X41897Y12781D02*
Y12934D01*
X41821D01*
X41796Y12908D01*
Y12857D01*
X41821Y12832D01*
X41897D01*
X41847D02*
X41796Y12781D01*
X41643Y12934D02*
X41694D01*
X41669D01*
Y12807D01*
X41694Y12781D01*
X41720D01*
X41745Y12807D01*
X41491Y12781D02*
X41593D01*
X41491Y12883D01*
Y12908D01*
X41516Y12934D01*
X41567D01*
X41593Y12908D01*
X41440Y12756D02*
X41339D01*
X41186Y12908D02*
X41212Y12934D01*
X41263D01*
X41288Y12908D01*
Y12807D01*
X41263Y12781D01*
X41212D01*
X41186Y12807D01*
X41110Y12781D02*
X41059D01*
X41034Y12807D01*
Y12857D01*
X41059Y12883D01*
X41110D01*
X41136Y12857D01*
Y12807D01*
X41110Y12781D01*
X40983D02*
Y12883D01*
X40907D01*
X40882Y12857D01*
Y12781D01*
X40831D02*
Y12883D01*
X40755D01*
X40729Y12857D01*
Y12781D01*
X40678Y12908D02*
X40653Y12934D01*
X40602D01*
X40577Y12908D01*
Y12883D01*
X40602Y12857D01*
X40577Y12832D01*
Y12807D01*
X40602Y12781D01*
X40653D01*
X40678Y12807D01*
Y12832D01*
X40653Y12857D01*
X40678Y12883D01*
Y12908D01*
X40653Y12857D02*
X40602D01*
X45095Y14643D02*
Y14795D01*
X45019D01*
X44994Y14770D01*
Y14719D01*
X45019Y14694D01*
X45095D01*
X45044D02*
X44994Y14643D01*
X44841Y14795D02*
X44892D01*
X44867D01*
Y14668D01*
X44892Y14643D01*
X44917D01*
X44943Y14668D01*
X44790Y14643D02*
X44740D01*
X44765D01*
Y14795D01*
X44790Y14770D01*
X44664Y14618D02*
X44562D01*
X44410Y14770D02*
X44435Y14795D01*
X44486D01*
X44511Y14770D01*
Y14668D01*
X44486Y14643D01*
X44435D01*
X44410Y14668D01*
X44333Y14643D02*
X44283D01*
X44257Y14668D01*
Y14719D01*
X44283Y14745D01*
X44333D01*
X44359Y14719D01*
Y14668D01*
X44333Y14643D01*
X44206D02*
Y14745D01*
X44130D01*
X44105Y14719D01*
Y14643D01*
X44054D02*
Y14745D01*
X43978D01*
X43953Y14719D01*
Y14643D01*
X43902Y14770D02*
X43876Y14795D01*
X43826D01*
X43800Y14770D01*
Y14745D01*
X43826Y14719D01*
X43800Y14694D01*
Y14668D01*
X43826Y14643D01*
X43876D01*
X43902Y14668D01*
Y14694D01*
X43876Y14719D01*
X43902Y14745D01*
Y14770D01*
X43876Y14719D02*
X43826D01*
X45644Y6299D02*
Y6147D01*
X45568D01*
X45542Y6172D01*
Y6274D01*
X45568Y6299D01*
X45644D01*
X45491D02*
Y6147D01*
X45415D01*
X45390Y6172D01*
Y6198D01*
X45415Y6223D01*
X45491D01*
X45415D01*
X45390Y6248D01*
Y6274D01*
X45415Y6299D01*
X45491D01*
X45238Y6147D02*
X45339D01*
X45238Y6248D01*
Y6274D01*
X45263Y6299D01*
X45314D01*
X45339Y6274D01*
X45187Y6121D02*
X45085D01*
X44933Y6274D02*
X44958Y6299D01*
X45009D01*
X45034Y6274D01*
Y6172D01*
X45009Y6147D01*
X44958D01*
X44933Y6172D01*
X44857Y6147D02*
X44806D01*
X44780Y6172D01*
Y6223D01*
X44806Y6248D01*
X44857D01*
X44882Y6223D01*
Y6172D01*
X44857Y6147D01*
X44730D02*
Y6248D01*
X44654D01*
X44628Y6223D01*
Y6147D01*
X44577D02*
Y6248D01*
X44501D01*
X44476Y6223D01*
Y6147D01*
X44425Y6274D02*
X44400Y6299D01*
X44349D01*
X44323Y6274D01*
Y6248D01*
X44349Y6223D01*
X44323Y6198D01*
Y6172D01*
X44349Y6147D01*
X44400D01*
X44425Y6172D01*
Y6198D01*
X44400Y6223D01*
X44425Y6248D01*
Y6274D01*
X44400Y6223D02*
X44349D01*
X45720Y9423D02*
Y9271D01*
X45644D01*
X45618Y9296D01*
Y9398D01*
X45644Y9423D01*
X45720D01*
X45568D02*
Y9271D01*
X45491D01*
X45466Y9296D01*
Y9322D01*
X45491Y9347D01*
X45568D01*
X45491D01*
X45466Y9373D01*
Y9398D01*
X45491Y9423D01*
X45568D01*
X45415Y9271D02*
X45365D01*
X45390D01*
Y9423D01*
X45415Y9398D01*
X45288Y9246D02*
X45187D01*
X45034Y9398D02*
X45060Y9423D01*
X45111D01*
X45136Y9398D01*
Y9296D01*
X45111Y9271D01*
X45060D01*
X45034Y9296D01*
X44958Y9271D02*
X44907D01*
X44882Y9296D01*
Y9347D01*
X44907Y9373D01*
X44958D01*
X44984Y9347D01*
Y9296D01*
X44958Y9271D01*
X44831D02*
Y9373D01*
X44755D01*
X44730Y9347D01*
Y9271D01*
X44679D02*
Y9373D01*
X44603D01*
X44577Y9347D01*
Y9271D01*
X44527Y9398D02*
X44501Y9423D01*
X44450D01*
X44425Y9398D01*
Y9373D01*
X44450Y9347D01*
X44425Y9322D01*
Y9296D01*
X44450Y9271D01*
X44501D01*
X44527Y9296D01*
Y9322D01*
X44501Y9347D01*
X44527Y9373D01*
Y9398D01*
X44501Y9347D02*
X44450D01*
X37833Y12781D02*
Y12934D01*
X37757D01*
X37732Y12908D01*
Y12857D01*
X37757Y12832D01*
X37833D01*
X37783D02*
X37732Y12781D01*
X37579Y12934D02*
X37630D01*
X37605D01*
Y12807D01*
X37630Y12781D01*
X37656D01*
X37681Y12807D01*
X37427Y12781D02*
X37529D01*
X37427Y12883D01*
Y12908D01*
X37452Y12934D01*
X37503D01*
X37529Y12908D01*
X37376Y12756D02*
X37275D01*
X37122Y12908D02*
X37148Y12934D01*
X37199D01*
X37224Y12908D01*
Y12807D01*
X37199Y12781D01*
X37148D01*
X37122Y12807D01*
X37046Y12781D02*
X36995D01*
X36970Y12807D01*
Y12857D01*
X36995Y12883D01*
X37046D01*
X37072Y12857D01*
Y12807D01*
X37046Y12781D01*
X36919D02*
Y12883D01*
X36843D01*
X36818Y12857D01*
Y12781D01*
X36767D02*
Y12883D01*
X36691D01*
X36665Y12857D01*
Y12781D01*
X36614Y12934D02*
X36513D01*
Y12908D01*
X36614Y12807D01*
Y12781D01*
X41031Y14643D02*
Y14795D01*
X40955D01*
X40930Y14770D01*
Y14719D01*
X40955Y14694D01*
X41031D01*
X40980D02*
X40930Y14643D01*
X40777Y14795D02*
X40828D01*
X40803D01*
Y14668D01*
X40828Y14643D01*
X40853D01*
X40879Y14668D01*
X40726Y14643D02*
X40676D01*
X40701D01*
Y14795D01*
X40726Y14770D01*
X40599Y14618D02*
X40498D01*
X40346Y14770D02*
X40371Y14795D01*
X40422D01*
X40447Y14770D01*
Y14668D01*
X40422Y14643D01*
X40371D01*
X40346Y14668D01*
X40269Y14643D02*
X40219D01*
X40193Y14668D01*
Y14719D01*
X40219Y14745D01*
X40269D01*
X40295Y14719D01*
Y14668D01*
X40269Y14643D01*
X40142D02*
Y14745D01*
X40066D01*
X40041Y14719D01*
Y14643D01*
X39990D02*
Y14745D01*
X39914D01*
X39889Y14719D01*
Y14643D01*
X39838Y14795D02*
X39736D01*
Y14770D01*
X39838Y14668D01*
Y14643D01*
X41681Y6325D02*
Y6172D01*
X41605D01*
X41580Y6198D01*
Y6299D01*
X41605Y6325D01*
X41681D01*
X41529D02*
Y6172D01*
X41453D01*
X41427Y6198D01*
Y6223D01*
X41453Y6248D01*
X41529D01*
X41453D01*
X41427Y6274D01*
Y6299D01*
X41453Y6325D01*
X41529D01*
X41275Y6172D02*
X41377D01*
X41275Y6274D01*
Y6299D01*
X41301Y6325D01*
X41351D01*
X41377Y6299D01*
X41224Y6147D02*
X41123D01*
X40970Y6299D02*
X40996Y6325D01*
X41047D01*
X41072Y6299D01*
Y6198D01*
X41047Y6172D01*
X40996D01*
X40970Y6198D01*
X40894Y6172D02*
X40843D01*
X40818Y6198D01*
Y6248D01*
X40843Y6274D01*
X40894D01*
X40920Y6248D01*
Y6198D01*
X40894Y6172D01*
X40767D02*
Y6274D01*
X40691D01*
X40666Y6248D01*
Y6172D01*
X40615D02*
Y6274D01*
X40539D01*
X40513Y6248D01*
Y6172D01*
X40463Y6325D02*
X40361D01*
Y6299D01*
X40463Y6198D01*
Y6172D01*
X41631Y9423D02*
Y9271D01*
X41554D01*
X41529Y9296D01*
Y9398D01*
X41554Y9423D01*
X41631D01*
X41478D02*
Y9271D01*
X41402D01*
X41377Y9296D01*
Y9322D01*
X41402Y9347D01*
X41478D01*
X41402D01*
X41377Y9373D01*
Y9398D01*
X41402Y9423D01*
X41478D01*
X41326Y9271D02*
X41275D01*
X41301D01*
Y9423D01*
X41326Y9398D01*
X41199Y9246D02*
X41097D01*
X40945Y9398D02*
X40970Y9423D01*
X41021D01*
X41047Y9398D01*
Y9296D01*
X41021Y9271D01*
X40970D01*
X40945Y9296D01*
X40869Y9271D02*
X40818D01*
X40793Y9296D01*
Y9347D01*
X40818Y9373D01*
X40869D01*
X40894Y9347D01*
Y9296D01*
X40869Y9271D01*
X40742D02*
Y9373D01*
X40666D01*
X40640Y9347D01*
Y9271D01*
X40590D02*
Y9373D01*
X40513D01*
X40488Y9347D01*
Y9271D01*
X40437Y9423D02*
X40336D01*
Y9398D01*
X40437Y9296D01*
Y9271D01*
X33769Y12781D02*
Y12934D01*
X33693D01*
X33668Y12908D01*
Y12857D01*
X33693Y12832D01*
X33769D01*
X33719D02*
X33668Y12781D01*
X33515Y12934D02*
X33566D01*
X33541D01*
Y12807D01*
X33566Y12781D01*
X33592D01*
X33617Y12807D01*
X33363Y12781D02*
X33465D01*
X33363Y12883D01*
Y12908D01*
X33388Y12934D01*
X33439D01*
X33465Y12908D01*
X33312Y12756D02*
X33211D01*
X33058Y12908D02*
X33084Y12934D01*
X33135D01*
X33160Y12908D01*
Y12807D01*
X33135Y12781D01*
X33084D01*
X33058Y12807D01*
X32982Y12781D02*
X32931D01*
X32906Y12807D01*
Y12857D01*
X32931Y12883D01*
X32982D01*
X33008Y12857D01*
Y12807D01*
X32982Y12781D01*
X32855D02*
Y12883D01*
X32779D01*
X32754Y12857D01*
Y12781D01*
X32703D02*
Y12883D01*
X32627D01*
X32601Y12857D01*
Y12781D01*
X32449Y12934D02*
X32500Y12908D01*
X32550Y12857D01*
Y12807D01*
X32525Y12781D01*
X32474D01*
X32449Y12807D01*
Y12832D01*
X32474Y12857D01*
X32550D01*
X36967Y14643D02*
Y14795D01*
X36891D01*
X36866Y14770D01*
Y14719D01*
X36891Y14694D01*
X36967D01*
X36916D02*
X36866Y14643D01*
X36713Y14795D02*
X36764D01*
X36739D01*
Y14668D01*
X36764Y14643D01*
X36789D01*
X36815Y14668D01*
X36662Y14643D02*
X36612D01*
X36637D01*
Y14795D01*
X36662Y14770D01*
X36536Y14618D02*
X36434D01*
X36282Y14770D02*
X36307Y14795D01*
X36358D01*
X36383Y14770D01*
Y14668D01*
X36358Y14643D01*
X36307D01*
X36282Y14668D01*
X36205Y14643D02*
X36155D01*
X36129Y14668D01*
Y14719D01*
X36155Y14745D01*
X36205D01*
X36231Y14719D01*
Y14668D01*
X36205Y14643D01*
X36078D02*
Y14745D01*
X36002D01*
X35977Y14719D01*
Y14643D01*
X35926D02*
Y14745D01*
X35850D01*
X35825Y14719D01*
Y14643D01*
X35672Y14795D02*
X35723Y14770D01*
X35774Y14719D01*
Y14668D01*
X35748Y14643D01*
X35698D01*
X35672Y14668D01*
Y14694D01*
X35698Y14719D01*
X35774D01*
X37643Y6274D02*
Y6121D01*
X37567D01*
X37541Y6147D01*
Y6248D01*
X37567Y6274D01*
X37643D01*
X37490D02*
Y6121D01*
X37414D01*
X37389Y6147D01*
Y6172D01*
X37414Y6198D01*
X37490D01*
X37414D01*
X37389Y6223D01*
Y6248D01*
X37414Y6274D01*
X37490D01*
X37237Y6121D02*
X37338D01*
X37237Y6223D01*
Y6248D01*
X37262Y6274D01*
X37313D01*
X37338Y6248D01*
X37186Y6096D02*
X37084D01*
X36932Y6248D02*
X36957Y6274D01*
X37008D01*
X37033Y6248D01*
Y6147D01*
X37008Y6121D01*
X36957D01*
X36932Y6147D01*
X36856Y6121D02*
X36805D01*
X36779Y6147D01*
Y6198D01*
X36805Y6223D01*
X36856D01*
X36881Y6198D01*
Y6147D01*
X36856Y6121D01*
X36729D02*
Y6223D01*
X36653D01*
X36627Y6198D01*
Y6121D01*
X36576D02*
Y6223D01*
X36500D01*
X36475Y6198D01*
Y6121D01*
X36322Y6274D02*
X36373Y6248D01*
X36424Y6198D01*
Y6147D01*
X36399Y6121D01*
X36348D01*
X36322Y6147D01*
Y6172D01*
X36348Y6198D01*
X36424D01*
X37592Y9398D02*
Y9246D01*
X37516D01*
X37490Y9271D01*
Y9373D01*
X37516Y9398D01*
X37592D01*
X37440D02*
Y9246D01*
X37363D01*
X37338Y9271D01*
Y9296D01*
X37363Y9322D01*
X37440D01*
X37363D01*
X37338Y9347D01*
Y9373D01*
X37363Y9398D01*
X37440D01*
X37287Y9246D02*
X37237D01*
X37262D01*
Y9398D01*
X37287Y9373D01*
X37160Y9220D02*
X37059D01*
X36906Y9373D02*
X36932Y9398D01*
X36983D01*
X37008Y9373D01*
Y9271D01*
X36983Y9246D01*
X36932D01*
X36906Y9271D01*
X36830Y9246D02*
X36779D01*
X36754Y9271D01*
Y9322D01*
X36779Y9347D01*
X36830D01*
X36856Y9322D01*
Y9271D01*
X36830Y9246D01*
X36703D02*
Y9347D01*
X36627D01*
X36602Y9322D01*
Y9246D01*
X36551D02*
Y9347D01*
X36475D01*
X36449Y9322D01*
Y9246D01*
X36297Y9398D02*
X36348Y9373D01*
X36399Y9322D01*
Y9271D01*
X36373Y9246D01*
X36322D01*
X36297Y9271D01*
Y9296D01*
X36322Y9322D01*
X36399D01*
X29705Y12781D02*
Y12934D01*
X29629D01*
X29604Y12908D01*
Y12857D01*
X29629Y12832D01*
X29705D01*
X29655D02*
X29604Y12781D01*
X29451Y12934D02*
X29502D01*
X29477D01*
Y12807D01*
X29502Y12781D01*
X29528D01*
X29553Y12807D01*
X29299Y12781D02*
X29401D01*
X29299Y12883D01*
Y12908D01*
X29324Y12934D01*
X29375D01*
X29401Y12908D01*
X29248Y12756D02*
X29147D01*
X28994Y12908D02*
X29020Y12934D01*
X29071D01*
X29096Y12908D01*
Y12807D01*
X29071Y12781D01*
X29020D01*
X28994Y12807D01*
X28918Y12781D02*
X28867D01*
X28842Y12807D01*
Y12857D01*
X28867Y12883D01*
X28918D01*
X28944Y12857D01*
Y12807D01*
X28918Y12781D01*
X28791D02*
Y12883D01*
X28715D01*
X28690Y12857D01*
Y12781D01*
X28639D02*
Y12883D01*
X28563D01*
X28537Y12857D01*
Y12781D01*
X28385Y12934D02*
X28486D01*
Y12857D01*
X28436Y12883D01*
X28410D01*
X28385Y12857D01*
Y12807D01*
X28410Y12781D01*
X28461D01*
X28486Y12807D01*
X32903Y14643D02*
Y14795D01*
X32827D01*
X32802Y14770D01*
Y14719D01*
X32827Y14694D01*
X32903D01*
X32852D02*
X32802Y14643D01*
X32649Y14795D02*
X32700D01*
X32675D01*
Y14668D01*
X32700Y14643D01*
X32725D01*
X32751Y14668D01*
X32598Y14643D02*
X32548D01*
X32573D01*
Y14795D01*
X32598Y14770D01*
X32471Y14618D02*
X32370D01*
X32218Y14770D02*
X32243Y14795D01*
X32294D01*
X32319Y14770D01*
Y14668D01*
X32294Y14643D01*
X32243D01*
X32218Y14668D01*
X32141Y14643D02*
X32091D01*
X32065Y14668D01*
Y14719D01*
X32091Y14745D01*
X32141D01*
X32167Y14719D01*
Y14668D01*
X32141Y14643D01*
X32014D02*
Y14745D01*
X31938D01*
X31913Y14719D01*
Y14643D01*
X31862D02*
Y14745D01*
X31786D01*
X31761Y14719D01*
Y14643D01*
X31608Y14795D02*
X31710D01*
Y14719D01*
X31659Y14745D01*
X31634D01*
X31608Y14719D01*
Y14668D01*
X31634Y14643D01*
X31684D01*
X31710Y14668D01*
X33528Y6274D02*
Y6121D01*
X33452D01*
X33426Y6147D01*
Y6248D01*
X33452Y6274D01*
X33528D01*
X33376D02*
Y6121D01*
X33299D01*
X33274Y6147D01*
Y6172D01*
X33299Y6198D01*
X33376D01*
X33299D01*
X33274Y6223D01*
Y6248D01*
X33299Y6274D01*
X33376D01*
X33122Y6121D02*
X33223D01*
X33122Y6223D01*
Y6248D01*
X33147Y6274D01*
X33198D01*
X33223Y6248D01*
X33071Y6096D02*
X32969D01*
X32817Y6248D02*
X32842Y6274D01*
X32893D01*
X32919Y6248D01*
Y6147D01*
X32893Y6121D01*
X32842D01*
X32817Y6147D01*
X32741Y6121D02*
X32690D01*
X32665Y6147D01*
Y6198D01*
X32690Y6223D01*
X32741D01*
X32766Y6198D01*
Y6147D01*
X32741Y6121D01*
X32614D02*
Y6223D01*
X32538D01*
X32512Y6198D01*
Y6121D01*
X32462D02*
Y6223D01*
X32385D01*
X32360Y6198D01*
Y6121D01*
X32208Y6274D02*
X32309D01*
Y6198D01*
X32258Y6223D01*
X32233D01*
X32208Y6198D01*
Y6147D01*
X32233Y6121D01*
X32284D01*
X32309Y6147D01*
X33579Y9474D02*
Y9322D01*
X33503D01*
X33477Y9347D01*
Y9449D01*
X33503Y9474D01*
X33579D01*
X33426D02*
Y9322D01*
X33350D01*
X33325Y9347D01*
Y9373D01*
X33350Y9398D01*
X33426D01*
X33350D01*
X33325Y9423D01*
Y9449D01*
X33350Y9474D01*
X33426D01*
X33274Y9322D02*
X33223D01*
X33249D01*
Y9474D01*
X33274Y9449D01*
X33147Y9296D02*
X33046D01*
X32893Y9449D02*
X32919Y9474D01*
X32969D01*
X32995Y9449D01*
Y9347D01*
X32969Y9322D01*
X32919D01*
X32893Y9347D01*
X32817Y9322D02*
X32766D01*
X32741Y9347D01*
Y9398D01*
X32766Y9423D01*
X32817D01*
X32842Y9398D01*
Y9347D01*
X32817Y9322D01*
X32690D02*
Y9423D01*
X32614D01*
X32589Y9398D01*
Y9322D01*
X32538D02*
Y9423D01*
X32462D01*
X32436Y9398D01*
Y9322D01*
X32284Y9474D02*
X32385D01*
Y9398D01*
X32335Y9423D01*
X32309D01*
X32284Y9398D01*
Y9347D01*
X32309Y9322D01*
X32360D01*
X32385Y9347D01*
X25641Y12781D02*
Y12934D01*
X25565D01*
X25540Y12908D01*
Y12857D01*
X25565Y12832D01*
X25641D01*
X25591D02*
X25540Y12781D01*
X25387Y12934D02*
X25438D01*
X25413D01*
Y12807D01*
X25438Y12781D01*
X25464D01*
X25489Y12807D01*
X25235Y12781D02*
X25337D01*
X25235Y12883D01*
Y12908D01*
X25260Y12934D01*
X25311D01*
X25337Y12908D01*
X25184Y12756D02*
X25083D01*
X24930Y12908D02*
X24956Y12934D01*
X25007D01*
X25032Y12908D01*
Y12807D01*
X25007Y12781D01*
X24956D01*
X24930Y12807D01*
X24854Y12781D02*
X24803D01*
X24778Y12807D01*
Y12857D01*
X24803Y12883D01*
X24854D01*
X24880Y12857D01*
Y12807D01*
X24854Y12781D01*
X24727D02*
Y12883D01*
X24651D01*
X24626Y12857D01*
Y12781D01*
X24575D02*
Y12883D01*
X24499D01*
X24473Y12857D01*
Y12781D01*
X24346D02*
Y12934D01*
X24422Y12857D01*
X24321D01*
X28839Y14643D02*
Y14795D01*
X28763D01*
X28738Y14770D01*
Y14719D01*
X28763Y14694D01*
X28839D01*
X28788D02*
X28738Y14643D01*
X28585Y14795D02*
X28636D01*
X28611D01*
Y14668D01*
X28636Y14643D01*
X28661D01*
X28687Y14668D01*
X28534Y14643D02*
X28484D01*
X28509D01*
Y14795D01*
X28534Y14770D01*
X28408Y14618D02*
X28306D01*
X28154Y14770D02*
X28179Y14795D01*
X28230D01*
X28255Y14770D01*
Y14668D01*
X28230Y14643D01*
X28179D01*
X28154Y14668D01*
X28077Y14643D02*
X28027D01*
X28001Y14668D01*
Y14719D01*
X28027Y14745D01*
X28077D01*
X28103Y14719D01*
Y14668D01*
X28077Y14643D01*
X27950D02*
Y14745D01*
X27874D01*
X27849Y14719D01*
Y14643D01*
X27798D02*
Y14745D01*
X27722D01*
X27697Y14719D01*
Y14643D01*
X27570D02*
Y14795D01*
X27646Y14719D01*
X27544D01*
X29413Y6274D02*
Y6121D01*
X29337D01*
X29312Y6147D01*
Y6248D01*
X29337Y6274D01*
X29413D01*
X29261D02*
Y6121D01*
X29185D01*
X29159Y6147D01*
Y6172D01*
X29185Y6198D01*
X29261D01*
X29185D01*
X29159Y6223D01*
Y6248D01*
X29185Y6274D01*
X29261D01*
X29007Y6121D02*
X29108D01*
X29007Y6223D01*
Y6248D01*
X29032Y6274D01*
X29083D01*
X29108Y6248D01*
X28956Y6096D02*
X28855D01*
X28702Y6248D02*
X28728Y6274D01*
X28778D01*
X28804Y6248D01*
Y6147D01*
X28778Y6121D01*
X28728D01*
X28702Y6147D01*
X28626Y6121D02*
X28575D01*
X28550Y6147D01*
Y6198D01*
X28575Y6223D01*
X28626D01*
X28651Y6198D01*
Y6147D01*
X28626Y6121D01*
X28499D02*
Y6223D01*
X28423D01*
X28398Y6198D01*
Y6121D01*
X28347D02*
Y6223D01*
X28271D01*
X28245Y6198D01*
Y6121D01*
X28118D02*
Y6274D01*
X28194Y6198D01*
X28093D01*
X29439Y9449D02*
Y9296D01*
X29362D01*
X29337Y9322D01*
Y9423D01*
X29362Y9449D01*
X29439D01*
X29286D02*
Y9296D01*
X29210D01*
X29185Y9322D01*
Y9347D01*
X29210Y9373D01*
X29286D01*
X29210D01*
X29185Y9398D01*
Y9423D01*
X29210Y9449D01*
X29286D01*
X29134Y9296D02*
X29083D01*
X29109D01*
Y9449D01*
X29134Y9423D01*
X29007Y9271D02*
X28905D01*
X28753Y9423D02*
X28778Y9449D01*
X28829D01*
X28855Y9423D01*
Y9322D01*
X28829Y9296D01*
X28778D01*
X28753Y9322D01*
X28677Y9296D02*
X28626D01*
X28601Y9322D01*
Y9373D01*
X28626Y9398D01*
X28677D01*
X28702Y9373D01*
Y9322D01*
X28677Y9296D01*
X28550D02*
Y9398D01*
X28474D01*
X28448Y9373D01*
Y9296D01*
X28398D02*
Y9398D01*
X28321D01*
X28296Y9373D01*
Y9296D01*
X28169D02*
Y9449D01*
X28245Y9373D01*
X28144D01*
X21577Y12781D02*
Y12934D01*
X21501D01*
X21476Y12908D01*
Y12857D01*
X21501Y12832D01*
X21577D01*
X21527D02*
X21476Y12781D01*
X21323Y12934D02*
X21374D01*
X21349D01*
Y12807D01*
X21374Y12781D01*
X21400D01*
X21425Y12807D01*
X21171Y12781D02*
X21273D01*
X21171Y12883D01*
Y12908D01*
X21196Y12934D01*
X21247D01*
X21273Y12908D01*
X21120Y12756D02*
X21019D01*
X20866Y12908D02*
X20892Y12934D01*
X20943D01*
X20968Y12908D01*
Y12807D01*
X20943Y12781D01*
X20892D01*
X20866Y12807D01*
X20790Y12781D02*
X20739D01*
X20714Y12807D01*
Y12857D01*
X20739Y12883D01*
X20790D01*
X20816Y12857D01*
Y12807D01*
X20790Y12781D01*
X20663D02*
Y12883D01*
X20587D01*
X20562Y12857D01*
Y12781D01*
X20511D02*
Y12883D01*
X20435D01*
X20409Y12857D01*
Y12781D01*
X20358Y12908D02*
X20333Y12934D01*
X20282D01*
X20257Y12908D01*
Y12883D01*
X20282Y12857D01*
X20308D01*
X20282D01*
X20257Y12832D01*
Y12807D01*
X20282Y12781D01*
X20333D01*
X20358Y12807D01*
X24775Y14643D02*
Y14795D01*
X24699D01*
X24674Y14770D01*
Y14719D01*
X24699Y14694D01*
X24775D01*
X24724D02*
X24674Y14643D01*
X24521Y14795D02*
X24572D01*
X24547D01*
Y14668D01*
X24572Y14643D01*
X24597D01*
X24623Y14668D01*
X24470Y14643D02*
X24420D01*
X24445D01*
Y14795D01*
X24470Y14770D01*
X24343Y14618D02*
X24242D01*
X24090Y14770D02*
X24115Y14795D01*
X24166D01*
X24191Y14770D01*
Y14668D01*
X24166Y14643D01*
X24115D01*
X24090Y14668D01*
X24013Y14643D02*
X23963D01*
X23937Y14668D01*
Y14719D01*
X23963Y14745D01*
X24013D01*
X24039Y14719D01*
Y14668D01*
X24013Y14643D01*
X23886D02*
Y14745D01*
X23810D01*
X23785Y14719D01*
Y14643D01*
X23734D02*
Y14745D01*
X23658D01*
X23633Y14719D01*
Y14643D01*
X23582Y14770D02*
X23556Y14795D01*
X23506D01*
X23480Y14770D01*
Y14745D01*
X23506Y14719D01*
X23531D01*
X23506D01*
X23480Y14694D01*
Y14668D01*
X23506Y14643D01*
X23556D01*
X23582Y14668D01*
X25375Y6274D02*
Y6121D01*
X25298D01*
X25273Y6147D01*
Y6248D01*
X25298Y6274D01*
X25375D01*
X25222D02*
Y6121D01*
X25146D01*
X25121Y6147D01*
Y6172D01*
X25146Y6198D01*
X25222D01*
X25146D01*
X25121Y6223D01*
Y6248D01*
X25146Y6274D01*
X25222D01*
X24968Y6121D02*
X25070D01*
X24968Y6223D01*
Y6248D01*
X24994Y6274D01*
X25045D01*
X25070Y6248D01*
X24918Y6096D02*
X24816D01*
X24664Y6248D02*
X24689Y6274D01*
X24740D01*
X24765Y6248D01*
Y6147D01*
X24740Y6121D01*
X24689D01*
X24664Y6147D01*
X24587Y6121D02*
X24537D01*
X24511Y6147D01*
Y6198D01*
X24537Y6223D01*
X24587D01*
X24613Y6198D01*
Y6147D01*
X24587Y6121D01*
X24460D02*
Y6223D01*
X24384D01*
X24359Y6198D01*
Y6121D01*
X24308D02*
Y6223D01*
X24232D01*
X24207Y6198D01*
Y6121D01*
X24156Y6248D02*
X24130Y6274D01*
X24080D01*
X24054Y6248D01*
Y6223D01*
X24080Y6198D01*
X24105D01*
X24080D01*
X24054Y6172D01*
Y6147D01*
X24080Y6121D01*
X24130D01*
X24156Y6147D01*
X25476Y9449D02*
Y9296D01*
X25400D01*
X25375Y9322D01*
Y9423D01*
X25400Y9449D01*
X25476D01*
X25324D02*
Y9296D01*
X25248D01*
X25222Y9322D01*
Y9347D01*
X25248Y9373D01*
X25324D01*
X25248D01*
X25222Y9398D01*
Y9423D01*
X25248Y9449D01*
X25324D01*
X25171Y9296D02*
X25121D01*
X25146D01*
Y9449D01*
X25171Y9423D01*
X25045Y9271D02*
X24943D01*
X24791Y9423D02*
X24816Y9449D01*
X24867D01*
X24892Y9423D01*
Y9322D01*
X24867Y9296D01*
X24816D01*
X24791Y9322D01*
X24714Y9296D02*
X24664D01*
X24638Y9322D01*
Y9373D01*
X24664Y9398D01*
X24714D01*
X24740Y9373D01*
Y9322D01*
X24714Y9296D01*
X24587D02*
Y9398D01*
X24511D01*
X24486Y9373D01*
Y9296D01*
X24435D02*
Y9398D01*
X24359D01*
X24334Y9373D01*
Y9296D01*
X24283Y9423D02*
X24257Y9449D01*
X24207D01*
X24181Y9423D01*
Y9398D01*
X24207Y9373D01*
X24232D01*
X24207D01*
X24181Y9347D01*
Y9322D01*
X24207Y9296D01*
X24257D01*
X24283Y9322D01*
X17513Y12781D02*
Y12934D01*
X17437D01*
X17412Y12908D01*
Y12857D01*
X17437Y12832D01*
X17513D01*
X17463D02*
X17412Y12781D01*
X17259Y12934D02*
X17310D01*
X17285D01*
Y12807D01*
X17310Y12781D01*
X17336D01*
X17361Y12807D01*
X17107Y12781D02*
X17209D01*
X17107Y12883D01*
Y12908D01*
X17132Y12934D01*
X17183D01*
X17209Y12908D01*
X17056Y12756D02*
X16955D01*
X16802Y12908D02*
X16828Y12934D01*
X16879D01*
X16904Y12908D01*
Y12807D01*
X16879Y12781D01*
X16828D01*
X16802Y12807D01*
X16726Y12781D02*
X16675D01*
X16650Y12807D01*
Y12857D01*
X16675Y12883D01*
X16726D01*
X16752Y12857D01*
Y12807D01*
X16726Y12781D01*
X16599D02*
Y12883D01*
X16523D01*
X16498Y12857D01*
Y12781D01*
X16447D02*
Y12883D01*
X16371D01*
X16345Y12857D01*
Y12781D01*
X16193D02*
X16294D01*
X16193Y12883D01*
Y12908D01*
X16218Y12934D01*
X16269D01*
X16294Y12908D01*
X20711Y14643D02*
Y14795D01*
X20635D01*
X20610Y14770D01*
Y14719D01*
X20635Y14694D01*
X20711D01*
X20660D02*
X20610Y14643D01*
X20457Y14795D02*
X20508D01*
X20483D01*
Y14668D01*
X20508Y14643D01*
X20533D01*
X20559Y14668D01*
X20406Y14643D02*
X20356D01*
X20381D01*
Y14795D01*
X20406Y14770D01*
X20279Y14618D02*
X20178D01*
X20026Y14770D02*
X20051Y14795D01*
X20102D01*
X20127Y14770D01*
Y14668D01*
X20102Y14643D01*
X20051D01*
X20026Y14668D01*
X19949Y14643D02*
X19899D01*
X19873Y14668D01*
Y14719D01*
X19899Y14745D01*
X19949D01*
X19975Y14719D01*
Y14668D01*
X19949Y14643D01*
X19822D02*
Y14745D01*
X19746D01*
X19721Y14719D01*
Y14643D01*
X19670D02*
Y14745D01*
X19594D01*
X19569Y14719D01*
Y14643D01*
X19416D02*
X19518D01*
X19416Y14745D01*
Y14770D01*
X19442Y14795D01*
X19492D01*
X19518Y14770D01*
X21336Y6248D02*
Y6096D01*
X21260D01*
X21234Y6121D01*
Y6223D01*
X21260Y6248D01*
X21336D01*
X21184D02*
Y6096D01*
X21107D01*
X21082Y6121D01*
Y6147D01*
X21107Y6172D01*
X21184D01*
X21107D01*
X21082Y6198D01*
Y6223D01*
X21107Y6248D01*
X21184D01*
X20930Y6096D02*
X21031D01*
X20930Y6198D01*
Y6223D01*
X20955Y6248D01*
X21006D01*
X21031Y6223D01*
X20879Y6071D02*
X20777D01*
X20625Y6223D02*
X20650Y6248D01*
X20701D01*
X20727Y6223D01*
Y6121D01*
X20701Y6096D01*
X20650D01*
X20625Y6121D01*
X20549Y6096D02*
X20498D01*
X20473Y6121D01*
Y6172D01*
X20498Y6198D01*
X20549D01*
X20574Y6172D01*
Y6121D01*
X20549Y6096D01*
X20422D02*
Y6198D01*
X20346D01*
X20320Y6172D01*
Y6096D01*
X20270D02*
Y6198D01*
X20193D01*
X20168Y6172D01*
Y6096D01*
X20016D02*
X20117D01*
X20016Y6198D01*
Y6223D01*
X20041Y6248D01*
X20092D01*
X20117Y6223D01*
X21311Y9449D02*
Y9296D01*
X21234D01*
X21209Y9322D01*
Y9423D01*
X21234Y9449D01*
X21311D01*
X21158D02*
Y9296D01*
X21082D01*
X21057Y9322D01*
Y9347D01*
X21082Y9373D01*
X21158D01*
X21082D01*
X21057Y9398D01*
Y9423D01*
X21082Y9449D01*
X21158D01*
X21006Y9296D02*
X20955D01*
X20981D01*
Y9449D01*
X21006Y9423D01*
X20879Y9271D02*
X20777D01*
X20625Y9423D02*
X20650Y9449D01*
X20701D01*
X20727Y9423D01*
Y9322D01*
X20701Y9296D01*
X20650D01*
X20625Y9322D01*
X20549Y9296D02*
X20498D01*
X20473Y9322D01*
Y9373D01*
X20498Y9398D01*
X20549D01*
X20574Y9373D01*
Y9322D01*
X20549Y9296D01*
X20422D02*
Y9398D01*
X20346D01*
X20320Y9373D01*
Y9296D01*
X20270D02*
Y9398D01*
X20193D01*
X20168Y9373D01*
Y9296D01*
X20016D02*
X20117D01*
X20016Y9398D01*
Y9423D01*
X20041Y9449D01*
X20092D01*
X20117Y9423D01*
X7700Y14630D02*
Y14503D01*
X7675Y14478D01*
X7624D01*
X7599Y14503D01*
Y14630D01*
X7446Y14605D02*
X7472Y14630D01*
X7523D01*
X7548Y14605D01*
Y14580D01*
X7523Y14554D01*
X7472D01*
X7446Y14529D01*
Y14503D01*
X7472Y14478D01*
X7523D01*
X7548Y14503D01*
X7396Y14630D02*
Y14478D01*
X7320D01*
X7294Y14503D01*
Y14529D01*
X7320Y14554D01*
X7396D01*
X7320D01*
X7294Y14580D01*
Y14605D01*
X7320Y14630D01*
X7396D01*
X7243Y14478D02*
X7193D01*
X7218D01*
Y14630D01*
X7243Y14605D01*
X17170Y9398D02*
Y9246D01*
X17094D01*
X17069Y9271D01*
Y9373D01*
X17094Y9398D01*
X17170D01*
X17018D02*
Y9246D01*
X16942D01*
X16916Y9271D01*
Y9296D01*
X16942Y9322D01*
X17018D01*
X16942D01*
X16916Y9347D01*
Y9373D01*
X16942Y9398D01*
X17018D01*
X16866Y9246D02*
X16815D01*
X16840D01*
Y9398D01*
X16866Y9373D01*
X16739Y9220D02*
X16637D01*
X16485Y9373D02*
X16510Y9398D01*
X16561D01*
X16586Y9373D01*
Y9271D01*
X16561Y9246D01*
X16510D01*
X16485Y9271D01*
X16409Y9246D02*
X16358D01*
X16332Y9271D01*
Y9322D01*
X16358Y9347D01*
X16409D01*
X16434Y9322D01*
Y9271D01*
X16409Y9246D01*
X16282D02*
Y9347D01*
X16206D01*
X16180Y9322D01*
Y9246D01*
X16129D02*
Y9347D01*
X16053D01*
X16028Y9322D01*
Y9246D01*
X15977D02*
X15926D01*
X15952D01*
Y9398D01*
X15977Y9373D01*
X17221Y6299D02*
Y6147D01*
X17145D01*
X17120Y6172D01*
Y6274D01*
X17145Y6299D01*
X17221D01*
X17069D02*
Y6147D01*
X16993D01*
X16967Y6172D01*
Y6198D01*
X16993Y6223D01*
X17069D01*
X16993D01*
X16967Y6248D01*
Y6274D01*
X16993Y6299D01*
X17069D01*
X16815Y6147D02*
X16916D01*
X16815Y6248D01*
Y6274D01*
X16840Y6299D01*
X16891D01*
X16916Y6274D01*
X16764Y6121D02*
X16663D01*
X16510Y6274D02*
X16536Y6299D01*
X16586D01*
X16612Y6274D01*
Y6172D01*
X16586Y6147D01*
X16536D01*
X16510Y6172D01*
X16434Y6147D02*
X16383D01*
X16358Y6172D01*
Y6223D01*
X16383Y6248D01*
X16434D01*
X16459Y6223D01*
Y6172D01*
X16434Y6147D01*
X16307D02*
Y6248D01*
X16231D01*
X16206Y6223D01*
Y6147D01*
X16155D02*
Y6248D01*
X16079D01*
X16053Y6223D01*
Y6147D01*
X16002D02*
X15952D01*
X15977D01*
Y6299D01*
X16002Y6274D01*
X16647Y14643D02*
Y14795D01*
X16571D01*
X16546Y14770D01*
Y14719D01*
X16571Y14694D01*
X16647D01*
X16596D02*
X16546Y14643D01*
X16393Y14795D02*
X16444D01*
X16419D01*
Y14668D01*
X16444Y14643D01*
X16469D01*
X16495Y14668D01*
X16342Y14643D02*
X16292D01*
X16317D01*
Y14795D01*
X16342Y14770D01*
X16215Y14618D02*
X16114D01*
X15962Y14770D02*
X15987Y14795D01*
X16038D01*
X16063Y14770D01*
Y14668D01*
X16038Y14643D01*
X15987D01*
X15962Y14668D01*
X15885Y14643D02*
X15835D01*
X15809Y14668D01*
Y14719D01*
X15835Y14745D01*
X15885D01*
X15911Y14719D01*
Y14668D01*
X15885Y14643D01*
X15758D02*
Y14745D01*
X15682D01*
X15657Y14719D01*
Y14643D01*
X15606D02*
Y14745D01*
X15530D01*
X15505Y14719D01*
Y14643D01*
X15454D02*
X15403D01*
X15428D01*
Y14795D01*
X15454Y14770D01*
X13449Y12781D02*
Y12934D01*
X13373D01*
X13348Y12908D01*
Y12857D01*
X13373Y12832D01*
X13449D01*
X13399D02*
X13348Y12781D01*
X13195Y12934D02*
X13246D01*
X13221D01*
Y12807D01*
X13246Y12781D01*
X13272D01*
X13297Y12807D01*
X13043Y12781D02*
X13145D01*
X13043Y12883D01*
Y12908D01*
X13068Y12934D01*
X13119D01*
X13145Y12908D01*
X12992Y12756D02*
X12891D01*
X12738Y12908D02*
X12764Y12934D01*
X12815D01*
X12840Y12908D01*
Y12807D01*
X12815Y12781D01*
X12764D01*
X12738Y12807D01*
X12662Y12781D02*
X12611D01*
X12586Y12807D01*
Y12857D01*
X12611Y12883D01*
X12662D01*
X12688Y12857D01*
Y12807D01*
X12662Y12781D01*
X12535D02*
Y12883D01*
X12459D01*
X12434Y12857D01*
Y12781D01*
X12383D02*
Y12883D01*
X12307D01*
X12281Y12857D01*
Y12781D01*
X12230D02*
X12180D01*
X12205D01*
Y12934D01*
X12230Y12908D01*
X45212Y13183D02*
Y13030D01*
X45288D01*
X45314Y13056D01*
Y13081D01*
X45288Y13106D01*
X45212D01*
X45288D01*
X45314Y13132D01*
Y13157D01*
X45288Y13183D01*
X45212D01*
X41148D02*
Y13030D01*
X41224D01*
X41250Y13056D01*
Y13081D01*
X41224Y13106D01*
X41148D01*
X41224D01*
X41250Y13132D01*
Y13157D01*
X41224Y13183D01*
X41148D01*
X37084D02*
Y13030D01*
X37160D01*
X37186Y13056D01*
Y13081D01*
X37160Y13106D01*
X37084D01*
X37160D01*
X37186Y13132D01*
Y13157D01*
X37160Y13183D01*
X37084D01*
X33020D02*
Y13030D01*
X33096D01*
X33122Y13056D01*
Y13081D01*
X33096Y13106D01*
X33020D01*
X33096D01*
X33122Y13132D01*
Y13157D01*
X33096Y13183D01*
X33020D01*
X28956D02*
Y13030D01*
X29032D01*
X29058Y13056D01*
Y13081D01*
X29032Y13106D01*
X28956D01*
X29032D01*
X29058Y13132D01*
Y13157D01*
X29032Y13183D01*
X28956D01*
X24892D02*
Y13030D01*
X24968D01*
X24994Y13056D01*
Y13081D01*
X24968Y13106D01*
X24892D01*
X24968D01*
X24994Y13132D01*
Y13157D01*
X24968Y13183D01*
X24892D01*
X20828D02*
Y13030D01*
X20904D01*
X20930Y13056D01*
Y13081D01*
X20904Y13106D01*
X20828D01*
X20904D01*
X20930Y13132D01*
Y13157D01*
X20904Y13183D01*
X20828D01*
X16764D02*
Y13030D01*
X16840D01*
X16866Y13056D01*
Y13081D01*
X16840Y13106D01*
X16764D01*
X16840D01*
X16866Y13132D01*
Y13157D01*
X16840Y13183D01*
X16764D01*
X44221Y12421D02*
Y12522D01*
X44272Y12573D01*
X44323Y12522D01*
Y12421D01*
Y12497D01*
X44221D01*
X40157Y12421D02*
Y12522D01*
X40208Y12573D01*
X40259Y12522D01*
Y12421D01*
Y12497D01*
X40157D01*
X36093Y12421D02*
Y12522D01*
X36144Y12573D01*
X36195Y12522D01*
Y12421D01*
Y12497D01*
X36093D01*
X32029Y12421D02*
Y12522D01*
X32080Y12573D01*
X32131Y12522D01*
Y12421D01*
Y12497D01*
X32029D01*
X27965Y12421D02*
Y12522D01*
X28016Y12573D01*
X28067Y12522D01*
Y12421D01*
Y12497D01*
X27965D01*
X23901Y12421D02*
Y12522D01*
X23952Y12573D01*
X24003Y12522D01*
Y12421D01*
Y12497D01*
X23901D01*
X19837Y12421D02*
Y12522D01*
X19888Y12573D01*
X19939Y12522D01*
Y12421D01*
Y12497D01*
X19837D01*
X15773Y12421D02*
Y12522D01*
X15824Y12573D01*
X15875Y12522D01*
Y12421D01*
Y12497D01*
X15773D01*
X44425Y6452D02*
Y6553D01*
X44475Y6604D01*
X44526Y6553D01*
Y6452D01*
Y6528D01*
X44425D01*
X40361Y6452D02*
Y6553D01*
X40411Y6604D01*
X40462Y6553D01*
Y6452D01*
Y6528D01*
X40361D01*
X36297Y6452D02*
Y6553D01*
X36347Y6604D01*
X36398Y6553D01*
Y6452D01*
Y6528D01*
X36297D01*
X32233Y6452D02*
Y6553D01*
X32283Y6604D01*
X32334Y6553D01*
Y6452D01*
Y6528D01*
X32233D01*
X28169Y6452D02*
Y6553D01*
X28219Y6604D01*
X28270Y6553D01*
Y6452D01*
Y6528D01*
X28169D01*
X24105Y6452D02*
Y6553D01*
X24155Y6604D01*
X24206Y6553D01*
Y6452D01*
Y6528D01*
X24105D01*
X20041Y6452D02*
Y6553D01*
X20091Y6604D01*
X20142Y6553D01*
Y6452D01*
Y6528D01*
X20041D01*
X15977Y6452D02*
Y6553D01*
X16027Y6604D01*
X16078Y6553D01*
Y6452D01*
Y6528D01*
X15977D01*
X44475Y9652D02*
Y9500D01*
X44552D01*
X44577Y9525D01*
Y9550D01*
X44552Y9576D01*
X44475D01*
X44552D01*
X44577Y9601D01*
Y9627D01*
X44552Y9652D01*
X44475D01*
X40411D02*
Y9500D01*
X40488D01*
X40513Y9525D01*
Y9550D01*
X40488Y9576D01*
X40411D01*
X40488D01*
X40513Y9601D01*
Y9627D01*
X40488Y9652D01*
X40411D01*
X36347D02*
Y9500D01*
X36424D01*
X36449Y9525D01*
Y9550D01*
X36424Y9576D01*
X36347D01*
X36424D01*
X36449Y9601D01*
Y9627D01*
X36424Y9652D01*
X36347D01*
X32283D02*
Y9500D01*
X32360D01*
X32385Y9525D01*
Y9550D01*
X32360Y9576D01*
X32283D01*
X32360D01*
X32385Y9601D01*
Y9627D01*
X32360Y9652D01*
X32283D01*
X28219D02*
Y9500D01*
X28296D01*
X28321Y9525D01*
Y9550D01*
X28296Y9576D01*
X28219D01*
X28296D01*
X28321Y9601D01*
Y9627D01*
X28296Y9652D01*
X28219D01*
X24155D02*
Y9500D01*
X24232D01*
X24257Y9525D01*
Y9550D01*
X24232Y9576D01*
X24155D01*
X24232D01*
X24257Y9601D01*
Y9627D01*
X24232Y9652D01*
X24155D01*
X20091D02*
Y9500D01*
X20168D01*
X20193Y9525D01*
Y9550D01*
X20168Y9576D01*
X20091D01*
X20168D01*
X20193Y9601D01*
Y9627D01*
X20168Y9652D01*
X20091D01*
X15977Y9677D02*
Y9525D01*
X16053D01*
X16078Y9550D01*
Y9576D01*
X16053Y9601D01*
X15977D01*
X16053D01*
X16078Y9627D01*
Y9652D01*
X16053Y9677D01*
X15977D01*
D37*
X15839Y6084D02*
Y9164D01*
X14600D02*
X15839D01*
X14588Y9152D02*
X14600Y9164D01*
X14588Y6080D02*
Y9152D01*
X14600Y6078D02*
X15839D01*
Y9209D02*
Y12289D01*
X14600D02*
X15839D01*
X14588Y12276D02*
X14600Y12289D01*
X14588Y9204D02*
Y12276D01*
X14600Y9202D02*
X15839D01*
X19903Y6084D02*
Y9164D01*
X18664D02*
X19903D01*
X18651Y9152D02*
X18664Y9164D01*
X18651Y6080D02*
Y9152D01*
X18664Y6078D02*
X19903D01*
X23967Y6084D02*
Y9164D01*
X22728D02*
X23967D01*
X22715Y9152D02*
X22728Y9164D01*
X22715Y6080D02*
Y9152D01*
X22728Y6078D02*
X23967D01*
X28031Y6084D02*
Y9164D01*
X26792D02*
X28031D01*
X26780Y9152D02*
X26792Y9164D01*
X26780Y6080D02*
Y9152D01*
X26792Y6078D02*
X28031D01*
X32095Y6084D02*
Y9164D01*
X30856D02*
X32095D01*
X30843Y9152D02*
X30856Y9164D01*
X30843Y6080D02*
Y9152D01*
X30856Y6078D02*
X32095D01*
X36159Y6084D02*
Y9164D01*
X34920D02*
X36159D01*
X34908Y9152D02*
X34920Y9164D01*
X34908Y6080D02*
Y9152D01*
X34920Y6078D02*
X36159D01*
X40223Y6084D02*
Y9164D01*
X38984D02*
X40223D01*
X38971Y9152D02*
X38984Y9164D01*
X38971Y6080D02*
Y9152D01*
X38984Y6078D02*
X40223D01*
X44287Y6084D02*
Y9164D01*
X43048D02*
X44287D01*
X43036Y9152D02*
X43048Y9164D01*
X43036Y6080D02*
Y9152D01*
X43048Y6078D02*
X44287D01*
Y9209D02*
Y12289D01*
X43048D02*
X44287D01*
X43036Y12276D02*
X43048Y12289D01*
X43036Y9204D02*
Y12276D01*
X43048Y9202D02*
X44287D01*
X40223Y9209D02*
Y12289D01*
X38984D02*
X40223D01*
X38971Y12276D02*
X38984Y12289D01*
X38971Y9204D02*
Y12276D01*
X38984Y9202D02*
X40223D01*
X36159Y9209D02*
Y12289D01*
X34920D02*
X36159D01*
X34908Y12276D02*
X34920Y12289D01*
X34908Y9204D02*
Y12276D01*
X34920Y9202D02*
X36159D01*
X32095Y9209D02*
Y12289D01*
X30856D02*
X32095D01*
X30843Y12276D02*
X30856Y12289D01*
X30843Y9204D02*
Y12276D01*
X30856Y9202D02*
X32095D01*
X28031Y9209D02*
Y12289D01*
X26792D02*
X28031D01*
X26780Y12276D02*
X26792Y12289D01*
X26780Y9204D02*
Y12276D01*
X26792Y9202D02*
X28031D01*
X23967Y9209D02*
Y12289D01*
X22728D02*
X23967D01*
X22715Y12276D02*
X22728Y12289D01*
X22715Y9204D02*
Y12276D01*
X22728Y9202D02*
X23967D01*
X19903Y9209D02*
Y12289D01*
X18664D02*
X19903D01*
X18651Y12276D02*
X18664Y12289D01*
X18651Y9204D02*
Y12276D01*
X18664Y9202D02*
X19903D01*
D38*
X14798Y8130D02*
X14823Y8180D01*
X14873Y8230D01*
X14923D01*
X14948Y8205D01*
Y8155D01*
X14923Y8130D01*
X14898D01*
X14873Y8155D01*
Y8230D01*
X14923Y7087D02*
X14948Y7062D01*
Y7012D01*
X14923Y6987D01*
X14823D01*
X14798Y7012D01*
Y7062D01*
X14823Y7087D01*
X14848D01*
X14873Y7062D01*
Y6987D01*
X15537Y7016D02*
Y7116D01*
X15612D01*
X15587Y7066D01*
Y7041D01*
X15612Y7016D01*
X15662D01*
X15687Y7041D01*
Y7091D01*
X15662Y7116D01*
X15687Y8199D02*
Y8149D01*
Y8174D01*
X15537D01*
X15562Y8199D01*
X14798Y11254D02*
X14823Y11304D01*
X14873Y11354D01*
X14923D01*
X14948Y11329D01*
Y11279D01*
X14923Y11254D01*
X14898D01*
X14873Y11279D01*
Y11354D01*
X14923Y10211D02*
X14948Y10186D01*
Y10136D01*
X14923Y10111D01*
X14823D01*
X14798Y10136D01*
Y10186D01*
X14823Y10211D01*
X14848D01*
X14873Y10186D01*
Y10111D01*
X15537Y10140D02*
Y10240D01*
X15612D01*
X15587Y10190D01*
Y10165D01*
X15612Y10140D01*
X15662D01*
X15687Y10165D01*
Y10215D01*
X15662Y10240D01*
X15687Y11323D02*
Y11273D01*
Y11298D01*
X15537D01*
X15562Y11323D01*
X18862Y8130D02*
X18887Y8180D01*
X18937Y8230D01*
X18987D01*
X19012Y8205D01*
Y8155D01*
X18987Y8130D01*
X18962D01*
X18937Y8155D01*
Y8230D01*
X18987Y7087D02*
X19012Y7062D01*
Y7012D01*
X18987Y6987D01*
X18887D01*
X18862Y7012D01*
Y7062D01*
X18887Y7087D01*
X18912D01*
X18937Y7062D01*
Y6987D01*
X19601Y7016D02*
Y7116D01*
X19676D01*
X19651Y7066D01*
Y7041D01*
X19676Y7016D01*
X19726D01*
X19751Y7041D01*
Y7091D01*
X19726Y7116D01*
X19751Y8199D02*
Y8149D01*
Y8174D01*
X19601D01*
X19626Y8199D01*
X22926Y8130D02*
X22951Y8180D01*
X23001Y8230D01*
X23051D01*
X23076Y8205D01*
Y8155D01*
X23051Y8130D01*
X23026D01*
X23001Y8155D01*
Y8230D01*
X23051Y7087D02*
X23076Y7062D01*
Y7012D01*
X23051Y6987D01*
X22951D01*
X22926Y7012D01*
Y7062D01*
X22951Y7087D01*
X22976D01*
X23001Y7062D01*
Y6987D01*
X23665Y7016D02*
Y7116D01*
X23740D01*
X23715Y7066D01*
Y7041D01*
X23740Y7016D01*
X23790D01*
X23815Y7041D01*
Y7091D01*
X23790Y7116D01*
X23815Y8199D02*
Y8149D01*
Y8174D01*
X23665D01*
X23690Y8199D01*
X26990Y8130D02*
X27015Y8180D01*
X27065Y8230D01*
X27115D01*
X27140Y8205D01*
Y8155D01*
X27115Y8130D01*
X27090D01*
X27065Y8155D01*
Y8230D01*
X27115Y7087D02*
X27140Y7062D01*
Y7012D01*
X27115Y6987D01*
X27015D01*
X26990Y7012D01*
Y7062D01*
X27015Y7087D01*
X27040D01*
X27065Y7062D01*
Y6987D01*
X27729Y7016D02*
Y7116D01*
X27804D01*
X27779Y7066D01*
Y7041D01*
X27804Y7016D01*
X27854D01*
X27879Y7041D01*
Y7091D01*
X27854Y7116D01*
X27879Y8199D02*
Y8149D01*
Y8174D01*
X27729D01*
X27754Y8199D01*
X31054Y8130D02*
X31079Y8180D01*
X31129Y8230D01*
X31179D01*
X31204Y8205D01*
Y8155D01*
X31179Y8130D01*
X31154D01*
X31129Y8155D01*
Y8230D01*
X31179Y7087D02*
X31204Y7062D01*
Y7012D01*
X31179Y6987D01*
X31079D01*
X31054Y7012D01*
Y7062D01*
X31079Y7087D01*
X31104D01*
X31129Y7062D01*
Y6987D01*
X31793Y7016D02*
Y7116D01*
X31868D01*
X31843Y7066D01*
Y7041D01*
X31868Y7016D01*
X31918D01*
X31943Y7041D01*
Y7091D01*
X31918Y7116D01*
X31943Y8199D02*
Y8149D01*
Y8174D01*
X31793D01*
X31818Y8199D01*
X35118Y8130D02*
X35143Y8180D01*
X35193Y8230D01*
X35243D01*
X35268Y8205D01*
Y8155D01*
X35243Y8130D01*
X35218D01*
X35193Y8155D01*
Y8230D01*
X35243Y7087D02*
X35268Y7062D01*
Y7012D01*
X35243Y6987D01*
X35143D01*
X35118Y7012D01*
Y7062D01*
X35143Y7087D01*
X35168D01*
X35193Y7062D01*
Y6987D01*
X35857Y7016D02*
Y7116D01*
X35932D01*
X35907Y7066D01*
Y7041D01*
X35932Y7016D01*
X35982D01*
X36007Y7041D01*
Y7091D01*
X35982Y7116D01*
X36007Y8199D02*
Y8149D01*
Y8174D01*
X35857D01*
X35882Y8199D01*
X39182Y8130D02*
X39207Y8180D01*
X39257Y8230D01*
X39307D01*
X39332Y8205D01*
Y8155D01*
X39307Y8130D01*
X39282D01*
X39257Y8155D01*
Y8230D01*
X39307Y7087D02*
X39332Y7062D01*
Y7012D01*
X39307Y6987D01*
X39207D01*
X39182Y7012D01*
Y7062D01*
X39207Y7087D01*
X39232D01*
X39257Y7062D01*
Y6987D01*
X39921Y7016D02*
Y7116D01*
X39996D01*
X39971Y7066D01*
Y7041D01*
X39996Y7016D01*
X40046D01*
X40071Y7041D01*
Y7091D01*
X40046Y7116D01*
X40071Y8199D02*
Y8149D01*
Y8174D01*
X39921D01*
X39946Y8199D01*
X43246Y8130D02*
X43271Y8180D01*
X43321Y8230D01*
X43371D01*
X43396Y8205D01*
Y8155D01*
X43371Y8130D01*
X43346D01*
X43321Y8155D01*
Y8230D01*
X43371Y7087D02*
X43396Y7062D01*
Y7012D01*
X43371Y6987D01*
X43271D01*
X43246Y7012D01*
Y7062D01*
X43271Y7087D01*
X43296D01*
X43321Y7062D01*
Y6987D01*
X43985Y7016D02*
Y7116D01*
X44060D01*
X44035Y7066D01*
Y7041D01*
X44060Y7016D01*
X44110D01*
X44135Y7041D01*
Y7091D01*
X44110Y7116D01*
X44135Y8199D02*
Y8149D01*
Y8174D01*
X43985D01*
X44010Y8199D01*
X43246Y11254D02*
X43271Y11304D01*
X43321Y11354D01*
X43371D01*
X43396Y11329D01*
Y11279D01*
X43371Y11254D01*
X43346D01*
X43321Y11279D01*
Y11354D01*
X43371Y10211D02*
X43396Y10186D01*
Y10136D01*
X43371Y10111D01*
X43271D01*
X43246Y10136D01*
Y10186D01*
X43271Y10211D01*
X43296D01*
X43321Y10186D01*
Y10111D01*
X43985Y10140D02*
Y10240D01*
X44060D01*
X44035Y10190D01*
Y10165D01*
X44060Y10140D01*
X44110D01*
X44135Y10165D01*
Y10215D01*
X44110Y10240D01*
X44135Y11323D02*
Y11273D01*
Y11298D01*
X43985D01*
X44010Y11323D01*
X39182Y11254D02*
X39207Y11304D01*
X39257Y11354D01*
X39307D01*
X39332Y11329D01*
Y11279D01*
X39307Y11254D01*
X39282D01*
X39257Y11279D01*
Y11354D01*
X39307Y10211D02*
X39332Y10186D01*
Y10136D01*
X39307Y10111D01*
X39207D01*
X39182Y10136D01*
Y10186D01*
X39207Y10211D01*
X39232D01*
X39257Y10186D01*
Y10111D01*
X39921Y10140D02*
Y10240D01*
X39996D01*
X39971Y10190D01*
Y10165D01*
X39996Y10140D01*
X40046D01*
X40071Y10165D01*
Y10215D01*
X40046Y10240D01*
X40071Y11323D02*
Y11273D01*
Y11298D01*
X39921D01*
X39946Y11323D01*
X35118Y11254D02*
X35143Y11304D01*
X35193Y11354D01*
X35243D01*
X35268Y11329D01*
Y11279D01*
X35243Y11254D01*
X35218D01*
X35193Y11279D01*
Y11354D01*
X35243Y10211D02*
X35268Y10186D01*
Y10136D01*
X35243Y10111D01*
X35143D01*
X35118Y10136D01*
Y10186D01*
X35143Y10211D01*
X35168D01*
X35193Y10186D01*
Y10111D01*
X35857Y10140D02*
Y10240D01*
X35932D01*
X35907Y10190D01*
Y10165D01*
X35932Y10140D01*
X35982D01*
X36007Y10165D01*
Y10215D01*
X35982Y10240D01*
X36007Y11323D02*
Y11273D01*
Y11298D01*
X35857D01*
X35882Y11323D01*
X31054Y11254D02*
X31079Y11304D01*
X31129Y11354D01*
X31179D01*
X31204Y11329D01*
Y11279D01*
X31179Y11254D01*
X31154D01*
X31129Y11279D01*
Y11354D01*
X31179Y10211D02*
X31204Y10186D01*
Y10136D01*
X31179Y10111D01*
X31079D01*
X31054Y10136D01*
Y10186D01*
X31079Y10211D01*
X31104D01*
X31129Y10186D01*
Y10111D01*
X31793Y10140D02*
Y10240D01*
X31868D01*
X31843Y10190D01*
Y10165D01*
X31868Y10140D01*
X31918D01*
X31943Y10165D01*
Y10215D01*
X31918Y10240D01*
X31943Y11323D02*
Y11273D01*
Y11298D01*
X31793D01*
X31818Y11323D01*
X26990Y11254D02*
X27015Y11304D01*
X27065Y11354D01*
X27115D01*
X27140Y11329D01*
Y11279D01*
X27115Y11254D01*
X27090D01*
X27065Y11279D01*
Y11354D01*
X27115Y10211D02*
X27140Y10186D01*
Y10136D01*
X27115Y10111D01*
X27015D01*
X26990Y10136D01*
Y10186D01*
X27015Y10211D01*
X27040D01*
X27065Y10186D01*
Y10111D01*
X27729Y10140D02*
Y10240D01*
X27804D01*
X27779Y10190D01*
Y10165D01*
X27804Y10140D01*
X27854D01*
X27879Y10165D01*
Y10215D01*
X27854Y10240D01*
X27879Y11323D02*
Y11273D01*
Y11298D01*
X27729D01*
X27754Y11323D01*
X22926Y11254D02*
X22951Y11304D01*
X23001Y11354D01*
X23051D01*
X23076Y11329D01*
Y11279D01*
X23051Y11254D01*
X23026D01*
X23001Y11279D01*
Y11354D01*
X23051Y10211D02*
X23076Y10186D01*
Y10136D01*
X23051Y10111D01*
X22951D01*
X22926Y10136D01*
Y10186D01*
X22951Y10211D01*
X22976D01*
X23001Y10186D01*
Y10111D01*
X23665Y10140D02*
Y10240D01*
X23740D01*
X23715Y10190D01*
Y10165D01*
X23740Y10140D01*
X23790D01*
X23815Y10165D01*
Y10215D01*
X23790Y10240D01*
X23815Y11323D02*
Y11273D01*
Y11298D01*
X23665D01*
X23690Y11323D01*
X18862Y11254D02*
X18887Y11304D01*
X18937Y11354D01*
X18987D01*
X19012Y11329D01*
Y11279D01*
X18987Y11254D01*
X18962D01*
X18937Y11279D01*
Y11354D01*
X18987Y10211D02*
X19012Y10186D01*
Y10136D01*
X18987Y10111D01*
X18887D01*
X18862Y10136D01*
Y10186D01*
X18887Y10211D01*
X18912D01*
X18937Y10186D01*
Y10111D01*
X19601Y10140D02*
Y10240D01*
X19676D01*
X19651Y10190D01*
Y10165D01*
X19676Y10140D01*
X19726D01*
X19751Y10165D01*
Y10215D01*
X19726Y10240D01*
X19751Y11323D02*
Y11273D01*
Y11298D01*
X19601D01*
X19626Y11323D01*
M02*
