G04 Layer_Color=2752767*
%FSLAX45Y45*%
%MOMM*%
%TF.FileFunction,Drawing*%
%TF.Part,Single*%
G01*
G75*
%TA.AperFunction,NonConductor*%
%ADD219C,0.12700*%
%ADD220C,0.16933*%
D219*
X6883400Y15547340D02*
Y15648940D01*
X6985000D01*
Y15547340D01*
X6883400D01*
Y16659860D02*
Y16761459D01*
X6985000D01*
Y16659860D01*
X6883400D01*
X7289800Y13438600D02*
X7239000Y13540199D01*
X7340600D01*
X7289800Y13438600D01*
Y13688600D02*
X7239000Y13790199D01*
X7340600D01*
X7289800Y13688600D01*
X7610800D02*
X7560000Y13790199D01*
X7661600D01*
X7610800Y13688600D01*
Y13438600D02*
X7560000Y13540199D01*
X7661600D01*
X7610800Y13438600D01*
X7340300Y14165601D02*
X7365700Y14191000D01*
X7391100D01*
X7365700Y14216400D01*
X7391100Y14241800D01*
X7365700D01*
X7340300Y14267200D01*
X7314900Y14241800D01*
X7289500D01*
X7314900Y14216400D01*
X7289500Y14191000D01*
X7314900D01*
X7340300Y14165601D01*
Y12961600D02*
X7365700Y12987000D01*
X7391100D01*
X7365700Y13012399D01*
X7391100Y13037801D01*
X7365700D01*
X7340300Y13063200D01*
X7314900Y13037801D01*
X7289500D01*
X7314900Y13012399D01*
X7289500Y12987000D01*
X7314900D01*
X7340300Y12961600D01*
X42672000Y15659100D02*
X42697400Y15709900D01*
X42672000Y15760699D01*
X42722800Y15735300D01*
X42773599Y15760699D01*
X42748199Y15709900D01*
X42773599Y15659100D01*
X42722800Y15684500D01*
X42672000Y15659100D01*
Y15405099D02*
X42697400Y15455901D01*
X42672000Y15506700D01*
X42722800Y15481300D01*
X42773599Y15506700D01*
X42748199Y15455901D01*
X42773599Y15405099D01*
X42722800Y15430499D01*
X42672000Y15405099D01*
Y15151100D02*
X42697400Y15201900D01*
X42672000Y15252699D01*
X42722800Y15227299D01*
X42773599Y15252699D01*
X42748199Y15201900D01*
X42773599Y15151100D01*
X42722800Y15176500D01*
X42672000Y15151100D01*
Y14897099D02*
X42697400Y14947900D01*
X42672000Y14998700D01*
X42722800Y14973300D01*
X42773599Y14998700D01*
X42748199Y14947900D01*
X42773599Y14897099D01*
X42722800Y14922501D01*
X42672000Y14897099D01*
Y14643100D02*
X42697400Y14693900D01*
X42672000Y14744701D01*
X42722800Y14719299D01*
X42773599Y14744701D01*
X42748199Y14693900D01*
X42773599Y14643100D01*
X42722800Y14668500D01*
X42672000Y14643100D01*
Y14389101D02*
X42697400Y14439900D01*
X42672000Y14490700D01*
X42722800Y14465300D01*
X42773599Y14490700D01*
X42748199Y14439900D01*
X42773599Y14389101D01*
X42722800Y14414500D01*
X42672000Y14389101D01*
Y14135100D02*
X42697400Y14185899D01*
X42672000Y14236700D01*
X42722800Y14211301D01*
X42773599Y14236700D01*
X42748199Y14185899D01*
X42773599Y14135100D01*
X42722800Y14160500D01*
X42672000Y14135100D01*
Y13881100D02*
X42697400Y13931900D01*
X42672000Y13982700D01*
X42722800Y13957300D01*
X42773599Y13982700D01*
X42748199Y13931900D01*
X42773599Y13881100D01*
X42722800Y13906500D01*
X42672000Y13881100D01*
Y13627100D02*
X42697400Y13677901D01*
X42672000Y13728700D01*
X42722800Y13703300D01*
X42773599Y13728700D01*
X42748199Y13677901D01*
X42773599Y13627100D01*
X42722800Y13652499D01*
X42672000Y13627100D01*
Y13373100D02*
X42697400Y13423900D01*
X42672000Y13474699D01*
X42722800Y13449300D01*
X42773599Y13474699D01*
X42748199Y13423900D01*
X42773599Y13373100D01*
X42722800Y13398500D01*
X42672000Y13373100D01*
Y13119099D02*
X42697400Y13169901D01*
X42672000Y13220700D01*
X42722800Y13195300D01*
X42773599Y13220700D01*
X42748199Y13169901D01*
X42773599Y13119099D01*
X42722800Y13144501D01*
X42672000Y13119099D01*
Y12865100D02*
X42697400Y12915900D01*
X42672000Y12966701D01*
X42722800Y12941299D01*
X42773599Y12966701D01*
X42748199Y12915900D01*
X42773599Y12865100D01*
X42722800Y12890500D01*
X42672000Y12865100D01*
Y12611100D02*
X42697400Y12661900D01*
X42672000Y12712700D01*
X42722800Y12687300D01*
X42773599Y12712700D01*
X42748199Y12661900D01*
X42773599Y12611100D01*
X42722800Y12636500D01*
X42672000Y12611100D01*
Y12357100D02*
X42697400Y12407900D01*
X42672000Y12458700D01*
X42722800Y12433300D01*
X42773599Y12458700D01*
X42748199Y12407900D01*
X42773599Y12357100D01*
X42722800Y12382500D01*
X42672000Y12357100D01*
Y12103100D02*
X42697400Y12153900D01*
X42672000Y12204700D01*
X42722800Y12179300D01*
X42773599Y12204700D01*
X42748199Y12153900D01*
X42773599Y12103100D01*
X42722800Y12128500D01*
X42672000Y12103100D01*
Y11849100D02*
X42697400Y11899900D01*
X42672000Y11950700D01*
X42722800Y11925300D01*
X42773599Y11950700D01*
X42748199Y11899900D01*
X42773599Y11849100D01*
X42722800Y11874500D01*
X42672000Y11849100D01*
Y11595100D02*
X42697400Y11645900D01*
X42672000Y11696700D01*
X42722800Y11671300D01*
X42773599Y11696700D01*
X42748199Y11645900D01*
X42773599Y11595100D01*
X42722800Y11620500D01*
X42672000Y11595100D01*
Y11341100D02*
X42697400Y11391900D01*
X42672000Y11442700D01*
X42722800Y11417300D01*
X42773599Y11442700D01*
X42748199Y11391900D01*
X42773599Y11341100D01*
X42722800Y11366500D01*
X42672000Y11341100D01*
Y11087100D02*
X42697400Y11137900D01*
X42672000Y11188700D01*
X42722800Y11163300D01*
X42773599Y11188700D01*
X42748199Y11137900D01*
X42773599Y11087100D01*
X42722800Y11112500D01*
X42672000Y11087100D01*
Y10833100D02*
X42697400Y10883900D01*
X42672000Y10934700D01*
X42722800Y10909300D01*
X42773599Y10934700D01*
X42748199Y10883900D01*
X42773599Y10833100D01*
X42722800Y10858500D01*
X42672000Y10833100D01*
Y10579100D02*
X42697400Y10629900D01*
X42672000Y10680700D01*
X42722800Y10655300D01*
X42773599Y10680700D01*
X42748199Y10629900D01*
X42773599Y10579100D01*
X42722800Y10604500D01*
X42672000Y10579100D01*
Y10325100D02*
X42697400Y10375900D01*
X42672000Y10426700D01*
X42722800Y10401300D01*
X42773599Y10426700D01*
X42748199Y10375900D01*
X42773599Y10325100D01*
X42722800Y10350500D01*
X42672000Y10325100D01*
Y10071100D02*
X42697400Y10121900D01*
X42672000Y10172700D01*
X42722800Y10147300D01*
X42773599Y10172700D01*
X42748199Y10121900D01*
X42773599Y10071100D01*
X42722800Y10096500D01*
X42672000Y10071100D01*
Y9817100D02*
X42697400Y9867900D01*
X42672000Y9918700D01*
X42722800Y9893300D01*
X42773599Y9918700D01*
X42748199Y9867900D01*
X42773599Y9817100D01*
X42722800Y9842500D01*
X42672000Y9817100D01*
Y9563100D02*
X42697400Y9613900D01*
X42672000Y9664700D01*
X42722800Y9639300D01*
X42773599Y9664700D01*
X42748199Y9613900D01*
X42773599Y9563100D01*
X42722800Y9588500D01*
X42672000Y9563100D01*
Y9309100D02*
X42697400Y9359900D01*
X42672000Y9410700D01*
X42722800Y9385300D01*
X42773599Y9410700D01*
X42748199Y9359900D01*
X42773599Y9309100D01*
X42722800Y9334500D01*
X42672000Y9309100D01*
Y9055100D02*
X42697400Y9105900D01*
X42672000Y9156700D01*
X42722800Y9131300D01*
X42773599Y9156700D01*
X42748199Y9105900D01*
X42773599Y9055100D01*
X42722800Y9080500D01*
X42672000Y9055100D01*
Y8801100D02*
X42697400Y8851900D01*
X42672000Y8902700D01*
X42722800Y8877300D01*
X42773599Y8902700D01*
X42748199Y8851900D01*
X42773599Y8801100D01*
X42722800Y8826500D01*
X42672000Y8801100D01*
Y8547100D02*
X42697400Y8597900D01*
X42672000Y8648700D01*
X42722800Y8623300D01*
X42773599Y8648700D01*
X42748199Y8597900D01*
X42773599Y8547100D01*
X42722800Y8572500D01*
X42672000Y8547100D01*
Y8293100D02*
X42697400Y8343900D01*
X42672000Y8394700D01*
X42722800Y8369300D01*
X42773599Y8394700D01*
X42748199Y8343900D01*
X42773599Y8293100D01*
X42722800Y8318500D01*
X42672000Y8293100D01*
Y8039100D02*
X42697400Y8089900D01*
X42672000Y8140700D01*
X42722800Y8115300D01*
X42773599Y8140700D01*
X42748199Y8089900D01*
X42773599Y8039100D01*
X42722800Y8064500D01*
X42672000Y8039100D01*
Y7785100D02*
X42697400Y7835900D01*
X42672000Y7886700D01*
X42722800Y7861300D01*
X42773599Y7886700D01*
X42748199Y7835900D01*
X42773599Y7785100D01*
X42722800Y7810500D01*
X42672000Y7785100D01*
X42164001Y15659100D02*
X42189401Y15709900D01*
X42164001Y15760699D01*
X42214801Y15735300D01*
X42265601Y15760699D01*
X42240201Y15709900D01*
X42265601Y15659100D01*
X42214801Y15684500D01*
X42164001Y15659100D01*
Y15405099D02*
X42189401Y15455901D01*
X42164001Y15506700D01*
X42214801Y15481300D01*
X42265601Y15506700D01*
X42240201Y15455901D01*
X42265601Y15405099D01*
X42214801Y15430499D01*
X42164001Y15405099D01*
Y15151100D02*
X42189401Y15201900D01*
X42164001Y15252699D01*
X42214801Y15227299D01*
X42265601Y15252699D01*
X42240201Y15201900D01*
X42265601Y15151100D01*
X42214801Y15176500D01*
X42164001Y15151100D01*
Y14897099D02*
X42189401Y14947900D01*
X42164001Y14998700D01*
X42214801Y14973300D01*
X42265601Y14998700D01*
X42240201Y14947900D01*
X42265601Y14897099D01*
X42214801Y14922501D01*
X42164001Y14897099D01*
Y14643100D02*
X42189401Y14693900D01*
X42164001Y14744701D01*
X42214801Y14719299D01*
X42265601Y14744701D01*
X42240201Y14693900D01*
X42265601Y14643100D01*
X42214801Y14668500D01*
X42164001Y14643100D01*
Y14389101D02*
X42189401Y14439900D01*
X42164001Y14490700D01*
X42214801Y14465300D01*
X42265601Y14490700D01*
X42240201Y14439900D01*
X42265601Y14389101D01*
X42214801Y14414500D01*
X42164001Y14389101D01*
Y14135100D02*
X42189401Y14185899D01*
X42164001Y14236700D01*
X42214801Y14211301D01*
X42265601Y14236700D01*
X42240201Y14185899D01*
X42265601Y14135100D01*
X42214801Y14160500D01*
X42164001Y14135100D01*
Y13881100D02*
X42189401Y13931900D01*
X42164001Y13982700D01*
X42214801Y13957300D01*
X42265601Y13982700D01*
X42240201Y13931900D01*
X42265601Y13881100D01*
X42214801Y13906500D01*
X42164001Y13881100D01*
Y13627100D02*
X42189401Y13677901D01*
X42164001Y13728700D01*
X42214801Y13703300D01*
X42265601Y13728700D01*
X42240201Y13677901D01*
X42265601Y13627100D01*
X42214801Y13652499D01*
X42164001Y13627100D01*
Y13373100D02*
X42189401Y13423900D01*
X42164001Y13474699D01*
X42214801Y13449300D01*
X42265601Y13474699D01*
X42240201Y13423900D01*
X42265601Y13373100D01*
X42214801Y13398500D01*
X42164001Y13373100D01*
Y13119099D02*
X42189401Y13169901D01*
X42164001Y13220700D01*
X42214801Y13195300D01*
X42265601Y13220700D01*
X42240201Y13169901D01*
X42265601Y13119099D01*
X42214801Y13144501D01*
X42164001Y13119099D01*
Y12865100D02*
X42189401Y12915900D01*
X42164001Y12966701D01*
X42214801Y12941299D01*
X42265601Y12966701D01*
X42240201Y12915900D01*
X42265601Y12865100D01*
X42214801Y12890500D01*
X42164001Y12865100D01*
Y12611100D02*
X42189401Y12661900D01*
X42164001Y12712700D01*
X42214801Y12687300D01*
X42265601Y12712700D01*
X42240201Y12661900D01*
X42265601Y12611100D01*
X42214801Y12636500D01*
X42164001Y12611100D01*
Y12357100D02*
X42189401Y12407900D01*
X42164001Y12458700D01*
X42214801Y12433300D01*
X42265601Y12458700D01*
X42240201Y12407900D01*
X42265601Y12357100D01*
X42214801Y12382500D01*
X42164001Y12357100D01*
Y12103100D02*
X42189401Y12153900D01*
X42164001Y12204700D01*
X42214801Y12179300D01*
X42265601Y12204700D01*
X42240201Y12153900D01*
X42265601Y12103100D01*
X42214801Y12128500D01*
X42164001Y12103100D01*
Y11849100D02*
X42189401Y11899900D01*
X42164001Y11950700D01*
X42214801Y11925300D01*
X42265601Y11950700D01*
X42240201Y11899900D01*
X42265601Y11849100D01*
X42214801Y11874500D01*
X42164001Y11849100D01*
Y11595100D02*
X42189401Y11645900D01*
X42164001Y11696700D01*
X42214801Y11671300D01*
X42265601Y11696700D01*
X42240201Y11645900D01*
X42265601Y11595100D01*
X42214801Y11620500D01*
X42164001Y11595100D01*
Y11341100D02*
X42189401Y11391900D01*
X42164001Y11442700D01*
X42214801Y11417300D01*
X42265601Y11442700D01*
X42240201Y11391900D01*
X42265601Y11341100D01*
X42214801Y11366500D01*
X42164001Y11341100D01*
Y11087100D02*
X42189401Y11137900D01*
X42164001Y11188700D01*
X42214801Y11163300D01*
X42265601Y11188700D01*
X42240201Y11137900D01*
X42265601Y11087100D01*
X42214801Y11112500D01*
X42164001Y11087100D01*
Y10833100D02*
X42189401Y10883900D01*
X42164001Y10934700D01*
X42214801Y10909300D01*
X42265601Y10934700D01*
X42240201Y10883900D01*
X42265601Y10833100D01*
X42214801Y10858500D01*
X42164001Y10833100D01*
Y10579100D02*
X42189401Y10629900D01*
X42164001Y10680700D01*
X42214801Y10655300D01*
X42265601Y10680700D01*
X42240201Y10629900D01*
X42265601Y10579100D01*
X42214801Y10604500D01*
X42164001Y10579100D01*
Y10325100D02*
X42189401Y10375900D01*
X42164001Y10426700D01*
X42214801Y10401300D01*
X42265601Y10426700D01*
X42240201Y10375900D01*
X42265601Y10325100D01*
X42214801Y10350500D01*
X42164001Y10325100D01*
Y10071100D02*
X42189401Y10121900D01*
X42164001Y10172700D01*
X42214801Y10147300D01*
X42265601Y10172700D01*
X42240201Y10121900D01*
X42265601Y10071100D01*
X42214801Y10096500D01*
X42164001Y10071100D01*
Y9817100D02*
X42189401Y9867900D01*
X42164001Y9918700D01*
X42214801Y9893300D01*
X42265601Y9918700D01*
X42240201Y9867900D01*
X42265601Y9817100D01*
X42214801Y9842500D01*
X42164001Y9817100D01*
Y9563100D02*
X42189401Y9613900D01*
X42164001Y9664700D01*
X42214801Y9639300D01*
X42265601Y9664700D01*
X42240201Y9613900D01*
X42265601Y9563100D01*
X42214801Y9588500D01*
X42164001Y9563100D01*
Y9309100D02*
X42189401Y9359900D01*
X42164001Y9410700D01*
X42214801Y9385300D01*
X42265601Y9410700D01*
X42240201Y9359900D01*
X42265601Y9309100D01*
X42214801Y9334500D01*
X42164001Y9309100D01*
Y9055100D02*
X42189401Y9105900D01*
X42164001Y9156700D01*
X42214801Y9131300D01*
X42265601Y9156700D01*
X42240201Y9105900D01*
X42265601Y9055100D01*
X42214801Y9080500D01*
X42164001Y9055100D01*
Y8801100D02*
X42189401Y8851900D01*
X42164001Y8902700D01*
X42214801Y8877300D01*
X42265601Y8902700D01*
X42240201Y8851900D01*
X42265601Y8801100D01*
X42214801Y8826500D01*
X42164001Y8801100D01*
Y8547100D02*
X42189401Y8597900D01*
X42164001Y8648700D01*
X42214801Y8623300D01*
X42265601Y8648700D01*
X42240201Y8597900D01*
X42265601Y8547100D01*
X42214801Y8572500D01*
X42164001Y8547100D01*
Y8293100D02*
X42189401Y8343900D01*
X42164001Y8394700D01*
X42214801Y8369300D01*
X42265601Y8394700D01*
X42240201Y8343900D01*
X42265601Y8293100D01*
X42214801Y8318500D01*
X42164001Y8293100D01*
Y8039100D02*
X42189401Y8089900D01*
X42164001Y8140700D01*
X42214801Y8115300D01*
X42265601Y8140700D01*
X42240201Y8089900D01*
X42265601Y8039100D01*
X42214801Y8064500D01*
X42164001Y8039100D01*
Y7785100D02*
X42189401Y7835900D01*
X42164001Y7886700D01*
X42214801Y7861300D01*
X42265601Y7886700D01*
X42240201Y7835900D01*
X42265601Y7785100D01*
X42214801Y7810500D01*
X42164001Y7785100D01*
X38607999Y15659100D02*
X38633401Y15709900D01*
X38607999Y15760699D01*
X38658801Y15735300D01*
X38709601Y15760699D01*
X38684201Y15709900D01*
X38709601Y15659100D01*
X38658801Y15684500D01*
X38607999Y15659100D01*
Y15405099D02*
X38633401Y15455901D01*
X38607999Y15506700D01*
X38658801Y15481300D01*
X38709601Y15506700D01*
X38684201Y15455901D01*
X38709601Y15405099D01*
X38658801Y15430499D01*
X38607999Y15405099D01*
Y15151100D02*
X38633401Y15201900D01*
X38607999Y15252699D01*
X38658801Y15227299D01*
X38709601Y15252699D01*
X38684201Y15201900D01*
X38709601Y15151100D01*
X38658801Y15176500D01*
X38607999Y15151100D01*
Y14897099D02*
X38633401Y14947900D01*
X38607999Y14998700D01*
X38658801Y14973300D01*
X38709601Y14998700D01*
X38684201Y14947900D01*
X38709601Y14897099D01*
X38658801Y14922501D01*
X38607999Y14897099D01*
Y14643100D02*
X38633401Y14693900D01*
X38607999Y14744701D01*
X38658801Y14719299D01*
X38709601Y14744701D01*
X38684201Y14693900D01*
X38709601Y14643100D01*
X38658801Y14668500D01*
X38607999Y14643100D01*
Y14389101D02*
X38633401Y14439900D01*
X38607999Y14490700D01*
X38658801Y14465300D01*
X38709601Y14490700D01*
X38684201Y14439900D01*
X38709601Y14389101D01*
X38658801Y14414500D01*
X38607999Y14389101D01*
Y14135100D02*
X38633401Y14185899D01*
X38607999Y14236700D01*
X38658801Y14211301D01*
X38709601Y14236700D01*
X38684201Y14185899D01*
X38709601Y14135100D01*
X38658801Y14160500D01*
X38607999Y14135100D01*
Y13881100D02*
X38633401Y13931900D01*
X38607999Y13982700D01*
X38658801Y13957300D01*
X38709601Y13982700D01*
X38684201Y13931900D01*
X38709601Y13881100D01*
X38658801Y13906500D01*
X38607999Y13881100D01*
Y13627100D02*
X38633401Y13677901D01*
X38607999Y13728700D01*
X38658801Y13703300D01*
X38709601Y13728700D01*
X38684201Y13677901D01*
X38709601Y13627100D01*
X38658801Y13652499D01*
X38607999Y13627100D01*
Y13373100D02*
X38633401Y13423900D01*
X38607999Y13474699D01*
X38658801Y13449300D01*
X38709601Y13474699D01*
X38684201Y13423900D01*
X38709601Y13373100D01*
X38658801Y13398500D01*
X38607999Y13373100D01*
Y13119099D02*
X38633401Y13169901D01*
X38607999Y13220700D01*
X38658801Y13195300D01*
X38709601Y13220700D01*
X38684201Y13169901D01*
X38709601Y13119099D01*
X38658801Y13144501D01*
X38607999Y13119099D01*
Y12865100D02*
X38633401Y12915900D01*
X38607999Y12966701D01*
X38658801Y12941299D01*
X38709601Y12966701D01*
X38684201Y12915900D01*
X38709601Y12865100D01*
X38658801Y12890500D01*
X38607999Y12865100D01*
Y12611100D02*
X38633401Y12661900D01*
X38607999Y12712700D01*
X38658801Y12687300D01*
X38709601Y12712700D01*
X38684201Y12661900D01*
X38709601Y12611100D01*
X38658801Y12636500D01*
X38607999Y12611100D01*
Y12357100D02*
X38633401Y12407900D01*
X38607999Y12458700D01*
X38658801Y12433300D01*
X38709601Y12458700D01*
X38684201Y12407900D01*
X38709601Y12357100D01*
X38658801Y12382500D01*
X38607999Y12357100D01*
Y12103100D02*
X38633401Y12153900D01*
X38607999Y12204700D01*
X38658801Y12179300D01*
X38709601Y12204700D01*
X38684201Y12153900D01*
X38709601Y12103100D01*
X38658801Y12128500D01*
X38607999Y12103100D01*
Y11849100D02*
X38633401Y11899900D01*
X38607999Y11950700D01*
X38658801Y11925300D01*
X38709601Y11950700D01*
X38684201Y11899900D01*
X38709601Y11849100D01*
X38658801Y11874500D01*
X38607999Y11849100D01*
Y11595100D02*
X38633401Y11645900D01*
X38607999Y11696700D01*
X38658801Y11671300D01*
X38709601Y11696700D01*
X38684201Y11645900D01*
X38709601Y11595100D01*
X38658801Y11620500D01*
X38607999Y11595100D01*
Y11341100D02*
X38633401Y11391900D01*
X38607999Y11442700D01*
X38658801Y11417300D01*
X38709601Y11442700D01*
X38684201Y11391900D01*
X38709601Y11341100D01*
X38658801Y11366500D01*
X38607999Y11341100D01*
Y11087100D02*
X38633401Y11137900D01*
X38607999Y11188700D01*
X38658801Y11163300D01*
X38709601Y11188700D01*
X38684201Y11137900D01*
X38709601Y11087100D01*
X38658801Y11112500D01*
X38607999Y11087100D01*
Y10833100D02*
X38633401Y10883900D01*
X38607999Y10934700D01*
X38658801Y10909300D01*
X38709601Y10934700D01*
X38684201Y10883900D01*
X38709601Y10833100D01*
X38658801Y10858500D01*
X38607999Y10833100D01*
Y10579100D02*
X38633401Y10629900D01*
X38607999Y10680700D01*
X38658801Y10655300D01*
X38709601Y10680700D01*
X38684201Y10629900D01*
X38709601Y10579100D01*
X38658801Y10604500D01*
X38607999Y10579100D01*
Y10325100D02*
X38633401Y10375900D01*
X38607999Y10426700D01*
X38658801Y10401300D01*
X38709601Y10426700D01*
X38684201Y10375900D01*
X38709601Y10325100D01*
X38658801Y10350500D01*
X38607999Y10325100D01*
Y10071100D02*
X38633401Y10121900D01*
X38607999Y10172700D01*
X38658801Y10147300D01*
X38709601Y10172700D01*
X38684201Y10121900D01*
X38709601Y10071100D01*
X38658801Y10096500D01*
X38607999Y10071100D01*
Y9817100D02*
X38633401Y9867900D01*
X38607999Y9918700D01*
X38658801Y9893300D01*
X38709601Y9918700D01*
X38684201Y9867900D01*
X38709601Y9817100D01*
X38658801Y9842500D01*
X38607999Y9817100D01*
Y9563100D02*
X38633401Y9613900D01*
X38607999Y9664700D01*
X38658801Y9639300D01*
X38709601Y9664700D01*
X38684201Y9613900D01*
X38709601Y9563100D01*
X38658801Y9588500D01*
X38607999Y9563100D01*
Y9309100D02*
X38633401Y9359900D01*
X38607999Y9410700D01*
X38658801Y9385300D01*
X38709601Y9410700D01*
X38684201Y9359900D01*
X38709601Y9309100D01*
X38658801Y9334500D01*
X38607999Y9309100D01*
Y9055100D02*
X38633401Y9105900D01*
X38607999Y9156700D01*
X38658801Y9131300D01*
X38709601Y9156700D01*
X38684201Y9105900D01*
X38709601Y9055100D01*
X38658801Y9080500D01*
X38607999Y9055100D01*
Y8801100D02*
X38633401Y8851900D01*
X38607999Y8902700D01*
X38658801Y8877300D01*
X38709601Y8902700D01*
X38684201Y8851900D01*
X38709601Y8801100D01*
X38658801Y8826500D01*
X38607999Y8801100D01*
Y8547100D02*
X38633401Y8597900D01*
X38607999Y8648700D01*
X38658801Y8623300D01*
X38709601Y8648700D01*
X38684201Y8597900D01*
X38709601Y8547100D01*
X38658801Y8572500D01*
X38607999Y8547100D01*
Y8293100D02*
X38633401Y8343900D01*
X38607999Y8394700D01*
X38658801Y8369300D01*
X38709601Y8394700D01*
X38684201Y8343900D01*
X38709601Y8293100D01*
X38658801Y8318500D01*
X38607999Y8293100D01*
Y8039100D02*
X38633401Y8089900D01*
X38607999Y8140700D01*
X38658801Y8115300D01*
X38709601Y8140700D01*
X38684201Y8089900D01*
X38709601Y8039100D01*
X38658801Y8064500D01*
X38607999Y8039100D01*
Y7785100D02*
X38633401Y7835900D01*
X38607999Y7886700D01*
X38658801Y7861300D01*
X38709601Y7886700D01*
X38684201Y7835900D01*
X38709601Y7785100D01*
X38658801Y7810500D01*
X38607999Y7785100D01*
X38100000Y15659100D02*
X38125400Y15709900D01*
X38100000Y15760699D01*
X38150800Y15735300D01*
X38201599Y15760699D01*
X38176199Y15709900D01*
X38201599Y15659100D01*
X38150800Y15684500D01*
X38100000Y15659100D01*
Y15405099D02*
X38125400Y15455901D01*
X38100000Y15506700D01*
X38150800Y15481300D01*
X38201599Y15506700D01*
X38176199Y15455901D01*
X38201599Y15405099D01*
X38150800Y15430499D01*
X38100000Y15405099D01*
Y15151100D02*
X38125400Y15201900D01*
X38100000Y15252699D01*
X38150800Y15227299D01*
X38201599Y15252699D01*
X38176199Y15201900D01*
X38201599Y15151100D01*
X38150800Y15176500D01*
X38100000Y15151100D01*
Y14897099D02*
X38125400Y14947900D01*
X38100000Y14998700D01*
X38150800Y14973300D01*
X38201599Y14998700D01*
X38176199Y14947900D01*
X38201599Y14897099D01*
X38150800Y14922501D01*
X38100000Y14897099D01*
Y14643100D02*
X38125400Y14693900D01*
X38100000Y14744701D01*
X38150800Y14719299D01*
X38201599Y14744701D01*
X38176199Y14693900D01*
X38201599Y14643100D01*
X38150800Y14668500D01*
X38100000Y14643100D01*
Y14389101D02*
X38125400Y14439900D01*
X38100000Y14490700D01*
X38150800Y14465300D01*
X38201599Y14490700D01*
X38176199Y14439900D01*
X38201599Y14389101D01*
X38150800Y14414500D01*
X38100000Y14389101D01*
Y14135100D02*
X38125400Y14185899D01*
X38100000Y14236700D01*
X38150800Y14211301D01*
X38201599Y14236700D01*
X38176199Y14185899D01*
X38201599Y14135100D01*
X38150800Y14160500D01*
X38100000Y14135100D01*
Y13881100D02*
X38125400Y13931900D01*
X38100000Y13982700D01*
X38150800Y13957300D01*
X38201599Y13982700D01*
X38176199Y13931900D01*
X38201599Y13881100D01*
X38150800Y13906500D01*
X38100000Y13881100D01*
Y13627100D02*
X38125400Y13677901D01*
X38100000Y13728700D01*
X38150800Y13703300D01*
X38201599Y13728700D01*
X38176199Y13677901D01*
X38201599Y13627100D01*
X38150800Y13652499D01*
X38100000Y13627100D01*
Y13373100D02*
X38125400Y13423900D01*
X38100000Y13474699D01*
X38150800Y13449300D01*
X38201599Y13474699D01*
X38176199Y13423900D01*
X38201599Y13373100D01*
X38150800Y13398500D01*
X38100000Y13373100D01*
Y13119099D02*
X38125400Y13169901D01*
X38100000Y13220700D01*
X38150800Y13195300D01*
X38201599Y13220700D01*
X38176199Y13169901D01*
X38201599Y13119099D01*
X38150800Y13144501D01*
X38100000Y13119099D01*
Y12865100D02*
X38125400Y12915900D01*
X38100000Y12966701D01*
X38150800Y12941299D01*
X38201599Y12966701D01*
X38176199Y12915900D01*
X38201599Y12865100D01*
X38150800Y12890500D01*
X38100000Y12865100D01*
Y12611100D02*
X38125400Y12661900D01*
X38100000Y12712700D01*
X38150800Y12687300D01*
X38201599Y12712700D01*
X38176199Y12661900D01*
X38201599Y12611100D01*
X38150800Y12636500D01*
X38100000Y12611100D01*
Y12357100D02*
X38125400Y12407900D01*
X38100000Y12458700D01*
X38150800Y12433300D01*
X38201599Y12458700D01*
X38176199Y12407900D01*
X38201599Y12357100D01*
X38150800Y12382500D01*
X38100000Y12357100D01*
Y12103100D02*
X38125400Y12153900D01*
X38100000Y12204700D01*
X38150800Y12179300D01*
X38201599Y12204700D01*
X38176199Y12153900D01*
X38201599Y12103100D01*
X38150800Y12128500D01*
X38100000Y12103100D01*
Y11849100D02*
X38125400Y11899900D01*
X38100000Y11950700D01*
X38150800Y11925300D01*
X38201599Y11950700D01*
X38176199Y11899900D01*
X38201599Y11849100D01*
X38150800Y11874500D01*
X38100000Y11849100D01*
Y11595100D02*
X38125400Y11645900D01*
X38100000Y11696700D01*
X38150800Y11671300D01*
X38201599Y11696700D01*
X38176199Y11645900D01*
X38201599Y11595100D01*
X38150800Y11620500D01*
X38100000Y11595100D01*
Y11341100D02*
X38125400Y11391900D01*
X38100000Y11442700D01*
X38150800Y11417300D01*
X38201599Y11442700D01*
X38176199Y11391900D01*
X38201599Y11341100D01*
X38150800Y11366500D01*
X38100000Y11341100D01*
Y11087100D02*
X38125400Y11137900D01*
X38100000Y11188700D01*
X38150800Y11163300D01*
X38201599Y11188700D01*
X38176199Y11137900D01*
X38201599Y11087100D01*
X38150800Y11112500D01*
X38100000Y11087100D01*
Y10833100D02*
X38125400Y10883900D01*
X38100000Y10934700D01*
X38150800Y10909300D01*
X38201599Y10934700D01*
X38176199Y10883900D01*
X38201599Y10833100D01*
X38150800Y10858500D01*
X38100000Y10833100D01*
Y10579100D02*
X38125400Y10629900D01*
X38100000Y10680700D01*
X38150800Y10655300D01*
X38201599Y10680700D01*
X38176199Y10629900D01*
X38201599Y10579100D01*
X38150800Y10604500D01*
X38100000Y10579100D01*
Y10325100D02*
X38125400Y10375900D01*
X38100000Y10426700D01*
X38150800Y10401300D01*
X38201599Y10426700D01*
X38176199Y10375900D01*
X38201599Y10325100D01*
X38150800Y10350500D01*
X38100000Y10325100D01*
Y10071100D02*
X38125400Y10121900D01*
X38100000Y10172700D01*
X38150800Y10147300D01*
X38201599Y10172700D01*
X38176199Y10121900D01*
X38201599Y10071100D01*
X38150800Y10096500D01*
X38100000Y10071100D01*
Y9817100D02*
X38125400Y9867900D01*
X38100000Y9918700D01*
X38150800Y9893300D01*
X38201599Y9918700D01*
X38176199Y9867900D01*
X38201599Y9817100D01*
X38150800Y9842500D01*
X38100000Y9817100D01*
Y9563100D02*
X38125400Y9613900D01*
X38100000Y9664700D01*
X38150800Y9639300D01*
X38201599Y9664700D01*
X38176199Y9613900D01*
X38201599Y9563100D01*
X38150800Y9588500D01*
X38100000Y9563100D01*
Y9309100D02*
X38125400Y9359900D01*
X38100000Y9410700D01*
X38150800Y9385300D01*
X38201599Y9410700D01*
X38176199Y9359900D01*
X38201599Y9309100D01*
X38150800Y9334500D01*
X38100000Y9309100D01*
Y9055100D02*
X38125400Y9105900D01*
X38100000Y9156700D01*
X38150800Y9131300D01*
X38201599Y9156700D01*
X38176199Y9105900D01*
X38201599Y9055100D01*
X38150800Y9080500D01*
X38100000Y9055100D01*
Y8801100D02*
X38125400Y8851900D01*
X38100000Y8902700D01*
X38150800Y8877300D01*
X38201599Y8902700D01*
X38176199Y8851900D01*
X38201599Y8801100D01*
X38150800Y8826500D01*
X38100000Y8801100D01*
Y8547100D02*
X38125400Y8597900D01*
X38100000Y8648700D01*
X38150800Y8623300D01*
X38201599Y8648700D01*
X38176199Y8597900D01*
X38201599Y8547100D01*
X38150800Y8572500D01*
X38100000Y8547100D01*
Y8293100D02*
X38125400Y8343900D01*
X38100000Y8394700D01*
X38150800Y8369300D01*
X38201599Y8394700D01*
X38176199Y8343900D01*
X38201599Y8293100D01*
X38150800Y8318500D01*
X38100000Y8293100D01*
Y8039100D02*
X38125400Y8089900D01*
X38100000Y8140700D01*
X38150800Y8115300D01*
X38201599Y8140700D01*
X38176199Y8089900D01*
X38201599Y8039100D01*
X38150800Y8064500D01*
X38100000Y8039100D01*
Y7785100D02*
X38125400Y7835900D01*
X38100000Y7886700D01*
X38150800Y7861300D01*
X38201599Y7886700D01*
X38176199Y7835900D01*
X38201599Y7785100D01*
X38150800Y7810500D01*
X38100000Y7785100D01*
X34544000Y15659100D02*
X34569400Y15709900D01*
X34544000Y15760699D01*
X34594800Y15735300D01*
X34645599Y15760699D01*
X34620200Y15709900D01*
X34645599Y15659100D01*
X34594800Y15684500D01*
X34544000Y15659100D01*
Y15405099D02*
X34569400Y15455901D01*
X34544000Y15506700D01*
X34594800Y15481300D01*
X34645599Y15506700D01*
X34620200Y15455901D01*
X34645599Y15405099D01*
X34594800Y15430499D01*
X34544000Y15405099D01*
Y15151100D02*
X34569400Y15201900D01*
X34544000Y15252699D01*
X34594800Y15227299D01*
X34645599Y15252699D01*
X34620200Y15201900D01*
X34645599Y15151100D01*
X34594800Y15176500D01*
X34544000Y15151100D01*
Y14897099D02*
X34569400Y14947900D01*
X34544000Y14998700D01*
X34594800Y14973300D01*
X34645599Y14998700D01*
X34620200Y14947900D01*
X34645599Y14897099D01*
X34594800Y14922501D01*
X34544000Y14897099D01*
Y14643100D02*
X34569400Y14693900D01*
X34544000Y14744701D01*
X34594800Y14719299D01*
X34645599Y14744701D01*
X34620200Y14693900D01*
X34645599Y14643100D01*
X34594800Y14668500D01*
X34544000Y14643100D01*
Y14389101D02*
X34569400Y14439900D01*
X34544000Y14490700D01*
X34594800Y14465300D01*
X34645599Y14490700D01*
X34620200Y14439900D01*
X34645599Y14389101D01*
X34594800Y14414500D01*
X34544000Y14389101D01*
Y14135100D02*
X34569400Y14185899D01*
X34544000Y14236700D01*
X34594800Y14211301D01*
X34645599Y14236700D01*
X34620200Y14185899D01*
X34645599Y14135100D01*
X34594800Y14160500D01*
X34544000Y14135100D01*
Y13881100D02*
X34569400Y13931900D01*
X34544000Y13982700D01*
X34594800Y13957300D01*
X34645599Y13982700D01*
X34620200Y13931900D01*
X34645599Y13881100D01*
X34594800Y13906500D01*
X34544000Y13881100D01*
Y13627100D02*
X34569400Y13677901D01*
X34544000Y13728700D01*
X34594800Y13703300D01*
X34645599Y13728700D01*
X34620200Y13677901D01*
X34645599Y13627100D01*
X34594800Y13652499D01*
X34544000Y13627100D01*
Y13373100D02*
X34569400Y13423900D01*
X34544000Y13474699D01*
X34594800Y13449300D01*
X34645599Y13474699D01*
X34620200Y13423900D01*
X34645599Y13373100D01*
X34594800Y13398500D01*
X34544000Y13373100D01*
Y13119099D02*
X34569400Y13169901D01*
X34544000Y13220700D01*
X34594800Y13195300D01*
X34645599Y13220700D01*
X34620200Y13169901D01*
X34645599Y13119099D01*
X34594800Y13144501D01*
X34544000Y13119099D01*
Y12865100D02*
X34569400Y12915900D01*
X34544000Y12966701D01*
X34594800Y12941299D01*
X34645599Y12966701D01*
X34620200Y12915900D01*
X34645599Y12865100D01*
X34594800Y12890500D01*
X34544000Y12865100D01*
Y12611100D02*
X34569400Y12661900D01*
X34544000Y12712700D01*
X34594800Y12687300D01*
X34645599Y12712700D01*
X34620200Y12661900D01*
X34645599Y12611100D01*
X34594800Y12636500D01*
X34544000Y12611100D01*
Y12357100D02*
X34569400Y12407900D01*
X34544000Y12458700D01*
X34594800Y12433300D01*
X34645599Y12458700D01*
X34620200Y12407900D01*
X34645599Y12357100D01*
X34594800Y12382500D01*
X34544000Y12357100D01*
Y12103100D02*
X34569400Y12153900D01*
X34544000Y12204700D01*
X34594800Y12179300D01*
X34645599Y12204700D01*
X34620200Y12153900D01*
X34645599Y12103100D01*
X34594800Y12128500D01*
X34544000Y12103100D01*
Y11849100D02*
X34569400Y11899900D01*
X34544000Y11950700D01*
X34594800Y11925300D01*
X34645599Y11950700D01*
X34620200Y11899900D01*
X34645599Y11849100D01*
X34594800Y11874500D01*
X34544000Y11849100D01*
Y11595100D02*
X34569400Y11645900D01*
X34544000Y11696700D01*
X34594800Y11671300D01*
X34645599Y11696700D01*
X34620200Y11645900D01*
X34645599Y11595100D01*
X34594800Y11620500D01*
X34544000Y11595100D01*
Y11341100D02*
X34569400Y11391900D01*
X34544000Y11442700D01*
X34594800Y11417300D01*
X34645599Y11442700D01*
X34620200Y11391900D01*
X34645599Y11341100D01*
X34594800Y11366500D01*
X34544000Y11341100D01*
Y11087100D02*
X34569400Y11137900D01*
X34544000Y11188700D01*
X34594800Y11163300D01*
X34645599Y11188700D01*
X34620200Y11137900D01*
X34645599Y11087100D01*
X34594800Y11112500D01*
X34544000Y11087100D01*
Y10833100D02*
X34569400Y10883900D01*
X34544000Y10934700D01*
X34594800Y10909300D01*
X34645599Y10934700D01*
X34620200Y10883900D01*
X34645599Y10833100D01*
X34594800Y10858500D01*
X34544000Y10833100D01*
Y10579100D02*
X34569400Y10629900D01*
X34544000Y10680700D01*
X34594800Y10655300D01*
X34645599Y10680700D01*
X34620200Y10629900D01*
X34645599Y10579100D01*
X34594800Y10604500D01*
X34544000Y10579100D01*
Y10325100D02*
X34569400Y10375900D01*
X34544000Y10426700D01*
X34594800Y10401300D01*
X34645599Y10426700D01*
X34620200Y10375900D01*
X34645599Y10325100D01*
X34594800Y10350500D01*
X34544000Y10325100D01*
Y10071100D02*
X34569400Y10121900D01*
X34544000Y10172700D01*
X34594800Y10147300D01*
X34645599Y10172700D01*
X34620200Y10121900D01*
X34645599Y10071100D01*
X34594800Y10096500D01*
X34544000Y10071100D01*
Y9817100D02*
X34569400Y9867900D01*
X34544000Y9918700D01*
X34594800Y9893300D01*
X34645599Y9918700D01*
X34620200Y9867900D01*
X34645599Y9817100D01*
X34594800Y9842500D01*
X34544000Y9817100D01*
Y9563100D02*
X34569400Y9613900D01*
X34544000Y9664700D01*
X34594800Y9639300D01*
X34645599Y9664700D01*
X34620200Y9613900D01*
X34645599Y9563100D01*
X34594800Y9588500D01*
X34544000Y9563100D01*
Y9309100D02*
X34569400Y9359900D01*
X34544000Y9410700D01*
X34594800Y9385300D01*
X34645599Y9410700D01*
X34620200Y9359900D01*
X34645599Y9309100D01*
X34594800Y9334500D01*
X34544000Y9309100D01*
Y9055100D02*
X34569400Y9105900D01*
X34544000Y9156700D01*
X34594800Y9131300D01*
X34645599Y9156700D01*
X34620200Y9105900D01*
X34645599Y9055100D01*
X34594800Y9080500D01*
X34544000Y9055100D01*
Y8801100D02*
X34569400Y8851900D01*
X34544000Y8902700D01*
X34594800Y8877300D01*
X34645599Y8902700D01*
X34620200Y8851900D01*
X34645599Y8801100D01*
X34594800Y8826500D01*
X34544000Y8801100D01*
Y8547100D02*
X34569400Y8597900D01*
X34544000Y8648700D01*
X34594800Y8623300D01*
X34645599Y8648700D01*
X34620200Y8597900D01*
X34645599Y8547100D01*
X34594800Y8572500D01*
X34544000Y8547100D01*
Y8293100D02*
X34569400Y8343900D01*
X34544000Y8394700D01*
X34594800Y8369300D01*
X34645599Y8394700D01*
X34620200Y8343900D01*
X34645599Y8293100D01*
X34594800Y8318500D01*
X34544000Y8293100D01*
Y8039100D02*
X34569400Y8089900D01*
X34544000Y8140700D01*
X34594800Y8115300D01*
X34645599Y8140700D01*
X34620200Y8089900D01*
X34645599Y8039100D01*
X34594800Y8064500D01*
X34544000Y8039100D01*
Y7785100D02*
X34569400Y7835900D01*
X34544000Y7886700D01*
X34594800Y7861300D01*
X34645599Y7886700D01*
X34620200Y7835900D01*
X34645599Y7785100D01*
X34594800Y7810500D01*
X34544000Y7785100D01*
X34035999Y15659100D02*
X34061401Y15709900D01*
X34035999Y15760699D01*
X34086801Y15735300D01*
X34137601Y15760699D01*
X34112201Y15709900D01*
X34137601Y15659100D01*
X34086801Y15684500D01*
X34035999Y15659100D01*
Y15405099D02*
X34061401Y15455901D01*
X34035999Y15506700D01*
X34086801Y15481300D01*
X34137601Y15506700D01*
X34112201Y15455901D01*
X34137601Y15405099D01*
X34086801Y15430499D01*
X34035999Y15405099D01*
Y15151100D02*
X34061401Y15201900D01*
X34035999Y15252699D01*
X34086801Y15227299D01*
X34137601Y15252699D01*
X34112201Y15201900D01*
X34137601Y15151100D01*
X34086801Y15176500D01*
X34035999Y15151100D01*
Y14897099D02*
X34061401Y14947900D01*
X34035999Y14998700D01*
X34086801Y14973300D01*
X34137601Y14998700D01*
X34112201Y14947900D01*
X34137601Y14897099D01*
X34086801Y14922501D01*
X34035999Y14897099D01*
Y14643100D02*
X34061401Y14693900D01*
X34035999Y14744701D01*
X34086801Y14719299D01*
X34137601Y14744701D01*
X34112201Y14693900D01*
X34137601Y14643100D01*
X34086801Y14668500D01*
X34035999Y14643100D01*
Y14389101D02*
X34061401Y14439900D01*
X34035999Y14490700D01*
X34086801Y14465300D01*
X34137601Y14490700D01*
X34112201Y14439900D01*
X34137601Y14389101D01*
X34086801Y14414500D01*
X34035999Y14389101D01*
Y14135100D02*
X34061401Y14185899D01*
X34035999Y14236700D01*
X34086801Y14211301D01*
X34137601Y14236700D01*
X34112201Y14185899D01*
X34137601Y14135100D01*
X34086801Y14160500D01*
X34035999Y14135100D01*
Y13881100D02*
X34061401Y13931900D01*
X34035999Y13982700D01*
X34086801Y13957300D01*
X34137601Y13982700D01*
X34112201Y13931900D01*
X34137601Y13881100D01*
X34086801Y13906500D01*
X34035999Y13881100D01*
Y13627100D02*
X34061401Y13677901D01*
X34035999Y13728700D01*
X34086801Y13703300D01*
X34137601Y13728700D01*
X34112201Y13677901D01*
X34137601Y13627100D01*
X34086801Y13652499D01*
X34035999Y13627100D01*
Y13373100D02*
X34061401Y13423900D01*
X34035999Y13474699D01*
X34086801Y13449300D01*
X34137601Y13474699D01*
X34112201Y13423900D01*
X34137601Y13373100D01*
X34086801Y13398500D01*
X34035999Y13373100D01*
Y13119099D02*
X34061401Y13169901D01*
X34035999Y13220700D01*
X34086801Y13195300D01*
X34137601Y13220700D01*
X34112201Y13169901D01*
X34137601Y13119099D01*
X34086801Y13144501D01*
X34035999Y13119099D01*
Y12865100D02*
X34061401Y12915900D01*
X34035999Y12966701D01*
X34086801Y12941299D01*
X34137601Y12966701D01*
X34112201Y12915900D01*
X34137601Y12865100D01*
X34086801Y12890500D01*
X34035999Y12865100D01*
Y12611100D02*
X34061401Y12661900D01*
X34035999Y12712700D01*
X34086801Y12687300D01*
X34137601Y12712700D01*
X34112201Y12661900D01*
X34137601Y12611100D01*
X34086801Y12636500D01*
X34035999Y12611100D01*
Y12357100D02*
X34061401Y12407900D01*
X34035999Y12458700D01*
X34086801Y12433300D01*
X34137601Y12458700D01*
X34112201Y12407900D01*
X34137601Y12357100D01*
X34086801Y12382500D01*
X34035999Y12357100D01*
Y12103100D02*
X34061401Y12153900D01*
X34035999Y12204700D01*
X34086801Y12179300D01*
X34137601Y12204700D01*
X34112201Y12153900D01*
X34137601Y12103100D01*
X34086801Y12128500D01*
X34035999Y12103100D01*
Y11849100D02*
X34061401Y11899900D01*
X34035999Y11950700D01*
X34086801Y11925300D01*
X34137601Y11950700D01*
X34112201Y11899900D01*
X34137601Y11849100D01*
X34086801Y11874500D01*
X34035999Y11849100D01*
Y11595100D02*
X34061401Y11645900D01*
X34035999Y11696700D01*
X34086801Y11671300D01*
X34137601Y11696700D01*
X34112201Y11645900D01*
X34137601Y11595100D01*
X34086801Y11620500D01*
X34035999Y11595100D01*
Y11341100D02*
X34061401Y11391900D01*
X34035999Y11442700D01*
X34086801Y11417300D01*
X34137601Y11442700D01*
X34112201Y11391900D01*
X34137601Y11341100D01*
X34086801Y11366500D01*
X34035999Y11341100D01*
Y11087100D02*
X34061401Y11137900D01*
X34035999Y11188700D01*
X34086801Y11163300D01*
X34137601Y11188700D01*
X34112201Y11137900D01*
X34137601Y11087100D01*
X34086801Y11112500D01*
X34035999Y11087100D01*
Y10833100D02*
X34061401Y10883900D01*
X34035999Y10934700D01*
X34086801Y10909300D01*
X34137601Y10934700D01*
X34112201Y10883900D01*
X34137601Y10833100D01*
X34086801Y10858500D01*
X34035999Y10833100D01*
Y10579100D02*
X34061401Y10629900D01*
X34035999Y10680700D01*
X34086801Y10655300D01*
X34137601Y10680700D01*
X34112201Y10629900D01*
X34137601Y10579100D01*
X34086801Y10604500D01*
X34035999Y10579100D01*
Y10325100D02*
X34061401Y10375900D01*
X34035999Y10426700D01*
X34086801Y10401300D01*
X34137601Y10426700D01*
X34112201Y10375900D01*
X34137601Y10325100D01*
X34086801Y10350500D01*
X34035999Y10325100D01*
Y10071100D02*
X34061401Y10121900D01*
X34035999Y10172700D01*
X34086801Y10147300D01*
X34137601Y10172700D01*
X34112201Y10121900D01*
X34137601Y10071100D01*
X34086801Y10096500D01*
X34035999Y10071100D01*
Y9817100D02*
X34061401Y9867900D01*
X34035999Y9918700D01*
X34086801Y9893300D01*
X34137601Y9918700D01*
X34112201Y9867900D01*
X34137601Y9817100D01*
X34086801Y9842500D01*
X34035999Y9817100D01*
Y9563100D02*
X34061401Y9613900D01*
X34035999Y9664700D01*
X34086801Y9639300D01*
X34137601Y9664700D01*
X34112201Y9613900D01*
X34137601Y9563100D01*
X34086801Y9588500D01*
X34035999Y9563100D01*
Y9309100D02*
X34061401Y9359900D01*
X34035999Y9410700D01*
X34086801Y9385300D01*
X34137601Y9410700D01*
X34112201Y9359900D01*
X34137601Y9309100D01*
X34086801Y9334500D01*
X34035999Y9309100D01*
Y9055100D02*
X34061401Y9105900D01*
X34035999Y9156700D01*
X34086801Y9131300D01*
X34137601Y9156700D01*
X34112201Y9105900D01*
X34137601Y9055100D01*
X34086801Y9080500D01*
X34035999Y9055100D01*
Y8801100D02*
X34061401Y8851900D01*
X34035999Y8902700D01*
X34086801Y8877300D01*
X34137601Y8902700D01*
X34112201Y8851900D01*
X34137601Y8801100D01*
X34086801Y8826500D01*
X34035999Y8801100D01*
Y8547100D02*
X34061401Y8597900D01*
X34035999Y8648700D01*
X34086801Y8623300D01*
X34137601Y8648700D01*
X34112201Y8597900D01*
X34137601Y8547100D01*
X34086801Y8572500D01*
X34035999Y8547100D01*
Y8293100D02*
X34061401Y8343900D01*
X34035999Y8394700D01*
X34086801Y8369300D01*
X34137601Y8394700D01*
X34112201Y8343900D01*
X34137601Y8293100D01*
X34086801Y8318500D01*
X34035999Y8293100D01*
Y8039100D02*
X34061401Y8089900D01*
X34035999Y8140700D01*
X34086801Y8115300D01*
X34137601Y8140700D01*
X34112201Y8089900D01*
X34137601Y8039100D01*
X34086801Y8064500D01*
X34035999Y8039100D01*
Y7785100D02*
X34061401Y7835900D01*
X34035999Y7886700D01*
X34086801Y7861300D01*
X34137601Y7886700D01*
X34112201Y7835900D01*
X34137601Y7785100D01*
X34086801Y7810500D01*
X34035999Y7785100D01*
X30479999Y15659100D02*
X30505399Y15709900D01*
X30479999Y15760699D01*
X30530801Y15735300D01*
X30581601Y15760699D01*
X30556201Y15709900D01*
X30581601Y15659100D01*
X30530801Y15684500D01*
X30479999Y15659100D01*
Y15405099D02*
X30505399Y15455901D01*
X30479999Y15506700D01*
X30530801Y15481300D01*
X30581601Y15506700D01*
X30556201Y15455901D01*
X30581601Y15405099D01*
X30530801Y15430499D01*
X30479999Y15405099D01*
Y15151100D02*
X30505399Y15201900D01*
X30479999Y15252699D01*
X30530801Y15227299D01*
X30581601Y15252699D01*
X30556201Y15201900D01*
X30581601Y15151100D01*
X30530801Y15176500D01*
X30479999Y15151100D01*
Y14897099D02*
X30505399Y14947900D01*
X30479999Y14998700D01*
X30530801Y14973300D01*
X30581601Y14998700D01*
X30556201Y14947900D01*
X30581601Y14897099D01*
X30530801Y14922501D01*
X30479999Y14897099D01*
Y14643100D02*
X30505399Y14693900D01*
X30479999Y14744701D01*
X30530801Y14719299D01*
X30581601Y14744701D01*
X30556201Y14693900D01*
X30581601Y14643100D01*
X30530801Y14668500D01*
X30479999Y14643100D01*
Y14389101D02*
X30505399Y14439900D01*
X30479999Y14490700D01*
X30530801Y14465300D01*
X30581601Y14490700D01*
X30556201Y14439900D01*
X30581601Y14389101D01*
X30530801Y14414500D01*
X30479999Y14389101D01*
Y14135100D02*
X30505399Y14185899D01*
X30479999Y14236700D01*
X30530801Y14211301D01*
X30581601Y14236700D01*
X30556201Y14185899D01*
X30581601Y14135100D01*
X30530801Y14160500D01*
X30479999Y14135100D01*
Y13881100D02*
X30505399Y13931900D01*
X30479999Y13982700D01*
X30530801Y13957300D01*
X30581601Y13982700D01*
X30556201Y13931900D01*
X30581601Y13881100D01*
X30530801Y13906500D01*
X30479999Y13881100D01*
Y13627100D02*
X30505399Y13677901D01*
X30479999Y13728700D01*
X30530801Y13703300D01*
X30581601Y13728700D01*
X30556201Y13677901D01*
X30581601Y13627100D01*
X30530801Y13652499D01*
X30479999Y13627100D01*
Y13373100D02*
X30505399Y13423900D01*
X30479999Y13474699D01*
X30530801Y13449300D01*
X30581601Y13474699D01*
X30556201Y13423900D01*
X30581601Y13373100D01*
X30530801Y13398500D01*
X30479999Y13373100D01*
Y13119099D02*
X30505399Y13169901D01*
X30479999Y13220700D01*
X30530801Y13195300D01*
X30581601Y13220700D01*
X30556201Y13169901D01*
X30581601Y13119099D01*
X30530801Y13144501D01*
X30479999Y13119099D01*
Y12865100D02*
X30505399Y12915900D01*
X30479999Y12966701D01*
X30530801Y12941299D01*
X30581601Y12966701D01*
X30556201Y12915900D01*
X30581601Y12865100D01*
X30530801Y12890500D01*
X30479999Y12865100D01*
Y12611100D02*
X30505399Y12661900D01*
X30479999Y12712700D01*
X30530801Y12687300D01*
X30581601Y12712700D01*
X30556201Y12661900D01*
X30581601Y12611100D01*
X30530801Y12636500D01*
X30479999Y12611100D01*
Y12357100D02*
X30505399Y12407900D01*
X30479999Y12458700D01*
X30530801Y12433300D01*
X30581601Y12458700D01*
X30556201Y12407900D01*
X30581601Y12357100D01*
X30530801Y12382500D01*
X30479999Y12357100D01*
Y12103100D02*
X30505399Y12153900D01*
X30479999Y12204700D01*
X30530801Y12179300D01*
X30581601Y12204700D01*
X30556201Y12153900D01*
X30581601Y12103100D01*
X30530801Y12128500D01*
X30479999Y12103100D01*
Y11849100D02*
X30505399Y11899900D01*
X30479999Y11950700D01*
X30530801Y11925300D01*
X30581601Y11950700D01*
X30556201Y11899900D01*
X30581601Y11849100D01*
X30530801Y11874500D01*
X30479999Y11849100D01*
Y11595100D02*
X30505399Y11645900D01*
X30479999Y11696700D01*
X30530801Y11671300D01*
X30581601Y11696700D01*
X30556201Y11645900D01*
X30581601Y11595100D01*
X30530801Y11620500D01*
X30479999Y11595100D01*
Y11341100D02*
X30505399Y11391900D01*
X30479999Y11442700D01*
X30530801Y11417300D01*
X30581601Y11442700D01*
X30556201Y11391900D01*
X30581601Y11341100D01*
X30530801Y11366500D01*
X30479999Y11341100D01*
Y11087100D02*
X30505399Y11137900D01*
X30479999Y11188700D01*
X30530801Y11163300D01*
X30581601Y11188700D01*
X30556201Y11137900D01*
X30581601Y11087100D01*
X30530801Y11112500D01*
X30479999Y11087100D01*
Y10833100D02*
X30505399Y10883900D01*
X30479999Y10934700D01*
X30530801Y10909300D01*
X30581601Y10934700D01*
X30556201Y10883900D01*
X30581601Y10833100D01*
X30530801Y10858500D01*
X30479999Y10833100D01*
Y10579100D02*
X30505399Y10629900D01*
X30479999Y10680700D01*
X30530801Y10655300D01*
X30581601Y10680700D01*
X30556201Y10629900D01*
X30581601Y10579100D01*
X30530801Y10604500D01*
X30479999Y10579100D01*
Y10325100D02*
X30505399Y10375900D01*
X30479999Y10426700D01*
X30530801Y10401300D01*
X30581601Y10426700D01*
X30556201Y10375900D01*
X30581601Y10325100D01*
X30530801Y10350500D01*
X30479999Y10325100D01*
Y10071100D02*
X30505399Y10121900D01*
X30479999Y10172700D01*
X30530801Y10147300D01*
X30581601Y10172700D01*
X30556201Y10121900D01*
X30581601Y10071100D01*
X30530801Y10096500D01*
X30479999Y10071100D01*
Y9817100D02*
X30505399Y9867900D01*
X30479999Y9918700D01*
X30530801Y9893300D01*
X30581601Y9918700D01*
X30556201Y9867900D01*
X30581601Y9817100D01*
X30530801Y9842500D01*
X30479999Y9817100D01*
Y9563100D02*
X30505399Y9613900D01*
X30479999Y9664700D01*
X30530801Y9639300D01*
X30581601Y9664700D01*
X30556201Y9613900D01*
X30581601Y9563100D01*
X30530801Y9588500D01*
X30479999Y9563100D01*
Y9309100D02*
X30505399Y9359900D01*
X30479999Y9410700D01*
X30530801Y9385300D01*
X30581601Y9410700D01*
X30556201Y9359900D01*
X30581601Y9309100D01*
X30530801Y9334500D01*
X30479999Y9309100D01*
Y9055100D02*
X30505399Y9105900D01*
X30479999Y9156700D01*
X30530801Y9131300D01*
X30581601Y9156700D01*
X30556201Y9105900D01*
X30581601Y9055100D01*
X30530801Y9080500D01*
X30479999Y9055100D01*
Y8801100D02*
X30505399Y8851900D01*
X30479999Y8902700D01*
X30530801Y8877300D01*
X30581601Y8902700D01*
X30556201Y8851900D01*
X30581601Y8801100D01*
X30530801Y8826500D01*
X30479999Y8801100D01*
Y8547100D02*
X30505399Y8597900D01*
X30479999Y8648700D01*
X30530801Y8623300D01*
X30581601Y8648700D01*
X30556201Y8597900D01*
X30581601Y8547100D01*
X30530801Y8572500D01*
X30479999Y8547100D01*
Y8293100D02*
X30505399Y8343900D01*
X30479999Y8394700D01*
X30530801Y8369300D01*
X30581601Y8394700D01*
X30556201Y8343900D01*
X30581601Y8293100D01*
X30530801Y8318500D01*
X30479999Y8293100D01*
Y8039100D02*
X30505399Y8089900D01*
X30479999Y8140700D01*
X30530801Y8115300D01*
X30581601Y8140700D01*
X30556201Y8089900D01*
X30581601Y8039100D01*
X30530801Y8064500D01*
X30479999Y8039100D01*
Y7785100D02*
X30505399Y7835900D01*
X30479999Y7886700D01*
X30530801Y7861300D01*
X30581601Y7886700D01*
X30556201Y7835900D01*
X30581601Y7785100D01*
X30530801Y7810500D01*
X30479999Y7785100D01*
X29972000Y15659100D02*
X29997400Y15709900D01*
X29972000Y15760699D01*
X30022800Y15735300D01*
X30073599Y15760699D01*
X30048199Y15709900D01*
X30073599Y15659100D01*
X30022800Y15684500D01*
X29972000Y15659100D01*
Y15405099D02*
X29997400Y15455901D01*
X29972000Y15506700D01*
X30022800Y15481300D01*
X30073599Y15506700D01*
X30048199Y15455901D01*
X30073599Y15405099D01*
X30022800Y15430499D01*
X29972000Y15405099D01*
Y15151100D02*
X29997400Y15201900D01*
X29972000Y15252699D01*
X30022800Y15227299D01*
X30073599Y15252699D01*
X30048199Y15201900D01*
X30073599Y15151100D01*
X30022800Y15176500D01*
X29972000Y15151100D01*
Y14897099D02*
X29997400Y14947900D01*
X29972000Y14998700D01*
X30022800Y14973300D01*
X30073599Y14998700D01*
X30048199Y14947900D01*
X30073599Y14897099D01*
X30022800Y14922501D01*
X29972000Y14897099D01*
Y14643100D02*
X29997400Y14693900D01*
X29972000Y14744701D01*
X30022800Y14719299D01*
X30073599Y14744701D01*
X30048199Y14693900D01*
X30073599Y14643100D01*
X30022800Y14668500D01*
X29972000Y14643100D01*
Y14389101D02*
X29997400Y14439900D01*
X29972000Y14490700D01*
X30022800Y14465300D01*
X30073599Y14490700D01*
X30048199Y14439900D01*
X30073599Y14389101D01*
X30022800Y14414500D01*
X29972000Y14389101D01*
Y14135100D02*
X29997400Y14185899D01*
X29972000Y14236700D01*
X30022800Y14211301D01*
X30073599Y14236700D01*
X30048199Y14185899D01*
X30073599Y14135100D01*
X30022800Y14160500D01*
X29972000Y14135100D01*
Y13881100D02*
X29997400Y13931900D01*
X29972000Y13982700D01*
X30022800Y13957300D01*
X30073599Y13982700D01*
X30048199Y13931900D01*
X30073599Y13881100D01*
X30022800Y13906500D01*
X29972000Y13881100D01*
Y13627100D02*
X29997400Y13677901D01*
X29972000Y13728700D01*
X30022800Y13703300D01*
X30073599Y13728700D01*
X30048199Y13677901D01*
X30073599Y13627100D01*
X30022800Y13652499D01*
X29972000Y13627100D01*
Y13373100D02*
X29997400Y13423900D01*
X29972000Y13474699D01*
X30022800Y13449300D01*
X30073599Y13474699D01*
X30048199Y13423900D01*
X30073599Y13373100D01*
X30022800Y13398500D01*
X29972000Y13373100D01*
Y13119099D02*
X29997400Y13169901D01*
X29972000Y13220700D01*
X30022800Y13195300D01*
X30073599Y13220700D01*
X30048199Y13169901D01*
X30073599Y13119099D01*
X30022800Y13144501D01*
X29972000Y13119099D01*
Y12865100D02*
X29997400Y12915900D01*
X29972000Y12966701D01*
X30022800Y12941299D01*
X30073599Y12966701D01*
X30048199Y12915900D01*
X30073599Y12865100D01*
X30022800Y12890500D01*
X29972000Y12865100D01*
Y12611100D02*
X29997400Y12661900D01*
X29972000Y12712700D01*
X30022800Y12687300D01*
X30073599Y12712700D01*
X30048199Y12661900D01*
X30073599Y12611100D01*
X30022800Y12636500D01*
X29972000Y12611100D01*
Y12357100D02*
X29997400Y12407900D01*
X29972000Y12458700D01*
X30022800Y12433300D01*
X30073599Y12458700D01*
X30048199Y12407900D01*
X30073599Y12357100D01*
X30022800Y12382500D01*
X29972000Y12357100D01*
Y12103100D02*
X29997400Y12153900D01*
X29972000Y12204700D01*
X30022800Y12179300D01*
X30073599Y12204700D01*
X30048199Y12153900D01*
X30073599Y12103100D01*
X30022800Y12128500D01*
X29972000Y12103100D01*
Y11849100D02*
X29997400Y11899900D01*
X29972000Y11950700D01*
X30022800Y11925300D01*
X30073599Y11950700D01*
X30048199Y11899900D01*
X30073599Y11849100D01*
X30022800Y11874500D01*
X29972000Y11849100D01*
Y11595100D02*
X29997400Y11645900D01*
X29972000Y11696700D01*
X30022800Y11671300D01*
X30073599Y11696700D01*
X30048199Y11645900D01*
X30073599Y11595100D01*
X30022800Y11620500D01*
X29972000Y11595100D01*
Y11341100D02*
X29997400Y11391900D01*
X29972000Y11442700D01*
X30022800Y11417300D01*
X30073599Y11442700D01*
X30048199Y11391900D01*
X30073599Y11341100D01*
X30022800Y11366500D01*
X29972000Y11341100D01*
Y11087100D02*
X29997400Y11137900D01*
X29972000Y11188700D01*
X30022800Y11163300D01*
X30073599Y11188700D01*
X30048199Y11137900D01*
X30073599Y11087100D01*
X30022800Y11112500D01*
X29972000Y11087100D01*
Y10833100D02*
X29997400Y10883900D01*
X29972000Y10934700D01*
X30022800Y10909300D01*
X30073599Y10934700D01*
X30048199Y10883900D01*
X30073599Y10833100D01*
X30022800Y10858500D01*
X29972000Y10833100D01*
Y10579100D02*
X29997400Y10629900D01*
X29972000Y10680700D01*
X30022800Y10655300D01*
X30073599Y10680700D01*
X30048199Y10629900D01*
X30073599Y10579100D01*
X30022800Y10604500D01*
X29972000Y10579100D01*
Y10325100D02*
X29997400Y10375900D01*
X29972000Y10426700D01*
X30022800Y10401300D01*
X30073599Y10426700D01*
X30048199Y10375900D01*
X30073599Y10325100D01*
X30022800Y10350500D01*
X29972000Y10325100D01*
Y10071100D02*
X29997400Y10121900D01*
X29972000Y10172700D01*
X30022800Y10147300D01*
X30073599Y10172700D01*
X30048199Y10121900D01*
X30073599Y10071100D01*
X30022800Y10096500D01*
X29972000Y10071100D01*
Y9817100D02*
X29997400Y9867900D01*
X29972000Y9918700D01*
X30022800Y9893300D01*
X30073599Y9918700D01*
X30048199Y9867900D01*
X30073599Y9817100D01*
X30022800Y9842500D01*
X29972000Y9817100D01*
Y9563100D02*
X29997400Y9613900D01*
X29972000Y9664700D01*
X30022800Y9639300D01*
X30073599Y9664700D01*
X30048199Y9613900D01*
X30073599Y9563100D01*
X30022800Y9588500D01*
X29972000Y9563100D01*
Y9309100D02*
X29997400Y9359900D01*
X29972000Y9410700D01*
X30022800Y9385300D01*
X30073599Y9410700D01*
X30048199Y9359900D01*
X30073599Y9309100D01*
X30022800Y9334500D01*
X29972000Y9309100D01*
Y9055100D02*
X29997400Y9105900D01*
X29972000Y9156700D01*
X30022800Y9131300D01*
X30073599Y9156700D01*
X30048199Y9105900D01*
X30073599Y9055100D01*
X30022800Y9080500D01*
X29972000Y9055100D01*
Y8801100D02*
X29997400Y8851900D01*
X29972000Y8902700D01*
X30022800Y8877300D01*
X30073599Y8902700D01*
X30048199Y8851900D01*
X30073599Y8801100D01*
X30022800Y8826500D01*
X29972000Y8801100D01*
Y8547100D02*
X29997400Y8597900D01*
X29972000Y8648700D01*
X30022800Y8623300D01*
X30073599Y8648700D01*
X30048199Y8597900D01*
X30073599Y8547100D01*
X30022800Y8572500D01*
X29972000Y8547100D01*
Y8293100D02*
X29997400Y8343900D01*
X29972000Y8394700D01*
X30022800Y8369300D01*
X30073599Y8394700D01*
X30048199Y8343900D01*
X30073599Y8293100D01*
X30022800Y8318500D01*
X29972000Y8293100D01*
Y8039100D02*
X29997400Y8089900D01*
X29972000Y8140700D01*
X30022800Y8115300D01*
X30073599Y8140700D01*
X30048199Y8089900D01*
X30073599Y8039100D01*
X30022800Y8064500D01*
X29972000Y8039100D01*
Y7785100D02*
X29997400Y7835900D01*
X29972000Y7886700D01*
X30022800Y7861300D01*
X30073599Y7886700D01*
X30048199Y7835900D01*
X30073599Y7785100D01*
X30022800Y7810500D01*
X29972000Y7785100D01*
X26416000Y15659100D02*
X26441400Y15709900D01*
X26416000Y15760699D01*
X26466800Y15735300D01*
X26517599Y15760699D01*
X26492200Y15709900D01*
X26517599Y15659100D01*
X26466800Y15684500D01*
X26416000Y15659100D01*
Y15405099D02*
X26441400Y15455901D01*
X26416000Y15506700D01*
X26466800Y15481300D01*
X26517599Y15506700D01*
X26492200Y15455901D01*
X26517599Y15405099D01*
X26466800Y15430499D01*
X26416000Y15405099D01*
Y15151100D02*
X26441400Y15201900D01*
X26416000Y15252699D01*
X26466800Y15227299D01*
X26517599Y15252699D01*
X26492200Y15201900D01*
X26517599Y15151100D01*
X26466800Y15176500D01*
X26416000Y15151100D01*
Y14897099D02*
X26441400Y14947900D01*
X26416000Y14998700D01*
X26466800Y14973300D01*
X26517599Y14998700D01*
X26492200Y14947900D01*
X26517599Y14897099D01*
X26466800Y14922501D01*
X26416000Y14897099D01*
Y14643100D02*
X26441400Y14693900D01*
X26416000Y14744701D01*
X26466800Y14719299D01*
X26517599Y14744701D01*
X26492200Y14693900D01*
X26517599Y14643100D01*
X26466800Y14668500D01*
X26416000Y14643100D01*
Y14389101D02*
X26441400Y14439900D01*
X26416000Y14490700D01*
X26466800Y14465300D01*
X26517599Y14490700D01*
X26492200Y14439900D01*
X26517599Y14389101D01*
X26466800Y14414500D01*
X26416000Y14389101D01*
Y14135100D02*
X26441400Y14185899D01*
X26416000Y14236700D01*
X26466800Y14211301D01*
X26517599Y14236700D01*
X26492200Y14185899D01*
X26517599Y14135100D01*
X26466800Y14160500D01*
X26416000Y14135100D01*
Y13881100D02*
X26441400Y13931900D01*
X26416000Y13982700D01*
X26466800Y13957300D01*
X26517599Y13982700D01*
X26492200Y13931900D01*
X26517599Y13881100D01*
X26466800Y13906500D01*
X26416000Y13881100D01*
Y13627100D02*
X26441400Y13677901D01*
X26416000Y13728700D01*
X26466800Y13703300D01*
X26517599Y13728700D01*
X26492200Y13677901D01*
X26517599Y13627100D01*
X26466800Y13652499D01*
X26416000Y13627100D01*
Y13373100D02*
X26441400Y13423900D01*
X26416000Y13474699D01*
X26466800Y13449300D01*
X26517599Y13474699D01*
X26492200Y13423900D01*
X26517599Y13373100D01*
X26466800Y13398500D01*
X26416000Y13373100D01*
Y13119099D02*
X26441400Y13169901D01*
X26416000Y13220700D01*
X26466800Y13195300D01*
X26517599Y13220700D01*
X26492200Y13169901D01*
X26517599Y13119099D01*
X26466800Y13144501D01*
X26416000Y13119099D01*
Y12865100D02*
X26441400Y12915900D01*
X26416000Y12966701D01*
X26466800Y12941299D01*
X26517599Y12966701D01*
X26492200Y12915900D01*
X26517599Y12865100D01*
X26466800Y12890500D01*
X26416000Y12865100D01*
Y12611100D02*
X26441400Y12661900D01*
X26416000Y12712700D01*
X26466800Y12687300D01*
X26517599Y12712700D01*
X26492200Y12661900D01*
X26517599Y12611100D01*
X26466800Y12636500D01*
X26416000Y12611100D01*
Y12357100D02*
X26441400Y12407900D01*
X26416000Y12458700D01*
X26466800Y12433300D01*
X26517599Y12458700D01*
X26492200Y12407900D01*
X26517599Y12357100D01*
X26466800Y12382500D01*
X26416000Y12357100D01*
Y12103100D02*
X26441400Y12153900D01*
X26416000Y12204700D01*
X26466800Y12179300D01*
X26517599Y12204700D01*
X26492200Y12153900D01*
X26517599Y12103100D01*
X26466800Y12128500D01*
X26416000Y12103100D01*
Y11849100D02*
X26441400Y11899900D01*
X26416000Y11950700D01*
X26466800Y11925300D01*
X26517599Y11950700D01*
X26492200Y11899900D01*
X26517599Y11849100D01*
X26466800Y11874500D01*
X26416000Y11849100D01*
Y11595100D02*
X26441400Y11645900D01*
X26416000Y11696700D01*
X26466800Y11671300D01*
X26517599Y11696700D01*
X26492200Y11645900D01*
X26517599Y11595100D01*
X26466800Y11620500D01*
X26416000Y11595100D01*
Y11341100D02*
X26441400Y11391900D01*
X26416000Y11442700D01*
X26466800Y11417300D01*
X26517599Y11442700D01*
X26492200Y11391900D01*
X26517599Y11341100D01*
X26466800Y11366500D01*
X26416000Y11341100D01*
Y11087100D02*
X26441400Y11137900D01*
X26416000Y11188700D01*
X26466800Y11163300D01*
X26517599Y11188700D01*
X26492200Y11137900D01*
X26517599Y11087100D01*
X26466800Y11112500D01*
X26416000Y11087100D01*
Y10833100D02*
X26441400Y10883900D01*
X26416000Y10934700D01*
X26466800Y10909300D01*
X26517599Y10934700D01*
X26492200Y10883900D01*
X26517599Y10833100D01*
X26466800Y10858500D01*
X26416000Y10833100D01*
Y10579100D02*
X26441400Y10629900D01*
X26416000Y10680700D01*
X26466800Y10655300D01*
X26517599Y10680700D01*
X26492200Y10629900D01*
X26517599Y10579100D01*
X26466800Y10604500D01*
X26416000Y10579100D01*
Y10325100D02*
X26441400Y10375900D01*
X26416000Y10426700D01*
X26466800Y10401300D01*
X26517599Y10426700D01*
X26492200Y10375900D01*
X26517599Y10325100D01*
X26466800Y10350500D01*
X26416000Y10325100D01*
Y10071100D02*
X26441400Y10121900D01*
X26416000Y10172700D01*
X26466800Y10147300D01*
X26517599Y10172700D01*
X26492200Y10121900D01*
X26517599Y10071100D01*
X26466800Y10096500D01*
X26416000Y10071100D01*
Y9817100D02*
X26441400Y9867900D01*
X26416000Y9918700D01*
X26466800Y9893300D01*
X26517599Y9918700D01*
X26492200Y9867900D01*
X26517599Y9817100D01*
X26466800Y9842500D01*
X26416000Y9817100D01*
Y9563100D02*
X26441400Y9613900D01*
X26416000Y9664700D01*
X26466800Y9639300D01*
X26517599Y9664700D01*
X26492200Y9613900D01*
X26517599Y9563100D01*
X26466800Y9588500D01*
X26416000Y9563100D01*
Y9309100D02*
X26441400Y9359900D01*
X26416000Y9410700D01*
X26466800Y9385300D01*
X26517599Y9410700D01*
X26492200Y9359900D01*
X26517599Y9309100D01*
X26466800Y9334500D01*
X26416000Y9309100D01*
Y9055100D02*
X26441400Y9105900D01*
X26416000Y9156700D01*
X26466800Y9131300D01*
X26517599Y9156700D01*
X26492200Y9105900D01*
X26517599Y9055100D01*
X26466800Y9080500D01*
X26416000Y9055100D01*
Y8801100D02*
X26441400Y8851900D01*
X26416000Y8902700D01*
X26466800Y8877300D01*
X26517599Y8902700D01*
X26492200Y8851900D01*
X26517599Y8801100D01*
X26466800Y8826500D01*
X26416000Y8801100D01*
Y8547100D02*
X26441400Y8597900D01*
X26416000Y8648700D01*
X26466800Y8623300D01*
X26517599Y8648700D01*
X26492200Y8597900D01*
X26517599Y8547100D01*
X26466800Y8572500D01*
X26416000Y8547100D01*
Y8293100D02*
X26441400Y8343900D01*
X26416000Y8394700D01*
X26466800Y8369300D01*
X26517599Y8394700D01*
X26492200Y8343900D01*
X26517599Y8293100D01*
X26466800Y8318500D01*
X26416000Y8293100D01*
Y8039100D02*
X26441400Y8089900D01*
X26416000Y8140700D01*
X26466800Y8115300D01*
X26517599Y8140700D01*
X26492200Y8089900D01*
X26517599Y8039100D01*
X26466800Y8064500D01*
X26416000Y8039100D01*
Y7785100D02*
X26441400Y7835900D01*
X26416000Y7886700D01*
X26466800Y7861300D01*
X26517599Y7886700D01*
X26492200Y7835900D01*
X26517599Y7785100D01*
X26466800Y7810500D01*
X26416000Y7785100D01*
X25907999Y15659100D02*
X25933401Y15709900D01*
X25907999Y15760699D01*
X25958801Y15735300D01*
X26009601Y15760699D01*
X25984201Y15709900D01*
X26009601Y15659100D01*
X25958801Y15684500D01*
X25907999Y15659100D01*
Y15405099D02*
X25933401Y15455901D01*
X25907999Y15506700D01*
X25958801Y15481300D01*
X26009601Y15506700D01*
X25984201Y15455901D01*
X26009601Y15405099D01*
X25958801Y15430499D01*
X25907999Y15405099D01*
Y15151100D02*
X25933401Y15201900D01*
X25907999Y15252699D01*
X25958801Y15227299D01*
X26009601Y15252699D01*
X25984201Y15201900D01*
X26009601Y15151100D01*
X25958801Y15176500D01*
X25907999Y15151100D01*
Y14897099D02*
X25933401Y14947900D01*
X25907999Y14998700D01*
X25958801Y14973300D01*
X26009601Y14998700D01*
X25984201Y14947900D01*
X26009601Y14897099D01*
X25958801Y14922501D01*
X25907999Y14897099D01*
Y14643100D02*
X25933401Y14693900D01*
X25907999Y14744701D01*
X25958801Y14719299D01*
X26009601Y14744701D01*
X25984201Y14693900D01*
X26009601Y14643100D01*
X25958801Y14668500D01*
X25907999Y14643100D01*
Y14389101D02*
X25933401Y14439900D01*
X25907999Y14490700D01*
X25958801Y14465300D01*
X26009601Y14490700D01*
X25984201Y14439900D01*
X26009601Y14389101D01*
X25958801Y14414500D01*
X25907999Y14389101D01*
Y14135100D02*
X25933401Y14185899D01*
X25907999Y14236700D01*
X25958801Y14211301D01*
X26009601Y14236700D01*
X25984201Y14185899D01*
X26009601Y14135100D01*
X25958801Y14160500D01*
X25907999Y14135100D01*
Y13881100D02*
X25933401Y13931900D01*
X25907999Y13982700D01*
X25958801Y13957300D01*
X26009601Y13982700D01*
X25984201Y13931900D01*
X26009601Y13881100D01*
X25958801Y13906500D01*
X25907999Y13881100D01*
Y13627100D02*
X25933401Y13677901D01*
X25907999Y13728700D01*
X25958801Y13703300D01*
X26009601Y13728700D01*
X25984201Y13677901D01*
X26009601Y13627100D01*
X25958801Y13652499D01*
X25907999Y13627100D01*
Y13373100D02*
X25933401Y13423900D01*
X25907999Y13474699D01*
X25958801Y13449300D01*
X26009601Y13474699D01*
X25984201Y13423900D01*
X26009601Y13373100D01*
X25958801Y13398500D01*
X25907999Y13373100D01*
Y13119099D02*
X25933401Y13169901D01*
X25907999Y13220700D01*
X25958801Y13195300D01*
X26009601Y13220700D01*
X25984201Y13169901D01*
X26009601Y13119099D01*
X25958801Y13144501D01*
X25907999Y13119099D01*
Y12865100D02*
X25933401Y12915900D01*
X25907999Y12966701D01*
X25958801Y12941299D01*
X26009601Y12966701D01*
X25984201Y12915900D01*
X26009601Y12865100D01*
X25958801Y12890500D01*
X25907999Y12865100D01*
Y12611100D02*
X25933401Y12661900D01*
X25907999Y12712700D01*
X25958801Y12687300D01*
X26009601Y12712700D01*
X25984201Y12661900D01*
X26009601Y12611100D01*
X25958801Y12636500D01*
X25907999Y12611100D01*
Y12357100D02*
X25933401Y12407900D01*
X25907999Y12458700D01*
X25958801Y12433300D01*
X26009601Y12458700D01*
X25984201Y12407900D01*
X26009601Y12357100D01*
X25958801Y12382500D01*
X25907999Y12357100D01*
Y12103100D02*
X25933401Y12153900D01*
X25907999Y12204700D01*
X25958801Y12179300D01*
X26009601Y12204700D01*
X25984201Y12153900D01*
X26009601Y12103100D01*
X25958801Y12128500D01*
X25907999Y12103100D01*
Y11849100D02*
X25933401Y11899900D01*
X25907999Y11950700D01*
X25958801Y11925300D01*
X26009601Y11950700D01*
X25984201Y11899900D01*
X26009601Y11849100D01*
X25958801Y11874500D01*
X25907999Y11849100D01*
Y11595100D02*
X25933401Y11645900D01*
X25907999Y11696700D01*
X25958801Y11671300D01*
X26009601Y11696700D01*
X25984201Y11645900D01*
X26009601Y11595100D01*
X25958801Y11620500D01*
X25907999Y11595100D01*
Y11341100D02*
X25933401Y11391900D01*
X25907999Y11442700D01*
X25958801Y11417300D01*
X26009601Y11442700D01*
X25984201Y11391900D01*
X26009601Y11341100D01*
X25958801Y11366500D01*
X25907999Y11341100D01*
Y11087100D02*
X25933401Y11137900D01*
X25907999Y11188700D01*
X25958801Y11163300D01*
X26009601Y11188700D01*
X25984201Y11137900D01*
X26009601Y11087100D01*
X25958801Y11112500D01*
X25907999Y11087100D01*
Y10833100D02*
X25933401Y10883900D01*
X25907999Y10934700D01*
X25958801Y10909300D01*
X26009601Y10934700D01*
X25984201Y10883900D01*
X26009601Y10833100D01*
X25958801Y10858500D01*
X25907999Y10833100D01*
Y10579100D02*
X25933401Y10629900D01*
X25907999Y10680700D01*
X25958801Y10655300D01*
X26009601Y10680700D01*
X25984201Y10629900D01*
X26009601Y10579100D01*
X25958801Y10604500D01*
X25907999Y10579100D01*
Y10325100D02*
X25933401Y10375900D01*
X25907999Y10426700D01*
X25958801Y10401300D01*
X26009601Y10426700D01*
X25984201Y10375900D01*
X26009601Y10325100D01*
X25958801Y10350500D01*
X25907999Y10325100D01*
Y10071100D02*
X25933401Y10121900D01*
X25907999Y10172700D01*
X25958801Y10147300D01*
X26009601Y10172700D01*
X25984201Y10121900D01*
X26009601Y10071100D01*
X25958801Y10096500D01*
X25907999Y10071100D01*
Y9817100D02*
X25933401Y9867900D01*
X25907999Y9918700D01*
X25958801Y9893300D01*
X26009601Y9918700D01*
X25984201Y9867900D01*
X26009601Y9817100D01*
X25958801Y9842500D01*
X25907999Y9817100D01*
Y9563100D02*
X25933401Y9613900D01*
X25907999Y9664700D01*
X25958801Y9639300D01*
X26009601Y9664700D01*
X25984201Y9613900D01*
X26009601Y9563100D01*
X25958801Y9588500D01*
X25907999Y9563100D01*
Y9309100D02*
X25933401Y9359900D01*
X25907999Y9410700D01*
X25958801Y9385300D01*
X26009601Y9410700D01*
X25984201Y9359900D01*
X26009601Y9309100D01*
X25958801Y9334500D01*
X25907999Y9309100D01*
Y9055100D02*
X25933401Y9105900D01*
X25907999Y9156700D01*
X25958801Y9131300D01*
X26009601Y9156700D01*
X25984201Y9105900D01*
X26009601Y9055100D01*
X25958801Y9080500D01*
X25907999Y9055100D01*
Y8801100D02*
X25933401Y8851900D01*
X25907999Y8902700D01*
X25958801Y8877300D01*
X26009601Y8902700D01*
X25984201Y8851900D01*
X26009601Y8801100D01*
X25958801Y8826500D01*
X25907999Y8801100D01*
Y8547100D02*
X25933401Y8597900D01*
X25907999Y8648700D01*
X25958801Y8623300D01*
X26009601Y8648700D01*
X25984201Y8597900D01*
X26009601Y8547100D01*
X25958801Y8572500D01*
X25907999Y8547100D01*
Y8293100D02*
X25933401Y8343900D01*
X25907999Y8394700D01*
X25958801Y8369300D01*
X26009601Y8394700D01*
X25984201Y8343900D01*
X26009601Y8293100D01*
X25958801Y8318500D01*
X25907999Y8293100D01*
Y8039100D02*
X25933401Y8089900D01*
X25907999Y8140700D01*
X25958801Y8115300D01*
X26009601Y8140700D01*
X25984201Y8089900D01*
X26009601Y8039100D01*
X25958801Y8064500D01*
X25907999Y8039100D01*
Y7785100D02*
X25933401Y7835900D01*
X25907999Y7886700D01*
X25958801Y7861300D01*
X26009601Y7886700D01*
X25984201Y7835900D01*
X26009601Y7785100D01*
X25958801Y7810500D01*
X25907999Y7785100D01*
X22352000Y15659100D02*
X22377400Y15709900D01*
X22352000Y15760699D01*
X22402800Y15735300D01*
X22453600Y15760699D01*
X22428200Y15709900D01*
X22453600Y15659100D01*
X22402800Y15684500D01*
X22352000Y15659100D01*
Y15405099D02*
X22377400Y15455901D01*
X22352000Y15506700D01*
X22402800Y15481300D01*
X22453600Y15506700D01*
X22428200Y15455901D01*
X22453600Y15405099D01*
X22402800Y15430499D01*
X22352000Y15405099D01*
Y15151100D02*
X22377400Y15201900D01*
X22352000Y15252699D01*
X22402800Y15227299D01*
X22453600Y15252699D01*
X22428200Y15201900D01*
X22453600Y15151100D01*
X22402800Y15176500D01*
X22352000Y15151100D01*
Y14897099D02*
X22377400Y14947900D01*
X22352000Y14998700D01*
X22402800Y14973300D01*
X22453600Y14998700D01*
X22428200Y14947900D01*
X22453600Y14897099D01*
X22402800Y14922501D01*
X22352000Y14897099D01*
Y14643100D02*
X22377400Y14693900D01*
X22352000Y14744701D01*
X22402800Y14719299D01*
X22453600Y14744701D01*
X22428200Y14693900D01*
X22453600Y14643100D01*
X22402800Y14668500D01*
X22352000Y14643100D01*
Y14389101D02*
X22377400Y14439900D01*
X22352000Y14490700D01*
X22402800Y14465300D01*
X22453600Y14490700D01*
X22428200Y14439900D01*
X22453600Y14389101D01*
X22402800Y14414500D01*
X22352000Y14389101D01*
Y14135100D02*
X22377400Y14185899D01*
X22352000Y14236700D01*
X22402800Y14211301D01*
X22453600Y14236700D01*
X22428200Y14185899D01*
X22453600Y14135100D01*
X22402800Y14160500D01*
X22352000Y14135100D01*
Y13881100D02*
X22377400Y13931900D01*
X22352000Y13982700D01*
X22402800Y13957300D01*
X22453600Y13982700D01*
X22428200Y13931900D01*
X22453600Y13881100D01*
X22402800Y13906500D01*
X22352000Y13881100D01*
Y13627100D02*
X22377400Y13677901D01*
X22352000Y13728700D01*
X22402800Y13703300D01*
X22453600Y13728700D01*
X22428200Y13677901D01*
X22453600Y13627100D01*
X22402800Y13652499D01*
X22352000Y13627100D01*
Y13373100D02*
X22377400Y13423900D01*
X22352000Y13474699D01*
X22402800Y13449300D01*
X22453600Y13474699D01*
X22428200Y13423900D01*
X22453600Y13373100D01*
X22402800Y13398500D01*
X22352000Y13373100D01*
Y13119099D02*
X22377400Y13169901D01*
X22352000Y13220700D01*
X22402800Y13195300D01*
X22453600Y13220700D01*
X22428200Y13169901D01*
X22453600Y13119099D01*
X22402800Y13144501D01*
X22352000Y13119099D01*
Y12865100D02*
X22377400Y12915900D01*
X22352000Y12966701D01*
X22402800Y12941299D01*
X22453600Y12966701D01*
X22428200Y12915900D01*
X22453600Y12865100D01*
X22402800Y12890500D01*
X22352000Y12865100D01*
Y12611100D02*
X22377400Y12661900D01*
X22352000Y12712700D01*
X22402800Y12687300D01*
X22453600Y12712700D01*
X22428200Y12661900D01*
X22453600Y12611100D01*
X22402800Y12636500D01*
X22352000Y12611100D01*
Y12357100D02*
X22377400Y12407900D01*
X22352000Y12458700D01*
X22402800Y12433300D01*
X22453600Y12458700D01*
X22428200Y12407900D01*
X22453600Y12357100D01*
X22402800Y12382500D01*
X22352000Y12357100D01*
Y12103100D02*
X22377400Y12153900D01*
X22352000Y12204700D01*
X22402800Y12179300D01*
X22453600Y12204700D01*
X22428200Y12153900D01*
X22453600Y12103100D01*
X22402800Y12128500D01*
X22352000Y12103100D01*
Y11849100D02*
X22377400Y11899900D01*
X22352000Y11950700D01*
X22402800Y11925300D01*
X22453600Y11950700D01*
X22428200Y11899900D01*
X22453600Y11849100D01*
X22402800Y11874500D01*
X22352000Y11849100D01*
Y11595100D02*
X22377400Y11645900D01*
X22352000Y11696700D01*
X22402800Y11671300D01*
X22453600Y11696700D01*
X22428200Y11645900D01*
X22453600Y11595100D01*
X22402800Y11620500D01*
X22352000Y11595100D01*
Y11341100D02*
X22377400Y11391900D01*
X22352000Y11442700D01*
X22402800Y11417300D01*
X22453600Y11442700D01*
X22428200Y11391900D01*
X22453600Y11341100D01*
X22402800Y11366500D01*
X22352000Y11341100D01*
Y11087100D02*
X22377400Y11137900D01*
X22352000Y11188700D01*
X22402800Y11163300D01*
X22453600Y11188700D01*
X22428200Y11137900D01*
X22453600Y11087100D01*
X22402800Y11112500D01*
X22352000Y11087100D01*
Y10833100D02*
X22377400Y10883900D01*
X22352000Y10934700D01*
X22402800Y10909300D01*
X22453600Y10934700D01*
X22428200Y10883900D01*
X22453600Y10833100D01*
X22402800Y10858500D01*
X22352000Y10833100D01*
Y10579100D02*
X22377400Y10629900D01*
X22352000Y10680700D01*
X22402800Y10655300D01*
X22453600Y10680700D01*
X22428200Y10629900D01*
X22453600Y10579100D01*
X22402800Y10604500D01*
X22352000Y10579100D01*
Y10325100D02*
X22377400Y10375900D01*
X22352000Y10426700D01*
X22402800Y10401300D01*
X22453600Y10426700D01*
X22428200Y10375900D01*
X22453600Y10325100D01*
X22402800Y10350500D01*
X22352000Y10325100D01*
Y10071100D02*
X22377400Y10121900D01*
X22352000Y10172700D01*
X22402800Y10147300D01*
X22453600Y10172700D01*
X22428200Y10121900D01*
X22453600Y10071100D01*
X22402800Y10096500D01*
X22352000Y10071100D01*
Y9817100D02*
X22377400Y9867900D01*
X22352000Y9918700D01*
X22402800Y9893300D01*
X22453600Y9918700D01*
X22428200Y9867900D01*
X22453600Y9817100D01*
X22402800Y9842500D01*
X22352000Y9817100D01*
Y9563100D02*
X22377400Y9613900D01*
X22352000Y9664700D01*
X22402800Y9639300D01*
X22453600Y9664700D01*
X22428200Y9613900D01*
X22453600Y9563100D01*
X22402800Y9588500D01*
X22352000Y9563100D01*
Y9309100D02*
X22377400Y9359900D01*
X22352000Y9410700D01*
X22402800Y9385300D01*
X22453600Y9410700D01*
X22428200Y9359900D01*
X22453600Y9309100D01*
X22402800Y9334500D01*
X22352000Y9309100D01*
Y9055100D02*
X22377400Y9105900D01*
X22352000Y9156700D01*
X22402800Y9131300D01*
X22453600Y9156700D01*
X22428200Y9105900D01*
X22453600Y9055100D01*
X22402800Y9080500D01*
X22352000Y9055100D01*
Y8801100D02*
X22377400Y8851900D01*
X22352000Y8902700D01*
X22402800Y8877300D01*
X22453600Y8902700D01*
X22428200Y8851900D01*
X22453600Y8801100D01*
X22402800Y8826500D01*
X22352000Y8801100D01*
Y8547100D02*
X22377400Y8597900D01*
X22352000Y8648700D01*
X22402800Y8623300D01*
X22453600Y8648700D01*
X22428200Y8597900D01*
X22453600Y8547100D01*
X22402800Y8572500D01*
X22352000Y8547100D01*
Y8293100D02*
X22377400Y8343900D01*
X22352000Y8394700D01*
X22402800Y8369300D01*
X22453600Y8394700D01*
X22428200Y8343900D01*
X22453600Y8293100D01*
X22402800Y8318500D01*
X22352000Y8293100D01*
Y8039100D02*
X22377400Y8089900D01*
X22352000Y8140700D01*
X22402800Y8115300D01*
X22453600Y8140700D01*
X22428200Y8089900D01*
X22453600Y8039100D01*
X22402800Y8064500D01*
X22352000Y8039100D01*
Y7785100D02*
X22377400Y7835900D01*
X22352000Y7886700D01*
X22402800Y7861300D01*
X22453600Y7886700D01*
X22428200Y7835900D01*
X22453600Y7785100D01*
X22402800Y7810500D01*
X22352000Y7785100D01*
X21844000Y15659100D02*
X21869400Y15709900D01*
X21844000Y15760699D01*
X21894800Y15735300D01*
X21945599Y15760699D01*
X21920200Y15709900D01*
X21945599Y15659100D01*
X21894800Y15684500D01*
X21844000Y15659100D01*
Y15405099D02*
X21869400Y15455901D01*
X21844000Y15506700D01*
X21894800Y15481300D01*
X21945599Y15506700D01*
X21920200Y15455901D01*
X21945599Y15405099D01*
X21894800Y15430499D01*
X21844000Y15405099D01*
Y15151100D02*
X21869400Y15201900D01*
X21844000Y15252699D01*
X21894800Y15227299D01*
X21945599Y15252699D01*
X21920200Y15201900D01*
X21945599Y15151100D01*
X21894800Y15176500D01*
X21844000Y15151100D01*
Y14897099D02*
X21869400Y14947900D01*
X21844000Y14998700D01*
X21894800Y14973300D01*
X21945599Y14998700D01*
X21920200Y14947900D01*
X21945599Y14897099D01*
X21894800Y14922501D01*
X21844000Y14897099D01*
Y14643100D02*
X21869400Y14693900D01*
X21844000Y14744701D01*
X21894800Y14719299D01*
X21945599Y14744701D01*
X21920200Y14693900D01*
X21945599Y14643100D01*
X21894800Y14668500D01*
X21844000Y14643100D01*
Y14389101D02*
X21869400Y14439900D01*
X21844000Y14490700D01*
X21894800Y14465300D01*
X21945599Y14490700D01*
X21920200Y14439900D01*
X21945599Y14389101D01*
X21894800Y14414500D01*
X21844000Y14389101D01*
Y14135100D02*
X21869400Y14185899D01*
X21844000Y14236700D01*
X21894800Y14211301D01*
X21945599Y14236700D01*
X21920200Y14185899D01*
X21945599Y14135100D01*
X21894800Y14160500D01*
X21844000Y14135100D01*
Y13881100D02*
X21869400Y13931900D01*
X21844000Y13982700D01*
X21894800Y13957300D01*
X21945599Y13982700D01*
X21920200Y13931900D01*
X21945599Y13881100D01*
X21894800Y13906500D01*
X21844000Y13881100D01*
Y13627100D02*
X21869400Y13677901D01*
X21844000Y13728700D01*
X21894800Y13703300D01*
X21945599Y13728700D01*
X21920200Y13677901D01*
X21945599Y13627100D01*
X21894800Y13652499D01*
X21844000Y13627100D01*
Y13373100D02*
X21869400Y13423900D01*
X21844000Y13474699D01*
X21894800Y13449300D01*
X21945599Y13474699D01*
X21920200Y13423900D01*
X21945599Y13373100D01*
X21894800Y13398500D01*
X21844000Y13373100D01*
Y13119099D02*
X21869400Y13169901D01*
X21844000Y13220700D01*
X21894800Y13195300D01*
X21945599Y13220700D01*
X21920200Y13169901D01*
X21945599Y13119099D01*
X21894800Y13144501D01*
X21844000Y13119099D01*
Y12865100D02*
X21869400Y12915900D01*
X21844000Y12966701D01*
X21894800Y12941299D01*
X21945599Y12966701D01*
X21920200Y12915900D01*
X21945599Y12865100D01*
X21894800Y12890500D01*
X21844000Y12865100D01*
Y12611100D02*
X21869400Y12661900D01*
X21844000Y12712700D01*
X21894800Y12687300D01*
X21945599Y12712700D01*
X21920200Y12661900D01*
X21945599Y12611100D01*
X21894800Y12636500D01*
X21844000Y12611100D01*
Y12357100D02*
X21869400Y12407900D01*
X21844000Y12458700D01*
X21894800Y12433300D01*
X21945599Y12458700D01*
X21920200Y12407900D01*
X21945599Y12357100D01*
X21894800Y12382500D01*
X21844000Y12357100D01*
Y12103100D02*
X21869400Y12153900D01*
X21844000Y12204700D01*
X21894800Y12179300D01*
X21945599Y12204700D01*
X21920200Y12153900D01*
X21945599Y12103100D01*
X21894800Y12128500D01*
X21844000Y12103100D01*
Y11849100D02*
X21869400Y11899900D01*
X21844000Y11950700D01*
X21894800Y11925300D01*
X21945599Y11950700D01*
X21920200Y11899900D01*
X21945599Y11849100D01*
X21894800Y11874500D01*
X21844000Y11849100D01*
Y11595100D02*
X21869400Y11645900D01*
X21844000Y11696700D01*
X21894800Y11671300D01*
X21945599Y11696700D01*
X21920200Y11645900D01*
X21945599Y11595100D01*
X21894800Y11620500D01*
X21844000Y11595100D01*
Y11341100D02*
X21869400Y11391900D01*
X21844000Y11442700D01*
X21894800Y11417300D01*
X21945599Y11442700D01*
X21920200Y11391900D01*
X21945599Y11341100D01*
X21894800Y11366500D01*
X21844000Y11341100D01*
Y11087100D02*
X21869400Y11137900D01*
X21844000Y11188700D01*
X21894800Y11163300D01*
X21945599Y11188700D01*
X21920200Y11137900D01*
X21945599Y11087100D01*
X21894800Y11112500D01*
X21844000Y11087100D01*
Y10833100D02*
X21869400Y10883900D01*
X21844000Y10934700D01*
X21894800Y10909300D01*
X21945599Y10934700D01*
X21920200Y10883900D01*
X21945599Y10833100D01*
X21894800Y10858500D01*
X21844000Y10833100D01*
Y10579100D02*
X21869400Y10629900D01*
X21844000Y10680700D01*
X21894800Y10655300D01*
X21945599Y10680700D01*
X21920200Y10629900D01*
X21945599Y10579100D01*
X21894800Y10604500D01*
X21844000Y10579100D01*
Y10325100D02*
X21869400Y10375900D01*
X21844000Y10426700D01*
X21894800Y10401300D01*
X21945599Y10426700D01*
X21920200Y10375900D01*
X21945599Y10325100D01*
X21894800Y10350500D01*
X21844000Y10325100D01*
Y10071100D02*
X21869400Y10121900D01*
X21844000Y10172700D01*
X21894800Y10147300D01*
X21945599Y10172700D01*
X21920200Y10121900D01*
X21945599Y10071100D01*
X21894800Y10096500D01*
X21844000Y10071100D01*
Y9817100D02*
X21869400Y9867900D01*
X21844000Y9918700D01*
X21894800Y9893300D01*
X21945599Y9918700D01*
X21920200Y9867900D01*
X21945599Y9817100D01*
X21894800Y9842500D01*
X21844000Y9817100D01*
Y9563100D02*
X21869400Y9613900D01*
X21844000Y9664700D01*
X21894800Y9639300D01*
X21945599Y9664700D01*
X21920200Y9613900D01*
X21945599Y9563100D01*
X21894800Y9588500D01*
X21844000Y9563100D01*
Y9309100D02*
X21869400Y9359900D01*
X21844000Y9410700D01*
X21894800Y9385300D01*
X21945599Y9410700D01*
X21920200Y9359900D01*
X21945599Y9309100D01*
X21894800Y9334500D01*
X21844000Y9309100D01*
Y9055100D02*
X21869400Y9105900D01*
X21844000Y9156700D01*
X21894800Y9131300D01*
X21945599Y9156700D01*
X21920200Y9105900D01*
X21945599Y9055100D01*
X21894800Y9080500D01*
X21844000Y9055100D01*
Y8801100D02*
X21869400Y8851900D01*
X21844000Y8902700D01*
X21894800Y8877300D01*
X21945599Y8902700D01*
X21920200Y8851900D01*
X21945599Y8801100D01*
X21894800Y8826500D01*
X21844000Y8801100D01*
Y8547100D02*
X21869400Y8597900D01*
X21844000Y8648700D01*
X21894800Y8623300D01*
X21945599Y8648700D01*
X21920200Y8597900D01*
X21945599Y8547100D01*
X21894800Y8572500D01*
X21844000Y8547100D01*
Y8293100D02*
X21869400Y8343900D01*
X21844000Y8394700D01*
X21894800Y8369300D01*
X21945599Y8394700D01*
X21920200Y8343900D01*
X21945599Y8293100D01*
X21894800Y8318500D01*
X21844000Y8293100D01*
Y8039100D02*
X21869400Y8089900D01*
X21844000Y8140700D01*
X21894800Y8115300D01*
X21945599Y8140700D01*
X21920200Y8089900D01*
X21945599Y8039100D01*
X21894800Y8064500D01*
X21844000Y8039100D01*
Y7785100D02*
X21869400Y7835900D01*
X21844000Y7886700D01*
X21894800Y7861300D01*
X21945599Y7886700D01*
X21920200Y7835900D01*
X21945599Y7785100D01*
X21894800Y7810500D01*
X21844000Y7785100D01*
X18288000Y15659100D02*
X18313400Y15709900D01*
X18288000Y15760699D01*
X18338800Y15735300D01*
X18389600Y15760699D01*
X18364200Y15709900D01*
X18389600Y15659100D01*
X18338800Y15684500D01*
X18288000Y15659100D01*
Y15405099D02*
X18313400Y15455901D01*
X18288000Y15506700D01*
X18338800Y15481300D01*
X18389600Y15506700D01*
X18364200Y15455901D01*
X18389600Y15405099D01*
X18338800Y15430499D01*
X18288000Y15405099D01*
Y15151100D02*
X18313400Y15201900D01*
X18288000Y15252699D01*
X18338800Y15227299D01*
X18389600Y15252699D01*
X18364200Y15201900D01*
X18389600Y15151100D01*
X18338800Y15176500D01*
X18288000Y15151100D01*
Y14897099D02*
X18313400Y14947900D01*
X18288000Y14998700D01*
X18338800Y14973300D01*
X18389600Y14998700D01*
X18364200Y14947900D01*
X18389600Y14897099D01*
X18338800Y14922501D01*
X18288000Y14897099D01*
Y14643100D02*
X18313400Y14693900D01*
X18288000Y14744701D01*
X18338800Y14719299D01*
X18389600Y14744701D01*
X18364200Y14693900D01*
X18389600Y14643100D01*
X18338800Y14668500D01*
X18288000Y14643100D01*
Y14389101D02*
X18313400Y14439900D01*
X18288000Y14490700D01*
X18338800Y14465300D01*
X18389600Y14490700D01*
X18364200Y14439900D01*
X18389600Y14389101D01*
X18338800Y14414500D01*
X18288000Y14389101D01*
Y14135100D02*
X18313400Y14185899D01*
X18288000Y14236700D01*
X18338800Y14211301D01*
X18389600Y14236700D01*
X18364200Y14185899D01*
X18389600Y14135100D01*
X18338800Y14160500D01*
X18288000Y14135100D01*
Y13881100D02*
X18313400Y13931900D01*
X18288000Y13982700D01*
X18338800Y13957300D01*
X18389600Y13982700D01*
X18364200Y13931900D01*
X18389600Y13881100D01*
X18338800Y13906500D01*
X18288000Y13881100D01*
Y13627100D02*
X18313400Y13677901D01*
X18288000Y13728700D01*
X18338800Y13703300D01*
X18389600Y13728700D01*
X18364200Y13677901D01*
X18389600Y13627100D01*
X18338800Y13652499D01*
X18288000Y13627100D01*
Y13373100D02*
X18313400Y13423900D01*
X18288000Y13474699D01*
X18338800Y13449300D01*
X18389600Y13474699D01*
X18364200Y13423900D01*
X18389600Y13373100D01*
X18338800Y13398500D01*
X18288000Y13373100D01*
Y13119099D02*
X18313400Y13169901D01*
X18288000Y13220700D01*
X18338800Y13195300D01*
X18389600Y13220700D01*
X18364200Y13169901D01*
X18389600Y13119099D01*
X18338800Y13144501D01*
X18288000Y13119099D01*
Y12865100D02*
X18313400Y12915900D01*
X18288000Y12966701D01*
X18338800Y12941299D01*
X18389600Y12966701D01*
X18364200Y12915900D01*
X18389600Y12865100D01*
X18338800Y12890500D01*
X18288000Y12865100D01*
Y12611100D02*
X18313400Y12661900D01*
X18288000Y12712700D01*
X18338800Y12687300D01*
X18389600Y12712700D01*
X18364200Y12661900D01*
X18389600Y12611100D01*
X18338800Y12636500D01*
X18288000Y12611100D01*
Y12357100D02*
X18313400Y12407900D01*
X18288000Y12458700D01*
X18338800Y12433300D01*
X18389600Y12458700D01*
X18364200Y12407900D01*
X18389600Y12357100D01*
X18338800Y12382500D01*
X18288000Y12357100D01*
Y12103100D02*
X18313400Y12153900D01*
X18288000Y12204700D01*
X18338800Y12179300D01*
X18389600Y12204700D01*
X18364200Y12153900D01*
X18389600Y12103100D01*
X18338800Y12128500D01*
X18288000Y12103100D01*
Y11849100D02*
X18313400Y11899900D01*
X18288000Y11950700D01*
X18338800Y11925300D01*
X18389600Y11950700D01*
X18364200Y11899900D01*
X18389600Y11849100D01*
X18338800Y11874500D01*
X18288000Y11849100D01*
Y11595100D02*
X18313400Y11645900D01*
X18288000Y11696700D01*
X18338800Y11671300D01*
X18389600Y11696700D01*
X18364200Y11645900D01*
X18389600Y11595100D01*
X18338800Y11620500D01*
X18288000Y11595100D01*
Y11341100D02*
X18313400Y11391900D01*
X18288000Y11442700D01*
X18338800Y11417300D01*
X18389600Y11442700D01*
X18364200Y11391900D01*
X18389600Y11341100D01*
X18338800Y11366500D01*
X18288000Y11341100D01*
Y11087100D02*
X18313400Y11137900D01*
X18288000Y11188700D01*
X18338800Y11163300D01*
X18389600Y11188700D01*
X18364200Y11137900D01*
X18389600Y11087100D01*
X18338800Y11112500D01*
X18288000Y11087100D01*
Y10833100D02*
X18313400Y10883900D01*
X18288000Y10934700D01*
X18338800Y10909300D01*
X18389600Y10934700D01*
X18364200Y10883900D01*
X18389600Y10833100D01*
X18338800Y10858500D01*
X18288000Y10833100D01*
Y10579100D02*
X18313400Y10629900D01*
X18288000Y10680700D01*
X18338800Y10655300D01*
X18389600Y10680700D01*
X18364200Y10629900D01*
X18389600Y10579100D01*
X18338800Y10604500D01*
X18288000Y10579100D01*
Y10325100D02*
X18313400Y10375900D01*
X18288000Y10426700D01*
X18338800Y10401300D01*
X18389600Y10426700D01*
X18364200Y10375900D01*
X18389600Y10325100D01*
X18338800Y10350500D01*
X18288000Y10325100D01*
Y10071100D02*
X18313400Y10121900D01*
X18288000Y10172700D01*
X18338800Y10147300D01*
X18389600Y10172700D01*
X18364200Y10121900D01*
X18389600Y10071100D01*
X18338800Y10096500D01*
X18288000Y10071100D01*
Y9817100D02*
X18313400Y9867900D01*
X18288000Y9918700D01*
X18338800Y9893300D01*
X18389600Y9918700D01*
X18364200Y9867900D01*
X18389600Y9817100D01*
X18338800Y9842500D01*
X18288000Y9817100D01*
Y9563100D02*
X18313400Y9613900D01*
X18288000Y9664700D01*
X18338800Y9639300D01*
X18389600Y9664700D01*
X18364200Y9613900D01*
X18389600Y9563100D01*
X18338800Y9588500D01*
X18288000Y9563100D01*
Y9309100D02*
X18313400Y9359900D01*
X18288000Y9410700D01*
X18338800Y9385300D01*
X18389600Y9410700D01*
X18364200Y9359900D01*
X18389600Y9309100D01*
X18338800Y9334500D01*
X18288000Y9309100D01*
Y9055100D02*
X18313400Y9105900D01*
X18288000Y9156700D01*
X18338800Y9131300D01*
X18389600Y9156700D01*
X18364200Y9105900D01*
X18389600Y9055100D01*
X18338800Y9080500D01*
X18288000Y9055100D01*
Y8801100D02*
X18313400Y8851900D01*
X18288000Y8902700D01*
X18338800Y8877300D01*
X18389600Y8902700D01*
X18364200Y8851900D01*
X18389600Y8801100D01*
X18338800Y8826500D01*
X18288000Y8801100D01*
Y8547100D02*
X18313400Y8597900D01*
X18288000Y8648700D01*
X18338800Y8623300D01*
X18389600Y8648700D01*
X18364200Y8597900D01*
X18389600Y8547100D01*
X18338800Y8572500D01*
X18288000Y8547100D01*
Y8293100D02*
X18313400Y8343900D01*
X18288000Y8394700D01*
X18338800Y8369300D01*
X18389600Y8394700D01*
X18364200Y8343900D01*
X18389600Y8293100D01*
X18338800Y8318500D01*
X18288000Y8293100D01*
Y8039100D02*
X18313400Y8089900D01*
X18288000Y8140700D01*
X18338800Y8115300D01*
X18389600Y8140700D01*
X18364200Y8089900D01*
X18389600Y8039100D01*
X18338800Y8064500D01*
X18288000Y8039100D01*
Y7785100D02*
X18313400Y7835900D01*
X18288000Y7886700D01*
X18338800Y7861300D01*
X18389600Y7886700D01*
X18364200Y7835900D01*
X18389600Y7785100D01*
X18338800Y7810500D01*
X18288000Y7785100D01*
X17780000Y15659100D02*
X17805400Y15709900D01*
X17780000Y15760699D01*
X17830800Y15735300D01*
X17881599Y15760699D01*
X17856200Y15709900D01*
X17881599Y15659100D01*
X17830800Y15684500D01*
X17780000Y15659100D01*
Y15405099D02*
X17805400Y15455901D01*
X17780000Y15506700D01*
X17830800Y15481300D01*
X17881599Y15506700D01*
X17856200Y15455901D01*
X17881599Y15405099D01*
X17830800Y15430499D01*
X17780000Y15405099D01*
Y15151100D02*
X17805400Y15201900D01*
X17780000Y15252699D01*
X17830800Y15227299D01*
X17881599Y15252699D01*
X17856200Y15201900D01*
X17881599Y15151100D01*
X17830800Y15176500D01*
X17780000Y15151100D01*
Y14897099D02*
X17805400Y14947900D01*
X17780000Y14998700D01*
X17830800Y14973300D01*
X17881599Y14998700D01*
X17856200Y14947900D01*
X17881599Y14897099D01*
X17830800Y14922501D01*
X17780000Y14897099D01*
Y14643100D02*
X17805400Y14693900D01*
X17780000Y14744701D01*
X17830800Y14719299D01*
X17881599Y14744701D01*
X17856200Y14693900D01*
X17881599Y14643100D01*
X17830800Y14668500D01*
X17780000Y14643100D01*
Y14389101D02*
X17805400Y14439900D01*
X17780000Y14490700D01*
X17830800Y14465300D01*
X17881599Y14490700D01*
X17856200Y14439900D01*
X17881599Y14389101D01*
X17830800Y14414500D01*
X17780000Y14389101D01*
Y14135100D02*
X17805400Y14185899D01*
X17780000Y14236700D01*
X17830800Y14211301D01*
X17881599Y14236700D01*
X17856200Y14185899D01*
X17881599Y14135100D01*
X17830800Y14160500D01*
X17780000Y14135100D01*
Y13881100D02*
X17805400Y13931900D01*
X17780000Y13982700D01*
X17830800Y13957300D01*
X17881599Y13982700D01*
X17856200Y13931900D01*
X17881599Y13881100D01*
X17830800Y13906500D01*
X17780000Y13881100D01*
Y13627100D02*
X17805400Y13677901D01*
X17780000Y13728700D01*
X17830800Y13703300D01*
X17881599Y13728700D01*
X17856200Y13677901D01*
X17881599Y13627100D01*
X17830800Y13652499D01*
X17780000Y13627100D01*
Y13373100D02*
X17805400Y13423900D01*
X17780000Y13474699D01*
X17830800Y13449300D01*
X17881599Y13474699D01*
X17856200Y13423900D01*
X17881599Y13373100D01*
X17830800Y13398500D01*
X17780000Y13373100D01*
Y13119099D02*
X17805400Y13169901D01*
X17780000Y13220700D01*
X17830800Y13195300D01*
X17881599Y13220700D01*
X17856200Y13169901D01*
X17881599Y13119099D01*
X17830800Y13144501D01*
X17780000Y13119099D01*
Y12865100D02*
X17805400Y12915900D01*
X17780000Y12966701D01*
X17830800Y12941299D01*
X17881599Y12966701D01*
X17856200Y12915900D01*
X17881599Y12865100D01*
X17830800Y12890500D01*
X17780000Y12865100D01*
Y12611100D02*
X17805400Y12661900D01*
X17780000Y12712700D01*
X17830800Y12687300D01*
X17881599Y12712700D01*
X17856200Y12661900D01*
X17881599Y12611100D01*
X17830800Y12636500D01*
X17780000Y12611100D01*
Y12357100D02*
X17805400Y12407900D01*
X17780000Y12458700D01*
X17830800Y12433300D01*
X17881599Y12458700D01*
X17856200Y12407900D01*
X17881599Y12357100D01*
X17830800Y12382500D01*
X17780000Y12357100D01*
Y12103100D02*
X17805400Y12153900D01*
X17780000Y12204700D01*
X17830800Y12179300D01*
X17881599Y12204700D01*
X17856200Y12153900D01*
X17881599Y12103100D01*
X17830800Y12128500D01*
X17780000Y12103100D01*
Y11849100D02*
X17805400Y11899900D01*
X17780000Y11950700D01*
X17830800Y11925300D01*
X17881599Y11950700D01*
X17856200Y11899900D01*
X17881599Y11849100D01*
X17830800Y11874500D01*
X17780000Y11849100D01*
Y11595100D02*
X17805400Y11645900D01*
X17780000Y11696700D01*
X17830800Y11671300D01*
X17881599Y11696700D01*
X17856200Y11645900D01*
X17881599Y11595100D01*
X17830800Y11620500D01*
X17780000Y11595100D01*
Y11341100D02*
X17805400Y11391900D01*
X17780000Y11442700D01*
X17830800Y11417300D01*
X17881599Y11442700D01*
X17856200Y11391900D01*
X17881599Y11341100D01*
X17830800Y11366500D01*
X17780000Y11341100D01*
Y11087100D02*
X17805400Y11137900D01*
X17780000Y11188700D01*
X17830800Y11163300D01*
X17881599Y11188700D01*
X17856200Y11137900D01*
X17881599Y11087100D01*
X17830800Y11112500D01*
X17780000Y11087100D01*
Y10833100D02*
X17805400Y10883900D01*
X17780000Y10934700D01*
X17830800Y10909300D01*
X17881599Y10934700D01*
X17856200Y10883900D01*
X17881599Y10833100D01*
X17830800Y10858500D01*
X17780000Y10833100D01*
Y10579100D02*
X17805400Y10629900D01*
X17780000Y10680700D01*
X17830800Y10655300D01*
X17881599Y10680700D01*
X17856200Y10629900D01*
X17881599Y10579100D01*
X17830800Y10604500D01*
X17780000Y10579100D01*
Y10325100D02*
X17805400Y10375900D01*
X17780000Y10426700D01*
X17830800Y10401300D01*
X17881599Y10426700D01*
X17856200Y10375900D01*
X17881599Y10325100D01*
X17830800Y10350500D01*
X17780000Y10325100D01*
Y10071100D02*
X17805400Y10121900D01*
X17780000Y10172700D01*
X17830800Y10147300D01*
X17881599Y10172700D01*
X17856200Y10121900D01*
X17881599Y10071100D01*
X17830800Y10096500D01*
X17780000Y10071100D01*
Y9817100D02*
X17805400Y9867900D01*
X17780000Y9918700D01*
X17830800Y9893300D01*
X17881599Y9918700D01*
X17856200Y9867900D01*
X17881599Y9817100D01*
X17830800Y9842500D01*
X17780000Y9817100D01*
Y9563100D02*
X17805400Y9613900D01*
X17780000Y9664700D01*
X17830800Y9639300D01*
X17881599Y9664700D01*
X17856200Y9613900D01*
X17881599Y9563100D01*
X17830800Y9588500D01*
X17780000Y9563100D01*
Y9309100D02*
X17805400Y9359900D01*
X17780000Y9410700D01*
X17830800Y9385300D01*
X17881599Y9410700D01*
X17856200Y9359900D01*
X17881599Y9309100D01*
X17830800Y9334500D01*
X17780000Y9309100D01*
Y9055100D02*
X17805400Y9105900D01*
X17780000Y9156700D01*
X17830800Y9131300D01*
X17881599Y9156700D01*
X17856200Y9105900D01*
X17881599Y9055100D01*
X17830800Y9080500D01*
X17780000Y9055100D01*
Y8801100D02*
X17805400Y8851900D01*
X17780000Y8902700D01*
X17830800Y8877300D01*
X17881599Y8902700D01*
X17856200Y8851900D01*
X17881599Y8801100D01*
X17830800Y8826500D01*
X17780000Y8801100D01*
Y8547100D02*
X17805400Y8597900D01*
X17780000Y8648700D01*
X17830800Y8623300D01*
X17881599Y8648700D01*
X17856200Y8597900D01*
X17881599Y8547100D01*
X17830800Y8572500D01*
X17780000Y8547100D01*
Y8293100D02*
X17805400Y8343900D01*
X17780000Y8394700D01*
X17830800Y8369300D01*
X17881599Y8394700D01*
X17856200Y8343900D01*
X17881599Y8293100D01*
X17830800Y8318500D01*
X17780000Y8293100D01*
Y8039100D02*
X17805400Y8089900D01*
X17780000Y8140700D01*
X17830800Y8115300D01*
X17881599Y8140700D01*
X17856200Y8089900D01*
X17881599Y8039100D01*
X17830800Y8064500D01*
X17780000Y8039100D01*
Y7785100D02*
X17805400Y7835900D01*
X17780000Y7886700D01*
X17830800Y7861300D01*
X17881599Y7886700D01*
X17856200Y7835900D01*
X17881599Y7785100D01*
X17830800Y7810500D01*
X17780000Y7785100D01*
X8661400Y15659100D02*
X8686800Y15709900D01*
X8661400Y15760699D01*
X8712200Y15735300D01*
X8763000Y15760699D01*
X8737600Y15709900D01*
X8763000Y15659100D01*
X8712200Y15684500D01*
X8661400Y15659100D01*
Y15405099D02*
X8686800Y15455901D01*
X8661400Y15506700D01*
X8712200Y15481300D01*
X8763000Y15506700D01*
X8737600Y15455901D01*
X8763000Y15405099D01*
X8712200Y15430499D01*
X8661400Y15405099D01*
Y15151100D02*
X8686800Y15201900D01*
X8661400Y15252699D01*
X8712200Y15227299D01*
X8763000Y15252699D01*
X8737600Y15201900D01*
X8763000Y15151100D01*
X8712200Y15176500D01*
X8661400Y15151100D01*
Y14897099D02*
X8686800Y14947900D01*
X8661400Y14998700D01*
X8712200Y14973300D01*
X8763000Y14998700D01*
X8737600Y14947900D01*
X8763000Y14897099D01*
X8712200Y14922501D01*
X8661400Y14897099D01*
Y14643100D02*
X8686800Y14693900D01*
X8661400Y14744701D01*
X8712200Y14719299D01*
X8763000Y14744701D01*
X8737600Y14693900D01*
X8763000Y14643100D01*
X8712200Y14668500D01*
X8661400Y14643100D01*
Y14389101D02*
X8686800Y14439900D01*
X8661400Y14490700D01*
X8712200Y14465300D01*
X8763000Y14490700D01*
X8737600Y14439900D01*
X8763000Y14389101D01*
X8712200Y14414500D01*
X8661400Y14389101D01*
Y14135100D02*
X8686800Y14185899D01*
X8661400Y14236700D01*
X8712200Y14211301D01*
X8763000Y14236700D01*
X8737600Y14185899D01*
X8763000Y14135100D01*
X8712200Y14160500D01*
X8661400Y14135100D01*
Y13881100D02*
X8686800Y13931900D01*
X8661400Y13982700D01*
X8712200Y13957300D01*
X8763000Y13982700D01*
X8737600Y13931900D01*
X8763000Y13881100D01*
X8712200Y13906500D01*
X8661400Y13881100D01*
Y13627100D02*
X8686800Y13677901D01*
X8661400Y13728700D01*
X8712200Y13703300D01*
X8763000Y13728700D01*
X8737600Y13677901D01*
X8763000Y13627100D01*
X8712200Y13652499D01*
X8661400Y13627100D01*
Y13373100D02*
X8686800Y13423900D01*
X8661400Y13474699D01*
X8712200Y13449300D01*
X8763000Y13474699D01*
X8737600Y13423900D01*
X8763000Y13373100D01*
X8712200Y13398500D01*
X8661400Y13373100D01*
Y13119099D02*
X8686800Y13169901D01*
X8661400Y13220700D01*
X8712200Y13195300D01*
X8763000Y13220700D01*
X8737600Y13169901D01*
X8763000Y13119099D01*
X8712200Y13144501D01*
X8661400Y13119099D01*
Y12865100D02*
X8686800Y12915900D01*
X8661400Y12966701D01*
X8712200Y12941299D01*
X8763000Y12966701D01*
X8737600Y12915900D01*
X8763000Y12865100D01*
X8712200Y12890500D01*
X8661400Y12865100D01*
Y12611100D02*
X8686800Y12661900D01*
X8661400Y12712700D01*
X8712200Y12687300D01*
X8763000Y12712700D01*
X8737600Y12661900D01*
X8763000Y12611100D01*
X8712200Y12636500D01*
X8661400Y12611100D01*
Y12357100D02*
X8686800Y12407900D01*
X8661400Y12458700D01*
X8712200Y12433300D01*
X8763000Y12458700D01*
X8737600Y12407900D01*
X8763000Y12357100D01*
X8712200Y12382500D01*
X8661400Y12357100D01*
Y12103100D02*
X8686800Y12153900D01*
X8661400Y12204700D01*
X8712200Y12179300D01*
X8763000Y12204700D01*
X8737600Y12153900D01*
X8763000Y12103100D01*
X8712200Y12128500D01*
X8661400Y12103100D01*
Y11849100D02*
X8686800Y11899900D01*
X8661400Y11950700D01*
X8712200Y11925300D01*
X8763000Y11950700D01*
X8737600Y11899900D01*
X8763000Y11849100D01*
X8712200Y11874500D01*
X8661400Y11849100D01*
Y11595100D02*
X8686800Y11645900D01*
X8661400Y11696700D01*
X8712200Y11671300D01*
X8763000Y11696700D01*
X8737600Y11645900D01*
X8763000Y11595100D01*
X8712200Y11620500D01*
X8661400Y11595100D01*
Y11341100D02*
X8686800Y11391900D01*
X8661400Y11442700D01*
X8712200Y11417300D01*
X8763000Y11442700D01*
X8737600Y11391900D01*
X8763000Y11341100D01*
X8712200Y11366500D01*
X8661400Y11341100D01*
Y11087100D02*
X8686800Y11137900D01*
X8661400Y11188700D01*
X8712200Y11163300D01*
X8763000Y11188700D01*
X8737600Y11137900D01*
X8763000Y11087100D01*
X8712200Y11112500D01*
X8661400Y11087100D01*
Y10833100D02*
X8686800Y10883900D01*
X8661400Y10934700D01*
X8712200Y10909300D01*
X8763000Y10934700D01*
X8737600Y10883900D01*
X8763000Y10833100D01*
X8712200Y10858500D01*
X8661400Y10833100D01*
Y10579100D02*
X8686800Y10629900D01*
X8661400Y10680700D01*
X8712200Y10655300D01*
X8763000Y10680700D01*
X8737600Y10629900D01*
X8763000Y10579100D01*
X8712200Y10604500D01*
X8661400Y10579100D01*
Y10325100D02*
X8686800Y10375900D01*
X8661400Y10426700D01*
X8712200Y10401300D01*
X8763000Y10426700D01*
X8737600Y10375900D01*
X8763000Y10325100D01*
X8712200Y10350500D01*
X8661400Y10325100D01*
Y10071100D02*
X8686800Y10121900D01*
X8661400Y10172700D01*
X8712200Y10147300D01*
X8763000Y10172700D01*
X8737600Y10121900D01*
X8763000Y10071100D01*
X8712200Y10096500D01*
X8661400Y10071100D01*
Y9817100D02*
X8686800Y9867900D01*
X8661400Y9918700D01*
X8712200Y9893300D01*
X8763000Y9918700D01*
X8737600Y9867900D01*
X8763000Y9817100D01*
X8712200Y9842500D01*
X8661400Y9817100D01*
Y9563100D02*
X8686800Y9613900D01*
X8661400Y9664700D01*
X8712200Y9639300D01*
X8763000Y9664700D01*
X8737600Y9613900D01*
X8763000Y9563100D01*
X8712200Y9588500D01*
X8661400Y9563100D01*
Y9309100D02*
X8686800Y9359900D01*
X8661400Y9410700D01*
X8712200Y9385300D01*
X8763000Y9410700D01*
X8737600Y9359900D01*
X8763000Y9309100D01*
X8712200Y9334500D01*
X8661400Y9309100D01*
Y9055100D02*
X8686800Y9105900D01*
X8661400Y9156700D01*
X8712200Y9131300D01*
X8763000Y9156700D01*
X8737600Y9105900D01*
X8763000Y9055100D01*
X8712200Y9080500D01*
X8661400Y9055100D01*
Y8801100D02*
X8686800Y8851900D01*
X8661400Y8902700D01*
X8712200Y8877300D01*
X8763000Y8902700D01*
X8737600Y8851900D01*
X8763000Y8801100D01*
X8712200Y8826500D01*
X8661400Y8801100D01*
Y8547100D02*
X8686800Y8597900D01*
X8661400Y8648700D01*
X8712200Y8623300D01*
X8763000Y8648700D01*
X8737600Y8597900D01*
X8763000Y8547100D01*
X8712200Y8572500D01*
X8661400Y8547100D01*
Y8293100D02*
X8686800Y8343900D01*
X8661400Y8394700D01*
X8712200Y8369300D01*
X8763000Y8394700D01*
X8737600Y8343900D01*
X8763000Y8293100D01*
X8712200Y8318500D01*
X8661400Y8293100D01*
Y8039100D02*
X8686800Y8089900D01*
X8661400Y8140700D01*
X8712200Y8115300D01*
X8763000Y8140700D01*
X8737600Y8089900D01*
X8763000Y8039100D01*
X8712200Y8064500D01*
X8661400Y8039100D01*
Y7785100D02*
X8686800Y7835900D01*
X8661400Y7886700D01*
X8712200Y7861300D01*
X8763000Y7886700D01*
X8737600Y7835900D01*
X8763000Y7785100D01*
X8712200Y7810500D01*
X8661400Y7785100D01*
X8153400Y15659100D02*
X8178800Y15709900D01*
X8153400Y15760699D01*
X8204200Y15735300D01*
X8255000Y15760699D01*
X8229600Y15709900D01*
X8255000Y15659100D01*
X8204200Y15684500D01*
X8153400Y15659100D01*
Y15405099D02*
X8178800Y15455901D01*
X8153400Y15506700D01*
X8204200Y15481300D01*
X8255000Y15506700D01*
X8229600Y15455901D01*
X8255000Y15405099D01*
X8204200Y15430499D01*
X8153400Y15405099D01*
Y15151100D02*
X8178800Y15201900D01*
X8153400Y15252699D01*
X8204200Y15227299D01*
X8255000Y15252699D01*
X8229600Y15201900D01*
X8255000Y15151100D01*
X8204200Y15176500D01*
X8153400Y15151100D01*
Y14897099D02*
X8178800Y14947900D01*
X8153400Y14998700D01*
X8204200Y14973300D01*
X8255000Y14998700D01*
X8229600Y14947900D01*
X8255000Y14897099D01*
X8204200Y14922501D01*
X8153400Y14897099D01*
Y14643100D02*
X8178800Y14693900D01*
X8153400Y14744701D01*
X8204200Y14719299D01*
X8255000Y14744701D01*
X8229600Y14693900D01*
X8255000Y14643100D01*
X8204200Y14668500D01*
X8153400Y14643100D01*
Y14389101D02*
X8178800Y14439900D01*
X8153400Y14490700D01*
X8204200Y14465300D01*
X8255000Y14490700D01*
X8229600Y14439900D01*
X8255000Y14389101D01*
X8204200Y14414500D01*
X8153400Y14389101D01*
Y14135100D02*
X8178800Y14185899D01*
X8153400Y14236700D01*
X8204200Y14211301D01*
X8255000Y14236700D01*
X8229600Y14185899D01*
X8255000Y14135100D01*
X8204200Y14160500D01*
X8153400Y14135100D01*
Y13881100D02*
X8178800Y13931900D01*
X8153400Y13982700D01*
X8204200Y13957300D01*
X8255000Y13982700D01*
X8229600Y13931900D01*
X8255000Y13881100D01*
X8204200Y13906500D01*
X8153400Y13881100D01*
Y13627100D02*
X8178800Y13677901D01*
X8153400Y13728700D01*
X8204200Y13703300D01*
X8255000Y13728700D01*
X8229600Y13677901D01*
X8255000Y13627100D01*
X8204200Y13652499D01*
X8153400Y13627100D01*
Y13373100D02*
X8178800Y13423900D01*
X8153400Y13474699D01*
X8204200Y13449300D01*
X8255000Y13474699D01*
X8229600Y13423900D01*
X8255000Y13373100D01*
X8204200Y13398500D01*
X8153400Y13373100D01*
Y13119099D02*
X8178800Y13169901D01*
X8153400Y13220700D01*
X8204200Y13195300D01*
X8255000Y13220700D01*
X8229600Y13169901D01*
X8255000Y13119099D01*
X8204200Y13144501D01*
X8153400Y13119099D01*
Y12865100D02*
X8178800Y12915900D01*
X8153400Y12966701D01*
X8204200Y12941299D01*
X8255000Y12966701D01*
X8229600Y12915900D01*
X8255000Y12865100D01*
X8204200Y12890500D01*
X8153400Y12865100D01*
Y12611100D02*
X8178800Y12661900D01*
X8153400Y12712700D01*
X8204200Y12687300D01*
X8255000Y12712700D01*
X8229600Y12661900D01*
X8255000Y12611100D01*
X8204200Y12636500D01*
X8153400Y12611100D01*
Y12357100D02*
X8178800Y12407900D01*
X8153400Y12458700D01*
X8204200Y12433300D01*
X8255000Y12458700D01*
X8229600Y12407900D01*
X8255000Y12357100D01*
X8204200Y12382500D01*
X8153400Y12357100D01*
Y12103100D02*
X8178800Y12153900D01*
X8153400Y12204700D01*
X8204200Y12179300D01*
X8255000Y12204700D01*
X8229600Y12153900D01*
X8255000Y12103100D01*
X8204200Y12128500D01*
X8153400Y12103100D01*
Y11849100D02*
X8178800Y11899900D01*
X8153400Y11950700D01*
X8204200Y11925300D01*
X8255000Y11950700D01*
X8229600Y11899900D01*
X8255000Y11849100D01*
X8204200Y11874500D01*
X8153400Y11849100D01*
Y11595100D02*
X8178800Y11645900D01*
X8153400Y11696700D01*
X8204200Y11671300D01*
X8255000Y11696700D01*
X8229600Y11645900D01*
X8255000Y11595100D01*
X8204200Y11620500D01*
X8153400Y11595100D01*
Y11341100D02*
X8178800Y11391900D01*
X8153400Y11442700D01*
X8204200Y11417300D01*
X8255000Y11442700D01*
X8229600Y11391900D01*
X8255000Y11341100D01*
X8204200Y11366500D01*
X8153400Y11341100D01*
Y11087100D02*
X8178800Y11137900D01*
X8153400Y11188700D01*
X8204200Y11163300D01*
X8255000Y11188700D01*
X8229600Y11137900D01*
X8255000Y11087100D01*
X8204200Y11112500D01*
X8153400Y11087100D01*
Y10833100D02*
X8178800Y10883900D01*
X8153400Y10934700D01*
X8204200Y10909300D01*
X8255000Y10934700D01*
X8229600Y10883900D01*
X8255000Y10833100D01*
X8204200Y10858500D01*
X8153400Y10833100D01*
Y10579100D02*
X8178800Y10629900D01*
X8153400Y10680700D01*
X8204200Y10655300D01*
X8255000Y10680700D01*
X8229600Y10629900D01*
X8255000Y10579100D01*
X8204200Y10604500D01*
X8153400Y10579100D01*
Y10325100D02*
X8178800Y10375900D01*
X8153400Y10426700D01*
X8204200Y10401300D01*
X8255000Y10426700D01*
X8229600Y10375900D01*
X8255000Y10325100D01*
X8204200Y10350500D01*
X8153400Y10325100D01*
Y10071100D02*
X8178800Y10121900D01*
X8153400Y10172700D01*
X8204200Y10147300D01*
X8255000Y10172700D01*
X8229600Y10121900D01*
X8255000Y10071100D01*
X8204200Y10096500D01*
X8153400Y10071100D01*
Y9817100D02*
X8178800Y9867900D01*
X8153400Y9918700D01*
X8204200Y9893300D01*
X8255000Y9918700D01*
X8229600Y9867900D01*
X8255000Y9817100D01*
X8204200Y9842500D01*
X8153400Y9817100D01*
Y9563100D02*
X8178800Y9613900D01*
X8153400Y9664700D01*
X8204200Y9639300D01*
X8255000Y9664700D01*
X8229600Y9613900D01*
X8255000Y9563100D01*
X8204200Y9588500D01*
X8153400Y9563100D01*
Y9309100D02*
X8178800Y9359900D01*
X8153400Y9410700D01*
X8204200Y9385300D01*
X8255000Y9410700D01*
X8229600Y9359900D01*
X8255000Y9309100D01*
X8204200Y9334500D01*
X8153400Y9309100D01*
Y9055100D02*
X8178800Y9105900D01*
X8153400Y9156700D01*
X8204200Y9131300D01*
X8255000Y9156700D01*
X8229600Y9105900D01*
X8255000Y9055100D01*
X8204200Y9080500D01*
X8153400Y9055100D01*
Y8801100D02*
X8178800Y8851900D01*
X8153400Y8902700D01*
X8204200Y8877300D01*
X8255000Y8902700D01*
X8229600Y8851900D01*
X8255000Y8801100D01*
X8204200Y8826500D01*
X8153400Y8801100D01*
Y8547100D02*
X8178800Y8597900D01*
X8153400Y8648700D01*
X8204200Y8623300D01*
X8255000Y8648700D01*
X8229600Y8597900D01*
X8255000Y8547100D01*
X8204200Y8572500D01*
X8153400Y8547100D01*
Y8293100D02*
X8178800Y8343900D01*
X8153400Y8394700D01*
X8204200Y8369300D01*
X8255000Y8394700D01*
X8229600Y8343900D01*
X8255000Y8293100D01*
X8204200Y8318500D01*
X8153400Y8293100D01*
Y8039100D02*
X8178800Y8089900D01*
X8153400Y8140700D01*
X8204200Y8115300D01*
X8255000Y8140700D01*
X8229600Y8089900D01*
X8255000Y8039100D01*
X8204200Y8064500D01*
X8153400Y8039100D01*
Y7785100D02*
X8178800Y7835900D01*
X8153400Y7886700D01*
X8204200Y7861300D01*
X8255000Y7886700D01*
X8229600Y7835900D01*
X8255000Y7785100D01*
X8204200Y7810500D01*
X8153400Y7785100D01*
X14224001Y15659100D02*
X14249400Y15709900D01*
X14224001Y15760699D01*
X14274800Y15735300D01*
X14325600Y15760699D01*
X14300200Y15709900D01*
X14325600Y15659100D01*
X14274800Y15684500D01*
X14224001Y15659100D01*
Y15405099D02*
X14249400Y15455901D01*
X14224001Y15506700D01*
X14274800Y15481300D01*
X14325600Y15506700D01*
X14300200Y15455901D01*
X14325600Y15405099D01*
X14274800Y15430499D01*
X14224001Y15405099D01*
Y15151100D02*
X14249400Y15201900D01*
X14224001Y15252699D01*
X14274800Y15227299D01*
X14325600Y15252699D01*
X14300200Y15201900D01*
X14325600Y15151100D01*
X14274800Y15176500D01*
X14224001Y15151100D01*
Y14897099D02*
X14249400Y14947900D01*
X14224001Y14998700D01*
X14274800Y14973300D01*
X14325600Y14998700D01*
X14300200Y14947900D01*
X14325600Y14897099D01*
X14274800Y14922501D01*
X14224001Y14897099D01*
Y14643100D02*
X14249400Y14693900D01*
X14224001Y14744701D01*
X14274800Y14719299D01*
X14325600Y14744701D01*
X14300200Y14693900D01*
X14325600Y14643100D01*
X14274800Y14668500D01*
X14224001Y14643100D01*
Y14389101D02*
X14249400Y14439900D01*
X14224001Y14490700D01*
X14274800Y14465300D01*
X14325600Y14490700D01*
X14300200Y14439900D01*
X14325600Y14389101D01*
X14274800Y14414500D01*
X14224001Y14389101D01*
Y14135100D02*
X14249400Y14185899D01*
X14224001Y14236700D01*
X14274800Y14211301D01*
X14325600Y14236700D01*
X14300200Y14185899D01*
X14325600Y14135100D01*
X14274800Y14160500D01*
X14224001Y14135100D01*
Y13881100D02*
X14249400Y13931900D01*
X14224001Y13982700D01*
X14274800Y13957300D01*
X14325600Y13982700D01*
X14300200Y13931900D01*
X14325600Y13881100D01*
X14274800Y13906500D01*
X14224001Y13881100D01*
Y13627100D02*
X14249400Y13677901D01*
X14224001Y13728700D01*
X14274800Y13703300D01*
X14325600Y13728700D01*
X14300200Y13677901D01*
X14325600Y13627100D01*
X14274800Y13652499D01*
X14224001Y13627100D01*
Y13373100D02*
X14249400Y13423900D01*
X14224001Y13474699D01*
X14274800Y13449300D01*
X14325600Y13474699D01*
X14300200Y13423900D01*
X14325600Y13373100D01*
X14274800Y13398500D01*
X14224001Y13373100D01*
Y13119099D02*
X14249400Y13169901D01*
X14224001Y13220700D01*
X14274800Y13195300D01*
X14325600Y13220700D01*
X14300200Y13169901D01*
X14325600Y13119099D01*
X14274800Y13144501D01*
X14224001Y13119099D01*
Y12865100D02*
X14249400Y12915900D01*
X14224001Y12966701D01*
X14274800Y12941299D01*
X14325600Y12966701D01*
X14300200Y12915900D01*
X14325600Y12865100D01*
X14274800Y12890500D01*
X14224001Y12865100D01*
Y12611100D02*
X14249400Y12661900D01*
X14224001Y12712700D01*
X14274800Y12687300D01*
X14325600Y12712700D01*
X14300200Y12661900D01*
X14325600Y12611100D01*
X14274800Y12636500D01*
X14224001Y12611100D01*
Y12357100D02*
X14249400Y12407900D01*
X14224001Y12458700D01*
X14274800Y12433300D01*
X14325600Y12458700D01*
X14300200Y12407900D01*
X14325600Y12357100D01*
X14274800Y12382500D01*
X14224001Y12357100D01*
Y12103100D02*
X14249400Y12153900D01*
X14224001Y12204700D01*
X14274800Y12179300D01*
X14325600Y12204700D01*
X14300200Y12153900D01*
X14325600Y12103100D01*
X14274800Y12128500D01*
X14224001Y12103100D01*
Y11849100D02*
X14249400Y11899900D01*
X14224001Y11950700D01*
X14274800Y11925300D01*
X14325600Y11950700D01*
X14300200Y11899900D01*
X14325600Y11849100D01*
X14274800Y11874500D01*
X14224001Y11849100D01*
Y11595100D02*
X14249400Y11645900D01*
X14224001Y11696700D01*
X14274800Y11671300D01*
X14325600Y11696700D01*
X14300200Y11645900D01*
X14325600Y11595100D01*
X14274800Y11620500D01*
X14224001Y11595100D01*
Y11341100D02*
X14249400Y11391900D01*
X14224001Y11442700D01*
X14274800Y11417300D01*
X14325600Y11442700D01*
X14300200Y11391900D01*
X14325600Y11341100D01*
X14274800Y11366500D01*
X14224001Y11341100D01*
Y11087100D02*
X14249400Y11137900D01*
X14224001Y11188700D01*
X14274800Y11163300D01*
X14325600Y11188700D01*
X14300200Y11137900D01*
X14325600Y11087100D01*
X14274800Y11112500D01*
X14224001Y11087100D01*
Y10833100D02*
X14249400Y10883900D01*
X14224001Y10934700D01*
X14274800Y10909300D01*
X14325600Y10934700D01*
X14300200Y10883900D01*
X14325600Y10833100D01*
X14274800Y10858500D01*
X14224001Y10833100D01*
Y10579100D02*
X14249400Y10629900D01*
X14224001Y10680700D01*
X14274800Y10655300D01*
X14325600Y10680700D01*
X14300200Y10629900D01*
X14325600Y10579100D01*
X14274800Y10604500D01*
X14224001Y10579100D01*
Y10325100D02*
X14249400Y10375900D01*
X14224001Y10426700D01*
X14274800Y10401300D01*
X14325600Y10426700D01*
X14300200Y10375900D01*
X14325600Y10325100D01*
X14274800Y10350500D01*
X14224001Y10325100D01*
Y10071100D02*
X14249400Y10121900D01*
X14224001Y10172700D01*
X14274800Y10147300D01*
X14325600Y10172700D01*
X14300200Y10121900D01*
X14325600Y10071100D01*
X14274800Y10096500D01*
X14224001Y10071100D01*
Y9817100D02*
X14249400Y9867900D01*
X14224001Y9918700D01*
X14274800Y9893300D01*
X14325600Y9918700D01*
X14300200Y9867900D01*
X14325600Y9817100D01*
X14274800Y9842500D01*
X14224001Y9817100D01*
Y9563100D02*
X14249400Y9613900D01*
X14224001Y9664700D01*
X14274800Y9639300D01*
X14325600Y9664700D01*
X14300200Y9613900D01*
X14325600Y9563100D01*
X14274800Y9588500D01*
X14224001Y9563100D01*
Y9309100D02*
X14249400Y9359900D01*
X14224001Y9410700D01*
X14274800Y9385300D01*
X14325600Y9410700D01*
X14300200Y9359900D01*
X14325600Y9309100D01*
X14274800Y9334500D01*
X14224001Y9309100D01*
Y9055100D02*
X14249400Y9105900D01*
X14224001Y9156700D01*
X14274800Y9131300D01*
X14325600Y9156700D01*
X14300200Y9105900D01*
X14325600Y9055100D01*
X14274800Y9080500D01*
X14224001Y9055100D01*
Y8801100D02*
X14249400Y8851900D01*
X14224001Y8902700D01*
X14274800Y8877300D01*
X14325600Y8902700D01*
X14300200Y8851900D01*
X14325600Y8801100D01*
X14274800Y8826500D01*
X14224001Y8801100D01*
Y8547100D02*
X14249400Y8597900D01*
X14224001Y8648700D01*
X14274800Y8623300D01*
X14325600Y8648700D01*
X14300200Y8597900D01*
X14325600Y8547100D01*
X14274800Y8572500D01*
X14224001Y8547100D01*
Y8293100D02*
X14249400Y8343900D01*
X14224001Y8394700D01*
X14274800Y8369300D01*
X14325600Y8394700D01*
X14300200Y8343900D01*
X14325600Y8293100D01*
X14274800Y8318500D01*
X14224001Y8293100D01*
Y8039100D02*
X14249400Y8089900D01*
X14224001Y8140700D01*
X14274800Y8115300D01*
X14325600Y8140700D01*
X14300200Y8089900D01*
X14325600Y8039100D01*
X14274800Y8064500D01*
X14224001Y8039100D01*
Y7785100D02*
X14249400Y7835900D01*
X14224001Y7886700D01*
X14274800Y7861300D01*
X14325600Y7886700D01*
X14300200Y7835900D01*
X14325600Y7785100D01*
X14274800Y7810500D01*
X14224001Y7785100D01*
X13716000Y15659100D02*
X13741400Y15709900D01*
X13716000Y15760699D01*
X13766800Y15735300D01*
X13817599Y15760699D01*
X13792200Y15709900D01*
X13817599Y15659100D01*
X13766800Y15684500D01*
X13716000Y15659100D01*
Y15405099D02*
X13741400Y15455901D01*
X13716000Y15506700D01*
X13766800Y15481300D01*
X13817599Y15506700D01*
X13792200Y15455901D01*
X13817599Y15405099D01*
X13766800Y15430499D01*
X13716000Y15405099D01*
Y15151100D02*
X13741400Y15201900D01*
X13716000Y15252699D01*
X13766800Y15227299D01*
X13817599Y15252699D01*
X13792200Y15201900D01*
X13817599Y15151100D01*
X13766800Y15176500D01*
X13716000Y15151100D01*
Y14897099D02*
X13741400Y14947900D01*
X13716000Y14998700D01*
X13766800Y14973300D01*
X13817599Y14998700D01*
X13792200Y14947900D01*
X13817599Y14897099D01*
X13766800Y14922501D01*
X13716000Y14897099D01*
Y14643100D02*
X13741400Y14693900D01*
X13716000Y14744701D01*
X13766800Y14719299D01*
X13817599Y14744701D01*
X13792200Y14693900D01*
X13817599Y14643100D01*
X13766800Y14668500D01*
X13716000Y14643100D01*
Y14389101D02*
X13741400Y14439900D01*
X13716000Y14490700D01*
X13766800Y14465300D01*
X13817599Y14490700D01*
X13792200Y14439900D01*
X13817599Y14389101D01*
X13766800Y14414500D01*
X13716000Y14389101D01*
Y14135100D02*
X13741400Y14185899D01*
X13716000Y14236700D01*
X13766800Y14211301D01*
X13817599Y14236700D01*
X13792200Y14185899D01*
X13817599Y14135100D01*
X13766800Y14160500D01*
X13716000Y14135100D01*
Y13881100D02*
X13741400Y13931900D01*
X13716000Y13982700D01*
X13766800Y13957300D01*
X13817599Y13982700D01*
X13792200Y13931900D01*
X13817599Y13881100D01*
X13766800Y13906500D01*
X13716000Y13881100D01*
Y13627100D02*
X13741400Y13677901D01*
X13716000Y13728700D01*
X13766800Y13703300D01*
X13817599Y13728700D01*
X13792200Y13677901D01*
X13817599Y13627100D01*
X13766800Y13652499D01*
X13716000Y13627100D01*
Y13373100D02*
X13741400Y13423900D01*
X13716000Y13474699D01*
X13766800Y13449300D01*
X13817599Y13474699D01*
X13792200Y13423900D01*
X13817599Y13373100D01*
X13766800Y13398500D01*
X13716000Y13373100D01*
Y13119099D02*
X13741400Y13169901D01*
X13716000Y13220700D01*
X13766800Y13195300D01*
X13817599Y13220700D01*
X13792200Y13169901D01*
X13817599Y13119099D01*
X13766800Y13144501D01*
X13716000Y13119099D01*
Y12865100D02*
X13741400Y12915900D01*
X13716000Y12966701D01*
X13766800Y12941299D01*
X13817599Y12966701D01*
X13792200Y12915900D01*
X13817599Y12865100D01*
X13766800Y12890500D01*
X13716000Y12865100D01*
Y12611100D02*
X13741400Y12661900D01*
X13716000Y12712700D01*
X13766800Y12687300D01*
X13817599Y12712700D01*
X13792200Y12661900D01*
X13817599Y12611100D01*
X13766800Y12636500D01*
X13716000Y12611100D01*
Y12357100D02*
X13741400Y12407900D01*
X13716000Y12458700D01*
X13766800Y12433300D01*
X13817599Y12458700D01*
X13792200Y12407900D01*
X13817599Y12357100D01*
X13766800Y12382500D01*
X13716000Y12357100D01*
Y12103100D02*
X13741400Y12153900D01*
X13716000Y12204700D01*
X13766800Y12179300D01*
X13817599Y12204700D01*
X13792200Y12153900D01*
X13817599Y12103100D01*
X13766800Y12128500D01*
X13716000Y12103100D01*
Y11849100D02*
X13741400Y11899900D01*
X13716000Y11950700D01*
X13766800Y11925300D01*
X13817599Y11950700D01*
X13792200Y11899900D01*
X13817599Y11849100D01*
X13766800Y11874500D01*
X13716000Y11849100D01*
Y11595100D02*
X13741400Y11645900D01*
X13716000Y11696700D01*
X13766800Y11671300D01*
X13817599Y11696700D01*
X13792200Y11645900D01*
X13817599Y11595100D01*
X13766800Y11620500D01*
X13716000Y11595100D01*
Y11341100D02*
X13741400Y11391900D01*
X13716000Y11442700D01*
X13766800Y11417300D01*
X13817599Y11442700D01*
X13792200Y11391900D01*
X13817599Y11341100D01*
X13766800Y11366500D01*
X13716000Y11341100D01*
Y11087100D02*
X13741400Y11137900D01*
X13716000Y11188700D01*
X13766800Y11163300D01*
X13817599Y11188700D01*
X13792200Y11137900D01*
X13817599Y11087100D01*
X13766800Y11112500D01*
X13716000Y11087100D01*
Y10833100D02*
X13741400Y10883900D01*
X13716000Y10934700D01*
X13766800Y10909300D01*
X13817599Y10934700D01*
X13792200Y10883900D01*
X13817599Y10833100D01*
X13766800Y10858500D01*
X13716000Y10833100D01*
Y10579100D02*
X13741400Y10629900D01*
X13716000Y10680700D01*
X13766800Y10655300D01*
X13817599Y10680700D01*
X13792200Y10629900D01*
X13817599Y10579100D01*
X13766800Y10604500D01*
X13716000Y10579100D01*
Y10325100D02*
X13741400Y10375900D01*
X13716000Y10426700D01*
X13766800Y10401300D01*
X13817599Y10426700D01*
X13792200Y10375900D01*
X13817599Y10325100D01*
X13766800Y10350500D01*
X13716000Y10325100D01*
Y10071100D02*
X13741400Y10121900D01*
X13716000Y10172700D01*
X13766800Y10147300D01*
X13817599Y10172700D01*
X13792200Y10121900D01*
X13817599Y10071100D01*
X13766800Y10096500D01*
X13716000Y10071100D01*
Y9817100D02*
X13741400Y9867900D01*
X13716000Y9918700D01*
X13766800Y9893300D01*
X13817599Y9918700D01*
X13792200Y9867900D01*
X13817599Y9817100D01*
X13766800Y9842500D01*
X13716000Y9817100D01*
Y9563100D02*
X13741400Y9613900D01*
X13716000Y9664700D01*
X13766800Y9639300D01*
X13817599Y9664700D01*
X13792200Y9613900D01*
X13817599Y9563100D01*
X13766800Y9588500D01*
X13716000Y9563100D01*
Y9309100D02*
X13741400Y9359900D01*
X13716000Y9410700D01*
X13766800Y9385300D01*
X13817599Y9410700D01*
X13792200Y9359900D01*
X13817599Y9309100D01*
X13766800Y9334500D01*
X13716000Y9309100D01*
Y9055100D02*
X13741400Y9105900D01*
X13716000Y9156700D01*
X13766800Y9131300D01*
X13817599Y9156700D01*
X13792200Y9105900D01*
X13817599Y9055100D01*
X13766800Y9080500D01*
X13716000Y9055100D01*
Y8801100D02*
X13741400Y8851900D01*
X13716000Y8902700D01*
X13766800Y8877300D01*
X13817599Y8902700D01*
X13792200Y8851900D01*
X13817599Y8801100D01*
X13766800Y8826500D01*
X13716000Y8801100D01*
Y8547100D02*
X13741400Y8597900D01*
X13716000Y8648700D01*
X13766800Y8623300D01*
X13817599Y8648700D01*
X13792200Y8597900D01*
X13817599Y8547100D01*
X13766800Y8572500D01*
X13716000Y8547100D01*
Y8293100D02*
X13741400Y8343900D01*
X13716000Y8394700D01*
X13766800Y8369300D01*
X13817599Y8394700D01*
X13792200Y8343900D01*
X13817599Y8293100D01*
X13766800Y8318500D01*
X13716000Y8293100D01*
Y8039100D02*
X13741400Y8089900D01*
X13716000Y8140700D01*
X13766800Y8115300D01*
X13817599Y8140700D01*
X13792200Y8089900D01*
X13817599Y8039100D01*
X13766800Y8064500D01*
X13716000Y8039100D01*
Y7785100D02*
X13741400Y7835900D01*
X13716000Y7886700D01*
X13766800Y7861300D01*
X13817599Y7886700D01*
X13792200Y7835900D01*
X13817599Y7785100D01*
X13766800Y7810500D01*
X13716000Y7785100D01*
X15174001Y6345100D02*
Y6319700D01*
X15224800D01*
Y6345100D01*
X15250200D01*
Y6395900D01*
X15224800D01*
Y6421300D01*
X15174001D01*
Y6395900D01*
X15148599D01*
Y6345100D01*
X15174001D01*
Y8844100D02*
Y8818700D01*
X15224800D01*
Y8844100D01*
X15250200D01*
Y8894900D01*
X15224800D01*
Y8920300D01*
X15174001D01*
Y8894900D01*
X15148599D01*
Y8844100D01*
X15174001D01*
X15290601Y8123200D02*
X15316000D01*
X15341400Y8148600D01*
X15366800Y8123200D01*
X15392200D01*
Y8148600D01*
X15366800Y8174000D01*
X15392200Y8199400D01*
Y8224800D01*
X15366800D01*
X15341400Y8199400D01*
X15316000Y8224800D01*
X15290601D01*
Y8199400D01*
X15316000Y8174000D01*
X15290601Y8148600D01*
Y8123200D01*
X15006599Y7984700D02*
X15032001D01*
X15057401Y8010100D01*
X15082800Y7984700D01*
X15108200D01*
Y8010100D01*
X15082800Y8035500D01*
X15108200Y8060900D01*
Y8086300D01*
X15082800D01*
X15057401Y8060900D01*
X15032001Y8086300D01*
X15006599D01*
Y8060900D01*
X15032001Y8035500D01*
X15006599Y8010100D01*
Y7984700D01*
X15290601Y7846200D02*
X15316000D01*
X15341400Y7871600D01*
X15366800Y7846200D01*
X15392200D01*
Y7871600D01*
X15366800Y7897000D01*
X15392200Y7922400D01*
Y7947800D01*
X15366800D01*
X15341400Y7922400D01*
X15316000Y7947800D01*
X15290601D01*
Y7922400D01*
X15316000Y7897000D01*
X15290601Y7871600D01*
Y7846200D01*
X15006599Y7707700D02*
X15032001D01*
X15057401Y7733100D01*
X15082800Y7707700D01*
X15108200D01*
Y7733100D01*
X15082800Y7758500D01*
X15108200Y7783900D01*
Y7809300D01*
X15082800D01*
X15057401Y7783900D01*
X15032001Y7809300D01*
X15006599D01*
Y7783900D01*
X15032001Y7758500D01*
X15006599Y7733100D01*
Y7707700D01*
X15290601Y7569200D02*
X15316000D01*
X15341400Y7594600D01*
X15366800Y7569200D01*
X15392200D01*
Y7594600D01*
X15366800Y7620000D01*
X15392200Y7645400D01*
Y7670800D01*
X15366800D01*
X15341400Y7645400D01*
X15316000Y7670800D01*
X15290601D01*
Y7645400D01*
X15316000Y7620000D01*
X15290601Y7594600D01*
Y7569200D01*
X15006599Y7430700D02*
X15032001D01*
X15057401Y7456100D01*
X15082800Y7430700D01*
X15108200D01*
Y7456100D01*
X15082800Y7481500D01*
X15108200Y7506900D01*
Y7532300D01*
X15082800D01*
X15057401Y7506900D01*
X15032001Y7532300D01*
X15006599D01*
Y7506900D01*
X15032001Y7481500D01*
X15006599Y7456100D01*
Y7430700D01*
X15290601Y7292200D02*
X15316000D01*
X15341400Y7317600D01*
X15366800Y7292200D01*
X15392200D01*
Y7317600D01*
X15366800Y7343000D01*
X15392200Y7368400D01*
Y7393800D01*
X15366800D01*
X15341400Y7368400D01*
X15316000Y7393800D01*
X15290601D01*
Y7368400D01*
X15316000Y7343000D01*
X15290601Y7317600D01*
Y7292200D01*
X15006599Y7153700D02*
X15032001D01*
X15057401Y7179100D01*
X15082800Y7153700D01*
X15108200D01*
Y7179100D01*
X15082800Y7204500D01*
X15108200Y7229900D01*
Y7255300D01*
X15082800D01*
X15057401Y7229900D01*
X15032001Y7255300D01*
X15006599D01*
Y7229900D01*
X15032001Y7204500D01*
X15006599Y7179100D01*
Y7153700D01*
X15290601Y7015200D02*
X15316000D01*
X15341400Y7040600D01*
X15366800Y7015200D01*
X15392200D01*
Y7040600D01*
X15366800Y7066000D01*
X15392200Y7091400D01*
Y7116800D01*
X15366800D01*
X15341400Y7091400D01*
X15316000Y7116800D01*
X15290601D01*
Y7091400D01*
X15316000Y7066000D01*
X15290601Y7040600D01*
Y7015200D01*
X15174001Y9469300D02*
Y9443900D01*
X15224800D01*
Y9469300D01*
X15250200D01*
Y9520100D01*
X15224800D01*
Y9545500D01*
X15174001D01*
Y9520100D01*
X15148599D01*
Y9469300D01*
X15174001D01*
Y11968300D02*
Y11942900D01*
X15224800D01*
Y11968300D01*
X15250200D01*
Y12019100D01*
X15224800D01*
Y12044500D01*
X15174001D01*
Y12019100D01*
X15148599D01*
Y11968300D01*
X15174001D01*
X15290601Y11247400D02*
X15316000D01*
X15341400Y11272800D01*
X15366800Y11247400D01*
X15392200D01*
Y11272800D01*
X15366800Y11298200D01*
X15392200Y11323600D01*
Y11349000D01*
X15366800D01*
X15341400Y11323600D01*
X15316000Y11349000D01*
X15290601D01*
Y11323600D01*
X15316000Y11298200D01*
X15290601Y11272800D01*
Y11247400D01*
X15006599Y11108900D02*
X15032001D01*
X15057401Y11134300D01*
X15082800Y11108900D01*
X15108200D01*
Y11134300D01*
X15082800Y11159700D01*
X15108200Y11185100D01*
Y11210500D01*
X15082800D01*
X15057401Y11185100D01*
X15032001Y11210500D01*
X15006599D01*
Y11185100D01*
X15032001Y11159700D01*
X15006599Y11134300D01*
Y11108900D01*
X15290601Y10970400D02*
X15316000D01*
X15341400Y10995800D01*
X15366800Y10970400D01*
X15392200D01*
Y10995800D01*
X15366800Y11021200D01*
X15392200Y11046600D01*
Y11072000D01*
X15366800D01*
X15341400Y11046600D01*
X15316000Y11072000D01*
X15290601D01*
Y11046600D01*
X15316000Y11021200D01*
X15290601Y10995800D01*
Y10970400D01*
X15006599Y10831900D02*
X15032001D01*
X15057401Y10857300D01*
X15082800Y10831900D01*
X15108200D01*
Y10857300D01*
X15082800Y10882700D01*
X15108200Y10908100D01*
Y10933500D01*
X15082800D01*
X15057401Y10908100D01*
X15032001Y10933500D01*
X15006599D01*
Y10908100D01*
X15032001Y10882700D01*
X15006599Y10857300D01*
Y10831900D01*
X15290601Y10693400D02*
X15316000D01*
X15341400Y10718800D01*
X15366800Y10693400D01*
X15392200D01*
Y10718800D01*
X15366800Y10744200D01*
X15392200Y10769600D01*
Y10795000D01*
X15366800D01*
X15341400Y10769600D01*
X15316000Y10795000D01*
X15290601D01*
Y10769600D01*
X15316000Y10744200D01*
X15290601Y10718800D01*
Y10693400D01*
X15006599Y10554900D02*
X15032001D01*
X15057401Y10580300D01*
X15082800Y10554900D01*
X15108200D01*
Y10580300D01*
X15082800Y10605700D01*
X15108200Y10631100D01*
Y10656500D01*
X15082800D01*
X15057401Y10631100D01*
X15032001Y10656500D01*
X15006599D01*
Y10631100D01*
X15032001Y10605700D01*
X15006599Y10580300D01*
Y10554900D01*
X15290601Y10416400D02*
X15316000D01*
X15341400Y10441800D01*
X15366800Y10416400D01*
X15392200D01*
Y10441800D01*
X15366800Y10467200D01*
X15392200Y10492600D01*
Y10518000D01*
X15366800D01*
X15341400Y10492600D01*
X15316000Y10518000D01*
X15290601D01*
Y10492600D01*
X15316000Y10467200D01*
X15290601Y10441800D01*
Y10416400D01*
X15006599Y10277900D02*
X15032001D01*
X15057401Y10303300D01*
X15082800Y10277900D01*
X15108200D01*
Y10303300D01*
X15082800Y10328700D01*
X15108200Y10354100D01*
Y10379500D01*
X15082800D01*
X15057401Y10354100D01*
X15032001Y10379500D01*
X15006599D01*
Y10354100D01*
X15032001Y10328700D01*
X15006599Y10303300D01*
Y10277900D01*
X15290601Y10139400D02*
X15316000D01*
X15341400Y10164800D01*
X15366800Y10139400D01*
X15392200D01*
Y10164800D01*
X15366800Y10190200D01*
X15392200Y10215600D01*
Y10241000D01*
X15366800D01*
X15341400Y10215600D01*
X15316000Y10241000D01*
X15290601D01*
Y10215600D01*
X15316000Y10190200D01*
X15290601Y10164800D01*
Y10139400D01*
X19238000Y6345100D02*
Y6319700D01*
X19288800D01*
Y6345100D01*
X19314200D01*
Y6395900D01*
X19288800D01*
Y6421300D01*
X19238000D01*
Y6395900D01*
X19212601D01*
Y6345100D01*
X19238000D01*
Y8844100D02*
Y8818700D01*
X19288800D01*
Y8844100D01*
X19314200D01*
Y8894900D01*
X19288800D01*
Y8920300D01*
X19238000D01*
Y8894900D01*
X19212601D01*
Y8844100D01*
X19238000D01*
X19354601Y8123200D02*
X19380000D01*
X19405400Y8148600D01*
X19430800Y8123200D01*
X19456200D01*
Y8148600D01*
X19430800Y8174000D01*
X19456200Y8199400D01*
Y8224800D01*
X19430800D01*
X19405400Y8199400D01*
X19380000Y8224800D01*
X19354601D01*
Y8199400D01*
X19380000Y8174000D01*
X19354601Y8148600D01*
Y8123200D01*
X19070599Y7984700D02*
X19096001D01*
X19121400Y8010100D01*
X19146800Y7984700D01*
X19172200D01*
Y8010100D01*
X19146800Y8035500D01*
X19172200Y8060900D01*
Y8086300D01*
X19146800D01*
X19121400Y8060900D01*
X19096001Y8086300D01*
X19070599D01*
Y8060900D01*
X19096001Y8035500D01*
X19070599Y8010100D01*
Y7984700D01*
X19354601Y7846200D02*
X19380000D01*
X19405400Y7871600D01*
X19430800Y7846200D01*
X19456200D01*
Y7871600D01*
X19430800Y7897000D01*
X19456200Y7922400D01*
Y7947800D01*
X19430800D01*
X19405400Y7922400D01*
X19380000Y7947800D01*
X19354601D01*
Y7922400D01*
X19380000Y7897000D01*
X19354601Y7871600D01*
Y7846200D01*
X19070599Y7707700D02*
X19096001D01*
X19121400Y7733100D01*
X19146800Y7707700D01*
X19172200D01*
Y7733100D01*
X19146800Y7758500D01*
X19172200Y7783900D01*
Y7809300D01*
X19146800D01*
X19121400Y7783900D01*
X19096001Y7809300D01*
X19070599D01*
Y7783900D01*
X19096001Y7758500D01*
X19070599Y7733100D01*
Y7707700D01*
X19354601Y7569200D02*
X19380000D01*
X19405400Y7594600D01*
X19430800Y7569200D01*
X19456200D01*
Y7594600D01*
X19430800Y7620000D01*
X19456200Y7645400D01*
Y7670800D01*
X19430800D01*
X19405400Y7645400D01*
X19380000Y7670800D01*
X19354601D01*
Y7645400D01*
X19380000Y7620000D01*
X19354601Y7594600D01*
Y7569200D01*
X19070599Y7430700D02*
X19096001D01*
X19121400Y7456100D01*
X19146800Y7430700D01*
X19172200D01*
Y7456100D01*
X19146800Y7481500D01*
X19172200Y7506900D01*
Y7532300D01*
X19146800D01*
X19121400Y7506900D01*
X19096001Y7532300D01*
X19070599D01*
Y7506900D01*
X19096001Y7481500D01*
X19070599Y7456100D01*
Y7430700D01*
X19354601Y7292200D02*
X19380000D01*
X19405400Y7317600D01*
X19430800Y7292200D01*
X19456200D01*
Y7317600D01*
X19430800Y7343000D01*
X19456200Y7368400D01*
Y7393800D01*
X19430800D01*
X19405400Y7368400D01*
X19380000Y7393800D01*
X19354601D01*
Y7368400D01*
X19380000Y7343000D01*
X19354601Y7317600D01*
Y7292200D01*
X19070599Y7153700D02*
X19096001D01*
X19121400Y7179100D01*
X19146800Y7153700D01*
X19172200D01*
Y7179100D01*
X19146800Y7204500D01*
X19172200Y7229900D01*
Y7255300D01*
X19146800D01*
X19121400Y7229900D01*
X19096001Y7255300D01*
X19070599D01*
Y7229900D01*
X19096001Y7204500D01*
X19070599Y7179100D01*
Y7153700D01*
X19354601Y7015200D02*
X19380000D01*
X19405400Y7040600D01*
X19430800Y7015200D01*
X19456200D01*
Y7040600D01*
X19430800Y7066000D01*
X19456200Y7091400D01*
Y7116800D01*
X19430800D01*
X19405400Y7091400D01*
X19380000Y7116800D01*
X19354601D01*
Y7091400D01*
X19380000Y7066000D01*
X19354601Y7040600D01*
Y7015200D01*
X23302000Y6345100D02*
Y6319700D01*
X23352800D01*
Y6345100D01*
X23378200D01*
Y6395900D01*
X23352800D01*
Y6421300D01*
X23302000D01*
Y6395900D01*
X23276601D01*
Y6345100D01*
X23302000D01*
Y8844100D02*
Y8818700D01*
X23352800D01*
Y8844100D01*
X23378200D01*
Y8894900D01*
X23352800D01*
Y8920300D01*
X23302000D01*
Y8894900D01*
X23276601D01*
Y8844100D01*
X23302000D01*
X23418600Y8123200D02*
X23444000D01*
X23469400Y8148600D01*
X23494800Y8123200D01*
X23520200D01*
Y8148600D01*
X23494800Y8174000D01*
X23520200Y8199400D01*
Y8224800D01*
X23494800D01*
X23469400Y8199400D01*
X23444000Y8224800D01*
X23418600D01*
Y8199400D01*
X23444000Y8174000D01*
X23418600Y8148600D01*
Y8123200D01*
X23134599Y7984700D02*
X23160001D01*
X23185400Y8010100D01*
X23210800Y7984700D01*
X23236200D01*
Y8010100D01*
X23210800Y8035500D01*
X23236200Y8060900D01*
Y8086300D01*
X23210800D01*
X23185400Y8060900D01*
X23160001Y8086300D01*
X23134599D01*
Y8060900D01*
X23160001Y8035500D01*
X23134599Y8010100D01*
Y7984700D01*
X23418600Y7846200D02*
X23444000D01*
X23469400Y7871600D01*
X23494800Y7846200D01*
X23520200D01*
Y7871600D01*
X23494800Y7897000D01*
X23520200Y7922400D01*
Y7947800D01*
X23494800D01*
X23469400Y7922400D01*
X23444000Y7947800D01*
X23418600D01*
Y7922400D01*
X23444000Y7897000D01*
X23418600Y7871600D01*
Y7846200D01*
X23134599Y7707700D02*
X23160001D01*
X23185400Y7733100D01*
X23210800Y7707700D01*
X23236200D01*
Y7733100D01*
X23210800Y7758500D01*
X23236200Y7783900D01*
Y7809300D01*
X23210800D01*
X23185400Y7783900D01*
X23160001Y7809300D01*
X23134599D01*
Y7783900D01*
X23160001Y7758500D01*
X23134599Y7733100D01*
Y7707700D01*
X23418600Y7569200D02*
X23444000D01*
X23469400Y7594600D01*
X23494800Y7569200D01*
X23520200D01*
Y7594600D01*
X23494800Y7620000D01*
X23520200Y7645400D01*
Y7670800D01*
X23494800D01*
X23469400Y7645400D01*
X23444000Y7670800D01*
X23418600D01*
Y7645400D01*
X23444000Y7620000D01*
X23418600Y7594600D01*
Y7569200D01*
X23134599Y7430700D02*
X23160001D01*
X23185400Y7456100D01*
X23210800Y7430700D01*
X23236200D01*
Y7456100D01*
X23210800Y7481500D01*
X23236200Y7506900D01*
Y7532300D01*
X23210800D01*
X23185400Y7506900D01*
X23160001Y7532300D01*
X23134599D01*
Y7506900D01*
X23160001Y7481500D01*
X23134599Y7456100D01*
Y7430700D01*
X23418600Y7292200D02*
X23444000D01*
X23469400Y7317600D01*
X23494800Y7292200D01*
X23520200D01*
Y7317600D01*
X23494800Y7343000D01*
X23520200Y7368400D01*
Y7393800D01*
X23494800D01*
X23469400Y7368400D01*
X23444000Y7393800D01*
X23418600D01*
Y7368400D01*
X23444000Y7343000D01*
X23418600Y7317600D01*
Y7292200D01*
X23134599Y7153700D02*
X23160001D01*
X23185400Y7179100D01*
X23210800Y7153700D01*
X23236200D01*
Y7179100D01*
X23210800Y7204500D01*
X23236200Y7229900D01*
Y7255300D01*
X23210800D01*
X23185400Y7229900D01*
X23160001Y7255300D01*
X23134599D01*
Y7229900D01*
X23160001Y7204500D01*
X23134599Y7179100D01*
Y7153700D01*
X23418600Y7015200D02*
X23444000D01*
X23469400Y7040600D01*
X23494800Y7015200D01*
X23520200D01*
Y7040600D01*
X23494800Y7066000D01*
X23520200Y7091400D01*
Y7116800D01*
X23494800D01*
X23469400Y7091400D01*
X23444000Y7116800D01*
X23418600D01*
Y7091400D01*
X23444000Y7066000D01*
X23418600Y7040600D01*
Y7015200D01*
X27366000Y6345100D02*
Y6319700D01*
X27416800D01*
Y6345100D01*
X27442200D01*
Y6395900D01*
X27416800D01*
Y6421300D01*
X27366000D01*
Y6395900D01*
X27340601D01*
Y6345100D01*
X27366000D01*
Y8844100D02*
Y8818700D01*
X27416800D01*
Y8844100D01*
X27442200D01*
Y8894900D01*
X27416800D01*
Y8920300D01*
X27366000D01*
Y8894900D01*
X27340601D01*
Y8844100D01*
X27366000D01*
X27482599Y8123200D02*
X27507999D01*
X27533401Y8148600D01*
X27558801Y8123200D01*
X27584201D01*
Y8148600D01*
X27558801Y8174000D01*
X27584201Y8199400D01*
Y8224800D01*
X27558801D01*
X27533401Y8199400D01*
X27507999Y8224800D01*
X27482599D01*
Y8199400D01*
X27507999Y8174000D01*
X27482599Y8148600D01*
Y8123200D01*
X27198599Y7984700D02*
X27223999D01*
X27249399Y8010100D01*
X27274799Y7984700D01*
X27300201D01*
Y8010100D01*
X27274799Y8035500D01*
X27300201Y8060900D01*
Y8086300D01*
X27274799D01*
X27249399Y8060900D01*
X27223999Y8086300D01*
X27198599D01*
Y8060900D01*
X27223999Y8035500D01*
X27198599Y8010100D01*
Y7984700D01*
X27482599Y7846200D02*
X27507999D01*
X27533401Y7871600D01*
X27558801Y7846200D01*
X27584201D01*
Y7871600D01*
X27558801Y7897000D01*
X27584201Y7922400D01*
Y7947800D01*
X27558801D01*
X27533401Y7922400D01*
X27507999Y7947800D01*
X27482599D01*
Y7922400D01*
X27507999Y7897000D01*
X27482599Y7871600D01*
Y7846200D01*
X27198599Y7707700D02*
X27223999D01*
X27249399Y7733100D01*
X27274799Y7707700D01*
X27300201D01*
Y7733100D01*
X27274799Y7758500D01*
X27300201Y7783900D01*
Y7809300D01*
X27274799D01*
X27249399Y7783900D01*
X27223999Y7809300D01*
X27198599D01*
Y7783900D01*
X27223999Y7758500D01*
X27198599Y7733100D01*
Y7707700D01*
X27482599Y7569200D02*
X27507999D01*
X27533401Y7594600D01*
X27558801Y7569200D01*
X27584201D01*
Y7594600D01*
X27558801Y7620000D01*
X27584201Y7645400D01*
Y7670800D01*
X27558801D01*
X27533401Y7645400D01*
X27507999Y7670800D01*
X27482599D01*
Y7645400D01*
X27507999Y7620000D01*
X27482599Y7594600D01*
Y7569200D01*
X27198599Y7430700D02*
X27223999D01*
X27249399Y7456100D01*
X27274799Y7430700D01*
X27300201D01*
Y7456100D01*
X27274799Y7481500D01*
X27300201Y7506900D01*
Y7532300D01*
X27274799D01*
X27249399Y7506900D01*
X27223999Y7532300D01*
X27198599D01*
Y7506900D01*
X27223999Y7481500D01*
X27198599Y7456100D01*
Y7430700D01*
X27482599Y7292200D02*
X27507999D01*
X27533401Y7317600D01*
X27558801Y7292200D01*
X27584201D01*
Y7317600D01*
X27558801Y7343000D01*
X27584201Y7368400D01*
Y7393800D01*
X27558801D01*
X27533401Y7368400D01*
X27507999Y7393800D01*
X27482599D01*
Y7368400D01*
X27507999Y7343000D01*
X27482599Y7317600D01*
Y7292200D01*
X27198599Y7153700D02*
X27223999D01*
X27249399Y7179100D01*
X27274799Y7153700D01*
X27300201D01*
Y7179100D01*
X27274799Y7204500D01*
X27300201Y7229900D01*
Y7255300D01*
X27274799D01*
X27249399Y7229900D01*
X27223999Y7255300D01*
X27198599D01*
Y7229900D01*
X27223999Y7204500D01*
X27198599Y7179100D01*
Y7153700D01*
X27482599Y7015200D02*
X27507999D01*
X27533401Y7040600D01*
X27558801Y7015200D01*
X27584201D01*
Y7040600D01*
X27558801Y7066000D01*
X27584201Y7091400D01*
Y7116800D01*
X27558801D01*
X27533401Y7091400D01*
X27507999Y7116800D01*
X27482599D01*
Y7091400D01*
X27507999Y7066000D01*
X27482599Y7040600D01*
Y7015200D01*
X31429999Y6345100D02*
Y6319700D01*
X31480801D01*
Y6345100D01*
X31506201D01*
Y6395900D01*
X31480801D01*
Y6421300D01*
X31429999D01*
Y6395900D01*
X31404599D01*
Y6345100D01*
X31429999D01*
Y8844100D02*
Y8818700D01*
X31480801D01*
Y8844100D01*
X31506201D01*
Y8894900D01*
X31480801D01*
Y8920300D01*
X31429999D01*
Y8894900D01*
X31404599D01*
Y8844100D01*
X31429999D01*
X31546600Y8123200D02*
X31572000D01*
X31597400Y8148600D01*
X31622800Y8123200D01*
X31648199D01*
Y8148600D01*
X31622800Y8174000D01*
X31648199Y8199400D01*
Y8224800D01*
X31622800D01*
X31597400Y8199400D01*
X31572000Y8224800D01*
X31546600D01*
Y8199400D01*
X31572000Y8174000D01*
X31546600Y8148600D01*
Y8123200D01*
X31262601Y7984700D02*
X31288000D01*
X31313400Y8010100D01*
X31338800Y7984700D01*
X31364200D01*
Y8010100D01*
X31338800Y8035500D01*
X31364200Y8060900D01*
Y8086300D01*
X31338800D01*
X31313400Y8060900D01*
X31288000Y8086300D01*
X31262601D01*
Y8060900D01*
X31288000Y8035500D01*
X31262601Y8010100D01*
Y7984700D01*
X31546600Y7846200D02*
X31572000D01*
X31597400Y7871600D01*
X31622800Y7846200D01*
X31648199D01*
Y7871600D01*
X31622800Y7897000D01*
X31648199Y7922400D01*
Y7947800D01*
X31622800D01*
X31597400Y7922400D01*
X31572000Y7947800D01*
X31546600D01*
Y7922400D01*
X31572000Y7897000D01*
X31546600Y7871600D01*
Y7846200D01*
X31262601Y7707700D02*
X31288000D01*
X31313400Y7733100D01*
X31338800Y7707700D01*
X31364200D01*
Y7733100D01*
X31338800Y7758500D01*
X31364200Y7783900D01*
Y7809300D01*
X31338800D01*
X31313400Y7783900D01*
X31288000Y7809300D01*
X31262601D01*
Y7783900D01*
X31288000Y7758500D01*
X31262601Y7733100D01*
Y7707700D01*
X31546600Y7569200D02*
X31572000D01*
X31597400Y7594600D01*
X31622800Y7569200D01*
X31648199D01*
Y7594600D01*
X31622800Y7620000D01*
X31648199Y7645400D01*
Y7670800D01*
X31622800D01*
X31597400Y7645400D01*
X31572000Y7670800D01*
X31546600D01*
Y7645400D01*
X31572000Y7620000D01*
X31546600Y7594600D01*
Y7569200D01*
X31262601Y7430700D02*
X31288000D01*
X31313400Y7456100D01*
X31338800Y7430700D01*
X31364200D01*
Y7456100D01*
X31338800Y7481500D01*
X31364200Y7506900D01*
Y7532300D01*
X31338800D01*
X31313400Y7506900D01*
X31288000Y7532300D01*
X31262601D01*
Y7506900D01*
X31288000Y7481500D01*
X31262601Y7456100D01*
Y7430700D01*
X31546600Y7292200D02*
X31572000D01*
X31597400Y7317600D01*
X31622800Y7292200D01*
X31648199D01*
Y7317600D01*
X31622800Y7343000D01*
X31648199Y7368400D01*
Y7393800D01*
X31622800D01*
X31597400Y7368400D01*
X31572000Y7393800D01*
X31546600D01*
Y7368400D01*
X31572000Y7343000D01*
X31546600Y7317600D01*
Y7292200D01*
X31262601Y7153700D02*
X31288000D01*
X31313400Y7179100D01*
X31338800Y7153700D01*
X31364200D01*
Y7179100D01*
X31338800Y7204500D01*
X31364200Y7229900D01*
Y7255300D01*
X31338800D01*
X31313400Y7229900D01*
X31288000Y7255300D01*
X31262601D01*
Y7229900D01*
X31288000Y7204500D01*
X31262601Y7179100D01*
Y7153700D01*
X31546600Y7015200D02*
X31572000D01*
X31597400Y7040600D01*
X31622800Y7015200D01*
X31648199D01*
Y7040600D01*
X31622800Y7066000D01*
X31648199Y7091400D01*
Y7116800D01*
X31622800D01*
X31597400Y7091400D01*
X31572000Y7116800D01*
X31546600D01*
Y7091400D01*
X31572000Y7066000D01*
X31546600Y7040600D01*
Y7015200D01*
X35494000Y6345100D02*
Y6319700D01*
X35544800D01*
Y6345100D01*
X35570200D01*
Y6395900D01*
X35544800D01*
Y6421300D01*
X35494000D01*
Y6395900D01*
X35468600D01*
Y6345100D01*
X35494000D01*
Y8844100D02*
Y8818700D01*
X35544800D01*
Y8844100D01*
X35570200D01*
Y8894900D01*
X35544800D01*
Y8920300D01*
X35494000D01*
Y8894900D01*
X35468600D01*
Y8844100D01*
X35494000D01*
X35610599Y8123200D02*
X35635999D01*
X35661401Y8148600D01*
X35686801Y8123200D01*
X35712201D01*
Y8148600D01*
X35686801Y8174000D01*
X35712201Y8199400D01*
Y8224800D01*
X35686801D01*
X35661401Y8199400D01*
X35635999Y8224800D01*
X35610599D01*
Y8199400D01*
X35635999Y8174000D01*
X35610599Y8148600D01*
Y8123200D01*
X35326599Y7984700D02*
X35351999D01*
X35377399Y8010100D01*
X35402802Y7984700D01*
X35428201D01*
Y8010100D01*
X35402802Y8035500D01*
X35428201Y8060900D01*
Y8086300D01*
X35402802D01*
X35377399Y8060900D01*
X35351999Y8086300D01*
X35326599D01*
Y8060900D01*
X35351999Y8035500D01*
X35326599Y8010100D01*
Y7984700D01*
X35610599Y7846200D02*
X35635999D01*
X35661401Y7871600D01*
X35686801Y7846200D01*
X35712201D01*
Y7871600D01*
X35686801Y7897000D01*
X35712201Y7922400D01*
Y7947800D01*
X35686801D01*
X35661401Y7922400D01*
X35635999Y7947800D01*
X35610599D01*
Y7922400D01*
X35635999Y7897000D01*
X35610599Y7871600D01*
Y7846200D01*
X35326599Y7707700D02*
X35351999D01*
X35377399Y7733100D01*
X35402802Y7707700D01*
X35428201D01*
Y7733100D01*
X35402802Y7758500D01*
X35428201Y7783900D01*
Y7809300D01*
X35402802D01*
X35377399Y7783900D01*
X35351999Y7809300D01*
X35326599D01*
Y7783900D01*
X35351999Y7758500D01*
X35326599Y7733100D01*
Y7707700D01*
X35610599Y7569200D02*
X35635999D01*
X35661401Y7594600D01*
X35686801Y7569200D01*
X35712201D01*
Y7594600D01*
X35686801Y7620000D01*
X35712201Y7645400D01*
Y7670800D01*
X35686801D01*
X35661401Y7645400D01*
X35635999Y7670800D01*
X35610599D01*
Y7645400D01*
X35635999Y7620000D01*
X35610599Y7594600D01*
Y7569200D01*
X35326599Y7430700D02*
X35351999D01*
X35377399Y7456100D01*
X35402802Y7430700D01*
X35428201D01*
Y7456100D01*
X35402802Y7481500D01*
X35428201Y7506900D01*
Y7532300D01*
X35402802D01*
X35377399Y7506900D01*
X35351999Y7532300D01*
X35326599D01*
Y7506900D01*
X35351999Y7481500D01*
X35326599Y7456100D01*
Y7430700D01*
X35610599Y7292200D02*
X35635999D01*
X35661401Y7317600D01*
X35686801Y7292200D01*
X35712201D01*
Y7317600D01*
X35686801Y7343000D01*
X35712201Y7368400D01*
Y7393800D01*
X35686801D01*
X35661401Y7368400D01*
X35635999Y7393800D01*
X35610599D01*
Y7368400D01*
X35635999Y7343000D01*
X35610599Y7317600D01*
Y7292200D01*
X35326599Y7153700D02*
X35351999D01*
X35377399Y7179100D01*
X35402802Y7153700D01*
X35428201D01*
Y7179100D01*
X35402802Y7204500D01*
X35428201Y7229900D01*
Y7255300D01*
X35402802D01*
X35377399Y7229900D01*
X35351999Y7255300D01*
X35326599D01*
Y7229900D01*
X35351999Y7204500D01*
X35326599Y7179100D01*
Y7153700D01*
X35610599Y7015200D02*
X35635999D01*
X35661401Y7040600D01*
X35686801Y7015200D01*
X35712201D01*
Y7040600D01*
X35686801Y7066000D01*
X35712201Y7091400D01*
Y7116800D01*
X35686801D01*
X35661401Y7091400D01*
X35635999Y7116800D01*
X35610599D01*
Y7091400D01*
X35635999Y7066000D01*
X35610599Y7040600D01*
Y7015200D01*
X39557999Y6345100D02*
Y6319700D01*
X39608801D01*
Y6345100D01*
X39634201D01*
Y6395900D01*
X39608801D01*
Y6421300D01*
X39557999D01*
Y6395900D01*
X39532599D01*
Y6345100D01*
X39557999D01*
Y8844100D02*
Y8818700D01*
X39608801D01*
Y8844100D01*
X39634201D01*
Y8894900D01*
X39608801D01*
Y8920300D01*
X39557999D01*
Y8894900D01*
X39532599D01*
Y8844100D01*
X39557999D01*
X39674600Y8123200D02*
X39700000D01*
X39725400Y8148600D01*
X39750800Y8123200D01*
X39776199D01*
Y8148600D01*
X39750800Y8174000D01*
X39776199Y8199400D01*
Y8224800D01*
X39750800D01*
X39725400Y8199400D01*
X39700000Y8224800D01*
X39674600D01*
Y8199400D01*
X39700000Y8174000D01*
X39674600Y8148600D01*
Y8123200D01*
X39390601Y7984700D02*
X39416000D01*
X39441400Y8010100D01*
X39466800Y7984700D01*
X39492200D01*
Y8010100D01*
X39466800Y8035500D01*
X39492200Y8060900D01*
Y8086300D01*
X39466800D01*
X39441400Y8060900D01*
X39416000Y8086300D01*
X39390601D01*
Y8060900D01*
X39416000Y8035500D01*
X39390601Y8010100D01*
Y7984700D01*
X39674600Y7846200D02*
X39700000D01*
X39725400Y7871600D01*
X39750800Y7846200D01*
X39776199D01*
Y7871600D01*
X39750800Y7897000D01*
X39776199Y7922400D01*
Y7947800D01*
X39750800D01*
X39725400Y7922400D01*
X39700000Y7947800D01*
X39674600D01*
Y7922400D01*
X39700000Y7897000D01*
X39674600Y7871600D01*
Y7846200D01*
X39390601Y7707700D02*
X39416000D01*
X39441400Y7733100D01*
X39466800Y7707700D01*
X39492200D01*
Y7733100D01*
X39466800Y7758500D01*
X39492200Y7783900D01*
Y7809300D01*
X39466800D01*
X39441400Y7783900D01*
X39416000Y7809300D01*
X39390601D01*
Y7783900D01*
X39416000Y7758500D01*
X39390601Y7733100D01*
Y7707700D01*
X39674600Y7569200D02*
X39700000D01*
X39725400Y7594600D01*
X39750800Y7569200D01*
X39776199D01*
Y7594600D01*
X39750800Y7620000D01*
X39776199Y7645400D01*
Y7670800D01*
X39750800D01*
X39725400Y7645400D01*
X39700000Y7670800D01*
X39674600D01*
Y7645400D01*
X39700000Y7620000D01*
X39674600Y7594600D01*
Y7569200D01*
X39390601Y7430700D02*
X39416000D01*
X39441400Y7456100D01*
X39466800Y7430700D01*
X39492200D01*
Y7456100D01*
X39466800Y7481500D01*
X39492200Y7506900D01*
Y7532300D01*
X39466800D01*
X39441400Y7506900D01*
X39416000Y7532300D01*
X39390601D01*
Y7506900D01*
X39416000Y7481500D01*
X39390601Y7456100D01*
Y7430700D01*
X39674600Y7292200D02*
X39700000D01*
X39725400Y7317600D01*
X39750800Y7292200D01*
X39776199D01*
Y7317600D01*
X39750800Y7343000D01*
X39776199Y7368400D01*
Y7393800D01*
X39750800D01*
X39725400Y7368400D01*
X39700000Y7393800D01*
X39674600D01*
Y7368400D01*
X39700000Y7343000D01*
X39674600Y7317600D01*
Y7292200D01*
X39390601Y7153700D02*
X39416000D01*
X39441400Y7179100D01*
X39466800Y7153700D01*
X39492200D01*
Y7179100D01*
X39466800Y7204500D01*
X39492200Y7229900D01*
Y7255300D01*
X39466800D01*
X39441400Y7229900D01*
X39416000Y7255300D01*
X39390601D01*
Y7229900D01*
X39416000Y7204500D01*
X39390601Y7179100D01*
Y7153700D01*
X39674600Y7015200D02*
X39700000D01*
X39725400Y7040600D01*
X39750800Y7015200D01*
X39776199D01*
Y7040600D01*
X39750800Y7066000D01*
X39776199Y7091400D01*
Y7116800D01*
X39750800D01*
X39725400Y7091400D01*
X39700000Y7116800D01*
X39674600D01*
Y7091400D01*
X39700000Y7066000D01*
X39674600Y7040600D01*
Y7015200D01*
X43622000Y6345100D02*
Y6319700D01*
X43672800D01*
Y6345100D01*
X43698199D01*
Y6395900D01*
X43672800D01*
Y6421300D01*
X43622000D01*
Y6395900D01*
X43596600D01*
Y6345100D01*
X43622000D01*
Y8844100D02*
Y8818700D01*
X43672800D01*
Y8844100D01*
X43698199D01*
Y8894900D01*
X43672800D01*
Y8920300D01*
X43622000D01*
Y8894900D01*
X43596600D01*
Y8844100D01*
X43622000D01*
X43738599Y8123200D02*
X43764001D01*
X43789401Y8148600D01*
X43814801Y8123200D01*
X43840201D01*
Y8148600D01*
X43814801Y8174000D01*
X43840201Y8199400D01*
Y8224800D01*
X43814801D01*
X43789401Y8199400D01*
X43764001Y8224800D01*
X43738599D01*
Y8199400D01*
X43764001Y8174000D01*
X43738599Y8148600D01*
Y8123200D01*
X43454599Y7984700D02*
X43479999D01*
X43505399Y8010100D01*
X43530801Y7984700D01*
X43556201D01*
Y8010100D01*
X43530801Y8035500D01*
X43556201Y8060900D01*
Y8086300D01*
X43530801D01*
X43505399Y8060900D01*
X43479999Y8086300D01*
X43454599D01*
Y8060900D01*
X43479999Y8035500D01*
X43454599Y8010100D01*
Y7984700D01*
X43738599Y7846200D02*
X43764001D01*
X43789401Y7871600D01*
X43814801Y7846200D01*
X43840201D01*
Y7871600D01*
X43814801Y7897000D01*
X43840201Y7922400D01*
Y7947800D01*
X43814801D01*
X43789401Y7922400D01*
X43764001Y7947800D01*
X43738599D01*
Y7922400D01*
X43764001Y7897000D01*
X43738599Y7871600D01*
Y7846200D01*
X43454599Y7707700D02*
X43479999D01*
X43505399Y7733100D01*
X43530801Y7707700D01*
X43556201D01*
Y7733100D01*
X43530801Y7758500D01*
X43556201Y7783900D01*
Y7809300D01*
X43530801D01*
X43505399Y7783900D01*
X43479999Y7809300D01*
X43454599D01*
Y7783900D01*
X43479999Y7758500D01*
X43454599Y7733100D01*
Y7707700D01*
X43738599Y7569200D02*
X43764001D01*
X43789401Y7594600D01*
X43814801Y7569200D01*
X43840201D01*
Y7594600D01*
X43814801Y7620000D01*
X43840201Y7645400D01*
Y7670800D01*
X43814801D01*
X43789401Y7645400D01*
X43764001Y7670800D01*
X43738599D01*
Y7645400D01*
X43764001Y7620000D01*
X43738599Y7594600D01*
Y7569200D01*
X43454599Y7430700D02*
X43479999D01*
X43505399Y7456100D01*
X43530801Y7430700D01*
X43556201D01*
Y7456100D01*
X43530801Y7481500D01*
X43556201Y7506900D01*
Y7532300D01*
X43530801D01*
X43505399Y7506900D01*
X43479999Y7532300D01*
X43454599D01*
Y7506900D01*
X43479999Y7481500D01*
X43454599Y7456100D01*
Y7430700D01*
X43738599Y7292200D02*
X43764001D01*
X43789401Y7317600D01*
X43814801Y7292200D01*
X43840201D01*
Y7317600D01*
X43814801Y7343000D01*
X43840201Y7368400D01*
Y7393800D01*
X43814801D01*
X43789401Y7368400D01*
X43764001Y7393800D01*
X43738599D01*
Y7368400D01*
X43764001Y7343000D01*
X43738599Y7317600D01*
Y7292200D01*
X43454599Y7153700D02*
X43479999D01*
X43505399Y7179100D01*
X43530801Y7153700D01*
X43556201D01*
Y7179100D01*
X43530801Y7204500D01*
X43556201Y7229900D01*
Y7255300D01*
X43530801D01*
X43505399Y7229900D01*
X43479999Y7255300D01*
X43454599D01*
Y7229900D01*
X43479999Y7204500D01*
X43454599Y7179100D01*
Y7153700D01*
X43738599Y7015200D02*
X43764001D01*
X43789401Y7040600D01*
X43814801Y7015200D01*
X43840201D01*
Y7040600D01*
X43814801Y7066000D01*
X43840201Y7091400D01*
Y7116800D01*
X43814801D01*
X43789401Y7091400D01*
X43764001Y7116800D01*
X43738599D01*
Y7091400D01*
X43764001Y7066000D01*
X43738599Y7040600D01*
Y7015200D01*
X43622000Y9469300D02*
Y9443900D01*
X43672800D01*
Y9469300D01*
X43698199D01*
Y9520100D01*
X43672800D01*
Y9545500D01*
X43622000D01*
Y9520100D01*
X43596600D01*
Y9469300D01*
X43622000D01*
Y11968300D02*
Y11942900D01*
X43672800D01*
Y11968300D01*
X43698199D01*
Y12019100D01*
X43672800D01*
Y12044500D01*
X43622000D01*
Y12019100D01*
X43596600D01*
Y11968300D01*
X43622000D01*
X43738599Y11247400D02*
X43764001D01*
X43789401Y11272800D01*
X43814801Y11247400D01*
X43840201D01*
Y11272800D01*
X43814801Y11298200D01*
X43840201Y11323600D01*
Y11349000D01*
X43814801D01*
X43789401Y11323600D01*
X43764001Y11349000D01*
X43738599D01*
Y11323600D01*
X43764001Y11298200D01*
X43738599Y11272800D01*
Y11247400D01*
X43454599Y11108900D02*
X43479999D01*
X43505399Y11134300D01*
X43530801Y11108900D01*
X43556201D01*
Y11134300D01*
X43530801Y11159700D01*
X43556201Y11185100D01*
Y11210500D01*
X43530801D01*
X43505399Y11185100D01*
X43479999Y11210500D01*
X43454599D01*
Y11185100D01*
X43479999Y11159700D01*
X43454599Y11134300D01*
Y11108900D01*
X43738599Y10970400D02*
X43764001D01*
X43789401Y10995800D01*
X43814801Y10970400D01*
X43840201D01*
Y10995800D01*
X43814801Y11021200D01*
X43840201Y11046600D01*
Y11072000D01*
X43814801D01*
X43789401Y11046600D01*
X43764001Y11072000D01*
X43738599D01*
Y11046600D01*
X43764001Y11021200D01*
X43738599Y10995800D01*
Y10970400D01*
X43454599Y10831900D02*
X43479999D01*
X43505399Y10857300D01*
X43530801Y10831900D01*
X43556201D01*
Y10857300D01*
X43530801Y10882700D01*
X43556201Y10908100D01*
Y10933500D01*
X43530801D01*
X43505399Y10908100D01*
X43479999Y10933500D01*
X43454599D01*
Y10908100D01*
X43479999Y10882700D01*
X43454599Y10857300D01*
Y10831900D01*
X43738599Y10693400D02*
X43764001D01*
X43789401Y10718800D01*
X43814801Y10693400D01*
X43840201D01*
Y10718800D01*
X43814801Y10744200D01*
X43840201Y10769600D01*
Y10795000D01*
X43814801D01*
X43789401Y10769600D01*
X43764001Y10795000D01*
X43738599D01*
Y10769600D01*
X43764001Y10744200D01*
X43738599Y10718800D01*
Y10693400D01*
X43454599Y10554900D02*
X43479999D01*
X43505399Y10580300D01*
X43530801Y10554900D01*
X43556201D01*
Y10580300D01*
X43530801Y10605700D01*
X43556201Y10631100D01*
Y10656500D01*
X43530801D01*
X43505399Y10631100D01*
X43479999Y10656500D01*
X43454599D01*
Y10631100D01*
X43479999Y10605700D01*
X43454599Y10580300D01*
Y10554900D01*
X43738599Y10416400D02*
X43764001D01*
X43789401Y10441800D01*
X43814801Y10416400D01*
X43840201D01*
Y10441800D01*
X43814801Y10467200D01*
X43840201Y10492600D01*
Y10518000D01*
X43814801D01*
X43789401Y10492600D01*
X43764001Y10518000D01*
X43738599D01*
Y10492600D01*
X43764001Y10467200D01*
X43738599Y10441800D01*
Y10416400D01*
X43454599Y10277900D02*
X43479999D01*
X43505399Y10303300D01*
X43530801Y10277900D01*
X43556201D01*
Y10303300D01*
X43530801Y10328700D01*
X43556201Y10354100D01*
Y10379500D01*
X43530801D01*
X43505399Y10354100D01*
X43479999Y10379500D01*
X43454599D01*
Y10354100D01*
X43479999Y10328700D01*
X43454599Y10303300D01*
Y10277900D01*
X43738599Y10139400D02*
X43764001D01*
X43789401Y10164800D01*
X43814801Y10139400D01*
X43840201D01*
Y10164800D01*
X43814801Y10190200D01*
X43840201Y10215600D01*
Y10241000D01*
X43814801D01*
X43789401Y10215600D01*
X43764001Y10241000D01*
X43738599D01*
Y10215600D01*
X43764001Y10190200D01*
X43738599Y10164800D01*
Y10139400D01*
X39557999Y9469300D02*
Y9443900D01*
X39608801D01*
Y9469300D01*
X39634201D01*
Y9520100D01*
X39608801D01*
Y9545500D01*
X39557999D01*
Y9520100D01*
X39532599D01*
Y9469300D01*
X39557999D01*
Y11968300D02*
Y11942900D01*
X39608801D01*
Y11968300D01*
X39634201D01*
Y12019100D01*
X39608801D01*
Y12044500D01*
X39557999D01*
Y12019100D01*
X39532599D01*
Y11968300D01*
X39557999D01*
X39674600Y11247400D02*
X39700000D01*
X39725400Y11272800D01*
X39750800Y11247400D01*
X39776199D01*
Y11272800D01*
X39750800Y11298200D01*
X39776199Y11323600D01*
Y11349000D01*
X39750800D01*
X39725400Y11323600D01*
X39700000Y11349000D01*
X39674600D01*
Y11323600D01*
X39700000Y11298200D01*
X39674600Y11272800D01*
Y11247400D01*
X39390601Y11108900D02*
X39416000D01*
X39441400Y11134300D01*
X39466800Y11108900D01*
X39492200D01*
Y11134300D01*
X39466800Y11159700D01*
X39492200Y11185100D01*
Y11210500D01*
X39466800D01*
X39441400Y11185100D01*
X39416000Y11210500D01*
X39390601D01*
Y11185100D01*
X39416000Y11159700D01*
X39390601Y11134300D01*
Y11108900D01*
X39674600Y10970400D02*
X39700000D01*
X39725400Y10995800D01*
X39750800Y10970400D01*
X39776199D01*
Y10995800D01*
X39750800Y11021200D01*
X39776199Y11046600D01*
Y11072000D01*
X39750800D01*
X39725400Y11046600D01*
X39700000Y11072000D01*
X39674600D01*
Y11046600D01*
X39700000Y11021200D01*
X39674600Y10995800D01*
Y10970400D01*
X39390601Y10831900D02*
X39416000D01*
X39441400Y10857300D01*
X39466800Y10831900D01*
X39492200D01*
Y10857300D01*
X39466800Y10882700D01*
X39492200Y10908100D01*
Y10933500D01*
X39466800D01*
X39441400Y10908100D01*
X39416000Y10933500D01*
X39390601D01*
Y10908100D01*
X39416000Y10882700D01*
X39390601Y10857300D01*
Y10831900D01*
X39674600Y10693400D02*
X39700000D01*
X39725400Y10718800D01*
X39750800Y10693400D01*
X39776199D01*
Y10718800D01*
X39750800Y10744200D01*
X39776199Y10769600D01*
Y10795000D01*
X39750800D01*
X39725400Y10769600D01*
X39700000Y10795000D01*
X39674600D01*
Y10769600D01*
X39700000Y10744200D01*
X39674600Y10718800D01*
Y10693400D01*
X39390601Y10554900D02*
X39416000D01*
X39441400Y10580300D01*
X39466800Y10554900D01*
X39492200D01*
Y10580300D01*
X39466800Y10605700D01*
X39492200Y10631100D01*
Y10656500D01*
X39466800D01*
X39441400Y10631100D01*
X39416000Y10656500D01*
X39390601D01*
Y10631100D01*
X39416000Y10605700D01*
X39390601Y10580300D01*
Y10554900D01*
X39674600Y10416400D02*
X39700000D01*
X39725400Y10441800D01*
X39750800Y10416400D01*
X39776199D01*
Y10441800D01*
X39750800Y10467200D01*
X39776199Y10492600D01*
Y10518000D01*
X39750800D01*
X39725400Y10492600D01*
X39700000Y10518000D01*
X39674600D01*
Y10492600D01*
X39700000Y10467200D01*
X39674600Y10441800D01*
Y10416400D01*
X39390601Y10277900D02*
X39416000D01*
X39441400Y10303300D01*
X39466800Y10277900D01*
X39492200D01*
Y10303300D01*
X39466800Y10328700D01*
X39492200Y10354100D01*
Y10379500D01*
X39466800D01*
X39441400Y10354100D01*
X39416000Y10379500D01*
X39390601D01*
Y10354100D01*
X39416000Y10328700D01*
X39390601Y10303300D01*
Y10277900D01*
X39674600Y10139400D02*
X39700000D01*
X39725400Y10164800D01*
X39750800Y10139400D01*
X39776199D01*
Y10164800D01*
X39750800Y10190200D01*
X39776199Y10215600D01*
Y10241000D01*
X39750800D01*
X39725400Y10215600D01*
X39700000Y10241000D01*
X39674600D01*
Y10215600D01*
X39700000Y10190200D01*
X39674600Y10164800D01*
Y10139400D01*
X35494000Y9469300D02*
Y9443900D01*
X35544800D01*
Y9469300D01*
X35570200D01*
Y9520100D01*
X35544800D01*
Y9545500D01*
X35494000D01*
Y9520100D01*
X35468600D01*
Y9469300D01*
X35494000D01*
Y11968300D02*
Y11942900D01*
X35544800D01*
Y11968300D01*
X35570200D01*
Y12019100D01*
X35544800D01*
Y12044500D01*
X35494000D01*
Y12019100D01*
X35468600D01*
Y11968300D01*
X35494000D01*
X35610599Y11247400D02*
X35635999D01*
X35661401Y11272800D01*
X35686801Y11247400D01*
X35712201D01*
Y11272800D01*
X35686801Y11298200D01*
X35712201Y11323600D01*
Y11349000D01*
X35686801D01*
X35661401Y11323600D01*
X35635999Y11349000D01*
X35610599D01*
Y11323600D01*
X35635999Y11298200D01*
X35610599Y11272800D01*
Y11247400D01*
X35326599Y11108900D02*
X35351999D01*
X35377399Y11134300D01*
X35402802Y11108900D01*
X35428201D01*
Y11134300D01*
X35402802Y11159700D01*
X35428201Y11185100D01*
Y11210500D01*
X35402802D01*
X35377399Y11185100D01*
X35351999Y11210500D01*
X35326599D01*
Y11185100D01*
X35351999Y11159700D01*
X35326599Y11134300D01*
Y11108900D01*
X35610599Y10970400D02*
X35635999D01*
X35661401Y10995800D01*
X35686801Y10970400D01*
X35712201D01*
Y10995800D01*
X35686801Y11021200D01*
X35712201Y11046600D01*
Y11072000D01*
X35686801D01*
X35661401Y11046600D01*
X35635999Y11072000D01*
X35610599D01*
Y11046600D01*
X35635999Y11021200D01*
X35610599Y10995800D01*
Y10970400D01*
X35326599Y10831900D02*
X35351999D01*
X35377399Y10857300D01*
X35402802Y10831900D01*
X35428201D01*
Y10857300D01*
X35402802Y10882700D01*
X35428201Y10908100D01*
Y10933500D01*
X35402802D01*
X35377399Y10908100D01*
X35351999Y10933500D01*
X35326599D01*
Y10908100D01*
X35351999Y10882700D01*
X35326599Y10857300D01*
Y10831900D01*
X35610599Y10693400D02*
X35635999D01*
X35661401Y10718800D01*
X35686801Y10693400D01*
X35712201D01*
Y10718800D01*
X35686801Y10744200D01*
X35712201Y10769600D01*
Y10795000D01*
X35686801D01*
X35661401Y10769600D01*
X35635999Y10795000D01*
X35610599D01*
Y10769600D01*
X35635999Y10744200D01*
X35610599Y10718800D01*
Y10693400D01*
X35326599Y10554900D02*
X35351999D01*
X35377399Y10580300D01*
X35402802Y10554900D01*
X35428201D01*
Y10580300D01*
X35402802Y10605700D01*
X35428201Y10631100D01*
Y10656500D01*
X35402802D01*
X35377399Y10631100D01*
X35351999Y10656500D01*
X35326599D01*
Y10631100D01*
X35351999Y10605700D01*
X35326599Y10580300D01*
Y10554900D01*
X35610599Y10416400D02*
X35635999D01*
X35661401Y10441800D01*
X35686801Y10416400D01*
X35712201D01*
Y10441800D01*
X35686801Y10467200D01*
X35712201Y10492600D01*
Y10518000D01*
X35686801D01*
X35661401Y10492600D01*
X35635999Y10518000D01*
X35610599D01*
Y10492600D01*
X35635999Y10467200D01*
X35610599Y10441800D01*
Y10416400D01*
X35326599Y10277900D02*
X35351999D01*
X35377399Y10303300D01*
X35402802Y10277900D01*
X35428201D01*
Y10303300D01*
X35402802Y10328700D01*
X35428201Y10354100D01*
Y10379500D01*
X35402802D01*
X35377399Y10354100D01*
X35351999Y10379500D01*
X35326599D01*
Y10354100D01*
X35351999Y10328700D01*
X35326599Y10303300D01*
Y10277900D01*
X35610599Y10139400D02*
X35635999D01*
X35661401Y10164800D01*
X35686801Y10139400D01*
X35712201D01*
Y10164800D01*
X35686801Y10190200D01*
X35712201Y10215600D01*
Y10241000D01*
X35686801D01*
X35661401Y10215600D01*
X35635999Y10241000D01*
X35610599D01*
Y10215600D01*
X35635999Y10190200D01*
X35610599Y10164800D01*
Y10139400D01*
X31429999Y9469300D02*
Y9443900D01*
X31480801D01*
Y9469300D01*
X31506201D01*
Y9520100D01*
X31480801D01*
Y9545500D01*
X31429999D01*
Y9520100D01*
X31404599D01*
Y9469300D01*
X31429999D01*
Y11968300D02*
Y11942900D01*
X31480801D01*
Y11968300D01*
X31506201D01*
Y12019100D01*
X31480801D01*
Y12044500D01*
X31429999D01*
Y12019100D01*
X31404599D01*
Y11968300D01*
X31429999D01*
X31546600Y11247400D02*
X31572000D01*
X31597400Y11272800D01*
X31622800Y11247400D01*
X31648199D01*
Y11272800D01*
X31622800Y11298200D01*
X31648199Y11323600D01*
Y11349000D01*
X31622800D01*
X31597400Y11323600D01*
X31572000Y11349000D01*
X31546600D01*
Y11323600D01*
X31572000Y11298200D01*
X31546600Y11272800D01*
Y11247400D01*
X31262601Y11108900D02*
X31288000D01*
X31313400Y11134300D01*
X31338800Y11108900D01*
X31364200D01*
Y11134300D01*
X31338800Y11159700D01*
X31364200Y11185100D01*
Y11210500D01*
X31338800D01*
X31313400Y11185100D01*
X31288000Y11210500D01*
X31262601D01*
Y11185100D01*
X31288000Y11159700D01*
X31262601Y11134300D01*
Y11108900D01*
X31546600Y10970400D02*
X31572000D01*
X31597400Y10995800D01*
X31622800Y10970400D01*
X31648199D01*
Y10995800D01*
X31622800Y11021200D01*
X31648199Y11046600D01*
Y11072000D01*
X31622800D01*
X31597400Y11046600D01*
X31572000Y11072000D01*
X31546600D01*
Y11046600D01*
X31572000Y11021200D01*
X31546600Y10995800D01*
Y10970400D01*
X31262601Y10831900D02*
X31288000D01*
X31313400Y10857300D01*
X31338800Y10831900D01*
X31364200D01*
Y10857300D01*
X31338800Y10882700D01*
X31364200Y10908100D01*
Y10933500D01*
X31338800D01*
X31313400Y10908100D01*
X31288000Y10933500D01*
X31262601D01*
Y10908100D01*
X31288000Y10882700D01*
X31262601Y10857300D01*
Y10831900D01*
X31546600Y10693400D02*
X31572000D01*
X31597400Y10718800D01*
X31622800Y10693400D01*
X31648199D01*
Y10718800D01*
X31622800Y10744200D01*
X31648199Y10769600D01*
Y10795000D01*
X31622800D01*
X31597400Y10769600D01*
X31572000Y10795000D01*
X31546600D01*
Y10769600D01*
X31572000Y10744200D01*
X31546600Y10718800D01*
Y10693400D01*
X31262601Y10554900D02*
X31288000D01*
X31313400Y10580300D01*
X31338800Y10554900D01*
X31364200D01*
Y10580300D01*
X31338800Y10605700D01*
X31364200Y10631100D01*
Y10656500D01*
X31338800D01*
X31313400Y10631100D01*
X31288000Y10656500D01*
X31262601D01*
Y10631100D01*
X31288000Y10605700D01*
X31262601Y10580300D01*
Y10554900D01*
X31546600Y10416400D02*
X31572000D01*
X31597400Y10441800D01*
X31622800Y10416400D01*
X31648199D01*
Y10441800D01*
X31622800Y10467200D01*
X31648199Y10492600D01*
Y10518000D01*
X31622800D01*
X31597400Y10492600D01*
X31572000Y10518000D01*
X31546600D01*
Y10492600D01*
X31572000Y10467200D01*
X31546600Y10441800D01*
Y10416400D01*
X31262601Y10277900D02*
X31288000D01*
X31313400Y10303300D01*
X31338800Y10277900D01*
X31364200D01*
Y10303300D01*
X31338800Y10328700D01*
X31364200Y10354100D01*
Y10379500D01*
X31338800D01*
X31313400Y10354100D01*
X31288000Y10379500D01*
X31262601D01*
Y10354100D01*
X31288000Y10328700D01*
X31262601Y10303300D01*
Y10277900D01*
X31546600Y10139400D02*
X31572000D01*
X31597400Y10164800D01*
X31622800Y10139400D01*
X31648199D01*
Y10164800D01*
X31622800Y10190200D01*
X31648199Y10215600D01*
Y10241000D01*
X31622800D01*
X31597400Y10215600D01*
X31572000Y10241000D01*
X31546600D01*
Y10215600D01*
X31572000Y10190200D01*
X31546600Y10164800D01*
Y10139400D01*
X27366000Y9469300D02*
Y9443900D01*
X27416800D01*
Y9469300D01*
X27442200D01*
Y9520100D01*
X27416800D01*
Y9545500D01*
X27366000D01*
Y9520100D01*
X27340601D01*
Y9469300D01*
X27366000D01*
Y11968300D02*
Y11942900D01*
X27416800D01*
Y11968300D01*
X27442200D01*
Y12019100D01*
X27416800D01*
Y12044500D01*
X27366000D01*
Y12019100D01*
X27340601D01*
Y11968300D01*
X27366000D01*
X27482599Y11247400D02*
X27507999D01*
X27533401Y11272800D01*
X27558801Y11247400D01*
X27584201D01*
Y11272800D01*
X27558801Y11298200D01*
X27584201Y11323600D01*
Y11349000D01*
X27558801D01*
X27533401Y11323600D01*
X27507999Y11349000D01*
X27482599D01*
Y11323600D01*
X27507999Y11298200D01*
X27482599Y11272800D01*
Y11247400D01*
X27198599Y11108900D02*
X27223999D01*
X27249399Y11134300D01*
X27274799Y11108900D01*
X27300201D01*
Y11134300D01*
X27274799Y11159700D01*
X27300201Y11185100D01*
Y11210500D01*
X27274799D01*
X27249399Y11185100D01*
X27223999Y11210500D01*
X27198599D01*
Y11185100D01*
X27223999Y11159700D01*
X27198599Y11134300D01*
Y11108900D01*
X27482599Y10970400D02*
X27507999D01*
X27533401Y10995800D01*
X27558801Y10970400D01*
X27584201D01*
Y10995800D01*
X27558801Y11021200D01*
X27584201Y11046600D01*
Y11072000D01*
X27558801D01*
X27533401Y11046600D01*
X27507999Y11072000D01*
X27482599D01*
Y11046600D01*
X27507999Y11021200D01*
X27482599Y10995800D01*
Y10970400D01*
X27198599Y10831900D02*
X27223999D01*
X27249399Y10857300D01*
X27274799Y10831900D01*
X27300201D01*
Y10857300D01*
X27274799Y10882700D01*
X27300201Y10908100D01*
Y10933500D01*
X27274799D01*
X27249399Y10908100D01*
X27223999Y10933500D01*
X27198599D01*
Y10908100D01*
X27223999Y10882700D01*
X27198599Y10857300D01*
Y10831900D01*
X27482599Y10693400D02*
X27507999D01*
X27533401Y10718800D01*
X27558801Y10693400D01*
X27584201D01*
Y10718800D01*
X27558801Y10744200D01*
X27584201Y10769600D01*
Y10795000D01*
X27558801D01*
X27533401Y10769600D01*
X27507999Y10795000D01*
X27482599D01*
Y10769600D01*
X27507999Y10744200D01*
X27482599Y10718800D01*
Y10693400D01*
X27198599Y10554900D02*
X27223999D01*
X27249399Y10580300D01*
X27274799Y10554900D01*
X27300201D01*
Y10580300D01*
X27274799Y10605700D01*
X27300201Y10631100D01*
Y10656500D01*
X27274799D01*
X27249399Y10631100D01*
X27223999Y10656500D01*
X27198599D01*
Y10631100D01*
X27223999Y10605700D01*
X27198599Y10580300D01*
Y10554900D01*
X27482599Y10416400D02*
X27507999D01*
X27533401Y10441800D01*
X27558801Y10416400D01*
X27584201D01*
Y10441800D01*
X27558801Y10467200D01*
X27584201Y10492600D01*
Y10518000D01*
X27558801D01*
X27533401Y10492600D01*
X27507999Y10518000D01*
X27482599D01*
Y10492600D01*
X27507999Y10467200D01*
X27482599Y10441800D01*
Y10416400D01*
X27198599Y10277900D02*
X27223999D01*
X27249399Y10303300D01*
X27274799Y10277900D01*
X27300201D01*
Y10303300D01*
X27274799Y10328700D01*
X27300201Y10354100D01*
Y10379500D01*
X27274799D01*
X27249399Y10354100D01*
X27223999Y10379500D01*
X27198599D01*
Y10354100D01*
X27223999Y10328700D01*
X27198599Y10303300D01*
Y10277900D01*
X27482599Y10139400D02*
X27507999D01*
X27533401Y10164800D01*
X27558801Y10139400D01*
X27584201D01*
Y10164800D01*
X27558801Y10190200D01*
X27584201Y10215600D01*
Y10241000D01*
X27558801D01*
X27533401Y10215600D01*
X27507999Y10241000D01*
X27482599D01*
Y10215600D01*
X27507999Y10190200D01*
X27482599Y10164800D01*
Y10139400D01*
X23302000Y9469300D02*
Y9443900D01*
X23352800D01*
Y9469300D01*
X23378200D01*
Y9520100D01*
X23352800D01*
Y9545500D01*
X23302000D01*
Y9520100D01*
X23276601D01*
Y9469300D01*
X23302000D01*
Y11968300D02*
Y11942900D01*
X23352800D01*
Y11968300D01*
X23378200D01*
Y12019100D01*
X23352800D01*
Y12044500D01*
X23302000D01*
Y12019100D01*
X23276601D01*
Y11968300D01*
X23302000D01*
X23418600Y11247400D02*
X23444000D01*
X23469400Y11272800D01*
X23494800Y11247400D01*
X23520200D01*
Y11272800D01*
X23494800Y11298200D01*
X23520200Y11323600D01*
Y11349000D01*
X23494800D01*
X23469400Y11323600D01*
X23444000Y11349000D01*
X23418600D01*
Y11323600D01*
X23444000Y11298200D01*
X23418600Y11272800D01*
Y11247400D01*
X23134599Y11108900D02*
X23160001D01*
X23185400Y11134300D01*
X23210800Y11108900D01*
X23236200D01*
Y11134300D01*
X23210800Y11159700D01*
X23236200Y11185100D01*
Y11210500D01*
X23210800D01*
X23185400Y11185100D01*
X23160001Y11210500D01*
X23134599D01*
Y11185100D01*
X23160001Y11159700D01*
X23134599Y11134300D01*
Y11108900D01*
X23418600Y10970400D02*
X23444000D01*
X23469400Y10995800D01*
X23494800Y10970400D01*
X23520200D01*
Y10995800D01*
X23494800Y11021200D01*
X23520200Y11046600D01*
Y11072000D01*
X23494800D01*
X23469400Y11046600D01*
X23444000Y11072000D01*
X23418600D01*
Y11046600D01*
X23444000Y11021200D01*
X23418600Y10995800D01*
Y10970400D01*
X23134599Y10831900D02*
X23160001D01*
X23185400Y10857300D01*
X23210800Y10831900D01*
X23236200D01*
Y10857300D01*
X23210800Y10882700D01*
X23236200Y10908100D01*
Y10933500D01*
X23210800D01*
X23185400Y10908100D01*
X23160001Y10933500D01*
X23134599D01*
Y10908100D01*
X23160001Y10882700D01*
X23134599Y10857300D01*
Y10831900D01*
X23418600Y10693400D02*
X23444000D01*
X23469400Y10718800D01*
X23494800Y10693400D01*
X23520200D01*
Y10718800D01*
X23494800Y10744200D01*
X23520200Y10769600D01*
Y10795000D01*
X23494800D01*
X23469400Y10769600D01*
X23444000Y10795000D01*
X23418600D01*
Y10769600D01*
X23444000Y10744200D01*
X23418600Y10718800D01*
Y10693400D01*
X23134599Y10554900D02*
X23160001D01*
X23185400Y10580300D01*
X23210800Y10554900D01*
X23236200D01*
Y10580300D01*
X23210800Y10605700D01*
X23236200Y10631100D01*
Y10656500D01*
X23210800D01*
X23185400Y10631100D01*
X23160001Y10656500D01*
X23134599D01*
Y10631100D01*
X23160001Y10605700D01*
X23134599Y10580300D01*
Y10554900D01*
X23418600Y10416400D02*
X23444000D01*
X23469400Y10441800D01*
X23494800Y10416400D01*
X23520200D01*
Y10441800D01*
X23494800Y10467200D01*
X23520200Y10492600D01*
Y10518000D01*
X23494800D01*
X23469400Y10492600D01*
X23444000Y10518000D01*
X23418600D01*
Y10492600D01*
X23444000Y10467200D01*
X23418600Y10441800D01*
Y10416400D01*
X23134599Y10277900D02*
X23160001D01*
X23185400Y10303300D01*
X23210800Y10277900D01*
X23236200D01*
Y10303300D01*
X23210800Y10328700D01*
X23236200Y10354100D01*
Y10379500D01*
X23210800D01*
X23185400Y10354100D01*
X23160001Y10379500D01*
X23134599D01*
Y10354100D01*
X23160001Y10328700D01*
X23134599Y10303300D01*
Y10277900D01*
X23418600Y10139400D02*
X23444000D01*
X23469400Y10164800D01*
X23494800Y10139400D01*
X23520200D01*
Y10164800D01*
X23494800Y10190200D01*
X23520200Y10215600D01*
Y10241000D01*
X23494800D01*
X23469400Y10215600D01*
X23444000Y10241000D01*
X23418600D01*
Y10215600D01*
X23444000Y10190200D01*
X23418600Y10164800D01*
Y10139400D01*
X19238000Y9469300D02*
Y9443900D01*
X19288800D01*
Y9469300D01*
X19314200D01*
Y9520100D01*
X19288800D01*
Y9545500D01*
X19238000D01*
Y9520100D01*
X19212601D01*
Y9469300D01*
X19238000D01*
Y11968300D02*
Y11942900D01*
X19288800D01*
Y11968300D01*
X19314200D01*
Y12019100D01*
X19288800D01*
Y12044500D01*
X19238000D01*
Y12019100D01*
X19212601D01*
Y11968300D01*
X19238000D01*
X19354601Y11247400D02*
X19380000D01*
X19405400Y11272800D01*
X19430800Y11247400D01*
X19456200D01*
Y11272800D01*
X19430800Y11298200D01*
X19456200Y11323600D01*
Y11349000D01*
X19430800D01*
X19405400Y11323600D01*
X19380000Y11349000D01*
X19354601D01*
Y11323600D01*
X19380000Y11298200D01*
X19354601Y11272800D01*
Y11247400D01*
X19070599Y11108900D02*
X19096001D01*
X19121400Y11134300D01*
X19146800Y11108900D01*
X19172200D01*
Y11134300D01*
X19146800Y11159700D01*
X19172200Y11185100D01*
Y11210500D01*
X19146800D01*
X19121400Y11185100D01*
X19096001Y11210500D01*
X19070599D01*
Y11185100D01*
X19096001Y11159700D01*
X19070599Y11134300D01*
Y11108900D01*
X19354601Y10970400D02*
X19380000D01*
X19405400Y10995800D01*
X19430800Y10970400D01*
X19456200D01*
Y10995800D01*
X19430800Y11021200D01*
X19456200Y11046600D01*
Y11072000D01*
X19430800D01*
X19405400Y11046600D01*
X19380000Y11072000D01*
X19354601D01*
Y11046600D01*
X19380000Y11021200D01*
X19354601Y10995800D01*
Y10970400D01*
X19070599Y10831900D02*
X19096001D01*
X19121400Y10857300D01*
X19146800Y10831900D01*
X19172200D01*
Y10857300D01*
X19146800Y10882700D01*
X19172200Y10908100D01*
Y10933500D01*
X19146800D01*
X19121400Y10908100D01*
X19096001Y10933500D01*
X19070599D01*
Y10908100D01*
X19096001Y10882700D01*
X19070599Y10857300D01*
Y10831900D01*
X19354601Y10693400D02*
X19380000D01*
X19405400Y10718800D01*
X19430800Y10693400D01*
X19456200D01*
Y10718800D01*
X19430800Y10744200D01*
X19456200Y10769600D01*
Y10795000D01*
X19430800D01*
X19405400Y10769600D01*
X19380000Y10795000D01*
X19354601D01*
Y10769600D01*
X19380000Y10744200D01*
X19354601Y10718800D01*
Y10693400D01*
X19070599Y10554900D02*
X19096001D01*
X19121400Y10580300D01*
X19146800Y10554900D01*
X19172200D01*
Y10580300D01*
X19146800Y10605700D01*
X19172200Y10631100D01*
Y10656500D01*
X19146800D01*
X19121400Y10631100D01*
X19096001Y10656500D01*
X19070599D01*
Y10631100D01*
X19096001Y10605700D01*
X19070599Y10580300D01*
Y10554900D01*
X19354601Y10416400D02*
X19380000D01*
X19405400Y10441800D01*
X19430800Y10416400D01*
X19456200D01*
Y10441800D01*
X19430800Y10467200D01*
X19456200Y10492600D01*
Y10518000D01*
X19430800D01*
X19405400Y10492600D01*
X19380000Y10518000D01*
X19354601D01*
Y10492600D01*
X19380000Y10467200D01*
X19354601Y10441800D01*
Y10416400D01*
X19070599Y10277900D02*
X19096001D01*
X19121400Y10303300D01*
X19146800Y10277900D01*
X19172200D01*
Y10303300D01*
X19146800Y10328700D01*
X19172200Y10354100D01*
Y10379500D01*
X19146800D01*
X19121400Y10354100D01*
X19096001Y10379500D01*
X19070599D01*
Y10354100D01*
X19096001Y10328700D01*
X19070599Y10303300D01*
Y10277900D01*
X19354601Y10139400D02*
X19380000D01*
X19405400Y10164800D01*
X19430800Y10139400D01*
X19456200D01*
Y10164800D01*
X19430800Y10190200D01*
X19456200Y10215600D01*
Y10241000D01*
X19430800D01*
X19405400Y10215600D01*
X19380000Y10241000D01*
X19354601D01*
Y10215600D01*
X19380000Y10190200D01*
X19354601Y10164800D01*
Y10139400D01*
X43230801Y13131799D02*
X43281601Y13182600D01*
X43332401Y13131799D01*
X43281601Y13081000D01*
X43230801Y13131799D01*
X39166800Y13143800D02*
X39217599Y13194600D01*
X39268399Y13143800D01*
X39217599Y13092999D01*
X39166800Y13143800D01*
X35102802Y13106400D02*
X35153601Y13157201D01*
X35204401Y13106400D01*
X35153601Y13055600D01*
X35102802Y13106400D01*
X36410199Y12420600D02*
X36460999Y12471400D01*
X36511801Y12420600D01*
X36460999Y12369800D01*
X36410199Y12420600D01*
X40423401D02*
X40474200Y12471400D01*
X40525000Y12420600D01*
X40474200Y12369800D01*
X40423401Y12420600D01*
X32283401D02*
X32334201Y12471400D01*
X32385001Y12420600D01*
X32334201Y12369800D01*
X32283401Y12420600D01*
X31038800Y13081000D02*
X31089600Y13131799D01*
X31140399Y13081000D01*
X31089600Y13030200D01*
X31038800Y13081000D01*
X28270200Y12420600D02*
X28320999Y12471400D01*
X28371799Y12420600D01*
X28320999Y12369800D01*
X28270200Y12420600D01*
X26974799Y13118401D02*
X27025601Y13169200D01*
X27076401Y13118401D01*
X27025601Y13067599D01*
X26974799Y13118401D01*
X22910800Y13143800D02*
X22961600Y13194600D01*
X23012399Y13143800D01*
X22961600Y13092999D01*
X22910800Y13143800D01*
X24155400Y12408600D02*
X24206200Y12459400D01*
X24257001Y12408600D01*
X24206200Y12357800D01*
X24155400Y12408600D01*
X20116800Y12420600D02*
X20167599Y12471400D01*
X20218401Y12420600D01*
X20167599Y12369800D01*
X20116800Y12420600D01*
X18846800Y13143800D02*
X18897600Y13194600D01*
X18948399Y13143800D01*
X18897600Y13092999D01*
X18846800Y13143800D01*
X16027400Y12395200D02*
X16078200Y12446000D01*
X16128999Y12395200D01*
X16078200Y12344400D01*
X16027400Y12395200D01*
X14782800Y13092999D02*
X14833600Y13143800D01*
X14884399Y13092999D01*
X14833600Y13042200D01*
X14782800Y13092999D01*
X12204700Y12026900D02*
X12255500Y12077700D01*
X12306300Y12026900D01*
X12255500Y11976100D01*
X12204700Y12026900D01*
D220*
X46101001Y5664200D02*
G03*
X46101001Y5664200I-50800J0D01*
G01*
X45085001D02*
G03*
X45085001Y5664200I-50800J0D01*
G01*
X44069000D02*
G03*
X44069000Y5664200I-50800J0D01*
G01*
X43053000D02*
G03*
X43053000Y5664200I-50800J0D01*
G01*
X42037000D02*
G03*
X42037000Y5664200I-50800J0D01*
G01*
X41020999D02*
G03*
X41020999Y5664200I-50800J0D01*
G01*
X40004999D02*
G03*
X40004999Y5664200I-50800J0D01*
G01*
X38989001D02*
G03*
X38989001Y5664200I-50800J0D01*
G01*
X37973001D02*
G03*
X37973001Y5664200I-50800J0D01*
G01*
X36957001D02*
G03*
X36957001Y5664200I-50800J0D01*
G01*
X35941000D02*
G03*
X35941000Y5664200I-50800J0D01*
G01*
X34925000D02*
G03*
X34925000Y5664200I-50800J0D01*
G01*
X33909000D02*
G03*
X33909000Y5664200I-50800J0D01*
G01*
X32892999D02*
G03*
X32892999Y5664200I-50800J0D01*
G01*
X31876999D02*
G03*
X31876999Y5664200I-50800J0D01*
G01*
X30860999D02*
G03*
X30860999Y5664200I-50800J0D01*
G01*
X29845001D02*
G03*
X29845001Y5664200I-50800J0D01*
G01*
X28829001D02*
G03*
X28829001Y5664200I-50800J0D01*
G01*
X27813000D02*
G03*
X27813000Y5664200I-50800J0D01*
G01*
X26797000D02*
G03*
X26797000Y5664200I-50800J0D01*
G01*
X25781000D02*
G03*
X25781000Y5664200I-50800J0D01*
G01*
X24764999D02*
G03*
X24764999Y5664200I-50800J0D01*
G01*
X23749001D02*
G03*
X23749001Y5664200I-50800J0D01*
G01*
X22733000D02*
G03*
X22733000Y5664200I-50800J0D01*
G01*
X21717000D02*
G03*
X21717000Y5664200I-50800J0D01*
G01*
X20700999D02*
G03*
X20700999Y5664200I-50800J0D01*
G01*
X19685001D02*
G03*
X19685001Y5664200I-50800J0D01*
G01*
X18669000D02*
G03*
X18669000Y5664200I-50800J0D01*
G01*
X17653000D02*
G03*
X17653000Y5664200I-50800J0D01*
G01*
X16637000D02*
G03*
X16637000Y5664200I-50800J0D01*
G01*
X15621001D02*
G03*
X15621001Y5664200I-50800J0D01*
G01*
X14605000D02*
G03*
X14605000Y5664200I-50800J0D01*
G01*
X13589000D02*
G03*
X13589000Y5664200I-50800J0D01*
G01*
X12573000D02*
G03*
X12573000Y5664200I-50800J0D01*
G01*
X11557000D02*
G03*
X11557000Y5664200I-50800J0D01*
G01*
X10541000D02*
G03*
X10541000Y5664200I-50800J0D01*
G01*
X9525000D02*
G03*
X9525000Y5664200I-50800J0D01*
G01*
X8509000D02*
G03*
X8509000Y5664200I-50800J0D01*
G01*
X7493000D02*
G03*
X7493000Y5664200I-50800J0D01*
G01*
X6477000D02*
G03*
X6477000Y5664200I-50800J0D01*
G01*
X5461000D02*
G03*
X5461000Y5664200I-50800J0D01*
G01*
X46609000Y5661660D02*
G03*
X46609000Y5661660I-50800J0D01*
G01*
X45592999D02*
G03*
X45592999Y5661660I-50800J0D01*
G01*
X44576999D02*
G03*
X44576999Y5661660I-50800J0D01*
G01*
X43560999D02*
G03*
X43560999Y5661660I-50800J0D01*
G01*
X42545001D02*
G03*
X42545001Y5661660I-50800J0D01*
G01*
X41529001D02*
G03*
X41529001Y5661660I-50800J0D01*
G01*
X40513000D02*
G03*
X40513000Y5661660I-50800J0D01*
G01*
X39497000D02*
G03*
X39497000Y5661660I-50800J0D01*
G01*
X38481000D02*
G03*
X38481000Y5661660I-50800J0D01*
G01*
X37464999D02*
G03*
X37464999Y5661660I-50800J0D01*
G01*
X36448999D02*
G03*
X36448999Y5661660I-50800J0D01*
G01*
X35432999D02*
G03*
X35432999Y5661660I-50800J0D01*
G01*
X34417001D02*
G03*
X34417001Y5661660I-50800J0D01*
G01*
X33401001D02*
G03*
X33401001Y5661660I-50800J0D01*
G01*
X32385001D02*
G03*
X32385001Y5661660I-50800J0D01*
G01*
X31369000D02*
G03*
X31369000Y5661660I-50800J0D01*
G01*
X30353000D02*
G03*
X30353000Y5661660I-50800J0D01*
G01*
X29337000D02*
G03*
X29337000Y5661660I-50800J0D01*
G01*
X28320999D02*
G03*
X28320999Y5661660I-50800J0D01*
G01*
X27304999D02*
G03*
X27304999Y5661660I-50800J0D01*
G01*
X26289001D02*
G03*
X26289001Y5661660I-50800J0D01*
G01*
X25273000D02*
G03*
X25273000Y5661660I-50800J0D01*
G01*
X24257001D02*
G03*
X24257001Y5661660I-50800J0D01*
G01*
X23241000D02*
G03*
X23241000Y5661660I-50800J0D01*
G01*
X22225000D02*
G03*
X22225000Y5661660I-50800J0D01*
G01*
X21209000D02*
G03*
X21209000Y5661660I-50800J0D01*
G01*
X20192999D02*
G03*
X20192999Y5661660I-50800J0D01*
G01*
X19177000D02*
G03*
X19177000Y5661660I-50800J0D01*
G01*
X18161000D02*
G03*
X18161000Y5661660I-50800J0D01*
G01*
X17145000D02*
G03*
X17145000Y5661660I-50800J0D01*
G01*
X16128999D02*
G03*
X16128999Y5661660I-50800J0D01*
G01*
X15113000D02*
G03*
X15113000Y5661660I-50800J0D01*
G01*
X14097000D02*
G03*
X14097000Y5661660I-50800J0D01*
G01*
X13081000D02*
G03*
X13081000Y5661660I-50800J0D01*
G01*
X12065000D02*
G03*
X12065000Y5661660I-50800J0D01*
G01*
X11049000D02*
G03*
X11049000Y5661660I-50800J0D01*
G01*
X10033000D02*
G03*
X10033000Y5661660I-50800J0D01*
G01*
X9017000D02*
G03*
X9017000Y5661660I-50800J0D01*
G01*
X8001000D02*
G03*
X8001000Y5661660I-50800J0D01*
G01*
X6985000D02*
G03*
X6985000Y5661660I-50800J0D01*
G01*
X5969000D02*
G03*
X5969000Y5661660I-50800J0D01*
G01*
X4953000D02*
G03*
X4953000Y5661660I-50800J0D01*
G01*
X46101001Y17881599D02*
G03*
X46101001Y17881599I-50800J0D01*
G01*
X45085001D02*
G03*
X45085001Y17881599I-50800J0D01*
G01*
X44069000D02*
G03*
X44069000Y17881599I-50800J0D01*
G01*
X43053000D02*
G03*
X43053000Y17881599I-50800J0D01*
G01*
X42037000D02*
G03*
X42037000Y17881599I-50800J0D01*
G01*
X41020999D02*
G03*
X41020999Y17881599I-50800J0D01*
G01*
X40004999D02*
G03*
X40004999Y17881599I-50800J0D01*
G01*
X38989001D02*
G03*
X38989001Y17881599I-50800J0D01*
G01*
X37973001D02*
G03*
X37973001Y17881599I-50800J0D01*
G01*
X36957001D02*
G03*
X36957001Y17881599I-50800J0D01*
G01*
X35941000D02*
G03*
X35941000Y17881599I-50800J0D01*
G01*
X34925000D02*
G03*
X34925000Y17881599I-50800J0D01*
G01*
X33909000D02*
G03*
X33909000Y17881599I-50800J0D01*
G01*
X32892999D02*
G03*
X32892999Y17881599I-50800J0D01*
G01*
X31876999D02*
G03*
X31876999Y17881599I-50800J0D01*
G01*
X30860999D02*
G03*
X30860999Y17881599I-50800J0D01*
G01*
X29845001D02*
G03*
X29845001Y17881599I-50800J0D01*
G01*
X28829001D02*
G03*
X28829001Y17881599I-50800J0D01*
G01*
X27813000D02*
G03*
X27813000Y17881599I-50800J0D01*
G01*
X26797000D02*
G03*
X26797000Y17881599I-50800J0D01*
G01*
X25781000D02*
G03*
X25781000Y17881599I-50800J0D01*
G01*
X24764999D02*
G03*
X24764999Y17881599I-50800J0D01*
G01*
X23749001D02*
G03*
X23749001Y17881599I-50800J0D01*
G01*
X22733000D02*
G03*
X22733000Y17881599I-50800J0D01*
G01*
X21717000D02*
G03*
X21717000Y17881599I-50800J0D01*
G01*
X20700999D02*
G03*
X20700999Y17881599I-50800J0D01*
G01*
X19685001D02*
G03*
X19685001Y17881599I-50800J0D01*
G01*
X18669000D02*
G03*
X18669000Y17881599I-50800J0D01*
G01*
X17653000D02*
G03*
X17653000Y17881599I-50800J0D01*
G01*
X16637000D02*
G03*
X16637000Y17881599I-50800J0D01*
G01*
X15621001D02*
G03*
X15621001Y17881599I-50800J0D01*
G01*
X14605000D02*
G03*
X14605000Y17881599I-50800J0D01*
G01*
X13589000D02*
G03*
X13589000Y17881599I-50800J0D01*
G01*
X12573000D02*
G03*
X12573000Y17881599I-50800J0D01*
G01*
X11557000D02*
G03*
X11557000Y17881599I-50800J0D01*
G01*
X10541000D02*
G03*
X10541000Y17881599I-50800J0D01*
G01*
X9525000D02*
G03*
X9525000Y17881599I-50800J0D01*
G01*
X8509000D02*
G03*
X8509000Y17881599I-50800J0D01*
G01*
X7493000D02*
G03*
X7493000Y17881599I-50800J0D01*
G01*
X6477000D02*
G03*
X6477000Y17881599I-50800J0D01*
G01*
X5461000D02*
G03*
X5461000Y17881599I-50800J0D01*
G01*
D02*
G03*
X5461000Y17881599I-50800J0D01*
G01*
X46609000Y17884140D02*
G03*
X46609000Y17884140I-50800J0D01*
G01*
X45592999D02*
G03*
X45592999Y17884140I-50800J0D01*
G01*
X44576999D02*
G03*
X44576999Y17884140I-50800J0D01*
G01*
X43560999D02*
G03*
X43560999Y17884140I-50800J0D01*
G01*
X42545001D02*
G03*
X42545001Y17884140I-50800J0D01*
G01*
X41529001D02*
G03*
X41529001Y17884140I-50800J0D01*
G01*
X40513000D02*
G03*
X40513000Y17884140I-50800J0D01*
G01*
X39497000D02*
G03*
X39497000Y17884140I-50800J0D01*
G01*
X38481000D02*
G03*
X38481000Y17884140I-50800J0D01*
G01*
X37464999D02*
G03*
X37464999Y17884140I-50800J0D01*
G01*
X36448999D02*
G03*
X36448999Y17884140I-50800J0D01*
G01*
X35432999D02*
G03*
X35432999Y17884140I-50800J0D01*
G01*
X34417001D02*
G03*
X34417001Y17884140I-50800J0D01*
G01*
X33401001D02*
G03*
X33401001Y17884140I-50800J0D01*
G01*
X32385001D02*
G03*
X32385001Y17884140I-50800J0D01*
G01*
X31369000D02*
G03*
X31369000Y17884140I-50800J0D01*
G01*
X30353000D02*
G03*
X30353000Y17884140I-50800J0D01*
G01*
X29337000D02*
G03*
X29337000Y17884140I-50800J0D01*
G01*
X28320999D02*
G03*
X28320999Y17884140I-50800J0D01*
G01*
X27304999D02*
G03*
X27304999Y17884140I-50800J0D01*
G01*
X26289001D02*
G03*
X26289001Y17884140I-50800J0D01*
G01*
X25273000D02*
G03*
X25273000Y17884140I-50800J0D01*
G01*
X24257001D02*
G03*
X24257001Y17884140I-50800J0D01*
G01*
X23241000D02*
G03*
X23241000Y17884140I-50800J0D01*
G01*
X22225000D02*
G03*
X22225000Y17884140I-50800J0D01*
G01*
X21209000D02*
G03*
X21209000Y17884140I-50800J0D01*
G01*
X20192999D02*
G03*
X20192999Y17884140I-50800J0D01*
G01*
X19177000D02*
G03*
X19177000Y17884140I-50800J0D01*
G01*
X18161000D02*
G03*
X18161000Y17884140I-50800J0D01*
G01*
X17145000D02*
G03*
X17145000Y17884140I-50800J0D01*
G01*
X16128999D02*
G03*
X16128999Y17884140I-50800J0D01*
G01*
X15113000D02*
G03*
X15113000Y17884140I-50800J0D01*
G01*
X14097000D02*
G03*
X14097000Y17884140I-50800J0D01*
G01*
X13081000D02*
G03*
X13081000Y17884140I-50800J0D01*
G01*
X12065000D02*
G03*
X12065000Y17884140I-50800J0D01*
G01*
X11049000D02*
G03*
X11049000Y17884140I-50800J0D01*
G01*
X10033000D02*
G03*
X10033000Y17884140I-50800J0D01*
G01*
X9017000D02*
G03*
X9017000Y17884140I-50800J0D01*
G01*
X8001000D02*
G03*
X8001000Y17884140I-50800J0D01*
G01*
X6985000D02*
G03*
X6985000Y17884140I-50800J0D01*
G01*
X5969000D02*
G03*
X5969000Y17884140I-50800J0D01*
G01*
X4953000D02*
G03*
X4953000Y17884140I-50800J0D01*
G01*
%TF.MD5,5121357bff8ddae922272f3f7f198069*%
M02*
