G04 Layer_Color=8388736*
%FSLAX42Y42*%
%MOMM*%
G71*
G01*
G75*
%ADD13C,0.13*%
%ADD24C,1.73*%
%ADD25C,2.20*%
%ADD26C,1.89*%
%ADD27R,1.89X1.89*%
%ADD28C,4.96*%
%ADD29R,1.57X1.57*%
%ADD30C,1.57*%
%ADD31C,3.45*%
D13*
X4064Y7620D02*
X15418Y7620D01*
X15418Y20600D02*
X15418Y7620D01*
X4064Y20600D02*
X15418Y20600D01*
X4064Y20600D02*
X4064Y7620D01*
D24*
X8382Y18047D02*
D03*
Y17793D02*
D03*
Y17539D02*
D03*
Y17285D02*
D03*
Y17031D02*
D03*
Y16777D02*
D03*
Y16523D02*
D03*
Y16269D02*
D03*
Y16015D02*
D03*
Y15761D02*
D03*
Y15507D02*
D03*
Y15253D02*
D03*
Y14999D02*
D03*
Y14745D02*
D03*
Y14491D02*
D03*
Y14237D02*
D03*
Y13983D02*
D03*
Y13729D02*
D03*
Y13475D02*
D03*
Y13221D02*
D03*
Y12967D02*
D03*
Y12713D02*
D03*
Y12459D02*
D03*
Y12205D02*
D03*
Y11951D02*
D03*
Y11697D02*
D03*
Y11443D02*
D03*
Y11189D02*
D03*
Y10935D02*
D03*
Y10681D02*
D03*
Y10427D02*
D03*
Y10173D02*
D03*
X7874Y18047D02*
D03*
Y17793D02*
D03*
Y17539D02*
D03*
Y17285D02*
D03*
Y17031D02*
D03*
Y16777D02*
D03*
Y16523D02*
D03*
Y16269D02*
D03*
Y16015D02*
D03*
Y15761D02*
D03*
Y15507D02*
D03*
Y15253D02*
D03*
Y14999D02*
D03*
Y14745D02*
D03*
Y14491D02*
D03*
Y14237D02*
D03*
Y13983D02*
D03*
Y13729D02*
D03*
Y13475D02*
D03*
Y13221D02*
D03*
Y12967D02*
D03*
Y12713D02*
D03*
Y12459D02*
D03*
Y12205D02*
D03*
Y11951D02*
D03*
Y11697D02*
D03*
Y11443D02*
D03*
Y11189D02*
D03*
Y10935D02*
D03*
Y10681D02*
D03*
Y10427D02*
D03*
Y10173D02*
D03*
X5842Y18047D02*
D03*
Y17793D02*
D03*
Y17539D02*
D03*
Y17285D02*
D03*
Y17031D02*
D03*
Y16777D02*
D03*
Y16523D02*
D03*
Y16269D02*
D03*
Y16015D02*
D03*
Y15761D02*
D03*
Y15507D02*
D03*
Y15253D02*
D03*
Y14999D02*
D03*
Y14745D02*
D03*
Y14491D02*
D03*
Y14237D02*
D03*
Y13983D02*
D03*
Y13729D02*
D03*
Y13475D02*
D03*
Y13221D02*
D03*
Y12967D02*
D03*
Y12713D02*
D03*
Y12459D02*
D03*
Y12205D02*
D03*
Y11951D02*
D03*
Y11697D02*
D03*
Y11443D02*
D03*
Y11189D02*
D03*
Y10935D02*
D03*
Y10681D02*
D03*
Y10427D02*
D03*
Y10173D02*
D03*
X5334Y18047D02*
D03*
Y17793D02*
D03*
Y17539D02*
D03*
Y17285D02*
D03*
Y17031D02*
D03*
Y16777D02*
D03*
Y16523D02*
D03*
Y16269D02*
D03*
Y16015D02*
D03*
Y15761D02*
D03*
Y15507D02*
D03*
Y15253D02*
D03*
Y14999D02*
D03*
Y14745D02*
D03*
Y14491D02*
D03*
Y14237D02*
D03*
Y13983D02*
D03*
Y13729D02*
D03*
Y13475D02*
D03*
Y13221D02*
D03*
Y12967D02*
D03*
Y12713D02*
D03*
Y12459D02*
D03*
Y12205D02*
D03*
Y11951D02*
D03*
Y11697D02*
D03*
Y11443D02*
D03*
Y11189D02*
D03*
Y10935D02*
D03*
Y10681D02*
D03*
Y10427D02*
D03*
Y10173D02*
D03*
X12446Y18047D02*
D03*
Y17793D02*
D03*
Y17539D02*
D03*
Y17285D02*
D03*
Y17031D02*
D03*
Y16777D02*
D03*
Y16523D02*
D03*
Y16269D02*
D03*
Y16015D02*
D03*
Y15761D02*
D03*
Y15507D02*
D03*
Y15253D02*
D03*
Y14999D02*
D03*
Y14745D02*
D03*
Y14491D02*
D03*
Y14237D02*
D03*
Y13983D02*
D03*
Y13729D02*
D03*
Y13475D02*
D03*
Y13221D02*
D03*
Y12967D02*
D03*
Y12713D02*
D03*
Y12459D02*
D03*
Y12205D02*
D03*
Y11951D02*
D03*
Y11697D02*
D03*
Y11443D02*
D03*
Y11189D02*
D03*
Y10935D02*
D03*
Y10681D02*
D03*
Y10427D02*
D03*
Y10173D02*
D03*
X11938Y18047D02*
D03*
Y17793D02*
D03*
Y17539D02*
D03*
Y17285D02*
D03*
Y17031D02*
D03*
Y16777D02*
D03*
Y16523D02*
D03*
Y16269D02*
D03*
Y16015D02*
D03*
Y15761D02*
D03*
Y15507D02*
D03*
Y15253D02*
D03*
Y14999D02*
D03*
Y14745D02*
D03*
Y14491D02*
D03*
Y14237D02*
D03*
Y13983D02*
D03*
Y13729D02*
D03*
Y13475D02*
D03*
Y13221D02*
D03*
Y12967D02*
D03*
Y12713D02*
D03*
Y12459D02*
D03*
Y12205D02*
D03*
Y11951D02*
D03*
Y11697D02*
D03*
Y11443D02*
D03*
Y11189D02*
D03*
Y10935D02*
D03*
Y10681D02*
D03*
Y10427D02*
D03*
Y10173D02*
D03*
D25*
X6096Y20221D02*
D03*
X5588D02*
D03*
X6604D02*
D03*
X8128D02*
D03*
X7112D02*
D03*
X7620D02*
D03*
X9652D02*
D03*
X8636D02*
D03*
X9144D02*
D03*
X13716D02*
D03*
X13208D02*
D03*
X14224D02*
D03*
X12192D02*
D03*
X11684D02*
D03*
X12700D02*
D03*
X11176D02*
D03*
X10160D02*
D03*
X10668D02*
D03*
X14732D02*
D03*
X5588Y7998D02*
D03*
X6096D02*
D03*
X7112D02*
D03*
X6604D02*
D03*
X8636D02*
D03*
X9144D02*
D03*
X8128D02*
D03*
X7620D02*
D03*
X11684D02*
D03*
X12192D02*
D03*
X13208D02*
D03*
X12700D02*
D03*
X10668D02*
D03*
X11176D02*
D03*
X10160D02*
D03*
X9652D02*
D03*
X14732D02*
D03*
X14224D02*
D03*
X13716D02*
D03*
X4572Y20221D02*
D03*
X5080D02*
D03*
Y7998D02*
D03*
X4572D02*
D03*
D26*
X6782Y17318D02*
D03*
X7066Y17179D02*
D03*
X6782Y17041D02*
D03*
X7066Y16902D02*
D03*
X6782Y16764D02*
D03*
X7066Y16626D02*
D03*
X6782Y16487D02*
D03*
X7066Y16349D02*
D03*
X9474Y16210D02*
D03*
X9190Y16349D02*
D03*
X9474Y16487D02*
D03*
X9190Y16626D02*
D03*
X9474Y16764D02*
D03*
X9190Y16902D02*
D03*
X9474Y17041D02*
D03*
X9190Y17179D02*
D03*
X10846Y17318D02*
D03*
X11130Y17179D02*
D03*
X10846Y17041D02*
D03*
X11130Y16902D02*
D03*
X10846Y16764D02*
D03*
X11130Y16626D02*
D03*
X10846Y16487D02*
D03*
X11130Y16349D02*
D03*
X13538Y16210D02*
D03*
X13254Y16349D02*
D03*
X13538Y16487D02*
D03*
X13254Y16626D02*
D03*
X13538Y16764D02*
D03*
X13254Y16902D02*
D03*
X13538Y17041D02*
D03*
X13254Y17179D02*
D03*
D27*
X6782Y16210D02*
D03*
X9474Y17318D02*
D03*
X10846Y16210D02*
D03*
X13538Y17318D02*
D03*
D28*
X6924Y15515D02*
D03*
Y18013D02*
D03*
X9332D02*
D03*
Y15515D02*
D03*
X10988D02*
D03*
Y18013D02*
D03*
X13396D02*
D03*
Y15515D02*
D03*
D29*
X9017Y14351D02*
D03*
Y12446D02*
D03*
X13081Y14351D02*
D03*
Y12446D02*
D03*
D30*
X8763Y14224D02*
D03*
X9017Y14097D02*
D03*
X8763Y13970D02*
D03*
X9017Y13843D02*
D03*
X8763Y13716D02*
D03*
X9017Y13589D02*
D03*
X8763Y13462D02*
D03*
Y12319D02*
D03*
X9017Y12192D02*
D03*
X8763Y12065D02*
D03*
X9017Y11938D02*
D03*
X8763Y11811D02*
D03*
X9017Y11684D02*
D03*
X8763Y11557D02*
D03*
X12827Y14224D02*
D03*
X13081Y14097D02*
D03*
X12827Y13970D02*
D03*
X13081Y13843D02*
D03*
X12827Y13716D02*
D03*
X13081Y13589D02*
D03*
X12827Y13462D02*
D03*
Y12319D02*
D03*
X13081Y12192D02*
D03*
X12827Y12065D02*
D03*
X13081Y11938D02*
D03*
X12827Y11811D02*
D03*
X13081Y11684D02*
D03*
X12827Y11557D02*
D03*
D31*
X9652Y14478D02*
D03*
Y13335D02*
D03*
Y12573D02*
D03*
Y11430D02*
D03*
X13716Y14478D02*
D03*
Y13335D02*
D03*
Y12573D02*
D03*
Y11430D02*
D03*
M02*
