G04 Layer_Physical_Order=3*
G04 Layer_Color=36540*
%FSLAX42Y42*%
%MOMM*%
G71*
G01*
G75*
%ADD12C,0.25*%
%ADD13C,0.70*%
%ADD14C,1.69*%
%ADD15R,1.69X1.69*%
%ADD17C,4.00*%
%ADD18C,1.52*%
%ADD21C,0.50*%
G36*
X39568Y7964D02*
X39568Y7659D01*
X39365D01*
X38780Y8243D01*
X37968Y8243D01*
X37968Y8700D01*
X38831Y8700D01*
X39568Y7964D01*
D02*
G37*
G36*
X35504D02*
X35504Y7659D01*
X35301D01*
X34716Y8243D01*
X33904Y8243D01*
X33904Y8700D01*
X34767Y8700D01*
X35504Y7964D01*
D02*
G37*
G36*
X15190Y7972D02*
X15190Y7668D01*
X14987D01*
X14402Y8252D01*
X13590Y8252D01*
X13590Y8709D01*
X14453Y8709D01*
X15190Y7972D01*
D02*
G37*
G36*
X43632Y7964D02*
X43632Y7659D01*
X43429D01*
X42844Y8243D01*
X42032Y8243D01*
X42032Y8700D01*
X42895Y8700D01*
X43632Y7964D01*
D02*
G37*
G36*
X23312D02*
X23312Y7659D01*
X23109D01*
X22524Y8243D01*
X21712Y8243D01*
X21712Y8700D01*
X22575Y8700D01*
X23312Y7964D01*
D02*
G37*
G36*
X19273D02*
X19273Y7659D01*
X19070D01*
X18486Y8243D01*
X17673Y8243D01*
X17673Y8700D01*
X18537Y8700D01*
X19273Y7964D01*
D02*
G37*
G36*
X31440D02*
X31440Y7659D01*
X31237D01*
X30652Y8243D01*
X29840Y8243D01*
X29840Y8700D01*
X30703Y8700D01*
X31440Y7964D01*
D02*
G37*
G36*
X27376D02*
X27376Y7659D01*
X27173D01*
X26588Y8243D01*
X25776Y8243D01*
X25776Y8700D01*
X26639Y8700D01*
X27376Y7964D01*
D02*
G37*
G36*
X39263Y8802D02*
X39847Y8218D01*
Y7735D01*
X39594D01*
X39594Y7964D01*
X39594Y7964D01*
X39593Y7967D01*
Y7989D01*
X39552Y8031D01*
X39552Y8036D01*
X39549Y8064D01*
X39538Y8091D01*
X39520Y8114D01*
X39497Y8132D01*
X39470Y8143D01*
X39441Y8147D01*
X39436Y8146D01*
X38857Y8726D01*
X38835D01*
X38831Y8726D01*
X37968Y8726D01*
X37968Y9183D01*
X38882D01*
X39263Y8802D01*
D02*
G37*
G36*
X35199D02*
X35783Y8218D01*
Y7735D01*
X35530D01*
X35530Y7964D01*
X35530Y7964D01*
X35529Y7967D01*
Y7989D01*
X35488Y8031D01*
X35488Y8036D01*
X35485Y8064D01*
X35474Y8091D01*
X35456Y8114D01*
X35433Y8132D01*
X35406Y8143D01*
X35377Y8147D01*
X35372Y8146D01*
X34793Y8726D01*
X34771D01*
X34767Y8726D01*
X33904Y8726D01*
X33904Y9183D01*
X34818D01*
X35199Y8802D01*
D02*
G37*
G36*
X14885Y8811D02*
X15009Y8687D01*
X15012Y8683D01*
X15017Y8679D01*
X15469Y8226D01*
Y7744D01*
X15216D01*
X15216Y7972D01*
X15216Y7972D01*
X15215Y7976D01*
Y7998D01*
X15167Y8046D01*
X15165Y8064D01*
X15154Y8091D01*
X15136Y8114D01*
X15113Y8132D01*
X15086Y8143D01*
X15068Y8145D01*
X14479Y8734D01*
X14457D01*
X14453Y8735D01*
X13590Y8735D01*
X13590Y9192D01*
X14504D01*
X14885Y8811D01*
D02*
G37*
G36*
X43327Y8802D02*
X43911Y8218D01*
Y7735D01*
X43658D01*
X43658Y7964D01*
X43658Y7964D01*
X43657Y7967D01*
Y7989D01*
X43616Y8031D01*
X43616Y8036D01*
X43613Y8064D01*
X43602Y8091D01*
X43584Y8114D01*
X43561Y8132D01*
X43534Y8143D01*
X43505Y8147D01*
X43500Y8146D01*
X42921Y8726D01*
X42899D01*
X42895Y8726D01*
X42032Y8726D01*
X42032Y9183D01*
X42946D01*
X43327Y8802D01*
D02*
G37*
G36*
X23007D02*
X23591Y8218D01*
Y7735D01*
X23338D01*
X23338Y7964D01*
X23338Y7964D01*
X23337Y7967D01*
Y7989D01*
X23296Y8031D01*
X23296Y8036D01*
X23293Y8064D01*
X23282Y8091D01*
X23264Y8114D01*
X23241Y8132D01*
X23214Y8143D01*
X23185Y8147D01*
X23180Y8146D01*
X22601Y8726D01*
X22579D01*
X22575Y8726D01*
X21712Y8726D01*
X21712Y9183D01*
X22626D01*
X23007Y8802D01*
D02*
G37*
G36*
X18968D02*
X19039Y8732D01*
X19049Y8714D01*
X19076Y8683D01*
X19108Y8656D01*
X19125Y8645D01*
X19553Y8218D01*
Y7735D01*
X19299D01*
X19299Y7964D01*
X19299Y7964D01*
X19299Y7967D01*
Y7989D01*
X19229Y8058D01*
X19229Y8064D01*
X19218Y8091D01*
X19200Y8114D01*
X19177Y8132D01*
X19150Y8143D01*
X19144Y8144D01*
X18562Y8726D01*
X18540D01*
X18537Y8726D01*
X17673Y8726D01*
X17673Y9183D01*
X18587D01*
X18968Y8802D01*
D02*
G37*
G36*
X31135D02*
X31719Y8218D01*
Y7735D01*
X31466D01*
X31466Y7964D01*
X31466Y7964D01*
X31465Y7967D01*
Y7989D01*
X31424Y8031D01*
X31424Y8036D01*
X31421Y8064D01*
X31410Y8091D01*
X31392Y8114D01*
X31369Y8132D01*
X31342Y8143D01*
X31313Y8147D01*
X31308Y8146D01*
X30729Y8726D01*
X30707D01*
X30703Y8726D01*
X29840Y8726D01*
X29840Y9183D01*
X30754D01*
X31135Y8802D01*
D02*
G37*
G36*
X27071D02*
X27655Y8218D01*
Y7735D01*
X27402D01*
X27402Y7964D01*
X27402Y7964D01*
X27401Y7967D01*
Y7989D01*
X27360Y8031D01*
X27360Y8036D01*
X27357Y8064D01*
X27346Y8091D01*
X27328Y8114D01*
X27305Y8132D01*
X27278Y8143D01*
X27249Y8147D01*
X27244Y8146D01*
X26665Y8726D01*
X26643D01*
X26639Y8726D01*
X25776Y8726D01*
X25776Y9183D01*
X26690D01*
X27071Y8802D01*
D02*
G37*
G36*
X39288Y7355D02*
X39288Y7024D01*
X39288Y7021D01*
X39288Y6948D01*
X39593D01*
X39593Y7021D01*
X39594Y7024D01*
X39594Y7481D01*
X39898D01*
X39898Y7468D01*
Y6744D01*
X39187Y6744D01*
X39060Y6871D01*
Y7227D01*
X38577Y7710D01*
X37977Y7710D01*
X37968Y7719D01*
X37968Y7938D01*
X38705Y7938D01*
X39288Y7355D01*
D02*
G37*
G36*
X35224D02*
X35224Y7024D01*
X35224Y7021D01*
X35224Y6948D01*
X35529D01*
X35529Y7021D01*
X35530Y7024D01*
X35530Y7481D01*
X35834D01*
X35834Y7468D01*
Y6744D01*
X35123Y6744D01*
X34996Y6871D01*
Y7227D01*
X34513Y7710D01*
X33913Y7710D01*
X33904Y7719D01*
X33904Y7938D01*
X34641Y7938D01*
X35224Y7355D01*
D02*
G37*
G36*
X14910Y7364D02*
X14910Y7033D01*
X14910Y7030D01*
X14910Y6956D01*
X15215D01*
X15215Y7030D01*
X15216Y7033D01*
X15216Y7490D01*
X15520D01*
X15520Y7477D01*
Y6753D01*
X14809Y6753D01*
X14682Y6880D01*
Y7236D01*
X14199Y7718D01*
X13599Y7718D01*
X13590Y7727D01*
X13590Y7946D01*
X14327Y7946D01*
X14910Y7364D01*
D02*
G37*
G36*
X43352Y7355D02*
X43352Y7024D01*
X43352Y7021D01*
X43352Y6948D01*
X43657D01*
X43657Y7021D01*
X43658Y7024D01*
X43658Y7481D01*
X43962D01*
X43962Y7468D01*
Y6744D01*
X43251Y6744D01*
X43124Y6871D01*
Y7227D01*
X42641Y7710D01*
X42041Y7710D01*
X42032Y7719D01*
X42032Y7938D01*
X42769Y7938D01*
X43352Y7355D01*
D02*
G37*
G36*
X23032D02*
X23032Y7024D01*
X23032Y7021D01*
X23032Y6948D01*
X23337D01*
X23337Y7021D01*
X23338Y7024D01*
X23338Y7481D01*
X23642D01*
X23642Y7468D01*
Y6744D01*
X22931Y6744D01*
X22804Y6871D01*
Y7227D01*
X22321Y7710D01*
X21721Y7710D01*
X21712Y7719D01*
X21712Y7938D01*
X22449Y7938D01*
X23032Y7355D01*
D02*
G37*
G36*
X18993D02*
X18993Y7024D01*
X18994Y7021D01*
X18994Y6948D01*
X19299D01*
X19299Y7021D01*
X19299Y7024D01*
X19299Y7481D01*
X19603D01*
X19603Y7468D01*
Y6744D01*
X18892Y6744D01*
X18765Y6871D01*
Y7227D01*
X18283Y7710D01*
X17682Y7710D01*
X17673Y7719D01*
X17674Y7938D01*
X18410Y7938D01*
X18993Y7355D01*
D02*
G37*
G36*
X31160D02*
X31160Y7024D01*
X31160Y7021D01*
X31160Y6948D01*
X31465D01*
X31465Y7021D01*
X31466Y7024D01*
X31466Y7481D01*
X31770D01*
X31770Y7468D01*
Y6744D01*
X31059Y6744D01*
X30932Y6871D01*
Y7227D01*
X30449Y7710D01*
X29849Y7710D01*
X29840Y7719D01*
X29840Y7938D01*
X30577Y7938D01*
X31160Y7355D01*
D02*
G37*
G36*
X27096D02*
X27096Y7024D01*
X27096Y7021D01*
X27096Y6948D01*
X27401D01*
X27401Y7021D01*
X27402Y7024D01*
X27402Y7481D01*
X27706D01*
X27706Y7468D01*
Y6744D01*
X26995Y6744D01*
X26868Y6871D01*
Y7227D01*
X26385Y7710D01*
X25785Y7710D01*
X25776Y7719D01*
X25776Y7938D01*
X26513Y7938D01*
X27096Y7355D01*
D02*
G37*
G36*
X39314Y7633D02*
X39339Y7608D01*
X39568D01*
X39568Y7024D01*
X39314Y7024D01*
X39314Y7379D01*
X39187Y7507D01*
X38730Y7964D01*
X37968Y7964D01*
Y8192D01*
X38755Y8192D01*
X39314Y7633D01*
D02*
G37*
G36*
X35250D02*
X35275Y7608D01*
X35504D01*
X35504Y7024D01*
X35250Y7024D01*
X35250Y7379D01*
X35123Y7507D01*
X34666Y7964D01*
X33904Y7964D01*
Y8192D01*
X34691Y8192D01*
X35250Y7633D01*
D02*
G37*
G36*
X14936Y7642D02*
X14961Y7617D01*
X15190D01*
X15190Y7033D01*
X14936Y7033D01*
X14936Y7388D01*
X14809Y7515D01*
X14352Y7972D01*
X13590Y7972D01*
Y8201D01*
X14377Y8201D01*
X14936Y7642D01*
D02*
G37*
G36*
X43378Y7633D02*
X43403Y7608D01*
X43632D01*
X43632Y7024D01*
X43378Y7024D01*
X43378Y7379D01*
X43251Y7507D01*
X42794Y7964D01*
X42032Y7964D01*
Y8192D01*
X42819Y8192D01*
X43378Y7633D01*
D02*
G37*
G36*
X23058D02*
X23083Y7608D01*
X23312D01*
X23312Y7024D01*
X23058Y7024D01*
X23058Y7379D01*
X22931Y7507D01*
X22474Y7964D01*
X21712Y7964D01*
Y8192D01*
X22499Y8192D01*
X23058Y7633D01*
D02*
G37*
G36*
X19019D02*
X19045Y7608D01*
X19273D01*
X19273Y7024D01*
X19019Y7024D01*
X19019Y7379D01*
X18892Y7507D01*
X18435Y7964D01*
X17673Y7964D01*
Y8192D01*
X18460Y8192D01*
X19019Y7633D01*
D02*
G37*
G36*
X31186D02*
X31211Y7608D01*
X31440D01*
X31440Y7024D01*
X31186Y7024D01*
X31186Y7379D01*
X31059Y7507D01*
X30602Y7964D01*
X29840Y7964D01*
Y8192D01*
X30627Y8192D01*
X31186Y7633D01*
D02*
G37*
G36*
X27122D02*
X27147Y7608D01*
X27376D01*
X27376Y7024D01*
X27122Y7024D01*
X27122Y7379D01*
X26995Y7507D01*
X26538Y7964D01*
X25776Y7964D01*
Y8192D01*
X26563Y8192D01*
X27122Y7633D01*
D02*
G37*
G36*
X39567Y10859D02*
X39568Y10856D01*
Y10758D01*
X39314D01*
X39310Y10758D01*
X39288D01*
Y10736D01*
X39288Y10732D01*
Y10198D01*
X38832Y9742D01*
X37968D01*
Y10249D01*
X38857D01*
X38860Y10250D01*
X38882D01*
X39060Y10428D01*
Y10449D01*
X39061Y10453D01*
X39061Y11012D01*
X39313Y11265D01*
X39567D01*
Y10859D01*
D02*
G37*
G36*
X35503D02*
X35504Y10856D01*
Y10758D01*
X35250D01*
X35246Y10758D01*
X35224D01*
Y10736D01*
X35224Y10732D01*
Y10198D01*
X34768Y9742D01*
X33904D01*
Y10249D01*
X34793D01*
X34796Y10250D01*
X34818D01*
X34996Y10428D01*
Y10449D01*
X34997Y10453D01*
X34997Y11012D01*
X35249Y11265D01*
X35503D01*
Y10859D01*
D02*
G37*
G36*
X15189Y10868D02*
X15190Y10864D01*
Y10767D01*
X14936D01*
X14932Y10766D01*
X14910D01*
Y10745D01*
X14910Y10741D01*
Y10207D01*
X14454Y9751D01*
X13590D01*
Y10258D01*
X14479D01*
X14482Y10258D01*
X14504D01*
X14682Y10436D01*
Y10458D01*
X14683Y10462D01*
X14683Y11021D01*
X14935Y11274D01*
X15189D01*
Y10868D01*
D02*
G37*
G36*
X43631Y10859D02*
X43632Y10856D01*
Y10758D01*
X43378D01*
X43374Y10758D01*
X43352D01*
Y10736D01*
X43352Y10732D01*
Y10198D01*
X42896Y9742D01*
X42032D01*
Y10249D01*
X42921D01*
X42924Y10250D01*
X42946D01*
X43124Y10428D01*
Y10449D01*
X43125Y10453D01*
X43125Y11012D01*
X43377Y11265D01*
X43631D01*
Y10859D01*
D02*
G37*
G36*
X23311D02*
X23312Y10856D01*
Y10758D01*
X23058D01*
X23054Y10758D01*
X23032D01*
Y10736D01*
X23032Y10732D01*
Y10198D01*
X22576Y9742D01*
X21712D01*
Y10249D01*
X22601D01*
X22604Y10250D01*
X22626D01*
X22804Y10428D01*
Y10449D01*
X22805Y10453D01*
X22805Y11012D01*
X23057Y11265D01*
X23311D01*
Y10859D01*
D02*
G37*
G36*
X19273D02*
X19273Y10856D01*
Y10758D01*
X19019D01*
X19016Y10758D01*
X18994D01*
Y10736D01*
X18993Y10732D01*
Y10198D01*
X18537Y9742D01*
X17673D01*
Y10249D01*
X18562D01*
X18566Y10250D01*
X18587D01*
X18765Y10428D01*
Y10449D01*
X18766Y10453D01*
X18766Y11012D01*
X19019Y11265D01*
X19273D01*
Y10859D01*
D02*
G37*
G36*
X31439D02*
X31440Y10856D01*
Y10758D01*
X31186D01*
X31182Y10758D01*
X31160D01*
Y10736D01*
X31160Y10732D01*
Y10198D01*
X30704Y9742D01*
X29840D01*
Y10249D01*
X30729D01*
X30732Y10250D01*
X30754D01*
X30932Y10428D01*
Y10449D01*
X30933Y10453D01*
X30933Y11012D01*
X31185Y11265D01*
X31439D01*
Y10859D01*
D02*
G37*
G36*
X27375D02*
X27376Y10856D01*
Y10758D01*
X27122D01*
X27118Y10758D01*
X27096D01*
Y10736D01*
X27096Y10732D01*
Y10198D01*
X26640Y9742D01*
X25776D01*
Y10249D01*
X26665D01*
X26668Y10250D01*
X26690D01*
X26868Y10428D01*
Y10449D01*
X26869Y10453D01*
X26869Y11012D01*
X27121Y11265D01*
X27375D01*
Y10859D01*
D02*
G37*
G36*
X39847D02*
X39593D01*
Y11291D01*
X39288D01*
X39034Y11037D01*
X39034Y10453D01*
X38857Y10275D01*
X37968D01*
Y10758D01*
X38806D01*
Y11240D01*
X38831Y11266D01*
X39009Y11443D01*
X39847D01*
Y10859D01*
D02*
G37*
G36*
X35783D02*
X35529D01*
Y11291D01*
X35224D01*
X34970Y11037D01*
X34970Y10453D01*
X34793Y10275D01*
X33904D01*
Y10758D01*
X34742D01*
Y11240D01*
X34767Y11266D01*
X34945Y11443D01*
X35783D01*
Y10859D01*
D02*
G37*
G36*
X15469Y10868D02*
X15215D01*
Y11300D01*
X14910D01*
X14656Y11046D01*
X14656Y10462D01*
X14479Y10284D01*
X13590D01*
Y10766D01*
X14428D01*
Y11249D01*
X14453Y11274D01*
X14631Y11452D01*
X15469D01*
Y10868D01*
D02*
G37*
G36*
X43911Y10859D02*
X43657D01*
Y11291D01*
X43352D01*
X43098Y11037D01*
X43098Y10453D01*
X42921Y10275D01*
X42032D01*
Y10758D01*
X42870D01*
Y11240D01*
X42895Y11266D01*
X43073Y11443D01*
X43911D01*
Y10859D01*
D02*
G37*
G36*
X23591D02*
X23337D01*
Y11291D01*
X23032D01*
X22778Y11037D01*
X22778Y10453D01*
X22601Y10275D01*
X21712D01*
Y10758D01*
X22550D01*
Y11240D01*
X22575Y11266D01*
X22753Y11443D01*
X23591D01*
Y10859D01*
D02*
G37*
G36*
X19553D02*
X19299D01*
Y11291D01*
X18994D01*
X18740Y11037D01*
X18740Y10453D01*
X18562Y10275D01*
X17673D01*
Y10758D01*
X18511D01*
Y11240D01*
X18537Y11266D01*
X18714Y11443D01*
X19553D01*
Y10859D01*
D02*
G37*
G36*
X31719D02*
X31465D01*
Y11291D01*
X31160D01*
X30906Y11037D01*
X30906Y10453D01*
X30729Y10275D01*
X29840D01*
Y10758D01*
X30678D01*
Y11240D01*
X30703Y11266D01*
X30881Y11443D01*
X31719D01*
Y10859D01*
D02*
G37*
G36*
X27655D02*
X27401D01*
Y11291D01*
X27096D01*
X26842Y11037D01*
X26842Y10453D01*
X26665Y10275D01*
X25776D01*
Y10758D01*
X26614D01*
Y11240D01*
X26639Y11266D01*
X26817Y11443D01*
X27655D01*
Y10859D01*
D02*
G37*
G36*
X39847Y10072D02*
X39528Y9752D01*
X39502Y9746D01*
X39463Y9730D01*
X39428Y9709D01*
X39396Y9682D01*
X39369Y9650D01*
X39348Y9615D01*
X39332Y9576D01*
X39326Y9550D01*
X39009Y9234D01*
X37968D01*
Y9462D01*
X38907D01*
X38911Y9462D01*
X38933D01*
X39593Y10123D01*
Y10145D01*
X39594Y10148D01*
Y10580D01*
X39847D01*
Y10072D01*
D02*
G37*
G36*
X35783D02*
X35464Y9752D01*
X35438Y9746D01*
X35399Y9730D01*
X35364Y9709D01*
X35332Y9682D01*
X35305Y9650D01*
X35284Y9615D01*
X35268Y9576D01*
X35262Y9550D01*
X34945Y9234D01*
X33904D01*
Y9462D01*
X34843D01*
X34847Y9462D01*
X34869D01*
X35529Y10123D01*
Y10145D01*
X35530Y10148D01*
Y10580D01*
X35783D01*
Y10072D01*
D02*
G37*
G36*
X15469Y10081D02*
X15140Y9752D01*
X15118Y9746D01*
X15079Y9730D01*
X15044Y9709D01*
X15012Y9682D01*
X14985Y9650D01*
X14964Y9615D01*
X14948Y9576D01*
X14943Y9554D01*
X14631Y9242D01*
X13590D01*
Y9470D01*
X14529D01*
X14533Y9471D01*
X14555D01*
X15215Y10131D01*
Y10153D01*
X15216Y10157D01*
Y10589D01*
X15469D01*
Y10081D01*
D02*
G37*
G36*
X43911Y10072D02*
X43592Y9752D01*
X43566Y9746D01*
X43527Y9730D01*
X43492Y9709D01*
X43460Y9682D01*
X43433Y9650D01*
X43412Y9615D01*
X43396Y9576D01*
X43390Y9550D01*
X43073Y9234D01*
X42032D01*
Y9462D01*
X42971D01*
X42975Y9462D01*
X42997D01*
X43657Y10123D01*
Y10145D01*
X43658Y10148D01*
Y10580D01*
X43911D01*
Y10072D01*
D02*
G37*
G36*
X23591D02*
X23272Y9752D01*
X23246Y9746D01*
X23207Y9730D01*
X23172Y9709D01*
X23140Y9682D01*
X23113Y9650D01*
X23092Y9615D01*
X23076Y9576D01*
X23070Y9550D01*
X22753Y9234D01*
X21712D01*
Y9462D01*
X22651D01*
X22655Y9462D01*
X22677D01*
X23337Y10123D01*
Y10145D01*
X23338Y10148D01*
Y10580D01*
X23591D01*
Y10072D01*
D02*
G37*
G36*
X19553D02*
X19238Y9757D01*
X19222Y9756D01*
X19182Y9746D01*
X19143Y9730D01*
X19108Y9709D01*
X19076Y9682D01*
X19049Y9650D01*
X19028Y9615D01*
X19012Y9576D01*
X19002Y9536D01*
X19001Y9520D01*
X18714Y9234D01*
X17673D01*
Y9462D01*
X18613D01*
X18616Y9462D01*
X18638D01*
X19299Y10123D01*
Y10145D01*
X19299Y10148D01*
Y10580D01*
X19553D01*
Y10072D01*
D02*
G37*
G36*
X31719D02*
X31400Y9752D01*
X31374Y9746D01*
X31335Y9730D01*
X31300Y9709D01*
X31268Y9682D01*
X31241Y9650D01*
X31220Y9615D01*
X31204Y9576D01*
X31198Y9550D01*
X30881Y9234D01*
X29840D01*
Y9462D01*
X30779D01*
X30783Y9462D01*
X30805D01*
X31465Y10123D01*
Y10145D01*
X31466Y10148D01*
Y10580D01*
X31719D01*
Y10072D01*
D02*
G37*
G36*
X27655D02*
X27336Y9752D01*
X27310Y9746D01*
X27271Y9730D01*
X27236Y9709D01*
X27204Y9682D01*
X27177Y9650D01*
X27156Y9615D01*
X27140Y9576D01*
X27134Y9550D01*
X26817Y9234D01*
X25776D01*
Y9462D01*
X26715D01*
X26719Y9462D01*
X26741D01*
X27401Y10123D01*
Y10145D01*
X27402Y10148D01*
Y10580D01*
X27655D01*
Y10072D01*
D02*
G37*
G36*
X39568Y10148D02*
X38907Y9488D01*
X37968D01*
X37968Y9716D01*
X38857D01*
X39314Y10174D01*
Y10732D01*
X39568D01*
Y10148D01*
D02*
G37*
G36*
X35504D02*
X34843Y9488D01*
X33904D01*
X33904Y9716D01*
X34793D01*
X35250Y10174D01*
Y10732D01*
X35504D01*
Y10148D01*
D02*
G37*
G36*
X15190Y10157D02*
X14529Y9496D01*
X13590D01*
X13590Y9725D01*
X14479D01*
X14936Y10182D01*
Y10741D01*
X15190D01*
Y10157D01*
D02*
G37*
G36*
X43632Y10148D02*
X42971Y9488D01*
X42032D01*
X42032Y9716D01*
X42921D01*
X43378Y10174D01*
Y10732D01*
X43632D01*
Y10148D01*
D02*
G37*
G36*
X23312D02*
X22651Y9488D01*
X21712D01*
X21712Y9716D01*
X22601D01*
X23058Y10174D01*
Y10732D01*
X23312D01*
Y10148D01*
D02*
G37*
G36*
X19273D02*
X18613Y9488D01*
X17673D01*
X17673Y9716D01*
X18562D01*
X19019Y10174D01*
Y10732D01*
X19273D01*
Y10148D01*
D02*
G37*
G36*
X31440D02*
X30779Y9488D01*
X29840D01*
X29840Y9716D01*
X30729D01*
X31186Y10174D01*
Y10732D01*
X31440D01*
Y10148D01*
D02*
G37*
G36*
X27376D02*
X26715Y9488D01*
X25776D01*
X25776Y9716D01*
X26665D01*
X27122Y10174D01*
Y10732D01*
X27376D01*
Y10148D01*
D02*
G37*
D12*
X5537Y6426D02*
X5512Y6452D01*
X5461D01*
X5436Y6426D01*
Y6401D01*
X5461Y6375D01*
X5486D01*
X5461D01*
X5436Y6350D01*
Y6325D01*
X5461Y6299D01*
X5512D01*
X5537Y6325D01*
D13*
X4648Y18263D02*
X4648Y5283D01*
X4648Y18263D02*
X46812Y18263D01*
Y5283D02*
Y18263D01*
X4648Y5283D02*
X46812Y5283D01*
D14*
X19405Y10190D02*
D03*
X19121Y10329D02*
D03*
X19405Y10467D02*
D03*
X19121Y10606D02*
D03*
Y10883D02*
D03*
X19405Y11021D02*
D03*
X19121Y11160D02*
D03*
X23469Y10190D02*
D03*
X23185Y10329D02*
D03*
X23469Y10467D02*
D03*
X23185Y10606D02*
D03*
Y10883D02*
D03*
X23469Y11021D02*
D03*
X23185Y11160D02*
D03*
X27533Y10190D02*
D03*
X27249Y10329D02*
D03*
X27533Y10467D02*
D03*
X27249Y10606D02*
D03*
Y10883D02*
D03*
X27533Y11021D02*
D03*
X27249Y11160D02*
D03*
X31597Y10190D02*
D03*
X31313Y10329D02*
D03*
X31597Y10467D02*
D03*
X31313Y10606D02*
D03*
Y10883D02*
D03*
X31597Y11021D02*
D03*
X31313Y11160D02*
D03*
X35661Y10190D02*
D03*
X35377Y10329D02*
D03*
X35661Y10467D02*
D03*
X35377Y10606D02*
D03*
Y10883D02*
D03*
X35661Y11021D02*
D03*
X35377Y11160D02*
D03*
X39725Y10190D02*
D03*
X39441Y10329D02*
D03*
X39725Y10467D02*
D03*
X39441Y10606D02*
D03*
Y10883D02*
D03*
X39725Y11021D02*
D03*
X39441Y11160D02*
D03*
X43789Y10190D02*
D03*
X43505Y10329D02*
D03*
X43789Y10467D02*
D03*
X43505Y10606D02*
D03*
Y10883D02*
D03*
X43789Y11021D02*
D03*
X43505Y11160D02*
D03*
X43789Y7066D02*
D03*
X43505Y7204D02*
D03*
X43789Y7343D02*
D03*
X43505Y7482D02*
D03*
Y7758D02*
D03*
X43789Y7897D02*
D03*
X43505Y8036D02*
D03*
X39725Y7066D02*
D03*
X39441Y7204D02*
D03*
X39725Y7343D02*
D03*
X39441Y7482D02*
D03*
Y7758D02*
D03*
X39725Y7897D02*
D03*
X39441Y8036D02*
D03*
X35661Y7066D02*
D03*
X35377Y7204D02*
D03*
X35661Y7343D02*
D03*
X35377Y7482D02*
D03*
Y7758D02*
D03*
X35661Y7897D02*
D03*
X35377Y8036D02*
D03*
X31597Y7066D02*
D03*
X31313Y7204D02*
D03*
X31597Y7343D02*
D03*
X31313Y7482D02*
D03*
Y7758D02*
D03*
X31597Y7897D02*
D03*
X31313Y8036D02*
D03*
X27533Y7066D02*
D03*
X27249Y7204D02*
D03*
X27533Y7343D02*
D03*
X27249Y7482D02*
D03*
Y7758D02*
D03*
X27533Y7897D02*
D03*
X27249Y8036D02*
D03*
X23469Y7066D02*
D03*
X23185Y7204D02*
D03*
X23469Y7343D02*
D03*
X23185Y7482D02*
D03*
Y7758D02*
D03*
X23469Y7897D02*
D03*
X23185Y8036D02*
D03*
X19405Y7066D02*
D03*
X19121Y7204D02*
D03*
X19405Y7343D02*
D03*
X19121Y7482D02*
D03*
Y7758D02*
D03*
X19405Y7897D02*
D03*
X19121Y8036D02*
D03*
X15341Y10190D02*
D03*
X15057Y10329D02*
D03*
X15341Y10467D02*
D03*
X15057Y10606D02*
D03*
Y10883D02*
D03*
X15341Y11021D02*
D03*
X15057Y11160D02*
D03*
X15341Y7066D02*
D03*
X15057Y7204D02*
D03*
X15341Y7343D02*
D03*
X15057Y7482D02*
D03*
Y7758D02*
D03*
X15341Y7897D02*
D03*
X15057Y8036D02*
D03*
D15*
X19405Y11298D02*
D03*
X23469D02*
D03*
X27533D02*
D03*
X31597D02*
D03*
X35661D02*
D03*
X39725D02*
D03*
X43789D02*
D03*
Y8174D02*
D03*
X39725D02*
D03*
X35661D02*
D03*
X31597D02*
D03*
X27533D02*
D03*
X23469D02*
D03*
X19405D02*
D03*
X15341Y11298D02*
D03*
Y8174D02*
D03*
D17*
X5410Y17882D02*
D03*
D03*
D18*
X13767Y7836D02*
D03*
Y8090D02*
D03*
Y8344D02*
D03*
Y8598D02*
D03*
Y8852D02*
D03*
Y9106D02*
D03*
Y9360D02*
D03*
Y9614D02*
D03*
Y9868D02*
D03*
Y10122D02*
D03*
Y10376D02*
D03*
Y10630D02*
D03*
Y12662D02*
D03*
Y12916D02*
D03*
X14275Y7836D02*
D03*
Y8090D02*
D03*
Y8344D02*
D03*
Y8598D02*
D03*
Y8852D02*
D03*
Y9106D02*
D03*
Y9360D02*
D03*
Y9614D02*
D03*
Y9868D02*
D03*
Y10122D02*
D03*
Y10376D02*
D03*
Y10630D02*
D03*
Y11138D02*
D03*
Y11392D02*
D03*
X8204Y7836D02*
D03*
Y8090D02*
D03*
Y8598D02*
D03*
Y8852D02*
D03*
Y9614D02*
D03*
Y10122D02*
D03*
Y10376D02*
D03*
Y10884D02*
D03*
Y11138D02*
D03*
X8712Y7836D02*
D03*
Y8090D02*
D03*
Y8598D02*
D03*
Y9360D02*
D03*
Y9868D02*
D03*
Y10122D02*
D03*
Y10630D02*
D03*
Y10884D02*
D03*
Y11392D02*
D03*
Y11646D02*
D03*
X17831Y7836D02*
D03*
Y8090D02*
D03*
Y8344D02*
D03*
Y8598D02*
D03*
Y8852D02*
D03*
Y9106D02*
D03*
Y9360D02*
D03*
Y9614D02*
D03*
Y9868D02*
D03*
Y10122D02*
D03*
Y10376D02*
D03*
Y10630D02*
D03*
Y12662D02*
D03*
Y12916D02*
D03*
X18339Y7836D02*
D03*
Y8090D02*
D03*
Y8344D02*
D03*
Y8598D02*
D03*
Y8852D02*
D03*
Y9106D02*
D03*
Y9360D02*
D03*
Y9614D02*
D03*
Y9868D02*
D03*
Y10122D02*
D03*
Y10376D02*
D03*
Y10630D02*
D03*
Y11392D02*
D03*
X21895Y7836D02*
D03*
Y8090D02*
D03*
Y8344D02*
D03*
Y8598D02*
D03*
Y8852D02*
D03*
Y9106D02*
D03*
Y9360D02*
D03*
Y9614D02*
D03*
Y9868D02*
D03*
Y10122D02*
D03*
Y10376D02*
D03*
Y10630D02*
D03*
Y12662D02*
D03*
X22403Y7836D02*
D03*
Y8090D02*
D03*
Y8344D02*
D03*
Y8598D02*
D03*
Y8852D02*
D03*
Y9106D02*
D03*
Y9360D02*
D03*
Y9614D02*
D03*
Y9868D02*
D03*
Y10122D02*
D03*
Y10376D02*
D03*
Y10630D02*
D03*
Y11392D02*
D03*
X25959Y7836D02*
D03*
Y8090D02*
D03*
Y8344D02*
D03*
Y8598D02*
D03*
Y8852D02*
D03*
Y9106D02*
D03*
Y9360D02*
D03*
Y9614D02*
D03*
Y9868D02*
D03*
Y10122D02*
D03*
Y10376D02*
D03*
Y10630D02*
D03*
Y12662D02*
D03*
Y12916D02*
D03*
X26467Y7836D02*
D03*
Y8090D02*
D03*
Y8344D02*
D03*
Y8598D02*
D03*
Y8852D02*
D03*
Y9106D02*
D03*
Y9360D02*
D03*
Y9614D02*
D03*
Y9868D02*
D03*
Y10122D02*
D03*
Y10376D02*
D03*
Y10630D02*
D03*
Y11138D02*
D03*
Y11392D02*
D03*
X30023Y7836D02*
D03*
Y8090D02*
D03*
Y8344D02*
D03*
Y8598D02*
D03*
Y8852D02*
D03*
Y9106D02*
D03*
Y9360D02*
D03*
Y9614D02*
D03*
Y9868D02*
D03*
Y10122D02*
D03*
Y10376D02*
D03*
Y10630D02*
D03*
Y12662D02*
D03*
Y12916D02*
D03*
X30531Y7836D02*
D03*
Y8090D02*
D03*
Y8344D02*
D03*
Y8598D02*
D03*
Y8852D02*
D03*
Y9106D02*
D03*
Y9360D02*
D03*
Y9614D02*
D03*
Y9868D02*
D03*
Y10122D02*
D03*
Y10376D02*
D03*
Y10630D02*
D03*
Y11138D02*
D03*
Y11392D02*
D03*
X34087Y7836D02*
D03*
Y8090D02*
D03*
Y8344D02*
D03*
Y8598D02*
D03*
Y8852D02*
D03*
Y9106D02*
D03*
Y9360D02*
D03*
Y9614D02*
D03*
Y9868D02*
D03*
Y10122D02*
D03*
Y10376D02*
D03*
Y10630D02*
D03*
X34595Y7836D02*
D03*
Y8090D02*
D03*
Y8344D02*
D03*
Y8598D02*
D03*
Y8852D02*
D03*
Y9106D02*
D03*
Y9360D02*
D03*
Y9614D02*
D03*
Y9868D02*
D03*
Y10122D02*
D03*
Y10376D02*
D03*
Y10630D02*
D03*
Y11138D02*
D03*
Y11392D02*
D03*
X38151Y7836D02*
D03*
Y8090D02*
D03*
Y8344D02*
D03*
Y8598D02*
D03*
Y8852D02*
D03*
Y9106D02*
D03*
Y9360D02*
D03*
Y9614D02*
D03*
Y9868D02*
D03*
Y10122D02*
D03*
Y10376D02*
D03*
Y10630D02*
D03*
X38659Y7836D02*
D03*
Y8090D02*
D03*
Y8344D02*
D03*
Y8598D02*
D03*
Y8852D02*
D03*
Y9106D02*
D03*
Y9360D02*
D03*
Y9614D02*
D03*
Y9868D02*
D03*
Y10122D02*
D03*
Y10376D02*
D03*
Y10630D02*
D03*
X42215Y7836D02*
D03*
Y8090D02*
D03*
Y8344D02*
D03*
Y8598D02*
D03*
Y8852D02*
D03*
Y9106D02*
D03*
Y9360D02*
D03*
Y9614D02*
D03*
Y9868D02*
D03*
Y10122D02*
D03*
Y10376D02*
D03*
Y10630D02*
D03*
X42723Y7836D02*
D03*
Y8090D02*
D03*
Y8344D02*
D03*
Y8598D02*
D03*
Y8852D02*
D03*
Y9106D02*
D03*
Y9360D02*
D03*
Y9614D02*
D03*
Y9868D02*
D03*
Y10122D02*
D03*
Y10376D02*
D03*
Y10630D02*
D03*
D21*
X30023Y12916D02*
X30175Y12764D01*
Y12573D02*
Y12764D01*
X30137Y12535D02*
X30175Y12573D01*
X29858Y12535D02*
X30137D01*
X28828Y13565D02*
X29858Y12535D01*
X28828Y13565D02*
Y15760D01*
X29932Y12662D02*
X30023D01*
X25959D02*
X26137Y12840D01*
Y12979D01*
X26073Y13043D02*
X26137Y12979D01*
X25832Y13043D02*
X26073D01*
X25349Y13526D02*
X25832Y13043D01*
X25794Y12941D02*
X25933D01*
X25272Y13463D02*
X25794Y12941D01*
X25272Y13463D02*
Y14337D01*
X21755Y12802D02*
X21895Y12662D01*
X21755Y12802D02*
Y13043D01*
X18434Y16364D02*
X21755Y13043D01*
X13239Y16364D02*
X18434D01*
X20930Y12065D02*
Y13665D01*
X18307Y16288D02*
X20930Y13665D01*
X13291Y16288D02*
X18307D01*
X17831Y12662D02*
X17983Y12814D01*
Y12979D01*
X17920Y13043D02*
X17983Y12979D01*
X17691Y13043D02*
X17920D01*
X17696Y12916D02*
X17831D01*
X13640Y12535D02*
X13819D01*
X9322Y8217D02*
X13640Y12535D01*
X13767Y12916D02*
X13894Y12789D01*
Y12610D02*
Y12789D01*
X13819Y12535D02*
X13894Y12610D01*
X13640Y12642D02*
X13747D01*
X13332Y16212D02*
X14522D01*
X12727Y13195D02*
Y15607D01*
X13363Y16137D02*
X14476D01*
X12802Y13164D02*
Y15576D01*
X12727Y15607D02*
X13332Y16212D01*
X12802Y15576D02*
X13363Y16137D01*
X13394Y16061D02*
X14444D01*
X12878Y15545D02*
X13394Y16061D01*
X12878Y13132D02*
Y15545D01*
X12649Y15646D02*
X13291Y16288D01*
X12649Y13226D02*
Y15646D01*
X12574Y15698D02*
X13239Y16364D01*
X12498Y15729D02*
X13208Y16439D01*
X12422Y15760D02*
X13177Y16515D01*
X12347Y15792D02*
X13145Y16590D01*
X12268Y15820D02*
X13114Y16666D01*
X12193Y15851D02*
X13083Y16742D01*
X12117Y15883D02*
X13052Y16817D01*
X12041Y15914D02*
X13020Y16893D01*
X11966Y15945D02*
X12989Y16968D01*
X11890Y15977D02*
X12958Y17044D01*
X11815Y16008D02*
X12926Y17120D01*
X12574Y13257D02*
Y15698D01*
X12498Y13288D02*
Y15729D01*
X13208Y16439D02*
X22956D01*
X12422Y13320D02*
Y15760D01*
X13177Y16515D02*
X22988D01*
X12347Y13351D02*
Y15792D01*
X13145Y16590D02*
X23019D01*
X12268Y13379D02*
Y15820D01*
X13114Y16666D02*
X23050D01*
X12193Y13411D02*
Y15851D01*
X13083Y16742D02*
X27632D01*
X12117Y13442D02*
Y15883D01*
X13052Y16817D02*
X27664D01*
X12041Y13473D02*
Y15914D01*
X13020Y16893D02*
X27695D01*
X11966Y13505D02*
Y15945D01*
X12989Y16968D02*
X27726D01*
X11890Y13536D02*
Y15977D01*
X12958Y17044D02*
X31622D01*
X11815Y13567D02*
Y16008D01*
X12926Y17120D02*
X31654D01*
X9078Y9868D02*
X12498Y13288D01*
X9225Y10122D02*
X12422Y13320D01*
X9244Y10249D02*
X12347Y13351D01*
X9354Y10465D02*
X12268Y13379D01*
X9412Y10630D02*
X12193Y13411D01*
X9536Y10968D02*
X12041Y13473D01*
X9686Y11225D02*
X11966Y13505D01*
X9746Y11392D02*
X11890Y13536D01*
X9719Y11471D02*
X11815Y13567D01*
X14444Y16061D02*
X16002Y14503D01*
X14476Y16137D02*
X17696Y12916D01*
X14522Y16212D02*
X17691Y13043D01*
X22956Y16439D02*
X25121Y14275D01*
X22988Y16515D02*
X25196Y14306D01*
X23019Y16590D02*
X25272Y14337D01*
X23050Y16666D02*
X25349Y14367D01*
X27632Y16742D02*
X28677Y15697D01*
X27664Y16817D02*
X28752Y15729D01*
X27695Y16893D02*
X28828Y15760D01*
X27726Y16968D02*
X28903Y15791D01*
X31622Y17044D02*
X33020Y15646D01*
X31654Y17120D02*
X33096Y15678D01*
X34266Y11392D02*
X34595D01*
X34139Y11519D02*
X34266Y11392D01*
X33292Y11519D02*
X34139D01*
X33096Y11715D02*
X33292Y11519D01*
X33096Y11715D02*
Y15678D01*
X34468Y11265D02*
X34595Y11138D01*
X34034Y11265D02*
X34468D01*
X34022Y11252D02*
X34034Y11265D01*
X33452Y11252D02*
X34022D01*
X33020Y11684D02*
X33452Y11252D01*
X33020Y11684D02*
Y15646D01*
X28903Y13691D02*
X29932Y12662D01*
X28903Y13691D02*
Y15791D01*
X30404Y11519D02*
X30531Y11392D01*
X29552Y11519D02*
X30404D01*
X28752Y12319D02*
X29552Y11519D01*
X28752Y12319D02*
Y15729D01*
X8712Y11392D02*
X9746D01*
X8765Y11265D02*
X8805Y11225D01*
X8660Y11265D02*
X8765D01*
X8805Y11225D02*
X9686D01*
X8807Y10968D02*
X9536D01*
X8712Y10884D02*
X9559D01*
X8660Y10249D02*
X9244D01*
X8803Y10465D02*
X9354D01*
X8712Y10630D02*
X9412D01*
X8660Y9741D02*
X9057D01*
X8887Y11471D02*
X9719D01*
X8839Y9053D02*
Y9200D01*
X8585Y8979D02*
X8765D01*
X8915Y8788D02*
Y9169D01*
X8649Y9233D02*
X8765D01*
Y8979D02*
X8839Y9053D01*
X8268Y8852D02*
X8649Y9233D01*
X8204Y8598D02*
X8585Y8979D01*
X8533Y9614D02*
X8660Y9741D01*
X8204Y9614D02*
X8533D01*
Y10122D02*
X8660Y10249D01*
X8204Y10122D02*
X8533D01*
X8765Y10503D02*
X8803Y10465D01*
X8712Y11646D02*
X8887Y11471D01*
X8533Y11138D02*
X8660Y11265D01*
X8204Y11138D02*
X8533D01*
X8765Y11011D02*
X8807Y10968D01*
X8660Y11011D02*
X8765D01*
X8533Y10884D02*
X8660Y11011D01*
X8204Y10884D02*
X8533D01*
X30467Y11201D02*
X30531Y11138D01*
X30139Y11201D02*
X30467D01*
X30075Y11265D02*
X30139Y11201D01*
X29680Y11265D02*
X30075D01*
X28677Y12268D02*
X29680Y11265D01*
X28677Y12268D02*
Y15697D01*
X25349Y13526D02*
Y14367D01*
X8660Y10503D02*
X8765D01*
X8533Y10376D02*
X8660Y10503D01*
X8204Y10376D02*
X8533D01*
X26138Y11392D02*
X26467D01*
X26011Y11519D02*
X26138Y11392D01*
X25743Y11519D02*
X26011D01*
X25196Y12066D02*
X25743Y11519D01*
X25196Y12066D02*
Y14306D01*
X26138Y11138D02*
X26467D01*
X26011Y11265D02*
X26138Y11138D01*
X25692Y11265D02*
X26011D01*
X25121Y11836D02*
X25692Y11265D01*
X25121Y11836D02*
Y14275D01*
X22074Y11392D02*
X22403D01*
X21947Y11519D02*
X22074Y11392D01*
X21476Y11519D02*
X21947D01*
X20930Y12065D02*
X21476Y11519D01*
X8204Y8852D02*
X8268D01*
X18010Y11392D02*
X18339D01*
X17883Y11519D02*
X18010Y11392D01*
X17132Y11519D02*
X17883D01*
X16002Y12649D02*
X17132Y11519D01*
X16002Y12649D02*
Y14503D01*
X9482Y8484D02*
X13640Y12642D01*
X8777Y8484D02*
X9482D01*
X8765Y8471D02*
X8777Y8484D01*
X8585Y8471D02*
X8765D01*
X8204Y8090D02*
X8585Y8471D01*
X8660Y8217D02*
X9322D01*
X8585Y8142D02*
X8660Y8217D01*
X8585Y8074D02*
Y8142D01*
X8347Y7836D02*
X8585Y8074D01*
X8204Y7836D02*
X8347D01*
X13946Y11392D02*
X14275D01*
X13819Y11265D02*
X13946Y11392D01*
X13602Y11265D02*
X13819D01*
X13423Y11086D02*
X13602Y11265D01*
X13138Y11086D02*
X13423D01*
X10142Y8090D02*
X13138Y11086D01*
X8712Y8090D02*
X10142D01*
X14148Y11011D02*
X14275Y11138D01*
X13170Y11011D02*
X14148D01*
X9995Y7836D02*
X13170Y11011D01*
X8712Y7836D02*
X9995D01*
X8915Y9169D02*
X12878Y13132D01*
X8839Y9200D02*
X12802Y13164D01*
X8765Y9233D02*
X12727Y13195D01*
X8783Y9360D02*
X12649Y13226D01*
X9057Y9741D02*
X12574Y13257D01*
X8712Y9868D02*
X9078D01*
X8712Y10122D02*
X9225D01*
X9559Y10884D02*
X12117Y13442D01*
X8712Y9360D02*
X8783D01*
X8737Y8611D02*
X8737D01*
X8915Y8788D01*
M02*
