G04 Layer_Color=65535*
%FSLAX45Y45*%
%MOMM*%
%TF.FileFunction,Legend,Top*%
%TF.Part,Single*%
G01*
G75*
%TA.AperFunction,NonConductor*%
%ADD12C,0.25400*%
D12*
X13621986Y16776651D02*
X13571204D01*
X13596594D01*
Y16649692D01*
X13571204Y16624300D01*
X13545811D01*
X13520419Y16649692D01*
X13672771Y16624300D02*
X13723553D01*
X13698163D01*
Y16776651D01*
X13672771Y16751259D01*
X13799730Y16598907D02*
X13901297D01*
X14053648Y16751259D02*
X14028256Y16776651D01*
X13977472D01*
X13952080Y16751259D01*
Y16649692D01*
X13977472Y16624300D01*
X14028256D01*
X14053648Y16649692D01*
X14129823Y16624300D02*
X14180606D01*
X14205998Y16649692D01*
Y16700475D01*
X14180606Y16725867D01*
X14129823D01*
X14104431Y16700475D01*
Y16649692D01*
X14129823Y16624300D01*
X14256783D02*
Y16725867D01*
X14332957D01*
X14358350Y16700475D01*
Y16624300D01*
X14409132D02*
Y16725867D01*
X14485307D01*
X14510699Y16700475D01*
Y16624300D01*
X14561482D02*
X14612267D01*
X14586874D01*
Y16776651D01*
X14561482Y16751259D01*
X8483567Y6883351D02*
X8432783D01*
X8458175D01*
Y6756392D01*
X8432783Y6731000D01*
X8407392D01*
X8382000Y6756392D01*
X8635918Y6731000D02*
X8534351D01*
X8635918Y6832567D01*
Y6857959D01*
X8610526Y6883351D01*
X8559743D01*
X8534351Y6857959D01*
X17685986Y16776651D02*
X17635204D01*
X17660596D01*
Y16649692D01*
X17635204Y16624300D01*
X17609811D01*
X17584419Y16649692D01*
X17736771Y16624300D02*
X17787553D01*
X17762163D01*
Y16776651D01*
X17736771Y16751259D01*
X17863730Y16598907D02*
X17965297D01*
X18117648Y16751259D02*
X18092256Y16776651D01*
X18041472D01*
X18016080Y16751259D01*
Y16649692D01*
X18041472Y16624300D01*
X18092256D01*
X18117648Y16649692D01*
X18193823Y16624300D02*
X18244606D01*
X18269998Y16649692D01*
Y16700475D01*
X18244606Y16725867D01*
X18193823D01*
X18168431Y16700475D01*
Y16649692D01*
X18193823Y16624300D01*
X18320782D02*
Y16725867D01*
X18396957D01*
X18422350Y16700475D01*
Y16624300D01*
X18473132D02*
Y16725867D01*
X18549307D01*
X18574699Y16700475D01*
Y16624300D01*
X18727049D02*
X18625484D01*
X18727049Y16725867D01*
Y16751259D01*
X18701659Y16776651D01*
X18650874D01*
X18625484Y16751259D01*
X21749986Y16776651D02*
X21699203D01*
X21724596D01*
Y16649692D01*
X21699203Y16624300D01*
X21673811D01*
X21648421Y16649692D01*
X21800771Y16624300D02*
X21851553D01*
X21826163D01*
Y16776651D01*
X21800771Y16751259D01*
X21927730Y16598907D02*
X22029297D01*
X22181648Y16751259D02*
X22156256Y16776651D01*
X22105472D01*
X22080080Y16751259D01*
Y16649692D01*
X22105472Y16624300D01*
X22156256D01*
X22181648Y16649692D01*
X22257823Y16624300D02*
X22308606D01*
X22333998Y16649692D01*
Y16700475D01*
X22308606Y16725867D01*
X22257823D01*
X22232431Y16700475D01*
Y16649692D01*
X22257823Y16624300D01*
X22384782D02*
Y16725867D01*
X22460957D01*
X22486349Y16700475D01*
Y16624300D01*
X22537132D02*
Y16725867D01*
X22613309D01*
X22638699Y16700475D01*
Y16624300D01*
X22689484Y16751259D02*
X22714874Y16776651D01*
X22765659D01*
X22791051Y16751259D01*
Y16725867D01*
X22765659Y16700475D01*
X22740266D01*
X22765659D01*
X22791051Y16675082D01*
Y16649692D01*
X22765659Y16624300D01*
X22714874D01*
X22689484Y16649692D01*
X25813986Y16776651D02*
X25763202D01*
X25788596D01*
Y16649692D01*
X25763202Y16624300D01*
X25737811D01*
X25712421Y16649692D01*
X25864771Y16624300D02*
X25915555D01*
X25890164D01*
Y16776651D01*
X25864771Y16751259D01*
X25991730Y16598907D02*
X26093298D01*
X26245648Y16751259D02*
X26220255Y16776651D01*
X26169473D01*
X26144080Y16751259D01*
Y16649692D01*
X26169473Y16624300D01*
X26220255D01*
X26245648Y16649692D01*
X26321823Y16624300D02*
X26372607D01*
X26397998Y16649692D01*
Y16700475D01*
X26372607Y16725867D01*
X26321823D01*
X26296432Y16700475D01*
Y16649692D01*
X26321823Y16624300D01*
X26448782D02*
Y16725867D01*
X26524957D01*
X26550348Y16700475D01*
Y16624300D01*
X26601132D02*
Y16725867D01*
X26677307D01*
X26702701Y16700475D01*
Y16624300D01*
X26829660D02*
Y16776651D01*
X26753482Y16700475D01*
X26855051D01*
X29877988Y16776651D02*
X29827203D01*
X29852594D01*
Y16649692D01*
X29827203Y16624300D01*
X29801813D01*
X29776419Y16649692D01*
X29928772Y16624300D02*
X29979553D01*
X29954163D01*
Y16776651D01*
X29928772Y16751259D01*
X30055731Y16598907D02*
X30157297D01*
X30309647Y16751259D02*
X30284256Y16776651D01*
X30233472D01*
X30208081Y16751259D01*
Y16649692D01*
X30233472Y16624300D01*
X30284256D01*
X30309647Y16649692D01*
X30385822Y16624300D02*
X30436606D01*
X30462000Y16649692D01*
Y16700475D01*
X30436606Y16725867D01*
X30385822D01*
X30360431Y16700475D01*
Y16649692D01*
X30385822Y16624300D01*
X30512781D02*
Y16725867D01*
X30588956D01*
X30614349Y16700475D01*
Y16624300D01*
X30665131D02*
Y16725867D01*
X30741309D01*
X30766699Y16700475D01*
Y16624300D01*
X30919049Y16776651D02*
X30817484D01*
Y16700475D01*
X30868268Y16725867D01*
X30893658D01*
X30919049Y16700475D01*
Y16649692D01*
X30893658Y16624300D01*
X30842874D01*
X30817484Y16649692D01*
X33941986Y16776651D02*
X33891202D01*
X33916595D01*
Y16649692D01*
X33891202Y16624300D01*
X33865811D01*
X33840421Y16649692D01*
X33992770Y16624300D02*
X34043555D01*
X34018164D01*
Y16776651D01*
X33992770Y16751259D01*
X34119730Y16598907D02*
X34221298D01*
X34373648Y16751259D02*
X34348257Y16776651D01*
X34297473D01*
X34272079Y16751259D01*
Y16649692D01*
X34297473Y16624300D01*
X34348257D01*
X34373648Y16649692D01*
X34449823Y16624300D02*
X34500607D01*
X34525998Y16649692D01*
Y16700475D01*
X34500607Y16725867D01*
X34449823D01*
X34424432Y16700475D01*
Y16649692D01*
X34449823Y16624300D01*
X34576782D02*
Y16725867D01*
X34652957D01*
X34678348Y16700475D01*
Y16624300D01*
X34729132D02*
Y16725867D01*
X34805307D01*
X34830701Y16700475D01*
Y16624300D01*
X34983051Y16776651D02*
X34932266Y16751259D01*
X34881482Y16700475D01*
Y16649692D01*
X34906876Y16624300D01*
X34957660D01*
X34983051Y16649692D01*
Y16675082D01*
X34957660Y16700475D01*
X34881482D01*
X38005988Y16776651D02*
X37955203D01*
X37980594D01*
Y16649692D01*
X37955203Y16624300D01*
X37929813D01*
X37904419Y16649692D01*
X38056772Y16624300D02*
X38107553D01*
X38082162D01*
Y16776651D01*
X38056772Y16751259D01*
X38183731Y16598907D02*
X38285297D01*
X38437646Y16751259D02*
X38412256Y16776651D01*
X38361472D01*
X38336081Y16751259D01*
Y16649692D01*
X38361472Y16624300D01*
X38412256D01*
X38437646Y16649692D01*
X38513824Y16624300D02*
X38564606D01*
X38589999Y16649692D01*
Y16700475D01*
X38564606Y16725867D01*
X38513824D01*
X38488431Y16700475D01*
Y16649692D01*
X38513824Y16624300D01*
X38640781D02*
Y16725867D01*
X38716956D01*
X38742349Y16700475D01*
Y16624300D01*
X38793130D02*
Y16725867D01*
X38869308D01*
X38894699Y16700475D01*
Y16624300D01*
X38945483Y16776651D02*
X39047049D01*
Y16751259D01*
X38945483Y16649692D01*
Y16624300D01*
X42069986Y16776651D02*
X42019202D01*
X42044595D01*
Y16649692D01*
X42019202Y16624300D01*
X41993811D01*
X41968420Y16649692D01*
X42120770Y16624300D02*
X42171555D01*
X42146164D01*
Y16776651D01*
X42120770Y16751259D01*
X42247729Y16598907D02*
X42349298D01*
X42501648Y16751259D02*
X42476257Y16776651D01*
X42425473D01*
X42400079Y16751259D01*
Y16649692D01*
X42425473Y16624300D01*
X42476257D01*
X42501648Y16649692D01*
X42577823Y16624300D02*
X42628607D01*
X42653998Y16649692D01*
Y16700475D01*
X42628607Y16725867D01*
X42577823D01*
X42552432Y16700475D01*
Y16649692D01*
X42577823Y16624300D01*
X42704782D02*
Y16725867D01*
X42780957D01*
X42806348Y16700475D01*
Y16624300D01*
X42857132D02*
Y16725867D01*
X42933307D01*
X42958701Y16700475D01*
Y16624300D01*
X43009482Y16751259D02*
X43034875Y16776651D01*
X43085660D01*
X43111050Y16751259D01*
Y16725867D01*
X43085660Y16700475D01*
X43111050Y16675082D01*
Y16649692D01*
X43085660Y16624300D01*
X43034875D01*
X43009482Y16649692D01*
Y16675082D01*
X43034875Y16700475D01*
X43009482Y16725867D01*
Y16751259D01*
X43034875Y16700475D02*
X43085660D01*
X7924767Y17017960D02*
X7899375Y17043352D01*
X7848592D01*
X7823200Y17017960D01*
Y16916393D01*
X7848592Y16891000D01*
X7899375D01*
X7924767Y16916393D01*
X8000943Y16891000D02*
X8051726D01*
X8077118Y16916393D01*
Y16967175D01*
X8051726Y16992567D01*
X8000943D01*
X7975551Y16967175D01*
Y16916393D01*
X8000943Y16891000D01*
X8127901D02*
Y16992567D01*
X8204077D01*
X8229469Y16967175D01*
Y16891000D01*
X8305644Y17017960D02*
Y16992567D01*
X8280252D01*
X8331036D01*
X8305644D01*
Y16916393D01*
X8331036Y16891000D01*
X8407211Y16992567D02*
Y16891000D01*
Y16941783D01*
X8432603Y16967175D01*
X8457995Y16992567D01*
X8483386D01*
X8584954Y16891000D02*
X8635737D01*
X8661129Y16916393D01*
Y16967175D01*
X8635737Y16992567D01*
X8584954D01*
X8559562Y16967175D01*
Y16916393D01*
X8584954Y16891000D01*
X8711912D02*
X8762696D01*
X8737304D01*
Y17043352D01*
X8711912D01*
X8838871Y16891000D02*
X8889655D01*
X8864263D01*
Y17043352D01*
X8838871D01*
X9042006Y16891000D02*
X8991222D01*
X8965830Y16916393D01*
Y16967175D01*
X8991222Y16992567D01*
X9042006D01*
X9067397Y16967175D01*
Y16941783D01*
X8965830D01*
X9118181Y16992567D02*
Y16891000D01*
Y16941783D01*
X9143573Y16967175D01*
X9168964Y16992567D01*
X9194356D01*
X42214801Y16968359D02*
X42240192Y16993752D01*
X42290976D01*
X42316367Y16968359D01*
Y16866792D01*
X42290976Y16841400D01*
X42240192D01*
X42214801Y16866792D01*
Y16968359D01*
X42367151Y16942969D02*
X42468719Y16841400D01*
X42417935Y16892184D01*
X42468719Y16942969D01*
X42367151Y16841400D01*
X42519501Y16968359D02*
X42544894Y16993752D01*
X42595676D01*
X42621069Y16968359D01*
Y16866792D01*
X42595676Y16841400D01*
X42544894D01*
X42519501Y16866792D01*
Y16968359D01*
X42671851Y16866792D02*
X42697244Y16841400D01*
X42748029D01*
X42773419Y16866792D01*
Y16968359D01*
X42748029Y16993752D01*
X42697244D01*
X42671851Y16968359D01*
Y16942969D01*
X42697244Y16917577D01*
X42773419D01*
X38176199Y16968359D02*
X38201593Y16993752D01*
X38252374D01*
X38277768Y16968359D01*
Y16866792D01*
X38252374Y16841400D01*
X38201593D01*
X38176199Y16866792D01*
Y16968359D01*
X38328552Y16942969D02*
X38430118Y16841400D01*
X38379333Y16892184D01*
X38430118Y16942969D01*
X38328552Y16841400D01*
X38480902Y16968359D02*
X38506293Y16993752D01*
X38557077D01*
X38582468Y16968359D01*
Y16866792D01*
X38557077Y16841400D01*
X38506293D01*
X38480902Y16866792D01*
Y16968359D01*
X38633252D02*
X38658643Y16993752D01*
X38709427D01*
X38734818Y16968359D01*
Y16942969D01*
X38709427Y16917577D01*
X38734818Y16892184D01*
Y16866792D01*
X38709427Y16841400D01*
X38658643D01*
X38633252Y16866792D01*
Y16892184D01*
X38658643Y16917577D01*
X38633252Y16942969D01*
Y16968359D01*
X38658643Y16917577D02*
X38709427D01*
X34086801Y16993759D02*
X34112192Y17019151D01*
X34162976D01*
X34188367Y16993759D01*
Y16892192D01*
X34162976Y16866800D01*
X34112192D01*
X34086801Y16892192D01*
Y16993759D01*
X34239151Y16968369D02*
X34340717Y16866800D01*
X34289935Y16917584D01*
X34340717Y16968369D01*
X34239151Y16866800D01*
X34391501Y16993759D02*
X34416891Y17019151D01*
X34467676D01*
X34493069Y16993759D01*
Y16892192D01*
X34467676Y16866800D01*
X34416891D01*
X34391501Y16892192D01*
Y16993759D01*
X34543851Y17019151D02*
X34645419D01*
Y16993759D01*
X34543851Y16892192D01*
Y16866800D01*
X30022800Y16993759D02*
X30048193Y17019151D01*
X30098975D01*
X30124368Y16993759D01*
Y16892192D01*
X30098975Y16866800D01*
X30048193D01*
X30022800Y16892192D01*
Y16993759D01*
X30175150Y16968369D02*
X30276718Y16866800D01*
X30225934Y16917584D01*
X30276718Y16968369D01*
X30175150Y16866800D01*
X30327502Y16993759D02*
X30352893Y17019151D01*
X30403677D01*
X30429068Y16993759D01*
Y16892192D01*
X30403677Y16866800D01*
X30352893D01*
X30327502Y16892192D01*
Y16993759D01*
X30581418Y17019151D02*
X30530637Y16993759D01*
X30479852Y16942976D01*
Y16892192D01*
X30505243Y16866800D01*
X30556027D01*
X30581418Y16892192D01*
Y16917584D01*
X30556027Y16942976D01*
X30479852D01*
X25984201Y16993759D02*
X26009592Y17019151D01*
X26060376D01*
X26085767Y16993759D01*
Y16892192D01*
X26060376Y16866800D01*
X26009592D01*
X25984201Y16892192D01*
Y16993759D01*
X26136551Y16968369D02*
X26238120Y16866800D01*
X26187335Y16917584D01*
X26238120Y16968369D01*
X26136551Y16866800D01*
X26288901Y16993759D02*
X26314294Y17019151D01*
X26365076D01*
X26390469Y16993759D01*
Y16892192D01*
X26365076Y16866800D01*
X26314294D01*
X26288901Y16892192D01*
Y16993759D01*
X26542819Y17019151D02*
X26441251D01*
Y16942976D01*
X26492035Y16968369D01*
X26517429D01*
X26542819Y16942976D01*
Y16892192D01*
X26517429Y16866800D01*
X26466644D01*
X26441251Y16892192D01*
X21894800Y16993759D02*
X21920192Y17019151D01*
X21970975D01*
X21996367Y16993759D01*
Y16892192D01*
X21970975Y16866800D01*
X21920192D01*
X21894800Y16892192D01*
Y16993759D01*
X22047151Y16968369D02*
X22148718Y16866800D01*
X22097934Y16917584D01*
X22148718Y16968369D01*
X22047151Y16866800D01*
X22199501Y16993759D02*
X22224893Y17019151D01*
X22275677D01*
X22301070Y16993759D01*
Y16892192D01*
X22275677Y16866800D01*
X22224893D01*
X22199501Y16892192D01*
Y16993759D01*
X22428027Y16866800D02*
Y17019151D01*
X22351852Y16942976D01*
X22453419D01*
X17881599Y16993759D02*
X17906992Y17019151D01*
X17957774D01*
X17983167Y16993759D01*
Y16892192D01*
X17957774Y16866800D01*
X17906992D01*
X17881599Y16892192D01*
Y16993759D01*
X18033951Y16968369D02*
X18135518Y16866800D01*
X18084734Y16917584D01*
X18135518Y16968369D01*
X18033951Y16866800D01*
X18186301Y16993759D02*
X18211693Y17019151D01*
X18262477D01*
X18287869Y16993759D01*
Y16892192D01*
X18262477Y16866800D01*
X18211693D01*
X18186301Y16892192D01*
Y16993759D01*
X18338652D02*
X18364044Y17019151D01*
X18414828D01*
X18440219Y16993759D01*
Y16968369D01*
X18414828Y16942976D01*
X18389436D01*
X18414828D01*
X18440219Y16917584D01*
Y16892192D01*
X18414828Y16866800D01*
X18364044D01*
X18338652Y16892192D01*
X13792200Y17019759D02*
X13817592Y17045151D01*
X13868375D01*
X13893767Y17019759D01*
Y16918192D01*
X13868375Y16892801D01*
X13817592D01*
X13792200Y16918192D01*
Y17019759D01*
X13944551Y16994368D02*
X14046118Y16892801D01*
X13995334Y16943584D01*
X14046118Y16994368D01*
X13944551Y16892801D01*
X14096901Y17019759D02*
X14122293Y17045151D01*
X14173077D01*
X14198470Y17019759D01*
Y16918192D01*
X14173077Y16892801D01*
X14122293D01*
X14096901Y16918192D01*
Y17019759D01*
X14350819Y16892801D02*
X14249252D01*
X14350819Y16994368D01*
Y17019759D01*
X14325427Y17045151D01*
X14274644D01*
X14249252Y17019759D01*
%TF.MD5,7c40c97ec22fde7b959d4b4502b4eed2*%
M02*
