G04 Layer_Color=0*
%FSLAX45Y45*%
%MOMM*%
%TF.FileFunction,Plated,1,4,PTH,Drill*%
%TF.Part,Single*%
G01*
G75*
%TA.AperFunction,ComponentDrill*%
%ADD50C,1.09000*%
%ADD51C,3.26000*%
%TA.AperFunction,OtherDrill,Pad Free-0 (49.022mm,178.841mm)*%
%ADD52C,2.60000*%
%TA.AperFunction,ComponentDrill*%
%ADD53C,1.00000*%
%ADD54C,2.30000*%
%ADD55C,0.92000*%
%TA.AperFunction,OtherDrill,Pad Free-0 (59.182mm,178.841mm)*%
%ADD56C,2.60000*%
%TA.AperFunction,OtherDrill,Pad Free-0 (69.342mm,178.841mm)*%
%ADD57C,2.60000*%
%TA.AperFunction,OtherDrill,Pad Free-0 (79.502mm,178.841mm)*%
%ADD58C,2.60000*%
%TA.AperFunction,OtherDrill,Pad Free-0 (89.662mm,178.841mm)*%
%ADD59C,2.60000*%
%TA.AperFunction,OtherDrill,Pad Free-0 (99.822mm,178.841mm)*%
%ADD60C,2.60000*%
%TA.AperFunction,OtherDrill,Pad Free-0 (109.982mm,178.841mm)*%
%ADD61C,2.60000*%
%TA.AperFunction,OtherDrill,Pad Free-0 (120.142mm,178.841mm)*%
%ADD62C,2.60000*%
%TA.AperFunction,OtherDrill,Pad Free-0 (130.302mm,178.841mm)*%
%ADD63C,2.60000*%
%TA.AperFunction,OtherDrill,Pad Free-0 (140.462mm,178.841mm)*%
%ADD64C,2.60000*%
%TA.AperFunction,OtherDrill,Pad Free-0 (150.622mm,178.841mm)*%
%ADD65C,2.60000*%
%TA.AperFunction,OtherDrill,Pad Free-0 (160.782mm,178.841mm)*%
%ADD66C,2.60000*%
%TA.AperFunction,OtherDrill,Pad Free-0 (170.942mm,178.841mm)*%
%ADD67C,2.60000*%
%TA.AperFunction,OtherDrill,Pad Free-0 (181.102mm,178.841mm)*%
%ADD68C,2.60000*%
%TA.AperFunction,OtherDrill,Pad Free-0 (191.262mm,178.841mm)*%
%ADD69C,2.60000*%
%TA.AperFunction,OtherDrill,Pad Free-0 (201.422mm,178.841mm)*%
%ADD70C,2.60000*%
%TA.AperFunction,OtherDrill,Pad Free-0 (211.582mm,178.841mm)*%
%ADD71C,2.60000*%
%TA.AperFunction,OtherDrill,Pad Free-0 (221.742mm,178.841mm)*%
%ADD72C,2.60000*%
%TA.AperFunction,OtherDrill,Pad Free-0 (231.902mm,178.841mm)*%
%ADD73C,2.60000*%
%TA.AperFunction,OtherDrill,Pad Free-0 (242.062mm,178.841mm)*%
%ADD74C,2.60000*%
%TA.AperFunction,OtherDrill,Pad Free-0 (252.222mm,178.841mm)*%
%ADD75C,2.60000*%
%TA.AperFunction,OtherDrill,Pad Free-0 (262.382mm,178.841mm)*%
%ADD76C,2.60000*%
%TA.AperFunction,OtherDrill,Pad Free-0 (272.542mm,178.841mm)*%
%ADD77C,2.60000*%
%TA.AperFunction,OtherDrill,Pad Free-0 (282.702mm,178.841mm)*%
%ADD78C,2.60000*%
%TA.AperFunction,OtherDrill,Pad Free-0 (292.862mm,178.841mm)*%
%ADD79C,2.60000*%
%TA.AperFunction,OtherDrill,Pad Free-0 (303.022mm,178.841mm)*%
%ADD80C,2.60000*%
%TA.AperFunction,OtherDrill,Pad Free-0 (313.182mm,178.841mm)*%
%ADD81C,2.60000*%
%TA.AperFunction,OtherDrill,Pad Free-0 (323.342mm,178.841mm)*%
%ADD82C,2.60000*%
%TA.AperFunction,OtherDrill,Pad Free-0 (333.502mm,178.841mm)*%
%ADD83C,2.60000*%
%TA.AperFunction,OtherDrill,Pad Free-0 (343.662mm,178.841mm)*%
%ADD84C,2.60000*%
%TA.AperFunction,OtherDrill,Pad Free-0 (353.822mm,178.841mm)*%
%ADD85C,2.60000*%
%TA.AperFunction,OtherDrill,Pad Free-0 (363.982mm,178.841mm)*%
%ADD86C,2.60000*%
%TA.AperFunction,OtherDrill,Pad Free-0 (374.142mm,178.841mm)*%
%ADD87C,2.60000*%
%TA.AperFunction,OtherDrill,Pad Free-0 (384.302mm,178.841mm)*%
%ADD88C,2.60000*%
%TA.AperFunction,OtherDrill,Pad Free-0 (394.462mm,178.841mm)*%
%ADD89C,2.60000*%
%TA.AperFunction,OtherDrill,Pad Free-0 (404.622mm,178.841mm)*%
%ADD90C,2.60000*%
%TA.AperFunction,OtherDrill,Pad Free-0 (414.782mm,178.841mm)*%
%ADD91C,2.60000*%
%TA.AperFunction,OtherDrill,Pad Free-0 (424.942mm,178.841mm)*%
%ADD92C,2.60000*%
%TA.AperFunction,OtherDrill,Pad Free-0 (435.102mm,178.841mm)*%
%ADD93C,2.60000*%
%TA.AperFunction,OtherDrill,Pad Free-0 (445.262mm,178.841mm)*%
%ADD94C,2.60000*%
%TA.AperFunction,OtherDrill,Pad Free-0 (455.422mm,178.841mm)*%
%ADD95C,2.60000*%
%TA.AperFunction,OtherDrill,Pad Free-0 (465.582mm,178.841mm)*%
%ADD96C,2.60000*%
%TA.AperFunction,OtherDrill,Pad Free-0 (54.102mm,178.816mm)*%
%ADD97C,2.60000*%
%TA.AperFunction,OtherDrill,Pad Free-0 (64.262mm,178.816mm)*%
%ADD98C,2.60000*%
%TA.AperFunction,OtherDrill,Pad Free-0 (74.422mm,178.816mm)*%
%ADD99C,2.60000*%
%TA.AperFunction,OtherDrill,Pad Free-0 (84.582mm,178.816mm)*%
%ADD100C,2.60000*%
%TA.AperFunction,OtherDrill,Pad Free-0 (94.742mm,178.816mm)*%
%ADD101C,2.60000*%
%TA.AperFunction,OtherDrill,Pad Free-0 (104.902mm,178.816mm)*%
%ADD102C,2.60000*%
%TA.AperFunction,OtherDrill,Pad Free-0 (115.062mm,178.816mm)*%
%ADD103C,2.60000*%
%TA.AperFunction,OtherDrill,Pad Free-0 (125.222mm,178.816mm)*%
%ADD104C,2.60000*%
%TA.AperFunction,OtherDrill,Pad Free-0 (135.382mm,178.816mm)*%
%ADD105C,2.60000*%
%TA.AperFunction,OtherDrill,Pad Free-0 (145.542mm,178.816mm)*%
%ADD106C,2.60000*%
%TA.AperFunction,OtherDrill,Pad Free-0 (155.702mm,178.816mm)*%
%ADD107C,2.60000*%
%TA.AperFunction,OtherDrill,Pad Free-0 (165.862mm,178.816mm)*%
%ADD108C,2.60000*%
%TA.AperFunction,OtherDrill,Pad Free-0 (176.022mm,178.816mm)*%
%ADD109C,2.60000*%
%TA.AperFunction,OtherDrill,Pad Free-0 (186.182mm,178.816mm)*%
%ADD110C,2.60000*%
%TA.AperFunction,OtherDrill,Pad Free-0 (196.342mm,178.816mm)*%
%ADD111C,2.60000*%
%TA.AperFunction,OtherDrill,Pad Free-0 (206.502mm,178.816mm)*%
%ADD112C,2.60000*%
%TA.AperFunction,OtherDrill,Pad Free-0 (216.662mm,178.816mm)*%
%ADD113C,2.60000*%
%TA.AperFunction,OtherDrill,Pad Free-0 (226.822mm,178.816mm)*%
%ADD114C,2.60000*%
%TA.AperFunction,OtherDrill,Pad Free-0 (236.982mm,178.816mm)*%
%ADD115C,2.60000*%
%TA.AperFunction,OtherDrill,Pad Free-0 (247.142mm,178.816mm)*%
%ADD116C,2.60000*%
%TA.AperFunction,OtherDrill,Pad Free-0 (257.302mm,178.816mm)*%
%ADD117C,2.60000*%
%TA.AperFunction,OtherDrill,Pad Free-0 (267.462mm,178.816mm)*%
%ADD118C,2.60000*%
%TA.AperFunction,OtherDrill,Pad Free-0 (277.622mm,178.816mm)*%
%ADD119C,2.60000*%
%TA.AperFunction,OtherDrill,Pad Free-0 (287.782mm,178.816mm)*%
%ADD120C,2.60000*%
%TA.AperFunction,OtherDrill,Pad Free-0 (297.942mm,178.816mm)*%
%ADD121C,2.60000*%
%TA.AperFunction,OtherDrill,Pad Free-0 (308.102mm,178.816mm)*%
%ADD122C,2.60000*%
%TA.AperFunction,OtherDrill,Pad Free-0 (318.262mm,178.816mm)*%
%ADD123C,2.60000*%
%TA.AperFunction,OtherDrill,Pad Free-0 (328.422mm,178.816mm)*%
%ADD124C,2.60000*%
%TA.AperFunction,OtherDrill,Pad Free-0 (338.582mm,178.816mm)*%
%ADD125C,2.60000*%
%TA.AperFunction,OtherDrill,Pad Free-0 (348.742mm,178.816mm)*%
%ADD126C,2.60000*%
%TA.AperFunction,OtherDrill,Pad Free-0 (358.902mm,178.816mm)*%
%ADD127C,2.60000*%
%TA.AperFunction,OtherDrill,Pad Free-0 (369.062mm,178.816mm)*%
%ADD128C,2.60000*%
%TA.AperFunction,OtherDrill,Pad Free-0 (379.222mm,178.816mm)*%
%ADD129C,2.60000*%
%TA.AperFunction,OtherDrill,Pad Free-0 (389.382mm,178.816mm)*%
%ADD130C,2.60000*%
%TA.AperFunction,OtherDrill,Pad Free-0 (399.542mm,178.816mm)*%
%ADD131C,2.60000*%
%TA.AperFunction,OtherDrill,Pad Free-0 (409.702mm,178.816mm)*%
%ADD132C,2.60000*%
%TA.AperFunction,OtherDrill,Pad Free-0 (419.862mm,178.816mm)*%
%ADD133C,2.60000*%
%TA.AperFunction,OtherDrill,Pad Free-0 (430.022mm,178.816mm)*%
%ADD134C,2.60000*%
%TA.AperFunction,OtherDrill,Pad Free-0 (440.182mm,178.816mm)*%
%ADD135C,2.60000*%
%TA.AperFunction,OtherDrill,Pad Free-0 (450.342mm,178.816mm)*%
%ADD136C,2.60000*%
%TA.AperFunction,OtherDrill,Pad Free-0 (460.502mm,178.816mm)*%
%ADD137C,2.60000*%
%TA.AperFunction,OtherDrill,Pad Free-0 (49.022mm,56.617mm)*%
%ADD138C,2.60000*%
%TA.AperFunction,OtherDrill,Pad Free-0 (59.182mm,56.617mm)*%
%ADD139C,2.60000*%
%TA.AperFunction,OtherDrill,Pad Free-0 (69.342mm,56.617mm)*%
%ADD140C,2.60000*%
%TA.AperFunction,OtherDrill,Pad Free-0 (79.502mm,56.617mm)*%
%ADD141C,2.60000*%
%TA.AperFunction,OtherDrill,Pad Free-0 (89.662mm,56.617mm)*%
%ADD142C,2.60000*%
%TA.AperFunction,OtherDrill,Pad Free-0 (99.822mm,56.617mm)*%
%ADD143C,2.60000*%
%TA.AperFunction,OtherDrill,Pad Free-0 (109.982mm,56.617mm)*%
%ADD144C,2.60000*%
%TA.AperFunction,OtherDrill,Pad Free-0 (120.142mm,56.617mm)*%
%ADD145C,2.60000*%
%TA.AperFunction,OtherDrill,Pad Free-0 (130.302mm,56.617mm)*%
%ADD146C,2.60000*%
%TA.AperFunction,OtherDrill,Pad Free-0 (140.462mm,56.617mm)*%
%ADD147C,2.60000*%
%TA.AperFunction,OtherDrill,Pad Free-0 (150.622mm,56.617mm)*%
%ADD148C,2.60000*%
%TA.AperFunction,OtherDrill,Pad Free-0 (160.782mm,56.617mm)*%
%ADD149C,2.60000*%
%TA.AperFunction,OtherDrill,Pad Free-0 (170.942mm,56.617mm)*%
%ADD150C,2.60000*%
%TA.AperFunction,OtherDrill,Pad Free-0 (181.102mm,56.617mm)*%
%ADD151C,2.60000*%
%TA.AperFunction,OtherDrill,Pad Free-0 (191.262mm,56.617mm)*%
%ADD152C,2.60000*%
%TA.AperFunction,OtherDrill,Pad Free-0 (201.422mm,56.617mm)*%
%ADD153C,2.60000*%
%TA.AperFunction,OtherDrill,Pad Free-0 (211.582mm,56.617mm)*%
%ADD154C,2.60000*%
%TA.AperFunction,OtherDrill,Pad Free-0 (221.742mm,56.617mm)*%
%ADD155C,2.60000*%
%TA.AperFunction,OtherDrill,Pad Free-0 (231.902mm,56.617mm)*%
%ADD156C,2.60000*%
%TA.AperFunction,OtherDrill,Pad Free-0 (242.062mm,56.617mm)*%
%ADD157C,2.60000*%
%TA.AperFunction,OtherDrill,Pad Free-0 (252.222mm,56.617mm)*%
%ADD158C,2.60000*%
%TA.AperFunction,OtherDrill,Pad Free-0 (262.382mm,56.617mm)*%
%ADD159C,2.60000*%
%TA.AperFunction,OtherDrill,Pad Free-0 (272.542mm,56.617mm)*%
%ADD160C,2.60000*%
%TA.AperFunction,OtherDrill,Pad Free-0 (282.702mm,56.617mm)*%
%ADD161C,2.60000*%
%TA.AperFunction,OtherDrill,Pad Free-0 (292.862mm,56.617mm)*%
%ADD162C,2.60000*%
%TA.AperFunction,OtherDrill,Pad Free-0 (303.022mm,56.617mm)*%
%ADD163C,2.60000*%
%TA.AperFunction,OtherDrill,Pad Free-0 (313.182mm,56.617mm)*%
%ADD164C,2.60000*%
%TA.AperFunction,OtherDrill,Pad Free-0 (323.342mm,56.617mm)*%
%ADD165C,2.60000*%
%TA.AperFunction,OtherDrill,Pad Free-0 (333.502mm,56.617mm)*%
%ADD166C,2.60000*%
%TA.AperFunction,OtherDrill,Pad Free-0 (343.662mm,56.617mm)*%
%ADD167C,2.60000*%
%TA.AperFunction,OtherDrill,Pad Free-0 (353.822mm,56.617mm)*%
%ADD168C,2.60000*%
%TA.AperFunction,OtherDrill,Pad Free-0 (363.982mm,56.617mm)*%
%ADD169C,2.60000*%
%TA.AperFunction,OtherDrill,Pad Free-0 (374.142mm,56.617mm)*%
%ADD170C,2.60000*%
%TA.AperFunction,OtherDrill,Pad Free-0 (384.302mm,56.617mm)*%
%ADD171C,2.60000*%
%TA.AperFunction,OtherDrill,Pad Free-0 (394.462mm,56.617mm)*%
%ADD172C,2.60000*%
%TA.AperFunction,OtherDrill,Pad Free-0 (404.622mm,56.617mm)*%
%ADD173C,2.60000*%
%TA.AperFunction,OtherDrill,Pad Free-0 (414.782mm,56.617mm)*%
%ADD174C,2.60000*%
%TA.AperFunction,OtherDrill,Pad Free-0 (424.942mm,56.617mm)*%
%ADD175C,2.60000*%
%TA.AperFunction,OtherDrill,Pad Free-0 (435.102mm,56.617mm)*%
%ADD176C,2.60000*%
%TA.AperFunction,OtherDrill,Pad Free-0 (445.262mm,56.617mm)*%
%ADD177C,2.60000*%
%TA.AperFunction,OtherDrill,Pad Free-0 (455.422mm,56.617mm)*%
%ADD178C,2.60000*%
%TA.AperFunction,OtherDrill,Pad Free-0 (465.582mm,56.617mm)*%
%ADD179C,2.60000*%
%TA.AperFunction,OtherDrill,Pad Free-0 (54.102mm,56.642mm)*%
%ADD180C,2.60000*%
%TA.AperFunction,OtherDrill,Pad Free-0 (64.262mm,56.642mm)*%
%ADD181C,2.60000*%
%TA.AperFunction,OtherDrill,Pad Free-0 (74.422mm,56.642mm)*%
%ADD182C,2.60000*%
%TA.AperFunction,OtherDrill,Pad Free-0 (84.582mm,56.642mm)*%
%ADD183C,2.60000*%
%TA.AperFunction,OtherDrill,Pad Free-0 (94.742mm,56.642mm)*%
%ADD184C,2.60000*%
%TA.AperFunction,OtherDrill,Pad Free-0 (104.902mm,56.642mm)*%
%ADD185C,2.60000*%
%TA.AperFunction,OtherDrill,Pad Free-0 (115.062mm,56.642mm)*%
%ADD186C,2.60000*%
%TA.AperFunction,OtherDrill,Pad Free-0 (125.222mm,56.642mm)*%
%ADD187C,2.60000*%
%TA.AperFunction,OtherDrill,Pad Free-0 (135.382mm,56.642mm)*%
%ADD188C,2.60000*%
%TA.AperFunction,OtherDrill,Pad Free-0 (145.542mm,56.642mm)*%
%ADD189C,2.60000*%
%TA.AperFunction,OtherDrill,Pad Free-0 (155.702mm,56.642mm)*%
%ADD190C,2.60000*%
%TA.AperFunction,OtherDrill,Pad Free-0 (165.862mm,56.642mm)*%
%ADD191C,2.60000*%
%TA.AperFunction,OtherDrill,Pad Free-0 (176.022mm,56.642mm)*%
%ADD192C,2.60000*%
%TA.AperFunction,OtherDrill,Pad Free-0 (186.182mm,56.642mm)*%
%ADD193C,2.60000*%
%TA.AperFunction,OtherDrill,Pad Free-0 (196.342mm,56.642mm)*%
%ADD194C,2.60000*%
%TA.AperFunction,OtherDrill,Pad Free-0 (206.502mm,56.642mm)*%
%ADD195C,2.60000*%
%TA.AperFunction,OtherDrill,Pad Free-0 (216.662mm,56.642mm)*%
%ADD196C,2.60000*%
%TA.AperFunction,OtherDrill,Pad Free-0 (226.822mm,56.642mm)*%
%ADD197C,2.60000*%
%TA.AperFunction,OtherDrill,Pad Free-0 (236.982mm,56.642mm)*%
%ADD198C,2.60000*%
%TA.AperFunction,OtherDrill,Pad Free-0 (247.142mm,56.642mm)*%
%ADD199C,2.60000*%
%TA.AperFunction,OtherDrill,Pad Free-0 (257.302mm,56.642mm)*%
%ADD200C,2.60000*%
%TA.AperFunction,OtherDrill,Pad Free-0 (267.462mm,56.642mm)*%
%ADD201C,2.60000*%
%TA.AperFunction,OtherDrill,Pad Free-0 (277.622mm,56.642mm)*%
%ADD202C,2.60000*%
%TA.AperFunction,OtherDrill,Pad Free-0 (287.782mm,56.642mm)*%
%ADD203C,2.60000*%
%TA.AperFunction,OtherDrill,Pad Free-0 (297.942mm,56.642mm)*%
%ADD204C,2.60000*%
%TA.AperFunction,OtherDrill,Pad Free-0 (308.102mm,56.642mm)*%
%ADD205C,2.60000*%
%TA.AperFunction,OtherDrill,Pad Free-0 (318.262mm,56.642mm)*%
%ADD206C,2.60000*%
%TA.AperFunction,OtherDrill,Pad Free-0 (328.422mm,56.642mm)*%
%ADD207C,2.60000*%
%TA.AperFunction,OtherDrill,Pad Free-0 (338.582mm,56.642mm)*%
%ADD208C,2.60000*%
%TA.AperFunction,OtherDrill,Pad Free-0 (348.742mm,56.642mm)*%
%ADD209C,2.60000*%
%TA.AperFunction,OtherDrill,Pad Free-0 (358.902mm,56.642mm)*%
%ADD210C,2.60000*%
%TA.AperFunction,OtherDrill,Pad Free-0 (369.062mm,56.642mm)*%
%ADD211C,2.60000*%
%TA.AperFunction,OtherDrill,Pad Free-0 (379.222mm,56.642mm)*%
%ADD212C,2.60000*%
%TA.AperFunction,OtherDrill,Pad Free-0 (389.382mm,56.642mm)*%
%ADD213C,2.60000*%
%TA.AperFunction,OtherDrill,Pad Free-0 (399.542mm,56.642mm)*%
%ADD214C,2.60000*%
%TA.AperFunction,OtherDrill,Pad Free-0 (409.702mm,56.642mm)*%
%ADD215C,2.60000*%
%TA.AperFunction,OtherDrill,Pad Free-0 (419.862mm,56.642mm)*%
%ADD216C,2.60000*%
%TA.AperFunction,OtherDrill,Pad Free-0 (430.022mm,56.642mm)*%
%ADD217C,2.60000*%
%TA.AperFunction,OtherDrill,Pad Free-0 (440.182mm,56.642mm)*%
%ADD218C,2.60000*%
%TA.AperFunction,OtherDrill,Pad Free-0 (450.342mm,56.642mm)*%
%ADD219C,2.60000*%
%TA.AperFunction,OtherDrill,Pad Free-0 (460.502mm,56.642mm)*%
%ADD220C,2.60000*%
%TA.AperFunction,ComponentDrill*%
%ADD221C,1.85420*%
%TA.AperFunction,ViaDrill,NotFilled*%
%ADD222C,0.71120*%
D50*
X19405400Y10190200D02*
D03*
X19121400Y10328700D02*
D03*
X19405400Y10467200D02*
D03*
X19121400Y10605700D02*
D03*
X19405400Y10744200D02*
D03*
X19121400Y10882700D02*
D03*
X19405400Y11021200D02*
D03*
X19121400Y11159700D02*
D03*
X19405400Y11298200D02*
D03*
X23469400Y10190200D02*
D03*
X23185400Y10328700D02*
D03*
X23469400Y10467200D02*
D03*
X23185400Y10605700D02*
D03*
X23469400Y10744200D02*
D03*
X23185400Y10882700D02*
D03*
X23469400Y11021200D02*
D03*
X23185400Y11159700D02*
D03*
X23469400Y11298200D02*
D03*
X27533401Y10190200D02*
D03*
X27249399Y10328700D02*
D03*
X27533401Y10467200D02*
D03*
X27249399Y10605700D02*
D03*
X27533401Y10744200D02*
D03*
X27249399Y10882700D02*
D03*
X27533401Y11021200D02*
D03*
X27249399Y11159700D02*
D03*
X27533401Y11298200D02*
D03*
X31597400Y10190200D02*
D03*
X31313400Y10328700D02*
D03*
X31597400Y10467200D02*
D03*
X31313400Y10605700D02*
D03*
X31597400Y10744200D02*
D03*
X31313400Y10882700D02*
D03*
X31597400Y11021200D02*
D03*
X31313400Y11159700D02*
D03*
X31597400Y11298200D02*
D03*
X35661401Y10190200D02*
D03*
X35377399Y10328700D02*
D03*
X35661401Y10467200D02*
D03*
X35377399Y10605700D02*
D03*
X35661401Y10744200D02*
D03*
X35377399Y10882700D02*
D03*
X35661401Y11021200D02*
D03*
X35377399Y11159700D02*
D03*
X35661401Y11298200D02*
D03*
X39725400Y10190200D02*
D03*
X39441400Y10328700D02*
D03*
X39725400Y10467200D02*
D03*
X39441400Y10605700D02*
D03*
X39725400Y10744200D02*
D03*
X39441400Y10882700D02*
D03*
X39725400Y11021200D02*
D03*
X39441400Y11159700D02*
D03*
X39725400Y11298200D02*
D03*
X43789401Y10190200D02*
D03*
X43505399Y10328700D02*
D03*
X43789401Y10467200D02*
D03*
X43505399Y10605700D02*
D03*
X43789401Y10744200D02*
D03*
X43505399Y10882700D02*
D03*
X43789401Y11021200D02*
D03*
X43505399Y11159700D02*
D03*
X43789401Y11298200D02*
D03*
Y7066000D02*
D03*
X43505399Y7204500D02*
D03*
X43789401Y7343000D02*
D03*
X43505399Y7481500D02*
D03*
X43789401Y7620000D02*
D03*
X43505399Y7758500D02*
D03*
X43789401Y7897000D02*
D03*
X43505399Y8035500D02*
D03*
X43789401Y8174000D02*
D03*
X39725400Y7066000D02*
D03*
X39441400Y7204500D02*
D03*
X39725400Y7343000D02*
D03*
X39441400Y7481500D02*
D03*
X39725400Y7620000D02*
D03*
X39441400Y7758500D02*
D03*
X39725400Y7897000D02*
D03*
X39441400Y8035500D02*
D03*
X39725400Y8174000D02*
D03*
X35661401Y7066000D02*
D03*
X35377399Y7204500D02*
D03*
X35661401Y7343000D02*
D03*
X35377399Y7481500D02*
D03*
X35661401Y7620000D02*
D03*
X35377399Y7758500D02*
D03*
X35661401Y7897000D02*
D03*
X35377399Y8035500D02*
D03*
X35661401Y8174000D02*
D03*
X31597400Y7066000D02*
D03*
X31313400Y7204500D02*
D03*
X31597400Y7343000D02*
D03*
X31313400Y7481500D02*
D03*
X31597400Y7620000D02*
D03*
X31313400Y7758500D02*
D03*
X31597400Y7897000D02*
D03*
X31313400Y8035500D02*
D03*
X31597400Y8174000D02*
D03*
X27533401Y7066000D02*
D03*
X27249399Y7204500D02*
D03*
X27533401Y7343000D02*
D03*
X27249399Y7481500D02*
D03*
X27533401Y7620000D02*
D03*
X27249399Y7758500D02*
D03*
X27533401Y7897000D02*
D03*
X27249399Y8035500D02*
D03*
X27533401Y8174000D02*
D03*
X23469400Y7066000D02*
D03*
X23185400Y7204500D02*
D03*
X23469400Y7343000D02*
D03*
X23185400Y7481500D02*
D03*
X23469400Y7620000D02*
D03*
X23185400Y7758500D02*
D03*
X23469400Y7897000D02*
D03*
X23185400Y8035500D02*
D03*
X23469400Y8174000D02*
D03*
X19405400Y7066000D02*
D03*
X19121400Y7204500D02*
D03*
X19405400Y7343000D02*
D03*
X19121400Y7481500D02*
D03*
X19405400Y7620000D02*
D03*
X19121400Y7758500D02*
D03*
X19405400Y7897000D02*
D03*
X19121400Y8035500D02*
D03*
X19405400Y8174000D02*
D03*
X15341400Y10190200D02*
D03*
X15057401Y10328700D02*
D03*
X15341400Y10467200D02*
D03*
X15057401Y10605700D02*
D03*
X15341400Y10744200D02*
D03*
X15057401Y10882700D02*
D03*
X15341400Y11021200D02*
D03*
X15057401Y11159700D02*
D03*
X15341400Y11298200D02*
D03*
Y7066000D02*
D03*
X15057401Y7204500D02*
D03*
X15341400Y7343000D02*
D03*
X15057401Y7481500D02*
D03*
X15341400Y7620000D02*
D03*
X15057401Y7758500D02*
D03*
X15341400Y7897000D02*
D03*
X15057401Y8035500D02*
D03*
X15341400Y8174000D02*
D03*
D51*
X19263400Y11993700D02*
D03*
Y9494700D02*
D03*
X23327400Y11993700D02*
D03*
Y9494700D02*
D03*
X27391400Y11993700D02*
D03*
Y9494700D02*
D03*
X31455399Y11993700D02*
D03*
Y9494700D02*
D03*
X35519400Y11993700D02*
D03*
Y9494700D02*
D03*
X39583401Y11993700D02*
D03*
Y9494700D02*
D03*
X43647400Y11993700D02*
D03*
Y9494700D02*
D03*
Y8869500D02*
D03*
Y6370500D02*
D03*
X39583401Y8869500D02*
D03*
Y6370500D02*
D03*
X35519400Y8869500D02*
D03*
Y6370500D02*
D03*
X31455399Y8869500D02*
D03*
Y6370500D02*
D03*
X27391400Y8869500D02*
D03*
Y6370500D02*
D03*
X23327400Y8869500D02*
D03*
Y6370500D02*
D03*
X19263400Y8869500D02*
D03*
Y6370500D02*
D03*
X15199400Y11993700D02*
D03*
Y9494700D02*
D03*
Y8869500D02*
D03*
Y6370500D02*
D03*
D52*
X4902200Y17884140D02*
D03*
D53*
X13766800Y7835900D02*
D03*
Y8089900D02*
D03*
Y8343900D02*
D03*
Y8597900D02*
D03*
Y8851900D02*
D03*
Y9105900D02*
D03*
Y9359900D02*
D03*
Y9613900D02*
D03*
Y9867900D02*
D03*
Y10121900D02*
D03*
Y10375900D02*
D03*
Y10629900D02*
D03*
Y10883900D02*
D03*
Y11137900D02*
D03*
Y11391900D02*
D03*
Y11645900D02*
D03*
Y11899900D02*
D03*
Y12153900D02*
D03*
Y12407900D02*
D03*
Y12661900D02*
D03*
Y12915900D02*
D03*
Y13169901D02*
D03*
Y13423900D02*
D03*
Y13677901D02*
D03*
Y13931900D02*
D03*
Y14185899D02*
D03*
Y14439900D02*
D03*
Y14693900D02*
D03*
Y14947900D02*
D03*
Y15201900D02*
D03*
Y15455901D02*
D03*
Y15709900D02*
D03*
X14274800Y7835900D02*
D03*
Y8089900D02*
D03*
Y8343900D02*
D03*
Y8597900D02*
D03*
Y8851900D02*
D03*
Y9105900D02*
D03*
Y9359900D02*
D03*
Y9613900D02*
D03*
Y9867900D02*
D03*
Y10121900D02*
D03*
Y10375900D02*
D03*
Y10629900D02*
D03*
Y10883900D02*
D03*
Y11137900D02*
D03*
Y11391900D02*
D03*
Y11645900D02*
D03*
Y11899900D02*
D03*
Y12153900D02*
D03*
Y12407900D02*
D03*
Y12661900D02*
D03*
Y12915900D02*
D03*
Y13169901D02*
D03*
Y13423900D02*
D03*
Y13677901D02*
D03*
Y13931900D02*
D03*
Y14185899D02*
D03*
Y14439900D02*
D03*
Y14693900D02*
D03*
Y14947900D02*
D03*
Y15201900D02*
D03*
Y15455901D02*
D03*
Y15709900D02*
D03*
X8204200Y7835900D02*
D03*
Y8089900D02*
D03*
Y8343900D02*
D03*
Y8597900D02*
D03*
Y8851900D02*
D03*
Y9105900D02*
D03*
Y9359900D02*
D03*
Y9613900D02*
D03*
Y9867900D02*
D03*
Y10121900D02*
D03*
Y10375900D02*
D03*
Y10629900D02*
D03*
Y10883900D02*
D03*
Y11137900D02*
D03*
Y11391900D02*
D03*
Y11645900D02*
D03*
Y11899900D02*
D03*
Y12153900D02*
D03*
Y12407900D02*
D03*
Y12661900D02*
D03*
Y12915900D02*
D03*
Y13169901D02*
D03*
Y13423900D02*
D03*
Y13677901D02*
D03*
Y13931900D02*
D03*
Y14185899D02*
D03*
Y14439900D02*
D03*
Y14693900D02*
D03*
Y14947900D02*
D03*
Y15201900D02*
D03*
Y15455901D02*
D03*
Y15709900D02*
D03*
X8712200Y7835900D02*
D03*
Y8089900D02*
D03*
Y8343900D02*
D03*
Y8597900D02*
D03*
Y8851900D02*
D03*
Y9105900D02*
D03*
Y9359900D02*
D03*
Y9613900D02*
D03*
Y9867900D02*
D03*
Y10121900D02*
D03*
Y10375900D02*
D03*
Y10629900D02*
D03*
Y10883900D02*
D03*
Y11137900D02*
D03*
Y11391900D02*
D03*
Y11645900D02*
D03*
Y11899900D02*
D03*
Y12153900D02*
D03*
Y12407900D02*
D03*
Y12661900D02*
D03*
Y12915900D02*
D03*
Y13169901D02*
D03*
Y13423900D02*
D03*
Y13677901D02*
D03*
Y13931900D02*
D03*
Y14185899D02*
D03*
Y14439900D02*
D03*
Y14693900D02*
D03*
Y14947900D02*
D03*
Y15201900D02*
D03*
Y15455901D02*
D03*
Y15709900D02*
D03*
X17830800Y7835900D02*
D03*
Y8089900D02*
D03*
Y8343900D02*
D03*
Y8597900D02*
D03*
Y8851900D02*
D03*
Y9105900D02*
D03*
Y9359900D02*
D03*
Y9613900D02*
D03*
Y9867900D02*
D03*
Y10121900D02*
D03*
Y10375900D02*
D03*
Y10629900D02*
D03*
Y10883900D02*
D03*
Y11137900D02*
D03*
Y11391900D02*
D03*
Y11645900D02*
D03*
Y11899900D02*
D03*
Y12153900D02*
D03*
Y12407900D02*
D03*
Y12661900D02*
D03*
Y12915900D02*
D03*
Y13169901D02*
D03*
Y13423900D02*
D03*
Y13677901D02*
D03*
Y13931900D02*
D03*
Y14185899D02*
D03*
Y14439900D02*
D03*
Y14693900D02*
D03*
Y14947900D02*
D03*
Y15201900D02*
D03*
Y15455901D02*
D03*
Y15709900D02*
D03*
X18338800Y7835900D02*
D03*
Y8089900D02*
D03*
Y8343900D02*
D03*
Y8597900D02*
D03*
Y8851900D02*
D03*
Y9105900D02*
D03*
Y9359900D02*
D03*
Y9613900D02*
D03*
Y9867900D02*
D03*
Y10121900D02*
D03*
Y10375900D02*
D03*
Y10629900D02*
D03*
Y10883900D02*
D03*
Y11137900D02*
D03*
Y11391900D02*
D03*
Y11645900D02*
D03*
Y11899900D02*
D03*
Y12153900D02*
D03*
Y12407900D02*
D03*
Y12661900D02*
D03*
Y12915900D02*
D03*
Y13169901D02*
D03*
Y13423900D02*
D03*
Y13677901D02*
D03*
Y13931900D02*
D03*
Y14185899D02*
D03*
Y14439900D02*
D03*
Y14693900D02*
D03*
Y14947900D02*
D03*
Y15201900D02*
D03*
Y15455901D02*
D03*
Y15709900D02*
D03*
X21894800Y7835900D02*
D03*
Y8089900D02*
D03*
Y8343900D02*
D03*
Y8597900D02*
D03*
Y8851900D02*
D03*
Y9105900D02*
D03*
Y9359900D02*
D03*
Y9613900D02*
D03*
Y9867900D02*
D03*
Y10121900D02*
D03*
Y10375900D02*
D03*
Y10629900D02*
D03*
Y10883900D02*
D03*
Y11137900D02*
D03*
Y11391900D02*
D03*
Y11645900D02*
D03*
Y11899900D02*
D03*
Y12153900D02*
D03*
Y12407900D02*
D03*
Y12661900D02*
D03*
Y12915900D02*
D03*
Y13169901D02*
D03*
Y13423900D02*
D03*
Y13677901D02*
D03*
Y13931900D02*
D03*
Y14185899D02*
D03*
Y14439900D02*
D03*
Y14693900D02*
D03*
Y14947900D02*
D03*
Y15201900D02*
D03*
Y15455901D02*
D03*
Y15709900D02*
D03*
X22402800Y7835900D02*
D03*
Y8089900D02*
D03*
Y8343900D02*
D03*
Y8597900D02*
D03*
Y8851900D02*
D03*
Y9105900D02*
D03*
Y9359900D02*
D03*
Y9613900D02*
D03*
Y9867900D02*
D03*
Y10121900D02*
D03*
Y10375900D02*
D03*
Y10629900D02*
D03*
Y10883900D02*
D03*
Y11137900D02*
D03*
Y11391900D02*
D03*
Y11645900D02*
D03*
Y11899900D02*
D03*
Y12153900D02*
D03*
Y12407900D02*
D03*
Y12661900D02*
D03*
Y12915900D02*
D03*
Y13169901D02*
D03*
Y13423900D02*
D03*
Y13677901D02*
D03*
Y13931900D02*
D03*
Y14185899D02*
D03*
Y14439900D02*
D03*
Y14693900D02*
D03*
Y14947900D02*
D03*
Y15201900D02*
D03*
Y15455901D02*
D03*
Y15709900D02*
D03*
X25958801Y7835900D02*
D03*
Y8089900D02*
D03*
Y8343900D02*
D03*
Y8597900D02*
D03*
Y8851900D02*
D03*
Y9105900D02*
D03*
Y9359900D02*
D03*
Y9613900D02*
D03*
Y9867900D02*
D03*
Y10121900D02*
D03*
Y10375900D02*
D03*
Y10629900D02*
D03*
Y10883900D02*
D03*
Y11137900D02*
D03*
Y11391900D02*
D03*
Y11645900D02*
D03*
Y11899900D02*
D03*
Y12153900D02*
D03*
Y12407900D02*
D03*
Y12661900D02*
D03*
Y12915900D02*
D03*
Y13169901D02*
D03*
Y13423900D02*
D03*
Y13677901D02*
D03*
Y13931900D02*
D03*
Y14185899D02*
D03*
Y14439900D02*
D03*
Y14693900D02*
D03*
Y14947900D02*
D03*
Y15201900D02*
D03*
Y15455901D02*
D03*
Y15709900D02*
D03*
X26466800Y7835900D02*
D03*
Y8089900D02*
D03*
Y8343900D02*
D03*
Y8597900D02*
D03*
Y8851900D02*
D03*
Y9105900D02*
D03*
Y9359900D02*
D03*
Y9613900D02*
D03*
Y9867900D02*
D03*
Y10121900D02*
D03*
Y10375900D02*
D03*
Y10629900D02*
D03*
Y10883900D02*
D03*
Y11137900D02*
D03*
Y11391900D02*
D03*
Y11645900D02*
D03*
Y11899900D02*
D03*
Y12153900D02*
D03*
Y12407900D02*
D03*
Y12661900D02*
D03*
Y12915900D02*
D03*
Y13169901D02*
D03*
Y13423900D02*
D03*
Y13677901D02*
D03*
Y13931900D02*
D03*
Y14185899D02*
D03*
Y14439900D02*
D03*
Y14693900D02*
D03*
Y14947900D02*
D03*
Y15201900D02*
D03*
Y15455901D02*
D03*
Y15709900D02*
D03*
X30022800Y7835900D02*
D03*
Y8089900D02*
D03*
Y8343900D02*
D03*
Y8597900D02*
D03*
Y8851900D02*
D03*
Y9105900D02*
D03*
Y9359900D02*
D03*
Y9613900D02*
D03*
Y9867900D02*
D03*
Y10121900D02*
D03*
Y10375900D02*
D03*
Y10629900D02*
D03*
Y10883900D02*
D03*
Y11137900D02*
D03*
Y11391900D02*
D03*
Y11645900D02*
D03*
Y11899900D02*
D03*
Y12153900D02*
D03*
Y12407900D02*
D03*
Y12661900D02*
D03*
Y12915900D02*
D03*
Y13169901D02*
D03*
Y13423900D02*
D03*
Y13677901D02*
D03*
Y13931900D02*
D03*
Y14185899D02*
D03*
Y14439900D02*
D03*
Y14693900D02*
D03*
Y14947900D02*
D03*
Y15201900D02*
D03*
Y15455901D02*
D03*
Y15709900D02*
D03*
X30530801Y7835900D02*
D03*
Y8089900D02*
D03*
Y8343900D02*
D03*
Y8597900D02*
D03*
Y8851900D02*
D03*
Y9105900D02*
D03*
Y9359900D02*
D03*
Y9613900D02*
D03*
Y9867900D02*
D03*
Y10121900D02*
D03*
Y10375900D02*
D03*
Y10629900D02*
D03*
Y10883900D02*
D03*
Y11137900D02*
D03*
Y11391900D02*
D03*
Y11645900D02*
D03*
Y11899900D02*
D03*
Y12153900D02*
D03*
Y12407900D02*
D03*
Y12661900D02*
D03*
Y12915900D02*
D03*
Y13169901D02*
D03*
Y13423900D02*
D03*
Y13677901D02*
D03*
Y13931900D02*
D03*
Y14185899D02*
D03*
Y14439900D02*
D03*
Y14693900D02*
D03*
Y14947900D02*
D03*
Y15201900D02*
D03*
Y15455901D02*
D03*
Y15709900D02*
D03*
X34086801Y7835900D02*
D03*
Y8089900D02*
D03*
Y8343900D02*
D03*
Y8597900D02*
D03*
Y8851900D02*
D03*
Y9105900D02*
D03*
Y9359900D02*
D03*
Y9613900D02*
D03*
Y9867900D02*
D03*
Y10121900D02*
D03*
Y10375900D02*
D03*
Y10629900D02*
D03*
Y10883900D02*
D03*
Y11137900D02*
D03*
Y11391900D02*
D03*
Y11645900D02*
D03*
Y11899900D02*
D03*
Y12153900D02*
D03*
Y12407900D02*
D03*
Y12661900D02*
D03*
Y12915900D02*
D03*
Y13169901D02*
D03*
Y13423900D02*
D03*
Y13677901D02*
D03*
Y13931900D02*
D03*
Y14185899D02*
D03*
Y14439900D02*
D03*
Y14693900D02*
D03*
Y14947900D02*
D03*
Y15201900D02*
D03*
Y15455901D02*
D03*
Y15709900D02*
D03*
X34594800Y7835900D02*
D03*
Y8089900D02*
D03*
Y8343900D02*
D03*
Y8597900D02*
D03*
Y8851900D02*
D03*
Y9105900D02*
D03*
Y9359900D02*
D03*
Y9613900D02*
D03*
Y9867900D02*
D03*
Y10121900D02*
D03*
Y10375900D02*
D03*
Y10629900D02*
D03*
Y10883900D02*
D03*
Y11137900D02*
D03*
Y11391900D02*
D03*
Y11645900D02*
D03*
Y11899900D02*
D03*
Y12153900D02*
D03*
Y12407900D02*
D03*
Y12661900D02*
D03*
Y12915900D02*
D03*
Y13169901D02*
D03*
Y13423900D02*
D03*
Y13677901D02*
D03*
Y13931900D02*
D03*
Y14185899D02*
D03*
Y14439900D02*
D03*
Y14693900D02*
D03*
Y14947900D02*
D03*
Y15201900D02*
D03*
Y15455901D02*
D03*
Y15709900D02*
D03*
X38150800Y7835900D02*
D03*
Y8089900D02*
D03*
Y8343900D02*
D03*
Y8597900D02*
D03*
Y8851900D02*
D03*
Y9105900D02*
D03*
Y9359900D02*
D03*
Y9613900D02*
D03*
Y9867900D02*
D03*
Y10121900D02*
D03*
Y10375900D02*
D03*
Y10629900D02*
D03*
Y10883900D02*
D03*
Y11137900D02*
D03*
Y11391900D02*
D03*
Y11645900D02*
D03*
Y11899900D02*
D03*
Y12153900D02*
D03*
Y12407900D02*
D03*
Y12661900D02*
D03*
Y12915900D02*
D03*
Y13169901D02*
D03*
Y13423900D02*
D03*
Y13677901D02*
D03*
Y13931900D02*
D03*
Y14185899D02*
D03*
Y14439900D02*
D03*
Y14693900D02*
D03*
Y14947900D02*
D03*
Y15201900D02*
D03*
Y15455901D02*
D03*
Y15709900D02*
D03*
X38658801Y7835900D02*
D03*
Y8089900D02*
D03*
Y8343900D02*
D03*
Y8597900D02*
D03*
Y8851900D02*
D03*
Y9105900D02*
D03*
Y9359900D02*
D03*
Y9613900D02*
D03*
Y9867900D02*
D03*
Y10121900D02*
D03*
Y10375900D02*
D03*
Y10629900D02*
D03*
Y10883900D02*
D03*
Y11137900D02*
D03*
Y11391900D02*
D03*
Y11645900D02*
D03*
Y11899900D02*
D03*
Y12153900D02*
D03*
Y12407900D02*
D03*
Y12661900D02*
D03*
Y12915900D02*
D03*
Y13169901D02*
D03*
Y13423900D02*
D03*
Y13677901D02*
D03*
Y13931900D02*
D03*
Y14185899D02*
D03*
Y14439900D02*
D03*
Y14693900D02*
D03*
Y14947900D02*
D03*
Y15201900D02*
D03*
Y15455901D02*
D03*
Y15709900D02*
D03*
X42214801Y7835900D02*
D03*
Y8089900D02*
D03*
Y8343900D02*
D03*
Y8597900D02*
D03*
Y8851900D02*
D03*
Y9105900D02*
D03*
Y9359900D02*
D03*
Y9613900D02*
D03*
Y9867900D02*
D03*
Y10121900D02*
D03*
Y10375900D02*
D03*
Y10629900D02*
D03*
Y10883900D02*
D03*
Y11137900D02*
D03*
Y11391900D02*
D03*
Y11645900D02*
D03*
Y11899900D02*
D03*
Y12153900D02*
D03*
Y12407900D02*
D03*
Y12661900D02*
D03*
Y12915900D02*
D03*
Y13169901D02*
D03*
Y13423900D02*
D03*
Y13677901D02*
D03*
Y13931900D02*
D03*
Y14185899D02*
D03*
Y14439900D02*
D03*
Y14693900D02*
D03*
Y14947900D02*
D03*
Y15201900D02*
D03*
Y15455901D02*
D03*
Y15709900D02*
D03*
X42722800Y7835900D02*
D03*
Y8089900D02*
D03*
Y8343900D02*
D03*
Y8597900D02*
D03*
Y8851900D02*
D03*
Y9105900D02*
D03*
Y9359900D02*
D03*
Y9613900D02*
D03*
Y9867900D02*
D03*
Y10121900D02*
D03*
Y10375900D02*
D03*
Y10629900D02*
D03*
Y10883900D02*
D03*
Y11137900D02*
D03*
Y11391900D02*
D03*
Y11645900D02*
D03*
Y11899900D02*
D03*
Y12153900D02*
D03*
Y12407900D02*
D03*
Y12661900D02*
D03*
Y12915900D02*
D03*
Y13169901D02*
D03*
Y13423900D02*
D03*
Y13677901D02*
D03*
Y13931900D02*
D03*
Y14185899D02*
D03*
Y14439900D02*
D03*
Y14693900D02*
D03*
Y14947900D02*
D03*
Y15201900D02*
D03*
Y15455901D02*
D03*
Y15709900D02*
D03*
D54*
X7340300Y13012399D02*
D03*
Y14216400D02*
D03*
D55*
X7610800Y13489400D02*
D03*
Y13739400D02*
D03*
X7289800D02*
D03*
Y13489400D02*
D03*
D56*
X5918200Y17884140D02*
D03*
D57*
X6934200D02*
D03*
D58*
X7950200D02*
D03*
D59*
X8966200D02*
D03*
D60*
X9982200D02*
D03*
D61*
X10998200D02*
D03*
D62*
X12014200D02*
D03*
D63*
X13030200D02*
D03*
D64*
X14046201D02*
D03*
D65*
X15062199D02*
D03*
D66*
X16078200D02*
D03*
D67*
X17094200D02*
D03*
D68*
X18110201D02*
D03*
D69*
X19126199D02*
D03*
D70*
X20142200D02*
D03*
D71*
X21158200D02*
D03*
D72*
X22174200D02*
D03*
D73*
X23190199D02*
D03*
D74*
X24206200D02*
D03*
D75*
X25222200D02*
D03*
D76*
X26238199D02*
D03*
D77*
X27254199D02*
D03*
D78*
X28270200D02*
D03*
D79*
X29286200D02*
D03*
D80*
X30302200D02*
D03*
D81*
X31318201D02*
D03*
D82*
X32334201D02*
D03*
D83*
X33350201D02*
D03*
D84*
X34366199D02*
D03*
D85*
X35382199D02*
D03*
D86*
X36398199D02*
D03*
D87*
X37414200D02*
D03*
D88*
X38430200D02*
D03*
D89*
X39446201D02*
D03*
D90*
X40462201D02*
D03*
D91*
X41478201D02*
D03*
D92*
X42494199D02*
D03*
D93*
X43510199D02*
D03*
D94*
X44526199D02*
D03*
D95*
X45542200D02*
D03*
D96*
X46558200D02*
D03*
D97*
X5410200Y17881599D02*
D03*
D98*
X6426200D02*
D03*
D99*
X7442200D02*
D03*
D100*
X8458200D02*
D03*
D101*
X9474200D02*
D03*
D102*
X10490200D02*
D03*
D103*
X11506200D02*
D03*
D104*
X12522200D02*
D03*
D105*
X13538200D02*
D03*
D106*
X14554201D02*
D03*
D107*
X15570200D02*
D03*
D108*
X16586200D02*
D03*
D109*
X17602200D02*
D03*
D110*
X18618201D02*
D03*
D111*
X19634200D02*
D03*
D112*
X20650200D02*
D03*
D113*
X21666200D02*
D03*
D114*
X22682201D02*
D03*
D115*
X23698199D02*
D03*
D116*
X24714200D02*
D03*
D117*
X25730200D02*
D03*
D118*
X26746201D02*
D03*
D119*
X27762201D02*
D03*
D120*
X28778201D02*
D03*
D121*
X29794199D02*
D03*
D122*
X30810199D02*
D03*
D123*
X31826199D02*
D03*
D124*
X32842200D02*
D03*
D125*
X33858200D02*
D03*
D126*
X34874200D02*
D03*
D127*
X35890201D02*
D03*
D128*
X36906201D02*
D03*
D129*
X37922198D02*
D03*
D130*
X38938199D02*
D03*
D131*
X39954199D02*
D03*
D132*
X40970200D02*
D03*
D133*
X41986200D02*
D03*
D134*
X43002200D02*
D03*
D135*
X44018201D02*
D03*
D136*
X45034201D02*
D03*
D137*
X46050201D02*
D03*
D138*
X4902200Y5661660D02*
D03*
D139*
X5918200D02*
D03*
D140*
X6934200D02*
D03*
D141*
X7950200D02*
D03*
D142*
X8966200D02*
D03*
D143*
X9982200D02*
D03*
D144*
X10998200D02*
D03*
D145*
X12014200D02*
D03*
D146*
X13030200D02*
D03*
D147*
X14046201D02*
D03*
D148*
X15062199D02*
D03*
D149*
X16078200D02*
D03*
D150*
X17094200D02*
D03*
D151*
X18110201D02*
D03*
D152*
X19126199D02*
D03*
D153*
X20142200D02*
D03*
D154*
X21158200D02*
D03*
D155*
X22174200D02*
D03*
D156*
X23190199D02*
D03*
D157*
X24206200D02*
D03*
D158*
X25222200D02*
D03*
D159*
X26238199D02*
D03*
D160*
X27254199D02*
D03*
D161*
X28270200D02*
D03*
D162*
X29286200D02*
D03*
D163*
X30302200D02*
D03*
D164*
X31318201D02*
D03*
D165*
X32334201D02*
D03*
D166*
X33350201D02*
D03*
D167*
X34366199D02*
D03*
D168*
X35382199D02*
D03*
D169*
X36398199D02*
D03*
D170*
X37414200D02*
D03*
D171*
X38430200D02*
D03*
D172*
X39446201D02*
D03*
D173*
X40462201D02*
D03*
D174*
X41478201D02*
D03*
D175*
X42494199D02*
D03*
D176*
X43510199D02*
D03*
D177*
X44526199D02*
D03*
D178*
X45542200D02*
D03*
D179*
X46558200D02*
D03*
D180*
X5410200Y5664200D02*
D03*
D181*
X6426200D02*
D03*
D182*
X7442200D02*
D03*
D183*
X8458200D02*
D03*
D184*
X9474200D02*
D03*
D185*
X10490200D02*
D03*
D186*
X11506200D02*
D03*
D187*
X12522200D02*
D03*
D188*
X13538200D02*
D03*
D189*
X14554201D02*
D03*
D190*
X15570200D02*
D03*
D191*
X16586200D02*
D03*
D192*
X17602200D02*
D03*
D193*
X18618201D02*
D03*
D194*
X19634200D02*
D03*
D195*
X20650200D02*
D03*
D196*
X21666200D02*
D03*
D197*
X22682201D02*
D03*
D198*
X23698199D02*
D03*
D199*
X24714200D02*
D03*
D200*
X25730200D02*
D03*
D201*
X26746201D02*
D03*
D202*
X27762201D02*
D03*
D203*
X28778201D02*
D03*
D204*
X29794199D02*
D03*
D205*
X30810199D02*
D03*
D206*
X31826199D02*
D03*
D207*
X32842200D02*
D03*
D208*
X33858200D02*
D03*
D209*
X34874200D02*
D03*
D210*
X35890201D02*
D03*
D211*
X36906201D02*
D03*
D212*
X37922198D02*
D03*
D213*
X38938199D02*
D03*
D214*
X39954199D02*
D03*
D215*
X40970200D02*
D03*
D216*
X41986200D02*
D03*
D217*
X43002200D02*
D03*
D218*
X44018201D02*
D03*
D219*
X45034201D02*
D03*
D220*
X46050201D02*
D03*
D221*
X5715000Y16761459D02*
D03*
Y15648940D02*
D03*
D222*
X12255500Y12026900D02*
D03*
X14833600Y13092999D02*
D03*
X16078200Y12395200D02*
D03*
X18897600Y13143800D02*
D03*
X20167599Y12420600D02*
D03*
X24206200Y12408600D02*
D03*
X22961600Y13143800D02*
D03*
X27025601Y13118401D02*
D03*
X28320999Y12420600D02*
D03*
X31089600Y13081000D02*
D03*
X32334201Y12420600D02*
D03*
X40474200D02*
D03*
X36460999D02*
D03*
X35153601Y13106400D02*
D03*
X39217599Y13143800D02*
D03*
X43281601Y13131799D02*
D03*
%TF.MD5,3c60d6f0f0a5656dbeb1ea1379bc6a9c*%
M02*
