G04 Layer_Color=65535*
%FSLAX42Y42*%
%MOMM*%
G71*
G01*
G75*
%ADD12C,0.70*%
%ADD25C,0.25*%
D12*
X4648Y5283D02*
X46812Y5283D01*
Y18263D01*
X4648Y18263D02*
X46812Y18263D01*
X4648Y18263D02*
X4648Y5283D01*
D25*
X10607Y15420D02*
Y16474D01*
X9977Y15420D02*
Y16474D01*
X10607D01*
X9977Y15420D02*
X10607D01*
X42070Y16777D02*
X42019D01*
X42045D01*
Y16650D01*
X42019Y16624D01*
X41994D01*
X41968Y16650D01*
X42121Y16624D02*
X42172D01*
X42146D01*
Y16777D01*
X42121Y16751D01*
X42248Y16599D02*
X42349D01*
X42502Y16751D02*
X42476Y16777D01*
X42425D01*
X42400Y16751D01*
Y16650D01*
X42425Y16624D01*
X42476D01*
X42502Y16650D01*
X42578Y16624D02*
X42629D01*
X42654Y16650D01*
Y16700D01*
X42629Y16726D01*
X42578D01*
X42552Y16700D01*
Y16650D01*
X42578Y16624D01*
X42705D02*
Y16726D01*
X42781D01*
X42806Y16700D01*
Y16624D01*
X42857D02*
Y16726D01*
X42933D01*
X42959Y16700D01*
Y16624D01*
X43009Y16751D02*
X43035Y16777D01*
X43086D01*
X43111Y16751D01*
Y16726D01*
X43086Y16700D01*
X43111Y16675D01*
Y16650D01*
X43086Y16624D01*
X43035D01*
X43009Y16650D01*
Y16675D01*
X43035Y16700D01*
X43009Y16726D01*
Y16751D01*
X43035Y16700D02*
X43086D01*
X38006Y16777D02*
X37955D01*
X37981D01*
Y16650D01*
X37955Y16624D01*
X37930D01*
X37904Y16650D01*
X38057Y16624D02*
X38108D01*
X38082D01*
Y16777D01*
X38057Y16751D01*
X38184Y16599D02*
X38285D01*
X38438Y16751D02*
X38412Y16777D01*
X38361D01*
X38336Y16751D01*
Y16650D01*
X38361Y16624D01*
X38412D01*
X38438Y16650D01*
X38514Y16624D02*
X38565D01*
X38590Y16650D01*
Y16700D01*
X38565Y16726D01*
X38514D01*
X38488Y16700D01*
Y16650D01*
X38514Y16624D01*
X38641D02*
Y16726D01*
X38717D01*
X38742Y16700D01*
Y16624D01*
X38793D02*
Y16726D01*
X38869D01*
X38895Y16700D01*
Y16624D01*
X38945Y16777D02*
X39047D01*
Y16751D01*
X38945Y16650D01*
Y16624D01*
X33942Y16777D02*
X33891D01*
X33917D01*
Y16650D01*
X33891Y16624D01*
X33866D01*
X33840Y16650D01*
X33993Y16624D02*
X34044D01*
X34018D01*
Y16777D01*
X33993Y16751D01*
X34120Y16599D02*
X34221D01*
X34374Y16751D02*
X34348Y16777D01*
X34297D01*
X34272Y16751D01*
Y16650D01*
X34297Y16624D01*
X34348D01*
X34374Y16650D01*
X34450Y16624D02*
X34501D01*
X34526Y16650D01*
Y16700D01*
X34501Y16726D01*
X34450D01*
X34424Y16700D01*
Y16650D01*
X34450Y16624D01*
X34577D02*
Y16726D01*
X34653D01*
X34678Y16700D01*
Y16624D01*
X34729D02*
Y16726D01*
X34805D01*
X34831Y16700D01*
Y16624D01*
X34983Y16777D02*
X34932Y16751D01*
X34881Y16700D01*
Y16650D01*
X34907Y16624D01*
X34958D01*
X34983Y16650D01*
Y16675D01*
X34958Y16700D01*
X34881D01*
X29878Y16777D02*
X29827D01*
X29853D01*
Y16650D01*
X29827Y16624D01*
X29802D01*
X29776Y16650D01*
X29929Y16624D02*
X29980D01*
X29954D01*
Y16777D01*
X29929Y16751D01*
X30056Y16599D02*
X30157D01*
X30310Y16751D02*
X30284Y16777D01*
X30233D01*
X30208Y16751D01*
Y16650D01*
X30233Y16624D01*
X30284D01*
X30310Y16650D01*
X30386Y16624D02*
X30437D01*
X30462Y16650D01*
Y16700D01*
X30437Y16726D01*
X30386D01*
X30360Y16700D01*
Y16650D01*
X30386Y16624D01*
X30513D02*
Y16726D01*
X30589D01*
X30614Y16700D01*
Y16624D01*
X30665D02*
Y16726D01*
X30741D01*
X30767Y16700D01*
Y16624D01*
X30919Y16777D02*
X30817D01*
Y16700D01*
X30868Y16726D01*
X30894D01*
X30919Y16700D01*
Y16650D01*
X30894Y16624D01*
X30843D01*
X30817Y16650D01*
X25814Y16777D02*
X25763D01*
X25789D01*
Y16650D01*
X25763Y16624D01*
X25738D01*
X25712Y16650D01*
X25865Y16624D02*
X25916D01*
X25890D01*
Y16777D01*
X25865Y16751D01*
X25992Y16599D02*
X26093D01*
X26246Y16751D02*
X26220Y16777D01*
X26169D01*
X26144Y16751D01*
Y16650D01*
X26169Y16624D01*
X26220D01*
X26246Y16650D01*
X26322Y16624D02*
X26373D01*
X26398Y16650D01*
Y16700D01*
X26373Y16726D01*
X26322D01*
X26296Y16700D01*
Y16650D01*
X26322Y16624D01*
X26449D02*
Y16726D01*
X26525D01*
X26550Y16700D01*
Y16624D01*
X26601D02*
Y16726D01*
X26677D01*
X26703Y16700D01*
Y16624D01*
X26830D02*
Y16777D01*
X26753Y16700D01*
X26855D01*
X21750Y16777D02*
X21699D01*
X21725D01*
Y16650D01*
X21699Y16624D01*
X21674D01*
X21648Y16650D01*
X21801Y16624D02*
X21852D01*
X21826D01*
Y16777D01*
X21801Y16751D01*
X21928Y16599D02*
X22029D01*
X22182Y16751D02*
X22156Y16777D01*
X22105D01*
X22080Y16751D01*
Y16650D01*
X22105Y16624D01*
X22156D01*
X22182Y16650D01*
X22258Y16624D02*
X22309D01*
X22334Y16650D01*
Y16700D01*
X22309Y16726D01*
X22258D01*
X22232Y16700D01*
Y16650D01*
X22258Y16624D01*
X22385D02*
Y16726D01*
X22461D01*
X22486Y16700D01*
Y16624D01*
X22537D02*
Y16726D01*
X22613D01*
X22639Y16700D01*
Y16624D01*
X22689Y16751D02*
X22715Y16777D01*
X22766D01*
X22791Y16751D01*
Y16726D01*
X22766Y16700D01*
X22740D01*
X22766D01*
X22791Y16675D01*
Y16650D01*
X22766Y16624D01*
X22715D01*
X22689Y16650D01*
X17686Y16777D02*
X17635D01*
X17661D01*
Y16650D01*
X17635Y16624D01*
X17610D01*
X17584Y16650D01*
X17737Y16624D02*
X17788D01*
X17762D01*
Y16777D01*
X17737Y16751D01*
X17864Y16599D02*
X17965D01*
X18118Y16751D02*
X18092Y16777D01*
X18041D01*
X18016Y16751D01*
Y16650D01*
X18041Y16624D01*
X18092D01*
X18118Y16650D01*
X18194Y16624D02*
X18245D01*
X18270Y16650D01*
Y16700D01*
X18245Y16726D01*
X18194D01*
X18168Y16700D01*
Y16650D01*
X18194Y16624D01*
X18321D02*
Y16726D01*
X18397D01*
X18422Y16700D01*
Y16624D01*
X18473D02*
Y16726D01*
X18549D01*
X18575Y16700D01*
Y16624D01*
X18727D02*
X18625D01*
X18727Y16726D01*
Y16751D01*
X18702Y16777D01*
X18651D01*
X18625Y16751D01*
X8484Y6883D02*
X8433D01*
X8458D01*
Y6756D01*
X8433Y6731D01*
X8407D01*
X8382Y6756D01*
X8636Y6731D02*
X8534D01*
X8636Y6833D01*
Y6858D01*
X8611Y6883D01*
X8560D01*
X8534Y6858D01*
X13622Y16777D02*
X13571D01*
X13597D01*
Y16650D01*
X13571Y16624D01*
X13546D01*
X13520Y16650D01*
X13673Y16624D02*
X13724D01*
X13698D01*
Y16777D01*
X13673Y16751D01*
X13800Y16599D02*
X13901D01*
X14054Y16751D02*
X14028Y16777D01*
X13977D01*
X13952Y16751D01*
Y16650D01*
X13977Y16624D01*
X14028D01*
X14054Y16650D01*
X14130Y16624D02*
X14181D01*
X14206Y16650D01*
Y16700D01*
X14181Y16726D01*
X14130D01*
X14104Y16700D01*
Y16650D01*
X14130Y16624D01*
X14257D02*
Y16726D01*
X14333D01*
X14358Y16700D01*
Y16624D01*
X14409D02*
Y16726D01*
X14485D01*
X14511Y16700D01*
Y16624D01*
X14561D02*
X14612D01*
X14587D01*
Y16777D01*
X14561Y16751D01*
X9982Y16561D02*
Y16713D01*
X10058D01*
X10084Y16688D01*
Y16637D01*
X10058Y16612D01*
X9982D01*
X10135Y16561D02*
X10185D01*
X10160D01*
Y16713D01*
X10135Y16688D01*
X13792Y17020D02*
X13818Y17045D01*
X13868D01*
X13894Y17020D01*
Y16918D01*
X13868Y16893D01*
X13818D01*
X13792Y16918D01*
Y17020D01*
X13945Y16994D02*
X14046Y16893D01*
X13995Y16944D01*
X14046Y16994D01*
X13945Y16893D01*
X14097Y17020D02*
X14122Y17045D01*
X14173D01*
X14198Y17020D01*
Y16918D01*
X14173Y16893D01*
X14122D01*
X14097Y16918D01*
Y17020D01*
X14351Y16893D02*
X14249D01*
X14351Y16994D01*
Y17020D01*
X14325Y17045D01*
X14275D01*
X14249Y17020D01*
X17882Y16994D02*
X17907Y17019D01*
X17958D01*
X17983Y16994D01*
Y16892D01*
X17958Y16867D01*
X17907D01*
X17882Y16892D01*
Y16994D01*
X18034Y16968D02*
X18136Y16867D01*
X18085Y16918D01*
X18136Y16968D01*
X18034Y16867D01*
X18186Y16994D02*
X18212Y17019D01*
X18262D01*
X18288Y16994D01*
Y16892D01*
X18262Y16867D01*
X18212D01*
X18186Y16892D01*
Y16994D01*
X18339D02*
X18364Y17019D01*
X18415D01*
X18440Y16994D01*
Y16968D01*
X18415Y16943D01*
X18389D01*
X18415D01*
X18440Y16918D01*
Y16892D01*
X18415Y16867D01*
X18364D01*
X18339Y16892D01*
X21895Y16994D02*
X21920Y17019D01*
X21971D01*
X21996Y16994D01*
Y16892D01*
X21971Y16867D01*
X21920D01*
X21895Y16892D01*
Y16994D01*
X22047Y16968D02*
X22149Y16867D01*
X22098Y16918D01*
X22149Y16968D01*
X22047Y16867D01*
X22200Y16994D02*
X22225Y17019D01*
X22276D01*
X22301Y16994D01*
Y16892D01*
X22276Y16867D01*
X22225D01*
X22200Y16892D01*
Y16994D01*
X22428Y16867D02*
Y17019D01*
X22352Y16943D01*
X22453D01*
X25984Y16994D02*
X26010Y17019D01*
X26060D01*
X26086Y16994D01*
Y16892D01*
X26060Y16867D01*
X26010D01*
X25984Y16892D01*
Y16994D01*
X26137Y16968D02*
X26238Y16867D01*
X26187Y16918D01*
X26238Y16968D01*
X26137Y16867D01*
X26289Y16994D02*
X26314Y17019D01*
X26365D01*
X26390Y16994D01*
Y16892D01*
X26365Y16867D01*
X26314D01*
X26289Y16892D01*
Y16994D01*
X26543Y17019D02*
X26441D01*
Y16943D01*
X26492Y16968D01*
X26517D01*
X26543Y16943D01*
Y16892D01*
X26517Y16867D01*
X26467D01*
X26441Y16892D01*
X30023Y16994D02*
X30048Y17019D01*
X30099D01*
X30124Y16994D01*
Y16892D01*
X30099Y16867D01*
X30048D01*
X30023Y16892D01*
Y16994D01*
X30175Y16968D02*
X30277Y16867D01*
X30226Y16918D01*
X30277Y16968D01*
X30175Y16867D01*
X30328Y16994D02*
X30353Y17019D01*
X30404D01*
X30429Y16994D01*
Y16892D01*
X30404Y16867D01*
X30353D01*
X30328Y16892D01*
Y16994D01*
X30581Y17019D02*
X30531Y16994D01*
X30480Y16943D01*
Y16892D01*
X30505Y16867D01*
X30556D01*
X30581Y16892D01*
Y16918D01*
X30556Y16943D01*
X30480D01*
X34087Y16994D02*
X34112Y17019D01*
X34163D01*
X34188Y16994D01*
Y16892D01*
X34163Y16867D01*
X34112D01*
X34087Y16892D01*
Y16994D01*
X34239Y16968D02*
X34341Y16867D01*
X34290Y16918D01*
X34341Y16968D01*
X34239Y16867D01*
X34392Y16994D02*
X34417Y17019D01*
X34468D01*
X34493Y16994D01*
Y16892D01*
X34468Y16867D01*
X34417D01*
X34392Y16892D01*
Y16994D01*
X34544Y17019D02*
X34645D01*
Y16994D01*
X34544Y16892D01*
Y16867D01*
X38176Y16968D02*
X38202Y16994D01*
X38252D01*
X38278Y16968D01*
Y16867D01*
X38252Y16841D01*
X38202D01*
X38176Y16867D01*
Y16968D01*
X38329Y16943D02*
X38430Y16841D01*
X38379Y16892D01*
X38430Y16943D01*
X38329Y16841D01*
X38481Y16968D02*
X38506Y16994D01*
X38557D01*
X38582Y16968D01*
Y16867D01*
X38557Y16841D01*
X38506D01*
X38481Y16867D01*
Y16968D01*
X38633D02*
X38659Y16994D01*
X38709D01*
X38735Y16968D01*
Y16943D01*
X38709Y16918D01*
X38735Y16892D01*
Y16867D01*
X38709Y16841D01*
X38659D01*
X38633Y16867D01*
Y16892D01*
X38659Y16918D01*
X38633Y16943D01*
Y16968D01*
X38659Y16918D02*
X38709D01*
X42215Y16968D02*
X42240Y16994D01*
X42291D01*
X42316Y16968D01*
Y16867D01*
X42291Y16841D01*
X42240D01*
X42215Y16867D01*
Y16968D01*
X42367Y16943D02*
X42469Y16841D01*
X42418Y16892D01*
X42469Y16943D01*
X42367Y16841D01*
X42520Y16968D02*
X42545Y16994D01*
X42596D01*
X42621Y16968D01*
Y16867D01*
X42596Y16841D01*
X42545D01*
X42520Y16867D01*
Y16968D01*
X42672Y16867D02*
X42697Y16841D01*
X42748D01*
X42773Y16867D01*
Y16968D01*
X42748Y16994D01*
X42697D01*
X42672Y16968D01*
Y16943D01*
X42697Y16918D01*
X42773D01*
X7925Y17018D02*
X7899Y17043D01*
X7849D01*
X7823Y17018D01*
Y16916D01*
X7849Y16891D01*
X7899D01*
X7925Y16916D01*
X8001Y16891D02*
X8052D01*
X8077Y16916D01*
Y16967D01*
X8052Y16993D01*
X8001D01*
X7976Y16967D01*
Y16916D01*
X8001Y16891D01*
X8128D02*
Y16993D01*
X8204D01*
X8229Y16967D01*
Y16891D01*
X8306Y17018D02*
Y16993D01*
X8280D01*
X8331D01*
X8306D01*
Y16916D01*
X8331Y16891D01*
X8407Y16993D02*
Y16891D01*
Y16942D01*
X8433Y16967D01*
X8458Y16993D01*
X8483D01*
X8585Y16891D02*
X8636D01*
X8661Y16916D01*
Y16967D01*
X8636Y16993D01*
X8585D01*
X8560Y16967D01*
Y16916D01*
X8585Y16891D01*
X8712D02*
X8763D01*
X8737D01*
Y17043D01*
X8712D01*
X8839Y16891D02*
X8890D01*
X8864D01*
Y17043D01*
X8839D01*
X9042Y16891D02*
X8991D01*
X8966Y16916D01*
Y16967D01*
X8991Y16993D01*
X9042D01*
X9067Y16967D01*
Y16942D01*
X8966D01*
X9118Y16993D02*
Y16891D01*
Y16942D01*
X9144Y16967D01*
X9169Y16993D01*
X9194D01*
M02*
