G04 Layer_Color=16711935*
%FSLAX42Y42*%
%MOMM*%
G71*
G01*
G75*
%ADD16C,1.20*%
%ADD28C,0.20*%
%ADD29C,1.73*%
%ADD30C,2.20*%
%ADD31R,1.57X1.57*%
%ADD32C,1.57*%
%ADD33C,3.45*%
%ADD34C,4.96*%
%ADD35R,1.89X1.89*%
%ADD36C,1.89*%
%ADD37C,1.30*%
%ADD38R,1.10X0.90*%
D16*
X9474Y17120D02*
X9474Y4140D01*
X9474Y17120D02*
X22911Y17120D01*
X22911Y4140D01*
X9474Y4140D02*
X22911Y4140D01*
D28*
X20011Y11793D02*
D03*
Y12997D02*
D03*
D29*
X20281Y12270D02*
D03*
Y12520D02*
D03*
X19960D02*
D03*
Y12270D02*
D03*
X16002Y6693D02*
D03*
Y6947D02*
D03*
Y7201D02*
D03*
Y7455D02*
D03*
Y7709D02*
D03*
Y7963D02*
D03*
Y8217D02*
D03*
Y8471D02*
D03*
Y8725D02*
D03*
Y8979D02*
D03*
Y9233D02*
D03*
Y9487D02*
D03*
Y9741D02*
D03*
Y9995D02*
D03*
Y10249D02*
D03*
Y10503D02*
D03*
Y10757D02*
D03*
Y11011D02*
D03*
Y11265D02*
D03*
Y11519D02*
D03*
Y11773D02*
D03*
Y12027D02*
D03*
Y12281D02*
D03*
Y12535D02*
D03*
Y12789D02*
D03*
Y13043D02*
D03*
Y13297D02*
D03*
Y13551D02*
D03*
Y13805D02*
D03*
Y14059D02*
D03*
Y14313D02*
D03*
Y14567D02*
D03*
X16510Y6693D02*
D03*
Y6947D02*
D03*
Y7201D02*
D03*
Y7455D02*
D03*
Y7709D02*
D03*
Y7963D02*
D03*
Y8217D02*
D03*
Y8471D02*
D03*
Y8725D02*
D03*
Y8979D02*
D03*
Y9233D02*
D03*
Y9487D02*
D03*
Y9741D02*
D03*
Y9995D02*
D03*
Y10249D02*
D03*
Y10503D02*
D03*
Y10757D02*
D03*
Y11011D02*
D03*
Y11265D02*
D03*
Y11519D02*
D03*
Y11773D02*
D03*
Y12027D02*
D03*
Y12281D02*
D03*
Y12535D02*
D03*
Y12789D02*
D03*
Y13043D02*
D03*
Y13297D02*
D03*
Y13551D02*
D03*
Y13805D02*
D03*
Y14059D02*
D03*
Y14313D02*
D03*
Y14567D02*
D03*
X21082Y6693D02*
D03*
Y6947D02*
D03*
Y7201D02*
D03*
Y7455D02*
D03*
Y7709D02*
D03*
Y7963D02*
D03*
Y8217D02*
D03*
Y8471D02*
D03*
Y8725D02*
D03*
Y8979D02*
D03*
Y9233D02*
D03*
Y9487D02*
D03*
Y9741D02*
D03*
Y9995D02*
D03*
Y10249D02*
D03*
Y10503D02*
D03*
Y10757D02*
D03*
Y11011D02*
D03*
Y11265D02*
D03*
Y11519D02*
D03*
Y11773D02*
D03*
Y12027D02*
D03*
Y12281D02*
D03*
Y12535D02*
D03*
Y12789D02*
D03*
Y13043D02*
D03*
Y13297D02*
D03*
Y13551D02*
D03*
Y13805D02*
D03*
Y14059D02*
D03*
Y14313D02*
D03*
Y14567D02*
D03*
X21590Y6693D02*
D03*
Y6947D02*
D03*
Y7201D02*
D03*
Y7455D02*
D03*
Y7709D02*
D03*
Y7963D02*
D03*
Y8217D02*
D03*
Y8471D02*
D03*
Y8725D02*
D03*
Y8979D02*
D03*
Y9233D02*
D03*
Y9487D02*
D03*
Y9741D02*
D03*
Y9995D02*
D03*
Y10249D02*
D03*
Y10503D02*
D03*
Y10757D02*
D03*
Y11011D02*
D03*
Y11265D02*
D03*
Y11519D02*
D03*
Y11773D02*
D03*
Y12027D02*
D03*
Y12281D02*
D03*
Y12535D02*
D03*
Y12789D02*
D03*
Y13043D02*
D03*
Y13297D02*
D03*
Y13551D02*
D03*
Y13805D02*
D03*
Y14059D02*
D03*
Y14313D02*
D03*
Y14567D02*
D03*
X11938Y6693D02*
D03*
Y6947D02*
D03*
Y7201D02*
D03*
Y7455D02*
D03*
Y7709D02*
D03*
Y7963D02*
D03*
Y8217D02*
D03*
Y8471D02*
D03*
Y8725D02*
D03*
Y8979D02*
D03*
Y9233D02*
D03*
Y9487D02*
D03*
Y9741D02*
D03*
Y9995D02*
D03*
Y10249D02*
D03*
Y10503D02*
D03*
Y10757D02*
D03*
Y11011D02*
D03*
Y11265D02*
D03*
Y11519D02*
D03*
Y11773D02*
D03*
Y12027D02*
D03*
Y12281D02*
D03*
Y12535D02*
D03*
Y12789D02*
D03*
Y13043D02*
D03*
Y13297D02*
D03*
Y13551D02*
D03*
Y13805D02*
D03*
Y14059D02*
D03*
Y14313D02*
D03*
Y14567D02*
D03*
X12446Y6693D02*
D03*
Y6947D02*
D03*
Y7201D02*
D03*
Y7455D02*
D03*
Y7709D02*
D03*
Y7963D02*
D03*
Y8217D02*
D03*
Y8471D02*
D03*
Y8725D02*
D03*
Y8979D02*
D03*
Y9233D02*
D03*
Y9487D02*
D03*
Y9741D02*
D03*
Y9995D02*
D03*
Y10249D02*
D03*
Y10503D02*
D03*
Y10757D02*
D03*
Y11011D02*
D03*
Y11265D02*
D03*
Y11519D02*
D03*
Y11773D02*
D03*
Y12027D02*
D03*
Y12281D02*
D03*
Y12535D02*
D03*
Y12789D02*
D03*
Y13043D02*
D03*
Y13297D02*
D03*
Y13551D02*
D03*
Y13805D02*
D03*
Y14059D02*
D03*
Y14313D02*
D03*
Y14567D02*
D03*
D30*
X21844Y4519D02*
D03*
X22352D02*
D03*
X21336D02*
D03*
X20828D02*
D03*
X20320D02*
D03*
X22352Y16741D02*
D03*
X21336D02*
D03*
X21844D02*
D03*
X20320D02*
D03*
X20828D02*
D03*
X19812D02*
D03*
Y4519D02*
D03*
X11176Y16741D02*
D03*
X10668D02*
D03*
X10160D02*
D03*
X15240D02*
D03*
X14732D02*
D03*
X13716D02*
D03*
X14224D02*
D03*
X12192D02*
D03*
X11684D02*
D03*
X12700D02*
D03*
X13208D02*
D03*
X17272D02*
D03*
X16764D02*
D03*
X15748D02*
D03*
X16256D02*
D03*
X18288D02*
D03*
X17780D02*
D03*
X18796D02*
D03*
X19304D02*
D03*
X10160Y4519D02*
D03*
X14224D02*
D03*
X14732D02*
D03*
X13716D02*
D03*
X12192D02*
D03*
X13208D02*
D03*
X12700D02*
D03*
X10668D02*
D03*
X11684D02*
D03*
X11176D02*
D03*
X15748D02*
D03*
X16256D02*
D03*
X15240D02*
D03*
X17272D02*
D03*
X17780D02*
D03*
X16764D02*
D03*
X18288D02*
D03*
X19304D02*
D03*
X18796D02*
D03*
X10998Y14580D02*
D03*
Y14834D02*
D03*
Y15088D02*
D03*
D31*
X17196Y10973D02*
D03*
Y12827D02*
D03*
X13132D02*
D03*
Y10973D02*
D03*
D32*
X16942Y10846D02*
D03*
X17196Y10719D02*
D03*
X16942Y10592D02*
D03*
X17196Y10465D02*
D03*
X16942Y10338D02*
D03*
X17196Y10211D02*
D03*
X16942Y10084D02*
D03*
Y11938D02*
D03*
X17196Y12065D02*
D03*
X16942Y12192D02*
D03*
X17196Y12319D02*
D03*
X16942Y12446D02*
D03*
X17196Y12573D02*
D03*
X16942Y12700D02*
D03*
X12878Y11938D02*
D03*
X13132Y12065D02*
D03*
X12878Y12192D02*
D03*
X13132Y12319D02*
D03*
X12878Y12446D02*
D03*
X13132Y12573D02*
D03*
X12878Y12700D02*
D03*
Y10846D02*
D03*
X13132Y10719D02*
D03*
X12878Y10592D02*
D03*
X13132Y10465D02*
D03*
X12878Y10338D02*
D03*
X13132Y10211D02*
D03*
X12878Y10084D02*
D03*
D33*
X17831Y11100D02*
D03*
Y9957D02*
D03*
Y11811D02*
D03*
Y12954D02*
D03*
X13767Y11811D02*
D03*
Y12954D02*
D03*
Y11100D02*
D03*
Y9957D02*
D03*
D34*
X15052Y9225D02*
D03*
Y6726D02*
D03*
X17460D02*
D03*
Y9225D02*
D03*
X10988D02*
D03*
Y6726D02*
D03*
X13396D02*
D03*
Y9225D02*
D03*
D35*
X14910Y7422D02*
D03*
X17602Y8530D02*
D03*
X10846Y7422D02*
D03*
X13538Y8530D02*
D03*
D36*
X15194Y7560D02*
D03*
X14910Y7699D02*
D03*
X15194Y7837D02*
D03*
X14910Y7976D02*
D03*
X15194Y8114D02*
D03*
X14910Y8253D02*
D03*
X15194Y8391D02*
D03*
X14910Y8530D02*
D03*
X17318Y8391D02*
D03*
X17602Y8253D02*
D03*
X17318Y8114D02*
D03*
X17602Y7976D02*
D03*
X17318Y7837D02*
D03*
X17602Y7699D02*
D03*
X17318Y7560D02*
D03*
X17602Y7422D02*
D03*
X11130Y7560D02*
D03*
X10846Y7699D02*
D03*
X11130Y7837D02*
D03*
X10846Y7976D02*
D03*
X11130Y8114D02*
D03*
X10846Y8253D02*
D03*
X11130Y8391D02*
D03*
X10846Y8530D02*
D03*
X13254Y8391D02*
D03*
X13538Y8253D02*
D03*
X13254Y8114D02*
D03*
X13538Y7976D02*
D03*
X13254Y7837D02*
D03*
X13538Y7699D02*
D03*
X13254Y7560D02*
D03*
X13538Y7422D02*
D03*
D37*
X10744Y14580D02*
D03*
Y14834D02*
D03*
Y15088D02*
D03*
D38*
X22123Y13336D02*
D03*
Y13486D02*
D03*
X21869Y13565D02*
D03*
Y13715D02*
D03*
M02*
