G04 Layer_Color=16711935*
%FSLAX42Y42*%
%MOMM*%
G71*
G01*
G75*
%ADD13C,0.70*%
%ADD29R,7.32X3.41*%
%ADD30C,1.89*%
%ADD31R,1.89X1.89*%
%ADD32C,4.96*%
%ADD33C,4.20*%
%ADD34C,1.73*%
%ADD35C,2.70*%
%ADD36C,1.47*%
%ADD37R,5.20X0.96*%
%ADD38R,4.70X9.00*%
%ADD39R,0.96X5.20*%
%ADD40R,9.00X4.70*%
%ADD41R,2.46X2.36*%
D13*
X4648Y18263D02*
X4648Y5283D01*
X4648Y18263D02*
X46812Y18263D01*
Y5283D02*
Y18263D01*
X4648Y5283D02*
X46812Y5283D01*
D29*
X5437Y6369D02*
D03*
D30*
X19405Y10190D02*
D03*
X19121Y10329D02*
D03*
X19405Y10467D02*
D03*
X19121Y10606D02*
D03*
X19405Y10744D02*
D03*
X19121Y10883D02*
D03*
X19405Y11021D02*
D03*
X19121Y11160D02*
D03*
X23469Y10190D02*
D03*
X23185Y10329D02*
D03*
X23469Y10467D02*
D03*
X23185Y10606D02*
D03*
X23469Y10744D02*
D03*
X23185Y10883D02*
D03*
X23469Y11021D02*
D03*
X23185Y11160D02*
D03*
X27533Y10190D02*
D03*
X27249Y10329D02*
D03*
X27533Y10467D02*
D03*
X27249Y10606D02*
D03*
X27533Y10744D02*
D03*
X27249Y10883D02*
D03*
X27533Y11021D02*
D03*
X27249Y11160D02*
D03*
X31597Y10190D02*
D03*
X31313Y10329D02*
D03*
X31597Y10467D02*
D03*
X31313Y10606D02*
D03*
X31597Y10744D02*
D03*
X31313Y10883D02*
D03*
X31597Y11021D02*
D03*
X31313Y11160D02*
D03*
X35661Y10190D02*
D03*
X35377Y10329D02*
D03*
X35661Y10467D02*
D03*
X35377Y10606D02*
D03*
X35661Y10744D02*
D03*
X35377Y10883D02*
D03*
X35661Y11021D02*
D03*
X35377Y11160D02*
D03*
X39725Y10190D02*
D03*
X39441Y10329D02*
D03*
X39725Y10467D02*
D03*
X39441Y10606D02*
D03*
X39725Y10744D02*
D03*
X39441Y10883D02*
D03*
X39725Y11021D02*
D03*
X39441Y11160D02*
D03*
X43789Y10190D02*
D03*
X43505Y10329D02*
D03*
X43789Y10467D02*
D03*
X43505Y10606D02*
D03*
X43789Y10744D02*
D03*
X43505Y10883D02*
D03*
X43789Y11021D02*
D03*
X43505Y11160D02*
D03*
X43789Y7066D02*
D03*
X43505Y7204D02*
D03*
X43789Y7343D02*
D03*
X43505Y7482D02*
D03*
X43789Y7620D02*
D03*
X43505Y7758D02*
D03*
X43789Y7897D02*
D03*
X43505Y8036D02*
D03*
X39725Y7066D02*
D03*
X39441Y7204D02*
D03*
X39725Y7343D02*
D03*
X39441Y7482D02*
D03*
X39725Y7620D02*
D03*
X39441Y7758D02*
D03*
X39725Y7897D02*
D03*
X39441Y8036D02*
D03*
X35661Y7066D02*
D03*
X35377Y7204D02*
D03*
X35661Y7343D02*
D03*
X35377Y7482D02*
D03*
X35661Y7620D02*
D03*
X35377Y7758D02*
D03*
X35661Y7897D02*
D03*
X35377Y8036D02*
D03*
X31597Y7066D02*
D03*
X31313Y7204D02*
D03*
X31597Y7343D02*
D03*
X31313Y7482D02*
D03*
X31597Y7620D02*
D03*
X31313Y7758D02*
D03*
X31597Y7897D02*
D03*
X31313Y8036D02*
D03*
X27533Y7066D02*
D03*
X27249Y7204D02*
D03*
X27533Y7343D02*
D03*
X27249Y7482D02*
D03*
X27533Y7620D02*
D03*
X27249Y7758D02*
D03*
X27533Y7897D02*
D03*
X27249Y8036D02*
D03*
X23469Y7066D02*
D03*
X23185Y7204D02*
D03*
X23469Y7343D02*
D03*
X23185Y7482D02*
D03*
X23469Y7620D02*
D03*
X23185Y7758D02*
D03*
X23469Y7897D02*
D03*
X23185Y8036D02*
D03*
X19405Y7066D02*
D03*
X19121Y7204D02*
D03*
X19405Y7343D02*
D03*
X19121Y7482D02*
D03*
X19405Y7620D02*
D03*
X19121Y7758D02*
D03*
X19405Y7897D02*
D03*
X19121Y8036D02*
D03*
X15341Y10190D02*
D03*
X15057Y10329D02*
D03*
X15341Y10467D02*
D03*
X15057Y10606D02*
D03*
X15341Y10744D02*
D03*
X15057Y10883D02*
D03*
X15341Y11021D02*
D03*
X15057Y11160D02*
D03*
X15341Y7066D02*
D03*
X15057Y7204D02*
D03*
X15341Y7343D02*
D03*
X15057Y7482D02*
D03*
X15341Y7620D02*
D03*
X15057Y7758D02*
D03*
X15341Y7897D02*
D03*
X15057Y8036D02*
D03*
D31*
X19405Y11298D02*
D03*
X23469D02*
D03*
X27533D02*
D03*
X31597D02*
D03*
X35661D02*
D03*
X39725D02*
D03*
X43789D02*
D03*
Y8174D02*
D03*
X39725D02*
D03*
X35661D02*
D03*
X31597D02*
D03*
X27533D02*
D03*
X23469D02*
D03*
X19405D02*
D03*
X15341Y11298D02*
D03*
Y8174D02*
D03*
D32*
X19263Y11994D02*
D03*
Y9495D02*
D03*
X23327Y11994D02*
D03*
Y9495D02*
D03*
X27391Y11994D02*
D03*
Y9495D02*
D03*
X31455Y11994D02*
D03*
Y9495D02*
D03*
X35519Y11994D02*
D03*
Y9495D02*
D03*
X39583Y11994D02*
D03*
Y9495D02*
D03*
X43647Y11994D02*
D03*
Y9495D02*
D03*
Y8869D02*
D03*
Y6371D02*
D03*
X39583Y8869D02*
D03*
Y6371D02*
D03*
X35519Y8869D02*
D03*
Y6371D02*
D03*
X31455Y8869D02*
D03*
Y6371D02*
D03*
X27391Y8869D02*
D03*
Y6371D02*
D03*
X23327Y8869D02*
D03*
Y6371D02*
D03*
X19263Y8869D02*
D03*
Y6371D02*
D03*
X15199Y11994D02*
D03*
Y9495D02*
D03*
Y8869D02*
D03*
Y6371D02*
D03*
D33*
X4902Y17884D02*
D03*
X7340Y13012D02*
D03*
Y14216D02*
D03*
X5918Y17884D02*
D03*
X6934D02*
D03*
X7950D02*
D03*
X8966D02*
D03*
X9982D02*
D03*
X10998D02*
D03*
X12014D02*
D03*
X13030D02*
D03*
X14046D02*
D03*
X15062D02*
D03*
X16078D02*
D03*
X17094D02*
D03*
X18110D02*
D03*
X19126D02*
D03*
X20142D02*
D03*
X21158D02*
D03*
X22174D02*
D03*
X23190D02*
D03*
X24206D02*
D03*
X25222D02*
D03*
X26238D02*
D03*
X27254D02*
D03*
X28270D02*
D03*
X29286D02*
D03*
X30302D02*
D03*
X31318D02*
D03*
X32334D02*
D03*
X33350D02*
D03*
X34366D02*
D03*
X35382D02*
D03*
X36398D02*
D03*
X37414D02*
D03*
X38430D02*
D03*
X39446D02*
D03*
X40462D02*
D03*
X41478D02*
D03*
X42494D02*
D03*
X43510D02*
D03*
X44526D02*
D03*
X45542D02*
D03*
X46558D02*
D03*
X5410Y17882D02*
D03*
D03*
X6426D02*
D03*
X7442D02*
D03*
X8458D02*
D03*
X9474D02*
D03*
X10490D02*
D03*
X11506D02*
D03*
X12522D02*
D03*
X13538D02*
D03*
X14554D02*
D03*
X15570D02*
D03*
X16586D02*
D03*
X17602D02*
D03*
X18618D02*
D03*
X19634D02*
D03*
X20650D02*
D03*
X21666D02*
D03*
X22682D02*
D03*
X23698D02*
D03*
X24714D02*
D03*
X25730D02*
D03*
X26746D02*
D03*
X27762D02*
D03*
X28778D02*
D03*
X29794D02*
D03*
X30810D02*
D03*
X31826D02*
D03*
X32842D02*
D03*
X33858D02*
D03*
X34874D02*
D03*
X35890D02*
D03*
X36906D02*
D03*
X37922D02*
D03*
X38938D02*
D03*
X39954D02*
D03*
X40970D02*
D03*
X41986D02*
D03*
X43002D02*
D03*
X44018D02*
D03*
X45034D02*
D03*
X46050D02*
D03*
X4902Y5662D02*
D03*
X5918D02*
D03*
X6934D02*
D03*
X7950D02*
D03*
X8966D02*
D03*
X9982D02*
D03*
X10998D02*
D03*
X12014D02*
D03*
X13030D02*
D03*
X14046D02*
D03*
X15062D02*
D03*
X16078D02*
D03*
X17094D02*
D03*
X18110D02*
D03*
X19126D02*
D03*
X20142D02*
D03*
X21158D02*
D03*
X22174D02*
D03*
X23190D02*
D03*
X24206D02*
D03*
X25222D02*
D03*
X26238D02*
D03*
X27254D02*
D03*
X28270D02*
D03*
X29286D02*
D03*
X30302D02*
D03*
X31318D02*
D03*
X32334D02*
D03*
X33350D02*
D03*
X34366D02*
D03*
X35382D02*
D03*
X36398D02*
D03*
X37414D02*
D03*
X38430D02*
D03*
X39446D02*
D03*
X40462D02*
D03*
X41478D02*
D03*
X42494D02*
D03*
X43510D02*
D03*
X44526D02*
D03*
X45542D02*
D03*
X46558D02*
D03*
X5410Y5664D02*
D03*
X6426D02*
D03*
X7442D02*
D03*
X8458D02*
D03*
X9474D02*
D03*
X10490D02*
D03*
X11506D02*
D03*
X12522D02*
D03*
X13538D02*
D03*
X14554D02*
D03*
X15570D02*
D03*
X16586D02*
D03*
X17602D02*
D03*
X18618D02*
D03*
X19634D02*
D03*
X20650D02*
D03*
X21666D02*
D03*
X22682D02*
D03*
X23698D02*
D03*
X24714D02*
D03*
X25730D02*
D03*
X26746D02*
D03*
X27762D02*
D03*
X28778D02*
D03*
X29794D02*
D03*
X30810D02*
D03*
X31826D02*
D03*
X32842D02*
D03*
X33858D02*
D03*
X34874D02*
D03*
X35890D02*
D03*
X36906D02*
D03*
X37922D02*
D03*
X38938D02*
D03*
X39954D02*
D03*
X40970D02*
D03*
X41986D02*
D03*
X43002D02*
D03*
X44018D02*
D03*
X45034D02*
D03*
X46050D02*
D03*
D34*
X13767Y7836D02*
D03*
Y8090D02*
D03*
Y8344D02*
D03*
Y8598D02*
D03*
Y8852D02*
D03*
Y9106D02*
D03*
Y9360D02*
D03*
Y9614D02*
D03*
Y9868D02*
D03*
Y10122D02*
D03*
Y10376D02*
D03*
Y10630D02*
D03*
Y10884D02*
D03*
Y11138D02*
D03*
Y11392D02*
D03*
Y11646D02*
D03*
Y11900D02*
D03*
Y12154D02*
D03*
Y12408D02*
D03*
Y12662D02*
D03*
Y12916D02*
D03*
Y13170D02*
D03*
Y13424D02*
D03*
Y13678D02*
D03*
Y13932D02*
D03*
Y14186D02*
D03*
Y14440D02*
D03*
Y14694D02*
D03*
Y14948D02*
D03*
Y15202D02*
D03*
Y15456D02*
D03*
Y15710D02*
D03*
X14275Y7836D02*
D03*
Y8090D02*
D03*
Y8344D02*
D03*
Y8598D02*
D03*
Y8852D02*
D03*
Y9106D02*
D03*
Y9360D02*
D03*
Y9614D02*
D03*
Y9868D02*
D03*
Y10122D02*
D03*
Y10376D02*
D03*
Y10630D02*
D03*
Y10884D02*
D03*
Y11138D02*
D03*
Y11392D02*
D03*
Y11646D02*
D03*
Y11900D02*
D03*
Y12154D02*
D03*
Y12408D02*
D03*
Y12662D02*
D03*
Y12916D02*
D03*
Y13170D02*
D03*
Y13424D02*
D03*
Y13678D02*
D03*
Y13932D02*
D03*
Y14186D02*
D03*
Y14440D02*
D03*
Y14694D02*
D03*
Y14948D02*
D03*
Y15202D02*
D03*
Y15456D02*
D03*
Y15710D02*
D03*
X8204Y7836D02*
D03*
Y8090D02*
D03*
Y8344D02*
D03*
Y8598D02*
D03*
Y8852D02*
D03*
Y9106D02*
D03*
Y9360D02*
D03*
Y9614D02*
D03*
Y9868D02*
D03*
Y10122D02*
D03*
Y10376D02*
D03*
Y10630D02*
D03*
Y10884D02*
D03*
Y11138D02*
D03*
Y11392D02*
D03*
Y11646D02*
D03*
Y11900D02*
D03*
Y12154D02*
D03*
Y12408D02*
D03*
Y12662D02*
D03*
Y12916D02*
D03*
Y13170D02*
D03*
Y13424D02*
D03*
Y13678D02*
D03*
Y13932D02*
D03*
Y14186D02*
D03*
Y14440D02*
D03*
Y14694D02*
D03*
Y14948D02*
D03*
Y15202D02*
D03*
Y15456D02*
D03*
Y15710D02*
D03*
X8712Y7836D02*
D03*
Y8090D02*
D03*
Y8344D02*
D03*
Y8598D02*
D03*
Y8852D02*
D03*
Y9106D02*
D03*
Y9360D02*
D03*
Y9614D02*
D03*
Y9868D02*
D03*
Y10122D02*
D03*
Y10376D02*
D03*
Y10630D02*
D03*
Y10884D02*
D03*
Y11138D02*
D03*
Y11392D02*
D03*
Y11646D02*
D03*
Y11900D02*
D03*
Y12154D02*
D03*
Y12408D02*
D03*
Y12662D02*
D03*
Y12916D02*
D03*
Y13170D02*
D03*
Y13424D02*
D03*
Y13678D02*
D03*
Y13932D02*
D03*
Y14186D02*
D03*
Y14440D02*
D03*
Y14694D02*
D03*
Y14948D02*
D03*
Y15202D02*
D03*
Y15456D02*
D03*
Y15710D02*
D03*
X17831Y7836D02*
D03*
Y8090D02*
D03*
Y8344D02*
D03*
Y8598D02*
D03*
Y8852D02*
D03*
Y9106D02*
D03*
Y9360D02*
D03*
Y9614D02*
D03*
Y9868D02*
D03*
Y10122D02*
D03*
Y10376D02*
D03*
Y10630D02*
D03*
Y10884D02*
D03*
Y11138D02*
D03*
Y11392D02*
D03*
Y11646D02*
D03*
Y11900D02*
D03*
Y12154D02*
D03*
Y12408D02*
D03*
Y12662D02*
D03*
Y12916D02*
D03*
Y13170D02*
D03*
Y13424D02*
D03*
Y13678D02*
D03*
Y13932D02*
D03*
Y14186D02*
D03*
Y14440D02*
D03*
Y14694D02*
D03*
Y14948D02*
D03*
Y15202D02*
D03*
Y15456D02*
D03*
Y15710D02*
D03*
X18339Y7836D02*
D03*
Y8090D02*
D03*
Y8344D02*
D03*
Y8598D02*
D03*
Y8852D02*
D03*
Y9106D02*
D03*
Y9360D02*
D03*
Y9614D02*
D03*
Y9868D02*
D03*
Y10122D02*
D03*
Y10376D02*
D03*
Y10630D02*
D03*
Y10884D02*
D03*
Y11138D02*
D03*
Y11392D02*
D03*
Y11646D02*
D03*
Y11900D02*
D03*
Y12154D02*
D03*
Y12408D02*
D03*
Y12662D02*
D03*
Y12916D02*
D03*
Y13170D02*
D03*
Y13424D02*
D03*
Y13678D02*
D03*
Y13932D02*
D03*
Y14186D02*
D03*
Y14440D02*
D03*
Y14694D02*
D03*
Y14948D02*
D03*
Y15202D02*
D03*
Y15456D02*
D03*
Y15710D02*
D03*
X21895Y7836D02*
D03*
Y8090D02*
D03*
Y8344D02*
D03*
Y8598D02*
D03*
Y8852D02*
D03*
Y9106D02*
D03*
Y9360D02*
D03*
Y9614D02*
D03*
Y9868D02*
D03*
Y10122D02*
D03*
Y10376D02*
D03*
Y10630D02*
D03*
Y10884D02*
D03*
Y11138D02*
D03*
Y11392D02*
D03*
Y11646D02*
D03*
Y11900D02*
D03*
Y12154D02*
D03*
Y12408D02*
D03*
Y12662D02*
D03*
Y12916D02*
D03*
Y13170D02*
D03*
Y13424D02*
D03*
Y13678D02*
D03*
Y13932D02*
D03*
Y14186D02*
D03*
Y14440D02*
D03*
Y14694D02*
D03*
Y14948D02*
D03*
Y15202D02*
D03*
Y15456D02*
D03*
Y15710D02*
D03*
X22403Y7836D02*
D03*
Y8090D02*
D03*
Y8344D02*
D03*
Y8598D02*
D03*
Y8852D02*
D03*
Y9106D02*
D03*
Y9360D02*
D03*
Y9614D02*
D03*
Y9868D02*
D03*
Y10122D02*
D03*
Y10376D02*
D03*
Y10630D02*
D03*
Y10884D02*
D03*
Y11138D02*
D03*
Y11392D02*
D03*
Y11646D02*
D03*
Y11900D02*
D03*
Y12154D02*
D03*
Y12408D02*
D03*
Y12662D02*
D03*
Y12916D02*
D03*
Y13170D02*
D03*
Y13424D02*
D03*
Y13678D02*
D03*
Y13932D02*
D03*
Y14186D02*
D03*
Y14440D02*
D03*
Y14694D02*
D03*
Y14948D02*
D03*
Y15202D02*
D03*
Y15456D02*
D03*
Y15710D02*
D03*
X25959Y7836D02*
D03*
Y8090D02*
D03*
Y8344D02*
D03*
Y8598D02*
D03*
Y8852D02*
D03*
Y9106D02*
D03*
Y9360D02*
D03*
Y9614D02*
D03*
Y9868D02*
D03*
Y10122D02*
D03*
Y10376D02*
D03*
Y10630D02*
D03*
Y10884D02*
D03*
Y11138D02*
D03*
Y11392D02*
D03*
Y11646D02*
D03*
Y11900D02*
D03*
Y12154D02*
D03*
Y12408D02*
D03*
Y12662D02*
D03*
Y12916D02*
D03*
Y13170D02*
D03*
Y13424D02*
D03*
Y13678D02*
D03*
Y13932D02*
D03*
Y14186D02*
D03*
Y14440D02*
D03*
Y14694D02*
D03*
Y14948D02*
D03*
Y15202D02*
D03*
Y15456D02*
D03*
Y15710D02*
D03*
X26467Y7836D02*
D03*
Y8090D02*
D03*
Y8344D02*
D03*
Y8598D02*
D03*
Y8852D02*
D03*
Y9106D02*
D03*
Y9360D02*
D03*
Y9614D02*
D03*
Y9868D02*
D03*
Y10122D02*
D03*
Y10376D02*
D03*
Y10630D02*
D03*
Y10884D02*
D03*
Y11138D02*
D03*
Y11392D02*
D03*
Y11646D02*
D03*
Y11900D02*
D03*
Y12154D02*
D03*
Y12408D02*
D03*
Y12662D02*
D03*
Y12916D02*
D03*
Y13170D02*
D03*
Y13424D02*
D03*
Y13678D02*
D03*
Y13932D02*
D03*
Y14186D02*
D03*
Y14440D02*
D03*
Y14694D02*
D03*
Y14948D02*
D03*
Y15202D02*
D03*
Y15456D02*
D03*
Y15710D02*
D03*
X30023Y7836D02*
D03*
Y8090D02*
D03*
Y8344D02*
D03*
Y8598D02*
D03*
Y8852D02*
D03*
Y9106D02*
D03*
Y9360D02*
D03*
Y9614D02*
D03*
Y9868D02*
D03*
Y10122D02*
D03*
Y10376D02*
D03*
Y10630D02*
D03*
Y10884D02*
D03*
Y11138D02*
D03*
Y11392D02*
D03*
Y11646D02*
D03*
Y11900D02*
D03*
Y12154D02*
D03*
Y12408D02*
D03*
Y12662D02*
D03*
Y12916D02*
D03*
Y13170D02*
D03*
Y13424D02*
D03*
Y13678D02*
D03*
Y13932D02*
D03*
Y14186D02*
D03*
Y14440D02*
D03*
Y14694D02*
D03*
Y14948D02*
D03*
Y15202D02*
D03*
Y15456D02*
D03*
Y15710D02*
D03*
X30531Y7836D02*
D03*
Y8090D02*
D03*
Y8344D02*
D03*
Y8598D02*
D03*
Y8852D02*
D03*
Y9106D02*
D03*
Y9360D02*
D03*
Y9614D02*
D03*
Y9868D02*
D03*
Y10122D02*
D03*
Y10376D02*
D03*
Y10630D02*
D03*
Y10884D02*
D03*
Y11138D02*
D03*
Y11392D02*
D03*
Y11646D02*
D03*
Y11900D02*
D03*
Y12154D02*
D03*
Y12408D02*
D03*
Y12662D02*
D03*
Y12916D02*
D03*
Y13170D02*
D03*
Y13424D02*
D03*
Y13678D02*
D03*
Y13932D02*
D03*
Y14186D02*
D03*
Y14440D02*
D03*
Y14694D02*
D03*
Y14948D02*
D03*
Y15202D02*
D03*
Y15456D02*
D03*
Y15710D02*
D03*
X34087Y7836D02*
D03*
Y8090D02*
D03*
Y8344D02*
D03*
Y8598D02*
D03*
Y8852D02*
D03*
Y9106D02*
D03*
Y9360D02*
D03*
Y9614D02*
D03*
Y9868D02*
D03*
Y10122D02*
D03*
Y10376D02*
D03*
Y10630D02*
D03*
Y10884D02*
D03*
Y11138D02*
D03*
Y11392D02*
D03*
Y11646D02*
D03*
Y11900D02*
D03*
Y12154D02*
D03*
Y12408D02*
D03*
Y12662D02*
D03*
Y12916D02*
D03*
Y13170D02*
D03*
Y13424D02*
D03*
Y13678D02*
D03*
Y13932D02*
D03*
Y14186D02*
D03*
Y14440D02*
D03*
Y14694D02*
D03*
Y14948D02*
D03*
Y15202D02*
D03*
Y15456D02*
D03*
Y15710D02*
D03*
X34595Y7836D02*
D03*
Y8090D02*
D03*
Y8344D02*
D03*
Y8598D02*
D03*
Y8852D02*
D03*
Y9106D02*
D03*
Y9360D02*
D03*
Y9614D02*
D03*
Y9868D02*
D03*
Y10122D02*
D03*
Y10376D02*
D03*
Y10630D02*
D03*
Y10884D02*
D03*
Y11138D02*
D03*
Y11392D02*
D03*
Y11646D02*
D03*
Y11900D02*
D03*
Y12154D02*
D03*
Y12408D02*
D03*
Y12662D02*
D03*
Y12916D02*
D03*
Y13170D02*
D03*
Y13424D02*
D03*
Y13678D02*
D03*
Y13932D02*
D03*
Y14186D02*
D03*
Y14440D02*
D03*
Y14694D02*
D03*
Y14948D02*
D03*
Y15202D02*
D03*
Y15456D02*
D03*
Y15710D02*
D03*
X38151Y7836D02*
D03*
Y8090D02*
D03*
Y8344D02*
D03*
Y8598D02*
D03*
Y8852D02*
D03*
Y9106D02*
D03*
Y9360D02*
D03*
Y9614D02*
D03*
Y9868D02*
D03*
Y10122D02*
D03*
Y10376D02*
D03*
Y10630D02*
D03*
Y10884D02*
D03*
Y11138D02*
D03*
Y11392D02*
D03*
Y11646D02*
D03*
Y11900D02*
D03*
Y12154D02*
D03*
Y12408D02*
D03*
Y12662D02*
D03*
Y12916D02*
D03*
Y13170D02*
D03*
Y13424D02*
D03*
Y13678D02*
D03*
Y13932D02*
D03*
Y14186D02*
D03*
Y14440D02*
D03*
Y14694D02*
D03*
Y14948D02*
D03*
Y15202D02*
D03*
Y15456D02*
D03*
Y15710D02*
D03*
X38659Y7836D02*
D03*
Y8090D02*
D03*
Y8344D02*
D03*
Y8598D02*
D03*
Y8852D02*
D03*
Y9106D02*
D03*
Y9360D02*
D03*
Y9614D02*
D03*
Y9868D02*
D03*
Y10122D02*
D03*
Y10376D02*
D03*
Y10630D02*
D03*
Y10884D02*
D03*
Y11138D02*
D03*
Y11392D02*
D03*
Y11646D02*
D03*
Y11900D02*
D03*
Y12154D02*
D03*
Y12408D02*
D03*
Y12662D02*
D03*
Y12916D02*
D03*
Y13170D02*
D03*
Y13424D02*
D03*
Y13678D02*
D03*
Y13932D02*
D03*
Y14186D02*
D03*
Y14440D02*
D03*
Y14694D02*
D03*
Y14948D02*
D03*
Y15202D02*
D03*
Y15456D02*
D03*
Y15710D02*
D03*
X42215Y7836D02*
D03*
Y8090D02*
D03*
Y8344D02*
D03*
Y8598D02*
D03*
Y8852D02*
D03*
Y9106D02*
D03*
Y9360D02*
D03*
Y9614D02*
D03*
Y9868D02*
D03*
Y10122D02*
D03*
Y10376D02*
D03*
Y10630D02*
D03*
Y10884D02*
D03*
Y11138D02*
D03*
Y11392D02*
D03*
Y11646D02*
D03*
Y11900D02*
D03*
Y12154D02*
D03*
Y12408D02*
D03*
Y12662D02*
D03*
Y12916D02*
D03*
Y13170D02*
D03*
Y13424D02*
D03*
Y13678D02*
D03*
Y13932D02*
D03*
Y14186D02*
D03*
Y14440D02*
D03*
Y14694D02*
D03*
Y14948D02*
D03*
Y15202D02*
D03*
Y15456D02*
D03*
Y15710D02*
D03*
X42723Y7836D02*
D03*
Y8090D02*
D03*
Y8344D02*
D03*
Y8598D02*
D03*
Y8852D02*
D03*
Y9106D02*
D03*
Y9360D02*
D03*
Y9614D02*
D03*
Y9868D02*
D03*
Y10122D02*
D03*
Y10376D02*
D03*
Y10630D02*
D03*
Y10884D02*
D03*
Y11138D02*
D03*
Y11392D02*
D03*
Y11646D02*
D03*
Y11900D02*
D03*
Y12154D02*
D03*
Y12408D02*
D03*
Y12662D02*
D03*
Y12916D02*
D03*
Y13170D02*
D03*
Y13424D02*
D03*
Y13678D02*
D03*
Y13932D02*
D03*
Y14186D02*
D03*
Y14440D02*
D03*
Y14694D02*
D03*
Y14948D02*
D03*
Y15202D02*
D03*
Y15456D02*
D03*
Y15710D02*
D03*
X7611Y13489D02*
D03*
Y13739D02*
D03*
X7290D02*
D03*
Y13489D02*
D03*
D35*
X6833Y15573D02*
D03*
Y16685D02*
D03*
D36*
X12256Y12027D02*
D03*
X14834Y13093D02*
D03*
X16078Y12395D02*
D03*
X18898Y13144D02*
D03*
X20168Y12421D02*
D03*
X24206Y12409D02*
D03*
X22962Y13144D02*
D03*
X27026Y13118D02*
D03*
X28321Y12421D02*
D03*
X31090Y13081D02*
D03*
X32334Y12421D02*
D03*
X40474D02*
D03*
X36461D02*
D03*
X35154Y13106D02*
D03*
X39218Y13144D02*
D03*
X43282Y13132D02*
D03*
D37*
X14834Y13322D02*
D03*
Y13449D02*
D03*
Y13576D02*
D03*
Y13703D02*
D03*
Y13830D02*
D03*
Y13957D02*
D03*
Y14084D02*
D03*
Y14211D02*
D03*
X18898Y13322D02*
D03*
Y13449D02*
D03*
Y13576D02*
D03*
Y13703D02*
D03*
Y13830D02*
D03*
Y13957D02*
D03*
Y14084D02*
D03*
Y14211D02*
D03*
X22962Y13322D02*
D03*
Y13449D02*
D03*
Y13576D02*
D03*
Y13703D02*
D03*
Y13830D02*
D03*
Y13957D02*
D03*
Y14084D02*
D03*
Y14211D02*
D03*
X27026Y13322D02*
D03*
Y13449D02*
D03*
Y13576D02*
D03*
Y13703D02*
D03*
Y13830D02*
D03*
Y13957D02*
D03*
Y14084D02*
D03*
Y14211D02*
D03*
X31090Y13322D02*
D03*
Y13449D02*
D03*
Y13576D02*
D03*
Y13703D02*
D03*
Y13830D02*
D03*
Y13957D02*
D03*
Y14084D02*
D03*
Y14211D02*
D03*
X35154Y13322D02*
D03*
Y13449D02*
D03*
Y13576D02*
D03*
Y13703D02*
D03*
Y13830D02*
D03*
Y13957D02*
D03*
Y14084D02*
D03*
Y14211D02*
D03*
X39218Y13322D02*
D03*
Y13449D02*
D03*
Y13576D02*
D03*
Y13703D02*
D03*
Y13830D02*
D03*
Y13957D02*
D03*
Y14084D02*
D03*
Y14211D02*
D03*
X43282Y13322D02*
D03*
Y13449D02*
D03*
Y13576D02*
D03*
Y13703D02*
D03*
Y13830D02*
D03*
Y13957D02*
D03*
Y14084D02*
D03*
Y14211D02*
D03*
D38*
X16439Y13767D02*
D03*
X20503D02*
D03*
X24567D02*
D03*
X28631D02*
D03*
X32695D02*
D03*
X36759D02*
D03*
X40823D02*
D03*
X44887D02*
D03*
D39*
X12256Y12421D02*
D03*
X12382D02*
D03*
X12510D02*
D03*
X12636D02*
D03*
X12764D02*
D03*
X12890D02*
D03*
X13018D02*
D03*
X13145D02*
D03*
X16320D02*
D03*
X16446D02*
D03*
X16574D02*
D03*
X16701D02*
D03*
X16827D02*
D03*
X16954D02*
D03*
X17082D02*
D03*
X17209D02*
D03*
X20384D02*
D03*
X20510D02*
D03*
X20638D02*
D03*
X20765D02*
D03*
X20891D02*
D03*
X21018D02*
D03*
X21146D02*
D03*
X21273D02*
D03*
X24448D02*
D03*
X24574D02*
D03*
X24701D02*
D03*
X24829D02*
D03*
X24955D02*
D03*
X25082D02*
D03*
X25210D02*
D03*
X25337D02*
D03*
X28511D02*
D03*
X28639D02*
D03*
X28765D02*
D03*
X28892D02*
D03*
X29020D02*
D03*
X29146D02*
D03*
X29273D02*
D03*
X29401D02*
D03*
X32576D02*
D03*
X32702D02*
D03*
X32830D02*
D03*
X32957D02*
D03*
X33083D02*
D03*
X33211D02*
D03*
X33338D02*
D03*
X33464D02*
D03*
X36639D02*
D03*
X36767D02*
D03*
X36893D02*
D03*
X37020D02*
D03*
X37148D02*
D03*
X37274D02*
D03*
X37402D02*
D03*
X37529D02*
D03*
X40704D02*
D03*
X40830D02*
D03*
X40958D02*
D03*
X41085D02*
D03*
X41211D02*
D03*
X41339D02*
D03*
X41465D02*
D03*
X41592D02*
D03*
D40*
X12700Y10816D02*
D03*
X16764D02*
D03*
X20828D02*
D03*
X24892D02*
D03*
X28956D02*
D03*
X33020D02*
D03*
X37084D02*
D03*
X41148D02*
D03*
D41*
X7645Y16214D02*
D03*
Y16704D02*
D03*
M02*
