M48
;Layer_Color=9474304
;FILE_FORMAT=4:2
METRIC,LZ
;TYPE=PLATED
T1F00S00C0.71
T2F00S00C0.92
T3F00S00C1.00
T4F00S00C1.09
T5F00S00C1.85
T6F00S00C2.30
T7F00S00C2.60
T8F00S00C3.26
%
T01
X043282Y013132
X040474Y012421
X039218Y013144
X036461Y012421
X035154Y013106
X032334Y012421
X03109Y013081
X028321Y012421
X027026Y013118
X024206Y012409
X022962Y013144
X020168Y012421
X018898Y013144
X016078Y012395
X014834Y013093
X012256Y012027
T02
X00729Y013489
Y013739
X007611
Y013489
T03
X042723Y007836
X042215
X038659
X038151
X034595
X034087
X030531
X030023
X026467
X025959
X022403
X021895
X018339
X017831
X014275
X013767
X008712
X008204
Y00809
Y008344
Y008598
Y008852
Y009106
Y00936
Y009614
Y009868
Y010122
Y010376
Y01063
Y010884
Y011138
Y011392
Y011646
Y0119
X008712
Y011646
Y011392
Y011138
Y010884
Y01063
Y010376
Y010122
Y009868
Y009614
Y00936
Y009106
Y008852
Y008598
Y008344
Y00809
X013767
Y008344
Y008598
Y008852
Y009106
Y00936
Y009614
Y009868
Y010122
Y010376
Y01063
Y010884
Y011138
Y011392
Y011646
Y0119
X014275
Y011646
Y011392
Y011138
Y010884
Y01063
Y010376
Y010122
Y009868
Y009614
Y00936
Y009106
Y008852
Y008598
Y008344
Y00809
X017831
Y008344
Y008598
Y008852
Y009106
Y00936
Y009614
Y009868
Y010122
Y010376
Y01063
Y010884
Y011138
Y011392
Y011646
Y0119
X018339
Y011646
Y011392
Y011138
Y010884
Y01063
Y010376
Y010122
Y009868
Y009614
Y00936
Y009106
Y008852
Y008598
Y008344
Y00809
X021895
Y008344
Y008598
Y008852
Y009106
Y00936
Y009614
Y009868
Y010122
Y010376
Y01063
Y010884
Y011138
Y011392
Y011646
Y0119
X022403
Y011646
Y011392
Y011138
Y010884
Y01063
Y010376
Y010122
Y009868
Y009614
Y00936
Y009106
Y008852
Y008598
Y008344
Y00809
X025959
Y008344
Y008598
Y008852
Y009106
Y00936
Y009614
Y009868
Y010122
Y010376
Y01063
Y010884
Y011138
Y011392
Y011646
Y0119
X026467
Y011646
Y011392
Y011138
Y010884
Y01063
Y010376
Y010122
Y009868
Y009614
Y00936
Y009106
Y008852
Y008598
Y008344
Y00809
X030023
Y008344
Y008598
Y008852
Y009106
Y00936
Y009614
Y009868
Y010122
Y010376
Y01063
Y010884
Y011138
Y011392
Y011646
Y0119
X030531
Y011646
Y011392
Y011138
Y010884
Y01063
Y010376
Y010122
Y009868
Y009614
Y00936
Y009106
Y008852
Y008598
Y008344
Y00809
X034087
Y008344
Y008598
Y008852
Y009106
Y00936
Y009614
Y009868
Y010122
Y010376
Y01063
Y010884
Y011138
Y011392
Y011646
Y0119
X034595
Y011646
Y011392
Y011138
Y010884
Y01063
Y010376
Y010122
Y009868
Y009614
Y00936
Y009106
Y008852
Y008598
Y008344
Y00809
X038151
Y008344
Y008598
Y008852
Y009106
Y00936
Y009614
Y009868
Y010122
Y010376
Y01063
Y010884
Y011138
Y011392
Y011646
Y0119
X038659
Y011646
Y011392
Y011138
Y010884
Y01063
Y010376
Y010122
Y009868
Y009614
Y00936
Y009106
Y008852
Y008598
Y008344
Y00809
X042215
Y008344
Y008598
Y008852
Y009106
Y00936
Y009614
Y009868
Y010122
Y010376
Y01063
Y010884
Y011138
Y011392
Y011646
Y0119
X042723
Y011646
Y011392
Y011138
Y010884
Y01063
Y010376
Y010122
Y009868
Y009614
Y00936
Y009106
Y008852
Y008598
Y008344
Y00809
Y012154
Y012408
Y012662
Y012916
Y01317
Y013424
Y013678
Y013932
Y014186
Y01444
Y014694
Y014948
Y015202
Y015456
Y01571
X042215
Y015456
Y015202
Y014948
Y014694
Y01444
Y014186
Y013932
Y013678
Y013424
Y01317
Y012916
Y012662
Y012408
Y012154
X038659
Y012408
Y012662
Y012916
Y01317
Y013424
Y013678
Y013932
Y014186
Y01444
Y014694
Y014948
Y015202
Y015456
Y01571
X038151
Y015456
Y015202
Y014948
Y014694
Y01444
Y014186
Y013932
Y013678
Y013424
Y01317
Y012916
Y012662
Y012408
Y012154
X034595
Y012408
Y012662
Y012916
Y01317
Y013424
Y013678
Y013932
Y014186
Y01444
Y014694
Y014948
Y015202
Y015456
Y01571
X034087
Y015456
Y015202
Y014948
Y014694
Y01444
Y014186
Y013932
Y013678
Y013424
Y01317
Y012916
Y012662
Y012408
Y012154
X030531
Y012408
Y012662
Y012916
Y01317
Y013424
Y013678
Y013932
Y014186
Y01444
Y014694
Y014948
Y015202
Y015456
Y01571
X030023
Y015456
Y015202
Y014948
Y014694
Y01444
Y014186
Y013932
Y013678
Y013424
Y01317
Y012916
Y012662
Y012408
Y012154
X026467
Y012408
Y012662
Y012916
Y01317
Y013424
Y013678
Y013932
Y014186
Y01444
Y014694
Y014948
Y015202
Y015456
Y01571
X025959
Y015456
Y015202
Y014948
Y014694
Y01444
Y014186
Y013932
Y013678
Y013424
Y01317
Y012916
Y012662
Y012408
Y012154
X022403
Y012408
Y012662
Y012916
Y01317
Y013424
Y013678
Y013932
Y014186
Y01444
Y014694
Y014948
Y015202
Y015456
Y01571
X021895
Y015456
Y015202
Y014948
Y014694
Y01444
Y014186
Y013932
Y013678
Y013424
Y01317
Y012916
Y012662
Y012408
Y012154
X018339
Y012408
Y012662
Y012916
Y01317
Y013424
Y013678
Y013932
Y014186
Y01444
Y014694
Y014948
Y015202
Y015456
Y01571
X017831
Y015456
Y015202
Y014948
Y014694
Y01444
Y014186
Y013932
Y013678
Y013424
Y01317
Y012916
Y012662
Y012408
Y012154
X014275
Y012408
Y012662
Y012916
Y01317
Y013424
Y013678
Y013932
Y014186
Y01444
Y014694
Y014948
Y015202
Y015456
Y01571
X013767
Y015456
Y015202
Y014948
Y014694
Y01444
Y014186
Y013932
Y013678
Y013424
Y01317
Y012916
Y012662
Y012408
Y012154
X008712
Y012408
Y012662
Y012916
Y01317
Y013424
Y013678
Y013932
Y014186
Y01444
Y014694
Y014948
Y015202
Y015456
Y01571
X008204
Y015456
Y015202
Y014948
Y014694
Y01444
Y014186
Y013932
Y013678
Y013424
Y01317
Y012916
Y012662
Y012408
Y012154
T04
X043789Y007066
Y007343
Y00762
Y007897
X043505Y007758
Y007482
Y007204
X039725Y007066
Y007343
Y00762
Y007897
X039441Y007758
Y007482
Y007204
X035661Y007066
Y007343
Y00762
Y007897
X035377Y007758
Y007482
Y007204
X031597Y007066
Y007343
Y00762
Y007897
X031313Y007758
Y007482
Y007204
X027533Y007066
Y007343
Y00762
Y007897
X027249Y007758
Y007482
Y007204
X023469Y007066
Y007343
Y00762
Y007897
X023185Y007758
Y007482
Y007204
X019405Y007066
Y007343
Y00762
Y007897
X019121Y007758
Y007482
Y007204
X015341Y007066
Y007343
Y00762
Y007897
X015057Y007758
Y007482
Y007204
Y008036
X015341Y008174
Y01019
Y010467
Y010744
Y011021
Y011298
X015057Y01116
Y010883
Y010606
Y010329
X019121
Y010606
Y010883
Y01116
X019405Y011298
Y011021
Y010744
Y010467
Y01019
Y008174
X019121Y008036
X023185
X023469Y008174
Y01019
Y010467
Y010744
Y011021
Y011298
X023185Y01116
Y010883
Y010606
Y010329
X027249
Y010606
Y010883
Y01116
X027533Y011298
Y011021
Y010744
Y010467
Y01019
Y008174
X027249Y008036
X031313
X031597Y008174
Y01019
Y010467
Y010744
Y011021
Y011298
X031313Y01116
Y010883
Y010606
Y010329
X035377
Y010606
Y010883
Y01116
X035661Y011298
Y011021
Y010744
Y010467
Y01019
Y008174
X035377Y008036
X039441
Y010329
Y010606
Y010883
Y01116
X039725Y011298
Y011021
Y010744
Y010467
Y01019
Y008174
X043505Y008036
Y010329
Y010606
Y010883
Y01116
X043789Y011298
Y011021
Y010744
Y010467
Y01019
Y008174
T05
X006833Y015573
Y016685
T06
X00734Y013012
Y014216
T07
X046558Y005662
X04605Y005664
X045542Y005662
X045034Y005664
X044526Y005662
X044018Y005664
X04351Y005662
X043002Y005664
X042494Y005662
X041986Y005664
X041478Y005662
X04097Y005664
X040462Y005662
X039954Y005664
X039446Y005662
X038938Y005664
X03843Y005662
X037922Y005664
X037414Y005662
X036906Y005664
X036398Y005662
X03589Y005664
X035382Y005662
X034874Y005664
X034366Y005662
X033858Y005664
X03335Y005662
X032842Y005664
X032334Y005662
X031826Y005664
X031318Y005662
X03081Y005664
X030302Y005662
X029794Y005664
X029286Y005662
X028778Y005664
X02827Y005662
X027762Y005664
X027254Y005662
X026746Y005664
X026238Y005662
X02573Y005664
X025222Y005662
X024714Y005664
X024206Y005662
X023698Y005664
X02319Y005662
X022682Y005664
X022174Y005662
X021666Y005664
X021158Y005662
X02065Y005664
X020142Y005662
X019634Y005664
X019126Y005662
X018618Y005664
X01811Y005662
X017602Y005664
X017094Y005662
X016586Y005664
X016078Y005662
X01557Y005664
X015062Y005662
X014554Y005664
X014046Y005662
X013538Y005664
X01303Y005662
X012522Y005664
X012014Y005662
X011506Y005664
X010998Y005662
X01049Y005664
X009982Y005662
X009474Y005664
X008966Y005662
X008458Y005664
X00795Y005662
X007442Y005664
X006934Y005662
X006426Y005664
X005918Y005662
X00541Y005664
X004902Y005662
Y017884
X00541Y017882
X005918Y017884
X006426Y017882
X006934Y017884
X007442Y017882
X00795Y017884
X008458Y017882
X008966Y017884
X009474Y017882
X009982Y017884
X01049Y017882
X010998Y017884
X011506Y017882
X012014Y017884
X012522Y017882
X01303Y017884
X013538Y017882
X014046Y017884
X014554Y017882
X015062Y017884
X01557Y017882
X016078Y017884
X016586Y017882
X017094Y017884
X017602Y017882
X01811Y017884
X018618Y017882
X019126Y017884
X019634Y017882
X020142Y017884
X02065Y017882
X021158Y017884
X021666Y017882
X022174Y017884
X022682Y017882
X02319Y017884
X023698Y017882
X024206Y017884
X024714Y017882
X025222Y017884
X02573Y017882
X026238Y017884
X026746Y017882
X027254Y017884
X027762Y017882
X02827Y017884
X028778Y017882
X029286Y017884
X029794Y017882
X030302Y017884
X03081Y017882
X031318Y017884
X031826Y017882
X032334Y017884
X032842Y017882
X03335Y017884
X033858Y017882
X034366Y017884
X034874Y017882
X035382Y017884
X03589Y017882
X036398Y017884
X036906Y017882
X037414Y017884
X037922Y017882
X03843Y017884
X038938Y017882
X039446Y017884
X039954Y017882
X040462Y017884
X04097Y017882
X041478Y017884
X041986Y017882
X042494Y017884
X043002Y017882
X04351Y017884
X044018Y017882
X044526Y017884
X045034Y017882
X045542Y017884
X04605Y017882
X046558Y017884
T08
X043647Y006371
X039583
X035519
X031455
X027391
X023327
X019263
X015199
Y008869
Y009495
X019263
Y008869
X023327
Y009495
X027391
Y008869
X031455
Y009495
X035519
Y008869
X039583
Y009495
X043647
Y008869
Y011994
X039583
X035519
X031455
X027391
X023327
X019263
X015199
M30
