%FSTAX23Y23*%
%MOMM*%
%SFA1B1*%

%IPPOS*%
%ADD13C,0.130000*%
%ADD24C,1.729997*%
%ADD25C,2.199996*%
%ADD26C,1.889996*%
%ADD27R,1.889996X1.889996*%
%ADD28C,4.959990*%
%ADD29R,1.569997X1.569997*%
%ADD30C,1.569997*%
%ADD31C,3.449993*%
%LNbackplane-1*%
%LPD*%
G54D13*
X40639Y76199D02*
X154179D01*
Y205999D02*
Y76199D01*
X40639Y205999D02*
X154179D01*
X40639D02*
Y76199D01*
G54D24*
X83819Y180469D03*
Y177929D03*
Y175389D03*
Y172849D03*
Y170309D03*
Y167769D03*
Y165229D03*
Y162689D03*
Y160149D03*
Y157609D03*
Y155069D03*
Y152529D03*
Y149989D03*
Y147449D03*
Y144909D03*
Y142369D03*
Y139829D03*
Y137289D03*
Y134749D03*
Y132209D03*
Y129669D03*
Y127129D03*
Y124589D03*
Y122049D03*
Y119509D03*
Y116969D03*
Y114429D03*
Y111889D03*
Y109349D03*
Y106809D03*
Y104269D03*
Y101729D03*
X78739Y180469D03*
Y177929D03*
Y175389D03*
Y172849D03*
Y170309D03*
Y167769D03*
Y165229D03*
Y162689D03*
Y160149D03*
Y157609D03*
Y155069D03*
Y152529D03*
Y149989D03*
Y147449D03*
Y144909D03*
Y142369D03*
Y139829D03*
Y137289D03*
Y134749D03*
Y132209D03*
Y129669D03*
Y127129D03*
Y124589D03*
Y122049D03*
Y119509D03*
Y116969D03*
Y114429D03*
Y111889D03*
Y109349D03*
Y106809D03*
Y104269D03*
Y101729D03*
X58419Y180469D03*
Y177929D03*
Y175389D03*
Y172849D03*
Y170309D03*
Y167769D03*
Y165229D03*
Y162689D03*
Y160149D03*
Y157609D03*
Y155069D03*
Y152529D03*
Y149989D03*
Y147449D03*
Y144909D03*
Y142369D03*
Y139829D03*
Y137289D03*
Y134749D03*
Y132209D03*
Y129669D03*
Y127129D03*
Y124589D03*
Y122049D03*
Y119509D03*
Y116969D03*
Y114429D03*
Y111889D03*
Y109349D03*
Y106809D03*
Y104269D03*
Y101729D03*
X53339Y180469D03*
Y177929D03*
Y175389D03*
Y172849D03*
Y170309D03*
Y167769D03*
Y165229D03*
Y162689D03*
Y160149D03*
Y157609D03*
Y155069D03*
Y152529D03*
Y149989D03*
Y147449D03*
Y144909D03*
Y142369D03*
Y139829D03*
Y137289D03*
Y134749D03*
Y132209D03*
Y129669D03*
Y127129D03*
Y124589D03*
Y122049D03*
Y119509D03*
Y116969D03*
Y114429D03*
Y111889D03*
Y109349D03*
Y106809D03*
Y104269D03*
Y101729D03*
X124459Y180469D03*
Y177929D03*
Y175389D03*
Y172849D03*
Y170309D03*
Y167769D03*
Y165229D03*
Y162689D03*
Y160149D03*
Y157609D03*
Y155069D03*
Y152529D03*
Y149989D03*
Y147449D03*
Y144909D03*
Y142369D03*
Y139829D03*
Y137289D03*
Y134749D03*
Y132209D03*
Y129669D03*
Y127129D03*
Y124589D03*
Y122049D03*
Y119509D03*
Y116969D03*
Y114429D03*
Y111889D03*
Y109349D03*
Y106809D03*
Y104269D03*
Y101729D03*
X119379Y180469D03*
Y177929D03*
Y175389D03*
Y172849D03*
Y170309D03*
Y167769D03*
Y165229D03*
Y162689D03*
Y160149D03*
Y157609D03*
Y155069D03*
Y152529D03*
Y149989D03*
Y147449D03*
Y144909D03*
Y142369D03*
Y139829D03*
Y137289D03*
Y134749D03*
Y132209D03*
Y129669D03*
Y127129D03*
Y124589D03*
Y122049D03*
Y119509D03*
Y116969D03*
Y114429D03*
Y111889D03*
Y109349D03*
Y106809D03*
Y104269D03*
Y101729D03*
G54D25*
X60959Y202209D03*
X55879D03*
X66039D03*
X81279D03*
X71119D03*
X76199D03*
X96519D03*
X86359D03*
X91439D03*
X137159D03*
X132079D03*
X142239D03*
X121919D03*
X116839D03*
X126999D03*
X111759D03*
X101599D03*
X106679D03*
X147319D03*
X55879Y79979D03*
X60959D03*
X71119D03*
X66039D03*
X86359D03*
X91439D03*
X81279D03*
X76199D03*
X116839D03*
X121919D03*
X132079D03*
X126999D03*
X106679D03*
X111759D03*
X101599D03*
X96519D03*
X147319D03*
X142239D03*
X137159D03*
X45719Y202209D03*
X50799D03*
Y79979D03*
X45719D03*
G54D26*
X67819Y173179D03*
X70659Y171789D03*
X67819Y170409D03*
X70659Y169019D03*
X67819Y167639D03*
X70659Y166259D03*
X67819Y164869D03*
X70659Y163489D03*
X94739Y162099D03*
X91899Y163489D03*
X94739Y164869D03*
X91899Y166259D03*
X94739Y167639D03*
X91899Y169019D03*
X94739Y170409D03*
X91899Y171789D03*
X108459Y173179D03*
X111299Y171789D03*
X108459Y170409D03*
X111299Y169019D03*
X108459Y167639D03*
X111299Y166259D03*
X108459Y164869D03*
X111299Y163489D03*
X135379Y162099D03*
X132539Y163489D03*
X135379Y164869D03*
X132539Y166259D03*
X135379Y167639D03*
X132539Y169019D03*
X135379Y170409D03*
X132539Y171789D03*
G54D27*
X67819Y162099D03*
X94739Y173179D03*
X108459Y162099D03*
X135379Y173179D03*
G54D28*
X69239Y155149D03*
Y180129D03*
X93319D03*
Y155149D03*
X109879D03*
Y180129D03*
X133959D03*
Y155149D03*
G54D29*
X90169Y143509D03*
Y124459D03*
X130809Y143509D03*
Y124459D03*
G54D30*
X87629Y142239D03*
X90169Y140969D03*
X87629Y139699D03*
X90169Y138429D03*
X87629Y137159D03*
X90169Y135889D03*
X87629Y134619D03*
Y123189D03*
X90169Y121919D03*
X87629Y120649D03*
X90169Y119379D03*
X87629Y118109D03*
X90169Y116839D03*
X87629Y115569D03*
X128269Y142239D03*
X130809Y140969D03*
X128269Y139699D03*
X130809Y138429D03*
X128269Y137159D03*
X130809Y135889D03*
X128269Y134619D03*
Y123189D03*
X130809Y121919D03*
X128269Y120649D03*
X130809Y119379D03*
X128269Y118109D03*
X130809Y116839D03*
X128269Y115569D03*
G54D31*
X96519Y144779D03*
Y133349D03*
Y125729D03*
Y114299D03*
X137159Y144779D03*
Y133349D03*
Y125729D03*
Y114299D03*
M02*