%FSTAX23Y23*%
%MOIN*%
%SFA1B1*%

%IPPOS*%
%ADD10C,0.020079*%
%ADD11C,0.025197*%
%ADD12C,0.011811*%
%ADD13C,0.098425*%
%ADD14C,0.050000*%
%ADD15C,0.059842*%
%ADD16C,0.047244*%
%ADD17C,0.059842*%
%ADD18C,0.078740*%
%ADD19R,0.053937X0.053937*%
%ADD20C,0.053937*%
%ADD21C,0.127953*%
%ADD22C,0.187401*%
%ADD23R,0.066535X0.066535*%
%ADD24C,0.066535*%
%ADD25C,0.043307*%
%LNbackplane-1*%
%LPD*%
G36*
X08929Y0199D02*
X0385D01*
Y0624*
X08929*
Y0199*
G37*
%LNbackplane-2*%
%LPC*%
G36*
X0449Y06159D02*
X0412D01*
X04108Y06158*
X04097Y06155*
X04087Y06149*
X04077Y06142*
X04037Y06101*
X0403Y06092*
X04024Y06082*
X04021Y06071*
X0402Y06065*
X0402Y06059*
Y0565*
X0402Y05644*
X04021Y05638*
X04024Y05627*
X0403Y05616*
X04037Y05607*
X04152Y05492*
X04161Y05485*
X04172Y05479*
X04183Y05476*
X04194Y05475*
X04533*
X04535Y0547*
X04534Y05462*
Y04964*
Y04764*
X04535Y04755*
X04539Y04747*
X04544Y0474*
X04661Y04623*
X04664Y04614*
X04671Y04606*
X04679Y046*
X04689Y04596*
X047Y04594*
X0471Y04596*
X0472Y046*
X04728Y04606*
X04735Y04614*
X04738Y04624*
X0474Y04635*
X04738Y04645*
X04735Y04655*
X04728Y04663*
X0472Y0467*
X04711Y04673*
X04694Y0469*
X04697Y04694*
X047Y04694*
X0471Y04696*
X0472Y047*
X04728Y04706*
X04735Y04714*
Y04715*
X047*
Y04735*
X0468*
Y0477*
X04679*
X04671Y04763*
X04664Y04755*
X04661Y04745*
X04659Y04735*
X04659Y04732*
X04655Y04729*
X04605Y04779*
Y04873*
X04609Y04874*
X04661Y04823*
X04664Y04814*
X04671Y04806*
X04679Y048*
X04689Y04796*
X047Y04794*
X0471Y04796*
X0472Y048*
X04728Y04806*
X04735Y04814*
X04738Y04824*
X0474Y04835*
X04738Y04845*
X04735Y04855*
X04728Y04863*
X0472Y0487*
X04711Y04873*
X04694Y0489*
X04697Y04894*
X047Y04894*
X0471Y04896*
X0472Y049*
X04728Y04906*
X04735Y04914*
Y04915*
X047*
Y04935*
X0468*
Y0497*
X04679*
X04671Y04963*
X04664Y04955*
X04661Y04945*
X04659Y04935*
X04659Y04932*
X04655Y04929*
X04605Y04979*
Y05447*
X04633Y05475*
X04642*
X04654Y05476*
X04665Y05479*
X04675Y05485*
X04685Y05492*
X04687Y05496*
X04689Y05496*
X047Y05494*
X0471Y05496*
X0472Y055*
X04728Y05506*
X04735Y05514*
X04738Y05524*
X0474Y05535*
X04738Y05545*
X04735Y05555*
X04728Y05563*
X0472Y0557*
X0471Y05574*
X047Y05575*
X04689Y05574*
X04687Y05573*
X04685Y05577*
X04675Y05584*
X04675Y05585*
X04676Y05589*
X0494*
X08559*
X08563Y0559*
X08567Y05592*
X08569Y05596*
X0857Y056*
Y05779*
X08569Y05783*
X08567Y05787*
X08563Y05789*
X08559Y0579*
X045*
X04498Y05795*
X04501Y05798*
X04592Y05887*
X04599Y05896*
X04605Y05907*
X04608Y05918*
X04609Y05924*
X04609Y05929*
Y0604*
X04609Y06045*
X04608Y06051*
X04605Y06062*
X04599Y06073*
X04592Y06082*
X04532Y06142*
X04523Y06149*
X04512Y06155*
X04501Y06158*
X04495Y06159*
X0449Y06159*
G37*
G36*
X085Y05575D02*
X08489Y05574D01*
X08479Y0557*
X08471Y05563*
X08464Y05555*
X08461Y05545*
X08459Y05535*
X08461Y05524*
X08464Y05514*
X08471Y05506*
X08479Y055*
X08489Y05496*
X085Y05494*
X0851Y05496*
X0852Y055*
X08528Y05506*
X08535Y05514*
X08538Y05524*
X0854Y05535*
X08538Y05545*
X08535Y05555*
X08528Y05563*
X0852Y0557*
X0851Y05574*
X085Y05575*
G37*
G36*
X083D02*
X08289Y05574D01*
X08279Y0557*
X08271Y05563*
X08264Y05555*
X08261Y05545*
X08259Y05535*
X08261Y05524*
X08264Y05514*
X08271Y05506*
X08279Y055*
X08289Y05496*
X083Y05494*
X0831Y05496*
X0832Y055*
X08328Y05506*
X08335Y05514*
X08338Y05524*
X0834Y05535*
X08338Y05545*
X08335Y05555*
X08328Y05563*
X0832Y0557*
X0831Y05574*
X083Y05575*
G37*
G36*
X063D02*
X06289Y05574D01*
X0628Y0557*
X06244*
X06235Y05569*
X06227Y05565*
X0622Y05559*
X06155Y05494*
X06149Y05487*
X06145Y05479*
X06144Y0547*
Y05055*
Y04855*
X06145Y04845*
X06149Y04837*
X06155Y04829*
X06261Y04723*
X06264Y04714*
X06271Y04706*
X06279Y047*
X06289Y04696*
X063Y04694*
X0631Y04696*
X0632Y047*
X06328Y04706*
X06335Y04714*
X06338Y04724*
X0634Y04735*
X06338Y04745*
X06335Y04755*
X06328Y04763*
X0632Y0477*
X06311Y04773*
X06294Y0479*
X06297Y04794*
X063Y04794*
X0631Y04796*
X0632Y048*
X06328Y04806*
X06335Y04814*
Y04815*
X063*
Y04835*
X0628*
Y0487*
X06279*
X06271Y04863*
X06264Y04855*
X06261Y04845*
X06259Y04835*
X06259Y04832*
X06255Y04829*
X06215Y04869*
Y04962*
X0622Y04964*
X06261Y04923*
X06264Y04914*
X06271Y04906*
X06279Y049*
X06289Y04896*
X063Y04894*
X0631Y04896*
X0632Y049*
X06328Y04906*
X06335Y04914*
X06338Y04924*
X0634Y04935*
X06338Y04945*
X06335Y04955*
X06328Y04963*
X0632Y0497*
X06311Y04973*
X06294Y0499*
X06297Y04994*
X063Y04994*
X0631Y04996*
X0632Y05*
X06328Y05006*
X06335Y05014*
Y05015*
X063*
Y05035*
X0628*
Y0507*
X06279*
X06271Y05063*
X06264Y05055*
X06261Y05045*
X06259Y05035*
X06259Y05032*
X06255Y05029*
X06215Y05069*
Y05455*
X06259Y05499*
X0628*
X06289Y05496*
X063Y05494*
X0631Y05496*
X0632Y055*
X06328Y05506*
X06335Y05514*
X06338Y05524*
X0634Y05535*
X06338Y05545*
X06335Y05555*
X06328Y05563*
X0632Y0557*
X0631Y05574*
X063Y05575*
G37*
G36*
X08519Y0547D02*
Y05454D01*
X08535*
Y05455*
X08528Y05463*
X0852Y0547*
X08519*
G37*
G36*
X08319D02*
Y05454D01*
X08335*
Y05455*
X08328Y05463*
X0832Y0547*
X08319*
G37*
G36*
X06519D02*
Y05454D01*
X06535*
Y05455*
X06528Y05463*
X0652Y0547*
X06519*
G37*
G36*
X06319D02*
Y05454D01*
X06335*
Y05455*
X06328Y05463*
X0632Y0547*
X06319*
G37*
G36*
X04919D02*
Y05454D01*
X04935*
Y05455*
X04928Y05463*
X0492Y0547*
X04919*
G37*
G36*
X04719D02*
Y05454D01*
X04735*
Y05455*
X04728Y05463*
X0472Y0547*
X04719*
G37*
G36*
X0848D02*
X08479D01*
X08471Y05463*
X08464Y05455*
Y05454*
X0848*
Y0547*
G37*
G36*
X0828D02*
X08279D01*
X08271Y05463*
X08264Y05455*
Y05454*
X0828*
Y0547*
G37*
G36*
X0648D02*
X06479D01*
X06471Y05463*
X06464Y05455*
Y05454*
X0648*
Y0547*
G37*
G36*
X0628D02*
X06279D01*
X06271Y05463*
X06264Y05455*
Y05454*
X0628*
Y0547*
G37*
G36*
X0488D02*
X04879D01*
X04871Y05463*
X04864Y05455*
Y05454*
X0488*
Y0547*
G37*
G36*
X0468D02*
X04679D01*
X04671Y05463*
X04664Y05455*
Y05454*
X0468*
Y0547*
G37*
G36*
X08535Y05415D02*
X08519D01*
Y05399*
X0852Y054*
X08528Y05406*
X08535Y05414*
Y05415*
G37*
G36*
X08335D02*
X08319D01*
Y05399*
X0832Y054*
X08328Y05406*
X08335Y05414*
Y05415*
G37*
G36*
X06535D02*
X06519D01*
Y05399*
X0652Y054*
X06528Y05406*
X06535Y05414*
Y05415*
G37*
G36*
X06335D02*
X06319D01*
Y05399*
X0632Y054*
X06328Y05406*
X06335Y05414*
Y05415*
G37*
G36*
X04935D02*
X04919D01*
Y05399*
X0492Y054*
X04928Y05406*
X04935Y05414*
Y05415*
G37*
G36*
X04735D02*
X04719D01*
Y05399*
X0472Y054*
X04728Y05406*
X04735Y05414*
Y05415*
G37*
G36*
X0848D02*
X08464D01*
Y05414*
X08471Y05406*
X08479Y054*
X0848Y05399*
Y05415*
G37*
G36*
X0828D02*
X08264D01*
Y05414*
X08271Y05406*
X08279Y054*
X0828Y05399*
Y05415*
G37*
G36*
X0648D02*
X06464D01*
Y05414*
X06471Y05406*
X06479Y054*
X0648Y05399*
Y05415*
G37*
G36*
X0628D02*
X06264D01*
Y05414*
X06271Y05406*
X06279Y054*
X0628Y05399*
Y05415*
G37*
G36*
X0488D02*
X04864D01*
Y05414*
X04871Y05406*
X04879Y054*
X0488Y05399*
Y05415*
G37*
G36*
X0468D02*
X04664D01*
Y05414*
X04671Y05406*
X04679Y054*
X0468Y05399*
Y05415*
G37*
G36*
X085Y05375D02*
X08489Y05374D01*
X08479Y0537*
X08471Y05363*
X08464Y05355*
X08461Y05345*
X08459Y05335*
X08461Y05324*
X08464Y05314*
X08471Y05306*
X08479Y053*
X08489Y05296*
X085Y05294*
X0851Y05296*
X0852Y053*
X08528Y05306*
X08535Y05314*
X08538Y05324*
X0854Y05335*
X08538Y05345*
X08535Y05355*
X08528Y05363*
X0852Y0537*
X0851Y05374*
X085Y05375*
G37*
G36*
X083D02*
X08289Y05374D01*
X08279Y0537*
X08271Y05363*
X08264Y05355*
X08261Y05345*
X08259Y05335*
X08261Y05324*
X08264Y05314*
X08271Y05306*
X08279Y053*
X08289Y05296*
X083Y05294*
X0831Y05296*
X0832Y053*
X08328Y05306*
X08335Y05314*
X08338Y05324*
X0834Y05335*
X08338Y05345*
X08335Y05355*
X08328Y05363*
X0832Y0537*
X0831Y05374*
X083Y05375*
G37*
G36*
X065D02*
X06489Y05374D01*
X06479Y0537*
X06471Y05363*
X06464Y05355*
X06461Y05345*
X06459Y05335*
X06461Y05324*
X06464Y05314*
X06471Y05306*
X06479Y053*
X06489Y05296*
X065Y05294*
X0651Y05296*
X0652Y053*
X06528Y05306*
X06535Y05314*
X06538Y05324*
X0654Y05335*
X06538Y05345*
X06535Y05355*
X06528Y05363*
X0652Y0537*
X0651Y05374*
X065Y05375*
G37*
G36*
X063D02*
X06289Y05374D01*
X06279Y0537*
X06271Y05363*
X06264Y05355*
X06261Y05345*
X06259Y05335*
X06261Y05324*
X06264Y05314*
X06271Y05306*
X06279Y053*
X06289Y05296*
X063Y05294*
X0631Y05296*
X0632Y053*
X06328Y05306*
X06335Y05314*
X06338Y05324*
X0634Y05335*
X06338Y05345*
X06335Y05355*
X06328Y05363*
X0632Y0537*
X0631Y05374*
X063Y05375*
G37*
G36*
X049D02*
X04889Y05374D01*
X04879Y0537*
X04871Y05363*
X04864Y05355*
X04861Y05345*
X04859Y05335*
X04861Y05324*
X04864Y05314*
X04871Y05306*
X04879Y053*
X04889Y05296*
X049Y05294*
X0491Y05296*
X0492Y053*
X04928Y05306*
X04935Y05314*
X04938Y05324*
X0494Y05335*
X04938Y05345*
X04935Y05355*
X04928Y05363*
X0492Y0537*
X0491Y05374*
X049Y05375*
G37*
G36*
X047D02*
X04689Y05374D01*
X04679Y0537*
X04671Y05363*
X04664Y05355*
X04661Y05345*
X04659Y05335*
X04661Y05324*
X04664Y05314*
X04671Y05306*
X04679Y053*
X04689Y05296*
X047Y05294*
X0471Y05296*
X0472Y053*
X04728Y05306*
X04735Y05314*
X04738Y05324*
X0474Y05335*
X04738Y05345*
X04735Y05355*
X04728Y05363*
X0472Y0537*
X0471Y05374*
X047Y05375*
G37*
G36*
X085Y05275D02*
X08489Y05274D01*
X08479Y0527*
X08471Y05263*
X08464Y05255*
X08461Y05245*
X08459Y05235*
X08461Y05224*
X08464Y05214*
X08471Y05206*
X08479Y052*
X08489Y05196*
X085Y05194*
X0851Y05196*
X0852Y052*
X08528Y05206*
X08535Y05214*
X08538Y05224*
X0854Y05235*
X08538Y05245*
X08535Y05255*
X08528Y05263*
X0852Y0527*
X0851Y05274*
X085Y05275*
G37*
G36*
X083D02*
X08289Y05274D01*
X08279Y0527*
X08271Y05263*
X08264Y05255*
X08261Y05245*
X08259Y05235*
X08261Y05224*
X08264Y05214*
X08271Y05206*
X08279Y052*
X08289Y05196*
X083Y05194*
X0831Y05196*
X0832Y052*
X08328Y05206*
X08335Y05214*
X08338Y05224*
X0834Y05235*
X08338Y05245*
X08335Y05255*
X08328Y05263*
X0832Y0527*
X0831Y05274*
X083Y05275*
G37*
G36*
X065D02*
X06489Y05274D01*
X06479Y0527*
X06471Y05263*
X06464Y05255*
X06461Y05245*
X06459Y05235*
X06461Y05224*
X06464Y05214*
X06471Y05206*
X06479Y052*
X06489Y05196*
X065Y05194*
X0651Y05196*
X0652Y052*
X06528Y05206*
X06535Y05214*
X06538Y05224*
X0654Y05235*
X06538Y05245*
X06535Y05255*
X06528Y05263*
X0652Y0527*
X0651Y05274*
X065Y05275*
G37*
G36*
X063D02*
X06289Y05274D01*
X06279Y0527*
X06271Y05263*
X06264Y05255*
X06261Y05245*
X06259Y05235*
X06261Y05224*
X06264Y05214*
X06271Y05206*
X06279Y052*
X06289Y05196*
X063Y05194*
X0631Y05196*
X0632Y052*
X06328Y05206*
X06335Y05214*
X06338Y05224*
X0634Y05235*
X06338Y05245*
X06335Y05255*
X06328Y05263*
X0632Y0527*
X0631Y05274*
X063Y05275*
G37*
G36*
X049D02*
X04889Y05274D01*
X04879Y0527*
X04871Y05263*
X04864Y05255*
X04861Y05245*
X04859Y05235*
X04861Y05224*
X04864Y05214*
X04871Y05206*
X04879Y052*
X04889Y05196*
X049Y05194*
X0491Y05196*
X0492Y052*
X04928Y05206*
X04935Y05214*
X04938Y05224*
X0494Y05235*
X04938Y05245*
X04935Y05255*
X04928Y05263*
X0492Y0527*
X0491Y05274*
X049Y05275*
G37*
G36*
X047D02*
X04689Y05274D01*
X04679Y0527*
X04671Y05263*
X04664Y05255*
X04661Y05245*
X04659Y05235*
X04661Y05224*
X04664Y05214*
X04671Y05206*
X04679Y052*
X04689Y05196*
X047Y05194*
X0471Y05196*
X0472Y052*
X04728Y05206*
X04735Y05214*
X04738Y05224*
X0474Y05235*
X04738Y05245*
X04735Y05255*
X04728Y05263*
X0472Y0527*
X0471Y05274*
X047Y05275*
G37*
G36*
X08519Y0517D02*
Y05154D01*
X08535*
Y05155*
X08528Y05163*
X0852Y0517*
X08519*
G37*
G36*
X08319D02*
Y05154D01*
X08335*
Y05155*
X08328Y05163*
X0832Y0517*
X08319*
G37*
G36*
X06519D02*
Y05154D01*
X06535*
Y05155*
X06528Y05163*
X0652Y0517*
X06519*
G37*
G36*
X06319D02*
Y05154D01*
X06335*
Y05155*
X06328Y05163*
X0632Y0517*
X06319*
G37*
G36*
X04919D02*
Y05154D01*
X04935*
Y05155*
X04928Y05163*
X0492Y0517*
X04919*
G37*
G36*
X04719D02*
Y05154D01*
X04735*
Y05155*
X04728Y05163*
X0472Y0517*
X04719*
G37*
G36*
X0848D02*
X08479D01*
X08471Y05163*
X08464Y05155*
Y05154*
X0848*
Y0517*
G37*
G36*
X0828D02*
X08279D01*
X08271Y05163*
X08264Y05155*
Y05154*
X0828*
Y0517*
G37*
G36*
X0648D02*
X06479D01*
X06471Y05163*
X06464Y05155*
Y05154*
X0648*
Y0517*
G37*
G36*
X0628D02*
X06279D01*
X06271Y05163*
X06264Y05155*
Y05154*
X0628*
Y0517*
G37*
G36*
X0488D02*
X04879D01*
X04871Y05163*
X04864Y05155*
Y05154*
X0488*
Y0517*
G37*
G36*
X0468D02*
X04679D01*
X04671Y05163*
X04664Y05155*
Y05154*
X0468*
Y0517*
G37*
G36*
X06535Y05115D02*
X06519D01*
Y05099*
X0652Y051*
X06528Y05106*
X06535Y05114*
Y05115*
G37*
G36*
X06335D02*
X06319D01*
Y05099*
X0632Y051*
X06328Y05106*
X06335Y05114*
Y05115*
G37*
G36*
X04935D02*
X04919D01*
Y05099*
X0492Y051*
X04928Y05106*
X04935Y05114*
Y05115*
G37*
G36*
X04735D02*
X04719D01*
Y05099*
X0472Y051*
X04728Y05106*
X04735Y05114*
Y05115*
G37*
G36*
X08535D02*
X08519D01*
Y05099*
X0852Y051*
X08528Y05106*
X08535Y05114*
Y05115*
G37*
G36*
X08335D02*
X08319D01*
Y05099*
X0832Y051*
X08328Y05106*
X08335Y05114*
Y05115*
G37*
G36*
X0648D02*
X06464D01*
Y05114*
X06471Y05106*
X06479Y051*
X0648Y05099*
Y05115*
G37*
G36*
X0628D02*
X06264D01*
Y05114*
X06271Y05106*
X06279Y051*
X0628Y05099*
Y05115*
G37*
G36*
X0488D02*
X04864D01*
Y05114*
X04871Y05106*
X04879Y051*
X0488Y05099*
Y05115*
G37*
G36*
X0468D02*
X04664D01*
Y05114*
X04671Y05106*
X04679Y051*
X0468Y05099*
Y05115*
G37*
G36*
X0848D02*
X08464D01*
Y05114*
X08471Y05106*
X08479Y051*
X0848Y05099*
Y05115*
G37*
G36*
X0828D02*
X08264D01*
Y05114*
X08271Y05106*
X08279Y051*
X0828Y05099*
Y05115*
G37*
G36*
X07878Y05172D02*
X07863Y0517D01*
X0785Y05165*
X07838Y05156*
X07829Y05144*
X07824Y05131*
X07822Y05116*
X07824Y05102*
X07829Y05088*
X07838Y05077*
X0785Y05068*
X07863Y05062*
X07878Y05061*
X07892Y05062*
X07906Y05068*
X07917Y05077*
X07926Y05088*
X07932Y05102*
X07934Y05116*
X07932Y05131*
X07926Y05144*
X07917Y05156*
X07906Y05165*
X07892Y0517*
X07878Y05172*
G37*
G36*
X08519Y0507D02*
Y05054D01*
X08535*
Y05055*
X08528Y05063*
X0852Y0507*
X08519*
G37*
G36*
X06519D02*
Y05054D01*
X06535*
Y05055*
X06528Y05063*
X0652Y0507*
X06519*
G37*
G36*
X06319D02*
Y05054D01*
X06335*
Y05055*
X06328Y05063*
X0632Y0507*
X06319*
G37*
G36*
X04919D02*
Y05054D01*
X04935*
Y05055*
X04928Y05063*
X0492Y0507*
X04919*
G37*
G36*
X04719D02*
Y05054D01*
X04735*
Y05055*
X04728Y05063*
X0472Y0507*
X04719*
G37*
G36*
X0848D02*
X08479D01*
X08471Y05063*
X08464Y05055*
Y05054*
X0848*
Y0507*
G37*
G36*
X0648D02*
X06479D01*
X06471Y05063*
X06464Y05055*
Y05054*
X0648*
Y0507*
G37*
G36*
X0488D02*
X04879D01*
X04871Y05063*
X04864Y05055*
Y05054*
X0488*
Y0507*
G37*
G36*
X0468D02*
X04679D01*
X04671Y05063*
X04664Y05055*
Y05054*
X0468*
Y0507*
G37*
G36*
X0702Y05174D02*
X07005Y05172D01*
X06991Y05168*
X06978Y05161*
X06967Y05152*
X06958Y05141*
X06951Y05128*
X06946Y05114*
X06945Y051*
X06946Y05085*
X06951Y05071*
X06958Y05058*
X06967Y05047*
X06978Y05038*
X06991Y05031*
X07005Y05027*
X0702Y05025*
X07034Y05027*
X07048Y05031*
X07061Y05038*
X07072Y05047*
X07081Y05058*
X07088Y05071*
X07092Y05085*
X07094Y051*
X07092Y05114*
X07088Y05128*
X07081Y05141*
X07072Y05152*
X07061Y05161*
X07048Y05168*
X07034Y05172*
X0702Y05174*
G37*
G36*
X0542D02*
X05405Y05172D01*
X05391Y05168*
X05378Y05161*
X05367Y05152*
X05358Y05141*
X05351Y05128*
X05346Y05114*
X05345Y051*
X05346Y05085*
X05351Y05071*
X05358Y05058*
X05367Y05047*
X05378Y05038*
X05391Y05031*
X05405Y05027*
X0542Y05025*
X05434Y05027*
X05448Y05031*
X05461Y05038*
X05472Y05047*
X05481Y05058*
X05488Y05071*
X05492Y05085*
X05494Y051*
X05492Y05114*
X05488Y05128*
X05481Y05141*
X05472Y05152*
X05461Y05161*
X05448Y05168*
X05434Y05172*
X0542Y05174*
G37*
G36*
X06807Y05087D02*
X06733D01*
Y05012*
X06807*
Y05087*
G37*
G36*
X05207D02*
X05133D01*
Y05012*
X05207*
Y05087*
G37*
G36*
X08535Y05015D02*
X08519D01*
Y04999*
X0852Y05*
X08528Y05006*
X08535Y05014*
Y05015*
G37*
G36*
X06535D02*
X06519D01*
Y04999*
X0652Y05*
X06528Y05006*
X06535Y05014*
Y05015*
G37*
G36*
X04935D02*
X04919D01*
Y04999*
X0492Y05*
X04928Y05006*
X04935Y05014*
Y05015*
G37*
G36*
X04735D02*
X04719D01*
Y04999*
X0472Y05*
X04728Y05006*
X04735Y05014*
Y05015*
G37*
G36*
X0848D02*
X08464D01*
Y05014*
X08471Y05006*
X08479Y05*
X0848Y04999*
Y05015*
G37*
G36*
X0648D02*
X06464D01*
Y05014*
X06471Y05006*
X06479Y05*
X0648Y04999*
Y05015*
G37*
G36*
X0488D02*
X04864D01*
Y05014*
X04871Y05006*
X04879Y05*
X0488Y04999*
Y05015*
G37*
G36*
X0468D02*
X04664D01*
Y05014*
X04671Y05006*
X04679Y05*
X0468Y04999*
Y05015*
G37*
G36*
X083Y05075D02*
X08289Y05074D01*
X08279Y0507*
X08271Y05063*
X08267Y05057*
X08205*
X08196Y05056*
X08188Y05051*
X08089Y04952*
X08017*
X08013Y04957*
X08005Y04964*
X07995Y04968*
X07984Y04969*
X07974Y04968*
X07964Y04964*
X07956Y04957*
X07949Y04949*
X07945Y04939*
X07944Y04929*
X07945Y04918*
X07949Y04909*
X07956Y049*
X07964Y04894*
X07974Y0489*
X07984Y04888*
X07995Y0489*
X08005Y04894*
X08013Y049*
X08017Y04906*
X08099*
X08107Y04907*
X08115Y04912*
X08214Y05011*
X08267*
X08271Y05006*
X08279Y05*
X08289Y04996*
X083Y04994*
X0831Y04996*
X0832Y05*
X08328Y05006*
X08335Y05014*
X08338Y05024*
X0834Y05035*
X08338Y05045*
X08335Y05055*
X08328Y05063*
X0832Y0507*
X0831Y05074*
X083Y05075*
G37*
G36*
X0667Y05037D02*
X0666Y05036D01*
X06651Y05032*
X06643Y05026*
X06637Y05018*
X06633Y05009*
X06632Y05*
X06633Y0499*
X06637Y04981*
X06643Y04973*
X06646Y04971*
X06644Y04966*
X06524*
X0652Y0497*
X0651Y04974*
X065Y04975*
X06489Y04974*
X06479Y0497*
X06471Y04963*
X06464Y04955*
X06461Y04945*
X06459Y04935*
X06461Y04924*
X06464Y04914*
X06471Y04906*
X06479Y049*
X06489Y04896*
X065Y04894*
X0651Y04896*
X0652Y049*
X06528Y04906*
X06535Y04914*
X06538Y04924*
X0654Y04933*
X06644*
X06646Y04928*
X06643Y04926*
X06637Y04918*
X06633Y04909*
X06632Y049*
X06633Y0489*
X06637Y04881*
X06643Y04873*
X06651Y04867*
X0666Y04863*
X0667Y04862*
X06679Y04863*
X06688Y04867*
X06696Y04873*
X06702Y04881*
X06706Y0489*
X06707Y049*
X06706Y04909*
X06702Y04918*
X06696Y04926*
X06693Y04928*
X06695Y04933*
X06736*
X06737Y04931*
X06743Y04923*
X06751Y04917*
X0676Y04913*
X0677Y04912*
X06779Y04913*
X06788Y04917*
X06796Y04923*
X06802Y04931*
X06806Y0494*
X06807Y0495*
X06806Y04959*
X06802Y04968*
X06796Y04976*
X06788Y04982*
X06779Y04986*
X0677Y04987*
X0676Y04986*
X06751Y04982*
X06743Y04976*
X06737Y04968*
X06736Y04966*
X06695*
X06693Y04971*
X06696Y04973*
X06702Y04981*
X06706Y0499*
X06707Y05*
X06706Y05009*
X06702Y05018*
X06696Y05026*
X06688Y05032*
X06679Y05036*
X0667Y05037*
G37*
G36*
X0507D02*
X0506Y05036D01*
X05051Y05032*
X05043Y05026*
X05037Y05018*
X05033Y05009*
X05032Y05*
X05033Y0499*
X05037Y04981*
X05043Y04973*
X05046Y04971*
X05044Y04966*
X04924*
X0492Y0497*
X0491Y04974*
X049Y04975*
X04889Y04974*
X04879Y0497*
X04871Y04963*
X04864Y04955*
X04861Y04945*
X04859Y04935*
X04861Y04924*
X04864Y04914*
X04871Y04906*
X04879Y049*
X04889Y04896*
X049Y04894*
X0491Y04896*
X0492Y049*
X04928Y04906*
X04935Y04914*
X04938Y04924*
X0494Y04933*
X05044*
X05046Y04928*
X05043Y04926*
X05037Y04918*
X05033Y04909*
X05032Y049*
X05033Y0489*
X05037Y04881*
X05043Y04873*
X05051Y04867*
X0506Y04863*
X0507Y04862*
X05079Y04863*
X05088Y04867*
X05096Y04873*
X05102Y04881*
X05106Y0489*
X05107Y049*
X05106Y04909*
X05102Y04918*
X05096Y04926*
X05093Y04928*
X05095Y04933*
X05136*
X05137Y04931*
X05143Y04923*
X05151Y04917*
X0516Y04913*
X0517Y04912*
X05179Y04913*
X05188Y04917*
X05196Y04923*
X05202Y04931*
X05206Y0494*
X05207Y0495*
X05206Y04959*
X05202Y04968*
X05196Y04976*
X05188Y04982*
X05179Y04986*
X0517Y04987*
X0516Y04986*
X05151Y04982*
X05143Y04976*
X05137Y04968*
X05136Y04966*
X05095*
X05093Y04971*
X05096Y04973*
X05102Y04981*
X05106Y0499*
X05107Y05*
X05106Y05009*
X05102Y05018*
X05096Y05026*
X05088Y05032*
X05079Y05036*
X0507Y05037*
G37*
G36*
X083Y04975D02*
X08289Y04974D01*
X08279Y0497*
X08271Y04963*
X08265Y04955*
X08194*
X08187Y04953*
X0818Y04949*
X08082Y04851*
X08019*
X08013Y04859*
X08005Y04865*
X07995Y04869*
X07984Y04871*
X07974Y04869*
X07964Y04865*
X07956Y04859*
X07949Y04851*
X07945Y04841*
X07944Y0483*
X07945Y0482*
X07949Y0481*
X07956Y04802*
X07964Y04795*
X07965Y04795*
X07964Y0479*
X07927*
X07897Y0482*
X07898Y0483*
X07897Y04841*
X07893Y04851*
X07887Y04859*
X07878Y04865*
X07868Y04869*
X07858Y04871*
X07848Y04869*
X07838Y04865*
X07829Y04859*
X07823Y04851*
X07819Y04841*
X07818Y0483*
X07819Y0482*
X07823Y0481*
X07829Y04802*
X07838Y04795*
X07848Y04791*
X07858Y0479*
X07868Y04791*
X07904Y04755*
X07911Y04751*
X07919Y04749*
X0815*
X08157Y04751*
X08164Y04755*
X08223Y04814*
X08265*
X08271Y04806*
X08279Y048*
X08289Y04796*
X083Y04794*
X0831Y04796*
X0832Y048*
X08328Y04806*
X08335Y04814*
X08338Y04824*
X0834Y04835*
X08338Y04845*
X08335Y04855*
X08328Y04863*
X0832Y0487*
X0831Y04874*
X083Y04875*
X08289Y04874*
X08279Y0487*
X08271Y04863*
X08265Y04855*
X08214*
X08207Y04853*
X082Y04849*
X08141Y0479*
X08005*
X08004Y04795*
X08005Y04795*
X08013Y04802*
X08019Y0481*
X0809*
X08098Y04811*
X08105Y04816*
X08203Y04914*
X08265*
X08271Y04906*
X08279Y049*
X08289Y04896*
X083Y04894*
X0831Y04896*
X0832Y049*
X08328Y04906*
X08335Y04914*
X08338Y04924*
X0834Y04935*
X08338Y04945*
X08335Y04955*
X08328Y04963*
X0832Y0497*
X0831Y04974*
X083Y04975*
G37*
G36*
X08519Y0497D02*
Y04954D01*
X08535*
Y04955*
X08528Y04963*
X0852Y0497*
X08519*
G37*
G36*
X04719D02*
Y04954D01*
X04735*
Y04955*
X04728Y04963*
X0472Y0497*
X04719*
G37*
G36*
X0848D02*
X08479D01*
X08471Y04963*
X08464Y04955*
Y04954*
X0848*
Y0497*
G37*
G36*
X07877Y04964D02*
Y04948D01*
X07893*
X07893Y04949*
X07887Y04957*
X07878Y04964*
X07877Y04964*
G37*
G36*
X07838D02*
X07838Y04964D01*
X07829Y04957*
X07823Y04949*
Y04948*
X07838*
Y04964*
G37*
G36*
X08535Y04915D02*
X08519D01*
Y04899*
X0852Y049*
X08528Y04906*
X08535Y04914*
Y04915*
G37*
G36*
X0848D02*
X08464D01*
Y04914*
X08471Y04906*
X08479Y049*
X0848Y04899*
Y04915*
G37*
G36*
X07893Y04909D02*
X07877D01*
Y04894*
X07878*
X07887Y049*
X07893Y04909*
X07893Y04909*
G37*
G36*
X07838D02*
X07823D01*
Y04909*
X07829Y049*
X07838Y04894*
X07838*
Y04909*
G37*
G36*
X08519Y0487D02*
Y04854D01*
X08535*
Y04855*
X08528Y04863*
X0852Y0487*
X08519*
G37*
G36*
X06319D02*
Y04854D01*
X06335*
Y04855*
X06328Y04863*
X0632Y0487*
X06319*
G37*
G36*
X0848D02*
X08479D01*
X08471Y04863*
X08464Y04855*
Y04854*
X0848*
Y0487*
G37*
G36*
X049Y05575D02*
X04889Y05574D01*
X04879Y0557*
X04871Y05563*
X04864Y05555*
X04861Y05545*
X04859Y05535*
X04861Y05524*
X04864Y05514*
X04871Y05506*
X04879Y055*
X04889Y05496*
X049Y05494*
X0491Y05496*
X04919Y05499*
X051*
X05234Y05365*
Y04864*
X05211Y04841*
X05206Y04843*
X05207Y0485*
X05206Y04859*
X05202Y04868*
X05196Y04876*
X05188Y04882*
X05179Y04886*
X0517Y04887*
X0516Y04886*
X05151Y04882*
X05143Y04876*
X05137Y04868*
X05133Y04859*
X05132Y0485*
X05133Y0484*
X05137Y04831*
X05143Y04823*
X05151Y04817*
X0516Y04813*
X0517Y04812*
X05176Y04813*
X05178Y04808*
X05153Y04783*
X05151Y04782*
X05143Y04776*
X05137Y04768*
X05133Y04759*
X05132Y0475*
X05133Y0474*
X05137Y04731*
X05143Y04723*
X05151Y04717*
X0516Y04713*
X0517Y04712*
X05179Y04713*
X05188Y04717*
X05196Y04723*
X05202Y04731*
X05203Y04733*
X05294Y04824*
X053Y04832*
X05304Y0484*
X05305Y0485*
Y05379*
X05304Y05388*
X053Y05397*
X05294Y05405*
X0514Y05559*
X05132Y05565*
X05124Y05569*
X05114Y0557*
X04919*
X0491Y05574*
X049Y05575*
G37*
G36*
X065D02*
X06489Y05574D01*
X06479Y0557*
X06471Y05563*
X06464Y05555*
X06461Y05545*
X06459Y05535*
X06461Y05524*
X06464Y05514*
X06471Y05506*
X06479Y055*
X06489Y05496*
X065Y05494*
X0651Y05496*
X06519Y05499*
X0665*
X06864Y05285*
Y04894*
X06811Y04841*
X06806Y04843*
X06807Y0485*
X06806Y04859*
X06802Y04868*
X06796Y04876*
X06788Y04882*
X06779Y04886*
X0677Y04887*
X0676Y04886*
X06751Y04882*
X06743Y04876*
X06737Y04868*
X06733Y04859*
X06732Y0485*
X06733Y0484*
X06737Y04831*
X06743Y04823*
X06751Y04817*
X0676Y04813*
X0677Y04812*
X06776Y04813*
X06778Y04808*
X06753Y04783*
X06751Y04782*
X06743Y04776*
X06737Y04768*
X06733Y04759*
X06732Y0475*
X06733Y0474*
X06737Y04731*
X06743Y04723*
X06751Y04717*
X0676Y04713*
X0677Y04712*
X06779Y04713*
X06788Y04717*
X06796Y04723*
X06802Y04731*
X06803Y04733*
X06925Y04855*
X0693Y04862*
X06934Y0487*
X06935Y04879*
Y053*
X06934Y05309*
X0693Y05317*
X06925Y05325*
X0669Y05559*
X06682Y05565*
X06674Y05569*
X06664Y0557*
X06519*
X0651Y05574*
X065Y05575*
G37*
G36*
X08535Y04815D02*
X08519D01*
Y04799*
X0852Y048*
X08528Y04806*
X08535Y04814*
Y04815*
G37*
G36*
X0848D02*
X08464D01*
Y04814*
X08471Y04806*
X08479Y048*
X0848Y04799*
Y04815*
G37*
G36*
X065Y04875D02*
X06489Y04874D01*
X06479Y0487*
X06471Y04863*
X06464Y04855*
X06461Y04845*
X06459Y04835*
X06461Y04824*
X06464Y04814*
X06471Y04806*
X06479Y048*
X06489Y04796*
X065Y04794*
X0651Y04796*
X0652Y048*
X06528Y04806*
X06535Y04814*
X06536Y04818*
X06588*
X06618Y04788*
X06623Y04785*
X06629Y04783*
X06636*
X06637Y04781*
X06643Y04773*
X06651Y04767*
X0666Y04763*
X0667Y04762*
X06679Y04763*
X06688Y04767*
X06696Y04773*
X06702Y04781*
X06706Y0479*
X06707Y048*
X06706Y04809*
X06702Y04818*
X06696Y04826*
X06688Y04832*
X06679Y04836*
X0667Y04837*
X0666Y04836*
X06651Y04832*
X06643Y04826*
X06639Y0482*
X06633Y0482*
X06606Y04846*
X06601Y0485*
X06594Y04851*
X06536*
X06535Y04855*
X06528Y04863*
X0652Y0487*
X0651Y04874*
X065Y04875*
G37*
G36*
X049D02*
X04889Y04874D01*
X04879Y0487*
X04871Y04863*
X04864Y04855*
X04861Y04845*
X04859Y04835*
X04861Y04824*
X04864Y04814*
X04871Y04806*
X04879Y048*
X04889Y04796*
X049Y04794*
X0491Y04796*
X0492Y048*
X04928Y04806*
X04935Y04814*
X04936Y04818*
X04968*
X04998Y04788*
X05003Y04785*
X05009Y04783*
X05036*
X05037Y04781*
X05043Y04773*
X05051Y04767*
X0506Y04763*
X0507Y04762*
X05079Y04763*
X05088Y04767*
X05096Y04773*
X05102Y04781*
X05106Y0479*
X05107Y048*
X05106Y04809*
X05102Y04818*
X05096Y04826*
X05088Y04832*
X05079Y04836*
X0507Y04837*
X0506Y04836*
X05051Y04832*
X05043Y04826*
X05037Y04818*
X05036Y04816*
X05016*
X04986Y04846*
X04981Y0485*
X04974Y04851*
X04936*
X04935Y04855*
X04928Y04863*
X0492Y0487*
X0491Y04874*
X049Y04875*
G37*
G36*
X08519Y0477D02*
Y04754D01*
X08535*
Y04755*
X08528Y04763*
X0852Y0477*
X08519*
G37*
G36*
X08319D02*
Y04754D01*
X08335*
Y04755*
X08328Y04763*
X0832Y0477*
X08319*
G37*
G36*
X04719D02*
Y04754D01*
X04735*
Y04755*
X04728Y04763*
X0472Y0477*
X04719*
G37*
G36*
X0848D02*
X08479D01*
X08471Y04763*
X08464Y04755*
Y04754*
X0848*
Y0477*
G37*
G36*
X0828D02*
X08279D01*
X08271Y04763*
X08264Y04755*
Y04754*
X0828*
Y0477*
G37*
G36*
X06689Y04731D02*
Y04719D01*
X06701*
X06696Y04726*
X06689Y04731*
G37*
G36*
X05089D02*
Y04719D01*
X05101*
X05096Y04726*
X05089Y04731*
G37*
G36*
X0665D02*
X06643Y04726D01*
X06638Y04719*
X0665*
Y04731*
G37*
G36*
X0505D02*
X05043Y04726D01*
X05038Y04719*
X0505*
Y04731*
G37*
G36*
X08535Y04715D02*
X08519D01*
Y04699*
X0852Y047*
X08528Y04706*
X08535Y04714*
Y04715*
G37*
G36*
X08335D02*
X08319D01*
Y04699*
X0832Y047*
X08328Y04706*
X08335Y04714*
Y04715*
G37*
G36*
X0848D02*
X08464D01*
Y04714*
X08471Y04706*
X08479Y047*
X0848Y04699*
Y04715*
G37*
G36*
X0828D02*
X08264D01*
Y04714*
X08271Y04706*
X08279Y047*
X0828Y04699*
Y04715*
G37*
G36*
X065Y04775D02*
X06489Y04774D01*
X06479Y0477*
X06471Y04763*
X06464Y04755*
X06461Y04745*
X06459Y04735*
X06461Y04724*
X06464Y04714*
X06471Y04706*
X06479Y047*
X06489Y04696*
X065Y04694*
X0651Y04696*
X0652Y047*
X06528Y04706*
X06535Y04714*
X06538Y04724*
X0654Y04735*
X06538Y04745*
X06535Y04755*
X06528Y04763*
X0652Y0477*
X0651Y04774*
X065Y04775*
G37*
G36*
X049D02*
X04889Y04774D01*
X04879Y0477*
X04871Y04763*
X04864Y04755*
X04861Y04745*
X04859Y04735*
X04861Y04724*
X04864Y04714*
X04871Y04706*
X04879Y047*
X04889Y04696*
X049Y04694*
X0491Y04696*
X0492Y047*
X04928Y04706*
X04935Y04714*
X04938Y04724*
X0494Y04735*
X04938Y04745*
X04935Y04755*
X04928Y04763*
X0492Y0477*
X0491Y04774*
X049Y04775*
G37*
G36*
X06701Y0468D02*
X06689D01*
Y04668*
X06696Y04673*
X06701Y0468*
G37*
G36*
X05101D02*
X05089D01*
Y04668*
X05096Y04673*
X05101Y0468*
G37*
G36*
X0665D02*
X06638D01*
X06643Y04673*
X0665Y04668*
Y0468*
G37*
G36*
X0505D02*
X05038D01*
X05043Y04673*
X0505Y04668*
Y0468*
G37*
G36*
X08519Y0467D02*
Y04654D01*
X08535*
Y04655*
X08528Y04663*
X0852Y0467*
X08519*
G37*
G36*
X08319D02*
Y04654D01*
X08335*
Y04655*
X08328Y04663*
X0832Y0467*
X08319*
G37*
G36*
X06319D02*
Y04654D01*
X06335*
Y04655*
X06328Y04663*
X0632Y0467*
X06319*
G37*
G36*
X0848D02*
X08479D01*
X08471Y04663*
X08464Y04655*
Y04654*
X0848*
Y0467*
G37*
G36*
X0828D02*
X08279D01*
X08271Y04663*
X08264Y04655*
Y04654*
X0828*
Y0467*
G37*
G36*
X0628D02*
X06279D01*
X06271Y04663*
X06264Y04655*
Y04654*
X0628*
Y0467*
G37*
G36*
X06335Y04615D02*
X06319D01*
Y04599*
X0632Y046*
X06328Y04606*
X06335Y04614*
Y04615*
G37*
G36*
X08535D02*
X08519D01*
Y04599*
X0852Y046*
X08528Y04606*
X08535Y04614*
Y04615*
G37*
G36*
X08335D02*
X08319D01*
Y04599*
X0832Y046*
X08328Y04606*
X08335Y04614*
Y04615*
G37*
G36*
X0628D02*
X06264D01*
Y04614*
X06271Y04606*
X06279Y046*
X0628Y04599*
Y04615*
G37*
G36*
X0848D02*
X08464D01*
Y04614*
X08471Y04606*
X08479Y046*
X0848Y04599*
Y04615*
G37*
G36*
X0828D02*
X08264D01*
Y04614*
X08271Y04606*
X08279Y046*
X0828Y04599*
Y04615*
G37*
G36*
X065Y04675D02*
X06489Y04674D01*
X06479Y0467*
X06471Y04663*
X06464Y04655*
X06461Y04645*
X06459Y04635*
X06461Y04624*
X06464Y04614*
X06471Y04606*
X06479Y046*
X06489Y04596*
X065Y04594*
X0651Y04596*
X0652Y046*
X06528Y04606*
X06535Y04614*
X06538Y04624*
X0654Y04635*
X06538Y04645*
X06535Y04655*
X06528Y04663*
X0652Y0467*
X0651Y04674*
X065Y04675*
G37*
G36*
X049D02*
X04889Y04674D01*
X04879Y0467*
X04871Y04663*
X04864Y04655*
X04861Y04645*
X04859Y04635*
X04861Y04624*
X04864Y04614*
X04871Y04606*
X04879Y046*
X04889Y04596*
X049Y04594*
X0491Y04596*
X0492Y046*
X04928Y04606*
X04935Y04614*
X04938Y04624*
X0494Y04635*
X04938Y04645*
X04935Y04655*
X04928Y04663*
X0492Y0467*
X0491Y04674*
X049Y04675*
G37*
G36*
X07878Y04698D02*
X07863Y04696D01*
X0785Y04691*
X07838Y04682*
X07829Y0467*
X07824Y04657*
X07822Y04642*
X07824Y04628*
X07829Y04614*
X07838Y04603*
X0785Y04594*
X07863Y04588*
X07878Y04587*
X07892Y04588*
X07906Y04594*
X07917Y04603*
X07926Y04614*
X07932Y04628*
X07934Y04642*
X07932Y04657*
X07926Y0467*
X07917Y04682*
X07906Y04691*
X07892Y04696*
X07878Y04698*
G37*
G36*
X0702Y04724D02*
X07005Y04722D01*
X06991Y04718*
X06978Y04711*
X06967Y04702*
X06958Y04691*
X06951Y04678*
X06946Y04664*
X06945Y0465*
X06946Y04635*
X06951Y04621*
X06958Y04608*
X06967Y04597*
X06978Y04588*
X06991Y04581*
X07005Y04577*
X0702Y04575*
X07034Y04577*
X07048Y04581*
X07061Y04588*
X07072Y04597*
X07081Y04608*
X07088Y04621*
X07092Y04635*
X07094Y0465*
X07092Y04664*
X07088Y04678*
X07081Y04691*
X07072Y04702*
X07061Y04711*
X07048Y04718*
X07034Y04722*
X0702Y04724*
G37*
G36*
X0542D02*
X05405Y04722D01*
X05391Y04718*
X05378Y04711*
X05367Y04702*
X05358Y04691*
X05351Y04678*
X05346Y04664*
X05345Y0465*
X05346Y04635*
X05351Y04621*
X05358Y04608*
X05367Y04597*
X05378Y04588*
X05391Y04581*
X05405Y04577*
X0542Y04575*
X05434Y04577*
X05448Y04581*
X05461Y04588*
X05472Y04597*
X05481Y04608*
X05488Y04621*
X05492Y04635*
X05494Y0465*
X05492Y04664*
X05488Y04678*
X05481Y04691*
X05472Y04702*
X05461Y04711*
X05448Y04718*
X05434Y04722*
X0542Y04724*
G37*
G36*
X06319Y0457D02*
Y04554D01*
X06335*
Y04555*
X06328Y04563*
X0632Y0457*
X06319*
G37*
G36*
X04719D02*
Y04554D01*
X04735*
Y04555*
X04728Y04563*
X0472Y0457*
X04719*
G37*
G36*
X08519D02*
Y04554D01*
X08535*
Y04555*
X08528Y04563*
X0852Y0457*
X08519*
G37*
G36*
X08319D02*
Y04554D01*
X08335*
Y04555*
X08328Y04563*
X0832Y0457*
X08319*
G37*
G36*
X0628D02*
X06279D01*
X06271Y04563*
X06264Y04555*
Y04554*
X0628*
Y0457*
G37*
G36*
X0468D02*
X04679D01*
X04671Y04563*
X04664Y04555*
Y04554*
X0468*
Y0457*
G37*
G36*
X0848D02*
X08479D01*
X08471Y04563*
X08464Y04555*
Y04554*
X0848*
Y0457*
G37*
G36*
X0828D02*
X08279D01*
X08271Y04563*
X08264Y04555*
Y04554*
X0828*
Y0457*
G37*
G36*
X08535Y04515D02*
X08519D01*
Y04499*
X0852Y045*
X08528Y04506*
X08535Y04514*
Y04515*
G37*
G36*
X08335D02*
X08319D01*
Y04499*
X0832Y045*
X08328Y04506*
X08335Y04514*
Y04515*
G37*
G36*
X06335D02*
X06319D01*
Y04499*
X0632Y045*
X06328Y04506*
X06335Y04514*
Y04515*
G37*
G36*
X04735D02*
X04719D01*
Y04499*
X0472Y045*
X04728Y04506*
X04735Y04514*
Y04515*
G37*
G36*
X0848D02*
X08464D01*
Y04514*
X08471Y04506*
X08479Y045*
X0848Y04499*
Y04515*
G37*
G36*
X0828D02*
X08264D01*
Y04514*
X08271Y04506*
X08279Y045*
X0828Y04499*
Y04515*
G37*
G36*
X0628D02*
X06264D01*
Y04514*
X06271Y04506*
X06279Y045*
X0628Y04499*
Y04515*
G37*
G36*
X0468D02*
X04664D01*
Y04514*
X04671Y04506*
X04679Y045*
X0468Y04499*
Y04515*
G37*
G36*
X08519Y0447D02*
Y04454D01*
X08535*
Y04455*
X08528Y04463*
X0852Y0447*
X08519*
G37*
G36*
X08319D02*
Y04454D01*
X08335*
Y04455*
X08328Y04463*
X0832Y0447*
X08319*
G37*
G36*
X06319D02*
Y04454D01*
X06335*
Y04455*
X06328Y04463*
X0632Y0447*
X06319*
G37*
G36*
X04719D02*
Y04454D01*
X04735*
Y04455*
X04728Y04463*
X0472Y0447*
X04719*
G37*
G36*
X0848D02*
X08479D01*
X08471Y04463*
X08464Y04455*
Y04454*
X0848*
Y0447*
G37*
G36*
X0828D02*
X08279D01*
X08271Y04463*
X08264Y04455*
Y04454*
X0828*
Y0447*
G37*
G36*
X0628D02*
X06279D01*
X06271Y04463*
X06264Y04455*
Y04454*
X0628*
Y0447*
G37*
G36*
X0468D02*
X04679D01*
X04671Y04463*
X04664Y04455*
Y04454*
X0468*
Y0447*
G37*
G36*
X08535Y04415D02*
X08519D01*
Y04399*
X0852Y044*
X08528Y04406*
X08535Y04414*
Y04415*
G37*
G36*
X08335D02*
X08319D01*
Y04399*
X0832Y044*
X08328Y04406*
X08335Y04414*
Y04415*
G37*
G36*
X06335D02*
X06319D01*
Y04399*
X0632Y044*
X06328Y04406*
X06335Y04414*
Y04415*
G37*
G36*
X04735D02*
X04719D01*
Y04399*
X0472Y044*
X04728Y04406*
X04735Y04414*
Y04415*
G37*
G36*
X0848D02*
X08464D01*
Y04414*
X08471Y04406*
X08479Y044*
X0848Y04399*
Y04415*
G37*
G36*
X0828D02*
X08264D01*
Y04414*
X08271Y04406*
X08279Y044*
X0828Y04399*
Y04415*
G37*
G36*
X0628D02*
X06264D01*
Y04414*
X06271Y04406*
X06279Y044*
X0628Y04399*
Y04415*
G37*
G36*
X0468D02*
X04664D01*
Y04414*
X04671Y04406*
X04679Y044*
X0468Y04399*
Y04415*
G37*
G36*
X08519Y0437D02*
Y04354D01*
X08535*
Y04355*
X08528Y04363*
X0852Y0437*
X08519*
G37*
G36*
X08319D02*
Y04354D01*
X08335*
Y04355*
X08328Y04363*
X0832Y0437*
X08319*
G37*
G36*
X06319D02*
Y04354D01*
X06335*
Y04355*
X06328Y04363*
X0632Y0437*
X06319*
G37*
G36*
X04719D02*
Y04354D01*
X04735*
Y04355*
X04728Y04363*
X0472Y0437*
X04719*
G37*
G36*
X0848D02*
X08479D01*
X08471Y04363*
X08464Y04355*
Y04354*
X0848*
Y0437*
G37*
G36*
X0828D02*
X08279D01*
X08271Y04363*
X08264Y04355*
Y04354*
X0828*
Y0437*
G37*
G36*
X0628D02*
X06279D01*
X06271Y04363*
X06264Y04355*
Y04354*
X0628*
Y0437*
G37*
G36*
X0468D02*
X04679D01*
X04671Y04363*
X04664Y04355*
Y04354*
X0468*
Y0437*
G37*
G36*
X08535Y04315D02*
X08519D01*
Y04299*
X0852Y043*
X08528Y04306*
X08535Y04314*
Y04315*
G37*
G36*
X08335D02*
X08319D01*
Y04299*
X0832Y043*
X08328Y04306*
X08335Y04314*
Y04315*
G37*
G36*
X06335D02*
X06319D01*
Y04299*
X0632Y043*
X06328Y04306*
X06335Y04314*
Y04315*
G37*
G36*
X04735D02*
X04719D01*
Y04299*
X0472Y043*
X04728Y04306*
X04735Y04314*
Y04315*
G37*
G36*
X0848D02*
X08464D01*
Y04314*
X08471Y04306*
X08479Y043*
X0848Y04299*
Y04315*
G37*
G36*
X0828D02*
X08264D01*
Y04314*
X08271Y04306*
X08279Y043*
X0828Y04299*
Y04315*
G37*
G36*
X0628D02*
X06264D01*
Y04314*
X06271Y04306*
X06279Y043*
X0628Y04299*
Y04315*
G37*
G36*
X0468D02*
X04664D01*
Y04314*
X04671Y04306*
X04679Y043*
X0468Y04299*
Y04315*
G37*
G36*
X0702Y04444D02*
X07005Y04442D01*
X06991Y04438*
X06978Y04431*
X06967Y04422*
X06958Y04411*
X06951Y04398*
X06946Y04384*
X06945Y0437*
X06946Y04355*
X06951Y04341*
X06958Y04328*
X06967Y04317*
X06978Y04308*
X06991Y04301*
X07005Y04296*
X0702Y04295*
X07034Y04296*
X07048Y04301*
X07061Y04308*
X07072Y04317*
X07081Y04328*
X07088Y04341*
X07092Y04355*
X07094Y0437*
X07092Y04384*
X07088Y04398*
X07081Y04411*
X07072Y04422*
X07061Y04431*
X07048Y04438*
X07034Y04442*
X0702Y04444*
G37*
G36*
X0542D02*
X05405Y04442D01*
X05391Y04438*
X05378Y04431*
X05367Y04422*
X05358Y04411*
X05351Y04398*
X05346Y04384*
X05345Y0437*
X05346Y04355*
X05351Y04341*
X05358Y04328*
X05367Y04317*
X05378Y04308*
X05391Y04301*
X05405Y04296*
X0542Y04295*
X05434Y04296*
X05448Y04301*
X05461Y04308*
X05472Y04317*
X05481Y04328*
X05488Y04341*
X05492Y04355*
X05494Y0437*
X05492Y04384*
X05488Y04398*
X05481Y04411*
X05472Y04422*
X05461Y04431*
X05448Y04438*
X05434Y04442*
X0542Y04444*
G37*
G36*
X065Y04375D02*
X06489Y04374D01*
X06479Y0437*
X06471Y04363*
X06464Y04355*
X06461Y04345*
X06459Y04335*
X06461Y04324*
X06464Y04314*
X06471Y04306*
X06479Y043*
X06489Y04296*
X065Y04294*
X0651Y04296*
X0652Y043*
X06528Y04306*
X06535Y04314*
X06538Y04324*
X0654Y04335*
X06538Y04345*
X06535Y04355*
X06528Y04363*
X0652Y0437*
X0651Y04374*
X065Y04375*
G37*
G36*
X049D02*
X04889Y04374D01*
X04879Y0437*
X04871Y04363*
X04864Y04355*
X04861Y04345*
X04859Y04335*
X04861Y04324*
X04864Y04314*
X04871Y04306*
X04879Y043*
X04889Y04296*
X049Y04294*
X0491Y04296*
X0492Y043*
X04928Y04306*
X04935Y04314*
X04938Y04324*
X0494Y04335*
X04938Y04345*
X04935Y04355*
X04928Y04363*
X0492Y0437*
X0491Y04374*
X049Y04375*
G37*
G36*
X065Y04575D02*
X06489Y04574D01*
X06479Y0457*
X06471Y04563*
X06464Y04555*
X06461Y04545*
X06459Y04535*
X06461Y04524*
X06464Y04514*
X06471Y04506*
X06479Y045*
X06489Y04496*
X065Y04494*
X0651Y04496*
X0652Y045*
X06528Y04506*
X06535Y04514*
X06536Y04518*
X06588*
X06703Y04403*
Y04295*
X06698Y04293*
X06696Y04296*
X06688Y04302*
X06679Y04306*
X0667Y04307*
X0666Y04306*
X06651Y04302*
X06643Y04296*
X06637Y04288*
X06633Y04279*
X06632Y0427*
X06633Y0426*
X06637Y04251*
X06643Y04243*
X06651Y04237*
X0666Y04233*
X0667Y04232*
X06679Y04233*
X06688Y04237*
X06696Y04243*
X06702Y04251*
X06704Y04255*
X06704Y04256*
X0671Y04256*
X06734Y04231*
X06733Y04229*
X06732Y0422*
X06733Y0421*
X06737Y04201*
X06743Y04193*
X06751Y04187*
X0676Y04183*
X0677Y04182*
X06779Y04183*
X06788Y04187*
X06796Y04193*
X06802Y04201*
X06806Y0421*
X06807Y0422*
X06806Y04229*
X06802Y04238*
X06796Y04246*
X06788Y04252*
X06779Y04256*
X0677Y04257*
X0676Y04256*
X06757Y04255*
X06736Y04276*
Y04283*
X06807*
Y04357*
X06736*
Y04409*
X06735Y04416*
X06731Y04421*
X06606Y04546*
X06601Y0455*
X06594Y04551*
X06536*
X06535Y04555*
X06528Y04563*
X0652Y0457*
X0651Y04574*
X065Y04575*
G37*
G36*
X049D02*
X04889Y04574D01*
X04879Y0457*
X04871Y04563*
X04864Y04555*
X04861Y04545*
X04859Y04535*
X04861Y04524*
X04864Y04514*
X04871Y04506*
X04879Y045*
X04889Y04496*
X049Y04494*
X0491Y04496*
X0492Y045*
X04928Y04506*
X04935Y04514*
X04936Y04518*
X04968*
X05103Y04383*
Y04295*
X05098Y04293*
X05096Y04296*
X05088Y04302*
X05079Y04306*
X0507Y04307*
X0506Y04306*
X05051Y04302*
X05043Y04296*
X05037Y04288*
X05033Y04279*
X05032Y0427*
X05033Y0426*
X05037Y04251*
X05043Y04243*
X05051Y04237*
X0506Y04233*
X0507Y04232*
X05079Y04233*
X05088Y04237*
X05096Y04243*
X05102Y04251*
X05104Y04255*
X05104Y04256*
X0511Y04256*
X05134Y04231*
X05133Y04229*
X05132Y0422*
X05133Y0421*
X05137Y04201*
X05143Y04193*
X05151Y04187*
X0516Y04183*
X0517Y04182*
X05179Y04183*
X05188Y04187*
X05196Y04193*
X05202Y04201*
X05206Y0421*
X05207Y0422*
X05206Y04229*
X05202Y04238*
X05196Y04246*
X05188Y04252*
X05179Y04256*
X0517Y04257*
X0516Y04256*
X05157Y04255*
X05136Y04276*
Y04283*
X05207*
Y04357*
X05136*
Y0439*
X05135Y04396*
X05131Y04401*
X04986Y04546*
X04981Y0455*
X04974Y04551*
X04936*
X04935Y04555*
X04928Y04563*
X0492Y0457*
X0491Y04574*
X049Y04575*
G37*
G36*
X08519Y0427D02*
Y04254D01*
X08535*
Y04255*
X08528Y04263*
X0852Y0427*
X08519*
G37*
G36*
X08319D02*
Y04254D01*
X08335*
Y04255*
X08328Y04263*
X0832Y0427*
X08319*
G37*
G36*
X06319D02*
Y04254D01*
X06335*
Y04255*
X06328Y04263*
X0632Y0427*
X06319*
G37*
G36*
X04719D02*
Y04254D01*
X04735*
Y04255*
X04728Y04263*
X0472Y0427*
X04719*
G37*
G36*
X0848D02*
X08479D01*
X08471Y04263*
X08464Y04255*
Y04254*
X0848*
Y0427*
G37*
G36*
X0828D02*
X08279D01*
X08271Y04263*
X08264Y04255*
Y04254*
X0828*
Y0427*
G37*
G36*
X0628D02*
X06279D01*
X06271Y04263*
X06264Y04255*
Y04254*
X0628*
Y0427*
G37*
G36*
X0468D02*
X04679D01*
X04671Y04263*
X04664Y04255*
Y04254*
X0468*
Y0427*
G37*
G36*
X06335Y04215D02*
X06319D01*
Y04199*
X0632Y042*
X06328Y04206*
X06335Y04214*
Y04215*
G37*
G36*
X04735D02*
X04719D01*
Y04199*
X0472Y042*
X04728Y04206*
X04735Y04214*
Y04215*
G37*
G36*
X08535D02*
X08519D01*
Y04199*
X0852Y042*
X08528Y04206*
X08535Y04214*
Y04215*
G37*
G36*
X08335D02*
X08319D01*
Y04199*
X0832Y042*
X08328Y04206*
X08335Y04214*
Y04215*
G37*
G36*
X0628D02*
X06264D01*
Y04214*
X06271Y04206*
X06279Y042*
X0628Y04199*
Y04215*
G37*
G36*
X0468D02*
X04664D01*
Y04214*
X04671Y04206*
X04679Y042*
X0468Y04199*
Y04215*
G37*
G36*
X0848D02*
X08464D01*
Y04214*
X08471Y04206*
X08479Y042*
X0848Y04199*
Y04215*
G37*
G36*
X0828D02*
X08264D01*
Y04214*
X08271Y04206*
X08279Y042*
X0828Y04199*
Y04215*
G37*
G36*
X065Y04275D02*
X06489Y04274D01*
X06479Y0427*
X06471Y04263*
X06464Y04255*
X06461Y04245*
X06459Y04235*
X06461Y04224*
X06464Y04214*
X06471Y04206*
X06479Y042*
X06489Y04196*
X065Y04194*
X0651Y04196*
X0652Y042*
X06528Y04206*
X06535Y04214*
X06538Y04224*
X0654Y04235*
X06538Y04245*
X06535Y04255*
X06528Y04263*
X0652Y0427*
X0651Y04274*
X065Y04275*
G37*
G36*
X049D02*
X04889Y04274D01*
X04879Y0427*
X04871Y04263*
X04864Y04255*
X04861Y04245*
X04859Y04235*
X04861Y04224*
X04864Y04214*
X04871Y04206*
X04879Y042*
X04889Y04196*
X049Y04194*
X0491Y04196*
X0492Y042*
X04928Y04206*
X04935Y04214*
X04938Y04224*
X0494Y04235*
X04938Y04245*
X04935Y04255*
X04928Y04263*
X0492Y0427*
X0491Y04274*
X049Y04275*
G37*
G36*
X08519Y0417D02*
Y04154D01*
X08535*
Y04155*
X08528Y04163*
X0852Y0417*
X08519*
G37*
G36*
X08319D02*
Y04154D01*
X08335*
Y04155*
X08328Y04163*
X0832Y0417*
X08319*
G37*
G36*
X06519D02*
Y04154D01*
X06535*
Y04155*
X06528Y04163*
X0652Y0417*
X06519*
G37*
G36*
X06319D02*
Y04154D01*
X06335*
Y04155*
X06328Y04163*
X0632Y0417*
X06319*
G37*
G36*
X04919D02*
Y04154D01*
X04935*
Y04155*
X04928Y04163*
X0492Y0417*
X04919*
G37*
G36*
X04719D02*
Y04154D01*
X04735*
Y04155*
X04728Y04163*
X0472Y0417*
X04719*
G37*
G36*
X0848D02*
X08479D01*
X08471Y04163*
X08464Y04155*
Y04154*
X0848*
Y0417*
G37*
G36*
X0828D02*
X08279D01*
X08271Y04163*
X08264Y04155*
Y04154*
X0828*
Y0417*
G37*
G36*
X0648D02*
X06479D01*
X06471Y04163*
X06464Y04155*
Y04154*
X0648*
Y0417*
G37*
G36*
X0628D02*
X06279D01*
X06271Y04163*
X06264Y04155*
Y04154*
X0628*
Y0417*
G37*
G36*
X0488D02*
X04879D01*
X04871Y04163*
X04864Y04155*
Y04154*
X0488*
Y0417*
G37*
G36*
X0468D02*
X04679D01*
X04671Y04163*
X04664Y04155*
Y04154*
X0468*
Y0417*
G37*
G36*
X0667Y04207D02*
X0666Y04206D01*
X06651Y04202*
X06643Y04196*
X06637Y04188*
X06633Y04179*
X06632Y0417*
X06633Y0416*
X06637Y04151*
X06643Y04143*
X06651Y04137*
X0666Y04133*
X0667Y04132*
X06679Y04133*
X06688Y04137*
X06696Y04143*
X06702Y04151*
X06706Y0416*
X06707Y0417*
X06706Y04179*
X06702Y04188*
X06696Y04196*
X06688Y04202*
X06679Y04206*
X0667Y04207*
G37*
G36*
X0507D02*
X0506Y04206D01*
X05051Y04202*
X05043Y04196*
X05037Y04188*
X05033Y04179*
X05032Y0417*
X05033Y0416*
X05037Y04151*
X05043Y04143*
X05051Y04137*
X0506Y04133*
X0507Y04132*
X05079Y04133*
X05088Y04137*
X05096Y04143*
X05102Y04151*
X05106Y0416*
X05107Y0417*
X05106Y04179*
X05102Y04188*
X05096Y04196*
X05088Y04202*
X05079Y04206*
X0507Y04207*
G37*
G36*
X06535Y04115D02*
X06519D01*
Y04099*
X0652Y041*
X06528Y04106*
X06535Y04114*
Y04115*
G37*
G36*
X06335D02*
X06319D01*
Y04099*
X0632Y041*
X06328Y04106*
X06335Y04114*
Y04115*
G37*
G36*
X04935D02*
X04919D01*
Y04099*
X0492Y041*
X04928Y04106*
X04935Y04114*
Y04115*
G37*
G36*
X04735D02*
X04719D01*
Y04099*
X0472Y041*
X04728Y04106*
X04735Y04114*
Y04115*
G37*
G36*
X08535D02*
X08519D01*
Y04099*
X0852Y041*
X08528Y04106*
X08535Y04114*
Y04115*
G37*
G36*
X08335D02*
X08319D01*
Y04099*
X0832Y041*
X08328Y04106*
X08335Y04114*
Y04115*
G37*
G36*
X0648D02*
X06464D01*
Y04114*
X06471Y04106*
X06479Y041*
X0648Y04099*
Y04115*
G37*
G36*
X0628D02*
X06264D01*
Y04114*
X06271Y04106*
X06279Y041*
X0628Y04099*
Y04115*
G37*
G36*
X0488D02*
X04864D01*
Y04114*
X04871Y04106*
X04879Y041*
X0488Y04099*
Y04115*
G37*
G36*
X0468D02*
X04664D01*
Y04114*
X04671Y04106*
X04679Y041*
X0468Y04099*
Y04115*
G37*
G36*
X0848D02*
X08464D01*
Y04114*
X08471Y04106*
X08479Y041*
X0848Y04099*
Y04115*
G37*
G36*
X0828D02*
X08264D01*
Y04114*
X08271Y04106*
X08279Y041*
X0828Y04099*
Y04115*
G37*
G36*
X0677Y04157D02*
X0676Y04156D01*
X06751Y04152*
X06743Y04146*
X06737Y04138*
X06733Y04129*
X06732Y0412*
X06733Y0411*
X06737Y04101*
X06743Y04093*
X06751Y04087*
X0676Y04083*
X0677Y04082*
X06779Y04083*
X06788Y04087*
X06796Y04093*
X06802Y04101*
X06806Y0411*
X06807Y0412*
X06806Y04129*
X06802Y04138*
X06796Y04146*
X06788Y04152*
X06779Y04156*
X0677Y04157*
G37*
G36*
X0517D02*
X0516Y04156D01*
X05151Y04152*
X05143Y04146*
X05137Y04138*
X05133Y04129*
X05132Y0412*
X05133Y0411*
X05137Y04101*
X05143Y04093*
X05151Y04087*
X0516Y04083*
X0517Y04082*
X05179Y04083*
X05188Y04087*
X05196Y04093*
X05202Y04101*
X05206Y0411*
X05207Y0412*
X05206Y04129*
X05202Y04138*
X05196Y04146*
X05188Y04152*
X05179Y04156*
X0517Y04157*
G37*
G36*
X06519Y0407D02*
Y04054D01*
X06535*
Y04055*
X06528Y04063*
X0652Y0407*
X06519*
G37*
G36*
X06319D02*
Y04054D01*
X06335*
Y04055*
X06328Y04063*
X0632Y0407*
X06319*
G37*
G36*
X04919D02*
Y04054D01*
X04935*
Y04055*
X04928Y04063*
X0492Y0407*
X04919*
G37*
G36*
X04719D02*
Y04054D01*
X04735*
Y04055*
X04728Y04063*
X0472Y0407*
X04719*
G37*
G36*
X08519D02*
Y04054D01*
X08535*
Y04055*
X08528Y04063*
X0852Y0407*
X08519*
G37*
G36*
X08319D02*
Y04054D01*
X08335*
Y04055*
X08328Y04063*
X0832Y0407*
X08319*
G37*
G36*
X0648D02*
X06479D01*
X06471Y04063*
X06464Y04055*
Y04054*
X0648*
Y0407*
G37*
G36*
X0628D02*
X06279D01*
X06271Y04063*
X06264Y04055*
Y04054*
X0628*
Y0407*
G37*
G36*
X0488D02*
X04879D01*
X04871Y04063*
X04864Y04055*
Y04054*
X0488*
Y0407*
G37*
G36*
X0468D02*
X04679D01*
X04671Y04063*
X04664Y04055*
Y04054*
X0468*
Y0407*
G37*
G36*
X0848D02*
X08479D01*
X08471Y04063*
X08464Y04055*
Y04054*
X0848*
Y0407*
G37*
G36*
X0828D02*
X08279D01*
X08271Y04063*
X08264Y04055*
Y04054*
X0828*
Y0407*
G37*
G36*
X065Y04475D02*
X06489Y04474D01*
X06479Y0447*
X06471Y04463*
X06464Y04455*
X06461Y04445*
X06459Y04435*
X06461Y04424*
X06464Y04414*
X06471Y04406*
X06479Y044*
X06489Y04396*
X065Y04394*
X0651Y04396*
X06514Y04397*
X06573Y04338*
Y0415*
X06574Y04143*
X06578Y04138*
X06634Y04081*
X06633Y04079*
X06632Y0407*
X06633Y0406*
X06637Y04051*
X06643Y04043*
X06651Y04037*
X0666Y04033*
X0667Y04032*
X06679Y04033*
X06688Y04037*
X06696Y04043*
X06702Y04051*
X06706Y0406*
X06707Y0407*
X06706Y04079*
X06702Y04088*
X06696Y04096*
X06688Y04102*
X06679Y04106*
X0667Y04107*
X0666Y04106*
X06657Y04105*
X06606Y04156*
Y04344*
X06605Y04351*
X06601Y04356*
X06537Y0442*
X06538Y04424*
X0654Y04435*
X06538Y04445*
X06535Y04455*
X06528Y04463*
X0652Y0447*
X0651Y04474*
X065Y04475*
G37*
G36*
X049D02*
X04889Y04474D01*
X04879Y0447*
X04871Y04463*
X04864Y04455*
X04861Y04445*
X04859Y04435*
X04861Y04424*
X04864Y04414*
X04871Y04406*
X04879Y044*
X04889Y04396*
X049Y04394*
X0491Y04396*
X04914Y04397*
X04973Y04338*
Y0415*
X04974Y04143*
X04978Y04138*
X05034Y04081*
X05033Y04079*
X05032Y0407*
X05033Y0406*
X05037Y04051*
X05043Y04043*
X05051Y04037*
X0506Y04033*
X0507Y04032*
X05079Y04033*
X05088Y04037*
X05096Y04043*
X05102Y04051*
X05106Y0406*
X05107Y0407*
X05106Y04079*
X05102Y04088*
X05096Y04096*
X05088Y04102*
X05079Y04106*
X0507Y04107*
X0506Y04106*
X05057Y04105*
X05006Y04156*
Y04344*
X05005Y04351*
X05001Y04356*
X04937Y0442*
X04938Y04424*
X0494Y04435*
X04938Y04445*
X04935Y04455*
X04928Y04463*
X0492Y0447*
X0491Y04474*
X049Y04475*
G37*
G36*
X08535Y04015D02*
X08519D01*
Y03999*
X0852Y04*
X08528Y04006*
X08535Y04014*
Y04015*
G37*
G36*
X08335D02*
X08319D01*
Y03999*
X0832Y04*
X08328Y04006*
X08335Y04014*
Y04015*
G37*
G36*
X06535D02*
X06519D01*
Y03999*
X0652Y04*
X06528Y04006*
X06535Y04014*
Y04015*
G37*
G36*
X06335D02*
X06319D01*
Y03999*
X0632Y04*
X06328Y04006*
X06335Y04014*
Y04015*
G37*
G36*
X04935D02*
X04919D01*
Y03999*
X0492Y04*
X04928Y04006*
X04935Y04014*
Y04015*
G37*
G36*
X04735D02*
X04719D01*
Y03999*
X0472Y04*
X04728Y04006*
X04735Y04014*
Y04015*
G37*
G36*
X0848D02*
X08464D01*
Y04014*
X08471Y04006*
X08479Y04*
X0848Y03999*
Y04015*
G37*
G36*
X0828D02*
X08264D01*
Y04014*
X08271Y04006*
X08279Y04*
X0828Y03999*
Y04015*
G37*
G36*
X0648D02*
X06464D01*
Y04014*
X06471Y04006*
X06479Y04*
X0648Y03999*
Y04015*
G37*
G36*
X0628D02*
X06264D01*
Y04014*
X06271Y04006*
X06279Y04*
X0628Y03999*
Y04015*
G37*
G36*
X0488D02*
X04864D01*
Y04014*
X04871Y04006*
X04879Y04*
X0488Y03999*
Y04015*
G37*
G36*
X0468D02*
X04664D01*
Y04014*
X04671Y04006*
X04679Y04*
X0468Y03999*
Y04015*
G37*
G36*
X06689Y04001D02*
Y03989D01*
X06701*
X06696Y03996*
X06689Y04001*
G37*
G36*
X05089D02*
Y03989D01*
X05101*
X05096Y03996*
X05089Y04001*
G37*
G36*
X0665D02*
X06643Y03996D01*
X06638Y03989*
X0665*
Y04001*
G37*
G36*
X0505D02*
X05043Y03996D01*
X05038Y03989*
X0505*
Y04001*
G37*
G36*
X0677Y04057D02*
X0676Y04056D01*
X06751Y04052*
X06743Y04046*
X06737Y04038*
X06733Y04029*
X06732Y0402*
X06733Y0401*
X06737Y04001*
X06743Y03993*
X06751Y03987*
X0676Y03983*
X0677Y03982*
X06779Y03983*
X06788Y03987*
X06796Y03993*
X06802Y04001*
X06806Y0401*
X06807Y0402*
X06806Y04029*
X06802Y04038*
X06796Y04046*
X06788Y04052*
X06779Y04056*
X0677Y04057*
G37*
G36*
X0517D02*
X0516Y04056D01*
X05151Y04052*
X05143Y04046*
X05137Y04038*
X05133Y04029*
X05132Y0402*
X05133Y0401*
X05137Y04001*
X05143Y03993*
X05151Y03987*
X0516Y03983*
X0517Y03982*
X05179Y03983*
X05188Y03987*
X05196Y03993*
X05202Y04001*
X05206Y0401*
X05207Y0402*
X05206Y04029*
X05202Y04038*
X05196Y04046*
X05188Y04052*
X05179Y04056*
X0517Y04057*
G37*
G36*
X08519Y0397D02*
Y03954D01*
X08535*
Y03955*
X08528Y03963*
X0852Y0397*
X08519*
G37*
G36*
X08319D02*
Y03954D01*
X08335*
Y03955*
X08328Y03963*
X0832Y0397*
X08319*
G37*
G36*
X06519D02*
Y03954D01*
X06535*
Y03955*
X06528Y03963*
X0652Y0397*
X06519*
G37*
G36*
X06319D02*
Y03954D01*
X06335*
Y03955*
X06328Y03963*
X0632Y0397*
X06319*
G37*
G36*
X04919D02*
Y03954D01*
X04935*
Y03955*
X04928Y03963*
X0492Y0397*
X04919*
G37*
G36*
X04719D02*
Y03954D01*
X04735*
Y03955*
X04728Y03963*
X0472Y0397*
X04719*
G37*
G36*
X0848D02*
X08479D01*
X08471Y03963*
X08464Y03955*
Y03954*
X0848*
Y0397*
G37*
G36*
X0828D02*
X08279D01*
X08271Y03963*
X08264Y03955*
Y03954*
X0828*
Y0397*
G37*
G36*
X0648D02*
X06479D01*
X06471Y03963*
X06464Y03955*
Y03954*
X0648*
Y0397*
G37*
G36*
X0628D02*
X06279D01*
X06271Y03963*
X06264Y03955*
Y03954*
X0628*
Y0397*
G37*
G36*
X0488D02*
X04879D01*
X04871Y03963*
X04864Y03955*
Y03954*
X0488*
Y0397*
G37*
G36*
X0468D02*
X04679D01*
X04671Y03963*
X04664Y03955*
Y03954*
X0468*
Y0397*
G37*
G36*
X06701Y0395D02*
X06689D01*
Y03938*
X06696Y03943*
X06701Y0395*
G37*
G36*
X05101D02*
X05089D01*
Y03938*
X05096Y03943*
X05101Y0395*
G37*
G36*
X0665D02*
X06638D01*
X06643Y03943*
X0665Y03938*
Y0395*
G37*
G36*
X0505D02*
X05038D01*
X05043Y03943*
X0505Y03938*
Y0395*
G37*
G36*
X08535Y03915D02*
X08519D01*
Y03899*
X0852Y039*
X08528Y03906*
X08535Y03914*
Y03915*
G37*
G36*
X08335D02*
X08319D01*
Y03899*
X0832Y039*
X08328Y03906*
X08335Y03914*
Y03915*
G37*
G36*
X06535D02*
X06519D01*
Y03899*
X0652Y039*
X06528Y03906*
X06535Y03914*
Y03915*
G37*
G36*
X06335D02*
X06319D01*
Y03899*
X0632Y039*
X06328Y03906*
X06335Y03914*
Y03915*
G37*
G36*
X04935D02*
X04919D01*
Y03899*
X0492Y039*
X04928Y03906*
X04935Y03914*
Y03915*
G37*
G36*
X04735D02*
X04719D01*
Y03899*
X0472Y039*
X04728Y03906*
X04735Y03914*
Y03915*
G37*
G36*
X0848D02*
X08464D01*
Y03914*
X08471Y03906*
X08479Y039*
X0848Y03899*
Y03915*
G37*
G36*
X0828D02*
X08264D01*
Y03914*
X08271Y03906*
X08279Y039*
X0828Y03899*
Y03915*
G37*
G36*
X0648D02*
X06464D01*
Y03914*
X06471Y03906*
X06479Y039*
X0648Y03899*
Y03915*
G37*
G36*
X0628D02*
X06264D01*
Y03914*
X06271Y03906*
X06279Y039*
X0628Y03899*
Y03915*
G37*
G36*
X0488D02*
X04864D01*
Y03914*
X04871Y03906*
X04879Y039*
X0488Y03899*
Y03915*
G37*
G36*
X0468D02*
X04664D01*
Y03914*
X04671Y03906*
X04679Y039*
X0468Y03899*
Y03915*
G37*
G36*
X08519Y0387D02*
Y03854D01*
X08535*
Y03855*
X08528Y03863*
X0852Y0387*
X08519*
G37*
G36*
X08319D02*
Y03854D01*
X08335*
Y03855*
X08328Y03863*
X0832Y0387*
X08319*
G37*
G36*
X06519D02*
Y03854D01*
X06535*
Y03855*
X06528Y03863*
X0652Y0387*
X06519*
G37*
G36*
X06319D02*
Y03854D01*
X06335*
Y03855*
X06328Y03863*
X0632Y0387*
X06319*
G37*
G36*
X04919D02*
Y03854D01*
X04935*
Y03855*
X04928Y03863*
X0492Y0387*
X04919*
G37*
G36*
X04719D02*
Y03854D01*
X04735*
Y03855*
X04728Y03863*
X0472Y0387*
X04719*
G37*
G36*
X0848D02*
X08479D01*
X08471Y03863*
X08464Y03855*
Y03854*
X0848*
Y0387*
G37*
G36*
X0828D02*
X08279D01*
X08271Y03863*
X08264Y03855*
Y03854*
X0828*
Y0387*
G37*
G36*
X0648D02*
X06479D01*
X06471Y03863*
X06464Y03855*
Y03854*
X0648*
Y0387*
G37*
G36*
X0628D02*
X06279D01*
X06271Y03863*
X06264Y03855*
Y03854*
X0628*
Y0387*
G37*
G36*
X0488D02*
X04879D01*
X04871Y03863*
X04864Y03855*
Y03854*
X0488*
Y0387*
G37*
G36*
X0468D02*
X04679D01*
X04671Y03863*
X04664Y03855*
Y03854*
X0468*
Y0387*
G37*
G36*
X0702Y03994D02*
X07005Y03992D01*
X06991Y03988*
X06978Y03981*
X06967Y03972*
X06958Y03961*
X06951Y03948*
X06946Y03934*
X06945Y0392*
X06946Y03905*
X06951Y03891*
X06958Y03878*
X06967Y03867*
X06978Y03858*
X06991Y03851*
X07005Y03846*
X0702Y03845*
X07034Y03846*
X07048Y03851*
X07061Y03858*
X07072Y03867*
X07081Y03878*
X07088Y03891*
X07092Y03905*
X07094Y0392*
X07092Y03934*
X07088Y03948*
X07081Y03961*
X07072Y03972*
X07061Y03981*
X07048Y03988*
X07034Y03992*
X0702Y03994*
G37*
G36*
X0542D02*
X05405Y03992D01*
X05391Y03988*
X05378Y03981*
X05367Y03972*
X05358Y03961*
X05351Y03948*
X05346Y03934*
X05345Y0392*
X05346Y03905*
X05351Y03891*
X05358Y03878*
X05367Y03867*
X05378Y03858*
X05391Y03851*
X05405Y03846*
X0542Y03845*
X05434Y03846*
X05448Y03851*
X05461Y03858*
X05472Y03867*
X05481Y03878*
X05488Y03891*
X05492Y03905*
X05494Y0392*
X05492Y03934*
X05488Y03948*
X05481Y03961*
X05472Y03972*
X05461Y03981*
X05448Y03988*
X05434Y03992*
X0542Y03994*
G37*
G36*
X08535Y03815D02*
X08519D01*
Y03799*
X0852Y038*
X08528Y03806*
X08535Y03814*
Y03815*
G37*
G36*
X08335D02*
X08319D01*
Y03799*
X0832Y038*
X08328Y03806*
X08335Y03814*
Y03815*
G37*
G36*
X06535D02*
X06519D01*
Y03799*
X0652Y038*
X06528Y03806*
X06535Y03814*
Y03815*
G37*
G36*
X06335D02*
X06319D01*
Y03799*
X0632Y038*
X06328Y03806*
X06335Y03814*
Y03815*
G37*
G36*
X04935D02*
X04919D01*
Y03799*
X0492Y038*
X04928Y03806*
X04935Y03814*
Y03815*
G37*
G36*
X04735D02*
X04719D01*
Y03799*
X0472Y038*
X04728Y03806*
X04735Y03814*
Y03815*
G37*
G36*
X0848D02*
X08464D01*
Y03814*
X08471Y03806*
X08479Y038*
X0848Y03799*
Y03815*
G37*
G36*
X0828D02*
X08264D01*
Y03814*
X08271Y03806*
X08279Y038*
X0828Y03799*
Y03815*
G37*
G36*
X0648D02*
X06464D01*
Y03814*
X06471Y03806*
X06479Y038*
X0648Y03799*
Y03815*
G37*
G36*
X0628D02*
X06264D01*
Y03814*
X06271Y03806*
X06279Y038*
X0628Y03799*
Y03815*
G37*
G36*
X0488D02*
X04864D01*
Y03814*
X04871Y03806*
X04879Y038*
X0488Y03799*
Y03815*
G37*
G36*
X0468D02*
X04664D01*
Y03814*
X04671Y03806*
X04679Y038*
X0468Y03799*
Y03815*
G37*
G36*
X08519Y0377D02*
Y03754D01*
X08535*
Y03755*
X08528Y03763*
X0852Y0377*
X08519*
G37*
G36*
X08319D02*
Y03754D01*
X08335*
Y03755*
X08328Y03763*
X0832Y0377*
X08319*
G37*
G36*
X0848D02*
X08479D01*
X08471Y03763*
X08464Y03755*
Y03754*
X0848*
Y0377*
G37*
G36*
X0828D02*
X08279D01*
X08271Y03763*
X08264Y03755*
Y03754*
X0828*
Y0377*
G37*
G36*
X08535Y03715D02*
X08519D01*
Y03699*
X0852Y037*
X08528Y03706*
X08535Y03714*
Y03715*
G37*
G36*
X08335D02*
X08319D01*
Y03699*
X0832Y037*
X08328Y03706*
X08335Y03714*
Y03715*
G37*
G36*
X0848D02*
X08464D01*
Y03714*
X08471Y03706*
X08479Y037*
X0848Y03699*
Y03715*
G37*
G36*
X0828D02*
X08264D01*
Y03714*
X08271Y03706*
X08279Y037*
X0828Y03699*
Y03715*
G37*
G36*
X065Y0378D02*
X063D01*
X06289Y03779*
X06279Y03775*
X06271Y03768*
X06264Y0376*
X06261Y0375*
X06259Y0374*
Y0364*
X06259Y03637*
X06259Y03635*
X06261Y03624*
X06264Y03614*
X06271Y03606*
X06279Y036*
X06289Y03596*
X063Y03594*
X0631Y03596*
X06319Y03599*
X0648*
X06489Y03596*
X065Y03594*
X0651Y03596*
X06519Y03599*
X06631*
X06886Y03344*
Y03314*
X06889*
Y03264*
X06887Y0326*
X06886Y03249*
X06887Y03237*
X06892Y03227*
X06898Y03218*
X06907Y03211*
X06918Y03206*
X06929Y03205*
X06941Y03206*
X06951Y03211*
X06961Y03218*
X06967Y03227*
X06972Y03237*
X06973Y03249*
X06972Y0326*
X0697Y03264*
Y03314*
X06973*
Y03401*
X06943*
X06676Y03668*
X06668Y03675*
X06658Y03679*
X06648Y0368*
X0634*
Y03699*
X0648*
X06489Y03696*
X065Y03694*
X0651Y03696*
X0652Y037*
X06528Y03706*
X06535Y03714*
X06538Y03724*
X0654Y03735*
X0654Y03737*
X0654Y0374*
X06538Y0375*
X06535Y0376*
X06528Y03768*
X0652Y03775*
X0651Y03779*
X065Y0378*
G37*
G36*
X049D02*
X047D01*
X04689Y03779*
X04679Y03775*
X04671Y03768*
X04664Y0376*
X04661Y0375*
X04659Y0374*
Y0364*
X04659Y03637*
X04659Y03635*
X04661Y03624*
X04664Y03614*
X04671Y03606*
X04679Y036*
X04689Y03596*
X047Y03594*
X0471Y03596*
X04719Y03599*
X0488*
X04889Y03596*
X049Y03594*
X0491Y03596*
X04919Y03599*
X05031*
X05286Y03344*
Y03314*
X05289*
Y03264*
X05287Y0326*
X05286Y03249*
X05287Y03237*
X05292Y03227*
X05298Y03218*
X05307Y03211*
X05318Y03206*
X05329Y03205*
X05341Y03206*
X05351Y03211*
X05361Y03218*
X05367Y03227*
X05372Y03237*
X05373Y03249*
X05372Y0326*
X0537Y03264*
Y03314*
X05373*
Y03401*
X05343*
X05076Y03668*
X05068Y03675*
X05058Y03679*
X05048Y0368*
X0474*
Y03699*
X0488*
X04889Y03696*
X049Y03694*
X0491Y03696*
X0492Y037*
X04928Y03706*
X04935Y03714*
X04938Y03724*
X0494Y03735*
X0494Y03737*
X0494Y0374*
X04938Y0375*
X04935Y0376*
X04928Y03768*
X0492Y03775*
X0491Y03779*
X049Y0378*
G37*
G36*
X08519Y0367D02*
Y03654D01*
X08535*
Y03655*
X08528Y03663*
X0852Y0367*
X08519*
G37*
G36*
X08319D02*
Y03654D01*
X08335*
Y03655*
X08328Y03663*
X0832Y0367*
X08319*
G37*
G36*
X0848D02*
X08479D01*
X08471Y03663*
X08464Y03655*
Y03654*
X0848*
Y0367*
G37*
G36*
X0828D02*
X08279D01*
X08271Y03663*
X08264Y03655*
Y03654*
X0828*
Y0367*
G37*
G36*
X08535Y03615D02*
X08519D01*
Y03599*
X0852Y036*
X08528Y03606*
X08535Y03614*
Y03615*
G37*
G36*
X08335D02*
X08319D01*
Y03599*
X0832Y036*
X08328Y03606*
X08335Y03614*
Y03615*
G37*
G36*
X0848D02*
X08464D01*
Y03614*
X08471Y03606*
X08479Y036*
X0848Y03599*
Y03615*
G37*
G36*
X0828D02*
X08264D01*
Y03614*
X08271Y03606*
X08279Y036*
X0828Y03599*
Y03615*
G37*
G36*
X08519Y0357D02*
Y03554D01*
X08535*
Y03555*
X08528Y03563*
X0852Y0357*
X08519*
G37*
G36*
X08319D02*
Y03554D01*
X08335*
Y03555*
X08328Y03563*
X0832Y0357*
X08319*
G37*
G36*
X0848D02*
X08479D01*
X08471Y03563*
X08464Y03555*
Y03554*
X0848*
Y0357*
G37*
G36*
X0828D02*
X08279D01*
X08271Y03563*
X08264Y03555*
Y03554*
X0828*
Y0357*
G37*
G36*
X06874Y03736D02*
X06857Y03734D01*
X06841Y03731*
X06826Y03724*
X06812Y03716*
X068Y03705*
X06789Y03693*
X06781Y03679*
X06775Y03664*
X06771Y03648*
X0677Y03631*
X06771Y03615*
X06775Y03599*
X06781Y03584*
X06789Y0357*
X068Y03558*
X06812Y03547*
X06826Y03539*
X06841Y03533*
X06857Y03529*
X06874Y03527*
X0689Y03529*
X06906Y03533*
X06921Y03539*
X06935Y03547*
X06947Y03558*
X06958Y0357*
X06966Y03584*
X06972Y03599*
X06976Y03615*
X06977Y03631*
X06976Y03648*
X06972Y03664*
X06966Y03679*
X06958Y03693*
X06947Y03705*
X06935Y03716*
X06921Y03724*
X06906Y03731*
X0689Y03734*
X06874Y03736*
G37*
G36*
X05925D02*
X05909Y03734D01*
X05893Y03731*
X05878Y03724*
X05864Y03716*
X05852Y03705*
X05841Y03693*
X05833Y03679*
X05827Y03664*
X05823Y03648*
X05822Y03631*
X05823Y03615*
X05827Y03599*
X05833Y03584*
X05841Y0357*
X05852Y03558*
X05864Y03547*
X05878Y03539*
X05893Y03533*
X05909Y03529*
X05925Y03527*
X05942Y03529*
X05958Y03533*
X05973Y03539*
X05987Y03547*
X05999Y03558*
X0601Y0357*
X06018Y03584*
X06024Y03599*
X06028Y03615*
X06029Y03631*
X06028Y03648*
X06024Y03664*
X06018Y03679*
X0601Y03693*
X05999Y03705*
X05987Y03716*
X05973Y03724*
X05958Y03731*
X05942Y03734*
X05925Y03736*
G37*
G36*
X05274D02*
X05257Y03734D01*
X05241Y03731*
X05226Y03724*
X05212Y03716*
X052Y03705*
X05189Y03693*
X05181Y03679*
X05175Y03664*
X05171Y03648*
X0517Y03631*
X05171Y03615*
X05175Y03599*
X05181Y03584*
X05189Y0357*
X052Y03558*
X05212Y03547*
X05226Y03539*
X05241Y03533*
X05257Y03529*
X05274Y03527*
X0529Y03529*
X05306Y03533*
X05321Y03539*
X05335Y03547*
X05347Y03558*
X05358Y0357*
X05366Y03584*
X05372Y03599*
X05376Y03615*
X05377Y03631*
X05376Y03648*
X05372Y03664*
X05366Y03679*
X05358Y03693*
X05347Y03705*
X05335Y03716*
X05321Y03724*
X05306Y03731*
X0529Y03734*
X05274Y03736*
G37*
G36*
X04325D02*
X04309Y03734D01*
X04293Y03731*
X04278Y03724*
X04264Y03716*
X04252Y03705*
X04241Y03693*
X04233Y03679*
X04227Y03664*
X04223Y03648*
X04222Y03631*
X04223Y03615*
X04227Y03599*
X04233Y03584*
X04241Y0357*
X04252Y03558*
X04264Y03547*
X04278Y03539*
X04293Y03533*
X04309Y03529*
X04325Y03527*
X04342Y03529*
X04358Y03533*
X04373Y03539*
X04387Y03547*
X04399Y03558*
X0441Y0357*
X04418Y03584*
X04424Y03599*
X04428Y03615*
X04429Y03631*
X04428Y03648*
X04424Y03664*
X04418Y03679*
X0441Y03693*
X04399Y03705*
X04387Y03716*
X04373Y03724*
X04358Y03731*
X04342Y03734*
X04325Y03736*
G37*
G36*
X08535Y03515D02*
X08519D01*
Y03499*
X0852Y035*
X08528Y03506*
X08535Y03514*
Y03515*
G37*
G36*
X08335D02*
X08319D01*
Y03499*
X0832Y035*
X08328Y03506*
X08335Y03514*
Y03515*
G37*
G36*
X0848D02*
X08464D01*
Y03514*
X08471Y03506*
X08479Y035*
X0848Y03499*
Y03515*
G37*
G36*
X0828D02*
X08264D01*
Y03514*
X08271Y03506*
X08279Y035*
X0828Y03499*
Y03515*
G37*
G36*
X065Y0358D02*
X063D01*
X06289Y03579*
X06279Y03575*
X06271Y03568*
X06264Y0356*
X06261Y0355*
X06259Y0354*
Y0344*
X06259Y03437*
X06259Y03435*
X06261Y03424*
X06264Y03414*
X06271Y03406*
X06279Y034*
X06289Y03396*
X063Y03394*
X0631Y03396*
X06319Y03399*
X0648*
X06489Y03396*
X065Y03394*
X0651Y03396*
X06519Y03399*
X06683*
X06774Y03307*
X06774Y03303*
X06775Y03292*
X06777Y03287*
Y0321*
X06775Y03205*
X06774Y03194*
X06775Y03183*
X0678Y03172*
X06787Y03163*
X06796Y03156*
X06806Y03152*
X06818Y0315*
X06829Y03152*
X0684Y03156*
X06849Y03163*
X06855Y03172*
X0686Y03183*
X06861Y03194*
X0686Y03205*
X06858Y0321*
Y03287*
X0686Y03292*
X06861Y03303*
X0686Y03314*
X06858Y03319*
Y03322*
X06857Y03332*
X06853Y03342*
X06846Y0335*
X06728Y03468*
X0672Y03475*
X0671Y03479*
X067Y0348*
X0634*
Y03499*
X0648*
X06489Y03496*
X065Y03494*
X0651Y03496*
X0652Y035*
X06528Y03506*
X06535Y03514*
X06538Y03524*
X0654Y03535*
X0654Y03537*
X0654Y0354*
X06538Y0355*
X06535Y0356*
X06528Y03568*
X0652Y03575*
X0651Y03579*
X065Y0358*
G37*
G36*
X049D02*
X047D01*
X04689Y03579*
X04679Y03575*
X04671Y03568*
X04664Y0356*
X04661Y0355*
X04659Y0354*
Y0344*
X04659Y03437*
X04659Y03435*
X04661Y03424*
X04664Y03414*
X04671Y03406*
X04679Y034*
X04689Y03396*
X047Y03394*
X0471Y03396*
X04719Y03399*
X0488*
X04889Y03396*
X049Y03394*
X0491Y03396*
X04919Y03399*
X05083*
X05174Y03307*
X05174Y03303*
X05175Y03292*
X05177Y03287*
Y0321*
X05175Y03205*
X05174Y03194*
X05175Y03183*
X0518Y03172*
X05187Y03163*
X05196Y03156*
X05206Y03152*
X05218Y0315*
X05229Y03152*
X0524Y03156*
X05249Y03163*
X05255Y03172*
X0526Y03183*
X05261Y03194*
X0526Y03205*
X05258Y0321*
Y03287*
X0526Y03292*
X05261Y03303*
X0526Y03314*
X05258Y03319*
Y03322*
X05257Y03332*
X05253Y03342*
X05246Y0335*
X05128Y03468*
X0512Y03475*
X0511Y03479*
X051Y0348*
X0474*
Y03499*
X0488*
X04889Y03496*
X049Y03494*
X0491Y03496*
X0492Y035*
X04928Y03506*
X04935Y03514*
X04938Y03524*
X0494Y03535*
X0494Y03537*
X0494Y0354*
X04938Y0355*
X04935Y0356*
X04928Y03568*
X0492Y03575*
X0491Y03579*
X049Y0358*
G37*
G36*
X08519Y0347D02*
Y03454D01*
X08535*
Y03455*
X08528Y03463*
X0852Y0347*
X08519*
G37*
G36*
X08319D02*
Y03454D01*
X08335*
Y03455*
X08328Y03463*
X0832Y0347*
X08319*
G37*
G36*
X0848D02*
X08479D01*
X08471Y03463*
X08464Y03455*
Y03454*
X0848*
Y0347*
G37*
G36*
X0828D02*
X08279D01*
X08271Y03463*
X08264Y03455*
Y03454*
X0828*
Y0347*
G37*
G36*
X08535Y03415D02*
X08519D01*
Y03399*
X0852Y034*
X08528Y03406*
X08535Y03414*
Y03415*
G37*
G36*
X08335D02*
X08319D01*
Y03399*
X0832Y034*
X08328Y03406*
X08335Y03414*
Y03415*
G37*
G36*
X0848D02*
X08464D01*
Y03414*
X08471Y03406*
X08479Y034*
X0848Y03399*
Y03415*
G37*
G36*
X0828D02*
X08264D01*
Y03414*
X08271Y03406*
X08279Y034*
X0828Y03399*
Y03415*
G37*
G36*
X08519Y0337D02*
Y03354D01*
X08535*
Y03355*
X08528Y03363*
X0852Y0337*
X08519*
G37*
G36*
X08319D02*
Y03354D01*
X08335*
Y03355*
X08328Y03363*
X0832Y0337*
X08319*
G37*
G36*
X0848D02*
X08479D01*
X08471Y03363*
X08464Y03355*
Y03354*
X0848*
Y0337*
G37*
G36*
X0828D02*
X08279D01*
X08271Y03363*
X08264Y03355*
Y03354*
X0828*
Y0337*
G37*
G36*
X065Y0338D02*
X061D01*
X06089Y03379*
X06085Y03377*
X06079Y03375*
X06071Y03368*
X06046Y03344*
X05997*
X05993Y03345*
X05981Y03347*
X0597Y03345*
X05959Y03341*
X0595Y03334*
X05944Y03325*
X05939Y03314*
X05938Y03303*
X05939Y03292*
X05941Y03287*
Y0321*
X05939Y03205*
X05938Y03194*
X05939Y03183*
X05944Y03172*
X0595Y03163*
X05959Y03156*
X0597Y03152*
X05981Y0315*
X05993Y03152*
X06003Y03156*
X06012Y03163*
X06019Y03172*
X06024Y03183*
X06025Y03194*
X06024Y03205*
X06022Y0321*
Y03262*
X06063*
X06074Y03264*
X06083Y03268*
X06092Y03274*
X06116Y03299*
X0628*
X06289Y03296*
X063Y03294*
X0631Y03296*
X06319Y03299*
X0648*
X06489Y03296*
X065Y03294*
X0651Y03296*
X0652Y033*
X06528Y03306*
X06535Y03314*
X06538Y03324*
X0654Y03335*
X0654Y03337*
X0654Y0334*
X06538Y0335*
X06535Y0336*
X06528Y03368*
X0652Y03375*
X0651Y03379*
X065Y0338*
G37*
G36*
X049D02*
X045D01*
X04489Y03379*
X04485Y03377*
X04479Y03375*
X04471Y03368*
X04446Y03344*
X04397*
X04393Y03345*
X04381Y03347*
X0437Y03345*
X04359Y03341*
X0435Y03334*
X04344Y03325*
X04339Y03314*
X04338Y03303*
X04339Y03292*
X04341Y03287*
Y0321*
X04339Y03205*
X04338Y03194*
X04339Y03183*
X04344Y03172*
X0435Y03163*
X04359Y03156*
X0437Y03152*
X04381Y0315*
X04393Y03152*
X04403Y03156*
X04412Y03163*
X04419Y03172*
X04424Y03183*
X04425Y03194*
X04424Y03205*
X04422Y0321*
Y03262*
X04463*
X04474Y03264*
X04483Y03268*
X04492Y03274*
X04516Y03299*
X0468*
X04689Y03296*
X047Y03294*
X0471Y03296*
X04719Y03299*
X0488*
X04889Y03296*
X049Y03294*
X0491Y03296*
X0492Y033*
X04928Y03306*
X04935Y03314*
X04938Y03324*
X0494Y03335*
X0494Y03337*
X0494Y0334*
X04938Y0335*
X04935Y0336*
X04928Y03368*
X0492Y03375*
X0491Y03379*
X049Y0338*
G37*
G36*
X0587Y03401D02*
X05858Y034D01*
X05848Y03396*
X05838Y03388*
X05832Y03379*
X05827Y03369*
X05826Y03358*
X05827Y03346*
X05832Y03336*
X05838Y03327*
X05848Y0332*
X05858Y03315*
X0587Y03314*
X05881Y03315*
X05892Y0332*
X05901Y03327*
X05907Y03336*
X05912Y03346*
X05913Y03358*
X05912Y03369*
X05907Y03379*
X05901Y03388*
X05892Y03396*
X05881Y034*
X0587Y03401*
G37*
G36*
X0427D02*
X04258Y034D01*
X04248Y03396*
X04238Y03388*
X04232Y03379*
X04227Y03369*
X04226Y03358*
X04227Y03346*
X04232Y03336*
X04238Y03327*
X04248Y0332*
X04258Y03315*
X0427Y03314*
X04281Y03315*
X04292Y0332*
X04301Y03327*
X04307Y03336*
X04312Y03346*
X04313Y03358*
X04312Y03369*
X04307Y03379*
X04301Y03388*
X04292Y03396*
X04281Y034*
X0427Y03401*
G37*
G36*
X08535Y03315D02*
X08519D01*
Y03299*
X0852Y033*
X08528Y03306*
X08535Y03314*
Y03315*
G37*
G36*
X08335D02*
X08319D01*
Y03299*
X0832Y033*
X08328Y03306*
X08335Y03314*
Y03315*
G37*
G36*
X0848D02*
X08464D01*
Y03314*
X08471Y03306*
X08479Y033*
X0848Y03299*
Y03315*
G37*
G36*
X0828D02*
X08264D01*
Y03314*
X08271Y03306*
X08279Y033*
X0828Y03299*
Y03315*
G37*
G36*
X08519Y0327D02*
Y03254D01*
X08535*
Y03255*
X08528Y03263*
X0852Y0327*
X08519*
G37*
G36*
X08319D02*
Y03254D01*
X08335*
Y03255*
X08328Y03263*
X0832Y0327*
X08319*
G37*
G36*
X0848D02*
X08479D01*
X08471Y03263*
X08464Y03255*
Y03254*
X0848*
Y0327*
G37*
G36*
X0828D02*
X08279D01*
X08271Y03263*
X08264Y03255*
Y03254*
X0828*
Y0327*
G37*
G36*
X0587Y03292D02*
X05858Y03291D01*
X05848Y03287*
X05838Y03279*
X05832Y0327*
X05827Y0326*
X05826Y03249*
X05827Y03237*
X05832Y03227*
X05838Y03218*
X05848Y03211*
X05858Y03206*
X0587Y03205*
X05881Y03206*
X05892Y03211*
X05901Y03218*
X05907Y03227*
X05912Y03237*
X05913Y03249*
X05912Y0326*
X05907Y0327*
X05901Y03279*
X05892Y03287*
X05881Y03291*
X0587Y03292*
G37*
G36*
X0427D02*
X04258Y03291D01*
X04248Y03287*
X04238Y03279*
X04232Y0327*
X04227Y0326*
X04226Y03249*
X04227Y03237*
X04232Y03227*
X04238Y03218*
X04248Y03211*
X04258Y03206*
X0427Y03205*
X04281Y03206*
X04292Y03211*
X04301Y03218*
X04307Y03227*
X04312Y03237*
X04313Y03249*
X04312Y0326*
X04307Y0327*
X04301Y03279*
X04292Y03287*
X04281Y03291*
X0427Y03292*
G37*
G36*
X08535Y03215D02*
X08519D01*
Y03199*
X0852Y032*
X08528Y03206*
X08535Y03214*
Y03215*
G37*
G36*
X08335D02*
X08319D01*
Y03199*
X0832Y032*
X08328Y03206*
X08335Y03214*
Y03215*
G37*
G36*
X0848D02*
X08464D01*
Y03214*
X08471Y03206*
X08479Y032*
X0848Y03199*
Y03215*
G37*
G36*
X0828D02*
X08264D01*
Y03214*
X08271Y03206*
X08279Y032*
X0828Y03199*
Y03215*
G37*
G36*
X065Y03275D02*
X06489Y03274D01*
X06479Y0327*
X06471Y03263*
X06464Y03255*
X06461Y03245*
X06459Y03235*
X06461Y03224*
X06464Y03214*
X06471Y03206*
X06479Y032*
X06489Y03196*
X065Y03194*
X0651Y03196*
X0652Y032*
X06528Y03206*
X06535Y03214*
X06538Y03224*
X0654Y03235*
X06538Y03245*
X06535Y03255*
X06528Y03263*
X0652Y0327*
X0651Y03274*
X065Y03275*
G37*
G36*
X063D02*
X06289Y03274D01*
X06279Y0327*
X06271Y03263*
X06264Y03255*
X06261Y03245*
X06259Y03235*
X06261Y03224*
X06264Y03214*
X06271Y03206*
X06279Y032*
X06289Y03196*
X063Y03194*
X0631Y03196*
X0632Y032*
X06328Y03206*
X06335Y03214*
X06338Y03224*
X0634Y03235*
X06338Y03245*
X06335Y03255*
X06328Y03263*
X0632Y0327*
X0631Y03274*
X063Y03275*
G37*
G36*
X049D02*
X04889Y03274D01*
X04879Y0327*
X04871Y03263*
X04864Y03255*
X04861Y03245*
X04859Y03235*
X04861Y03224*
X04864Y03214*
X04871Y03206*
X04879Y032*
X04889Y03196*
X049Y03194*
X0491Y03196*
X0492Y032*
X04928Y03206*
X04935Y03214*
X04938Y03224*
X0494Y03235*
X04938Y03245*
X04935Y03255*
X04928Y03263*
X0492Y0327*
X0491Y03274*
X049Y03275*
G37*
G36*
X047D02*
X04689Y03274D01*
X04679Y0327*
X04671Y03263*
X04664Y03255*
X04661Y03245*
X04659Y03235*
X04661Y03224*
X04664Y03214*
X04671Y03206*
X04679Y032*
X04689Y03196*
X047Y03194*
X0471Y03196*
X0472Y032*
X04728Y03206*
X04735Y03214*
X04738Y03224*
X0474Y03235*
X04738Y03245*
X04735Y03255*
X04728Y03263*
X0472Y0327*
X0471Y03274*
X047Y03275*
G37*
G36*
X08519Y0317D02*
Y03154D01*
X08535*
Y03155*
X08528Y03163*
X0852Y0317*
X08519*
G37*
G36*
X08319D02*
Y03154D01*
X08335*
Y03155*
X08328Y03163*
X0832Y0317*
X08319*
G37*
G36*
X0848D02*
X08479D01*
X08471Y03163*
X08464Y03155*
Y03154*
X0848*
Y0317*
G37*
G36*
X0828D02*
X08279D01*
X08271Y03163*
X08264Y03155*
Y03154*
X0828*
Y0317*
G37*
G36*
X08535Y03115D02*
X08519D01*
Y03099*
X0852Y031*
X08528Y03106*
X08535Y03114*
Y03115*
G37*
G36*
X08335D02*
X08319D01*
Y03099*
X0832Y031*
X08328Y03106*
X08335Y03114*
Y03115*
G37*
G36*
X0848D02*
X08464D01*
Y03114*
X08471Y03106*
X08479Y031*
X0848Y03099*
Y03115*
G37*
G36*
X0828D02*
X08264D01*
Y03114*
X08271Y03106*
X08279Y031*
X0828Y03099*
Y03115*
G37*
G36*
X06929Y03183D02*
X06918Y03182D01*
X06907Y03177*
X06898Y0317*
X06892Y03161*
X06887Y03151*
X06886Y0314*
X06887Y03128*
X06892Y03118*
X06898Y03109*
X06907Y03101*
X06918Y03097*
X06929Y03096*
X06941Y03097*
X06951Y03101*
X06961Y03109*
X06967Y03118*
X06972Y03128*
X06973Y0314*
X06972Y03151*
X06967Y03161*
X06961Y0317*
X06951Y03177*
X06941Y03182*
X06929Y03183*
G37*
G36*
X05329D02*
X05318Y03182D01*
X05307Y03177*
X05298Y0317*
X05292Y03161*
X05287Y03151*
X05286Y0314*
X05287Y03128*
X05292Y03118*
X05298Y03109*
X05307Y03101*
X05318Y03097*
X05329Y03096*
X05341Y03097*
X05351Y03101*
X05361Y03109*
X05367Y03118*
X05372Y03128*
X05373Y0314*
X05372Y03151*
X05367Y03161*
X05361Y0317*
X05351Y03177*
X05341Y03182*
X05329Y03183*
G37*
G36*
X0587D02*
X05858Y03182D01*
X05848Y03177*
X05838Y0317*
X05832Y03161*
X05827Y03151*
X05826Y0314*
X05827Y03128*
X05832Y03118*
X05838Y03109*
X05848Y03101*
X05858Y03097*
X0587Y03096*
X05881Y03097*
X05892Y03101*
X05901Y03109*
X05907Y03118*
X05912Y03128*
X05913Y0314*
X05912Y03151*
X05907Y03161*
X05901Y0317*
X05892Y03177*
X05881Y03182*
X0587Y03183*
G37*
G36*
X0427D02*
X04258Y03182D01*
X04248Y03177*
X04238Y0317*
X04232Y03161*
X04227Y03151*
X04226Y0314*
X04227Y03128*
X04232Y03118*
X04238Y03109*
X04248Y03101*
X04258Y03097*
X0427Y03096*
X04281Y03097*
X04292Y03101*
X04301Y03109*
X04307Y03118*
X04312Y03128*
X04313Y0314*
X04312Y03151*
X04307Y03161*
X04301Y0317*
X04292Y03177*
X04281Y03182*
X0427Y03183*
G37*
G36*
X065Y03175D02*
X06489Y03174D01*
X06479Y0317*
X06471Y03163*
X06464Y03155*
X06461Y03145*
X06459Y03135*
X06461Y03124*
X06464Y03114*
X06471Y03106*
X06479Y031*
X06489Y03096*
X065Y03094*
X0651Y03096*
X0652Y031*
X06528Y03106*
X06535Y03114*
X06538Y03124*
X0654Y03135*
X06538Y03145*
X06535Y03155*
X06528Y03163*
X0652Y0317*
X0651Y03174*
X065Y03175*
G37*
G36*
X063D02*
X06289Y03174D01*
X06279Y0317*
X06271Y03163*
X06264Y03155*
X06261Y03145*
X06259Y03135*
X06261Y03124*
X06264Y03114*
X06271Y03106*
X06279Y031*
X06289Y03096*
X063Y03094*
X0631Y03096*
X0632Y031*
X06328Y03106*
X06335Y03114*
X06338Y03124*
X0634Y03135*
X06338Y03145*
X06335Y03155*
X06328Y03163*
X0632Y0317*
X0631Y03174*
X063Y03175*
G37*
G36*
X049D02*
X04889Y03174D01*
X04879Y0317*
X04871Y03163*
X04864Y03155*
X04861Y03145*
X04859Y03135*
X04861Y03124*
X04864Y03114*
X04871Y03106*
X04879Y031*
X04889Y03096*
X049Y03094*
X0491Y03096*
X0492Y031*
X04928Y03106*
X04935Y03114*
X04938Y03124*
X0494Y03135*
X04938Y03145*
X04935Y03155*
X04928Y03163*
X0492Y0317*
X0491Y03174*
X049Y03175*
G37*
G36*
X047D02*
X04689Y03174D01*
X04679Y0317*
X04671Y03163*
X04664Y03155*
X04661Y03145*
X04659Y03135*
X04661Y03124*
X04664Y03114*
X04671Y03106*
X04679Y031*
X04689Y03096*
X047Y03094*
X0471Y03096*
X0472Y031*
X04728Y03106*
X04735Y03114*
X04738Y03124*
X0474Y03135*
X04738Y03145*
X04735Y03155*
X04728Y03163*
X0472Y0317*
X0471Y03174*
X047Y03175*
G37*
G36*
X08519Y0307D02*
Y03054D01*
X08535*
Y03055*
X08528Y03063*
X0852Y0307*
X08519*
G37*
G36*
X08319D02*
Y03054D01*
X08335*
Y03055*
X08328Y03063*
X0832Y0307*
X08319*
G37*
G36*
X0848D02*
X08479D01*
X08471Y03063*
X08464Y03055*
Y03054*
X0848*
Y0307*
G37*
G36*
X0828D02*
X08279D01*
X08271Y03063*
X08264Y03055*
Y03054*
X0828*
Y0307*
G37*
G36*
X08535Y03015D02*
X08519D01*
Y02999*
X0852Y03*
X08528Y03006*
X08535Y03014*
Y03015*
G37*
G36*
X08335D02*
X08319D01*
Y02999*
X0832Y03*
X08328Y03006*
X08335Y03014*
Y03015*
G37*
G36*
X0848D02*
X08464D01*
Y03014*
X08471Y03006*
X08479Y03*
X0848Y02999*
Y03015*
G37*
G36*
X0828D02*
X08264D01*
Y03014*
X08271Y03006*
X08279Y03*
X0828Y02999*
Y03015*
G37*
G36*
X065Y03075D02*
X06489Y03074D01*
X06479Y0307*
X06471Y03063*
X06464Y03055*
X06461Y03045*
X06459Y03035*
X06461Y03024*
X06464Y03014*
X06471Y03006*
X06479Y03*
X06489Y02996*
X065Y02994*
X0651Y02996*
X0652Y03*
X06528Y03006*
X06535Y03014*
X06538Y03024*
X0654Y03035*
X06538Y03045*
X06535Y03055*
X06528Y03063*
X0652Y0307*
X0651Y03074*
X065Y03075*
G37*
G36*
X063D02*
X06289Y03074D01*
X06279Y0307*
X06271Y03063*
X06264Y03055*
X06261Y03045*
X06259Y03035*
X06261Y03024*
X06264Y03014*
X06271Y03006*
X06279Y03*
X06289Y02996*
X063Y02994*
X0631Y02996*
X0632Y03*
X06328Y03006*
X06335Y03014*
X06338Y03024*
X0634Y03035*
X06338Y03045*
X06335Y03055*
X06328Y03063*
X0632Y0307*
X0631Y03074*
X063Y03075*
G37*
G36*
X049D02*
X04889Y03074D01*
X04879Y0307*
X04871Y03063*
X04864Y03055*
X04861Y03045*
X04859Y03035*
X04861Y03024*
X04864Y03014*
X04871Y03006*
X04879Y03*
X04889Y02996*
X049Y02994*
X0491Y02996*
X0492Y03*
X04928Y03006*
X04935Y03014*
X04938Y03024*
X0494Y03035*
X04938Y03045*
X04935Y03055*
X04928Y03063*
X0492Y0307*
X0491Y03074*
X049Y03075*
G37*
G36*
X047D02*
X04689Y03074D01*
X04679Y0307*
X04671Y03063*
X04664Y03055*
X04661Y03045*
X04659Y03035*
X04661Y03024*
X04664Y03014*
X04671Y03006*
X04679Y03*
X04689Y02996*
X047Y02994*
X0471Y02996*
X0472Y03*
X04728Y03006*
X04735Y03014*
X04738Y03024*
X0474Y03035*
X04738Y03045*
X04735Y03055*
X04728Y03063*
X0472Y0307*
X0471Y03074*
X047Y03075*
G37*
G36*
X0587Y03074D02*
X05858Y03073D01*
X05848Y03068*
X05838Y03061*
X05832Y03052*
X05827Y03042*
X05826Y03031*
X05827Y03019*
X05832Y03009*
X05838Y03*
X05848Y02992*
X05858Y02988*
X0587Y02987*
X05881Y02988*
X05892Y02992*
X05901Y03*
X05907Y03009*
X05912Y03019*
X05913Y03031*
X05912Y03042*
X05907Y03052*
X05901Y03061*
X05892Y03068*
X05881Y03073*
X0587Y03074*
G37*
G36*
X0427D02*
X04258Y03073D01*
X04248Y03068*
X04238Y03061*
X04232Y03052*
X04227Y03042*
X04226Y03031*
X04227Y03019*
X04232Y03009*
X04238Y03*
X04248Y02992*
X04258Y02988*
X0427Y02987*
X04281Y02988*
X04292Y02992*
X04301Y03*
X04307Y03009*
X04312Y03019*
X04313Y03031*
X04312Y03042*
X04307Y03052*
X04301Y03061*
X04292Y03068*
X04281Y03073*
X0427Y03074*
G37*
G36*
X08519Y0297D02*
Y02954D01*
X08535*
Y02955*
X08528Y02963*
X0852Y0297*
X08519*
G37*
G36*
X08319D02*
Y02954D01*
X08335*
Y02955*
X08328Y02963*
X0832Y0297*
X08319*
G37*
G36*
X0848D02*
X08479D01*
X08471Y02963*
X08464Y02955*
Y02954*
X0848*
Y0297*
G37*
G36*
X0828D02*
X08279D01*
X08271Y02963*
X08264Y02955*
Y02954*
X0828*
Y0297*
G37*
G36*
X06818Y03129D02*
X06806Y03127D01*
X06796Y03123*
X06787Y03116*
X0678Y03107*
X06775Y03096*
X06774Y03085*
X06775Y03074*
X06777Y03069*
Y03016*
X06736*
X06725Y03015*
X06716Y03011*
X06707Y03005*
X06571Y02868*
X06564Y0286*
X06561Y0285*
X06559Y0284*
Y02806*
X06533Y0278*
X063*
X06289Y02779*
X06279Y02775*
X06271Y02768*
X06264Y0276*
X06261Y0275*
X06259Y0274*
X06259Y02737*
X06259Y02735*
X06261Y02724*
X06264Y02714*
X06271Y02706*
X06279Y027*
X06289Y02696*
X063Y02694*
X0631Y02696*
X06319Y02699*
X0648*
X06489Y02696*
X065Y02694*
X0651Y02696*
X06519Y02699*
X0655*
X0656Y027*
X0657Y02705*
X06578Y02711*
X06628Y02761*
X06635Y02769*
X06638Y02779*
X0664Y0279*
Y02823*
X06753Y02935*
X06802*
X06806Y02934*
X06818Y02932*
X06829Y02934*
X0684Y02938*
X06849Y02945*
X06855Y02954*
X0686Y02964*
X06861Y02976*
X0686Y02987*
X06858Y02992*
Y03069*
X0686Y03074*
X06861Y03085*
X0686Y03096*
X06855Y03107*
X06849Y03116*
X0684Y03123*
X06829Y03127*
X06818Y03129*
G37*
G36*
X05218D02*
X05206Y03127D01*
X05196Y03123*
X05187Y03116*
X0518Y03107*
X05175Y03096*
X05174Y03085*
X05175Y03074*
X05177Y03069*
Y03016*
X05136*
X05125Y03015*
X05116Y03011*
X05107Y03005*
X04971Y02868*
X04964Y0286*
X04961Y0285*
X04959Y0284*
Y02806*
X04933Y0278*
X047*
X04689Y02779*
X04679Y02775*
X04671Y02768*
X04664Y0276*
X04661Y0275*
X04659Y0274*
X04659Y02737*
X04659Y02735*
X04661Y02724*
X04664Y02714*
X04671Y02706*
X04679Y027*
X04689Y02696*
X047Y02694*
X0471Y02696*
X04719Y02699*
X0488*
X04889Y02696*
X049Y02694*
X0491Y02696*
X04919Y02699*
X0495*
X0496Y027*
X0497Y02705*
X04978Y02711*
X05028Y02761*
X05035Y02769*
X05038Y02779*
X0504Y0279*
Y02823*
X05153Y02935*
X05202*
X05206Y02934*
X05218Y02932*
X05229Y02934*
X0524Y02938*
X05249Y02945*
X05255Y02954*
X0526Y02964*
X05261Y02976*
X0526Y02987*
X05258Y02992*
Y03069*
X0526Y03074*
X05261Y03085*
X0526Y03096*
X05255Y03107*
X05249Y03116*
X0524Y03123*
X05229Y03127*
X05218Y03129*
G37*
G36*
X08535Y02915D02*
X08519D01*
Y02899*
X0852Y029*
X08528Y02906*
X08535Y02914*
Y02915*
G37*
G36*
X08335D02*
X08319D01*
Y02899*
X0832Y029*
X08328Y02906*
X08335Y02914*
Y02915*
G37*
G36*
X0848D02*
X08464D01*
Y02914*
X08471Y02906*
X08479Y029*
X0848Y02899*
Y02915*
G37*
G36*
X0828D02*
X08264D01*
Y02914*
X08271Y02906*
X08279Y029*
X0828Y02899*
Y02915*
G37*
G36*
X05913Y02965D02*
X05826D01*
Y02878*
X05913*
Y02965*
G37*
G36*
X04313D02*
X04226D01*
Y02878*
X04313*
Y02965*
G37*
G36*
X08519Y0287D02*
Y02854D01*
X08535*
Y02855*
X08528Y02863*
X0852Y0287*
X08519*
G37*
G36*
X08319D02*
Y02854D01*
X08335*
Y02855*
X08328Y02863*
X0832Y0287*
X08319*
G37*
G36*
X0848D02*
X08479D01*
X08471Y02863*
X08464Y02855*
Y02854*
X0848*
Y0287*
G37*
G36*
X0828D02*
X08279D01*
X08271Y02863*
X08264Y02855*
Y02854*
X0828*
Y0287*
G37*
G36*
X08535Y02815D02*
X08519D01*
Y02799*
X0852Y028*
X08528Y02806*
X08535Y02814*
Y02815*
G37*
G36*
X08335D02*
X08319D01*
Y02799*
X0832Y028*
X08328Y02806*
X08335Y02814*
Y02815*
G37*
G36*
X0848D02*
X08464D01*
Y02814*
X08471Y02806*
X08479Y028*
X0848Y02799*
Y02815*
G37*
G36*
X0828D02*
X08264D01*
Y02814*
X08271Y02806*
X08279Y028*
X0828Y02799*
Y02815*
G37*
G36*
X05981Y03129D02*
X0597Y03127D01*
X05959Y03123*
X0595Y03116*
X05944Y03107*
X05939Y03096*
X05938Y03085*
X05939Y03074*
X05941Y03069*
Y02992*
X05939Y02987*
X05938Y02976*
X05939Y02964*
X05944Y02954*
X0595Y02945*
X05959Y02938*
X0597Y02934*
X05981Y02932*
X05993Y02934*
X05997Y02935*
X06046*
X06171Y02811*
X06179Y02805*
X06189Y028*
X062Y02799*
X0628*
X06289Y02796*
X063Y02794*
X0631Y02796*
X06319Y02799*
X0648*
X06489Y02796*
X065Y02794*
X0651Y02796*
X0652Y028*
X06528Y02806*
X06535Y02814*
X06538Y02824*
X0654Y02835*
X0654Y02837*
X0654Y0284*
Y0294*
X06538Y0295*
X06535Y0296*
X06528Y02968*
X0652Y02975*
X0651Y02979*
X065Y0298*
X063*
X06289Y02979*
X06279Y02975*
X06271Y02968*
X06264Y0296*
X06261Y0295*
X06259Y0294*
X06259Y02937*
X06259Y02935*
X06261Y02924*
X06264Y02914*
X06271Y02906*
X06279Y029*
X06289Y02896*
X063Y02894*
X0631Y02896*
X06319Y02899*
X06459*
Y0288*
X06216*
X06092Y03005*
X06083Y03011*
X06074Y03015*
X06063Y03016*
X06022*
Y03069*
X06024Y03074*
X06025Y03085*
X06024Y03096*
X06019Y03107*
X06012Y03116*
X06003Y03123*
X05993Y03127*
X05981Y03129*
G37*
G36*
X04381D02*
X0437Y03127D01*
X04359Y03123*
X0435Y03116*
X04344Y03107*
X04339Y03096*
X04338Y03085*
X04339Y03074*
X04341Y03069*
Y02992*
X04339Y02987*
X04338Y02976*
X04339Y02964*
X04344Y02954*
X0435Y02945*
X04359Y02938*
X0437Y02934*
X04381Y02932*
X04393Y02934*
X04397Y02935*
X04446*
X04571Y02811*
X04579Y02805*
X04589Y028*
X046Y02799*
X0468*
X04689Y02796*
X047Y02794*
X0471Y02796*
X04719Y02799*
X0488*
X04889Y02796*
X049Y02794*
X0491Y02796*
X0492Y028*
X04928Y02806*
X04935Y02814*
X04938Y02824*
X0494Y02835*
X0494Y02837*
X0494Y0284*
Y0294*
X04938Y0295*
X04935Y0296*
X04928Y02968*
X0492Y02975*
X0491Y02979*
X049Y0298*
X047*
X04689Y02979*
X04679Y02975*
X04671Y02968*
X04664Y0296*
X04661Y0295*
X04659Y0294*
X04659Y02937*
X04659Y02935*
X04661Y02924*
X04664Y02914*
X04671Y02906*
X04679Y029*
X04689Y02896*
X047Y02894*
X0471Y02896*
X04719Y02899*
X04859*
Y0288*
X04616*
X04492Y03005*
X04483Y03011*
X04474Y03015*
X04463Y03016*
X04422*
Y03069*
X04424Y03074*
X04425Y03085*
X04424Y03096*
X04419Y03107*
X04412Y03116*
X04403Y03123*
X04393Y03127*
X04381Y03129*
G37*
G36*
X08519Y0277D02*
Y02754D01*
X08535*
Y02755*
X08528Y02763*
X0852Y0277*
X08519*
G37*
G36*
X08319D02*
Y02754D01*
X08335*
Y02755*
X08328Y02763*
X0832Y0277*
X08319*
G37*
G36*
X0848D02*
X08479D01*
X08471Y02763*
X08464Y02755*
Y02754*
X0848*
Y0277*
G37*
G36*
X0828D02*
X08279D01*
X08271Y02763*
X08264Y02755*
Y02754*
X0828*
Y0277*
G37*
G36*
X08535Y02715D02*
X08519D01*
Y02699*
X0852Y027*
X08528Y02706*
X08535Y02714*
Y02715*
G37*
G36*
X08335D02*
X08319D01*
Y02699*
X0832Y027*
X08328Y02706*
X08335Y02714*
Y02715*
G37*
G36*
X0848D02*
X08464D01*
Y02714*
X08471Y02706*
X08479Y027*
X0848Y02699*
Y02715*
G37*
G36*
X0828D02*
X08264D01*
Y02714*
X08271Y02706*
X08279Y027*
X0828Y02699*
Y02715*
G37*
G36*
X08519Y0267D02*
Y02654D01*
X08535*
Y02655*
X08528Y02663*
X0852Y0267*
X08519*
G37*
G36*
X08319D02*
Y02654D01*
X08335*
Y02655*
X08328Y02663*
X0832Y0267*
X08319*
G37*
G36*
X0848D02*
X08479D01*
X08471Y02663*
X08464Y02655*
Y02654*
X0848*
Y0267*
G37*
G36*
X0828D02*
X08279D01*
X08271Y02663*
X08264Y02655*
Y02654*
X0828*
Y0267*
G37*
G36*
X08535Y02615D02*
X08519D01*
Y02599*
X0852Y026*
X08528Y02606*
X08535Y02614*
Y02615*
G37*
G36*
X08335D02*
X08319D01*
Y02599*
X0832Y026*
X08328Y02606*
X08335Y02614*
Y02615*
G37*
G36*
X0848D02*
X08464D01*
Y02614*
X08471Y02606*
X08479Y026*
X0848Y02599*
Y02615*
G37*
G36*
X0828D02*
X08264D01*
Y02614*
X08271Y02606*
X08279Y026*
X0828Y02599*
Y02615*
G37*
G36*
X06929Y03074D02*
X06918Y03073D01*
X06907Y03068*
X06898Y03061*
X06892Y03052*
X06887Y03042*
X06886Y03031*
X06887Y03019*
X06889Y03015*
Y02938*
X06631Y0268*
X063*
X06289Y02679*
X06279Y02675*
X06271Y02668*
X06264Y0266*
X06261Y0265*
X06259Y0264*
X06259Y02637*
X06259Y02635*
X06261Y02624*
X06264Y02614*
X06271Y02606*
X06279Y026*
X06289Y02596*
X063Y02594*
X0631Y02596*
X06319Y02599*
X0648*
X06489Y02596*
X065Y02594*
X0651Y02596*
X06519Y02599*
X06648*
X06658Y026*
X06668Y02605*
X06676Y02611*
X06947Y02882*
X06951Y02883*
X06961Y0289*
X06967Y029*
X06972Y0291*
X06973Y02922*
X06972Y02933*
X0697Y02937*
Y03015*
X06972Y03019*
X06973Y03031*
X06972Y03042*
X06967Y03052*
X06961Y03061*
X06951Y03068*
X06941Y03073*
X06929Y03074*
G37*
G36*
X05329D02*
X05318Y03073D01*
X05307Y03068*
X05298Y03061*
X05292Y03052*
X05287Y03042*
X05286Y03031*
X05287Y03019*
X05289Y03015*
Y02938*
X05031Y0268*
X047*
X04689Y02679*
X04679Y02675*
X04671Y02668*
X04664Y0266*
X04661Y0265*
X04659Y0264*
X04659Y02637*
X04659Y02635*
X04661Y02624*
X04664Y02614*
X04671Y02606*
X04679Y026*
X04689Y02596*
X047Y02594*
X0471Y02596*
X04719Y02599*
X0488*
X04889Y02596*
X049Y02594*
X0491Y02596*
X04919Y02599*
X05048*
X05058Y026*
X05068Y02605*
X05076Y02611*
X05347Y02882*
X05351Y02883*
X05361Y0289*
X05367Y029*
X05372Y0291*
X05373Y02922*
X05372Y02933*
X0537Y02937*
Y03015*
X05372Y03019*
X05373Y03031*
X05372Y03042*
X05367Y03052*
X05361Y03061*
X05351Y03068*
X05341Y03073*
X05329Y03074*
G37*
G36*
X06874Y02752D02*
X06857Y0275D01*
X06841Y02747*
X06826Y0274*
X06812Y02732*
X068Y02721*
X06789Y02709*
X06781Y02695*
X06775Y0268*
X06771Y02664*
X0677Y02648*
X06771Y02631*
X06775Y02615*
X06781Y026*
X06789Y02587*
X068Y02574*
X06812Y02563*
X06826Y02555*
X06841Y02549*
X06857Y02545*
X06874Y02544*
X0689Y02545*
X06906Y02549*
X06921Y02555*
X06935Y02563*
X06947Y02574*
X06958Y02587*
X06966Y026*
X06972Y02615*
X06976Y02631*
X06977Y02648*
X06976Y02664*
X06972Y0268*
X06966Y02695*
X06958Y02709*
X06947Y02721*
X06935Y02732*
X06921Y0274*
X06906Y02747*
X0689Y0275*
X06874Y02752*
G37*
G36*
X05925D02*
X05909Y0275D01*
X05893Y02747*
X05878Y0274*
X05864Y02732*
X05852Y02721*
X05841Y02709*
X05833Y02695*
X05827Y0268*
X05823Y02664*
X05822Y02648*
X05823Y02631*
X05827Y02615*
X05833Y026*
X05841Y02587*
X05852Y02574*
X05864Y02563*
X05878Y02555*
X05893Y02549*
X05909Y02545*
X05925Y02544*
X05942Y02545*
X05958Y02549*
X05973Y02555*
X05987Y02563*
X05999Y02574*
X0601Y02587*
X06018Y026*
X06024Y02615*
X06028Y02631*
X06029Y02648*
X06028Y02664*
X06024Y0268*
X06018Y02695*
X0601Y02709*
X05999Y02721*
X05987Y02732*
X05973Y0274*
X05958Y02747*
X05942Y0275*
X05925Y02752*
G37*
G36*
X05274D02*
X05257Y0275D01*
X05241Y02747*
X05226Y0274*
X05212Y02732*
X052Y02721*
X05189Y02709*
X05181Y02695*
X05175Y0268*
X05171Y02664*
X0517Y02648*
X05171Y02631*
X05175Y02615*
X05181Y026*
X05189Y02587*
X052Y02574*
X05212Y02563*
X05226Y02555*
X05241Y02549*
X05257Y02545*
X05274Y02544*
X0529Y02545*
X05306Y02549*
X05321Y02555*
X05335Y02563*
X05347Y02574*
X05358Y02587*
X05366Y026*
X05372Y02615*
X05376Y02631*
X05377Y02648*
X05376Y02664*
X05372Y0268*
X05366Y02695*
X05358Y02709*
X05347Y02721*
X05335Y02732*
X05321Y0274*
X05306Y02747*
X0529Y0275*
X05274Y02752*
G37*
G36*
X04325D02*
X04309Y0275D01*
X04293Y02747*
X04278Y0274*
X04264Y02732*
X04252Y02721*
X04241Y02709*
X04233Y02695*
X04227Y0268*
X04223Y02664*
X04222Y02648*
X04223Y02631*
X04227Y02615*
X04233Y026*
X04241Y02587*
X04252Y02574*
X04264Y02563*
X04278Y02555*
X04293Y02549*
X04309Y02545*
X04325Y02544*
X04342Y02545*
X04358Y02549*
X04373Y02555*
X04387Y02563*
X04399Y02574*
X0441Y02587*
X04418Y026*
X04424Y02615*
X04428Y02631*
X04429Y02648*
X04428Y02664*
X04424Y0268*
X04418Y02695*
X0441Y02709*
X04399Y02721*
X04387Y02732*
X04373Y0274*
X04358Y02747*
X04342Y0275*
X04325Y02752*
G37*
%LNbackplane-3*%
%LPD*%
G36*
X0449Y06015D02*
Y05954D01*
X04435Y05899*
X04366*
X04364Y05904*
X04365Y05904*
X04373Y05914*
X04375Y0592*
X04329*
X04284*
X04286Y05914*
X04294Y05904*
X04302Y05898*
Y05892*
X04296Y05889*
X04287Y05882*
X0428Y05873*
X04274Y05862*
X04271Y05851*
X0427Y0584*
X04271Y05828*
X04274Y05817*
X0428Y05807*
X04287Y05798*
X0429Y05795*
X04289Y0579*
X04279*
X04275Y05789*
X04272Y05787*
X0427Y05783*
X04269Y05779*
Y056*
Y05599*
X04266Y05594*
X04219*
X04139Y05674*
Y06035*
X04144Y0604*
X04465*
X0449Y06015*
G37*
G36*
X08559Y05779D02*
Y056D01*
X0494*
X04279*
Y05779*
X08559*
G37*
%LNbackplane-4*%
%LPC*%
G36*
X04349Y05985D02*
Y05959D01*
X04375*
X04373Y05964*
X04365Y05975*
X04355Y05983*
X04349Y05985*
G37*
G36*
X0431D02*
X04305Y05983D01*
X04294Y05975*
X04286Y05964*
X04284Y05959*
X0431*
Y05985*
G37*
G36*
X04229Y05972D02*
X04221Y0597D01*
X04214Y05967*
X04207Y05962*
X04202Y05955*
X04199Y05948*
X04198Y0594*
X04199Y05931*
X04202Y05924*
X04207Y05917*
X04214Y05912*
X04221Y05909*
X04229Y05907*
X04238Y05909*
X04246Y05912*
X04252Y05917*
X04257Y05924*
X04261Y05931*
X04261Y0594*
X04261Y05948*
X04257Y05955*
X04252Y05962*
X04246Y05967*
X04238Y0597*
X04229Y05972*
G37*
G36*
Y05872D02*
X04221Y0587D01*
X04214Y05867*
X04207Y05862*
X04202Y05855*
X04199Y05848*
X04198Y0584*
X04199Y05831*
X04202Y05824*
X04207Y05817*
X04214Y05812*
X04221Y05809*
X04229Y05807*
X04238Y05809*
X04246Y05812*
X04252Y05817*
X04257Y05824*
X04261Y05831*
X04261Y0584*
X04261Y05848*
X04257Y05855*
X04252Y05862*
X04246Y05867*
X04238Y0587*
X04229Y05872*
G37*
G36*
Y05772D02*
X04221Y0577D01*
X04214Y05767*
X04207Y05762*
X04202Y05755*
X04199Y05748*
X04198Y0574*
X04199Y05731*
X04202Y05724*
X04207Y05717*
X04214Y05712*
X04221Y05709*
X04229Y05707*
X04238Y05709*
X04246Y05712*
X04252Y05717*
X04257Y05724*
X04261Y05731*
X04261Y0574*
X04261Y05748*
X04257Y05755*
X04252Y05762*
X04246Y05767*
X04238Y0577*
X04229Y05772*
G37*
%LNbackplane-5*%
%LPD*%
G54D10*
X08214Y04835D02*
X083D01*
X0815Y0477D02*
X08214Y04835D01*
X07919Y0477D02*
X0815D01*
X07858Y0483D02*
X07919Y0477D01*
X08194Y04935D02*
X083D01*
X0809Y0483D02*
X08194Y04935D01*
X07984Y0483D02*
X0809D01*
G54D11*
X08205Y05035D02*
X083D01*
X08099Y04929D02*
X08205Y05035D01*
X07984Y04929D02*
X08099D01*
G54D12*
X08295Y0483D02*
X083Y04835D01*
X065D02*
X06594D01*
X06629Y048*
X0667*
X06514Y0495D02*
X0677D01*
X049Y04935D02*
X04914Y0495D01*
X0517*
X049Y04835D02*
X04974D01*
X05009Y048*
X0507*
X065Y04535D02*
X06594D01*
X0672Y04409*
Y0427D02*
Y04409D01*
Y0427D02*
X0677Y0422D01*
X049Y04535D02*
X04974D01*
X0512Y0439*
Y0427D02*
Y0439D01*
Y0427D02*
X0517Y0422D01*
X049Y04435D02*
X0499Y04344D01*
Y0415D02*
Y04344D01*
Y0415D02*
X0507Y0407D01*
X065Y04435D02*
X0659Y04344D01*
Y0415D02*
Y04344D01*
Y0415D02*
X0667Y0407D01*
G54D13*
X04194Y05535D02*
X04642D01*
X04329Y0584D02*
X04459D01*
X04079Y0565D02*
X04194Y05535D01*
X04079Y0565D02*
Y06059D01*
X0412Y061*
X0449*
X0455Y0604*
Y05929D02*
Y0604D01*
X04459Y0584D02*
X0455Y05929D01*
G54D14*
X0677Y0475D02*
X069Y04879D01*
Y053*
X06664Y05535D02*
X069Y053D01*
X065Y05535D02*
X06664D01*
X049D02*
X05114D01*
X0527Y05379*
Y0485D02*
Y05379D01*
X0517Y0475D02*
X0527Y0485D01*
X0457Y04764D02*
Y04964D01*
Y05462*
Y04964D02*
X047Y04835D01*
X0457Y04764D02*
X047Y04635D01*
X0457Y05462D02*
X04642Y05535D01*
X06179Y04855D02*
X063Y04735D01*
X06179Y04855D02*
Y05055D01*
X063Y04935*
X06179Y05055D02*
Y0547D01*
X06244Y05535*
X063*
X04642D02*
X047D01*
G54D15*
X05136Y02976D02*
X05218D01*
X05Y0284D02*
X05136Y02976D01*
X05Y0279D02*
Y0284D01*
X0495Y0274D02*
X05Y0279D01*
X049Y0274D02*
X0495D01*
X047D02*
X049D01*
X05329Y02922D02*
Y03031D01*
X05048Y0264D02*
X05329Y02922D01*
X049Y0264D02*
X05048D01*
X047D02*
X049D01*
X05218Y02976D02*
Y03085D01*
X05329Y03249D02*
Y03358D01*
X05048Y0364D02*
X05329Y03358D01*
X047Y0364D02*
Y0374D01*
X049*
Y0364D02*
X05048D01*
X047D02*
X049D01*
X051Y0344D02*
X05218Y03322D01*
X047Y0344D02*
Y0354D01*
X049*
X05218Y03303D02*
Y03322D01*
Y03194D02*
Y03303D01*
X049Y0344D02*
X051D01*
X047D02*
X049D01*
X04381Y02976D02*
Y03085D01*
Y02976D02*
X04463D01*
X046Y0284*
X049D02*
Y0294D01*
X047D02*
X049D01*
X047Y0284D02*
X049D01*
X046D02*
X047D01*
X04381Y03194D02*
Y03303D01*
X04463*
X045Y0334*
X047D02*
X049D01*
X045D02*
X047D01*
X061D02*
X063D01*
X065*
X06063Y03303D02*
X061Y0334D01*
X05981Y03303D02*
X06063D01*
X05981Y03194D02*
Y03303D01*
X06063Y02976D02*
X062Y0284D01*
X05981Y02976D02*
X06063D01*
X05981D02*
Y03085D01*
X063Y0344D02*
X065D01*
X067*
X06818Y03194D02*
Y03303D01*
Y03322*
X063Y0354D02*
X065D01*
X063Y0344D02*
Y0354D01*
X067Y0344D02*
X06818Y03322D01*
X063Y0364D02*
X065D01*
X06648*
X063Y0374D02*
X065D01*
X063Y0364D02*
Y0374D01*
X06648Y0364D02*
X06929Y03358D01*
Y03249D02*
Y03358D01*
X06818Y02976D02*
Y03085D01*
X063Y0264D02*
X065D01*
X06648*
X06929Y02922*
Y03031*
X063Y0274D02*
X065D01*
X0655*
X066Y0279*
Y0284*
X06736Y02976*
X06818*
X062Y0284D02*
X063D01*
X065*
Y0294*
X063D02*
X065D01*
G54D16*
X03729Y0674D02*
Y01629D01*
Y0674D02*
X0902D01*
Y01629*
X03729D02*
X0902D01*
G54D17*
X07984Y0483D03*
Y04929D03*
X07858D03*
Y0483D03*
X063Y02635D03*
Y02735D03*
Y02835D03*
Y02935D03*
Y03035D03*
Y03135D03*
Y03235D03*
Y03335D03*
Y03435D03*
Y03535D03*
Y03635D03*
Y03735D03*
Y03835D03*
Y03935D03*
Y04035D03*
Y04135D03*
Y04235D03*
Y04335D03*
Y04435D03*
Y04535D03*
Y04635D03*
Y04735D03*
Y04835D03*
Y04935D03*
Y05035D03*
Y05135D03*
Y05235D03*
Y05335D03*
Y05435D03*
Y05535D03*
Y05635D03*
Y05735D03*
X065Y02635D03*
Y02735D03*
Y02835D03*
Y02935D03*
Y03035D03*
Y03135D03*
Y03235D03*
Y03335D03*
Y03435D03*
Y03535D03*
Y03635D03*
Y03735D03*
Y03835D03*
Y03935D03*
Y04035D03*
Y04135D03*
Y04235D03*
Y04335D03*
Y04435D03*
Y04535D03*
Y04635D03*
Y04735D03*
Y04835D03*
Y04935D03*
Y05035D03*
Y05135D03*
Y05235D03*
Y05335D03*
Y05435D03*
Y05535D03*
Y05635D03*
Y05735D03*
X083Y02635D03*
Y02735D03*
Y02835D03*
Y02935D03*
Y03035D03*
Y03135D03*
Y03235D03*
Y03335D03*
Y03435D03*
Y03535D03*
Y03635D03*
Y03735D03*
Y03835D03*
Y03935D03*
Y04035D03*
Y04135D03*
Y04235D03*
Y04335D03*
Y04435D03*
Y04535D03*
Y04635D03*
Y04735D03*
Y04835D03*
Y04935D03*
Y05035D03*
Y05135D03*
Y05235D03*
Y05335D03*
Y05435D03*
Y05535D03*
Y05635D03*
Y05735D03*
X085Y02635D03*
Y02735D03*
Y02835D03*
Y02935D03*
Y03035D03*
Y03135D03*
Y03235D03*
Y03335D03*
Y03435D03*
Y03535D03*
Y03635D03*
Y03735D03*
Y03835D03*
Y03935D03*
Y04035D03*
Y04135D03*
Y04235D03*
Y04335D03*
Y04435D03*
Y04535D03*
Y04635D03*
Y04735D03*
Y04835D03*
Y04935D03*
Y05035D03*
Y05135D03*
Y05235D03*
Y05335D03*
Y05435D03*
Y05535D03*
Y05635D03*
Y05735D03*
X047Y02635D03*
Y02735D03*
Y02835D03*
Y02935D03*
Y03035D03*
Y03135D03*
Y03235D03*
Y03335D03*
Y03435D03*
Y03535D03*
Y03635D03*
Y03735D03*
Y03835D03*
Y03935D03*
Y04035D03*
Y04135D03*
Y04235D03*
Y04335D03*
Y04435D03*
Y04535D03*
Y04635D03*
Y04735D03*
Y04835D03*
Y04935D03*
Y05035D03*
Y05135D03*
Y05235D03*
Y05335D03*
Y05435D03*
Y05535D03*
Y05635D03*
Y05735D03*
X049Y02635D03*
Y02735D03*
Y02835D03*
Y02935D03*
Y03035D03*
Y03135D03*
Y03235D03*
Y03335D03*
Y03435D03*
Y03535D03*
Y03635D03*
Y03735D03*
Y03835D03*
Y03935D03*
Y04035D03*
Y04135D03*
Y04235D03*
Y04335D03*
Y04435D03*
Y04535D03*
Y04635D03*
Y04735D03*
Y04835D03*
Y04935D03*
Y05035D03*
Y05135D03*
Y05235D03*
Y05335D03*
Y05435D03*
Y05535D03*
Y05635D03*
Y05735D03*
G54D18*
X086Y01779D03*
X088D03*
X084D03*
X082D03*
X08D03*
X088Y0659D03*
X084D03*
X086D03*
X08D03*
X082D03*
X078D03*
Y01779D03*
X044Y0659D03*
X042D03*
X04D03*
X06D03*
X058D03*
X054D03*
X056D03*
X048D03*
X046D03*
X05D03*
X052D03*
X068D03*
X066D03*
X062D03*
X064D03*
X072D03*
X07D03*
X074D03*
X076D03*
X04Y01779D03*
X056D03*
X058D03*
X054D03*
X048D03*
X052D03*
X05D03*
X042D03*
X046D03*
X044D03*
X062D03*
X064D03*
X06D03*
X068D03*
X07D03*
X066D03*
X072D03*
X076D03*
X074D03*
X04329Y0574D03*
Y0584D03*
Y0594D03*
G54D19*
X0677Y0432D03*
Y0505D03*
X0517D03*
Y0432D03*
G54D20*
X0667Y0427D03*
X0677Y0422D03*
X0667Y0417D03*
X0677Y0412D03*
X0667Y0407D03*
X0677Y0402D03*
X0667Y0397D03*
Y047D03*
X0677Y0475D03*
X0667Y048D03*
X0677Y0485D03*
X0667Y049D03*
X0677Y0495D03*
X0667Y05D03*
X0507Y047D03*
X0517Y0475D03*
X0507Y048D03*
X0517Y0485D03*
X0507Y049D03*
X0517Y0495D03*
X0507Y05D03*
Y0427D03*
X0517Y0422D03*
X0507Y0417D03*
X0517Y0412D03*
X0507Y0407D03*
X0517Y0402D03*
X0507Y0397D03*
G54D21*
X0702Y0437D03*
Y0392D03*
Y0465D03*
Y051D03*
X0542Y0465D03*
Y051D03*
Y0437D03*
Y0392D03*
G54D22*
X05925Y03631D03*
Y02648D03*
X06874D03*
Y03631D03*
X04325D03*
Y02648D03*
X05274D03*
Y03631D03*
G54D23*
X0587Y02922D03*
X06929Y03358D03*
X0427Y02922D03*
X05329Y03358D03*
G54D24*
X05981Y02976D03*
X0587Y03031D03*
X05981Y03085D03*
X0587Y0314D03*
X05981Y03194D03*
X0587Y03249D03*
X05981Y03303D03*
X0587Y03358D03*
X06818Y03303D03*
X06929Y03249D03*
X06818Y03194D03*
X06929Y0314D03*
X06818Y03085D03*
X06929Y03031D03*
X06818Y02976D03*
X06929Y02922D03*
X04381Y02976D03*
X0427Y03031D03*
X04381Y03085D03*
X0427Y0314D03*
X04381Y03194D03*
X0427Y03249D03*
X04381Y03303D03*
X0427Y03358D03*
X05218Y03303D03*
X05329Y03249D03*
X05218Y03194D03*
X05329Y0314D03*
X05218Y03085D03*
X05329Y03031D03*
X05218Y02976D03*
X05329Y02922D03*
G54D25*
X04229Y0574D03*
Y0584D03*
Y0594D03*
M02*