%FSTAX23Y23*%
%MOMM*%
%SFA1B1*%

%IPPOS*%
%ADD10C,1.519997*%
%ADD11C,0.299999*%
%ADD13C,0.130000*%
%ADD14C,1.519997*%
%ADD15C,1.999996*%
%ADD16C,1.689997*%
%ADD17R,1.689997X1.689997*%
%ADD18C,4.759990*%
%ADD19R,1.369997X1.369997*%
%ADD20C,1.369997*%
%ADD21C,3.249994*%
%ADD22C,1.269997*%
%LNbackplane-1*%
%LPD*%
G36*
X151129Y88899D02*
X43179D01*
Y196849*
X151129*
Y88899*
G37*
%LNbackplane-2*%
%LPC*%
G36*
X118869Y125479D02*
Y125469D01*
X118659Y125309*
X118489Y125099*
X118869*
Y125479*
G37*
G36*
X52829D02*
Y125469D01*
X52619Y125309*
X52449Y125099*
X52829*
Y125479*
G37*
G36*
X137159Y127659D02*
X136779Y127629D01*
X136419Y127519*
X136089Y127339*
X135789Y127099*
X135549Y126799*
X135369Y126469*
X135259Y126109*
X135229Y125729*
X135259Y125349*
X135369Y124989*
X135549Y124659*
X135789Y124359*
X136089Y124119*
X136419Y123939*
X136779Y123829*
X137159Y123799*
X137539Y123829*
X137899Y123939*
X138229Y124119*
X138529Y124359*
X138769Y124659*
X138949Y124989*
X139059Y125349*
X139089Y125729*
X139059Y126109*
X138949Y126469*
X138769Y126799*
X138529Y127099*
X138229Y127339*
X137899Y127519*
X137539Y127629*
X137159Y127659*
G37*
G36*
X58419Y128199D02*
X58139Y128159D01*
X57879Y128049*
X57659Y127879*
X57489Y127659*
X57389Y127399*
X57349Y127129*
X57389Y126849*
X57489Y126589*
X57659Y126369*
X57879Y126199*
X58139Y126089*
X58419Y126059*
X58699Y126089*
X58959Y126199*
X59179Y126369*
X59349Y126589*
X59449Y126849*
X59489Y127129*
X59449Y127399*
X59349Y127659*
X59179Y127879*
X58959Y128049*
X58699Y128159*
X58419Y128199*
G37*
G36*
X119889Y125479D02*
Y125099D01*
X120269*
X120099Y125309*
X119889Y125469*
Y125479*
G37*
G36*
X53849D02*
Y125099D01*
X54229*
X54059Y125309*
X53849Y125469*
Y125479*
G37*
G36*
X96519Y127659D02*
X96139Y127629D01*
X95779Y127519*
X95449Y127339*
X95149Y127099*
X94909Y126799*
X94729Y126469*
X94619Y126109*
X94589Y125729*
X94619Y125349*
X94729Y124989*
X94909Y124659*
X95149Y124359*
X95449Y124119*
X95779Y123939*
X96139Y123829*
X96519Y123799*
X96899Y123829*
X97259Y123939*
X97589Y124119*
X97889Y124359*
X98129Y124659*
X98309Y124989*
X98419Y125349*
X98449Y125729*
X98419Y126109*
X98309Y126469*
X98129Y126799*
X97889Y127099*
X97589Y127339*
X97259Y127519*
X96899Y127629*
X96519Y127659*
G37*
G36*
X52829Y124079D02*
X52449D01*
Y124069*
X52619Y123859*
X52829Y123699*
Y124079*
G37*
G36*
X78739Y125659D02*
X78459Y125619D01*
X78199Y125509*
X77979Y125339*
X77809Y125119*
X77709Y124859*
X77669Y124589*
X77709Y124309*
X77809Y124049*
X77979Y123829*
X78199Y123659*
X78459Y123549*
X78739Y123519*
X79019Y123549*
X79279Y123659*
X79499Y123829*
X79669Y124049*
X79769Y124309*
X79809Y124589*
X79769Y124859*
X79669Y125119*
X79499Y125339*
X79279Y125509*
X79019Y125619*
X78739Y125659*
G37*
G36*
X58419D02*
X58139Y125619D01*
X57879Y125509*
X57659Y125339*
X57489Y125119*
X57389Y124859*
X57349Y124589*
X57389Y124309*
X57489Y124049*
X57659Y123829*
X57879Y123659*
X58139Y123549*
X58419Y123519*
X58699Y123549*
X58959Y123659*
X59179Y123829*
X59349Y124049*
X59449Y124309*
X59489Y124589*
X59449Y124859*
X59349Y125119*
X59179Y125339*
X58959Y125509*
X58699Y125619*
X58419Y125659*
G37*
G36*
X120269Y124079D02*
X119889D01*
Y123699*
X120099Y123859*
X120269Y124069*
Y124079*
G37*
G36*
X54229D02*
X53849D01*
Y123699*
X54059Y123859*
X54229Y124069*
Y124079*
G37*
G36*
X118869D02*
X118489D01*
Y124069*
X118659Y123859*
X118869Y123699*
Y124079*
G37*
G36*
X53849Y128019D02*
Y127639D01*
X54229*
X54059Y127849*
X53849Y128009*
Y128019*
G37*
G36*
X78229D02*
Y128009D01*
X78019Y127849*
X77849Y127639*
X78229*
Y128019*
G37*
G36*
X52829D02*
Y128009D01*
X52619Y127849*
X52449Y127639*
X52829*
Y128019*
G37*
G36*
X78739Y130739D02*
X78459Y130699D01*
X78199Y130589*
X77979Y130419*
X77809Y130199*
X77709Y129939*
X77669Y129669*
X77709Y129389*
X77809Y129129*
X77979Y128909*
X78199Y128739*
X78459Y128629*
X78739Y128599*
X79019Y128629*
X79279Y128739*
X79499Y128909*
X79669Y129129*
X79769Y129389*
X79809Y129669*
X79769Y129939*
X79669Y130199*
X79499Y130419*
X79279Y130589*
X79019Y130699*
X78739Y130739*
G37*
G36*
X58419D02*
X58139Y130699D01*
X57879Y130589*
X57659Y130419*
X57489Y130199*
X57389Y129939*
X57349Y129669*
X57389Y129389*
X57489Y129129*
X57659Y128909*
X57879Y128739*
X58139Y128629*
X58419Y128599*
X58699Y128629*
X58959Y128739*
X59179Y128909*
X59349Y129129*
X59449Y129389*
X59489Y129669*
X59449Y129939*
X59349Y130199*
X59179Y130419*
X58959Y130589*
X58699Y130699*
X58419Y130739*
G37*
G36*
X79249Y128019D02*
Y127639D01*
X79629*
X79459Y127849*
X79249Y128009*
Y128019*
G37*
G36*
X79629Y126619D02*
X79249D01*
Y126239*
X79459Y126399*
X79629Y126609*
Y126619*
G37*
G36*
X124459Y128199D02*
X124179Y128159D01*
X123919Y128049*
X123699Y127879*
X123529Y127659*
X123429Y127399*
X123389Y127129*
X123429Y126849*
X123529Y126589*
X123699Y126369*
X123919Y126199*
X124179Y126089*
X124459Y126059*
X124739Y126089*
X124999Y126199*
X125219Y126369*
X125389Y126589*
X125489Y126849*
X125529Y127129*
X125489Y127399*
X125389Y127659*
X125219Y127879*
X124999Y128049*
X124739Y128159*
X124459Y128199*
G37*
G36*
X119379D02*
X119099Y128159D01*
X118839Y128049*
X118619Y127879*
X118449Y127659*
X118349Y127399*
X118309Y127129*
X118349Y126849*
X118449Y126589*
X118619Y126369*
X118839Y126199*
X119099Y126089*
X119379Y126059*
X119659Y126089*
X119919Y126199*
X120139Y126369*
X120309Y126589*
X120409Y126849*
X120449Y127129*
X120409Y127399*
X120309Y127659*
X120139Y127879*
X119919Y128049*
X119659Y128159*
X119379Y128199*
G37*
G36*
X83819D02*
X83539Y128159D01*
X83279Y128049*
X83059Y127879*
X82889Y127659*
X82789Y127399*
X82749Y127129*
X82789Y126849*
X82889Y126589*
X83059Y126369*
X83279Y126199*
X83539Y126089*
X83819Y126059*
X84099Y126089*
X84359Y126199*
X84579Y126369*
X84749Y126589*
X84849Y126849*
X84889Y127129*
X84849Y127399*
X84749Y127659*
X84579Y127879*
X84359Y128049*
X84099Y128159*
X83819Y128199*
G37*
G36*
X54229Y126619D02*
X53849D01*
Y126239*
X54059Y126399*
X54229Y126609*
Y126619*
G37*
G36*
X78229D02*
X77849D01*
Y126609*
X78019Y126399*
X78229Y126239*
Y126619*
G37*
G36*
X52829D02*
X52449D01*
Y126609*
X52619Y126399*
X52829Y126239*
Y126619*
G37*
G36*
X130809Y122909D02*
X130549Y122879D01*
X130309Y122779*
X130109Y122619*
X129949Y122419*
X129849Y122179*
X129819Y121919*
X129849Y121659*
X129949Y121419*
X130109Y121219*
X130309Y121059*
X130549Y120959*
X130809Y120929*
X131069Y120959*
X131309Y121059*
X131509Y121219*
X131669Y121419*
X131769Y121659*
X131799Y121919*
X131769Y122179*
X131669Y122419*
X131509Y122619*
X131309Y122779*
X131069Y122879*
X130809Y122909*
G37*
G36*
X90169D02*
X89909Y122879D01*
X89669Y122779*
X89469Y122619*
X89309Y122419*
X89209Y122179*
X89179Y121919*
X89209Y121659*
X89309Y121419*
X89469Y121219*
X89669Y121059*
X89909Y120959*
X90169Y120929*
X90429Y120959*
X90669Y121059*
X90869Y121219*
X91029Y121419*
X91129Y121659*
X91159Y121919*
X91129Y122179*
X91029Y122419*
X90869Y122619*
X90669Y122779*
X90429Y122879*
X90169Y122909*
G37*
G36*
X124969Y120399D02*
Y120009D01*
X125349*
Y120019*
X125179Y120229*
X124969Y120389*
Y120399*
G37*
G36*
X119379Y123119D02*
X119099Y123079D01*
X118839Y122969*
X118619Y122799*
X118449Y122579*
X118349Y122319*
X118309Y122049*
X118349Y121769*
X118449Y121509*
X118619Y121289*
X118839Y121119*
X119099Y121009*
X119379Y120979*
X119659Y121009*
X119919Y121119*
X120139Y121289*
X120309Y121509*
X120409Y121769*
X120449Y122049*
X120409Y122319*
X120309Y122579*
X120139Y122799*
X119919Y122969*
X119659Y123079*
X119379Y123119*
G37*
G36*
X83819D02*
X83539Y123079D01*
X83279Y122969*
X83059Y122799*
X82889Y122579*
X82789Y122319*
X82749Y122049*
X82789Y121769*
X82889Y121509*
X83059Y121289*
X83279Y121119*
X83539Y121009*
X83819Y120979*
X84099Y121009*
X84359Y121119*
X84579Y121289*
X84749Y121509*
X84849Y121769*
X84889Y122049*
X84849Y122319*
X84749Y122579*
X84579Y122799*
X84359Y122969*
X84099Y123079*
X83819Y123119*
G37*
G36*
X58419D02*
X58139Y123079D01*
X57879Y122969*
X57659Y122799*
X57489Y122579*
X57389Y122319*
X57349Y122049*
X57389Y121769*
X57489Y121509*
X57659Y121289*
X57879Y121119*
X58139Y121009*
X58419Y120979*
X58699Y121009*
X58959Y121119*
X59179Y121289*
X59349Y121509*
X59449Y121769*
X59489Y122049*
X59449Y122319*
X59349Y122579*
X59179Y122799*
X58959Y122969*
X58699Y123079*
X58419Y123119*
G37*
G36*
X119889Y120399D02*
Y120009D01*
X120269*
Y120019*
X120099Y120229*
X119889Y120389*
Y120399*
G37*
G36*
X53849D02*
Y120009D01*
X54229*
Y120019*
X54059Y120229*
X53849Y120389*
Y120399*
G37*
G36*
X123949D02*
Y120389D01*
X123739Y120229*
X123569Y120019*
Y120009*
X123949*
Y120399*
G37*
G36*
X118869D02*
Y120389D01*
X118659Y120229*
X118489Y120019*
Y120009*
X118869*
Y120399*
G37*
G36*
X84329D02*
Y120009D01*
X84709*
Y120019*
X84539Y120229*
X84329Y120389*
Y120399*
G37*
G36*
X79249D02*
Y120009D01*
X79629*
Y120019*
X79459Y120229*
X79249Y120389*
Y120399*
G37*
G36*
X58929D02*
Y120009D01*
X59309*
Y120019*
X59139Y120229*
X58929Y120389*
Y120399*
G37*
G36*
X53849Y122939D02*
Y122559D01*
X54229*
X54059Y122769*
X53849Y122929*
Y122939*
G37*
G36*
X78229D02*
Y122929D01*
X78019Y122769*
X77849Y122559*
X78229*
Y122939*
G37*
G36*
X52829D02*
Y122929D01*
X52619Y122769*
X52449Y122559*
X52829*
Y122939*
G37*
G36*
X131799Y125449D02*
X129819D01*
Y123469*
X131799*
Y125449*
G37*
G36*
X91159D02*
X89179D01*
Y123469*
X91159*
Y125449*
G37*
G36*
X79249Y122939D02*
Y122559D01*
X79629*
X79459Y122769*
X79249Y122929*
Y122939*
G37*
G36*
X124459Y130739D02*
X124179Y130699D01*
X123919Y130589*
X123699Y130419*
X123529Y130199*
X123429Y129939*
X123389Y129669*
X123429Y129389*
X123529Y129129*
X123699Y128909*
X123919Y128739*
X124179Y128629*
X124459Y128599*
X124719Y128629*
X127809Y125539*
Y124069*
X127769Y124049*
X127569Y123889*
X127409Y123689*
X127309Y123449*
X127279Y123189*
X127309Y122929*
X127409Y122689*
X127569Y122489*
X127769Y122329*
X128009Y122229*
X128269Y122199*
X128529Y122229*
X128769Y122329*
X128969Y122489*
X129129Y122689*
X129229Y122929*
X129259Y123189*
X129229Y123449*
X129129Y123689*
X128969Y123889*
X128769Y124049*
X128729Y124069*
Y125729*
X128699Y125909*
X128599Y126059*
X125429Y129229*
X125489Y129389*
X125529Y129669*
X125489Y129939*
X125389Y130199*
X125219Y130419*
X124999Y130589*
X124739Y130699*
X124459Y130739*
G37*
G36*
X78229Y121539D02*
X77849D01*
Y121529*
X78019Y121319*
X78229Y121159*
Y121539*
G37*
G36*
X52829D02*
X52449D01*
Y121529*
X52619Y121319*
X52829Y121159*
Y121539*
G37*
G36*
X124459Y123119D02*
X124179Y123079D01*
X123919Y122969*
X123699Y122799*
X123529Y122579*
X123429Y122319*
X123389Y122049*
X123429Y121769*
X123529Y121509*
X123699Y121289*
X123919Y121119*
X124179Y121009*
X124459Y120979*
X124739Y121009*
X124999Y121119*
X125219Y121289*
X125389Y121509*
X125489Y121769*
X125529Y122049*
X125489Y122319*
X125389Y122579*
X125219Y122799*
X124999Y122969*
X124739Y123079*
X124459Y123119*
G37*
G36*
X83819Y130739D02*
X83539Y130699D01*
X83279Y130589*
X83059Y130419*
X82889Y130199*
X82789Y129939*
X82749Y129669*
X82789Y129389*
X82889Y129129*
X83059Y128909*
X83279Y128739*
X83539Y128629*
X83819Y128599*
X84079Y128629*
X87169Y125539*
Y124069*
X87129Y124049*
X86929Y123889*
X86769Y123689*
X86669Y123449*
X86639Y123189*
X86669Y122929*
X86769Y122689*
X86929Y122489*
X87129Y122329*
X87369Y122229*
X87629Y122199*
X87889Y122229*
X88129Y122329*
X88329Y122489*
X88489Y122689*
X88589Y122929*
X88619Y123189*
X88589Y123449*
X88489Y123689*
X88329Y123889*
X88129Y124049*
X88089Y124069*
Y125729*
X88059Y125909*
X87959Y126059*
X84789Y129229*
X84849Y129389*
X84889Y129669*
X84849Y129939*
X84749Y130199*
X84579Y130419*
X84359Y130589*
X84099Y130699*
X83819Y130739*
G37*
G36*
X79629Y121539D02*
X79249D01*
Y121159*
X79459Y121319*
X79629Y121529*
Y121539*
G37*
G36*
X54229D02*
X53849D01*
Y121159*
X54059Y121319*
X54229Y121529*
Y121539*
G37*
G36*
X52829Y129159D02*
X52449D01*
Y129149*
X52619Y128939*
X52829Y128779*
Y129159*
G37*
G36*
X58419Y138359D02*
X58139Y138319D01*
X57879Y138209*
X57659Y138039*
X57489Y137819*
X57389Y137559*
X57349Y137289*
X57389Y137009*
X57489Y136749*
X57659Y136529*
X57879Y136359*
X58139Y136249*
X58419Y136219*
X58699Y136249*
X58959Y136359*
X59179Y136529*
X59349Y136749*
X59449Y137009*
X59489Y137289*
X59449Y137559*
X59349Y137819*
X59179Y138039*
X58959Y138209*
X58699Y138319*
X58419Y138359*
G37*
G36*
X119889Y135639D02*
Y135259D01*
X120269*
X120099Y135469*
X119889Y135629*
Y135639*
G37*
G36*
X79249D02*
Y135259D01*
X79629*
X79459Y135469*
X79249Y135629*
Y135639*
G37*
G36*
X118869Y136779D02*
X118489D01*
Y136769*
X118659Y136559*
X118869Y136399*
Y136779*
G37*
G36*
X78229D02*
X77849D01*
Y136769*
X78019Y136559*
X78229Y136399*
Y136779*
G37*
G36*
X52829D02*
X52449D01*
Y136769*
X52619Y136559*
X52829Y136399*
Y136779*
G37*
G36*
X53849Y135639D02*
Y135259D01*
X54229*
X54059Y135469*
X53849Y135629*
Y135639*
G37*
G36*
X120269Y134239D02*
X119889D01*
Y133859*
X120099Y134019*
X120269Y134229*
Y134239*
G37*
G36*
X79629D02*
X79249D01*
Y133859*
X79459Y134019*
X79629Y134229*
Y134239*
G37*
G36*
X54229D02*
X53849D01*
Y133859*
X54059Y134019*
X54229Y134229*
Y134239*
G37*
G36*
X118869Y135639D02*
Y135629D01*
X118659Y135469*
X118489Y135259*
X118869*
Y135639*
G37*
G36*
X78229D02*
Y135629D01*
X78019Y135469*
X77849Y135259*
X78229*
Y135639*
G37*
G36*
X52829D02*
Y135629D01*
X52619Y135469*
X52449Y135259*
X52829*
Y135639*
G37*
G36*
X79249Y138179D02*
Y137789D01*
X79629*
Y137799*
X79459Y138009*
X79249Y138169*
Y138179*
G37*
G36*
X53849D02*
Y137789D01*
X54229*
Y137799*
X54059Y138009*
X53849Y138169*
Y138179*
G37*
G36*
X118869D02*
Y138169D01*
X118659Y138009*
X118489Y137799*
Y137789*
X118869*
Y138179*
G37*
G36*
Y139319D02*
X118489D01*
Y139309*
X118659Y139099*
X118869Y138939*
Y139319*
G37*
G36*
X58419Y140899D02*
X58139Y140859D01*
X57879Y140749*
X57659Y140579*
X57489Y140359*
X57389Y140099*
X57349Y139829*
X57389Y139549*
X57489Y139289*
X57659Y139069*
X57879Y138899*
X58139Y138789*
X58419Y138759*
X58699Y138789*
X58959Y138899*
X59179Y139069*
X59349Y139289*
X59449Y139549*
X59489Y139829*
X59449Y140099*
X59349Y140359*
X59179Y140579*
X58959Y140749*
X58699Y140859*
X58419Y140899*
G37*
G36*
X119889Y138179D02*
Y137789D01*
X120269*
Y137799*
X120099Y138009*
X119889Y138169*
Y138179*
G37*
G36*
X78229D02*
Y138169D01*
X78019Y138009*
X77849Y137799*
Y137789*
X78229*
Y138179*
G37*
G36*
X120269Y136779D02*
X119889D01*
Y136399*
X120099Y136559*
X120269Y136769*
Y136779*
G37*
G36*
X79629D02*
X79249D01*
Y136399*
X79459Y136559*
X79629Y136769*
Y136779*
G37*
G36*
X54229D02*
X53849D01*
Y136399*
X54059Y136559*
X54229Y136769*
Y136779*
G37*
G36*
X52829Y138179D02*
Y138169D01*
X52619Y138009*
X52449Y137799*
Y137789*
X52829*
Y138179*
G37*
G36*
X130809Y141959D02*
X130549Y141929D01*
X130309Y141829*
X130109Y141669*
X129949Y141469*
X129849Y141229*
X129819Y140969*
X129849Y140709*
X129949Y140469*
X130109Y140269*
X130189Y140199*
X130199Y140079*
X129349Y139229*
X129249Y139079*
X129209Y138899*
Y137759*
X129079Y137719*
X128969Y137859*
X128769Y138019*
X128529Y138119*
X128269Y138149*
X128009Y138119*
X127769Y138019*
X127569Y137859*
X127409Y137659*
X127389Y137619*
X126999*
X126819Y137589*
X126669Y137489*
X124899Y135709*
X124739Y135779*
X124459Y135819*
X124179Y135779*
X123919Y135669*
X123699Y135499*
X123529Y135279*
X123429Y135019*
X123389Y134749*
X123429Y134469*
X123529Y134209*
X123699Y133989*
X123919Y133819*
X124179Y133709*
X124459Y133679*
X124739Y133709*
X124999Y133819*
X125219Y133989*
X125389Y134209*
X125489Y134469*
X125529Y134749*
X125499Y134999*
X127189Y136699*
X127389*
X127409Y136659*
X127569Y136459*
X127649Y136389*
X127659Y136269*
X126809Y135419*
X126709Y135269*
X126669Y135089*
Y134939*
X124899Y133169*
X124739Y133239*
X124459Y133279*
X124179Y133239*
X123919Y133129*
X123699Y132959*
X123529Y132739*
X123429Y132479*
X123389Y132209*
X123429Y131929*
X123529Y131669*
X123699Y131449*
X123919Y131279*
X124179Y131169*
X124459Y131139*
X124739Y131169*
X124999Y131279*
X125219Y131449*
X125389Y131669*
X125489Y131929*
X125529Y132209*
X125499Y132459*
X127249Y134219*
X127379Y134199*
X127409Y134119*
X127569Y133919*
X127769Y133759*
X128009Y133659*
X128269Y133629*
X128529Y133659*
X128769Y133759*
X128969Y133919*
X129129Y134119*
X129229Y134359*
X129259Y134619*
X129229Y134879*
X129129Y135119*
X128969Y135319*
X128809Y135449*
X128849Y135579*
X128919Y135599*
X129069Y135699*
X129889Y136509*
X129979Y136429*
X129949Y136389*
X129849Y136149*
X129819Y135889*
X129849Y135629*
X129949Y135389*
X130109Y135189*
X130309Y135029*
X130549Y134929*
X130809Y134899*
X131069Y134929*
X131309Y135029*
X131509Y135189*
X131669Y135389*
X131769Y135629*
X131799Y135889*
X131769Y136149*
X131669Y136389*
X131509Y136589*
X131309Y136749*
X131069Y136849*
X130809Y136879*
X130549Y136849*
X130309Y136749*
X130149Y136629*
X130059Y136719*
X130099Y136779*
X130129Y136949*
Y137559*
X130249Y137619*
X130309Y137569*
X130549Y137469*
X130809Y137439*
X131069Y137469*
X131309Y137569*
X131509Y137729*
X131669Y137929*
X131769Y138169*
X131799Y138429*
X131769Y138689*
X131669Y138929*
X131509Y139129*
X131309Y139289*
X131069Y139389*
X130989Y139399*
X130939Y139519*
X131139Y139709*
X131239Y139859*
X131269Y140039*
Y140089*
X131309Y140109*
X131509Y140269*
X131669Y140469*
X131769Y140709*
X131799Y140969*
X131769Y141229*
X131669Y141469*
X131509Y141669*
X131309Y141829*
X131069Y141929*
X130809Y141959*
G37*
G36*
X90169D02*
X89909Y141929D01*
X89669Y141829*
X89469Y141669*
X89309Y141469*
X89209Y141229*
X89179Y140969*
X89209Y140709*
X89309Y140469*
X89469Y140269*
X89549Y140199*
X89559Y140079*
X88709Y139229*
X88609Y139079*
X88569Y138899*
Y137759*
X88439Y137719*
X88329Y137859*
X88129Y138019*
X87889Y138119*
X87629Y138149*
X87369Y138119*
X87129Y138019*
X86929Y137859*
X86769Y137659*
X86749Y137619*
X86359*
X86179Y137589*
X86029Y137489*
X84259Y135709*
X84099Y135779*
X83819Y135819*
X83539Y135779*
X83279Y135669*
X83059Y135499*
X82889Y135279*
X82789Y135019*
X82749Y134749*
X82789Y134469*
X82889Y134209*
X83059Y133989*
X83279Y133819*
X83539Y133709*
X83819Y133679*
X84099Y133709*
X84359Y133819*
X84579Y133989*
X84749Y134209*
X84849Y134469*
X84889Y134749*
X84859Y134999*
X86549Y136699*
X86749*
X86769Y136659*
X86929Y136459*
X87009Y136389*
X87019Y136269*
X86169Y135419*
X86069Y135269*
X86029Y135089*
Y134939*
X84259Y133169*
X84099Y133239*
X83819Y133279*
X83539Y133239*
X83279Y133129*
X83059Y132959*
X82889Y132739*
X82789Y132479*
X82749Y132209*
X82789Y131929*
X82889Y131669*
X83059Y131449*
X83279Y131279*
X83539Y131169*
X83819Y131139*
X84099Y131169*
X84359Y131279*
X84579Y131449*
X84749Y131669*
X84849Y131929*
X84889Y132209*
X84859Y132459*
X86609Y134219*
X86739Y134199*
X86769Y134119*
X86929Y133919*
X87129Y133759*
X87369Y133659*
X87629Y133629*
X87889Y133659*
X88129Y133759*
X88329Y133919*
X88489Y134119*
X88589Y134359*
X88619Y134619*
X88589Y134879*
X88489Y135119*
X88329Y135319*
X88169Y135449*
X88209Y135579*
X88279Y135599*
X88429Y135699*
X89249Y136509*
X89339Y136429*
X89309Y136389*
X89209Y136149*
X89179Y135889*
X89209Y135629*
X89309Y135389*
X89469Y135189*
X89669Y135029*
X89909Y134929*
X90169Y134899*
X90429Y134929*
X90669Y135029*
X90869Y135189*
X91029Y135389*
X91129Y135629*
X91159Y135889*
X91129Y136149*
X91029Y136389*
X90869Y136589*
X90669Y136749*
X90429Y136849*
X90169Y136879*
X89909Y136849*
X89669Y136749*
X89509Y136629*
X89419Y136719*
X89459Y136779*
X89489Y136949*
Y137559*
X89609Y137619*
X89669Y137569*
X89909Y137469*
X90169Y137439*
X90429Y137469*
X90669Y137569*
X90869Y137729*
X91029Y137929*
X91129Y138169*
X91159Y138429*
X91129Y138689*
X91029Y138929*
X90869Y139129*
X90669Y139289*
X90429Y139389*
X90349Y139399*
X90299Y139519*
X90499Y139709*
X90599Y139859*
X90629Y140039*
Y140089*
X90669Y140109*
X90869Y140269*
X91029Y140469*
X91129Y140709*
X91159Y140969*
X91129Y141229*
X91029Y141469*
X90869Y141669*
X90669Y141829*
X90429Y141929*
X90169Y141959*
G37*
G36*
X78229Y131699D02*
X77849D01*
Y131689*
X78019Y131479*
X78229Y131319*
Y131699*
G37*
G36*
X52829D02*
X52449D01*
Y131689*
X52619Y131479*
X52829Y131319*
Y131699*
G37*
G36*
X58419Y133279D02*
X58139Y133239D01*
X57879Y133129*
X57659Y132959*
X57489Y132739*
X57389Y132479*
X57349Y132209*
X57389Y131929*
X57489Y131669*
X57659Y131449*
X57879Y131279*
X58139Y131169*
X58419Y131139*
X58699Y131169*
X58959Y131279*
X59179Y131449*
X59349Y131669*
X59449Y131929*
X59489Y132209*
X59449Y132479*
X59349Y132739*
X59179Y132959*
X58959Y133129*
X58699Y133239*
X58419Y133279*
G37*
G36*
X79629Y131699D02*
X79249D01*
Y131319*
X79459Y131479*
X79629Y131689*
Y131699*
G37*
G36*
X54229D02*
X53849D01*
Y131319*
X54059Y131479*
X54229Y131689*
Y131699*
G37*
G36*
X118869D02*
X118489D01*
Y131689*
X118659Y131479*
X118869Y131319*
Y131699*
G37*
G36*
X119889Y130559D02*
Y130179D01*
X120269*
X120099Y130389*
X119889Y130549*
Y130559*
G37*
G36*
X120269Y129159D02*
X119889D01*
Y128779*
X120099Y128939*
X120269Y129149*
Y129159*
G37*
G36*
X54229D02*
X53849D01*
Y128779*
X54059Y128939*
X54229Y129149*
Y129159*
G37*
G36*
X118869D02*
X118489D01*
Y129149*
X118659Y128939*
X118869Y128779*
Y129159*
G37*
G36*
X53849Y130559D02*
Y130179D01*
X54229*
X54059Y130389*
X53849Y130549*
Y130559*
G37*
G36*
X118869D02*
Y130549D01*
X118659Y130389*
X118489Y130179*
X118869*
Y130559*
G37*
G36*
X52829D02*
Y130549D01*
X52619Y130389*
X52449Y130179*
X52829*
Y130559*
G37*
G36*
X58419Y135819D02*
X58139Y135779D01*
X57879Y135669*
X57659Y135499*
X57489Y135279*
X57389Y135019*
X57349Y134749*
X57389Y134469*
X57489Y134209*
X57659Y133989*
X57879Y133819*
X58139Y133709*
X58419Y133679*
X58699Y133709*
X58959Y133819*
X59179Y133989*
X59349Y134209*
X59449Y134469*
X59489Y134749*
X59449Y135019*
X59349Y135279*
X59179Y135499*
X58959Y135669*
X58699Y135779*
X58419Y135819*
G37*
G36*
X119889Y133099D02*
Y132709D01*
X120269*
Y132719*
X120099Y132929*
X119889Y133089*
Y133099*
G37*
G36*
X79249D02*
Y132709D01*
X79629*
Y132719*
X79459Y132929*
X79249Y133089*
Y133099*
G37*
G36*
X118869Y134239D02*
X118489D01*
Y134229*
X118659Y134019*
X118869Y133859*
Y134239*
G37*
G36*
X78229D02*
X77849D01*
Y134229*
X78019Y134019*
X78229Y133859*
Y134239*
G37*
G36*
X52829D02*
X52449D01*
Y134229*
X52619Y134019*
X52829Y133859*
Y134239*
G37*
G36*
X53849Y133099D02*
Y132709D01*
X54229*
Y132719*
X54059Y132929*
X53849Y133089*
Y133099*
G37*
G36*
X137159Y135279D02*
X136779Y135249D01*
X136419Y135139*
X136089Y134959*
X135789Y134719*
X135549Y134419*
X135369Y134089*
X135259Y133729*
X135229Y133349*
X135259Y132969*
X135369Y132609*
X135549Y132279*
X135789Y131979*
X136089Y131739*
X136419Y131559*
X136779Y131449*
X137159Y131419*
X137539Y131449*
X137899Y131559*
X138229Y131739*
X138529Y131979*
X138769Y132279*
X138949Y132609*
X139059Y132969*
X139089Y133349*
X139059Y133729*
X138949Y134089*
X138769Y134419*
X138529Y134719*
X138229Y134959*
X137899Y135139*
X137539Y135249*
X137159Y135279*
G37*
G36*
X96519D02*
X96139Y135249D01*
X95779Y135139*
X95449Y134959*
X95149Y134719*
X94909Y134419*
X94729Y134089*
X94619Y133729*
X94589Y133349*
X94619Y132969*
X94729Y132609*
X94909Y132279*
X95149Y131979*
X95449Y131739*
X95779Y131559*
X96139Y131449*
X96519Y131419*
X96899Y131449*
X97259Y131559*
X97589Y131739*
X97889Y131979*
X98129Y132279*
X98309Y132609*
X98419Y132969*
X98449Y133349*
X98419Y133729*
X98309Y134089*
X98129Y134419*
X97889Y134719*
X97589Y134959*
X97259Y135139*
X96899Y135249*
X96519Y135279*
G37*
G36*
X120269Y131699D02*
X119889D01*
Y131319*
X120099Y131479*
X120269Y131689*
Y131699*
G37*
G36*
X118869Y133099D02*
Y133089D01*
X118659Y132929*
X118489Y132719*
Y132709*
X118869*
Y133099*
G37*
G36*
X78229D02*
Y133089D01*
X78019Y132929*
X77849Y132719*
Y132709*
X78229*
Y133099*
G37*
G36*
X52829D02*
Y133089D01*
X52619Y132929*
X52449Y132719*
Y132709*
X52829*
Y133099*
G37*
G36*
X78229Y113919D02*
X77849D01*
Y113909*
X78019Y113699*
X78229Y113539*
Y113919*
G37*
G36*
X57909D02*
X57529D01*
Y113909*
X57699Y113699*
X57909Y113539*
Y113919*
G37*
G36*
X52829D02*
X52449D01*
Y113909*
X52619Y113699*
X52829Y113539*
Y113919*
G37*
G36*
X123949D02*
X123569D01*
Y113909*
X123739Y113699*
X123949Y113539*
Y113919*
G37*
G36*
X118869D02*
X118489D01*
Y113909*
X118659Y113699*
X118869Y113539*
Y113919*
G37*
G36*
X83309D02*
X82929D01*
Y113909*
X83099Y113699*
X83309Y113539*
Y113919*
G37*
G36*
X96519Y116229D02*
X96139Y116199D01*
X95779Y116089*
X95449Y115909*
X95149Y115669*
X94909Y115369*
X94729Y115039*
X94619Y114679*
X94589Y114299*
X94619Y113919*
X94729Y113559*
X94909Y113229*
X95149Y112929*
X95299Y112809*
X95259Y112679*
X84529*
X84359Y112809*
X84099Y112919*
X83819Y112959*
X83539Y112919*
X83279Y112809*
X83109Y112679*
X79449*
X79279Y112809*
X79019Y112919*
X78739Y112959*
X78459Y112919*
X78199Y112809*
X78029Y112679*
X59129*
X58959Y112809*
X58699Y112919*
X58419Y112959*
X58139Y112919*
X57879Y112809*
X57709Y112679*
X54049*
X53879Y112809*
X53619Y112919*
X53339Y112959*
X53059Y112919*
X52799Y112809*
X52579Y112639*
X52409Y112419*
X52309Y112159*
X52269Y111889*
X52309Y111609*
X52409Y111349*
X52579Y111129*
X52799Y110959*
X52839Y110939*
X52869Y110919*
X53099Y110829*
X53339Y110799*
X124439*
X124679Y110829*
X124909Y110919*
X124919Y110929*
X124999Y110959*
X125219Y111129*
X125389Y111349*
X125489Y111609*
X125529Y111889*
X125489Y112159*
X125389Y112419*
X125219Y112639*
X124999Y112809*
X124739Y112919*
X124459Y112959*
X124179Y112919*
X123919Y112809*
X123749Y112679*
X120089*
X119919Y112809*
X119659Y112919*
X119379Y112959*
X119099Y112919*
X118839Y112809*
X118669Y112679*
X97779*
X97739Y112809*
X97889Y112929*
X98129Y113229*
X98309Y113559*
X98419Y113919*
X98449Y114299*
X98419Y114679*
X98309Y115039*
X98129Y115369*
X97889Y115669*
X97589Y115909*
X97259Y116089*
X96899Y116199*
X96519Y116229*
G37*
G36*
X119889Y107699D02*
Y107319D01*
X120269*
X120099Y107529*
X119889Y107689*
Y107699*
G37*
G36*
X84329D02*
Y107319D01*
X84709*
X84539Y107529*
X84329Y107689*
Y107699*
G37*
G36*
X79249D02*
Y107319D01*
X79629*
X79459Y107529*
X79249Y107689*
Y107699*
G37*
G36*
X137159Y116229D02*
X136779Y116199D01*
X136419Y116089*
X136089Y115909*
X135789Y115669*
X135549Y115369*
X135369Y115039*
X135259Y114679*
X135229Y114299*
X135259Y113919*
X135369Y113559*
X135549Y113229*
X135789Y112929*
X136089Y112689*
X136419Y112509*
X136779Y112399*
X137159Y112369*
X137539Y112399*
X137899Y112509*
X138229Y112689*
X138529Y112929*
X138769Y113229*
X138949Y113559*
X139059Y113919*
X139089Y114299*
X139059Y114679*
X138949Y115039*
X138769Y115369*
X138529Y115669*
X138229Y115909*
X137899Y116089*
X137539Y116199*
X137159Y116229*
G37*
G36*
X124459Y110419D02*
X124179Y110379D01*
X123919Y110269*
X123779Y110159*
X120059*
X119919Y110269*
X119659Y110379*
X119379Y110419*
X119099Y110379*
X118839Y110269*
X118699Y110159*
X84499*
X84359Y110269*
X84099Y110379*
X83819Y110419*
X83539Y110379*
X83279Y110269*
X83139Y110159*
X79419*
X79279Y110269*
X79019Y110379*
X78739Y110419*
X78459Y110379*
X78199Y110269*
X78059Y110159*
X59099*
X58959Y110269*
X58699Y110379*
X58419Y110419*
X58139Y110379*
X57879Y110269*
X57739Y110159*
X54019*
X53879Y110269*
X53619Y110379*
X53339Y110419*
X53059Y110379*
X52799Y110269*
X52579Y110099*
X52409Y109879*
X52309Y109619*
X52269Y109349*
X52309Y109069*
X52409Y108809*
X52579Y108589*
X52799Y108419*
X53059Y108309*
X53339Y108279*
X53349*
X58409*
X58419*
X58429*
X78729*
X78739*
X78749*
X83809*
X83819*
X83829*
X119369*
X119379*
X119389*
X124449*
X124459*
X124739Y108309*
X124999Y108419*
X125219Y108589*
X125389Y108809*
X125489Y109069*
X125529Y109349*
X125489Y109619*
X125389Y109879*
X125219Y110099*
X124999Y110269*
X124739Y110379*
X124459Y110419*
G37*
G36*
X124969Y107699D02*
Y107319D01*
X125349*
X125179Y107529*
X124969Y107689*
Y107699*
G37*
G36*
X57909Y115319D02*
Y115309D01*
X57699Y115149*
X57529Y114939*
Y114929*
X57909*
Y115319*
G37*
G36*
X52829D02*
Y115309D01*
X52619Y115149*
X52449Y114939*
Y114929*
X52829*
Y115319*
G37*
G36*
X128269Y116559D02*
X128009Y116529D01*
X127769Y116429*
X127569Y116269*
X127409Y116069*
X127309Y115829*
X127279Y115569*
X127309Y115309*
X127409Y115069*
X127569Y114869*
X127769Y114709*
X128009Y114609*
X128269Y114579*
X128529Y114609*
X128769Y114709*
X128969Y114869*
X129129Y115069*
X129229Y115309*
X129259Y115569*
X129229Y115829*
X129129Y116069*
X128969Y116269*
X128769Y116429*
X128529Y116529*
X128269Y116559*
G37*
G36*
X118869Y115319D02*
Y115309D01*
X118659Y115149*
X118489Y114939*
Y114929*
X118869*
Y115319*
G37*
G36*
X83309D02*
Y115309D01*
X83099Y115149*
X82929Y114939*
Y114929*
X83309*
Y115319*
G37*
G36*
X78229D02*
Y115309D01*
X78019Y115149*
X77849Y114939*
Y114929*
X78229*
Y115319*
G37*
G36*
X87629Y116559D02*
X87369Y116529D01*
X87129Y116429*
X86929Y116269*
X86769Y116069*
X86669Y115829*
X86639Y115569*
X86669Y115309*
X86769Y115069*
X86929Y114869*
X87129Y114709*
X87369Y114609*
X87629Y114579*
X87889Y114609*
X88129Y114709*
X88329Y114869*
X88489Y115069*
X88589Y115309*
X88619Y115569*
X88589Y115829*
X88489Y116069*
X88329Y116269*
X88129Y116429*
X87889Y116529*
X87629Y116559*
G37*
G36*
X79629Y113919D02*
X79249D01*
Y113539*
X79459Y113699*
X79629Y113909*
Y113919*
G37*
G36*
X59309D02*
X58929D01*
Y113539*
X59139Y113699*
X59309Y113909*
Y113919*
G37*
G36*
X54229D02*
X53849D01*
Y113539*
X54059Y113699*
X54229Y113909*
Y113919*
G37*
G36*
X120269D02*
X119889D01*
Y113539*
X120099Y113699*
X120269Y113909*
Y113919*
G37*
G36*
X125349D02*
X124969D01*
Y113539*
X125179Y113699*
X125349Y113909*
Y113919*
G37*
G36*
X84709D02*
X84329D01*
Y113539*
X84539Y113699*
X84709Y113909*
Y113919*
G37*
G36*
X53339Y107829D02*
X53069Y107799D01*
X52829Y107689*
X52619Y107529*
X52449Y107319*
X52349Y107069*
X52319Y106809*
X52349Y106539*
X52449Y106289*
X52619Y106079*
X52829Y105919*
X53069Y105819*
X53339Y105779*
X53609Y105819*
X53849Y105919*
X54059Y106079*
X54229Y106289*
X54329Y106539*
X54359Y106809*
X54329Y107069*
X54229Y107319*
X54059Y107529*
X53849Y107689*
X53609Y107799*
X53339Y107829*
G37*
G36*
X124459Y105339D02*
X124179Y105299D01*
X123919Y105189*
X123779Y105079*
X120059*
X119919Y105189*
X119659Y105299*
X119379Y105339*
X119099Y105299*
X118839Y105189*
X118699Y105079*
X84499*
X84359Y105189*
X84099Y105299*
X83819Y105339*
X83539Y105299*
X83279Y105189*
X83139Y105079*
X79419*
X79279Y105189*
X79019Y105299*
X78739Y105339*
X78459Y105299*
X78199Y105189*
X78059Y105079*
X59099*
X58959Y105189*
X58699Y105299*
X58419Y105339*
X58139Y105299*
X57879Y105189*
X57739Y105079*
X54019*
X53879Y105189*
X53619Y105299*
X53339Y105339*
X53059Y105299*
X52799Y105189*
X52579Y105019*
X52409Y104799*
X52309Y104539*
X52269Y104269*
X52309Y103989*
X52409Y103729*
X52579Y103509*
X52799Y103339*
X53059Y103229*
X53339Y103199*
X53349*
X58409*
X58419*
X58429*
X77189*
X77219Y103139*
X77239Y103069*
X77189Y102989*
X77159Y102869*
Y99059*
X77189Y98939*
X77249Y98839*
X77349Y98779*
X77469Y98749*
X126999*
X127119Y98779*
X127219Y98839*
X127279Y98939*
X127309Y99059*
Y101599*
X127279Y101719*
X127219Y101819*
X125949Y103089*
X125849Y103149*
X125729Y103179*
X124929*
X124909Y103299*
X124999Y103339*
X125219Y103509*
X125389Y103729*
X125489Y103989*
X125529Y104269*
X125489Y104539*
X125389Y104799*
X125219Y105019*
X124999Y105189*
X124739Y105299*
X124459Y105339*
G37*
G36*
X58929Y102619D02*
Y102239D01*
X59309*
X59139Y102449*
X58929Y102609*
Y102619*
G37*
G36*
X83309Y106299D02*
X82929D01*
Y106289*
X83099Y106079*
X83309Y105919*
Y106299*
G37*
G36*
X78229D02*
X77849D01*
Y106289*
X78019Y106079*
X78229Y105919*
Y106299*
G37*
G36*
X57909D02*
X57529D01*
Y106289*
X57699Y106079*
X57909Y105919*
Y106299*
G37*
G36*
X53849Y102619D02*
Y102239D01*
X54229*
X54059Y102449*
X53849Y102609*
Y102619*
G37*
G36*
X54229Y101219D02*
X53849D01*
Y100839*
X54059Y100999*
X54229Y101209*
Y101219*
G37*
G36*
X57909D02*
X57529D01*
Y101209*
X57699Y100999*
X57909Y100839*
Y101219*
G37*
G36*
X52829D02*
X52449D01*
Y101209*
X52619Y100999*
X52829Y100839*
Y101219*
G37*
G36*
X57909Y102619D02*
Y102609D01*
X57699Y102449*
X57529Y102239*
X57909*
Y102619*
G37*
G36*
X52829D02*
Y102609D01*
X52619Y102449*
X52449Y102239*
X52829*
Y102619*
G37*
G36*
X59309Y101219D02*
X58929D01*
Y100839*
X59139Y100999*
X59309Y101209*
Y101219*
G37*
G36*
X83309Y107699D02*
Y107689D01*
X83099Y107529*
X82929Y107319*
X83309*
Y107699*
G37*
G36*
X78229D02*
Y107689D01*
X78019Y107529*
X77849Y107319*
X78229*
Y107699*
G37*
G36*
X57909D02*
Y107689D01*
X57699Y107529*
X57529Y107319*
X57909*
Y107699*
G37*
G36*
X58929D02*
Y107319D01*
X59309*
X59139Y107529*
X58929Y107689*
Y107699*
G37*
G36*
X123949D02*
Y107689D01*
X123739Y107529*
X123569Y107319*
X123949*
Y107699*
G37*
G36*
X118869D02*
Y107689D01*
X118659Y107529*
X118489Y107319*
X118869*
Y107699*
G37*
G36*
X120269Y106299D02*
X119889D01*
Y105919*
X120099Y106079*
X120269Y106289*
Y106299*
G37*
G36*
X59309D02*
X58929D01*
Y105919*
X59139Y106079*
X59309Y106289*
Y106299*
G37*
G36*
X123949D02*
X123569D01*
Y106289*
X123739Y106079*
X123949Y105919*
Y106299*
G37*
G36*
X118869D02*
X118489D01*
Y106289*
X118659Y106079*
X118869Y105919*
Y106299*
G37*
G36*
X125349D02*
X124969D01*
Y105919*
X125179Y106079*
X125349Y106289*
Y106299*
G37*
G36*
X84709D02*
X84329D01*
Y105919*
X84539Y106079*
X84709Y106289*
Y106299*
G37*
G36*
X79629D02*
X79249D01*
Y105919*
X79459Y106079*
X79629Y106289*
Y106299*
G37*
G36*
X123949Y115319D02*
Y115309D01*
X123739Y115149*
X123569Y114939*
Y114929*
X123949*
Y115319*
G37*
G36*
X130809Y120369D02*
X130549Y120339D01*
X130309Y120239*
X130109Y120079*
X129949Y119879*
X129849Y119639*
X129819Y119379*
X129849Y119119*
X129949Y118879*
X130109Y118679*
X130309Y118519*
X130549Y118419*
X130809Y118389*
X131069Y118419*
X131309Y118519*
X131509Y118679*
X131669Y118879*
X131769Y119119*
X131799Y119379*
X131769Y119639*
X131669Y119879*
X131509Y120079*
X131309Y120239*
X131069Y120339*
X130809Y120369*
G37*
G36*
X90169D02*
X89909Y120339D01*
X89669Y120239*
X89469Y120079*
X89309Y119879*
X89209Y119639*
X89179Y119379*
X89209Y119119*
X89309Y118879*
X89469Y118679*
X89669Y118519*
X89909Y118419*
X90169Y118389*
X90429Y118419*
X90669Y118519*
X90869Y118679*
X91029Y118879*
X91129Y119119*
X91159Y119379*
X91129Y119639*
X91029Y119879*
X90869Y120079*
X90669Y120239*
X90429Y120339*
X90169Y120369*
G37*
G36*
X124969Y117859D02*
Y117469D01*
X125349*
Y117479*
X125179Y117689*
X124969Y117849*
Y117859*
G37*
G36*
X78229Y118999D02*
X77849D01*
Y118989*
X78019Y118779*
X78229Y118619*
Y118999*
G37*
G36*
X57909D02*
X57529D01*
Y118989*
X57699Y118779*
X57909Y118619*
Y118999*
G37*
G36*
X52829D02*
X52449D01*
Y118989*
X52619Y118779*
X52829Y118619*
Y118999*
G37*
G36*
X119889Y117859D02*
Y117469D01*
X120269*
Y117479*
X120099Y117689*
X119889Y117849*
Y117859*
G37*
G36*
X53849D02*
Y117469D01*
X54229*
Y117479*
X54059Y117689*
X53849Y117849*
Y117859*
G37*
G36*
X83309D02*
Y117849D01*
X83099Y117689*
X82929Y117479*
Y117469*
X83309*
Y117859*
G37*
G36*
X78229D02*
Y117849D01*
X78019Y117689*
X77849Y117479*
Y117469*
X78229*
Y117859*
G37*
G36*
X84329D02*
Y117469D01*
X84709*
Y117479*
X84539Y117689*
X84329Y117849*
Y117859*
G37*
G36*
X79249D02*
Y117469D01*
X79629*
Y117479*
X79459Y117689*
X79249Y117849*
Y117859*
G37*
G36*
X58929D02*
Y117469D01*
X59309*
Y117479*
X59139Y117689*
X58929Y117849*
Y117859*
G37*
G36*
X52829Y120399D02*
Y120389D01*
X52619Y120229*
X52449Y120019*
Y120009*
X52829*
Y120399*
G37*
G36*
X120269Y118999D02*
X119889D01*
Y118619*
X120099Y118779*
X120269Y118989*
Y118999*
G37*
G36*
X125349D02*
X124969D01*
Y118619*
X125179Y118779*
X125349Y118989*
Y118999*
G37*
G36*
X83309Y120399D02*
Y120389D01*
X83099Y120229*
X82929Y120019*
Y120009*
X83309*
Y120399*
G37*
G36*
X78229D02*
Y120389D01*
X78019Y120229*
X77849Y120019*
Y120009*
X78229*
Y120399*
G37*
G36*
X57909D02*
Y120389D01*
X57699Y120229*
X57529Y120019*
Y120009*
X57909*
Y120399*
G37*
G36*
X84709Y118999D02*
X84329D01*
Y118619*
X84539Y118779*
X84709Y118989*
Y118999*
G37*
G36*
X123949D02*
X123569D01*
Y118989*
X123739Y118779*
X123949Y118619*
Y118999*
G37*
G36*
X83309D02*
X82929D01*
Y118989*
X83099Y118779*
X83309Y118619*
Y118999*
G37*
G36*
X118869D02*
X118489D01*
Y118989*
X118659Y118779*
X118869Y118619*
Y118999*
G37*
G36*
X79629D02*
X79249D01*
Y118619*
X79459Y118779*
X79629Y118989*
Y118999*
G37*
G36*
X59309D02*
X58929D01*
Y118619*
X59139Y118779*
X59309Y118989*
Y118999*
G37*
G36*
X54229D02*
X53849D01*
Y118619*
X54059Y118779*
X54229Y118989*
Y118999*
G37*
G36*
X57909Y116459D02*
X57529D01*
Y116449*
X57699Y116239*
X57909Y116079*
Y116459*
G37*
G36*
X52829D02*
X52449D01*
Y116449*
X52619Y116239*
X52829Y116079*
Y116459*
G37*
G36*
X130809Y117829D02*
X130549Y117799D01*
X130309Y117699*
X130109Y117539*
X129949Y117339*
X129849Y117099*
X129819Y116839*
X129849Y116579*
X129949Y116339*
X130109Y116139*
X130309Y115979*
X130549Y115879*
X130809Y115849*
X131069Y115879*
X131309Y115979*
X131509Y116139*
X131669Y116339*
X131769Y116579*
X131799Y116839*
X131769Y117099*
X131669Y117339*
X131509Y117539*
X131309Y117699*
X131069Y117799*
X130809Y117829*
G37*
G36*
X83309Y116459D02*
X82929D01*
Y116449*
X83099Y116239*
X83309Y116079*
Y116459*
G37*
G36*
X118869D02*
X118489D01*
Y116449*
X118659Y116239*
X118869Y116079*
Y116459*
G37*
G36*
X78229D02*
X77849D01*
Y116449*
X78019Y116239*
X78229Y116079*
Y116459*
G37*
G36*
X90169Y117829D02*
X89909Y117799D01*
X89669Y117699*
X89469Y117539*
X89309Y117339*
X89209Y117099*
X89179Y116839*
X89209Y116579*
X89309Y116339*
X89469Y116139*
X89669Y115979*
X89909Y115879*
X90169Y115849*
X90429Y115879*
X90669Y115979*
X90869Y116139*
X91029Y116339*
X91129Y116579*
X91159Y116839*
X91129Y117099*
X91029Y117339*
X90869Y117539*
X90669Y117699*
X90429Y117799*
X90169Y117829*
G37*
G36*
X79249Y115319D02*
Y114929D01*
X79629*
Y114939*
X79459Y115149*
X79249Y115309*
Y115319*
G37*
G36*
X58929D02*
Y114929D01*
X59309*
Y114939*
X59139Y115149*
X58929Y115309*
Y115319*
G37*
G36*
X53849D02*
Y114929D01*
X54229*
Y114939*
X54059Y115149*
X53849Y115309*
Y115319*
G37*
G36*
X124969D02*
Y114929D01*
X125349*
Y114939*
X125179Y115149*
X124969Y115309*
Y115319*
G37*
G36*
X119889D02*
Y114929D01*
X120269*
Y114939*
X120099Y115149*
X119889Y115309*
Y115319*
G37*
G36*
X84329D02*
Y114929D01*
X84709*
Y114939*
X84539Y115149*
X84329Y115309*
Y115319*
G37*
G36*
X118869Y117859D02*
Y117849D01*
X118659Y117689*
X118489Y117479*
Y117469*
X118869*
Y117859*
G37*
G36*
X124459Y125659D02*
X124179Y125619D01*
X123919Y125509*
X123699Y125339*
X123529Y125119*
X123429Y124859*
X123389Y124589*
X123429Y124309*
X123529Y124049*
X123699Y123829*
X123919Y123659*
X124179Y123549*
X124459Y123519*
X124719Y123549*
X126669Y121599*
Y120179*
X126709Y119999*
X126809Y119849*
X127659Y118999*
X127649Y118879*
X127569Y118809*
X127409Y118609*
X127309Y118369*
X127279Y118109*
X127309Y117849*
X127409Y117609*
X127569Y117409*
X127769Y117249*
X128009Y117149*
X128269Y117119*
X128529Y117149*
X128769Y117249*
X128969Y117409*
X129129Y117609*
X129229Y117849*
X129259Y118109*
X129229Y118369*
X129129Y118609*
X128969Y118809*
X128769Y118969*
X128729Y118989*
Y119039*
X128699Y119219*
X128599Y119369*
X128399Y119559*
X128449Y119679*
X128529Y119689*
X128769Y119789*
X128969Y119949*
X129129Y120149*
X129229Y120389*
X129259Y120649*
X129229Y120909*
X129129Y121149*
X128969Y121349*
X128769Y121509*
X128529Y121609*
X128269Y121639*
X128009Y121609*
X127769Y121509*
X127709Y121459*
X127589Y121519*
Y121789*
X127559Y121959*
X127459Y122109*
X125429Y124149*
X125489Y124309*
X125529Y124589*
X125489Y124859*
X125389Y125119*
X125219Y125339*
X124999Y125509*
X124739Y125619*
X124459Y125659*
G37*
G36*
X83819D02*
X83539Y125619D01*
X83279Y125509*
X83059Y125339*
X82889Y125119*
X82789Y124859*
X82749Y124589*
X82789Y124309*
X82889Y124049*
X83059Y123829*
X83279Y123659*
X83539Y123549*
X83819Y123519*
X84079Y123549*
X86029Y121599*
Y120179*
X86069Y119999*
X86169Y119849*
X87019Y118999*
X87009Y118879*
X86929Y118809*
X86769Y118609*
X86669Y118369*
X86639Y118109*
X86669Y117849*
X86769Y117609*
X86929Y117409*
X87129Y117249*
X87369Y117149*
X87629Y117119*
X87889Y117149*
X88129Y117249*
X88329Y117409*
X88489Y117609*
X88589Y117849*
X88619Y118109*
X88589Y118369*
X88489Y118609*
X88329Y118809*
X88129Y118969*
X88089Y118989*
Y119039*
X88059Y119219*
X87959Y119369*
X87759Y119559*
X87809Y119679*
X87889Y119689*
X88129Y119789*
X88329Y119949*
X88489Y120149*
X88589Y120389*
X88619Y120649*
X88589Y120909*
X88489Y121149*
X88329Y121349*
X88129Y121509*
X87889Y121609*
X87629Y121639*
X87369Y121609*
X87129Y121509*
X87069Y121459*
X86949Y121519*
Y121789*
X86919Y121959*
X86819Y122109*
X84789Y124149*
X84849Y124309*
X84889Y124589*
X84849Y124859*
X84749Y125119*
X84579Y125339*
X84359Y125509*
X84099Y125619*
X83819Y125659*
G37*
G36*
X57909Y117859D02*
Y117849D01*
X57699Y117689*
X57529Y117479*
Y117469*
X57909*
Y117859*
G37*
G36*
X52829D02*
Y117849D01*
X52619Y117689*
X52449Y117479*
Y117469*
X52829*
Y117859*
G37*
G36*
X123949D02*
Y117849D01*
X123739Y117689*
X123569Y117479*
Y117469*
X123949*
Y117859*
G37*
G36*
X120269Y116459D02*
X119889D01*
Y116079*
X120099Y116239*
X120269Y116449*
Y116459*
G37*
G36*
X59309D02*
X58929D01*
Y116079*
X59139Y116239*
X59309Y116449*
Y116459*
G37*
G36*
X54229D02*
X53849D01*
Y116079*
X54059Y116239*
X54229Y116449*
Y116459*
G37*
G36*
X123949D02*
X123569D01*
Y116449*
X123739Y116239*
X123949Y116079*
Y116459*
G37*
G36*
X125349D02*
X124969D01*
Y116079*
X125179Y116239*
X125349Y116449*
Y116459*
G37*
G36*
X84709D02*
X84329D01*
Y116079*
X84539Y116239*
X84709Y116449*
Y116459*
G37*
G36*
X79629D02*
X79249D01*
Y116079*
X79459Y116239*
X79629Y116449*
Y116459*
G37*
G36*
X53339Y163759D02*
X53059Y163719D01*
X52799Y163609*
X52579Y163439*
X52409Y163219*
X52309Y162959*
X52269Y162689*
X52309Y162409*
X52409Y162149*
X52579Y161929*
X52799Y161759*
X53059Y161649*
X53339Y161619*
X53619Y161649*
X53879Y161759*
X54099Y161929*
X54269Y162149*
X54369Y162409*
X54409Y162689*
X54369Y162959*
X54269Y163219*
X54099Y163439*
X53879Y163609*
X53619Y163719*
X53339Y163759*
G37*
G36*
X109609Y163239D02*
X107319D01*
Y160959*
X109609*
Y163239*
G37*
G36*
X68959D02*
X66679D01*
Y160959*
X68959*
Y163239*
G37*
G36*
X83819Y163759D02*
X83539Y163719D01*
X83279Y163609*
X83059Y163439*
X82889Y163219*
X82789Y162959*
X82749Y162689*
X82789Y162409*
X82889Y162149*
X83059Y161929*
X83279Y161759*
X83539Y161649*
X83819Y161619*
X84099Y161649*
X84359Y161759*
X84579Y161929*
X84749Y162149*
X84849Y162409*
X84889Y162689*
X84849Y162959*
X84749Y163219*
X84579Y163439*
X84359Y163609*
X84099Y163719*
X83819Y163759*
G37*
G36*
X78739D02*
X78459Y163719D01*
X78199Y163609*
X77979Y163439*
X77809Y163219*
X77709Y162959*
X77669Y162689*
X77709Y162409*
X77809Y162149*
X77979Y161929*
X78199Y161759*
X78459Y161649*
X78739Y161619*
X79019Y161649*
X79279Y161759*
X79499Y161929*
X79669Y162149*
X79769Y162409*
X79809Y162689*
X79769Y162959*
X79669Y163219*
X79499Y163439*
X79279Y163609*
X79019Y163719*
X78739Y163759*
G37*
G36*
X58419D02*
X58139Y163719D01*
X57879Y163609*
X57659Y163439*
X57489Y163219*
X57389Y162959*
X57349Y162689*
X57389Y162409*
X57489Y162149*
X57659Y161929*
X57879Y161759*
X58139Y161649*
X58419Y161619*
X58699Y161649*
X58959Y161759*
X59179Y161929*
X59349Y162149*
X59449Y162409*
X59489Y162689*
X59449Y162959*
X59349Y163219*
X59179Y163439*
X58959Y163609*
X58699Y163719*
X58419Y163759*
G37*
G36*
X124459Y161219D02*
X124179Y161179D01*
X123919Y161069*
X123699Y160899*
X123529Y160679*
X123429Y160419*
X123389Y160149*
X123429Y159869*
X123529Y159609*
X123699Y159389*
X123919Y159219*
X124179Y159109*
X124459Y159079*
X124739Y159109*
X124999Y159219*
X125219Y159389*
X125389Y159609*
X125489Y159869*
X125529Y160149*
X125489Y160419*
X125389Y160679*
X125219Y160899*
X124999Y161069*
X124739Y161179*
X124459Y161219*
G37*
G36*
X58419D02*
X58139Y161179D01*
X57879Y161069*
X57659Y160899*
X57489Y160679*
X57389Y160419*
X57349Y160149*
X57389Y159869*
X57489Y159609*
X57659Y159389*
X57879Y159219*
X58139Y159109*
X58419Y159079*
X58699Y159109*
X58959Y159219*
X59179Y159389*
X59349Y159609*
X59449Y159869*
X59489Y160149*
X59449Y160419*
X59349Y160679*
X59179Y160899*
X58959Y161069*
X58699Y161179*
X58419Y161219*
G37*
G36*
X53339D02*
X53059Y161179D01*
X52799Y161069*
X52579Y160899*
X52409Y160679*
X52309Y160419*
X52269Y160149*
X52309Y159869*
X52409Y159609*
X52579Y159389*
X52799Y159219*
X53059Y159109*
X53339Y159079*
X53619Y159109*
X53879Y159219*
X54099Y159389*
X54269Y159609*
X54369Y159869*
X54409Y160149*
X54369Y160419*
X54269Y160679*
X54099Y160899*
X53879Y161069*
X53619Y161179*
X53339Y161219*
G37*
G36*
X124459Y158679D02*
X124179Y158639D01*
X123919Y158529*
X123699Y158359*
X123529Y158139*
X123429Y157879*
X123389Y157609*
X123429Y157329*
X123529Y157069*
X123699Y156849*
X123919Y156679*
X124179Y156569*
X124459Y156539*
X124739Y156569*
X124999Y156679*
X125219Y156849*
X125389Y157069*
X125489Y157329*
X125529Y157609*
X125489Y157879*
X125389Y158139*
X125219Y158359*
X124999Y158529*
X124739Y158639*
X124459Y158679*
G37*
G36*
X119379Y161219D02*
X119099Y161179D01*
X118839Y161069*
X118619Y160899*
X118449Y160679*
X118349Y160419*
X118309Y160149*
X118349Y159869*
X118449Y159609*
X118619Y159389*
X118839Y159219*
X119099Y159109*
X119379Y159079*
X119659Y159109*
X119919Y159219*
X120139Y159389*
X120309Y159609*
X120409Y159869*
X120449Y160149*
X120409Y160419*
X120309Y160679*
X120139Y160899*
X119919Y161069*
X119659Y161179*
X119379Y161219*
G37*
G36*
X83819D02*
X83539Y161179D01*
X83279Y161069*
X83059Y160899*
X82889Y160679*
X82789Y160419*
X82749Y160149*
X82789Y159869*
X82889Y159609*
X83059Y159389*
X83279Y159219*
X83539Y159109*
X83819Y159079*
X84099Y159109*
X84359Y159219*
X84579Y159389*
X84749Y159609*
X84849Y159869*
X84889Y160149*
X84849Y160419*
X84749Y160679*
X84579Y160899*
X84359Y161069*
X84099Y161179*
X83819Y161219*
G37*
G36*
X78739D02*
X78459Y161179D01*
X78199Y161069*
X77979Y160899*
X77809Y160679*
X77709Y160419*
X77669Y160149*
X77709Y159869*
X77809Y159609*
X77979Y159389*
X78199Y159219*
X78459Y159109*
X78739Y159079*
X79019Y159109*
X79279Y159219*
X79499Y159389*
X79669Y159609*
X79769Y159869*
X79809Y160149*
X79769Y160419*
X79669Y160679*
X79499Y160899*
X79279Y161069*
X79019Y161179*
X78739Y161219*
G37*
G36*
X58419Y166299D02*
X58139Y166259D01*
X57879Y166149*
X57659Y165979*
X57489Y165759*
X57389Y165499*
X57349Y165229*
X57389Y164949*
X57489Y164689*
X57659Y164469*
X57879Y164299*
X58139Y164189*
X58419Y164159*
X58699Y164189*
X58959Y164299*
X59179Y164469*
X59349Y164689*
X59449Y164949*
X59489Y165229*
X59449Y165499*
X59349Y165759*
X59179Y165979*
X58959Y166149*
X58699Y166259*
X58419Y166299*
G37*
G36*
X53339D02*
X53059Y166259D01*
X52799Y166149*
X52579Y165979*
X52409Y165759*
X52309Y165499*
X52269Y165229*
X52309Y164949*
X52409Y164689*
X52579Y164469*
X52799Y164299*
X53059Y164189*
X53339Y164159*
X53619Y164189*
X53879Y164299*
X54099Y164469*
X54269Y164689*
X54369Y164949*
X54409Y165229*
X54369Y165499*
X54269Y165759*
X54099Y165979*
X53879Y166149*
X53619Y166259*
X53339Y166299*
G37*
G36*
X108459Y166019D02*
X108159Y165989D01*
X107879Y165869*
X107639Y165689*
X107459Y165449*
X107339Y165169*
X107309Y164869*
X107339Y164569*
X107459Y164289*
X107639Y164049*
X107879Y163869*
X108159Y163749*
X108459Y163719*
X108759Y163749*
X109039Y163869*
X109279Y164049*
X109459Y164289*
X109579Y164569*
X109609Y164869*
X109579Y165169*
X109459Y165449*
X109279Y165689*
X109039Y165869*
X108759Y165989*
X108459Y166019*
G37*
G36*
X91899Y167409D02*
X91599Y167369D01*
X91319Y167259*
X91079Y167069*
X90899Y166829*
X90779Y166549*
X90749Y166259*
X90779Y165959*
X90899Y165679*
X91079Y165439*
X91319Y165249*
X91599Y165139*
X91899Y165099*
X92199Y165139*
X92479Y165249*
X92719Y165439*
X92899Y165679*
X93019Y165959*
X93049Y166259*
X93019Y166549*
X92899Y166829*
X92719Y167069*
X92479Y167259*
X92199Y167369*
X91899Y167409*
G37*
G36*
X111299D02*
X110999Y167369D01*
X110719Y167259*
X110479Y167069*
X110299Y166829*
X110179Y166549*
X110149Y166259*
X110179Y165959*
X110299Y165679*
X110479Y165439*
X110719Y165249*
X110999Y165139*
X111299Y165099*
X111599Y165139*
X111879Y165249*
X112119Y165439*
X112299Y165679*
X112419Y165959*
X112449Y166259*
X112419Y166549*
X112299Y166829*
X112119Y167069*
X111879Y167259*
X111599Y167369*
X111299Y167409*
G37*
G36*
X70659D02*
X70359Y167369D01*
X70079Y167259*
X69839Y167069*
X69659Y166829*
X69539Y166549*
X69509Y166259*
X69539Y165959*
X69659Y165679*
X69839Y165439*
X70079Y165249*
X70359Y165139*
X70659Y165099*
X70959Y165139*
X71239Y165249*
X71479Y165439*
X71659Y165679*
X71779Y165959*
X71809Y166259*
X71779Y166549*
X71659Y166829*
X71479Y167069*
X71239Y167259*
X70959Y167369*
X70659Y167409*
G37*
G36*
X67819Y166019D02*
X67519Y165989D01*
X67239Y165869*
X66999Y165689*
X66819Y165449*
X66699Y165169*
X66669Y164869*
X66699Y164569*
X66819Y164289*
X66999Y164049*
X67239Y163869*
X67519Y163749*
X67819Y163719*
X68119Y163749*
X68399Y163869*
X68639Y164049*
X68819Y164289*
X68939Y164569*
X68969Y164869*
X68939Y165169*
X68819Y165449*
X68639Y165689*
X68399Y165869*
X68119Y165989*
X67819Y166019*
G37*
G36*
X70659Y164639D02*
X70359Y164599D01*
X70079Y164489*
X69839Y164299*
X69659Y164059*
X69539Y163779*
X69509Y163489*
X69539Y163189*
X69659Y162909*
X69839Y162669*
X70079Y162479*
X70359Y162369*
X70659Y162329*
X70959Y162369*
X71239Y162479*
X71479Y162669*
X71659Y162909*
X71779Y163189*
X71809Y163489*
X71779Y163779*
X71659Y164059*
X71479Y164299*
X71239Y164489*
X70959Y164599*
X70659Y164639*
G37*
G36*
X124459Y163759D02*
X124179Y163719D01*
X123919Y163609*
X123699Y163439*
X123529Y163219*
X123429Y162959*
X123389Y162689*
X123429Y162409*
X123529Y162149*
X123699Y161929*
X123919Y161759*
X124179Y161649*
X124459Y161619*
X124739Y161649*
X124999Y161759*
X125219Y161929*
X125389Y162149*
X125489Y162409*
X125529Y162689*
X125489Y162959*
X125389Y163219*
X125219Y163439*
X124999Y163609*
X124739Y163719*
X124459Y163759*
G37*
G36*
X119379D02*
X119099Y163719D01*
X118839Y163609*
X118619Y163439*
X118449Y163219*
X118349Y162959*
X118309Y162689*
X118349Y162409*
X118449Y162149*
X118619Y161929*
X118839Y161759*
X119099Y161649*
X119379Y161619*
X119659Y161649*
X119919Y161759*
X120139Y161929*
X120309Y162149*
X120409Y162409*
X120449Y162689*
X120409Y162959*
X120309Y163219*
X120139Y163439*
X119919Y163609*
X119659Y163719*
X119379Y163759*
G37*
G36*
X132539Y164639D02*
X132239Y164599D01*
X131959Y164489*
X131719Y164299*
X131539Y164059*
X131419Y163779*
X131389Y163489*
X131419Y163189*
X131539Y162909*
X131719Y162669*
X131959Y162479*
X132239Y162369*
X132539Y162329*
X132839Y162369*
X133119Y162479*
X133359Y162669*
X133539Y162909*
X133659Y163189*
X133689Y163489*
X133659Y163779*
X133539Y164059*
X133359Y164299*
X133119Y164489*
X132839Y164599*
X132539Y164639*
G37*
G36*
X91899D02*
X91599Y164599D01*
X91319Y164489*
X91079Y164299*
X90899Y164059*
X90779Y163779*
X90749Y163489*
X90779Y163189*
X90899Y162909*
X91079Y162669*
X91319Y162479*
X91599Y162369*
X91899Y162329*
X92199Y162369*
X92479Y162479*
X92719Y162669*
X92899Y162909*
X93019Y163189*
X93049Y163489*
X93019Y163779*
X92899Y164059*
X92719Y164299*
X92479Y164489*
X92199Y164599*
X91899Y164639*
G37*
G36*
X111299D02*
X110999Y164599D01*
X110719Y164489*
X110479Y164299*
X110299Y164059*
X110179Y163779*
X110149Y163489*
X110179Y163189*
X110299Y162909*
X110479Y162669*
X110719Y162479*
X110999Y162369*
X111299Y162329*
X111599Y162369*
X111879Y162479*
X112119Y162669*
X112299Y162909*
X112419Y163189*
X112449Y163489*
X112419Y163779*
X112299Y164059*
X112119Y164299*
X111879Y164489*
X111599Y164599*
X111299Y164639*
G37*
G36*
X119379Y153599D02*
X119099Y153559D01*
X118839Y153449*
X118619Y153279*
X118449Y153059*
X118349Y152799*
X118309Y152529*
X118349Y152249*
X118449Y151989*
X118619Y151769*
X118839Y151599*
X119099Y151489*
X119379Y151459*
X119659Y151489*
X119919Y151599*
X120139Y151769*
X120309Y151989*
X120409Y152249*
X120449Y152529*
X120409Y152799*
X120309Y153059*
X120139Y153279*
X119919Y153449*
X119659Y153559*
X119379Y153599*
G37*
G36*
X83819D02*
X83539Y153559D01*
X83279Y153449*
X83059Y153279*
X82889Y153059*
X82789Y152799*
X82749Y152529*
X82789Y152249*
X82889Y151989*
X83059Y151769*
X83279Y151599*
X83539Y151489*
X83819Y151459*
X84099Y151489*
X84359Y151599*
X84579Y151769*
X84749Y151989*
X84849Y152249*
X84889Y152529*
X84849Y152799*
X84749Y153059*
X84579Y153279*
X84359Y153449*
X84099Y153559*
X83819Y153599*
G37*
G36*
X78739D02*
X78459Y153559D01*
X78199Y153449*
X77979Y153279*
X77809Y153059*
X77709Y152799*
X77669Y152529*
X77709Y152249*
X77809Y151989*
X77979Y151769*
X78199Y151599*
X78459Y151489*
X78739Y151459*
X79019Y151489*
X79279Y151599*
X79499Y151769*
X79669Y151989*
X79769Y152249*
X79809Y152529*
X79769Y152799*
X79669Y153059*
X79499Y153279*
X79279Y153449*
X79019Y153559*
X78739Y153599*
G37*
G36*
X93319Y157829D02*
X92899Y157799D01*
X92489Y157699*
X92099Y157539*
X91739Y157319*
X91419Y157049*
X91149Y156729*
X90919Y156369*
X90759Y155979*
X90659Y155569*
X90629Y155149*
X90659Y154719*
X90759Y154309*
X90919Y153919*
X91149Y153559*
X91419Y153239*
X91739Y152969*
X92099Y152749*
X92489Y152589*
X92899Y152489*
X93319Y152459*
X93739Y152489*
X94149Y152589*
X94539Y152749*
X94899Y152969*
X95219Y153239*
X95489Y153559*
X95719Y153919*
X95879Y154309*
X95979Y154719*
X96009Y155149*
X95979Y155569*
X95879Y155979*
X95719Y156369*
X95489Y156729*
X95219Y157049*
X94899Y157319*
X94539Y157539*
X94149Y157699*
X93739Y157799*
X93319Y157829*
G37*
G36*
X69239D02*
X68819Y157799D01*
X68409Y157699*
X68019Y157539*
X67659Y157319*
X67339Y157049*
X67069Y156729*
X66839Y156369*
X66679Y155979*
X66579Y155569*
X66549Y155149*
X66579Y154719*
X66679Y154309*
X66839Y153919*
X67069Y153559*
X67339Y153239*
X67659Y152969*
X68019Y152749*
X68409Y152589*
X68819Y152489*
X69239Y152459*
X69659Y152489*
X70069Y152589*
X70459Y152749*
X70819Y152969*
X71139Y153239*
X71409Y153559*
X71639Y153919*
X71799Y154309*
X71899Y154719*
X71929Y155149*
X71899Y155569*
X71799Y155979*
X71639Y156369*
X71409Y156729*
X71139Y157049*
X70819Y157319*
X70459Y157539*
X70069Y157699*
X69659Y157799*
X69239Y157829*
G37*
G36*
X124459Y153599D02*
X124179Y153559D01*
X123919Y153449*
X123699Y153279*
X123529Y153059*
X123429Y152799*
X123389Y152529*
X123429Y152249*
X123529Y151989*
X123699Y151769*
X123919Y151599*
X124179Y151489*
X124459Y151459*
X124739Y151489*
X124999Y151599*
X125219Y151769*
X125389Y151989*
X125489Y152249*
X125529Y152529*
X125489Y152799*
X125389Y153059*
X125219Y153279*
X124999Y153449*
X124739Y153559*
X124459Y153599*
G37*
G36*
X58419D02*
X58139Y153559D01*
X57879Y153449*
X57659Y153279*
X57489Y153059*
X57389Y152799*
X57349Y152529*
X57389Y152249*
X57489Y151989*
X57659Y151769*
X57879Y151599*
X58139Y151489*
X58419Y151459*
X58699Y151489*
X58959Y151599*
X59179Y151769*
X59349Y151989*
X59449Y152249*
X59489Y152529*
X59449Y152799*
X59349Y153059*
X59179Y153279*
X58959Y153449*
X58699Y153559*
X58419Y153599*
G37*
G36*
X84329Y150879D02*
Y150489D01*
X84709*
Y150499*
X84539Y150709*
X84329Y150869*
Y150879*
G37*
G36*
X79249D02*
Y150489D01*
X79629*
Y150499*
X79459Y150709*
X79249Y150869*
Y150879*
G37*
G36*
X58929D02*
Y150489D01*
X59309*
Y150499*
X59139Y150709*
X58929Y150869*
Y150879*
G37*
G36*
X53339Y153599D02*
X53059Y153559D01*
X52799Y153449*
X52579Y153279*
X52409Y153059*
X52309Y152799*
X52269Y152529*
X52309Y152249*
X52409Y151989*
X52579Y151769*
X52799Y151599*
X53059Y151489*
X53339Y151459*
X53619Y151489*
X53879Y151599*
X54099Y151769*
X54269Y151989*
X54369Y152249*
X54409Y152529*
X54369Y152799*
X54269Y153059*
X54099Y153279*
X53879Y153449*
X53619Y153559*
X53339Y153599*
G37*
G36*
X124969Y150879D02*
Y150489D01*
X125349*
Y150499*
X125179Y150709*
X124969Y150869*
Y150879*
G37*
G36*
X119889D02*
Y150489D01*
X120269*
Y150499*
X120099Y150709*
X119889Y150869*
Y150879*
G37*
G36*
X58419Y158679D02*
X58139Y158639D01*
X57879Y158529*
X57659Y158359*
X57489Y158139*
X57389Y157879*
X57349Y157609*
X57389Y157329*
X57489Y157069*
X57659Y156849*
X57879Y156679*
X58139Y156569*
X58419Y156539*
X58699Y156569*
X58959Y156679*
X59179Y156849*
X59349Y157069*
X59449Y157329*
X59489Y157609*
X59449Y157879*
X59349Y158139*
X59179Y158359*
X58959Y158529*
X58699Y158639*
X58419Y158679*
G37*
G36*
X53339D02*
X53059Y158639D01*
X52799Y158529*
X52579Y158359*
X52409Y158139*
X52309Y157879*
X52269Y157609*
X52309Y157329*
X52409Y157069*
X52579Y156849*
X52799Y156679*
X53059Y156569*
X53339Y156539*
X53619Y156569*
X53879Y156679*
X54099Y156849*
X54269Y157069*
X54369Y157329*
X54409Y157609*
X54369Y157879*
X54269Y158139*
X54099Y158359*
X53879Y158529*
X53619Y158639*
X53339Y158679*
G37*
G36*
X124459Y156139D02*
X124179Y156099D01*
X123919Y155989*
X123699Y155819*
X123529Y155599*
X123429Y155339*
X123389Y155069*
X123429Y154789*
X123529Y154529*
X123699Y154309*
X123919Y154139*
X124179Y154029*
X124459Y153999*
X124739Y154029*
X124999Y154139*
X125219Y154309*
X125389Y154529*
X125489Y154789*
X125529Y155069*
X125489Y155339*
X125389Y155599*
X125219Y155819*
X124999Y155989*
X124739Y156099*
X124459Y156139*
G37*
G36*
X119379Y158679D02*
X119099Y158639D01*
X118839Y158529*
X118619Y158359*
X118449Y158139*
X118349Y157879*
X118309Y157609*
X118349Y157329*
X118449Y157069*
X118619Y156849*
X118839Y156679*
X119099Y156569*
X119379Y156539*
X119659Y156569*
X119919Y156679*
X120139Y156849*
X120309Y157069*
X120409Y157329*
X120449Y157609*
X120409Y157879*
X120309Y158139*
X120139Y158359*
X119919Y158529*
X119659Y158639*
X119379Y158679*
G37*
G36*
X83819D02*
X83539Y158639D01*
X83279Y158529*
X83059Y158359*
X82889Y158139*
X82789Y157879*
X82749Y157609*
X82789Y157329*
X82889Y157069*
X83059Y156849*
X83279Y156679*
X83539Y156569*
X83819Y156539*
X84099Y156569*
X84359Y156679*
X84579Y156849*
X84749Y157069*
X84849Y157329*
X84889Y157609*
X84849Y157879*
X84749Y158139*
X84579Y158359*
X84359Y158529*
X84099Y158639*
X83819Y158679*
G37*
G36*
X78739D02*
X78459Y158639D01*
X78199Y158529*
X77979Y158359*
X77809Y158139*
X77709Y157879*
X77669Y157609*
X77709Y157329*
X77809Y157069*
X77979Y156849*
X78199Y156679*
X78459Y156569*
X78739Y156539*
X79019Y156569*
X79279Y156679*
X79499Y156849*
X79669Y157069*
X79769Y157329*
X79809Y157609*
X79769Y157879*
X79669Y158139*
X79499Y158359*
X79279Y158529*
X79019Y158639*
X78739Y158679*
G37*
G36*
X119379Y156139D02*
X119099Y156099D01*
X118839Y155989*
X118619Y155819*
X118449Y155599*
X118349Y155339*
X118309Y155069*
X118349Y154789*
X118449Y154529*
X118619Y154309*
X118839Y154139*
X119099Y154029*
X119379Y153999*
X119659Y154029*
X119919Y154139*
X120139Y154309*
X120309Y154529*
X120409Y154789*
X120449Y155069*
X120409Y155339*
X120309Y155599*
X120139Y155819*
X119919Y155989*
X119659Y156099*
X119379Y156139*
G37*
G36*
X53339D02*
X53059Y156099D01*
X52799Y155989*
X52579Y155819*
X52409Y155599*
X52309Y155339*
X52269Y155069*
X52309Y154789*
X52409Y154529*
X52579Y154309*
X52799Y154139*
X53059Y154029*
X53339Y153999*
X53619Y154029*
X53879Y154139*
X54099Y154309*
X54269Y154529*
X54369Y154789*
X54409Y155069*
X54369Y155339*
X54269Y155599*
X54099Y155819*
X53879Y155989*
X53619Y156099*
X53339Y156139*
G37*
G36*
X133959Y157829D02*
X133539Y157799D01*
X133129Y157699*
X132739Y157539*
X132379Y157319*
X132059Y157049*
X131789Y156729*
X131559Y156369*
X131399Y155979*
X131299Y155569*
X131269Y155149*
X131299Y154719*
X131399Y154309*
X131559Y153919*
X131789Y153559*
X132059Y153239*
X132379Y152969*
X132739Y152749*
X133129Y152589*
X133539Y152489*
X133959Y152459*
X134379Y152489*
X134789Y152589*
X135179Y152749*
X135539Y152969*
X135859Y153239*
X136129Y153559*
X136359Y153919*
X136519Y154309*
X136619Y154719*
X136649Y155149*
X136619Y155569*
X136519Y155979*
X136359Y156369*
X136129Y156729*
X135859Y157049*
X135539Y157319*
X135179Y157539*
X134789Y157699*
X134379Y157799*
X133959Y157829*
G37*
G36*
X109879D02*
X109459Y157799D01*
X109049Y157699*
X108659Y157539*
X108299Y157319*
X107979Y157049*
X107709Y156729*
X107479Y156369*
X107319Y155979*
X107219Y155569*
X107189Y155149*
X107219Y154719*
X107319Y154309*
X107479Y153919*
X107709Y153559*
X107979Y153239*
X108299Y152969*
X108659Y152749*
X109049Y152589*
X109459Y152489*
X109879Y152459*
X110299Y152489*
X110709Y152589*
X111099Y152749*
X111459Y152969*
X111779Y153239*
X112049Y153559*
X112279Y153919*
X112439Y154309*
X112539Y154719*
X112569Y155149*
X112539Y155569*
X112439Y155979*
X112279Y156369*
X112049Y156729*
X111779Y157049*
X111459Y157319*
X111099Y157539*
X110709Y157699*
X110299Y157799*
X109879Y157829*
G37*
G36*
X83819Y156139D02*
X83539Y156099D01*
X83279Y155989*
X83059Y155819*
X82889Y155599*
X82789Y155339*
X82749Y155069*
X82789Y154789*
X82889Y154529*
X83059Y154309*
X83279Y154139*
X83539Y154029*
X83819Y153999*
X84099Y154029*
X84359Y154139*
X84579Y154309*
X84749Y154529*
X84849Y154789*
X84889Y155069*
X84849Y155339*
X84749Y155599*
X84579Y155819*
X84359Y155989*
X84099Y156099*
X83819Y156139*
G37*
G36*
X78739D02*
X78459Y156099D01*
X78199Y155989*
X77979Y155819*
X77809Y155599*
X77709Y155339*
X77669Y155069*
X77709Y154789*
X77809Y154529*
X77979Y154309*
X78199Y154139*
X78459Y154029*
X78739Y153999*
X79019Y154029*
X79279Y154139*
X79499Y154309*
X79669Y154529*
X79769Y154789*
X79809Y155069*
X79769Y155339*
X79669Y155599*
X79499Y155819*
X79279Y155989*
X79019Y156099*
X78739Y156139*
G37*
G36*
X58419D02*
X58139Y156099D01*
X57879Y155989*
X57659Y155819*
X57489Y155599*
X57389Y155339*
X57349Y155069*
X57389Y154789*
X57489Y154529*
X57659Y154309*
X57879Y154139*
X58139Y154029*
X58419Y153999*
X58699Y154029*
X58959Y154139*
X59179Y154309*
X59349Y154529*
X59449Y154789*
X59489Y155069*
X59449Y155339*
X59349Y155599*
X59179Y155819*
X58959Y155989*
X58699Y156099*
X58419Y156139*
G37*
G36*
X132539Y167409D02*
X132239Y167369D01*
X131959Y167259*
X131719Y167069*
X131539Y166829*
X131419Y166549*
X131389Y166259*
X131419Y165959*
X131539Y165679*
X131719Y165439*
X131959Y165249*
X132239Y165139*
X132539Y165099*
X132839Y165139*
X133119Y165249*
X133359Y165439*
X133539Y165679*
X133659Y165959*
X133689Y166259*
X133659Y166549*
X133539Y166829*
X133359Y167069*
X133119Y167259*
X132839Y167369*
X132539Y167409*
G37*
G36*
X124459Y176459D02*
X124179Y176419D01*
X123919Y176309*
X123699Y176139*
X123529Y175919*
X123429Y175659*
X123389Y175389*
X123429Y175109*
X123529Y174849*
X123699Y174629*
X123919Y174459*
X124179Y174349*
X124459Y174319*
X124739Y174349*
X124999Y174459*
X125219Y174629*
X125389Y174849*
X125489Y175109*
X125529Y175389*
X125489Y175659*
X125389Y175919*
X125219Y176139*
X124999Y176309*
X124739Y176419*
X124459Y176459*
G37*
G36*
X119379D02*
X119099Y176419D01*
X118839Y176309*
X118619Y176139*
X118449Y175919*
X118349Y175659*
X118309Y175389*
X118349Y175109*
X118449Y174849*
X118619Y174629*
X118839Y174459*
X119099Y174349*
X119379Y174319*
X119659Y174349*
X119919Y174459*
X120139Y174629*
X120309Y174849*
X120409Y175109*
X120449Y175389*
X120409Y175659*
X120309Y175919*
X120139Y176139*
X119919Y176309*
X119659Y176419*
X119379Y176459*
G37*
G36*
X83819D02*
X83539Y176419D01*
X83279Y176309*
X83059Y176139*
X82889Y175919*
X82789Y175659*
X82749Y175389*
X82789Y175109*
X82889Y174849*
X83059Y174629*
X83279Y174459*
X83539Y174349*
X83819Y174319*
X84099Y174349*
X84359Y174459*
X84579Y174629*
X84749Y174849*
X84849Y175109*
X84889Y175389*
X84849Y175659*
X84749Y175919*
X84579Y176139*
X84359Y176309*
X84099Y176419*
X83819Y176459*
G37*
G36*
X78739Y178999D02*
X78459Y178959D01*
X78199Y178849*
X77979Y178679*
X77809Y178459*
X77709Y178199*
X77669Y177929*
X77709Y177649*
X77809Y177389*
X77979Y177169*
X78199Y176999*
X78459Y176889*
X78739Y176859*
X79019Y176889*
X79279Y176999*
X79499Y177169*
X79669Y177389*
X79769Y177649*
X79809Y177929*
X79769Y178199*
X79669Y178459*
X79499Y178679*
X79279Y178849*
X79019Y178959*
X78739Y178999*
G37*
G36*
X58419D02*
X58139Y178959D01*
X57879Y178849*
X57659Y178679*
X57489Y178459*
X57389Y178199*
X57349Y177929*
X57389Y177649*
X57489Y177389*
X57659Y177169*
X57879Y176999*
X58139Y176889*
X58419Y176859*
X58699Y176889*
X58959Y176999*
X59179Y177169*
X59349Y177389*
X59449Y177649*
X59489Y177929*
X59449Y178199*
X59349Y178459*
X59179Y178679*
X58959Y178849*
X58699Y178959*
X58419Y178999*
G37*
G36*
X53339D02*
X53059Y178959D01*
X52799Y178849*
X52579Y178679*
X52409Y178459*
X52309Y178199*
X52269Y177929*
X52309Y177649*
X52409Y177389*
X52579Y177169*
X52799Y176999*
X53059Y176889*
X53339Y176859*
X53619Y176889*
X53879Y176999*
X54099Y177169*
X54269Y177389*
X54369Y177649*
X54409Y177929*
X54369Y178199*
X54269Y178459*
X54099Y178679*
X53879Y178849*
X53619Y178959*
X53339Y178999*
G37*
G36*
X78739Y176459D02*
X78459Y176419D01*
X78199Y176309*
X77979Y176139*
X77809Y175919*
X77709Y175659*
X77669Y175389*
X77709Y175109*
X77809Y174849*
X77979Y174629*
X78199Y174459*
X78459Y174349*
X78739Y174319*
X79019Y174349*
X79279Y174459*
X79499Y174629*
X79669Y174849*
X79769Y175109*
X79809Y175389*
X79769Y175659*
X79669Y175919*
X79499Y176139*
X79279Y176309*
X79019Y176419*
X78739Y176459*
G37*
G36*
X67819Y174329D02*
X67519Y174299D01*
X67239Y174179*
X66999Y173999*
X66819Y173759*
X66699Y173479*
X66669Y173179*
X66699Y172879*
X66819Y172599*
X66999Y172359*
X67239Y172179*
X67519Y172059*
X67819Y172029*
X68119Y172059*
X68399Y172179*
X68639Y172359*
X68819Y172599*
X68939Y172879*
X68969Y173179*
X68939Y173479*
X68819Y173759*
X68639Y173999*
X68399Y174179*
X68119Y174299*
X67819Y174329*
G37*
G36*
X124459Y173919D02*
X124179Y173879D01*
X123919Y173769*
X123699Y173599*
X123529Y173379*
X123429Y173119*
X123389Y172849*
X123429Y172569*
X123529Y172309*
X123699Y172089*
X123919Y171919*
X124179Y171809*
X124459Y171779*
X124739Y171809*
X124999Y171919*
X125219Y172089*
X125389Y172309*
X125489Y172569*
X125529Y172849*
X125489Y173119*
X125389Y173379*
X125219Y173599*
X124999Y173769*
X124739Y173879*
X124459Y173919*
G37*
G36*
X119379D02*
X119099Y173879D01*
X118839Y173769*
X118619Y173599*
X118449Y173379*
X118349Y173119*
X118309Y172849*
X118349Y172569*
X118449Y172309*
X118619Y172089*
X118839Y171919*
X119099Y171809*
X119379Y171779*
X119659Y171809*
X119919Y171919*
X120139Y172089*
X120309Y172309*
X120409Y172569*
X120449Y172849*
X120409Y173119*
X120309Y173379*
X120139Y173599*
X119919Y173769*
X119659Y173879*
X119379Y173919*
G37*
G36*
X58419Y176459D02*
X58139Y176419D01*
X57879Y176309*
X57659Y176139*
X57489Y175919*
X57389Y175659*
X57349Y175389*
X57389Y175109*
X57489Y174849*
X57659Y174629*
X57879Y174459*
X58139Y174349*
X58419Y174319*
X58699Y174349*
X58959Y174459*
X59179Y174629*
X59349Y174849*
X59449Y175109*
X59489Y175389*
X59449Y175659*
X59349Y175919*
X59179Y176139*
X58959Y176309*
X58699Y176419*
X58419Y176459*
G37*
G36*
X53339D02*
X53059Y176419D01*
X52799Y176309*
X52579Y176139*
X52409Y175919*
X52309Y175659*
X52269Y175389*
X52309Y175109*
X52409Y174849*
X52579Y174629*
X52799Y174459*
X53059Y174349*
X53339Y174319*
X53619Y174349*
X53879Y174459*
X54099Y174629*
X54269Y174849*
X54369Y175109*
X54409Y175389*
X54369Y175659*
X54269Y175919*
X54099Y176139*
X53879Y176309*
X53619Y176419*
X53339Y176459*
G37*
G36*
X108459Y174329D02*
X108159Y174299D01*
X107879Y174179*
X107639Y173999*
X107459Y173759*
X107339Y173479*
X107309Y173179*
X107339Y172879*
X107459Y172599*
X107639Y172359*
X107879Y172179*
X108159Y172059*
X108459Y172029*
X108759Y172059*
X109039Y172179*
X109279Y172359*
X109459Y172599*
X109579Y172879*
X109609Y173179*
X109579Y173479*
X109459Y173759*
X109279Y173999*
X109039Y174179*
X108759Y174299*
X108459Y174329*
G37*
G36*
X78739Y181539D02*
X78459Y181499D01*
X78199Y181389*
X77979Y181219*
X77809Y180999*
X77709Y180739*
X77669Y180469*
X77709Y180189*
X77809Y179929*
X77979Y179709*
X78199Y179539*
X78459Y179429*
X78739Y179399*
X79019Y179429*
X79279Y179539*
X79499Y179709*
X79669Y179929*
X79769Y180189*
X79809Y180469*
X79769Y180739*
X79669Y180999*
X79499Y181219*
X79279Y181389*
X79019Y181499*
X78739Y181539*
G37*
G36*
X58419D02*
X58139Y181499D01*
X57879Y181389*
X57659Y181219*
X57489Y180999*
X57389Y180739*
X57349Y180469*
X57389Y180189*
X57489Y179929*
X57659Y179709*
X57879Y179539*
X58139Y179429*
X58419Y179399*
X58699Y179429*
X58959Y179539*
X59179Y179709*
X59349Y179929*
X59449Y180189*
X59489Y180469*
X59449Y180739*
X59349Y180999*
X59179Y181219*
X58959Y181389*
X58699Y181499*
X58419Y181539*
G37*
G36*
X53339D02*
X53059Y181499D01*
X52799Y181389*
X52579Y181219*
X52409Y180999*
X52309Y180739*
X52269Y180469*
X52309Y180189*
X52409Y179929*
X52579Y179709*
X52799Y179539*
X53059Y179429*
X53339Y179399*
X53619Y179429*
X53879Y179539*
X54099Y179709*
X54269Y179929*
X54369Y180189*
X54409Y180469*
X54369Y180739*
X54269Y180999*
X54099Y181219*
X53879Y181389*
X53619Y181499*
X53339Y181539*
G37*
G36*
X124459D02*
X124179Y181499D01*
X123919Y181389*
X123699Y181219*
X123529Y180999*
X123429Y180739*
X123389Y180469*
X123429Y180189*
X123529Y179929*
X123699Y179709*
X123919Y179539*
X124179Y179429*
X124459Y179399*
X124739Y179429*
X124999Y179539*
X125219Y179709*
X125389Y179929*
X125489Y180189*
X125529Y180469*
X125489Y180739*
X125389Y180999*
X125219Y181219*
X124999Y181389*
X124739Y181499*
X124459Y181539*
G37*
G36*
X119379D02*
X119099Y181499D01*
X118839Y181389*
X118619Y181219*
X118449Y180999*
X118349Y180739*
X118309Y180469*
X118349Y180189*
X118449Y179929*
X118619Y179709*
X118839Y179539*
X119099Y179429*
X119379Y179399*
X119659Y179429*
X119919Y179539*
X120139Y179709*
X120309Y179929*
X120409Y180189*
X120449Y180469*
X120409Y180739*
X120309Y180999*
X120139Y181219*
X119919Y181389*
X119659Y181499*
X119379Y181539*
G37*
G36*
X83819D02*
X83539Y181499D01*
X83279Y181389*
X83059Y181219*
X82889Y180999*
X82789Y180739*
X82749Y180469*
X82789Y180189*
X82889Y179929*
X83059Y179709*
X83279Y179539*
X83539Y179429*
X83819Y179399*
X84099Y179429*
X84359Y179539*
X84579Y179709*
X84749Y179929*
X84849Y180189*
X84889Y180469*
X84849Y180739*
X84749Y180999*
X84579Y181219*
X84359Y181389*
X84099Y181499*
X83819Y181539*
G37*
G36*
X133959Y182819D02*
X133539Y182789D01*
X133129Y182689*
X132739Y182529*
X132379Y182309*
X132059Y182039*
X131789Y181719*
X131559Y181359*
X131399Y180969*
X131299Y180559*
X131269Y180129*
X131299Y179709*
X131399Y179299*
X131559Y178909*
X131789Y178549*
X132059Y178229*
X132379Y177959*
X132739Y177739*
X133129Y177579*
X133539Y177479*
X133959Y177449*
X134379Y177479*
X134789Y177579*
X135179Y177739*
X135539Y177959*
X135859Y178229*
X136129Y178549*
X136359Y178909*
X136519Y179299*
X136619Y179709*
X136649Y180129*
X136619Y180559*
X136519Y180969*
X136359Y181359*
X136129Y181719*
X135859Y182039*
X135539Y182309*
X135179Y182529*
X134789Y182689*
X134379Y182789*
X133959Y182819*
G37*
G36*
X124459Y178999D02*
X124179Y178959D01*
X123919Y178849*
X123699Y178679*
X123529Y178459*
X123429Y178199*
X123389Y177929*
X123429Y177649*
X123529Y177389*
X123699Y177169*
X123919Y176999*
X124179Y176889*
X124459Y176859*
X124739Y176889*
X124999Y176999*
X125219Y177169*
X125389Y177389*
X125489Y177649*
X125529Y177929*
X125489Y178199*
X125389Y178459*
X125219Y178679*
X124999Y178849*
X124739Y178959*
X124459Y178999*
G37*
G36*
X119379D02*
X119099Y178959D01*
X118839Y178849*
X118619Y178679*
X118449Y178459*
X118349Y178199*
X118309Y177929*
X118349Y177649*
X118449Y177389*
X118619Y177169*
X118839Y176999*
X119099Y176889*
X119379Y176859*
X119659Y176889*
X119919Y176999*
X120139Y177169*
X120309Y177389*
X120409Y177649*
X120449Y177929*
X120409Y178199*
X120309Y178459*
X120139Y178679*
X119919Y178849*
X119659Y178959*
X119379Y178999*
G37*
G36*
X83819D02*
X83539Y178959D01*
X83279Y178849*
X83059Y178679*
X82889Y178459*
X82789Y178199*
X82749Y177929*
X82789Y177649*
X82889Y177389*
X83059Y177169*
X83279Y176999*
X83539Y176889*
X83819Y176859*
X84099Y176889*
X84359Y176999*
X84579Y177169*
X84749Y177389*
X84849Y177649*
X84889Y177929*
X84849Y178199*
X84749Y178459*
X84579Y178679*
X84359Y178849*
X84099Y178959*
X83819Y178999*
G37*
G36*
X109879Y182819D02*
X109459Y182789D01*
X109049Y182689*
X108659Y182529*
X108299Y182309*
X107979Y182039*
X107709Y181719*
X107479Y181359*
X107319Y180969*
X107219Y180559*
X107189Y180129*
X107219Y179709*
X107319Y179299*
X107479Y178909*
X107709Y178549*
X107979Y178229*
X108299Y177959*
X108659Y177739*
X109049Y177579*
X109459Y177479*
X109879Y177449*
X110299Y177479*
X110709Y177579*
X111099Y177739*
X111459Y177959*
X111779Y178229*
X112049Y178549*
X112279Y178909*
X112439Y179299*
X112539Y179709*
X112569Y180129*
X112539Y180559*
X112439Y180969*
X112279Y181359*
X112049Y181719*
X111779Y182039*
X111459Y182309*
X111099Y182529*
X110709Y182689*
X110299Y182789*
X109879Y182819*
G37*
G36*
X93319D02*
X92899Y182789D01*
X92489Y182689*
X92099Y182529*
X91739Y182309*
X91419Y182039*
X91149Y181719*
X90919Y181359*
X90759Y180969*
X90659Y180559*
X90629Y180129*
X90659Y179709*
X90759Y179299*
X90919Y178909*
X91149Y178549*
X91419Y178229*
X91739Y177959*
X92099Y177739*
X92489Y177579*
X92899Y177479*
X93319Y177449*
X93739Y177479*
X94149Y177579*
X94539Y177739*
X94899Y177959*
X95219Y178229*
X95489Y178549*
X95719Y178909*
X95879Y179299*
X95979Y179709*
X96009Y180129*
X95979Y180559*
X95879Y180969*
X95719Y181359*
X95489Y181719*
X95219Y182039*
X94899Y182309*
X94539Y182529*
X94149Y182689*
X93739Y182789*
X93319Y182819*
G37*
G36*
X69239D02*
X68819Y182789D01*
X68409Y182689*
X68019Y182529*
X67659Y182309*
X67339Y182039*
X67069Y181719*
X66839Y181359*
X66679Y180969*
X66579Y180559*
X66549Y180129*
X66579Y179709*
X66679Y179299*
X66839Y178909*
X67069Y178549*
X67339Y178229*
X67659Y177959*
X68019Y177739*
X68409Y177579*
X68819Y177479*
X69239Y177449*
X69659Y177479*
X70069Y177579*
X70459Y177739*
X70819Y177959*
X71139Y178229*
X71409Y178549*
X71639Y178909*
X71799Y179299*
X71899Y179709*
X71929Y180129*
X71899Y180559*
X71799Y180969*
X71639Y181359*
X71409Y181719*
X71139Y182039*
X70819Y182309*
X70459Y182529*
X70069Y182689*
X69659Y182789*
X69239Y182819*
G37*
G36*
X111299Y170179D02*
X110999Y170139D01*
X110719Y170029*
X110479Y169839*
X110299Y169599*
X110179Y169319*
X110149Y169019*
X110179Y168729*
X110299Y168449*
X110479Y168209*
X110719Y168019*
X110999Y167909*
X111299Y167869*
X111599Y167909*
X111879Y168019*
X112119Y168209*
X112299Y168449*
X112419Y168729*
X112449Y169019*
X112419Y169319*
X112299Y169599*
X112119Y169839*
X111879Y170029*
X111599Y170139*
X111299Y170179*
G37*
G36*
X70659D02*
X70359Y170139D01*
X70079Y170029*
X69839Y169839*
X69659Y169599*
X69539Y169319*
X69509Y169019*
X69539Y168729*
X69659Y168449*
X69839Y168209*
X70079Y168019*
X70359Y167909*
X70659Y167869*
X70959Y167909*
X71239Y168019*
X71479Y168209*
X71659Y168449*
X71779Y168729*
X71809Y169019*
X71779Y169319*
X71659Y169599*
X71479Y169839*
X71239Y170029*
X70959Y170139*
X70659Y170179*
G37*
G36*
X58419Y168839D02*
X58139Y168799D01*
X57879Y168689*
X57659Y168519*
X57489Y168299*
X57389Y168039*
X57349Y167769*
X57389Y167489*
X57489Y167229*
X57659Y167009*
X57879Y166839*
X58139Y166729*
X58419Y166699*
X58699Y166729*
X58959Y166839*
X59179Y167009*
X59349Y167229*
X59449Y167489*
X59489Y167769*
X59449Y168039*
X59349Y168299*
X59179Y168519*
X58959Y168689*
X58699Y168799*
X58419Y168839*
G37*
G36*
X53339Y171379D02*
X53059Y171339D01*
X52799Y171229*
X52579Y171059*
X52409Y170839*
X52309Y170579*
X52269Y170309*
X52309Y170029*
X52409Y169769*
X52579Y169549*
X52799Y169379*
X53059Y169269*
X53339Y169239*
X53619Y169269*
X53879Y169379*
X54099Y169549*
X54269Y169769*
X54369Y170029*
X54409Y170309*
X54369Y170579*
X54269Y170839*
X54099Y171059*
X53879Y171229*
X53619Y171339*
X53339Y171379*
G37*
G36*
X132539Y170179D02*
X132239Y170139D01*
X131959Y170029*
X131719Y169839*
X131539Y169599*
X131419Y169319*
X131389Y169019*
X131419Y168729*
X131539Y168449*
X131719Y168209*
X131959Y168019*
X132239Y167909*
X132539Y167869*
X132839Y167909*
X133119Y168019*
X133359Y168209*
X133539Y168449*
X133659Y168729*
X133689Y169019*
X133659Y169319*
X133539Y169599*
X133359Y169839*
X133119Y170029*
X132839Y170139*
X132539Y170179*
G37*
G36*
X91899D02*
X91599Y170139D01*
X91319Y170029*
X91079Y169839*
X90899Y169599*
X90779Y169319*
X90749Y169019*
X90779Y168729*
X90899Y168449*
X91079Y168209*
X91319Y168019*
X91599Y167909*
X91899Y167869*
X92199Y167909*
X92479Y168019*
X92719Y168209*
X92899Y168449*
X93019Y168729*
X93049Y169019*
X93019Y169319*
X92899Y169599*
X92719Y169839*
X92479Y170029*
X92199Y170139*
X91899Y170179*
G37*
G36*
X53339Y168839D02*
X53059Y168799D01*
X52799Y168689*
X52579Y168519*
X52409Y168299*
X52309Y168039*
X52269Y167769*
X52309Y167489*
X52409Y167229*
X52579Y167009*
X52799Y166839*
X53059Y166729*
X53339Y166699*
X53619Y166729*
X53879Y166839*
X54099Y167009*
X54269Y167229*
X54369Y167489*
X54409Y167769*
X54369Y168039*
X54269Y168299*
X54099Y168519*
X53879Y168689*
X53619Y168799*
X53339Y168839*
G37*
G36*
X67819Y168789D02*
X67519Y168759D01*
X67239Y168639*
X66999Y168459*
X66819Y168219*
X66699Y167939*
X66669Y167639*
X66699Y167339*
X66819Y167059*
X66999Y166819*
X67239Y166639*
X67519Y166519*
X67819Y166489*
X68119Y166519*
X68399Y166639*
X68639Y166819*
X68819Y167059*
X68939Y167339*
X68969Y167639*
X68939Y167939*
X68819Y168219*
X68639Y168459*
X68399Y168639*
X68119Y168759*
X67819Y168789*
G37*
G36*
X124459Y166299D02*
X124179Y166259D01*
X123959Y166169*
X119879*
X119659Y166259*
X119379Y166299*
X119099Y166259*
X118839Y166149*
X118619Y165979*
X118449Y165759*
X118349Y165499*
X118309Y165229*
X118319Y165159*
X118309Y165099*
X118349Y164819*
X118449Y164559*
X118619Y164339*
X118839Y164169*
X119099Y164069*
X119379Y164029*
X125289*
X130049Y159259*
X130269Y159089*
X130529Y158989*
X130809Y158949*
X133299*
X133579Y158989*
X133839Y159089*
X134059Y159259*
X135849Y161059*
X135959Y161099*
X136199Y161279*
X136379Y161519*
X136499Y161799*
X136529Y162099*
X136499Y162399*
X136449Y162509*
Y164459*
X136499Y164569*
X136529Y164869*
X136499Y165169*
X136379Y165449*
X136199Y165689*
X135959Y165869*
X135679Y165989*
X135379Y166019*
X135079Y165989*
X134799Y165869*
X134559Y165689*
X134379Y165449*
X134259Y165169*
X134229Y164869*
X134259Y164569*
X134309Y164459*
Y162539*
X132859Y161089*
X131249*
X126489Y165859*
X126269Y166029*
X126009Y166129*
X125729Y166169*
X124959*
X124739Y166259*
X124459Y166299*
G37*
G36*
X83819D02*
X83539Y166259D01*
X83319Y166169*
X79239*
X79019Y166259*
X78739Y166299*
X78459Y166259*
X78199Y166149*
X77979Y165979*
X77809Y165759*
X77709Y165499*
X77669Y165229*
X77679Y165159*
X77669Y165099*
X77709Y164819*
X77809Y164559*
X77979Y164339*
X78199Y164169*
X78459Y164069*
X78739Y164029*
X84649*
X89409Y159259*
X89629Y159089*
X89889Y158989*
X90169Y158949*
X92659*
X92939Y158989*
X93199Y159089*
X93419Y159259*
X95209Y161059*
X95319Y161099*
X95559Y161279*
X95739Y161519*
X95859Y161799*
X95889Y162099*
X95859Y162399*
X95809Y162509*
Y164459*
X95859Y164569*
X95889Y164869*
X95859Y165169*
X95739Y165449*
X95559Y165689*
X95319Y165869*
X95039Y165989*
X94739Y166019*
X94439Y165989*
X94159Y165869*
X93919Y165689*
X93739Y165449*
X93619Y165169*
X93589Y164869*
X93619Y164569*
X93669Y164459*
Y162539*
X92219Y161089*
X90609*
X85849Y165859*
X85629Y166029*
X85369Y166129*
X85089Y166169*
X84319*
X84099Y166259*
X83819Y166299*
G37*
G36*
X135379Y168789D02*
X135079Y168759D01*
X134799Y168639*
X134559Y168459*
X134379Y168219*
X134259Y167939*
X134229Y167639*
X134259Y167339*
X134379Y167059*
X134559Y166819*
X134799Y166639*
X135079Y166519*
X135379Y166489*
X135679Y166519*
X135959Y166639*
X136199Y166819*
X136379Y167059*
X136499Y167339*
X136529Y167639*
X136499Y167939*
X136379Y168219*
X136199Y168459*
X135959Y168639*
X135679Y168759*
X135379Y168789*
G37*
G36*
X94739D02*
X94439Y168759D01*
X94159Y168639*
X93919Y168459*
X93739Y168219*
X93619Y167939*
X93589Y167639*
X93619Y167339*
X93739Y167059*
X93919Y166819*
X94159Y166639*
X94439Y166519*
X94739Y166489*
X95039Y166519*
X95319Y166639*
X95559Y166819*
X95739Y167059*
X95859Y167339*
X95889Y167639*
X95859Y167939*
X95739Y168219*
X95559Y168459*
X95319Y168639*
X95039Y168759*
X94739Y168789*
G37*
G36*
X108459D02*
X108159Y168759D01*
X107879Y168639*
X107639Y168459*
X107459Y168219*
X107339Y167939*
X107309Y167639*
X107339Y167339*
X107459Y167059*
X107639Y166819*
X107879Y166639*
X108159Y166519*
X108459Y166489*
X108759Y166519*
X109039Y166639*
X109279Y166819*
X109459Y167059*
X109579Y167339*
X109609Y167639*
X109579Y167939*
X109459Y168219*
X109279Y168459*
X109039Y168639*
X108759Y168759*
X108459Y168789*
G37*
G36*
X53339Y173919D02*
X53059Y173879D01*
X52799Y173769*
X52579Y173599*
X52409Y173379*
X52309Y173119*
X52269Y172849*
X52309Y172569*
X52409Y172309*
X52579Y172089*
X52799Y171919*
X53059Y171809*
X53339Y171779*
X53619Y171809*
X53879Y171919*
X54099Y172089*
X54269Y172309*
X54369Y172569*
X54409Y172849*
X54369Y173119*
X54269Y173379*
X54099Y173599*
X53879Y173769*
X53619Y173879*
X53339Y173919*
G37*
G36*
X132539Y172949D02*
X132239Y172909D01*
X131959Y172799*
X131719Y172609*
X131539Y172369*
X131419Y172089*
X131389Y171789*
X131419Y171499*
X131539Y171219*
X131719Y170979*
X131959Y170789*
X132239Y170679*
X132539Y170639*
X132839Y170679*
X133119Y170789*
X133359Y170979*
X133539Y171219*
X133659Y171499*
X133689Y171789*
X133659Y172089*
X133539Y172369*
X133359Y172609*
X133119Y172799*
X132839Y172909*
X132539Y172949*
G37*
G36*
X91899D02*
X91599Y172909D01*
X91319Y172799*
X91079Y172609*
X90899Y172369*
X90779Y172089*
X90749Y171789*
X90779Y171499*
X90899Y171219*
X91079Y170979*
X91319Y170789*
X91599Y170679*
X91899Y170639*
X92199Y170679*
X92479Y170789*
X92719Y170979*
X92899Y171219*
X93019Y171499*
X93049Y171789*
X93019Y172089*
X92899Y172369*
X92719Y172609*
X92479Y172799*
X92199Y172909*
X91899Y172949*
G37*
G36*
X83819Y173919D02*
X83539Y173879D01*
X83279Y173769*
X83059Y173599*
X82889Y173379*
X82789Y173119*
X82749Y172849*
X82789Y172569*
X82889Y172309*
X83059Y172089*
X83279Y171919*
X83539Y171809*
X83819Y171779*
X84099Y171809*
X84359Y171919*
X84579Y172089*
X84749Y172309*
X84849Y172569*
X84889Y172849*
X84849Y173119*
X84749Y173379*
X84579Y173599*
X84359Y173769*
X84099Y173879*
X83819Y173919*
G37*
G36*
X78739D02*
X78459Y173879D01*
X78199Y173769*
X77979Y173599*
X77809Y173379*
X77709Y173119*
X77669Y172849*
X77709Y172569*
X77809Y172309*
X77979Y172089*
X78199Y171919*
X78459Y171809*
X78739Y171779*
X79019Y171809*
X79279Y171919*
X79499Y172089*
X79669Y172309*
X79769Y172569*
X79809Y172849*
X79769Y173119*
X79669Y173379*
X79499Y173599*
X79279Y173769*
X79019Y173879*
X78739Y173919*
G37*
G36*
X58419D02*
X58139Y173879D01*
X57879Y173769*
X57659Y173599*
X57489Y173379*
X57389Y173119*
X57349Y172849*
X57389Y172569*
X57489Y172309*
X57659Y172089*
X57879Y171919*
X58139Y171809*
X58419Y171779*
X58699Y171809*
X58959Y171919*
X59179Y172089*
X59349Y172309*
X59449Y172569*
X59489Y172849*
X59449Y173119*
X59349Y173379*
X59179Y173599*
X58959Y173769*
X58699Y173879*
X58419Y173919*
G37*
G36*
X111299Y172949D02*
X110999Y172909D01*
X110719Y172799*
X110479Y172609*
X110299Y172369*
X110179Y172089*
X110149Y171789*
X110179Y171499*
X110299Y171219*
X110479Y170979*
X110719Y170789*
X110999Y170679*
X111299Y170639*
X111599Y170679*
X111879Y170789*
X112119Y170979*
X112299Y171219*
X112419Y171499*
X112449Y171789*
X112419Y172089*
X112299Y172369*
X112119Y172609*
X111879Y172799*
X111599Y172909*
X111299Y172949*
G37*
G36*
X108459Y171559D02*
X108159Y171529D01*
X107879Y171409*
X107639Y171229*
X107459Y170989*
X107339Y170709*
X107309Y170409*
X107339Y170109*
X107459Y169829*
X107639Y169589*
X107879Y169409*
X108159Y169289*
X108459Y169259*
X108759Y169289*
X109039Y169409*
X109279Y169589*
X109459Y169829*
X109579Y170109*
X109609Y170409*
X109579Y170709*
X109459Y170989*
X109279Y171229*
X109039Y171409*
X108759Y171529*
X108459Y171559*
G37*
G36*
X67819D02*
X67519Y171529D01*
X67239Y171409*
X66999Y171229*
X66819Y170989*
X66699Y170709*
X66669Y170409*
X66699Y170109*
X66819Y169829*
X66999Y169589*
X67239Y169409*
X67519Y169289*
X67819Y169259*
X68119Y169289*
X68399Y169409*
X68639Y169589*
X68819Y169829*
X68939Y170109*
X68969Y170409*
X68939Y170709*
X68819Y170989*
X68639Y171229*
X68399Y171409*
X68119Y171529*
X67819Y171559*
G37*
G36*
X58419Y171379D02*
X58139Y171339D01*
X57879Y171229*
X57659Y171059*
X57489Y170839*
X57389Y170579*
X57349Y170309*
X57389Y170029*
X57489Y169769*
X57659Y169549*
X57879Y169379*
X58139Y169269*
X58419Y169239*
X58699Y169269*
X58959Y169379*
X59179Y169549*
X59349Y169769*
X59449Y170029*
X59489Y170309*
X59449Y170579*
X59349Y170839*
X59179Y171059*
X58959Y171229*
X58699Y171339*
X58419Y171379*
G37*
G36*
X70659Y172949D02*
X70359Y172909D01*
X70079Y172799*
X69839Y172609*
X69659Y172369*
X69539Y172089*
X69509Y171789*
X69539Y171499*
X69659Y171219*
X69839Y170979*
X70079Y170789*
X70359Y170679*
X70659Y170639*
X70959Y170679*
X71239Y170789*
X71479Y170979*
X71659Y171219*
X71779Y171499*
X71809Y171789*
X71779Y172089*
X71659Y172369*
X71479Y172609*
X71239Y172799*
X70959Y172909*
X70659Y172949*
G37*
G36*
X133299Y176329D02*
X130809D01*
X130529Y176289*
X130269Y176189*
X130049Y176019*
X125289Y171249*
X124959*
X124739Y171339*
X124459Y171379*
X124179Y171339*
X123959Y171249*
X119879*
X119659Y171339*
X119379Y171379*
X119099Y171339*
X118839Y171229*
X118619Y171059*
X118449Y170839*
X118349Y170579*
X118309Y170309*
X118319Y170239*
X118309Y170179*
Y167639*
X118349Y167359*
X118449Y167099*
X118619Y166879*
X118839Y166709*
X119099Y166609*
X119379Y166569*
X124459*
X124739Y166609*
X124999Y166709*
X125219Y166879*
X125389Y167099*
X125489Y167359*
X125529Y167639*
X125519Y167699*
X125529Y167769*
X125489Y168039*
X125389Y168299*
X125219Y168519*
X124999Y168689*
X124739Y168799*
X124459Y168839*
X124179Y168799*
X123959Y168709*
X120449*
Y169109*
X125729*
X126009Y169149*
X126269Y169249*
X126489Y169419*
X131249Y174189*
X132859*
X134239Y172809*
Y172039*
X134309*
Y170819*
X134259Y170709*
X134229Y170409*
X134259Y170109*
X134379Y169829*
X134559Y169589*
X134799Y169409*
X135079Y169289*
X135379Y169259*
X135679Y169289*
X135959Y169409*
X136199Y169589*
X136379Y169829*
X136499Y170109*
X136529Y170409*
X136499Y170709*
X136449Y170819*
Y172039*
X136519*
Y174319*
X135749*
X134059Y176019*
X133839Y176189*
X133579Y176289*
X133299Y176329*
G37*
G36*
X92659D02*
X90169D01*
X89889Y176289*
X89629Y176189*
X89409Y176019*
X84649Y171249*
X84319*
X84099Y171339*
X83819Y171379*
X83539Y171339*
X83319Y171249*
X79239*
X79019Y171339*
X78739Y171379*
X78459Y171339*
X78199Y171229*
X77979Y171059*
X77809Y170839*
X77709Y170579*
X77669Y170309*
X77679Y170239*
X77669Y170179*
Y167639*
X77709Y167359*
X77809Y167099*
X77979Y166879*
X78199Y166709*
X78459Y166609*
X78739Y166569*
X83819*
X84099Y166609*
X84359Y166709*
X84579Y166879*
X84749Y167099*
X84849Y167359*
X84889Y167639*
X84879Y167699*
X84889Y167769*
X84849Y168039*
X84749Y168299*
X84579Y168519*
X84359Y168689*
X84099Y168799*
X83819Y168839*
X83539Y168799*
X83319Y168709*
X79809*
Y169109*
X85089*
X85369Y169149*
X85629Y169249*
X85849Y169419*
X90609Y174189*
X92219*
X93599Y172809*
Y172039*
X93669*
Y170819*
X93619Y170709*
X93589Y170409*
X93619Y170109*
X93739Y169829*
X93919Y169589*
X94159Y169409*
X94439Y169289*
X94739Y169259*
X95039Y169289*
X95319Y169409*
X95559Y169589*
X95739Y169829*
X95859Y170109*
X95889Y170409*
X95859Y170709*
X95809Y170819*
Y172039*
X95889*
Y174319*
X95109*
X93419Y176019*
X93199Y176189*
X92939Y176289*
X92659Y176329*
G37*
G36*
X53849Y150879D02*
Y150489D01*
X54229*
Y150499*
X54059Y150709*
X53849Y150869*
Y150879*
G37*
G36*
X79249Y143259D02*
Y142879D01*
X79629*
X79459Y143089*
X79249Y143249*
Y143259*
G37*
G36*
X58929D02*
Y142879D01*
X59309*
X59139Y143089*
X58929Y143249*
Y143259*
G37*
G36*
X53849D02*
Y142879D01*
X54229*
X54059Y143089*
X53849Y143249*
Y143259*
G37*
G36*
X124969D02*
Y142879D01*
X125349*
X125179Y143089*
X124969Y143249*
Y143259*
G37*
G36*
X119889D02*
Y142879D01*
X120269*
X120099Y143089*
X119889Y143249*
Y143259*
G37*
G36*
X84329D02*
Y142879D01*
X84709*
X84539Y143089*
X84329Y143249*
Y143259*
G37*
G36*
X123949D02*
Y143249D01*
X123739Y143089*
X123569Y142879*
X123949*
Y143259*
G37*
G36*
X57909D02*
Y143249D01*
X57699Y143089*
X57529Y142879*
X57909*
Y143259*
G37*
G36*
X52829D02*
Y143249D01*
X52619Y143089*
X52449Y142879*
X52829*
Y143259*
G37*
G36*
X137159Y146709D02*
X136779Y146679D01*
X136419Y146569*
X136089Y146389*
X135789Y146149*
X135549Y145849*
X135369Y145519*
X135259Y145159*
X135229Y144779*
X135259Y144399*
X135369Y144039*
X135549Y143709*
X135789Y143409*
X136089Y143169*
X136419Y142989*
X136779Y142879*
X137159Y142849*
X137539Y142879*
X137899Y142989*
X138229Y143169*
X138529Y143409*
X138769Y143709*
X138949Y144039*
X139059Y144399*
X139089Y144779*
X139059Y145159*
X138949Y145519*
X138769Y145849*
X138529Y146149*
X138229Y146389*
X137899Y146569*
X137539Y146679*
X137159Y146709*
G37*
G36*
X118869Y143259D02*
Y143249D01*
X118659Y143089*
X118489Y142879*
X118869*
Y143259*
G37*
G36*
X83309D02*
Y143249D01*
X83099Y143089*
X82929Y142879*
X83309*
Y143259*
G37*
G36*
X78229D02*
Y143249D01*
X78019Y143089*
X77849Y142879*
X78229*
Y143259*
G37*
G36*
X84709Y144399D02*
X84329D01*
Y144019*
X84539Y144179*
X84709Y144389*
Y144399*
G37*
G36*
X79629D02*
X79249D01*
Y144019*
X79459Y144179*
X79629Y144389*
Y144399*
G37*
G36*
X59309D02*
X58929D01*
Y144019*
X59139Y144179*
X59309Y144389*
Y144399*
G37*
G36*
X52829Y145799D02*
Y145789D01*
X52619Y145629*
X52449Y145419*
Y145409*
X52829*
Y145799*
G37*
G36*
X120269Y144399D02*
X119889D01*
Y144019*
X120099Y144179*
X120269Y144389*
Y144399*
G37*
G36*
X125349D02*
X124969D01*
Y144019*
X125179Y144179*
X125349Y144389*
Y144399*
G37*
G36*
X54229D02*
X53849D01*
Y144019*
X54059Y144179*
X54229Y144389*
Y144399*
G37*
G36*
X78229D02*
X77849D01*
Y144389*
X78019Y144179*
X78229Y144019*
Y144399*
G37*
G36*
X57909D02*
X57529D01*
Y144389*
X57699Y144179*
X57909Y144019*
Y144399*
G37*
G36*
X52829D02*
X52449D01*
Y144389*
X52619Y144179*
X52829Y144019*
Y144399*
G37*
G36*
X123949D02*
X123569D01*
Y144389*
X123739Y144179*
X123949Y144019*
Y144399*
G37*
G36*
X83309D02*
X82929D01*
Y144389*
X83099Y144179*
X83309Y144019*
Y144399*
G37*
G36*
X118869D02*
X118489D01*
Y144389*
X118659Y144179*
X118869Y144019*
Y144399*
G37*
G36*
X119889Y140719D02*
Y140339D01*
X120269*
X120099Y140549*
X119889Y140709*
Y140719*
G37*
G36*
X79249D02*
Y140339D01*
X79629*
X79459Y140549*
X79249Y140709*
Y140719*
G37*
G36*
X78229D02*
Y140709D01*
X78019Y140549*
X77849Y140339*
X78229*
Y140719*
G37*
G36*
Y141859D02*
X77849D01*
Y141849*
X78019Y141639*
X78229Y141479*
Y141859*
G37*
G36*
X52829D02*
X52449D01*
Y141849*
X52619Y141639*
X52829Y141479*
Y141859*
G37*
G36*
X53849Y140719D02*
Y140339D01*
X54229*
X54059Y140549*
X53849Y140709*
Y140719*
G37*
G36*
X52829D02*
Y140709D01*
X52619Y140549*
X52449Y140339*
X52829*
Y140719*
G37*
G36*
X54229Y139319D02*
X53849D01*
Y138939*
X54059Y139099*
X54229Y139309*
Y139319*
G37*
G36*
X78229D02*
X77849D01*
Y139309*
X78019Y139099*
X78229Y138939*
Y139319*
G37*
G36*
X52829D02*
X52449D01*
Y139309*
X52619Y139099*
X52829Y138939*
Y139319*
G37*
G36*
X118869Y140719D02*
Y140709D01*
X118659Y140549*
X118489Y140339*
X118869*
Y140719*
G37*
G36*
X120269Y139319D02*
X119889D01*
Y138939*
X120099Y139099*
X120269Y139309*
Y139319*
G37*
G36*
X79629D02*
X79249D01*
Y138939*
X79459Y139099*
X79629Y139309*
Y139319*
G37*
G36*
X125349Y141859D02*
X124969D01*
Y141479*
X125179Y141639*
X125349Y141849*
Y141859*
G37*
G36*
X120269D02*
X119889D01*
Y141479*
X120099Y141639*
X120269Y141849*
Y141859*
G37*
G36*
X84709D02*
X84329D01*
Y141479*
X84539Y141639*
X84709Y141849*
Y141859*
G37*
G36*
X96519Y146709D02*
X96139Y146679D01*
X95779Y146569*
X95449Y146389*
X95149Y146149*
X94909Y145849*
X94729Y145519*
X94619Y145159*
X94589Y144779*
X94619Y144399*
X94729Y144039*
X94909Y143709*
X95149Y143409*
X95449Y143169*
X95779Y142989*
X96139Y142879*
X96519Y142849*
X96899Y142879*
X97259Y142989*
X97589Y143169*
X97889Y143409*
X98129Y143709*
X98309Y144039*
X98419Y144399*
X98449Y144779*
X98419Y145159*
X98309Y145519*
X98129Y145849*
X97889Y146149*
X97589Y146389*
X97259Y146569*
X96899Y146679*
X96519Y146709*
G37*
G36*
X131799Y144499D02*
X129819D01*
Y143179*
X129289Y142639*
X129159Y142659*
X129129Y142739*
X128969Y142939*
X128769Y143099*
X128529Y143199*
X128269Y143229*
X128009Y143199*
X127769Y143099*
X127569Y142939*
X127409Y142739*
X127389Y142699*
X126999*
X126819Y142669*
X126669Y142569*
X124899Y140789*
X124739Y140859*
X124459Y140899*
X124179Y140859*
X123919Y140749*
X123699Y140579*
X123529Y140359*
X123429Y140099*
X123389Y139829*
X123429Y139549*
X123529Y139289*
X123699Y139069*
X123919Y138899*
X124179Y138789*
X124459Y138759*
X124739Y138789*
X124999Y138899*
X125219Y139069*
X125389Y139289*
X125489Y139549*
X125529Y139829*
X125499Y140079*
X127189Y141779*
X127389*
X127409Y141739*
X127569Y141539*
X127649Y141469*
X127659Y141349*
X126809Y140499*
X126709Y140349*
X126669Y140169*
Y140019*
X124899Y138249*
X124739Y138319*
X124459Y138359*
X124179Y138319*
X123919Y138209*
X123699Y138039*
X123529Y137819*
X123429Y137559*
X123389Y137289*
X123429Y137009*
X123529Y136749*
X123699Y136529*
X123919Y136359*
X124179Y136249*
X124459Y136219*
X124739Y136249*
X124999Y136359*
X125219Y136529*
X125389Y136749*
X125489Y137009*
X125529Y137289*
X125499Y137539*
X127249Y139299*
X127379Y139279*
X127409Y139199*
X127569Y138999*
X127769Y138839*
X128009Y138739*
X128269Y138709*
X128529Y138739*
X128769Y138839*
X128969Y138999*
X129129Y139199*
X129229Y139439*
X129259Y139699*
X129229Y139959*
X129129Y140199*
X128969Y140399*
X128809Y140529*
X128849Y140659*
X128919Y140679*
X129069Y140779*
X129729Y141439*
X129829Y141589*
X129869Y141769*
Y141919*
X130479Y142519*
X131799*
Y144499*
G37*
G36*
X91159D02*
X89179D01*
Y143179*
X88649Y142639*
X88519Y142659*
X88489Y142739*
X88329Y142939*
X88129Y143099*
X87889Y143199*
X87629Y143229*
X87369Y143199*
X87129Y143099*
X86929Y142939*
X86769Y142739*
X86749Y142699*
X86359*
X86179Y142669*
X86029Y142569*
X84259Y140789*
X84099Y140859*
X83819Y140899*
X83539Y140859*
X83279Y140749*
X83059Y140579*
X82889Y140359*
X82789Y140099*
X82749Y139829*
X82789Y139549*
X82889Y139289*
X83059Y139069*
X83279Y138899*
X83539Y138789*
X83819Y138759*
X84099Y138789*
X84359Y138899*
X84579Y139069*
X84749Y139289*
X84849Y139549*
X84889Y139829*
X84859Y140079*
X86549Y141779*
X86749*
X86769Y141739*
X86929Y141539*
X87009Y141469*
X87019Y141349*
X86169Y140499*
X86069Y140349*
X86029Y140169*
Y140019*
X84259Y138249*
X84099Y138319*
X83819Y138359*
X83539Y138319*
X83279Y138209*
X83059Y138039*
X82889Y137819*
X82789Y137559*
X82749Y137289*
X82789Y137009*
X82889Y136749*
X83059Y136529*
X83279Y136359*
X83539Y136249*
X83819Y136219*
X84099Y136249*
X84359Y136359*
X84579Y136529*
X84749Y136749*
X84849Y137009*
X84889Y137289*
X84859Y137539*
X86609Y139299*
X86739Y139279*
X86769Y139199*
X86929Y138999*
X87129Y138839*
X87369Y138739*
X87629Y138709*
X87889Y138739*
X88129Y138839*
X88329Y138999*
X88489Y139199*
X88589Y139439*
X88619Y139699*
X88589Y139959*
X88489Y140199*
X88329Y140399*
X88169Y140529*
X88209Y140659*
X88279Y140679*
X88429Y140779*
X89089Y141439*
X89189Y141589*
X89229Y141769*
Y141919*
X89839Y142519*
X91159*
Y144499*
G37*
G36*
X79629Y141859D02*
X79249D01*
Y141479*
X79459Y141639*
X79629Y141849*
Y141859*
G37*
G36*
X83309D02*
X82929D01*
Y141849*
X83099Y141639*
X83309Y141479*
Y141859*
G37*
G36*
X57909D02*
X57529D01*
Y141849*
X57699Y141639*
X57909Y141479*
Y141859*
G37*
G36*
X118869D02*
X118489D01*
Y141849*
X118659Y141639*
X118869Y141479*
Y141859*
G37*
G36*
X59309D02*
X58929D01*
Y141479*
X59139Y141639*
X59309Y141849*
Y141859*
G37*
G36*
X54229D02*
X53849D01*
Y141479*
X54059Y141639*
X54229Y141849*
Y141859*
G37*
G36*
X123949D02*
X123569D01*
Y141849*
X123739Y141639*
X123949Y141479*
Y141859*
G37*
G36*
X57909Y145799D02*
Y145789D01*
X57699Y145629*
X57529Y145419*
Y145409*
X57909*
Y145799*
G37*
G36*
Y149479D02*
X57529D01*
Y149469*
X57699Y149259*
X57909Y149099*
Y149479*
G37*
G36*
X52829D02*
X52449D01*
Y149469*
X52619Y149259*
X52829Y149099*
Y149479*
G37*
G36*
X124969Y148339D02*
Y147959D01*
X125349*
X125179Y148169*
X124969Y148329*
Y148339*
G37*
G36*
X83309Y149479D02*
X82929D01*
Y149469*
X83099Y149259*
X83309Y149099*
Y149479*
G37*
G36*
X118869D02*
X118489D01*
Y149469*
X118659Y149259*
X118869Y149099*
Y149479*
G37*
G36*
X78229D02*
X77849D01*
Y149469*
X78019Y149259*
X78229Y149099*
Y149479*
G37*
G36*
X119889Y148339D02*
Y147959D01*
X120269*
X120099Y148169*
X119889Y148329*
Y148339*
G37*
G36*
X53849D02*
Y147959D01*
X54229*
X54059Y148169*
X53849Y148329*
Y148339*
G37*
G36*
X123949D02*
Y148329D01*
X123739Y148169*
X123569Y147959*
X123949*
Y148339*
G37*
G36*
X118869D02*
Y148329D01*
X118659Y148169*
X118489Y147959*
X118869*
Y148339*
G37*
G36*
X84329D02*
Y147959D01*
X84709*
X84539Y148169*
X84329Y148329*
Y148339*
G37*
G36*
X79249D02*
Y147959D01*
X79629*
X79459Y148169*
X79249Y148329*
Y148339*
G37*
G36*
X58929D02*
Y147959D01*
X59309*
X59139Y148169*
X58929Y148329*
Y148339*
G37*
G36*
X118869Y150879D02*
Y150869D01*
X118659Y150709*
X118489Y150499*
Y150489*
X118869*
Y150879*
G37*
G36*
X57909D02*
Y150869D01*
X57699Y150709*
X57529Y150499*
Y150489*
X57909*
Y150879*
G37*
G36*
X52829D02*
Y150869D01*
X52619Y150709*
X52449Y150499*
Y150489*
X52829*
Y150879*
G37*
G36*
X83309D02*
Y150869D01*
X83099Y150709*
X82929Y150499*
Y150489*
X83309*
Y150879*
G37*
G36*
X78229D02*
Y150869D01*
X78019Y150709*
X77849Y150499*
Y150489*
X78229*
Y150879*
G37*
G36*
X123949D02*
Y150869D01*
X123739Y150709*
X123569Y150499*
Y150489*
X123949*
Y150879*
G37*
G36*
X120269Y149479D02*
X119889D01*
Y149099*
X120099Y149259*
X120269Y149469*
Y149479*
G37*
G36*
X59309D02*
X58929D01*
Y149099*
X59139Y149259*
X59309Y149469*
Y149479*
G37*
G36*
X54229D02*
X53849D01*
Y149099*
X54059Y149259*
X54229Y149469*
Y149479*
G37*
G36*
X123949D02*
X123569D01*
Y149469*
X123739Y149259*
X123949Y149099*
Y149479*
G37*
G36*
X125349D02*
X124969D01*
Y149099*
X125179Y149259*
X125349Y149469*
Y149479*
G37*
G36*
X84709D02*
X84329D01*
Y149099*
X84539Y149259*
X84709Y149469*
Y149479*
G37*
G36*
X79629D02*
X79249D01*
Y149099*
X79459Y149259*
X79629Y149469*
Y149479*
G37*
G36*
X124969Y145799D02*
Y145409D01*
X125349*
Y145419*
X125179Y145629*
X124969Y145789*
Y145799*
G37*
G36*
X119889D02*
Y145409D01*
X120269*
Y145419*
X120099Y145629*
X119889Y145789*
Y145799*
G37*
G36*
X84329D02*
Y145409D01*
X84709*
Y145419*
X84539Y145629*
X84329Y145789*
Y145799*
G37*
G36*
X78229Y146939D02*
X77849D01*
Y146929*
X78019Y146719*
X78229Y146559*
Y146939*
G37*
G36*
X57909D02*
X57529D01*
Y146929*
X57699Y146719*
X57909Y146559*
Y146939*
G37*
G36*
X52829D02*
X52449D01*
Y146929*
X52619Y146719*
X52829Y146559*
Y146939*
G37*
G36*
X79249Y145799D02*
Y145409D01*
X79629*
Y145419*
X79459Y145629*
X79249Y145789*
Y145799*
G37*
G36*
X118869D02*
Y145789D01*
X118659Y145629*
X118489Y145419*
Y145409*
X118869*
Y145799*
G37*
G36*
X83309D02*
Y145789D01*
X83099Y145629*
X82929Y145419*
Y145409*
X83309*
Y145799*
G37*
G36*
X78229D02*
Y145789D01*
X78019Y145629*
X77849Y145419*
Y145409*
X78229*
Y145799*
G37*
G36*
X58929D02*
Y145409D01*
X59309*
Y145419*
X59139Y145629*
X58929Y145789*
Y145799*
G37*
G36*
X53849D02*
Y145409D01*
X54229*
Y145419*
X54059Y145629*
X53849Y145789*
Y145799*
G37*
G36*
X123949D02*
Y145789D01*
X123739Y145629*
X123569Y145419*
Y145409*
X123949*
Y145799*
G37*
G36*
X52829Y148339D02*
Y148329D01*
X52619Y148169*
X52449Y147959*
X52829*
Y148339*
G37*
G36*
X120269Y146939D02*
X119889D01*
Y146559*
X120099Y146719*
X120269Y146929*
Y146939*
G37*
G36*
X125349D02*
X124969D01*
Y146559*
X125179Y146719*
X125349Y146929*
Y146939*
G37*
G36*
X83309Y148339D02*
Y148329D01*
X83099Y148169*
X82929Y147959*
X83309*
Y148339*
G37*
G36*
X78229D02*
Y148329D01*
X78019Y148169*
X77849Y147959*
X78229*
Y148339*
G37*
G36*
X57909D02*
Y148329D01*
X57699Y148169*
X57529Y147959*
X57909*
Y148339*
G37*
G36*
X84709Y146939D02*
X84329D01*
Y146559*
X84539Y146719*
X84709Y146929*
Y146939*
G37*
G36*
X123949D02*
X123569D01*
Y146929*
X123739Y146719*
X123949Y146559*
Y146939*
G37*
G36*
X83309D02*
X82929D01*
Y146929*
X83099Y146719*
X83309Y146559*
Y146939*
G37*
G36*
X118869D02*
X118489D01*
Y146929*
X118659Y146719*
X118869Y146559*
Y146939*
G37*
G36*
X79629D02*
X79249D01*
Y146559*
X79459Y146719*
X79629Y146929*
Y146939*
G37*
G36*
X59309D02*
X58929D01*
Y146559*
X59139Y146719*
X59309Y146929*
Y146939*
G37*
G36*
X54229D02*
X53849D01*
Y146559*
X54059Y146719*
X54229Y146929*
Y146939*
G37*
%LNbackplane-3*%
%LPD*%
G36*
X126999Y101599D02*
Y99059D01*
X77469*
Y102869*
X125729*
X126999Y101599*
G37*
G54D10*
X94739Y162099D02*
Y164869D01*
X92659Y160019D02*
X94739Y162099D01*
X90169Y160019D02*
X92659D01*
X85089Y165099D02*
X90169Y160019D01*
X78739Y165099D02*
X83819D01*
X85089*
X94739Y170409D02*
Y173179D01*
X92659Y175259D02*
X94739Y173179D01*
X90169Y175259D02*
X92659D01*
X85089Y170179D02*
X90169Y175259D01*
X78739Y167639D02*
Y170179D01*
Y167639D02*
X83819D01*
X78739Y170179D02*
X83819D01*
X85089*
X124459D02*
X125729D01*
X119379D02*
X124459D01*
X119379Y167639D02*
X124459D01*
X119379D02*
Y170179D01*
X125729D02*
X130809Y175259D01*
X133299*
X135379Y173179*
Y170409D02*
Y173179D01*
X124459Y165099D02*
X125729D01*
X119379D02*
X124459D01*
X125729D02*
X130809Y160019D01*
X133299*
X135379Y162099*
Y164869*
G54D11*
X83819Y139699D02*
X86359Y142239D01*
X87629*
X83819Y137159D02*
X86489Y139829D01*
Y140169*
X87419Y141099*
X88099*
X88769Y141769*
Y142109*
X90169Y143509*
X83819Y134619D02*
X86359Y137159D01*
X87629*
X83819Y132079D02*
X86489Y134749D01*
Y135089*
X87419Y136019*
X88099*
X89029Y136949*
Y138899*
X90169Y140039*
Y140969*
X83819Y129539D02*
X87629Y125729D01*
Y123189D02*
Y125729D01*
X83819Y124459D02*
X86489Y121789D01*
Y120179D02*
Y121789D01*
Y120179D02*
X87629Y119039D01*
Y118109D02*
Y119039D01*
X128269Y118109D02*
Y119039D01*
X127129Y120179D02*
X128269Y119039D01*
X127129Y120179D02*
Y121789D01*
X124459Y124459D02*
X127129Y121789D01*
X128269Y123189D02*
Y125729D01*
X124459Y129539D02*
X128269Y125729D01*
X130809Y140039D02*
Y140969D01*
X129669Y138899D02*
X130809Y140039D01*
X129669Y136949D02*
Y138899D01*
X128739Y136019D02*
X129669Y136949D01*
X128059Y136019D02*
X128739D01*
X127129Y135089D02*
X128059Y136019D01*
X127129Y134749D02*
Y135089D01*
X124459Y132079D02*
X127129Y134749D01*
X126999Y137159D02*
X128269D01*
X124459Y134619D02*
X126999Y137159D01*
X129409Y142109D02*
X130809Y143509D01*
X129409Y141769D02*
Y142109D01*
X128739Y141099D02*
X129409Y141769D01*
X128059Y141099D02*
X128739D01*
X127129Y140169D02*
X128059Y141099D01*
X127129Y139829D02*
Y140169D01*
X124459Y137159D02*
X127129Y139829D01*
X126999Y142239D02*
X128269D01*
X124459Y139699D02*
X126999Y142239D01*
G54D13*
X40639Y76199D02*
X154179D01*
Y205999D02*
Y76199D01*
X40639Y205999D02*
X154179D01*
X40639D02*
Y76199D01*
G54D14*
X83819Y180469D03*
Y177929D03*
Y175389D03*
Y172849D03*
Y170309D03*
Y167769D03*
Y165229D03*
Y162689D03*
Y160149D03*
Y157609D03*
Y155069D03*
Y152529D03*
Y149989D03*
Y147449D03*
Y144909D03*
Y142369D03*
Y139829D03*
Y137289D03*
Y134749D03*
Y132209D03*
Y129669D03*
Y127129D03*
Y124589D03*
Y122049D03*
Y119509D03*
Y116969D03*
Y114429D03*
Y111889D03*
Y109349D03*
Y106809D03*
Y104269D03*
Y101729D03*
X78739Y180469D03*
Y177929D03*
Y175389D03*
Y172849D03*
Y170309D03*
Y167769D03*
Y165229D03*
Y162689D03*
Y160149D03*
Y157609D03*
Y155069D03*
Y152529D03*
Y149989D03*
Y147449D03*
Y144909D03*
Y142369D03*
Y139829D03*
Y137289D03*
Y134749D03*
Y132209D03*
Y129669D03*
Y127129D03*
Y124589D03*
Y122049D03*
Y119509D03*
Y116969D03*
Y114429D03*
Y111889D03*
Y109349D03*
Y106809D03*
Y104269D03*
Y101729D03*
X58419Y180469D03*
Y177929D03*
Y175389D03*
Y172849D03*
Y170309D03*
Y167769D03*
Y165229D03*
Y162689D03*
Y160149D03*
Y157609D03*
Y155069D03*
Y152529D03*
Y149989D03*
Y147449D03*
Y144909D03*
Y142369D03*
Y139829D03*
Y137289D03*
Y134749D03*
Y132209D03*
Y129669D03*
Y127129D03*
Y124589D03*
Y122049D03*
Y119509D03*
Y116969D03*
Y114429D03*
Y111889D03*
Y109349D03*
Y106809D03*
Y104269D03*
Y101729D03*
X53339Y180469D03*
Y177929D03*
Y175389D03*
Y172849D03*
Y170309D03*
Y167769D03*
Y165229D03*
Y162689D03*
Y160149D03*
Y157609D03*
Y155069D03*
Y152529D03*
Y149989D03*
Y147449D03*
Y144909D03*
Y142369D03*
Y139829D03*
Y137289D03*
Y134749D03*
Y132209D03*
Y129669D03*
Y127129D03*
Y124589D03*
Y122049D03*
Y119509D03*
Y116969D03*
Y114429D03*
Y111889D03*
Y109349D03*
Y106809D03*
Y104269D03*
Y101729D03*
X124459Y180469D03*
Y177929D03*
Y175389D03*
Y172849D03*
Y170309D03*
Y167769D03*
Y165229D03*
Y162689D03*
Y160149D03*
Y157609D03*
Y155069D03*
Y152529D03*
Y149989D03*
Y147449D03*
Y144909D03*
Y142369D03*
Y139829D03*
Y137289D03*
Y134749D03*
Y132209D03*
Y129669D03*
Y127129D03*
Y124589D03*
Y122049D03*
Y119509D03*
Y116969D03*
Y114429D03*
Y111889D03*
Y109349D03*
Y106809D03*
Y104269D03*
Y101729D03*
X119379Y180469D03*
Y177929D03*
Y175389D03*
Y172849D03*
Y170309D03*
Y167769D03*
Y165229D03*
Y162689D03*
Y160149D03*
Y157609D03*
Y155069D03*
Y152529D03*
Y149989D03*
Y147449D03*
Y144909D03*
Y142369D03*
Y139829D03*
Y137289D03*
Y134749D03*
Y132209D03*
Y129669D03*
Y127129D03*
Y124589D03*
Y122049D03*
Y119509D03*
Y116969D03*
Y114429D03*
Y111889D03*
Y109349D03*
Y106809D03*
Y104269D03*
Y101729D03*
G54D15*
X60959Y202209D03*
X55879D03*
X66039D03*
X81279D03*
X71119D03*
X76199D03*
X96519D03*
X86359D03*
X91439D03*
X137159D03*
X132079D03*
X142239D03*
X121919D03*
X116839D03*
X126999D03*
X111759D03*
X101599D03*
X106679D03*
X147319D03*
X55879Y79979D03*
X60959D03*
X71119D03*
X66039D03*
X86359D03*
X91439D03*
X81279D03*
X76199D03*
X116839D03*
X121919D03*
X132079D03*
X126999D03*
X106679D03*
X111759D03*
X101599D03*
X96519D03*
X147319D03*
X142239D03*
X137159D03*
X45719Y202209D03*
X50799D03*
Y79979D03*
X45719D03*
G54D16*
X67819Y173179D03*
X70659Y171789D03*
X67819Y170409D03*
X70659Y169019D03*
X67819Y167639D03*
X70659Y166259D03*
X67819Y164869D03*
X70659Y163489D03*
X94739Y162099D03*
X91899Y163489D03*
X94739Y164869D03*
X91899Y166259D03*
X94739Y167639D03*
X91899Y169019D03*
X94739Y170409D03*
X91899Y171789D03*
X108459Y173179D03*
X111299Y171789D03*
X108459Y170409D03*
X111299Y169019D03*
X108459Y167639D03*
X111299Y166259D03*
X108459Y164869D03*
X111299Y163489D03*
X135379Y162099D03*
X132539Y163489D03*
X135379Y164869D03*
X132539Y166259D03*
X135379Y167639D03*
X132539Y169019D03*
X135379Y170409D03*
X132539Y171789D03*
G54D17*
X67819Y162099D03*
X94739Y173179D03*
X108459Y162099D03*
X135379Y173179D03*
G54D18*
X69239Y155149D03*
Y180129D03*
X93319D03*
Y155149D03*
X109879D03*
Y180129D03*
X133959D03*
Y155149D03*
G54D19*
X90169Y143509D03*
Y124459D03*
X130809Y143509D03*
Y124459D03*
G54D20*
X87629Y142239D03*
X90169Y140969D03*
X87629Y139699D03*
X90169Y138429D03*
X87629Y137159D03*
X90169Y135889D03*
X87629Y134619D03*
Y123189D03*
X90169Y121919D03*
X87629Y120649D03*
X90169Y119379D03*
X87629Y118109D03*
X90169Y116839D03*
X87629Y115569D03*
X128269Y142239D03*
X130809Y140969D03*
X128269Y139699D03*
X130809Y138429D03*
X128269Y137159D03*
X130809Y135889D03*
X128269Y134619D03*
Y123189D03*
X130809Y121919D03*
X128269Y120649D03*
X130809Y119379D03*
X128269Y118109D03*
X130809Y116839D03*
X128269Y115569D03*
G54D21*
X96519Y144779D03*
Y133349D03*
Y125729D03*
Y114299D03*
X137159Y144779D03*
Y133349D03*
Y125729D03*
Y114299D03*
G54D22*
X53339Y101599D02*
X58419D01*
X53339Y104139D02*
X58419D01*
X78739*
X83819*
X119379*
X124459*
X53339Y109219D02*
X58419D01*
X78739*
X83819*
X119379*
X124459*
X53339Y111739D02*
Y111759D01*
Y111739D02*
X124439D01*
X53339Y106679D02*
X58419D01*
M02*