G04 Layer_Physical_Order=1*
G04 Layer_Color=255*
%FSLAX42Y42*%
%MOMM*%
G71*
G01*
G75*
%ADD10O,1.40X0.80*%
%ADD11R,1.40X0.80*%
%ADD12R,0.90X0.70*%
%ADD13R,0.80X0.90*%
%ADD14R,0.70X0.90*%
%ADD15R,1.42X3.02*%
%ADD16R,1.10X2.60*%
%ADD17R,3.00X2.26*%
%ADD18R,0.76X1.14*%
%ADD19R,1.80X2.10*%
%ADD20R,1.70X1.10*%
%ADD21R,1.17X1.88*%
%ADD22R,1.20X1.20*%
%ADD23R,1.52X2.18*%
%ADD24R,3.10X4.00*%
%ADD25R,1.39X1.40*%
%ADD26R,3.36X4.86*%
%ADD27R,3.20X1.80*%
%ADD28R,1.40X1.10*%
%ADD29R,3.30X1.55*%
%ADD30R,1.00X0.55*%
%ADD31O,1.00X0.55*%
%ADD32R,0.90X0.80*%
%ADD33R,3.30X1.40*%
%ADD34R,2.60X1.10*%
%ADD35R,2.00X3.50*%
%ADD36C,0.30*%
%ADD37C,2.00*%
%ADD38C,0.30*%
%ADD39C,0.64*%
%ADD40C,0.25*%
%ADD41C,0.50*%
%ADD42C,0.75*%
%ADD43C,0.51*%
%ADD44C,0.70*%
%ADD45C,1.60*%
%ADD46C,1.52*%
%ADD47C,1.70*%
G04:AMPARAMS|DCode=48|XSize=1.57mm|YSize=1.57mm|CornerRadius=0mm|HoleSize=0mm|Usage=FLASHONLY|Rotation=90.000|XOffset=0mm|YOffset=0mm|HoleType=Round|Shape=Octagon|*
%AMOCTAGOND48*
4,1,8,0.39,0.79,-0.39,0.79,-0.79,0.39,-0.79,-0.39,-0.39,-0.79,0.39,-0.79,0.79,-0.39,0.79,0.39,0.39,0.79,0.0*
%
%ADD48OCTAGOND48*%

%ADD49C,2.80*%
%ADD50C,0.64*%
%ADD51C,1.27*%
%ADD52C,0.76*%
%ADD53C,1.02*%
%ADD54C,0.80*%
G36*
X19928Y7042D02*
Y6407D01*
X19648D01*
X19648Y7042D01*
X19928Y7042D01*
D02*
G37*
G36*
X16803D02*
Y6407D01*
X16524D01*
X16524Y7042D01*
X16803Y7042D01*
D02*
G37*
G36*
X13425Y6458D02*
X12663D01*
Y6915D01*
X13425D01*
Y6458D01*
D02*
G37*
G36*
X10301D02*
X9539D01*
Y6915D01*
X10301D01*
Y6458D01*
D02*
G37*
G36*
X18048Y6509D02*
X18073Y6483D01*
X18251Y6306D01*
X18302Y6255D01*
X19928D01*
X19928Y6052D01*
X17845Y6052D01*
X17845Y7296D01*
X18048Y7296D01*
Y6509D01*
D02*
G37*
G36*
X14924D02*
X14949Y6483D01*
X15127Y6306D01*
X15178Y6255D01*
X16803D01*
X16803Y6052D01*
X14721Y6052D01*
X14721Y7296D01*
X14924Y7296D01*
Y6509D01*
D02*
G37*
G36*
X13730Y7042D02*
Y6407D01*
X13451D01*
X13451Y7042D01*
X13730Y7042D01*
D02*
G37*
G36*
X10606D02*
Y6407D01*
X10326D01*
X10326Y7042D01*
X10606Y7042D01*
D02*
G37*
G36*
X12639Y8074D02*
X12546Y7850D01*
X12435Y7850D01*
X12427Y7848D01*
X12420Y7844D01*
X12416Y7837D01*
X12414Y7830D01*
Y7677D01*
X12139Y7677D01*
X12130Y7686D01*
X12130Y7832D01*
X12144Y7846D01*
X12144Y7846D01*
X12144Y7846D01*
X12152Y7858D01*
X12156Y7865D01*
X12156Y7865D01*
X12156Y7865D01*
X12158Y7875D01*
X12160Y7886D01*
X12160Y7886D01*
X12160Y7886D01*
Y7903D01*
X12169D01*
Y8023D01*
X12141D01*
X12132Y8033D01*
X12134Y8043D01*
X12169D01*
Y8085D01*
X12632Y8085D01*
X12639Y8074D01*
D02*
G37*
G36*
X9515D02*
X9422Y7850D01*
X9310Y7850D01*
X9303Y7848D01*
X9296Y7844D01*
X9292Y7837D01*
X9290Y7830D01*
Y7677D01*
X9015Y7677D01*
X9006Y7686D01*
X9006Y7832D01*
X9020Y7846D01*
X9020Y7846D01*
X9020Y7846D01*
X9027Y7858D01*
X9032Y7865D01*
X9032Y7865D01*
X9032Y7865D01*
X9034Y7875D01*
X9036Y7886D01*
X9036Y7886D01*
X9036Y7886D01*
Y7903D01*
X9045D01*
Y8023D01*
X9017D01*
X9008Y8033D01*
X9010Y8043D01*
X9045D01*
Y8085D01*
X9508Y8085D01*
X9515Y8074D01*
D02*
G37*
G36*
X18837D02*
X18744Y7850D01*
X18632Y7850D01*
X18624Y7848D01*
X18618Y7844D01*
X18613Y7837D01*
X18612Y7830D01*
Y7677D01*
X18336Y7677D01*
X18327Y7686D01*
X18327Y7832D01*
X18342Y7846D01*
X18342Y7846D01*
X18342Y7846D01*
X18349Y7858D01*
X18354Y7865D01*
X18354Y7865D01*
X18354Y7865D01*
X18356Y7875D01*
X18358Y7886D01*
X18358Y7886D01*
X18358Y7886D01*
Y7903D01*
X18367D01*
Y8023D01*
X18338D01*
X18330Y8033D01*
X18331Y8043D01*
X18367D01*
Y8085D01*
X18830Y8085D01*
X18837Y8074D01*
D02*
G37*
G36*
X15713D02*
X15620Y7850D01*
X15508Y7850D01*
X15500Y7848D01*
X15494Y7844D01*
X15489Y7837D01*
X15488Y7830D01*
Y7677D01*
X15212Y7677D01*
X15203Y7686D01*
X15203Y7832D01*
X15217Y7846D01*
X15217Y7846D01*
X15217Y7846D01*
X15225Y7858D01*
X15230Y7865D01*
X15230Y7865D01*
X15230Y7865D01*
X15232Y7875D01*
X15234Y7886D01*
X15234Y7886D01*
X15234Y7886D01*
Y7903D01*
X15243D01*
Y8023D01*
X15214D01*
X15205Y8033D01*
X15207Y8043D01*
X15243D01*
Y8085D01*
X15706Y8085D01*
X15713Y8074D01*
D02*
G37*
G36*
X19623Y6458D02*
X18861D01*
Y6915D01*
X19623D01*
Y6458D01*
D02*
G37*
G36*
X16499D02*
X15737D01*
Y6915D01*
X16499D01*
Y6458D01*
D02*
G37*
G36*
X4888Y8418D02*
X4882Y8405D01*
X3004D01*
X2990Y8402D01*
X2978Y8394D01*
X2639Y8055D01*
X2541D01*
X2492Y8006D01*
Y7907D01*
X2509Y7890D01*
X2504Y7878D01*
X2477D01*
X2463Y7876D01*
X2452Y7868D01*
X2385Y7801D01*
X2337D01*
Y7858D01*
X2386D01*
X2436Y7907D01*
Y8005D01*
X2502Y8071D01*
X2510Y8083D01*
X2513Y8097D01*
Y8249D01*
X2686Y8423D01*
X4884D01*
X4888Y8418D01*
D02*
G37*
G36*
X22860Y9550D02*
X22885Y9525D01*
X23825D01*
Y9254D01*
X23812Y9248D01*
X23798Y9259D01*
X23774Y9269D01*
X23749Y9272D01*
X23724Y9269D01*
X23700Y9259D01*
X23680Y9244D01*
X23665Y9224D01*
X23655Y9200D01*
X23652Y9175D01*
X23655Y9150D01*
X23665Y9126D01*
X23680Y9106D01*
X23700Y9091D01*
X23724Y9081D01*
X23749Y9078D01*
X23774Y9081D01*
X23798Y9091D01*
X23812Y9102D01*
X23825Y9096D01*
Y9000D01*
X23812Y8994D01*
X23798Y9005D01*
X23774Y9015D01*
X23749Y9018D01*
X23724Y9015D01*
X23700Y9005D01*
X23680Y8990D01*
X23665Y8970D01*
X23655Y8946D01*
X23652Y8921D01*
X23655Y8896D01*
X23665Y8872D01*
X23680Y8852D01*
X23700Y8837D01*
X23724Y8827D01*
X23749Y8824D01*
X23774Y8827D01*
X23798Y8837D01*
X23812Y8848D01*
X23825Y8842D01*
Y7984D01*
X23812Y7978D01*
X23798Y7989D01*
X23774Y7999D01*
X23749Y8002D01*
X23724Y7999D01*
X23700Y7989D01*
X23680Y7974D01*
X23665Y7954D01*
X23655Y7930D01*
X23652Y7905D01*
X23655Y7880D01*
X23665Y7856D01*
X23680Y7836D01*
X23700Y7821D01*
X23724Y7811D01*
X23749Y7808D01*
X23774Y7811D01*
X23798Y7821D01*
X23812Y7832D01*
X23825Y7826D01*
Y7730D01*
X23812Y7724D01*
X23798Y7735D01*
X23774Y7745D01*
X23749Y7748D01*
X23724Y7745D01*
X23700Y7735D01*
X23680Y7720D01*
X23665Y7700D01*
X23655Y7676D01*
X23652Y7651D01*
X23655Y7626D01*
X23665Y7602D01*
X23680Y7582D01*
X23700Y7567D01*
X23724Y7557D01*
X23749Y7554D01*
X23774Y7557D01*
X23798Y7567D01*
X23812Y7578D01*
X23825Y7572D01*
Y7476D01*
X23812Y7470D01*
X23798Y7481D01*
X23774Y7491D01*
X23749Y7494D01*
X23724Y7491D01*
X23700Y7481D01*
X23680Y7466D01*
X23665Y7446D01*
X23655Y7422D01*
X23652Y7397D01*
X23655Y7372D01*
X23665Y7348D01*
X23680Y7328D01*
X23700Y7313D01*
X23724Y7303D01*
X23749Y7300D01*
X23774Y7303D01*
X23798Y7313D01*
X23812Y7324D01*
X23825Y7318D01*
Y7222D01*
X23812Y7216D01*
X23798Y7227D01*
X23774Y7237D01*
X23749Y7240D01*
X23724Y7237D01*
X23700Y7227D01*
X23680Y7212D01*
X23665Y7192D01*
X23655Y7168D01*
X23652Y7143D01*
X23655Y7118D01*
X23665Y7094D01*
X23680Y7074D01*
X23700Y7059D01*
X23724Y7049D01*
X23749Y7046D01*
X23774Y7049D01*
X23798Y7059D01*
X23812Y7070D01*
X23825Y7064D01*
Y5029D01*
X20156D01*
Y9454D01*
X20614D01*
X22029Y8039D01*
X22028Y8033D01*
X22031Y8011D01*
X22039Y7991D01*
X22052Y7973D01*
X22060Y7968D01*
Y7920D01*
X22046D01*
X22046Y7790D01*
X22033Y7789D01*
X21553D01*
X21550Y7796D01*
X21537Y7813D01*
X21519Y7826D01*
X21499Y7835D01*
X21477Y7838D01*
X21455Y7835D01*
X21435Y7826D01*
X21417Y7813D01*
X21404Y7796D01*
X21396Y7775D01*
X21393Y7753D01*
X21396Y7732D01*
X21404Y7711D01*
X21417Y7694D01*
X21435Y7680D01*
X21455Y7672D01*
X21477Y7669D01*
X21499Y7672D01*
X21519Y7680D01*
X21537Y7694D01*
X21550Y7711D01*
X21553Y7718D01*
X22072D01*
X22087Y7703D01*
X22098Y7695D01*
X22112Y7692D01*
X22186D01*
X22191Y7685D01*
X22211Y7671D01*
X22214Y7671D01*
Y7658D01*
X22211Y7658D01*
X22191Y7644D01*
X22186Y7637D01*
X21680D01*
X21677Y7643D01*
X21664Y7661D01*
X21646Y7674D01*
X21626Y7682D01*
X21604Y7685D01*
X21582Y7682D01*
X21562Y7674D01*
X21544Y7661D01*
X21531Y7643D01*
X21523Y7623D01*
X21520Y7601D01*
X21523Y7579D01*
X21531Y7559D01*
X21544Y7541D01*
X21562Y7528D01*
X21582Y7520D01*
X21604Y7517D01*
X21626Y7520D01*
X21646Y7528D01*
X21664Y7541D01*
X21677Y7559D01*
X21680Y7565D01*
X22186D01*
X22191Y7558D01*
X22211Y7544D01*
X22234Y7540D01*
X22294D01*
X22318Y7544D01*
X22338Y7558D01*
X22351Y7578D01*
X22356Y7601D01*
X22351Y7624D01*
X22338Y7644D01*
X22318Y7658D01*
X22315Y7658D01*
Y7671D01*
X22318Y7671D01*
X22338Y7685D01*
X22351Y7705D01*
X22356Y7728D01*
X22351Y7751D01*
X22338Y7771D01*
X22321Y7782D01*
X22325Y7795D01*
X22354D01*
Y7915D01*
X22174D01*
X22166Y7920D01*
Y7920D01*
X22152D01*
Y7959D01*
X22154Y7960D01*
X22172Y7973D01*
X22185Y7991D01*
X22193Y8011D01*
X22196Y8033D01*
X22193Y8055D01*
X22185Y8075D01*
X22172Y8092D01*
X22154Y8106D01*
X22134Y8114D01*
X22112Y8117D01*
X22090Y8114D01*
X22085Y8112D01*
X20665Y9532D01*
X20650Y9542D01*
X20633Y9546D01*
X20156D01*
Y10039D01*
X22860D01*
Y9550D01*
D02*
G37*
G36*
X23851Y4902D02*
Y4521D01*
X22581Y4521D01*
X21311Y3251D01*
X21082Y3251D01*
X19761D01*
Y3810D01*
X21387D01*
X22530Y4953D01*
X23216Y4953D01*
X23800D01*
X23851Y4902D01*
D02*
G37*
G36*
X13349Y4934D02*
X13349Y3823D01*
X19482D01*
Y3238D01*
X11760D01*
Y3251D01*
X11749D01*
X11749Y4934D01*
X13349Y4934D01*
D02*
G37*
G36*
X19572D02*
X19572Y4206D01*
X19563Y4197D01*
X17946Y4197D01*
X17946Y4934D01*
X19572Y4934D01*
D02*
G37*
G36*
X16448D02*
X16448Y4206D01*
X16439Y4197D01*
X14822Y4197D01*
X14822Y4934D01*
X16448Y4934D01*
D02*
G37*
G36*
X21107Y1219D02*
X19761D01*
Y1753D01*
X19787Y1778D01*
X21107D01*
Y1219D01*
D02*
G37*
G36*
X8498Y1778D02*
X19482D01*
Y1216D01*
X7583D01*
Y1778D01*
X7583Y5782D01*
X8498D01*
X8498Y1778D01*
D02*
G37*
G36*
X11093Y5798D02*
X11121Y5770D01*
X11133Y5762D01*
X11146Y5759D01*
X11622D01*
X11622Y3005D01*
X21057D01*
Y3065D01*
X21387D01*
X22767Y4445D01*
X23774D01*
X23851Y4369D01*
Y4013D01*
X22911D01*
X21438Y2540D01*
X11622D01*
Y2540D01*
X10682Y2540D01*
X10682Y5791D01*
X10683Y5792D01*
X10689Y5798D01*
X11093D01*
D02*
G37*
G36*
X10225Y4934D02*
X10225Y2438D01*
X21107Y2438D01*
Y1981D01*
X8611Y1981D01*
Y2438D01*
X8625D01*
X8625Y4934D01*
X10225Y4934D01*
D02*
G37*
G36*
X19572Y4985D02*
X18200D01*
X18200Y5696D01*
X19572Y5696D01*
X19572Y4985D01*
D02*
G37*
G36*
X16448D02*
X15000Y4985D01*
X15000Y5620D01*
X15076Y5696D01*
X16448Y5696D01*
X16448Y4985D01*
D02*
G37*
G36*
X11850Y6509D02*
X11876Y6483D01*
X12054Y6306D01*
X12104Y6255D01*
X13691Y6255D01*
X13691Y6052D01*
X11647Y6052D01*
X11647Y7296D01*
X11850Y7296D01*
Y6509D01*
D02*
G37*
G36*
X8726D02*
X8752Y6483D01*
X8929Y6306D01*
X8980Y6255D01*
X10606D01*
X10606Y6052D01*
X8523Y6052D01*
X8523Y7296D01*
X8726Y7296D01*
Y6509D01*
D02*
G37*
G36*
X17819Y5798D02*
X17819Y4197D01*
X16880Y4197D01*
X16880Y5798D01*
X17819Y5798D01*
D02*
G37*
G36*
X14167Y5798D02*
X14172Y5792D01*
X14184Y5784D01*
X14197Y5782D01*
X14695D01*
X14695Y4197D01*
X13755Y4197D01*
X13755Y5791D01*
X13762Y5798D01*
X14167D01*
D02*
G37*
G36*
X13349Y4985D02*
X11927Y4985D01*
X11927Y5620D01*
X12003Y5696D01*
X13349Y5696D01*
X13349Y4985D01*
D02*
G37*
G36*
X10225D02*
X8802Y4985D01*
X8802Y5620D01*
X8879Y5696D01*
X10225Y5696D01*
X10225Y4985D01*
D02*
G37*
G36*
X3072Y8321D02*
X2701Y7950D01*
X2690Y7955D01*
Y8005D01*
X3018Y8334D01*
X3067D01*
X3072Y8321D01*
D02*
G37*
G36*
X13730Y8725D02*
X12892Y8725D01*
X12892Y8855D01*
X12892Y9131D01*
X13730D01*
X13730Y8725D01*
D02*
G37*
G36*
X16803D02*
X15965Y8725D01*
X15965Y8855D01*
X15965Y9131D01*
X16803D01*
X16803Y8725D01*
D02*
G37*
G36*
X19928Y8744D02*
X19089Y8744D01*
X19089Y8874D01*
X19089Y9150D01*
X19928D01*
X19928Y8744D01*
D02*
G37*
G36*
X19928Y7093D02*
X19013D01*
X18886Y7093D01*
X18581Y6661D01*
X18505Y6661D01*
Y6865D01*
X18517Y6873D01*
X18596Y6952D01*
X18608Y6970D01*
X18611Y6988D01*
X18621D01*
Y7068D01*
X18632D01*
Y7153D01*
X18630Y7155D01*
X18634Y7161D01*
X18636Y7169D01*
Y7327D01*
X18785D01*
X18792Y7328D01*
X18799Y7333D01*
X18803Y7339D01*
X18805Y7347D01*
Y7550D01*
X18805Y7830D01*
X18803Y7837D01*
X18799Y7844D01*
X18792Y7848D01*
X18785Y7850D01*
X18778D01*
X18770Y7861D01*
X18856Y8066D01*
X18856Y8068D01*
X18857Y8070D01*
Y8072D01*
X18857Y8074D01*
X18857Y8076D01*
Y8078D01*
X18856Y8080D01*
X18856Y8082D01*
X18855Y8083D01*
X18854Y8085D01*
X18847Y8096D01*
X18845Y8097D01*
X18844Y8099D01*
X18843Y8100D01*
X18841Y8101D01*
X18839Y8102D01*
X18838Y8103D01*
X18836Y8104D01*
X18834Y8105D01*
X18832D01*
X18830Y8105D01*
X18367Y8105D01*
Y8154D01*
X18380Y8163D01*
X18435Y8218D01*
X18542D01*
X18548Y8211D01*
Y8169D01*
X18668D01*
Y8299D01*
X18626D01*
X18608Y8318D01*
X18589Y8331D01*
X18566Y8335D01*
X18411D01*
X18389Y8331D01*
X18370Y8318D01*
X18323Y8272D01*
X18320Y8273D01*
X18302Y8276D01*
X18284Y8273D01*
X18266Y8266D01*
X18252Y8255D01*
X18240Y8240D01*
X18233Y8223D01*
X18231Y8204D01*
X18233Y8186D01*
X18237Y8176D01*
X18237Y8163D01*
X18237Y8163D01*
X18237Y8163D01*
Y8043D01*
X18293D01*
X18303Y8031D01*
X18301Y8025D01*
X18301Y8024D01*
X18298Y8023D01*
X18237D01*
Y7903D01*
X18237Y7903D01*
X18237D01*
X18230Y7893D01*
X18212Y7875D01*
X18212Y7875D01*
X18212Y7875D01*
X18205Y7865D01*
X18199Y7857D01*
X18199Y7857D01*
X18199Y7857D01*
X18197Y7846D01*
X18196Y7842D01*
X18193Y7831D01*
X18193Y7831D01*
X18193Y7831D01*
Y7703D01*
X18073Y7703D01*
X18073Y8617D01*
X19928Y8617D01*
X19928Y7093D01*
D02*
G37*
G36*
X5154Y8309D02*
Y8074D01*
X4909Y7829D01*
X2698D01*
X2693Y7840D01*
X3110Y8258D01*
X3123Y8255D01*
X4849D01*
X4850Y8254D01*
X4867Y8242D01*
X4887Y8238D01*
X4908Y8242D01*
X4925Y8254D01*
X4936Y8271D01*
X4940Y8291D01*
X4936Y8311D01*
X4932Y8318D01*
X4939Y8330D01*
X4956D01*
X4971Y8320D01*
X4991Y8316D01*
X5011Y8320D01*
X5028Y8332D01*
X5040Y8349D01*
X5044Y8369D01*
X5040Y8389D01*
X5028Y8407D01*
X5011Y8418D01*
X4991Y8422D01*
X4979Y8420D01*
X4972Y8431D01*
X4976Y8438D01*
X4980Y8458D01*
X4979Y8467D01*
X4990Y8473D01*
X5154Y8309D01*
D02*
G37*
G36*
X10606Y8725D02*
X9768Y8725D01*
X9768Y8855D01*
X9768Y9131D01*
X10606D01*
X10606Y8725D01*
D02*
G37*
G36*
X8599Y9252D02*
Y7867D01*
X8650Y7817D01*
Y7804D01*
X8701D01*
Y7601D01*
X9285Y7601D01*
Y7652D01*
X9310D01*
Y7830D01*
X9463Y7830D01*
X9463Y7550D01*
Y7347D01*
X9294D01*
Y7169D01*
X9183D01*
Y7281D01*
X9092Y7372D01*
X8396Y7372D01*
Y6858D01*
X8357D01*
Y6630D01*
X8396D01*
Y6052D01*
X7715D01*
X7325Y6441D01*
Y8560D01*
X7323Y8573D01*
X7315Y8585D01*
X6807Y9093D01*
X6795Y9101D01*
X6782Y9103D01*
X6033D01*
X6032Y9105D01*
X6015Y9117D01*
X5994Y9121D01*
X5987Y9119D01*
X5981Y9131D01*
X5998Y9147D01*
X6000Y9146D01*
X6020Y9142D01*
X6040Y9146D01*
X6057Y9157D01*
X6069Y9175D01*
X6073Y9195D01*
X6069Y9215D01*
X6057Y9232D01*
X6040Y9244D01*
X6028Y9246D01*
X6024Y9260D01*
X6037Y9272D01*
X6040Y9273D01*
X6057Y9284D01*
X6069Y9302D01*
X6073Y9322D01*
X6069Y9342D01*
X6057Y9359D01*
X6040Y9371D01*
X6020Y9375D01*
X6000Y9371D01*
X5982Y9359D01*
X5971Y9342D01*
X5967Y9322D01*
X5970Y9306D01*
X5385Y8721D01*
X5377Y8710D01*
X5375Y8696D01*
Y7756D01*
X5276Y7658D01*
X4542D01*
X4528Y7655D01*
X4516Y7647D01*
X4442Y7573D01*
X4306D01*
X4305Y7575D01*
X4287Y7586D01*
X4267Y7590D01*
X4247Y7586D01*
X4230Y7575D01*
X4218Y7558D01*
X4214Y7538D01*
X4218Y7517D01*
X4230Y7500D01*
X4247Y7489D01*
X4267Y7485D01*
X4287Y7489D01*
X4305Y7500D01*
X4306Y7502D01*
X4425D01*
X4430Y7490D01*
X4420Y7480D01*
X4412Y7468D01*
X4409Y7455D01*
X4408Y7454D01*
X4396Y7437D01*
X4392Y7417D01*
X4396Y7397D01*
X4408Y7379D01*
X4425Y7368D01*
X4445Y7364D01*
X4465Y7368D01*
X4482Y7379D01*
X4494Y7397D01*
X4498Y7417D01*
X4494Y7437D01*
X4487Y7447D01*
X4577Y7536D01*
X5311D01*
X5325Y7539D01*
X5337Y7547D01*
X5486Y7696D01*
X5494Y7708D01*
X5497Y7722D01*
Y8647D01*
X5931Y9081D01*
X5943Y9075D01*
X5942Y9068D01*
X5946Y9048D01*
X5957Y9030D01*
X5974Y9019D01*
X5994Y9015D01*
X6015Y9019D01*
X6032Y9030D01*
X6033Y9032D01*
X6767D01*
X7254Y8545D01*
Y6426D01*
X7257Y6413D01*
X7265Y6401D01*
X7602Y6063D01*
X7597Y6052D01*
X6979D01*
X6070Y6960D01*
Y7418D01*
X6076Y7420D01*
X6093Y7434D01*
X6107Y7451D01*
X6115Y7471D01*
X6118Y7493D01*
X6115Y7515D01*
X6107Y7535D01*
X6093Y7553D01*
X6076Y7566D01*
X6056Y7575D01*
X6034Y7577D01*
X6012Y7575D01*
X5992Y7566D01*
X5974Y7553D01*
X5961Y7535D01*
X5952Y7515D01*
X5951Y7504D01*
X5169D01*
X5168Y7505D01*
X5151Y7516D01*
X5131Y7520D01*
X5111Y7516D01*
X5093Y7505D01*
X5082Y7488D01*
X5078Y7468D01*
X5082Y7447D01*
X5093Y7430D01*
X5111Y7419D01*
X5131Y7415D01*
X5151Y7419D01*
X5168Y7430D01*
X5169Y7432D01*
X5977D01*
X5992Y7420D01*
X5998Y7418D01*
Y6946D01*
X6001Y6932D01*
X6008Y6920D01*
X6865Y6063D01*
X6860Y6052D01*
X2337Y6052D01*
Y7604D01*
X2386D01*
X2436Y7653D01*
Y7751D01*
X2492Y7807D01*
X2529D01*
X2535Y7794D01*
X2492Y7752D01*
Y7653D01*
X2541Y7604D01*
X2640D01*
X2690Y7653D01*
Y7723D01*
X4931D01*
X4951Y7727D01*
X4968Y7739D01*
X5244Y8014D01*
X5256Y8032D01*
X5260Y8052D01*
Y8331D01*
X5260Y8331D01*
X5256Y8351D01*
X5244Y8369D01*
X4959Y8654D01*
X4942Y8666D01*
X4921Y8670D01*
X4455D01*
X4450Y8681D01*
X5903Y10134D01*
X5911Y10133D01*
X5920Y10134D01*
X6500Y9554D01*
Y9361D01*
X6494Y9356D01*
X6480Y9339D01*
X6472Y9318D01*
X6469Y9296D01*
X6472Y9275D01*
X6480Y9254D01*
X6494Y9237D01*
X6511Y9223D01*
X6531Y9215D01*
X6553Y9212D01*
X6575Y9215D01*
X6595Y9223D01*
X6613Y9237D01*
X6626Y9254D01*
X6635Y9275D01*
X6637Y9296D01*
X6635Y9318D01*
X6626Y9339D01*
X6613Y9356D01*
X6606Y9361D01*
Y9576D01*
X6606Y9576D01*
X6602Y9596D01*
X6591Y9613D01*
X6591Y9613D01*
X5995Y10209D01*
X5996Y10218D01*
X5993Y10239D01*
X5984Y10260D01*
X5971Y10277D01*
X5954Y10291D01*
X5933Y10299D01*
X5911Y10302D01*
X5890Y10299D01*
X5869Y10291D01*
X5852Y10277D01*
X5847Y10270D01*
X3570D01*
X3527Y10313D01*
Y10358D01*
X3417D01*
Y10228D01*
X3463D01*
X3511Y10180D01*
X3528Y10169D01*
X3548Y10165D01*
X5767D01*
X5772Y10153D01*
X4320Y8700D01*
X4302Y8698D01*
X4282Y8690D01*
X4265Y8676D01*
X4251Y8659D01*
X4243Y8639D01*
X4240Y8617D01*
X4243Y8595D01*
X4251Y8575D01*
X4265Y8557D01*
X4282Y8544D01*
X4302Y8535D01*
X4324Y8533D01*
X4346Y8535D01*
X4366Y8544D01*
X4384Y8557D01*
X4389Y8564D01*
X4900D01*
X4943Y8521D01*
X4936Y8509D01*
X4928Y8511D01*
X4907Y8507D01*
X4890Y8496D01*
X4889Y8494D01*
X2671D01*
X2657Y8491D01*
X2646Y8483D01*
X2452Y8290D01*
X2444Y8278D01*
X2443Y8271D01*
X2429Y8266D01*
X2386Y8309D01*
X2337D01*
X2337Y10649D01*
X8599Y10649D01*
X8599Y9252D01*
D02*
G37*
G36*
X20156Y9277D02*
X19015D01*
Y9357D01*
X19004D01*
X18998Y9368D01*
X19003Y9375D01*
X19008Y9398D01*
X19003Y9421D01*
X18994Y9434D01*
Y9443D01*
X19003Y9452D01*
X19015D01*
X19024Y9444D01*
Y9440D01*
X19154D01*
Y9454D01*
X20156D01*
Y9277D01*
D02*
G37*
G36*
X20156Y10039D02*
X20156Y9546D01*
X19154D01*
Y9560D01*
X19024D01*
Y9555D01*
X19015Y9547D01*
X18875D01*
Y9452D01*
X18903D01*
Y9434D01*
X18894Y9421D01*
X18889Y9398D01*
X18894Y9375D01*
X18899Y9368D01*
X18893Y9357D01*
X18875D01*
Y9277D01*
X18745D01*
Y9357D01*
X18605D01*
Y9290D01*
X18593Y9277D01*
X18429D01*
Y10039D01*
X20156Y10039D01*
D02*
G37*
G36*
X23825Y10160D02*
X23825D01*
Y9830D01*
X23216D01*
X23139Y9906D01*
Y10141D01*
X18353Y10141D01*
Y9207D01*
X18429Y9131D01*
X18581D01*
Y8725D01*
X18023D01*
Y10141D01*
X15254D01*
Y9571D01*
X15251D01*
Y9441D01*
X15254D01*
Y9207D01*
X15330Y9131D01*
X15483D01*
Y8725D01*
X14924D01*
Y10141D01*
X12155Y10141D01*
Y9207D01*
X12231Y9131D01*
X12384D01*
Y8725D01*
X11825D01*
Y10141D01*
X9031D01*
Y9207D01*
X9107Y9131D01*
X9260D01*
Y8725D01*
X8701D01*
Y10141D01*
X8701D01*
X8701Y10649D01*
X8701D01*
Y10649D01*
X9031D01*
Y10649D01*
X23825Y10649D01*
X23825Y10160D01*
D02*
G37*
G36*
X11723Y10046D02*
Y9157D01*
Y7867D01*
X11774Y7817D01*
Y7804D01*
X11825D01*
Y7601D01*
X12409Y7601D01*
Y7652D01*
X12435D01*
Y7830D01*
X12587Y7830D01*
X12587Y7550D01*
Y7347D01*
X12418D01*
Y7169D01*
X12308D01*
Y7281D01*
X12216Y7372D01*
X11520Y7372D01*
Y6858D01*
X11481D01*
Y6630D01*
X11520D01*
Y6052D01*
X10690D01*
X10690Y9157D01*
D01*
Y9309D01*
X9693D01*
Y9357D01*
X9682D01*
X9676Y9368D01*
X9681Y9375D01*
X9686Y9398D01*
X9681Y9421D01*
X9672Y9434D01*
Y9443D01*
X9681Y9452D01*
X9693D01*
X9703Y9444D01*
Y9440D01*
X9833D01*
Y9560D01*
X9703D01*
Y9555D01*
X9693Y9547D01*
X9553D01*
Y9452D01*
X9581D01*
Y9434D01*
X9572Y9421D01*
X9567Y9398D01*
X9572Y9375D01*
X9577Y9368D01*
X9571Y9357D01*
X9553D01*
Y9309D01*
X9423D01*
Y9357D01*
X9283D01*
Y9309D01*
X9107D01*
Y10046D01*
X11723Y10046D01*
D02*
G37*
G36*
X14797Y10020D02*
Y9150D01*
X14797D01*
Y7867D01*
X14848Y7817D01*
Y7804D01*
X14898D01*
Y7601D01*
X15483Y7601D01*
Y7652D01*
X15508D01*
Y7830D01*
X15660Y7830D01*
X15660Y7550D01*
Y7347D01*
X15491D01*
Y7169D01*
X15381D01*
Y7281D01*
X15290Y7372D01*
X14594Y7372D01*
Y6858D01*
X14555D01*
Y6630D01*
X14594D01*
Y6052D01*
X13832D01*
X13832Y9150D01*
X13832D01*
Y9284D01*
X12817D01*
Y9357D01*
X12803D01*
X12796Y9370D01*
X12802Y9379D01*
X12807Y9401D01*
X12802Y9424D01*
X12793Y9437D01*
Y9452D01*
X12817D01*
X12827Y9444D01*
Y9440D01*
X12957D01*
Y9560D01*
X12827D01*
Y9555D01*
X12817Y9547D01*
X12677D01*
Y9452D01*
X12702D01*
Y9437D01*
X12693Y9424D01*
X12688Y9401D01*
X12693Y9379D01*
X12699Y9370D01*
X12692Y9357D01*
X12677D01*
Y9284D01*
X12547D01*
Y9357D01*
X12407D01*
Y9290D01*
X12401Y9284D01*
X12206D01*
Y10020D01*
X14797Y10020D01*
D02*
G37*
G36*
X17921D02*
Y9131D01*
Y7867D01*
X17972Y7817D01*
Y7804D01*
X18023D01*
Y7601D01*
X18607Y7601D01*
Y7652D01*
X18632D01*
Y7830D01*
X18785Y7830D01*
X18785Y7550D01*
Y7347D01*
X18616D01*
Y7169D01*
X18505D01*
Y7281D01*
X18414Y7372D01*
X17718Y7372D01*
Y6858D01*
X17679D01*
Y6630D01*
X17718D01*
Y6052D01*
X16887D01*
X16887Y9131D01*
D01*
X16880Y9139D01*
Y9284D01*
X15891D01*
Y9357D01*
X15876D01*
X15869Y9370D01*
X15876Y9379D01*
X15880Y9401D01*
X15876Y9424D01*
X15867Y9437D01*
Y9452D01*
X15891D01*
X15900Y9444D01*
Y9440D01*
X16030D01*
Y9560D01*
X15900D01*
Y9555D01*
X15891Y9547D01*
X15751D01*
Y9452D01*
X15775D01*
Y9437D01*
X15766Y9424D01*
X15762Y9401D01*
X15766Y9379D01*
X15772Y9370D01*
X15765Y9357D01*
X15751D01*
Y9284D01*
X15621D01*
Y9357D01*
X15481D01*
Y9284D01*
X15305D01*
Y10020D01*
X17921D01*
X17921Y10020D01*
D02*
G37*
G36*
X13730Y7093D02*
X12816D01*
X12689Y7093D01*
X12384Y6661D01*
X12308Y6661D01*
Y6865D01*
X12319Y6873D01*
X12398Y6952D01*
X12410Y6970D01*
X12414Y6988D01*
X12423D01*
Y7068D01*
X12435D01*
Y7153D01*
X12432Y7155D01*
X12437Y7161D01*
X12438Y7169D01*
Y7327D01*
X12587D01*
X12595Y7328D01*
X12601Y7333D01*
X12606Y7339D01*
X12607Y7347D01*
Y7550D01*
X12607Y7830D01*
X12606Y7837D01*
X12601Y7844D01*
X12595Y7848D01*
X12587Y7850D01*
X12580D01*
X12573Y7861D01*
X12658Y8066D01*
X12658Y8068D01*
X12659Y8070D01*
Y8072D01*
X12660Y8074D01*
X12659Y8076D01*
Y8078D01*
X12658Y8080D01*
X12658Y8082D01*
X12657Y8083D01*
X12656Y8085D01*
X12649Y8096D01*
X12648Y8097D01*
X12647Y8099D01*
X12645Y8100D01*
X12643Y8101D01*
X12642Y8102D01*
X12640Y8103D01*
X12638Y8104D01*
X12636Y8105D01*
X12634D01*
X12632Y8105D01*
X12169Y8105D01*
Y8154D01*
X12183Y8163D01*
X12238Y8218D01*
X12344D01*
X12351Y8211D01*
Y8169D01*
X12471D01*
Y8299D01*
X12429D01*
X12410Y8318D01*
X12391Y8331D01*
X12369Y8335D01*
X12213D01*
X12191Y8331D01*
X12172Y8318D01*
X12126Y8272D01*
X12123Y8273D01*
X12104Y8276D01*
X12086Y8273D01*
X12069Y8266D01*
X12054Y8255D01*
X12043Y8240D01*
X12035Y8223D01*
X12033Y8204D01*
X12035Y8186D01*
X12040Y8176D01*
X12039Y8163D01*
X12039Y8163D01*
X12039Y8163D01*
Y8043D01*
X12095D01*
X12105Y8031D01*
X12104Y8025D01*
X12103Y8024D01*
X12101Y8023D01*
X12039D01*
Y7903D01*
X12039Y7903D01*
X12039D01*
X12032Y7893D01*
X12014Y7875D01*
X12014Y7875D01*
X12014Y7875D01*
X12007Y7865D01*
X12002Y7857D01*
X12002Y7857D01*
X12002Y7857D01*
X12000Y7846D01*
X11999Y7842D01*
X11996Y7831D01*
X11996Y7831D01*
X11996Y7831D01*
Y7703D01*
X11876Y7703D01*
X11876Y8617D01*
X13730Y8617D01*
X13730Y7093D01*
D02*
G37*
G36*
X16803D02*
X15889D01*
X15762Y7093D01*
X15457Y6661D01*
X15381Y6661D01*
Y6865D01*
X15393Y6873D01*
X15471Y6952D01*
X15484Y6970D01*
X15487Y6988D01*
X15497D01*
Y7068D01*
X15508D01*
Y7153D01*
X15506Y7155D01*
X15510Y7161D01*
X15512Y7169D01*
Y7327D01*
X15660D01*
X15668Y7328D01*
X15675Y7333D01*
X15679Y7339D01*
X15681Y7347D01*
Y7550D01*
X15681Y7830D01*
X15679Y7837D01*
X15675Y7844D01*
X15668Y7848D01*
X15660Y7850D01*
X15653D01*
X15646Y7861D01*
X15731Y8066D01*
X15732Y8068D01*
X15733Y8070D01*
Y8072D01*
X15733Y8074D01*
X15733Y8076D01*
Y8078D01*
X15732Y8080D01*
X15731Y8082D01*
X15730Y8083D01*
X15730Y8085D01*
X15723Y8096D01*
X15721Y8097D01*
X15720Y8099D01*
X15718Y8100D01*
X15717Y8101D01*
X15715Y8102D01*
X15713Y8103D01*
X15711Y8104D01*
X15710Y8105D01*
X15708D01*
X15706Y8105D01*
X15243Y8105D01*
Y8151D01*
X15247Y8160D01*
X15247Y8166D01*
X15304Y8222D01*
X15414D01*
X15424Y8211D01*
Y8169D01*
X15544D01*
Y8299D01*
X15502D01*
X15480Y8322D01*
X15461Y8335D01*
X15438Y8339D01*
X15279D01*
X15257Y8335D01*
X15238Y8322D01*
X15165Y8248D01*
X15159Y8248D01*
X15142Y8241D01*
X15127Y8229D01*
X15116Y8215D01*
X15109Y8197D01*
X15106Y8179D01*
X15109Y8160D01*
X15113Y8151D01*
Y8043D01*
X15169D01*
X15179Y8031D01*
X15177Y8025D01*
X15177Y8024D01*
X15174Y8023D01*
X15113D01*
Y7903D01*
X15113Y7903D01*
X15113D01*
X15106Y7893D01*
X15087Y7875D01*
X15087Y7875D01*
X15087Y7875D01*
X15080Y7865D01*
X15075Y7857D01*
X15075Y7857D01*
X15075Y7857D01*
X15073Y7846D01*
X15072Y7842D01*
X15069Y7831D01*
X15069Y7831D01*
X15069Y7831D01*
Y7703D01*
X14949Y7703D01*
X14949Y8617D01*
X16803Y8617D01*
X16803Y7093D01*
D02*
G37*
G36*
X10606D02*
X9691D01*
X9564Y7093D01*
X9260Y6661D01*
X9183Y6661D01*
Y6865D01*
X9195Y6873D01*
X9274Y6952D01*
X9286Y6970D01*
X9290Y6988D01*
X9299D01*
Y7068D01*
X9310D01*
Y7153D01*
X9308Y7155D01*
X9313Y7161D01*
X9314Y7169D01*
Y7327D01*
X9463D01*
X9471Y7328D01*
X9477Y7333D01*
X9482Y7339D01*
X9483Y7347D01*
Y7550D01*
X9483Y7830D01*
X9482Y7837D01*
X9477Y7844D01*
X9471Y7848D01*
X9463Y7850D01*
X9456D01*
X9449Y7861D01*
X9534Y8066D01*
X9534Y8068D01*
X9535Y8070D01*
Y8072D01*
X9535Y8074D01*
X9535Y8076D01*
Y8078D01*
X9534Y8080D01*
X9534Y8082D01*
X9533Y8083D01*
X9532Y8085D01*
X9525Y8096D01*
X9523Y8097D01*
X9522Y8099D01*
X9521Y8100D01*
X9519Y8101D01*
X9517Y8102D01*
X9516Y8103D01*
X9514Y8104D01*
X9512Y8105D01*
X9510D01*
X9508Y8105D01*
X9045Y8105D01*
Y8154D01*
X9058Y8163D01*
X9113Y8218D01*
X9203D01*
X9206Y8215D01*
X9206Y8212D01*
X9219Y8193D01*
X9227Y8188D01*
Y8169D01*
X9347D01*
Y8299D01*
X9287D01*
X9268Y8318D01*
X9249Y8331D01*
X9227Y8335D01*
X9089D01*
X9067Y8331D01*
X9048Y8318D01*
X9002Y8272D01*
X8999Y8273D01*
X8980Y8276D01*
X8962Y8273D01*
X8944Y8266D01*
X8930Y8255D01*
X8918Y8240D01*
X8911Y8223D01*
X8909Y8204D01*
X8911Y8186D01*
X8915Y8176D01*
X8915Y8163D01*
X8915Y8163D01*
X8915Y8163D01*
Y8043D01*
X8971D01*
X8981Y8031D01*
X8980Y8025D01*
X8979Y8024D01*
X8976Y8023D01*
X8915D01*
Y7903D01*
X8915Y7903D01*
X8915D01*
X8908Y7893D01*
X8890Y7875D01*
X8890Y7875D01*
X8890Y7875D01*
X8883Y7865D01*
X8878Y7857D01*
X8878Y7857D01*
X8878Y7857D01*
X8875Y7846D01*
X8875Y7842D01*
X8871Y7831D01*
X8871Y7831D01*
X8871Y7831D01*
Y7703D01*
X8752Y7703D01*
X8752Y8617D01*
X10606Y8617D01*
X10606Y7093D01*
D02*
G37*
%LPC*%
G36*
X9474Y8466D02*
X9452Y8463D01*
X9432Y8455D01*
X9415Y8442D01*
X9401Y8424D01*
X9393Y8404D01*
X9390Y8382D01*
X9393Y8360D01*
X9401Y8340D01*
X9415Y8322D01*
X9428Y8312D01*
X9427Y8299D01*
X9427D01*
Y8169D01*
X9547D01*
Y8299D01*
X9525D01*
X9520Y8312D01*
X9534Y8322D01*
X9547Y8340D01*
X9556Y8360D01*
X9558Y8382D01*
X9556Y8404D01*
X9547Y8424D01*
X9534Y8442D01*
X9516Y8455D01*
X9496Y8463D01*
X9474Y8466D01*
D02*
G37*
G36*
X2845Y9753D02*
X2819Y9749D01*
X2794Y9739D01*
X2773Y9723D01*
X2757Y9702D01*
X2747Y9678D01*
X2744Y9652D01*
X2747Y9626D01*
X2757Y9602D01*
X2773Y9581D01*
X2794Y9565D01*
X2819Y9555D01*
X2845Y9551D01*
X2871Y9555D01*
X2895Y9565D01*
X2916Y9581D01*
X2932Y9602D01*
X2938Y9616D01*
X3440D01*
X3914Y9142D01*
X3914Y9140D01*
X3910Y9129D01*
X3495D01*
X3480Y9144D01*
X3468Y9152D01*
X3454Y9154D01*
X3441Y9152D01*
X3429Y9144D01*
X3313Y9027D01*
X2938D01*
X2932Y9042D01*
X2916Y9063D01*
X2895Y9079D01*
X2871Y9089D01*
X2845Y9092D01*
X2819Y9089D01*
X2794Y9079D01*
X2773Y9063D01*
X2757Y9042D01*
X2747Y9018D01*
X2744Y8992D01*
X2747Y8965D01*
X2757Y8941D01*
X2773Y8920D01*
X2794Y8904D01*
X2819Y8894D01*
X2845Y8891D01*
X2871Y8894D01*
X2895Y8904D01*
X2916Y8920D01*
X2932Y8941D01*
X2938Y8956D01*
X3327D01*
X3341Y8959D01*
X3353Y8966D01*
X3454Y9068D01*
X3455Y9068D01*
X3466Y9060D01*
X3480Y9058D01*
X4254D01*
X4255Y9056D01*
X4272Y9044D01*
X4293Y9040D01*
X4313Y9044D01*
X4330Y9056D01*
X4341Y9073D01*
X4345Y9093D01*
X4341Y9113D01*
X4338Y9118D01*
X4345Y9131D01*
X4380D01*
X4381Y9129D01*
X4398Y9118D01*
X4419Y9114D01*
X4439Y9118D01*
X4456Y9129D01*
X4467Y9146D01*
X4471Y9166D01*
X4467Y9187D01*
X4456Y9204D01*
X4439Y9215D01*
X4419Y9219D01*
X4398Y9215D01*
X4381Y9204D01*
X4380Y9202D01*
X3955D01*
X3480Y9677D01*
X3468Y9685D01*
X3454Y9688D01*
X2938D01*
X2932Y9702D01*
X2916Y9723D01*
X2895Y9739D01*
X2871Y9749D01*
X2845Y9753D01*
D02*
G37*
G36*
Y9499D02*
X2819Y9495D01*
X2794Y9485D01*
X2773Y9469D01*
X2757Y9448D01*
X2747Y9424D01*
X2744Y9398D01*
X2747Y9372D01*
X2757Y9348D01*
X2773Y9327D01*
X2794Y9311D01*
X2819Y9301D01*
X2845Y9297D01*
X2871Y9301D01*
X2895Y9311D01*
X2916Y9327D01*
X2932Y9348D01*
X2938Y9362D01*
X3248D01*
Y9308D01*
X3358D01*
Y9438D01*
X3248D01*
Y9434D01*
X2938D01*
X2932Y9448D01*
X2916Y9469D01*
X2895Y9485D01*
X2871Y9495D01*
X2845Y9499D01*
D02*
G37*
G36*
X12598Y8492D02*
X12577Y8489D01*
X12556Y8480D01*
X12539Y8467D01*
X12525Y8450D01*
X12517Y8429D01*
X12514Y8407D01*
X12517Y8386D01*
X12525Y8365D01*
X12539Y8348D01*
X12556Y8334D01*
X12565Y8331D01*
Y8299D01*
X12551D01*
Y8169D01*
X12671D01*
Y8299D01*
X12632D01*
Y8331D01*
X12641Y8334D01*
X12658Y8348D01*
X12671Y8365D01*
X12680Y8386D01*
X12683Y8407D01*
X12680Y8429D01*
X12671Y8450D01*
X12658Y8467D01*
X12641Y8480D01*
X12620Y8489D01*
X12598Y8492D01*
D02*
G37*
G36*
X4325Y8174D02*
X4304Y8170D01*
X4287Y8159D01*
X4285Y8155D01*
X3298D01*
X3295Y8159D01*
X3278Y8170D01*
X3258Y8174D01*
X3238Y8170D01*
X3220Y8159D01*
X3209Y8142D01*
X3205Y8121D01*
X3209Y8101D01*
X3220Y8084D01*
X3238Y8073D01*
X3258Y8069D01*
X3278Y8073D01*
X3295Y8084D01*
X3298Y8088D01*
X4285D01*
X4287Y8084D01*
X4304Y8073D01*
X4325Y8069D01*
X4345Y8073D01*
X4362Y8084D01*
X4373Y8101D01*
X4377Y8121D01*
X4373Y8142D01*
X4362Y8159D01*
X4345Y8170D01*
X4325Y8174D01*
D02*
G37*
G36*
X2839Y10394D02*
X2812Y10391D01*
X2788Y10381D01*
X2767Y10365D01*
X2751Y10344D01*
X2741Y10319D01*
X2738Y10293D01*
X2741Y10267D01*
X2751Y10243D01*
X2767Y10222D01*
X2788Y10206D01*
X2812Y10196D01*
X2839Y10192D01*
X2865Y10196D01*
X2889Y10206D01*
X2910Y10222D01*
X2926Y10243D01*
X2932Y10258D01*
X3267D01*
Y10228D01*
X3377D01*
Y10358D01*
X3267D01*
Y10329D01*
X2932D01*
X2926Y10344D01*
X2910Y10365D01*
X2889Y10381D01*
X2865Y10391D01*
X2839Y10394D01*
D02*
G37*
G36*
X23241Y8002D02*
X23216Y7999D01*
X23192Y7989D01*
X23172Y7974D01*
X23157Y7954D01*
X23147Y7930D01*
X23147Y7925D01*
X22964D01*
Y7934D01*
X22834D01*
Y7924D01*
X22824Y7922D01*
X22811Y7913D01*
X22794Y7916D01*
X22734D01*
X22711Y7912D01*
X22691Y7898D01*
X22678Y7878D01*
X22673Y7855D01*
X22678Y7832D01*
X22691Y7812D01*
X22711Y7798D01*
X22714Y7798D01*
Y7785D01*
X22711Y7785D01*
X22691Y7771D01*
X22678Y7751D01*
X22673Y7728D01*
X22678Y7705D01*
X22691Y7685D01*
X22711Y7671D01*
X22714Y7671D01*
Y7658D01*
X22711Y7658D01*
X22691Y7644D01*
X22678Y7624D01*
X22673Y7601D01*
X22678Y7578D01*
X22691Y7558D01*
X22711Y7544D01*
X22714Y7544D01*
Y7531D01*
X22711Y7531D01*
X22691Y7517D01*
X22678Y7497D01*
X22673Y7474D01*
X22678Y7451D01*
X22691Y7431D01*
X22711Y7417D01*
X22734Y7413D01*
X22794D01*
X22818Y7417D01*
X22819Y7418D01*
X23127Y7110D01*
X23127Y7110D01*
X23142Y7100D01*
X23156Y7098D01*
X23157Y7094D01*
X23172Y7074D01*
X23192Y7059D01*
X23216Y7049D01*
X23241Y7046D01*
X23266Y7049D01*
X23290Y7059D01*
X23310Y7074D01*
X23325Y7094D01*
X23335Y7118D01*
X23338Y7143D01*
X23335Y7168D01*
X23325Y7192D01*
X23310Y7212D01*
X23290Y7227D01*
X23266Y7237D01*
X23241Y7240D01*
X23216Y7237D01*
X23192Y7227D01*
X23172Y7212D01*
X23171Y7210D01*
X23159Y7210D01*
X22862Y7507D01*
X22847Y7517D01*
X22835Y7519D01*
X22818Y7531D01*
X22815Y7531D01*
Y7544D01*
X22818Y7544D01*
X22833Y7555D01*
X22937D01*
X23127Y7364D01*
X23127Y7364D01*
X23142Y7354D01*
X23156Y7352D01*
X23157Y7348D01*
X23172Y7328D01*
X23192Y7313D01*
X23216Y7303D01*
X23241Y7300D01*
X23266Y7303D01*
X23290Y7313D01*
X23310Y7328D01*
X23325Y7348D01*
X23335Y7372D01*
X23338Y7397D01*
X23335Y7422D01*
X23325Y7446D01*
X23310Y7466D01*
X23290Y7481D01*
X23266Y7491D01*
X23241Y7494D01*
X23216Y7491D01*
X23192Y7481D01*
X23172Y7466D01*
X23171Y7464D01*
X23159Y7464D01*
X22989Y7634D01*
X22974Y7644D01*
X22956Y7647D01*
X22956Y7647D01*
X22833D01*
X22818Y7658D01*
X22815Y7658D01*
Y7671D01*
X22818Y7671D01*
X22822Y7674D01*
X22834Y7674D01*
Y7674D01*
X22964D01*
Y7683D01*
X23062D01*
X23127Y7618D01*
X23127Y7618D01*
X23142Y7608D01*
X23156Y7606D01*
X23157Y7602D01*
X23172Y7582D01*
X23192Y7567D01*
X23216Y7557D01*
X23241Y7554D01*
X23266Y7557D01*
X23290Y7567D01*
X23310Y7582D01*
X23325Y7602D01*
X23335Y7626D01*
X23338Y7651D01*
X23335Y7676D01*
X23325Y7700D01*
X23310Y7720D01*
X23290Y7735D01*
X23266Y7745D01*
X23241Y7748D01*
X23216Y7745D01*
X23192Y7735D01*
X23172Y7720D01*
X23171Y7718D01*
X23159Y7718D01*
X23114Y7762D01*
X23099Y7772D01*
X23082Y7775D01*
X23082Y7775D01*
X22964D01*
Y7784D01*
X22834D01*
Y7784D01*
X22827Y7783D01*
X22822Y7787D01*
X22821Y7788D01*
X22823Y7802D01*
X22838Y7812D01*
X22840Y7815D01*
X22850Y7822D01*
X22852Y7824D01*
X22964D01*
Y7833D01*
X23177D01*
X23192Y7821D01*
X23216Y7811D01*
X23241Y7808D01*
X23266Y7811D01*
X23290Y7821D01*
X23310Y7836D01*
X23325Y7856D01*
X23335Y7880D01*
X23338Y7905D01*
X23335Y7930D01*
X23325Y7954D01*
X23310Y7974D01*
X23290Y7989D01*
X23266Y7999D01*
X23241Y8002D01*
D02*
G37*
G36*
X18644Y9787D02*
X18622Y9784D01*
X18601Y9776D01*
X18584Y9762D01*
X18571Y9745D01*
X18562Y9725D01*
X18559Y9703D01*
X18562Y9681D01*
X18571Y9661D01*
X18584Y9643D01*
X18601Y9630D01*
X18608Y9627D01*
Y9571D01*
X18525D01*
Y9441D01*
X18635D01*
Y9444D01*
X18645Y9452D01*
X18652Y9451D01*
X18698D01*
X18716Y9455D01*
X18732Y9465D01*
X18742Y9481D01*
X18746Y9499D01*
X18742Y9518D01*
X18732Y9534D01*
X18716Y9544D01*
X18698Y9548D01*
X18679D01*
Y9627D01*
X18686Y9630D01*
X18703Y9643D01*
X18717Y9661D01*
X18725Y9681D01*
X18728Y9703D01*
X18725Y9725D01*
X18717Y9745D01*
X18703Y9762D01*
X18686Y9776D01*
X18665Y9784D01*
X18644Y9787D01*
D02*
G37*
G36*
X9347Y9762D02*
X9325Y9759D01*
X9305Y9750D01*
X9288Y9737D01*
X9274Y9720D01*
X9266Y9699D01*
X9263Y9677D01*
X9266Y9656D01*
X9274Y9635D01*
X9288Y9618D01*
X9299Y9609D01*
X9295Y9596D01*
X9203D01*
Y9466D01*
X9277D01*
X9290Y9464D01*
X9299D01*
X9312Y9455D01*
X9331Y9451D01*
X9376D01*
X9394Y9455D01*
X9410Y9465D01*
X9420Y9481D01*
X9424Y9499D01*
X9420Y9518D01*
X9410Y9534D01*
X9394Y9544D01*
X9389Y9545D01*
Y9604D01*
X9389Y9604D01*
X9407Y9618D01*
X9420Y9635D01*
X9429Y9656D01*
X9431Y9677D01*
X9429Y9699D01*
X9420Y9720D01*
X9407Y9737D01*
X9389Y9750D01*
X9369Y9759D01*
X9347Y9762D01*
D02*
G37*
G36*
X12471Y9711D02*
X12450Y9708D01*
X12429Y9700D01*
X12412Y9686D01*
X12398Y9669D01*
X12390Y9648D01*
X12387Y9627D01*
X12390Y9605D01*
X12398Y9584D01*
X12400Y9582D01*
X12394Y9571D01*
X12328D01*
Y9441D01*
X12438D01*
Y9444D01*
X12447Y9452D01*
X12455Y9451D01*
X12500D01*
X12518Y9455D01*
X12534Y9465D01*
X12545Y9481D01*
X12548Y9499D01*
X12545Y9518D01*
X12534Y9534D01*
X12520Y9543D01*
X12518Y9551D01*
X12518Y9557D01*
X12531Y9567D01*
X12544Y9584D01*
X12553Y9605D01*
X12556Y9627D01*
X12553Y9648D01*
X12544Y9669D01*
X12531Y9686D01*
X12514Y9700D01*
X12493Y9708D01*
X12471Y9711D01*
D02*
G37*
G36*
X15545Y9736D02*
X15523Y9733D01*
X15503Y9725D01*
X15485Y9712D01*
X15472Y9694D01*
X15463Y9674D01*
X15461Y9652D01*
X15463Y9630D01*
X15472Y9610D01*
X15485Y9592D01*
X15497Y9584D01*
X15492Y9571D01*
X15401D01*
Y9441D01*
X15511D01*
Y9444D01*
X15521Y9452D01*
X15528Y9451D01*
X15573D01*
X15592Y9455D01*
X15608Y9465D01*
X15618Y9481D01*
X15622Y9499D01*
X15618Y9518D01*
X15608Y9534D01*
X15592Y9544D01*
X15586Y9545D01*
Y9579D01*
X15587Y9579D01*
X15604Y9592D01*
X15618Y9610D01*
X15626Y9630D01*
X15629Y9652D01*
X15626Y9674D01*
X15618Y9694D01*
X15604Y9712D01*
X15587Y9725D01*
X15567Y9733D01*
X15545Y9736D01*
D02*
G37*
G36*
X23241Y9272D02*
X23216Y9269D01*
X23192Y9259D01*
X23172Y9244D01*
X23157Y9224D01*
X23147Y9200D01*
X23144Y9175D01*
X23147Y9150D01*
X23157Y9126D01*
X23172Y9106D01*
X23192Y9091D01*
X23216Y9081D01*
X23241Y9078D01*
X23266Y9081D01*
X23290Y9091D01*
X23310Y9106D01*
X23325Y9126D01*
X23335Y9150D01*
X23338Y9175D01*
X23335Y9200D01*
X23325Y9224D01*
X23310Y9244D01*
X23290Y9259D01*
X23266Y9269D01*
X23241Y9272D01*
D02*
G37*
G36*
X8266Y6858D02*
X8109D01*
Y6630D01*
X8266D01*
Y6858D01*
D02*
G37*
G36*
X21680Y7406D02*
X21658Y7403D01*
X21638Y7395D01*
X21621Y7381D01*
X21607Y7364D01*
X21599Y7343D01*
X21596Y7322D01*
X21599Y7300D01*
X21607Y7279D01*
X21621Y7262D01*
X21638Y7249D01*
X21645Y7246D01*
Y6687D01*
X21647Y6673D01*
X21655Y6661D01*
X21835Y6481D01*
X21847Y6474D01*
X21860Y6471D01*
X22184D01*
X22189Y6463D01*
X22209Y6450D01*
X22232Y6445D01*
X22292D01*
X22316Y6450D01*
X22336Y6463D01*
X22349Y6483D01*
X22354Y6507D01*
X22349Y6530D01*
X22336Y6550D01*
X22316Y6563D01*
X22313Y6564D01*
Y6576D01*
X22316Y6577D01*
X22336Y6590D01*
X22349Y6610D01*
X22354Y6634D01*
X22349Y6657D01*
X22336Y6677D01*
X22319Y6688D01*
X22323Y6701D01*
X22352D01*
Y6821D01*
X22172D01*
X22164Y6826D01*
Y6826D01*
X22150D01*
Y6888D01*
X22163Y6898D01*
X22177Y6916D01*
X22185Y6936D01*
X22188Y6958D01*
X22185Y6980D01*
X22177Y7000D01*
X22163Y7017D01*
X22146Y7031D01*
X22126Y7039D01*
X22104Y7042D01*
X22082Y7039D01*
X22062Y7031D01*
X22044Y7017D01*
X22031Y7000D01*
X22023Y6980D01*
X22020Y6958D01*
X22023Y6936D01*
X22031Y6916D01*
X22044Y6898D01*
X22058Y6888D01*
Y6826D01*
X22044D01*
Y6696D01*
X22164D01*
Y6696D01*
X22172Y6701D01*
X22202D01*
X22206Y6688D01*
X22189Y6677D01*
X22186Y6672D01*
X21924D01*
X21818Y6778D01*
Y7043D01*
X21824Y7045D01*
X21841Y7059D01*
X21855Y7076D01*
X21863Y7097D01*
X21866Y7118D01*
X21863Y7140D01*
X21855Y7161D01*
X21841Y7178D01*
X21824Y7191D01*
X21804Y7200D01*
X21782Y7203D01*
X21760Y7200D01*
X21740Y7191D01*
X21729Y7183D01*
X21716Y7189D01*
Y7246D01*
X21722Y7249D01*
X21740Y7262D01*
X21753Y7279D01*
X21762Y7300D01*
X21764Y7322D01*
X21762Y7343D01*
X21753Y7364D01*
X21740Y7381D01*
X21722Y7395D01*
X21702Y7403D01*
X21680Y7406D01*
D02*
G37*
G36*
X2845Y8838D02*
X2819Y8835D01*
X2794Y8825D01*
X2773Y8809D01*
X2757Y8788D01*
X2747Y8764D01*
X2744Y8738D01*
X2747Y8711D01*
X2757Y8687D01*
X2773Y8666D01*
X2794Y8650D01*
X2819Y8640D01*
X2845Y8637D01*
X2871Y8640D01*
X2895Y8650D01*
X2916Y8666D01*
X2932Y8687D01*
X2938Y8702D01*
X3248D01*
Y8647D01*
X3358D01*
Y8777D01*
X3248D01*
Y8774D01*
X2938D01*
X2932Y8788D01*
X2916Y8809D01*
X2895Y8825D01*
X2871Y8835D01*
X2845Y8838D01*
D02*
G37*
G36*
X2841Y6729D02*
X2816Y6726D01*
X2793Y6716D01*
X2772Y6701D01*
X2757Y6681D01*
X2747Y6657D01*
X2744Y6632D01*
X2747Y6607D01*
X2757Y6583D01*
X2772Y6563D01*
X2793Y6548D01*
X2816Y6538D01*
X2841Y6535D01*
X2866Y6538D01*
X2890Y6548D01*
X2910Y6563D01*
X2925Y6583D01*
X2935Y6607D01*
X2938Y6632D01*
X2935Y6657D01*
X2925Y6681D01*
X2910Y6701D01*
X2890Y6716D01*
X2866Y6726D01*
X2841Y6729D01*
D02*
G37*
G36*
X15672Y8492D02*
X15650Y8489D01*
X15630Y8480D01*
X15612Y8467D01*
X15599Y8450D01*
X15590Y8429D01*
X15588Y8407D01*
X15590Y8386D01*
X15599Y8365D01*
X15612Y8348D01*
X15630Y8334D01*
X15638Y8331D01*
Y8299D01*
X15624D01*
Y8169D01*
X15744D01*
Y8299D01*
X15705D01*
Y8331D01*
X15714Y8334D01*
X15731Y8348D01*
X15745Y8365D01*
X15753Y8386D01*
X15756Y8407D01*
X15753Y8429D01*
X15745Y8450D01*
X15731Y8467D01*
X15714Y8480D01*
X15694Y8489D01*
X15672Y8492D01*
D02*
G37*
G36*
X18796D02*
X18774Y8489D01*
X18754Y8480D01*
X18736Y8467D01*
X18723Y8450D01*
X18715Y8429D01*
X18712Y8407D01*
X18715Y8386D01*
X18723Y8365D01*
X18736Y8348D01*
X18754Y8334D01*
X18763Y8331D01*
Y8299D01*
X18748D01*
Y8169D01*
X18868D01*
Y8299D01*
X18829D01*
Y8331D01*
X18838Y8334D01*
X18856Y8348D01*
X18869Y8365D01*
X18877Y8386D01*
X18880Y8407D01*
X18877Y8429D01*
X18869Y8450D01*
X18856Y8467D01*
X18838Y8480D01*
X18818Y8489D01*
X18796Y8492D01*
D02*
G37*
G36*
X11390Y6858D02*
X11233D01*
Y6630D01*
X11390D01*
Y6858D01*
D02*
G37*
G36*
X23241Y6986D02*
X23216Y6983D01*
X23192Y6973D01*
X23172Y6958D01*
X23160Y6942D01*
X23057D01*
X23057Y6942D01*
X23040Y6938D01*
X23025Y6928D01*
X23025Y6928D01*
X22911Y6814D01*
X22832D01*
Y6814D01*
X22820Y6814D01*
X22816Y6817D01*
X22792Y6822D01*
X22732D01*
X22709Y6817D01*
X22689Y6804D01*
X22676Y6784D01*
X22671Y6761D01*
X22676Y6737D01*
X22689Y6717D01*
X22709Y6704D01*
X22712Y6703D01*
Y6691D01*
X22709Y6690D01*
X22689Y6677D01*
X22676Y6657D01*
X22671Y6634D01*
X22676Y6610D01*
X22689Y6590D01*
X22709Y6577D01*
X22712Y6576D01*
Y6564D01*
X22709Y6563D01*
X22689Y6550D01*
X22676Y6530D01*
X22671Y6507D01*
X22676Y6483D01*
X22689Y6463D01*
X22709Y6450D01*
X22712Y6449D01*
Y6437D01*
X22709Y6436D01*
X22689Y6423D01*
X22676Y6403D01*
X22671Y6380D01*
X22676Y6356D01*
X22689Y6336D01*
X22709Y6323D01*
X22732Y6318D01*
X22792D01*
X22816Y6323D01*
X22831Y6333D01*
X22832D01*
X22968Y6197D01*
X22968Y6197D01*
X22983Y6187D01*
X23001Y6183D01*
X23001Y6183D01*
X23058D01*
X23121Y6120D01*
X23136Y6110D01*
X23146Y6108D01*
X23147Y6102D01*
X23157Y6078D01*
X23172Y6058D01*
X23192Y6043D01*
X23216Y6033D01*
X23241Y6030D01*
X23266Y6033D01*
X23290Y6043D01*
X23310Y6058D01*
X23325Y6078D01*
X23335Y6102D01*
X23338Y6127D01*
X23335Y6152D01*
X23325Y6176D01*
X23310Y6196D01*
X23290Y6211D01*
X23266Y6221D01*
X23241Y6224D01*
X23216Y6221D01*
X23192Y6211D01*
X23177Y6199D01*
X23173D01*
X23110Y6262D01*
X23095Y6272D01*
X23077Y6276D01*
X23077Y6276D01*
X23020D01*
X22884Y6412D01*
X22869Y6422D01*
X22851Y6426D01*
X22851Y6426D01*
X22831D01*
X22816Y6436D01*
X22813Y6437D01*
Y6449D01*
X22816Y6450D01*
X22831Y6460D01*
X23086D01*
X23121Y6425D01*
X23121Y6425D01*
X23136Y6415D01*
X23136Y6415D01*
X23147Y6404D01*
X23144Y6381D01*
X23147Y6356D01*
X23157Y6332D01*
X23172Y6312D01*
X23192Y6297D01*
X23216Y6287D01*
X23241Y6284D01*
X23266Y6287D01*
X23290Y6297D01*
X23310Y6312D01*
X23325Y6332D01*
X23335Y6356D01*
X23338Y6381D01*
X23335Y6406D01*
X23325Y6430D01*
X23310Y6450D01*
X23290Y6465D01*
X23266Y6475D01*
X23241Y6478D01*
X23216Y6475D01*
X23210Y6472D01*
X23192Y6491D01*
X23177Y6501D01*
X23176Y6501D01*
X23138Y6539D01*
X23123Y6549D01*
X23105Y6553D01*
X23105Y6553D01*
X23039D01*
X23038Y6566D01*
X23043Y6567D01*
X23058Y6577D01*
X23077Y6595D01*
X23153D01*
X23157Y6586D01*
X23172Y6566D01*
X23192Y6551D01*
X23216Y6541D01*
X23241Y6538D01*
X23266Y6541D01*
X23290Y6551D01*
X23310Y6566D01*
X23325Y6586D01*
X23335Y6610D01*
X23338Y6635D01*
X23335Y6660D01*
X23325Y6684D01*
X23310Y6704D01*
X23290Y6719D01*
X23266Y6729D01*
X23241Y6732D01*
X23216Y6729D01*
X23192Y6719D01*
X23172Y6704D01*
X23160Y6688D01*
X23057D01*
X23057Y6688D01*
X23040Y6684D01*
X23025Y6674D01*
X23006Y6656D01*
X22962D01*
Y6664D01*
X22852D01*
X22850Y6666D01*
X22837Y6675D01*
X22836Y6677D01*
X22821Y6687D01*
X22819Y6701D01*
X22820Y6702D01*
X22825Y6706D01*
X22832Y6704D01*
Y6704D01*
X22962D01*
Y6735D01*
X23077Y6849D01*
X23153D01*
X23157Y6840D01*
X23172Y6820D01*
X23192Y6805D01*
X23216Y6795D01*
X23241Y6792D01*
X23266Y6795D01*
X23290Y6805D01*
X23310Y6820D01*
X23325Y6840D01*
X23335Y6864D01*
X23338Y6889D01*
X23335Y6914D01*
X23325Y6938D01*
X23310Y6958D01*
X23290Y6973D01*
X23266Y6983D01*
X23241Y6986D01*
D02*
G37*
G36*
Y9018D02*
X23216Y9015D01*
X23192Y9005D01*
X23172Y8990D01*
X23157Y8970D01*
X23147Y8946D01*
X23144Y8921D01*
X23147Y8896D01*
X23157Y8872D01*
X23172Y8852D01*
X23192Y8837D01*
X23216Y8827D01*
X23241Y8824D01*
X23266Y8827D01*
X23290Y8837D01*
X23310Y8852D01*
X23325Y8872D01*
X23335Y8896D01*
X23338Y8921D01*
X23335Y8946D01*
X23325Y8970D01*
X23310Y8990D01*
X23290Y9005D01*
X23266Y9015D01*
X23241Y9018D01*
D02*
G37*
G36*
X6807Y8892D02*
X6787Y8888D01*
X6770Y8877D01*
X6767Y8873D01*
X5866D01*
X5862Y8875D01*
X5842Y8879D01*
X5822Y8875D01*
X5805Y8864D01*
X5793Y8847D01*
X5789Y8826D01*
X5790Y8823D01*
X5779Y8813D01*
X5766Y8816D01*
X5746Y8812D01*
X5728Y8800D01*
X5717Y8783D01*
X5713Y8763D01*
X5717Y8743D01*
X5728Y8726D01*
X5746Y8714D01*
X5766Y8710D01*
X5786Y8714D01*
X5803Y8726D01*
X5806Y8730D01*
X6843D01*
X6858Y8720D01*
X6878Y8716D01*
X6898Y8720D01*
X6915Y8731D01*
X6927Y8748D01*
X6931Y8768D01*
X6927Y8789D01*
X6915Y8806D01*
X6898Y8817D01*
X6878Y8821D01*
X6869Y8819D01*
X6858Y8830D01*
X6860Y8839D01*
X6856Y8859D01*
X6845Y8877D01*
X6827Y8888D01*
X6807Y8892D01*
D02*
G37*
G36*
X17588Y6858D02*
X17431D01*
Y6630D01*
X17588D01*
Y6858D01*
D02*
G37*
G36*
X14463D02*
X14307D01*
Y6630D01*
X14463D01*
Y6858D01*
D02*
G37*
G36*
X2841Y6279D02*
X2816Y6276D01*
X2793Y6266D01*
X2772Y6251D01*
X2757Y6231D01*
X2747Y6207D01*
X2744Y6182D01*
X2747Y6157D01*
X2757Y6133D01*
X2772Y6113D01*
X2793Y6098D01*
X2816Y6088D01*
X2841Y6085D01*
X2866Y6088D01*
X2890Y6098D01*
X2910Y6113D01*
X2925Y6133D01*
X2935Y6157D01*
X2938Y6182D01*
X2935Y6207D01*
X2925Y6231D01*
X2910Y6251D01*
X2890Y6266D01*
X2866Y6276D01*
X2841Y6279D01*
D02*
G37*
%LPD*%
G36*
X21740Y7045D02*
X21746Y7043D01*
Y6763D01*
X21749Y6749D01*
X21756Y6737D01*
X21883Y6610D01*
X21895Y6603D01*
X21909Y6600D01*
X22183D01*
X22189Y6590D01*
X22209Y6577D01*
X22212Y6576D01*
Y6564D01*
X22209Y6563D01*
X22189Y6550D01*
X22184Y6542D01*
X21875D01*
X21716Y6701D01*
Y7048D01*
X21729Y7054D01*
X21740Y7045D01*
D02*
G37*
D10*
X22762Y6380D02*
D03*
Y6507D02*
D03*
Y6634D02*
D03*
Y6761D02*
D03*
X22262Y6380D02*
D03*
Y6507D02*
D03*
Y6634D02*
D03*
X22764Y7474D02*
D03*
Y7601D02*
D03*
Y7728D02*
D03*
Y7855D02*
D03*
X22264Y7474D02*
D03*
Y7601D02*
D03*
Y7728D02*
D03*
D11*
X22262Y6761D02*
D03*
X22264Y7855D02*
D03*
D12*
X22897Y6609D02*
D03*
Y6759D02*
D03*
X22899Y7879D02*
D03*
Y7729D02*
D03*
X13462Y5714D02*
D03*
Y5564D02*
D03*
Y5333D02*
D03*
Y5183D02*
D03*
X9158Y8184D02*
D03*
Y8034D02*
D03*
X9234Y7043D02*
D03*
Y7193D02*
D03*
X12282Y8184D02*
D03*
Y8034D02*
D03*
X12358Y7043D02*
D03*
Y7193D02*
D03*
X18480Y8184D02*
D03*
Y8034D02*
D03*
X18556Y7043D02*
D03*
Y7193D02*
D03*
X15432Y7043D02*
D03*
Y7193D02*
D03*
X15356Y8184D02*
D03*
Y8034D02*
D03*
D13*
X22106Y7855D02*
D03*
X21966D02*
D03*
X22104Y6761D02*
D03*
X21964D02*
D03*
X9287Y8234D02*
D03*
X9487D02*
D03*
X9387Y8034D02*
D03*
X12411Y8234D02*
D03*
X12611D02*
D03*
X12511Y8034D02*
D03*
X18608Y8234D02*
D03*
X18808D02*
D03*
X18708Y8034D02*
D03*
X15484Y8234D02*
D03*
X15684D02*
D03*
X15584Y8034D02*
D03*
D14*
X3322Y10293D02*
D03*
X3472D02*
D03*
X9081Y7034D02*
D03*
X8931D02*
D03*
X9360Y7753D02*
D03*
X9210D02*
D03*
X9108Y9531D02*
D03*
X9258D02*
D03*
X8801Y7034D02*
D03*
X8651D02*
D03*
X12205D02*
D03*
X12055D02*
D03*
X12484Y7753D02*
D03*
X12334D02*
D03*
X12233Y9506D02*
D03*
X12383D02*
D03*
X11925Y7034D02*
D03*
X11775D02*
D03*
X18402D02*
D03*
X18252D02*
D03*
X18682Y7753D02*
D03*
X18532D02*
D03*
X18430Y9506D02*
D03*
X18580D02*
D03*
X18123Y7034D02*
D03*
X17973D02*
D03*
X14999D02*
D03*
X14849D02*
D03*
X15306Y9506D02*
D03*
X15456D02*
D03*
X15558Y7753D02*
D03*
X15408D02*
D03*
X15278Y7034D02*
D03*
X15128D02*
D03*
X19735Y3073D02*
D03*
X19585D02*
D03*
X19735Y1905D02*
D03*
X19585D02*
D03*
X3176Y4343D02*
D03*
X3326D02*
D03*
X3303Y9373D02*
D03*
X3453D02*
D03*
X3303Y8712D02*
D03*
X3453D02*
D03*
D15*
X20867Y10357D02*
D03*
Y9876D02*
D03*
D16*
X8540Y8007D02*
D03*
X8810D02*
D03*
X8683Y4832D02*
D03*
X8413D02*
D03*
X8683Y4528D02*
D03*
X8413D02*
D03*
X11665Y8007D02*
D03*
X11935D02*
D03*
X11808Y4832D02*
D03*
X11538D02*
D03*
X11808Y4528D02*
D03*
X11538D02*
D03*
X17862Y8007D02*
D03*
X18132D02*
D03*
X18005Y4832D02*
D03*
X17735D02*
D03*
X18005Y4528D02*
D03*
X17735D02*
D03*
X14881D02*
D03*
X14611D02*
D03*
X14881Y4832D02*
D03*
X14611D02*
D03*
X14738Y8007D02*
D03*
X15008D02*
D03*
D17*
X8866Y7493D02*
D03*
X11990D02*
D03*
X18188D02*
D03*
X15063D02*
D03*
D18*
X8675Y7233D02*
D03*
X8802D02*
D03*
X8929D02*
D03*
X9056D02*
D03*
X8675Y7753D02*
D03*
X8802D02*
D03*
X8929D02*
D03*
X9056D02*
D03*
X11800Y7233D02*
D03*
X11927D02*
D03*
X12054D02*
D03*
X12181D02*
D03*
X11800Y7753D02*
D03*
X11927D02*
D03*
X12054D02*
D03*
X12181D02*
D03*
X17997Y7233D02*
D03*
X18124D02*
D03*
X18251D02*
D03*
X18378D02*
D03*
X17997Y7753D02*
D03*
X18124D02*
D03*
X18251D02*
D03*
X18378D02*
D03*
X14873Y7233D02*
D03*
X15000D02*
D03*
X15127D02*
D03*
X15254D02*
D03*
X14873Y7753D02*
D03*
X15000D02*
D03*
X15127D02*
D03*
X15254D02*
D03*
D19*
X9641Y6771D02*
D03*
Y7211D02*
D03*
X12765Y6771D02*
D03*
Y7211D02*
D03*
X18962Y6771D02*
D03*
Y7211D02*
D03*
X15838Y6771D02*
D03*
Y7211D02*
D03*
D20*
X10453Y6466D02*
D03*
Y6196D02*
D03*
X13578Y6466D02*
D03*
Y6196D02*
D03*
X19775Y6466D02*
D03*
Y6196D02*
D03*
X16651Y6466D02*
D03*
Y6196D02*
D03*
D21*
X9179Y5108D02*
D03*
X8931D02*
D03*
X8683D02*
D03*
X8435D02*
D03*
X8187D02*
D03*
X9179Y6744D02*
D03*
X8931D02*
D03*
X8683D02*
D03*
X8435D02*
D03*
X8187D02*
D03*
X12304Y5108D02*
D03*
X12056D02*
D03*
X11808D02*
D03*
X11560D02*
D03*
X11312D02*
D03*
X12304Y6744D02*
D03*
X12056D02*
D03*
X11808D02*
D03*
X11560D02*
D03*
X11312D02*
D03*
X18501Y5108D02*
D03*
X18253D02*
D03*
X18005D02*
D03*
X17757D02*
D03*
X17509D02*
D03*
X18501Y6744D02*
D03*
X18253D02*
D03*
X18005D02*
D03*
X17757D02*
D03*
X17509D02*
D03*
X15377Y5108D02*
D03*
X15129D02*
D03*
X14881D02*
D03*
X14633D02*
D03*
X14385D02*
D03*
X15377Y6744D02*
D03*
X15129D02*
D03*
X14881D02*
D03*
X14633D02*
D03*
X14385D02*
D03*
D22*
X8408Y4274D02*
D03*
X8688D02*
D03*
X11533D02*
D03*
X11813D02*
D03*
X17730D02*
D03*
X18010D02*
D03*
X14606D02*
D03*
X14886D02*
D03*
D23*
X8783Y8515D02*
D03*
X8415D02*
D03*
X11907D02*
D03*
X11539D02*
D03*
X18105D02*
D03*
X17737D02*
D03*
X14981D02*
D03*
X14613D02*
D03*
D24*
X9268Y8947D02*
D03*
X9708D02*
D03*
X12392D02*
D03*
X12832D02*
D03*
X18590D02*
D03*
X19030D02*
D03*
X15466D02*
D03*
X15906D02*
D03*
D25*
X9422Y5078D02*
D03*
X9606D02*
D03*
X12546D02*
D03*
X12730D02*
D03*
X18743D02*
D03*
X18927D02*
D03*
X15619D02*
D03*
X15803D02*
D03*
D26*
X9514Y4680D02*
D03*
X12638D02*
D03*
X18835D02*
D03*
X15711D02*
D03*
D27*
X10072Y6158D02*
D03*
Y6808D02*
D03*
X13197Y6158D02*
D03*
Y6808D02*
D03*
X19394Y6158D02*
D03*
Y6808D02*
D03*
X16270Y6158D02*
D03*
Y6808D02*
D03*
D28*
X10428Y7143D02*
D03*
Y6993D02*
D03*
X13552Y7143D02*
D03*
Y6993D02*
D03*
X19750Y7143D02*
D03*
Y6993D02*
D03*
X16626Y7143D02*
D03*
Y6993D02*
D03*
D29*
X10225Y8827D02*
D03*
Y8407D02*
D03*
X13349Y8827D02*
D03*
Y8407D02*
D03*
X19547Y8827D02*
D03*
Y8407D02*
D03*
X16422Y8827D02*
D03*
Y8407D02*
D03*
D30*
X9623Y9309D02*
D03*
Y9499D02*
D03*
X9353Y9309D02*
D03*
Y9404D02*
D03*
X12747Y9309D02*
D03*
Y9499D02*
D03*
X12477Y9309D02*
D03*
Y9404D02*
D03*
X18945Y9309D02*
D03*
Y9499D02*
D03*
X18675Y9309D02*
D03*
Y9404D02*
D03*
X15821Y9309D02*
D03*
Y9499D02*
D03*
X15551Y9309D02*
D03*
Y9404D02*
D03*
D31*
X9353Y9499D02*
D03*
X12477D02*
D03*
X18675D02*
D03*
X15551D02*
D03*
D32*
X8980Y7963D02*
D03*
Y8103D02*
D03*
X9768Y9360D02*
D03*
Y9500D02*
D03*
X12104Y7963D02*
D03*
Y8103D02*
D03*
X12892Y9360D02*
D03*
Y9500D02*
D03*
X18302Y7963D02*
D03*
Y8103D02*
D03*
X19089Y9360D02*
D03*
Y9500D02*
D03*
X15965Y9360D02*
D03*
Y9500D02*
D03*
X15178Y7963D02*
D03*
Y8103D02*
D03*
D33*
X10860Y5735D02*
D03*
Y6115D02*
D03*
X13933Y5735D02*
D03*
Y6115D02*
D03*
D34*
X18821Y3260D02*
D03*
Y2990D02*
D03*
X20320Y3285D02*
D03*
Y3015D02*
D03*
X20625Y3285D02*
D03*
Y3015D02*
D03*
X20930Y3285D02*
D03*
Y3015D02*
D03*
X18821Y2015D02*
D03*
Y1745D02*
D03*
X20345Y2015D02*
D03*
Y1745D02*
D03*
X20650Y2015D02*
D03*
Y1745D02*
D03*
X20955Y2015D02*
D03*
Y1745D02*
D03*
D35*
X19854Y3505D02*
D03*
X19364D02*
D03*
X19854Y1499D02*
D03*
X19364D02*
D03*
D36*
X6034Y6946D02*
Y7493D01*
X5131Y7468D02*
X6008D01*
X2845Y8738D02*
X3278D01*
X2845Y9398D02*
X3278D01*
X13463Y5182D02*
X13538D01*
X13564Y5207D01*
X13665Y5969D02*
X13788D01*
X13933Y6115D01*
X13463Y5715D02*
X13589D01*
X6034Y6946D02*
X7040Y5940D01*
X11143D02*
X11165Y5918D01*
X7040Y5940D02*
X11143D01*
X11165Y5918D02*
X13386D01*
X21909Y6636D02*
X22260D01*
X21782Y6763D02*
X21909Y6636D01*
X21782Y6763D02*
Y7118D01*
D37*
X23241Y3841D02*
X23749D01*
X23241Y3587D02*
X23749D01*
X22682Y1676D02*
X23069Y2063D01*
X20930Y1676D02*
X22682D01*
X20980Y2317D02*
X23241D01*
X23749Y3079D02*
Y3333D01*
X23241Y3079D02*
X23749D01*
X23241D02*
Y3333D01*
Y2571D02*
Y2825D01*
X23749Y2571D02*
Y2825D01*
X23241D02*
X23749D01*
X23241Y2317D02*
X23749D01*
X23069Y2063D02*
X23241D01*
X23749D01*
D38*
X2477Y8264D02*
X2671Y8458D01*
X4928D01*
X4900Y8366D02*
X4988D01*
X4897Y8369D02*
X4900Y8366D01*
X3004Y8369D02*
X4897D01*
X4988Y8366D02*
X4991Y8369D01*
X3123Y8291D02*
X4887D01*
X3108Y8306D02*
X3123Y8291D01*
X2645Y7843D02*
X3108Y8306D01*
X3940Y9166D02*
X4419D01*
X3454Y9652D02*
X3940Y9166D01*
X3480Y9093D02*
X4293D01*
X3454Y9119D02*
X3480Y9093D01*
X5410Y8696D02*
X6020Y9306D01*
Y9322D01*
X5994Y9195D02*
X6020D01*
X5461Y8661D02*
X5994Y9195D01*
X5410Y7742D02*
Y8696D01*
X13487Y5358D02*
Y5436D01*
X13462Y5461D02*
Y5564D01*
X13688Y5845D02*
X13733Y5890D01*
X13709Y5795D02*
X13754Y5840D01*
X11167Y5845D02*
X13688D01*
X11122Y5890D02*
X11167Y5845D01*
X11102Y5840D02*
X11146Y5795D01*
X10680Y5840D02*
X11102D01*
X10658Y5817D02*
X10680Y5840D01*
X11146Y5795D02*
X13709D01*
X10660Y5890D02*
X11122D01*
X10637Y5867D02*
X10660Y5890D01*
X14175Y5840D02*
X14197Y5817D01*
X13754Y5840D02*
X14175D01*
X6935Y5817D02*
X10658D01*
X14196Y5890D02*
X14218Y5867D01*
X13733Y5890D02*
X14196D01*
X14218Y5867D02*
X17927D01*
X6883D02*
X10637D01*
X14197Y5817D02*
X16809D01*
X16981Y5645D01*
X5461Y4343D02*
X6935Y5817D01*
X17927Y5867D02*
X18099Y5696D01*
X5461Y4445D02*
X6883Y5867D01*
X13487Y5994D02*
X13513Y5969D01*
X7722Y5994D02*
X13487D01*
X7290Y6426D02*
X7722Y5994D01*
X7290Y6426D02*
Y8560D01*
X6782Y9068D02*
X7290Y8560D01*
X5994Y9068D02*
X6782D01*
X9258Y9531D02*
X9290Y9499D01*
X9353D01*
Y9671D01*
X12477Y9499D02*
Y9621D01*
X12389Y9499D02*
X12477D01*
X15551D02*
Y9646D01*
X15456Y9506D02*
X15544D01*
X18587Y9499D02*
X18675D01*
X18644Y9531D02*
X18675Y9499D01*
X18644Y9531D02*
Y9703D01*
X21860Y6507D02*
X22262D01*
X21680Y6687D02*
X21860Y6507D01*
X2743Y4597D02*
X2896Y4445D01*
X5461D01*
X3326Y4343D02*
X3352Y4318D01*
X16981Y5366D02*
Y5645D01*
X18099Y4926D02*
Y5696D01*
X18005Y4832D02*
X18099Y4926D01*
X21680Y6687D02*
Y7322D01*
X21604Y7601D02*
X22264D01*
X21477Y7753D02*
X22087D01*
X22112Y7728D01*
X22264D01*
X2839Y10293D02*
X3322D01*
X4445Y7417D02*
Y7455D01*
X9353Y9032D02*
Y9309D01*
X9623Y9032D02*
Y9309D01*
X12392Y8947D02*
Y9224D01*
X12477Y9309D01*
X12747Y9032D02*
Y9309D01*
X15551Y9032D02*
Y9309D01*
X18590Y8947D02*
Y9224D01*
X18675Y9309D01*
X18945Y9032D02*
Y9309D01*
X4445Y7455D02*
X4562Y7572D01*
X5311D01*
X4267Y7538D02*
X4457D01*
X4542Y7622D01*
X5291D01*
X2477Y8097D02*
Y8264D01*
X2337Y7956D02*
X2477Y8097D01*
X2591Y7956D02*
X3004Y8369D01*
X2477Y7843D02*
X2645D01*
X2337Y7702D02*
X2477Y7843D01*
X3327Y8992D02*
X3454Y9119D01*
X2845Y8992D02*
X3327D01*
X2845Y9652D02*
X3454D01*
X5291Y7622D02*
X5410Y7742D01*
X5311Y7572D02*
X5461Y7722D01*
Y8661D01*
X3326Y4343D02*
X5461D01*
D39*
X4921Y8617D02*
X5207Y8331D01*
Y8052D02*
Y8331D01*
X3472Y10293D02*
X3548Y10218D01*
X5911D01*
X2591Y7702D02*
X2664Y7776D01*
X4931D01*
X5207Y8052D01*
X4324Y8617D02*
X4921D01*
X4324D02*
Y8630D01*
X5911Y10218D01*
X6553Y9296D02*
Y9576D01*
X5911Y10218D02*
X6553Y9576D01*
D40*
X5766Y8763D02*
X6873D01*
X6878Y8768D01*
X5855Y8839D02*
X6807D01*
X5842Y8826D02*
X5855Y8839D01*
X3258Y8121D02*
X4325D01*
X15821Y9032D02*
Y9309D01*
X18796Y8247D02*
Y8407D01*
X15672Y8247D02*
Y8407D01*
X12598Y8247D02*
Y8407D01*
X9474Y8247D02*
Y8382D01*
D41*
X18948Y9398D02*
Y9496D01*
X18945Y9499D02*
X18948Y9496D01*
X9623Y9499D02*
X9767D01*
X9627Y9398D02*
Y9496D01*
X12747Y9401D02*
Y9499D01*
X15821Y9401D02*
Y9499D01*
X12747D02*
X12891D01*
X15821Y9500D02*
X15965D01*
X18945Y9499D02*
X19089D01*
X20633Y9500D02*
X22106Y8027D01*
X19089Y9500D02*
X20633D01*
X22104Y6761D02*
Y6958D01*
X22106Y7855D02*
Y8027D01*
X22104Y6761D02*
X22262D01*
X22106Y7855D02*
X22264D01*
X22087Y7474D02*
X22264D01*
X21960Y7861D02*
X21966Y7855D01*
X21960Y7861D02*
Y8007D01*
X2743Y4343D02*
X3176D01*
X2202Y11000D02*
X24206Y11000D01*
X2251Y10420D02*
X2253Y10422D01*
X2200Y1041D02*
Y10998D01*
Y1035D02*
Y1041D01*
Y1035D02*
X2235Y1000D01*
X17297D01*
X24206Y1000D01*
X24206Y11000D01*
D42*
X9261Y8234D02*
Y8243D01*
X8980Y8103D02*
Y8204D01*
X9227Y8277D02*
X9261Y8243D01*
X9089Y8277D02*
X9227D01*
X9017Y8204D02*
X9089Y8277D01*
X8980Y8204D02*
X9017D01*
X12104Y8103D02*
Y8204D01*
X12369Y8277D02*
X12411Y8234D01*
X12213Y8277D02*
X12369D01*
X12141Y8204D02*
X12213Y8277D01*
X12104Y8204D02*
X12141D01*
X15438Y8280D02*
X15484Y8234D01*
X15279Y8280D02*
X15438D01*
X15178Y8179D02*
X15279Y8280D01*
X18302Y8103D02*
Y8204D01*
X18566Y8277D02*
X18608Y8234D01*
X18411Y8277D02*
X18566D01*
X18339Y8204D02*
X18411Y8277D01*
X18302Y8204D02*
X18339D01*
X15178Y8103D02*
Y8179D01*
X19364Y3294D02*
Y3505D01*
Y3294D02*
X19585Y3073D01*
X19735D02*
X19854Y3193D01*
Y3505D01*
X19735Y1905D02*
X19863Y1777D01*
Y1482D02*
Y1777D01*
X19854Y1473D02*
X19863Y1482D01*
X19364Y1473D02*
X19380Y1490D01*
Y1701D01*
X19585Y1905D01*
D43*
X23077Y6229D02*
X23153Y6153D01*
X23057Y6895D02*
X23241D01*
X23057Y6641D02*
X23241D01*
X23105Y6507D02*
X23153Y6458D01*
X22764Y7474D02*
X22829D01*
X23160Y7143D01*
X22956Y7601D02*
X23160Y7397D01*
X22764Y7601D02*
X22956D01*
X23082Y7729D02*
X23160Y7651D01*
X22896Y6761D02*
X22897Y6762D01*
X22921Y6759D02*
X23057Y6895D01*
X22897Y6759D02*
X22921D01*
X23025Y6609D02*
X23057Y6641D01*
X22897Y6609D02*
X23025D01*
X22762Y6507D02*
X23105D01*
X23001Y6229D02*
X23077D01*
X22851Y6380D02*
X23001Y6229D01*
X22762Y6380D02*
X22851D01*
X22899Y7729D02*
X23082D01*
X22764Y7855D02*
X22818D01*
X22842Y7879D01*
X22899D01*
X22764Y7728D02*
X22898D01*
X22899Y7729D01*
X22762Y6761D02*
X22896D01*
X22762Y6634D02*
X22817D01*
X22841Y6609D01*
X22897D01*
X23153Y6458D02*
X23159D01*
X23230Y6387D01*
X23153Y6153D02*
X23210D01*
X22899Y7879D02*
X23197D01*
X23160Y7651D02*
X23241D01*
X23160Y7397D02*
X23241D01*
X23160Y7143D02*
X23241D01*
D44*
X15254Y7233D02*
X15278Y7208D01*
X15432Y6991D02*
Y7043D01*
X14999Y7034D02*
Y7232D01*
X15278Y7034D02*
Y7208D01*
X15254Y7050D02*
Y7233D01*
X15178Y7886D02*
Y7963D01*
X15127Y7835D02*
X15178Y7886D01*
X15128Y6942D02*
X15157Y6913D01*
X15353D01*
X15128Y7034D02*
Y7232D01*
Y6942D02*
Y7034D01*
X15127Y7753D02*
Y7835D01*
X15353Y6913D02*
X15432Y6991D01*
X18477Y6913D02*
X18556Y6991D01*
X18251Y7753D02*
Y7835D01*
X18252Y6942D02*
Y7034D01*
Y7232D01*
X18281Y6913D02*
X18477D01*
X18252Y6942D02*
X18281Y6913D01*
X18251Y7835D02*
X18302Y7886D01*
Y7963D01*
X18378Y7050D02*
Y7233D01*
X18402Y7034D02*
Y7208D01*
X18123Y7034D02*
Y7232D01*
X18556Y6991D02*
Y7043D01*
X18378Y7233D02*
X18402Y7208D01*
X12280Y6913D02*
X12358Y6991D01*
X12054Y7753D02*
Y7835D01*
X12055Y6942D02*
Y7034D01*
Y7232D01*
X12084Y6913D02*
X12280D01*
X12055Y6942D02*
X12084Y6913D01*
X12054Y7835D02*
X12104Y7886D01*
Y7963D01*
X12181Y7050D02*
Y7233D01*
X12205Y7034D02*
Y7208D01*
X11925Y7034D02*
Y7232D01*
X12358Y6991D02*
Y7043D01*
X12181Y7233D02*
X12205Y7208D01*
X9156Y6913D02*
X9234Y6991D01*
X8929Y7753D02*
Y7835D01*
X8931Y6942D02*
Y7034D01*
Y7232D01*
X8960Y6913D02*
X9156D01*
X8931Y6942D02*
X8960Y6913D01*
X8929Y7835D02*
X8980Y7886D01*
Y7963D01*
X9056Y7050D02*
Y7233D01*
X9081Y7034D02*
Y7208D01*
X8801Y7034D02*
Y7232D01*
X9234Y6991D02*
Y7043D01*
X9056Y7233D02*
X9081Y7208D01*
D45*
X2743Y2692D02*
D03*
Y2438D02*
D03*
Y3327D02*
D03*
Y3073D02*
D03*
Y3962D02*
D03*
Y3708D02*
D03*
Y4597D02*
D03*
Y4343D02*
D03*
X2845Y9652D02*
D03*
Y9398D02*
D03*
Y8992D02*
D03*
Y8738D02*
D03*
X2839Y10039D02*
D03*
Y10293D02*
D03*
D46*
X2841Y6632D02*
D03*
Y6182D02*
D03*
X23241Y2063D02*
D03*
Y2317D02*
D03*
Y2571D02*
D03*
Y2825D02*
D03*
Y3079D02*
D03*
Y3333D02*
D03*
Y3587D02*
D03*
Y3841D02*
D03*
Y4095D02*
D03*
Y4349D02*
D03*
Y4603D02*
D03*
Y4857D02*
D03*
Y5111D02*
D03*
Y5365D02*
D03*
Y5619D02*
D03*
Y5873D02*
D03*
Y6127D02*
D03*
Y6381D02*
D03*
Y6635D02*
D03*
Y6889D02*
D03*
Y7143D02*
D03*
Y7397D02*
D03*
Y7651D02*
D03*
Y7905D02*
D03*
Y8159D02*
D03*
Y8413D02*
D03*
Y8667D02*
D03*
Y8921D02*
D03*
Y9175D02*
D03*
Y9429D02*
D03*
Y9683D02*
D03*
Y9937D02*
D03*
X23749Y2063D02*
D03*
Y2317D02*
D03*
Y2571D02*
D03*
Y2825D02*
D03*
Y3079D02*
D03*
Y3333D02*
D03*
Y3587D02*
D03*
Y3841D02*
D03*
Y4095D02*
D03*
Y4349D02*
D03*
Y4603D02*
D03*
Y4857D02*
D03*
Y5111D02*
D03*
Y5365D02*
D03*
Y5619D02*
D03*
Y5873D02*
D03*
Y6127D02*
D03*
Y6381D02*
D03*
Y6635D02*
D03*
Y6889D02*
D03*
Y7143D02*
D03*
Y7397D02*
D03*
Y7651D02*
D03*
Y7905D02*
D03*
Y8159D02*
D03*
Y8413D02*
D03*
Y8667D02*
D03*
Y8921D02*
D03*
Y9175D02*
D03*
Y9429D02*
D03*
Y9683D02*
D03*
Y9937D02*
D03*
D47*
X3090Y6056D02*
D03*
Y6757D02*
D03*
D48*
X2337Y7702D02*
D03*
X2591D02*
D03*
X2337Y7956D02*
D03*
X2591D02*
D03*
X2337Y8210D02*
D03*
X2591D02*
D03*
D49*
X24003Y1555D02*
D03*
Y10445D02*
D03*
D50*
X5131Y7468D02*
D03*
X4928Y8458D02*
D03*
X4991Y8369D02*
D03*
X4887Y8291D02*
D03*
X5740Y8179D02*
D03*
X4419Y9166D02*
D03*
X4293Y9093D02*
D03*
X6020Y9195D02*
D03*
Y9322D02*
D03*
X5766Y8763D02*
D03*
X6807Y8839D02*
D03*
X5842Y8826D02*
D03*
X5994Y9068D02*
D03*
X3258Y8121D02*
D03*
X4325D02*
D03*
X4267Y7538D02*
D03*
X4445Y7417D02*
D03*
X6878Y8768D02*
D03*
D51*
X19177Y9804D02*
D03*
X6034Y7493D02*
D03*
X2515Y7239D02*
D03*
Y7061D02*
D03*
X4324Y8617D02*
D03*
X6553Y9296D02*
D03*
X5911Y10218D02*
D03*
X22104Y6958D02*
D03*
X18912Y4299D02*
D03*
X12333Y3943D02*
D03*
X7684Y3208D02*
D03*
X22112Y8033D02*
D03*
X21782Y7118D02*
D03*
X21680Y7322D02*
D03*
X13840Y4404D02*
D03*
X13832Y4578D02*
D03*
Y4756D02*
D03*
Y4934D02*
D03*
Y5112D02*
D03*
Y5290D02*
D03*
X15838Y4274D02*
D03*
X16016D02*
D03*
X16194D02*
D03*
X16372D02*
D03*
X16981Y5366D02*
D03*
Y5188D02*
D03*
Y5010D02*
D03*
Y4807D02*
D03*
Y4629D02*
D03*
Y4451D02*
D03*
X8269Y7753D02*
D03*
X9768Y4299D02*
D03*
X9945D02*
D03*
X10123D02*
D03*
X11292Y4426D02*
D03*
X11139D02*
D03*
X10987D02*
D03*
X10834D02*
D03*
X11292Y4578D02*
D03*
X11139D02*
D03*
X10987D02*
D03*
X10834D02*
D03*
X18759Y4299D02*
D03*
X19140Y4426D02*
D03*
Y4578D02*
D03*
X13806Y5569D02*
D03*
Y6280D02*
D03*
X16930D02*
D03*
X10733D02*
D03*
Y5569D02*
D03*
X21604Y7601D02*
D03*
X21477Y7753D02*
D03*
X22087Y7474D02*
D03*
X21960Y8007D02*
D03*
X9347Y9677D02*
D03*
X12471Y9627D02*
D03*
X15545Y9652D02*
D03*
X18644Y9703D02*
D03*
X9474Y8382D02*
D03*
X15672Y8407D02*
D03*
X12598D02*
D03*
X18796D02*
D03*
D52*
X13564Y5207D02*
D03*
X13665Y5969D02*
D03*
X13487Y5436D02*
D03*
X13589Y5715D02*
D03*
X13386Y5918D02*
D03*
X13513Y5969D02*
D03*
X18948Y9398D02*
D03*
X9627D02*
D03*
X12747Y9401D02*
D03*
X15821D02*
D03*
D53*
X18302Y8204D02*
D03*
X8980D02*
D03*
X12104D02*
D03*
X15178Y8179D02*
D03*
D54*
X14060Y5594D02*
D03*
Y6255D02*
D03*
X14162Y5645D02*
D03*
X14173Y6248D02*
D03*
Y6147D02*
D03*
X14162Y5747D02*
D03*
X13933Y5594D02*
D03*
Y6255D02*
D03*
X17057D02*
D03*
X17286Y6102D02*
D03*
Y6204D02*
D03*
X17184Y6255D02*
D03*
X10860D02*
D03*
Y5594D02*
D03*
X11088Y5747D02*
D03*
Y6102D02*
D03*
Y6204D02*
D03*
Y5645D02*
D03*
X10987Y6255D02*
D03*
Y5594D02*
D03*
M02*
