G04 Layer_Color=8388736*
%FSLAX42Y42*%
%MOMM*%
G71*
G01*
G75*
%ADD41C,0.50*%
%ADD72R,0.80X1.00*%
%ADD73R,2.10X3.60*%
%ADD74R,2.70X1.20*%
%ADD75R,3.40X1.50*%
%ADD76R,1.20X2.70*%
%ADD77R,0.86X1.24*%
%ADD78R,3.10X2.36*%
%ADD79R,1.00X0.80*%
%ADD80R,1.90X2.20*%
%ADD81R,0.90X1.00*%
%ADD82R,1.80X1.20*%
%ADD83R,1.27X1.98*%
%ADD84R,1.30X1.30*%
%ADD85R,1.62X2.28*%
%ADD86R,3.20X4.10*%
%ADD87R,3.46X4.96*%
%ADD88R,1.49X1.50*%
%ADD89R,3.30X1.90*%
%ADD90R,1.50X1.20*%
%ADD91R,3.40X1.65*%
%ADD92O,1.10X0.65*%
%ADD93R,1.10X0.65*%
%ADD94R,1.00X0.90*%
%ADD95R,1.52X3.12*%
%ADD96R,1.50X0.90*%
%ADD97O,1.50X0.90*%
%ADD98C,2.70*%
%ADD99C,1.63*%
%ADD100C,2.90*%
G04:AMPARAMS|DCode=101|XSize=1.68mm|YSize=1.68mm|CornerRadius=0mm|HoleSize=0mm|Usage=FLASHONLY|Rotation=90.000|XOffset=0mm|YOffset=0mm|HoleType=Round|Shape=Octagon|*
%AMOCTAGOND101*
4,1,8,0.42,0.84,-0.42,0.84,-0.84,0.42,-0.84,-0.42,-0.42,-0.84,0.42,-0.84,0.84,-0.42,0.84,0.42,0.42,0.84,0.0*
%
%ADD101OCTAGOND101*%

%ADD102C,1.80*%
%ADD103C,1.70*%
%ADD104C,0.74*%
%ADD105C,1.37*%
%ADD106C,0.90*%
%ADD107C,1.12*%
%ADD108C,0.86*%
D41*
X24206Y1000D02*
X24206Y11000D01*
X17297Y1000D02*
X24206Y1000D01*
X2235Y1000D02*
X17297D01*
X2200Y1035D02*
X2235Y1000D01*
X2200Y1035D02*
Y1041D01*
Y10998D01*
X2202Y11000D02*
X24206Y11000D01*
D72*
X3479Y8153D02*
D03*
X3329D02*
D03*
X3479Y8814D02*
D03*
X3329D02*
D03*
X3326Y4343D02*
D03*
X3176D02*
D03*
X19585Y1981D02*
D03*
X19735D02*
D03*
X19585Y3073D02*
D03*
X19735D02*
D03*
X15128Y7034D02*
D03*
X15278D02*
D03*
X15408Y7753D02*
D03*
X15558D02*
D03*
X15456Y9506D02*
D03*
X15306D02*
D03*
X14849Y7034D02*
D03*
X14999D02*
D03*
X17973D02*
D03*
X18123D02*
D03*
X18580Y9506D02*
D03*
X18430D02*
D03*
X18532Y7753D02*
D03*
X18682D02*
D03*
X18252Y7034D02*
D03*
X18402D02*
D03*
X11775D02*
D03*
X11925D02*
D03*
X12383Y9506D02*
D03*
X12233D02*
D03*
X12334Y7753D02*
D03*
X12484D02*
D03*
X12055Y7034D02*
D03*
X12205D02*
D03*
X8651D02*
D03*
X8801D02*
D03*
X9258Y9531D02*
D03*
X9108D02*
D03*
X9210Y7753D02*
D03*
X9360D02*
D03*
X8931Y7034D02*
D03*
X9081D02*
D03*
X3462Y9734D02*
D03*
X3312D02*
D03*
D73*
X19364Y1549D02*
D03*
X19854D02*
D03*
X19364Y3505D02*
D03*
X19854D02*
D03*
D74*
X20955Y1770D02*
D03*
Y2040D02*
D03*
X20650Y1770D02*
D03*
Y2040D02*
D03*
X20345Y1770D02*
D03*
Y2040D02*
D03*
X18821Y1778D02*
D03*
Y2048D02*
D03*
X20930Y3015D02*
D03*
Y3285D02*
D03*
X20625Y3015D02*
D03*
Y3285D02*
D03*
X20320Y3015D02*
D03*
Y3285D02*
D03*
X18821Y2990D02*
D03*
Y3260D02*
D03*
D75*
X13933Y6115D02*
D03*
Y5735D02*
D03*
X10860Y6115D02*
D03*
Y5735D02*
D03*
D76*
X15008Y8007D02*
D03*
X14738D02*
D03*
X14611Y4832D02*
D03*
X14881D02*
D03*
X14611Y4528D02*
D03*
X14881D02*
D03*
X17735D02*
D03*
X18005D02*
D03*
X17735Y4832D02*
D03*
X18005D02*
D03*
X18132Y8007D02*
D03*
X17862D02*
D03*
X11538Y4528D02*
D03*
X11808D02*
D03*
X11538Y4832D02*
D03*
X11808D02*
D03*
X11935Y8007D02*
D03*
X11665D02*
D03*
X8413Y4528D02*
D03*
X8683D02*
D03*
X8413Y4832D02*
D03*
X8683D02*
D03*
X8810Y8007D02*
D03*
X8540D02*
D03*
D77*
X15254Y7753D02*
D03*
X15127D02*
D03*
X15000D02*
D03*
X14873D02*
D03*
X15254Y7233D02*
D03*
X15127D02*
D03*
X15000D02*
D03*
X14873D02*
D03*
X18378Y7753D02*
D03*
X18251D02*
D03*
X18124D02*
D03*
X17997D02*
D03*
X18378Y7233D02*
D03*
X18251D02*
D03*
X18124D02*
D03*
X17997D02*
D03*
X12181Y7753D02*
D03*
X12054D02*
D03*
X11927D02*
D03*
X11800D02*
D03*
X12181Y7233D02*
D03*
X12054D02*
D03*
X11927D02*
D03*
X11800D02*
D03*
X9056Y7753D02*
D03*
X8929D02*
D03*
X8802D02*
D03*
X8675D02*
D03*
X9056Y7233D02*
D03*
X8929D02*
D03*
X8802D02*
D03*
X8675D02*
D03*
D78*
X15063Y7493D02*
D03*
X18188D02*
D03*
X11990D02*
D03*
X8866D02*
D03*
D79*
X15356Y8034D02*
D03*
Y8184D02*
D03*
X15432Y7193D02*
D03*
Y7043D02*
D03*
X18556Y7193D02*
D03*
Y7043D02*
D03*
X18480Y8034D02*
D03*
Y8184D02*
D03*
X12358Y7193D02*
D03*
Y7043D02*
D03*
X12282Y8034D02*
D03*
Y8184D02*
D03*
X9234Y7193D02*
D03*
Y7043D02*
D03*
X9158Y8034D02*
D03*
Y8184D02*
D03*
X13462Y5183D02*
D03*
Y5333D02*
D03*
Y5564D02*
D03*
Y5714D02*
D03*
X22899Y7729D02*
D03*
Y7879D02*
D03*
X22897Y6759D02*
D03*
Y6609D02*
D03*
D80*
X15838Y7211D02*
D03*
Y6771D02*
D03*
X18962Y7211D02*
D03*
Y6771D02*
D03*
X12765Y7211D02*
D03*
Y6771D02*
D03*
X9641Y7211D02*
D03*
Y6771D02*
D03*
D81*
X15584Y8034D02*
D03*
X15684Y8234D02*
D03*
X15484D02*
D03*
X18708Y8034D02*
D03*
X18808Y8234D02*
D03*
X18608D02*
D03*
X12511Y8034D02*
D03*
X12611Y8234D02*
D03*
X12411D02*
D03*
X9387Y8034D02*
D03*
X9487Y8234D02*
D03*
X9287D02*
D03*
X21964Y6761D02*
D03*
X22104D02*
D03*
X21966Y7855D02*
D03*
X22106D02*
D03*
D82*
X16651Y6196D02*
D03*
Y6466D02*
D03*
X19775Y6196D02*
D03*
Y6466D02*
D03*
X13578Y6196D02*
D03*
Y6466D02*
D03*
X10453Y6196D02*
D03*
Y6466D02*
D03*
D83*
X14385Y6744D02*
D03*
X14633D02*
D03*
X14881D02*
D03*
X15129D02*
D03*
X15377D02*
D03*
X14385Y5108D02*
D03*
X14633D02*
D03*
X14881D02*
D03*
X15129D02*
D03*
X15377D02*
D03*
X17509Y6744D02*
D03*
X17757D02*
D03*
X18005D02*
D03*
X18253D02*
D03*
X18501D02*
D03*
X17509Y5108D02*
D03*
X17757D02*
D03*
X18005D02*
D03*
X18253D02*
D03*
X18501D02*
D03*
X11312Y6744D02*
D03*
X11560D02*
D03*
X11808D02*
D03*
X12056D02*
D03*
X12304D02*
D03*
X11312Y5108D02*
D03*
X11560D02*
D03*
X11808D02*
D03*
X12056D02*
D03*
X12304D02*
D03*
X8187Y6744D02*
D03*
X8435D02*
D03*
X8683D02*
D03*
X8931D02*
D03*
X9179D02*
D03*
X8187Y5108D02*
D03*
X8435D02*
D03*
X8683D02*
D03*
X8931D02*
D03*
X9179D02*
D03*
D84*
X14886Y4274D02*
D03*
X14606D02*
D03*
X18010D02*
D03*
X17730D02*
D03*
X11813D02*
D03*
X11533D02*
D03*
X8688D02*
D03*
X8408D02*
D03*
D85*
X14613Y8515D02*
D03*
X14981D02*
D03*
X17737D02*
D03*
X18105D02*
D03*
X11539D02*
D03*
X11907D02*
D03*
X8415D02*
D03*
X8783D02*
D03*
D86*
X15906Y8947D02*
D03*
X15466D02*
D03*
X19030D02*
D03*
X18590D02*
D03*
X12832D02*
D03*
X12392D02*
D03*
X9708D02*
D03*
X9268D02*
D03*
D87*
X15711Y4680D02*
D03*
X18835D02*
D03*
X12638D02*
D03*
X9514D02*
D03*
D88*
X15803Y5078D02*
D03*
X15619D02*
D03*
X18927D02*
D03*
X18743D02*
D03*
X12730D02*
D03*
X12546D02*
D03*
X9606D02*
D03*
X9422D02*
D03*
D89*
X16270Y6808D02*
D03*
Y6158D02*
D03*
X19394Y6808D02*
D03*
Y6158D02*
D03*
X13197Y6808D02*
D03*
Y6158D02*
D03*
X10072Y6808D02*
D03*
Y6158D02*
D03*
D90*
X16626Y6993D02*
D03*
Y7143D02*
D03*
X19750Y6993D02*
D03*
Y7143D02*
D03*
X13552Y6993D02*
D03*
Y7143D02*
D03*
X10428Y6993D02*
D03*
Y7143D02*
D03*
D91*
X16422Y8407D02*
D03*
Y8827D02*
D03*
X19547Y8407D02*
D03*
Y8827D02*
D03*
X13349Y8407D02*
D03*
Y8827D02*
D03*
X10225Y8407D02*
D03*
Y8827D02*
D03*
D92*
X15551Y9499D02*
D03*
X18675D02*
D03*
X12477D02*
D03*
X9353D02*
D03*
D93*
X15551Y9404D02*
D03*
Y9309D02*
D03*
X15821Y9499D02*
D03*
Y9309D02*
D03*
X18675Y9404D02*
D03*
Y9309D02*
D03*
X18945Y9499D02*
D03*
Y9309D02*
D03*
X12477Y9404D02*
D03*
Y9309D02*
D03*
X12747Y9499D02*
D03*
Y9309D02*
D03*
X9353Y9404D02*
D03*
Y9309D02*
D03*
X9623Y9499D02*
D03*
Y9309D02*
D03*
D94*
X15178Y8103D02*
D03*
Y7963D02*
D03*
X15965Y9500D02*
D03*
Y9360D02*
D03*
X19089Y9500D02*
D03*
Y9360D02*
D03*
X18302Y8103D02*
D03*
Y7963D02*
D03*
X12892Y9500D02*
D03*
Y9360D02*
D03*
X12104Y8103D02*
D03*
Y7963D02*
D03*
X9768Y9500D02*
D03*
Y9360D02*
D03*
X8980Y8103D02*
D03*
Y7963D02*
D03*
D95*
X20867Y9876D02*
D03*
Y10357D02*
D03*
D96*
X22264Y7855D02*
D03*
X22262Y6761D02*
D03*
D97*
X22264Y7728D02*
D03*
Y7601D02*
D03*
Y7474D02*
D03*
X22764Y7855D02*
D03*
Y7728D02*
D03*
Y7601D02*
D03*
Y7474D02*
D03*
X22262Y6634D02*
D03*
Y6507D02*
D03*
Y6380D02*
D03*
X22762Y6761D02*
D03*
Y6634D02*
D03*
Y6507D02*
D03*
Y6380D02*
D03*
D98*
X2557Y1555D02*
D03*
Y10444D02*
D03*
D99*
X23749Y9937D02*
D03*
Y9683D02*
D03*
Y9429D02*
D03*
Y9175D02*
D03*
Y8921D02*
D03*
Y8667D02*
D03*
Y8413D02*
D03*
Y8159D02*
D03*
Y7905D02*
D03*
Y7651D02*
D03*
Y7397D02*
D03*
Y7143D02*
D03*
Y6889D02*
D03*
Y6635D02*
D03*
Y6381D02*
D03*
Y6127D02*
D03*
Y5873D02*
D03*
Y5619D02*
D03*
Y5365D02*
D03*
Y5111D02*
D03*
Y4857D02*
D03*
Y4603D02*
D03*
Y4349D02*
D03*
Y4095D02*
D03*
Y3841D02*
D03*
Y3587D02*
D03*
Y3333D02*
D03*
Y3079D02*
D03*
Y2825D02*
D03*
Y2571D02*
D03*
Y2317D02*
D03*
Y2063D02*
D03*
X23241Y9937D02*
D03*
Y9683D02*
D03*
Y9429D02*
D03*
Y9175D02*
D03*
Y8921D02*
D03*
Y8667D02*
D03*
Y8413D02*
D03*
Y8159D02*
D03*
Y7905D02*
D03*
Y7651D02*
D03*
Y7397D02*
D03*
Y7143D02*
D03*
Y6889D02*
D03*
Y6635D02*
D03*
Y6381D02*
D03*
Y6127D02*
D03*
Y5873D02*
D03*
Y5619D02*
D03*
Y5365D02*
D03*
Y5111D02*
D03*
Y4857D02*
D03*
Y4603D02*
D03*
Y4349D02*
D03*
Y4095D02*
D03*
Y3841D02*
D03*
Y3587D02*
D03*
Y3333D02*
D03*
Y3079D02*
D03*
Y2825D02*
D03*
Y2571D02*
D03*
Y2317D02*
D03*
Y2063D02*
D03*
X2841Y6182D02*
D03*
Y6632D02*
D03*
D100*
X24003Y10445D02*
D03*
Y1555D02*
D03*
D101*
X2591Y7798D02*
D03*
X2337D02*
D03*
X2591Y7544D02*
D03*
X2337D02*
D03*
X2591Y7290D02*
D03*
X2337D02*
D03*
D102*
X3090Y6757D02*
D03*
Y6056D02*
D03*
D103*
X2769Y9728D02*
D03*
Y9474D02*
D03*
Y8179D02*
D03*
Y8433D02*
D03*
Y8839D02*
D03*
Y9093D02*
D03*
X2743Y4343D02*
D03*
Y4597D02*
D03*
Y3708D02*
D03*
Y3962D02*
D03*
Y3073D02*
D03*
Y3327D02*
D03*
Y2438D02*
D03*
Y2692D02*
D03*
D104*
X5856Y8840D02*
D03*
X6878Y8768D02*
D03*
X4445Y7417D02*
D03*
X4267Y7538D02*
D03*
X4325Y7639D02*
D03*
X3258D02*
D03*
X5994Y9068D02*
D03*
X6807Y8839D02*
D03*
X5766Y8763D02*
D03*
X6020Y9322D02*
D03*
Y9195D02*
D03*
X4293Y9093D02*
D03*
X4419Y9166D02*
D03*
X5740Y8179D02*
D03*
X4887Y8291D02*
D03*
X4991Y8369D02*
D03*
X4928Y8458D02*
D03*
X5131Y7468D02*
D03*
D105*
X5029Y6528D02*
D03*
X4877D02*
D03*
X4724D02*
D03*
X18796Y8407D02*
D03*
X12598D02*
D03*
X15672D02*
D03*
X9474Y8382D02*
D03*
X18644Y9703D02*
D03*
X15545Y9652D02*
D03*
X12471Y9627D02*
D03*
X9347Y9677D02*
D03*
X21960Y8007D02*
D03*
X22087Y7474D02*
D03*
X21477Y7753D02*
D03*
X21604Y7601D02*
D03*
X10733Y5569D02*
D03*
Y6280D02*
D03*
X16930D02*
D03*
X13806D02*
D03*
Y5569D02*
D03*
X19140Y4578D02*
D03*
Y4426D02*
D03*
X18759Y4299D02*
D03*
X10834Y4578D02*
D03*
X10987D02*
D03*
X11139D02*
D03*
X11292D02*
D03*
X10834Y4426D02*
D03*
X10987D02*
D03*
X11139D02*
D03*
X11292D02*
D03*
X10123Y4299D02*
D03*
X9945D02*
D03*
X9768D02*
D03*
X8269Y7753D02*
D03*
X16981Y4451D02*
D03*
Y4629D02*
D03*
Y4807D02*
D03*
Y5010D02*
D03*
Y5188D02*
D03*
Y5366D02*
D03*
X16372Y4274D02*
D03*
X16194D02*
D03*
X16016D02*
D03*
X15838D02*
D03*
X13832Y5290D02*
D03*
Y5112D02*
D03*
Y4934D02*
D03*
Y4756D02*
D03*
Y4578D02*
D03*
X13840Y4404D02*
D03*
X21680Y7322D02*
D03*
X21782Y7118D02*
D03*
X22112Y8033D02*
D03*
X7684Y3208D02*
D03*
X12333Y3943D02*
D03*
X18912Y4299D02*
D03*
X22104Y6958D02*
D03*
X6553Y9296D02*
D03*
X4324Y8617D02*
D03*
X2515Y6934D02*
D03*
Y7087D02*
D03*
X6034Y7493D02*
D03*
X19177Y9804D02*
D03*
X5918Y10109D02*
D03*
D106*
X10987Y5594D02*
D03*
Y6255D02*
D03*
X11088Y5645D02*
D03*
Y6204D02*
D03*
Y6102D02*
D03*
Y5747D02*
D03*
X10860Y5594D02*
D03*
Y6255D02*
D03*
X17184D02*
D03*
X17286Y6204D02*
D03*
Y6102D02*
D03*
X17057Y6255D02*
D03*
X13933D02*
D03*
Y5594D02*
D03*
X14162Y5747D02*
D03*
X14173Y6147D02*
D03*
Y6248D02*
D03*
X14162Y5645D02*
D03*
X14060Y6255D02*
D03*
Y5594D02*
D03*
D107*
X15178Y8179D02*
D03*
X12104Y8204D02*
D03*
X8980D02*
D03*
X18302D02*
D03*
D108*
X15821Y9401D02*
D03*
X12747D02*
D03*
X9627Y9398D02*
D03*
X18948D02*
D03*
X13513Y5969D02*
D03*
X13386Y5918D02*
D03*
X13589Y5715D02*
D03*
X13487Y5436D02*
D03*
X13665Y5969D02*
D03*
X13564Y5207D02*
D03*
M02*
