G04 Layer_Color=65535*
%FSLAX42Y42*%
%MOMM*%
G71*
G01*
G75*
%ADD47C,0.25*%
%ADD49C,0.50*%
%ADD76C,0.25*%
%ADD77C,0.60*%
%ADD78C,0.10*%
%ADD79C,0.20*%
%ADD80C,0.13*%
%ADD81C,0.10*%
%ADD82C,0.15*%
%ADD83C,0.03*%
%ADD84C,0.15*%
%ADD85R,0.64X1.27*%
G36*
X17221Y7913D02*
X17223Y7910D01*
X17225Y7906D01*
Y7904D01*
Y7902D01*
X17223Y7898D01*
X17221Y7896D01*
X17217Y7894D01*
X17213D01*
X17209Y7896D01*
X17206Y7898D01*
X17205Y7902D01*
Y7904D01*
Y7906D01*
X17206Y7910D01*
X17209Y7913D01*
X17213Y7914D01*
X17217D01*
X17221Y7913D01*
D02*
G37*
G36*
X13829Y7910D02*
X13832Y7907D01*
X13833Y7903D01*
Y7901D01*
Y7899D01*
X13832Y7896D01*
X13829Y7893D01*
X13825Y7891D01*
X13821D01*
X13818Y7893D01*
X13815Y7896D01*
X13813Y7899D01*
Y7901D01*
Y7903D01*
X13815Y7907D01*
X13818Y7910D01*
X13821Y7911D01*
X13825D01*
X13829Y7910D01*
D02*
G37*
D47*
X14896Y9439D02*
Y9553D01*
Y9439D02*
X15150D01*
X14896Y9553D02*
X15150D01*
Y9439D02*
Y9553D01*
X16237Y7690D02*
Y7810D01*
X15701Y3463D02*
X15879D01*
X15701Y3336D02*
X15879D01*
X15701D02*
Y3463D01*
X16603Y3628D02*
Y4415D01*
X16222D02*
X16603D01*
X16222Y3628D02*
Y4415D01*
Y3628D02*
X16603D01*
X13211Y3625D02*
Y4413D01*
X12830D02*
X13211D01*
X12830Y3625D02*
Y4413D01*
Y3625D02*
X13211D01*
X12310Y3460D02*
X12487D01*
X12310Y3333D02*
X12487D01*
X12310D02*
Y3460D01*
X12845Y7688D02*
Y7808D01*
X11505Y9436D02*
Y9550D01*
Y9436D02*
X11759D01*
X11505Y9550D02*
X11759D01*
Y9436D02*
Y9550D01*
X22077Y10427D02*
X22577D01*
X9514Y6623D02*
Y7372D01*
X9780D01*
Y6623D02*
Y7372D01*
X9514Y6623D02*
X9780D01*
Y6585D02*
Y6623D01*
X9514Y6585D02*
X9780D01*
X9514D02*
Y6623D01*
X8460Y4337D02*
X8637D01*
X8460Y4210D02*
X8637D01*
X8460D02*
Y4337D01*
X9704Y4401D02*
Y5188D01*
X9323D02*
X9704D01*
X9323Y4401D02*
Y5188D01*
Y4401D02*
X9704D01*
X9869Y6928D02*
X10276D01*
X9437Y9277D02*
X9552D01*
Y9531D01*
X9437Y9277D02*
Y9531D01*
X9552D01*
X19801Y6623D02*
Y7372D01*
X20067D01*
Y6623D02*
Y7372D01*
X19801Y6623D02*
X20067D01*
Y6585D02*
Y6623D01*
X19801Y6585D02*
X20067D01*
X19801D02*
Y6623D01*
X18746Y4337D02*
X18924D01*
X18746Y4210D02*
X18924D01*
X18746D02*
Y4337D01*
X19991Y4401D02*
Y5188D01*
X19610D02*
X19991D01*
X19610Y4401D02*
Y5188D01*
Y4401D02*
X19991D01*
X20156Y6928D02*
X20563D01*
X19724Y9277D02*
X19839D01*
Y9531D01*
X19724Y9277D02*
Y9531D01*
X19839D01*
X3239Y3297D02*
X3340D01*
X3493Y3373D02*
X3391D01*
Y3297D01*
X3442Y3322D01*
X3467D01*
X3493Y3297D01*
Y3246D01*
X3467Y3221D01*
X3416D01*
X3391Y3246D01*
X3543Y3373D02*
Y3271D01*
X3594Y3221D01*
X3645Y3271D01*
Y3373D01*
X3848Y3221D02*
Y3322D01*
X3899Y3373D01*
X3950Y3322D01*
Y3221D01*
Y3297D01*
X3848D01*
X3326Y6316D02*
X3478D01*
Y6240D01*
X3453Y6215D01*
X3402D01*
X3377Y6240D01*
Y6316D01*
Y6265D02*
X3326Y6215D01*
X3478Y6062D02*
Y6164D01*
X3326D01*
Y6062D01*
X3402Y6164D02*
Y6113D01*
X3453Y5910D02*
X3478Y5935D01*
Y5986D01*
X3453Y6011D01*
X3428D01*
X3402Y5986D01*
Y5935D01*
X3377Y5910D01*
X3352D01*
X3326Y5935D01*
Y5986D01*
X3352Y6011D01*
X3478Y5757D02*
Y5859D01*
X3326D01*
Y5757D01*
X3402Y5859D02*
Y5808D01*
X3478Y5707D02*
Y5605D01*
Y5656D01*
X3326D01*
Y5554D02*
Y5504D01*
Y5529D01*
X3478D01*
X3453Y5554D01*
X22936Y10160D02*
X22885D01*
X22911D01*
Y10033D01*
X22885Y10008D01*
X22860D01*
X22835Y10033D01*
X22987Y10008D02*
X23038D01*
X23012D01*
Y10160D01*
X22987Y10135D01*
X3251Y4572D02*
X3353D01*
X3505Y4648D02*
X3404D01*
Y4572D01*
X3454Y4597D01*
X3480D01*
X3505Y4572D01*
Y4521D01*
X3480Y4496D01*
X3429D01*
X3404Y4521D01*
X3556Y4648D02*
Y4547D01*
X3607Y4496D01*
X3657Y4547D01*
Y4648D01*
X3861D02*
Y4496D01*
X3937D01*
X3962Y4521D01*
Y4547D01*
X3937Y4572D01*
X3861D01*
X3937D01*
X3962Y4597D01*
Y4623D01*
X3937Y4648D01*
X3861D01*
X3251Y3835D02*
X3353D01*
X3302Y3886D02*
Y3785D01*
X3505Y3912D02*
X3404D01*
Y3835D01*
X3454Y3861D01*
X3480D01*
X3505Y3835D01*
Y3785D01*
X3480Y3759D01*
X3429D01*
X3404Y3785D01*
X3556Y3912D02*
Y3810D01*
X3607Y3759D01*
X3657Y3810D01*
Y3912D01*
X3861D02*
Y3759D01*
X3937D01*
X3962Y3785D01*
Y3810D01*
X3937Y3835D01*
X3861D01*
X3937D01*
X3962Y3861D01*
Y3886D01*
X3937Y3912D01*
X3861D01*
X3226Y2540D02*
X3327D01*
X3277Y2591D02*
Y2489D01*
X3480Y2616D02*
X3378D01*
Y2540D01*
X3429Y2565D01*
X3454D01*
X3480Y2540D01*
Y2489D01*
X3454Y2464D01*
X3404D01*
X3378Y2489D01*
X3531Y2616D02*
Y2515D01*
X3581Y2464D01*
X3632Y2515D01*
Y2616D01*
X3835Y2464D02*
Y2565D01*
X3886Y2616D01*
X3937Y2565D01*
Y2464D01*
Y2540D01*
X3835D01*
D49*
X2202Y11000D02*
X24206Y11000D01*
X2200Y1041D02*
Y10998D01*
Y1035D02*
Y1041D01*
Y1035D02*
X2235Y1000D01*
X17297D01*
X24206Y1000D01*
X24206Y11000D01*
D76*
X16552Y8412D02*
G03*
X16552Y8412I-12J0D01*
G01*
X16680Y7252D02*
G03*
X16680Y7252I-12J0D01*
G01*
X13288Y7249D02*
G03*
X13288Y7249I-12J0D01*
G01*
X13161Y8409D02*
G03*
X13161Y8409I-12J0D01*
G01*
X8086Y6744D02*
G03*
X8086Y6744I-12J0D01*
G01*
X18373D02*
G03*
X18373Y6744I-12J0D01*
G01*
D77*
X16729Y6856D02*
G03*
X16729Y6856I-30J0D01*
G01*
X13337Y6853D02*
G03*
X13337Y6853I-30J0D01*
G01*
X8138Y6449D02*
G03*
X8138Y6449I-30J0D01*
G01*
X18425D02*
G03*
X18425Y6449I-30J0D01*
G01*
D78*
X21583Y9814D02*
G03*
X21583Y10406I-95J296D01*
G01*
X21392D02*
G03*
X21392Y9814I95J-296D01*
G01*
X21583Y9784D02*
X21813D01*
Y10267D01*
X21643Y10434D02*
X21813Y10267D01*
X21583Y10434D02*
X21643D01*
X21331D02*
X21392D01*
X21163Y10267D02*
X21331Y10434D01*
X21163Y9784D02*
Y10267D01*
Y9784D02*
X21392D01*
D79*
X22481Y6824D02*
G03*
X22544Y6824I32J0D01*
G01*
X22483Y7919D02*
G03*
X22546Y7919I32J0D01*
G01*
X9120Y7525D02*
G03*
X9120Y7462I0J-32D01*
G01*
X19407Y7525D02*
G03*
X19407Y7462I0J-32D01*
G01*
X14316Y9927D02*
X14566D01*
X14316Y9077D02*
Y9927D01*
Y9077D02*
X14816D01*
Y9927D01*
X14566D02*
X14816D01*
X15263Y9590D02*
X15303D01*
X15263Y9660D02*
X15303D01*
X14321Y8928D02*
X14571D01*
X14321Y8183D02*
Y8928D01*
Y8183D02*
X14821D01*
Y8928D01*
X14571D02*
X14821D01*
X15750Y3799D02*
X15830D01*
X15750Y3559D02*
X15830D01*
X15750Y4129D02*
X15830D01*
X15750Y3889D02*
X15830D01*
X16799Y8934D02*
X16839D01*
X16799Y8864D02*
X16839D01*
X17214Y6902D02*
Y6982D01*
X16974Y6902D02*
Y6982D01*
X15506Y7651D02*
Y7732D01*
X15355Y7651D02*
Y7732D01*
X16247Y8864D02*
X16417D01*
X16247Y8449D02*
X16417D01*
X16247D02*
Y8864D01*
X16417Y8449D02*
Y8864D01*
X14644Y4856D02*
Y6996D01*
X16954Y4856D02*
Y6996D01*
X14644Y4856D02*
X16954D01*
X14644Y6996D02*
X16954D01*
X17352Y7608D02*
Y7688D01*
X17202Y7608D02*
Y7688D01*
X16531Y9182D02*
Y9222D01*
X16601Y9182D02*
Y9222D01*
X16462Y9182D02*
Y9222D01*
X16392Y9182D02*
Y9222D01*
X15904Y9005D02*
Y9045D01*
X15974Y9005D02*
Y9045D01*
X15855Y8590D02*
X15895D01*
X15855Y8520D02*
X15895D01*
X16081Y8281D02*
Y8321D01*
X16151Y8281D02*
Y8321D01*
X15855Y8660D02*
X15895D01*
X15855Y8730D02*
X15895D01*
X12463Y8657D02*
X12503D01*
X12463Y8727D02*
X12503D01*
X12690Y8278D02*
Y8318D01*
X12760Y8278D02*
Y8318D01*
X12463Y8587D02*
X12503D01*
X12463Y8517D02*
X12503D01*
X12512Y9002D02*
Y9042D01*
X12582Y9002D02*
Y9042D01*
X13070Y9179D02*
Y9219D01*
X13000Y9179D02*
Y9219D01*
X13140Y9179D02*
Y9219D01*
X13210Y9179D02*
Y9219D01*
X13960Y7606D02*
Y7686D01*
X13810Y7606D02*
Y7686D01*
X11252Y4853D02*
Y6993D01*
X13562Y4853D02*
Y6993D01*
X11252Y4853D02*
X13562D01*
X11252Y6993D02*
X13562D01*
X12856Y8861D02*
X13026D01*
X12856Y8446D02*
X13026D01*
X12856D02*
Y8861D01*
X13026Y8446D02*
Y8861D01*
X12114Y7649D02*
Y7729D01*
X11964Y7649D02*
Y7729D01*
X13823Y6899D02*
Y6979D01*
X13583Y6899D02*
Y6979D01*
X13407Y8931D02*
X13447D01*
X13407Y8861D02*
X13447D01*
X12358Y4126D02*
X12438D01*
X12358Y3886D02*
X12438D01*
X12358Y3796D02*
X12438D01*
X12358Y3556D02*
X12438D01*
X10929Y8925D02*
X11179D01*
X10929Y8180D02*
Y8925D01*
Y8180D02*
X11429D01*
Y8925D01*
X11179D02*
X11429D01*
X11872Y9587D02*
X11912D01*
X11872Y9657D02*
X11912D01*
X10925Y9925D02*
X11175D01*
X10925Y9075D02*
Y9925D01*
Y9075D02*
X11425D01*
Y9925D01*
X11175D02*
X11425D01*
X22327Y10485D02*
X22577D01*
Y9683D02*
Y10485D01*
X22077Y9683D02*
X22577D01*
X22077D02*
Y10485D01*
X22327D01*
X9199Y7098D02*
Y7138D01*
X9269Y7098D02*
Y7138D01*
X19486Y7098D02*
Y7138D01*
X19556Y7098D02*
Y7138D01*
X13706Y5348D02*
Y5388D01*
X13776Y5348D02*
Y5388D01*
X9265Y7718D02*
X9305D01*
X9265Y7788D02*
X9305D01*
X19552Y7718D02*
X19592D01*
X19552Y7788D02*
X19592D01*
X9123Y8089D02*
Y8129D01*
X9193Y8089D02*
Y8129D01*
X19410Y8089D02*
Y8129D01*
X19480Y8089D02*
Y8129D01*
X9163Y9566D02*
X9203D01*
X9163Y9496D02*
X9203D01*
X19450Y9541D02*
X19490D01*
X19450Y9471D02*
X19490D01*
X22932Y6664D02*
Y6704D01*
X22862Y6664D02*
Y6704D01*
X22864Y7784D02*
Y7824D01*
X22934Y7784D02*
Y7824D01*
X13706Y4967D02*
Y5007D01*
X13776Y4967D02*
Y5007D01*
X10843Y6092D02*
Y6252D01*
X11153Y6092D02*
Y6252D01*
X14247Y6143D02*
Y6303D01*
X14557Y6143D02*
Y6303D01*
X21075Y1865D02*
Y1945D01*
X20835Y1865D02*
Y1945D01*
X20770Y1865D02*
Y1945D01*
X20530Y1865D02*
Y1945D01*
X20465Y1865D02*
Y1945D01*
X20225Y1865D02*
Y1945D01*
X18941Y1873D02*
Y1953D01*
X18701Y1873D02*
Y1953D01*
X21050Y3110D02*
Y3190D01*
X20810Y3110D02*
Y3190D01*
X20745Y3110D02*
Y3190D01*
X20505Y3110D02*
Y3190D01*
X20440Y3110D02*
Y3190D01*
X20200Y3110D02*
Y3190D01*
X18941Y3085D02*
Y3165D01*
X18701Y3085D02*
Y3165D01*
X22406Y6316D02*
Y6824D01*
Y6316D02*
X22619D01*
Y6824D01*
X22544D02*
X22619D01*
X22406D02*
X22481D01*
X22408Y7411D02*
Y7919D01*
Y7411D02*
X22621D01*
Y7919D01*
X22546D02*
X22621D01*
X22408D02*
X22483D01*
X3367Y9769D02*
X3407D01*
X3367Y9699D02*
X3407D01*
X8635Y8127D02*
X8715D01*
X8635Y7887D02*
X8715D01*
X8986Y6999D02*
X9026D01*
X8986Y7069D02*
X9026D01*
X8612Y7613D02*
X9120D01*
X8612Y7374D02*
Y7613D01*
Y7374D02*
X9120D01*
Y7462D01*
Y7525D02*
Y7613D01*
X10528Y6291D02*
Y6371D01*
X10378Y6291D02*
Y6371D01*
X9358Y5276D02*
Y6576D01*
X8008Y5276D02*
Y6576D01*
X9358D01*
X8008Y5276D02*
X9358D01*
X8508Y4712D02*
X8588D01*
X8508Y4952D02*
X8588D01*
X9063Y8697D02*
Y8947D01*
Y8697D02*
X9913D01*
Y9197D01*
X9063D02*
X9913D01*
X9063Y8947D02*
Y9197D01*
X10072Y6988D02*
X10276D01*
Y5978D02*
Y6988D01*
X9869Y5978D02*
X10276D01*
X9869D02*
Y6988D01*
X10072D01*
X9975Y8990D02*
X10225D01*
X9975Y8244D02*
Y8990D01*
Y8244D02*
X10475D01*
Y8990D01*
X10225D02*
X10475D01*
X8508Y4408D02*
X8588D01*
X8508Y4648D02*
X8588D01*
X8706Y6999D02*
X8746D01*
X8706Y7069D02*
X8746D01*
X18922Y8127D02*
X19002D01*
X18922Y7887D02*
X19002D01*
X19273Y6999D02*
X19313D01*
X19273Y7069D02*
X19313D01*
X18899Y7613D02*
X19407D01*
X18899Y7374D02*
Y7613D01*
Y7374D02*
X19407D01*
Y7462D01*
Y7525D02*
Y7613D01*
X20815Y6291D02*
Y6371D01*
X20665Y6291D02*
Y6371D01*
X19645Y5276D02*
Y6576D01*
X18295Y5276D02*
Y6576D01*
X19645D01*
X18295Y5276D02*
X19645D01*
X18795Y4712D02*
X18875D01*
X18795Y4952D02*
X18875D01*
X19350Y8697D02*
Y8947D01*
Y8697D02*
X20200D01*
Y9197D01*
X19350D02*
X20200D01*
X19350Y8947D02*
Y9197D01*
X20359Y6988D02*
X20563D01*
Y5978D02*
Y6988D01*
X20156Y5978D02*
X20563D01*
X20156D02*
Y6988D01*
X20359D01*
X20262Y8990D02*
X20512D01*
X20262Y8244D02*
Y8990D01*
Y8244D02*
X20762D01*
Y8990D01*
X20512D02*
X20762D01*
X18795Y4408D02*
X18875D01*
X18795Y4648D02*
X18875D01*
X18993Y6999D02*
X19033D01*
X18993Y7069D02*
X19033D01*
X19640Y3038D02*
X19680D01*
X19640Y3108D02*
X19680D01*
X19640Y1946D02*
X19680D01*
X19640Y2016D02*
X19680D01*
X3231Y4378D02*
X3271D01*
X3231Y4308D02*
X3271D01*
X3384Y8849D02*
X3424D01*
X3384Y8779D02*
X3424D01*
X3384Y8188D02*
X3424D01*
X3384Y8118D02*
X3424D01*
D80*
X1756Y2710D02*
G03*
X1756Y2420I0J-145D01*
G01*
Y3345D02*
G03*
X1756Y3055I0J-145D01*
G01*
Y3980D02*
G03*
X1756Y3690I0J-145D01*
G01*
Y4615D02*
G03*
X1756Y4325I0J-145D01*
G01*
X1781Y9111D02*
G03*
X1781Y8821I0J-145D01*
G01*
Y8451D02*
G03*
X1781Y8161I0J-145D01*
G01*
Y9746D02*
G03*
X1781Y9456I0J-145D01*
G01*
X1765Y2710D02*
X1875D01*
X1765Y2420D02*
X1875D01*
X1883Y2870D02*
X2848D01*
X1883Y2261D02*
Y2870D01*
Y2261D02*
X2848D01*
Y2870D01*
X1765Y3345D02*
X1875D01*
X1765Y3055D02*
X1875D01*
X1883Y3505D02*
X2848D01*
X1883Y2896D02*
Y3505D01*
Y2896D02*
X2848D01*
Y3505D01*
X1765Y3980D02*
X1875D01*
X1765Y3690D02*
X1875D01*
X1883Y4140D02*
X2848D01*
X1883Y3531D02*
Y4140D01*
Y3531D02*
X2848D01*
Y4140D01*
X1765Y4615D02*
X1875D01*
X1765Y4325D02*
X1875D01*
X1883Y4775D02*
X2848D01*
X1883Y4166D02*
Y4775D01*
Y4166D02*
X2848D01*
Y4775D01*
X1790Y9111D02*
X1900D01*
X1790Y8821D02*
X1900D01*
X1908Y9271D02*
X2873D01*
X1908Y8661D02*
Y9271D01*
Y8661D02*
X2873D01*
Y9271D01*
X1790Y8451D02*
X1900D01*
X1790Y8161D02*
X1900D01*
X1908Y8611D02*
X2873D01*
X1908Y8001D02*
Y8611D01*
Y8001D02*
X2873D01*
Y8611D01*
Y9296D02*
Y9906D01*
X1908Y9296D02*
X2873D01*
X1908D02*
Y9906D01*
X2873D01*
X1790Y9456D02*
X1900D01*
X1790Y9746D02*
X1900D01*
D81*
X16217Y7820D02*
X16397D01*
Y7680D02*
Y7820D01*
X16217Y7680D02*
X16397D01*
X16217D02*
Y7820D01*
X12825Y7818D02*
X13005D01*
Y7678D02*
Y7818D01*
X12825Y7678D02*
X13005D01*
X12825D02*
Y7818D01*
D82*
X2654Y6663D02*
X2718Y6726D01*
X2654Y6917D02*
X2718Y6853D01*
X2654Y6917D02*
X2718Y6980D01*
X2654Y7171D02*
X2718Y7107D01*
X2273Y6663D02*
X2654D01*
X2210Y6726D02*
X2273Y6663D01*
X2210Y6726D02*
Y6853D01*
X2273Y6917D01*
X2210Y6980D02*
X2273Y6917D01*
X2210Y6980D02*
Y7107D01*
X2273Y7171D01*
Y6917D02*
X2654D01*
X2273Y7171D02*
X2654D01*
X2718Y6980D02*
Y7107D01*
Y6726D02*
Y6853D01*
X2654Y7171D02*
X2718Y7234D01*
X2654Y7425D02*
X2718Y7361D01*
X2210Y7234D02*
X2273Y7171D01*
X2210Y7234D02*
Y7361D01*
X2273Y7425D01*
X2654D01*
X2718Y7234D02*
Y7361D01*
D83*
X5573Y3734D02*
X5631D01*
X5552Y3731D02*
X5651D01*
X5540Y3729D02*
X5667D01*
X5527Y3726D02*
X5679D01*
X5519Y3724D02*
X5687D01*
X5512Y3721D02*
X5697D01*
X5504Y3719D02*
X5705D01*
X4595Y3716D02*
X4597D01*
X5497D02*
X5712D01*
X5933D02*
X6099D01*
X4595Y3713D02*
X4597D01*
X4773D02*
X4940D01*
X5093D02*
X5260D01*
X5489D02*
X5718D01*
X5933D02*
X6099D01*
X4592Y3711D02*
X4600D01*
X4773D02*
X4940D01*
X5093D02*
X5260D01*
X5484D02*
X5725D01*
X5933D02*
X6099D01*
X4592Y3708D02*
X4602D01*
X4773D02*
X4940D01*
X5093D02*
X5260D01*
X5479D02*
X5730D01*
X5933D02*
X6099D01*
X4592Y3706D02*
X4600D01*
X4773D02*
X4940D01*
X5093D02*
X5260D01*
X5474D02*
X5735D01*
X5933D02*
X6099D01*
X4592Y3703D02*
X4600D01*
X4773D02*
X4940D01*
X5093D02*
X5260D01*
X5469D02*
X5740D01*
X5933D02*
X6099D01*
X4592Y3701D02*
X4600D01*
X4773D02*
X4940D01*
X5093D02*
X5260D01*
X5464D02*
X5745D01*
X5933D02*
X6099D01*
X4592Y3698D02*
X4600D01*
X4773D02*
X4940D01*
X5093D02*
X5260D01*
X5461D02*
X5751D01*
X5933D02*
X6099D01*
X4592Y3696D02*
X4600D01*
X4773D02*
X4940D01*
X5093D02*
X5260D01*
X5456D02*
X5756D01*
X5933D02*
X6099D01*
X4590Y3693D02*
X4605D01*
X4773D02*
X4940D01*
X5093D02*
X5260D01*
X5453D02*
X5761D01*
X5933D02*
X6099D01*
X4590Y3691D02*
X4602D01*
X4773D02*
X4940D01*
X5093D02*
X5260D01*
X5448D02*
X5763D01*
X5933D02*
X6099D01*
X4587Y3688D02*
X4605D01*
X4773D02*
X4940D01*
X5093D02*
X5260D01*
X5446D02*
X5768D01*
X5933D02*
X6099D01*
X4585Y3686D02*
X4608D01*
X4773D02*
X4940D01*
X5093D02*
X5260D01*
X5441D02*
X5773D01*
X5933D02*
X6099D01*
X4580Y3683D02*
X4613D01*
X4773D02*
X4940D01*
X5093D02*
X5260D01*
X5438D02*
X5776D01*
X5933D02*
X6099D01*
X4575Y3680D02*
X4618D01*
X4773D02*
X4940D01*
X5093D02*
X5260D01*
X5433D02*
X5778D01*
X5933D02*
X6099D01*
X4575Y3678D02*
X4620D01*
X4773D02*
X4940D01*
X5093D02*
X5260D01*
X5431D02*
X5784D01*
X5933D02*
X6099D01*
X4572Y3675D02*
X4623D01*
X4773D02*
X4940D01*
X5093D02*
X5260D01*
X5428D02*
X5786D01*
X5933D02*
X6099D01*
X4569Y3673D02*
X4625D01*
X4773D02*
X4940D01*
X5093D02*
X5260D01*
X5425D02*
X5789D01*
X5933D02*
X6099D01*
X4567Y3670D02*
X4625D01*
X4773D02*
X4940D01*
X5093D02*
X5260D01*
X5420D02*
X5791D01*
X5933D02*
X6099D01*
X4564Y3668D02*
X4628D01*
X4773D02*
X4940D01*
X5093D02*
X5260D01*
X5418D02*
X5796D01*
X5933D02*
X6099D01*
X4564Y3665D02*
X4628D01*
X4773D02*
X4940D01*
X5093D02*
X5260D01*
X5415D02*
X5799D01*
X5933D02*
X6099D01*
X4564Y3663D02*
X4630D01*
X4773D02*
X4940D01*
X5093D02*
X5260D01*
X5413D02*
X5801D01*
X5933D02*
X6099D01*
X4562Y3660D02*
X4630D01*
X4773D02*
X4940D01*
X5093D02*
X5260D01*
X5410D02*
X5804D01*
X5933D02*
X6099D01*
X4562Y3658D02*
X4630D01*
X4773D02*
X4940D01*
X5093D02*
X5260D01*
X5408D02*
X5806D01*
X5933D02*
X6099D01*
X4562Y3655D02*
X4630D01*
X4773D02*
X4940D01*
X5093D02*
X5260D01*
X5405D02*
X5809D01*
X5933D02*
X6099D01*
X4562Y3653D02*
X4630D01*
X4773D02*
X4940D01*
X5093D02*
X5260D01*
X5403D02*
X5814D01*
X5933D02*
X6099D01*
X4562Y3650D02*
X4630D01*
X4773D02*
X4940D01*
X5093D02*
X5260D01*
X5400D02*
X5817D01*
X5933D02*
X6099D01*
X4562Y3647D02*
X4630D01*
X4773D02*
X4940D01*
X5093D02*
X5260D01*
X5400D02*
X5819D01*
X5933D02*
X6099D01*
X4559Y3645D02*
X4633D01*
X4773D02*
X4940D01*
X5093D02*
X5260D01*
X5395D02*
X5819D01*
X5933D02*
X6099D01*
X4557Y3642D02*
X4635D01*
X4773D02*
X4940D01*
X5093D02*
X5260D01*
X5395D02*
X5822D01*
X5933D02*
X6099D01*
X4557Y3640D02*
X4600D01*
X4602D02*
X4635D01*
X4773D02*
X4940D01*
X5093D02*
X5260D01*
X5392D02*
X5824D01*
X5933D02*
X6099D01*
X4559Y3637D02*
X4635D01*
X4773D02*
X4940D01*
X5093D02*
X5260D01*
X5390D02*
X5827D01*
X5933D02*
X6099D01*
X4559Y3635D02*
X4592D01*
X4595D02*
X4613D01*
X4615D02*
X4635D01*
X4773D02*
X4940D01*
X5093D02*
X5260D01*
X5387D02*
X5829D01*
X5933D02*
X6099D01*
X4559Y3632D02*
X4582D01*
X4585D02*
X4595D01*
X4597D02*
X4635D01*
X4773D02*
X4940D01*
X5093D02*
X5260D01*
X5385D02*
X5832D01*
X5933D02*
X6099D01*
X4557Y3630D02*
X4572D01*
X4575D02*
X4582D01*
X4610D02*
X4635D01*
X4773D02*
X4940D01*
X5093D02*
X5260D01*
X5385D02*
X5834D01*
X5933D02*
X6099D01*
X4557Y3627D02*
X4572D01*
X4620D02*
X4635D01*
X4773D02*
X4940D01*
X5093D02*
X5260D01*
X5382D02*
X5834D01*
X5933D02*
X6099D01*
X4557Y3625D02*
X4559D01*
X4633D02*
X4635D01*
X4773D02*
X4940D01*
X5093D02*
X5260D01*
X5380D02*
X5837D01*
X5933D02*
X6099D01*
X4585Y3622D02*
X4608D01*
X4773D02*
X4940D01*
X5093D02*
X5260D01*
X5377D02*
X5578D01*
X5580D02*
X5603D01*
X5606D02*
X5624D01*
X5626D02*
X5839D01*
X5933D02*
X6099D01*
X4572Y3619D02*
X4620D01*
X4773D02*
X4940D01*
X5093D02*
X5260D01*
X5377D02*
X5585D01*
X5588D02*
X5842D01*
X5933D02*
X6099D01*
X4562Y3617D02*
X4630D01*
X4773D02*
X4940D01*
X5093D02*
X5260D01*
X5375D02*
X5593D01*
X5596D02*
X5842D01*
X5933D02*
X6099D01*
X4549Y3614D02*
X4643D01*
X4773D02*
X4940D01*
X5093D02*
X5260D01*
X5372D02*
X5611D01*
X5613D02*
X5845D01*
X5933D02*
X6099D01*
X4536Y3612D02*
X4656D01*
X4773D02*
X4940D01*
X5093D02*
X5260D01*
X5372D02*
X5618D01*
X5621D02*
X5847D01*
X5933D02*
X6099D01*
X4526Y3609D02*
X4666D01*
X4773D02*
X4940D01*
X5093D02*
X5260D01*
X5370D02*
X5387D01*
X5390D02*
X5847D01*
X5933D02*
X6099D01*
X4514Y3607D02*
X4679D01*
X4773D02*
X4940D01*
X5093D02*
X5260D01*
X5370D02*
X5850D01*
X5933D02*
X6099D01*
X4508Y3604D02*
X4684D01*
X4773D02*
X4940D01*
X5093D02*
X5260D01*
X5367D02*
X5575D01*
X5578D02*
X5585D01*
X5634D02*
X5850D01*
X5933D02*
X6099D01*
X4508Y3602D02*
X4684D01*
X4773D02*
X4940D01*
X5093D02*
X5260D01*
X5367D02*
X5537D01*
X5540D02*
X5555D01*
X5558D02*
X5575D01*
X5644D02*
X5651D01*
X5654D02*
X5669D01*
X5672D02*
X5682D01*
X5685D02*
X5852D01*
X5933D02*
X6099D01*
X4511Y3599D02*
X4681D01*
X4773D02*
X4940D01*
X5093D02*
X5260D01*
X5364D02*
X5565D01*
X5651D02*
X5690D01*
X5692D02*
X5855D01*
X5933D02*
X6099D01*
X4511Y3597D02*
X4681D01*
X4773D02*
X4940D01*
X5093D02*
X5260D01*
X5362D02*
X5563D01*
X5657D02*
X5855D01*
X5933D02*
X6099D01*
X4514Y3594D02*
X4679D01*
X4773D02*
X4940D01*
X5093D02*
X5260D01*
X5362D02*
X5558D01*
X5662D02*
X5857D01*
X5933D02*
X6099D01*
X4516Y3592D02*
X4529D01*
X4547D02*
X4559D01*
X4575D02*
X4587D01*
X4605D02*
X4618D01*
X4633D02*
X4646D01*
X4663D02*
X4676D01*
X4773D02*
X4940D01*
X5093D02*
X5260D01*
X5359D02*
X5552D01*
X5667D02*
X5857D01*
X5933D02*
X6099D01*
X4519Y3589D02*
X4529D01*
X4547D02*
X4557D01*
X4577D02*
X4587D01*
X4605D02*
X4615D01*
X4635D02*
X4646D01*
X4663D02*
X4674D01*
X4773D02*
X4940D01*
X5093D02*
X5260D01*
X5359D02*
X5545D01*
X5547D02*
X5550D01*
X5669D02*
X5860D01*
X5933D02*
X6099D01*
X4519Y3586D02*
X4529D01*
X4549D02*
X4557D01*
X4577D02*
X4585D01*
X4608D02*
X4615D01*
X4635D02*
X4646D01*
X4663D02*
X4674D01*
X4773D02*
X4940D01*
X5093D02*
X5260D01*
X5357D02*
X5545D01*
X5674D02*
X5857D01*
X5933D02*
X6099D01*
X4519Y3584D02*
X4529D01*
X4549D02*
X4557D01*
X4577D02*
X4587D01*
X4605D02*
X4615D01*
X4635D02*
X4643D01*
X4663D02*
X4674D01*
X4773D02*
X4940D01*
X5093D02*
X5260D01*
X5357D02*
X5542D01*
X5677D02*
X5692D01*
X5695D02*
X5852D01*
X5933D02*
X6099D01*
X4519Y3581D02*
X4529D01*
X4549D02*
X4557D01*
X4577D02*
X4585D01*
X4608D02*
X4615D01*
X4635D02*
X4643D01*
X4666D02*
X4674D01*
X4773D02*
X4940D01*
X5093D02*
X5260D01*
X5354D02*
X5512D01*
X5514D02*
X5532D01*
X5535D02*
X5540D01*
X5679D02*
X5707D01*
X5710D02*
X5819D01*
X5822D02*
X5847D01*
X5933D02*
X6099D01*
X4519Y3579D02*
X4529D01*
X4549D02*
X4557D01*
X4577D02*
X4585D01*
X4608D02*
X4615D01*
X4635D02*
X4643D01*
X4666D02*
X4674D01*
X4773D02*
X4940D01*
X5093D02*
X5260D01*
X5354D02*
X5537D01*
X5682D02*
X5809D01*
X5812D02*
X5842D01*
X5933D02*
X6099D01*
X4519Y3576D02*
X4529D01*
X4549D02*
X4557D01*
X4577D02*
X4585D01*
X4608D02*
X4615D01*
X4635D02*
X4643D01*
X4666D02*
X4674D01*
X4773D02*
X4940D01*
X5093D02*
X5260D01*
X5352D02*
X5535D01*
X5685D02*
X5837D01*
X5933D02*
X6099D01*
X4519Y3574D02*
X4529D01*
X4549D02*
X4557D01*
X4577D02*
X4585D01*
X4608D02*
X4615D01*
X4635D02*
X4643D01*
X4666D02*
X4674D01*
X4773D02*
X4940D01*
X5093D02*
X5260D01*
X5352D02*
X5517D01*
X5519D02*
X5532D01*
X5687D02*
X5799D01*
X5801D02*
X5832D01*
X5933D02*
X6099D01*
X4519Y3571D02*
X4529D01*
X4549D02*
X4557D01*
X4577D02*
X4585D01*
X4608D02*
X4615D01*
X4635D02*
X4643D01*
X4666D02*
X4674D01*
X4773D02*
X4940D01*
X5093D02*
X5260D01*
X5352D02*
X5530D01*
X5690D02*
X5827D01*
X5933D02*
X6099D01*
X4519Y3569D02*
X4529D01*
X4549D02*
X4557D01*
X4577D02*
X4585D01*
X4608D02*
X4615D01*
X4635D02*
X4643D01*
X4666D02*
X4674D01*
X4773D02*
X4940D01*
X5093D02*
X5260D01*
X5349D02*
X5527D01*
X5692D02*
X5697D01*
X5700D02*
X5822D01*
X5933D02*
X6099D01*
X4519Y3566D02*
X4529D01*
X4549D02*
X4557D01*
X4577D02*
X4585D01*
X4608D02*
X4615D01*
X4635D02*
X4643D01*
X4666D02*
X4674D01*
X4773D02*
X4940D01*
X5093D02*
X5260D01*
X5349D02*
X5524D01*
X5695D02*
X5817D01*
X5933D02*
X6099D01*
X4519Y3564D02*
X4529D01*
X4549D02*
X4557D01*
X4577D02*
X4585D01*
X4608D02*
X4615D01*
X4635D02*
X4643D01*
X4666D02*
X4674D01*
X4773D02*
X4940D01*
X5093D02*
X5260D01*
X5347D02*
X5522D01*
X5695D02*
X5812D01*
X5933D02*
X6099D01*
X4519Y3561D02*
X4529D01*
X4549D02*
X4557D01*
X4577D02*
X4585D01*
X4608D02*
X4615D01*
X4635D02*
X4643D01*
X4666D02*
X4674D01*
X4773D02*
X4940D01*
X5093D02*
X5260D01*
X5347D02*
X5522D01*
X5697D02*
X5710D01*
X5712D02*
X5766D01*
X5768D02*
X5786D01*
X5789D02*
X5806D01*
X5933D02*
X6099D01*
X4519Y3559D02*
X4529D01*
X4549D02*
X4557D01*
X4577D02*
X4585D01*
X4608D02*
X4615D01*
X4635D02*
X4643D01*
X4666D02*
X4674D01*
X4773D02*
X4940D01*
X5093D02*
X5260D01*
X5344D02*
X5519D01*
X5700D02*
X5756D01*
X5758D02*
X5801D01*
X5933D02*
X6099D01*
X4519Y3556D02*
X4529D01*
X4549D02*
X4557D01*
X4577D02*
X4585D01*
X4608D02*
X4615D01*
X4635D02*
X4643D01*
X4666D02*
X4674D01*
X4773D02*
X4940D01*
X5093D02*
X5260D01*
X5344D02*
X5517D01*
X5702D02*
X5773D01*
X5776D02*
X5796D01*
X5933D02*
X6099D01*
X4519Y3553D02*
X4529D01*
X4549D02*
X4557D01*
X4577D02*
X4585D01*
X4608D02*
X4615D01*
X4635D02*
X4643D01*
X4666D02*
X4674D01*
X4773D02*
X4940D01*
X5093D02*
X5260D01*
X5344D02*
X5517D01*
X5702D02*
X5791D01*
X5933D02*
X6099D01*
X4666Y3551D02*
X4674D01*
X4773D02*
X4940D01*
X5093D02*
X5260D01*
X5342D02*
X5514D01*
X5705D02*
X5786D01*
X5933D02*
X6099D01*
X4666Y3548D02*
X4674D01*
X4773D02*
X4940D01*
X5093D02*
X5260D01*
X5342D02*
X5514D01*
X5705D02*
X5781D01*
X5933D02*
X6099D01*
X4666Y3546D02*
X4674D01*
X4773D02*
X4940D01*
X5093D02*
X5260D01*
X5342D02*
X5512D01*
X5710D02*
X5776D01*
X5933D02*
X6099D01*
X4666Y3543D02*
X4674D01*
X4773D02*
X4940D01*
X5093D02*
X5260D01*
X5339D02*
X5512D01*
X5710D02*
X5771D01*
X5933D02*
X6099D01*
X4666Y3541D02*
X4674D01*
X4773D02*
X4940D01*
X5093D02*
X5260D01*
X5339D02*
X5509D01*
X5710D02*
X5715D01*
X5718D02*
X5745D01*
X5748D02*
X5766D01*
X5933D02*
X6099D01*
X4666Y3538D02*
X4674D01*
X4773D02*
X4940D01*
X5093D02*
X5260D01*
X5339D02*
X5509D01*
X5712D02*
X5728D01*
X5730D02*
X5738D01*
X5740D02*
X5761D01*
X5933D02*
X6099D01*
X4666Y3536D02*
X4674D01*
X4773D02*
X4940D01*
X5093D02*
X5260D01*
X5337D02*
X5507D01*
X5712D02*
X5756D01*
X5933D02*
X6099D01*
X4666Y3533D02*
X4674D01*
X4773D02*
X4940D01*
X5093D02*
X5260D01*
X5337D02*
X5491D01*
X5494D02*
X5507D01*
X5715D02*
X5751D01*
X5933D02*
X6099D01*
X4663Y3531D02*
X4674D01*
X4773D02*
X4940D01*
X5093D02*
X5260D01*
X5337D02*
X5507D01*
X5715D02*
X5745D01*
X5933D02*
X6099D01*
X4519Y3528D02*
X4674D01*
X4773D02*
X4940D01*
X5093D02*
X5260D01*
X5337D02*
X5504D01*
X5718D02*
X5738D01*
X5933D02*
X6099D01*
X4519Y3526D02*
X4674D01*
X4773D02*
X4940D01*
X5093D02*
X5260D01*
X5334D02*
X5504D01*
X5718D02*
X5733D01*
X5933D02*
X6099D01*
X4511Y3523D02*
X4681D01*
X4773D02*
X4940D01*
X5093D02*
X5260D01*
X5334D02*
X5504D01*
X5720D02*
X5728D01*
X5933D02*
X6099D01*
X4511Y3520D02*
X4681D01*
X4773D02*
X4940D01*
X5093D02*
X5260D01*
X5334D02*
X5502D01*
X5720D02*
X5723D01*
X5933D02*
X6099D01*
X4511Y3518D02*
X4681D01*
X4773D02*
X4940D01*
X5093D02*
X5260D01*
X5334D02*
X5491D01*
X5494D02*
X5502D01*
X5933D02*
X6099D01*
X4511Y3515D02*
X4681D01*
X4773D02*
X4940D01*
X5093D02*
X5260D01*
X5331D02*
X5342D01*
X5344D02*
X5502D01*
X5933D02*
X6099D01*
X4511Y3513D02*
X4681D01*
X4773D02*
X4940D01*
X5093D02*
X5260D01*
X5331D02*
X5502D01*
X5933D02*
X6099D01*
X4503Y3510D02*
X4689D01*
X4773D02*
X4940D01*
X5093D02*
X5260D01*
X5331D02*
X5499D01*
X5933D02*
X6099D01*
X4503Y3508D02*
X4689D01*
X4773D02*
X4940D01*
X5093D02*
X5260D01*
X5331D02*
X5499D01*
X5933D02*
X6099D01*
X4503Y3505D02*
X4689D01*
X4773D02*
X4940D01*
X5093D02*
X5260D01*
X5331D02*
X5499D01*
X5933D02*
X6099D01*
X4503Y3503D02*
X4689D01*
X4773D02*
X4940D01*
X5093D02*
X5260D01*
X5329D02*
X5499D01*
X5933D02*
X6099D01*
X4773Y3500D02*
X4940D01*
X5093D02*
X5260D01*
X5329D02*
X5499D01*
X5933D02*
X6099D01*
X4773Y3498D02*
X4940D01*
X5093D02*
X5260D01*
X5329D02*
X5497D01*
X5933D02*
X6099D01*
X4773Y3495D02*
X4940D01*
X5093D02*
X5260D01*
X5329D02*
X5497D01*
X5933D02*
X6099D01*
X4773Y3492D02*
X4940D01*
X5093D02*
X5260D01*
X5329D02*
X5497D01*
X5933D02*
X6099D01*
X4773Y3490D02*
X4940D01*
X5093D02*
X5260D01*
X5329D02*
X5497D01*
X5933D02*
X6099D01*
X4773Y3487D02*
X4940D01*
X5093D02*
X5260D01*
X5326D02*
X5497D01*
X5933D02*
X6099D01*
X4773Y3485D02*
X4940D01*
X5093D02*
X5260D01*
X5326D02*
X5497D01*
X5933D02*
X6099D01*
X4773Y3482D02*
X4940D01*
X5093D02*
X5260D01*
X5326D02*
X5497D01*
X5933D02*
X6099D01*
X4773Y3480D02*
X4940D01*
X5093D02*
X5260D01*
X5326D02*
X5497D01*
X5933D02*
X6099D01*
X4773Y3477D02*
X4940D01*
X5093D02*
X5260D01*
X5326D02*
X5497D01*
X5933D02*
X6099D01*
X4773Y3475D02*
X4940D01*
X5093D02*
X5260D01*
X5326D02*
X5497D01*
X5933D02*
X6099D01*
X4773Y3472D02*
X4940D01*
X5093D02*
X5260D01*
X5326D02*
X5494D01*
X5933D02*
X6099D01*
X4773Y3470D02*
X4940D01*
X5093D02*
X5260D01*
X5326D02*
X5494D01*
X5933D02*
X6099D01*
X4773Y3467D02*
X4940D01*
X5093D02*
X5260D01*
X5326D02*
X5494D01*
X5933D02*
X6099D01*
X4773Y3465D02*
X4940D01*
X5093D02*
X5260D01*
X5326D02*
X5494D01*
X5933D02*
X6099D01*
X4773Y3462D02*
X4940D01*
X5093D02*
X5260D01*
X5326D02*
X5494D01*
X5933D02*
X6099D01*
X4773Y3459D02*
X4940D01*
X5093D02*
X5260D01*
X5324D02*
X5494D01*
X5933D02*
X6099D01*
X4773Y3457D02*
X4940D01*
X5093D02*
X5260D01*
X5324D02*
X5494D01*
X5933D02*
X6099D01*
X4773Y3454D02*
X4940D01*
X5093D02*
X5260D01*
X5324D02*
X5494D01*
X5933D02*
X6099D01*
X4773Y3452D02*
X4940D01*
X5093D02*
X5260D01*
X5324D02*
X5494D01*
X5933D02*
X6099D01*
X4773Y3449D02*
X4940D01*
X5093D02*
X5260D01*
X5324D02*
X5494D01*
X5933D02*
X6099D01*
X4773Y3447D02*
X4940D01*
X5093D02*
X5260D01*
X5324D02*
X5494D01*
X5933D02*
X6099D01*
X4773Y3444D02*
X4940D01*
X5093D02*
X5260D01*
X5324D02*
X5494D01*
X5933D02*
X6099D01*
X4773Y3442D02*
X4940D01*
X5093D02*
X5260D01*
X5324D02*
X5494D01*
X5933D02*
X6099D01*
X4773Y3439D02*
X4940D01*
X5093D02*
X5260D01*
X5324D02*
X5497D01*
X5933D02*
X6099D01*
X4773Y3437D02*
X4940D01*
X5093D02*
X5260D01*
X5324D02*
X5497D01*
X5933D02*
X6099D01*
X4773Y3434D02*
X4940D01*
X5093D02*
X5260D01*
X5324D02*
X5497D01*
X5933D02*
X6099D01*
X4773Y3432D02*
X4940D01*
X5093D02*
X5260D01*
X5324D02*
X5497D01*
X5933D02*
X6099D01*
X4773Y3429D02*
X4940D01*
X5093D02*
X5260D01*
X5326D02*
X5497D01*
X5933D02*
X6099D01*
X4773Y3426D02*
X4940D01*
X5093D02*
X5260D01*
X5326D02*
X5497D01*
X5933D02*
X6099D01*
X4773Y3424D02*
X4940D01*
X5093D02*
X5260D01*
X5326D02*
X5497D01*
X5933D02*
X6099D01*
X4773Y3421D02*
X4940D01*
X5093D02*
X5260D01*
X5326D02*
X5497D01*
X5933D02*
X6099D01*
X4773Y3419D02*
X4940D01*
X5093D02*
X5260D01*
X5326D02*
X5497D01*
X5933D02*
X6099D01*
X4773Y3416D02*
X4940D01*
X5093D02*
X5260D01*
X5326D02*
X5497D01*
X5933D02*
X6099D01*
X4773Y3414D02*
X4940D01*
X5093D02*
X5260D01*
X5326D02*
X5499D01*
X5933D02*
X6099D01*
X4773Y3411D02*
X4940D01*
X5093D02*
X5260D01*
X5326D02*
X5499D01*
X5933D02*
X6099D01*
X4773Y3409D02*
X4940D01*
X5093D02*
X5260D01*
X5326D02*
X5499D01*
X5933D02*
X6099D01*
X4773Y3406D02*
X4940D01*
X5093D02*
X5260D01*
X5326D02*
X5499D01*
X5933D02*
X6099D01*
X4773Y3404D02*
X4940D01*
X5093D02*
X5260D01*
X5329D02*
X5499D01*
X5933D02*
X6099D01*
X4773Y3401D02*
X4940D01*
X5093D02*
X5260D01*
X5329D02*
X5499D01*
X5933D02*
X6099D01*
X4773Y3399D02*
X4940D01*
X5093D02*
X5260D01*
X5329D02*
X5502D01*
X5933D02*
X6099D01*
X4773Y3396D02*
X4940D01*
X5093D02*
X5260D01*
X5329D02*
X5502D01*
X5933D02*
X6099D01*
X4773Y3393D02*
X4940D01*
X5093D02*
X5260D01*
X5329D02*
X5502D01*
X5933D02*
X6099D01*
X4773Y3391D02*
X4940D01*
X5093D02*
X5260D01*
X5329D02*
X5502D01*
X5933D02*
X6099D01*
X4773Y3388D02*
X4940D01*
X5093D02*
X5260D01*
X5329D02*
X5504D01*
X5933D02*
X6099D01*
X4773Y3386D02*
X4940D01*
X5093D02*
X5260D01*
X5331D02*
X5342D01*
X5344D02*
X5504D01*
X5718D02*
X5723D01*
X5933D02*
X6099D01*
X4773Y3383D02*
X4940D01*
X5093D02*
X5260D01*
X5331D02*
X5504D01*
X5718D02*
X5728D01*
X5933D02*
X6099D01*
X4773Y3381D02*
X4940D01*
X5093D02*
X5260D01*
X5331D02*
X5504D01*
X5718D02*
X5733D01*
X5933D02*
X6099D01*
X4773Y3378D02*
X4940D01*
X5093D02*
X5258D01*
X5331D02*
X5507D01*
X5715D02*
X5738D01*
X5933D02*
X6099D01*
X4773Y3376D02*
X4940D01*
X5093D02*
X5258D01*
X5331D02*
X5507D01*
X5715D02*
X5743D01*
X5933D02*
X6099D01*
X4773Y3373D02*
X4940D01*
X5093D02*
X5258D01*
X5334D02*
X5509D01*
X5715D02*
X5748D01*
X5933D02*
X6099D01*
X4773Y3371D02*
X4940D01*
X5093D02*
X5258D01*
X5334D02*
X5509D01*
X5712D02*
X5753D01*
X5933D02*
X6099D01*
X4775Y3368D02*
X4923D01*
X4925D02*
X4940D01*
X5093D02*
X5098D01*
X5100D02*
X5258D01*
X5334D02*
X5509D01*
X5712D02*
X5758D01*
X5933D02*
X6099D01*
X4775Y3365D02*
X4940D01*
X5090D02*
X5248D01*
X5250D02*
X5258D01*
X5334D02*
X5491D01*
X5494D02*
X5512D01*
X5710D02*
X5763D01*
X5933D02*
X6099D01*
X4775Y3363D02*
X4940D01*
X5090D02*
X5258D01*
X5337D02*
X5344D01*
X5347D02*
X5512D01*
X5710D02*
X5771D01*
X5933D02*
X6099D01*
X4775Y3360D02*
X4940D01*
X5090D02*
X5258D01*
X5337D02*
X5514D01*
X5707D02*
X5776D01*
X5933D02*
X6099D01*
X4775Y3358D02*
X4943D01*
X5090D02*
X5258D01*
X5337D02*
X5514D01*
X5707D02*
X5781D01*
X5933D02*
X6099D01*
X4775Y3355D02*
X4943D01*
X5090D02*
X5258D01*
X5339D02*
X5517D01*
X5705D02*
X5786D01*
X5933D02*
X6099D01*
X4775Y3353D02*
X4943D01*
X5090D02*
X5255D01*
X5339D02*
X5517D01*
X5705D02*
X5791D01*
X5933D02*
X6099D01*
X4775Y3350D02*
X4943D01*
X5090D02*
X5255D01*
X5339D02*
X5519D01*
X5702D02*
X5796D01*
X5933D02*
X6099D01*
X4775Y3348D02*
X4943D01*
X5090D02*
X5255D01*
X5342D02*
X5519D01*
X5700D02*
X5801D01*
X5933D02*
X6099D01*
X4775Y3345D02*
X4943D01*
X5088D02*
X5255D01*
X5342D02*
X5522D01*
X5697D02*
X5806D01*
X5933D02*
X6099D01*
X4775Y3343D02*
X4945D01*
X5088D02*
X5255D01*
X5342D02*
X5524D01*
X5697D02*
X5812D01*
X5933D02*
X6099D01*
X4775Y3340D02*
X4945D01*
X5088D02*
X5255D01*
X5344D02*
X5527D01*
X5695D02*
X5817D01*
X5933D02*
X6099D01*
X4778Y3338D02*
X4948D01*
X5085D02*
X5253D01*
X5344D02*
X5364D01*
X5367D02*
X5527D01*
X5692D02*
X5822D01*
X5933D02*
X6099D01*
X4778Y3335D02*
X4948D01*
X5085D02*
X5253D01*
X5344D02*
X5354D01*
X5357D02*
X5530D01*
X5690D02*
X5827D01*
X5933D02*
X6099D01*
X4778Y3332D02*
X4950D01*
X5083D02*
X5253D01*
X5347D02*
X5532D01*
X5687D02*
X5834D01*
X5933D02*
X6099D01*
X4778Y3330D02*
X4950D01*
X5083D02*
X5253D01*
X5347D02*
X5535D01*
X5685D02*
X5839D01*
X5933D02*
X6099D01*
X4778Y3327D02*
X4953D01*
X5080D02*
X5253D01*
X5349D02*
X5537D01*
X5685D02*
X5845D01*
X5933D02*
X6099D01*
X4778Y3325D02*
X4953D01*
X5077D02*
X5250D01*
X5349D02*
X5540D01*
X5679D02*
X5847D01*
X5933D02*
X6099D01*
X4780Y3322D02*
X4956D01*
X5077D02*
X5250D01*
X5349D02*
X5542D01*
X5677D02*
X5855D01*
X5933D02*
X6099D01*
X4780Y3320D02*
X4958D01*
X5075D02*
X5250D01*
X5352D02*
X5517D01*
X5519D02*
X5545D01*
X5674D02*
X5860D01*
X5933D02*
X6320D01*
X4780Y3317D02*
X4961D01*
X5072D02*
X5248D01*
X5352D02*
X5550D01*
X5669D02*
X5860D01*
X5933D02*
X6320D01*
X4780Y3315D02*
X4963D01*
X5070D02*
X5248D01*
X5354D02*
X5552D01*
X5667D02*
X5857D01*
X5933D02*
X6320D01*
X4783Y3312D02*
X4793D01*
X4796D02*
X4966D01*
X5067D02*
X5235D01*
X5237D02*
X5248D01*
X5354D02*
X5362D01*
X5364D02*
X5558D01*
X5662D02*
X5857D01*
X5933D02*
X6320D01*
X4783Y3310D02*
X4968D01*
X5062D02*
X5245D01*
X5357D02*
X5563D01*
X5657D02*
X5855D01*
X5933D02*
X6320D01*
X4783Y3307D02*
X4973D01*
X5057D02*
X5245D01*
X5357D02*
X5568D01*
X5649D02*
X5855D01*
X5933D02*
X6320D01*
X4783Y3305D02*
X4978D01*
X5052D02*
X5245D01*
X5359D02*
X5575D01*
X5641D02*
X5852D01*
X5933D02*
X6320D01*
X4785Y3302D02*
X4943D01*
X4945D02*
X4983D01*
X5047D02*
X5080D01*
X5083D02*
X5243D01*
X5359D02*
X5588D01*
X5631D02*
X5852D01*
X5933D02*
X6320D01*
X4785Y3299D02*
X4994D01*
X5039D02*
X5227D01*
X5230D02*
X5243D01*
X5362D02*
X5850D01*
X5933D02*
X6320D01*
X4785Y3297D02*
X5243D01*
X5362D02*
X5385D01*
X5387D02*
X5850D01*
X5933D02*
X6320D01*
X4788Y3294D02*
X4798D01*
X4801D02*
X5240D01*
X5364D02*
X5375D01*
X5377D02*
X5847D01*
X5933D02*
X6320D01*
X4788Y3292D02*
X5240D01*
X5367D02*
X5845D01*
X5933D02*
X6320D01*
X4788Y3289D02*
X5237D01*
X5367D02*
X5845D01*
X5933D02*
X6320D01*
X4790Y3287D02*
X5237D01*
X5370D02*
X5842D01*
X5933D02*
X6320D01*
X4790Y3284D02*
X5235D01*
X5370D02*
X5842D01*
X5933D02*
X6320D01*
X4793Y3282D02*
X5235D01*
X5372D02*
X5839D01*
X5933D02*
X6320D01*
X4793Y3279D02*
X5232D01*
X5375D02*
X5837D01*
X5933D02*
X6320D01*
X4796Y3277D02*
X4813D01*
X4816D02*
X5232D01*
X5375D02*
X5837D01*
X5933D02*
X6320D01*
X4796Y3274D02*
X5215D01*
X5217D02*
X5230D01*
X5377D02*
X5834D01*
X5933D02*
X6320D01*
X4798Y3272D02*
X4803D01*
X4806D02*
X5230D01*
X5380D02*
X5382D01*
X5385D02*
X5822D01*
X5824D02*
X5832D01*
X5933D02*
X6320D01*
X4801Y3269D02*
X5227D01*
X5380D02*
X5829D01*
X5933D02*
X6320D01*
X4801Y3266D02*
X5227D01*
X5382D02*
X5829D01*
X5933D02*
X6320D01*
X4803Y3264D02*
X4816D01*
X4818D02*
X5225D01*
X5385D02*
X5827D01*
X5933D02*
X6320D01*
X4803Y3261D02*
X5222D01*
X5387D02*
X5824D01*
X5933D02*
X6320D01*
X4806Y3259D02*
X5220D01*
X5390D02*
X5822D01*
X5933D02*
X6320D01*
X4808Y3256D02*
X4834D01*
X4836D02*
X5194D01*
X5197D02*
X5210D01*
X5212D02*
X5220D01*
X5392D02*
X5395D01*
X5397D02*
X5804D01*
X5806D02*
X5819D01*
X5933D02*
X6320D01*
X4808Y3254D02*
X5217D01*
X5395D02*
X5817D01*
X5933D02*
X6320D01*
X4811Y3251D02*
X5215D01*
X5395D02*
X5814D01*
X5933D02*
X6320D01*
X4813Y3249D02*
X4826D01*
X4829D02*
X5187D01*
X5189D02*
X5212D01*
X5397D02*
X5408D01*
X5410D02*
X5812D01*
X5933D02*
X6320D01*
X4816Y3246D02*
X5199D01*
X5202D02*
X5210D01*
X5400D02*
X5809D01*
X5933D02*
X6320D01*
X4818Y3244D02*
X5207D01*
X5403D02*
X5806D01*
X5933D02*
X6320D01*
X4821Y3241D02*
X5207D01*
X5405D02*
X5804D01*
X5933D02*
X6320D01*
X4823Y3238D02*
X5204D01*
X5408D02*
X5801D01*
X5933D02*
X6320D01*
X4823Y3236D02*
X4849D01*
X4851D02*
X5174D01*
X5177D02*
X5202D01*
X5410D02*
X5418D01*
X5420D02*
X5428D01*
X5431D02*
X5443D01*
X5446D02*
X5784D01*
X5786D02*
X5799D01*
X5933D02*
X6320D01*
X4826Y3233D02*
X5187D01*
X5189D02*
X5199D01*
X5413D02*
X5796D01*
X5933D02*
X6320D01*
X4834Y3231D02*
X4856D01*
X4859D02*
X5197D01*
X5415D02*
X5794D01*
X5933D02*
X6320D01*
X4831Y3228D02*
X5192D01*
X5418D02*
X5791D01*
X5933D02*
X6320D01*
X4836Y3226D02*
X5189D01*
X5423D02*
X5786D01*
X5933D02*
X6320D01*
X4839Y3223D02*
X4846D01*
X4849D02*
X5169D01*
X5171D02*
X5187D01*
X5425D02*
X5433D01*
X5436D02*
X5784D01*
X5933D02*
X6320D01*
X4841Y3221D02*
X5184D01*
X5428D02*
X5781D01*
X5933D02*
X6320D01*
X4846Y3218D02*
X5179D01*
X5433D02*
X5776D01*
X5933D02*
X6320D01*
X4849Y3216D02*
X5177D01*
X5436D02*
X5773D01*
X5933D02*
X6320D01*
D84*
X14364Y9985D02*
Y10065D01*
X14404D01*
X14418Y10052D01*
Y10025D01*
X14404Y10012D01*
X14364D01*
X14391D02*
X14418Y9985D01*
X14444D02*
X14484D01*
X14498Y9998D01*
X14484Y10012D01*
X14458D01*
X14444Y10025D01*
X14458Y10038D01*
X14498D01*
X14564Y9985D02*
X14538D01*
X14524Y9998D01*
Y10025D01*
X14538Y10038D01*
X14564D01*
X14578Y10025D01*
Y10012D01*
X14524D01*
X14604Y9985D02*
Y10038D01*
X14644D01*
X14658Y10025D01*
Y9985D01*
X14684D02*
X14724D01*
X14738Y9998D01*
X14724Y10012D01*
X14698D01*
X14684Y10025D01*
X14698Y10038D01*
X14738D01*
X14804Y9985D02*
X14778D01*
X14764Y9998D01*
Y10025D01*
X14778Y10038D01*
X14804D01*
X14818Y10025D01*
Y10012D01*
X14764D01*
X14844Y9985D02*
X14871D01*
X14858D01*
Y10065D01*
X14844Y10052D01*
X14911Y9972D02*
X14964D01*
X14991Y10065D02*
Y9985D01*
X15044D01*
X15071Y10065D02*
Y10012D01*
X15097Y9985D01*
X15124Y10012D01*
Y10065D01*
X15151Y10052D02*
X15164Y10065D01*
X15191D01*
X15204Y10052D01*
Y10038D01*
X15191Y10025D01*
X15177D01*
X15191D01*
X15204Y10012D01*
Y9998D01*
X15191Y9985D01*
X15164D01*
X15151Y9998D01*
X15177Y9731D02*
Y9811D01*
X15217D01*
X15231Y9798D01*
Y9771D01*
X15217Y9758D01*
X15177D01*
X15204D02*
X15231Y9731D01*
X15257D02*
X15284D01*
X15271D01*
Y9811D01*
X15257Y9798D01*
X15324D02*
X15337Y9811D01*
X15364D01*
X15377Y9798D01*
Y9744D01*
X15364Y9731D01*
X15337D01*
X15324Y9744D01*
Y9798D01*
X15404Y9718D02*
X15457D01*
X15484Y9811D02*
Y9731D01*
X15537D01*
X15564Y9811D02*
Y9758D01*
X15590Y9731D01*
X15617Y9758D01*
Y9811D01*
X15644Y9798D02*
X15657Y9811D01*
X15684D01*
X15697Y9798D01*
Y9784D01*
X15684Y9771D01*
X15670D01*
X15684D01*
X15697Y9758D01*
Y9744D01*
X15684Y9731D01*
X15657D01*
X15644Y9744D01*
X14926Y8465D02*
X14872D01*
Y8425D01*
X14899D01*
X14872D01*
Y8385D01*
X14952D02*
X14979D01*
X14966D01*
Y8465D01*
X14952Y8451D01*
X15019Y8371D02*
X15072D01*
X15099Y8465D02*
Y8385D01*
X15152D01*
X15179Y8465D02*
Y8411D01*
X15206Y8385D01*
X15232Y8411D01*
Y8465D01*
X15259Y8451D02*
X15272Y8465D01*
X15299D01*
X15312Y8451D01*
Y8438D01*
X15299Y8425D01*
X15286D01*
X15299D01*
X15312Y8411D01*
Y8398D01*
X15299Y8385D01*
X15272D01*
X15259Y8398D01*
X15228Y9481D02*
Y9414D01*
X15241Y9401D01*
X15268D01*
X15281Y9414D01*
Y9481D01*
X15361D02*
X15308D01*
Y9441D01*
X15335Y9454D01*
X15348D01*
X15361Y9441D01*
Y9414D01*
X15348Y9401D01*
X15321D01*
X15308Y9414D01*
X15388Y9387D02*
X15441D01*
X15468Y9481D02*
Y9401D01*
X15521D01*
X15548Y9481D02*
Y9427D01*
X15575Y9401D01*
X15601Y9427D01*
Y9481D01*
X15628Y9467D02*
X15641Y9481D01*
X15668D01*
X15681Y9467D01*
Y9454D01*
X15668Y9441D01*
X15655D01*
X15668D01*
X15681Y9427D01*
Y9414D01*
X15668Y9401D01*
X15641D01*
X15628Y9414D01*
X14926Y9137D02*
X14912Y9151D01*
X14886D01*
X14872Y9137D01*
Y9084D01*
X14886Y9071D01*
X14912D01*
X14926Y9084D01*
X15006Y9071D02*
X14952D01*
X15006Y9124D01*
Y9137D01*
X14992Y9151D01*
X14966D01*
X14952Y9137D01*
X15032D02*
X15046Y9151D01*
X15072D01*
X15086Y9137D01*
Y9124D01*
X15072Y9111D01*
X15086Y9097D01*
Y9084D01*
X15072Y9071D01*
X15046D01*
X15032Y9084D01*
Y9097D01*
X15046Y9111D01*
X15032Y9124D01*
Y9137D01*
X15046Y9111D02*
X15072D01*
X15112Y9057D02*
X15166D01*
X15192Y9151D02*
Y9071D01*
X15246D01*
X15272Y9151D02*
Y9097D01*
X15299Y9071D01*
X15326Y9097D01*
Y9151D01*
X15352Y9137D02*
X15366Y9151D01*
X15392D01*
X15406Y9137D01*
Y9124D01*
X15392Y9111D01*
X15379D01*
X15392D01*
X15406Y9097D01*
Y9084D01*
X15392Y9071D01*
X15366D01*
X15352Y9084D01*
X14977Y3727D02*
X14963Y3740D01*
X14937D01*
X14923Y3727D01*
Y3674D01*
X14937Y3660D01*
X14963D01*
X14977Y3674D01*
X15003Y3727D02*
X15017Y3740D01*
X15043D01*
X15056Y3727D01*
Y3714D01*
X15043Y3700D01*
X15030D01*
X15043D01*
X15056Y3687D01*
Y3674D01*
X15043Y3660D01*
X15017D01*
X15003Y3674D01*
X15083Y3647D02*
X15136D01*
X15163Y3740D02*
Y3660D01*
X15203D01*
X15216Y3674D01*
Y3687D01*
Y3700D01*
X15203Y3714D01*
X15163D01*
X15243Y3647D02*
X15296D01*
X15323Y3740D02*
Y3660D01*
X15376D01*
X15403Y3740D02*
Y3687D01*
X15430Y3660D01*
X15456Y3687D01*
Y3740D01*
X15483Y3727D02*
X15496Y3740D01*
X15523D01*
X15536Y3727D01*
Y3714D01*
X15523Y3700D01*
X15510D01*
X15523D01*
X15536Y3687D01*
Y3674D01*
X15523Y3660D01*
X15496D01*
X15483Y3674D01*
X14977Y3879D02*
X14963Y3893D01*
X14937D01*
X14923Y3879D01*
Y3826D01*
X14937Y3813D01*
X14963D01*
X14977Y3826D01*
X15003Y3879D02*
X15017Y3893D01*
X15043D01*
X15056Y3879D01*
Y3866D01*
X15043Y3853D01*
X15030D01*
X15043D01*
X15056Y3839D01*
Y3826D01*
X15043Y3813D01*
X15017D01*
X15003Y3826D01*
X15083Y3799D02*
X15136D01*
X15176Y3866D02*
X15203D01*
X15216Y3853D01*
Y3813D01*
X15176D01*
X15163Y3826D01*
X15176Y3839D01*
X15216D01*
X15243Y3799D02*
X15296D01*
X15323Y3893D02*
Y3813D01*
X15376D01*
X15403Y3893D02*
Y3839D01*
X15430Y3813D01*
X15456Y3839D01*
Y3893D01*
X15483Y3879D02*
X15496Y3893D01*
X15523D01*
X15536Y3879D01*
Y3866D01*
X15523Y3853D01*
X15510D01*
X15523D01*
X15536Y3839D01*
Y3826D01*
X15523Y3813D01*
X15496D01*
X15483Y3826D01*
X16979Y8867D02*
Y8947D01*
X17019D01*
X17033Y8934D01*
Y8907D01*
X17019Y8894D01*
X16979D01*
X17006D02*
X17033Y8867D01*
X17059Y8881D02*
X17073Y8867D01*
X17099D01*
X17112Y8881D01*
Y8934D01*
X17099Y8947D01*
X17073D01*
X17059Y8934D01*
Y8921D01*
X17073Y8907D01*
X17112D01*
X17139Y8854D02*
X17192D01*
X17219Y8947D02*
Y8867D01*
X17272D01*
X17299Y8947D02*
Y8894D01*
X17326Y8867D01*
X17352Y8894D01*
Y8947D01*
X17379Y8934D02*
X17392Y8947D01*
X17419D01*
X17432Y8934D01*
Y8921D01*
X17419Y8907D01*
X17406D01*
X17419D01*
X17432Y8894D01*
Y8881D01*
X17419Y8867D01*
X17392D01*
X17379Y8881D01*
X17034Y6673D02*
X17021Y6687D01*
X16994D01*
X16981Y6673D01*
Y6620D01*
X16994Y6607D01*
X17021D01*
X17034Y6620D01*
X17114Y6607D02*
X17061D01*
X17114Y6660D01*
Y6673D01*
X17101Y6687D01*
X17074D01*
X17061Y6673D01*
X17194Y6607D02*
X17141D01*
X17194Y6660D01*
Y6673D01*
X17181Y6687D01*
X17154D01*
X17141Y6673D01*
X17221Y6593D02*
X17274D01*
X17300Y6687D02*
Y6607D01*
X17354D01*
X17380Y6687D02*
Y6633D01*
X17407Y6607D01*
X17434Y6633D01*
Y6687D01*
X17460Y6673D02*
X17474Y6687D01*
X17500D01*
X17514Y6673D01*
Y6660D01*
X17500Y6647D01*
X17487D01*
X17500D01*
X17514Y6633D01*
Y6620D01*
X17500Y6607D01*
X17474D01*
X17460Y6620D01*
X17085Y8502D02*
X17071Y8516D01*
X17045D01*
X17031Y8502D01*
Y8449D01*
X17045Y8436D01*
X17071D01*
X17085Y8449D01*
X17165Y8436D02*
X17111D01*
X17165Y8489D01*
Y8502D01*
X17151Y8516D01*
X17125D01*
X17111Y8502D01*
X17191Y8449D02*
X17205Y8436D01*
X17231D01*
X17245Y8449D01*
Y8502D01*
X17231Y8516D01*
X17205D01*
X17191Y8502D01*
Y8489D01*
X17205Y8476D01*
X17245D01*
X17271Y8422D02*
X17325D01*
X17351Y8516D02*
Y8436D01*
X17405D01*
X17431Y8516D02*
Y8462D01*
X17458Y8436D01*
X17485Y8462D01*
Y8516D01*
X17511Y8502D02*
X17525Y8516D01*
X17551D01*
X17565Y8502D01*
Y8489D01*
X17551Y8476D01*
X17538D01*
X17551D01*
X17565Y8462D01*
Y8449D01*
X17551Y8436D01*
X17525D01*
X17511Y8449D01*
X14796Y7648D02*
Y7728D01*
X14836D01*
X14850Y7715D01*
Y7688D01*
X14836Y7675D01*
X14796D01*
X14823D02*
X14850Y7648D01*
X14876D02*
X14903D01*
X14890D01*
Y7728D01*
X14876Y7715D01*
X14943D02*
X14956Y7728D01*
X14983D01*
X14996Y7715D01*
Y7702D01*
X14983Y7688D01*
X14969D01*
X14983D01*
X14996Y7675D01*
Y7662D01*
X14983Y7648D01*
X14956D01*
X14943Y7662D01*
X15023Y7635D02*
X15076D01*
X15103Y7728D02*
Y7648D01*
X15156D01*
X15183Y7728D02*
Y7675D01*
X15209Y7648D01*
X15236Y7675D01*
Y7728D01*
X15263Y7715D02*
X15276Y7728D01*
X15303D01*
X15316Y7715D01*
Y7702D01*
X15303Y7688D01*
X15289D01*
X15303D01*
X15316Y7675D01*
Y7662D01*
X15303Y7648D01*
X15276D01*
X15263Y7662D01*
X15434Y7958D02*
X15420Y7971D01*
X15394D01*
X15380Y7958D01*
Y7905D01*
X15394Y7892D01*
X15420D01*
X15434Y7905D01*
X15514Y7892D02*
X15460D01*
X15514Y7945D01*
Y7958D01*
X15500Y7971D01*
X15474D01*
X15460Y7958D01*
X15540D02*
X15554Y7971D01*
X15580D01*
X15594Y7958D01*
Y7945D01*
X15580Y7931D01*
X15567D01*
X15580D01*
X15594Y7918D01*
Y7905D01*
X15580Y7892D01*
X15554D01*
X15540Y7905D01*
X15620Y7878D02*
X15674D01*
X15700Y7971D02*
Y7892D01*
X15754D01*
X15780Y7971D02*
Y7918D01*
X15807Y7892D01*
X15834Y7918D01*
Y7971D01*
X15860Y7958D02*
X15874Y7971D01*
X15900D01*
X15914Y7958D01*
Y7945D01*
X15900Y7931D01*
X15887D01*
X15900D01*
X15914Y7918D01*
Y7905D01*
X15900Y7892D01*
X15874D01*
X15860Y7905D01*
X16478Y8363D02*
Y8297D01*
X16492Y8283D01*
X16518D01*
X16532Y8297D01*
Y8363D01*
X16598Y8283D02*
Y8363D01*
X16558Y8323D01*
X16611D01*
X16638Y8270D02*
X16691D01*
X16718Y8363D02*
Y8283D01*
X16771D01*
X16798Y8363D02*
Y8310D01*
X16825Y8283D01*
X16851Y8310D01*
Y8363D01*
X16878Y8350D02*
X16891Y8363D01*
X16918D01*
X16931Y8350D01*
Y8337D01*
X16918Y8323D01*
X16905D01*
X16918D01*
X16931Y8310D01*
Y8297D01*
X16918Y8283D01*
X16891D01*
X16878Y8297D01*
X14441Y7220D02*
X14494D01*
X14467D01*
Y7140D01*
X14521D02*
X14547D01*
X14534D01*
Y7220D01*
X14521Y7207D01*
X14587Y7127D02*
X14641D01*
X14667Y7220D02*
Y7140D01*
X14721D01*
X14747Y7220D02*
Y7167D01*
X14774Y7140D01*
X14800Y7167D01*
Y7220D01*
X14827Y7207D02*
X14840Y7220D01*
X14867D01*
X14880Y7207D01*
Y7194D01*
X14867Y7180D01*
X14854D01*
X14867D01*
X14880Y7167D01*
Y7154D01*
X14867Y7140D01*
X14840D01*
X14827Y7154D01*
X17057Y7343D02*
Y7423D01*
X17097D01*
X17110Y7410D01*
Y7383D01*
X17097Y7370D01*
X17057D01*
X17083D02*
X17110Y7343D01*
X17137D02*
X17163D01*
X17150D01*
Y7423D01*
X17137Y7410D01*
X17257Y7423D02*
X17230Y7410D01*
X17203Y7383D01*
Y7357D01*
X17217Y7343D01*
X17243D01*
X17257Y7357D01*
Y7370D01*
X17243Y7383D01*
X17203D01*
X17283Y7330D02*
X17337D01*
X17363Y7423D02*
Y7343D01*
X17417D01*
X17443Y7423D02*
Y7370D01*
X17470Y7343D01*
X17497Y7370D01*
Y7423D01*
X17523Y7410D02*
X17537Y7423D01*
X17563D01*
X17577Y7410D01*
Y7397D01*
X17563Y7383D01*
X17550D01*
X17563D01*
X17577Y7370D01*
Y7357D01*
X17563Y7343D01*
X17537D01*
X17523Y7357D01*
X16497Y9375D02*
Y9455D01*
X16537D01*
X16550Y9442D01*
Y9415D01*
X16537Y9402D01*
X16497D01*
X16523D02*
X16550Y9375D01*
X16577D02*
X16603D01*
X16590D01*
Y9455D01*
X16577Y9442D01*
X16683Y9375D02*
Y9455D01*
X16643Y9415D01*
X16697D01*
X16723Y9362D02*
X16777D01*
X16803Y9455D02*
Y9375D01*
X16856D01*
X16883Y9455D02*
Y9402D01*
X16910Y9375D01*
X16936Y9402D01*
Y9455D01*
X16963Y9442D02*
X16976Y9455D01*
X17003D01*
X17016Y9442D01*
Y9429D01*
X17003Y9415D01*
X16990D01*
X17003D01*
X17016Y9402D01*
Y9389D01*
X17003Y9375D01*
X16976D01*
X16963Y9389D01*
X15938Y9401D02*
Y9481D01*
X15978D01*
X15991Y9467D01*
Y9441D01*
X15978Y9427D01*
X15938D01*
X15964D02*
X15991Y9401D01*
X16018D02*
X16044D01*
X16031D01*
Y9481D01*
X16018Y9467D01*
X16084Y9401D02*
X16111D01*
X16098D01*
Y9481D01*
X16084Y9467D01*
X16151Y9387D02*
X16204D01*
X16231Y9481D02*
Y9401D01*
X16284D01*
X16311Y9481D02*
Y9427D01*
X16338Y9401D01*
X16364Y9427D01*
Y9481D01*
X16391Y9467D02*
X16404Y9481D01*
X16431D01*
X16444Y9467D01*
Y9454D01*
X16431Y9441D01*
X16418D01*
X16431D01*
X16444Y9427D01*
Y9414D01*
X16431Y9401D01*
X16404D01*
X16391Y9414D01*
X15431Y8994D02*
Y9074D01*
X15471D01*
X15485Y9061D01*
Y9034D01*
X15471Y9021D01*
X15431D01*
X15458D02*
X15485Y8994D01*
X15551D02*
Y9074D01*
X15511Y9034D01*
X15564D01*
X15591Y8981D02*
X15644D01*
X15671Y9074D02*
Y8994D01*
X15724D01*
X15751Y9074D02*
Y9021D01*
X15778Y8994D01*
X15804Y9021D01*
Y9074D01*
X15831Y9061D02*
X15844Y9074D01*
X15871D01*
X15884Y9061D01*
Y9048D01*
X15871Y9034D01*
X15858D01*
X15871D01*
X15884Y9021D01*
Y9008D01*
X15871Y8994D01*
X15844D01*
X15831Y9008D01*
X15304Y8512D02*
Y8592D01*
X15344D01*
X15358Y8578D01*
Y8552D01*
X15344Y8538D01*
X15304D01*
X15331D02*
X15358Y8512D01*
X15384Y8578D02*
X15398Y8592D01*
X15424D01*
X15437Y8578D01*
Y8565D01*
X15424Y8552D01*
X15411D01*
X15424D01*
X15437Y8538D01*
Y8525D01*
X15424Y8512D01*
X15398D01*
X15384Y8525D01*
X15464Y8498D02*
X15517D01*
X15544Y8592D02*
Y8512D01*
X15597D01*
X15624Y8592D02*
Y8538D01*
X15651Y8512D01*
X15677Y8538D01*
Y8592D01*
X15704Y8578D02*
X15717Y8592D01*
X15744D01*
X15757Y8578D01*
Y8565D01*
X15744Y8552D01*
X15731D01*
X15744D01*
X15757Y8538D01*
Y8525D01*
X15744Y8512D01*
X15717D01*
X15704Y8525D01*
X15533Y8258D02*
Y8338D01*
X15573D01*
X15586Y8324D01*
Y8298D01*
X15573Y8284D01*
X15533D01*
X15559D02*
X15586Y8258D01*
X15613D02*
X15639D01*
X15626D01*
Y8338D01*
X15613Y8324D01*
X15733Y8258D02*
X15679D01*
X15733Y8311D01*
Y8324D01*
X15719Y8338D01*
X15693D01*
X15679Y8324D01*
X15759Y8244D02*
X15813D01*
X15839Y8338D02*
Y8258D01*
X15893D01*
X15919Y8338D02*
Y8284D01*
X15946Y8258D01*
X15973Y8284D01*
Y8338D01*
X15999Y8324D02*
X16013Y8338D01*
X16039D01*
X16053Y8324D01*
Y8311D01*
X16039Y8298D01*
X16026D01*
X16039D01*
X16053Y8284D01*
Y8271D01*
X16039Y8258D01*
X16013D01*
X15999Y8271D01*
X15244Y8662D02*
Y8742D01*
X15284D01*
X15297Y8729D01*
Y8702D01*
X15284Y8689D01*
X15244D01*
X15271D02*
X15297Y8662D01*
X15324D02*
X15351D01*
X15337D01*
Y8742D01*
X15324Y8729D01*
X15444Y8742D02*
X15391D01*
Y8702D01*
X15417Y8715D01*
X15431D01*
X15444Y8702D01*
Y8675D01*
X15431Y8662D01*
X15404D01*
X15391Y8675D01*
X15470Y8649D02*
X15524D01*
X15550Y8742D02*
Y8662D01*
X15604D01*
X15630Y8742D02*
Y8689D01*
X15657Y8662D01*
X15684Y8689D01*
Y8742D01*
X15710Y8729D02*
X15724Y8742D01*
X15750D01*
X15764Y8729D01*
Y8715D01*
X15750Y8702D01*
X15737D01*
X15750D01*
X15764Y8689D01*
Y8675D01*
X15750Y8662D01*
X15724D01*
X15710Y8675D01*
X17109Y9363D02*
Y9417D01*
X17095Y9430D01*
X17069D01*
X17055Y9417D01*
Y9363D01*
X17069Y9350D01*
X17095D01*
X17082Y9377D02*
X17109Y9350D01*
X17095D02*
X17109Y9363D01*
X17135Y9417D02*
X17149Y9430D01*
X17175D01*
X17189Y9417D01*
Y9403D01*
X17175Y9390D01*
X17162D01*
X17175D01*
X17189Y9377D01*
Y9363D01*
X17175Y9350D01*
X17149D01*
X17135Y9363D01*
X17215Y9337D02*
X17269D01*
X17295Y9430D02*
Y9350D01*
X17349D01*
X17375Y9430D02*
Y9377D01*
X17402Y9350D01*
X17429Y9377D01*
Y9430D01*
X17455Y9417D02*
X17469Y9430D01*
X17495D01*
X17509Y9417D01*
Y9403D01*
X17495Y9390D01*
X17482D01*
X17495D01*
X17509Y9377D01*
Y9363D01*
X17495Y9350D01*
X17469D01*
X17455Y9363D01*
X17263Y8017D02*
Y8070D01*
X17249Y8084D01*
X17223D01*
X17209Y8070D01*
Y8017D01*
X17223Y8004D01*
X17249D01*
X17236Y8030D02*
X17263Y8004D01*
X17249D02*
X17263Y8017D01*
X17289Y8004D02*
X17316D01*
X17303D01*
Y8084D01*
X17289Y8070D01*
X17356Y7990D02*
X17409D01*
X17436Y8084D02*
Y8004D01*
X17489D01*
X17516Y8084D02*
Y8030D01*
X17542Y8004D01*
X17569Y8030D01*
Y8084D01*
X17596Y8070D02*
X17609Y8084D01*
X17636D01*
X17649Y8070D01*
Y8057D01*
X17636Y8044D01*
X17622D01*
X17636D01*
X17649Y8030D01*
Y8017D01*
X17636Y8004D01*
X17609D01*
X17596Y8017D01*
X16473Y7779D02*
Y7699D01*
X16513D01*
X16526Y7712D01*
Y7766D01*
X16513Y7779D01*
X16473D01*
X16553Y7712D02*
X16566Y7699D01*
X16593D01*
X16606Y7712D01*
Y7766D01*
X16593Y7779D01*
X16566D01*
X16553Y7766D01*
Y7752D01*
X16566Y7739D01*
X16606D01*
X16633Y7686D02*
X16686D01*
X16713Y7779D02*
Y7699D01*
X16766D01*
X16792Y7779D02*
Y7726D01*
X16819Y7699D01*
X16846Y7726D01*
Y7779D01*
X16872Y7766D02*
X16886Y7779D01*
X16912D01*
X16926Y7766D01*
Y7752D01*
X16912Y7739D01*
X16899D01*
X16912D01*
X16926Y7726D01*
Y7712D01*
X16912Y7699D01*
X16886D01*
X16872Y7712D01*
X14999Y3461D02*
Y3381D01*
X15039D01*
X15053Y3394D01*
Y3448D01*
X15039Y3461D01*
X14999D01*
X15079Y3381D02*
X15106D01*
X15093D01*
Y3461D01*
X15079Y3448D01*
X15199Y3381D02*
X15146D01*
X15199Y3434D01*
Y3448D01*
X15186Y3461D01*
X15159D01*
X15146Y3448D01*
X15226Y3368D02*
X15279D01*
X15306Y3461D02*
Y3381D01*
X15359D01*
X15386Y3461D02*
Y3408D01*
X15413Y3381D01*
X15439Y3408D01*
Y3461D01*
X15466Y3448D02*
X15479Y3461D01*
X15506D01*
X15519Y3448D01*
Y3434D01*
X15506Y3421D01*
X15493D01*
X15506D01*
X15519Y3408D01*
Y3394D01*
X15506Y3381D01*
X15479D01*
X15466Y3394D01*
X16041Y3436D02*
Y3356D01*
X16081D01*
X16094Y3369D01*
Y3422D01*
X16081Y3436D01*
X16041D01*
X16121Y3356D02*
X16147D01*
X16134D01*
Y3436D01*
X16121Y3422D01*
X16187Y3356D02*
X16214D01*
X16201D01*
Y3436D01*
X16187Y3422D01*
X16254Y3342D02*
X16307D01*
X16334Y3436D02*
Y3356D01*
X16387D01*
X16414Y3436D02*
Y3382D01*
X16441Y3356D01*
X16467Y3382D01*
Y3436D01*
X16494Y3422D02*
X16507Y3436D01*
X16534D01*
X16547Y3422D01*
Y3409D01*
X16534Y3396D01*
X16521D01*
X16534D01*
X16547Y3382D01*
Y3369D01*
X16534Y3356D01*
X16507D01*
X16494Y3369D01*
X15324Y8914D02*
X15311Y8927D01*
X15284D01*
X15271Y8914D01*
Y8860D01*
X15284Y8847D01*
X15311D01*
X15324Y8860D01*
X15404Y8847D02*
X15351D01*
X15404Y8900D01*
Y8914D01*
X15391Y8927D01*
X15364D01*
X15351Y8914D01*
X15484Y8927D02*
X15458Y8914D01*
X15431Y8887D01*
Y8860D01*
X15444Y8847D01*
X15471D01*
X15484Y8860D01*
Y8874D01*
X15471Y8887D01*
X15431D01*
X15511Y8834D02*
X15564D01*
X15591Y8927D02*
Y8847D01*
X15644D01*
X15671Y8927D02*
Y8874D01*
X15697Y8847D01*
X15724Y8874D01*
Y8927D01*
X15751Y8914D02*
X15764Y8927D01*
X15791D01*
X15804Y8914D01*
Y8900D01*
X15791Y8887D01*
X15777D01*
X15791D01*
X15804Y8874D01*
Y8860D01*
X15791Y8847D01*
X15764D01*
X15751Y8860D01*
X16296Y8985D02*
X16283Y8998D01*
X16256D01*
X16243Y8985D01*
Y8932D01*
X16256Y8918D01*
X16283D01*
X16296Y8932D01*
X16376Y8918D02*
X16323D01*
X16376Y8972D01*
Y8985D01*
X16363Y8998D01*
X16336D01*
X16323Y8985D01*
X16443Y8918D02*
Y8998D01*
X16403Y8958D01*
X16456D01*
X16483Y8905D02*
X16536D01*
X16562Y8998D02*
Y8918D01*
X16616D01*
X16642Y8998D02*
Y8945D01*
X16669Y8918D01*
X16696Y8945D01*
Y8998D01*
X16722Y8985D02*
X16736Y8998D01*
X16762D01*
X16776Y8985D01*
Y8972D01*
X16762Y8958D01*
X16749D01*
X16762D01*
X16776Y8945D01*
Y8932D01*
X16762Y8918D01*
X16736D01*
X16722Y8932D01*
X17110Y8731D02*
X17097Y8744D01*
X17070D01*
X17057Y8731D01*
Y8678D01*
X17070Y8664D01*
X17097D01*
X17110Y8678D01*
X17190Y8664D02*
X17137D01*
X17190Y8718D01*
Y8731D01*
X17177Y8744D01*
X17150D01*
X17137Y8731D01*
X17217Y8744D02*
X17270D01*
Y8731D01*
X17217Y8678D01*
Y8664D01*
X17297Y8651D02*
X17350D01*
X17377Y8744D02*
Y8664D01*
X17430D01*
X17457Y8744D02*
Y8691D01*
X17483Y8664D01*
X17510Y8691D01*
Y8744D01*
X17537Y8731D02*
X17550Y8744D01*
X17577D01*
X17590Y8731D01*
Y8718D01*
X17577Y8704D01*
X17563D01*
X17577D01*
X17590Y8691D01*
Y8678D01*
X17577Y8664D01*
X17550D01*
X17537Y8678D01*
X15737Y9264D02*
X15724Y9278D01*
X15697D01*
X15684Y9264D01*
Y9211D01*
X15697Y9198D01*
X15724D01*
X15737Y9211D01*
X15817Y9198D02*
X15764D01*
X15817Y9251D01*
Y9264D01*
X15804Y9278D01*
X15777D01*
X15764Y9264D01*
X15897Y9278D02*
X15844D01*
Y9238D01*
X15870Y9251D01*
X15884D01*
X15897Y9238D01*
Y9211D01*
X15884Y9198D01*
X15857D01*
X15844Y9211D01*
X15924Y9184D02*
X15977D01*
X16004Y9278D02*
Y9198D01*
X16057D01*
X16084Y9278D02*
Y9224D01*
X16110Y9198D01*
X16137Y9224D01*
Y9278D01*
X16164Y9264D02*
X16177Y9278D01*
X16204D01*
X16217Y9264D01*
Y9251D01*
X16204Y9238D01*
X16190D01*
X16204D01*
X16217Y9224D01*
Y9211D01*
X16204Y9198D01*
X16177D01*
X16164Y9211D01*
X12346Y9261D02*
X12332Y9275D01*
X12306D01*
X12292Y9261D01*
Y9208D01*
X12306Y9195D01*
X12332D01*
X12346Y9208D01*
X12425Y9195D02*
X12372D01*
X12425Y9248D01*
Y9261D01*
X12412Y9275D01*
X12386D01*
X12372Y9261D01*
X12505Y9275D02*
X12452D01*
Y9235D01*
X12479Y9248D01*
X12492D01*
X12505Y9235D01*
Y9208D01*
X12492Y9195D01*
X12465D01*
X12452Y9208D01*
X12532Y9181D02*
X12585D01*
X12612Y9275D02*
Y9195D01*
X12665D01*
X12692Y9275D02*
Y9221D01*
X12719Y9195D01*
X12745Y9221D01*
Y9275D01*
X12772Y9195D02*
X12799D01*
X12785D01*
Y9275D01*
X12772Y9261D01*
X13719Y8728D02*
X13705Y8741D01*
X13679D01*
X13665Y8728D01*
Y8675D01*
X13679Y8661D01*
X13705D01*
X13719Y8675D01*
X13798Y8661D02*
X13745D01*
X13798Y8715D01*
Y8728D01*
X13785Y8741D01*
X13759D01*
X13745Y8728D01*
X13825Y8741D02*
X13878D01*
Y8728D01*
X13825Y8675D01*
Y8661D01*
X13905Y8648D02*
X13958D01*
X13985Y8741D02*
Y8661D01*
X14038D01*
X14065Y8741D02*
Y8688D01*
X14092Y8661D01*
X14118Y8688D01*
Y8741D01*
X14145Y8661D02*
X14172D01*
X14158D01*
Y8741D01*
X14145Y8728D01*
X12904Y8982D02*
X12891Y8995D01*
X12864D01*
X12851Y8982D01*
Y8929D01*
X12864Y8915D01*
X12891D01*
X12904Y8929D01*
X12984Y8915D02*
X12931D01*
X12984Y8969D01*
Y8982D01*
X12971Y8995D01*
X12944D01*
X12931Y8982D01*
X13051Y8915D02*
Y8995D01*
X13011Y8955D01*
X13064D01*
X13091Y8902D02*
X13144D01*
X13171Y8995D02*
Y8915D01*
X13224D01*
X13251Y8995D02*
Y8942D01*
X13278Y8915D01*
X13304Y8942D01*
Y8995D01*
X13331Y8915D02*
X13358D01*
X13344D01*
Y8995D01*
X13331Y8982D01*
X11933Y8911D02*
X11919Y8924D01*
X11893D01*
X11879Y8911D01*
Y8858D01*
X11893Y8844D01*
X11919D01*
X11933Y8858D01*
X12013Y8844D02*
X11959D01*
X12013Y8898D01*
Y8911D01*
X11999Y8924D01*
X11973D01*
X11959Y8911D01*
X12093Y8924D02*
X12066Y8911D01*
X12039Y8884D01*
Y8858D01*
X12053Y8844D01*
X12079D01*
X12093Y8858D01*
Y8871D01*
X12079Y8884D01*
X12039D01*
X12119Y8831D02*
X12173D01*
X12199Y8924D02*
Y8844D01*
X12253D01*
X12279Y8924D02*
Y8871D01*
X12306Y8844D01*
X12333Y8871D01*
Y8924D01*
X12359Y8844D02*
X12386D01*
X12372D01*
Y8924D01*
X12359Y8911D01*
X12649Y3433D02*
Y3353D01*
X12689D01*
X12703Y3366D01*
Y3419D01*
X12689Y3433D01*
X12649D01*
X12729Y3353D02*
X12756D01*
X12743D01*
Y3433D01*
X12729Y3419D01*
X12796Y3353D02*
X12822D01*
X12809D01*
Y3433D01*
X12796Y3419D01*
X12862Y3339D02*
X12916D01*
X12942Y3433D02*
Y3353D01*
X12996D01*
X13022Y3433D02*
Y3379D01*
X13049Y3353D01*
X13076Y3379D01*
Y3433D01*
X13102Y3353D02*
X13129D01*
X13116D01*
Y3433D01*
X13102Y3419D01*
X11608Y3458D02*
Y3378D01*
X11648D01*
X11661Y3392D01*
Y3445D01*
X11648Y3458D01*
X11608D01*
X11688Y3378D02*
X11714D01*
X11701D01*
Y3458D01*
X11688Y3445D01*
X11808Y3378D02*
X11754D01*
X11808Y3432D01*
Y3445D01*
X11794Y3458D01*
X11768D01*
X11754Y3445D01*
X11834Y3365D02*
X11888D01*
X11914Y3458D02*
Y3378D01*
X11968D01*
X11994Y3458D02*
Y3405D01*
X12021Y3378D01*
X12048Y3405D01*
Y3458D01*
X12074Y3378D02*
X12101D01*
X12088D01*
Y3458D01*
X12074Y3445D01*
X13081Y7776D02*
Y7696D01*
X13121D01*
X13134Y7710D01*
Y7763D01*
X13121Y7776D01*
X13081D01*
X13161Y7710D02*
X13174Y7696D01*
X13201D01*
X13214Y7710D01*
Y7763D01*
X13201Y7776D01*
X13174D01*
X13161Y7763D01*
Y7750D01*
X13174Y7736D01*
X13214D01*
X13241Y7683D02*
X13294D01*
X13321Y7776D02*
Y7696D01*
X13374D01*
X13401Y7776D02*
Y7723D01*
X13428Y7696D01*
X13454Y7723D01*
Y7776D01*
X13481Y7696D02*
X13508D01*
X13494D01*
Y7776D01*
X13481Y7763D01*
X13871Y8014D02*
Y8068D01*
X13858Y8081D01*
X13831D01*
X13818Y8068D01*
Y8014D01*
X13831Y8001D01*
X13858D01*
X13844Y8028D02*
X13871Y8001D01*
X13858D02*
X13871Y8014D01*
X13898Y8001D02*
X13924D01*
X13911D01*
Y8081D01*
X13898Y8068D01*
X13964Y7988D02*
X14018D01*
X14044Y8081D02*
Y8001D01*
X14098D01*
X14124Y8081D02*
Y8028D01*
X14151Y8001D01*
X14177Y8028D01*
Y8081D01*
X14204Y8001D02*
X14231D01*
X14217D01*
Y8081D01*
X14204Y8068D01*
X13717Y9361D02*
Y9414D01*
X13704Y9427D01*
X13677D01*
X13664Y9414D01*
Y9361D01*
X13677Y9347D01*
X13704D01*
X13690Y9374D02*
X13717Y9347D01*
X13704D02*
X13717Y9361D01*
X13744Y9414D02*
X13757Y9427D01*
X13784D01*
X13797Y9414D01*
Y9401D01*
X13784Y9387D01*
X13770D01*
X13784D01*
X13797Y9374D01*
Y9361D01*
X13784Y9347D01*
X13757D01*
X13744Y9361D01*
X13824Y9334D02*
X13877D01*
X13904Y9427D02*
Y9347D01*
X13957D01*
X13984Y9427D02*
Y9374D01*
X14010Y9347D01*
X14037Y9374D01*
Y9427D01*
X14064Y9347D02*
X14090D01*
X14077D01*
Y9427D01*
X14064Y9414D01*
X11852Y8659D02*
Y8739D01*
X11892D01*
X11906Y8726D01*
Y8699D01*
X11892Y8686D01*
X11852D01*
X11879D02*
X11906Y8659D01*
X11932D02*
X11959D01*
X11946D01*
Y8739D01*
X11932Y8726D01*
X12052Y8739D02*
X11999D01*
Y8699D01*
X12026Y8712D01*
X12039D01*
X12052Y8699D01*
Y8673D01*
X12039Y8659D01*
X12012D01*
X11999Y8673D01*
X12079Y8646D02*
X12132D01*
X12159Y8739D02*
Y8659D01*
X12212D01*
X12239Y8739D02*
Y8686D01*
X12265Y8659D01*
X12292Y8686D01*
Y8739D01*
X12319Y8659D02*
X12345D01*
X12332D01*
Y8739D01*
X12319Y8726D01*
X12141Y8255D02*
Y8335D01*
X12181D01*
X12195Y8322D01*
Y8295D01*
X12181Y8282D01*
X12141D01*
X12168D02*
X12195Y8255D01*
X12221D02*
X12248D01*
X12235D01*
Y8335D01*
X12221Y8322D01*
X12341Y8255D02*
X12288D01*
X12341Y8308D01*
Y8322D01*
X12328Y8335D01*
X12301D01*
X12288Y8322D01*
X12368Y8242D02*
X12421D01*
X12448Y8335D02*
Y8255D01*
X12501D01*
X12528Y8335D02*
Y8282D01*
X12554Y8255D01*
X12581Y8282D01*
Y8335D01*
X12608Y8255D02*
X12634D01*
X12621D01*
Y8335D01*
X12608Y8322D01*
X11913Y8509D02*
Y8589D01*
X11953D01*
X11966Y8576D01*
Y8549D01*
X11953Y8536D01*
X11913D01*
X11939D02*
X11966Y8509D01*
X11993Y8576D02*
X12006Y8589D01*
X12033D01*
X12046Y8576D01*
Y8562D01*
X12033Y8549D01*
X12019D01*
X12033D01*
X12046Y8536D01*
Y8522D01*
X12033Y8509D01*
X12006D01*
X11993Y8522D01*
X12073Y8496D02*
X12126D01*
X12153Y8589D02*
Y8509D01*
X12206D01*
X12232Y8589D02*
Y8536D01*
X12259Y8509D01*
X12286Y8536D01*
Y8589D01*
X12312Y8509D02*
X12339D01*
X12326D01*
Y8589D01*
X12312Y8576D01*
X12040Y8992D02*
Y9072D01*
X12080D01*
X12093Y9058D01*
Y9032D01*
X12080Y9018D01*
X12040D01*
X12066D02*
X12093Y8992D01*
X12160D02*
Y9072D01*
X12120Y9032D01*
X12173D01*
X12200Y8978D02*
X12253D01*
X12280Y9072D02*
Y8992D01*
X12333D01*
X12359Y9072D02*
Y9018D01*
X12386Y8992D01*
X12413Y9018D01*
Y9072D01*
X12439Y8992D02*
X12466D01*
X12453D01*
Y9072D01*
X12439Y9058D01*
X12546Y9398D02*
Y9478D01*
X12586D01*
X12600Y9465D01*
Y9438D01*
X12586Y9425D01*
X12546D01*
X12573D02*
X12600Y9398D01*
X12626D02*
X12653D01*
X12640D01*
Y9478D01*
X12626Y9465D01*
X12693Y9398D02*
X12719D01*
X12706D01*
Y9478D01*
X12693Y9465D01*
X12759Y9385D02*
X12813D01*
X12839Y9478D02*
Y9398D01*
X12893D01*
X12919Y9478D02*
Y9425D01*
X12946Y9398D01*
X12973Y9425D01*
Y9478D01*
X12999Y9398D02*
X13026D01*
X13013D01*
Y9478D01*
X12999Y9465D01*
X13105Y9373D02*
Y9453D01*
X13145D01*
X13158Y9439D01*
Y9413D01*
X13145Y9399D01*
X13105D01*
X13132D02*
X13158Y9373D01*
X13185D02*
X13212D01*
X13198D01*
Y9453D01*
X13185Y9439D01*
X13292Y9373D02*
Y9453D01*
X13252Y9413D01*
X13305D01*
X13332Y9359D02*
X13385D01*
X13412Y9453D02*
Y9373D01*
X13465D01*
X13492Y9453D02*
Y9399D01*
X13518Y9373D01*
X13545Y9399D01*
Y9453D01*
X13572Y9373D02*
X13598D01*
X13585D01*
Y9453D01*
X13572Y9439D01*
X13665Y7341D02*
Y7421D01*
X13705D01*
X13719Y7407D01*
Y7381D01*
X13705Y7367D01*
X13665D01*
X13692D02*
X13719Y7341D01*
X13745D02*
X13772D01*
X13759D01*
Y7421D01*
X13745Y7407D01*
X13865Y7421D02*
X13838Y7407D01*
X13812Y7381D01*
Y7354D01*
X13825Y7341D01*
X13852D01*
X13865Y7354D01*
Y7367D01*
X13852Y7381D01*
X13812D01*
X13892Y7327D02*
X13945D01*
X13972Y7421D02*
Y7341D01*
X14025D01*
X14052Y7421D02*
Y7367D01*
X14078Y7341D01*
X14105Y7367D01*
Y7421D01*
X14132Y7341D02*
X14158D01*
X14145D01*
Y7421D01*
X14132Y7407D01*
X11049Y7217D02*
X11102D01*
X11076D01*
Y7137D01*
X11129D02*
X11156D01*
X11142D01*
Y7217D01*
X11129Y7204D01*
X11196Y7124D02*
X11249D01*
X11276Y7217D02*
Y7137D01*
X11329D01*
X11356Y7217D02*
Y7164D01*
X11382Y7137D01*
X11409Y7164D01*
Y7217D01*
X11436Y7137D02*
X11462D01*
X11449D01*
Y7217D01*
X11436Y7204D01*
X13087Y8360D02*
Y8294D01*
X13100Y8280D01*
X13127D01*
X13140Y8294D01*
Y8360D01*
X13207Y8280D02*
Y8360D01*
X13167Y8320D01*
X13220D01*
X13247Y8267D02*
X13300D01*
X13327Y8360D02*
Y8280D01*
X13380D01*
X13406Y8360D02*
Y8307D01*
X13433Y8280D01*
X13460Y8307D01*
Y8360D01*
X13486Y8280D02*
X13513D01*
X13500D01*
Y8360D01*
X13486Y8347D01*
X12042Y7955D02*
X12029Y7969D01*
X12002D01*
X11989Y7955D01*
Y7902D01*
X12002Y7889D01*
X12029D01*
X12042Y7902D01*
X12122Y7889D02*
X12069D01*
X12122Y7942D01*
Y7955D01*
X12109Y7969D01*
X12082D01*
X12069Y7955D01*
X12149D02*
X12162Y7969D01*
X12189D01*
X12202Y7955D01*
Y7942D01*
X12189Y7929D01*
X12175D01*
X12189D01*
X12202Y7915D01*
Y7902D01*
X12189Y7889D01*
X12162D01*
X12149Y7902D01*
X12229Y7875D02*
X12282D01*
X12309Y7969D02*
Y7889D01*
X12362D01*
X12389Y7969D02*
Y7915D01*
X12415Y7889D01*
X12442Y7915D01*
Y7969D01*
X12469Y7889D02*
X12495D01*
X12482D01*
Y7969D01*
X12469Y7955D01*
X11405Y7645D02*
Y7725D01*
X11445D01*
X11458Y7712D01*
Y7685D01*
X11445Y7672D01*
X11405D01*
X11431D02*
X11458Y7645D01*
X11485D02*
X11511D01*
X11498D01*
Y7725D01*
X11485Y7712D01*
X11551D02*
X11565Y7725D01*
X11591D01*
X11605Y7712D01*
Y7699D01*
X11591Y7685D01*
X11578D01*
X11591D01*
X11605Y7672D01*
Y7659D01*
X11591Y7645D01*
X11565D01*
X11551Y7659D01*
X11631Y7632D02*
X11685D01*
X11711Y7725D02*
Y7645D01*
X11764D01*
X11791Y7725D02*
Y7672D01*
X11818Y7645D01*
X11844Y7672D01*
Y7725D01*
X11871Y7645D02*
X11898D01*
X11884D01*
Y7725D01*
X11871Y7712D01*
X13693Y8499D02*
X13680Y8513D01*
X13653D01*
X13640Y8499D01*
Y8446D01*
X13653Y8433D01*
X13680D01*
X13693Y8446D01*
X13773Y8433D02*
X13720D01*
X13773Y8486D01*
Y8499D01*
X13760Y8513D01*
X13733D01*
X13720Y8499D01*
X13800Y8446D02*
X13813Y8433D01*
X13840D01*
X13853Y8446D01*
Y8499D01*
X13840Y8513D01*
X13813D01*
X13800Y8499D01*
Y8486D01*
X13813Y8473D01*
X13853D01*
X13880Y8419D02*
X13933D01*
X13960Y8513D02*
Y8433D01*
X14013D01*
X14040Y8513D02*
Y8459D01*
X14066Y8433D01*
X14093Y8459D01*
Y8513D01*
X14120Y8433D02*
X14146D01*
X14133D01*
Y8513D01*
X14120Y8499D01*
X13642Y6671D02*
X13629Y6684D01*
X13602D01*
X13589Y6671D01*
Y6617D01*
X13602Y6604D01*
X13629D01*
X13642Y6617D01*
X13722Y6604D02*
X13669D01*
X13722Y6657D01*
Y6671D01*
X13709Y6684D01*
X13682D01*
X13669Y6671D01*
X13802Y6604D02*
X13749D01*
X13802Y6657D01*
Y6671D01*
X13789Y6684D01*
X13762D01*
X13749Y6671D01*
X13829Y6591D02*
X13882D01*
X13909Y6684D02*
Y6604D01*
X13962D01*
X13989Y6684D02*
Y6631D01*
X14016Y6604D01*
X14042Y6631D01*
Y6684D01*
X14069Y6604D02*
X14096D01*
X14082D01*
Y6684D01*
X14069Y6671D01*
X13588Y8865D02*
Y8945D01*
X13628D01*
X13641Y8931D01*
Y8905D01*
X13628Y8891D01*
X13588D01*
X13614D02*
X13641Y8865D01*
X13668Y8878D02*
X13681Y8865D01*
X13708D01*
X13721Y8878D01*
Y8931D01*
X13708Y8945D01*
X13681D01*
X13668Y8931D01*
Y8918D01*
X13681Y8905D01*
X13721D01*
X13748Y8851D02*
X13801D01*
X13828Y8945D02*
Y8865D01*
X13881D01*
X13907Y8945D02*
Y8891D01*
X13934Y8865D01*
X13961Y8891D01*
Y8945D01*
X13987Y8865D02*
X14014D01*
X14001D01*
Y8945D01*
X13987Y8931D01*
X11585Y3877D02*
X11572Y3890D01*
X11545D01*
X11532Y3877D01*
Y3823D01*
X11545Y3810D01*
X11572D01*
X11585Y3823D01*
X11612Y3877D02*
X11625Y3890D01*
X11652D01*
X11665Y3877D01*
Y3863D01*
X11652Y3850D01*
X11638D01*
X11652D01*
X11665Y3837D01*
Y3823D01*
X11652Y3810D01*
X11625D01*
X11612Y3823D01*
X11692Y3797D02*
X11745D01*
X11785Y3863D02*
X11812D01*
X11825Y3850D01*
Y3810D01*
X11785D01*
X11772Y3823D01*
X11785Y3837D01*
X11825D01*
X11851Y3797D02*
X11905D01*
X11931Y3890D02*
Y3810D01*
X11985D01*
X12011Y3890D02*
Y3837D01*
X12038Y3810D01*
X12065Y3837D01*
Y3890D01*
X12091Y3810D02*
X12118D01*
X12105D01*
Y3890D01*
X12091Y3877D01*
X11585Y3724D02*
X11572Y3738D01*
X11545D01*
X11532Y3724D01*
Y3671D01*
X11545Y3658D01*
X11572D01*
X11585Y3671D01*
X11612Y3724D02*
X11625Y3738D01*
X11652D01*
X11665Y3724D01*
Y3711D01*
X11652Y3698D01*
X11638D01*
X11652D01*
X11665Y3684D01*
Y3671D01*
X11652Y3658D01*
X11625D01*
X11612Y3671D01*
X11692Y3644D02*
X11745D01*
X11772Y3738D02*
Y3658D01*
X11812D01*
X11825Y3671D01*
Y3684D01*
Y3698D01*
X11812Y3711D01*
X11772D01*
X11851Y3644D02*
X11905D01*
X11931Y3738D02*
Y3658D01*
X11985D01*
X12011Y3738D02*
Y3684D01*
X12038Y3658D01*
X12065Y3684D01*
Y3738D01*
X12091Y3658D02*
X12118D01*
X12105D01*
Y3738D01*
X12091Y3724D01*
X11534Y9134D02*
X11521Y9148D01*
X11494D01*
X11481Y9134D01*
Y9081D01*
X11494Y9068D01*
X11521D01*
X11534Y9081D01*
X11614Y9068D02*
X11561D01*
X11614Y9121D01*
Y9134D01*
X11601Y9148D01*
X11574D01*
X11561Y9134D01*
X11641D02*
X11654Y9148D01*
X11681D01*
X11694Y9134D01*
Y9121D01*
X11681Y9108D01*
X11694Y9094D01*
Y9081D01*
X11681Y9068D01*
X11654D01*
X11641Y9081D01*
Y9094D01*
X11654Y9108D01*
X11641Y9121D01*
Y9134D01*
X11654Y9108D02*
X11681D01*
X11721Y9054D02*
X11774D01*
X11801Y9148D02*
Y9068D01*
X11854D01*
X11881Y9148D02*
Y9094D01*
X11907Y9068D01*
X11934Y9094D01*
Y9148D01*
X11961Y9068D02*
X11987D01*
X11974D01*
Y9148D01*
X11961Y9134D01*
X11836Y9478D02*
Y9411D01*
X11850Y9398D01*
X11876D01*
X11890Y9411D01*
Y9478D01*
X11970D02*
X11916D01*
Y9438D01*
X11943Y9451D01*
X11956D01*
X11970Y9438D01*
Y9411D01*
X11956Y9398D01*
X11930D01*
X11916Y9411D01*
X11996Y9385D02*
X12050D01*
X12076Y9478D02*
Y9398D01*
X12130D01*
X12156Y9478D02*
Y9425D01*
X12183Y9398D01*
X12210Y9425D01*
Y9478D01*
X12236Y9398D02*
X12263D01*
X12250D01*
Y9478D01*
X12236Y9465D01*
X11534Y8462D02*
X11481D01*
Y8422D01*
X11507D01*
X11481D01*
Y8382D01*
X11561D02*
X11587D01*
X11574D01*
Y8462D01*
X11561Y8449D01*
X11627Y8369D02*
X11681D01*
X11707Y8462D02*
Y8382D01*
X11761D01*
X11787Y8462D02*
Y8409D01*
X11814Y8382D01*
X11841Y8409D01*
Y8462D01*
X11867Y8382D02*
X11894D01*
X11881D01*
Y8462D01*
X11867Y8449D01*
X11786Y9728D02*
Y9808D01*
X11826D01*
X11839Y9795D01*
Y9768D01*
X11826Y9755D01*
X11786D01*
X11812D02*
X11839Y9728D01*
X11866D02*
X11892D01*
X11879D01*
Y9808D01*
X11866Y9795D01*
X11932D02*
X11946Y9808D01*
X11972D01*
X11986Y9795D01*
Y9742D01*
X11972Y9728D01*
X11946D01*
X11932Y9742D01*
Y9795D01*
X12012Y9715D02*
X12066D01*
X12092Y9808D02*
Y9728D01*
X12145D01*
X12172Y9808D02*
Y9755D01*
X12199Y9728D01*
X12225Y9755D01*
Y9808D01*
X12252Y9728D02*
X12279D01*
X12265D01*
Y9808D01*
X12252Y9795D01*
X10973Y9982D02*
Y10062D01*
X11013D01*
X11026Y10049D01*
Y10022D01*
X11013Y10009D01*
X10973D01*
X10999D02*
X11026Y9982D01*
X11053D02*
X11093D01*
X11106Y9996D01*
X11093Y10009D01*
X11066D01*
X11053Y10022D01*
X11066Y10036D01*
X11106D01*
X11173Y9982D02*
X11146D01*
X11133Y9996D01*
Y10022D01*
X11146Y10036D01*
X11173D01*
X11186Y10022D01*
Y10009D01*
X11133D01*
X11213Y9982D02*
Y10036D01*
X11253D01*
X11266Y10022D01*
Y9982D01*
X11293D02*
X11333D01*
X11346Y9996D01*
X11333Y10009D01*
X11306D01*
X11293Y10022D01*
X11306Y10036D01*
X11346D01*
X11413Y9982D02*
X11386D01*
X11373Y9996D01*
Y10022D01*
X11386Y10036D01*
X11413D01*
X11426Y10022D01*
Y10009D01*
X11373D01*
X11453Y9982D02*
X11479D01*
X11466D01*
Y10062D01*
X11453Y10049D01*
X11519Y9969D02*
X11573D01*
X11599Y10062D02*
Y9982D01*
X11653D01*
X11679Y10062D02*
Y10009D01*
X11706Y9982D01*
X11733Y10009D01*
Y10062D01*
X11759Y9982D02*
X11786D01*
X11773D01*
Y10062D01*
X11759Y10049D01*
X22174Y9630D02*
Y9550D01*
X22214D01*
X22228Y9564D01*
Y9617D01*
X22214Y9630D01*
X22174D01*
X22254D02*
X22307D01*
X22281D01*
Y9550D01*
X22334Y9630D02*
Y9577D01*
X22361Y9550D01*
X22387Y9577D01*
Y9630D01*
X22467Y9617D02*
X22454Y9630D01*
X22427D01*
X22414Y9617D01*
Y9604D01*
X22427Y9590D01*
X22454D01*
X22467Y9577D01*
Y9564D01*
X22454Y9550D01*
X22427D01*
X22414Y9564D01*
X22494Y9550D02*
X22521D01*
X22507D01*
Y9630D01*
X22494Y9617D01*
X2848Y10037D02*
Y9957D01*
X2901D01*
X2981Y10037D02*
X2928D01*
Y9957D01*
X2981D01*
X2928Y9997D02*
X2955D01*
X3008Y10037D02*
Y9957D01*
X3048D01*
X3061Y9970D01*
Y10023D01*
X3048Y10037D01*
X3008D01*
X3088Y9957D02*
X3115D01*
X3101D01*
Y10037D01*
X3088Y10023D01*
X3000Y8513D02*
Y8433D01*
X3040D01*
X3054Y8446D01*
Y8499D01*
X3040Y8513D01*
X3000D01*
X3134D02*
X3107Y8499D01*
X3080Y8473D01*
Y8446D01*
X3094Y8433D01*
X3120D01*
X3134Y8446D01*
Y8459D01*
X3120Y8473D01*
X3080D01*
X3000Y9199D02*
Y9119D01*
X3040D01*
X3054Y9132D01*
Y9185D01*
X3040Y9199D01*
X3000D01*
X3134D02*
X3080D01*
Y9159D01*
X3107Y9172D01*
X3120D01*
X3134Y9159D01*
Y9132D01*
X3120Y9119D01*
X3094D01*
X3080Y9132D01*
X2899Y4779D02*
Y4699D01*
X2939D01*
X2952Y4712D01*
Y4766D01*
X2939Y4779D01*
X2899D01*
X3019Y4699D02*
Y4779D01*
X2979Y4739D01*
X3032D01*
X2899Y4144D02*
Y4064D01*
X2939D01*
X2952Y4077D01*
Y4131D01*
X2939Y4144D01*
X2899D01*
X2979Y4131D02*
X2992Y4144D01*
X3019D01*
X3032Y4131D01*
Y4117D01*
X3019Y4104D01*
X3005D01*
X3019D01*
X3032Y4091D01*
Y4077D01*
X3019Y4064D01*
X2992D01*
X2979Y4077D01*
X2899Y3509D02*
Y3429D01*
X2939D01*
X2952Y3442D01*
Y3496D01*
X2939Y3509D01*
X2899D01*
X3032Y3429D02*
X2979D01*
X3032Y3482D01*
Y3496D01*
X3019Y3509D01*
X2992D01*
X2979Y3496D01*
X2899Y2874D02*
Y2794D01*
X2939D01*
X2952Y2807D01*
Y2861D01*
X2939Y2874D01*
X2899D01*
X2979Y2794D02*
X3005D01*
X2992D01*
Y2874D01*
X2979Y2861D01*
X3302Y7976D02*
Y8056D01*
X3342D01*
X3355Y8042D01*
Y8016D01*
X3342Y8002D01*
X3302D01*
X3329D02*
X3355Y7976D01*
X3382Y7962D02*
X3435D01*
X3462Y8056D02*
Y7976D01*
X3515D01*
X3595Y8056D02*
X3542D01*
Y7976D01*
X3595D01*
X3542Y8016D02*
X3569D01*
X3622Y8056D02*
Y7976D01*
X3662D01*
X3675Y7989D01*
Y8042D01*
X3662Y8056D01*
X3622D01*
X3755D02*
X3729Y8042D01*
X3702Y8016D01*
Y7989D01*
X3715Y7976D01*
X3742D01*
X3755Y7989D01*
Y8002D01*
X3742Y8016D01*
X3702D01*
X3327Y8636D02*
Y8716D01*
X3367D01*
X3381Y8703D01*
Y8676D01*
X3367Y8663D01*
X3327D01*
X3354D02*
X3381Y8636D01*
X3407Y8623D02*
X3461D01*
X3487Y8716D02*
Y8636D01*
X3541D01*
X3621Y8716D02*
X3567D01*
Y8636D01*
X3621D01*
X3567Y8676D02*
X3594D01*
X3647Y8716D02*
Y8636D01*
X3687D01*
X3701Y8649D01*
Y8703D01*
X3687Y8716D01*
X3647D01*
X3781D02*
X3727D01*
Y8676D01*
X3754Y8689D01*
X3767D01*
X3781Y8676D01*
Y8649D01*
X3767Y8636D01*
X3741D01*
X3727Y8649D01*
X3378Y4191D02*
Y4271D01*
X3418D01*
X3432Y4258D01*
Y4231D01*
X3418Y4218D01*
X3378D01*
X3405D02*
X3432Y4191D01*
X3458Y4178D02*
X3511D01*
X3538Y4271D02*
Y4191D01*
X3591D01*
X3671Y4271D02*
X3618D01*
Y4191D01*
X3671D01*
X3618Y4231D02*
X3645D01*
X3698Y4271D02*
Y4191D01*
X3738D01*
X3751Y4204D01*
Y4258D01*
X3738Y4271D01*
X3698D01*
X3818Y4191D02*
Y4271D01*
X3778Y4231D01*
X3831D01*
X19507Y2108D02*
Y2188D01*
X19547D01*
X19561Y2175D01*
Y2148D01*
X19547Y2135D01*
X19507D01*
X19534D02*
X19561Y2108D01*
X19587Y2095D02*
X19640D01*
X19667Y2188D02*
Y2108D01*
X19720D01*
X19800D02*
X19747D01*
X19800Y2162D01*
Y2175D01*
X19787Y2188D01*
X19760D01*
X19747Y2175D01*
X19533Y2896D02*
Y2976D01*
X19573D01*
X19586Y2962D01*
Y2936D01*
X19573Y2922D01*
X19533D01*
X19559D02*
X19586Y2896D01*
X19613Y2882D02*
X19666D01*
X19693Y2976D02*
Y2896D01*
X19746D01*
X19773D02*
X19799D01*
X19786D01*
Y2976D01*
X19773Y2962D01*
X19025Y1579D02*
Y1499D01*
X19078D01*
X19158D02*
X19105D01*
X19158Y1552D01*
Y1565D01*
X19145Y1579D01*
X19118D01*
X19105Y1565D01*
X19126Y3560D02*
Y3480D01*
X19180D01*
X19206D02*
X19233D01*
X19220D01*
Y3560D01*
X19206Y3546D01*
X20907Y1667D02*
X20893Y1680D01*
X20867D01*
X20853Y1667D01*
Y1614D01*
X20867Y1600D01*
X20893D01*
X20907Y1614D01*
X20933Y1600D02*
X20960D01*
X20947D01*
Y1680D01*
X20933Y1667D01*
X21000Y1600D02*
X21027D01*
X21013D01*
Y1680D01*
X21000Y1667D01*
X20602D02*
X20589Y1680D01*
X20562D01*
X20549Y1667D01*
Y1614D01*
X20562Y1600D01*
X20589D01*
X20602Y1614D01*
X20629Y1600D02*
X20655D01*
X20642D01*
Y1680D01*
X20629Y1667D01*
X20695D02*
X20709Y1680D01*
X20735D01*
X20749Y1667D01*
Y1614D01*
X20735Y1600D01*
X20709D01*
X20695Y1614D01*
Y1667D01*
X20323D02*
X20309Y1680D01*
X20283D01*
X20269Y1667D01*
Y1614D01*
X20283Y1600D01*
X20309D01*
X20323Y1614D01*
X20349D02*
X20363Y1600D01*
X20389D01*
X20402Y1614D01*
Y1667D01*
X20389Y1680D01*
X20363D01*
X20349Y1667D01*
Y1654D01*
X20363Y1640D01*
X20402D01*
X18519Y1802D02*
X18506Y1815D01*
X18479D01*
X18466Y1802D01*
Y1749D01*
X18479Y1735D01*
X18506D01*
X18519Y1749D01*
X18546Y1802D02*
X18559Y1815D01*
X18586D01*
X18599Y1802D01*
Y1789D01*
X18586Y1775D01*
X18599Y1762D01*
Y1749D01*
X18586Y1735D01*
X18559D01*
X18546Y1749D01*
Y1762D01*
X18559Y1775D01*
X18546Y1789D01*
Y1802D01*
X18559Y1775D02*
X18586D01*
X20907Y2886D02*
X20893Y2899D01*
X20867D01*
X20853Y2886D01*
Y2833D01*
X20867Y2819D01*
X20893D01*
X20907Y2833D01*
X20933Y2899D02*
X20987D01*
Y2886D01*
X20933Y2833D01*
Y2819D01*
X20602Y2886D02*
X20589Y2899D01*
X20562D01*
X20549Y2886D01*
Y2833D01*
X20562Y2819D01*
X20589D01*
X20602Y2833D01*
X20682Y2899D02*
X20655Y2886D01*
X20629Y2859D01*
Y2833D01*
X20642Y2819D01*
X20669D01*
X20682Y2833D01*
Y2846D01*
X20669Y2859D01*
X20629D01*
X20297Y2886D02*
X20284Y2899D01*
X20257D01*
X20244Y2886D01*
Y2833D01*
X20257Y2819D01*
X20284D01*
X20297Y2833D01*
X20377Y2899D02*
X20324D01*
Y2859D01*
X20350Y2873D01*
X20364D01*
X20377Y2859D01*
Y2833D01*
X20364Y2819D01*
X20337D01*
X20324Y2833D01*
X18533Y3210D02*
X18520Y3223D01*
X18493D01*
X18480Y3210D01*
Y3156D01*
X18493Y3143D01*
X18520D01*
X18533Y3156D01*
X18600Y3143D02*
Y3223D01*
X18560Y3183D01*
X18613D01*
X10569Y6163D02*
X10556Y6176D01*
X10529D01*
X10516Y6163D01*
Y6109D01*
X10529Y6096D01*
X10556D01*
X10569Y6109D01*
X10596Y6163D02*
X10609Y6176D01*
X10636D01*
X10649Y6163D01*
Y6149D01*
X10636Y6136D01*
X10622D01*
X10636D01*
X10649Y6123D01*
Y6109D01*
X10636Y6096D01*
X10609D01*
X10596Y6109D01*
X10729Y6096D02*
X10676D01*
X10729Y6149D01*
Y6163D01*
X10716Y6176D01*
X10689D01*
X10676Y6163D01*
X13998Y6213D02*
X13985Y6227D01*
X13958D01*
X13945Y6213D01*
Y6160D01*
X13958Y6147D01*
X13985D01*
X13998Y6160D01*
X14025Y6213D02*
X14038Y6227D01*
X14065D01*
X14078Y6213D01*
Y6200D01*
X14065Y6187D01*
X14051D01*
X14065D01*
X14078Y6173D01*
Y6160D01*
X14065Y6147D01*
X14038D01*
X14025Y6160D01*
X14105Y6213D02*
X14118Y6227D01*
X14145D01*
X14158Y6213D01*
Y6160D01*
X14145Y6147D01*
X14118D01*
X14105Y6160D01*
Y6213D01*
X20210Y9471D02*
X20196Y9484D01*
X20170D01*
X20156Y9471D01*
Y9418D01*
X20170Y9404D01*
X20196D01*
X20210Y9418D01*
X20236Y9471D02*
X20250Y9484D01*
X20276D01*
X20289Y9471D01*
Y9458D01*
X20276Y9444D01*
X20289Y9431D01*
Y9418D01*
X20276Y9404D01*
X20250D01*
X20236Y9418D01*
Y9431D01*
X20250Y9444D01*
X20236Y9458D01*
Y9471D01*
X20250Y9444D02*
X20276D01*
X20316Y9391D02*
X20369D01*
X20396Y9484D02*
Y9404D01*
X20449D01*
X20476Y9484D02*
Y9431D01*
X20503Y9404D01*
X20529Y9431D01*
Y9484D01*
X20609Y9404D02*
X20556D01*
X20609Y9458D01*
Y9471D01*
X20596Y9484D01*
X20569D01*
X20556Y9471D01*
X19613Y8112D02*
X19599Y8125D01*
X19573D01*
X19559Y8112D01*
Y8059D01*
X19573Y8046D01*
X19599D01*
X19613Y8059D01*
X19639Y8046D02*
X19666D01*
X19653D01*
Y8125D01*
X19639Y8112D01*
X19759Y8046D02*
X19706D01*
X19759Y8099D01*
Y8112D01*
X19746Y8125D01*
X19719D01*
X19706Y8112D01*
X19786Y8032D02*
X19839D01*
X19866Y8125D02*
Y8046D01*
X19919D01*
X19946Y8125D02*
Y8072D01*
X19973Y8046D01*
X19999Y8072D01*
Y8125D01*
X20079Y8046D02*
X20026D01*
X20079Y8099D01*
Y8112D01*
X20066Y8125D01*
X20039D01*
X20026Y8112D01*
X19736Y9681D02*
Y9615D01*
X19749Y9601D01*
X19776D01*
X19789Y9615D01*
Y9681D01*
X19869Y9601D02*
X19816D01*
X19869Y9655D01*
Y9668D01*
X19856Y9681D01*
X19829D01*
X19816Y9668D01*
X19896Y9588D02*
X19949D01*
X19976Y9681D02*
Y9601D01*
X20029D01*
X20056Y9681D02*
Y9628D01*
X20082Y9601D01*
X20109Y9628D01*
Y9681D01*
X20189Y9601D02*
X20136D01*
X20189Y9655D01*
Y9668D01*
X20176Y9681D01*
X20149D01*
X20136Y9668D01*
X17921Y7068D02*
Y7148D01*
X17961D01*
X17974Y7134D01*
Y7108D01*
X17961Y7094D01*
X17921D01*
X17948D02*
X17974Y7068D01*
X18014D02*
Y7134D01*
Y7108D01*
X18001D01*
X18028D01*
X18014D01*
Y7134D01*
X18028Y7148D01*
X18068D02*
Y7068D01*
X18108D01*
X18121Y7081D01*
Y7094D01*
Y7108D01*
X18108Y7121D01*
X18068D01*
X18201Y7068D02*
X18148D01*
X18201Y7121D01*
Y7134D01*
X18188Y7148D01*
X18161D01*
X18148Y7134D01*
X18228Y7054D02*
X18281D01*
X18308Y7148D02*
Y7068D01*
X18361D01*
X18388Y7148D02*
Y7094D01*
X18414Y7068D01*
X18441Y7094D01*
Y7148D01*
X18521Y7068D02*
X18467D01*
X18521Y7121D01*
Y7134D01*
X18507Y7148D01*
X18481D01*
X18467Y7134D01*
X19117Y4543D02*
X19104Y4557D01*
X19077D01*
X19064Y4543D01*
Y4490D01*
X19077Y4477D01*
X19104D01*
X19117Y4490D01*
X19144Y4477D02*
X19171D01*
X19157D01*
Y4557D01*
X19144Y4543D01*
X19211D02*
X19224Y4557D01*
X19251D01*
X19264Y4543D01*
Y4490D01*
X19251Y4477D01*
X19224D01*
X19211Y4490D01*
Y4543D01*
X19291Y4463D02*
X19344D01*
X19371Y4557D02*
Y4477D01*
X19424D01*
X19451Y4557D02*
Y4503D01*
X19477Y4477D01*
X19504Y4503D01*
Y4557D01*
X19584Y4477D02*
X19531D01*
X19584Y4530D01*
Y4543D01*
X19571Y4557D01*
X19544D01*
X19531Y4543D01*
X20362Y9129D02*
X20309D01*
Y9089D01*
X20335D01*
X20309D01*
Y9049D01*
X20442D02*
X20389D01*
X20442Y9102D01*
Y9115D01*
X20429Y9129D01*
X20402D01*
X20389Y9115D01*
X20469Y9035D02*
X20522D01*
X20549Y9129D02*
Y9049D01*
X20602D01*
X20628Y9129D02*
Y9075D01*
X20655Y9049D01*
X20682Y9075D01*
Y9129D01*
X20762Y9049D02*
X20708D01*
X20762Y9102D01*
Y9115D01*
X20748Y9129D01*
X20722D01*
X20708Y9115D01*
X20692Y7312D02*
X20679Y7325D01*
X20652D01*
X20639Y7312D01*
Y7259D01*
X20652Y7245D01*
X20679D01*
X20692Y7259D01*
X20719Y7245D02*
X20745D01*
X20732D01*
Y7325D01*
X20719Y7312D01*
X20785D02*
X20799Y7325D01*
X20825D01*
X20839Y7312D01*
Y7299D01*
X20825Y7285D01*
X20812D01*
X20825D01*
X20839Y7272D01*
Y7259D01*
X20825Y7245D01*
X20799D01*
X20785Y7259D01*
X20865Y7232D02*
X20919D01*
X20945Y7325D02*
Y7245D01*
X20999D01*
X21025Y7325D02*
Y7272D01*
X21052Y7245D01*
X21079Y7272D01*
Y7325D01*
X21159Y7245D02*
X21105D01*
X21159Y7299D01*
Y7312D01*
X21145Y7325D01*
X21119D01*
X21105Y7312D01*
X20613Y6741D02*
Y6661D01*
X20653D01*
X20667Y6675D01*
Y6728D01*
X20653Y6741D01*
X20613D01*
X20693Y6661D02*
X20720D01*
X20707D01*
Y6741D01*
X20693Y6728D01*
X20760D02*
X20773Y6741D01*
X20800D01*
X20813Y6728D01*
Y6675D01*
X20800Y6661D01*
X20773D01*
X20760Y6675D01*
Y6728D01*
X20840Y6648D02*
X20893D01*
X20920Y6741D02*
Y6661D01*
X20973D01*
X21000Y6741D02*
Y6688D01*
X21027Y6661D01*
X21053Y6688D01*
Y6741D01*
X21133Y6661D02*
X21080D01*
X21133Y6715D01*
Y6728D01*
X21120Y6741D01*
X21093D01*
X21080Y6728D01*
X20055Y4811D02*
Y4731D01*
X20095D01*
X20108Y4744D01*
Y4797D01*
X20095Y4811D01*
X20055D01*
X20135D02*
X20188D01*
Y4797D01*
X20135Y4744D01*
Y4731D01*
X20215Y4717D02*
X20268D01*
X20295Y4811D02*
Y4731D01*
X20348D01*
X20374Y4811D02*
Y4757D01*
X20401Y4731D01*
X20428Y4757D01*
Y4811D01*
X20508Y4731D02*
X20454D01*
X20508Y4784D01*
Y4797D01*
X20494Y4811D01*
X20468D01*
X20454Y4797D01*
X18861Y9455D02*
Y9535D01*
X18901D01*
X18914Y9522D01*
Y9495D01*
X18901Y9482D01*
X18861D01*
X18887D02*
X18914Y9455D01*
X18994Y9535D02*
X18941D01*
Y9495D01*
X18967Y9509D01*
X18981D01*
X18994Y9495D01*
Y9469D01*
X18981Y9455D01*
X18954D01*
X18941Y9469D01*
X19021Y9442D02*
X19074D01*
X19101Y9535D02*
Y9455D01*
X19154D01*
X19181Y9535D02*
Y9482D01*
X19207Y9455D01*
X19234Y9482D01*
Y9535D01*
X19314Y9455D02*
X19261D01*
X19314Y9509D01*
Y9522D01*
X19301Y9535D01*
X19274D01*
X19261Y9522D01*
X19496Y7423D02*
Y7503D01*
X19536D01*
X19549Y7490D01*
Y7463D01*
X19536Y7450D01*
X19496D01*
X19522D02*
X19549Y7423D01*
X19576Y7477D02*
Y7423D01*
Y7450D01*
X19589Y7463D01*
X19602Y7477D01*
X19616D01*
X19696Y7423D02*
X19669D01*
X19656Y7437D01*
Y7463D01*
X19669Y7477D01*
X19696D01*
X19709Y7463D01*
Y7450D01*
X19656D01*
X19749Y7423D02*
Y7490D01*
Y7463D01*
X19736D01*
X19762D01*
X19749D01*
Y7490D01*
X19762Y7503D01*
X19856Y7423D02*
X19802D01*
X19856Y7477D01*
Y7490D01*
X19842Y7503D01*
X19816D01*
X19802Y7490D01*
X19882Y7410D02*
X19936D01*
X19962Y7503D02*
Y7423D01*
X20016D01*
X20042Y7503D02*
Y7450D01*
X20069Y7423D01*
X20096Y7450D01*
Y7503D01*
X20176Y7423D02*
X20122D01*
X20176Y7477D01*
Y7490D01*
X20162Y7503D01*
X20136D01*
X20122Y7490D01*
X18480Y8998D02*
Y9078D01*
X18520D01*
X18533Y9065D01*
Y9038D01*
X18520Y9025D01*
X18480D01*
X18506D02*
X18533Y8998D01*
X18560D02*
X18600D01*
X18613Y9011D01*
X18600Y9025D01*
X18573D01*
X18560Y9038D01*
X18573Y9051D01*
X18613D01*
X18680Y8998D02*
X18653D01*
X18640Y9011D01*
Y9038D01*
X18653Y9051D01*
X18680D01*
X18693Y9038D01*
Y9025D01*
X18640D01*
X18720Y8998D02*
Y9051D01*
X18760D01*
X18773Y9038D01*
Y8998D01*
X18800D02*
X18840D01*
X18853Y9011D01*
X18840Y9025D01*
X18813D01*
X18800Y9038D01*
X18813Y9051D01*
X18853D01*
X18920Y8998D02*
X18893D01*
X18880Y9011D01*
Y9038D01*
X18893Y9051D01*
X18920D01*
X18933Y9038D01*
Y9025D01*
X18880D01*
X19013Y8998D02*
X18960D01*
X19013Y9051D01*
Y9065D01*
X19000Y9078D01*
X18973D01*
X18960Y9065D01*
X19040Y8985D02*
X19093D01*
X19120Y9078D02*
Y8998D01*
X19173D01*
X19200Y9078D02*
Y9025D01*
X19226Y8998D01*
X19253Y9025D01*
Y9078D01*
X19333Y8998D02*
X19280D01*
X19333Y9051D01*
Y9065D01*
X19320Y9078D01*
X19293D01*
X19280Y9065D01*
X18254Y4874D02*
X18240Y4887D01*
X18214D01*
X18200Y4874D01*
Y4820D01*
X18214Y4807D01*
X18240D01*
X18254Y4820D01*
X18280D02*
X18294Y4807D01*
X18320D01*
X18334Y4820D01*
Y4874D01*
X18320Y4887D01*
X18294D01*
X18280Y4874D01*
Y4860D01*
X18294Y4847D01*
X18334D01*
X18360Y4794D02*
X18414D01*
X18440Y4887D02*
Y4807D01*
X18494D01*
X18520Y4887D02*
Y4834D01*
X18547Y4807D01*
X18574Y4834D01*
Y4887D01*
X18654Y4807D02*
X18600D01*
X18654Y4860D01*
Y4874D01*
X18640Y4887D01*
X18614D01*
X18600Y4874D01*
X18150Y4328D02*
Y4248D01*
X18190D01*
X18203Y4262D01*
Y4315D01*
X18190Y4328D01*
X18150D01*
X18283D02*
X18256Y4315D01*
X18230Y4288D01*
Y4262D01*
X18243Y4248D01*
X18270D01*
X18283Y4262D01*
Y4275D01*
X18270Y4288D01*
X18230D01*
X18310Y4235D02*
X18363D01*
X18390Y4328D02*
Y4248D01*
X18443D01*
X18469Y4328D02*
Y4275D01*
X18496Y4248D01*
X18523Y4275D01*
Y4328D01*
X18603Y4248D02*
X18549D01*
X18603Y4302D01*
Y4315D01*
X18589Y4328D01*
X18563D01*
X18549Y4315D01*
X19724Y5446D02*
X19778D01*
X19751D01*
Y5366D01*
X19858D02*
X19804D01*
X19858Y5419D01*
Y5432D01*
X19844Y5446D01*
X19818D01*
X19804Y5432D01*
X19884Y5352D02*
X19938D01*
X19964Y5446D02*
Y5366D01*
X20018D01*
X20044Y5446D02*
Y5392D01*
X20071Y5366D01*
X20098Y5392D01*
Y5446D01*
X20178Y5366D02*
X20124D01*
X20178Y5419D01*
Y5432D01*
X20164Y5446D01*
X20138D01*
X20124Y5432D01*
X20512Y5848D02*
Y5928D01*
X20552D01*
X20565Y5915D01*
Y5888D01*
X20552Y5875D01*
X20512D01*
X20538D02*
X20565Y5848D01*
X20592Y5915D02*
X20605Y5928D01*
X20632D01*
X20645Y5915D01*
Y5902D01*
X20632Y5888D01*
X20645Y5875D01*
Y5862D01*
X20632Y5848D01*
X20605D01*
X20592Y5862D01*
Y5875D01*
X20605Y5888D01*
X20592Y5902D01*
Y5915D01*
X20605Y5888D02*
X20632D01*
X20672Y5835D02*
X20725D01*
X20752Y5928D02*
Y5848D01*
X20805D01*
X20832Y5928D02*
Y5875D01*
X20858Y5848D01*
X20885Y5875D01*
Y5928D01*
X20965Y5848D02*
X20912D01*
X20965Y5902D01*
Y5915D01*
X20952Y5928D01*
X20925D01*
X20912Y5915D01*
X19498Y8503D02*
Y8557D01*
X19485Y8570D01*
X19458D01*
X19445Y8557D01*
Y8503D01*
X19458Y8490D01*
X19485D01*
X19472Y8517D02*
X19498Y8490D01*
X19485D02*
X19498Y8503D01*
X19578Y8490D02*
X19525D01*
X19578Y8543D01*
Y8557D01*
X19565Y8570D01*
X19538D01*
X19525Y8557D01*
X19605Y8477D02*
X19658D01*
X19685Y8570D02*
Y8490D01*
X19738D01*
X19765Y8570D02*
Y8517D01*
X19792Y8490D01*
X19818Y8517D01*
Y8570D01*
X19898Y8490D02*
X19845D01*
X19898Y8543D01*
Y8557D01*
X19885Y8570D01*
X19858D01*
X19845Y8557D01*
X20105Y7275D02*
Y7195D01*
X20145D01*
X20159Y7208D01*
Y7261D01*
X20145Y7275D01*
X20105D01*
X20185Y7261D02*
X20199Y7275D01*
X20225D01*
X20239Y7261D01*
Y7248D01*
X20225Y7235D01*
X20239Y7221D01*
Y7208D01*
X20225Y7195D01*
X20199D01*
X20185Y7208D01*
Y7221D01*
X20199Y7235D01*
X20185Y7248D01*
Y7261D01*
X20199Y7235D02*
X20225D01*
X20265Y7181D02*
X20319D01*
X20345Y7275D02*
Y7195D01*
X20399D01*
X20425Y7275D02*
Y7221D01*
X20452Y7195D01*
X20479Y7221D01*
Y7275D01*
X20559Y7195D02*
X20505D01*
X20559Y7248D01*
Y7261D01*
X20545Y7275D01*
X20519D01*
X20505Y7261D01*
X19496Y7880D02*
Y7960D01*
X19536D01*
X19549Y7947D01*
Y7920D01*
X19536Y7907D01*
X19496D01*
X19522D02*
X19549Y7880D01*
X19629Y7960D02*
X19602Y7947D01*
X19576Y7920D01*
Y7894D01*
X19589Y7880D01*
X19616D01*
X19629Y7894D01*
Y7907D01*
X19616Y7920D01*
X19576D01*
X19656Y7867D02*
X19709D01*
X19736Y7960D02*
Y7880D01*
X19789D01*
X19816Y7960D02*
Y7907D01*
X19842Y7880D01*
X19869Y7907D01*
Y7960D01*
X19949Y7880D02*
X19896D01*
X19949Y7934D01*
Y7947D01*
X19936Y7960D01*
X19909D01*
X19896Y7947D01*
X19724Y7677D02*
Y7757D01*
X19764D01*
X19778Y7744D01*
Y7717D01*
X19764Y7704D01*
X19724D01*
X19751D02*
X19778Y7677D01*
X19804Y7757D02*
X19858D01*
Y7744D01*
X19804Y7691D01*
Y7677D01*
X19884Y7664D02*
X19938D01*
X19964Y7757D02*
Y7677D01*
X20018D01*
X20044Y7757D02*
Y7704D01*
X20071Y7677D01*
X20098Y7704D01*
Y7757D01*
X20178Y7677D02*
X20124D01*
X20178Y7731D01*
Y7744D01*
X20164Y7757D01*
X20138D01*
X20124Y7744D01*
X18302Y7529D02*
Y7449D01*
X18355D01*
X18382Y7529D02*
X18435D01*
X18409D01*
Y7449D01*
X18515D02*
X18462D01*
X18515Y7502D01*
Y7515D01*
X18502Y7529D01*
X18475D01*
X18462Y7515D01*
X18542Y7435D02*
X18595D01*
X18622Y7529D02*
Y7449D01*
X18675D01*
X18702Y7529D02*
Y7475D01*
X18729Y7449D01*
X18755Y7475D01*
Y7529D01*
X18835Y7449D02*
X18782D01*
X18835Y7502D01*
Y7515D01*
X18822Y7529D01*
X18795D01*
X18782Y7515D01*
X18277Y6915D02*
Y6995D01*
X18317D01*
X18330Y6982D01*
Y6955D01*
X18317Y6942D01*
X18277D01*
X18303D02*
X18330Y6915D01*
X18370Y6982D02*
Y6969D01*
X18357D01*
X18383D01*
X18370D01*
Y6929D01*
X18383Y6915D01*
X18477Y6969D02*
X18437D01*
X18423Y6955D01*
Y6929D01*
X18437Y6915D01*
X18477D01*
X18557D02*
X18503D01*
X18557Y6969D01*
Y6982D01*
X18543Y6995D01*
X18517D01*
X18503Y6982D01*
X18583Y6902D02*
X18636D01*
X18663Y6995D02*
Y6915D01*
X18716D01*
X18743Y6995D02*
Y6942D01*
X18770Y6915D01*
X18796Y6942D01*
Y6995D01*
X18876Y6915D02*
X18823D01*
X18876Y6969D01*
Y6982D01*
X18863Y6995D01*
X18836D01*
X18823Y6982D01*
X18279Y8049D02*
X18266Y8062D01*
X18239D01*
X18226Y8049D01*
Y7995D01*
X18239Y7982D01*
X18266D01*
X18279Y7995D01*
X18306Y7982D02*
X18332D01*
X18319D01*
Y8062D01*
X18306Y8049D01*
X18372Y7982D02*
X18399D01*
X18386D01*
Y8062D01*
X18372Y8049D01*
X18439Y7969D02*
X18492D01*
X18519Y8062D02*
Y7982D01*
X18572D01*
X18599Y8062D02*
Y8009D01*
X18626Y7982D01*
X18652Y8009D01*
Y8062D01*
X18732Y7982D02*
X18679D01*
X18732Y8035D01*
Y8049D01*
X18719Y8062D01*
X18692D01*
X18679Y8049D01*
X9923Y9471D02*
X9909Y9484D01*
X9883D01*
X9869Y9471D01*
Y9418D01*
X9883Y9404D01*
X9909D01*
X9923Y9418D01*
X9949Y9471D02*
X9963Y9484D01*
X9989D01*
X10002Y9471D01*
Y9458D01*
X9989Y9444D01*
X10002Y9431D01*
Y9418D01*
X9989Y9404D01*
X9963D01*
X9949Y9418D01*
Y9431D01*
X9963Y9444D01*
X9949Y9458D01*
Y9471D01*
X9963Y9444D02*
X9989D01*
X10029Y9391D02*
X10082D01*
X10109Y9484D02*
Y9404D01*
X10162D01*
X10189Y9484D02*
Y9431D01*
X10216Y9404D01*
X10242Y9431D01*
Y9484D01*
X10309Y9404D02*
Y9484D01*
X10269Y9444D01*
X10322D01*
X8018Y8201D02*
X8004Y8214D01*
X7978D01*
X7964Y8201D01*
Y8148D01*
X7978Y8134D01*
X8004D01*
X8018Y8148D01*
X8044Y8134D02*
X8071D01*
X8058D01*
Y8214D01*
X8044Y8201D01*
X8164Y8134D02*
X8111D01*
X8164Y8188D01*
Y8201D01*
X8151Y8214D01*
X8124D01*
X8111Y8201D01*
X8191Y8121D02*
X8244D01*
X8271Y8214D02*
Y8134D01*
X8324D01*
X8351Y8214D02*
Y8161D01*
X8377Y8134D01*
X8404Y8161D01*
Y8214D01*
X8471Y8134D02*
Y8214D01*
X8431Y8174D01*
X8484D01*
X9449Y9681D02*
Y9615D01*
X9462Y9601D01*
X9489D01*
X9502Y9615D01*
Y9681D01*
X9582Y9601D02*
X9529D01*
X9582Y9655D01*
Y9668D01*
X9569Y9681D01*
X9542D01*
X9529Y9668D01*
X9609Y9588D02*
X9662D01*
X9689Y9681D02*
Y9601D01*
X9742D01*
X9769Y9681D02*
Y9628D01*
X9795Y9601D01*
X9822Y9628D01*
Y9681D01*
X9889Y9601D02*
Y9681D01*
X9849Y9641D01*
X9902D01*
X7634Y7118D02*
Y7198D01*
X7674D01*
X7687Y7185D01*
Y7158D01*
X7674Y7145D01*
X7634D01*
X7661D02*
X7687Y7118D01*
X7727D02*
Y7185D01*
Y7158D01*
X7714D01*
X7741D01*
X7727D01*
Y7185D01*
X7741Y7198D01*
X7781D02*
Y7118D01*
X7821D01*
X7834Y7132D01*
Y7145D01*
Y7158D01*
X7821Y7172D01*
X7781D01*
X7914Y7118D02*
X7861D01*
X7914Y7172D01*
Y7185D01*
X7901Y7198D01*
X7874D01*
X7861Y7185D01*
X7941Y7105D02*
X7994D01*
X8021Y7198D02*
Y7118D01*
X8074D01*
X8101Y7198D02*
Y7145D01*
X8127Y7118D01*
X8154Y7145D01*
Y7198D01*
X8220Y7118D02*
Y7198D01*
X8180Y7158D01*
X8234D01*
X7789Y4543D02*
X7776Y4557D01*
X7749D01*
X7736Y4543D01*
Y4490D01*
X7749Y4477D01*
X7776D01*
X7789Y4490D01*
X7816Y4477D02*
X7842D01*
X7829D01*
Y4557D01*
X7816Y4543D01*
X7882D02*
X7896Y4557D01*
X7922D01*
X7936Y4543D01*
Y4490D01*
X7922Y4477D01*
X7896D01*
X7882Y4490D01*
Y4543D01*
X7962Y4463D02*
X8016D01*
X8042Y4557D02*
Y4477D01*
X8095D01*
X8122Y4557D02*
Y4503D01*
X8149Y4477D01*
X8175Y4503D01*
Y4557D01*
X8242Y4477D02*
Y4557D01*
X8202Y4517D01*
X8255D01*
X10075Y9129D02*
X10022D01*
Y9089D01*
X10048D01*
X10022D01*
Y9049D01*
X10155D02*
X10102D01*
X10155Y9102D01*
Y9115D01*
X10142Y9129D01*
X10115D01*
X10102Y9115D01*
X10182Y9035D02*
X10235D01*
X10262Y9129D02*
Y9049D01*
X10315D01*
X10341Y9129D02*
Y9075D01*
X10368Y9049D01*
X10395Y9075D01*
Y9129D01*
X10461Y9049D02*
Y9129D01*
X10421Y9089D01*
X10475D01*
X10405Y7312D02*
X10392Y7325D01*
X10365D01*
X10352Y7312D01*
Y7259D01*
X10365Y7245D01*
X10392D01*
X10405Y7259D01*
X10432Y7245D02*
X10458D01*
X10445D01*
Y7325D01*
X10432Y7312D01*
X10498D02*
X10512Y7325D01*
X10538D01*
X10552Y7312D01*
Y7299D01*
X10538Y7285D01*
X10525D01*
X10538D01*
X10552Y7272D01*
Y7259D01*
X10538Y7245D01*
X10512D01*
X10498Y7259D01*
X10578Y7232D02*
X10632D01*
X10658Y7325D02*
Y7245D01*
X10712D01*
X10738Y7325D02*
Y7272D01*
X10765Y7245D01*
X10792Y7272D01*
Y7325D01*
X10858Y7245D02*
Y7325D01*
X10818Y7285D01*
X10872D01*
X10352Y6741D02*
Y6661D01*
X10392D01*
X10405Y6675D01*
Y6728D01*
X10392Y6741D01*
X10352D01*
X10432Y6661D02*
X10458D01*
X10445D01*
Y6741D01*
X10432Y6728D01*
X10498D02*
X10512Y6741D01*
X10538D01*
X10552Y6728D01*
Y6675D01*
X10538Y6661D01*
X10512D01*
X10498Y6675D01*
Y6728D01*
X10578Y6648D02*
X10632D01*
X10658Y6741D02*
Y6661D01*
X10712D01*
X10738Y6741D02*
Y6688D01*
X10765Y6661D01*
X10792Y6688D01*
Y6741D01*
X10858Y6661D02*
Y6741D01*
X10818Y6701D01*
X10872D01*
X8802Y4658D02*
Y4578D01*
X8842D01*
X8856Y4592D01*
Y4645D01*
X8842Y4658D01*
X8802D01*
X8882D02*
X8936D01*
Y4645D01*
X8882Y4592D01*
Y4578D01*
X8962Y4565D02*
X9016D01*
X9042Y4658D02*
Y4578D01*
X9096D01*
X9122Y4658D02*
Y4605D01*
X9149Y4578D01*
X9176Y4605D01*
Y4658D01*
X9242Y4578D02*
Y4658D01*
X9202Y4618D01*
X9256D01*
X8574Y9481D02*
Y9561D01*
X8614D01*
X8627Y9547D01*
Y9521D01*
X8614Y9507D01*
X8574D01*
X8600D02*
X8627Y9481D01*
X8707Y9561D02*
X8654D01*
Y9521D01*
X8680Y9534D01*
X8694D01*
X8707Y9521D01*
Y9494D01*
X8694Y9481D01*
X8667D01*
X8654Y9494D01*
X8734Y9467D02*
X8787D01*
X8814Y9561D02*
Y9481D01*
X8867D01*
X8894Y9561D02*
Y9507D01*
X8920Y9481D01*
X8947Y9507D01*
Y9561D01*
X9014Y9481D02*
Y9561D01*
X8974Y9521D01*
X9027D01*
X9361Y7449D02*
Y7529D01*
X9401D01*
X9415Y7515D01*
Y7489D01*
X9401Y7475D01*
X9361D01*
X9388D02*
X9415Y7449D01*
X9441Y7502D02*
Y7449D01*
Y7475D01*
X9455Y7489D01*
X9468Y7502D01*
X9481D01*
X9561Y7449D02*
X9534D01*
X9521Y7462D01*
Y7489D01*
X9534Y7502D01*
X9561D01*
X9574Y7489D01*
Y7475D01*
X9521D01*
X9614Y7449D02*
Y7515D01*
Y7489D01*
X9601D01*
X9628D01*
X9614D01*
Y7515D01*
X9628Y7529D01*
X9721Y7449D02*
X9668D01*
X9721Y7502D01*
Y7515D01*
X9708Y7529D01*
X9681D01*
X9668Y7515D01*
X9748Y7435D02*
X9801D01*
X9828Y7529D02*
Y7449D01*
X9881D01*
X9908Y7529D02*
Y7475D01*
X9934Y7449D01*
X9961Y7475D01*
Y7529D01*
X10028Y7449D02*
Y7529D01*
X9988Y7489D01*
X10041D01*
X8142Y8998D02*
Y9078D01*
X8182D01*
X8195Y9065D01*
Y9038D01*
X8182Y9025D01*
X8142D01*
X8169D02*
X8195Y8998D01*
X8222D02*
X8262D01*
X8275Y9011D01*
X8262Y9025D01*
X8235D01*
X8222Y9038D01*
X8235Y9051D01*
X8275D01*
X8342Y8998D02*
X8315D01*
X8302Y9011D01*
Y9038D01*
X8315Y9051D01*
X8342D01*
X8355Y9038D01*
Y9025D01*
X8302D01*
X8382Y8998D02*
Y9051D01*
X8422D01*
X8435Y9038D01*
Y8998D01*
X8462D02*
X8502D01*
X8515Y9011D01*
X8502Y9025D01*
X8475D01*
X8462Y9038D01*
X8475Y9051D01*
X8515D01*
X8582Y8998D02*
X8555D01*
X8542Y9011D01*
Y9038D01*
X8555Y9051D01*
X8582D01*
X8595Y9038D01*
Y9025D01*
X8542D01*
X8675Y8998D02*
X8622D01*
X8675Y9051D01*
Y9065D01*
X8662Y9078D01*
X8635D01*
X8622Y9065D01*
X8702Y8985D02*
X8755D01*
X8782Y9078D02*
Y8998D01*
X8835D01*
X8862Y9078D02*
Y9025D01*
X8888Y8998D01*
X8915Y9025D01*
Y9078D01*
X8982Y8998D02*
Y9078D01*
X8942Y9038D01*
X8995D01*
X7927Y4867D02*
X7914Y4881D01*
X7887D01*
X7874Y4867D01*
Y4814D01*
X7887Y4801D01*
X7914D01*
X7927Y4814D01*
X7954D02*
X7967Y4801D01*
X7994D01*
X8007Y4814D01*
Y4867D01*
X7994Y4881D01*
X7967D01*
X7954Y4867D01*
Y4854D01*
X7967Y4841D01*
X8007D01*
X8034Y4787D02*
X8087D01*
X8114Y4881D02*
Y4801D01*
X8167D01*
X8194Y4881D02*
Y4827D01*
X8221Y4801D01*
X8247Y4827D01*
Y4881D01*
X8314Y4801D02*
Y4881D01*
X8274Y4841D01*
X8327D01*
X7812Y4303D02*
Y4223D01*
X7852D01*
X7865Y4236D01*
Y4289D01*
X7852Y4303D01*
X7812D01*
X7945D02*
X7918Y4289D01*
X7892Y4263D01*
Y4236D01*
X7905Y4223D01*
X7932D01*
X7945Y4236D01*
Y4249D01*
X7932Y4263D01*
X7892D01*
X7972Y4209D02*
X8025D01*
X8052Y4303D02*
Y4223D01*
X8105D01*
X8132Y4303D02*
Y4249D01*
X8158Y4223D01*
X8185Y4249D01*
Y4303D01*
X8252Y4223D02*
Y4303D01*
X8212Y4263D01*
X8265D01*
X9437Y5370D02*
X9491D01*
X9464D01*
Y5290D01*
X9571D02*
X9517D01*
X9571Y5343D01*
Y5356D01*
X9557Y5370D01*
X9531D01*
X9517Y5356D01*
X9597Y5276D02*
X9651D01*
X9677Y5370D02*
Y5290D01*
X9731D01*
X9757Y5370D02*
Y5316D01*
X9784Y5290D01*
X9811Y5316D01*
Y5370D01*
X9877Y5290D02*
Y5370D01*
X9837Y5330D01*
X9891D01*
X10606Y6407D02*
Y6487D01*
X10646D01*
X10659Y6474D01*
Y6447D01*
X10646Y6434D01*
X10606D01*
X10632D02*
X10659Y6407D01*
X10686Y6474D02*
X10699Y6487D01*
X10726D01*
X10739Y6474D01*
Y6461D01*
X10726Y6447D01*
X10739Y6434D01*
Y6421D01*
X10726Y6407D01*
X10699D01*
X10686Y6421D01*
Y6434D01*
X10699Y6447D01*
X10686Y6461D01*
Y6474D01*
X10699Y6447D02*
X10726D01*
X10766Y6394D02*
X10819D01*
X10846Y6487D02*
Y6407D01*
X10899D01*
X10926Y6487D02*
Y6434D01*
X10952Y6407D01*
X10979Y6434D01*
Y6487D01*
X11046Y6407D02*
Y6487D01*
X11006Y6447D01*
X11059D01*
X9237Y8503D02*
Y8557D01*
X9223Y8570D01*
X9197D01*
X9183Y8557D01*
Y8503D01*
X9197Y8490D01*
X9223D01*
X9210Y8517D02*
X9237Y8490D01*
X9223D02*
X9237Y8503D01*
X9317Y8490D02*
X9263D01*
X9317Y8543D01*
Y8557D01*
X9303Y8570D01*
X9277D01*
X9263Y8557D01*
X9343Y8477D02*
X9397D01*
X9423Y8570D02*
Y8490D01*
X9477D01*
X9503Y8570D02*
Y8517D01*
X9530Y8490D01*
X9557Y8517D01*
Y8570D01*
X9623Y8490D02*
Y8570D01*
X9583Y8530D01*
X9637D01*
X9818Y7275D02*
Y7195D01*
X9858D01*
X9872Y7208D01*
Y7261D01*
X9858Y7275D01*
X9818D01*
X9898Y7261D02*
X9912Y7275D01*
X9938D01*
X9952Y7261D01*
Y7248D01*
X9938Y7235D01*
X9952Y7221D01*
Y7208D01*
X9938Y7195D01*
X9912D01*
X9898Y7208D01*
Y7221D01*
X9912Y7235D01*
X9898Y7248D01*
Y7261D01*
X9912Y7235D02*
X9938D01*
X9978Y7181D02*
X10032D01*
X10058Y7275D02*
Y7195D01*
X10112D01*
X10138Y7275D02*
Y7221D01*
X10165Y7195D01*
X10192Y7221D01*
Y7275D01*
X10258Y7195D02*
Y7275D01*
X10218Y7235D01*
X10272D01*
X9107Y7880D02*
Y7960D01*
X9147D01*
X9161Y7947D01*
Y7920D01*
X9147Y7907D01*
X9107D01*
X9134D02*
X9161Y7880D01*
X9240Y7960D02*
X9214Y7947D01*
X9187Y7920D01*
Y7894D01*
X9201Y7880D01*
X9227D01*
X9240Y7894D01*
Y7907D01*
X9227Y7920D01*
X9187D01*
X9267Y7867D02*
X9320D01*
X9347Y7960D02*
Y7880D01*
X9400D01*
X9427Y7960D02*
Y7907D01*
X9454Y7880D01*
X9480Y7907D01*
Y7960D01*
X9547Y7880D02*
Y7960D01*
X9507Y7920D01*
X9560D01*
X9437Y7677D02*
Y7757D01*
X9477D01*
X9491Y7744D01*
Y7717D01*
X9477Y7704D01*
X9437D01*
X9464D02*
X9491Y7677D01*
X9517Y7757D02*
X9571D01*
Y7744D01*
X9517Y7691D01*
Y7677D01*
X9597Y7664D02*
X9651D01*
X9677Y7757D02*
Y7677D01*
X9731D01*
X9757Y7757D02*
Y7704D01*
X9784Y7677D01*
X9811Y7704D01*
Y7757D01*
X9877Y7677D02*
Y7757D01*
X9837Y7717D01*
X9891D01*
X8066Y7529D02*
Y7449D01*
X8119D01*
X8146Y7529D02*
X8199D01*
X8172D01*
Y7449D01*
X8279D02*
X8226D01*
X8279Y7502D01*
Y7515D01*
X8266Y7529D01*
X8239D01*
X8226Y7515D01*
X8306Y7435D02*
X8359D01*
X8386Y7529D02*
Y7449D01*
X8439D01*
X8466Y7529D02*
Y7475D01*
X8492Y7449D01*
X8519Y7475D01*
Y7529D01*
X8586Y7449D02*
Y7529D01*
X8546Y7489D01*
X8599D01*
X7913Y6966D02*
Y7046D01*
X7953D01*
X7967Y7033D01*
Y7006D01*
X7953Y6993D01*
X7913D01*
X7940D02*
X7967Y6966D01*
X8007Y7033D02*
Y7019D01*
X7993D01*
X8020D01*
X8007D01*
Y6979D01*
X8020Y6966D01*
X8113Y7019D02*
X8073D01*
X8060Y7006D01*
Y6979D01*
X8073Y6966D01*
X8113D01*
X8193D02*
X8140D01*
X8193Y7019D01*
Y7033D01*
X8180Y7046D01*
X8153D01*
X8140Y7033D01*
X8220Y6953D02*
X8273D01*
X8300Y7046D02*
Y6966D01*
X8353D01*
X8380Y7046D02*
Y6993D01*
X8407Y6966D01*
X8433Y6993D01*
Y7046D01*
X8500Y6966D02*
Y7046D01*
X8460Y7006D01*
X8513D01*
X7764Y8023D02*
X7750Y8037D01*
X7724D01*
X7710Y8023D01*
Y7970D01*
X7724Y7957D01*
X7750D01*
X7764Y7970D01*
X7790Y7957D02*
X7817D01*
X7804D01*
Y8037D01*
X7790Y8023D01*
X7857Y7957D02*
X7883D01*
X7870D01*
Y8037D01*
X7857Y8023D01*
X7923Y7943D02*
X7977D01*
X8003Y8037D02*
Y7957D01*
X8057D01*
X8083Y8037D02*
Y7983D01*
X8110Y7957D01*
X8137Y7983D01*
Y8037D01*
X8203Y7957D02*
Y8037D01*
X8163Y7997D01*
X8217D01*
X21059Y9852D02*
X21046Y9865D01*
X21019D01*
X21006Y9852D01*
Y9799D01*
X21019Y9785D01*
X21046D01*
X21059Y9799D01*
X21086Y9785D02*
X21112D01*
X21099D01*
Y9865D01*
X21086Y9852D01*
X2166Y6993D02*
Y6966D01*
Y6980D01*
X2086D01*
Y6993D01*
Y6966D01*
X2153Y6873D02*
X2166Y6886D01*
Y6913D01*
X2153Y6926D01*
X2100D01*
X2086Y6913D01*
Y6886D01*
X2100Y6873D01*
X2153Y6793D02*
X2166Y6806D01*
Y6833D01*
X2153Y6846D01*
X2140D01*
X2126Y6833D01*
Y6806D01*
X2113Y6793D01*
X2100D01*
X2086Y6806D01*
Y6833D01*
X2100Y6846D01*
X2086Y6766D02*
X2166D01*
Y6726D01*
X2153Y6713D01*
X2126D01*
X2113Y6726D01*
Y6766D01*
X2086Y6686D02*
Y6660D01*
Y6673D01*
X2166D01*
X2153Y6686D01*
X13640Y4733D02*
Y4813D01*
X13693Y4733D01*
Y4813D01*
X13720D02*
X13773D01*
X13746D01*
Y4733D01*
X13853Y4800D02*
X13840Y4813D01*
X13813D01*
X13800Y4800D01*
Y4747D01*
X13813Y4733D01*
X13840D01*
X13853Y4747D01*
X13284Y5394D02*
Y5474D01*
X13324D01*
X13338Y5460D01*
Y5434D01*
X13324Y5420D01*
X13284D01*
X13311D02*
X13338Y5394D01*
X13364Y5380D02*
X13417D01*
X13444Y5394D02*
Y5474D01*
X13497Y5394D01*
Y5474D01*
X13524D02*
X13577D01*
X13551D01*
Y5394D01*
X13657Y5460D02*
X13644Y5474D01*
X13617D01*
X13604Y5460D01*
Y5407D01*
X13617Y5394D01*
X13644D01*
X13657Y5407D01*
X3292Y9525D02*
Y9605D01*
X3332D01*
X3345Y9592D01*
Y9565D01*
X3332Y9552D01*
X3292D01*
X3318D02*
X3345Y9525D01*
X3372Y9605D02*
Y9525D01*
X3425D01*
X3505Y9605D02*
X3452D01*
Y9525D01*
X3505D01*
X3452Y9565D02*
X3478D01*
X3532Y9605D02*
Y9525D01*
X3572D01*
X3585Y9538D01*
Y9592D01*
X3572Y9605D01*
X3532D01*
X3611Y9525D02*
X3638D01*
X3625D01*
Y9605D01*
X3611Y9592D01*
X21923Y6899D02*
X21909Y6913D01*
X21883D01*
X21869Y6899D01*
Y6846D01*
X21883Y6833D01*
X21909D01*
X21923Y6846D01*
X22003Y6833D02*
X21949D01*
X22003Y6886D01*
Y6899D01*
X21989Y6913D01*
X21963D01*
X21949Y6899D01*
X21796Y7890D02*
X21782Y7903D01*
X21756D01*
X21742Y7890D01*
Y7837D01*
X21756Y7823D01*
X21782D01*
X21796Y7837D01*
X21822Y7890D02*
X21836Y7903D01*
X21862D01*
X21876Y7890D01*
Y7877D01*
X21862Y7863D01*
X21849D01*
X21862D01*
X21876Y7850D01*
Y7837D01*
X21862Y7823D01*
X21836D01*
X21822Y7837D01*
X22853Y7973D02*
Y8053D01*
X22893D01*
X22906Y8040D01*
Y8013D01*
X22893Y8000D01*
X22853D01*
X22880D02*
X22906Y7973D01*
X22933D02*
X22960D01*
X22946D01*
Y8053D01*
X22933Y8040D01*
X22835Y6833D02*
Y6913D01*
X22875D01*
X22888Y6899D01*
Y6873D01*
X22875Y6859D01*
X22835D01*
X22861D02*
X22888Y6833D01*
X22968D02*
X22915D01*
X22968Y6886D01*
Y6899D01*
X22955Y6913D01*
X22928D01*
X22915Y6899D01*
X22391Y8062D02*
Y7995D01*
X22405Y7982D01*
X22431D01*
X22445Y7995D01*
Y8062D01*
X22471Y7982D02*
X22498D01*
X22485D01*
Y8062D01*
X22471Y8049D01*
X22389Y6942D02*
Y6875D01*
X22403Y6862D01*
X22429D01*
X22443Y6875D01*
Y6942D01*
X22523Y6862D02*
X22469D01*
X22523Y6915D01*
Y6929D01*
X22509Y6942D01*
X22483D01*
X22469Y6929D01*
X4547Y2808D02*
Y2888D01*
X4587D01*
X4600Y2875D01*
Y2848D01*
X4587Y2835D01*
X4547D01*
X4573D02*
X4600Y2808D01*
X4667D02*
X4640D01*
X4627Y2821D01*
Y2848D01*
X4640Y2861D01*
X4667D01*
X4680Y2848D01*
Y2835D01*
X4627D01*
X4707Y2861D02*
X4733Y2808D01*
X4760Y2861D01*
X4787Y2808D02*
Y2821D01*
X4800D01*
Y2808D01*
X4787D01*
X4986D02*
X4933D01*
X4986Y2861D01*
Y2875D01*
X4973Y2888D01*
X4946D01*
X4933Y2875D01*
X5013Y2808D02*
Y2821D01*
X5026D01*
Y2808D01*
X5013D01*
X5080Y2875D02*
X5093Y2888D01*
X5120D01*
X5133Y2875D01*
Y2821D01*
X5120Y2808D01*
X5093D01*
X5080Y2821D01*
Y2875D01*
X5240Y2808D02*
Y2888D01*
X5293Y2808D01*
Y2888D01*
X5333Y2808D02*
X5360D01*
X5373Y2821D01*
Y2848D01*
X5360Y2861D01*
X5333D01*
X5320Y2848D01*
Y2821D01*
X5333Y2808D01*
X5400Y2861D02*
X5426Y2808D01*
X5453Y2861D01*
X5520Y2808D02*
X5493D01*
X5480Y2821D01*
Y2848D01*
X5493Y2861D01*
X5520D01*
X5533Y2848D01*
Y2835D01*
X5480D01*
X5560Y2808D02*
Y2861D01*
X5573D01*
X5586Y2848D01*
Y2808D01*
Y2848D01*
X5600Y2861D01*
X5613Y2848D01*
Y2808D01*
X5640Y2888D02*
Y2808D01*
X5680D01*
X5693Y2821D01*
Y2835D01*
Y2848D01*
X5680Y2861D01*
X5640D01*
X5760Y2808D02*
X5733D01*
X5720Y2821D01*
Y2848D01*
X5733Y2861D01*
X5760D01*
X5773Y2848D01*
Y2835D01*
X5720D01*
X5800Y2861D02*
Y2808D01*
Y2835D01*
X5813Y2848D01*
X5826Y2861D01*
X5840D01*
X6013Y2808D02*
X5959D01*
X6013Y2861D01*
Y2875D01*
X5999Y2888D01*
X5973D01*
X5959Y2875D01*
X6039D02*
X6053Y2888D01*
X6079D01*
X6093Y2875D01*
Y2821D01*
X6079Y2808D01*
X6053D01*
X6039Y2821D01*
Y2875D01*
X6119Y2808D02*
X6146D01*
X6133D01*
Y2888D01*
X6119Y2875D01*
X6239Y2888D02*
X6186D01*
Y2848D01*
X6213Y2861D01*
X6226D01*
X6239Y2848D01*
Y2821D01*
X6226Y2808D01*
X6199D01*
X6186Y2821D01*
X4600Y2683D02*
X4587Y2696D01*
X4560D01*
X4547Y2683D01*
Y2630D01*
X4560Y2616D01*
X4587D01*
X4600Y2630D01*
Y2656D01*
X4573D01*
X4627D02*
X4680D01*
X4760Y2616D02*
X4707D01*
X4760Y2670D01*
Y2683D01*
X4747Y2696D01*
X4720D01*
X4707Y2683D01*
X4866Y2696D02*
Y2616D01*
X4920D01*
X4946Y2696D02*
Y2643D01*
X4973Y2616D01*
X5000Y2643D01*
Y2696D01*
X5106Y2616D02*
Y2696D01*
X5146D01*
X5160Y2683D01*
Y2656D01*
X5146Y2643D01*
X5106D01*
X5133D02*
X5160Y2616D01*
X5200Y2670D02*
X5226D01*
X5240Y2656D01*
Y2616D01*
X5200D01*
X5186Y2630D01*
X5200Y2643D01*
X5240D01*
X5320Y2670D02*
X5280D01*
X5266Y2656D01*
Y2630D01*
X5280Y2616D01*
X5320D01*
X5346D02*
Y2696D01*
Y2643D02*
X5386Y2670D01*
X5346Y2643D02*
X5386Y2616D01*
X5506D02*
Y2696D01*
X5546D01*
X5560Y2683D01*
Y2656D01*
X5546Y2643D01*
X5506D01*
X5600Y2616D02*
X5626D01*
X5640Y2630D01*
Y2656D01*
X5626Y2670D01*
X5600D01*
X5586Y2656D01*
Y2630D01*
X5600Y2616D01*
X5666Y2670D02*
Y2630D01*
X5680Y2616D01*
X5693Y2630D01*
X5706Y2616D01*
X5720Y2630D01*
Y2670D01*
X5786Y2616D02*
X5760D01*
X5746Y2630D01*
Y2656D01*
X5760Y2670D01*
X5786D01*
X5800Y2656D01*
Y2643D01*
X5746D01*
X5826Y2670D02*
Y2616D01*
Y2643D01*
X5840Y2656D01*
X5853Y2670D01*
X5866D01*
X5986Y2616D02*
X6026D01*
X6039Y2630D01*
X6026Y2643D01*
X5999D01*
X5986Y2656D01*
X5999Y2670D01*
X6039D01*
X6066D02*
Y2630D01*
X6079Y2616D01*
X6119D01*
Y2670D01*
X6146Y2590D02*
Y2670D01*
X6186D01*
X6199Y2656D01*
Y2630D01*
X6186Y2616D01*
X6146D01*
X6226Y2590D02*
Y2670D01*
X6266D01*
X6279Y2656D01*
Y2630D01*
X6266Y2616D01*
X6226D01*
X6306D02*
X6333D01*
X6319D01*
Y2696D01*
X6306D01*
X6373Y2670D02*
Y2630D01*
X6386Y2616D01*
X6426D01*
Y2603D01*
X6413Y2590D01*
X6399D01*
X6426Y2616D02*
Y2670D01*
X4547Y2518D02*
Y2438D01*
Y2478D01*
X4560Y2492D01*
X4587D01*
X4600Y2478D01*
Y2438D01*
X4640Y2505D02*
Y2492D01*
X4627D01*
X4653D01*
X4640D01*
Y2452D01*
X4653Y2438D01*
X4707Y2505D02*
Y2492D01*
X4693D01*
X4720D01*
X4707D01*
Y2452D01*
X4720Y2438D01*
X4760Y2412D02*
Y2492D01*
X4800D01*
X4813Y2478D01*
Y2452D01*
X4800Y2438D01*
X4760D01*
X4840D02*
X4880D01*
X4893Y2452D01*
X4880Y2465D01*
X4853D01*
X4840Y2478D01*
X4853Y2492D01*
X4893D01*
X4920D02*
X4933D01*
Y2478D01*
X4920D01*
Y2492D01*
Y2452D02*
X4933D01*
Y2438D01*
X4920D01*
Y2452D01*
X4986Y2438D02*
X5040Y2492D01*
X5066Y2438D02*
X5120Y2492D01*
X5173Y2412D02*
X5186D01*
X5200Y2425D01*
Y2492D01*
X5160D01*
X5146Y2478D01*
Y2452D01*
X5160Y2438D01*
X5200D01*
X5240D02*
X5266D01*
X5280Y2452D01*
Y2478D01*
X5266Y2492D01*
X5240D01*
X5226Y2478D01*
Y2452D01*
X5240Y2438D01*
X5320D02*
X5346D01*
X5360Y2452D01*
Y2478D01*
X5346Y2492D01*
X5320D01*
X5306Y2478D01*
Y2452D01*
X5320Y2438D01*
X5386D02*
Y2452D01*
X5400D01*
Y2438D01*
X5386D01*
X5480Y2412D02*
X5493D01*
X5506Y2425D01*
Y2492D01*
X5466D01*
X5453Y2478D01*
Y2452D01*
X5466Y2438D01*
X5506D01*
X5533D02*
X5560D01*
X5546D01*
Y2518D01*
X5533D01*
X5600Y2438D02*
X5653Y2492D01*
X5733Y2518D02*
X5680D01*
Y2438D01*
X5733D01*
X5680Y2478D02*
X5706D01*
X5773Y2438D02*
X5800D01*
X5813Y2452D01*
Y2478D01*
X5800Y2492D01*
X5773D01*
X5760Y2478D01*
Y2452D01*
X5773Y2438D01*
X5840Y2412D02*
Y2492D01*
X5880D01*
X5893Y2478D01*
Y2452D01*
X5880Y2438D01*
X5840D01*
X5973Y2505D02*
X5959Y2518D01*
X5933D01*
X5919Y2505D01*
Y2452D01*
X5933Y2438D01*
X5959D01*
X5973Y2452D01*
Y2478D01*
X5946D01*
X6053Y2412D02*
Y2492D01*
X6013D01*
X5999Y2478D01*
Y2452D01*
X6013Y2438D01*
X6053D01*
X6093D02*
Y2505D01*
Y2478D01*
X6079D01*
X6106D01*
X6093D01*
Y2505D01*
X6106Y2518D01*
X4816Y3100D02*
Y3020D01*
Y3060D01*
X4869D01*
Y3100D01*
Y3020D01*
X4949Y3100D02*
X4896D01*
Y3020D01*
X4949D01*
X4896Y3060D02*
X4922D01*
X4976Y3020D02*
Y3100D01*
X5016D01*
X5029Y3087D01*
Y3060D01*
X5016Y3047D01*
X4976D01*
D85*
X15860Y3399D02*
D03*
X12468Y3397D02*
D03*
X8618Y4274D02*
D03*
X18905D02*
D03*
M02*
