G04 Layer_Color=128*
%FSLAX42Y42*%
%MOMM*%
G71*
G01*
G75*
%ADD10R,0.90X0.70*%
%ADD11R,0.70X0.90*%
%ADD12R,1.25X0.95*%
%ADD13R,1.10X2.60*%
%ADD19R,0.80X0.90*%
%ADD20R,2.60X1.10*%
%ADD30R,2.18X1.52*%
%ADD31R,3.50X2.00*%
%ADD33R,3.30X1.40*%
%ADD34R,0.90X0.80*%
%ADD54C,0.50*%
%ADD72O,0.29X1.80*%
%ADD73O,1.80X0.29*%
%ADD74R,1.40X3.30*%
%ADD75R,1.22X1.22*%
%ADD76R,0.71X2.01*%
%ADD77R,1.55X3.30*%
%ADD78R,3.80X2.00*%
%ADD79R,1.50X2.00*%
D10*
X22860Y8533D02*
D03*
Y8383D02*
D03*
X23038Y8282D02*
D03*
Y8432D02*
D03*
X22835Y8028D02*
D03*
Y8178D02*
D03*
X22657Y7774D02*
D03*
Y7924D02*
D03*
X12554Y2682D02*
D03*
Y2832D02*
D03*
X17707Y3204D02*
D03*
Y3354D02*
D03*
X13868Y6072D02*
D03*
Y6222D02*
D03*
X13762Y10611D02*
D03*
Y10761D02*
D03*
X9230Y10565D02*
D03*
Y10715D02*
D03*
X6452Y8406D02*
D03*
Y8256D02*
D03*
D11*
X3148Y2438D02*
D03*
X2998D02*
D03*
X5894Y7772D02*
D03*
X6044D02*
D03*
X5589Y7823D02*
D03*
X5739D02*
D03*
D12*
X23021Y3623D02*
D03*
X22546Y3823D02*
D03*
Y3623D02*
D03*
X23021Y3823D02*
D03*
X23073Y2853D02*
D03*
X22598Y3053D02*
D03*
Y2853D02*
D03*
X23073Y3053D02*
D03*
D13*
X8526Y8306D02*
D03*
X8796D02*
D03*
X12532Y3113D02*
D03*
X12262D02*
D03*
X19003Y3608D02*
D03*
X18733D02*
D03*
X8526Y8001D02*
D03*
X8796D02*
D03*
X18813D02*
D03*
X19083D02*
D03*
X18813Y8331D02*
D03*
X19083D02*
D03*
D19*
X2851Y6790D02*
D03*
X2991D02*
D03*
X6699Y9652D02*
D03*
X6559D02*
D03*
X6356Y8941D02*
D03*
X6496D02*
D03*
X6699Y9449D02*
D03*
X6559D02*
D03*
D20*
X13074Y2150D02*
D03*
Y1880D02*
D03*
X13385Y2152D02*
D03*
Y1882D02*
D03*
X13685Y2150D02*
D03*
Y1880D02*
D03*
X19153Y3349D02*
D03*
Y3079D02*
D03*
X19836Y3341D02*
D03*
Y3071D02*
D03*
X19506Y3349D02*
D03*
Y3079D02*
D03*
X17094Y7069D02*
D03*
Y6799D02*
D03*
X13995Y7069D02*
D03*
Y6799D02*
D03*
X13691Y7069D02*
D03*
Y6799D02*
D03*
X17399Y7069D02*
D03*
Y6799D02*
D03*
D30*
X4445Y10027D02*
D03*
Y10395D02*
D03*
D31*
X13016Y3050D02*
D03*
Y2560D02*
D03*
X18282Y3060D02*
D03*
Y3550D02*
D03*
D33*
X7747Y6134D02*
D03*
Y5754D02*
D03*
D34*
X4470Y8604D02*
D03*
Y8464D02*
D03*
X4115Y5658D02*
D03*
Y5518D02*
D03*
D54*
X24206Y1000D02*
X24206Y11000D01*
X17297Y1000D02*
X24206Y1000D01*
X2235Y1000D02*
X17297D01*
X2200Y1035D02*
X2235Y1000D01*
X2200Y1035D02*
Y1041D01*
Y10998D01*
X2202Y11000D02*
X24206Y11000D01*
D72*
X6037Y9524D02*
D03*
X5987D02*
D03*
X5937D02*
D03*
X5887D02*
D03*
X5837D02*
D03*
X5787D02*
D03*
X5737D02*
D03*
X5687D02*
D03*
X5637D02*
D03*
X5587D02*
D03*
X5537D02*
D03*
X5487D02*
D03*
X5437D02*
D03*
X5387D02*
D03*
X5337D02*
D03*
X5287D02*
D03*
X5237D02*
D03*
X5187D02*
D03*
X5137D02*
D03*
X5087D02*
D03*
X5037D02*
D03*
X4987D02*
D03*
X4937D02*
D03*
X4887D02*
D03*
X4837D02*
D03*
Y8014D02*
D03*
X4887D02*
D03*
X4937D02*
D03*
X4987D02*
D03*
X5037D02*
D03*
X5087D02*
D03*
X5137D02*
D03*
X5187D02*
D03*
X5237D02*
D03*
X5287D02*
D03*
X5337D02*
D03*
X5387D02*
D03*
X5437D02*
D03*
X5487D02*
D03*
X5537D02*
D03*
X5587D02*
D03*
X5637D02*
D03*
X5687D02*
D03*
X5737D02*
D03*
X5787D02*
D03*
X5837D02*
D03*
X5887D02*
D03*
X5937D02*
D03*
X5987D02*
D03*
X6037D02*
D03*
D73*
X4682Y9369D02*
D03*
Y9319D02*
D03*
Y9269D02*
D03*
Y9219D02*
D03*
Y9169D02*
D03*
Y9119D02*
D03*
Y9069D02*
D03*
Y9019D02*
D03*
Y8969D02*
D03*
Y8919D02*
D03*
Y8869D02*
D03*
Y8819D02*
D03*
Y8769D02*
D03*
Y8719D02*
D03*
Y8669D02*
D03*
Y8619D02*
D03*
Y8569D02*
D03*
Y8519D02*
D03*
Y8469D02*
D03*
Y8419D02*
D03*
Y8369D02*
D03*
Y8319D02*
D03*
Y8269D02*
D03*
Y8219D02*
D03*
Y8169D02*
D03*
X6192D02*
D03*
Y8219D02*
D03*
Y8269D02*
D03*
Y8319D02*
D03*
Y8369D02*
D03*
Y8419D02*
D03*
Y8469D02*
D03*
Y8519D02*
D03*
Y8569D02*
D03*
Y8619D02*
D03*
Y8669D02*
D03*
Y8719D02*
D03*
Y8769D02*
D03*
Y8819D02*
D03*
Y8869D02*
D03*
Y8919D02*
D03*
Y8969D02*
D03*
Y9019D02*
D03*
Y9069D02*
D03*
Y9119D02*
D03*
Y9169D02*
D03*
Y9219D02*
D03*
Y9269D02*
D03*
Y9319D02*
D03*
Y9369D02*
D03*
D74*
X20891Y5512D02*
D03*
X20511D02*
D03*
D75*
X6604Y8277D02*
D03*
Y8489D02*
D03*
D76*
X5764Y7620D02*
D03*
X5664D02*
D03*
X5563D02*
D03*
D77*
X6331Y10439D02*
D03*
X5911D02*
D03*
D78*
X4361Y6462D02*
D03*
D79*
X4131Y5832D02*
D03*
X4361D02*
D03*
X4591D02*
D03*
M02*
