G04 Layer_Physical_Order=2*
G04 Layer_Color=16711680*
%FSLAX42Y42*%
%MOMM*%
G71*
G01*
G75*
%ADD10R,0.70X0.90*%
%ADD11R,2.00X3.50*%
%ADD12R,2.60X1.10*%
%ADD13R,3.30X1.40*%
%ADD17R,0.90X0.70*%
%ADD19R,0.80X0.90*%
%ADD23R,1.52X2.18*%
%ADD32R,0.90X0.80*%
%ADD33R,1.42X3.02*%
%ADD36C,0.64*%
%ADD37C,0.30*%
%ADD38C,0.25*%
%ADD39C,0.51*%
%ADD40C,0.75*%
%ADD41C,0.50*%
%ADD43C,0.30*%
%ADD44C,2.00*%
%ADD45C,2.60*%
%ADD46C,1.52*%
%ADD47C,2.80*%
G04:AMPARAMS|DCode=48|XSize=1.57mm|YSize=1.57mm|CornerRadius=0mm|HoleSize=0mm|Usage=FLASHONLY|Rotation=90.000|XOffset=0mm|YOffset=0mm|HoleType=Round|Shape=Octagon|*
%AMOCTAGOND48*
4,1,8,0.39,0.79,-0.39,0.79,-0.79,0.39,-0.79,-0.39,-0.39,-0.79,0.39,-0.79,0.79,-0.39,0.79,0.39,0.39,0.79,0.0*
%
%ADD48OCTAGOND48*%

%ADD49C,1.70*%
%ADD50C,1.60*%
%ADD51C,0.64*%
%ADD52C,1.27*%
%ADD53C,0.80*%
%ADD54C,1.02*%
%ADD55C,0.76*%
%ADD56R,3.80X2.00*%
%ADD57R,1.50X2.00*%
%ADD58O,1.80X0.30*%
%ADD59O,0.30X1.80*%
%ADD60R,1.22X1.22*%
%ADD61R,0.71X2.01*%
%ADD62R,1.55X3.30*%
%ADD63C,1.27*%
G36*
X23168Y6952D02*
X23157Y6938D01*
X23147Y6914D01*
X23144Y6889D01*
X23147Y6864D01*
X23157Y6840D01*
X23172Y6820D01*
X23192Y6805D01*
X23216Y6795D01*
X23221Y6795D01*
X23220Y6782D01*
X23195D01*
X23181Y6779D01*
X23170Y6771D01*
X23149Y6751D01*
X22948D01*
X22943Y6763D01*
X23145Y6965D01*
X23162D01*
X23168Y6952D01*
D02*
G37*
G36*
Y7206D02*
X23157Y7192D01*
X23147Y7168D01*
X23144Y7143D01*
X23147Y7118D01*
X23157Y7094D01*
X23172Y7074D01*
X23192Y7059D01*
X23216Y7049D01*
X23221Y7049D01*
X23220Y7036D01*
X23130D01*
X23116Y7033D01*
X23105Y7025D01*
X22880Y6801D01*
X22744D01*
X22739Y6813D01*
X23145Y7219D01*
X23162D01*
X23168Y7206D01*
D02*
G37*
G36*
X13349Y5798D02*
X13349Y4197D01*
X10682Y4197D01*
X10682Y5798D01*
X13349Y5798D01*
D02*
G37*
G36*
X5334Y5937D02*
X5171D01*
Y5951D01*
X4989D01*
Y5937D01*
X4686D01*
Y5952D01*
X4496D01*
Y5937D01*
X4445D01*
X4445Y5738D01*
X4434Y5727D01*
X4281D01*
Y5937D01*
X4226D01*
Y5952D01*
X4036D01*
X4031Y5962D01*
Y6597D01*
X4039Y6604D01*
X5334D01*
X5334Y5937D01*
D02*
G37*
G36*
X23816Y7567D02*
Y7481D01*
X23805Y7476D01*
X23798Y7481D01*
X23774Y7491D01*
X23749Y7494D01*
X23724Y7491D01*
X23700Y7481D01*
X23680Y7466D01*
X23665Y7446D01*
X23655Y7422D01*
X23652Y7397D01*
X23655Y7372D01*
X23665Y7348D01*
X23680Y7328D01*
X23696Y7316D01*
X23699Y7301D01*
X23636Y7238D01*
X23627Y7246D01*
X23630Y7251D01*
X23632Y7264D01*
Y7484D01*
X23711Y7563D01*
X23724Y7557D01*
X23749Y7554D01*
X23774Y7557D01*
X23798Y7567D01*
X23805Y7572D01*
X23816Y7567D01*
D02*
G37*
G36*
X4802Y8057D02*
Y7939D01*
X4804Y7926D01*
X4812Y7914D01*
X4824Y7906D01*
X4837Y7904D01*
X4851Y7906D01*
X4862Y7914D01*
X4874Y7906D01*
X4887Y7904D01*
X4901Y7906D01*
X4912Y7914D01*
X4924Y7906D01*
X4937Y7904D01*
X4951Y7906D01*
X4962Y7914D01*
X4974Y7906D01*
X4987Y7904D01*
X4989Y7904D01*
X4991Y7903D01*
X4995Y7890D01*
X4928Y7823D01*
X4920Y7811D01*
X4917Y7798D01*
Y7442D01*
X4920Y7429D01*
X4928Y7417D01*
X5033Y7312D01*
X5028Y7300D01*
X4587D01*
X4492Y7395D01*
X4494Y7397D01*
X4498Y7417D01*
X4494Y7437D01*
X4482Y7454D01*
X4465Y7466D01*
X4445Y7470D01*
X4425Y7466D01*
X4408Y7454D01*
X4396Y7437D01*
X4392Y7417D01*
X4396Y7397D01*
X4408Y7379D01*
X4413Y7376D01*
X4420Y7366D01*
X4525Y7261D01*
X4520Y7249D01*
X4488D01*
X4303Y7434D01*
Y7499D01*
X4305Y7500D01*
X4316Y7517D01*
X4320Y7538D01*
X4316Y7558D01*
X4305Y7575D01*
X4298Y7580D01*
X4304Y7590D01*
X4325Y7586D01*
X4345Y7590D01*
X4362Y7602D01*
X4373Y7619D01*
X4377Y7639D01*
X4376Y7644D01*
X4790Y8062D01*
X4802Y8057D01*
D02*
G37*
G36*
X23608Y7207D02*
X23605Y7203D01*
X23602Y7189D01*
Y7143D01*
X23351Y6891D01*
X23337Y6896D01*
X23335Y6914D01*
X23325Y6938D01*
X23314Y6952D01*
X23320Y6965D01*
X23332D01*
X23346Y6967D01*
X23358Y6975D01*
X23598Y7215D01*
X23608Y7207D01*
D02*
G37*
G36*
X23561Y7442D02*
Y7279D01*
X23318Y7036D01*
X23262D01*
X23261Y7049D01*
X23266Y7049D01*
X23290Y7059D01*
X23310Y7074D01*
X23325Y7094D01*
X23335Y7118D01*
X23338Y7143D01*
X23335Y7168D01*
X23325Y7192D01*
X23313Y7207D01*
X23317Y7220D01*
X23318Y7221D01*
X23321Y7221D01*
X23332Y7229D01*
X23546Y7442D01*
X23548Y7446D01*
X23561Y7442D01*
D02*
G37*
G36*
X16448Y2438D02*
X19482D01*
X19482Y1882D01*
X19473Y1873D01*
X14822Y1880D01*
Y2427D01*
X14822Y2427D01*
X14822Y5798D01*
X16448D01*
X16448Y2438D01*
D02*
G37*
G36*
X23851Y3404D02*
Y3327D01*
Y2972D01*
X22657D01*
X21615Y1930D01*
X21086D01*
X21082Y1932D01*
Y1981D01*
X19761D01*
Y2438D01*
X21387D01*
X22377Y3429D01*
X23825D01*
X23851Y3404D01*
D02*
G37*
G36*
X14695Y5798D02*
X14695Y1676D01*
X19530D01*
Y1662D01*
X19640D01*
Y1676D01*
X19680D01*
Y1662D01*
X19790D01*
Y1676D01*
X21098D01*
X21107Y1667D01*
X21107Y1175D01*
X21098Y1166D01*
X13804Y1171D01*
X13741Y1233D01*
Y1676D01*
X13755D01*
X13755Y5798D01*
X14695Y5798D01*
D02*
G37*
G36*
X23851Y2870D02*
Y2819D01*
Y2464D01*
X23139D01*
X21844Y1168D01*
X21114D01*
X21107Y1175D01*
Y1662D01*
X21601D01*
X21615Y1676D01*
X22860Y2921D01*
X23800D01*
X23851Y2870D01*
D02*
G37*
G36*
X19482Y5798D02*
X19482Y3327D01*
X19482Y3823D01*
X21866Y3823D01*
X21870Y3811D01*
X21387Y3327D01*
X19482D01*
Y3327D01*
X17946Y3327D01*
X17946Y5798D01*
X19482Y5798D01*
D02*
G37*
G36*
X10225D02*
X10225Y4197D01*
X7558Y4197D01*
X7558Y5798D01*
X10225Y5798D01*
D02*
G37*
G36*
X17820Y5798D02*
X17820Y3124D01*
X19482D01*
Y2540D01*
X17820Y2540D01*
D01*
X16880D01*
X16866Y2554D01*
Y3124D01*
X16880D01*
X16880Y5798D01*
X17820Y5798D01*
D02*
G37*
G36*
X22479Y3649D02*
X21904Y3073D01*
D01*
X21908Y3062D01*
X21387Y2540D01*
X19761D01*
Y3083D01*
X19773Y3088D01*
X19788Y3073D01*
X21392Y3073D01*
X21391Y3077D01*
X21996Y3683D01*
X22479D01*
Y3649D01*
D02*
G37*
G36*
X23665Y8872D02*
X23680Y8852D01*
X23700Y8837D01*
X23724Y8827D01*
X23749Y8824D01*
X23774Y8827D01*
X23798Y8837D01*
X23805Y8842D01*
X23816Y8837D01*
Y8751D01*
X23805Y8746D01*
X23798Y8751D01*
X23774Y8761D01*
X23749Y8764D01*
X23724Y8761D01*
X23700Y8751D01*
X23680Y8736D01*
X23665Y8716D01*
X23659Y8700D01*
X23331D01*
X23325Y8716D01*
X23310Y8736D01*
X23290Y8751D01*
X23266Y8761D01*
X23241Y8764D01*
X23216Y8761D01*
X23192Y8751D01*
X23172Y8736D01*
X23157Y8716D01*
X23151Y8700D01*
X22213D01*
X22208Y8712D01*
X22383Y8888D01*
X23151D01*
X23157Y8872D01*
X23172Y8852D01*
X23192Y8837D01*
X23216Y8827D01*
X23241Y8824D01*
X23266Y8827D01*
X23290Y8837D01*
X23310Y8852D01*
X23325Y8872D01*
X23331Y8888D01*
X23659D01*
X23665Y8872D01*
D02*
G37*
G36*
Y8618D02*
X23680Y8598D01*
X23700Y8583D01*
X23724Y8573D01*
X23749Y8570D01*
X23774Y8573D01*
X23798Y8583D01*
X23805Y8588D01*
X23816Y8583D01*
X23816Y7989D01*
X23805Y7984D01*
X23798Y7989D01*
X23774Y7999D01*
X23749Y8002D01*
X23724Y7999D01*
X23700Y7989D01*
X23680Y7974D01*
X23665Y7954D01*
X23655Y7930D01*
X23652Y7905D01*
X23655Y7880D01*
X23661Y7867D01*
X23495Y7702D01*
X23487Y7690D01*
X23485Y7676D01*
Y7482D01*
X23292Y7290D01*
X23262D01*
X23261Y7303D01*
X23266Y7303D01*
X23290Y7313D01*
X23310Y7328D01*
X23325Y7348D01*
X23335Y7372D01*
X23338Y7397D01*
X23335Y7422D01*
X23325Y7446D01*
X23310Y7466D01*
X23290Y7481D01*
X23266Y7491D01*
X23241Y7494D01*
X23216Y7491D01*
X23192Y7481D01*
X23172Y7466D01*
X23157Y7446D01*
X23147Y7422D01*
X23144Y7397D01*
X23147Y7372D01*
X23157Y7348D01*
X23172Y7328D01*
X23192Y7313D01*
X23216Y7303D01*
X23221Y7303D01*
X23220Y7290D01*
X23130D01*
X23116Y7287D01*
X23105Y7279D01*
X22676Y6851D01*
X21698D01*
X21383Y7166D01*
X21388Y7178D01*
X21672D01*
X21703Y7147D01*
X21700Y7140D01*
X21698Y7118D01*
X21700Y7097D01*
X21709Y7076D01*
X21722Y7059D01*
X21740Y7045D01*
X21760Y7037D01*
X21782Y7034D01*
X21804Y7037D01*
X21824Y7045D01*
X21841Y7059D01*
X21855Y7076D01*
X21863Y7097D01*
X21866Y7118D01*
X21863Y7140D01*
X21855Y7161D01*
X21841Y7178D01*
X21824Y7191D01*
X21804Y7200D01*
X21782Y7203D01*
X21760Y7200D01*
X21754Y7197D01*
X21718Y7233D01*
X21721Y7248D01*
X21722Y7249D01*
X21740Y7262D01*
X21753Y7279D01*
X21762Y7300D01*
X21764Y7322D01*
X21762Y7343D01*
X21753Y7364D01*
X21740Y7381D01*
X21722Y7395D01*
X21702Y7403D01*
X21680Y7406D01*
X21658Y7403D01*
X21638Y7395D01*
X21621Y7381D01*
X21607Y7364D01*
X21599Y7343D01*
X21596Y7322D01*
X21598Y7310D01*
X21589Y7300D01*
X21370D01*
X21365Y7312D01*
X21576Y7522D01*
X21582Y7520D01*
X21604Y7517D01*
X21626Y7520D01*
X21646Y7528D01*
X21664Y7541D01*
X21677Y7559D01*
X21685Y7579D01*
X21688Y7601D01*
X21685Y7623D01*
X21677Y7643D01*
X21664Y7661D01*
X21646Y7674D01*
X21626Y7682D01*
X21604Y7685D01*
X21582Y7682D01*
X21562Y7674D01*
X21544Y7661D01*
X21531Y7643D01*
X21523Y7623D01*
X21520Y7601D01*
X21523Y7579D01*
X21525Y7573D01*
X21303Y7351D01*
X21142D01*
X21137Y7363D01*
X21449Y7675D01*
X21455Y7672D01*
X21477Y7669D01*
X21499Y7672D01*
X21519Y7680D01*
X21537Y7694D01*
X21550Y7711D01*
X21558Y7732D01*
X21561Y7753D01*
X21558Y7775D01*
X21550Y7796D01*
X21537Y7813D01*
X21519Y7826D01*
X21499Y7835D01*
X21477Y7838D01*
X21455Y7835D01*
X21435Y7826D01*
X21417Y7813D01*
X21404Y7796D01*
X21396Y7775D01*
X21393Y7753D01*
X21396Y7732D01*
X21398Y7725D01*
X21075Y7402D01*
X20978D01*
X20973Y7413D01*
X22194Y8634D01*
X23151D01*
X23157Y8618D01*
X23172Y8598D01*
X23192Y8583D01*
X23216Y8573D01*
X23241Y8570D01*
X23266Y8573D01*
X23290Y8583D01*
X23310Y8598D01*
X23325Y8618D01*
X23331Y8634D01*
X23659D01*
X23665Y8618D01*
D02*
G37*
G36*
X5804Y8175D02*
Y8134D01*
X5791Y8124D01*
X5787Y8125D01*
X5774Y8122D01*
X5762Y8114D01*
X5754Y8103D01*
X5752Y8089D01*
Y7939D01*
X5754Y7927D01*
Y7901D01*
X5754Y7901D01*
X5744Y7888D01*
X5725D01*
X5723Y7890D01*
Y8014D01*
Y8089D01*
X5720Y8103D01*
X5712Y8114D01*
X5701Y8122D01*
X5687Y8125D01*
X5674Y8122D01*
X5662Y8115D01*
X5651Y8122D01*
X5637Y8125D01*
X5624Y8122D01*
X5612Y8115D01*
X5601Y8122D01*
X5587Y8125D01*
X5574Y8122D01*
X5562Y8115D01*
X5551Y8122D01*
X5537Y8125D01*
X5524Y8122D01*
X5512Y8115D01*
X5501Y8122D01*
X5487Y8125D01*
X5474Y8122D01*
X5462Y8115D01*
X5451Y8122D01*
X5437Y8125D01*
X5424Y8122D01*
X5412Y8115D01*
X5401Y8122D01*
X5387Y8125D01*
X5374Y8122D01*
X5362Y8115D01*
X5351Y8122D01*
X5337Y8125D01*
X5324Y8122D01*
X5312Y8115D01*
X5301Y8122D01*
X5287Y8125D01*
X5274Y8122D01*
X5262Y8115D01*
X5251Y8122D01*
X5237Y8125D01*
X5224Y8122D01*
X5212Y8115D01*
X5201Y8122D01*
X5187Y8125D01*
X5174Y8122D01*
X5162Y8115D01*
X5151Y8122D01*
X5137Y8125D01*
X5124Y8122D01*
X5112Y8115D01*
X5101Y8122D01*
X5087Y8125D01*
X5074Y8122D01*
X5062Y8115D01*
X5051Y8122D01*
X5037Y8125D01*
X5024Y8122D01*
X5012Y8115D01*
X5001Y8122D01*
X4987Y8125D01*
X4974Y8122D01*
X4962Y8115D01*
X4951Y8122D01*
X4937Y8125D01*
X4924Y8122D01*
X4912Y8115D01*
X4901Y8122D01*
X4887Y8125D01*
X4874Y8122D01*
X4873Y8122D01*
X4869Y8124D01*
X4867Y8139D01*
X4921Y8193D01*
X5697D01*
X5710Y8196D01*
X5721Y8203D01*
X5728Y8210D01*
X5768D01*
X5804Y8175D01*
D02*
G37*
G36*
X23816Y10021D02*
X23805Y10016D01*
X23798Y10021D01*
X23774Y10031D01*
X23749Y10034D01*
X23724Y10031D01*
X23700Y10021D01*
X23680Y10006D01*
X23665Y9986D01*
X23655Y9962D01*
X23652Y9937D01*
X23655Y9912D01*
X23665Y9888D01*
X23680Y9868D01*
X23700Y9853D01*
X23724Y9843D01*
X23749Y9840D01*
X23774Y9843D01*
X23798Y9853D01*
X23805Y9858D01*
X23816Y9853D01*
Y9767D01*
X23805Y9762D01*
X23798Y9767D01*
X23774Y9777D01*
X23749Y9780D01*
X23724Y9777D01*
X23700Y9767D01*
X23680Y9752D01*
X23665Y9732D01*
X23655Y9708D01*
X23652Y9683D01*
X23655Y9658D01*
X23665Y9634D01*
X23680Y9614D01*
X23700Y9599D01*
X23724Y9589D01*
X23749Y9586D01*
X23774Y9589D01*
X23798Y9599D01*
X23805Y9604D01*
X23816Y9599D01*
Y9513D01*
X23805Y9508D01*
X23798Y9513D01*
X23774Y9523D01*
X23749Y9526D01*
X23724Y9523D01*
X23701Y9513D01*
X23289D01*
X23267Y9523D01*
X23212Y9578D01*
X23214Y9584D01*
X23218Y9589D01*
X23241Y9586D01*
X23266Y9589D01*
X23290Y9599D01*
X23310Y9614D01*
X23325Y9634D01*
X23335Y9658D01*
X23338Y9683D01*
X23335Y9708D01*
X23325Y9732D01*
X23310Y9752D01*
X23290Y9767D01*
X23266Y9777D01*
X23241Y9780D01*
X23216Y9777D01*
X23192Y9767D01*
X23172Y9752D01*
X23157Y9732D01*
X23147Y9708D01*
X23144Y9683D01*
X23147Y9660D01*
X23142Y9656D01*
X23136Y9654D01*
X22392Y10397D01*
X22374Y10411D01*
X22354Y10419D01*
X22332Y10422D01*
X6468D01*
X6429Y10461D01*
Y10624D01*
X6234D01*
Y10254D01*
X6427D01*
X6433Y10254D01*
X22297D01*
X23147Y9403D01*
X23157Y9380D01*
X23172Y9360D01*
X23192Y9345D01*
X23216Y9335D01*
X23241Y9332D01*
X23266Y9335D01*
X23289Y9345D01*
X23701D01*
X23724Y9335D01*
X23749Y9332D01*
X23774Y9335D01*
X23798Y9345D01*
X23805Y9350D01*
X23816Y9345D01*
X23816Y9005D01*
X23805Y9000D01*
X23798Y9005D01*
X23774Y9015D01*
X23749Y9018D01*
X23724Y9015D01*
X23700Y9005D01*
X23680Y8990D01*
X23665Y8970D01*
X23659Y8954D01*
X23331D01*
X23325Y8970D01*
X23310Y8990D01*
X23290Y9005D01*
X23266Y9015D01*
X23241Y9018D01*
X23216Y9015D01*
X23192Y9005D01*
X23172Y8990D01*
X23157Y8970D01*
X23151Y8954D01*
X22370D01*
X22357Y8952D01*
X22346Y8945D01*
X20725Y7323D01*
X5469D01*
X5286Y7507D01*
Y7638D01*
X5283Y7650D01*
X5276Y7661D01*
X5242Y7696D01*
Y7758D01*
X5263D01*
Y7888D01*
X5233D01*
X5232Y7892D01*
X5234Y7895D01*
X5241Y7904D01*
X5251Y7906D01*
X5262Y7914D01*
X5274Y7906D01*
X5287Y7904D01*
X5301Y7906D01*
X5312Y7914D01*
X5324Y7906D01*
X5337Y7904D01*
X5351Y7906D01*
X5362Y7914D01*
X5374Y7906D01*
X5387Y7904D01*
X5401Y7906D01*
X5412Y7914D01*
X5424Y7906D01*
X5437Y7904D01*
X5451Y7906D01*
X5462Y7914D01*
X5474Y7906D01*
X5487Y7904D01*
X5501Y7906D01*
X5512Y7914D01*
X5524Y7906D01*
X5537Y7904D01*
X5551Y7906D01*
X5562Y7914D01*
X5574Y7906D01*
X5580Y7905D01*
X5589Y7893D01*
X5589Y7891D01*
X5588Y7888D01*
X5534D01*
Y7817D01*
X5530Y7810D01*
X5527Y7797D01*
Y7740D01*
X5507D01*
Y7500D01*
X5618D01*
Y7740D01*
X5598D01*
Y7758D01*
X5644D01*
Y7828D01*
X5662Y7846D01*
X5666Y7846D01*
X5684Y7828D01*
Y7758D01*
X5725D01*
X5729Y7755D01*
Y7740D01*
X5709D01*
Y7500D01*
X5820D01*
Y7740D01*
X5800D01*
Y7770D01*
X5797Y7783D01*
X5794Y7788D01*
Y7831D01*
X5806Y7836D01*
X5839Y7802D01*
Y7707D01*
X5861D01*
Y7647D01*
X5863Y7634D01*
X5870Y7623D01*
X5951Y7543D01*
X5945Y7530D01*
X5894D01*
X5880Y7527D01*
X5869Y7520D01*
X5802Y7453D01*
X5527D01*
X5395Y7584D01*
Y7758D01*
X5413D01*
Y7888D01*
X5303D01*
Y7758D01*
X5323D01*
Y7569D01*
X5326Y7555D01*
X5334Y7544D01*
X5486Y7391D01*
X5498Y7384D01*
X5512Y7381D01*
X5817D01*
X5830Y7384D01*
X5842Y7391D01*
X5909Y7458D01*
X5958D01*
X5961Y7451D01*
X5974Y7434D01*
X5992Y7420D01*
X6012Y7412D01*
X6034Y7409D01*
X6056Y7412D01*
X6076Y7420D01*
X6093Y7434D01*
X6107Y7451D01*
X6115Y7471D01*
X6118Y7493D01*
X6115Y7512D01*
X6706Y8103D01*
X6713Y8114D01*
X6716Y8128D01*
Y9169D01*
X6713Y9183D01*
X6706Y9195D01*
X6662Y9238D01*
X6667Y9250D01*
X9525D01*
X9525Y9250D01*
X9543Y9254D01*
X9558Y9264D01*
X9634Y9340D01*
X9649Y9343D01*
X9663Y9352D01*
X12717D01*
X12725Y9347D01*
X12747Y9342D01*
X12770Y9347D01*
X12778Y9352D01*
X15790D01*
X15798Y9347D01*
X15821Y9342D01*
X15843Y9347D01*
X15852Y9352D01*
X18912D01*
X18926Y9343D01*
X18948Y9339D01*
X18971Y9343D01*
X18990Y9356D01*
X19003Y9375D01*
X19008Y9398D01*
X19003Y9421D01*
X18990Y9440D01*
X18971Y9453D01*
X18948Y9457D01*
X18926Y9453D01*
X18912Y9444D01*
X15862D01*
X15843Y9456D01*
X15821Y9461D01*
X15798Y9456D01*
X15780Y9444D01*
X12788D01*
X12770Y9456D01*
X12747Y9461D01*
X12725Y9456D01*
X12706Y9444D01*
X9663D01*
X9649Y9453D01*
X9627Y9457D01*
X9604Y9453D01*
X9585Y9440D01*
X9572Y9421D01*
X9569Y9406D01*
X9506Y9343D01*
X6623D01*
X6613Y9356D01*
X6606Y9361D01*
Y9384D01*
X6619D01*
Y9514D01*
X6499D01*
Y9495D01*
X6142D01*
X6080Y9557D01*
X6073Y9562D01*
Y9599D01*
X6072Y9604D01*
X6082Y9616D01*
X6499D01*
Y9587D01*
X6619D01*
Y9717D01*
X6631Y9720D01*
X9254D01*
X9269Y9706D01*
X9266Y9699D01*
X9263Y9677D01*
X9266Y9656D01*
X9274Y9635D01*
X9288Y9618D01*
X9305Y9604D01*
X9325Y9596D01*
X9347Y9593D01*
X9369Y9596D01*
X9389Y9604D01*
X9407Y9618D01*
X9420Y9635D01*
X9429Y9656D01*
X9431Y9677D01*
X9429Y9699D01*
X9420Y9720D01*
X9407Y9737D01*
X9389Y9750D01*
X9372Y9758D01*
X9374Y9770D01*
X12277D01*
X12393Y9655D01*
X12390Y9648D01*
X12387Y9627D01*
X12390Y9605D01*
X12398Y9584D01*
X12412Y9567D01*
X12429Y9554D01*
X12450Y9545D01*
X12471Y9542D01*
X12493Y9545D01*
X12514Y9554D01*
X12531Y9567D01*
X12544Y9584D01*
X12553Y9605D01*
X12556Y9627D01*
X12553Y9648D01*
X12544Y9669D01*
X12531Y9686D01*
X12514Y9700D01*
X12493Y9708D01*
X12471Y9711D01*
X12450Y9708D01*
X12443Y9705D01*
X12340Y9809D01*
X12345Y9820D01*
X15326D01*
X15466Y9680D01*
X15463Y9674D01*
X15461Y9652D01*
X15463Y9630D01*
X15472Y9610D01*
X15485Y9592D01*
X15503Y9579D01*
X15523Y9571D01*
X15545Y9568D01*
X15567Y9571D01*
X15587Y9579D01*
X15604Y9592D01*
X15618Y9610D01*
X15626Y9630D01*
X15629Y9652D01*
X15626Y9674D01*
X15618Y9694D01*
X15604Y9712D01*
X15587Y9725D01*
X15567Y9733D01*
X15545Y9736D01*
X15523Y9733D01*
X15517Y9731D01*
X15389Y9859D01*
X15394Y9870D01*
X18426D01*
X18565Y9731D01*
X18562Y9725D01*
X18559Y9703D01*
X18562Y9681D01*
X18571Y9661D01*
X18584Y9643D01*
X18601Y9630D01*
X18622Y9621D01*
X18644Y9619D01*
X18665Y9621D01*
X18686Y9630D01*
X18703Y9643D01*
X18717Y9661D01*
X18725Y9681D01*
X18728Y9703D01*
X18725Y9725D01*
X18717Y9745D01*
X18703Y9762D01*
X18686Y9776D01*
X18665Y9784D01*
X18644Y9787D01*
X18622Y9784D01*
X18615Y9781D01*
X18466Y9931D01*
X18454Y9939D01*
X18440Y9942D01*
X5842D01*
X5828Y9939D01*
X5817Y9931D01*
X5662Y9776D01*
X5654Y9765D01*
X5652Y9751D01*
Y9645D01*
X5639Y9635D01*
X5637Y9635D01*
X5624Y9632D01*
X5612Y9625D01*
X5601Y9632D01*
X5587Y9635D01*
X5574Y9632D01*
X5562Y9625D01*
X5551Y9632D01*
X5537Y9635D01*
X5524Y9632D01*
X5512Y9625D01*
X5501Y9632D01*
X5487Y9635D01*
X5474Y9632D01*
X5462Y9625D01*
X5451Y9632D01*
X5437Y9635D01*
X5424Y9632D01*
X5412Y9625D01*
X5401Y9632D01*
X5387Y9635D01*
X5374Y9632D01*
X5362Y9625D01*
X5351Y9632D01*
X5337Y9635D01*
X5324Y9632D01*
X5312Y9625D01*
X5301Y9632D01*
X5287Y9635D01*
X5274Y9632D01*
X5262Y9625D01*
X5251Y9632D01*
X5237Y9635D01*
X5224Y9632D01*
X5212Y9625D01*
X5201Y9632D01*
X5187Y9635D01*
X5174Y9632D01*
X5162Y9625D01*
X5151Y9632D01*
X5137Y9635D01*
X5124Y9632D01*
X5112Y9624D01*
X5104Y9613D01*
X5102Y9599D01*
Y9449D01*
X5104Y9436D01*
X5112Y9424D01*
X5124Y9416D01*
X5137Y9414D01*
X5151Y9416D01*
X5162Y9424D01*
X5174Y9416D01*
X5187Y9414D01*
X5201Y9416D01*
X5212Y9424D01*
X5224Y9416D01*
X5237Y9414D01*
X5251Y9416D01*
X5262Y9424D01*
X5274Y9416D01*
X5287Y9414D01*
X5301Y9416D01*
X5312Y9424D01*
X5324Y9416D01*
X5337Y9414D01*
X5351Y9416D01*
X5362Y9424D01*
X5374Y9416D01*
X5387Y9414D01*
X5401Y9416D01*
X5412Y9424D01*
X5424Y9416D01*
X5437Y9414D01*
X5451Y9416D01*
X5462Y9424D01*
X5474Y9416D01*
X5487Y9414D01*
X5501Y9416D01*
X5512Y9424D01*
X5524Y9416D01*
X5537Y9414D01*
X5551Y9416D01*
X5562Y9424D01*
X5574Y9416D01*
X5587Y9414D01*
X5601Y9416D01*
X5612Y9424D01*
X5624Y9416D01*
X5637Y9414D01*
X5651Y9416D01*
X5662Y9424D01*
X5674Y9416D01*
X5687Y9414D01*
X5701Y9416D01*
X5712Y9424D01*
X5724Y9416D01*
X5737Y9414D01*
X5751Y9416D01*
X5762Y9424D01*
X5774Y9416D01*
X5787Y9414D01*
X5801Y9416D01*
X5812Y9424D01*
X5824Y9416D01*
X5837Y9414D01*
X5839Y9414D01*
X5852Y9403D01*
Y9175D01*
X5854Y9161D01*
X5862Y9150D01*
X5942Y9070D01*
X5942Y9068D01*
X5946Y9048D01*
X5957Y9030D01*
X5974Y9019D01*
X5994Y9015D01*
X6015Y9019D01*
X6032Y9030D01*
X6043Y9048D01*
X6047Y9068D01*
X6043Y9088D01*
X6032Y9105D01*
X6015Y9117D01*
X5994Y9121D01*
X5992Y9120D01*
X5923Y9190D01*
Y9403D01*
X5936Y9414D01*
X5937Y9414D01*
X5951Y9416D01*
X5962Y9424D01*
X5970Y9436D01*
X5973Y9449D01*
Y9524D01*
X5973Y9524D01*
Y9604D01*
X5982Y9613D01*
X5994Y9613D01*
X6002Y9603D01*
X6002Y9599D01*
Y9525D01*
X6001Y9524D01*
X6002Y9523D01*
Y9449D01*
X6004Y9436D01*
X6012Y9424D01*
X6024Y9416D01*
X6037Y9414D01*
X6051Y9416D01*
X6062Y9424D01*
X6063Y9425D01*
X6080Y9427D01*
X6090Y9416D01*
X6090Y9416D01*
X6096Y9412D01*
Y9397D01*
X6092Y9394D01*
X6084Y9383D01*
X6082Y9369D01*
X6082Y9368D01*
X6072Y9355D01*
X6059Y9356D01*
X6057Y9359D01*
X6040Y9371D01*
X6020Y9375D01*
X6000Y9371D01*
X5982Y9359D01*
X5971Y9342D01*
X5967Y9322D01*
X5971Y9302D01*
X5982Y9284D01*
X6000Y9273D01*
X6020Y9269D01*
X6027Y9270D01*
X6033Y9259D01*
X6022Y9247D01*
X6020Y9248D01*
X6000Y9244D01*
X5982Y9232D01*
X5971Y9215D01*
X5967Y9195D01*
X5971Y9175D01*
X5982Y9157D01*
X6000Y9146D01*
X6020Y9142D01*
X6040Y9146D01*
X6057Y9157D01*
X6069Y9175D01*
X6071Y9186D01*
X6084Y9187D01*
X6085Y9184D01*
X6084Y9183D01*
X6082Y9169D01*
X6084Y9156D01*
X6092Y9144D01*
X6084Y9133D01*
X6082Y9119D01*
X6084Y9106D01*
X6092Y9094D01*
X6084Y9083D01*
X6082Y9069D01*
X6084Y9056D01*
X6092Y9044D01*
X6084Y9033D01*
X6082Y9019D01*
X6084Y9006D01*
X6092Y8994D01*
X6084Y8983D01*
X6082Y8969D01*
X6084Y8956D01*
X6092Y8944D01*
X6084Y8933D01*
X6082Y8919D01*
X6084Y8906D01*
X6092Y8894D01*
X6104Y8886D01*
X6117Y8884D01*
X6267D01*
X6279Y8886D01*
X6336D01*
X6349Y8888D01*
X6360Y8896D01*
X6364Y8900D01*
X6442D01*
Y9020D01*
X6423D01*
Y9101D01*
X6537Y9214D01*
X6553Y9212D01*
X6575Y9215D01*
X6581Y9218D01*
X6644Y9155D01*
Y8143D01*
X6070Y7569D01*
X6056Y7575D01*
X6034Y7577D01*
X6013Y7575D01*
X5927Y7660D01*
Y7707D01*
X5949D01*
Y7804D01*
X5961Y7809D01*
X5989Y7780D01*
Y7707D01*
X6099D01*
Y7837D01*
X6026D01*
X5968Y7895D01*
X5971Y7900D01*
X5976Y7906D01*
X5987Y7904D01*
X6001Y7906D01*
X6012Y7914D01*
X6024Y7906D01*
X6037Y7904D01*
X6051Y7906D01*
X6062Y7914D01*
X6070Y7926D01*
X6073Y7939D01*
Y8089D01*
X6070Y8103D01*
X6062Y8114D01*
X6051Y8122D01*
X6037Y8125D01*
X6024Y8122D01*
X6012Y8115D01*
X6001Y8122D01*
X5987Y8125D01*
X5974Y8122D01*
X5962Y8115D01*
X5951Y8122D01*
X5937Y8125D01*
X5924Y8122D01*
X5912Y8115D01*
X5901Y8122D01*
X5887Y8125D01*
X5883Y8124D01*
X5871Y8134D01*
Y8188D01*
X5868Y8201D01*
X5861Y8212D01*
X5829Y8244D01*
X5834Y8255D01*
X6068D01*
X6082Y8258D01*
X6084Y8257D01*
X6084Y8256D01*
X6092Y8244D01*
X6084Y8233D01*
X6082Y8219D01*
X6084Y8206D01*
X6092Y8194D01*
X6084Y8183D01*
X6082Y8169D01*
X6084Y8156D01*
X6092Y8144D01*
X6104Y8136D01*
X6117Y8134D01*
X6267D01*
X6281Y8136D01*
X6292Y8144D01*
X6300Y8156D01*
X6303Y8169D01*
X6300Y8183D01*
X6293Y8194D01*
X6300Y8206D01*
X6303Y8219D01*
X6300Y8233D01*
X6293Y8244D01*
X6300Y8256D01*
X6303Y8269D01*
X6300Y8283D01*
X6293Y8294D01*
X6300Y8306D01*
X6303Y8319D01*
X6300Y8333D01*
X6293Y8344D01*
X6300Y8356D01*
X6303Y8369D01*
X6303Y8371D01*
X6313Y8384D01*
X6437D01*
X6450Y8386D01*
X6462Y8394D01*
X6523Y8455D01*
X6593D01*
Y8565D01*
X6463D01*
Y8496D01*
X6422Y8455D01*
X6313D01*
X6303Y8468D01*
X6303Y8469D01*
X6300Y8483D01*
X6293Y8494D01*
X6300Y8506D01*
X6303Y8519D01*
X6300Y8533D01*
X6293Y8544D01*
X6300Y8556D01*
X6303Y8569D01*
X6300Y8583D01*
X6293Y8594D01*
X6300Y8606D01*
X6303Y8619D01*
X6300Y8633D01*
X6293Y8644D01*
X6300Y8656D01*
X6303Y8669D01*
X6300Y8683D01*
X6293Y8694D01*
X6300Y8706D01*
X6303Y8719D01*
X6300Y8733D01*
X6293Y8744D01*
X6300Y8756D01*
X6303Y8769D01*
X6300Y8783D01*
X6293Y8794D01*
X6300Y8806D01*
X6303Y8819D01*
X6300Y8833D01*
X6292Y8844D01*
X6281Y8852D01*
X6267Y8855D01*
X6117D01*
X6104Y8852D01*
X6092Y8844D01*
X6084Y8833D01*
X6082Y8819D01*
X6084Y8806D01*
X6092Y8794D01*
X6084Y8783D01*
X6082Y8769D01*
X6084Y8756D01*
X6092Y8744D01*
X6084Y8733D01*
X6082Y8719D01*
X6084Y8706D01*
X6092Y8694D01*
X6084Y8683D01*
X6082Y8669D01*
X6084Y8656D01*
X6092Y8644D01*
X6084Y8633D01*
X6082Y8619D01*
X6084Y8606D01*
X6092Y8594D01*
X6084Y8583D01*
X6082Y8569D01*
X6084Y8556D01*
X6092Y8544D01*
X6084Y8533D01*
X6082Y8519D01*
X6084Y8506D01*
X6092Y8494D01*
X6084Y8483D01*
X6082Y8469D01*
X6082Y8468D01*
X6071Y8455D01*
X5050D01*
X5022Y8483D01*
X5010Y8491D01*
X4996Y8494D01*
X4966D01*
X4965Y8496D01*
X4948Y8507D01*
X4928Y8511D01*
X4907Y8507D01*
X4890Y8496D01*
X4879Y8478D01*
X4875Y8458D01*
X4879Y8438D01*
X4890Y8421D01*
X4907Y8409D01*
X4928Y8405D01*
X4939Y8408D01*
X4947Y8396D01*
X4942Y8389D01*
X4938Y8369D01*
X4942Y8349D01*
X4949Y8339D01*
X4942Y8327D01*
X4926D01*
X4925Y8328D01*
X4908Y8340D01*
X4887Y8344D01*
X4867Y8340D01*
X4850Y8328D01*
X4839Y8311D01*
X4835Y8291D01*
X4839Y8271D01*
X4850Y8254D01*
X4861Y8246D01*
X4864Y8231D01*
X4805Y8172D01*
X4792Y8176D01*
X4790Y8183D01*
X4783Y8194D01*
X4790Y8206D01*
X4793Y8219D01*
X4790Y8233D01*
X4783Y8244D01*
X4790Y8256D01*
X4793Y8269D01*
X4790Y8283D01*
X4783Y8294D01*
X4790Y8306D01*
X4793Y8319D01*
X4790Y8333D01*
X4783Y8344D01*
X4790Y8356D01*
X4793Y8369D01*
X4790Y8383D01*
X4783Y8394D01*
X4790Y8406D01*
X4793Y8419D01*
X4790Y8433D01*
X4783Y8444D01*
X4790Y8456D01*
X4793Y8469D01*
X4790Y8483D01*
X4783Y8494D01*
X4790Y8506D01*
X4793Y8519D01*
X4790Y8533D01*
X4783Y8544D01*
X4790Y8556D01*
X4793Y8569D01*
X4790Y8583D01*
X4783Y8594D01*
X4790Y8606D01*
X4793Y8619D01*
X4790Y8633D01*
X4783Y8644D01*
X4790Y8656D01*
X4793Y8669D01*
X4790Y8683D01*
X4782Y8694D01*
X4771Y8702D01*
X4757Y8705D01*
X4607D01*
X4594Y8702D01*
X4591Y8700D01*
X4587D01*
X4575Y8698D01*
X4564Y8690D01*
X4546Y8672D01*
X4535Y8677D01*
Y8677D01*
X4405D01*
Y8669D01*
X4393Y8665D01*
X4384Y8676D01*
X4366Y8690D01*
X4346Y8698D01*
X4324Y8701D01*
X4302Y8698D01*
X4282Y8690D01*
X4265Y8676D01*
X4251Y8659D01*
X4243Y8639D01*
X4240Y8617D01*
X4243Y8595D01*
X4251Y8575D01*
X4265Y8557D01*
X4282Y8544D01*
X4302Y8535D01*
X4324Y8533D01*
X4346Y8535D01*
X4366Y8544D01*
X4384Y8557D01*
X4393Y8569D01*
X4405Y8565D01*
Y8557D01*
X4535D01*
Y8583D01*
X4537D01*
X4550Y8586D01*
X4557Y8591D01*
X4569Y8589D01*
X4573Y8587D01*
X4574Y8583D01*
X4574Y8583D01*
X4572Y8569D01*
X4574Y8556D01*
X4582Y8544D01*
X4574Y8533D01*
X4572Y8519D01*
X4574Y8506D01*
X4582Y8494D01*
X4574Y8483D01*
X4572Y8469D01*
X4574Y8456D01*
X4582Y8444D01*
X4574Y8433D01*
X4572Y8419D01*
X4574Y8406D01*
X4582Y8394D01*
X4574Y8383D01*
X4572Y8369D01*
X4574Y8356D01*
X4582Y8344D01*
X4574Y8333D01*
X4572Y8319D01*
X4574Y8306D01*
X4582Y8294D01*
X4574Y8283D01*
X4572Y8269D01*
X4574Y8256D01*
X4582Y8244D01*
X4574Y8233D01*
X4572Y8219D01*
X4574Y8206D01*
X4582Y8194D01*
X4574Y8183D01*
X4572Y8169D01*
X4574Y8156D01*
X4582Y8144D01*
X4594Y8136D01*
X4607Y8134D01*
X4749D01*
X4754Y8121D01*
X4329Y7691D01*
X4325Y7692D01*
X4304Y7688D01*
X4287Y7676D01*
X4276Y7659D01*
X4272Y7639D01*
X4276Y7619D01*
X4287Y7602D01*
X4294Y7597D01*
X4287Y7586D01*
X4267Y7590D01*
X4247Y7586D01*
X4239Y7581D01*
X4227Y7588D01*
Y9155D01*
X4306Y9234D01*
X4403D01*
X4410Y9221D01*
X4408Y9217D01*
X4398Y9215D01*
X4381Y9204D01*
X4370Y9187D01*
X4366Y9166D01*
X4370Y9146D01*
X4373Y9142D01*
X4366Y9129D01*
X4331D01*
X4330Y9131D01*
X4313Y9142D01*
X4293Y9146D01*
X4272Y9142D01*
X4255Y9131D01*
X4244Y9113D01*
X4240Y9093D01*
X4244Y9073D01*
X4255Y9056D01*
X4272Y9044D01*
X4293Y9040D01*
X4313Y9044D01*
X4330Y9056D01*
X4331Y9058D01*
X4445D01*
X4459Y9060D01*
X4470Y9068D01*
X4536Y9134D01*
X4561D01*
X4572Y9121D01*
X4572Y9119D01*
X4574Y9106D01*
X4582Y9094D01*
X4574Y9083D01*
X4572Y9069D01*
X4574Y9056D01*
X4582Y9044D01*
X4574Y9033D01*
X4572Y9019D01*
X4574Y9006D01*
X4582Y8994D01*
X4574Y8983D01*
X4572Y8969D01*
X4574Y8956D01*
X4582Y8944D01*
X4574Y8933D01*
X4572Y8919D01*
X4574Y8906D01*
X4582Y8894D01*
X4574Y8883D01*
X4572Y8869D01*
X4574Y8856D01*
X4582Y8844D01*
X4574Y8833D01*
X4572Y8819D01*
X4574Y8806D01*
X4582Y8794D01*
X4574Y8783D01*
X4572Y8769D01*
X4574Y8756D01*
X4582Y8744D01*
X4594Y8736D01*
X4607Y8734D01*
X4757D01*
X4771Y8736D01*
X4782Y8744D01*
X4790Y8756D01*
X4793Y8769D01*
X4790Y8783D01*
X4783Y8794D01*
X4790Y8806D01*
X4793Y8819D01*
X4790Y8833D01*
X4783Y8844D01*
X4790Y8856D01*
X4793Y8869D01*
X4790Y8883D01*
X4783Y8894D01*
X4790Y8906D01*
X4793Y8919D01*
X4790Y8933D01*
X4783Y8944D01*
X4790Y8956D01*
X4793Y8969D01*
X4790Y8983D01*
X4783Y8994D01*
X4790Y9006D01*
X4793Y9019D01*
X4790Y9033D01*
X4783Y9044D01*
X4790Y9056D01*
X4793Y9069D01*
X4790Y9083D01*
X4783Y9094D01*
X4790Y9106D01*
X4793Y9119D01*
X4790Y9133D01*
X4783Y9144D01*
X4790Y9156D01*
X4793Y9169D01*
X4790Y9183D01*
X4783Y9194D01*
X4790Y9206D01*
X4793Y9219D01*
X4790Y9233D01*
X4783Y9244D01*
X4790Y9256D01*
X4793Y9269D01*
X4790Y9283D01*
X4783Y9294D01*
X4790Y9306D01*
X4793Y9319D01*
X4790Y9333D01*
X4783Y9344D01*
X4790Y9356D01*
X4793Y9369D01*
X4790Y9383D01*
X4782Y9394D01*
X4771Y9402D01*
X4757Y9405D01*
X4270D01*
X4266Y9417D01*
X4337Y9489D01*
X4802D01*
Y9449D01*
X4804Y9436D01*
X4812Y9424D01*
X4824Y9416D01*
X4837Y9414D01*
X4843Y9415D01*
X4856Y9406D01*
Y9397D01*
X4859Y9385D01*
X4866Y9374D01*
X5500Y8739D01*
X5511Y8732D01*
X5524Y8730D01*
X5726D01*
X5728Y8726D01*
X5746Y8714D01*
X5766Y8710D01*
X5786Y8714D01*
X5803Y8726D01*
X5815Y8743D01*
X5819Y8763D01*
X5815Y8781D01*
X5818Y8790D01*
X5820Y8793D01*
X5832Y8794D01*
X5836Y8792D01*
X5856Y8788D01*
X5876Y8792D01*
X5893Y8803D01*
X5905Y8820D01*
X5909Y8840D01*
X5905Y8861D01*
X5893Y8878D01*
X5876Y8889D01*
X5856Y8893D01*
X5836Y8889D01*
X5819Y8878D01*
X5807Y8861D01*
X5537D01*
X4996Y9402D01*
X5000Y9416D01*
X5001Y9416D01*
X5012Y9424D01*
X5024Y9416D01*
X5037Y9414D01*
X5051Y9416D01*
X5062Y9424D01*
X5070Y9436D01*
X5073Y9449D01*
Y9599D01*
X5071Y9611D01*
Y9638D01*
X5083D01*
Y9692D01*
X5128Y9737D01*
X5135Y9748D01*
X5138Y9761D01*
Y9765D01*
X5159D01*
Y9819D01*
X5403Y10063D01*
X5848D01*
X5859Y10050D01*
X5876Y10036D01*
X5896Y10028D01*
X5918Y10025D01*
X5940Y10028D01*
X5960Y10036D01*
X5978Y10050D01*
X5991Y10067D01*
X6000Y10087D01*
X6002Y10109D01*
X6000Y10131D01*
X5991Y10151D01*
X5978Y10169D01*
X5971Y10174D01*
Y10211D01*
X5967Y10231D01*
X5960Y10242D01*
X5967Y10254D01*
X6009D01*
Y10369D01*
X6016Y10379D01*
X6028Y10408D01*
X6032Y10439D01*
X6028Y10471D01*
X6016Y10500D01*
X6009Y10509D01*
Y10624D01*
X5814D01*
Y10560D01*
X5538D01*
Y10568D01*
X5526D01*
Y10586D01*
X5523Y10607D01*
X5515Y10628D01*
X5501Y10645D01*
X5394Y10753D01*
X5376Y10766D01*
X5356Y10775D01*
X5334Y10778D01*
X4267D01*
X4245Y10775D01*
X4225Y10766D01*
X4208Y10753D01*
X3598Y10143D01*
X3585Y10126D01*
X3576Y10106D01*
X3573Y10084D01*
Y6084D01*
Y6026D01*
X3566D01*
Y5684D01*
X3749D01*
Y5770D01*
X4036D01*
Y5712D01*
X4050D01*
Y5598D01*
X4180D01*
Y5712D01*
X4226D01*
Y5916D01*
X4261D01*
Y5727D01*
X4263Y5719D01*
X4266Y5713D01*
Y5712D01*
X4268D01*
X4274Y5708D01*
X4281Y5706D01*
X4434D01*
X4434Y5706D01*
X4442Y5708D01*
X4447Y5712D01*
X4456D01*
Y5721D01*
X4459Y5724D01*
X4464Y5730D01*
X4465Y5738D01*
X4465Y5916D01*
X4496D01*
X4504Y5918D01*
X4511Y5922D01*
X4515Y5929D01*
X4516Y5931D01*
X4667D01*
X4668Y5929D01*
X4672Y5922D01*
X4679Y5918D01*
X4686Y5916D01*
X4989D01*
X4997Y5918D01*
X5003Y5922D01*
X5008Y5929D01*
X5008Y5931D01*
X5152D01*
X5152Y5929D01*
X5157Y5922D01*
X5163Y5918D01*
X5171Y5916D01*
X5334D01*
X5342Y5918D01*
X5348Y5922D01*
X5353Y5929D01*
X5354Y5937D01*
Y6096D01*
D01*
X5354Y6604D01*
X5353Y6612D01*
X5348Y6618D01*
X5342Y6623D01*
X5334Y6624D01*
X4039D01*
X4031Y6623D01*
X4024Y6618D01*
X4017Y6611D01*
X4013Y6605D01*
X4011Y6597D01*
Y6084D01*
Y5962D01*
X4011Y5962D01*
X4011Y5961D01*
X4012Y5958D01*
X4013Y5955D01*
X4013Y5954D01*
X4013Y5954D01*
X4014Y5952D01*
X4006Y5939D01*
X3749D01*
Y6026D01*
X3742D01*
Y6084D01*
Y10049D01*
X4302Y10609D01*
X5299D01*
X5346Y10562D01*
Y10511D01*
X5337Y10500D01*
X5325Y10471D01*
X5321Y10439D01*
X5325Y10408D01*
X5337Y10379D01*
X5346Y10367D01*
Y10310D01*
X5538D01*
Y10318D01*
X5814D01*
Y10254D01*
X5870D01*
X5877Y10242D01*
X5869Y10231D01*
X5865Y10211D01*
Y10174D01*
X5859Y10169D01*
X5848Y10155D01*
X5384D01*
X5384Y10155D01*
X5366Y10152D01*
X5351Y10142D01*
X5104Y9895D01*
X5049D01*
Y9768D01*
X5009D01*
Y9895D01*
X4899D01*
Y9768D01*
X4823D01*
Y9638D01*
X4817Y9628D01*
X4812Y9624D01*
X4804Y9613D01*
X4802Y9599D01*
Y9560D01*
X4323D01*
X4309Y9557D01*
X4297Y9549D01*
X4013Y9265D01*
X4006Y9254D01*
X4003Y9240D01*
Y7485D01*
X4004Y7481D01*
Y7364D01*
X4006Y7351D01*
X4014Y7339D01*
X4368Y6985D01*
X4380Y6977D01*
X4393Y6975D01*
X5094D01*
X5247Y6821D01*
X5258Y6814D01*
X5272Y6811D01*
X20922D01*
X20936Y6814D01*
X20947Y6821D01*
X21100Y6975D01*
X21261D01*
X21596Y6640D01*
X21607Y6633D01*
X21621Y6630D01*
X23038D01*
X23170Y6499D01*
X23181Y6491D01*
X23195Y6488D01*
X23220D01*
X23221Y6475D01*
X23216Y6475D01*
X23192Y6465D01*
X23172Y6450D01*
X23157Y6430D01*
X23147Y6406D01*
X23144Y6381D01*
X23147Y6356D01*
X23157Y6332D01*
X23172Y6312D01*
X23192Y6297D01*
X23216Y6287D01*
X23241Y6284D01*
X23266Y6287D01*
X23290Y6297D01*
X23310Y6312D01*
X23325Y6332D01*
X23335Y6356D01*
X23338Y6381D01*
X23335Y6406D01*
X23325Y6430D01*
X23310Y6450D01*
X23290Y6465D01*
X23266Y6475D01*
X23261Y6475D01*
X23262Y6488D01*
X23287D01*
X23301Y6491D01*
X23312Y6499D01*
X23377Y6564D01*
X23385Y6575D01*
X23388Y6589D01*
Y6731D01*
X23711Y7055D01*
X23724Y7049D01*
X23749Y7046D01*
X23774Y7049D01*
X23798Y7059D01*
X23805Y7064D01*
X23816Y7059D01*
X23816Y6084D01*
X23339D01*
X23332Y6095D01*
X23335Y6102D01*
X23338Y6127D01*
X23335Y6152D01*
X23325Y6176D01*
X23310Y6196D01*
X23290Y6211D01*
X23266Y6221D01*
X23241Y6224D01*
X23216Y6221D01*
X23192Y6211D01*
X23172Y6196D01*
X23157Y6176D01*
X23147Y6152D01*
X23144Y6127D01*
X23147Y6102D01*
X23150Y6095D01*
X23143Y6084D01*
X6541D01*
X5588Y5131D01*
X2311Y5131D01*
Y6083D01*
X2312Y6084D01*
X2308D01*
Y7191D01*
X2386D01*
X2436Y7240D01*
Y7339D01*
X2386Y7389D01*
X2308D01*
Y7445D01*
X2386D01*
X2436Y7494D01*
Y7593D01*
X2386Y7643D01*
X2308D01*
Y7699D01*
X2385D01*
X2425Y7659D01*
X2437Y7651D01*
X2451Y7648D01*
X2529D01*
X2535Y7636D01*
X2492Y7593D01*
Y7494D01*
X2541Y7445D01*
X2640D01*
X2690Y7494D01*
Y7593D01*
X2647Y7636D01*
X2651Y7650D01*
X2658Y7651D01*
X2670Y7659D01*
X2722Y7711D01*
X2791D01*
Y7682D01*
X2805D01*
Y6721D01*
X2793Y6716D01*
X2772Y6701D01*
X2757Y6681D01*
X2747Y6657D01*
X2744Y6632D01*
X2747Y6607D01*
X2757Y6583D01*
X2772Y6563D01*
X2793Y6548D01*
X2805Y6543D01*
Y6271D01*
X2793Y6266D01*
X2772Y6251D01*
X2757Y6231D01*
X2747Y6207D01*
X2744Y6182D01*
X2747Y6157D01*
X2757Y6133D01*
X2772Y6113D01*
X2793Y6098D01*
X2796Y6097D01*
X2795Y6096D01*
X2797D01*
X2816Y6088D01*
X2841Y6085D01*
X2866Y6088D01*
X2885Y6096D01*
X2887D01*
X2887Y6097D01*
X2890Y6098D01*
X2910Y6113D01*
X2925Y6133D01*
X2935Y6157D01*
X2938Y6182D01*
X2935Y6207D01*
X2925Y6231D01*
X2910Y6251D01*
X2890Y6266D01*
X2877Y6271D01*
Y6543D01*
X2890Y6548D01*
X2910Y6563D01*
X2925Y6583D01*
X2935Y6607D01*
X2938Y6632D01*
X2935Y6657D01*
X2925Y6681D01*
X2910Y6701D01*
X2890Y6716D01*
X2877Y6721D01*
Y7648D01*
X2889Y7652D01*
X2926Y7615D01*
X2936Y7608D01*
X2949Y7606D01*
X3218D01*
X3220Y7602D01*
X3238Y7590D01*
X3258Y7586D01*
X3278Y7590D01*
X3295Y7602D01*
X3306Y7619D01*
X3310Y7639D01*
X3306Y7659D01*
X3295Y7676D01*
X3278Y7688D01*
X3258Y7692D01*
X3238Y7688D01*
X3220Y7676D01*
X3218Y7672D01*
X2963D01*
X2911Y7724D01*
Y7812D01*
X2791D01*
Y7783D01*
X2708D01*
X2694Y7780D01*
X2682Y7772D01*
X2630Y7720D01*
X2465D01*
X2436Y7750D01*
Y7847D01*
X2386Y7897D01*
X2308D01*
X2308Y10935D01*
X23816D01*
X23816Y10021D01*
D02*
G37*
G36*
X6499Y9717D02*
Y9688D01*
X5969D01*
X5956Y9685D01*
X5944Y9677D01*
X5912Y9645D01*
X5910Y9642D01*
X5901Y9632D01*
X5887Y9635D01*
X5877Y9643D01*
X5877Y9656D01*
X5941Y9720D01*
X6488D01*
X6499Y9717D01*
D02*
G37*
G36*
Y9384D02*
X6513D01*
Y9370D01*
X6511Y9369D01*
X6494Y9356D01*
X6480Y9339D01*
X6472Y9318D01*
X6469Y9296D01*
X6471Y9280D01*
X6344Y9153D01*
X6334Y9138D01*
X6331Y9120D01*
X6331Y9120D01*
Y9020D01*
X6312D01*
X6302Y9026D01*
X6300Y9033D01*
X6293Y9044D01*
X6300Y9056D01*
X6303Y9069D01*
X6300Y9083D01*
X6293Y9094D01*
X6300Y9106D01*
X6303Y9119D01*
X6300Y9133D01*
X6293Y9144D01*
X6300Y9156D01*
X6303Y9169D01*
X6300Y9183D01*
X6293Y9194D01*
X6300Y9206D01*
X6303Y9219D01*
X6300Y9233D01*
X6293Y9244D01*
X6300Y9256D01*
X6303Y9269D01*
X6300Y9283D01*
X6293Y9294D01*
X6300Y9306D01*
X6303Y9319D01*
X6300Y9333D01*
X6293Y9344D01*
X6300Y9356D01*
X6303Y9369D01*
X6300Y9383D01*
X6296Y9390D01*
X6301Y9403D01*
X6499D01*
Y9384D01*
D02*
G37*
G36*
X23816Y7821D02*
X23816Y7735D01*
X23805Y7730D01*
X23798Y7735D01*
X23774Y7745D01*
X23749Y7748D01*
X23724Y7745D01*
X23700Y7735D01*
X23680Y7720D01*
X23665Y7700D01*
X23655Y7676D01*
X23652Y7651D01*
X23655Y7626D01*
X23661Y7613D01*
X23571Y7524D01*
X23569Y7520D01*
X23556Y7524D01*
Y7662D01*
X23711Y7817D01*
X23724Y7811D01*
X23749Y7808D01*
X23774Y7811D01*
X23798Y7821D01*
X23805Y7826D01*
X23816Y7821D01*
D02*
G37*
%LPC*%
G36*
X2769Y9829D02*
X2742Y9826D01*
X2718Y9816D01*
X2697Y9800D01*
X2681Y9779D01*
X2671Y9754D01*
X2668Y9728D01*
X2671Y9702D01*
X2681Y9678D01*
X2697Y9657D01*
X2718Y9641D01*
X2742Y9631D01*
X2769Y9627D01*
X2795Y9631D01*
X2819Y9641D01*
X2840Y9657D01*
X2856Y9678D01*
X2866Y9702D01*
X2869Y9728D01*
X2866Y9754D01*
X2856Y9779D01*
X2840Y9800D01*
X2819Y9816D01*
X2795Y9826D01*
X2769Y9829D01*
D02*
G37*
G36*
Y8280D02*
X2742Y8276D01*
X2718Y8266D01*
X2697Y8250D01*
X2681Y8229D01*
X2671Y8205D01*
X2668Y8179D01*
X2671Y8153D01*
X2681Y8128D01*
X2697Y8107D01*
X2718Y8091D01*
X2742Y8081D01*
X2769Y8078D01*
X2795Y8081D01*
X2819Y8091D01*
X2840Y8107D01*
X2856Y8128D01*
X2866Y8153D01*
X2869Y8179D01*
X2866Y8205D01*
X2856Y8229D01*
X2840Y8250D01*
X2819Y8266D01*
X2795Y8276D01*
X2769Y8280D01*
D02*
G37*
G36*
Y9194D02*
X2742Y9191D01*
X2718Y9181D01*
X2697Y9165D01*
X2681Y9144D01*
X2671Y9119D01*
X2668Y9093D01*
X2671Y9067D01*
X2681Y9043D01*
X2697Y9022D01*
X2718Y9006D01*
X2742Y8996D01*
X2769Y8992D01*
X2795Y8996D01*
X2819Y9006D01*
X2840Y9022D01*
X2856Y9043D01*
X2866Y9067D01*
X2869Y9093D01*
X2866Y9119D01*
X2856Y9144D01*
X2840Y9165D01*
X2819Y9181D01*
X2795Y9191D01*
X2769Y9194D01*
D02*
G37*
G36*
X23241Y8002D02*
X23216Y7999D01*
X23192Y7989D01*
X23172Y7974D01*
X23157Y7954D01*
X23147Y7930D01*
X23144Y7905D01*
X23147Y7880D01*
X23157Y7856D01*
X23172Y7836D01*
X23192Y7821D01*
X23216Y7811D01*
X23241Y7808D01*
X23266Y7811D01*
X23290Y7821D01*
X23310Y7836D01*
X23325Y7856D01*
X23335Y7880D01*
X23338Y7905D01*
X23335Y7930D01*
X23325Y7954D01*
X23310Y7974D01*
X23290Y7989D01*
X23266Y7999D01*
X23241Y8002D01*
D02*
G37*
G36*
Y10034D02*
X23216Y10031D01*
X23192Y10021D01*
X23172Y10006D01*
X23157Y9986D01*
X23147Y9962D01*
X23144Y9937D01*
X23147Y9912D01*
X23157Y9888D01*
X23172Y9868D01*
X23192Y9853D01*
X23216Y9843D01*
X23241Y9840D01*
X23266Y9843D01*
X23290Y9853D01*
X23310Y9868D01*
X23325Y9888D01*
X23335Y9912D01*
X23338Y9937D01*
X23335Y9962D01*
X23325Y9986D01*
X23310Y10006D01*
X23290Y10021D01*
X23266Y10031D01*
X23241Y10034D01*
D02*
G37*
G36*
X2557Y10595D02*
X2528Y10592D01*
X2499Y10584D01*
X2473Y10570D01*
X2450Y10551D01*
X2432Y10528D01*
X2418Y10502D01*
X2409Y10474D01*
X2406Y10444D01*
X2409Y10415D01*
X2418Y10387D01*
X2432Y10361D01*
X2450Y10338D01*
X2473Y10319D01*
X2499Y10305D01*
X2528Y10297D01*
X2557Y10294D01*
X2586Y10297D01*
X2615Y10305D01*
X2641Y10319D01*
X2664Y10338D01*
X2682Y10361D01*
X2696Y10387D01*
X2705Y10415D01*
X2708Y10444D01*
X2705Y10474D01*
X2696Y10502D01*
X2682Y10528D01*
X2664Y10551D01*
X2641Y10570D01*
X2615Y10584D01*
X2586Y10592D01*
X2557Y10595D01*
D02*
G37*
G36*
X2769Y8534D02*
X2742Y8530D01*
X2718Y8520D01*
X2697Y8504D01*
X2681Y8483D01*
X2671Y8459D01*
X2668Y8433D01*
X2671Y8407D01*
X2681Y8382D01*
X2697Y8361D01*
X2718Y8345D01*
X2742Y8335D01*
X2769Y8332D01*
X2795Y8335D01*
X2819Y8345D01*
X2840Y8361D01*
X2856Y8382D01*
X2866Y8407D01*
X2869Y8433D01*
X2866Y8459D01*
X2856Y8483D01*
X2840Y8504D01*
X2819Y8520D01*
X2795Y8530D01*
X2769Y8534D01*
D02*
G37*
G36*
X6807Y8892D02*
X6787Y8888D01*
X6770Y8877D01*
X6758Y8859D01*
X6754Y8839D01*
X6758Y8819D01*
X6770Y8802D01*
X6787Y8790D01*
X6807Y8786D01*
X6816Y8788D01*
X6827Y8777D01*
X6825Y8768D01*
X6829Y8748D01*
X6841Y8731D01*
X6858Y8720D01*
X6878Y8716D01*
X6898Y8720D01*
X6915Y8731D01*
X6918Y8735D01*
X9074D01*
X9396Y8413D01*
X9393Y8404D01*
X9390Y8382D01*
X9393Y8360D01*
X9401Y8340D01*
X9415Y8322D01*
X9432Y8309D01*
X9452Y8301D01*
X9474Y8298D01*
X9496Y8301D01*
X9516Y8309D01*
X9534Y8322D01*
X9547Y8340D01*
X9556Y8360D01*
X9558Y8382D01*
X9556Y8404D01*
X9547Y8424D01*
X9534Y8442D01*
X9516Y8455D01*
X9496Y8463D01*
X9474Y8466D01*
X9452Y8463D01*
X9444Y8460D01*
X9180Y8723D01*
X9185Y8735D01*
X12224D01*
X12521Y8438D01*
X12517Y8429D01*
X12514Y8407D01*
X12517Y8386D01*
X12525Y8365D01*
X12539Y8348D01*
X12556Y8334D01*
X12577Y8326D01*
X12598Y8323D01*
X12620Y8326D01*
X12641Y8334D01*
X12658Y8348D01*
X12671Y8365D01*
X12680Y8386D01*
X12683Y8407D01*
X12680Y8429D01*
X12671Y8450D01*
X12658Y8467D01*
X12641Y8480D01*
X12620Y8489D01*
X12598Y8492D01*
X12577Y8489D01*
X12568Y8485D01*
X12261Y8792D01*
X12259Y8793D01*
X12263Y8806D01*
X15226D01*
X15594Y8438D01*
X15590Y8429D01*
X15588Y8407D01*
X15590Y8386D01*
X15599Y8365D01*
X15612Y8348D01*
X15630Y8334D01*
X15650Y8326D01*
X15672Y8323D01*
X15694Y8326D01*
X15714Y8334D01*
X15731Y8348D01*
X15745Y8365D01*
X15753Y8386D01*
X15756Y8407D01*
X15753Y8429D01*
X15745Y8450D01*
X15731Y8467D01*
X15714Y8480D01*
X15694Y8489D01*
X15672Y8492D01*
X15650Y8489D01*
X15641Y8485D01*
X15345Y8781D01*
X15350Y8793D01*
X18363D01*
X18718Y8438D01*
X18715Y8429D01*
X18712Y8407D01*
X18715Y8386D01*
X18723Y8365D01*
X18736Y8348D01*
X18754Y8334D01*
X18774Y8326D01*
X18796Y8323D01*
X18818Y8326D01*
X18838Y8334D01*
X18856Y8348D01*
X18869Y8365D01*
X18877Y8386D01*
X18880Y8407D01*
X18877Y8429D01*
X18869Y8450D01*
X18856Y8467D01*
X18838Y8480D01*
X18818Y8489D01*
X18796Y8492D01*
X18774Y8489D01*
X18765Y8485D01*
X18400Y8850D01*
X18390Y8857D01*
X18377Y8860D01*
X15267D01*
X15264Y8863D01*
X15253Y8870D01*
X15240Y8873D01*
X6847D01*
X6845Y8877D01*
X6827Y8888D01*
X6807Y8892D01*
D02*
G37*
G36*
X22112Y8117D02*
X22090Y8114D01*
X22070Y8106D01*
X22052Y8092D01*
X22039Y8075D01*
X22031Y8055D01*
X22028Y8033D01*
X22031Y8011D01*
X22039Y7991D01*
X22052Y7973D01*
X22066Y7963D01*
Y7868D01*
X22070Y7850D01*
X22080Y7835D01*
X22205Y7710D01*
Y7123D01*
X22121Y7040D01*
X22104Y7042D01*
X22082Y7039D01*
X22062Y7031D01*
X22044Y7017D01*
X22031Y7000D01*
X22023Y6980D01*
X22020Y6958D01*
X22023Y6936D01*
X22031Y6916D01*
X22044Y6898D01*
X22062Y6885D01*
X22082Y6876D01*
X22104Y6874D01*
X22126Y6876D01*
X22146Y6885D01*
X22163Y6898D01*
X22177Y6916D01*
X22185Y6936D01*
X22188Y6958D01*
X22186Y6975D01*
X22283Y7072D01*
X22293Y7087D01*
X22296Y7104D01*
Y7729D01*
X22293Y7747D01*
X22283Y7762D01*
X22158Y7887D01*
Y7963D01*
X22172Y7973D01*
X22185Y7991D01*
X22193Y8011D01*
X22196Y8033D01*
X22193Y8055D01*
X22185Y8075D01*
X22172Y8092D01*
X22154Y8106D01*
X22134Y8114D01*
X22112Y8117D01*
D02*
G37*
G36*
X2640Y7389D02*
X2541D01*
X2492Y7339D01*
Y7240D01*
X2541Y7191D01*
X2640D01*
X2690Y7240D01*
Y7339D01*
X2640Y7389D01*
D02*
G37*
G36*
X23241Y7748D02*
X23216Y7745D01*
X23192Y7735D01*
X23172Y7720D01*
X23157Y7700D01*
X23147Y7676D01*
X23144Y7651D01*
X23147Y7626D01*
X23157Y7602D01*
X23172Y7582D01*
X23192Y7567D01*
X23216Y7557D01*
X23241Y7554D01*
X23266Y7557D01*
X23290Y7567D01*
X23310Y7582D01*
X23325Y7602D01*
X23335Y7626D01*
X23338Y7651D01*
X23335Y7676D01*
X23325Y7700D01*
X23310Y7720D01*
X23290Y7735D01*
X23266Y7745D01*
X23241Y7748D01*
D02*
G37*
G36*
X2769Y8940D02*
X2742Y8937D01*
X2718Y8927D01*
X2697Y8911D01*
X2681Y8890D01*
X2671Y8865D01*
X2668Y8839D01*
X2671Y8813D01*
X2681Y8789D01*
X2697Y8768D01*
X2718Y8752D01*
X2742Y8742D01*
X2769Y8738D01*
X2795Y8742D01*
X2819Y8752D01*
X2840Y8768D01*
X2856Y8789D01*
X2866Y8813D01*
X2869Y8839D01*
X2866Y8865D01*
X2856Y8890D01*
X2840Y8911D01*
X2819Y8927D01*
X2795Y8937D01*
X2769Y8940D01*
D02*
G37*
G36*
X6609Y8866D02*
X6447D01*
Y8704D01*
X6463D01*
Y8605D01*
X6593D01*
Y8704D01*
X6609D01*
Y8866D01*
D02*
G37*
%LPD*%
D10*
X19735Y1727D02*
D03*
X19585D02*
D03*
X19735Y3251D02*
D03*
X19585D02*
D03*
X5894Y7772D02*
D03*
X6044D02*
D03*
X5589Y7823D02*
D03*
X5739D02*
D03*
X5028Y9703D02*
D03*
X4878D02*
D03*
X5104Y9830D02*
D03*
X4954D02*
D03*
X5208Y7823D02*
D03*
X5358D02*
D03*
D11*
X19364Y2159D02*
D03*
X19854D02*
D03*
X19364Y2819D02*
D03*
X19854D02*
D03*
D12*
X20954Y1964D02*
D03*
Y1694D02*
D03*
X20650Y1964D02*
D03*
Y1694D02*
D03*
X20345Y1964D02*
D03*
Y1694D02*
D03*
X18821Y1913D02*
D03*
Y1643D02*
D03*
X20320Y3335D02*
D03*
Y3065D02*
D03*
X20930Y3335D02*
D03*
Y3065D02*
D03*
X20625Y3335D02*
D03*
Y3065D02*
D03*
X18821Y3361D02*
D03*
Y3091D02*
D03*
D13*
X18962Y6115D02*
D03*
Y5735D02*
D03*
X9590Y6115D02*
D03*
Y5735D02*
D03*
D17*
X2438Y1982D02*
D03*
Y2132D02*
D03*
X3099Y1678D02*
D03*
Y1828D02*
D03*
X2921Y1678D02*
D03*
Y1828D02*
D03*
X5105Y7720D02*
D03*
Y7570D02*
D03*
X6528Y8660D02*
D03*
Y8510D02*
D03*
D19*
X2851Y7747D02*
D03*
X2991D02*
D03*
X6699Y9652D02*
D03*
X6559D02*
D03*
X6699Y9449D02*
D03*
X6559D02*
D03*
D23*
X5074Y10439D02*
D03*
X5442D02*
D03*
D32*
X4115Y5518D02*
D03*
Y5658D02*
D03*
X4470Y8757D02*
D03*
Y8617D02*
D03*
X6377Y8820D02*
D03*
Y8960D02*
D03*
D33*
X5080Y5780D02*
D03*
Y6261D02*
D03*
X3658Y5373D02*
D03*
Y5855D02*
D03*
D36*
X5918Y10109D02*
Y10211D01*
D37*
X4996Y8458D02*
X5035Y8419D01*
X4928Y8458D02*
X4996D01*
X2841Y6632D02*
Y7747D01*
X2708D02*
X2841D01*
X2337Y7798D02*
X2451Y7684D01*
X2645D01*
X2708Y7747D01*
X2565Y1270D02*
X11742D01*
X2362Y1473D02*
X2565Y1270D01*
X2362Y1473D02*
Y1906D01*
X2438Y1982D01*
X3048Y1346D02*
X10244D01*
X2616Y1778D02*
X3048Y1346D01*
X2616Y1778D02*
Y2565D01*
X2438Y3404D02*
X2743Y3708D01*
X2438Y2132D02*
Y3404D01*
X6680Y6045D02*
X9375D01*
X4597Y3962D02*
X6680Y6045D01*
X2743Y3962D02*
X4597D01*
X5969Y9652D02*
X6559D01*
X5937Y9620D02*
X5969Y9652D01*
X5737Y9524D02*
Y9720D01*
X5687Y9524D02*
Y9751D01*
X5787Y9524D02*
Y9699D01*
X5837Y9647D02*
Y9667D01*
X5837Y9647D02*
X5837Y9647D01*
X5837Y9524D02*
Y9647D01*
X5937Y9524D02*
Y9620D01*
X11742Y1270D02*
X13840Y3368D01*
X3023Y1448D02*
X8288D01*
X8796Y3327D02*
X9768Y4299D01*
X2743Y3327D02*
X8796D01*
X6153Y1678D02*
X7684Y3208D01*
X6192Y8319D02*
X6192Y8319D01*
X6096Y8319D02*
X6192D01*
X23352Y6746D02*
X23749Y7143D01*
X23352Y6589D02*
Y6746D01*
X23287Y6524D02*
X23352Y6589D01*
X23195Y6524D02*
X23287D01*
X23053Y6666D02*
X23195Y6524D01*
X21621Y6666D02*
X23053D01*
X21276Y7010D02*
X21621Y6666D01*
X23749Y7300D02*
Y7397D01*
X23638Y7189D02*
X23749Y7300D01*
X23638Y7128D02*
Y7189D01*
X23256Y6746D02*
X23638Y7128D01*
X23195Y6746D02*
X23256D01*
X23164Y6716D02*
X23195Y6746D01*
X21642Y6716D02*
X23164D01*
X21296Y7061D02*
X21642Y6716D01*
X23597Y7499D02*
X23749Y7651D01*
X23597Y7264D02*
Y7499D01*
X23332Y7000D02*
X23597Y7264D01*
X23130Y7000D02*
X23332D01*
X22895Y6766D02*
X23130Y7000D01*
X21663Y6766D02*
X22895D01*
X21316Y7112D02*
X21663Y6766D01*
X23520Y7676D02*
X23749Y7905D01*
X23520Y7468D02*
Y7676D01*
X23307Y7254D02*
X23520Y7468D01*
X23130Y7254D02*
X23307D01*
X22691Y6816D02*
X23130Y7254D01*
X21683Y6816D02*
X22691D01*
X21336Y7163D02*
X21683Y6816D01*
X21687Y7214D02*
X21782Y7118D01*
X21636Y7264D02*
X21687Y7315D01*
X21318D02*
X21604Y7601D01*
X21090Y7366D02*
X21477Y7753D01*
X4953Y7442D02*
Y7798D01*
X5037Y7882D01*
Y8014D01*
X5004Y7493D02*
Y7772D01*
X5087Y7856D01*
Y8014D01*
X4445Y7391D02*
Y7417D01*
X4267Y7420D02*
Y7538D01*
X4039Y7364D02*
Y7484D01*
X4039Y7485D02*
X4039Y7484D01*
X4090Y7384D02*
Y7464D01*
X4089Y7465D02*
X4090Y7464D01*
X4141Y7404D02*
Y7444D01*
X4140Y7445D02*
X4141Y7444D01*
X6437Y8419D02*
X6528Y8510D01*
X6192Y8419D02*
X6437D01*
X6094Y9269D02*
X6192D01*
X5563Y7620D02*
Y7797D01*
X5589Y7823D01*
X5764Y7620D02*
Y7770D01*
X5739Y7795D02*
X5764Y7770D01*
X5739Y7795D02*
Y7823D01*
X5687Y7875D02*
X5739Y7823D01*
X5687Y7875D02*
Y8014D01*
X5589Y7823D02*
X5637Y7871D01*
Y8014D01*
X2841Y6182D02*
Y6632D01*
X8777Y4299D02*
X9768D01*
X8218Y4858D02*
X8777Y4299D01*
X3099Y1678D02*
X6153D01*
X2921Y1549D02*
Y1678D01*
Y1549D02*
X3023Y1448D01*
X8288D02*
X10834Y3994D01*
Y4426D01*
X13840Y3368D02*
Y4404D01*
X2616Y2565D02*
X2743Y2692D01*
X10244Y1346D02*
X12333Y3435D01*
Y3943D01*
X2743Y2005D02*
X2921Y1828D01*
X2743Y2005D02*
Y2438D01*
X3099Y1828D02*
Y2718D01*
X2743Y3073D02*
X3099Y2718D01*
X4039Y7364D02*
X4393Y7010D01*
X4090Y7384D02*
X4413Y7061D01*
X4141Y7404D02*
X4433Y7112D01*
X4191Y7425D02*
X4453Y7163D01*
X4267Y7420D02*
X4473Y7214D01*
X4445Y7391D02*
X4572Y7264D01*
X4953Y7442D02*
X5080Y7315D01*
X5004Y7493D02*
X5131Y7366D01*
X5248D01*
X5417Y7197D01*
X20777D01*
X20946Y7366D01*
X21090D01*
X5080Y7315D02*
X5228D01*
X5396Y7147D01*
X20798D01*
X20966Y7315D01*
X21318D01*
X4572Y7264D02*
X5208D01*
X5376Y7097D01*
X20818D01*
X20986Y7264D01*
X21636D01*
X4473Y7214D02*
X5188D01*
X5355Y7047D01*
X20839D01*
X21006Y7214D01*
X21687D01*
X4453Y7163D02*
X5168D01*
X5334Y6997D01*
X20860D01*
X21026Y7163D01*
X21336D01*
X4433Y7112D02*
X5148D01*
X5313Y6947D01*
X20881D01*
X21046Y7112D01*
X21316D01*
X4413Y7061D02*
X5128D01*
X5293Y6897D01*
X20901D01*
X21066Y7061D01*
X21296D01*
X4393Y7010D02*
X5108D01*
X5272Y6847D01*
X20922D01*
X21086Y7010D01*
X21276D01*
X5887Y9175D02*
Y9524D01*
Y9175D02*
X5994Y9068D01*
X14702Y6045D02*
X15051Y5696D01*
X9410Y6010D02*
X9769D01*
X11040Y6045D02*
X11057Y6027D01*
X11119D01*
X11137Y6045D02*
X14702D01*
X9805D02*
X11040D01*
X9375D02*
X9410Y6010D01*
X9769D02*
X9805Y6045D01*
X11119Y6027D02*
X11137Y6045D01*
X13662Y5685D02*
Y5745D01*
X13564Y5844D02*
X13662Y5745D01*
X13564Y5844D02*
Y5918D01*
X13513Y5969D02*
X13564Y5918D01*
X13487Y5436D02*
X13564Y5512D01*
Y5586D01*
X13662Y5685D01*
X6020Y9195D02*
X6020D01*
X6094Y9269D01*
X6020Y9322D02*
X6022Y9319D01*
X6022Y9319D02*
X6192D01*
X4521Y9169D02*
X4682D01*
X4089Y9220D02*
X4238Y9369D01*
X4140Y9195D02*
X4265Y9319D01*
X4191Y9169D02*
X4291Y9269D01*
X4039Y7485D02*
Y9240D01*
X4089Y7465D02*
Y9220D01*
X4140Y7445D02*
Y9195D01*
X4191Y7425D02*
Y9169D01*
X4293Y9093D02*
X4445D01*
X4521Y9169D01*
X4323Y9524D02*
X4837D01*
X4039Y9240D02*
X4323Y9524D01*
X4238Y9369D02*
X4682D01*
X4265Y9319D02*
X4682D01*
X4291Y9269D02*
X4682D01*
X4468Y9219D02*
X4682D01*
X4416Y9167D02*
X4468Y9219D01*
X6068Y8291D02*
X6096Y8319D01*
X4887Y8291D02*
X6068D01*
X4991Y8369D02*
X6192D01*
X5035Y8419D02*
X6192D01*
X5687Y9751D02*
X5842Y9906D01*
X18440D01*
X18644Y9703D01*
X5737Y9720D02*
X5874Y9856D01*
X15341D01*
X15545Y9652D01*
X5787Y9699D02*
X5894Y9806D01*
X12292D01*
X12471Y9627D01*
X5837Y9667D02*
X5926Y9756D01*
X9269D01*
X9347Y9677D01*
D38*
X2841Y7747D02*
X2949Y7639D01*
X3258D01*
X4937Y9414D02*
X5524Y8827D01*
X5843D01*
X5856Y8840D01*
X5894Y7647D02*
X6046Y7494D01*
X18377Y8826D02*
X18796Y8407D01*
X15253Y8826D02*
X18377D01*
X12237Y8768D02*
X12598Y8407D01*
X9088Y8768D02*
X12237D01*
X15253Y8826D02*
X15672Y8407D01*
X9088Y8768D02*
X9474Y8382D01*
X6878Y8768D02*
X9088D01*
X4890Y9397D02*
Y9522D01*
X4887Y9524D02*
X4890Y9522D01*
X4937Y9414D02*
Y9524D01*
X23241Y8921D02*
X23749D01*
X5252Y7493D02*
Y7638D01*
X5208Y7682D02*
X5252Y7638D01*
X5208Y7682D02*
Y7823D01*
X23241Y8667D02*
X23749D01*
X5261Y7414D02*
X5264Y7417D01*
X5207Y7468D02*
X5261Y7414D01*
X5207Y7468D02*
Y7619D01*
X5105Y7720D02*
X5207Y7619D01*
X21687Y7315D02*
X21721D01*
X5105Y7730D02*
X5137Y7762D01*
X6528Y8660D02*
Y8785D01*
X6377Y8820D02*
X6528Y8971D01*
X6328Y8869D02*
X6377Y8820D01*
X6192Y8869D02*
X6328D01*
X6336Y8919D02*
X6377Y8960D01*
X6192Y8919D02*
X6336D01*
X4587Y8721D02*
X4680D01*
X4560Y8749D02*
X4587Y8721D01*
X4878Y9703D02*
X4885Y9696D01*
Y9526D02*
Y9696D01*
Y9526D02*
X4887Y9524D01*
X4937Y9813D02*
X4954Y9830D01*
X4937Y9770D02*
Y9813D01*
Y9770D02*
X4946Y9761D01*
Y9644D02*
Y9761D01*
X4937Y9636D02*
X4946Y9644D01*
X4937Y9524D02*
Y9636D01*
X5104Y9761D02*
Y9830D01*
X5037Y9524D02*
Y9694D01*
X5137Y7762D02*
Y8014D01*
X5187Y7844D02*
X5208Y7823D01*
X5187Y7844D02*
Y8014D01*
X5925Y7891D02*
X6044Y7772D01*
X5867Y7891D02*
X5925D01*
X5840Y7919D02*
X5867Y7891D01*
X5840Y7919D02*
Y8012D01*
X5837Y8014D02*
X5840Y8012D01*
X5894Y7772D02*
Y7795D01*
X5787Y7901D02*
X5894Y7795D01*
X5787Y7901D02*
Y8014D01*
X4325Y7639D02*
X4802Y8121D01*
X5252Y7493D02*
X5456Y7290D01*
X20738D01*
X5264Y7417D02*
X5264D01*
X5437Y7244D01*
X20757D01*
X5837Y8014D02*
Y8188D01*
X4587Y8667D02*
X4680D01*
X4496Y8617D02*
X4537D01*
X4587Y8667D01*
X4496Y8757D02*
X4503Y8749D01*
X4560D01*
X5037Y9694D02*
X5104Y9761D01*
X15240Y8839D02*
X15253Y8826D01*
X6807Y8839D02*
X15240D01*
X5524Y8763D02*
X5766D01*
X4890Y9397D02*
X5524Y8763D01*
X4802Y8121D02*
X4907Y8226D01*
X5697D01*
X5714Y8243D01*
X5782D01*
X5837Y8188D01*
X5894Y7647D02*
Y7772D01*
X22180Y8667D02*
X23241D01*
X20757Y7244D02*
X22180Y8667D01*
X22370Y8921D02*
X23241D01*
X20738Y7290D02*
X22370Y8921D01*
D39*
X4115Y5658D02*
Y5815D01*
X5384Y10109D02*
X5918D01*
X6123Y9449D02*
X6559D01*
X6048Y9524D02*
X6123Y9449D01*
X5104Y9830D02*
X5384Y10109D01*
X6559Y9303D02*
Y9449D01*
X6553Y9296D02*
X6559Y9303D01*
X6377Y9120D02*
X6553Y9296D01*
X6377Y8960D02*
Y9120D01*
X6553Y9296D02*
X9525D01*
X9627Y9398D01*
D40*
X19735Y3251D02*
X19854Y3132D01*
Y2819D02*
Y3132D01*
X19364Y2819D02*
X19380Y2836D01*
Y3047D01*
X19585Y3251D01*
X19854Y1846D02*
Y2159D01*
X19735Y1727D02*
X19854Y1846D01*
X19364Y1948D02*
Y2159D01*
Y1948D02*
X19585Y1727D01*
D41*
X3090Y6757D02*
X3095Y6763D01*
X22112Y7868D02*
Y8033D01*
Y7868D02*
X22250Y7729D01*
Y7104D02*
Y7729D01*
X22104Y6958D02*
X22250Y7104D01*
X9627Y9398D02*
X18948D01*
X24206Y1000D02*
X24206Y11000D01*
X17297Y1000D02*
X24206Y1000D01*
X2235Y1000D02*
X17297D01*
X2200Y1035D02*
X2235Y1000D01*
X2200Y1035D02*
Y1041D01*
Y10998D01*
X2202Y11000D02*
X24206Y11000D01*
D43*
X5894Y7494D02*
X6046D01*
X5358Y7823D02*
X5359Y7822D01*
Y7569D02*
Y7822D01*
Y7569D02*
X5512Y7417D01*
X5817D01*
X5894Y7494D01*
X6046D02*
X6680Y8128D01*
Y9169D01*
X6553Y9296D02*
X6680Y9169D01*
X4324Y8617D02*
X4470D01*
X13386Y5918D02*
X13589Y5715D01*
X13665Y5813D02*
X13712Y5766D01*
Y5635D02*
Y5766D01*
X13614Y5537D02*
X13712Y5635D01*
X13614Y5441D02*
Y5537D01*
X13564Y5391D02*
X13614Y5441D01*
X13564Y5207D02*
Y5391D01*
X13665Y5813D02*
Y5969D01*
X5105Y7493D02*
Y7570D01*
Y7493D02*
X5131Y7468D01*
D44*
X5442Y10439D02*
X5911D01*
X23241Y3841D02*
X23749D01*
X23241Y3587D02*
X23749D01*
X23241Y4603D02*
Y4857D01*
X23749D01*
Y4603D02*
Y4857D01*
X23241Y4095D02*
Y4349D01*
X23749D01*
Y4095D02*
Y4349D01*
X20955Y2845D02*
X21285D01*
X22027Y3587D01*
X23241D01*
X20803Y3708D02*
X20955D01*
X21088Y3841D01*
X23241D01*
Y2317D02*
X23749D01*
X23241Y2063D02*
X23749D01*
D45*
X2557Y1555D02*
D03*
Y10444D02*
D03*
D46*
X23749Y9937D02*
D03*
Y9683D02*
D03*
Y9429D02*
D03*
Y9175D02*
D03*
Y8921D02*
D03*
Y8667D02*
D03*
Y8413D02*
D03*
Y8159D02*
D03*
Y7905D02*
D03*
Y7651D02*
D03*
Y7397D02*
D03*
Y7143D02*
D03*
Y6889D02*
D03*
Y6635D02*
D03*
Y6381D02*
D03*
Y6127D02*
D03*
Y5873D02*
D03*
Y5619D02*
D03*
Y5365D02*
D03*
Y5111D02*
D03*
Y4857D02*
D03*
Y4603D02*
D03*
Y4349D02*
D03*
Y4095D02*
D03*
Y3841D02*
D03*
Y3587D02*
D03*
Y3333D02*
D03*
Y3079D02*
D03*
Y2825D02*
D03*
Y2571D02*
D03*
Y2317D02*
D03*
Y2063D02*
D03*
X23241Y9937D02*
D03*
Y9683D02*
D03*
Y9429D02*
D03*
Y9175D02*
D03*
Y8921D02*
D03*
Y8667D02*
D03*
Y8413D02*
D03*
Y8159D02*
D03*
Y7905D02*
D03*
Y7651D02*
D03*
Y7397D02*
D03*
Y7143D02*
D03*
Y6889D02*
D03*
Y6635D02*
D03*
Y6381D02*
D03*
Y6127D02*
D03*
Y5873D02*
D03*
Y5619D02*
D03*
Y5365D02*
D03*
Y5111D02*
D03*
Y4857D02*
D03*
Y4603D02*
D03*
Y4349D02*
D03*
Y4095D02*
D03*
Y3841D02*
D03*
Y3587D02*
D03*
Y3333D02*
D03*
Y3079D02*
D03*
Y2825D02*
D03*
Y2571D02*
D03*
Y2317D02*
D03*
Y2063D02*
D03*
X2841Y6182D02*
D03*
Y6632D02*
D03*
D47*
X24003Y10445D02*
D03*
Y1555D02*
D03*
D48*
X2591Y7798D02*
D03*
X2337D02*
D03*
X2591Y7544D02*
D03*
X2337D02*
D03*
X2591Y7290D02*
D03*
X2337D02*
D03*
D49*
X3090Y6757D02*
D03*
Y6056D02*
D03*
D50*
X2769Y9728D02*
D03*
Y9474D02*
D03*
Y8179D02*
D03*
Y8433D02*
D03*
Y8839D02*
D03*
Y9093D02*
D03*
X2743Y4343D02*
D03*
Y4597D02*
D03*
Y3708D02*
D03*
Y3962D02*
D03*
Y3073D02*
D03*
Y3327D02*
D03*
Y2438D02*
D03*
Y2692D02*
D03*
D51*
X5856Y8840D02*
D03*
X6878Y8768D02*
D03*
X4445Y7417D02*
D03*
X4267Y7538D02*
D03*
X4325Y7639D02*
D03*
X3258D02*
D03*
X5994Y9068D02*
D03*
X6807Y8839D02*
D03*
X5766Y8763D02*
D03*
X6020Y9322D02*
D03*
Y9195D02*
D03*
X4293Y9093D02*
D03*
X4419Y9166D02*
D03*
X5740Y8179D02*
D03*
X4887Y8291D02*
D03*
X4991Y8369D02*
D03*
X4928Y8458D02*
D03*
X5131Y7468D02*
D03*
D52*
X5029Y6528D02*
D03*
X4877D02*
D03*
X4724D02*
D03*
X18796Y8407D02*
D03*
X12598D02*
D03*
X15672D02*
D03*
X9474Y8382D02*
D03*
X18644Y9703D02*
D03*
X15545Y9652D02*
D03*
X12471Y9627D02*
D03*
X9347Y9677D02*
D03*
X21960Y8007D02*
D03*
X22087Y7474D02*
D03*
X21477Y7753D02*
D03*
X21604Y7601D02*
D03*
X10733Y5569D02*
D03*
Y6280D02*
D03*
X16930D02*
D03*
X13806D02*
D03*
Y5569D02*
D03*
X19140Y4578D02*
D03*
Y4426D02*
D03*
X18759Y4299D02*
D03*
X10834Y4578D02*
D03*
X10987D02*
D03*
X11139D02*
D03*
X11292D02*
D03*
X10834Y4426D02*
D03*
X10987D02*
D03*
X11139D02*
D03*
X11292D02*
D03*
X10123Y4299D02*
D03*
X9945D02*
D03*
X9768D02*
D03*
X8269Y7753D02*
D03*
X16981Y4451D02*
D03*
Y4629D02*
D03*
Y4807D02*
D03*
Y5010D02*
D03*
Y5188D02*
D03*
Y5366D02*
D03*
X16372Y4274D02*
D03*
X16194D02*
D03*
X16016D02*
D03*
X15838D02*
D03*
X13832Y5290D02*
D03*
Y5112D02*
D03*
Y4934D02*
D03*
Y4756D02*
D03*
Y4578D02*
D03*
X13840Y4404D02*
D03*
X21680Y7322D02*
D03*
X21782Y7118D02*
D03*
X22112Y8033D02*
D03*
X7684Y3208D02*
D03*
X12333Y3943D02*
D03*
X18912Y4299D02*
D03*
X22104Y6958D02*
D03*
X6553Y9296D02*
D03*
X4324Y8617D02*
D03*
X2515Y6934D02*
D03*
Y7087D02*
D03*
X6034Y7493D02*
D03*
X19177Y9804D02*
D03*
X5918Y10109D02*
D03*
D53*
X10987Y5594D02*
D03*
Y6255D02*
D03*
X11088Y5645D02*
D03*
Y6204D02*
D03*
Y6102D02*
D03*
Y5747D02*
D03*
X10860Y5594D02*
D03*
Y6255D02*
D03*
X17184D02*
D03*
X17286Y6204D02*
D03*
Y6102D02*
D03*
X17057Y6255D02*
D03*
X13933D02*
D03*
Y5594D02*
D03*
X14162Y5747D02*
D03*
X14173Y6147D02*
D03*
Y6248D02*
D03*
X14162Y5645D02*
D03*
X14060Y6255D02*
D03*
Y5594D02*
D03*
D54*
X15178Y8179D02*
D03*
X12104Y8204D02*
D03*
X8980D02*
D03*
X18302D02*
D03*
D55*
X15821Y9401D02*
D03*
X12747D02*
D03*
X9627Y9398D02*
D03*
X18948D02*
D03*
X13513Y5969D02*
D03*
X13386Y5918D02*
D03*
X13589Y5715D02*
D03*
X13487Y5436D02*
D03*
X13665Y5969D02*
D03*
X13564Y5207D02*
D03*
D56*
X4361Y6462D02*
D03*
D57*
X4131Y5832D02*
D03*
X4361D02*
D03*
X4591D02*
D03*
D58*
X6192Y9369D02*
D03*
Y9319D02*
D03*
Y9269D02*
D03*
Y9219D02*
D03*
Y9169D02*
D03*
Y9119D02*
D03*
Y9069D02*
D03*
Y9019D02*
D03*
Y8969D02*
D03*
Y8919D02*
D03*
Y8869D02*
D03*
Y8819D02*
D03*
Y8769D02*
D03*
Y8719D02*
D03*
Y8669D02*
D03*
Y8619D02*
D03*
Y8569D02*
D03*
Y8519D02*
D03*
Y8469D02*
D03*
Y8419D02*
D03*
Y8369D02*
D03*
Y8319D02*
D03*
Y8269D02*
D03*
Y8219D02*
D03*
Y8169D02*
D03*
X4682D02*
D03*
Y8219D02*
D03*
Y8269D02*
D03*
Y8319D02*
D03*
Y8369D02*
D03*
Y8419D02*
D03*
Y8469D02*
D03*
Y8519D02*
D03*
Y8569D02*
D03*
Y8619D02*
D03*
Y8669D02*
D03*
Y8719D02*
D03*
Y8769D02*
D03*
Y8819D02*
D03*
Y8869D02*
D03*
Y8919D02*
D03*
Y8969D02*
D03*
Y9019D02*
D03*
Y9069D02*
D03*
Y9119D02*
D03*
Y9169D02*
D03*
Y9219D02*
D03*
Y9269D02*
D03*
Y9319D02*
D03*
Y9369D02*
D03*
D59*
X6037Y8014D02*
D03*
X5987D02*
D03*
X5937D02*
D03*
X5887D02*
D03*
X5837D02*
D03*
X5787D02*
D03*
X5737D02*
D03*
X5687D02*
D03*
X5637D02*
D03*
X5587D02*
D03*
X5537D02*
D03*
X5487D02*
D03*
X5437D02*
D03*
X5387D02*
D03*
X5337D02*
D03*
X5287D02*
D03*
X5237D02*
D03*
X5187D02*
D03*
X5137D02*
D03*
X5087D02*
D03*
X5037D02*
D03*
X4987D02*
D03*
X4937D02*
D03*
X4887D02*
D03*
X4837D02*
D03*
Y9524D02*
D03*
X4887D02*
D03*
X4937D02*
D03*
X4987D02*
D03*
X5037D02*
D03*
X5087D02*
D03*
X5137D02*
D03*
X5187D02*
D03*
X5237D02*
D03*
X5287D02*
D03*
X5337D02*
D03*
X5387D02*
D03*
X5437D02*
D03*
X5487D02*
D03*
X5537D02*
D03*
X5587D02*
D03*
X5637D02*
D03*
X5687D02*
D03*
X5737D02*
D03*
X5787D02*
D03*
X5837D02*
D03*
X5887D02*
D03*
X5937D02*
D03*
X5987D02*
D03*
X6037D02*
D03*
D60*
X6528Y8785D02*
D03*
Y8997D02*
D03*
D61*
X5764Y7620D02*
D03*
X5664D02*
D03*
X5563D02*
D03*
D62*
X6331Y10439D02*
D03*
X5911D02*
D03*
D63*
X3658Y5855D02*
X4108D01*
X3658D02*
Y10084D01*
X4267Y10693D01*
X5334D01*
X5442Y10586D01*
Y10439D02*
Y10586D01*
X6331Y10439D02*
X6433Y10338D01*
X23241Y9429D02*
X23749D01*
X6433Y10338D02*
X22332D01*
X23241Y9429D01*
M02*
