M48
;Layer_Color=9474304
;FILE_FORMAT=4:2
METRIC,LZ
;TYPE=PLATED
T1F00S00C0.25
T2F00S00C0.38
T3F00S00C0.50
T4F00S00C0.71
T5F00S00C0.76
T6F00S00C0.80
T7F00S00C0.97
T8F00S00C0.99
T9F00S00C1.00
T10F00S00C1.30
T11F00S00C2.80
%
T01
X004862Y007752
X004844Y007864
X003451Y00797
X004406Y008166
X004492Y008161
X004576Y008151
X004666Y008169
X005061Y008202
X005148Y00838
X005288Y008648
X005285Y008952
X005144Y009115
X005058Y009307
X004825Y008955
X004843Y008843
X004505Y009359
X004274Y009134
T02
X009347Y009677
X009611Y009507
X011625Y009355
X011709Y009804
X015113Y009779
X015016Y009358
X019609Y009703
X019898Y009507
T03
X007671Y003429
X007798
X007925
Y003556
Y003683
Y00381
Y003937
X007798
Y00381
Y003683
Y003556
X007671
Y003683
Y00381
Y003937
X008052
Y00381
Y003683
Y003556
Y003429
X008179
Y003556
Y003683
Y00381
Y003937
X008306
Y00381
Y003683
Y003556
Y003429
X017983Y003937
X01811
X018237
X018364
X018491
X018618
X019914Y006121
X020015
X020117
Y006223
X020015
X019914
X020574
X020625Y006121
X020752
X020853
X021057Y005639
X021158
X02126
Y005537
X021158
X021057
Y00541
X021158
X02126
X021361Y005461
X0222Y005639
X022301
X022403
X021468Y007512
X021255Y007515
X020828Y007544
X020701
X020574
X020447
X02032
X020193
X020066
X019939
Y007671
Y007798
Y007925
X020066
X020193
X02032
X020447
Y007798
X020574
X020701
Y007925
X020577
X020828
Y007798
Y007671
X020701
X020574
X020447
X02032
Y007798
X020193
X020091
X020066Y007671
X020193
Y007417
X02032
X020447
X020574
X020701
X020828
Y00729
X020701
X020574
X020447
X02032
X020193
X01966Y007264
Y007112
X019761Y007163
Y007036
X019685Y006934
X019609Y006833
Y006223
X01971
X019812
Y006121
X01971
X019609
X019507
Y006223
X019406
Y006121
X019304
Y006223
X019202
Y006121
X019101
Y006223
X018999
Y006121
X018898
Y006223
Y006325
X018999
X019101
X018999Y006426
X018898
Y006528
X018847Y006629
Y006934
Y007036
Y007137
Y007239
X017501Y007163
X017399
X017297
X017196
X017094
X01684
X016739
Y007264
X01684
X016942
Y007366
X01684
X016739
Y007474
Y007569
X01684
Y007474
X016942
Y007569
Y007671
X01684
X016739
X016637
Y007569
Y007474
X016535
Y007569
Y007671
Y007772
X016637
X016739
X01684
X016942
X017272Y007925
X017374Y007874
X017475
Y007772
X017501Y00668
X017399
X017297
X017196
X017094
X016993
X016891
X016789
X016688
X016586
X016485
X016383
X016281
X01618
X016078
X015977
X015875
Y006807
X015977
X016078
X01618
X016281
X016383
X016485
X016586
X016688
X016789
X016891
Y006934
X016789
X016688
X016586
X016485
X016383
X016281
X01618
X016078
X015977
X015875
X017983Y005334
Y005207
Y00508
Y004953
Y004826
Y004699
Y004572
Y004445
Y004318
X01811
Y004445
Y004572
Y004699
Y004826
Y004953
Y00508
Y005207
Y005334
X018237
Y005207
Y00508
Y004953
Y004826
Y004699
Y004572
Y004445
Y004318
Y004191
X01811
X017983
Y004064
X01811
X018237
X018364
Y004191
Y004318
Y004445
Y004572
Y004699
Y004826
Y004953
X018491
Y004826
Y004699
Y004572
Y004445
Y004318
Y004191
Y004064
X018618
X015773Y00668
X015672
X01557
X015469
X015367
X015265
X015164
X015062
X014961
X014859
X014757
X014656
X014554
X014453
Y006807
X014554
X014656
X014757
X014859
X014961
X015062
X015164
X015265
X015367
X015469
X01557
X015672
X015773
Y006934
X015672
X01557
X015469
X015367
X015265
X015164
X015062
X014961
X014859
X014757
X014656
X014554
X014453
X014097Y007163
X013995
X013894
X013792
X013691
X013538Y007264
Y007366
X013437
X013335
Y007264
X013437
Y007163
X013335
X013386Y006934
X013487
Y006807
X013386
X013284
X013183
X013081
X012979
X012878
X012776
X012675
X012573
X012471
X01237
X012268
X012167
X012065
X011963
Y006934
X012065
X012167
X012268
X01237
X012471
X012573
X012675
X012776
X012878
X012979
X013081
X013183
X013284
Y00668
X013183
X013081
X012979
X012878
X012776
X012675
X012573
X012471
X01237
X012268
X012167
X012065
X011963
X013386
X013487
X013589
X013691
X013792
X013894
X013995
X014097
X013741Y006071
X013716Y005537
X013767Y00541
X013538Y007474
Y007569
Y007671
Y007772
X013437
X013335
X013233
X013132
Y007671
X013132Y007572
X013132Y007474
X013233
Y007569
Y007671
X013335
X013437
Y007569
Y007474
X013335
Y007569
X013868Y007925
X01397Y007874
X014072
Y007772
X015011Y007849
X011608
X011659Y006934
X011557
X011455
X011354
X011252
X011151
X011049
Y006807
X011151
X011252
X011354
X011455
X011557
X011659
X01176
X011862
Y006934
X01176
Y00668
X011862
X011659
X011557
X011455
X011354
X011252
X011151
X011049
X010566Y006096
X010465
X010338
X010287Y006198
X00983
X009728
X009627
X009525
X009423
X009322
X00922
X009119
X009017
X008915
X008814
Y006299
X008712
X008611
Y006401
Y006502
X00856Y006604
Y006909
Y00701
Y007112
Y007214
X009373Y007264
Y007112
X009474Y007163
Y007036
X009398Y006934
X009322Y006833
Y006096
X00922
X009119
X009017
X008915
X008814
X008712
X008611
Y006198
X008712
Y006401
X009423Y006096
X009525
X009627
X009728
X00983
X009906Y007264
X010033
X01016
X010287
X010414
X010541
Y007391
X010414
X010287
X01016
X010033
X009906
Y007518
Y007645
X010033
X01016
X010287
X010414
X010541
Y007518
X010414
X010287
X01016
X010033
X009779
Y007645
X009652
Y007518
Y007772
Y007899
X009779
X009906
Y007772
X009804
X010033
X01016
X010287
X010414
X010541
Y007899
X010414
X01029Y007897
X01016Y007899
X010033
X008179Y004953
Y004826
Y004699
Y004572
Y004445
Y004318
Y004191
Y004064
X008052
Y004191
Y004318
Y004445
Y004572
Y004699
Y004826
Y004953
X008306Y004064
X007925
Y004191
X007798
Y004064
X007671
Y004191
Y004318
X007798
X007925
Y004445
Y004572
Y004699
Y004826
Y004953
Y00508
Y005207
Y005334
X007798
Y005207
Y00508
Y004953
Y004826
Y004699
Y004572
Y004445
X007671
Y004572
Y004699
Y004826
Y004953
Y00508
Y005207
Y005334
X009017Y00828
Y008407
Y008534
X009144
X009271
X009398
X009525
Y008407
Y00828
Y008153
X009652
X009779
Y008026
X009906
X010033
X01016
X010287
X010414
X010541
X009906Y008153
Y00828
X009779
X009652
Y008407
X009779
X009906
Y008534
X009779
X009652
X009398Y008407
X009271
X009144
Y00828
X009271
X009398
Y008153
X009271
X00889Y008534
X008433Y010363
X008331
Y010465
Y010566
X008433
Y010465
X011608Y008052
X011709
X011811
X011709Y00795
X011608
X011913Y008052
X012014
X012116
X012217
X013296Y008592
X01368Y008561
X013868Y008128
Y008026
X01397Y008077
Y008179
X014072
Y008077
Y007976
X01397
X015011Y00795
Y008052
X015113
X015215
X015316
X015418
X015519
X015621
X015113Y00795
X013321Y009088
X012903Y009144
X013589Y010236
X013691
Y010338
Y010439
X013589
Y010338
X016307Y009144
X016713Y00909
X016687Y008595
X017071Y008579
X017272Y008128
Y008026
X017374Y007976
X017475
Y008077
X017374
Y008179
X017475
X019304Y008306
X019431
X019558
X019685
X019812
Y008179
X019685
X019558
Y008433
X019685
Y00856
X019812
Y008433
X019558Y00856
X019431
Y008433
X019304
Y00856
X019177
X019939
X020066
X020193
Y008433
X020066
X019939
Y008306
X020066
X020193
Y008179
X020066
X019939
Y008052
X020066
X020193
X02032
X020447
X020574
X020701
X020828
T04
X004039Y002743
X007442Y0032
X008839Y003353
Y003505
X008992
X009144
Y003658
X008992
X008839
Y00381
X008992
X009144
Y003962
X008992
X008839
X009322
Y00381
Y003658
Y003505
Y003353
X0095
Y003505
Y003658
Y00381
Y003962
X009677
Y00381
Y003658
X00983
X009982
X010135
Y003505
X009982
X00983
Y003353
X009982
X010135
X009677
Y003505
X00983Y00381
X009982
X010135
Y003962
X009982
X00983
X010922Y003861
X011074
X011227
Y003683
X011074
X010922
Y003505
X011074
X011227
X011405
Y003683
Y003861
X010693Y002896
X010566Y002743
X010414Y003023
X009144Y003353
X008992
X0127Y003581
Y003734
Y003886
X012852Y003531
X013005
X013157
X01331Y003581
Y003734
Y003886
X013487
Y003734
Y003581
X0143Y003505
X014453
X014605
Y003683
X014453
X0143
Y003861
X014453
X014605
X014783
Y003683
Y003505
X01397Y002896
X016092Y003584
Y003737
Y003889
X016244Y003533
X016396
X016549
X016701Y003584
Y003737
Y003889
X016879
X019152Y003962
X019304
X019456
X019634
X019812
X01999
X020142
X020295
X020447
Y004115
Y004267
X020295
X020142
Y00442
Y004572
X020295
Y00442
X020447
Y004572
Y004724
Y004877
X020295
X020142
Y004724
X020295
Y004115
X020142
X01999
Y004267
X023019Y005874
X023026Y006262
X022555Y006655
X022987Y007417
Y007823
X022379Y007924
X019456Y004775
X019304
Y00442
X019456
Y004267
X019304
Y004115
X019456
X019634
Y004267
X019812
Y004115
X019152
Y00442
X016879Y004041
X016701
X016092
X016157Y007541
X017678Y006147
X014834Y005232
X014681
X014529
Y00508
Y004928
Y004775
Y004623
Y00447
Y004318
X014376
Y00447
Y004623
Y004775
Y004928
Y00508
Y005232
X014681Y00508
X014834
Y004928
X014681
Y004775
X014834
Y004623
X014681
Y00447
X014834
X014884Y004318
X015062
X01524
X015418
X015596
X015342Y004166
X015164
X014986
X014808
X01463
X014478
X014326
X014402Y004013
X014554
X014732
X01491
X015088
X015265
X015443
X014707Y004318
X013487Y004039
X01331
X0127
X012065Y004013
X011963Y004166
X01204Y004318
X012217
X012765Y007539
X011455Y005232
Y00508
Y004928
Y004775
Y004623
Y00447
X011303
Y004623
Y004775
Y004928
Y00508
Y005232
X011151
X010998
Y00508
Y004928
Y004775
Y004623
Y00447
Y004318
X011151
Y00447
Y004623
Y004775
Y004928
Y00508
X011328Y004318
X011506
X011684
X011862
X011786Y004166
X011608
X01143
X011252
X0111
X010947
X011024Y004013
X011176
X011354
X011532
X011709
X011887
X010135Y004115
X009982
X00983
X009677
Y004267
X00983
Y00442
X009982
X010135
Y004572
Y004724
X009982
X00983
Y004877
X009982
X010135
X009982Y004572
X00983
X009982Y004267
X010135
X0095
Y004115
X009322
Y004267
X009144
Y004115
X008992
X008839
X008992Y004267
Y00442
X008839
X009144
Y004775
X008992
X01049Y005512
X008269Y007753
X00729Y006045
X007366Y005588
X005147Y006282
X005026Y006525
X005283Y006512
X004862Y006143
X004511Y006135
X004188Y006049
X004357Y006401
X004355Y006565
X004181Y006566
X003055Y006569
X003659Y005952
X00339Y008561
X003377Y008968
X003471Y009919
X004623Y008695
X008966Y008128
X010541Y009634
X011684Y008585
X012912Y008311
X013238Y010234
X015076Y008588
X016304Y008314
X018136Y008357
X019228Y008128
X020142Y009804
X020668Y010234
X022734Y008383
X022709Y008178
T05
X007925Y008865
Y009144
T06
X002492Y002438
Y002692
Y003073
Y003327
Y003708
Y003962
Y004343
Y004597
Y008179
Y008433
Y008839
Y009093
Y009474
Y009728
T07
X002337Y006274
Y006528
Y006782
Y007036
Y00729
X002591
Y007036
Y006782
Y006528
Y006274
T08
X002847Y005219
Y005669
T09
X023241Y002063
Y002317
Y002571
Y002825
Y003079
Y003333
Y003587
Y003841
X023749
Y003587
Y003333
Y003079
Y002825
Y002571
Y002317
Y002063
Y004095
Y004349
Y004603
Y004857
Y005111
Y005365
Y005619
Y005873
Y006127
Y006381
Y006635
Y006889
Y007143
Y007397
Y007651
Y007905
X023241
Y007651
Y007397
Y007143
Y006889
Y006635
Y006381
Y006127
Y005873
Y005619
Y005365
Y005111
Y004857
Y004603
Y004349
Y004095
Y008159
Y008413
Y008667
Y008921
Y009175
Y009429
Y009683
Y009937
X023749
Y009683
Y009429
Y009175
Y008921
Y008667
Y008413
Y008159
T10
X003096Y005093
Y005794
T11
X002557Y001555
X024003Y001555
X002557Y010444
X024003Y010445
M30
