G04 Layer_Physical_Order=4*
G04 Layer_Color=16711680*
%FSLAX42Y42*%
%MOMM*%
G71*
G01*
G75*
%ADD10R,0.90X0.70*%
%ADD11R,0.70X0.90*%
%ADD12R,1.25X0.95*%
%ADD13R,1.10X2.60*%
%ADD19R,0.80X0.90*%
%ADD20R,2.60X1.10*%
%ADD30R,2.18X1.52*%
%ADD31R,3.50X2.00*%
%ADD33R,3.30X1.40*%
%ADD34R,0.90X0.80*%
%ADD49C,0.51*%
%ADD50C,0.64*%
%ADD51C,0.25*%
%ADD53C,2.00*%
%ADD54C,0.50*%
%ADD55C,0.30*%
%ADD57C,0.80*%
%ADD58C,1.27*%
%ADD59C,0.30*%
%ADD60C,2.60*%
%ADD61C,1.52*%
%ADD62C,1.70*%
%ADD63C,1.60*%
G04:AMPARAMS|DCode=64|XSize=1.57mm|YSize=1.57mm|CornerRadius=0mm|HoleSize=0mm|Usage=FLASHONLY|Rotation=90.000|XOffset=0mm|YOffset=0mm|HoleType=Round|Shape=Octagon|*
%AMOCTAGOND64*
4,1,8,0.39,0.79,-0.39,0.79,-0.79,0.39,-0.79,-0.39,-0.39,-0.79,0.39,-0.79,0.79,-0.39,0.79,0.39,0.39,0.79,0.0*
%
%ADD64OCTAGOND64*%

%ADD65C,2.80*%
%ADD66C,0.90*%
%ADD67C,0.95*%
%ADD68C,1.27*%
%ADD69C,0.64*%
%ADD70C,0.67*%
%ADD71C,0.76*%
%ADD72O,0.29X1.80*%
%ADD73O,1.80X0.29*%
%ADD74R,1.40X3.30*%
%ADD75R,1.22X1.22*%
%ADD76R,0.71X2.01*%
%ADD77R,1.55X3.30*%
%ADD78R,3.80X2.00*%
%ADD79R,1.50X2.00*%
G36*
X22953Y8487D02*
X22950Y8470D01*
X22948Y8469D01*
X22948Y8469D01*
X22918Y8438D01*
X22797D01*
X22794Y8443D01*
X22776Y8456D01*
X22756Y8465D01*
X22734Y8467D01*
X22712Y8465D01*
X22692Y8456D01*
X22675Y8443D01*
X22661Y8425D01*
X22653Y8405D01*
X22650Y8383D01*
X22653Y8361D01*
X22661Y8341D01*
X22671Y8329D01*
X22664Y8316D01*
X22522D01*
X22517Y8328D01*
X22678Y8489D01*
X22795D01*
Y8478D01*
X22925D01*
Y8489D01*
X22951D01*
X22953Y8487D01*
D02*
G37*
G36*
X8357Y5715D02*
X8394D01*
X8408Y5701D01*
X8420Y5693D01*
X8434Y5690D01*
X8611D01*
Y5461D01*
X7595D01*
Y5817D01*
X8255D01*
X8357Y5715D01*
D02*
G37*
G36*
X23665Y8618D02*
X23680Y8598D01*
X23700Y8583D01*
X23724Y8573D01*
X23749Y8570D01*
X23774Y8573D01*
X23798Y8583D01*
X23805Y8588D01*
X23816Y8583D01*
X23816Y8243D01*
X23805Y8238D01*
X23798Y8243D01*
X23774Y8253D01*
X23749Y8256D01*
X23724Y8253D01*
X23707Y8246D01*
X23403Y8549D01*
X23392Y8557D01*
X23378Y8560D01*
X23262D01*
X23261Y8573D01*
X23266Y8573D01*
X23290Y8583D01*
X23310Y8598D01*
X23325Y8618D01*
X23331Y8634D01*
X23659D01*
X23665Y8618D01*
D02*
G37*
G36*
X18771Y3441D02*
X17830D01*
X17830Y5690D01*
X18771D01*
X18771Y3441D01*
D02*
G37*
G36*
X10225Y3302D02*
X8611Y3302D01*
X8611Y5690D01*
X10225D01*
X10225Y3302D01*
D02*
G37*
G36*
X23157Y8618D02*
X23172Y8598D01*
X23192Y8583D01*
X23216Y8573D01*
X23221Y8573D01*
X23220Y8560D01*
X22925D01*
Y8588D01*
X22795D01*
Y8560D01*
X22695D01*
X22690Y8572D01*
X22747Y8628D01*
X23153D01*
X23157Y8618D01*
D02*
G37*
G36*
X8498Y3404D02*
X7583D01*
X7583Y5410D01*
X8498D01*
X8498Y3404D01*
D02*
G37*
G36*
X23178Y8232D02*
X23172Y8228D01*
X23157Y8208D01*
X23147Y8184D01*
X23144Y8159D01*
X23147Y8134D01*
X23157Y8110D01*
X23172Y8090D01*
X23192Y8075D01*
X23193Y8075D01*
X23190Y8062D01*
X22900D01*
Y8083D01*
X22770D01*
Y8062D01*
X22339D01*
X22334Y8074D01*
X22505Y8245D01*
X22639D01*
X22645Y8232D01*
X22636Y8220D01*
X22627Y8199D01*
X22625Y8178D01*
X22627Y8156D01*
X22636Y8135D01*
X22649Y8118D01*
X22667Y8105D01*
X22687Y8096D01*
X22709Y8093D01*
X22731Y8096D01*
X22751Y8105D01*
X22768Y8118D01*
X22772Y8123D01*
X22900D01*
Y8233D01*
X22900D01*
X22901Y8245D01*
X22973D01*
Y8227D01*
X23103D01*
Y8245D01*
X23174D01*
X23178Y8232D01*
D02*
G37*
G36*
X19039Y6509D02*
X19064Y6483D01*
X19242Y6306D01*
X19293Y6255D01*
X20918D01*
X20918Y6052D01*
X18835Y6052D01*
X18835Y7296D01*
X19039Y7296D01*
Y6509D01*
D02*
G37*
G36*
X22592Y7719D02*
X22722D01*
Y7742D01*
X22734Y7747D01*
X22970Y7510D01*
X22966Y7498D01*
X22965Y7498D01*
X22945Y7490D01*
X22927Y7476D01*
X22914Y7459D01*
X22906Y7439D01*
X22903Y7417D01*
X22906Y7395D01*
X22914Y7375D01*
X22927Y7357D01*
X22945Y7344D01*
X22965Y7335D01*
X22987Y7333D01*
X23009Y7335D01*
X23029Y7344D01*
X23047Y7357D01*
X23057Y7371D01*
X23148D01*
X23157Y7348D01*
X23172Y7328D01*
X23192Y7313D01*
X23216Y7303D01*
X23241Y7300D01*
X23266Y7303D01*
X23290Y7313D01*
X23310Y7328D01*
X23325Y7348D01*
X23335Y7372D01*
X23338Y7397D01*
X23335Y7422D01*
X23325Y7446D01*
X23310Y7466D01*
X23304Y7470D01*
X23308Y7483D01*
X23658D01*
X23678Y7463D01*
X23665Y7446D01*
X23655Y7422D01*
X23652Y7397D01*
X23655Y7372D01*
X23665Y7348D01*
X23680Y7328D01*
X23700Y7313D01*
X23724Y7303D01*
X23749Y7300D01*
X23774Y7303D01*
X23798Y7313D01*
X23805Y7318D01*
X23816Y7313D01*
Y7227D01*
X23805Y7222D01*
X23798Y7227D01*
X23774Y7237D01*
X23749Y7240D01*
X23724Y7237D01*
X23700Y7227D01*
X23680Y7212D01*
X23665Y7192D01*
X23655Y7168D01*
X23652Y7143D01*
X23655Y7118D01*
X23665Y7094D01*
X23680Y7074D01*
X23700Y7059D01*
X23724Y7049D01*
X23749Y7046D01*
X23774Y7049D01*
X23798Y7059D01*
X23805Y7064D01*
X23816Y7059D01*
Y6973D01*
X23805Y6968D01*
X23798Y6973D01*
X23774Y6983D01*
X23749Y6986D01*
X23724Y6983D01*
X23700Y6973D01*
X23680Y6958D01*
X23665Y6938D01*
X23655Y6914D01*
X23652Y6889D01*
X23655Y6864D01*
X23665Y6840D01*
X23680Y6820D01*
X23700Y6805D01*
X23724Y6795D01*
X23749Y6792D01*
X23774Y6795D01*
X23798Y6805D01*
X23805Y6810D01*
X23816Y6805D01*
Y6465D01*
X23805Y6460D01*
X23798Y6465D01*
X23774Y6475D01*
X23749Y6478D01*
X23724Y6475D01*
X23700Y6465D01*
X23680Y6450D01*
X23665Y6430D01*
X23655Y6406D01*
X23652Y6381D01*
X23655Y6356D01*
X23665Y6332D01*
X23680Y6312D01*
X23700Y6297D01*
X23724Y6287D01*
X23749Y6284D01*
X23774Y6287D01*
X23798Y6297D01*
X23805Y6302D01*
X23816Y6297D01*
Y6211D01*
X23805Y6206D01*
X23798Y6211D01*
X23774Y6221D01*
X23749Y6224D01*
X23724Y6221D01*
X23718Y6218D01*
X23644Y6292D01*
X23629Y6302D01*
X23611Y6306D01*
X23611Y6306D01*
X23098D01*
X23086Y6322D01*
X23069Y6335D01*
X23048Y6344D01*
X23026Y6347D01*
X23005Y6344D01*
X22984Y6335D01*
X22967Y6322D01*
X22953Y6305D01*
X22945Y6284D01*
X22942Y6262D01*
X22945Y6241D01*
X22953Y6220D01*
X22967Y6203D01*
X22984Y6189D01*
X23005Y6181D01*
X23026Y6178D01*
X23048Y6181D01*
X23069Y6189D01*
X23086Y6203D01*
X23094Y6213D01*
X23592D01*
X23655Y6150D01*
X23652Y6127D01*
X23655Y6102D01*
X23658Y6095D01*
D01*
X23665Y6078D01*
X23680Y6058D01*
X23700Y6043D01*
X23724Y6033D01*
X23749Y6030D01*
X23774Y6033D01*
X23798Y6043D01*
X23812Y6054D01*
X23825Y6048D01*
Y5952D01*
X23812Y5946D01*
X23798Y5957D01*
X23774Y5967D01*
X23749Y5970D01*
X23724Y5967D01*
X23700Y5957D01*
X23680Y5942D01*
X23665Y5922D01*
X23655Y5898D01*
X23652Y5873D01*
X23655Y5848D01*
X23665Y5824D01*
X23680Y5804D01*
X23700Y5789D01*
X23724Y5779D01*
X23749Y5776D01*
X23774Y5779D01*
X23798Y5789D01*
X23812Y5800D01*
X23825Y5794D01*
Y5698D01*
X23812Y5692D01*
X23798Y5703D01*
X23774Y5713D01*
X23749Y5716D01*
X23724Y5713D01*
X23718Y5710D01*
X23655Y5773D01*
X23640Y5783D01*
X23622Y5787D01*
X23622Y5787D01*
X23292D01*
X23291Y5787D01*
X23291Y5787D01*
X23171D01*
X23101Y5857D01*
X23103Y5874D01*
X23100Y5896D01*
X23092Y5916D01*
X23078Y5933D01*
X23061Y5947D01*
X23041Y5955D01*
X23019Y5958D01*
X22997Y5955D01*
X22977Y5947D01*
X22959Y5933D01*
X22946Y5916D01*
X22937Y5896D01*
X22935Y5874D01*
X22937Y5852D01*
X22946Y5832D01*
X22959Y5814D01*
X22977Y5801D01*
X22997Y5792D01*
X23019Y5790D01*
X23035Y5792D01*
X23119Y5708D01*
X23134Y5698D01*
X23152Y5694D01*
X23152Y5694D01*
X23162D01*
X23168Y5682D01*
X23157Y5668D01*
X23147Y5644D01*
X23144Y5619D01*
X23147Y5594D01*
X23157Y5570D01*
X23172Y5550D01*
X23192Y5535D01*
X23216Y5525D01*
X23241Y5522D01*
X23266Y5525D01*
X23290Y5535D01*
X23310Y5550D01*
X23325Y5570D01*
X23335Y5594D01*
X23338Y5619D01*
X23335Y5644D01*
X23325Y5668D01*
X23314Y5681D01*
X23321Y5694D01*
X23603D01*
X23655Y5642D01*
X23652Y5619D01*
X23655Y5594D01*
X23665Y5570D01*
X23680Y5550D01*
X23700Y5535D01*
X23724Y5525D01*
X23749Y5522D01*
X23774Y5525D01*
X23798Y5535D01*
X23812Y5546D01*
X23825Y5540D01*
Y5444D01*
X23812Y5438D01*
X23798Y5449D01*
X23774Y5459D01*
X23749Y5462D01*
X23724Y5459D01*
X23700Y5449D01*
X23680Y5434D01*
X23665Y5414D01*
X23655Y5390D01*
X23652Y5365D01*
X23655Y5340D01*
X23665Y5316D01*
X23680Y5296D01*
X23700Y5281D01*
X23724Y5271D01*
X23749Y5268D01*
X23774Y5271D01*
X23798Y5281D01*
X23812Y5292D01*
X23825Y5286D01*
Y5029D01*
X21006D01*
Y5334D01*
X20828D01*
Y5690D01*
X21006D01*
Y5690D01*
X21086D01*
X21099Y5693D01*
X21111Y5701D01*
X21506Y6096D01*
X21899Y6489D01*
X21907Y6501D01*
X21910Y6514D01*
Y7508D01*
X22164Y7762D01*
X22592D01*
Y7719D01*
D02*
G37*
G36*
X23659Y7939D02*
X23655Y7930D01*
X23652Y7905D01*
X23655Y7880D01*
X23665Y7856D01*
X23680Y7836D01*
X23700Y7821D01*
X23724Y7811D01*
X23749Y7808D01*
X23774Y7811D01*
X23798Y7821D01*
X23805Y7826D01*
X23816Y7821D01*
X23816Y7735D01*
X23805Y7730D01*
X23798Y7735D01*
X23774Y7745D01*
X23749Y7748D01*
X23724Y7745D01*
X23700Y7735D01*
X23691Y7728D01*
X23368Y8052D01*
X23356Y8059D01*
X23343Y8062D01*
X23292D01*
X23289Y8075D01*
X23290Y8075D01*
X23310Y8090D01*
X23325Y8110D01*
X23335Y8134D01*
X23338Y8159D01*
X23335Y8184D01*
X23325Y8208D01*
X23310Y8228D01*
X23304Y8232D01*
X23308Y8245D01*
X23353D01*
X23659Y7939D01*
D02*
G37*
G36*
X23654Y7665D02*
X23652Y7651D01*
X23655Y7626D01*
X23665Y7602D01*
X23680Y7582D01*
X23700Y7567D01*
X23724Y7557D01*
X23749Y7554D01*
X23774Y7557D01*
X23798Y7567D01*
X23805Y7572D01*
X23816Y7567D01*
Y7481D01*
X23805Y7476D01*
X23798Y7481D01*
X23774Y7491D01*
X23749Y7494D01*
X23748Y7494D01*
X23698Y7544D01*
X23686Y7551D01*
X23673Y7554D01*
X23292D01*
X23289Y7567D01*
X23290Y7567D01*
X23310Y7582D01*
X23325Y7602D01*
X23335Y7626D01*
X23338Y7651D01*
X23335Y7676D01*
X23325Y7700D01*
X23310Y7720D01*
X23290Y7735D01*
X23266Y7745D01*
X23241Y7748D01*
X23216Y7745D01*
X23192Y7735D01*
X23172Y7720D01*
X23157Y7700D01*
X23147Y7676D01*
X23144Y7651D01*
X23147Y7626D01*
X23157Y7602D01*
X23172Y7582D01*
X23192Y7567D01*
X23193Y7567D01*
X23190Y7554D01*
X23027D01*
X22758Y7823D01*
X22747Y7831D01*
X22733Y7833D01*
X22412D01*
X22410Y7846D01*
X22421Y7851D01*
X22438Y7864D01*
X22443Y7871D01*
X22592D01*
Y7869D01*
X22722D01*
Y7979D01*
X22722D01*
X22723Y7991D01*
X22770D01*
Y7973D01*
X22900D01*
Y7991D01*
X23174D01*
X23178Y7978D01*
X23172Y7974D01*
X23157Y7954D01*
X23147Y7930D01*
X23144Y7905D01*
X23147Y7882D01*
X23145Y7877D01*
X23138Y7869D01*
X23057D01*
X23047Y7883D01*
X23029Y7896D01*
X23009Y7905D01*
X22987Y7907D01*
X22965Y7905D01*
X22945Y7896D01*
X22927Y7883D01*
X22914Y7865D01*
X22906Y7845D01*
X22903Y7823D01*
X22906Y7801D01*
X22914Y7781D01*
X22927Y7764D01*
X22945Y7750D01*
X22965Y7742D01*
X22987Y7739D01*
X23009Y7742D01*
X23029Y7750D01*
X23047Y7764D01*
X23057Y7777D01*
X23165D01*
X23165Y7777D01*
X23183Y7780D01*
X23198Y7790D01*
X23218Y7811D01*
X23241Y7808D01*
X23266Y7811D01*
X23290Y7821D01*
X23310Y7836D01*
X23325Y7856D01*
X23335Y7880D01*
X23338Y7905D01*
X23335Y7930D01*
X23325Y7954D01*
X23310Y7974D01*
X23304Y7978D01*
X23308Y7991D01*
X23328D01*
X23654Y7665D01*
D02*
G37*
G36*
X5804Y8175D02*
Y8134D01*
X5791Y8124D01*
X5787Y8125D01*
X5774Y8122D01*
X5762Y8115D01*
X5755Y8103D01*
X5752Y8090D01*
Y7939D01*
X5754Y7929D01*
Y7901D01*
X5754Y7901D01*
X5744Y7888D01*
X5725D01*
X5723Y7890D01*
Y8014D01*
X5722Y8016D01*
Y8090D01*
X5720Y8103D01*
X5712Y8115D01*
X5701Y8122D01*
X5687Y8125D01*
X5674Y8122D01*
X5673Y8122D01*
X5662Y8115D01*
X5652Y8122D01*
X5651Y8122D01*
X5637Y8125D01*
X5624Y8122D01*
X5623Y8122D01*
X5612Y8115D01*
X5602Y8122D01*
X5601Y8122D01*
X5587Y8125D01*
X5574Y8122D01*
X5573Y8122D01*
X5562Y8115D01*
X5552Y8122D01*
X5551Y8122D01*
X5537Y8125D01*
X5524Y8122D01*
X5523Y8122D01*
X5512Y8115D01*
X5502Y8122D01*
X5501Y8122D01*
X5487Y8125D01*
X5474Y8122D01*
X5462Y8115D01*
X5462D01*
X5451Y8122D01*
X5437Y8125D01*
X5424Y8122D01*
X5412Y8115D01*
X5412D01*
X5401Y8122D01*
X5387Y8125D01*
X5374Y8122D01*
X5362Y8115D01*
X5362D01*
X5351Y8122D01*
X5337Y8125D01*
X5324Y8122D01*
X5312Y8115D01*
X5312D01*
X5301Y8122D01*
X5287Y8125D01*
X5274Y8122D01*
X5273Y8122D01*
X5262Y8115D01*
X5252Y8122D01*
X5251Y8122D01*
X5237Y8125D01*
X5224Y8122D01*
X5212Y8115D01*
X5212D01*
X5201Y8122D01*
X5187Y8125D01*
X5174Y8122D01*
X5162Y8115D01*
X5162D01*
X5151Y8122D01*
X5137Y8125D01*
X5124Y8122D01*
X5123Y8122D01*
X5112Y8115D01*
X5102Y8122D01*
X5101Y8122D01*
X5087Y8125D01*
X5074Y8122D01*
X5073Y8122D01*
X5062Y8115D01*
X5052Y8122D01*
X5051Y8122D01*
X5037Y8125D01*
X5024Y8122D01*
X5023Y8122D01*
X5012Y8115D01*
X5002Y8122D01*
X5001Y8122D01*
X4987Y8125D01*
X4974Y8122D01*
X4973Y8122D01*
X4962Y8115D01*
X4952Y8122D01*
X4951Y8122D01*
X4937Y8125D01*
X4924Y8122D01*
X4912Y8115D01*
X4912D01*
X4901Y8122D01*
X4887Y8125D01*
X4874Y8122D01*
X4873Y8122D01*
X4869Y8123D01*
X4867Y8139D01*
X4921Y8193D01*
X5697D01*
X5710Y8196D01*
X5721Y8203D01*
X5728Y8210D01*
X5768D01*
X5804Y8175D01*
D02*
G37*
G36*
X8726Y6509D02*
X8752Y6483D01*
X8929Y6306D01*
X8980Y6255D01*
X10606D01*
X10606Y6052D01*
X8523Y6052D01*
X8523Y7296D01*
X8726Y7296D01*
Y6509D01*
D02*
G37*
G36*
X23659Y8193D02*
X23655Y8184D01*
X23652Y8159D01*
X23655Y8134D01*
X23665Y8110D01*
X23680Y8090D01*
X23700Y8075D01*
X23724Y8065D01*
X23749Y8062D01*
X23774Y8065D01*
X23798Y8075D01*
X23805Y8080D01*
X23816Y8075D01*
Y7989D01*
X23805Y7984D01*
X23798Y7989D01*
X23774Y7999D01*
X23749Y8002D01*
X23724Y7999D01*
X23707Y7992D01*
X23393Y8306D01*
X23382Y8313D01*
X23368Y8316D01*
X23103D01*
Y8337D01*
X22983D01*
X22978Y8349D01*
X23005Y8377D01*
X23103D01*
Y8487D01*
X23115Y8489D01*
X23363D01*
X23659Y8193D01*
D02*
G37*
G36*
X22702Y3190D02*
X22700Y3188D01*
Y3004D01*
X22271D01*
X21351Y2084D01*
X21339Y2072D01*
X21236D01*
Y2070D01*
X12843Y2070D01*
X12843Y2528D01*
X21203Y2528D01*
X21204Y2530D01*
X22011Y3337D01*
X22555D01*
X22702Y3190D01*
D02*
G37*
G36*
X23816Y10021D02*
X23805Y10016D01*
X23798Y10021D01*
X23774Y10031D01*
X23749Y10034D01*
X23724Y10031D01*
X23700Y10021D01*
X23680Y10006D01*
X23665Y9986D01*
X23655Y9962D01*
X23652Y9937D01*
X23655Y9912D01*
X23665Y9888D01*
X23680Y9868D01*
X23700Y9853D01*
X23724Y9843D01*
X23749Y9840D01*
X23774Y9843D01*
X23798Y9853D01*
X23805Y9858D01*
X23816Y9853D01*
Y9767D01*
X23805Y9762D01*
X23798Y9767D01*
X23774Y9777D01*
X23749Y9780D01*
X23724Y9777D01*
X23700Y9767D01*
X23680Y9752D01*
X23665Y9732D01*
X23655Y9708D01*
X23652Y9683D01*
X23655Y9658D01*
X23665Y9634D01*
X23680Y9614D01*
X23700Y9599D01*
X23724Y9589D01*
X23749Y9586D01*
X23774Y9589D01*
X23798Y9599D01*
X23805Y9604D01*
X23816Y9599D01*
Y9513D01*
X23805Y9508D01*
X23798Y9513D01*
X23774Y9523D01*
X23749Y9526D01*
X23724Y9523D01*
X23701Y9513D01*
X23289D01*
X23267Y9523D01*
X23212Y9578D01*
X23214Y9584D01*
X23218Y9589D01*
X23241Y9586D01*
X23266Y9589D01*
X23290Y9599D01*
X23310Y9614D01*
X23325Y9634D01*
X23335Y9658D01*
X23338Y9683D01*
X23335Y9708D01*
X23325Y9732D01*
X23310Y9752D01*
X23290Y9767D01*
X23266Y9777D01*
X23241Y9780D01*
X23216Y9777D01*
X23192Y9767D01*
X23172Y9752D01*
X23157Y9732D01*
X23147Y9708D01*
X23144Y9683D01*
X23147Y9660D01*
X23142Y9656D01*
X23136Y9654D01*
X22643Y10146D01*
X22626Y10159D01*
X22605Y10168D01*
X22584Y10171D01*
X20741D01*
X20735Y10183D01*
X20741Y10192D01*
X20749Y10212D01*
X20752Y10234D01*
X20749Y10255D01*
X20741Y10276D01*
X20728Y10293D01*
X20710Y10307D01*
X20696Y10312D01*
Y10544D01*
X20694Y10556D01*
X20686Y10567D01*
X20432Y10821D01*
X20422Y10828D01*
X20409Y10831D01*
X6311D01*
X6298Y10828D01*
X6288Y10821D01*
X6106Y10639D01*
X6099Y10628D01*
X6096Y10616D01*
Y10304D01*
X5983Y10191D01*
X5372D01*
X5359Y10188D01*
X5349Y10181D01*
X4864Y9696D01*
X4856Y9685D01*
X4854Y9673D01*
Y9644D01*
X4841Y9634D01*
X4837Y9635D01*
X4824Y9632D01*
X4812Y9625D01*
X4805Y9613D01*
X4802Y9600D01*
Y9560D01*
X4323D01*
X4309Y9557D01*
X4297Y9549D01*
X3914Y9166D01*
X3906Y9155D01*
X3904Y9141D01*
Y7464D01*
X3906Y7451D01*
X3914Y7439D01*
X4368Y6985D01*
X4380Y6977D01*
X4393Y6975D01*
X5094D01*
X5831Y6237D01*
X5843Y6230D01*
X5856Y6227D01*
X7888D01*
X7914Y6201D01*
X7914Y6199D01*
X7922Y6187D01*
X8013Y6096D01*
X8009Y6084D01*
X7364D01*
X7363Y6087D01*
X7349Y6105D01*
X7332Y6118D01*
X7312Y6127D01*
X7290Y6129D01*
X7268Y6127D01*
X7248Y6118D01*
X7230Y6105D01*
X7217Y6087D01*
X7216Y6084D01*
X6541D01*
X5588Y5131D01*
X3194Y5131D01*
X3188Y5146D01*
X3171Y5168D01*
X3149Y5185D01*
X3124Y5195D01*
X3096Y5199D01*
X3069Y5195D01*
X3043Y5185D01*
X3021Y5168D01*
X3005Y5146D01*
X2998Y5131D01*
X2912D01*
X2907Y5144D01*
X2916Y5150D01*
X2931Y5170D01*
X2941Y5193D01*
X2944Y5219D01*
X2941Y5244D01*
X2931Y5267D01*
X2916Y5287D01*
X2896Y5303D01*
X2872Y5312D01*
X2847Y5316D01*
X2822Y5312D01*
X2809Y5307D01*
X2652Y5464D01*
Y5886D01*
X2862Y6096D01*
X2866Y6100D01*
X2874Y6112D01*
X2877Y6126D01*
Y6690D01*
X2889Y6695D01*
X2926Y6658D01*
X2936Y6651D01*
X2949Y6648D01*
X3218D01*
X3220Y6644D01*
X3238Y6633D01*
X3258Y6629D01*
X3278Y6633D01*
X3295Y6644D01*
X3306Y6662D01*
X3310Y6682D01*
X3306Y6702D01*
X3295Y6719D01*
X3278Y6730D01*
X3258Y6734D01*
X3238Y6730D01*
X3220Y6719D01*
X3218Y6715D01*
X2963D01*
X2911Y6767D01*
Y6855D01*
X2791D01*
Y6825D01*
X2690D01*
Y6831D01*
X2640Y6881D01*
X2541D01*
X2492Y6831D01*
Y6732D01*
X2541Y6683D01*
X2640D01*
X2690Y6732D01*
Y6754D01*
X2791D01*
Y6725D01*
X2805D01*
Y6140D01*
X2749Y6084D01*
X2591Y5926D01*
X2583Y5914D01*
X2581Y5901D01*
Y5450D01*
X2583Y5436D01*
X2591Y5424D01*
X2759Y5257D01*
X2754Y5244D01*
X2750Y5219D01*
X2754Y5193D01*
X2763Y5170D01*
X2779Y5150D01*
X2787Y5144D01*
X2783Y5131D01*
X2311D01*
Y6083D01*
X2312Y6084D01*
X2286D01*
Y6163D01*
X2299Y6175D01*
X2386D01*
X2436Y6224D01*
Y6323D01*
X2386Y6373D01*
X2287D01*
X2286Y6373D01*
X2286Y10935D01*
X23816Y10935D01*
X23816Y10021D01*
D02*
G37*
G36*
X13579Y2970D02*
X12475Y2970D01*
X12475Y4765D01*
X13579D01*
X13579Y2970D01*
D02*
G37*
G36*
X6234Y10592D02*
Y10254D01*
X6397D01*
X6625Y10027D01*
X6642Y10013D01*
X6663Y10005D01*
X6684Y10002D01*
X22549D01*
X23147Y9403D01*
X23157Y9380D01*
X23172Y9360D01*
X23192Y9345D01*
X23216Y9335D01*
X23241Y9332D01*
X23266Y9335D01*
X23289Y9345D01*
X23701D01*
X23724Y9335D01*
X23749Y9332D01*
X23774Y9335D01*
X23798Y9345D01*
X23805Y9350D01*
X23816Y9345D01*
X23816Y9005D01*
X23805Y9000D01*
X23798Y9005D01*
X23774Y9015D01*
X23749Y9018D01*
X23724Y9015D01*
X23700Y9005D01*
X23680Y8990D01*
X23665Y8970D01*
X23659Y8954D01*
X23331D01*
X23325Y8970D01*
X23310Y8990D01*
X23290Y9005D01*
X23266Y9015D01*
X23241Y9018D01*
X23216Y9015D01*
X23192Y9005D01*
X23172Y8990D01*
X23157Y8970D01*
X23148Y8949D01*
X22911D01*
X22899Y8946D01*
X22888Y8939D01*
X21607Y7659D01*
X21600Y7648D01*
X21598Y7635D01*
Y6629D01*
X21053Y6084D01*
X20939D01*
X20939Y6255D01*
X20937Y6263D01*
X20933Y6269D01*
X20926Y6274D01*
X20918Y6275D01*
X20617D01*
X20608Y6282D01*
X20592Y6289D01*
X20574Y6291D01*
X20556Y6289D01*
X20540Y6282D01*
X20531Y6275D01*
X20160D01*
X20151Y6282D01*
X20134Y6289D01*
X20117Y6291D01*
X20099Y6289D01*
X20083Y6282D01*
X20074Y6275D01*
X20058D01*
X20049Y6282D01*
X20033Y6289D01*
X20015Y6291D01*
X19998Y6289D01*
X19981Y6282D01*
X19972Y6275D01*
X19956D01*
X19948Y6282D01*
X19931Y6289D01*
X19914Y6291D01*
X19896Y6289D01*
X19880Y6282D01*
X19871Y6275D01*
X19855D01*
X19846Y6282D01*
X19830Y6289D01*
X19812Y6291D01*
X19794Y6289D01*
X19778Y6282D01*
X19769Y6275D01*
X19753D01*
X19744Y6282D01*
X19728Y6289D01*
X19710Y6291D01*
X19693Y6289D01*
X19676Y6282D01*
X19668Y6275D01*
X19652D01*
X19643Y6282D01*
X19626Y6289D01*
X19609Y6291D01*
X19591Y6289D01*
X19575Y6282D01*
X19566Y6275D01*
X19550D01*
X19541Y6282D01*
X19525Y6289D01*
X19507Y6291D01*
X19490Y6289D01*
X19473Y6282D01*
X19464Y6275D01*
X19448D01*
X19440Y6282D01*
X19423Y6289D01*
X19406Y6291D01*
X19388Y6289D01*
X19372Y6282D01*
X19363Y6275D01*
X19347D01*
X19338Y6282D01*
X19322Y6289D01*
X19304Y6291D01*
X19287Y6289D01*
X19256Y6320D01*
X19256Y6320D01*
X19078Y6498D01*
X19078Y6498D01*
X19059Y6517D01*
Y7296D01*
X19057Y7304D01*
X19053Y7311D01*
X19046Y7315D01*
X19039Y7317D01*
X18835Y7317D01*
X18828Y7315D01*
X18821Y7311D01*
X18817Y7304D01*
X18816Y7299D01*
X18813Y7298D01*
X18799Y7287D01*
X18788Y7273D01*
X18781Y7257D01*
X18779Y7239D01*
X18781Y7221D01*
X18788Y7205D01*
X18793Y7198D01*
X18798Y7188D01*
X18793Y7179D01*
X18788Y7171D01*
X18781Y7155D01*
X18779Y7137D01*
X18781Y7120D01*
X18788Y7103D01*
X18793Y7096D01*
X18798Y7087D01*
X18793Y7077D01*
X18788Y7070D01*
X18781Y7053D01*
X18779Y7036D01*
X18781Y7018D01*
X18788Y7002D01*
X18793Y6994D01*
X18798Y6985D01*
X18793Y6976D01*
X18788Y6968D01*
X18781Y6952D01*
X18779Y6934D01*
X18781Y6917D01*
X18788Y6900D01*
X18799Y6886D01*
X18813Y6875D01*
X18815Y6874D01*
Y6689D01*
X18813Y6688D01*
X18799Y6678D01*
X18788Y6663D01*
X18781Y6647D01*
X18779Y6629D01*
X18781Y6612D01*
X18788Y6595D01*
X18799Y6581D01*
X18813Y6570D01*
X18815Y6570D01*
Y6084D01*
X13933D01*
Y6127D01*
X13803D01*
Y6122D01*
X13791Y6117D01*
X13790Y6119D01*
X13775Y6130D01*
X13759Y6136D01*
X13741Y6139D01*
X13724Y6136D01*
X13707Y6130D01*
X13693Y6119D01*
X13682Y6105D01*
X13676Y6088D01*
X13675Y6084D01*
X10643Y6084D01*
X10634Y6094D01*
X10634Y6096D01*
X10632Y6114D01*
X10626Y6128D01*
X10626Y6255D01*
X10625Y6263D01*
X10620Y6269D01*
X10614Y6274D01*
X10606Y6275D01*
X8989D01*
X8944Y6320D01*
X8944Y6320D01*
X8766Y6498D01*
X8766Y6498D01*
X8747Y6517D01*
Y7296D01*
X8745Y7304D01*
X8741Y7311D01*
X8734Y7315D01*
X8726Y7317D01*
X8523Y7317D01*
X8515Y7315D01*
X8509Y7311D01*
X8504Y7304D01*
X8503Y7296D01*
Y7250D01*
X8501Y7248D01*
X8494Y7231D01*
X8492Y7214D01*
X8494Y7196D01*
X8501Y7180D01*
X8503Y7177D01*
Y7148D01*
X8501Y7146D01*
X8494Y7130D01*
X8492Y7112D01*
X8494Y7094D01*
X8501Y7078D01*
X8503Y7076D01*
Y7047D01*
X8501Y7044D01*
X8494Y7028D01*
X8492Y7010D01*
X8494Y6993D01*
X8501Y6976D01*
X8503Y6974D01*
Y6945D01*
X8501Y6943D01*
X8494Y6926D01*
X8492Y6909D01*
X8494Y6891D01*
X8501Y6875D01*
X8503Y6872D01*
X8503Y6640D01*
X8501Y6638D01*
X8494Y6622D01*
X8492Y6604D01*
X8494Y6586D01*
X8501Y6570D01*
X8503Y6568D01*
Y6084D01*
X8467D01*
X8221Y6329D01*
X8221Y6332D01*
X8214Y6342D01*
X7954Y6602D01*
X7943Y6609D01*
X7930Y6612D01*
X6364D01*
X5221Y7755D01*
Y7894D01*
X5233Y7904D01*
X5237Y7904D01*
X5251Y7906D01*
X5252Y7907D01*
X5262Y7914D01*
X5273Y7907D01*
X5274Y7906D01*
X5287Y7904D01*
X5301Y7906D01*
X5312Y7914D01*
X5312D01*
X5324Y7906D01*
X5337Y7904D01*
X5351Y7906D01*
X5352Y7907D01*
X5362Y7914D01*
X5373Y7907D01*
X5374Y7906D01*
X5387Y7904D01*
X5401Y7906D01*
X5412Y7914D01*
X5412D01*
X5424Y7906D01*
X5437Y7904D01*
X5451Y7906D01*
X5462Y7914D01*
X5462D01*
X5474Y7906D01*
X5487Y7904D01*
X5501Y7906D01*
X5502Y7907D01*
X5512Y7914D01*
X5523Y7907D01*
X5524Y7906D01*
X5537Y7904D01*
X5551Y7906D01*
X5552Y7907D01*
X5562Y7914D01*
X5573Y7907D01*
X5574Y7906D01*
X5580Y7905D01*
X5589Y7893D01*
X5589Y7891D01*
X5588Y7888D01*
X5534D01*
Y7817D01*
X5530Y7810D01*
X5527Y7797D01*
Y7740D01*
X5507D01*
Y7500D01*
X5618D01*
Y7740D01*
X5598D01*
Y7758D01*
X5644D01*
Y7828D01*
X5662Y7846D01*
X5666Y7846D01*
X5684Y7828D01*
Y7758D01*
X5725D01*
X5729Y7755D01*
Y7740D01*
X5709D01*
Y7500D01*
X5820D01*
Y7740D01*
X5800D01*
Y7770D01*
X5797Y7783D01*
X5794Y7788D01*
Y7831D01*
X5806Y7836D01*
X5839Y7802D01*
Y7707D01*
X5861D01*
Y7647D01*
X5863Y7634D01*
X5870Y7623D01*
X5960Y7533D01*
X5952Y7515D01*
X5950Y7493D01*
X5952Y7471D01*
X5961Y7451D01*
X5974Y7434D01*
X5992Y7420D01*
X6012Y7412D01*
X6034Y7409D01*
X6056Y7412D01*
X6076Y7420D01*
X6093Y7434D01*
X6107Y7451D01*
X6115Y7471D01*
X6118Y7493D01*
X6115Y7515D01*
X6107Y7535D01*
X6093Y7553D01*
X6076Y7566D01*
X6056Y7575D01*
X6034Y7577D01*
X6013Y7575D01*
X5927Y7660D01*
Y7707D01*
X5949D01*
Y7804D01*
X5961Y7809D01*
X5989Y7780D01*
Y7707D01*
X6099D01*
Y7837D01*
X6026D01*
X5968Y7895D01*
X5971Y7901D01*
X5976Y7906D01*
X5987Y7904D01*
X6001Y7906D01*
X6012Y7914D01*
X6012D01*
X6024Y7906D01*
X6037Y7904D01*
X6051Y7906D01*
X6062Y7914D01*
X6070Y7925D01*
X6072Y7939D01*
Y8090D01*
X6070Y8103D01*
X6062Y8115D01*
X6051Y8122D01*
X6037Y8125D01*
X6024Y8122D01*
X6012Y8115D01*
X6012D01*
X6001Y8122D01*
X5987Y8125D01*
X5974Y8122D01*
X5962Y8115D01*
X5962D01*
X5951Y8122D01*
X5937Y8125D01*
X5924Y8122D01*
X5912Y8115D01*
X5912D01*
X5901Y8122D01*
X5887Y8125D01*
X5883Y8124D01*
X5871Y8134D01*
Y8188D01*
X5868Y8201D01*
X5861Y8212D01*
X5829Y8244D01*
X5834Y8255D01*
X6068D01*
X6071Y8256D01*
X6084Y8256D01*
X6090Y8248D01*
X6092Y8244D01*
Y8244D01*
X6084Y8233D01*
X6082Y8219D01*
X6084Y8206D01*
X6085Y8205D01*
X6092Y8194D01*
X6085Y8184D01*
X6084Y8183D01*
X6082Y8169D01*
X6084Y8156D01*
X6092Y8144D01*
X6103Y8137D01*
X6117Y8134D01*
X6268D01*
X6281Y8137D01*
X6293Y8144D01*
X6300Y8156D01*
X6303Y8169D01*
X6300Y8183D01*
X6300Y8184D01*
X6293Y8194D01*
X6300Y8205D01*
X6300Y8206D01*
X6303Y8219D01*
X6300Y8233D01*
X6293Y8244D01*
Y8244D01*
X6300Y8256D01*
X6303Y8269D01*
X6300Y8283D01*
X6293Y8294D01*
Y8294D01*
X6300Y8306D01*
X6303Y8319D01*
X6300Y8333D01*
X6293Y8344D01*
Y8344D01*
X6300Y8356D01*
X6303Y8369D01*
X6303Y8371D01*
X6313Y8384D01*
X6387D01*
Y8351D01*
X6510D01*
X6517Y8351D01*
X6523Y8341D01*
Y8321D01*
X6517Y8311D01*
X6387D01*
Y8201D01*
X6517D01*
X6523Y8196D01*
Y8196D01*
X6685D01*
Y8358D01*
X6529D01*
X6523Y8358D01*
X6517Y8368D01*
Y8461D01*
X6387D01*
Y8455D01*
X6313D01*
X6303Y8468D01*
X6303Y8469D01*
X6300Y8483D01*
X6293Y8494D01*
Y8494D01*
X6300Y8506D01*
X6303Y8519D01*
X6300Y8533D01*
X6293Y8544D01*
Y8544D01*
X6300Y8556D01*
X6303Y8569D01*
X6300Y8583D01*
X6293Y8594D01*
Y8594D01*
X6300Y8606D01*
X6303Y8619D01*
X6300Y8633D01*
X6293Y8644D01*
Y8644D01*
X6300Y8656D01*
X6303Y8669D01*
X6300Y8683D01*
X6293Y8694D01*
Y8694D01*
X6300Y8706D01*
X6303Y8719D01*
X6300Y8733D01*
X6293Y8744D01*
Y8744D01*
X6300Y8756D01*
X6303Y8769D01*
X6300Y8783D01*
X6293Y8794D01*
Y8794D01*
X6300Y8806D01*
X6303Y8819D01*
X6300Y8833D01*
X6293Y8844D01*
X6281Y8852D01*
X6268Y8854D01*
X6117D01*
X6103Y8852D01*
X6092Y8844D01*
X6084Y8833D01*
X6082Y8819D01*
X6084Y8806D01*
X6092Y8794D01*
Y8794D01*
X6084Y8783D01*
X6082Y8769D01*
X6084Y8756D01*
X6092Y8744D01*
Y8744D01*
X6084Y8733D01*
X6082Y8719D01*
X6084Y8706D01*
X6092Y8694D01*
Y8694D01*
X6084Y8683D01*
X6082Y8669D01*
X6084Y8656D01*
X6092Y8644D01*
Y8644D01*
X6084Y8633D01*
X6082Y8619D01*
X6084Y8606D01*
X6092Y8594D01*
Y8594D01*
X6084Y8583D01*
X6082Y8569D01*
X6084Y8556D01*
X6092Y8544D01*
Y8544D01*
X6084Y8533D01*
X6082Y8519D01*
X6084Y8506D01*
X6092Y8494D01*
Y8494D01*
X6084Y8483D01*
X6082Y8469D01*
X6082Y8468D01*
X6071Y8455D01*
X5311D01*
X5304Y8461D01*
X5293Y8469D01*
X5279Y8472D01*
X5064D01*
X5049Y8482D01*
X5029Y8486D01*
X5009Y8482D01*
X4992Y8470D01*
X4980Y8453D01*
X4976Y8433D01*
X4980Y8413D01*
X4992Y8395D01*
X5009Y8384D01*
X5029Y8380D01*
X5049Y8384D01*
X5067Y8395D01*
X5070Y8400D01*
X5197D01*
X5198Y8398D01*
X5202Y8388D01*
X5199Y8369D01*
X5203Y8349D01*
X5209Y8339D01*
X5202Y8327D01*
X4926D01*
X4925Y8328D01*
X4908Y8340D01*
X4887Y8344D01*
X4867Y8340D01*
X4850Y8328D01*
X4839Y8311D01*
X4835Y8291D01*
X4839Y8271D01*
X4850Y8254D01*
X4861Y8246D01*
X4864Y8231D01*
X4805Y8172D01*
X4792Y8176D01*
X4790Y8183D01*
X4783Y8194D01*
Y8194D01*
X4790Y8206D01*
X4793Y8219D01*
X4790Y8233D01*
X4783Y8244D01*
Y8244D01*
X4790Y8256D01*
X4793Y8269D01*
X4790Y8283D01*
X4783Y8294D01*
Y8294D01*
X4790Y8306D01*
X4793Y8319D01*
X4790Y8333D01*
X4783Y8344D01*
Y8344D01*
X4790Y8356D01*
X4793Y8369D01*
X4790Y8383D01*
X4783Y8394D01*
Y8394D01*
X4790Y8406D01*
X4793Y8419D01*
X4790Y8433D01*
X4783Y8444D01*
Y8444D01*
X4790Y8456D01*
X4793Y8469D01*
X4790Y8483D01*
X4783Y8494D01*
Y8494D01*
X4790Y8506D01*
X4793Y8519D01*
X4790Y8533D01*
X4783Y8544D01*
Y8544D01*
X4790Y8556D01*
X4793Y8569D01*
X4790Y8583D01*
X4783Y8594D01*
Y8594D01*
X4790Y8606D01*
X4793Y8619D01*
X4790Y8633D01*
X4783Y8644D01*
Y8644D01*
X4790Y8656D01*
X4793Y8669D01*
X4790Y8683D01*
X4783Y8694D01*
X4771Y8702D01*
X4758Y8704D01*
X4607D01*
X4593Y8702D01*
X4591Y8700D01*
X4587D01*
X4575Y8698D01*
X4564Y8690D01*
X4545Y8671D01*
X4535Y8664D01*
Y8664D01*
X4535Y8664D01*
X4405D01*
X4405Y8664D01*
X4393Y8665D01*
X4384Y8676D01*
X4366Y8690D01*
X4346Y8698D01*
X4324Y8701D01*
X4302Y8698D01*
X4282Y8690D01*
X4265Y8676D01*
X4251Y8659D01*
X4243Y8639D01*
X4240Y8617D01*
X4243Y8595D01*
X4251Y8575D01*
X4265Y8557D01*
X4282Y8544D01*
X4302Y8535D01*
X4324Y8533D01*
X4346Y8535D01*
X4366Y8544D01*
X4384Y8557D01*
X4393Y8569D01*
X4405Y8565D01*
Y8544D01*
X4535D01*
Y8583D01*
X4537D01*
X4550Y8586D01*
X4557Y8591D01*
X4569Y8589D01*
X4573Y8587D01*
X4575Y8583D01*
X4574Y8583D01*
X4572Y8569D01*
X4574Y8556D01*
X4582Y8544D01*
Y8544D01*
X4574Y8533D01*
X4572Y8519D01*
X4574Y8506D01*
X4582Y8494D01*
Y8494D01*
X4574Y8483D01*
X4572Y8469D01*
X4574Y8456D01*
X4582Y8444D01*
Y8444D01*
X4574Y8433D01*
X4572Y8419D01*
X4574Y8406D01*
X4582Y8394D01*
Y8394D01*
X4574Y8383D01*
X4572Y8369D01*
X4574Y8356D01*
X4582Y8344D01*
Y8344D01*
X4574Y8333D01*
X4572Y8319D01*
X4574Y8306D01*
X4582Y8294D01*
Y8294D01*
X4574Y8283D01*
X4572Y8269D01*
X4574Y8256D01*
X4582Y8244D01*
Y8244D01*
X4574Y8233D01*
X4572Y8219D01*
X4574Y8206D01*
X4582Y8194D01*
Y8194D01*
X4574Y8183D01*
X4572Y8169D01*
X4574Y8156D01*
X4582Y8144D01*
X4593Y8137D01*
X4607Y8134D01*
X4749D01*
X4755Y8121D01*
X4421Y7788D01*
X4414Y7777D01*
X4412Y7764D01*
Y7711D01*
X4408Y7708D01*
X4396Y7691D01*
X4392Y7671D01*
X4396Y7651D01*
X4408Y7633D01*
X4425Y7622D01*
X4445Y7618D01*
X4465Y7622D01*
X4482Y7633D01*
X4494Y7651D01*
X4498Y7671D01*
X4494Y7691D01*
X4482Y7708D01*
X4478Y7711D01*
Y7751D01*
X4790Y8063D01*
X4802Y8058D01*
Y7939D01*
X4805Y7925D01*
X4812Y7914D01*
X4824Y7906D01*
X4837Y7904D01*
X4851Y7906D01*
X4852Y7907D01*
X4862Y7914D01*
X4873Y7907D01*
X4874Y7906D01*
X4887Y7904D01*
X4901Y7906D01*
X4912Y7914D01*
X4912D01*
X4924Y7906D01*
X4937Y7904D01*
X4951Y7906D01*
X4952Y7907D01*
X4962Y7914D01*
X4973Y7907D01*
X4974Y7906D01*
X4987Y7904D01*
X5001Y7906D01*
X5002Y7907D01*
X5012Y7914D01*
X5023Y7907D01*
X5024Y7906D01*
X5037Y7904D01*
X5051Y7906D01*
X5052Y7907D01*
X5062Y7914D01*
X5073Y7907D01*
X5074Y7906D01*
X5087Y7904D01*
X5091Y7904D01*
X5104Y7894D01*
Y7727D01*
X5106Y7714D01*
X5114Y7704D01*
X6313Y6504D01*
X6324Y6497D01*
X6337Y6494D01*
X7903D01*
X7938Y6460D01*
X7933Y6448D01*
X5933D01*
X5193Y7188D01*
X5182Y7196D01*
X5168Y7198D01*
X4468D01*
X4125Y7541D01*
Y9053D01*
X4306Y9234D01*
X4403D01*
X4410Y9221D01*
X4408Y9217D01*
X4398Y9215D01*
X4381Y9204D01*
X4370Y9187D01*
X4366Y9166D01*
X4370Y9146D01*
X4373Y9142D01*
X4366Y9129D01*
X4331D01*
X4330Y9131D01*
X4313Y9142D01*
X4293Y9146D01*
X4272Y9142D01*
X4255Y9131D01*
X4244Y9113D01*
X4240Y9093D01*
X4244Y9073D01*
X4255Y9056D01*
X4272Y9044D01*
X4293Y9040D01*
X4313Y9044D01*
X4330Y9056D01*
X4331Y9058D01*
X4445D01*
X4459Y9060D01*
X4470Y9068D01*
X4536Y9134D01*
X4561D01*
X4572Y9121D01*
X4572Y9119D01*
X4574Y9106D01*
X4582Y9094D01*
Y9094D01*
X4574Y9083D01*
X4572Y9069D01*
X4574Y9056D01*
X4582Y9044D01*
Y9044D01*
X4574Y9033D01*
X4572Y9019D01*
X4574Y9006D01*
X4582Y8994D01*
Y8994D01*
X4574Y8983D01*
X4572Y8969D01*
X4574Y8956D01*
X4582Y8944D01*
Y8944D01*
X4574Y8933D01*
X4572Y8919D01*
X4574Y8906D01*
X4582Y8894D01*
Y8894D01*
X4574Y8883D01*
X4572Y8869D01*
X4574Y8856D01*
X4582Y8844D01*
Y8844D01*
X4574Y8833D01*
X4572Y8819D01*
X4574Y8806D01*
X4582Y8794D01*
Y8794D01*
X4574Y8783D01*
X4572Y8769D01*
X4574Y8756D01*
X4582Y8744D01*
X4593Y8737D01*
X4607Y8734D01*
X4758D01*
X4771Y8737D01*
X4783Y8744D01*
X4790Y8756D01*
X4793Y8769D01*
X4790Y8783D01*
X4783Y8794D01*
Y8794D01*
X4790Y8806D01*
X4793Y8819D01*
X4790Y8833D01*
X4783Y8844D01*
Y8844D01*
X4790Y8856D01*
X4793Y8869D01*
X4790Y8883D01*
X4783Y8894D01*
Y8894D01*
X4790Y8906D01*
X4793Y8919D01*
X4790Y8933D01*
X4783Y8944D01*
Y8944D01*
X4790Y8956D01*
X4793Y8969D01*
X4790Y8983D01*
X4783Y8994D01*
Y8994D01*
X4790Y9006D01*
X4793Y9019D01*
X4790Y9033D01*
X4783Y9044D01*
Y9044D01*
X4790Y9056D01*
X4793Y9069D01*
X4790Y9083D01*
X4783Y9094D01*
Y9094D01*
X4790Y9106D01*
X4793Y9119D01*
X4790Y9133D01*
X4783Y9144D01*
Y9144D01*
X4790Y9156D01*
X4793Y9169D01*
X4790Y9183D01*
X4783Y9194D01*
Y9194D01*
X4790Y9206D01*
X4793Y9219D01*
X4790Y9233D01*
X4783Y9244D01*
Y9244D01*
X4790Y9256D01*
X4793Y9269D01*
X4790Y9283D01*
X4783Y9294D01*
Y9294D01*
X4790Y9306D01*
X4793Y9319D01*
X4790Y9333D01*
X4783Y9344D01*
Y9344D01*
X4790Y9356D01*
X4793Y9369D01*
X4790Y9383D01*
X4783Y9394D01*
X4771Y9402D01*
X4758Y9404D01*
X4684D01*
X4682Y9405D01*
X4270D01*
X4266Y9417D01*
X4337Y9489D01*
X4802D01*
Y9449D01*
X4805Y9435D01*
X4812Y9424D01*
X4824Y9416D01*
X4837Y9414D01*
X4851Y9416D01*
X4862Y9424D01*
X4862D01*
X4874Y9416D01*
X4887Y9414D01*
X4901Y9416D01*
X4912Y9424D01*
X4912D01*
X4924Y9416D01*
X4937Y9414D01*
X4951Y9416D01*
X4962Y9424D01*
X4962D01*
X4974Y9416D01*
X4987Y9414D01*
X5001Y9416D01*
X5002Y9417D01*
X5012Y9424D01*
X5023Y9417D01*
X5024Y9416D01*
X5037Y9414D01*
X5051Y9416D01*
X5062Y9424D01*
X5070Y9435D01*
X5072Y9449D01*
Y9524D01*
X5073Y9526D01*
Y9627D01*
X5103Y9657D01*
X5116Y9657D01*
X5131Y9647D01*
X5129Y9635D01*
X5128Y9633D01*
X5124Y9632D01*
X5112Y9625D01*
X5105Y9613D01*
X5102Y9600D01*
Y9449D01*
X5105Y9435D01*
X5112Y9424D01*
X5124Y9416D01*
X5137Y9414D01*
X5151Y9416D01*
X5152Y9417D01*
X5162Y9424D01*
X5173Y9417D01*
X5174Y9416D01*
X5187Y9414D01*
X5201Y9416D01*
X5202Y9417D01*
X5212Y9424D01*
X5223Y9417D01*
X5224Y9416D01*
X5237Y9414D01*
X5251Y9416D01*
X5262Y9424D01*
X5262D01*
X5274Y9416D01*
X5287Y9414D01*
X5301Y9416D01*
X5302Y9417D01*
X5312Y9424D01*
X5323Y9417D01*
X5324Y9416D01*
X5337Y9414D01*
X5351Y9416D01*
X5362Y9424D01*
X5362D01*
X5374Y9416D01*
X5387Y9414D01*
X5401Y9416D01*
X5412Y9424D01*
X5412D01*
X5424Y9416D01*
X5437Y9414D01*
X5451Y9416D01*
X5452Y9417D01*
X5462Y9424D01*
X5473Y9417D01*
X5474Y9416D01*
X5487Y9414D01*
X5501Y9416D01*
X5512Y9424D01*
X5512D01*
X5524Y9416D01*
X5537Y9414D01*
X5551Y9416D01*
X5552Y9417D01*
X5562Y9424D01*
X5573Y9417D01*
X5574Y9416D01*
X5587Y9414D01*
X5601Y9416D01*
X5612Y9424D01*
X5612D01*
X5624Y9416D01*
X5637Y9414D01*
X5651Y9416D01*
X5652Y9417D01*
X5662Y9424D01*
X5673Y9417D01*
X5674Y9416D01*
X5687Y9414D01*
X5701Y9416D01*
X5712Y9424D01*
X5712D01*
X5724Y9416D01*
X5737Y9414D01*
X5751Y9416D01*
X5762Y9424D01*
X5762D01*
X5774Y9416D01*
X5787Y9414D01*
X5801Y9416D01*
X5802Y9417D01*
X5812Y9424D01*
X5823Y9417D01*
X5824Y9416D01*
X5837Y9414D01*
X5839Y9414D01*
X5852Y9403D01*
Y9175D01*
X5854Y9161D01*
X5862Y9150D01*
X5942Y9070D01*
X5942Y9068D01*
X5946Y9048D01*
X5957Y9030D01*
X5974Y9019D01*
X5994Y9015D01*
X6015Y9019D01*
X6032Y9030D01*
X6043Y9048D01*
X6047Y9068D01*
X6043Y9088D01*
X6032Y9105D01*
X6015Y9117D01*
X5994Y9121D01*
X5992Y9120D01*
X5923Y9190D01*
Y9403D01*
X5936Y9414D01*
X5937Y9414D01*
X5951Y9416D01*
X5962Y9424D01*
X5970Y9435D01*
X5972Y9449D01*
Y9522D01*
X5973Y9524D01*
Y9605D01*
X6004Y9636D01*
X6006Y9635D01*
X6007Y9632D01*
X6010Y9621D01*
X6005Y9613D01*
X6002Y9600D01*
Y9527D01*
X6001Y9524D01*
X6002Y9521D01*
Y9449D01*
X6005Y9435D01*
X6012Y9424D01*
X6024Y9416D01*
X6037Y9414D01*
X6051Y9416D01*
X6062Y9424D01*
X6063Y9425D01*
X6079Y9427D01*
X6090Y9416D01*
X6090Y9416D01*
X6096Y9412D01*
Y9397D01*
X6092Y9394D01*
X6084Y9383D01*
X6082Y9369D01*
X6084Y9356D01*
X6092Y9344D01*
Y9344D01*
X6084Y9333D01*
X6082Y9319D01*
X6084Y9306D01*
X6092Y9294D01*
Y9294D01*
X6084Y9283D01*
X6082Y9269D01*
X6084Y9256D01*
X6092Y9244D01*
Y9244D01*
X6084Y9233D01*
X6082Y9219D01*
X6084Y9206D01*
X6092Y9194D01*
Y9194D01*
X6084Y9183D01*
X6082Y9169D01*
X6084Y9156D01*
X6092Y9144D01*
Y9144D01*
X6084Y9133D01*
X6082Y9119D01*
X6084Y9106D01*
X6092Y9094D01*
Y9094D01*
X6084Y9083D01*
X6082Y9069D01*
X6084Y9056D01*
X6092Y9044D01*
Y9044D01*
X6084Y9033D01*
X6082Y9019D01*
X6084Y9006D01*
X6092Y8994D01*
Y8994D01*
X6084Y8983D01*
X6082Y8969D01*
X6084Y8956D01*
X6092Y8944D01*
Y8944D01*
X6084Y8933D01*
X6082Y8919D01*
X6084Y8906D01*
X6092Y8894D01*
X6103Y8887D01*
X6117Y8884D01*
X6268D01*
X6277Y8886D01*
X6296D01*
Y8876D01*
X6416D01*
Y8937D01*
X6420Y8942D01*
X6423Y8960D01*
Y9101D01*
X6537Y9214D01*
X6553Y9212D01*
X6575Y9215D01*
X6595Y9223D01*
X6613Y9237D01*
X6626Y9254D01*
X6635Y9275D01*
X6637Y9296D01*
X6635Y9318D01*
X6626Y9339D01*
X6613Y9356D01*
X6606Y9361D01*
Y9384D01*
X6619D01*
Y9514D01*
X6499D01*
Y9495D01*
X6142D01*
X6080Y9557D01*
X6072Y9562D01*
Y9600D01*
X6070Y9613D01*
X6062Y9625D01*
X6055Y9629D01*
X6059Y9642D01*
X6499D01*
Y9587D01*
X6619D01*
Y9717D01*
X6631Y9720D01*
X9254D01*
X9293Y9681D01*
X9293Y9677D01*
X9297Y9656D01*
X9309Y9639D01*
X9326Y9627D01*
X9347Y9623D01*
X9368Y9627D01*
X9386Y9639D01*
X9398Y9656D01*
X9402Y9677D01*
X9398Y9698D01*
X9386Y9716D01*
X9368Y9728D01*
X9347Y9732D01*
X9344Y9731D01*
X9316Y9759D01*
X9321Y9770D01*
X11415D01*
X11505Y9681D01*
X11516Y9673D01*
X11530Y9670D01*
X13470D01*
X13483Y9673D01*
X13495Y9681D01*
X13497Y9682D01*
X15052D01*
X15066Y9685D01*
X15077Y9693D01*
X15110Y9725D01*
X15113Y9724D01*
X15134Y9729D01*
X15152Y9740D01*
X15163Y9758D01*
X15168Y9779D01*
X15163Y9800D01*
X15152Y9818D01*
X15134Y9829D01*
X15113Y9834D01*
X15092Y9829D01*
X15074Y9818D01*
X15063Y9800D01*
X15058Y9779D01*
X15059Y9776D01*
X15037Y9754D01*
X13482D01*
X13468Y9751D01*
X13457Y9743D01*
X13455Y9742D01*
X11735D01*
X11731Y9753D01*
X11731Y9754D01*
X11748Y9766D01*
X11760Y9783D01*
X11764Y9804D01*
X11760Y9825D01*
X11748Y9843D01*
X11730Y9855D01*
X11717Y9858D01*
X11718Y9870D01*
X19391D01*
X19555Y9706D01*
X19554Y9703D01*
X19558Y9682D01*
X19570Y9664D01*
X19588Y9652D01*
X19609Y9648D01*
X19630Y9652D01*
X19647Y9664D01*
X19659Y9682D01*
X19663Y9703D01*
X19659Y9724D01*
X19647Y9741D01*
X19630Y9753D01*
X19609Y9757D01*
X19605Y9757D01*
X19431Y9931D01*
X19419Y9939D01*
X19406Y9942D01*
X5842D01*
X5828Y9939D01*
X5817Y9931D01*
X5662Y9776D01*
X5654Y9765D01*
X5652Y9751D01*
Y9645D01*
X5639Y9635D01*
X5637Y9635D01*
X5624Y9632D01*
X5612Y9625D01*
X5612D01*
X5601Y9632D01*
X5587Y9635D01*
X5574Y9632D01*
X5573Y9632D01*
X5562Y9625D01*
X5552Y9632D01*
X5551Y9632D01*
X5537Y9635D01*
X5524Y9632D01*
X5512Y9625D01*
X5512D01*
X5501Y9632D01*
X5487Y9635D01*
X5474Y9632D01*
X5473Y9632D01*
X5462Y9625D01*
X5452Y9632D01*
X5451Y9632D01*
X5437Y9635D01*
X5424Y9632D01*
X5412Y9625D01*
X5412D01*
X5401Y9632D01*
X5387Y9635D01*
X5374Y9632D01*
X5362Y9625D01*
X5362D01*
X5351Y9632D01*
X5337Y9635D01*
X5324Y9632D01*
X5323Y9632D01*
X5312Y9625D01*
X5302Y9632D01*
X5301Y9632D01*
X5287Y9635D01*
X5274Y9632D01*
X5262Y9625D01*
X5262D01*
X5251Y9632D01*
X5237Y9635D01*
X5224Y9632D01*
X5223Y9632D01*
X5222Y9631D01*
X5222Y9632D01*
X5221Y9635D01*
X5221Y9647D01*
X5236Y9657D01*
X5249Y9675D01*
X5257Y9695D01*
X5260Y9717D01*
X5257Y9739D01*
X5249Y9759D01*
X5236Y9777D01*
X5218Y9790D01*
X5198Y9798D01*
X5176Y9801D01*
X5164Y9800D01*
X5158Y9812D01*
X5407Y10061D01*
X6030D01*
X6043Y10063D01*
X6054Y10070D01*
X6198Y10215D01*
X6206Y10226D01*
X6208Y10239D01*
Y10583D01*
X6222Y10597D01*
X6234Y10592D01*
D02*
G37*
G36*
X13065Y10335D02*
X13076Y10327D01*
X13089Y10325D01*
X13100D01*
X13161Y10264D01*
X13157Y10255D01*
X13154Y10234D01*
X13157Y10212D01*
X13166Y10192D01*
X13172Y10183D01*
X13166Y10171D01*
X6719D01*
X6429Y10461D01*
Y10624D01*
X6266D01*
X6261Y10636D01*
X6336Y10711D01*
X9165D01*
Y10660D01*
X9295D01*
Y10711D01*
X12689D01*
X13065Y10335D01*
D02*
G37*
G36*
X20630Y10530D02*
Y10308D01*
X20626Y10307D01*
X20608Y10293D01*
X20595Y10276D01*
X20587Y10255D01*
X20584Y10234D01*
X20587Y10212D01*
X20595Y10192D01*
X20601Y10183D01*
X20595Y10171D01*
X13311D01*
X13305Y10183D01*
X13311Y10192D01*
X13320Y10212D01*
X13323Y10234D01*
X13320Y10255D01*
X13311Y10276D01*
X13298Y10293D01*
X13281Y10307D01*
X13260Y10315D01*
X13238Y10318D01*
X13217Y10315D01*
X13208Y10311D01*
X13138Y10382D01*
X13127Y10389D01*
X13114Y10391D01*
X13102D01*
X12741Y10752D01*
X12746Y10764D01*
X13697D01*
Y10706D01*
X13827D01*
Y10764D01*
X20395D01*
X20630Y10530D01*
D02*
G37*
G36*
X23799Y2922D02*
X23848Y2873D01*
X23848Y2519D01*
X23808Y2479D01*
X22993Y2478D01*
X22984Y2487D01*
Y2922D01*
X23799Y2922D01*
D02*
G37*
G36*
X12322Y1960D02*
X21101Y1960D01*
X21101Y1960D01*
X21102Y1961D01*
X21358D01*
X21519Y2122D01*
X22301Y2904D01*
X22695Y2904D01*
X22695Y2641D01*
X21506Y1452D01*
X21102Y1452D01*
X21101Y1450D01*
X10848Y1456D01*
Y1479D01*
X10846Y1482D01*
Y5283D01*
X12322Y5283D01*
X12322Y1960D01*
D02*
G37*
G36*
X23805Y3428D02*
X23854Y3379D01*
X23854Y3025D01*
X23814Y2985D01*
X22999Y2984D01*
X22990Y2993D01*
Y3428D01*
X23805Y3428D01*
D02*
G37*
G36*
X6499Y9384D02*
X6513D01*
Y9370D01*
X6511Y9369D01*
X6494Y9356D01*
X6480Y9339D01*
X6472Y9318D01*
X6469Y9296D01*
X6471Y9280D01*
X6344Y9153D01*
X6334Y9138D01*
X6331Y9120D01*
X6331Y9120D01*
Y9006D01*
X6310D01*
X6302Y9016D01*
X6303Y9019D01*
X6300Y9033D01*
X6293Y9044D01*
Y9044D01*
X6300Y9056D01*
X6303Y9069D01*
X6300Y9083D01*
X6293Y9094D01*
Y9094D01*
X6300Y9106D01*
X6303Y9119D01*
X6300Y9133D01*
X6293Y9144D01*
Y9144D01*
X6300Y9156D01*
X6303Y9169D01*
X6300Y9183D01*
X6293Y9194D01*
Y9194D01*
X6300Y9206D01*
X6303Y9219D01*
X6300Y9233D01*
X6293Y9244D01*
Y9244D01*
X6300Y9256D01*
X6303Y9269D01*
X6300Y9283D01*
X6293Y9294D01*
Y9294D01*
X6300Y9306D01*
X6303Y9319D01*
X6300Y9333D01*
X6293Y9344D01*
Y9344D01*
X6300Y9356D01*
X6303Y9369D01*
X6300Y9383D01*
X6295Y9390D01*
X6301Y9403D01*
X6499D01*
Y9384D01*
D02*
G37*
G36*
X20535Y3611D02*
X21077Y3611D01*
X21435Y3969D01*
X22674D01*
Y3769D01*
X22637Y3732D01*
X21779D01*
X21627Y3580D01*
X21626Y3580D01*
X21331Y3285D01*
X19482D01*
Y3293D01*
X18999Y3293D01*
X18999Y5690D01*
X20535D01*
X20535Y3611D01*
D02*
G37*
G36*
X23665Y8872D02*
X23680Y8852D01*
X23700Y8837D01*
X23724Y8827D01*
X23749Y8824D01*
X23774Y8827D01*
X23798Y8837D01*
X23805Y8842D01*
X23816Y8837D01*
Y8751D01*
X23805Y8746D01*
X23798Y8751D01*
X23774Y8761D01*
X23749Y8764D01*
X23724Y8761D01*
X23700Y8751D01*
X23680Y8736D01*
X23665Y8716D01*
X23659Y8700D01*
X23331D01*
X23325Y8716D01*
X23310Y8736D01*
X23290Y8751D01*
X23266Y8761D01*
X23241Y8764D01*
X23216Y8761D01*
X23192Y8751D01*
X23172Y8736D01*
X23157Y8716D01*
X23148Y8695D01*
X22754D01*
X22750Y8706D01*
X22925Y8882D01*
X23153D01*
X23157Y8872D01*
X23172Y8852D01*
X23192Y8837D01*
X23216Y8827D01*
X23241Y8824D01*
X23266Y8827D01*
X23290Y8837D01*
X23310Y8852D01*
X23325Y8872D01*
X23331Y8888D01*
X23659D01*
X23665Y8872D01*
D02*
G37*
G36*
X16971Y3285D02*
X15866Y3285D01*
X15866Y4767D01*
X16971D01*
X16971Y3285D01*
D02*
G37*
G36*
X22678Y3572D02*
X22592Y3486D01*
X22007D01*
X21676Y3155D01*
X21676Y3155D01*
X21382Y2861D01*
X18118D01*
X18118Y3167D01*
X21296Y3167D01*
X21826Y3697D01*
X22678D01*
Y3572D01*
D02*
G37*
G36*
X15714Y3287D02*
X14246Y3285D01*
X14237Y3294D01*
X14237Y5232D01*
X15714Y5232D01*
X15714Y3287D01*
D02*
G37*
%LPC*%
G36*
X23241Y7240D02*
X23216Y7237D01*
X23192Y7227D01*
X23172Y7212D01*
X23157Y7192D01*
X23147Y7168D01*
X23144Y7143D01*
X23147Y7118D01*
X23157Y7094D01*
X23172Y7074D01*
X23192Y7059D01*
X23216Y7049D01*
X23241Y7046D01*
X23266Y7049D01*
X23290Y7059D01*
X23310Y7074D01*
X23325Y7094D01*
X23335Y7118D01*
X23338Y7143D01*
X23335Y7168D01*
X23325Y7192D01*
X23310Y7212D01*
X23290Y7227D01*
X23266Y7237D01*
X23241Y7240D01*
D02*
G37*
G36*
Y5462D02*
X23216Y5459D01*
X23192Y5449D01*
X23172Y5434D01*
X23157Y5414D01*
X23147Y5390D01*
X23144Y5365D01*
X23147Y5340D01*
X23157Y5316D01*
X23172Y5296D01*
X23192Y5281D01*
X23216Y5271D01*
X23241Y5268D01*
X23266Y5271D01*
X23290Y5281D01*
X23310Y5296D01*
X23325Y5316D01*
X23335Y5340D01*
X23338Y5365D01*
X23335Y5390D01*
X23325Y5414D01*
X23310Y5434D01*
X23290Y5449D01*
X23266Y5459D01*
X23241Y5462D01*
D02*
G37*
G36*
X22555Y6739D02*
X22533Y6736D01*
X22513Y6728D01*
X22496Y6714D01*
X22482Y6697D01*
X22474Y6677D01*
X22471Y6655D01*
X22474Y6633D01*
X22482Y6613D01*
X22496Y6595D01*
X22513Y6582D01*
X22533Y6573D01*
X22555Y6571D01*
X22577Y6573D01*
X22597Y6582D01*
X22615Y6595D01*
X22628Y6613D01*
X22637Y6633D01*
X22639Y6655D01*
X22637Y6677D01*
X22628Y6697D01*
X22615Y6714D01*
X22597Y6728D01*
X22577Y6736D01*
X22555Y6739D01*
D02*
G37*
G36*
X2640Y7135D02*
X2541D01*
X2492Y7085D01*
Y6986D01*
X2541Y6937D01*
X2640D01*
X2690Y6986D01*
Y7085D01*
X2640Y7135D01*
D02*
G37*
G36*
Y6373D02*
X2541D01*
X2492Y6323D01*
Y6224D01*
X2541Y6175D01*
X2640D01*
X2690Y6224D01*
Y6323D01*
X2640Y6373D01*
D02*
G37*
G36*
X3096Y5900D02*
X3069Y5896D01*
X3043Y5886D01*
X3021Y5869D01*
X3005Y5847D01*
X2994Y5822D01*
X2990Y5794D01*
X2994Y5767D01*
X3005Y5741D01*
X3021Y5719D01*
X3043Y5702D01*
X3069Y5692D01*
X3096Y5688D01*
X3124Y5692D01*
X3149Y5702D01*
X3171Y5719D01*
X3188Y5741D01*
X3199Y5767D01*
X3202Y5794D01*
X3199Y5822D01*
X3188Y5847D01*
X3171Y5869D01*
X3149Y5886D01*
X3124Y5896D01*
X3096Y5900D01*
D02*
G37*
G36*
X2640Y6627D02*
X2541D01*
X2492Y6577D01*
Y6478D01*
X2541Y6429D01*
X2640D01*
X2690Y6478D01*
Y6577D01*
X2640Y6627D01*
D02*
G37*
G36*
X2492Y8940D02*
X2466Y8937D01*
X2442Y8927D01*
X2421Y8911D01*
X2405Y8890D01*
X2395Y8865D01*
X2392Y8839D01*
X2395Y8813D01*
X2405Y8789D01*
X2421Y8768D01*
X2442Y8752D01*
X2466Y8742D01*
X2492Y8738D01*
X2519Y8742D01*
X2543Y8752D01*
X2564Y8768D01*
X2580Y8789D01*
X2590Y8813D01*
X2593Y8839D01*
X2590Y8865D01*
X2580Y8890D01*
X2564Y8911D01*
X2543Y8927D01*
X2519Y8937D01*
X2492Y8940D01*
D02*
G37*
G36*
Y9194D02*
X2466Y9191D01*
X2442Y9181D01*
X2421Y9165D01*
X2405Y9144D01*
X2395Y9119D01*
X2392Y9093D01*
X2395Y9067D01*
X2405Y9043D01*
X2421Y9022D01*
X2442Y9006D01*
X2466Y8996D01*
X2492Y8992D01*
X2519Y8996D01*
X2543Y9006D01*
X2564Y9022D01*
X2580Y9043D01*
X2590Y9067D01*
X2593Y9093D01*
X2590Y9119D01*
X2580Y9144D01*
X2564Y9165D01*
X2543Y9181D01*
X2519Y9191D01*
X2492Y9194D01*
D02*
G37*
G36*
Y8534D02*
X2466Y8530D01*
X2442Y8520D01*
X2421Y8504D01*
X2405Y8483D01*
X2395Y8459D01*
X2392Y8433D01*
X2395Y8407D01*
X2405Y8382D01*
X2421Y8361D01*
X2442Y8345D01*
X2466Y8335D01*
X2492Y8332D01*
X2519Y8335D01*
X2543Y8345D01*
X2564Y8361D01*
X2580Y8382D01*
X2590Y8407D01*
X2593Y8433D01*
X2590Y8459D01*
X2580Y8483D01*
X2564Y8504D01*
X2543Y8520D01*
X2519Y8530D01*
X2492Y8534D01*
D02*
G37*
G36*
X3377Y9052D02*
X3355Y9049D01*
X3335Y9040D01*
X3317Y9027D01*
X3304Y9010D01*
X3296Y8989D01*
X3293Y8968D01*
X3296Y8946D01*
X3304Y8925D01*
X3317Y8908D01*
X3324Y8903D01*
Y8613D01*
X3317Y8603D01*
X3308Y8583D01*
X3305Y8561D01*
X3308Y8539D01*
X3317Y8519D01*
X3330Y8501D01*
X3348Y8488D01*
X3368Y8480D01*
X3390Y8477D01*
X3411Y8480D01*
X3432Y8488D01*
X3449Y8501D01*
X3463Y8519D01*
X3471Y8539D01*
X3474Y8561D01*
X3471Y8583D01*
X3463Y8603D01*
X3449Y8621D01*
X3432Y8634D01*
X3430Y8635D01*
Y8903D01*
X3437Y8908D01*
X3450Y8925D01*
X3458Y8946D01*
X3461Y8968D01*
X3458Y8989D01*
X3450Y9010D01*
X3437Y9027D01*
X3419Y9040D01*
X3399Y9049D01*
X3377Y9052D01*
D02*
G37*
G36*
X23241Y10034D02*
X23216Y10031D01*
X23192Y10021D01*
X23172Y10006D01*
X23157Y9986D01*
X23147Y9962D01*
X23144Y9937D01*
X23147Y9912D01*
X23157Y9888D01*
X23172Y9868D01*
X23192Y9853D01*
X23216Y9843D01*
X23241Y9840D01*
X23266Y9843D01*
X23290Y9853D01*
X23310Y9868D01*
X23325Y9888D01*
X23335Y9912D01*
X23338Y9937D01*
X23335Y9962D01*
X23325Y9986D01*
X23310Y10006D01*
X23290Y10021D01*
X23266Y10031D01*
X23241Y10034D01*
D02*
G37*
G36*
X2557Y10605D02*
X2526Y10602D01*
X2495Y10593D01*
X2468Y10578D01*
X2443Y10558D01*
X2423Y10534D01*
X2408Y10506D01*
X2399Y10476D01*
X2396Y10444D01*
X2399Y10413D01*
X2408Y10383D01*
X2423Y10355D01*
X2443Y10331D01*
X2468Y10311D01*
X2495Y10296D01*
X2526Y10287D01*
X2557Y10284D01*
X2588Y10287D01*
X2619Y10296D01*
X2646Y10311D01*
X2671Y10331D01*
X2691Y10355D01*
X2706Y10383D01*
X2715Y10413D01*
X2718Y10444D01*
X2715Y10476D01*
X2706Y10506D01*
X2691Y10534D01*
X2671Y10558D01*
X2646Y10578D01*
X2619Y10593D01*
X2588Y10602D01*
X2557Y10605D01*
D02*
G37*
G36*
X6009Y10624D02*
X5814D01*
Y10473D01*
X4574D01*
Y10491D01*
X4316D01*
Y10473D01*
X3962D01*
X3941Y10470D01*
X3920Y10462D01*
X3903Y10448D01*
X3598Y10143D01*
X3585Y10126D01*
X3576Y10106D01*
X3573Y10084D01*
Y6096D01*
Y5855D01*
X3576Y5833D01*
X3585Y5813D01*
X3598Y5795D01*
X3615Y5782D01*
X3636Y5773D01*
X3658Y5770D01*
X4036D01*
Y5712D01*
X4050D01*
Y5598D01*
X4180D01*
Y5712D01*
X4226D01*
Y5916D01*
X4261D01*
Y5727D01*
X4263Y5719D01*
X4266Y5713D01*
Y5712D01*
X4268D01*
X4274Y5708D01*
X4281Y5706D01*
X4434D01*
X4434Y5706D01*
X4442Y5708D01*
X4447Y5712D01*
X4456D01*
Y5721D01*
X4459Y5724D01*
X4464Y5730D01*
X4465Y5738D01*
X4465Y5916D01*
X4496D01*
X4504Y5918D01*
X4511Y5922D01*
X4515Y5929D01*
X4516Y5931D01*
X4667D01*
X4668Y5929D01*
X4672Y5922D01*
X4679Y5918D01*
X4686Y5916D01*
X5334D01*
X5342Y5918D01*
X5348Y5922D01*
X5353Y5929D01*
X5354Y5937D01*
Y6096D01*
D01*
X5354Y6604D01*
X5353Y6612D01*
X5348Y6618D01*
X5342Y6623D01*
X5334Y6624D01*
X4039D01*
X4031Y6623D01*
X4024Y6618D01*
X4017Y6611D01*
X4013Y6605D01*
X4011Y6597D01*
Y6096D01*
Y5962D01*
X4011Y5962D01*
X4011Y5961D01*
X4011Y5961D01*
X4006Y5953D01*
X4002Y5950D01*
X4001Y5950D01*
X3988Y5952D01*
X3966Y5949D01*
X3946Y5940D01*
X3944Y5939D01*
X3742D01*
Y6084D01*
Y10049D01*
X3997Y10304D01*
X4316D01*
Y10299D01*
X4574D01*
Y10304D01*
X5814D01*
Y10254D01*
X6009D01*
Y10624D01*
D02*
G37*
G36*
X2492Y9829D02*
X2466Y9826D01*
X2442Y9816D01*
X2421Y9800D01*
X2405Y9779D01*
X2395Y9754D01*
X2392Y9728D01*
X2395Y9702D01*
X2405Y9678D01*
X2421Y9657D01*
X2442Y9641D01*
X2466Y9631D01*
X2492Y9627D01*
X2519Y9631D01*
X2543Y9641D01*
X2564Y9657D01*
X2580Y9678D01*
X2590Y9702D01*
X2593Y9728D01*
X2590Y9754D01*
X2580Y9779D01*
X2564Y9800D01*
X2543Y9816D01*
X2519Y9826D01*
X2492Y9829D01*
D02*
G37*
G36*
Y8280D02*
X2466Y8276D01*
X2442Y8266D01*
X2421Y8250D01*
X2405Y8229D01*
X2395Y8205D01*
X2392Y8179D01*
X2395Y8153D01*
X2405Y8128D01*
X2421Y8107D01*
X2442Y8091D01*
X2466Y8081D01*
X2492Y8078D01*
X2519Y8081D01*
X2543Y8091D01*
X2564Y8107D01*
X2580Y8128D01*
X2590Y8153D01*
X2593Y8179D01*
X2590Y8205D01*
X2580Y8229D01*
X2564Y8250D01*
X2543Y8266D01*
X2519Y8276D01*
X2492Y8280D01*
D02*
G37*
G36*
X2640Y7389D02*
X2541D01*
X2492Y7339D01*
Y7240D01*
X2541Y7191D01*
X2640D01*
X2690Y7240D01*
Y7339D01*
X2640Y7389D01*
D02*
G37*
%LPD*%
G36*
X5334Y5937D02*
X4686D01*
Y5952D01*
X4496D01*
Y5937D01*
X4445D01*
X4445Y5738D01*
X4434Y5727D01*
X4281D01*
Y5937D01*
X4226D01*
Y5952D01*
X4036D01*
X4031Y5962D01*
Y6597D01*
X4039Y6604D01*
X5334D01*
X5334Y5937D01*
D02*
G37*
%LPC*%
G36*
X20879Y8631D02*
X19025Y8631D01*
X19017Y8629D01*
X19010Y8625D01*
X19006Y8618D01*
X19004Y8611D01*
X19004Y7696D01*
X19006Y7688D01*
X19010Y7682D01*
X19017Y7677D01*
X19025Y7676D01*
X19251Y7676D01*
X19259Y7677D01*
X19266Y7682D01*
X19270Y7688D01*
X19272Y7696D01*
Y8030D01*
X19270Y8038D01*
X19266Y8044D01*
X19251Y8059D01*
X19250Y8060D01*
X19249Y8061D01*
X19246Y8062D01*
X19244Y8064D01*
X19243Y8064D01*
X19242Y8065D01*
X19239Y8065D01*
X19236Y8065D01*
X19235Y8065D01*
X19234Y8065D01*
X19228Y8064D01*
X19211Y8067D01*
X19196Y8073D01*
X19183Y8083D01*
X19173Y8096D01*
X19166Y8112D01*
X19164Y8128D01*
X19166Y8144D01*
X19173Y8160D01*
X19183Y8173D01*
X19196Y8183D01*
X19211Y8189D01*
X19228Y8192D01*
X19244Y8189D01*
X19260Y8183D01*
X19273Y8173D01*
X19283Y8160D01*
X19289Y8144D01*
X19291Y8128D01*
X19291Y8122D01*
X19291Y8121D01*
X19291Y8120D01*
X19291Y8117D01*
X19291Y8114D01*
X19292Y8113D01*
X19292Y8112D01*
X19294Y8109D01*
X19295Y8107D01*
X19296Y8106D01*
X19296Y8105D01*
X19325Y8076D01*
X19334Y8064D01*
X19336Y8050D01*
Y7696D01*
X19338Y7688D01*
X19342Y7682D01*
X19349Y7677D01*
X19357Y7676D01*
X19436D01*
X19436Y6655D01*
X19438Y6647D01*
X19442Y6640D01*
X19449Y6636D01*
X19456Y6634D01*
X19533Y6634D01*
X19534Y6635D01*
X19536Y6635D01*
X19538Y6636D01*
X19540Y6636D01*
X19542Y6637D01*
X19543Y6638D01*
X19545Y6639D01*
X19547Y6640D01*
X19548Y6642D01*
X19549Y6643D01*
X19641Y6773D01*
X19643Y6774D01*
X19657Y6784D01*
X19668Y6799D01*
X19675Y6815D01*
X19675Y6822D01*
X19711Y6872D01*
X19719Y6875D01*
X19733Y6886D01*
X19744Y6900D01*
X19751Y6917D01*
X19753Y6931D01*
X19781Y6971D01*
X19795Y6977D01*
X19809Y6988D01*
X19820Y7002D01*
X19827Y7018D01*
X19829Y7036D01*
X19829Y7039D01*
X19848Y7066D01*
X19964Y7066D01*
X20879D01*
X20887Y7068D01*
X20893Y7072D01*
X20898Y7079D01*
X20899Y7087D01*
X20899Y8611D01*
X20898Y8618D01*
X20893Y8625D01*
X20887Y8629D01*
X20879Y8631D01*
D02*
G37*
G36*
X10606Y8637D02*
X8752Y8637D01*
X8744Y8636D01*
X8737Y8631D01*
X8733Y8625D01*
X8731Y8617D01*
X8731Y8456D01*
X8721D01*
Y8156D01*
X8721D01*
Y8151D01*
X8721D01*
Y7851D01*
X8731D01*
X8731Y7703D01*
X8733Y7695D01*
X8737Y7688D01*
X8744Y7684D01*
X8752Y7682D01*
X8913Y7682D01*
X8921Y7684D01*
X8928Y7688D01*
X8932Y7695D01*
X8934Y7703D01*
Y8063D01*
X8934Y8065D01*
X8934Y8066D01*
X8933Y8068D01*
X8932Y8071D01*
X8932Y8072D01*
X8931Y8073D01*
X8929Y8075D01*
X8928Y8078D01*
X8927Y8078D01*
X8926Y8079D01*
X8921Y8083D01*
X8911Y8096D01*
X8905Y8112D01*
X8903Y8128D01*
X8905Y8144D01*
X8911Y8160D01*
X8921Y8173D01*
X8934Y8183D01*
X8950Y8189D01*
X8966Y8192D01*
X8983Y8189D01*
X8998Y8183D01*
X9011Y8173D01*
X9021Y8160D01*
X9028Y8144D01*
X9030Y8128D01*
X9028Y8112D01*
X9021Y8096D01*
X9011Y8083D01*
X9007Y8079D01*
X9006Y8078D01*
X9005Y8078D01*
X9003Y8075D01*
X9001Y8073D01*
X9001Y8072D01*
X9000Y8071D01*
X9000Y8068D01*
X8999Y8066D01*
X8999Y8065D01*
X8999Y8063D01*
Y7703D01*
X9000Y7695D01*
X9005Y7688D01*
X9011Y7684D01*
X9019Y7682D01*
X9163Y7682D01*
X9163Y6661D01*
X9165Y6653D01*
X9169Y6647D01*
X9176Y6642D01*
X9183Y6641D01*
X9260Y6641D01*
X9261Y6641D01*
X9263Y6641D01*
X9265Y6642D01*
X9267Y6642D01*
X9269Y6643D01*
X9270Y6644D01*
X9272Y6646D01*
X9274Y6647D01*
X9275Y6648D01*
X9276Y6649D01*
X9440Y6881D01*
X9446Y6886D01*
X9457Y6900D01*
X9462Y6913D01*
X9507Y6976D01*
X9508Y6977D01*
X9522Y6988D01*
X9533Y7002D01*
X9540Y7018D01*
X9541Y7024D01*
X9575Y7073D01*
X9691Y7073D01*
X10606D01*
X10614Y7074D01*
X10620Y7079D01*
X10625Y7085D01*
X10626Y7093D01*
X10626Y8617D01*
X10625Y8625D01*
X10620Y8631D01*
X10614Y8636D01*
X10606Y8637D01*
D02*
G37*
G36*
X12912Y8395D02*
X12891Y8392D01*
X12870Y8384D01*
X12853Y8371D01*
X12839Y8353D01*
X12831Y8333D01*
X12829Y8314D01*
X12713Y8198D01*
X12700Y8178D01*
X12695Y8155D01*
Y7584D01*
X12692Y7581D01*
X12684Y7560D01*
X12681Y7539D01*
X12684Y7517D01*
X12692Y7496D01*
X12706Y7479D01*
X12723Y7466D01*
X12743Y7457D01*
X12765Y7454D01*
X12787Y7457D01*
X12791Y7459D01*
X12802Y7452D01*
Y7423D01*
X12792Y7417D01*
X12788D01*
X12780Y7415D01*
X12774Y7411D01*
X12769Y7404D01*
X12768Y7397D01*
Y7092D01*
X12769Y7084D01*
X12774Y7077D01*
X12780Y7073D01*
X12788Y7071D01*
X13449D01*
X13449Y7071D01*
X13456Y7073D01*
X13463Y7077D01*
X13463Y7077D01*
X13615Y7229D01*
X13619Y7235D01*
X13620Y7243D01*
Y8349D01*
X13619Y8357D01*
X13615Y8364D01*
X13608Y8368D01*
X13600Y8369D01*
X13083D01*
X13083Y8369D01*
X13075Y8368D01*
X13068Y8364D01*
X13068Y8364D01*
X13008Y8304D01*
X12996Y8310D01*
X12997Y8311D01*
X12994Y8333D01*
X12985Y8353D01*
X12972Y8371D01*
X12955Y8384D01*
X12934Y8392D01*
X12912Y8395D01*
D02*
G37*
G36*
X11429Y8453D02*
X10947D01*
X10940Y8452D01*
X10933Y8447D01*
X10929Y8441D01*
X10927Y8433D01*
Y6960D01*
X10927Y6604D01*
X10929Y6596D01*
X10933Y6590D01*
X10940Y6585D01*
X10947Y6584D01*
X14224Y6584D01*
X14232Y6585D01*
X14238Y6590D01*
X14243Y6596D01*
X14244Y6604D01*
X14244Y6960D01*
X14243Y6967D01*
X14238Y6974D01*
X14232Y6978D01*
X14224Y6980D01*
X13537Y6980D01*
X13536Y6982D01*
X13521Y6993D01*
X13505Y7000D01*
X13487Y7002D01*
X13470Y7000D01*
X13453Y6993D01*
X13446Y6987D01*
X13434Y6982D01*
X13420Y6993D01*
X13403Y7000D01*
X13386Y7002D01*
X13368Y7000D01*
X13352Y6993D01*
X13338Y6982D01*
X13326Y6987D01*
X13318Y6993D01*
X13302Y7000D01*
X13284Y7002D01*
X13267Y7000D01*
X13250Y6993D01*
X13236Y6982D01*
X13231D01*
X13217Y6993D01*
X13200Y7000D01*
X13183Y7002D01*
X13165Y7000D01*
X13149Y6993D01*
X13141Y6987D01*
X13129Y6982D01*
X13115Y6993D01*
X13099Y7000D01*
X13081Y7002D01*
X13063Y7000D01*
X13047Y6993D01*
X13033Y6982D01*
X13028D01*
X13013Y6993D01*
X12997Y7000D01*
X12979Y7002D01*
X12962Y7000D01*
X12945Y6993D01*
X12931Y6982D01*
X12926D01*
X12912Y6993D01*
X12895Y7000D01*
X12878Y7002D01*
X12860Y7000D01*
X12844Y6993D01*
X12836Y6987D01*
X12824Y6982D01*
X12810Y6993D01*
X12794Y7000D01*
X12776Y7002D01*
X12759Y7000D01*
X12742Y6993D01*
X12735Y6987D01*
X12723Y6982D01*
X12709Y6993D01*
X12692Y7000D01*
X12675Y7002D01*
X12657Y7000D01*
X12641Y6993D01*
X12633Y6987D01*
X12624Y6983D01*
X12615Y6987D01*
X12607Y6993D01*
X12591Y7000D01*
X12573Y7002D01*
X12555Y7000D01*
X12539Y6993D01*
X12531Y6987D01*
X12522Y6983D01*
X12513Y6987D01*
X12505Y6993D01*
X12489Y7000D01*
X12471Y7002D01*
X12454Y7000D01*
X12437Y6993D01*
X12423Y6982D01*
X12411Y6987D01*
X12404Y6993D01*
X12387Y7000D01*
X12370Y7002D01*
X12352Y7000D01*
X12336Y6993D01*
X12328Y6987D01*
X12319Y6983D01*
X12310Y6987D01*
X12302Y6993D01*
X12286Y7000D01*
X12268Y7002D01*
X12251Y7000D01*
X12234Y6993D01*
X12227Y6987D01*
X12217Y6983D01*
X12208Y6987D01*
X12201Y6993D01*
X12184Y7000D01*
X12167Y7002D01*
X12149Y7000D01*
X12133Y6993D01*
X12118Y6982D01*
X12107Y6987D01*
X12099Y6993D01*
X12083Y7000D01*
X12065Y7002D01*
X12047Y7000D01*
X12031Y6993D01*
X12023Y6987D01*
X12014Y6983D01*
X12005Y6987D01*
X11997Y6993D01*
X11981Y7000D01*
X11963Y7002D01*
X11946Y7000D01*
X11929Y6993D01*
X11922Y6987D01*
X11913Y6983D01*
X11903Y6987D01*
X11896Y6993D01*
X11879Y7000D01*
X11862Y7002D01*
X11844Y7000D01*
X11828Y6993D01*
X11814Y6982D01*
X11802Y6987D01*
X11794Y6993D01*
X11778Y7000D01*
X11760Y7002D01*
X11743Y7000D01*
X11726Y6993D01*
X11719Y6987D01*
X11709Y6983D01*
X11700Y6987D01*
X11693Y6993D01*
X11676Y7000D01*
X11659Y7002D01*
X11641Y7000D01*
X11625Y6993D01*
X11610Y6982D01*
X11599Y6987D01*
X11591Y6993D01*
X11575Y7000D01*
X11557Y7002D01*
X11539Y7000D01*
X11523Y6993D01*
X11509Y6982D01*
X11497Y6987D01*
X11489Y6993D01*
X11473Y7000D01*
X11455Y7002D01*
X11450Y7007D01*
Y8432D01*
X11450Y8432D01*
X11449Y8440D01*
X11444Y8446D01*
X11444Y8446D01*
X11444Y8447D01*
X11437Y8452D01*
X11429Y8453D01*
D02*
G37*
G36*
X14858Y8459D02*
X14376D01*
X14369Y8458D01*
X14362Y8453D01*
X14358Y8447D01*
X14356Y8439D01*
Y6960D01*
X14356Y6604D01*
X14358Y6596D01*
X14362Y6590D01*
X14369Y6585D01*
X14376Y6584D01*
X17653Y6584D01*
X17661Y6585D01*
X17667Y6590D01*
X17672Y6596D01*
X17673Y6604D01*
X17673Y6960D01*
X17672Y6967D01*
X17667Y6974D01*
X17661Y6978D01*
X17653Y6980D01*
X17631D01*
X16941Y6980D01*
X16939Y6982D01*
X16925Y6993D01*
X16909Y7000D01*
X16891Y7002D01*
X16873Y7000D01*
X16857Y6993D01*
X16843Y6982D01*
X16831Y6987D01*
X16823Y6993D01*
X16807Y7000D01*
X16789Y7002D01*
X16772Y7000D01*
X16755Y6993D01*
X16748Y6987D01*
D01*
X16741Y6982D01*
X16739Y6983D01*
X16736Y6982D01*
X16722Y6993D01*
X16705Y7000D01*
X16688Y7002D01*
X16670Y7000D01*
X16654Y6993D01*
X16646Y6987D01*
D01*
X16640Y6982D01*
X16637Y6983D01*
X16628Y6987D01*
X16620Y6993D01*
X16604Y7000D01*
X16586Y7002D01*
X16569Y7000D01*
X16552Y6993D01*
X16545Y6987D01*
D01*
X16538Y6982D01*
X16535Y6983D01*
X16528Y6986D01*
X16526Y6987D01*
X16519Y6993D01*
X16502Y7000D01*
X16485Y7002D01*
X16467Y7000D01*
X16451Y6993D01*
X16443Y6987D01*
D01*
X16434Y6983D01*
D01*
X16431Y6982D01*
X16417Y6993D01*
X16401Y7000D01*
X16383Y7002D01*
X16365Y7000D01*
X16349Y6993D01*
X16341Y6987D01*
D01*
X16335Y6982D01*
X16332Y6983D01*
X16323Y6987D01*
D01*
X16315Y6993D01*
X16299Y7000D01*
X16281Y7002D01*
X16264Y7000D01*
X16247Y6993D01*
X16233Y6982D01*
X16228D01*
X16214Y6993D01*
X16197Y7000D01*
X16180Y7002D01*
X16162Y7000D01*
X16146Y6993D01*
X16132Y6982D01*
X16126D01*
X16112Y6993D01*
X16096Y7000D01*
X16078Y7002D01*
X16061Y7000D01*
X16044Y6993D01*
X16030Y6982D01*
X16025D01*
X16011Y6993D01*
X15994Y7000D01*
X15977Y7002D01*
X15959Y7000D01*
X15943Y6993D01*
X15928Y6982D01*
X15923D01*
X15909Y6993D01*
X15893Y7000D01*
X15875Y7002D01*
X15857Y7000D01*
X15841Y6993D01*
X15827Y6982D01*
X15822D01*
X15807Y6993D01*
X15791Y7000D01*
X15773Y7002D01*
X15756Y7000D01*
X15739Y6993D01*
X15725Y6982D01*
X15720D01*
X15706Y6993D01*
X15689Y7000D01*
X15672Y7002D01*
X15654Y7000D01*
X15638Y6993D01*
X15624Y6982D01*
X15618D01*
X15604Y6993D01*
X15588Y7000D01*
X15570Y7002D01*
X15553Y7000D01*
X15536Y6993D01*
X15522Y6982D01*
X15517D01*
X15503Y6993D01*
X15486Y7000D01*
X15469Y7002D01*
X15451Y7000D01*
X15435Y6993D01*
X15420Y6982D01*
X15415D01*
X15401Y6993D01*
X15385Y7000D01*
X15367Y7002D01*
X15349Y7000D01*
X15333Y6993D01*
X15319Y6982D01*
X15314D01*
X15299Y6993D01*
X15283Y7000D01*
X15265Y7002D01*
X15248Y7000D01*
X15231Y6993D01*
X15217Y6982D01*
X15212D01*
X15198Y6993D01*
X15181Y7000D01*
X15164Y7002D01*
X15146Y7000D01*
X15130Y6993D01*
X15116Y6982D01*
X15110D01*
X15096Y6993D01*
X15080Y7000D01*
X15062Y7002D01*
X15045Y7000D01*
X15028Y6993D01*
X15014Y6982D01*
X15009D01*
X14995Y6993D01*
X14978Y7000D01*
X14961Y7002D01*
X14943Y7000D01*
X14927Y6993D01*
X14912Y6982D01*
X14907D01*
X14893Y6993D01*
X14879Y6999D01*
Y8438D01*
X14879Y8438D01*
X14878Y8446D01*
X14873Y8453D01*
X14873Y8453D01*
X14873Y8453D01*
X14866Y8458D01*
X14858Y8459D01*
D02*
G37*
G36*
X16713Y9159D02*
X16695Y9156D01*
X16679Y9149D01*
X16665Y9139D01*
X16654Y9125D01*
X16647Y9108D01*
X16645Y9090D01*
X16647Y9073D01*
X16654Y9056D01*
X16665Y9042D01*
X16679Y9032D01*
X16680Y9031D01*
Y8662D01*
X16670Y8661D01*
X16653Y8654D01*
X16639Y8643D01*
X16629Y8629D01*
X16622Y8613D01*
X16619Y8595D01*
X16622Y8578D01*
X16629Y8561D01*
X16639Y8547D01*
X16653Y8536D01*
X16670Y8529D01*
X16687Y8527D01*
X16705Y8529D01*
X16722Y8536D01*
X16736Y8547D01*
X16746Y8561D01*
X16753Y8578D01*
X16756Y8595D01*
X16753Y8613D01*
X16746Y8629D01*
X16746Y8630D01*
Y9031D01*
X16747Y9032D01*
X16761Y9042D01*
X16772Y9056D01*
X16779Y9073D01*
X16781Y9090D01*
X16779Y9108D01*
X16772Y9125D01*
X16761Y9139D01*
X16747Y9149D01*
X16731Y9156D01*
X16713Y9159D01*
D02*
G37*
G36*
X13321Y9156D02*
X13304Y9153D01*
X13287Y9147D01*
X13273Y9136D01*
X13262Y9122D01*
X13256Y9105D01*
X13253Y9088D01*
X13256Y9070D01*
X13262Y9054D01*
X13273Y9040D01*
X13287Y9029D01*
X13288Y9028D01*
Y8659D01*
X13278Y8658D01*
X13262Y8651D01*
X13248Y8641D01*
X13237Y8626D01*
X13230Y8610D01*
X13228Y8592D01*
X13230Y8575D01*
X13237Y8558D01*
X13248Y8544D01*
X13262Y8533D01*
X13278Y8527D01*
X13296Y8524D01*
X13314Y8527D01*
X13330Y8533D01*
X13344Y8544D01*
X13355Y8558D01*
X13362Y8575D01*
X13364Y8592D01*
X13362Y8610D01*
X13355Y8626D01*
X13355Y8627D01*
Y9028D01*
X13355Y9029D01*
X13369Y9040D01*
X13380Y9054D01*
X13387Y9070D01*
X13389Y9088D01*
X13387Y9105D01*
X13380Y9122D01*
X13369Y9136D01*
X13355Y9147D01*
X13339Y9153D01*
X13321Y9156D01*
D02*
G37*
G36*
X14072Y8247D02*
X14054Y8245D01*
X14049Y8242D01*
X13993D01*
X13988Y8245D01*
X13970Y8247D01*
X13952Y8245D01*
X13947Y8242D01*
X13654D01*
X13646Y8241D01*
X13640Y8237D01*
X13635Y8230D01*
X13634Y8222D01*
Y7724D01*
X13635Y7716D01*
X13640Y7709D01*
X13646Y7705D01*
X13654Y7703D01*
X14122D01*
X14130Y7705D01*
X14136Y7709D01*
X14141Y7716D01*
X14142Y7724D01*
Y8222D01*
X14141Y8230D01*
X14136Y8237D01*
X14130Y8241D01*
X14122Y8242D01*
X14094D01*
X14089Y8245D01*
X14072Y8247D01*
D02*
G37*
G36*
X11625Y9415D02*
X11602Y9410D01*
X11583Y9397D01*
X11570Y9378D01*
X11566Y9355D01*
X11570Y9333D01*
X11583Y9313D01*
X11602Y9301D01*
X11625Y9296D01*
X11648Y9301D01*
X11667Y9313D01*
X11680Y9333D01*
X11684Y9355D01*
X11680Y9378D01*
X11667Y9397D01*
X11648Y9410D01*
X11625Y9415D01*
D02*
G37*
G36*
X15016Y9417D02*
X14994Y9413D01*
X14975Y9400D01*
X14962Y9381D01*
X14957Y9358D01*
X14962Y9335D01*
X14975Y9316D01*
X14994Y9303D01*
X15016Y9299D01*
X15039Y9303D01*
X15058Y9316D01*
X15071Y9335D01*
X15076Y9358D01*
X15071Y9381D01*
X15058Y9400D01*
X15039Y9413D01*
X15016Y9417D01*
D02*
G37*
G36*
X9611Y9566D02*
X9589Y9562D01*
X9569Y9549D01*
X9557Y9530D01*
X9552Y9507D01*
X9557Y9485D01*
X9569Y9465D01*
X9589Y9452D01*
X9611Y9448D01*
X9634Y9452D01*
X9653Y9465D01*
X9666Y9485D01*
X9671Y9507D01*
X9666Y9530D01*
X9653Y9549D01*
X9634Y9562D01*
X9611Y9566D01*
D02*
G37*
G36*
X19898D02*
X19876Y9562D01*
X19856Y9549D01*
X19844Y9530D01*
X19839Y9507D01*
X19844Y9485D01*
X19856Y9465D01*
X19876Y9452D01*
X19898Y9448D01*
X19921Y9452D01*
X19940Y9465D01*
X19953Y9485D01*
X19958Y9507D01*
X19953Y9530D01*
X19940Y9549D01*
X19921Y9562D01*
X19898Y9566D01*
D02*
G37*
G36*
X12310Y8123D02*
X11557Y8123D01*
X11549Y8121D01*
X11543Y8117D01*
X11538Y8110D01*
X11537Y8103D01*
X11537Y7807D01*
X11538Y7799D01*
X11543Y7793D01*
X11549Y7788D01*
X11557Y7787D01*
X11581D01*
X11590Y7783D01*
X11608Y7781D01*
X11625Y7783D01*
X11635Y7787D01*
X12313Y7787D01*
X12321Y7788D01*
X12327Y7790D01*
X12329Y7792D01*
X12333Y7795D01*
X12338Y7801D01*
X12339Y7809D01*
X12339Y8094D01*
X12339Y8094D01*
X12338Y8101D01*
X12333Y8108D01*
X12324Y8117D01*
X12318Y8121D01*
X12310Y8123D01*
D02*
G37*
G36*
X21255Y7581D02*
X21238Y7578D01*
X21222Y7572D01*
X21209Y7561D01*
X21198Y7548D01*
X21192Y7532D01*
X21189Y7515D01*
X21192Y7498D01*
X21198Y7482D01*
X21209Y7469D01*
X21222Y7458D01*
X21238Y7452D01*
X21255Y7449D01*
X21272Y7452D01*
X21288Y7458D01*
X21298Y7466D01*
X21418D01*
X21420Y7464D01*
X21434Y7453D01*
X21450Y7446D01*
X21468Y7444D01*
X21486Y7446D01*
X21502Y7453D01*
X21516Y7464D01*
X21527Y7478D01*
X21534Y7494D01*
X21536Y7512D01*
X21534Y7530D01*
X21527Y7546D01*
X21516Y7560D01*
X21502Y7571D01*
X21486Y7578D01*
X21468Y7580D01*
X21450Y7578D01*
X21434Y7571D01*
X21420Y7560D01*
X21418Y7558D01*
X21304D01*
X21301Y7561D01*
X21288Y7572D01*
X21272Y7578D01*
X21255Y7581D01*
D02*
G37*
G36*
X16304Y8398D02*
X16282Y8395D01*
X16262Y8387D01*
X16244Y8373D01*
X16231Y8356D01*
X16223Y8336D01*
X16220Y8316D01*
X16104Y8201D01*
X16091Y8181D01*
X16087Y8157D01*
Y7587D01*
X16084Y7584D01*
X16075Y7563D01*
X16072Y7541D01*
X16075Y7520D01*
X16084Y7499D01*
X16097Y7482D01*
X16115Y7468D01*
X16135Y7460D01*
X16157Y7457D01*
X16178Y7460D01*
X16193Y7466D01*
X16205Y7458D01*
Y7424D01*
X16195Y7412D01*
X16180D01*
X16172Y7410D01*
X16165Y7406D01*
X16161Y7399D01*
X16159Y7391D01*
Y7087D01*
X16161Y7079D01*
X16165Y7072D01*
X16172Y7068D01*
X16180Y7066D01*
X16840D01*
X16840Y7066D01*
X16848Y7068D01*
X16855Y7072D01*
X16855Y7072D01*
X17006Y7224D01*
X17011Y7230D01*
X17012Y7238D01*
Y7711D01*
X17020Y7715D01*
X17025Y7716D01*
X17030Y7712D01*
X17038Y7711D01*
X17448D01*
X17458Y7707D01*
X17475Y7704D01*
X17493Y7707D01*
X17503Y7711D01*
X17506D01*
X17514Y7712D01*
X17520Y7717D01*
X17525Y7723D01*
X17525Y7727D01*
X17534Y7738D01*
X17541Y7755D01*
X17543Y7772D01*
X17541Y7790D01*
X17534Y7806D01*
X17526Y7817D01*
Y7830D01*
X17534Y7840D01*
X17541Y7856D01*
X17543Y7874D01*
X17541Y7892D01*
X17534Y7908D01*
X17526Y7918D01*
Y7931D01*
X17534Y7942D01*
X17541Y7958D01*
X17543Y7976D01*
X17541Y7993D01*
X17534Y8010D01*
X17526Y8020D01*
Y8033D01*
X17534Y8043D01*
X17541Y8060D01*
X17543Y8077D01*
X17541Y8095D01*
X17534Y8111D01*
X17526Y8122D01*
Y8134D01*
X17534Y8145D01*
X17541Y8161D01*
X17543Y8179D01*
X17541Y8196D01*
X17534Y8213D01*
X17526Y8223D01*
Y8230D01*
X17525Y8237D01*
X17520Y8244D01*
X17514Y8248D01*
X17506Y8250D01*
X17038D01*
X17030Y8248D01*
X17025Y8245D01*
X17020Y8246D01*
X17012Y8249D01*
Y8344D01*
X17011Y8352D01*
X17006Y8358D01*
X17000Y8363D01*
X16992Y8364D01*
X16474D01*
X16474Y8364D01*
X16466Y8363D01*
X16460Y8358D01*
X16460Y8358D01*
X16399Y8297D01*
X16387Y8303D01*
X16388Y8314D01*
X16385Y8336D01*
X16377Y8356D01*
X16364Y8373D01*
X16346Y8387D01*
X16326Y8395D01*
X16304Y8398D01*
D02*
G37*
G36*
X15688Y8123D02*
X14935Y8123D01*
X14927Y8121D01*
X14921Y8117D01*
X14916Y8110D01*
X14915Y8103D01*
X14915Y7807D01*
X14916Y7799D01*
X14921Y7793D01*
X14927Y7788D01*
X14935Y7787D01*
X14985D01*
X14994Y7783D01*
X15011Y7781D01*
X15029Y7783D01*
X15038Y7787D01*
X15692Y7787D01*
X15699Y7788D01*
X15705Y7790D01*
X15707Y7792D01*
X15712Y7795D01*
X15716Y7801D01*
X15718Y7809D01*
X15718Y8094D01*
X15718Y8094D01*
X15716Y8101D01*
X15712Y8108D01*
X15703Y8117D01*
X15696Y8121D01*
X15688Y8123D01*
D02*
G37*
%LPD*%
G36*
X20879Y7087D02*
X19964D01*
X19837Y7087D01*
X19533Y6655D01*
X19456Y6655D01*
X19456Y7696D01*
X19357D01*
Y8052D01*
X19353Y8072D01*
X19341Y8089D01*
X19311Y8120D01*
X19312Y8128D01*
X19309Y8150D01*
X19301Y8170D01*
X19287Y8188D01*
X19270Y8201D01*
X19250Y8209D01*
X19228Y8212D01*
X19206Y8209D01*
X19186Y8201D01*
X19168Y8188D01*
X19155Y8170D01*
X19146Y8150D01*
X19144Y8128D01*
X19146Y8106D01*
X19155Y8086D01*
X19168Y8068D01*
X19186Y8055D01*
X19206Y8047D01*
X19228Y8044D01*
X19236Y8045D01*
X19251Y8030D01*
Y7696D01*
X19025Y7696D01*
X19025Y8611D01*
X20879Y8611D01*
X20879Y7087D01*
D02*
G37*
G36*
X10606Y7093D02*
X9691D01*
X9564Y7093D01*
X9260Y6661D01*
X9183Y6661D01*
X9183Y7703D01*
X9019Y7703D01*
Y8063D01*
X9026Y8068D01*
X9039Y8086D01*
X9048Y8106D01*
X9050Y8128D01*
X9048Y8150D01*
X9039Y8170D01*
X9026Y8188D01*
X9008Y8201D01*
X8988Y8209D01*
X8966Y8212D01*
X8944Y8209D01*
X8924Y8201D01*
X8907Y8188D01*
X8893Y8170D01*
X8885Y8150D01*
X8882Y8128D01*
X8885Y8106D01*
X8893Y8086D01*
X8907Y8068D01*
X8913Y8063D01*
Y7703D01*
X8752Y7703D01*
X8752Y8617D01*
X10606Y8617D01*
X10606Y7093D01*
D02*
G37*
G36*
X13600Y7243D02*
X13449Y7092D01*
X12788D01*
Y7397D01*
X12915D01*
X12942Y7423D01*
X13002D01*
Y7484D01*
X13004Y7486D01*
Y7803D01*
Y8271D01*
X13083Y8349D01*
X13600D01*
Y7243D01*
D02*
G37*
G36*
X11430Y8432D02*
Y6960D01*
X14224Y6960D01*
X14224Y6604D01*
X10947Y6604D01*
X10947Y6960D01*
Y8433D01*
X11429D01*
X11430Y8432D01*
D02*
G37*
G36*
X14859Y8438D02*
Y6960D01*
X17653Y6960D01*
X17653Y6604D01*
X14376Y6604D01*
X14376Y6960D01*
Y8439D01*
X14858D01*
X14859Y8438D01*
D02*
G37*
G36*
X14122Y7724D02*
X13654D01*
Y8222D01*
X14122D01*
Y7724D01*
D02*
G37*
G36*
X12319Y8094D02*
X12319Y7809D01*
X12313Y7807D01*
X11557Y7807D01*
X11557Y8103D01*
X12310Y8103D01*
X12319Y8094D01*
D02*
G37*
G36*
X16992Y7238D02*
X16840Y7087D01*
X16180D01*
Y7391D01*
X16307D01*
X16332Y7417D01*
X16384D01*
Y7469D01*
X16396Y7480D01*
Y7798D01*
Y8265D01*
X16474Y8344D01*
X16992D01*
Y7238D01*
D02*
G37*
G36*
X17506Y7731D02*
X17038D01*
Y8230D01*
X17506D01*
Y7731D01*
D02*
G37*
G36*
X15697Y8094D02*
X15697Y7809D01*
X15692Y7807D01*
X14935Y7807D01*
X14935Y8103D01*
X15688Y8103D01*
X15697Y8094D01*
D02*
G37*
D10*
X22860Y8533D02*
D03*
Y8383D02*
D03*
X23038Y8282D02*
D03*
Y8432D02*
D03*
X22835Y8028D02*
D03*
Y8178D02*
D03*
X22657Y7774D02*
D03*
Y7924D02*
D03*
X12554Y2682D02*
D03*
Y2832D02*
D03*
X17707Y3204D02*
D03*
Y3354D02*
D03*
X13868Y6072D02*
D03*
Y6222D02*
D03*
X13762Y10611D02*
D03*
Y10761D02*
D03*
X9230Y10565D02*
D03*
Y10715D02*
D03*
X6452Y8406D02*
D03*
Y8256D02*
D03*
D11*
X3148Y2438D02*
D03*
X2998D02*
D03*
X5894Y7772D02*
D03*
X6044D02*
D03*
X5589Y7823D02*
D03*
X5739D02*
D03*
D12*
X23021Y3623D02*
D03*
X22546Y3823D02*
D03*
Y3623D02*
D03*
X23021Y3823D02*
D03*
X23073Y2853D02*
D03*
X22598Y3053D02*
D03*
Y2853D02*
D03*
X23073Y3053D02*
D03*
D13*
X8526Y8306D02*
D03*
X8796D02*
D03*
X12532Y3113D02*
D03*
X12262D02*
D03*
X19003Y3608D02*
D03*
X18733D02*
D03*
X8526Y8001D02*
D03*
X8796D02*
D03*
X18813D02*
D03*
X19083D02*
D03*
X18813Y8331D02*
D03*
X19083D02*
D03*
D19*
X2851Y6790D02*
D03*
X2991D02*
D03*
X6699Y9652D02*
D03*
X6559D02*
D03*
X6356Y8941D02*
D03*
X6496D02*
D03*
X6699Y9449D02*
D03*
X6559D02*
D03*
D20*
X13074Y2150D02*
D03*
Y1880D02*
D03*
X13385Y2152D02*
D03*
Y1882D02*
D03*
X13685Y2150D02*
D03*
Y1880D02*
D03*
X19153Y3349D02*
D03*
Y3079D02*
D03*
X19836Y3341D02*
D03*
Y3071D02*
D03*
X19506Y3349D02*
D03*
Y3079D02*
D03*
X17094Y7069D02*
D03*
Y6799D02*
D03*
X13995Y7069D02*
D03*
Y6799D02*
D03*
X13691Y7069D02*
D03*
Y6799D02*
D03*
X17399Y7069D02*
D03*
Y6799D02*
D03*
D30*
X4445Y10027D02*
D03*
Y10395D02*
D03*
D31*
X13016Y3050D02*
D03*
Y2560D02*
D03*
X18282Y3060D02*
D03*
Y3550D02*
D03*
D33*
X7747Y6134D02*
D03*
Y5754D02*
D03*
D34*
X4470Y8604D02*
D03*
Y8464D02*
D03*
X4115Y5658D02*
D03*
Y5518D02*
D03*
D49*
X21287Y7512D02*
X21468D01*
X4115Y5658D02*
Y5815D01*
X6123Y9449D02*
X6559D01*
X6048Y9524D02*
X6123Y9449D01*
X6559Y9303D02*
Y9449D01*
X6553Y9296D02*
X6559Y9303D01*
X6377Y9120D02*
X6553Y9296D01*
X6377Y8960D02*
Y9120D01*
X23019Y5874D02*
X23152Y5741D01*
X23291D01*
X23292Y5740D01*
X23622D01*
X23749Y5613D01*
X23026Y6262D02*
X23029Y6259D01*
X23611D01*
X23749Y6121D01*
X22987Y7823D02*
X23165D01*
X23241Y7899D01*
X22987Y7417D02*
X23216D01*
X23241Y7391D01*
D50*
X23231Y7153D02*
X23241Y7163D01*
X8966Y7569D02*
Y8128D01*
X19228D02*
X19304Y8052D01*
Y7620D02*
Y8052D01*
X19228Y7544D02*
X19304Y7620D01*
X22986Y8432D02*
X23038D01*
X22936Y8382D02*
X22986Y8432D01*
X22709Y8178D02*
X22835D01*
X22379Y7924D02*
X22657D01*
X22734Y8383D02*
X22860D01*
X22860Y8382D02*
X22936D01*
X3377Y8551D02*
Y8968D01*
D51*
X21676Y6596D02*
Y7605D01*
X8516Y5924D02*
X21004D01*
X21676Y6596D01*
X21631Y6615D02*
Y7635D01*
X20985Y5969D02*
X21631Y6615D01*
X8534Y5969D02*
X20985D01*
X22911Y8915D02*
X23235D01*
X21631Y7635D02*
X22911Y8915D01*
X21676Y7605D02*
X22733Y8661D01*
X23241D01*
X5141Y9693D02*
X5153Y9705D01*
X5092Y9693D02*
X5141D01*
X5039Y9641D02*
X5092Y9693D01*
X4939Y9641D02*
X5393Y10094D01*
X4939Y9524D02*
Y9641D01*
X5393Y10094D02*
X6030D01*
X6175Y10239D01*
X5894Y7647D02*
X6041Y7500D01*
X5782Y8243D02*
X5837Y8188D01*
Y8014D02*
Y8188D01*
X4907Y8226D02*
X5697D01*
X5714Y8243D01*
X2841Y6790D02*
X2949Y6682D01*
X3258D01*
X4887Y9524D02*
X4890Y9522D01*
X23241Y8921D02*
X23749D01*
X23241Y8667D02*
X23749D01*
X6192Y8919D02*
X6336D01*
X5925Y7891D02*
X6044Y7772D01*
X5867Y7891D02*
X5925D01*
X5840Y7919D02*
X5867Y7891D01*
X5840Y7919D02*
Y8012D01*
X5837Y8014D02*
X5840Y8012D01*
X5894Y7772D02*
Y7795D01*
X5787Y7901D02*
X5894Y7795D01*
X5787Y7901D02*
Y8014D01*
X4587Y8667D02*
X4680D01*
X4496Y8617D02*
X4537D01*
X4587Y8667D01*
X5714Y8243D02*
X5782D01*
X5894Y7647D02*
Y7772D01*
X13296Y8592D02*
X13321Y8618D01*
Y9088D01*
X16687Y8595D02*
X16713Y8621D01*
Y9090D01*
X6336Y8919D02*
X6377Y8960D01*
X4445Y7671D02*
Y7764D01*
X4907Y8226D01*
X5187Y7741D02*
Y8014D01*
X5137Y7727D02*
Y8014D01*
X5037Y9524D02*
X5039Y9526D01*
Y9641D01*
X5187Y7741D02*
X6350Y6579D01*
X5137Y7727D02*
X6337Y6528D01*
X8145Y6294D02*
Y6300D01*
X8190Y6313D02*
Y6319D01*
X7930Y6579D02*
X8190Y6319D01*
X6337Y6528D02*
X7917D01*
X8145Y6300D01*
X6350Y6579D02*
X7930D01*
X8190Y6313D02*
X8534Y5969D01*
X8145Y6294D02*
X8516Y5924D01*
X23235Y8915D02*
X23241Y8921D01*
X4937Y9524D02*
X4939D01*
X6175Y10597D02*
X6322Y10744D01*
X12703D01*
X13089Y10358D01*
X13114D01*
X13226Y10246D01*
X6175Y10239D02*
Y10597D01*
X4887Y9524D02*
Y9673D01*
X5372Y10157D01*
X5997D01*
X6129Y10290D01*
Y10616D01*
X6311Y10798D01*
X20409D01*
X20663Y10259D02*
Y10544D01*
X20409Y10798D02*
X20663Y10544D01*
D53*
X22996Y3841D02*
X23749D01*
X23001Y3587D02*
X23749D01*
X23241Y4603D02*
Y4857D01*
X23749D01*
Y4603D02*
Y4857D01*
X23241Y4095D02*
Y4349D01*
Y2317D02*
X23749D01*
X23241Y2063D02*
X23749D01*
Y4095D02*
Y4349D01*
X23241D02*
X23749D01*
D54*
X18268Y3058D02*
X18289Y3037D01*
X17853Y3058D02*
X18268D01*
X17707Y3204D02*
X17853Y3058D01*
X17714Y3354D02*
X17927Y3567D01*
X17707Y3354D02*
X17714D01*
X12639Y2565D02*
X13023D01*
X12554Y2650D02*
X12639Y2565D01*
X12554Y2650D02*
Y2682D01*
Y2832D02*
X12786Y3064D01*
X24206Y1000D02*
X24206Y11000D01*
X17297Y1000D02*
X24206Y1000D01*
X2235Y1000D02*
X17297D01*
X2200Y1035D02*
X2235Y1000D01*
X2200Y1035D02*
Y1041D01*
Y10998D01*
X2202Y11000D02*
X24206Y11000D01*
D55*
X21874Y6514D02*
Y7523D01*
X8434Y5726D02*
X21086D01*
X21824Y6535D02*
Y7544D01*
X8454Y5776D02*
X21065D01*
X21774Y6556D02*
Y7565D01*
X8475Y5826D02*
X21044D01*
X21724Y6576D02*
Y7585D01*
X8496Y5876D02*
X21024D01*
X21086Y5726D02*
X21874Y6514D01*
X21065Y5776D02*
X21824Y6535D01*
X21044Y5826D02*
X21774Y6556D01*
X21024Y5876D02*
X21724Y6576D01*
X21874Y7523D02*
X22149Y7798D01*
X21824Y7544D02*
X22307Y8026D01*
X21774Y7565D02*
X22490Y8280D01*
X21724Y7585D02*
X22663Y8524D01*
X23378D01*
X22490Y8280D02*
X23368D01*
X22307Y8026D02*
X23343D01*
X22149Y7798D02*
X22733D01*
X5687Y9524D02*
Y9751D01*
X5737Y9720D02*
X5874Y9856D01*
X5737Y9524D02*
Y9720D01*
X5787Y9699D02*
X5894Y9806D01*
X5787Y9524D02*
Y9699D01*
X5687Y9751D02*
X5842Y9906D01*
X5837Y9667D02*
X5926Y9756D01*
X5837Y9647D02*
Y9667D01*
X5837Y9647D02*
X5837Y9647D01*
X5837Y9524D02*
Y9647D01*
X5894Y9806D02*
X11430D01*
X5937Y9620D02*
X5995Y9677D01*
X5937Y9524D02*
Y9620D01*
X5874Y9856D02*
X11658D01*
X5995Y9677D02*
X6534D01*
X5842Y9906D02*
X19406D01*
X5926Y9756D02*
X9269D01*
X6534Y9677D02*
X6559Y9652D01*
X7290Y5664D02*
Y6045D01*
Y5664D02*
X7366Y5588D01*
X8796Y3327D02*
X9768Y4299D01*
X2467Y3327D02*
X8796D01*
X10455Y3121D02*
X10680Y2896D01*
X7521Y3121D02*
X10455D01*
X15606Y2896D02*
X16244Y3533D01*
X5029Y8436D02*
X5279D01*
X5296Y8419D02*
X6192D01*
X5279Y8436D02*
X5296Y8419D01*
X4887Y8291D02*
X6068D01*
X6192Y8419D02*
X6192Y8419D01*
X5251Y8369D02*
X6192D01*
X2841Y6126D02*
Y6790D01*
X2851D01*
X2599D02*
X2841D01*
X6192Y8319D02*
X6192Y8319D01*
X6096Y8319D02*
X6192D01*
X6192Y8419D02*
X6437D01*
X5563Y7620D02*
Y7797D01*
X5589Y7823D01*
X5764Y7620D02*
Y7770D01*
X5739Y7795D02*
X5764Y7770D01*
X5739Y7795D02*
Y7823D01*
X5687Y7875D02*
X5739Y7823D01*
X5687Y7875D02*
Y8014D01*
X5589Y7823D02*
X5637Y7871D01*
Y8014D01*
X5887Y9175D02*
Y9524D01*
Y9175D02*
X5994Y9068D01*
X4521Y9169D02*
X4682D01*
X4293Y9093D02*
X4445D01*
X4521Y9169D01*
X4323Y9524D02*
X4837D01*
X4238Y9369D02*
X4682D01*
X4291Y9269D02*
X4682D01*
X4468Y9219D02*
X4682D01*
X4416Y9167D02*
X4468Y9219D01*
X6068Y8291D02*
X6096Y8319D01*
X19406Y9906D02*
X19609Y9703D01*
X9269Y9756D02*
X9347Y9677D01*
X2616Y5450D02*
X2847Y5219D01*
X2616Y5450D02*
Y5901D01*
X2841Y6126D01*
X11658Y9856D02*
X11709Y9804D01*
X7442Y3200D02*
X7521Y3121D01*
X10680Y2896D02*
X10693D01*
X13970D02*
X15606D01*
X2467Y2692D02*
X2797Y3023D01*
X10414D01*
X4039Y2743D02*
X10566D01*
X2467Y2438D02*
X2998D01*
X3148D02*
X11024D01*
X4089Y9068D02*
X4291Y9269D01*
X4312Y9319D02*
X4682D01*
X4312Y9319D02*
X4312Y9319D01*
X4270Y9319D02*
X4312D01*
X4039Y9089D02*
X4270Y9319D01*
X3989Y9120D02*
X4238Y9369D01*
X3939Y9141D02*
X4323Y9524D01*
X3939Y7464D02*
Y9141D01*
X3989Y7485D02*
Y9120D01*
X4039Y7506D02*
Y9089D01*
X4089Y7527D02*
Y9068D01*
X3939Y7464D02*
X4393Y7010D01*
X3989Y7485D02*
X4413Y7061D01*
X4039Y7506D02*
X4433Y7112D01*
X4089Y7527D02*
X4453Y7163D01*
X4393Y7010D02*
X5108D01*
X5856Y6263D01*
X4413Y7061D02*
X5128D01*
X5877Y6313D01*
X4433Y7112D02*
X5148D01*
X5898Y6363D01*
X4453Y7163D02*
X5168D01*
X5918Y6413D01*
X10490Y5512D02*
X12471D01*
X7947Y6213D02*
Y6218D01*
X7997Y6233D02*
Y6239D01*
X8047Y6254D02*
Y6260D01*
X8097Y6275D02*
Y6280D01*
X5918Y6413D02*
X7965D01*
X8097Y6280D01*
X5898Y6363D02*
X7944D01*
X8047Y6260D01*
X5877Y6313D02*
X7923D01*
X7997Y6239D01*
X5856Y6263D02*
X7903D01*
X7947Y6218D01*
X13741Y6071D02*
X13843D01*
X8097Y6275D02*
X8496Y5876D01*
X8047Y6254D02*
X8475Y5826D01*
X7997Y6233D02*
X8454Y5776D01*
X7947Y6213D02*
X8434Y5726D01*
X12471Y5512D02*
X12573Y5410D01*
X13767D01*
X23378Y8524D02*
X23749Y8153D01*
X23368Y8280D02*
X23749Y7899D01*
X23343Y8026D02*
X23724Y7645D01*
X23012Y7518D02*
X23673D01*
X23774Y7417D01*
X22733Y7798D02*
X23012Y7518D01*
X15052Y9718D02*
X15113Y9779D01*
X13482Y9718D02*
X15052D01*
X11530Y9706D02*
X13470D01*
X11430Y9806D02*
X11530Y9706D01*
X13470D02*
X13482Y9718D01*
D57*
X12756Y7548D02*
Y8155D01*
X12912Y8311D01*
X16148Y8157D02*
X16304Y8314D01*
X16148Y7550D02*
Y8157D01*
D58*
X3658Y5855D02*
Y10084D01*
X23241Y9429D02*
X23749D01*
X3658Y10084D02*
X3962Y10389D01*
X5911D01*
X3658Y5855D02*
X4108D01*
X22584Y10086D02*
X23241Y9429D01*
X6331Y10439D02*
X6684Y10086D01*
X22584D01*
D59*
X4324Y8617D02*
X4470D01*
X6452Y8256D02*
X6583D01*
D60*
X2557Y1555D02*
D03*
Y10444D02*
D03*
D61*
X2847Y5669D02*
D03*
Y5219D02*
D03*
X23241Y2063D02*
D03*
Y2317D02*
D03*
Y2571D02*
D03*
Y2825D02*
D03*
Y3079D02*
D03*
Y3333D02*
D03*
Y3587D02*
D03*
Y3841D02*
D03*
Y4095D02*
D03*
Y4349D02*
D03*
Y4603D02*
D03*
Y4857D02*
D03*
Y5111D02*
D03*
Y5365D02*
D03*
Y5619D02*
D03*
Y5873D02*
D03*
Y6127D02*
D03*
Y6381D02*
D03*
Y6635D02*
D03*
Y6889D02*
D03*
Y7143D02*
D03*
Y7397D02*
D03*
Y7651D02*
D03*
Y7905D02*
D03*
Y8159D02*
D03*
Y8413D02*
D03*
Y8667D02*
D03*
Y8921D02*
D03*
Y9175D02*
D03*
Y9429D02*
D03*
Y9683D02*
D03*
Y9937D02*
D03*
X23749Y2063D02*
D03*
Y2317D02*
D03*
Y2571D02*
D03*
Y2825D02*
D03*
Y3079D02*
D03*
Y3333D02*
D03*
Y3587D02*
D03*
Y3841D02*
D03*
Y4095D02*
D03*
Y4349D02*
D03*
Y4603D02*
D03*
Y4857D02*
D03*
Y5111D02*
D03*
Y5365D02*
D03*
Y5619D02*
D03*
Y5873D02*
D03*
Y6127D02*
D03*
Y6381D02*
D03*
Y6635D02*
D03*
Y6889D02*
D03*
Y7143D02*
D03*
Y7397D02*
D03*
Y7651D02*
D03*
Y7905D02*
D03*
Y8159D02*
D03*
Y8413D02*
D03*
Y8667D02*
D03*
Y8921D02*
D03*
Y9175D02*
D03*
Y9429D02*
D03*
Y9683D02*
D03*
Y9937D02*
D03*
X7925Y9144D02*
D03*
Y8865D02*
D03*
D62*
X3096Y5093D02*
D03*
Y5794D02*
D03*
D63*
X2492Y9728D02*
D03*
Y9474D02*
D03*
Y8179D02*
D03*
Y8433D02*
D03*
Y8839D02*
D03*
Y9093D02*
D03*
Y4343D02*
D03*
Y4597D02*
D03*
Y3708D02*
D03*
Y3962D02*
D03*
Y3073D02*
D03*
Y3327D02*
D03*
Y2438D02*
D03*
Y2692D02*
D03*
D64*
X2591Y6274D02*
D03*
X2337D02*
D03*
X2591Y6528D02*
D03*
X2337D02*
D03*
X2591Y6782D02*
D03*
X2337D02*
D03*
Y7036D02*
D03*
X2591D02*
D03*
Y7290D02*
D03*
X2337D02*
D03*
D65*
X24003Y1555D02*
D03*
Y10445D02*
D03*
D66*
X21255Y7515D02*
D03*
D67*
X21468Y7512D02*
D03*
X17071Y8579D02*
D03*
X13680Y8561D02*
D03*
X9271Y8153D02*
D03*
X9017Y8280D02*
D03*
X9144D02*
D03*
X9271D02*
D03*
X9398Y8153D02*
D03*
Y8280D02*
D03*
X9017Y8407D02*
D03*
X9144D02*
D03*
X9271D02*
D03*
X9398D02*
D03*
X8890Y8534D02*
D03*
X9017D02*
D03*
X9144D02*
D03*
X9271D02*
D03*
X19177Y8560D02*
D03*
X19304D02*
D03*
Y8433D02*
D03*
Y8306D02*
D03*
X19431D02*
D03*
Y8433D02*
D03*
Y8560D02*
D03*
X19558D02*
D03*
Y8433D02*
D03*
Y8306D02*
D03*
Y8179D02*
D03*
X19685D02*
D03*
Y8306D02*
D03*
Y8433D02*
D03*
X15113Y7950D02*
D03*
X15011Y7849D02*
D03*
Y7950D02*
D03*
Y8052D02*
D03*
X15113D02*
D03*
X15215D02*
D03*
X15316D02*
D03*
X15418D02*
D03*
X15519D02*
D03*
X15621D02*
D03*
X11049Y6680D02*
D03*
X11151D02*
D03*
X11252D02*
D03*
X11354D02*
D03*
X11455D02*
D03*
X11659D02*
D03*
X11557D02*
D03*
X12268D02*
D03*
X12167D02*
D03*
X12065D02*
D03*
X11963D02*
D03*
X11862D02*
D03*
X11760D02*
D03*
X12878D02*
D03*
X12776D02*
D03*
X12675D02*
D03*
X12573D02*
D03*
X12471D02*
D03*
X12370D02*
D03*
X13487D02*
D03*
X13386D02*
D03*
X13284D02*
D03*
X13183D02*
D03*
X13081D02*
D03*
X12979D02*
D03*
X11709Y7950D02*
D03*
X12217Y8052D02*
D03*
X12116D02*
D03*
X12014D02*
D03*
X11913D02*
D03*
X11811D02*
D03*
X11608Y7950D02*
D03*
Y7849D02*
D03*
X11709Y8052D02*
D03*
X11608D02*
D03*
X13589Y6680D02*
D03*
X13691D02*
D03*
X13792D02*
D03*
X13894D02*
D03*
X13995D02*
D03*
X14097D02*
D03*
X13691Y7163D02*
D03*
X13437D02*
D03*
X13335D02*
D03*
X13538Y7264D02*
D03*
X13335D02*
D03*
X13437D02*
D03*
X13538Y7366D02*
D03*
X13437D02*
D03*
X13335D02*
D03*
Y7569D02*
D03*
X13437D02*
D03*
X13538D02*
D03*
X13233D02*
D03*
X13132Y7572D02*
D03*
X13132Y7474D02*
D03*
X13437D02*
D03*
X13233D02*
D03*
X13335D02*
D03*
X13538D02*
D03*
Y7671D02*
D03*
X13868Y8128D02*
D03*
X13970Y7874D02*
D03*
X14072Y7772D02*
D03*
Y7874D02*
D03*
Y7976D02*
D03*
X13970D02*
D03*
X13868Y7925D02*
D03*
X14072Y8077D02*
D03*
X13970D02*
D03*
X13868Y8026D02*
D03*
X14072Y8179D02*
D03*
X13970D02*
D03*
X13792Y7163D02*
D03*
X13894D02*
D03*
X13995D02*
D03*
X14097D02*
D03*
X13335Y7671D02*
D03*
X13233D02*
D03*
X13437D02*
D03*
X13132D02*
D03*
Y7772D02*
D03*
X13233D02*
D03*
X13538D02*
D03*
X13437D02*
D03*
X13335D02*
D03*
X13321Y9088D02*
D03*
X13296Y8592D02*
D03*
X12903Y9144D02*
D03*
X16687Y8595D02*
D03*
X16713Y9090D02*
D03*
X17501Y6680D02*
D03*
X17399D02*
D03*
X17297D02*
D03*
X17196D02*
D03*
X17094D02*
D03*
X16993D02*
D03*
X16383D02*
D03*
X16485D02*
D03*
X16586D02*
D03*
X16688D02*
D03*
X16789D02*
D03*
X16891D02*
D03*
X15773D02*
D03*
X15875D02*
D03*
X15977D02*
D03*
X16078D02*
D03*
X16180D02*
D03*
X16281D02*
D03*
X15164D02*
D03*
X15265D02*
D03*
X15367D02*
D03*
X15469D02*
D03*
X15570D02*
D03*
X15672D02*
D03*
X14961D02*
D03*
X15062D02*
D03*
X14859D02*
D03*
X14757D02*
D03*
X14656D02*
D03*
X14554D02*
D03*
X14453D02*
D03*
X16739Y7772D02*
D03*
X16840D02*
D03*
X16942D02*
D03*
X16637D02*
D03*
X16535D02*
D03*
Y7671D02*
D03*
X16840D02*
D03*
X16637D02*
D03*
X16739D02*
D03*
X17399Y7163D02*
D03*
X17297D02*
D03*
X17196D02*
D03*
X17374Y8179D02*
D03*
X17475D02*
D03*
X17272Y8026D02*
D03*
X17374Y8077D02*
D03*
X17475D02*
D03*
X17272Y7925D02*
D03*
X17374Y7976D02*
D03*
X17475D02*
D03*
Y7874D02*
D03*
Y7772D02*
D03*
X17374Y7874D02*
D03*
X17272Y8128D02*
D03*
X16942Y7671D02*
D03*
Y7474D02*
D03*
X16739D02*
D03*
X16637D02*
D03*
X16840D02*
D03*
X16535D02*
D03*
Y7569D02*
D03*
X16637D02*
D03*
X16942D02*
D03*
X16840D02*
D03*
X16739D02*
D03*
Y7366D02*
D03*
X16840D02*
D03*
X16942D02*
D03*
X16840Y7264D02*
D03*
X16739D02*
D03*
X16942D02*
D03*
X16739Y7163D02*
D03*
X16840D02*
D03*
X17094D02*
D03*
X10566Y6096D02*
D03*
X10338D02*
D03*
X9830D02*
D03*
Y6198D02*
D03*
X9728D02*
D03*
Y6096D02*
D03*
X9627D02*
D03*
Y6198D02*
D03*
X9525Y6096D02*
D03*
Y6198D02*
D03*
X9423D02*
D03*
Y6096D02*
D03*
X9322D02*
D03*
Y6198D02*
D03*
X9220D02*
D03*
Y6096D02*
D03*
X9119D02*
D03*
Y6198D02*
D03*
X9017D02*
D03*
Y6096D02*
D03*
X8915D02*
D03*
Y6198D02*
D03*
X8814Y6096D02*
D03*
Y6198D02*
D03*
X8712D02*
D03*
Y6096D02*
D03*
X8611D02*
D03*
Y6198D02*
D03*
X8814Y6299D02*
D03*
X8712Y6401D02*
D03*
Y6299D02*
D03*
X8611D02*
D03*
Y6401D02*
D03*
Y6502D02*
D03*
X8560Y6604D02*
D03*
Y6909D02*
D03*
Y7010D02*
D03*
Y7112D02*
D03*
Y7214D02*
D03*
X10287Y6198D02*
D03*
X10465Y6096D02*
D03*
X9906Y8534D02*
D03*
X9779D02*
D03*
X9652D02*
D03*
X9906Y8407D02*
D03*
X9779D02*
D03*
X9652D02*
D03*
Y8280D02*
D03*
X9779D02*
D03*
X9906D02*
D03*
X9652Y8153D02*
D03*
X9779D02*
D03*
X9906D02*
D03*
X10033D02*
D03*
X10160D02*
D03*
X10287D02*
D03*
X10414D02*
D03*
X10541D02*
D03*
X9779Y8026D02*
D03*
X9906D02*
D03*
X10033D02*
D03*
X10160D02*
D03*
X10287D02*
D03*
X10414D02*
D03*
X10541D02*
D03*
Y7899D02*
D03*
X9652D02*
D03*
Y7772D02*
D03*
Y7645D02*
D03*
Y7518D02*
D03*
X9779Y7899D02*
D03*
X9906D02*
D03*
X10033D02*
D03*
X10160D02*
D03*
X10290Y7897D02*
D03*
X10414Y7899D02*
D03*
X10541Y7772D02*
D03*
X10414D02*
D03*
X10287D02*
D03*
X10160D02*
D03*
X10033D02*
D03*
X9906D02*
D03*
X9804D02*
D03*
X9779Y7645D02*
D03*
Y7518D02*
D03*
X9906D02*
D03*
X10033D02*
D03*
X10160D02*
D03*
X10287D02*
D03*
X10414D02*
D03*
X10541D02*
D03*
Y7645D02*
D03*
X10414D02*
D03*
X10287D02*
D03*
X10160D02*
D03*
X10033D02*
D03*
X9906D02*
D03*
X9398Y8534D02*
D03*
X16307Y9144D02*
D03*
X10541Y7391D02*
D03*
X10414D02*
D03*
X10287D02*
D03*
X10160D02*
D03*
X10033D02*
D03*
X9906D02*
D03*
Y7264D02*
D03*
X10033D02*
D03*
X10160D02*
D03*
X10287D02*
D03*
X10414D02*
D03*
X10541D02*
D03*
X9525Y8407D02*
D03*
Y8153D02*
D03*
Y8280D02*
D03*
Y8534D02*
D03*
X7671Y5334D02*
D03*
Y5207D02*
D03*
Y5080D02*
D03*
Y4953D02*
D03*
Y4826D02*
D03*
Y4699D02*
D03*
Y4572D02*
D03*
Y4445D02*
D03*
Y4318D02*
D03*
X7798D02*
D03*
Y4445D02*
D03*
Y4572D02*
D03*
Y4699D02*
D03*
Y4826D02*
D03*
Y4953D02*
D03*
Y5080D02*
D03*
Y5207D02*
D03*
Y5334D02*
D03*
X7925Y4318D02*
D03*
Y4445D02*
D03*
Y4572D02*
D03*
Y4699D02*
D03*
Y4826D02*
D03*
Y4953D02*
D03*
Y5080D02*
D03*
Y5207D02*
D03*
Y5334D02*
D03*
X7671Y3429D02*
D03*
Y3556D02*
D03*
Y3683D02*
D03*
Y3810D02*
D03*
Y3937D02*
D03*
Y4064D02*
D03*
Y4191D02*
D03*
X7798D02*
D03*
Y4064D02*
D03*
Y3937D02*
D03*
Y3810D02*
D03*
Y3683D02*
D03*
Y3556D02*
D03*
Y3429D02*
D03*
X7925Y4191D02*
D03*
Y4064D02*
D03*
Y3937D02*
D03*
Y3810D02*
D03*
Y3683D02*
D03*
Y3556D02*
D03*
Y3429D02*
D03*
X8052Y4953D02*
D03*
Y4826D02*
D03*
Y4699D02*
D03*
Y4572D02*
D03*
Y4445D02*
D03*
Y4318D02*
D03*
Y4191D02*
D03*
X8179Y4953D02*
D03*
Y4826D02*
D03*
Y4699D02*
D03*
Y4572D02*
D03*
Y4445D02*
D03*
Y4318D02*
D03*
Y4191D02*
D03*
X8306Y3429D02*
D03*
Y3556D02*
D03*
Y3683D02*
D03*
Y3810D02*
D03*
Y3937D02*
D03*
Y4064D02*
D03*
X8179Y3429D02*
D03*
Y3556D02*
D03*
Y3683D02*
D03*
Y3810D02*
D03*
Y3937D02*
D03*
Y4064D02*
D03*
X8052D02*
D03*
Y3937D02*
D03*
Y3810D02*
D03*
Y3683D02*
D03*
Y3556D02*
D03*
Y3429D02*
D03*
X18364Y3937D02*
D03*
Y4064D02*
D03*
X18491D02*
D03*
Y3937D02*
D03*
X18618Y4064D02*
D03*
Y3937D02*
D03*
X18491Y4191D02*
D03*
Y4318D02*
D03*
Y4445D02*
D03*
Y4572D02*
D03*
Y4699D02*
D03*
Y4826D02*
D03*
Y4953D02*
D03*
X18364Y4191D02*
D03*
Y4318D02*
D03*
Y4445D02*
D03*
Y4572D02*
D03*
Y4699D02*
D03*
Y4826D02*
D03*
Y4953D02*
D03*
X18237Y3937D02*
D03*
Y4064D02*
D03*
Y4191D02*
D03*
X18110Y3937D02*
D03*
Y4064D02*
D03*
Y4191D02*
D03*
X17983D02*
D03*
Y4064D02*
D03*
Y3937D02*
D03*
X18237Y5334D02*
D03*
Y5207D02*
D03*
Y5080D02*
D03*
Y4953D02*
D03*
Y4826D02*
D03*
Y4699D02*
D03*
Y4572D02*
D03*
Y4445D02*
D03*
Y4318D02*
D03*
X18110Y5334D02*
D03*
Y5207D02*
D03*
Y5080D02*
D03*
Y4953D02*
D03*
Y4826D02*
D03*
Y4699D02*
D03*
Y4572D02*
D03*
Y4445D02*
D03*
Y4318D02*
D03*
X17983D02*
D03*
Y4445D02*
D03*
Y4572D02*
D03*
Y4699D02*
D03*
Y4826D02*
D03*
Y4953D02*
D03*
Y5080D02*
D03*
Y5207D02*
D03*
Y5334D02*
D03*
X19812Y8560D02*
D03*
Y8433D02*
D03*
Y8179D02*
D03*
Y8306D02*
D03*
X20828Y7290D02*
D03*
X20701D02*
D03*
X20574D02*
D03*
X20447D02*
D03*
X20320D02*
D03*
X20193D02*
D03*
Y7417D02*
D03*
X20320D02*
D03*
X20447D02*
D03*
X20574D02*
D03*
X20701D02*
D03*
X20828D02*
D03*
X19685Y8560D02*
D03*
X20193Y7671D02*
D03*
X20320D02*
D03*
X20447D02*
D03*
X20574D02*
D03*
X20701D02*
D03*
X20828D02*
D03*
Y7544D02*
D03*
X20701D02*
D03*
X20574D02*
D03*
X20447D02*
D03*
X20320D02*
D03*
X20193D02*
D03*
X20066D02*
D03*
Y7671D02*
D03*
X20091Y7798D02*
D03*
X20193D02*
D03*
X20320D02*
D03*
X20447D02*
D03*
X20574D02*
D03*
X20701D02*
D03*
X20828D02*
D03*
X20701Y7925D02*
D03*
X20577D02*
D03*
X20447D02*
D03*
X20320D02*
D03*
X20193D02*
D03*
X20066D02*
D03*
X19939Y7544D02*
D03*
Y7671D02*
D03*
Y7798D02*
D03*
Y7925D02*
D03*
X20828D02*
D03*
Y8052D02*
D03*
X20701D02*
D03*
X20574D02*
D03*
X20447D02*
D03*
X20320D02*
D03*
X20193D02*
D03*
X20066D02*
D03*
X19939D02*
D03*
X20828Y8179D02*
D03*
X20701D02*
D03*
X20574D02*
D03*
X20447D02*
D03*
X20320D02*
D03*
X20193D02*
D03*
X20066D02*
D03*
X19939D02*
D03*
X20193Y8306D02*
D03*
X20066D02*
D03*
X19939D02*
D03*
Y8433D02*
D03*
X20066D02*
D03*
X20193D02*
D03*
X19939Y8560D02*
D03*
X20066D02*
D03*
X20193D02*
D03*
X20574Y6223D02*
D03*
X18847Y7239D02*
D03*
Y7137D02*
D03*
Y7036D02*
D03*
Y6934D02*
D03*
Y6629D02*
D03*
X18898Y6528D02*
D03*
Y6426D02*
D03*
Y6325D02*
D03*
X18999D02*
D03*
Y6426D02*
D03*
X19101Y6325D02*
D03*
X18898Y6223D02*
D03*
Y6121D02*
D03*
X18999D02*
D03*
Y6223D02*
D03*
X19101D02*
D03*
Y6121D02*
D03*
X19202Y6223D02*
D03*
Y6121D02*
D03*
X19304D02*
D03*
Y6223D02*
D03*
X19406D02*
D03*
Y6121D02*
D03*
X19507D02*
D03*
Y6223D02*
D03*
X19609D02*
D03*
Y6121D02*
D03*
X19710D02*
D03*
Y6223D02*
D03*
X19812D02*
D03*
Y6121D02*
D03*
X19914Y6223D02*
D03*
Y6121D02*
D03*
X20015D02*
D03*
Y6223D02*
D03*
X20117D02*
D03*
Y6121D02*
D03*
X20625D02*
D03*
X20853D02*
D03*
X19609Y6833D02*
D03*
X19685Y6934D02*
D03*
X19761Y7036D02*
D03*
Y7163D02*
D03*
X19660Y7264D02*
D03*
Y7112D02*
D03*
X9373D02*
D03*
Y7264D02*
D03*
X9474Y7163D02*
D03*
Y7036D02*
D03*
X9398Y6934D02*
D03*
X9322Y6833D02*
D03*
X21057Y5639D02*
D03*
Y5537D02*
D03*
Y5410D02*
D03*
X21158Y5639D02*
D03*
Y5537D02*
D03*
Y5410D02*
D03*
X21260D02*
D03*
Y5537D02*
D03*
Y5639D02*
D03*
X21361Y5461D02*
D03*
X13741Y6071D02*
D03*
X13716Y5537D02*
D03*
X13767Y5410D02*
D03*
X12979Y6807D02*
D03*
X13081D02*
D03*
X13183D02*
D03*
X13284D02*
D03*
X13386D02*
D03*
X13487D02*
D03*
X12370D02*
D03*
X12471D02*
D03*
X12573D02*
D03*
X12675D02*
D03*
X12776D02*
D03*
X12878D02*
D03*
X11760D02*
D03*
X11862D02*
D03*
X11963D02*
D03*
X12065D02*
D03*
X12167D02*
D03*
X12268D02*
D03*
X11557D02*
D03*
X11659D02*
D03*
X11455D02*
D03*
X11354D02*
D03*
X11252D02*
D03*
X11151D02*
D03*
X11049D02*
D03*
X12979Y6934D02*
D03*
X13081D02*
D03*
X13183D02*
D03*
X13284D02*
D03*
X13386D02*
D03*
X13487D02*
D03*
X12370D02*
D03*
X12471D02*
D03*
X12573D02*
D03*
X12675D02*
D03*
X12776D02*
D03*
X12878D02*
D03*
X11760D02*
D03*
X11862D02*
D03*
X11963D02*
D03*
X12065D02*
D03*
X12167D02*
D03*
X12268D02*
D03*
X11557D02*
D03*
X11659D02*
D03*
X11455D02*
D03*
X11354D02*
D03*
X11252D02*
D03*
X11151D02*
D03*
X11049D02*
D03*
X14453D02*
D03*
X14554D02*
D03*
X14656D02*
D03*
X14757D02*
D03*
X14859D02*
D03*
X15062D02*
D03*
X14961D02*
D03*
X15672D02*
D03*
X15570D02*
D03*
X15469D02*
D03*
X15367D02*
D03*
X15265D02*
D03*
X15164D02*
D03*
X16281D02*
D03*
X16180D02*
D03*
X16078D02*
D03*
X15977D02*
D03*
X15875D02*
D03*
X15773D02*
D03*
X16789D02*
D03*
X16688D02*
D03*
X16586D02*
D03*
X16485D02*
D03*
X16383D02*
D03*
X14453Y6807D02*
D03*
X14554D02*
D03*
X14656D02*
D03*
X14757D02*
D03*
X14859D02*
D03*
X15062D02*
D03*
X14961D02*
D03*
X15672D02*
D03*
X15570D02*
D03*
X15469D02*
D03*
X15367D02*
D03*
X15265D02*
D03*
X15164D02*
D03*
X16281D02*
D03*
X16180D02*
D03*
X16078D02*
D03*
X15977D02*
D03*
X15875D02*
D03*
X15773D02*
D03*
X16789D02*
D03*
X16688D02*
D03*
X16586D02*
D03*
X16485D02*
D03*
X16383D02*
D03*
X16891Y6934D02*
D03*
Y6807D02*
D03*
X20752Y6121D02*
D03*
X22403Y5639D02*
D03*
X22301D02*
D03*
X22200D02*
D03*
X13589Y10236D02*
D03*
Y10439D02*
D03*
Y10338D02*
D03*
X13691Y10439D02*
D03*
Y10338D02*
D03*
Y10236D02*
D03*
X8433Y10566D02*
D03*
Y10465D02*
D03*
Y10363D02*
D03*
X8331D02*
D03*
Y10465D02*
D03*
Y10566D02*
D03*
X17501Y7163D02*
D03*
D68*
X5176Y9717D02*
D03*
X8966Y8128D02*
D03*
X19228Y8128D02*
D03*
X7290Y6045D02*
D03*
X7366Y5588D02*
D03*
X4877Y6528D02*
D03*
X8269Y7753D02*
D03*
X6553Y9296D02*
D03*
X4324Y8617D02*
D03*
X3023Y6299D02*
D03*
X6034Y7493D02*
D03*
X20142Y9804D02*
D03*
X11684Y8585D02*
D03*
X12912Y8311D02*
D03*
X12765Y7539D02*
D03*
X12217Y4318D02*
D03*
X12040D02*
D03*
X11862D02*
D03*
X11684D02*
D03*
X11506D02*
D03*
X11328D02*
D03*
X11151D02*
D03*
X11252Y4166D02*
D03*
X11430D02*
D03*
X11608D02*
D03*
X11786D02*
D03*
X11963D02*
D03*
X11176Y4013D02*
D03*
X11354D02*
D03*
X11532D02*
D03*
X11709D02*
D03*
X11887D02*
D03*
X12065D02*
D03*
X12700Y4039D02*
D03*
Y3886D02*
D03*
Y3734D02*
D03*
Y3581D02*
D03*
X13005Y3531D02*
D03*
X13310Y4039D02*
D03*
X13487D02*
D03*
X13310Y3886D02*
D03*
X13487D02*
D03*
Y3734D02*
D03*
X13310D02*
D03*
X13157Y3531D02*
D03*
X13487Y3581D02*
D03*
X13310D02*
D03*
X11405Y3861D02*
D03*
X11227D02*
D03*
X11405Y3683D02*
D03*
X11227D02*
D03*
X11405Y3505D02*
D03*
X11227D02*
D03*
X16701Y3584D02*
D03*
Y3737D02*
D03*
X16879Y3889D02*
D03*
X16701D02*
D03*
X16879Y4041D02*
D03*
X16701D02*
D03*
X16396Y3533D02*
D03*
X16244D02*
D03*
X16092Y3584D02*
D03*
Y3737D02*
D03*
Y3889D02*
D03*
Y4041D02*
D03*
X16157Y7541D02*
D03*
X16304Y8314D02*
D03*
X15076Y8588D02*
D03*
X10541Y9634D02*
D03*
X18136Y8357D02*
D03*
X10135Y4267D02*
D03*
X9982D02*
D03*
X9830D02*
D03*
Y4420D02*
D03*
Y4572D02*
D03*
X9982Y4420D02*
D03*
Y4572D02*
D03*
X10135D02*
D03*
Y4420D02*
D03*
X9500Y4267D02*
D03*
X9322D02*
D03*
X9144D02*
D03*
Y4420D02*
D03*
X8992D02*
D03*
X8839D02*
D03*
X8992Y4267D02*
D03*
X9144Y4775D02*
D03*
X8992D02*
D03*
X4724Y6528D02*
D03*
X12852Y3531D02*
D03*
X10414Y3023D02*
D03*
X7442Y3200D02*
D03*
X10693Y2896D02*
D03*
X13970D02*
D03*
X16549Y3533D02*
D03*
X10566Y2743D02*
D03*
X4039D02*
D03*
X4470Y8331D02*
D03*
X11151Y4470D02*
D03*
Y4623D02*
D03*
Y4775D02*
D03*
Y4928D02*
D03*
Y5080D02*
D03*
Y5232D02*
D03*
X10998Y4318D02*
D03*
Y4470D02*
D03*
Y4623D02*
D03*
Y4775D02*
D03*
Y4928D02*
D03*
Y5080D02*
D03*
Y5232D02*
D03*
X11100Y4166D02*
D03*
X10947D02*
D03*
X11024Y4013D02*
D03*
X11074Y3861D02*
D03*
Y3683D02*
D03*
Y3505D02*
D03*
X10922D02*
D03*
Y3683D02*
D03*
Y3861D02*
D03*
X11303Y5232D02*
D03*
X11455D02*
D03*
X11303Y5080D02*
D03*
X11455D02*
D03*
Y4928D02*
D03*
X11303D02*
D03*
Y4775D02*
D03*
X11455D02*
D03*
Y4623D02*
D03*
X11303D02*
D03*
Y4470D02*
D03*
X11455D02*
D03*
X17678Y6147D02*
D03*
X3988Y5867D02*
D03*
X14834Y4470D02*
D03*
X14681D02*
D03*
Y4623D02*
D03*
X14834D02*
D03*
Y4775D02*
D03*
X14681D02*
D03*
Y4928D02*
D03*
X14834D02*
D03*
Y5080D02*
D03*
X14681D02*
D03*
X14834Y5232D02*
D03*
X14681D02*
D03*
X14300Y3861D02*
D03*
Y3683D02*
D03*
Y3505D02*
D03*
X14453D02*
D03*
Y3683D02*
D03*
Y3861D02*
D03*
X14402Y4013D02*
D03*
X14326Y4166D02*
D03*
X14478D02*
D03*
X14376Y5232D02*
D03*
Y5080D02*
D03*
Y4928D02*
D03*
Y4775D02*
D03*
Y4623D02*
D03*
Y4470D02*
D03*
Y4318D02*
D03*
X14529Y5232D02*
D03*
Y5080D02*
D03*
Y4928D02*
D03*
Y4775D02*
D03*
Y4623D02*
D03*
Y4470D02*
D03*
X14605Y3505D02*
D03*
X14783D02*
D03*
X14605Y3683D02*
D03*
X14783D02*
D03*
X14605Y3861D02*
D03*
X14783D02*
D03*
X15443Y4013D02*
D03*
X15265D02*
D03*
X15088D02*
D03*
X14910D02*
D03*
X14732D02*
D03*
X14554D02*
D03*
X15342Y4166D02*
D03*
X15164D02*
D03*
X14986D02*
D03*
X14808D02*
D03*
X14630D02*
D03*
X14529Y4318D02*
D03*
X14707D02*
D03*
X14884D02*
D03*
X15062D02*
D03*
X15240D02*
D03*
X15418D02*
D03*
X15596D02*
D03*
X10490Y5512D02*
D03*
X10135Y4877D02*
D03*
X9982D02*
D03*
X9830D02*
D03*
Y4724D02*
D03*
X9982D02*
D03*
X10135D02*
D03*
Y3962D02*
D03*
Y4115D02*
D03*
X9982D02*
D03*
Y3962D02*
D03*
X9830Y4115D02*
D03*
Y3962D02*
D03*
Y3810D02*
D03*
X9982D02*
D03*
X10135D02*
D03*
X9677Y3962D02*
D03*
X9322Y4115D02*
D03*
X9500Y3810D02*
D03*
X9677D02*
D03*
X9144Y3962D02*
D03*
Y4115D02*
D03*
X8992D02*
D03*
Y3962D02*
D03*
X8839Y4115D02*
D03*
Y3962D02*
D03*
Y3810D02*
D03*
X8992D02*
D03*
X9144D02*
D03*
X9677Y4115D02*
D03*
Y4267D02*
D03*
X9322Y3962D02*
D03*
Y3810D02*
D03*
X9500Y3962D02*
D03*
Y4115D02*
D03*
Y3658D02*
D03*
Y3505D02*
D03*
X9322Y3353D02*
D03*
Y3505D02*
D03*
X9677Y3658D02*
D03*
X9144Y3353D02*
D03*
X8992D02*
D03*
X8839D02*
D03*
Y3505D02*
D03*
Y3658D02*
D03*
X8992Y3505D02*
D03*
Y3658D02*
D03*
X9144D02*
D03*
Y3505D02*
D03*
X9677Y3353D02*
D03*
X9500D02*
D03*
X9322Y3658D02*
D03*
X9677Y3505D02*
D03*
X10135Y3353D02*
D03*
X9982D02*
D03*
X9830D02*
D03*
Y3505D02*
D03*
Y3658D02*
D03*
X9982Y3505D02*
D03*
Y3658D02*
D03*
X10135D02*
D03*
Y3505D02*
D03*
X19812Y4115D02*
D03*
Y3962D02*
D03*
X19634D02*
D03*
X19990Y4267D02*
D03*
Y4115D02*
D03*
X19152Y3962D02*
D03*
Y4115D02*
D03*
X19304Y3962D02*
D03*
Y4115D02*
D03*
X19456D02*
D03*
Y3962D02*
D03*
X19634Y4115D02*
D03*
X19990Y3962D02*
D03*
X20142D02*
D03*
Y4115D02*
D03*
X20295Y3962D02*
D03*
Y4115D02*
D03*
X20447D02*
D03*
Y3962D02*
D03*
Y4724D02*
D03*
X20295D02*
D03*
X20142D02*
D03*
Y4877D02*
D03*
X20295D02*
D03*
X20447D02*
D03*
X19304Y4775D02*
D03*
X19456D02*
D03*
X19304Y4267D02*
D03*
X19152Y4420D02*
D03*
X19304D02*
D03*
X19456D02*
D03*
Y4267D02*
D03*
X19634D02*
D03*
X19812D02*
D03*
X20447Y4420D02*
D03*
Y4572D02*
D03*
X20295D02*
D03*
Y4420D02*
D03*
X20142Y4572D02*
D03*
Y4420D02*
D03*
Y4267D02*
D03*
X20295D02*
D03*
X20447D02*
D03*
X23019Y5874D02*
D03*
X23026Y6262D02*
D03*
X22987Y7417D02*
D03*
Y7823D02*
D03*
X22555Y6655D02*
D03*
X22709Y8178D02*
D03*
X22379Y7924D02*
D03*
X22734Y8383D02*
D03*
X3390Y8561D02*
D03*
X3377Y8968D02*
D03*
X13238Y10234D02*
D03*
X20668D02*
D03*
D69*
X5029Y8433D02*
D03*
X5251Y8369D02*
D03*
X3258Y6682D02*
D03*
X5994Y9068D02*
D03*
X4293Y9093D02*
D03*
X4419Y9166D02*
D03*
X5740Y8179D02*
D03*
X4887Y8291D02*
D03*
X4445Y7671D02*
D03*
D70*
X19609Y9703D02*
D03*
X9347Y9677D02*
D03*
X15113Y9779D02*
D03*
X11709Y9804D02*
D03*
D71*
X9611Y9507D02*
D03*
X19898D02*
D03*
X11625Y9355D02*
D03*
X15016Y9358D02*
D03*
D72*
X6037Y9524D02*
D03*
X5987D02*
D03*
X5937D02*
D03*
X5887D02*
D03*
X5837D02*
D03*
X5787D02*
D03*
X5737D02*
D03*
X5687D02*
D03*
X5637D02*
D03*
X5587D02*
D03*
X5537D02*
D03*
X5487D02*
D03*
X5437D02*
D03*
X5387D02*
D03*
X5337D02*
D03*
X5287D02*
D03*
X5237D02*
D03*
X5187D02*
D03*
X5137D02*
D03*
X5087D02*
D03*
X5037D02*
D03*
X4987D02*
D03*
X4937D02*
D03*
X4887D02*
D03*
X4837D02*
D03*
Y8014D02*
D03*
X4887D02*
D03*
X4937D02*
D03*
X4987D02*
D03*
X5037D02*
D03*
X5087D02*
D03*
X5137D02*
D03*
X5187D02*
D03*
X5237D02*
D03*
X5287D02*
D03*
X5337D02*
D03*
X5387D02*
D03*
X5437D02*
D03*
X5487D02*
D03*
X5537D02*
D03*
X5587D02*
D03*
X5637D02*
D03*
X5687D02*
D03*
X5737D02*
D03*
X5787D02*
D03*
X5837D02*
D03*
X5887D02*
D03*
X5937D02*
D03*
X5987D02*
D03*
X6037D02*
D03*
D73*
X4682Y9369D02*
D03*
Y9319D02*
D03*
Y9269D02*
D03*
Y9219D02*
D03*
Y9169D02*
D03*
Y9119D02*
D03*
Y9069D02*
D03*
Y9019D02*
D03*
Y8969D02*
D03*
Y8919D02*
D03*
Y8869D02*
D03*
Y8819D02*
D03*
Y8769D02*
D03*
Y8719D02*
D03*
Y8669D02*
D03*
Y8619D02*
D03*
Y8569D02*
D03*
Y8519D02*
D03*
Y8469D02*
D03*
Y8419D02*
D03*
Y8369D02*
D03*
Y8319D02*
D03*
Y8269D02*
D03*
Y8219D02*
D03*
Y8169D02*
D03*
X6192D02*
D03*
Y8219D02*
D03*
Y8269D02*
D03*
Y8319D02*
D03*
Y8369D02*
D03*
Y8419D02*
D03*
Y8469D02*
D03*
Y8519D02*
D03*
Y8569D02*
D03*
Y8619D02*
D03*
Y8669D02*
D03*
Y8719D02*
D03*
Y8769D02*
D03*
Y8819D02*
D03*
Y8869D02*
D03*
Y8919D02*
D03*
Y8969D02*
D03*
Y9019D02*
D03*
Y9069D02*
D03*
Y9119D02*
D03*
Y9169D02*
D03*
Y9219D02*
D03*
Y9269D02*
D03*
Y9319D02*
D03*
Y9369D02*
D03*
D74*
X20891Y5512D02*
D03*
X20511D02*
D03*
D75*
X6604Y8277D02*
D03*
Y8489D02*
D03*
D76*
X5764Y7620D02*
D03*
X5664D02*
D03*
X5563D02*
D03*
D77*
X6331Y10439D02*
D03*
X5911D02*
D03*
D78*
X4361Y6462D02*
D03*
D79*
X4131Y5832D02*
D03*
X4361D02*
D03*
X4591D02*
D03*
M02*
