G04 Layer_Color=32896*
%FSLAX42Y42*%
%MOMM*%
G71*
G01*
G75*
%ADD40C,0.25*%
%ADD41C,0.50*%
%ADD61C,0.20*%
%ADD62C,0.10*%
%ADD63C,0.60*%
%ADD64C,0.25*%
%ADD67C,0.15*%
%ADD110C,0.23*%
%ADD111C,0.15*%
%ADD112R,0.30X0.30*%
%ADD113R,0.15X0.30*%
%ADD114R,0.15X0.30*%
D40*
X5601Y10316D02*
Y10816D01*
D41*
X2202Y11000D02*
X24206Y11000D01*
X2251Y10420D02*
X2253Y10422D01*
X2200Y1041D02*
Y10998D01*
Y1035D02*
Y1041D01*
Y1035D02*
X2235Y1000D01*
X17297D01*
X24206Y1000D01*
X24206Y11000D01*
D61*
X6494Y10566D02*
Y10816D01*
X5749D02*
X6494D01*
X5749Y10316D02*
Y10816D01*
Y10316D02*
X6494D01*
Y10566D01*
X6563Y8565D02*
Y8605D01*
X6493Y8565D02*
Y8605D01*
X5263Y7858D02*
X5303D01*
X5263Y7788D02*
X5303D01*
X5140Y7625D02*
Y7665D01*
X5070Y7625D02*
Y7665D01*
X5009Y9795D02*
X5049D01*
X5009Y9865D02*
X5049D01*
X4933Y9668D02*
X4973D01*
X4933Y9738D02*
X4973D01*
X5659Y10316D02*
Y10566D01*
X4857Y10316D02*
X5659D01*
X4857D02*
Y10816D01*
X5659D01*
Y10566D02*
Y10816D01*
X5644Y7858D02*
X5684D01*
X5644Y7788D02*
X5684D01*
X5949Y7807D02*
X5989D01*
X5949Y7737D02*
X5989D01*
X4812Y8144D02*
X6062D01*
X4812Y9394D02*
X6062D01*
X4812Y8144D02*
Y9394D01*
X6062Y8144D02*
Y9394D01*
X9745Y5845D02*
Y6005D01*
X9435Y5845D02*
Y6005D01*
X19117Y5845D02*
Y6005D01*
X18807Y5845D02*
Y6005D01*
X18941Y3186D02*
Y3266D01*
X18701Y3186D02*
Y3266D01*
X20745Y3160D02*
Y3240D01*
X20505Y3160D02*
Y3240D01*
X21050Y3160D02*
Y3240D01*
X20810Y3160D02*
Y3240D01*
X20440Y3160D02*
Y3240D01*
X20200Y3160D02*
Y3240D01*
X18941Y1738D02*
Y1818D01*
X18701Y1738D02*
Y1818D01*
X20465Y1789D02*
Y1869D01*
X20225Y1789D02*
Y1869D01*
X20770Y1789D02*
Y1869D01*
X20530Y1789D02*
Y1869D01*
X21074Y1789D02*
Y1869D01*
X20834Y1789D02*
Y1869D01*
X19640Y3216D02*
X19680D01*
X19640Y3286D02*
X19680D01*
X19640Y1692D02*
X19680D01*
X19640Y1762D02*
X19680D01*
X2886Y1733D02*
Y1773D01*
X2956Y1733D02*
Y1773D01*
X3064Y1733D02*
Y1773D01*
X3134Y1733D02*
Y1773D01*
X2454Y1758D02*
Y1798D01*
X2524Y1758D02*
Y1798D01*
D62*
X7183Y10119D02*
G03*
X7183Y10711I-95J296D01*
G01*
X6992D02*
G03*
X6992Y10119I95J-296D01*
G01*
X7183Y10089D02*
X7412D01*
Y10571D01*
X7244Y10739D02*
X7412Y10571D01*
X7183Y10739D02*
X7244D01*
X6932D02*
X6992D01*
X6762Y10571D02*
X6932Y10739D01*
X6762Y10089D02*
Y10571D01*
Y10089D02*
X6992D01*
D63*
X5992Y9294D02*
G03*
X5992Y9294I-30J0D01*
G01*
D64*
X6205Y9439D02*
G03*
X6205Y9439I-12J0D01*
G01*
D67*
X2743Y1524D02*
Y1604D01*
X2703D01*
X2690Y1591D01*
Y1564D01*
X2703Y1551D01*
X2743D01*
X2717D02*
X2690Y1524D01*
X2663Y1511D02*
X2610D01*
X2583Y1604D02*
Y1524D01*
X2530D01*
X2450Y1604D02*
X2503D01*
Y1524D01*
X2450D01*
X2503Y1564D02*
X2477D01*
X2423Y1604D02*
Y1524D01*
X2383D01*
X2370Y1537D01*
Y1591D01*
X2383Y1604D01*
X2423D01*
X2343Y1591D02*
X2330Y1604D01*
X2303D01*
X2290Y1591D01*
Y1577D01*
X2303Y1564D01*
X2317D01*
X2303D01*
X2290Y1551D01*
Y1537D01*
X2303Y1524D01*
X2330D01*
X2343Y1537D01*
X3480Y1499D02*
Y1579D01*
X3440D01*
X3426Y1565D01*
Y1539D01*
X3440Y1525D01*
X3480D01*
X3453D02*
X3426Y1499D01*
X3400Y1485D02*
X3347D01*
X3320Y1579D02*
Y1499D01*
X3267D01*
X3187Y1579D02*
X3240D01*
Y1499D01*
X3187D01*
X3240Y1539D02*
X3213D01*
X3160Y1579D02*
Y1499D01*
X3120D01*
X3107Y1512D01*
Y1565D01*
X3120Y1579D01*
X3160D01*
X3027Y1499D02*
X3080D01*
X3027Y1552D01*
Y1565D01*
X3040Y1579D01*
X3067D01*
X3080Y1565D01*
X3099Y1930D02*
Y2010D01*
X3059D01*
X3045Y1997D01*
Y1970D01*
X3059Y1957D01*
X3099D01*
X3072D02*
X3045Y1930D01*
X3019Y1917D02*
X2966D01*
X2939Y2010D02*
Y1930D01*
X2886D01*
X2806Y2010D02*
X2859D01*
Y1930D01*
X2806D01*
X2859Y1970D02*
X2832D01*
X2779Y2010D02*
Y1930D01*
X2739D01*
X2726Y1944D01*
Y1997D01*
X2739Y2010D01*
X2779D01*
X2699Y1930D02*
X2672D01*
X2686D01*
Y2010D01*
X2699Y1997D01*
X19787Y1549D02*
Y1629D01*
X19747D01*
X19733Y1616D01*
Y1589D01*
X19747Y1576D01*
X19787D01*
X19760D02*
X19733Y1549D01*
X19707Y1536D02*
X19653D01*
X19627Y1629D02*
Y1549D01*
X19573D01*
X19507D02*
Y1629D01*
X19547Y1589D01*
X19493D01*
X19787Y3378D02*
Y3458D01*
X19747D01*
X19733Y3445D01*
Y3418D01*
X19747Y3405D01*
X19787D01*
X19760D02*
X19733Y3378D01*
X19707Y3365D02*
X19653D01*
X19627Y3458D02*
Y3378D01*
X19573D01*
X19547Y3445D02*
X19533Y3458D01*
X19507D01*
X19493Y3445D01*
Y3432D01*
X19507Y3418D01*
X19520D01*
X19507D01*
X19493Y3405D01*
Y3392D01*
X19507Y3378D01*
X19533D01*
X19547Y3392D01*
X19685Y2442D02*
Y2362D01*
X19632D01*
X19565D02*
Y2442D01*
X19605Y2402D01*
X19552D01*
X19685Y2595D02*
Y2515D01*
X19632D01*
X19605Y2581D02*
X19592Y2595D01*
X19565D01*
X19552Y2581D01*
Y2568D01*
X19565Y2555D01*
X19578D01*
X19565D01*
X19552Y2541D01*
Y2528D01*
X19565Y2515D01*
X19592D01*
X19605Y2528D01*
X20905Y2067D02*
X20892Y2054D01*
X20865D01*
X20852Y2067D01*
Y2120D01*
X20865Y2134D01*
X20892D01*
X20905Y2120D01*
X20932Y2134D02*
X20958D01*
X20945D01*
Y2054D01*
X20932Y2067D01*
X20998Y2120D02*
X21012Y2134D01*
X21038D01*
X21052Y2120D01*
Y2067D01*
X21038Y2054D01*
X21012D01*
X20998Y2067D01*
Y2080D01*
X21012Y2094D01*
X21052D01*
X20602Y2067D02*
X20589Y2054D01*
X20562D01*
X20549Y2067D01*
Y2120D01*
X20562Y2134D01*
X20589D01*
X20602Y2120D01*
X20629Y2134D02*
X20655D01*
X20642D01*
Y2054D01*
X20629Y2067D01*
X20695D02*
X20709Y2054D01*
X20735D01*
X20749Y2067D01*
Y2080D01*
X20735Y2094D01*
X20749Y2107D01*
Y2120D01*
X20735Y2134D01*
X20709D01*
X20695Y2120D01*
Y2107D01*
X20709Y2094D01*
X20695Y2080D01*
Y2067D01*
X20709Y2094D02*
X20735D01*
X20323Y2067D02*
X20309Y2054D01*
X20283D01*
X20269Y2067D01*
Y2120D01*
X20283Y2134D01*
X20309D01*
X20323Y2120D01*
X20349Y2134D02*
X20376D01*
X20363D01*
Y2054D01*
X20349Y2067D01*
X20416Y2054D02*
X20469D01*
Y2067D01*
X20416Y2120D01*
Y2134D01*
X18443Y1711D02*
X18430Y1698D01*
X18403D01*
X18390Y1711D01*
Y1765D01*
X18403Y1778D01*
X18430D01*
X18443Y1765D01*
X18470Y1778D02*
X18496D01*
X18483D01*
Y1698D01*
X18470Y1711D01*
X18590Y1698D02*
X18563Y1711D01*
X18536Y1738D01*
Y1765D01*
X18550Y1778D01*
X18576D01*
X18590Y1765D01*
Y1751D01*
X18576Y1738D01*
X18536D01*
X20272Y3463D02*
X20258Y3450D01*
X20232D01*
X20218Y3463D01*
Y3516D01*
X20232Y3530D01*
X20258D01*
X20272Y3516D01*
X20298Y3530D02*
X20325D01*
X20312D01*
Y3450D01*
X20298Y3463D01*
X20418Y3450D02*
X20365D01*
Y3490D01*
X20392Y3476D01*
X20405D01*
X20418Y3490D01*
Y3516D01*
X20405Y3530D01*
X20378D01*
X20365Y3516D01*
X20907Y3463D02*
X20893Y3450D01*
X20867D01*
X20853Y3463D01*
Y3516D01*
X20867Y3530D01*
X20893D01*
X20907Y3516D01*
X20933Y3530D02*
X20960D01*
X20947D01*
Y3450D01*
X20933Y3463D01*
X21040Y3530D02*
Y3450D01*
X21000Y3490D01*
X21053D01*
X20577Y3463D02*
X20563Y3450D01*
X20537D01*
X20523Y3463D01*
Y3516D01*
X20537Y3530D01*
X20563D01*
X20577Y3516D01*
X20603Y3530D02*
X20630D01*
X20617D01*
Y3450D01*
X20603Y3463D01*
X20670D02*
X20683Y3450D01*
X20710D01*
X20723Y3463D01*
Y3476D01*
X20710Y3490D01*
X20696D01*
X20710D01*
X20723Y3503D01*
Y3516D01*
X20710Y3530D01*
X20683D01*
X20670Y3516D01*
X18468Y3159D02*
X18455Y3146D01*
X18428D01*
X18415Y3159D01*
Y3212D01*
X18428Y3226D01*
X18455D01*
X18468Y3212D01*
X18495Y3226D02*
X18522D01*
X18508D01*
Y3146D01*
X18495Y3159D01*
X18615Y3226D02*
X18562D01*
X18615Y3172D01*
Y3159D01*
X18602Y3146D01*
X18575D01*
X18562Y3159D01*
X18680Y6144D02*
X18694Y6157D01*
X18720D01*
X18734Y6144D01*
Y6090D01*
X18720Y6077D01*
X18694D01*
X18680Y6090D01*
X18654Y6144D02*
X18640Y6157D01*
X18614D01*
X18601Y6144D01*
Y6130D01*
X18614Y6117D01*
X18627D01*
X18614D01*
X18601Y6104D01*
Y6090D01*
X18614Y6077D01*
X18640D01*
X18654Y6090D01*
X18574Y6144D02*
X18561Y6157D01*
X18534D01*
X18521Y6144D01*
Y6130D01*
X18534Y6117D01*
X18547D01*
X18534D01*
X18521Y6104D01*
Y6090D01*
X18534Y6077D01*
X18561D01*
X18574Y6090D01*
X9281Y6241D02*
X9295Y6255D01*
X9321D01*
X9335Y6241D01*
Y6188D01*
X9321Y6175D01*
X9295D01*
X9281Y6188D01*
X9255Y6241D02*
X9241Y6255D01*
X9215D01*
X9201Y6241D01*
Y6228D01*
X9215Y6215D01*
X9228D01*
X9215D01*
X9201Y6201D01*
Y6188D01*
X9215Y6175D01*
X9241D01*
X9255Y6188D01*
X9175Y6175D02*
X9148D01*
X9161D01*
Y6255D01*
X9175Y6241D01*
X4737Y9529D02*
Y9462D01*
X4724Y9449D01*
X4697D01*
X4684Y9462D01*
Y9529D01*
X4657Y9515D02*
X4644Y9529D01*
X4617D01*
X4604Y9515D01*
Y9502D01*
X4617Y9489D01*
X4631D01*
X4617D01*
X4604Y9475D01*
Y9462D01*
X4617Y9449D01*
X4644D01*
X4657Y9462D01*
X6528Y7722D02*
Y7802D01*
X6488D01*
X6474Y7788D01*
Y7762D01*
X6488Y7748D01*
X6528D01*
X6501D02*
X6474Y7722D01*
X6448Y7708D02*
X6395D01*
X6368Y7695D02*
Y7775D01*
X6328D01*
X6315Y7762D01*
Y7735D01*
X6328Y7722D01*
X6368D01*
X6288Y7775D02*
Y7735D01*
X6275Y7722D01*
X6235D01*
Y7775D01*
X6155Y7802D02*
X6208D01*
Y7762D01*
X6181Y7775D01*
X6168D01*
X6155Y7762D01*
Y7735D01*
X6168Y7722D01*
X6195D01*
X6208Y7735D01*
X3093Y8088D02*
Y8141D01*
X3067Y8168D01*
X3040Y8141D01*
Y8088D01*
Y8128D01*
X3093D01*
X2960Y8155D02*
X2974Y8168D01*
X3000D01*
X3014Y8155D01*
Y8101D01*
X3000Y8088D01*
X2974D01*
X2960Y8101D01*
X2934Y8088D02*
X2907D01*
X2920D01*
Y8168D01*
X2934Y8155D01*
X6604Y9754D02*
X6657D01*
X6684Y9780D01*
X6657Y9807D01*
X6604D01*
X6644D01*
Y9754D01*
X6671Y9887D02*
X6684Y9874D01*
Y9847D01*
X6671Y9834D01*
X6617D01*
X6604Y9847D01*
Y9874D01*
X6617Y9887D01*
X6604Y9967D02*
Y9914D01*
X6657Y9967D01*
X6671D01*
X6684Y9954D01*
Y9927D01*
X6671Y9914D01*
X4445Y8331D02*
X4498D01*
X4525Y8358D01*
X4498Y8385D01*
X4445D01*
X4485D01*
Y8331D01*
X4512Y8464D02*
X4525Y8451D01*
Y8425D01*
X4512Y8411D01*
X4458D01*
X4445Y8425D01*
Y8451D01*
X4458Y8464D01*
X4512Y8491D02*
X4525Y8504D01*
Y8531D01*
X4512Y8544D01*
X4498D01*
X4485Y8531D01*
Y8518D01*
Y8531D01*
X4472Y8544D01*
X4458D01*
X4445Y8531D01*
Y8504D01*
X4458Y8491D01*
X6401Y8763D02*
X6347D01*
X6321Y8736D01*
X6347Y8710D01*
X6401D01*
X6361D01*
Y8763D01*
X6334Y8630D02*
X6321Y8643D01*
Y8670D01*
X6334Y8683D01*
X6387D01*
X6401Y8670D01*
Y8643D01*
X6387Y8630D01*
X6401Y8563D02*
X6321D01*
X6361Y8603D01*
Y8550D01*
X6606Y9728D02*
X6552D01*
X6526Y9702D01*
X6552Y9675D01*
X6606D01*
X6566D01*
Y9728D01*
X6539Y9595D02*
X6526Y9608D01*
Y9635D01*
X6539Y9648D01*
X6592D01*
X6606Y9635D01*
Y9608D01*
X6592Y9595D01*
X6526Y9515D02*
Y9568D01*
X6566D01*
X6552Y9542D01*
Y9528D01*
X6566Y9515D01*
X6592D01*
X6606Y9528D01*
Y9555D01*
X6592Y9568D01*
X5436Y7645D02*
X5489D01*
X5516Y7672D01*
X5489Y7699D01*
X5436D01*
X5476D01*
Y7645D01*
X5436Y7725D02*
X5516D01*
Y7765D01*
X5502Y7779D01*
X5476D01*
X5462Y7765D01*
Y7725D01*
Y7752D02*
X5436Y7779D01*
Y7859D02*
Y7805D01*
X5489Y7859D01*
X5502D01*
X5516Y7845D01*
Y7819D01*
X5502Y7805D01*
X4496Y10512D02*
Y10592D01*
X4536D01*
X4549Y10578D01*
Y10525D01*
X4536Y10512D01*
X4496D01*
X4576D02*
X4629D01*
X4602D01*
Y10592D01*
X4656Y10512D02*
Y10565D01*
X4682Y10592D01*
X4709Y10565D01*
Y10512D01*
X4789Y10525D02*
X4776Y10512D01*
X4749D01*
X4736Y10525D01*
Y10538D01*
X4749Y10552D01*
X4776D01*
X4789Y10565D01*
Y10578D01*
X4776Y10592D01*
X4749D01*
X4736Y10578D01*
X2612Y8718D02*
Y8692D01*
Y8705D01*
X2692D01*
Y8718D01*
Y8692D01*
X2626Y8598D02*
X2612Y8612D01*
Y8638D01*
X2626Y8652D01*
X2679D01*
X2692Y8638D01*
Y8612D01*
X2679Y8598D01*
X2626Y8518D02*
X2612Y8532D01*
Y8558D01*
X2626Y8572D01*
X2639D01*
X2652Y8558D01*
Y8532D01*
X2666Y8518D01*
X2679D01*
X2692Y8532D01*
Y8558D01*
X2679Y8572D01*
X2692Y8492D02*
X2612D01*
Y8452D01*
X2626Y8438D01*
X2652D01*
X2666Y8452D01*
Y8492D01*
X2692Y8412D02*
Y8385D01*
Y8399D01*
X2612D01*
X2626Y8412D01*
X6909Y9046D02*
Y8966D01*
X6855D01*
X6776Y9046D02*
X6829D01*
Y8966D01*
X6776D01*
X6829Y9006D02*
X6802D01*
X6749Y9046D02*
Y8966D01*
X6709D01*
X6696Y8980D01*
Y9033D01*
X6709Y9046D01*
X6749D01*
X6616Y8966D02*
X6669D01*
X6616Y9020D01*
Y9033D01*
X6629Y9046D01*
X6656D01*
X6669Y9033D01*
X4699Y9703D02*
X4779D01*
Y9743D01*
X4766Y9756D01*
X4739D01*
X4726Y9743D01*
Y9703D01*
Y9729D02*
X4699Y9756D01*
X4686Y9783D02*
Y9836D01*
X4672Y9863D02*
X4752D01*
Y9903D01*
X4739Y9916D01*
X4712D01*
X4699Y9903D01*
Y9863D01*
X4752Y9943D02*
X4712D01*
X4699Y9956D01*
Y9996D01*
X4752D01*
X4699Y10023D02*
Y10049D01*
Y10036D01*
X4779D01*
X4766Y10023D01*
X5004Y9931D02*
X5084D01*
Y9971D01*
X5070Y9985D01*
X5044D01*
X5030Y9971D01*
Y9931D01*
Y9958D02*
X5004Y9985D01*
X4990Y10011D02*
Y10065D01*
X4977Y10091D02*
X5057D01*
Y10131D01*
X5044Y10145D01*
X5017D01*
X5004Y10131D01*
Y10091D01*
X5057Y10171D02*
X5017D01*
X5004Y10185D01*
Y10225D01*
X5057D01*
X5004Y10305D02*
Y10251D01*
X5057Y10305D01*
X5070D01*
X5084Y10291D01*
Y10265D01*
X5070Y10251D01*
X5004Y7595D02*
Y7675D01*
X4964D01*
X4950Y7661D01*
Y7635D01*
X4964Y7621D01*
X5004D01*
X4977D02*
X4950Y7595D01*
X4924Y7581D02*
X4871D01*
X4844Y7568D02*
Y7648D01*
X4804D01*
X4791Y7635D01*
Y7608D01*
X4804Y7595D01*
X4844D01*
X4764Y7648D02*
Y7608D01*
X4751Y7595D01*
X4711D01*
Y7648D01*
X4684Y7661D02*
X4671Y7675D01*
X4644D01*
X4631Y7661D01*
Y7648D01*
X4644Y7635D01*
X4657D01*
X4644D01*
X4631Y7621D01*
Y7608D01*
X4644Y7595D01*
X4671D01*
X4684Y7608D01*
X5309Y7747D02*
X5229D01*
Y7707D01*
X5242Y7694D01*
X5269D01*
X5282Y7707D01*
Y7747D01*
Y7720D02*
X5309Y7694D01*
X5322Y7667D02*
Y7614D01*
X5335Y7587D02*
X5255D01*
Y7547D01*
X5269Y7534D01*
X5295D01*
X5309Y7547D01*
Y7587D01*
X5255Y7507D02*
X5295D01*
X5309Y7494D01*
Y7454D01*
X5255D01*
X5309Y7387D02*
X5229D01*
X5269Y7427D01*
Y7374D01*
X6985Y8560D02*
Y8640D01*
X6945D01*
X6932Y8626D01*
Y8600D01*
X6945Y8586D01*
X6985D01*
X6958D02*
X6932Y8560D01*
X6905Y8640D02*
Y8560D01*
X6852D01*
X6772Y8640D02*
X6825D01*
Y8560D01*
X6772D01*
X6825Y8600D02*
X6798D01*
X6745Y8640D02*
Y8560D01*
X6705D01*
X6692Y8573D01*
Y8626D01*
X6705Y8640D01*
X6745D01*
X6612Y8560D02*
X6665D01*
X6612Y8613D01*
Y8626D01*
X6625Y8640D01*
X6652D01*
X6665Y8626D01*
X5715Y7471D02*
Y7458D01*
X5688Y7431D01*
X5662Y7458D01*
Y7471D01*
X5688Y7431D02*
Y7391D01*
X5635D02*
X5608D01*
X5622D01*
Y7471D01*
X5635Y7458D01*
X6627Y10646D02*
X6680D01*
Y10606D01*
X6654D01*
X6680D01*
Y10566D01*
X6600Y10633D02*
X6587Y10646D01*
X6560D01*
X6547Y10633D01*
Y10620D01*
X6560Y10606D01*
X6574D01*
X6560D01*
X6547Y10593D01*
Y10580D01*
X6560Y10566D01*
X6587D01*
X6600Y10580D01*
X6652Y10150D02*
X6666Y10164D01*
X6692D01*
X6706Y10150D01*
Y10097D01*
X6692Y10084D01*
X6666D01*
X6652Y10097D01*
X6572Y10084D02*
X6626D01*
X6572Y10137D01*
Y10150D01*
X6586Y10164D01*
X6612D01*
X6626Y10150D01*
X6546D02*
X6532Y10164D01*
X6506D01*
X6492Y10150D01*
Y10097D01*
X6506Y10084D01*
X6532D01*
X6546Y10097D01*
Y10150D01*
D110*
X5504Y7540D02*
Y7701D01*
X5824Y7540D02*
Y7701D01*
D111*
X2210Y7639D02*
X2273Y7575D01*
X2210Y7766D02*
X2273Y7829D01*
X2210Y7893D02*
X2273Y7829D01*
X2210Y8020D02*
X2273Y8083D01*
Y7575D02*
X2654D01*
X2718Y7639D01*
Y7766D01*
X2654Y7829D02*
X2718Y7766D01*
X2654Y7829D02*
X2718Y7893D01*
Y8020D01*
X2654Y8083D02*
X2718Y8020D01*
X2273Y7829D02*
X2654D01*
X2273Y8083D02*
X2654D01*
X2210Y7893D02*
Y8020D01*
Y7639D02*
Y7766D01*
Y8147D02*
X2273Y8083D01*
X2210Y8274D02*
X2273Y8337D01*
X2654Y8083D02*
X2718Y8147D01*
Y8274D01*
X2654Y8337D02*
X2718Y8274D01*
X2273Y8337D02*
X2654D01*
X2210Y8147D02*
Y8274D01*
D112*
X6528Y8905D02*
D03*
D113*
X6467Y8905D02*
D03*
D114*
X6588D02*
D03*
M02*
