G04 Layer_Color=8421504*
%FSLAX42Y42*%
%MOMM*%
G71*
G01*
G75*
%ADD10R,0.70X0.90*%
%ADD11R,2.00X3.50*%
%ADD12O,1.00X0.55*%
%ADD13R,1.00X0.55*%
%ADD14R,1.10X2.60*%
%ADD15R,3.30X1.55*%
%ADD16R,1.40X1.10*%
%ADD17R,3.20X1.80*%
%ADD18R,3.36X4.86*%
%ADD19R,1.39X1.40*%
%ADD20R,3.10X4.00*%
%ADD21R,1.20X1.20*%
%ADD22R,1.17X1.88*%
%ADD23R,1.70X1.10*%
%ADD24R,0.80X0.90*%
%ADD25R,1.80X2.10*%
%ADD26R,0.76X1.14*%
%ADD27R,3.00X2.26*%
%ADD28R,1.40X0.80*%
%ADD29O,1.40X0.80*%
%ADD30R,1.42X3.02*%
%ADD31R,2.60X1.10*%
%ADD32R,0.90X0.80*%
%ADD33R,3.30X1.40*%
%ADD34R,0.90X0.70*%
%ADD35R,2.18X1.52*%
%ADD36R,4.00X3.10*%
%ADD37O,0.55X1.00*%
%ADD38R,0.55X1.00*%
%ADD39R,1.10X1.40*%
%ADD40O,1.65X0.30*%
%ADD41R,1.27X3.05*%
%ADD42R,1.20X0.65*%
%ADD43R,0.60X0.60*%
%ADD44R,0.60X0.50*%
%ADD45R,2.16X2.74*%
%ADD52C,0.50*%
D10*
X3479Y8153D02*
D03*
X3329D02*
D03*
X3479Y8814D02*
D03*
X3329D02*
D03*
X3326Y4343D02*
D03*
X3176D02*
D03*
X19585Y1981D02*
D03*
X19735D02*
D03*
X19585Y3073D02*
D03*
X19735D02*
D03*
X18938Y7034D02*
D03*
X19088D02*
D03*
X19218D02*
D03*
X19368D02*
D03*
X8651D02*
D03*
X8801D02*
D03*
X8931D02*
D03*
X9081D02*
D03*
X3462Y9734D02*
D03*
X3312D02*
D03*
X19545Y9506D02*
D03*
X19395D02*
D03*
X9258Y9531D02*
D03*
X9108D02*
D03*
X19497Y7753D02*
D03*
X19647D02*
D03*
X9210D02*
D03*
X9360D02*
D03*
X11817Y9622D02*
D03*
X11967D02*
D03*
X13502Y8896D02*
D03*
X13352D02*
D03*
X12558Y8552D02*
D03*
X12408D02*
D03*
X12371Y8687D02*
D03*
X12521D02*
D03*
X15775D02*
D03*
X15925D02*
D03*
X15950Y8555D02*
D03*
X15800D02*
D03*
X16894Y8899D02*
D03*
X16744D02*
D03*
X15208Y9625D02*
D03*
X15358D02*
D03*
D11*
X19364Y1549D02*
D03*
X19854D02*
D03*
X19364Y3505D02*
D03*
X19854D02*
D03*
D12*
X19640Y9499D02*
D03*
X9353D02*
D03*
D13*
X19640Y9404D02*
D03*
Y9309D02*
D03*
X19910Y9499D02*
D03*
Y9309D02*
D03*
X9353Y9404D02*
D03*
Y9309D02*
D03*
X9623Y9499D02*
D03*
Y9309D02*
D03*
D14*
X18700Y4528D02*
D03*
X18970D02*
D03*
X18700Y4832D02*
D03*
X18970D02*
D03*
X19097Y8007D02*
D03*
X18827D02*
D03*
X8413Y4528D02*
D03*
X8683D02*
D03*
X8413Y4832D02*
D03*
X8683D02*
D03*
X8810Y8007D02*
D03*
X8540D02*
D03*
X12533Y3676D02*
D03*
X12263D02*
D03*
X12533Y4006D02*
D03*
X12263D02*
D03*
X15925Y4009D02*
D03*
X15655D02*
D03*
X15925Y3679D02*
D03*
X15655D02*
D03*
D15*
X20512Y8407D02*
D03*
Y8827D02*
D03*
X10225Y8407D02*
D03*
Y8827D02*
D03*
X11179Y8343D02*
D03*
Y8763D02*
D03*
X14571Y8346D02*
D03*
Y8766D02*
D03*
D16*
X20715Y6993D02*
D03*
Y7143D02*
D03*
X10428Y6993D02*
D03*
Y7143D02*
D03*
X12255Y7614D02*
D03*
Y7764D02*
D03*
X15646Y7616D02*
D03*
Y7767D02*
D03*
D17*
X20359Y6808D02*
D03*
Y6158D02*
D03*
X10072Y6808D02*
D03*
Y6158D02*
D03*
D18*
X19801Y4680D02*
D03*
X9514D02*
D03*
X13021Y3905D02*
D03*
X16412Y3908D02*
D03*
D19*
X19893Y5078D02*
D03*
X19709D02*
D03*
X9606D02*
D03*
X9422D02*
D03*
X13113Y4303D02*
D03*
X12929D02*
D03*
X16504Y4306D02*
D03*
X16320D02*
D03*
D20*
X19995Y8947D02*
D03*
X19555D02*
D03*
X9708D02*
D03*
X9268D02*
D03*
D21*
X18975Y4274D02*
D03*
X18695D02*
D03*
X8688D02*
D03*
X8408D02*
D03*
X12538Y3397D02*
D03*
X12258D02*
D03*
X15930Y3399D02*
D03*
X15650D02*
D03*
D22*
X18474Y6744D02*
D03*
X18722D02*
D03*
X18970D02*
D03*
X19218D02*
D03*
X19466D02*
D03*
X18474Y5108D02*
D03*
X18722D02*
D03*
X18970D02*
D03*
X19218D02*
D03*
X19466D02*
D03*
X8187Y6744D02*
D03*
X8435D02*
D03*
X8683D02*
D03*
X8931D02*
D03*
X9179D02*
D03*
X8187Y5108D02*
D03*
X8435D02*
D03*
X8683D02*
D03*
X8931D02*
D03*
X9179D02*
D03*
D23*
X20740Y6196D02*
D03*
Y6466D02*
D03*
X10453Y6196D02*
D03*
Y6466D02*
D03*
X12039Y7554D02*
D03*
Y7824D02*
D03*
X13885Y7511D02*
D03*
Y7781D02*
D03*
X17277Y7513D02*
D03*
Y7783D02*
D03*
X15430Y7556D02*
D03*
Y7827D02*
D03*
D24*
X19674Y8034D02*
D03*
X19774Y8234D02*
D03*
X19574D02*
D03*
X9387Y8034D02*
D03*
X9487Y8234D02*
D03*
X9287D02*
D03*
X22104Y6761D02*
D03*
X21964D02*
D03*
X22106Y7855D02*
D03*
X21966D02*
D03*
X11727Y9220D02*
D03*
X11587D02*
D03*
X15119Y9223D02*
D03*
X14979D02*
D03*
D25*
X19928Y7211D02*
D03*
Y6771D02*
D03*
X9641Y7211D02*
D03*
Y6771D02*
D03*
D26*
X19343Y7753D02*
D03*
X19216D02*
D03*
X19089D02*
D03*
X18962D02*
D03*
X19343Y7233D02*
D03*
X19216D02*
D03*
X19089D02*
D03*
X18962D02*
D03*
X9056Y7753D02*
D03*
X8929D02*
D03*
X8802D02*
D03*
X8675D02*
D03*
X9056Y7233D02*
D03*
X8929D02*
D03*
X8802D02*
D03*
X8675D02*
D03*
D27*
X19153Y7493D02*
D03*
X8866D02*
D03*
D28*
X22264Y7855D02*
D03*
X22262Y6761D02*
D03*
D29*
X22264Y7728D02*
D03*
Y7601D02*
D03*
Y7474D02*
D03*
X22764Y7855D02*
D03*
Y7728D02*
D03*
Y7601D02*
D03*
Y7474D02*
D03*
X22262Y6634D02*
D03*
Y6507D02*
D03*
Y6380D02*
D03*
X22762Y6761D02*
D03*
Y6634D02*
D03*
Y6507D02*
D03*
Y6380D02*
D03*
D30*
X21488Y10350D02*
D03*
Y9869D02*
D03*
D31*
X18821Y2990D02*
D03*
Y3260D02*
D03*
X20320Y3015D02*
D03*
Y3285D02*
D03*
X20625Y3015D02*
D03*
Y3285D02*
D03*
X20930Y3015D02*
D03*
Y3285D02*
D03*
X18821Y1778D02*
D03*
Y2048D02*
D03*
X20345Y1770D02*
D03*
Y2040D02*
D03*
X20650Y1770D02*
D03*
Y2040D02*
D03*
X20955Y1770D02*
D03*
Y2040D02*
D03*
X13703Y6804D02*
D03*
Y7074D02*
D03*
X17094Y6807D02*
D03*
Y7077D02*
D03*
D32*
X20055Y9500D02*
D03*
Y9360D02*
D03*
X9768Y9500D02*
D03*
Y9360D02*
D03*
X19267Y8103D02*
D03*
Y7963D02*
D03*
X8980Y8103D02*
D03*
Y7963D02*
D03*
X13516Y9299D02*
D03*
Y9099D02*
D03*
X13316Y9199D02*
D03*
X16908Y9302D02*
D03*
Y9102D02*
D03*
X16708Y9202D02*
D03*
D33*
X14402Y6413D02*
D03*
Y6033D02*
D03*
X10998Y6413D02*
D03*
Y6033D02*
D03*
D34*
X13741Y5062D02*
D03*
Y4912D02*
D03*
X22899Y7879D02*
D03*
Y7729D02*
D03*
X22897Y6609D02*
D03*
Y6759D02*
D03*
X19445Y8184D02*
D03*
Y8034D02*
D03*
X9158Y8184D02*
D03*
Y8034D02*
D03*
X13741Y5443D02*
D03*
Y5293D02*
D03*
X19521Y7193D02*
D03*
Y7043D02*
D03*
X9234Y7193D02*
D03*
Y7043D02*
D03*
X13175Y9274D02*
D03*
Y9124D02*
D03*
X13035Y9124D02*
D03*
Y9274D02*
D03*
X12547Y9097D02*
D03*
Y8947D02*
D03*
X12725Y8373D02*
D03*
Y8223D02*
D03*
X16116Y8376D02*
D03*
Y8226D02*
D03*
X15938Y9100D02*
D03*
Y8950D02*
D03*
X16427Y9127D02*
D03*
Y9277D02*
D03*
X16566Y9277D02*
D03*
Y9127D02*
D03*
D35*
X22327Y10268D02*
D03*
Y9900D02*
D03*
D36*
X11175Y9280D02*
D03*
Y9720D02*
D03*
X14566Y9282D02*
D03*
Y9722D02*
D03*
D37*
X11727Y9635D02*
D03*
X15118Y9637D02*
D03*
D38*
X11632Y9635D02*
D03*
X11537D02*
D03*
X11727Y9365D02*
D03*
X11537D02*
D03*
X15023Y9637D02*
D03*
X14928D02*
D03*
X15118Y9367D02*
D03*
X14928D02*
D03*
D39*
X13411Y8484D02*
D03*
X13561D02*
D03*
X13424Y8692D02*
D03*
X13574D02*
D03*
X16816Y8695D02*
D03*
X16966D02*
D03*
X16803Y8486D02*
D03*
X16953D02*
D03*
D40*
X13148Y8479D02*
D03*
Y8579D02*
D03*
Y8679D02*
D03*
Y8729D02*
D03*
Y8779D02*
D03*
Y8829D02*
D03*
X12733Y8479D02*
D03*
Y8579D02*
D03*
Y8679D02*
D03*
Y8729D02*
D03*
Y8779D02*
D03*
Y8829D02*
D03*
X16540Y8482D02*
D03*
Y8582D02*
D03*
Y8682D02*
D03*
Y8732D02*
D03*
Y8782D02*
D03*
Y8832D02*
D03*
X16125Y8482D02*
D03*
Y8582D02*
D03*
Y8682D02*
D03*
Y8732D02*
D03*
Y8782D02*
D03*
Y8832D02*
D03*
D41*
X13157Y7249D02*
D03*
X12857D02*
D03*
X12557D02*
D03*
X12257D02*
D03*
X11957D02*
D03*
X11657D02*
D03*
X13157Y4597D02*
D03*
X12857D02*
D03*
X12557D02*
D03*
X12257D02*
D03*
X11957D02*
D03*
X11657D02*
D03*
X16549Y7252D02*
D03*
X16249D02*
D03*
X15949D02*
D03*
X15649D02*
D03*
X15349D02*
D03*
X15049D02*
D03*
X16549Y4600D02*
D03*
X16249D02*
D03*
X15949D02*
D03*
X15649D02*
D03*
X15349D02*
D03*
X15049D02*
D03*
D42*
X13160Y7914D02*
D03*
Y8049D02*
D03*
Y8181D02*
D03*
Y8315D02*
D03*
X13722Y8305D02*
D03*
Y8178D02*
D03*
Y8051D02*
D03*
Y7924D02*
D03*
X16551Y7917D02*
D03*
Y8051D02*
D03*
Y8183D02*
D03*
Y8318D02*
D03*
X17113Y8308D02*
D03*
Y8181D02*
D03*
Y8054D02*
D03*
Y7927D02*
D03*
D43*
X12805Y7748D02*
D03*
X13025D02*
D03*
X16197Y7750D02*
D03*
X16417D02*
D03*
D44*
X12521Y8839D02*
D03*
X12421D02*
D03*
X12675Y8946D02*
D03*
X12775D02*
D03*
X12675Y9048D02*
D03*
X12775D02*
D03*
X16066Y9050D02*
D03*
X16166D02*
D03*
X16066Y8949D02*
D03*
X16166D02*
D03*
X15925Y8814D02*
D03*
X15825D02*
D03*
D45*
X4590Y6071D02*
D03*
X4148D02*
D03*
D52*
X24206Y1000D02*
X24206Y11000D01*
X17297Y1000D02*
X24206Y1000D01*
X2235Y1000D02*
X17297D01*
X2200Y1035D02*
X2235Y1000D01*
X2200Y1035D02*
Y1041D01*
Y10998D01*
X2202Y11000D02*
X24206Y11000D01*
M02*
