G04 Layer_Color=16711935*
%FSLAX42Y42*%
%MOMM*%
G71*
G01*
G75*
%ADD50C,0.50*%
%ADD86R,2.70X1.20*%
%ADD93R,1.00X0.80*%
%ADD94R,0.90X1.00*%
%ADD95R,0.80X1.00*%
%ADD96R,1.20X2.70*%
%ADD110R,1.00X0.90*%
%ADD111R,3.40X1.50*%
%ADD112R,2.10X3.60*%
%ADD113R,2.28X1.62*%
%ADD123C,1.63*%
%ADD124C,2.90*%
G04:AMPARAMS|DCode=125|XSize=1.68mm|YSize=1.68mm|CornerRadius=0mm|HoleSize=0mm|Usage=FLASHONLY|Rotation=90.000|XOffset=0mm|YOffset=0mm|HoleType=Round|Shape=Octagon|*
%AMOCTAGOND125*
4,1,8,0.42,0.84,-0.42,0.84,-0.84,0.42,-0.84,-0.42,-0.42,-0.84,0.42,-0.84,0.84,-0.42,0.84,0.42,0.42,0.84,0.0*
%
%ADD125OCTAGOND125*%

%ADD126C,1.70*%
%ADD127C,1.80*%
%ADD128C,2.70*%
%ADD129C,1.00*%
%ADD130C,1.37*%
%ADD131C,0.74*%
%ADD132C,0.86*%
%ADD133R,1.60X2.10*%
%ADD134R,3.90X2.10*%
%ADD135R,1.65X3.40*%
%ADD136R,0.81X2.11*%
%ADD137R,1.32X1.32*%
%ADD138O,0.40X1.90*%
%ADD139O,1.90X0.40*%
%ADD140R,1.50X3.40*%
D50*
X2202Y11000D02*
X24206Y11000D01*
X2200Y1041D02*
Y10998D01*
Y1035D02*
Y1041D01*
Y1035D02*
X2235Y1000D01*
X17297D01*
X24206Y1000D01*
X24206Y11000D01*
D86*
X17399Y6799D02*
D03*
Y7069D02*
D03*
X13691Y6799D02*
D03*
Y7069D02*
D03*
X13995Y6799D02*
D03*
Y7069D02*
D03*
X17094Y6799D02*
D03*
Y7069D02*
D03*
X19126Y3065D02*
D03*
Y3335D02*
D03*
X20625Y3065D02*
D03*
Y3335D02*
D03*
X20930Y3065D02*
D03*
Y3335D02*
D03*
X20320Y3065D02*
D03*
Y3335D02*
D03*
X18821Y1643D02*
D03*
Y1913D02*
D03*
X20345Y1694D02*
D03*
Y1964D02*
D03*
X20650Y1694D02*
D03*
Y1964D02*
D03*
X20954Y1694D02*
D03*
Y1964D02*
D03*
D93*
X6452Y8256D02*
D03*
Y8406D02*
D03*
X9230Y10715D02*
D03*
Y10565D02*
D03*
X13762Y10761D02*
D03*
Y10611D02*
D03*
X13868Y6222D02*
D03*
Y6072D02*
D03*
X22657Y7924D02*
D03*
Y7774D02*
D03*
X22835Y8178D02*
D03*
Y8028D02*
D03*
X23038Y8432D02*
D03*
Y8282D02*
D03*
X22860Y8383D02*
D03*
Y8533D02*
D03*
D94*
X6559Y9449D02*
D03*
X6699D02*
D03*
X6496Y8941D02*
D03*
X6356D02*
D03*
X6559Y9652D02*
D03*
X6699D02*
D03*
X2991Y6790D02*
D03*
X2851D02*
D03*
D95*
X5739Y7823D02*
D03*
X5589D02*
D03*
X6044Y7772D02*
D03*
X5894D02*
D03*
X19585Y3277D02*
D03*
X19735D02*
D03*
X19585Y1727D02*
D03*
X19735D02*
D03*
X2998Y2438D02*
D03*
X3148D02*
D03*
D96*
X19083Y8331D02*
D03*
X18813D02*
D03*
X19083Y8001D02*
D03*
X18813D02*
D03*
X8796D02*
D03*
X8526D02*
D03*
X8796Y8306D02*
D03*
X8526D02*
D03*
D110*
X4115Y5518D02*
D03*
Y5658D02*
D03*
X4470Y8464D02*
D03*
Y8604D02*
D03*
D111*
X7747Y5754D02*
D03*
Y6134D02*
D03*
D112*
X19364Y2819D02*
D03*
X19854D02*
D03*
Y2159D02*
D03*
X19364D02*
D03*
D113*
X4445Y10395D02*
D03*
Y10027D02*
D03*
D123*
X23749Y9937D02*
D03*
Y9683D02*
D03*
Y9429D02*
D03*
Y9175D02*
D03*
Y8921D02*
D03*
Y8667D02*
D03*
Y8413D02*
D03*
Y8159D02*
D03*
Y7905D02*
D03*
Y7651D02*
D03*
Y7397D02*
D03*
Y7143D02*
D03*
Y6889D02*
D03*
Y6635D02*
D03*
Y6381D02*
D03*
Y6127D02*
D03*
Y5873D02*
D03*
Y5619D02*
D03*
Y5365D02*
D03*
Y5111D02*
D03*
Y4857D02*
D03*
Y4603D02*
D03*
Y4349D02*
D03*
Y4095D02*
D03*
Y3841D02*
D03*
Y3587D02*
D03*
Y3333D02*
D03*
Y3079D02*
D03*
Y2825D02*
D03*
Y2571D02*
D03*
Y2317D02*
D03*
Y2063D02*
D03*
X23241Y9937D02*
D03*
Y9683D02*
D03*
Y9429D02*
D03*
Y9175D02*
D03*
Y8921D02*
D03*
Y8667D02*
D03*
Y8413D02*
D03*
Y8159D02*
D03*
Y7905D02*
D03*
Y7651D02*
D03*
Y7397D02*
D03*
Y7143D02*
D03*
Y6889D02*
D03*
Y6635D02*
D03*
Y6381D02*
D03*
Y6127D02*
D03*
Y5873D02*
D03*
Y5619D02*
D03*
Y5365D02*
D03*
Y5111D02*
D03*
Y4857D02*
D03*
Y4603D02*
D03*
Y4349D02*
D03*
Y4095D02*
D03*
Y3841D02*
D03*
Y3587D02*
D03*
Y3333D02*
D03*
Y3079D02*
D03*
Y2825D02*
D03*
Y2571D02*
D03*
Y2317D02*
D03*
Y2063D02*
D03*
X2847Y5219D02*
D03*
Y5669D02*
D03*
D124*
X24003Y10445D02*
D03*
Y1555D02*
D03*
D125*
X2337Y7290D02*
D03*
X2591D02*
D03*
Y7036D02*
D03*
X2337D02*
D03*
Y6782D02*
D03*
X2591D02*
D03*
X2337Y6528D02*
D03*
X2591D02*
D03*
X2337Y6274D02*
D03*
X2591D02*
D03*
D126*
X2492Y2692D02*
D03*
Y2438D02*
D03*
Y3327D02*
D03*
Y3073D02*
D03*
Y3962D02*
D03*
Y3708D02*
D03*
Y4597D02*
D03*
Y4343D02*
D03*
Y9093D02*
D03*
Y8839D02*
D03*
Y8433D02*
D03*
Y8179D02*
D03*
Y9474D02*
D03*
Y9728D02*
D03*
D127*
X3096Y5794D02*
D03*
Y5093D02*
D03*
D128*
X2557Y10444D02*
D03*
Y1555D02*
D03*
D129*
X17501Y7163D02*
D03*
X8331Y10566D02*
D03*
Y10465D02*
D03*
Y10363D02*
D03*
X8433D02*
D03*
Y10465D02*
D03*
Y10566D02*
D03*
X13691Y10236D02*
D03*
Y10338D02*
D03*
Y10439D02*
D03*
X13589Y10338D02*
D03*
Y10439D02*
D03*
Y10236D02*
D03*
X22200Y5639D02*
D03*
X22301D02*
D03*
X22403D02*
D03*
X20752Y6121D02*
D03*
X16891Y6807D02*
D03*
Y6934D02*
D03*
X16383Y6807D02*
D03*
X16485D02*
D03*
X16586D02*
D03*
X16688D02*
D03*
X16789D02*
D03*
X15773D02*
D03*
X15875D02*
D03*
X15977D02*
D03*
X16078D02*
D03*
X16180D02*
D03*
X16281D02*
D03*
X15164D02*
D03*
X15265D02*
D03*
X15367D02*
D03*
X15469D02*
D03*
X15570D02*
D03*
X15672D02*
D03*
X14961D02*
D03*
X15062D02*
D03*
X14859D02*
D03*
X14757D02*
D03*
X14656D02*
D03*
X14554D02*
D03*
X14453D02*
D03*
X16383Y6934D02*
D03*
X16485D02*
D03*
X16586D02*
D03*
X16688D02*
D03*
X16789D02*
D03*
X15773D02*
D03*
X15875D02*
D03*
X15977D02*
D03*
X16078D02*
D03*
X16180D02*
D03*
X16281D02*
D03*
X15164D02*
D03*
X15265D02*
D03*
X15367D02*
D03*
X15469D02*
D03*
X15570D02*
D03*
X15672D02*
D03*
X14961D02*
D03*
X15062D02*
D03*
X14859D02*
D03*
X14757D02*
D03*
X14656D02*
D03*
X14554D02*
D03*
X14453D02*
D03*
X11049D02*
D03*
X11151D02*
D03*
X11252D02*
D03*
X11354D02*
D03*
X11455D02*
D03*
X11659D02*
D03*
X11557D02*
D03*
X12268D02*
D03*
X12167D02*
D03*
X12065D02*
D03*
X11963D02*
D03*
X11862D02*
D03*
X11760D02*
D03*
X12878D02*
D03*
X12776D02*
D03*
X12675D02*
D03*
X12573D02*
D03*
X12471D02*
D03*
X12370D02*
D03*
X13487D02*
D03*
X13386D02*
D03*
X13284D02*
D03*
X13183D02*
D03*
X13081D02*
D03*
X12979D02*
D03*
X11049Y6807D02*
D03*
X11151D02*
D03*
X11252D02*
D03*
X11354D02*
D03*
X11455D02*
D03*
X11659D02*
D03*
X11557D02*
D03*
X12268D02*
D03*
X12167D02*
D03*
X12065D02*
D03*
X11963D02*
D03*
X11862D02*
D03*
X11760D02*
D03*
X12878D02*
D03*
X12776D02*
D03*
X12675D02*
D03*
X12573D02*
D03*
X12471D02*
D03*
X12370D02*
D03*
X13487D02*
D03*
X13386D02*
D03*
X13284D02*
D03*
X13183D02*
D03*
X13081D02*
D03*
X12979D02*
D03*
X13767Y5410D02*
D03*
X13716Y5537D02*
D03*
X13741Y6071D02*
D03*
X21361Y5461D02*
D03*
X21260Y5639D02*
D03*
Y5537D02*
D03*
Y5410D02*
D03*
X21158D02*
D03*
Y5537D02*
D03*
Y5639D02*
D03*
X21057Y5410D02*
D03*
Y5537D02*
D03*
Y5639D02*
D03*
X9322Y6833D02*
D03*
X9398Y6934D02*
D03*
X9474Y7036D02*
D03*
Y7163D02*
D03*
X9373Y7264D02*
D03*
Y7112D02*
D03*
X19660D02*
D03*
Y7264D02*
D03*
X19761Y7163D02*
D03*
Y7036D02*
D03*
X19685Y6934D02*
D03*
X19609Y6833D02*
D03*
X20853Y6121D02*
D03*
X20625D02*
D03*
X20117D02*
D03*
Y6223D02*
D03*
X20015D02*
D03*
Y6121D02*
D03*
X19914D02*
D03*
Y6223D02*
D03*
X19812Y6121D02*
D03*
Y6223D02*
D03*
X19710D02*
D03*
Y6121D02*
D03*
X19609D02*
D03*
Y6223D02*
D03*
X19507D02*
D03*
Y6121D02*
D03*
X19406D02*
D03*
Y6223D02*
D03*
X19304D02*
D03*
Y6121D02*
D03*
X19202D02*
D03*
Y6223D02*
D03*
X19101Y6121D02*
D03*
Y6223D02*
D03*
X18999D02*
D03*
Y6121D02*
D03*
X18898D02*
D03*
Y6223D02*
D03*
X19101Y6325D02*
D03*
X18999Y6426D02*
D03*
Y6325D02*
D03*
X18898D02*
D03*
Y6426D02*
D03*
Y6528D02*
D03*
X18847Y6629D02*
D03*
Y6731D02*
D03*
Y6833D02*
D03*
Y6934D02*
D03*
Y7036D02*
D03*
Y7137D02*
D03*
Y7239D02*
D03*
X20574Y6223D02*
D03*
X20193Y8560D02*
D03*
X20066D02*
D03*
X19939D02*
D03*
X20193Y8433D02*
D03*
X20066D02*
D03*
X19939D02*
D03*
Y8306D02*
D03*
X20066D02*
D03*
X20193D02*
D03*
X19939Y8179D02*
D03*
X20066D02*
D03*
X20193D02*
D03*
X20320D02*
D03*
X20447D02*
D03*
X20574D02*
D03*
X20701D02*
D03*
X20828D02*
D03*
X19939Y8052D02*
D03*
X20066D02*
D03*
X20193D02*
D03*
X20320D02*
D03*
X20447D02*
D03*
X20574D02*
D03*
X20701D02*
D03*
X20828D02*
D03*
Y7925D02*
D03*
X19939D02*
D03*
Y7798D02*
D03*
Y7671D02*
D03*
Y7544D02*
D03*
X20066Y7925D02*
D03*
X20193D02*
D03*
X20320D02*
D03*
X20447D02*
D03*
X20577D02*
D03*
X20701D02*
D03*
X20828Y7798D02*
D03*
X20701D02*
D03*
X20574D02*
D03*
X20447D02*
D03*
X20320D02*
D03*
X20193D02*
D03*
X20091D02*
D03*
X20066Y7671D02*
D03*
Y7544D02*
D03*
X20193D02*
D03*
X20320D02*
D03*
X20447D02*
D03*
X20574D02*
D03*
X20701D02*
D03*
X20828D02*
D03*
Y7671D02*
D03*
X20701D02*
D03*
X20574D02*
D03*
X20447D02*
D03*
X20320D02*
D03*
X20193D02*
D03*
X19685Y8560D02*
D03*
X20828Y7417D02*
D03*
X20701D02*
D03*
X20574D02*
D03*
X20447D02*
D03*
X20320D02*
D03*
X20193D02*
D03*
Y7290D02*
D03*
X20320D02*
D03*
X20447D02*
D03*
X20574D02*
D03*
X20701D02*
D03*
X20828D02*
D03*
X19812Y8306D02*
D03*
Y8179D02*
D03*
Y8433D02*
D03*
Y8560D02*
D03*
X17983Y5334D02*
D03*
Y5207D02*
D03*
Y5080D02*
D03*
Y4953D02*
D03*
Y4826D02*
D03*
Y4699D02*
D03*
Y4572D02*
D03*
Y4445D02*
D03*
Y4318D02*
D03*
X18110D02*
D03*
Y4445D02*
D03*
Y4572D02*
D03*
Y4699D02*
D03*
Y4826D02*
D03*
Y4953D02*
D03*
Y5080D02*
D03*
Y5207D02*
D03*
Y5334D02*
D03*
X18237Y4318D02*
D03*
Y4445D02*
D03*
Y4572D02*
D03*
Y4699D02*
D03*
Y4826D02*
D03*
Y4953D02*
D03*
Y5080D02*
D03*
Y5207D02*
D03*
Y5334D02*
D03*
X17983Y3937D02*
D03*
Y4064D02*
D03*
Y4191D02*
D03*
X18110D02*
D03*
Y4064D02*
D03*
Y3937D02*
D03*
X18237Y4191D02*
D03*
Y4064D02*
D03*
Y3937D02*
D03*
X18364Y4953D02*
D03*
Y4826D02*
D03*
Y4699D02*
D03*
Y4572D02*
D03*
Y4445D02*
D03*
Y4318D02*
D03*
Y4191D02*
D03*
X18491Y4953D02*
D03*
Y4826D02*
D03*
Y4699D02*
D03*
Y4572D02*
D03*
Y4445D02*
D03*
Y4318D02*
D03*
Y4191D02*
D03*
X18618Y3937D02*
D03*
Y4064D02*
D03*
X18491Y3937D02*
D03*
Y4064D02*
D03*
X18364D02*
D03*
Y3937D02*
D03*
X8052Y3429D02*
D03*
Y3556D02*
D03*
Y3683D02*
D03*
Y3810D02*
D03*
Y3937D02*
D03*
Y4064D02*
D03*
X8179D02*
D03*
Y3937D02*
D03*
Y3810D02*
D03*
Y3683D02*
D03*
Y3556D02*
D03*
Y3429D02*
D03*
X8306Y4064D02*
D03*
Y3937D02*
D03*
Y3810D02*
D03*
Y3683D02*
D03*
Y3556D02*
D03*
Y3429D02*
D03*
X8179Y4191D02*
D03*
Y4318D02*
D03*
Y4445D02*
D03*
Y4572D02*
D03*
Y4699D02*
D03*
Y4826D02*
D03*
Y4953D02*
D03*
X8052Y4191D02*
D03*
Y4318D02*
D03*
Y4445D02*
D03*
Y4572D02*
D03*
Y4699D02*
D03*
Y4826D02*
D03*
Y4953D02*
D03*
X7925Y3429D02*
D03*
Y3556D02*
D03*
Y3683D02*
D03*
Y3810D02*
D03*
Y3937D02*
D03*
Y4064D02*
D03*
Y4191D02*
D03*
X7798Y3429D02*
D03*
Y3556D02*
D03*
Y3683D02*
D03*
Y3810D02*
D03*
Y3937D02*
D03*
Y4064D02*
D03*
Y4191D02*
D03*
X7671D02*
D03*
Y4064D02*
D03*
Y3937D02*
D03*
Y3810D02*
D03*
Y3683D02*
D03*
Y3556D02*
D03*
Y3429D02*
D03*
X7925Y5334D02*
D03*
Y5207D02*
D03*
Y5080D02*
D03*
Y4953D02*
D03*
Y4826D02*
D03*
Y4699D02*
D03*
Y4572D02*
D03*
Y4445D02*
D03*
Y4318D02*
D03*
X7798Y5334D02*
D03*
Y5207D02*
D03*
Y5080D02*
D03*
Y4953D02*
D03*
Y4826D02*
D03*
Y4699D02*
D03*
Y4572D02*
D03*
Y4445D02*
D03*
Y4318D02*
D03*
X7671D02*
D03*
Y4445D02*
D03*
Y4572D02*
D03*
Y4699D02*
D03*
Y4826D02*
D03*
Y4953D02*
D03*
Y5080D02*
D03*
Y5207D02*
D03*
Y5334D02*
D03*
X9525Y8534D02*
D03*
Y8280D02*
D03*
Y8153D02*
D03*
Y8407D02*
D03*
X10541Y7264D02*
D03*
X10414D02*
D03*
X10287D02*
D03*
X10160D02*
D03*
X10033D02*
D03*
X9906D02*
D03*
Y7391D02*
D03*
X10033D02*
D03*
X10160D02*
D03*
X10287D02*
D03*
X10414D02*
D03*
X10541D02*
D03*
X16307Y9144D02*
D03*
X9398Y8534D02*
D03*
X9906Y7645D02*
D03*
X10033D02*
D03*
X10160D02*
D03*
X10287D02*
D03*
X10414D02*
D03*
X10541D02*
D03*
Y7518D02*
D03*
X10414D02*
D03*
X10287D02*
D03*
X10160D02*
D03*
X10033D02*
D03*
X9906D02*
D03*
X9779D02*
D03*
Y7645D02*
D03*
X9804Y7772D02*
D03*
X9906D02*
D03*
X10033D02*
D03*
X10160D02*
D03*
X10287D02*
D03*
X10414D02*
D03*
X10541D02*
D03*
X10414Y7899D02*
D03*
X10290Y7897D02*
D03*
X10160Y7899D02*
D03*
X10033D02*
D03*
X9906D02*
D03*
X9779D02*
D03*
X9652Y7518D02*
D03*
Y7645D02*
D03*
Y7772D02*
D03*
Y7899D02*
D03*
X10541D02*
D03*
Y8026D02*
D03*
X10414D02*
D03*
X10287D02*
D03*
X10160D02*
D03*
X10033D02*
D03*
X9906D02*
D03*
X9779D02*
D03*
X10541Y8153D02*
D03*
X10414D02*
D03*
X10287D02*
D03*
X10160D02*
D03*
X10033D02*
D03*
X9906D02*
D03*
X9779D02*
D03*
X9652D02*
D03*
X9906Y8280D02*
D03*
X9779D02*
D03*
X9652D02*
D03*
Y8407D02*
D03*
X9779D02*
D03*
X9906D02*
D03*
X9652Y8534D02*
D03*
X9779D02*
D03*
X9906D02*
D03*
X10465Y6096D02*
D03*
X10287Y6198D02*
D03*
X8560Y7214D02*
D03*
Y7112D02*
D03*
Y7010D02*
D03*
Y6909D02*
D03*
Y6807D02*
D03*
Y6706D02*
D03*
Y6604D02*
D03*
X8611Y6502D02*
D03*
Y6401D02*
D03*
Y6299D02*
D03*
X8712D02*
D03*
Y6401D02*
D03*
X8814Y6299D02*
D03*
X8611Y6198D02*
D03*
Y6096D02*
D03*
X8712D02*
D03*
Y6198D02*
D03*
X8814D02*
D03*
Y6096D02*
D03*
X8915Y6198D02*
D03*
Y6096D02*
D03*
X9017D02*
D03*
Y6198D02*
D03*
X9119D02*
D03*
Y6096D02*
D03*
X9220D02*
D03*
Y6198D02*
D03*
X9322D02*
D03*
Y6096D02*
D03*
X9423D02*
D03*
Y6198D02*
D03*
X9525D02*
D03*
Y6096D02*
D03*
X9627Y6198D02*
D03*
Y6096D02*
D03*
X9728D02*
D03*
Y6198D02*
D03*
X9830D02*
D03*
Y6096D02*
D03*
X10338D02*
D03*
X10566D02*
D03*
X16991Y7163D02*
D03*
X17094D02*
D03*
X16840D02*
D03*
X16739D02*
D03*
X16942Y7264D02*
D03*
X16739D02*
D03*
X16840D02*
D03*
X16942Y7366D02*
D03*
X16840D02*
D03*
X16739D02*
D03*
Y7569D02*
D03*
X16840D02*
D03*
X16942D02*
D03*
X16637D02*
D03*
X16535D02*
D03*
Y7474D02*
D03*
X16840D02*
D03*
X16637D02*
D03*
X16739D02*
D03*
X16942D02*
D03*
Y7671D02*
D03*
X17272Y8128D02*
D03*
X17374Y7874D02*
D03*
X17475Y7772D02*
D03*
Y7874D02*
D03*
Y7976D02*
D03*
X17374D02*
D03*
X17272Y7925D02*
D03*
X17475Y8077D02*
D03*
X17374D02*
D03*
X17272Y8026D02*
D03*
X17475Y8179D02*
D03*
X17374D02*
D03*
X17196Y7163D02*
D03*
X17297D02*
D03*
X17399D02*
D03*
X16739Y7671D02*
D03*
X16637D02*
D03*
X16840D02*
D03*
X16535D02*
D03*
Y7772D02*
D03*
X16637D02*
D03*
X16942D02*
D03*
X16840D02*
D03*
X16739D02*
D03*
X14453Y6680D02*
D03*
X14554D02*
D03*
X14656D02*
D03*
X14757D02*
D03*
X14859D02*
D03*
X15062D02*
D03*
X14961D02*
D03*
X15672D02*
D03*
X15570D02*
D03*
X15469D02*
D03*
X15367D02*
D03*
X15265D02*
D03*
X15164D02*
D03*
X16281D02*
D03*
X16180D02*
D03*
X16078D02*
D03*
X15977D02*
D03*
X15875D02*
D03*
X15773D02*
D03*
X16891D02*
D03*
X16789D02*
D03*
X16688D02*
D03*
X16586D02*
D03*
X16485D02*
D03*
X16383D02*
D03*
X16993D02*
D03*
X17094D02*
D03*
X17196D02*
D03*
X17297D02*
D03*
X17399D02*
D03*
X17501D02*
D03*
X16713Y9090D02*
D03*
X16687Y8595D02*
D03*
X17082Y8581D02*
D03*
X12903Y9144D02*
D03*
X13690Y8578D02*
D03*
X13296Y8592D02*
D03*
X13321Y9088D02*
D03*
X13335Y7772D02*
D03*
X13437D02*
D03*
X13538D02*
D03*
X13233D02*
D03*
X13132D02*
D03*
Y7671D02*
D03*
X13437D02*
D03*
X13233D02*
D03*
X13335D02*
D03*
X14097Y7163D02*
D03*
X13995D02*
D03*
X13894D02*
D03*
X13792D02*
D03*
X13970Y8179D02*
D03*
X14072D02*
D03*
X13868Y8026D02*
D03*
X13970Y8077D02*
D03*
X14072D02*
D03*
X13868Y7925D02*
D03*
X13970Y7976D02*
D03*
X14072D02*
D03*
Y7874D02*
D03*
Y7772D02*
D03*
X13970Y7874D02*
D03*
X13868Y8128D02*
D03*
X13538Y7671D02*
D03*
Y7474D02*
D03*
X13335D02*
D03*
X13233D02*
D03*
X13437D02*
D03*
X13132D02*
D03*
Y7569D02*
D03*
X13233D02*
D03*
X13538D02*
D03*
X13437D02*
D03*
X13335D02*
D03*
Y7366D02*
D03*
X13437D02*
D03*
X13538D02*
D03*
X13437Y7264D02*
D03*
X13335D02*
D03*
X13538D02*
D03*
X13335Y7163D02*
D03*
X13437D02*
D03*
X13691D02*
D03*
X13587D02*
D03*
X14097Y6680D02*
D03*
X13995D02*
D03*
X13894D02*
D03*
X13792D02*
D03*
X13691D02*
D03*
X13589D02*
D03*
X11608Y8052D02*
D03*
X11709D02*
D03*
X11608Y7849D02*
D03*
Y7950D02*
D03*
X11811Y8052D02*
D03*
X11913D02*
D03*
X12014D02*
D03*
X12116D02*
D03*
X12217D02*
D03*
X11709Y7950D02*
D03*
X12979Y6680D02*
D03*
X13081D02*
D03*
X13183D02*
D03*
X13284D02*
D03*
X13386D02*
D03*
X13487D02*
D03*
X12370D02*
D03*
X12471D02*
D03*
X12573D02*
D03*
X12675D02*
D03*
X12776D02*
D03*
X12878D02*
D03*
X11760D02*
D03*
X11862D02*
D03*
X11963D02*
D03*
X12065D02*
D03*
X12167D02*
D03*
X12268D02*
D03*
X11557D02*
D03*
X11659D02*
D03*
X11455D02*
D03*
X11354D02*
D03*
X11252D02*
D03*
X11151D02*
D03*
X11049D02*
D03*
X15621Y8052D02*
D03*
X15519D02*
D03*
X15418D02*
D03*
X15316D02*
D03*
X15215D02*
D03*
X15113D02*
D03*
X15011D02*
D03*
Y7950D02*
D03*
Y7849D02*
D03*
X15113Y7950D02*
D03*
X19685Y8433D02*
D03*
Y8306D02*
D03*
Y8179D02*
D03*
X19558D02*
D03*
Y8306D02*
D03*
Y8433D02*
D03*
Y8560D02*
D03*
X19431D02*
D03*
Y8433D02*
D03*
Y8306D02*
D03*
X19304D02*
D03*
Y8433D02*
D03*
Y8560D02*
D03*
X19177D02*
D03*
X9271Y8534D02*
D03*
X9144D02*
D03*
X9017D02*
D03*
X8890D02*
D03*
X9398Y8407D02*
D03*
X9271D02*
D03*
X9144D02*
D03*
X9017D02*
D03*
X9398Y8280D02*
D03*
Y8153D02*
D03*
X9271Y8280D02*
D03*
X9144D02*
D03*
X9017D02*
D03*
X9271Y8153D02*
D03*
D130*
X20668Y10234D02*
D03*
X6134Y10018D02*
D03*
X13238Y10234D02*
D03*
X3377Y8968D02*
D03*
X3390Y8561D02*
D03*
X5029Y6528D02*
D03*
X5182D02*
D03*
X22734Y8383D02*
D03*
X22379Y7924D02*
D03*
X22709Y8178D02*
D03*
X22555Y6655D02*
D03*
X22987Y7823D02*
D03*
Y7417D02*
D03*
X23026Y6262D02*
D03*
X23019Y5874D02*
D03*
X20447Y4267D02*
D03*
X20295D02*
D03*
X20142D02*
D03*
Y4420D02*
D03*
Y4572D02*
D03*
X20295Y4420D02*
D03*
Y4572D02*
D03*
X20447D02*
D03*
Y4420D02*
D03*
X19812Y4267D02*
D03*
X19634D02*
D03*
X19456D02*
D03*
Y4420D02*
D03*
X19304D02*
D03*
X19152D02*
D03*
X19304Y4267D02*
D03*
X19456Y4775D02*
D03*
X19304D02*
D03*
X20447Y4877D02*
D03*
X20295D02*
D03*
X20142D02*
D03*
Y4724D02*
D03*
X20295D02*
D03*
X20447D02*
D03*
Y3962D02*
D03*
Y4115D02*
D03*
X20295D02*
D03*
Y3962D02*
D03*
X20142Y4115D02*
D03*
Y3962D02*
D03*
X19990D02*
D03*
X19634Y4115D02*
D03*
X19456Y3962D02*
D03*
Y4115D02*
D03*
X19304D02*
D03*
Y3962D02*
D03*
X19152Y4115D02*
D03*
Y3962D02*
D03*
X19990Y4115D02*
D03*
Y4267D02*
D03*
X19634Y3962D02*
D03*
X19812D02*
D03*
Y4115D02*
D03*
X10135Y3505D02*
D03*
Y3658D02*
D03*
X9982D02*
D03*
Y3505D02*
D03*
X9830Y3658D02*
D03*
Y3505D02*
D03*
Y3353D02*
D03*
X9982D02*
D03*
X10135D02*
D03*
X9677Y3505D02*
D03*
X9322Y3658D02*
D03*
X9500Y3353D02*
D03*
X9677D02*
D03*
X9144Y3505D02*
D03*
Y3658D02*
D03*
X8992D02*
D03*
Y3505D02*
D03*
X8839Y3658D02*
D03*
Y3505D02*
D03*
Y3353D02*
D03*
X8992D02*
D03*
X9144D02*
D03*
X9677Y3658D02*
D03*
X9322Y3505D02*
D03*
Y3353D02*
D03*
X9500Y3505D02*
D03*
Y3658D02*
D03*
Y4115D02*
D03*
Y3962D02*
D03*
X9322Y3810D02*
D03*
Y3962D02*
D03*
X9677Y4267D02*
D03*
Y4115D02*
D03*
X9144Y3810D02*
D03*
X8992D02*
D03*
X8839D02*
D03*
Y3962D02*
D03*
Y4115D02*
D03*
X8992Y3962D02*
D03*
Y4115D02*
D03*
X9144D02*
D03*
Y3962D02*
D03*
X9677Y3810D02*
D03*
X9500D02*
D03*
X9322Y4115D02*
D03*
X9677Y3962D02*
D03*
X10135Y3810D02*
D03*
X9982D02*
D03*
X9830D02*
D03*
Y3962D02*
D03*
Y4115D02*
D03*
X9982Y3962D02*
D03*
Y4115D02*
D03*
X10135D02*
D03*
Y3962D02*
D03*
Y4724D02*
D03*
X9982D02*
D03*
X9830D02*
D03*
Y4877D02*
D03*
X9982D02*
D03*
X10135D02*
D03*
X10668Y5613D02*
D03*
X10490Y5512D02*
D03*
X15596Y4318D02*
D03*
X15418D02*
D03*
X15240D02*
D03*
X15062D02*
D03*
X14884D02*
D03*
X14707D02*
D03*
X14529D02*
D03*
X14630Y4166D02*
D03*
X14808D02*
D03*
X14986D02*
D03*
X15164D02*
D03*
X15342D02*
D03*
X14554Y4013D02*
D03*
X14732D02*
D03*
X14910D02*
D03*
X15088D02*
D03*
X15265D02*
D03*
X15443D02*
D03*
X14783Y3861D02*
D03*
X14605D02*
D03*
X14783Y3683D02*
D03*
X14605D02*
D03*
X14783Y3505D02*
D03*
X14605D02*
D03*
X14529Y4470D02*
D03*
Y4623D02*
D03*
Y4775D02*
D03*
Y4928D02*
D03*
Y5080D02*
D03*
Y5232D02*
D03*
X14376Y4318D02*
D03*
Y4470D02*
D03*
Y4623D02*
D03*
Y4775D02*
D03*
Y4928D02*
D03*
Y5080D02*
D03*
Y5232D02*
D03*
X14478Y4166D02*
D03*
X14326D02*
D03*
X14402Y4013D02*
D03*
X14453Y3861D02*
D03*
Y3683D02*
D03*
Y3505D02*
D03*
X14300D02*
D03*
Y3683D02*
D03*
Y3861D02*
D03*
X14681Y5232D02*
D03*
X14834D02*
D03*
X14681Y5080D02*
D03*
X14834D02*
D03*
Y4928D02*
D03*
X14681D02*
D03*
Y4775D02*
D03*
X14834D02*
D03*
Y4623D02*
D03*
X14681D02*
D03*
Y4470D02*
D03*
X14834D02*
D03*
X3988Y5867D02*
D03*
X17678Y6147D02*
D03*
X11455Y4470D02*
D03*
X11303D02*
D03*
Y4623D02*
D03*
X11455D02*
D03*
Y4775D02*
D03*
X11303D02*
D03*
Y4928D02*
D03*
X11455D02*
D03*
Y5080D02*
D03*
X11303D02*
D03*
X11455Y5232D02*
D03*
X11303D02*
D03*
X10922Y3861D02*
D03*
Y3683D02*
D03*
Y3505D02*
D03*
X11074D02*
D03*
Y3683D02*
D03*
Y3861D02*
D03*
X11024Y4013D02*
D03*
X10947Y4166D02*
D03*
X11100D02*
D03*
X10998Y5232D02*
D03*
Y5080D02*
D03*
Y4928D02*
D03*
Y4775D02*
D03*
Y4623D02*
D03*
Y4470D02*
D03*
Y4318D02*
D03*
X11151Y5232D02*
D03*
Y5080D02*
D03*
Y4928D02*
D03*
Y4775D02*
D03*
Y4623D02*
D03*
Y4470D02*
D03*
X4470Y8331D02*
D03*
X4039Y2743D02*
D03*
X10566D02*
D03*
X16549Y3533D02*
D03*
X13970Y2896D02*
D03*
X10693D02*
D03*
X7442Y3200D02*
D03*
X10414Y3023D02*
D03*
X12852Y3531D02*
D03*
X4724Y6528D02*
D03*
X8992Y4775D02*
D03*
X9144D02*
D03*
X8992Y4267D02*
D03*
X8839Y4420D02*
D03*
X8992D02*
D03*
X9144D02*
D03*
Y4267D02*
D03*
X9322D02*
D03*
X9500D02*
D03*
X10135Y4420D02*
D03*
Y4572D02*
D03*
X9982D02*
D03*
Y4420D02*
D03*
X9830Y4572D02*
D03*
Y4420D02*
D03*
Y4267D02*
D03*
X9982D02*
D03*
X10135D02*
D03*
X18136Y8357D02*
D03*
X11709Y9804D02*
D03*
X15113Y9779D02*
D03*
X10541Y9634D02*
D03*
X15076Y8588D02*
D03*
X16304Y8314D02*
D03*
X16157Y7541D02*
D03*
X16092Y4041D02*
D03*
Y3889D02*
D03*
Y3737D02*
D03*
Y3584D02*
D03*
X16244Y3533D02*
D03*
X16396D02*
D03*
X16701Y4041D02*
D03*
X16879D02*
D03*
X16701Y3889D02*
D03*
X16879D02*
D03*
Y3737D02*
D03*
X16701D02*
D03*
X16879Y3584D02*
D03*
X16701D02*
D03*
X11227Y3505D02*
D03*
X11405D02*
D03*
X11227Y3683D02*
D03*
X11405D02*
D03*
X11227Y3861D02*
D03*
X11405D02*
D03*
X13310Y3581D02*
D03*
X13487D02*
D03*
X13157Y3531D02*
D03*
X13310Y3734D02*
D03*
X13487D02*
D03*
Y3886D02*
D03*
X13310D02*
D03*
X13487Y4039D02*
D03*
X13310D02*
D03*
X13005Y3531D02*
D03*
X12700Y3581D02*
D03*
Y3734D02*
D03*
Y3886D02*
D03*
Y4039D02*
D03*
X12065Y4013D02*
D03*
X11887D02*
D03*
X11709D02*
D03*
X11532D02*
D03*
X11354D02*
D03*
X11176D02*
D03*
X11963Y4166D02*
D03*
X11786D02*
D03*
X11608D02*
D03*
X11430D02*
D03*
X11252D02*
D03*
X11151Y4318D02*
D03*
X11328D02*
D03*
X11506D02*
D03*
X11684D02*
D03*
X11862D02*
D03*
X12040D02*
D03*
X12217D02*
D03*
X12765Y7539D02*
D03*
X12912Y8311D02*
D03*
X11684Y8585D02*
D03*
X20142Y9804D02*
D03*
X6034Y7493D02*
D03*
X3023Y6299D02*
D03*
X4324Y8617D02*
D03*
X6553Y9296D02*
D03*
X8269Y7753D02*
D03*
X9347Y9677D02*
D03*
X19609Y9703D02*
D03*
X4877Y6528D02*
D03*
X7163Y5715D02*
D03*
X7366Y5588D02*
D03*
X6833Y6045D02*
D03*
X7290D02*
D03*
X19228Y8128D02*
D03*
X8966Y8128D02*
D03*
D131*
X4445Y7671D02*
D03*
X4887Y8291D02*
D03*
X5740Y8179D02*
D03*
X4419Y9166D02*
D03*
X4293Y9093D02*
D03*
X5994Y9068D02*
D03*
X3258Y6682D02*
D03*
X5251Y8369D02*
D03*
X5029Y8433D02*
D03*
D132*
X15016Y9358D02*
D03*
X11625Y9355D02*
D03*
X19898Y9507D02*
D03*
X9611D02*
D03*
D133*
X4591Y5832D02*
D03*
X4361D02*
D03*
X4131D02*
D03*
D134*
X4361Y6462D02*
D03*
D135*
X5911Y10439D02*
D03*
X6331D02*
D03*
D136*
X5563Y7620D02*
D03*
X5664D02*
D03*
X5764D02*
D03*
D137*
X6604Y8489D02*
D03*
Y8277D02*
D03*
D138*
X6037Y9524D02*
D03*
X5987D02*
D03*
X5937D02*
D03*
X5887D02*
D03*
X5837D02*
D03*
X5787D02*
D03*
X5737D02*
D03*
X5687D02*
D03*
X5637D02*
D03*
X5587D02*
D03*
X5537D02*
D03*
X5487D02*
D03*
X5437D02*
D03*
X5387D02*
D03*
X5337D02*
D03*
X5287D02*
D03*
X5237D02*
D03*
X5187D02*
D03*
X5137D02*
D03*
X5087D02*
D03*
X5037D02*
D03*
X4987D02*
D03*
X4937D02*
D03*
X4887D02*
D03*
X4837D02*
D03*
Y8014D02*
D03*
X4887D02*
D03*
X4937D02*
D03*
X4987D02*
D03*
X5037D02*
D03*
X5087D02*
D03*
X5137D02*
D03*
X5187D02*
D03*
X5237D02*
D03*
X5287D02*
D03*
X5337D02*
D03*
X5387D02*
D03*
X5437D02*
D03*
X5487D02*
D03*
X5537D02*
D03*
X5587D02*
D03*
X5637D02*
D03*
X5687D02*
D03*
X5737D02*
D03*
X5787D02*
D03*
X5837D02*
D03*
X5887D02*
D03*
X5937D02*
D03*
X5987D02*
D03*
X6037D02*
D03*
D139*
X4682Y9369D02*
D03*
Y9319D02*
D03*
Y9269D02*
D03*
Y9219D02*
D03*
Y9169D02*
D03*
Y9119D02*
D03*
Y9069D02*
D03*
Y9019D02*
D03*
Y8969D02*
D03*
Y8919D02*
D03*
Y8869D02*
D03*
Y8819D02*
D03*
Y8769D02*
D03*
Y8719D02*
D03*
Y8669D02*
D03*
Y8619D02*
D03*
Y8569D02*
D03*
Y8519D02*
D03*
Y8469D02*
D03*
Y8419D02*
D03*
Y8369D02*
D03*
Y8319D02*
D03*
Y8269D02*
D03*
Y8219D02*
D03*
Y8169D02*
D03*
X6192D02*
D03*
Y8219D02*
D03*
Y8269D02*
D03*
Y8319D02*
D03*
Y8369D02*
D03*
Y8419D02*
D03*
Y8469D02*
D03*
Y8519D02*
D03*
Y8569D02*
D03*
Y8619D02*
D03*
Y8669D02*
D03*
Y8719D02*
D03*
Y8769D02*
D03*
Y8819D02*
D03*
Y8869D02*
D03*
Y8919D02*
D03*
Y8969D02*
D03*
Y9019D02*
D03*
Y9069D02*
D03*
Y9119D02*
D03*
Y9169D02*
D03*
Y9219D02*
D03*
Y9269D02*
D03*
Y9319D02*
D03*
Y9369D02*
D03*
D140*
X20511Y5512D02*
D03*
X20891D02*
D03*
M02*
