M48
;Layer_Color=9474304
;FILE_FORMAT=4:2
METRIC,LZ
;TYPE=PLATED
T1F00S00C0.25
T2F00S00C0.38
T3F00S00C0.46
T4F00S00C0.50
T5F00S00C0.71
T6F00S00C0.80
T7F00S00C0.97
T8F00S00C0.99
T9F00S00C1.00
T10F00S00C1.30
T11F00S00C2.80
%
T01
X004267Y007538
X004325Y007639
X004445Y007417
X005131Y007468
X003258Y006682
X004887Y008291
X005029Y008433
X005251Y008369
X00574Y008179
X005766Y008763
X005856Y00884
X005994Y009068
X00602Y009195
Y009322
X006807Y008839
X006878Y008768
X004419Y009166
X004293Y009093
T02
X013843Y004936
X013767Y005165
X013741Y005537
X011625Y009355
X009627Y009398
X012747Y009401
X015016Y009358
X015821Y009401
X019914Y009398
T03
X00898Y008204
X019267
T04
X013296Y008592
X01369Y008578
X013321Y009088
X012877Y009111
X016269Y009114
X016713Y00909
X016687Y008595
X017082Y008581
T05
X002692Y001753
X003175Y0032
X007747Y001676
X010592Y002946
X010516Y003099
X010719Y0032
X011227Y003505
X011405
Y003683
X011227
Y003861
X011405
X0127Y003886
Y003734
Y003581
X012852Y003531
X013005
X013157
X01331Y003581
Y003734
Y003886
X013487
Y003734
Y003581
X013919Y002946
X014618Y003508
Y003686
Y003864
X014796
Y003686
Y003508
X016092Y003584
Y003737
Y003889
X016244Y003533
X016396
X016549
X016701Y003584
Y003737
Y003889
X016879
Y003737
Y003584
X019863Y004293
X020015
X020168
Y004445
Y004597
X02032
X020472
Y004445
X02032
Y004293
X020472
X021782Y007118
X02168Y007322
X021604Y007601
X021477Y007753
X022087Y007474
X022104Y006958
X022605Y006985
X022524Y006559
X019431Y004851
X019279
Y004699
X019431
X019126
X019253Y004293
X019406
X019558
X01971
X018085Y004547
Y004724
Y004902
Y005105
Y005283
X017946Y005366
Y005188
Y00501
Y004807
Y004629
Y004451
X016879Y004041
X016701
X016092
X016157Y007541
X012765Y007539
X0127Y004039
X01331
X013487
X014568Y004016
X014745
X014923
X015101
X015279
X015457
X015355Y004168
X015177
X014999
X014822
X014644
X01472Y004321
X014898
X015076
X015253
X015431
X015609
X014542
X012217Y004318
X01204
X011963Y004166
X012065Y004013
X011887
X011709
X011532
X011354
X011176
X011252Y004166
X01143
X011608
X011786
X011862Y004318
X011684
X011506
X011328
X011151
X010135Y004267
Y00442
Y004572
X009982
Y00442
X00983
Y004572
Y004267
X009677
X0095
X009322
X009144
X008992
Y00442
X008839
X009144
Y004775
X008992
X009982Y004267
X010516Y005588
X010668Y005715
X008269Y007753
X007366Y006223
Y005588
X007163Y005715
X006706Y006198
X006034Y007493
X005029Y006528
X004877
X004724
X003023Y006299
X004324Y008617
X006553Y009296
X005918Y010109
X009347Y009677
X010541Y009601
X011709Y009804
X011684Y008585
X009474Y008382
X012912Y008311
X013716Y009195
X015076Y008588
X015113Y009779
X017125Y009214
X016304Y008314
X018339Y008357
X019761Y008407
X019609Y009703
X020142Y009804
X02196Y008007
X022112Y008033
T06
X002467Y002438
Y002692
Y003073
Y003327
Y003708
Y003962
Y004343
Y004597
X002492Y008179
Y008433
Y008839
Y009093
Y009474
Y009728
T07
X002337Y006274
Y006528
Y006782
Y007036
Y00729
X002591
Y007036
Y006782
Y006528
Y006274
T08
X002847Y005219
Y005669
T09
X023241Y002063
Y002317
Y002571
Y002825
Y003079
Y003333
Y003587
Y003841
X023749
Y003587
Y003333
Y003079
Y002825
Y002571
Y002317
Y002063
Y004095
Y004349
Y004603
Y004857
Y005111
Y005365
Y005619
Y005873
Y006127
Y006381
Y006635
Y006889
Y007143
Y007397
Y007651
Y007905
X023241
Y007651
Y007397
Y007143
Y006889
Y006635
Y006381
Y006127
Y005873
Y005619
Y005365
Y005111
Y004857
Y004603
Y004349
Y004095
Y008159
Y008413
Y008667
Y008921
Y009175
Y009429
Y009683
Y009937
X023749
Y009683
Y009429
Y009175
Y008921
Y008667
Y008413
Y008159
T10
X003096Y005093
Y005794
T11
X002557Y001555
X024003Y001555
X002557Y010444
X024003Y010445
M30
