M48
;Layer_Color=9474304
;FILE_FORMAT=4:2
METRIC,LZ
;TYPE=PLATED
T1F00S00C0.30
T2F00S00C0.71
T3F00S00C0.86
T4F00S00C0.90
T5F00S00C0.91
T6F00S00C0.97
T7F00S00C1.09
T8F00S00C1.27
T9F00S00C1.30
T10F00S00C1.60
T11F00S00C3.25
T12F00S00C3.26
;TYPE=NON_PLATED
T13F00S00C3.00
%
T01
X008509Y004521
Y004648
X00856Y00475
X008661
X009017
X009119
X009169Y004648
Y004521
T02
X002845Y003708
X003023
X0032
X003404
X003581
X003759
X004597Y003429
X005258Y002438
X005436
X005588
X006553Y002489
X006426Y002794
Y002997
X007214Y002946
X007341Y002794
X00696Y002007
X006807Y00188
X006655
X006502Y002007
X008636Y001422
X009169Y003124
Y003277
X009144Y003429
X008992Y003454
X010871Y003505
Y003658
Y00381
Y003962
Y003353
Y0032
Y003048
Y002896
Y002743
Y002591
Y002438
X011125Y001041
X01176
X011506Y001363
X010185Y004445
Y004597
X010033
Y00475
Y004902
X010185
Y00475
X010033Y004445
X009195Y004394
X008484
X006096
X005486Y004925
X005156Y004851
X00508Y004547
X004978Y004293
X004496Y004775
Y004953
X004494Y005131
X004517Y005359
X00475Y005131
X005258Y005842
X005131Y006579
X006401Y006274
Y006071
X006553Y005766
X004191Y004089
X003759Y004242
X003886Y00508
X003363Y005277
X003476Y005436
X0034Y005867
X003527Y005969
X003285Y005994
X003047Y006071
X002841Y006045
X002688Y006198
X00279Y006604
X002409Y006528
Y00668
Y006833
X002358Y005664
X00269Y005677
X002881Y00569
X0034Y006248
X003857Y006528
T03
X004136Y004547
X00439
X004263Y004877
X004009
X003755
X003501
X003247
X002993
X002739
X002485
X002612Y004547
X002866
X00312
X003374
X003628
X003882
T04
X004597Y002515
X004851
T05
X012141Y002337
Y002591
Y002845
Y003099
X012395Y002972
Y002718
Y002464
Y00221
T06
X003273Y006909
X003527
X003781
Y007163
X003527
X003273
T07
X012726Y004729
Y005006
Y005283
Y00556
Y005837
X01301Y005699
Y005422
Y005145
Y004868
T08
X006807Y003226
X007061
X007036Y006502
X006782
T09
X002642Y002095
Y002476
T10
X013335Y001875
Y003434
T11
X01303Y002083
Y003226
T12
X012868Y004034
Y006533
T13
X002438Y001168
X013513Y001194
X013487Y007239
X002413Y00729
M30
