G04 Layer_Color=8421504*
%FSLAX42Y42*%
%MOMM*%
G71*
G01*
G75*
%ADD10R,0.90X0.70*%
%ADD11R,0.70X0.90*%
%ADD12R,1.25X0.95*%
%ADD13R,1.10X2.60*%
%ADD14R,2.16X2.74*%
%ADD15R,4.00X3.10*%
%ADD16R,3.30X1.55*%
%ADD17O,0.55X1.00*%
%ADD18R,0.55X1.00*%
%ADD19R,0.80X0.90*%
%ADD20R,2.60X1.10*%
%ADD21R,1.10X1.40*%
%ADD22R,1.70X1.10*%
%ADD23O,1.65X0.30*%
%ADD24R,1.27X3.05*%
%ADD25R,1.20X0.65*%
%ADD26R,0.60X0.60*%
%ADD27R,1.20X1.20*%
%ADD28R,3.36X4.86*%
%ADD29R,1.39X1.40*%
%ADD30R,2.18X1.52*%
%ADD31R,3.50X2.00*%
%ADD32R,2.00X3.50*%
%ADD33R,3.30X1.40*%
%ADD34R,0.90X0.80*%
%ADD35O,1.00X0.55*%
%ADD36R,1.00X0.55*%
%ADD37R,1.40X1.10*%
%ADD38R,3.20X1.80*%
%ADD39R,3.10X4.00*%
%ADD40R,1.17X1.88*%
%ADD41R,1.80X2.10*%
%ADD42R,0.76X1.14*%
%ADD43R,3.00X2.26*%
%ADD44R,1.42X3.02*%
%ADD45R,1.40X0.80*%
%ADD46O,1.40X0.80*%
%ADD47R,1.65X0.65*%
%ADD48O,1.65X0.65*%
%ADD54C,0.50*%
D10*
X21763Y7143D02*
D03*
Y7263D02*
D03*
X16566Y9277D02*
D03*
Y9127D02*
D03*
X16427Y9127D02*
D03*
Y9277D02*
D03*
X15938Y9100D02*
D03*
Y8950D02*
D03*
X16116Y8376D02*
D03*
Y8226D02*
D03*
X12725Y8373D02*
D03*
Y8223D02*
D03*
X12547Y9097D02*
D03*
Y8947D02*
D03*
X13035Y9124D02*
D03*
Y9274D02*
D03*
X13175Y9274D02*
D03*
Y9124D02*
D03*
X3023Y3557D02*
D03*
Y3707D02*
D03*
X7636Y2748D02*
D03*
Y2598D02*
D03*
X19521Y7193D02*
D03*
Y7043D02*
D03*
X19395Y8183D02*
D03*
Y8033D02*
D03*
X9234Y7193D02*
D03*
Y7043D02*
D03*
X9131Y8185D02*
D03*
Y8035D02*
D03*
X23026Y6152D02*
D03*
Y6002D02*
D03*
X23012Y7570D02*
D03*
Y7720D02*
D03*
D11*
X21557Y7814D02*
D03*
X21677D02*
D03*
X21562Y7507D02*
D03*
X21682D02*
D03*
X21557Y7668D02*
D03*
X21677D02*
D03*
X15208Y9625D02*
D03*
X15358D02*
D03*
X16894Y8899D02*
D03*
X16744D02*
D03*
X15950Y8555D02*
D03*
X15800D02*
D03*
X15775Y8687D02*
D03*
X15925D02*
D03*
X12371D02*
D03*
X12521D02*
D03*
X12558Y8552D02*
D03*
X12408D02*
D03*
X13502Y8896D02*
D03*
X13352D02*
D03*
X11817Y9622D02*
D03*
X11967D02*
D03*
X3390Y8428D02*
D03*
X3240D02*
D03*
X3377Y9098D02*
D03*
X3227D02*
D03*
X3326Y4343D02*
D03*
X3176D02*
D03*
X3098Y3048D02*
D03*
X2948D02*
D03*
X17077Y3962D02*
D03*
X17227D02*
D03*
X18938Y7034D02*
D03*
X19088D02*
D03*
X19545Y9506D02*
D03*
X19395D02*
D03*
X19497Y7753D02*
D03*
X19647D02*
D03*
X19218Y7034D02*
D03*
X19368D02*
D03*
X8651D02*
D03*
X8801D02*
D03*
X9258Y9531D02*
D03*
X9108D02*
D03*
X9210Y7753D02*
D03*
X9360D02*
D03*
X8931Y7034D02*
D03*
X9081D02*
D03*
X13819Y5537D02*
D03*
X13969D02*
D03*
X3462Y9734D02*
D03*
X3312D02*
D03*
D12*
X22576Y4365D02*
D03*
X23051Y4565D02*
D03*
Y4365D02*
D03*
X22576Y4565D02*
D03*
X22435Y1887D02*
D03*
X22910Y2087D02*
D03*
Y1887D02*
D03*
X22435Y2087D02*
D03*
D13*
X8540Y8306D02*
D03*
X8810D02*
D03*
X18813Y8331D02*
D03*
X19083D02*
D03*
X15925Y3679D02*
D03*
X15655D02*
D03*
X15925Y4009D02*
D03*
X15655D02*
D03*
X12533Y4006D02*
D03*
X12263D02*
D03*
X12533Y3676D02*
D03*
X12263D02*
D03*
X8424Y3128D02*
D03*
X8694D02*
D03*
X18700Y4528D02*
D03*
X18970D02*
D03*
X18700Y4832D02*
D03*
X18970D02*
D03*
X19083Y8001D02*
D03*
X18813D02*
D03*
X8413Y4528D02*
D03*
X8683D02*
D03*
X8425Y4826D02*
D03*
X8695D02*
D03*
X8810Y8007D02*
D03*
X8540D02*
D03*
D14*
X4133Y6325D02*
D03*
X3691D02*
D03*
D15*
X14566Y9282D02*
D03*
Y9722D02*
D03*
X11175Y9280D02*
D03*
Y9720D02*
D03*
D16*
X14571Y8346D02*
D03*
Y8766D02*
D03*
X11179Y8343D02*
D03*
Y8763D02*
D03*
X20512Y8407D02*
D03*
Y8827D02*
D03*
X10225Y8407D02*
D03*
Y8827D02*
D03*
D17*
X15118Y9637D02*
D03*
X11727Y9635D02*
D03*
D18*
X15023Y9637D02*
D03*
X14928D02*
D03*
X15118Y9367D02*
D03*
X14928D02*
D03*
X11632Y9635D02*
D03*
X11537D02*
D03*
X11727Y9365D02*
D03*
X11537D02*
D03*
D19*
X15119Y9223D02*
D03*
X14979D02*
D03*
X15920Y8814D02*
D03*
X15780D02*
D03*
X16059Y8941D02*
D03*
X16199D02*
D03*
X16059Y9068D02*
D03*
X16199D02*
D03*
X12655D02*
D03*
X12795D02*
D03*
X12655Y8946D02*
D03*
X12795D02*
D03*
X12541Y8839D02*
D03*
X12401D02*
D03*
X11727Y9220D02*
D03*
X11587D02*
D03*
X22205Y7675D02*
D03*
X22065D02*
D03*
X22233Y6128D02*
D03*
X22093D02*
D03*
D20*
X17094Y6799D02*
D03*
Y7069D02*
D03*
X13703Y6804D02*
D03*
Y7074D02*
D03*
X9357Y1846D02*
D03*
Y2116D02*
D03*
X9057Y1845D02*
D03*
Y2115D02*
D03*
X8760Y1848D02*
D03*
Y2118D02*
D03*
X18413Y3101D02*
D03*
Y3371D02*
D03*
X18094Y3098D02*
D03*
Y3368D02*
D03*
X17775Y3101D02*
D03*
Y3371D02*
D03*
X16305Y3086D02*
D03*
Y3356D02*
D03*
X17399Y6799D02*
D03*
Y7069D02*
D03*
X14020Y6799D02*
D03*
Y7069D02*
D03*
D21*
X16803Y8486D02*
D03*
X16953D02*
D03*
X15648Y7874D02*
D03*
X15798D02*
D03*
X16816Y8695D02*
D03*
X16966D02*
D03*
X13424Y8692D02*
D03*
X13574D02*
D03*
X12244Y7874D02*
D03*
X12394D02*
D03*
X13411Y8484D02*
D03*
X13561D02*
D03*
D22*
X15469Y7612D02*
D03*
Y7882D02*
D03*
X17277Y7513D02*
D03*
Y7783D02*
D03*
X13885Y7511D02*
D03*
Y7781D02*
D03*
X12065Y7612D02*
D03*
Y7882D02*
D03*
X20740Y6196D02*
D03*
Y6466D02*
D03*
X10453Y6196D02*
D03*
Y6466D02*
D03*
X11836Y7612D02*
D03*
Y7882D02*
D03*
X15240Y7612D02*
D03*
Y7882D02*
D03*
D23*
X16540Y8482D02*
D03*
Y8582D02*
D03*
Y8682D02*
D03*
Y8732D02*
D03*
Y8782D02*
D03*
Y8832D02*
D03*
X16125Y8482D02*
D03*
Y8582D02*
D03*
Y8682D02*
D03*
Y8732D02*
D03*
Y8782D02*
D03*
Y8832D02*
D03*
X13148Y8479D02*
D03*
Y8579D02*
D03*
Y8679D02*
D03*
Y8729D02*
D03*
Y8779D02*
D03*
Y8829D02*
D03*
X12733Y8479D02*
D03*
Y8579D02*
D03*
Y8679D02*
D03*
Y8729D02*
D03*
Y8779D02*
D03*
Y8829D02*
D03*
D24*
X16549Y7252D02*
D03*
X16249D02*
D03*
X15949D02*
D03*
X15649D02*
D03*
X15349D02*
D03*
X15049D02*
D03*
X16549Y4600D02*
D03*
X16249D02*
D03*
X15949D02*
D03*
X15649D02*
D03*
X15349D02*
D03*
X15049D02*
D03*
X13157Y7249D02*
D03*
X12857D02*
D03*
X12557D02*
D03*
X12257D02*
D03*
X11957D02*
D03*
X11657D02*
D03*
X13157Y4597D02*
D03*
X12857D02*
D03*
X12557D02*
D03*
X12257D02*
D03*
X11957D02*
D03*
X11657D02*
D03*
D25*
X16551Y7917D02*
D03*
Y8051D02*
D03*
Y8183D02*
D03*
Y8318D02*
D03*
X17113Y8308D02*
D03*
Y8181D02*
D03*
Y8054D02*
D03*
Y7927D02*
D03*
X13160Y7914D02*
D03*
Y8049D02*
D03*
Y8181D02*
D03*
Y8315D02*
D03*
X13722Y8305D02*
D03*
Y8178D02*
D03*
Y8051D02*
D03*
Y7924D02*
D03*
D26*
X16197Y7750D02*
D03*
X16417D02*
D03*
X12805Y7748D02*
D03*
X13025D02*
D03*
D27*
X15930Y3399D02*
D03*
X15650D02*
D03*
X12538Y3397D02*
D03*
X12258D02*
D03*
X18975Y4274D02*
D03*
X18695D02*
D03*
X8688D02*
D03*
X8408D02*
D03*
D28*
X16412Y3908D02*
D03*
X13021Y3905D02*
D03*
X19801Y4680D02*
D03*
X9514D02*
D03*
D29*
X16504Y4306D02*
D03*
X16320D02*
D03*
X13113Y4303D02*
D03*
X12929D02*
D03*
X19893Y5078D02*
D03*
X19709D02*
D03*
X9606D02*
D03*
X9422D02*
D03*
D30*
X22290Y10352D02*
D03*
Y9984D02*
D03*
D31*
X8012Y2823D02*
D03*
Y2333D02*
D03*
D32*
X16877Y3514D02*
D03*
X17367D02*
D03*
D33*
X14427Y6413D02*
D03*
Y6033D02*
D03*
X10998Y6413D02*
D03*
Y6033D02*
D03*
D34*
X20055Y9500D02*
D03*
Y9360D02*
D03*
X19228Y8020D02*
D03*
Y7880D02*
D03*
X9768Y9500D02*
D03*
Y9360D02*
D03*
X8941Y8020D02*
D03*
Y7880D02*
D03*
D35*
X19640Y9499D02*
D03*
X9353D02*
D03*
D36*
X19640Y9404D02*
D03*
Y9309D02*
D03*
X19910Y9499D02*
D03*
Y9309D02*
D03*
X9353Y9404D02*
D03*
Y9309D02*
D03*
X9623Y9499D02*
D03*
Y9309D02*
D03*
D37*
X20715Y6993D02*
D03*
Y7143D02*
D03*
X10428Y6993D02*
D03*
Y7143D02*
D03*
D38*
X20359Y6808D02*
D03*
Y6158D02*
D03*
X10072Y6808D02*
D03*
Y6158D02*
D03*
D39*
X19995Y8947D02*
D03*
X19555D02*
D03*
X9708D02*
D03*
X9268D02*
D03*
D40*
X18474Y6744D02*
D03*
X18722D02*
D03*
X18970D02*
D03*
X19218D02*
D03*
X19466D02*
D03*
X18474Y5108D02*
D03*
X18722D02*
D03*
X18970D02*
D03*
X19218D02*
D03*
X19466D02*
D03*
X8187Y6744D02*
D03*
X8435D02*
D03*
X8683D02*
D03*
X8931D02*
D03*
X9179D02*
D03*
X8187Y5108D02*
D03*
X8435D02*
D03*
X8683D02*
D03*
X8931D02*
D03*
X9179D02*
D03*
D41*
X19928Y7211D02*
D03*
Y6771D02*
D03*
X9641Y7211D02*
D03*
Y6771D02*
D03*
D42*
X19343Y7753D02*
D03*
X19216D02*
D03*
X19089D02*
D03*
X18962D02*
D03*
X19343Y7233D02*
D03*
X19216D02*
D03*
X19089D02*
D03*
X18962D02*
D03*
X9056Y7753D02*
D03*
X8929D02*
D03*
X8802D02*
D03*
X8675D02*
D03*
X9056Y7233D02*
D03*
X8929D02*
D03*
X8802D02*
D03*
X8675D02*
D03*
D43*
X19153Y7493D02*
D03*
X8866D02*
D03*
D44*
X21389Y10447D02*
D03*
Y9966D02*
D03*
X3861Y5855D02*
D03*
Y5373D02*
D03*
X5080Y6261D02*
D03*
Y5780D02*
D03*
D45*
X22391Y6128D02*
D03*
X22364Y7675D02*
D03*
D46*
X22391Y6001D02*
D03*
Y5874D02*
D03*
Y5747D02*
D03*
X22891Y6128D02*
D03*
Y6001D02*
D03*
Y5874D02*
D03*
Y5747D02*
D03*
X22364Y7548D02*
D03*
Y7421D02*
D03*
Y7294D02*
D03*
X22864Y7675D02*
D03*
Y7548D02*
D03*
Y7421D02*
D03*
Y7294D02*
D03*
D47*
X13038Y10081D02*
D03*
X20505Y10112D02*
D03*
D48*
X13038Y10335D02*
D03*
Y10589D02*
D03*
X12148Y10081D02*
D03*
Y10335D02*
D03*
Y10589D02*
D03*
X20505Y10366D02*
D03*
Y10620D02*
D03*
X19615Y10112D02*
D03*
Y10366D02*
D03*
Y10620D02*
D03*
D54*
X24206Y1000D02*
X24206Y11000D01*
X17297Y1000D02*
X24206Y1000D01*
X2235Y1000D02*
X17297D01*
X2200Y1035D02*
X2235Y1000D01*
X2200Y1035D02*
Y1041D01*
Y10998D01*
X2202Y11000D02*
X24206Y11000D01*
M02*
