G04 Layer_Physical_Order=4*
G04 Layer_Color=16711680*
%FSLAX45Y45*%
%MOMM*%
%TF.FileFunction,Copper,L4,Bot,Signal*%
%TF.Part,Single*%
G01*
G75*
%TA.AperFunction,SMDPad,CuDef*%
%ADD12R,0.70000X0.90000*%
%ADD22R,0.90000X0.70000*%
%ADD23R,1.25000X0.95000*%
%ADD24R,1.10000X2.60000*%
%ADD29R,2.60000X1.10000*%
%ADD39R,3.50000X2.00000*%
%ADD41R,3.30000X1.40000*%
%TA.AperFunction,Conductor*%
%ADD56C,0.25400*%
%ADD57C,0.30000*%
%ADD58C,0.63500*%
%ADD60C,1.27000*%
%ADD61C,0.50800*%
%ADD63C,2.00000*%
%ADD64C,0.50000*%
%ADD66C,0.80000*%
%TA.AperFunction,ViaPad*%
%ADD67C,2.60000*%
%TA.AperFunction,ComponentPad*%
%ADD68C,1.52400*%
%ADD69C,1.70000*%
%ADD70C,1.60000*%
G04:AMPARAMS|DCode=71|XSize=1.5748mm|YSize=1.5748mm|CornerRadius=0mm|HoleSize=0mm|Usage=FLASHONLY|Rotation=90.000|XOffset=0mm|YOffset=0mm|HoleType=Round|Shape=Octagon|*
%AMOCTAGOND71*
4,1,8,0.39370,0.78740,-0.39370,0.78740,-0.78740,0.39370,-0.78740,-0.39370,-0.39370,-0.78740,0.39370,-0.78740,0.78740,-0.39370,0.78740,0.39370,0.39370,0.78740,0.0*
%
%ADD71OCTAGOND71*%

%ADD72C,2.80000*%
%TA.AperFunction,ViaPad*%
%ADD73C,1.52400*%
%ADD74C,1.27000*%
%ADD75C,0.63500*%
%ADD76C,0.70000*%
%ADD77C,0.90000*%
%ADD78C,0.95000*%
%ADD79C,0.67200*%
%ADD80C,0.76200*%
%TA.AperFunction,SMDPad,CuDef*%
%ADD81R,2.18000X1.52000*%
%ADD82R,1.40000X3.30000*%
%ADD83R,1.55000X3.30000*%
G36*
X22952744Y8486568D02*
X22949539Y8469611D01*
X22948489Y8468910D01*
X22948489Y8468909D01*
X22917780Y8438200D01*
X22797247D01*
X22793753Y8442753D01*
X22776311Y8456137D01*
X22755998Y8464551D01*
X22734200Y8467421D01*
X22712402Y8464551D01*
X22692090Y8456137D01*
X22674648Y8442753D01*
X22661263Y8425311D01*
X22652849Y8404998D01*
X22649980Y8383200D01*
X22652849Y8361402D01*
X22661263Y8341090D01*
X22670705Y8328786D01*
X22664441Y8316086D01*
X22522015D01*
X22517155Y8327819D01*
X22677850Y8488514D01*
X22795000D01*
Y8478200D01*
X22925000D01*
Y8488514D01*
X22951411D01*
X22952744Y8486568D01*
D02*
G37*
G36*
X23664969Y8618485D02*
X23680389Y8598389D01*
X23700485Y8582969D01*
X23723888Y8573276D01*
X23749001Y8569970D01*
X23774113Y8573276D01*
X23797514Y8582969D01*
X23804648Y8588443D01*
X23816039Y8582826D01*
X23816039Y8243174D01*
X23804649Y8237557D01*
X23797514Y8243031D01*
X23774113Y8252724D01*
X23749001Y8256030D01*
X23723888Y8252724D01*
X23707098Y8245770D01*
X23403435Y8549433D01*
X23391856Y8557169D01*
X23378200Y8559886D01*
X23261700D01*
X23260867Y8572586D01*
X23266113Y8573276D01*
X23289516Y8582969D01*
X23309610Y8598389D01*
X23325031Y8618485D01*
X23331316Y8633659D01*
X23658684D01*
X23664969Y8618485D01*
D02*
G37*
G36*
X23178128Y8232014D02*
X23172391Y8227610D01*
X23156969Y8207515D01*
X23147276Y8184113D01*
X23143970Y8159000D01*
X23147276Y8133887D01*
X23156969Y8110485D01*
X23172391Y8090389D01*
X23192485Y8074969D01*
X23192928Y8074786D01*
X23190402Y8062086D01*
X22899600D01*
Y8082600D01*
X22769600D01*
Y8062086D01*
X22338725D01*
X22333865Y8073819D01*
X22504761Y8244714D01*
X22639041D01*
X22645303Y8232014D01*
X22635863Y8219710D01*
X22627449Y8199398D01*
X22624580Y8177600D01*
X22627449Y8155802D01*
X22635863Y8135489D01*
X22649248Y8118047D01*
X22666690Y8104663D01*
X22687003Y8096249D01*
X22708800Y8093379D01*
X22730598Y8096249D01*
X22750911Y8104663D01*
X22768353Y8118047D01*
X22771848Y8122600D01*
X22899600D01*
Y8232599D01*
X22899600D01*
X22901013Y8244714D01*
X22972800D01*
Y8226600D01*
X23102800D01*
Y8244714D01*
X23173817D01*
X23178128Y8232014D01*
D02*
G37*
G36*
X18770599Y3441000D02*
X17829999D01*
X17829997Y5690215D01*
X18770599D01*
X18770599Y3441000D01*
D02*
G37*
G36*
X10224799Y3301999D02*
X8610599Y3302000D01*
X8610601Y5690215D01*
X10224801D01*
X10224799Y3301999D01*
D02*
G37*
G36*
X23156969Y8618485D02*
X23172391Y8598389D01*
X23192485Y8582969D01*
X23215887Y8573276D01*
X23221132Y8572586D01*
X23220300Y8559886D01*
X22925000D01*
Y8588200D01*
X22795000D01*
Y8559886D01*
X22695041D01*
X22690181Y8571619D01*
X22746622Y8628059D01*
X23153004D01*
X23156969Y8618485D01*
D02*
G37*
G36*
X8497600Y3403600D02*
X7583200D01*
X7583200Y5410200D01*
X8497601D01*
X8497600Y3403600D01*
D02*
G37*
G36*
X8726201Y6508801D02*
X8751601Y6483401D01*
X8929401Y6305601D01*
X8980201Y6254801D01*
X10605801D01*
X10605801Y6051601D01*
X8523001Y6051602D01*
X8523001Y7296201D01*
X8726201Y7296201D01*
Y6508801D01*
D02*
G37*
G36*
X23658949Y7938983D02*
X23655276Y7930113D01*
X23651970Y7905000D01*
X23655276Y7879887D01*
X23664969Y7856485D01*
X23680389Y7836389D01*
X23700485Y7820969D01*
X23723888Y7811276D01*
X23749001Y7807970D01*
X23774113Y7811276D01*
X23797514Y7820969D01*
X23804649Y7826443D01*
X23816039Y7820826D01*
X23816039Y7735174D01*
X23804649Y7729557D01*
X23797514Y7735031D01*
X23774113Y7744724D01*
X23749001Y7748030D01*
X23723888Y7744724D01*
X23700485Y7735031D01*
X23691405Y7728063D01*
X23367834Y8051634D01*
X23356256Y8059369D01*
X23342599Y8062086D01*
X23291599D01*
X23289072Y8074786D01*
X23289516Y8074969D01*
X23309610Y8090389D01*
X23325031Y8110485D01*
X23334724Y8133887D01*
X23338029Y8159000D01*
X23334724Y8184113D01*
X23325031Y8207515D01*
X23309610Y8227610D01*
X23303873Y8232014D01*
X23308183Y8244714D01*
X23353218D01*
X23658949Y7938983D01*
D02*
G37*
G36*
X19038602Y6508801D02*
X19064001Y6483401D01*
X19241801Y6305601D01*
X19292601Y6254801D01*
X20918201D01*
X20918201Y6051601D01*
X18835400Y6051602D01*
X18835400Y7296201D01*
X19038602Y7296201D01*
Y6508801D01*
D02*
G37*
G36*
X8356600Y5715000D02*
X8394139D01*
X8408472Y5700667D01*
X8420049Y5692931D01*
X8433706Y5690215D01*
X8610600D01*
Y5461000D01*
X7594600D01*
Y5816600D01*
X8255000D01*
X8356600Y5715000D01*
D02*
G37*
G36*
X23658949Y8192983D02*
X23655276Y8184113D01*
X23651970Y8159000D01*
X23655276Y8133887D01*
X23664969Y8110485D01*
X23680389Y8090389D01*
X23700485Y8074969D01*
X23723888Y8065276D01*
X23749001Y8061970D01*
X23774113Y8065276D01*
X23797514Y8074969D01*
X23804649Y8080443D01*
X23816039Y8074826D01*
Y7989174D01*
X23804649Y7983557D01*
X23797514Y7989031D01*
X23774113Y7998724D01*
X23749001Y8002030D01*
X23723888Y7998724D01*
X23707098Y7991770D01*
X23393234Y8305634D01*
X23381656Y8313369D01*
X23367999Y8316086D01*
X23102800D01*
Y8336600D01*
X22983380D01*
X22978119Y8349300D01*
X23005418Y8376600D01*
X23102800D01*
Y8486599D01*
X23114706Y8488514D01*
X23363419D01*
X23658949Y8192983D01*
D02*
G37*
G36*
X23653780Y7664752D02*
X23651970Y7651000D01*
X23655276Y7625887D01*
X23664969Y7602485D01*
X23680389Y7582389D01*
X23700485Y7566969D01*
X23723888Y7557276D01*
X23749001Y7553970D01*
X23774113Y7557276D01*
X23797514Y7566969D01*
X23804649Y7572443D01*
X23816039Y7566826D01*
Y7481174D01*
X23804649Y7475557D01*
X23797514Y7481031D01*
X23774113Y7490724D01*
X23749001Y7494030D01*
X23747797Y7493871D01*
X23698035Y7543634D01*
X23686456Y7551369D01*
X23672800Y7554086D01*
X23291599D01*
X23289072Y7566786D01*
X23289516Y7566969D01*
X23309610Y7582389D01*
X23325031Y7602485D01*
X23334724Y7625887D01*
X23338029Y7651000D01*
X23334724Y7676113D01*
X23325031Y7699515D01*
X23309610Y7719610D01*
X23289516Y7735031D01*
X23266113Y7744724D01*
X23241000Y7748030D01*
X23215887Y7744724D01*
X23192485Y7735031D01*
X23172391Y7719610D01*
X23156969Y7699515D01*
X23147276Y7676113D01*
X23143970Y7651000D01*
X23147276Y7625887D01*
X23156969Y7602485D01*
X23172391Y7582389D01*
X23192485Y7566969D01*
X23192928Y7566786D01*
X23190402Y7554086D01*
X23027182D01*
X22758234Y7823034D01*
X22746655Y7830769D01*
X22733000Y7833486D01*
X22412428D01*
X22409901Y7846186D01*
X22420711Y7850663D01*
X22438153Y7864047D01*
X22443362Y7870836D01*
X22591800D01*
Y7868600D01*
X22721800D01*
Y7978599D01*
X22721800D01*
X22723213Y7990714D01*
X22769600D01*
Y7972600D01*
X22899600D01*
Y7990714D01*
X23173817D01*
X23178128Y7978014D01*
X23172391Y7973610D01*
X23156969Y7953515D01*
X23147276Y7930113D01*
X23143970Y7905000D01*
X23147050Y7881599D01*
X23144656Y7877002D01*
X23137836Y7869489D01*
X23056731D01*
X23046553Y7882753D01*
X23029111Y7896137D01*
X23008798Y7904551D01*
X22987000Y7907421D01*
X22965202Y7904551D01*
X22944890Y7896137D01*
X22927448Y7882753D01*
X22914062Y7865310D01*
X22905649Y7844998D01*
X22902779Y7823200D01*
X22905649Y7801402D01*
X22914062Y7781090D01*
X22927448Y7763647D01*
X22944890Y7750263D01*
X22965202Y7741849D01*
X22987000Y7738979D01*
X23008798Y7741849D01*
X23029111Y7750263D01*
X23046553Y7763647D01*
X23056731Y7776911D01*
X23164799D01*
X23164799Y7776910D01*
X23182513Y7780434D01*
X23197533Y7790468D01*
X23218054Y7810991D01*
X23241000Y7807970D01*
X23266113Y7811276D01*
X23289516Y7820969D01*
X23309610Y7836389D01*
X23325031Y7856485D01*
X23334724Y7879887D01*
X23338029Y7905000D01*
X23334724Y7930113D01*
X23325031Y7953515D01*
X23309610Y7973610D01*
X23303873Y7978014D01*
X23308183Y7990714D01*
X23327818D01*
X23653780Y7664752D01*
D02*
G37*
G36*
X22591800Y7718600D02*
X22721800D01*
Y7741940D01*
X22733533Y7746800D01*
X22970055Y7510278D01*
X22965971Y7498252D01*
X22965202Y7498151D01*
X22944890Y7489737D01*
X22927448Y7476353D01*
X22914062Y7458910D01*
X22905649Y7438598D01*
X22902779Y7416800D01*
X22905649Y7395002D01*
X22914062Y7374690D01*
X22927448Y7357247D01*
X22944890Y7343863D01*
X22965202Y7335449D01*
X22987000Y7332579D01*
X23008798Y7335449D01*
X23029111Y7343863D01*
X23046553Y7357247D01*
X23056731Y7370511D01*
X23147845D01*
X23156969Y7348485D01*
X23172391Y7328389D01*
X23192485Y7312969D01*
X23215887Y7303276D01*
X23241000Y7299970D01*
X23266113Y7303276D01*
X23289516Y7312969D01*
X23309610Y7328389D01*
X23325031Y7348485D01*
X23334724Y7371887D01*
X23338029Y7397000D01*
X23334724Y7422113D01*
X23325031Y7445515D01*
X23309610Y7465610D01*
X23303873Y7470014D01*
X23308183Y7482714D01*
X23658018D01*
X23678104Y7462630D01*
X23664969Y7445515D01*
X23655276Y7422113D01*
X23651970Y7397000D01*
X23655276Y7371887D01*
X23664969Y7348485D01*
X23680389Y7328389D01*
X23700485Y7312969D01*
X23723888Y7303276D01*
X23749001Y7299970D01*
X23774113Y7303276D01*
X23797514Y7312969D01*
X23804649Y7318444D01*
X23816039Y7312826D01*
Y7227174D01*
X23804649Y7221556D01*
X23797514Y7227031D01*
X23774113Y7236724D01*
X23749001Y7240030D01*
X23723888Y7236724D01*
X23700485Y7227031D01*
X23680389Y7211610D01*
X23664969Y7191515D01*
X23655276Y7168113D01*
X23651970Y7143000D01*
X23655276Y7117887D01*
X23664969Y7094485D01*
X23680389Y7074389D01*
X23700485Y7058969D01*
X23723888Y7049276D01*
X23749001Y7045970D01*
X23774113Y7049276D01*
X23797514Y7058969D01*
X23804649Y7064444D01*
X23816039Y7058826D01*
Y6973174D01*
X23804649Y6967556D01*
X23797514Y6973031D01*
X23774113Y6982724D01*
X23749001Y6986030D01*
X23723888Y6982724D01*
X23700485Y6973031D01*
X23680389Y6957610D01*
X23664969Y6937515D01*
X23655276Y6914113D01*
X23651970Y6889000D01*
X23655276Y6863887D01*
X23664969Y6840485D01*
X23680389Y6820389D01*
X23700485Y6804969D01*
X23723888Y6795276D01*
X23749001Y6791970D01*
X23774113Y6795276D01*
X23797514Y6804969D01*
X23804649Y6810444D01*
X23816039Y6804827D01*
Y6465173D01*
X23804649Y6459556D01*
X23797514Y6465031D01*
X23774113Y6474724D01*
X23749001Y6478030D01*
X23723888Y6474724D01*
X23700485Y6465031D01*
X23680389Y6449610D01*
X23664969Y6429515D01*
X23655276Y6406113D01*
X23651970Y6381000D01*
X23655276Y6355887D01*
X23664969Y6332485D01*
X23680389Y6312389D01*
X23700485Y6296969D01*
X23723888Y6287276D01*
X23749001Y6283970D01*
X23774113Y6287276D01*
X23797514Y6296969D01*
X23804649Y6302444D01*
X23816040Y6296827D01*
Y6211173D01*
X23804649Y6205556D01*
X23797514Y6211031D01*
X23774113Y6220724D01*
X23749001Y6224030D01*
X23723888Y6220724D01*
X23717702Y6218162D01*
X23643732Y6292132D01*
X23628714Y6302166D01*
X23611000Y6305690D01*
X23610999Y6305689D01*
X23098433D01*
X23085953Y6321953D01*
X23068510Y6335337D01*
X23048198Y6343751D01*
X23026401Y6346621D01*
X23004602Y6343751D01*
X22984290Y6335337D01*
X22966847Y6321953D01*
X22953464Y6304511D01*
X22945049Y6284198D01*
X22942180Y6262400D01*
X22945049Y6240602D01*
X22953464Y6220290D01*
X22966847Y6202847D01*
X22984290Y6189463D01*
X23004602Y6181049D01*
X23026401Y6178180D01*
X23048198Y6181049D01*
X23068510Y6189463D01*
X23085953Y6202847D01*
X23093828Y6213111D01*
X23591826D01*
X23654991Y6149946D01*
X23651970Y6127000D01*
X23655276Y6101887D01*
X23658295Y6094598D01*
D01*
X23664969Y6078485D01*
X23680389Y6058389D01*
X23700485Y6042969D01*
X23723888Y6033276D01*
X23749001Y6029970D01*
X23774113Y6033276D01*
X23797514Y6042969D01*
X23812500Y6054468D01*
X23825200Y6048205D01*
Y5951795D01*
X23812500Y5945532D01*
X23797514Y5957031D01*
X23774113Y5966724D01*
X23749001Y5970030D01*
X23723888Y5966724D01*
X23700485Y5957031D01*
X23680389Y5941610D01*
X23664969Y5921515D01*
X23655276Y5898113D01*
X23651970Y5873000D01*
X23655276Y5847887D01*
X23664969Y5824485D01*
X23680389Y5804389D01*
X23700485Y5788969D01*
X23723888Y5779276D01*
X23749001Y5775970D01*
X23774113Y5779276D01*
X23797514Y5788969D01*
X23812500Y5800468D01*
X23825200Y5794205D01*
Y5697795D01*
X23812500Y5691532D01*
X23797514Y5703031D01*
X23774113Y5712724D01*
X23749001Y5716030D01*
X23723888Y5712724D01*
X23717702Y5710162D01*
X23654732Y5773132D01*
X23639714Y5783166D01*
X23622000Y5786690D01*
X23621999Y5786689D01*
X23292374D01*
X23291368Y5786890D01*
X23291367Y5786889D01*
X23171176D01*
X23100839Y5857226D01*
X23103021Y5873801D01*
X23100153Y5895599D01*
X23091737Y5915911D01*
X23078354Y5933354D01*
X23060912Y5946738D01*
X23040599Y5955152D01*
X23018800Y5958021D01*
X22997003Y5955152D01*
X22976691Y5946738D01*
X22959248Y5933354D01*
X22945863Y5915911D01*
X22937450Y5895599D01*
X22934579Y5873801D01*
X22937450Y5852003D01*
X22945863Y5831691D01*
X22959248Y5814248D01*
X22976691Y5800864D01*
X22997003Y5792450D01*
X23018800Y5789580D01*
X23035376Y5791762D01*
X23119270Y5707868D01*
X23134286Y5697834D01*
X23152002Y5694310D01*
X23152003Y5694310D01*
X23161522D01*
X23167786Y5681610D01*
X23156969Y5667515D01*
X23147276Y5644113D01*
X23143970Y5619000D01*
X23147276Y5593887D01*
X23156969Y5570485D01*
X23172391Y5550389D01*
X23192485Y5534969D01*
X23215887Y5525276D01*
X23241000Y5521970D01*
X23266113Y5525276D01*
X23289516Y5534969D01*
X23309610Y5550389D01*
X23325031Y5570485D01*
X23334724Y5593887D01*
X23338029Y5619000D01*
X23334724Y5644113D01*
X23325031Y5667515D01*
X23314368Y5681411D01*
X23320631Y5694111D01*
X23602826D01*
X23654991Y5641946D01*
X23651970Y5619000D01*
X23655276Y5593887D01*
X23664969Y5570485D01*
X23680389Y5550389D01*
X23700485Y5534969D01*
X23723888Y5525276D01*
X23749001Y5521970D01*
X23774113Y5525276D01*
X23797514Y5534969D01*
X23812500Y5546468D01*
X23825200Y5540205D01*
Y5443795D01*
X23812500Y5437532D01*
X23797514Y5449031D01*
X23774113Y5458724D01*
X23749001Y5462030D01*
X23723888Y5458724D01*
X23700485Y5449031D01*
X23680389Y5433610D01*
X23664969Y5413515D01*
X23655276Y5390113D01*
X23651970Y5365000D01*
X23655276Y5339887D01*
X23664969Y5316485D01*
X23680389Y5296389D01*
X23700485Y5280969D01*
X23723888Y5271276D01*
X23749001Y5267970D01*
X23774113Y5271276D01*
X23797514Y5280969D01*
X23812500Y5292468D01*
X23825200Y5286205D01*
Y5029200D01*
X21005800D01*
Y5334000D01*
X20828000D01*
Y5689600D01*
X21005800D01*
Y5690215D01*
X21085693D01*
X21099352Y5692931D01*
X21110928Y5700667D01*
X21506032Y6095771D01*
X21899333Y6489072D01*
X21907069Y6500649D01*
X21909785Y6514305D01*
Y7508318D01*
X22163582Y7762114D01*
X22591800D01*
Y7718600D01*
D02*
G37*
G36*
X23664969Y8872485D02*
X23680389Y8852389D01*
X23700485Y8836969D01*
X23723888Y8827276D01*
X23749001Y8823970D01*
X23774113Y8827276D01*
X23797514Y8836969D01*
X23804648Y8842443D01*
X23816039Y8836826D01*
Y8751174D01*
X23804648Y8745557D01*
X23797514Y8751031D01*
X23774113Y8760724D01*
X23749001Y8764030D01*
X23723888Y8760724D01*
X23700485Y8751031D01*
X23680389Y8735610D01*
X23664969Y8715515D01*
X23658684Y8700340D01*
X23331316D01*
X23325031Y8715515D01*
X23309610Y8735610D01*
X23289516Y8751031D01*
X23266113Y8760724D01*
X23241000Y8764030D01*
X23215887Y8760724D01*
X23192485Y8751031D01*
X23172391Y8735610D01*
X23156969Y8715515D01*
X23148364Y8694741D01*
X22754485D01*
X22749625Y8706474D01*
X22925211Y8882059D01*
X23153004D01*
X23156969Y8872485D01*
X23172391Y8852389D01*
X23192485Y8836969D01*
X23215887Y8827276D01*
X23241000Y8823970D01*
X23266113Y8827276D01*
X23289516Y8836969D01*
X23309610Y8852389D01*
X23325031Y8872485D01*
X23331316Y8887659D01*
X23658684D01*
X23664969Y8872485D01*
D02*
G37*
G36*
X23798999Y2922000D02*
X23848000Y2873000D01*
X23848001Y2519000D01*
X23808020Y2479019D01*
X22992986Y2478011D01*
X22984000Y2486986D01*
Y2922000D01*
X23798999Y2922000D01*
D02*
G37*
G36*
X22702000Y3190000D02*
X22700000Y3188000D01*
Y3004000D01*
X22271001D01*
X21350999Y2084000D01*
X21339000Y2072000D01*
X21235999D01*
Y2070399D01*
X12842999Y2070400D01*
X12842999Y2527600D01*
X21203418Y2527600D01*
X21203999Y2530000D01*
X22011000Y3337000D01*
X22555000D01*
X22702000Y3190000D01*
D02*
G37*
G36*
X13579498Y2970000D02*
X12474599Y2970000D01*
X12474599Y4764600D01*
X13579498D01*
X13579498Y2970000D01*
D02*
G37*
G36*
X23816039Y10021174D02*
X23804648Y10015557D01*
X23797514Y10021031D01*
X23774113Y10030724D01*
X23749001Y10034030D01*
X23723888Y10030724D01*
X23700485Y10021031D01*
X23680389Y10005610D01*
X23664969Y9985515D01*
X23655276Y9962113D01*
X23651970Y9937000D01*
X23655276Y9911887D01*
X23664969Y9888485D01*
X23680389Y9868389D01*
X23700485Y9852969D01*
X23723888Y9843276D01*
X23749001Y9839970D01*
X23774113Y9843276D01*
X23797514Y9852969D01*
X23804648Y9858443D01*
X23816039Y9852826D01*
Y9767174D01*
X23804648Y9761557D01*
X23797514Y9767031D01*
X23774113Y9776724D01*
X23749001Y9780030D01*
X23723888Y9776724D01*
X23700485Y9767031D01*
X23680389Y9751610D01*
X23664969Y9731515D01*
X23655276Y9708113D01*
X23651970Y9683000D01*
X23655276Y9657887D01*
X23664969Y9634485D01*
X23680389Y9614389D01*
X23700485Y9598969D01*
X23723888Y9589276D01*
X23749001Y9585970D01*
X23774113Y9589276D01*
X23797514Y9598969D01*
X23804648Y9604443D01*
X23816039Y9598826D01*
Y9513174D01*
X23804648Y9507557D01*
X23797514Y9513031D01*
X23774113Y9522724D01*
X23749001Y9526030D01*
X23723888Y9522724D01*
X23700945Y9513220D01*
X23289056D01*
X23266573Y9522533D01*
X23211563Y9577543D01*
X23213931Y9583970D01*
X23218079Y9588988D01*
X23241000Y9585970D01*
X23266113Y9589276D01*
X23289516Y9598969D01*
X23309610Y9614389D01*
X23325031Y9634485D01*
X23334724Y9657887D01*
X23338029Y9683000D01*
X23334724Y9708113D01*
X23325031Y9731515D01*
X23309610Y9751610D01*
X23289516Y9767031D01*
X23266113Y9776724D01*
X23241000Y9780030D01*
X23215887Y9776724D01*
X23192485Y9767031D01*
X23172391Y9751610D01*
X23156969Y9731515D01*
X23147276Y9708113D01*
X23143970Y9683000D01*
X23146988Y9660079D01*
X23141969Y9655932D01*
X23135542Y9653563D01*
X22643213Y10145893D01*
X22625771Y10159277D01*
X22605458Y10167691D01*
X22583659Y10170561D01*
X20740820D01*
X20734557Y10183261D01*
X20740916Y10191550D01*
X20749332Y10211862D01*
X20752200Y10233660D01*
X20749332Y10255458D01*
X20740916Y10275770D01*
X20727533Y10293213D01*
X20710091Y10306597D01*
X20696242Y10312334D01*
Y10543540D01*
X20693703Y10556299D01*
X20686476Y10567115D01*
X20432475Y10821115D01*
X20421658Y10828343D01*
X20408900Y10830881D01*
X6311195D01*
X6298436Y10828343D01*
X6287620Y10821115D01*
X6105765Y10639260D01*
X6098537Y10628444D01*
X6095999Y10615685D01*
Y10303670D01*
X5983130Y10190801D01*
X5057460D01*
X5044701Y10188263D01*
X5033885Y10181035D01*
X4256425Y9403575D01*
X4249197Y9392759D01*
X4246660Y9380000D01*
Y9181412D01*
X4234747Y9173453D01*
X4222592Y9155260D01*
X4218323Y9133800D01*
X4222592Y9112340D01*
X4234747Y9094147D01*
X4252940Y9081991D01*
X4274400Y9077723D01*
X4295860Y9081991D01*
X4314053Y9094147D01*
X4326209Y9112340D01*
X4330477Y9133800D01*
X4326209Y9155260D01*
X4314053Y9173453D01*
X4313341Y9173929D01*
Y9366190D01*
X5071270Y10124119D01*
X5427786D01*
X5433013Y10112250D01*
X5426754Y10104340D01*
X5220000D01*
X5207241Y10101803D01*
X5196425Y10094575D01*
X4512084Y9410234D01*
X4505400Y9411564D01*
X4485208Y9407548D01*
X4468090Y9396110D01*
X4456653Y9378992D01*
X4452636Y9358800D01*
X4456653Y9338608D01*
X4468090Y9321490D01*
X4485208Y9310053D01*
X4505400Y9306036D01*
X4525592Y9310053D01*
X4542710Y9321490D01*
X4554147Y9338608D01*
X4558164Y9358800D01*
X4557631Y9361480D01*
X5233810Y10037659D01*
X5443000D01*
X5455759Y10040197D01*
X5466575Y10047425D01*
X5479770Y10060619D01*
X6029960D01*
X6042719Y10063157D01*
X6053535Y10070385D01*
X6198315Y10215165D01*
X6205543Y10225981D01*
X6208081Y10238740D01*
Y10583070D01*
X6222169Y10597158D01*
X6233902Y10592298D01*
Y10254405D01*
X6397296D01*
X6624914Y10026787D01*
X6642357Y10013403D01*
X6662669Y10004989D01*
X6684467Y10002119D01*
X22548775D01*
X23147467Y9403427D01*
X23156969Y9380485D01*
X23172391Y9360389D01*
X23192485Y9344969D01*
X23215887Y9335276D01*
X23241000Y9331970D01*
X23266113Y9335276D01*
X23289056Y9344779D01*
X23700945D01*
X23723888Y9335276D01*
X23749001Y9331970D01*
X23774113Y9335276D01*
X23797514Y9344969D01*
X23804648Y9350443D01*
X23816039Y9344826D01*
X23816039Y9005174D01*
X23804648Y8999557D01*
X23797514Y9005031D01*
X23774113Y9014724D01*
X23749001Y9018030D01*
X23723888Y9014724D01*
X23700485Y9005031D01*
X23680389Y8989610D01*
X23664969Y8969515D01*
X23658684Y8954340D01*
X23331316D01*
X23325031Y8969515D01*
X23309610Y8989610D01*
X23289516Y9005031D01*
X23266113Y9014724D01*
X23241000Y9018030D01*
X23215887Y9014724D01*
X23192485Y9005031D01*
X23172391Y8989610D01*
X23156969Y8969515D01*
X23148364Y8948741D01*
X22911400D01*
X22898640Y8946203D01*
X22887825Y8938975D01*
X21607425Y7658575D01*
X21600197Y7647759D01*
X21597659Y7635000D01*
Y6628810D01*
X21052888Y6084038D01*
X20938593D01*
X20938593Y6254801D01*
X20937041Y6262605D01*
X20932620Y6269220D01*
X20926006Y6273641D01*
X20918201Y6275193D01*
X20616862D01*
X20608041Y6281961D01*
X20591621Y6288763D01*
X20574001Y6291082D01*
X20556380Y6288763D01*
X20539960Y6281961D01*
X20531139Y6275193D01*
X20159662D01*
X20150841Y6281961D01*
X20134421Y6288763D01*
X20116800Y6291082D01*
X20099179Y6288763D01*
X20082759Y6281961D01*
X20073938Y6275193D01*
X20058063D01*
X20049242Y6281961D01*
X20032822Y6288763D01*
X20015199Y6291082D01*
X19997578Y6288763D01*
X19981158Y6281961D01*
X19972337Y6275193D01*
X19956462D01*
X19947641Y6281961D01*
X19931221Y6288763D01*
X19913600Y6291082D01*
X19895979Y6288763D01*
X19879559Y6281961D01*
X19870738Y6275193D01*
X19854861D01*
X19846040Y6281961D01*
X19829620Y6288763D01*
X19812000Y6291082D01*
X19794379Y6288763D01*
X19777959Y6281961D01*
X19769138Y6275193D01*
X19753262D01*
X19744441Y6281961D01*
X19728021Y6288763D01*
X19710400Y6291082D01*
X19692780Y6288763D01*
X19676360Y6281961D01*
X19667538Y6275193D01*
X19651662D01*
X19642841Y6281961D01*
X19626421Y6288763D01*
X19608800Y6291082D01*
X19591179Y6288763D01*
X19574759Y6281961D01*
X19565938Y6275193D01*
X19550063D01*
X19541241Y6281961D01*
X19524821Y6288763D01*
X19507201Y6291082D01*
X19489578Y6288763D01*
X19473158Y6281961D01*
X19464339Y6275193D01*
X19448462D01*
X19439641Y6281961D01*
X19423221Y6288763D01*
X19405600Y6291082D01*
X19387979Y6288763D01*
X19371559Y6281961D01*
X19362738Y6275193D01*
X19346861D01*
X19338042Y6281961D01*
X19321622Y6288763D01*
X19303999Y6291082D01*
X19287350Y6288891D01*
X19256221Y6320020D01*
X19256219Y6320021D01*
X19078421Y6497820D01*
X19078419Y6497821D01*
X19058994Y6517248D01*
Y7296201D01*
X19057442Y7304005D01*
X19053021Y7310621D01*
X19046405Y7315041D01*
X19038602Y7316593D01*
X18835400Y7316593D01*
X18827597Y7315041D01*
X18820981Y7310620D01*
X18816560Y7304005D01*
X18815591Y7299135D01*
X18812759Y7297961D01*
X18798659Y7287142D01*
X18787839Y7273041D01*
X18781036Y7256621D01*
X18778719Y7239000D01*
X18781036Y7221379D01*
X18787839Y7204959D01*
X18793495Y7197588D01*
X18797519Y7188200D01*
X18793495Y7178812D01*
X18787839Y7171441D01*
X18781036Y7155021D01*
X18778719Y7137400D01*
X18781036Y7119779D01*
X18787839Y7103359D01*
X18793495Y7095988D01*
X18797519Y7086600D01*
X18793495Y7077212D01*
X18787839Y7069841D01*
X18781036Y7053421D01*
X18778719Y7035800D01*
X18781036Y7018179D01*
X18787839Y7001759D01*
X18793495Y6994388D01*
X18797519Y6985000D01*
X18793495Y6975612D01*
X18787839Y6968241D01*
X18781036Y6951821D01*
X18778719Y6934200D01*
X18781036Y6916579D01*
X18787839Y6900159D01*
X18798659Y6886058D01*
X18812759Y6875239D01*
X18815009Y6874307D01*
Y6689293D01*
X18812759Y6688361D01*
X18798659Y6677542D01*
X18787839Y6663441D01*
X18781036Y6647021D01*
X18778719Y6629400D01*
X18781036Y6611779D01*
X18787839Y6595359D01*
X18798659Y6581258D01*
X18812759Y6570439D01*
X18815009Y6569507D01*
Y6084038D01*
X13933400D01*
Y6126800D01*
X13803400D01*
Y6121543D01*
X13790700Y6117232D01*
X13789542Y6118742D01*
X13775441Y6129561D01*
X13759021Y6136363D01*
X13741400Y6138682D01*
X13723779Y6136363D01*
X13707359Y6129561D01*
X13693259Y6118742D01*
X13682439Y6104641D01*
X13675636Y6088221D01*
X13675087Y6084038D01*
X10642539Y6084038D01*
X10634165Y6093586D01*
X10634482Y6096000D01*
X10632163Y6113621D01*
X10626193Y6128032D01*
X10626193Y6254801D01*
X10624641Y6262605D01*
X10620221Y6269220D01*
X10613605Y6273641D01*
X10605801Y6275193D01*
X8988648D01*
X8943821Y6320020D01*
X8943820Y6320021D01*
X8766021Y6497820D01*
X8766020Y6497821D01*
X8746593Y6517248D01*
Y7296201D01*
X8745041Y7304005D01*
X8740621Y7310621D01*
X8734005Y7315041D01*
X8726201Y7316593D01*
X8523001Y7316593D01*
X8515197Y7315041D01*
X8508581Y7310620D01*
X8504161Y7304005D01*
X8502609Y7296201D01*
Y7249948D01*
X8500839Y7247641D01*
X8494037Y7231221D01*
X8491718Y7213600D01*
X8494037Y7195979D01*
X8500839Y7179559D01*
X8502609Y7177252D01*
Y7148348D01*
X8500839Y7146041D01*
X8494037Y7129621D01*
X8491718Y7112000D01*
X8494037Y7094379D01*
X8500839Y7077959D01*
X8502609Y7075652D01*
Y7046748D01*
X8500839Y7044441D01*
X8494037Y7028021D01*
X8491718Y7010400D01*
X8494037Y6992779D01*
X8500839Y6976359D01*
X8502609Y6974052D01*
Y6945148D01*
X8500839Y6942841D01*
X8494037Y6926421D01*
X8491718Y6908800D01*
X8494037Y6891179D01*
X8500839Y6874759D01*
X8502609Y6872452D01*
X8502609Y6640348D01*
X8500839Y6638041D01*
X8494037Y6621621D01*
X8491718Y6604000D01*
X8494037Y6586379D01*
X8500839Y6569959D01*
X8502609Y6567652D01*
Y6084038D01*
X8466513D01*
X8221375Y6329176D01*
X8220902Y6331550D01*
X8213675Y6342367D01*
X8024467Y6531575D01*
X8013650Y6538803D01*
X8000891Y6541340D01*
X5948810D01*
X4811341Y7678810D01*
Y7708099D01*
X4824041Y7711283D01*
X4840940Y7699991D01*
X4862400Y7695723D01*
X4883860Y7699991D01*
X4902053Y7712147D01*
X4914209Y7730340D01*
X4918477Y7751800D01*
X4917546Y7756479D01*
X5173234Y8012167D01*
X5180969Y8023744D01*
X5183686Y8037400D01*
Y8341138D01*
X5185710Y8342490D01*
X5197148Y8359608D01*
X5201164Y8379800D01*
X5197148Y8399992D01*
X5185710Y8417110D01*
X5168592Y8428548D01*
X5148400Y8432564D01*
X5128208Y8428548D01*
X5111090Y8417110D01*
X5099653Y8399992D01*
X5095636Y8379800D01*
X5099653Y8359608D01*
X5111090Y8342490D01*
X5112314Y8341672D01*
Y8241609D01*
X5099614Y8237756D01*
X5098710Y8239110D01*
X5081592Y8250548D01*
X5061400Y8254564D01*
X5041208Y8250548D01*
X5024090Y8239110D01*
X5012653Y8221992D01*
X5008636Y8201800D01*
X5012653Y8181608D01*
X5024090Y8164490D01*
X5026314Y8163005D01*
Y8096182D01*
X4849079Y7918947D01*
X4844400Y7919877D01*
X4824041Y7915828D01*
X4820884Y7916228D01*
X4811341Y7921329D01*
Y8767190D01*
X4835715Y8791565D01*
X4843400Y8790036D01*
X4863592Y8794053D01*
X4880710Y8805490D01*
X4892147Y8822608D01*
X4896164Y8842800D01*
X4892147Y8862992D01*
X4880710Y8880110D01*
X4863592Y8891548D01*
X4848729Y8894504D01*
X4847466Y8898699D01*
X4847388Y8907720D01*
X4862310Y8917690D01*
X4873747Y8934808D01*
X4877764Y8955000D01*
X4873747Y8975192D01*
X4862310Y8992310D01*
X4845192Y9003748D01*
X4825000Y9007764D01*
X4804808Y9003748D01*
X4787690Y8992310D01*
X4776253Y8975192D01*
X4772236Y8955000D01*
X4773731Y8947486D01*
X4707725Y8881480D01*
X4700497Y8870664D01*
X4697959Y8857905D01*
Y8755337D01*
X4685259Y8751026D01*
X4682553Y8754553D01*
X4665110Y8767937D01*
X4644798Y8776351D01*
X4623000Y8779220D01*
X4601202Y8776351D01*
X4580889Y8767937D01*
X4563447Y8754553D01*
X4550063Y8737110D01*
X4541649Y8716798D01*
X4538779Y8695000D01*
X4541649Y8673202D01*
X4550063Y8652889D01*
X4563447Y8635447D01*
X4580889Y8622063D01*
X4601202Y8613649D01*
X4623000Y8610779D01*
X4644798Y8613649D01*
X4665110Y8622063D01*
X4682553Y8635447D01*
X4685259Y8638974D01*
X4697959Y8634663D01*
Y8223423D01*
X4688947Y8218605D01*
X4685259Y8217813D01*
X4666400Y8221564D01*
X4646208Y8217547D01*
X4629090Y8206110D01*
X4622516Y8196270D01*
X4615131Y8189885D01*
X4606241Y8193033D01*
X4596192Y8199747D01*
X4576000Y8203764D01*
X4555808Y8199747D01*
X4547384Y8194119D01*
X4530285Y8196850D01*
X4529310Y8198310D01*
X4512192Y8209747D01*
X4492000Y8213764D01*
X4471808Y8209747D01*
X4459692Y8201652D01*
X4444321Y8202801D01*
X4442927Y8203565D01*
X4426192Y8214747D01*
X4406000Y8218764D01*
X4385808Y8214747D01*
X4368690Y8203310D01*
X4357253Y8186192D01*
X4353236Y8166000D01*
X4357253Y8145808D01*
X4368690Y8128690D01*
X4372314Y8126269D01*
Y7691206D01*
X4375031Y7677550D01*
X4382766Y7665972D01*
X5811472Y6237267D01*
X5823049Y6229532D01*
X5836705Y6226815D01*
X7887815D01*
X7913621Y6201009D01*
X7914031Y6198950D01*
X7921766Y6187372D01*
X8013368Y6095771D01*
X8008508Y6084038D01*
X7601992D01*
X7337530Y5732811D01*
X7325486Y5736838D01*
Y5969602D01*
X7331910Y5972263D01*
X7349353Y5985647D01*
X7362737Y6003090D01*
X7371151Y6023402D01*
X7374021Y6045200D01*
X7371151Y6066998D01*
X7364399Y6083299D01*
X7364761Y6084038D01*
X7364093D01*
X7362737Y6087310D01*
X7349353Y6104753D01*
X7331910Y6118137D01*
X7311598Y6126551D01*
X7289800Y6129421D01*
X7268002Y6126551D01*
X7247690Y6118137D01*
X7230247Y6104753D01*
X7216863Y6087310D01*
X7215507Y6084038D01*
X7214839D01*
X7215201Y6083299D01*
X7208449Y6066998D01*
X7205579Y6045200D01*
X7208449Y6023402D01*
X7216863Y6003090D01*
X7230247Y5985647D01*
X7247690Y5972263D01*
X7254114Y5969602D01*
Y5664200D01*
X7256831Y5650544D01*
X7264566Y5638966D01*
X7265880Y5637653D01*
X7151000Y5485084D01*
X7151000Y3363086D01*
X2585857D01*
X2579749Y3377831D01*
X2563721Y3398721D01*
X2542831Y3414750D01*
X2518505Y3424826D01*
X2492400Y3428263D01*
X2466295Y3424826D01*
X2441969Y3414750D01*
X2421079Y3398721D01*
X2405050Y3377831D01*
X2394974Y3353505D01*
X2391537Y3327400D01*
X2394974Y3301295D01*
X2405050Y3276969D01*
X2421079Y3256079D01*
X2441969Y3240050D01*
X2466295Y3229974D01*
X2492400Y3226537D01*
X2518505Y3229974D01*
X2542831Y3240050D01*
X2563721Y3256079D01*
X2579749Y3276969D01*
X2585857Y3291714D01*
X7151000D01*
Y3058286D01*
X2797200D01*
X2783544Y3055569D01*
X2771966Y3047834D01*
X2514487Y2790355D01*
X2492400Y2793263D01*
X2466295Y2789826D01*
X2441969Y2779750D01*
X2421079Y2763721D01*
X2405050Y2742831D01*
X2394974Y2718505D01*
X2391537Y2692400D01*
X2394974Y2666295D01*
X2405050Y2641969D01*
X2421079Y2621079D01*
X2441969Y2605050D01*
X2466295Y2594974D01*
X2492400Y2591537D01*
X2518505Y2594974D01*
X2542831Y2605050D01*
X2563721Y2621079D01*
X2579749Y2641969D01*
X2589826Y2666295D01*
X2593263Y2692400D01*
X2589826Y2718505D01*
X2579749Y2742831D01*
X2574604Y2749537D01*
X2811981Y2986914D01*
X7151000D01*
Y2778886D01*
X4114198D01*
X4111537Y2785310D01*
X4098153Y2802753D01*
X4080710Y2816137D01*
X4060398Y2824551D01*
X4038600Y2827421D01*
X4016802Y2824551D01*
X3996490Y2816137D01*
X3979047Y2802753D01*
X3965663Y2785310D01*
X3957249Y2764998D01*
X3954379Y2743200D01*
X3957249Y2721402D01*
X3965663Y2701090D01*
X3979047Y2683647D01*
X3996490Y2670263D01*
X4016802Y2661849D01*
X4038600Y2658979D01*
X4060398Y2661849D01*
X4080710Y2670263D01*
X4098153Y2683647D01*
X4111537Y2701090D01*
X4114198Y2707514D01*
X7151000D01*
X7150999Y2474085D01*
X3203400D01*
Y2503400D01*
X3093400D01*
Y2373400D01*
X3203400D01*
Y2402714D01*
X7150999D01*
Y1778999D01*
X2311399Y1779000D01*
X2311400Y6083300D01*
X2311972Y6084038D01*
X2286000D01*
Y6162953D01*
X2298700Y6175060D01*
X2386171D01*
X2435541Y6224430D01*
Y6323170D01*
X2386171Y6372540D01*
X2287431D01*
X2286000Y6373133D01*
X2285999Y10935437D01*
X23816039Y10935438D01*
X23816039Y10021174D01*
D02*
G37*
G36*
X20629559Y10529730D02*
Y10308125D01*
X20625870Y10306597D01*
X20608427Y10293213D01*
X20595042Y10275770D01*
X20586629Y10255458D01*
X20583759Y10233660D01*
X20586629Y10211862D01*
X20595042Y10191550D01*
X20601402Y10183261D01*
X20595140Y10170561D01*
X13311320D01*
X13305057Y10183261D01*
X13311417Y10191550D01*
X13319830Y10211862D01*
X13322701Y10233660D01*
X13319830Y10255458D01*
X13311417Y10275770D01*
X13298033Y10293213D01*
X13280589Y10306597D01*
X13260278Y10315011D01*
X13238480Y10317881D01*
X13216682Y10315011D01*
X13207912Y10311378D01*
X13137595Y10381695D01*
X13126779Y10388923D01*
X13114020Y10391461D01*
X13102431D01*
X12741424Y10752466D01*
X12746285Y10764199D01*
X13696719D01*
Y10705776D01*
X13826720D01*
Y10764199D01*
X20395090D01*
X20629559Y10529730D01*
D02*
G37*
G36*
X13065045Y10334544D02*
X13075861Y10327317D01*
X13088620Y10324779D01*
X13100211D01*
X13160762Y10264228D01*
X13157129Y10255458D01*
X13154259Y10233660D01*
X13157129Y10211862D01*
X13165543Y10191550D01*
X13171902Y10183261D01*
X13165640Y10170561D01*
X6719352D01*
X6428902Y10461011D01*
Y10624405D01*
X6266009D01*
X6261149Y10636138D01*
X6335870Y10710859D01*
X9165360D01*
Y10660056D01*
X9295360D01*
Y10710859D01*
X12688730D01*
X13065045Y10334544D01*
D02*
G37*
G36*
X12322198Y1960111D02*
X21100620Y1960112D01*
X21100906Y1959825D01*
X21102061Y1961000D01*
X21358000D01*
X21519000Y2122000D01*
X22301001Y2904000D01*
X22695000Y2904000D01*
X22695000Y2641000D01*
X21506000Y1452000D01*
X21102460Y1452000D01*
X21100615Y1450157D01*
X10848000Y1455888D01*
Y1479477D01*
X10845799Y1481675D01*
Y5283200D01*
X12322199Y5283200D01*
X12322198Y1960111D01*
D02*
G37*
G36*
X22678000Y3572000D02*
X22592000Y3486000D01*
X22007001D01*
X21676266Y3155267D01*
X21676266Y3155266D01*
X21382001Y2861000D01*
X18117999D01*
X18117999Y3167000D01*
X21296001Y3167000D01*
X21825999Y3697000D01*
X22678000D01*
Y3572000D01*
D02*
G37*
G36*
X23804999Y3428000D02*
X23853999Y3379000D01*
X23854001Y3025000D01*
X23814020Y2985019D01*
X22998985Y2984011D01*
X22989999Y2992986D01*
Y3428000D01*
X23804999Y3428000D01*
D02*
G37*
G36*
X15713799Y3286595D02*
X14246387Y3284675D01*
X14237399Y3293650D01*
X14237399Y5232400D01*
X15713799Y5232400D01*
X15713799Y3286595D01*
D02*
G37*
G36*
X16971098Y3285200D02*
X15866199Y3285200D01*
X15866199Y4767400D01*
X16971098D01*
X16971098Y3285200D01*
D02*
G37*
G36*
X20534599Y3611000D02*
X21077000Y3611000D01*
X21435001Y3969000D01*
X22674001D01*
Y3769000D01*
X22637000Y3732000D01*
X21779001D01*
X21626855Y3579855D01*
X21625818Y3579819D01*
X21331001Y3285000D01*
X19481799D01*
Y3293000D01*
X18999199Y3293000D01*
X18999200Y5690215D01*
X20534602D01*
X20534599Y3611000D01*
D02*
G37*
%LPC*%
G36*
X22555200Y6739021D02*
X22533401Y6736151D01*
X22513091Y6727737D01*
X22495647Y6714353D01*
X22482263Y6696910D01*
X22473849Y6676598D01*
X22470979Y6654800D01*
X22473849Y6633002D01*
X22482263Y6612690D01*
X22495647Y6595247D01*
X22513091Y6581863D01*
X22533401Y6573449D01*
X22555200Y6570579D01*
X22576997Y6573449D01*
X22597310Y6581863D01*
X22614754Y6595247D01*
X22628137Y6612690D01*
X22636551Y6633002D01*
X22639421Y6654800D01*
X22636551Y6676598D01*
X22628137Y6696910D01*
X22614754Y6714353D01*
X22597310Y6727737D01*
X22576997Y6736151D01*
X22555200Y6739021D01*
D02*
G37*
G36*
X23241000Y5462030D02*
X23215887Y5458724D01*
X23192485Y5449031D01*
X23172391Y5433610D01*
X23156969Y5413515D01*
X23147276Y5390113D01*
X23143970Y5365000D01*
X23147276Y5339887D01*
X23156969Y5316485D01*
X23172391Y5296389D01*
X23192485Y5280969D01*
X23215887Y5271276D01*
X23241000Y5267970D01*
X23266113Y5271276D01*
X23289516Y5280969D01*
X23309610Y5296389D01*
X23325031Y5316485D01*
X23334724Y5339887D01*
X23338029Y5365000D01*
X23334724Y5390113D01*
X23325031Y5413515D01*
X23309610Y5433610D01*
X23289516Y5449031D01*
X23266113Y5458724D01*
X23241000Y5462030D01*
D02*
G37*
G36*
Y7240030D02*
X23215887Y7236724D01*
X23192485Y7227031D01*
X23172391Y7211610D01*
X23156969Y7191515D01*
X23147276Y7168113D01*
X23143970Y7143000D01*
X23147276Y7117887D01*
X23156969Y7094485D01*
X23172391Y7074389D01*
X23192485Y7058969D01*
X23215887Y7049276D01*
X23241000Y7045970D01*
X23266113Y7049276D01*
X23289516Y7058969D01*
X23309610Y7074389D01*
X23325031Y7094485D01*
X23334724Y7117887D01*
X23338029Y7143000D01*
X23334724Y7168113D01*
X23325031Y7191515D01*
X23309610Y7211610D01*
X23289516Y7227031D01*
X23266113Y7236724D01*
X23241000Y7240030D01*
D02*
G37*
G36*
X2640171Y6372540D02*
X2541431D01*
X2492061Y6323170D01*
Y6224430D01*
X2541431Y6175060D01*
X2640171D01*
X2689541Y6224430D01*
Y6323170D01*
X2640171Y6372540D01*
D02*
G37*
G36*
X10605800Y8637394D02*
X8751601Y8637393D01*
X8743798Y8635841D01*
X8737182Y8631421D01*
X8732762Y8624805D01*
X8731209Y8617002D01*
X8731210Y8455800D01*
X8721400D01*
Y8155800D01*
X8721400D01*
Y8150999D01*
X8721400D01*
Y7851000D01*
X8731210D01*
X8731210Y7702602D01*
X8732763Y7694798D01*
X8737183Y7688182D01*
X8743799Y7683762D01*
X8751602Y7682210D01*
X8913436Y7682209D01*
X8921240Y7683762D01*
X8927855Y7688182D01*
X8932276Y7694798D01*
X8933828Y7702601D01*
Y8063238D01*
X8933566Y8064556D01*
X8933654Y8065900D01*
X8932796Y8068426D01*
X8932276Y8071042D01*
X8931528Y8072160D01*
X8931096Y8073434D01*
X8929337Y8075439D01*
X8927855Y8077657D01*
X8926737Y8078405D01*
X8925850Y8079416D01*
X8921191Y8082991D01*
X8911075Y8096174D01*
X8904716Y8111526D01*
X8902547Y8128000D01*
X8904716Y8144474D01*
X8911075Y8159826D01*
X8921191Y8173009D01*
X8934374Y8183125D01*
X8949726Y8189484D01*
X8966200Y8191653D01*
X8982674Y8189484D01*
X8998026Y8183125D01*
X9011209Y8173009D01*
X9021325Y8159826D01*
X9027684Y8144474D01*
X9029853Y8128000D01*
X9027684Y8111526D01*
X9021325Y8096174D01*
X9011209Y8082991D01*
X9006550Y8079416D01*
X9005663Y8078405D01*
X9004545Y8077657D01*
X9003063Y8075439D01*
X9001304Y8073434D01*
X9000872Y8072160D01*
X9000124Y8071042D01*
X8999604Y8068426D01*
X8998746Y8065900D01*
X8998834Y8064556D01*
X8998572Y8063238D01*
Y7702601D01*
X9000124Y7694798D01*
X9004545Y7688182D01*
X9011160Y7683762D01*
X9018964Y7682209D01*
X9163009Y7682209D01*
X9163010Y6661201D01*
X9164562Y6653398D01*
X9168982Y6646782D01*
X9175598Y6642362D01*
X9183401Y6640809D01*
X9259601Y6640809D01*
X9261316Y6641150D01*
X9263066Y6641105D01*
X9265183Y6641919D01*
X9267405Y6642361D01*
X9268860Y6643333D01*
X9270493Y6643961D01*
X9272136Y6645522D01*
X9274021Y6646782D01*
X9274993Y6648237D01*
X9276261Y6649441D01*
X9439910Y6881277D01*
X9446142Y6886058D01*
X9456961Y6900159D01*
X9462248Y6912922D01*
X9507004Y6976327D01*
X9508241Y6976839D01*
X9522342Y6987658D01*
X9533161Y7001759D01*
X9539963Y7018179D01*
X9540746Y7024127D01*
X9574968Y7072609D01*
X9691401Y7072609D01*
X10605801D01*
X10613604Y7074161D01*
X10620220Y7078582D01*
X10624640Y7085197D01*
X10626193Y7093001D01*
X10626192Y8617002D01*
X10624640Y8624805D01*
X10620219Y8631421D01*
X10613604Y8635842D01*
X10605800Y8637394D01*
D02*
G37*
G36*
X14858202Y8459445D02*
X14376401D01*
X14368596Y8457892D01*
X14361981Y8453472D01*
X14357561Y8446856D01*
X14356007Y8439053D01*
Y6959600D01*
X14356007Y6604000D01*
X14357561Y6596196D01*
X14361980Y6589580D01*
X14368596Y6585160D01*
X14376401Y6583608D01*
X17653000Y6583607D01*
X17660803Y6585159D01*
X17667419Y6589580D01*
X17671838Y6596195D01*
X17673392Y6603999D01*
X17673392Y6959599D01*
X17671840Y6967403D01*
X17667419Y6974019D01*
X17660805Y6978439D01*
X17653000Y6979991D01*
X17631499D01*
X16940945Y6979991D01*
X16939142Y6982342D01*
X16925041Y6993161D01*
X16908621Y6999963D01*
X16891000Y7002282D01*
X16873380Y6999963D01*
X16856960Y6993161D01*
X16842859Y6982342D01*
X16830902Y6987436D01*
X16823441Y6993161D01*
X16807021Y6999963D01*
X16789400Y7002282D01*
X16771779Y6999963D01*
X16755359Y6993161D01*
X16747897Y6987436D01*
D01*
X16741258Y6982342D01*
X16738600Y6983474D01*
X16735941Y6982342D01*
X16721841Y6993161D01*
X16705421Y6999963D01*
X16687801Y7002282D01*
X16670180Y6999963D01*
X16653758Y6993161D01*
X16646298Y6987436D01*
D01*
X16639659Y6982342D01*
X16637000Y6983474D01*
X16627702Y6987436D01*
X16620241Y6993161D01*
X16603821Y6999963D01*
X16586200Y7002282D01*
X16568579Y6999963D01*
X16552159Y6993161D01*
X16544698Y6987436D01*
D01*
X16538058Y6982342D01*
X16535400Y6983474D01*
X16528464Y6986430D01*
X16526102Y6987436D01*
X16518642Y6993161D01*
X16502222Y6999963D01*
X16484599Y7002282D01*
X16466978Y6999963D01*
X16450558Y6993161D01*
X16443098Y6987436D01*
D01*
X16433800Y6983474D01*
D01*
X16431142Y6982342D01*
X16417041Y6993161D01*
X16400621Y6999963D01*
X16383000Y7002282D01*
X16365379Y6999963D01*
X16348959Y6993161D01*
X16341498Y6987436D01*
D01*
X16334859Y6982342D01*
X16322902Y6987436D01*
X16315440Y6993161D01*
X16299020Y6999963D01*
X16281400Y7002282D01*
X16263779Y6999963D01*
X16247359Y6993161D01*
X16233260Y6982342D01*
X16227940D01*
X16213841Y6993161D01*
X16197421Y6999963D01*
X16179800Y7002282D01*
X16162180Y6999963D01*
X16145760Y6993161D01*
X16138298Y6987436D01*
X16126341Y6982342D01*
X16112241Y6993161D01*
X16095821Y6999963D01*
X16078200Y7002282D01*
X16060579Y6999963D01*
X16044159Y6993161D01*
X16030058Y6982342D01*
X16024741D01*
X16010641Y6993161D01*
X15994221Y6999963D01*
X15976601Y7002282D01*
X15958978Y6999963D01*
X15942558Y6993161D01*
X15928459Y6982342D01*
X15923141D01*
X15909041Y6993161D01*
X15892621Y6999963D01*
X15875000Y7002282D01*
X15857379Y6999963D01*
X15840959Y6993161D01*
X15826859Y6982342D01*
X15821541D01*
X15807442Y6993161D01*
X15791022Y6999963D01*
X15773399Y7002282D01*
X15755779Y6999963D01*
X15739359Y6993161D01*
X15725259Y6982342D01*
X15719942D01*
X15705841Y6993161D01*
X15689421Y6999963D01*
X15671800Y7002282D01*
X15654179Y6999963D01*
X15637759Y6993161D01*
X15630296Y6987436D01*
D01*
X15618341Y6982342D01*
X15604240Y6993161D01*
X15587820Y6999963D01*
X15570200Y7002282D01*
X15552579Y6999963D01*
X15536159Y6993161D01*
X15522060Y6982342D01*
X15516740D01*
X15502641Y6993161D01*
X15486221Y6999963D01*
X15468600Y7002282D01*
X15450980Y6999963D01*
X15434560Y6993161D01*
X15420459Y6982342D01*
X15415141D01*
X15401041Y6993161D01*
X15384621Y6999963D01*
X15367000Y7002282D01*
X15349379Y6999963D01*
X15332959Y6993161D01*
X15325497Y6987436D01*
X15318858Y6982342D01*
X15313541D01*
X15299442Y6993161D01*
X15283022Y6999963D01*
X15265401Y7002282D01*
X15247778Y6999963D01*
X15231358Y6993161D01*
X15217259Y6982342D01*
X15211942D01*
X15197841Y6993161D01*
X15181421Y6999963D01*
X15163800Y7002282D01*
X15146179Y6999963D01*
X15129759Y6993161D01*
X15115659Y6982342D01*
X15110341D01*
X15096242Y6993161D01*
X15079820Y6999963D01*
X15062199Y7002282D01*
X15044579Y6999963D01*
X15028159Y6993161D01*
X15014059Y6982342D01*
X15008742D01*
X14994641Y6993161D01*
X14978221Y6999963D01*
X14960600Y7002282D01*
X14942979Y6999963D01*
X14926559Y6993161D01*
X14912459Y6982342D01*
X14907141D01*
X14893040Y6993161D01*
X14879391Y6998815D01*
Y8438252D01*
X14879391Y8438253D01*
X14877840Y8446057D01*
X14873419Y8452673D01*
X14873419Y8452673D01*
X14872620Y8453472D01*
X14866003Y8457892D01*
X14858202Y8459445D01*
D02*
G37*
G36*
X20878798Y8630993D02*
X19024599Y8630993D01*
X19016795Y8629440D01*
X19010181Y8625020D01*
X19005760Y8618404D01*
X19004207Y8610601D01*
X19004208Y7696201D01*
X19005762Y7688397D01*
X19010181Y7681781D01*
X19016797Y7677361D01*
X19024600Y7675809D01*
X19251236Y7675809D01*
X19259039Y7677361D01*
X19265656Y7681781D01*
X19270076Y7688397D01*
X19271628Y7696201D01*
Y8029944D01*
X19270076Y8037748D01*
X19265656Y8044364D01*
X19250703Y8059316D01*
X19249585Y8060063D01*
X19248698Y8061075D01*
X19246304Y8062254D01*
X19244089Y8063736D01*
X19242767Y8063998D01*
X19241562Y8064593D01*
X19238901Y8064768D01*
X19236284Y8065288D01*
X19234966Y8065026D01*
X19233623Y8065114D01*
X19227798Y8064347D01*
X19211327Y8066516D01*
X19195973Y8072875D01*
X19182790Y8082990D01*
X19172675Y8096173D01*
X19166316Y8111526D01*
X19164146Y8128000D01*
X19166316Y8144474D01*
X19172675Y8159826D01*
X19182790Y8173009D01*
X19195973Y8183124D01*
X19211327Y8189484D01*
X19227800Y8191652D01*
X19244273Y8189484D01*
X19259625Y8183125D01*
X19272809Y8173009D01*
X19282924Y8159826D01*
X19289284Y8144474D01*
X19291454Y8128000D01*
X19290686Y8122178D01*
X19290775Y8120836D01*
X19290511Y8119516D01*
X19291032Y8116898D01*
X19291206Y8114238D01*
X19291801Y8113032D01*
X19292064Y8111713D01*
X19293546Y8109495D01*
X19294725Y8107102D01*
X19295737Y8106215D01*
X19296484Y8105097D01*
X19325471Y8076110D01*
X19333539Y8064036D01*
X19336372Y8049792D01*
Y7696200D01*
X19337924Y7688397D01*
X19342345Y7681781D01*
X19348959Y7677361D01*
X19356764Y7675808D01*
X19436008D01*
X19436008Y6654801D01*
X19437560Y6646997D01*
X19441980Y6640381D01*
X19448596Y6635961D01*
X19456400Y6634409D01*
X19532599Y6634408D01*
X19534314Y6634749D01*
X19536064Y6634705D01*
X19538181Y6635519D01*
X19540404Y6635961D01*
X19541858Y6636932D01*
X19543491Y6637560D01*
X19545134Y6639121D01*
X19547018Y6640381D01*
X19547990Y6641836D01*
X19549258Y6643041D01*
X19640871Y6772822D01*
X19642841Y6773639D01*
X19656943Y6784458D01*
X19667761Y6798559D01*
X19674564Y6814979D01*
X19675465Y6821832D01*
X19710736Y6871799D01*
X19719041Y6875239D01*
X19733142Y6886058D01*
X19743961Y6900159D01*
X19750763Y6916579D01*
X19752692Y6931237D01*
X19780602Y6970775D01*
X19795241Y6976839D01*
X19809341Y6987658D01*
X19820161Y7001759D01*
X19826962Y7018179D01*
X19829282Y7035800D01*
X19828845Y7039120D01*
X19847966Y7066208D01*
X19964400Y7066208D01*
X20878799D01*
X20886601Y7067761D01*
X20893217Y7072181D01*
X20897638Y7078797D01*
X20899191Y7086600D01*
X20899190Y8610601D01*
X20897638Y8618405D01*
X20893217Y8625020D01*
X20886601Y8629441D01*
X20878798Y8630993D01*
D02*
G37*
G36*
X2640171Y6626540D02*
X2541431D01*
X2492061Y6577170D01*
Y6478430D01*
X2541431Y6429060D01*
X2640171D01*
X2689541Y6478430D01*
Y6577170D01*
X2640171Y6626540D01*
D02*
G37*
G36*
X11429201Y8453192D02*
X10947400D01*
X10939596Y8451640D01*
X10932981Y8447219D01*
X10928560Y8440604D01*
X10927008Y8432800D01*
Y6959601D01*
X10927008Y6604000D01*
X10928560Y6596197D01*
X10932980Y6589581D01*
X10939596Y6585161D01*
X10947400Y6583608D01*
X14224001Y6583608D01*
X14231802Y6585160D01*
X14238419Y6589580D01*
X14242839Y6596196D01*
X14244392Y6603999D01*
X14244392Y6959600D01*
X14242841Y6967403D01*
X14238419Y6974019D01*
X14231804Y6978439D01*
X14224001Y6979992D01*
X13537344Y6979992D01*
X13535542Y6982342D01*
X13521442Y6993161D01*
X13505022Y6999963D01*
X13487399Y7002282D01*
X13469778Y6999963D01*
X13453358Y6993161D01*
X13439259Y6982342D01*
X13433942D01*
X13419841Y6993161D01*
X13403421Y6999963D01*
X13385800Y7002282D01*
X13368179Y6999963D01*
X13351759Y6993161D01*
X13337659Y6982342D01*
X13325703Y6987436D01*
X13318240Y6993161D01*
X13301820Y6999963D01*
X13284200Y7002282D01*
X13266579Y6999963D01*
X13250159Y6993161D01*
X13236060Y6982342D01*
X13230740D01*
X13216641Y6993161D01*
X13200221Y6999963D01*
X13182600Y7002282D01*
X13164980Y6999963D01*
X13148560Y6993161D01*
X13141096Y6987436D01*
X13129141Y6982342D01*
X13115041Y6993161D01*
X13098621Y6999963D01*
X13081000Y7002282D01*
X13063379Y6999963D01*
X13046959Y6993161D01*
X13032858Y6982342D01*
X13027541D01*
X13013441Y6993161D01*
X12997021Y6999963D01*
X12979401Y7002282D01*
X12961778Y6999963D01*
X12945358Y6993161D01*
X12931259Y6982342D01*
X12925941D01*
X12911841Y6993161D01*
X12895421Y6999963D01*
X12877800Y7002282D01*
X12860179Y6999963D01*
X12843759Y6993161D01*
X12836298Y6987436D01*
X12824341Y6982342D01*
X12810242Y6993161D01*
X12793821Y6999963D01*
X12776200Y7002282D01*
X12758579Y6999963D01*
X12742159Y6993161D01*
X12734697Y6987436D01*
X12722741Y6982342D01*
X12708641Y6993161D01*
X12692221Y6999963D01*
X12674600Y7002282D01*
X12656979Y6999963D01*
X12640559Y6993161D01*
X12633097Y6987436D01*
X12623800Y6983474D01*
X12614503Y6987436D01*
X12607041Y6993161D01*
X12590621Y6999963D01*
X12573000Y7002282D01*
X12555379Y6999963D01*
X12538959Y6993161D01*
X12531497Y6987436D01*
X12522200Y6983474D01*
X12512903Y6987436D01*
X12505441Y6993161D01*
X12489021Y6999963D01*
X12471400Y7002282D01*
X12453779Y6999963D01*
X12437359Y6993161D01*
X12423259Y6982342D01*
X12411303Y6987436D01*
X12403841Y6993161D01*
X12387421Y6999963D01*
X12369800Y7002282D01*
X12352179Y6999963D01*
X12335759Y6993161D01*
X12328297Y6987436D01*
X12319000Y6983474D01*
X12309703Y6987436D01*
X12302241Y6993161D01*
X12285821Y6999963D01*
X12268200Y7002282D01*
X12250579Y6999963D01*
X12234159Y6993161D01*
X12226697Y6987436D01*
X12217400Y6983474D01*
X12208103Y6987436D01*
X12200641Y6993161D01*
X12184221Y6999963D01*
X12166600Y7002282D01*
X12148979Y6999963D01*
X12132559Y6993161D01*
X12118459Y6982342D01*
X12106503Y6987436D01*
X12099041Y6993161D01*
X12082621Y6999963D01*
X12065000Y7002282D01*
X12047379Y6999963D01*
X12030959Y6993161D01*
X12023497Y6987436D01*
X12014200Y6983474D01*
X12004903Y6987436D01*
X11997441Y6993161D01*
X11981021Y6999963D01*
X11963400Y7002282D01*
X11945779Y6999963D01*
X11929359Y6993161D01*
X11921897Y6987436D01*
X11912600Y6983474D01*
X11903303Y6987436D01*
X11895841Y6993161D01*
X11879421Y6999963D01*
X11861800Y7002282D01*
X11844179Y6999963D01*
X11827759Y6993161D01*
X11820297Y6987436D01*
X11811000Y6983474D01*
X11801703Y6987436D01*
X11794241Y6993161D01*
X11777821Y6999963D01*
X11760200Y7002282D01*
X11742579Y6999963D01*
X11726159Y6993161D01*
X11718697Y6987436D01*
X11709400Y6983474D01*
X11700103Y6987436D01*
X11692641Y6993161D01*
X11676221Y6999963D01*
X11658600Y7002282D01*
X11640979Y6999963D01*
X11624559Y6993161D01*
X11610459Y6982342D01*
X11598503Y6987436D01*
X11591041Y6993161D01*
X11574621Y6999963D01*
X11557000Y7002282D01*
X11539379Y6999963D01*
X11522959Y6993161D01*
X11515497Y6987436D01*
X11506200Y6983474D01*
X11496903Y6987436D01*
X11489441Y6993161D01*
X11473021Y6999963D01*
X11455400Y7002282D01*
X11450392Y7006675D01*
Y8431999D01*
X11450392Y8432001D01*
X11448840Y8439804D01*
X11444419Y8446420D01*
X11444419Y8446420D01*
X11443620Y8447219D01*
X11437004Y8451640D01*
X11429201Y8453192D01*
D02*
G37*
G36*
X3055000Y6653221D02*
X3033202Y6650351D01*
X3012890Y6641937D01*
X2995447Y6628553D01*
X2982063Y6611110D01*
X2973649Y6590798D01*
X2970779Y6569000D01*
X2973649Y6547202D01*
X2982063Y6526890D01*
X2995447Y6509447D01*
X3012890Y6496063D01*
X3033202Y6487649D01*
X3055000Y6484780D01*
X3076798Y6487649D01*
X3097110Y6496063D01*
X3114553Y6509447D01*
X3127937Y6526890D01*
X3136351Y6547202D01*
X3139221Y6569000D01*
X3136351Y6590798D01*
X3127937Y6611110D01*
X3114553Y6628553D01*
X3097110Y6641937D01*
X3076798Y6650351D01*
X3055000Y6653221D01*
D02*
G37*
G36*
X4181000Y6650221D02*
X4159202Y6647351D01*
X4138890Y6638937D01*
X4121447Y6625553D01*
X4120556Y6624392D01*
X4038600D01*
X4030796Y6622840D01*
X4024181Y6618419D01*
X4016940Y6611179D01*
X4012520Y6604563D01*
X4010968Y6596760D01*
Y6096000D01*
Y5936800D01*
X4012520Y5928996D01*
X4016940Y5922381D01*
X4023556Y5917960D01*
X4031360Y5916408D01*
X4281360Y5916408D01*
X5334000D01*
X5341803Y5917960D01*
X5348419Y5922380D01*
X5352839Y5928996D01*
X5354392Y5936800D01*
Y6096000D01*
D01*
X5354392Y6467876D01*
X5355937Y6469890D01*
X5364351Y6490202D01*
X5367221Y6512000D01*
X5364351Y6533798D01*
X5355937Y6554110D01*
X5354392Y6556124D01*
Y6604000D01*
X5352840Y6611804D01*
X5348419Y6618419D01*
X5341804Y6622840D01*
X5334000Y6624392D01*
X4414676D01*
X4414553Y6624553D01*
X4397110Y6637937D01*
X4376798Y6646351D01*
X4355000Y6649221D01*
X4333202Y6646351D01*
X4312890Y6637937D01*
X4295447Y6624553D01*
X4295324Y6624392D01*
X4241444D01*
X4240553Y6625553D01*
X4223110Y6638937D01*
X4202798Y6647351D01*
X4181000Y6650221D01*
D02*
G37*
G36*
X2492400Y3809263D02*
X2466295Y3805826D01*
X2441969Y3795750D01*
X2421079Y3779721D01*
X2405050Y3758831D01*
X2394974Y3734505D01*
X2391537Y3708400D01*
X2394974Y3682295D01*
X2405050Y3657969D01*
X2421079Y3637079D01*
X2441969Y3621050D01*
X2466295Y3610974D01*
X2492400Y3607537D01*
X2518505Y3610974D01*
X2542831Y3621050D01*
X2563721Y3637079D01*
X2579749Y3657969D01*
X2589826Y3682295D01*
X2593263Y3708400D01*
X2589826Y3734505D01*
X2579749Y3758831D01*
X2563721Y3779721D01*
X2542831Y3795750D01*
X2518505Y3805826D01*
X2492400Y3809263D01*
D02*
G37*
G36*
Y4063263D02*
X2466295Y4059826D01*
X2441969Y4049750D01*
X2421079Y4033721D01*
X2405050Y4012831D01*
X2394974Y3988505D01*
X2391537Y3962400D01*
X2394974Y3936295D01*
X2405050Y3911969D01*
X2421079Y3891079D01*
X2441969Y3875050D01*
X2466295Y3864974D01*
X2492400Y3861537D01*
X2518505Y3864974D01*
X2542831Y3875050D01*
X2563721Y3891079D01*
X2579749Y3911969D01*
X2589826Y3936295D01*
X2593263Y3962400D01*
X2589826Y3988505D01*
X2579749Y4012831D01*
X2563721Y4033721D01*
X2542831Y4049750D01*
X2518505Y4059826D01*
X2492400Y4063263D01*
D02*
G37*
G36*
Y2539263D02*
X2466295Y2535826D01*
X2441969Y2525750D01*
X2421079Y2509721D01*
X2405050Y2488831D01*
X2394974Y2464505D01*
X2391537Y2438400D01*
X2394974Y2412295D01*
X2405050Y2387969D01*
X2421079Y2367079D01*
X2441969Y2351050D01*
X2466295Y2340974D01*
X2492400Y2337537D01*
X2518505Y2340974D01*
X2542831Y2351050D01*
X2563721Y2367079D01*
X2579749Y2387969D01*
X2585857Y2402714D01*
X2943400D01*
Y2373400D01*
X3053400D01*
Y2503400D01*
X2943400D01*
Y2474085D01*
X2585857D01*
X2579749Y2488831D01*
X2563721Y2509721D01*
X2542831Y2525750D01*
X2518505Y2535826D01*
X2492400Y2539263D01*
D02*
G37*
G36*
Y3174263D02*
X2466295Y3170826D01*
X2441969Y3160750D01*
X2421079Y3144721D01*
X2405050Y3123831D01*
X2394974Y3099505D01*
X2391537Y3073400D01*
X2394974Y3047295D01*
X2405050Y3022969D01*
X2421079Y3002079D01*
X2441969Y2986050D01*
X2466295Y2975974D01*
X2492400Y2972537D01*
X2518505Y2975974D01*
X2542831Y2986050D01*
X2563721Y3002079D01*
X2579749Y3022969D01*
X2589826Y3047295D01*
X2593263Y3073400D01*
X2589826Y3099505D01*
X2579749Y3123831D01*
X2563721Y3144721D01*
X2542831Y3160750D01*
X2518505Y3170826D01*
X2492400Y3174263D01*
D02*
G37*
G36*
Y4444263D02*
X2466295Y4440826D01*
X2441969Y4430750D01*
X2421079Y4414721D01*
X2405050Y4393831D01*
X2394974Y4369505D01*
X2391537Y4343400D01*
X2394974Y4317295D01*
X2405050Y4292969D01*
X2421079Y4272079D01*
X2441969Y4256050D01*
X2466295Y4245974D01*
X2492400Y4242537D01*
X2518505Y4245974D01*
X2542831Y4256050D01*
X2563721Y4272079D01*
X2579749Y4292969D01*
X2589826Y4317295D01*
X2593263Y4343400D01*
X2589826Y4369505D01*
X2579749Y4393831D01*
X2563721Y4414721D01*
X2542831Y4430750D01*
X2518505Y4440826D01*
X2492400Y4444263D01*
D02*
G37*
G36*
X3096300Y5900006D02*
X3068889Y5896397D01*
X3043347Y5885817D01*
X3021413Y5868987D01*
X3004583Y5847053D01*
X2994003Y5821510D01*
X2990394Y5794100D01*
X2994003Y5766690D01*
X3004583Y5741147D01*
X3021413Y5719213D01*
X3043347Y5702383D01*
X3068889Y5691803D01*
X3096300Y5688194D01*
X3123710Y5691803D01*
X3149253Y5702383D01*
X3171187Y5719213D01*
X3188017Y5741147D01*
X3198597Y5766690D01*
X3202206Y5794100D01*
X3198597Y5821510D01*
X3188017Y5847053D01*
X3171187Y5868987D01*
X3149253Y5885817D01*
X3123710Y5896397D01*
X3096300Y5900006D01*
D02*
G37*
G36*
X2492400Y4698263D02*
X2466295Y4694826D01*
X2441969Y4684750D01*
X2421079Y4668721D01*
X2405050Y4647831D01*
X2394974Y4623505D01*
X2391537Y4597400D01*
X2394974Y4571295D01*
X2405050Y4546969D01*
X2421079Y4526079D01*
X2441969Y4510050D01*
X2466295Y4499974D01*
X2492400Y4496537D01*
X2518505Y4499974D01*
X2542831Y4510050D01*
X2563721Y4526079D01*
X2579749Y4546969D01*
X2589826Y4571295D01*
X2593263Y4597400D01*
X2589826Y4623505D01*
X2579749Y4647831D01*
X2563721Y4668721D01*
X2542831Y4684750D01*
X2518505Y4694826D01*
X2492400Y4698263D01*
D02*
G37*
G36*
X3096300Y5199006D02*
X3068889Y5195397D01*
X3043347Y5184817D01*
X3021413Y5167987D01*
X3004583Y5146053D01*
X2994003Y5120510D01*
X2990394Y5093100D01*
X2994003Y5065690D01*
X3004583Y5040147D01*
X3021413Y5018213D01*
X3043347Y5001383D01*
X3068889Y4990803D01*
X3096300Y4987194D01*
X3123710Y4990803D01*
X3149253Y5001383D01*
X3171187Y5018213D01*
X3188017Y5040147D01*
X3198597Y5065690D01*
X3202206Y5093100D01*
X3198597Y5120510D01*
X3188017Y5146053D01*
X3171187Y5167987D01*
X3149253Y5184817D01*
X3123710Y5195397D01*
X3096300Y5199006D01*
D02*
G37*
G36*
X15688220Y8122992D02*
X14935201Y8122991D01*
X14927396Y8121439D01*
X14920779Y8117019D01*
X14916360Y8110403D01*
X14914809Y8102599D01*
X14914809Y7807001D01*
X14916360Y7799197D01*
X14920781Y7792582D01*
X14927397Y7788161D01*
X14935201Y7786609D01*
X14984674D01*
X14993779Y7782837D01*
X15011400Y7780518D01*
X15029021Y7782837D01*
X15038126Y7786609D01*
X15691695Y7786609D01*
X15699498Y7788161D01*
X15705002Y7790441D01*
X15707492Y7792105D01*
X15711617Y7794861D01*
X15716037Y7801477D01*
X15717589Y7809281D01*
X15717592Y8093618D01*
X15717592Y8093620D01*
X15716040Y8101423D01*
X15711620Y8108039D01*
X15702638Y8117019D01*
X15696024Y8121440D01*
X15688220Y8122992D01*
D02*
G37*
G36*
X11624900Y9414538D02*
X11602230Y9410029D01*
X11583012Y9397188D01*
X11570171Y9377970D01*
X11565662Y9355300D01*
X11570171Y9332631D01*
X11583012Y9313413D01*
X11602230Y9300571D01*
X11624900Y9296062D01*
X11647569Y9300571D01*
X11666787Y9313413D01*
X11679629Y9332631D01*
X11684138Y9355300D01*
X11679629Y9377970D01*
X11666787Y9397188D01*
X11647569Y9410029D01*
X11624900Y9414538D01*
D02*
G37*
G36*
X2492400Y9194063D02*
X2466295Y9190626D01*
X2441969Y9180550D01*
X2421079Y9164521D01*
X2405050Y9143631D01*
X2394974Y9119305D01*
X2391537Y9093200D01*
X2394974Y9067095D01*
X2405050Y9042769D01*
X2421079Y9021879D01*
X2441969Y9005850D01*
X2466295Y8995774D01*
X2492400Y8992337D01*
X2518505Y8995774D01*
X2542831Y9005850D01*
X2563721Y9021879D01*
X2579749Y9042769D01*
X2589826Y9067095D01*
X2593263Y9093200D01*
X2589826Y9119305D01*
X2579749Y9143631D01*
X2563721Y9164521D01*
X2542831Y9180550D01*
X2518505Y9190626D01*
X2492400Y9194063D01*
D02*
G37*
G36*
X9611360Y9566458D02*
X9588690Y9561949D01*
X9569472Y9549108D01*
X9556631Y9529890D01*
X9552122Y9507220D01*
X9556631Y9484551D01*
X9569472Y9465332D01*
X9588690Y9452491D01*
X9611360Y9447982D01*
X9634029Y9452491D01*
X9653248Y9465332D01*
X9666089Y9484551D01*
X9670598Y9507220D01*
X9666089Y9529890D01*
X9653248Y9549108D01*
X9634029Y9561949D01*
X9611360Y9566458D01*
D02*
G37*
G36*
X15016499Y9417339D02*
X14993829Y9412829D01*
X14974612Y9399988D01*
X14961771Y9380770D01*
X14957262Y9358100D01*
X14961771Y9335431D01*
X14974612Y9316213D01*
X14993829Y9303372D01*
X15016499Y9298862D01*
X15039169Y9303372D01*
X15058388Y9316213D01*
X15071228Y9335431D01*
X15075739Y9358100D01*
X15071228Y9380770D01*
X15058388Y9399988D01*
X15039169Y9412829D01*
X15016499Y9417339D01*
D02*
G37*
G36*
X12310020Y8122992D02*
X11557000Y8122991D01*
X11549196Y8121439D01*
X11542580Y8117019D01*
X11538160Y8110403D01*
X11536608Y8102599D01*
X11536608Y7807001D01*
X11538161Y7799197D01*
X11542581Y7792582D01*
X11549197Y7788161D01*
X11557000Y7786609D01*
X11581074D01*
X11590179Y7782837D01*
X11607800Y7780518D01*
X11625421Y7782837D01*
X11634526Y7786609D01*
X12313494Y7786609D01*
X12321298Y7788161D01*
X12326802Y7790441D01*
X12329292Y7792105D01*
X12333417Y7794861D01*
X12337837Y7801477D01*
X12339389Y7809281D01*
X12339392Y8093618D01*
X12339392Y8093620D01*
X12337840Y8101423D01*
X12333420Y8108039D01*
X12324439Y8117019D01*
X12317823Y8121440D01*
X12310020Y8122992D01*
D02*
G37*
G36*
X2492400Y8279663D02*
X2466295Y8276226D01*
X2441969Y8266150D01*
X2421079Y8250121D01*
X2405050Y8229231D01*
X2394974Y8204905D01*
X2391537Y8178800D01*
X2394974Y8152695D01*
X2405050Y8128369D01*
X2421079Y8107479D01*
X2441969Y8091450D01*
X2466295Y8081374D01*
X2492400Y8077937D01*
X2518505Y8081374D01*
X2542831Y8091450D01*
X2563721Y8107479D01*
X2579749Y8128369D01*
X2589826Y8152695D01*
X2593263Y8178800D01*
X2589826Y8204905D01*
X2579749Y8229231D01*
X2563721Y8250121D01*
X2542831Y8266150D01*
X2518505Y8276226D01*
X2492400Y8279663D01*
D02*
G37*
G36*
X13321300Y9155782D02*
X13303677Y9153462D01*
X13287257Y9146661D01*
X13273157Y9135841D01*
X13262338Y9121741D01*
X13255536Y9105321D01*
X13253217Y9087700D01*
X13255536Y9070079D01*
X13262338Y9053658D01*
X13273157Y9039558D01*
X13287257Y9028739D01*
X13287958Y9028448D01*
Y8659437D01*
X13278278Y8658162D01*
X13261858Y8651361D01*
X13247757Y8640541D01*
X13236938Y8626441D01*
X13230136Y8610021D01*
X13227817Y8592400D01*
X13230136Y8574779D01*
X13236938Y8558358D01*
X13247757Y8544258D01*
X13261858Y8533439D01*
X13278278Y8526637D01*
X13295898Y8524317D01*
X13313519Y8526637D01*
X13329939Y8533439D01*
X13344041Y8544258D01*
X13354860Y8558358D01*
X13361662Y8574779D01*
X13363982Y8592400D01*
X13361662Y8610021D01*
X13354860Y8626441D01*
X13354640Y8626728D01*
Y9028448D01*
X13355341Y9028739D01*
X13369441Y9039558D01*
X13380260Y9053658D01*
X13387062Y9070079D01*
X13389381Y9087700D01*
X13387062Y9105321D01*
X13380260Y9121741D01*
X13369441Y9135841D01*
X13355341Y9146661D01*
X13338921Y9153462D01*
X13321300Y9155782D01*
D02*
G37*
G36*
X16712898Y9158582D02*
X16695277Y9156262D01*
X16678857Y9149461D01*
X16664757Y9138641D01*
X16653938Y9124541D01*
X16647136Y9108121D01*
X16644817Y9090500D01*
X16647136Y9072879D01*
X16653938Y9056458D01*
X16664757Y9042358D01*
X16678857Y9031539D01*
X16679558Y9031249D01*
Y8662237D01*
X16669878Y8660962D01*
X16653458Y8654161D01*
X16639357Y8643341D01*
X16628539Y8629241D01*
X16621736Y8612821D01*
X16619415Y8595200D01*
X16621736Y8577579D01*
X16628539Y8561158D01*
X16639357Y8547058D01*
X16653458Y8536239D01*
X16669878Y8529437D01*
X16687498Y8527117D01*
X16705119Y8529437D01*
X16721539Y8536239D01*
X16735640Y8547058D01*
X16746460Y8561158D01*
X16753261Y8577579D01*
X16755582Y8595200D01*
X16753261Y8612821D01*
X16746460Y8629241D01*
X16746239Y8629528D01*
Y9031249D01*
X16746941Y9031539D01*
X16761040Y9042358D01*
X16771860Y9056458D01*
X16778661Y9072879D01*
X16780981Y9090500D01*
X16778661Y9108121D01*
X16771860Y9124541D01*
X16761040Y9138641D01*
X16746941Y9149461D01*
X16730521Y9156262D01*
X16712898Y9158582D01*
D02*
G37*
G36*
X2492400Y8940063D02*
X2466295Y8936626D01*
X2441969Y8926550D01*
X2421079Y8910521D01*
X2405050Y8889631D01*
X2394974Y8865305D01*
X2391537Y8839200D01*
X2394974Y8813095D01*
X2405050Y8788769D01*
X2421079Y8767879D01*
X2441969Y8751850D01*
X2466295Y8741774D01*
X2492400Y8738337D01*
X2518505Y8741774D01*
X2542831Y8751850D01*
X2563721Y8767879D01*
X2579749Y8788769D01*
X2589826Y8813095D01*
X2593263Y8839200D01*
X2589826Y8865305D01*
X2579749Y8889631D01*
X2563721Y8910521D01*
X2542831Y8926550D01*
X2518505Y8936626D01*
X2492400Y8940063D01*
D02*
G37*
G36*
X14071600Y8246882D02*
X14053979Y8244563D01*
X14048981Y8242492D01*
X13992619D01*
X13987621Y8244563D01*
X13970000Y8246882D01*
X13952379Y8244563D01*
X13947380Y8242492D01*
X13654100D01*
X13646297Y8240940D01*
X13639680Y8236519D01*
X13635260Y8229904D01*
X13633708Y8222100D01*
Y7723600D01*
X13635260Y7715796D01*
X13639680Y7709181D01*
X13646297Y7704760D01*
X13654100Y7703208D01*
X14121700D01*
X14129504Y7704760D01*
X14136119Y7709181D01*
X14140540Y7715796D01*
X14142091Y7723600D01*
Y8222100D01*
X14140540Y8229904D01*
X14136119Y8236519D01*
X14129504Y8240940D01*
X14121700Y8242492D01*
X14094220D01*
X14089221Y8244563D01*
X14071600Y8246882D01*
D02*
G37*
G36*
X2492400Y8533663D02*
X2466295Y8530226D01*
X2441969Y8520150D01*
X2421079Y8504121D01*
X2405050Y8483231D01*
X2394974Y8458905D01*
X2391537Y8432800D01*
X2394974Y8406695D01*
X2405050Y8382369D01*
X2421079Y8361479D01*
X2441969Y8345450D01*
X2466295Y8335374D01*
X2492400Y8331937D01*
X2518505Y8335374D01*
X2542831Y8345450D01*
X2563721Y8361479D01*
X2579749Y8382369D01*
X2589826Y8406695D01*
X2593263Y8432800D01*
X2589826Y8458905D01*
X2579749Y8483231D01*
X2563721Y8504121D01*
X2542831Y8520150D01*
X2518505Y8530226D01*
X2492400Y8533663D01*
D02*
G37*
G36*
X3377000Y9051761D02*
X3355202Y9048891D01*
X3334890Y9040477D01*
X3317447Y9027093D01*
X3304063Y9009650D01*
X3295649Y8989338D01*
X3292780Y8967540D01*
X3295649Y8945742D01*
X3304063Y8925430D01*
X3317447Y8907987D01*
X3324236Y8902778D01*
Y8612849D01*
X3316763Y8603110D01*
X3308349Y8582798D01*
X3305480Y8561000D01*
X3308349Y8539202D01*
X3316763Y8518890D01*
X3330147Y8501447D01*
X3347590Y8488063D01*
X3367902Y8479649D01*
X3389700Y8476779D01*
X3411498Y8479649D01*
X3431810Y8488063D01*
X3449253Y8501447D01*
X3462637Y8518890D01*
X3471051Y8539202D01*
X3473921Y8561000D01*
X3471051Y8582798D01*
X3462637Y8603110D01*
X3449253Y8620553D01*
X3431810Y8633937D01*
X3429764Y8634785D01*
Y8902778D01*
X3436553Y8907987D01*
X3449937Y8925430D01*
X3458351Y8945742D01*
X3461221Y8967540D01*
X3458351Y8989338D01*
X3449937Y9009650D01*
X3436553Y9027093D01*
X3419110Y9040477D01*
X3398798Y9048891D01*
X3377000Y9051761D01*
D02*
G37*
G36*
X19898360Y9566458D02*
X19875690Y9561949D01*
X19856471Y9549108D01*
X19843631Y9529890D01*
X19839122Y9507220D01*
X19843631Y9484551D01*
X19856471Y9465332D01*
X19875690Y9452491D01*
X19898360Y9447982D01*
X19921030Y9452491D01*
X19940248Y9465332D01*
X19953088Y9484551D01*
X19957597Y9507220D01*
X19953088Y9529890D01*
X19940248Y9549108D01*
X19921030Y9561949D01*
X19898360Y9566458D01*
D02*
G37*
G36*
X2640171Y7134540D02*
X2541431D01*
X2492061Y7085170D01*
Y6986430D01*
X2541431Y6937060D01*
X2640171D01*
X2689541Y6986430D01*
Y7085170D01*
X2640171Y7134540D01*
D02*
G37*
G36*
X23241000Y10034030D02*
X23215887Y10030724D01*
X23192485Y10021031D01*
X23172391Y10005610D01*
X23156969Y9985515D01*
X23147276Y9962113D01*
X23143970Y9937000D01*
X23147276Y9911887D01*
X23156969Y9888485D01*
X23172391Y9868389D01*
X23192485Y9852969D01*
X23215887Y9843276D01*
X23241000Y9839970D01*
X23266113Y9843276D01*
X23289516Y9852969D01*
X23309610Y9868389D01*
X23325031Y9888485D01*
X23334724Y9911887D01*
X23338029Y9937000D01*
X23334724Y9962113D01*
X23325031Y9985515D01*
X23309610Y10005610D01*
X23289516Y10021031D01*
X23266113Y10030724D01*
X23241000Y10034030D01*
D02*
G37*
G36*
X3471200Y10003621D02*
X3449402Y10000751D01*
X3429089Y9992337D01*
X3411647Y9978953D01*
X3398263Y9961510D01*
X3389849Y9941198D01*
X3386979Y9919400D01*
X3389849Y9897602D01*
X3398263Y9877290D01*
X3411647Y9859847D01*
X3429089Y9846463D01*
X3449402Y9838049D01*
X3471200Y9835179D01*
X3492998Y9838049D01*
X3513310Y9846463D01*
X3530753Y9859847D01*
X3544137Y9877290D01*
X3552551Y9897602D01*
X3555420Y9919400D01*
X3552551Y9941198D01*
X3544137Y9961510D01*
X3530753Y9978953D01*
X3513310Y9992337D01*
X3492998Y10000751D01*
X3471200Y10003621D01*
D02*
G37*
G36*
X6008898Y10624405D02*
X5813898D01*
Y10472821D01*
X4574000D01*
Y10490802D01*
X4316000D01*
Y10472821D01*
X3962400D01*
X3940602Y10469951D01*
X3920290Y10461537D01*
X3902847Y10448153D01*
X3600447Y10145753D01*
X3587063Y10128310D01*
X3578649Y10107998D01*
X3575779Y10086200D01*
Y6096000D01*
Y5960000D01*
X3575806Y5959798D01*
X3574779Y5952000D01*
X3577649Y5930202D01*
X3586063Y5909890D01*
X3599447Y5892447D01*
X3616890Y5879063D01*
X3637202Y5870649D01*
X3659000Y5867779D01*
X3680798Y5870649D01*
X3701110Y5879063D01*
X3718553Y5892447D01*
X3731937Y5909890D01*
X3740351Y5930202D01*
X3743221Y5952000D01*
X3743194Y5952202D01*
X3744221Y5960000D01*
Y6084038D01*
Y10051315D01*
X3997285Y10304379D01*
X4316000D01*
Y10298803D01*
X4574000D01*
Y10304379D01*
X5813898D01*
Y10254405D01*
X6008898D01*
Y10624405D01*
D02*
G37*
G36*
X2557000Y10605174D02*
X2525635Y10602085D01*
X2495474Y10592936D01*
X2467679Y10578079D01*
X2443315Y10558085D01*
X2423321Y10533721D01*
X2408464Y10505926D01*
X2399315Y10475765D01*
X2396226Y10444400D01*
X2399315Y10413035D01*
X2408464Y10382874D01*
X2423321Y10355079D01*
X2443315Y10330715D01*
X2467679Y10310721D01*
X2495474Y10295864D01*
X2525635Y10286715D01*
X2557000Y10283626D01*
X2588365Y10286715D01*
X2618526Y10295864D01*
X2646321Y10310721D01*
X2670685Y10330715D01*
X2690679Y10355079D01*
X2705536Y10382874D01*
X2714685Y10413035D01*
X2717774Y10444400D01*
X2714685Y10475765D01*
X2705536Y10505926D01*
X2690679Y10533721D01*
X2670685Y10558085D01*
X2646321Y10578079D01*
X2618526Y10592936D01*
X2588365Y10602085D01*
X2557000Y10605174D01*
D02*
G37*
G36*
X3451000Y8022764D02*
X3430808Y8018747D01*
X3413690Y8007310D01*
X3402253Y7990192D01*
X3398236Y7970000D01*
X3402253Y7949808D01*
X3413690Y7932690D01*
X3417659Y7930038D01*
Y7651810D01*
X2643280Y6877430D01*
X2640171Y6880540D01*
X2541431D01*
X2492061Y6831170D01*
Y6732430D01*
X2541431Y6683060D01*
X2640171D01*
X2640822Y6683711D01*
X2765314Y6559218D01*
Y6100381D01*
X2748970Y6084038D01*
D01*
X2590966Y5926034D01*
X2583231Y5914456D01*
X2580514Y5900800D01*
Y5449700D01*
X2583231Y5436044D01*
X2590966Y5424466D01*
X2758890Y5256542D01*
X2753576Y5243713D01*
X2750270Y5218600D01*
X2753576Y5193487D01*
X2763270Y5170085D01*
X2778690Y5149989D01*
X2798785Y5134569D01*
X2822187Y5124876D01*
X2847300Y5121570D01*
X2872413Y5124876D01*
X2895815Y5134569D01*
X2915911Y5149989D01*
X2931331Y5170085D01*
X2941024Y5193487D01*
X2944330Y5218600D01*
X2941024Y5243713D01*
X2931331Y5267115D01*
X2915911Y5287210D01*
X2895815Y5302630D01*
X2872413Y5312324D01*
X2847300Y5315630D01*
X2822187Y5312324D01*
X2809358Y5307010D01*
X2651886Y5464482D01*
Y5886018D01*
X2826234Y6060366D01*
X2833969Y6071944D01*
X2836686Y6085600D01*
Y6096000D01*
X2837386D01*
X2836686Y6096738D01*
Y6574000D01*
X2833969Y6587656D01*
X2826234Y6599233D01*
X2689541Y6735926D01*
Y6829390D01*
X3474575Y7614425D01*
X3481803Y7625241D01*
X3484341Y7638000D01*
Y7930038D01*
X3488310Y7932690D01*
X3499747Y7949808D01*
X3503764Y7970000D01*
X3499747Y7990192D01*
X3488310Y8007310D01*
X3471192Y8018747D01*
X3451000Y8022764D01*
D02*
G37*
G36*
X2640171Y7388540D02*
X2541431D01*
X2492061Y7339170D01*
Y7240430D01*
X2541431Y7191060D01*
X2640171D01*
X2689541Y7240430D01*
Y7339170D01*
X2640171Y7388540D01*
D02*
G37*
G36*
X21255000Y7580561D02*
X21238031Y7578327D01*
X21222220Y7571777D01*
X21208643Y7561358D01*
X21198222Y7547780D01*
X21191673Y7531968D01*
X21189439Y7515000D01*
X21191673Y7498031D01*
X21198222Y7482220D01*
X21208643Y7468642D01*
X21222220Y7458223D01*
X21238031Y7451673D01*
X21255000Y7449439D01*
X21271968Y7451673D01*
X21287781Y7458223D01*
X21297539Y7465710D01*
X21418437D01*
X21419858Y7463858D01*
X21433958Y7453039D01*
X21450378Y7446237D01*
X21467999Y7443918D01*
X21485622Y7446237D01*
X21502042Y7453039D01*
X21516142Y7463858D01*
X21526961Y7477959D01*
X21533763Y7494379D01*
X21536082Y7512000D01*
X21533763Y7529621D01*
X21526961Y7546041D01*
X21516142Y7560142D01*
X21502042Y7570961D01*
X21485622Y7577763D01*
X21467999Y7580082D01*
X21450378Y7577763D01*
X21433958Y7570961D01*
X21419858Y7560142D01*
X21418437Y7558289D01*
X21303712D01*
X21301358Y7561358D01*
X21287781Y7571777D01*
X21271968Y7578327D01*
X21255000Y7580561D01*
D02*
G37*
G36*
X16303999Y8398021D02*
X16282202Y8395151D01*
X16261890Y8386737D01*
X16244447Y8373353D01*
X16231062Y8355910D01*
X16222649Y8335598D01*
X16220126Y8316442D01*
X16105486Y8201800D01*
X16104442Y8200758D01*
X16091180Y8180911D01*
X16086523Y8157500D01*
Y7587110D01*
X16083763Y7583510D01*
X16075349Y7563198D01*
X16072479Y7541400D01*
X16075349Y7519602D01*
X16083763Y7499290D01*
X16097147Y7481847D01*
X16114590Y7468463D01*
X16134901Y7460049D01*
X16156700Y7457179D01*
X16178497Y7460049D01*
X16192500Y7465849D01*
X16205200Y7458259D01*
Y7424492D01*
X16194574Y7411792D01*
X16179800D01*
X16171996Y7410240D01*
X16165381Y7405819D01*
X16160960Y7399204D01*
X16159409Y7391400D01*
Y7086600D01*
X16160960Y7078796D01*
X16165381Y7072181D01*
X16171996Y7067760D01*
X16179800Y7066208D01*
X16840199D01*
X16840199Y7066208D01*
X16848004Y7067760D01*
X16854619Y7072181D01*
X16854620Y7072181D01*
X17006119Y7223681D01*
X17010539Y7230296D01*
X17012093Y7238100D01*
Y7711315D01*
X17019765Y7714837D01*
X17024792Y7716005D01*
X17030396Y7712260D01*
X17038200Y7710708D01*
X17447751D01*
X17457579Y7706637D01*
X17475200Y7704318D01*
X17492821Y7706637D01*
X17502649Y7710708D01*
X17505800D01*
X17513605Y7712260D01*
X17520219Y7716681D01*
X17524640Y7723296D01*
X17525352Y7726878D01*
X17526260Y7728063D01*
X17534161Y7738359D01*
X17540964Y7754779D01*
X17543282Y7772400D01*
X17540964Y7790021D01*
X17534161Y7806441D01*
X17526192Y7816827D01*
Y7829573D01*
X17534161Y7839959D01*
X17540964Y7856379D01*
X17543282Y7874000D01*
X17540964Y7891621D01*
X17534161Y7908041D01*
X17526192Y7918427D01*
Y7931173D01*
X17534161Y7941559D01*
X17540964Y7957979D01*
X17543282Y7975600D01*
X17540964Y7993221D01*
X17534161Y8009641D01*
X17526192Y8020027D01*
Y8032773D01*
D01*
X17534161Y8043159D01*
X17540964Y8059579D01*
X17543282Y8077200D01*
X17540964Y8094821D01*
X17534161Y8111241D01*
X17528938Y8118047D01*
X17526192Y8121627D01*
D01*
Y8134373D01*
D01*
X17534161Y8144759D01*
X17540964Y8161179D01*
X17543282Y8178800D01*
X17540964Y8196421D01*
X17534161Y8212841D01*
X17526192Y8223227D01*
D01*
Y8229600D01*
X17524640Y8237404D01*
X17520219Y8244019D01*
X17513605Y8248440D01*
X17505800Y8249992D01*
X17038200D01*
X17030396Y8248440D01*
X17024792Y8244695D01*
X17019765Y8245863D01*
X17012093Y8249386D01*
Y8343900D01*
X17010539Y8351704D01*
X17006119Y8358319D01*
X16999504Y8362740D01*
X16991701Y8364292D01*
X16474200D01*
X16474200Y8364292D01*
X16466396Y8362740D01*
X16459781Y8358319D01*
X16459779Y8358319D01*
X16398872Y8297411D01*
X16386844Y8303343D01*
X16388220Y8313800D01*
X16385352Y8335598D01*
X16376936Y8355910D01*
X16363551Y8373353D01*
X16346111Y8386737D01*
X16325797Y8395151D01*
X16303999Y8398021D01*
D02*
G37*
G36*
X12912399Y8395220D02*
X12890602Y8392351D01*
X12870290Y8383937D01*
X12852847Y8370553D01*
X12839462Y8353110D01*
X12831049Y8332798D01*
X12828526Y8313642D01*
X12712842Y8197957D01*
X12699581Y8178111D01*
X12694925Y8154700D01*
Y7584309D01*
X12692163Y7580710D01*
X12683749Y7560398D01*
X12680879Y7538600D01*
X12683749Y7516802D01*
X12692163Y7496489D01*
X12705547Y7479047D01*
X12722990Y7465663D01*
X12743302Y7457249D01*
X12765100Y7454379D01*
X12786898Y7457249D01*
X12791040Y7458965D01*
X12801601Y7451909D01*
Y7423400D01*
X12791554Y7416992D01*
X12788200D01*
X12780396Y7415440D01*
X12773781Y7411019D01*
X12769360Y7404404D01*
X12767808Y7396600D01*
Y7091800D01*
X12769360Y7083996D01*
X12773781Y7077381D01*
X12780396Y7072960D01*
X12788200Y7071408D01*
X13448599D01*
X13448599Y7071408D01*
X13456404Y7072960D01*
X13463019Y7077381D01*
X13463020Y7077381D01*
X13614519Y7228881D01*
X13618941Y7235496D01*
X13620493Y7243300D01*
Y8349100D01*
X13618941Y8356904D01*
X13614519Y8363519D01*
X13607904Y8367940D01*
X13600101Y8369492D01*
X13082600D01*
X13082600Y8369492D01*
X13074796Y8367940D01*
X13068181Y8363519D01*
X13068179Y8363518D01*
X13008485Y8303824D01*
X12996457Y8309756D01*
X12996620Y8311000D01*
X12993752Y8332798D01*
X12985336Y8353110D01*
X12971953Y8370553D01*
X12954510Y8383937D01*
X12934198Y8392351D01*
X12912399Y8395220D01*
D02*
G37*
G36*
X19405600Y9941686D02*
X5660000D01*
X5646344Y9938969D01*
X5634766Y9931234D01*
X5062318Y9358785D01*
X5058400Y9359564D01*
X5038208Y9355547D01*
X5021090Y9344110D01*
X5009653Y9326992D01*
X5005636Y9306800D01*
X5009653Y9286608D01*
X5021090Y9269490D01*
X5038208Y9258053D01*
X5058400Y9254036D01*
X5078592Y9258053D01*
X5095710Y9269490D01*
X5107148Y9286608D01*
X5111138Y9306671D01*
X5674782Y9870314D01*
X5721543D01*
X5726403Y9858581D01*
X5117766Y9249944D01*
X5110031Y9238367D01*
X5107314Y9224710D01*
Y9152260D01*
X5107090Y9152110D01*
X5095653Y9134992D01*
X5091636Y9114800D01*
X5095653Y9094608D01*
X5107090Y9077490D01*
X5124208Y9066053D01*
X5144400Y9062036D01*
X5164592Y9066053D01*
X5181710Y9077490D01*
X5193148Y9094608D01*
X5197164Y9114800D01*
X5193148Y9134992D01*
X5181710Y9152110D01*
X5178686Y9154131D01*
Y9209929D01*
X5240581Y9271824D01*
X5252314Y9266964D01*
Y8991932D01*
X5248090Y8989110D01*
X5236653Y8971992D01*
X5232636Y8951800D01*
X5236653Y8931608D01*
X5248090Y8914490D01*
X5265208Y8903053D01*
X5285400Y8899036D01*
X5305592Y8903053D01*
X5322710Y8914490D01*
X5334148Y8931608D01*
X5338164Y8951800D01*
X5334148Y8971992D01*
X5323686Y8987649D01*
Y9284219D01*
X5809782Y9770314D01*
X5873343D01*
X5878204Y9758581D01*
X5382766Y9263144D01*
X5375031Y9251567D01*
X5372314Y9237910D01*
Y8775782D01*
X5295654Y8699121D01*
X5288400Y8700564D01*
X5268208Y8696548D01*
X5251090Y8685110D01*
X5239653Y8667992D01*
X5235636Y8647800D01*
X5239653Y8627608D01*
X5251090Y8610490D01*
X5268208Y8599053D01*
X5288400Y8595036D01*
X5308592Y8599053D01*
X5325710Y8610490D01*
X5337148Y8627608D01*
X5340145Y8642678D01*
X5433234Y8735766D01*
X5440969Y8747344D01*
X5443686Y8761000D01*
Y9223129D01*
X5940872Y9720315D01*
X9253818D01*
X9293244Y9680889D01*
X9292550Y9677400D01*
X9296710Y9656486D01*
X9308557Y9638757D01*
X9326286Y9626910D01*
X9347200Y9622750D01*
X9368114Y9626910D01*
X9385843Y9638757D01*
X9397690Y9656486D01*
X9401850Y9677400D01*
X9397690Y9698314D01*
X9385843Y9716043D01*
X9368114Y9727890D01*
X9347200Y9732050D01*
X9343711Y9731356D01*
X9316486Y9758581D01*
X9321346Y9770314D01*
X11415218D01*
X11504866Y9680666D01*
X11516444Y9672931D01*
X11530100Y9670214D01*
X13469800D01*
X13483456Y9672931D01*
X13495033Y9680666D01*
X13496721Y9682354D01*
X15052040D01*
X15065697Y9685071D01*
X15077274Y9692806D01*
X15109511Y9725044D01*
X15113000Y9724350D01*
X15133914Y9728510D01*
X15151643Y9740357D01*
X15163490Y9758086D01*
X15167650Y9779000D01*
X15163490Y9799914D01*
X15151643Y9817643D01*
X15133914Y9829490D01*
X15113000Y9833650D01*
X15092085Y9829490D01*
X15074358Y9817643D01*
X15062511Y9799914D01*
X15058350Y9779000D01*
X15059044Y9775511D01*
X15037257Y9753726D01*
X13481940D01*
X13468283Y9751009D01*
X13456706Y9743274D01*
X13455019Y9741586D01*
X11734770D01*
X11730698Y9753337D01*
X11730876Y9754286D01*
X11748043Y9765757D01*
X11759890Y9783486D01*
X11764050Y9804400D01*
X11759890Y9825314D01*
X11748043Y9843043D01*
X11730314Y9854890D01*
X11716617Y9857614D01*
X11717868Y9870314D01*
X19390817D01*
X19554845Y9706289D01*
X19554150Y9702800D01*
X19558310Y9681886D01*
X19570157Y9664157D01*
X19587886Y9652310D01*
X19608800Y9648150D01*
X19629713Y9652310D01*
X19647443Y9664157D01*
X19659290Y9681886D01*
X19663451Y9702800D01*
X19659290Y9723714D01*
X19647443Y9741443D01*
X19629713Y9753290D01*
X19608800Y9757450D01*
X19605312Y9756756D01*
X19430833Y9931234D01*
X19419257Y9938969D01*
X19405600Y9941686D01*
D02*
G37*
G36*
X2492400Y9829063D02*
X2466295Y9825626D01*
X2441969Y9815550D01*
X2421079Y9799521D01*
X2405050Y9778631D01*
X2394974Y9754305D01*
X2391537Y9728200D01*
X2394974Y9702095D01*
X2405050Y9677769D01*
X2421079Y9656879D01*
X2441969Y9640850D01*
X2466295Y9630774D01*
X2492400Y9627337D01*
X2518505Y9630774D01*
X2542831Y9640850D01*
X2563721Y9656879D01*
X2579749Y9677769D01*
X2589826Y9702095D01*
X2593263Y9728200D01*
X2589826Y9754305D01*
X2579749Y9778631D01*
X2563721Y9799521D01*
X2542831Y9815550D01*
X2518505Y9825626D01*
X2492400Y9829063D01*
D02*
G37*
%LPD*%
G36*
X10605801Y7093001D02*
X9691401D01*
X9564402Y7093001D01*
X9259601Y6661201D01*
X9183401Y6661201D01*
X9183401Y7702601D01*
X9018964Y7702601D01*
Y8063238D01*
X9025753Y8068447D01*
X9039137Y8085890D01*
X9047551Y8106202D01*
X9050421Y8128000D01*
X9047551Y8149798D01*
X9039137Y8170110D01*
X9025753Y8187553D01*
X9008310Y8200937D01*
X8987998Y8209351D01*
X8966200Y8212221D01*
X8944402Y8209351D01*
X8924090Y8200937D01*
X8906647Y8187553D01*
X8893263Y8170110D01*
X8884849Y8149798D01*
X8881979Y8128000D01*
X8884849Y8106202D01*
X8893263Y8085890D01*
X8906647Y8068447D01*
X8913436Y8063238D01*
Y7702601D01*
X8751602Y7702602D01*
X8751601Y8617002D01*
X10605800Y8617002D01*
X10605801Y7093001D01*
D02*
G37*
G36*
X14859000Y8438253D02*
Y6959600D01*
X17653000Y6959599D01*
X17653000Y6603999D01*
X14376401Y6604000D01*
X14376401Y6959600D01*
Y8439053D01*
X14858202D01*
X14859000Y8438253D01*
D02*
G37*
G36*
X20878799Y7086600D02*
X19964400D01*
X19837399Y7086600D01*
X19532599Y6654800D01*
X19456400Y6654801D01*
X19456400Y7696200D01*
X19356764D01*
Y8051800D01*
X19352747Y8071992D01*
X19341310Y8089110D01*
X19310902Y8119516D01*
X19312019Y8128000D01*
X19309151Y8149798D01*
X19300737Y8170110D01*
X19287354Y8187553D01*
X19269910Y8200937D01*
X19249599Y8209351D01*
X19227800Y8212220D01*
X19206001Y8209351D01*
X19185689Y8200937D01*
X19168246Y8187553D01*
X19154863Y8170110D01*
X19146449Y8149798D01*
X19143579Y8128000D01*
X19146449Y8106202D01*
X19154863Y8085889D01*
X19168246Y8068447D01*
X19185689Y8055063D01*
X19206001Y8046649D01*
X19227800Y8043779D01*
X19236284Y8044896D01*
X19251236Y8029944D01*
Y7696201D01*
X19024600Y7696201D01*
X19024599Y8610601D01*
X20878798Y8610601D01*
X20878799Y7086600D01*
D02*
G37*
G36*
X11430000Y8432001D02*
Y6959601D01*
X14224001Y6959600D01*
X14224001Y6603999D01*
X10947400Y6604000D01*
X10947400Y6959601D01*
Y8432800D01*
X11429201D01*
X11430000Y8432001D01*
D02*
G37*
G36*
X5334000Y5936800D02*
X4281360D01*
X4031360Y5936800D01*
Y6596760D01*
X4038600Y6604000D01*
X5334000D01*
X5334000Y5936800D01*
D02*
G37*
G36*
X15697200Y8093620D02*
X15697197Y7809281D01*
X15691695Y7807001D01*
X14935201Y7807001D01*
X14935201Y8102599D01*
X15688220Y8102600D01*
X15697200Y8093620D01*
D02*
G37*
G36*
X12319000D02*
X12318997Y7809281D01*
X12313494Y7807001D01*
X11557000Y7807001D01*
X11557000Y8102599D01*
X12310020Y8102600D01*
X12319000Y8093620D01*
D02*
G37*
G36*
X14121700Y7723600D02*
X13654100D01*
Y8222100D01*
X14121700D01*
Y7723600D01*
D02*
G37*
G36*
X16991701Y7238100D02*
X16840199Y7086600D01*
X16179800D01*
Y7391400D01*
X16306799D01*
X16332201Y7416800D01*
X16383932D01*
Y7468532D01*
X16395700Y7480300D01*
Y7797800D01*
Y8265400D01*
X16474200Y8343900D01*
X16991701D01*
Y7238100D01*
D02*
G37*
G36*
X17505800Y7731100D02*
X17038200D01*
Y8229600D01*
X17505800D01*
Y7731100D01*
D02*
G37*
G36*
X13600101Y7243300D02*
X13448599Y7091800D01*
X12788200D01*
Y7396600D01*
X12915199D01*
X12942000Y7423400D01*
X13002432D01*
Y7483832D01*
X13004100Y7485500D01*
Y7803000D01*
Y8270600D01*
X13082600Y8349100D01*
X13600101D01*
Y7243300D01*
D02*
G37*
D12*
X3148400Y2438400D02*
D03*
X2998400D02*
D03*
D22*
X22860001Y8533200D02*
D03*
Y8383200D02*
D03*
X23037801Y8281600D02*
D03*
Y8431600D02*
D03*
X22834599Y8027600D02*
D03*
Y8177600D02*
D03*
X22656799Y7773600D02*
D03*
Y7923600D02*
D03*
X12554000Y2682000D02*
D03*
Y2832000D02*
D03*
X17707001Y3204000D02*
D03*
Y3354000D02*
D03*
X13868401Y6071800D02*
D03*
Y6221800D02*
D03*
X13761720Y10610779D02*
D03*
Y10760776D02*
D03*
X9230360Y10565059D02*
D03*
Y10715056D02*
D03*
D23*
X23020500Y3623000D02*
D03*
X22545500Y3823000D02*
D03*
Y3623000D02*
D03*
X23020500Y3823000D02*
D03*
X23072501Y2853000D02*
D03*
X22597501Y3053000D02*
D03*
Y2853000D02*
D03*
X23072501Y3053000D02*
D03*
D24*
X8526400Y8305800D02*
D03*
X8796400D02*
D03*
X12532000Y3113000D02*
D03*
X12262000D02*
D03*
X19003000Y3608000D02*
D03*
X18733000D02*
D03*
X8526400Y8001000D02*
D03*
X8796400D02*
D03*
X18813400D02*
D03*
X19083400D02*
D03*
X18813400Y8331200D02*
D03*
X19083400D02*
D03*
D29*
X13074001Y2150000D02*
D03*
Y1880000D02*
D03*
X13385001Y2152000D02*
D03*
Y1882000D02*
D03*
X13685001Y2150000D02*
D03*
Y1880000D02*
D03*
X19153000Y3349000D02*
D03*
Y3079000D02*
D03*
X19836000Y3341000D02*
D03*
Y3071000D02*
D03*
X19506000Y3349000D02*
D03*
Y3079000D02*
D03*
X17094200Y7069200D02*
D03*
Y6799200D02*
D03*
X13995401Y7069200D02*
D03*
Y6799200D02*
D03*
X13690601Y7069200D02*
D03*
Y6799200D02*
D03*
X17399001Y7069200D02*
D03*
Y6799200D02*
D03*
D39*
X13016000Y3050000D02*
D03*
Y2560000D02*
D03*
X18282001Y3060000D02*
D03*
Y3550000D02*
D03*
D41*
X7747000Y6133600D02*
D03*
Y5753600D02*
D03*
D56*
X4731300Y8857905D02*
X4814395Y8941000D01*
X4731300Y7647495D02*
X5916195Y6462600D01*
X4731300Y7647495D02*
Y8857905D01*
X4778000Y7893142D02*
Y8782000D01*
X4776700Y7891842D02*
X4778000Y7893142D01*
X4776700Y7835758D02*
Y7891842D01*
Y7835758D02*
X4778000Y7834458D01*
Y7665000D02*
Y7834458D01*
X4779000Y8782000D02*
X4837400Y8840400D01*
X4778000Y8782000D02*
X4779000D01*
X4814395Y8941000D02*
X4830000D01*
X7982086Y6462600D02*
X8144700Y6299986D01*
X5916195Y6462600D02*
X7982086D01*
X8000891Y6508000D02*
X8190100Y6318792D01*
X5935000Y6508000D02*
X8000891D01*
X4778000Y7665000D02*
X5935000Y6508000D01*
X2598000Y6785000D02*
X3451000Y7638000D01*
Y7970000D01*
X4280000Y9141000D02*
Y9380000D01*
X5057460Y10157460D01*
X5996940D01*
X4509000Y9360000D02*
X5220000Y10071000D01*
X5443000D01*
X5465960Y10093960D01*
X21676401Y6596195D02*
Y7604989D01*
X8515595Y5923600D02*
X21003806D01*
X21676401Y6596195D01*
X21631000Y6615000D02*
Y7635000D01*
X20985001Y5969000D02*
X21631000Y6615000D01*
X8534400Y5969000D02*
X20985001D01*
X22911400Y8915400D02*
X23235400D01*
X21631000Y7635000D02*
X22911400Y8915400D01*
X21676401Y7604989D02*
X22732811Y8661400D01*
X23241000D01*
X5465960Y10093960D02*
X6029960D01*
X6174740Y10238740D01*
X23241000Y8921000D02*
X23749001D01*
X23241000Y8667000D02*
X23749001D01*
X13295898Y8592400D02*
X13321300Y8617800D01*
Y9087700D01*
X16687498Y8595200D02*
X16712898Y8620600D01*
Y9090500D01*
X8144700Y6294495D02*
Y6299986D01*
X8190100Y6313300D02*
Y6318792D01*
Y6313300D02*
X8534400Y5969000D01*
X8144700Y6294495D02*
X8515595Y5923600D01*
X23235400Y8915400D02*
X23241000Y8921000D01*
X6174740Y10596880D02*
X6322060Y10744200D01*
X12702540D01*
X13088620Y10358120D01*
X13114020D01*
X13225780Y10246360D01*
X6174740Y10238740D02*
Y10596880D01*
X5996940Y10157460D02*
X6129340Y10289860D01*
Y10615685D01*
X6311195Y10797540D01*
X20408900D01*
X20662900Y10259060D02*
Y10543540D01*
X20408900Y10797540D02*
X20662900Y10543540D01*
D57*
X5288000Y8641000D02*
X5408000Y8761000D01*
X5062000Y8081400D02*
Y8202000D01*
X5148000Y8037400D02*
Y8378000D01*
X4862400Y7751800D02*
X5148000Y8037400D01*
X4844400Y7863800D02*
X5062000Y8081400D01*
X5836705Y6262501D02*
X7902597D01*
X4408000Y7691206D02*
Y8160000D01*
X5857416Y6312501D02*
X7923307D01*
X4486000Y7683917D02*
Y8163000D01*
X5878126Y6362501D02*
X7944017D01*
X4570000Y7670627D02*
Y8154000D01*
X5898837Y6412501D02*
X7964728D01*
X4663000Y7648337D02*
Y8166000D01*
Y7648337D02*
X5898837Y6412501D01*
X4570000Y7670627D02*
X5878126Y6362501D01*
X4486000Y7683917D02*
X5857416Y6312501D01*
X4408000Y7691206D02*
X5836705Y6262501D01*
X5660000Y9906000D02*
X19405600D01*
X5063000Y9309000D02*
X5660000Y9906000D01*
X5143000Y9115000D02*
Y9224710D01*
X5774290Y9856000D01*
X5288000Y8952000D02*
Y9299000D01*
X5795000Y9806000D01*
X5408000Y8761000D02*
Y9237910D01*
X5926090Y9756000D01*
X2599000Y6776000D02*
X2801000Y6574000D01*
Y6085600D02*
Y6574000D01*
X2616200Y5900800D02*
X2801000Y6085600D01*
X5795000Y9806000D02*
X11430000D01*
X21874100Y6514305D02*
Y7523100D01*
X8433706Y5725900D02*
X21085693D01*
X21824100Y6535016D02*
Y7543810D01*
X8454416Y5775900D02*
X21064984D01*
X21774100Y6555726D02*
Y7564520D01*
X8475127Y5825900D02*
X21044273D01*
X21724100Y6576437D02*
Y7585231D01*
X8495837Y5875900D02*
X21023563D01*
X21085693Y5725900D02*
X21874100Y6514305D01*
X21064984Y5775900D02*
X21824100Y6535016D01*
X21044273Y5825900D02*
X21774100Y6555726D01*
X21023563Y5875900D02*
X21724100Y6576437D01*
X21874100Y7523100D02*
X22148801Y7797800D01*
X21824100Y7543810D02*
X22306689Y8026400D01*
X21774100Y7564520D02*
X22489980Y8280400D01*
X21724100Y7585231D02*
X22663069Y8524200D01*
X23378200D01*
X22489980Y8280400D02*
X23367999D01*
X22306689Y8026400D02*
X23342599D01*
X22148801Y7797800D02*
X22733000D01*
X5774290Y9856000D02*
X11657800D01*
X5926090Y9756000D02*
X9268600D01*
X7289800Y5664200D02*
Y6045200D01*
Y5664200D02*
X7366000Y5588000D01*
X8796000Y3327400D02*
X9767600Y4299001D01*
X2467000Y3327400D02*
X8796000D01*
X10454800Y3121100D02*
X10680300Y2895600D01*
X7521500Y3121100D02*
X10454800D01*
X15606200Y2895600D02*
X16244000Y3533400D01*
X19405600Y9906000D02*
X19608800Y9702800D01*
X9268600Y9756000D02*
X9347200Y9677400D01*
X2616200Y5449700D02*
X2847300Y5218600D01*
X2616200Y5449700D02*
Y5900800D01*
X11657800Y9856000D02*
X11709400Y9804400D01*
X7442200Y3200400D02*
X7521500Y3121100D01*
X10680300Y2895600D02*
X10693400D01*
X13970000D02*
X15606200D01*
X2467000Y2692400D02*
X2797200Y3022600D01*
X10414000D01*
X4038600Y2743200D02*
X10566400D01*
X2467000Y2438400D02*
X2998400D01*
X3148400D02*
X11023600D01*
X10490200Y5511800D02*
X12471400D01*
X7947000Y6212606D02*
Y6218097D01*
X7997000Y6233316D02*
Y6238808D01*
X8047000Y6254027D02*
Y6259518D01*
X8097000Y6274737D02*
Y6280228D01*
X7964728Y6412501D02*
X8097000Y6280228D01*
X7944017Y6362501D02*
X8047000Y6259518D01*
X7923307Y6312501D02*
X7997000Y6238808D01*
X7902597Y6262501D02*
X7947000Y6218097D01*
X13741400Y6070600D02*
X13842999D01*
X8097000Y6274737D02*
X8495837Y5875900D01*
X8047000Y6254027D02*
X8475127Y5825900D01*
X7997000Y6233316D02*
X8454416Y5775900D01*
X7947000Y6212606D02*
X8433706Y5725900D01*
X12471400Y5511800D02*
X12573000Y5410200D01*
X13766800D01*
X23378200Y8524200D02*
X23749001Y8153400D01*
X23367999Y8280400D02*
X23749001Y7899400D01*
X23342599Y8026400D02*
X23723599Y7645400D01*
X23012399Y7518400D02*
X23672800D01*
X23774400Y7416800D01*
X22733000Y7797800D02*
X23012399Y7518400D01*
X15052040Y9718040D02*
X15113000Y9779000D01*
X13481940Y9718040D02*
X15052040D01*
X11530100Y9705900D02*
X13469800D01*
X11430000Y9806000D02*
X11530100Y9705900D01*
X13469800D02*
X13481940Y9718040D01*
D58*
X23231100Y7152900D02*
X23241000Y7162800D01*
X8966200Y7569200D02*
Y8128000D01*
X19227800D02*
X19303999Y8051800D01*
Y7620000D02*
Y8051800D01*
X19227800Y7543800D02*
X19303999Y7620000D01*
X22985800Y8431600D02*
X23037801D01*
X22936200Y8382000D02*
X22985800Y8431600D01*
X22708800Y8177600D02*
X22834599D01*
X22378600Y7923600D02*
X22656799D01*
X22734200Y8383200D02*
X22860001D01*
X22860001Y8382000D02*
X22936200D01*
X3377000Y8550840D02*
Y8967540D01*
D60*
X3660000Y5960000D02*
Y10086200D01*
X3962400Y10388600D01*
X23241000Y9429000D02*
X23749001D01*
X3962400Y10388600D02*
X5911398D01*
X22583659Y10086340D02*
X23241000Y9429000D01*
X6331402Y10439405D02*
X6684467Y10086340D01*
X22583659D01*
D61*
X21287000Y7512000D02*
X21467999D01*
X23018800Y5873801D02*
X23152002Y5740600D01*
X23291368D01*
X23291568Y5740400D01*
X23622000D01*
X23749001Y5613400D01*
X23026401Y6262400D02*
X23029401Y6259400D01*
X23611000D01*
X23749001Y6121400D01*
X22987000Y7823200D02*
X23164799D01*
X23241000Y7899400D01*
X22987000Y7416800D02*
X23215601D01*
X23241000Y7391400D01*
D63*
X22996001Y3841000D02*
X23749001D01*
X23000999Y3587000D02*
X23749001D01*
X23241000Y4603000D02*
Y4857000D01*
X23749001D01*
Y4603000D02*
Y4857000D01*
X23241000Y4095000D02*
Y4349000D01*
Y2317000D02*
X23749001D01*
X23241000Y2063000D02*
X23749001D01*
Y4095000D02*
Y4349000D01*
X23241000D02*
X23749001D01*
D64*
X18267999Y3058000D02*
X18289000Y3037000D01*
X17853000Y3058000D02*
X18267999D01*
X17707001Y3204000D02*
X17853000Y3058000D01*
X17714000Y3354000D02*
X17927000Y3567000D01*
X17707001Y3354000D02*
X17714000D01*
X12639000Y2565000D02*
X13023000D01*
X12554000Y2650000D02*
X12639000Y2565000D01*
X12554000Y2650000D02*
Y2682000D01*
Y2832000D02*
X12786000Y3064000D01*
D66*
X12756100Y7547600D02*
Y8154700D01*
X12912399Y8311000D01*
X16147701Y8157500D02*
X16303999Y8313800D01*
X16147701Y7550400D02*
Y8157500D01*
D67*
X2557000Y1554900D02*
D03*
Y10444400D02*
D03*
D68*
X2847300Y5668600D02*
D03*
Y5218600D02*
D03*
X23241000Y2063000D02*
D03*
Y2317000D02*
D03*
Y2571000D02*
D03*
Y2825000D02*
D03*
Y3079000D02*
D03*
Y3333000D02*
D03*
Y3587000D02*
D03*
Y3841000D02*
D03*
Y4095000D02*
D03*
Y4349000D02*
D03*
Y4603000D02*
D03*
Y4857000D02*
D03*
Y5111000D02*
D03*
Y5365000D02*
D03*
Y5619000D02*
D03*
Y5873000D02*
D03*
Y6127000D02*
D03*
Y6381000D02*
D03*
Y6635000D02*
D03*
Y6889000D02*
D03*
Y7143000D02*
D03*
Y7397000D02*
D03*
Y7651000D02*
D03*
Y7905000D02*
D03*
Y8159000D02*
D03*
Y8413000D02*
D03*
Y8667000D02*
D03*
Y8921000D02*
D03*
Y9175000D02*
D03*
Y9429000D02*
D03*
Y9683000D02*
D03*
Y9937000D02*
D03*
X23749001Y2063000D02*
D03*
Y2317000D02*
D03*
Y2571000D02*
D03*
Y2825000D02*
D03*
Y3079000D02*
D03*
Y3333000D02*
D03*
Y3587000D02*
D03*
Y3841000D02*
D03*
Y4095000D02*
D03*
Y4349000D02*
D03*
Y4603000D02*
D03*
Y4857000D02*
D03*
Y5111000D02*
D03*
Y5365000D02*
D03*
Y5619000D02*
D03*
Y5873000D02*
D03*
Y6127000D02*
D03*
Y6381000D02*
D03*
Y6635000D02*
D03*
Y6889000D02*
D03*
Y7143000D02*
D03*
Y7397000D02*
D03*
Y7651000D02*
D03*
Y7905000D02*
D03*
Y8159000D02*
D03*
Y8413000D02*
D03*
Y8667000D02*
D03*
Y8921000D02*
D03*
Y9175000D02*
D03*
Y9429000D02*
D03*
Y9683000D02*
D03*
Y9937000D02*
D03*
D69*
X3096300Y5093100D02*
D03*
Y5794100D02*
D03*
D70*
X2492400Y9728200D02*
D03*
Y9474200D02*
D03*
Y8178800D02*
D03*
Y8432800D02*
D03*
Y8839200D02*
D03*
Y9093200D02*
D03*
Y4343400D02*
D03*
Y4597400D02*
D03*
Y3708400D02*
D03*
Y3962400D02*
D03*
Y3073400D02*
D03*
Y3327400D02*
D03*
Y2438400D02*
D03*
Y2692400D02*
D03*
D71*
X2590801Y6273800D02*
D03*
X2336801D02*
D03*
X2590801Y6527800D02*
D03*
X2336801D02*
D03*
X2590801Y6781800D02*
D03*
X2336801D02*
D03*
Y7035800D02*
D03*
X2590801D02*
D03*
Y7289800D02*
D03*
X2336801D02*
D03*
D72*
X24003000Y1555000D02*
D03*
Y10445000D02*
D03*
D73*
X7924800Y9144000D02*
D03*
Y8864600D02*
D03*
D74*
X4357000Y6401000D02*
D03*
X5147000Y6282000D02*
D03*
X4862000Y6143000D02*
D03*
X4511000Y6135000D02*
D03*
X4188000Y6049000D02*
D03*
X4181000Y6566000D02*
D03*
X4623000Y8695000D02*
D03*
X5283000Y6512000D02*
D03*
X3055000Y6569000D02*
D03*
X4355000Y6565000D02*
D03*
X3471200Y9919400D02*
D03*
X3659000Y5952000D02*
D03*
X5026000Y6525000D02*
D03*
X8966200Y8128000D02*
D03*
X19227800Y8128000D02*
D03*
X7289800Y6045200D02*
D03*
X7366000Y5588000D02*
D03*
X8269000Y7753401D02*
D03*
X20142200Y9804400D02*
D03*
X11684000Y8585200D02*
D03*
X12912399Y8311000D02*
D03*
X12765100Y7538600D02*
D03*
X12217400Y4318000D02*
D03*
X12039600D02*
D03*
X11861800D02*
D03*
X11684000D02*
D03*
X11506200D02*
D03*
X11328400D02*
D03*
X11150600D02*
D03*
X11252200Y4165600D02*
D03*
X11430000D02*
D03*
X11607800D02*
D03*
X11785600D02*
D03*
X11963400D02*
D03*
X11176000Y4013200D02*
D03*
X11353800D02*
D03*
X11531600D02*
D03*
X11709400D02*
D03*
X11887200D02*
D03*
X12065000D02*
D03*
X12700000Y4038600D02*
D03*
Y3886200D02*
D03*
Y3733800D02*
D03*
Y3581400D02*
D03*
X13004800Y3530600D02*
D03*
X13309599Y4038600D02*
D03*
X13487399D02*
D03*
X13309599Y3886200D02*
D03*
X13487399D02*
D03*
Y3733800D02*
D03*
X13309599D02*
D03*
X13157201Y3530600D02*
D03*
X13487399Y3581400D02*
D03*
X13309599D02*
D03*
X11404600Y3860800D02*
D03*
X11226800D02*
D03*
X11404600Y3683000D02*
D03*
X11226800D02*
D03*
X11404600Y3505200D02*
D03*
X11226800D02*
D03*
X16701199Y3584200D02*
D03*
Y3736600D02*
D03*
X16878999Y3889000D02*
D03*
X16701199D02*
D03*
X16878999Y4041400D02*
D03*
X16701199D02*
D03*
X16396400Y3533400D02*
D03*
X16244000D02*
D03*
X16091600Y3584200D02*
D03*
Y3736600D02*
D03*
Y3889000D02*
D03*
Y4041400D02*
D03*
X16156700Y7541400D02*
D03*
X16303999Y8313800D02*
D03*
X15075600Y8588000D02*
D03*
X10541000Y9634220D02*
D03*
X18135600Y8356600D02*
D03*
X10134600Y4267200D02*
D03*
X9982200D02*
D03*
X9829800D02*
D03*
Y4419600D02*
D03*
Y4572000D02*
D03*
X9982200Y4419600D02*
D03*
Y4572000D02*
D03*
X10134600D02*
D03*
Y4419600D02*
D03*
X9499600Y4267200D02*
D03*
X9321800D02*
D03*
X9144000D02*
D03*
Y4419600D02*
D03*
X8991600D02*
D03*
X8839200D02*
D03*
X8991600Y4267200D02*
D03*
X9144000Y4775200D02*
D03*
X8991600D02*
D03*
X12852400Y3530600D02*
D03*
X10414000Y3022600D02*
D03*
X7442200Y3200400D02*
D03*
X10693400Y2895600D02*
D03*
X13970000D02*
D03*
X16548801Y3533400D02*
D03*
X10566400Y2743200D02*
D03*
X4038600D02*
D03*
X11150600Y4470400D02*
D03*
Y4622800D02*
D03*
Y4775200D02*
D03*
Y4927600D02*
D03*
Y5080000D02*
D03*
Y5232400D02*
D03*
X10998200Y4318000D02*
D03*
Y4470400D02*
D03*
Y4622800D02*
D03*
Y4775200D02*
D03*
Y4927600D02*
D03*
Y5080000D02*
D03*
Y5232400D02*
D03*
X11099800Y4165600D02*
D03*
X10947400D02*
D03*
X11023600Y4013200D02*
D03*
X11074400Y3860800D02*
D03*
Y3683000D02*
D03*
Y3505200D02*
D03*
X10922000D02*
D03*
Y3683000D02*
D03*
Y3860800D02*
D03*
X11303000Y5232400D02*
D03*
X11455400D02*
D03*
X11303000Y5080000D02*
D03*
X11455400D02*
D03*
Y4927600D02*
D03*
X11303000D02*
D03*
Y4775200D02*
D03*
X11455400D02*
D03*
Y4622800D02*
D03*
X11303000D02*
D03*
Y4470400D02*
D03*
X11455400D02*
D03*
X17678400Y6146800D02*
D03*
X14833600Y4470400D02*
D03*
X14681200D02*
D03*
Y4622800D02*
D03*
X14833600D02*
D03*
Y4775200D02*
D03*
X14681200D02*
D03*
Y4927600D02*
D03*
X14833600D02*
D03*
Y5080000D02*
D03*
X14681200D02*
D03*
X14833600Y5232400D02*
D03*
X14681200D02*
D03*
X14300200Y3860800D02*
D03*
Y3683000D02*
D03*
Y3505200D02*
D03*
X14452600D02*
D03*
Y3683000D02*
D03*
Y3860800D02*
D03*
X14401801Y4013200D02*
D03*
X14325600Y4165600D02*
D03*
X14478000D02*
D03*
X14376401Y5232400D02*
D03*
Y5080000D02*
D03*
Y4927600D02*
D03*
Y4775200D02*
D03*
Y4622800D02*
D03*
Y4470400D02*
D03*
Y4318000D02*
D03*
X14528799Y5232400D02*
D03*
Y5080000D02*
D03*
Y4927600D02*
D03*
Y4775200D02*
D03*
Y4622800D02*
D03*
Y4470400D02*
D03*
X14605000Y3505200D02*
D03*
X14782800D02*
D03*
X14605000Y3683000D02*
D03*
X14782800D02*
D03*
X14605000Y3860800D02*
D03*
X14782800D02*
D03*
X15443201Y4013200D02*
D03*
X15265401D02*
D03*
X15087601D02*
D03*
X14909801D02*
D03*
X14732001D02*
D03*
X14554201D02*
D03*
X15341600Y4165600D02*
D03*
X15163800D02*
D03*
X14986000D02*
D03*
X14808200D02*
D03*
X14630400D02*
D03*
X14528799Y4318000D02*
D03*
X14706599D02*
D03*
X14884399D02*
D03*
X15062199D02*
D03*
X15239999D02*
D03*
X15417799D02*
D03*
X15595599D02*
D03*
X10490200Y5511800D02*
D03*
X10134600Y4876800D02*
D03*
X9982200D02*
D03*
X9829800D02*
D03*
Y4724400D02*
D03*
X9982200D02*
D03*
X10134600D02*
D03*
Y3962400D02*
D03*
Y4114800D02*
D03*
X9982200D02*
D03*
Y3962400D02*
D03*
X9829800Y4114800D02*
D03*
Y3962400D02*
D03*
Y3810000D02*
D03*
X9982200D02*
D03*
X10134600D02*
D03*
X9677400Y3962400D02*
D03*
X9321800Y4114800D02*
D03*
X9499600Y3810000D02*
D03*
X9677400D02*
D03*
X9144000Y3962400D02*
D03*
Y4114800D02*
D03*
X8991600D02*
D03*
Y3962400D02*
D03*
X8839200Y4114800D02*
D03*
Y3962400D02*
D03*
Y3810000D02*
D03*
X8991600D02*
D03*
X9144000D02*
D03*
X9677400Y4114800D02*
D03*
Y4267200D02*
D03*
X9321800Y3962400D02*
D03*
Y3810000D02*
D03*
X9499600Y3962400D02*
D03*
Y4114800D02*
D03*
Y3657600D02*
D03*
Y3505200D02*
D03*
X9321800Y3352800D02*
D03*
Y3505200D02*
D03*
X9677400Y3657600D02*
D03*
X9144000Y3352800D02*
D03*
X8991600D02*
D03*
X8839200D02*
D03*
Y3505200D02*
D03*
Y3657600D02*
D03*
X8991600Y3505200D02*
D03*
Y3657600D02*
D03*
X9144000D02*
D03*
Y3505200D02*
D03*
X9677400Y3352800D02*
D03*
X9499600D02*
D03*
X9321800Y3657600D02*
D03*
X9677400Y3505200D02*
D03*
X10134600Y3352800D02*
D03*
X9982200D02*
D03*
X9829800D02*
D03*
Y3505200D02*
D03*
Y3657600D02*
D03*
X9982200Y3505200D02*
D03*
Y3657600D02*
D03*
X10134600D02*
D03*
Y3505200D02*
D03*
X19812000Y4114800D02*
D03*
Y3962400D02*
D03*
X19634200D02*
D03*
X19989799Y4267200D02*
D03*
Y4114800D02*
D03*
X19151601Y3962400D02*
D03*
Y4114800D02*
D03*
X19303999Y3962400D02*
D03*
Y4114800D02*
D03*
X19456400D02*
D03*
Y3962400D02*
D03*
X19634200Y4114800D02*
D03*
X19989799Y3962400D02*
D03*
X20142200D02*
D03*
Y4114800D02*
D03*
X20294600Y3962400D02*
D03*
Y4114800D02*
D03*
X20447000D02*
D03*
Y3962400D02*
D03*
Y4724400D02*
D03*
X20294600D02*
D03*
X20142200D02*
D03*
Y4876800D02*
D03*
X20294600D02*
D03*
X20447000D02*
D03*
X19303999Y4775200D02*
D03*
X19456400D02*
D03*
X19303999Y4267200D02*
D03*
X19151601Y4419600D02*
D03*
X19303999D02*
D03*
X19456400D02*
D03*
Y4267200D02*
D03*
X19634200D02*
D03*
X19812000D02*
D03*
X20447000Y4419600D02*
D03*
Y4572000D02*
D03*
X20294600D02*
D03*
Y4419600D02*
D03*
X20142200Y4572000D02*
D03*
Y4419600D02*
D03*
Y4267200D02*
D03*
X20294600D02*
D03*
X20447000D02*
D03*
X23018800Y5873801D02*
D03*
X23026401Y6262400D02*
D03*
X22987000Y7416800D02*
D03*
Y7823200D02*
D03*
X22555200Y6654800D02*
D03*
X22708800Y8177600D02*
D03*
X22378600Y7923600D02*
D03*
X22734200Y8383200D02*
D03*
X3389700Y8561000D02*
D03*
X3377000Y8967540D02*
D03*
X13238480Y10233660D02*
D03*
X20667979D02*
D03*
D75*
X3451000Y7970000D02*
D03*
X5288400Y8647800D02*
D03*
X5285400Y8951800D02*
D03*
X5144400Y9114800D02*
D03*
X4505400Y9358800D02*
D03*
X5058400Y9306800D02*
D03*
X5148400Y8379800D02*
D03*
X5061400Y8201800D02*
D03*
X4576000Y8151000D02*
D03*
X4492000Y8161000D02*
D03*
X4406000Y8166000D02*
D03*
X4666400Y8168800D02*
D03*
X4825000Y8955000D02*
D03*
X4843400Y8842800D02*
D03*
D76*
X4274400Y9133800D02*
D03*
X4862400Y7751800D02*
D03*
X4844400Y7863800D02*
D03*
D77*
X21255000Y7515000D02*
D03*
D78*
X21467999Y7512000D02*
D03*
X17071001Y8579000D02*
D03*
X13680000Y8561000D02*
D03*
X9271000Y8153400D02*
D03*
X9017000Y8280400D02*
D03*
X9144000D02*
D03*
X9271000D02*
D03*
X9398000Y8153400D02*
D03*
Y8280400D02*
D03*
X9017000Y8407400D02*
D03*
X9144000D02*
D03*
X9271000D02*
D03*
X9398000D02*
D03*
X8890000Y8534400D02*
D03*
X9017000D02*
D03*
X9144000D02*
D03*
X9271000D02*
D03*
X19177000Y8559800D02*
D03*
X19303999D02*
D03*
Y8432800D02*
D03*
Y8305800D02*
D03*
X19431000D02*
D03*
Y8432800D02*
D03*
Y8559800D02*
D03*
X19558000D02*
D03*
Y8432800D02*
D03*
Y8305800D02*
D03*
Y8178800D02*
D03*
X19685001D02*
D03*
Y8305800D02*
D03*
Y8432800D02*
D03*
X15113000Y7950200D02*
D03*
X15011400Y7848600D02*
D03*
Y7950200D02*
D03*
Y8051800D02*
D03*
X15113000D02*
D03*
X15214600D02*
D03*
X15316200D02*
D03*
X15417799D02*
D03*
X15519400D02*
D03*
X15621001D02*
D03*
X11049000Y6680200D02*
D03*
X11150600D02*
D03*
X11252200D02*
D03*
X11353800D02*
D03*
X11455400D02*
D03*
X11658600D02*
D03*
X11557000D02*
D03*
X12268200D02*
D03*
X12166600D02*
D03*
X12065000D02*
D03*
X11963400D02*
D03*
X11861800D02*
D03*
X11760200D02*
D03*
X12877800D02*
D03*
X12776200D02*
D03*
X12674600D02*
D03*
X12573000D02*
D03*
X12471400D02*
D03*
X12369800D02*
D03*
X13487399D02*
D03*
X13385800D02*
D03*
X13284200D02*
D03*
X13182600D02*
D03*
X13081000D02*
D03*
X12979401D02*
D03*
X11709400Y7950200D02*
D03*
X12217400Y8051800D02*
D03*
X12115800D02*
D03*
X12014200D02*
D03*
X11912600D02*
D03*
X11811000D02*
D03*
X11607800Y7950200D02*
D03*
Y7848600D02*
D03*
X11709400Y8051800D02*
D03*
X11607800D02*
D03*
X13589000Y6680200D02*
D03*
X13690601D02*
D03*
X13792200D02*
D03*
X13893800D02*
D03*
X13995399D02*
D03*
X14097000D02*
D03*
X13690601Y7162800D02*
D03*
X13436600D02*
D03*
X13335001D02*
D03*
X13538200Y7264400D02*
D03*
X13335001D02*
D03*
X13436600D02*
D03*
X13538200Y7366000D02*
D03*
X13436600D02*
D03*
X13335001D02*
D03*
Y7569200D02*
D03*
X13436600D02*
D03*
X13538200D02*
D03*
X13233400D02*
D03*
X13132001Y7572000D02*
D03*
X13131799Y7473800D02*
D03*
X13436600D02*
D03*
X13233400D02*
D03*
X13335001D02*
D03*
X13538200D02*
D03*
Y7670800D02*
D03*
X13868401Y8128000D02*
D03*
X13970000Y7874000D02*
D03*
X14071600Y7772400D02*
D03*
Y7874000D02*
D03*
Y7975600D02*
D03*
X13970000D02*
D03*
X13868401Y7924800D02*
D03*
X14071600Y8077200D02*
D03*
X13970000D02*
D03*
X13868401Y8026400D02*
D03*
X14071600Y8178800D02*
D03*
X13970000D02*
D03*
X13792200Y7162800D02*
D03*
X13893800D02*
D03*
X13995399D02*
D03*
X14097000D02*
D03*
X13335001Y7670800D02*
D03*
X13233400D02*
D03*
X13436600D02*
D03*
X13131799D02*
D03*
Y7772400D02*
D03*
X13233400D02*
D03*
X13538200D02*
D03*
X13436600D02*
D03*
X13335001D02*
D03*
X13321300Y9087700D02*
D03*
X13295898Y8592400D02*
D03*
X12903200Y9144000D02*
D03*
X16687498Y8595200D02*
D03*
X16712898Y9090500D02*
D03*
X17500600Y6680200D02*
D03*
X17399001D02*
D03*
X17297400D02*
D03*
X17195799D02*
D03*
X17094200D02*
D03*
X16992599D02*
D03*
X16383000D02*
D03*
X16484599D02*
D03*
X16586200D02*
D03*
X16687801D02*
D03*
X16789400D02*
D03*
X16891000D02*
D03*
X15773399D02*
D03*
X15875000D02*
D03*
X15976601D02*
D03*
X16078200D02*
D03*
X16179800D02*
D03*
X16281400D02*
D03*
X15163800D02*
D03*
X15265401D02*
D03*
X15367000D02*
D03*
X15468600D02*
D03*
X15570200D02*
D03*
X15671800D02*
D03*
X14960600D02*
D03*
X15062199D02*
D03*
X14859000D02*
D03*
X14757401D02*
D03*
X14655800D02*
D03*
X14554201D02*
D03*
X14452600D02*
D03*
X16738600Y7772400D02*
D03*
X16840199D02*
D03*
X16941800D02*
D03*
X16637000D02*
D03*
X16535400D02*
D03*
Y7670800D02*
D03*
X16840199D02*
D03*
X16637000D02*
D03*
X16738600D02*
D03*
X17399001Y7162800D02*
D03*
X17297400D02*
D03*
X17195799D02*
D03*
X17373599Y8178800D02*
D03*
X17475200D02*
D03*
X17272000Y8026400D02*
D03*
X17373599Y8077200D02*
D03*
X17475200D02*
D03*
X17272000Y7924800D02*
D03*
X17373599Y7975600D02*
D03*
X17475200D02*
D03*
Y7874000D02*
D03*
Y7772400D02*
D03*
X17373599Y7874000D02*
D03*
X17272000Y8128000D02*
D03*
X16941800Y7670800D02*
D03*
Y7473800D02*
D03*
X16738600D02*
D03*
X16637000D02*
D03*
X16840199D02*
D03*
X16535400D02*
D03*
Y7569200D02*
D03*
X16637000D02*
D03*
X16941800D02*
D03*
X16840199D02*
D03*
X16738600D02*
D03*
Y7366000D02*
D03*
X16840199D02*
D03*
X16941800D02*
D03*
X16840199Y7264400D02*
D03*
X16738600D02*
D03*
X16941800D02*
D03*
X16738600Y7162800D02*
D03*
X16840199D02*
D03*
X17094200D02*
D03*
X10566400Y6096000D02*
D03*
X10337800D02*
D03*
X9829800D02*
D03*
Y6197600D02*
D03*
X9728200D02*
D03*
Y6096000D02*
D03*
X9626600D02*
D03*
Y6197600D02*
D03*
X9525000Y6096000D02*
D03*
Y6197600D02*
D03*
X9423400D02*
D03*
Y6096000D02*
D03*
X9321800D02*
D03*
Y6197600D02*
D03*
X9220200D02*
D03*
Y6096000D02*
D03*
X9118600D02*
D03*
Y6197600D02*
D03*
X9017000D02*
D03*
Y6096000D02*
D03*
X8915400D02*
D03*
Y6197600D02*
D03*
X8813800Y6096000D02*
D03*
Y6197600D02*
D03*
X8712200D02*
D03*
Y6096000D02*
D03*
X8610600D02*
D03*
Y6197600D02*
D03*
X8813800Y6299200D02*
D03*
X8712200Y6400800D02*
D03*
Y6299200D02*
D03*
X8610600D02*
D03*
Y6400800D02*
D03*
Y6502400D02*
D03*
X8559800Y6604000D02*
D03*
Y6908800D02*
D03*
Y7010400D02*
D03*
Y7112000D02*
D03*
Y7213600D02*
D03*
X10287000Y6197600D02*
D03*
X10464800Y6096000D02*
D03*
X9906000Y8534400D02*
D03*
X9779000D02*
D03*
X9652000D02*
D03*
X9906000Y8407400D02*
D03*
X9779000D02*
D03*
X9652000D02*
D03*
Y8280400D02*
D03*
X9779000D02*
D03*
X9906000D02*
D03*
X9652000Y8153400D02*
D03*
X9779000D02*
D03*
X9906000D02*
D03*
X9779000Y8026400D02*
D03*
X9906000D02*
D03*
X10033000D02*
D03*
X10160000D02*
D03*
X10287000D02*
D03*
X10414000D02*
D03*
X10541000D02*
D03*
Y7899400D02*
D03*
X9652000D02*
D03*
Y7772400D02*
D03*
Y7645400D02*
D03*
Y7518400D02*
D03*
X9779000Y7899400D02*
D03*
X9906000D02*
D03*
X10033000D02*
D03*
X10160000D02*
D03*
X10289540Y7896860D02*
D03*
X10414000Y7899400D02*
D03*
X10541000Y7772400D02*
D03*
X10414000D02*
D03*
X10287000D02*
D03*
X10160000D02*
D03*
X10033000D02*
D03*
X9906000D02*
D03*
X9804400D02*
D03*
X9779000Y7645400D02*
D03*
Y7518400D02*
D03*
X9906000D02*
D03*
X10033000D02*
D03*
X10160000D02*
D03*
X10287000D02*
D03*
X10414000D02*
D03*
X10541000D02*
D03*
Y7645400D02*
D03*
X10414000D02*
D03*
X10287000D02*
D03*
X10160000D02*
D03*
X10033000D02*
D03*
X9906000D02*
D03*
X9398000Y8534400D02*
D03*
X16306799Y9144000D02*
D03*
X10541000Y7391400D02*
D03*
X10414000D02*
D03*
X10287000D02*
D03*
X10160000D02*
D03*
X10033000D02*
D03*
X9906000D02*
D03*
Y7264400D02*
D03*
X10033000D02*
D03*
X10160000D02*
D03*
X10287000D02*
D03*
X10414000D02*
D03*
X10541000D02*
D03*
X9525000Y8407400D02*
D03*
Y8153400D02*
D03*
Y8280400D02*
D03*
Y8534400D02*
D03*
X7670800Y5334000D02*
D03*
Y5207000D02*
D03*
Y5080000D02*
D03*
Y4953000D02*
D03*
Y4826000D02*
D03*
Y4699000D02*
D03*
Y4572000D02*
D03*
Y4445000D02*
D03*
Y4318000D02*
D03*
X7797800D02*
D03*
Y4445000D02*
D03*
Y4572000D02*
D03*
Y4699000D02*
D03*
Y4826000D02*
D03*
Y4953000D02*
D03*
Y5080000D02*
D03*
Y5207000D02*
D03*
Y5334000D02*
D03*
X7924800Y4318000D02*
D03*
Y4445000D02*
D03*
Y4572000D02*
D03*
Y4699000D02*
D03*
Y4826000D02*
D03*
Y4953000D02*
D03*
Y5080000D02*
D03*
Y5207000D02*
D03*
Y5334000D02*
D03*
X7670800Y3429000D02*
D03*
Y3556000D02*
D03*
Y3683000D02*
D03*
Y3810000D02*
D03*
Y3937000D02*
D03*
Y4064000D02*
D03*
Y4191000D02*
D03*
X7797800D02*
D03*
Y4064000D02*
D03*
Y3937000D02*
D03*
Y3810000D02*
D03*
Y3683000D02*
D03*
Y3556000D02*
D03*
Y3429000D02*
D03*
X7924800Y4191000D02*
D03*
Y4064000D02*
D03*
Y3937000D02*
D03*
Y3810000D02*
D03*
Y3683000D02*
D03*
Y3556000D02*
D03*
Y3429000D02*
D03*
X8051800Y4953000D02*
D03*
Y4826000D02*
D03*
Y4699000D02*
D03*
Y4572000D02*
D03*
Y4445000D02*
D03*
Y4318000D02*
D03*
Y4191000D02*
D03*
X8178800Y4953000D02*
D03*
Y4826000D02*
D03*
Y4699000D02*
D03*
Y4572000D02*
D03*
Y4445000D02*
D03*
Y4318000D02*
D03*
Y4191000D02*
D03*
X8305800Y3429000D02*
D03*
Y3556000D02*
D03*
Y3683000D02*
D03*
Y3810000D02*
D03*
Y3937000D02*
D03*
Y4064000D02*
D03*
X8178800Y3429000D02*
D03*
Y3556000D02*
D03*
Y3683000D02*
D03*
Y3810000D02*
D03*
Y3937000D02*
D03*
Y4064000D02*
D03*
X8051800D02*
D03*
Y3937000D02*
D03*
Y3810000D02*
D03*
Y3683000D02*
D03*
Y3556000D02*
D03*
Y3429000D02*
D03*
X18364200Y3937000D02*
D03*
Y4064000D02*
D03*
X18491200D02*
D03*
Y3937000D02*
D03*
X18618201Y4064000D02*
D03*
Y3937000D02*
D03*
X18491200Y4191000D02*
D03*
Y4318000D02*
D03*
Y4445000D02*
D03*
Y4572000D02*
D03*
Y4699000D02*
D03*
Y4826000D02*
D03*
Y4953000D02*
D03*
X18364200Y4191000D02*
D03*
Y4318000D02*
D03*
Y4445000D02*
D03*
Y4572000D02*
D03*
Y4699000D02*
D03*
Y4826000D02*
D03*
Y4953000D02*
D03*
X18237199Y3937000D02*
D03*
Y4064000D02*
D03*
Y4191000D02*
D03*
X18110201Y3937000D02*
D03*
Y4064000D02*
D03*
Y4191000D02*
D03*
X17983200D02*
D03*
Y4064000D02*
D03*
Y3937000D02*
D03*
X18237199Y5334000D02*
D03*
Y5207000D02*
D03*
Y5080000D02*
D03*
Y4953000D02*
D03*
Y4826000D02*
D03*
Y4699000D02*
D03*
Y4572000D02*
D03*
Y4445000D02*
D03*
Y4318000D02*
D03*
X18110201Y5334000D02*
D03*
Y5207000D02*
D03*
Y5080000D02*
D03*
Y4953000D02*
D03*
Y4826000D02*
D03*
Y4699000D02*
D03*
Y4572000D02*
D03*
Y4445000D02*
D03*
Y4318000D02*
D03*
X17983200D02*
D03*
Y4445000D02*
D03*
Y4572000D02*
D03*
Y4699000D02*
D03*
Y4826000D02*
D03*
Y4953000D02*
D03*
Y5080000D02*
D03*
Y5207000D02*
D03*
Y5334000D02*
D03*
X19812000Y8559800D02*
D03*
Y8432800D02*
D03*
Y8178800D02*
D03*
Y8305800D02*
D03*
X20828000Y7289800D02*
D03*
X20700999D02*
D03*
X20574001D02*
D03*
X20447000D02*
D03*
X20320000D02*
D03*
X20192999D02*
D03*
Y7416800D02*
D03*
X20320000D02*
D03*
X20447000D02*
D03*
X20574001D02*
D03*
X20700999D02*
D03*
X20828000D02*
D03*
X19685001Y8559800D02*
D03*
X20192999Y7670800D02*
D03*
X20320000D02*
D03*
X20447000D02*
D03*
X20574001D02*
D03*
X20700999D02*
D03*
X20828000D02*
D03*
Y7543800D02*
D03*
X20700999D02*
D03*
X20574001D02*
D03*
X20447000D02*
D03*
X20320000D02*
D03*
X20192999D02*
D03*
X20066000D02*
D03*
Y7670800D02*
D03*
X20091400Y7797800D02*
D03*
X20192999D02*
D03*
X20320000D02*
D03*
X20447000D02*
D03*
X20574001D02*
D03*
X20700999D02*
D03*
X20828000D02*
D03*
X20700999Y7924800D02*
D03*
X20576540D02*
D03*
X20447000D02*
D03*
X20320000D02*
D03*
X20192999D02*
D03*
X20066000D02*
D03*
X19939000Y7543800D02*
D03*
Y7670800D02*
D03*
Y7797800D02*
D03*
Y7924800D02*
D03*
X20828000D02*
D03*
Y8051800D02*
D03*
X20700999D02*
D03*
X20574001D02*
D03*
X20447000D02*
D03*
X20320000D02*
D03*
X20192999D02*
D03*
X20066000D02*
D03*
X19939000D02*
D03*
X20192999Y8178800D02*
D03*
X20066000D02*
D03*
X19939000D02*
D03*
X20192999Y8305800D02*
D03*
X20066000D02*
D03*
X19939000D02*
D03*
Y8432800D02*
D03*
X20066000D02*
D03*
X20192999D02*
D03*
X19939000Y8559800D02*
D03*
X20066000D02*
D03*
X20192999D02*
D03*
X20574001Y6223000D02*
D03*
X18846800Y7239000D02*
D03*
Y7137400D02*
D03*
Y7035800D02*
D03*
Y6934200D02*
D03*
Y6629400D02*
D03*
X18897600Y6527800D02*
D03*
Y6426200D02*
D03*
Y6324600D02*
D03*
X18999200D02*
D03*
Y6426200D02*
D03*
X19100800Y6324600D02*
D03*
X18897600Y6223000D02*
D03*
Y6121400D02*
D03*
X18999200D02*
D03*
Y6223000D02*
D03*
X19100800D02*
D03*
Y6121400D02*
D03*
X19202400Y6223000D02*
D03*
Y6121400D02*
D03*
X19303999D02*
D03*
Y6223000D02*
D03*
X19405600D02*
D03*
Y6121400D02*
D03*
X19507201D02*
D03*
Y6223000D02*
D03*
X19608800D02*
D03*
Y6121400D02*
D03*
X19710400D02*
D03*
Y6223000D02*
D03*
X19812000D02*
D03*
Y6121400D02*
D03*
X19913600Y6223000D02*
D03*
Y6121400D02*
D03*
X20015199D02*
D03*
Y6223000D02*
D03*
X20116800D02*
D03*
Y6121400D02*
D03*
X20624800D02*
D03*
X20853400D02*
D03*
X19608800Y6832600D02*
D03*
X19685001Y6934200D02*
D03*
X19761200Y7035800D02*
D03*
Y7162800D02*
D03*
X19659599Y7264400D02*
D03*
Y7112000D02*
D03*
X9372600D02*
D03*
Y7264400D02*
D03*
X9474200Y7162800D02*
D03*
Y7035800D02*
D03*
X9398000Y6934200D02*
D03*
X9321800Y6832600D02*
D03*
X21056599Y5638800D02*
D03*
Y5537200D02*
D03*
Y5410200D02*
D03*
X21158200Y5638800D02*
D03*
Y5537200D02*
D03*
Y5410200D02*
D03*
X21259801D02*
D03*
Y5537200D02*
D03*
Y5638800D02*
D03*
X21361400Y5461000D02*
D03*
X13741400Y6070600D02*
D03*
X13716000Y5537200D02*
D03*
X13766800Y5410200D02*
D03*
X12979401Y6807200D02*
D03*
X13081000D02*
D03*
X13182600D02*
D03*
X13284200D02*
D03*
X13385800D02*
D03*
X13487399D02*
D03*
X12369800D02*
D03*
X12471400D02*
D03*
X12573000D02*
D03*
X12674600D02*
D03*
X12776200D02*
D03*
X12877800D02*
D03*
X11760200D02*
D03*
X11861800D02*
D03*
X11963400D02*
D03*
X12065000D02*
D03*
X12166600D02*
D03*
X12268200D02*
D03*
X11557000D02*
D03*
X11658600D02*
D03*
X11455400D02*
D03*
X11353800D02*
D03*
X11252200D02*
D03*
X11150600D02*
D03*
X11049000D02*
D03*
X12979401Y6934200D02*
D03*
X13081000D02*
D03*
X13182600D02*
D03*
X13284200D02*
D03*
X13385800D02*
D03*
X13487399D02*
D03*
X12369800D02*
D03*
X12471400D02*
D03*
X12573000D02*
D03*
X12674600D02*
D03*
X12776200D02*
D03*
X12877800D02*
D03*
X11760200D02*
D03*
X11861800D02*
D03*
X11963400D02*
D03*
X12065000D02*
D03*
X12166600D02*
D03*
X12268200D02*
D03*
X11557000D02*
D03*
X11658600D02*
D03*
X11455400D02*
D03*
X11353800D02*
D03*
X11252200D02*
D03*
X11150600D02*
D03*
X11049000D02*
D03*
X14452600D02*
D03*
X14554201D02*
D03*
X14655800D02*
D03*
X14757401D02*
D03*
X14859000D02*
D03*
X15062199D02*
D03*
X14960600D02*
D03*
X15671800D02*
D03*
X15570200D02*
D03*
X15468600D02*
D03*
X15367000D02*
D03*
X15265401D02*
D03*
X15163800D02*
D03*
X16281400D02*
D03*
X16179800D02*
D03*
X16078200D02*
D03*
X15976601D02*
D03*
X15875000D02*
D03*
X15773399D02*
D03*
X16789400D02*
D03*
X16687801D02*
D03*
X16586200D02*
D03*
X16484599D02*
D03*
X16383000D02*
D03*
X14452600Y6807200D02*
D03*
X14554201D02*
D03*
X14655800D02*
D03*
X14757401D02*
D03*
X14859000D02*
D03*
X15062199D02*
D03*
X14960600D02*
D03*
X15671800D02*
D03*
X15570200D02*
D03*
X15468600D02*
D03*
X15367000D02*
D03*
X15265401D02*
D03*
X15163800D02*
D03*
X16281400D02*
D03*
X16179800D02*
D03*
X16078200D02*
D03*
X15976601D02*
D03*
X15875000D02*
D03*
X15773399D02*
D03*
X16789400D02*
D03*
X16687801D02*
D03*
X16586200D02*
D03*
X16484599D02*
D03*
X16383000D02*
D03*
X16891000Y6934200D02*
D03*
Y6807200D02*
D03*
X20751801Y6121400D02*
D03*
X22402800Y5638800D02*
D03*
X22301199D02*
D03*
X22199600D02*
D03*
X13589000Y10236200D02*
D03*
Y10439400D02*
D03*
Y10337800D02*
D03*
X13690601Y10439400D02*
D03*
Y10337800D02*
D03*
Y10236200D02*
D03*
X8432800Y10566400D02*
D03*
Y10464800D02*
D03*
Y10363200D02*
D03*
X8331200D02*
D03*
Y10464800D02*
D03*
Y10566400D02*
D03*
X17500600Y7162800D02*
D03*
D79*
X19608800Y9702800D02*
D03*
X9347200Y9677400D02*
D03*
X15113000Y9779000D02*
D03*
X11709400Y9804400D02*
D03*
D80*
X9611360Y9507220D02*
D03*
X19898360D02*
D03*
X11624900Y9355300D02*
D03*
X15016499Y9358100D02*
D03*
D81*
X4445000Y10026802D02*
D03*
Y10394803D02*
D03*
D82*
X20891000Y5511800D02*
D03*
X20511000D02*
D03*
D83*
X6331402Y10439405D02*
D03*
X5911398D02*
D03*
%TF.MD5,aa427cc521e3c8836bba9763087c1db1*%
M02*
