G04 Layer_Color=32896*
%FSLAX45Y45*%
%MOMM*%
%TF.FileFunction,Legend,Bot*%
%TF.Part,Single*%
G01*
G75*
%TA.AperFunction,NonConductor*%
%ADD84C,0.20000*%
%ADD90C,0.25400*%
%ADD94C,0.15000*%
D84*
X17519000Y6894200D02*
Y6974200D01*
X17278999Y6894200D02*
Y6974200D01*
X13810600Y6894200D02*
Y6974200D01*
X13570599Y6894200D02*
Y6974200D01*
X14115401Y6894200D02*
Y6974200D01*
X13875401Y6894200D02*
Y6974200D01*
X17214200Y6894200D02*
Y6974200D01*
X16974200Y6894200D02*
Y6974200D01*
X18908400Y8451200D02*
X18988400D01*
X18908400Y8211200D02*
X18988400D01*
X18908400Y8121000D02*
X18988400D01*
X18908400Y7881000D02*
X18988400D01*
X8621400Y8121000D02*
X8701400D01*
X8621400Y7881000D02*
X8701400D01*
X6493901Y10439405D02*
Y10689402D01*
X5748899D02*
X6493901D01*
X5748899Y10189403D02*
Y10689402D01*
Y10189403D02*
X6493901D01*
Y10439405D01*
X9195359Y10620055D02*
Y10660060D01*
X9265361Y10620055D02*
Y10660060D01*
X13726720Y10665775D02*
Y10705780D01*
X13796721Y10665775D02*
Y10705780D01*
X13833400Y6126800D02*
Y6166800D01*
X13903400Y6126800D02*
Y6166800D01*
X7902000Y5863600D02*
Y6023600D01*
X7592000Y5863600D02*
Y6023600D01*
X20621001Y5356800D02*
X20781000D01*
X20621001Y5666800D02*
X20781000D01*
X18828000Y3488000D02*
X18908000D01*
X18828000Y3728000D02*
X18908000D01*
X19625999Y3174000D02*
Y3254000D01*
X19386000Y3174000D02*
Y3254000D01*
X19956000Y3166000D02*
Y3246000D01*
X19716000Y3166000D02*
Y3246000D01*
X19273000Y3174000D02*
Y3254000D01*
X19033000Y3174000D02*
Y3254000D01*
X12357000Y2993000D02*
X12437000D01*
X12357000Y3233000D02*
X12437000D01*
X13805000Y1975000D02*
Y2055000D01*
X13564999Y1975000D02*
Y2055000D01*
X13505000Y1977000D02*
Y2057000D01*
X13264999Y1977000D02*
Y2057000D01*
X13194000Y1975000D02*
Y2055000D01*
X12953999Y1975000D02*
Y2055000D01*
X17672000Y3259000D02*
Y3299000D01*
X17742000Y3259000D02*
Y3299000D01*
X12519000Y2737000D02*
Y2777000D01*
X12589000Y2737000D02*
Y2777000D01*
X3053400Y2403400D02*
X3093400D01*
X3053400Y2473400D02*
X3093400D01*
X22621800Y7828600D02*
Y7868600D01*
X22691800Y7828600D02*
Y7868600D01*
X22799600Y8082600D02*
Y8122600D01*
X22869600Y8082600D02*
Y8122600D01*
X23002800Y8336600D02*
Y8376600D01*
X23072800Y8336600D02*
Y8376600D01*
X22895000Y8438200D02*
Y8478200D01*
X22825000Y8438200D02*
Y8478200D01*
X8621400Y8425800D02*
X8701400D01*
X8621400Y8185800D02*
X8701400D01*
X4445000Y10611800D02*
X4695002D01*
Y9809805D02*
Y10611800D01*
X4194998Y9809805D02*
X4695002D01*
X4194998D02*
Y10611800D01*
X4445000D01*
D90*
X22995000Y3193000D02*
X23064999Y3123000D01*
X22595000Y3193000D02*
X22995000D01*
X22595000Y2743000D02*
Y3193000D01*
Y2743000D02*
X23064999D01*
Y3123000D01*
X22942999Y3963000D02*
X23013000Y3893000D01*
X22542999Y3963000D02*
X22942999D01*
X22542999Y3513000D02*
Y3963000D01*
Y3513000D02*
X23013000D01*
Y3893000D01*
X4194998Y10553705D02*
X4695002D01*
D94*
X17879083Y7000845D02*
X17892413Y7014174D01*
X17919070D01*
X17932401Y7000845D01*
Y6947529D01*
X17919070Y6934200D01*
X17892413D01*
X17879083Y6947529D01*
X17852426Y6934200D02*
X17825768D01*
X17839098D01*
Y7014174D01*
X17852426Y7000845D01*
X17785780Y7014174D02*
X17732465D01*
Y7000845D01*
X17785780Y6947529D01*
Y6934200D01*
X17705806Y6920871D02*
X17652490D01*
X17572516Y7000845D02*
X17585844Y7014174D01*
X17612503D01*
X17625832Y7000845D01*
Y6947529D01*
X17612503Y6934200D01*
X17585844D01*
X17572516Y6947529D01*
X13459483Y7077045D02*
X13472813Y7090374D01*
X13499471D01*
X13512801Y7077045D01*
Y7023729D01*
X13499471Y7010400D01*
X13472813D01*
X13459483Y7023729D01*
X13432826Y7010400D02*
X13406168D01*
X13419498D01*
Y7090374D01*
X13432826Y7077045D01*
X13366180Y7090374D02*
X13312865D01*
Y7077045D01*
X13366180Y7023729D01*
Y7010400D01*
X13286206Y6997071D02*
X13232890D01*
X13206232Y7090374D02*
Y7010400D01*
X13166245D01*
X13152916Y7023729D01*
Y7037058D01*
X13166245Y7050387D01*
X13206232D01*
X13166245D01*
X13152916Y7063716D01*
Y7077045D01*
X13166245Y7090374D01*
X13206232D01*
X16837685Y7102445D02*
X16851013Y7115774D01*
X16877670D01*
X16891000Y7102445D01*
Y7049129D01*
X16877670Y7035800D01*
X16851013D01*
X16837685Y7049129D01*
X16811026Y7035800D02*
X16784367D01*
X16797697D01*
Y7115774D01*
X16811026Y7102445D01*
X16691064Y7115774D02*
X16717722Y7102445D01*
X16744382Y7075787D01*
Y7049129D01*
X16731052Y7035800D01*
X16704393D01*
X16691064Y7049129D01*
Y7062458D01*
X16704393Y7075787D01*
X16744382D01*
X16664406Y7022471D02*
X16611090D01*
X16531116Y7102445D02*
X16544444Y7115774D01*
X16571103D01*
X16584431Y7102445D01*
Y7049129D01*
X16571103Y7035800D01*
X16544444D01*
X16531116Y7049129D01*
X14475484Y7102445D02*
X14488812Y7115774D01*
X14515471D01*
X14528799Y7102445D01*
Y7049129D01*
X14515471Y7035800D01*
X14488812D01*
X14475484Y7049129D01*
X14448827Y7035800D02*
X14422168D01*
X14435497D01*
Y7115774D01*
X14448827Y7102445D01*
X14328864Y7115774D02*
X14355522Y7102445D01*
X14382181Y7075787D01*
Y7049129D01*
X14368851Y7035800D01*
X14342194D01*
X14328864Y7049129D01*
Y7062458D01*
X14342194Y7075787D01*
X14382181D01*
X14302206Y7022471D02*
X14248891D01*
X14222232Y7115774D02*
Y7035800D01*
X14182245D01*
X14168916Y7049129D01*
Y7062458D01*
X14182245Y7075787D01*
X14222232D01*
X14182245D01*
X14168916Y7089116D01*
Y7102445D01*
X14182245Y7115774D01*
X14222232D01*
X8328684Y8042245D02*
X8342013Y8055574D01*
X8368671D01*
X8382000Y8042245D01*
Y7988929D01*
X8368671Y7975600D01*
X8342013D01*
X8328684Y7988929D01*
X8302026Y8042245D02*
X8288697Y8055574D01*
X8262039D01*
X8248710Y8042245D01*
Y8028916D01*
X8262039Y8015587D01*
X8248710Y8002258D01*
Y7988929D01*
X8262039Y7975600D01*
X8288697D01*
X8302026Y7988929D01*
Y8002258D01*
X8288697Y8015587D01*
X8302026Y8028916D01*
Y8042245D01*
X8288697Y8015587D02*
X8262039D01*
X8222052Y7962271D02*
X8168736D01*
X8142077Y7975600D02*
Y8028916D01*
X8115419Y8055574D01*
X8088761Y8028916D01*
Y7975600D01*
Y8015587D01*
X8142077D01*
X18895084Y8626445D02*
X18908414Y8639774D01*
X18935071D01*
X18948399Y8626445D01*
Y8573129D01*
X18935071Y8559800D01*
X18908414D01*
X18895084Y8573129D01*
X18868427Y8626445D02*
X18855096Y8639774D01*
X18828439D01*
X18815109Y8626445D01*
Y8613116D01*
X18828439Y8599787D01*
X18815109Y8586458D01*
Y8573129D01*
X18828439Y8559800D01*
X18855096D01*
X18868427Y8573129D01*
Y8586458D01*
X18855096Y8599787D01*
X18868427Y8613116D01*
Y8626445D01*
X18855096Y8599787D02*
X18828439D01*
X18788452Y8546471D02*
X18735136D01*
X18708476Y8639774D02*
Y8559800D01*
X18668491D01*
X18655161Y8573129D01*
Y8626445D01*
X18668491Y8639774D01*
X18708476D01*
X8328684Y8347045D02*
X8342013Y8360374D01*
X8368671D01*
X8382000Y8347045D01*
Y8293729D01*
X8368671Y8280400D01*
X8342013D01*
X8328684Y8293729D01*
X8302026Y8360374D02*
X8248710D01*
Y8347045D01*
X8302026Y8293729D01*
Y8280400D01*
X8222052Y8267071D02*
X8168736D01*
X8142077Y8280400D02*
Y8333716D01*
X8115419Y8360374D01*
X8088761Y8333716D01*
Y8280400D01*
Y8320387D01*
X8142077D01*
X18615685Y8016845D02*
X18629013Y8030174D01*
X18655672D01*
X18669000Y8016845D01*
Y7963529D01*
X18655672Y7950200D01*
X18629013D01*
X18615685Y7963529D01*
X18589026Y8030174D02*
X18535710D01*
Y8016845D01*
X18589026Y7963529D01*
Y7950200D01*
X18509052Y7936871D02*
X18455736D01*
X18429077Y8030174D02*
Y7950200D01*
X18389090D01*
X18375761Y7963529D01*
Y8016845D01*
X18389090Y8030174D01*
X18429077D01*
X22758400Y8509000D02*
Y8588974D01*
X22718413D01*
X22705084Y8575645D01*
Y8548987D01*
X22718413Y8535658D01*
X22758400D01*
X22731741D02*
X22705084Y8509000D01*
X22678426D02*
X22651768D01*
X22665097D01*
Y8588974D01*
X22678426Y8575645D01*
X22611781D02*
X22598451Y8588974D01*
X22571793D01*
X22558464Y8575645D01*
Y8562316D01*
X22571793Y8548987D01*
X22558464Y8535658D01*
Y8522329D01*
X22571793Y8509000D01*
X22598451D01*
X22611781Y8522329D01*
Y8535658D01*
X22598451Y8548987D01*
X22611781Y8562316D01*
Y8575645D01*
X22598451Y8548987D02*
X22571793D01*
X23114000Y8128000D02*
Y8207974D01*
X23074013D01*
X23060684Y8194645D01*
Y8167987D01*
X23074013Y8154658D01*
X23114000D01*
X23087341D02*
X23060684Y8128000D01*
X23034026D02*
X23007368D01*
X23020697D01*
Y8207974D01*
X23034026Y8194645D01*
X22967381Y8141329D02*
X22954051Y8128000D01*
X22927393D01*
X22914064Y8141329D01*
Y8194645D01*
X22927393Y8207974D01*
X22954051D01*
X22967381Y8194645D01*
Y8181316D01*
X22954051Y8167987D01*
X22914064D01*
X22733000Y8001000D02*
Y8080974D01*
X22693013D01*
X22679684Y8067645D01*
Y8040987D01*
X22693013Y8027658D01*
X22733000D01*
X22706342D02*
X22679684Y8001000D01*
X22599710D02*
X22653026D01*
X22599710Y8054316D01*
Y8067645D01*
X22613039Y8080974D01*
X22639697D01*
X22653026Y8067645D01*
X22573051D02*
X22559721Y8080974D01*
X22533064D01*
X22519736Y8067645D01*
Y8014329D01*
X22533064Y8001000D01*
X22559721D01*
X22573051Y8014329D01*
Y8067645D01*
X22529800Y7747000D02*
Y7826974D01*
X22489813D01*
X22476485Y7813645D01*
Y7786987D01*
X22489813Y7773658D01*
X22529800D01*
X22503142D02*
X22476485Y7747000D01*
X22396510D02*
X22449826D01*
X22396510Y7800316D01*
Y7813645D01*
X22409839Y7826974D01*
X22436497D01*
X22449826Y7813645D01*
X22369852Y7747000D02*
X22343195D01*
X22356522D01*
Y7826974D01*
X22369852Y7813645D01*
X3708400Y2413000D02*
Y2492974D01*
X3668413D01*
X3655084Y2479645D01*
Y2452987D01*
X3668413Y2439658D01*
X3708400D01*
X3681742D02*
X3655084Y2413000D01*
X3628426Y2479645D02*
X3615097Y2492974D01*
X3588439D01*
X3575110Y2479645D01*
Y2466316D01*
X3588439Y2452987D01*
X3601768D01*
X3588439D01*
X3575110Y2439658D01*
Y2426329D01*
X3588439Y2413000D01*
X3615097D01*
X3628426Y2426329D01*
X3548452Y2479645D02*
X3535122Y2492974D01*
X3508464D01*
X3495136Y2479645D01*
Y2426329D01*
X3508464Y2413000D01*
X3535122D01*
X3548452Y2426329D01*
Y2479645D01*
X12454000Y2709000D02*
Y2788974D01*
X12414013D01*
X12400684Y2775645D01*
Y2748987D01*
X12414013Y2735658D01*
X12454000D01*
X12427342D02*
X12400684Y2709000D01*
X12320710D02*
X12374026D01*
X12320710Y2762316D01*
Y2775645D01*
X12334039Y2788974D01*
X12360697D01*
X12374026Y2775645D01*
X12240735Y2788974D02*
X12267394Y2775645D01*
X12294052Y2748987D01*
Y2722329D01*
X12280722Y2709000D01*
X12254064D01*
X12240735Y2722329D01*
Y2735658D01*
X12254064Y2748987D01*
X12294052D01*
X17581000Y3240000D02*
Y3319974D01*
X17541013D01*
X17527684Y3306645D01*
Y3279987D01*
X17541013Y3266658D01*
X17581000D01*
X17554343D02*
X17527684Y3240000D01*
X17447710D02*
X17501025D01*
X17447710Y3293316D01*
Y3306645D01*
X17461038Y3319974D01*
X17487697D01*
X17501025Y3306645D01*
X17367735Y3319974D02*
X17421053D01*
Y3279987D01*
X17394392Y3293316D01*
X17381064D01*
X17367735Y3279987D01*
Y3253329D01*
X17381064Y3240000D01*
X17407722D01*
X17421053Y3253329D01*
X13462000Y3102974D02*
Y3023000D01*
X13408684D01*
X13382027Y3089645D02*
X13368697Y3102974D01*
X13342039D01*
X13328709Y3089645D01*
Y3076316D01*
X13342039Y3062987D01*
X13355368D01*
X13342039D01*
X13328709Y3049658D01*
Y3036329D01*
X13342039Y3023000D01*
X13368697D01*
X13382027Y3036329D01*
X18692000Y3338974D02*
Y3259000D01*
X18638684D01*
X18558710D02*
X18612025D01*
X18558710Y3312316D01*
Y3325645D01*
X18572038Y3338974D01*
X18598697D01*
X18612025Y3325645D01*
X13123083Y2310245D02*
X13136414Y2323574D01*
X13163071D01*
X13176401Y2310245D01*
Y2256929D01*
X13163071Y2243600D01*
X13136414D01*
X13123083Y2256929D01*
X13096426Y2310245D02*
X13083096Y2323574D01*
X13056439D01*
X13043111Y2310245D01*
Y2296916D01*
X13056439Y2283587D01*
X13069768D01*
X13056439D01*
X13043111Y2270258D01*
Y2256929D01*
X13056439Y2243600D01*
X13083096D01*
X13096426Y2256929D01*
X12963136Y2323574D02*
X13016452D01*
Y2283587D01*
X12989793Y2296916D01*
X12976465D01*
X12963136Y2283587D01*
Y2256929D01*
X12976465Y2243600D01*
X13003123D01*
X13016452Y2256929D01*
X13433284Y2312245D02*
X13446613Y2325574D01*
X13473271D01*
X13486600Y2312245D01*
Y2258929D01*
X13473271Y2245600D01*
X13446613D01*
X13433284Y2258929D01*
X13406625Y2312245D02*
X13393297Y2325574D01*
X13366640D01*
X13353310Y2312245D01*
Y2298916D01*
X13366640Y2285587D01*
X13379968D01*
X13366640D01*
X13353310Y2272258D01*
Y2258929D01*
X13366640Y2245600D01*
X13393297D01*
X13406625Y2258929D01*
X13273335Y2325574D02*
X13299994Y2312245D01*
X13326653Y2285587D01*
Y2258929D01*
X13313322Y2245600D01*
X13286665D01*
X13273335Y2258929D01*
Y2272258D01*
X13286665Y2285587D01*
X13326653D01*
X13708684Y2310245D02*
X13722012Y2323574D01*
X13748671D01*
X13762000Y2310245D01*
Y2256929D01*
X13748671Y2243600D01*
X13722012D01*
X13708684Y2256929D01*
X13682027Y2310245D02*
X13668697Y2323574D01*
X13642039D01*
X13628709Y2310245D01*
Y2296916D01*
X13642039Y2283587D01*
X13655368D01*
X13642039D01*
X13628709Y2270258D01*
Y2256929D01*
X13642039Y2243600D01*
X13668697D01*
X13682027Y2256929D01*
X13602052Y2323574D02*
X13548737D01*
Y2310245D01*
X13602052Y2256929D01*
Y2243600D01*
X12081684Y3135645D02*
X12095013Y3148974D01*
X12121671D01*
X12135000Y3135645D01*
Y3082329D01*
X12121671Y3069000D01*
X12095013D01*
X12081684Y3082329D01*
X12055026Y3135645D02*
X12041697Y3148974D01*
X12015039D01*
X12001710Y3135645D01*
Y3122316D01*
X12015039Y3108987D01*
X12028368D01*
X12015039D01*
X12001710Y3095658D01*
Y3082329D01*
X12015039Y3069000D01*
X12041697D01*
X12055026Y3082329D01*
X11975052Y3135645D02*
X11961723Y3148974D01*
X11935065D01*
X11921736Y3135645D01*
Y3122316D01*
X11935065Y3108987D01*
X11921736Y3095658D01*
Y3082329D01*
X11935065Y3069000D01*
X11961723D01*
X11975052Y3082329D01*
Y3095658D01*
X11961723Y3108987D01*
X11975052Y3122316D01*
Y3135645D01*
X11961723Y3108987D02*
X11935065D01*
X19201282Y3535445D02*
X19214610Y3548774D01*
X19241269D01*
X19254597Y3535445D01*
Y3482129D01*
X19241269Y3468800D01*
X19214610D01*
X19201282Y3482129D01*
X19174625Y3535445D02*
X19161295Y3548774D01*
X19134637D01*
X19121307Y3535445D01*
Y3522116D01*
X19134637Y3508787D01*
X19147966D01*
X19134637D01*
X19121307Y3495458D01*
Y3482129D01*
X19134637Y3468800D01*
X19161295D01*
X19174625Y3482129D01*
X19094650Y3468800D02*
X19067992D01*
X19081322D01*
Y3548774D01*
X19094650Y3535445D01*
X19884282Y3527445D02*
X19897610Y3540774D01*
X19924269D01*
X19937598Y3527445D01*
Y3474129D01*
X19924269Y3460800D01*
X19897610D01*
X19884282Y3474129D01*
X19857623Y3527445D02*
X19844295Y3540774D01*
X19817638D01*
X19804308Y3527445D01*
Y3514116D01*
X19817638Y3500787D01*
X19830966D01*
X19817638D01*
X19804308Y3487458D01*
Y3474129D01*
X19817638Y3460800D01*
X19844295D01*
X19857623Y3474129D01*
X19724335Y3460800D02*
X19777650D01*
X19724335Y3514116D01*
Y3527445D01*
X19737663Y3540774D01*
X19764320D01*
X19777650Y3527445D01*
X19554282Y3535445D02*
X19567612Y3548774D01*
X19594269D01*
X19607597Y3535445D01*
Y3482129D01*
X19594269Y3468800D01*
X19567612D01*
X19554282Y3482129D01*
X19527625Y3535445D02*
X19514294Y3548774D01*
X19487637D01*
X19474307Y3535445D01*
Y3522116D01*
X19487637Y3508787D01*
X19500966D01*
X19487637D01*
X19474307Y3495458D01*
Y3482129D01*
X19487637Y3468800D01*
X19514294D01*
X19527625Y3482129D01*
X19447650Y3535445D02*
X19434322Y3548774D01*
X19407663D01*
X19394334Y3535445D01*
Y3522116D01*
X19407663Y3508787D01*
X19420992D01*
X19407663D01*
X19394334Y3495458D01*
Y3482129D01*
X19407663Y3468800D01*
X19434322D01*
X19447650Y3482129D01*
X18894684Y3882645D02*
X18908012Y3895974D01*
X18934671D01*
X18948000Y3882645D01*
Y3829329D01*
X18934671Y3816000D01*
X18908012D01*
X18894684Y3829329D01*
X18868027Y3882645D02*
X18854697Y3895974D01*
X18828040D01*
X18814709Y3882645D01*
Y3869316D01*
X18828040Y3855987D01*
X18841368D01*
X18828040D01*
X18814709Y3842658D01*
Y3829329D01*
X18828040Y3816000D01*
X18854697D01*
X18868027Y3829329D01*
X18748064Y3816000D02*
Y3895974D01*
X18788052Y3855987D01*
X18734735D01*
X20749284Y5299045D02*
X20762613Y5312374D01*
X20789272D01*
X20802600Y5299045D01*
Y5245729D01*
X20789272Y5232400D01*
X20762613D01*
X20749284Y5245729D01*
X20722626Y5299045D02*
X20709297Y5312374D01*
X20682639D01*
X20669310Y5299045D01*
Y5285716D01*
X20682639Y5272387D01*
X20695969D01*
X20682639D01*
X20669310Y5259058D01*
Y5245729D01*
X20682639Y5232400D01*
X20709297D01*
X20722626Y5245729D01*
X20642651D02*
X20629321Y5232400D01*
X20602664D01*
X20589336Y5245729D01*
Y5299045D01*
X20602664Y5312374D01*
X20629321D01*
X20642651Y5299045D01*
Y5285716D01*
X20629321Y5272387D01*
X20589336D01*
X7438414Y6260435D02*
X7451743Y6273764D01*
X7478401D01*
X7491730Y6260435D01*
Y6207119D01*
X7478401Y6193790D01*
X7451743D01*
X7438414Y6207119D01*
X7371769Y6193790D02*
Y6273764D01*
X7411756Y6233777D01*
X7358440D01*
X7278466Y6273764D02*
X7305124Y6260435D01*
X7331782Y6233777D01*
Y6207119D01*
X7318452Y6193790D01*
X7291794D01*
X7278466Y6207119D01*
Y6220448D01*
X7291794Y6233777D01*
X7331782D01*
X4572000Y10747974D02*
Y10668000D01*
X4532013D01*
X4518684Y10681329D01*
Y10734645D01*
X4532013Y10747974D01*
X4572000D01*
X4492026D02*
X4438710D01*
X4465368D01*
Y10668000D01*
X4412052Y10747974D02*
Y10694658D01*
X4385394Y10668000D01*
X4358736Y10694658D01*
Y10747974D01*
X4278761Y10734645D02*
X4292090Y10747974D01*
X4318748D01*
X4332077Y10734645D01*
Y10721316D01*
X4318748Y10707987D01*
X4292090D01*
X4278761Y10694658D01*
Y10681329D01*
X4292090Y10668000D01*
X4318748D01*
X4332077Y10681329D01*
X4252103Y10668000D02*
X4225445D01*
X4238774D01*
Y10747974D01*
X4252103Y10734645D01*
X13741400Y6197600D02*
Y6277574D01*
X13688084Y6197600D01*
Y6277574D01*
X13661426D02*
X13608110D01*
X13634769D01*
Y6197600D01*
X13528136Y6264245D02*
X13541464Y6277574D01*
X13568121D01*
X13581451Y6264245D01*
Y6210929D01*
X13568121Y6197600D01*
X13541464D01*
X13528136Y6210929D01*
X13501477Y6197600D02*
X13474818D01*
X13488148D01*
Y6277574D01*
X13501477Y6264245D01*
X14198599Y10642600D02*
Y10695916D01*
X14171942Y10722574D01*
X14145284Y10695916D01*
Y10642600D01*
Y10682587D01*
X14198599D01*
X14118626Y10642600D02*
Y10722574D01*
X14078639D01*
X14065311Y10709245D01*
Y10682587D01*
X14078639Y10669258D01*
X14118626D01*
X14091968D02*
X14065311Y10642600D01*
X13985336Y10722574D02*
X14038652D01*
Y10682587D01*
X14011993Y10695916D01*
X13998663D01*
X13985336Y10682587D01*
Y10655929D01*
X13998663Y10642600D01*
X14025322D01*
X14038652Y10655929D01*
X9118600Y10617200D02*
Y10670516D01*
X9091942Y10697174D01*
X9065284Y10670516D01*
Y10617200D01*
Y10657187D01*
X9118600D01*
X9038626Y10617200D02*
Y10697174D01*
X8998639D01*
X8985310Y10683845D01*
Y10657187D01*
X8998639Y10643858D01*
X9038626D01*
X9011968D02*
X8985310Y10617200D01*
X8918664D02*
Y10697174D01*
X8958652Y10657187D01*
X8905336D01*
X6626884Y10519374D02*
X6680200D01*
Y10479387D01*
X6653542D01*
X6680200D01*
Y10439400D01*
X6600226D02*
X6573568D01*
X6586897D01*
Y10519374D01*
X6600226Y10506045D01*
X22378999Y3759974D02*
Y3680000D01*
X22325684D01*
X22245711Y3759974D02*
X22272368Y3746645D01*
X22299026Y3719987D01*
Y3693329D01*
X22285696Y3680000D01*
X22259039D01*
X22245711Y3693329D01*
Y3706658D01*
X22259039Y3719987D01*
X22299026D01*
X22371001Y2994974D02*
Y2915000D01*
X22317683D01*
X22291026Y2994974D02*
X22237711D01*
Y2981645D01*
X22291026Y2928329D01*
Y2915000D01*
%TF.MD5,c34fa24dddfb97dd8c50f7e6b6d704f8*%
M02*
