G04 Layer_Color=65535*
%FSLAX45Y45*%
%MOMM*%
%TF.FileFunction,Legend,Top*%
%TF.Part,Single*%
G01*
G75*
%TA.AperFunction,NonConductor*%
%ADD84C,0.25000*%
%ADD85C,0.60000*%
%ADD86C,0.12700*%
%ADD87C,0.20000*%
%ADD88C,0.10160*%
%ADD89C,0.25400*%
%ADD90C,0.20320*%
%ADD91C,0.22860*%
%ADD92C,0.10000*%
%ADD93C,0.15240*%
%ADD94C,0.15000*%
%ADD95R,0.30480X0.14996*%
%ADD96R,0.30480X0.15240*%
%ADD97R,0.30480X0.30241*%
%ADD98R,0.63500X1.27000*%
G36*
X4376427Y5703200D02*
X4366567D01*
Y5766246D01*
X4366357Y5766141D01*
X4365937Y5765722D01*
X4365098Y5764987D01*
X4364049Y5764148D01*
X4362685Y5763099D01*
X4361007Y5761945D01*
X4359223Y5760686D01*
X4357125Y5759427D01*
X4357020D01*
X4356916Y5759322D01*
X4356601Y5759113D01*
X4356181Y5758903D01*
X4355027Y5758273D01*
X4353664Y5757539D01*
X4352090Y5756700D01*
X4350307Y5755861D01*
X4348523Y5755022D01*
X4346740Y5754287D01*
Y5763938D01*
X4346845D01*
X4347160Y5764148D01*
X4347579Y5764358D01*
X4348104Y5764672D01*
X4348838Y5764987D01*
X4349677Y5765512D01*
X4351670Y5766561D01*
X4353873Y5767924D01*
X4356391Y5769603D01*
X4358804Y5771386D01*
X4361217Y5773379D01*
X4361321Y5773484D01*
X4361531Y5773589D01*
X4361846Y5773904D01*
X4362266Y5774323D01*
X4363315Y5775372D01*
X4364678Y5776841D01*
X4366042Y5778415D01*
X4367511Y5780303D01*
X4368874Y5782191D01*
X4370028Y5784184D01*
X4376427D01*
Y5703200D01*
D02*
G37*
G36*
X4927398Y6417428D02*
X4938308D01*
Y6408302D01*
X4927398D01*
Y6389000D01*
X4917537D01*
Y6408302D01*
X4882500D01*
Y6417428D01*
X4919321Y6469670D01*
X4927398D01*
Y6417428D01*
D02*
G37*
G36*
X4822995Y5784079D02*
X4823729D01*
X4825303Y5783870D01*
X4827191Y5783450D01*
X4829184Y5783030D01*
X4831282Y5782296D01*
X4833380Y5781352D01*
X4833485D01*
X4833590Y5781247D01*
X4833905Y5781037D01*
X4834324Y5780827D01*
X4835268Y5780198D01*
X4836527Y5779359D01*
X4837891Y5778205D01*
X4839360Y5776841D01*
X4840723Y5775372D01*
X4841877Y5773589D01*
Y5773484D01*
X4841982Y5773379D01*
X4842402Y5772750D01*
X4842821Y5771701D01*
X4843451Y5770442D01*
X4843975Y5768869D01*
X4844500Y5767085D01*
X4844815Y5765197D01*
X4844919Y5763204D01*
Y5763099D01*
Y5762994D01*
Y5762365D01*
X4844815Y5761316D01*
X4844605Y5760057D01*
X4844185Y5758588D01*
X4843766Y5757015D01*
X4843031Y5755336D01*
X4842087Y5753658D01*
X4841982Y5753448D01*
X4841563Y5752923D01*
X4840933Y5752189D01*
X4839989Y5751245D01*
X4838835Y5750091D01*
X4837366Y5748937D01*
X4835688Y5747888D01*
X4833800Y5746839D01*
X4833905D01*
X4834115Y5746734D01*
X4834534Y5746629D01*
X4834954Y5746524D01*
X4835583Y5746315D01*
X4836317Y5746000D01*
X4837891Y5745371D01*
X4839674Y5744426D01*
X4841458Y5743168D01*
X4843346Y5741699D01*
X4844919Y5739916D01*
Y5739811D01*
X4845129Y5739706D01*
X4845339Y5739391D01*
X4845549Y5738972D01*
X4845864Y5738447D01*
X4846178Y5737922D01*
X4846913Y5736349D01*
X4847647Y5734461D01*
X4848276Y5732258D01*
X4848696Y5729845D01*
X4848906Y5727013D01*
Y5726908D01*
Y5726593D01*
Y5725964D01*
X4848801Y5725229D01*
X4848696Y5724285D01*
X4848486Y5723236D01*
X4848276Y5722082D01*
X4847962Y5720823D01*
X4847542Y5719460D01*
X4847017Y5717991D01*
X4846388Y5716522D01*
X4845654Y5714949D01*
X4844710Y5713480D01*
X4843661Y5711907D01*
X4842507Y5710438D01*
X4841143Y5709074D01*
X4841038Y5708970D01*
X4840828Y5708760D01*
X4840409Y5708445D01*
X4839779Y5707921D01*
X4839045Y5707396D01*
X4838101Y5706767D01*
X4837052Y5706137D01*
X4835898Y5705508D01*
X4834534Y5704773D01*
X4833066Y5704144D01*
X4831492Y5703515D01*
X4829709Y5702990D01*
X4827925Y5702466D01*
X4825932Y5702151D01*
X4823939Y5701941D01*
X4821736Y5701836D01*
X4820687D01*
X4819953Y5701941D01*
X4819114Y5702046D01*
X4818065Y5702151D01*
X4816806Y5702361D01*
X4815547Y5702675D01*
X4812819Y5703410D01*
X4811351Y5703934D01*
X4809882Y5704459D01*
X4808309Y5705193D01*
X4806840Y5706032D01*
X4805476Y5706976D01*
X4804113Y5708130D01*
X4804008Y5708235D01*
X4803798Y5708445D01*
X4803483Y5708760D01*
X4802959Y5709284D01*
X4802434Y5709914D01*
X4801805Y5710648D01*
X4801175Y5711592D01*
X4800441Y5712536D01*
X4799812Y5713690D01*
X4799077Y5714949D01*
X4798448Y5716313D01*
X4797818Y5717781D01*
X4797189Y5719355D01*
X4796769Y5720928D01*
X4796350Y5722712D01*
X4796140Y5724600D01*
X4806001Y5725964D01*
Y5725859D01*
X4806106Y5725544D01*
X4806211Y5725124D01*
X4806316Y5724600D01*
X4806525Y5723866D01*
X4806735Y5723131D01*
X4807365Y5721243D01*
X4808099Y5719250D01*
X4809148Y5717257D01*
X4810302Y5715264D01*
X4810931Y5714424D01*
X4811666Y5713690D01*
X4811875Y5713585D01*
X4812400Y5713166D01*
X4813239Y5712536D01*
X4814498Y5711907D01*
X4815966Y5711172D01*
X4817645Y5710648D01*
X4819638Y5710228D01*
X4821736Y5710019D01*
X4822470D01*
X4822890Y5710123D01*
X4823519D01*
X4824254Y5710228D01*
X4825827Y5710648D01*
X4827716Y5711172D01*
X4829709Y5712012D01*
X4831702Y5713271D01*
X4832646Y5714005D01*
X4833590Y5714844D01*
X4833695Y5714949D01*
X4833800Y5715054D01*
X4834010Y5715369D01*
X4834324Y5715683D01*
X4835164Y5716732D01*
X4836003Y5718201D01*
X4836842Y5719879D01*
X4837681Y5721977D01*
X4838206Y5724285D01*
X4838416Y5725544D01*
Y5726803D01*
Y5726908D01*
Y5727118D01*
Y5727432D01*
X4838311Y5727957D01*
Y5728481D01*
X4838206Y5729216D01*
X4837891Y5730789D01*
X4837366Y5732572D01*
X4836527Y5734461D01*
X4835373Y5736244D01*
X4834744Y5737188D01*
X4833905Y5738027D01*
X4833695Y5738237D01*
X4833066Y5738762D01*
X4832121Y5739391D01*
X4830863Y5740230D01*
X4829184Y5741070D01*
X4827296Y5741699D01*
X4825093Y5742223D01*
X4822575Y5742433D01*
X4821421D01*
X4820687Y5742328D01*
X4819638Y5742223D01*
X4818379Y5742014D01*
X4817016Y5741699D01*
X4815547Y5741384D01*
X4816701Y5750091D01*
X4816911D01*
X4817225Y5749986D01*
X4817750Y5749881D01*
X4818904D01*
X4819323Y5749986D01*
X4820582Y5750091D01*
X4822051Y5750301D01*
X4823834Y5750721D01*
X4825722Y5751245D01*
X4827716Y5752084D01*
X4829604Y5753133D01*
X4829709D01*
X4829814Y5753343D01*
X4830443Y5753763D01*
X4831282Y5754602D01*
X4832226Y5755651D01*
X4833170Y5757120D01*
X4833905Y5758903D01*
X4834534Y5761001D01*
X4834639Y5762155D01*
X4834744Y5763414D01*
Y5763519D01*
Y5763623D01*
X4834639Y5764358D01*
X4834534Y5765302D01*
X4834324Y5766561D01*
X4833800Y5767924D01*
X4833170Y5769393D01*
X4832226Y5770967D01*
X4830967Y5772330D01*
X4830758Y5772540D01*
X4830338Y5772960D01*
X4829499Y5773484D01*
X4828450Y5774219D01*
X4827086Y5774848D01*
X4825408Y5775477D01*
X4823624Y5775897D01*
X4821526Y5776002D01*
X4821002D01*
X4820582Y5775897D01*
X4819428Y5775792D01*
X4818065Y5775582D01*
X4816596Y5775058D01*
X4814917Y5774428D01*
X4813344Y5773589D01*
X4811770Y5772330D01*
X4811561Y5772121D01*
X4811141Y5771701D01*
X4810512Y5770862D01*
X4809777Y5769603D01*
X4808938Y5768134D01*
X4808099Y5766246D01*
X4807469Y5764043D01*
X4806945Y5761525D01*
X4797084Y5763309D01*
Y5763414D01*
X4797189Y5763728D01*
X4797294Y5764253D01*
X4797504Y5764987D01*
X4797714Y5765722D01*
X4798028Y5766771D01*
X4798343Y5767820D01*
X4798763Y5768973D01*
X4799916Y5771386D01*
X4801280Y5773904D01*
X4803064Y5776422D01*
X4804113Y5777575D01*
X4805266Y5778624D01*
X4805371Y5778729D01*
X4805581Y5778834D01*
X4805896Y5779149D01*
X4806420Y5779464D01*
X4807050Y5779883D01*
X4807784Y5780408D01*
X4808728Y5780932D01*
X4809672Y5781457D01*
X4810826Y5781876D01*
X4811980Y5782401D01*
X4814708Y5783345D01*
X4817855Y5783974D01*
X4819533Y5784079D01*
X4821316Y5784184D01*
X4822470D01*
X4822995Y5784079D01*
D02*
G37*
G36*
X13828967Y7909717D02*
X13831781Y7906904D01*
X13833304Y7903229D01*
Y7901240D01*
Y7899251D01*
X13831781Y7895575D01*
X13828967Y7892762D01*
X13825293Y7891240D01*
X13821313D01*
X13817639Y7892762D01*
X13814825Y7895575D01*
X13813304Y7899251D01*
Y7901240D01*
Y7903229D01*
X13814825Y7906904D01*
X13817639Y7909717D01*
X13821313Y7911240D01*
X13825293D01*
X13828967Y7909717D01*
D02*
G37*
G36*
X17220567Y7912518D02*
X17223381Y7909705D01*
X17224904Y7906029D01*
Y7904040D01*
Y7902051D01*
X17223381Y7898375D01*
X17220567Y7895562D01*
X17216893Y7894040D01*
X17212914D01*
X17209239Y7895562D01*
X17206425Y7898375D01*
X17204904Y7902051D01*
Y7904040D01*
Y7906029D01*
X17206425Y7909705D01*
X17209239Y7912518D01*
X17212914Y7914040D01*
X17216893D01*
X17220567Y7912518D01*
D02*
G37*
G36*
X4592942Y5783139D02*
X4593991Y5783034D01*
X4595145Y5782930D01*
X4596404Y5782720D01*
X4597768Y5782405D01*
X4600705Y5781671D01*
X4602173Y5781146D01*
X4603747Y5780517D01*
X4605320Y5779782D01*
X4606789Y5778838D01*
X4608153Y5777894D01*
X4609517Y5776740D01*
X4609621Y5776635D01*
X4609831Y5776426D01*
X4610146Y5776111D01*
X4610566Y5775586D01*
X4611090Y5774957D01*
X4611720Y5774223D01*
X4612244Y5773383D01*
X4612978Y5772334D01*
X4613608Y5771285D01*
X4614132Y5770027D01*
X4615286Y5767299D01*
X4615706Y5765830D01*
X4616020Y5764257D01*
X4616230Y5762579D01*
X4616335Y5760795D01*
Y5760585D01*
Y5759956D01*
X4616230Y5759012D01*
X4616125Y5757753D01*
X4615811Y5756389D01*
X4615496Y5754711D01*
X4614971Y5753032D01*
X4614342Y5751249D01*
X4614237Y5751039D01*
X4613922Y5750410D01*
X4613503Y5749466D01*
X4612769Y5748312D01*
X4611824Y5746843D01*
X4610670Y5745165D01*
X4609307Y5743277D01*
X4607733Y5741388D01*
Y5741283D01*
X4607523Y5741179D01*
X4607209Y5740864D01*
X4606894Y5740444D01*
X4606370Y5739920D01*
X4605740Y5739290D01*
X4605006Y5738556D01*
X4604062Y5737717D01*
X4603118Y5736773D01*
X4601964Y5735724D01*
X4600705Y5734465D01*
X4599341Y5733206D01*
X4597768Y5731842D01*
X4596194Y5730479D01*
X4594306Y5728905D01*
X4592418Y5727227D01*
X4592313Y5727122D01*
X4591998Y5726912D01*
X4591578Y5726492D01*
X4590949Y5726073D01*
X4590319Y5725443D01*
X4589480Y5724709D01*
X4587697Y5723135D01*
X4585704Y5721457D01*
X4583816Y5719779D01*
X4582976Y5719044D01*
X4582242Y5718310D01*
X4581508Y5717576D01*
X4580983Y5717051D01*
X4580878Y5716946D01*
X4580564Y5716631D01*
X4580144Y5716107D01*
X4579515Y5715373D01*
X4578885Y5714638D01*
X4578151Y5713694D01*
X4576787Y5711806D01*
X4616440D01*
Y5702260D01*
X4563045D01*
Y5702470D01*
Y5702889D01*
Y5703519D01*
X4563150Y5704463D01*
X4563255Y5705512D01*
X4563465Y5706666D01*
X4563779Y5707820D01*
X4564199Y5709078D01*
Y5709183D01*
X4564304Y5709288D01*
X4564409Y5709603D01*
X4564619Y5710023D01*
X4565038Y5711072D01*
X4565772Y5712435D01*
X4566717Y5714114D01*
X4567766Y5715897D01*
X4569129Y5717785D01*
X4570703Y5719779D01*
X4570808Y5719883D01*
X4570913Y5719988D01*
X4571227Y5720303D01*
X4571542Y5720723D01*
X4572591Y5721877D01*
X4574060Y5723345D01*
X4575843Y5725129D01*
X4578046Y5727227D01*
X4580669Y5729534D01*
X4583711Y5732052D01*
X4583816Y5732157D01*
X4584235Y5732577D01*
X4584969Y5733101D01*
X4585809Y5733835D01*
X4586858Y5734779D01*
X4588117Y5735829D01*
X4589480Y5736982D01*
X4590844Y5738241D01*
X4593781Y5740969D01*
X4596719Y5743801D01*
X4598082Y5745270D01*
X4599341Y5746633D01*
X4600495Y5747892D01*
X4601439Y5749151D01*
X4601544Y5749256D01*
X4601649Y5749466D01*
X4601859Y5749780D01*
X4602173Y5750200D01*
X4602488Y5750829D01*
X4602908Y5751459D01*
X4603852Y5753032D01*
X4604691Y5754816D01*
X4605425Y5756809D01*
X4605950Y5759012D01*
X4606160Y5760061D01*
Y5761110D01*
Y5761215D01*
Y5761425D01*
Y5761634D01*
X4606055Y5762054D01*
X4605950Y5763208D01*
X4605635Y5764572D01*
X4605111Y5766145D01*
X4604376Y5767719D01*
X4603327Y5769397D01*
X4601859Y5770971D01*
X4601649Y5771180D01*
X4601124Y5771600D01*
X4600180Y5772230D01*
X4598921Y5773069D01*
X4597348Y5773803D01*
X4595460Y5774432D01*
X4593257Y5774852D01*
X4590844Y5775062D01*
X4590110D01*
X4589690Y5774957D01*
X4589061D01*
X4588326Y5774852D01*
X4586753Y5774537D01*
X4584969Y5774013D01*
X4582976Y5773279D01*
X4581088Y5772230D01*
X4579410Y5770761D01*
X4579200Y5770551D01*
X4578780Y5770027D01*
X4578046Y5768978D01*
X4577312Y5767719D01*
X4576472Y5765935D01*
X4575738Y5763942D01*
X4575319Y5761634D01*
X4575109Y5758907D01*
X4564933Y5759956D01*
Y5760061D01*
X4565038Y5760480D01*
Y5761005D01*
X4565143Y5761844D01*
X4565353Y5762788D01*
X4565563Y5763837D01*
X4565877Y5765096D01*
X4566297Y5766355D01*
X4567241Y5769187D01*
X4567870Y5770656D01*
X4568605Y5772020D01*
X4569444Y5773488D01*
X4570388Y5774852D01*
X4571437Y5776111D01*
X4572696Y5777265D01*
X4572801Y5777370D01*
X4573011Y5777475D01*
X4573430Y5777789D01*
X4573955Y5778209D01*
X4574689Y5778629D01*
X4575528Y5779153D01*
X4576472Y5779678D01*
X4577626Y5780307D01*
X4578885Y5780831D01*
X4580249Y5781356D01*
X4581718Y5781880D01*
X4583396Y5782300D01*
X4585074Y5782720D01*
X4586963Y5783034D01*
X4588956Y5783139D01*
X4591054Y5783244D01*
X4592208D01*
X4592942Y5783139D01*
D02*
G37*
%LPC*%
G36*
X4917537Y6453829D02*
X4892151Y6417428D01*
X4917537D01*
Y6453829D01*
D02*
G37*
%LPD*%
D84*
X4296500Y9116500D02*
G03*
X4296500Y9116500I-12500J0D01*
G01*
X16552200Y8411700D02*
G03*
X16552200Y8411700I-12500J0D01*
G01*
X16679800Y7252200D02*
G03*
X16679800Y7252200I-12500J0D01*
G01*
X13288200Y7249400D02*
G03*
X13288200Y7249400I-12500J0D01*
G01*
X13160600Y8408900D02*
G03*
X13160600Y8408900I-12500J0D01*
G01*
X18373402Y6743801D02*
G03*
X18373402Y6743801I-12500J0D01*
G01*
X8086402D02*
G03*
X8086402Y6743801I-12500J0D01*
G01*
D85*
X4539000Y8949000D02*
G03*
X4539000Y8949000I-30000J0D01*
G01*
X16728799Y6856200D02*
G03*
X16728799Y6856200I-30000J0D01*
G01*
X13337199Y6853400D02*
G03*
X13337199Y6853400I-30000J0D01*
G01*
X18425401Y6448801D02*
G03*
X18425401Y6448801I-30000J0D01*
G01*
X8138402D02*
G03*
X8138402Y6448801I-30000J0D01*
G01*
D86*
X1781200Y9746200D02*
G03*
X1781200Y9456200I0J-145000D01*
G01*
Y8450800D02*
G03*
X1781200Y8160800I0J-145000D01*
G01*
Y9111200D02*
G03*
X1781200Y8821200I0J-145000D01*
G01*
Y4615400D02*
G03*
X1781200Y4325400I0J-145000D01*
G01*
Y3980400D02*
G03*
X1781200Y3690400I0J-145000D01*
G01*
Y3345400D02*
G03*
X1781200Y3055400I0J-145000D01*
G01*
Y2710400D02*
G03*
X1781200Y2420400I0J-145000D01*
G01*
X1790000Y9746200D02*
X1900000D01*
X1790000Y9456200D02*
X1900000D01*
X1908200Y9906000D02*
X2873400D01*
X1908200Y9296400D02*
Y9906000D01*
Y9296400D02*
X2873400D01*
Y9906000D01*
Y8001000D02*
Y8610600D01*
X1908200Y8001000D02*
X2873400D01*
X1908200D02*
Y8610600D01*
X2873400D01*
X1790000Y8160800D02*
X1900000D01*
X1790000Y8450800D02*
X1900000D01*
X2873400Y8661400D02*
Y9271000D01*
X1908200Y8661400D02*
X2873400D01*
X1908200D02*
Y9271000D01*
X2873400D01*
X1790000Y8821200D02*
X1900000D01*
X1790000Y9111200D02*
X1900000D01*
X2873400Y4165600D02*
Y4775200D01*
X1908200Y4165600D02*
X2873400D01*
X1908200D02*
Y4775200D01*
X2873400D01*
X1790000Y4325400D02*
X1900000D01*
X1790000Y4615400D02*
X1900000D01*
X2873400Y3530600D02*
Y4140200D01*
X1908200Y3530600D02*
X2873400D01*
X1908200D02*
Y4140200D01*
X2873400D01*
X1790000Y3690400D02*
X1900000D01*
X1790000Y3980400D02*
X1900000D01*
X2873400Y2895600D02*
Y3505200D01*
X1908200Y2895600D02*
X2873400D01*
X1908200D02*
Y3505200D01*
X2873400D01*
X1790000Y3055400D02*
X1900000D01*
X1790000Y3345400D02*
X1900000D01*
X2873400Y2260600D02*
Y2870200D01*
X1908200Y2260600D02*
X2873400D01*
X1908200D02*
Y2870200D01*
X2873400D01*
X1790000Y2420400D02*
X1900000D01*
X1790000Y2710400D02*
X1900000D01*
D87*
X19406902Y7525001D02*
G03*
X19406902Y7461501I0J-31750D01*
G01*
X9119901Y7525001D02*
G03*
X9119901Y7461501I0J-31750D01*
G01*
X22609650Y6191301D02*
G03*
X22673151Y6191301I31750J0D01*
G01*
X22582298Y7738416D02*
G03*
X22645798Y7738416I31750J0D01*
G01*
X12656320Y9954260D02*
G03*
X12529320Y9954260I-63500J0D01*
G01*
X20123920Y9984740D02*
G03*
X19996919Y9984740I-63500J0D01*
G01*
X22581000Y10650000D02*
X22831000D01*
Y9670000D02*
Y10650000D01*
X22331000Y9670000D02*
X22831000D01*
X22331000D02*
Y10650000D01*
X22581000D01*
X14566000Y9006000D02*
X14896001D01*
X14906000Y7931000D02*
Y9006000D01*
X14236000Y7931000D02*
X14906000D01*
X14236000D02*
Y9006000D01*
X14225999D02*
X14566000D01*
X11164000Y9012000D02*
X11494000D01*
X11504000Y7937000D02*
Y9012000D01*
X10834000Y7937000D02*
X11504000D01*
X10834000D02*
Y9012000D01*
X10824000D02*
X11164000D01*
X20598802Y9152001D02*
X20928802D01*
X20938802Y8077001D02*
Y9152001D01*
X20268800Y8077001D02*
X20938802D01*
X20268800D02*
Y9152001D01*
X20258801D02*
X20598802D01*
X10311802D02*
X10641802D01*
X10651802Y8077001D02*
Y9152001D01*
X9981801Y8077001D02*
X10651802D01*
X9981801D02*
Y9152001D01*
X9971801D02*
X10311802D01*
X2836002Y6596999D02*
X2876002D01*
X2836002Y6667002D02*
X2876002D01*
X5435000Y8320000D02*
X5475000D01*
X5435000Y8250000D02*
X5475000D01*
X3969000Y8233001D02*
X4009000D01*
X3969000Y8162999D02*
X4009000D01*
X4409000Y8459000D02*
Y9049000D01*
X4999000Y8459000D02*
Y9049000D01*
X4409000D02*
X4999000D01*
X4409000Y8459000D02*
X4999000D01*
X8635400Y8425800D02*
X8715400D01*
X8635400Y8185800D02*
X8715400D01*
X18908400Y8451200D02*
X18988400D01*
X18908400Y8211200D02*
X18988400D01*
X14566199Y9927399D02*
X14816202D01*
Y9077398D02*
Y9927399D01*
X14316197Y9077398D02*
X14816202D01*
X14316197D02*
Y9927399D01*
X14566199D01*
X15263199Y9659800D02*
X15303200D01*
X15263199Y9589800D02*
X15303200D01*
X15749998Y3558900D02*
X15829999D01*
X15749998Y3798900D02*
X15829999D01*
X15749998Y3889100D02*
X15829999D01*
X15749998Y4129100D02*
X15829999D01*
X16798698Y8863600D02*
X16838699D01*
X16798698Y8933600D02*
X16838699D01*
X16974200Y6894200D02*
Y6974200D01*
X17214200Y6894200D02*
Y6974200D01*
X15393599Y7707000D02*
Y7787000D01*
X15543600Y7707000D02*
Y7787000D01*
X16417200Y8449200D02*
Y8864200D01*
X16247200Y8449200D02*
Y8864200D01*
Y8449200D02*
X16417200D01*
X16247200Y8864200D02*
X16417200D01*
X14643800Y6996200D02*
X16953799D01*
X14643800Y4856200D02*
X16953799D01*
Y6996200D01*
X14643800Y4856200D02*
Y6996200D01*
X17201698Y7608400D02*
Y7688400D01*
X17351701Y7608400D02*
Y7688400D01*
X16601300Y9181799D02*
Y9221799D01*
X16531300Y9181799D02*
Y9221799D01*
X16391600Y9181799D02*
Y9221799D01*
X16461600Y9181799D02*
Y9221799D01*
X15973500Y9005000D02*
Y9045000D01*
X15903500Y9005000D02*
Y9045000D01*
X15855000Y8520100D02*
X15895000D01*
X15855000Y8590100D02*
X15895000D01*
X16151300Y8281100D02*
Y8321100D01*
X16081300Y8281100D02*
Y8321100D01*
X15829601Y8721800D02*
X15869600D01*
X15829601Y8651800D02*
X15869600D01*
X12426000Y8721800D02*
X12466000D01*
X12426000Y8651800D02*
X12466000D01*
X12759700Y8278300D02*
Y8318300D01*
X12689700Y8278300D02*
Y8318300D01*
X12463400Y8517300D02*
X12503400D01*
X12463400Y8587300D02*
X12503400D01*
X12581900Y9002200D02*
Y9042200D01*
X12511900Y9002200D02*
Y9042200D01*
X13000000Y9178999D02*
Y9218999D01*
X13070000Y9178999D02*
Y9218999D01*
X13209700Y9178998D02*
Y9218999D01*
X13139700Y9178998D02*
Y9218999D01*
X13810098Y7605600D02*
Y7685600D01*
X13960101Y7605600D02*
Y7685600D01*
X11252200Y6993400D02*
X13562199D01*
X11252200Y4853400D02*
X13562199D01*
Y6993400D01*
X11252200Y4853400D02*
Y6993400D01*
X13025600Y8446400D02*
Y8861400D01*
X12855600Y8446400D02*
Y8861400D01*
Y8446400D02*
X13025600D01*
X12855600Y8861400D02*
X13025600D01*
X11989999Y7707000D02*
Y7787000D01*
X12140001Y7707000D02*
Y7787000D01*
X13582600Y6899400D02*
Y6979400D01*
X13822600Y6899400D02*
Y6979400D01*
X13407098Y8860800D02*
X13447099D01*
X13407098Y8930800D02*
X13447099D01*
X12358400Y3886300D02*
X12438400D01*
X12358400Y4126300D02*
X12438400D01*
X12358400Y3556100D02*
X12438400D01*
X12358400Y3796100D02*
X12438400D01*
X11871600Y9657000D02*
X11911600D01*
X11871600Y9587000D02*
X11911600D01*
X11174600Y9924599D02*
X11424602D01*
Y9074598D02*
Y9924599D01*
X10924598Y9074598D02*
X11424602D01*
X10924598D02*
Y9924599D01*
X11174600D01*
X3294700Y8392720D02*
X3334700D01*
X3294700Y8462720D02*
X3334700D01*
X3282000Y9063280D02*
X3322000D01*
X3282000Y9133280D02*
X3322000D01*
X3231200Y4308400D02*
X3271200D01*
X3231200Y4378400D02*
X3271200D01*
X2987600Y3612200D02*
Y3652200D01*
X3057600Y3612200D02*
Y3652200D01*
X3002600Y3013000D02*
X3042600D01*
X3002600Y3083000D02*
X3042600D01*
X7671000Y2653000D02*
Y2693000D01*
X7601000Y2653000D02*
Y2693000D01*
X17132001Y3997000D02*
X17172000D01*
X17132001Y3927000D02*
X17172000D01*
X9237000Y1941000D02*
Y2021000D01*
X9477000Y1941000D02*
Y2021000D01*
X8937000Y1940000D02*
Y2020000D01*
X9177000Y1940000D02*
Y2020000D01*
X8640000Y1943000D02*
Y2023000D01*
X8880000Y1943000D02*
Y2023000D01*
X8519000Y3248000D02*
X8599000D01*
X8519000Y3008000D02*
X8599000D01*
X18292999Y3196000D02*
Y3276000D01*
X18533000Y3196000D02*
Y3276000D01*
X17974001Y3193000D02*
Y3273000D01*
X18214000Y3193000D02*
Y3273000D01*
X17655000Y3196000D02*
Y3276000D01*
X17895000Y3196000D02*
Y3276000D01*
X16185001Y3181000D02*
Y3261000D01*
X16425000Y3181000D02*
Y3261000D01*
X14582201Y6143000D02*
Y6303000D01*
X14272200Y6143000D02*
Y6303000D01*
X11153200Y6143000D02*
Y6303000D01*
X10843200Y6143000D02*
Y6303000D01*
X18993201Y7068947D02*
X19033200D01*
X18993201Y6998945D02*
X19033200D01*
X18795401Y4647601D02*
X18875400D01*
X18795401Y4407601D02*
X18875400D01*
X20156200Y6988399D02*
X20359399D01*
X20156200Y5978403D02*
Y6988399D01*
Y5978403D02*
X20562601D01*
Y6988399D01*
X20359399D02*
X20562601D01*
X19450401Y9471001D02*
X19490401D01*
X19450401Y9541001D02*
X19490401D01*
X19556201Y7098401D02*
Y7138401D01*
X19486201Y7098401D02*
Y7138401D01*
X19350203Y8947201D02*
Y9197203D01*
X20200203D01*
Y8697199D02*
Y9197203D01*
X19350203Y8697199D02*
X20200203D01*
X19350203D02*
Y8947201D01*
X18795401Y4952401D02*
X18875400D01*
X18795401Y4712401D02*
X18875400D01*
X18295403Y5275798D02*
X19645401D01*
X18295403Y6575801D02*
X19645401D01*
X18295403Y5275798D02*
Y6575801D01*
X19645401Y5275798D02*
Y6575801D01*
X20665399Y6291001D02*
Y6371001D01*
X20815402Y6291001D02*
Y6371001D01*
X19430440Y8087680D02*
Y8127680D01*
X19360440Y8087680D02*
Y8127680D01*
X19552000Y7788401D02*
X19592001D01*
X19552000Y7718401D02*
X19592001D01*
X19406900Y7525004D02*
Y7612751D01*
Y7373752D02*
Y7461504D01*
X18898900Y7373752D02*
X19406900D01*
X18898900D02*
Y7612751D01*
X19406900D01*
X19272601Y7068947D02*
X19312601D01*
X19272601Y6998945D02*
X19312601D01*
X18908398Y7881000D02*
X18988399D01*
X18908398Y8121000D02*
X18988399D01*
X8706201Y7068947D02*
X8746200D01*
X8706201Y6998945D02*
X8746200D01*
X8508401Y4647601D02*
X8588400D01*
X8508401Y4407601D02*
X8588400D01*
X9869200Y6988399D02*
X10072400D01*
X9869200Y5978403D02*
Y6988399D01*
Y5978403D02*
X10275600D01*
Y6988399D01*
X10072400D02*
X10275600D01*
X9163401Y9496401D02*
X9203401D01*
X9163401Y9566401D02*
X9203401D01*
X9269201Y7098401D02*
Y7138401D01*
X9199201Y7098401D02*
Y7138401D01*
X9063203Y8947201D02*
Y9197203D01*
X9913203D01*
Y8697199D02*
Y9197203D01*
X9063203Y8697199D02*
X9913203D01*
X9063203D02*
Y8947201D01*
X8519799Y4946000D02*
X8599799D01*
X8519799Y4706000D02*
X8599799D01*
X8008402Y5275798D02*
X9358401D01*
X8008402Y6575801D02*
X9358401D01*
X8008402Y5275798D02*
Y6575801D01*
X9358401Y5275798D02*
Y6575801D01*
X10378399Y6291001D02*
Y6371001D01*
X10528402Y6291001D02*
Y6371001D01*
X9166300Y8090220D02*
Y8130220D01*
X9096300Y8090220D02*
Y8130220D01*
X9265001Y7788401D02*
X9305001D01*
X9265001Y7718401D02*
X9305001D01*
X9119900Y7525004D02*
Y7612751D01*
Y7373752D02*
Y7461504D01*
X8611900Y7373752D02*
X9119900D01*
X8611900D02*
Y7612751D01*
X9119900D01*
X8985601Y7068947D02*
X9025600D01*
X8985601Y6998945D02*
X9025600D01*
X8635401Y7887401D02*
X8715400D01*
X8635401Y8127401D02*
X8715400D01*
X13873801Y5572200D02*
X13913800D01*
X13873801Y5502200D02*
X13913800D01*
X3366999Y9699396D02*
X3406999D01*
X3366999Y9769394D02*
X3406999D01*
X23061400Y6057001D02*
Y6097001D01*
X22991400Y6057001D02*
Y6097001D01*
X22977400Y7625400D02*
Y7665400D01*
X23047400Y7625400D02*
Y7665400D01*
X22534900Y6191301D02*
X22609653D01*
X22673154D02*
X22747900D01*
Y5683301D02*
Y6191301D01*
X22534900Y5683301D02*
X22747900D01*
X22534900D02*
Y6191301D01*
X22507549Y7738416D02*
X22582300D01*
X22645799D02*
X22720547D01*
Y7230416D02*
Y7738416D01*
X22507549Y7230416D02*
X22720547D01*
X22507549D02*
Y7738416D01*
X17278999Y6894200D02*
Y6974200D01*
X17519000Y6894200D02*
Y6974200D01*
X11761399Y7707000D02*
Y7787000D01*
X11911401Y7707000D02*
Y7787000D01*
X15164999Y7707000D02*
Y7787000D01*
X15315001Y7707000D02*
Y7787000D01*
X12656320Y9954260D02*
X12871820D01*
X12313820D02*
X12529320D01*
X12313820D02*
Y10716260D01*
X12871820D01*
Y9954260D02*
Y10716260D01*
X20123920Y9984740D02*
X20339420D01*
X19781419D02*
X19996919D01*
X19781419D02*
Y10746740D01*
X20339420D01*
Y9984740D02*
Y10746740D01*
X13900000Y6894200D02*
Y6974199D01*
X14139999Y6894200D02*
Y6974199D01*
D88*
X3764280Y5910580D02*
G03*
X3764280Y5318400I95351J-296090D01*
G01*
X3955800D02*
G03*
X3955800Y5910580I-95351J296090D01*
G01*
X5375480Y6241180D02*
G03*
X5375480Y5649000I95351J-296090D01*
G01*
X5567000D02*
G03*
X5567000Y6241180I-95351J296090D01*
G01*
X3535680Y5288400D02*
X3764280D01*
X3535680D02*
Y5770880D01*
X3703320Y5938520D01*
X3764280D01*
X3955800D02*
X4015800D01*
X4185800Y5770880D01*
Y5288400D02*
Y5770880D01*
X3955800Y5288400D02*
X4185800D01*
X5146880Y5619000D02*
X5375480D01*
X5146880D02*
Y6101480D01*
X5314520Y6269120D01*
X5375480D01*
X5567000D02*
X5627000D01*
X5797000Y6101480D01*
Y5619000D02*
Y6101480D01*
X5567000Y5619000D02*
X5797000D01*
D89*
X21764999Y7152000D02*
Y7254000D01*
X21569000Y7814000D02*
X21681000D01*
X22331000Y10560000D02*
X22821001D01*
X22331000Y10600000D02*
X22831000D01*
X21122000Y10702000D02*
X22062000D01*
X20932001Y10512000D02*
X21122000Y10702000D01*
X20932001Y9402000D02*
Y10512000D01*
Y9402000D02*
X22232001D01*
X22062000Y10702000D02*
X22232001Y10532000D01*
Y9402000D02*
Y10532000D01*
X22584000Y4255000D02*
Y4635000D01*
Y4255000D02*
X23053999D01*
Y4705000D01*
X22653999D02*
X23053999D01*
X22584000Y4635000D02*
X22653999Y4705000D01*
X22442000Y1777000D02*
Y2157000D01*
Y1777000D02*
X22912000D01*
Y2227000D01*
X22512000D02*
X22912000D01*
X22442000Y2157000D02*
X22512000Y2227000D01*
X4131600Y6148600D02*
Y6504600D01*
X3691600D02*
X4123600D01*
X3691600Y6148600D02*
Y6504600D01*
X3699600Y6144600D02*
X4131600D01*
X4001600Y6144600D02*
Y6504600D01*
X15150398Y9438901D02*
Y9553201D01*
X14896399D02*
X15150398D01*
X14896399Y9438901D02*
X15150398D01*
X14896399D02*
Y9553201D01*
X16236700Y7690400D02*
Y7810400D01*
X15701099Y3336000D02*
Y3463000D01*
Y3336000D02*
X15878899D01*
X15701099Y3463000D02*
X15878899D01*
X16221799Y3628100D02*
X16602798D01*
X16221799D02*
Y4415500D01*
X16602798D01*
Y3628100D02*
Y4415500D01*
X12830200Y3625300D02*
X13211200D01*
X12830200D02*
Y4412700D01*
X13211200D01*
Y3625300D02*
Y4412700D01*
X12309500Y3333200D02*
Y3460200D01*
Y3333200D02*
X12487300D01*
X12309500Y3460200D02*
X12487300D01*
X12845100Y7687600D02*
Y7807600D01*
X11758800Y9436101D02*
Y9550401D01*
X11504800D02*
X11758800D01*
X11504800Y9436101D02*
X11758800D01*
X11504800D02*
Y9550401D01*
X19724400Y9531401D02*
X19838699D01*
X19724400Y9277401D02*
Y9531401D01*
X19838699Y9277401D02*
Y9531401D01*
X19724400Y9277401D02*
X19838699D01*
X20156200Y6927901D02*
X20562601D01*
X19610100Y4400601D02*
X19991100D01*
X19610100D02*
Y5188001D01*
X19991100D01*
Y4400601D02*
Y5188001D01*
X18746500Y4210101D02*
Y4337101D01*
Y4210101D02*
X18924300D01*
X18746500Y4337101D02*
X18924300D01*
X19800600Y6585001D02*
Y6623101D01*
Y6585001D02*
X20067300D01*
Y6623101D01*
X19800600D02*
X20067300D01*
Y7372401D01*
X19800600D02*
X20067300D01*
X19800600Y6623101D02*
Y7372401D01*
X9437400Y9531401D02*
X9551700D01*
X9437400Y9277401D02*
Y9531401D01*
X9551700Y9277401D02*
Y9531401D01*
X9437400Y9277401D02*
X9551700D01*
X9869200Y6927901D02*
X10275600D01*
X9323100Y4400601D02*
X9704100D01*
X9323100D02*
Y5188001D01*
X9704100D01*
Y4400601D02*
Y5188001D01*
X8459500Y4210101D02*
Y4337101D01*
Y4210101D02*
X8637300D01*
X8459500Y4337101D02*
X8637300D01*
X9513600Y6585001D02*
Y6623101D01*
Y6585001D02*
X9780300D01*
Y6623101D01*
X9513600D02*
X9780300D01*
Y7372401D01*
X9513600D02*
X9780300D01*
X9513600Y6623101D02*
Y7372401D01*
X21564568Y5943559D02*
X21539175Y5968951D01*
X21488393D01*
X21463000Y5943559D01*
Y5918167D01*
X21488393Y5892775D01*
X21539175D01*
X21564568Y5867383D01*
Y5841992D01*
X21539175Y5816600D01*
X21488393D01*
X21463000Y5841992D01*
X21716917Y5943559D02*
X21691525Y5968951D01*
X21640742D01*
X21615350Y5943559D01*
Y5841992D01*
X21640742Y5816600D01*
X21691525D01*
X21716917Y5841992D01*
X21767702Y5816600D02*
Y5918167D01*
X21818484Y5968951D01*
X21869269Y5918167D01*
Y5816600D01*
Y5892775D01*
X21767702D01*
X21586568Y6837959D02*
X21561176Y6863351D01*
X21510393D01*
X21485001Y6837959D01*
Y6812567D01*
X21510393Y6787175D01*
X21561176D01*
X21586568Y6761784D01*
Y6736392D01*
X21561176Y6711000D01*
X21510393D01*
X21485001Y6736392D01*
X21738918Y6837959D02*
X21713525Y6863351D01*
X21662743D01*
X21637350Y6837959D01*
Y6736392D01*
X21662743Y6711000D01*
X21713525D01*
X21738918Y6736392D01*
X21789700Y6863351D02*
Y6711000D01*
X21865877D01*
X21891269Y6736392D01*
Y6761784D01*
X21865877Y6787175D01*
X21789700D01*
X21865877D01*
X21891269Y6812567D01*
Y6837959D01*
X21865877Y6863351D01*
X21789700D01*
D90*
X4364340Y6312801D02*
X5019660D01*
X4364340Y5957201D02*
Y6312801D01*
Y5957201D02*
X5019660D01*
Y6312801D01*
D91*
X4149000Y7918720D02*
Y8080000D01*
X3828980Y7918720D02*
Y8080000D01*
D92*
X16216701Y7680400D02*
Y7820400D01*
Y7680400D02*
X16396700D01*
Y7820400D01*
X16216701D02*
X16396700D01*
X12825101Y7677600D02*
Y7817600D01*
Y7677600D02*
X13005099D01*
Y7817600D01*
X12825101D02*
X13005099D01*
D93*
X2654301Y6146800D02*
X2717801Y6210300D01*
X2654301Y6400800D02*
X2717801Y6337300D01*
X2654301Y6400800D02*
X2717801Y6464300D01*
X2654301Y6654800D02*
X2717801Y6591300D01*
X2273301Y6146800D02*
X2654301D01*
X2209801Y6210300D02*
X2273301Y6146800D01*
X2209801Y6210300D02*
Y6337300D01*
X2273301Y6400800D01*
X2209801Y6464300D02*
X2273301Y6400800D01*
X2209801Y6464300D02*
Y6591300D01*
X2273301Y6654800D01*
Y6400800D02*
X2654301D01*
X2273301Y6654800D02*
X2654301D01*
X2717801Y6464300D02*
Y6591300D01*
Y6210300D02*
Y6337300D01*
X2654301Y6654800D02*
X2717801Y6718300D01*
X2654301Y6908800D02*
X2717801Y6845300D01*
X2209801Y6718300D02*
X2273301Y6654800D01*
X2209801Y6718300D02*
Y6845300D01*
X2273301Y6908800D01*
X2717801Y6718300D02*
Y6845300D01*
X2273301Y6908800D02*
X2654301D01*
X2273301Y7162800D02*
X2654301D01*
X2717801Y6972300D02*
Y7099300D01*
X2209801D02*
X2273301Y7162800D01*
X2209801Y6972300D02*
Y7099300D01*
Y6972300D02*
X2273301Y6908800D01*
X2654301Y7162800D02*
X2717801Y7099300D01*
X2654301Y6908800D02*
X2717801Y6972300D01*
X2273301Y6908800D02*
X2654301D01*
X2273301Y7162800D02*
X2654301D01*
X2717801Y7226300D01*
X2654301Y7416800D02*
X2717801Y7353300D01*
X2209801Y7226300D02*
X2273301Y7162800D01*
X2209801Y7226300D02*
Y7353300D01*
X2273301Y7416800D01*
X2717801Y7226300D02*
Y7353300D01*
X2273301Y7416800D02*
X2654301D01*
D94*
X3280494Y4592266D02*
X3333810D01*
X3413784Y4632253D02*
X3360468D01*
Y4592266D01*
X3387126Y4605595D01*
X3400455D01*
X3413784Y4592266D01*
Y4565608D01*
X3400455Y4552279D01*
X3373797D01*
X3360468Y4565608D01*
X3440442Y4632253D02*
Y4578937D01*
X3467100Y4552279D01*
X3493758Y4578937D01*
Y4632253D01*
X3600390Y4552279D02*
Y4605595D01*
X3627048Y4632253D01*
X3653706Y4605595D01*
Y4552279D01*
Y4592266D01*
X3600390D01*
X2762000Y6391000D02*
Y6444316D01*
X2788658Y6470974D01*
X2815316Y6444316D01*
Y6391000D01*
Y6430987D01*
X2762000D01*
X2841974Y6391000D02*
Y6470974D01*
X2881961D01*
X2895290Y6457645D01*
Y6430987D01*
X2881961Y6417658D01*
X2841974D01*
X2868632D02*
X2895290Y6391000D01*
X2921948Y6457645D02*
X2935278Y6470974D01*
X2961936D01*
X2975265Y6457645D01*
Y6444316D01*
X2961936Y6430987D01*
X2948606D01*
X2961936D01*
X2975265Y6417658D01*
Y6404329D01*
X2961936Y6391000D01*
X2935278D01*
X2921948Y6404329D01*
X3029000Y6755000D02*
Y6808316D01*
X3055658Y6834974D01*
X3082316Y6808316D01*
Y6755000D01*
Y6794987D01*
X3029000D01*
X3162290Y6821645D02*
X3148961Y6834974D01*
X3122303D01*
X3108974Y6821645D01*
Y6768329D01*
X3122303Y6755000D01*
X3148961D01*
X3162290Y6768329D01*
X3188948Y6821645D02*
X3202278Y6834974D01*
X3228936D01*
X3242265Y6821645D01*
Y6808316D01*
X3228936Y6794987D01*
X3215606D01*
X3228936D01*
X3242265Y6781658D01*
Y6768329D01*
X3228936Y6755000D01*
X3202278D01*
X3188948Y6768329D01*
X5508000Y8740000D02*
Y8793316D01*
X5534658Y8819974D01*
X5561316Y8793316D01*
Y8740000D01*
Y8779987D01*
X5508000D01*
X5641290Y8806645D02*
X5627961Y8819974D01*
X5601303D01*
X5587974Y8806645D01*
Y8753329D01*
X5601303Y8740000D01*
X5627961D01*
X5641290Y8753329D01*
X5667948Y8740000D02*
X5694606D01*
X5681277D01*
Y8819974D01*
X5667948Y8806645D01*
X5531000Y8501000D02*
Y8554316D01*
X5557658Y8580974D01*
X5584316Y8554316D01*
Y8501000D01*
Y8540987D01*
X5531000D01*
X5664290Y8567645D02*
X5650962Y8580974D01*
X5624303D01*
X5610974Y8567645D01*
Y8514329D01*
X5624303Y8501000D01*
X5650962D01*
X5664290Y8514329D01*
X5730936Y8501000D02*
Y8580974D01*
X5690948Y8540987D01*
X5744265D01*
X5439000Y7975974D02*
Y7896000D01*
X5492316D01*
X5572290Y7975974D02*
X5518974D01*
Y7896000D01*
X5572290D01*
X5518974Y7935987D02*
X5545632D01*
X5598948Y7975974D02*
Y7896000D01*
X5638936D01*
X5652265Y7909329D01*
Y7962645D01*
X5638936Y7975974D01*
X5598948D01*
X5678923Y7896000D02*
X5705581D01*
X5692252D01*
Y7975974D01*
X5678923Y7962645D01*
X5636000Y8265000D02*
Y8318316D01*
X5662658Y8344974D01*
X5689316Y8318316D01*
Y8265000D01*
Y8304987D01*
X5636000D01*
X5715974Y8265000D02*
Y8344974D01*
X5755961D01*
X5769290Y8331645D01*
Y8304987D01*
X5755961Y8291658D01*
X5715974D01*
X5742632D02*
X5769290Y8265000D01*
X5849264D02*
X5795948D01*
X5849264Y8318316D01*
Y8331645D01*
X5835935Y8344974D01*
X5809277D01*
X5795948Y8331645D01*
X4577000Y5397000D02*
Y5450316D01*
X4603658Y5476974D01*
X4630316Y5450316D01*
Y5397000D01*
Y5436987D01*
X4577000D01*
X4710290Y5463645D02*
X4696961Y5476974D01*
X4670303D01*
X4656974Y5463645D01*
Y5410329D01*
X4670303Y5397000D01*
X4696961D01*
X4710290Y5410329D01*
X4790264Y5397000D02*
X4736948D01*
X4790264Y5450316D01*
Y5463645D01*
X4776936Y5476974D01*
X4750278D01*
X4736948Y5463645D01*
X4582960Y6672174D02*
Y6592200D01*
X4636276D01*
X4662934Y6672174D02*
Y6592200D01*
X4702921D01*
X4716250Y6605529D01*
Y6658845D01*
X4702921Y6672174D01*
X4662934D01*
X4782895D02*
X4756237D01*
X4742908Y6658845D01*
Y6605529D01*
X4756237Y6592200D01*
X4782895D01*
X4796224Y6605529D01*
Y6658845D01*
X4782895Y6672174D01*
X4822882Y6592200D02*
X4849540D01*
X4836212D01*
Y6672174D01*
X4822882Y6658845D01*
X3621000Y8174000D02*
Y8227316D01*
X3647658Y8253974D01*
X3674316Y8227316D01*
Y8174000D01*
Y8213987D01*
X3621000D01*
X3700974Y8174000D02*
Y8253974D01*
X3740962D01*
X3754290Y8240645D01*
Y8213987D01*
X3740962Y8200658D01*
X3700974D01*
X3727632D02*
X3754290Y8174000D01*
X3780948D02*
X3807607D01*
X3794278D01*
Y8253974D01*
X3780948Y8240645D01*
X4213000Y8024974D02*
Y8011645D01*
X4239658Y7984987D01*
X4266316Y8011645D01*
Y8024974D01*
X4239658Y7984987D02*
Y7945000D01*
X4292974D02*
X4319632D01*
X4306303D01*
Y8024974D01*
X4292974Y8011645D01*
X5204000Y9286974D02*
Y9220329D01*
X5217329Y9207000D01*
X5243987D01*
X5257316Y9220329D01*
Y9286974D01*
X5283974Y9273645D02*
X5297303Y9286974D01*
X5323961D01*
X5337290Y9273645D01*
Y9260316D01*
X5323961Y9246987D01*
X5310632D01*
X5323961D01*
X5337290Y9233658D01*
Y9220329D01*
X5323961Y9207000D01*
X5297303D01*
X5283974Y9220329D01*
X22239999Y4495974D02*
Y4416000D01*
X22293317D01*
X22373289Y4495974D02*
X22319974D01*
Y4455987D01*
X22346632Y4469316D01*
X22359961D01*
X22373289Y4455987D01*
Y4429329D01*
X22359961Y4416000D01*
X22333302D01*
X22319974Y4429329D01*
X22136000Y2012974D02*
Y1933000D01*
X22189316D01*
X22215974Y1999645D02*
X22229305Y2012974D01*
X22255962D01*
X22269290Y1999645D01*
Y1986316D01*
X22255962Y1972987D01*
X22269290Y1959658D01*
Y1946329D01*
X22255962Y1933000D01*
X22229305D01*
X22215974Y1946329D01*
Y1959658D01*
X22229305Y1972987D01*
X22215974Y1986316D01*
Y1999645D01*
X22229305Y1972987D02*
X22255962D01*
X19255716Y10734645D02*
X19242387Y10747974D01*
X19215729D01*
X19202400Y10734645D01*
Y10721316D01*
X19215729Y10707987D01*
X19242387D01*
X19255716Y10694658D01*
Y10681329D01*
X19242387Y10668000D01*
X19215729D01*
X19202400Y10681329D01*
X19335690Y10734645D02*
X19322362Y10747974D01*
X19295703D01*
X19282375Y10734645D01*
Y10721316D01*
X19295703Y10707987D01*
X19322362D01*
X19335690Y10694658D01*
Y10681329D01*
X19322362Y10668000D01*
X19295703D01*
X19282375Y10681329D01*
X19362347Y10668000D02*
Y10747974D01*
X19402336D01*
X19415665Y10734645D01*
Y10707987D01*
X19402336Y10694658D01*
X19362347D01*
X19389006D02*
X19415665Y10668000D01*
X19495639D02*
X19442323D01*
X19495639Y10721316D01*
Y10734645D01*
X19482310Y10747974D01*
X19455652D01*
X19442323Y10734645D01*
X11762716Y10709245D02*
X11749387Y10722574D01*
X11722729D01*
X11709400Y10709245D01*
Y10695916D01*
X11722729Y10682587D01*
X11749387D01*
X11762716Y10669258D01*
Y10655929D01*
X11749387Y10642600D01*
X11722729D01*
X11709400Y10655929D01*
X11842690Y10709245D02*
X11829361Y10722574D01*
X11802703D01*
X11789374Y10709245D01*
Y10695916D01*
X11802703Y10682587D01*
X11829361D01*
X11842690Y10669258D01*
Y10655929D01*
X11829361Y10642600D01*
X11802703D01*
X11789374Y10655929D01*
X11869348Y10642600D02*
Y10722574D01*
X11909336D01*
X11922664Y10709245D01*
Y10682587D01*
X11909336Y10669258D01*
X11869348D01*
X11896006D02*
X11922664Y10642600D01*
X11949323D02*
X11975981D01*
X11962652D01*
Y10722574D01*
X11949323Y10709245D01*
X15062199Y8178800D02*
Y8258774D01*
X15102187D01*
X15115517Y8245445D01*
Y8218787D01*
X15102187Y8205458D01*
X15062199D01*
X15088858D02*
X15115517Y8178800D01*
X15142174D02*
X15168832D01*
X15155502D01*
Y8258774D01*
X15142174Y8245445D01*
X15208820Y8178800D02*
X15235478D01*
X15222150D01*
Y8258774D01*
X15208820Y8245445D01*
X15275465Y8165471D02*
X15328781D01*
X15408755Y8245445D02*
X15395425Y8258774D01*
X15368768D01*
X15355440Y8245445D01*
Y8192129D01*
X15368768Y8178800D01*
X15395425D01*
X15408755Y8192129D01*
X11150600Y7696200D02*
Y7776174D01*
X11190587D01*
X11203916Y7762845D01*
Y7736187D01*
X11190587Y7722858D01*
X11150600D01*
X11177258D02*
X11203916Y7696200D01*
X11230574D02*
X11257232D01*
X11243903D01*
Y7776174D01*
X11230574Y7762845D01*
X11297219Y7696200D02*
X11323878D01*
X11310549D01*
Y7776174D01*
X11297219Y7762845D01*
X11363865Y7682871D02*
X11417181D01*
X11443839Y7776174D02*
Y7696200D01*
X11483826D01*
X11497155Y7709529D01*
Y7722858D01*
X11483826Y7736187D01*
X11443839D01*
X11483826D01*
X11497155Y7749516D01*
Y7762845D01*
X11483826Y7776174D01*
X11443839D01*
X17322775Y7285325D02*
X17309447Y7298654D01*
X17282790D01*
X17269460Y7285325D01*
Y7232009D01*
X17282790Y7218680D01*
X17309447D01*
X17322775Y7232009D01*
X17349434Y7218680D02*
X17376093D01*
X17362762D01*
Y7298654D01*
X17349434Y7285325D01*
X17469395Y7298654D02*
X17416080D01*
Y7258667D01*
X17442738Y7271996D01*
X17456067D01*
X17469395Y7258667D01*
Y7232009D01*
X17456067Y7218680D01*
X17429408D01*
X17416080Y7232009D01*
X17496054Y7205351D02*
X17549370D01*
X17629344Y7285325D02*
X17616016Y7298654D01*
X17589357D01*
X17576028Y7285325D01*
Y7232009D01*
X17589357Y7218680D01*
X17616016D01*
X17629344Y7232009D01*
X13947116Y7305645D02*
X13933788Y7318974D01*
X13907129D01*
X13893800Y7305645D01*
Y7252329D01*
X13907129Y7239000D01*
X13933788D01*
X13947116Y7252329D01*
X13973775Y7239000D02*
X14000432D01*
X13987103D01*
Y7318974D01*
X13973775Y7305645D01*
X14093736Y7318974D02*
X14040419D01*
Y7278987D01*
X14067078Y7292316D01*
X14080408D01*
X14093736Y7278987D01*
Y7252329D01*
X14080408Y7239000D01*
X14053749D01*
X14040419Y7252329D01*
X14120393Y7225671D02*
X14173711D01*
X14200368Y7318974D02*
Y7239000D01*
X14240355D01*
X14253683Y7252329D01*
Y7265658D01*
X14240355Y7278987D01*
X14200368D01*
X14240355D01*
X14253683Y7292316D01*
Y7305645D01*
X14240355Y7318974D01*
X14200368D01*
X5652196Y5553445D02*
X5638867Y5566774D01*
X5612209D01*
X5598880Y5553445D01*
Y5500129D01*
X5612209Y5486800D01*
X5638867D01*
X5652196Y5500129D01*
X5732170Y5486800D02*
X5678854D01*
X5732170Y5540116D01*
Y5553445D01*
X5718841Y5566774D01*
X5692183D01*
X5678854Y5553445D01*
X23040315Y10189174D02*
X23013658D01*
X23026987D01*
Y10122529D01*
X23013658Y10109200D01*
X23000330D01*
X22987000Y10122529D01*
X23066974Y10109200D02*
X23093633D01*
X23080302D01*
Y10189174D01*
X23066974Y10175845D01*
X3787116Y5172045D02*
X3773787Y5185374D01*
X3747129D01*
X3733800Y5172045D01*
Y5118729D01*
X3747129Y5105400D01*
X3773787D01*
X3787116Y5118729D01*
X3813774Y5105400D02*
X3840432D01*
X3827103D01*
Y5185374D01*
X3813774Y5172045D01*
X22491048Y7856490D02*
Y7789845D01*
X22504378Y7776516D01*
X22531035D01*
X22544363Y7789845D01*
Y7856490D01*
X22624339D02*
X22571022D01*
Y7816503D01*
X22597681Y7829832D01*
X22611011D01*
X22624339Y7816503D01*
Y7789845D01*
X22611011Y7776516D01*
X22584352D01*
X22571022Y7789845D01*
X22518401Y6334775D02*
Y6268130D01*
X22531731Y6254801D01*
X22558388D01*
X22571716Y6268130D01*
Y6334775D01*
X22651691D02*
X22625034Y6321446D01*
X22598375Y6294788D01*
Y6268130D01*
X22611703Y6254801D01*
X22638362D01*
X22651691Y6268130D01*
Y6281459D01*
X22638362Y6294788D01*
X22598375D01*
X22885400Y7924800D02*
Y8004774D01*
X22925388D01*
X22938716Y7991445D01*
Y7964787D01*
X22925388Y7951458D01*
X22885400D01*
X22912057D02*
X22938716Y7924800D01*
X23018690D02*
X22965375D01*
X23018690Y7978116D01*
Y7991445D01*
X23005360Y8004774D01*
X22978703D01*
X22965375Y7991445D01*
X23098663Y7924800D02*
X23045348D01*
X23098663Y7978116D01*
Y7991445D01*
X23085336Y8004774D01*
X23058678D01*
X23045348Y7991445D01*
X22885400Y6375400D02*
Y6455374D01*
X22925388D01*
X22938716Y6442045D01*
Y6415387D01*
X22925388Y6402058D01*
X22885400D01*
X22912057D02*
X22938716Y6375400D01*
X23018690D02*
X22965375D01*
X23018690Y6428716D01*
Y6442045D01*
X23005360Y6455374D01*
X22978703D01*
X22965375Y6442045D01*
X23045348D02*
X23058678Y6455374D01*
X23085336D01*
X23098663Y6442045D01*
Y6428716D01*
X23085336Y6415387D01*
X23072006D01*
X23085336D01*
X23098663Y6402058D01*
Y6388729D01*
X23085336Y6375400D01*
X23058678D01*
X23045348Y6388729D01*
X21846516Y6162645D02*
X21833186Y6175974D01*
X21806529D01*
X21793201Y6162645D01*
Y6109329D01*
X21806529Y6096000D01*
X21833186D01*
X21846516Y6109329D01*
X21926489Y6096000D02*
X21873174D01*
X21926489Y6149316D01*
Y6162645D01*
X21913161Y6175974D01*
X21886504D01*
X21873174Y6162645D01*
X22006464Y6175974D02*
X21979807Y6162645D01*
X21953148Y6135987D01*
Y6109329D01*
X21966478Y6096000D01*
X21993137D01*
X22006464Y6109329D01*
Y6122658D01*
X21993137Y6135987D01*
X21953148D01*
X22078316Y7842645D02*
X22064987Y7855974D01*
X22038329D01*
X22025000Y7842645D01*
Y7789329D01*
X22038329Y7776000D01*
X22064987D01*
X22078316Y7789329D01*
X22158290Y7776000D02*
X22104974D01*
X22158290Y7829316D01*
Y7842645D01*
X22144962Y7855974D01*
X22118303D01*
X22104974Y7842645D01*
X22238264Y7855974D02*
X22184949D01*
Y7815987D01*
X22211606Y7829316D01*
X22224934D01*
X22238264Y7815987D01*
Y7789329D01*
X22224934Y7776000D01*
X22198277D01*
X22184949Y7789329D01*
X3251200Y9550400D02*
Y9603716D01*
X3277858Y9630374D01*
X3304516Y9603716D01*
Y9550400D01*
Y9590387D01*
X3251200D01*
X3331174Y9550400D02*
Y9630374D01*
X3371161D01*
X3384490Y9617045D01*
Y9590387D01*
X3371161Y9577058D01*
X3331174D01*
X3357832D02*
X3384490Y9550400D01*
X3464464Y9630374D02*
X3437806Y9617045D01*
X3411148Y9590387D01*
Y9563729D01*
X3424478Y9550400D01*
X3451136D01*
X3464464Y9563729D01*
Y9577058D01*
X3451136Y9590387D01*
X3411148D01*
X14071600Y5486400D02*
Y5566374D01*
X14111588D01*
X14124916Y5553045D01*
Y5526387D01*
X14111588Y5513058D01*
X14071600D01*
X14098257D02*
X14124916Y5486400D01*
X14204890D02*
X14151575D01*
X14204890Y5539716D01*
Y5553045D01*
X14191560Y5566374D01*
X14164903D01*
X14151575Y5553045D01*
X14231548Y5499729D02*
X14244878Y5486400D01*
X14271536D01*
X14284863Y5499729D01*
Y5553045D01*
X14271536Y5566374D01*
X14244878D01*
X14231548Y5553045D01*
Y5539716D01*
X14244878Y5526387D01*
X14284863D01*
X2768600Y7344374D02*
X2795258D01*
X2781929D01*
Y7264400D01*
X2768600D01*
X2795258D01*
X2888561Y7331045D02*
X2875233Y7344374D01*
X2848574D01*
X2835245Y7331045D01*
Y7277729D01*
X2848574Y7264400D01*
X2875233D01*
X2888561Y7277729D01*
X2968536Y7331045D02*
X2955207Y7344374D01*
X2928549D01*
X2915219Y7331045D01*
Y7317716D01*
X2928549Y7304387D01*
X2955207D01*
X2968536Y7291058D01*
Y7277729D01*
X2955207Y7264400D01*
X2928549D01*
X2915219Y7277729D01*
X2995194Y7264400D02*
Y7344374D01*
X3035181D01*
X3048510Y7331045D01*
Y7304387D01*
X3035181Y7291058D01*
X2995194D01*
X3075168Y7264400D02*
X3101826D01*
X3088497D01*
Y7344374D01*
X3075168Y7331045D01*
X21124776Y9666525D02*
X21111447Y9679854D01*
X21084789D01*
X21071460Y9666525D01*
Y9613209D01*
X21084789Y9599880D01*
X21111447D01*
X21124776Y9613209D01*
X21191422Y9599880D02*
Y9679854D01*
X21151434Y9639867D01*
X21204750D01*
X21231409Y9666525D02*
X21244737Y9679854D01*
X21271396D01*
X21284724Y9666525D01*
Y9613209D01*
X21271396Y9599880D01*
X21244737D01*
X21231409Y9613209D01*
Y9666525D01*
X8181316Y8042245D02*
X8167987Y8055574D01*
X8141329D01*
X8128000Y8042245D01*
Y7988929D01*
X8141329Y7975600D01*
X8167987D01*
X8181316Y7988929D01*
X8247961Y7975600D02*
Y8055574D01*
X8207974Y8015587D01*
X8261290D01*
X8287948Y7962271D02*
X8341264D01*
X8367923Y7975600D02*
Y8028916D01*
X8394581Y8055574D01*
X8421239Y8028916D01*
Y7975600D01*
Y8015587D01*
X8367923D01*
X8813800Y6883400D02*
Y6963374D01*
X8853787D01*
X8867116Y6950045D01*
Y6923387D01*
X8853787Y6910058D01*
X8813800D01*
X8840458D02*
X8867116Y6883400D01*
X8907103Y6950045D02*
Y6936716D01*
X8893774D01*
X8920432D01*
X8907103D01*
Y6896729D01*
X8920432Y6883400D01*
X9013736Y6936716D02*
X8973749D01*
X8960419Y6923387D01*
Y6896729D01*
X8973749Y6883400D01*
X9013736D01*
X9040394D02*
X9067052D01*
X9053723D01*
Y6963374D01*
X9040394Y6950045D01*
X9107039Y6870071D02*
X9160355D01*
X9187013Y6883400D02*
Y6936716D01*
X9213671Y6963374D01*
X9240329Y6936716D01*
Y6883400D01*
Y6923387D01*
X9187013D01*
X8204200Y7547574D02*
Y7467600D01*
X8257516D01*
X8284174Y7547574D02*
X8337490D01*
X8310832D01*
Y7467600D01*
X8364148D02*
X8390806D01*
X8377478D01*
Y7547574D01*
X8364148Y7534245D01*
X8430794Y7454271D02*
X8484110D01*
X8510768Y7467600D02*
Y7520916D01*
X8537426Y7547574D01*
X8564084Y7520916D01*
Y7467600D01*
Y7507587D01*
X8510768D01*
X9194800Y7594600D02*
Y7674574D01*
X9234787D01*
X9248116Y7661245D01*
Y7634587D01*
X9234787Y7621258D01*
X9194800D01*
X9221458D02*
X9248116Y7594600D01*
X9328090Y7674574D02*
X9274774D01*
Y7634587D01*
X9301432Y7647916D01*
X9314761D01*
X9328090Y7634587D01*
Y7607929D01*
X9314761Y7594600D01*
X9288103D01*
X9274774Y7607929D01*
X9354748Y7581271D02*
X9408064D01*
X9434723Y7594600D02*
Y7647916D01*
X9461381Y7674574D01*
X9488039Y7647916D01*
Y7594600D01*
Y7634587D01*
X9434723D01*
X9245600Y7975600D02*
Y8055574D01*
X9285587D01*
X9298916Y8042245D01*
Y8015587D01*
X9285587Y8002258D01*
X9245600D01*
X9272258D02*
X9298916Y7975600D01*
X9325574Y8042245D02*
X9338903Y8055574D01*
X9365561D01*
X9378890Y8042245D01*
Y8028916D01*
X9365561Y8015587D01*
X9352232D01*
X9365561D01*
X9378890Y8002258D01*
Y7988929D01*
X9365561Y7975600D01*
X9338903D01*
X9325574Y7988929D01*
X9405548Y7962271D02*
X9458864D01*
X9485523Y7975600D02*
Y8028916D01*
X9512181Y8055574D01*
X9538839Y8028916D01*
Y7975600D01*
Y8015587D01*
X9485523D01*
X9829800Y7141174D02*
Y7061200D01*
X9869787D01*
X9883116Y7074529D01*
Y7127845D01*
X9869787Y7141174D01*
X9829800D01*
X9963090Y7061200D02*
X9909774D01*
X9963090Y7114516D01*
Y7127845D01*
X9949761Y7141174D01*
X9923103D01*
X9909774Y7127845D01*
X9989748Y7047871D02*
X10043064D01*
X10069723Y7061200D02*
Y7114516D01*
X10096381Y7141174D01*
X10123039Y7114516D01*
Y7061200D01*
Y7101187D01*
X10069723D01*
X10337800Y5943600D02*
Y6023574D01*
X10377787D01*
X10391116Y6010245D01*
Y5983587D01*
X10377787Y5970258D01*
X10337800D01*
X10364458D02*
X10391116Y5943600D01*
X10457761D02*
Y6023574D01*
X10417774Y5983587D01*
X10471090D01*
X10497748Y5930271D02*
X10551064D01*
X10577723Y5943600D02*
Y5996916D01*
X10604381Y6023574D01*
X10631039Y5996916D01*
Y5943600D01*
Y5983587D01*
X10577723D01*
X9437400Y5369575D02*
X9490717D01*
X9464059D01*
Y5289601D01*
X9517375D02*
X9544033D01*
X9530704D01*
Y5369575D01*
X9517375Y5356246D01*
X9584020Y5276272D02*
X9637336D01*
X9663994Y5289601D02*
Y5342917D01*
X9690652Y5369575D01*
X9717310Y5342917D01*
Y5289601D01*
Y5329588D01*
X9663994D01*
X7264400Y4296374D02*
Y4216400D01*
X7304387D01*
X7317716Y4229729D01*
Y4283045D01*
X7304387Y4296374D01*
X7264400D01*
X7384361Y4216400D02*
Y4296374D01*
X7344374Y4256387D01*
X7397690D01*
X7424348Y4203071D02*
X7477664D01*
X7504323Y4216400D02*
Y4269716D01*
X7530981Y4296374D01*
X7557639Y4269716D01*
Y4216400D01*
Y4256387D01*
X7504323D01*
X7317716Y4867245D02*
X7304387Y4880574D01*
X7277729D01*
X7264400Y4867245D01*
Y4813929D01*
X7277729Y4800600D01*
X7304387D01*
X7317716Y4813929D01*
X7344374D02*
X7357703Y4800600D01*
X7384361D01*
X7397690Y4813929D01*
Y4867245D01*
X7384361Y4880574D01*
X7357703D01*
X7344374Y4867245D01*
Y4853916D01*
X7357703Y4840587D01*
X7397690D01*
X7424348Y4787271D02*
X7477664D01*
X7504323Y4800600D02*
Y4853916D01*
X7530981Y4880574D01*
X7557639Y4853916D01*
Y4800600D01*
Y4840587D01*
X7504323D01*
X8712200Y8915400D02*
Y8995374D01*
X8752187D01*
X8765516Y8982045D01*
Y8955387D01*
X8752187Y8942058D01*
X8712200D01*
X8738858D02*
X8765516Y8915400D01*
X8845490D02*
X8792174D01*
X8845490Y8968716D01*
Y8982045D01*
X8832161Y8995374D01*
X8805503D01*
X8792174Y8982045D01*
X8872148Y8902071D02*
X8925464D01*
X8952123Y8915400D02*
Y8968716D01*
X8978781Y8995374D01*
X9005439Y8968716D01*
Y8915400D01*
Y8955387D01*
X8952123D01*
X9175000Y7417000D02*
Y7496974D01*
X9214987D01*
X9228316Y7483645D01*
Y7456987D01*
X9214987Y7443658D01*
X9175000D01*
X9201658D02*
X9228316Y7417000D01*
X9254974Y7470316D02*
Y7417000D01*
Y7443658D01*
X9268303Y7456987D01*
X9281632Y7470316D01*
X9294961D01*
X9374936Y7417000D02*
X9348277D01*
X9334948Y7430329D01*
Y7456987D01*
X9348277Y7470316D01*
X9374936D01*
X9388264Y7456987D01*
Y7443658D01*
X9334948D01*
X9428252Y7417000D02*
Y7483645D01*
Y7456987D01*
X9414922D01*
X9441581D01*
X9428252D01*
Y7483645D01*
X9441581Y7496974D01*
X9481568Y7417000D02*
X9508226D01*
X9494897D01*
Y7496974D01*
X9481568Y7483645D01*
X9548213Y7403671D02*
X9601529D01*
X9628187Y7417000D02*
Y7470316D01*
X9654845Y7496974D01*
X9681503Y7470316D01*
Y7417000D01*
Y7456987D01*
X9628187D01*
X8585200Y9499600D02*
Y9579574D01*
X8625187D01*
X8638516Y9566245D01*
Y9539587D01*
X8625187Y9526258D01*
X8585200D01*
X8611858D02*
X8638516Y9499600D01*
X8665174D02*
X8691832D01*
X8678503D01*
Y9579574D01*
X8665174Y9566245D01*
X8731819Y9486271D02*
X8785136D01*
X8811794Y9499600D02*
Y9552916D01*
X8838452Y9579574D01*
X8865110Y9552916D01*
Y9499600D01*
Y9539587D01*
X8811794D01*
X8966200Y4651974D02*
Y4572000D01*
X9006187D01*
X9019516Y4585329D01*
Y4638645D01*
X9006187Y4651974D01*
X8966200D01*
X9046174Y4638645D02*
X9059503Y4651974D01*
X9086161D01*
X9099490Y4638645D01*
Y4625316D01*
X9086161Y4611987D01*
X9072832D01*
X9086161D01*
X9099490Y4598658D01*
Y4585329D01*
X9086161Y4572000D01*
X9059503D01*
X9046174Y4585329D01*
X9126148Y4558671D02*
X9179464D01*
X9206123Y4572000D02*
Y4625316D01*
X9232781Y4651974D01*
X9259439Y4625316D01*
Y4572000D01*
Y4611987D01*
X9206123D01*
X10337800Y6785574D02*
Y6705600D01*
X10377787D01*
X10391116Y6718929D01*
Y6772245D01*
X10377787Y6785574D01*
X10337800D01*
X10471090D02*
X10417774D01*
Y6745587D01*
X10444432Y6758916D01*
X10457761D01*
X10471090Y6745587D01*
Y6718929D01*
X10457761Y6705600D01*
X10431103D01*
X10417774Y6718929D01*
X10497748Y6692271D02*
X10551064D01*
X10577723Y6705600D02*
Y6758916D01*
X10604381Y6785574D01*
X10631039Y6758916D01*
Y6705600D01*
Y6745587D01*
X10577723D01*
X10645116Y7102445D02*
X10631787Y7115774D01*
X10605129D01*
X10591800Y7102445D01*
Y7049129D01*
X10605129Y7035800D01*
X10631787D01*
X10645116Y7049129D01*
X10725090Y7115774D02*
X10671774D01*
Y7075787D01*
X10698432Y7089116D01*
X10711761D01*
X10725090Y7075787D01*
Y7049129D01*
X10711761Y7035800D01*
X10685103D01*
X10671774Y7049129D01*
X10751748Y7022471D02*
X10805064D01*
X10831723Y7035800D02*
Y7089116D01*
X10858381Y7115774D01*
X10885039Y7089116D01*
Y7035800D01*
Y7075787D01*
X10831723D01*
X10220316Y9278974D02*
X10167000D01*
Y9238987D01*
X10193658D01*
X10167000D01*
Y9199000D01*
X10300290D02*
X10246974D01*
X10300290Y9252316D01*
Y9265645D01*
X10286961Y9278974D01*
X10260303D01*
X10246974Y9265645D01*
X10326948Y9185671D02*
X10380264D01*
X10406923Y9199000D02*
Y9252316D01*
X10433581Y9278974D01*
X10460239Y9252316D01*
Y9199000D01*
Y9238987D01*
X10406923D01*
X7266916Y4562445D02*
X7253587Y4575774D01*
X7226929D01*
X7213600Y4562445D01*
Y4509129D01*
X7226929Y4495800D01*
X7253587D01*
X7266916Y4509129D01*
X7293574Y4495800D02*
X7320232D01*
X7306903D01*
Y4575774D01*
X7293574Y4562445D01*
X7360219D02*
X7373549Y4575774D01*
X7400207D01*
X7413536Y4562445D01*
Y4509129D01*
X7400207Y4495800D01*
X7373549D01*
X7360219Y4509129D01*
Y4562445D01*
X7440194Y4482471D02*
X7493510D01*
X7520168Y4495800D02*
Y4549116D01*
X7546826Y4575774D01*
X7573484Y4549116D01*
Y4495800D01*
Y4535787D01*
X7520168D01*
X8051800Y6985000D02*
Y7064974D01*
X8091787D01*
X8105116Y7051645D01*
Y7024987D01*
X8091787Y7011658D01*
X8051800D01*
X8078458D02*
X8105116Y6985000D01*
X8145103D02*
Y7051645D01*
Y7024987D01*
X8131774D01*
X8158432D01*
X8145103D01*
Y7051645D01*
X8158432Y7064974D01*
X8198419D02*
Y6985000D01*
X8238407D01*
X8251736Y6998329D01*
Y7011658D01*
Y7024987D01*
X8238407Y7038316D01*
X8198419D01*
X8278394Y6985000D02*
X8305052D01*
X8291723D01*
Y7064974D01*
X8278394Y7051645D01*
X8345039Y6971671D02*
X8398355D01*
X8425013Y6985000D02*
Y7038316D01*
X8451671Y7064974D01*
X8478329Y7038316D01*
Y6985000D01*
Y7024987D01*
X8425013D01*
X9499600Y9757374D02*
Y9690729D01*
X9512929Y9677400D01*
X9539587D01*
X9552916Y9690729D01*
Y9757374D01*
X9632890Y9677400D02*
X9579574D01*
X9632890Y9730716D01*
Y9744045D01*
X9619561Y9757374D01*
X9592903D01*
X9579574Y9744045D01*
X9659548Y9664071D02*
X9712864D01*
X9739523Y9677400D02*
Y9730716D01*
X9766181Y9757374D01*
X9792839Y9730716D01*
Y9677400D01*
Y9717387D01*
X9739523D01*
X9095716Y7915245D02*
X9082387Y7928574D01*
X9055729D01*
X9042400Y7915245D01*
Y7861929D01*
X9055729Y7848600D01*
X9082387D01*
X9095716Y7861929D01*
X9122374Y7848600D02*
X9149032D01*
X9135703D01*
Y7928574D01*
X9122374Y7915245D01*
X9189019Y7848600D02*
X9215678D01*
X9202349D01*
Y7928574D01*
X9189019Y7915245D01*
X9255665Y7835271D02*
X9308981D01*
X9335639Y7848600D02*
Y7901916D01*
X9362297Y7928574D01*
X9388955Y7901916D01*
Y7848600D01*
Y7888587D01*
X9335639D01*
X9883116Y9464645D02*
X9869787Y9477974D01*
X9843129D01*
X9829800Y9464645D01*
Y9411329D01*
X9843129Y9398000D01*
X9869787D01*
X9883116Y9411329D01*
X9909774Y9464645D02*
X9923103Y9477974D01*
X9949761D01*
X9963090Y9464645D01*
Y9451316D01*
X9949761Y9437987D01*
X9936432D01*
X9949761D01*
X9963090Y9424658D01*
Y9411329D01*
X9949761Y9398000D01*
X9923103D01*
X9909774Y9411329D01*
X9989748Y9384671D02*
X10043064D01*
X10069723Y9398000D02*
Y9451316D01*
X10096381Y9477974D01*
X10123039Y9451316D01*
Y9398000D01*
Y9437987D01*
X10069723D01*
X18442915Y7991445D02*
X18429587Y8004774D01*
X18402930D01*
X18389600Y7991445D01*
Y7938129D01*
X18402930Y7924800D01*
X18429587D01*
X18442915Y7938129D01*
X18509561Y7924800D02*
Y8004774D01*
X18469574Y7964787D01*
X18522890D01*
X18549548Y7911471D02*
X18602864D01*
X18629523Y8004774D02*
Y7924800D01*
X18669510D01*
X18682838Y7938129D01*
Y7991445D01*
X18669510Y8004774D01*
X18629523D01*
X19126199Y6883400D02*
Y6963374D01*
X19166187D01*
X19179517Y6950045D01*
Y6923387D01*
X19166187Y6910058D01*
X19126199D01*
X19152858D02*
X19179517Y6883400D01*
X19219502Y6950045D02*
Y6936716D01*
X19206174D01*
X19232832D01*
X19219502D01*
Y6896729D01*
X19232832Y6883400D01*
X19326135Y6936716D02*
X19286150D01*
X19272820Y6923387D01*
Y6896729D01*
X19286150Y6883400D01*
X19326135D01*
X19352794D02*
X19379453D01*
X19366122D01*
Y6963374D01*
X19352794Y6950045D01*
X19419440Y6870071D02*
X19472755D01*
X19499413Y6963374D02*
Y6883400D01*
X19539400D01*
X19552728Y6896729D01*
Y6950045D01*
X19539400Y6963374D01*
X19499413D01*
X18465800Y7547574D02*
Y7467600D01*
X18519116D01*
X18545773Y7547574D02*
X18599091D01*
X18572432D01*
Y7467600D01*
X18625748D02*
X18652406D01*
X18639078D01*
Y7547574D01*
X18625748Y7534245D01*
X18692393Y7454271D02*
X18745711D01*
X18772368Y7547574D02*
Y7467600D01*
X18812355D01*
X18825684Y7480929D01*
Y7534245D01*
X18812355Y7547574D01*
X18772368D01*
X19481799Y7594600D02*
Y7674574D01*
X19521786D01*
X19535117Y7661245D01*
Y7634587D01*
X19521786Y7621258D01*
X19481799D01*
X19508458D02*
X19535117Y7594600D01*
X19615089Y7674574D02*
X19561774D01*
Y7634587D01*
X19588432Y7647916D01*
X19601761D01*
X19615089Y7634587D01*
Y7607929D01*
X19601761Y7594600D01*
X19575104D01*
X19561774Y7607929D01*
X19641748Y7581271D02*
X19695064D01*
X19721722Y7674574D02*
Y7594600D01*
X19761710D01*
X19775040Y7607929D01*
Y7661245D01*
X19761710Y7674574D01*
X19721722D01*
X19507201Y8001000D02*
Y8080974D01*
X19547186D01*
X19560516Y8067645D01*
Y8040987D01*
X19547186Y8027658D01*
X19507201D01*
X19533858D02*
X19560516Y8001000D01*
X19587173Y8067645D02*
X19600504Y8080974D01*
X19627161D01*
X19640491Y8067645D01*
Y8054316D01*
X19627161Y8040987D01*
X19613832D01*
X19627161D01*
X19640491Y8027658D01*
Y8014329D01*
X19627161Y8001000D01*
X19600504D01*
X19587173Y8014329D01*
X19667148Y7987671D02*
X19720464D01*
X19747124Y8080974D02*
Y8001000D01*
X19787109D01*
X19800439Y8014329D01*
Y8067645D01*
X19787109Y8080974D01*
X19747124D01*
X20116800Y7191974D02*
Y7112000D01*
X20156787D01*
X20170116Y7125329D01*
Y7178645D01*
X20156787Y7191974D01*
X20116800D01*
X20250090Y7112000D02*
X20196774D01*
X20250090Y7165316D01*
Y7178645D01*
X20236761Y7191974D01*
X20210103D01*
X20196774Y7178645D01*
X20276749Y7098671D02*
X20330064D01*
X20356723Y7191974D02*
Y7112000D01*
X20396710D01*
X20410039Y7125329D01*
Y7178645D01*
X20396710Y7191974D01*
X20356723D01*
X20878799Y6299200D02*
Y6379174D01*
X20918787D01*
X20932117Y6365845D01*
Y6339187D01*
X20918787Y6325858D01*
X20878799D01*
X20905458D02*
X20932117Y6299200D01*
X20998761D02*
Y6379174D01*
X20958774Y6339187D01*
X21012090D01*
X21038748Y6285871D02*
X21092064D01*
X21118723Y6379174D02*
Y6299200D01*
X21158710D01*
X21172038Y6312529D01*
Y6365845D01*
X21158710Y6379174D01*
X21118723D01*
X19685001Y5388574D02*
X19738316D01*
X19711658D01*
Y5308600D01*
X19764973D02*
X19791632D01*
X19778304D01*
Y5388574D01*
X19764973Y5375245D01*
X19831619Y5295271D02*
X19884937D01*
X19911594Y5388574D02*
Y5308600D01*
X19951581D01*
X19964909Y5321929D01*
Y5375245D01*
X19951581Y5388574D01*
X19911594D01*
X17602200Y4296374D02*
Y4216400D01*
X17642188D01*
X17655516Y4229729D01*
Y4283045D01*
X17642188Y4296374D01*
X17602200D01*
X17722160Y4216400D02*
Y4296374D01*
X17682175Y4256387D01*
X17735490D01*
X17762148Y4203071D02*
X17815463D01*
X17842123Y4296374D02*
Y4216400D01*
X17882111D01*
X17895439Y4229729D01*
Y4283045D01*
X17882111Y4296374D01*
X17842123D01*
X17655516Y4867245D02*
X17642188Y4880574D01*
X17615529D01*
X17602200Y4867245D01*
Y4813929D01*
X17615529Y4800600D01*
X17642188D01*
X17655516Y4813929D01*
X17682175D02*
X17695503Y4800600D01*
X17722160D01*
X17735490Y4813929D01*
Y4867245D01*
X17722160Y4880574D01*
X17695503D01*
X17682175Y4867245D01*
Y4853916D01*
X17695503Y4840587D01*
X17735490D01*
X17762148Y4787271D02*
X17815463D01*
X17842123Y4880574D02*
Y4800600D01*
X17882111D01*
X17895439Y4813929D01*
Y4867245D01*
X17882111Y4880574D01*
X17842123D01*
X18999200Y8915400D02*
Y8995374D01*
X19039188D01*
X19052516Y8982045D01*
Y8955387D01*
X19039188Y8942058D01*
X18999200D01*
X19025858D02*
X19052516Y8915400D01*
X19132491D02*
X19079173D01*
X19132491Y8968716D01*
Y8982045D01*
X19119160Y8995374D01*
X19092503D01*
X19079173Y8982045D01*
X19159148Y8902071D02*
X19212463D01*
X19239124Y8995374D02*
Y8915400D01*
X19279111D01*
X19292439Y8928729D01*
Y8982045D01*
X19279111Y8995374D01*
X19239124D01*
X19477000Y7403000D02*
Y7482974D01*
X19516988D01*
X19530316Y7469645D01*
Y7442987D01*
X19516988Y7429658D01*
X19477000D01*
X19503658D02*
X19530316Y7403000D01*
X19556973Y7456316D02*
Y7403000D01*
Y7429658D01*
X19570303Y7442987D01*
X19583632Y7456316D01*
X19596960D01*
X19676935Y7403000D02*
X19650278D01*
X19636948Y7416329D01*
Y7442987D01*
X19650278Y7456316D01*
X19676935D01*
X19690263Y7442987D01*
Y7429658D01*
X19636948D01*
X19730252Y7403000D02*
Y7469645D01*
Y7442987D01*
X19716922D01*
X19743581D01*
X19730252D01*
Y7469645D01*
X19743581Y7482974D01*
X19783568Y7403000D02*
X19810226D01*
X19796896D01*
Y7482974D01*
X19783568Y7469645D01*
X19850214Y7389671D02*
X19903529D01*
X19930186Y7482974D02*
Y7403000D01*
X19970174D01*
X19983504Y7416329D01*
Y7469645D01*
X19970174Y7482974D01*
X19930186D01*
X19050000Y9474200D02*
Y9554174D01*
X19089987D01*
X19103316Y9540845D01*
Y9514187D01*
X19089987Y9500858D01*
X19050000D01*
X19076659D02*
X19103316Y9474200D01*
X19129974D02*
X19156631D01*
X19143303D01*
Y9554174D01*
X19129974Y9540845D01*
X19196619Y9460871D02*
X19249936D01*
X19276595Y9554174D02*
Y9474200D01*
X19316582D01*
X19329910Y9487529D01*
Y9540845D01*
X19316582Y9554174D01*
X19276595D01*
X19227800Y4956774D02*
Y4876800D01*
X19267787D01*
X19281116Y4890129D01*
Y4943445D01*
X19267787Y4956774D01*
X19227800D01*
X19307774Y4943445D02*
X19321103Y4956774D01*
X19347762D01*
X19361090Y4943445D01*
Y4930116D01*
X19347762Y4916787D01*
X19334431D01*
X19347762D01*
X19361090Y4903458D01*
Y4890129D01*
X19347762Y4876800D01*
X19321103D01*
X19307774Y4890129D01*
X19387749Y4863471D02*
X19441064D01*
X19467723Y4956774D02*
Y4876800D01*
X19507710D01*
X19521039Y4890129D01*
Y4943445D01*
X19507710Y4956774D01*
X19467723D01*
X20624800Y6785574D02*
Y6705600D01*
X20664787D01*
X20678116Y6718929D01*
Y6772245D01*
X20664787Y6785574D01*
X20624800D01*
X20758090D02*
X20704774D01*
Y6745587D01*
X20731432Y6758916D01*
X20744762D01*
X20758090Y6745587D01*
Y6718929D01*
X20744762Y6705600D01*
X20718103D01*
X20704774Y6718929D01*
X20784747Y6692271D02*
X20838065D01*
X20864723Y6785574D02*
Y6705600D01*
X20904710D01*
X20918039Y6718929D01*
Y6772245D01*
X20904710Y6785574D01*
X20864723D01*
X20906715Y7102445D02*
X20893387Y7115774D01*
X20866730D01*
X20853400Y7102445D01*
Y7049129D01*
X20866730Y7035800D01*
X20893387D01*
X20906715Y7049129D01*
X20986690Y7115774D02*
X20933374D01*
Y7075787D01*
X20960033Y7089116D01*
X20973361D01*
X20986690Y7075787D01*
Y7049129D01*
X20973361Y7035800D01*
X20946703D01*
X20933374Y7049129D01*
X21013348Y7022471D02*
X21066664D01*
X21093323Y7115774D02*
Y7035800D01*
X21133310D01*
X21146638Y7049129D01*
Y7102445D01*
X21133310Y7115774D01*
X21093323D01*
X21081316Y9080974D02*
X21028000D01*
Y9040987D01*
X21054659D01*
X21028000D01*
Y9001000D01*
X21161290D02*
X21107974D01*
X21161290Y9054316D01*
Y9067645D01*
X21147961Y9080974D01*
X21121303D01*
X21107974Y9067645D01*
X21187949Y8987671D02*
X21241264D01*
X21267923Y9080974D02*
Y9001000D01*
X21307910D01*
X21321239Y9014329D01*
Y9067645D01*
X21307910Y9080974D01*
X21267923D01*
X17579317Y4562445D02*
X17565987Y4575774D01*
X17539330D01*
X17525999Y4562445D01*
Y4509129D01*
X17539330Y4495800D01*
X17565987D01*
X17579317Y4509129D01*
X17605974Y4495800D02*
X17632632D01*
X17619302D01*
Y4575774D01*
X17605974Y4562445D01*
X17672620D02*
X17685950Y4575774D01*
X17712607D01*
X17725935Y4562445D01*
Y4509129D01*
X17712607Y4495800D01*
X17685950D01*
X17672620Y4509129D01*
Y4562445D01*
X17752594Y4482471D02*
X17805910D01*
X17832568Y4575774D02*
Y4495800D01*
X17872556D01*
X17885884Y4509129D01*
Y4562445D01*
X17872556Y4575774D01*
X17832568D01*
X18338800Y6985000D02*
Y7064974D01*
X18378787D01*
X18392116Y7051645D01*
Y7024987D01*
X18378787Y7011658D01*
X18338800D01*
X18365459D02*
X18392116Y6985000D01*
X18432103D02*
Y7051645D01*
Y7024987D01*
X18418774D01*
X18445432D01*
X18432103D01*
Y7051645D01*
X18445432Y7064974D01*
X18485419D02*
Y6985000D01*
X18525407D01*
X18538736Y6998329D01*
Y7011658D01*
Y7024987D01*
X18525407Y7038316D01*
X18485419D01*
X18565395Y6985000D02*
X18592052D01*
X18578723D01*
Y7064974D01*
X18565395Y7051645D01*
X18632039Y6971671D02*
X18685355D01*
X18712013Y7064974D02*
Y6985000D01*
X18752000D01*
X18765329Y6998329D01*
Y7051645D01*
X18752000Y7064974D01*
X18712013D01*
X19735800Y9681174D02*
Y9614529D01*
X19749129Y9601200D01*
X19775787D01*
X19789116Y9614529D01*
Y9681174D01*
X19869090Y9601200D02*
X19815775D01*
X19869090Y9654516D01*
Y9667845D01*
X19855762Y9681174D01*
X19829103D01*
X19815775Y9667845D01*
X19895747Y9587871D02*
X19949065D01*
X19975723Y9681174D02*
Y9601200D01*
X20015710D01*
X20029039Y9614529D01*
Y9667845D01*
X20015710Y9681174D01*
X19975723D01*
X19382716Y7915245D02*
X19369386Y7928574D01*
X19342729D01*
X19329401Y7915245D01*
Y7861929D01*
X19342729Y7848600D01*
X19369386D01*
X19382716Y7861929D01*
X19409373Y7848600D02*
X19436032D01*
X19422704D01*
Y7928574D01*
X19409373Y7915245D01*
X19476019Y7848600D02*
X19502678D01*
X19489349D01*
Y7928574D01*
X19476019Y7915245D01*
X19542665Y7835271D02*
X19595981D01*
X19622639Y7928574D02*
Y7848600D01*
X19662627D01*
X19675955Y7861929D01*
Y7915245D01*
X19662627Y7928574D01*
X19622639D01*
X20220917Y9464645D02*
X20207587Y9477974D01*
X20180930D01*
X20167599Y9464645D01*
Y9411329D01*
X20180930Y9398000D01*
X20207587D01*
X20220917Y9411329D01*
X20247574Y9464645D02*
X20260902Y9477974D01*
X20287561D01*
X20300890Y9464645D01*
Y9451316D01*
X20287561Y9437987D01*
X20274232D01*
X20287561D01*
X20300890Y9424658D01*
Y9411329D01*
X20287561Y9398000D01*
X20260902D01*
X20247574Y9411329D01*
X20327548Y9384671D02*
X20380864D01*
X20407523Y9477974D02*
Y9398000D01*
X20447510D01*
X20460838Y9411329D01*
Y9464645D01*
X20447510Y9477974D01*
X20407523D01*
X10924516Y5857845D02*
X10911187Y5871174D01*
X10884529D01*
X10871200Y5857845D01*
Y5804529D01*
X10884529Y5791200D01*
X10911187D01*
X10924516Y5804529D01*
X10991161Y5791200D02*
Y5871174D01*
X10951174Y5831187D01*
X11004490D01*
X11031148Y5871174D02*
X11084464D01*
Y5857845D01*
X11031148Y5804529D01*
Y5791200D01*
X14048717Y6264245D02*
X14035387Y6277574D01*
X14008730D01*
X13995399Y6264245D01*
Y6210929D01*
X14008730Y6197600D01*
X14035387D01*
X14048717Y6210929D01*
X14115361Y6197600D02*
Y6277574D01*
X14075374Y6237587D01*
X14128690D01*
X14208664Y6277574D02*
X14155348D01*
Y6237587D01*
X14182005Y6250916D01*
X14195335D01*
X14208664Y6237587D01*
Y6210929D01*
X14195335Y6197600D01*
X14168678D01*
X14155348Y6210929D01*
X16582317Y3257645D02*
X16568987Y3270974D01*
X16542329D01*
X16528999Y3257645D01*
Y3204329D01*
X16542329Y3191000D01*
X16568987D01*
X16582317Y3204329D01*
X16608974Y3257645D02*
X16622302Y3270974D01*
X16648961D01*
X16662289Y3257645D01*
Y3244316D01*
X16648961Y3230987D01*
X16635632D01*
X16648961D01*
X16662289Y3217658D01*
Y3204329D01*
X16648961Y3191000D01*
X16622302D01*
X16608974Y3204329D01*
X16688948Y3257645D02*
X16702277Y3270974D01*
X16728935D01*
X16742264Y3257645D01*
Y3204329D01*
X16728935Y3191000D01*
X16702277D01*
X16688948Y3204329D01*
Y3257645D01*
X17752116Y2972445D02*
X17738786Y2985774D01*
X17712129D01*
X17698801Y2972445D01*
Y2919129D01*
X17712129Y2905800D01*
X17738786D01*
X17752116Y2919129D01*
X17832091Y2905800D02*
X17778773D01*
X17832091Y2959116D01*
Y2972445D01*
X17818761Y2985774D01*
X17792104D01*
X17778773Y2972445D01*
X17858748Y2919129D02*
X17872078Y2905800D01*
X17898737D01*
X17912065Y2919129D01*
Y2972445D01*
X17898737Y2985774D01*
X17872078D01*
X17858748Y2972445D01*
Y2959116D01*
X17872078Y2945787D01*
X17912065D01*
X18071117Y2969445D02*
X18057787Y2982774D01*
X18031129D01*
X18017799Y2969445D01*
Y2916129D01*
X18031129Y2902800D01*
X18057787D01*
X18071117Y2916129D01*
X18151089Y2902800D02*
X18097774D01*
X18151089Y2956116D01*
Y2969445D01*
X18137761Y2982774D01*
X18111102D01*
X18097774Y2969445D01*
X18177748D02*
X18191077Y2982774D01*
X18217735D01*
X18231064Y2969445D01*
Y2956116D01*
X18217735Y2942787D01*
X18231064Y2929458D01*
Y2916129D01*
X18217735Y2902800D01*
X18191077D01*
X18177748Y2916129D01*
Y2929458D01*
X18191077Y2942787D01*
X18177748Y2956116D01*
Y2969445D01*
X18191077Y2942787D02*
X18217735D01*
X18390115Y2972445D02*
X18376787Y2985774D01*
X18350130D01*
X18336800Y2972445D01*
Y2919129D01*
X18350130Y2905800D01*
X18376787D01*
X18390115Y2919129D01*
X18470090Y2905800D02*
X18416774D01*
X18470090Y2959116D01*
Y2972445D01*
X18456761Y2985774D01*
X18430103D01*
X18416774Y2972445D01*
X18496748Y2985774D02*
X18550064D01*
Y2972445D01*
X18496748Y2919129D01*
Y2905800D01*
X8898316Y3164645D02*
X8884987Y3177974D01*
X8858329D01*
X8845000Y3164645D01*
Y3111329D01*
X8858329Y3098000D01*
X8884987D01*
X8898316Y3111329D01*
X8964961Y3098000D02*
Y3177974D01*
X8924974Y3137987D01*
X8978290D01*
X9044936Y3098000D02*
Y3177974D01*
X9004948Y3137987D01*
X9058265D01*
X8737116Y1744845D02*
X8723787Y1758174D01*
X8697129D01*
X8683800Y1744845D01*
Y1691529D01*
X8697129Y1678200D01*
X8723787D01*
X8737116Y1691529D01*
X8803761Y1678200D02*
Y1758174D01*
X8763774Y1718187D01*
X8817090D01*
X8843748Y1744845D02*
X8857078Y1758174D01*
X8883736D01*
X8897065Y1744845D01*
Y1731516D01*
X8883736Y1718187D01*
X8870406D01*
X8883736D01*
X8897065Y1704858D01*
Y1691529D01*
X8883736Y1678200D01*
X8857078D01*
X8843748Y1691529D01*
X9008716Y1741845D02*
X8995387Y1755174D01*
X8968729D01*
X8955400Y1741845D01*
Y1688529D01*
X8968729Y1675200D01*
X8995387D01*
X9008716Y1688529D01*
X9075361Y1675200D02*
Y1755174D01*
X9035374Y1715187D01*
X9088690D01*
X9168664Y1675200D02*
X9115348D01*
X9168664Y1728516D01*
Y1741845D01*
X9155336Y1755174D01*
X9128677D01*
X9115348Y1741845D01*
X9308716Y1742845D02*
X9295387Y1756174D01*
X9268729D01*
X9255400Y1742845D01*
Y1689529D01*
X9268729Y1676200D01*
X9295387D01*
X9308716Y1689529D01*
X9375361Y1676200D02*
Y1756174D01*
X9335374Y1716187D01*
X9388690D01*
X9415348Y1676200D02*
X9442007D01*
X9428678D01*
Y1756174D01*
X9415348Y1742845D01*
X17558000Y3903974D02*
Y3824000D01*
X17611316D01*
X17637975D02*
X17664632D01*
X17651303D01*
Y3903974D01*
X17637975Y3890645D01*
X7949000Y2060974D02*
Y1981000D01*
X8002316D01*
X8068962D02*
Y2060974D01*
X8028974Y2020987D01*
X8082290D01*
X17066000Y4104000D02*
Y4183974D01*
X17105988D01*
X17119316Y4170645D01*
Y4143987D01*
X17105988Y4130658D01*
X17066000D01*
X17092657D02*
X17119316Y4104000D01*
X17199290D02*
X17145975D01*
X17199290Y4157316D01*
Y4170645D01*
X17185960Y4183974D01*
X17159303D01*
X17145975Y4170645D01*
X17265935Y4104000D02*
Y4183974D01*
X17225948Y4143987D01*
X17279263D01*
X7336000Y2615000D02*
Y2694974D01*
X7375987D01*
X7389316Y2681645D01*
Y2654987D01*
X7375987Y2641658D01*
X7336000D01*
X7362658D02*
X7389316Y2615000D01*
X7415974Y2681645D02*
X7429303Y2694974D01*
X7455961D01*
X7469290Y2681645D01*
Y2668316D01*
X7455961Y2654987D01*
X7442632D01*
X7455961D01*
X7469290Y2641658D01*
Y2628329D01*
X7455961Y2615000D01*
X7429303D01*
X7415974Y2628329D01*
X7495948Y2615000D02*
X7522606D01*
X7509278D01*
Y2694974D01*
X7495948Y2681645D01*
X3225800Y2997200D02*
Y3077174D01*
X3265787D01*
X3279116Y3063845D01*
Y3037187D01*
X3265787Y3023858D01*
X3225800D01*
X3252458D02*
X3279116Y2997200D01*
X3305774Y3063845D02*
X3319103Y3077174D01*
X3345761D01*
X3359090Y3063845D01*
Y3050516D01*
X3345761Y3037187D01*
X3332432D01*
X3345761D01*
X3359090Y3023858D01*
Y3010529D01*
X3345761Y2997200D01*
X3319103D01*
X3305774Y3010529D01*
X3439064Y2997200D02*
X3385748D01*
X3439064Y3050516D01*
Y3063845D01*
X3425736Y3077174D01*
X3399078D01*
X3385748Y3063845D01*
X3149600Y3581400D02*
Y3661374D01*
X3189587D01*
X3202916Y3648045D01*
Y3621387D01*
X3189587Y3608058D01*
X3149600D01*
X3176258D02*
X3202916Y3581400D01*
X3229574Y3648045D02*
X3242903Y3661374D01*
X3269561D01*
X3282890Y3648045D01*
Y3634716D01*
X3269561Y3621387D01*
X3256232D01*
X3269561D01*
X3282890Y3608058D01*
Y3594729D01*
X3269561Y3581400D01*
X3242903D01*
X3229574Y3594729D01*
X3309548Y3648045D02*
X3322878Y3661374D01*
X3349536D01*
X3362864Y3648045D01*
Y3634716D01*
X3349536Y3621387D01*
X3336206D01*
X3349536D01*
X3362864Y3608058D01*
Y3594729D01*
X3349536Y3581400D01*
X3322878D01*
X3309548Y3594729D01*
X3429000Y4318000D02*
Y4397974D01*
X3468987D01*
X3482316Y4384645D01*
Y4357987D01*
X3468987Y4344658D01*
X3429000D01*
X3455658D02*
X3482316Y4318000D01*
X3508974Y4384645D02*
X3522303Y4397974D01*
X3548961D01*
X3562290Y4384645D01*
Y4371316D01*
X3548961Y4357987D01*
X3535632D01*
X3548961D01*
X3562290Y4344658D01*
Y4331329D01*
X3548961Y4318000D01*
X3522303D01*
X3508974Y4331329D01*
X3628936Y4318000D02*
Y4397974D01*
X3588948Y4357987D01*
X3642264D01*
X3500000Y9058000D02*
Y9137974D01*
X3539987D01*
X3553316Y9124645D01*
Y9097987D01*
X3539987Y9084658D01*
X3500000D01*
X3526658D02*
X3553316Y9058000D01*
X3633290D02*
X3579974D01*
X3633290Y9111316D01*
Y9124645D01*
X3619962Y9137974D01*
X3593303D01*
X3579974Y9124645D01*
X3659948Y9137974D02*
X3713265D01*
Y9124645D01*
X3659948Y9071329D01*
Y9058000D01*
X3098800Y8255000D02*
Y8334974D01*
X3138787D01*
X3152116Y8321645D01*
Y8294987D01*
X3138787Y8281658D01*
X3098800D01*
X3125458D02*
X3152116Y8255000D01*
X3232090D02*
X3178774D01*
X3232090Y8308316D01*
Y8321645D01*
X3218761Y8334974D01*
X3192103D01*
X3178774Y8321645D01*
X3258748D02*
X3272078Y8334974D01*
X3298736D01*
X3312064Y8321645D01*
Y8308316D01*
X3298736Y8294987D01*
X3312064Y8281658D01*
Y8268329D01*
X3298736Y8255000D01*
X3272078D01*
X3258748Y8268329D01*
Y8281658D01*
X3272078Y8294987D01*
X3258748Y8308316D01*
Y8321645D01*
X3272078Y8294987D02*
X3298736D01*
X2924200Y2873974D02*
Y2794000D01*
X2964187D01*
X2977516Y2807329D01*
Y2860645D01*
X2964187Y2873974D01*
X2924200D01*
X3004174Y2794000D02*
X3030832D01*
X3017503D01*
Y2873974D01*
X3004174Y2860645D01*
X3070819Y2794000D02*
X3097477D01*
X3084149D01*
Y2873974D01*
X3070819Y2860645D01*
X2921000Y3508974D02*
Y3429000D01*
X2960987D01*
X2974316Y3442329D01*
Y3495645D01*
X2960987Y3508974D01*
X2921000D01*
X3000974Y3429000D02*
X3027632D01*
X3014303D01*
Y3508974D01*
X3000974Y3495645D01*
X3120936Y3429000D02*
X3067619D01*
X3120936Y3482316D01*
Y3495645D01*
X3107607Y3508974D01*
X3080949D01*
X3067619Y3495645D01*
X2924200Y4143974D02*
Y4064000D01*
X2964187D01*
X2977516Y4077329D01*
Y4130645D01*
X2964187Y4143974D01*
X2924200D01*
X3004174Y4064000D02*
X3030832D01*
X3017503D01*
Y4143974D01*
X3004174Y4130645D01*
X3070819D02*
X3084149Y4143974D01*
X3110807D01*
X3124135Y4130645D01*
Y4117316D01*
X3110807Y4103987D01*
X3097477D01*
X3110807D01*
X3124135Y4090658D01*
Y4077329D01*
X3110807Y4064000D01*
X3084149D01*
X3070819Y4077329D01*
X2924200Y4778974D02*
Y4699000D01*
X2964187D01*
X2977516Y4712329D01*
Y4765645D01*
X2964187Y4778974D01*
X2924200D01*
X3004174Y4699000D02*
X3030832D01*
X3017503D01*
Y4778974D01*
X3004174Y4765645D01*
X3110807Y4699000D02*
Y4778974D01*
X3070819Y4738987D01*
X3124135D01*
X2921000Y9274774D02*
Y9194800D01*
X2960987D01*
X2974316Y9208129D01*
Y9261445D01*
X2960987Y9274774D01*
X2921000D01*
X3000974Y9208129D02*
X3014303Y9194800D01*
X3040961D01*
X3054290Y9208129D01*
Y9261445D01*
X3040961Y9274774D01*
X3014303D01*
X3000974Y9261445D01*
Y9248116D01*
X3014303Y9234787D01*
X3054290D01*
X2921000Y8614374D02*
Y8534400D01*
X2960987D01*
X2974316Y8547729D01*
Y8601045D01*
X2960987Y8614374D01*
X2921000D01*
X3000974Y8534400D02*
X3027632D01*
X3014303D01*
Y8614374D01*
X3000974Y8601045D01*
X3067619D02*
X3080949Y8614374D01*
X3107607D01*
X3120936Y8601045D01*
Y8547729D01*
X3107607Y8534400D01*
X3080949D01*
X3067619Y8547729D01*
Y8601045D01*
X2921000Y9884374D02*
Y9804400D01*
X2974316D01*
X3054290Y9884374D02*
X3000974D01*
Y9804400D01*
X3054290D01*
X3000974Y9844387D02*
X3027632D01*
X3080948Y9884374D02*
Y9804400D01*
X3120936D01*
X3134264Y9817729D01*
Y9871045D01*
X3120936Y9884374D01*
X3080948D01*
X3214239Y9804400D02*
X3160923D01*
X3214239Y9857716D01*
Y9871045D01*
X3200910Y9884374D01*
X3174252D01*
X3160923Y9871045D01*
X2311400Y5842000D02*
Y5921974D01*
X2351387D01*
X2364716Y5908645D01*
Y5881987D01*
X2351387Y5868658D01*
X2311400D01*
X2338058D02*
X2364716Y5842000D01*
X2444690Y5921974D02*
X2391374D01*
Y5842000D01*
X2444690D01*
X2391374Y5881987D02*
X2418032D01*
X2524664Y5908645D02*
X2511336Y5921974D01*
X2484678D01*
X2471348Y5908645D01*
Y5895316D01*
X2484678Y5881987D01*
X2511336D01*
X2524664Y5868658D01*
Y5855329D01*
X2511336Y5842000D01*
X2484678D01*
X2471348Y5855329D01*
X2604639Y5921974D02*
X2551323D01*
Y5842000D01*
X2604639D01*
X2551323Y5881987D02*
X2577981D01*
X2631297Y5921974D02*
X2684613D01*
X2657955D01*
Y5842000D01*
X2711271D02*
X2737929D01*
X2724600D01*
Y5921974D01*
X2711271Y5908645D01*
X22416000Y9602974D02*
Y9523000D01*
X22455988D01*
X22469316Y9536329D01*
Y9589645D01*
X22455988Y9602974D01*
X22416000D01*
X22495975D02*
X22549290D01*
X22522632D01*
Y9523000D01*
X22575948Y9602974D02*
Y9549658D01*
X22602608Y9523000D01*
X22629265Y9549658D01*
Y9602974D01*
X22709239Y9589645D02*
X22695911Y9602974D01*
X22669252D01*
X22655923Y9589645D01*
Y9576316D01*
X22669252Y9562987D01*
X22695911D01*
X22709239Y9549658D01*
Y9536329D01*
X22695911Y9523000D01*
X22669252D01*
X22655923Y9536329D01*
X22789214Y9523000D02*
X22735896D01*
X22789214Y9576316D01*
Y9589645D01*
X22775883Y9602974D01*
X22749226D01*
X22735896Y9589645D01*
X11023600Y10007600D02*
Y10087574D01*
X11063587D01*
X11076916Y10074245D01*
Y10047587D01*
X11063587Y10034258D01*
X11023600D01*
X11050258D02*
X11076916Y10007600D01*
X11103574Y10087574D02*
X11156890D01*
Y10074245D01*
X11103574Y10020929D01*
Y10007600D01*
X11183548Y9994271D02*
X11236864D01*
X11263523Y10087574D02*
Y10007600D01*
X11303510D01*
X11316839Y10020929D01*
Y10034258D01*
X11303510Y10047587D01*
X11263523D01*
X11303510D01*
X11316839Y10060916D01*
Y10074245D01*
X11303510Y10087574D01*
X11263523D01*
X11836400Y9728200D02*
Y9808174D01*
X11876387D01*
X11889716Y9794845D01*
Y9768187D01*
X11876387Y9754858D01*
X11836400D01*
X11863058D02*
X11889716Y9728200D01*
X11969690Y9808174D02*
X11943032Y9794845D01*
X11916374Y9768187D01*
Y9741529D01*
X11929703Y9728200D01*
X11956361D01*
X11969690Y9741529D01*
Y9754858D01*
X11956361Y9768187D01*
X11916374D01*
X11996348Y9714871D02*
X12049664D01*
X12076323Y9808174D02*
Y9728200D01*
X12116310D01*
X12129639Y9741529D01*
Y9754858D01*
X12116310Y9768187D01*
X12076323D01*
X12116310D01*
X12129639Y9781516D01*
Y9794845D01*
X12116310Y9808174D01*
X12076323D01*
X11619316Y8370974D02*
X11566000D01*
Y8330987D01*
X11592658D01*
X11566000D01*
Y8291000D01*
X11645974Y8357645D02*
X11659303Y8370974D01*
X11685961D01*
X11699290Y8357645D01*
Y8344316D01*
X11685961Y8330987D01*
X11672632D01*
X11685961D01*
X11699290Y8317658D01*
Y8304329D01*
X11685961Y8291000D01*
X11659303D01*
X11645974Y8304329D01*
X11725948Y8277671D02*
X11779264D01*
X11805923Y8370974D02*
Y8291000D01*
X11845910D01*
X11859239Y8304329D01*
Y8317658D01*
X11845910Y8330987D01*
X11805923D01*
X11845910D01*
X11859239Y8344316D01*
Y8357645D01*
X11845910Y8370974D01*
X11805923D01*
X11811000Y9528774D02*
Y9462129D01*
X11824329Y9448800D01*
X11850987D01*
X11864316Y9462129D01*
Y9528774D01*
X11890974Y9515445D02*
X11904303Y9528774D01*
X11930961D01*
X11944290Y9515445D01*
Y9502116D01*
X11930961Y9488787D01*
X11917632D01*
X11930961D01*
X11944290Y9475458D01*
Y9462129D01*
X11930961Y9448800D01*
X11904303D01*
X11890974Y9462129D01*
X11970948Y9435471D02*
X12024264D01*
X12050923Y9528774D02*
Y9448800D01*
X12090910D01*
X12104239Y9462129D01*
Y9475458D01*
X12090910Y9488787D01*
X12050923D01*
X12090910D01*
X12104239Y9502116D01*
Y9515445D01*
X12090910Y9528774D01*
X12050923D01*
X11534116Y9134445D02*
X11520787Y9147774D01*
X11494129D01*
X11480800Y9134445D01*
Y9081129D01*
X11494129Y9067800D01*
X11520787D01*
X11534116Y9081129D01*
X11560774Y9067800D02*
X11587432D01*
X11574103D01*
Y9147774D01*
X11560774Y9134445D01*
X11680736Y9067800D02*
X11627419D01*
X11680736Y9121116D01*
Y9134445D01*
X11667407Y9147774D01*
X11640749D01*
X11627419Y9134445D01*
X11707394Y9054471D02*
X11760710D01*
X11787368Y9147774D02*
Y9067800D01*
X11827355D01*
X11840684Y9081129D01*
Y9094458D01*
X11827355Y9107787D01*
X11787368D01*
X11827355D01*
X11840684Y9121116D01*
Y9134445D01*
X11827355Y9147774D01*
X11787368D01*
X11737316Y3673445D02*
X11723987Y3686774D01*
X11697329D01*
X11684000Y3673445D01*
Y3620129D01*
X11697329Y3606800D01*
X11723987D01*
X11737316Y3620129D01*
X11817290Y3606800D02*
X11763974D01*
X11817290Y3660116D01*
Y3673445D01*
X11803961Y3686774D01*
X11777303D01*
X11763974Y3673445D01*
X11843948D02*
X11857278Y3686774D01*
X11883936D01*
X11897264Y3673445D01*
Y3620129D01*
X11883936Y3606800D01*
X11857278D01*
X11843948Y3620129D01*
Y3673445D01*
X11923923Y3593471D02*
X11977239D01*
X12003897Y3686774D02*
Y3606800D01*
X12043884D01*
X12057213Y3620129D01*
Y3633458D01*
X12043884Y3646787D01*
X12003897D01*
X12043884D01*
X12057213Y3660116D01*
Y3673445D01*
X12043884Y3686774D01*
X12003897D01*
X11737316Y3902045D02*
X11723987Y3915374D01*
X11697329D01*
X11684000Y3902045D01*
Y3848729D01*
X11697329Y3835400D01*
X11723987D01*
X11737316Y3848729D01*
X11763974Y3835400D02*
X11790632D01*
X11777303D01*
Y3915374D01*
X11763974Y3902045D01*
X11830619Y3848729D02*
X11843949Y3835400D01*
X11870607D01*
X11883936Y3848729D01*
Y3902045D01*
X11870607Y3915374D01*
X11843949D01*
X11830619Y3902045D01*
Y3888716D01*
X11843949Y3875387D01*
X11883936D01*
X11910594Y3822071D02*
X11963910D01*
X11990568Y3915374D02*
Y3835400D01*
X12030555D01*
X12043884Y3848729D01*
Y3862058D01*
X12030555Y3875387D01*
X11990568D01*
X12030555D01*
X12043884Y3888716D01*
Y3902045D01*
X12030555Y3915374D01*
X11990568D01*
X13587601Y8864600D02*
Y8944574D01*
X13627586D01*
X13640916Y8931245D01*
Y8904587D01*
X13627586Y8891258D01*
X13587601D01*
X13614258D02*
X13640916Y8864600D01*
X13667574D02*
X13694232D01*
X13680904D01*
Y8944574D01*
X13667574Y8931245D01*
X13734219D02*
X13747549Y8944574D01*
X13774207D01*
X13787537Y8931245D01*
Y8917916D01*
X13774207Y8904587D01*
X13760876D01*
X13774207D01*
X13787537Y8891258D01*
Y8877929D01*
X13774207Y8864600D01*
X13747549D01*
X13734219Y8877929D01*
X13814194Y8851271D02*
X13867509D01*
X13894168Y8944574D02*
Y8864600D01*
X13934155D01*
X13947484Y8877929D01*
Y8891258D01*
X13934155Y8904587D01*
X13894168D01*
X13934155D01*
X13947484Y8917916D01*
Y8931245D01*
X13934155Y8944574D01*
X13894168D01*
X13667715Y6569045D02*
X13654387Y6582374D01*
X13627728D01*
X13614400Y6569045D01*
Y6515729D01*
X13627728Y6502400D01*
X13654387D01*
X13667715Y6515729D01*
X13694374Y6502400D02*
X13721033D01*
X13707703D01*
Y6582374D01*
X13694374Y6569045D01*
X13801007Y6502400D02*
Y6582374D01*
X13761018Y6542387D01*
X13814336D01*
X13840994Y6489071D02*
X13894310D01*
X13920969Y6582374D02*
Y6502400D01*
X13960954D01*
X13974284Y6515729D01*
Y6529058D01*
X13960954Y6542387D01*
X13920969D01*
X13960954D01*
X13974284Y6555716D01*
Y6569045D01*
X13960954Y6582374D01*
X13920969D01*
X13743916Y8499445D02*
X13730586Y8512774D01*
X13703929D01*
X13690601Y8499445D01*
Y8446129D01*
X13703929Y8432800D01*
X13730586D01*
X13743916Y8446129D01*
X13770573Y8432800D02*
X13797232D01*
X13783904D01*
Y8512774D01*
X13770573Y8499445D01*
X13837219D02*
X13850549Y8512774D01*
X13877206D01*
X13890536Y8499445D01*
Y8486116D01*
X13877206Y8472787D01*
X13863878D01*
X13877206D01*
X13890536Y8459458D01*
Y8446129D01*
X13877206Y8432800D01*
X13850549D01*
X13837219Y8446129D01*
X13917194Y8419471D02*
X13970509D01*
X13997168Y8512774D02*
Y8432800D01*
X14037155D01*
X14050484Y8446129D01*
Y8459458D01*
X14037155Y8472787D01*
X13997168D01*
X14037155D01*
X14050484Y8486116D01*
Y8499445D01*
X14037155Y8512774D01*
X13997168D01*
X12217400Y7696200D02*
Y7776174D01*
X12257387D01*
X12270716Y7762845D01*
Y7736187D01*
X12257387Y7722858D01*
X12217400D01*
X12244058D02*
X12270716Y7696200D01*
X12297374D02*
X12324032D01*
X12310703D01*
Y7776174D01*
X12297374Y7762845D01*
X12364019D02*
X12377349Y7776174D01*
X12404007D01*
X12417336Y7762845D01*
Y7709529D01*
X12404007Y7696200D01*
X12377349D01*
X12364019Y7709529D01*
Y7762845D01*
X12443994Y7682871D02*
X12497310D01*
X12523968Y7776174D02*
Y7696200D01*
X12563955D01*
X12577284Y7709529D01*
Y7722858D01*
X12563955Y7736187D01*
X12523968D01*
X12563955D01*
X12577284Y7749516D01*
Y7762845D01*
X12563955Y7776174D01*
X12523968D01*
X12575516Y7915245D02*
X12562187Y7928574D01*
X12535529D01*
X12522200Y7915245D01*
Y7861929D01*
X12535529Y7848600D01*
X12562187D01*
X12575516Y7861929D01*
X12602174Y7848600D02*
X12628832D01*
X12615503D01*
Y7928574D01*
X12602174Y7915245D01*
X12668819D02*
X12682149Y7928574D01*
X12708807D01*
X12722136Y7915245D01*
Y7901916D01*
X12708807Y7888587D01*
X12722136Y7875258D01*
Y7861929D01*
X12708807Y7848600D01*
X12682149D01*
X12668819Y7861929D01*
Y7875258D01*
X12682149Y7888587D01*
X12668819Y7901916D01*
Y7915245D01*
X12682149Y7888587D02*
X12708807D01*
X12748794Y7835271D02*
X12802110D01*
X12828767Y7928574D02*
Y7848600D01*
X12868755D01*
X12882085Y7861929D01*
Y7875258D01*
X12868755Y7888587D01*
X12828767D01*
X12868755D01*
X12882085Y7901916D01*
Y7915245D01*
X12868755Y7928574D01*
X12828767D01*
X13086600Y8334974D02*
Y8268329D01*
X13099928Y8255000D01*
X13126587D01*
X13139915Y8268329D01*
Y8334974D01*
X13206561Y8255000D02*
Y8334974D01*
X13166574Y8294987D01*
X13219890D01*
X13246548Y8241671D02*
X13299864D01*
X13326521Y8334974D02*
Y8255000D01*
X13366510D01*
X13379839Y8268329D01*
Y8281658D01*
X13366510Y8294987D01*
X13326521D01*
X13366510D01*
X13379839Y8308316D01*
Y8321645D01*
X13366510Y8334974D01*
X13326521D01*
X11049000Y7217374D02*
X11102316D01*
X11075658D01*
Y7137400D01*
X11182290D02*
X11128974D01*
X11182290Y7190716D01*
Y7204045D01*
X11168961Y7217374D01*
X11142303D01*
X11128974Y7204045D01*
X11208948Y7124071D02*
X11262264D01*
X11288923Y7217374D02*
Y7137400D01*
X11328910D01*
X11342239Y7150729D01*
Y7164058D01*
X11328910Y7177387D01*
X11288923D01*
X11328910D01*
X11342239Y7190716D01*
Y7204045D01*
X11328910Y7217374D01*
X11288923D01*
X13665199Y7340600D02*
Y7420574D01*
X13705186D01*
X13718517Y7407245D01*
Y7380587D01*
X13705186Y7367258D01*
X13665199D01*
X13691858D02*
X13718517Y7340600D01*
X13745174D02*
X13771832D01*
X13758504D01*
Y7420574D01*
X13745174Y7407245D01*
X13811819Y7420574D02*
X13865137D01*
Y7407245D01*
X13811819Y7353929D01*
Y7340600D01*
X13891794Y7327271D02*
X13945110D01*
X13971768Y7420574D02*
Y7340600D01*
X14011755D01*
X14025084Y7353929D01*
Y7367258D01*
X14011755Y7380587D01*
X13971768D01*
X14011755D01*
X14025084Y7393916D01*
Y7407245D01*
X14011755Y7420574D01*
X13971768D01*
X13284200Y9194800D02*
Y9274774D01*
X13324187D01*
X13337515Y9261445D01*
Y9234787D01*
X13324187Y9221458D01*
X13284200D01*
X13310858D02*
X13337515Y9194800D01*
X13364174D02*
X13390833D01*
X13377502D01*
Y9274774D01*
X13364174Y9261445D01*
X13484135Y9194800D02*
X13430820D01*
X13484135Y9248116D01*
Y9261445D01*
X13470807Y9274774D01*
X13444148D01*
X13430820Y9261445D01*
X13510794Y9181471D02*
X13564110D01*
X13590768Y9274774D02*
Y9194800D01*
X13630756D01*
X13644084Y9208129D01*
Y9221458D01*
X13630756Y9234787D01*
X13590768D01*
X13630756D01*
X13644084Y9248116D01*
Y9261445D01*
X13630756Y9274774D01*
X13590768D01*
X12852400Y9372600D02*
Y9452574D01*
X12892387D01*
X12905716Y9439245D01*
Y9412587D01*
X12892387Y9399258D01*
X12852400D01*
X12879057D02*
X12905716Y9372600D01*
X12932375Y9439245D02*
X12945703Y9452574D01*
X12972362D01*
X12985690Y9439245D01*
Y9425916D01*
X12972362Y9412587D01*
X12985690Y9399258D01*
Y9385929D01*
X12972362Y9372600D01*
X12945703D01*
X12932375Y9385929D01*
Y9399258D01*
X12945703Y9412587D01*
X12932375Y9425916D01*
Y9439245D01*
X12945703Y9412587D02*
X12972362D01*
X13012347Y9359271D02*
X13065665D01*
X13092323Y9452574D02*
Y9372600D01*
X13132310D01*
X13145639Y9385929D01*
Y9399258D01*
X13132310Y9412587D01*
X13092323D01*
X13132310D01*
X13145639Y9425916D01*
Y9439245D01*
X13132310Y9452574D01*
X13092323D01*
X12065000Y8991600D02*
Y9071574D01*
X12104987D01*
X12118316Y9058245D01*
Y9031587D01*
X12104987Y9018258D01*
X12065000D01*
X12091658D02*
X12118316Y8991600D01*
X12144974D02*
X12171632D01*
X12158303D01*
Y9071574D01*
X12144974Y9058245D01*
X12264936Y9071574D02*
X12238278Y9058245D01*
X12211619Y9031587D01*
Y9004929D01*
X12224949Y8991600D01*
X12251607D01*
X12264936Y9004929D01*
Y9018258D01*
X12251607Y9031587D01*
X12211619D01*
X12291594Y8978271D02*
X12344910D01*
X12371568Y9071574D02*
Y8991600D01*
X12411555D01*
X12424884Y9004929D01*
Y9018258D01*
X12411555Y9031587D01*
X12371568D01*
X12411555D01*
X12424884Y9044916D01*
Y9058245D01*
X12411555Y9071574D01*
X12371568D01*
X11963400Y8509000D02*
Y8588974D01*
X12003387D01*
X12016716Y8575645D01*
Y8548987D01*
X12003387Y8535658D01*
X11963400D01*
X11990058D02*
X12016716Y8509000D01*
X12043374D02*
X12070032D01*
X12056703D01*
Y8588974D01*
X12043374Y8575645D01*
X12163336Y8588974D02*
X12110019D01*
Y8548987D01*
X12136678Y8562316D01*
X12150007D01*
X12163336Y8548987D01*
Y8522329D01*
X12150007Y8509000D01*
X12123349D01*
X12110019Y8522329D01*
X12189994Y8495671D02*
X12243310D01*
X12269968Y8588974D02*
Y8509000D01*
X12309955D01*
X12323284Y8522329D01*
Y8535658D01*
X12309955Y8548987D01*
X12269968D01*
X12309955D01*
X12323284Y8562316D01*
Y8575645D01*
X12309955Y8588974D01*
X12269968D01*
X12141200Y8255000D02*
Y8334974D01*
X12181187D01*
X12194516Y8321645D01*
Y8294987D01*
X12181187Y8281658D01*
X12141200D01*
X12167858D02*
X12194516Y8255000D01*
X12221174Y8268329D02*
X12234503Y8255000D01*
X12261161D01*
X12274490Y8268329D01*
Y8321645D01*
X12261161Y8334974D01*
X12234503D01*
X12221174Y8321645D01*
Y8308316D01*
X12234503Y8294987D01*
X12274490D01*
X12301148Y8241671D02*
X12354464D01*
X12381123Y8334974D02*
Y8255000D01*
X12421110D01*
X12434439Y8268329D01*
Y8281658D01*
X12421110Y8294987D01*
X12381123D01*
X12421110D01*
X12434439Y8308316D01*
Y8321645D01*
X12421110Y8334974D01*
X12381123D01*
X11938000Y8661400D02*
Y8741374D01*
X11977987D01*
X11991316Y8728045D01*
Y8701387D01*
X11977987Y8688058D01*
X11938000D01*
X11964658D02*
X11991316Y8661400D01*
X12017974D02*
X12044632D01*
X12031303D01*
Y8741374D01*
X12017974Y8728045D01*
X12124607Y8661400D02*
Y8741374D01*
X12084619Y8701387D01*
X12137936D01*
X12164594Y8648071D02*
X12217910D01*
X12244568Y8741374D02*
Y8661400D01*
X12284555D01*
X12297884Y8674729D01*
Y8688058D01*
X12284555Y8701387D01*
X12244568D01*
X12284555D01*
X12297884Y8714716D01*
Y8728045D01*
X12284555Y8741374D01*
X12244568D01*
X12712797Y8055910D02*
Y8109226D01*
X12699468Y8122555D01*
X12672810D01*
X12659481Y8109226D01*
Y8055910D01*
X12672810Y8042581D01*
X12699468D01*
X12686139Y8069239D02*
X12712797Y8042581D01*
X12699468D02*
X12712797Y8055910D01*
X12739455Y8042581D02*
X12766113D01*
X12752784D01*
Y8122555D01*
X12739455Y8109226D01*
X12806100Y8029251D02*
X12859416D01*
X12886073Y8122555D02*
Y8042581D01*
X12926062D01*
X12939391Y8055910D01*
Y8069239D01*
X12926062Y8082568D01*
X12886073D01*
X12926062D01*
X12939391Y8095897D01*
Y8109226D01*
X12926062Y8122555D01*
X12886073D01*
X13121600Y7959574D02*
Y7879600D01*
X13161588D01*
X13174916Y7892929D01*
Y7946245D01*
X13161588Y7959574D01*
X13121600D01*
X13254890D02*
X13228232Y7946245D01*
X13201575Y7919587D01*
Y7892929D01*
X13214903Y7879600D01*
X13241560D01*
X13254890Y7892929D01*
Y7906258D01*
X13241560Y7919587D01*
X13201575D01*
X13281548Y7866271D02*
X13334863D01*
X13361522Y7959574D02*
Y7879600D01*
X13401511D01*
X13414839Y7892929D01*
Y7906258D01*
X13401511Y7919587D01*
X13361522D01*
X13401511D01*
X13414839Y7932916D01*
Y7946245D01*
X13401511Y7959574D01*
X13361522D01*
X11709400Y3458174D02*
Y3378200D01*
X11749387D01*
X11762716Y3391529D01*
Y3444845D01*
X11749387Y3458174D01*
X11709400D01*
X11789374Y3444845D02*
X11802703Y3458174D01*
X11829361D01*
X11842690Y3444845D01*
Y3431516D01*
X11829361Y3418187D01*
X11842690Y3404858D01*
Y3391529D01*
X11829361Y3378200D01*
X11802703D01*
X11789374Y3391529D01*
Y3404858D01*
X11802703Y3418187D01*
X11789374Y3431516D01*
Y3444845D01*
X11802703Y3418187D02*
X11829361D01*
X11869348Y3364871D02*
X11922664D01*
X11949323Y3458174D02*
Y3378200D01*
X11989310D01*
X12002639Y3391529D01*
Y3404858D01*
X11989310Y3418187D01*
X11949323D01*
X11989310D01*
X12002639Y3431516D01*
Y3444845D01*
X11989310Y3458174D01*
X11949323D01*
X12877800Y3432774D02*
Y3352800D01*
X12917787D01*
X12931116Y3366129D01*
Y3419445D01*
X12917787Y3432774D01*
X12877800D01*
X12957774D02*
X13011090D01*
Y3419445D01*
X12957774Y3366129D01*
Y3352800D01*
X13037749Y3339471D02*
X13091064D01*
X13117723Y3432774D02*
Y3352800D01*
X13157710D01*
X13171039Y3366129D01*
Y3379458D01*
X13157710Y3392787D01*
X13117723D01*
X13157710D01*
X13171039Y3406116D01*
Y3419445D01*
X13157710Y3432774D01*
X13117723D01*
X11991316Y8855045D02*
X11977987Y8868374D01*
X11951329D01*
X11938000Y8855045D01*
Y8801729D01*
X11951329Y8788400D01*
X11977987D01*
X11991316Y8801729D01*
X12071290Y8788400D02*
X12017974D01*
X12071290Y8841716D01*
Y8855045D01*
X12057961Y8868374D01*
X12031303D01*
X12017974Y8855045D01*
X12097948D02*
X12111278Y8868374D01*
X12137936D01*
X12151264Y8855045D01*
Y8841716D01*
X12137936Y8828387D01*
X12124606D01*
X12137936D01*
X12151264Y8815058D01*
Y8801729D01*
X12137936Y8788400D01*
X12111278D01*
X12097948Y8801729D01*
X12177923Y8775071D02*
X12231239D01*
X12257897Y8868374D02*
Y8788400D01*
X12297884D01*
X12311213Y8801729D01*
Y8815058D01*
X12297884Y8828387D01*
X12257897D01*
X12297884D01*
X12311213Y8841716D01*
Y8855045D01*
X12297884Y8868374D01*
X12257897D01*
X12880316Y8982045D02*
X12866988Y8995374D01*
X12840329D01*
X12827000Y8982045D01*
Y8928729D01*
X12840329Y8915400D01*
X12866988D01*
X12880316Y8928729D01*
X12960291Y8915400D02*
X12906973D01*
X12960291Y8968716D01*
Y8982045D01*
X12946960Y8995374D01*
X12920303D01*
X12906973Y8982045D01*
X12986948Y8915400D02*
X13013606D01*
X13000278D01*
Y8995374D01*
X12986948Y8982045D01*
X13053593Y8902071D02*
X13106911D01*
X13133568Y8995374D02*
Y8915400D01*
X13173555D01*
X13186884Y8928729D01*
Y8942058D01*
X13173555Y8955387D01*
X13133568D01*
X13173555D01*
X13186884Y8968716D01*
Y8982045D01*
X13173555Y8995374D01*
X13133568D01*
X13718517Y8728045D02*
X13705186Y8741374D01*
X13678529D01*
X13665199Y8728045D01*
Y8674729D01*
X13678529Y8661400D01*
X13705186D01*
X13718517Y8674729D01*
X13798489Y8661400D02*
X13745174D01*
X13798489Y8714716D01*
Y8728045D01*
X13785161Y8741374D01*
X13758504D01*
X13745174Y8728045D01*
X13865137Y8661400D02*
Y8741374D01*
X13825148Y8701387D01*
X13878464D01*
X13905122Y8648071D02*
X13958440D01*
X13985097Y8741374D02*
Y8661400D01*
X14025084D01*
X14038412Y8674729D01*
Y8688058D01*
X14025084Y8701387D01*
X13985097D01*
X14025084D01*
X14038412Y8714716D01*
Y8728045D01*
X14025084Y8741374D01*
X13985097D01*
X12473916Y9261445D02*
X12460587Y9274774D01*
X12433929D01*
X12420600Y9261445D01*
Y9208129D01*
X12433929Y9194800D01*
X12460587D01*
X12473916Y9208129D01*
X12553890Y9194800D02*
X12500574D01*
X12553890Y9248116D01*
Y9261445D01*
X12540561Y9274774D01*
X12513903D01*
X12500574Y9261445D01*
X12633864Y9194800D02*
X12580548D01*
X12633864Y9248116D01*
Y9261445D01*
X12620536Y9274774D01*
X12593878D01*
X12580548Y9261445D01*
X12660523Y9181471D02*
X12713839D01*
X12740497Y9274774D02*
Y9194800D01*
X12780484D01*
X12793813Y9208129D01*
Y9221458D01*
X12780484Y9234787D01*
X12740497D01*
X12780484D01*
X12793813Y9248116D01*
Y9261445D01*
X12780484Y9274774D01*
X12740497D01*
X15979115Y9312245D02*
X15965787Y9325574D01*
X15939130D01*
X15925800Y9312245D01*
Y9258929D01*
X15939130Y9245600D01*
X15965787D01*
X15979115Y9258929D01*
X16059090Y9245600D02*
X16005774D01*
X16059090Y9298916D01*
Y9312245D01*
X16045761Y9325574D01*
X16019102D01*
X16005774Y9312245D01*
X16139064Y9245600D02*
X16085748D01*
X16139064Y9298916D01*
Y9312245D01*
X16125735Y9325574D01*
X16099078D01*
X16085748Y9312245D01*
X16165723Y9232271D02*
X16219038D01*
X16299013Y9312245D02*
X16285684Y9325574D01*
X16259026D01*
X16245697Y9312245D01*
Y9258929D01*
X16259026Y9245600D01*
X16285684D01*
X16299013Y9258929D01*
X17110117Y8730845D02*
X17096786Y8744174D01*
X17070129D01*
X17056799Y8730845D01*
Y8677529D01*
X17070129Y8664200D01*
X17096786D01*
X17110117Y8677529D01*
X17190089Y8664200D02*
X17136774D01*
X17190089Y8717516D01*
Y8730845D01*
X17176761Y8744174D01*
X17150104D01*
X17136774Y8730845D01*
X17256735Y8664200D02*
Y8744174D01*
X17216748Y8704187D01*
X17270064D01*
X17296722Y8650871D02*
X17350038D01*
X17430013Y8730845D02*
X17416684Y8744174D01*
X17390025D01*
X17376697Y8730845D01*
Y8677529D01*
X17390025Y8664200D01*
X17416684D01*
X17430013Y8677529D01*
X16308617Y8976845D02*
X16295287Y8990174D01*
X16268629D01*
X16255299Y8976845D01*
Y8923529D01*
X16268629Y8910200D01*
X16295287D01*
X16308617Y8923529D01*
X16388589Y8910200D02*
X16335274D01*
X16388589Y8963516D01*
Y8976845D01*
X16375261Y8990174D01*
X16348602D01*
X16335274Y8976845D01*
X16415248Y8910200D02*
X16441907D01*
X16428578D01*
Y8990174D01*
X16415248Y8976845D01*
X16481894Y8896871D02*
X16535210D01*
X16615184Y8976845D02*
X16601855Y8990174D01*
X16575197D01*
X16561868Y8976845D01*
Y8923529D01*
X16575197Y8910200D01*
X16601855D01*
X16615184Y8923529D01*
X15369516Y8855045D02*
X15356187Y8868374D01*
X15329529D01*
X15316200Y8855045D01*
Y8801729D01*
X15329529Y8788400D01*
X15356187D01*
X15369516Y8801729D01*
X15449490Y8788400D02*
X15396175D01*
X15449490Y8841716D01*
Y8855045D01*
X15436160Y8868374D01*
X15409503D01*
X15396175Y8855045D01*
X15476147D02*
X15489478Y8868374D01*
X15516136D01*
X15529465Y8855045D01*
Y8841716D01*
X15516136Y8828387D01*
X15502806D01*
X15516136D01*
X15529465Y8815058D01*
Y8801729D01*
X15516136Y8788400D01*
X15489478D01*
X15476147Y8801729D01*
X15556123Y8775071D02*
X15609439D01*
X15689413Y8855045D02*
X15676083Y8868374D01*
X15649426D01*
X15636098Y8855045D01*
Y8801729D01*
X15649426Y8788400D01*
X15676083D01*
X15689413Y8801729D01*
X15875000Y4347174D02*
Y4267200D01*
X15914987D01*
X15928316Y4280529D01*
Y4333845D01*
X15914987Y4347174D01*
X15875000D01*
X15954974D02*
X16008290D01*
Y4333845D01*
X15954974Y4280529D01*
Y4267200D01*
X16034949Y4253871D02*
X16088264D01*
X16168239Y4333845D02*
X16154910Y4347174D01*
X16128252D01*
X16114923Y4333845D01*
Y4280529D01*
X16128252Y4267200D01*
X16154910D01*
X16168239Y4280529D01*
X15138400Y3458174D02*
Y3378200D01*
X15178387D01*
X15191716Y3391529D01*
Y3444845D01*
X15178387Y3458174D01*
X15138400D01*
X15218375Y3444845D02*
X15231703Y3458174D01*
X15258360D01*
X15271690Y3444845D01*
Y3431516D01*
X15258360Y3418187D01*
X15271690Y3404858D01*
Y3391529D01*
X15258360Y3378200D01*
X15231703D01*
X15218375Y3391529D01*
Y3404858D01*
X15231703Y3418187D01*
X15218375Y3431516D01*
Y3444845D01*
X15231703Y3418187D02*
X15258360D01*
X15298347Y3364871D02*
X15351665D01*
X15431639Y3444845D02*
X15418311Y3458174D01*
X15391652D01*
X15378323Y3444845D01*
Y3391529D01*
X15391652Y3378200D01*
X15418311D01*
X15431639Y3391529D01*
X16662399Y7928574D02*
Y7848600D01*
X16702386D01*
X16715717Y7861929D01*
Y7915245D01*
X16702386Y7928574D01*
X16662399D01*
X16795689D02*
X16769032Y7915245D01*
X16742374Y7888587D01*
Y7861929D01*
X16755704Y7848600D01*
X16782361D01*
X16795689Y7861929D01*
Y7875258D01*
X16782361Y7888587D01*
X16742374D01*
X16822348Y7835271D02*
X16875664D01*
X16955640Y7915245D02*
X16942310Y7928574D01*
X16915652D01*
X16902322Y7915245D01*
Y7861929D01*
X16915652Y7848600D01*
X16942310D01*
X16955640Y7861929D01*
X16233116Y8065129D02*
Y8118445D01*
X16219788Y8131774D01*
X16193129D01*
X16179800Y8118445D01*
Y8065129D01*
X16193129Y8051800D01*
X16219788D01*
X16206458Y8078458D02*
X16233116Y8051800D01*
X16219788D02*
X16233116Y8065129D01*
X16259773Y8051800D02*
X16286432D01*
X16273103D01*
Y8131774D01*
X16259773Y8118445D01*
X16326419Y8038471D02*
X16379736D01*
X16459711Y8118445D02*
X16446381Y8131774D01*
X16419724D01*
X16406393Y8118445D01*
Y8065129D01*
X16419724Y8051800D01*
X16446381D01*
X16459711Y8065129D01*
X15341600Y8661400D02*
Y8741374D01*
X15381587D01*
X15394916Y8728045D01*
Y8701387D01*
X15381587Y8688058D01*
X15341600D01*
X15368259D02*
X15394916Y8661400D01*
X15421574D02*
X15448232D01*
X15434903D01*
Y8741374D01*
X15421574Y8728045D01*
X15528207Y8661400D02*
Y8741374D01*
X15488219Y8701387D01*
X15541536D01*
X15568195Y8648071D02*
X15621510D01*
X15701485Y8728045D02*
X15688155Y8741374D01*
X15661497D01*
X15648167Y8728045D01*
Y8674729D01*
X15661497Y8661400D01*
X15688155D01*
X15701485Y8674729D01*
X15748000Y8255000D02*
Y8334974D01*
X15787987D01*
X15801315Y8321645D01*
Y8294987D01*
X15787987Y8281658D01*
X15748000D01*
X15774658D02*
X15801315Y8255000D01*
X15827974Y8268329D02*
X15841302Y8255000D01*
X15867961D01*
X15881290Y8268329D01*
Y8321645D01*
X15867961Y8334974D01*
X15841302D01*
X15827974Y8321645D01*
Y8308316D01*
X15841302Y8294987D01*
X15881290D01*
X15907948Y8241671D02*
X15961264D01*
X16041238Y8321645D02*
X16027910Y8334974D01*
X16001253D01*
X15987923Y8321645D01*
Y8268329D01*
X16001253Y8255000D01*
X16027910D01*
X16041238Y8268329D01*
X15341600Y8509000D02*
Y8588974D01*
X15381587D01*
X15394916Y8575645D01*
Y8548987D01*
X15381587Y8535658D01*
X15341600D01*
X15368259D02*
X15394916Y8509000D01*
X15421574D02*
X15448232D01*
X15434903D01*
Y8588974D01*
X15421574Y8575645D01*
X15541536Y8588974D02*
X15488219D01*
Y8548987D01*
X15514877Y8562316D01*
X15528207D01*
X15541536Y8548987D01*
Y8522329D01*
X15528207Y8509000D01*
X15501549D01*
X15488219Y8522329D01*
X15568195Y8495671D02*
X15621510D01*
X15701485Y8575645D02*
X15688155Y8588974D01*
X15661497D01*
X15648167Y8575645D01*
Y8522329D01*
X15661497Y8509000D01*
X15688155D01*
X15701485Y8522329D01*
X15494000Y8991600D02*
Y9071574D01*
X15533987D01*
X15547316Y9058245D01*
Y9031587D01*
X15533987Y9018258D01*
X15494000D01*
X15520657D02*
X15547316Y8991600D01*
X15573975D02*
X15600632D01*
X15587303D01*
Y9071574D01*
X15573975Y9058245D01*
X15693936Y9071574D02*
X15667278Y9058245D01*
X15640619Y9031587D01*
Y9004929D01*
X15653949Y8991600D01*
X15680608D01*
X15693936Y9004929D01*
Y9018258D01*
X15680608Y9031587D01*
X15640619D01*
X15720593Y8978271D02*
X15773911D01*
X15853883Y9058245D02*
X15840555Y9071574D01*
X15813898D01*
X15800568Y9058245D01*
Y9004929D01*
X15813898Y8991600D01*
X15840555D01*
X15853883Y9004929D01*
X16332201Y9398000D02*
Y9477974D01*
X16372186D01*
X16385516Y9464645D01*
Y9437987D01*
X16372186Y9424658D01*
X16332201D01*
X16358858D02*
X16385516Y9398000D01*
X16412173Y9464645D02*
X16425504Y9477974D01*
X16452161D01*
X16465491Y9464645D01*
Y9451316D01*
X16452161Y9437987D01*
X16465491Y9424658D01*
Y9411329D01*
X16452161Y9398000D01*
X16425504D01*
X16412173Y9411329D01*
Y9424658D01*
X16425504Y9437987D01*
X16412173Y9451316D01*
Y9464645D01*
X16425504Y9437987D02*
X16452161D01*
X16492148Y9384671D02*
X16545464D01*
X16625439Y9464645D02*
X16612109Y9477974D01*
X16585452D01*
X16572124Y9464645D01*
Y9411329D01*
X16585452Y9398000D01*
X16612109D01*
X16625439Y9411329D01*
X16662399Y9194800D02*
Y9274774D01*
X16702386D01*
X16715717Y9261445D01*
Y9234787D01*
X16702386Y9221458D01*
X16662399D01*
X16689058D02*
X16715717Y9194800D01*
X16742374D02*
X16769032D01*
X16755704D01*
Y9274774D01*
X16742374Y9261445D01*
X16862337Y9194800D02*
X16809019D01*
X16862337Y9248116D01*
Y9261445D01*
X16849007Y9274774D01*
X16822350D01*
X16809019Y9261445D01*
X16888994Y9181471D02*
X16942310D01*
X17022284Y9261445D02*
X17008955Y9274774D01*
X16982297D01*
X16968968Y9261445D01*
Y9208129D01*
X16982297Y9194800D01*
X17008955D01*
X17022284Y9208129D01*
X17056799Y7343400D02*
Y7423374D01*
X17096786D01*
X17110117Y7410045D01*
Y7383387D01*
X17096786Y7370058D01*
X17056799D01*
X17083458D02*
X17110117Y7343400D01*
X17136774D02*
X17163432D01*
X17150104D01*
Y7423374D01*
X17136774Y7410045D01*
X17203419Y7423374D02*
X17256735D01*
Y7410045D01*
X17203419Y7356729D01*
Y7343400D01*
X17283392Y7330071D02*
X17336710D01*
X17416684Y7410045D02*
X17403355Y7423374D01*
X17376697D01*
X17363368Y7410045D01*
Y7356729D01*
X17376697Y7343400D01*
X17403355D01*
X17416684Y7356729D01*
X14440601Y7220174D02*
X14493916D01*
X14467258D01*
Y7140200D01*
X14573891D02*
X14520573D01*
X14573891Y7193516D01*
Y7206845D01*
X14560561Y7220174D01*
X14533904D01*
X14520573Y7206845D01*
X14600548Y7126871D02*
X14653864D01*
X14733838Y7206845D02*
X14720509Y7220174D01*
X14693851D01*
X14680522Y7206845D01*
Y7153529D01*
X14693851Y7140200D01*
X14720509D01*
X14733838Y7153529D01*
X15722600Y8461974D02*
Y8395329D01*
X15735928Y8382000D01*
X15762587D01*
X15775916Y8395329D01*
Y8461974D01*
X15842561Y8382000D02*
Y8461974D01*
X15802574Y8421987D01*
X15855890D01*
X15882549Y8368671D02*
X15935864D01*
X16015839Y8448645D02*
X16002510Y8461974D01*
X15975851D01*
X15962523Y8448645D01*
Y8395329D01*
X15975851Y8382000D01*
X16002510D01*
X16015839Y8395329D01*
X15928316Y7940645D02*
X15914987Y7953974D01*
X15888329D01*
X15875000Y7940645D01*
Y7887329D01*
X15888329Y7874000D01*
X15914987D01*
X15928316Y7887329D01*
X15954974Y7874000D02*
X15981631D01*
X15968303D01*
Y7953974D01*
X15954974Y7940645D01*
X16021619D02*
X16034949Y7953974D01*
X16061607D01*
X16074936Y7940645D01*
Y7927316D01*
X16061607Y7913987D01*
X16074936Y7900658D01*
Y7887329D01*
X16061607Y7874000D01*
X16034949D01*
X16021619Y7887329D01*
Y7900658D01*
X16034949Y7913987D01*
X16021619Y7927316D01*
Y7940645D01*
X16034949Y7913987D02*
X16061607D01*
X16101595Y7860671D02*
X16154910D01*
X16234885Y7940645D02*
X16221555Y7953974D01*
X16194897D01*
X16181567Y7940645D01*
Y7887329D01*
X16194897Y7874000D01*
X16221555D01*
X16234885Y7887329D01*
X15595599Y7569200D02*
Y7649174D01*
X15635587D01*
X15648917Y7635845D01*
Y7609187D01*
X15635587Y7595858D01*
X15595599D01*
X15622258D02*
X15648917Y7569200D01*
X15675574D02*
X15702232D01*
X15688902D01*
Y7649174D01*
X15675574Y7635845D01*
X15742220D02*
X15755550Y7649174D01*
X15782207D01*
X15795535Y7635845D01*
Y7582529D01*
X15782207Y7569200D01*
X15755550D01*
X15742220Y7582529D01*
Y7635845D01*
X15822194Y7555871D02*
X15875510D01*
X15955484Y7635845D02*
X15942155Y7649174D01*
X15915497D01*
X15902168Y7635845D01*
Y7582529D01*
X15915497Y7569200D01*
X15942155D01*
X15955484Y7582529D01*
X17084715Y8502245D02*
X17071387Y8515574D01*
X17044730D01*
X17031400Y8502245D01*
Y8448929D01*
X17044730Y8435600D01*
X17071387D01*
X17084715Y8448929D01*
X17111374Y8435600D02*
X17138033D01*
X17124702D01*
Y8515574D01*
X17111374Y8502245D01*
X17178020D02*
X17191348Y8515574D01*
X17218005D01*
X17231335Y8502245D01*
Y8488916D01*
X17218005Y8475587D01*
X17204677D01*
X17218005D01*
X17231335Y8462258D01*
Y8448929D01*
X17218005Y8435600D01*
X17191348D01*
X17178020Y8448929D01*
X17257993Y8422271D02*
X17311310D01*
X17391284Y8502245D02*
X17377956Y8515574D01*
X17351297D01*
X17337968Y8502245D01*
Y8448929D01*
X17351297Y8435600D01*
X17377956D01*
X17391284Y8448929D01*
X17020515Y6569045D02*
X17007187Y6582374D01*
X16980528D01*
X16967200Y6569045D01*
Y6515729D01*
X16980528Y6502400D01*
X17007187D01*
X17020515Y6515729D01*
X17047174Y6502400D02*
X17073833D01*
X17060503D01*
Y6582374D01*
X17047174Y6569045D01*
X17153807Y6502400D02*
Y6582374D01*
X17113818Y6542387D01*
X17167136D01*
X17193794Y6489071D02*
X17247110D01*
X17327084Y6569045D02*
X17313754Y6582374D01*
X17287097D01*
X17273769Y6569045D01*
Y6515729D01*
X17287097Y6502400D01*
X17313754D01*
X17327084Y6515729D01*
X16979201Y8867400D02*
Y8947374D01*
X17019186D01*
X17032516Y8934045D01*
Y8907387D01*
X17019186Y8894058D01*
X16979201D01*
X17005858D02*
X17032516Y8867400D01*
X17059174D02*
X17085832D01*
X17072504D01*
Y8947374D01*
X17059174Y8934045D01*
X17125819D02*
X17139148Y8947374D01*
X17165807D01*
X17179135Y8934045D01*
Y8920716D01*
X17165807Y8907387D01*
X17152477D01*
X17165807D01*
X17179135Y8894058D01*
Y8880729D01*
X17165807Y8867400D01*
X17139148D01*
X17125819Y8880729D01*
X17205794Y8854071D02*
X17259109D01*
X17339084Y8934045D02*
X17325755Y8947374D01*
X17299097D01*
X17285768Y8934045D01*
Y8880729D01*
X17299097Y8867400D01*
X17325755D01*
X17339084Y8880729D01*
X15166316Y3876645D02*
X15152988Y3889974D01*
X15126329D01*
X15113000Y3876645D01*
Y3823329D01*
X15126329Y3810000D01*
X15152988D01*
X15166316Y3823329D01*
X15192973Y3810000D02*
X15219632D01*
X15206303D01*
Y3889974D01*
X15192973Y3876645D01*
X15259619Y3823329D02*
X15272949Y3810000D01*
X15299606D01*
X15312936Y3823329D01*
Y3876645D01*
X15299606Y3889974D01*
X15272949D01*
X15259619Y3876645D01*
Y3863316D01*
X15272949Y3849987D01*
X15312936D01*
X15339594Y3796671D02*
X15392909D01*
X15472884Y3876645D02*
X15459555Y3889974D01*
X15432896D01*
X15419568Y3876645D01*
Y3823329D01*
X15432896Y3810000D01*
X15459555D01*
X15472884Y3823329D01*
X15166316Y3698845D02*
X15152988Y3712174D01*
X15126329D01*
X15113000Y3698845D01*
Y3645529D01*
X15126329Y3632200D01*
X15152988D01*
X15166316Y3645529D01*
X15246291Y3632200D02*
X15192973D01*
X15246291Y3685516D01*
Y3698845D01*
X15232961Y3712174D01*
X15206303D01*
X15192973Y3698845D01*
X15272948D02*
X15286278Y3712174D01*
X15312936D01*
X15326263Y3698845D01*
Y3645529D01*
X15312936Y3632200D01*
X15286278D01*
X15272948Y3645529D01*
Y3698845D01*
X15352924Y3618871D02*
X15406239D01*
X15486214Y3698845D02*
X15472884Y3712174D01*
X15446227D01*
X15432896Y3698845D01*
Y3645529D01*
X15446227Y3632200D01*
X15472884D01*
X15486214Y3645529D01*
X14925716Y9137245D02*
X14912387Y9150574D01*
X14885728D01*
X14872400Y9137245D01*
Y9083929D01*
X14885728Y9070600D01*
X14912387D01*
X14925716Y9083929D01*
X14952374Y9070600D02*
X14979031D01*
X14965703D01*
Y9150574D01*
X14952374Y9137245D01*
X15072334Y9070600D02*
X15019019D01*
X15072334Y9123916D01*
Y9137245D01*
X15059006Y9150574D01*
X15032349D01*
X15019019Y9137245D01*
X15098993Y9057271D02*
X15152310D01*
X15232285Y9137245D02*
X15218954Y9150574D01*
X15192297D01*
X15178967Y9137245D01*
Y9083929D01*
X15192297Y9070600D01*
X15218954D01*
X15232285Y9083929D01*
X15239999Y9554174D02*
Y9487529D01*
X15253329Y9474200D01*
X15279987D01*
X15293317Y9487529D01*
Y9554174D01*
X15319974Y9540845D02*
X15333302Y9554174D01*
X15359961D01*
X15373289Y9540845D01*
Y9527516D01*
X15359961Y9514187D01*
X15346632D01*
X15359961D01*
X15373289Y9500858D01*
Y9487529D01*
X15359961Y9474200D01*
X15333302D01*
X15319974Y9487529D01*
X15399948Y9460871D02*
X15453264D01*
X15533240Y9540845D02*
X15519910Y9554174D01*
X15493253D01*
X15479922Y9540845D01*
Y9487529D01*
X15493253Y9474200D01*
X15519910D01*
X15533240Y9487529D01*
X15022316Y8452974D02*
X14969000D01*
Y8412987D01*
X14995657D01*
X14969000D01*
Y8373000D01*
X15048975Y8439645D02*
X15062303Y8452974D01*
X15088960D01*
X15102290Y8439645D01*
Y8426316D01*
X15088960Y8412987D01*
X15075632D01*
X15088960D01*
X15102290Y8399658D01*
Y8386329D01*
X15088960Y8373000D01*
X15062303D01*
X15048975Y8386329D01*
X15128947Y8359671D02*
X15182265D01*
X15262239Y8439645D02*
X15248911Y8452974D01*
X15222252D01*
X15208923Y8439645D01*
Y8386329D01*
X15222252Y8373000D01*
X15248911D01*
X15262239Y8386329D01*
X15265401Y9728200D02*
Y9808174D01*
X15305386D01*
X15318716Y9794845D01*
Y9768187D01*
X15305386Y9754858D01*
X15265401D01*
X15292058D02*
X15318716Y9728200D01*
X15398689Y9808174D02*
X15372032Y9794845D01*
X15345374Y9768187D01*
Y9741529D01*
X15358704Y9728200D01*
X15385361D01*
X15398689Y9741529D01*
Y9754858D01*
X15385361Y9768187D01*
X15345374D01*
X15425348Y9714871D02*
X15478664D01*
X15558640Y9794845D02*
X15545309Y9808174D01*
X15518652D01*
X15505322Y9794845D01*
Y9741529D01*
X15518652Y9728200D01*
X15545309D01*
X15558640Y9741529D01*
X14364400Y9985000D02*
Y10064974D01*
X14404387D01*
X14417715Y10051645D01*
Y10024987D01*
X14404387Y10011658D01*
X14364400D01*
X14391058D02*
X14417715Y9985000D01*
X14444374Y10064974D02*
X14497690D01*
Y10051645D01*
X14444374Y9998329D01*
Y9985000D01*
X14524348Y9971671D02*
X14577664D01*
X14657639Y10051645D02*
X14644310Y10064974D01*
X14617651D01*
X14604321Y10051645D01*
Y9998329D01*
X14617651Y9985000D01*
X14644310D01*
X14657639Y9998329D01*
X3708400Y6633174D02*
Y6553200D01*
X3748387D01*
X3761716Y6566529D01*
Y6619845D01*
X3748387Y6633174D01*
X3708400D01*
X3788374Y6553200D02*
X3815032D01*
X3801703D01*
Y6633174D01*
X3788374Y6619845D01*
X18442915Y8372445D02*
X18429587Y8385774D01*
X18402930D01*
X18389600Y8372445D01*
Y8319129D01*
X18402930Y8305800D01*
X18429587D01*
X18442915Y8319129D01*
X18522890Y8385774D02*
X18496233Y8372445D01*
X18469574Y8345787D01*
Y8319129D01*
X18482903Y8305800D01*
X18509561D01*
X18522890Y8319129D01*
Y8332458D01*
X18509561Y8345787D01*
X18469574D01*
X18549548Y8292471D02*
X18602864D01*
X18629523Y8385774D02*
Y8305800D01*
X18669510D01*
X18682838Y8319129D01*
Y8372445D01*
X18669510Y8385774D01*
X18629523D01*
X8562316Y8575645D02*
X8548987Y8588974D01*
X8522329D01*
X8509000Y8575645D01*
Y8522329D01*
X8522329Y8509000D01*
X8548987D01*
X8562316Y8522329D01*
X8642290Y8588974D02*
X8615632Y8575645D01*
X8588974Y8548987D01*
Y8522329D01*
X8602303Y8509000D01*
X8628961D01*
X8642290Y8522329D01*
Y8535658D01*
X8628961Y8548987D01*
X8588974D01*
X8668948Y8495671D02*
X8722264D01*
X8748923Y8509000D02*
Y8562316D01*
X8775581Y8588974D01*
X8802239Y8562316D01*
Y8509000D01*
Y8548987D01*
X8748923D01*
X3251200Y3849987D02*
X3304516D01*
X3277858Y3876645D02*
Y3823329D01*
X3384490Y3889974D02*
X3331174D01*
Y3849987D01*
X3357832Y3863316D01*
X3371161D01*
X3384490Y3849987D01*
Y3823329D01*
X3371161Y3810000D01*
X3344503D01*
X3331174Y3823329D01*
X3411148Y3889974D02*
Y3836658D01*
X3437806Y3810000D01*
X3464464Y3836658D01*
Y3889974D01*
X3571097Y3810000D02*
Y3863316D01*
X3597755Y3889974D01*
X3624413Y3863316D01*
Y3810000D01*
Y3849987D01*
X3571097D01*
X3225800Y2656187D02*
X3279116D01*
X3252458Y2682845D02*
Y2629529D01*
X3359090Y2696174D02*
X3305774D01*
Y2656187D01*
X3332432Y2669516D01*
X3345761D01*
X3359090Y2656187D01*
Y2629529D01*
X3345761Y2616200D01*
X3319103D01*
X3305774Y2629529D01*
X3385748Y2696174D02*
Y2642858D01*
X3412406Y2616200D01*
X3439064Y2642858D01*
Y2696174D01*
X3545697D02*
Y2616200D01*
X3585684D01*
X3599013Y2629529D01*
Y2642858D01*
X3585684Y2656187D01*
X3545697D01*
X3585684D01*
X3599013Y2669516D01*
Y2682845D01*
X3585684Y2696174D01*
X3545697D01*
X3175000Y3240387D02*
X3228316D01*
X3308290Y3280374D02*
X3254974D01*
Y3240387D01*
X3281632Y3253716D01*
X3294961D01*
X3308290Y3240387D01*
Y3213729D01*
X3294961Y3200400D01*
X3268303D01*
X3254974Y3213729D01*
X3334948Y3280374D02*
Y3227058D01*
X3361606Y3200400D01*
X3388264Y3227058D01*
Y3280374D01*
X3494897D02*
Y3200400D01*
X3534884D01*
X3548213Y3213729D01*
Y3227058D01*
X3534884Y3240387D01*
X3494897D01*
X3534884D01*
X3548213Y3253716D01*
Y3267045D01*
X3534884Y3280374D01*
X3494897D01*
X8407400Y2833987D02*
X8460716D01*
X8540690Y2873974D02*
X8487374D01*
Y2833987D01*
X8514032Y2847316D01*
X8527361D01*
X8540690Y2833987D01*
Y2807329D01*
X8527361Y2794000D01*
X8500703D01*
X8487374Y2807329D01*
X8567348Y2873974D02*
Y2820658D01*
X8594006Y2794000D01*
X8620664Y2820658D01*
Y2873974D01*
X8727297Y2794000D02*
Y2847316D01*
X8753955Y2873974D01*
X8780613Y2847316D01*
Y2794000D01*
Y2833987D01*
X8727297D01*
X11633200Y2859387D02*
X11686516D01*
X11659858Y2886045D02*
Y2832729D01*
X11766490Y2899374D02*
X11713174D01*
Y2859387D01*
X11739832Y2872716D01*
X11753161D01*
X11766490Y2859387D01*
Y2832729D01*
X11753161Y2819400D01*
X11726503D01*
X11713174Y2832729D01*
X11793148Y2899374D02*
Y2846058D01*
X11819806Y2819400D01*
X11846464Y2846058D01*
Y2899374D01*
X11953097Y2819400D02*
Y2872716D01*
X11979755Y2899374D01*
X12006413Y2872716D01*
Y2819400D01*
Y2859387D01*
X11953097D01*
X15392400Y2884787D02*
X15445715D01*
X15419058Y2911445D02*
Y2858129D01*
X15525690Y2924774D02*
X15472374D01*
Y2884787D01*
X15499033Y2898116D01*
X15512361D01*
X15525690Y2884787D01*
Y2858129D01*
X15512361Y2844800D01*
X15485703D01*
X15472374Y2858129D01*
X15552348Y2924774D02*
Y2871458D01*
X15579005Y2844800D01*
X15605664Y2871458D01*
Y2924774D01*
X15712297D02*
Y2844800D01*
X15752284D01*
X15765613Y2858129D01*
Y2871458D01*
X15752284Y2884787D01*
X15712297D01*
X15752284D01*
X15765613Y2898116D01*
Y2911445D01*
X15752284Y2924774D01*
X15712297D01*
X17856200Y3595987D02*
X17909515D01*
X17989490Y3635974D02*
X17936174D01*
Y3595987D01*
X17962833Y3609316D01*
X17976161D01*
X17989490Y3595987D01*
Y3569329D01*
X17976161Y3556000D01*
X17949503D01*
X17936174Y3569329D01*
X18016148Y3635974D02*
Y3582658D01*
X18042805Y3556000D01*
X18069464Y3582658D01*
Y3635974D01*
X18176097D02*
Y3556000D01*
X18216084D01*
X18229413Y3569329D01*
Y3582658D01*
X18216084Y3595987D01*
X18176097D01*
X18216084D01*
X18229413Y3609316D01*
Y3622645D01*
X18216084Y3635974D01*
X18176097D01*
D95*
X5412725Y8063005D02*
D03*
D96*
Y8183965D02*
D03*
D97*
X5412727Y8123122D02*
D03*
D98*
X15859850Y3399500D02*
D03*
X12468249Y3396700D02*
D03*
X18905251Y4273601D02*
D03*
X8618250D02*
D03*
%TF.MD5,3ea42677b1dbe3b10ff94c335965173f*%
M02*
