G04 Layer_Physical_Order=1*
G04 Layer_Color=255*
%FSLAX45Y45*%
%MOMM*%
%TF.FileFunction,Copper,L1,Top,Signal*%
%TF.Part,Single*%
G01*
G75*
%TA.AperFunction,SMDPad,CuDef*%
%ADD10R,2.60000X1.10000*%
%ADD11O,1.65000X0.65000*%
%ADD12R,1.65000X0.65000*%
%ADD13R,1.70000X1.10000*%
%ADD14R,1.42240X3.02260*%
%ADD15O,1.40000X0.80000*%
%ADD16R,1.40000X0.80000*%
%ADD17R,0.90000X0.70000*%
%ADD18R,0.80000X0.90000*%
%ADD19R,0.70000X0.90000*%
%ADD20R,1.10000X2.60000*%
%ADD21R,2.99720X2.26060*%
%ADD22R,0.76200X1.14300*%
%ADD23R,1.80000X2.10000*%
%ADD24R,1.17000X1.88000*%
%ADD25R,1.20000X1.20000*%
%ADD26R,3.10000X4.00000*%
%ADD27R,1.39000X1.40000*%
%ADD28R,3.36000X4.86000*%
%ADD29R,3.20000X1.80000*%
%ADD30R,1.40000X1.10000*%
%ADD31R,1.00000X0.55000*%
%ADD32O,1.00000X0.55000*%
%ADD33R,0.90000X0.80000*%
%ADD34R,3.30000X1.40000*%
%ADD35R,2.00000X3.50000*%
%ADD36R,3.50000X2.00000*%
%ADD37R,4.00000X3.10000*%
%ADD38R,0.55000X1.00000*%
%ADD39O,0.55000X1.00000*%
%ADD40R,1.10000X1.40000*%
%ADD41O,1.65000X0.30000*%
%ADD42R,1.27000X3.05000*%
%ADD43R,1.20000X0.65000*%
%ADD44R,0.60000X0.60000*%
%ADD45R,2.15900X2.74300*%
%ADD46R,1.25000X0.95000*%
%ADD47R,1.30000X4.75000*%
%ADD48O,0.55000X1.65000*%
%ADD49O,1.65000X0.55000*%
%ADD50R,0.71120X2.00660*%
%ADD51R,1.50000X2.00000*%
%ADD52R,3.80000X2.00000*%
%ADD53R,1.21920X1.21920*%
%ADD54R,5.60000X2.30000*%
%ADD55R,2.26000X2.16000*%
%TA.AperFunction,Conductor*%
%ADD56C,0.30000*%
%ADD57C,0.25400*%
%ADD58C,0.63500*%
%ADD59C,0.50000*%
%ADD60C,0.50800*%
%ADD61C,0.30480*%
%ADD62C,1.27000*%
%ADD63C,0.80000*%
%ADD64C,1.00000*%
%ADD65C,2.00000*%
%ADD66C,0.70000*%
%TA.AperFunction,ViaPad*%
%ADD67C,1.52400*%
%TA.AperFunction,ComponentPad*%
%ADD68C,1.52400*%
%ADD69C,2.80000*%
G04:AMPARAMS|DCode=70|XSize=1.5748mm|YSize=1.5748mm|CornerRadius=0mm|HoleSize=0mm|Usage=FLASHONLY|Rotation=90.000|XOffset=0mm|YOffset=0mm|HoleType=Round|Shape=Octagon|*
%AMOCTAGOND70*
4,1,8,0.39370,0.78740,-0.39370,0.78740,-0.78740,0.39370,-0.78740,-0.39370,-0.39370,-0.78740,0.39370,-0.78740,0.78740,-0.39370,0.78740,0.39370,0.39370,0.78740,0.0*
%
%ADD70OCTAGOND70*%

%ADD71C,1.60000*%
%ADD72C,1.70000*%
%TA.AperFunction,ViaPad*%
%ADD73C,2.60000*%
%ADD74C,0.95000*%
%ADD75C,1.27000*%
%ADD76C,0.67200*%
%ADD77C,0.76200*%
%ADD78C,0.90000*%
%ADD79C,0.63500*%
%ADD80C,0.70000*%
G36*
X23380235Y7110269D02*
X23380235Y7110268D01*
X23395255Y7100234D01*
X23412968Y7096710D01*
X23412968Y7096710D01*
X23664047D01*
X23664969Y7094485D01*
X23680389Y7074389D01*
X23700485Y7058969D01*
X23723888Y7049276D01*
X23749001Y7045970D01*
X23774113Y7049276D01*
X23797514Y7058969D01*
X23812500Y7070468D01*
X23825200Y7064205D01*
Y6967795D01*
X23812500Y6961532D01*
X23797514Y6973031D01*
X23774113Y6982724D01*
X23749001Y6986030D01*
X23723888Y6982724D01*
X23700485Y6973031D01*
X23680389Y6957610D01*
X23664969Y6937515D01*
X23664047Y6935289D01*
X23432143D01*
X23324100Y7043332D01*
X23309082Y7053366D01*
X23304311Y7054315D01*
X23301144Y7067894D01*
X23309610Y7074389D01*
X23325031Y7094485D01*
X23334724Y7117887D01*
X23337044Y7135501D01*
X23350452Y7140053D01*
X23380235Y7110269D01*
D02*
G37*
G36*
X20892801Y7093001D02*
X19978401D01*
X19851402Y7093001D01*
X19546600Y6661201D01*
X19470401Y6661201D01*
Y6865230D01*
X19482256Y6873150D01*
X19560854Y6951748D01*
X19573009Y6969941D01*
X19576682Y6988401D01*
X19586201D01*
Y7067601D01*
X19597401D01*
Y7152601D01*
X19595221Y7154782D01*
X19599641Y7161397D01*
X19601193Y7169201D01*
Y7326609D01*
X19749802D01*
X19757605Y7328161D01*
X19764221Y7332582D01*
X19768642Y7339197D01*
X19770193Y7347001D01*
Y7550201D01*
X19770193Y7829601D01*
X19768642Y7837404D01*
X19764221Y7844020D01*
X19757605Y7848440D01*
X19749802Y7849993D01*
X19597400Y7849993D01*
X19591092Y7848738D01*
X19587897Y7849622D01*
X19578392Y7856228D01*
Y8076426D01*
X19577673Y8080036D01*
X19577068Y8083653D01*
X19576901Y8083920D01*
X19576840Y8084230D01*
X19574796Y8087288D01*
X19572852Y8090400D01*
X19572595Y8090583D01*
X19572420Y8090846D01*
X19569363Y8092887D01*
X19566373Y8095020D01*
X19566066Y8095091D01*
X19565804Y8095266D01*
X19562202Y8095982D01*
X19558621Y8096809D01*
X19321446Y8104031D01*
X19310580Y8117068D01*
X19312019Y8128000D01*
X19309151Y8149798D01*
X19300737Y8170110D01*
X19287354Y8187553D01*
X19269910Y8200937D01*
X19249599Y8209351D01*
X19227800Y8212220D01*
X19206001Y8209351D01*
X19185689Y8200937D01*
X19168246Y8187553D01*
X19154863Y8170110D01*
X19146449Y8149798D01*
X19143579Y8128000D01*
X19146449Y8106202D01*
X19154863Y8085889D01*
X19162801Y8075545D01*
Y7960200D01*
X19261011D01*
X19269798Y7950221D01*
X19267848Y7940327D01*
X19260207Y7940200D01*
X19162801D01*
Y7847787D01*
X19160323Y7835336D01*
Y7830551D01*
X19158301D01*
Y7702601D01*
X19038602Y7702602D01*
X19038602Y8617002D01*
X20892799Y8617002D01*
X20892801Y7093001D01*
D02*
G37*
G36*
X12035562Y7434600D02*
X12031111Y7421900D01*
X11873700D01*
Y7076900D01*
X12038708D01*
Y7043492D01*
X11560200Y7043491D01*
Y7465105D01*
X12005053Y7465108D01*
X12035562Y7434600D01*
D02*
G37*
G36*
X23146570Y7162746D02*
X23143970Y7143000D01*
X23147276Y7117887D01*
X23156969Y7094485D01*
X23172391Y7074389D01*
X23178905Y7069389D01*
X23174594Y7056689D01*
X21653773D01*
X21632053Y7078411D01*
X21637314Y7091111D01*
X21698000D01*
Y7088000D01*
X21828000D01*
Y7091111D01*
X23037799D01*
X23037801Y7091110D01*
X23055515Y7094634D01*
X23070532Y7104668D01*
X23134541Y7168678D01*
X23146570Y7162746D01*
D02*
G37*
G36*
X15399463Y7437400D02*
X15394307Y7424700D01*
X15265300D01*
Y7079700D01*
X15403110D01*
Y7046291D01*
X14934093D01*
X14934091Y7467406D01*
X15369453Y7467409D01*
X15399463Y7437400D01*
D02*
G37*
G36*
X20588000Y6458001D02*
X19826001D01*
Y6915201D01*
X20588000D01*
Y6458001D01*
D02*
G37*
G36*
X10301001D02*
X9539001D01*
Y6915201D01*
X10301001D01*
Y6458001D01*
D02*
G37*
G36*
X11522099Y8225999D02*
X11522100Y7023099D01*
X12059100Y7023100D01*
X12059101Y7439899D01*
X12013500Y7485500D01*
X11557000Y7485497D01*
X11556999Y7721600D01*
X12324008Y7721600D01*
Y7701400D01*
X12325560Y7693596D01*
X12329981Y7686981D01*
X12336596Y7682560D01*
X12344400Y7681008D01*
X12826300D01*
X12834103Y7682560D01*
X12839000Y7685831D01*
X12846027Y7683875D01*
X12851700Y7680555D01*
X12851700Y7506698D01*
X12747428Y7422000D01*
X12623100D01*
X12623100Y7023100D01*
X13528400Y7023100D01*
Y6863600D01*
X14155800Y6863599D01*
X14155800Y6616600D01*
X10896000Y6616599D01*
X10896000Y8226001D01*
X11522099Y8225999D01*
D02*
G37*
G36*
X10617200Y7086600D02*
X9702801D01*
X9575801Y7086600D01*
X9271001Y6654800D01*
X9194801Y6654800D01*
Y6872846D01*
X9195255Y6873150D01*
X9273853Y6951748D01*
X9286009Y6969941D01*
X9289681Y6988401D01*
X9299201D01*
Y7067601D01*
X9310401D01*
Y7152601D01*
X9308221Y7154782D01*
X9312641Y7161397D01*
X9314193Y7169201D01*
Y7326609D01*
X9462801D01*
X9470605Y7328161D01*
X9477221Y7332582D01*
X9481641Y7339197D01*
X9483193Y7347001D01*
Y7550201D01*
X9483193Y7805420D01*
X9481641Y7813223D01*
X9477220Y7819839D01*
X9470605Y7824259D01*
X9462801Y7825812D01*
X9319381Y7825812D01*
X9319380Y7825812D01*
X9314742Y7829619D01*
Y8077200D01*
X9313189Y8085004D01*
X9308769Y8091619D01*
X9302153Y8096040D01*
X9294350Y8097592D01*
X9056128D01*
X9048089Y8110292D01*
X9050421Y8128000D01*
X9047551Y8149798D01*
X9039137Y8170110D01*
X9025753Y8187553D01*
X9008310Y8200937D01*
X8987998Y8209351D01*
X8966200Y8212221D01*
X8944402Y8209351D01*
X8924090Y8200937D01*
X8906647Y8187553D01*
X8893263Y8170110D01*
X8884849Y8149798D01*
X8881979Y8128000D01*
X8884849Y8106202D01*
X8888036Y8098509D01*
Y8080200D01*
X8875800D01*
Y7960200D01*
X8982023D01*
X8990695Y7950209D01*
X8988635Y7940200D01*
X8875800D01*
Y7847787D01*
X8873323Y7835336D01*
Y7830551D01*
X8871301D01*
Y7696200D01*
X8763001Y7696201D01*
X8763000Y8610601D01*
X10617199Y8610601D01*
X10617200Y7086600D01*
D02*
G37*
G36*
X14913699Y8238999D02*
X14913699Y7025900D01*
X15403110D01*
X15423502D01*
Y7079700D01*
X15432300D01*
Y7424700D01*
X15423502D01*
Y7442200D01*
X15377901Y7487801D01*
X14921400Y7487798D01*
X14921400Y7723901D01*
X15727608Y7723901D01*
Y7701400D01*
X15729160Y7693596D01*
X15733582Y7686981D01*
X15740196Y7682560D01*
X15748000Y7681008D01*
X16216100D01*
X16216101Y7508999D01*
X16111829Y7424301D01*
X15987500D01*
X15987500Y7025900D01*
X16007892D01*
X16908131Y7025900D01*
X16920000Y7014032D01*
Y6866400D01*
X17523991Y6866400D01*
X17525764Y6866047D01*
X17525999Y6865695D01*
X17525999Y6631269D01*
X17514133Y6619400D01*
X14297008Y6619400D01*
X14295236Y6619752D01*
X14295000Y6620104D01*
X14295000Y8239001D01*
X14913699Y8238999D01*
D02*
G37*
G36*
X12826300Y7701400D02*
X12344400D01*
Y7950200D01*
X12826300D01*
Y7701400D01*
D02*
G37*
G36*
X9294350Y7808418D02*
X9291560Y7804243D01*
X9290008Y7796440D01*
X9290008Y7677201D01*
X9014711Y7677201D01*
X9005860Y7686308D01*
X9016549Y8061385D01*
X9025753Y8068447D01*
X9032469Y8077200D01*
X9294350D01*
Y7808418D01*
D02*
G37*
G36*
X16229900Y7947600D02*
Y7701400D01*
X15748000D01*
Y7950200D01*
X16227299D01*
X16229900Y7947600D01*
D02*
G37*
G36*
X17513300Y7726400D02*
X17045700D01*
Y8224900D01*
X17513300D01*
Y7726400D01*
D02*
G37*
G36*
X14121700Y7723600D02*
X13654100D01*
Y8222100D01*
X14121700D01*
Y7723600D01*
D02*
G37*
G36*
X21409039Y7477959D02*
X21419858Y7463858D01*
X21433958Y7453039D01*
X21450378Y7446237D01*
X21467999Y7443918D01*
X21485622Y7446237D01*
X21494299Y7449832D01*
X21507001Y7442000D01*
Y7442000D01*
X21614301D01*
X21617000Y7442000D01*
X21627000D01*
X21629700Y7442000D01*
X21737000D01*
Y7453236D01*
X21804144D01*
X21838380Y7419000D01*
X21741690Y7322310D01*
X21738811Y7318000D01*
X21698000D01*
Y7210700D01*
X21698000Y7208000D01*
Y7198000D01*
X21698000Y7196390D01*
X21695370Y7183689D01*
X21638773D01*
X21573232Y7249231D01*
X21570218Y7251245D01*
X21393289Y7428174D01*
Y7482794D01*
X21405989Y7485321D01*
X21409039Y7477959D01*
D02*
G37*
G36*
X8607481Y9263776D02*
Y7879176D01*
X8658281Y7828376D01*
Y7815976D01*
X8709081D01*
Y7601002D01*
X9285001Y7601000D01*
Y7651801D01*
X9310400D01*
X9310400Y7796440D01*
X9319380Y7805420D01*
X9462801Y7805420D01*
X9462801Y7550201D01*
Y7347001D01*
X9293802D01*
Y7169201D01*
X9183401D01*
Y7280950D01*
X9091951Y7372401D01*
X8404281Y7372402D01*
Y6857801D01*
X8356901D01*
Y6629802D01*
X8404281D01*
Y6063376D01*
X7371628D01*
X7371151Y6066998D01*
X7362737Y6087310D01*
X7349353Y6104753D01*
X7331910Y6118137D01*
X7325486Y6120798D01*
Y8864600D01*
X7322769Y8878256D01*
X7315034Y8889834D01*
X7111834Y9093034D01*
X7100256Y9100769D01*
X7086600Y9103486D01*
X5689982D01*
X5320234Y9473234D01*
X5308656Y9480969D01*
X5295000Y9483686D01*
X4966000D01*
X4952344Y9480969D01*
X4940766Y9473234D01*
X4878766Y9411234D01*
X4871031Y9399656D01*
X4868314Y9386000D01*
Y9270630D01*
X4864942Y9268156D01*
X4855614Y9265004D01*
X4842534Y9273744D01*
X4824000Y9277431D01*
X4805466Y9273744D01*
X4789755Y9263246D01*
X4778245D01*
X4762534Y9273744D01*
X4744000Y9277431D01*
X4725467Y9273744D01*
X4720041Y9270119D01*
X4707341Y9276907D01*
Y9370000D01*
X4704803Y9382759D01*
X4697575Y9393575D01*
X4575575Y9515575D01*
X4564759Y9522803D01*
X4552000Y9525341D01*
X4342000D01*
X4329242Y9522803D01*
X4318425Y9515576D01*
X3965425Y9162575D01*
X3958197Y9151759D01*
X3955659Y9139000D01*
Y8527810D01*
X3450517Y8022668D01*
X3430808Y8018747D01*
X3413690Y8007310D01*
X3402253Y7990192D01*
X3398236Y7970000D01*
X3402253Y7949808D01*
X3413690Y7932690D01*
X3430808Y7921253D01*
X3451000Y7917236D01*
X3471192Y7921253D01*
X3488310Y7932690D01*
X3499747Y7949808D01*
X3503764Y7970000D01*
X3501837Y7979687D01*
X4012575Y8490425D01*
X4019802Y8501241D01*
X4022340Y8514000D01*
Y9125190D01*
X4355810Y9458660D01*
X4538190D01*
X4640660Y9356190D01*
Y9270532D01*
X4632358Y9264985D01*
X4624000Y9263955D01*
X4615643Y9264985D01*
X4602534Y9273744D01*
X4584000Y9277431D01*
X4565466Y9273744D01*
X4552358Y9264985D01*
X4544000Y9263955D01*
X4535642Y9264985D01*
X4522534Y9273744D01*
X4504000Y9277431D01*
X4485467Y9273744D01*
X4485432Y9273721D01*
X4477336Y9283586D01*
X4500718Y9306968D01*
X4505400Y9306036D01*
X4525592Y9310053D01*
X4542710Y9321490D01*
X4554147Y9338608D01*
X4558164Y9358800D01*
X4554147Y9378992D01*
X4542710Y9396110D01*
X4525592Y9407548D01*
X4505400Y9411564D01*
X4485208Y9407548D01*
X4468090Y9396110D01*
X4456653Y9378992D01*
X4452636Y9358800D01*
X4453567Y9354118D01*
X4397425Y9297976D01*
X4390197Y9287159D01*
X4387659Y9274400D01*
Y9260111D01*
X4379256Y9247534D01*
X4375570Y9229000D01*
Y9119000D01*
X4379256Y9100466D01*
X4389754Y9084754D01*
X4405466Y9074256D01*
X4424000Y9070570D01*
X4442534Y9074256D01*
X4455643Y9083015D01*
X4464000Y9084045D01*
X4472358Y9083015D01*
X4485467Y9074256D01*
X4504000Y9070570D01*
X4522534Y9074256D01*
X4535642Y9083015D01*
X4544000Y9084045D01*
X4552358Y9083015D01*
X4565466Y9074256D01*
X4584000Y9070570D01*
X4602534Y9074256D01*
X4615643Y9083015D01*
X4624000Y9084045D01*
X4632358Y9083015D01*
X4645466Y9074256D01*
X4664000Y9070570D01*
X4682534Y9074256D01*
X4695643Y9083015D01*
X4696184Y9083156D01*
X4704300Y9080596D01*
X4708659Y9077601D01*
Y8944200D01*
X4711197Y8931441D01*
X4718425Y8920625D01*
X4791568Y8847482D01*
X4790636Y8842800D01*
X4794653Y8822608D01*
X4806090Y8805490D01*
X4823208Y8794053D01*
X4843400Y8790036D01*
X4863592Y8794053D01*
X4880710Y8805490D01*
X4892147Y8822608D01*
X4896164Y8842800D01*
X4892147Y8862992D01*
X4880710Y8880110D01*
X4863592Y8891548D01*
X4848729Y8894504D01*
X4847466Y8898699D01*
X4847388Y8907720D01*
X4862310Y8917690D01*
X4873747Y8934808D01*
X4877764Y8955000D01*
X4873747Y8975192D01*
X4862310Y8992310D01*
X4857341Y8995630D01*
Y9075539D01*
X4868807Y9083453D01*
X4872358Y9083015D01*
X4885466Y9074256D01*
X4904000Y9070570D01*
X4922534Y9074256D01*
X4935643Y9083015D01*
X4944000Y9084045D01*
X4952358Y9083015D01*
X4965467Y9074256D01*
X4984000Y9070570D01*
X5002534Y9074256D01*
X5018246Y9084754D01*
X5028744Y9100466D01*
X5032431Y9119000D01*
Y9229000D01*
X5032205Y9230137D01*
X5056484Y9254417D01*
X5058400Y9254036D01*
X5078592Y9258053D01*
X5095710Y9269490D01*
X5107148Y9286608D01*
X5111164Y9306800D01*
X5107148Y9326992D01*
X5095710Y9344110D01*
X5078592Y9355547D01*
X5058400Y9359564D01*
X5038208Y9355547D01*
X5021090Y9344110D01*
X5009653Y9326992D01*
X5005636Y9306800D01*
X5006017Y9304884D01*
X4977214Y9276081D01*
X4965467Y9273744D01*
X4952386Y9265004D01*
X4943059Y9268156D01*
X4939686Y9270630D01*
Y9371218D01*
X4980782Y9412314D01*
X5280219D01*
X5649966Y9042566D01*
X5661544Y9034831D01*
X5675200Y9032114D01*
X7071818D01*
X7254114Y8849818D01*
Y6120798D01*
X7247690Y6118137D01*
X7230247Y6104753D01*
X7216863Y6087310D01*
X7208449Y6066998D01*
X7207972Y6063376D01*
X6514199Y6063375D01*
X6516067Y6058867D01*
X5613400Y5156200D01*
Y5130800D01*
X3194335D01*
X3188017Y5146053D01*
X3171187Y5167987D01*
X3149253Y5184817D01*
X3123710Y5195397D01*
X3096300Y5199006D01*
X3068889Y5195397D01*
X3043347Y5184817D01*
X3021413Y5167987D01*
X3004583Y5146053D01*
X2998265Y5130800D01*
X2911765D01*
X2907454Y5143500D01*
X2915911Y5149989D01*
X2931331Y5170085D01*
X2941024Y5193487D01*
X2944330Y5218600D01*
X2941024Y5243713D01*
X2931331Y5267115D01*
X2915911Y5287210D01*
X2895815Y5302630D01*
X2872413Y5312324D01*
X2847300Y5315630D01*
X2822187Y5312324D01*
X2798785Y5302630D01*
X2778690Y5287210D01*
X2763270Y5267115D01*
X2753576Y5243713D01*
X2750270Y5218600D01*
X2753576Y5193487D01*
X2763270Y5170085D01*
X2778690Y5149989D01*
X2787147Y5143500D01*
X2782835Y5130800D01*
X2286000D01*
Y6070600D01*
X2420895D01*
X2505848Y5985647D01*
X2523290Y5972263D01*
X2543603Y5963849D01*
X2565401Y5960979D01*
X3429000D01*
X3450798Y5963849D01*
X3471110Y5972263D01*
X3488553Y5985647D01*
X3573506Y6070600D01*
X3579882D01*
X3578014Y6075109D01*
X3670356Y6167450D01*
X3818550D01*
Y6481750D01*
X3562650D01*
Y6297956D01*
X3394115Y6129421D01*
X2600286D01*
X2566380Y6163327D01*
X2571240Y6175060D01*
X2640171D01*
X2689541Y6224430D01*
Y6238114D01*
X3244800D01*
X3258456Y6240831D01*
X3270034Y6248566D01*
X3926782Y6905314D01*
X4169000D01*
X4182656Y6908031D01*
X4194234Y6915766D01*
X4196247Y6918780D01*
X4230944Y6953477D01*
X4231527Y6954349D01*
X4881650Y7604472D01*
X4882523Y7605056D01*
X5001234Y7723766D01*
X5008969Y7735343D01*
X5011686Y7749000D01*
Y8160196D01*
X5022520Y8163947D01*
X5024386Y8164293D01*
X5041208Y8153053D01*
X5061400Y8149036D01*
X5081592Y8153053D01*
X5098710Y8164490D01*
X5110148Y8181608D01*
X5114164Y8201800D01*
X5110148Y8221992D01*
X5098710Y8239110D01*
X5097086Y8240195D01*
Y8258600D01*
X5094369Y8272256D01*
X5086634Y8283834D01*
X5032431Y8338037D01*
Y8389000D01*
X5028744Y8407534D01*
X5018246Y8423246D01*
X5002534Y8433744D01*
X4984000Y8437431D01*
X4965467Y8433744D01*
X4952358Y8424985D01*
X4944000Y8423955D01*
X4935643Y8424985D01*
X4922534Y8433744D01*
X4904000Y8437431D01*
X4885466Y8433744D01*
X4872358Y8424985D01*
X4864000Y8423955D01*
X4855643Y8424985D01*
X4842534Y8433744D01*
X4824000Y8437431D01*
X4805466Y8433744D01*
X4792358Y8424985D01*
X4784000Y8423955D01*
X4775642Y8424985D01*
X4762534Y8433744D01*
X4744000Y8437431D01*
X4725467Y8433744D01*
X4712358Y8424985D01*
X4704000Y8423955D01*
X4695643Y8424985D01*
X4682534Y8433744D01*
X4664000Y8437431D01*
X4645466Y8433744D01*
X4632358Y8424985D01*
X4624000Y8423955D01*
X4615643Y8424985D01*
X4602534Y8433744D01*
X4584000Y8437431D01*
X4565466Y8433744D01*
X4552358Y8424985D01*
X4544000Y8423955D01*
X4535642Y8424985D01*
X4522534Y8433744D01*
X4504000Y8437431D01*
X4485467Y8433744D01*
X4472358Y8424985D01*
X4464000Y8423955D01*
X4455643Y8424985D01*
X4442534Y8433744D01*
X4424000Y8437431D01*
X4405466Y8433744D01*
X4389754Y8423246D01*
X4379256Y8407534D01*
X4375570Y8389000D01*
Y8279000D01*
X4379256Y8260466D01*
X4388314Y8246910D01*
Y8215246D01*
X4385808Y8214747D01*
X4368690Y8203310D01*
X4357253Y8186192D01*
X4353236Y8166000D01*
X4357253Y8145808D01*
X4368690Y8128690D01*
X4385808Y8117252D01*
X4406000Y8113236D01*
X4426192Y8117252D01*
X4438308Y8125348D01*
X4453679Y8124199D01*
X4455073Y8123435D01*
X4471808Y8112253D01*
X4492000Y8108236D01*
X4512192Y8112253D01*
X4520616Y8117881D01*
X4537715Y8115150D01*
X4538690Y8113690D01*
X4555808Y8102253D01*
X4576000Y8098236D01*
X4596192Y8102253D01*
X4613310Y8113690D01*
X4619884Y8123530D01*
X4627269Y8129915D01*
X4636159Y8126767D01*
X4646208Y8120053D01*
X4666400Y8116036D01*
X4686592Y8120053D01*
X4697614Y8127417D01*
X4710314Y8120629D01*
Y7999782D01*
X4181218Y7470686D01*
X3101781D01*
X2528086Y8044382D01*
Y8085343D01*
X2542831Y8091450D01*
X2563721Y8107479D01*
X2579749Y8128369D01*
X2589826Y8152695D01*
X2593263Y8178800D01*
X2589826Y8204905D01*
X2579749Y8229231D01*
X2563721Y8250121D01*
X2542831Y8266150D01*
X2518505Y8276226D01*
X2492400Y8279663D01*
X2466295Y8276226D01*
X2441969Y8266150D01*
X2421079Y8250121D01*
X2405050Y8229231D01*
X2403386Y8225213D01*
X2390686Y8227739D01*
Y8383861D01*
X2403386Y8386387D01*
X2405050Y8382369D01*
X2421079Y8361479D01*
X2441969Y8345450D01*
X2466295Y8335374D01*
X2492400Y8331937D01*
X2518505Y8335374D01*
X2542831Y8345450D01*
X2563721Y8361479D01*
X2579343Y8381839D01*
X3184700D01*
Y8362720D01*
X3294700D01*
Y8492720D01*
X3184700D01*
Y8473602D01*
X2583738D01*
X2579749Y8483231D01*
X2563721Y8504121D01*
X2542831Y8520150D01*
X2518505Y8530226D01*
X2492400Y8533663D01*
X2466295Y8530226D01*
X2441969Y8520150D01*
X2421079Y8504121D01*
X2405050Y8483231D01*
X2403386Y8479213D01*
X2390686Y8481739D01*
Y8687019D01*
X2451549Y8747882D01*
X2466295Y8741774D01*
X2492400Y8738337D01*
X2518505Y8741774D01*
X2542831Y8751850D01*
X2563721Y8767879D01*
X2579749Y8788769D01*
X2589826Y8813095D01*
X2593263Y8839200D01*
X2589826Y8865305D01*
X2579749Y8889631D01*
X2563721Y8910521D01*
X2542831Y8926550D01*
X2518505Y8936626D01*
X2492400Y8940063D01*
X2466295Y8936626D01*
X2441969Y8926550D01*
X2421079Y8910521D01*
X2405050Y8889631D01*
X2394974Y8865305D01*
X2391537Y8839200D01*
X2394974Y8813095D01*
X2401082Y8798349D01*
X2329766Y8727034D01*
X2322031Y8715457D01*
X2319314Y8701800D01*
Y7851000D01*
X2322031Y7837344D01*
X2329766Y7825766D01*
X2812767Y7342766D01*
X2819622Y7338186D01*
X2815770Y7325486D01*
X2689541D01*
Y7339170D01*
X2640171Y7388540D01*
X2541431D01*
X2492061Y7339170D01*
Y7240430D01*
X2541431Y7191060D01*
X2640171D01*
X2689541Y7240430D01*
Y7254114D01*
X4269800D01*
X4283456Y7256831D01*
X4295034Y7264566D01*
X4796132Y7765664D01*
X4807836Y7759408D01*
X4806323Y7751800D01*
X4808647Y7740114D01*
X4140019Y7071486D01*
X2689541D01*
Y7085170D01*
X2640171Y7134540D01*
X2541431D01*
X2492061Y7085170D01*
Y6986430D01*
X2541431Y6937060D01*
X2640171D01*
X2689541Y6986430D01*
Y7000114D01*
X4154800D01*
X4159651Y7001079D01*
X4165908Y6989375D01*
X4153219Y6976686D01*
X3912000D01*
X3898344Y6973969D01*
X3886766Y6966234D01*
X3230018Y6309486D01*
X2689541D01*
Y6323170D01*
X2640171Y6372540D01*
X2541431D01*
X2492061Y6323170D01*
Y6254239D01*
X2480328Y6249379D01*
X2435541Y6294166D01*
Y6323170D01*
X2386171Y6372540D01*
X2287431D01*
X2286000Y6373133D01*
X2285999Y10660774D01*
X8607480Y10660775D01*
X8607481Y9263776D01*
D02*
G37*
G36*
X2405050Y8128369D02*
X2421079Y8107479D01*
X2441969Y8091450D01*
X2456714Y8085343D01*
Y8029600D01*
X2459431Y8015944D01*
X2467166Y8004367D01*
X3055147Y7416386D01*
X3049886Y7403686D01*
X2852782D01*
X2390686Y7865782D01*
Y8129861D01*
X2403386Y8132387D01*
X2405050Y8128369D01*
D02*
G37*
G36*
X19558000Y8076426D02*
Y7677201D01*
X19301579D01*
X19292599Y7686181D01*
X19292601Y7820200D01*
X19292799D01*
Y7940200D01*
X19292799D01*
X19292601Y7940398D01*
X19292603Y7960200D01*
X19292799D01*
Y8074454D01*
X19301904Y8084225D01*
X19558000Y8076426D01*
D02*
G37*
G36*
X21502000Y7603000D02*
X21609300D01*
X21612000Y7603000D01*
X21622000D01*
X21624699Y7603000D01*
X21732001D01*
Y7616236D01*
X21893144D01*
X21932721Y7576660D01*
X21936388Y7571171D01*
X21996953Y7510606D01*
X22014072Y7499168D01*
X22034264Y7495152D01*
X22034264Y7495152D01*
X22305019D01*
X22307504Y7493491D01*
X22308978Y7482238D01*
X22308376Y7478898D01*
X22302251Y7473680D01*
X21932941D01*
X21863310Y7543310D01*
X21846191Y7554747D01*
X21825999Y7558764D01*
X21737000D01*
Y7572000D01*
X21629700D01*
X21627000Y7572000D01*
X21617000D01*
X21614301Y7572000D01*
X21507001D01*
X21507001Y7572000D01*
X21495065Y7573850D01*
X21485622Y7577763D01*
X21467999Y7580082D01*
X21450378Y7577763D01*
X21433958Y7570961D01*
X21431494Y7569069D01*
X21423102Y7578638D01*
X21463174Y7618710D01*
X21502000D01*
Y7603000D01*
D02*
G37*
G36*
X20892801Y7042201D02*
Y6407201D01*
X20613400D01*
X20613400Y7042201D01*
X20892801Y7042201D01*
D02*
G37*
G36*
X16980049Y4148800D02*
Y3297897D01*
X15869949Y3297901D01*
X15869949Y3399499D01*
X15869949Y4148800D01*
X16980049Y4148800D01*
D02*
G37*
G36*
X12319350Y4435600D02*
X12319350Y3295100D01*
X10845800Y3295099D01*
X10845799Y6095999D01*
X12319349Y6096000D01*
X12319350Y4435600D01*
D02*
G37*
G36*
X20537199Y4968298D02*
X20537201Y3895172D01*
X20528221Y3886191D01*
X18911600Y3886201D01*
X18911601Y4968301D01*
X20537199Y4968298D01*
D02*
G37*
G36*
X23855000Y4022000D02*
X23841000Y4008000D01*
X23835001Y4002000D01*
X22964999D01*
Y4420000D01*
X22996001Y4451000D01*
X23855000D01*
Y4022000D01*
D02*
G37*
G36*
X18764531Y5797601D02*
X18784601Y5777531D01*
X18784601Y3886200D01*
X17844801Y3886200D01*
X17844801Y5797602D01*
X18764531Y5797601D01*
D02*
G37*
G36*
X10224800Y4952999D02*
X10224801Y2310000D01*
X22513998Y2309999D01*
Y2032999D01*
X8622000Y2033000D01*
Y2310000D01*
X8624595D01*
X8624602Y4953003D01*
X10224800Y4952999D01*
D02*
G37*
G36*
X8190000Y1934000D02*
X22509000D01*
Y1674000D01*
X7835999D01*
X7836000Y2437000D01*
X8190000D01*
X8190000Y1934000D01*
D02*
G37*
G36*
X15710950Y4438400D02*
X15710950Y3135000D01*
X21057600D01*
X22378999Y4456399D01*
X22691000D01*
X22691000Y4319399D01*
X22378999Y4007399D01*
X21082001Y2710400D01*
Y2684000D01*
X14249400D01*
Y2694999D01*
X14237399D01*
X14237399Y6095999D01*
X15710950Y6096000D01*
X15710950Y4438400D01*
D02*
G37*
G36*
X13588449Y4146000D02*
Y3295097D01*
X12478350Y3295101D01*
X12478350Y3396699D01*
X12478350Y4146000D01*
X13588449Y4146000D01*
D02*
G37*
G36*
X8497600Y2729000D02*
X7583199D01*
X7583200Y5410200D01*
X8497601D01*
X8497600Y2729000D01*
D02*
G37*
G36*
X19013200Y6508801D02*
X19038602Y6483401D01*
X19216402Y6305601D01*
X19267201Y6254801D01*
X20892801D01*
X20892801Y6051601D01*
X18810001Y6051602D01*
X18810001Y7296201D01*
X19013200Y7296201D01*
Y6508801D01*
D02*
G37*
G36*
X20537199Y5003800D02*
X19165601D01*
X19165601Y5537199D01*
X20537199Y5537200D01*
Y5003800D01*
D02*
G37*
G36*
X8726201Y6508801D02*
X8751601Y6483401D01*
X8929401Y6305601D01*
X8980201Y6254801D01*
X10605801D01*
X10605801Y6058868D01*
X10598534Y6051601D01*
X8523001Y6051602D01*
X8523001Y7296201D01*
X8726201Y7296201D01*
Y6508801D01*
D02*
G37*
G36*
X10605801Y7042201D02*
Y6407201D01*
X10326401D01*
X10326401Y7042201D01*
X10605801Y7042201D01*
D02*
G37*
G36*
X23825200Y6302205D02*
Y6205795D01*
X23812500Y6199532D01*
X23797514Y6211031D01*
X23774113Y6220724D01*
X23749001Y6224030D01*
X23723888Y6220724D01*
X23700485Y6211031D01*
X23680389Y6195610D01*
X23664969Y6175515D01*
X23655276Y6152113D01*
X23651970Y6127000D01*
X23655276Y6101887D01*
X23664969Y6078485D01*
X23680389Y6058389D01*
X23700485Y6042969D01*
X23723888Y6033276D01*
X23749001Y6029970D01*
X23774113Y6033276D01*
X23797514Y6042969D01*
X23812500Y6054468D01*
X23825200Y6048205D01*
Y5951795D01*
X23812500Y5945532D01*
X23797514Y5957031D01*
X23774113Y5966724D01*
X23749001Y5970030D01*
X23723888Y5966724D01*
X23700485Y5957031D01*
X23680389Y5941610D01*
X23664969Y5921515D01*
X23655276Y5898113D01*
X23651970Y5873000D01*
X23655276Y5847887D01*
X23657838Y5841702D01*
X23609227Y5793090D01*
X23071643D01*
X23067332Y5805790D01*
X23078354Y5814248D01*
X23091737Y5831691D01*
X23100153Y5852003D01*
X23103021Y5873801D01*
X23100153Y5895599D01*
X23091737Y5915911D01*
X23078354Y5933354D01*
X23077119Y5934301D01*
X23081430Y5947001D01*
X23091400D01*
Y5954511D01*
X23349001D01*
X23349001Y5954511D01*
X23366714Y5958035D01*
X23381734Y5968069D01*
X23707660Y6293997D01*
X23723888Y6287276D01*
X23749001Y6283970D01*
X23774113Y6287276D01*
X23797514Y6296969D01*
X23812500Y6308468D01*
X23825200Y6302205D01*
D02*
G37*
G36*
X16977699Y4758862D02*
X16977699Y4224999D01*
X15867599Y4225003D01*
X15867599Y4441362D01*
Y4758862D01*
X16977699Y4758862D01*
D02*
G37*
G36*
X13586099Y4756062D02*
X13586099Y4222199D01*
X12476000Y4222203D01*
X12476000Y4438562D01*
Y4756062D01*
X13586099Y4756062D01*
D02*
G37*
G36*
X23857001Y4520000D02*
X23842999Y4506000D01*
X23837000Y4500000D01*
X22967000D01*
Y4918000D01*
X22998000Y4949000D01*
X23857001D01*
Y4520000D01*
D02*
G37*
G36*
X10224800Y5003800D02*
X8802401Y5003800D01*
X8802401Y5410199D01*
X10224800Y5410200D01*
Y5003800D01*
D02*
G37*
G36*
X21931741Y4729000D02*
X22611836Y4728999D01*
X22639999Y4690137D01*
Y4517000D01*
X22102000Y4517000D01*
X21938000Y4353000D01*
Y4351000D01*
X20927000Y3340000D01*
X20916000D01*
D01*
X17263000D01*
Y3685000D01*
X20880000D01*
X21926266Y4731267D01*
X21931741Y4729000D01*
D02*
G37*
G36*
X12319000Y8093620D02*
X12318997Y7747000D01*
X11557000Y7747000D01*
X11557000Y8102599D01*
X12310020Y8102600D01*
X12319000Y8093620D01*
D02*
G37*
G36*
X10605802Y8724799D02*
X9767601Y8724799D01*
X9767600Y8855261D01*
X9767601Y9131199D01*
X10605801D01*
X10605802Y8724799D01*
D02*
G37*
G36*
X20892802Y8744001D02*
X20054601Y8744002D01*
X20054601Y8874463D01*
X20054601Y9150401D01*
X20892801D01*
X20892802Y8744001D01*
D02*
G37*
G36*
X20863560Y10411460D02*
Y10039401D01*
X21005800D01*
Y10039401D01*
X22860001D01*
Y9550400D01*
X22885400Y9525000D01*
X23183691D01*
X23191563Y9513695D01*
X23191533Y9512300D01*
X23172391Y9497610D01*
X23156969Y9477515D01*
X23147276Y9454113D01*
X23143970Y9429000D01*
X23147276Y9403887D01*
X23156969Y9380485D01*
X23172391Y9360389D01*
X23192485Y9344969D01*
X23215887Y9335276D01*
X23241000Y9331970D01*
X23266113Y9335276D01*
X23289516Y9344969D01*
X23309610Y9360389D01*
X23325031Y9380485D01*
X23334724Y9403887D01*
X23338029Y9429000D01*
X23334724Y9454113D01*
X23325031Y9477515D01*
X23309610Y9497610D01*
X23290466Y9512300D01*
X23290436Y9513695D01*
X23298309Y9525000D01*
X23691692D01*
X23699564Y9513695D01*
X23699533Y9512300D01*
X23680389Y9497610D01*
X23664969Y9477515D01*
X23655276Y9454113D01*
X23651970Y9429000D01*
X23655276Y9403887D01*
X23664969Y9380485D01*
X23680389Y9360389D01*
X23700485Y9344969D01*
X23723888Y9335276D01*
X23749001Y9331970D01*
X23774113Y9335276D01*
X23797514Y9344969D01*
X23812500Y9356468D01*
X23825200Y9350205D01*
Y8999795D01*
X23812500Y8993532D01*
X23797514Y9005031D01*
X23774113Y9014724D01*
X23749001Y9018030D01*
X23723888Y9014724D01*
X23700485Y9005031D01*
X23680389Y8989610D01*
X23664969Y8969515D01*
X23655276Y8946113D01*
X23651970Y8921000D01*
X23655276Y8895887D01*
X23664969Y8872485D01*
X23680389Y8852389D01*
X23700485Y8836969D01*
X23723888Y8827276D01*
X23749001Y8823970D01*
X23774113Y8827276D01*
X23797514Y8836969D01*
X23812500Y8848468D01*
X23825200Y8842205D01*
Y8745795D01*
X23812500Y8739532D01*
X23797514Y8751031D01*
X23774113Y8760724D01*
X23749001Y8764030D01*
X23723888Y8760724D01*
X23700485Y8751031D01*
X23680389Y8735610D01*
X23664969Y8715515D01*
X23655276Y8692113D01*
X23651970Y8667000D01*
X23655276Y8641887D01*
X23664969Y8618485D01*
X23680389Y8598389D01*
X23700485Y8582969D01*
X23723888Y8573276D01*
X23749001Y8569970D01*
X23774113Y8573276D01*
X23797514Y8582969D01*
X23812500Y8594468D01*
X23825200Y8588205D01*
Y8237795D01*
X23812500Y8231532D01*
X23797514Y8243031D01*
X23774113Y8252724D01*
X23749001Y8256030D01*
X23723888Y8252724D01*
X23700485Y8243031D01*
X23680389Y8227610D01*
X23664969Y8207515D01*
X23655276Y8184113D01*
X23651970Y8159000D01*
X23655276Y8133887D01*
X23664969Y8110485D01*
X23680389Y8090389D01*
X23700485Y8074969D01*
X23723888Y8065276D01*
X23749001Y8061970D01*
X23774113Y8065276D01*
X23797514Y8074969D01*
X23812500Y8086468D01*
X23825200Y8080205D01*
Y7983795D01*
X23812500Y7977532D01*
X23797514Y7989031D01*
X23774113Y7998724D01*
X23749001Y8002030D01*
X23723888Y7998724D01*
X23700485Y7989031D01*
X23680389Y7973610D01*
X23664969Y7953515D01*
X23655276Y7930113D01*
X23651970Y7905000D01*
X23655276Y7879887D01*
X23664969Y7856485D01*
X23680389Y7836389D01*
X23700485Y7820969D01*
X23723888Y7811276D01*
X23749001Y7807970D01*
X23774113Y7811276D01*
X23797514Y7820969D01*
X23812500Y7832468D01*
X23825200Y7826205D01*
Y7729795D01*
X23812500Y7723532D01*
X23797514Y7735031D01*
X23774113Y7744724D01*
X23749001Y7748030D01*
X23723888Y7744724D01*
X23700485Y7735031D01*
X23680389Y7719610D01*
X23664969Y7699515D01*
X23655276Y7676113D01*
X23651970Y7651000D01*
X23655276Y7625887D01*
X23664969Y7602485D01*
X23680389Y7582389D01*
X23700485Y7566969D01*
X23723888Y7557276D01*
X23749001Y7553970D01*
X23774113Y7557276D01*
X23797514Y7566969D01*
X23812500Y7578468D01*
X23825200Y7572205D01*
Y7475795D01*
X23812500Y7469532D01*
X23797514Y7481031D01*
X23774113Y7490724D01*
X23749001Y7494030D01*
X23723888Y7490724D01*
X23700485Y7481031D01*
X23680389Y7465610D01*
X23664969Y7445515D01*
X23655276Y7422113D01*
X23651970Y7397000D01*
X23655276Y7371887D01*
X23664969Y7348485D01*
X23680389Y7328389D01*
X23700485Y7312969D01*
X23723888Y7303276D01*
X23749001Y7299970D01*
X23774113Y7303276D01*
X23797514Y7312969D01*
X23812500Y7324468D01*
X23825200Y7318205D01*
Y7221795D01*
X23812500Y7215532D01*
X23797514Y7227031D01*
X23774113Y7236724D01*
X23749001Y7240030D01*
X23723888Y7236724D01*
X23700485Y7227031D01*
X23680389Y7211610D01*
X23664969Y7191515D01*
X23664047Y7189289D01*
X23432143D01*
X23324100Y7297332D01*
X23309082Y7307366D01*
X23304311Y7308315D01*
X23301144Y7321894D01*
X23309610Y7328389D01*
X23325031Y7348485D01*
X23334724Y7371887D01*
X23338029Y7397000D01*
X23334724Y7422113D01*
X23325031Y7445515D01*
X23309610Y7465610D01*
X23289516Y7481031D01*
X23269815Y7489191D01*
X23265120Y7502457D01*
X23273730Y7511068D01*
X23273732Y7511068D01*
X23283766Y7526086D01*
X23287289Y7543800D01*
Y7566048D01*
X23289516Y7566969D01*
X23309610Y7582389D01*
X23325031Y7602485D01*
X23334724Y7625887D01*
X23338029Y7651000D01*
X23334724Y7676113D01*
X23325031Y7699515D01*
X23309610Y7719610D01*
X23289516Y7735031D01*
X23266113Y7744724D01*
X23241000Y7748030D01*
X23215887Y7744724D01*
X23192485Y7735031D01*
X23172989Y7720071D01*
X23168581Y7720782D01*
X23160289Y7723596D01*
Y7832403D01*
X23168581Y7835218D01*
X23172989Y7835929D01*
X23192485Y7820969D01*
X23215887Y7811276D01*
X23241000Y7807970D01*
X23266113Y7811276D01*
X23289516Y7820969D01*
X23309610Y7836389D01*
X23325031Y7856485D01*
X23334724Y7879887D01*
X23338029Y7905000D01*
X23334724Y7930113D01*
X23325031Y7953515D01*
X23309610Y7973610D01*
X23289516Y7989031D01*
X23266113Y7998724D01*
X23241000Y8002030D01*
X23215887Y7998724D01*
X23192485Y7989031D01*
X23172989Y7974071D01*
X23168581Y7974782D01*
X23160289Y7977596D01*
Y8032626D01*
X23199660Y8071997D01*
X23215887Y8065276D01*
X23241000Y8061970D01*
X23266113Y8065276D01*
X23289516Y8074969D01*
X23309610Y8090389D01*
X23325031Y8110485D01*
X23334724Y8133887D01*
X23338029Y8159000D01*
X23334724Y8184113D01*
X23325031Y8207515D01*
X23309610Y8227610D01*
X23289516Y8243031D01*
X23266113Y8252724D01*
X23241000Y8256030D01*
X23215887Y8252724D01*
X23192485Y8243031D01*
X23172391Y8227610D01*
X23156969Y8207515D01*
X23147276Y8184113D01*
X23143970Y8159000D01*
X23145338Y8148602D01*
X23081268Y8084532D01*
X23071234Y8069514D01*
X23067709Y8051800D01*
X23067711Y8051799D01*
Y7876042D01*
X23055011Y7871731D01*
X23046553Y7882753D01*
X23029111Y7896137D01*
X23008798Y7904551D01*
X22987000Y7907421D01*
X22965202Y7904551D01*
X22944890Y7896137D01*
X22927448Y7882753D01*
X22914062Y7865310D01*
X22905649Y7844998D01*
X22902779Y7823200D01*
X22905649Y7801402D01*
X22914062Y7781090D01*
X22927448Y7763647D01*
X22937732Y7755756D01*
X22939476Y7739754D01*
X22939249Y7739311D01*
X22925798Y7725862D01*
X22917458Y7731435D01*
X22894048Y7736091D01*
X22834047D01*
X22810635Y7731435D01*
X22790790Y7718173D01*
X22777528Y7698327D01*
X22772871Y7674916D01*
X22777528Y7651505D01*
X22790790Y7631658D01*
X22810635Y7618397D01*
X22813184Y7617890D01*
Y7604941D01*
X22810635Y7604435D01*
X22790790Y7591173D01*
X22777528Y7571327D01*
X22772871Y7547916D01*
X22777528Y7524505D01*
X22790790Y7504658D01*
X22810635Y7491397D01*
X22813184Y7490890D01*
Y7477941D01*
X22810635Y7477435D01*
X22790790Y7464173D01*
X22777528Y7444327D01*
X22772871Y7420916D01*
X22777528Y7397505D01*
X22790790Y7377658D01*
X22810635Y7364397D01*
X22813184Y7363890D01*
Y7350941D01*
X22810635Y7350435D01*
X22790790Y7337173D01*
X22777528Y7317327D01*
X22772871Y7293916D01*
X22777528Y7270505D01*
X22790790Y7250658D01*
X22810635Y7237397D01*
X22834047Y7232740D01*
X22894048D01*
X22917458Y7237397D01*
X22932767Y7247626D01*
X23064603D01*
X23068826Y7241109D01*
X23070184Y7235248D01*
X23018626Y7183689D01*
X21836980D01*
X21828972Y7191698D01*
X21828000Y7196390D01*
Y7208000D01*
X21828000Y7210700D01*
Y7259380D01*
X21936771Y7368152D01*
X22305019D01*
X22310637Y7364397D01*
X22334048Y7359740D01*
X22394048D01*
X22417459Y7364397D01*
X22437306Y7377658D01*
X22450568Y7397505D01*
X22455225Y7420916D01*
X22450568Y7444327D01*
X22437306Y7464173D01*
X22417459Y7477435D01*
X22414911Y7477941D01*
Y7490890D01*
X22417459Y7491397D01*
X22437306Y7504658D01*
X22450568Y7524505D01*
X22455225Y7547916D01*
X22450568Y7571327D01*
X22437306Y7591173D01*
X22420779Y7602216D01*
X22424632Y7614916D01*
X22454048D01*
Y7734916D01*
X22410338D01*
Y7846366D01*
X22420711Y7850663D01*
X22438153Y7864047D01*
X22448643Y7877718D01*
X22503200D01*
X22520758Y7881211D01*
X22535643Y7891157D01*
X22740044Y8095557D01*
X22744296Y8101923D01*
X22750911Y8104663D01*
X22768353Y8118047D01*
X22781737Y8135489D01*
X22790150Y8155802D01*
X22793021Y8177600D01*
X22790150Y8199398D01*
X22781737Y8219710D01*
X22768353Y8237153D01*
X22753482Y8248564D01*
Y8301518D01*
X22755998Y8301849D01*
X22776311Y8310263D01*
X22793753Y8323647D01*
X22807137Y8341090D01*
X22815552Y8361402D01*
X22818420Y8383200D01*
X22815552Y8404998D01*
X22807137Y8425311D01*
X22793753Y8442753D01*
X22776311Y8456137D01*
X22755998Y8464551D01*
X22734200Y8467421D01*
X22712402Y8464551D01*
X22692090Y8456137D01*
X22674648Y8442753D01*
X22661263Y8425311D01*
X22652849Y8404998D01*
X22649980Y8383200D01*
X22652849Y8361402D01*
X22661263Y8341090D01*
X22661719Y8340496D01*
Y8246722D01*
X22649248Y8237153D01*
X22635863Y8219710D01*
X22627449Y8199398D01*
X22624580Y8177600D01*
X22627449Y8155802D01*
X22635863Y8135489D01*
X22642088Y8127375D01*
X22484195Y7969481D01*
X22448643D01*
X22438153Y7983153D01*
X22420711Y7996537D01*
X22400398Y8004951D01*
X22378600Y8007820D01*
X22356802Y8004951D01*
X22336490Y7996537D01*
X22319048Y7983153D01*
X22305663Y7965710D01*
X22297249Y7945398D01*
X22294380Y7923600D01*
X22297249Y7901802D01*
X22305663Y7881489D01*
X22317760Y7865726D01*
Y7734916D01*
X22276077D01*
X22265448Y7739916D01*
X22265448Y7739916D01*
X22265446Y7739916D01*
X22145448D01*
Y7613380D01*
X22145448Y7609916D01*
X22137086Y7600680D01*
X22056119D01*
X22014674Y7642123D01*
X22011008Y7647612D01*
X22011008Y7647612D01*
X21952310Y7706310D01*
X21808310Y7850310D01*
X21791193Y7861748D01*
X21771001Y7865764D01*
X21732001D01*
Y7879000D01*
X21624699D01*
X21622000Y7879000D01*
X21612000D01*
X21609300Y7879000D01*
X21502000D01*
Y7857290D01*
X21456000D01*
X21438286Y7853766D01*
X21423270Y7843732D01*
X21423268Y7843731D01*
X21220268Y7640731D01*
X21210234Y7625714D01*
X21206709Y7608000D01*
X21206709Y7607998D01*
Y7571387D01*
X21205710Y7566358D01*
X21205710Y7566357D01*
Y7557538D01*
X21198222Y7547780D01*
X21191673Y7531968D01*
X21189439Y7515000D01*
X21191673Y7498031D01*
X21198222Y7482220D01*
X21205710Y7472462D01*
Y7393002D01*
X21205710Y7393000D01*
X21209235Y7375286D01*
X21219267Y7360269D01*
X21484769Y7094769D01*
X21601868Y6977669D01*
X21601868Y6977668D01*
X21616885Y6967634D01*
X21634599Y6964110D01*
X21634601Y6964111D01*
X23190431D01*
X23190433Y6964110D01*
X23191438Y6964310D01*
X23272194D01*
X23380235Y6856269D01*
X23380235Y6856268D01*
X23395255Y6846234D01*
X23412968Y6842710D01*
X23412968Y6842710D01*
X23664047D01*
X23664969Y6840485D01*
X23680389Y6820389D01*
X23700485Y6804969D01*
X23723888Y6795276D01*
X23749001Y6791970D01*
X23774113Y6795276D01*
X23797514Y6804969D01*
X23812500Y6816468D01*
X23825200Y6810205D01*
Y6459795D01*
X23812500Y6453532D01*
X23797514Y6465031D01*
X23774113Y6474724D01*
X23749001Y6478030D01*
X23723888Y6474724D01*
X23700485Y6465031D01*
X23680389Y6449610D01*
X23664969Y6429515D01*
X23655276Y6406113D01*
X23651970Y6381000D01*
X23653339Y6370602D01*
X23329826Y6047090D01*
X23091400D01*
Y6057001D01*
X22961401D01*
Y6057001D01*
X22954076Y6055686D01*
X22948659Y6059742D01*
X22948364Y6060625D01*
X22949896Y6074681D01*
X22960120Y6081511D01*
X22993401D01*
X22993401Y6081511D01*
X23011115Y6085035D01*
X23026134Y6095069D01*
X23028064Y6097001D01*
X23091400D01*
Y6207000D01*
X23091400Y6207001D01*
X23091402D01*
X23097044Y6217303D01*
X23099336Y6220290D01*
X23107751Y6240602D01*
X23110622Y6262400D01*
X23107751Y6284198D01*
X23099336Y6304511D01*
X23085953Y6321953D01*
X23068510Y6335337D01*
X23048198Y6343751D01*
X23026401Y6346621D01*
X23004602Y6343751D01*
X22984290Y6335337D01*
X22966847Y6321953D01*
X22953464Y6304511D01*
X22945049Y6284198D01*
X22942180Y6262400D01*
X22945049Y6240602D01*
X22953464Y6220290D01*
X22955730Y6217335D01*
X22961400Y6207001D01*
X22961400D01*
X22961400Y6207000D01*
Y6188509D01*
X22948700Y6181720D01*
X22944810Y6184320D01*
X22921399Y6188976D01*
X22861400D01*
X22837988Y6184320D01*
X22818143Y6171058D01*
X22804881Y6151212D01*
X22800224Y6127801D01*
X22804881Y6104390D01*
X22818143Y6084543D01*
X22837988Y6071282D01*
X22840536Y6070775D01*
Y6057826D01*
X22837988Y6057320D01*
X22818143Y6044058D01*
X22804881Y6024212D01*
X22800224Y6000801D01*
X22804881Y5977390D01*
X22818143Y5957543D01*
X22837988Y5944282D01*
X22840536Y5943775D01*
Y5930826D01*
X22837988Y5930320D01*
X22818143Y5917058D01*
X22804881Y5897212D01*
X22800224Y5873801D01*
X22804881Y5850390D01*
X22818143Y5830543D01*
X22837988Y5817282D01*
X22840536Y5816775D01*
Y5803826D01*
X22837988Y5803320D01*
X22818143Y5790058D01*
X22804881Y5770212D01*
X22800224Y5746801D01*
X22804881Y5723390D01*
X22818143Y5703543D01*
X22837988Y5690282D01*
X22861400Y5685625D01*
X22921399D01*
X22944810Y5690282D01*
X22960120Y5700511D01*
X23169447D01*
X23173529Y5688485D01*
X23172391Y5687610D01*
X23156969Y5667515D01*
X23153728Y5659689D01*
X22701373D01*
X22626889Y5734174D01*
Y5918199D01*
X22626891Y5918200D01*
X22623366Y5935914D01*
X22613332Y5950932D01*
X22537132Y6027132D01*
X22522115Y6037166D01*
X22504401Y6040690D01*
X22504399Y6040689D01*
X22466908D01*
X22464658Y6044058D01*
X22448132Y6055101D01*
X22451985Y6067801D01*
X22481400D01*
Y6187801D01*
X22444164D01*
Y6469145D01*
X22546716Y6571696D01*
X22555200Y6570579D01*
X22576997Y6573449D01*
X22597310Y6581863D01*
X22614754Y6595247D01*
X22628137Y6612690D01*
X22636551Y6633002D01*
X22639421Y6654800D01*
X22636551Y6676598D01*
X22628137Y6696910D01*
X22614754Y6714353D01*
X22597310Y6727737D01*
X22576997Y6736151D01*
X22555200Y6739021D01*
X22533401Y6736151D01*
X22513091Y6727737D01*
X22495647Y6714353D01*
X22482263Y6696910D01*
X22473849Y6676598D01*
X22470979Y6654800D01*
X22472096Y6646316D01*
X22399142Y6573362D01*
X22385086Y6570566D01*
X22370068Y6560532D01*
X22360034Y6545514D01*
X22357237Y6531458D01*
X22354091Y6528310D01*
X22342653Y6511192D01*
X22338637Y6491000D01*
Y6187801D01*
X22303429D01*
X22292799Y6192801D01*
X22292799Y6192801D01*
X22292799Y6192801D01*
X22172801D01*
Y6062801D01*
X22292799D01*
Y6062801D01*
X22301401Y6067801D01*
X22330817D01*
X22334669Y6055101D01*
X22318143Y6044058D01*
X22304881Y6024212D01*
X22300224Y6000801D01*
X22304881Y5977390D01*
X22318143Y5957543D01*
X22337990Y5944282D01*
X22340536Y5943775D01*
Y5930826D01*
X22337990Y5930320D01*
X22318143Y5917058D01*
X22315892Y5913689D01*
X22174200D01*
X22174200Y5913690D01*
X22156487Y5910166D01*
X22141467Y5900132D01*
X22141467Y5900131D01*
X21989069Y5747732D01*
X21979034Y5732714D01*
X21975510Y5715000D01*
X21975511Y5714999D01*
Y5537201D01*
X21975510Y5537200D01*
X21979034Y5519486D01*
X21989069Y5504468D01*
X22161269Y5332269D01*
X22161269Y5332268D01*
X22176286Y5322234D01*
X22194000Y5318710D01*
X23156049D01*
X23156969Y5316485D01*
X23172391Y5296389D01*
X23192485Y5280969D01*
X23215887Y5271276D01*
X23241000Y5267970D01*
X23266113Y5271276D01*
X23289516Y5280969D01*
X23309610Y5296389D01*
X23325031Y5316485D01*
X23334724Y5339887D01*
X23338029Y5365000D01*
X23334724Y5390113D01*
X23325031Y5413515D01*
X23309610Y5433610D01*
X23289516Y5449031D01*
X23266113Y5458724D01*
X23241000Y5462030D01*
X23215887Y5458724D01*
X23192485Y5449031D01*
X23172391Y5433610D01*
X23156969Y5413515D01*
X23156049Y5411289D01*
X22213174D01*
X22068089Y5556374D01*
Y5695826D01*
X22193375Y5821111D01*
X22332260D01*
X22337990Y5817282D01*
X22361401Y5812625D01*
X22421400D01*
X22444810Y5817282D01*
X22464658Y5830543D01*
X22477919Y5850390D01*
X22482576Y5873801D01*
X22477919Y5897212D01*
X22464658Y5917058D01*
X22447827Y5928305D01*
X22446375Y5939396D01*
X22446970Y5942840D01*
X22453168Y5948111D01*
X22485226D01*
X22534311Y5899026D01*
Y5715001D01*
X22534309Y5715000D01*
X22537834Y5697286D01*
X22547868Y5682268D01*
X22649467Y5580669D01*
X22649467Y5580668D01*
X22664487Y5570634D01*
X22682201Y5567111D01*
X23159560D01*
X23172391Y5550389D01*
X23192485Y5534969D01*
X23215887Y5525276D01*
X23241000Y5521970D01*
X23266113Y5525276D01*
X23289516Y5534969D01*
X23309610Y5550389D01*
X23325031Y5570485D01*
X23334724Y5593887D01*
X23338029Y5619000D01*
X23334724Y5644113D01*
X23325031Y5667515D01*
X23309610Y5687610D01*
X23308472Y5688485D01*
X23312553Y5700511D01*
X23628400D01*
X23628401Y5700511D01*
X23646115Y5704035D01*
X23661133Y5714069D01*
X23726054Y5778991D01*
X23749001Y5775970D01*
X23774113Y5779276D01*
X23797514Y5788969D01*
X23812500Y5800468D01*
X23825200Y5794205D01*
Y5697795D01*
X23812500Y5691532D01*
X23797514Y5703031D01*
X23774113Y5712724D01*
X23749001Y5716030D01*
X23723888Y5712724D01*
X23700485Y5703031D01*
X23680389Y5687610D01*
X23664969Y5667515D01*
X23655276Y5644113D01*
X23651970Y5619000D01*
X23655276Y5593887D01*
X23664969Y5570485D01*
X23680389Y5550389D01*
X23700485Y5534969D01*
X23723888Y5525276D01*
X23749001Y5521970D01*
X23774113Y5525276D01*
X23797514Y5534969D01*
X23812500Y5546468D01*
X23825200Y5540205D01*
Y5443795D01*
X23812500Y5437532D01*
X23797514Y5449031D01*
X23774113Y5458724D01*
X23749001Y5462030D01*
X23723888Y5458724D01*
X23700485Y5449031D01*
X23680389Y5433610D01*
X23664969Y5413515D01*
X23655276Y5390113D01*
X23651970Y5365000D01*
X23655276Y5339887D01*
X23664969Y5316485D01*
X23680389Y5296389D01*
X23700485Y5280969D01*
X23723888Y5271276D01*
X23749001Y5267970D01*
X23774113Y5271276D01*
X23797514Y5280969D01*
X23812500Y5292468D01*
X23825200Y5286205D01*
Y5029200D01*
X21005800D01*
Y9277401D01*
X19980202D01*
Y9356899D01*
X19840202D01*
Y9277401D01*
X19710199D01*
Y9356899D01*
X19570200D01*
Y9289867D01*
X19557733Y9277401D01*
X19354800D01*
Y10039401D01*
X20308054Y10039401D01*
X20309840Y10421620D01*
X20843240D01*
X20848320Y10426700D01*
X20863560Y10411460D01*
D02*
G37*
G36*
X20169427Y10837468D02*
X20170140Y10838180D01*
X23190199D01*
X23371809Y10656570D01*
X23373080Y10657840D01*
X23822659Y10208260D01*
Y10160000D01*
X23825200D01*
X23825200Y9575800D01*
X23139401Y9575800D01*
X23139400Y10149840D01*
X23025101Y10264140D01*
X20883952D01*
Y10411459D01*
X20883952Y10411460D01*
X20882401Y10419264D01*
X20878799Y10424651D01*
Y10449560D01*
X20289520D01*
Y10422067D01*
X20289449Y10421715D01*
X20287756Y10059792D01*
X19522440Y10059793D01*
X19522440Y10223500D01*
X19720560D01*
X19778979Y10281920D01*
X19817081Y10320020D01*
Y10347960D01*
Y10538460D01*
X19773900Y10581640D01*
X19771851D01*
X19766464Y10585240D01*
X19758659Y10586792D01*
X19666367D01*
X19665421Y10586603D01*
X19565421D01*
X19564473Y10586792D01*
X19039841D01*
X19039841Y10586792D01*
X19032036Y10585240D01*
X19026649Y10581640D01*
X13147601D01*
X13141348Y10589260D01*
X13137274Y10609744D01*
X13125670Y10627110D01*
X13108304Y10638714D01*
X13087820Y10642788D01*
X12987820D01*
X12967336Y10638714D01*
X12949969Y10627110D01*
X12938367Y10609744D01*
X12934293Y10589260D01*
X12928038Y10581640D01*
X12824460D01*
Y9992360D01*
X12072620D01*
X12057380Y10007600D01*
Y10243820D01*
X12306300D01*
X12352020Y10289540D01*
Y10317480D01*
Y10507980D01*
X12308840Y10551160D01*
X12059920D01*
Y10761971D01*
X12065000Y10767483D01*
Y10855945D01*
X12073995Y10864910D01*
X20169427Y10837468D01*
D02*
G37*
G36*
X11369699Y9359350D02*
X11369700Y8787850D01*
X10983004Y8787850D01*
X10983001Y9350369D01*
X10991981Y9359350D01*
X11369699Y9359350D01*
D02*
G37*
G36*
X17631499Y9931400D02*
X18886201Y9931400D01*
Y7867401D01*
X18937001Y7816601D01*
Y7804201D01*
X18987801D01*
Y7601002D01*
X19572002Y7601000D01*
Y7651801D01*
X19597400D01*
Y7829601D01*
X19749802Y7829601D01*
X19749802Y7550201D01*
Y7347001D01*
X19580801D01*
Y7169201D01*
X19470401D01*
Y7280950D01*
X19378951Y7372401D01*
X18683002Y7372402D01*
Y6857801D01*
X18643901D01*
Y6629802D01*
X18683002D01*
Y6051601D01*
X17602200Y6051601D01*
Y6345300D01*
X14263000Y6345299D01*
Y6614434D01*
X14275002Y6616123D01*
X14275769Y6614269D01*
X14276161Y6612301D01*
X14277278Y6610629D01*
X14278047Y6608773D01*
X14278281Y6608424D01*
X14278281Y6608423D01*
X14278282Y6608421D01*
X14279701Y6607002D01*
X14280582Y6605685D01*
X14281898Y6604804D01*
X14283907Y6602797D01*
X14283908Y6602796D01*
X14283910Y6602796D01*
X14286530Y6601710D01*
X14287196Y6601265D01*
X14287984Y6601108D01*
X14289037Y6600672D01*
X14289204Y6600560D01*
X14289401Y6600520D01*
X14291257Y6599752D01*
X14291258Y6599752D01*
X14291260Y6599751D01*
X14291261D01*
X14293030Y6599400D01*
X14295038D01*
X14297008Y6599008D01*
X17514131Y6599008D01*
X17514133Y6599008D01*
X17521935Y6600561D01*
X17528551Y6604981D01*
X17528552Y6604982D01*
X17540421Y6616849D01*
X17544839Y6623465D01*
X17546153Y6630073D01*
X17548743Y6632058D01*
X17559561Y6646159D01*
X17566364Y6662579D01*
X17568681Y6680200D01*
X17566364Y6697821D01*
X17559561Y6714241D01*
X17549001Y6728005D01*
Y6874200D01*
X17544371D01*
X17543723Y6875170D01*
X17542953Y6877026D01*
X17542720Y6877376D01*
X17542720Y6877376D01*
X17542719Y6877378D01*
X17541299Y6878797D01*
X17540419Y6880114D01*
X17539101Y6880995D01*
X17537093Y6883002D01*
X17537093Y6883003D01*
X17537091Y6883004D01*
X17534470Y6884089D01*
X17533803Y6884535D01*
X17533015Y6884691D01*
X17531963Y6885127D01*
X17531795Y6885239D01*
X17531598Y6885279D01*
X17529742Y6886047D01*
X17529741Y6886047D01*
X17529739Y6886048D01*
X17529739D01*
X17527969Y6886400D01*
X17525961D01*
X17523991Y6886792D01*
X16955711Y6886792D01*
X16949449Y6899492D01*
X16949960Y6900159D01*
X16956763Y6916579D01*
X16959082Y6934200D01*
X16956763Y6951821D01*
X16949960Y6968241D01*
X16940392Y6980713D01*
Y7014030D01*
X16940392Y7014032D01*
X16938840Y7021835D01*
X16934419Y7028451D01*
X16934418Y7028452D01*
X16922551Y7040319D01*
X16915935Y7044740D01*
X16908131Y7046292D01*
X16007892Y7046292D01*
Y7079700D01*
X16032300D01*
Y7403909D01*
X16111829D01*
X16114717Y7404483D01*
X16117650Y7404757D01*
X16118590Y7405254D01*
X16119632Y7405461D01*
X16122083Y7407098D01*
X16124686Y7408473D01*
X16198257Y7468234D01*
X16198810Y7468463D01*
X16216254Y7481847D01*
X16218297Y7484512D01*
X16221201Y7486869D01*
X16233900Y7480823D01*
Y7424700D01*
X16165300D01*
Y7413699D01*
X16160960Y7407204D01*
X16159409Y7399400D01*
Y7094600D01*
X16160960Y7086796D01*
X16165300Y7080301D01*
Y7079700D01*
X16166100D01*
X16171996Y7075760D01*
X16179800Y7074208D01*
X16840198D01*
X16840199Y7074208D01*
X16848003Y7075760D01*
X16854619Y7080181D01*
X16854620Y7080181D01*
X17006119Y7231681D01*
X17010539Y7238296D01*
X17012093Y7246100D01*
Y8351900D01*
X17010539Y8359704D01*
X17006119Y8366319D01*
X16999503Y8370740D01*
X16991701Y8372292D01*
X16990714D01*
X16988200Y8372792D01*
X16488200D01*
X16485686Y8372292D01*
X16474200D01*
X16474200Y8372292D01*
X16466396Y8370740D01*
X16463438Y8368764D01*
X16455344Y8378629D01*
X16497240Y8420525D01*
X16727599D01*
Y8396400D01*
X16877599D01*
Y8576400D01*
X16765916D01*
X16754778Y8589100D01*
X16755582Y8595200D01*
X16755574Y8595252D01*
X16763948Y8604800D01*
X16890999D01*
Y8775759D01*
X17042290D01*
X17125859Y8692190D01*
Y8554357D01*
X17124359Y8546816D01*
Y8360400D01*
X17033200D01*
Y8255400D01*
X17033200D01*
X17036342Y8243576D01*
X17036340Y8242700D01*
X17031281Y8239319D01*
X17026860Y8232704D01*
X17025308Y8224900D01*
Y7726400D01*
X17026860Y7718596D01*
X17031281Y7711981D01*
X17037897Y7707560D01*
X17045700Y7706008D01*
X17462358D01*
X17475200Y7704318D01*
X17488042Y7706008D01*
X17513300D01*
X17521103Y7707560D01*
X17527719Y7711981D01*
X17532140Y7718596D01*
X17533691Y7726400D01*
Y7737747D01*
X17534161Y7738359D01*
X17540964Y7754779D01*
X17543282Y7772400D01*
X17540964Y7790021D01*
X17534161Y7806441D01*
X17533691Y7807053D01*
Y7839347D01*
X17534161Y7839959D01*
X17540964Y7856379D01*
X17543282Y7874000D01*
X17540964Y7891621D01*
X17534161Y7908041D01*
X17533691Y7908653D01*
Y7940947D01*
X17534161Y7941559D01*
X17540964Y7957979D01*
X17543282Y7975600D01*
X17540964Y7993221D01*
X17534161Y8009641D01*
X17533691Y8010253D01*
Y8042547D01*
X17534161Y8043159D01*
X17540964Y8059579D01*
X17543282Y8077200D01*
X17540964Y8094821D01*
X17534161Y8111241D01*
X17533691Y8111853D01*
Y8144147D01*
X17534161Y8144759D01*
X17540964Y8161179D01*
X17543282Y8178800D01*
X17540964Y8196421D01*
X17534161Y8212841D01*
X17533691Y8213453D01*
Y8224900D01*
X17532140Y8232704D01*
X17527719Y8239319D01*
X17521103Y8243740D01*
X17513300Y8245292D01*
X17487282D01*
X17475200Y8246882D01*
X17463118Y8245292D01*
X17385683D01*
X17373599Y8246882D01*
X17361517Y8245292D01*
X17317204D01*
Y8758300D01*
X17314798Y8776574D01*
X17307744Y8793602D01*
X17296524Y8808224D01*
X17156824Y8947924D01*
X17142203Y8959144D01*
X17125174Y8966198D01*
X17106900Y8968604D01*
X16889799D01*
X16871526Y8966198D01*
X16865254Y8963600D01*
X16838699D01*
Y8946392D01*
X16828654Y8933302D01*
X16821602Y8916273D01*
X16819196Y8898000D01*
X16821602Y8879726D01*
X16828654Y8862698D01*
X16834454Y8855141D01*
X16828191Y8842441D01*
X16798698D01*
Y8963600D01*
X16688699D01*
Y8857150D01*
X16646590Y8815041D01*
X16618990D01*
X16607201Y8817386D01*
X16472200D01*
X16458543Y8814669D01*
X16446967Y8806934D01*
X16439230Y8795356D01*
X16436514Y8781700D01*
X16439230Y8768044D01*
X16446809Y8756700D01*
X16439230Y8745356D01*
X16436514Y8731700D01*
X16439230Y8718044D01*
X16446809Y8706700D01*
X16439230Y8695356D01*
X16436514Y8681700D01*
X16439230Y8668044D01*
X16446967Y8656467D01*
X16458543Y8648731D01*
X16472200Y8646014D01*
X16607201D01*
X16618990Y8648360D01*
X16627200D01*
X16633463Y8635660D01*
X16628539Y8629241D01*
X16622656Y8615041D01*
X16618990D01*
X16607201Y8617386D01*
X16472200D01*
X16458543Y8614669D01*
X16446967Y8606934D01*
X16439230Y8595356D01*
X16436514Y8581700D01*
X16439230Y8568044D01*
X16446967Y8556467D01*
X16453426Y8552150D01*
X16450745Y8538668D01*
X16448489Y8538219D01*
X16428642Y8524958D01*
X16301358Y8397673D01*
X16282202Y8395151D01*
X16261890Y8386737D01*
X16244447Y8373353D01*
X16231062Y8355910D01*
X16222649Y8335598D01*
X16219778Y8313800D01*
X16222649Y8292002D01*
X16231062Y8271690D01*
X16235051Y8266492D01*
X16228789Y8253792D01*
X16181300D01*
Y8281100D01*
X16051300D01*
Y8247966D01*
X16051080Y8247819D01*
X16046660Y8241204D01*
X16045108Y8233400D01*
Y8059800D01*
X16046660Y8051996D01*
X16051080Y8045381D01*
X16114136Y7982325D01*
X16109276Y7970592D01*
X15748000D01*
X15740196Y7969040D01*
X15734724Y7965384D01*
X15729367Y7964772D01*
X15717590Y7974625D01*
X15717592Y8093618D01*
X15717592Y8093620D01*
X15716040Y8101423D01*
X15711620Y8108039D01*
X15702638Y8117019D01*
X15696024Y8121440D01*
X15688220Y8122992D01*
X14946791Y8122991D01*
X14934091Y8135232D01*
Y8166000D01*
X14951799D01*
Y8543000D01*
Y8635549D01*
X15559709Y9243458D01*
X16361600D01*
Y9221799D01*
X16491599D01*
Y9331799D01*
X16361600D01*
Y9310139D01*
X15545898D01*
X15533139Y9307601D01*
X15522324Y9300374D01*
X14963533Y8741584D01*
X14951799Y8746444D01*
Y9297400D01*
X14975899D01*
Y9301883D01*
X14987099Y9307869D01*
X14993829Y9303372D01*
X15016499Y9298862D01*
X15039169Y9303372D01*
X15052409Y9312219D01*
X15061920D01*
X15070901Y9303238D01*
Y9297401D01*
X15062933Y9288000D01*
X15058800D01*
Y9158000D01*
X15178799D01*
Y9288000D01*
X15173866D01*
X15165900Y9297401D01*
Y9437400D01*
X15070901D01*
Y9403982D01*
X15052409D01*
X15039169Y9412829D01*
X15016499Y9417339D01*
X14993829Y9412829D01*
X14987099Y9408331D01*
X14975899Y9414318D01*
Y9437400D01*
X14951799D01*
Y9567402D01*
X14975899D01*
Y9707402D01*
X14951799D01*
Y9934200D01*
X17631499D01*
Y9931400D01*
D02*
G37*
G36*
X12885420Y10520680D02*
X14165581D01*
Y9931400D01*
X14239899D01*
X14239900Y6342500D01*
X10844400Y6342499D01*
Y6629400D01*
X10875608D01*
Y6616599D01*
X10877161Y6608796D01*
X10881581Y6602180D01*
X10888197Y6597760D01*
X10896000Y6596208D01*
X14155800Y6596208D01*
X14163605Y6597760D01*
X14170219Y6602181D01*
X14174640Y6608796D01*
X14176192Y6616600D01*
X14176192Y6863599D01*
X14174640Y6871403D01*
X14170219Y6878019D01*
X14163605Y6882439D01*
X14155800Y6883991D01*
X13548792Y6883992D01*
Y6906027D01*
X13553163Y6916579D01*
X13555482Y6934200D01*
X13553163Y6951821D01*
X13548792Y6962373D01*
Y7023100D01*
X13547240Y7030904D01*
X13542819Y7037519D01*
X13536205Y7041940D01*
X13528400Y7043492D01*
X12643492Y7043492D01*
X12643492Y7401608D01*
X12747428D01*
X12750316Y7402182D01*
X12753250Y7402456D01*
X12754190Y7402953D01*
X12755232Y7403160D01*
X12756307Y7403879D01*
X12760879Y7402334D01*
X12766329Y7398137D01*
X12767808Y7396170D01*
Y7091800D01*
X12769360Y7083996D01*
X12773700Y7077501D01*
Y7076900D01*
X12774499D01*
X12780396Y7072960D01*
X12788200Y7071408D01*
X13448599D01*
X13448599Y7071408D01*
X13456404Y7072960D01*
X13463019Y7077381D01*
X13463020Y7077381D01*
X13614519Y7228881D01*
X13618941Y7235496D01*
X13620493Y7243300D01*
Y8349100D01*
X13618941Y8356904D01*
X13614519Y8363519D01*
X13607904Y8367940D01*
X13600101Y8369492D01*
X13599113D01*
X13596600Y8369992D01*
X13096600D01*
X13094086Y8369492D01*
X13082600D01*
X13082600Y8369492D01*
X13074796Y8367940D01*
X13071838Y8365964D01*
X13063744Y8375829D01*
X13105640Y8417725D01*
X13335999D01*
Y8393600D01*
X13485999D01*
Y8573600D01*
X13374316D01*
X13363179Y8586300D01*
X13363982Y8592400D01*
X13363976Y8592451D01*
X13372348Y8602000D01*
X13499400D01*
Y8772959D01*
X13650690D01*
X13734261Y8689390D01*
Y8548738D01*
X13733459Y8544715D01*
Y8357600D01*
X13641600D01*
Y8252600D01*
X13641600D01*
X13644743Y8240776D01*
X13644740Y8239900D01*
X13639680Y8236519D01*
X13635260Y8229904D01*
X13633708Y8222100D01*
Y7723600D01*
X13635260Y7715796D01*
X13639680Y7709181D01*
X13646297Y7704760D01*
X13654100Y7703208D01*
X14121700D01*
X14129504Y7704760D01*
X14136119Y7709181D01*
X14140540Y7715796D01*
X14142091Y7723600D01*
Y8222100D01*
X14140540Y8229904D01*
X14136119Y8236519D01*
X14129504Y8240940D01*
X14121700Y8242492D01*
X14094220D01*
X14089221Y8244563D01*
X14071600Y8246882D01*
X14053979Y8244563D01*
X14048981Y8242492D01*
X13992619D01*
X13987621Y8244563D01*
X13970000Y8246882D01*
X13952379Y8244563D01*
X13947380Y8242492D01*
X13925604D01*
Y8755500D01*
X13923198Y8773773D01*
X13916145Y8790802D01*
X13904924Y8805424D01*
X13765225Y8945124D01*
X13750603Y8956344D01*
X13733574Y8963398D01*
X13715300Y8965804D01*
X13498199D01*
X13479926Y8963398D01*
X13473654Y8960799D01*
X13447099D01*
Y8943592D01*
X13437054Y8930502D01*
X13430002Y8913473D01*
X13427596Y8895200D01*
X13430002Y8876926D01*
X13437054Y8859898D01*
X13442854Y8852340D01*
X13436591Y8839640D01*
X13407098D01*
Y8960799D01*
X13297099D01*
Y8861855D01*
X13247485Y8812240D01*
X13227390D01*
X13215601Y8814586D01*
X13080600D01*
X13066943Y8811869D01*
X13055367Y8804134D01*
X13047630Y8792556D01*
X13044914Y8778900D01*
X13047630Y8765244D01*
X13055209Y8753900D01*
X13047630Y8742556D01*
X13044914Y8728900D01*
X13047630Y8715244D01*
X13055209Y8703900D01*
X13047630Y8692556D01*
X13044914Y8678900D01*
X13047630Y8665244D01*
X13055367Y8653666D01*
X13066943Y8645931D01*
X13080600Y8643214D01*
X13215601D01*
X13227390Y8645560D01*
X13235600D01*
X13241862Y8632860D01*
X13236938Y8626441D01*
X13231056Y8612241D01*
X13227390D01*
X13215601Y8614586D01*
X13080600D01*
X13066943Y8611869D01*
X13055367Y8604134D01*
X13047630Y8592556D01*
X13044914Y8578900D01*
X13047630Y8565244D01*
X13055367Y8553666D01*
X13061827Y8549350D01*
X13059145Y8535868D01*
X13056889Y8535419D01*
X13037044Y8522157D01*
X12909758Y8394873D01*
X12890602Y8392351D01*
X12870290Y8383937D01*
X12852847Y8370553D01*
X12839462Y8353110D01*
X12831049Y8332798D01*
X12828178Y8311000D01*
X12831049Y8289202D01*
X12839462Y8268890D01*
X12843451Y8263692D01*
X12837189Y8250992D01*
X12789700D01*
Y8278300D01*
X12659700D01*
Y8245166D01*
X12659481Y8245019D01*
X12655060Y8238404D01*
X12653508Y8230600D01*
Y8057000D01*
X12655060Y8049196D01*
X12659481Y8042581D01*
X12719736Y7982325D01*
X12714876Y7970592D01*
X12352091D01*
X12339391Y7981217D01*
X12339392Y8093618D01*
X12339392Y8093620D01*
X12337840Y8101423D01*
X12333419Y8108039D01*
X12324439Y8117019D01*
X12317823Y8121440D01*
X12310020Y8122992D01*
X11560200Y8122991D01*
Y8632749D01*
X12168109Y9240658D01*
X12970000D01*
Y9218999D01*
X13100000D01*
Y9328999D01*
X12970000D01*
Y9307339D01*
X12154299D01*
X12141540Y9304801D01*
X12130723Y9297574D01*
X11571933Y8738784D01*
X11560200Y8743644D01*
Y9294600D01*
X11584298D01*
Y9299082D01*
X11595499Y9305069D01*
X11602230Y9300571D01*
X11624900Y9296062D01*
X11647569Y9300571D01*
X11660810Y9309419D01*
X11670321D01*
X11679301Y9300438D01*
Y9294600D01*
X11671334Y9285200D01*
X11667200D01*
Y9155200D01*
X11787200D01*
Y9285200D01*
X11782268D01*
X11774301Y9294600D01*
Y9434600D01*
X11679301D01*
Y9401182D01*
X11660810D01*
X11647569Y9410029D01*
X11624900Y9414538D01*
X11602230Y9410029D01*
X11595499Y9405531D01*
X11584298Y9411518D01*
Y9434600D01*
X11560200D01*
Y9564602D01*
X11584298D01*
Y9704602D01*
X11560200D01*
Y9931400D01*
X12987013D01*
X12867639Y9951296D01*
X12867641Y10521866D01*
X12879373Y10526727D01*
X12885420Y10520680D01*
D02*
G37*
G36*
X14761299Y9362150D02*
X14761301Y8790650D01*
X14374603Y8790650D01*
X14374602Y9353170D01*
X14383582Y9362150D01*
X14761299Y9362150D01*
D02*
G37*
G36*
X10689801Y10045598D02*
Y9308998D01*
X9693201D01*
Y9356899D01*
X9553202D01*
Y9308998D01*
X9423199D01*
Y9356899D01*
X9283200D01*
Y9308998D01*
X9107200D01*
Y10045598D01*
X10689801Y10045598D01*
D02*
G37*
G36*
X12291060Y10283190D02*
X11377800Y10283190D01*
Y9553575D01*
X10971400D01*
Y10283190D01*
X9031000Y10283190D01*
Y9207398D01*
X9107200Y9131198D01*
X9259600D01*
Y8724798D01*
X8700800D01*
Y10523220D01*
X8719820D01*
Y10524490D01*
X12291060Y10524490D01*
X12291060Y10283190D01*
D02*
G37*
G36*
X16988200Y8351900D02*
X16991701D01*
Y7246100D01*
X16840199Y7094600D01*
X16179800D01*
Y7399400D01*
X16306799D01*
X16324200Y7416800D01*
X16383932D01*
Y7476532D01*
X16395700Y7488300D01*
Y7805800D01*
Y7983600D01*
X16141701D01*
X16065500Y8059800D01*
Y8233400D01*
X16279906D01*
X16282202Y8232449D01*
X16303999Y8229579D01*
X16325797Y8232449D01*
X16328093Y8233400D01*
X16395700D01*
Y8273400D01*
X16474200Y8351900D01*
X16488200D01*
Y8352400D01*
X16988200D01*
Y8351900D01*
D02*
G37*
G36*
X19794220Y10530840D02*
Y10375900D01*
Y10340340D01*
X19740880Y10287000D01*
X19319238Y10287000D01*
Y10287000D01*
X19317999D01*
Y9207398D01*
X19394200Y9131198D01*
X19546600D01*
Y8724798D01*
X18987801D01*
Y10287000D01*
X14769400Y10287001D01*
Y9556375D01*
X14363000D01*
Y10287001D01*
X14354840D01*
X14354840Y10556240D01*
X19029680Y10556240D01*
X19039841Y10566400D01*
X19564473D01*
X19565421Y10566212D01*
X19665421D01*
X19666367Y10566400D01*
X19758659D01*
X19794220Y10530840D01*
D02*
G37*
G36*
X13596600Y8349100D02*
X13600101D01*
Y7243300D01*
X13448599Y7091800D01*
X12788200D01*
Y7396600D01*
X12915199D01*
X12942000Y7423400D01*
X13002432D01*
Y7483832D01*
X13004100Y7485500D01*
Y7803000D01*
Y7980800D01*
X12750100D01*
X12673900Y8057000D01*
Y8230600D01*
X12888306D01*
X12890602Y8229649D01*
X12912399Y8226779D01*
X12934198Y8229649D01*
X12936494Y8230600D01*
X13004100D01*
Y8270600D01*
X13082600Y8349100D01*
X13096600D01*
Y8349600D01*
X13596600D01*
Y8349100D01*
D02*
G37*
G36*
X15697200Y8093620D02*
X15697197Y7747000D01*
X14935201Y7747000D01*
X14935201Y8102599D01*
X15688220Y8102600D01*
X15697200Y8093620D01*
D02*
G37*
G36*
X4885466Y8234256D02*
X4890987Y8233158D01*
X4940314Y8183831D01*
Y7763781D01*
X4930913Y7754380D01*
X4917133Y7758560D01*
X4914209Y7773260D01*
X4902053Y7791453D01*
X4883860Y7803609D01*
X4877937Y7804787D01*
X4875255Y7818269D01*
X4884053Y7824147D01*
X4896209Y7842340D01*
X4900477Y7863800D01*
X4896209Y7885260D01*
X4884053Y7903453D01*
X4865860Y7915609D01*
X4844400Y7919877D01*
X4836792Y7918364D01*
X4830536Y7930069D01*
X4849234Y7948766D01*
X4856969Y7960343D01*
X4859686Y7974000D01*
Y8237371D01*
X4863059Y8239844D01*
X4872386Y8242996D01*
X4885466Y8234256D01*
D02*
G37*
%LPC*%
G36*
X11740700Y7421900D02*
X11573700D01*
Y7076900D01*
X11740700D01*
Y7421900D01*
D02*
G37*
G36*
X15132300Y7424700D02*
X14965300D01*
Y7079700D01*
X15132300D01*
Y7424700D01*
D02*
G37*
G36*
X2492400Y9194063D02*
X2466295Y9190626D01*
X2441969Y9180550D01*
X2421079Y9164521D01*
X2405050Y9143631D01*
X2394974Y9119305D01*
X2391537Y9093200D01*
X2394974Y9067095D01*
X2405050Y9042769D01*
X2421079Y9021879D01*
X2441969Y9005850D01*
X2466295Y8995774D01*
X2492400Y8992337D01*
X2518505Y8995774D01*
X2542831Y9005850D01*
X2563721Y9021879D01*
X2579749Y9042769D01*
X2583738Y9052399D01*
X3172000D01*
Y9033280D01*
X3282000D01*
Y9163280D01*
X3172000D01*
Y9144162D01*
X2579342D01*
X2563721Y9164521D01*
X2542831Y9180550D01*
X2518505Y9190626D01*
X2492400Y9194063D01*
D02*
G37*
G36*
X5650000Y6675192D02*
X4013200D01*
X4005396Y6673640D01*
X3998781Y6669219D01*
X3994360Y6662604D01*
X3992808Y6654800D01*
Y6070600D01*
Y5969000D01*
X3994360Y5961196D01*
X3998781Y5954581D01*
X4005396Y5950160D01*
X4013200Y5948608D01*
X4587866D01*
X4597000Y5940000D01*
Y5701921D01*
X4597000Y5700000D01*
X4592364Y5689221D01*
X4145385D01*
X3951920Y5882686D01*
Y6025830D01*
X3801955D01*
X3783798Y6033351D01*
X3762000Y6036221D01*
X3659000D01*
X3637202Y6033351D01*
X3616890Y6024937D01*
X3599447Y6011553D01*
X3586063Y5994110D01*
X3577649Y5973798D01*
X3574779Y5952000D01*
X3577649Y5930202D01*
X3586063Y5909890D01*
X3599447Y5892447D01*
X3616890Y5879063D01*
X3637202Y5870649D01*
X3659000Y5867779D01*
X3727115D01*
X3769680Y5825214D01*
Y5683570D01*
X3912824D01*
X4050947Y5545447D01*
X4068390Y5532063D01*
X4088702Y5523649D01*
X4110500Y5520779D01*
X4894474D01*
X4897202Y5519649D01*
X4919000Y5516779D01*
X4940798Y5519649D01*
X4961110Y5528063D01*
X4962332Y5529000D01*
X4974000D01*
Y5537953D01*
X4978553Y5541447D01*
X4991937Y5558890D01*
X5000351Y5579202D01*
X5003221Y5601000D01*
Y5700000D01*
X5017000D01*
Y5935908D01*
X5017000Y5940000D01*
X5026134Y5948608D01*
X5650000D01*
X5657804Y5950160D01*
X5664419Y5954581D01*
X5668840Y5961196D01*
X5670392Y5969000D01*
Y6063375D01*
Y6654800D01*
X5668840Y6662604D01*
X5664419Y6669219D01*
X5657804Y6673640D01*
X5650000Y6675192D01*
D02*
G37*
G36*
X3096300Y5900006D02*
X3068889Y5896397D01*
X3043347Y5885817D01*
X3021413Y5868987D01*
X3004583Y5847053D01*
X2994003Y5821510D01*
X2990394Y5794100D01*
X2994003Y5766690D01*
X3004583Y5741147D01*
X3021413Y5719213D01*
X3043347Y5702383D01*
X3068889Y5691803D01*
X3096300Y5688194D01*
X3123710Y5691803D01*
X3149253Y5702383D01*
X3171187Y5719213D01*
X3188017Y5741147D01*
X3198597Y5766690D01*
X3202206Y5794100D01*
X3198597Y5821510D01*
X3188017Y5847053D01*
X3171187Y5868987D01*
X3149253Y5885817D01*
X3123710Y5896397D01*
X3096300Y5900006D01*
D02*
G37*
G36*
X2492400Y9829063D02*
X2466295Y9825626D01*
X2441969Y9815550D01*
X2421079Y9799521D01*
X2405050Y9778631D01*
X2394974Y9754305D01*
X2391537Y9728200D01*
X2394974Y9702095D01*
X2405050Y9677769D01*
X2421079Y9656879D01*
X2441969Y9640850D01*
X2466295Y9630774D01*
X2492400Y9627337D01*
X2518505Y9630774D01*
X2542831Y9640850D01*
X2563721Y9656879D01*
X2579749Y9677769D01*
X2588422Y9698707D01*
X3256998D01*
Y9669393D01*
X3366997D01*
Y9799392D01*
X3256998D01*
Y9770078D01*
X2583292D01*
X2579749Y9778631D01*
X2563721Y9799521D01*
X2542831Y9815550D01*
X2518505Y9825626D01*
X2492400Y9829063D01*
D02*
G37*
G36*
X2557000Y10605174D02*
X2525635Y10602085D01*
X2495474Y10592936D01*
X2467679Y10578079D01*
X2443315Y10558085D01*
X2423321Y10533721D01*
X2408464Y10505926D01*
X2399315Y10475765D01*
X2396226Y10444400D01*
X2399315Y10413035D01*
X2408464Y10382874D01*
X2423321Y10355079D01*
X2443315Y10330715D01*
X2467679Y10310721D01*
X2495474Y10295864D01*
X2525635Y10286715D01*
X2557000Y10283626D01*
X2588365Y10286715D01*
X2618526Y10295864D01*
X2646321Y10310721D01*
X2670685Y10330715D01*
X2690679Y10355079D01*
X2705536Y10382874D01*
X2714685Y10413035D01*
X2717774Y10444400D01*
X2714685Y10475765D01*
X2705536Y10505926D01*
X2690679Y10533721D01*
X2670685Y10558085D01*
X2646321Y10578079D01*
X2618526Y10592936D01*
X2588365Y10602085D01*
X2557000Y10605174D01*
D02*
G37*
G36*
X4339000Y8842431D02*
X4229000D01*
X4210466Y8838744D01*
X4194754Y8828246D01*
X4184256Y8812534D01*
X4180569Y8794000D01*
X4184256Y8775467D01*
X4194754Y8759755D01*
X4210466Y8749256D01*
X4229000Y8745570D01*
X4339000D01*
X4357534Y8749256D01*
X4373246Y8759755D01*
X4373620Y8760314D01*
X4527219D01*
X4544579Y8742954D01*
X4540399Y8729174D01*
X4534343Y8727969D01*
X4522766Y8720234D01*
X4476218Y8673686D01*
X4365104D01*
X4357534Y8678744D01*
X4339000Y8682431D01*
X4229000D01*
X4210466Y8678744D01*
X4194754Y8668246D01*
X4184256Y8652534D01*
X4180569Y8634000D01*
X4184256Y8615467D01*
X4193015Y8602358D01*
X4194065Y8593837D01*
X4191338Y8586764D01*
X4187344Y8585969D01*
X4175766Y8578234D01*
X3888765Y8291232D01*
X3881030Y8279655D01*
X3878313Y8265999D01*
Y8263000D01*
X3858999D01*
Y8184893D01*
X3854431Y8178056D01*
X3851714Y8164400D01*
Y8120330D01*
X3831840D01*
Y7879670D01*
X3942960D01*
Y8120330D01*
X3942960D01*
X3943032Y8133000D01*
X3968999D01*
Y8262999D01*
X3968999Y8263000D01*
X3968999D01*
X3972863Y8274395D01*
X4168425Y8469957D01*
X4182205Y8465777D01*
X4184256Y8455466D01*
X4194754Y8439755D01*
X4210466Y8429256D01*
X4224114Y8426541D01*
X4229175Y8413641D01*
X4078534Y8263000D01*
X4009001D01*
Y8133000D01*
X4033368D01*
X4033439Y8120330D01*
X4033440D01*
Y7879670D01*
X4144560D01*
Y8120330D01*
X4124685D01*
Y8175000D01*
X4121969Y8188657D01*
X4119001Y8193099D01*
Y8202533D01*
X4311234Y8394766D01*
X4318969Y8406343D01*
X4321686Y8419999D01*
Y8425570D01*
X4339000D01*
X4357534Y8429256D01*
X4373246Y8439755D01*
X4383744Y8455466D01*
X4387431Y8474000D01*
X4383744Y8492534D01*
X4374985Y8505643D01*
X4373955Y8514000D01*
X4374985Y8522358D01*
X4383744Y8535467D01*
X4387431Y8554000D01*
X4383744Y8572534D01*
X4374985Y8585643D01*
X4374471Y8589815D01*
X4382748Y8602314D01*
X4491000D01*
X4504656Y8605031D01*
X4516234Y8612766D01*
X4545985Y8642518D01*
X4558658Y8641688D01*
X4563447Y8635447D01*
X4580889Y8622063D01*
X4601202Y8613649D01*
X4623000Y8610779D01*
X4644798Y8613649D01*
X4665110Y8622063D01*
X4682553Y8635447D01*
X4695937Y8652889D01*
X4698598Y8659314D01*
X4755219D01*
X4885766Y8528766D01*
X4897344Y8521031D01*
X4911000Y8518314D01*
X5027370D01*
X5029843Y8514942D01*
X5032996Y8505614D01*
X5024256Y8492534D01*
X5020570Y8474000D01*
X5024256Y8455466D01*
X5034754Y8439755D01*
X5050466Y8429256D01*
X5069000Y8425570D01*
X5088314D01*
Y8405000D01*
X5091031Y8391344D01*
X5096349Y8383384D01*
X5095636Y8379800D01*
X5099653Y8359608D01*
X5111090Y8342490D01*
X5128208Y8331053D01*
X5148400Y8327036D01*
X5168592Y8331053D01*
X5185710Y8342490D01*
X5197148Y8359608D01*
X5201164Y8379800D01*
X5198034Y8395538D01*
X5209738Y8401795D01*
X5325000Y8286533D01*
Y8220000D01*
X5435000D01*
Y8350000D01*
X5362468D01*
X5244201Y8468267D01*
X5249061Y8480000D01*
X5347000D01*
Y8610000D01*
X5340656D01*
X5333868Y8622700D01*
X5337148Y8627608D01*
X5341164Y8647800D01*
X5337148Y8667992D01*
X5332933Y8674300D01*
X5339721Y8687000D01*
X5340003D01*
Y8817000D01*
X5220003D01*
Y8757467D01*
X5207303Y8752217D01*
X5197534Y8758744D01*
X5179000Y8762431D01*
X5069000D01*
X5050466Y8758744D01*
X5034754Y8748246D01*
X5024256Y8732534D01*
X5020570Y8714000D01*
X5024256Y8695466D01*
X5033015Y8682358D01*
X5034045Y8674000D01*
X5033015Y8665643D01*
X5024256Y8652534D01*
X5020570Y8634000D01*
X5024256Y8615467D01*
X5032997Y8602386D01*
X5029844Y8593059D01*
X5027371Y8589686D01*
X4925782D01*
X4795234Y8720234D01*
X4783656Y8727969D01*
X4770000Y8730686D01*
X4698598D01*
X4695937Y8737110D01*
X4682553Y8754553D01*
X4665110Y8767937D01*
X4644798Y8776351D01*
X4623000Y8779220D01*
X4610847Y8777620D01*
X4567234Y8821234D01*
X4555656Y8828969D01*
X4542000Y8831686D01*
X4368097D01*
X4357534Y8838744D01*
X4339000Y8842431D01*
D02*
G37*
G36*
X5585000Y8350000D02*
X5475000D01*
Y8220000D01*
X5499655D01*
Y8203965D01*
X5452036D01*
Y8042045D01*
X5613956D01*
Y8203965D01*
X5566337D01*
Y8220000D01*
X5585000D01*
Y8350000D01*
D02*
G37*
G36*
X3389700Y8645220D02*
X3367902Y8642351D01*
X3347590Y8633937D01*
X3330147Y8620553D01*
X3316763Y8603110D01*
X3308349Y8582798D01*
X3305480Y8561000D01*
X3308349Y8539202D01*
X3316763Y8518890D01*
X3328932Y8503031D01*
X3334700Y8492720D01*
Y8362720D01*
X3444700D01*
Y8492720D01*
X3450468Y8503031D01*
X3462637Y8518890D01*
X3471051Y8539202D01*
X3473921Y8561000D01*
X3471051Y8582798D01*
X3462637Y8603110D01*
X3449253Y8620553D01*
X3431810Y8633937D01*
X3411498Y8642351D01*
X3389700Y8645220D01*
D02*
G37*
G36*
X4274400Y9189877D02*
X4252940Y9185609D01*
X4234747Y9173453D01*
X4222592Y9155260D01*
X4218323Y9133800D01*
X4222592Y9112340D01*
X4234090Y9095131D01*
X4232954Y9090202D01*
X4229423Y9082431D01*
X4229000D01*
X4210466Y9078744D01*
X4194754Y9068246D01*
X4184256Y9052534D01*
X4180569Y9034000D01*
X4184256Y9015467D01*
X4193015Y9002358D01*
X4194045Y8994000D01*
X4193015Y8985643D01*
X4184256Y8972534D01*
X4180569Y8954000D01*
X4184256Y8935467D01*
X4194754Y8919755D01*
X4210466Y8909256D01*
X4229000Y8905570D01*
X4339000D01*
X4357534Y8909256D01*
X4373246Y8919755D01*
X4383744Y8935467D01*
X4387431Y8954000D01*
X4383744Y8972534D01*
X4374985Y8985643D01*
X4373955Y8994000D01*
X4374985Y9002358D01*
X4383744Y9015467D01*
X4387431Y9034000D01*
X4383744Y9052534D01*
X4373246Y9068246D01*
X4357534Y9078744D01*
X4339000Y9082431D01*
X4319377D01*
X4315846Y9090202D01*
X4314710Y9095131D01*
X4326209Y9112340D01*
X4330477Y9133800D01*
X4326209Y9155260D01*
X4314053Y9173453D01*
X4295860Y9185609D01*
X4274400Y9189877D01*
D02*
G37*
G36*
X5144400Y9167564D02*
X5124208Y9163548D01*
X5107090Y9152110D01*
X5095653Y9134992D01*
X5091636Y9114800D01*
X5095549Y9095131D01*
X5095758Y9092878D01*
X5089104Y9082431D01*
X5069000D01*
X5050466Y9078744D01*
X5034754Y9068246D01*
X5024256Y9052534D01*
X5020570Y9034000D01*
X5024256Y9015467D01*
X5033015Y9002358D01*
X5034045Y8994000D01*
X5033015Y8985643D01*
X5024256Y8972534D01*
X5020570Y8954000D01*
X5024256Y8935467D01*
X5033015Y8922358D01*
X5034045Y8914000D01*
X5033015Y8905643D01*
X5024256Y8892534D01*
X5020570Y8874000D01*
X5024256Y8855467D01*
X5034754Y8839755D01*
X5050466Y8829256D01*
X5069000Y8825570D01*
X5179000D01*
X5197534Y8829256D01*
X5213246Y8839755D01*
X5223744Y8855467D01*
X5227431Y8874000D01*
X5223744Y8892534D01*
X5216474Y8903414D01*
X5222590Y8916114D01*
X5247005D01*
X5248090Y8914490D01*
X5265208Y8903053D01*
X5285400Y8899036D01*
X5305592Y8903053D01*
X5322710Y8914490D01*
X5334148Y8931608D01*
X5338164Y8951800D01*
X5334148Y8971992D01*
X5322710Y8989110D01*
X5305592Y9000547D01*
X5285400Y9004564D01*
X5265208Y9000547D01*
X5248090Y8989110D01*
X5247005Y8987486D01*
X5222483D01*
X5214555Y8998865D01*
X5214985Y9002358D01*
X5223744Y9015467D01*
X5227431Y9034000D01*
X5223744Y9052534D01*
X5213246Y9068246D01*
X5197534Y9078744D01*
X5195516Y9079145D01*
X5190656Y9090879D01*
X5193148Y9094608D01*
X5197164Y9114800D01*
X5193148Y9134992D01*
X5181710Y9152110D01*
X5164592Y9163548D01*
X5144400Y9167564D01*
D02*
G37*
G36*
X2640171Y6626540D02*
X2541431D01*
X2492061Y6577170D01*
Y6478430D01*
X2541431Y6429060D01*
X2640171D01*
X2689541Y6478430D01*
Y6577170D01*
X2640171Y6626540D01*
D02*
G37*
G36*
X3471200Y10003621D02*
X3449402Y10000751D01*
X3429089Y9992337D01*
X3411647Y9978953D01*
X3398263Y9961510D01*
X3389849Y9941198D01*
X3386979Y9919400D01*
X3389849Y9897602D01*
X3398263Y9877290D01*
X3411647Y9859847D01*
X3418436Y9854638D01*
Y9799392D01*
X3407000D01*
Y9669393D01*
X3409236D01*
Y9196315D01*
X3376201Y9163280D01*
X3322000D01*
Y9033281D01*
X3314753Y9023582D01*
X3304063Y9009650D01*
X3295649Y8989338D01*
X3292780Y8967540D01*
X3295649Y8945742D01*
X3304063Y8925430D01*
X3317447Y8907987D01*
X3334890Y8894603D01*
X3355202Y8886189D01*
X3377000Y8883320D01*
X3398798Y8886189D01*
X3419110Y8894603D01*
X3436553Y8907987D01*
X3449937Y8925430D01*
X3458351Y8945742D01*
X3461221Y8967540D01*
X3458351Y8989338D01*
X3449937Y9009650D01*
X3439247Y9023582D01*
X3432000Y9033281D01*
Y9069840D01*
X3499309Y9137150D01*
X3510747Y9154268D01*
X3514764Y9174460D01*
Y9669393D01*
X3517000D01*
Y9695116D01*
X3522140Y9702808D01*
X3526156Y9723000D01*
X3523747Y9735111D01*
X3523964Y9736200D01*
Y9854638D01*
X3530753Y9859847D01*
X3544137Y9877290D01*
X3552551Y9897602D01*
X3555420Y9919400D01*
X3552551Y9941198D01*
X3544137Y9961510D01*
X3530753Y9978953D01*
X3513310Y9992337D01*
X3492998Y10000751D01*
X3471200Y10003621D01*
D02*
G37*
G36*
X8265900Y6857801D02*
X8108900D01*
Y6629802D01*
X8265900D01*
Y6857801D01*
D02*
G37*
G36*
X2985998Y6697000D02*
X2875999D01*
Y6567001D01*
X2971043D01*
X2973649Y6547202D01*
X2982063Y6526890D01*
X2995447Y6509447D01*
X3012890Y6496063D01*
X3033202Y6487649D01*
X3055000Y6484780D01*
X3076798Y6487649D01*
X3097110Y6496063D01*
X3114553Y6509447D01*
X3127937Y6526890D01*
X3136351Y6547202D01*
X3139221Y6569000D01*
X3136351Y6590798D01*
X3127937Y6611110D01*
X3114553Y6628553D01*
X3097110Y6641937D01*
X3076798Y6650351D01*
X3055000Y6653221D01*
X3048283Y6652336D01*
X3031309Y6669310D01*
X3014192Y6680748D01*
X2994000Y6684764D01*
X2985998D01*
Y6697000D01*
D02*
G37*
G36*
X2640171Y6880540D02*
X2541431D01*
X2492061Y6831170D01*
Y6732430D01*
X2541431Y6683060D01*
X2640171D01*
X2689541Y6732430D01*
Y6748459D01*
X2726000D01*
Y6720002D01*
X2745316D01*
Y6697000D01*
X2726001D01*
Y6567001D01*
X2836001D01*
Y6697000D01*
X2816687D01*
Y6720002D01*
X2846000D01*
Y6850002D01*
X2726000D01*
Y6815141D01*
X2689541D01*
Y6831170D01*
X2640171Y6880540D01*
D02*
G37*
%LPD*%
G36*
X5650000Y5969000D02*
X4013200D01*
Y6654800D01*
X5650000D01*
Y5969000D01*
D02*
G37*
%LPC*%
G36*
X19898360Y9566458D02*
X19875690Y9561949D01*
X19856471Y9549108D01*
X19854997Y9546902D01*
X19840202D01*
Y9512648D01*
X19839122Y9507220D01*
X19840202Y9501792D01*
Y9451902D01*
X19878651D01*
X19898360Y9447982D01*
X19911359Y9450568D01*
X19913600Y9450122D01*
X19917017Y9450802D01*
X19920497Y9450643D01*
X19923976Y9451902D01*
X19980202D01*
X19989601Y9443935D01*
Y9439801D01*
X20119601D01*
Y9559801D01*
X19989601D01*
Y9554869D01*
X19980202Y9546902D01*
X19941722D01*
X19940248Y9549108D01*
X19921030Y9561949D01*
X19898360Y9566458D01*
D02*
G37*
G36*
X20667979Y10317881D02*
X20646182Y10315011D01*
X20625870Y10306597D01*
X20608427Y10293213D01*
X20595042Y10275770D01*
X20586629Y10255458D01*
X20583759Y10233660D01*
X20586629Y10211862D01*
X20593237Y10195908D01*
X20561569Y10164240D01*
X20402921D01*
Y10059240D01*
X20607919D01*
Y10116289D01*
X20644597Y10152966D01*
X20646182Y10152309D01*
X20667979Y10149439D01*
X20689778Y10152309D01*
X20710091Y10160723D01*
X20727533Y10174107D01*
X20740916Y10191550D01*
X20749332Y10211862D01*
X20752200Y10233660D01*
X20749332Y10255458D01*
X20740916Y10275770D01*
X20727533Y10293213D01*
X20710091Y10306597D01*
X20689778Y10315011D01*
X20667979Y10317881D01*
D02*
G37*
G36*
X19608800Y9757450D02*
X19587886Y9753290D01*
X19570157Y9741443D01*
X19558310Y9723714D01*
X19554150Y9702800D01*
X19558310Y9681886D01*
X19570157Y9664157D01*
X19573114Y9662181D01*
Y9571001D01*
X19490401D01*
Y9441001D01*
X19600400D01*
Y9444403D01*
X19610217Y9452460D01*
X19617699Y9450971D01*
X19662700D01*
X19681233Y9454658D01*
X19696945Y9465156D01*
X19707443Y9480868D01*
X19711130Y9499402D01*
X19707443Y9517935D01*
X19696945Y9533647D01*
X19681233Y9544146D01*
X19662700Y9547832D01*
X19644485D01*
Y9662181D01*
X19647443Y9664157D01*
X19659290Y9681886D01*
X19663451Y9702800D01*
X19659290Y9723714D01*
X19647443Y9741443D01*
X19629713Y9753290D01*
X19608800Y9757450D01*
D02*
G37*
G36*
X23241000Y8764030D02*
X23215887Y8760724D01*
X23192485Y8751031D01*
X23172391Y8735610D01*
X23156969Y8715515D01*
X23147276Y8692113D01*
X23143970Y8667000D01*
X23147276Y8641887D01*
X23156969Y8618485D01*
X23172391Y8598389D01*
X23192485Y8582969D01*
X23215887Y8573276D01*
X23241000Y8569970D01*
X23266113Y8573276D01*
X23289516Y8582969D01*
X23309610Y8598389D01*
X23325031Y8618485D01*
X23334724Y8641887D01*
X23338029Y8667000D01*
X23334724Y8692113D01*
X23325031Y8715515D01*
X23309610Y8735610D01*
X23289516Y8751031D01*
X23266113Y8760724D01*
X23241000Y8764030D01*
D02*
G37*
G36*
Y9018030D02*
X23215887Y9014724D01*
X23192485Y9005031D01*
X23172391Y8989610D01*
X23156969Y8969515D01*
X23147276Y8946113D01*
X23143970Y8921000D01*
X23147276Y8895887D01*
X23156969Y8872485D01*
X23172391Y8852389D01*
X23192485Y8836969D01*
X23215887Y8827276D01*
X23241000Y8823970D01*
X23266113Y8827276D01*
X23289516Y8836969D01*
X23309610Y8852389D01*
X23325031Y8872485D01*
X23334724Y8895887D01*
X23338029Y8921000D01*
X23334724Y8946113D01*
X23325031Y8969515D01*
X23309610Y8989610D01*
X23289516Y9005031D01*
X23266113Y9014724D01*
X23241000Y9018030D01*
D02*
G37*
G36*
X20555420Y10673268D02*
X20455420D01*
X20434937Y10669194D01*
X20417570Y10657590D01*
X20405966Y10640224D01*
X20401892Y10619740D01*
X20405966Y10599256D01*
X20417570Y10581890D01*
X20434937Y10570286D01*
X20455420Y10566212D01*
X20555420D01*
X20575903Y10570286D01*
X20593269Y10581890D01*
X20604874Y10599256D01*
X20608948Y10619740D01*
X20604874Y10640224D01*
X20593269Y10657590D01*
X20575903Y10669194D01*
X20555420Y10673268D01*
D02*
G37*
G36*
X15113000Y9833650D02*
X15092085Y9829490D01*
X15074358Y9817643D01*
X15062511Y9799914D01*
X15058350Y9779000D01*
X15062511Y9758086D01*
X15072519Y9743107D01*
Y9672716D01*
X15069971Y9659902D01*
Y9614902D01*
X15073657Y9596368D01*
X15084155Y9580656D01*
X15099867Y9570158D01*
X15118401Y9566472D01*
X15136934Y9570158D01*
X15140500Y9572540D01*
X15153200Y9565752D01*
Y9559800D01*
X15263199D01*
Y9689800D01*
X15164282D01*
Y9762069D01*
X15167650Y9779000D01*
X15163490Y9799914D01*
X15151643Y9817643D01*
X15133914Y9829490D01*
X15113000Y9833650D01*
D02*
G37*
G36*
X16003500Y9155000D02*
X15873500D01*
Y9045000D01*
X15999001D01*
Y9005000D01*
X15873500D01*
Y8895000D01*
X15917059D01*
Y8878800D01*
X15859599D01*
Y8748800D01*
X15869600D01*
Y8621800D01*
X15883005D01*
X15895000Y8620099D01*
X15895000Y8609100D01*
Y8490100D01*
X16004999D01*
Y8548360D01*
X16045410D01*
X16057201Y8546014D01*
X16192200D01*
X16205856Y8548731D01*
X16217433Y8556467D01*
X16225169Y8568044D01*
X16227885Y8581700D01*
X16225169Y8595356D01*
X16217433Y8606934D01*
X16205856Y8614669D01*
X16192200Y8617386D01*
X16057201D01*
X16045410Y8615041D01*
X16004999D01*
Y8620100D01*
X15991595D01*
X15979601Y8621801D01*
X15979601Y8639379D01*
X15988580Y8648360D01*
X16045410D01*
X16057201Y8646014D01*
X16192200D01*
X16205856Y8648731D01*
X16217433Y8656467D01*
X16225169Y8668044D01*
X16227885Y8681700D01*
X16225169Y8695356D01*
X16217590Y8706700D01*
X16225169Y8718044D01*
X16227885Y8731700D01*
X16225169Y8745356D01*
X16217590Y8756700D01*
X16225169Y8768044D01*
X16227885Y8781700D01*
X16225169Y8795356D01*
X16217433Y8806934D01*
X16205856Y8814669D01*
X16192200Y8817386D01*
X16057201D01*
X16052200Y8816391D01*
X16042841Y8825752D01*
Y8837648D01*
X16061017Y8855825D01*
X16068243Y8866641D01*
X16070065Y8875800D01*
X16119000D01*
Y9002800D01*
Y9132800D01*
X16019418D01*
X16016699Y9133340D01*
X16003500D01*
Y9155000D01*
D02*
G37*
G36*
X18552901Y6857801D02*
X18395900D01*
Y6629802D01*
X18552901D01*
Y6857801D01*
D02*
G37*
G36*
X16124699Y8527582D02*
X16107143Y8524089D01*
X16097110Y8517386D01*
X16057201D01*
X16043542Y8514669D01*
X16031966Y8506934D01*
X16024231Y8495356D01*
X16021513Y8481700D01*
X16024231Y8468044D01*
X16031966Y8456466D01*
X16043542Y8448731D01*
X16057201Y8446014D01*
X16078818D01*
Y8431100D01*
X16051300D01*
Y8321100D01*
X16181300D01*
Y8431100D01*
X16170581D01*
Y8446014D01*
X16192200D01*
X16205856Y8448731D01*
X16217433Y8456466D01*
X16225169Y8468044D01*
X16227885Y8481700D01*
X16225169Y8495356D01*
X16217433Y8506934D01*
X16205856Y8514669D01*
X16192200Y8517386D01*
X16152290D01*
X16142258Y8524089D01*
X16124699Y8527582D01*
D02*
G37*
G36*
X16491599Y9181799D02*
Y9181799D01*
X16488969Y9181799D01*
X16361600D01*
Y9071799D01*
X16491599D01*
Y9071798D01*
X16501302Y9071798D01*
Y9071799D01*
X16631300D01*
Y9089130D01*
X16632353Y9089321D01*
X16646333Y9078978D01*
X16647136Y9072879D01*
X16653938Y9056458D01*
X16664757Y9042358D01*
X16678857Y9031539D01*
X16695277Y9024737D01*
X16712898Y9022417D01*
X16730521Y9024737D01*
X16746941Y9031539D01*
X16761040Y9042358D01*
X16771860Y9056458D01*
X16778661Y9072879D01*
X16780981Y9090500D01*
X16778661Y9108121D01*
X16771860Y9124541D01*
X16761040Y9138641D01*
X16746941Y9149461D01*
X16730521Y9156262D01*
X16712898Y9158582D01*
X16695277Y9156262D01*
X16686874Y9152781D01*
X16679660Y9157601D01*
X16666901Y9160139D01*
X16631300D01*
Y9181799D01*
X16503931D01*
X16501302Y9181799D01*
Y9181799D01*
X16491599Y9181799D01*
D02*
G37*
G36*
X13238480Y10317881D02*
X13216682Y10315011D01*
X13196370Y10306597D01*
X13178928Y10293213D01*
X13165543Y10275770D01*
X13157129Y10255458D01*
X13154259Y10233660D01*
X13157129Y10211862D01*
X13165543Y10191550D01*
X13178928Y10174107D01*
X13190012Y10165602D01*
X13192091Y10149722D01*
X13156970Y10114601D01*
X13140320D01*
Y10133760D01*
X12935320D01*
Y10028760D01*
X13140320D01*
Y10047919D01*
X13170779D01*
X13183539Y10050457D01*
X13194354Y10057685D01*
X13262054Y10125384D01*
X13269283Y10136201D01*
X13271822Y10148960D01*
Y10157090D01*
X13280589Y10160723D01*
X13298033Y10174107D01*
X13311417Y10191550D01*
X13319830Y10211862D01*
X13322701Y10233660D01*
X13319830Y10255458D01*
X13311417Y10275770D01*
X13298033Y10293213D01*
X13280589Y10306597D01*
X13260278Y10315011D01*
X13238480Y10317881D01*
D02*
G37*
G36*
X11709400Y9859050D02*
X11688486Y9854890D01*
X11670757Y9843043D01*
X11658910Y9825314D01*
X11654750Y9804400D01*
X11658910Y9783486D01*
X11670757Y9765757D01*
X11680919Y9758966D01*
Y9669916D01*
X11678370Y9657102D01*
Y9612102D01*
X11682057Y9593568D01*
X11692555Y9577856D01*
X11708267Y9567358D01*
X11726801Y9563671D01*
X11745334Y9567358D01*
X11748900Y9569740D01*
X11761600Y9562952D01*
Y9557000D01*
X11871600D01*
Y9687000D01*
X11772682D01*
Y9786999D01*
X11769190Y9804557D01*
X11761827Y9815577D01*
X11759890Y9825314D01*
X11748043Y9843043D01*
X11730314Y9854890D01*
X11709400Y9859050D01*
D02*
G37*
G36*
X12611900Y9152200D02*
X12481900D01*
Y9042200D01*
X12595400D01*
Y9011000D01*
X12594700D01*
Y9002200D01*
X12481900D01*
Y8904200D01*
X12481400D01*
Y8774200D01*
X12540049D01*
X12550716Y8763533D01*
X12545856Y8751800D01*
X12466000D01*
Y8621800D01*
X12492564D01*
X12503400Y8617299D01*
X12503400Y8609100D01*
Y8487300D01*
X12613400D01*
Y8545559D01*
X12653811D01*
X12665600Y8543214D01*
X12800600D01*
X12814256Y8545931D01*
X12825835Y8553666D01*
X12833569Y8565244D01*
X12836285Y8578900D01*
X12833569Y8592556D01*
X12825835Y8604134D01*
X12814256Y8611869D01*
X12800600Y8614586D01*
X12665600D01*
X12653811Y8612241D01*
X12613400D01*
Y8617300D01*
X12586836D01*
X12576000Y8621801D01*
X12576000Y8630000D01*
Y8645560D01*
X12653811D01*
X12665600Y8643214D01*
X12800600D01*
X12814256Y8645931D01*
X12825835Y8653666D01*
X12833569Y8665244D01*
X12836285Y8678900D01*
X12833569Y8692556D01*
X12825990Y8703900D01*
X12833569Y8715244D01*
X12836285Y8728900D01*
X12833569Y8742556D01*
X12825990Y8753900D01*
X12833569Y8765244D01*
X12836285Y8778900D01*
X12833569Y8792556D01*
X12825835Y8804134D01*
X12814256Y8811869D01*
X12800600Y8814586D01*
X12665600D01*
X12660602Y8813591D01*
X12651241Y8822952D01*
Y8875390D01*
X12656850Y8881000D01*
X12714700D01*
Y9002800D01*
X12715400D01*
Y9132800D01*
X12611900D01*
Y9152200D01*
D02*
G37*
G36*
X12733100Y8524782D02*
X12715542Y8521289D01*
X12705510Y8514586D01*
X12665600D01*
X12651944Y8511869D01*
X12640366Y8504134D01*
X12632631Y8492556D01*
X12629914Y8478900D01*
X12632631Y8465244D01*
X12640366Y8453666D01*
X12651944Y8445931D01*
X12665600Y8443214D01*
X12687218D01*
Y8428300D01*
X12659700D01*
Y8318300D01*
X12789700D01*
Y8428300D01*
X12778982D01*
Y8443214D01*
X12800600D01*
X12814256Y8445931D01*
X12825835Y8453666D01*
X12833569Y8465244D01*
X12836285Y8478900D01*
X12833569Y8492556D01*
X12825835Y8504134D01*
X12814256Y8511869D01*
X12800600Y8514586D01*
X12760690D01*
X12750658Y8521289D01*
X12733100Y8524782D01*
D02*
G37*
G36*
X13099998Y9178999D02*
Y9178999D01*
X13097369Y9178999D01*
X12970000D01*
Y9068999D01*
X13099998D01*
Y9068998D01*
X13109702Y9068998D01*
Y9068999D01*
X13239700D01*
Y9086330D01*
X13240755Y9086521D01*
X13254733Y9076178D01*
X13255536Y9070079D01*
X13262338Y9053658D01*
X13273157Y9039558D01*
X13287257Y9028739D01*
X13303677Y9021937D01*
X13321300Y9019617D01*
X13338921Y9021937D01*
X13355341Y9028739D01*
X13369441Y9039558D01*
X13380260Y9053658D01*
X13387062Y9070079D01*
X13389381Y9087700D01*
X13387062Y9105321D01*
X13380260Y9121741D01*
X13369441Y9135841D01*
X13355341Y9146661D01*
X13338921Y9153462D01*
X13321300Y9155782D01*
X13303677Y9153462D01*
X13302138Y9152824D01*
X13299181Y9154801D01*
X13286421Y9157339D01*
X13239700D01*
Y9178998D01*
X13112331D01*
X13109702Y9178999D01*
Y9178999D01*
X13099998Y9178999D01*
D02*
G37*
G36*
X9611360Y9566458D02*
X9588690Y9561949D01*
X9569472Y9549108D01*
X9567998Y9546902D01*
X9553202D01*
Y9512648D01*
X9552122Y9507220D01*
X9553202Y9501792D01*
Y9451902D01*
X9591652D01*
X9611360Y9447982D01*
X9631068Y9451902D01*
X9693201D01*
X9702601Y9443935D01*
Y9439801D01*
X9832601D01*
Y9559801D01*
X9702601D01*
Y9554869D01*
X9693201Y9546902D01*
X9654722D01*
X9653248Y9549108D01*
X9634029Y9561949D01*
X9611360Y9566458D01*
D02*
G37*
G36*
X9347200Y9732050D02*
X9326286Y9727890D01*
X9308557Y9716043D01*
X9296710Y9698314D01*
X9292550Y9677400D01*
X9296710Y9656486D01*
X9308557Y9638757D01*
X9317514Y9632772D01*
Y9607397D01*
X9313400Y9596401D01*
X9203401D01*
Y9466401D01*
X9276902D01*
X9290400Y9463716D01*
X9298609D01*
X9312166Y9454658D01*
X9330699Y9450971D01*
X9375700D01*
X9394233Y9454658D01*
X9409945Y9465156D01*
X9420443Y9480868D01*
X9424130Y9499402D01*
X9420443Y9517935D01*
X9409945Y9533647D01*
X9394233Y9544146D01*
X9388885Y9545210D01*
Y9643309D01*
X9397690Y9656486D01*
X9401850Y9677400D01*
X9397690Y9698314D01*
X9385843Y9716043D01*
X9368114Y9727890D01*
X9347200Y9732050D01*
D02*
G37*
%LPD*%
D10*
X14020000Y7069199D02*
D03*
Y6799200D02*
D03*
X17399001Y7069200D02*
D03*
Y6799200D02*
D03*
X16305000Y3356000D02*
D03*
Y3086000D02*
D03*
X17775000Y3371000D02*
D03*
Y3101000D02*
D03*
X18094000Y3368000D02*
D03*
Y3098000D02*
D03*
X18413000Y3371000D02*
D03*
Y3101000D02*
D03*
X8760000Y2118000D02*
D03*
Y1848000D02*
D03*
X9057000Y2115000D02*
D03*
Y1845000D02*
D03*
X9357000Y2116000D02*
D03*
Y1846000D02*
D03*
X13702600Y7074400D02*
D03*
Y6804400D02*
D03*
X17094200Y7069200D02*
D03*
Y6799200D02*
D03*
D11*
X19615421Y10619740D02*
D03*
Y10365740D02*
D03*
Y10111740D02*
D03*
X20505420Y10619740D02*
D03*
Y10365740D02*
D03*
X12147820Y10589260D02*
D03*
Y10335260D02*
D03*
Y10081260D02*
D03*
X13037820Y10589260D02*
D03*
Y10335260D02*
D03*
D12*
X20505420Y10111740D02*
D03*
X13037820Y10081260D02*
D03*
D13*
X15239999Y7882001D02*
D03*
Y7611999D02*
D03*
X11836400Y7882001D02*
D03*
Y7611999D02*
D03*
X10453400Y6466002D02*
D03*
Y6196000D02*
D03*
X20740401Y6466002D02*
D03*
Y6196000D02*
D03*
X12065000Y7882001D02*
D03*
Y7611999D02*
D03*
X13885100Y7780601D02*
D03*
Y7510599D02*
D03*
X17276700Y7783401D02*
D03*
Y7513399D02*
D03*
X15468600Y7882001D02*
D03*
Y7611999D02*
D03*
D14*
X5472000Y5704000D02*
D03*
Y6185300D02*
D03*
X3860800Y5373400D02*
D03*
Y5854700D02*
D03*
D15*
X22864047Y7293916D02*
D03*
Y7420916D02*
D03*
Y7547916D02*
D03*
Y7674916D02*
D03*
X22364047Y7293916D02*
D03*
Y7420916D02*
D03*
Y7547916D02*
D03*
X22891399Y5746801D02*
D03*
Y5873801D02*
D03*
Y6000801D02*
D03*
Y6127801D02*
D03*
X22391400Y5746801D02*
D03*
Y5873801D02*
D03*
Y6000801D02*
D03*
D16*
X22364047Y7674916D02*
D03*
X22391400Y6127801D02*
D03*
D17*
X23012399Y7720400D02*
D03*
Y7570400D02*
D03*
X23026401Y6002001D02*
D03*
Y6152001D02*
D03*
X9131300Y8035220D02*
D03*
Y8185220D02*
D03*
X9234201Y7043401D02*
D03*
Y7193401D02*
D03*
X19395441Y8032680D02*
D03*
Y8182680D02*
D03*
X19521201Y7043401D02*
D03*
Y7193401D02*
D03*
X7636000Y2598000D02*
D03*
Y2748000D02*
D03*
X3022600Y3707200D02*
D03*
Y3557200D02*
D03*
X13174699Y9123999D02*
D03*
Y9273998D02*
D03*
X13035001Y9273999D02*
D03*
Y9123999D02*
D03*
X12546900Y8947200D02*
D03*
Y9097200D02*
D03*
X12724700Y8223300D02*
D03*
Y8373300D02*
D03*
X16116299Y8226100D02*
D03*
Y8376100D02*
D03*
X15938499Y8950000D02*
D03*
Y9100000D02*
D03*
X16426601Y9276799D02*
D03*
Y9126799D02*
D03*
X16566299Y9126799D02*
D03*
Y9276799D02*
D03*
X21763000Y7263000D02*
D03*
Y7143000D02*
D03*
D18*
X22092801Y6127801D02*
D03*
X22232800D02*
D03*
X22065448Y7674916D02*
D03*
X22205447D02*
D03*
X11587200Y9220200D02*
D03*
X11727200D02*
D03*
X12401400Y8839200D02*
D03*
X12541400D02*
D03*
X12794700Y8946000D02*
D03*
X12654700D02*
D03*
X12795400Y9067800D02*
D03*
X12655400D02*
D03*
X16199001D02*
D03*
X16059000D02*
D03*
X16199001Y8940800D02*
D03*
X16059000D02*
D03*
X15779601Y8813800D02*
D03*
X15919600D02*
D03*
X14978799Y9223000D02*
D03*
X15118800D02*
D03*
X5427000Y8545000D02*
D03*
X5287000D02*
D03*
X5280003Y8752000D02*
D03*
X5420002D02*
D03*
X2926000Y6785002D02*
D03*
X2786000D02*
D03*
D19*
X3311997Y9734393D02*
D03*
X3462000D02*
D03*
X13968800Y5537200D02*
D03*
X13818800D02*
D03*
X9080602Y7033946D02*
D03*
X8930599D02*
D03*
X9360001Y7753401D02*
D03*
X9210001D02*
D03*
X9108401Y9531401D02*
D03*
X9258401D02*
D03*
X8801202Y7033946D02*
D03*
X8651199D02*
D03*
X19367603D02*
D03*
X19217599D02*
D03*
X19647002Y7753401D02*
D03*
X19497002D02*
D03*
X19395401Y9506001D02*
D03*
X19545401D02*
D03*
X19088202Y7033946D02*
D03*
X18938199D02*
D03*
X17227000Y3962000D02*
D03*
X17077000D02*
D03*
X2947600Y3048000D02*
D03*
X3097600D02*
D03*
X3176200Y4343400D02*
D03*
X3326200D02*
D03*
X3227000Y9098280D02*
D03*
X3377000D02*
D03*
X3239700Y8427720D02*
D03*
X3389700D02*
D03*
X11966600Y9622000D02*
D03*
X11816600D02*
D03*
X13352100Y8895800D02*
D03*
X13502100D02*
D03*
X12408400Y8552300D02*
D03*
X12558400D02*
D03*
X12521000Y8686800D02*
D03*
X12371000D02*
D03*
X15924600D02*
D03*
X15774600D02*
D03*
X15800000Y8555100D02*
D03*
X15950000D02*
D03*
X16743700Y8898600D02*
D03*
X16893700D02*
D03*
X15358199Y9624800D02*
D03*
X15208199D02*
D03*
X21677000Y7668000D02*
D03*
X21557001D02*
D03*
X21682001Y7507000D02*
D03*
X21562000D02*
D03*
X21677000Y7814000D02*
D03*
X21557001D02*
D03*
X4064001Y8198000D02*
D03*
X3913999D02*
D03*
X5530000Y8285000D02*
D03*
X5380000D02*
D03*
X2781001Y6632000D02*
D03*
X2930998D02*
D03*
D20*
X8540399Y8007401D02*
D03*
X8810401D02*
D03*
X8694800Y4826000D02*
D03*
X8424798D02*
D03*
X8683401Y4527601D02*
D03*
X8413399D02*
D03*
X18813399Y8001000D02*
D03*
X19083400D02*
D03*
X18970401Y4832401D02*
D03*
X18700398D02*
D03*
X18970401Y4527601D02*
D03*
X18700398D02*
D03*
X8694000Y3128000D02*
D03*
X8424000D02*
D03*
X12263400Y3676100D02*
D03*
X12533400D02*
D03*
X12263400Y4006300D02*
D03*
X12533400D02*
D03*
X15654999Y4009100D02*
D03*
X15924998D02*
D03*
X15654999Y3678900D02*
D03*
X15924998D02*
D03*
X19083400Y8331200D02*
D03*
X18813400D02*
D03*
X8810400Y8305800D02*
D03*
X8540400D02*
D03*
D21*
X8865900Y7493051D02*
D03*
X19152901D02*
D03*
D22*
X8675400Y7232701D02*
D03*
X8802400D02*
D03*
X8929400D02*
D03*
X9056400D02*
D03*
X8675400Y7753401D02*
D03*
X8802400D02*
D03*
X8929400D02*
D03*
X9056400D02*
D03*
X18962399Y7232701D02*
D03*
X19089400D02*
D03*
X19216400D02*
D03*
X19343401D02*
D03*
X18962399Y7753401D02*
D03*
X19089400D02*
D03*
X19216400D02*
D03*
X19343401D02*
D03*
D23*
X9640600Y6771401D02*
D03*
Y7211400D02*
D03*
X19927600Y6771401D02*
D03*
Y7211400D02*
D03*
D24*
X9179403Y5107803D02*
D03*
X8931402D02*
D03*
X8683401D02*
D03*
X8435401D02*
D03*
X8187400D02*
D03*
X9179403Y6743802D02*
D03*
X8931402D02*
D03*
X8683401D02*
D03*
X8435401D02*
D03*
X8187400D02*
D03*
X19466403Y5107803D02*
D03*
X19218402D02*
D03*
X18970401D02*
D03*
X18722401D02*
D03*
X18474400D02*
D03*
X19466403Y6743802D02*
D03*
X19218402D02*
D03*
X18970401D02*
D03*
X18722401D02*
D03*
X18474400D02*
D03*
D25*
X8408401Y4273601D02*
D03*
X8688400D02*
D03*
X18695401D02*
D03*
X18975400D02*
D03*
X12258400Y3396700D02*
D03*
X12538400D02*
D03*
X15650000Y3399500D02*
D03*
X15929999D02*
D03*
D26*
X9268201Y8947201D02*
D03*
X9708200D02*
D03*
X19555202D02*
D03*
X19995200D02*
D03*
D27*
X9421602Y5078202D02*
D03*
X9605599D02*
D03*
X19708601D02*
D03*
X19892599D02*
D03*
X12928700Y4302900D02*
D03*
X13112700D02*
D03*
X16320299Y4305700D02*
D03*
X16504298D02*
D03*
D28*
X9513600Y4680001D02*
D03*
X19800600D02*
D03*
X13020700Y3904700D02*
D03*
X16412299Y3907500D02*
D03*
D29*
X10072400Y6158403D02*
D03*
Y6808399D02*
D03*
X20359399Y6158403D02*
D03*
Y6808399D02*
D03*
D30*
X10428000Y7142602D02*
D03*
Y6992600D02*
D03*
X20714999Y7142602D02*
D03*
Y6992600D02*
D03*
D31*
X9623201Y9309400D02*
D03*
Y9499402D02*
D03*
X9353199Y9309400D02*
D03*
Y9404401D02*
D03*
X19910201Y9309400D02*
D03*
Y9499402D02*
D03*
X19640199Y9309400D02*
D03*
Y9404401D02*
D03*
D32*
X9353199Y9499402D02*
D03*
X19640199D02*
D03*
D33*
X8940800Y7880200D02*
D03*
Y8020200D02*
D03*
X9767601Y9359801D02*
D03*
Y9499801D02*
D03*
X19227800Y7880200D02*
D03*
Y8020200D02*
D03*
X20054601Y9359801D02*
D03*
Y9499801D02*
D03*
X4909000Y5449000D02*
D03*
Y5589000D02*
D03*
D34*
X10998200Y6033000D02*
D03*
Y6413000D02*
D03*
X14427200Y6033000D02*
D03*
Y6413000D02*
D03*
D35*
X17367000Y3514000D02*
D03*
X16877000D02*
D03*
D36*
X8012000Y2333000D02*
D03*
Y2823000D02*
D03*
D37*
X11174600Y9719601D02*
D03*
Y9279601D02*
D03*
X14566199Y9722401D02*
D03*
Y9282402D02*
D03*
D38*
X11536799Y9364600D02*
D03*
X11726801D02*
D03*
X11536799Y9634602D02*
D03*
X11631800D02*
D03*
X14928398Y9367400D02*
D03*
X15118401D02*
D03*
X14928398Y9637402D02*
D03*
X15023399D02*
D03*
D39*
X11726801Y9634602D02*
D03*
X15118401Y9637402D02*
D03*
D40*
X13561002Y8483600D02*
D03*
X13410999D02*
D03*
X12394001Y7874000D02*
D03*
X12243999D02*
D03*
X13574400Y8692000D02*
D03*
X13424400D02*
D03*
X16966000Y8694800D02*
D03*
X16816000D02*
D03*
X15797601Y7874000D02*
D03*
X15647598D02*
D03*
X16952602Y8486400D02*
D03*
X16802599D02*
D03*
D41*
X12733100Y8828900D02*
D03*
Y8778900D02*
D03*
Y8728900D02*
D03*
Y8678900D02*
D03*
Y8578900D02*
D03*
Y8478900D02*
D03*
X13148100Y8828900D02*
D03*
Y8778900D02*
D03*
Y8728900D02*
D03*
Y8678900D02*
D03*
Y8578900D02*
D03*
Y8478900D02*
D03*
X16124699Y8831700D02*
D03*
Y8781700D02*
D03*
Y8731700D02*
D03*
Y8681700D02*
D03*
Y8581700D02*
D03*
Y8481700D02*
D03*
X16539700Y8831700D02*
D03*
Y8781700D02*
D03*
Y8731700D02*
D03*
Y8681700D02*
D03*
Y8581700D02*
D03*
Y8481700D02*
D03*
D42*
X11657200Y4597400D02*
D03*
X11957200D02*
D03*
X12257200D02*
D03*
X12557200D02*
D03*
X12857201D02*
D03*
X13157201D02*
D03*
X11657200Y7249400D02*
D03*
X11957200D02*
D03*
X12257200D02*
D03*
X12557200D02*
D03*
X12857201D02*
D03*
X13157201D02*
D03*
X15048801Y4600200D02*
D03*
X15348801D02*
D03*
X15648801D02*
D03*
X15948801D02*
D03*
X16248801D02*
D03*
X16548801D02*
D03*
X15048801Y7252200D02*
D03*
X15348801D02*
D03*
X15648801D02*
D03*
X15948801D02*
D03*
X16248801D02*
D03*
X16548801D02*
D03*
D43*
X13721600Y7924100D02*
D03*
Y8051100D02*
D03*
Y8178100D02*
D03*
Y8305100D02*
D03*
X13159700Y8315260D02*
D03*
Y8180640D02*
D03*
Y8048560D02*
D03*
Y7913940D02*
D03*
X17113200Y7926900D02*
D03*
Y8053900D02*
D03*
Y8180900D02*
D03*
Y8307900D02*
D03*
X16551300Y8318060D02*
D03*
Y8183440D02*
D03*
Y8051360D02*
D03*
Y7916740D02*
D03*
D44*
X13025101Y7747600D02*
D03*
X12805099D02*
D03*
X16416701Y7750400D02*
D03*
X16196700D02*
D03*
D45*
X3690600Y6324600D02*
D03*
X4132600D02*
D03*
D46*
X22434500Y2087000D02*
D03*
X22909500Y1887000D02*
D03*
Y2087000D02*
D03*
X22434500Y1887000D02*
D03*
X22576500Y4565000D02*
D03*
X23051500Y4365000D02*
D03*
Y4565000D02*
D03*
X22576500Y4365000D02*
D03*
D47*
X21582001Y9604500D02*
D03*
Y10499500D02*
D03*
D48*
X4424000Y9174000D02*
D03*
X4504000D02*
D03*
X4584000D02*
D03*
X4664000D02*
D03*
X4744000D02*
D03*
X4824000D02*
D03*
X4904000D02*
D03*
X4984000D02*
D03*
Y8334000D02*
D03*
X4904000D02*
D03*
X4824000D02*
D03*
X4744000D02*
D03*
X4664000D02*
D03*
X4584000D02*
D03*
X4504000D02*
D03*
X4424000D02*
D03*
D49*
X5124000Y9034000D02*
D03*
Y8954000D02*
D03*
Y8874000D02*
D03*
Y8794000D02*
D03*
Y8714000D02*
D03*
Y8634000D02*
D03*
Y8554000D02*
D03*
Y8474000D02*
D03*
X4284000D02*
D03*
Y8554000D02*
D03*
Y8634000D02*
D03*
Y8714000D02*
D03*
Y8794000D02*
D03*
Y8874000D02*
D03*
Y8954000D02*
D03*
Y9034000D02*
D03*
D50*
X3887400Y8000000D02*
D03*
X3989000D02*
D03*
X4089000D02*
D03*
D51*
X4462000Y5820000D02*
D03*
X4692000D02*
D03*
X4922000D02*
D03*
D52*
X4692000Y6450000D02*
D03*
D53*
X5321318Y8123005D02*
D03*
X5532996D02*
D03*
D54*
X10321802Y8987001D02*
D03*
Y8247001D02*
D03*
X20608801Y8987001D02*
D03*
Y8247001D02*
D03*
X11174000Y8847000D02*
D03*
Y8107000D02*
D03*
X14575999Y8841000D02*
D03*
Y8101000D02*
D03*
D55*
X22581000Y10405000D02*
D03*
Y9915000D02*
D03*
D56*
X10845800Y6172200D02*
X17119600D01*
X10541000Y5867400D02*
X10845800Y6172200D01*
X6985000Y5867400D02*
X10541000D01*
X10541000Y5943600D02*
X10871200Y6273800D01*
X6858000Y5943600D02*
X10541000D01*
X10871200Y6273800D02*
X17195799D01*
X18841721Y4961082D02*
Y5770880D01*
X18752820Y5859780D02*
X18841721Y5770880D01*
X17609821Y5859780D02*
X18752820D01*
X17195799Y6273800D02*
X17609821Y5859780D01*
X18841721Y4961082D02*
X18970401Y4832401D01*
X13842999Y5410200D02*
X13970000Y5537200D01*
X13766800Y5410200D02*
X13842999D01*
X13970000Y5537200D02*
Y5588000D01*
X13741400Y5816600D02*
X13970000Y5588000D01*
X13741400Y5816600D02*
Y6070600D01*
X7442200Y5511800D02*
X10490200D01*
X7366000Y5588000D02*
X7442200Y5511800D01*
X7289800Y6045200D02*
Y8864600D01*
X7086600Y9067800D02*
X7289800Y8864600D01*
X3911600Y2870200D02*
X4038600Y2743200D01*
X2489200Y3556000D02*
X2996000D01*
X2311400Y3378200D02*
X2489200Y3556000D01*
X2311400Y3022600D02*
Y3378200D01*
Y3022600D02*
X2463800Y2870200D01*
X3911600D01*
X10566400Y2743200D02*
X14350999D01*
X2467000Y3708400D02*
X2998400D01*
X10693400Y2895600D02*
X13970000D01*
X10414000Y3022600D02*
X12877800D01*
X13157201Y3302000D01*
X7366000Y3200400D02*
X7442200D01*
X6604000Y3962400D02*
X7366000Y3200400D01*
X2467000Y3962400D02*
X6604000D01*
X13157201Y3302000D02*
Y3530600D01*
X3097600Y3048000D02*
X7645400D01*
X2467000Y3073400D02*
X2922200D01*
X14651198Y9637402D02*
X14928398D01*
X14651198Y9367400D02*
X14928398D01*
X11259598Y9364600D02*
X11536799D01*
X11259598Y9634602D02*
X11536799D01*
X9258402Y9531400D02*
X9290400Y9499402D01*
X9353199D01*
Y9671401D01*
X19552000Y9499402D02*
X19640199D01*
X19608800Y9530801D02*
X19640199Y9499402D01*
X19608800Y9530801D02*
Y9702800D01*
X2467000Y4597400D02*
X2619400Y4445000D01*
X3326200Y4343400D02*
X3351600Y4318000D01*
X2514600Y9734393D02*
X3311997D01*
X9353199Y9032199D02*
Y9309400D01*
X9623201Y9032199D02*
Y9309400D01*
X19555202Y8947201D02*
Y9224401D01*
X19640199Y9309400D01*
X19910201Y9032199D02*
Y9309400D01*
X3326200Y4343400D02*
X5461000D01*
X6985000Y5867400D01*
X2619400Y4445000D02*
X5359400D01*
X6858000Y5943600D01*
X17119600Y6172200D02*
X17925999Y5365801D01*
X17946400D01*
X2781001Y6632000D02*
Y6775999D01*
X5124000Y8474000D02*
X5188000D01*
X5376000Y8286000D01*
X4424000Y8167000D02*
Y8334000D01*
X4504000Y8168000D02*
Y8334000D01*
X4584000Y8164000D02*
Y8334000D01*
X4664000Y8164000D02*
Y8334000D01*
X5124000Y8714000D02*
X5266000D01*
X5295000Y9448000D02*
X5675200Y9067800D01*
X4966000Y9448000D02*
X5295000D01*
X4904000Y9386000D02*
X4966000Y9448000D01*
X4904000Y9177000D02*
Y9386000D01*
X5675200Y9067800D02*
X7086600D01*
X2590801Y6273800D02*
X3244800D01*
X4857000Y7630289D02*
X4857289D01*
X4154800Y7035800D02*
X4865000Y7746000D01*
X2590801Y7035800D02*
X4154800D01*
X3244800Y6273800D02*
X3912000Y6941000D01*
X4205710Y6979000D02*
X4857000Y7630289D01*
X4205710Y6978710D02*
Y6979000D01*
X4169000Y6942000D02*
X4205710Y6978710D01*
X4169000Y6941000D02*
Y6942000D01*
X3912000Y6941000D02*
X4169000D01*
X4857289Y7630289D02*
X4976000Y7749000D01*
Y8198613D01*
X4903000Y8271612D02*
X4976000Y8198613D01*
X4903000Y8271612D02*
Y8322000D01*
X4901000Y8324000D02*
X4903000Y8322000D01*
X2590801Y7289800D02*
X4269800D01*
X4838500Y7858500D01*
X5124000Y8405000D02*
Y8474000D01*
Y8405000D02*
X5151000Y8378000D01*
X5061400Y8201800D02*
Y8258600D01*
X4985000Y8335000D02*
X5061400Y8258600D01*
X4286000Y8419999D02*
Y8471000D01*
X3913999Y8198000D02*
Y8265999D01*
X4201000Y8553000D01*
X4280000D01*
X4089000Y8000000D02*
Y8175000D01*
X4065000Y8199000D02*
X4065001Y8199000D01*
X4089000Y8175000D01*
X4065001Y8199000D02*
X4286000Y8419999D01*
X3887400Y8000000D02*
Y8164400D01*
X3915000Y8192000D01*
X5249800Y8647800D02*
X5288400D01*
X5243000Y8641000D02*
X5249800Y8647800D01*
X5121000Y8641000D02*
X5243000D01*
X5143800Y8951800D02*
X5285400D01*
X5144400Y9038400D02*
Y9114800D01*
X4983000Y9231400D02*
X5058400Y9306800D01*
X4623000Y8695000D02*
X4770000D01*
X4911000Y8554000D01*
X5123000D01*
X4548000Y8695000D02*
X4623000D01*
X4491000Y8638000D02*
X4548000Y8695000D01*
X4295000Y8638000D02*
X4491000D01*
X4623000Y8695000D02*
Y8715000D01*
X4542000Y8796000D02*
X4623000Y8715000D01*
X4288000Y8796000D02*
X4542000D01*
X2492400Y8029600D02*
Y8178800D01*
Y8029600D02*
X3087000Y7435000D01*
X4196000D01*
X4746000Y7985000D01*
Y8329000D01*
X2355000Y8701800D02*
X2492400Y8839200D01*
X2355000Y7851000D02*
Y8701800D01*
Y7851000D02*
X2838000Y7368000D01*
X4218000D01*
X4824000Y7974000D01*
Y8329000D01*
D57*
X20667979Y10223500D02*
Y10233660D01*
X20556219Y10111740D02*
X20667979Y10223500D01*
X20657820D02*
X20667979Y10233660D01*
X20505420Y10111740D02*
X20556219D01*
X13238480Y10148960D02*
Y10233660D01*
X13170779Y10081260D02*
X13238480Y10148960D01*
X13037820Y10081260D02*
X13170779D01*
X16666901Y9126799D02*
X16710660Y9083040D01*
X16566299Y9126799D02*
X16666901D01*
X16712898Y9090500D02*
X16746060D01*
X13321300Y9090660D02*
Y9109979D01*
X13286421Y9123999D02*
X13319760Y9090660D01*
X13174699Y9123999D02*
X13286421D01*
X16037442Y8925442D02*
X16052800Y8940800D01*
X16037442Y8879400D02*
Y8925442D01*
X16009500Y8851458D02*
X16037442Y8879400D01*
X16009500Y8811942D02*
Y8851458D01*
Y8811942D02*
X16037442Y8784000D01*
X15950400Y8789200D02*
Y8938100D01*
X12617900Y8889200D02*
X12674700Y8946000D01*
X12617900Y8809142D02*
Y8889200D01*
Y8809142D02*
X12645842Y8781200D01*
X12648200D01*
X12650500Y8778900D01*
X12558800Y8802600D02*
Y8935300D01*
Y8802600D02*
X12632500Y8728900D01*
X16037442Y8784000D02*
X16039799D01*
X16042101Y8781700D01*
X13693199Y8311000D02*
X13766800D01*
X13261295Y8778900D02*
X13340695Y8858300D01*
X13348199D01*
X13148100Y8778900D02*
X13261295D01*
X13352901Y8806300D02*
X13664500D01*
X13275500Y8728900D02*
X13352901Y8806300D01*
X13148100Y8728900D02*
X13275500D01*
X17084799Y8313800D02*
X17157700D01*
X16759055Y8809100D02*
X17056100D01*
X16728300Y8778344D02*
X16759055Y8809100D01*
X16728300Y8778100D02*
Y8778344D01*
X16681900Y8731700D02*
X16728300Y8778100D01*
X16539700Y8731700D02*
X16681900D01*
X16007899D02*
X16124699D01*
X15950400Y8789200D02*
X16007899Y8731700D01*
X16042101Y8781700D02*
X16124699D01*
X12632500Y8728900D02*
X12733100D01*
X12650500Y8778900D02*
X12733100D01*
X14883000Y8613900D02*
X15545898Y9276799D01*
X16426601D01*
X16703000Y8595200D02*
X16717099Y8581100D01*
X16687498Y8595200D02*
X16703000D01*
X16673999Y8581700D02*
X16687498Y8595200D01*
X16539700Y8581700D02*
X16673999D01*
X16566299Y9126799D02*
X16566299Y9126799D01*
X16426601Y9126799D02*
X16566299D01*
X16660400Y8781700D02*
X16739799Y8861100D01*
X16539700Y8781700D02*
X16660400D01*
X16539700Y8681700D02*
X16816000D01*
X15938499Y9100000D02*
X16016699D01*
X16066299Y9050400D01*
X15934599Y8681700D02*
X16124699D01*
X15976601Y8581700D02*
X16124699D01*
X12585000Y8578900D02*
X12733100D01*
X12531000Y8678900D02*
X12733100D01*
X12625100Y9097200D02*
X12674700Y9047600D01*
X12546900Y9097200D02*
X12625100D01*
X13148100Y8678900D02*
X13424400D01*
X13035001Y9123999D02*
X13174699D01*
X13174699Y9123999D01*
X13148100Y8578900D02*
X13282399D01*
X13295898Y8592400D01*
X12154299Y9273999D02*
X13035001D01*
X11497000Y8616700D02*
X12154299Y9273999D01*
X13664500Y8806300D02*
X13767599Y8703200D01*
Y8545516D02*
Y8703200D01*
X13766800Y8311000D02*
Y8544715D01*
X13767599Y8545516D01*
X13575600Y8692000D02*
X13680000Y8587600D01*
Y8561000D02*
Y8587600D01*
X17056100Y8809100D02*
X17159200Y8706000D01*
Y8548316D02*
Y8706000D01*
X17157700Y8313800D02*
Y8546816D01*
X17159200Y8548316D01*
X16967200Y8694800D02*
X17071001Y8591000D01*
Y8579000D02*
Y8591000D01*
X2590801Y6781800D02*
X2778800D01*
X4824000Y9174000D02*
Y9178000D01*
X4742000Y8944200D02*
X4843400Y8842800D01*
X4742000Y8944200D02*
Y9181000D01*
X4825000Y8955000D02*
Y8976000D01*
X4824000Y8975000D02*
Y9174000D01*
X5532996Y8123005D02*
Y8280996D01*
X3989000Y9139000D02*
X4342000Y9492000D01*
X4552000D01*
X4674000Y9370000D01*
Y9179000D02*
Y9370000D01*
X3989000Y8514000D02*
Y9139000D01*
X3444500Y7969500D02*
X3989000Y8514000D01*
X4421000Y9274400D02*
X4505400Y9358800D01*
X4421000Y9224000D02*
Y9274400D01*
X4274400Y9041400D02*
Y9133800D01*
X4274000Y9041000D02*
X4274400Y9041400D01*
X11497000Y8131000D02*
Y8616700D01*
X14883000Y8108000D02*
Y8613900D01*
D58*
X3377000Y9089460D02*
X3462000Y9174460D01*
X3377000Y9089460D02*
Y9098280D01*
Y8967540D02*
Y9089460D01*
X3389700Y8427720D02*
Y8561000D01*
X3462000Y9174460D02*
Y9734393D01*
X22402800Y6502400D02*
X22555200Y6654800D01*
X22391400Y6491000D02*
X22402800Y6502400D01*
X22391400Y6127801D02*
Y6491000D01*
X22250400Y6121400D02*
X22385001D01*
X22391400Y6127801D01*
X19227800Y8020200D02*
Y8128000D01*
X8940800Y8020200D02*
Y8102600D01*
X8966200Y8128000D01*
X21677000Y7672000D02*
X21680000Y7669000D01*
X21914999D01*
X21973698Y7608481D02*
Y7610302D01*
Y7608481D02*
X22034264Y7547916D01*
X22364047D01*
X21683000Y7813000D02*
X21771001D01*
X21681000Y7811000D02*
X21683000Y7813000D01*
X21771001D02*
X21914999Y7669000D01*
X21973698Y7610302D01*
X21674001Y7816000D02*
X21677000Y7813000D01*
X21911084Y7420916D02*
X22364047D01*
X21825999Y7506000D02*
X21911084Y7420916D01*
X21681000Y7506000D02*
X21825999D01*
X21911084Y7417084D02*
Y7420916D01*
X21778999Y7285000D02*
X21911084Y7417084D01*
X3471200Y9736200D02*
Y9919400D01*
X3462000Y9734393D02*
X3473392Y9723000D01*
X2930998Y6632000D02*
X2994000D01*
X3055000Y6571000D01*
D59*
X2494280Y8427720D02*
X3239700D01*
X2489200Y9098280D02*
X3227000D01*
X22707600Y8128000D02*
Y8356600D01*
X22503200Y7923600D02*
X22707600Y8128000D01*
X22378600Y7923600D02*
X22503200D01*
X11726302Y9628701D02*
X11809899D01*
X11709400Y9804400D02*
X11726801Y9786999D01*
Y9634602D02*
Y9786999D01*
X15117902Y9631501D02*
X15201498D01*
X15113000Y9779000D02*
X15118401Y9773599D01*
Y9637402D02*
Y9773599D01*
X15016499Y9358100D02*
X15114503D01*
X16124699Y8384500D02*
Y8481700D01*
X12733100Y8381700D02*
Y8478900D01*
X11624900Y9355300D02*
X11722903D01*
X9623201Y9499402D02*
X9767199D01*
X19910201D02*
X20054199D01*
X2514600Y4343400D02*
X3166200D01*
X19910201Y9499402D02*
X19913600Y9496003D01*
X11726302Y9214701D02*
Y9358699D01*
X15117902Y9217501D02*
Y9361499D01*
X19898360Y9507220D02*
X19909773Y9498820D01*
X19913600Y9496003D01*
X7636000Y2484000D02*
Y2598000D01*
Y2484000D02*
X7784000Y2336000D01*
X8043000D01*
X16888000Y3962000D02*
X17077000D01*
X17227000D02*
X17303999D01*
X17391000Y3875000D01*
Y3598000D02*
Y3875000D01*
D60*
X22402800Y6502400D02*
Y6527800D01*
X22987000Y7823200D02*
X23012399Y7797800D01*
Y7720400D02*
Y7797800D01*
X23114000Y8051800D02*
X23241000Y8178800D01*
X23114000Y7672000D02*
Y8051800D01*
X23012399Y7570400D02*
X23114000Y7672000D01*
X22940315Y7674916D02*
X22987000Y7721600D01*
X22864047Y7674916D02*
X22940315D01*
X22864047Y7547916D02*
X22991116D01*
X22982884Y7420916D02*
X22987000Y7416800D01*
X22864047Y7420916D02*
X22982884D01*
X23119400Y7346000D02*
Y7447368D01*
X23067316Y7293916D02*
X23119400Y7346000D01*
X22864047Y7293916D02*
X23067316D01*
X23241000Y7543800D02*
Y7645400D01*
X23215800Y7518600D02*
X23241000Y7543800D01*
X23190633Y7518600D02*
X23215800D01*
X23119400Y7447368D02*
X23190633Y7518600D01*
X22205447Y7674916D02*
X22364047D01*
X22205447D02*
Y7674916D01*
Y7649774D02*
Y7674916D01*
X23037801Y7137400D02*
X23164799Y7264400D01*
X23190433D01*
X23190633Y7264600D01*
X23291368D01*
X23412968Y7143000D01*
X23749001D01*
X23190433Y7010400D02*
X23190633Y7010600D01*
X23291368D01*
X23412968Y6889000D01*
X23749001D01*
X23026401Y6160800D02*
X23037801Y6172200D01*
X22993401Y6127801D02*
X23026401Y6160800D01*
Y6262400D01*
X22891399Y6127801D02*
X22993401D01*
X22891399Y5873801D02*
X23018800D01*
X23723599Y6375400D02*
X23749001D01*
X22891399Y6000801D02*
X23349001D01*
X23723599Y6375400D01*
X23628401Y5746801D02*
X23749001Y5867400D01*
X22891399Y5746801D02*
X23628401D01*
X23235400Y5613400D02*
X23241000Y5619000D01*
X22682201Y5613400D02*
X23235400D01*
X22580600Y5715000D02*
X22682201Y5613400D01*
X22580600Y5715000D02*
Y5918200D01*
X22021800Y5715000D02*
X22174200Y5867400D01*
X22021800Y5537200D02*
Y5715000D01*
Y5537200D02*
X22194000Y5365000D01*
X23241000D01*
X22364047Y7674916D02*
Y7913048D01*
X21562000Y7507000D02*
X21564000D01*
X21517500Y7127500D02*
X21634599Y7010400D01*
X23190433D01*
X21456000Y7811000D02*
X21561000D01*
X21444000Y7665000D02*
X21557001D01*
X21622600Y7137400D02*
X23037801D01*
X21540500Y7216500D02*
X21617999Y7139000D01*
X21539500Y7216500D02*
X21540500D01*
X21458984Y7506985D02*
X21464000Y7512000D01*
X21467999D01*
X21473000Y7507000D01*
X21562000D01*
X21253000Y7567358D02*
Y7608000D01*
X21456000Y7811000D01*
X21252000Y7393000D02*
X21517500Y7127500D01*
X21252000Y7393000D02*
Y7566358D01*
X21253000Y7567358D01*
X21347000Y7409000D02*
X21539500Y7216500D01*
X21347000Y7409000D02*
Y7568000D01*
X21444000Y7665000D01*
X22402800Y5994400D02*
X22504401D01*
X22580600Y5918200D01*
X22174200Y5867400D02*
X22377400D01*
D61*
X13716000Y5537200D02*
X13792200D01*
X5124000Y8554000D02*
X5286000D01*
D62*
X3429000Y6045200D02*
X3708400Y6324600D01*
X2565401Y6045200D02*
X3429000D01*
X2336801Y6273800D02*
X2565401Y6045200D01*
X4692000Y5820000D02*
Y6462000D01*
X3659000Y5952000D02*
X3762000D01*
X3851000Y5863000D01*
X3860800Y5854700D02*
X4110500Y5605000D01*
X4915000D01*
X4919000Y5601000D02*
Y5823000D01*
D63*
X16956499Y8504300D02*
X16966000D01*
X16539700Y8481700D02*
X16802100D01*
X16471899D02*
X16539700D01*
X16303999Y8313800D02*
X16471899Y8481700D01*
X16956499Y8504300D02*
Y8632277D01*
X13564900Y8501500D02*
Y8629477D01*
X12912399Y8311000D02*
X13080299Y8478900D01*
X13148100D01*
X13410500D01*
X13564900Y8501500D02*
X13574400D01*
D64*
X16889799Y8898000D02*
X17106900D01*
X13498199Y8895200D02*
X13715300D01*
X13855000Y8755500D01*
Y8196700D02*
Y8755500D01*
X17106900Y8898000D02*
X17246600Y8758300D01*
Y8199500D02*
Y8758300D01*
D65*
X23241000Y3841000D02*
X23749001D01*
X23241000Y3587000D02*
X23749001D01*
Y3079000D02*
Y3333000D01*
X23241000Y3079000D02*
X23749001D01*
X23241000D02*
Y3333000D01*
Y2571000D02*
Y2825000D01*
X23749001Y2571000D02*
Y2825000D01*
X23241000D02*
X23749001D01*
X23241000Y2317000D02*
X23749001D01*
X23241000Y2063000D02*
X23749001D01*
X23241000Y2033000D02*
Y2063000D01*
X22903999Y1846000D02*
X23053999D01*
X23241000Y2033000D01*
X23149001Y2317000D02*
X23241000D01*
X22902000Y2111000D02*
X22942999D01*
X23149001Y2317000D01*
D66*
X19442603Y6912803D02*
X19521201Y6991401D01*
X19216400Y7753401D02*
Y7835336D01*
X19217599Y6941800D02*
Y7033946D01*
Y7231502D01*
X19246596Y6912803D02*
X19442603D01*
X19217599Y6941800D02*
X19246596Y6912803D01*
X19343401Y7049750D02*
Y7232701D01*
X19367603Y7033946D02*
Y7208500D01*
X19088202Y7033946D02*
Y7231502D01*
X19521201Y6991401D02*
Y7043400D01*
X19343401Y7232701D02*
X19367603Y7208500D01*
X9155603Y6912803D02*
X9234200Y6991401D01*
X8929400Y7753401D02*
Y7835336D01*
X8930599Y6941800D02*
Y7033946D01*
Y7231502D01*
X8959596Y6912803D02*
X9155603D01*
X8930599Y6941800D02*
X8959596Y6912803D01*
X9056400Y7049750D02*
Y7232701D01*
X9080602Y7033946D02*
Y7208500D01*
X8801202Y7033946D02*
Y7231502D01*
X9234200Y6991401D02*
Y7043400D01*
X9056400Y7232701D02*
X9080602Y7208500D01*
D67*
X7924800Y8864600D02*
D03*
Y9144000D02*
D03*
D68*
X23749001Y9937000D02*
D03*
Y9683000D02*
D03*
Y9429000D02*
D03*
Y9175000D02*
D03*
Y8921000D02*
D03*
Y8667000D02*
D03*
Y8413000D02*
D03*
Y8159000D02*
D03*
Y7905000D02*
D03*
Y7651000D02*
D03*
Y7397000D02*
D03*
Y7143000D02*
D03*
Y6889000D02*
D03*
Y6635000D02*
D03*
Y6381000D02*
D03*
Y6127000D02*
D03*
Y5873000D02*
D03*
Y5619000D02*
D03*
Y5365000D02*
D03*
Y5111000D02*
D03*
Y4857000D02*
D03*
Y4603000D02*
D03*
Y4349000D02*
D03*
Y4095000D02*
D03*
Y3841000D02*
D03*
Y3587000D02*
D03*
Y3333000D02*
D03*
Y3079000D02*
D03*
Y2825000D02*
D03*
Y2571000D02*
D03*
Y2317000D02*
D03*
Y2063000D02*
D03*
X23241000Y9937000D02*
D03*
Y9683000D02*
D03*
Y9429000D02*
D03*
Y9175000D02*
D03*
Y8921000D02*
D03*
Y8667000D02*
D03*
Y8413000D02*
D03*
Y8159000D02*
D03*
Y7905000D02*
D03*
Y7651000D02*
D03*
Y7397000D02*
D03*
Y7143000D02*
D03*
Y6889000D02*
D03*
Y6635000D02*
D03*
Y6381000D02*
D03*
Y6127000D02*
D03*
Y5873000D02*
D03*
Y5619000D02*
D03*
Y5365000D02*
D03*
Y5111000D02*
D03*
Y4857000D02*
D03*
Y4603000D02*
D03*
Y4349000D02*
D03*
Y4095000D02*
D03*
Y3841000D02*
D03*
Y3587000D02*
D03*
Y3333000D02*
D03*
Y3079000D02*
D03*
Y2825000D02*
D03*
Y2571000D02*
D03*
Y2317000D02*
D03*
Y2063000D02*
D03*
X2847300Y5218600D02*
D03*
Y5668600D02*
D03*
D69*
X24003000Y10445000D02*
D03*
Y1555000D02*
D03*
D70*
X2336801Y7289800D02*
D03*
X2590801D02*
D03*
Y7035800D02*
D03*
X2336801D02*
D03*
Y6781800D02*
D03*
X2590801D02*
D03*
X2336801Y6527800D02*
D03*
X2590801D02*
D03*
X2336801Y6273800D02*
D03*
X2590801D02*
D03*
D71*
X2492400Y2692400D02*
D03*
Y2438400D02*
D03*
Y3327400D02*
D03*
Y3073400D02*
D03*
Y3962400D02*
D03*
Y3708400D02*
D03*
Y4597400D02*
D03*
Y4343400D02*
D03*
Y9093200D02*
D03*
Y8839200D02*
D03*
Y8432800D02*
D03*
Y8178800D02*
D03*
Y9474200D02*
D03*
Y9728200D02*
D03*
D72*
X3096300Y5794100D02*
D03*
Y5093100D02*
D03*
D73*
X2557000Y10444400D02*
D03*
Y1554900D02*
D03*
D74*
X17500600Y7162800D02*
D03*
X8331200Y10566400D02*
D03*
Y10464800D02*
D03*
Y10363200D02*
D03*
X8432800D02*
D03*
Y10464800D02*
D03*
Y10566400D02*
D03*
X13690601Y10236200D02*
D03*
Y10337800D02*
D03*
Y10439400D02*
D03*
X13589000Y10337800D02*
D03*
Y10439400D02*
D03*
Y10236200D02*
D03*
X22199600Y5638800D02*
D03*
X22301199D02*
D03*
X22402800D02*
D03*
X20751801Y6121400D02*
D03*
X16891000Y6807200D02*
D03*
Y6934200D02*
D03*
X16383000Y6807200D02*
D03*
X16484599D02*
D03*
X16586200D02*
D03*
X16687801D02*
D03*
X16789400D02*
D03*
X15773399D02*
D03*
X15875000D02*
D03*
X15976601D02*
D03*
X16078200D02*
D03*
X16179800D02*
D03*
X16281400D02*
D03*
X15163800D02*
D03*
X15265401D02*
D03*
X15367000D02*
D03*
X15468600D02*
D03*
X15570200D02*
D03*
X15671800D02*
D03*
X14960600D02*
D03*
X15062199D02*
D03*
X14859000D02*
D03*
X14757401D02*
D03*
X14655800D02*
D03*
X14554201D02*
D03*
X14452600D02*
D03*
X16383000Y6934200D02*
D03*
X16484599D02*
D03*
X16586200D02*
D03*
X16687801D02*
D03*
X16789400D02*
D03*
X15773399D02*
D03*
X15875000D02*
D03*
X15976601D02*
D03*
X16078200D02*
D03*
X16179800D02*
D03*
X16281400D02*
D03*
X15163800D02*
D03*
X15265401D02*
D03*
X15367000D02*
D03*
X15468600D02*
D03*
X15570200D02*
D03*
X15671800D02*
D03*
X14960600D02*
D03*
X15062199D02*
D03*
X14859000D02*
D03*
X14757401D02*
D03*
X14655800D02*
D03*
X14554201D02*
D03*
X14452600D02*
D03*
X11049000D02*
D03*
X11150600D02*
D03*
X11252200D02*
D03*
X11353800D02*
D03*
X11455400D02*
D03*
X11658600D02*
D03*
X11557000D02*
D03*
X12268200D02*
D03*
X12166600D02*
D03*
X12065000D02*
D03*
X11963400D02*
D03*
X11861800D02*
D03*
X11760200D02*
D03*
X12877800D02*
D03*
X12776200D02*
D03*
X12674600D02*
D03*
X12573000D02*
D03*
X12471400D02*
D03*
X12369800D02*
D03*
X13487399D02*
D03*
X13385800D02*
D03*
X13284200D02*
D03*
X13182600D02*
D03*
X13081000D02*
D03*
X12979401D02*
D03*
X11049000Y6807200D02*
D03*
X11150600D02*
D03*
X11252200D02*
D03*
X11353800D02*
D03*
X11455400D02*
D03*
X11658600D02*
D03*
X11557000D02*
D03*
X12268200D02*
D03*
X12166600D02*
D03*
X12065000D02*
D03*
X11963400D02*
D03*
X11861800D02*
D03*
X11760200D02*
D03*
X12877800D02*
D03*
X12776200D02*
D03*
X12674600D02*
D03*
X12573000D02*
D03*
X12471400D02*
D03*
X12369800D02*
D03*
X13487399D02*
D03*
X13385800D02*
D03*
X13284200D02*
D03*
X13182600D02*
D03*
X13081000D02*
D03*
X12979401D02*
D03*
X13766800Y5410200D02*
D03*
X13716000Y5537200D02*
D03*
X13741400Y6070600D02*
D03*
X21361400Y5461000D02*
D03*
X21259801Y5638800D02*
D03*
Y5537200D02*
D03*
Y5410200D02*
D03*
X21158200D02*
D03*
Y5537200D02*
D03*
Y5638800D02*
D03*
X21056599Y5410200D02*
D03*
Y5537200D02*
D03*
Y5638800D02*
D03*
X9321800Y6832600D02*
D03*
X9398000Y6934200D02*
D03*
X9474200Y7035800D02*
D03*
Y7162800D02*
D03*
X9372600Y7264400D02*
D03*
Y7112000D02*
D03*
X19659599D02*
D03*
Y7264400D02*
D03*
X19761200Y7162800D02*
D03*
Y7035800D02*
D03*
X19685001Y6934200D02*
D03*
X19608800Y6832600D02*
D03*
X20853400Y6121400D02*
D03*
X20624800D02*
D03*
X20116800D02*
D03*
Y6223000D02*
D03*
X20015199D02*
D03*
Y6121400D02*
D03*
X19913600D02*
D03*
Y6223000D02*
D03*
X19812000Y6121400D02*
D03*
Y6223000D02*
D03*
X19710400D02*
D03*
Y6121400D02*
D03*
X19608800D02*
D03*
Y6223000D02*
D03*
X19507201D02*
D03*
Y6121400D02*
D03*
X19405600D02*
D03*
Y6223000D02*
D03*
X19303999D02*
D03*
Y6121400D02*
D03*
X19202400D02*
D03*
Y6223000D02*
D03*
X19100800Y6121400D02*
D03*
Y6223000D02*
D03*
X18999200D02*
D03*
Y6121400D02*
D03*
X18897600D02*
D03*
Y6223000D02*
D03*
X19100800Y6324600D02*
D03*
X18999200Y6426200D02*
D03*
Y6324600D02*
D03*
X18897600D02*
D03*
Y6426200D02*
D03*
Y6527800D02*
D03*
X18846800Y6629400D02*
D03*
Y6934200D02*
D03*
Y7035800D02*
D03*
Y7137400D02*
D03*
Y7239000D02*
D03*
X20574001Y6223000D02*
D03*
X20192999Y8559800D02*
D03*
X20066000D02*
D03*
X19939000D02*
D03*
X20192999Y8432800D02*
D03*
X20066000D02*
D03*
X19939000D02*
D03*
Y8305800D02*
D03*
X20066000D02*
D03*
X20192999D02*
D03*
X19939000Y8178800D02*
D03*
X20066000D02*
D03*
X20192999D02*
D03*
X19939000Y8051800D02*
D03*
X20066000D02*
D03*
X20192999D02*
D03*
X20320000D02*
D03*
X20447000D02*
D03*
X20574001D02*
D03*
X20700999D02*
D03*
X20828000D02*
D03*
Y7924800D02*
D03*
X19939000D02*
D03*
Y7797800D02*
D03*
Y7670800D02*
D03*
Y7543800D02*
D03*
X20066000Y7924800D02*
D03*
X20192999D02*
D03*
X20320000D02*
D03*
X20447000D02*
D03*
X20576540D02*
D03*
X20700999D02*
D03*
X20828000Y7797800D02*
D03*
X20700999D02*
D03*
X20574001D02*
D03*
X20447000D02*
D03*
X20320000D02*
D03*
X20192999D02*
D03*
X20091400D02*
D03*
X20066000Y7670800D02*
D03*
Y7543800D02*
D03*
X20192999D02*
D03*
X20320000D02*
D03*
X20447000D02*
D03*
X20574001D02*
D03*
X20700999D02*
D03*
X20828000D02*
D03*
Y7670800D02*
D03*
X20700999D02*
D03*
X20574001D02*
D03*
X20447000D02*
D03*
X20320000D02*
D03*
X20192999D02*
D03*
X19685001Y8559800D02*
D03*
X20828000Y7416800D02*
D03*
X20700999D02*
D03*
X20574001D02*
D03*
X20447000D02*
D03*
X20320000D02*
D03*
X20192999D02*
D03*
Y7289800D02*
D03*
X20320000D02*
D03*
X20447000D02*
D03*
X20574001D02*
D03*
X20700999D02*
D03*
X20828000D02*
D03*
X19812000Y8305800D02*
D03*
Y8178800D02*
D03*
Y8432800D02*
D03*
Y8559800D02*
D03*
X17983200Y5334000D02*
D03*
Y5207000D02*
D03*
Y5080000D02*
D03*
Y4953000D02*
D03*
Y4826000D02*
D03*
Y4699000D02*
D03*
Y4572000D02*
D03*
Y4445000D02*
D03*
Y4318000D02*
D03*
X18110201D02*
D03*
Y4445000D02*
D03*
Y4572000D02*
D03*
Y4699000D02*
D03*
Y4826000D02*
D03*
Y4953000D02*
D03*
Y5080000D02*
D03*
Y5207000D02*
D03*
Y5334000D02*
D03*
X18237199Y4318000D02*
D03*
Y4445000D02*
D03*
Y4572000D02*
D03*
Y4699000D02*
D03*
Y4826000D02*
D03*
Y4953000D02*
D03*
Y5080000D02*
D03*
Y5207000D02*
D03*
Y5334000D02*
D03*
X17983200Y3937000D02*
D03*
Y4064000D02*
D03*
Y4191000D02*
D03*
X18110201D02*
D03*
Y4064000D02*
D03*
Y3937000D02*
D03*
X18237199Y4191000D02*
D03*
Y4064000D02*
D03*
Y3937000D02*
D03*
X18364200Y4953000D02*
D03*
Y4826000D02*
D03*
Y4699000D02*
D03*
Y4572000D02*
D03*
Y4445000D02*
D03*
Y4318000D02*
D03*
Y4191000D02*
D03*
X18491200Y4953000D02*
D03*
Y4826000D02*
D03*
Y4699000D02*
D03*
Y4572000D02*
D03*
Y4445000D02*
D03*
Y4318000D02*
D03*
Y4191000D02*
D03*
X18618201Y3937000D02*
D03*
Y4064000D02*
D03*
X18491200Y3937000D02*
D03*
Y4064000D02*
D03*
X18364200D02*
D03*
Y3937000D02*
D03*
X8051800Y3429000D02*
D03*
Y3556000D02*
D03*
Y3683000D02*
D03*
Y3810000D02*
D03*
Y3937000D02*
D03*
Y4064000D02*
D03*
X8178800D02*
D03*
Y3937000D02*
D03*
Y3810000D02*
D03*
Y3683000D02*
D03*
Y3556000D02*
D03*
Y3429000D02*
D03*
X8305800Y4064000D02*
D03*
Y3937000D02*
D03*
Y3810000D02*
D03*
Y3683000D02*
D03*
Y3556000D02*
D03*
Y3429000D02*
D03*
X8178800Y4191000D02*
D03*
Y4318000D02*
D03*
Y4445000D02*
D03*
Y4572000D02*
D03*
Y4699000D02*
D03*
Y4826000D02*
D03*
Y4953000D02*
D03*
X8051800Y4191000D02*
D03*
Y4318000D02*
D03*
Y4445000D02*
D03*
Y4572000D02*
D03*
Y4699000D02*
D03*
Y4826000D02*
D03*
Y4953000D02*
D03*
X7924800Y3429000D02*
D03*
Y3556000D02*
D03*
Y3683000D02*
D03*
Y3810000D02*
D03*
Y3937000D02*
D03*
Y4064000D02*
D03*
Y4191000D02*
D03*
X7797800Y3429000D02*
D03*
Y3556000D02*
D03*
Y3683000D02*
D03*
Y3810000D02*
D03*
Y3937000D02*
D03*
Y4064000D02*
D03*
Y4191000D02*
D03*
X7670800D02*
D03*
Y4064000D02*
D03*
Y3937000D02*
D03*
Y3810000D02*
D03*
Y3683000D02*
D03*
Y3556000D02*
D03*
Y3429000D02*
D03*
X7924800Y5334000D02*
D03*
Y5207000D02*
D03*
Y5080000D02*
D03*
Y4953000D02*
D03*
Y4826000D02*
D03*
Y4699000D02*
D03*
Y4572000D02*
D03*
Y4445000D02*
D03*
Y4318000D02*
D03*
X7797800Y5334000D02*
D03*
Y5207000D02*
D03*
Y5080000D02*
D03*
Y4953000D02*
D03*
Y4826000D02*
D03*
Y4699000D02*
D03*
Y4572000D02*
D03*
Y4445000D02*
D03*
Y4318000D02*
D03*
X7670800D02*
D03*
Y4445000D02*
D03*
Y4572000D02*
D03*
Y4699000D02*
D03*
Y4826000D02*
D03*
Y4953000D02*
D03*
Y5080000D02*
D03*
Y5207000D02*
D03*
Y5334000D02*
D03*
X9525000Y8534400D02*
D03*
Y8280400D02*
D03*
Y8153400D02*
D03*
Y8407400D02*
D03*
X10541000Y7264400D02*
D03*
X10414000D02*
D03*
X10287000D02*
D03*
X10160000D02*
D03*
X10033000D02*
D03*
X9906000D02*
D03*
Y7391400D02*
D03*
X10033000D02*
D03*
X10160000D02*
D03*
X10287000D02*
D03*
X10414000D02*
D03*
X10541000D02*
D03*
X16306799Y9144000D02*
D03*
X9398000Y8534400D02*
D03*
X9906000Y7645400D02*
D03*
X10033000D02*
D03*
X10160000D02*
D03*
X10287000D02*
D03*
X10414000D02*
D03*
X10541000D02*
D03*
Y7518400D02*
D03*
X10414000D02*
D03*
X10287000D02*
D03*
X10160000D02*
D03*
X10033000D02*
D03*
X9906000D02*
D03*
X9779000D02*
D03*
Y7645400D02*
D03*
X9804400Y7772400D02*
D03*
X9906000D02*
D03*
X10033000D02*
D03*
X10160000D02*
D03*
X10287000D02*
D03*
X10414000D02*
D03*
X10541000D02*
D03*
X10414000Y7899400D02*
D03*
X10289540Y7896860D02*
D03*
X10160000Y7899400D02*
D03*
X10033000D02*
D03*
X9906000D02*
D03*
X9779000D02*
D03*
X9652000Y7518400D02*
D03*
Y7645400D02*
D03*
Y7772400D02*
D03*
Y7899400D02*
D03*
X10541000D02*
D03*
Y8026400D02*
D03*
X10414000D02*
D03*
X10287000D02*
D03*
X10160000D02*
D03*
X10033000D02*
D03*
X9906000D02*
D03*
X9779000D02*
D03*
X9906000Y8153400D02*
D03*
X9779000D02*
D03*
X9652000D02*
D03*
X9906000Y8280400D02*
D03*
X9779000D02*
D03*
X9652000D02*
D03*
Y8407400D02*
D03*
X9779000D02*
D03*
X9906000D02*
D03*
X9652000Y8534400D02*
D03*
X9779000D02*
D03*
X9906000D02*
D03*
X10464800Y6096000D02*
D03*
X10287000Y6197600D02*
D03*
X8559800Y7213600D02*
D03*
Y7112000D02*
D03*
Y7010400D02*
D03*
Y6908800D02*
D03*
Y6604000D02*
D03*
X8610600Y6502400D02*
D03*
Y6400800D02*
D03*
Y6299200D02*
D03*
X8712200D02*
D03*
Y6400800D02*
D03*
X8813800Y6299200D02*
D03*
X8610600Y6197600D02*
D03*
Y6096000D02*
D03*
X8712200D02*
D03*
Y6197600D02*
D03*
X8813800D02*
D03*
Y6096000D02*
D03*
X8915400Y6197600D02*
D03*
Y6096000D02*
D03*
X9017000D02*
D03*
Y6197600D02*
D03*
X9118600D02*
D03*
Y6096000D02*
D03*
X9220200D02*
D03*
Y6197600D02*
D03*
X9321800D02*
D03*
Y6096000D02*
D03*
X9423400D02*
D03*
Y6197600D02*
D03*
X9525000D02*
D03*
Y6096000D02*
D03*
X9626600Y6197600D02*
D03*
Y6096000D02*
D03*
X9728200D02*
D03*
Y6197600D02*
D03*
X9829800D02*
D03*
Y6096000D02*
D03*
X10337800D02*
D03*
X10566400D02*
D03*
X17094200Y7162800D02*
D03*
X16840199D02*
D03*
X16738600D02*
D03*
X16941800Y7264400D02*
D03*
X16738600D02*
D03*
X16840199D02*
D03*
X16941800Y7366000D02*
D03*
X16840199D02*
D03*
X16738600D02*
D03*
Y7569200D02*
D03*
X16840199D02*
D03*
X16941800D02*
D03*
X16637000D02*
D03*
X16535400D02*
D03*
Y7473800D02*
D03*
X16840199D02*
D03*
X16637000D02*
D03*
X16738600D02*
D03*
X16941800D02*
D03*
Y7670800D02*
D03*
X17272000Y8128000D02*
D03*
X17373599Y7874000D02*
D03*
X17475200Y7772400D02*
D03*
Y7874000D02*
D03*
Y7975600D02*
D03*
X17373599D02*
D03*
X17272000Y7924800D02*
D03*
X17475200Y8077200D02*
D03*
X17373599D02*
D03*
X17272000Y8026400D02*
D03*
X17475200Y8178800D02*
D03*
X17373599D02*
D03*
X17195799Y7162800D02*
D03*
X17297400D02*
D03*
X17399001D02*
D03*
X16738600Y7670800D02*
D03*
X16637000D02*
D03*
X16840199D02*
D03*
X16535400D02*
D03*
Y7772400D02*
D03*
X16637000D02*
D03*
X16941800D02*
D03*
X16840199D02*
D03*
X16738600D02*
D03*
X14452600Y6680200D02*
D03*
X14554201D02*
D03*
X14655800D02*
D03*
X14757401D02*
D03*
X14859000D02*
D03*
X15062199D02*
D03*
X14960600D02*
D03*
X15671800D02*
D03*
X15570200D02*
D03*
X15468600D02*
D03*
X15367000D02*
D03*
X15265401D02*
D03*
X15163800D02*
D03*
X16281400D02*
D03*
X16179800D02*
D03*
X16078200D02*
D03*
X15976601D02*
D03*
X15875000D02*
D03*
X15773399D02*
D03*
X16891000D02*
D03*
X16789400D02*
D03*
X16687801D02*
D03*
X16586200D02*
D03*
X16484599D02*
D03*
X16383000D02*
D03*
X16992599D02*
D03*
X17094200D02*
D03*
X17195799D02*
D03*
X17297400D02*
D03*
X17399001D02*
D03*
X17500600D02*
D03*
X16712898Y9090500D02*
D03*
X16687498Y8595200D02*
D03*
X12903200Y9144000D02*
D03*
X13295898Y8592400D02*
D03*
X13321300Y9087700D02*
D03*
X13335001Y7772400D02*
D03*
X13436600D02*
D03*
X13538200D02*
D03*
X13233400D02*
D03*
X13131799D02*
D03*
Y7670800D02*
D03*
X13436600D02*
D03*
X13233400D02*
D03*
X13335001D02*
D03*
X14097000Y7162800D02*
D03*
X13995399D02*
D03*
X13893800D02*
D03*
X13792200D02*
D03*
X13970000Y8178800D02*
D03*
X14071600D02*
D03*
X13868401Y8026400D02*
D03*
X13970000Y8077200D02*
D03*
X14071600D02*
D03*
X13868401Y7924800D02*
D03*
X13970000Y7975600D02*
D03*
X14071600D02*
D03*
Y7874000D02*
D03*
Y7772400D02*
D03*
X13970000Y7874000D02*
D03*
X13868401Y8128000D02*
D03*
X13538200Y7670800D02*
D03*
Y7473800D02*
D03*
X13335001D02*
D03*
X13233400D02*
D03*
X13436600D02*
D03*
X13131799D02*
D03*
X13132001Y7572000D02*
D03*
X13233400Y7569200D02*
D03*
X13538200D02*
D03*
X13436600D02*
D03*
X13335001D02*
D03*
Y7366000D02*
D03*
X13436600D02*
D03*
X13538200D02*
D03*
X13436600Y7264400D02*
D03*
X13335001D02*
D03*
X13538200D02*
D03*
X13335001Y7162800D02*
D03*
X13436600D02*
D03*
X13690601D02*
D03*
X14097000Y6680200D02*
D03*
X13995399D02*
D03*
X13893800D02*
D03*
X13792200D02*
D03*
X13690601D02*
D03*
X13589000D02*
D03*
X11607800Y8051800D02*
D03*
X11709400D02*
D03*
X11607800Y7848600D02*
D03*
Y7950200D02*
D03*
X11811000Y8051800D02*
D03*
X11912600D02*
D03*
X12014200D02*
D03*
X12115800D02*
D03*
X12217400D02*
D03*
X11709400Y7950200D02*
D03*
X12979401Y6680200D02*
D03*
X13081000D02*
D03*
X13182600D02*
D03*
X13284200D02*
D03*
X13385800D02*
D03*
X13487399D02*
D03*
X12369800D02*
D03*
X12471400D02*
D03*
X12573000D02*
D03*
X12674600D02*
D03*
X12776200D02*
D03*
X12877800D02*
D03*
X11760200D02*
D03*
X11861800D02*
D03*
X11963400D02*
D03*
X12065000D02*
D03*
X12166600D02*
D03*
X12268200D02*
D03*
X11557000D02*
D03*
X11658600D02*
D03*
X11455400D02*
D03*
X11353800D02*
D03*
X11252200D02*
D03*
X11150600D02*
D03*
X11049000D02*
D03*
X15621001Y8051800D02*
D03*
X15519400D02*
D03*
X15417799D02*
D03*
X15316200D02*
D03*
X15214600D02*
D03*
X15113000D02*
D03*
X15011400D02*
D03*
Y7950200D02*
D03*
Y7848600D02*
D03*
X15113000Y7950200D02*
D03*
X19685001Y8432800D02*
D03*
Y8305800D02*
D03*
Y8178800D02*
D03*
X19558000D02*
D03*
Y8305800D02*
D03*
Y8432800D02*
D03*
Y8559800D02*
D03*
X19431000D02*
D03*
Y8432800D02*
D03*
Y8305800D02*
D03*
X19303999D02*
D03*
Y8432800D02*
D03*
Y8559800D02*
D03*
X19177000D02*
D03*
X9271000Y8534400D02*
D03*
X9144000D02*
D03*
X9017000D02*
D03*
X8890000D02*
D03*
X9398000Y8407400D02*
D03*
X9271000D02*
D03*
X9144000D02*
D03*
X9017000D02*
D03*
X9398000Y8280400D02*
D03*
Y8153400D02*
D03*
X9271000Y8280400D02*
D03*
X9144000D02*
D03*
X9017000D02*
D03*
X9271000Y8153400D02*
D03*
X13680000Y8561000D02*
D03*
X17071001Y8579000D02*
D03*
X21467999Y7512000D02*
D03*
D75*
X20667979Y10233660D02*
D03*
X13238480D02*
D03*
X3377000Y8967540D02*
D03*
X3389700Y8561000D02*
D03*
X22734200Y8383200D02*
D03*
X22378600Y7923600D02*
D03*
X22708800Y8177600D02*
D03*
X22555200Y6654800D02*
D03*
X22987000Y7823200D02*
D03*
Y7416800D02*
D03*
X23026401Y6262400D02*
D03*
X23018800Y5873801D02*
D03*
X20447000Y4267200D02*
D03*
X20294600D02*
D03*
X20142200D02*
D03*
Y4419600D02*
D03*
Y4572000D02*
D03*
X20294600Y4419600D02*
D03*
Y4572000D02*
D03*
X20447000D02*
D03*
Y4419600D02*
D03*
X19812000Y4267200D02*
D03*
X19634200D02*
D03*
X19456400D02*
D03*
Y4419600D02*
D03*
X19303999D02*
D03*
X19151601D02*
D03*
X19303999Y4267200D02*
D03*
X19456400Y4775200D02*
D03*
X19303999D02*
D03*
X20447000Y4876800D02*
D03*
X20294600D02*
D03*
X20142200D02*
D03*
Y4724400D02*
D03*
X20294600D02*
D03*
X20447000D02*
D03*
Y3962400D02*
D03*
Y4114800D02*
D03*
X20294600D02*
D03*
Y3962400D02*
D03*
X20142200Y4114800D02*
D03*
Y3962400D02*
D03*
X19989799D02*
D03*
X19634200Y4114800D02*
D03*
X19456400Y3962400D02*
D03*
Y4114800D02*
D03*
X19303999D02*
D03*
Y3962400D02*
D03*
X19151601Y4114800D02*
D03*
Y3962400D02*
D03*
X19989799Y4114800D02*
D03*
Y4267200D02*
D03*
X19634200Y3962400D02*
D03*
X19812000D02*
D03*
Y4114800D02*
D03*
X10134600Y3505200D02*
D03*
Y3657600D02*
D03*
X9982200D02*
D03*
Y3505200D02*
D03*
X9829800Y3657600D02*
D03*
Y3505200D02*
D03*
Y3352800D02*
D03*
X9982200D02*
D03*
X10134600D02*
D03*
X9677400Y3505200D02*
D03*
X9321800Y3657600D02*
D03*
X9499600Y3352800D02*
D03*
X9677400D02*
D03*
X9144000Y3505200D02*
D03*
Y3657600D02*
D03*
X8991600D02*
D03*
Y3505200D02*
D03*
X8839200Y3657600D02*
D03*
Y3505200D02*
D03*
Y3352800D02*
D03*
X8991600D02*
D03*
X9144000D02*
D03*
X9677400Y3657600D02*
D03*
X9321800Y3505200D02*
D03*
Y3352800D02*
D03*
X9499600Y3505200D02*
D03*
Y3657600D02*
D03*
Y4114800D02*
D03*
Y3962400D02*
D03*
X9321800Y3810000D02*
D03*
Y3962400D02*
D03*
X9677400Y4267200D02*
D03*
Y4114800D02*
D03*
X9144000Y3810000D02*
D03*
X8991600D02*
D03*
X8839200D02*
D03*
Y3962400D02*
D03*
Y4114800D02*
D03*
X8991600Y3962400D02*
D03*
Y4114800D02*
D03*
X9144000D02*
D03*
Y3962400D02*
D03*
X9677400Y3810000D02*
D03*
X9499600D02*
D03*
X9321800Y4114800D02*
D03*
X9677400Y3962400D02*
D03*
X10134600Y3810000D02*
D03*
X9982200D02*
D03*
X9829800D02*
D03*
Y3962400D02*
D03*
Y4114800D02*
D03*
X9982200Y3962400D02*
D03*
Y4114800D02*
D03*
X10134600D02*
D03*
Y3962400D02*
D03*
Y4724400D02*
D03*
X9982200D02*
D03*
X9829800D02*
D03*
Y4876800D02*
D03*
X9982200D02*
D03*
X10134600D02*
D03*
X10490200Y5511800D02*
D03*
X15595599Y4318000D02*
D03*
X15417799D02*
D03*
X15239999D02*
D03*
X15062199D02*
D03*
X14884399D02*
D03*
X14706599D02*
D03*
X14528799D02*
D03*
X14630400Y4165600D02*
D03*
X14808200D02*
D03*
X14986000D02*
D03*
X15163800D02*
D03*
X15341600D02*
D03*
X14554201Y4013200D02*
D03*
X14732001D02*
D03*
X14909801D02*
D03*
X15087601D02*
D03*
X15265401D02*
D03*
X15443201D02*
D03*
X14782800Y3860800D02*
D03*
X14605000D02*
D03*
X14782800Y3683000D02*
D03*
X14605000D02*
D03*
X14782800Y3505200D02*
D03*
X14605000D02*
D03*
X14528799Y4470400D02*
D03*
Y4622800D02*
D03*
Y4775200D02*
D03*
Y4927600D02*
D03*
Y5080000D02*
D03*
Y5232400D02*
D03*
X14376401Y4318000D02*
D03*
Y4470400D02*
D03*
Y4622800D02*
D03*
Y4775200D02*
D03*
Y4927600D02*
D03*
Y5080000D02*
D03*
Y5232400D02*
D03*
X14478000Y4165600D02*
D03*
X14325600D02*
D03*
X14401801Y4013200D02*
D03*
X14452600Y3860800D02*
D03*
Y3683000D02*
D03*
Y3505200D02*
D03*
X14300200D02*
D03*
Y3683000D02*
D03*
Y3860800D02*
D03*
X14681200Y5232400D02*
D03*
X14833600D02*
D03*
X14681200Y5080000D02*
D03*
X14833600D02*
D03*
Y4927600D02*
D03*
X14681200D02*
D03*
Y4775200D02*
D03*
X14833600D02*
D03*
Y4622800D02*
D03*
X14681200D02*
D03*
Y4470400D02*
D03*
X14833600D02*
D03*
X17678400Y6146800D02*
D03*
X11455400Y4470400D02*
D03*
X11303000D02*
D03*
Y4622800D02*
D03*
X11455400D02*
D03*
Y4775200D02*
D03*
X11303000D02*
D03*
Y4927600D02*
D03*
X11455400D02*
D03*
Y5080000D02*
D03*
X11303000D02*
D03*
X11455400Y5232400D02*
D03*
X11303000D02*
D03*
X10922000Y3860800D02*
D03*
Y3683000D02*
D03*
Y3505200D02*
D03*
X11074400D02*
D03*
Y3683000D02*
D03*
Y3860800D02*
D03*
X11023600Y4013200D02*
D03*
X10947400Y4165600D02*
D03*
X11099800D02*
D03*
X10998200Y5232400D02*
D03*
Y5080000D02*
D03*
Y4927600D02*
D03*
Y4775200D02*
D03*
Y4622800D02*
D03*
Y4470400D02*
D03*
Y4318000D02*
D03*
X11150600Y5232400D02*
D03*
Y5080000D02*
D03*
Y4927600D02*
D03*
Y4775200D02*
D03*
Y4622800D02*
D03*
Y4470400D02*
D03*
X4038600Y2743200D02*
D03*
X10566400D02*
D03*
X16548801Y3533400D02*
D03*
X13970000Y2895600D02*
D03*
X10693400D02*
D03*
X7442200Y3200400D02*
D03*
X10414000Y3022600D02*
D03*
X12852400Y3530600D02*
D03*
X8991600Y4775200D02*
D03*
X9144000D02*
D03*
X8991600Y4267200D02*
D03*
X8839200Y4419600D02*
D03*
X8991600D02*
D03*
X9144000D02*
D03*
Y4267200D02*
D03*
X9321800D02*
D03*
X9499600D02*
D03*
X10134600Y4419600D02*
D03*
Y4572000D02*
D03*
X9982200D02*
D03*
Y4419600D02*
D03*
X9829800Y4572000D02*
D03*
Y4419600D02*
D03*
Y4267200D02*
D03*
X9982200D02*
D03*
X10134600D02*
D03*
X18135600Y8356600D02*
D03*
X10541000Y9634220D02*
D03*
X15075600Y8588000D02*
D03*
X16303999Y8313800D02*
D03*
X16156700Y7541400D02*
D03*
X16091600Y4041400D02*
D03*
Y3889000D02*
D03*
Y3736600D02*
D03*
Y3584200D02*
D03*
X16244000Y3533400D02*
D03*
X16396400D02*
D03*
X16701199Y4041400D02*
D03*
X16878999D02*
D03*
X16701199Y3889000D02*
D03*
X16878999D02*
D03*
X16701199Y3736600D02*
D03*
Y3584200D02*
D03*
X11226800Y3505200D02*
D03*
X11404600D02*
D03*
X11226800Y3683000D02*
D03*
X11404600D02*
D03*
X11226800Y3860800D02*
D03*
X11404600D02*
D03*
X13309599Y3581400D02*
D03*
X13487399D02*
D03*
X13157201Y3530600D02*
D03*
X13309599Y3733800D02*
D03*
X13487399D02*
D03*
Y3886200D02*
D03*
X13309599D02*
D03*
X13487399Y4038600D02*
D03*
X13309599D02*
D03*
X13004800Y3530600D02*
D03*
X12700000Y3581400D02*
D03*
Y3733800D02*
D03*
Y3886200D02*
D03*
Y4038600D02*
D03*
X12065000Y4013200D02*
D03*
X11887200D02*
D03*
X11709400D02*
D03*
X11531600D02*
D03*
X11353800D02*
D03*
X11176000D02*
D03*
X11963400Y4165600D02*
D03*
X11785600D02*
D03*
X11607800D02*
D03*
X11430000D02*
D03*
X11252200D02*
D03*
X11150600Y4318000D02*
D03*
X11328400D02*
D03*
X11506200D02*
D03*
X11684000D02*
D03*
X11861800D02*
D03*
X12039600D02*
D03*
X12217400D02*
D03*
X12765100Y7538600D02*
D03*
X12912399Y8311000D02*
D03*
X11684000Y8585200D02*
D03*
X20142200Y9804400D02*
D03*
X8269000Y7753401D02*
D03*
X7366000Y5588000D02*
D03*
X7289800Y6045200D02*
D03*
X19227800Y8128000D02*
D03*
X8966200Y8128000D02*
D03*
X5026000Y6525000D02*
D03*
X3659000Y5952000D02*
D03*
X3471200Y9919400D02*
D03*
X4355000Y6565000D02*
D03*
X3055000Y6569000D02*
D03*
X5283000Y6512000D02*
D03*
X4623000Y8695000D02*
D03*
X4181000Y6566000D02*
D03*
X4188000Y6049000D02*
D03*
X4511000Y6135000D02*
D03*
X4862000Y6143000D02*
D03*
X5147000Y6282000D02*
D03*
X4357000Y6401000D02*
D03*
D76*
X11709400Y9804400D02*
D03*
X15113000Y9779000D02*
D03*
X9347200Y9677400D02*
D03*
X19608800Y9702800D02*
D03*
D77*
X15016499Y9358100D02*
D03*
X11624900Y9355300D02*
D03*
X19898360Y9507220D02*
D03*
X9611360D02*
D03*
D78*
X21255000Y7515000D02*
D03*
D79*
X4843400Y8842800D02*
D03*
X4825000Y8955000D02*
D03*
X4666400Y8168800D02*
D03*
X4406000Y8166000D02*
D03*
X4492000Y8161000D02*
D03*
X4576000Y8151000D02*
D03*
X5061400Y8201800D02*
D03*
X5148400Y8379800D02*
D03*
X5058400Y9306800D02*
D03*
X4505400Y9358800D02*
D03*
X5144400Y9114800D02*
D03*
X5285400Y8951800D02*
D03*
X5288400Y8647800D02*
D03*
X3451000Y7970000D02*
D03*
D80*
X4844400Y7863800D02*
D03*
X4862400Y7751800D02*
D03*
X4274400Y9133800D02*
D03*
%TF.MD5,d9ca7001b361e367e6f58aac6b6f5376*%
M02*
