G04 Layer_Color=8388736*
%FSLAX45Y45*%
%MOMM*%
%TF.FileFunction,Soldermask,Top*%
%TF.Part,Single*%
G01*
G75*
%TA.AperFunction,SMDPad,CuDef*%
%ADD99R,2.70160X1.20160*%
%ADD100O,1.75160X0.75160*%
%ADD101R,1.75160X0.75160*%
%ADD102R,1.80160X1.20160*%
%ADD103R,1.52400X3.12420*%
%ADD104O,1.50160X0.90160*%
%ADD105R,1.50160X0.90160*%
%ADD106R,1.00160X0.80160*%
%ADD107R,0.90160X1.00160*%
%ADD108R,0.80160X1.00160*%
%ADD109R,1.20160X2.70160*%
%ADD110R,3.09880X2.36220*%
%ADD111R,0.86360X1.24460*%
%ADD112R,1.90160X2.20160*%
%ADD113R,1.27160X1.98160*%
%ADD114R,1.30160X1.30160*%
%ADD115R,3.20160X4.10160*%
%ADD116R,1.49160X1.50160*%
%ADD117R,3.46160X4.96160*%
%ADD118R,3.30160X1.90160*%
%ADD119R,1.50160X1.20160*%
%ADD120R,1.10160X0.65160*%
%ADD121O,1.10160X0.65160*%
%ADD122R,1.00160X0.90160*%
%ADD123R,3.40160X1.50160*%
%ADD124R,2.10160X3.60160*%
%ADD125R,3.60160X2.10160*%
%ADD126R,4.10160X3.20160*%
%ADD127R,0.65160X1.10160*%
%ADD128O,0.65160X1.10160*%
%ADD129R,1.20160X1.50160*%
%ADD130O,1.75160X0.40160*%
%ADD131R,1.37160X3.15160*%
%ADD132R,1.30160X0.75160*%
%ADD133R,0.70160X0.70160*%
%ADD134R,2.26060X2.84460*%
%ADD135R,1.35160X1.05160*%
%ADD136R,1.40160X4.85160*%
%ADD137O,0.65160X1.75160*%
%ADD138O,1.75160X0.65160*%
%ADD139R,0.81280X2.10820*%
%ADD140R,1.60160X2.10160*%
%ADD141R,3.90160X2.10160*%
%ADD142R,1.32080X1.32080*%
%ADD143R,5.70160X2.40160*%
%ADD144R,2.36160X2.26160*%
%TA.AperFunction,ViaPad*%
%ADD145C,1.62560*%
%TA.AperFunction,ComponentPad*%
%ADD146C,1.62560*%
%ADD147C,2.90160*%
G04:AMPARAMS|DCode=148|XSize=1.6764mm|YSize=1.6764mm|CornerRadius=0mm|HoleSize=0mm|Usage=FLASHONLY|Rotation=90.000|XOffset=0mm|YOffset=0mm|HoleType=Round|Shape=Octagon|*
%AMOCTAGOND148*
4,1,8,0.41910,0.83820,-0.41910,0.83820,-0.83820,0.41910,-0.83820,-0.41910,-0.41910,-0.83820,0.41910,-0.83820,0.83820,-0.41910,0.83820,0.41910,0.41910,0.83820,0.0*
%
%ADD148OCTAGOND148*%

%ADD149C,1.70160*%
%ADD150C,1.80160*%
%TA.AperFunction,ViaPad*%
%ADD151C,2.70160*%
%ADD152C,1.05160*%
%ADD153C,1.37160*%
%ADD154C,0.77360*%
%ADD155C,0.86360*%
%ADD156C,1.00160*%
%ADD157C,0.73660*%
%ADD158C,0.80160*%
G36*
X13597597Y8354607D02*
X13598553Y8354316D01*
X13599435Y8353844D01*
X13600211Y8353210D01*
X13600844Y8352436D01*
X13601315Y8351554D01*
X13601607Y8350596D01*
X13601704Y8349600D01*
Y7879600D01*
X13601607Y7878604D01*
X13601315Y7877646D01*
X13600844Y7876764D01*
X13600211Y7875990D01*
X13599435Y7875356D01*
X13598553Y7874884D01*
X13597597Y7874593D01*
X13596600Y7874495D01*
X13096600D01*
X13095604Y7874593D01*
X13094646Y7874884D01*
X13093764Y7875356D01*
X13092990Y7875990D01*
X13092355Y7876764D01*
X13091884Y7877646D01*
X13091592Y7878604D01*
X13091495Y7879600D01*
Y7949600D01*
X13091592Y7950596D01*
X13091884Y7951554D01*
X13092355Y7952436D01*
X13092990Y7953210D01*
X13093764Y7953844D01*
X13094646Y7954316D01*
X13095604Y7954607D01*
X13096600Y7954705D01*
X13141495D01*
Y8007995D01*
X13096600D01*
X13095604Y8008093D01*
X13094646Y8008384D01*
X13093764Y8008856D01*
X13092990Y8009490D01*
X13092355Y8010264D01*
X13091884Y8011147D01*
X13091592Y8012104D01*
X13091495Y8013100D01*
Y8083100D01*
X13091592Y8084096D01*
X13091884Y8085053D01*
X13092355Y8085936D01*
X13092990Y8086710D01*
X13093764Y8087344D01*
X13094646Y8087816D01*
X13095604Y8088107D01*
X13096600Y8088205D01*
X13141495D01*
Y8140995D01*
X13096600D01*
X13095604Y8141093D01*
X13094646Y8141384D01*
X13093764Y8141856D01*
X13092990Y8142490D01*
X13092355Y8143264D01*
X13091884Y8144147D01*
X13091592Y8145104D01*
X13091495Y8146100D01*
Y8216100D01*
X13091592Y8217096D01*
X13091884Y8218053D01*
X13092355Y8218936D01*
X13092990Y8219709D01*
X13093764Y8220344D01*
X13094646Y8220816D01*
X13095604Y8221106D01*
X13096600Y8221205D01*
X13141495D01*
Y8274495D01*
X13096600D01*
X13095604Y8274593D01*
X13094646Y8274884D01*
X13093764Y8275356D01*
X13092990Y8275990D01*
X13092355Y8276764D01*
X13091884Y8277646D01*
X13091592Y8278604D01*
X13091495Y8279600D01*
Y8349600D01*
X13091592Y8350596D01*
X13091884Y8351554D01*
X13092355Y8352436D01*
X13092990Y8353210D01*
X13093764Y8353844D01*
X13094646Y8354316D01*
X13095604Y8354607D01*
X13096600Y8354705D01*
X13596600D01*
X13597597Y8354607D01*
D02*
G37*
G36*
X16989195Y8357407D02*
X16990154Y8357116D01*
X16991035Y8356644D01*
X16991809Y8356010D01*
X16992444Y8355236D01*
X16992915Y8354354D01*
X16993205Y8353396D01*
X16993304Y8352400D01*
Y7882400D01*
X16993205Y7881404D01*
X16992915Y7880447D01*
X16992444Y7879564D01*
X16991809Y7878790D01*
X16991035Y7878156D01*
X16990154Y7877684D01*
X16989195Y7877393D01*
X16988200Y7877295D01*
X16488200D01*
X16487204Y7877393D01*
X16486246Y7877684D01*
X16485364Y7878156D01*
X16484590Y7878790D01*
X16483955Y7879564D01*
X16483484Y7880447D01*
X16483192Y7881404D01*
X16483095Y7882400D01*
Y7952400D01*
X16483192Y7953396D01*
X16483484Y7954354D01*
X16483955Y7955236D01*
X16484590Y7956010D01*
X16485364Y7956644D01*
X16486246Y7957116D01*
X16487204Y7957407D01*
X16488200Y7957505D01*
X16533095D01*
Y8010796D01*
X16488200D01*
X16487204Y8010894D01*
X16486246Y8011184D01*
X16485364Y8011656D01*
X16484590Y8012291D01*
X16483955Y8013064D01*
X16483484Y8013947D01*
X16483192Y8014904D01*
X16483095Y8015900D01*
Y8085900D01*
X16483192Y8086896D01*
X16483484Y8087854D01*
X16483955Y8088736D01*
X16484590Y8089510D01*
X16485364Y8090144D01*
X16486246Y8090616D01*
X16487204Y8090907D01*
X16488200Y8091005D01*
X16533095D01*
Y8143795D01*
X16488200D01*
X16487204Y8143894D01*
X16486246Y8144184D01*
X16485364Y8144656D01*
X16484590Y8145291D01*
X16483955Y8146064D01*
X16483484Y8146947D01*
X16483192Y8147904D01*
X16483095Y8148900D01*
Y8218900D01*
X16483192Y8219896D01*
X16483484Y8220854D01*
X16483955Y8221736D01*
X16484590Y8222510D01*
X16485364Y8223144D01*
X16486246Y8223616D01*
X16487204Y8223907D01*
X16488200Y8224005D01*
X16533095D01*
Y8277295D01*
X16488200D01*
X16487204Y8277393D01*
X16486246Y8277684D01*
X16485364Y8278156D01*
X16484590Y8278790D01*
X16483955Y8279564D01*
X16483484Y8280446D01*
X16483192Y8281404D01*
X16483095Y8282400D01*
Y8352400D01*
X16483192Y8353396D01*
X16483484Y8354354D01*
X16483955Y8355236D01*
X16484590Y8356010D01*
X16485364Y8356644D01*
X16486246Y8357116D01*
X16487204Y8357407D01*
X16488200Y8357505D01*
X16988200D01*
X16989195Y8357407D01*
D02*
G37*
D99*
X14020000Y7069199D02*
D03*
Y6799200D02*
D03*
X17399001Y7069200D02*
D03*
Y6799200D02*
D03*
X16305000Y3356000D02*
D03*
Y3086000D02*
D03*
X17775000Y3371000D02*
D03*
Y3101000D02*
D03*
X18094000Y3368000D02*
D03*
Y3098000D02*
D03*
X18413000Y3371000D02*
D03*
Y3101000D02*
D03*
X8760000Y2118000D02*
D03*
Y1848000D02*
D03*
X9057000Y2115000D02*
D03*
Y1845000D02*
D03*
X9357000Y2116000D02*
D03*
Y1846000D02*
D03*
X13702600Y7074400D02*
D03*
Y6804400D02*
D03*
X17094200Y7069200D02*
D03*
Y6799200D02*
D03*
D100*
X19615421Y10619740D02*
D03*
Y10365740D02*
D03*
Y10111740D02*
D03*
X20505420Y10619740D02*
D03*
Y10365740D02*
D03*
X12147820Y10589260D02*
D03*
Y10335260D02*
D03*
Y10081260D02*
D03*
X13037820Y10589260D02*
D03*
Y10335260D02*
D03*
D101*
X20505420Y10111740D02*
D03*
X13037820Y10081260D02*
D03*
D102*
X15239999Y7882001D02*
D03*
Y7611999D02*
D03*
X11836400Y7882001D02*
D03*
Y7611999D02*
D03*
X10453400Y6466002D02*
D03*
Y6196000D02*
D03*
X20740401Y6466002D02*
D03*
Y6196000D02*
D03*
X12065000Y7882001D02*
D03*
Y7611999D02*
D03*
X13885100Y7780601D02*
D03*
Y7510599D02*
D03*
X17276700Y7783401D02*
D03*
Y7513399D02*
D03*
X15468600Y7882001D02*
D03*
Y7611999D02*
D03*
D103*
X5472000Y5704000D02*
D03*
Y6185300D02*
D03*
X3860800Y5373400D02*
D03*
Y5854700D02*
D03*
D104*
X22864047Y7293916D02*
D03*
Y7420916D02*
D03*
Y7547916D02*
D03*
Y7674916D02*
D03*
X22364047Y7293916D02*
D03*
Y7420916D02*
D03*
Y7547916D02*
D03*
X22891399Y5746801D02*
D03*
Y5873801D02*
D03*
Y6000801D02*
D03*
Y6127801D02*
D03*
X22391400Y5746801D02*
D03*
Y5873801D02*
D03*
Y6000801D02*
D03*
D105*
X22364047Y7674916D02*
D03*
X22391400Y6127801D02*
D03*
D106*
X23012399Y7720400D02*
D03*
Y7570400D02*
D03*
X23026401Y6002001D02*
D03*
Y6152001D02*
D03*
X9131300Y8035220D02*
D03*
Y8185220D02*
D03*
X9234201Y7043401D02*
D03*
Y7193401D02*
D03*
X19395441Y8032680D02*
D03*
Y8182680D02*
D03*
X19521201Y7043401D02*
D03*
Y7193401D02*
D03*
X7636000Y2598000D02*
D03*
Y2748000D02*
D03*
X3022600Y3707200D02*
D03*
Y3557200D02*
D03*
X13174699Y9123999D02*
D03*
Y9273998D02*
D03*
X13035001Y9273999D02*
D03*
Y9123999D02*
D03*
X12546900Y8947200D02*
D03*
Y9097200D02*
D03*
X12724700Y8223300D02*
D03*
Y8373300D02*
D03*
X16116299Y8226100D02*
D03*
Y8376100D02*
D03*
X15938499Y8950000D02*
D03*
Y9100000D02*
D03*
X16426601Y9276799D02*
D03*
Y9126799D02*
D03*
X16566299Y9126799D02*
D03*
Y9276799D02*
D03*
X21763000Y7263000D02*
D03*
Y7143000D02*
D03*
D107*
X22092801Y6127801D02*
D03*
X22232800D02*
D03*
X22065448Y7674916D02*
D03*
X22205447D02*
D03*
X11587200Y9220200D02*
D03*
X11727200D02*
D03*
X12401400Y8839200D02*
D03*
X12541400D02*
D03*
X12794700Y8946000D02*
D03*
X12654700D02*
D03*
X12795400Y9067800D02*
D03*
X12655400D02*
D03*
X16199001D02*
D03*
X16059000D02*
D03*
X16199001Y8940800D02*
D03*
X16059000D02*
D03*
X15779601Y8813800D02*
D03*
X15919600D02*
D03*
X14978799Y9223000D02*
D03*
X15118800D02*
D03*
X5427000Y8545000D02*
D03*
X5287000D02*
D03*
X5280003Y8752000D02*
D03*
X5420002D02*
D03*
X2926000Y6785002D02*
D03*
X2786000D02*
D03*
D108*
X3311997Y9734393D02*
D03*
X3462000D02*
D03*
X13968800Y5537200D02*
D03*
X13818800D02*
D03*
X9080602Y7033946D02*
D03*
X8930599D02*
D03*
X9360001Y7753401D02*
D03*
X9210001D02*
D03*
X9108401Y9531401D02*
D03*
X9258401D02*
D03*
X8801202Y7033946D02*
D03*
X8651199D02*
D03*
X19367603D02*
D03*
X19217599D02*
D03*
X19647002Y7753401D02*
D03*
X19497002D02*
D03*
X19395401Y9506001D02*
D03*
X19545401D02*
D03*
X19088202Y7033946D02*
D03*
X18938199D02*
D03*
X17227000Y3962000D02*
D03*
X17077000D02*
D03*
X2947600Y3048000D02*
D03*
X3097600D02*
D03*
X3176200Y4343400D02*
D03*
X3326200D02*
D03*
X3227000Y9098280D02*
D03*
X3377000D02*
D03*
X3239700Y8427720D02*
D03*
X3389700D02*
D03*
X11966600Y9622000D02*
D03*
X11816600D02*
D03*
X13352100Y8895800D02*
D03*
X13502100D02*
D03*
X12408400Y8552300D02*
D03*
X12558400D02*
D03*
X12521000Y8686800D02*
D03*
X12371000D02*
D03*
X15924600D02*
D03*
X15774600D02*
D03*
X15800000Y8555100D02*
D03*
X15950000D02*
D03*
X16743700Y8898600D02*
D03*
X16893700D02*
D03*
X15358199Y9624800D02*
D03*
X15208199D02*
D03*
X21677000Y7668000D02*
D03*
X21557001D02*
D03*
X21682001Y7507000D02*
D03*
X21562000D02*
D03*
X21677000Y7814000D02*
D03*
X21557001D02*
D03*
X4064001Y8198000D02*
D03*
X3913999D02*
D03*
X5530000Y8285000D02*
D03*
X5380000D02*
D03*
X2781001Y6632000D02*
D03*
X2930998D02*
D03*
D109*
X8540399Y8007401D02*
D03*
X8810401D02*
D03*
X8694800Y4826000D02*
D03*
X8424798D02*
D03*
X8683401Y4527601D02*
D03*
X8413399D02*
D03*
X18813399Y8001000D02*
D03*
X19083400D02*
D03*
X18970401Y4832401D02*
D03*
X18700398D02*
D03*
X18970401Y4527601D02*
D03*
X18700398D02*
D03*
X8694000Y3128000D02*
D03*
X8424000D02*
D03*
X12263400Y3676100D02*
D03*
X12533400D02*
D03*
X12263400Y4006300D02*
D03*
X12533400D02*
D03*
X15654999Y4009100D02*
D03*
X15924998D02*
D03*
X15654999Y3678900D02*
D03*
X15924998D02*
D03*
X19083400Y8331200D02*
D03*
X18813400D02*
D03*
X8810400Y8305800D02*
D03*
X8540400D02*
D03*
D110*
X8865900Y7493051D02*
D03*
X19152901D02*
D03*
D111*
X8675400Y7232701D02*
D03*
X8802400D02*
D03*
X8929400D02*
D03*
X9056400D02*
D03*
X8675400Y7753401D02*
D03*
X8802400D02*
D03*
X8929400D02*
D03*
X9056400D02*
D03*
X18962399Y7232701D02*
D03*
X19089400D02*
D03*
X19216400D02*
D03*
X19343401D02*
D03*
X18962399Y7753401D02*
D03*
X19089400D02*
D03*
X19216400D02*
D03*
X19343401D02*
D03*
D112*
X9640600Y6771401D02*
D03*
Y7211400D02*
D03*
X19927600Y6771401D02*
D03*
Y7211400D02*
D03*
D113*
X9179403Y5107803D02*
D03*
X8931402D02*
D03*
X8683401D02*
D03*
X8435401D02*
D03*
X8187400D02*
D03*
X9179403Y6743802D02*
D03*
X8931402D02*
D03*
X8683401D02*
D03*
X8435401D02*
D03*
X8187400D02*
D03*
X19466403Y5107803D02*
D03*
X19218402D02*
D03*
X18970401D02*
D03*
X18722401D02*
D03*
X18474400D02*
D03*
X19466403Y6743802D02*
D03*
X19218402D02*
D03*
X18970401D02*
D03*
X18722401D02*
D03*
X18474400D02*
D03*
D114*
X8408401Y4273601D02*
D03*
X8688400D02*
D03*
X18695401D02*
D03*
X18975400D02*
D03*
X12258400Y3396700D02*
D03*
X12538400D02*
D03*
X15650000Y3399500D02*
D03*
X15929999D02*
D03*
D115*
X9268201Y8947201D02*
D03*
X9708200D02*
D03*
X19555202D02*
D03*
X19995200D02*
D03*
D116*
X9421602Y5078202D02*
D03*
X9605599D02*
D03*
X19708601D02*
D03*
X19892599D02*
D03*
X12928700Y4302900D02*
D03*
X13112700D02*
D03*
X16320299Y4305700D02*
D03*
X16504298D02*
D03*
D117*
X9513600Y4680001D02*
D03*
X19800600D02*
D03*
X13020700Y3904700D02*
D03*
X16412299Y3907500D02*
D03*
D118*
X10072400Y6158403D02*
D03*
Y6808399D02*
D03*
X20359399Y6158403D02*
D03*
Y6808399D02*
D03*
D119*
X10428000Y7142602D02*
D03*
Y6992600D02*
D03*
X20714999Y7142602D02*
D03*
Y6992600D02*
D03*
D120*
X9623201Y9309400D02*
D03*
Y9499402D02*
D03*
X9353199Y9309400D02*
D03*
Y9404401D02*
D03*
X19910201Y9309400D02*
D03*
Y9499402D02*
D03*
X19640199Y9309400D02*
D03*
Y9404401D02*
D03*
D121*
X9353199Y9499402D02*
D03*
X19640199D02*
D03*
D122*
X8940800Y7880200D02*
D03*
Y8020200D02*
D03*
X9767601Y9359801D02*
D03*
Y9499801D02*
D03*
X19227800Y7880200D02*
D03*
Y8020200D02*
D03*
X20054601Y9359801D02*
D03*
Y9499801D02*
D03*
X4909000Y5449000D02*
D03*
Y5589000D02*
D03*
D123*
X10998200Y6033000D02*
D03*
Y6413000D02*
D03*
X14427200Y6033000D02*
D03*
Y6413000D02*
D03*
D124*
X17367000Y3514000D02*
D03*
X16877000D02*
D03*
D125*
X8012000Y2333000D02*
D03*
Y2823000D02*
D03*
D126*
X11174600Y9719601D02*
D03*
Y9279601D02*
D03*
X14566199Y9722401D02*
D03*
Y9282402D02*
D03*
D127*
X11536799Y9364600D02*
D03*
X11726801D02*
D03*
X11536799Y9634602D02*
D03*
X11631800D02*
D03*
X14928398Y9367400D02*
D03*
X15118401D02*
D03*
X14928398Y9637402D02*
D03*
X15023399D02*
D03*
D128*
X11726801Y9634602D02*
D03*
X15118401Y9637402D02*
D03*
D129*
X13561002Y8483600D02*
D03*
X13410999D02*
D03*
X12394001Y7874000D02*
D03*
X12243999D02*
D03*
X13574400Y8692000D02*
D03*
X13424400D02*
D03*
X16966000Y8694800D02*
D03*
X16816000D02*
D03*
X15797601Y7874000D02*
D03*
X15647598D02*
D03*
X16952602Y8486400D02*
D03*
X16802599D02*
D03*
D130*
X12733100Y8828900D02*
D03*
Y8778900D02*
D03*
Y8728900D02*
D03*
Y8678900D02*
D03*
Y8578900D02*
D03*
Y8478900D02*
D03*
X13148100Y8828900D02*
D03*
Y8778900D02*
D03*
Y8728900D02*
D03*
Y8678900D02*
D03*
Y8578900D02*
D03*
Y8478900D02*
D03*
X16124699Y8831700D02*
D03*
Y8781700D02*
D03*
Y8731700D02*
D03*
Y8681700D02*
D03*
Y8581700D02*
D03*
Y8481700D02*
D03*
X16539700Y8831700D02*
D03*
Y8781700D02*
D03*
Y8731700D02*
D03*
Y8681700D02*
D03*
Y8581700D02*
D03*
Y8481700D02*
D03*
D131*
X11657200Y4597400D02*
D03*
X11957200D02*
D03*
X12257200D02*
D03*
X12557200D02*
D03*
X12857201D02*
D03*
X13157201D02*
D03*
X11657200Y7249400D02*
D03*
X11957200D02*
D03*
X12257200D02*
D03*
X12557200D02*
D03*
X12857201D02*
D03*
X13157201D02*
D03*
X15048801Y4600200D02*
D03*
X15348801D02*
D03*
X15648801D02*
D03*
X15948801D02*
D03*
X16248801D02*
D03*
X16548801D02*
D03*
X15048801Y7252200D02*
D03*
X15348801D02*
D03*
X15648801D02*
D03*
X15948801D02*
D03*
X16248801D02*
D03*
X16548801D02*
D03*
D132*
X13721600Y7924100D02*
D03*
Y8051100D02*
D03*
Y8178100D02*
D03*
Y8305100D02*
D03*
X13159700Y8315260D02*
D03*
Y8180640D02*
D03*
Y8048560D02*
D03*
Y7913940D02*
D03*
X17113200Y7926900D02*
D03*
Y8053900D02*
D03*
Y8180900D02*
D03*
Y8307900D02*
D03*
X16551300Y8318060D02*
D03*
Y8183440D02*
D03*
Y8051360D02*
D03*
Y7916740D02*
D03*
D133*
X13025101Y7747600D02*
D03*
X12805099D02*
D03*
X16416701Y7750400D02*
D03*
X16196700D02*
D03*
D134*
X3690600Y6324600D02*
D03*
X4132600D02*
D03*
D135*
X22434500Y2087000D02*
D03*
X22909500Y1887000D02*
D03*
Y2087000D02*
D03*
X22434500Y1887000D02*
D03*
X22576500Y4565000D02*
D03*
X23051500Y4365000D02*
D03*
Y4565000D02*
D03*
X22576500Y4365000D02*
D03*
D136*
X21582001Y9604500D02*
D03*
Y10499500D02*
D03*
D137*
X4424000Y9174000D02*
D03*
X4504000D02*
D03*
X4584000D02*
D03*
X4664000D02*
D03*
X4744000D02*
D03*
X4824000D02*
D03*
X4904000D02*
D03*
X4984000D02*
D03*
Y8334000D02*
D03*
X4904000D02*
D03*
X4824000D02*
D03*
X4744000D02*
D03*
X4664000D02*
D03*
X4584000D02*
D03*
X4504000D02*
D03*
X4424000D02*
D03*
D138*
X5124000Y9034000D02*
D03*
Y8954000D02*
D03*
Y8874000D02*
D03*
Y8794000D02*
D03*
Y8714000D02*
D03*
Y8634000D02*
D03*
Y8554000D02*
D03*
Y8474000D02*
D03*
X4284000D02*
D03*
Y8554000D02*
D03*
Y8634000D02*
D03*
Y8714000D02*
D03*
Y8794000D02*
D03*
Y8874000D02*
D03*
Y8954000D02*
D03*
Y9034000D02*
D03*
D139*
X3887400Y8000000D02*
D03*
X3989000D02*
D03*
X4089000D02*
D03*
D140*
X4462000Y5820000D02*
D03*
X4692000D02*
D03*
X4922000D02*
D03*
D141*
X4692000Y6450000D02*
D03*
D142*
X5321318Y8123005D02*
D03*
X5532996D02*
D03*
D143*
X10321802Y8987001D02*
D03*
Y8247001D02*
D03*
X20608801Y8987001D02*
D03*
Y8247001D02*
D03*
X11174000Y8847000D02*
D03*
Y8107000D02*
D03*
X14575999Y8841000D02*
D03*
Y8101000D02*
D03*
D144*
X22581000Y10405000D02*
D03*
Y9915000D02*
D03*
D145*
X7924800Y8864600D02*
D03*
Y9144000D02*
D03*
D146*
X23749001Y9937000D02*
D03*
Y9683000D02*
D03*
Y9429000D02*
D03*
Y9175000D02*
D03*
Y8921000D02*
D03*
Y8667000D02*
D03*
Y8413000D02*
D03*
Y8159000D02*
D03*
Y7905000D02*
D03*
Y7651000D02*
D03*
Y7397000D02*
D03*
Y7143000D02*
D03*
Y6889000D02*
D03*
Y6635000D02*
D03*
Y6381000D02*
D03*
Y6127000D02*
D03*
Y5873000D02*
D03*
Y5619000D02*
D03*
Y5365000D02*
D03*
Y5111000D02*
D03*
Y4857000D02*
D03*
Y4603000D02*
D03*
Y4349000D02*
D03*
Y4095000D02*
D03*
Y3841000D02*
D03*
Y3587000D02*
D03*
Y3333000D02*
D03*
Y3079000D02*
D03*
Y2825000D02*
D03*
Y2571000D02*
D03*
Y2317000D02*
D03*
Y2063000D02*
D03*
X23241000Y9937000D02*
D03*
Y9683000D02*
D03*
Y9429000D02*
D03*
Y9175000D02*
D03*
Y8921000D02*
D03*
Y8667000D02*
D03*
Y8413000D02*
D03*
Y8159000D02*
D03*
Y7905000D02*
D03*
Y7651000D02*
D03*
Y7397000D02*
D03*
Y7143000D02*
D03*
Y6889000D02*
D03*
Y6635000D02*
D03*
Y6381000D02*
D03*
Y6127000D02*
D03*
Y5873000D02*
D03*
Y5619000D02*
D03*
Y5365000D02*
D03*
Y5111000D02*
D03*
Y4857000D02*
D03*
Y4603000D02*
D03*
Y4349000D02*
D03*
Y4095000D02*
D03*
Y3841000D02*
D03*
Y3587000D02*
D03*
Y3333000D02*
D03*
Y3079000D02*
D03*
Y2825000D02*
D03*
Y2571000D02*
D03*
Y2317000D02*
D03*
Y2063000D02*
D03*
X2847300Y5218600D02*
D03*
Y5668600D02*
D03*
D147*
X24003000Y10445000D02*
D03*
Y1555000D02*
D03*
D148*
X2336801Y7289800D02*
D03*
X2590801D02*
D03*
Y7035800D02*
D03*
X2336801D02*
D03*
Y6781800D02*
D03*
X2590801D02*
D03*
X2336801Y6527800D02*
D03*
X2590801D02*
D03*
X2336801Y6273800D02*
D03*
X2590801D02*
D03*
D149*
X2492400Y2692400D02*
D03*
Y2438400D02*
D03*
Y3327400D02*
D03*
Y3073400D02*
D03*
Y3962400D02*
D03*
Y3708400D02*
D03*
Y4597400D02*
D03*
Y4343400D02*
D03*
Y9093200D02*
D03*
Y8839200D02*
D03*
Y8432800D02*
D03*
Y8178800D02*
D03*
Y9474200D02*
D03*
Y9728200D02*
D03*
D150*
X3096300Y5794100D02*
D03*
Y5093100D02*
D03*
D151*
X2557000Y10444400D02*
D03*
Y1554900D02*
D03*
D152*
X17500600Y7162800D02*
D03*
X8331200Y10566400D02*
D03*
Y10464800D02*
D03*
Y10363200D02*
D03*
X8432800D02*
D03*
Y10464800D02*
D03*
Y10566400D02*
D03*
X13690601Y10236200D02*
D03*
Y10337800D02*
D03*
Y10439400D02*
D03*
X13589000Y10337800D02*
D03*
Y10439400D02*
D03*
Y10236200D02*
D03*
X22199600Y5638800D02*
D03*
X22301199D02*
D03*
X22402800D02*
D03*
X20751801Y6121400D02*
D03*
X16891000Y6807200D02*
D03*
Y6934200D02*
D03*
X16383000Y6807200D02*
D03*
X16484599D02*
D03*
X16586200D02*
D03*
X16687801D02*
D03*
X16789400D02*
D03*
X15773399D02*
D03*
X15875000D02*
D03*
X15976601D02*
D03*
X16078200D02*
D03*
X16179800D02*
D03*
X16281400D02*
D03*
X15163800D02*
D03*
X15265401D02*
D03*
X15367000D02*
D03*
X15468600D02*
D03*
X15570200D02*
D03*
X15671800D02*
D03*
X14960600D02*
D03*
X15062199D02*
D03*
X14859000D02*
D03*
X14757401D02*
D03*
X14655800D02*
D03*
X14554201D02*
D03*
X14452600D02*
D03*
X16383000Y6934200D02*
D03*
X16484599D02*
D03*
X16586200D02*
D03*
X16687801D02*
D03*
X16789400D02*
D03*
X15773399D02*
D03*
X15875000D02*
D03*
X15976601D02*
D03*
X16078200D02*
D03*
X16179800D02*
D03*
X16281400D02*
D03*
X15163800D02*
D03*
X15265401D02*
D03*
X15367000D02*
D03*
X15468600D02*
D03*
X15570200D02*
D03*
X15671800D02*
D03*
X14960600D02*
D03*
X15062199D02*
D03*
X14859000D02*
D03*
X14757401D02*
D03*
X14655800D02*
D03*
X14554201D02*
D03*
X14452600D02*
D03*
X11049000D02*
D03*
X11150600D02*
D03*
X11252200D02*
D03*
X11353800D02*
D03*
X11455400D02*
D03*
X11658600D02*
D03*
X11557000D02*
D03*
X12268200D02*
D03*
X12166600D02*
D03*
X12065000D02*
D03*
X11963400D02*
D03*
X11861800D02*
D03*
X11760200D02*
D03*
X12877800D02*
D03*
X12776200D02*
D03*
X12674600D02*
D03*
X12573000D02*
D03*
X12471400D02*
D03*
X12369800D02*
D03*
X13487399D02*
D03*
X13385800D02*
D03*
X13284200D02*
D03*
X13182600D02*
D03*
X13081000D02*
D03*
X12979401D02*
D03*
X11049000Y6807200D02*
D03*
X11150600D02*
D03*
X11252200D02*
D03*
X11353800D02*
D03*
X11455400D02*
D03*
X11658600D02*
D03*
X11557000D02*
D03*
X12268200D02*
D03*
X12166600D02*
D03*
X12065000D02*
D03*
X11963400D02*
D03*
X11861800D02*
D03*
X11760200D02*
D03*
X12877800D02*
D03*
X12776200D02*
D03*
X12674600D02*
D03*
X12573000D02*
D03*
X12471400D02*
D03*
X12369800D02*
D03*
X13487399D02*
D03*
X13385800D02*
D03*
X13284200D02*
D03*
X13182600D02*
D03*
X13081000D02*
D03*
X12979401D02*
D03*
X13766800Y5410200D02*
D03*
X13716000Y5537200D02*
D03*
X13741400Y6070600D02*
D03*
X21361400Y5461000D02*
D03*
X21259801Y5638800D02*
D03*
Y5537200D02*
D03*
Y5410200D02*
D03*
X21158200D02*
D03*
Y5537200D02*
D03*
Y5638800D02*
D03*
X21056599Y5410200D02*
D03*
Y5537200D02*
D03*
Y5638800D02*
D03*
X9321800Y6832600D02*
D03*
X9398000Y6934200D02*
D03*
X9474200Y7035800D02*
D03*
Y7162800D02*
D03*
X9372600Y7264400D02*
D03*
Y7112000D02*
D03*
X19659599D02*
D03*
Y7264400D02*
D03*
X19761200Y7162800D02*
D03*
Y7035800D02*
D03*
X19685001Y6934200D02*
D03*
X19608800Y6832600D02*
D03*
X20853400Y6121400D02*
D03*
X20624800D02*
D03*
X20116800D02*
D03*
Y6223000D02*
D03*
X20015199D02*
D03*
Y6121400D02*
D03*
X19913600D02*
D03*
Y6223000D02*
D03*
X19812000Y6121400D02*
D03*
Y6223000D02*
D03*
X19710400D02*
D03*
Y6121400D02*
D03*
X19608800D02*
D03*
Y6223000D02*
D03*
X19507201D02*
D03*
Y6121400D02*
D03*
X19405600D02*
D03*
Y6223000D02*
D03*
X19303999D02*
D03*
Y6121400D02*
D03*
X19202400D02*
D03*
Y6223000D02*
D03*
X19100800Y6121400D02*
D03*
Y6223000D02*
D03*
X18999200D02*
D03*
Y6121400D02*
D03*
X18897600D02*
D03*
Y6223000D02*
D03*
X19100800Y6324600D02*
D03*
X18999200Y6426200D02*
D03*
Y6324600D02*
D03*
X18897600D02*
D03*
Y6426200D02*
D03*
Y6527800D02*
D03*
X18846800Y6629400D02*
D03*
Y6934200D02*
D03*
Y7035800D02*
D03*
Y7137400D02*
D03*
Y7239000D02*
D03*
X20574001Y6223000D02*
D03*
X20192999Y8559800D02*
D03*
X20066000D02*
D03*
X19939000D02*
D03*
X20192999Y8432800D02*
D03*
X20066000D02*
D03*
X19939000D02*
D03*
Y8305800D02*
D03*
X20066000D02*
D03*
X20192999D02*
D03*
X19939000Y8178800D02*
D03*
X20066000D02*
D03*
X20192999D02*
D03*
X19939000Y8051800D02*
D03*
X20066000D02*
D03*
X20192999D02*
D03*
X20320000D02*
D03*
X20447000D02*
D03*
X20574001D02*
D03*
X20700999D02*
D03*
X20828000D02*
D03*
Y7924800D02*
D03*
X19939000D02*
D03*
Y7797800D02*
D03*
Y7670800D02*
D03*
Y7543800D02*
D03*
X20066000Y7924800D02*
D03*
X20192999D02*
D03*
X20320000D02*
D03*
X20447000D02*
D03*
X20576540D02*
D03*
X20700999D02*
D03*
X20828000Y7797800D02*
D03*
X20700999D02*
D03*
X20574001D02*
D03*
X20447000D02*
D03*
X20320000D02*
D03*
X20192999D02*
D03*
X20091400D02*
D03*
X20066000Y7670800D02*
D03*
Y7543800D02*
D03*
X20192999D02*
D03*
X20320000D02*
D03*
X20447000D02*
D03*
X20574001D02*
D03*
X20700999D02*
D03*
X20828000D02*
D03*
Y7670800D02*
D03*
X20700999D02*
D03*
X20574001D02*
D03*
X20447000D02*
D03*
X20320000D02*
D03*
X20192999D02*
D03*
X19685001Y8559800D02*
D03*
X20828000Y7416800D02*
D03*
X20700999D02*
D03*
X20574001D02*
D03*
X20447000D02*
D03*
X20320000D02*
D03*
X20192999D02*
D03*
Y7289800D02*
D03*
X20320000D02*
D03*
X20447000D02*
D03*
X20574001D02*
D03*
X20700999D02*
D03*
X20828000D02*
D03*
X19812000Y8305800D02*
D03*
Y8178800D02*
D03*
Y8432800D02*
D03*
Y8559800D02*
D03*
X17983200Y5334000D02*
D03*
Y5207000D02*
D03*
Y5080000D02*
D03*
Y4953000D02*
D03*
Y4826000D02*
D03*
Y4699000D02*
D03*
Y4572000D02*
D03*
Y4445000D02*
D03*
Y4318000D02*
D03*
X18110201D02*
D03*
Y4445000D02*
D03*
Y4572000D02*
D03*
Y4699000D02*
D03*
Y4826000D02*
D03*
Y4953000D02*
D03*
Y5080000D02*
D03*
Y5207000D02*
D03*
Y5334000D02*
D03*
X18237199Y4318000D02*
D03*
Y4445000D02*
D03*
Y4572000D02*
D03*
Y4699000D02*
D03*
Y4826000D02*
D03*
Y4953000D02*
D03*
Y5080000D02*
D03*
Y5207000D02*
D03*
Y5334000D02*
D03*
X17983200Y3937000D02*
D03*
Y4064000D02*
D03*
Y4191000D02*
D03*
X18110201D02*
D03*
Y4064000D02*
D03*
Y3937000D02*
D03*
X18237199Y4191000D02*
D03*
Y4064000D02*
D03*
Y3937000D02*
D03*
X18364200Y4953000D02*
D03*
Y4826000D02*
D03*
Y4699000D02*
D03*
Y4572000D02*
D03*
Y4445000D02*
D03*
Y4318000D02*
D03*
Y4191000D02*
D03*
X18491200Y4953000D02*
D03*
Y4826000D02*
D03*
Y4699000D02*
D03*
Y4572000D02*
D03*
Y4445000D02*
D03*
Y4318000D02*
D03*
Y4191000D02*
D03*
X18618201Y3937000D02*
D03*
Y4064000D02*
D03*
X18491200Y3937000D02*
D03*
Y4064000D02*
D03*
X18364200D02*
D03*
Y3937000D02*
D03*
X8051800Y3429000D02*
D03*
Y3556000D02*
D03*
Y3683000D02*
D03*
Y3810000D02*
D03*
Y3937000D02*
D03*
Y4064000D02*
D03*
X8178800D02*
D03*
Y3937000D02*
D03*
Y3810000D02*
D03*
Y3683000D02*
D03*
Y3556000D02*
D03*
Y3429000D02*
D03*
X8305800Y4064000D02*
D03*
Y3937000D02*
D03*
Y3810000D02*
D03*
Y3683000D02*
D03*
Y3556000D02*
D03*
Y3429000D02*
D03*
X8178800Y4191000D02*
D03*
Y4318000D02*
D03*
Y4445000D02*
D03*
Y4572000D02*
D03*
Y4699000D02*
D03*
Y4826000D02*
D03*
Y4953000D02*
D03*
X8051800Y4191000D02*
D03*
Y4318000D02*
D03*
Y4445000D02*
D03*
Y4572000D02*
D03*
Y4699000D02*
D03*
Y4826000D02*
D03*
Y4953000D02*
D03*
X7924800Y3429000D02*
D03*
Y3556000D02*
D03*
Y3683000D02*
D03*
Y3810000D02*
D03*
Y3937000D02*
D03*
Y4064000D02*
D03*
Y4191000D02*
D03*
X7797800Y3429000D02*
D03*
Y3556000D02*
D03*
Y3683000D02*
D03*
Y3810000D02*
D03*
Y3937000D02*
D03*
Y4064000D02*
D03*
Y4191000D02*
D03*
X7670800D02*
D03*
Y4064000D02*
D03*
Y3937000D02*
D03*
Y3810000D02*
D03*
Y3683000D02*
D03*
Y3556000D02*
D03*
Y3429000D02*
D03*
X7924800Y5334000D02*
D03*
Y5207000D02*
D03*
Y5080000D02*
D03*
Y4953000D02*
D03*
Y4826000D02*
D03*
Y4699000D02*
D03*
Y4572000D02*
D03*
Y4445000D02*
D03*
Y4318000D02*
D03*
X7797800Y5334000D02*
D03*
Y5207000D02*
D03*
Y5080000D02*
D03*
Y4953000D02*
D03*
Y4826000D02*
D03*
Y4699000D02*
D03*
Y4572000D02*
D03*
Y4445000D02*
D03*
Y4318000D02*
D03*
X7670800D02*
D03*
Y4445000D02*
D03*
Y4572000D02*
D03*
Y4699000D02*
D03*
Y4826000D02*
D03*
Y4953000D02*
D03*
Y5080000D02*
D03*
Y5207000D02*
D03*
Y5334000D02*
D03*
X9525000Y8534400D02*
D03*
Y8280400D02*
D03*
Y8153400D02*
D03*
Y8407400D02*
D03*
X10541000Y7264400D02*
D03*
X10414000D02*
D03*
X10287000D02*
D03*
X10160000D02*
D03*
X10033000D02*
D03*
X9906000D02*
D03*
Y7391400D02*
D03*
X10033000D02*
D03*
X10160000D02*
D03*
X10287000D02*
D03*
X10414000D02*
D03*
X10541000D02*
D03*
X16306799Y9144000D02*
D03*
X9398000Y8534400D02*
D03*
X9906000Y7645400D02*
D03*
X10033000D02*
D03*
X10160000D02*
D03*
X10287000D02*
D03*
X10414000D02*
D03*
X10541000D02*
D03*
Y7518400D02*
D03*
X10414000D02*
D03*
X10287000D02*
D03*
X10160000D02*
D03*
X10033000D02*
D03*
X9906000D02*
D03*
X9779000D02*
D03*
Y7645400D02*
D03*
X9804400Y7772400D02*
D03*
X9906000D02*
D03*
X10033000D02*
D03*
X10160000D02*
D03*
X10287000D02*
D03*
X10414000D02*
D03*
X10541000D02*
D03*
X10414000Y7899400D02*
D03*
X10289540Y7896860D02*
D03*
X10160000Y7899400D02*
D03*
X10033000D02*
D03*
X9906000D02*
D03*
X9779000D02*
D03*
X9652000Y7518400D02*
D03*
Y7645400D02*
D03*
Y7772400D02*
D03*
Y7899400D02*
D03*
X10541000D02*
D03*
Y8026400D02*
D03*
X10414000D02*
D03*
X10287000D02*
D03*
X10160000D02*
D03*
X10033000D02*
D03*
X9906000D02*
D03*
X9779000D02*
D03*
X9906000Y8153400D02*
D03*
X9779000D02*
D03*
X9652000D02*
D03*
X9906000Y8280400D02*
D03*
X9779000D02*
D03*
X9652000D02*
D03*
Y8407400D02*
D03*
X9779000D02*
D03*
X9906000D02*
D03*
X9652000Y8534400D02*
D03*
X9779000D02*
D03*
X9906000D02*
D03*
X10464800Y6096000D02*
D03*
X10287000Y6197600D02*
D03*
X8559800Y7213600D02*
D03*
Y7112000D02*
D03*
Y7010400D02*
D03*
Y6908800D02*
D03*
Y6604000D02*
D03*
X8610600Y6502400D02*
D03*
Y6400800D02*
D03*
Y6299200D02*
D03*
X8712200D02*
D03*
Y6400800D02*
D03*
X8813800Y6299200D02*
D03*
X8610600Y6197600D02*
D03*
Y6096000D02*
D03*
X8712200D02*
D03*
Y6197600D02*
D03*
X8813800D02*
D03*
Y6096000D02*
D03*
X8915400Y6197600D02*
D03*
Y6096000D02*
D03*
X9017000D02*
D03*
Y6197600D02*
D03*
X9118600D02*
D03*
Y6096000D02*
D03*
X9220200D02*
D03*
Y6197600D02*
D03*
X9321800D02*
D03*
Y6096000D02*
D03*
X9423400D02*
D03*
Y6197600D02*
D03*
X9525000D02*
D03*
Y6096000D02*
D03*
X9626600Y6197600D02*
D03*
Y6096000D02*
D03*
X9728200D02*
D03*
Y6197600D02*
D03*
X9829800D02*
D03*
Y6096000D02*
D03*
X10337800D02*
D03*
X10566400D02*
D03*
X17094200Y7162800D02*
D03*
X16840199D02*
D03*
X16738600D02*
D03*
X16941800Y7264400D02*
D03*
X16738600D02*
D03*
X16840199D02*
D03*
X16941800Y7366000D02*
D03*
X16840199D02*
D03*
X16738600D02*
D03*
Y7569200D02*
D03*
X16840199D02*
D03*
X16941800D02*
D03*
X16637000D02*
D03*
X16535400D02*
D03*
Y7473800D02*
D03*
X16840199D02*
D03*
X16637000D02*
D03*
X16738600D02*
D03*
X16941800D02*
D03*
Y7670800D02*
D03*
X17272000Y8128000D02*
D03*
X17373599Y7874000D02*
D03*
X17475200Y7772400D02*
D03*
Y7874000D02*
D03*
Y7975600D02*
D03*
X17373599D02*
D03*
X17272000Y7924800D02*
D03*
X17475200Y8077200D02*
D03*
X17373599D02*
D03*
X17272000Y8026400D02*
D03*
X17475200Y8178800D02*
D03*
X17373599D02*
D03*
X17195799Y7162800D02*
D03*
X17297400D02*
D03*
X17399001D02*
D03*
X16738600Y7670800D02*
D03*
X16637000D02*
D03*
X16840199D02*
D03*
X16535400D02*
D03*
Y7772400D02*
D03*
X16637000D02*
D03*
X16941800D02*
D03*
X16840199D02*
D03*
X16738600D02*
D03*
X14452600Y6680200D02*
D03*
X14554201D02*
D03*
X14655800D02*
D03*
X14757401D02*
D03*
X14859000D02*
D03*
X15062199D02*
D03*
X14960600D02*
D03*
X15671800D02*
D03*
X15570200D02*
D03*
X15468600D02*
D03*
X15367000D02*
D03*
X15265401D02*
D03*
X15163800D02*
D03*
X16281400D02*
D03*
X16179800D02*
D03*
X16078200D02*
D03*
X15976601D02*
D03*
X15875000D02*
D03*
X15773399D02*
D03*
X16891000D02*
D03*
X16789400D02*
D03*
X16687801D02*
D03*
X16586200D02*
D03*
X16484599D02*
D03*
X16383000D02*
D03*
X16992599D02*
D03*
X17094200D02*
D03*
X17195799D02*
D03*
X17297400D02*
D03*
X17399001D02*
D03*
X17500600D02*
D03*
X16712898Y9090500D02*
D03*
X16687498Y8595200D02*
D03*
X12903200Y9144000D02*
D03*
X13295898Y8592400D02*
D03*
X13321300Y9087700D02*
D03*
X13335001Y7772400D02*
D03*
X13436600D02*
D03*
X13538200D02*
D03*
X13233400D02*
D03*
X13131799D02*
D03*
Y7670800D02*
D03*
X13436600D02*
D03*
X13233400D02*
D03*
X13335001D02*
D03*
X14097000Y7162800D02*
D03*
X13995399D02*
D03*
X13893800D02*
D03*
X13792200D02*
D03*
X13970000Y8178800D02*
D03*
X14071600D02*
D03*
X13868401Y8026400D02*
D03*
X13970000Y8077200D02*
D03*
X14071600D02*
D03*
X13868401Y7924800D02*
D03*
X13970000Y7975600D02*
D03*
X14071600D02*
D03*
Y7874000D02*
D03*
Y7772400D02*
D03*
X13970000Y7874000D02*
D03*
X13868401Y8128000D02*
D03*
X13538200Y7670800D02*
D03*
Y7473800D02*
D03*
X13335001D02*
D03*
X13233400D02*
D03*
X13436600D02*
D03*
X13131799D02*
D03*
X13132001Y7572000D02*
D03*
X13233400Y7569200D02*
D03*
X13538200D02*
D03*
X13436600D02*
D03*
X13335001D02*
D03*
Y7366000D02*
D03*
X13436600D02*
D03*
X13538200D02*
D03*
X13436600Y7264400D02*
D03*
X13335001D02*
D03*
X13538200D02*
D03*
X13335001Y7162800D02*
D03*
X13436600D02*
D03*
X13690601D02*
D03*
X14097000Y6680200D02*
D03*
X13995399D02*
D03*
X13893800D02*
D03*
X13792200D02*
D03*
X13690601D02*
D03*
X13589000D02*
D03*
X11607800Y8051800D02*
D03*
X11709400D02*
D03*
X11607800Y7848600D02*
D03*
Y7950200D02*
D03*
X11811000Y8051800D02*
D03*
X11912600D02*
D03*
X12014200D02*
D03*
X12115800D02*
D03*
X12217400D02*
D03*
X11709400Y7950200D02*
D03*
X12979401Y6680200D02*
D03*
X13081000D02*
D03*
X13182600D02*
D03*
X13284200D02*
D03*
X13385800D02*
D03*
X13487399D02*
D03*
X12369800D02*
D03*
X12471400D02*
D03*
X12573000D02*
D03*
X12674600D02*
D03*
X12776200D02*
D03*
X12877800D02*
D03*
X11760200D02*
D03*
X11861800D02*
D03*
X11963400D02*
D03*
X12065000D02*
D03*
X12166600D02*
D03*
X12268200D02*
D03*
X11557000D02*
D03*
X11658600D02*
D03*
X11455400D02*
D03*
X11353800D02*
D03*
X11252200D02*
D03*
X11150600D02*
D03*
X11049000D02*
D03*
X15621001Y8051800D02*
D03*
X15519400D02*
D03*
X15417799D02*
D03*
X15316200D02*
D03*
X15214600D02*
D03*
X15113000D02*
D03*
X15011400D02*
D03*
Y7950200D02*
D03*
Y7848600D02*
D03*
X15113000Y7950200D02*
D03*
X19685001Y8432800D02*
D03*
Y8305800D02*
D03*
Y8178800D02*
D03*
X19558000D02*
D03*
Y8305800D02*
D03*
Y8432800D02*
D03*
Y8559800D02*
D03*
X19431000D02*
D03*
Y8432800D02*
D03*
Y8305800D02*
D03*
X19303999D02*
D03*
Y8432800D02*
D03*
Y8559800D02*
D03*
X19177000D02*
D03*
X9271000Y8534400D02*
D03*
X9144000D02*
D03*
X9017000D02*
D03*
X8890000D02*
D03*
X9398000Y8407400D02*
D03*
X9271000D02*
D03*
X9144000D02*
D03*
X9017000D02*
D03*
X9398000Y8280400D02*
D03*
Y8153400D02*
D03*
X9271000Y8280400D02*
D03*
X9144000D02*
D03*
X9017000D02*
D03*
X9271000Y8153400D02*
D03*
X13680000Y8561000D02*
D03*
X17071001Y8579000D02*
D03*
X21467999Y7512000D02*
D03*
D153*
X20667979Y10233660D02*
D03*
X13238480D02*
D03*
X3377000Y8967540D02*
D03*
X3389700Y8561000D02*
D03*
X22734200Y8383200D02*
D03*
X22378600Y7923600D02*
D03*
X22708800Y8177600D02*
D03*
X22555200Y6654800D02*
D03*
X22987000Y7823200D02*
D03*
Y7416800D02*
D03*
X23026401Y6262400D02*
D03*
X23018800Y5873801D02*
D03*
X20447000Y4267200D02*
D03*
X20294600D02*
D03*
X20142200D02*
D03*
Y4419600D02*
D03*
Y4572000D02*
D03*
X20294600Y4419600D02*
D03*
Y4572000D02*
D03*
X20447000D02*
D03*
Y4419600D02*
D03*
X19812000Y4267200D02*
D03*
X19634200D02*
D03*
X19456400D02*
D03*
Y4419600D02*
D03*
X19303999D02*
D03*
X19151601D02*
D03*
X19303999Y4267200D02*
D03*
X19456400Y4775200D02*
D03*
X19303999D02*
D03*
X20447000Y4876800D02*
D03*
X20294600D02*
D03*
X20142200D02*
D03*
Y4724400D02*
D03*
X20294600D02*
D03*
X20447000D02*
D03*
Y3962400D02*
D03*
Y4114800D02*
D03*
X20294600D02*
D03*
Y3962400D02*
D03*
X20142200Y4114800D02*
D03*
Y3962400D02*
D03*
X19989799D02*
D03*
X19634200Y4114800D02*
D03*
X19456400Y3962400D02*
D03*
Y4114800D02*
D03*
X19303999D02*
D03*
Y3962400D02*
D03*
X19151601Y4114800D02*
D03*
Y3962400D02*
D03*
X19989799Y4114800D02*
D03*
Y4267200D02*
D03*
X19634200Y3962400D02*
D03*
X19812000D02*
D03*
Y4114800D02*
D03*
X10134600Y3505200D02*
D03*
Y3657600D02*
D03*
X9982200D02*
D03*
Y3505200D02*
D03*
X9829800Y3657600D02*
D03*
Y3505200D02*
D03*
Y3352800D02*
D03*
X9982200D02*
D03*
X10134600D02*
D03*
X9677400Y3505200D02*
D03*
X9321800Y3657600D02*
D03*
X9499600Y3352800D02*
D03*
X9677400D02*
D03*
X9144000Y3505200D02*
D03*
Y3657600D02*
D03*
X8991600D02*
D03*
Y3505200D02*
D03*
X8839200Y3657600D02*
D03*
Y3505200D02*
D03*
Y3352800D02*
D03*
X8991600D02*
D03*
X9144000D02*
D03*
X9677400Y3657600D02*
D03*
X9321800Y3505200D02*
D03*
Y3352800D02*
D03*
X9499600Y3505200D02*
D03*
Y3657600D02*
D03*
Y4114800D02*
D03*
Y3962400D02*
D03*
X9321800Y3810000D02*
D03*
Y3962400D02*
D03*
X9677400Y4267200D02*
D03*
Y4114800D02*
D03*
X9144000Y3810000D02*
D03*
X8991600D02*
D03*
X8839200D02*
D03*
Y3962400D02*
D03*
Y4114800D02*
D03*
X8991600Y3962400D02*
D03*
Y4114800D02*
D03*
X9144000D02*
D03*
Y3962400D02*
D03*
X9677400Y3810000D02*
D03*
X9499600D02*
D03*
X9321800Y4114800D02*
D03*
X9677400Y3962400D02*
D03*
X10134600Y3810000D02*
D03*
X9982200D02*
D03*
X9829800D02*
D03*
Y3962400D02*
D03*
Y4114800D02*
D03*
X9982200Y3962400D02*
D03*
Y4114800D02*
D03*
X10134600D02*
D03*
Y3962400D02*
D03*
Y4724400D02*
D03*
X9982200D02*
D03*
X9829800D02*
D03*
Y4876800D02*
D03*
X9982200D02*
D03*
X10134600D02*
D03*
X10490200Y5511800D02*
D03*
X15595599Y4318000D02*
D03*
X15417799D02*
D03*
X15239999D02*
D03*
X15062199D02*
D03*
X14884399D02*
D03*
X14706599D02*
D03*
X14528799D02*
D03*
X14630400Y4165600D02*
D03*
X14808200D02*
D03*
X14986000D02*
D03*
X15163800D02*
D03*
X15341600D02*
D03*
X14554201Y4013200D02*
D03*
X14732001D02*
D03*
X14909801D02*
D03*
X15087601D02*
D03*
X15265401D02*
D03*
X15443201D02*
D03*
X14782800Y3860800D02*
D03*
X14605000D02*
D03*
X14782800Y3683000D02*
D03*
X14605000D02*
D03*
X14782800Y3505200D02*
D03*
X14605000D02*
D03*
X14528799Y4470400D02*
D03*
Y4622800D02*
D03*
Y4775200D02*
D03*
Y4927600D02*
D03*
Y5080000D02*
D03*
Y5232400D02*
D03*
X14376401Y4318000D02*
D03*
Y4470400D02*
D03*
Y4622800D02*
D03*
Y4775200D02*
D03*
Y4927600D02*
D03*
Y5080000D02*
D03*
Y5232400D02*
D03*
X14478000Y4165600D02*
D03*
X14325600D02*
D03*
X14401801Y4013200D02*
D03*
X14452600Y3860800D02*
D03*
Y3683000D02*
D03*
Y3505200D02*
D03*
X14300200D02*
D03*
Y3683000D02*
D03*
Y3860800D02*
D03*
X14681200Y5232400D02*
D03*
X14833600D02*
D03*
X14681200Y5080000D02*
D03*
X14833600D02*
D03*
Y4927600D02*
D03*
X14681200D02*
D03*
Y4775200D02*
D03*
X14833600D02*
D03*
Y4622800D02*
D03*
X14681200D02*
D03*
Y4470400D02*
D03*
X14833600D02*
D03*
X17678400Y6146800D02*
D03*
X11455400Y4470400D02*
D03*
X11303000D02*
D03*
Y4622800D02*
D03*
X11455400D02*
D03*
Y4775200D02*
D03*
X11303000D02*
D03*
Y4927600D02*
D03*
X11455400D02*
D03*
Y5080000D02*
D03*
X11303000D02*
D03*
X11455400Y5232400D02*
D03*
X11303000D02*
D03*
X10922000Y3860800D02*
D03*
Y3683000D02*
D03*
Y3505200D02*
D03*
X11074400D02*
D03*
Y3683000D02*
D03*
Y3860800D02*
D03*
X11023600Y4013200D02*
D03*
X10947400Y4165600D02*
D03*
X11099800D02*
D03*
X10998200Y5232400D02*
D03*
Y5080000D02*
D03*
Y4927600D02*
D03*
Y4775200D02*
D03*
Y4622800D02*
D03*
Y4470400D02*
D03*
Y4318000D02*
D03*
X11150600Y5232400D02*
D03*
Y5080000D02*
D03*
Y4927600D02*
D03*
Y4775200D02*
D03*
Y4622800D02*
D03*
Y4470400D02*
D03*
X4038600Y2743200D02*
D03*
X10566400D02*
D03*
X16548801Y3533400D02*
D03*
X13970000Y2895600D02*
D03*
X10693400D02*
D03*
X7442200Y3200400D02*
D03*
X10414000Y3022600D02*
D03*
X12852400Y3530600D02*
D03*
X8991600Y4775200D02*
D03*
X9144000D02*
D03*
X8991600Y4267200D02*
D03*
X8839200Y4419600D02*
D03*
X8991600D02*
D03*
X9144000D02*
D03*
Y4267200D02*
D03*
X9321800D02*
D03*
X9499600D02*
D03*
X10134600Y4419600D02*
D03*
Y4572000D02*
D03*
X9982200D02*
D03*
Y4419600D02*
D03*
X9829800Y4572000D02*
D03*
Y4419600D02*
D03*
Y4267200D02*
D03*
X9982200D02*
D03*
X10134600D02*
D03*
X18135600Y8356600D02*
D03*
X10541000Y9634220D02*
D03*
X15075600Y8588000D02*
D03*
X16303999Y8313800D02*
D03*
X16156700Y7541400D02*
D03*
X16091600Y4041400D02*
D03*
Y3889000D02*
D03*
Y3736600D02*
D03*
Y3584200D02*
D03*
X16244000Y3533400D02*
D03*
X16396400D02*
D03*
X16701199Y4041400D02*
D03*
X16878999D02*
D03*
X16701199Y3889000D02*
D03*
X16878999D02*
D03*
X16701199Y3736600D02*
D03*
Y3584200D02*
D03*
X11226800Y3505200D02*
D03*
X11404600D02*
D03*
X11226800Y3683000D02*
D03*
X11404600D02*
D03*
X11226800Y3860800D02*
D03*
X11404600D02*
D03*
X13309599Y3581400D02*
D03*
X13487399D02*
D03*
X13157201Y3530600D02*
D03*
X13309599Y3733800D02*
D03*
X13487399D02*
D03*
Y3886200D02*
D03*
X13309599D02*
D03*
X13487399Y4038600D02*
D03*
X13309599D02*
D03*
X13004800Y3530600D02*
D03*
X12700000Y3581400D02*
D03*
Y3733800D02*
D03*
Y3886200D02*
D03*
Y4038600D02*
D03*
X12065000Y4013200D02*
D03*
X11887200D02*
D03*
X11709400D02*
D03*
X11531600D02*
D03*
X11353800D02*
D03*
X11176000D02*
D03*
X11963400Y4165600D02*
D03*
X11785600D02*
D03*
X11607800D02*
D03*
X11430000D02*
D03*
X11252200D02*
D03*
X11150600Y4318000D02*
D03*
X11328400D02*
D03*
X11506200D02*
D03*
X11684000D02*
D03*
X11861800D02*
D03*
X12039600D02*
D03*
X12217400D02*
D03*
X12765100Y7538600D02*
D03*
X12912399Y8311000D02*
D03*
X11684000Y8585200D02*
D03*
X20142200Y9804400D02*
D03*
X8269000Y7753401D02*
D03*
X7366000Y5588000D02*
D03*
X7289800Y6045200D02*
D03*
X19227800Y8128000D02*
D03*
X8966200Y8128000D02*
D03*
X5026000Y6525000D02*
D03*
X3659000Y5952000D02*
D03*
X3471200Y9919400D02*
D03*
X4355000Y6565000D02*
D03*
X3055000Y6569000D02*
D03*
X5283000Y6512000D02*
D03*
X4623000Y8695000D02*
D03*
X4181000Y6566000D02*
D03*
X4188000Y6049000D02*
D03*
X4511000Y6135000D02*
D03*
X4862000Y6143000D02*
D03*
X5147000Y6282000D02*
D03*
X4357000Y6401000D02*
D03*
D154*
X11709400Y9804400D02*
D03*
X15113000Y9779000D02*
D03*
X9347200Y9677400D02*
D03*
X19608800Y9702800D02*
D03*
D155*
X15016499Y9358100D02*
D03*
X11624900Y9355300D02*
D03*
X19898360Y9507220D02*
D03*
X9611360D02*
D03*
D156*
X21255000Y7515000D02*
D03*
D157*
X4843400Y8842800D02*
D03*
X4825000Y8955000D02*
D03*
X4666400Y8168800D02*
D03*
X4406000Y8166000D02*
D03*
X4492000Y8161000D02*
D03*
X4576000Y8151000D02*
D03*
X5061400Y8201800D02*
D03*
X5148400Y8379800D02*
D03*
X5058400Y9306800D02*
D03*
X4505400Y9358800D02*
D03*
X5144400Y9114800D02*
D03*
X5285400Y8951800D02*
D03*
X5288400Y8647800D02*
D03*
X3451000Y7970000D02*
D03*
D158*
X4844400Y7863800D02*
D03*
X4862400Y7751800D02*
D03*
X4274400Y9133800D02*
D03*
%TF.MD5,81440546d9943f28a1789dd637153858*%
M02*
