%FSTAX23Y23*%
%MOIN*%
%SFA1B1*%

%IPPOS*%
%ADD10C,0.050000*%
%ADD11C,0.020079*%
%ADD12C,0.009843*%
%ADD13C,0.027559*%
%ADD14C,0.066535*%
%ADD15R,0.066535X0.066535*%
%ADD16C,0.187401*%
%ADD17C,0.157480*%
%ADD18C,0.059842*%
%ADD19C,0.098425*%
%ADD20C,0.050000*%
%LNbackplane-1*%
%LPD*%
G36*
X18429Y0719D02*
Y02079D01*
X01829*
Y0719*
X18429*
G37*
%LNbackplane-2*%
%LPC*%
G36*
X1502Y04425D02*
X15009Y04424D01*
X14999Y0442*
X14991Y04413*
X14985Y04405*
X14981Y04395*
X14979Y04385*
X14981Y04374*
X14985Y04364*
X14991Y04356*
X14999Y0435*
X15009Y04346*
X1502Y04344*
X1503Y04346*
X1504Y0435*
X15048Y04356*
X15055Y04364*
X15059Y04374*
X1506Y04385*
X15059Y04395*
X15055Y04405*
X15048Y04413*
X1504Y0442*
X1503Y04424*
X1502Y04425*
G37*
G36*
X1362D02*
X13609Y04424D01*
X13599Y0442*
X13591Y04413*
X13585Y04405*
X13581Y04395*
X13579Y04385*
X13581Y04374*
X13585Y04364*
X13591Y04356*
X13599Y0435*
X13609Y04346*
X1362Y04344*
X1363Y04346*
X1364Y0435*
X13648Y04356*
X13655Y04364*
X13659Y04374*
X1366Y04385*
X13659Y04395*
X13655Y04405*
X13648Y04413*
X1364Y0442*
X1363Y04424*
X1362Y04425*
G37*
G36*
X1662D02*
X16609Y04424D01*
X16599Y0442*
X16591Y04413*
X16585Y04405*
X16581Y04395*
X16579Y04385*
X16581Y04374*
X16585Y04364*
X16591Y04356*
X16599Y0435*
X16609Y04346*
X1662Y04344*
X1663Y04346*
X1664Y0435*
X16648Y04356*
X16655Y04364*
X16659Y04374*
X1666Y04385*
X16659Y04395*
X16655Y04405*
X16648Y04413*
X1664Y0442*
X1663Y04424*
X1662Y04425*
G37*
G36*
X1522D02*
X15209Y04424D01*
X15199Y0442*
X15191Y04413*
X15185Y04405*
X15181Y04395*
X15179Y04385*
X15181Y04374*
X15185Y04364*
X15191Y04356*
X15199Y0435*
X15209Y04346*
X1522Y04344*
X1523Y04346*
X1524Y0435*
X15248Y04356*
X15255Y04364*
X15259Y04374*
X1526Y04385*
X15259Y04395*
X15255Y04405*
X15248Y04413*
X1524Y0442*
X1523Y04424*
X1522Y04425*
G37*
G36*
X1182D02*
X11809Y04424D01*
X11799Y0442*
X11791Y04413*
X11785Y04405*
X11781Y04395*
X11779Y04385*
X11781Y04374*
X11785Y04364*
X11791Y04356*
X11799Y0435*
X11809Y04346*
X1182Y04344*
X1183Y04346*
X1184Y0435*
X11848Y04356*
X11855Y04364*
X11859Y04374*
X1186Y04385*
X11859Y04395*
X11855Y04405*
X11848Y04413*
X1184Y0442*
X1183Y04424*
X1182Y04425*
G37*
G36*
X1042D02*
X10409Y04424D01*
X10399Y0442*
X10391Y04413*
X10385Y04405*
X10381Y04395*
X10379Y04385*
X10381Y04374*
X10385Y04364*
X10391Y04356*
X10399Y0435*
X10409Y04346*
X1042Y04344*
X1043Y04346*
X1044Y0435*
X10448Y04356*
X10455Y04364*
X10459Y04374*
X1046Y04385*
X10459Y04395*
X10455Y04405*
X10448Y04413*
X1044Y0442*
X1043Y04424*
X1042Y04425*
G37*
G36*
X1342D02*
X13409Y04424D01*
X13399Y0442*
X13391Y04413*
X13385Y04405*
X13381Y04395*
X13379Y04385*
X13381Y04374*
X13385Y04364*
X13391Y04356*
X13399Y0435*
X13409Y04346*
X1342Y04344*
X1343Y04346*
X1344Y0435*
X13448Y04356*
X13455Y04364*
X13459Y04374*
X1346Y04385*
X13459Y04395*
X13455Y04405*
X13448Y04413*
X1344Y0442*
X1343Y04424*
X1342Y04425*
G37*
G36*
X1202D02*
X12009Y04424D01*
X11999Y0442*
X11991Y04413*
X11985Y04405*
X11981Y04395*
X11979Y04385*
X11981Y04374*
X11985Y04364*
X11991Y04356*
X11999Y0435*
X12009Y04346*
X1202Y04344*
X1203Y04346*
X1204Y0435*
X12048Y04356*
X12055Y04364*
X12059Y04374*
X1206Y04385*
X12059Y04395*
X12055Y04405*
X12048Y04413*
X1204Y0442*
X1203Y04424*
X1202Y04425*
G37*
G36*
X1682D02*
X16809Y04424D01*
X16799Y0442*
X16791Y04413*
X16785Y04405*
X16781Y04395*
X16779Y04385*
X16781Y04374*
X16785Y04364*
X16791Y04356*
X16799Y0435*
X16809Y04346*
X1682Y04344*
X1683Y04346*
X1684Y0435*
X16848Y04356*
X16855Y04364*
X16859Y04374*
X1686Y04385*
X16859Y04395*
X16855Y04405*
X16848Y04413*
X1684Y0442*
X1683Y04424*
X1682Y04425*
G37*
G36*
X0862Y04525D02*
X08609Y04524D01*
X08599Y0452*
X08591Y04513*
X08585Y04505*
X08581Y04495*
X08579Y04485*
X08581Y04474*
X08585Y04464*
X08591Y04456*
X08599Y0445*
X08609Y04446*
X0862Y04444*
X0863Y04446*
X0864Y0445*
X08648Y04456*
X08655Y04464*
X08659Y04474*
X0866Y04485*
X08659Y04495*
X08655Y04505*
X08648Y04513*
X0864Y0452*
X0863Y04524*
X0862Y04525*
G37*
G36*
X0722D02*
X07209Y04524D01*
X07199Y0452*
X07191Y04513*
X07185Y04505*
X07181Y04495*
X07179Y04485*
X07181Y04474*
X07185Y04464*
X07191Y04456*
X07199Y0445*
X07209Y04446*
X0722Y04444*
X0723Y04446*
X0724Y0445*
X07248Y04456*
X07255Y04464*
X07259Y04474*
X0726Y04485*
X07259Y04495*
X07255Y04505*
X07248Y04513*
X0724Y0452*
X0723Y04524*
X0722Y04525*
G37*
G36*
X1022D02*
X10209Y04524D01*
X10199Y0452*
X10191Y04513*
X10185Y04505*
X10181Y04495*
X10179Y04485*
X10181Y04474*
X10185Y04464*
X10191Y04456*
X10199Y0445*
X10209Y04446*
X1022Y04444*
X1023Y04446*
X1024Y0445*
X10248Y04456*
X10255Y04464*
X10259Y04474*
X1026Y04485*
X10259Y04495*
X10255Y04505*
X10248Y04513*
X1024Y0452*
X1023Y04524*
X1022Y04525*
G37*
G36*
X0882D02*
X08809Y04524D01*
X08799Y0452*
X08791Y04513*
X08785Y04505*
X08781Y04495*
X08779Y04485*
X08781Y04474*
X08785Y04464*
X08791Y04456*
X08799Y0445*
X08809Y04446*
X0882Y04444*
X0883Y04446*
X0884Y0445*
X08848Y04456*
X08855Y04464*
X08859Y04474*
X0886Y04485*
X08859Y04495*
X08855Y04505*
X08848Y04513*
X0884Y0452*
X0883Y04524*
X0882Y04525*
G37*
G36*
X0542D02*
X05409Y04524D01*
X05399Y0452*
X05391Y04513*
X05385Y04505*
X05381Y04495*
X05379Y04485*
X05381Y04474*
X05385Y04464*
X05391Y04456*
X05399Y0445*
X05409Y04446*
X0542Y04444*
X0543Y04446*
X0544Y0445*
X05448Y04456*
X05455Y04464*
X05459Y04474*
X0546Y04485*
X05459Y04495*
X05455Y04505*
X05448Y04513*
X0544Y0452*
X0543Y04524*
X0542Y04525*
G37*
G36*
X03429D02*
X03419Y04524D01*
X03409Y0452*
X03401Y04513*
X03394Y04505*
X0339Y04495*
X03389Y04485*
X0339Y04474*
X03394Y04464*
X03401Y04456*
X03409Y0445*
X03419Y04446*
X03429Y04444*
X0344Y04446*
X0345Y0445*
X03458Y04456*
X03464Y04464*
X03468Y04474*
X0347Y04485*
X03468Y04495*
X03464Y04505*
X03458Y04513*
X0345Y0452*
X0344Y04524*
X03429Y04525*
G37*
G36*
X0702D02*
X07009Y04524D01*
X06999Y0452*
X06991Y04513*
X06985Y04505*
X06981Y04495*
X06979Y04485*
X06981Y04474*
X06985Y04464*
X06991Y04456*
X06999Y0445*
X07009Y04446*
X0702Y04444*
X0703Y04446*
X0704Y0445*
X07048Y04456*
X07055Y04464*
X07059Y04474*
X0706Y04485*
X07059Y04495*
X07055Y04505*
X07048Y04513*
X0704Y0452*
X0703Y04524*
X0702Y04525*
G37*
G36*
X0562D02*
X05609Y04524D01*
X05599Y0452*
X05591Y04513*
X05585Y04505*
X05581Y04495*
X05579Y04485*
X05581Y04474*
X05585Y04464*
X05591Y04456*
X05599Y0445*
X05609Y04446*
X0562Y04444*
X0563Y04446*
X0564Y0445*
X05648Y04456*
X05655Y04464*
X05659Y04474*
X0566Y04485*
X05659Y04495*
X05655Y04505*
X05648Y04513*
X0564Y0452*
X0563Y04524*
X0562Y04525*
G37*
G36*
X15687Y04515D02*
X15357D01*
X15353Y04514*
X1535Y04512*
X1528Y04442*
X1527Y04432*
X15268Y04429*
X15267Y04425*
Y04245*
X14948*
X14944Y04244*
X1494Y04242*
X14938Y04239*
X14937Y04235*
Y04045*
X14938Y04041*
X14939Y0404*
X14938Y04038*
X14937Y04035*
Y03835*
X14938Y03831*
X14939Y0383*
X14938Y03829*
X14937Y03825*
Y03735*
X14938Y03731*
X14939Y0373*
X14938Y03729*
X14937Y03725*
Y03635*
X14938Y03631*
X1494Y03627*
Y03622*
X14938Y03619*
X14937Y03615*
Y03435*
X14938Y03431*
X14939Y0343*
X14938Y03429*
X14937Y03425*
Y03245*
X14938Y03241*
X1494Y03238*
Y03232*
X14938Y03229*
X14937Y03225*
Y03135*
X14938Y03131*
X14939Y03129*
X14938Y03129*
X14938Y03127*
X14937Y03125*
Y03038*
X14938Y03037*
X14938Y03035*
X14939Y03033*
X1494Y03031*
X14944Y03027*
X14945Y03026*
X14947Y03025*
X14949Y03025*
X14951Y03025*
X15183*
X15367Y0284*
Y02705*
X15368Y02701*
X1537Y02698*
X1542Y02648*
X15424Y02645*
X15427Y02644*
X15707*
X15711Y02645*
X15714Y02648*
X15717Y02651*
X15718Y02655*
Y0294*
Y02945*
X15717Y02949*
X15716Y02951*
X15714Y02952*
X15713Y02953*
X15711Y02954*
X15707Y02955*
X15659*
X15657Y0296*
X15661Y02962*
X1567Y02968*
X15677Y02977*
X15682Y02988*
X15683Y03*
X15682Y03011*
X15677Y03022*
X15671Y03029*
X15672Y03035*
X15687*
X15691Y03035*
X15695Y03038*
X15697Y03041*
X15698Y03045*
Y03235*
X15697Y03239*
X15695Y03242*
X15683Y03254*
Y03261*
X15676*
X15548Y03388*
X15551Y03392*
X15551*
X15567Y03388*
X15583Y03387*
X156Y03388*
X15616Y03392*
X15631Y03399*
X15645Y03407*
X15657Y03418*
X15668Y0343*
X15676Y03444*
X15683Y03459*
X15687Y03475*
X15688Y03491*
X15687Y03508*
X15683Y03524*
X15676Y03539*
X15668Y03553*
X15657Y03565*
X15645Y03575*
X15631Y03584*
X15616Y0359*
X156Y03594*
X15583Y03596*
X15567Y03594*
X15551Y0359*
X15536Y03584*
X15522Y03575*
X1551Y03565*
X15499Y03553*
X15491Y03539*
X15485Y03524*
X15481Y03508*
X15479Y03491*
X15481Y03475*
X15485Y03459*
Y03459*
X15481Y03456*
X15464Y03472*
X15317Y0362*
X15319Y03625*
X15357*
X15361Y03625*
X15364Y03627*
X15475Y03737*
X15479Y03735*
X15481Y03721*
X15485Y03705*
X15491Y0369*
X15499Y03676*
X1551Y03664*
X15522Y03653*
X15536Y03645*
X15551Y03638*
X15567Y03635*
X15583Y03633*
X156Y03635*
X15616Y03638*
X15631Y03645*
X15645Y03653*
X15657Y03664*
X15668Y03676*
X15676Y0369*
X15683Y03705*
X15687Y03721*
X15688Y03738*
X15687Y03754*
X15683Y0377*
X15676Y03785*
X15668Y03799*
X15657Y03811*
X15645Y03822*
X15631Y0383*
X15616Y03837*
X156Y0384*
X15586Y03842*
X15584Y03847*
X15695Y03957*
X15697Y03961*
X15698Y03965*
Y04165*
X15697Y04169*
X15695Y04172*
X15691Y04174*
X15687Y04175*
X15588*
Y04225*
X15587Y04229*
X15586Y0423*
X15587Y04231*
X15588Y04235*
Y04264*
X15607*
X15608Y04259*
X15601Y04251*
X15597Y04241*
X15596Y04229*
X15597Y04218*
X15601Y04208*
X15609Y04199*
X15618Y04192*
X15628Y04187*
X15639Y04186*
X15651Y04187*
X15661Y04192*
X1567Y04199*
X15677Y04208*
X15682Y04218*
X15683Y04229*
X15682Y04241*
X15677Y04251*
X15671Y04259*
X15672Y04264*
X15687*
X15691Y04265*
X15695Y04268*
X15697Y04271*
X15698Y04275*
Y04505*
X15697Y04509*
X15695Y04512*
X15691Y04514*
X15687Y04515*
G37*
G36*
X14087D02*
X13757D01*
X13753Y04514*
X1375Y04512*
X1368Y04442*
X1367Y04432*
X13668Y04429*
X13667Y04425*
Y04245*
X13348*
X13344Y04244*
X1334Y04242*
X13338Y04239*
X13337Y04235*
Y04045*
X13338Y04041*
X13339Y0404*
X13338Y04038*
X13337Y04035*
Y03835*
X13338Y03831*
X13339Y0383*
X13338Y03829*
X13337Y03825*
Y03735*
X13338Y03731*
X13339Y0373*
X13338Y03729*
X13337Y03725*
Y03635*
X13338Y03631*
X1334Y03627*
Y03622*
X13338Y03619*
X13337Y03615*
Y03435*
X13338Y03431*
X13339Y0343*
X13338Y03429*
X13337Y03425*
Y03245*
X13338Y03241*
X1334Y03238*
Y03232*
X13338Y03229*
X13337Y03225*
Y03135*
X13338Y03131*
X13339Y03129*
X13338Y03129*
X13338Y03127*
X13337Y03125*
Y03038*
X13338Y03037*
X13338Y03035*
X13339Y03033*
X1334Y03031*
X13344Y03027*
X13345Y03026*
X13347Y03025*
X13349Y03025*
X13351Y03025*
X13583*
X13767Y0284*
Y02705*
X13768Y02701*
X1377Y02698*
X1382Y02648*
X13824Y02645*
X13827Y02644*
X14107*
X14111Y02645*
X14114Y02648*
X14117Y02651*
X14118Y02655*
Y0294*
Y02945*
X14117Y02949*
X14116Y02951*
X14114Y02952*
X14113Y02953*
X14111Y02954*
X14107Y02955*
X14059*
X14057Y0296*
X14061Y02962*
X1407Y02968*
X14077Y02977*
X14082Y02988*
X14083Y03*
X14082Y03011*
X14077Y03022*
X14071Y03029*
X14072Y03035*
X14087*
X14091Y03035*
X14095Y03038*
X14097Y03041*
X14098Y03045*
Y03235*
X14097Y03239*
X14095Y03242*
X14083Y03254*
Y03261*
X14076*
X13948Y03388*
X13951Y03392*
X13951*
X13967Y03388*
X13983Y03387*
X14Y03388*
X14016Y03392*
X14031Y03399*
X14045Y03407*
X14057Y03418*
X14068Y0343*
X14076Y03444*
X14083Y03459*
X14087Y03475*
X14088Y03491*
X14087Y03508*
X14083Y03524*
X14076Y03539*
X14068Y03553*
X14057Y03565*
X14045Y03575*
X14031Y03584*
X14016Y0359*
X14Y03594*
X13983Y03596*
X13967Y03594*
X13951Y0359*
X13936Y03584*
X13922Y03575*
X1391Y03565*
X13899Y03553*
X13891Y03539*
X13885Y03524*
X13881Y03508*
X13879Y03491*
X13881Y03475*
X13885Y03459*
Y03459*
X13881Y03456*
X13864Y03472*
X13717Y0362*
X13719Y03625*
X13757*
X13761Y03625*
X13764Y03627*
X13875Y03737*
X13879Y03735*
X13881Y03721*
X13885Y03705*
X13891Y0369*
X13899Y03676*
X1391Y03664*
X13922Y03653*
X13936Y03645*
X13951Y03638*
X13967Y03635*
X13983Y03633*
X14Y03635*
X14016Y03638*
X14031Y03645*
X14045Y03653*
X14057Y03664*
X14068Y03676*
X14076Y0369*
X14083Y03705*
X14087Y03721*
X14088Y03738*
X14087Y03754*
X14083Y0377*
X14076Y03785*
X14068Y03799*
X14057Y03811*
X14045Y03822*
X14031Y0383*
X14016Y03837*
X14Y0384*
X13986Y03842*
X13984Y03847*
X14095Y03957*
X14097Y03961*
X14098Y03965*
Y04165*
X14097Y04169*
X14095Y04172*
X14091Y04174*
X14087Y04175*
X13988*
Y04225*
X13987Y04229*
X13986Y0423*
X13987Y04231*
X13988Y04235*
Y04264*
X14007*
X14008Y04259*
X14001Y04251*
X13997Y04241*
X13996Y04229*
X13997Y04218*
X14001Y04208*
X14009Y04199*
X14018Y04192*
X14028Y04187*
X14039Y04186*
X14051Y04187*
X14061Y04192*
X1407Y04199*
X14077Y04208*
X14082Y04218*
X14083Y04229*
X14082Y04241*
X14077Y04251*
X14071Y04259*
X14072Y04264*
X14087*
X14091Y04265*
X14095Y04268*
X14097Y04271*
X14098Y04275*
Y04505*
X14097Y04509*
X14095Y04512*
X14091Y04514*
X14087Y04515*
G37*
G36*
X03229Y04325D02*
X03219Y04324D01*
X03209Y0432*
X03201Y04313*
X03194Y04305*
X0319Y04295*
X03189Y04285*
X0319Y04274*
X03194Y04264*
X03201Y04256*
X03209Y0425*
X03219Y04246*
X03229Y04244*
X0324Y04246*
X0325Y0425*
X03258Y04256*
X03264Y04264*
X03268Y04274*
X0327Y04285*
X03268Y04295*
X03264Y04305*
X03258Y04313*
X0325Y0432*
X0324Y04324*
X03229Y04325*
G37*
G36*
X17287Y04515D02*
X16957D01*
X16953Y04514*
X1695Y04512*
X1688Y04442*
X1687Y04432*
X16868Y04429*
X16867Y04425*
Y04245*
X16548*
X16544Y04244*
X1654Y04242*
X16538Y04239*
X16537Y04235*
Y04045*
X16538Y04041*
X16539Y0404*
X16538Y04038*
X16537Y04035*
Y03835*
X16538Y03831*
X16539Y0383*
X16538Y03829*
X16537Y03825*
Y03735*
X16538Y03731*
X16539Y0373*
X16538Y03729*
X16537Y03725*
Y03635*
X16538Y03631*
X1654Y03627*
Y03622*
X16538Y03619*
X16537Y03615*
Y03435*
X16538Y03431*
X16539Y0343*
X16538Y03429*
X16537Y03425*
Y03245*
X16538Y03241*
X1654Y03238*
Y03232*
X16538Y03229*
X16537Y03225*
Y03135*
X16538Y03131*
X16539Y03129*
X16538Y03129*
X16538Y03127*
X16537Y03125*
Y03038*
X16538Y03037*
X16538Y03035*
X16539Y03033*
X1654Y03031*
X16544Y03027*
X16545Y03026*
X16547Y03025*
X16549Y03025*
X16551Y03025*
X16783*
X16967Y0284*
Y02705*
X16968Y02701*
X1697Y02698*
X1702Y02648*
X17024Y02645*
X17027Y02644*
X17307*
X17311Y02645*
X17314Y02648*
X17317Y02651*
X17318Y02655*
Y0294*
Y02945*
X17317Y02949*
X17316Y02951*
X17314Y02952*
X17313Y02953*
X17311Y02954*
X17307Y02955*
X17259*
X17257Y0296*
X17261Y02962*
X1727Y02968*
X17277Y02977*
X17282Y02988*
X17283Y03*
X17282Y03011*
X17277Y03022*
X17271Y03029*
X17272Y03035*
X17287*
X17291Y03035*
X17295Y03038*
X17297Y03041*
X17298Y03045*
Y03235*
X17297Y03239*
X17295Y03242*
X17283Y03254*
Y03261*
X17276*
X17148Y03388*
X17151Y03392*
X17151*
X17167Y03388*
X17183Y03387*
X172Y03388*
X17216Y03392*
X17231Y03399*
X17245Y03407*
X17257Y03418*
X17268Y0343*
X17276Y03444*
X17283Y03459*
X17287Y03475*
X17288Y03491*
X17287Y03508*
X17283Y03524*
X17276Y03539*
X17268Y03553*
X17257Y03565*
X17245Y03575*
X17231Y03584*
X17216Y0359*
X172Y03594*
X17183Y03596*
X17167Y03594*
X17151Y0359*
X17136Y03584*
X17122Y03575*
X1711Y03565*
X17099Y03553*
X17091Y03539*
X17085Y03524*
X17081Y03508*
X17079Y03491*
X17081Y03475*
X17085Y03459*
Y03459*
X17081Y03456*
X17064Y03472*
X16917Y0362*
X16919Y03625*
X16957*
X16961Y03625*
X16964Y03627*
X17075Y03737*
X17079Y03735*
X17081Y03721*
X17085Y03705*
X17091Y0369*
X17099Y03676*
X1711Y03664*
X17122Y03653*
X17136Y03645*
X17151Y03638*
X17167Y03635*
X17183Y03633*
X172Y03635*
X17216Y03638*
X17231Y03645*
X17245Y03653*
X17257Y03664*
X17268Y03676*
X17276Y0369*
X17283Y03705*
X17287Y03721*
X17288Y03738*
X17287Y03754*
X17283Y0377*
X17276Y03785*
X17268Y03799*
X17257Y03811*
X17245Y03822*
X17231Y0383*
X17216Y03837*
X172Y0384*
X17186Y03842*
X17184Y03847*
X17295Y03957*
X17297Y03961*
X17298Y03965*
Y04165*
X17297Y04169*
X17295Y04172*
X17291Y04174*
X17287Y04175*
X17188*
Y04225*
X17187Y04229*
X17186Y0423*
X17187Y04231*
X17188Y04235*
Y04264*
X17207*
X17208Y04259*
X17201Y04251*
X17197Y04241*
X17196Y04229*
X17197Y04218*
X17201Y04208*
X17209Y04199*
X17218Y04192*
X17228Y04187*
X17239Y04186*
X17251Y04187*
X17261Y04192*
X1727Y04199*
X17277Y04208*
X17282Y04218*
X17283Y04229*
X17282Y04241*
X17277Y04251*
X17271Y04259*
X17272Y04264*
X17287*
X17291Y04265*
X17295Y04268*
X17297Y04271*
X17298Y04275*
Y04505*
X17297Y04509*
X17295Y04512*
X17291Y04514*
X17287Y04515*
G37*
G36*
X09287D02*
X08957D01*
X08953Y04514*
X0895Y04512*
X0888Y04442*
X0887Y04432*
X08868Y04429*
X08867Y04425*
Y04245*
X08548*
X08544Y04244*
X0854Y04242*
X08538Y04239*
X08537Y04235*
Y04045*
X08538Y04041*
X08539Y0404*
X08538Y04038*
X08537Y04035*
Y03835*
X08538Y03831*
X08539Y0383*
X08538Y03829*
X08537Y03825*
Y03735*
X08538Y03731*
X08539Y0373*
X08538Y03729*
X08537Y03725*
Y03635*
X08538Y03631*
X0854Y03627*
Y03622*
X08538Y03619*
X08537Y03615*
Y03435*
X08538Y03431*
X08539Y0343*
X08538Y03429*
X08537Y03425*
Y03245*
X08538Y03241*
X0854Y03238*
Y03232*
X08538Y03229*
X08537Y03225*
Y03135*
X08538Y03131*
X08539Y03129*
X08538Y03129*
X08538Y03127*
X08537Y03125*
Y03038*
X08538Y03037*
X08538Y03035*
X08539Y03033*
X0854Y03031*
X08544Y03027*
X08545Y03026*
X08547Y03025*
X08549Y03025*
X08551Y03025*
X08783*
X08967Y0284*
Y02705*
X08968Y02701*
X0897Y02698*
X0902Y02648*
X09024Y02645*
X09027Y02644*
X09307*
X09311Y02645*
X09314Y02648*
X09317Y02651*
X09318Y02655*
Y0294*
Y02945*
X09317Y02949*
X09316Y02951*
X09314Y02952*
X09313Y02953*
X09311Y02954*
X09307Y02955*
X09259*
X09257Y0296*
X09261Y02962*
X0927Y02968*
X09277Y02977*
X09282Y02988*
X09283Y03*
X09282Y03011*
X09277Y03022*
X09271Y03029*
X09272Y03035*
X09287*
X09291Y03035*
X09295Y03038*
X09297Y03041*
X09298Y03045*
Y03235*
X09297Y03239*
X09295Y03242*
X09283Y03254*
Y03261*
X09276*
X09148Y03388*
X09151Y03392*
X09151*
X09167Y03388*
X09183Y03387*
X092Y03388*
X09216Y03392*
X09231Y03399*
X09245Y03407*
X09257Y03418*
X09268Y0343*
X09276Y03444*
X09283Y03459*
X09287Y03475*
X09288Y03491*
X09287Y03508*
X09283Y03524*
X09276Y03539*
X09268Y03553*
X09257Y03565*
X09245Y03575*
X09231Y03584*
X09216Y0359*
X092Y03594*
X09183Y03596*
X09167Y03594*
X09151Y0359*
X09136Y03584*
X09122Y03575*
X0911Y03565*
X09099Y03553*
X09091Y03539*
X09085Y03524*
X09081Y03508*
X09079Y03491*
X09081Y03475*
X09085Y03459*
Y03459*
X09081Y03456*
X09064Y03472*
X08917Y0362*
X08919Y03625*
X08957*
X08961Y03625*
X08964Y03627*
X09075Y03737*
X09079Y03735*
X09081Y03721*
X09085Y03705*
X09091Y0369*
X09099Y03676*
X0911Y03664*
X09122Y03653*
X09136Y03645*
X09151Y03638*
X09167Y03635*
X09183Y03633*
X092Y03635*
X09216Y03638*
X09231Y03645*
X09245Y03653*
X09257Y03664*
X09268Y03676*
X09276Y0369*
X09283Y03705*
X09287Y03721*
X09288Y03738*
X09287Y03754*
X09283Y0377*
X09276Y03785*
X09268Y03799*
X09257Y03811*
X09245Y03822*
X09231Y0383*
X09216Y03837*
X092Y0384*
X09186Y03842*
X09184Y03847*
X09295Y03957*
X09297Y03961*
X09298Y03965*
Y04165*
X09297Y04169*
X09295Y04172*
X09291Y04174*
X09287Y04175*
X09188*
Y04225*
X09187Y04229*
X09186Y0423*
X09187Y04231*
X09188Y04235*
Y04264*
X09207*
X09208Y04259*
X09201Y04251*
X09197Y04241*
X09196Y04229*
X09197Y04218*
X09201Y04208*
X09209Y04199*
X09218Y04192*
X09228Y04187*
X09239Y04186*
X09251Y04187*
X09261Y04192*
X0927Y04199*
X09277Y04208*
X09282Y04218*
X09283Y04229*
X09282Y04241*
X09277Y04251*
X09271Y04259*
X09272Y04264*
X09287*
X09291Y04265*
X09295Y04268*
X09297Y04271*
X09298Y04275*
Y04505*
X09297Y04509*
X09295Y04512*
X09291Y04514*
X09287Y04515*
G37*
G36*
X07698D02*
X07367D01*
X07363Y04514*
X0736Y04512*
X0729Y04442*
X0728Y04432*
X07278Y04429*
X07277Y04425*
Y04245*
X06957*
X06953Y04244*
X0695Y04242*
X06948Y04239*
X06947Y04235*
Y04045*
X06948Y04041*
X06949Y0404*
X06948Y04038*
X06947Y04035*
Y03835*
X06948Y03831*
X06949Y0383*
X06948Y03829*
X06947Y03825*
Y03735*
X06948Y03731*
X06949Y0373*
X06948Y03729*
X06947Y03725*
Y03635*
X06948Y03631*
X0695Y03627*
Y03622*
X06948Y03619*
X06947Y03615*
Y03435*
X06948Y03431*
X06949Y0343*
X06948Y03429*
X06947Y03425*
Y03245*
X06948Y03241*
X0695Y03238*
Y03232*
X06948Y03229*
X06947Y03225*
Y03135*
X06948Y03131*
X06949Y03129*
X06948Y03129*
X06948Y03127*
X06948Y03125*
X06947Y03038*
X06948Y03037*
X06948Y03035*
X06949Y03033*
X0695Y03031*
X06954Y03027*
X06955Y03026*
X06957Y03025*
X06959Y03025*
X06961Y03025*
X07193*
X07377Y0284*
Y02705*
X07378Y02701*
X0738Y02698*
X0743Y02648*
X07433Y02645*
X07437Y02644*
X07717*
X07721Y02645*
X07725Y02648*
X07727Y02651*
X07728Y02655*
Y0294*
Y02945*
X07727Y02949*
X07725Y02951*
X07725Y02952*
X07724Y02953*
X07721Y02954*
X07717Y02955*
X07659*
X07657Y0296*
X07661Y02962*
X0767Y02968*
X07677Y02977*
X07682Y02988*
X07683Y03*
X07682Y03011*
X07677Y03022*
X07671Y03029*
X07672Y03035*
X07698*
X07701Y03035*
X07705Y03038*
X07707Y03041*
X07708Y03045*
Y03235*
X07707Y03239*
X07705Y03242*
X07562Y03385*
X07564Y03389*
X07567Y03388*
X07583Y03387*
X076Y03388*
X07616Y03392*
X07631Y03399*
X07645Y03407*
X07657Y03418*
X07668Y0343*
X07676Y03444*
X07683Y03459*
X07687Y03475*
X07688Y03491*
X07687Y03508*
X07683Y03524*
X07676Y03539*
X07668Y03553*
X07657Y03565*
X07645Y03575*
X07631Y03584*
X07616Y0359*
X076Y03594*
X07583Y03596*
X07567Y03594*
X07551Y0359*
X07536Y03584*
X07522Y03575*
X0751Y03565*
X07499Y03553*
X07491Y03539*
X07485Y03524*
X07481Y03508*
X07479Y03491*
X07481Y03475*
X07481Y03472*
X07477Y0347*
X07475Y03472*
X07327Y0362*
X07329Y03625*
X07367*
X07371Y03625*
X07375Y03627*
X07475Y03729*
X0748Y03727*
X07481Y03721*
X07485Y03705*
X07491Y0369*
X07499Y03676*
X0751Y03664*
X07522Y03653*
X07536Y03645*
X07551Y03638*
X07567Y03635*
X07583Y03633*
X076Y03635*
X07616Y03638*
X07631Y03645*
X07645Y03653*
X07657Y03664*
X07668Y03676*
X07676Y0369*
X07683Y03705*
X07687Y03721*
X07688Y03738*
X07687Y03754*
X07683Y0377*
X07676Y03785*
X07668Y03799*
X07657Y03811*
X07645Y03822*
X07631Y0383*
X07616Y03837*
X076Y0384*
X07594Y03841*
X07593Y03846*
X07705Y03957*
X07707Y03961*
X07708Y03965*
Y04165*
X07707Y04169*
X07705Y04172*
X07701Y04174*
X07698Y04175*
X07598*
Y04205*
X07603Y04206*
X07609Y04199*
X07618Y04192*
X07628Y04187*
X07639Y04186*
X07651Y04187*
X07661Y04192*
X0767Y04199*
X07677Y04208*
X07682Y04218*
X07683Y04229*
X07682Y04241*
X07677Y04251*
X07671Y04259*
X07672Y04264*
X07698*
X07701Y04265*
X07705Y04268*
X07707Y04271*
X07708Y04275*
Y04505*
X07707Y04509*
X07705Y04512*
X07701Y04514*
X07698Y04515*
G37*
G36*
X12487D02*
X12157D01*
X12153Y04514*
X1215Y04512*
X1208Y04442*
X1207Y04432*
X12068Y04429*
X12067Y04425*
Y04245*
X11748*
X11744Y04244*
X1174Y04242*
X11738Y04239*
X11737Y04235*
Y04045*
X11738Y04041*
X11739Y0404*
X11738Y04038*
X11737Y04035*
Y03835*
X11738Y03831*
X11739Y0383*
X11738Y03829*
X11737Y03825*
Y03735*
X11738Y03731*
X11739Y0373*
X11738Y03729*
X11737Y03725*
Y03635*
X11738Y03631*
X1174Y03627*
Y03622*
X11738Y03619*
X11737Y03615*
Y03435*
X11738Y03431*
X11739Y0343*
X11738Y03429*
X11737Y03425*
Y03245*
X11738Y03241*
X1174Y03238*
Y03232*
X11738Y03229*
X11737Y03225*
Y03135*
X11738Y03131*
X11739Y03129*
X11738Y03129*
X11738Y03127*
X11737Y03125*
Y03038*
X11738Y03037*
X11738Y03035*
X11739Y03033*
X1174Y03031*
X11744Y03027*
X11745Y03026*
X11747Y03025*
X11749Y03025*
X11751Y03025*
X11983*
X12167Y0284*
Y02705*
X12168Y02701*
X1217Y02698*
X1222Y02648*
X12224Y02645*
X12227Y02644*
X12507*
X12511Y02645*
X12514Y02648*
X12517Y02651*
X12518Y02655*
Y0294*
Y02945*
X12517Y02949*
X12516Y02951*
X12514Y02952*
X12513Y02953*
X12511Y02954*
X12507Y02955*
X12459*
X12457Y0296*
X12461Y02962*
X1247Y02968*
X12477Y02977*
X12482Y02988*
X12483Y03*
X12482Y03011*
X12477Y03022*
X12471Y03029*
X12472Y03035*
X12487*
X12491Y03035*
X12495Y03038*
X12497Y03041*
X12498Y03045*
Y03235*
X12497Y03239*
X12495Y03242*
X12483Y03254*
Y03261*
X12476*
X12348Y03388*
X12351Y03392*
X12351*
X12367Y03388*
X12383Y03387*
X124Y03388*
X12416Y03392*
X12431Y03399*
X12445Y03407*
X12457Y03418*
X12468Y0343*
X12476Y03444*
X12483Y03459*
X12487Y03475*
X12488Y03491*
X12487Y03508*
X12483Y03524*
X12476Y03539*
X12468Y03553*
X12457Y03565*
X12445Y03575*
X12431Y03584*
X12416Y0359*
X124Y03594*
X12383Y03596*
X12367Y03594*
X12351Y0359*
X12336Y03584*
X12322Y03575*
X1231Y03565*
X12299Y03553*
X12291Y03539*
X12285Y03524*
X12281Y03508*
X12279Y03491*
X12281Y03475*
X12285Y03459*
Y03459*
X12281Y03456*
X12264Y03472*
X12117Y0362*
X12119Y03625*
X12157*
X12161Y03625*
X12164Y03627*
X12275Y03737*
X12279Y03735*
X12281Y03721*
X12285Y03705*
X12291Y0369*
X12299Y03676*
X1231Y03664*
X12322Y03653*
X12336Y03645*
X12351Y03638*
X12367Y03635*
X12383Y03633*
X124Y03635*
X12416Y03638*
X12431Y03645*
X12445Y03653*
X12457Y03664*
X12468Y03676*
X12476Y0369*
X12483Y03705*
X12487Y03721*
X12488Y03738*
X12487Y03754*
X12483Y0377*
X12476Y03785*
X12468Y03799*
X12457Y03811*
X12445Y03822*
X12431Y0383*
X12416Y03837*
X124Y0384*
X12386Y03842*
X12384Y03847*
X12495Y03957*
X12497Y03961*
X12498Y03965*
Y04165*
X12497Y04169*
X12495Y04172*
X12491Y04174*
X12487Y04175*
X12388*
Y04225*
X12387Y04229*
X12386Y0423*
X12387Y04231*
X12388Y04235*
Y04264*
X12407*
X12408Y04259*
X12401Y04251*
X12397Y04241*
X12396Y04229*
X12397Y04218*
X12401Y04208*
X12409Y04199*
X12418Y04192*
X12428Y04187*
X12439Y04186*
X12451Y04187*
X12461Y04192*
X1247Y04199*
X12477Y04208*
X12482Y04218*
X12483Y04229*
X12482Y04241*
X12477Y04251*
X12471Y04259*
X12472Y04264*
X12487*
X12491Y04265*
X12495Y04268*
X12497Y04271*
X12498Y04275*
Y04505*
X12497Y04509*
X12495Y04512*
X12491Y04514*
X12487Y04515*
G37*
G36*
X10887D02*
X10557D01*
X10553Y04514*
X1055Y04512*
X1048Y04442*
X1047Y04432*
X10468Y04429*
X10467Y04425*
Y04245*
X10148*
X10144Y04244*
X1014Y04242*
X10138Y04239*
X10137Y04235*
Y04045*
X10138Y04041*
X10139Y0404*
X10138Y04038*
X10137Y04035*
Y03835*
X10138Y03831*
X10139Y0383*
X10138Y03829*
X10137Y03825*
Y03735*
X10138Y03731*
X10139Y0373*
X10138Y03729*
X10137Y03725*
Y03635*
X10138Y03631*
X1014Y03627*
Y03622*
X10138Y03619*
X10137Y03615*
Y03435*
X10138Y03431*
X10139Y0343*
X10138Y03429*
X10137Y03425*
Y03245*
X10138Y03241*
X1014Y03238*
Y03232*
X10138Y03229*
X10137Y03225*
Y03135*
X10138Y03131*
X10139Y03129*
X10138Y03129*
X10138Y03127*
X10137Y03125*
Y03038*
X10138Y03037*
X10138Y03035*
X10139Y03033*
X1014Y03031*
X10144Y03027*
X10145Y03026*
X10147Y03025*
X10149Y03025*
X10151Y03025*
X10383*
X10567Y0284*
Y02705*
X10568Y02701*
X1057Y02698*
X1062Y02648*
X10624Y02645*
X10627Y02644*
X10907*
X10911Y02645*
X10914Y02648*
X10917Y02651*
X10918Y02655*
Y0294*
Y02945*
X10917Y02949*
X10916Y02951*
X10914Y02952*
X10913Y02953*
X10911Y02954*
X10907Y02955*
X10859*
X10857Y0296*
X10861Y02962*
X1087Y02968*
X10877Y02977*
X10882Y02988*
X10883Y03*
X10882Y03011*
X10877Y03022*
X10871Y03029*
X10872Y03035*
X10887*
X10891Y03035*
X10895Y03038*
X10897Y03041*
X10898Y03045*
Y03235*
X10897Y03239*
X10895Y03242*
X10883Y03254*
Y03261*
X10876*
X10748Y03388*
X10751Y03392*
X10751*
X10767Y03388*
X10783Y03387*
X108Y03388*
X10816Y03392*
X10831Y03399*
X10845Y03407*
X10857Y03418*
X10868Y0343*
X10876Y03444*
X10883Y03459*
X10887Y03475*
X10888Y03491*
X10887Y03508*
X10883Y03524*
X10876Y03539*
X10868Y03553*
X10857Y03565*
X10845Y03575*
X10831Y03584*
X10816Y0359*
X108Y03594*
X10783Y03596*
X10767Y03594*
X10751Y0359*
X10736Y03584*
X10722Y03575*
X1071Y03565*
X10699Y03553*
X10691Y03539*
X10685Y03524*
X10681Y03508*
X10679Y03491*
X10681Y03475*
X10685Y03459*
Y03459*
X10681Y03456*
X10664Y03472*
X10517Y0362*
X10519Y03625*
X10557*
X10561Y03625*
X10564Y03627*
X10675Y03737*
X10679Y03735*
X10681Y03721*
X10685Y03705*
X10691Y0369*
X10699Y03676*
X1071Y03664*
X10722Y03653*
X10736Y03645*
X10751Y03638*
X10767Y03635*
X10783Y03633*
X108Y03635*
X10816Y03638*
X10831Y03645*
X10845Y03653*
X10857Y03664*
X10868Y03676*
X10876Y0369*
X10883Y03705*
X10887Y03721*
X10888Y03738*
X10887Y03754*
X10883Y0377*
X10876Y03785*
X10868Y03799*
X10857Y03811*
X10845Y03822*
X10831Y0383*
X10816Y03837*
X108Y0384*
X10786Y03842*
X10784Y03847*
X10895Y03957*
X10897Y03961*
X10898Y03965*
Y04165*
X10897Y04169*
X10895Y04172*
X10891Y04174*
X10887Y04175*
X10788*
Y04225*
X10787Y04229*
X10786Y0423*
X10787Y04231*
X10788Y04235*
Y04264*
X10807*
X10808Y04259*
X10801Y04251*
X10797Y04241*
X10796Y04229*
X10797Y04218*
X10801Y04208*
X10809Y04199*
X10818Y04192*
X10828Y04187*
X10839Y04186*
X10851Y04187*
X10861Y04192*
X1087Y04199*
X10877Y04208*
X10882Y04218*
X10883Y04229*
X10882Y04241*
X10877Y04251*
X10871Y04259*
X10872Y04264*
X10887*
X10891Y04265*
X10895Y04268*
X10897Y04271*
X10898Y04275*
Y04505*
X10897Y04509*
X10895Y04512*
X10891Y04514*
X10887Y04515*
G37*
G36*
X03429Y04325D02*
X03419Y04324D01*
X03409Y0432*
X03401Y04313*
X03394Y04305*
X0339Y04295*
X03389Y04285*
X0339Y04274*
X03394Y04264*
X03401Y04256*
X03409Y0425*
X03419Y04246*
X03429Y04244*
X0344Y04246*
X0345Y0425*
X03458Y04256*
X03464Y04264*
X03468Y04274*
X0347Y04285*
X03468Y04295*
X03464Y04305*
X03458Y04313*
X0345Y0432*
X0344Y04324*
X03429Y04325*
G37*
G36*
X0862Y04425D02*
X08609Y04424D01*
X08599Y0442*
X08591Y04413*
X08585Y04405*
X08581Y04395*
X08579Y04385*
X08581Y04374*
X08585Y04364*
X08591Y04356*
X08599Y0435*
X08609Y04346*
X0862Y04344*
X0863Y04346*
X0864Y0435*
X08648Y04356*
X08655Y04364*
X08659Y04374*
X0866Y04385*
X08659Y04395*
X08655Y04405*
X08648Y04413*
X0864Y0442*
X0863Y04424*
X0862Y04425*
G37*
G36*
X0722D02*
X07209Y04424D01*
X07199Y0442*
X07191Y04413*
X07185Y04405*
X07181Y04395*
X07179Y04385*
X07181Y04374*
X07185Y04364*
X07191Y04356*
X07199Y0435*
X07209Y04346*
X0722Y04344*
X0723Y04346*
X0724Y0435*
X07248Y04356*
X07255Y04364*
X07259Y04374*
X0726Y04385*
X07259Y04395*
X07255Y04405*
X07248Y04413*
X0724Y0442*
X0723Y04424*
X0722Y04425*
G37*
G36*
X1022D02*
X10209Y04424D01*
X10199Y0442*
X10191Y04413*
X10185Y04405*
X10181Y04395*
X10179Y04385*
X10181Y04374*
X10185Y04364*
X10191Y04356*
X10199Y0435*
X10209Y04346*
X1022Y04344*
X1023Y04346*
X1024Y0435*
X10248Y04356*
X10255Y04364*
X10259Y04374*
X1026Y04385*
X10259Y04395*
X10255Y04405*
X10248Y04413*
X1024Y0442*
X1023Y04424*
X1022Y04425*
G37*
G36*
X0882D02*
X08809Y04424D01*
X08799Y0442*
X08791Y04413*
X08785Y04405*
X08781Y04395*
X08779Y04385*
X08781Y04374*
X08785Y04364*
X08791Y04356*
X08799Y0435*
X08809Y04346*
X0882Y04344*
X0883Y04346*
X0884Y0435*
X08848Y04356*
X08855Y04364*
X08859Y04374*
X0886Y04385*
X08859Y04395*
X08855Y04405*
X08848Y04413*
X0884Y0442*
X0883Y04424*
X0882Y04425*
G37*
G36*
X0542D02*
X05409Y04424D01*
X05399Y0442*
X05391Y04413*
X05385Y04405*
X05381Y04395*
X05379Y04385*
X05381Y04374*
X05385Y04364*
X05391Y04356*
X05399Y0435*
X05409Y04346*
X0542Y04344*
X0543Y04346*
X0544Y0435*
X05448Y04356*
X05455Y04364*
X05459Y04374*
X0546Y04385*
X05459Y04395*
X05455Y04405*
X05448Y04413*
X0544Y0442*
X0543Y04424*
X0542Y04425*
G37*
G36*
X03229D02*
X03219Y04424D01*
X03209Y0442*
X03201Y04413*
X03194Y04405*
X0319Y04395*
X03189Y04385*
X0319Y04374*
X03194Y04364*
X03201Y04356*
X03209Y0435*
X03219Y04346*
X03229Y04344*
X0324Y04346*
X0325Y0435*
X03258Y04356*
X03264Y04364*
X03268Y04374*
X0327Y04385*
X03268Y04395*
X03264Y04405*
X03258Y04413*
X0325Y0442*
X0324Y04424*
X03229Y04425*
G37*
G36*
X0702D02*
X07009Y04424D01*
X06999Y0442*
X06991Y04413*
X06985Y04405*
X06981Y04395*
X06979Y04385*
X06981Y04374*
X06985Y04364*
X06991Y04356*
X06999Y0435*
X07009Y04346*
X0702Y04344*
X0703Y04346*
X0704Y0435*
X07048Y04356*
X07055Y04364*
X07059Y04374*
X0706Y04385*
X07059Y04395*
X07055Y04405*
X07048Y04413*
X0704Y0442*
X0703Y04424*
X0702Y04425*
G37*
G36*
X0562D02*
X05609Y04424D01*
X05599Y0442*
X05591Y04413*
X05585Y04405*
X05581Y04395*
X05579Y04385*
X05581Y04374*
X05585Y04364*
X05591Y04356*
X05599Y0435*
X05609Y04346*
X0562Y04344*
X0563Y04346*
X0564Y0435*
X05648Y04356*
X05655Y04364*
X05659Y04374*
X0566Y04385*
X05659Y04395*
X05655Y04405*
X05648Y04413*
X0564Y0442*
X0563Y04424*
X0562Y04425*
G37*
G36*
X10783Y04825D02*
X10767Y04824D01*
X10751Y0482*
X10736Y04814*
X10722Y04806*
X1071Y04795*
X10699Y04783*
X10691Y04769*
X10685Y04753*
X10681Y04738*
X10679Y04722*
X10681Y04705*
X10685Y04689*
X10691Y04674*
X10699Y0466*
X1071Y04648*
X10722Y04637*
X10736Y04629*
X10751Y04622*
X10767Y04619*
X10783Y04617*
X108Y04619*
X10816Y04622*
X10831Y04629*
X10845Y04637*
X10857Y04648*
X10868Y0466*
X10876Y04674*
X10883Y04689*
X10887Y04705*
X10888Y04722*
X10887Y04738*
X10883Y04753*
X10876Y04769*
X10868Y04783*
X10857Y04795*
X10845Y04806*
X10831Y04814*
X10816Y0482*
X108Y04824*
X10783Y04825*
G37*
G36*
X09183D02*
X09167Y04824D01*
X09151Y0482*
X09136Y04814*
X09122Y04806*
X0911Y04795*
X09099Y04783*
X09091Y04769*
X09085Y04753*
X09081Y04738*
X09079Y04722*
X09081Y04705*
X09085Y04689*
X09091Y04674*
X09099Y0466*
X0911Y04648*
X09122Y04637*
X09136Y04629*
X09151Y04622*
X09167Y04619*
X09183Y04617*
X092Y04619*
X09216Y04622*
X09231Y04629*
X09245Y04637*
X09257Y04648*
X09268Y0466*
X09276Y04674*
X09283Y04689*
X09287Y04705*
X09288Y04722*
X09287Y04738*
X09283Y04753*
X09276Y04769*
X09268Y04783*
X09257Y04795*
X09245Y04806*
X09231Y04814*
X09216Y0482*
X092Y04824*
X09183Y04825*
G37*
G36*
X13983D02*
X13967Y04824D01*
X13951Y0482*
X13936Y04814*
X13922Y04806*
X1391Y04795*
X13899Y04783*
X13891Y04769*
X13885Y04753*
X13881Y04738*
X13879Y04722*
X13881Y04705*
X13885Y04689*
X13891Y04674*
X13899Y0466*
X1391Y04648*
X13922Y04637*
X13936Y04629*
X13951Y04622*
X13967Y04619*
X13983Y04617*
X14Y04619*
X14016Y04622*
X14031Y04629*
X14045Y04637*
X14057Y04648*
X14068Y0466*
X14076Y04674*
X14083Y04689*
X14087Y04705*
X14088Y04722*
X14087Y04738*
X14083Y04753*
X14076Y04769*
X14068Y04783*
X14057Y04795*
X14045Y04806*
X14031Y04814*
X14016Y0482*
X14Y04824*
X13983Y04825*
G37*
G36*
X12383D02*
X12367Y04824D01*
X12351Y0482*
X12336Y04814*
X12322Y04806*
X1231Y04795*
X12299Y04783*
X12291Y04769*
X12285Y04753*
X12281Y04738*
X12279Y04722*
X12281Y04705*
X12285Y04689*
X12291Y04674*
X12299Y0466*
X1231Y04648*
X12322Y04637*
X12336Y04629*
X12351Y04622*
X12367Y04619*
X12383Y04617*
X124Y04619*
X12416Y04622*
X12431Y04629*
X12445Y04637*
X12457Y04648*
X12468Y0466*
X12476Y04674*
X12483Y04689*
X12487Y04705*
X12488Y04722*
X12487Y04738*
X12483Y04753*
X12476Y04769*
X12468Y04783*
X12457Y04795*
X12445Y04806*
X12431Y04814*
X12416Y0482*
X124Y04824*
X12383Y04825*
G37*
G36*
X1662Y04625D02*
X16609Y04624D01*
X16599Y0462*
X16591Y04613*
X16585Y04605*
X16581Y04595*
X16579Y04585*
X16581Y04574*
X16585Y04564*
X16591Y04556*
X16599Y0455*
X16609Y04546*
X1662Y04544*
X1663Y04546*
X1664Y0455*
X16648Y04556*
X16655Y04564*
X16659Y04574*
X1666Y04585*
X16659Y04595*
X16655Y04605*
X16648Y04613*
X1664Y0462*
X1663Y04624*
X1662Y04625*
G37*
G36*
X1502D02*
X15009Y04624D01*
X14999Y0462*
X14991Y04613*
X14985Y04605*
X14981Y04595*
X14979Y04585*
X14981Y04574*
X14985Y04564*
X14991Y04556*
X14999Y0455*
X15009Y04546*
X1502Y04544*
X1503Y04546*
X1504Y0455*
X15048Y04556*
X15055Y04564*
X15059Y04574*
X1506Y04585*
X15059Y04595*
X15055Y04605*
X15048Y04613*
X1504Y0462*
X1503Y04624*
X1502Y04625*
G37*
G36*
X07583Y04825D02*
X07567Y04824D01*
X07551Y0482*
X07536Y04814*
X07522Y04806*
X0751Y04795*
X07499Y04783*
X07491Y04769*
X07485Y04753*
X07481Y04738*
X07479Y04722*
X07481Y04705*
X07485Y04689*
X07491Y04674*
X07499Y0466*
X0751Y04648*
X07522Y04637*
X07536Y04629*
X07551Y04622*
X07567Y04619*
X07583Y04617*
X076Y04619*
X07616Y04622*
X07631Y04629*
X07645Y04637*
X07657Y04648*
X07668Y0466*
X07676Y04674*
X07683Y04689*
X07687Y04705*
X07688Y04722*
X07687Y04738*
X07683Y04753*
X07676Y04769*
X07668Y04783*
X07657Y04795*
X07645Y04806*
X07631Y04814*
X07616Y0482*
X076Y04824*
X07583Y04825*
G37*
G36*
X05983D02*
X05967Y04824D01*
X05951Y0482*
X05936Y04814*
X05922Y04806*
X0591Y04795*
X05899Y04783*
X05891Y04769*
X05885Y04753*
X05881Y04738*
X05879Y04722*
X05881Y04705*
X05885Y04689*
X05891Y04674*
X05899Y0466*
X0591Y04648*
X05922Y04637*
X05936Y04629*
X05951Y04622*
X05967Y04619*
X05983Y04617*
X06Y04619*
X06016Y04622*
X06031Y04629*
X06045Y04637*
X06057Y04648*
X06068Y0466*
X06076Y04674*
X06083Y04689*
X06087Y04705*
X06088Y04722*
X06087Y04738*
X06083Y04753*
X06076Y04769*
X06068Y04783*
X06057Y04795*
X06045Y04806*
X06031Y04814*
X06016Y0482*
X06Y04824*
X05983Y04825*
G37*
G36*
X15583D02*
X15567Y04824D01*
X15551Y0482*
X15536Y04814*
X15522Y04806*
X1551Y04795*
X15499Y04783*
X15491Y04769*
X15485Y04753*
X15481Y04738*
X15479Y04722*
X15481Y04705*
X15485Y04689*
X15491Y04674*
X15499Y0466*
X1551Y04648*
X15522Y04637*
X15536Y04629*
X15551Y04622*
X15567Y04619*
X15583Y04617*
X156Y04619*
X15616Y04622*
X15631Y04629*
X15645Y04637*
X15657Y04648*
X15668Y0466*
X15676Y04674*
X15683Y04689*
X15687Y04705*
X15688Y04722*
X15687Y04738*
X15683Y04753*
X15676Y04769*
X15668Y04783*
X15657Y04795*
X15645Y04806*
X15631Y04814*
X15616Y0482*
X156Y04824*
X15583Y04825*
G37*
G36*
X1022Y04725D02*
X10209Y04724D01*
X10199Y0472*
X10191Y04713*
X10185Y04705*
X10181Y04695*
X10179Y04685*
X10181Y04674*
X10185Y04664*
X10191Y04656*
X10199Y0465*
X10209Y04646*
X1022Y04644*
X1023Y04646*
X1024Y0465*
X10248Y04656*
X10255Y04664*
X10259Y04674*
X1026Y04685*
X10259Y04695*
X10255Y04705*
X10248Y04713*
X1024Y0472*
X1023Y04724*
X1022Y04725*
G37*
G36*
X0862D02*
X08609Y04724D01*
X08599Y0472*
X08591Y04713*
X08585Y04705*
X08581Y04695*
X08579Y04685*
X08581Y04674*
X08585Y04664*
X08591Y04656*
X08599Y0465*
X08609Y04646*
X0862Y04644*
X0863Y04646*
X0864Y0465*
X08648Y04656*
X08655Y04664*
X08659Y04674*
X0866Y04685*
X08659Y04695*
X08655Y04705*
X08648Y04713*
X0864Y0472*
X0863Y04724*
X0862Y04725*
G37*
G36*
X1342D02*
X13409Y04724D01*
X13399Y0472*
X13391Y04713*
X13385Y04705*
X13381Y04695*
X13379Y04685*
X13381Y04674*
X13385Y04664*
X13391Y04656*
X13399Y0465*
X13409Y04646*
X1342Y04644*
X1343Y04646*
X1344Y0465*
X13448Y04656*
X13455Y04664*
X13459Y04674*
X1346Y04685*
X13459Y04695*
X13455Y04705*
X13448Y04713*
X1344Y0472*
X1343Y04724*
X1342Y04725*
G37*
G36*
X1182D02*
X11809Y04724D01*
X11799Y0472*
X11791Y04713*
X11785Y04705*
X11781Y04695*
X11779Y04685*
X11781Y04674*
X11785Y04664*
X11791Y04656*
X11799Y0465*
X11809Y04646*
X1182Y04644*
X1183Y04646*
X1184Y0465*
X11848Y04656*
X11855Y04664*
X11859Y04674*
X1186Y04685*
X11859Y04695*
X11855Y04705*
X11848Y04713*
X1184Y0472*
X1183Y04724*
X1182Y04725*
G37*
G36*
X03229D02*
X03219Y04724D01*
X03209Y0472*
X03201Y04713*
X03194Y04705*
X0319Y04695*
X03189Y04685*
X0319Y04674*
X03194Y04664*
X03201Y04656*
X03209Y0465*
X03219Y04646*
X03229Y04644*
X0324Y04646*
X0325Y0465*
X03258Y04656*
X03264Y04664*
X03268Y04674*
X0327Y04685*
X03268Y04695*
X03264Y04705*
X03258Y04713*
X0325Y0472*
X0324Y04724*
X03229Y04725*
G37*
G36*
X17183Y04825D02*
X17167Y04824D01*
X17151Y0482*
X17136Y04814*
X17122Y04806*
X1711Y04795*
X17099Y04783*
X17091Y04769*
X17085Y04753*
X17081Y04738*
X17079Y04722*
X17081Y04705*
X17085Y04689*
X17091Y04674*
X17099Y0466*
X1711Y04648*
X17122Y04637*
X17136Y04629*
X17151Y04622*
X17167Y04619*
X17183Y04617*
X172Y04619*
X17216Y04622*
X17231Y04629*
X17245Y04637*
X17257Y04648*
X17268Y0466*
X17276Y04674*
X17283Y04689*
X17287Y04705*
X17288Y04722*
X17287Y04738*
X17283Y04753*
X17276Y04769*
X17268Y04783*
X17257Y04795*
X17245Y04806*
X17231Y04814*
X17216Y0482*
X172Y04824*
X17183Y04825*
G37*
G36*
X0702Y04725D02*
X07009Y04724D01*
X06999Y0472*
X06991Y04713*
X06985Y04705*
X06981Y04695*
X06979Y04685*
X06981Y04674*
X06985Y04664*
X06991Y04656*
X06999Y0465*
X07009Y04646*
X0702Y04644*
X0703Y04646*
X0704Y0465*
X07048Y04656*
X07055Y04664*
X07059Y04674*
X0706Y04685*
X07059Y04695*
X07055Y04705*
X07048Y04713*
X0704Y0472*
X0703Y04724*
X0702Y04725*
G37*
G36*
X0542D02*
X05409Y04724D01*
X05399Y0472*
X05391Y04713*
X05385Y04705*
X05381Y04695*
X05379Y04685*
X05381Y04674*
X05385Y04664*
X05391Y04656*
X05399Y0465*
X05409Y04646*
X0542Y04644*
X0543Y04646*
X0544Y0465*
X05448Y04656*
X05455Y04664*
X05459Y04674*
X0546Y04685*
X05459Y04695*
X05455Y04705*
X05448Y04713*
X0544Y0472*
X0543Y04724*
X0542Y04725*
G37*
G36*
X1502Y04525D02*
X15009Y04524D01*
X14999Y0452*
X14991Y04513*
X14985Y04505*
X14981Y04495*
X14979Y04485*
X14981Y04474*
X14985Y04464*
X14991Y04456*
X14999Y0445*
X15009Y04446*
X1502Y04444*
X1503Y04446*
X1504Y0445*
X15048Y04456*
X15055Y04464*
X15059Y04474*
X1506Y04485*
X15059Y04495*
X15055Y04505*
X15048Y04513*
X1504Y0452*
X1503Y04524*
X1502Y04525*
G37*
G36*
X1362D02*
X13609Y04524D01*
X13599Y0452*
X13591Y04513*
X13585Y04505*
X13581Y04495*
X13579Y04485*
X13581Y04474*
X13585Y04464*
X13591Y04456*
X13599Y0445*
X13609Y04446*
X1362Y04444*
X1363Y04446*
X1364Y0445*
X13648Y04456*
X13655Y04464*
X13659Y04474*
X1366Y04485*
X13659Y04495*
X13655Y04505*
X13648Y04513*
X1364Y0452*
X1363Y04524*
X1362Y04525*
G37*
G36*
X1662D02*
X16609Y04524D01*
X16599Y0452*
X16591Y04513*
X16585Y04505*
X16581Y04495*
X16579Y04485*
X16581Y04474*
X16585Y04464*
X16591Y04456*
X16599Y0445*
X16609Y04446*
X1662Y04444*
X1663Y04446*
X1664Y0445*
X16648Y04456*
X16655Y04464*
X16659Y04474*
X1666Y04485*
X16659Y04495*
X16655Y04505*
X16648Y04513*
X1664Y0452*
X1663Y04524*
X1662Y04525*
G37*
G36*
X1522D02*
X15209Y04524D01*
X15199Y0452*
X15191Y04513*
X15185Y04505*
X15181Y04495*
X15179Y04485*
X15181Y04474*
X15185Y04464*
X15191Y04456*
X15199Y0445*
X15209Y04446*
X1522Y04444*
X1523Y04446*
X1524Y0445*
X15248Y04456*
X15255Y04464*
X15259Y04474*
X1526Y04485*
X15259Y04495*
X15255Y04505*
X15248Y04513*
X1524Y0452*
X1523Y04524*
X1522Y04525*
G37*
G36*
X1182D02*
X11809Y04524D01*
X11799Y0452*
X11791Y04513*
X11785Y04505*
X11781Y04495*
X11779Y04485*
X11781Y04474*
X11785Y04464*
X11791Y04456*
X11799Y0445*
X11809Y04446*
X1182Y04444*
X1183Y04446*
X1184Y0445*
X11848Y04456*
X11855Y04464*
X11859Y04474*
X1186Y04485*
X11859Y04495*
X11855Y04505*
X11848Y04513*
X1184Y0452*
X1183Y04524*
X1182Y04525*
G37*
G36*
X1042D02*
X10409Y04524D01*
X10399Y0452*
X10391Y04513*
X10385Y04505*
X10381Y04495*
X10379Y04485*
X10381Y04474*
X10385Y04464*
X10391Y04456*
X10399Y0445*
X10409Y04446*
X1042Y04444*
X1043Y04446*
X1044Y0445*
X10448Y04456*
X10455Y04464*
X10459Y04474*
X1046Y04485*
X10459Y04495*
X10455Y04505*
X10448Y04513*
X1044Y0452*
X1043Y04524*
X1042Y04525*
G37*
G36*
X1342D02*
X13409Y04524D01*
X13399Y0452*
X13391Y04513*
X13385Y04505*
X13381Y04495*
X13379Y04485*
X13381Y04474*
X13385Y04464*
X13391Y04456*
X13399Y0445*
X13409Y04446*
X1342Y04444*
X1343Y04446*
X1344Y0445*
X13448Y04456*
X13455Y04464*
X13459Y04474*
X1346Y04485*
X13459Y04495*
X13455Y04505*
X13448Y04513*
X1344Y0452*
X1343Y04524*
X1342Y04525*
G37*
G36*
X1202D02*
X12009Y04524D01*
X11999Y0452*
X11991Y04513*
X11985Y04505*
X11981Y04495*
X11979Y04485*
X11981Y04474*
X11985Y04464*
X11991Y04456*
X11999Y0445*
X12009Y04446*
X1202Y04444*
X1203Y04446*
X1204Y0445*
X12048Y04456*
X12055Y04464*
X12059Y04474*
X1206Y04485*
X12059Y04495*
X12055Y04505*
X12048Y04513*
X1204Y0452*
X1203Y04524*
X1202Y04525*
G37*
G36*
X1682D02*
X16809Y04524D01*
X16799Y0452*
X16791Y04513*
X16785Y04505*
X16781Y04495*
X16779Y04485*
X16781Y04474*
X16785Y04464*
X16791Y04456*
X16799Y0445*
X16809Y04446*
X1682Y04444*
X1683Y04446*
X1684Y0445*
X16848Y04456*
X16855Y04464*
X16859Y04474*
X1686Y04485*
X16859Y04495*
X16855Y04505*
X16848Y04513*
X1684Y0452*
X1683Y04524*
X1682Y04525*
G37*
G36*
X1022Y04625D02*
X10209Y04624D01*
X10199Y0462*
X10191Y04613*
X10185Y04605*
X10181Y04595*
X10179Y04585*
X10181Y04574*
X10185Y04564*
X10191Y04556*
X10199Y0455*
X10209Y04546*
X1022Y04544*
X1023Y04546*
X1024Y0455*
X10248Y04556*
X10255Y04564*
X10259Y04574*
X1026Y04585*
X10259Y04595*
X10255Y04605*
X10248Y04613*
X1024Y0462*
X1023Y04624*
X1022Y04625*
G37*
G36*
X0862D02*
X08609Y04624D01*
X08599Y0462*
X08591Y04613*
X08585Y04605*
X08581Y04595*
X08579Y04585*
X08581Y04574*
X08585Y04564*
X08591Y04556*
X08599Y0455*
X08609Y04546*
X0862Y04544*
X0863Y04546*
X0864Y0455*
X08648Y04556*
X08655Y04564*
X08659Y04574*
X0866Y04585*
X08659Y04595*
X08655Y04605*
X08648Y04613*
X0864Y0462*
X0863Y04624*
X0862Y04625*
G37*
G36*
X1342D02*
X13409Y04624D01*
X13399Y0462*
X13391Y04613*
X13385Y04605*
X13381Y04595*
X13379Y04585*
X13381Y04574*
X13385Y04564*
X13391Y04556*
X13399Y0455*
X13409Y04546*
X1342Y04544*
X1343Y04546*
X1344Y0455*
X13448Y04556*
X13455Y04564*
X13459Y04574*
X1346Y04585*
X13459Y04595*
X13455Y04605*
X13448Y04613*
X1344Y0462*
X1343Y04624*
X1342Y04625*
G37*
G36*
X1182D02*
X11809Y04624D01*
X11799Y0462*
X11791Y04613*
X11785Y04605*
X11781Y04595*
X11779Y04585*
X11781Y04574*
X11785Y04564*
X11791Y04556*
X11799Y0455*
X11809Y04546*
X1182Y04544*
X1183Y04546*
X1184Y0455*
X11848Y04556*
X11855Y04564*
X11859Y04574*
X1186Y04585*
X11859Y04595*
X11855Y04605*
X11848Y04613*
X1184Y0462*
X1183Y04624*
X1182Y04625*
G37*
G36*
X03429D02*
X03419Y04624D01*
X03409Y0462*
X03401Y04613*
X03394Y04605*
X0339Y04595*
X03389Y04585*
X0339Y04574*
X03394Y04564*
X03401Y04556*
X03409Y0455*
X03419Y04546*
X03429Y04544*
X0344Y04546*
X0345Y0455*
X03458Y04556*
X03464Y04564*
X03468Y04574*
X0347Y04585*
X03468Y04595*
X03464Y04605*
X03458Y04613*
X0345Y0462*
X0344Y04624*
X03429Y04625*
G37*
G36*
X03229D02*
X03219Y04624D01*
X03209Y0462*
X03201Y04613*
X03194Y04605*
X0319Y04595*
X03189Y04585*
X0319Y04574*
X03194Y04564*
X03201Y04556*
X03209Y0455*
X03219Y04546*
X03229Y04544*
X0324Y04546*
X0325Y0455*
X03258Y04556*
X03264Y04564*
X03268Y04574*
X0327Y04585*
X03268Y04595*
X03264Y04605*
X03258Y04613*
X0325Y0462*
X0324Y04624*
X03229Y04625*
G37*
G36*
X0702D02*
X07009Y04624D01*
X06999Y0462*
X06991Y04613*
X06985Y04605*
X06981Y04595*
X06979Y04585*
X06981Y04574*
X06985Y04564*
X06991Y04556*
X06999Y0455*
X07009Y04546*
X0702Y04544*
X0703Y04546*
X0704Y0455*
X07048Y04556*
X07055Y04564*
X07059Y04574*
X0706Y04585*
X07059Y04595*
X07055Y04605*
X07048Y04613*
X0704Y0462*
X0703Y04624*
X0702Y04625*
G37*
G36*
X0542D02*
X05409Y04624D01*
X05399Y0462*
X05391Y04613*
X05385Y04605*
X05381Y04595*
X05379Y04585*
X05381Y04574*
X05385Y04564*
X05391Y04556*
X05399Y0455*
X05409Y04546*
X0542Y04544*
X0543Y04546*
X0544Y0455*
X05448Y04556*
X05455Y04564*
X05459Y04574*
X0546Y04585*
X05459Y04595*
X05455Y04605*
X05448Y04613*
X0544Y0462*
X0543Y04624*
X0542Y04625*
G37*
G36*
X0609Y0452D02*
X05759D01*
X05755Y04519*
X05752Y04517*
X05682Y04447*
X05672Y04437*
X0567Y04433*
X05669Y04429*
Y0425*
X0535*
X05346Y04249*
X05342Y04247*
X0534Y04244*
X05339Y0424*
Y0405*
X0534Y04046*
X05341Y04044*
X0534Y04043*
X05339Y04039*
Y0384*
X0534Y03836*
X05341Y03835*
X0534Y03833*
X05339Y03829*
Y0374*
X0534Y03736*
X05341Y03735*
X0534Y03733*
X05339Y03729*
Y0364*
X0534Y03636*
X05342Y03632*
Y03627*
X0534Y03624*
X05339Y0362*
Y0344*
X0534Y03436*
X05341Y03435*
X0534Y03433*
X05339Y03429*
Y0325*
X0534Y03246*
X05342Y03242*
Y03237*
X0534Y03233*
X05339Y03229*
Y0314*
X0534Y03136*
X05341Y03134*
X0534Y03133*
Y03133*
X0534Y03131*
X0534Y03129*
X05339Y03043*
X0534Y03041*
X0534Y03039*
X05341Y03037*
X05342Y03036*
X05346Y03032*
X05348Y03031*
X05349Y0303*
Y0303*
X05351Y03029*
X05353Y03029*
Y03029*
Y03029*
X05585*
X05769Y02845*
Y02709*
X0577Y02705*
X05772Y02702*
X05822Y02652*
X05825Y0265*
X05829Y02649*
X06109*
X06113Y0265*
X06117Y02652*
X06119Y02655*
X0612Y02659*
Y02944*
Y0295*
X06119Y02953*
X06118Y02955*
X06117Y02957*
X06115Y02958*
X06113Y02959*
X06109Y0296*
X06067*
X06065Y02965*
X0607Y02968*
X06077Y02977*
X06082Y02988*
X06083Y03*
X06082Y03011*
X06077Y03022*
X0607Y03031*
X06065Y03034*
X06067Y03039*
X0609*
X06094Y0304*
X06097Y03042*
X06099Y03046*
X061Y0305*
Y0324*
X06099Y03244*
X06097Y03247*
X06083Y03261*
X05958Y03386*
X05961Y0339*
X05967Y03388*
X05983Y03387*
X06Y03388*
X06016Y03392*
X06031Y03399*
X06045Y03407*
X06057Y03418*
X06068Y0343*
X06076Y03444*
X06083Y03459*
X06087Y03475*
X06088Y03491*
X06087Y03508*
X06083Y03524*
X06076Y03539*
X06068Y03553*
X06057Y03565*
X06045Y03575*
X06031Y03584*
X06016Y0359*
X06Y03594*
X05983Y03596*
X05967Y03594*
X05951Y0359*
X05936Y03584*
X05922Y03575*
X0591Y03565*
X05899Y03553*
X05891Y03539*
X05885Y03524*
X05881Y03508*
X05879Y03491*
X05881Y03475*
X05882Y03468*
X05878Y03466*
X05867Y03477*
X05719Y03624*
X05722Y03629*
X05759*
X05763Y0363*
X05767Y03632*
X05875Y0374*
X05879Y03738*
Y03738*
X05881Y03721*
X05885Y03705*
X05891Y0369*
X05899Y03676*
X0591Y03664*
X05922Y03653*
X05936Y03645*
X05951Y03638*
X05967Y03635*
X05983Y03633*
X06Y03635*
X06016Y03638*
X06031Y03645*
X06045Y03653*
X06057Y03664*
X06068Y03676*
X06076Y0369*
X06083Y03705*
X06087Y03721*
X06088Y03738*
X06087Y03754*
X06083Y0377*
X06076Y03785*
X06068Y03799*
X06057Y03811*
X06045Y03822*
X06031Y0383*
X06016Y03837*
X06Y0384*
X05983Y03842*
X05983*
X05981Y03846*
X06097Y03962*
X06099Y03966*
X061Y0397*
Y0417*
X06099Y04174*
X06097Y04177*
X06094Y04179*
X0609Y0418*
X0599*
Y04229*
X05989Y04233*
X05988Y04235*
X05989Y04236*
X0599Y0424*
Y04269*
X06012*
X06013Y04264*
X06009Y04261*
X06001Y04251*
X05997Y04241*
X05996Y04229*
X05997Y04218*
X06001Y04208*
X06009Y04199*
X06018Y04192*
X06028Y04187*
X06039Y04186*
X06051Y04187*
X06061Y04192*
X0607Y04199*
X06077Y04208*
X06082Y04218*
X06083Y04229*
X06082Y04241*
X06077Y04251*
X0607Y04261*
X06065Y04264*
X06067Y04269*
X0609*
X06094Y0427*
X06097Y04272*
X06099Y04275*
X061Y04279*
Y04509*
X06099Y04513*
X06097Y04517*
X06094Y04519*
X0609Y0452*
G37*
G36*
X10729Y02318D02*
X10712Y02316D01*
X10695Y02311*
X1068Y02303*
X10666Y02292*
X10655Y02278*
X10647Y02262*
X10642Y02246*
X1064Y02229*
X10642Y02211*
X10647Y02194*
X10655Y02179*
X10666Y02165*
X1068Y02154*
X10695Y02146*
X10712Y02141*
X10729Y02139*
X10747Y02141*
X10764Y02146*
X10779Y02154*
X10792Y02165*
X10804Y02179*
X10812Y02194*
X10817Y02211*
X10819Y02229*
X10817Y02246*
X10812Y02262*
X10804Y02278*
X10792Y02292*
X10779Y02303*
X10764Y02311*
X10747Y02316*
X10729Y02318*
G37*
G36*
X10329D02*
X10312Y02316D01*
X10295Y02311*
X1028Y02303*
X10266Y02292*
X10255Y02278*
X10247Y02262*
X10242Y02246*
X1024Y02229*
X10242Y02211*
X10247Y02194*
X10255Y02179*
X10266Y02165*
X1028Y02154*
X10295Y02146*
X10312Y02141*
X10329Y02139*
X10347Y02141*
X10364Y02146*
X10379Y02154*
X10392Y02165*
X10404Y02179*
X10412Y02194*
X10417Y02211*
X10419Y02229*
X10417Y02246*
X10412Y02262*
X10404Y02278*
X10392Y02292*
X10379Y02303*
X10364Y02311*
X10347Y02316*
X10329Y02318*
G37*
G36*
X11529D02*
X11512Y02316D01*
X11495Y02311*
X1148Y02303*
X11466Y02292*
X11455Y02278*
X11447Y02262*
X11442Y02246*
X1144Y02229*
X11442Y02211*
X11447Y02194*
X11455Y02179*
X11466Y02165*
X1148Y02154*
X11495Y02146*
X11512Y02141*
X11529Y02139*
X11547Y02141*
X11564Y02146*
X11579Y02154*
X11592Y02165*
X11604Y02179*
X11612Y02194*
X11617Y02211*
X11619Y02229*
X11617Y02246*
X11612Y02262*
X11604Y02278*
X11592Y02292*
X11579Y02303*
X11564Y02311*
X11547Y02316*
X11529Y02318*
G37*
G36*
X11129D02*
X11112Y02316D01*
X11095Y02311*
X1108Y02303*
X11066Y02292*
X11055Y02278*
X11047Y02262*
X11042Y02246*
X1104Y02229*
X11042Y02211*
X11047Y02194*
X11055Y02179*
X11066Y02165*
X1108Y02154*
X11095Y02146*
X11112Y02141*
X11129Y02139*
X11147Y02141*
X11164Y02146*
X11179Y02154*
X11192Y02165*
X11204Y02179*
X11212Y02194*
X11217Y02211*
X11219Y02229*
X11217Y02246*
X11212Y02262*
X11204Y02278*
X11192Y02292*
X11179Y02303*
X11164Y02311*
X11147Y02316*
X11129Y02318*
G37*
G36*
X09129D02*
X09112Y02316D01*
X09095Y02311*
X0908Y02303*
X09066Y02292*
X09055Y02278*
X09047Y02262*
X09042Y02246*
X0904Y02229*
X09042Y02211*
X09047Y02194*
X09055Y02179*
X09066Y02165*
X0908Y02154*
X09095Y02146*
X09112Y02141*
X09129Y02139*
X09147Y02141*
X09164Y02146*
X09179Y02154*
X09192Y02165*
X09204Y02179*
X09212Y02194*
X09217Y02211*
X09219Y02229*
X09217Y02246*
X09212Y02262*
X09204Y02278*
X09192Y02292*
X09179Y02303*
X09164Y02311*
X09147Y02316*
X09129Y02318*
G37*
G36*
X08729D02*
X08712Y02316D01*
X08695Y02311*
X0868Y02303*
X08666Y02292*
X08655Y02278*
X08647Y02262*
X08642Y02246*
X0864Y02229*
X08642Y02211*
X08647Y02194*
X08655Y02179*
X08666Y02165*
X0868Y02154*
X08695Y02146*
X08712Y02141*
X08729Y02139*
X08747Y02141*
X08764Y02146*
X08779Y02154*
X08792Y02165*
X08804Y02179*
X08812Y02194*
X08817Y02211*
X08819Y02229*
X08817Y02246*
X08812Y02262*
X08804Y02278*
X08792Y02292*
X08779Y02303*
X08764Y02311*
X08747Y02316*
X08729Y02318*
G37*
G36*
X09929D02*
X09912Y02316D01*
X09895Y02311*
X0988Y02303*
X09866Y02292*
X09855Y02278*
X09847Y02262*
X09842Y02246*
X0984Y02229*
X09842Y02211*
X09847Y02194*
X09855Y02179*
X09866Y02165*
X0988Y02154*
X09895Y02146*
X09912Y02141*
X09929Y02139*
X09947Y02141*
X09964Y02146*
X09979Y02154*
X09992Y02165*
X10004Y02179*
X10012Y02194*
X10017Y02211*
X10019Y02229*
X10017Y02246*
X10012Y02262*
X10004Y02278*
X09992Y02292*
X09979Y02303*
X09964Y02311*
X09947Y02316*
X09929Y02318*
G37*
G36*
X09529D02*
X09512Y02316D01*
X09495Y02311*
X0948Y02303*
X09466Y02292*
X09455Y02278*
X09447Y02262*
X09442Y02246*
X0944Y02229*
X09442Y02211*
X09447Y02194*
X09455Y02179*
X09466Y02165*
X0948Y02154*
X09495Y02146*
X09512Y02141*
X09529Y02139*
X09547Y02141*
X09564Y02146*
X09579Y02154*
X09592Y02165*
X09604Y02179*
X09612Y02194*
X09617Y02211*
X09619Y02229*
X09617Y02246*
X09612Y02262*
X09604Y02278*
X09592Y02292*
X09579Y02303*
X09564Y02311*
X09547Y02316*
X09529Y02318*
G37*
G36*
X11929D02*
X11912Y02316D01*
X11895Y02311*
X1188Y02303*
X11866Y02292*
X11855Y02278*
X11847Y02262*
X11842Y02246*
X1184Y02229*
X11842Y02211*
X11847Y02194*
X11855Y02179*
X11866Y02165*
X1188Y02154*
X11895Y02146*
X11912Y02141*
X11929Y02139*
X11947Y02141*
X11964Y02146*
X11979Y02154*
X11992Y02165*
X12004Y02179*
X12012Y02194*
X12017Y02211*
X12019Y02229*
X12017Y02246*
X12012Y02262*
X12004Y02278*
X11992Y02292*
X11979Y02303*
X11964Y02311*
X11947Y02316*
X11929Y02318*
G37*
G36*
X14329D02*
X14312Y02316D01*
X14295Y02311*
X1428Y02303*
X14266Y02292*
X14255Y02278*
X14247Y02262*
X14242Y02246*
X1424Y02229*
X14242Y02211*
X14247Y02194*
X14255Y02179*
X14266Y02165*
X1428Y02154*
X14295Y02146*
X14312Y02141*
X14329Y02139*
X14347Y02141*
X14364Y02146*
X14379Y02154*
X14392Y02165*
X14404Y02179*
X14412Y02194*
X14417Y02211*
X14419Y02229*
X14417Y02246*
X14412Y02262*
X14404Y02278*
X14392Y02292*
X14379Y02303*
X14364Y02311*
X14347Y02316*
X14329Y02318*
G37*
G36*
X13929D02*
X13912Y02316D01*
X13895Y02311*
X1388Y02303*
X13866Y02292*
X13855Y02278*
X13847Y02262*
X13842Y02246*
X1384Y02229*
X13842Y02211*
X13847Y02194*
X13855Y02179*
X13866Y02165*
X1388Y02154*
X13895Y02146*
X13912Y02141*
X13929Y02139*
X13947Y02141*
X13964Y02146*
X13979Y02154*
X13992Y02165*
X14004Y02179*
X14012Y02194*
X14017Y02211*
X14019Y02229*
X14017Y02246*
X14012Y02262*
X14004Y02278*
X13992Y02292*
X13979Y02303*
X13964Y02311*
X13947Y02316*
X13929Y02318*
G37*
G36*
X15129D02*
X15112Y02316D01*
X15095Y02311*
X1508Y02303*
X15066Y02292*
X15055Y02278*
X15047Y02262*
X15042Y02246*
X1504Y02229*
X15042Y02211*
X15047Y02194*
X15055Y02179*
X15066Y02165*
X1508Y02154*
X15095Y02146*
X15112Y02141*
X15129Y02139*
X15147Y02141*
X15164Y02146*
X15179Y02154*
X15192Y02165*
X15204Y02179*
X15212Y02194*
X15217Y02211*
X15219Y02229*
X15217Y02246*
X15212Y02262*
X15204Y02278*
X15192Y02292*
X15179Y02303*
X15164Y02311*
X15147Y02316*
X15129Y02318*
G37*
G36*
X14729D02*
X14712Y02316D01*
X14695Y02311*
X1468Y02303*
X14666Y02292*
X14655Y02278*
X14647Y02262*
X14642Y02246*
X1464Y02229*
X14642Y02211*
X14647Y02194*
X14655Y02179*
X14666Y02165*
X1468Y02154*
X14695Y02146*
X14712Y02141*
X14729Y02139*
X14747Y02141*
X14764Y02146*
X14779Y02154*
X14792Y02165*
X14804Y02179*
X14812Y02194*
X14817Y02211*
X14819Y02229*
X14817Y02246*
X14812Y02262*
X14804Y02278*
X14792Y02292*
X14779Y02303*
X14764Y02311*
X14747Y02316*
X14729Y02318*
G37*
G36*
X12729D02*
X12712Y02316D01*
X12695Y02311*
X1268Y02303*
X12666Y02292*
X12655Y02278*
X12647Y02262*
X12642Y02246*
X1264Y02229*
X12642Y02211*
X12647Y02194*
X12655Y02179*
X12666Y02165*
X1268Y02154*
X12695Y02146*
X12712Y02141*
X12729Y02139*
X12747Y02141*
X12764Y02146*
X12779Y02154*
X12792Y02165*
X12804Y02179*
X12812Y02194*
X12817Y02211*
X12819Y02229*
X12817Y02246*
X12812Y02262*
X12804Y02278*
X12792Y02292*
X12779Y02303*
X12764Y02311*
X12747Y02316*
X12729Y02318*
G37*
G36*
X12329D02*
X12312Y02316D01*
X12295Y02311*
X1228Y02303*
X12266Y02292*
X12255Y02278*
X12247Y02262*
X12242Y02246*
X1224Y02229*
X12242Y02211*
X12247Y02194*
X12255Y02179*
X12266Y02165*
X1228Y02154*
X12295Y02146*
X12312Y02141*
X12329Y02139*
X12347Y02141*
X12364Y02146*
X12379Y02154*
X12392Y02165*
X12404Y02179*
X12412Y02194*
X12417Y02211*
X12419Y02229*
X12417Y02246*
X12412Y02262*
X12404Y02278*
X12392Y02292*
X12379Y02303*
X12364Y02311*
X12347Y02316*
X12329Y02318*
G37*
G36*
X13529D02*
X13512Y02316D01*
X13495Y02311*
X1348Y02303*
X13466Y02292*
X13455Y02278*
X13447Y02262*
X13442Y02246*
X1344Y02229*
X13442Y02211*
X13447Y02194*
X13455Y02179*
X13466Y02165*
X1348Y02154*
X13495Y02146*
X13512Y02141*
X13529Y02139*
X13547Y02141*
X13564Y02146*
X13579Y02154*
X13592Y02165*
X13604Y02179*
X13612Y02194*
X13617Y02211*
X13619Y02229*
X13617Y02246*
X13612Y02262*
X13604Y02278*
X13592Y02292*
X13579Y02303*
X13564Y02311*
X13547Y02316*
X13529Y02318*
G37*
G36*
X13129D02*
X13112Y02316D01*
X13095Y02311*
X1308Y02303*
X13066Y02292*
X13055Y02278*
X13047Y02262*
X13042Y02246*
X1304Y02229*
X13042Y02211*
X13047Y02194*
X13055Y02179*
X13066Y02165*
X1308Y02154*
X13095Y02146*
X13112Y02141*
X13129Y02139*
X13147Y02141*
X13164Y02146*
X13179Y02154*
X13192Y02165*
X13204Y02179*
X13212Y02194*
X13217Y02211*
X13219Y02229*
X13217Y02246*
X13212Y02262*
X13204Y02278*
X13192Y02292*
X13179Y02303*
X13164Y02311*
X13147Y02316*
X13129Y02318*
G37*
G36*
X03929D02*
X03912Y02316D01*
X03895Y02311*
X0388Y02303*
X03866Y02292*
X03855Y02278*
X03847Y02262*
X03842Y02246*
X0384Y02229*
X03842Y02211*
X03847Y02194*
X03855Y02179*
X03866Y02165*
X0388Y02154*
X03895Y02146*
X03912Y02141*
X03929Y02139*
X03947Y02141*
X03964Y02146*
X03979Y02154*
X03992Y02165*
X04004Y02179*
X04012Y02194*
X04017Y02211*
X04019Y02229*
X04017Y02246*
X04012Y02262*
X04004Y02278*
X03992Y02292*
X03979Y02303*
X03964Y02311*
X03947Y02316*
X03929Y02318*
G37*
G36*
X03529D02*
X03512Y02316D01*
X03495Y02311*
X0348Y02303*
X03466Y02292*
X03455Y02278*
X03447Y02262*
X03442Y02246*
X0344Y02229*
X03442Y02211*
X03447Y02194*
X03455Y02179*
X03466Y02165*
X0348Y02154*
X03495Y02146*
X03512Y02141*
X03529Y02139*
X03547Y02141*
X03564Y02146*
X03579Y02154*
X03592Y02165*
X03604Y02179*
X03612Y02194*
X03617Y02211*
X03619Y02229*
X03617Y02246*
X03612Y02262*
X03604Y02278*
X03592Y02292*
X03579Y02303*
X03564Y02311*
X03547Y02316*
X03529Y02318*
G37*
G36*
X04729D02*
X04712Y02316D01*
X04695Y02311*
X0468Y02303*
X04666Y02292*
X04655Y02278*
X04647Y02262*
X04642Y02246*
X0464Y02229*
X04642Y02211*
X04647Y02194*
X04655Y02179*
X04666Y02165*
X0468Y02154*
X04695Y02146*
X04712Y02141*
X04729Y02139*
X04747Y02141*
X04764Y02146*
X04779Y02154*
X04792Y02165*
X04804Y02179*
X04812Y02194*
X04817Y02211*
X04819Y02229*
X04817Y02246*
X04812Y02262*
X04804Y02278*
X04792Y02292*
X04779Y02303*
X04764Y02311*
X04747Y02316*
X04729Y02318*
G37*
G36*
X04329D02*
X04312Y02316D01*
X04295Y02311*
X0428Y02303*
X04266Y02292*
X04255Y02278*
X04247Y02262*
X04242Y02246*
X0424Y02229*
X04242Y02211*
X04247Y02194*
X04255Y02179*
X04266Y02165*
X0428Y02154*
X04295Y02146*
X04312Y02141*
X04329Y02139*
X04347Y02141*
X04364Y02146*
X04379Y02154*
X04392Y02165*
X04404Y02179*
X04412Y02194*
X04417Y02211*
X04419Y02229*
X04417Y02246*
X04412Y02262*
X04404Y02278*
X04392Y02292*
X04379Y02303*
X04364Y02311*
X04347Y02316*
X04329Y02318*
G37*
G36*
X02329D02*
X02312Y02316D01*
X02295Y02311*
X0228Y02303*
X02266Y02292*
X02255Y02278*
X02247Y02262*
X02242Y02246*
X0224Y02229*
X02242Y02211*
X02247Y02194*
X02255Y02179*
X02266Y02165*
X0228Y02154*
X02295Y02146*
X02312Y02141*
X02329Y02139*
X02347Y02141*
X02364Y02146*
X02379Y02154*
X02392Y02165*
X02404Y02179*
X02412Y02194*
X02417Y02211*
X02419Y02229*
X02417Y02246*
X02412Y02262*
X02404Y02278*
X02392Y02292*
X02379Y02303*
X02364Y02311*
X02347Y02316*
X02329Y02318*
G37*
G36*
X01929D02*
X01912Y02316D01*
X01895Y02311*
X0188Y02303*
X01866Y02292*
X01855Y02278*
X01847Y02262*
X01842Y02246*
X0184Y02229*
X01842Y02211*
X01847Y02194*
X01855Y02179*
X01866Y02165*
X0188Y02154*
X01895Y02146*
X01912Y02141*
X01929Y02139*
X01947Y02141*
X01964Y02146*
X01979Y02154*
X01992Y02165*
X02004Y02179*
X02012Y02194*
X02017Y02211*
X02019Y02229*
X02017Y02246*
X02012Y02262*
X02004Y02278*
X01992Y02292*
X01979Y02303*
X01964Y02311*
X01947Y02316*
X01929Y02318*
G37*
G36*
X03129D02*
X03112Y02316D01*
X03095Y02311*
X0308Y02303*
X03066Y02292*
X03055Y02278*
X03047Y02262*
X03042Y02246*
X0304Y02229*
X03042Y02211*
X03047Y02194*
X03055Y02179*
X03066Y02165*
X0308Y02154*
X03095Y02146*
X03112Y02141*
X03129Y02139*
X03147Y02141*
X03164Y02146*
X03179Y02154*
X03192Y02165*
X03204Y02179*
X03212Y02194*
X03217Y02211*
X03219Y02229*
X03217Y02246*
X03212Y02262*
X03204Y02278*
X03192Y02292*
X03179Y02303*
X03164Y02311*
X03147Y02316*
X03129Y02318*
G37*
G36*
X02729D02*
X02712Y02316D01*
X02695Y02311*
X0268Y02303*
X02666Y02292*
X02655Y02278*
X02647Y02262*
X02642Y02246*
X0264Y02229*
X02642Y02211*
X02647Y02194*
X02655Y02179*
X02666Y02165*
X0268Y02154*
X02695Y02146*
X02712Y02141*
X02729Y02139*
X02747Y02141*
X02764Y02146*
X02779Y02154*
X02792Y02165*
X02804Y02179*
X02812Y02194*
X02817Y02211*
X02819Y02229*
X02817Y02246*
X02812Y02262*
X02804Y02278*
X02792Y02292*
X02779Y02303*
X02764Y02311*
X02747Y02316*
X02729Y02318*
G37*
G36*
X05129D02*
X05112Y02316D01*
X05095Y02311*
X0508Y02303*
X05066Y02292*
X05055Y02278*
X05047Y02262*
X05042Y02246*
X0504Y02229*
X05042Y02211*
X05047Y02194*
X05055Y02179*
X05066Y02165*
X0508Y02154*
X05095Y02146*
X05112Y02141*
X05129Y02139*
X05147Y02141*
X05164Y02146*
X05179Y02154*
X05192Y02165*
X05204Y02179*
X05212Y02194*
X05217Y02211*
X05219Y02229*
X05217Y02246*
X05212Y02262*
X05204Y02278*
X05192Y02292*
X05179Y02303*
X05164Y02311*
X05147Y02316*
X05129Y02318*
G37*
G36*
X07529D02*
X07512Y02316D01*
X07495Y02311*
X0748Y02303*
X07466Y02292*
X07455Y02278*
X07447Y02262*
X07442Y02246*
X0744Y02229*
X07442Y02211*
X07447Y02194*
X07455Y02179*
X07466Y02165*
X0748Y02154*
X07495Y02146*
X07512Y02141*
X07529Y02139*
X07547Y02141*
X07564Y02146*
X07579Y02154*
X07592Y02165*
X07604Y02179*
X07612Y02194*
X07617Y02211*
X07619Y02229*
X07617Y02246*
X07612Y02262*
X07604Y02278*
X07592Y02292*
X07579Y02303*
X07564Y02311*
X07547Y02316*
X07529Y02318*
G37*
G36*
X07129D02*
X07112Y02316D01*
X07095Y02311*
X0708Y02303*
X07066Y02292*
X07055Y02278*
X07047Y02262*
X07042Y02246*
X0704Y02229*
X07042Y02211*
X07047Y02194*
X07055Y02179*
X07066Y02165*
X0708Y02154*
X07095Y02146*
X07112Y02141*
X07129Y02139*
X07147Y02141*
X07164Y02146*
X07179Y02154*
X07192Y02165*
X07204Y02179*
X07212Y02194*
X07217Y02211*
X07219Y02229*
X07217Y02246*
X07212Y02262*
X07204Y02278*
X07192Y02292*
X07179Y02303*
X07164Y02311*
X07147Y02316*
X07129Y02318*
G37*
G36*
X08329D02*
X08312Y02316D01*
X08295Y02311*
X0828Y02303*
X08266Y02292*
X08255Y02278*
X08247Y02262*
X08242Y02246*
X0824Y02229*
X08242Y02211*
X08247Y02194*
X08255Y02179*
X08266Y02165*
X0828Y02154*
X08295Y02146*
X08312Y02141*
X08329Y02139*
X08347Y02141*
X08364Y02146*
X08379Y02154*
X08392Y02165*
X08404Y02179*
X08412Y02194*
X08417Y02211*
X08419Y02229*
X08417Y02246*
X08412Y02262*
X08404Y02278*
X08392Y02292*
X08379Y02303*
X08364Y02311*
X08347Y02316*
X08329Y02318*
G37*
G36*
X07929D02*
X07912Y02316D01*
X07895Y02311*
X0788Y02303*
X07866Y02292*
X07855Y02278*
X07847Y02262*
X07842Y02246*
X0784Y02229*
X07842Y02211*
X07847Y02194*
X07855Y02179*
X07866Y02165*
X0788Y02154*
X07895Y02146*
X07912Y02141*
X07929Y02139*
X07947Y02141*
X07964Y02146*
X07979Y02154*
X07992Y02165*
X08004Y02179*
X08012Y02194*
X08017Y02211*
X08019Y02229*
X08017Y02246*
X08012Y02262*
X08004Y02278*
X07992Y02292*
X07979Y02303*
X07964Y02311*
X07947Y02316*
X07929Y02318*
G37*
G36*
X05929D02*
X05912Y02316D01*
X05895Y02311*
X0588Y02303*
X05866Y02292*
X05855Y02278*
X05847Y02262*
X05842Y02246*
X0584Y02229*
X05842Y02211*
X05847Y02194*
X05855Y02179*
X05866Y02165*
X0588Y02154*
X05895Y02146*
X05912Y02141*
X05929Y02139*
X05947Y02141*
X05964Y02146*
X05979Y02154*
X05992Y02165*
X06004Y02179*
X06012Y02194*
X06017Y02211*
X06019Y02229*
X06017Y02246*
X06012Y02262*
X06004Y02278*
X05992Y02292*
X05979Y02303*
X05964Y02311*
X05947Y02316*
X05929Y02318*
G37*
G36*
X05529D02*
X05512Y02316D01*
X05495Y02311*
X0548Y02303*
X05466Y02292*
X05455Y02278*
X05447Y02262*
X05442Y02246*
X0544Y02229*
X05442Y02211*
X05447Y02194*
X05455Y02179*
X05466Y02165*
X0548Y02154*
X05495Y02146*
X05512Y02141*
X05529Y02139*
X05547Y02141*
X05564Y02146*
X05579Y02154*
X05592Y02165*
X05604Y02179*
X05612Y02194*
X05617Y02211*
X05619Y02229*
X05617Y02246*
X05612Y02262*
X05604Y02278*
X05592Y02292*
X05579Y02303*
X05564Y02311*
X05547Y02316*
X05529Y02318*
G37*
G36*
X06729D02*
X06712Y02316D01*
X06695Y02311*
X0668Y02303*
X06666Y02292*
X06655Y02278*
X06647Y02262*
X06642Y02246*
X0664Y02229*
X06642Y02211*
X06647Y02194*
X06655Y02179*
X06666Y02165*
X0668Y02154*
X06695Y02146*
X06712Y02141*
X06729Y02139*
X06747Y02141*
X06764Y02146*
X06779Y02154*
X06792Y02165*
X06804Y02179*
X06812Y02194*
X06817Y02211*
X06819Y02229*
X06817Y02246*
X06812Y02262*
X06804Y02278*
X06792Y02292*
X06779Y02303*
X06764Y02311*
X06747Y02316*
X06729Y02318*
G37*
G36*
X06329D02*
X06312Y02316D01*
X06295Y02311*
X0628Y02303*
X06266Y02292*
X06255Y02278*
X06247Y02262*
X06242Y02246*
X0624Y02229*
X06242Y02211*
X06247Y02194*
X06255Y02179*
X06266Y02165*
X0628Y02154*
X06295Y02146*
X06312Y02141*
X06329Y02139*
X06347Y02141*
X06364Y02146*
X06379Y02154*
X06392Y02165*
X06404Y02179*
X06412Y02194*
X06417Y02211*
X06419Y02229*
X06417Y02246*
X06412Y02262*
X06404Y02278*
X06392Y02292*
X06379Y02303*
X06364Y02311*
X06347Y02316*
X06329Y02318*
G37*
G36*
X03229Y03425D02*
X03219Y03424D01*
X03209Y0342*
X03201Y03413*
X03194Y03405*
X0319Y03395*
X03189Y03385*
X0319Y03374*
X03194Y03364*
X03201Y03356*
X03209Y0335*
X03219Y03346*
X03229Y03344*
X0324Y03346*
X0325Y0335*
X03258Y03356*
X03264Y03364*
X03268Y03374*
X0327Y03385*
X03268Y03395*
X03264Y03405*
X03258Y03413*
X0325Y0342*
X0324Y03424*
X03229Y03425*
G37*
G36*
X03429Y03325D02*
X03419Y03324D01*
X03409Y0332*
X03401Y03313*
X03394Y03305*
X0339Y03295*
X03389Y03285*
X0339Y03274*
X03394Y03264*
X03401Y03256*
X03409Y0325*
X03419Y03246*
X03429Y03244*
X0344Y03246*
X0345Y0325*
X03458Y03256*
X03464Y03264*
X03468Y03274*
X0347Y03285*
X03468Y03295*
X03464Y03305*
X03458Y03313*
X0345Y0332*
X0344Y03324*
X03429Y03325*
G37*
G36*
X03229Y03525D02*
X03219Y03524D01*
X03209Y0352*
X03201Y03513*
X03194Y03505*
X0319Y03495*
X03189Y03485*
X0319Y03474*
X03194Y03464*
X03201Y03456*
X03209Y0345*
X03219Y03446*
X03229Y03444*
X0324Y03446*
X0325Y0345*
X03258Y03456*
X03264Y03464*
X03268Y03474*
X0327Y03485*
X03268Y03495*
X03264Y03505*
X03258Y03513*
X0325Y0352*
X0324Y03524*
X03229Y03525*
G37*
G36*
X03429Y03425D02*
X03419Y03424D01*
X03409Y0342*
X03401Y03413*
X03394Y03405*
X0339Y03395*
X03389Y03385*
X0339Y03374*
X03394Y03364*
X03401Y03356*
X03409Y0335*
X03419Y03346*
X03429Y03344*
X0344Y03346*
X0345Y0335*
X03458Y03356*
X03464Y03364*
X03468Y03374*
X0347Y03385*
X03468Y03395*
X03464Y03405*
X03458Y03413*
X0345Y0342*
X0344Y03424*
X03429Y03425*
G37*
G36*
Y03125D02*
X03419Y03124D01*
X03409Y0312*
X03401Y03113*
X03394Y03105*
X0339Y03095*
X03389Y03085*
X0339Y03074*
X03394Y03064*
X03401Y03056*
X03409Y0305*
X03419Y03046*
X03429Y03044*
X0344Y03046*
X0345Y0305*
X03458Y03056*
X03464Y03064*
X03468Y03074*
X0347Y03085*
X03468Y03095*
X03464Y03105*
X03458Y03113*
X0345Y0312*
X0344Y03124*
X03429Y03125*
G37*
G36*
X03229D02*
X03219Y03124D01*
X03209Y0312*
X03201Y03113*
X03194Y03105*
X0319Y03095*
X03189Y03085*
X0319Y03074*
X03194Y03064*
X03201Y03056*
X03209Y0305*
X03219Y03046*
X03229Y03044*
X0324Y03046*
X0325Y0305*
X03258Y03056*
X03264Y03064*
X03268Y03074*
X0327Y03085*
X03268Y03095*
X03264Y03105*
X03258Y03113*
X0325Y0312*
X0324Y03124*
X03229Y03125*
G37*
G36*
X03429Y03225D02*
X03419Y03224D01*
X03409Y0322*
X03401Y03213*
X03394Y03205*
X0339Y03195*
X03389Y03185*
X0339Y03174*
X03394Y03164*
X03401Y03156*
X03409Y0315*
X03419Y03146*
X03429Y03144*
X0344Y03146*
X0345Y0315*
X03458Y03156*
X03464Y03164*
X03468Y03174*
X0347Y03185*
X03468Y03195*
X03464Y03205*
X03458Y03213*
X0345Y0322*
X0344Y03224*
X03429Y03225*
G37*
G36*
X03229D02*
X03219Y03224D01*
X03209Y0322*
X03201Y03213*
X03194Y03205*
X0319Y03195*
X03189Y03185*
X0319Y03174*
X03194Y03164*
X03201Y03156*
X03209Y0315*
X03219Y03146*
X03229Y03144*
X0324Y03146*
X0325Y0315*
X03258Y03156*
X03264Y03164*
X03268Y03174*
X0327Y03185*
X03268Y03195*
X03264Y03205*
X03258Y03213*
X0325Y0322*
X0324Y03224*
X03229Y03225*
G37*
G36*
X03429Y03625D02*
X03419Y03624D01*
X03409Y0362*
X03401Y03613*
X03394Y03605*
X0339Y03595*
X03389Y03585*
X0339Y03574*
X03394Y03564*
X03401Y03556*
X03409Y0355*
X03419Y03546*
X03429Y03544*
X0344Y03546*
X0345Y0355*
X03458Y03556*
X03464Y03564*
X03468Y03574*
X0347Y03585*
X03468Y03595*
X03464Y03605*
X03458Y03613*
X0345Y0362*
X0344Y03624*
X03429Y03625*
G37*
G36*
Y04025D02*
X03419Y04024D01*
X03409Y0402*
X03401Y04013*
X03394Y04005*
X0339Y03995*
X03389Y03985*
X0339Y03974*
X03394Y03964*
X03401Y03956*
X03409Y0395*
X03419Y03946*
X03429Y03944*
X0344Y03946*
X0345Y0395*
X03458Y03956*
X03464Y03964*
X03468Y03974*
X0347Y03985*
X03468Y03995*
X03464Y04005*
X03458Y04013*
X0345Y0402*
X0344Y04024*
X03429Y04025*
G37*
G36*
X03229D02*
X03219Y04024D01*
X03209Y0402*
X03201Y04013*
X03194Y04005*
X0319Y03995*
X03189Y03985*
X0319Y03974*
X03194Y03964*
X03201Y03956*
X03209Y0395*
X03219Y03946*
X03229Y03944*
X0324Y03946*
X0325Y0395*
X03258Y03956*
X03264Y03964*
X03268Y03974*
X0327Y03985*
X03268Y03995*
X03264Y04005*
X03258Y04013*
X0325Y0402*
X0324Y04024*
X03229Y04025*
G37*
G36*
X03429Y04225D02*
X03419Y04224D01*
X03409Y0422*
X03401Y04213*
X03394Y04205*
X0339Y04195*
X03389Y04185*
X0339Y04174*
X03394Y04164*
X03401Y04156*
X03409Y0415*
X03419Y04146*
X03429Y04144*
X0344Y04146*
X0345Y0415*
X03458Y04156*
X03464Y04164*
X03468Y04174*
X0347Y04185*
X03468Y04195*
X03464Y04205*
X03458Y04213*
X0345Y0422*
X0344Y04224*
X03429Y04225*
G37*
G36*
X03229Y04125D02*
X03219Y04124D01*
X03209Y0412*
X03201Y04113*
X03194Y04105*
X0319Y04095*
X03189Y04085*
X0319Y04074*
X03194Y04064*
X03201Y04056*
X03209Y0405*
X03219Y04046*
X03229Y04044*
X0324Y04046*
X0325Y0405*
X03258Y04056*
X03264Y04064*
X03268Y04074*
X0327Y04085*
X03268Y04095*
X03264Y04105*
X03258Y04113*
X0325Y0412*
X0324Y04124*
X03229Y04125*
G37*
G36*
X03429Y03725D02*
X03419Y03724D01*
X03409Y0372*
X03401Y03713*
X03394Y03705*
X0339Y03695*
X03389Y03685*
X0339Y03674*
X03394Y03664*
X03401Y03656*
X03409Y0365*
X03419Y03646*
X03429Y03644*
X0344Y03646*
X0345Y0365*
X03458Y03656*
X03464Y03664*
X03468Y03674*
X0347Y03685*
X03468Y03695*
X03464Y03705*
X03458Y03713*
X0345Y0372*
X0344Y03724*
X03429Y03725*
G37*
G36*
X03229D02*
X03219Y03724D01*
X03209Y0372*
X03201Y03713*
X03194Y03705*
X0319Y03695*
X03189Y03685*
X0319Y03674*
X03194Y03664*
X03201Y03656*
X03209Y0365*
X03219Y03646*
X03229Y03644*
X0324Y03646*
X0325Y0365*
X03258Y03656*
X03264Y03664*
X03268Y03674*
X0327Y03685*
X03268Y03695*
X03264Y03705*
X03258Y03713*
X0325Y0372*
X0324Y03724*
X03229Y03725*
G37*
G36*
X03429Y03925D02*
X03419Y03924D01*
X03409Y0392*
X03401Y03913*
X03394Y03905*
X0339Y03895*
X03389Y03885*
X0339Y03874*
X03394Y03864*
X03401Y03856*
X03409Y0385*
X03419Y03846*
X03429Y03844*
X0344Y03846*
X0345Y0385*
X03458Y03856*
X03464Y03864*
X03468Y03874*
X0347Y03885*
X03468Y03895*
X03464Y03905*
X03458Y03913*
X0345Y0392*
X0344Y03924*
X03429Y03925*
G37*
G36*
X03229Y03825D02*
X03219Y03824D01*
X03209Y0382*
X03201Y03813*
X03194Y03805*
X0319Y03795*
X03189Y03785*
X0319Y03774*
X03194Y03764*
X03201Y03756*
X03209Y0375*
X03219Y03746*
X03229Y03744*
X0324Y03746*
X0325Y0375*
X03258Y03756*
X03264Y03764*
X03268Y03774*
X0327Y03785*
X03268Y03795*
X03264Y03805*
X03258Y03813*
X0325Y0382*
X0324Y03824*
X03229Y03825*
G37*
G36*
X17529Y02318D02*
X17512Y02316D01*
X17495Y02311*
X1748Y02303*
X17466Y02292*
X17455Y02278*
X17447Y02262*
X17442Y02246*
X1744Y02229*
X17442Y02211*
X17447Y02194*
X17455Y02179*
X17466Y02165*
X1748Y02154*
X17495Y02146*
X17512Y02141*
X17529Y02139*
X17547Y02141*
X17564Y02146*
X17579Y02154*
X17592Y02165*
X17604Y02179*
X17612Y02194*
X17617Y02211*
X17619Y02229*
X17617Y02246*
X17612Y02262*
X17604Y02278*
X17592Y02292*
X17579Y02303*
X17564Y02311*
X17547Y02316*
X17529Y02318*
G37*
G36*
X17129D02*
X17112Y02316D01*
X17095Y02311*
X1708Y02303*
X17066Y02292*
X17055Y02278*
X17047Y02262*
X17042Y02246*
X1704Y02229*
X17042Y02211*
X17047Y02194*
X17055Y02179*
X17066Y02165*
X1708Y02154*
X17095Y02146*
X17112Y02141*
X17129Y02139*
X17147Y02141*
X17164Y02146*
X17179Y02154*
X17192Y02165*
X17204Y02179*
X17212Y02194*
X17217Y02211*
X17219Y02229*
X17217Y02246*
X17212Y02262*
X17204Y02278*
X17192Y02292*
X17179Y02303*
X17164Y02311*
X17147Y02316*
X17129Y02318*
G37*
G36*
X18329D02*
X18312Y02316D01*
X18295Y02311*
X1828Y02303*
X18266Y02292*
X18255Y02278*
X18247Y02262*
X18242Y02246*
X1824Y02229*
X18242Y02211*
X18247Y02194*
X18255Y02179*
X18266Y02165*
X1828Y02154*
X18295Y02146*
X18312Y02141*
X18329Y02139*
X18347Y02141*
X18364Y02146*
X18379Y02154*
X18392Y02165*
X18404Y02179*
X18412Y02194*
X18417Y02211*
X18419Y02229*
X18417Y02246*
X18412Y02262*
X18404Y02278*
X18392Y02292*
X18379Y02303*
X18364Y02311*
X18347Y02316*
X18329Y02318*
G37*
G36*
X17929D02*
X17912Y02316D01*
X17895Y02311*
X1788Y02303*
X17866Y02292*
X17855Y02278*
X17847Y02262*
X17842Y02246*
X1784Y02229*
X17842Y02211*
X17847Y02194*
X17855Y02179*
X17866Y02165*
X1788Y02154*
X17895Y02146*
X17912Y02141*
X17929Y02139*
X17947Y02141*
X17964Y02146*
X17979Y02154*
X17992Y02165*
X18004Y02179*
X18012Y02194*
X18017Y02211*
X18019Y02229*
X18017Y02246*
X18012Y02262*
X18004Y02278*
X17992Y02292*
X17979Y02303*
X17964Y02311*
X17947Y02316*
X17929Y02318*
G37*
G36*
X15929D02*
X15912Y02316D01*
X15895Y02311*
X1588Y02303*
X15866Y02292*
X15855Y02278*
X15847Y02262*
X15842Y02246*
X1584Y02229*
X15842Y02211*
X15847Y02194*
X15855Y02179*
X15866Y02165*
X1588Y02154*
X15895Y02146*
X15912Y02141*
X15929Y02139*
X15947Y02141*
X15964Y02146*
X15979Y02154*
X15992Y02165*
X16004Y02179*
X16012Y02194*
X16017Y02211*
X16019Y02229*
X16017Y02246*
X16012Y02262*
X16004Y02278*
X15992Y02292*
X15979Y02303*
X15964Y02311*
X15947Y02316*
X15929Y02318*
G37*
G36*
X15529D02*
X15512Y02316D01*
X15495Y02311*
X1548Y02303*
X15466Y02292*
X15455Y02278*
X15447Y02262*
X15442Y02246*
X1544Y02229*
X15442Y02211*
X15447Y02194*
X15455Y02179*
X15466Y02165*
X1548Y02154*
X15495Y02146*
X15512Y02141*
X15529Y02139*
X15547Y02141*
X15564Y02146*
X15579Y02154*
X15592Y02165*
X15604Y02179*
X15612Y02194*
X15617Y02211*
X15619Y02229*
X15617Y02246*
X15612Y02262*
X15604Y02278*
X15592Y02292*
X15579Y02303*
X15564Y02311*
X15547Y02316*
X15529Y02318*
G37*
G36*
X16729D02*
X16712Y02316D01*
X16695Y02311*
X1668Y02303*
X16666Y02292*
X16655Y02278*
X16647Y02262*
X16642Y02246*
X1664Y02229*
X16642Y02211*
X16647Y02194*
X16655Y02179*
X16666Y02165*
X1668Y02154*
X16695Y02146*
X16712Y02141*
X16729Y02139*
X16747Y02141*
X16764Y02146*
X16779Y02154*
X16792Y02165*
X16804Y02179*
X16812Y02194*
X16817Y02211*
X16819Y02229*
X16817Y02246*
X16812Y02262*
X16804Y02278*
X16792Y02292*
X16779Y02303*
X16764Y02311*
X16747Y02316*
X16729Y02318*
G37*
G36*
X16329D02*
X16312Y02316D01*
X16295Y02311*
X1628Y02303*
X16266Y02292*
X16255Y02278*
X16247Y02262*
X16242Y02246*
X1624Y02229*
X16242Y02211*
X16247Y02194*
X16255Y02179*
X16266Y02165*
X1628Y02154*
X16295Y02146*
X16312Y02141*
X16329Y02139*
X16347Y02141*
X16364Y02146*
X16379Y02154*
X16392Y02165*
X16404Y02179*
X16412Y02194*
X16417Y02211*
X16419Y02229*
X16417Y02246*
X16412Y02262*
X16404Y02278*
X16392Y02292*
X16379Y02303*
X16364Y02311*
X16347Y02316*
X16329Y02318*
G37*
G36*
X05983Y02612D02*
X05967Y02611D01*
X05951Y02607*
X05936Y026*
X05922Y02592*
X0591Y02581*
X05899Y02569*
X05891Y02555*
X05885Y0254*
X05881Y02524*
X05879Y02508*
X05881Y02491*
X05885Y02475*
X05891Y0246*
X05899Y02446*
X0591Y02434*
X05922Y02424*
X05936Y02415*
X05951Y02409*
X05967Y02405*
X05983Y02403*
X06Y02405*
X06016Y02409*
X06031Y02415*
X06045Y02424*
X06057Y02434*
X06068Y02446*
X06076Y0246*
X06083Y02475*
X06087Y02491*
X06088Y02508*
X06087Y02524*
X06083Y0254*
X06076Y02555*
X06068Y02569*
X06057Y02581*
X06045Y02592*
X06031Y026*
X06016Y02607*
X06Y02611*
X05983Y02612*
G37*
G36*
X15583D02*
X15567Y02611D01*
X15551Y02607*
X15536Y026*
X15522Y02592*
X1551Y02581*
X15499Y02569*
X15491Y02555*
X15485Y0254*
X15481Y02524*
X15479Y02508*
X15481Y02491*
X15485Y02475*
X15491Y0246*
X15499Y02446*
X1551Y02434*
X15522Y02424*
X15536Y02415*
X15551Y02409*
X15567Y02405*
X15583Y02403*
X156Y02405*
X15616Y02409*
X15631Y02415*
X15645Y02424*
X15657Y02434*
X15668Y02446*
X15676Y0246*
X15683Y02475*
X15687Y02491*
X15688Y02508*
X15687Y02524*
X15683Y0254*
X15676Y02555*
X15668Y02569*
X15657Y02581*
X15645Y02592*
X15631Y026*
X15616Y02607*
X156Y02611*
X15583Y02612*
G37*
G36*
X13983D02*
X13967Y02611D01*
X13951Y02607*
X13936Y026*
X13922Y02592*
X1391Y02581*
X13899Y02569*
X13891Y02555*
X13885Y0254*
X13881Y02524*
X13879Y02508*
X13881Y02491*
X13885Y02475*
X13891Y0246*
X13899Y02446*
X1391Y02434*
X13922Y02424*
X13936Y02415*
X13951Y02409*
X13967Y02405*
X13983Y02403*
X14Y02405*
X14016Y02409*
X14031Y02415*
X14045Y02424*
X14057Y02434*
X14068Y02446*
X14076Y0246*
X14083Y02475*
X14087Y02491*
X14088Y02508*
X14087Y02524*
X14083Y0254*
X14076Y02555*
X14068Y02569*
X14057Y02581*
X14045Y02592*
X14031Y026*
X14016Y02607*
X14Y02611*
X13983Y02612*
G37*
G36*
X01996Y02575D02*
Y02439D01*
X02285*
Y02575*
X01996Y02575*
G37*
G36*
X17183Y02612D02*
X17167Y02611D01*
X17151Y02607*
X17136Y026*
X17122Y02592*
X1711Y02581*
X17099Y02569*
X17091Y02555*
X17085Y0254*
X17081Y02524*
X17079Y02508*
X17081Y02491*
X17085Y02475*
X17091Y0246*
X17099Y02446*
X1711Y02434*
X17122Y02424*
X17136Y02415*
X17151Y02409*
X17167Y02405*
X17183Y02403*
X172Y02405*
X17216Y02409*
X17231Y02415*
X17245Y02424*
X17257Y02434*
X17268Y02446*
X17276Y0246*
X17283Y02475*
X17287Y02491*
X17288Y02508*
X17287Y02524*
X17283Y0254*
X17276Y02555*
X17268Y02569*
X17257Y02581*
X17245Y02592*
X17231Y026*
X17216Y02607*
X172Y02611*
X17183Y02612*
G37*
G36*
X09183D02*
X09167Y02611D01*
X09151Y02607*
X09136Y026*
X09122Y02592*
X0911Y02581*
X09099Y02569*
X09091Y02555*
X09085Y0254*
X09081Y02524*
X09079Y02508*
X09081Y02491*
X09085Y02475*
X09091Y0246*
X09099Y02446*
X0911Y02434*
X09122Y02424*
X09136Y02415*
X09151Y02409*
X09167Y02405*
X09183Y02403*
X092Y02405*
X09216Y02409*
X09231Y02415*
X09245Y02424*
X09257Y02434*
X09268Y02446*
X09276Y0246*
X09283Y02475*
X09287Y02491*
X09288Y02508*
X09287Y02524*
X09283Y0254*
X09276Y02555*
X09268Y02569*
X09257Y02581*
X09245Y02592*
X09231Y026*
X09216Y02607*
X092Y02611*
X09183Y02612*
G37*
G36*
X07583D02*
X07567Y02611D01*
X07551Y02607*
X07536Y026*
X07522Y02592*
X0751Y02581*
X07499Y02569*
X07491Y02555*
X07485Y0254*
X07481Y02524*
X07479Y02508*
X07481Y02491*
X07485Y02475*
X07491Y0246*
X07499Y02446*
X0751Y02434*
X07522Y02424*
X07536Y02415*
X07551Y02409*
X07567Y02405*
X07583Y02403*
X076Y02405*
X07616Y02409*
X07631Y02415*
X07645Y02424*
X07657Y02434*
X07668Y02446*
X07676Y0246*
X07683Y02475*
X07687Y02491*
X07688Y02508*
X07687Y02524*
X07683Y0254*
X07676Y02555*
X07668Y02569*
X07657Y02581*
X07645Y02592*
X07631Y026*
X07616Y02607*
X076Y02611*
X07583Y02612*
G37*
G36*
X12383D02*
X12367Y02611D01*
X12351Y02607*
X12336Y026*
X12322Y02592*
X1231Y02581*
X12299Y02569*
X12291Y02555*
X12285Y0254*
X12281Y02524*
X12279Y02508*
X12281Y02491*
X12285Y02475*
X12291Y0246*
X12299Y02446*
X1231Y02434*
X12322Y02424*
X12336Y02415*
X12351Y02409*
X12367Y02405*
X12383Y02403*
X124Y02405*
X12416Y02409*
X12431Y02415*
X12445Y02424*
X12457Y02434*
X12468Y02446*
X12476Y0246*
X12483Y02475*
X12487Y02491*
X12488Y02508*
X12487Y02524*
X12483Y0254*
X12476Y02555*
X12468Y02569*
X12457Y02581*
X12445Y02592*
X12431Y026*
X12416Y02607*
X124Y02611*
X12383Y02612*
G37*
G36*
X10783D02*
X10767Y02611D01*
X10751Y02607*
X10736Y026*
X10722Y02592*
X1071Y02581*
X10699Y02569*
X10691Y02555*
X10685Y0254*
X10681Y02524*
X10679Y02508*
X10681Y02491*
X10685Y02475*
X10691Y0246*
X10699Y02446*
X1071Y02434*
X10722Y02424*
X10736Y02415*
X10751Y02409*
X10767Y02405*
X10783Y02403*
X108Y02405*
X10816Y02409*
X10831Y02415*
X10845Y02424*
X10857Y02434*
X10868Y02446*
X10876Y0246*
X10883Y02475*
X10887Y02491*
X10888Y02508*
X10887Y02524*
X10883Y0254*
X10876Y02555*
X10868Y02569*
X10857Y02581*
X10845Y02592*
X10831Y026*
X10816Y02607*
X108Y02611*
X10783Y02612*
G37*
G36*
X1502Y04725D02*
X15009Y04724D01*
X14999Y0472*
X14991Y04713*
X14985Y04705*
X14981Y04695*
X14979Y04685*
X14981Y04674*
X14985Y04664*
X14991Y04656*
X14999Y0465*
X15009Y04646*
X1502Y04644*
X1503Y04646*
X1504Y0465*
X15048Y04656*
X15055Y04664*
X15059Y04674*
X1506Y04685*
X15059Y04695*
X15055Y04705*
X15048Y04713*
X1504Y0472*
X1503Y04724*
X1502Y04725*
G37*
G36*
X1682Y05525D02*
X16809Y05524D01*
X16799Y0552*
X16791Y05513*
X16785Y05505*
X16781Y05495*
X16779Y05485*
X16781Y05474*
X16785Y05464*
X16791Y05456*
X16799Y0545*
X16809Y05446*
X1682Y05444*
X1683Y05446*
X1684Y0545*
X16848Y05456*
X16855Y05464*
X16859Y05474*
X1686Y05485*
X16859Y05495*
X16855Y05505*
X16848Y05513*
X1684Y0552*
X1683Y05524*
X1682Y05525*
G37*
G36*
X1662D02*
X16609Y05524D01*
X16599Y0552*
X16591Y05513*
X16585Y05505*
X16581Y05495*
X16579Y05485*
X16581Y05474*
X16585Y05464*
X16591Y05456*
X16599Y0545*
X16609Y05446*
X1662Y05444*
X1663Y05446*
X1664Y0545*
X16648Y05456*
X16655Y05464*
X16659Y05474*
X1666Y05485*
X16659Y05495*
X16655Y05505*
X16648Y05513*
X1664Y0552*
X1663Y05524*
X1662Y05525*
G37*
G36*
X02889Y05686D02*
X02872Y05684D01*
X02855Y05679*
X0284Y05671*
X02826Y0566*
X02815Y05646*
X02807Y05631*
X02802Y05614*
X028Y05596*
X02802Y05579*
X02807Y05562*
X02815Y05547*
X02826Y05533*
X0284Y05522*
X02855Y05514*
X02872Y05509*
X02889Y05507*
X02907Y05509*
X02924Y05514*
X02939Y05522*
X02953Y05533*
X02964Y05547*
X02972Y05562*
X02977Y05579*
X02979Y05596*
X02977Y05614*
X02972Y05631*
X02964Y05646*
X02953Y0566*
X02939Y05671*
X02924Y05679*
X02907Y05684*
X02889Y05686*
G37*
G36*
X03229Y05525D02*
X03219Y05524D01*
X0321Y0552*
X03135*
X03125Y05519*
X03117Y05515*
X03109Y05509*
X03044Y05444*
X03015*
X03006Y05448*
X02996Y05449*
X02985Y05448*
X02975Y05444*
X02967Y05437*
X02961Y05429*
X02957Y05419*
X02955Y05409*
X02957Y05398*
X02961Y05388*
X02967Y0538*
X02975Y05374*
X02985Y0537*
X02996Y05368*
X03006Y0537*
X03015Y05374*
X03059*
X03068Y05375*
X03076Y05378*
X03084Y05384*
X03149Y05449*
X0321*
X03219Y05446*
X03229Y05444*
X0324Y05446*
X0325Y0545*
X03258Y05456*
X03264Y05464*
X03268Y05474*
X0327Y05485*
X03268Y05495*
X03264Y05505*
X03258Y05513*
X0325Y0552*
X0324Y05524*
X03229Y05525*
G37*
G36*
X1522D02*
X15209Y05524D01*
X15199Y0552*
X15191Y05513*
X15185Y05505*
X15181Y05495*
X15179Y05485*
X15181Y05474*
X15185Y05464*
X15191Y05456*
X15199Y0545*
X15209Y05446*
X1522Y05444*
X1523Y05446*
X1524Y0545*
X15248Y05456*
X15255Y05464*
X15259Y05474*
X1526Y05485*
X15259Y05495*
X15255Y05505*
X15248Y05513*
X1524Y0552*
X1523Y05524*
X1522Y05525*
G37*
G36*
X1202D02*
X12009Y05524D01*
X11999Y0552*
X11991Y05513*
X11985Y05505*
X11981Y05495*
X11979Y05485*
X11981Y05474*
X11985Y05464*
X11991Y05456*
X11999Y0545*
X12009Y05446*
X1202Y05444*
X1203Y05446*
X1204Y0545*
X12048Y05456*
X12055Y05464*
X12059Y05474*
X1206Y05485*
X12059Y05495*
X12055Y05505*
X12048Y05513*
X1204Y0552*
X1203Y05524*
X1202Y05525*
G37*
G36*
X1042D02*
X10409Y05524D01*
X10399Y0552*
X10391Y05513*
X10385Y05505*
X10381Y05495*
X10379Y05485*
X10381Y05474*
X10385Y05464*
X10391Y05456*
X10399Y0545*
X10409Y05446*
X1042Y05444*
X1043Y05446*
X1044Y0545*
X10448Y05456*
X10455Y05464*
X10459Y05474*
X1046Y05485*
X10459Y05495*
X10455Y05505*
X10448Y05513*
X1044Y0552*
X1043Y05524*
X1042Y05525*
G37*
G36*
X1362D02*
X13609Y05524D01*
X13599Y0552*
X13591Y05513*
X13585Y05505*
X13581Y05495*
X13579Y05485*
X13581Y05474*
X13585Y05464*
X13591Y05456*
X13599Y0545*
X13609Y05446*
X1362Y05444*
X1363Y05446*
X1364Y0545*
X13648Y05456*
X13655Y05464*
X13659Y05474*
X1366Y05485*
X13659Y05495*
X13655Y05505*
X13648Y05513*
X1364Y0552*
X1363Y05524*
X1362Y05525*
G37*
G36*
X1342D02*
X13409Y05524D01*
X13399Y0552*
X13391Y05513*
X13385Y05505*
X13381Y05495*
X13379Y05485*
X13381Y05474*
X13385Y05464*
X13391Y05456*
X13399Y0545*
X13409Y05446*
X1342Y05444*
X1343Y05446*
X1344Y0545*
X13448Y05456*
X13455Y05464*
X13459Y05474*
X1346Y05485*
X13459Y05495*
X13455Y05505*
X13448Y05513*
X1344Y0552*
X1343Y05524*
X1342Y05525*
G37*
G36*
X03129Y0713D02*
X03112Y07128D01*
X03095Y07123*
X0308Y07115*
X03066Y07103*
X03055Y0709*
X03047Y07075*
X03042Y07058*
X0304Y0704*
X03042Y07023*
X03047Y07006*
X03055Y06991*
X03066Y06977*
X0308Y06966*
X03095Y06958*
X03112Y06953*
X03129Y06951*
X03147Y06953*
X03164Y06958*
X03179Y06966*
X03192Y06977*
X03204Y06991*
X03212Y07006*
X03217Y07023*
X03219Y0704*
X03217Y07058*
X03212Y07075*
X03204Y0709*
X03192Y07103*
X03179Y07115*
X03164Y07123*
X03147Y07128*
X03129Y0713*
G37*
G36*
X02729D02*
X02712Y07128D01*
X02695Y07123*
X0268Y07115*
X02666Y07103*
X02655Y0709*
X02647Y07075*
X02642Y07058*
X0264Y0704*
X02642Y07023*
X02647Y07006*
X02655Y06991*
X02666Y06977*
X0268Y06966*
X02695Y06958*
X02712Y06953*
X02729Y06951*
X02747Y06953*
X02764Y06958*
X02779Y06966*
X02792Y06977*
X02804Y06991*
X02812Y07006*
X02817Y07023*
X02819Y0704*
X02817Y07058*
X02812Y07075*
X02804Y0709*
X02792Y07103*
X02779Y07115*
X02764Y07123*
X02747Y07128*
X02729Y0713*
G37*
G36*
X03929D02*
X03912Y07128D01*
X03895Y07123*
X0388Y07115*
X03866Y07103*
X03855Y0709*
X03847Y07075*
X03842Y07058*
X0384Y0704*
X03842Y07023*
X03847Y07006*
X03855Y06991*
X03866Y06977*
X0388Y06966*
X03895Y06958*
X03912Y06953*
X03929Y06951*
X03947Y06953*
X03964Y06958*
X03979Y06966*
X03992Y06977*
X04004Y06991*
X04012Y07006*
X04017Y07023*
X04019Y0704*
X04017Y07058*
X04012Y07075*
X04004Y0709*
X03992Y07103*
X03979Y07115*
X03964Y07123*
X03947Y07128*
X03929Y0713*
G37*
G36*
X03529D02*
X03512Y07128D01*
X03495Y07123*
X0348Y07115*
X03466Y07103*
X03455Y0709*
X03447Y07075*
X03442Y07058*
X0344Y0704*
X03442Y07023*
X03447Y07006*
X03455Y06991*
X03466Y06977*
X0348Y06966*
X03495Y06958*
X03512Y06953*
X03529Y06951*
X03547Y06953*
X03564Y06958*
X03579Y06966*
X03592Y06977*
X03604Y06991*
X03612Y07006*
X03617Y07023*
X03619Y0704*
X03617Y07058*
X03612Y07075*
X03604Y0709*
X03592Y07103*
X03579Y07115*
X03564Y07123*
X03547Y07128*
X03529Y0713*
G37*
G36*
X02329D02*
X02312Y07128D01*
X02295Y07123*
X0228Y07115*
X02266Y07103*
X02255Y0709*
X02247Y07075*
X02242Y07058*
X0224Y0704*
X02242Y07023*
X02247Y07006*
X02255Y06991*
X02266Y06977*
X0228Y06966*
X02295Y06958*
X02312Y06953*
X02329Y06951*
X02347Y06953*
X02364Y06958*
X02379Y06966*
X02392Y06977*
X02404Y06991*
X02412Y07006*
X02417Y07023*
X02419Y0704*
X02417Y07058*
X02412Y07075*
X02404Y0709*
X02392Y07103*
X02379Y07115*
X02364Y07123*
X02347Y07128*
X02329Y0713*
G37*
G36*
X1682Y05825D02*
X16809Y05824D01*
X168Y0582*
X16639*
X1663Y05824*
X1662Y05825*
X16609Y05824*
X166Y0582*
X15239*
X1523Y05824*
X1522Y05825*
X15209Y05824*
X152Y0582*
X15039*
X1503Y05824*
X1502Y05825*
X15009Y05824*
X15Y0582*
X13639*
X1363Y05824*
X1362Y05825*
X13609Y05824*
X136Y0582*
X13439*
X1343Y05824*
X1342Y05825*
X13409Y05824*
X134Y0582*
X12039*
X1203Y05824*
X1202Y05825*
X12009Y05824*
X12Y0582*
X11839*
X1183Y05824*
X1182Y05825*
X11809Y05824*
X118Y0582*
X10439*
X1043Y05824*
X1042Y05825*
X10409Y05824*
X104Y0582*
X10239*
X1023Y05824*
X1022Y05825*
X10209Y05824*
X102Y0582*
X08839*
X0883Y05824*
X0882Y05825*
X08809Y05824*
X088Y0582*
X08639*
X0863Y05824*
X0862Y05825*
X08609Y05824*
X086Y0582*
X07239*
X0723Y05824*
X0722Y05825*
X07209Y05824*
X072Y0582*
X07039*
X0703Y05824*
X0702Y05825*
X07009Y05824*
X07Y0582*
X05639*
X0563Y05824*
X0562Y05825*
X05609Y05824*
X056Y0582*
X05439*
X0543Y05824*
X0542Y05825*
X05409Y05824*
X054Y0582*
X03449*
X0344Y05824*
X03429Y05825*
X03419Y05824*
X0341Y0582*
X03249*
X0324Y05824*
X03229Y05825*
X03219Y05824*
X03209Y0582*
X03201Y05813*
X03194Y05805*
X0319Y05795*
X03189Y05785*
X0319Y05774*
X03194Y05764*
X03201Y05756*
X03209Y0575*
X03219Y05746*
X03229Y05744*
X0324Y05746*
X03249Y05749*
X0341*
X03419Y05746*
X03429Y05744*
X0344Y05746*
X03449Y05749*
X054*
X05409Y05746*
X0542Y05744*
X0543Y05746*
X05439Y05749*
X056*
X05609Y05746*
X0562Y05744*
X0563Y05746*
X05639Y05749*
X07*
X07009Y05746*
X0702Y05744*
X0703Y05746*
X07039Y05749*
X072*
X07209Y05746*
X0722Y05744*
X0723Y05746*
X07239Y05749*
X086*
X08609Y05746*
X0862Y05744*
X0863Y05746*
X08639Y05749*
X088*
X08809Y05746*
X0882Y05744*
X0883Y05746*
X08839Y05749*
X102*
X10209Y05746*
X1022Y05744*
X1023Y05746*
X10239Y05749*
X104*
X10409Y05746*
X1042Y05744*
X1043Y05746*
X10439Y05749*
X118*
X11809Y05746*
X1182Y05744*
X1183Y05746*
X11839Y05749*
X12*
X12009Y05746*
X1202Y05744*
X1203Y05746*
X12039Y05749*
X134*
X13409Y05746*
X1342Y05744*
X1343Y05746*
X13439Y05749*
X136*
X13609Y05746*
X1362Y05744*
X1363Y05746*
X13639Y05749*
X15*
X15009Y05746*
X1502Y05744*
X1503Y05746*
X15039Y05749*
X152*
X15209Y05746*
X1522Y05744*
X1523Y05746*
X15239Y05749*
X166*
X16609Y05746*
X1662Y05744*
X1663Y05746*
X16639Y05749*
X168*
X16809Y05746*
X1682Y05744*
X1683Y05746*
X1684Y0575*
X16848Y05756*
X16855Y05764*
X16859Y05774*
X1686Y05785*
X16859Y05795*
X16855Y05805*
X16848Y05813*
X1684Y0582*
X1683Y05824*
X1682Y05825*
G37*
G36*
Y05725D02*
X16809Y05724D01*
X168Y0572*
X16639*
X1663Y05724*
X1662Y05725*
X16609Y05724*
X166Y0572*
X15239*
X1523Y05724*
X1522Y05725*
X15209Y05724*
X152Y0572*
X15039*
X1503Y05724*
X1502Y05725*
X15009Y05724*
X15Y0572*
X13639*
X1363Y05724*
X1362Y05725*
X13609Y05724*
X136Y0572*
X13439*
X1343Y05724*
X1342Y05725*
X13409Y05724*
X134Y0572*
X12039*
X1203Y05724*
X1202Y05725*
X12009Y05724*
X12Y0572*
X11839*
X1183Y05724*
X1182Y05725*
X11809Y05724*
X118Y0572*
X10439*
X1043Y05724*
X1042Y05725*
X10409Y05724*
X104Y0572*
X10239*
X1023Y05724*
X1022Y05725*
X10209Y05724*
X102Y0572*
X08839*
X0883Y05724*
X0882Y05725*
X08809Y05724*
X088Y0572*
X08639*
X0863Y05724*
X0862Y05725*
X08609Y05724*
X086Y0572*
X07239*
X0723Y05724*
X0722Y05725*
X07209Y05724*
X072Y0572*
X07039*
X0703Y05724*
X0702Y05725*
X07009Y05724*
X07Y0572*
X05639*
X0563Y05724*
X0562Y05725*
X05609Y05724*
X056Y0572*
X05439*
X0543Y05724*
X0542Y05725*
X05409Y05724*
X054Y0572*
X03449*
X0344Y05724*
X03429Y05725*
X03419Y05724*
X0341Y0572*
X03249*
X0324Y05724*
X03229Y05725*
X03219Y05724*
X03209Y0572*
X03201Y05713*
X03194Y05705*
X0319Y05695*
X03189Y05685*
X0319Y05674*
X03194Y05664*
X03201Y05656*
X03209Y0565*
X03219Y05646*
X03229Y05644*
X0324Y05646*
X03249Y05649*
X0341*
X03419Y05646*
X03429Y05644*
X0344Y05646*
X03449Y05649*
X054*
X05409Y05646*
X0542Y05644*
X0543Y05646*
X05439Y05649*
X056*
X05609Y05646*
X0562Y05644*
X0563Y05646*
X05639Y05649*
X07*
X07009Y05646*
X0702Y05644*
X0703Y05646*
X07039Y05649*
X072*
X07209Y05646*
X0722Y05644*
X0723Y05646*
X07239Y05649*
X086*
X08609Y05646*
X0862Y05644*
X0863Y05646*
X08639Y05649*
X088*
X08809Y05646*
X0882Y05644*
X0883Y05646*
X08839Y05649*
X102*
X10209Y05646*
X1022Y05644*
X1023Y05646*
X10239Y05649*
X104*
X10409Y05646*
X1042Y05644*
X1043Y05646*
X10439Y05649*
X118*
X11809Y05646*
X1182Y05644*
X1183Y05646*
X11839Y05649*
X12*
X12009Y05646*
X1202Y05644*
X1203Y05646*
X12039Y05649*
X134*
X13409Y05646*
X1342Y05644*
X1343Y05646*
X13439Y05649*
X136*
X13609Y05646*
X1362Y05644*
X1363Y05646*
X13639Y05649*
X15*
X15009Y05646*
X1502Y05644*
X1503Y05646*
X15039Y05649*
X152*
X15209Y05646*
X1522Y05644*
X1523Y05646*
X15239Y05649*
X166*
X16609Y05646*
X1662Y05644*
X1663Y05646*
X16639Y05649*
X168*
X16809Y05646*
X1682Y05644*
X1683Y05646*
X1684Y0565*
X16848Y05656*
X16855Y05664*
X16859Y05674*
X1686Y05685*
X16859Y05695*
X16855Y05705*
X16848Y05713*
X1684Y0572*
X1683Y05724*
X1682Y05725*
G37*
G36*
X01929Y0713D02*
X01912Y07128D01*
X01895Y07123*
X0188Y07115*
X01866Y07103*
X01855Y0709*
X01847Y07075*
X01842Y07058*
X0184Y0704*
X01842Y07023*
X01847Y07006*
X01855Y06991*
X01866Y06977*
X0188Y06966*
X01895Y06958*
X01912Y06953*
X01929Y06951*
X01947Y06953*
X01964Y06958*
X01979Y06966*
X01992Y06977*
X02004Y06991*
X02012Y07006*
X02017Y07023*
X02019Y0704*
X02017Y07058*
X02012Y07075*
X02004Y0709*
X01992Y07103*
X01979Y07115*
X01964Y07123*
X01947Y07128*
X01929Y0713*
G37*
G36*
X16879Y0651D02*
X02579D01*
X02575Y06509*
X02572Y06507*
X0257Y06503*
X02569Y065*
Y0604*
X0257Y06036*
X02572Y06032*
X02575Y0603*
X02579Y06029*
X03139*
Y0594*
X0314Y05936*
X03142Y05932*
X03146Y0593*
X0315Y05929*
X16879*
X16883Y0593*
X16887Y05932*
X16889Y05936*
X1689Y0594*
Y06029*
X16889Y06033*
X16888Y06035*
X16889Y06036*
X1689Y0604*
Y065*
X16889Y06503*
X16887Y06507*
X16883Y06509*
X16879Y0651*
G37*
G36*
X1202Y05425D02*
X12009Y05424D01*
X11999Y0542*
X11991Y05413*
X11985Y05405*
X11981Y05395*
X11979Y05385*
X11981Y05374*
X11985Y05364*
X11991Y05356*
X11999Y0535*
X12009Y05346*
X1202Y05344*
X1203Y05346*
X1204Y0535*
X12048Y05356*
X12055Y05364*
X12059Y05374*
X1206Y05385*
X12059Y05395*
X12055Y05405*
X12048Y05413*
X1204Y0542*
X1203Y05424*
X1202Y05425*
G37*
G36*
X1182D02*
X11809Y05424D01*
X11799Y0542*
X11791Y05413*
X11785Y05405*
X11781Y05395*
X11779Y05385*
X11781Y05374*
X11785Y05364*
X11791Y05356*
X11799Y0535*
X11809Y05346*
X1182Y05344*
X1183Y05346*
X1184Y0535*
X11848Y05356*
X11855Y05364*
X11859Y05374*
X1186Y05385*
X11859Y05395*
X11855Y05405*
X11848Y05413*
X1184Y0542*
X1183Y05424*
X1182Y05425*
G37*
G36*
X1362D02*
X13609Y05424D01*
X13599Y0542*
X13591Y05413*
X13585Y05405*
X13581Y05395*
X13579Y05385*
X13581Y05374*
X13585Y05364*
X13591Y05356*
X13599Y0535*
X13609Y05346*
X1362Y05344*
X1363Y05346*
X1364Y0535*
X13648Y05356*
X13655Y05364*
X13659Y05374*
X1366Y05385*
X13659Y05395*
X13655Y05405*
X13648Y05413*
X1364Y0542*
X1363Y05424*
X1362Y05425*
G37*
G36*
X1342D02*
X13409Y05424D01*
X13399Y0542*
X13391Y05413*
X13385Y05405*
X13381Y05395*
X13379Y05385*
X13381Y05374*
X13385Y05364*
X13391Y05356*
X13399Y0535*
X13409Y05346*
X1342Y05344*
X1343Y05346*
X1344Y0535*
X13448Y05356*
X13455Y05364*
X13459Y05374*
X1346Y05385*
X13459Y05395*
X13455Y05405*
X13448Y05413*
X1344Y0542*
X1343Y05424*
X1342Y05425*
G37*
G36*
X1042D02*
X10409Y05424D01*
X10399Y0542*
X10391Y05413*
X10385Y05405*
X10381Y05395*
X10379Y05385*
X10381Y05374*
X10385Y05364*
X10391Y05356*
X10399Y0535*
X10409Y05346*
X1042Y05344*
X1043Y05346*
X1044Y0535*
X10448Y05356*
X10455Y05364*
X10459Y05374*
X1046Y05385*
X10459Y05395*
X10455Y05405*
X10448Y05413*
X1044Y0542*
X1043Y05424*
X1042Y05425*
G37*
G36*
X0702D02*
X07009Y05424D01*
X06999Y0542*
X06991Y05413*
X06985Y05405*
X06981Y05395*
X06979Y05385*
X06981Y05374*
X06985Y05364*
X06991Y05356*
X06999Y0535*
X07009Y05346*
X0702Y05344*
X0703Y05346*
X0704Y0535*
X07048Y05356*
X07055Y05364*
X07059Y05374*
X0706Y05385*
X07059Y05395*
X07055Y05405*
X07048Y05413*
X0704Y0542*
X0703Y05424*
X0702Y05425*
G37*
G36*
X0562D02*
X05609Y05424D01*
X05599Y0542*
X05591Y05413*
X05585Y05405*
X05581Y05395*
X05579Y05385*
X05581Y05374*
X05585Y05364*
X05591Y05356*
X05599Y0535*
X05609Y05346*
X0562Y05344*
X0563Y05346*
X0564Y0535*
X05648Y05356*
X05655Y05364*
X05659Y05374*
X0566Y05385*
X05659Y05395*
X05655Y05405*
X05648Y05413*
X0564Y0542*
X0563Y05424*
X0562Y05425*
G37*
G36*
X0882D02*
X08809Y05424D01*
X08799Y0542*
X08791Y05413*
X08785Y05405*
X08781Y05395*
X08779Y05385*
X08781Y05374*
X08785Y05364*
X08791Y05356*
X08799Y0535*
X08809Y05346*
X0882Y05344*
X0883Y05346*
X0884Y0535*
X08848Y05356*
X08855Y05364*
X08859Y05374*
X0886Y05385*
X08859Y05395*
X08855Y05405*
X08848Y05413*
X0884Y0542*
X0883Y05424*
X0882Y05425*
G37*
G36*
X0722D02*
X07209Y05424D01*
X07199Y0542*
X07191Y05413*
X07185Y05405*
X07181Y05395*
X07179Y05385*
X07181Y05374*
X07185Y05364*
X07191Y05356*
X07199Y0535*
X07209Y05346*
X0722Y05344*
X0723Y05346*
X0724Y0535*
X07248Y05356*
X07255Y05364*
X07259Y05374*
X0726Y05385*
X07259Y05395*
X07255Y05405*
X07248Y05413*
X0724Y0542*
X0723Y05424*
X0722Y05425*
G37*
G36*
Y05525D02*
X07209Y05524D01*
X07199Y0552*
X07191Y05513*
X07185Y05505*
X07181Y05495*
X07179Y05485*
X07181Y05474*
X07185Y05464*
X07191Y05456*
X07199Y0545*
X07209Y05446*
X0722Y05444*
X0723Y05446*
X0724Y0545*
X07248Y05456*
X07255Y05464*
X07259Y05474*
X0726Y05485*
X07259Y05495*
X07255Y05505*
X07248Y05513*
X0724Y0552*
X0723Y05524*
X0722Y05525*
G37*
G36*
X0702D02*
X07009Y05524D01*
X06999Y0552*
X06991Y05513*
X06985Y05505*
X06981Y05495*
X06979Y05485*
X06981Y05474*
X06985Y05464*
X06991Y05456*
X06999Y0545*
X07009Y05446*
X0702Y05444*
X0703Y05446*
X0704Y0545*
X07048Y05456*
X07055Y05464*
X07059Y05474*
X0706Y05485*
X07059Y05495*
X07055Y05505*
X07048Y05513*
X0704Y0552*
X0703Y05524*
X0702Y05525*
G37*
G36*
X1022D02*
X10209Y05524D01*
X10199Y0552*
X10191Y05513*
X10185Y05505*
X10181Y05495*
X10179Y05485*
X10181Y05474*
X10185Y05464*
X10191Y05456*
X10199Y0545*
X10209Y05446*
X1022Y05444*
X1023Y05446*
X1024Y0545*
X10248Y05456*
X10255Y05464*
X10259Y05474*
X1026Y05485*
X10259Y05495*
X10255Y05505*
X10248Y05513*
X1024Y0552*
X1023Y05524*
X1022Y05525*
G37*
G36*
X0882D02*
X08809Y05524D01*
X08799Y0552*
X08791Y05513*
X08785Y05505*
X08781Y05495*
X08779Y05485*
X08781Y05474*
X08785Y05464*
X08791Y05456*
X08799Y0545*
X08809Y05446*
X0882Y05444*
X0883Y05446*
X0884Y0545*
X08848Y05456*
X08855Y05464*
X08859Y05474*
X0886Y05485*
X08859Y05495*
X08855Y05505*
X08848Y05513*
X0884Y0552*
X0883Y05524*
X0882Y05525*
G37*
G36*
X0562D02*
X05609Y05524D01*
X05599Y0552*
X05591Y05513*
X05585Y05505*
X05581Y05495*
X05579Y05485*
X05581Y05474*
X05585Y05464*
X05591Y05456*
X05599Y0545*
X05609Y05446*
X0562Y05444*
X0563Y05446*
X0564Y0545*
X05648Y05456*
X05655Y05464*
X05659Y05474*
X0566Y05485*
X05659Y05495*
X05655Y05505*
X05648Y05513*
X0564Y0552*
X0563Y05524*
X0562Y05525*
G37*
G36*
X1682Y05425D02*
X16809Y05424D01*
X16799Y0542*
X16791Y05413*
X16785Y05405*
X16781Y05395*
X16779Y05385*
X16781Y05374*
X16785Y05364*
X16791Y05356*
X16799Y0535*
X16809Y05346*
X1682Y05344*
X1683Y05346*
X1684Y0535*
X16848Y05356*
X16855Y05364*
X16859Y05374*
X1686Y05385*
X16859Y05395*
X16855Y05405*
X16848Y05413*
X1684Y0542*
X1683Y05424*
X1682Y05425*
G37*
G36*
X1522D02*
X15209Y05424D01*
X15199Y0542*
X15191Y05413*
X15185Y05405*
X15181Y05395*
X15179Y05385*
X15181Y05374*
X15185Y05364*
X15191Y05356*
X15199Y0535*
X15209Y05346*
X1522Y05344*
X1523Y05346*
X1524Y0535*
X15248Y05356*
X15255Y05364*
X15259Y05374*
X1526Y05385*
X15259Y05395*
X15255Y05405*
X15248Y05413*
X1524Y0542*
X1523Y05424*
X1522Y05425*
G37*
G36*
X03429Y05525D02*
X03419Y05524D01*
X03409Y0552*
X03401Y05513*
X03394Y05505*
X0339Y05495*
X03389Y05485*
X0339Y05474*
X03394Y05464*
X03401Y05456*
X03409Y0545*
X03419Y05446*
X03429Y05444*
X0344Y05446*
X0345Y0545*
X03458Y05456*
X03464Y05464*
X03468Y05474*
X0347Y05485*
X03468Y05495*
X03464Y05505*
X03458Y05513*
X0345Y0552*
X0344Y05524*
X03429Y05525*
G37*
G36*
X03229Y05425D02*
X03219Y05424D01*
X03209Y0542*
X03201Y05413*
X03195Y05405*
X03135*
X03127Y05403*
X0312Y05399*
X03052Y05331*
X03031*
X03024Y05339*
X03016Y05345*
X03006Y0535*
X02996Y05351*
X02985Y0535*
X02975Y05345*
X02967Y05339*
X02961Y05331*
X02957Y05321*
X02955Y0531*
X02957Y053*
X02961Y0529*
X02967Y05282*
X02975Y05275*
X02976*
X02975Y0527*
X02939*
X02909Y053*
X0291Y0531*
X02909Y05321*
X02905Y05331*
X02898Y05339*
X0289Y05345*
X0288Y0535*
X0287Y05351*
X02859Y0535*
X02849Y05345*
X02841Y05339*
X02835Y05331*
X02831Y05321*
X02829Y0531*
X02831Y053*
X02835Y0529*
X02841Y05282*
X02849Y05275*
X02859Y05271*
X0287Y0527*
X0288Y05271*
X02916Y05235*
X02922Y05231*
X0293Y05229*
X0314*
X03147Y05231*
X03154Y05235*
X03183Y05264*
X03195*
X03201Y05256*
X03209Y0525*
X03219Y05246*
X03229Y05244*
X0324Y05246*
X0325Y0525*
X03258Y05256*
X03264Y05264*
X03268Y05274*
X0327Y05285*
X03268Y05295*
X03264Y05305*
X03258Y05313*
X0325Y0532*
X0324Y05324*
X03229Y05325*
X03219Y05324*
X03209Y0532*
X03201Y05313*
X03195Y05305*
X03175*
X03174*
X03167Y05303*
X0316Y05299*
X03131Y0527*
X03016*
X03015Y05275*
X03016*
X03024Y05282*
X03031Y0529*
X0306*
X03068Y05291*
X03075Y05296*
X03143Y05364*
X03195*
X03201Y05356*
X03209Y0535*
X03219Y05346*
X03229Y05344*
X0324Y05346*
X0325Y0535*
X03258Y05356*
X03264Y05364*
X03268Y05374*
X0327Y05385*
X03268Y05395*
X03264Y05405*
X03258Y05413*
X0325Y0542*
X0324Y05424*
X03229Y05425*
G37*
G36*
X13929Y0713D02*
X13912Y07128D01*
X13895Y07123*
X1388Y07115*
X13866Y07103*
X13855Y0709*
X13847Y07075*
X13842Y07058*
X1384Y0704*
X13842Y07023*
X13847Y07006*
X13855Y06991*
X13866Y06977*
X1388Y06966*
X13895Y06958*
X13912Y06953*
X13929Y06951*
X13947Y06953*
X13964Y06958*
X13979Y06966*
X13992Y06977*
X14004Y06991*
X14012Y07006*
X14017Y07023*
X14019Y0704*
X14017Y07058*
X14012Y07075*
X14004Y0709*
X13992Y07103*
X13979Y07115*
X13964Y07123*
X13947Y07128*
X13929Y0713*
G37*
G36*
X13529D02*
X13512Y07128D01*
X13495Y07123*
X1348Y07115*
X13466Y07103*
X13455Y0709*
X13447Y07075*
X13442Y07058*
X1344Y0704*
X13442Y07023*
X13447Y07006*
X13455Y06991*
X13466Y06977*
X1348Y06966*
X13495Y06958*
X13512Y06953*
X13529Y06951*
X13547Y06953*
X13564Y06958*
X13579Y06966*
X13592Y06977*
X13604Y06991*
X13612Y07006*
X13617Y07023*
X13619Y0704*
X13617Y07058*
X13612Y07075*
X13604Y0709*
X13592Y07103*
X13579Y07115*
X13564Y07123*
X13547Y07128*
X13529Y0713*
G37*
G36*
X14729D02*
X14712Y07128D01*
X14695Y07123*
X1468Y07115*
X14666Y07103*
X14655Y0709*
X14647Y07075*
X14642Y07058*
X1464Y0704*
X14642Y07023*
X14647Y07006*
X14655Y06991*
X14666Y06977*
X1468Y06966*
X14695Y06958*
X14712Y06953*
X14729Y06951*
X14747Y06953*
X14764Y06958*
X14779Y06966*
X14792Y06977*
X14804Y06991*
X14812Y07006*
X14817Y07023*
X14819Y0704*
X14817Y07058*
X14812Y07075*
X14804Y0709*
X14792Y07103*
X14779Y07115*
X14764Y07123*
X14747Y07128*
X14729Y0713*
G37*
G36*
X14329D02*
X14312Y07128D01*
X14295Y07123*
X1428Y07115*
X14266Y07103*
X14255Y0709*
X14247Y07075*
X14242Y07058*
X1424Y0704*
X14242Y07023*
X14247Y07006*
X14255Y06991*
X14266Y06977*
X1428Y06966*
X14295Y06958*
X14312Y06953*
X14329Y06951*
X14347Y06953*
X14364Y06958*
X14379Y06966*
X14392Y06977*
X14404Y06991*
X14412Y07006*
X14417Y07023*
X14419Y0704*
X14417Y07058*
X14412Y07075*
X14404Y0709*
X14392Y07103*
X14379Y07115*
X14364Y07123*
X14347Y07128*
X14329Y0713*
G37*
G36*
X13129D02*
X13112Y07128D01*
X13095Y07123*
X1308Y07115*
X13066Y07103*
X13055Y0709*
X13047Y07075*
X13042Y07058*
X1304Y0704*
X13042Y07023*
X13047Y07006*
X13055Y06991*
X13066Y06977*
X1308Y06966*
X13095Y06958*
X13112Y06953*
X13129Y06951*
X13147Y06953*
X13164Y06958*
X13179Y06966*
X13192Y06977*
X13204Y06991*
X13212Y07006*
X13217Y07023*
X13219Y0704*
X13217Y07058*
X13212Y07075*
X13204Y0709*
X13192Y07103*
X13179Y07115*
X13164Y07123*
X13147Y07128*
X13129Y0713*
G37*
G36*
X11929D02*
X11912Y07128D01*
X11895Y07123*
X1188Y07115*
X11866Y07103*
X11855Y0709*
X11847Y07075*
X11842Y07058*
X1184Y0704*
X11842Y07023*
X11847Y07006*
X11855Y06991*
X11866Y06977*
X1188Y06966*
X11895Y06958*
X11912Y06953*
X11929Y06951*
X11947Y06953*
X11964Y06958*
X11979Y06966*
X11992Y06977*
X12004Y06991*
X12012Y07006*
X12017Y07023*
X12019Y0704*
X12017Y07058*
X12012Y07075*
X12004Y0709*
X11992Y07103*
X11979Y07115*
X11964Y07123*
X11947Y07128*
X11929Y0713*
G37*
G36*
X11529D02*
X11512Y07128D01*
X11495Y07123*
X1148Y07115*
X11466Y07103*
X11455Y0709*
X11447Y07075*
X11442Y07058*
X1144Y0704*
X11442Y07023*
X11447Y07006*
X11455Y06991*
X11466Y06977*
X1148Y06966*
X11495Y06958*
X11512Y06953*
X11529Y06951*
X11547Y06953*
X11564Y06958*
X11579Y06966*
X11592Y06977*
X11604Y06991*
X11612Y07006*
X11617Y07023*
X11619Y0704*
X11617Y07058*
X11612Y07075*
X11604Y0709*
X11592Y07103*
X11579Y07115*
X11564Y07123*
X11547Y07128*
X11529Y0713*
G37*
G36*
X12729D02*
X12712Y07128D01*
X12695Y07123*
X1268Y07115*
X12666Y07103*
X12655Y0709*
X12647Y07075*
X12642Y07058*
X1264Y0704*
X12642Y07023*
X12647Y07006*
X12655Y06991*
X12666Y06977*
X1268Y06966*
X12695Y06958*
X12712Y06953*
X12729Y06951*
X12747Y06953*
X12764Y06958*
X12779Y06966*
X12792Y06977*
X12804Y06991*
X12812Y07006*
X12817Y07023*
X12819Y0704*
X12817Y07058*
X12812Y07075*
X12804Y0709*
X12792Y07103*
X12779Y07115*
X12764Y07123*
X12747Y07128*
X12729Y0713*
G37*
G36*
X12329D02*
X12312Y07128D01*
X12295Y07123*
X1228Y07115*
X12266Y07103*
X12255Y0709*
X12247Y07075*
X12242Y07058*
X1224Y0704*
X12242Y07023*
X12247Y07006*
X12255Y06991*
X12266Y06977*
X1228Y06966*
X12295Y06958*
X12312Y06953*
X12329Y06951*
X12347Y06953*
X12364Y06958*
X12379Y06966*
X12392Y06977*
X12404Y06991*
X12412Y07006*
X12417Y07023*
X12419Y0704*
X12417Y07058*
X12412Y07075*
X12404Y0709*
X12392Y07103*
X12379Y07115*
X12364Y07123*
X12347Y07128*
X12329Y0713*
G37*
G36*
X17529D02*
X17512Y07128D01*
X17495Y07123*
X1748Y07115*
X17466Y07103*
X17455Y0709*
X17447Y07075*
X17442Y07058*
X1744Y0704*
X17442Y07023*
X17447Y07006*
X17455Y06991*
X17466Y06977*
X1748Y06966*
X17495Y06958*
X17512Y06953*
X17529Y06951*
X17547Y06953*
X17564Y06958*
X17579Y06966*
X17592Y06977*
X17604Y06991*
X17612Y07006*
X17617Y07023*
X17619Y0704*
X17617Y07058*
X17612Y07075*
X17604Y0709*
X17592Y07103*
X17579Y07115*
X17564Y07123*
X17547Y07128*
X17529Y0713*
G37*
G36*
X17129D02*
X17112Y07128D01*
X17095Y07123*
X1708Y07115*
X17066Y07103*
X17055Y0709*
X17047Y07075*
X17042Y07058*
X1704Y0704*
X17042Y07023*
X17047Y07006*
X17055Y06991*
X17066Y06977*
X1708Y06966*
X17095Y06958*
X17112Y06953*
X17129Y06951*
X17147Y06953*
X17164Y06958*
X17179Y06966*
X17192Y06977*
X17204Y06991*
X17212Y07006*
X17217Y07023*
X17219Y0704*
X17217Y07058*
X17212Y07075*
X17204Y0709*
X17192Y07103*
X17179Y07115*
X17164Y07123*
X17147Y07128*
X17129Y0713*
G37*
G36*
X18329D02*
X18312Y07128D01*
X18295Y07123*
X1828Y07115*
X18266Y07103*
X18255Y0709*
X18247Y07075*
X18242Y07058*
X1824Y0704*
X18242Y07023*
X18247Y07006*
X18255Y06991*
X18266Y06977*
X1828Y06966*
X18295Y06958*
X18312Y06953*
X18329Y06951*
X18347Y06953*
X18364Y06958*
X18379Y06966*
X18392Y06977*
X18404Y06991*
X18412Y07006*
X18417Y07023*
X18419Y0704*
X18417Y07058*
X18412Y07075*
X18404Y0709*
X18392Y07103*
X18379Y07115*
X18364Y07123*
X18347Y07128*
X18329Y0713*
G37*
G36*
X17929D02*
X17912Y07128D01*
X17895Y07123*
X1788Y07115*
X17866Y07103*
X17855Y0709*
X17847Y07075*
X17842Y07058*
X1784Y0704*
X17842Y07023*
X17847Y07006*
X17855Y06991*
X17866Y06977*
X1788Y06966*
X17895Y06958*
X17912Y06953*
X17929Y06951*
X17947Y06953*
X17964Y06958*
X17979Y06966*
X17992Y06977*
X18004Y06991*
X18012Y07006*
X18017Y07023*
X18019Y0704*
X18017Y07058*
X18012Y07075*
X18004Y0709*
X17992Y07103*
X17979Y07115*
X17964Y07123*
X17947Y07128*
X17929Y0713*
G37*
G36*
X16729D02*
X16712Y07128D01*
X16695Y07123*
X1668Y07115*
X16666Y07103*
X16655Y0709*
X16647Y07075*
X16642Y07058*
X1664Y0704*
X16642Y07023*
X16647Y07006*
X16655Y06991*
X16666Y06977*
X1668Y06966*
X16695Y06958*
X16712Y06953*
X16729Y06951*
X16747Y06953*
X16764Y06958*
X16779Y06966*
X16792Y06977*
X16804Y06991*
X16812Y07006*
X16817Y07023*
X16819Y0704*
X16817Y07058*
X16812Y07075*
X16804Y0709*
X16792Y07103*
X16779Y07115*
X16764Y07123*
X16747Y07128*
X16729Y0713*
G37*
G36*
X15529D02*
X15512Y07128D01*
X15495Y07123*
X1548Y07115*
X15466Y07103*
X15455Y0709*
X15447Y07075*
X15442Y07058*
X1544Y0704*
X15442Y07023*
X15447Y07006*
X15455Y06991*
X15466Y06977*
X1548Y06966*
X15495Y06958*
X15512Y06953*
X15529Y06951*
X15547Y06953*
X15564Y06958*
X15579Y06966*
X15592Y06977*
X15604Y06991*
X15612Y07006*
X15617Y07023*
X15619Y0704*
X15617Y07058*
X15612Y07075*
X15604Y0709*
X15592Y07103*
X15579Y07115*
X15564Y07123*
X15547Y07128*
X15529Y0713*
G37*
G36*
X15129D02*
X15112Y07128D01*
X15095Y07123*
X1508Y07115*
X15066Y07103*
X15055Y0709*
X15047Y07075*
X15042Y07058*
X1504Y0704*
X15042Y07023*
X15047Y07006*
X15055Y06991*
X15066Y06977*
X1508Y06966*
X15095Y06958*
X15112Y06953*
X15129Y06951*
X15147Y06953*
X15164Y06958*
X15179Y06966*
X15192Y06977*
X15204Y06991*
X15212Y07006*
X15217Y07023*
X15219Y0704*
X15217Y07058*
X15212Y07075*
X15204Y0709*
X15192Y07103*
X15179Y07115*
X15164Y07123*
X15147Y07128*
X15129Y0713*
G37*
G36*
X16329D02*
X16312Y07128D01*
X16295Y07123*
X1628Y07115*
X16266Y07103*
X16255Y0709*
X16247Y07075*
X16242Y07058*
X1624Y0704*
X16242Y07023*
X16247Y07006*
X16255Y06991*
X16266Y06977*
X1628Y06966*
X16295Y06958*
X16312Y06953*
X16329Y06951*
X16347Y06953*
X16364Y06958*
X16379Y06966*
X16392Y06977*
X16404Y06991*
X16412Y07006*
X16417Y07023*
X16419Y0704*
X16417Y07058*
X16412Y07075*
X16404Y0709*
X16392Y07103*
X16379Y07115*
X16364Y07123*
X16347Y07128*
X16329Y0713*
G37*
G36*
X15929D02*
X15912Y07128D01*
X15895Y07123*
X1588Y07115*
X15866Y07103*
X15855Y0709*
X15847Y07075*
X15842Y07058*
X1584Y0704*
X15842Y07023*
X15847Y07006*
X15855Y06991*
X15866Y06977*
X1588Y06966*
X15895Y06958*
X15912Y06953*
X15929Y06951*
X15947Y06953*
X15964Y06958*
X15979Y06966*
X15992Y06977*
X16004Y06991*
X16012Y07006*
X16017Y07023*
X16019Y0704*
X16017Y07058*
X16012Y07075*
X16004Y0709*
X15992Y07103*
X15979Y07115*
X15964Y07123*
X15947Y07128*
X15929Y0713*
G37*
G36*
X06729D02*
X06712Y07128D01*
X06695Y07123*
X0668Y07115*
X06666Y07103*
X06655Y0709*
X06647Y07075*
X06642Y07058*
X0664Y0704*
X06642Y07023*
X06647Y07006*
X06655Y06991*
X06666Y06977*
X0668Y06966*
X06695Y06958*
X06712Y06953*
X06729Y06951*
X06747Y06953*
X06764Y06958*
X06779Y06966*
X06792Y06977*
X06804Y06991*
X06812Y07006*
X06817Y07023*
X06819Y0704*
X06817Y07058*
X06812Y07075*
X06804Y0709*
X06792Y07103*
X06779Y07115*
X06764Y07123*
X06747Y07128*
X06729Y0713*
G37*
G36*
X06329D02*
X06312Y07128D01*
X06295Y07123*
X0628Y07115*
X06266Y07103*
X06255Y0709*
X06247Y07075*
X06242Y07058*
X0624Y0704*
X06242Y07023*
X06247Y07006*
X06255Y06991*
X06266Y06977*
X0628Y06966*
X06295Y06958*
X06312Y06953*
X06329Y06951*
X06347Y06953*
X06364Y06958*
X06379Y06966*
X06392Y06977*
X06404Y06991*
X06412Y07006*
X06417Y07023*
X06419Y0704*
X06417Y07058*
X06412Y07075*
X06404Y0709*
X06392Y07103*
X06379Y07115*
X06364Y07123*
X06347Y07128*
X06329Y0713*
G37*
G36*
X07529D02*
X07512Y07128D01*
X07495Y07123*
X0748Y07115*
X07466Y07103*
X07455Y0709*
X07447Y07075*
X07442Y07058*
X0744Y0704*
X07442Y07023*
X07447Y07006*
X07455Y06991*
X07466Y06977*
X0748Y06966*
X07495Y06958*
X07512Y06953*
X07529Y06951*
X07547Y06953*
X07564Y06958*
X07579Y06966*
X07592Y06977*
X07604Y06991*
X07612Y07006*
X07617Y07023*
X07619Y0704*
X07617Y07058*
X07612Y07075*
X07604Y0709*
X07592Y07103*
X07579Y07115*
X07564Y07123*
X07547Y07128*
X07529Y0713*
G37*
G36*
X07129D02*
X07112Y07128D01*
X07095Y07123*
X0708Y07115*
X07066Y07103*
X07055Y0709*
X07047Y07075*
X07042Y07058*
X0704Y0704*
X07042Y07023*
X07047Y07006*
X07055Y06991*
X07066Y06977*
X0708Y06966*
X07095Y06958*
X07112Y06953*
X07129Y06951*
X07147Y06953*
X07164Y06958*
X07179Y06966*
X07192Y06977*
X07204Y06991*
X07212Y07006*
X07217Y07023*
X07219Y0704*
X07217Y07058*
X07212Y07075*
X07204Y0709*
X07192Y07103*
X07179Y07115*
X07164Y07123*
X07147Y07128*
X07129Y0713*
G37*
G36*
X05929D02*
X05912Y07128D01*
X05895Y07123*
X0588Y07115*
X05866Y07103*
X05855Y0709*
X05847Y07075*
X05842Y07058*
X0584Y0704*
X05842Y07023*
X05847Y07006*
X05855Y06991*
X05866Y06977*
X0588Y06966*
X05895Y06958*
X05912Y06953*
X05929Y06951*
X05947Y06953*
X05964Y06958*
X05979Y06966*
X05992Y06977*
X06004Y06991*
X06012Y07006*
X06017Y07023*
X06019Y0704*
X06017Y07058*
X06012Y07075*
X06004Y0709*
X05992Y07103*
X05979Y07115*
X05964Y07123*
X05947Y07128*
X05929Y0713*
G37*
G36*
X04729D02*
X04712Y07128D01*
X04695Y07123*
X0468Y07115*
X04666Y07103*
X04655Y0709*
X04647Y07075*
X04642Y07058*
X0464Y0704*
X04642Y07023*
X04647Y07006*
X04655Y06991*
X04666Y06977*
X0468Y06966*
X04695Y06958*
X04712Y06953*
X04729Y06951*
X04747Y06953*
X04764Y06958*
X04779Y06966*
X04792Y06977*
X04804Y06991*
X04812Y07006*
X04817Y07023*
X04819Y0704*
X04817Y07058*
X04812Y07075*
X04804Y0709*
X04792Y07103*
X04779Y07115*
X04764Y07123*
X04747Y07128*
X04729Y0713*
G37*
G36*
X04329D02*
X04312Y07128D01*
X04295Y07123*
X0428Y07115*
X04266Y07103*
X04255Y0709*
X04247Y07075*
X04242Y07058*
X0424Y0704*
X04242Y07023*
X04247Y07006*
X04255Y06991*
X04266Y06977*
X0428Y06966*
X04295Y06958*
X04312Y06953*
X04329Y06951*
X04347Y06953*
X04364Y06958*
X04379Y06966*
X04392Y06977*
X04404Y06991*
X04412Y07006*
X04417Y07023*
X04419Y0704*
X04417Y07058*
X04412Y07075*
X04404Y0709*
X04392Y07103*
X04379Y07115*
X04364Y07123*
X04347Y07128*
X04329Y0713*
G37*
G36*
X05529D02*
X05512Y07128D01*
X05495Y07123*
X0548Y07115*
X05466Y07103*
X05455Y0709*
X05447Y07075*
X05442Y07058*
X0544Y0704*
X05442Y07023*
X05447Y07006*
X05455Y06991*
X05466Y06977*
X0548Y06966*
X05495Y06958*
X05512Y06953*
X05529Y06951*
X05547Y06953*
X05564Y06958*
X05579Y06966*
X05592Y06977*
X05604Y06991*
X05612Y07006*
X05617Y07023*
X05619Y0704*
X05617Y07058*
X05612Y07075*
X05604Y0709*
X05592Y07103*
X05579Y07115*
X05564Y07123*
X05547Y07128*
X05529Y0713*
G37*
G36*
X05129D02*
X05112Y07128D01*
X05095Y07123*
X0508Y07115*
X05066Y07103*
X05055Y0709*
X05047Y07075*
X05042Y07058*
X0504Y0704*
X05042Y07023*
X05047Y07006*
X05055Y06991*
X05066Y06977*
X0508Y06966*
X05095Y06958*
X05112Y06953*
X05129Y06951*
X05147Y06953*
X05164Y06958*
X05179Y06966*
X05192Y06977*
X05204Y06991*
X05212Y07006*
X05217Y07023*
X05219Y0704*
X05217Y07058*
X05212Y07075*
X05204Y0709*
X05192Y07103*
X05179Y07115*
X05164Y07123*
X05147Y07128*
X05129Y0713*
G37*
G36*
X10329D02*
X10312Y07128D01*
X10295Y07123*
X1028Y07115*
X10266Y07103*
X10255Y0709*
X10247Y07075*
X10242Y07058*
X1024Y0704*
X10242Y07023*
X10247Y07006*
X10255Y06991*
X10266Y06977*
X1028Y06966*
X10295Y06958*
X10312Y06953*
X10329Y06951*
X10347Y06953*
X10364Y06958*
X10379Y06966*
X10392Y06977*
X10404Y06991*
X10412Y07006*
X10417Y07023*
X10419Y0704*
X10417Y07058*
X10412Y07075*
X10404Y0709*
X10392Y07103*
X10379Y07115*
X10364Y07123*
X10347Y07128*
X10329Y0713*
G37*
G36*
X09929D02*
X09912Y07128D01*
X09895Y07123*
X0988Y07115*
X09866Y07103*
X09855Y0709*
X09847Y07075*
X09842Y07058*
X0984Y0704*
X09842Y07023*
X09847Y07006*
X09855Y06991*
X09866Y06977*
X0988Y06966*
X09895Y06958*
X09912Y06953*
X09929Y06951*
X09947Y06953*
X09964Y06958*
X09979Y06966*
X09992Y06977*
X10004Y06991*
X10012Y07006*
X10017Y07023*
X10019Y0704*
X10017Y07058*
X10012Y07075*
X10004Y0709*
X09992Y07103*
X09979Y07115*
X09964Y07123*
X09947Y07128*
X09929Y0713*
G37*
G36*
X11129D02*
X11112Y07128D01*
X11095Y07123*
X1108Y07115*
X11066Y07103*
X11055Y0709*
X11047Y07075*
X11042Y07058*
X1104Y0704*
X11042Y07023*
X11047Y07006*
X11055Y06991*
X11066Y06977*
X1108Y06966*
X11095Y06958*
X11112Y06953*
X11129Y06951*
X11147Y06953*
X11164Y06958*
X11179Y06966*
X11192Y06977*
X11204Y06991*
X11212Y07006*
X11217Y07023*
X11219Y0704*
X11217Y07058*
X11212Y07075*
X11204Y0709*
X11192Y07103*
X11179Y07115*
X11164Y07123*
X11147Y07128*
X11129Y0713*
G37*
G36*
X10729D02*
X10712Y07128D01*
X10695Y07123*
X1068Y07115*
X10666Y07103*
X10655Y0709*
X10647Y07075*
X10642Y07058*
X1064Y0704*
X10642Y07023*
X10647Y07006*
X10655Y06991*
X10666Y06977*
X1068Y06966*
X10695Y06958*
X10712Y06953*
X10729Y06951*
X10747Y06953*
X10764Y06958*
X10779Y06966*
X10792Y06977*
X10804Y06991*
X10812Y07006*
X10817Y07023*
X10819Y0704*
X10817Y07058*
X10812Y07075*
X10804Y0709*
X10792Y07103*
X10779Y07115*
X10764Y07123*
X10747Y07128*
X10729Y0713*
G37*
G36*
X09529D02*
X09512Y07128D01*
X09495Y07123*
X0948Y07115*
X09466Y07103*
X09455Y0709*
X09447Y07075*
X09442Y07058*
X0944Y0704*
X09442Y07023*
X09447Y07006*
X09455Y06991*
X09466Y06977*
X0948Y06966*
X09495Y06958*
X09512Y06953*
X09529Y06951*
X09547Y06953*
X09564Y06958*
X09579Y06966*
X09592Y06977*
X09604Y06991*
X09612Y07006*
X09617Y07023*
X09619Y0704*
X09617Y07058*
X09612Y07075*
X09604Y0709*
X09592Y07103*
X09579Y07115*
X09564Y07123*
X09547Y07128*
X09529Y0713*
G37*
G36*
X08329D02*
X08312Y07128D01*
X08295Y07123*
X0828Y07115*
X08266Y07103*
X08255Y0709*
X08247Y07075*
X08242Y07058*
X0824Y0704*
X08242Y07023*
X08247Y07006*
X08255Y06991*
X08266Y06977*
X0828Y06966*
X08295Y06958*
X08312Y06953*
X08329Y06951*
X08347Y06953*
X08364Y06958*
X08379Y06966*
X08392Y06977*
X08404Y06991*
X08412Y07006*
X08417Y07023*
X08419Y0704*
X08417Y07058*
X08412Y07075*
X08404Y0709*
X08392Y07103*
X08379Y07115*
X08364Y07123*
X08347Y07128*
X08329Y0713*
G37*
G36*
X07929D02*
X07912Y07128D01*
X07895Y07123*
X0788Y07115*
X07866Y07103*
X07855Y0709*
X07847Y07075*
X07842Y07058*
X0784Y0704*
X07842Y07023*
X07847Y07006*
X07855Y06991*
X07866Y06977*
X0788Y06966*
X07895Y06958*
X07912Y06953*
X07929Y06951*
X07947Y06953*
X07964Y06958*
X07979Y06966*
X07992Y06977*
X08004Y06991*
X08012Y07006*
X08017Y07023*
X08019Y0704*
X08017Y07058*
X08012Y07075*
X08004Y0709*
X07992Y07103*
X07979Y07115*
X07964Y07123*
X07947Y07128*
X07929Y0713*
G37*
G36*
X09129D02*
X09112Y07128D01*
X09095Y07123*
X0908Y07115*
X09066Y07103*
X09055Y0709*
X09047Y07075*
X09042Y07058*
X0904Y0704*
X09042Y07023*
X09047Y07006*
X09055Y06991*
X09066Y06977*
X0908Y06966*
X09095Y06958*
X09112Y06953*
X09129Y06951*
X09147Y06953*
X09164Y06958*
X09179Y06966*
X09192Y06977*
X09204Y06991*
X09212Y07006*
X09217Y07023*
X09219Y0704*
X09217Y07058*
X09212Y07075*
X09204Y0709*
X09192Y07103*
X09179Y07115*
X09164Y07123*
X09147Y07128*
X09129Y0713*
G37*
G36*
X08729D02*
X08712Y07128D01*
X08695Y07123*
X0868Y07115*
X08666Y07103*
X08655Y0709*
X08647Y07075*
X08642Y07058*
X0864Y0704*
X08642Y07023*
X08647Y07006*
X08655Y06991*
X08666Y06977*
X0868Y06966*
X08695Y06958*
X08712Y06953*
X08729Y06951*
X08747Y06953*
X08764Y06958*
X08779Y06966*
X08792Y06977*
X08804Y06991*
X08812Y07006*
X08817Y07023*
X08819Y0704*
X08817Y07058*
X08812Y07075*
X08804Y0709*
X08792Y07103*
X08779Y07115*
X08764Y07123*
X08747Y07128*
X08729Y0713*
G37*
G36*
X0882Y05325D02*
X08809Y05324D01*
X08799Y0532*
X08791Y05313*
X08785Y05305*
X08781Y05295*
X08779Y05285*
X08781Y05274*
X08785Y05264*
X08791Y05256*
X08799Y0525*
X08809Y05246*
X0882Y05244*
X0883Y05246*
X0884Y0525*
X08848Y05256*
X08855Y05264*
X08859Y05274*
X0886Y05285*
X08859Y05295*
X08855Y05305*
X08848Y05313*
X0884Y0532*
X0883Y05324*
X0882Y05325*
G37*
G36*
X0862D02*
X08609Y05324D01*
X08599Y0532*
X08591Y05313*
X08585Y05305*
X08581Y05295*
X08579Y05285*
X08581Y05274*
X08585Y05264*
X08591Y05256*
X08599Y0525*
X08609Y05246*
X0862Y05244*
X0863Y05246*
X0864Y0525*
X08648Y05256*
X08655Y05264*
X08659Y05274*
X0866Y05285*
X08659Y05295*
X08655Y05305*
X08648Y05313*
X0864Y0532*
X0863Y05324*
X0862Y05325*
G37*
G36*
X1042D02*
X10409Y05324D01*
X10399Y0532*
X10391Y05313*
X10385Y05305*
X10381Y05295*
X10379Y05285*
X10381Y05274*
X10385Y05264*
X10391Y05256*
X10399Y0525*
X10409Y05246*
X1042Y05244*
X1043Y05246*
X1044Y0525*
X10448Y05256*
X10455Y05264*
X10459Y05274*
X1046Y05285*
X10459Y05295*
X10455Y05305*
X10448Y05313*
X1044Y0532*
X1043Y05324*
X1042Y05325*
G37*
G36*
X1022D02*
X10209Y05324D01*
X10199Y0532*
X10191Y05313*
X10185Y05305*
X10181Y05295*
X10179Y05285*
X10181Y05274*
X10185Y05264*
X10191Y05256*
X10199Y0525*
X10209Y05246*
X1022Y05244*
X1023Y05246*
X1024Y0525*
X10248Y05256*
X10255Y05264*
X10259Y05274*
X1026Y05285*
X10259Y05295*
X10255Y05305*
X10248Y05313*
X1024Y0532*
X1023Y05324*
X1022Y05325*
G37*
G36*
X1362Y05125D02*
X13609Y05124D01*
X13599Y0512*
X13591Y05113*
X13585Y05105*
X13581Y05095*
X13579Y05085*
X13581Y05074*
X13585Y05064*
X13591Y05056*
X13599Y0505*
X13609Y05046*
X1362Y05044*
X1363Y05046*
X1364Y0505*
X13648Y05056*
X13655Y05064*
X13659Y05074*
X1366Y05085*
X13659Y05095*
X13655Y05105*
X13648Y05113*
X1364Y0512*
X1363Y05124*
X1362Y05125*
G37*
G36*
X1502D02*
X15009Y05124D01*
X14999Y0512*
X14991Y05113*
X14985Y05105*
X14981Y05095*
X14979Y05085*
X14981Y05074*
X14985Y05064*
X14991Y05056*
X14999Y0505*
X15009Y05046*
X1502Y05044*
X1503Y05046*
X1504Y0505*
X15048Y05056*
X15055Y05064*
X15059Y05074*
X1506Y05085*
X15059Y05095*
X15055Y05105*
X15048Y05113*
X1504Y0512*
X1503Y05124*
X1502Y05125*
G37*
G36*
X1202D02*
X12009Y05124D01*
X11999Y0512*
X11991Y05113*
X11985Y05105*
X11981Y05095*
X11979Y05085*
X11981Y05074*
X11985Y05064*
X11991Y05056*
X11999Y0505*
X12009Y05046*
X1202Y05044*
X1203Y05046*
X1204Y0505*
X12048Y05056*
X12055Y05064*
X12059Y05074*
X1206Y05085*
X12059Y05095*
X12055Y05105*
X12048Y05113*
X1204Y0512*
X1203Y05124*
X1202Y05125*
G37*
G36*
X1342D02*
X13409Y05124D01*
X13399Y0512*
X13391Y05113*
X13385Y05105*
X13381Y05095*
X13379Y05085*
X13381Y05074*
X13385Y05064*
X13391Y05056*
X13399Y0505*
X13409Y05046*
X1342Y05044*
X1343Y05046*
X1344Y0505*
X13448Y05056*
X13455Y05064*
X13459Y05074*
X1346Y05085*
X13459Y05095*
X13455Y05105*
X13448Y05113*
X1344Y0512*
X1343Y05124*
X1342Y05125*
G37*
G36*
X1022D02*
X10209Y05124D01*
X10199Y0512*
X10191Y05113*
X10185Y05105*
X10181Y05095*
X10179Y05085*
X10181Y05074*
X10185Y05064*
X10191Y05056*
X10199Y0505*
X10209Y05046*
X1022Y05044*
X1023Y05046*
X1024Y0505*
X10248Y05056*
X10255Y05064*
X10259Y05074*
X1026Y05085*
X10259Y05095*
X10255Y05105*
X10248Y05113*
X1024Y0512*
X1023Y05124*
X1022Y05125*
G37*
G36*
X1042D02*
X10409Y05124D01*
X10399Y0512*
X10391Y05113*
X10385Y05105*
X10381Y05095*
X10379Y05085*
X10381Y05074*
X10385Y05064*
X10391Y05056*
X10399Y0505*
X10409Y05046*
X1042Y05044*
X1043Y05046*
X1044Y0505*
X10448Y05056*
X10455Y05064*
X10459Y05074*
X1046Y05085*
X10459Y05095*
X10455Y05105*
X10448Y05113*
X1044Y0512*
X1043Y05124*
X1042Y05125*
G37*
G36*
X0862D02*
X08609Y05124D01*
X08599Y0512*
X08591Y05113*
X08585Y05105*
X08581Y05095*
X08579Y05085*
X08581Y05074*
X08585Y05064*
X08591Y05056*
X08599Y0505*
X08609Y05046*
X0862Y05044*
X0863Y05046*
X0864Y0505*
X08648Y05056*
X08655Y05064*
X08659Y05074*
X0866Y05085*
X08659Y05095*
X08655Y05105*
X08648Y05113*
X0864Y0512*
X0863Y05124*
X0862Y05125*
G37*
G36*
X0882D02*
X08809Y05124D01*
X08799Y0512*
X08791Y05113*
X08785Y05105*
X08781Y05095*
X08779Y05085*
X08781Y05074*
X08785Y05064*
X08791Y05056*
X08799Y0505*
X08809Y05046*
X0882Y05044*
X0883Y05046*
X0884Y0505*
X08848Y05056*
X08855Y05064*
X08859Y05074*
X0886Y05085*
X08859Y05095*
X08855Y05105*
X08848Y05113*
X0884Y0512*
X0883Y05124*
X0882Y05125*
G37*
G36*
X1202Y05325D02*
X12009Y05324D01*
X11999Y0532*
X11991Y05313*
X11985Y05305*
X11981Y05295*
X11979Y05285*
X11981Y05274*
X11985Y05264*
X11991Y05256*
X11999Y0525*
X12009Y05246*
X1202Y05244*
X1203Y05246*
X1204Y0525*
X12048Y05256*
X12055Y05264*
X12059Y05274*
X1206Y05285*
X12059Y05295*
X12055Y05305*
X12048Y05313*
X1204Y0532*
X1203Y05324*
X1202Y05325*
G37*
G36*
X1182D02*
X11809Y05324D01*
X11799Y0532*
X11791Y05313*
X11785Y05305*
X11781Y05295*
X11779Y05285*
X11781Y05274*
X11785Y05264*
X11791Y05256*
X11799Y0525*
X11809Y05246*
X1182Y05244*
X1183Y05246*
X1184Y0525*
X11848Y05256*
X11855Y05264*
X11859Y05274*
X1186Y05285*
X11859Y05295*
X11855Y05305*
X11848Y05313*
X1184Y0532*
X1183Y05324*
X1182Y05325*
G37*
G36*
Y05125D02*
X11809Y05124D01*
X11799Y0512*
X11791Y05113*
X11785Y05105*
X11781Y05095*
X11779Y05085*
X11781Y05074*
X11785Y05064*
X11791Y05056*
X11799Y0505*
X11809Y05046*
X1182Y05044*
X1183Y05046*
X1184Y0505*
X11848Y05056*
X11855Y05064*
X11859Y05074*
X1186Y05085*
X11859Y05095*
X11855Y05105*
X11848Y05113*
X1184Y0512*
X1183Y05124*
X1182Y05125*
G37*
G36*
X1342Y05325D02*
X13409Y05324D01*
X13399Y0532*
X13391Y05313*
X13385Y05305*
X13381Y05295*
X13379Y05285*
X13381Y05274*
X13385Y05264*
X13391Y05256*
X13399Y0525*
X13409Y05246*
X1342Y05244*
X1343Y05246*
X1344Y0525*
X13448Y05256*
X13455Y05264*
X13459Y05274*
X1346Y05285*
X13459Y05295*
X13455Y05305*
X13448Y05313*
X1344Y0532*
X1343Y05324*
X1342Y05325*
G37*
G36*
X1202Y05225D02*
X12009Y05224D01*
X11999Y0522*
X11991Y05213*
X11985Y05205*
X11981Y05195*
X11979Y05185*
X11981Y05174*
X11985Y05164*
X11991Y05156*
X11999Y0515*
X12009Y05146*
X1202Y05144*
X1203Y05146*
X1204Y0515*
X12048Y05156*
X12055Y05164*
X12059Y05174*
X1206Y05185*
X12059Y05195*
X12055Y05205*
X12048Y05213*
X1204Y0522*
X1203Y05224*
X1202Y05225*
G37*
G36*
X1362D02*
X13609Y05224D01*
X13599Y0522*
X13591Y05213*
X13585Y05205*
X13581Y05195*
X13579Y05185*
X13581Y05174*
X13585Y05164*
X13591Y05156*
X13599Y0515*
X13609Y05146*
X1362Y05144*
X1363Y05146*
X1364Y0515*
X13648Y05156*
X13655Y05164*
X13659Y05174*
X1366Y05185*
X13659Y05195*
X13655Y05205*
X13648Y05213*
X1364Y0522*
X1363Y05224*
X1362Y05225*
G37*
G36*
X0882D02*
X08809Y05224D01*
X08799Y0522*
X08791Y05213*
X08785Y05205*
X08781Y05195*
X08779Y05185*
X08781Y05174*
X08785Y05164*
X08791Y05156*
X08799Y0515*
X08809Y05146*
X0882Y05144*
X0883Y05146*
X0884Y0515*
X08848Y05156*
X08855Y05164*
X08859Y05174*
X0886Y05185*
X08859Y05195*
X08855Y05205*
X08848Y05213*
X0884Y0522*
X0883Y05224*
X0882Y05225*
G37*
G36*
X1042D02*
X10409Y05224D01*
X10399Y0522*
X10391Y05213*
X10385Y05205*
X10381Y05195*
X10379Y05185*
X10381Y05174*
X10385Y05164*
X10391Y05156*
X10399Y0515*
X10409Y05146*
X1042Y05144*
X1043Y05146*
X1044Y0515*
X10448Y05156*
X10455Y05164*
X10459Y05174*
X1046Y05185*
X10459Y05195*
X10455Y05205*
X10448Y05213*
X1044Y0522*
X1043Y05224*
X1042Y05225*
G37*
G36*
X1662D02*
X16609Y05224D01*
X16599Y0522*
X16591Y05213*
X16585Y05205*
X16581Y05195*
X16579Y05185*
X16581Y05174*
X16585Y05164*
X16591Y05156*
X16599Y0515*
X16609Y05146*
X1662Y05144*
X1663Y05146*
X1664Y0515*
X16648Y05156*
X16655Y05164*
X16659Y05174*
X1666Y05185*
X16659Y05195*
X16655Y05205*
X16648Y05213*
X1664Y0522*
X1663Y05224*
X1662Y05225*
G37*
G36*
X1682D02*
X16809Y05224D01*
X16799Y0522*
X16791Y05213*
X16785Y05205*
X16781Y05195*
X16779Y05185*
X16781Y05174*
X16785Y05164*
X16791Y05156*
X16799Y0515*
X16809Y05146*
X1682Y05144*
X1683Y05146*
X1684Y0515*
X16848Y05156*
X16855Y05164*
X16859Y05174*
X1686Y05185*
X16859Y05195*
X16855Y05205*
X16848Y05213*
X1684Y0522*
X1683Y05224*
X1682Y05225*
G37*
G36*
X1502D02*
X15009Y05224D01*
X14999Y0522*
X14991Y05213*
X14985Y05205*
X14981Y05195*
X14979Y05185*
X14981Y05174*
X14985Y05164*
X14991Y05156*
X14999Y0515*
X15009Y05146*
X1502Y05144*
X1503Y05146*
X1504Y0515*
X15048Y05156*
X15055Y05164*
X15059Y05174*
X1506Y05185*
X15059Y05195*
X15055Y05205*
X15048Y05213*
X1504Y0522*
X1503Y05224*
X1502Y05225*
G37*
G36*
X1522D02*
X15209Y05224D01*
X15199Y0522*
X15191Y05213*
X15185Y05205*
X15181Y05195*
X15179Y05185*
X15181Y05174*
X15185Y05164*
X15191Y05156*
X15199Y0515*
X15209Y05146*
X1522Y05144*
X1523Y05146*
X1524Y0515*
X15248Y05156*
X15255Y05164*
X15259Y05174*
X1526Y05185*
X15259Y05195*
X15255Y05205*
X15248Y05213*
X1524Y0522*
X1523Y05224*
X1522Y05225*
G37*
G36*
X1682Y05125D02*
X16809Y05124D01*
X16799Y0512*
X16791Y05113*
X16785Y05105*
X16781Y05095*
X16779Y05085*
X16781Y05074*
X16785Y05064*
X16791Y05056*
X16799Y0505*
X16809Y05046*
X1682Y05044*
X1683Y05046*
X1684Y0505*
X16848Y05056*
X16855Y05064*
X16859Y05074*
X1686Y05085*
X16859Y05095*
X16855Y05105*
X16848Y05113*
X1684Y0512*
X1683Y05124*
X1682Y05125*
G37*
G36*
X03429Y05225D02*
X03419Y05224D01*
X03409Y0522*
X03401Y05213*
X03394Y05205*
X0339Y05195*
X03389Y05185*
X0339Y05174*
X03394Y05164*
X03401Y05156*
X03409Y0515*
X03419Y05146*
X03429Y05144*
X0344Y05146*
X0345Y0515*
X03458Y05156*
X03464Y05164*
X03468Y05174*
X0347Y05185*
X03468Y05195*
X03464Y05205*
X03458Y05213*
X0345Y0522*
X0344Y05224*
X03429Y05225*
G37*
G36*
X1522Y05125D02*
X15209Y05124D01*
X15199Y0512*
X15191Y05113*
X15185Y05105*
X15181Y05095*
X15179Y05085*
X15181Y05074*
X15185Y05064*
X15191Y05056*
X15199Y0505*
X15209Y05046*
X1522Y05044*
X1523Y05046*
X1524Y0505*
X15248Y05056*
X15255Y05064*
X15259Y05074*
X1526Y05085*
X15259Y05095*
X15255Y05105*
X15248Y05113*
X1524Y0512*
X1523Y05124*
X1522Y05125*
G37*
G36*
X1662D02*
X16609Y05124D01*
X16599Y0512*
X16591Y05113*
X16585Y05105*
X16581Y05095*
X16579Y05085*
X16581Y05074*
X16585Y05064*
X16591Y05056*
X16599Y0505*
X16609Y05046*
X1662Y05044*
X1663Y05046*
X1664Y0505*
X16648Y05056*
X16655Y05064*
X16659Y05074*
X1666Y05085*
X16659Y05095*
X16655Y05105*
X16648Y05113*
X1664Y0512*
X1663Y05124*
X1662Y05125*
G37*
G36*
X0562Y05225D02*
X05609Y05224D01*
X05599Y0522*
X05591Y05213*
X05585Y05205*
X05581Y05195*
X05579Y05185*
X05581Y05174*
X05585Y05164*
X05591Y05156*
X05599Y0515*
X05609Y05146*
X0562Y05144*
X0563Y05146*
X0564Y0515*
X05648Y05156*
X05655Y05164*
X05659Y05174*
X0566Y05185*
X05659Y05195*
X05655Y05205*
X05648Y05213*
X0564Y0522*
X0563Y05224*
X0562Y05225*
G37*
G36*
X0722D02*
X07209Y05224D01*
X07199Y0522*
X07191Y05213*
X07185Y05205*
X07181Y05195*
X07179Y05185*
X07181Y05174*
X07185Y05164*
X07191Y05156*
X07199Y0515*
X07209Y05146*
X0722Y05144*
X0723Y05146*
X0724Y0515*
X07248Y05156*
X07255Y05164*
X07259Y05174*
X0726Y05185*
X07259Y05195*
X07255Y05205*
X07248Y05213*
X0724Y0522*
X0723Y05224*
X0722Y05225*
G37*
G36*
Y05325D02*
X07209Y05324D01*
X07199Y0532*
X07191Y05313*
X07185Y05305*
X07181Y05295*
X07179Y05285*
X07181Y05274*
X07185Y05264*
X07191Y05256*
X07199Y0525*
X07209Y05246*
X0722Y05244*
X0723Y05246*
X0724Y0525*
X07248Y05256*
X07255Y05264*
X07259Y05274*
X0726Y05285*
X07259Y05295*
X07255Y05305*
X07248Y05313*
X0724Y0532*
X0723Y05324*
X0722Y05325*
G37*
G36*
X0562D02*
X05609Y05324D01*
X05599Y0532*
X05591Y05313*
X05585Y05305*
X05581Y05295*
X05579Y05285*
X05581Y05274*
X05585Y05264*
X05591Y05256*
X05599Y0525*
X05609Y05246*
X0562Y05244*
X0563Y05246*
X0564Y0525*
X05648Y05256*
X05655Y05264*
X05659Y05274*
X0566Y05285*
X05659Y05295*
X05655Y05305*
X05648Y05313*
X0564Y0532*
X0563Y05324*
X0562Y05325*
G37*
G36*
X1022Y04825D02*
X10209Y04824D01*
X10199Y0482*
X10191Y04813*
X10185Y04805*
X10181Y04795*
X10179Y04785*
X10181Y04774*
X10185Y04764*
X10191Y04756*
X10199Y0475*
X10209Y04746*
X1022Y04744*
X1023Y04746*
X1024Y0475*
X10248Y04756*
X10255Y04764*
X10259Y04774*
X1026Y04785*
X10259Y04795*
X10255Y04805*
X10248Y04813*
X1024Y0482*
X1023Y04824*
X1022Y04825*
G37*
G36*
X1182D02*
X11809Y04824D01*
X11799Y0482*
X11791Y04813*
X11785Y04805*
X11781Y04795*
X11779Y04785*
X11781Y04774*
X11785Y04764*
X11791Y04756*
X11799Y0475*
X11809Y04746*
X1182Y04744*
X1183Y04746*
X1184Y0475*
X11848Y04756*
X11855Y04764*
X11859Y04774*
X1186Y04785*
X11859Y04795*
X11855Y04805*
X11848Y04813*
X1184Y0482*
X1183Y04824*
X1182Y04825*
G37*
G36*
X0702D02*
X07009Y04824D01*
X06999Y0482*
X06991Y04813*
X06985Y04805*
X06981Y04795*
X06979Y04785*
X06981Y04774*
X06985Y04764*
X06991Y04756*
X06999Y0475*
X07009Y04746*
X0702Y04744*
X0703Y04746*
X0704Y0475*
X07048Y04756*
X07055Y04764*
X07059Y04774*
X0706Y04785*
X07059Y04795*
X07055Y04805*
X07048Y04813*
X0704Y0482*
X0703Y04824*
X0702Y04825*
G37*
G36*
X0862D02*
X08609Y04824D01*
X08599Y0482*
X08591Y04813*
X08585Y04805*
X08581Y04795*
X08579Y04785*
X08581Y04774*
X08585Y04764*
X08591Y04756*
X08599Y0475*
X08609Y04746*
X0862Y04744*
X0863Y04746*
X0864Y0475*
X08648Y04756*
X08655Y04764*
X08659Y04774*
X0866Y04785*
X08659Y04795*
X08655Y04805*
X08648Y04813*
X0864Y0482*
X0863Y04824*
X0862Y04825*
G37*
G36*
X1662D02*
X16609Y04824D01*
X16599Y0482*
X16591Y04813*
X16585Y04805*
X16581Y04795*
X16579Y04785*
X16581Y04774*
X16585Y04764*
X16591Y04756*
X16599Y0475*
X16609Y04746*
X1662Y04744*
X1663Y04746*
X1664Y0475*
X16648Y04756*
X16655Y04764*
X16659Y04774*
X1666Y04785*
X16659Y04795*
X16655Y04805*
X16648Y04813*
X1664Y0482*
X1663Y04824*
X1662Y04825*
G37*
G36*
X03229Y04925D02*
X03219Y04924D01*
X03209Y0492*
X03201Y04913*
X03194Y04905*
X0319Y04895*
X03189Y04885*
X0319Y04874*
X03194Y04864*
X03201Y04856*
X03209Y0485*
X03219Y04846*
X03229Y04844*
X0324Y04846*
X0325Y0485*
X03258Y04856*
X03264Y04864*
X03268Y04874*
X0327Y04885*
X03268Y04895*
X03264Y04905*
X03258Y04913*
X0325Y0492*
X0324Y04924*
X03229Y04925*
G37*
G36*
X1342Y04825D02*
X13409Y04824D01*
X13399Y0482*
X13391Y04813*
X13385Y04805*
X13381Y04795*
X13379Y04785*
X13381Y04774*
X13385Y04764*
X13391Y04756*
X13399Y0475*
X13409Y04746*
X1342Y04744*
X1343Y04746*
X1344Y0475*
X13448Y04756*
X13455Y04764*
X13459Y04774*
X1346Y04785*
X13459Y04795*
X13455Y04805*
X13448Y04813*
X1344Y0482*
X1343Y04824*
X1342Y04825*
G37*
G36*
X1502D02*
X15009Y04824D01*
X14999Y0482*
X14991Y04813*
X14985Y04805*
X14981Y04795*
X14979Y04785*
X14981Y04774*
X14985Y04764*
X14991Y04756*
X14999Y0475*
X15009Y04746*
X1502Y04744*
X1503Y04746*
X1504Y0475*
X15048Y04756*
X15055Y04764*
X15059Y04774*
X1506Y04785*
X15059Y04795*
X15055Y04805*
X15048Y04813*
X1504Y0482*
X1503Y04824*
X1502Y04825*
G37*
G36*
X1682Y05325D02*
X16809Y05324D01*
X16799Y0532*
X16791Y05313*
X16785Y05305*
X16781Y05295*
X16779Y05285*
X16781Y05274*
X16785Y05264*
X16791Y05256*
X16799Y0525*
X16809Y05246*
X1682Y05244*
X1683Y05246*
X1684Y0525*
X16848Y05256*
X16855Y05264*
X16859Y05274*
X1686Y05285*
X16859Y05295*
X16855Y05305*
X16848Y05313*
X1684Y0532*
X1683Y05324*
X1682Y05325*
G37*
G36*
X1522D02*
X15209Y05324D01*
X15199Y0532*
X15191Y05313*
X15185Y05305*
X15181Y05295*
X15179Y05285*
X15181Y05274*
X15185Y05264*
X15191Y05256*
X15199Y0525*
X15209Y05246*
X1522Y05244*
X1523Y05246*
X1524Y0525*
X15248Y05256*
X15255Y05264*
X15259Y05274*
X1526Y05285*
X15259Y05295*
X15255Y05305*
X15248Y05313*
X1524Y0532*
X1523Y05324*
X1522Y05325*
G37*
G36*
X0542Y05425D02*
X05409Y05424D01*
X05399Y0542*
X05391Y05413*
X05385Y05405*
X05381Y05395*
X05379Y05385*
X05381Y05374*
X05385Y05364*
X05391Y05356*
X05399Y0535*
X05409Y05346*
X0542Y05344*
X0543Y05346*
X0544Y0535*
X05448Y05356*
X05455Y05364*
X05459Y05374*
X0546Y05385*
X05459Y05395*
X05455Y05405*
X05448Y05413*
X0544Y0542*
X0543Y05424*
X0542Y05425*
G37*
G36*
X03429D02*
X03419Y05424D01*
X03409Y0542*
X03401Y05413*
X03394Y05405*
X0339Y05395*
X03389Y05385*
X0339Y05374*
X03394Y05364*
X03401Y05356*
X03409Y0535*
X03419Y05346*
X03429Y05344*
X0344Y05346*
X0345Y0535*
X03458Y05356*
X03464Y05364*
X03468Y05374*
X0347Y05385*
X03468Y05395*
X03464Y05405*
X03458Y05413*
X0345Y0542*
X0344Y05424*
X03429Y05425*
G37*
G36*
Y04825D02*
X03419Y04824D01*
X03409Y0482*
X03401Y04813*
X03394Y04805*
X0339Y04795*
X03389Y04785*
X0339Y04774*
X03394Y04764*
X03401Y04756*
X03409Y0475*
X03419Y04746*
X03429Y04744*
X0344Y04746*
X0345Y0475*
X03458Y04756*
X03464Y04764*
X03468Y04774*
X0347Y04785*
X03468Y04795*
X03464Y04805*
X03458Y04813*
X0345Y0482*
X0344Y04824*
X03429Y04825*
G37*
G36*
X0542D02*
X05409Y04824D01*
X05399Y0482*
X05391Y04813*
X05385Y04805*
X05381Y04795*
X05379Y04785*
X05381Y04774*
X05385Y04764*
X05391Y04756*
X05399Y0475*
X05409Y04746*
X0542Y04744*
X0543Y04746*
X0544Y0475*
X05448Y04756*
X05455Y04764*
X05459Y04774*
X0546Y04785*
X05459Y04795*
X05455Y04805*
X05448Y04813*
X0544Y0482*
X0543Y04824*
X0542Y04825*
G37*
G36*
X1362Y05325D02*
X13609Y05324D01*
X13599Y0532*
X13591Y05313*
X13585Y05305*
X13581Y05295*
X13579Y05285*
X13581Y05274*
X13585Y05264*
X13591Y05256*
X13599Y0525*
X13609Y05246*
X1362Y05244*
X1363Y05246*
X1364Y0525*
X13648Y05256*
X13655Y05264*
X13659Y05274*
X1366Y05285*
X13659Y05295*
X13655Y05305*
X13648Y05313*
X1364Y0532*
X1363Y05324*
X1362Y05325*
G37*
G36*
X1662Y04725D02*
X16609Y04724D01*
X16599Y0472*
X16591Y04713*
X16585Y04705*
X16581Y04695*
X16579Y04685*
X16581Y04674*
X16585Y04664*
X16591Y04656*
X16599Y0465*
X16609Y04646*
X1662Y04644*
X1663Y04646*
X1664Y0465*
X16648Y04656*
X16655Y04664*
X16659Y04674*
X1666Y04685*
X16659Y04695*
X16655Y04705*
X16648Y04713*
X1664Y0472*
X1663Y04724*
X1662Y04725*
G37*
G36*
X02889Y05212D02*
X02872Y0521D01*
X02855Y05205*
X0284Y05197*
X02826Y05186*
X02815Y05172*
X02807Y05157*
X02802Y0514*
X028Y05122*
X02802Y05105*
X02807Y05088*
X02815Y05073*
X02826Y05059*
X0284Y05048*
X02855Y0504*
X02872Y05035*
X02889Y05033*
X02907Y05035*
X02924Y0504*
X02939Y05048*
X02953Y05059*
X02964Y05073*
X02972Y05088*
X02977Y05105*
X02979Y05122*
X02977Y0514*
X02972Y05157*
X02964Y05172*
X02953Y05186*
X02939Y05197*
X02924Y05205*
X02907Y0521*
X02889Y05212*
G37*
G36*
X03429Y05125D02*
X03419Y05124D01*
X03409Y0512*
X03401Y05113*
X03394Y05105*
X0339Y05095*
X03389Y05085*
X0339Y05074*
X03394Y05064*
X03401Y05056*
X03409Y0505*
X03419Y05046*
X03429Y05044*
X0344Y05046*
X0345Y0505*
X03458Y05056*
X03464Y05064*
X03468Y05074*
X0347Y05085*
X03468Y05095*
X03464Y05105*
X03458Y05113*
X0345Y0512*
X0344Y05124*
X03429Y05125*
G37*
G36*
X1502Y05025D02*
X15009Y05024D01*
X14999Y0502*
X14991Y05013*
X14985Y05005*
X14981Y04995*
X14979Y04985*
X14981Y04974*
X14985Y04964*
X14991Y04956*
X14999Y0495*
X15009Y04946*
X1502Y04944*
X1503Y04946*
X1504Y0495*
X15048Y04956*
X15055Y04964*
X15059Y04974*
X1506Y04985*
X15059Y04995*
X15055Y05005*
X15048Y05013*
X1504Y0502*
X1503Y05024*
X1502Y05025*
G37*
G36*
X1662D02*
X16609Y05024D01*
X16599Y0502*
X16591Y05013*
X16585Y05005*
X16581Y04995*
X16579Y04985*
X16581Y04974*
X16585Y04964*
X16591Y04956*
X16599Y0495*
X16609Y04946*
X1662Y04944*
X1663Y04946*
X1664Y0495*
X16648Y04956*
X16655Y04964*
X16659Y04974*
X1666Y04985*
X16659Y04995*
X16655Y05005*
X16648Y05013*
X1664Y0502*
X1663Y05024*
X1662Y05025*
G37*
G36*
X0702Y05125D02*
X07009Y05124D01*
X06999Y0512*
X06991Y05113*
X06985Y05105*
X06981Y05095*
X06979Y05085*
X06981Y05074*
X06985Y05064*
X06991Y05056*
X06999Y0505*
X07009Y05046*
X0702Y05044*
X0703Y05046*
X0704Y0505*
X07048Y05056*
X07055Y05064*
X07059Y05074*
X0706Y05085*
X07059Y05095*
X07055Y05105*
X07048Y05113*
X0704Y0512*
X0703Y05124*
X0702Y05125*
G37*
G36*
X0722D02*
X07209Y05124D01*
X07199Y0512*
X07191Y05113*
X07185Y05105*
X07181Y05095*
X07179Y05085*
X07181Y05074*
X07185Y05064*
X07191Y05056*
X07199Y0505*
X07209Y05046*
X0722Y05044*
X0723Y05046*
X0724Y0505*
X07248Y05056*
X07255Y05064*
X07259Y05074*
X0726Y05085*
X07259Y05095*
X07255Y05105*
X07248Y05113*
X0724Y0512*
X0723Y05124*
X0722Y05125*
G37*
G36*
X0542D02*
X05409Y05124D01*
X05399Y0512*
X05391Y05113*
X05385Y05105*
X05381Y05095*
X05379Y05085*
X05381Y05074*
X05385Y05064*
X05391Y05056*
X05399Y0505*
X05409Y05046*
X0542Y05044*
X0543Y05046*
X0544Y0505*
X05448Y05056*
X05455Y05064*
X05459Y05074*
X0546Y05085*
X05459Y05095*
X05455Y05105*
X05448Y05113*
X0544Y0512*
X0543Y05124*
X0542Y05125*
G37*
G36*
X0562D02*
X05609Y05124D01*
X05599Y0512*
X05591Y05113*
X05585Y05105*
X05581Y05095*
X05579Y05085*
X05581Y05074*
X05585Y05064*
X05591Y05056*
X05599Y0505*
X05609Y05046*
X0562Y05044*
X0563Y05046*
X0564Y0505*
X05648Y05056*
X05655Y05064*
X05659Y05074*
X0566Y05085*
X05659Y05095*
X05655Y05105*
X05648Y05113*
X0564Y0512*
X0563Y05124*
X0562Y05125*
G37*
G36*
X0702Y05025D02*
X07009Y05024D01*
X06999Y0502*
X06991Y05013*
X06985Y05005*
X06981Y04995*
X06979Y04985*
X06981Y04974*
X06985Y04964*
X06991Y04956*
X06999Y0495*
X07009Y04946*
X0702Y04944*
X0703Y04946*
X0704Y0495*
X07048Y04956*
X07055Y04964*
X07059Y04974*
X0706Y04985*
X07059Y04995*
X07055Y05005*
X07048Y05013*
X0704Y0502*
X0703Y05024*
X0702Y05025*
G37*
G36*
X0862D02*
X08609Y05024D01*
X08599Y0502*
X08591Y05013*
X08585Y05005*
X08581Y04995*
X08579Y04985*
X08581Y04974*
X08585Y04964*
X08591Y04956*
X08599Y0495*
X08609Y04946*
X0862Y04944*
X0863Y04946*
X0864Y0495*
X08648Y04956*
X08655Y04964*
X08659Y04974*
X0866Y04985*
X08659Y04995*
X08655Y05005*
X08648Y05013*
X0864Y0502*
X0863Y05024*
X0862Y05025*
G37*
G36*
X0542D02*
X05409Y05024D01*
X05399Y0502*
X05391Y05013*
X05385Y05005*
X05381Y04995*
X05379Y04985*
X05381Y04974*
X05385Y04964*
X05391Y04956*
X05399Y0495*
X05409Y04946*
X0542Y04944*
X0543Y04946*
X0544Y0495*
X05448Y04956*
X05455Y04964*
X05459Y04974*
X0546Y04985*
X05459Y04995*
X05455Y05005*
X05448Y05013*
X0544Y0502*
X0543Y05024*
X0542Y05025*
G37*
G36*
X03429Y04925D02*
X03419Y04924D01*
X03409Y0492*
X03401Y04913*
X03394Y04905*
X0339Y04895*
X03389Y04885*
X0339Y04874*
X03394Y04864*
X03401Y04856*
X03409Y0485*
X03419Y04846*
X03429Y04844*
X0344Y04846*
X0345Y0485*
X03458Y04856*
X03464Y04864*
X03468Y04874*
X0347Y04885*
X03468Y04895*
X03464Y04905*
X03458Y04913*
X0345Y0492*
X0344Y04924*
X03429Y04925*
G37*
G36*
X03229Y05025D02*
X03219Y05024D01*
X03209Y0502*
X03201Y05013*
X03194Y05005*
X0319Y04995*
X03189Y04985*
X0319Y04974*
X03194Y04964*
X03201Y04956*
X03209Y0495*
X03219Y04946*
X03229Y04944*
X0324Y04946*
X0325Y0495*
X03258Y04956*
X03264Y04964*
X03268Y04974*
X0327Y04985*
X03268Y04995*
X03264Y05005*
X03258Y05013*
X0325Y0502*
X0324Y05024*
X03229Y05025*
G37*
G36*
X1342D02*
X13409Y05024D01*
X13399Y0502*
X13391Y05013*
X13385Y05005*
X13381Y04995*
X13379Y04985*
X13381Y04974*
X13385Y04964*
X13391Y04956*
X13399Y0495*
X13409Y04946*
X1342Y04944*
X1343Y04946*
X1344Y0495*
X13448Y04956*
X13455Y04964*
X13459Y04974*
X1346Y04985*
X13459Y04995*
X13455Y05005*
X13448Y05013*
X1344Y0502*
X1343Y05024*
X1342Y05025*
G37*
G36*
X1182D02*
X11809Y05024D01*
X11799Y0502*
X11791Y05013*
X11785Y05005*
X11781Y04995*
X11779Y04985*
X11781Y04974*
X11785Y04964*
X11791Y04956*
X11799Y0495*
X11809Y04946*
X1182Y04944*
X1183Y04946*
X1184Y0495*
X11848Y04956*
X11855Y04964*
X11859Y04974*
X1186Y04985*
X11859Y04995*
X11855Y05005*
X11848Y05013*
X1184Y0502*
X1183Y05024*
X1182Y05025*
G37*
G36*
X1022D02*
X10209Y05024D01*
X10199Y0502*
X10191Y05013*
X10185Y05005*
X10181Y04995*
X10179Y04985*
X10181Y04974*
X10185Y04964*
X10191Y04956*
X10199Y0495*
X10209Y04946*
X1022Y04944*
X1023Y04946*
X1024Y0495*
X10248Y04956*
X10255Y04964*
X10259Y04974*
X1026Y04985*
X10259Y04995*
X10255Y05005*
X10248Y05013*
X1024Y0502*
X1023Y05024*
X1022Y05025*
G37*
%LNbackplane-3*%
%LPD*%
G36*
X15467Y02895D02*
Y02765D01*
Y02764*
Y02735*
X15587*
Y02764*
X15588Y02765*
Y02945*
X15707*
Y0294*
Y02655*
X15427*
X15377Y02705*
Y02845*
X15187Y03035*
X14951*
X14948Y03038*
Y03125*
X15238*
X15467Y02895*
G37*
G36*
X15577Y03995D02*
X15317Y03735D01*
X14948*
Y03825*
X15298*
X15477Y04005*
Y04225*
X15577*
Y03995*
G37*
G36*
X15687Y03965D02*
X15562Y03839D01*
X15551Y03837*
X15536Y0383*
X15522Y03822*
X1551Y03811*
X15499Y03799*
X15491Y03785*
X15485Y0377*
X15482Y03759*
X15357Y03635*
X14948*
Y03725*
X15317*
X15319*
X15327*
X15587Y03985*
Y03994*
X15588Y03995*
Y04165*
X15687*
Y03965*
G37*
G36*
Y04275D02*
X15587D01*
Y04445*
X15467*
X15367Y04345*
Y04115*
X15298Y04045*
X14948*
Y04235*
X15277*
Y04425*
X15287Y04435*
X15357Y04505*
X15687*
Y04275*
G37*
G36*
X15577D02*
X15577Y04274D01*
Y04235*
X15477*
X15476*
X15467*
Y04226*
Y04225*
Y04014*
X15288Y03835*
X14948*
Y04035*
X15298*
X15299Y04035*
X15307*
X15377Y04105*
Y04113*
X15378Y04115*
Y04335*
X15477Y04435*
X15577*
Y04275*
G37*
G36*
X15477Y03005D02*
X15487Y02995D01*
X15577*
Y02765*
X15477*
Y02905*
X15427Y02955*
X15248Y03135*
X14948*
Y03225*
X15257*
X15477Y03005*
G37*
G36*
X15457Y03465D02*
X15687Y03235D01*
Y03045*
X15588*
Y03135*
X15587Y03136*
Y03145*
X15571Y03161*
Y03163*
X1557Y03174*
X15566Y03185*
X15559Y03194*
X1555Y03201*
X15539Y03205*
X15527Y03207*
X15525Y03207*
X15298Y03435*
X15289*
X15287*
X14948*
Y03615*
X15307*
X15457Y03465*
G37*
G36*
X15577Y03135D02*
Y03015D01*
X15498*
X15267Y03245*
X14948*
Y03425*
X15287*
X15577Y03135*
G37*
G36*
X13867Y02895D02*
Y02765D01*
Y02764*
Y02735*
X13987*
Y02764*
X13988Y02765*
Y02945*
X14107*
Y0294*
Y02655*
X13827*
X13777Y02705*
Y02845*
X13587Y03035*
X13351*
X13348Y03038*
Y03125*
X13638*
X13867Y02895*
G37*
G36*
X13977Y03995D02*
X13717Y03735D01*
X13348*
Y03825*
X13698*
X13877Y04005*
Y04225*
X13977*
Y03995*
G37*
G36*
X14087Y03965D02*
X13962Y03839D01*
X13951Y03837*
X13936Y0383*
X13922Y03822*
X1391Y03811*
X13899Y03799*
X13891Y03785*
X13885Y0377*
X13882Y03759*
X13757Y03635*
X13348*
Y03725*
X13717*
X13719*
X13727*
X13987Y03985*
Y03994*
X13988Y03995*
Y04165*
X14087*
Y03965*
G37*
G36*
Y04275D02*
X13987D01*
Y04445*
X13867*
X13767Y04345*
Y04115*
X13698Y04045*
X13348*
Y04235*
X13677*
Y04425*
X13687Y04435*
X13757Y04505*
X14087*
Y04275*
G37*
G36*
X13977D02*
X13977Y04274D01*
Y04235*
X13877*
X13876*
X13867*
Y04226*
Y04225*
Y04014*
X13688Y03835*
X13348*
Y04035*
X13698*
X13699Y04035*
X13707*
X13777Y04105*
Y04113*
X13778Y04115*
Y04335*
X13877Y04435*
X13977*
Y04275*
G37*
G36*
X13877Y03005D02*
X13887Y02995D01*
X13977*
Y02765*
X13877*
Y02905*
X13827Y02955*
X13648Y03135*
X13348*
Y03225*
X13657*
X13877Y03005*
G37*
G36*
X13977Y03135D02*
Y03015D01*
X13898*
X13667Y03245*
X13348*
Y03425*
X13687*
X13977Y03135*
G37*
G36*
X13857Y03465D02*
X14087Y03235D01*
Y03045*
X13988*
Y03135*
X13987Y03136*
Y03145*
X13971Y03161*
Y03163*
X1397Y03174*
X13966Y03185*
X13959Y03194*
X1395Y03201*
X13939Y03205*
X13927Y03207*
X13925Y03207*
X13698Y03435*
X13689*
X13687*
X13348*
Y03615*
X13707*
X13857Y03465*
G37*
G36*
X17177Y03995D02*
X16917Y03735D01*
X16548*
Y03825*
X16898*
X17077Y04005*
Y04225*
X17177*
Y03995*
G37*
G36*
X17287Y03965D02*
X17162Y03839D01*
X17151Y03837*
X17136Y0383*
X17122Y03822*
X1711Y03811*
X17099Y03799*
X17091Y03785*
X17085Y0377*
X17082Y03759*
X16957Y03635*
X16548*
Y03725*
X16917*
X16919*
X16927*
X17187Y03985*
Y03994*
X17188Y03995*
Y04165*
X17287*
Y03965*
G37*
G36*
Y04275D02*
X17187D01*
Y04445*
X17067*
X16967Y04345*
Y04115*
X16898Y04045*
X16548*
Y04235*
X16877*
Y04425*
X16887Y04435*
X16957Y04505*
X17287*
Y04275*
G37*
G36*
X17177D02*
X17177Y04274D01*
Y04235*
X17077*
X17076*
X17067*
Y04226*
Y04225*
Y04014*
X16888Y03835*
X16548*
Y04035*
X16898*
X16899Y04035*
X16907*
X16977Y04105*
Y04113*
X16978Y04115*
Y04335*
X17077Y04435*
X17177*
Y04275*
G37*
G36*
X17077Y03005D02*
X17087Y02995D01*
X17177*
Y02765*
X17077*
Y02905*
X17027Y02955*
X16848Y03135*
X16548*
Y03225*
X16857*
X17077Y03005*
G37*
G36*
X17067Y02895D02*
Y02765D01*
Y02764*
Y02735*
X17187*
Y02764*
X17188Y02765*
Y02945*
X17307*
Y0294*
Y02655*
X17027*
X16977Y02705*
Y02845*
X16787Y03035*
X16551*
X16548Y03038*
Y03125*
X16838*
X17067Y02895*
G37*
G36*
X17057Y03465D02*
X17287Y03235D01*
Y03045*
X17188*
Y03135*
X17187Y03136*
Y03145*
X17171Y03161*
Y03163*
X1717Y03174*
X17166Y03185*
X17159Y03194*
X1715Y03201*
X17139Y03205*
X17127Y03207*
X17125Y03207*
X16898Y03435*
X16889*
X16887*
X16548*
Y03615*
X16907*
X17057Y03465*
G37*
G36*
X17177Y03135D02*
Y03015D01*
X17098*
X16867Y03245*
X16548*
Y03425*
X16887*
X17177Y03135*
G37*
G36*
X09067Y02895D02*
Y02765D01*
Y02764*
Y02735*
X09187*
Y02764*
X09188Y02765*
Y02945*
X09307*
Y0294*
Y02655*
X09027*
X08977Y02705*
Y02845*
X08787Y03035*
X08551*
X08548Y03038*
Y03125*
X08838*
X09067Y02895*
G37*
G36*
X09177Y03995D02*
X08917Y03735D01*
X08548*
Y03825*
X08898*
X09077Y04005*
Y04225*
X09177*
Y03995*
G37*
G36*
X09287Y04275D02*
X09187D01*
Y04445*
X09067*
X08967Y04345*
Y04115*
X08898Y04045*
X08548*
Y04235*
X08877*
Y04425*
X08887Y04435*
X08957Y04505*
X09287*
Y04275*
G37*
G36*
X09177D02*
X09177Y04274D01*
Y04235*
X09077*
X09076*
X09067*
Y04226*
Y04225*
Y04014*
X08888Y03835*
X08548*
Y04035*
X08898*
X08899Y04035*
X08907*
X08977Y04105*
Y04113*
X08978Y04115*
Y04335*
X09077Y04435*
X09177*
Y04275*
G37*
G36*
X09177Y03135D02*
Y03015D01*
X09098*
X08867Y03245*
X08548*
Y03425*
X08887*
X09177Y03135*
G37*
G36*
X09077Y03005D02*
X09087Y02995D01*
X09177*
Y02765*
X09077*
Y02905*
X09027Y02955*
X08848Y03135*
X08548*
Y03225*
X08857*
X09077Y03005*
G37*
G36*
X09287Y03965D02*
X09162Y03839D01*
X09151Y03837*
X09136Y0383*
X09122Y03822*
X0911Y03811*
X09099Y03799*
X09091Y03785*
X09085Y0377*
X09082Y03759*
X08957Y03635*
X08548*
Y03725*
X08917*
X08919*
X08927*
X09187Y03985*
Y03994*
X09188Y03995*
Y04165*
X09287*
Y03965*
G37*
G36*
X09057Y03465D02*
X09287Y03235D01*
Y03045*
X09188*
Y03135*
X09187Y03136*
Y03145*
X09171Y03161*
Y03163*
X0917Y03174*
X09166Y03185*
X09159Y03194*
X0915Y03201*
X09139Y03205*
X09127Y03207*
X09125Y03207*
X08898Y03435*
X08889*
X08887*
X08548*
Y03615*
X08907*
X09057Y03465*
G37*
G36*
X07477Y02895D02*
Y02765D01*
X07477Y02764*
Y02735*
X07598*
Y02764*
Y02765*
Y02945*
X07717*
Y0294*
Y02655*
X07437*
X07387Y02705*
Y02845*
X07198Y03035*
X06961*
X06957Y03038*
X06958Y03125*
X07248*
X07477Y02895*
G37*
G36*
X07587Y03995D02*
X07327Y03735D01*
X06957*
Y03825*
X07307*
X07487Y04005*
Y04225*
X07587*
Y03995*
G37*
G36*
X07698Y04275D02*
X07598D01*
Y04445*
X07477*
X07377Y04345*
Y04115*
X07307Y04045*
X06957*
Y04235*
X07287*
Y04425*
X07298Y04435*
X07367Y04505*
X07698*
Y04275*
G37*
G36*
X07587D02*
Y04274D01*
Y04235*
X07487*
X07486*
X07477*
Y04226*
X07477Y04225*
Y04014*
X07298Y03835*
X06957*
Y04035*
X07307*
X07309Y04035*
X07317*
X07387Y04105*
Y04113*
X07388Y04115*
Y04335*
X07487Y04435*
X07587*
Y04275*
G37*
G36*
Y03135D02*
Y03015D01*
X07507*
X07277Y03245*
X06957*
Y03425*
X07298*
X07587Y03135*
G37*
G36*
X07487Y03005D02*
X07498Y02995D01*
X07587*
Y02765*
X07487*
Y02905*
X07437Y02955*
X07257Y03135*
X06957*
Y03225*
X07267*
X07487Y03005*
G37*
G36*
X07698Y03965D02*
X07574Y03841D01*
X07567Y0384*
X07551Y03837*
X07536Y0383*
X07522Y03822*
X0751Y03811*
X07499Y03799*
X07491Y03785*
X07485Y0377*
X07481Y03754*
X0748Y03748*
X07367Y03635*
X06957*
Y03725*
X07327*
X07329*
X07337*
X07598Y03985*
Y03994*
Y03995*
Y04165*
X07698*
Y03965*
G37*
G36*
X07467Y03465D02*
X07495Y03437D01*
X07499Y0343*
X0751Y03418*
X07522Y03407*
X07529Y03403*
X07698Y03235*
Y03045*
X07598*
Y03135*
Y03136*
Y03145*
X0757Y03172*
Y03174*
X07566Y03185*
X07559Y03194*
X0755Y03201*
X07539Y03205*
X07537Y03206*
X07307Y03435*
X07299*
X07298*
X06957*
Y03615*
X07317*
X07467Y03465*
G37*
G36*
X12267Y02895D02*
Y02765D01*
Y02764*
Y02735*
X12387*
Y02764*
X12388Y02765*
Y02945*
X12507*
Y0294*
Y02655*
X12227*
X12177Y02705*
Y02845*
X11987Y03035*
X11751*
X11748Y03038*
Y03125*
X12038*
X12267Y02895*
G37*
G36*
X12377Y03995D02*
X12117Y03735D01*
X11748*
Y03825*
X12098*
X12277Y04005*
Y04225*
X12377*
Y03995*
G37*
G36*
X12487Y03965D02*
X12362Y03839D01*
X12351Y03837*
X12336Y0383*
X12322Y03822*
X1231Y03811*
X12299Y03799*
X12291Y03785*
X12285Y0377*
X12282Y03759*
X12157Y03635*
X11748*
Y03725*
X12117*
X12119*
X12127*
X12387Y03985*
Y03994*
X12388Y03995*
Y04165*
X12487*
Y03965*
G37*
G36*
Y04275D02*
X12387D01*
Y04445*
X12267*
X12167Y04345*
Y04115*
X12098Y04045*
X11748*
Y04235*
X12077*
Y04425*
X12087Y04435*
X12157Y04505*
X12487*
Y04275*
G37*
G36*
X12377D02*
X12377Y04274D01*
Y04235*
X12277*
X12276*
X12267*
Y04226*
Y04225*
Y04014*
X12088Y03835*
X11748*
Y04035*
X12098*
X12099Y04035*
X12107*
X12177Y04105*
Y04113*
X12178Y04115*
Y04335*
X12277Y04435*
X12377*
Y04275*
G37*
G36*
X12377Y03135D02*
Y03015D01*
X12298*
X12067Y03245*
X11748*
Y03425*
X12087*
X12377Y03135*
G37*
G36*
X12277Y03005D02*
X12287Y02995D01*
X12377*
Y02765*
X12277*
Y02905*
X12227Y02955*
X12048Y03135*
X11748*
Y03225*
X12057*
X12277Y03005*
G37*
G36*
X12257Y03465D02*
X12487Y03235D01*
Y03045*
X12388*
Y03135*
X12387Y03136*
Y03145*
X12371Y03161*
Y03163*
X1237Y03174*
X12366Y03185*
X12359Y03194*
X1235Y03201*
X12339Y03205*
X12327Y03207*
X12325Y03207*
X12098Y03435*
X12089*
X12087*
X11748*
Y03615*
X12107*
X12257Y03465*
G37*
G36*
X10667Y02895D02*
Y02765D01*
Y02764*
Y02735*
X10787*
Y02764*
X10788Y02765*
Y02945*
X10907*
Y0294*
Y02655*
X10627*
X10577Y02705*
Y02845*
X10387Y03035*
X10151*
X10148Y03038*
Y03125*
X10438*
X10667Y02895*
G37*
G36*
X10777Y03995D02*
X10517Y03735D01*
X10148*
Y03825*
X10498*
X10677Y04005*
Y04225*
X10777*
Y03995*
G37*
G36*
X10887Y04275D02*
X10787D01*
Y04445*
X10667*
X10567Y04345*
Y04115*
X10498Y04045*
X10148*
Y04235*
X10477*
Y04425*
X10487Y04435*
X10557Y04505*
X10887*
Y04275*
G37*
G36*
X10777D02*
X10777Y04274D01*
Y04235*
X10677*
X10676*
X10667*
Y04226*
Y04225*
Y04014*
X10488Y03835*
X10148*
Y04035*
X10498*
X10499Y04035*
X10507*
X10577Y04105*
Y04113*
X10578Y04115*
Y04335*
X10677Y04435*
X10777*
Y04275*
G37*
G36*
X10777Y03135D02*
Y03015D01*
X10698*
X10467Y03245*
X10148*
Y03425*
X10487*
X10777Y03135*
G37*
G36*
X10677Y03005D02*
X10687Y02995D01*
X10777*
Y02765*
X10677*
Y02905*
X10627Y02955*
X10448Y03135*
X10148*
Y03225*
X10457*
X10677Y03005*
G37*
G36*
X10887Y03965D02*
X10762Y03839D01*
X10751Y03837*
X10736Y0383*
X10722Y03822*
X1071Y03811*
X10699Y03799*
X10691Y03785*
X10685Y0377*
X10682Y03759*
X10557Y03635*
X10148*
Y03725*
X10517*
X10519*
X10527*
X10787Y03985*
Y03994*
X10788Y03995*
Y04165*
X10887*
Y03965*
G37*
G36*
X10657Y03465D02*
X10887Y03235D01*
Y03045*
X10788*
Y03135*
X10787Y03136*
Y03145*
X10771Y03161*
Y03163*
X1077Y03174*
X10766Y03185*
X10759Y03194*
X1075Y03201*
X10739Y03205*
X10727Y03207*
X10725Y03207*
X10498Y03435*
X10489*
X10487*
X10148*
Y03615*
X10507*
X10657Y03465*
G37*
G36*
X0609Y04279D02*
X0599D01*
Y0445*
X0587*
X0577Y0435*
Y0412*
X057Y0405*
X0535*
Y0424*
X05679*
Y04429*
X0569Y0444*
X05759Y04509*
X0609*
Y04279*
G37*
G36*
Y0397D02*
X05958Y03838D01*
X05951Y03837*
X05936Y0383*
X05922Y03822*
X0591Y03811*
X05899Y03799*
X05891Y03785*
X05885Y0377*
X05883Y03763*
X05759Y0364*
X0535*
Y03729*
X0572*
X05721Y03729*
X05729*
X0599Y0399*
Y03998*
Y04*
Y0417*
X0609*
Y0397*
G37*
G36*
X05979Y04D02*
X0572Y0374D01*
X0535*
Y03829*
X057*
X05879Y04009*
Y04229*
X05979*
Y04*
G37*
G36*
X05979Y04279D02*
X05979Y04278D01*
Y0424*
X05879*
X05878*
X0587*
Y04231*
X05869Y04229*
Y04019*
X0569Y0384*
X0535*
Y04039*
X057*
X05701Y0404*
X05709*
X05779Y04109*
Y04118*
X0578Y0412*
Y0434*
X05879Y04439*
X05979*
Y04279*
G37*
G36*
X05879Y03009D02*
X0589Y03D01*
X05979*
Y0277*
X05879*
Y02909*
X05829Y02959*
X0565Y0314*
X0535*
Y03229*
X05659*
X05879Y03009*
G37*
G36*
X05869Y029D02*
Y0277D01*
X0587Y02768*
Y0274*
X0599*
Y02768*
Y0277*
Y0295*
X06109*
Y02944*
Y02659*
X05829*
X05779Y02709*
Y0285*
X0559Y0304*
X05353*
X0535Y03043*
X0535Y03129*
X0564*
X05869Y029*
G37*
G36*
X05859Y0347D02*
X05902Y03427D01*
X0591Y03418*
X05919Y03411*
X0609Y0324*
Y0305*
X0599*
Y0314*
Y03141*
Y0315*
X05971Y03168*
X0597Y03174*
X05966Y03185*
X05959Y03194*
X0595Y03201*
X05939Y03205*
X05933Y03206*
X057Y0344*
X05691*
X0569*
X0535*
Y0362*
X05709*
X05859Y0347*
G37*
G36*
X05979Y0314D02*
Y0302D01*
X059*
X0567Y0325*
X0535*
Y03429*
X0569*
X05979Y0314*
G37*
G36*
X16879Y0604D02*
X0315D01*
X03148*
X02579*
Y065*
X16879*
Y0604*
G37*
G36*
Y0594D02*
X0315D01*
Y06029*
X16879*
Y0594*
G37*
G54D10*
X1662Y05685D02*
X1682D01*
X1522D02*
X1662D01*
X1502D02*
X1522D01*
X1362D02*
X1502D01*
X1342D02*
X1362D01*
X1202D02*
X1342D01*
X1182D02*
X1202D01*
X1042D02*
X1182D01*
X1022D02*
X1042D01*
X0882D02*
X1022D01*
X0862D02*
X0882D01*
X0722D02*
X0862D01*
X0702D02*
X0722D01*
X0562D02*
X0702D01*
X0542D02*
X0562D01*
X03429D02*
X0542D01*
X03229D02*
X03429D01*
X1662Y05785D02*
X1682D01*
X1522D02*
X1662D01*
X1502D02*
X1522D01*
X1362D02*
X1502D01*
X1342D02*
X1362D01*
X1202D02*
X1342D01*
X1182D02*
X1202D01*
X1042D02*
X1182D01*
X1022D02*
X1042D01*
X0882D02*
X1022D01*
X0862D02*
X0882D01*
X0722D02*
X0862D01*
X0702D02*
X0722D01*
X0562D02*
X0702D01*
X0542D02*
X0562D01*
X03429D02*
X0542D01*
X03229D02*
X03429D01*
X02996Y05409D02*
X03059D01*
X03135Y05485*
X03229*
G54D11*
X02996Y0531D02*
X0306D01*
X03135Y05385*
X03229*
X0287Y0531D02*
X0293Y0525D01*
X0314*
X03174Y05285*
X03229*
G54D12*
X02029Y02477D02*
X02049D01*
X02039*
Y02537*
X02029Y02527*
G54D13*
X01829Y0719D02*
Y02079D01*
Y0719D02*
X18429D01*
Y02079D02*
Y0719D01*
X01829Y02079D02*
X18429D01*
G54D14*
X07639Y04011D03*
X07527Y04066D03*
X07639Y0412D03*
X07527Y04175D03*
X07639Y04229D03*
X07527Y04284D03*
X07639Y04338D03*
X07527Y04393D03*
X09239Y04011D03*
X09127Y04066D03*
X09239Y0412D03*
X09127Y04175D03*
X09239Y04229D03*
X09127Y04284D03*
X09239Y04338D03*
X09127Y04393D03*
X10839Y04011D03*
X10727Y04066D03*
X10839Y0412D03*
X10727Y04175D03*
X10839Y04229D03*
X10727Y04284D03*
X10839Y04338D03*
X10727Y04393D03*
X12439Y04011D03*
X12327Y04066D03*
X12439Y0412D03*
X12327Y04175D03*
X12439Y04229D03*
X12327Y04284D03*
X12439Y04338D03*
X12327Y04393D03*
X14039Y04011D03*
X13927Y04066D03*
X14039Y0412D03*
X13927Y04175D03*
X14039Y04229D03*
X13927Y04284D03*
X14039Y04338D03*
X13927Y04393D03*
X15639Y04011D03*
X15527Y04066D03*
X15639Y0412D03*
X15527Y04175D03*
X15639Y04229D03*
X15527Y04284D03*
X15639Y04338D03*
X15527Y04393D03*
X17239Y04011D03*
X17127Y04066D03*
X17239Y0412D03*
X17127Y04175D03*
X17239Y04229D03*
X17127Y04284D03*
X17239Y04338D03*
X17127Y04393D03*
X17239Y02781D03*
X17127Y02836D03*
X17239Y0289D03*
X17127Y02945D03*
X17239Y03D03*
X17127Y03054D03*
X17239Y03109D03*
X17127Y03163D03*
X15639Y02781D03*
X15527Y02836D03*
X15639Y0289D03*
X15527Y02945D03*
X15639Y03D03*
X15527Y03054D03*
X15639Y03109D03*
X15527Y03163D03*
X14039Y02781D03*
X13927Y02836D03*
X14039Y0289D03*
X13927Y02945D03*
X14039Y03D03*
X13927Y03054D03*
X14039Y03109D03*
X13927Y03163D03*
X12439Y02781D03*
X12327Y02836D03*
X12439Y0289D03*
X12327Y02945D03*
X12439Y03D03*
X12327Y03054D03*
X12439Y03109D03*
X12327Y03163D03*
X10839Y02781D03*
X10727Y02836D03*
X10839Y0289D03*
X10727Y02945D03*
X10839Y03D03*
X10727Y03054D03*
X10839Y03109D03*
X10727Y03163D03*
X09239Y02781D03*
X09127Y02836D03*
X09239Y0289D03*
X09127Y02945D03*
X09239Y03D03*
X09127Y03054D03*
X09239Y03109D03*
X09127Y03163D03*
X07639Y02781D03*
X07527Y02836D03*
X07639Y0289D03*
X07527Y02945D03*
X07639Y03D03*
X07527Y03054D03*
X07639Y03109D03*
X07527Y03163D03*
X06039Y04011D03*
X05927Y04066D03*
X06039Y0412D03*
X05927Y04175D03*
X06039Y04229D03*
X05927Y04284D03*
X06039Y04338D03*
X05927Y04393D03*
X06039Y02781D03*
X05927Y02836D03*
X06039Y0289D03*
X05927Y02945D03*
X06039Y03D03*
X05927Y03054D03*
X06039Y03109D03*
X05927Y03163D03*
G54D15*
X07639Y04448D03*
X09239D03*
X10839D03*
X12439D03*
X14039D03*
X15639D03*
X17239D03*
Y03218D03*
X15639D03*
X14039D03*
X12439D03*
X10839D03*
X09239D03*
X07639D03*
X06039Y04448D03*
Y03218D03*
G54D16*
X07583Y04722D03*
Y03738D03*
X09183Y04722D03*
Y03738D03*
X10783Y04722D03*
Y03738D03*
X12383Y04722D03*
Y03738D03*
X13983Y04722D03*
Y03738D03*
X15583Y04722D03*
Y03738D03*
X17183Y04722D03*
Y03738D03*
Y03491D03*
Y02508D03*
X15583Y03491D03*
Y02508D03*
X13983Y03491D03*
Y02508D03*
X12383Y03491D03*
Y02508D03*
X10783Y03491D03*
Y02508D03*
X09183Y03491D03*
Y02508D03*
X07583Y03491D03*
Y02508D03*
X05983Y04722D03*
Y03738D03*
Y03491D03*
Y02508D03*
G54D17*
X01929Y0704D03*
X02889Y05122D03*
Y05596D03*
X02329Y0704D03*
X02729D03*
X03129D03*
X03529D03*
X03929D03*
X04329D03*
X04729D03*
X05129D03*
X05529D03*
X05929D03*
X06329D03*
X06729D03*
X07129D03*
X07529D03*
X07929D03*
X08329D03*
X08729D03*
X09129D03*
X09529D03*
X09929D03*
X10329D03*
X10729D03*
X11129D03*
X11529D03*
X11929D03*
X12329D03*
X12729D03*
X13129D03*
X13529D03*
X13929D03*
X14329D03*
X14729D03*
X15129D03*
X15529D03*
X15929D03*
X16329D03*
X16729D03*
X17129D03*
X17529D03*
X17929D03*
X18329D03*
X02129Y0704D03*
D03*
X02529D03*
X02929D03*
X03329D03*
X03729D03*
X04129D03*
X04529D03*
X04929D03*
X05329D03*
X05729D03*
X06129D03*
X06529D03*
X06929D03*
X07329D03*
X07729D03*
X08129D03*
X08529D03*
X08929D03*
X09329D03*
X09729D03*
X10129D03*
X10529D03*
X10929D03*
X11329D03*
X11729D03*
X12129D03*
X12529D03*
X12929D03*
X13329D03*
X13729D03*
X14129D03*
X14529D03*
X14929D03*
X15329D03*
X15729D03*
X16129D03*
X16529D03*
X16929D03*
X17329D03*
X17729D03*
X18129D03*
X01929Y02229D03*
X02329D03*
X02729D03*
X03129D03*
X03529D03*
X03929D03*
X04329D03*
X04729D03*
X05129D03*
X05529D03*
X05929D03*
X06329D03*
X06729D03*
X07129D03*
X07529D03*
X07929D03*
X08329D03*
X08729D03*
X09129D03*
X09529D03*
X09929D03*
X10329D03*
X10729D03*
X11129D03*
X11529D03*
X11929D03*
X12329D03*
X12729D03*
X13129D03*
X13529D03*
X13929D03*
X14329D03*
X14729D03*
X15129D03*
X15529D03*
X15929D03*
X16329D03*
X16729D03*
X17129D03*
X17529D03*
X17929D03*
X18329D03*
X02129Y02229D03*
X02529D03*
X02929D03*
X03329D03*
X03729D03*
X04129D03*
X04529D03*
X04929D03*
X05329D03*
X05729D03*
X06129D03*
X06529D03*
X06929D03*
X07329D03*
X07729D03*
X08129D03*
X08529D03*
X08929D03*
X09329D03*
X09729D03*
X10129D03*
X10529D03*
X10929D03*
X11329D03*
X11729D03*
X12129D03*
X12529D03*
X12929D03*
X13329D03*
X13729D03*
X14129D03*
X14529D03*
X14929D03*
X15329D03*
X15729D03*
X16129D03*
X16529D03*
X16929D03*
X17329D03*
X17729D03*
X18129D03*
G54D18*
X0542Y03085D03*
Y03185D03*
Y03285D03*
Y03385D03*
Y03485D03*
Y03585D03*
Y03685D03*
Y03785D03*
Y03885D03*
Y03985D03*
Y04085D03*
Y04185D03*
Y04285D03*
Y04385D03*
Y04485D03*
Y04585D03*
Y04685D03*
Y04785D03*
Y04885D03*
Y04985D03*
Y05085D03*
Y05185D03*
Y05285D03*
Y05385D03*
Y05485D03*
Y05585D03*
Y05685D03*
Y05785D03*
Y05885D03*
Y05985D03*
Y06085D03*
Y06185D03*
X0562Y03085D03*
Y03185D03*
Y03285D03*
Y03385D03*
Y03485D03*
Y03585D03*
Y03685D03*
Y03785D03*
Y03885D03*
Y03985D03*
Y04085D03*
Y04185D03*
Y04285D03*
Y04385D03*
Y04485D03*
Y04585D03*
Y04685D03*
Y04785D03*
Y04885D03*
Y04985D03*
Y05085D03*
Y05185D03*
Y05285D03*
Y05385D03*
Y05485D03*
Y05585D03*
Y05685D03*
Y05785D03*
Y05885D03*
Y05985D03*
Y06085D03*
Y06185D03*
X03229Y03085D03*
Y03185D03*
Y03285D03*
Y03385D03*
Y03485D03*
Y03585D03*
Y03685D03*
Y03785D03*
Y03885D03*
Y03985D03*
Y04085D03*
Y04185D03*
Y04285D03*
Y04385D03*
Y04485D03*
Y04585D03*
Y04685D03*
Y04785D03*
Y04885D03*
Y04985D03*
Y05085D03*
Y05185D03*
Y05285D03*
Y05385D03*
Y05485D03*
Y05585D03*
Y05685D03*
Y05785D03*
Y05885D03*
Y05985D03*
Y06085D03*
Y06185D03*
X03429Y03085D03*
Y03185D03*
Y03285D03*
Y03385D03*
Y03485D03*
Y03585D03*
Y03685D03*
Y03785D03*
Y03885D03*
Y03985D03*
Y04085D03*
Y04185D03*
Y04285D03*
Y04385D03*
Y04485D03*
Y04585D03*
Y04685D03*
Y04785D03*
Y04885D03*
Y04985D03*
Y05085D03*
Y05185D03*
Y05285D03*
Y05385D03*
Y05485D03*
Y05585D03*
Y05685D03*
Y05785D03*
Y05885D03*
Y05985D03*
Y06085D03*
Y06185D03*
X0702Y03085D03*
Y03185D03*
Y03285D03*
Y03385D03*
Y03485D03*
Y03585D03*
Y03685D03*
Y03785D03*
Y03885D03*
Y03985D03*
Y04085D03*
Y04185D03*
Y04285D03*
Y04385D03*
Y04485D03*
Y04585D03*
Y04685D03*
Y04785D03*
Y04885D03*
Y04985D03*
Y05085D03*
Y05185D03*
Y05285D03*
Y05385D03*
Y05485D03*
Y05585D03*
Y05685D03*
Y05785D03*
Y05885D03*
Y05985D03*
Y06085D03*
Y06185D03*
X0722Y03085D03*
Y03185D03*
Y03285D03*
Y03385D03*
Y03485D03*
Y03585D03*
Y03685D03*
Y03785D03*
Y03885D03*
Y03985D03*
Y04085D03*
Y04185D03*
Y04285D03*
Y04385D03*
Y04485D03*
Y04585D03*
Y04685D03*
Y04785D03*
Y04885D03*
Y04985D03*
Y05085D03*
Y05185D03*
Y05285D03*
Y05385D03*
Y05485D03*
Y05585D03*
Y05685D03*
Y05785D03*
Y05885D03*
Y05985D03*
Y06085D03*
Y06185D03*
X0862Y03085D03*
Y03185D03*
Y03285D03*
Y03385D03*
Y03485D03*
Y03585D03*
Y03685D03*
Y03785D03*
Y03885D03*
Y03985D03*
Y04085D03*
Y04185D03*
Y04285D03*
Y04385D03*
Y04485D03*
Y04585D03*
Y04685D03*
Y04785D03*
Y04885D03*
Y04985D03*
Y05085D03*
Y05185D03*
Y05285D03*
Y05385D03*
Y05485D03*
Y05585D03*
Y05685D03*
Y05785D03*
Y05885D03*
Y05985D03*
Y06085D03*
Y06185D03*
X0882Y03085D03*
Y03185D03*
Y03285D03*
Y03385D03*
Y03485D03*
Y03585D03*
Y03685D03*
Y03785D03*
Y03885D03*
Y03985D03*
Y04085D03*
Y04185D03*
Y04285D03*
Y04385D03*
Y04485D03*
Y04585D03*
Y04685D03*
Y04785D03*
Y04885D03*
Y04985D03*
Y05085D03*
Y05185D03*
Y05285D03*
Y05385D03*
Y05485D03*
Y05585D03*
Y05685D03*
Y05785D03*
Y05885D03*
Y05985D03*
Y06085D03*
Y06185D03*
X1022Y03085D03*
Y03185D03*
Y03285D03*
Y03385D03*
Y03485D03*
Y03585D03*
Y03685D03*
Y03785D03*
Y03885D03*
Y03985D03*
Y04085D03*
Y04185D03*
Y04285D03*
Y04385D03*
Y04485D03*
Y04585D03*
Y04685D03*
Y04785D03*
Y04885D03*
Y04985D03*
Y05085D03*
Y05185D03*
Y05285D03*
Y05385D03*
Y05485D03*
Y05585D03*
Y05685D03*
Y05785D03*
Y05885D03*
Y05985D03*
Y06085D03*
Y06185D03*
X1042Y03085D03*
Y03185D03*
Y03285D03*
Y03385D03*
Y03485D03*
Y03585D03*
Y03685D03*
Y03785D03*
Y03885D03*
Y03985D03*
Y04085D03*
Y04185D03*
Y04285D03*
Y04385D03*
Y04485D03*
Y04585D03*
Y04685D03*
Y04785D03*
Y04885D03*
Y04985D03*
Y05085D03*
Y05185D03*
Y05285D03*
Y05385D03*
Y05485D03*
Y05585D03*
Y05685D03*
Y05785D03*
Y05885D03*
Y05985D03*
Y06085D03*
Y06185D03*
X1182Y03085D03*
Y03185D03*
Y03285D03*
Y03385D03*
Y03485D03*
Y03585D03*
Y03685D03*
Y03785D03*
Y03885D03*
Y03985D03*
Y04085D03*
Y04185D03*
Y04285D03*
Y04385D03*
Y04485D03*
Y04585D03*
Y04685D03*
Y04785D03*
Y04885D03*
Y04985D03*
Y05085D03*
Y05185D03*
Y05285D03*
Y05385D03*
Y05485D03*
Y05585D03*
Y05685D03*
Y05785D03*
Y05885D03*
Y05985D03*
Y06085D03*
Y06185D03*
X1202Y03085D03*
Y03185D03*
Y03285D03*
Y03385D03*
Y03485D03*
Y03585D03*
Y03685D03*
Y03785D03*
Y03885D03*
Y03985D03*
Y04085D03*
Y04185D03*
Y04285D03*
Y04385D03*
Y04485D03*
Y04585D03*
Y04685D03*
Y04785D03*
Y04885D03*
Y04985D03*
Y05085D03*
Y05185D03*
Y05285D03*
Y05385D03*
Y05485D03*
Y05585D03*
Y05685D03*
Y05785D03*
Y05885D03*
Y05985D03*
Y06085D03*
Y06185D03*
X1342Y03085D03*
Y03185D03*
Y03285D03*
Y03385D03*
Y03485D03*
Y03585D03*
Y03685D03*
Y03785D03*
Y03885D03*
Y03985D03*
Y04085D03*
Y04185D03*
Y04285D03*
Y04385D03*
Y04485D03*
Y04585D03*
Y04685D03*
Y04785D03*
Y04885D03*
Y04985D03*
Y05085D03*
Y05185D03*
Y05285D03*
Y05385D03*
Y05485D03*
Y05585D03*
Y05685D03*
Y05785D03*
Y05885D03*
Y05985D03*
Y06085D03*
Y06185D03*
X1362Y03085D03*
Y03185D03*
Y03285D03*
Y03385D03*
Y03485D03*
Y03585D03*
Y03685D03*
Y03785D03*
Y03885D03*
Y03985D03*
Y04085D03*
Y04185D03*
Y04285D03*
Y04385D03*
Y04485D03*
Y04585D03*
Y04685D03*
Y04785D03*
Y04885D03*
Y04985D03*
Y05085D03*
Y05185D03*
Y05285D03*
Y05385D03*
Y05485D03*
Y05585D03*
Y05685D03*
Y05785D03*
Y05885D03*
Y05985D03*
Y06085D03*
Y06185D03*
X1502Y03085D03*
Y03185D03*
Y03285D03*
Y03385D03*
Y03485D03*
Y03585D03*
Y03685D03*
Y03785D03*
Y03885D03*
Y03985D03*
Y04085D03*
Y04185D03*
Y04285D03*
Y04385D03*
Y04485D03*
Y04585D03*
Y04685D03*
Y04785D03*
Y04885D03*
Y04985D03*
Y05085D03*
Y05185D03*
Y05285D03*
Y05385D03*
Y05485D03*
Y05585D03*
Y05685D03*
Y05785D03*
Y05885D03*
Y05985D03*
Y06085D03*
Y06185D03*
X1522Y03085D03*
Y03185D03*
Y03285D03*
Y03385D03*
Y03485D03*
Y03585D03*
Y03685D03*
Y03785D03*
Y03885D03*
Y03985D03*
Y04085D03*
Y04185D03*
Y04285D03*
Y04385D03*
Y04485D03*
Y04585D03*
Y04685D03*
Y04785D03*
Y04885D03*
Y04985D03*
Y05085D03*
Y05185D03*
Y05285D03*
Y05385D03*
Y05485D03*
Y05585D03*
Y05685D03*
Y05785D03*
Y05885D03*
Y05985D03*
Y06085D03*
Y06185D03*
X1662Y03085D03*
Y03185D03*
Y03285D03*
Y03385D03*
Y03485D03*
Y03585D03*
Y03685D03*
Y03785D03*
Y03885D03*
Y03985D03*
Y04085D03*
Y04185D03*
Y04285D03*
Y04385D03*
Y04485D03*
Y04585D03*
Y04685D03*
Y04785D03*
Y04885D03*
Y04985D03*
Y05085D03*
Y05185D03*
Y05285D03*
Y05385D03*
Y05485D03*
Y05585D03*
Y05685D03*
Y05785D03*
Y05885D03*
Y05985D03*
Y06085D03*
Y06185D03*
X1682Y03085D03*
Y03185D03*
Y03285D03*
Y03385D03*
Y03485D03*
Y03585D03*
Y03685D03*
Y03785D03*
Y03885D03*
Y03985D03*
Y04085D03*
Y04185D03*
Y04285D03*
Y04385D03*
Y04485D03*
Y04585D03*
Y04685D03*
Y04785D03*
Y04885D03*
Y04985D03*
Y05085D03*
Y05185D03*
Y05285D03*
Y05385D03*
Y05485D03*
Y05585D03*
Y05685D03*
Y05785D03*
Y05885D03*
Y05985D03*
Y06085D03*
Y06185D03*
X02996Y0531D03*
Y05409D03*
X0287D03*
Y0531D03*
G54D19*
X0269Y06131D03*
Y06568D03*
G54D20*
X04825Y04735D03*
X0584Y05154D03*
X06329Y04879D03*
X0744Y05174D03*
X0794Y0489D03*
X09529Y04885D03*
X0904Y05174D03*
X1064Y05164D03*
X1115Y0489D03*
X1224Y0515D03*
X12729Y0489D03*
X15934D03*
X14354D03*
X1384Y05159D03*
X1544Y05174D03*
X1704Y0517D03*
M02*