%FSTAX23Y23*%
%MOIN*%
%SFA1B1*%

%IPPOS*%
%ADD224C,0.005000*%
%LNbackplane_drillmap_1-1*%
%LPD*%
G54D224*
X07618Y04011D02*
X07661D01*
X07639Y0399D02*
Y04033D01*
X07506Y04066D02*
X07549D01*
X07528Y04044D02*
Y04087D01*
X07618Y0412D02*
X07661D01*
X07639Y04099D02*
Y04142D01*
X07506Y04175D02*
X07549D01*
X07528Y04154D02*
Y04196D01*
X07618Y0423D02*
X07661D01*
X07639Y04208D02*
Y04251D01*
X07506Y04284D02*
X07549D01*
X07528Y04263D02*
Y04305D01*
X07618Y04339D02*
X07661D01*
X07639Y04317D02*
Y0436D01*
X07506Y04393D02*
X07549D01*
X07528Y04372D02*
Y04415D01*
X07618Y04448D02*
X07661D01*
X07639Y04426D02*
Y04469D01*
X07519Y04721D02*
X07648D01*
X07584Y04657D02*
Y04786D01*
X07519Y03738D02*
X07648D01*
X07584Y03673D02*
Y03802D01*
X09218Y04011D02*
X09261D01*
X09239Y0399D02*
Y04033D01*
X09106Y04066D02*
X09149D01*
X09128Y04044D02*
Y04087D01*
X09218Y0412D02*
X09261D01*
X09239Y04099D02*
Y04142D01*
X09106Y04175D02*
X09149D01*
X09128Y04154D02*
Y04196D01*
X09218Y0423D02*
X09261D01*
X09239Y04208D02*
Y04251D01*
X09106Y04284D02*
X09149D01*
X09128Y04263D02*
Y04305D01*
X09218Y04339D02*
X09261D01*
X09239Y04317D02*
Y0436D01*
X09106Y04393D02*
X09149D01*
X09128Y04372D02*
Y04415D01*
X09218Y04448D02*
X09261D01*
X09239Y04426D02*
Y04469D01*
X09119Y04721D02*
X09248D01*
X09184Y04657D02*
Y04786D01*
X09119Y03738D02*
X09248D01*
X09184Y03673D02*
Y03802D01*
X10818Y04011D02*
X10861D01*
X10839Y0399D02*
Y04033D01*
X10706Y04066D02*
X10749D01*
X10728Y04044D02*
Y04087D01*
X10818Y0412D02*
X10861D01*
X10839Y04099D02*
Y04142D01*
X10706Y04175D02*
X10749D01*
X10728Y04154D02*
Y04196D01*
X10818Y0423D02*
X10861D01*
X10839Y04208D02*
Y04251D01*
X10706Y04284D02*
X10749D01*
X10728Y04263D02*
Y04305D01*
X10818Y04339D02*
X10861D01*
X10839Y04317D02*
Y0436D01*
X10706Y04393D02*
X10749D01*
X10728Y04372D02*
Y04415D01*
X10818Y04448D02*
X10861D01*
X10839Y04426D02*
Y04469D01*
X10719Y04721D02*
X10848D01*
X10784Y04657D02*
Y04786D01*
X10719Y03738D02*
X10848D01*
X10784Y03673D02*
Y03802D01*
X12418Y04011D02*
X12461D01*
X12439Y0399D02*
Y04033D01*
X12306Y04066D02*
X12349D01*
X12328Y04044D02*
Y04087D01*
X12418Y0412D02*
X12461D01*
X12439Y04099D02*
Y04142D01*
X12306Y04175D02*
X12349D01*
X12328Y04154D02*
Y04196D01*
X12418Y0423D02*
X12461D01*
X12439Y04208D02*
Y04251D01*
X12306Y04284D02*
X12349D01*
X12328Y04263D02*
Y04305D01*
X12418Y04339D02*
X12461D01*
X12439Y04317D02*
Y0436D01*
X12306Y04393D02*
X12349D01*
X12328Y04372D02*
Y04415D01*
X12418Y04448D02*
X12461D01*
X12439Y04426D02*
Y04469D01*
X12319Y04721D02*
X12448D01*
X12384Y04657D02*
Y04786D01*
X12319Y03738D02*
X12448D01*
X12384Y03673D02*
Y03802D01*
X14018Y04011D02*
X14061D01*
X14039Y0399D02*
Y04033D01*
X13906Y04066D02*
X13949D01*
X13928Y04044D02*
Y04087D01*
X14018Y0412D02*
X14061D01*
X14039Y04099D02*
Y04142D01*
X13906Y04175D02*
X13949D01*
X13928Y04154D02*
Y04196D01*
X14018Y0423D02*
X14061D01*
X14039Y04208D02*
Y04251D01*
X13906Y04284D02*
X13949D01*
X13928Y04263D02*
Y04305D01*
X14018Y04339D02*
X14061D01*
X14039Y04317D02*
Y0436D01*
X13906Y04393D02*
X13949D01*
X13928Y04372D02*
Y04415D01*
X14018Y04448D02*
X14061D01*
X14039Y04426D02*
Y04469D01*
X13919Y04721D02*
X14048D01*
X13984Y04657D02*
Y04786D01*
X13919Y03738D02*
X14048D01*
X13984Y03673D02*
Y03802D01*
X15618Y04011D02*
X15661D01*
X15639Y0399D02*
Y04033D01*
X15506Y04066D02*
X15549D01*
X15528Y04044D02*
Y04087D01*
X15618Y0412D02*
X15661D01*
X15639Y04099D02*
Y04142D01*
X15506Y04175D02*
X15549D01*
X15528Y04154D02*
Y04196D01*
X15618Y0423D02*
X15661D01*
X15639Y04208D02*
Y04251D01*
X15506Y04284D02*
X15549D01*
X15528Y04263D02*
Y04305D01*
X15618Y04339D02*
X15661D01*
X15639Y04317D02*
Y0436D01*
X15506Y04393D02*
X15549D01*
X15528Y04372D02*
Y04415D01*
X15618Y04448D02*
X15661D01*
X15639Y04426D02*
Y04469D01*
X15519Y04721D02*
X15648D01*
X15584Y04657D02*
Y04786D01*
X15519Y03738D02*
X15648D01*
X15584Y03673D02*
Y03802D01*
X17218Y04011D02*
X17261D01*
X17239Y0399D02*
Y04033D01*
X17106Y04066D02*
X17149D01*
X17128Y04044D02*
Y04087D01*
X17218Y0412D02*
X17261D01*
X17239Y04099D02*
Y04142D01*
X17106Y04175D02*
X17149D01*
X17128Y04154D02*
Y04196D01*
X17218Y0423D02*
X17261D01*
X17239Y04208D02*
Y04251D01*
X17106Y04284D02*
X17149D01*
X17128Y04263D02*
Y04305D01*
X17218Y04339D02*
X17261D01*
X17239Y04317D02*
Y0436D01*
X17106Y04393D02*
X17149D01*
X17128Y04372D02*
Y04415D01*
X17218Y04448D02*
X17261D01*
X17239Y04426D02*
Y04469D01*
X17119Y04721D02*
X17248D01*
X17184Y04657D02*
Y04786D01*
X17119Y03738D02*
X17248D01*
X17184Y03673D02*
Y03802D01*
X17218Y02781D02*
X17261D01*
X17239Y0276D02*
Y02803D01*
X17106Y02836D02*
X17149D01*
X17128Y02814D02*
Y02857D01*
X17218Y0289D02*
X17261D01*
X17239Y02869D02*
Y02912D01*
X17106Y02945D02*
X17149D01*
X17128Y02924D02*
Y02966D01*
X17218Y03D02*
X17261D01*
X17239Y02978D02*
Y03021D01*
X17106Y03054D02*
X17149D01*
X17128Y03033D02*
Y03075D01*
X17218Y03109D02*
X17261D01*
X17239Y03087D02*
Y0313D01*
X17106Y03163D02*
X17149D01*
X17128Y03142D02*
Y03185D01*
X17218Y03218D02*
X17261D01*
X17239Y03196D02*
Y03239D01*
X17119Y03491D02*
X17248D01*
X17184Y03427D02*
Y03556D01*
X17119Y02508D02*
X17248D01*
X17184Y02443D02*
Y02572D01*
X15618Y02781D02*
X15661D01*
X15639Y0276D02*
Y02803D01*
X15506Y02836D02*
X15549D01*
X15528Y02814D02*
Y02857D01*
X15618Y0289D02*
X15661D01*
X15639Y02869D02*
Y02912D01*
X15506Y02945D02*
X15549D01*
X15528Y02924D02*
Y02966D01*
X15618Y03D02*
X15661D01*
X15639Y02978D02*
Y03021D01*
X15506Y03054D02*
X15549D01*
X15528Y03033D02*
Y03075D01*
X15618Y03109D02*
X15661D01*
X15639Y03087D02*
Y0313D01*
X15506Y03163D02*
X15549D01*
X15528Y03142D02*
Y03185D01*
X15618Y03218D02*
X15661D01*
X15639Y03196D02*
Y03239D01*
X15519Y03491D02*
X15648D01*
X15584Y03427D02*
Y03556D01*
X15519Y02508D02*
X15648D01*
X15584Y02443D02*
Y02572D01*
X14018Y02781D02*
X14061D01*
X14039Y0276D02*
Y02803D01*
X13906Y02836D02*
X13949D01*
X13928Y02814D02*
Y02857D01*
X14018Y0289D02*
X14061D01*
X14039Y02869D02*
Y02912D01*
X13906Y02945D02*
X13949D01*
X13928Y02924D02*
Y02966D01*
X14018Y03D02*
X14061D01*
X14039Y02978D02*
Y03021D01*
X13906Y03054D02*
X13949D01*
X13928Y03033D02*
Y03075D01*
X14018Y03109D02*
X14061D01*
X14039Y03087D02*
Y0313D01*
X13906Y03163D02*
X13949D01*
X13928Y03142D02*
Y03185D01*
X14018Y03218D02*
X14061D01*
X14039Y03196D02*
Y03239D01*
X13919Y03491D02*
X14048D01*
X13984Y03427D02*
Y03556D01*
X13919Y02508D02*
X14048D01*
X13984Y02443D02*
Y02572D01*
X12418Y02781D02*
X12461D01*
X12439Y0276D02*
Y02803D01*
X12306Y02836D02*
X12349D01*
X12328Y02814D02*
Y02857D01*
X12418Y0289D02*
X12461D01*
X12439Y02869D02*
Y02912D01*
X12306Y02945D02*
X12349D01*
X12328Y02924D02*
Y02966D01*
X12418Y03D02*
X12461D01*
X12439Y02978D02*
Y03021D01*
X12306Y03054D02*
X12349D01*
X12328Y03033D02*
Y03075D01*
X12418Y03109D02*
X12461D01*
X12439Y03087D02*
Y0313D01*
X12306Y03163D02*
X12349D01*
X12328Y03142D02*
Y03185D01*
X12418Y03218D02*
X12461D01*
X12439Y03196D02*
Y03239D01*
X12319Y03491D02*
X12448D01*
X12384Y03427D02*
Y03556D01*
X12319Y02508D02*
X12448D01*
X12384Y02443D02*
Y02572D01*
X10818Y02781D02*
X10861D01*
X10839Y0276D02*
Y02803D01*
X10706Y02836D02*
X10749D01*
X10728Y02814D02*
Y02857D01*
X10818Y0289D02*
X10861D01*
X10839Y02869D02*
Y02912D01*
X10706Y02945D02*
X10749D01*
X10728Y02924D02*
Y02966D01*
X10818Y03D02*
X10861D01*
X10839Y02978D02*
Y03021D01*
X10706Y03054D02*
X10749D01*
X10728Y03033D02*
Y03075D01*
X10818Y03109D02*
X10861D01*
X10839Y03087D02*
Y0313D01*
X10706Y03163D02*
X10749D01*
X10728Y03142D02*
Y03185D01*
X10818Y03218D02*
X10861D01*
X10839Y03196D02*
Y03239D01*
X10719Y03491D02*
X10848D01*
X10784Y03427D02*
Y03556D01*
X10719Y02508D02*
X10848D01*
X10784Y02443D02*
Y02572D01*
X09218Y02781D02*
X09261D01*
X09239Y0276D02*
Y02803D01*
X09106Y02836D02*
X09149D01*
X09128Y02814D02*
Y02857D01*
X09218Y0289D02*
X09261D01*
X09239Y02869D02*
Y02912D01*
X09106Y02945D02*
X09149D01*
X09128Y02924D02*
Y02966D01*
X09218Y03D02*
X09261D01*
X09239Y02978D02*
Y03021D01*
X09106Y03054D02*
X09149D01*
X09128Y03033D02*
Y03075D01*
X09218Y03109D02*
X09261D01*
X09239Y03087D02*
Y0313D01*
X09106Y03163D02*
X09149D01*
X09128Y03142D02*
Y03185D01*
X09218Y03218D02*
X09261D01*
X09239Y03196D02*
Y03239D01*
X09119Y03491D02*
X09248D01*
X09184Y03427D02*
Y03556D01*
X09119Y02508D02*
X09248D01*
X09184Y02443D02*
Y02572D01*
X07618Y02781D02*
X07661D01*
X07639Y0276D02*
Y02803D01*
X07506Y02836D02*
X07549D01*
X07528Y02814D02*
Y02857D01*
X07618Y0289D02*
X07661D01*
X07639Y02869D02*
Y02912D01*
X07506Y02945D02*
X07549D01*
X07528Y02924D02*
Y02966D01*
X07618Y03D02*
X07661D01*
X07639Y02978D02*
Y03021D01*
X07506Y03054D02*
X07549D01*
X07528Y03033D02*
Y03075D01*
X07618Y03109D02*
X07661D01*
X07639Y03087D02*
Y0313D01*
X07506Y03163D02*
X07549D01*
X07528Y03142D02*
Y03185D01*
X07618Y03218D02*
X07661D01*
X07639Y03196D02*
Y03239D01*
X07519Y03491D02*
X07648D01*
X07584Y03427D02*
Y03556D01*
X07519Y02508D02*
X07648D01*
X07584Y02443D02*
Y02572D01*
X06018Y04011D02*
X06061D01*
X06039Y0399D02*
Y04033D01*
X05906Y04066D02*
X05949D01*
X05928Y04044D02*
Y04087D01*
X06018Y0412D02*
X06061D01*
X06039Y04099D02*
Y04142D01*
X05906Y04175D02*
X05949D01*
X05928Y04154D02*
Y04196D01*
X06018Y0423D02*
X06061D01*
X06039Y04208D02*
Y04251D01*
X05906Y04284D02*
X05949D01*
X05928Y04263D02*
Y04305D01*
X06018Y04339D02*
X06061D01*
X06039Y04317D02*
Y0436D01*
X05906Y04393D02*
X05949D01*
X05928Y04372D02*
Y04415D01*
X06018Y04448D02*
X06061D01*
X06039Y04426D02*
Y04469D01*
X05919Y04721D02*
X06048D01*
X05984Y04657D02*
Y04786D01*
X05919Y03738D02*
X06048D01*
X05984Y03673D02*
Y03802D01*
X06018Y02781D02*
X06061D01*
X06039Y0276D02*
Y02803D01*
X05906Y02836D02*
X05949D01*
X05928Y02814D02*
Y02857D01*
X06018Y0289D02*
X06061D01*
X06039Y02869D02*
Y02912D01*
X05906Y02945D02*
X05949D01*
X05928Y02924D02*
Y02966D01*
X06018Y03D02*
X06061D01*
X06039Y02978D02*
Y03021D01*
X05906Y03054D02*
X05949D01*
X05928Y03033D02*
Y03075D01*
X06018Y03109D02*
X06061D01*
X06039Y03087D02*
Y0313D01*
X05906Y03163D02*
X05949D01*
X05928Y03142D02*
Y03185D01*
X06018Y03218D02*
X06061D01*
X06039Y03196D02*
Y03239D01*
X05919Y03491D02*
X06048D01*
X05984Y03427D02*
Y03556D01*
X05919Y02508D02*
X06048D01*
X05984Y02443D02*
Y02572D01*
X01878Y07041D02*
X01981D01*
X0193Y06989D02*
Y07092D01*
X054Y03085D02*
X05439D01*
X0542Y03065D02*
Y03104D01*
X054Y03185D02*
X05439D01*
X0542Y03165D02*
Y03204D01*
X054Y03285D02*
X05439D01*
X0542Y03265D02*
Y03304D01*
X054Y03385D02*
X05439D01*
X0542Y03365D02*
Y03404D01*
X054Y03485D02*
X05439D01*
X0542Y03465D02*
Y03504D01*
X054Y03585D02*
X05439D01*
X0542Y03565D02*
Y03604D01*
X054Y03685D02*
X05439D01*
X0542Y03665D02*
Y03704D01*
X054Y03785D02*
X05439D01*
X0542Y03765D02*
Y03804D01*
X054Y03885D02*
X05439D01*
X0542Y03865D02*
Y03904D01*
X054Y03985D02*
X05439D01*
X0542Y03965D02*
Y04004D01*
X054Y04085D02*
X05439D01*
X0542Y04065D02*
Y04104D01*
X054Y04185D02*
X05439D01*
X0542Y04165D02*
Y04204D01*
X054Y04285D02*
X05439D01*
X0542Y04265D02*
Y04304D01*
X054Y04385D02*
X05439D01*
X0542Y04365D02*
Y04404D01*
X054Y04485D02*
X05439D01*
X0542Y04465D02*
Y04504D01*
X054Y04585D02*
X05439D01*
X0542Y04565D02*
Y04604D01*
X054Y04685D02*
X05439D01*
X0542Y04665D02*
Y04704D01*
X054Y04785D02*
X05439D01*
X0542Y04765D02*
Y04804D01*
X054Y04885D02*
X05439D01*
X0542Y04865D02*
Y04904D01*
X054Y04985D02*
X05439D01*
X0542Y04965D02*
Y05004D01*
X054Y05085D02*
X05439D01*
X0542Y05065D02*
Y05104D01*
X054Y05185D02*
X05439D01*
X0542Y05165D02*
Y05204D01*
X054Y05285D02*
X05439D01*
X0542Y05265D02*
Y05304D01*
X054Y05385D02*
X05439D01*
X0542Y05365D02*
Y05404D01*
X054Y05485D02*
X05439D01*
X0542Y05465D02*
Y05504D01*
X054Y05584D02*
X05439D01*
X0542Y05565D02*
Y05604D01*
X054Y05685D02*
X05439D01*
X0542Y05665D02*
Y05704D01*
X054Y05785D02*
X05439D01*
X0542Y05765D02*
Y05804D01*
X054Y05885D02*
X05439D01*
X0542Y05865D02*
Y05904D01*
X054Y05985D02*
X05439D01*
X0542Y05965D02*
Y06004D01*
X054Y06085D02*
X05439D01*
X0542Y06065D02*
Y06104D01*
X054Y06185D02*
X05439D01*
X0542Y06165D02*
Y06204D01*
X056Y03085D02*
X05639D01*
X0562Y03065D02*
Y03104D01*
X056Y03185D02*
X05639D01*
X0562Y03165D02*
Y03204D01*
X056Y03285D02*
X05639D01*
X0562Y03265D02*
Y03304D01*
X056Y03385D02*
X05639D01*
X0562Y03365D02*
Y03404D01*
X056Y03485D02*
X05639D01*
X0562Y03465D02*
Y03504D01*
X056Y03585D02*
X05639D01*
X0562Y03565D02*
Y03604D01*
X056Y03685D02*
X05639D01*
X0562Y03665D02*
Y03704D01*
X056Y03785D02*
X05639D01*
X0562Y03765D02*
Y03804D01*
X056Y03885D02*
X05639D01*
X0562Y03865D02*
Y03904D01*
X056Y03985D02*
X05639D01*
X0562Y03965D02*
Y04004D01*
X056Y04085D02*
X05639D01*
X0562Y04065D02*
Y04104D01*
X056Y04185D02*
X05639D01*
X0562Y04165D02*
Y04204D01*
X056Y04285D02*
X05639D01*
X0562Y04265D02*
Y04304D01*
X056Y04385D02*
X05639D01*
X0562Y04365D02*
Y04404D01*
X056Y04485D02*
X05639D01*
X0562Y04465D02*
Y04504D01*
X056Y04585D02*
X05639D01*
X0562Y04565D02*
Y04604D01*
X056Y04685D02*
X05639D01*
X0562Y04665D02*
Y04704D01*
X056Y04785D02*
X05639D01*
X0562Y04765D02*
Y04804D01*
X056Y04885D02*
X05639D01*
X0562Y04865D02*
Y04904D01*
X056Y04985D02*
X05639D01*
X0562Y04965D02*
Y05004D01*
X056Y05085D02*
X05639D01*
X0562Y05065D02*
Y05104D01*
X056Y05185D02*
X05639D01*
X0562Y05165D02*
Y05204D01*
X056Y05285D02*
X05639D01*
X0562Y05265D02*
Y05304D01*
X056Y05385D02*
X05639D01*
X0562Y05365D02*
Y05404D01*
X056Y05485D02*
X05639D01*
X0562Y05465D02*
Y05504D01*
X056Y05584D02*
X05639D01*
X0562Y05565D02*
Y05604D01*
X056Y05685D02*
X05639D01*
X0562Y05665D02*
Y05704D01*
X056Y05785D02*
X05639D01*
X0562Y05765D02*
Y05804D01*
X056Y05885D02*
X05639D01*
X0562Y05865D02*
Y05904D01*
X056Y05985D02*
X05639D01*
X0562Y05965D02*
Y06004D01*
X056Y06085D02*
X05639D01*
X0562Y06065D02*
Y06104D01*
X056Y06185D02*
X05639D01*
X0562Y06165D02*
Y06204D01*
X0321Y03085D02*
X03249D01*
X0323Y03065D02*
Y03104D01*
X0321Y03185D02*
X03249D01*
X0323Y03165D02*
Y03204D01*
X0321Y03285D02*
X03249D01*
X0323Y03265D02*
Y03304D01*
X0321Y03385D02*
X03249D01*
X0323Y03365D02*
Y03404D01*
X0321Y03485D02*
X03249D01*
X0323Y03465D02*
Y03504D01*
X0321Y03585D02*
X03249D01*
X0323Y03565D02*
Y03604D01*
X0321Y03685D02*
X03249D01*
X0323Y03665D02*
Y03704D01*
X0321Y03785D02*
X03249D01*
X0323Y03765D02*
Y03804D01*
X0321Y03885D02*
X03249D01*
X0323Y03865D02*
Y03904D01*
X0321Y03985D02*
X03249D01*
X0323Y03965D02*
Y04004D01*
X0321Y04085D02*
X03249D01*
X0323Y04065D02*
Y04104D01*
X0321Y04185D02*
X03249D01*
X0323Y04165D02*
Y04204D01*
X0321Y04285D02*
X03249D01*
X0323Y04265D02*
Y04304D01*
X0321Y04385D02*
X03249D01*
X0323Y04365D02*
Y04404D01*
X0321Y04485D02*
X03249D01*
X0323Y04465D02*
Y04504D01*
X0321Y04585D02*
X03249D01*
X0323Y04565D02*
Y04604D01*
X0321Y04685D02*
X03249D01*
X0323Y04665D02*
Y04704D01*
X0321Y04785D02*
X03249D01*
X0323Y04765D02*
Y04804D01*
X0321Y04885D02*
X03249D01*
X0323Y04865D02*
Y04904D01*
X0321Y04985D02*
X03249D01*
X0323Y04965D02*
Y05004D01*
X0321Y05085D02*
X03249D01*
X0323Y05065D02*
Y05104D01*
X0321Y05185D02*
X03249D01*
X0323Y05165D02*
Y05204D01*
X0321Y05285D02*
X03249D01*
X0323Y05265D02*
Y05304D01*
X0321Y05385D02*
X03249D01*
X0323Y05365D02*
Y05404D01*
X0321Y05485D02*
X03249D01*
X0323Y05465D02*
Y05504D01*
X0321Y05584D02*
X03249D01*
X0323Y05565D02*
Y05604D01*
X0321Y05685D02*
X03249D01*
X0323Y05665D02*
Y05704D01*
X0321Y05785D02*
X03249D01*
X0323Y05765D02*
Y05804D01*
X0321Y05885D02*
X03249D01*
X0323Y05865D02*
Y05904D01*
X0321Y05985D02*
X03249D01*
X0323Y05965D02*
Y06004D01*
X0321Y06085D02*
X03249D01*
X0323Y06065D02*
Y06104D01*
X0321Y06185D02*
X03249D01*
X0323Y06165D02*
Y06204D01*
X0341Y03085D02*
X03449D01*
X0343Y03065D02*
Y03104D01*
X0341Y03185D02*
X03449D01*
X0343Y03165D02*
Y03204D01*
X0341Y03285D02*
X03449D01*
X0343Y03265D02*
Y03304D01*
X0341Y03385D02*
X03449D01*
X0343Y03365D02*
Y03404D01*
X0341Y03485D02*
X03449D01*
X0343Y03465D02*
Y03504D01*
X0341Y03585D02*
X03449D01*
X0343Y03565D02*
Y03604D01*
X0341Y03685D02*
X03449D01*
X0343Y03665D02*
Y03704D01*
X0341Y03785D02*
X03449D01*
X0343Y03765D02*
Y03804D01*
X0341Y03885D02*
X03449D01*
X0343Y03865D02*
Y03904D01*
X0341Y03985D02*
X03449D01*
X0343Y03965D02*
Y04004D01*
X0341Y04085D02*
X03449D01*
X0343Y04065D02*
Y04104D01*
X0341Y04185D02*
X03449D01*
X0343Y04165D02*
Y04204D01*
X0341Y04285D02*
X03449D01*
X0343Y04265D02*
Y04304D01*
X0341Y04385D02*
X03449D01*
X0343Y04365D02*
Y04404D01*
X0341Y04485D02*
X03449D01*
X0343Y04465D02*
Y04504D01*
X0341Y04585D02*
X03449D01*
X0343Y04565D02*
Y04604D01*
X0341Y04685D02*
X03449D01*
X0343Y04665D02*
Y04704D01*
X0341Y04785D02*
X03449D01*
X0343Y04765D02*
Y04804D01*
X0341Y04885D02*
X03449D01*
X0343Y04865D02*
Y04904D01*
X0341Y04985D02*
X03449D01*
X0343Y04965D02*
Y05004D01*
X0341Y05085D02*
X03449D01*
X0343Y05065D02*
Y05104D01*
X0341Y05185D02*
X03449D01*
X0343Y05165D02*
Y05204D01*
X0341Y05285D02*
X03449D01*
X0343Y05265D02*
Y05304D01*
X0341Y05385D02*
X03449D01*
X0343Y05365D02*
Y05404D01*
X0341Y05485D02*
X03449D01*
X0343Y05465D02*
Y05504D01*
X0341Y05584D02*
X03449D01*
X0343Y05565D02*
Y05604D01*
X0341Y05685D02*
X03449D01*
X0343Y05665D02*
Y05704D01*
X0341Y05785D02*
X03449D01*
X0343Y05765D02*
Y05804D01*
X0341Y05885D02*
X03449D01*
X0343Y05865D02*
Y05904D01*
X0341Y05985D02*
X03449D01*
X0343Y05965D02*
Y06004D01*
X0341Y06085D02*
X03449D01*
X0343Y06065D02*
Y06104D01*
X0341Y06185D02*
X03449D01*
X0343Y06165D02*
Y06204D01*
X07Y03085D02*
X07039D01*
X0702Y03065D02*
Y03104D01*
X07Y03185D02*
X07039D01*
X0702Y03165D02*
Y03204D01*
X07Y03285D02*
X07039D01*
X0702Y03265D02*
Y03304D01*
X07Y03385D02*
X07039D01*
X0702Y03365D02*
Y03404D01*
X07Y03485D02*
X07039D01*
X0702Y03465D02*
Y03504D01*
X07Y03585D02*
X07039D01*
X0702Y03565D02*
Y03604D01*
X07Y03685D02*
X07039D01*
X0702Y03665D02*
Y03704D01*
X07Y03785D02*
X07039D01*
X0702Y03765D02*
Y03804D01*
X07Y03885D02*
X07039D01*
X0702Y03865D02*
Y03904D01*
X07Y03985D02*
X07039D01*
X0702Y03965D02*
Y04004D01*
X07Y04085D02*
X07039D01*
X0702Y04065D02*
Y04104D01*
X07Y04185D02*
X07039D01*
X0702Y04165D02*
Y04204D01*
X07Y04285D02*
X07039D01*
X0702Y04265D02*
Y04304D01*
X07Y04385D02*
X07039D01*
X0702Y04365D02*
Y04404D01*
X07Y04485D02*
X07039D01*
X0702Y04465D02*
Y04504D01*
X07Y04585D02*
X07039D01*
X0702Y04565D02*
Y04604D01*
X07Y04685D02*
X07039D01*
X0702Y04665D02*
Y04704D01*
X07Y04785D02*
X07039D01*
X0702Y04765D02*
Y04804D01*
X07Y04885D02*
X07039D01*
X0702Y04865D02*
Y04904D01*
X07Y04985D02*
X07039D01*
X0702Y04965D02*
Y05004D01*
X07Y05085D02*
X07039D01*
X0702Y05065D02*
Y05104D01*
X07Y05185D02*
X07039D01*
X0702Y05165D02*
Y05204D01*
X07Y05285D02*
X07039D01*
X0702Y05265D02*
Y05304D01*
X07Y05385D02*
X07039D01*
X0702Y05365D02*
Y05404D01*
X07Y05485D02*
X07039D01*
X0702Y05465D02*
Y05504D01*
X07Y05584D02*
X07039D01*
X0702Y05565D02*
Y05604D01*
X07Y05685D02*
X07039D01*
X0702Y05665D02*
Y05704D01*
X07Y05785D02*
X07039D01*
X0702Y05765D02*
Y05804D01*
X07Y05885D02*
X07039D01*
X0702Y05865D02*
Y05904D01*
X07Y05985D02*
X07039D01*
X0702Y05965D02*
Y06004D01*
X07Y06085D02*
X07039D01*
X0702Y06065D02*
Y06104D01*
X07Y06185D02*
X07039D01*
X0702Y06165D02*
Y06204D01*
X072Y03085D02*
X07239D01*
X0722Y03065D02*
Y03104D01*
X072Y03185D02*
X07239D01*
X0722Y03165D02*
Y03204D01*
X072Y03285D02*
X07239D01*
X0722Y03265D02*
Y03304D01*
X072Y03385D02*
X07239D01*
X0722Y03365D02*
Y03404D01*
X072Y03485D02*
X07239D01*
X0722Y03465D02*
Y03504D01*
X072Y03585D02*
X07239D01*
X0722Y03565D02*
Y03604D01*
X072Y03685D02*
X07239D01*
X0722Y03665D02*
Y03704D01*
X072Y03785D02*
X07239D01*
X0722Y03765D02*
Y03804D01*
X072Y03885D02*
X07239D01*
X0722Y03865D02*
Y03904D01*
X072Y03985D02*
X07239D01*
X0722Y03965D02*
Y04004D01*
X072Y04085D02*
X07239D01*
X0722Y04065D02*
Y04104D01*
X072Y04185D02*
X07239D01*
X0722Y04165D02*
Y04204D01*
X072Y04285D02*
X07239D01*
X0722Y04265D02*
Y04304D01*
X072Y04385D02*
X07239D01*
X0722Y04365D02*
Y04404D01*
X072Y04485D02*
X07239D01*
X0722Y04465D02*
Y04504D01*
X072Y04585D02*
X07239D01*
X0722Y04565D02*
Y04604D01*
X072Y04685D02*
X07239D01*
X0722Y04665D02*
Y04704D01*
X072Y04785D02*
X07239D01*
X0722Y04765D02*
Y04804D01*
X072Y04885D02*
X07239D01*
X0722Y04865D02*
Y04904D01*
X072Y04985D02*
X07239D01*
X0722Y04965D02*
Y05004D01*
X072Y05085D02*
X07239D01*
X0722Y05065D02*
Y05104D01*
X072Y05185D02*
X07239D01*
X0722Y05165D02*
Y05204D01*
X072Y05285D02*
X07239D01*
X0722Y05265D02*
Y05304D01*
X072Y05385D02*
X07239D01*
X0722Y05365D02*
Y05404D01*
X072Y05485D02*
X07239D01*
X0722Y05465D02*
Y05504D01*
X072Y05584D02*
X07239D01*
X0722Y05565D02*
Y05604D01*
X072Y05685D02*
X07239D01*
X0722Y05665D02*
Y05704D01*
X072Y05785D02*
X07239D01*
X0722Y05765D02*
Y05804D01*
X072Y05885D02*
X07239D01*
X0722Y05865D02*
Y05904D01*
X072Y05985D02*
X07239D01*
X0722Y05965D02*
Y06004D01*
X072Y06085D02*
X07239D01*
X0722Y06065D02*
Y06104D01*
X072Y06185D02*
X07239D01*
X0722Y06165D02*
Y06204D01*
X086Y03085D02*
X08639D01*
X0862Y03065D02*
Y03104D01*
X086Y03185D02*
X08639D01*
X0862Y03165D02*
Y03204D01*
X086Y03285D02*
X08639D01*
X0862Y03265D02*
Y03304D01*
X086Y03385D02*
X08639D01*
X0862Y03365D02*
Y03404D01*
X086Y03485D02*
X08639D01*
X0862Y03465D02*
Y03504D01*
X086Y03585D02*
X08639D01*
X0862Y03565D02*
Y03604D01*
X086Y03685D02*
X08639D01*
X0862Y03665D02*
Y03704D01*
X086Y03785D02*
X08639D01*
X0862Y03765D02*
Y03804D01*
X086Y03885D02*
X08639D01*
X0862Y03865D02*
Y03904D01*
X086Y03985D02*
X08639D01*
X0862Y03965D02*
Y04004D01*
X086Y04085D02*
X08639D01*
X0862Y04065D02*
Y04104D01*
X086Y04185D02*
X08639D01*
X0862Y04165D02*
Y04204D01*
X086Y04285D02*
X08639D01*
X0862Y04265D02*
Y04304D01*
X086Y04385D02*
X08639D01*
X0862Y04365D02*
Y04404D01*
X086Y04485D02*
X08639D01*
X0862Y04465D02*
Y04504D01*
X086Y04585D02*
X08639D01*
X0862Y04565D02*
Y04604D01*
X086Y04685D02*
X08639D01*
X0862Y04665D02*
Y04704D01*
X086Y04785D02*
X08639D01*
X0862Y04765D02*
Y04804D01*
X086Y04885D02*
X08639D01*
X0862Y04865D02*
Y04904D01*
X086Y04985D02*
X08639D01*
X0862Y04965D02*
Y05004D01*
X086Y05085D02*
X08639D01*
X0862Y05065D02*
Y05104D01*
X086Y05185D02*
X08639D01*
X0862Y05165D02*
Y05204D01*
X086Y05285D02*
X08639D01*
X0862Y05265D02*
Y05304D01*
X086Y05385D02*
X08639D01*
X0862Y05365D02*
Y05404D01*
X086Y05485D02*
X08639D01*
X0862Y05465D02*
Y05504D01*
X086Y05584D02*
X08639D01*
X0862Y05565D02*
Y05604D01*
X086Y05685D02*
X08639D01*
X0862Y05665D02*
Y05704D01*
X086Y05785D02*
X08639D01*
X0862Y05765D02*
Y05804D01*
X086Y05885D02*
X08639D01*
X0862Y05865D02*
Y05904D01*
X086Y05985D02*
X08639D01*
X0862Y05965D02*
Y06004D01*
X086Y06085D02*
X08639D01*
X0862Y06065D02*
Y06104D01*
X086Y06185D02*
X08639D01*
X0862Y06165D02*
Y06204D01*
X088Y03085D02*
X08839D01*
X0882Y03065D02*
Y03104D01*
X088Y03185D02*
X08839D01*
X0882Y03165D02*
Y03204D01*
X088Y03285D02*
X08839D01*
X0882Y03265D02*
Y03304D01*
X088Y03385D02*
X08839D01*
X0882Y03365D02*
Y03404D01*
X088Y03485D02*
X08839D01*
X0882Y03465D02*
Y03504D01*
X088Y03585D02*
X08839D01*
X0882Y03565D02*
Y03604D01*
X088Y03685D02*
X08839D01*
X0882Y03665D02*
Y03704D01*
X088Y03785D02*
X08839D01*
X0882Y03765D02*
Y03804D01*
X088Y03885D02*
X08839D01*
X0882Y03865D02*
Y03904D01*
X088Y03985D02*
X08839D01*
X0882Y03965D02*
Y04004D01*
X088Y04085D02*
X08839D01*
X0882Y04065D02*
Y04104D01*
X088Y04185D02*
X08839D01*
X0882Y04165D02*
Y04204D01*
X088Y04285D02*
X08839D01*
X0882Y04265D02*
Y04304D01*
X088Y04385D02*
X08839D01*
X0882Y04365D02*
Y04404D01*
X088Y04485D02*
X08839D01*
X0882Y04465D02*
Y04504D01*
X088Y04585D02*
X08839D01*
X0882Y04565D02*
Y04604D01*
X088Y04685D02*
X08839D01*
X0882Y04665D02*
Y04704D01*
X088Y04785D02*
X08839D01*
X0882Y04765D02*
Y04804D01*
X088Y04885D02*
X08839D01*
X0882Y04865D02*
Y04904D01*
X088Y04985D02*
X08839D01*
X0882Y04965D02*
Y05004D01*
X088Y05085D02*
X08839D01*
X0882Y05065D02*
Y05104D01*
X088Y05185D02*
X08839D01*
X0882Y05165D02*
Y05204D01*
X088Y05285D02*
X08839D01*
X0882Y05265D02*
Y05304D01*
X088Y05385D02*
X08839D01*
X0882Y05365D02*
Y05404D01*
X088Y05485D02*
X08839D01*
X0882Y05465D02*
Y05504D01*
X088Y05584D02*
X08839D01*
X0882Y05565D02*
Y05604D01*
X088Y05685D02*
X08839D01*
X0882Y05665D02*
Y05704D01*
X088Y05785D02*
X08839D01*
X0882Y05765D02*
Y05804D01*
X088Y05885D02*
X08839D01*
X0882Y05865D02*
Y05904D01*
X088Y05985D02*
X08839D01*
X0882Y05965D02*
Y06004D01*
X088Y06085D02*
X08839D01*
X0882Y06065D02*
Y06104D01*
X088Y06185D02*
X08839D01*
X0882Y06165D02*
Y06204D01*
X102Y03085D02*
X10239D01*
X1022Y03065D02*
Y03104D01*
X102Y03185D02*
X10239D01*
X1022Y03165D02*
Y03204D01*
X102Y03285D02*
X10239D01*
X1022Y03265D02*
Y03304D01*
X102Y03385D02*
X10239D01*
X1022Y03365D02*
Y03404D01*
X102Y03485D02*
X10239D01*
X1022Y03465D02*
Y03504D01*
X102Y03585D02*
X10239D01*
X1022Y03565D02*
Y03604D01*
X102Y03685D02*
X10239D01*
X1022Y03665D02*
Y03704D01*
X102Y03785D02*
X10239D01*
X1022Y03765D02*
Y03804D01*
X102Y03885D02*
X10239D01*
X1022Y03865D02*
Y03904D01*
X102Y03985D02*
X10239D01*
X1022Y03965D02*
Y04004D01*
X102Y04085D02*
X10239D01*
X1022Y04065D02*
Y04104D01*
X102Y04185D02*
X10239D01*
X1022Y04165D02*
Y04204D01*
X102Y04285D02*
X10239D01*
X1022Y04265D02*
Y04304D01*
X102Y04385D02*
X10239D01*
X1022Y04365D02*
Y04404D01*
X102Y04485D02*
X10239D01*
X1022Y04465D02*
Y04504D01*
X102Y04585D02*
X10239D01*
X1022Y04565D02*
Y04604D01*
X102Y04685D02*
X10239D01*
X1022Y04665D02*
Y04704D01*
X102Y04785D02*
X10239D01*
X1022Y04765D02*
Y04804D01*
X102Y04885D02*
X10239D01*
X1022Y04865D02*
Y04904D01*
X102Y04985D02*
X10239D01*
X1022Y04965D02*
Y05004D01*
X102Y05085D02*
X10239D01*
X1022Y05065D02*
Y05104D01*
X102Y05185D02*
X10239D01*
X1022Y05165D02*
Y05204D01*
X102Y05285D02*
X10239D01*
X1022Y05265D02*
Y05304D01*
X102Y05385D02*
X10239D01*
X1022Y05365D02*
Y05404D01*
X102Y05485D02*
X10239D01*
X1022Y05465D02*
Y05504D01*
X102Y05584D02*
X10239D01*
X1022Y05565D02*
Y05604D01*
X102Y05685D02*
X10239D01*
X1022Y05665D02*
Y05704D01*
X102Y05785D02*
X10239D01*
X1022Y05765D02*
Y05804D01*
X102Y05885D02*
X10239D01*
X1022Y05865D02*
Y05904D01*
X102Y05985D02*
X10239D01*
X1022Y05965D02*
Y06004D01*
X102Y06085D02*
X10239D01*
X1022Y06065D02*
Y06104D01*
X102Y06185D02*
X10239D01*
X1022Y06165D02*
Y06204D01*
X104Y03085D02*
X10439D01*
X1042Y03065D02*
Y03104D01*
X104Y03185D02*
X10439D01*
X1042Y03165D02*
Y03204D01*
X104Y03285D02*
X10439D01*
X1042Y03265D02*
Y03304D01*
X104Y03385D02*
X10439D01*
X1042Y03365D02*
Y03404D01*
X104Y03485D02*
X10439D01*
X1042Y03465D02*
Y03504D01*
X104Y03585D02*
X10439D01*
X1042Y03565D02*
Y03604D01*
X104Y03685D02*
X10439D01*
X1042Y03665D02*
Y03704D01*
X104Y03785D02*
X10439D01*
X1042Y03765D02*
Y03804D01*
X104Y03885D02*
X10439D01*
X1042Y03865D02*
Y03904D01*
X104Y03985D02*
X10439D01*
X1042Y03965D02*
Y04004D01*
X104Y04085D02*
X10439D01*
X1042Y04065D02*
Y04104D01*
X104Y04185D02*
X10439D01*
X1042Y04165D02*
Y04204D01*
X104Y04285D02*
X10439D01*
X1042Y04265D02*
Y04304D01*
X104Y04385D02*
X10439D01*
X1042Y04365D02*
Y04404D01*
X104Y04485D02*
X10439D01*
X1042Y04465D02*
Y04504D01*
X104Y04585D02*
X10439D01*
X1042Y04565D02*
Y04604D01*
X104Y04685D02*
X10439D01*
X1042Y04665D02*
Y04704D01*
X104Y04785D02*
X10439D01*
X1042Y04765D02*
Y04804D01*
X104Y04885D02*
X10439D01*
X1042Y04865D02*
Y04904D01*
X104Y04985D02*
X10439D01*
X1042Y04965D02*
Y05004D01*
X104Y05085D02*
X10439D01*
X1042Y05065D02*
Y05104D01*
X104Y05185D02*
X10439D01*
X1042Y05165D02*
Y05204D01*
X104Y05285D02*
X10439D01*
X1042Y05265D02*
Y05304D01*
X104Y05385D02*
X10439D01*
X1042Y05365D02*
Y05404D01*
X104Y05485D02*
X10439D01*
X1042Y05465D02*
Y05504D01*
X104Y05584D02*
X10439D01*
X1042Y05565D02*
Y05604D01*
X104Y05685D02*
X10439D01*
X1042Y05665D02*
Y05704D01*
X104Y05785D02*
X10439D01*
X1042Y05765D02*
Y05804D01*
X104Y05885D02*
X10439D01*
X1042Y05865D02*
Y05904D01*
X104Y05985D02*
X10439D01*
X1042Y05965D02*
Y06004D01*
X104Y06085D02*
X10439D01*
X1042Y06065D02*
Y06104D01*
X104Y06185D02*
X10439D01*
X1042Y06165D02*
Y06204D01*
X118Y03085D02*
X11839D01*
X1182Y03065D02*
Y03104D01*
X118Y03185D02*
X11839D01*
X1182Y03165D02*
Y03204D01*
X118Y03285D02*
X11839D01*
X1182Y03265D02*
Y03304D01*
X118Y03385D02*
X11839D01*
X1182Y03365D02*
Y03404D01*
X118Y03485D02*
X11839D01*
X1182Y03465D02*
Y03504D01*
X118Y03585D02*
X11839D01*
X1182Y03565D02*
Y03604D01*
X118Y03685D02*
X11839D01*
X1182Y03665D02*
Y03704D01*
X118Y03785D02*
X11839D01*
X1182Y03765D02*
Y03804D01*
X118Y03885D02*
X11839D01*
X1182Y03865D02*
Y03904D01*
X118Y03985D02*
X11839D01*
X1182Y03965D02*
Y04004D01*
X118Y04085D02*
X11839D01*
X1182Y04065D02*
Y04104D01*
X118Y04185D02*
X11839D01*
X1182Y04165D02*
Y04204D01*
X118Y04285D02*
X11839D01*
X1182Y04265D02*
Y04304D01*
X118Y04385D02*
X11839D01*
X1182Y04365D02*
Y04404D01*
X118Y04485D02*
X11839D01*
X1182Y04465D02*
Y04504D01*
X118Y04585D02*
X11839D01*
X1182Y04565D02*
Y04604D01*
X118Y04685D02*
X11839D01*
X1182Y04665D02*
Y04704D01*
X118Y04785D02*
X11839D01*
X1182Y04765D02*
Y04804D01*
X118Y04885D02*
X11839D01*
X1182Y04865D02*
Y04904D01*
X118Y04985D02*
X11839D01*
X1182Y04965D02*
Y05004D01*
X118Y05085D02*
X11839D01*
X1182Y05065D02*
Y05104D01*
X118Y05185D02*
X11839D01*
X1182Y05165D02*
Y05204D01*
X118Y05285D02*
X11839D01*
X1182Y05265D02*
Y05304D01*
X118Y05385D02*
X11839D01*
X1182Y05365D02*
Y05404D01*
X118Y05485D02*
X11839D01*
X1182Y05465D02*
Y05504D01*
X118Y05584D02*
X11839D01*
X1182Y05565D02*
Y05604D01*
X118Y05685D02*
X11839D01*
X1182Y05665D02*
Y05704D01*
X118Y05785D02*
X11839D01*
X1182Y05765D02*
Y05804D01*
X118Y05885D02*
X11839D01*
X1182Y05865D02*
Y05904D01*
X118Y05985D02*
X11839D01*
X1182Y05965D02*
Y06004D01*
X118Y06085D02*
X11839D01*
X1182Y06065D02*
Y06104D01*
X118Y06185D02*
X11839D01*
X1182Y06165D02*
Y06204D01*
X12Y03085D02*
X12039D01*
X1202Y03065D02*
Y03104D01*
X12Y03185D02*
X12039D01*
X1202Y03165D02*
Y03204D01*
X12Y03285D02*
X12039D01*
X1202Y03265D02*
Y03304D01*
X12Y03385D02*
X12039D01*
X1202Y03365D02*
Y03404D01*
X12Y03485D02*
X12039D01*
X1202Y03465D02*
Y03504D01*
X12Y03585D02*
X12039D01*
X1202Y03565D02*
Y03604D01*
X12Y03685D02*
X12039D01*
X1202Y03665D02*
Y03704D01*
X12Y03785D02*
X12039D01*
X1202Y03765D02*
Y03804D01*
X12Y03885D02*
X12039D01*
X1202Y03865D02*
Y03904D01*
X12Y03985D02*
X12039D01*
X1202Y03965D02*
Y04004D01*
X12Y04085D02*
X12039D01*
X1202Y04065D02*
Y04104D01*
X12Y04185D02*
X12039D01*
X1202Y04165D02*
Y04204D01*
X12Y04285D02*
X12039D01*
X1202Y04265D02*
Y04304D01*
X12Y04385D02*
X12039D01*
X1202Y04365D02*
Y04404D01*
X12Y04485D02*
X12039D01*
X1202Y04465D02*
Y04504D01*
X12Y04585D02*
X12039D01*
X1202Y04565D02*
Y04604D01*
X12Y04685D02*
X12039D01*
X1202Y04665D02*
Y04704D01*
X12Y04785D02*
X12039D01*
X1202Y04765D02*
Y04804D01*
X12Y04885D02*
X12039D01*
X1202Y04865D02*
Y04904D01*
X12Y04985D02*
X12039D01*
X1202Y04965D02*
Y05004D01*
X12Y05085D02*
X12039D01*
X1202Y05065D02*
Y05104D01*
X12Y05185D02*
X12039D01*
X1202Y05165D02*
Y05204D01*
X12Y05285D02*
X12039D01*
X1202Y05265D02*
Y05304D01*
X12Y05385D02*
X12039D01*
X1202Y05365D02*
Y05404D01*
X12Y05485D02*
X12039D01*
X1202Y05465D02*
Y05504D01*
X12Y05584D02*
X12039D01*
X1202Y05565D02*
Y05604D01*
X12Y05685D02*
X12039D01*
X1202Y05665D02*
Y05704D01*
X12Y05785D02*
X12039D01*
X1202Y05765D02*
Y05804D01*
X12Y05885D02*
X12039D01*
X1202Y05865D02*
Y05904D01*
X12Y05985D02*
X12039D01*
X1202Y05965D02*
Y06004D01*
X12Y06085D02*
X12039D01*
X1202Y06065D02*
Y06104D01*
X12Y06185D02*
X12039D01*
X1202Y06165D02*
Y06204D01*
X134Y03085D02*
X13439D01*
X1342Y03065D02*
Y03104D01*
X134Y03185D02*
X13439D01*
X1342Y03165D02*
Y03204D01*
X134Y03285D02*
X13439D01*
X1342Y03265D02*
Y03304D01*
X134Y03385D02*
X13439D01*
X1342Y03365D02*
Y03404D01*
X134Y03485D02*
X13439D01*
X1342Y03465D02*
Y03504D01*
X134Y03585D02*
X13439D01*
X1342Y03565D02*
Y03604D01*
X134Y03685D02*
X13439D01*
X1342Y03665D02*
Y03704D01*
X134Y03785D02*
X13439D01*
X1342Y03765D02*
Y03804D01*
X134Y03885D02*
X13439D01*
X1342Y03865D02*
Y03904D01*
X134Y03985D02*
X13439D01*
X1342Y03965D02*
Y04004D01*
X134Y04085D02*
X13439D01*
X1342Y04065D02*
Y04104D01*
X134Y04185D02*
X13439D01*
X1342Y04165D02*
Y04204D01*
X134Y04285D02*
X13439D01*
X1342Y04265D02*
Y04304D01*
X134Y04385D02*
X13439D01*
X1342Y04365D02*
Y04404D01*
X134Y04485D02*
X13439D01*
X1342Y04465D02*
Y04504D01*
X134Y04585D02*
X13439D01*
X1342Y04565D02*
Y04604D01*
X134Y04685D02*
X13439D01*
X1342Y04665D02*
Y04704D01*
X134Y04785D02*
X13439D01*
X1342Y04765D02*
Y04804D01*
X134Y04885D02*
X13439D01*
X1342Y04865D02*
Y04904D01*
X134Y04985D02*
X13439D01*
X1342Y04965D02*
Y05004D01*
X134Y05085D02*
X13439D01*
X1342Y05065D02*
Y05104D01*
X134Y05185D02*
X13439D01*
X1342Y05165D02*
Y05204D01*
X134Y05285D02*
X13439D01*
X1342Y05265D02*
Y05304D01*
X134Y05385D02*
X13439D01*
X1342Y05365D02*
Y05404D01*
X134Y05485D02*
X13439D01*
X1342Y05465D02*
Y05504D01*
X134Y05584D02*
X13439D01*
X1342Y05565D02*
Y05604D01*
X134Y05685D02*
X13439D01*
X1342Y05665D02*
Y05704D01*
X134Y05785D02*
X13439D01*
X1342Y05765D02*
Y05804D01*
X134Y05885D02*
X13439D01*
X1342Y05865D02*
Y05904D01*
X134Y05985D02*
X13439D01*
X1342Y05965D02*
Y06004D01*
X134Y06085D02*
X13439D01*
X1342Y06065D02*
Y06104D01*
X134Y06185D02*
X13439D01*
X1342Y06165D02*
Y06204D01*
X136Y03085D02*
X13639D01*
X1362Y03065D02*
Y03104D01*
X136Y03185D02*
X13639D01*
X1362Y03165D02*
Y03204D01*
X136Y03285D02*
X13639D01*
X1362Y03265D02*
Y03304D01*
X136Y03385D02*
X13639D01*
X1362Y03365D02*
Y03404D01*
X136Y03485D02*
X13639D01*
X1362Y03465D02*
Y03504D01*
X136Y03585D02*
X13639D01*
X1362Y03565D02*
Y03604D01*
X136Y03685D02*
X13639D01*
X1362Y03665D02*
Y03704D01*
X136Y03785D02*
X13639D01*
X1362Y03765D02*
Y03804D01*
X136Y03885D02*
X13639D01*
X1362Y03865D02*
Y03904D01*
X136Y03985D02*
X13639D01*
X1362Y03965D02*
Y04004D01*
X136Y04085D02*
X13639D01*
X1362Y04065D02*
Y04104D01*
X136Y04185D02*
X13639D01*
X1362Y04165D02*
Y04204D01*
X136Y04285D02*
X13639D01*
X1362Y04265D02*
Y04304D01*
X136Y04385D02*
X13639D01*
X1362Y04365D02*
Y04404D01*
X136Y04485D02*
X13639D01*
X1362Y04465D02*
Y04504D01*
X136Y04585D02*
X13639D01*
X1362Y04565D02*
Y04604D01*
X136Y04685D02*
X13639D01*
X1362Y04665D02*
Y04704D01*
X136Y04785D02*
X13639D01*
X1362Y04765D02*
Y04804D01*
X136Y04885D02*
X13639D01*
X1362Y04865D02*
Y04904D01*
X136Y04985D02*
X13639D01*
X1362Y04965D02*
Y05004D01*
X136Y05085D02*
X13639D01*
X1362Y05065D02*
Y05104D01*
X136Y05185D02*
X13639D01*
X1362Y05165D02*
Y05204D01*
X136Y05285D02*
X13639D01*
X1362Y05265D02*
Y05304D01*
X136Y05385D02*
X13639D01*
X1362Y05365D02*
Y05404D01*
X136Y05485D02*
X13639D01*
X1362Y05465D02*
Y05504D01*
X136Y05584D02*
X13639D01*
X1362Y05565D02*
Y05604D01*
X136Y05685D02*
X13639D01*
X1362Y05665D02*
Y05704D01*
X136Y05785D02*
X13639D01*
X1362Y05765D02*
Y05804D01*
X136Y05885D02*
X13639D01*
X1362Y05865D02*
Y05904D01*
X136Y05985D02*
X13639D01*
X1362Y05965D02*
Y06004D01*
X136Y06085D02*
X13639D01*
X1362Y06065D02*
Y06104D01*
X136Y06185D02*
X13639D01*
X1362Y06165D02*
Y06204D01*
X15Y03085D02*
X15039D01*
X1502Y03065D02*
Y03104D01*
X15Y03185D02*
X15039D01*
X1502Y03165D02*
Y03204D01*
X15Y03285D02*
X15039D01*
X1502Y03265D02*
Y03304D01*
X15Y03385D02*
X15039D01*
X1502Y03365D02*
Y03404D01*
X15Y03485D02*
X15039D01*
X1502Y03465D02*
Y03504D01*
X15Y03585D02*
X15039D01*
X1502Y03565D02*
Y03604D01*
X15Y03685D02*
X15039D01*
X1502Y03665D02*
Y03704D01*
X15Y03785D02*
X15039D01*
X1502Y03765D02*
Y03804D01*
X15Y03885D02*
X15039D01*
X1502Y03865D02*
Y03904D01*
X15Y03985D02*
X15039D01*
X1502Y03965D02*
Y04004D01*
X15Y04085D02*
X15039D01*
X1502Y04065D02*
Y04104D01*
X15Y04185D02*
X15039D01*
X1502Y04165D02*
Y04204D01*
X15Y04285D02*
X15039D01*
X1502Y04265D02*
Y04304D01*
X15Y04385D02*
X15039D01*
X1502Y04365D02*
Y04404D01*
X15Y04485D02*
X15039D01*
X1502Y04465D02*
Y04504D01*
X15Y04585D02*
X15039D01*
X1502Y04565D02*
Y04604D01*
X15Y04685D02*
X15039D01*
X1502Y04665D02*
Y04704D01*
X15Y04785D02*
X15039D01*
X1502Y04765D02*
Y04804D01*
X15Y04885D02*
X15039D01*
X1502Y04865D02*
Y04904D01*
X15Y04985D02*
X15039D01*
X1502Y04965D02*
Y05004D01*
X15Y05085D02*
X15039D01*
X1502Y05065D02*
Y05104D01*
X15Y05185D02*
X15039D01*
X1502Y05165D02*
Y05204D01*
X15Y05285D02*
X15039D01*
X1502Y05265D02*
Y05304D01*
X15Y05385D02*
X15039D01*
X1502Y05365D02*
Y05404D01*
X15Y05485D02*
X15039D01*
X1502Y05465D02*
Y05504D01*
X15Y05584D02*
X15039D01*
X1502Y05565D02*
Y05604D01*
X15Y05685D02*
X15039D01*
X1502Y05665D02*
Y05704D01*
X15Y05785D02*
X15039D01*
X1502Y05765D02*
Y05804D01*
X15Y05885D02*
X15039D01*
X1502Y05865D02*
Y05904D01*
X15Y05985D02*
X15039D01*
X1502Y05965D02*
Y06004D01*
X15Y06085D02*
X15039D01*
X1502Y06065D02*
Y06104D01*
X15Y06185D02*
X15039D01*
X1502Y06165D02*
Y06204D01*
X152Y03085D02*
X15239D01*
X1522Y03065D02*
Y03104D01*
X152Y03185D02*
X15239D01*
X1522Y03165D02*
Y03204D01*
X152Y03285D02*
X15239D01*
X1522Y03265D02*
Y03304D01*
X152Y03385D02*
X15239D01*
X1522Y03365D02*
Y03404D01*
X152Y03485D02*
X15239D01*
X1522Y03465D02*
Y03504D01*
X152Y03585D02*
X15239D01*
X1522Y03565D02*
Y03604D01*
X152Y03685D02*
X15239D01*
X1522Y03665D02*
Y03704D01*
X152Y03785D02*
X15239D01*
X1522Y03765D02*
Y03804D01*
X152Y03885D02*
X15239D01*
X1522Y03865D02*
Y03904D01*
X152Y03985D02*
X15239D01*
X1522Y03965D02*
Y04004D01*
X152Y04085D02*
X15239D01*
X1522Y04065D02*
Y04104D01*
X152Y04185D02*
X15239D01*
X1522Y04165D02*
Y04204D01*
X152Y04285D02*
X15239D01*
X1522Y04265D02*
Y04304D01*
X152Y04385D02*
X15239D01*
X1522Y04365D02*
Y04404D01*
X152Y04485D02*
X15239D01*
X1522Y04465D02*
Y04504D01*
X152Y04585D02*
X15239D01*
X1522Y04565D02*
Y04604D01*
X152Y04685D02*
X15239D01*
X1522Y04665D02*
Y04704D01*
X152Y04785D02*
X15239D01*
X1522Y04765D02*
Y04804D01*
X152Y04885D02*
X15239D01*
X1522Y04865D02*
Y04904D01*
X152Y04985D02*
X15239D01*
X1522Y04965D02*
Y05004D01*
X152Y05085D02*
X15239D01*
X1522Y05065D02*
Y05104D01*
X152Y05185D02*
X15239D01*
X1522Y05165D02*
Y05204D01*
X152Y05285D02*
X15239D01*
X1522Y05265D02*
Y05304D01*
X152Y05385D02*
X15239D01*
X1522Y05365D02*
Y05404D01*
X152Y05485D02*
X15239D01*
X1522Y05465D02*
Y05504D01*
X152Y05584D02*
X15239D01*
X1522Y05565D02*
Y05604D01*
X152Y05685D02*
X15239D01*
X1522Y05665D02*
Y05704D01*
X152Y05785D02*
X15239D01*
X1522Y05765D02*
Y05804D01*
X152Y05885D02*
X15239D01*
X1522Y05865D02*
Y05904D01*
X152Y05985D02*
X15239D01*
X1522Y05965D02*
Y06004D01*
X152Y06085D02*
X15239D01*
X1522Y06065D02*
Y06104D01*
X152Y06185D02*
X15239D01*
X1522Y06165D02*
Y06204D01*
X166Y03085D02*
X16639D01*
X1662Y03065D02*
Y03104D01*
X166Y03185D02*
X16639D01*
X1662Y03165D02*
Y03204D01*
X166Y03285D02*
X16639D01*
X1662Y03265D02*
Y03304D01*
X166Y03385D02*
X16639D01*
X1662Y03365D02*
Y03404D01*
X166Y03485D02*
X16639D01*
X1662Y03465D02*
Y03504D01*
X166Y03585D02*
X16639D01*
X1662Y03565D02*
Y03604D01*
X166Y03685D02*
X16639D01*
X1662Y03665D02*
Y03704D01*
X166Y03785D02*
X16639D01*
X1662Y03765D02*
Y03804D01*
X166Y03885D02*
X16639D01*
X1662Y03865D02*
Y03904D01*
X166Y03985D02*
X16639D01*
X1662Y03965D02*
Y04004D01*
X166Y04085D02*
X16639D01*
X1662Y04065D02*
Y04104D01*
X166Y04185D02*
X16639D01*
X1662Y04165D02*
Y04204D01*
X166Y04285D02*
X16639D01*
X1662Y04265D02*
Y04304D01*
X166Y04385D02*
X16639D01*
X1662Y04365D02*
Y04404D01*
X166Y04485D02*
X16639D01*
X1662Y04465D02*
Y04504D01*
X166Y04585D02*
X16639D01*
X1662Y04565D02*
Y04604D01*
X166Y04685D02*
X16639D01*
X1662Y04665D02*
Y04704D01*
X166Y04785D02*
X16639D01*
X1662Y04765D02*
Y04804D01*
X166Y04885D02*
X16639D01*
X1662Y04865D02*
Y04904D01*
X166Y04985D02*
X16639D01*
X1662Y04965D02*
Y05004D01*
X166Y05085D02*
X16639D01*
X1662Y05065D02*
Y05104D01*
X166Y05185D02*
X16639D01*
X1662Y05165D02*
Y05204D01*
X166Y05285D02*
X16639D01*
X1662Y05265D02*
Y05304D01*
X166Y05385D02*
X16639D01*
X1662Y05365D02*
Y05404D01*
X166Y05485D02*
X16639D01*
X1662Y05465D02*
Y05504D01*
X166Y05584D02*
X16639D01*
X1662Y05565D02*
Y05604D01*
X166Y05685D02*
X16639D01*
X1662Y05665D02*
Y05704D01*
X166Y05785D02*
X16639D01*
X1662Y05765D02*
Y05804D01*
X166Y05885D02*
X16639D01*
X1662Y05865D02*
Y05904D01*
X166Y05985D02*
X16639D01*
X1662Y05965D02*
Y06004D01*
X166Y06085D02*
X16639D01*
X1662Y06065D02*
Y06104D01*
X166Y06185D02*
X16639D01*
X1662Y06165D02*
Y06204D01*
X168Y03085D02*
X16839D01*
X1682Y03065D02*
Y03104D01*
X168Y03185D02*
X16839D01*
X1682Y03165D02*
Y03204D01*
X168Y03285D02*
X16839D01*
X1682Y03265D02*
Y03304D01*
X168Y03385D02*
X16839D01*
X1682Y03365D02*
Y03404D01*
X168Y03485D02*
X16839D01*
X1682Y03465D02*
Y03504D01*
X168Y03585D02*
X16839D01*
X1682Y03565D02*
Y03604D01*
X168Y03685D02*
X16839D01*
X1682Y03665D02*
Y03704D01*
X168Y03785D02*
X16839D01*
X1682Y03765D02*
Y03804D01*
X168Y03885D02*
X16839D01*
X1682Y03865D02*
Y03904D01*
X168Y03985D02*
X16839D01*
X1682Y03965D02*
Y04004D01*
X168Y04085D02*
X16839D01*
X1682Y04065D02*
Y04104D01*
X168Y04185D02*
X16839D01*
X1682Y04165D02*
Y04204D01*
X168Y04285D02*
X16839D01*
X1682Y04265D02*
Y04304D01*
X168Y04385D02*
X16839D01*
X1682Y04365D02*
Y04404D01*
X168Y04485D02*
X16839D01*
X1682Y04465D02*
Y04504D01*
X168Y04585D02*
X16839D01*
X1682Y04565D02*
Y04604D01*
X168Y04685D02*
X16839D01*
X1682Y04665D02*
Y04704D01*
X168Y04785D02*
X16839D01*
X1682Y04765D02*
Y04804D01*
X168Y04885D02*
X16839D01*
X1682Y04865D02*
Y04904D01*
X168Y04985D02*
X16839D01*
X1682Y04965D02*
Y05004D01*
X168Y05085D02*
X16839D01*
X1682Y05065D02*
Y05104D01*
X168Y05185D02*
X16839D01*
X1682Y05165D02*
Y05204D01*
X168Y05285D02*
X16839D01*
X1682Y05265D02*
Y05304D01*
X168Y05385D02*
X16839D01*
X1682Y05365D02*
Y05404D01*
X168Y05485D02*
X16839D01*
X1682Y05465D02*
Y05504D01*
X168Y05584D02*
X16839D01*
X1682Y05565D02*
Y05604D01*
X168Y05685D02*
X16839D01*
X1682Y05665D02*
Y05704D01*
X168Y05785D02*
X16839D01*
X1682Y05765D02*
Y05804D01*
X168Y05885D02*
X16839D01*
X1682Y05865D02*
Y05904D01*
X168Y05985D02*
X16839D01*
X1682Y05965D02*
Y06004D01*
X168Y06085D02*
X16839D01*
X1682Y06065D02*
Y06104D01*
X168Y06185D02*
X16839D01*
X1682Y06165D02*
Y06204D01*
X02844Y05122D02*
X02935D01*
X02889Y05077D02*
Y05168D01*
X02844Y05597D02*
X02935D01*
X02889Y05551D02*
Y05642D01*
X02978Y0531D02*
X03014D01*
X02996Y05292D02*
Y05328D01*
X02978Y05409D02*
X03014D01*
X02996Y05391D02*
Y05427D01*
X02851Y05409D02*
X02888D01*
X0287Y05391D02*
Y05427D01*
X02851Y0531D02*
X02888D01*
X0287Y05292D02*
Y05328D01*
X02278Y07041D02*
X02381D01*
X0233Y06989D02*
Y07092D01*
X02678Y07041D02*
X02781D01*
X0273Y06989D02*
Y07092D01*
X03078Y07041D02*
X03181D01*
X0313Y06989D02*
Y07092D01*
X03478Y07041D02*
X03581D01*
X0353Y06989D02*
Y07092D01*
X03878Y07041D02*
X03981D01*
X0393Y06989D02*
Y07092D01*
X04278Y07041D02*
X04381D01*
X0433Y06989D02*
Y07092D01*
X04678Y07041D02*
X04781D01*
X0473Y06989D02*
Y07092D01*
X05078Y07041D02*
X05181D01*
X0513Y06989D02*
Y07092D01*
X05478Y07041D02*
X05581D01*
X0553Y06989D02*
Y07092D01*
X05878Y07041D02*
X05981D01*
X05929Y06989D02*
Y07092D01*
X06278Y07041D02*
X06381D01*
X0633Y06989D02*
Y07092D01*
X06678Y07041D02*
X06781D01*
X0673Y06989D02*
Y07092D01*
X07078Y07041D02*
X07181D01*
X0713Y06989D02*
Y07092D01*
X07478Y07041D02*
X07581D01*
X07529Y06989D02*
Y07092D01*
X07878Y07041D02*
X07981D01*
X0793Y06989D02*
Y07092D01*
X08278Y07041D02*
X08381D01*
X0833Y06989D02*
Y07092D01*
X08678Y07041D02*
X08781D01*
X0873Y06989D02*
Y07092D01*
X09078Y07041D02*
X09181D01*
X09129Y06989D02*
Y07092D01*
X09478Y07041D02*
X09581D01*
X0953Y06989D02*
Y07092D01*
X09878Y07041D02*
X09981D01*
X0993Y06989D02*
Y07092D01*
X10278Y07041D02*
X10381D01*
X10329Y06989D02*
Y07092D01*
X10678Y07041D02*
X10781D01*
X10729Y06989D02*
Y07092D01*
X11078Y07041D02*
X11181D01*
X1113Y06989D02*
Y07092D01*
X11478Y07041D02*
X11581D01*
X1153Y06989D02*
Y07092D01*
X11878Y07041D02*
X11981D01*
X1193Y06989D02*
Y07092D01*
X12278Y07041D02*
X12381D01*
X1233Y06989D02*
Y07092D01*
X12678Y07041D02*
X12781D01*
X1273Y06989D02*
Y07092D01*
X13078Y07041D02*
X13181D01*
X1313Y06989D02*
Y07092D01*
X13478Y07041D02*
X13581D01*
X13529Y06989D02*
Y07092D01*
X13878Y07041D02*
X13981D01*
X13929Y06989D02*
Y07092D01*
X14278Y07041D02*
X14381D01*
X14329Y06989D02*
Y07092D01*
X14678Y07041D02*
X14781D01*
X1473Y06989D02*
Y07092D01*
X15078Y07041D02*
X15181D01*
X1513Y06989D02*
Y07092D01*
X15478Y07041D02*
X15581D01*
X1553Y06989D02*
Y07092D01*
X15878Y07041D02*
X15981D01*
X1593Y06989D02*
Y07092D01*
X16278Y07041D02*
X16381D01*
X1633Y06989D02*
Y07092D01*
X16678Y07041D02*
X16781D01*
X16729Y06989D02*
Y07092D01*
X17078Y07041D02*
X17181D01*
X17129Y06989D02*
Y07092D01*
X17478Y07041D02*
X17581D01*
X17529Y06989D02*
Y07092D01*
X17878Y07041D02*
X17981D01*
X1793Y06989D02*
Y07092D01*
X18278Y07041D02*
X18381D01*
X1833Y06989D02*
Y07092D01*
X02078Y07039D02*
X02181D01*
X0213Y06988D02*
Y07091D01*
X02478Y07039D02*
X02581D01*
X0253Y06988D02*
Y07091D01*
X02878Y07039D02*
X02981D01*
X0293Y06988D02*
Y07091D01*
X03278Y07039D02*
X03381D01*
X0333Y06988D02*
Y07091D01*
X03678Y07039D02*
X03781D01*
X0373Y06988D02*
Y07091D01*
X04078Y07039D02*
X04181D01*
X0413Y06988D02*
Y07091D01*
X04478Y07039D02*
X04581D01*
X0453Y06988D02*
Y07091D01*
X04878Y07039D02*
X04981D01*
X0493Y06988D02*
Y07091D01*
X05278Y07039D02*
X05381D01*
X0533Y06988D02*
Y07091D01*
X05678Y07039D02*
X05781D01*
X0573Y06988D02*
Y07091D01*
X06078Y07039D02*
X06181D01*
X0613Y06988D02*
Y07091D01*
X06478Y07039D02*
X06581D01*
X0653Y06988D02*
Y07091D01*
X06878Y07039D02*
X06981D01*
X0693Y06988D02*
Y07091D01*
X07278Y07039D02*
X07381D01*
X0733Y06988D02*
Y07091D01*
X07678Y07039D02*
X07781D01*
X0773Y06988D02*
Y07091D01*
X08078Y07039D02*
X08181D01*
X0813Y06988D02*
Y07091D01*
X08478Y07039D02*
X08581D01*
X0853Y06988D02*
Y07091D01*
X08878Y07039D02*
X08981D01*
X0893Y06988D02*
Y07091D01*
X09278Y07039D02*
X09381D01*
X09329Y06988D02*
Y07091D01*
X09678Y07039D02*
X09781D01*
X0973Y06988D02*
Y07091D01*
X10078Y07039D02*
X10181D01*
X1013Y06988D02*
Y07091D01*
X10478Y07039D02*
X10581D01*
X1053Y06988D02*
Y07091D01*
X10878Y07039D02*
X10981D01*
X1093Y06988D02*
Y07091D01*
X11278Y07039D02*
X11381D01*
X1133Y06988D02*
Y07091D01*
X11678Y07039D02*
X11781D01*
X11729Y06988D02*
Y07091D01*
X12078Y07039D02*
X12181D01*
X12129Y06988D02*
Y07091D01*
X12478Y07039D02*
X12581D01*
X12529Y06988D02*
Y07091D01*
X12878Y07039D02*
X12981D01*
X1293Y06988D02*
Y07091D01*
X13278Y07039D02*
X13381D01*
X1333Y06988D02*
Y07091D01*
X13678Y07039D02*
X13781D01*
X1373Y06988D02*
Y07091D01*
X14078Y07039D02*
X14181D01*
X1413Y06988D02*
Y07091D01*
X14478Y07039D02*
X14581D01*
X1453Y06988D02*
Y07091D01*
X14878Y07039D02*
X14981D01*
X14929Y06988D02*
Y07091D01*
X15278Y07039D02*
X15381D01*
X15329Y06988D02*
Y07091D01*
X15678Y07039D02*
X15781D01*
X15729Y06988D02*
Y07091D01*
X16078Y07039D02*
X16181D01*
X1613Y06988D02*
Y07091D01*
X16478Y07039D02*
X16581D01*
X1653Y06988D02*
Y07091D01*
X16878Y07039D02*
X16981D01*
X1693Y06988D02*
Y07091D01*
X17278Y07039D02*
X17381D01*
X1733Y06988D02*
Y07091D01*
X17678Y07039D02*
X17781D01*
X1773Y06988D02*
Y07091D01*
X18078Y07039D02*
X18181D01*
X1813Y06988D02*
Y07091D01*
X01878Y02229D02*
X01981D01*
X0193Y02177D02*
Y0228D01*
X02278Y02229D02*
X02381D01*
X0233Y02177D02*
Y0228D01*
X02678Y02229D02*
X02781D01*
X0273Y02177D02*
Y0228D01*
X03078Y02229D02*
X03181D01*
X0313Y02177D02*
Y0228D01*
X03478Y02229D02*
X03581D01*
X0353Y02177D02*
Y0228D01*
X03878Y02229D02*
X03981D01*
X0393Y02177D02*
Y0228D01*
X04278Y02229D02*
X04381D01*
X0433Y02177D02*
Y0228D01*
X04678Y02229D02*
X04781D01*
X0473Y02177D02*
Y0228D01*
X05078Y02229D02*
X05181D01*
X0513Y02177D02*
Y0228D01*
X05478Y02229D02*
X05581D01*
X0553Y02177D02*
Y0228D01*
X05878Y02229D02*
X05981D01*
X05929Y02177D02*
Y0228D01*
X06278Y02229D02*
X06381D01*
X0633Y02177D02*
Y0228D01*
X06678Y02229D02*
X06781D01*
X0673Y02177D02*
Y0228D01*
X07078Y02229D02*
X07181D01*
X0713Y02177D02*
Y0228D01*
X07478Y02229D02*
X07581D01*
X07529Y02177D02*
Y0228D01*
X07878Y02229D02*
X07981D01*
X0793Y02177D02*
Y0228D01*
X08278Y02229D02*
X08381D01*
X0833Y02177D02*
Y0228D01*
X08678Y02229D02*
X08781D01*
X0873Y02177D02*
Y0228D01*
X09078Y02229D02*
X09181D01*
X09129Y02177D02*
Y0228D01*
X09478Y02229D02*
X09581D01*
X0953Y02177D02*
Y0228D01*
X09878Y02229D02*
X09981D01*
X0993Y02177D02*
Y0228D01*
X10278Y02229D02*
X10381D01*
X10329Y02177D02*
Y0228D01*
X10678Y02229D02*
X10781D01*
X10729Y02177D02*
Y0228D01*
X11078Y02229D02*
X11181D01*
X1113Y02177D02*
Y0228D01*
X11478Y02229D02*
X11581D01*
X1153Y02177D02*
Y0228D01*
X11878Y02229D02*
X11981D01*
X1193Y02177D02*
Y0228D01*
X12278Y02229D02*
X12381D01*
X1233Y02177D02*
Y0228D01*
X12678Y02229D02*
X12781D01*
X1273Y02177D02*
Y0228D01*
X13078Y02229D02*
X13181D01*
X1313Y02177D02*
Y0228D01*
X13478Y02229D02*
X13581D01*
X13529Y02177D02*
Y0228D01*
X13878Y02229D02*
X13981D01*
X13929Y02177D02*
Y0228D01*
X14278Y02229D02*
X14381D01*
X14329Y02177D02*
Y0228D01*
X14678Y02229D02*
X14781D01*
X1473Y02177D02*
Y0228D01*
X15078Y02229D02*
X15181D01*
X1513Y02177D02*
Y0228D01*
X15478Y02229D02*
X15581D01*
X1553Y02177D02*
Y0228D01*
X15878Y02229D02*
X15981D01*
X1593Y02177D02*
Y0228D01*
X16278Y02229D02*
X16381D01*
X1633Y02177D02*
Y0228D01*
X16678Y02229D02*
X16781D01*
X16729Y02177D02*
Y0228D01*
X17078Y02229D02*
X17181D01*
X17129Y02177D02*
Y0228D01*
X17478Y02229D02*
X17581D01*
X17529Y02177D02*
Y0228D01*
X17878Y02229D02*
X17981D01*
X1793Y02177D02*
Y0228D01*
X18278Y02229D02*
X18381D01*
X1833Y02177D02*
Y0228D01*
X02078Y0223D02*
X02181D01*
X0213Y02178D02*
Y02281D01*
X02478Y0223D02*
X02581D01*
X0253Y02178D02*
Y02281D01*
X02878Y0223D02*
X02981D01*
X0293Y02178D02*
Y02281D01*
X03278Y0223D02*
X03381D01*
X0333Y02178D02*
Y02281D01*
X03678Y0223D02*
X03781D01*
X0373Y02178D02*
Y02281D01*
X04078Y0223D02*
X04181D01*
X0413Y02178D02*
Y02281D01*
X04478Y0223D02*
X04581D01*
X0453Y02178D02*
Y02281D01*
X04878Y0223D02*
X04981D01*
X0493Y02178D02*
Y02281D01*
X05278Y0223D02*
X05381D01*
X0533Y02178D02*
Y02281D01*
X05678Y0223D02*
X05781D01*
X0573Y02178D02*
Y02281D01*
X06078Y0223D02*
X06181D01*
X0613Y02178D02*
Y02281D01*
X06478Y0223D02*
X06581D01*
X0653Y02178D02*
Y02281D01*
X06878Y0223D02*
X06981D01*
X0693Y02178D02*
Y02281D01*
X07278Y0223D02*
X07381D01*
X0733Y02178D02*
Y02281D01*
X07678Y0223D02*
X07781D01*
X0773Y02178D02*
Y02281D01*
X08078Y0223D02*
X08181D01*
X0813Y02178D02*
Y02281D01*
X08478Y0223D02*
X08581D01*
X0853Y02178D02*
Y02281D01*
X08878Y0223D02*
X08981D01*
X0893Y02178D02*
Y02281D01*
X09278Y0223D02*
X09381D01*
X09329Y02178D02*
Y02281D01*
X09678Y0223D02*
X09781D01*
X0973Y02178D02*
Y02281D01*
X10078Y0223D02*
X10181D01*
X1013Y02178D02*
Y02281D01*
X10478Y0223D02*
X10581D01*
X1053Y02178D02*
Y02281D01*
X10878Y0223D02*
X10981D01*
X1093Y02178D02*
Y02281D01*
X11278Y0223D02*
X11381D01*
X1133Y02178D02*
Y02281D01*
X11678Y0223D02*
X11781D01*
X11729Y02178D02*
Y02281D01*
X12078Y0223D02*
X12181D01*
X12129Y02178D02*
Y02281D01*
X12478Y0223D02*
X12581D01*
X12529Y02178D02*
Y02281D01*
X12878Y0223D02*
X12981D01*
X1293Y02178D02*
Y02281D01*
X13278Y0223D02*
X13381D01*
X1333Y02178D02*
Y02281D01*
X13678Y0223D02*
X13781D01*
X1373Y02178D02*
Y02281D01*
X14078Y0223D02*
X14181D01*
X1413Y02178D02*
Y02281D01*
X14478Y0223D02*
X14581D01*
X1453Y02178D02*
Y02281D01*
X14878Y0223D02*
X14981D01*
X14929Y02178D02*
Y02281D01*
X15278Y0223D02*
X15381D01*
X15329Y02178D02*
Y02281D01*
X15678Y0223D02*
X15781D01*
X15729Y02178D02*
Y02281D01*
X16078Y0223D02*
X16181D01*
X1613Y02178D02*
Y02281D01*
X16478Y0223D02*
X16581D01*
X1653Y02178D02*
Y02281D01*
X16878Y0223D02*
X16981D01*
X1693Y02178D02*
Y02281D01*
X17278Y0223D02*
X17381D01*
X1733Y02178D02*
Y02281D01*
X17678Y0223D02*
X17781D01*
X1773Y02178D02*
Y02281D01*
X18078Y0223D02*
X18181D01*
X1813Y02178D02*
Y02281D01*
X02213Y06598D02*
X02286D01*
X0225Y06562D02*
Y06635D01*
X02213Y06161D02*
X02286D01*
X0225Y06124D02*
Y06197D01*
X04811Y04735D02*
X04839D01*
X04825Y04721D02*
Y04749D01*
X05825Y05154D02*
X05854D01*
X0584Y0514D02*
Y05168D01*
X06316Y0488D02*
X06344D01*
X0633Y04866D02*
Y04894D01*
X07426Y05174D02*
X07454D01*
X0744Y0516D02*
Y05188D01*
X07926Y0489D02*
X07954D01*
X07939Y04876D02*
Y04904D01*
X09516Y04885D02*
X09544D01*
X0953Y04871D02*
Y04899D01*
X09026Y05174D02*
X09054D01*
X0904Y0516D02*
Y05188D01*
X10625Y05164D02*
X10654D01*
X1064Y0515D02*
Y05178D01*
X11136Y0489D02*
X11164D01*
X11149Y04876D02*
Y04904D01*
X12226Y0515D02*
X12253D01*
X1224Y05136D02*
Y05164D01*
X12715Y0489D02*
X12744D01*
X1273Y04876D02*
Y04904D01*
X1592Y0489D02*
X15948D01*
X15934Y04876D02*
Y04904D01*
X1434Y0489D02*
X14368D01*
X14354Y04876D02*
Y04904D01*
X13825Y0516D02*
X13854D01*
X1384Y05146D02*
Y05174D01*
X15426Y05174D02*
X15453D01*
X15439Y0516D02*
Y05188D01*
X17025Y05169D02*
X17054D01*
X1704Y05156D02*
Y05184D01*
M02*