%FSTAX23Y23*%
%MOIN*%
%SFA1B1*%

%IPPOS*%
%ADD12C,0.010000*%
%LNbackplane_legend_top-1*%
%LPD*%
G54D12*
X05362Y06604D02*
X05342D01*
X05352*
Y06554*
X05342Y06545*
X05332*
X05322Y06554*
X05382Y06545D02*
X05402D01*
X05392*
Y06604*
X05382Y06594*
X05432Y06535D02*
X05472D01*
X05532Y06594D02*
X05522Y06604D01*
X05502*
X05492Y06594*
Y06554*
X05502Y06545*
X05522*
X05532Y06554*
X05562Y06545D02*
X05582D01*
X05592Y06554*
Y06574*
X05582Y06584*
X05562*
X05552Y06574*
Y06554*
X05562Y06545*
X05612D02*
Y06584D01*
X05642*
X05652Y06574*
Y06545*
X05672D02*
Y06584D01*
X05702*
X05712Y06574*
Y06545*
X05732D02*
X05752D01*
X05742*
Y06604*
X05732Y06594*
X03339Y02709D02*
X03319D01*
X03329*
Y02659*
X03319Y0265*
X03309*
X033Y02659*
X03399Y0265D02*
X03359D01*
X03399Y02689*
Y02699*
X03389Y02709*
X03369*
X03359Y02699*
X06962Y06604D02*
X06942D01*
X06952*
Y06554*
X06942Y06545*
X06932*
X06922Y06554*
X06982Y06545D02*
X07002D01*
X06992*
Y06604*
X06982Y06594*
X07032Y06535D02*
X07072D01*
X07132Y06594D02*
X07122Y06604D01*
X07102*
X07092Y06594*
Y06554*
X07102Y06545*
X07122*
X07132Y06554*
X07162Y06545D02*
X07182D01*
X07192Y06554*
Y06574*
X07182Y06584*
X07162*
X07152Y06574*
Y06554*
X07162Y06545*
X07212D02*
Y06584D01*
X07242*
X07252Y06574*
Y06545*
X07272D02*
Y06584D01*
X07302*
X07312Y06574*
Y06545*
X07372D02*
X07332D01*
X07372Y06584*
Y06594*
X07362Y06604*
X07342*
X07332Y06594*
X08562Y06604D02*
X08542D01*
X08552*
Y06554*
X08542Y06545*
X08532*
X08523Y06554*
X08582Y06545D02*
X08602D01*
X08592*
Y06604*
X08582Y06594*
X08632Y06535D02*
X08672D01*
X08732Y06594D02*
X08722Y06604D01*
X08702*
X08692Y06594*
Y06554*
X08702Y06545*
X08722*
X08732Y06554*
X08762Y06545D02*
X08782D01*
X08792Y06554*
Y06574*
X08782Y06584*
X08762*
X08752Y06574*
Y06554*
X08762Y06545*
X08812D02*
Y06584D01*
X08842*
X08852Y06574*
Y06545*
X08872D02*
Y06584D01*
X08902*
X08912Y06574*
Y06545*
X08932Y06594D02*
X08942Y06604D01*
X08962*
X08972Y06594*
Y06584*
X08962Y06574*
X08952*
X08962*
X08972Y06564*
Y06554*
X08962Y06545*
X08942*
X08932Y06554*
X10162Y06604D02*
X10142D01*
X10152*
Y06554*
X10142Y06545*
X10132*
X10123Y06554*
X10182Y06545D02*
X10202D01*
X10192*
Y06604*
X10182Y06594*
X10232Y06535D02*
X10272D01*
X10332Y06594D02*
X10322Y06604D01*
X10302*
X10292Y06594*
Y06554*
X10302Y06545*
X10322*
X10332Y06554*
X10362Y06545D02*
X10382D01*
X10392Y06554*
Y06574*
X10382Y06584*
X10362*
X10352Y06574*
Y06554*
X10362Y06545*
X10412D02*
Y06584D01*
X10442*
X10452Y06574*
Y06545*
X10472D02*
Y06584D01*
X10502*
X10512Y06574*
Y06545*
X10562D02*
Y06604D01*
X10532Y06574*
X10572*
X11762Y06604D02*
X11742D01*
X11752*
Y06554*
X11742Y06545*
X11732*
X11722Y06554*
X11782Y06545D02*
X11802D01*
X11792*
Y06604*
X11782Y06594*
X11832Y06535D02*
X11872D01*
X11932Y06594D02*
X11922Y06604D01*
X11902*
X11892Y06594*
Y06554*
X11902Y06545*
X11922*
X11932Y06554*
X11962Y06545D02*
X11982D01*
X11992Y06554*
Y06574*
X11982Y06584*
X11962*
X11952Y06574*
Y06554*
X11962Y06545*
X12012D02*
Y06584D01*
X12042*
X12052Y06574*
Y06545*
X12072D02*
Y06584D01*
X12102*
X12112Y06574*
Y06545*
X12172Y06604D02*
X12132D01*
Y06574*
X12152Y06584*
X12162*
X12172Y06574*
Y06554*
X12162Y06545*
X12142*
X12132Y06554*
X13362Y06604D02*
X13342D01*
X13352*
Y06554*
X13342Y06545*
X13332*
X13323Y06554*
X13382Y06545D02*
X13402D01*
X13392*
Y06604*
X13382Y06594*
X13432Y06535D02*
X13472D01*
X13532Y06594D02*
X13522Y06604D01*
X13502*
X13492Y06594*
Y06554*
X13502Y06545*
X13522*
X13532Y06554*
X13562Y06545D02*
X13582D01*
X13592Y06554*
Y06574*
X13582Y06584*
X13562*
X13552Y06574*
Y06554*
X13562Y06545*
X13612D02*
Y06584D01*
X13642*
X13652Y06574*
Y06545*
X13672D02*
Y06584D01*
X13702*
X13712Y06574*
Y06545*
X13772Y06604D02*
X13752Y06594D01*
X13732Y06574*
Y06554*
X13742Y06545*
X13762*
X13772Y06554*
Y06564*
X13762Y06574*
X13732*
X14962Y06604D02*
X14942D01*
X14952*
Y06554*
X14942Y06545*
X14932*
X14922Y06554*
X14982Y06545D02*
X15002D01*
X14992*
Y06604*
X14982Y06594*
X15032Y06535D02*
X15072D01*
X15132Y06594D02*
X15122Y06604D01*
X15102*
X15092Y06594*
Y06554*
X15102Y06545*
X15122*
X15132Y06554*
X15162Y06545D02*
X15182D01*
X15192Y06554*
Y06574*
X15182Y06584*
X15162*
X15152Y06574*
Y06554*
X15162Y06545*
X15212D02*
Y06584D01*
X15242*
X15252Y06574*
Y06545*
X15272D02*
Y06584D01*
X15302*
X15312Y06574*
Y06545*
X15332Y06604D02*
X15372D01*
Y06594*
X15332Y06554*
Y06545*
X16562Y06604D02*
X16542D01*
X16552*
Y06554*
X16542Y06545*
X16532*
X16523Y06554*
X16582Y06545D02*
X16602D01*
X16592*
Y06604*
X16582Y06594*
X16632Y06535D02*
X16672D01*
X16732Y06594D02*
X16722Y06604D01*
X16702*
X16692Y06594*
Y06554*
X16702Y06545*
X16722*
X16732Y06554*
X16762Y06545D02*
X16782D01*
X16792Y06554*
Y06574*
X16782Y06584*
X16762*
X16752Y06574*
Y06554*
X16762Y06545*
X16812D02*
Y06584D01*
X16842*
X16852Y06574*
Y06545*
X16872D02*
Y06584D01*
X16902*
X16912Y06574*
Y06545*
X16932Y06594D02*
X16942Y06604D01*
X16962*
X16972Y06594*
Y06584*
X16962Y06574*
X16972Y06564*
Y06554*
X16962Y06545*
X16942*
X16932Y06554*
Y06564*
X16942Y06574*
X16932Y06584*
Y06594*
X16942Y06574D02*
X16962D01*
X03119Y06699D02*
X03109Y06709D01*
X03089*
X0308Y06699*
Y06659*
X03089Y0665*
X03109*
X03119Y06659*
X03149Y0665D02*
X03169D01*
X03179Y06659*
Y06679*
X03169Y06689*
X03149*
X03139Y06679*
Y06659*
X03149Y0665*
X03199D02*
Y06689D01*
X03229*
X03239Y06679*
Y0665*
X03269Y06699D02*
Y06689D01*
X03259*
X03279*
X03269*
Y06659*
X03279Y0665*
X03309Y06689D02*
Y0665D01*
Y06669*
X03319Y06679*
X03329Y06689*
X03339*
X03379Y0665D02*
X03399D01*
X03409Y06659*
Y06679*
X03399Y06689*
X03379*
X03369Y06679*
Y06659*
X03379Y0665*
X03429D02*
X03449D01*
X03439*
Y06709*
X03429*
X03479Y0665D02*
X03499D01*
X03489*
Y06709*
X03479*
X03559Y0665D02*
X03539D01*
X03529Y06659*
Y06679*
X03539Y06689*
X03559*
X03569Y06679*
Y06669*
X03529*
X03589Y06689D02*
Y0665D01*
Y06669*
X03599Y06679*
X03609Y06689*
X03619*
X1662Y0668D02*
X16629Y0669D01*
X16649*
X16659Y0668*
Y0664*
X16649Y0663*
X16629*
X1662Y0664*
Y0668*
X16679Y0667D02*
X16719Y0663D01*
X16699Y0665*
X16719Y0667*
X16679Y0663*
X16739Y0668D02*
X16749Y0669D01*
X16769*
X16779Y0668*
Y0664*
X16769Y0663*
X16749*
X16739Y0664*
Y0668*
X16799Y0664D02*
X16809Y0663D01*
X16829*
X16839Y0664*
Y0668*
X16829Y0669*
X16809*
X16799Y0668*
Y0667*
X16809Y0666*
X16839*
X15029Y0668D02*
X15039Y0669D01*
X15059*
X15069Y0668*
Y0664*
X15059Y0663*
X15039*
X15029Y0664*
Y0668*
X15089Y0667D02*
X15129Y0663D01*
X15109Y0665*
X15129Y0667*
X15089Y0663*
X15149Y0668D02*
X15159Y0669D01*
X15179*
X15189Y0668*
Y0664*
X15179Y0663*
X15159*
X15149Y0664*
Y0668*
X15209D02*
X15219Y0669D01*
X15239*
X15249Y0668*
Y0667*
X15239Y0666*
X15249Y0665*
Y0664*
X15239Y0663*
X15219*
X15209Y0664*
Y0665*
X15219Y0666*
X15209Y0667*
Y0668*
X15219Y0666D02*
X15239D01*
X1342Y0669D02*
X13429Y067D01*
X13449*
X13459Y0669*
Y0665*
X13449Y0664*
X13429*
X1342Y0665*
Y0669*
X13479Y0668D02*
X13519Y0664D01*
X13499Y0666*
X13519Y0668*
X13479Y0664*
X13539Y0669D02*
X13549Y067D01*
X13569*
X13579Y0669*
Y0665*
X13569Y0664*
X13549*
X13539Y0665*
Y0669*
X13599Y067D02*
X13639D01*
Y0669*
X13599Y0665*
Y0664*
X1182Y0669D02*
X11829Y067D01*
X11849*
X11859Y0669*
Y0665*
X11849Y0664*
X11829*
X1182Y0665*
Y0669*
X11879Y0668D02*
X11919Y0664D01*
X11899Y0666*
X11919Y0668*
X11879Y0664*
X11939Y0669D02*
X11949Y067D01*
X11969*
X11979Y0669*
Y0665*
X11969Y0664*
X11949*
X11939Y0665*
Y0669*
X12039Y067D02*
X12019Y0669D01*
X11999Y0667*
Y0665*
X12009Y0664*
X12029*
X12039Y0665*
Y0666*
X12029Y0667*
X11999*
X1023Y0669D02*
X10239Y067D01*
X10259*
X10269Y0669*
Y0665*
X10259Y0664*
X10239*
X1023Y0665*
Y0669*
X10289Y0668D02*
X10329Y0664D01*
X10309Y0666*
X10329Y0668*
X10289Y0664*
X10349Y0669D02*
X10359Y067D01*
X10379*
X10389Y0669*
Y0665*
X10379Y0664*
X10359*
X10349Y0665*
Y0669*
X10449Y067D02*
X10409D01*
Y0667*
X10429Y0668*
X10439*
X10449Y0667*
Y0665*
X10439Y0664*
X10419*
X10409Y0665*
X0862Y0669D02*
X08629Y067D01*
X08649*
X08659Y0669*
Y0665*
X08649Y0664*
X08629*
X0862Y0665*
Y0669*
X08679Y0668D02*
X08719Y0664D01*
X08699Y0666*
X08719Y0668*
X08679Y0664*
X08739Y0669D02*
X08749Y067D01*
X08769*
X08779Y0669*
Y0665*
X08769Y0664*
X08749*
X08739Y0665*
Y0669*
X08829Y0664D02*
Y067D01*
X08799Y0667*
X08839*
X07039Y0669D02*
X07049Y067D01*
X07069*
X07079Y0669*
Y0665*
X07069Y0664*
X07049*
X07039Y0665*
Y0669*
X07099Y0668D02*
X07139Y0664D01*
X07119Y0666*
X07139Y0668*
X07099Y0664*
X07159Y0669D02*
X07169Y067D01*
X07189*
X07199Y0669*
Y0665*
X07189Y0664*
X07169*
X07159Y0665*
Y0669*
X07219D02*
X07229Y067D01*
X07249*
X07259Y0669*
Y0668*
X07249Y0667*
X07239*
X07249*
X07259Y0666*
Y0665*
X07249Y0664*
X07229*
X07219Y0665*
X0543Y067D02*
X05439Y0671D01*
X05459*
X05469Y067*
Y0666*
X05459Y0665*
X05439*
X0543Y0666*
Y067*
X05489Y0669D02*
X05529Y0665D01*
X05509Y0667*
X05529Y0669*
X05489Y0665*
X05549Y067D02*
X05559Y0671D01*
X05579*
X05589Y067*
Y0666*
X05579Y0665*
X05559*
X05549Y0666*
Y067*
X05649Y0665D02*
X05609D01*
X05649Y0669*
Y067*
X05639Y0671*
X05619*
X05609Y067*
M02*