%FSTAX23Y23*%
%MOIN*%
%SFA1B1*%

%IPPOS*%
%AMD142*
4,1,8,-0.033000,0.016500,-0.033000,-0.016500,-0.016500,-0.033000,0.016500,-0.033000,0.033000,-0.016500,0.033000,0.016500,0.016500,0.033000,-0.016500,0.033000,-0.033000,0.016500,0.0*
%
%ADD94R,0.288188X0.134252*%
%ADD95R,0.064000X0.122110*%
%ADD96R,0.122110X0.064000*%
%ADD97C,0.106362*%
%ADD98R,0.059118X0.133921*%
%ADD99R,0.133921X0.059118*%
%ADD100R,0.047307X0.106362*%
%ADD101R,0.039433X0.035496*%
%ADD102O,0.043370X0.025653*%
%ADD103R,0.043370X0.025653*%
%ADD104R,0.031559X0.039433*%
%ADD105R,0.059118X0.047307*%
%ADD106R,0.129984X0.074866*%
%ADD107R,0.136283X0.195338*%
%ADD108R,0.058724X0.059118*%
%ADD109R,0.039433X0.031559*%
%ADD110R,0.051244X0.051244*%
%ADD111R,0.050063X0.078016*%
%ADD112R,0.070929X0.047307*%
%ADD113R,0.074866X0.086677*%
%ADD114R,0.034000X0.049000*%
%ADD115R,0.122000X0.093000*%
%ADD116O,0.068960X0.025653*%
%ADD117O,0.025653X0.068960*%
%ADD118R,0.068960X0.029590*%
%ADD119O,0.068960X0.029590*%
%ADD120R,0.153606X0.082740*%
%ADD121R,0.063055X0.082740*%
%ADD122R,0.060000X0.123000*%
%ADD123R,0.059118X0.035496*%
%ADD124O,0.059118X0.035496*%
%ADD125R,0.035496X0.039433*%
%ADD126R,0.032000X0.083000*%
%ADD127R,0.052000X0.052000*%
%ADD128R,0.055181X0.191007*%
%ADD129R,0.106362X0.047307*%
%ADD130R,0.141795X0.082740*%
%ADD131R,0.089000X0.111992*%
%ADD132R,0.082740X0.141795*%
%ADD133R,0.102425X0.063055*%
%ADD134R,0.224472X0.094551*%
%ADD135R,0.126047X0.161480*%
%ADD136R,0.092976X0.089039*%
%ADD137R,0.051244X0.064000*%
%ADD138C,0.161480*%
%ADD139C,0.064000*%
%ADD140C,0.114236*%
%ADD141C,0.064000*%
G04~CAMADD=142~4~0.0~0.0~660.0~660.0~0.0~165.0~0~0.0~0.0~0.0~0.0~0~0.0~0.0~0.0~0.0~0~0.0~0.0~0.0~90.0~660.0~660.0*
%ADD142D142*%
%ADD143C,0.066992*%
%ADD144C,0.070929*%
%ADD145C,0.039433*%
%ADD146C,0.054000*%
%ADD147C,0.034000*%
%ADD148C,0.030457*%
%ADD149C,0.029000*%
%ADD150C,0.031559*%
%ADD151C,0.041401*%
%LNlv1_soldermask_top-1*%
%LPD*%
G54D94*
X0185Y00586D03*
G54D95*
X012Y0061D03*
X01131D03*
X01149Y04112D03*
X01218D03*
G54D96*
X047Y01612D03*
X04295Y01614D03*
Y01681D03*
X07377Y01602D03*
X047Y01681D03*
X07377Y01669D03*
X06968Y01602D03*
Y01669D03*
G54D97*
X05244Y01723D03*
Y02523D03*
X04944D03*
X04744D03*
X04444Y01723D03*
X032Y0172D03*
X035Y0252D03*
X037D03*
X04D03*
Y0172D03*
X06562D03*
Y0252D03*
X06262D03*
X06062D03*
X05762Y0172D03*
X07921Y01728D03*
Y02528D03*
X07621D03*
X07421D03*
X07121Y01728D03*
G54D98*
X02964Y00724D03*
X03114D03*
G54D99*
X08539Y01853D03*
Y02002D03*
G54D100*
X07289Y0327D03*
X07396D03*
X07239Y01783D03*
X07346D03*
X07244Y019D03*
X0735D03*
X07396Y03153D03*
X07289D03*
X05934Y03264D03*
X0604D03*
X05884Y01776D03*
X0599D03*
X05888Y01894D03*
X05994D03*
X0604Y03146D03*
X05934D03*
X04611Y03269D03*
X04717D03*
X04561Y01781D03*
X04667D03*
X04565Y01899D03*
X04671D03*
X04717Y03151D03*
X04611D03*
X03468Y03152D03*
X03362D03*
X03316Y019D03*
X03423D03*
X03312Y01782D03*
X03418D03*
X03316Y01231D03*
X03422D03*
X03362Y0327D03*
X03468D03*
G54D101*
X07773Y0374D03*
Y03685D03*
X07447Y03158D03*
Y03103D03*
X06417Y03734D03*
Y03679D03*
X06091Y03151D03*
Y03096D03*
X05094Y03739D03*
Y03684D03*
X04768Y03156D03*
Y03101D03*
X01932Y022D03*
Y02145D03*
X0352Y03157D03*
Y03102D03*
X03845Y0374D03*
Y03684D03*
G54D102*
X07609Y0374D03*
X06254Y03734D03*
X04931Y03739D03*
X03682Y03739D03*
G54D103*
X07609Y03703D03*
Y03665D03*
X07716Y0374D03*
Y03665D03*
X06254Y03696D03*
Y03659D03*
X0636Y03734D03*
Y03659D03*
X04931Y03701D03*
Y03664D03*
X05037Y03739D03*
Y03664D03*
X03682Y03702D03*
Y03665D03*
X03788Y03739D03*
Y03665D03*
G54D104*
X07333Y0277D03*
X07392D03*
X07572Y03753D03*
X07513D03*
X07553Y03053D03*
X07612D03*
X07443Y0277D03*
X07502D03*
X05977Y02763D03*
X06036D03*
X06216Y03746D03*
X06157D03*
X06197Y03046D03*
X06256D03*
X06087Y02763D03*
X06146D03*
X04654Y02768D03*
X04713D03*
X04893Y03751D03*
X04834D03*
X04874Y03051D03*
X04933D03*
X04764Y02768D03*
X04823D03*
X02118Y03261D03*
X02177D03*
X01362Y03832D03*
X01303D03*
X0154Y03227D03*
X016D03*
X03515Y02769D03*
X03575D03*
X03625Y03052D03*
X03685D03*
X03645Y03752D03*
X03585D03*
X03405Y02769D03*
X03465D03*
X01153Y02611D03*
X01094D03*
X01219Y012D03*
X0116D03*
X01309Y0171D03*
X0125D03*
X01329Y03582D03*
X0127D03*
X01334Y03318D03*
X01275D03*
X06605Y01531D03*
X06664D03*
G54D105*
X08033Y02753D03*
Y02812D03*
X06677Y02747D03*
Y02806D03*
X05354Y02752D03*
Y02811D03*
X04105Y02752D03*
Y02812D03*
G54D106*
X07893Y02681D03*
Y02425D03*
X06537Y02674D03*
Y02418D03*
X05214Y02679D03*
Y02423D03*
X03965Y0268D03*
Y02424D03*
G54D107*
X07673Y01843D03*
X06317Y01836D03*
X04994Y01841D03*
X03745Y01842D03*
G54D108*
X07709Y02D03*
X07636D03*
X06353Y01993D03*
X0628D03*
X0503Y01998D03*
X04958D03*
X03781Y01999D03*
X03709D03*
G54D109*
X07563Y02832D03*
Y02773D03*
X07522Y03223D03*
Y03164D03*
X06207Y02826D03*
Y02767D03*
X06166Y03216D03*
Y03157D03*
X04884Y02831D03*
Y02772D03*
X04843Y03221D03*
Y03162D03*
X09059Y0298D03*
Y03039D03*
X09065Y02422D03*
Y02362D03*
X03595Y03222D03*
Y03163D03*
X03635Y02832D03*
Y02772D03*
X03006Y01081D03*
Y01022D03*
X0119Y014D03*
Y01459D03*
X05429Y02118D03*
Y02059D03*
X05428Y02224D03*
Y02165D03*
G54D110*
X07348Y01683D03*
X07237D03*
X05992Y01676D03*
X05882D03*
X04669Y01681D03*
X04559D03*
X0342Y01682D03*
X0331D03*
G54D111*
X0715Y02655D03*
X07248D03*
X07346D03*
X07443D03*
X07541D03*
X0715Y02011D03*
X07248D03*
X07346D03*
X07443D03*
X07541D03*
X05795Y02649D03*
X05892D03*
X0599D03*
X06087D03*
X06185D03*
X05795Y02005D03*
X05892D03*
X0599D03*
X06087D03*
X06185D03*
X04472Y02654D03*
X04569D03*
X04667D03*
X04765D03*
X04862D03*
X04472Y0201D03*
X04569D03*
X04667D03*
X04765D03*
X04862D03*
X03223Y02655D03*
X03321D03*
X03418D03*
X03516D03*
X03613D03*
X03223Y0201D03*
X03321D03*
X03418D03*
X03516D03*
X03613D03*
G54D112*
X08043Y0244D03*
Y02546D03*
X06687Y02433D03*
Y02539D03*
X05364Y02438D03*
Y02544D03*
X04115Y02439D03*
Y02545D03*
G54D113*
X07723Y02839D03*
Y02666D03*
X06367Y02833D03*
Y0266D03*
X05044Y02838D03*
Y02665D03*
X03795Y02839D03*
Y02665D03*
G54D114*
X07493Y03053D03*
X07443D03*
X07393D03*
X07343D03*
X07493Y02848D03*
X07443D03*
X07393D03*
X07343D03*
X06137Y03046D03*
X06087D03*
X06037D03*
X05987D03*
X06137Y02841D03*
X06087D03*
X06037D03*
X05987D03*
X04814Y03051D03*
X04764D03*
X04714D03*
X04664D03*
X04814Y02846D03*
X04764D03*
X04714D03*
X04664D03*
X03565Y03052D03*
X03515D03*
X03465D03*
X03415D03*
X03565Y02847D03*
X03515D03*
X03465D03*
X03415D03*
G54D115*
X07418Y0295D03*
X06062Y02944D03*
X04739Y02949D03*
X0349Y0295D03*
G54D116*
X01686Y03556D03*
Y03525D03*
Y03493D03*
Y03462D03*
Y0343D03*
Y03399D03*
Y03367D03*
Y03336D03*
X02017D03*
Y03367D03*
Y03399D03*
Y0343D03*
Y03462D03*
Y03493D03*
Y03525D03*
Y03556D03*
G54D117*
X01741Y03281D03*
X01773D03*
X01804D03*
X01836D03*
X01867D03*
X01899D03*
X0193D03*
X01962D03*
Y03611D03*
X0193D03*
X01899D03*
X01867D03*
X01836D03*
X01804D03*
X01773D03*
X01741D03*
G54D118*
X08073Y03981D03*
X05133Y03969D03*
G54D119*
X08073Y04081D03*
Y04181D03*
X07722Y03981D03*
Y04081D03*
Y04181D03*
X05133Y04069D03*
Y04169D03*
X04782Y03969D03*
Y04069D03*
Y04169D03*
G54D120*
X01847Y02539D03*
G54D121*
X01937Y02291D03*
X01847D03*
X01756D03*
G54D122*
X02154Y02435D03*
Y02245D03*
X0152Y02305D03*
Y02115D03*
G54D123*
X08804Y03021D03*
X08815Y02412D03*
G54D124*
X08804Y02971D03*
Y02921D03*
Y02871D03*
X09001Y03021D03*
Y02971D03*
Y02921D03*
Y02871D03*
X08815Y02362D03*
Y02312D03*
Y02262D03*
X09012Y02412D03*
Y02362D03*
Y02312D03*
Y02262D03*
G54D125*
X08753Y02412D03*
X08697D03*
X08742Y03021D03*
X08687D03*
X02081Y03364D03*
X02136D03*
X02133Y03445D03*
X02078D03*
X01096Y02671D03*
X01151D03*
G54D126*
X01609Y03149D03*
X0157D03*
X0153D03*
G54D127*
X02178Y03198D03*
X02095D03*
G54D128*
X08496Y04133D03*
Y03781D03*
G54D129*
X03448Y00727D03*
Y00833D03*
X03565Y00726D03*
Y00832D03*
X03683Y00726D03*
Y00833D03*
X06018Y01188D03*
Y01295D03*
X07043Y01218D03*
Y01324D03*
X07161Y01218D03*
Y01325D03*
X07284Y01218D03*
Y01324D03*
G54D130*
X03154Y01111D03*
Y00918D03*
G54D131*
X01627Y0249D03*
X01452D03*
G54D132*
X06714Y01381D03*
X06521D03*
G54D133*
X08709Y01825D03*
X09043Y01687D03*
Y01825D03*
X08709Y01687D03*
X08587Y00859D03*
X08921Y00721D03*
Y00859D03*
X08587Y00721D03*
G54D134*
X06635Y0324D03*
Y03532D03*
X07991Y03247D03*
Y03538D03*
X05312Y03246D03*
Y03537D03*
X04063Y03246D03*
Y03538D03*
G54D135*
X06393Y03516D03*
X0622D03*
X07749Y03523D03*
X07576D03*
X0507Y03521D03*
X04897D03*
X03822Y03522D03*
X03648D03*
G54D136*
X0889Y03903D03*
Y04096D03*
G54D137*
X04862Y0258D03*
X03614Y02582D03*
X06185Y02576D03*
X07541Y0258D03*
G54D138*
X01006Y00612D03*
Y04111D03*
G54D139*
X0312Y036D03*
Y0349D03*
G54D140*
X0945Y00612D03*
Y04112D03*
G54D141*
X0915Y00812D03*
Y00912D03*
Y01012D03*
Y01112D03*
Y01212D03*
Y01312D03*
Y01412D03*
Y01512D03*
Y01612D03*
Y01712D03*
Y01812D03*
Y01912D03*
Y02012D03*
Y02112D03*
Y02212D03*
Y02312D03*
Y02412D03*
Y02512D03*
Y02612D03*
Y02712D03*
Y02812D03*
Y02912D03*
Y03012D03*
Y03112D03*
Y03212D03*
Y03312D03*
Y03412D03*
Y03512D03*
Y03612D03*
Y03712D03*
Y03812D03*
Y03912D03*
X0935Y00812D03*
Y00912D03*
Y01012D03*
Y01112D03*
Y01212D03*
Y01312D03*
Y01412D03*
Y01512D03*
Y01612D03*
Y01712D03*
Y01812D03*
Y01912D03*
Y02012D03*
Y02112D03*
Y02212D03*
Y02312D03*
Y02412D03*
Y02512D03*
Y02612D03*
Y02712D03*
Y02812D03*
Y02912D03*
Y03012D03*
Y03112D03*
Y03212D03*
Y03312D03*
Y03412D03*
Y03512D03*
Y03612D03*
Y03712D03*
Y03812D03*
Y03912D03*
X0112Y02231D03*
Y02054D03*
G54D142*
X0102Y0247D03*
X0092D03*
X0102Y0257D03*
X0092D03*
X0102Y0267D03*
X0092D03*
Y0277D03*
X0102D03*
Y0287D03*
X0092D03*
G54D143*
X00981Y0096D03*
Y0106D03*
Y0121D03*
Y0131D03*
Y0146D03*
Y0156D03*
Y0171D03*
Y0181D03*
Y0348D03*
Y0358D03*
Y0322D03*
Y0332D03*
Y0383D03*
Y0373D03*
G54D144*
X01219Y02005D03*
Y02281D03*
G54D145*
X02892Y00677D03*
X02891Y00724D03*
X02891Y00771D03*
X07812Y01019D03*
X08015Y01023D03*
X08199Y01021D03*
X05325Y02214D03*
X05011Y01195D03*
X05935Y02192D03*
X05756Y02194D03*
X05429Y02021D03*
X046Y02212D03*
X04418Y02214D03*
G54D146*
X05056Y0168D03*
X05116Y0186D03*
Y0192D03*
X04736Y01897D03*
X04775Y01688D03*
X04916Y0168D03*
X04986D03*
X05116Y018D03*
Y0174D03*
Y0168D03*
X08077Y03793D03*
X07183Y03053D03*
X06721Y03787D03*
X05827Y03046D03*
X04504Y03051D03*
X01715Y0252D03*
X02026Y02473D03*
X01914Y02418D03*
X01775Y02415D03*
X01648Y02381D03*
X01646Y02585D03*
X0182Y03423D03*
X02079Y02563D03*
X01202Y02586D03*
X01714Y02584D03*
X01366Y03905D03*
X0144Y02343D03*
X01978Y02568D03*
X0353Y032D03*
X0287Y0238D03*
X029Y022D03*
X03255Y03052D03*
X0415Y03793D03*
X041Y0119D03*
X0293Y0126D03*
X055Y0114D03*
X0416Y0108D03*
X0159D03*
X09062Y02312D03*
X09065Y02465D03*
X0905Y0292D03*
Y0308D03*
X0888Y0262D03*
X0894Y03219D03*
X0881Y03119D03*
X0895Y033D03*
X01334Y0337D03*
X01329Y0353D03*
X05212Y04029D03*
X08136D03*
X04736Y01759D03*
Y01826D03*
X03759Y02496D03*
X04169Y01145D03*
X03515Y0131D03*
X04086Y01732D03*
Y01673D03*
X03181Y01692D03*
X03875Y01683D03*
Y01743D03*
Y01803D03*
X03745Y01683D03*
X03675D03*
X03875Y01923D03*
Y01863D03*
X03815Y01683D03*
X03492Y01846D03*
Y01779D03*
Y01708D03*
Y01917D03*
X05008Y02495D03*
X04778Y03199D03*
X06101D03*
X07452Y03203D03*
X04263Y02094D03*
Y02031D03*
Y01968D03*
Y01909D03*
Y01846D03*
Y01783D03*
X03019Y02094D03*
Y02031D03*
Y01968D03*
Y01905D03*
Y01842D03*
Y01779D03*
X0559Y01771D03*
Y01834D03*
Y01897D03*
Y0196D03*
Y02023D03*
Y02086D03*
X06948Y02094D03*
Y02031D03*
Y01968D03*
Y01905D03*
Y01842D03*
Y01779D03*
X06326Y02488D03*
X07677Y02492D03*
X06072Y01816D03*
Y01749D03*
X06452Y01669D03*
Y01729D03*
Y01789D03*
X06322Y01669D03*
X06252D03*
X06072Y01678D03*
Y01887D03*
X06452Y01909D03*
Y01849D03*
X06392Y01669D03*
X07751Y01681D03*
X07811Y01861D03*
Y01921D03*
X07431Y01898D03*
X07464Y01681D03*
X07611Y01681D03*
X07681D03*
X07811Y01801D03*
Y01741D03*
Y01681D03*
X07431Y01761D03*
Y01828D03*
X06003Y01389D03*
X06649Y01755D03*
Y01685D03*
X05751Y01688D03*
X03523Y03283D03*
X04767Y03271D03*
X06094D03*
X07448Y03279D03*
X08862Y02832D03*
G54D147*
X07711Y03743D03*
X06355Y03737D03*
X05032Y03742D03*
X03784Y03743D03*
G54D148*
X07607Y0381D03*
X06251Y03804D03*
X04928Y03809D03*
X0368Y0381D03*
G54D149*
X01358Y03137D03*
X02082Y03404D03*
X0208Y03524D03*
X02025Y03588D03*
X01773Y03684D03*
X01991Y03664D03*
X02026Y03299D03*
X01992Y03229D03*
X01801Y03209D03*
X01768Y03212D03*
X01734Y03214D03*
X01837Y03216D03*
X01899Y03525D03*
X01906Y03481D03*
G54D150*
X01682Y03595D03*
X01914Y03051D03*
X01907Y03095D03*
G54D151*
X08289Y0222D03*
Y0218D03*
X08289Y02139D03*
X0833Y0222D03*
Y0218D03*
X0833Y02139D03*
X0837D03*
X0837Y0218D03*
Y0222D03*
X0882D03*
X08779D03*
X0874D03*
X0535Y0403D03*
Y0411D03*
Y0407D03*
X0539Y0411D03*
Y0407D03*
Y0403D03*
X0332Y0416D03*
Y0412D03*
Y0408D03*
X0328D03*
Y0412D03*
Y0416D03*
M02*