%FSTAX23Y23*%
%MOIN*%
%SFA1B1*%

%IPPOS*%
%ADD84C,0.005000*%
%LNlv1_drillmap_1-1*%
%LPD*%
G54D84*
X00951Y00612D02*
X01061D01*
X01006Y00557D02*
Y00667D01*
X00951Y04111D02*
X01061D01*
X01006Y04056D02*
Y04167D01*
X03105Y036D02*
X03135D01*
X0312Y03585D02*
Y03615D01*
X03105Y0349D02*
X03135D01*
X0312Y03475D02*
Y03505D01*
X09394Y00612D02*
X09505D01*
X0945Y00557D02*
Y00667D01*
X09394Y04112D02*
X09505D01*
X0945Y04057D02*
Y04167D01*
X0913Y00812D02*
X09169D01*
X0915Y00792D02*
Y00831D01*
X0913Y00912D02*
X09169D01*
X0915Y00892D02*
Y00931D01*
X0913Y01012D02*
X09169D01*
X0915Y00992D02*
Y01031D01*
X0913Y01112D02*
X09169D01*
X0915Y01092D02*
Y01131D01*
X0913Y01212D02*
X09169D01*
X0915Y01192D02*
Y01231D01*
X0913Y01312D02*
X09169D01*
X0915Y01292D02*
Y01331D01*
X0913Y01412D02*
X09169D01*
X0915Y01392D02*
Y01431D01*
X0913Y01512D02*
X09169D01*
X0915Y01492D02*
Y01531D01*
X0913Y01612D02*
X09169D01*
X0915Y01592D02*
Y01631D01*
X0913Y01712D02*
X09169D01*
X0915Y01692D02*
Y01731D01*
X0913Y01812D02*
X09169D01*
X0915Y01792D02*
Y01831D01*
X0913Y01912D02*
X09169D01*
X0915Y01892D02*
Y01931D01*
X0913Y02012D02*
X09169D01*
X0915Y01992D02*
Y02031D01*
X0913Y02112D02*
X09169D01*
X0915Y02092D02*
Y02131D01*
X0913Y02212D02*
X09169D01*
X0915Y02192D02*
Y02231D01*
X0913Y02312D02*
X09169D01*
X0915Y02292D02*
Y02331D01*
X0913Y02412D02*
X09169D01*
X0915Y02392D02*
Y02431D01*
X0913Y02512D02*
X09169D01*
X0915Y02492D02*
Y02531D01*
X0913Y02612D02*
X09169D01*
X0915Y02592D02*
Y02631D01*
X0913Y02712D02*
X09169D01*
X0915Y02692D02*
Y02731D01*
X0913Y02812D02*
X09169D01*
X0915Y02792D02*
Y02831D01*
X0913Y02912D02*
X09169D01*
X0915Y02892D02*
Y02931D01*
X0913Y03012D02*
X09169D01*
X0915Y02992D02*
Y03031D01*
X0913Y03112D02*
X09169D01*
X0915Y03092D02*
Y03131D01*
X0913Y03212D02*
X09169D01*
X0915Y03192D02*
Y03231D01*
X0913Y03312D02*
X09169D01*
X0915Y03292D02*
Y03331D01*
X0913Y03412D02*
X09169D01*
X0915Y03392D02*
Y03431D01*
X0913Y03512D02*
X09169D01*
X0915Y03492D02*
Y03531D01*
X0913Y03612D02*
X09169D01*
X0915Y03592D02*
Y03631D01*
X0913Y03712D02*
X09169D01*
X0915Y03692D02*
Y03731D01*
X0913Y03812D02*
X09169D01*
X0915Y03792D02*
Y03831D01*
X0913Y03912D02*
X09169D01*
X0915Y03892D02*
Y03931D01*
X0933Y00812D02*
X09369D01*
X0935Y00792D02*
Y00831D01*
X0933Y00912D02*
X09369D01*
X0935Y00892D02*
Y00931D01*
X0933Y01012D02*
X09369D01*
X0935Y00992D02*
Y01031D01*
X0933Y01112D02*
X09369D01*
X0935Y01092D02*
Y01131D01*
X0933Y01212D02*
X09369D01*
X0935Y01192D02*
Y01231D01*
X0933Y01312D02*
X09369D01*
X0935Y01292D02*
Y01331D01*
X0933Y01412D02*
X09369D01*
X0935Y01392D02*
Y01431D01*
X0933Y01512D02*
X09369D01*
X0935Y01492D02*
Y01531D01*
X0933Y01612D02*
X09369D01*
X0935Y01592D02*
Y01631D01*
X0933Y01712D02*
X09369D01*
X0935Y01692D02*
Y01731D01*
X0933Y01812D02*
X09369D01*
X0935Y01792D02*
Y01831D01*
X0933Y01912D02*
X09369D01*
X0935Y01892D02*
Y01931D01*
X0933Y02012D02*
X09369D01*
X0935Y01992D02*
Y02031D01*
X0933Y02112D02*
X09369D01*
X0935Y02092D02*
Y02131D01*
X0933Y02212D02*
X09369D01*
X0935Y02192D02*
Y02231D01*
X0933Y02312D02*
X09369D01*
X0935Y02292D02*
Y02331D01*
X0933Y02412D02*
X09369D01*
X0935Y02392D02*
Y02431D01*
X0933Y02512D02*
X09369D01*
X0935Y02492D02*
Y02531D01*
X0933Y02612D02*
X09369D01*
X0935Y02592D02*
Y02631D01*
X0933Y02712D02*
X09369D01*
X0935Y02692D02*
Y02731D01*
X0933Y02812D02*
X09369D01*
X0935Y02792D02*
Y02831D01*
X0933Y02912D02*
X09369D01*
X0935Y02892D02*
Y02931D01*
X0933Y03012D02*
X09369D01*
X0935Y02992D02*
Y03031D01*
X0933Y03112D02*
X09369D01*
X0935Y03092D02*
Y03131D01*
X0933Y03212D02*
X09369D01*
X0935Y03192D02*
Y03231D01*
X0933Y03312D02*
X09369D01*
X0935Y03292D02*
Y03331D01*
X0933Y03412D02*
X09369D01*
X0935Y03392D02*
Y03431D01*
X0933Y03512D02*
X09369D01*
X0935Y03492D02*
Y03531D01*
X0933Y03612D02*
X09369D01*
X0935Y03592D02*
Y03631D01*
X0933Y03712D02*
X09369D01*
X0935Y03692D02*
Y03731D01*
X0933Y03812D02*
X09369D01*
X0935Y03792D02*
Y03831D01*
X0933Y03912D02*
X09369D01*
X0935Y03892D02*
Y03931D01*
X01001Y0247D02*
X01039D01*
X0102Y02451D02*
Y02489D01*
X00901Y0247D02*
X00939D01*
X0092Y02451D02*
Y02489D01*
X01001Y0257D02*
X01039D01*
X0102Y02551D02*
Y02589D01*
X00901Y0257D02*
X00939D01*
X0092Y02551D02*
Y02589D01*
X01001Y0267D02*
X01039D01*
X0102Y02651D02*
Y02689D01*
X00901Y0267D02*
X00939D01*
X0092Y02651D02*
Y02689D01*
X00901Y0277D02*
X00939D01*
X0092Y02751D02*
Y02789D01*
X01001Y0277D02*
X01039D01*
X0102Y02751D02*
Y02789D01*
X01001Y0287D02*
X01039D01*
X0102Y02851D02*
Y02889D01*
X00901Y0287D02*
X00939D01*
X0092Y02851D02*
Y02889D01*
X00965Y0096D02*
X00997D01*
X00981Y00944D02*
Y00975D01*
X00965Y0106D02*
X00997D01*
X00981Y01044D02*
Y01075D01*
X00965Y0121D02*
X00997D01*
X00981Y01194D02*
Y01225D01*
X00965Y0131D02*
X00997D01*
X00981Y01294D02*
Y01325D01*
X00965Y0146D02*
X00997D01*
X00981Y01444D02*
Y01475D01*
X00965Y0156D02*
X00997D01*
X00981Y01544D02*
Y01575D01*
X00965Y0171D02*
X00997D01*
X00981Y01694D02*
Y01725D01*
X00965Y0181D02*
X00997D01*
X00981Y01794D02*
Y01825D01*
X00965Y0348D02*
X00997D01*
X00981Y03464D02*
Y03495D01*
X00965Y0358D02*
X00997D01*
X00981Y03564D02*
Y03595D01*
X00965Y0322D02*
X00997D01*
X00981Y03204D02*
Y03235D01*
X00965Y0332D02*
X00997D01*
X00981Y03304D02*
Y03335D01*
X00965Y0383D02*
X00997D01*
X00981Y03814D02*
Y03845D01*
X00965Y0373D02*
X00997D01*
X00981Y03714D02*
Y03745D01*
X01101Y02231D02*
X0114D01*
X0112Y02212D02*
Y02251D01*
X01101Y02054D02*
X0114D01*
X0112Y02035D02*
Y02074D01*
X01193Y02005D02*
X01244D01*
X01219Y01979D02*
Y0203D01*
X01193Y02281D02*
X01244D01*
X01219Y02255D02*
Y02306D01*
X02882Y00677D02*
X02901D01*
X02892Y00667D02*
Y00687D01*
X02881Y00724D02*
X02901D01*
X02891Y00714D02*
Y00733D01*
X02881Y00771D02*
X02901D01*
X02891Y00761D02*
Y00781D01*
X07803Y01019D02*
X07822D01*
X07812Y01009D02*
Y01029D01*
X08005Y01023D02*
X08025D01*
X08015Y01013D02*
Y01033D01*
X08189Y01021D02*
X08209D01*
X08199Y01011D02*
Y01031D01*
X05042Y0168D02*
X0507D01*
X05056Y01666D02*
Y01694D01*
X05102Y0186D02*
X0513D01*
X05116Y01846D02*
Y01874D01*
X05102Y0192D02*
X0513D01*
X05116Y01906D02*
Y01934D01*
X04722Y01897D02*
X0475D01*
X04736Y01883D02*
Y01911D01*
X04761Y01688D02*
X04789D01*
X04775Y01674D02*
Y01702D01*
X04902Y0168D02*
X0493D01*
X04916Y01666D02*
Y01694D01*
X04972Y0168D02*
X05D01*
X04986Y01666D02*
Y01694D01*
X05102Y018D02*
X0513D01*
X05116Y01786D02*
Y01814D01*
X05102Y0174D02*
X0513D01*
X05116Y01726D02*
Y01754D01*
X05102Y0168D02*
X0513D01*
X05116Y01666D02*
Y01694D01*
X08063Y03793D02*
X08091D01*
X08077Y03779D02*
Y03807D01*
X07704Y03743D02*
X07719D01*
X07711Y03736D02*
Y03751D01*
X07169Y03053D02*
X07197D01*
X07183Y03039D02*
Y03067D01*
X076Y0381D02*
X07615D01*
X07607Y03803D02*
Y03818D01*
X06707Y03787D02*
X06735D01*
X06721Y03773D02*
Y03801D01*
X06348Y03737D02*
X06363D01*
X06355Y03729D02*
Y03744D01*
X05813Y03046D02*
X05841D01*
X05827Y03032D02*
Y0306D01*
X06244Y03804D02*
X06259D01*
X06251Y03796D02*
Y03811D01*
X05025Y03742D02*
X0504D01*
X05032Y03734D02*
Y03749D01*
X0449Y03051D02*
X04518D01*
X04504Y03037D02*
Y03065D01*
X04921Y03809D02*
X04936D01*
X04928Y03801D02*
Y03816D01*
X01701Y0252D02*
X01729D01*
X01715Y02506D02*
Y02534D01*
X02012Y02473D02*
X0204D01*
X02026Y02459D02*
Y02487D01*
X019Y02418D02*
X01928D01*
X01914Y02404D02*
Y02432D01*
X01761Y02415D02*
X01789D01*
X01775Y02401D02*
Y02429D01*
X01634Y02381D02*
X01662D01*
X01648Y02367D02*
Y02395D01*
X01632Y02585D02*
X0166D01*
X01646Y02571D02*
Y02599D01*
X01353Y03137D02*
X01363D01*
X01358Y03132D02*
Y03142D01*
X01806Y03423D02*
X01834D01*
X0182Y03409D02*
Y03437D01*
X02077Y03404D02*
X02087D01*
X02082Y03399D02*
Y03409D01*
X02075Y03524D02*
X02085D01*
X0208Y03519D02*
Y03529D01*
X0202Y03588D02*
X0203D01*
X02025Y03583D02*
Y03593D01*
X01677Y03595D02*
X01687D01*
X01682Y0359D02*
Y036D01*
X01768Y03684D02*
X01778D01*
X01773Y03679D02*
Y03689D01*
X01986Y03664D02*
X01996D01*
X01991Y03659D02*
Y03669D01*
X02021Y03299D02*
X02031D01*
X02026Y03294D02*
Y03304D01*
X01987Y03229D02*
X01997D01*
X01992Y03224D02*
Y03234D01*
X01909Y03051D02*
X01919D01*
X01914Y03046D02*
Y03056D01*
X01902Y03095D02*
X01912D01*
X01907Y0309D02*
Y031D01*
X02065Y02563D02*
X02093D01*
X02079Y02549D02*
Y02577D01*
X01188Y02586D02*
X01216D01*
X01202Y02572D02*
Y026D01*
X017Y02584D02*
X01728D01*
X01714Y0257D02*
Y02598D01*
X01352Y03905D02*
X0138D01*
X01366Y03891D02*
Y03919D01*
X01796Y03209D02*
X01806D01*
X01801Y03204D02*
Y03214D01*
X01763Y03212D02*
X01773D01*
X01768Y03207D02*
Y03217D01*
X01729Y03214D02*
X01739D01*
X01734Y03209D02*
Y03219D01*
X01832Y03216D02*
X01842D01*
X01837Y03211D02*
Y03221D01*
X01894Y03525D02*
X01904D01*
X01899Y0352D02*
Y0353D01*
X01901Y03481D02*
X01911D01*
X01906Y03476D02*
Y03486D01*
X01426Y02343D02*
X01454D01*
X0144Y02329D02*
Y02357D01*
X01964Y02568D02*
X01992D01*
X01978Y02554D02*
Y02582D01*
X03516Y032D02*
X03544D01*
X0353Y03186D02*
Y03214D01*
X02856Y0238D02*
X02884D01*
X0287Y02366D02*
Y02394D01*
X02886Y022D02*
X02914D01*
X029Y02186D02*
Y02214D01*
X03672Y0381D02*
X03687D01*
X0368Y03802D02*
Y03817D01*
X03241Y03052D02*
X03269D01*
X03255Y03038D02*
Y03066D01*
X03776Y03743D02*
X03791D01*
X03784Y03735D02*
Y0375D01*
X04136Y03793D02*
X04164D01*
X0415Y03779D02*
Y03807D01*
X04086Y0119D02*
X04114D01*
X041Y01176D02*
Y01204D01*
X02916Y0126D02*
X02944D01*
X0293Y01246D02*
Y01274D01*
X05486Y0114D02*
X05514D01*
X055Y01126D02*
Y01154D01*
X04146Y0108D02*
X04174D01*
X0416Y01066D02*
Y01094D01*
X01576Y0108D02*
X01604D01*
X0159Y01066D02*
Y01094D01*
X0828Y0222D02*
X08299D01*
X08289Y0221D02*
Y02229D01*
X0828Y0218D02*
X08299D01*
X08289Y0217D02*
Y02189D01*
X08279Y02139D02*
X08299D01*
X08289Y02129D02*
Y02149D01*
X0832Y0222D02*
X08339D01*
X0833Y0221D02*
Y02229D01*
X0832Y0218D02*
X08339D01*
X0833Y0217D02*
Y02189D01*
X0832Y02139D02*
X0834D01*
X0833Y02129D02*
Y02149D01*
X0836Y02139D02*
X08379D01*
X0837Y02129D02*
Y02149D01*
X0836Y0218D02*
X08379D01*
X0837Y0217D02*
Y02189D01*
X0836Y0222D02*
X08379D01*
X0837Y0221D02*
Y02229D01*
X09048Y02312D02*
X09076D01*
X09062Y02298D02*
Y02326D01*
X09051Y02465D02*
X09079D01*
X09065Y02451D02*
Y02479D01*
X09036Y0292D02*
X09064D01*
X0905Y02906D02*
Y02934D01*
X09036Y0308D02*
X09064D01*
X0905Y03066D02*
Y03094D01*
X0881Y0222D02*
X08829D01*
X0882Y0221D02*
Y02229D01*
X0877Y0222D02*
X08789D01*
X08779Y0221D02*
Y02229D01*
X0873Y0222D02*
X08749D01*
X0874Y0221D02*
Y02229D01*
X08866Y0262D02*
X08893D01*
X0888Y02606D02*
Y02634D01*
X08926Y03219D02*
X08954D01*
X0894Y03205D02*
Y03233D01*
X08796Y03119D02*
X08824D01*
X0881Y03105D02*
Y03133D01*
X08936Y033D02*
X08964D01*
X0895Y03286D02*
Y03314D01*
X0132Y0337D02*
X01348D01*
X01334Y03356D02*
Y03384D01*
X01315Y0353D02*
X01343D01*
X01329Y03516D02*
Y03544D01*
X05198Y04029D02*
X05226D01*
X05212Y04015D02*
Y04043D01*
X08123Y04029D02*
X08151D01*
X08136Y04015D02*
Y04043D01*
X0534Y0403D02*
X05359D01*
X0535Y0402D02*
Y04039D01*
X0534Y0411D02*
X05359D01*
X0535Y041D02*
Y04119D01*
X0534Y0407D02*
X05359D01*
X0535Y0406D02*
Y04079D01*
X0538Y0411D02*
X05399D01*
X0539Y041D02*
Y04119D01*
X0538Y0407D02*
X05399D01*
X0539Y0406D02*
Y04079D01*
X0538Y0403D02*
X05399D01*
X0539Y0402D02*
Y04039D01*
X0331Y0416D02*
X03329D01*
X0332Y0415D02*
Y04169D01*
X0331Y0412D02*
X03329D01*
X0332Y0411D02*
Y04129D01*
X0331Y0408D02*
X03329D01*
X0332Y0407D02*
Y04089D01*
X0327Y0408D02*
X03289D01*
X0328Y0407D02*
Y04089D01*
X0327Y0412D02*
X03289D01*
X0328Y0411D02*
Y04129D01*
X0327Y0416D02*
X03289D01*
X0328Y0415D02*
Y04169D01*
X05316Y02214D02*
X05335D01*
X05325Y02205D02*
Y02224D01*
X05001Y01195D02*
X0502D01*
X05011Y01185D02*
Y01205D01*
X05925Y02192D02*
X05945D01*
X05935Y02182D02*
Y02202D01*
X05746Y02194D02*
X05766D01*
X05756Y02184D02*
Y02203D01*
X05419Y02021D02*
X05438D01*
X05429Y02011D02*
Y02031D01*
X0459Y02212D02*
X04609D01*
X046Y02202D02*
Y02222D01*
X04408Y02214D02*
X04427D01*
X04418Y02204D02*
Y02224D01*
X04722Y01759D02*
X0475D01*
X04736Y01745D02*
Y01773D01*
X04722Y01826D02*
X0475D01*
X04736Y01812D02*
Y0184D01*
X03745Y02496D02*
X03773D01*
X03759Y02482D02*
Y0251D01*
X04155Y01145D02*
X04183D01*
X04169Y01131D02*
Y01159D01*
X03501Y0131D02*
X03529D01*
X03515Y01296D02*
Y01324D01*
X04072Y01732D02*
X041D01*
X04086Y01718D02*
Y01746D01*
X04072Y01673D02*
X041D01*
X04086Y01659D02*
Y01687D01*
X03167Y01692D02*
X03195D01*
X03181Y01678D02*
Y01706D01*
X03861Y01683D02*
X03889D01*
X03875Y01669D02*
Y01697D01*
X03861Y01743D02*
X03889D01*
X03875Y01729D02*
Y01757D01*
X03861Y01803D02*
X03889D01*
X03875Y01789D02*
Y01817D01*
X03731Y01683D02*
X03759D01*
X03745Y01669D02*
Y01697D01*
X03661Y01683D02*
X03689D01*
X03675Y01669D02*
Y01697D01*
X03861Y01923D02*
X03889D01*
X03875Y01909D02*
Y01937D01*
X03861Y01863D02*
X03889D01*
X03875Y01849D02*
Y01877D01*
X03801Y01683D02*
X03829D01*
X03815Y01669D02*
Y01697D01*
X03478Y01846D02*
X03506D01*
X03492Y01832D02*
Y0186D01*
X03478Y01779D02*
X03506D01*
X03492Y01765D02*
Y01793D01*
X03478Y01708D02*
X03506D01*
X03492Y01694D02*
Y01722D01*
X03478Y01917D02*
X03506D01*
X03492Y01903D02*
Y01931D01*
X04994Y02495D02*
X05022D01*
X05008Y02481D02*
Y02509D01*
X04764Y03199D02*
X04792D01*
X04778Y03185D02*
Y03213D01*
X06087Y03199D02*
X06115D01*
X06101Y03185D02*
Y03213D01*
X07438Y03203D02*
X07466D01*
X07452Y03189D02*
Y03217D01*
X04249Y02094D02*
X04277D01*
X04263Y0208D02*
Y02108D01*
X04249Y02031D02*
X04277D01*
X04263Y02017D02*
Y02045D01*
X04249Y01968D02*
X04277D01*
X04263Y01954D02*
Y01982D01*
X04249Y01909D02*
X04277D01*
X04263Y01895D02*
Y01923D01*
X04249Y01846D02*
X04277D01*
X04263Y01832D02*
Y0186D01*
X04249Y01783D02*
X04277D01*
X04263Y01769D02*
Y01797D01*
X03005Y02094D02*
X03033D01*
X03019Y0208D02*
Y02108D01*
X03005Y02031D02*
X03033D01*
X03019Y02017D02*
Y02045D01*
X03005Y01968D02*
X03033D01*
X03019Y01954D02*
Y01982D01*
X03005Y01905D02*
X03033D01*
X03019Y01891D02*
Y01919D01*
X03005Y01842D02*
X03033D01*
X03019Y01828D02*
Y01856D01*
X03005Y01779D02*
X03033D01*
X03019Y01765D02*
Y01793D01*
X05576Y01771D02*
X05604D01*
X0559Y01757D02*
Y01785D01*
X05576Y01834D02*
X05604D01*
X0559Y0182D02*
Y01848D01*
X05576Y01897D02*
X05604D01*
X0559Y01883D02*
Y01911D01*
X05576Y0196D02*
X05604D01*
X0559Y01946D02*
Y01974D01*
X05576Y02023D02*
X05604D01*
X0559Y02009D02*
Y02037D01*
X05576Y02086D02*
X05604D01*
X0559Y02072D02*
Y021D01*
X06934Y02094D02*
X06962D01*
X06948Y0208D02*
Y02108D01*
X06934Y02031D02*
X06962D01*
X06948Y02017D02*
Y02045D01*
X06934Y01968D02*
X06962D01*
X06948Y01954D02*
Y01982D01*
X06934Y01905D02*
X06962D01*
X06948Y01891D02*
Y01919D01*
X06934Y01842D02*
X06962D01*
X06948Y01828D02*
Y01856D01*
X06934Y01779D02*
X06962D01*
X06948Y01765D02*
Y01793D01*
X06312Y02488D02*
X0634D01*
X06326Y02474D02*
Y02502D01*
X07663Y02492D02*
X07691D01*
X07677Y02478D02*
Y02506D01*
X06058Y01816D02*
X06086D01*
X06072Y01802D02*
Y0183D01*
X06058Y01749D02*
X06086D01*
X06072Y01735D02*
Y01763D01*
X06438Y01669D02*
X06466D01*
X06452Y01655D02*
Y01683D01*
X06438Y01729D02*
X06466D01*
X06452Y01715D02*
Y01743D01*
X06438Y01789D02*
X06466D01*
X06452Y01775D02*
Y01803D01*
X06308Y01669D02*
X06336D01*
X06322Y01655D02*
Y01683D01*
X06238Y01669D02*
X06266D01*
X06252Y01655D02*
Y01683D01*
X06058Y01678D02*
X06086D01*
X06072Y01664D02*
Y01692D01*
X06058Y01887D02*
X06086D01*
X06072Y01873D02*
Y01901D01*
X06438Y01909D02*
X06466D01*
X06452Y01895D02*
Y01923D01*
X06438Y01849D02*
X06466D01*
X06452Y01835D02*
Y01863D01*
X06378Y01669D02*
X06406D01*
X06392Y01655D02*
Y01683D01*
X07737Y01681D02*
X07765D01*
X07751Y01667D02*
Y01695D01*
X07797Y01861D02*
X07825D01*
X07811Y01847D02*
Y01875D01*
X07797Y01921D02*
X07825D01*
X07811Y01907D02*
Y01935D01*
X07417Y01898D02*
X07445D01*
X07431Y01884D02*
Y01912D01*
X0745Y01681D02*
X07478D01*
X07464Y01667D02*
Y01695D01*
X07597Y01681D02*
X07625D01*
X07611Y01667D02*
Y01695D01*
X07667Y01681D02*
X07695D01*
X07681Y01667D02*
Y01695D01*
X07797Y01801D02*
X07825D01*
X07811Y01787D02*
Y01815D01*
X07797Y01741D02*
X07825D01*
X07811Y01727D02*
Y01755D01*
X07797Y01681D02*
X07825D01*
X07811Y01667D02*
Y01695D01*
X07417Y01761D02*
X07445D01*
X07431Y01747D02*
Y01775D01*
X07417Y01828D02*
X07445D01*
X07431Y01814D02*
Y01842D01*
X05989Y01389D02*
X06017D01*
X06003Y01375D02*
Y01403D01*
X06635Y01755D02*
X06663D01*
X06649Y01741D02*
Y01769D01*
X06635Y01685D02*
X06663D01*
X06649Y01671D02*
Y01699D01*
X05737Y01688D02*
X05765D01*
X05751Y01674D02*
Y01702D01*
X03509Y03283D02*
X03537D01*
X03523Y03269D02*
Y03297D01*
X04753Y03271D02*
X04781D01*
X04767Y03257D02*
Y03285D01*
X0608Y03271D02*
X06108D01*
X06094Y03257D02*
Y03285D01*
X07434Y03279D02*
X07462D01*
X07448Y03265D02*
Y03293D01*
X08848Y02832D02*
X08876D01*
X08862Y02818D02*
Y02846D01*
M02*