%FSTAX23Y23*%
%MOIN*%
%SFA1B1*%

%IPPOS*%
%ADD75C,0.005000*%
%LNlv1_drillmap_1-1*%
%LPD*%
G54D75*
X01193Y02281D02*
X01244D01*
X01219Y02255D02*
Y02306D01*
X01193Y02005D02*
X01244D01*
X01219Y01979D02*
Y0203D01*
X01101Y02054D02*
X0114D01*
X0112Y02035D02*
Y02074D01*
X01101Y02231D02*
X0114D01*
X0112Y02212D02*
Y02251D01*
X00965Y0373D02*
X00997D01*
X00981Y03714D02*
Y03745D01*
X00965Y0383D02*
X00997D01*
X00981Y03814D02*
Y03845D01*
X00965Y0332D02*
X00997D01*
X00981Y03304D02*
Y03335D01*
X00965Y0322D02*
X00997D01*
X00981Y03204D02*
Y03235D01*
X00965Y0358D02*
X00997D01*
X00981Y03564D02*
Y03595D01*
X00965Y0348D02*
X00997D01*
X00981Y03464D02*
Y03495D01*
X00965Y0181D02*
X00997D01*
X00981Y01794D02*
Y01825D01*
X00965Y0171D02*
X00997D01*
X00981Y01694D02*
Y01725D01*
X00965Y0156D02*
X00997D01*
X00981Y01544D02*
Y01575D01*
X00965Y0146D02*
X00997D01*
X00981Y01444D02*
Y01475D01*
X00965Y0131D02*
X00997D01*
X00981Y01294D02*
Y01325D01*
X00965Y0121D02*
X00997D01*
X00981Y01194D02*
Y01225D01*
X00965Y0106D02*
X00997D01*
X00981Y01044D02*
Y01075D01*
X00965Y0096D02*
X00997D01*
X00981Y00944D02*
Y00975D01*
X00901Y0287D02*
X00939D01*
X0092Y02851D02*
Y02889D01*
X01001Y0287D02*
X01039D01*
X0102Y02851D02*
Y02889D01*
X01001Y0277D02*
X01039D01*
X0102Y02751D02*
Y02789D01*
X00901Y0277D02*
X00939D01*
X0092Y02751D02*
Y02789D01*
X00901Y0267D02*
X00939D01*
X0092Y02651D02*
Y02689D01*
X01001Y0267D02*
X01039D01*
X0102Y02651D02*
Y02689D01*
X00901Y0257D02*
X00939D01*
X0092Y02551D02*
Y02589D01*
X01001Y0257D02*
X01039D01*
X0102Y02551D02*
Y02589D01*
X00901Y0247D02*
X00939D01*
X0092Y02451D02*
Y02489D01*
X01001Y0247D02*
X01039D01*
X0102Y02451D02*
Y02489D01*
X0933Y03912D02*
X09369D01*
X0935Y03892D02*
Y03931D01*
X0933Y03812D02*
X09369D01*
X0935Y03792D02*
Y03831D01*
X0933Y03712D02*
X09369D01*
X0935Y03692D02*
Y03731D01*
X0933Y03612D02*
X09369D01*
X0935Y03592D02*
Y03631D01*
X0933Y03512D02*
X09369D01*
X0935Y03492D02*
Y03531D01*
X0933Y03412D02*
X09369D01*
X0935Y03392D02*
Y03431D01*
X0933Y03312D02*
X09369D01*
X0935Y03292D02*
Y03331D01*
X0933Y03212D02*
X09369D01*
X0935Y03192D02*
Y03231D01*
X0933Y03112D02*
X09369D01*
X0935Y03092D02*
Y03131D01*
X0933Y03012D02*
X09369D01*
X0935Y02992D02*
Y03031D01*
X0933Y02912D02*
X09369D01*
X0935Y02892D02*
Y02931D01*
X0933Y02812D02*
X09369D01*
X0935Y02792D02*
Y02831D01*
X0933Y02712D02*
X09369D01*
X0935Y02692D02*
Y02731D01*
X0933Y02612D02*
X09369D01*
X0935Y02592D02*
Y02631D01*
X0933Y02512D02*
X09369D01*
X0935Y02492D02*
Y02531D01*
X0933Y02412D02*
X09369D01*
X0935Y02392D02*
Y02431D01*
X0933Y02312D02*
X09369D01*
X0935Y02292D02*
Y02331D01*
X0933Y02212D02*
X09369D01*
X0935Y02192D02*
Y02231D01*
X0933Y02112D02*
X09369D01*
X0935Y02092D02*
Y02131D01*
X0933Y02012D02*
X09369D01*
X0935Y01992D02*
Y02031D01*
X0933Y01912D02*
X09369D01*
X0935Y01892D02*
Y01931D01*
X0933Y01812D02*
X09369D01*
X0935Y01792D02*
Y01831D01*
X0933Y01712D02*
X09369D01*
X0935Y01692D02*
Y01731D01*
X0933Y01612D02*
X09369D01*
X0935Y01592D02*
Y01631D01*
X0933Y01512D02*
X09369D01*
X0935Y01492D02*
Y01531D01*
X0933Y01412D02*
X09369D01*
X0935Y01392D02*
Y01431D01*
X0933Y01312D02*
X09369D01*
X0935Y01292D02*
Y01331D01*
X0933Y01212D02*
X09369D01*
X0935Y01192D02*
Y01231D01*
X0933Y01112D02*
X09369D01*
X0935Y01092D02*
Y01131D01*
X0933Y01012D02*
X09369D01*
X0935Y00992D02*
Y01031D01*
X0933Y00912D02*
X09369D01*
X0935Y00892D02*
Y00931D01*
X0933Y00812D02*
X09369D01*
X0935Y00792D02*
Y00831D01*
X0913Y03912D02*
X09169D01*
X0915Y03892D02*
Y03931D01*
X0913Y03812D02*
X09169D01*
X0915Y03792D02*
Y03831D01*
X0913Y03712D02*
X09169D01*
X0915Y03692D02*
Y03731D01*
X0913Y03612D02*
X09169D01*
X0915Y03592D02*
Y03631D01*
X0913Y03512D02*
X09169D01*
X0915Y03492D02*
Y03531D01*
X0913Y03412D02*
X09169D01*
X0915Y03392D02*
Y03431D01*
X0913Y03312D02*
X09169D01*
X0915Y03292D02*
Y03331D01*
X0913Y03212D02*
X09169D01*
X0915Y03192D02*
Y03231D01*
X0913Y03112D02*
X09169D01*
X0915Y03092D02*
Y03131D01*
X0913Y03012D02*
X09169D01*
X0915Y02992D02*
Y03031D01*
X0913Y02912D02*
X09169D01*
X0915Y02892D02*
Y02931D01*
X0913Y02812D02*
X09169D01*
X0915Y02792D02*
Y02831D01*
X0913Y02712D02*
X09169D01*
X0915Y02692D02*
Y02731D01*
X0913Y02612D02*
X09169D01*
X0915Y02592D02*
Y02631D01*
X0913Y02512D02*
X09169D01*
X0915Y02492D02*
Y02531D01*
X0913Y02412D02*
X09169D01*
X0915Y02392D02*
Y02431D01*
X0913Y02312D02*
X09169D01*
X0915Y02292D02*
Y02331D01*
X0913Y02212D02*
X09169D01*
X0915Y02192D02*
Y02231D01*
X0913Y02112D02*
X09169D01*
X0915Y02092D02*
Y02131D01*
X0913Y02012D02*
X09169D01*
X0915Y01992D02*
Y02031D01*
X0913Y01912D02*
X09169D01*
X0915Y01892D02*
Y01931D01*
X0913Y01812D02*
X09169D01*
X0915Y01792D02*
Y01831D01*
X0913Y01712D02*
X09169D01*
X0915Y01692D02*
Y01731D01*
X0913Y01612D02*
X09169D01*
X0915Y01592D02*
Y01631D01*
X0913Y01512D02*
X09169D01*
X0915Y01492D02*
Y01531D01*
X0913Y01412D02*
X09169D01*
X0915Y01392D02*
Y01431D01*
X0913Y01312D02*
X09169D01*
X0915Y01292D02*
Y01331D01*
X0913Y01212D02*
X09169D01*
X0915Y01192D02*
Y01231D01*
X0913Y01112D02*
X09169D01*
X0915Y01092D02*
Y01131D01*
X0913Y01012D02*
X09169D01*
X0915Y00992D02*
Y01031D01*
X0913Y00912D02*
X09169D01*
X0915Y00892D02*
Y00931D01*
X0913Y00812D02*
X09169D01*
X0915Y00792D02*
Y00831D01*
X09394Y04112D02*
X09505D01*
X0945Y04057D02*
Y04167D01*
X09394Y00612D02*
X09505D01*
X0945Y00557D02*
Y00667D01*
X03105Y0349D02*
X03135D01*
X0312Y03475D02*
Y03505D01*
X03105Y036D02*
X03135D01*
X0312Y03585D02*
Y03615D01*
X00951Y04111D02*
X01061D01*
X01006Y04056D02*
Y04167D01*
X00951Y00612D02*
X01061D01*
X01006Y00557D02*
Y00667D01*
X04408Y02214D02*
X04427D01*
X04418Y02204D02*
Y02224D01*
X0459Y02212D02*
X04609D01*
X046Y02202D02*
Y02222D01*
X05419Y02021D02*
X05438D01*
X05429Y02011D02*
Y02031D01*
X05746Y02194D02*
X05766D01*
X05756Y02184D02*
Y02203D01*
X05925Y02192D02*
X05945D01*
X05935Y02182D02*
Y02202D01*
X05001Y01195D02*
X0502D01*
X05011Y01185D02*
Y01205D01*
X05316Y02214D02*
X05335D01*
X05325Y02205D02*
Y02224D01*
X0327Y0416D02*
X03289D01*
X0328Y0415D02*
Y04169D01*
X0327Y0412D02*
X03289D01*
X0328Y0411D02*
Y04129D01*
X0327Y0408D02*
X03289D01*
X0328Y0407D02*
Y04089D01*
X0331Y0408D02*
X03329D01*
X0332Y0407D02*
Y04089D01*
X0331Y0412D02*
X03329D01*
X0332Y0411D02*
Y04129D01*
X0331Y0416D02*
X03329D01*
X0332Y0415D02*
Y04169D01*
X0538Y0403D02*
X05399D01*
X0539Y0402D02*
Y04039D01*
X0538Y0407D02*
X05399D01*
X0539Y0406D02*
Y04079D01*
X0538Y0411D02*
X05399D01*
X0539Y041D02*
Y04119D01*
X0534Y0407D02*
X05359D01*
X0535Y0406D02*
Y04079D01*
X0534Y0411D02*
X05359D01*
X0535Y041D02*
Y04119D01*
X0534Y0403D02*
X05359D01*
X0535Y0402D02*
Y04039D01*
X08123Y04029D02*
X08151D01*
X08136Y04015D02*
Y04043D01*
X05198Y04029D02*
X05226D01*
X05212Y04015D02*
Y04043D01*
X01315Y0353D02*
X01343D01*
X01329Y03516D02*
Y03544D01*
X0132Y0337D02*
X01348D01*
X01334Y03356D02*
Y03384D01*
X08936Y033D02*
X08964D01*
X0895Y03286D02*
Y03314D01*
X08796Y03119D02*
X08824D01*
X0881Y03105D02*
Y03133D01*
X08926Y03219D02*
X08954D01*
X0894Y03205D02*
Y03233D01*
X08866Y0262D02*
X08893D01*
X0888Y02606D02*
Y02634D01*
X0873Y0222D02*
X08749D01*
X0874Y0221D02*
Y02229D01*
X0877Y0222D02*
X08789D01*
X08779Y0221D02*
Y02229D01*
X0881Y0222D02*
X08829D01*
X0882Y0221D02*
Y02229D01*
X09036Y0308D02*
X09064D01*
X0905Y03066D02*
Y03094D01*
X09036Y0292D02*
X09064D01*
X0905Y02906D02*
Y02934D01*
X09051Y02465D02*
X09079D01*
X09065Y02451D02*
Y02479D01*
X09048Y02312D02*
X09076D01*
X09062Y02298D02*
Y02326D01*
X084Y0215D02*
X08419D01*
X0841Y0214D02*
Y02159D01*
X0836Y0222D02*
X08379D01*
X0837Y0221D02*
Y02229D01*
X0836Y0218D02*
X08379D01*
X0837Y0217D02*
Y02189D01*
X0836Y0213D02*
X08379D01*
X0837Y0212D02*
Y02139D01*
X0832Y0213D02*
X08339D01*
X0833Y0212D02*
Y02139D01*
X0832Y0218D02*
X08339D01*
X0833Y0217D02*
Y02189D01*
X0832Y0222D02*
X08339D01*
X0833Y0221D02*
Y02229D01*
X0828Y0213D02*
X08299D01*
X08289Y0212D02*
Y02139D01*
X0828Y0218D02*
X08299D01*
X08289Y0217D02*
Y02189D01*
X0828Y0222D02*
X08299D01*
X08289Y0221D02*
Y02229D01*
X0366Y0269D02*
X03679D01*
X0367Y0268D02*
Y02699D01*
X0369Y0273D02*
X03709D01*
X037Y0272D02*
Y02739D01*
X0372Y0277D02*
X03739D01*
X0373Y0276D02*
Y02779D01*
X0372Y0282D02*
X03739D01*
X0373Y0281D02*
Y02829D01*
X0368Y0286D02*
X03699D01*
X0369Y0285D02*
Y02869D01*
X0368Y028D02*
X03699D01*
X0369Y0279D02*
Y02809D01*
X03976Y0138D02*
X04004D01*
X0399Y01366D02*
Y01394D01*
X03976Y0144D02*
X04004D01*
X0399Y01426D02*
Y01454D01*
X03916Y0144D02*
X03944D01*
X0393Y01426D02*
Y01454D01*
X03916Y0138D02*
X03944D01*
X0393Y01366D02*
Y01394D01*
X03856Y0144D02*
X03884D01*
X0387Y01426D02*
Y01454D01*
X03856Y0138D02*
X03884D01*
X0387Y01366D02*
Y01394D01*
X03856Y0132D02*
X03884D01*
X0387Y01306D02*
Y01334D01*
X03916Y0132D02*
X03944D01*
X0393Y01306D02*
Y01334D01*
X03976Y0132D02*
X04004D01*
X0399Y01306D02*
Y01334D01*
X03796Y0138D02*
X03824D01*
X0381Y01366D02*
Y01394D01*
X03656Y0144D02*
X03684D01*
X0367Y01426D02*
Y01454D01*
X03726Y0132D02*
X03754D01*
X0374Y01306D02*
Y01334D01*
X03796Y0132D02*
X03824D01*
X0381Y01306D02*
Y01334D01*
X03586Y0138D02*
X03614D01*
X036Y01366D02*
Y01394D01*
X03586Y0144D02*
X03614D01*
X036Y01426D02*
Y01454D01*
X03526Y0144D02*
X03554D01*
X0354Y01426D02*
Y01454D01*
X03526Y0138D02*
X03554D01*
X0354Y01366D02*
Y01394D01*
X03466Y0144D02*
X03494D01*
X0348Y01426D02*
Y01454D01*
X03466Y0138D02*
X03494D01*
X0348Y01366D02*
Y01394D01*
X03466Y0132D02*
X03494D01*
X0348Y01306D02*
Y01334D01*
X03526Y0132D02*
X03554D01*
X0354Y01306D02*
Y01334D01*
X03586Y0132D02*
X03614D01*
X036Y01306D02*
Y01334D01*
X03796Y0144D02*
X03824D01*
X0381Y01426D02*
Y01454D01*
X03656Y0138D02*
X03684D01*
X0367Y01366D02*
Y01394D01*
X03656Y0132D02*
X03684D01*
X0367Y01306D02*
Y01334D01*
X03726Y0138D02*
X03754D01*
X0374Y01366D02*
Y01394D01*
X03726Y0144D02*
X03754D01*
X0374Y01426D02*
Y01454D01*
X03726Y0162D02*
X03754D01*
X0374Y01606D02*
Y01634D01*
X03726Y0156D02*
X03754D01*
X0374Y01546D02*
Y01574D01*
X03656Y015D02*
X03684D01*
X0367Y01486D02*
Y01514D01*
X03656Y0156D02*
X03684D01*
X0367Y01546D02*
Y01574D01*
X03796Y0168D02*
X03824D01*
X0381Y01666D02*
Y01694D01*
X03796Y0162D02*
X03824D01*
X0381Y01606D02*
Y01634D01*
X03586Y015D02*
X03614D01*
X036Y01486D02*
Y01514D01*
X03526Y015D02*
X03554D01*
X0354Y01486D02*
Y01514D01*
X03466Y015D02*
X03494D01*
X0348Y01486D02*
Y01514D01*
X03466Y0156D02*
X03494D01*
X0348Y01546D02*
Y01574D01*
X03466Y0162D02*
X03494D01*
X0348Y01606D02*
Y01634D01*
X03526Y0156D02*
X03554D01*
X0354Y01546D02*
Y01574D01*
X03526Y0162D02*
X03554D01*
X0354Y01606D02*
Y01634D01*
X03586Y0162D02*
X03614D01*
X036Y01606D02*
Y01634D01*
X03586Y0156D02*
X03614D01*
X036Y01546D02*
Y01574D01*
X03796Y015D02*
X03824D01*
X0381Y01486D02*
Y01514D01*
X03726Y015D02*
X03754D01*
X0374Y01486D02*
Y01514D01*
X03656Y0162D02*
X03684D01*
X0367Y01606D02*
Y01634D01*
X03796Y0156D02*
X03824D01*
X0381Y01546D02*
Y01574D01*
X03976Y015D02*
X04004D01*
X0399Y01486D02*
Y01514D01*
X03916Y015D02*
X03944D01*
X0393Y01486D02*
Y01514D01*
X03856Y015D02*
X03884D01*
X0387Y01486D02*
Y01514D01*
X03856Y0156D02*
X03884D01*
X0387Y01546D02*
Y01574D01*
X03856Y0162D02*
X03884D01*
X0387Y01606D02*
Y01634D01*
X03916Y0156D02*
X03944D01*
X0393Y01546D02*
Y01574D01*
X03916Y0162D02*
X03944D01*
X0393Y01606D02*
Y01634D01*
X03976Y0162D02*
X04004D01*
X0399Y01606D02*
Y01634D01*
X03976Y0156D02*
X04004D01*
X0399Y01546D02*
Y01574D01*
X03976Y0186D02*
X04004D01*
X0399Y01846D02*
Y01874D01*
X03916Y0186D02*
X03944D01*
X0393Y01846D02*
Y01874D01*
X03856Y0186D02*
X03884D01*
X0387Y01846D02*
Y01874D01*
X03856Y0192D02*
X03884D01*
X0387Y01906D02*
Y01934D01*
X03916Y0192D02*
X03944D01*
X0393Y01906D02*
Y01934D01*
X03976Y0192D02*
X04004D01*
X0399Y01906D02*
Y01934D01*
X0316Y0135D02*
X03179D01*
X0317Y0134D02*
Y01359D01*
X0316Y014D02*
X03179D01*
X0317Y0139D02*
Y01409D01*
X0316Y0145D02*
X03179D01*
X0317Y0144D02*
Y01459D01*
X0316Y015D02*
X03179D01*
X0317Y0149D02*
Y01509D01*
X0316Y0155D02*
X03179D01*
X0317Y0154D02*
Y01559D01*
X0316Y016D02*
X03179D01*
X0317Y0159D02*
Y01609D01*
X0321Y016D02*
X03229D01*
X0322Y0159D02*
Y01609D01*
X0321Y0155D02*
X03229D01*
X0322Y0154D02*
Y01559D01*
X0321Y015D02*
X03229D01*
X0322Y0149D02*
Y01509D01*
X0321Y0145D02*
X03229D01*
X0322Y0144D02*
Y01459D01*
X0321Y014D02*
X03229D01*
X0322Y0139D02*
Y01409D01*
X0321Y0135D02*
X03229D01*
X0322Y0134D02*
Y01359D01*
X0326Y016D02*
X03279D01*
X0327Y0159D02*
Y01609D01*
X0326Y0155D02*
X03279D01*
X0327Y0154D02*
Y01559D01*
X0326Y015D02*
X03279D01*
X0327Y0149D02*
Y01509D01*
X0326Y0145D02*
X03279D01*
X0327Y0144D02*
Y01459D01*
X0326Y014D02*
X03279D01*
X0327Y0139D02*
Y01409D01*
X0326Y0135D02*
X03279D01*
X0327Y0134D02*
Y01359D01*
X0321Y0165D02*
X03229D01*
X0322Y0164D02*
Y01659D01*
X0321Y017D02*
X03229D01*
X0322Y0169D02*
Y01709D01*
X0321Y0175D02*
X03229D01*
X0322Y0174D02*
Y01759D01*
X0321Y018D02*
X03229D01*
X0322Y0179D02*
Y01809D01*
X0321Y0185D02*
X03229D01*
X0322Y0184D02*
Y01859D01*
X0321Y019D02*
X03229D01*
X0322Y0189D02*
Y01909D01*
X0321Y0195D02*
X03229D01*
X0322Y0194D02*
Y01959D01*
X0316Y0165D02*
X03179D01*
X0317Y0164D02*
Y01659D01*
X0316Y017D02*
X03179D01*
X0317Y0169D02*
Y01709D01*
X0316Y0175D02*
X03179D01*
X0317Y0174D02*
Y01759D01*
X0316Y018D02*
X03179D01*
X0317Y0179D02*
Y01809D01*
X0316Y0185D02*
X03179D01*
X0317Y0184D02*
Y01859D01*
X0316Y019D02*
X03179D01*
X0317Y0189D02*
Y01909D01*
X0316Y0195D02*
X03179D01*
X0317Y0194D02*
Y01959D01*
X0311Y0135D02*
X03129D01*
X0312Y0134D02*
Y01359D01*
X0311Y014D02*
X03129D01*
X0312Y0139D02*
Y01409D01*
X0311Y0145D02*
X03129D01*
X0312Y0144D02*
Y01459D01*
X0311Y015D02*
X03129D01*
X0312Y0149D02*
Y01509D01*
X0311Y0155D02*
X03129D01*
X0312Y0154D02*
Y01559D01*
X0311Y016D02*
X03129D01*
X0312Y0159D02*
Y01609D01*
X0311Y0165D02*
X03129D01*
X0312Y0164D02*
Y01659D01*
X0306Y0135D02*
X03079D01*
X0307Y0134D02*
Y01359D01*
X0306Y014D02*
X03079D01*
X0307Y0139D02*
Y01409D01*
X0306Y0145D02*
X03079D01*
X0307Y0144D02*
Y01459D01*
X0306Y015D02*
X03079D01*
X0307Y0149D02*
Y01509D01*
X0306Y0155D02*
X03079D01*
X0307Y0154D02*
Y01559D01*
X0306Y016D02*
X03079D01*
X0307Y0159D02*
Y01609D01*
X0306Y0165D02*
X03079D01*
X0307Y0164D02*
Y01659D01*
X0301Y0165D02*
X03029D01*
X0302Y0164D02*
Y01659D01*
X0301Y016D02*
X03029D01*
X0302Y0159D02*
Y01609D01*
X0301Y0155D02*
X03029D01*
X0302Y0154D02*
Y01559D01*
X0301Y015D02*
X03029D01*
X0302Y0149D02*
Y01509D01*
X0301Y0145D02*
X03029D01*
X0302Y0144D02*
Y01459D01*
X0301Y014D02*
X03029D01*
X0302Y0139D02*
Y01409D01*
X0301Y0135D02*
X03029D01*
X0302Y0134D02*
Y01359D01*
X0311Y021D02*
X03129D01*
X0312Y0209D02*
Y02109D01*
X0311Y0205D02*
X03129D01*
X0312Y0204D02*
Y02059D01*
X0311Y02D02*
X03129D01*
X0312Y0199D02*
Y02009D01*
X0311Y0195D02*
X03129D01*
X0312Y0194D02*
Y01959D01*
X0311Y019D02*
X03129D01*
X0312Y0189D02*
Y01909D01*
X0311Y0185D02*
X03129D01*
X0312Y0184D02*
Y01859D01*
X0311Y018D02*
X03129D01*
X0312Y0179D02*
Y01809D01*
X0311Y0175D02*
X03129D01*
X0312Y0174D02*
Y01759D01*
X0311Y017D02*
X03129D01*
X0312Y0169D02*
Y01709D01*
X0306Y021D02*
X03079D01*
X0307Y0209D02*
Y02109D01*
X0306Y0205D02*
X03079D01*
X0307Y0204D02*
Y02059D01*
X0306Y02D02*
X03079D01*
X0307Y0199D02*
Y02009D01*
X0306Y0195D02*
X03079D01*
X0307Y0194D02*
Y01959D01*
X0306Y019D02*
X03079D01*
X0307Y0189D02*
Y01909D01*
X0306Y0185D02*
X03079D01*
X0307Y0184D02*
Y01859D01*
X0306Y018D02*
X03079D01*
X0307Y0179D02*
Y01809D01*
X0306Y0175D02*
X03079D01*
X0307Y0174D02*
Y01759D01*
X0306Y017D02*
X03079D01*
X0307Y0169D02*
Y01709D01*
X0301Y017D02*
X03029D01*
X0302Y0169D02*
Y01709D01*
X0301Y0175D02*
X03029D01*
X0302Y0174D02*
Y01759D01*
X0301Y018D02*
X03029D01*
X0302Y0179D02*
Y01809D01*
X0301Y0185D02*
X03029D01*
X0302Y0184D02*
Y01859D01*
X0301Y019D02*
X03029D01*
X0302Y0189D02*
Y01909D01*
X0301Y0195D02*
X03029D01*
X0302Y0194D02*
Y01959D01*
X0301Y02D02*
X03029D01*
X0302Y0199D02*
Y02009D01*
X0301Y0205D02*
X03029D01*
X0302Y0204D02*
Y02059D01*
X0301Y021D02*
X03029D01*
X0302Y0209D02*
Y02109D01*
X0374Y0336D02*
X03759D01*
X0375Y0335D02*
Y03369D01*
X0374Y0326D02*
X03759D01*
X0375Y0325D02*
Y03269D01*
X0374Y0321D02*
X03759D01*
X0375Y032D02*
Y03219D01*
X0374Y0331D02*
X03759D01*
X0375Y033D02*
Y03319D01*
X0414Y0286D02*
X04159D01*
X0415Y0285D02*
Y02869D01*
X0409Y0286D02*
X04109D01*
X041Y0285D02*
Y02869D01*
X0404Y0286D02*
X04059D01*
X0405Y0285D02*
Y02869D01*
X0399Y0286D02*
X04009D01*
X04Y0285D02*
Y02869D01*
X0394Y0286D02*
X03959D01*
X0395Y0285D02*
Y02869D01*
X0389Y0286D02*
X03909D01*
X039Y0285D02*
Y02869D01*
X0389Y0291D02*
X03909D01*
X039Y029D02*
Y02919D01*
X0394Y0291D02*
X03959D01*
X0395Y029D02*
Y02919D01*
X0399Y0291D02*
X04009D01*
X04Y029D02*
Y02919D01*
X0404Y0291D02*
X04059D01*
X0405Y029D02*
Y02919D01*
X0409Y0291D02*
X04109D01*
X041Y029D02*
Y02919D01*
X0414Y0291D02*
X04159D01*
X0415Y029D02*
Y02919D01*
X0369Y0336D02*
X03709D01*
X037Y0335D02*
Y03369D01*
X0389Y0301D02*
X03909D01*
X039Y03D02*
Y03019D01*
X0394Y0301D02*
X03959D01*
X0395Y03D02*
Y03019D01*
X0399Y0301D02*
X04009D01*
X04Y03D02*
Y03019D01*
X0404Y0301D02*
X04059D01*
X0405Y03D02*
Y03019D01*
X0409Y0301D02*
X04109D01*
X041Y03D02*
Y03019D01*
X0414Y0301D02*
X04159D01*
X0415Y03D02*
Y03019D01*
X0414Y0296D02*
X04159D01*
X0415Y0295D02*
Y02969D01*
X0409Y0296D02*
X04109D01*
X041Y0295D02*
Y02969D01*
X0404Y0296D02*
X04059D01*
X0405Y0295D02*
Y02969D01*
X0399Y0296D02*
X04009D01*
X04Y0295D02*
Y02969D01*
X0394Y0296D02*
X03959D01*
X0395Y0295D02*
Y02969D01*
X0389Y0296D02*
X03909D01*
X039Y0295D02*
Y02969D01*
X0384Y0296D02*
X03859D01*
X0385Y0295D02*
Y02969D01*
X0384Y0301D02*
X03859D01*
X0385Y03D02*
Y03019D01*
X0385Y0306D02*
X03869D01*
X0386Y0305D02*
Y03069D01*
X0389Y0306D02*
X03909D01*
X039Y0305D02*
Y03069D01*
X0394Y0306D02*
X03959D01*
X0395Y0305D02*
Y03069D01*
X0399Y0306D02*
X04009D01*
X04Y0305D02*
Y03069D01*
X0404Y0306D02*
X04059D01*
X0405Y0305D02*
Y03069D01*
X0409Y0306D02*
X04109D01*
X041Y0305D02*
Y03069D01*
X0414Y0306D02*
X04159D01*
X0415Y0305D02*
Y03069D01*
X0409Y0311D02*
X04109D01*
X041Y031D02*
Y03119D01*
X04041Y03109D02*
X0406D01*
X04051Y03099D02*
Y03118D01*
X0399Y0311D02*
X04009D01*
X04Y031D02*
Y03119D01*
X0394Y0311D02*
X03959D01*
X0395Y031D02*
Y03119D01*
X0389Y0311D02*
X03909D01*
X039Y031D02*
Y03119D01*
X0384Y0311D02*
X03859D01*
X0385Y031D02*
Y03119D01*
X0379Y0296D02*
X03809D01*
X038Y0295D02*
Y02969D01*
X0379Y0301D02*
X03809D01*
X038Y03D02*
Y03019D01*
X0379Y0306D02*
X03809D01*
X038Y0305D02*
Y03069D01*
X0379Y0311D02*
X03809D01*
X038Y031D02*
Y03119D01*
X0414Y0311D02*
X04159D01*
X0415Y031D02*
Y03119D01*
X0414Y0316D02*
X04159D01*
X0415Y0315D02*
Y03169D01*
X0409Y0316D02*
X04109D01*
X041Y0315D02*
Y03169D01*
X0404Y0316D02*
X04059D01*
X0405Y0315D02*
Y03169D01*
X0399Y0316D02*
X04009D01*
X04Y0315D02*
Y03169D01*
X0394Y0316D02*
X03959D01*
X0395Y0315D02*
Y03169D01*
X0389Y0316D02*
X03909D01*
X039Y0315D02*
Y03169D01*
X0384Y0316D02*
X03859D01*
X0385Y0315D02*
Y03169D01*
X0389Y0321D02*
X03909D01*
X039Y032D02*
Y03219D01*
X0384Y0321D02*
X03859D01*
X0385Y032D02*
Y03219D01*
X0379Y0321D02*
X03809D01*
X038Y032D02*
Y03219D01*
X0389Y0326D02*
X03909D01*
X039Y0325D02*
Y03269D01*
X0384Y0326D02*
X03859D01*
X0385Y0325D02*
Y03269D01*
X0379Y0326D02*
X03809D01*
X038Y0325D02*
Y03269D01*
X0379Y0331D02*
X03809D01*
X038Y033D02*
Y03319D01*
X0384Y0331D02*
X03859D01*
X0385Y033D02*
Y03319D01*
X0389Y0331D02*
X03909D01*
X039Y033D02*
Y03319D01*
X0379Y0336D02*
X03809D01*
X038Y0335D02*
Y03369D01*
X0384Y0336D02*
X03859D01*
X0385Y0335D02*
Y03369D01*
X0389Y0336D02*
X03909D01*
X039Y0335D02*
Y03369D01*
X0411Y024D02*
X04129D01*
X0412Y0239D02*
Y02409D01*
X0404Y0244D02*
X04059D01*
X0405Y0243D02*
Y02449D01*
X0336Y0284D02*
X03379D01*
X0337Y0283D02*
Y02849D01*
X0336Y028D02*
X03379D01*
X0337Y0279D02*
Y02809D01*
X0336Y0276D02*
X03379D01*
X0337Y0275D02*
Y02769D01*
X0336Y0272D02*
X03379D01*
X0337Y0271D02*
Y02729D01*
X0336Y026D02*
X03379D01*
X0337Y0259D02*
Y02609D01*
X0338Y0256D02*
X03399D01*
X0339Y0255D02*
Y02569D01*
X0338Y0252D02*
X03399D01*
X0339Y0251D02*
Y02529D01*
X0338Y0248D02*
X03399D01*
X0339Y0247D02*
Y02489D01*
X0342Y0248D02*
X03439D01*
X0343Y0247D02*
Y02489D01*
X0342Y0252D02*
X03439D01*
X0343Y0251D02*
Y02529D01*
X0346Y0248D02*
X03479D01*
X0347Y0247D02*
Y02489D01*
X0338Y0244D02*
X03399D01*
X0339Y0243D02*
Y02449D01*
X0338Y024D02*
X03399D01*
X0339Y0239D02*
Y02409D01*
X0342Y024D02*
X03439D01*
X0343Y0239D02*
Y02409D01*
X0342Y0244D02*
X03439D01*
X0343Y0243D02*
Y02449D01*
X0346Y0244D02*
X03479D01*
X0347Y0243D02*
Y02449D01*
X0346Y024D02*
X03479D01*
X0347Y0239D02*
Y02409D01*
X035Y0244D02*
X03519D01*
X0351Y0243D02*
Y02449D01*
X035Y024D02*
X03519D01*
X0351Y0239D02*
Y02409D01*
X0354Y024D02*
X03559D01*
X0355Y0239D02*
Y02409D01*
X0354Y0244D02*
X03559D01*
X0355Y0243D02*
Y02449D01*
X0358Y0244D02*
X03599D01*
X0359Y0243D02*
Y02449D01*
X0358Y024D02*
X03599D01*
X0359Y0239D02*
Y02409D01*
X0362Y024D02*
X03639D01*
X0363Y0239D02*
Y02409D01*
X0362Y0244D02*
X03639D01*
X0363Y0243D02*
Y02449D01*
X0366Y0244D02*
X03679D01*
X0367Y0243D02*
Y02449D01*
X0366Y024D02*
X03679D01*
X0367Y0239D02*
Y02409D01*
X037Y024D02*
X03719D01*
X0371Y0239D02*
Y02409D01*
X037Y0244D02*
X03719D01*
X0371Y0243D02*
Y02449D01*
X0374Y0244D02*
X03759D01*
X0375Y0243D02*
Y02449D01*
X0374Y024D02*
X03759D01*
X0375Y0239D02*
Y02409D01*
X0378Y0244D02*
X03799D01*
X0379Y0243D02*
Y02449D01*
X0378Y024D02*
X03799D01*
X0379Y0239D02*
Y02409D01*
X0382Y024D02*
X03839D01*
X0383Y0239D02*
Y02409D01*
X0382Y0244D02*
X03839D01*
X0383Y0243D02*
Y02449D01*
X0386Y0244D02*
X03879D01*
X0387Y0243D02*
Y02449D01*
X0386Y024D02*
X03879D01*
X0387Y0239D02*
Y02409D01*
X0406Y024D02*
X04079D01*
X0407Y0239D02*
Y02409D01*
X0415Y024D02*
X04169D01*
X0416Y0239D02*
Y02409D01*
X01576Y0108D02*
X01604D01*
X0159Y01066D02*
Y01094D01*
X04146Y0108D02*
X04174D01*
X0416Y01066D02*
Y01094D01*
X05486Y0114D02*
X05514D01*
X055Y01126D02*
Y01154D01*
X04196Y0114D02*
X04224D01*
X0421Y01126D02*
Y01154D01*
X02916Y0126D02*
X02944D01*
X0293Y01246D02*
Y01274D01*
X04086Y0119D02*
X04114D01*
X041Y01176D02*
Y01204D01*
X03526Y0188D02*
X03554D01*
X0354Y01866D02*
Y01894D01*
X03586Y0188D02*
X03614D01*
X036Y01866D02*
Y01894D01*
X03526Y0168D02*
X03554D01*
X0354Y01666D02*
Y01694D01*
X03466Y0174D02*
X03494D01*
X0348Y01726D02*
Y01754D01*
X03526Y0174D02*
X03554D01*
X0354Y01726D02*
Y01754D01*
X03586Y0174D02*
X03614D01*
X036Y01726D02*
Y01754D01*
X03586Y0168D02*
X03614D01*
X036Y01666D02*
Y01694D01*
X03656Y0168D02*
X03684D01*
X0367Y01666D02*
Y01694D01*
X03726Y0168D02*
X03754D01*
X0374Y01666D02*
Y01694D01*
X03976Y0174D02*
X04004D01*
X0399Y01726D02*
Y01754D01*
X03976Y018D02*
X04004D01*
X0399Y01786D02*
Y01814D01*
X03916Y018D02*
X03944D01*
X0393Y01786D02*
Y01814D01*
X03916Y0174D02*
X03944D01*
X0393Y01726D02*
Y01754D01*
X03856Y018D02*
X03884D01*
X0387Y01786D02*
Y01814D01*
X03856Y0174D02*
X03884D01*
X0387Y01726D02*
Y01754D01*
X03856Y0168D02*
X03884D01*
X0387Y01666D02*
Y01694D01*
X03916Y0168D02*
X03944D01*
X0393Y01666D02*
Y01694D01*
X03976Y0168D02*
X04004D01*
X0399Y01666D02*
Y01694D01*
X04136Y03793D02*
X04164D01*
X0415Y03779D02*
Y03807D01*
X03776Y03743D02*
X03791D01*
X03784Y03735D02*
Y0375D01*
X03241Y03052D02*
X03269D01*
X03255Y03038D02*
Y03066D01*
X03672Y0381D02*
X03687D01*
X0368Y03802D02*
Y03817D01*
X02886Y022D02*
X02914D01*
X029Y02186D02*
Y02214D01*
X02856Y0238D02*
X02884D01*
X0287Y02366D02*
Y02394D01*
X03516Y032D02*
X03544D01*
X0353Y03186D02*
Y03214D01*
X0364Y0336D02*
X03659D01*
X0365Y0335D02*
Y03369D01*
X0359Y0336D02*
X03609D01*
X036Y0335D02*
Y03369D01*
X0354Y0336D02*
X03559D01*
X0355Y0335D02*
Y03369D01*
X0349Y0336D02*
X03509D01*
X035Y0335D02*
Y03369D01*
X0369Y0331D02*
X03709D01*
X037Y033D02*
Y03319D01*
X0364Y0331D02*
X03659D01*
X0365Y033D02*
Y03319D01*
X0359Y0331D02*
X03609D01*
X036Y033D02*
Y03319D01*
X0354Y0331D02*
X03559D01*
X0355Y033D02*
Y03319D01*
X0369Y0326D02*
X03709D01*
X037Y0325D02*
Y03269D01*
X0369Y0321D02*
X03709D01*
X037Y032D02*
Y03219D01*
X0364Y0326D02*
X03659D01*
X0365Y0325D02*
Y03269D01*
X0359Y0326D02*
X03609D01*
X036Y0325D02*
Y03269D01*
X0354Y0326D02*
X03559D01*
X0355Y0325D02*
Y03269D01*
X0364Y0321D02*
X03659D01*
X0365Y032D02*
Y03219D01*
X08442Y02957D02*
X08461D01*
X08451Y02947D02*
Y02967D01*
X08358Y02958D02*
X08377D01*
X08368Y02948D02*
Y02968D01*
X01964Y02568D02*
X01992D01*
X01978Y02554D02*
Y02582D01*
X01426Y02343D02*
X01454D01*
X0144Y02329D02*
Y02357D01*
X01901Y03481D02*
X01911D01*
X01906Y03476D02*
Y03486D01*
X01894Y03525D02*
X01904D01*
X01899Y0352D02*
Y0353D01*
X01832Y03216D02*
X01842D01*
X01837Y03211D02*
Y03221D01*
X01729Y03214D02*
X01739D01*
X01734Y03209D02*
Y03219D01*
X01763Y03212D02*
X01773D01*
X01768Y03207D02*
Y03217D01*
X01796Y03209D02*
X01806D01*
X01801Y03204D02*
Y03214D01*
X01352Y03905D02*
X0138D01*
X01366Y03891D02*
Y03919D01*
X017Y02584D02*
X01728D01*
X01714Y0257D02*
Y02598D01*
X01188Y02586D02*
X01216D01*
X01202Y02572D02*
Y026D01*
X02065Y02563D02*
X02093D01*
X02079Y02549D02*
Y02577D01*
X01902Y03095D02*
X01912D01*
X01907Y0309D02*
Y031D01*
X01909Y03051D02*
X01919D01*
X01914Y03046D02*
Y03056D01*
X01987Y03229D02*
X01997D01*
X01992Y03224D02*
Y03234D01*
X02021Y03299D02*
X02031D01*
X02026Y03294D02*
Y03304D01*
X01986Y03664D02*
X01996D01*
X01991Y03659D02*
Y03669D01*
X01768Y03684D02*
X01778D01*
X01773Y03679D02*
Y03689D01*
X01677Y03595D02*
X01687D01*
X01682Y0359D02*
Y036D01*
X0202Y03588D02*
X0203D01*
X02025Y03583D02*
Y03593D01*
X02075Y03524D02*
X02085D01*
X0208Y03519D02*
Y03529D01*
X02077Y03404D02*
X02087D01*
X02082Y03399D02*
Y03409D01*
X01806Y03423D02*
X01834D01*
X0182Y03409D02*
Y03437D01*
X01353Y03137D02*
X01363D01*
X01358Y03132D02*
Y03142D01*
X01632Y02585D02*
X0166D01*
X01646Y02571D02*
Y02599D01*
X01634Y02381D02*
X01662D01*
X01648Y02367D02*
Y02395D01*
X01761Y02415D02*
X01789D01*
X01775Y02401D02*
Y02429D01*
X019Y02418D02*
X01928D01*
X01914Y02404D02*
Y02432D01*
X02012Y02473D02*
X0204D01*
X02026Y02459D02*
Y02487D01*
X01701Y0252D02*
X01729D01*
X01715Y02506D02*
Y02534D01*
X04888Y03209D02*
X04908D01*
X04898Y03199D02*
Y03219D01*
X04788Y03259D02*
X04808D01*
X04798Y03249D02*
Y03269D01*
X04838Y03259D02*
X04858D01*
X04848Y03249D02*
Y03269D01*
X04888Y03259D02*
X04908D01*
X04898Y03249D02*
Y03269D01*
X04938Y03209D02*
X04958D01*
X04948Y03199D02*
Y03219D01*
X04938Y03259D02*
X04958D01*
X04948Y03249D02*
Y03269D01*
X04788Y03309D02*
X04808D01*
X04798Y03299D02*
Y03319D01*
X04838Y03309D02*
X04858D01*
X04848Y03299D02*
Y03319D01*
X04888Y03309D02*
X04908D01*
X04898Y03299D02*
Y03319D01*
X04938Y03309D02*
X04958D01*
X04948Y03299D02*
Y03319D01*
X04738Y03359D02*
X04758D01*
X04748Y03349D02*
Y03369D01*
X04788Y03359D02*
X04808D01*
X04798Y03349D02*
Y03369D01*
X04838Y03359D02*
X04858D01*
X04848Y03349D02*
Y03369D01*
X04888Y03359D02*
X04908D01*
X04898Y03349D02*
Y03369D01*
X04764Y03199D02*
X04792D01*
X04778Y03185D02*
Y03213D01*
X04921Y03809D02*
X04936D01*
X04928Y03801D02*
Y03816D01*
X0449Y03051D02*
X04518D01*
X04504Y03037D02*
Y03065D01*
X05025Y03742D02*
X0504D01*
X05032Y03734D02*
Y03749D01*
X05398Y02399D02*
X05418D01*
X05408Y02389D02*
Y02409D01*
X05308Y02399D02*
X05328D01*
X05318Y02389D02*
Y02409D01*
X04608Y02719D02*
X04628D01*
X04618Y02709D02*
Y02729D01*
X04608Y02759D02*
X04628D01*
X04618Y02749D02*
Y02769D01*
X04608Y02799D02*
X04628D01*
X04618Y02789D02*
Y02809D01*
X04608Y02839D02*
X04628D01*
X04618Y02829D02*
Y02849D01*
X05288Y02439D02*
X05308D01*
X05298Y02429D02*
Y02449D01*
X05358Y02399D02*
X05378D01*
X05368Y02389D02*
Y02409D01*
X05138Y03359D02*
X05158D01*
X05148Y03349D02*
Y03369D01*
X05088Y03359D02*
X05108D01*
X05098Y03349D02*
Y03369D01*
X05038Y03359D02*
X05058D01*
X05048Y03349D02*
Y03369D01*
X05138Y03309D02*
X05158D01*
X05148Y03299D02*
Y03319D01*
X05088Y03309D02*
X05108D01*
X05098Y03299D02*
Y03319D01*
X05038Y03309D02*
X05058D01*
X05048Y03299D02*
Y03319D01*
X05038Y03259D02*
X05058D01*
X05048Y03249D02*
Y03269D01*
X05088Y03259D02*
X05108D01*
X05098Y03249D02*
Y03269D01*
X05138Y03259D02*
X05158D01*
X05148Y03249D02*
Y03269D01*
X05038Y03209D02*
X05058D01*
X05048Y03199D02*
Y03219D01*
X05088Y03209D02*
X05108D01*
X05098Y03199D02*
Y03219D01*
X05138Y03209D02*
X05158D01*
X05148Y03199D02*
Y03219D01*
X05088Y03159D02*
X05108D01*
X05098Y03149D02*
Y03169D01*
X05138Y03159D02*
X05158D01*
X05148Y03149D02*
Y03169D01*
X05188Y03159D02*
X05208D01*
X05198Y03149D02*
Y03169D01*
X05238Y03159D02*
X05258D01*
X05248Y03149D02*
Y03169D01*
X05288Y03159D02*
X05308D01*
X05298Y03149D02*
Y03169D01*
X05338Y03159D02*
X05358D01*
X05348Y03149D02*
Y03169D01*
X05388Y03159D02*
X05408D01*
X05398Y03149D02*
Y03169D01*
X05388Y03109D02*
X05408D01*
X05398Y03099D02*
Y03119D01*
X05038Y03109D02*
X05058D01*
X05048Y03099D02*
Y03119D01*
X05038Y03059D02*
X05058D01*
X05048Y03049D02*
Y03069D01*
X05038Y03009D02*
X05058D01*
X05048Y02999D02*
Y03019D01*
X05038Y02959D02*
X05058D01*
X05048Y02949D02*
Y02969D01*
X05088Y03109D02*
X05108D01*
X05098Y03099D02*
Y03119D01*
X05138Y03109D02*
X05158D01*
X05148Y03099D02*
Y03119D01*
X05188Y03109D02*
X05208D01*
X05198Y03099D02*
Y03119D01*
X05238Y03109D02*
X05258D01*
X05248Y03099D02*
Y03119D01*
X05289Y03108D02*
X05309D01*
X05299Y03098D02*
Y03118D01*
X05338Y03109D02*
X05358D01*
X05348Y03099D02*
Y03119D01*
X05388Y03059D02*
X05408D01*
X05398Y03049D02*
Y03069D01*
X05338Y03059D02*
X05358D01*
X05348Y03049D02*
Y03069D01*
X05288Y03059D02*
X05308D01*
X05298Y03049D02*
Y03069D01*
X05238Y03059D02*
X05258D01*
X05248Y03049D02*
Y03069D01*
X05188Y03059D02*
X05208D01*
X05198Y03049D02*
Y03069D01*
X05138Y03059D02*
X05158D01*
X05148Y03049D02*
Y03069D01*
X05098Y03059D02*
X05118D01*
X05108Y03049D02*
Y03069D01*
X05088Y03009D02*
X05108D01*
X05098Y02999D02*
Y03019D01*
X05088Y02959D02*
X05108D01*
X05098Y02949D02*
Y02969D01*
X05138Y02959D02*
X05158D01*
X05148Y02949D02*
Y02969D01*
X05188Y02959D02*
X05208D01*
X05198Y02949D02*
Y02969D01*
X05238Y02959D02*
X05258D01*
X05248Y02949D02*
Y02969D01*
X05288Y02959D02*
X05308D01*
X05298Y02949D02*
Y02969D01*
X05338Y02959D02*
X05358D01*
X05348Y02949D02*
Y02969D01*
X05388Y02959D02*
X05408D01*
X05398Y02949D02*
Y02969D01*
X05388Y03009D02*
X05408D01*
X05398Y02999D02*
Y03019D01*
X05338Y03009D02*
X05358D01*
X05348Y02999D02*
Y03019D01*
X05288Y03009D02*
X05308D01*
X05298Y02999D02*
Y03019D01*
X05238Y03009D02*
X05258D01*
X05248Y02999D02*
Y03019D01*
X05188Y03009D02*
X05208D01*
X05198Y02999D02*
Y03019D01*
X05138Y03009D02*
X05158D01*
X05148Y02999D02*
Y03019D01*
X04938Y03359D02*
X04958D01*
X04948Y03349D02*
Y03369D01*
X05388Y02909D02*
X05408D01*
X05398Y02899D02*
Y02919D01*
X05338Y02909D02*
X05358D01*
X05348Y02899D02*
Y02919D01*
X05288Y02909D02*
X05308D01*
X05298Y02899D02*
Y02919D01*
X05238Y02909D02*
X05258D01*
X05248Y02899D02*
Y02919D01*
X05188Y02909D02*
X05208D01*
X05198Y02899D02*
Y02919D01*
X05138Y02909D02*
X05158D01*
X05148Y02899D02*
Y02919D01*
X05138Y02859D02*
X05158D01*
X05148Y02849D02*
Y02869D01*
X05188Y02859D02*
X05208D01*
X05198Y02849D02*
Y02869D01*
X05238Y02859D02*
X05258D01*
X05248Y02849D02*
Y02869D01*
X05288Y02859D02*
X05308D01*
X05298Y02849D02*
Y02869D01*
X05338Y02859D02*
X05358D01*
X05348Y02849D02*
Y02869D01*
X05388Y02859D02*
X05408D01*
X05398Y02849D02*
Y02869D01*
X04988Y03309D02*
X05008D01*
X04998Y03299D02*
Y03319D01*
X04988Y03209D02*
X05008D01*
X04998Y03199D02*
Y03219D01*
X04988Y03259D02*
X05008D01*
X04998Y03249D02*
Y03269D01*
X04988Y03359D02*
X05008D01*
X04998Y03349D02*
Y03369D01*
X04928Y02799D02*
X04948D01*
X04938Y02789D02*
Y02809D01*
X04928Y02859D02*
X04948D01*
X04938Y02849D02*
Y02869D01*
X04968Y02819D02*
X04988D01*
X04978Y02809D02*
Y02829D01*
X04968Y02769D02*
X04988D01*
X04978Y02759D02*
Y02779D01*
X04938Y02729D02*
X04958D01*
X04948Y02719D02*
Y02739D01*
X04908Y02689D02*
X04928D01*
X04918Y02679D02*
Y02699D01*
X06211Y03204D02*
X06231D01*
X06221Y03194D02*
Y03213D01*
X06111Y03254D02*
X06131D01*
X06121Y03244D02*
Y03263D01*
X06161Y03254D02*
X06181D01*
X06171Y03244D02*
Y03263D01*
X06211Y03254D02*
X06231D01*
X06221Y03244D02*
Y03263D01*
X06261Y03204D02*
X06281D01*
X06271Y03194D02*
Y03213D01*
X06261Y03254D02*
X06281D01*
X06271Y03244D02*
Y03263D01*
X06111Y03304D02*
X06131D01*
X06121Y03294D02*
Y03313D01*
X06161Y03304D02*
X06181D01*
X06171Y03294D02*
Y03313D01*
X06211Y03304D02*
X06231D01*
X06221Y03294D02*
Y03313D01*
X06261Y03304D02*
X06281D01*
X06271Y03294D02*
Y03313D01*
X06061Y03354D02*
X06081D01*
X06071Y03344D02*
Y03363D01*
X06111Y03354D02*
X06131D01*
X06121Y03344D02*
Y03363D01*
X06161Y03354D02*
X06181D01*
X06171Y03344D02*
Y03363D01*
X06211Y03354D02*
X06231D01*
X06221Y03344D02*
Y03363D01*
X06087Y03194D02*
X06115D01*
X06101Y0318D02*
Y03208D01*
X06244Y03804D02*
X06259D01*
X06251Y03796D02*
Y03811D01*
X05813Y03046D02*
X05841D01*
X05827Y03032D02*
Y0306D01*
X06348Y03737D02*
X06363D01*
X06355Y03729D02*
Y03744D01*
X06707Y03787D02*
X06735D01*
X06721Y03773D02*
Y03801D01*
X06721Y02394D02*
X06741D01*
X06731Y02384D02*
Y02403D01*
X06631Y02394D02*
X06651D01*
X06641Y02384D02*
Y02403D01*
X06431Y02394D02*
X06451D01*
X06441Y02384D02*
Y02403D01*
X06431Y02434D02*
X06451D01*
X06441Y02424D02*
Y02443D01*
X06391Y02434D02*
X06411D01*
X06401Y02424D02*
Y02443D01*
X06391Y02394D02*
X06411D01*
X06401Y02384D02*
Y02403D01*
X06351Y02394D02*
X06371D01*
X06361Y02384D02*
Y02403D01*
X06351Y02434D02*
X06371D01*
X06361Y02424D02*
Y02443D01*
X06311Y02394D02*
X06331D01*
X06321Y02384D02*
Y02403D01*
X06311Y02434D02*
X06331D01*
X06321Y02424D02*
Y02443D01*
X06271Y02434D02*
X06291D01*
X06281Y02424D02*
Y02443D01*
X06271Y02394D02*
X06291D01*
X06281Y02384D02*
Y02403D01*
X06231Y02394D02*
X06251D01*
X06241Y02384D02*
Y02403D01*
X06231Y02434D02*
X06251D01*
X06241Y02424D02*
Y02443D01*
X06191Y02434D02*
X06211D01*
X06201Y02424D02*
Y02443D01*
X06191Y02394D02*
X06211D01*
X06201Y02384D02*
Y02403D01*
X06151Y02394D02*
X06171D01*
X06161Y02384D02*
Y02403D01*
X06151Y02434D02*
X06171D01*
X06161Y02424D02*
Y02443D01*
X06111Y02434D02*
X06131D01*
X06121Y02424D02*
Y02443D01*
X06111Y02394D02*
X06131D01*
X06121Y02384D02*
Y02403D01*
X06071Y02394D02*
X06091D01*
X06081Y02384D02*
Y02403D01*
X06071Y02434D02*
X06091D01*
X06081Y02424D02*
Y02443D01*
X06031Y02394D02*
X06051D01*
X06041Y02384D02*
Y02403D01*
X06031Y02434D02*
X06051D01*
X06041Y02424D02*
Y02443D01*
X05991Y02434D02*
X06011D01*
X06001Y02424D02*
Y02443D01*
X05991Y02394D02*
X06011D01*
X06001Y02384D02*
Y02403D01*
X05951Y02394D02*
X05971D01*
X05961Y02384D02*
Y02403D01*
X05951Y02434D02*
X05971D01*
X05961Y02424D02*
Y02443D01*
X06031Y02474D02*
X06051D01*
X06041Y02464D02*
Y02483D01*
X05991Y02514D02*
X06011D01*
X06001Y02504D02*
Y02523D01*
X05991Y02474D02*
X06011D01*
X06001Y02464D02*
Y02483D01*
X05951Y02474D02*
X05971D01*
X05961Y02464D02*
Y02483D01*
X05951Y02514D02*
X05971D01*
X05961Y02504D02*
Y02523D01*
X05951Y02554D02*
X05971D01*
X05961Y02544D02*
Y02563D01*
X05931Y02594D02*
X05951D01*
X05941Y02584D02*
Y02603D01*
X05931Y02714D02*
X05951D01*
X05941Y02704D02*
Y02723D01*
X05931Y02754D02*
X05951D01*
X05941Y02744D02*
Y02763D01*
X05931Y02794D02*
X05951D01*
X05941Y02784D02*
Y02803D01*
X05931Y02834D02*
X05951D01*
X05941Y02824D02*
Y02843D01*
X06611Y02434D02*
X06631D01*
X06621Y02424D02*
Y02443D01*
X06681Y02394D02*
X06701D01*
X06691Y02384D02*
Y02403D01*
X06461Y03354D02*
X06481D01*
X06471Y03344D02*
Y03363D01*
X06411Y03354D02*
X06431D01*
X06421Y03344D02*
Y03363D01*
X06361Y03354D02*
X06381D01*
X06371Y03344D02*
Y03363D01*
X06461Y03304D02*
X06481D01*
X06471Y03294D02*
Y03313D01*
X06411Y03304D02*
X06431D01*
X06421Y03294D02*
Y03313D01*
X06361Y03304D02*
X06381D01*
X06371Y03294D02*
Y03313D01*
X06361Y03254D02*
X06381D01*
X06371Y03244D02*
Y03263D01*
X06411Y03254D02*
X06431D01*
X06421Y03244D02*
Y03263D01*
X06461Y03254D02*
X06481D01*
X06471Y03244D02*
Y03263D01*
X06361Y03204D02*
X06381D01*
X06371Y03194D02*
Y03213D01*
X06411Y03204D02*
X06431D01*
X06421Y03194D02*
Y03213D01*
X06461Y03204D02*
X06481D01*
X06471Y03194D02*
Y03213D01*
X06411Y03154D02*
X06431D01*
X06421Y03144D02*
Y03163D01*
X06461Y03154D02*
X06481D01*
X06471Y03144D02*
Y03163D01*
X06511Y03154D02*
X06531D01*
X06521Y03144D02*
Y03163D01*
X06561Y03154D02*
X06581D01*
X06571Y03144D02*
Y03163D01*
X06611Y03154D02*
X06631D01*
X06621Y03144D02*
Y03163D01*
X06661Y03154D02*
X06681D01*
X06671Y03144D02*
Y03163D01*
X06711Y03154D02*
X06731D01*
X06721Y03144D02*
Y03163D01*
X06711Y03104D02*
X06731D01*
X06721Y03094D02*
Y03113D01*
X06361Y03104D02*
X06381D01*
X06371Y03094D02*
Y03113D01*
X06361Y03054D02*
X06381D01*
X06371Y03044D02*
Y03063D01*
X06361Y03004D02*
X06381D01*
X06371Y02994D02*
Y03013D01*
X06361Y02954D02*
X06381D01*
X06371Y02944D02*
Y02963D01*
X06411Y03104D02*
X06431D01*
X06421Y03094D02*
Y03113D01*
X06461Y03104D02*
X06481D01*
X06471Y03094D02*
Y03113D01*
X06511Y03104D02*
X06531D01*
X06521Y03094D02*
Y03113D01*
X06561Y03104D02*
X06581D01*
X06571Y03094D02*
Y03113D01*
X06612Y03103D02*
X06632D01*
X06622Y03093D02*
Y03112D01*
X06661Y03104D02*
X06681D01*
X06671Y03094D02*
Y03113D01*
X06711Y03054D02*
X06731D01*
X06721Y03044D02*
Y03063D01*
X06661Y03054D02*
X06681D01*
X06671Y03044D02*
Y03063D01*
X06611Y03054D02*
X06631D01*
X06621Y03044D02*
Y03063D01*
X06561Y03054D02*
X06581D01*
X06571Y03044D02*
Y03063D01*
X06511Y03054D02*
X06531D01*
X06521Y03044D02*
Y03063D01*
X06461Y03054D02*
X06481D01*
X06471Y03044D02*
Y03063D01*
X06421Y03054D02*
X06441D01*
X06431Y03044D02*
Y03063D01*
X06411Y03004D02*
X06431D01*
X06421Y02994D02*
Y03013D01*
X06411Y02954D02*
X06431D01*
X06421Y02944D02*
Y02963D01*
X06461Y02954D02*
X06481D01*
X06471Y02944D02*
Y02963D01*
X06511Y02954D02*
X06531D01*
X06521Y02944D02*
Y02963D01*
X06561Y02954D02*
X06581D01*
X06571Y02944D02*
Y02963D01*
X06611Y02954D02*
X06631D01*
X06621Y02944D02*
Y02963D01*
X06661Y02954D02*
X06681D01*
X06671Y02944D02*
Y02963D01*
X06711Y02954D02*
X06731D01*
X06721Y02944D02*
Y02963D01*
X06711Y03004D02*
X06731D01*
X06721Y02994D02*
Y03013D01*
X06661Y03004D02*
X06681D01*
X06671Y02994D02*
Y03013D01*
X06611Y03004D02*
X06631D01*
X06621Y02994D02*
Y03013D01*
X06561Y03004D02*
X06581D01*
X06571Y02994D02*
Y03013D01*
X06511Y03004D02*
X06531D01*
X06521Y02994D02*
Y03013D01*
X06461Y03004D02*
X06481D01*
X06471Y02994D02*
Y03013D01*
X06261Y03354D02*
X06281D01*
X06271Y03344D02*
Y03363D01*
X06711Y02904D02*
X06731D01*
X06721Y02894D02*
Y02913D01*
X06661Y02904D02*
X06681D01*
X06671Y02894D02*
Y02913D01*
X06611Y02904D02*
X06631D01*
X06621Y02894D02*
Y02913D01*
X06561Y02904D02*
X06581D01*
X06571Y02894D02*
Y02913D01*
X06511Y02904D02*
X06531D01*
X06521Y02894D02*
Y02913D01*
X06461Y02904D02*
X06481D01*
X06471Y02894D02*
Y02913D01*
X06461Y02854D02*
X06481D01*
X06471Y02844D02*
Y02863D01*
X06511Y02854D02*
X06531D01*
X06521Y02844D02*
Y02863D01*
X06561Y02854D02*
X06581D01*
X06571Y02844D02*
Y02863D01*
X06611Y02854D02*
X06631D01*
X06621Y02844D02*
Y02863D01*
X06661Y02854D02*
X06681D01*
X06671Y02844D02*
Y02863D01*
X06711Y02854D02*
X06731D01*
X06721Y02844D02*
Y02863D01*
X06311Y03304D02*
X06331D01*
X06321Y03294D02*
Y03313D01*
X06311Y03204D02*
X06331D01*
X06321Y03194D02*
Y03213D01*
X06311Y03254D02*
X06331D01*
X06321Y03244D02*
Y03263D01*
X06311Y03354D02*
X06331D01*
X06321Y03344D02*
Y03363D01*
X06251Y02794D02*
X06271D01*
X06261Y02784D02*
Y02803D01*
X06251Y02854D02*
X06271D01*
X06261Y02844D02*
Y02863D01*
X06291Y02814D02*
X06311D01*
X06301Y02804D02*
Y02823D01*
X06291Y02764D02*
X06311D01*
X06301Y02754D02*
Y02773D01*
X06261Y02724D02*
X06281D01*
X06271Y02714D02*
Y02733D01*
X06231Y02684D02*
X06251D01*
X06241Y02674D02*
Y02693D01*
X07567Y0321D02*
X07587D01*
X07577Y032D02*
Y0322D01*
X07467Y0326D02*
X07487D01*
X07477Y0325D02*
Y0327D01*
X07517Y0326D02*
X07537D01*
X07527Y0325D02*
Y0327D01*
X07567Y0326D02*
X07587D01*
X07577Y0325D02*
Y0327D01*
X07617Y0321D02*
X07637D01*
X07627Y032D02*
Y0322D01*
X07617Y0326D02*
X07637D01*
X07627Y0325D02*
Y0327D01*
X07467Y0331D02*
X07487D01*
X07477Y033D02*
Y0332D01*
X07517Y0331D02*
X07537D01*
X07527Y033D02*
Y0332D01*
X07567Y0331D02*
X07587D01*
X07577Y033D02*
Y0332D01*
X07617Y0331D02*
X07637D01*
X07627Y033D02*
Y0332D01*
X07417Y0336D02*
X07437D01*
X07427Y0335D02*
Y0337D01*
X07467Y0336D02*
X07487D01*
X07477Y0335D02*
Y0337D01*
X07517Y0336D02*
X07537D01*
X07527Y0335D02*
Y0337D01*
X07567Y0336D02*
X07587D01*
X07577Y0335D02*
Y0337D01*
X07443Y032D02*
X07471D01*
X07457Y03186D02*
Y03214D01*
X076Y0381D02*
X07615D01*
X07607Y03803D02*
Y03818D01*
X07169Y03053D02*
X07197D01*
X07183Y03039D02*
Y03067D01*
X07704Y03743D02*
X07719D01*
X07711Y03736D02*
Y03751D01*
X08063Y03793D02*
X08091D01*
X08077Y03779D02*
Y03807D01*
X08077Y024D02*
X08097D01*
X08087Y0239D02*
Y0241D01*
X07987Y024D02*
X08007D01*
X07997Y0239D02*
Y0241D01*
X07787Y024D02*
X07807D01*
X07797Y0239D02*
Y0241D01*
X07787Y0244D02*
X07807D01*
X07797Y0243D02*
Y0245D01*
X07747Y0244D02*
X07767D01*
X07757Y0243D02*
Y0245D01*
X07747Y024D02*
X07767D01*
X07757Y0239D02*
Y0241D01*
X07707Y024D02*
X07727D01*
X07717Y0239D02*
Y0241D01*
X07707Y0244D02*
X07727D01*
X07717Y0243D02*
Y0245D01*
X07667Y024D02*
X07687D01*
X07677Y0239D02*
Y0241D01*
X07667Y0244D02*
X07687D01*
X07677Y0243D02*
Y0245D01*
X07627Y0244D02*
X07647D01*
X07637Y0243D02*
Y0245D01*
X07627Y024D02*
X07647D01*
X07637Y0239D02*
Y0241D01*
X07587Y024D02*
X07607D01*
X07597Y0239D02*
Y0241D01*
X07587Y0244D02*
X07607D01*
X07597Y0243D02*
Y0245D01*
X07547Y0244D02*
X07567D01*
X07557Y0243D02*
Y0245D01*
X07547Y024D02*
X07567D01*
X07557Y0239D02*
Y0241D01*
X07507Y024D02*
X07527D01*
X07517Y0239D02*
Y0241D01*
X07507Y0244D02*
X07527D01*
X07517Y0243D02*
Y0245D01*
X07467Y0244D02*
X07487D01*
X07477Y0243D02*
Y0245D01*
X07467Y024D02*
X07487D01*
X07477Y0239D02*
Y0241D01*
X07427Y024D02*
X07447D01*
X07437Y0239D02*
Y0241D01*
X07427Y0244D02*
X07447D01*
X07437Y0243D02*
Y0245D01*
X07387Y024D02*
X07407D01*
X07397Y0239D02*
Y0241D01*
X07387Y0244D02*
X07407D01*
X07397Y0243D02*
Y0245D01*
X07347Y0244D02*
X07367D01*
X07357Y0243D02*
Y0245D01*
X07347Y024D02*
X07367D01*
X07357Y0239D02*
Y0241D01*
X07307Y024D02*
X07327D01*
X07317Y0239D02*
Y0241D01*
X07307Y0244D02*
X07327D01*
X07317Y0243D02*
Y0245D01*
X07387Y0248D02*
X07407D01*
X07397Y0247D02*
Y0249D01*
X07347Y0252D02*
X07367D01*
X07357Y0251D02*
Y0253D01*
X07347Y0248D02*
X07367D01*
X07357Y0247D02*
Y0249D01*
X07307Y0248D02*
X07327D01*
X07317Y0247D02*
Y0249D01*
X07307Y0252D02*
X07327D01*
X07317Y0251D02*
Y0253D01*
X07307Y0256D02*
X07327D01*
X07317Y0255D02*
Y0257D01*
X07287Y026D02*
X07307D01*
X07297Y0259D02*
Y0261D01*
X07287Y0272D02*
X07307D01*
X07297Y0271D02*
Y0273D01*
X07287Y0276D02*
X07307D01*
X07297Y0275D02*
Y0277D01*
X07287Y028D02*
X07307D01*
X07297Y0279D02*
Y0281D01*
X07287Y0284D02*
X07307D01*
X07297Y0283D02*
Y0285D01*
X07967Y0244D02*
X07987D01*
X07977Y0243D02*
Y0245D01*
X08037Y024D02*
X08057D01*
X08047Y0239D02*
Y0241D01*
X07817Y0336D02*
X07837D01*
X07827Y0335D02*
Y0337D01*
X07767Y0336D02*
X07787D01*
X07777Y0335D02*
Y0337D01*
X07717Y0336D02*
X07737D01*
X07727Y0335D02*
Y0337D01*
X07817Y0331D02*
X07837D01*
X07827Y033D02*
Y0332D01*
X07767Y0331D02*
X07787D01*
X07777Y033D02*
Y0332D01*
X07717Y0331D02*
X07737D01*
X07727Y033D02*
Y0332D01*
X07717Y0326D02*
X07737D01*
X07727Y0325D02*
Y0327D01*
X07767Y0326D02*
X07787D01*
X07777Y0325D02*
Y0327D01*
X07817Y0326D02*
X07837D01*
X07827Y0325D02*
Y0327D01*
X07717Y0321D02*
X07737D01*
X07727Y032D02*
Y0322D01*
X07767Y0321D02*
X07787D01*
X07777Y032D02*
Y0322D01*
X07817Y0321D02*
X07837D01*
X07827Y032D02*
Y0322D01*
X07767Y0316D02*
X07787D01*
X07777Y0315D02*
Y0317D01*
X07817Y0316D02*
X07837D01*
X07827Y0315D02*
Y0317D01*
X07867Y0316D02*
X07887D01*
X07877Y0315D02*
Y0317D01*
X07917Y0316D02*
X07937D01*
X07927Y0315D02*
Y0317D01*
X07967Y0316D02*
X07987D01*
X07977Y0315D02*
Y0317D01*
X08017Y0316D02*
X08037D01*
X08027Y0315D02*
Y0317D01*
X08067Y0316D02*
X08087D01*
X08077Y0315D02*
Y0317D01*
X08067Y0311D02*
X08087D01*
X08077Y031D02*
Y0312D01*
X07717Y0311D02*
X07737D01*
X07727Y031D02*
Y0312D01*
X07717Y0306D02*
X07737D01*
X07727Y0305D02*
Y0307D01*
X07717Y0301D02*
X07737D01*
X07727Y03D02*
Y0302D01*
X07717Y0296D02*
X07737D01*
X07727Y0295D02*
Y0297D01*
X07767Y0311D02*
X07787D01*
X07777Y031D02*
Y0312D01*
X07817Y0311D02*
X07837D01*
X07827Y031D02*
Y0312D01*
X07867Y0311D02*
X07887D01*
X07877Y031D02*
Y0312D01*
X07917Y0311D02*
X07937D01*
X07927Y031D02*
Y0312D01*
X07968Y03109D02*
X07988D01*
X07978Y03099D02*
Y03119D01*
X08017Y0311D02*
X08037D01*
X08027Y031D02*
Y0312D01*
X08067Y0306D02*
X08087D01*
X08077Y0305D02*
Y0307D01*
X08017Y0306D02*
X08037D01*
X08027Y0305D02*
Y0307D01*
X07967Y0306D02*
X07987D01*
X07977Y0305D02*
Y0307D01*
X07917Y0306D02*
X07937D01*
X07927Y0305D02*
Y0307D01*
X07867Y0306D02*
X07887D01*
X07877Y0305D02*
Y0307D01*
X07817Y0306D02*
X07837D01*
X07827Y0305D02*
Y0307D01*
X07777Y0306D02*
X07797D01*
X07787Y0305D02*
Y0307D01*
X07767Y0301D02*
X07787D01*
X07777Y03D02*
Y0302D01*
X07767Y0296D02*
X07787D01*
X07777Y0295D02*
Y0297D01*
X07817Y0296D02*
X07837D01*
X07827Y0295D02*
Y0297D01*
X07867Y0296D02*
X07887D01*
X07877Y0295D02*
Y0297D01*
X07917Y0296D02*
X07937D01*
X07927Y0295D02*
Y0297D01*
X07967Y0296D02*
X07987D01*
X07977Y0295D02*
Y0297D01*
X08017Y0296D02*
X08037D01*
X08027Y0295D02*
Y0297D01*
X08067Y0296D02*
X08087D01*
X08077Y0295D02*
Y0297D01*
X08067Y0301D02*
X08087D01*
X08077Y03D02*
Y0302D01*
X08017Y0301D02*
X08037D01*
X08027Y03D02*
Y0302D01*
X07967Y0301D02*
X07987D01*
X07977Y03D02*
Y0302D01*
X07917Y0301D02*
X07937D01*
X07927Y03D02*
Y0302D01*
X07867Y0301D02*
X07887D01*
X07877Y03D02*
Y0302D01*
X07817Y0301D02*
X07837D01*
X07827Y03D02*
Y0302D01*
X07617Y0336D02*
X07637D01*
X07627Y0335D02*
Y0337D01*
X08067Y0291D02*
X08087D01*
X08077Y029D02*
Y0292D01*
X08017Y0291D02*
X08037D01*
X08027Y029D02*
Y0292D01*
X07967Y0291D02*
X07987D01*
X07977Y029D02*
Y0292D01*
X07917Y0291D02*
X07937D01*
X07927Y029D02*
Y0292D01*
X07867Y0291D02*
X07887D01*
X07877Y029D02*
Y0292D01*
X07817Y0291D02*
X07837D01*
X07827Y029D02*
Y0292D01*
X07817Y0286D02*
X07837D01*
X07827Y0285D02*
Y0287D01*
X07867Y0286D02*
X07887D01*
X07877Y0285D02*
Y0287D01*
X07917Y0286D02*
X07937D01*
X07927Y0285D02*
Y0287D01*
X07967Y0286D02*
X07987D01*
X07977Y0285D02*
Y0287D01*
X08017Y0286D02*
X08037D01*
X08027Y0285D02*
Y0287D01*
X08067Y0286D02*
X08087D01*
X08077Y0285D02*
Y0287D01*
X07667Y0331D02*
X07687D01*
X07677Y033D02*
Y0332D01*
X07667Y0321D02*
X07687D01*
X07677Y032D02*
Y0322D01*
X07667Y0326D02*
X07687D01*
X07677Y0325D02*
Y0327D01*
X07667Y0336D02*
X07687D01*
X07677Y0335D02*
Y0337D01*
X07607Y028D02*
X07627D01*
X07617Y0279D02*
Y0281D01*
X07607Y0286D02*
X07627D01*
X07617Y0285D02*
Y0287D01*
X07647Y0282D02*
X07667D01*
X07657Y0281D02*
Y0283D01*
X07647Y0277D02*
X07667D01*
X07657Y0276D02*
Y0278D01*
X07617Y0273D02*
X07637D01*
X07627Y0272D02*
Y0274D01*
X07587Y0269D02*
X07607D01*
X07597Y0268D02*
Y027D01*
X05106Y02398D02*
X05126D01*
X05116Y02388D02*
Y02408D01*
X05106Y02438D02*
X05126D01*
X05116Y02428D02*
Y02448D01*
X05066Y02438D02*
X05086D01*
X05076Y02428D02*
Y02448D01*
X05066Y02398D02*
X05086D01*
X05076Y02388D02*
Y02408D01*
X05026Y02398D02*
X05046D01*
X05036Y02388D02*
Y02408D01*
X05026Y02438D02*
X05046D01*
X05036Y02428D02*
Y02448D01*
X04986Y02398D02*
X05006D01*
X04996Y02388D02*
Y02408D01*
X04986Y02438D02*
X05006D01*
X04996Y02428D02*
Y02448D01*
X04946Y02438D02*
X04966D01*
X04956Y02428D02*
Y02448D01*
X04946Y02398D02*
X04966D01*
X04956Y02388D02*
Y02408D01*
X04906Y02398D02*
X04926D01*
X04916Y02388D02*
Y02408D01*
X04906Y02438D02*
X04926D01*
X04916Y02428D02*
Y02448D01*
X04866Y02438D02*
X04886D01*
X04876Y02428D02*
Y02448D01*
X04866Y02398D02*
X04886D01*
X04876Y02388D02*
Y02408D01*
X04826Y02398D02*
X04846D01*
X04836Y02388D02*
Y02408D01*
X04826Y02438D02*
X04846D01*
X04836Y02428D02*
Y02448D01*
X04786Y02438D02*
X04806D01*
X04796Y02428D02*
Y02448D01*
X04786Y02398D02*
X04806D01*
X04796Y02388D02*
Y02408D01*
X04746Y02398D02*
X04766D01*
X04756Y02388D02*
Y02408D01*
X04746Y02438D02*
X04766D01*
X04756Y02428D02*
Y02448D01*
X04706Y02398D02*
X04726D01*
X04716Y02388D02*
Y02408D01*
X04706Y02438D02*
X04726D01*
X04716Y02428D02*
Y02448D01*
X04666Y02438D02*
X04686D01*
X04676Y02428D02*
Y02448D01*
X04666Y02398D02*
X04686D01*
X04676Y02388D02*
Y02408D01*
X04626Y02398D02*
X04646D01*
X04636Y02388D02*
Y02408D01*
X04626Y02438D02*
X04646D01*
X04636Y02428D02*
Y02448D01*
X04706Y02478D02*
X04726D01*
X04716Y02468D02*
Y02488D01*
X04666Y02518D02*
X04686D01*
X04676Y02508D02*
Y02528D01*
X04666Y02478D02*
X04686D01*
X04676Y02468D02*
Y02488D01*
X04626Y02478D02*
X04646D01*
X04636Y02468D02*
Y02488D01*
X04626Y02518D02*
X04646D01*
X04636Y02508D02*
Y02528D01*
X04626Y02558D02*
X04646D01*
X04636Y02548D02*
Y02568D01*
X04606Y02598D02*
X04626D01*
X04616Y02588D02*
Y02608D01*
X05222Y0168D02*
X0525D01*
X05236Y01666D02*
Y01694D01*
X05162Y0168D02*
X0519D01*
X05176Y01666D02*
Y01694D01*
X05102Y0168D02*
X0513D01*
X05116Y01666D02*
Y01694D01*
X05102Y0174D02*
X0513D01*
X05116Y01726D02*
Y01754D01*
X05102Y018D02*
X0513D01*
X05116Y01786D02*
Y01814D01*
X05162Y0174D02*
X0519D01*
X05176Y01726D02*
Y01754D01*
X05162Y018D02*
X0519D01*
X05176Y01786D02*
Y01814D01*
X05222Y018D02*
X0525D01*
X05236Y01786D02*
Y01814D01*
X05222Y0174D02*
X0525D01*
X05236Y01726D02*
Y01754D01*
X04972Y0168D02*
X05D01*
X04986Y01666D02*
Y01694D01*
X04902Y0168D02*
X0493D01*
X04916Y01666D02*
Y01694D01*
X04832Y0168D02*
X0486D01*
X04846Y01666D02*
Y01694D01*
X04832Y0174D02*
X0486D01*
X04846Y01726D02*
Y01754D01*
X04772Y0174D02*
X048D01*
X04786Y01726D02*
Y01754D01*
X04712Y0174D02*
X0474D01*
X04726Y01726D02*
Y01754D01*
X04772Y0168D02*
X048D01*
X04786Y01666D02*
Y01694D01*
X04832Y0188D02*
X0486D01*
X04846Y01866D02*
Y01894D01*
X04772Y0188D02*
X048D01*
X04786Y01866D02*
Y01894D01*
X04256Y021D02*
X04275D01*
X04266Y0209D02*
Y02109D01*
X04256Y0205D02*
X04275D01*
X04266Y0204D02*
Y02059D01*
X04256Y02D02*
X04275D01*
X04266Y0199D02*
Y02009D01*
X04256Y0195D02*
X04275D01*
X04266Y0194D02*
Y01959D01*
X04256Y019D02*
X04275D01*
X04266Y0189D02*
Y01909D01*
X04256Y0185D02*
X04275D01*
X04266Y0184D02*
Y01859D01*
X04256Y018D02*
X04275D01*
X04266Y0179D02*
Y01809D01*
X04256Y0175D02*
X04275D01*
X04266Y0174D02*
Y01759D01*
X04256Y017D02*
X04275D01*
X04266Y0169D02*
Y01709D01*
X04306Y017D02*
X04325D01*
X04316Y0169D02*
Y01709D01*
X04306Y0175D02*
X04325D01*
X04316Y0174D02*
Y01759D01*
X04306Y018D02*
X04325D01*
X04316Y0179D02*
Y01809D01*
X04306Y0185D02*
X04325D01*
X04316Y0184D02*
Y01859D01*
X04306Y019D02*
X04325D01*
X04316Y0189D02*
Y01909D01*
X04306Y0195D02*
X04325D01*
X04316Y0194D02*
Y01959D01*
X04306Y02D02*
X04325D01*
X04316Y0199D02*
Y02009D01*
X04306Y0205D02*
X04325D01*
X04316Y0204D02*
Y02059D01*
X04306Y021D02*
X04325D01*
X04316Y0209D02*
Y02109D01*
X04356Y017D02*
X04375D01*
X04366Y0169D02*
Y01709D01*
X04356Y0175D02*
X04375D01*
X04366Y0174D02*
Y01759D01*
X04356Y018D02*
X04375D01*
X04366Y0179D02*
Y01809D01*
X04356Y0185D02*
X04375D01*
X04366Y0184D02*
Y01859D01*
X04356Y019D02*
X04375D01*
X04366Y0189D02*
Y01909D01*
X04356Y0195D02*
X04375D01*
X04366Y0194D02*
Y01959D01*
X04356Y02D02*
X04375D01*
X04366Y0199D02*
Y02009D01*
X04356Y0205D02*
X04375D01*
X04366Y0204D02*
Y02059D01*
X04356Y021D02*
X04375D01*
X04366Y0209D02*
Y02109D01*
X04256Y0135D02*
X04275D01*
X04266Y0134D02*
Y01359D01*
X04256Y014D02*
X04275D01*
X04266Y0139D02*
Y01409D01*
X04256Y0145D02*
X04275D01*
X04266Y0144D02*
Y01459D01*
X04256Y015D02*
X04275D01*
X04266Y0149D02*
Y01509D01*
X04256Y0155D02*
X04275D01*
X04266Y0154D02*
Y01559D01*
X04256Y016D02*
X04275D01*
X04266Y0159D02*
Y01609D01*
X04256Y0165D02*
X04275D01*
X04266Y0164D02*
Y01659D01*
X04306Y0165D02*
X04325D01*
X04316Y0164D02*
Y01659D01*
X04306Y016D02*
X04325D01*
X04316Y0159D02*
Y01609D01*
X04306Y0155D02*
X04325D01*
X04316Y0154D02*
Y01559D01*
X04306Y015D02*
X04325D01*
X04316Y0149D02*
Y01509D01*
X04306Y0145D02*
X04325D01*
X04316Y0144D02*
Y01459D01*
X04306Y014D02*
X04325D01*
X04316Y0139D02*
Y01409D01*
X04306Y0135D02*
X04325D01*
X04316Y0134D02*
Y01359D01*
X04356Y0165D02*
X04375D01*
X04366Y0164D02*
Y01659D01*
X04356Y016D02*
X04375D01*
X04366Y0159D02*
Y01609D01*
X04356Y0155D02*
X04375D01*
X04366Y0154D02*
Y01559D01*
X04356Y015D02*
X04375D01*
X04366Y0149D02*
Y01509D01*
X04356Y0145D02*
X04375D01*
X04366Y0144D02*
Y01459D01*
X04356Y014D02*
X04375D01*
X04366Y0139D02*
Y01409D01*
X04356Y0135D02*
X04375D01*
X04366Y0134D02*
Y01359D01*
X04406Y0195D02*
X04425D01*
X04416Y0194D02*
Y01959D01*
X04406Y019D02*
X04425D01*
X04416Y0189D02*
Y01909D01*
X04406Y0185D02*
X04425D01*
X04416Y0184D02*
Y01859D01*
X04406Y018D02*
X04425D01*
X04416Y0179D02*
Y01809D01*
X04406Y0175D02*
X04425D01*
X04416Y0174D02*
Y01759D01*
X04406Y017D02*
X04425D01*
X04416Y0169D02*
Y01709D01*
X04406Y0165D02*
X04425D01*
X04416Y0164D02*
Y01659D01*
X04456Y0195D02*
X04475D01*
X04466Y0194D02*
Y01959D01*
X04456Y019D02*
X04475D01*
X04466Y0189D02*
Y01909D01*
X04456Y0185D02*
X04475D01*
X04466Y0184D02*
Y01859D01*
X04456Y018D02*
X04475D01*
X04466Y0179D02*
Y01809D01*
X04456Y0175D02*
X04475D01*
X04466Y0174D02*
Y01759D01*
X04456Y017D02*
X04475D01*
X04466Y0169D02*
Y01709D01*
X04456Y0165D02*
X04475D01*
X04466Y0164D02*
Y01659D01*
X04506Y0135D02*
X04525D01*
X04516Y0134D02*
Y01359D01*
X04506Y014D02*
X04525D01*
X04516Y0139D02*
Y01409D01*
X04506Y0145D02*
X04525D01*
X04516Y0144D02*
Y01459D01*
X04506Y015D02*
X04525D01*
X04516Y0149D02*
Y01509D01*
X04506Y0155D02*
X04525D01*
X04516Y0154D02*
Y01559D01*
X04506Y016D02*
X04525D01*
X04516Y0159D02*
Y01609D01*
X04456Y0135D02*
X04475D01*
X04466Y0134D02*
Y01359D01*
X04456Y014D02*
X04475D01*
X04466Y0139D02*
Y01409D01*
X04456Y0145D02*
X04475D01*
X04466Y0144D02*
Y01459D01*
X04456Y015D02*
X04475D01*
X04466Y0149D02*
Y01509D01*
X04456Y0155D02*
X04475D01*
X04466Y0154D02*
Y01559D01*
X04456Y016D02*
X04475D01*
X04466Y0159D02*
Y01609D01*
X04406Y016D02*
X04425D01*
X04416Y0159D02*
Y01609D01*
X04406Y0155D02*
X04425D01*
X04416Y0154D02*
Y01559D01*
X04406Y015D02*
X04425D01*
X04416Y0149D02*
Y01509D01*
X04406Y0145D02*
X04425D01*
X04416Y0144D02*
Y01459D01*
X04406Y014D02*
X04425D01*
X04416Y0139D02*
Y01409D01*
X04406Y0135D02*
X04425D01*
X04416Y0134D02*
Y01359D01*
X05222Y0192D02*
X0525D01*
X05236Y01906D02*
Y01934D01*
X05162Y0192D02*
X0519D01*
X05176Y01906D02*
Y01934D01*
X05102Y0192D02*
X0513D01*
X05116Y01906D02*
Y01934D01*
X05102Y0186D02*
X0513D01*
X05116Y01846D02*
Y01874D01*
X05162Y0186D02*
X0519D01*
X05176Y01846D02*
Y01874D01*
X05222Y0186D02*
X0525D01*
X05236Y01846D02*
Y01874D01*
X05222Y0156D02*
X0525D01*
X05236Y01546D02*
Y01574D01*
X05222Y0162D02*
X0525D01*
X05236Y01606D02*
Y01634D01*
X05162Y0162D02*
X0519D01*
X05176Y01606D02*
Y01634D01*
X05162Y0156D02*
X0519D01*
X05176Y01546D02*
Y01574D01*
X05102Y0162D02*
X0513D01*
X05116Y01606D02*
Y01634D01*
X05102Y0156D02*
X0513D01*
X05116Y01546D02*
Y01574D01*
X05102Y015D02*
X0513D01*
X05116Y01486D02*
Y01514D01*
X05162Y015D02*
X0519D01*
X05176Y01486D02*
Y01514D01*
X05222Y015D02*
X0525D01*
X05236Y01486D02*
Y01514D01*
X05042Y0156D02*
X0507D01*
X05056Y01546D02*
Y01574D01*
X04902Y0162D02*
X0493D01*
X04916Y01606D02*
Y01634D01*
X04972Y015D02*
X05D01*
X04986Y01486D02*
Y01514D01*
X05042Y015D02*
X0507D01*
X05056Y01486D02*
Y01514D01*
X04832Y0156D02*
X0486D01*
X04846Y01546D02*
Y01574D01*
X04832Y0162D02*
X0486D01*
X04846Y01606D02*
Y01634D01*
X04772Y0162D02*
X048D01*
X04786Y01606D02*
Y01634D01*
X04772Y0156D02*
X048D01*
X04786Y01546D02*
Y01574D01*
X04712Y0162D02*
X0474D01*
X04726Y01606D02*
Y01634D01*
X04712Y0156D02*
X0474D01*
X04726Y01546D02*
Y01574D01*
X04712Y015D02*
X0474D01*
X04726Y01486D02*
Y01514D01*
X04772Y015D02*
X048D01*
X04786Y01486D02*
Y01514D01*
X04832Y015D02*
X0486D01*
X04846Y01486D02*
Y01514D01*
X05042Y0162D02*
X0507D01*
X05056Y01606D02*
Y01634D01*
X05042Y0168D02*
X0507D01*
X05056Y01666D02*
Y01694D01*
X04902Y0156D02*
X0493D01*
X04916Y01546D02*
Y01574D01*
X04902Y015D02*
X0493D01*
X04916Y01486D02*
Y01514D01*
X04972Y0156D02*
X05D01*
X04986Y01546D02*
Y01574D01*
X04972Y0162D02*
X05D01*
X04986Y01606D02*
Y01634D01*
X04972Y0144D02*
X05D01*
X04986Y01426D02*
Y01454D01*
X04972Y0138D02*
X05D01*
X04986Y01366D02*
Y01394D01*
X04902Y0132D02*
X0493D01*
X04916Y01306D02*
Y01334D01*
X04902Y0138D02*
X0493D01*
X04916Y01366D02*
Y01394D01*
X05042Y0144D02*
X0507D01*
X05056Y01426D02*
Y01454D01*
X04832Y0132D02*
X0486D01*
X04846Y01306D02*
Y01334D01*
X04772Y0132D02*
X048D01*
X04786Y01306D02*
Y01334D01*
X04712Y0132D02*
X0474D01*
X04726Y01306D02*
Y01334D01*
X04712Y0138D02*
X0474D01*
X04726Y01366D02*
Y01394D01*
X04712Y0144D02*
X0474D01*
X04726Y01426D02*
Y01454D01*
X04772Y0138D02*
X048D01*
X04786Y01366D02*
Y01394D01*
X04772Y0144D02*
X048D01*
X04786Y01426D02*
Y01454D01*
X04832Y0144D02*
X0486D01*
X04846Y01426D02*
Y01454D01*
X04832Y0138D02*
X0486D01*
X04846Y01366D02*
Y01394D01*
X05042Y0132D02*
X0507D01*
X05056Y01306D02*
Y01334D01*
X04972Y0132D02*
X05D01*
X04986Y01306D02*
Y01334D01*
X04902Y0144D02*
X0493D01*
X04916Y01426D02*
Y01454D01*
X05042Y0138D02*
X0507D01*
X05056Y01366D02*
Y01394D01*
X05222Y0132D02*
X0525D01*
X05236Y01306D02*
Y01334D01*
X05162Y0132D02*
X0519D01*
X05176Y01306D02*
Y01334D01*
X05102Y0132D02*
X0513D01*
X05116Y01306D02*
Y01334D01*
X05102Y0138D02*
X0513D01*
X05116Y01366D02*
Y01394D01*
X05102Y0144D02*
X0513D01*
X05116Y01426D02*
Y01454D01*
X05162Y0138D02*
X0519D01*
X05176Y01366D02*
Y01394D01*
X05162Y0144D02*
X0519D01*
X05176Y01426D02*
Y01454D01*
X05222Y0144D02*
X0525D01*
X05236Y01426D02*
Y01454D01*
X05222Y0138D02*
X0525D01*
X05236Y01366D02*
Y01394D01*
X06545Y01672D02*
X06573D01*
X06559Y01658D02*
Y01686D01*
X06485Y01672D02*
X06513D01*
X06499Y01658D02*
Y01686D01*
X06425Y01672D02*
X06453D01*
X06439Y01658D02*
Y01686D01*
X06425Y01732D02*
X06453D01*
X06439Y01718D02*
Y01746D01*
X06425Y01792D02*
X06453D01*
X06439Y01778D02*
Y01806D01*
X06485Y01732D02*
X06513D01*
X06499Y01718D02*
Y01746D01*
X06485Y01792D02*
X06513D01*
X06499Y01778D02*
Y01806D01*
X06545Y01792D02*
X06573D01*
X06559Y01778D02*
Y01806D01*
X06545Y01732D02*
X06573D01*
X06559Y01718D02*
Y01746D01*
X06295Y01672D02*
X06323D01*
X06309Y01658D02*
Y01686D01*
X06225Y01672D02*
X06253D01*
X06239Y01658D02*
Y01686D01*
X06155Y01672D02*
X06183D01*
X06169Y01658D02*
Y01686D01*
X06155Y01732D02*
X06183D01*
X06169Y01718D02*
Y01746D01*
X06095Y01732D02*
X06123D01*
X06109Y01718D02*
Y01746D01*
X06035Y01732D02*
X06063D01*
X06049Y01718D02*
Y01746D01*
X06095Y01672D02*
X06123D01*
X06109Y01658D02*
Y01686D01*
X06155Y01872D02*
X06183D01*
X06169Y01858D02*
Y01886D01*
X06095Y01872D02*
X06123D01*
X06109Y01858D02*
Y01886D01*
X05579Y02092D02*
X05599D01*
X05589Y02082D02*
Y02101D01*
X05579Y02042D02*
X05599D01*
X05589Y02032D02*
Y02051D01*
X05579Y01992D02*
X05599D01*
X05589Y01982D02*
Y02001D01*
X05579Y01942D02*
X05599D01*
X05589Y01932D02*
Y01951D01*
X05579Y01892D02*
X05599D01*
X05589Y01882D02*
Y01901D01*
X05579Y01842D02*
X05599D01*
X05589Y01832D02*
Y01851D01*
X05579Y01792D02*
X05599D01*
X05589Y01782D02*
Y01801D01*
X05579Y01742D02*
X05599D01*
X05589Y01732D02*
Y01751D01*
X05579Y01692D02*
X05599D01*
X05589Y01682D02*
Y01701D01*
X05629Y01692D02*
X05649D01*
X05639Y01682D02*
Y01701D01*
X05629Y01742D02*
X05649D01*
X05639Y01732D02*
Y01751D01*
X05629Y01792D02*
X05649D01*
X05639Y01782D02*
Y01801D01*
X05629Y01842D02*
X05649D01*
X05639Y01832D02*
Y01851D01*
X05629Y01892D02*
X05649D01*
X05639Y01882D02*
Y01901D01*
X05629Y01942D02*
X05649D01*
X05639Y01932D02*
Y01951D01*
X05629Y01992D02*
X05649D01*
X05639Y01982D02*
Y02001D01*
X05629Y02042D02*
X05649D01*
X05639Y02032D02*
Y02051D01*
X05629Y02092D02*
X05649D01*
X05639Y02082D02*
Y02101D01*
X05679Y01692D02*
X05699D01*
X05689Y01682D02*
Y01701D01*
X05679Y01742D02*
X05699D01*
X05689Y01732D02*
Y01751D01*
X05679Y01792D02*
X05699D01*
X05689Y01782D02*
Y01801D01*
X05679Y01842D02*
X05699D01*
X05689Y01832D02*
Y01851D01*
X05679Y01892D02*
X05699D01*
X05689Y01882D02*
Y01901D01*
X05679Y01942D02*
X05699D01*
X05689Y01932D02*
Y01951D01*
X05679Y01992D02*
X05699D01*
X05689Y01982D02*
Y02001D01*
X05679Y02042D02*
X05699D01*
X05689Y02032D02*
Y02051D01*
X05679Y02092D02*
X05699D01*
X05689Y02082D02*
Y02101D01*
X05579Y01342D02*
X05599D01*
X05589Y01332D02*
Y01351D01*
X05579Y01392D02*
X05599D01*
X05589Y01382D02*
Y01401D01*
X05579Y01442D02*
X05599D01*
X05589Y01432D02*
Y01451D01*
X05579Y01492D02*
X05599D01*
X05589Y01482D02*
Y01501D01*
X05579Y01542D02*
X05599D01*
X05589Y01532D02*
Y01551D01*
X05579Y01592D02*
X05599D01*
X05589Y01582D02*
Y01601D01*
X05579Y01642D02*
X05599D01*
X05589Y01632D02*
Y01651D01*
X05629Y01642D02*
X05649D01*
X05639Y01632D02*
Y01651D01*
X05629Y01592D02*
X05649D01*
X05639Y01582D02*
Y01601D01*
X05629Y01542D02*
X05649D01*
X05639Y01532D02*
Y01551D01*
X05629Y01492D02*
X05649D01*
X05639Y01482D02*
Y01501D01*
X05629Y01442D02*
X05649D01*
X05639Y01432D02*
Y01451D01*
X05629Y01392D02*
X05649D01*
X05639Y01382D02*
Y01401D01*
X05629Y01342D02*
X05649D01*
X05639Y01332D02*
Y01351D01*
X05679Y01642D02*
X05699D01*
X05689Y01632D02*
Y01651D01*
X05679Y01592D02*
X05699D01*
X05689Y01582D02*
Y01601D01*
X05679Y01542D02*
X05699D01*
X05689Y01532D02*
Y01551D01*
X05679Y01492D02*
X05699D01*
X05689Y01482D02*
Y01501D01*
X05679Y01442D02*
X05699D01*
X05689Y01432D02*
Y01451D01*
X05679Y01392D02*
X05699D01*
X05689Y01382D02*
Y01401D01*
X05679Y01342D02*
X05699D01*
X05689Y01332D02*
Y01351D01*
X05729Y01942D02*
X05749D01*
X05739Y01932D02*
Y01951D01*
X05729Y01892D02*
X05749D01*
X05739Y01882D02*
Y01901D01*
X05729Y01842D02*
X05749D01*
X05739Y01832D02*
Y01851D01*
X05729Y01792D02*
X05749D01*
X05739Y01782D02*
Y01801D01*
X05729Y01742D02*
X05749D01*
X05739Y01732D02*
Y01751D01*
X05729Y01692D02*
X05749D01*
X05739Y01682D02*
Y01701D01*
X05729Y01642D02*
X05749D01*
X05739Y01632D02*
Y01651D01*
X05779Y01942D02*
X05799D01*
X05789Y01932D02*
Y01951D01*
X05779Y01892D02*
X05799D01*
X05789Y01882D02*
Y01901D01*
X05779Y01842D02*
X05799D01*
X05789Y01832D02*
Y01851D01*
X05779Y01792D02*
X05799D01*
X05789Y01782D02*
Y01801D01*
X05779Y01742D02*
X05799D01*
X05789Y01732D02*
Y01751D01*
X05779Y01692D02*
X05799D01*
X05789Y01682D02*
Y01701D01*
X05779Y01642D02*
X05799D01*
X05789Y01632D02*
Y01651D01*
X05829Y01342D02*
X05849D01*
X05839Y01332D02*
Y01351D01*
X05829Y01392D02*
X05849D01*
X05839Y01382D02*
Y01401D01*
X05829Y01442D02*
X05849D01*
X05839Y01432D02*
Y01451D01*
X05829Y01492D02*
X05849D01*
X05839Y01482D02*
Y01501D01*
X05829Y01542D02*
X05849D01*
X05839Y01532D02*
Y01551D01*
X05829Y01592D02*
X05849D01*
X05839Y01582D02*
Y01601D01*
X05779Y01342D02*
X05799D01*
X05789Y01332D02*
Y01351D01*
X05779Y01392D02*
X05799D01*
X05789Y01382D02*
Y01401D01*
X05779Y01442D02*
X05799D01*
X05789Y01432D02*
Y01451D01*
X05779Y01492D02*
X05799D01*
X05789Y01482D02*
Y01501D01*
X05779Y01542D02*
X05799D01*
X05789Y01532D02*
Y01551D01*
X05779Y01592D02*
X05799D01*
X05789Y01582D02*
Y01601D01*
X05729Y01592D02*
X05749D01*
X05739Y01582D02*
Y01601D01*
X05729Y01542D02*
X05749D01*
X05739Y01532D02*
Y01551D01*
X05729Y01492D02*
X05749D01*
X05739Y01482D02*
Y01501D01*
X05729Y01442D02*
X05749D01*
X05739Y01432D02*
Y01451D01*
X05729Y01392D02*
X05749D01*
X05739Y01382D02*
Y01401D01*
X05729Y01342D02*
X05749D01*
X05739Y01332D02*
Y01351D01*
X06545Y01912D02*
X06573D01*
X06559Y01898D02*
Y01926D01*
X06485Y01912D02*
X06513D01*
X06499Y01898D02*
Y01926D01*
X06425Y01912D02*
X06453D01*
X06439Y01898D02*
Y01926D01*
X06425Y01852D02*
X06453D01*
X06439Y01838D02*
Y01866D01*
X06485Y01852D02*
X06513D01*
X06499Y01838D02*
Y01866D01*
X06545Y01852D02*
X06573D01*
X06559Y01838D02*
Y01866D01*
X06545Y01552D02*
X06573D01*
X06559Y01538D02*
Y01566D01*
X06545Y01612D02*
X06573D01*
X06559Y01598D02*
Y01626D01*
X06485Y01612D02*
X06513D01*
X06499Y01598D02*
Y01626D01*
X06485Y01552D02*
X06513D01*
X06499Y01538D02*
Y01566D01*
X06425Y01612D02*
X06453D01*
X06439Y01598D02*
Y01626D01*
X06425Y01552D02*
X06453D01*
X06439Y01538D02*
Y01566D01*
X06425Y01492D02*
X06453D01*
X06439Y01478D02*
Y01506D01*
X06485Y01492D02*
X06513D01*
X06499Y01478D02*
Y01506D01*
X06545Y01492D02*
X06573D01*
X06559Y01478D02*
Y01506D01*
X06365Y01552D02*
X06393D01*
X06379Y01538D02*
Y01566D01*
X06225Y01612D02*
X06253D01*
X06239Y01598D02*
Y01626D01*
X06295Y01492D02*
X06323D01*
X06309Y01478D02*
Y01506D01*
X06365Y01492D02*
X06393D01*
X06379Y01478D02*
Y01506D01*
X06155Y01552D02*
X06183D01*
X06169Y01538D02*
Y01566D01*
X06155Y01612D02*
X06183D01*
X06169Y01598D02*
Y01626D01*
X06095Y01612D02*
X06123D01*
X06109Y01598D02*
Y01626D01*
X06095Y01552D02*
X06123D01*
X06109Y01538D02*
Y01566D01*
X06035Y01612D02*
X06063D01*
X06049Y01598D02*
Y01626D01*
X06035Y01552D02*
X06063D01*
X06049Y01538D02*
Y01566D01*
X06035Y01492D02*
X06063D01*
X06049Y01478D02*
Y01506D01*
X06095Y01492D02*
X06123D01*
X06109Y01478D02*
Y01506D01*
X06155Y01492D02*
X06183D01*
X06169Y01478D02*
Y01506D01*
X06365Y01612D02*
X06393D01*
X06379Y01598D02*
Y01626D01*
X06365Y01672D02*
X06393D01*
X06379Y01658D02*
Y01686D01*
X06225Y01552D02*
X06253D01*
X06239Y01538D02*
Y01566D01*
X06225Y01492D02*
X06253D01*
X06239Y01478D02*
Y01506D01*
X06295Y01552D02*
X06323D01*
X06309Y01538D02*
Y01566D01*
X06295Y01612D02*
X06323D01*
X06309Y01598D02*
Y01626D01*
X06295Y01432D02*
X06323D01*
X06309Y01418D02*
Y01446D01*
X06295Y01372D02*
X06323D01*
X06309Y01358D02*
Y01386D01*
X06225Y01312D02*
X06253D01*
X06239Y01298D02*
Y01326D01*
X06225Y01372D02*
X06253D01*
X06239Y01358D02*
Y01386D01*
X06365Y01432D02*
X06393D01*
X06379Y01418D02*
Y01446D01*
X06155Y01312D02*
X06183D01*
X06169Y01298D02*
Y01326D01*
X06095Y01312D02*
X06123D01*
X06109Y01298D02*
Y01326D01*
X06035Y01372D02*
X06063D01*
X06049Y01358D02*
Y01386D01*
X06035Y01432D02*
X06063D01*
X06049Y01418D02*
Y01446D01*
X06095Y01372D02*
X06123D01*
X06109Y01358D02*
Y01386D01*
X06095Y01432D02*
X06123D01*
X06109Y01418D02*
Y01446D01*
X06155Y01432D02*
X06183D01*
X06169Y01418D02*
Y01446D01*
X06155Y01372D02*
X06183D01*
X06169Y01358D02*
Y01386D01*
X06365Y01312D02*
X06393D01*
X06379Y01298D02*
Y01326D01*
X06295Y01312D02*
X06323D01*
X06309Y01298D02*
Y01326D01*
X06225Y01432D02*
X06253D01*
X06239Y01418D02*
Y01446D01*
X06365Y01372D02*
X06393D01*
X06379Y01358D02*
Y01386D01*
X06485Y01312D02*
X06513D01*
X06499Y01298D02*
Y01326D01*
X06425Y01312D02*
X06453D01*
X06439Y01298D02*
Y01326D01*
X06425Y01372D02*
X06453D01*
X06439Y01358D02*
Y01386D01*
X06425Y01432D02*
X06453D01*
X06439Y01418D02*
Y01446D01*
X06485Y01372D02*
X06513D01*
X06499Y01358D02*
Y01386D01*
X06485Y01432D02*
X06513D01*
X06499Y01418D02*
Y01446D01*
X079Y0168D02*
X07928D01*
X07914Y01666D02*
Y01694D01*
X0784Y0168D02*
X07868D01*
X07854Y01666D02*
Y01694D01*
X0778Y0168D02*
X07808D01*
X07794Y01666D02*
Y01694D01*
X0778Y0174D02*
X07808D01*
X07794Y01726D02*
Y01754D01*
X0778Y018D02*
X07808D01*
X07794Y01786D02*
Y01814D01*
X0784Y0174D02*
X07868D01*
X07854Y01726D02*
Y01754D01*
X0784Y018D02*
X07868D01*
X07854Y01786D02*
Y01814D01*
X079Y018D02*
X07928D01*
X07914Y01786D02*
Y01814D01*
X079Y0174D02*
X07928D01*
X07914Y01726D02*
Y01754D01*
X0765Y0168D02*
X07678D01*
X07664Y01666D02*
Y01694D01*
X0758Y0168D02*
X07608D01*
X07594Y01666D02*
Y01694D01*
X0751Y0168D02*
X07538D01*
X07524Y01666D02*
Y01694D01*
X0751Y0174D02*
X07538D01*
X07524Y01726D02*
Y01754D01*
X0745Y0174D02*
X07478D01*
X07464Y01726D02*
Y01754D01*
X0739Y0174D02*
X07418D01*
X07404Y01726D02*
Y01754D01*
X0745Y0168D02*
X07478D01*
X07464Y01666D02*
Y01694D01*
X0751Y0188D02*
X07538D01*
X07524Y01866D02*
Y01894D01*
X0745Y0188D02*
X07478D01*
X07464Y01866D02*
Y01894D01*
X06934Y021D02*
X06953D01*
X06944Y0209D02*
Y02109D01*
X06934Y0205D02*
X06953D01*
X06944Y0204D02*
Y02059D01*
X06934Y02D02*
X06953D01*
X06944Y0199D02*
Y02009D01*
X06934Y0195D02*
X06953D01*
X06944Y0194D02*
Y01959D01*
X06934Y019D02*
X06953D01*
X06944Y0189D02*
Y01909D01*
X06934Y0185D02*
X06953D01*
X06944Y0184D02*
Y01859D01*
X06934Y018D02*
X06953D01*
X06944Y0179D02*
Y01809D01*
X06934Y0175D02*
X06953D01*
X06944Y0174D02*
Y01759D01*
X06934Y017D02*
X06953D01*
X06944Y0169D02*
Y01709D01*
X06984Y017D02*
X07003D01*
X06994Y0169D02*
Y01709D01*
X06984Y0175D02*
X07003D01*
X06994Y0174D02*
Y01759D01*
X06984Y018D02*
X07003D01*
X06994Y0179D02*
Y01809D01*
X06984Y0185D02*
X07003D01*
X06994Y0184D02*
Y01859D01*
X06984Y019D02*
X07003D01*
X06994Y0189D02*
Y01909D01*
X06984Y0195D02*
X07003D01*
X06994Y0194D02*
Y01959D01*
X06984Y02D02*
X07003D01*
X06994Y0199D02*
Y02009D01*
X06984Y0205D02*
X07003D01*
X06994Y0204D02*
Y02059D01*
X06984Y021D02*
X07003D01*
X06994Y0209D02*
Y02109D01*
X07034Y017D02*
X07053D01*
X07044Y0169D02*
Y01709D01*
X07034Y0175D02*
X07053D01*
X07044Y0174D02*
Y01759D01*
X07034Y018D02*
X07053D01*
X07044Y0179D02*
Y01809D01*
X07034Y0185D02*
X07053D01*
X07044Y0184D02*
Y01859D01*
X07034Y019D02*
X07053D01*
X07044Y0189D02*
Y01909D01*
X07034Y0195D02*
X07053D01*
X07044Y0194D02*
Y01959D01*
X07034Y02D02*
X07053D01*
X07044Y0199D02*
Y02009D01*
X07034Y0205D02*
X07053D01*
X07044Y0204D02*
Y02059D01*
X07034Y021D02*
X07053D01*
X07044Y0209D02*
Y02109D01*
X06934Y016D02*
X06953D01*
X06944Y0159D02*
Y01609D01*
X06934Y0165D02*
X06953D01*
X06944Y0164D02*
Y01659D01*
X06984Y0165D02*
X07003D01*
X06994Y0164D02*
Y01659D01*
X06984Y016D02*
X07003D01*
X06994Y0159D02*
Y01609D01*
X07034Y0165D02*
X07053D01*
X07044Y0164D02*
Y01659D01*
X07034Y016D02*
X07053D01*
X07044Y0159D02*
Y01609D01*
X07084Y0195D02*
X07103D01*
X07094Y0194D02*
Y01959D01*
X07084Y019D02*
X07103D01*
X07094Y0189D02*
Y01909D01*
X07084Y0185D02*
X07103D01*
X07094Y0184D02*
Y01859D01*
X07084Y018D02*
X07103D01*
X07094Y0179D02*
Y01809D01*
X07084Y0175D02*
X07103D01*
X07094Y0174D02*
Y01759D01*
X07084Y017D02*
X07103D01*
X07094Y0169D02*
Y01709D01*
X07084Y0165D02*
X07103D01*
X07094Y0164D02*
Y01659D01*
X07134Y0195D02*
X07153D01*
X07144Y0194D02*
Y01959D01*
X07134Y019D02*
X07153D01*
X07144Y0189D02*
Y01909D01*
X07134Y0185D02*
X07153D01*
X07144Y0184D02*
Y01859D01*
X07134Y018D02*
X07153D01*
X07144Y0179D02*
Y01809D01*
X07134Y0175D02*
X07153D01*
X07144Y0174D02*
Y01759D01*
X07134Y017D02*
X07153D01*
X07144Y0169D02*
Y01709D01*
X07134Y0165D02*
X07153D01*
X07144Y0164D02*
Y01659D01*
X07184Y016D02*
X07203D01*
X07194Y0159D02*
Y01609D01*
X07134Y016D02*
X07153D01*
X07144Y0159D02*
Y01609D01*
X07084Y016D02*
X07103D01*
X07094Y0159D02*
Y01609D01*
X079Y0192D02*
X07928D01*
X07914Y01906D02*
Y01934D01*
X0784Y0192D02*
X07868D01*
X07854Y01906D02*
Y01934D01*
X0778Y0192D02*
X07808D01*
X07794Y01906D02*
Y01934D01*
X0778Y0186D02*
X07808D01*
X07794Y01846D02*
Y01874D01*
X0784Y0186D02*
X07868D01*
X07854Y01846D02*
Y01874D01*
X079Y0186D02*
X07928D01*
X07914Y01846D02*
Y01874D01*
X079Y0156D02*
X07928D01*
X07914Y01546D02*
Y01574D01*
X079Y0162D02*
X07928D01*
X07914Y01606D02*
Y01634D01*
X0784Y0162D02*
X07868D01*
X07854Y01606D02*
Y01634D01*
X0784Y0156D02*
X07868D01*
X07854Y01546D02*
Y01574D01*
X0778Y0162D02*
X07808D01*
X07794Y01606D02*
Y01634D01*
X0778Y0156D02*
X07808D01*
X07794Y01546D02*
Y01574D01*
X0772Y0156D02*
X07748D01*
X07734Y01546D02*
Y01574D01*
X0758Y0162D02*
X07608D01*
X07594Y01606D02*
Y01634D01*
X0751Y0156D02*
X07538D01*
X07524Y01546D02*
Y01574D01*
X0751Y0162D02*
X07538D01*
X07524Y01606D02*
Y01634D01*
X0745Y0162D02*
X07478D01*
X07464Y01606D02*
Y01634D01*
X0745Y0156D02*
X07478D01*
X07464Y01546D02*
Y01574D01*
X0739Y0162D02*
X07418D01*
X07404Y01606D02*
Y01634D01*
X0739Y0156D02*
X07418D01*
X07404Y01546D02*
Y01574D01*
X0772Y0162D02*
X07748D01*
X07734Y01606D02*
Y01634D01*
X0772Y0168D02*
X07748D01*
X07734Y01666D02*
Y01694D01*
X0758Y0156D02*
X07608D01*
X07594Y01546D02*
Y01574D01*
X0765Y0156D02*
X07678D01*
X07664Y01546D02*
Y01574D01*
X0765Y0162D02*
X07678D01*
X07664Y01606D02*
Y01634D01*
M02*