<?xml version="1.0" standalone="no"?>
<!DOCTYPE svg PUBLIC "-//W3C//DTD SVG 1.1//EN" 
  "http://www.w3.org/Graphics/SVG/1.1/DTD/svg11.dtd">
<svg width="40.300mm" height="128.400mm" version="1.1"
     viewBox="0 0 40.300 128.400"
     xmlns="http://www.w3.org/2000/svg"  xmlns:xlink="http://www.w3.org/1999/xlink" 
     xmlns:fpd="http://www.schaeffer-ag.de">
  <desc>Created with the Front Panel Designer by the export of the file 'Frontpanel_controller.fpd'.</desc>
  <defs>
    <pattern id="revside-fill" x="1" y="1" width="1.5" height="1.5" patternUnits="userSpaceOnUse">
      <line x1="0" y1="0" x2="1" y2="1" style="stroke-width:0.2; stroke:black; stroke-dasharray:none;" />
      <line x1="0" y1="1" x2="1" y2="0" style="stroke-width:0.2; stroke:black; stroke-dasharray:none;" />
    </pattern>
    <pattern id="revside-fill-e0e0e0" x="1" y="1" width="1.5" height="1.5" patternUnits="userSpaceOnUse">
      <line x1="0" y1="0" x2="1.5" y2="1.5" style="stroke-width:0.2; stroke:#e0e0e0; stroke-dasharray:none;" />
      <line x1="0" y1="1.5" x2="1.5" y2="0" style="stroke-width:0.2; stroke:#e0e0e0; stroke-dasharray:none;" />
    </pattern>
  </defs>
<g transform="scale(1,-1) translate(0, -128.400)" 
   fill-rule="evenodd"
   style="stroke-linecap:round; stroke-linejoin:round; stroke-opacity:1.0; stroke-opacity:1.0;">
<path d="M40.300 128.400 
L0.000 128.400
L0.000 128.400
L0.000 0.000
L0.000 0.000
L40.300 0.000
L40.300 0.000
L40.300 128.400
L40.300 128.400z"
fill="#cccccc" vector-effect="non-scaling-stroke" stroke="#000000" stroke-width="0.100mm" />
<path d="M0.000 1.235 
L0.510 1.235
A0.569,0.569 0 0,1 0.510,2.370
L0.000 2.370
L0.000 0.100
M1.721 0.554 
L1.721 1.122
A0.454,0.454 0 0,0 2.629,1.122
L2.629 0.554
A0.454,0.454 0 0,0 1.721,0.554
M3.272 1.576 
L3.726 0.100
L4.180 1.576
L4.634 0.100
L5.088 1.576
M5.731 0.895 
L6.639 0.895
L6.639 1.178
A0.456,0.456 0 0,1 5.731,1.178
L5.731 0.497
A0.458,0.458 0 0,1 6.639,0.497
M7.283 0.100 
L7.283 1.576
L7.283 1.349
A0.321,0.321 0 0,0 7.850,1.462"
fill="none" vector-effect="non-scaling-stroke" stroke="#000000" stroke-width="0.200mm" fpd:engraving_ral_9005="1" transform="translate(11.209,97.799) scale(0.800,1.000) "/>
<path d="M0.000 0.100 L0.681 2.370L1.362 0.100
M0.227 0.781 L1.135 0.781"
fill="none" vector-effect="non-scaling-stroke" stroke="#000000" stroke-width="0.200mm" fpd:engraving_ral_9005="1" transform="translate(11.214,91.433) scale(0.800,1.000) "/>
<path d="M0.000 2.370 
L0.000 0.100
L0.510 0.100
A0.577,0.577 0 0,1 0.510,1.254
L0.000 1.254
L0.510 1.254
A0.558,0.558 0 1,1 0.473,2.370
L0.000 2.370"
fill="none" vector-effect="non-scaling-stroke" stroke="#000000" stroke-width="0.200mm" fpd:engraving_ral_9005="1" transform="translate(11.214,84.815) scale(0.800,1.000) "/>
<path d="M0.000 1.235 
L0.510 1.235
A0.569,0.569 0 0,1 0.510,2.370
L0.000 2.370
L0.000 0.100
M1.721 0.100 
L1.721 1.576
L1.721 1.349
A0.321,0.321 0 0,0 2.289,1.462
M2.932 0.554 
L2.932 1.122
A0.454,0.454 0 0,0 3.840,1.122
L3.840 0.554
A0.454,0.454 0 0,0 2.932,0.554
M4.483 -0.468 
A0.496,0.496 0 0,1 5.391,-0.241
L5.391 1.576
L5.391 1.178
A0.456,0.456 0 0,1 4.483,1.178
L4.483 0.611
A0.501,0.501 0 0,1 4.937,0.100
A0.442,0.442 0 0,1 5.391,0.497
M6.034 0.100 
L6.034 1.576
L6.034 1.349
A0.321,0.321 0 0,0 6.602,1.462
M7.245 1.349 
A0.481,0.481 0 0,0 8.153,1.349
A0.155,0.155 0 0,0 8.039,1.178
L7.529 1.008
A0.476,0.476 0 0,1 7.756,0.100
A0.412,0.412 0 0,1 8.153,0.497
L8.153 1.349
L8.153 0.497
A0.604,0.604 0 0,1 8.380,0.100
M9.023 0.100 
L9.023 1.576
L9.023 1.122
A0.454,0.454 0 0,0 9.931,1.122
L9.931 0.100
L9.931 1.122
A0.454,0.454 0 0,0 10.839,1.122
L10.839 0.100
M11.482 0.100 
L11.482 1.576
L11.482 1.122
A0.454,0.454 0 0,0 12.390,1.122
L12.390 0.100
L12.390 1.122
A0.454,0.454 0 0,0 13.298,1.122
L13.298 0.100
M13.941 0.894 
L14.849 0.894
L14.849 1.178
A0.456,0.456 0 0,1 13.941,1.178
L13.941 0.497
A0.458,0.458 0 0,1 14.849,0.497
M15.492 0.100 
L15.492 1.576
L15.492 1.349
A0.321,0.321 0 0,0 16.060,1.462"
fill="none" vector-effect="non-scaling-stroke" stroke="#000000" stroke-width="0.200mm" fpd:engraving_ral_9005="1" transform="translate(17.580,51.503) rotate(90.000) scale(0.800,1.000) "/>
<path d="M0.000 0.100 
L0.000 2.370
L0.510 2.370
A0.568,0.568 0 0,0 0.510,1.235
L0.000 1.235
L0.510 1.235
L1.078 0.100
M1.721 0.895 
L2.629 0.895
L2.629 1.178
A0.456,0.456 0 0,1 1.721,1.178
L1.721 0.497
A0.458,0.458 0 0,1 2.629,0.497
M3.272 0.384 
A0.474,0.474 0 0,1 4.010,0.214
A0.347,0.347 0 0,1 3.953,0.838
L3.443 0.951
A0.258,0.258 0 0,0 3.272,1.235
A0.476,0.476 0 0,0 4.124,1.405
M4.823 0.895 
L5.731 0.895
L5.731 1.178
A0.456,0.456 0 0,1 4.823,1.178
L4.823 0.497
A0.458,0.458 0 0,1 5.731,0.497
M6.356 1.576 L6.866 1.576
M6.583 2.370 L6.583 0.327A0.289,0.289 0 0,1 6.866,0.100"
fill="none" vector-effect="non-scaling-stroke" stroke="#000000" stroke-width="0.200mm" fpd:engraving_ral_9005="1" transform="translate(9.897,43.302) scale(0.800,1.000) "/>
<path d="M0.000 2.370 
L1.021 2.370
L0.510 2.370
L0.510 0.100
M1.664 1.576 L2.572 0.100
M1.664 0.100 L2.572 1.576"
fill="none" vector-effect="non-scaling-stroke" stroke="#000000" stroke-width="0.200mm" fpd:engraving_ral_9005="1" transform="translate(11.210,78.460) scale(0.800,1.000) "/>
<path d="M0.000 0.100 
L0.000 2.370
L0.510 2.370
A0.568,0.568 0 0,0 0.510,1.235
L0.000 1.235
L0.510 1.235
L1.078 0.100
M1.721 1.576 L2.629 0.100
M1.721 0.100 L2.629 1.576"
fill="none" vector-effect="non-scaling-stroke" stroke="#000000" stroke-width="0.200mm" fpd:engraving_ral_9005="1" transform="translate(11.210,72.108) scale(0.800,1.000) "/>
<path d="M0.000 2.370 
L1.021 2.370
L0.510 2.370
L0.510 0.100
M1.664 1.576 L2.572 0.100
M1.664 0.100 L2.572 1.576"
fill="none" vector-effect="non-scaling-stroke" stroke="#000000" stroke-width="0.200mm" fpd:engraving_ral_9005="1" transform="translate(11.210,34.302) scale(0.800,1.000) "/>
<path d="M0.000 0.100 
L0.000 2.370
L0.510 2.370
A0.568,0.568 0 0,0 0.510,1.235
L0.000 1.235
L0.510 1.235
L1.078 0.100
M1.721 1.576 L2.629 0.100
M1.721 0.100 L2.629 1.576"
fill="none" vector-effect="non-scaling-stroke" stroke="#000000" stroke-width="0.200mm" fpd:engraving_ral_9005="1" transform="translate(11.210,27.950) scale(0.800,1.000) "/>
<path d="M0.000 0.668 
A0.569,0.569 0 0,1 1.135,0.668
A0.565,0.565 0 0,1 0.567,1.235
A0.569,0.569 0 0,0 0.567,2.370
A0.565,0.565 0 0,0 1.135,1.803
M1.759 2.370 L1.759 0.384A0.319,0.319 0 0,1 2.043,0.100
M2.686 0.554 
L2.686 1.121
A0.454,0.454 0 0,0 3.594,1.121
L3.594 0.554
A0.454,0.454 0 0,0 2.686,0.554
M4.237 1.575 
L4.691 0.100
L5.145 1.575
L5.599 0.100
L6.053 1.575
M9.496 1.878 
A0.492,0.492 0 0,1 8.512,1.878
L8.512 0.592
A0.492,0.492 0 0,1 9.496,0.592
M10.139 0.554 
L10.139 1.121
A0.454,0.454 0 0,0 11.047,1.121
L11.047 0.554
A0.454,0.454 0 0,0 10.139,0.554
M11.690 0.100 
L11.690 1.575
L11.690 1.121
A0.454,0.454 0 0,0 12.598,1.121
L12.598 0.100
M13.222 1.575 L13.733 1.575
M13.449 2.370 L13.449 0.327A0.289,0.289 0 0,1 13.733,0.100
M14.376 0.100 
L14.376 1.575
L14.376 1.348
A0.321,0.321 0 0,0 14.944,1.462
M15.587 0.554 
L15.587 1.121
A0.454,0.454 0 0,0 16.495,1.121
L16.495 0.554
A0.454,0.454 0 0,0 15.587,0.554
M17.119 2.370 L17.119 0.384A0.319,0.319 0 0,1 17.403,0.100"
fill="none" vector-effect="non-scaling-stroke" stroke="#000000" stroke-width="0.200mm" fpd:engraving_ral_9005="1" transform="translate(21.024,81.929) scale(0.800,1.000) "/>
<path d="M0.000 2.370 
L0.000 0.611
A0.512,0.512 0 0,1 1.021,0.611
L1.021 2.370
M1.664 0.668 
A0.569,0.569 0 0,1 2.799,0.668
A0.565,0.565 0 0,1 2.232,1.235
A0.569,0.569 0 0,0 2.232,2.370
A0.565,0.565 0 0,0 2.799,1.803
M3.442 2.370 
L3.442 0.100
L3.953 0.100
A0.577,0.577 0 0,1 3.953,1.254
L3.442 1.254
L3.953 1.254
A0.558,0.558 0 0,1 3.915,2.370
L3.442 2.370"
fill="none" vector-effect="non-scaling-stroke" stroke="#000000" stroke-width="0.200mm" fpd:engraving_ral_9005="1" transform="translate(25.295,31.326) scale(0.800,1.000) "/>
<path d="M40.300 128.400 
L0.000 128.400
L0.000 128.400
L0.000 0.000
L0.000 0.000
L40.300 0.000
L40.300 0.000
L40.300 128.400
L40.300 128.400"
fill="none" vector-effect="non-scaling-stroke" stroke="#000000" stroke-width="0.100mm" />
</g>
</svg>
