<?xml version="1.0" encoding="UTF-8" standalone="no"?>
<svg
   xmlns:dc="http://purl.org/dc/elements/1.1/"
   xmlns:cc="http://creativecommons.org/ns#"
   xmlns:rdf="http://www.w3.org/1999/02/22-rdf-syntax-ns#"
   xmlns:svg="http://www.w3.org/2000/svg"
   xmlns="http://www.w3.org/2000/svg"
   xmlns:sodipodi="http://sodipodi.sourceforge.net/DTD/sodipodi-0.dtd"
   xmlns:inkscape="http://www.inkscape.org/namespaces/inkscape"
   width="40.300mm"
   height="128.400mm"
   version="1.1"
   viewBox="0 0 40.300 128.400"
   id="svg5761"
   inkscape:version="0.91 r13725"
   sodipodi:docname="Frontpanel.svg">
  <metadata
     id="metadata5827">
    <rdf:RDF>
      <cc:Work
         rdf:about="">
        <dc:format>image/svg+xml</dc:format>
        <dc:type
           rdf:resource="http://purl.org/dc/dcmitype/StillImage" />
      </cc:Work>
    </rdf:RDF>
  </metadata>
  <sodipodi:namedview
     pagecolor="#ffffff"
     bordercolor="#666666"
     borderopacity="1"
     objecttolerance="10"
     gridtolerance="10"
     guidetolerance="10"
     inkscape:pageopacity="0"
     inkscape:pageshadow="2"
     inkscape:window-width="1600"
     inkscape:window-height="1137"
     id="namedview5825"
     showgrid="false"
     inkscape:zoom="1.4671793"
     inkscape:cx="4.0689024"
     inkscape:cy="221.54756"
     inkscape:window-x="-8"
     inkscape:window-y="-8"
     inkscape:window-maximized="1"
     inkscape:current-layer="g5777" />
  <desc
     id="desc5763">Created with the Front Panel Designer by the export of the file 'Frontpanel.fpd'.</desc>
  <defs
     id="defs5765">
    <pattern
       id="revside-fill"
       x="1"
       y="1"
       width="1.5"
       height="1.5"
       patternUnits="userSpaceOnUse">
      <line
         x1="0"
         y1="0"
         x2="1"
         y2="1"
         style="stroke-width:0.2; stroke:black; stroke-dasharray:none;"
         id="line5768" />
      <line
         x1="0"
         y1="1"
         x2="1"
         y2="0"
         style="stroke-width:0.2; stroke:black; stroke-dasharray:none;"
         id="line5770" />
    </pattern>
    <pattern
       id="revside-fill-e0e0e0"
       x="1"
       y="1"
       width="1.5"
       height="1.5"
       patternUnits="userSpaceOnUse">
      <line
         x1="0"
         y1="0"
         x2="1.5"
         y2="1.5"
         style="stroke-width:0.2; stroke:#e0e0e0; stroke-dasharray:none;"
         id="line5773" />
      <line
         x1="0"
         y1="1.5"
         x2="1.5"
         y2="0"
         style="stroke-width:0.2; stroke:#e0e0e0; stroke-dasharray:none;"
         id="line5775" />
    </pattern>
  </defs>
  <g
     transform="scale(1,-1) translate(0, -128.400)"
     fill-rule="evenodd"
     style="stroke-linecap:round; stroke-linejoin:round; stroke-opacity:1.0; stroke-opacity:1.0;"
     id="g5777">
    <path
       d="M40.300 128.400  L0.000 128.400 L0.000 128.400 L0.000 0.000 L0.000 0.000 L40.300 0.000 L40.300 0.000 L40.300 128.400 L40.300 128.400z"
       fill="#cccccc"
       vector-effect="non-scaling-stroke"
       stroke="#000000"
       stroke-width="0.100mm"
       id="path5779" />
    <path
       style="fill:#000000;stroke:#000000;stroke-width:0.1mm;fill-opacity:1"
       d="m 9.3499999,29.92 a 2.5,2.5 0 0 1 -2.5,2.5 2.5,2.5 0 0 1 -2.5,-2.5 2.5,2.5 0 0 1 2.5,-2.5 2.5,2.5 0 0 1 2.5,2.5 z"
       id="circle5797" />
    <path
       style="fill:#000000;stroke:#000000;stroke-width:0.1mm;fill-opacity:1"
       d="m 9.3499999,36.27 a 2.5,2.5 0 0 1 -2.5,2.5 2.5,2.5 0 0 1 -2.5,-2.5 2.5,2.5 0 0 1 2.5,-2.5 2.5,2.5 0 0 1 2.5,2.5 z"
       id="circle5799" />
    <path
       style="fill:#000000;stroke:#000000;stroke-width:0.1mm;fill-opacity:1"
       d="m 9.3499999,42.619999 a 2.5,2.5 0 0 1 -2.5,2.5 2.5,2.5 0 0 1 -2.5,-2.5 2.5,2.5 0 0 1 2.5,-2.5 2.5,2.5 0 0 1 2.5,2.5 z"
       id="circle5801" />
    <path
       style="fill:#000000;stroke:#000000;stroke-width:0.1mm;fill-opacity:1"
       d="m 9.3499999,48.970001 a 2.5,2.5 0 0 1 -2.5,2.5 2.5,2.5 0 0 1 -2.5,-2.5 2.5,2.5 0 0 1 2.5,-2.5 2.5,2.5 0 0 1 2.5,2.5 z"
       id="circle5803" />
    <path
       style="fill:#000000;stroke:#000000;stroke-width:0.1mm;fill-opacity:1"
       d="m 9.3499999,87.330002 a 2.5,2.5 0 0 1 -2.5,2.5 2.5,2.5 0 0 1 -2.5,-2.5 2.5,2.5 0 0 1 2.5,-2.5 2.5,2.5 0 0 1 2.5,2.5 z"
       id="circle5805" />
    <path
       style="fill:#000000;stroke:#000000;stroke-width:0.1mm;fill-opacity:1"
       d="m 9.3499999,93.93 a 2.5,2.5 0 0 1 -2.5,2.5 2.5,2.5 0 0 1 -2.5,-2.5 2.5,2.5 0 0 1 2.5,-2.5 2.5,2.5 0 0 1 2.5,2.5 z"
       id="circle5807" />
    <path
       style="fill:#000000;stroke:#000000;stroke-width:0.1mm;fill-opacity:1"
       d="m 9.3499999,100.28 a 2.5,2.5 0 0 1 -2.5,2.5 2.5,2.5 0 0 1 -2.5,-2.5 2.5,2.5 0 0 1 2.5,-2.500001 2.5,2.5 0 0 1 2.5,2.500001 z"
       id="circle5809" />
    <path
       style="fill:#000000;stroke:#000000;stroke-width:0.1mm;fill-opacity:1"
       d="m 4.3499999,61.59 9.0000001,0 c 0.277,0 0.5,0.223 0.5,0.5 l 0,20 c 0,0.277 -0.223,0.5 -0.5,0.5 l -9.0000001,0 c -0.277,0 -0.5,-0.223 -0.5,-0.5 l 0,-20 c 0,-0.277 0.223,-0.5 0.5,-0.5 z"
       id="rect5811" />
    <path
       style="fill:#000000;stroke:#000000;stroke-width:0.1mm;fill-opacity:1"
       d="m 8.8499999,58.880001 a 1.5,1.5 0 0 1 -1.5,1.5 1.5,1.5 0 0 1 -1.5,-1.5 1.5,1.5 0 0 1 1.5,-1.5 1.5,1.5 0 0 1 1.5,1.5 z"
       id="circle5813" />
    <path
       d="M40.300 128.400  L0.000 128.400 L0.000 128.400 L0.000 0.000 L0.000 0.000 L40.300 0.000 L40.300 0.000 L40.300 128.400 L40.300 128.400"
       fill="none"
       vector-effect="non-scaling-stroke"
       stroke="#000000"
       stroke-width="0.100mm"
       id="path5823" />
  </g>
</svg>
