<?xml version="1.0" encoding="UTF-8" standalone="no"?>
<svg
   xmlns:dc="http://purl.org/dc/elements/1.1/"
   xmlns:cc="http://creativecommons.org/ns#"
   xmlns:rdf="http://www.w3.org/1999/02/22-rdf-syntax-ns#"
   xmlns:svg="http://www.w3.org/2000/svg"
   xmlns="http://www.w3.org/2000/svg"
   xmlns:sodipodi="http://sodipodi.sourceforge.net/DTD/sodipodi-0.dtd"
   xmlns:inkscape="http://www.inkscape.org/namespaces/inkscape"
   width="40.300mm"
   height="128.400mm"
   version="1.1"
   viewBox="0 0 40.300 128.400"
   id="svg4342"
   inkscape:version="0.91 r13725"
   sodipodi:docname="Frontpanel_controller.svg">
  <metadata
     id="metadata4404">
    <rdf:RDF>
      <cc:Work
         rdf:about="">
        <dc:format>image/svg+xml</dc:format>
        <dc:type
           rdf:resource="http://purl.org/dc/dcmitype/StillImage" />
      </cc:Work>
    </rdf:RDF>
  </metadata>
  <sodipodi:namedview
     pagecolor="#ffffff"
     bordercolor="#666666"
     borderopacity="1"
     objecttolerance="10"
     gridtolerance="10"
     guidetolerance="10"
     inkscape:pageopacity="0"
     inkscape:pageshadow="2"
     inkscape:window-width="1920"
     inkscape:window-height="1137"
     id="namedview4402"
     showgrid="false"
     inkscape:zoom="2.0749049"
     inkscape:cx="54.216346"
     inkscape:cy="203.33111"
     inkscape:window-x="-8"
     inkscape:window-y="-8"
     inkscape:window-maximized="1"
     inkscape:current-layer="svg4342" />
  <desc
     id="desc4344">Created with the Front Panel Designer by the export of the file 'Frontpanel_controller.fpd'.</desc>
  <defs
     id="defs4346">
    <pattern
       id="revside-fill"
       x="1"
       y="1"
       width="1.5"
       height="1.5"
       patternUnits="userSpaceOnUse">
      <line
         x1="0"
         y1="0"
         x2="1"
         y2="1"
         style="stroke-width:0.2; stroke:black; stroke-dasharray:none;"
         id="line4349" />
      <line
         x1="0"
         y1="1"
         x2="1"
         y2="0"
         style="stroke-width:0.2; stroke:black; stroke-dasharray:none;"
         id="line4351" />
    </pattern>
    <pattern
       id="revside-fill-e0e0e0"
       x="1"
       y="1"
       width="1.5"
       height="1.5"
       patternUnits="userSpaceOnUse">
      <line
         x1="0"
         y1="0"
         x2="1.5"
         y2="1.5"
         style="stroke-width:0.2; stroke:#e0e0e0; stroke-dasharray:none;"
         id="line4354" />
      <line
         x1="0"
         y1="1.5"
         x2="1.5"
         y2="0"
         style="stroke-width:0.2; stroke:#e0e0e0; stroke-dasharray:none;"
         id="line4356" />
    </pattern>
  </defs>
  <g
     transform="scale(1,-1) translate(0, -128.400)"
     fill-rule="evenodd"
     style="stroke-linecap:round; stroke-linejoin:round; stroke-opacity:1.0; stroke-opacity:1.0;"
     id="g4358">
    <path
       d="M40.300 128.400  L0.000 128.400 L0.000 128.400 L0.000 0.000 L0.000 0.000 L40.300 0.000 L40.300 0.000 L40.300 128.400 L40.300 128.400z"
       fill="#cccccc"
       vector-effect="non-scaling-stroke"
       stroke="#000000"
       stroke-width="0.100mm"
       id="path4360" />
    <path
       style="fill:#ffffff;stroke:#000000;stroke-width:0.1mm"
       d="m 9.3499999,29.209999 a 2.5,2.5 0 0 1 -2.5,2.5 2.5,2.5 0 0 1 -2.5,-2.5 2.5,2.5 0 0 1 2.5,-2.5 2.5,2.5 0 0 1 2.5,2.5 z"
       id="circle4362" />
    <path
       style="fill:#ffffff;stroke:#000000;stroke-width:0.1mm"
       d="m 9.3499999,35.560001 a 2.5,2.5 0 0 1 -2.5,2.5 2.5,2.5 0 0 1 -2.5,-2.5 2.5,2.5 0 0 1 2.5,-2.5 2.5,2.5 0 0 1 2.5,2.5 z"
       id="circle4364" />
    <path
       style="fill:#ffffff;stroke:#000000;stroke-width:0.1mm"
       d="m 9.3499999,85.980003 a 2.5,2.5 0 0 1 -2.5,2.5 2.5,2.5 0 0 1 -2.5,-2.5 2.5,2.5 0 0 1 2.5,-2.5 2.5,2.5 0 0 1 2.5,2.5 z"
       id="circle4366" />
    <path
       style="fill:#ffffff;stroke:#000000;stroke-width:0.1mm"
       d="m 9.3499999,92.330002 a 2.5,2.5 0 0 1 -2.5,2.5 2.5,2.5 0 0 1 -2.5,-2.5 2.5,2.5 0 0 1 2.5,-2.5 2.5,2.5 0 0 1 2.5,2.5 z"
       id="circle4368" />
    <path
       style="fill:#ffffff;stroke:#000000;stroke-width:0.1mm"
       d="m 9.3499999,98.68 a 2.5,2.5 0 0 1 -2.5,2.5 2.5,2.5 0 0 1 -2.5,-2.5 2.5,2.5 0 0 1 2.5,-2.5 2.5,2.5 0 0 1 2.5,2.5 z"
       id="circle4370" />
    <rect
       x="3.850"
       y="47.030"
       width="10.000"
       height="21.000"
       rx="0.500"
       fill="#ffffff"
       vector-effect="non-scaling-stroke"
       stroke="#000000"
       stroke-width="0.100mm"
       id="rect4372" />
    <path
       style="fill:#ffffff;stroke:#000000;stroke-width:0.1mm"
       d="m 8.8499999,44.470001 a 1.5,1.5 0 0 1 -1.5,1.5 1.5,1.5 0 0 1 -1.5,-1.5 1.5,1.5 0 0 1 1.5,-1.5 1.5,1.5 0 0 1 1.5,1.5 z"
       id="circle4374" />
    <path
       style="fill:#ffffff;stroke:#000000;stroke-width:0.1mm"
       d="m 9.3499999,79.629997 a 2.5,2.5 0 0 1 -2.5,2.5 2.5,2.5 0 0 1 -2.5,-2.5 2.5,2.5 0 0 1 2.5,-2.5 2.5,2.5 0 0 1 2.5,2.5 z"
       id="circle4376" />
    <path
       style="fill:#ffffff;stroke:#000000;stroke-width:0.1mm"
       d="m 9.3499999,73.279999 a 2.5,2.5 0 0 1 -2.5,2.5 2.5,2.5 0 0 1 -2.5,-2.5 2.5,2.5 0 0 1 2.5,-2.5 2.5,2.5 0 0 1 2.5,2.5 z"
       id="circle4378" />
    <path
       d="M40.300 128.400  L0.000 128.400 L0.000 128.400 L0.000 0.000 L0.000 0.000 L40.300 0.000 L40.300 0.000 L40.300 128.400 L40.300 128.400"
       fill="none"
       vector-effect="non-scaling-stroke"
       stroke="#000000"
       stroke-width="0.100mm"
       id="path4380" />
    <path
       d="M-1.000 0.000 L1.000 0.000 M0.000 -1.000 L0.000 1.000"
       fill="none"
       vector-effect="non-scaling-stroke"
       stroke="#ff0000"
       stroke-width="0.100mm"
       id="path4382" />
    <path
       d="M5.850 29.210 L7.850 29.210 M6.850 28.210 L6.850 30.210"
       fill="none"
       vector-effect="non-scaling-stroke"
       stroke="#ff0000"
       stroke-width="0.100mm"
       id="path4384" />
    <path
       d="M5.850 35.560 L7.850 35.560 M6.850 34.560 L6.850 36.560"
       fill="none"
       vector-effect="non-scaling-stroke"
       stroke="#ff0000"
       stroke-width="0.100mm"
       id="path4386" />
    <path
       d="M5.850 85.980 L7.850 85.980 M6.850 84.980 L6.850 86.980"
       fill="none"
       vector-effect="non-scaling-stroke"
       stroke="#ff0000"
       stroke-width="0.100mm"
       id="path4388" />
    <path
       d="M5.850 92.330 L7.850 92.330 M6.850 91.330 L6.850 93.330"
       fill="none"
       vector-effect="non-scaling-stroke"
       stroke="#ff0000"
       stroke-width="0.100mm"
       id="path4390" />
    <path
       d="M5.850 98.680 L7.850 98.680 M6.850 97.680 L6.850 99.680"
       fill="none"
       vector-effect="non-scaling-stroke"
       stroke="#ff0000"
       stroke-width="0.100mm"
       id="path4392" />
    <path
       d="M7.850 57.530 L9.850 57.530 M8.850 56.530 L8.850 58.530"
       fill="none"
       vector-effect="non-scaling-stroke"
       stroke="#ff0000"
       stroke-width="0.100mm"
       id="path4394" />
    <path
       d="M6.350 44.470 L8.350 44.470 M7.350 43.470 L7.350 45.470"
       fill="none"
       vector-effect="non-scaling-stroke"
       stroke="#ff0000"
       stroke-width="0.100mm"
       id="path4396" />
    <path
       d="M5.850 79.630 L7.850 79.630 M6.850 78.630 L6.850 80.630"
       fill="none"
       vector-effect="non-scaling-stroke"
       stroke="#ff0000"
       stroke-width="0.100mm"
       id="path4398" />
    <path
       d="M5.850 73.280 L7.850 73.280 M6.850 72.280 L6.850 74.280"
       fill="none"
       vector-effect="non-scaling-stroke"
       stroke="#ff0000"
       stroke-width="0.100mm"
       id="path4400" />
  </g>
</svg>
