G04 Layer_Color=2752767*
%FSLAX26Y26*%
%MOIN*%
%TF.FileFunction,Drawing*%
%TF.Part,Single*%
G01*
G75*
%TA.AperFunction,NonConductor*%
%ADD36C,0.005000*%
%ADD37C,0.006667*%
D36*
X2733583Y3542047D02*
Y3582047D01*
X2773583D01*
Y3542047D01*
X2733583D01*
Y3797953D02*
Y3837953D01*
X2773583D01*
Y3797953D01*
X2733583D01*
X2556417Y3542047D02*
Y3582047D01*
X2596417D01*
Y3542047D01*
X2556417D01*
Y3797953D02*
Y3837953D01*
X2596417D01*
Y3797953D01*
X2556417D01*
X2723583Y4457047D02*
Y4497047D01*
X2763583D01*
Y4457047D01*
X2723583D01*
Y4712953D02*
Y4752953D01*
X2763583D01*
Y4712953D01*
X2723583D01*
X2546417Y4457047D02*
Y4497047D01*
X2586417D01*
Y4457047D01*
X2546417D01*
Y4712953D02*
Y4752953D01*
X2586417D01*
Y4712953D01*
X2546417D01*
X2733583Y3982047D02*
Y4022047D01*
X2773583D01*
Y3982047D01*
X2733583D01*
Y4237953D02*
Y4277953D01*
X2773583D01*
Y4237953D01*
X2733583D01*
X2556417Y3982047D02*
Y4022047D01*
X2596417D01*
Y3982047D01*
X2556417D01*
Y4237953D02*
Y4277953D01*
X2596417D01*
Y4237953D01*
X2556417D01*
X3660000Y3295000D02*
Y3335000D01*
X3700000D01*
Y3295000D01*
X3660000D01*
Y3395000D02*
Y3435000D01*
X3700000D01*
Y3395000D01*
X3660000D01*
Y3495000D02*
Y3535000D01*
X3700000D01*
Y3495000D01*
X3660000D01*
Y3595000D02*
Y3635000D01*
X3700000D01*
Y3595000D01*
X3660000D01*
Y3695000D02*
Y3735000D01*
X3700000D01*
Y3695000D01*
X3660000D01*
Y3795000D02*
Y3835000D01*
X3700000D01*
Y3795000D01*
X3660000D01*
Y3895000D02*
Y3935000D01*
X3700000D01*
Y3895000D01*
X3660000D01*
Y3995000D02*
Y4035000D01*
X3700000D01*
Y3995000D01*
X3660000D01*
Y4095000D02*
Y4135000D01*
X3700000D01*
Y4095000D01*
X3660000D01*
Y4195000D02*
Y4235000D01*
X3700000D01*
Y4195000D01*
X3660000D01*
Y4295000D02*
Y4335000D01*
X3700000D01*
Y4295000D01*
X3660000D01*
Y4395000D02*
Y4435000D01*
X3700000D01*
Y4395000D01*
X3660000D01*
Y4495000D02*
Y4535000D01*
X3700000D01*
Y4495000D01*
X3660000D01*
Y4595000D02*
Y4635000D01*
X3700000D01*
Y4595000D01*
X3660000D01*
X4460000D02*
Y4635000D01*
X4500000D01*
Y4595000D01*
X4460000D01*
Y4495000D02*
Y4535000D01*
X4500000D01*
Y4495000D01*
X4460000D01*
Y4395000D02*
Y4435000D01*
X4500000D01*
Y4395000D01*
X4460000D01*
Y4295000D02*
Y4335000D01*
X4500000D01*
Y4295000D01*
X4460000D01*
Y4195000D02*
Y4235000D01*
X4500000D01*
Y4195000D01*
X4460000D01*
Y4095000D02*
Y4135000D01*
X4500000D01*
Y4095000D01*
X4460000D01*
Y3995000D02*
Y4035000D01*
X4500000D01*
Y3995000D01*
X4460000D01*
Y3895000D02*
Y3935000D01*
X4500000D01*
Y3895000D01*
X4460000D01*
Y3795000D02*
Y3835000D01*
X4500000D01*
Y3795000D01*
X4460000D01*
Y3695000D02*
Y3735000D01*
X4500000D01*
Y3695000D01*
X4460000D01*
Y3595000D02*
Y3635000D01*
X4500000D01*
Y3595000D01*
X4460000D01*
Y3495000D02*
Y3535000D01*
X4500000D01*
Y3495000D01*
X4460000D01*
Y3395000D02*
Y3435000D01*
X4500000D01*
Y3395000D01*
X4460000D01*
Y3295000D02*
Y3335000D01*
X4500000D01*
Y3295000D01*
X4460000D01*
X4975000Y3655000D02*
X4955000Y3695000D01*
X4995000D01*
X4975000Y3655000D01*
X5075000D02*
X5055000Y3695000D01*
X5095000D01*
X5075000Y3655000D01*
X4975000Y3555000D02*
X4955000Y3595000D01*
X4995000D01*
X4975000Y3555000D01*
X5075000D02*
X5055000Y3595000D01*
X5095000D01*
X5075000Y3555000D01*
X4975000Y3455000D02*
X4955000Y3495000D01*
X4995000D01*
X4975000Y3455000D01*
X5075000D02*
X5055000Y3495000D01*
X5095000D01*
X5075000Y3455000D01*
Y3355000D02*
X5055000Y3395000D01*
X5095000D01*
X5075000Y3355000D01*
X4975000D02*
X4955000Y3395000D01*
X4995000D01*
X4975000Y3355000D01*
X2515000Y4900000D02*
X2525000Y4910000D01*
X2535000D01*
X2525000Y4920000D01*
X2535000Y4930000D01*
X2525000D01*
X2515000Y4940000D01*
X2505000Y4930000D01*
X2495000D01*
X2505000Y4920000D01*
X2495000Y4910000D01*
X2505000D01*
X2515000Y4900000D01*
X5180000Y4880000D02*
X5190000Y4890000D01*
X5200000D01*
X5190000Y4900000D01*
X5200000Y4910000D01*
X5190000D01*
X5180000Y4920000D01*
X5170000Y4910000D01*
X5160000D01*
X5170000Y4900000D01*
X5160000Y4890000D01*
X5170000D01*
X5180000Y4880000D01*
X2515000Y3010000D02*
X2525000Y3020000D01*
X2535000D01*
X2525000Y3030000D01*
X2535000Y3040000D01*
X2525000D01*
X2515000Y3050000D01*
X2505000Y3040000D01*
X2495000D01*
X2505000Y3030000D01*
X2495000Y3020000D01*
X2505000D01*
X2515000Y3010000D01*
X5210000Y3025000D02*
X5220000Y3035000D01*
X5230000D01*
X5220000Y3045000D01*
X5230000Y3055000D01*
X5220000D01*
X5210000Y3065000D01*
X5200000Y3055000D01*
X5190000D01*
X5200000Y3045000D01*
X5190000Y3035000D01*
X5200000D01*
X5210000Y3025000D01*
X2955000Y4635000D02*
X2965000Y4655000D01*
X2955000Y4675000D01*
X2975000Y4665000D01*
X2995000Y4675000D01*
X2985000Y4655000D01*
X2995000Y4635000D01*
X2975000Y4645000D01*
X2955000Y4635000D01*
Y4535000D02*
X2965000Y4555000D01*
X2955000Y4575000D01*
X2975000Y4565000D01*
X2995000Y4575000D01*
X2985000Y4555000D01*
X2995000Y4535000D01*
X2975000Y4545000D01*
X2955000Y4535000D01*
Y4435000D02*
X2965000Y4455000D01*
X2955000Y4475000D01*
X2975000Y4465000D01*
X2995000Y4475000D01*
X2985000Y4455000D01*
X2995000Y4435000D01*
X2975000Y4445000D01*
X2955000Y4435000D01*
Y4335000D02*
X2965000Y4355000D01*
X2955000Y4375000D01*
X2975000Y4365000D01*
X2995000Y4375000D01*
X2985000Y4355000D01*
X2995000Y4335000D01*
X2975000Y4345000D01*
X2955000Y4335000D01*
Y4235000D02*
X2965000Y4255000D01*
X2955000Y4275000D01*
X2975000Y4265000D01*
X2995000Y4275000D01*
X2985000Y4255000D01*
X2995000Y4235000D01*
X2975000Y4245000D01*
X2955000Y4235000D01*
Y4135000D02*
X2965000Y4155000D01*
X2955000Y4175000D01*
X2975000Y4165000D01*
X2995000Y4175000D01*
X2985000Y4155000D01*
X2995000Y4135000D01*
X2975000Y4145000D01*
X2955000Y4135000D01*
Y4035000D02*
X2965000Y4055000D01*
X2955000Y4075000D01*
X2975000Y4065000D01*
X2995000Y4075000D01*
X2985000Y4055000D01*
X2995000Y4035000D01*
X2975000Y4045000D01*
X2955000Y4035000D01*
X3255000Y4635000D02*
X3265000Y4655000D01*
X3255000Y4675000D01*
X3275000Y4665000D01*
X3295000Y4675000D01*
X3285000Y4655000D01*
X3295000Y4635000D01*
X3275000Y4645000D01*
X3255000Y4635000D01*
Y4535000D02*
X3265000Y4555000D01*
X3255000Y4575000D01*
X3275000Y4565000D01*
X3295000Y4575000D01*
X3285000Y4555000D01*
X3295000Y4535000D01*
X3275000Y4545000D01*
X3255000Y4535000D01*
Y4435000D02*
X3265000Y4455000D01*
X3255000Y4475000D01*
X3275000Y4465000D01*
X3295000Y4475000D01*
X3285000Y4455000D01*
X3295000Y4435000D01*
X3275000Y4445000D01*
X3255000Y4435000D01*
Y4335000D02*
X3265000Y4355000D01*
X3255000Y4375000D01*
X3275000Y4365000D01*
X3295000Y4375000D01*
X3285000Y4355000D01*
X3295000Y4335000D01*
X3275000Y4345000D01*
X3255000Y4335000D01*
Y4235000D02*
X3265000Y4255000D01*
X3255000Y4275000D01*
X3275000Y4265000D01*
X3295000Y4275000D01*
X3285000Y4255000D01*
X3295000Y4235000D01*
X3275000Y4245000D01*
X3255000Y4235000D01*
Y4135000D02*
X3265000Y4155000D01*
X3255000Y4175000D01*
X3275000Y4165000D01*
X3295000Y4175000D01*
X3285000Y4155000D01*
X3295000Y4135000D01*
X3275000Y4145000D01*
X3255000Y4135000D01*
Y4035000D02*
X3265000Y4055000D01*
X3255000Y4075000D01*
X3275000Y4065000D01*
X3295000Y4075000D01*
X3285000Y4055000D01*
X3295000Y4035000D01*
X3275000Y4045000D01*
X3255000Y4035000D01*
D37*
X5075000Y4210000D02*
G03*
X5075000Y4210000I-20000J0D01*
G01*
Y4110000D02*
G03*
X5075000Y4110000I-20000J0D01*
G01*
Y4010000D02*
G03*
X5075000Y4010000I-20000J0D01*
G01*
Y3910000D02*
G03*
X5075000Y3910000I-20000J0D01*
G01*
X3420000Y3640000D02*
G03*
X3420000Y3640000I-20000J0D01*
G01*
Y3740000D02*
G03*
X3420000Y3740000I-20000J0D01*
G01*
Y3840000D02*
G03*
X3420000Y3840000I-20000J0D01*
G01*
%TF.MD5,8013d0a684b19a63c8246f5e4dafdacc*%
M02*
