G04 Layer_Color=8421504*
%FSLAX45Y45*%
%MOMM*%
%TF.FileFunction,Paste,Top*%
%TF.Part,Single*%
G01*
G75*
%TA.AperFunction,SMDPad,CuDef*%
%ADD10R,2.50000X1.50000*%
%ADD11R,2.60000X1.10000*%
%ADD12R,0.90000X0.70000*%
%ADD13R,0.70000X0.90000*%
%ADD14R,2.00000X3.50000*%
%ADD15R,1.10000X2.60000*%
%ADD16R,2.15900X2.74300*%
%ADD17R,2.26000X2.16000*%
%ADD18R,3.50000X2.00000*%
%ADD19R,0.90000X0.80000*%
%ADD20R,1.00000X0.55000*%
%ADD21O,1.00000X0.55000*%
%ADD22R,5.60000X2.30000*%
%ADD23R,1.40000X1.10000*%
%ADD24R,3.20000X1.80000*%
%ADD25R,1.39000X1.40000*%
%ADD26R,3.36000X4.86000*%
%ADD27R,3.10000X4.00000*%
%ADD28R,1.20000X1.20000*%
%ADD29R,1.17000X1.88000*%
%ADD30R,1.70000X1.10000*%
%ADD31R,1.80000X2.10000*%
%ADD32R,2.99720X2.26060*%
%ADD33R,0.76200X1.14300*%
%ADD34R,0.80000X0.90000*%
%ADD35R,1.30000X4.75000*%
%ADD36R,1.21920X1.21920*%
%ADD37R,0.71120X2.00660*%
%ADD38O,1.40000X0.80000*%
%ADD39R,1.40000X0.80000*%
%ADD40R,1.42240X3.02260*%
%ADD41R,1.50000X2.00000*%
%ADD42R,3.80000X2.00000*%
%ADD43O,1.65000X0.65000*%
%ADD44R,1.65000X0.65000*%
%ADD45O,0.55000X1.65000*%
%ADD46O,1.65000X0.55000*%
D10*
X21811000Y1832000D02*
D03*
X22661000Y2182000D02*
D03*
Y1832000D02*
D03*
X21811000Y2182000D02*
D03*
X22121001Y4286000D02*
D03*
X22971001Y4636000D02*
D03*
Y4286000D02*
D03*
X22121001Y4636000D02*
D03*
D11*
X18502000Y3365000D02*
D03*
Y3095000D02*
D03*
X18191000Y3366000D02*
D03*
Y3096000D02*
D03*
X17889999Y3364000D02*
D03*
Y3094000D02*
D03*
X15287000Y3290000D02*
D03*
Y3020000D02*
D03*
X9357000Y2116000D02*
D03*
Y1846000D02*
D03*
X9057000Y2115000D02*
D03*
Y1845000D02*
D03*
X8760000Y2118000D02*
D03*
Y1848000D02*
D03*
D12*
X13789000Y5501000D02*
D03*
Y5651000D02*
D03*
X13790999Y5230000D02*
D03*
Y5380000D02*
D03*
X3022600Y3707200D02*
D03*
Y3557200D02*
D03*
X7636000Y2598000D02*
D03*
Y2748000D02*
D03*
X9234201Y7043401D02*
D03*
Y7193401D02*
D03*
X9131300Y8035220D02*
D03*
Y8185220D02*
D03*
X23026401Y6002001D02*
D03*
Y6152001D02*
D03*
X23012399Y7720400D02*
D03*
Y7570400D02*
D03*
X12303299Y8033220D02*
D03*
Y8183220D02*
D03*
X12406201Y7041401D02*
D03*
Y7191401D02*
D03*
X15663300Y8020220D02*
D03*
Y8170220D02*
D03*
X15766200Y7028401D02*
D03*
Y7178401D02*
D03*
X19107298Y8037220D02*
D03*
Y8187220D02*
D03*
X19210201Y7045401D02*
D03*
Y7195401D02*
D03*
X21763000Y7263000D02*
D03*
Y7143000D02*
D03*
D13*
X16928000Y3891000D02*
D03*
X16778000D02*
D03*
X3239700Y8427720D02*
D03*
X3389700D02*
D03*
X3227000Y9098280D02*
D03*
X3377000D02*
D03*
X3176200Y4343400D02*
D03*
X3326200D02*
D03*
X2947600Y3048000D02*
D03*
X3097600D02*
D03*
X2781001Y6632000D02*
D03*
X2930998D02*
D03*
X8801202Y7033946D02*
D03*
X8651199D02*
D03*
X9108401Y9531401D02*
D03*
X9258401D02*
D03*
X9360001Y7753401D02*
D03*
X9210001D02*
D03*
X9080602Y7033946D02*
D03*
X8930599D02*
D03*
X4064001Y8198000D02*
D03*
X3913999D02*
D03*
X3311997Y9734393D02*
D03*
X3462000D02*
D03*
X5530000Y8285000D02*
D03*
X5380000D02*
D03*
X12252601Y7031946D02*
D03*
X12102599D02*
D03*
X12532001Y7751401D02*
D03*
X12382001D02*
D03*
X12280400Y9529401D02*
D03*
X12430400D02*
D03*
X11973201Y7031946D02*
D03*
X11823199D02*
D03*
X15612601Y7018946D02*
D03*
X15462599D02*
D03*
X15892001Y7738401D02*
D03*
X15742001D02*
D03*
X15640401Y9516401D02*
D03*
X15790401D02*
D03*
X15333202Y7018946D02*
D03*
X15183199D02*
D03*
X19056601Y7035946D02*
D03*
X18906599D02*
D03*
X19336002Y7755401D02*
D03*
X19186002D02*
D03*
X19084399Y9533401D02*
D03*
X19234399D02*
D03*
X18777200Y7035946D02*
D03*
X18627199D02*
D03*
X21677000Y7668000D02*
D03*
X21557001D02*
D03*
X21682001Y7507000D02*
D03*
X21562000D02*
D03*
X21677000Y7814000D02*
D03*
X21557001D02*
D03*
D14*
X16657001Y3507000D02*
D03*
X17147000D02*
D03*
D15*
X8810400Y8305800D02*
D03*
X8540400D02*
D03*
X8694000Y3128000D02*
D03*
X8424000D02*
D03*
X8683401Y4527601D02*
D03*
X8413399D02*
D03*
X8694800Y4826000D02*
D03*
X8424798D02*
D03*
X8540399Y8007401D02*
D03*
X8810401D02*
D03*
X11712399Y8005401D02*
D03*
X11982401D02*
D03*
X11866800Y4824000D02*
D03*
X11596798D02*
D03*
X11855401Y4525601D02*
D03*
X11585399D02*
D03*
X11982400Y8303800D02*
D03*
X11712400D02*
D03*
X15072398Y7992401D02*
D03*
X15342401D02*
D03*
X15226801Y4811000D02*
D03*
X14956798D02*
D03*
X15215401Y4512601D02*
D03*
X14945399D02*
D03*
X15342400Y8290800D02*
D03*
X15072400D02*
D03*
X18516399Y8009401D02*
D03*
X18786401D02*
D03*
X18670799Y4828000D02*
D03*
X18400798D02*
D03*
X18659401Y4529601D02*
D03*
X18389400D02*
D03*
X18786400Y8307800D02*
D03*
X18516400D02*
D03*
D16*
X3690600Y6324600D02*
D03*
X4132600D02*
D03*
D17*
X22581000Y10405000D02*
D03*
Y9915000D02*
D03*
D18*
X8012000Y2333000D02*
D03*
Y2823000D02*
D03*
D19*
X9767601Y9359801D02*
D03*
Y9499801D02*
D03*
X8940800Y7880200D02*
D03*
Y8020200D02*
D03*
X4909000Y5449000D02*
D03*
Y5589000D02*
D03*
X12112799Y7878200D02*
D03*
Y8018200D02*
D03*
X12939601Y9357801D02*
D03*
Y9497801D02*
D03*
X15472800Y7865200D02*
D03*
Y8005200D02*
D03*
X16299602Y9344801D02*
D03*
Y9484801D02*
D03*
X18916798Y7882200D02*
D03*
Y8022200D02*
D03*
X19743600Y9361801D02*
D03*
Y9501801D02*
D03*
D20*
X9623201Y9309400D02*
D03*
Y9499402D02*
D03*
X9353199Y9309400D02*
D03*
Y9404401D02*
D03*
X12795201Y9307400D02*
D03*
Y9497402D02*
D03*
X12525199Y9307400D02*
D03*
Y9402401D02*
D03*
X16155202Y9294399D02*
D03*
Y9484402D02*
D03*
X15885199Y9294399D02*
D03*
Y9389401D02*
D03*
X19599200Y9311400D02*
D03*
Y9501402D02*
D03*
X19329199Y9311400D02*
D03*
Y9406401D02*
D03*
D21*
X9353199Y9499402D02*
D03*
X12525199Y9497402D02*
D03*
X15885199Y9484402D02*
D03*
X19329199Y9501402D02*
D03*
D22*
X10321802Y8987001D02*
D03*
Y8247001D02*
D03*
X13493800Y8985001D02*
D03*
Y8245001D02*
D03*
X16853801Y8972001D02*
D03*
Y8232001D02*
D03*
X20297801Y8989001D02*
D03*
Y8249001D02*
D03*
D23*
X10428000Y7142602D02*
D03*
Y6992600D02*
D03*
X13600000Y7140602D02*
D03*
Y6990600D02*
D03*
X16960001Y7127602D02*
D03*
Y6977599D02*
D03*
X20403999Y7144602D02*
D03*
Y6994600D02*
D03*
D24*
X10072400Y6158403D02*
D03*
Y6808399D02*
D03*
X13244400Y6156403D02*
D03*
Y6806399D02*
D03*
X16604401Y6143402D02*
D03*
Y6793399D02*
D03*
X20048399Y6160403D02*
D03*
Y6810399D02*
D03*
D25*
X9421602Y5078202D02*
D03*
X9605599D02*
D03*
X12593601Y5076202D02*
D03*
X12777599D02*
D03*
X15953603Y5063201D02*
D03*
X16137599D02*
D03*
X19397601Y5080202D02*
D03*
X19581599D02*
D03*
D26*
X9513600Y4680001D02*
D03*
X12685600Y4678001D02*
D03*
X16045599Y4665001D02*
D03*
X19489600Y4682001D02*
D03*
D27*
X9268201Y8947201D02*
D03*
X9708200D02*
D03*
X12440201Y8945201D02*
D03*
X12880200D02*
D03*
X15800201Y8932201D02*
D03*
X16240199D02*
D03*
X19244202Y8949201D02*
D03*
X19684200D02*
D03*
D28*
X8408401Y4273601D02*
D03*
X8688400D02*
D03*
X11580401Y4271601D02*
D03*
X11860400D02*
D03*
X14940401Y4258601D02*
D03*
X15220399D02*
D03*
X18384399Y4275601D02*
D03*
X18664400D02*
D03*
D29*
X9179403Y5107803D02*
D03*
X8931402D02*
D03*
X8683401D02*
D03*
X8435401D02*
D03*
X8187400D02*
D03*
X9179403Y6743802D02*
D03*
X8931402D02*
D03*
X8683401D02*
D03*
X8435401D02*
D03*
X8187400D02*
D03*
X12351402Y5105803D02*
D03*
X12103402D02*
D03*
X11855401D02*
D03*
X11607401D02*
D03*
X11359400D02*
D03*
X12351402Y6741802D02*
D03*
X12103402D02*
D03*
X11855401D02*
D03*
X11607401D02*
D03*
X11359400D02*
D03*
X15711401Y5092803D02*
D03*
X15463402D02*
D03*
X15215401D02*
D03*
X14967401D02*
D03*
X14719400D02*
D03*
X15711401Y6728801D02*
D03*
X15463402D02*
D03*
X15215401D02*
D03*
X14967401D02*
D03*
X14719400D02*
D03*
X19155402Y5109803D02*
D03*
X18907402D02*
D03*
X18659401D02*
D03*
X18411401D02*
D03*
X18163400D02*
D03*
X19155402Y6745802D02*
D03*
X18907402D02*
D03*
X18659401D02*
D03*
X18411401D02*
D03*
X18163400D02*
D03*
D30*
X10453400Y6466002D02*
D03*
Y6196000D02*
D03*
X13625400Y6464002D02*
D03*
Y6194000D02*
D03*
X16985400Y6451002D02*
D03*
Y6181000D02*
D03*
X20429401Y6468002D02*
D03*
Y6198000D02*
D03*
D31*
X9640600Y6771401D02*
D03*
Y7211400D02*
D03*
X12812601Y6769401D02*
D03*
Y7209400D02*
D03*
X16172600Y6756401D02*
D03*
Y7196400D02*
D03*
X19616600Y6773401D02*
D03*
Y7213400D02*
D03*
D32*
X8865900Y7493051D02*
D03*
X12037900Y7491051D02*
D03*
X15397900Y7478051D02*
D03*
X18841901Y7495051D02*
D03*
D33*
X8675400Y7232701D02*
D03*
X8802400D02*
D03*
X8929400D02*
D03*
X9056400D02*
D03*
X8675400Y7753401D02*
D03*
X8802400D02*
D03*
X8929400D02*
D03*
X9056400D02*
D03*
X11847400Y7230701D02*
D03*
X11974400D02*
D03*
X12101400D02*
D03*
X12228400D02*
D03*
X11847400Y7751401D02*
D03*
X11974400D02*
D03*
X12101400D02*
D03*
X12228400D02*
D03*
X15207401Y7217701D02*
D03*
X15334399D02*
D03*
X15461400D02*
D03*
X15588400D02*
D03*
X15207401Y7738401D02*
D03*
X15334399D02*
D03*
X15461400D02*
D03*
X15588400D02*
D03*
X18651401Y7234701D02*
D03*
X18778400D02*
D03*
X18905400D02*
D03*
X19032401D02*
D03*
X18651401Y7755401D02*
D03*
X18778400D02*
D03*
X18905400D02*
D03*
X19032401D02*
D03*
D34*
X2926000Y6785002D02*
D03*
X2786000D02*
D03*
X5280003Y8752000D02*
D03*
X5420002D02*
D03*
X5427000Y8545000D02*
D03*
X5287000D02*
D03*
X22065448Y7674916D02*
D03*
X22205447D02*
D03*
X22092801Y6127801D02*
D03*
X22232800D02*
D03*
D35*
X21582001Y9604500D02*
D03*
Y10499500D02*
D03*
D36*
X5321318Y8123005D02*
D03*
X5532996D02*
D03*
D37*
X3887400Y8000000D02*
D03*
X3989000D02*
D03*
X4089000D02*
D03*
D38*
X22891399Y5746801D02*
D03*
Y5873801D02*
D03*
Y6000801D02*
D03*
Y6127801D02*
D03*
X22391400Y5746801D02*
D03*
Y5873801D02*
D03*
Y6000801D02*
D03*
X22864047Y7293916D02*
D03*
Y7420916D02*
D03*
Y7547916D02*
D03*
Y7674916D02*
D03*
X22364047Y7293916D02*
D03*
Y7420916D02*
D03*
Y7547916D02*
D03*
D39*
X22391400Y6127801D02*
D03*
X22364047Y7674916D02*
D03*
D40*
X3860800Y5373400D02*
D03*
Y5854700D02*
D03*
X5472000Y5704000D02*
D03*
Y6185300D02*
D03*
D41*
X4462000Y5820000D02*
D03*
X4692000D02*
D03*
X4922000D02*
D03*
D42*
X4692000Y6450000D02*
D03*
D43*
X12147820Y10589260D02*
D03*
Y10335260D02*
D03*
Y10081260D02*
D03*
X13037820Y10589260D02*
D03*
Y10335260D02*
D03*
X19615421Y10619740D02*
D03*
Y10365740D02*
D03*
Y10111740D02*
D03*
X20505420Y10619740D02*
D03*
Y10365740D02*
D03*
D44*
X13037820Y10081260D02*
D03*
X20505420Y10111740D02*
D03*
D45*
X4424000Y9174000D02*
D03*
X4504000D02*
D03*
X4584000D02*
D03*
X4664000D02*
D03*
X4744000D02*
D03*
X4824000D02*
D03*
X4904000D02*
D03*
X4984000D02*
D03*
Y8334000D02*
D03*
X4904000D02*
D03*
X4824000D02*
D03*
X4744000D02*
D03*
X4664000D02*
D03*
X4584000D02*
D03*
X4504000D02*
D03*
X4424000D02*
D03*
D46*
X5124000Y9034000D02*
D03*
Y8954000D02*
D03*
Y8874000D02*
D03*
Y8794000D02*
D03*
Y8714000D02*
D03*
Y8634000D02*
D03*
Y8554000D02*
D03*
Y8474000D02*
D03*
X4284000D02*
D03*
Y8554000D02*
D03*
Y8634000D02*
D03*
Y8714000D02*
D03*
Y8794000D02*
D03*
Y8874000D02*
D03*
Y8954000D02*
D03*
Y9034000D02*
D03*
%TF.MD5,8a375cf5b67536a7dd3bdf59bbd4f9a1*%
M02*
