G04 Layer_Physical_Order=1*
G04 Layer_Color=255*
%FSLAX45Y45*%
%MOMM*%
%TF.FileFunction,Copper,L1,Top,Signal*%
%TF.Part,Single*%
G01*
G75*
%TA.AperFunction,SMDPad,CuDef*%
%ADD10R,2.50000X1.50000*%
%ADD11R,2.60000X1.10000*%
%ADD12R,0.90000X0.70000*%
%ADD13R,0.70000X0.90000*%
%ADD14R,2.00000X3.50000*%
%ADD15R,1.10000X2.60000*%
%ADD16R,2.15900X2.74300*%
%ADD17R,2.26000X2.16000*%
%ADD18R,3.50000X2.00000*%
%ADD19R,0.90000X0.80000*%
%ADD20R,1.00000X0.55000*%
%ADD21O,1.00000X0.55000*%
%ADD22R,5.60000X2.30000*%
%ADD23R,1.40000X1.10000*%
%ADD24R,3.20000X1.80000*%
%ADD25R,1.39000X1.40000*%
%ADD26R,3.36000X4.86000*%
%ADD27R,3.10000X4.00000*%
%ADD28R,1.20000X1.20000*%
%ADD29R,1.17000X1.88000*%
%ADD30R,1.70000X1.10000*%
%ADD31R,1.80000X2.10000*%
%ADD32R,2.99720X2.26060*%
%ADD33R,0.76200X1.14300*%
%ADD34R,0.80000X0.90000*%
%ADD35R,1.30000X4.75000*%
%ADD36R,1.21920X1.21920*%
%ADD37R,0.71120X2.00660*%
%ADD38O,1.40000X0.80000*%
%ADD39R,1.40000X0.80000*%
%ADD40R,1.42240X3.02260*%
%ADD41R,1.50000X2.00000*%
%ADD42R,3.80000X2.00000*%
%ADD43O,1.65000X0.65000*%
%ADD44R,1.65000X0.65000*%
%ADD45O,0.55000X1.65000*%
%ADD46O,1.65000X0.55000*%
%TA.AperFunction,Conductor*%
%ADD47C,2.00000*%
%ADD48C,0.63500*%
%ADD49C,0.30000*%
%ADD50C,0.50000*%
%ADD51C,0.25400*%
%ADD52C,0.50800*%
%ADD53C,1.27000*%
%ADD54C,0.70000*%
%ADD55C,0.30480*%
%TA.AperFunction,ComponentPad*%
%ADD56C,1.70000*%
%ADD57C,1.52400*%
%ADD58C,1.60000*%
G04:AMPARAMS|DCode=59|XSize=1.5748mm|YSize=1.5748mm|CornerRadius=0mm|HoleSize=0mm|Usage=FLASHONLY|Rotation=90.000|XOffset=0mm|YOffset=0mm|HoleType=Round|Shape=Octagon|*
%AMOCTAGOND59*
4,1,8,0.39370,0.78740,-0.39370,0.78740,-0.78740,0.39370,-0.78740,-0.39370,-0.39370,-0.78740,0.39370,-0.78740,0.78740,-0.39370,0.78740,0.39370,0.39370,0.78740,0.0*
%
%ADD59OCTAGOND59*%

%ADD60C,2.80000*%
%TA.AperFunction,ViaPad*%
%ADD61C,1.52400*%
%ADD62C,2.60000*%
%ADD63C,0.90000*%
%ADD64C,0.95000*%
%ADD65C,1.27000*%
%ADD66C,0.76200*%
%ADD67C,0.67200*%
%ADD68C,0.63500*%
%ADD69C,0.70000*%
G36*
X13473001Y6456001D02*
X12711001D01*
Y6913201D01*
X13473001D01*
Y6456001D01*
D02*
G37*
G36*
X16833002Y6443001D02*
X16071001D01*
Y6900201D01*
X16833002D01*
Y6443001D01*
D02*
G37*
G36*
X10301001Y6458001D02*
X9539001D01*
Y6915201D01*
X10301001D01*
Y6458001D01*
D02*
G37*
G36*
X17149200Y7071600D02*
X16234801D01*
X16107800Y7071600D01*
X15803000Y6639800D01*
X15726801Y6639800D01*
Y6857846D01*
X15727255Y6858150D01*
X15805853Y6936748D01*
X15818008Y6954941D01*
X15821681Y6973401D01*
X15831201D01*
Y7052601D01*
X15842401D01*
Y7137601D01*
X15840221Y7139782D01*
X15844641Y7146397D01*
X15846193Y7154201D01*
Y7311609D01*
X15994801D01*
X16002605Y7313161D01*
X16009221Y7317582D01*
X16013641Y7324197D01*
X16015193Y7332001D01*
Y7535200D01*
X16015193Y7790420D01*
X16013641Y7798223D01*
X16009219Y7804839D01*
X16002605Y7809259D01*
X15994801Y7810811D01*
X15851381Y7810812D01*
X15851379Y7810812D01*
X15846741Y7814619D01*
Y8062200D01*
X15845189Y8070003D01*
X15840768Y8076619D01*
X15834154Y8081039D01*
X15826350Y8082592D01*
X15588129D01*
X15580089Y8095292D01*
X15582420Y8113000D01*
X15579552Y8134798D01*
X15571136Y8155110D01*
X15557753Y8172553D01*
X15540311Y8185937D01*
X15519998Y8194351D01*
X15498199Y8197220D01*
X15476402Y8194351D01*
X15456088Y8185937D01*
X15438647Y8172553D01*
X15425262Y8155110D01*
X15416849Y8134798D01*
X15413979Y8113000D01*
X15416849Y8091202D01*
X15420036Y8083509D01*
Y8065200D01*
X15407800D01*
Y7945200D01*
X15514023D01*
X15522694Y7935209D01*
X15520634Y7925200D01*
X15407800D01*
Y7832787D01*
X15405322Y7820336D01*
Y7815551D01*
X15403300D01*
Y7681200D01*
X15295001Y7681200D01*
X15295000Y8595600D01*
X17149199Y8595601D01*
X17149200Y7071600D01*
D02*
G37*
G36*
X20277000Y6460001D02*
X19515001D01*
Y6917201D01*
X20277000D01*
Y6460001D01*
D02*
G37*
G36*
X17137801Y7027201D02*
Y6392201D01*
X16858401D01*
X16858401Y7027201D01*
X17137801Y7027201D01*
D02*
G37*
G36*
X23825200Y6302205D02*
Y6205795D01*
X23812500Y6199532D01*
X23797514Y6211031D01*
X23774113Y6220724D01*
X23749001Y6224030D01*
X23723888Y6220724D01*
X23700485Y6211031D01*
X23680389Y6195610D01*
X23664969Y6175515D01*
X23655276Y6152113D01*
X23651970Y6127000D01*
X23655276Y6101887D01*
X23664969Y6078485D01*
X23680389Y6058389D01*
X23700485Y6042969D01*
X23723888Y6033276D01*
X23749001Y6029970D01*
X23774113Y6033276D01*
X23797514Y6042969D01*
X23812500Y6054468D01*
X23825200Y6048205D01*
Y5951795D01*
X23812500Y5945532D01*
X23797514Y5957031D01*
X23774113Y5966724D01*
X23749001Y5970030D01*
X23723888Y5966724D01*
X23700485Y5957031D01*
X23680389Y5941610D01*
X23664969Y5921515D01*
X23655276Y5898113D01*
X23651970Y5873000D01*
X23655276Y5847887D01*
X23657838Y5841702D01*
X23609227Y5793090D01*
X23071643D01*
X23067332Y5805790D01*
X23078354Y5814248D01*
X23091737Y5831691D01*
X23100153Y5852003D01*
X23103021Y5873801D01*
X23100153Y5895599D01*
X23091737Y5915911D01*
X23078354Y5933354D01*
X23077119Y5934301D01*
X23081430Y5947001D01*
X23091400D01*
Y5954511D01*
X23349001D01*
X23349001Y5954511D01*
X23366714Y5958035D01*
X23381734Y5968069D01*
X23707660Y6293997D01*
X23723888Y6287276D01*
X23749001Y6283970D01*
X23774113Y6287276D01*
X23797514Y6296969D01*
X23812500Y6308468D01*
X23825200Y6302205D01*
D02*
G37*
G36*
X13777802Y7040201D02*
Y6405201D01*
X13498401D01*
X13498401Y7040201D01*
X13777802Y7040201D01*
D02*
G37*
G36*
X20581801Y7044201D02*
Y6409201D01*
X20302402D01*
X20302402Y7044201D01*
X20581801Y7044201D01*
D02*
G37*
G36*
X10605801Y7042201D02*
Y6407201D01*
X10326401D01*
X10326401Y7042201D01*
X10605801Y7042201D01*
D02*
G37*
G36*
X11766000Y8595000D02*
X11773000Y8588000D01*
Y7879000D01*
X11874039D01*
X11883000Y7870000D01*
Y7599002D01*
X12457001Y7599000D01*
Y7649801D01*
X12482400D01*
X12482399Y7794440D01*
X12491380Y7803420D01*
X12634801Y7803420D01*
X12634801Y7548201D01*
Y7345001D01*
X12465801D01*
Y7167201D01*
X12355401D01*
Y7278950D01*
X12263951Y7370401D01*
X11883000Y7370401D01*
Y7362000D01*
X10760001D01*
Y7362000D01*
X10760000Y7362001D01*
Y8594979D01*
X10769021Y8603919D01*
X11766000Y8595000D01*
D02*
G37*
G36*
X15124001D02*
X15131000Y8588000D01*
Y7879000D01*
X15232039D01*
X15241000Y7870000D01*
Y7586002D01*
X15817001Y7586000D01*
Y7636801D01*
X15842400D01*
X15842400Y7781439D01*
X15851379Y7790420D01*
X15994801Y7790420D01*
X15994801Y7535200D01*
Y7332001D01*
X15825801D01*
Y7154201D01*
X15715401D01*
Y7265950D01*
X15623952Y7357400D01*
X14699400Y7357402D01*
Y7362000D01*
X14117999D01*
Y7362000D01*
X14117999Y7362001D01*
Y8594979D01*
X14127020Y8603919D01*
X15124001Y8595000D01*
D02*
G37*
G36*
X8607481Y9263776D02*
Y7879176D01*
X8658281Y7828376D01*
Y7815976D01*
X8709081D01*
Y7601002D01*
X9285001Y7601000D01*
Y7651801D01*
X9310400D01*
X9310400Y7796440D01*
X9319380Y7805420D01*
X9462801Y7805420D01*
X9462801Y7550201D01*
Y7347001D01*
X9293802D01*
Y7169201D01*
X9183401D01*
Y7280950D01*
X9091951Y7372401D01*
X8404281Y7372402D01*
Y6857801D01*
X8356901D01*
Y6629802D01*
X8404281D01*
Y6063376D01*
X7371628D01*
X7371151Y6066998D01*
X7362737Y6087310D01*
X7349353Y6104753D01*
X7331910Y6118137D01*
X7325486Y6120798D01*
Y8864600D01*
X7322769Y8878256D01*
X7315034Y8889834D01*
X7111834Y9093034D01*
X7100256Y9100769D01*
X7086600Y9103486D01*
X5689982D01*
X5320234Y9473234D01*
X5308656Y9480969D01*
X5295000Y9483686D01*
X4966000D01*
X4952344Y9480969D01*
X4940766Y9473234D01*
X4878766Y9411234D01*
X4871031Y9399656D01*
X4868314Y9386000D01*
Y9270630D01*
X4864942Y9268156D01*
X4855614Y9265004D01*
X4842534Y9273744D01*
X4824000Y9277431D01*
X4805466Y9273744D01*
X4792358Y9264985D01*
X4784000Y9263955D01*
X4775642Y9264985D01*
X4762534Y9273744D01*
X4744000Y9277431D01*
X4725467Y9273744D01*
X4720041Y9270119D01*
X4707341Y9276907D01*
Y9370000D01*
X4704803Y9382759D01*
X4697575Y9393575D01*
X4575575Y9515575D01*
X4564759Y9522803D01*
X4552000Y9525341D01*
X4342000D01*
X4329242Y9522803D01*
X4318425Y9515576D01*
X3965425Y9162575D01*
X3958197Y9151759D01*
X3955659Y9139000D01*
Y8527810D01*
X3450517Y8022668D01*
X3430808Y8018747D01*
X3413690Y8007310D01*
X3402253Y7990192D01*
X3398236Y7970000D01*
X3402253Y7949808D01*
X3413690Y7932690D01*
X3430808Y7921253D01*
X3451000Y7917236D01*
X3471192Y7921253D01*
X3488310Y7932690D01*
X3499747Y7949808D01*
X3503764Y7970000D01*
X3501837Y7979687D01*
X4012575Y8490425D01*
X4019802Y8501241D01*
X4022340Y8514000D01*
Y9125190D01*
X4355810Y9458660D01*
X4538190D01*
X4640660Y9356190D01*
Y9270532D01*
X4632358Y9264985D01*
X4624000Y9263955D01*
X4615643Y9264985D01*
X4602534Y9273744D01*
X4584000Y9277431D01*
X4565466Y9273744D01*
X4549755Y9263246D01*
X4538245D01*
X4522534Y9273744D01*
X4504000Y9277431D01*
X4485467Y9273744D01*
X4485432Y9273721D01*
X4477336Y9283586D01*
X4500718Y9306968D01*
X4505400Y9306036D01*
X4525592Y9310053D01*
X4542710Y9321490D01*
X4554147Y9338608D01*
X4558164Y9358800D01*
X4554147Y9378992D01*
X4542710Y9396110D01*
X4525592Y9407548D01*
X4505400Y9411564D01*
X4485208Y9407548D01*
X4468090Y9396110D01*
X4456653Y9378992D01*
X4452636Y9358800D01*
X4453567Y9354118D01*
X4397425Y9297976D01*
X4390197Y9287159D01*
X4387659Y9274400D01*
Y9260111D01*
X4379256Y9247534D01*
X4375570Y9229000D01*
Y9119000D01*
X4379256Y9100466D01*
X4389754Y9084754D01*
X4405466Y9074256D01*
X4424000Y9070570D01*
X4442534Y9074256D01*
X4455643Y9083015D01*
X4464000Y9084045D01*
X4472358Y9083015D01*
X4485467Y9074256D01*
X4504000Y9070570D01*
X4522534Y9074256D01*
X4538245Y9084754D01*
X4549755D01*
X4565466Y9074256D01*
X4584000Y9070570D01*
X4602534Y9074256D01*
X4615643Y9083015D01*
X4624000Y9084045D01*
X4632358Y9083015D01*
X4645466Y9074256D01*
X4664000Y9070570D01*
X4682534Y9074256D01*
X4695643Y9083015D01*
X4696184Y9083156D01*
X4704300Y9080596D01*
X4708659Y9077601D01*
Y8944200D01*
X4711197Y8931441D01*
X4718425Y8920625D01*
X4791568Y8847482D01*
X4790636Y8842800D01*
X4794653Y8822608D01*
X4806090Y8805490D01*
X4823208Y8794053D01*
X4843400Y8790036D01*
X4863592Y8794053D01*
X4880710Y8805490D01*
X4892147Y8822608D01*
X4896164Y8842800D01*
X4892147Y8862992D01*
X4880710Y8880110D01*
X4863592Y8891548D01*
X4848729Y8894504D01*
X4847466Y8898699D01*
X4847388Y8907720D01*
X4862310Y8917690D01*
X4873747Y8934808D01*
X4877764Y8955000D01*
X4873747Y8975192D01*
X4862310Y8992310D01*
X4857341Y8995630D01*
Y9075539D01*
X4868807Y9083453D01*
X4872358Y9083015D01*
X4885466Y9074256D01*
X4904000Y9070570D01*
X4922534Y9074256D01*
X4935643Y9083015D01*
X4944000Y9084045D01*
X4952358Y9083015D01*
X4965467Y9074256D01*
X4984000Y9070570D01*
X5002534Y9074256D01*
X5018246Y9084754D01*
X5028744Y9100466D01*
X5032431Y9119000D01*
Y9229000D01*
X5032205Y9230137D01*
X5056484Y9254417D01*
X5058400Y9254036D01*
X5078592Y9258053D01*
X5095710Y9269490D01*
X5107148Y9286608D01*
X5111164Y9306800D01*
X5107148Y9326992D01*
X5095710Y9344110D01*
X5078592Y9355547D01*
X5058400Y9359564D01*
X5038208Y9355547D01*
X5021090Y9344110D01*
X5009653Y9326992D01*
X5005636Y9306800D01*
X5006017Y9304884D01*
X4977214Y9276081D01*
X4965467Y9273744D01*
X4952386Y9265004D01*
X4943059Y9268156D01*
X4939686Y9270630D01*
Y9371218D01*
X4980782Y9412314D01*
X5280219D01*
X5649966Y9042566D01*
X5661544Y9034831D01*
X5675200Y9032114D01*
X7071818D01*
X7254114Y8849818D01*
Y6120798D01*
X7247690Y6118137D01*
X7230247Y6104753D01*
X7216863Y6087310D01*
X7208449Y6066998D01*
X7207972Y6063376D01*
X6514199Y6063375D01*
X6516067Y6058867D01*
X5613400Y5156200D01*
Y5130800D01*
X3194335D01*
X3188017Y5146053D01*
X3171187Y5167987D01*
X3149253Y5184817D01*
X3123710Y5195397D01*
X3096300Y5199006D01*
X3068889Y5195397D01*
X3043347Y5184817D01*
X3021413Y5167987D01*
X3004583Y5146053D01*
X2998265Y5130800D01*
X2911765D01*
X2907454Y5143500D01*
X2915911Y5149989D01*
X2931331Y5170085D01*
X2941024Y5193487D01*
X2944330Y5218600D01*
X2941024Y5243713D01*
X2931331Y5267115D01*
X2915911Y5287210D01*
X2895815Y5302630D01*
X2872413Y5312324D01*
X2847300Y5315630D01*
X2822187Y5312324D01*
X2798785Y5302630D01*
X2778690Y5287210D01*
X2763270Y5267115D01*
X2753576Y5243713D01*
X2750270Y5218600D01*
X2753576Y5193487D01*
X2763270Y5170085D01*
X2778690Y5149989D01*
X2787147Y5143500D01*
X2782835Y5130800D01*
X2286000D01*
Y6070600D01*
X2420895D01*
X2505848Y5985647D01*
X2523290Y5972263D01*
X2543603Y5963849D01*
X2565401Y5960979D01*
X3429000D01*
X3450798Y5963849D01*
X3471110Y5972263D01*
X3488553Y5985647D01*
X3573506Y6070600D01*
X3579882D01*
X3578014Y6075109D01*
X3670356Y6167450D01*
X3818550D01*
Y6481750D01*
X3562650D01*
Y6297956D01*
X3394115Y6129421D01*
X2600286D01*
X2566380Y6163327D01*
X2571240Y6175060D01*
X2640171D01*
X2689541Y6224430D01*
Y6238114D01*
X3244800D01*
X3258456Y6240831D01*
X3270034Y6248566D01*
X3926782Y6905314D01*
X4169000D01*
X4182656Y6908031D01*
X4194234Y6915766D01*
X4196247Y6918780D01*
X4230944Y6953477D01*
X4231527Y6954349D01*
X4881650Y7604472D01*
X4882523Y7605056D01*
X5001234Y7723766D01*
X5008969Y7735343D01*
X5011686Y7749000D01*
Y8160196D01*
X5022520Y8163947D01*
X5024386Y8164293D01*
X5041208Y8153053D01*
X5061400Y8149036D01*
X5081592Y8153053D01*
X5098710Y8164490D01*
X5110148Y8181608D01*
X5114164Y8201800D01*
X5110148Y8221992D01*
X5098710Y8239110D01*
X5097086Y8240195D01*
Y8258600D01*
X5094369Y8272256D01*
X5086634Y8283834D01*
X5032431Y8338037D01*
Y8389000D01*
X5028744Y8407534D01*
X5018246Y8423246D01*
X5002534Y8433744D01*
X4984000Y8437431D01*
X4965467Y8433744D01*
X4952358Y8424985D01*
X4944000Y8423955D01*
X4935643Y8424985D01*
X4922534Y8433744D01*
X4904000Y8437431D01*
X4885466Y8433744D01*
X4872358Y8424985D01*
X4864000Y8423955D01*
X4855643Y8424985D01*
X4842534Y8433744D01*
X4824000Y8437431D01*
X4805466Y8433744D01*
X4792358Y8424985D01*
X4784000Y8423955D01*
X4775642Y8424985D01*
X4762534Y8433744D01*
X4744000Y8437431D01*
X4725467Y8433744D01*
X4712358Y8424985D01*
X4704000Y8423955D01*
X4695643Y8424985D01*
X4682534Y8433744D01*
X4664000Y8437431D01*
X4645466Y8433744D01*
X4632358Y8424985D01*
X4624000Y8423955D01*
X4615643Y8424985D01*
X4602534Y8433744D01*
X4584000Y8437431D01*
X4565466Y8433744D01*
X4552358Y8424985D01*
X4544000Y8423955D01*
X4535642Y8424985D01*
X4522534Y8433744D01*
X4504000Y8437431D01*
X4485467Y8433744D01*
X4472358Y8424985D01*
X4464000Y8423955D01*
X4455643Y8424985D01*
X4442534Y8433744D01*
X4424000Y8437431D01*
X4405466Y8433744D01*
X4389754Y8423246D01*
X4379256Y8407534D01*
X4375570Y8389000D01*
Y8279000D01*
X4379256Y8260466D01*
X4388314Y8246910D01*
Y8215246D01*
X4385808Y8214747D01*
X4368690Y8203310D01*
X4357253Y8186192D01*
X4353236Y8166000D01*
X4357253Y8145808D01*
X4368690Y8128690D01*
X4385808Y8117252D01*
X4406000Y8113236D01*
X4426192Y8117252D01*
X4438308Y8125348D01*
X4453679Y8124199D01*
X4455073Y8123435D01*
X4471808Y8112253D01*
X4492000Y8108236D01*
X4512192Y8112253D01*
X4520616Y8117881D01*
X4537715Y8115150D01*
X4538690Y8113690D01*
X4555808Y8102253D01*
X4576000Y8098236D01*
X4596192Y8102253D01*
X4613310Y8113690D01*
X4619884Y8123530D01*
X4627269Y8129915D01*
X4636159Y8126767D01*
X4646208Y8120053D01*
X4666400Y8116036D01*
X4686592Y8120053D01*
X4697614Y8127417D01*
X4710314Y8120629D01*
Y7999782D01*
X4181218Y7470686D01*
X3101781D01*
X2528086Y8044382D01*
Y8085343D01*
X2542831Y8091450D01*
X2563721Y8107479D01*
X2579749Y8128369D01*
X2589826Y8152695D01*
X2593263Y8178800D01*
X2589826Y8204905D01*
X2579749Y8229231D01*
X2563721Y8250121D01*
X2542831Y8266150D01*
X2518505Y8276226D01*
X2492400Y8279663D01*
X2466295Y8276226D01*
X2441969Y8266150D01*
X2421079Y8250121D01*
X2405050Y8229231D01*
X2403386Y8225213D01*
X2390686Y8227739D01*
Y8383861D01*
X2403386Y8386387D01*
X2405050Y8382369D01*
X2421079Y8361479D01*
X2441969Y8345450D01*
X2466295Y8335374D01*
X2492400Y8331937D01*
X2518505Y8335374D01*
X2542831Y8345450D01*
X2563721Y8361479D01*
X2579343Y8381839D01*
X3184700D01*
Y8362720D01*
X3294700D01*
Y8492720D01*
X3184700D01*
Y8473602D01*
X2583738D01*
X2579749Y8483231D01*
X2563721Y8504121D01*
X2542831Y8520150D01*
X2518505Y8530226D01*
X2492400Y8533663D01*
X2466295Y8530226D01*
X2441969Y8520150D01*
X2421079Y8504121D01*
X2405050Y8483231D01*
X2403386Y8479213D01*
X2390686Y8481739D01*
Y8687019D01*
X2451549Y8747882D01*
X2466295Y8741774D01*
X2492400Y8738337D01*
X2518505Y8741774D01*
X2542831Y8751850D01*
X2563721Y8767879D01*
X2579749Y8788769D01*
X2589826Y8813095D01*
X2593263Y8839200D01*
X2589826Y8865305D01*
X2579749Y8889631D01*
X2563721Y8910521D01*
X2542831Y8926550D01*
X2518505Y8936626D01*
X2492400Y8940063D01*
X2466295Y8936626D01*
X2441969Y8926550D01*
X2421079Y8910521D01*
X2405050Y8889631D01*
X2394974Y8865305D01*
X2391537Y8839200D01*
X2394974Y8813095D01*
X2401082Y8798349D01*
X2329766Y8727034D01*
X2322031Y8715457D01*
X2319314Y8701800D01*
Y7851000D01*
X2322031Y7837344D01*
X2329766Y7825766D01*
X2812767Y7342766D01*
X2819622Y7338186D01*
X2815770Y7325486D01*
X2689541D01*
Y7339170D01*
X2640171Y7388540D01*
X2541431D01*
X2492061Y7339170D01*
Y7240430D01*
X2541431Y7191060D01*
X2640171D01*
X2689541Y7240430D01*
Y7254114D01*
X4269800D01*
X4283456Y7256831D01*
X4295034Y7264566D01*
X4796132Y7765664D01*
X4807836Y7759408D01*
X4806323Y7751800D01*
X4808647Y7740114D01*
X4140019Y7071486D01*
X2689541D01*
Y7085170D01*
X2640171Y7134540D01*
X2541431D01*
X2492061Y7085170D01*
Y6986430D01*
X2541431Y6937060D01*
X2640171D01*
X2689541Y6986430D01*
Y7000114D01*
X4154800D01*
X4159651Y7001079D01*
X4165908Y6989375D01*
X4153219Y6976686D01*
X3912000D01*
X3898344Y6973969D01*
X3886766Y6966234D01*
X3230018Y6309486D01*
X2689541D01*
Y6323170D01*
X2640171Y6372540D01*
X2541431D01*
X2492061Y6323170D01*
Y6254239D01*
X2480328Y6249379D01*
X2435541Y6294166D01*
Y6323170D01*
X2386171Y6372540D01*
X2287431D01*
X2286000Y6373133D01*
X2285999Y10660774D01*
X8607480Y10660775D01*
X8607481Y9263776D01*
D02*
G37*
G36*
X21409039Y7477959D02*
X21419858Y7463858D01*
X21433958Y7453039D01*
X21450378Y7446237D01*
X21467999Y7443918D01*
X21485622Y7446237D01*
X21494299Y7449832D01*
X21507001Y7442000D01*
Y7442000D01*
X21614301D01*
X21617000Y7442000D01*
X21627000D01*
X21629700Y7442000D01*
X21737000D01*
Y7453236D01*
X21804144D01*
X21838380Y7419000D01*
X21741690Y7322310D01*
X21738811Y7318000D01*
X21698000D01*
Y7210700D01*
X21698000Y7208000D01*
Y7198000D01*
X21698000Y7196390D01*
X21695370Y7183689D01*
X21638773D01*
X21573232Y7249231D01*
X21570218Y7251245D01*
X21393289Y7428174D01*
Y7482794D01*
X21405989Y7485321D01*
X21409039Y7477959D01*
D02*
G37*
G36*
X18574001Y8617000D02*
X18581000Y8610000D01*
Y7901000D01*
X18682040D01*
X18691000Y7892000D01*
Y7603002D01*
X19261002Y7603000D01*
Y7653801D01*
X19286400D01*
X19286398Y7798440D01*
X19295380Y7807420D01*
X19438802Y7807420D01*
X19438802Y7552201D01*
Y7349001D01*
X19269801D01*
Y7171201D01*
X19159401D01*
Y7282950D01*
X19067950Y7374401D01*
X18143401Y7374402D01*
Y7384000D01*
X17567999D01*
Y8616979D01*
X17577020Y8625919D01*
X18574001Y8617000D01*
D02*
G37*
G36*
X10617200Y7086600D02*
X9702801D01*
X9575801Y7086600D01*
X9271001Y6654800D01*
X9194801Y6654800D01*
Y6872846D01*
X9195255Y6873150D01*
X9273853Y6951748D01*
X9286009Y6969941D01*
X9289681Y6988401D01*
X9299201D01*
Y7067601D01*
X9310401D01*
Y7152601D01*
X9308221Y7154782D01*
X9312641Y7161397D01*
X9314193Y7169201D01*
Y7326609D01*
X9462801D01*
X9470605Y7328161D01*
X9477221Y7332582D01*
X9481641Y7339197D01*
X9483193Y7347001D01*
Y7550201D01*
X9483193Y7805420D01*
X9481641Y7813223D01*
X9477220Y7819839D01*
X9470605Y7824259D01*
X9462801Y7825812D01*
X9319381Y7825812D01*
X9319380Y7825812D01*
X9314742Y7829619D01*
Y8077200D01*
X9313189Y8085004D01*
X9308769Y8091619D01*
X9302153Y8096040D01*
X9294350Y8097592D01*
X9056128D01*
X9048089Y8110292D01*
X9050421Y8128000D01*
X9047551Y8149798D01*
X9039137Y8170110D01*
X9025753Y8187553D01*
X9008310Y8200937D01*
X8987998Y8209351D01*
X8966200Y8212221D01*
X8944402Y8209351D01*
X8924090Y8200937D01*
X8906647Y8187553D01*
X8893263Y8170110D01*
X8884849Y8149798D01*
X8881979Y8128000D01*
X8884849Y8106202D01*
X8888036Y8098509D01*
Y8080200D01*
X8875800D01*
Y7960200D01*
X8982023D01*
X8990695Y7950209D01*
X8988635Y7940200D01*
X8875800D01*
Y7847787D01*
X8873323Y7835336D01*
Y7830551D01*
X8871301D01*
Y7696200D01*
X8763001Y7696201D01*
X8763000Y8610601D01*
X10617199Y8610601D01*
X10617200Y7086600D01*
D02*
G37*
G36*
X13789198Y7084600D02*
X12874800D01*
X12747801Y7084600D01*
X12443000Y6652800D01*
X12366800Y6652800D01*
Y6870846D01*
X12367255Y6871150D01*
X12445853Y6949748D01*
X12458009Y6967941D01*
X12461681Y6986401D01*
X12471201D01*
Y7065601D01*
X12482401D01*
Y7150601D01*
X12480221Y7152782D01*
X12484641Y7159397D01*
X12486193Y7167201D01*
Y7324609D01*
X12634801D01*
X12642605Y7326161D01*
X12649221Y7330582D01*
X12653641Y7337197D01*
X12655193Y7345001D01*
Y7548201D01*
X12655193Y7803420D01*
X12653640Y7811223D01*
X12649220Y7817839D01*
X12642604Y7822259D01*
X12634801Y7823812D01*
X12491381Y7823812D01*
X12491380Y7823812D01*
X12486741Y7827619D01*
Y8075200D01*
X12485189Y8083004D01*
X12480769Y8089619D01*
X12474153Y8094040D01*
X12466349Y8095592D01*
X12228128D01*
X12220089Y8108292D01*
X12222420Y8126000D01*
X12219551Y8147798D01*
X12211137Y8168110D01*
X12197753Y8185553D01*
X12180310Y8198937D01*
X12159998Y8207351D01*
X12138200Y8210221D01*
X12116402Y8207351D01*
X12096090Y8198937D01*
X12078647Y8185553D01*
X12065263Y8168110D01*
X12056849Y8147798D01*
X12053979Y8126000D01*
X12056849Y8104202D01*
X12060036Y8096509D01*
Y8078200D01*
X12047800D01*
Y7958200D01*
X12154022D01*
X12162695Y7948209D01*
X12160635Y7938200D01*
X12047800D01*
Y7845787D01*
X12045323Y7833336D01*
Y7828551D01*
X12043300D01*
Y7694200D01*
X11935001Y7694201D01*
X11935000Y8608601D01*
X13789198Y8608601D01*
X13789198Y7084600D01*
D02*
G37*
G36*
X20593199Y7088600D02*
X19678799D01*
X19551801Y7088600D01*
X19247000Y6656800D01*
X19170799Y6656800D01*
Y6874846D01*
X19171255Y6875150D01*
X19249854Y6953748D01*
X19262009Y6971941D01*
X19265681Y6990401D01*
X19275201D01*
Y7069601D01*
X19286401D01*
Y7154601D01*
X19284221Y7156782D01*
X19288641Y7163397D01*
X19290193Y7171201D01*
Y7328609D01*
X19438802D01*
X19446605Y7330161D01*
X19453220Y7334582D01*
X19457642Y7341197D01*
X19459193Y7349001D01*
Y7552201D01*
X19459192Y7807420D01*
X19457640Y7815223D01*
X19453220Y7821839D01*
X19446603Y7826259D01*
X19438802Y7827812D01*
X19295381Y7827812D01*
X19295380Y7827812D01*
X19290741Y7831619D01*
Y8079200D01*
X19289189Y8087004D01*
X19284769Y8093619D01*
X19278152Y8098040D01*
X19270349Y8099592D01*
X19032127D01*
X19024089Y8112292D01*
X19026421Y8130000D01*
X19023550Y8151798D01*
X19015137Y8172110D01*
X19001752Y8189553D01*
X18984309Y8202937D01*
X18963997Y8211351D01*
X18942200Y8214221D01*
X18920403Y8211351D01*
X18900089Y8202937D01*
X18882648Y8189553D01*
X18869263Y8172110D01*
X18860849Y8151798D01*
X18857979Y8130000D01*
X18860849Y8108202D01*
X18864035Y8100509D01*
Y8082200D01*
X18851799D01*
Y7962200D01*
X18958022D01*
X18966695Y7952209D01*
X18964635Y7942200D01*
X18851799D01*
Y7849787D01*
X18849323Y7837336D01*
Y7832551D01*
X18847301D01*
Y7698200D01*
X18739001Y7698201D01*
X18739000Y8612601D01*
X20593199Y8612601D01*
X20593199Y7088600D01*
D02*
G37*
G36*
X23146570Y7162746D02*
X23143970Y7143000D01*
X23147276Y7117887D01*
X23156969Y7094485D01*
X23172391Y7074389D01*
X23178905Y7069389D01*
X23174594Y7056689D01*
X21653773D01*
X21632053Y7078411D01*
X21637314Y7091111D01*
X21698000D01*
Y7088000D01*
X21828000D01*
Y7091111D01*
X23037799D01*
X23037801Y7091110D01*
X23055515Y7094634D01*
X23070532Y7104668D01*
X23134541Y7168678D01*
X23146570Y7162746D01*
D02*
G37*
G36*
X23380235Y7110269D02*
X23380235Y7110268D01*
X23395255Y7100234D01*
X23412968Y7096710D01*
X23412968Y7096710D01*
X23664047D01*
X23664969Y7094485D01*
X23680389Y7074389D01*
X23700485Y7058969D01*
X23723888Y7049276D01*
X23749001Y7045970D01*
X23774113Y7049276D01*
X23797514Y7058969D01*
X23812500Y7070468D01*
X23825200Y7064205D01*
Y6967795D01*
X23812500Y6961532D01*
X23797514Y6973031D01*
X23774113Y6982724D01*
X23749001Y6986030D01*
X23723888Y6982724D01*
X23700485Y6973031D01*
X23680389Y6957610D01*
X23664969Y6937515D01*
X23664047Y6935289D01*
X23432143D01*
X23324100Y7043332D01*
X23309082Y7053366D01*
X23304311Y7054315D01*
X23301144Y7067894D01*
X23309610Y7074389D01*
X23325031Y7094485D01*
X23334724Y7117887D01*
X23337044Y7135501D01*
X23350452Y7140053D01*
X23380235Y7110269D01*
D02*
G37*
G36*
X15024602Y3135000D02*
X21057600D01*
X21929266Y4006666D01*
X21933084Y4005084D01*
X21997000Y4069000D01*
Y4151000D01*
Y4352000D01*
X22007629Y4357000D01*
X22266000D01*
Y3892001D01*
X21941000Y3567000D01*
X21938602D01*
X21082001Y2710400D01*
Y2684000D01*
X14249400D01*
Y2709000D01*
X14110201D01*
X14110201Y5390200D01*
X15024602D01*
X15024602Y3135000D01*
D02*
G37*
G36*
X11662600Y3290000D02*
X10748199D01*
X10748201Y5410200D01*
X11662601D01*
X11662600Y3290000D01*
D02*
G37*
G36*
X20191800Y4952999D02*
X20191800Y3836973D01*
X20182820Y3827993D01*
X18591599Y3828003D01*
X18591602Y4953003D01*
X20191800Y4952999D01*
D02*
G37*
G36*
X23855000Y4022000D02*
X23841000Y4008000D01*
X23835001Y4002000D01*
X22817000Y4002000D01*
Y4451000D01*
X23855000D01*
Y4022000D01*
D02*
G37*
G36*
X18464601Y3907000D02*
X17550200D01*
X17550201Y5410200D01*
X18464601D01*
X18464601Y3907000D01*
D02*
G37*
G36*
X10224800Y4952999D02*
X10224801Y2310000D01*
X21942999Y2309999D01*
Y2032999D01*
X8622000Y2033000D01*
Y2310000D01*
X8624595D01*
X8624602Y4953003D01*
X10224800Y4952999D01*
D02*
G37*
G36*
X8190000Y1934000D02*
X21941000D01*
Y1674000D01*
X7835999D01*
X7836000Y2437000D01*
X8190000D01*
X8190000Y1934000D01*
D02*
G37*
G36*
X8497600Y2729000D02*
X7583199D01*
X7583200Y5410200D01*
X8497601D01*
X8497600Y2729000D01*
D02*
G37*
G36*
X16751801Y4932999D02*
X16751801Y3206976D01*
X16742821Y3197996D01*
X15151598Y3198006D01*
X15151602Y4933002D01*
X16751801Y4932999D01*
D02*
G37*
G36*
X13389799Y4952999D02*
X13389799Y3204974D01*
X13380820Y3195994D01*
X11789597Y3196004D01*
X11789602Y4953003D01*
X13389799Y4952999D01*
D02*
G37*
G36*
X15258202Y6493801D02*
X15283601Y6468401D01*
X15461401Y6290601D01*
X15512201Y6239801D01*
X17137801D01*
X17137801Y6036601D01*
X15055000Y6036601D01*
X15055000Y7281201D01*
X15258202Y7281201D01*
Y6493801D01*
D02*
G37*
G36*
X20203850Y5005000D02*
X18781451Y5005000D01*
X18781451Y5411399D01*
X20203850Y5411400D01*
Y5005000D01*
D02*
G37*
G36*
X11898201Y6506801D02*
X11923601Y6481401D01*
X12101401Y6303601D01*
X12152201Y6252801D01*
X13777802D01*
X13777802Y6049601D01*
X11695001Y6049602D01*
X11695000Y7294201D01*
X11898201Y7294201D01*
Y6506801D01*
D02*
G37*
G36*
X18702200Y6510801D02*
X18727602Y6485401D01*
X18905402Y6307601D01*
X18956201Y6256801D01*
X20581801D01*
X20581801Y6053601D01*
X18499001Y6053602D01*
X18499001Y7298201D01*
X18702200Y7298201D01*
Y6510801D01*
D02*
G37*
G36*
X8726201Y6508801D02*
X8751601Y6483401D01*
X8929401Y6305601D01*
X8980201Y6254801D01*
X10605801D01*
X10605801Y6051601D01*
X8523001Y6051602D01*
X8523001Y7296201D01*
X8726201Y7296201D01*
Y6508801D01*
D02*
G37*
G36*
X22261000Y4494000D02*
X22234000Y4467000D01*
X22228000Y4461000D01*
X22033704D01*
X20916000Y3343295D01*
Y3340000D01*
X20912704D01*
X20902000Y3329296D01*
X20530595Y3329297D01*
X20526163Y3340000D01*
X17203000D01*
Y3685000D01*
X20869704D01*
X22022266Y4837563D01*
X22024001Y4836845D01*
Y4847000D01*
X22261000D01*
Y4494000D01*
D02*
G37*
G36*
X23857001Y4520000D02*
X23842999Y4506000D01*
X23837000Y4500000D01*
X22830000Y4500000D01*
X22829999Y4949000D01*
X23857001Y4949000D01*
Y4520000D01*
D02*
G37*
G36*
X16756799Y4988800D02*
X15334401Y4988800D01*
X15334401Y5395199D01*
X16756799Y5395200D01*
Y4988800D01*
D02*
G37*
G36*
X10224800Y5003800D02*
X8802401Y5003800D01*
X8802401Y5410199D01*
X10224800Y5410200D01*
Y5003800D01*
D02*
G37*
G36*
X13396800Y5001800D02*
X11974400Y5001800D01*
X11974401Y5408199D01*
X13396800Y5408200D01*
Y5001800D01*
D02*
G37*
G36*
X13777802Y8722799D02*
X12939601Y8722799D01*
X12939600Y8853261D01*
X12939601Y9129199D01*
X13777802D01*
X13777802Y8722799D01*
D02*
G37*
G36*
X10605802Y8724799D02*
X9767601Y8724799D01*
X9767600Y8855261D01*
X9767601Y9131199D01*
X10605801D01*
X10605802Y8724799D01*
D02*
G37*
G36*
X17137802Y8709798D02*
X16299602Y8709799D01*
X16299600Y8840261D01*
X16299602Y9116198D01*
X17137801D01*
X17137802Y8709798D01*
D02*
G37*
G36*
X12291060Y10283190D02*
X11674200D01*
Y9201100D01*
X11750400Y9124900D01*
X12588199D01*
Y8718500D01*
X11344000D01*
Y10283190D01*
X9031000Y10283190D01*
Y9207398D01*
X9107200Y9131198D01*
X9259600D01*
Y8724798D01*
X8700800D01*
Y10523220D01*
X8719820D01*
Y10524490D01*
X12291060Y10524490D01*
X12291060Y10283190D01*
D02*
G37*
G36*
X20863560Y10411460D02*
Y10039401D01*
X21005800D01*
Y10039401D01*
X22860001D01*
Y9550400D01*
X22885400Y9525000D01*
X23183691D01*
X23191563Y9513695D01*
X23191533Y9512300D01*
X23172391Y9497610D01*
X23156969Y9477515D01*
X23147276Y9454113D01*
X23143970Y9429000D01*
X23147276Y9403887D01*
X23156969Y9380485D01*
X23172391Y9360389D01*
X23192485Y9344969D01*
X23215887Y9335276D01*
X23241000Y9331970D01*
X23266113Y9335276D01*
X23289516Y9344969D01*
X23309610Y9360389D01*
X23325031Y9380485D01*
X23334724Y9403887D01*
X23338029Y9429000D01*
X23334724Y9454113D01*
X23325031Y9477515D01*
X23309610Y9497610D01*
X23290466Y9512300D01*
X23290436Y9513695D01*
X23298309Y9525000D01*
X23691692D01*
X23699564Y9513695D01*
X23699533Y9512300D01*
X23680389Y9497610D01*
X23664969Y9477515D01*
X23655276Y9454113D01*
X23651970Y9429000D01*
X23655276Y9403887D01*
X23664969Y9380485D01*
X23680389Y9360389D01*
X23700485Y9344969D01*
X23723888Y9335276D01*
X23749001Y9331970D01*
X23774113Y9335276D01*
X23797514Y9344969D01*
X23812500Y9356468D01*
X23825200Y9350205D01*
Y8999795D01*
X23812500Y8993532D01*
X23797514Y9005031D01*
X23774113Y9014724D01*
X23749001Y9018030D01*
X23723888Y9014724D01*
X23700485Y9005031D01*
X23680389Y8989610D01*
X23664969Y8969515D01*
X23655276Y8946113D01*
X23651970Y8921000D01*
X23655276Y8895887D01*
X23664969Y8872485D01*
X23680389Y8852389D01*
X23700485Y8836969D01*
X23723888Y8827276D01*
X23749001Y8823970D01*
X23774113Y8827276D01*
X23797514Y8836969D01*
X23812500Y8848468D01*
X23825200Y8842205D01*
Y8745795D01*
X23812500Y8739532D01*
X23797514Y8751031D01*
X23774113Y8760724D01*
X23749001Y8764030D01*
X23723888Y8760724D01*
X23700485Y8751031D01*
X23680389Y8735610D01*
X23664969Y8715515D01*
X23655276Y8692113D01*
X23651970Y8667000D01*
X23655276Y8641887D01*
X23664969Y8618485D01*
X23680389Y8598389D01*
X23700485Y8582969D01*
X23723888Y8573276D01*
X23749001Y8569970D01*
X23774113Y8573276D01*
X23797514Y8582969D01*
X23812500Y8594468D01*
X23825200Y8588205D01*
Y8237795D01*
X23812500Y8231532D01*
X23797514Y8243031D01*
X23774113Y8252724D01*
X23749001Y8256030D01*
X23723888Y8252724D01*
X23700485Y8243031D01*
X23680389Y8227610D01*
X23664969Y8207515D01*
X23655276Y8184113D01*
X23651970Y8159000D01*
X23655276Y8133887D01*
X23664969Y8110485D01*
X23680389Y8090389D01*
X23700485Y8074969D01*
X23723888Y8065276D01*
X23749001Y8061970D01*
X23774113Y8065276D01*
X23797514Y8074969D01*
X23812500Y8086468D01*
X23825200Y8080205D01*
Y7983795D01*
X23812500Y7977532D01*
X23797514Y7989031D01*
X23774113Y7998724D01*
X23749001Y8002030D01*
X23723888Y7998724D01*
X23700485Y7989031D01*
X23680389Y7973610D01*
X23664969Y7953515D01*
X23655276Y7930113D01*
X23651970Y7905000D01*
X23655276Y7879887D01*
X23664969Y7856485D01*
X23680389Y7836389D01*
X23700485Y7820969D01*
X23723888Y7811276D01*
X23749001Y7807970D01*
X23774113Y7811276D01*
X23797514Y7820969D01*
X23812500Y7832468D01*
X23825200Y7826205D01*
Y7729795D01*
X23812500Y7723532D01*
X23797514Y7735031D01*
X23774113Y7744724D01*
X23749001Y7748030D01*
X23723888Y7744724D01*
X23700485Y7735031D01*
X23680389Y7719610D01*
X23664969Y7699515D01*
X23655276Y7676113D01*
X23651970Y7651000D01*
X23655276Y7625887D01*
X23664969Y7602485D01*
X23680389Y7582389D01*
X23700485Y7566969D01*
X23723888Y7557276D01*
X23749001Y7553970D01*
X23774113Y7557276D01*
X23797514Y7566969D01*
X23812500Y7578468D01*
X23825200Y7572205D01*
Y7475795D01*
X23812500Y7469532D01*
X23797514Y7481031D01*
X23774113Y7490724D01*
X23749001Y7494030D01*
X23723888Y7490724D01*
X23700485Y7481031D01*
X23680389Y7465610D01*
X23664969Y7445515D01*
X23655276Y7422113D01*
X23651970Y7397000D01*
X23655276Y7371887D01*
X23664969Y7348485D01*
X23680389Y7328389D01*
X23700485Y7312969D01*
X23723888Y7303276D01*
X23749001Y7299970D01*
X23774113Y7303276D01*
X23797514Y7312969D01*
X23812500Y7324468D01*
X23825200Y7318205D01*
Y7221795D01*
X23812500Y7215532D01*
X23797514Y7227031D01*
X23774113Y7236724D01*
X23749001Y7240030D01*
X23723888Y7236724D01*
X23700485Y7227031D01*
X23680389Y7211610D01*
X23664969Y7191515D01*
X23664047Y7189289D01*
X23432143D01*
X23324100Y7297332D01*
X23309082Y7307366D01*
X23304311Y7308315D01*
X23301144Y7321894D01*
X23309610Y7328389D01*
X23325031Y7348485D01*
X23334724Y7371887D01*
X23338029Y7397000D01*
X23334724Y7422113D01*
X23325031Y7445515D01*
X23309610Y7465610D01*
X23289516Y7481031D01*
X23269815Y7489191D01*
X23265120Y7502457D01*
X23273730Y7511068D01*
X23273732Y7511068D01*
X23283766Y7526086D01*
X23287289Y7543800D01*
Y7566048D01*
X23289516Y7566969D01*
X23309610Y7582389D01*
X23325031Y7602485D01*
X23334724Y7625887D01*
X23338029Y7651000D01*
X23334724Y7676113D01*
X23325031Y7699515D01*
X23309610Y7719610D01*
X23289516Y7735031D01*
X23266113Y7744724D01*
X23241000Y7748030D01*
X23215887Y7744724D01*
X23192485Y7735031D01*
X23172989Y7720071D01*
X23168581Y7720782D01*
X23160289Y7723596D01*
Y7832403D01*
X23168581Y7835218D01*
X23172989Y7835929D01*
X23192485Y7820969D01*
X23215887Y7811276D01*
X23241000Y7807970D01*
X23266113Y7811276D01*
X23289516Y7820969D01*
X23309610Y7836389D01*
X23325031Y7856485D01*
X23334724Y7879887D01*
X23338029Y7905000D01*
X23334724Y7930113D01*
X23325031Y7953515D01*
X23309610Y7973610D01*
X23289516Y7989031D01*
X23266113Y7998724D01*
X23241000Y8002030D01*
X23215887Y7998724D01*
X23192485Y7989031D01*
X23172989Y7974071D01*
X23168581Y7974782D01*
X23160289Y7977596D01*
Y8032626D01*
X23199660Y8071997D01*
X23215887Y8065276D01*
X23241000Y8061970D01*
X23266113Y8065276D01*
X23289516Y8074969D01*
X23309610Y8090389D01*
X23325031Y8110485D01*
X23334724Y8133887D01*
X23338029Y8159000D01*
X23334724Y8184113D01*
X23325031Y8207515D01*
X23309610Y8227610D01*
X23289516Y8243031D01*
X23266113Y8252724D01*
X23241000Y8256030D01*
X23215887Y8252724D01*
X23192485Y8243031D01*
X23172391Y8227610D01*
X23156969Y8207515D01*
X23147276Y8184113D01*
X23143970Y8159000D01*
X23145338Y8148602D01*
X23081268Y8084532D01*
X23071234Y8069514D01*
X23067709Y8051800D01*
X23067711Y8051799D01*
Y7876042D01*
X23055011Y7871731D01*
X23046553Y7882753D01*
X23029111Y7896137D01*
X23008798Y7904551D01*
X22987000Y7907421D01*
X22965202Y7904551D01*
X22944890Y7896137D01*
X22927448Y7882753D01*
X22914062Y7865310D01*
X22905649Y7844998D01*
X22902779Y7823200D01*
X22905649Y7801402D01*
X22914062Y7781090D01*
X22927448Y7763647D01*
X22937732Y7755756D01*
X22939476Y7739754D01*
X22939249Y7739311D01*
X22925798Y7725862D01*
X22917458Y7731435D01*
X22894048Y7736091D01*
X22834047D01*
X22810635Y7731435D01*
X22790790Y7718173D01*
X22777528Y7698327D01*
X22772871Y7674916D01*
X22777528Y7651505D01*
X22790790Y7631658D01*
X22810635Y7618397D01*
X22813184Y7617890D01*
Y7604941D01*
X22810635Y7604435D01*
X22790790Y7591173D01*
X22777528Y7571327D01*
X22772871Y7547916D01*
X22777528Y7524505D01*
X22790790Y7504658D01*
X22810635Y7491397D01*
X22813184Y7490890D01*
Y7477941D01*
X22810635Y7477435D01*
X22790790Y7464173D01*
X22777528Y7444327D01*
X22772871Y7420916D01*
X22777528Y7397505D01*
X22790790Y7377658D01*
X22810635Y7364397D01*
X22813184Y7363890D01*
Y7350941D01*
X22810635Y7350435D01*
X22790790Y7337173D01*
X22777528Y7317327D01*
X22772871Y7293916D01*
X22777528Y7270505D01*
X22790790Y7250658D01*
X22810635Y7237397D01*
X22834047Y7232740D01*
X22894048D01*
X22917458Y7237397D01*
X22932767Y7247626D01*
X23064603D01*
X23068826Y7241109D01*
X23070184Y7235248D01*
X23018626Y7183689D01*
X21836980D01*
X21828972Y7191698D01*
X21828000Y7196390D01*
Y7208000D01*
X21828000Y7210700D01*
Y7259380D01*
X21936771Y7368152D01*
X22305019D01*
X22310637Y7364397D01*
X22334048Y7359740D01*
X22394048D01*
X22417459Y7364397D01*
X22437306Y7377658D01*
X22450568Y7397505D01*
X22455225Y7420916D01*
X22450568Y7444327D01*
X22437306Y7464173D01*
X22417459Y7477435D01*
X22414911Y7477941D01*
Y7490890D01*
X22417459Y7491397D01*
X22437306Y7504658D01*
X22450568Y7524505D01*
X22455225Y7547916D01*
X22450568Y7571327D01*
X22437306Y7591173D01*
X22420779Y7602216D01*
X22424632Y7614916D01*
X22454048D01*
Y7734916D01*
X22410338D01*
Y7846366D01*
X22420711Y7850663D01*
X22438153Y7864047D01*
X22448643Y7877718D01*
X22503200D01*
X22520758Y7881211D01*
X22535643Y7891157D01*
X22740044Y8095557D01*
X22744296Y8101923D01*
X22750911Y8104663D01*
X22768353Y8118047D01*
X22781737Y8135489D01*
X22790150Y8155802D01*
X22793021Y8177600D01*
X22790150Y8199398D01*
X22781737Y8219710D01*
X22768353Y8237153D01*
X22753482Y8248564D01*
Y8301518D01*
X22755998Y8301849D01*
X22776311Y8310263D01*
X22793753Y8323647D01*
X22807137Y8341090D01*
X22815552Y8361402D01*
X22818420Y8383200D01*
X22815552Y8404998D01*
X22807137Y8425311D01*
X22793753Y8442753D01*
X22776311Y8456137D01*
X22755998Y8464551D01*
X22734200Y8467421D01*
X22712402Y8464551D01*
X22692090Y8456137D01*
X22674648Y8442753D01*
X22661263Y8425311D01*
X22652849Y8404998D01*
X22649980Y8383200D01*
X22652849Y8361402D01*
X22661263Y8341090D01*
X22661719Y8340496D01*
Y8246722D01*
X22649248Y8237153D01*
X22635863Y8219710D01*
X22627449Y8199398D01*
X22624580Y8177600D01*
X22627449Y8155802D01*
X22635863Y8135489D01*
X22642088Y8127375D01*
X22484195Y7969481D01*
X22448643D01*
X22438153Y7983153D01*
X22420711Y7996537D01*
X22400398Y8004951D01*
X22378600Y8007820D01*
X22356802Y8004951D01*
X22336490Y7996537D01*
X22319048Y7983153D01*
X22305663Y7965710D01*
X22297249Y7945398D01*
X22294380Y7923600D01*
X22297249Y7901802D01*
X22305663Y7881489D01*
X22317760Y7865726D01*
Y7734916D01*
X22276077D01*
X22265448Y7739916D01*
X22265448Y7739916D01*
X22265446Y7739916D01*
X22145448D01*
Y7613380D01*
X22145448Y7609916D01*
X22137086Y7600680D01*
X22056119D01*
X22014674Y7642123D01*
X22011008Y7647612D01*
X22011008Y7647612D01*
X21952310Y7706310D01*
X21808310Y7850310D01*
X21791193Y7861748D01*
X21771001Y7865764D01*
X21732001D01*
Y7879000D01*
X21624699D01*
X21622000Y7879000D01*
X21612000D01*
X21609300Y7879000D01*
X21502000D01*
Y7857290D01*
X21456000D01*
X21438286Y7853766D01*
X21423270Y7843732D01*
X21423268Y7843731D01*
X21220268Y7640731D01*
X21210234Y7625714D01*
X21206709Y7608000D01*
X21206709Y7607998D01*
Y7571387D01*
X21205710Y7566358D01*
X21205710Y7566357D01*
Y7557538D01*
X21198222Y7547780D01*
X21191673Y7531968D01*
X21189439Y7515000D01*
X21191673Y7498031D01*
X21198222Y7482220D01*
X21205710Y7472462D01*
Y7393002D01*
X21205710Y7393000D01*
X21209235Y7375286D01*
X21219267Y7360269D01*
X21484769Y7094769D01*
X21601868Y6977669D01*
X21601868Y6977668D01*
X21616885Y6967634D01*
X21634599Y6964110D01*
X21634601Y6964111D01*
X23190431D01*
X23190433Y6964110D01*
X23191438Y6964310D01*
X23272194D01*
X23380235Y6856269D01*
X23380235Y6856268D01*
X23395255Y6846234D01*
X23412968Y6842710D01*
X23412968Y6842710D01*
X23664047D01*
X23664969Y6840485D01*
X23680389Y6820389D01*
X23700485Y6804969D01*
X23723888Y6795276D01*
X23749001Y6791970D01*
X23774113Y6795276D01*
X23797514Y6804969D01*
X23812500Y6816468D01*
X23825200Y6810205D01*
Y6459795D01*
X23812500Y6453532D01*
X23797514Y6465031D01*
X23774113Y6474724D01*
X23749001Y6478030D01*
X23723888Y6474724D01*
X23700485Y6465031D01*
X23680389Y6449610D01*
X23664969Y6429515D01*
X23655276Y6406113D01*
X23651970Y6381000D01*
X23653339Y6370602D01*
X23329826Y6047090D01*
X23091400D01*
Y6057001D01*
X22961401D01*
Y6057001D01*
X22954076Y6055686D01*
X22948659Y6059742D01*
X22948364Y6060625D01*
X22949896Y6074681D01*
X22960120Y6081511D01*
X22993401D01*
X22993401Y6081511D01*
X23011115Y6085035D01*
X23026134Y6095069D01*
X23028064Y6097001D01*
X23091400D01*
Y6207000D01*
X23091400Y6207001D01*
X23091402D01*
X23097044Y6217303D01*
X23099336Y6220290D01*
X23107751Y6240602D01*
X23110622Y6262400D01*
X23107751Y6284198D01*
X23099336Y6304511D01*
X23085953Y6321953D01*
X23068510Y6335337D01*
X23048198Y6343751D01*
X23026401Y6346621D01*
X23004602Y6343751D01*
X22984290Y6335337D01*
X22966847Y6321953D01*
X22953464Y6304511D01*
X22945049Y6284198D01*
X22942180Y6262400D01*
X22945049Y6240602D01*
X22953464Y6220290D01*
X22955730Y6217335D01*
X22961400Y6207001D01*
X22961400D01*
X22961400Y6207000D01*
Y6188509D01*
X22948700Y6181720D01*
X22944810Y6184320D01*
X22921399Y6188976D01*
X22861400D01*
X22837988Y6184320D01*
X22818143Y6171058D01*
X22804881Y6151212D01*
X22800224Y6127801D01*
X22804881Y6104390D01*
X22818143Y6084543D01*
X22837988Y6071282D01*
X22840536Y6070775D01*
Y6057826D01*
X22837988Y6057320D01*
X22818143Y6044058D01*
X22804881Y6024212D01*
X22800224Y6000801D01*
X22804881Y5977390D01*
X22818143Y5957543D01*
X22837988Y5944282D01*
X22840536Y5943775D01*
Y5930826D01*
X22837988Y5930320D01*
X22818143Y5917058D01*
X22804881Y5897212D01*
X22800224Y5873801D01*
X22804881Y5850390D01*
X22818143Y5830543D01*
X22837988Y5817282D01*
X22840536Y5816775D01*
Y5803826D01*
X22837988Y5803320D01*
X22818143Y5790058D01*
X22804881Y5770212D01*
X22800224Y5746801D01*
X22804881Y5723390D01*
X22818143Y5703543D01*
X22837988Y5690282D01*
X22861400Y5685625D01*
X22921399D01*
X22944810Y5690282D01*
X22960120Y5700511D01*
X23169447D01*
X23173529Y5688485D01*
X23172391Y5687610D01*
X23156969Y5667515D01*
X23153728Y5659689D01*
X22701373D01*
X22626889Y5734174D01*
Y5918199D01*
X22626891Y5918200D01*
X22623366Y5935914D01*
X22613332Y5950932D01*
X22537132Y6027132D01*
X22522115Y6037166D01*
X22504401Y6040690D01*
X22504399Y6040689D01*
X22466908D01*
X22464658Y6044058D01*
X22448132Y6055101D01*
X22451985Y6067801D01*
X22481400D01*
Y6187801D01*
X22444164D01*
Y6469145D01*
X22546716Y6571696D01*
X22555200Y6570579D01*
X22576997Y6573449D01*
X22597310Y6581863D01*
X22614754Y6595247D01*
X22628137Y6612690D01*
X22636551Y6633002D01*
X22639421Y6654800D01*
X22636551Y6676598D01*
X22628137Y6696910D01*
X22614754Y6714353D01*
X22597310Y6727737D01*
X22576997Y6736151D01*
X22555200Y6739021D01*
X22533401Y6736151D01*
X22513091Y6727737D01*
X22495647Y6714353D01*
X22482263Y6696910D01*
X22473849Y6676598D01*
X22470979Y6654800D01*
X22472096Y6646316D01*
X22399142Y6573362D01*
X22385086Y6570566D01*
X22370068Y6560532D01*
X22360034Y6545514D01*
X22357237Y6531458D01*
X22354091Y6528310D01*
X22342653Y6511192D01*
X22338637Y6491000D01*
Y6187801D01*
X22303429D01*
X22292799Y6192801D01*
X22292799Y6192801D01*
X22292799Y6192801D01*
X22172801D01*
Y6062801D01*
X22292799D01*
Y6062801D01*
X22301401Y6067801D01*
X22330817D01*
X22334669Y6055101D01*
X22318143Y6044058D01*
X22304881Y6024212D01*
X22300224Y6000801D01*
X22304881Y5977390D01*
X22318143Y5957543D01*
X22337990Y5944282D01*
X22340536Y5943775D01*
Y5930826D01*
X22337990Y5930320D01*
X22318143Y5917058D01*
X22315892Y5913689D01*
X22174200D01*
X22174200Y5913690D01*
X22156487Y5910166D01*
X22141467Y5900132D01*
X22141467Y5900131D01*
X21989069Y5747732D01*
X21979034Y5732714D01*
X21975510Y5715000D01*
X21975511Y5714999D01*
Y5537201D01*
X21975510Y5537200D01*
X21979034Y5519486D01*
X21989069Y5504468D01*
X22161269Y5332269D01*
X22161269Y5332268D01*
X22176286Y5322234D01*
X22194000Y5318710D01*
X23156049D01*
X23156969Y5316485D01*
X23172391Y5296389D01*
X23192485Y5280969D01*
X23215887Y5271276D01*
X23241000Y5267970D01*
X23266113Y5271276D01*
X23289516Y5280969D01*
X23309610Y5296389D01*
X23325031Y5316485D01*
X23334724Y5339887D01*
X23338029Y5365000D01*
X23334724Y5390113D01*
X23325031Y5413515D01*
X23309610Y5433610D01*
X23289516Y5449031D01*
X23266113Y5458724D01*
X23241000Y5462030D01*
X23215887Y5458724D01*
X23192485Y5449031D01*
X23172391Y5433610D01*
X23156969Y5413515D01*
X23156049Y5411289D01*
X22213174D01*
X22068089Y5556374D01*
Y5695826D01*
X22193375Y5821111D01*
X22332260D01*
X22337990Y5817282D01*
X22361401Y5812625D01*
X22421400D01*
X22444810Y5817282D01*
X22464658Y5830543D01*
X22477919Y5850390D01*
X22482576Y5873801D01*
X22477919Y5897212D01*
X22464658Y5917058D01*
X22447827Y5928305D01*
X22446375Y5939396D01*
X22446970Y5942840D01*
X22453168Y5948111D01*
X22485226D01*
X22534311Y5899026D01*
Y5715001D01*
X22534309Y5715000D01*
X22537834Y5697286D01*
X22547868Y5682268D01*
X22649467Y5580669D01*
X22649467Y5580668D01*
X22664487Y5570634D01*
X22682201Y5567111D01*
X23159560D01*
X23172391Y5550389D01*
X23192485Y5534969D01*
X23215887Y5525276D01*
X23241000Y5521970D01*
X23266113Y5525276D01*
X23289516Y5534969D01*
X23309610Y5550389D01*
X23325031Y5570485D01*
X23334724Y5593887D01*
X23338029Y5619000D01*
X23334724Y5644113D01*
X23325031Y5667515D01*
X23309610Y5687610D01*
X23308472Y5688485D01*
X23312553Y5700511D01*
X23628400D01*
X23628401Y5700511D01*
X23646115Y5704035D01*
X23661133Y5714069D01*
X23726054Y5778991D01*
X23749001Y5775970D01*
X23774113Y5779276D01*
X23797514Y5788969D01*
X23812500Y5800468D01*
X23825200Y5794205D01*
Y5697795D01*
X23812500Y5691532D01*
X23797514Y5703031D01*
X23774113Y5712724D01*
X23749001Y5716030D01*
X23723888Y5712724D01*
X23700485Y5703031D01*
X23680389Y5687610D01*
X23664969Y5667515D01*
X23655276Y5644113D01*
X23651970Y5619000D01*
X23655276Y5593887D01*
X23664969Y5570485D01*
X23680389Y5550389D01*
X23700485Y5534969D01*
X23723888Y5525276D01*
X23749001Y5521970D01*
X23774113Y5525276D01*
X23797514Y5534969D01*
X23812500Y5546468D01*
X23825200Y5540205D01*
Y5443795D01*
X23812500Y5437532D01*
X23797514Y5449031D01*
X23774113Y5458724D01*
X23749001Y5462030D01*
X23723888Y5458724D01*
X23700485Y5449031D01*
X23680389Y5433610D01*
X23664969Y5413515D01*
X23655276Y5390113D01*
X23651970Y5365000D01*
X23655276Y5339887D01*
X23664969Y5316485D01*
X23680389Y5296389D01*
X23700485Y5280969D01*
X23723888Y5271276D01*
X23749001Y5267970D01*
X23774113Y5271276D01*
X23797514Y5280969D01*
X23812500Y5292468D01*
X23825200Y5286205D01*
Y5029200D01*
X21005800D01*
Y9277401D01*
X19669202D01*
Y9310998D01*
Y9358899D01*
X19529201D01*
Y9310998D01*
Y9277401D01*
X19399199D01*
Y9310998D01*
Y9358899D01*
X19259200D01*
Y9310998D01*
X19083200D01*
Y10047598D01*
X20308092Y10047598D01*
X20309840Y10421620D01*
X20843240D01*
X20848320Y10426700D01*
X20863560Y10411460D01*
D02*
G37*
G36*
X17221802Y10030597D02*
Y9293998D01*
X16225201D01*
Y9341899D01*
X16085202D01*
Y9293998D01*
X15955199D01*
Y9341899D01*
X15815199D01*
Y9293998D01*
X15639200D01*
Y10030598D01*
X17221802Y10030597D01*
D02*
G37*
G36*
X10689801Y10045598D02*
Y9308998D01*
X9693201D01*
Y9356899D01*
X9553202D01*
Y9308998D01*
X9423199D01*
Y9356899D01*
X9283200D01*
Y9308998D01*
X9107200D01*
Y10045598D01*
X10689801Y10045598D01*
D02*
G37*
G36*
X20169427Y10837468D02*
X20170140Y10838180D01*
X23190199D01*
X23371809Y10656570D01*
X23373080Y10657840D01*
X23822659Y10208260D01*
Y10160000D01*
X23825200D01*
X23825200Y9575800D01*
X23139401Y9575800D01*
X23139400Y10149840D01*
X23025101Y10264140D01*
X20883952D01*
Y10411459D01*
X20883952Y10411460D01*
X20882401Y10419264D01*
X20878799Y10424651D01*
Y10449560D01*
X20289520D01*
Y10422067D01*
X20289449Y10421715D01*
X20287794Y10067990D01*
X19522440Y10067990D01*
X19522440Y10223500D01*
X19720560D01*
X19778979Y10281920D01*
X19817081Y10320020D01*
Y10347960D01*
Y10538460D01*
X19773900Y10581640D01*
X19771851D01*
X19766464Y10585240D01*
X19758659Y10586792D01*
X19666367D01*
X19665421Y10586603D01*
X19565421D01*
X19564473Y10586792D01*
X19039841D01*
X19039841Y10586792D01*
X19032036Y10585240D01*
X19026649Y10581640D01*
X13147601D01*
X13141348Y10589260D01*
X13137274Y10609744D01*
X13125670Y10627110D01*
X13108304Y10638714D01*
X13087820Y10642788D01*
X12987820D01*
X12967336Y10638714D01*
X12949969Y10627110D01*
X12938367Y10609744D01*
X12934293Y10589260D01*
X12928038Y10581640D01*
X12824460D01*
Y9992360D01*
X12072620D01*
X12057380Y10007600D01*
Y10243820D01*
X12306300D01*
X12352020Y10289540D01*
Y10317480D01*
Y10507980D01*
X12308840Y10551160D01*
X12059920D01*
Y10761971D01*
X12065000Y10767483D01*
Y10855945D01*
X12073995Y10864910D01*
X20169427Y10837468D01*
D02*
G37*
G36*
X20581802Y8726799D02*
X19743600Y8726799D01*
X19743600Y8857261D01*
X19743600Y9133199D01*
X20581801D01*
X20581802Y8726799D01*
D02*
G37*
G36*
X12885420Y10520680D02*
X14165581D01*
Y9956000D01*
X13861801D01*
Y9306998D01*
X12865201D01*
Y9354900D01*
X12725201D01*
Y9306998D01*
X12595199D01*
Y9354900D01*
X12455199D01*
Y9306998D01*
X12279200D01*
Y9971968D01*
X12824460D01*
X12832265Y9973520D01*
X12838879Y9977941D01*
X12843300Y9984556D01*
X12844852Y9992360D01*
Y10043598D01*
X12867638D01*
X12867641Y10521867D01*
X12879373Y10526727D01*
X12885420Y10520680D01*
D02*
G37*
G36*
X12466349Y7806418D02*
X12463560Y7802243D01*
X12462008Y7794440D01*
X12462008Y7675201D01*
X12186711Y7675201D01*
X12177859Y7684308D01*
X12188549Y8059385D01*
X12197753Y8066447D01*
X12204469Y8075200D01*
X12466349D01*
Y7806418D01*
D02*
G37*
G36*
X9294350Y7808418D02*
X9291560Y7804243D01*
X9290008Y7796440D01*
X9290008Y7677201D01*
X9014711Y7677201D01*
X9005860Y7686308D01*
X9016549Y8061385D01*
X9025753Y8068447D01*
X9032469Y8077200D01*
X9294350D01*
Y7808418D01*
D02*
G37*
G36*
X19270349Y7810418D02*
X19267560Y7806243D01*
X19266006Y7798440D01*
X19266008Y7679201D01*
X18990710Y7679201D01*
X18981859Y7688308D01*
X18992549Y8063385D01*
X19001752Y8070447D01*
X19008469Y8079200D01*
X19270349D01*
Y7810418D01*
D02*
G37*
G36*
X21502000Y7603000D02*
X21609300D01*
X21612000Y7603000D01*
X21622000D01*
X21624699Y7603000D01*
X21732001D01*
Y7616236D01*
X21893144D01*
X21932721Y7576660D01*
X21936388Y7571171D01*
X21996953Y7510606D01*
X22014072Y7499168D01*
X22034264Y7495152D01*
X22034264Y7495152D01*
X22305019D01*
X22307504Y7493491D01*
X22308978Y7482238D01*
X22308376Y7478898D01*
X22302251Y7473680D01*
X21932941D01*
X21863310Y7543310D01*
X21846191Y7554747D01*
X21825999Y7558764D01*
X21737000D01*
Y7572000D01*
X21629700D01*
X21627000Y7572000D01*
X21617000D01*
X21614301Y7572000D01*
X21507001D01*
X21507001Y7572000D01*
X21495065Y7573850D01*
X21485622Y7577763D01*
X21467999Y7580082D01*
X21450378Y7577763D01*
X21433958Y7570961D01*
X21431494Y7569069D01*
X21423102Y7578638D01*
X21463174Y7618710D01*
X21502000D01*
Y7603000D01*
D02*
G37*
G36*
X15826350Y7793418D02*
X15823560Y7789243D01*
X15822008Y7781439D01*
X15822008Y7662201D01*
X15546712Y7662201D01*
X15537859Y7671308D01*
X15548549Y8046385D01*
X15557753Y8053447D01*
X15564468Y8062200D01*
X15826350D01*
Y7793418D01*
D02*
G37*
G36*
X2405050Y8128369D02*
X2421079Y8107479D01*
X2441969Y8091450D01*
X2456714Y8085343D01*
Y8029600D01*
X2459431Y8015944D01*
X2467166Y8004367D01*
X3055147Y7416386D01*
X3049886Y7403686D01*
X2852782D01*
X2390686Y7865782D01*
Y8129861D01*
X2403386Y8132387D01*
X2405050Y8128369D01*
D02*
G37*
G36*
X19794220Y10530840D02*
Y10375900D01*
Y10340340D01*
X19740880Y10287000D01*
X19319238Y10287000D01*
Y10287000D01*
X18467999Y10287000D01*
Y9221000D01*
X18544200Y9144800D01*
X19381999D01*
Y8738400D01*
X18137801D01*
Y10287000D01*
X15029201Y10287001D01*
Y9213389D01*
X15105400Y9137189D01*
X15943201D01*
Y8730789D01*
X14699001D01*
Y10529211D01*
X14702998D01*
Y10556239D01*
X19029680Y10556240D01*
X19039841Y10566400D01*
X19564473D01*
X19565421Y10566212D01*
X19665421D01*
X19666367Y10566400D01*
X19758659D01*
X19794220Y10530840D01*
D02*
G37*
G36*
X4885466Y8234256D02*
X4890987Y8233158D01*
X4940314Y8183831D01*
Y7763781D01*
X4930913Y7754380D01*
X4917133Y7758560D01*
X4914209Y7773260D01*
X4902053Y7791453D01*
X4883860Y7803609D01*
X4877937Y7804787D01*
X4875255Y7818269D01*
X4884053Y7824147D01*
X4896209Y7842340D01*
X4900477Y7863800D01*
X4896209Y7885260D01*
X4884053Y7903453D01*
X4865860Y7915609D01*
X4844400Y7919877D01*
X4836792Y7918364D01*
X4830536Y7930069D01*
X4849234Y7948766D01*
X4856969Y7960343D01*
X4859686Y7974000D01*
Y8237371D01*
X4863059Y8239844D01*
X4872386Y8242996D01*
X4885466Y8234256D01*
D02*
G37*
%LPC*%
G36*
X3096300Y5900006D02*
X3068889Y5896397D01*
X3043347Y5885817D01*
X3021413Y5868987D01*
X3004583Y5847053D01*
X2994003Y5821510D01*
X2990394Y5794100D01*
X2994003Y5766690D01*
X3004583Y5741147D01*
X3021413Y5719213D01*
X3043347Y5702383D01*
X3068889Y5691803D01*
X3096300Y5688194D01*
X3123710Y5691803D01*
X3149253Y5702383D01*
X3171187Y5719213D01*
X3188017Y5741147D01*
X3198597Y5766690D01*
X3202206Y5794100D01*
X3198597Y5821510D01*
X3188017Y5847053D01*
X3171187Y5868987D01*
X3149253Y5885817D01*
X3123710Y5896397D01*
X3096300Y5900006D01*
D02*
G37*
G36*
X2557000Y10605174D02*
X2525635Y10602085D01*
X2495474Y10592936D01*
X2467679Y10578079D01*
X2443315Y10558085D01*
X2423321Y10533721D01*
X2408464Y10505926D01*
X2399315Y10475765D01*
X2396226Y10444400D01*
X2399315Y10413035D01*
X2408464Y10382874D01*
X2423321Y10355079D01*
X2443315Y10330715D01*
X2467679Y10310721D01*
X2495474Y10295864D01*
X2525635Y10286715D01*
X2557000Y10283626D01*
X2588365Y10286715D01*
X2618526Y10295864D01*
X2646321Y10310721D01*
X2670685Y10330715D01*
X2690679Y10355079D01*
X2705536Y10382874D01*
X2714685Y10413035D01*
X2717774Y10444400D01*
X2714685Y10475765D01*
X2705536Y10505926D01*
X2690679Y10533721D01*
X2670685Y10558085D01*
X2646321Y10578079D01*
X2618526Y10592936D01*
X2588365Y10602085D01*
X2557000Y10605174D01*
D02*
G37*
G36*
X2492400Y9829063D02*
X2466295Y9825626D01*
X2441969Y9815550D01*
X2421079Y9799521D01*
X2405050Y9778631D01*
X2394974Y9754305D01*
X2391537Y9728200D01*
X2394974Y9702095D01*
X2405050Y9677769D01*
X2421079Y9656879D01*
X2441969Y9640850D01*
X2466295Y9630774D01*
X2492400Y9627337D01*
X2518505Y9630774D01*
X2542831Y9640850D01*
X2563721Y9656879D01*
X2579749Y9677769D01*
X2588422Y9698707D01*
X3256998D01*
Y9669393D01*
X3366997D01*
Y9799392D01*
X3256998D01*
Y9770078D01*
X2583292D01*
X2579749Y9778631D01*
X2563721Y9799521D01*
X2542831Y9815550D01*
X2518505Y9825626D01*
X2492400Y9829063D01*
D02*
G37*
G36*
X2640171Y6880540D02*
X2541431D01*
X2492061Y6831170D01*
Y6732430D01*
X2541431Y6683060D01*
X2640171D01*
X2689541Y6732430D01*
Y6748459D01*
X2726000D01*
Y6720002D01*
X2745316D01*
Y6697000D01*
X2726001D01*
Y6567001D01*
X2836001D01*
Y6697000D01*
X2816687D01*
Y6720002D01*
X2846000D01*
Y6850002D01*
X2726000D01*
Y6815141D01*
X2689541D01*
Y6831170D01*
X2640171Y6880540D01*
D02*
G37*
G36*
X8265900Y6857801D02*
X8108900D01*
Y6629802D01*
X8265900D01*
Y6857801D01*
D02*
G37*
G36*
X2640171Y6626540D02*
X2541431D01*
X2492061Y6577170D01*
Y6478430D01*
X2541431Y6429060D01*
X2640171D01*
X2689541Y6478430D01*
Y6577170D01*
X2640171Y6626540D01*
D02*
G37*
G36*
X2985998Y6697000D02*
X2875999D01*
Y6567001D01*
X2971043D01*
X2973649Y6547202D01*
X2982063Y6526890D01*
X2995447Y6509447D01*
X3012890Y6496063D01*
X3033202Y6487649D01*
X3055000Y6484780D01*
X3076798Y6487649D01*
X3097110Y6496063D01*
X3114553Y6509447D01*
X3127937Y6526890D01*
X3136351Y6547202D01*
X3139221Y6569000D01*
X3136351Y6590798D01*
X3127937Y6611110D01*
X3114553Y6628553D01*
X3097110Y6641937D01*
X3076798Y6650351D01*
X3055000Y6653221D01*
X3048283Y6652336D01*
X3031309Y6669310D01*
X3014192Y6680748D01*
X2994000Y6684764D01*
X2985998D01*
Y6697000D01*
D02*
G37*
G36*
X3389700Y8645220D02*
X3367902Y8642351D01*
X3347590Y8633937D01*
X3330147Y8620553D01*
X3316763Y8603110D01*
X3308349Y8582798D01*
X3305480Y8561000D01*
X3308349Y8539202D01*
X3316763Y8518890D01*
X3328932Y8503031D01*
X3334700Y8492720D01*
Y8362720D01*
X3444700D01*
Y8492720D01*
X3450468Y8503031D01*
X3462637Y8518890D01*
X3471051Y8539202D01*
X3473921Y8561000D01*
X3471051Y8582798D01*
X3462637Y8603110D01*
X3449253Y8620553D01*
X3431810Y8633937D01*
X3411498Y8642351D01*
X3389700Y8645220D01*
D02*
G37*
G36*
X5585000Y8350000D02*
X5475000D01*
Y8220000D01*
X5499655D01*
Y8203965D01*
X5452036D01*
Y8042045D01*
X5613956D01*
Y8203965D01*
X5566337D01*
Y8220000D01*
X5585000D01*
Y8350000D01*
D02*
G37*
G36*
X4339000Y8842431D02*
X4229000D01*
X4210466Y8838744D01*
X4194754Y8828246D01*
X4184256Y8812534D01*
X4180569Y8794000D01*
X4184256Y8775467D01*
X4194754Y8759755D01*
X4210466Y8749256D01*
X4229000Y8745570D01*
X4339000D01*
X4357534Y8749256D01*
X4373246Y8759755D01*
X4373620Y8760314D01*
X4527219D01*
X4544579Y8742954D01*
X4540399Y8729174D01*
X4534343Y8727969D01*
X4522766Y8720234D01*
X4476218Y8673686D01*
X4365104D01*
X4357534Y8678744D01*
X4339000Y8682431D01*
X4229000D01*
X4210466Y8678744D01*
X4194754Y8668246D01*
X4184256Y8652534D01*
X4180569Y8634000D01*
X4184256Y8615467D01*
X4193015Y8602358D01*
X4194065Y8593837D01*
X4191338Y8586764D01*
X4187344Y8585969D01*
X4175766Y8578234D01*
X3888765Y8291232D01*
X3881030Y8279655D01*
X3878313Y8265999D01*
Y8263000D01*
X3858999D01*
Y8184893D01*
X3854431Y8178056D01*
X3851714Y8164400D01*
Y8120330D01*
X3831840D01*
Y7879670D01*
X3942960D01*
Y8120330D01*
X3942960D01*
X3943032Y8133000D01*
X3968999D01*
Y8262999D01*
X3968999Y8263000D01*
X3968999D01*
X3972863Y8274395D01*
X4168425Y8469957D01*
X4182205Y8465777D01*
X4184256Y8455466D01*
X4194754Y8439755D01*
X4210466Y8429256D01*
X4224114Y8426541D01*
X4229175Y8413641D01*
X4078534Y8263000D01*
X4009001D01*
Y8133000D01*
X4033368D01*
X4033439Y8120330D01*
X4033440D01*
Y7879670D01*
X4144560D01*
Y8120330D01*
X4124685D01*
Y8175000D01*
X4121969Y8188657D01*
X4119001Y8193099D01*
Y8202533D01*
X4311234Y8394766D01*
X4318969Y8406343D01*
X4321686Y8419999D01*
Y8425570D01*
X4339000D01*
X4357534Y8429256D01*
X4373246Y8439755D01*
X4383744Y8455466D01*
X4387431Y8474000D01*
X4383744Y8492534D01*
X4374985Y8505643D01*
X4373955Y8514000D01*
X4374985Y8522358D01*
X4383744Y8535467D01*
X4387431Y8554000D01*
X4383744Y8572534D01*
X4374985Y8585643D01*
X4374471Y8589815D01*
X4382748Y8602314D01*
X4491000D01*
X4504656Y8605031D01*
X4516234Y8612766D01*
X4545985Y8642518D01*
X4558658Y8641688D01*
X4563447Y8635447D01*
X4580889Y8622063D01*
X4601202Y8613649D01*
X4623000Y8610779D01*
X4644798Y8613649D01*
X4665110Y8622063D01*
X4682553Y8635447D01*
X4695937Y8652889D01*
X4698598Y8659314D01*
X4755219D01*
X4885766Y8528766D01*
X4897344Y8521031D01*
X4911000Y8518314D01*
X5027370D01*
X5029843Y8514942D01*
X5032996Y8505614D01*
X5024256Y8492534D01*
X5020570Y8474000D01*
X5024256Y8455466D01*
X5034754Y8439755D01*
X5050466Y8429256D01*
X5069000Y8425570D01*
X5088314D01*
Y8405000D01*
X5091031Y8391344D01*
X5096349Y8383384D01*
X5095636Y8379800D01*
X5099653Y8359608D01*
X5111090Y8342490D01*
X5128208Y8331053D01*
X5148400Y8327036D01*
X5168592Y8331053D01*
X5185710Y8342490D01*
X5197148Y8359608D01*
X5201164Y8379800D01*
X5198034Y8395538D01*
X5209738Y8401795D01*
X5325000Y8286533D01*
Y8220000D01*
X5435000D01*
Y8350000D01*
X5362468D01*
X5244201Y8468267D01*
X5249061Y8480000D01*
X5347000D01*
Y8610000D01*
X5340656D01*
X5333868Y8622700D01*
X5337148Y8627608D01*
X5341164Y8647800D01*
X5337148Y8667992D01*
X5332933Y8674300D01*
X5339721Y8687000D01*
X5340003D01*
Y8817000D01*
X5220003D01*
Y8757467D01*
X5207303Y8752217D01*
X5197534Y8758744D01*
X5179000Y8762431D01*
X5069000D01*
X5050466Y8758744D01*
X5034754Y8748246D01*
X5024256Y8732534D01*
X5020570Y8714000D01*
X5024256Y8695466D01*
X5033015Y8682358D01*
X5034045Y8674000D01*
X5033015Y8665643D01*
X5024256Y8652534D01*
X5020570Y8634000D01*
X5024256Y8615467D01*
X5032997Y8602386D01*
X5029844Y8593059D01*
X5027371Y8589686D01*
X4925782D01*
X4795234Y8720234D01*
X4783656Y8727969D01*
X4770000Y8730686D01*
X4698598D01*
X4695937Y8737110D01*
X4682553Y8754553D01*
X4665110Y8767937D01*
X4644798Y8776351D01*
X4623000Y8779220D01*
X4610847Y8777620D01*
X4567234Y8821234D01*
X4555656Y8828969D01*
X4542000Y8831686D01*
X4368097D01*
X4357534Y8838744D01*
X4339000Y8842431D01*
D02*
G37*
G36*
X5650000Y6675192D02*
X4013200D01*
X4005396Y6673640D01*
X3998781Y6669219D01*
X3994360Y6662604D01*
X3992808Y6654800D01*
Y6070600D01*
Y5969000D01*
X3994360Y5961196D01*
X3998781Y5954581D01*
X4005396Y5950160D01*
X4013200Y5948608D01*
X4587866D01*
X4597000Y5940000D01*
Y5701921D01*
X4597000Y5700000D01*
X4592364Y5689221D01*
X4145385D01*
X3951920Y5882686D01*
Y6025830D01*
X3801955D01*
X3783798Y6033351D01*
X3762000Y6036221D01*
X3659000D01*
X3637202Y6033351D01*
X3616890Y6024937D01*
X3599447Y6011553D01*
X3586063Y5994110D01*
X3577649Y5973798D01*
X3574779Y5952000D01*
X3577649Y5930202D01*
X3586063Y5909890D01*
X3599447Y5892447D01*
X3616890Y5879063D01*
X3637202Y5870649D01*
X3659000Y5867779D01*
X3727115D01*
X3769680Y5825214D01*
Y5683570D01*
X3912824D01*
X4050947Y5545447D01*
X4068390Y5532063D01*
X4088702Y5523649D01*
X4110500Y5520779D01*
X4894474D01*
X4897202Y5519649D01*
X4919000Y5516779D01*
X4940798Y5519649D01*
X4961110Y5528063D01*
X4962332Y5529000D01*
X4974000D01*
Y5537953D01*
X4978553Y5541447D01*
X4991937Y5558890D01*
X5000351Y5579202D01*
X5003221Y5601000D01*
Y5700000D01*
X5017000D01*
Y5935908D01*
X5017000Y5940000D01*
X5026134Y5948608D01*
X5650000D01*
X5657804Y5950160D01*
X5664419Y5954581D01*
X5668840Y5961196D01*
X5670392Y5969000D01*
Y6063375D01*
Y6654800D01*
X5668840Y6662604D01*
X5664419Y6669219D01*
X5657804Y6673640D01*
X5650000Y6675192D01*
D02*
G37*
G36*
X2492400Y9194063D02*
X2466295Y9190626D01*
X2441969Y9180550D01*
X2421079Y9164521D01*
X2405050Y9143631D01*
X2394974Y9119305D01*
X2391537Y9093200D01*
X2394974Y9067095D01*
X2405050Y9042769D01*
X2421079Y9021879D01*
X2441969Y9005850D01*
X2466295Y8995774D01*
X2492400Y8992337D01*
X2518505Y8995774D01*
X2542831Y9005850D01*
X2563721Y9021879D01*
X2579749Y9042769D01*
X2583738Y9052399D01*
X3172000D01*
Y9033280D01*
X3282000D01*
Y9163280D01*
X3172000D01*
Y9144162D01*
X2579342D01*
X2563721Y9164521D01*
X2542831Y9180550D01*
X2518505Y9190626D01*
X2492400Y9194063D01*
D02*
G37*
G36*
X3471200Y10003621D02*
X3449402Y10000751D01*
X3429089Y9992337D01*
X3411647Y9978953D01*
X3398263Y9961510D01*
X3389849Y9941198D01*
X3386979Y9919400D01*
X3389849Y9897602D01*
X3398263Y9877290D01*
X3411647Y9859847D01*
X3418436Y9854638D01*
Y9799392D01*
X3407000D01*
Y9669393D01*
X3409236D01*
Y9196315D01*
X3376201Y9163280D01*
X3322000D01*
Y9033281D01*
X3314753Y9023582D01*
X3304063Y9009650D01*
X3295649Y8989338D01*
X3292780Y8967540D01*
X3295649Y8945742D01*
X3304063Y8925430D01*
X3317447Y8907987D01*
X3334890Y8894603D01*
X3355202Y8886189D01*
X3377000Y8883320D01*
X3398798Y8886189D01*
X3419110Y8894603D01*
X3436553Y8907987D01*
X3449937Y8925430D01*
X3458351Y8945742D01*
X3461221Y8967540D01*
X3458351Y8989338D01*
X3449937Y9009650D01*
X3439247Y9023582D01*
X3432000Y9033281D01*
Y9069840D01*
X3499309Y9137150D01*
X3510747Y9154268D01*
X3514764Y9174460D01*
Y9669393D01*
X3517000D01*
Y9695116D01*
X3522140Y9702808D01*
X3526156Y9723000D01*
X3523747Y9735111D01*
X3523964Y9736200D01*
Y9854638D01*
X3530753Y9859847D01*
X3544137Y9877290D01*
X3552551Y9897602D01*
X3555420Y9919400D01*
X3552551Y9941198D01*
X3544137Y9961510D01*
X3530753Y9978953D01*
X3513310Y9992337D01*
X3492998Y10000751D01*
X3471200Y10003621D01*
D02*
G37*
G36*
X5144400Y9167564D02*
X5124208Y9163548D01*
X5107090Y9152110D01*
X5095653Y9134992D01*
X5091636Y9114800D01*
X5095549Y9095131D01*
X5095758Y9092878D01*
X5089104Y9082431D01*
X5069000D01*
X5050466Y9078744D01*
X5034754Y9068246D01*
X5024256Y9052534D01*
X5020570Y9034000D01*
X5024256Y9015467D01*
X5033015Y9002358D01*
X5034045Y8994000D01*
X5033015Y8985643D01*
X5024256Y8972534D01*
X5020570Y8954000D01*
X5024256Y8935467D01*
X5033015Y8922358D01*
X5034045Y8914000D01*
X5033015Y8905643D01*
X5024256Y8892534D01*
X5020570Y8874000D01*
X5024256Y8855467D01*
X5034754Y8839755D01*
X5050466Y8829256D01*
X5069000Y8825570D01*
X5179000D01*
X5197534Y8829256D01*
X5213246Y8839755D01*
X5223744Y8855467D01*
X5227431Y8874000D01*
X5223744Y8892534D01*
X5216474Y8903414D01*
X5222590Y8916114D01*
X5247005D01*
X5248090Y8914490D01*
X5265208Y8903053D01*
X5285400Y8899036D01*
X5305592Y8903053D01*
X5322710Y8914490D01*
X5334148Y8931608D01*
X5338164Y8951800D01*
X5334148Y8971992D01*
X5322710Y8989110D01*
X5305592Y9000547D01*
X5285400Y9004564D01*
X5265208Y9000547D01*
X5248090Y8989110D01*
X5247005Y8987486D01*
X5222483D01*
X5214555Y8998865D01*
X5214985Y9002358D01*
X5223744Y9015467D01*
X5227431Y9034000D01*
X5223744Y9052534D01*
X5213246Y9068246D01*
X5197534Y9078744D01*
X5195516Y9079145D01*
X5190656Y9090879D01*
X5193148Y9094608D01*
X5197164Y9114800D01*
X5193148Y9134992D01*
X5181710Y9152110D01*
X5164592Y9163548D01*
X5144400Y9167564D01*
D02*
G37*
G36*
X4274400Y9189877D02*
X4252940Y9185609D01*
X4234747Y9173453D01*
X4222592Y9155260D01*
X4218323Y9133800D01*
X4222592Y9112340D01*
X4234090Y9095131D01*
X4232954Y9090202D01*
X4229423Y9082431D01*
X4229000D01*
X4210466Y9078744D01*
X4194754Y9068246D01*
X4184256Y9052534D01*
X4180569Y9034000D01*
X4184256Y9015467D01*
X4193015Y9002358D01*
X4194045Y8994000D01*
X4193015Y8985643D01*
X4184256Y8972534D01*
X4180569Y8954000D01*
X4184256Y8935467D01*
X4194754Y8919755D01*
X4210466Y8909256D01*
X4229000Y8905570D01*
X4339000D01*
X4357534Y8909256D01*
X4373246Y8919755D01*
X4383744Y8935467D01*
X4387431Y8954000D01*
X4383744Y8972534D01*
X4374985Y8985643D01*
X4373955Y8994000D01*
X4374985Y9002358D01*
X4383744Y9015467D01*
X4387431Y9034000D01*
X4383744Y9052534D01*
X4373246Y9068246D01*
X4357534Y9078744D01*
X4339000Y9082431D01*
X4319377D01*
X4315846Y9090202D01*
X4314710Y9095131D01*
X4326209Y9112340D01*
X4330477Y9133800D01*
X4326209Y9155260D01*
X4314053Y9173453D01*
X4295860Y9185609D01*
X4274400Y9189877D01*
D02*
G37*
%LPD*%
G36*
X5650000Y5969000D02*
X4013200D01*
Y6654800D01*
X5650000D01*
Y5969000D01*
D02*
G37*
%LPC*%
G36*
X19587360Y9568458D02*
X19564690Y9563949D01*
X19545473Y9551108D01*
X19543999Y9548902D01*
X19529201D01*
Y9514648D01*
X19528120Y9509220D01*
X19529201Y9503792D01*
Y9453902D01*
X19567651D01*
X19587360Y9449982D01*
X19607068Y9453902D01*
X19669202D01*
X19678601Y9445935D01*
Y9441801D01*
X19808601D01*
Y9561801D01*
X19678601D01*
Y9556869D01*
X19669202Y9548902D01*
X19630721D01*
X19629247Y9551108D01*
X19610030Y9563949D01*
X19587360Y9568458D01*
D02*
G37*
G36*
X20667979Y10317881D02*
X20646182Y10315011D01*
X20625870Y10306597D01*
X20608427Y10293213D01*
X20595042Y10275770D01*
X20586629Y10255458D01*
X20583759Y10233660D01*
X20586629Y10211862D01*
X20593237Y10195908D01*
X20561569Y10164240D01*
X20402921D01*
Y10059240D01*
X20607919D01*
Y10116289D01*
X20644597Y10152966D01*
X20646182Y10152309D01*
X20667979Y10149439D01*
X20689778Y10152309D01*
X20710091Y10160723D01*
X20727533Y10174107D01*
X20740916Y10191550D01*
X20749332Y10211862D01*
X20752200Y10233660D01*
X20749332Y10255458D01*
X20740916Y10275770D01*
X20727533Y10293213D01*
X20710091Y10306597D01*
X20689778Y10315011D01*
X20667979Y10317881D01*
D02*
G37*
G36*
X19323199Y9734050D02*
X19302286Y9729890D01*
X19284557Y9718043D01*
X19272710Y9700314D01*
X19268550Y9679400D01*
X19272710Y9658486D01*
X19284557Y9640757D01*
X19293513Y9634772D01*
Y9609397D01*
X19289400Y9598401D01*
X19179401D01*
Y9468401D01*
X19252901D01*
X19266399Y9465716D01*
X19274609D01*
X19288165Y9456658D01*
X19306699Y9452971D01*
X19351698D01*
X19356378Y9453902D01*
X19370233Y9456658D01*
X19385945Y9467156D01*
X19396443Y9482868D01*
X19400130Y9501402D01*
X19396443Y9519935D01*
X19385945Y9535647D01*
X19370233Y9546146D01*
X19364885Y9547210D01*
Y9645309D01*
X19373689Y9658486D01*
X19377849Y9679400D01*
X19373689Y9700314D01*
X19361842Y9718043D01*
X19354800Y9722749D01*
X19344113Y9729890D01*
X19323199Y9734050D01*
D02*
G37*
G36*
X23241000Y8764030D02*
X23215887Y8760724D01*
X23192485Y8751031D01*
X23172391Y8735610D01*
X23156969Y8715515D01*
X23147276Y8692113D01*
X23143970Y8667000D01*
X23147276Y8641887D01*
X23156969Y8618485D01*
X23172391Y8598389D01*
X23192485Y8582969D01*
X23215887Y8573276D01*
X23241000Y8569970D01*
X23266113Y8573276D01*
X23289516Y8582969D01*
X23309610Y8598389D01*
X23325031Y8618485D01*
X23334724Y8641887D01*
X23338029Y8667000D01*
X23334724Y8692113D01*
X23325031Y8715515D01*
X23309610Y8735610D01*
X23289516Y8751031D01*
X23266113Y8760724D01*
X23241000Y8764030D01*
D02*
G37*
G36*
Y9018030D02*
X23215887Y9014724D01*
X23192485Y9005031D01*
X23172391Y8989610D01*
X23156969Y8969515D01*
X23147276Y8946113D01*
X23143970Y8921000D01*
X23147276Y8895887D01*
X23156969Y8872485D01*
X23172391Y8852389D01*
X23192485Y8836969D01*
X23215887Y8827276D01*
X23241000Y8823970D01*
X23266113Y8827276D01*
X23289516Y8836969D01*
X23309610Y8852389D01*
X23325031Y8872485D01*
X23334724Y8895887D01*
X23338029Y8921000D01*
X23334724Y8946113D01*
X23325031Y8969515D01*
X23309610Y8989610D01*
X23289516Y9005031D01*
X23266113Y9014724D01*
X23241000Y9018030D01*
D02*
G37*
G36*
X16143359Y9551458D02*
X16120689Y9546949D01*
X16101472Y9534107D01*
X16099998Y9531901D01*
X16085202D01*
Y9497648D01*
X16084122Y9492220D01*
X16085202Y9486792D01*
Y9436902D01*
X16123653D01*
X16143359Y9432982D01*
X16163068Y9436902D01*
X16225201D01*
X16234601Y9428935D01*
Y9424801D01*
X16364601D01*
Y9544801D01*
X16234601D01*
Y9539868D01*
X16225201Y9531901D01*
X16186720D01*
X16185248Y9534107D01*
X16166029Y9546949D01*
X16143359Y9551458D01*
D02*
G37*
G36*
X15879201Y9717050D02*
X15858286Y9712890D01*
X15840556Y9701043D01*
X15828709Y9683313D01*
X15824550Y9662400D01*
X15828709Y9641486D01*
X15840556Y9623756D01*
X15849513Y9617771D01*
Y9592397D01*
X15845399Y9581401D01*
X15735400D01*
Y9451401D01*
X15808902D01*
X15822400Y9448716D01*
X15830609D01*
X15844167Y9439658D01*
X15862698Y9435971D01*
X15907700D01*
X15926233Y9439658D01*
X15941945Y9450156D01*
X15952443Y9465868D01*
X15956129Y9484402D01*
X15952443Y9502935D01*
X15941945Y9518647D01*
X15926233Y9529146D01*
X15920885Y9530209D01*
Y9628309D01*
X15929691Y9641486D01*
X15933850Y9662400D01*
X15929691Y9683313D01*
X15917844Y9701043D01*
X15900113Y9712890D01*
X15879201Y9717050D01*
D02*
G37*
G36*
X9611360Y9566458D02*
X9588690Y9561949D01*
X9569472Y9549108D01*
X9567998Y9546902D01*
X9553202D01*
Y9512648D01*
X9552122Y9507220D01*
X9553202Y9501792D01*
Y9451902D01*
X9591652D01*
X9611360Y9447982D01*
X9631068Y9451902D01*
X9693201D01*
X9702601Y9443935D01*
Y9439801D01*
X9832601D01*
Y9559801D01*
X9702601D01*
Y9554869D01*
X9693201Y9546902D01*
X9654722D01*
X9653248Y9549108D01*
X9634029Y9561949D01*
X9611360Y9566458D01*
D02*
G37*
G36*
X9347200Y9732050D02*
X9326286Y9727890D01*
X9308557Y9716043D01*
X9296710Y9698314D01*
X9292550Y9677400D01*
X9296710Y9656486D01*
X9308557Y9638757D01*
X9317514Y9632772D01*
Y9607397D01*
X9313400Y9596401D01*
X9203401D01*
Y9466401D01*
X9276902D01*
X9290400Y9463716D01*
X9298609D01*
X9312166Y9454658D01*
X9330699Y9450971D01*
X9375700D01*
X9394233Y9454658D01*
X9409945Y9465156D01*
X9420443Y9480868D01*
X9424130Y9499402D01*
X9420443Y9517935D01*
X9409945Y9533647D01*
X9394233Y9544146D01*
X9388885Y9545210D01*
Y9643309D01*
X9397690Y9656486D01*
X9401850Y9677400D01*
X9397690Y9698314D01*
X9385843Y9716043D01*
X9368114Y9727890D01*
X9347200Y9732050D01*
D02*
G37*
G36*
X20555420Y10673268D02*
X20455420D01*
X20434937Y10669194D01*
X20417570Y10657590D01*
X20405966Y10640224D01*
X20401892Y10619740D01*
X20405966Y10599256D01*
X20417570Y10581890D01*
X20434937Y10570286D01*
X20455420Y10566212D01*
X20555420D01*
X20575903Y10570286D01*
X20593269Y10581890D01*
X20604874Y10599256D01*
X20608948Y10619740D01*
X20604874Y10640224D01*
X20593269Y10657590D01*
X20575903Y10669194D01*
X20555420Y10673268D01*
D02*
G37*
G36*
X12519200Y9730050D02*
X12498286Y9725890D01*
X12480556Y9714043D01*
X12468710Y9696314D01*
X12464550Y9675400D01*
X12468710Y9654486D01*
X12480556Y9636757D01*
X12489514Y9630772D01*
Y9605397D01*
X12485400Y9594401D01*
X12375400D01*
Y9464401D01*
X12448901D01*
X12462400Y9461716D01*
X12470609D01*
X12484166Y9452658D01*
X12502699Y9448971D01*
X12547699D01*
X12566233Y9452658D01*
X12581945Y9463156D01*
X12592443Y9478868D01*
X12596130Y9497402D01*
X12592443Y9515936D01*
X12581945Y9531647D01*
X12566233Y9542146D01*
X12560885Y9543210D01*
Y9641309D01*
X12569690Y9654486D01*
X12573850Y9675400D01*
X12569690Y9696314D01*
X12557843Y9714043D01*
X12540113Y9725890D01*
X12519200Y9730050D01*
D02*
G37*
G36*
X12783360Y9564458D02*
X12760690Y9559949D01*
X12741472Y9547108D01*
X12739998Y9544902D01*
X12725201D01*
Y9510648D01*
X12724122Y9505220D01*
X12725201Y9499792D01*
Y9449902D01*
X12763651D01*
X12783360Y9445982D01*
X12803069Y9449902D01*
X12865201D01*
X12874602Y9441935D01*
Y9437801D01*
X13004601D01*
Y9557801D01*
X12874602D01*
Y9552869D01*
X12865201Y9544902D01*
X12826721D01*
X12825247Y9547108D01*
X12806029Y9559949D01*
X12783360Y9564458D01*
D02*
G37*
G36*
X13238480Y10317881D02*
X13216682Y10315011D01*
X13196370Y10306597D01*
X13178928Y10293213D01*
X13165543Y10275770D01*
X13157129Y10255458D01*
X13154259Y10233660D01*
X13157129Y10211862D01*
X13165543Y10191550D01*
X13178928Y10174107D01*
X13190012Y10165602D01*
X13192091Y10149722D01*
X13156970Y10114601D01*
X13140320D01*
Y10133760D01*
X12935320D01*
Y10028760D01*
X13140320D01*
Y10047919D01*
X13170779D01*
X13183539Y10050457D01*
X13194354Y10057685D01*
X13262054Y10125384D01*
X13269283Y10136201D01*
X13271822Y10148960D01*
Y10157090D01*
X13280589Y10160723D01*
X13298033Y10174107D01*
X13311417Y10191550D01*
X13319830Y10211862D01*
X13322701Y10233660D01*
X13319830Y10255458D01*
X13311417Y10275770D01*
X13298033Y10293213D01*
X13280589Y10306597D01*
X13260278Y10315011D01*
X13238480Y10317881D01*
D02*
G37*
%LPD*%
D10*
X21811000Y1832000D02*
D03*
X22661000Y2182000D02*
D03*
Y1832000D02*
D03*
X21811000Y2182000D02*
D03*
X22121001Y4286000D02*
D03*
X22971001Y4636000D02*
D03*
Y4286000D02*
D03*
X22121001Y4636000D02*
D03*
D11*
X18502000Y3365000D02*
D03*
Y3095000D02*
D03*
X18191000Y3366000D02*
D03*
Y3096000D02*
D03*
X17889999Y3364000D02*
D03*
Y3094000D02*
D03*
X15287000Y3290000D02*
D03*
Y3020000D02*
D03*
X9357000Y2116000D02*
D03*
Y1846000D02*
D03*
X9057000Y2115000D02*
D03*
Y1845000D02*
D03*
X8760000Y2118000D02*
D03*
Y1848000D02*
D03*
D12*
X13789000Y5501000D02*
D03*
Y5651000D02*
D03*
X13790999Y5230000D02*
D03*
Y5380000D02*
D03*
X3022600Y3707200D02*
D03*
Y3557200D02*
D03*
X7636000Y2598000D02*
D03*
Y2748000D02*
D03*
X9234201Y7043401D02*
D03*
Y7193401D02*
D03*
X9131300Y8035220D02*
D03*
Y8185220D02*
D03*
X23026401Y6002001D02*
D03*
Y6152001D02*
D03*
X23012399Y7720400D02*
D03*
Y7570400D02*
D03*
X12303299Y8033220D02*
D03*
Y8183220D02*
D03*
X12406201Y7041401D02*
D03*
Y7191401D02*
D03*
X15663300Y8020220D02*
D03*
Y8170220D02*
D03*
X15766200Y7028401D02*
D03*
Y7178401D02*
D03*
X19107298Y8037220D02*
D03*
Y8187220D02*
D03*
X19210201Y7045401D02*
D03*
Y7195401D02*
D03*
X21763000Y7263000D02*
D03*
Y7143000D02*
D03*
D13*
X16928000Y3891000D02*
D03*
X16778000D02*
D03*
X3239700Y8427720D02*
D03*
X3389700D02*
D03*
X3227000Y9098280D02*
D03*
X3377000D02*
D03*
X3176200Y4343400D02*
D03*
X3326200D02*
D03*
X2947600Y3048000D02*
D03*
X3097600D02*
D03*
X2781001Y6632000D02*
D03*
X2930998D02*
D03*
X8801202Y7033946D02*
D03*
X8651199D02*
D03*
X9108401Y9531401D02*
D03*
X9258401D02*
D03*
X9360001Y7753401D02*
D03*
X9210001D02*
D03*
X9080602Y7033946D02*
D03*
X8930599D02*
D03*
X4064001Y8198000D02*
D03*
X3913999D02*
D03*
X3311997Y9734393D02*
D03*
X3462000D02*
D03*
X5530000Y8285000D02*
D03*
X5380000D02*
D03*
X12252601Y7031946D02*
D03*
X12102599D02*
D03*
X12532001Y7751401D02*
D03*
X12382001D02*
D03*
X12280400Y9529401D02*
D03*
X12430400D02*
D03*
X11973201Y7031946D02*
D03*
X11823199D02*
D03*
X15612601Y7018946D02*
D03*
X15462599D02*
D03*
X15892001Y7738401D02*
D03*
X15742001D02*
D03*
X15640401Y9516401D02*
D03*
X15790401D02*
D03*
X15333202Y7018946D02*
D03*
X15183199D02*
D03*
X19056601Y7035946D02*
D03*
X18906599D02*
D03*
X19336002Y7755401D02*
D03*
X19186002D02*
D03*
X19084399Y9533401D02*
D03*
X19234399D02*
D03*
X18777200Y7035946D02*
D03*
X18627199D02*
D03*
X21677000Y7668000D02*
D03*
X21557001D02*
D03*
X21682001Y7507000D02*
D03*
X21562000D02*
D03*
X21677000Y7814000D02*
D03*
X21557001D02*
D03*
D14*
X16657001Y3507000D02*
D03*
X17147000D02*
D03*
D15*
X8810400Y8305800D02*
D03*
X8540400D02*
D03*
X8694000Y3128000D02*
D03*
X8424000D02*
D03*
X8683401Y4527601D02*
D03*
X8413399D02*
D03*
X8694800Y4826000D02*
D03*
X8424798D02*
D03*
X8540399Y8007401D02*
D03*
X8810401D02*
D03*
X11712399Y8005401D02*
D03*
X11982401D02*
D03*
X11866800Y4824000D02*
D03*
X11596798D02*
D03*
X11855401Y4525601D02*
D03*
X11585399D02*
D03*
X11982400Y8303800D02*
D03*
X11712400D02*
D03*
X15072398Y7992401D02*
D03*
X15342401D02*
D03*
X15226801Y4811000D02*
D03*
X14956798D02*
D03*
X15215401Y4512601D02*
D03*
X14945399D02*
D03*
X15342400Y8290800D02*
D03*
X15072400D02*
D03*
X18516399Y8009401D02*
D03*
X18786401D02*
D03*
X18670799Y4828000D02*
D03*
X18400798D02*
D03*
X18659401Y4529601D02*
D03*
X18389400D02*
D03*
X18786400Y8307800D02*
D03*
X18516400D02*
D03*
D16*
X3690600Y6324600D02*
D03*
X4132600D02*
D03*
D17*
X22581000Y10405000D02*
D03*
Y9915000D02*
D03*
D18*
X8012000Y2333000D02*
D03*
Y2823000D02*
D03*
D19*
X9767601Y9359801D02*
D03*
Y9499801D02*
D03*
X8940800Y7880200D02*
D03*
Y8020200D02*
D03*
X4909000Y5449000D02*
D03*
Y5589000D02*
D03*
X12112799Y7878200D02*
D03*
Y8018200D02*
D03*
X12939601Y9357801D02*
D03*
Y9497801D02*
D03*
X15472800Y7865200D02*
D03*
Y8005200D02*
D03*
X16299602Y9344801D02*
D03*
Y9484801D02*
D03*
X18916798Y7882200D02*
D03*
Y8022200D02*
D03*
X19743600Y9361801D02*
D03*
Y9501801D02*
D03*
D20*
X9623201Y9309400D02*
D03*
Y9499402D02*
D03*
X9353199Y9309400D02*
D03*
Y9404401D02*
D03*
X12795201Y9307400D02*
D03*
Y9497402D02*
D03*
X12525199Y9307400D02*
D03*
Y9402401D02*
D03*
X16155202Y9294399D02*
D03*
Y9484402D02*
D03*
X15885199Y9294399D02*
D03*
Y9389401D02*
D03*
X19599200Y9311400D02*
D03*
Y9501402D02*
D03*
X19329199Y9311400D02*
D03*
Y9406401D02*
D03*
D21*
X9353199Y9499402D02*
D03*
X12525199Y9497402D02*
D03*
X15885199Y9484402D02*
D03*
X19329199Y9501402D02*
D03*
D22*
X10321802Y8987001D02*
D03*
Y8247001D02*
D03*
X13493800Y8985001D02*
D03*
Y8245001D02*
D03*
X16853801Y8972001D02*
D03*
Y8232001D02*
D03*
X20297801Y8989001D02*
D03*
Y8249001D02*
D03*
D23*
X10428000Y7142602D02*
D03*
Y6992600D02*
D03*
X13600000Y7140602D02*
D03*
Y6990600D02*
D03*
X16960001Y7127602D02*
D03*
Y6977599D02*
D03*
X20403999Y7144602D02*
D03*
Y6994600D02*
D03*
D24*
X10072400Y6158403D02*
D03*
Y6808399D02*
D03*
X13244400Y6156403D02*
D03*
Y6806399D02*
D03*
X16604401Y6143402D02*
D03*
Y6793399D02*
D03*
X20048399Y6160403D02*
D03*
Y6810399D02*
D03*
D25*
X9421602Y5078202D02*
D03*
X9605599D02*
D03*
X12593601Y5076202D02*
D03*
X12777599D02*
D03*
X15953603Y5063201D02*
D03*
X16137599D02*
D03*
X19397601Y5080202D02*
D03*
X19581599D02*
D03*
D26*
X9513600Y4680001D02*
D03*
X12685600Y4678001D02*
D03*
X16045599Y4665001D02*
D03*
X19489600Y4682001D02*
D03*
D27*
X9268201Y8947201D02*
D03*
X9708200D02*
D03*
X12440201Y8945201D02*
D03*
X12880200D02*
D03*
X15800201Y8932201D02*
D03*
X16240199D02*
D03*
X19244202Y8949201D02*
D03*
X19684200D02*
D03*
D28*
X8408401Y4273601D02*
D03*
X8688400D02*
D03*
X11580401Y4271601D02*
D03*
X11860400D02*
D03*
X14940401Y4258601D02*
D03*
X15220399D02*
D03*
X18384399Y4275601D02*
D03*
X18664400D02*
D03*
D29*
X9179403Y5107803D02*
D03*
X8931402D02*
D03*
X8683401D02*
D03*
X8435401D02*
D03*
X8187400D02*
D03*
X9179403Y6743802D02*
D03*
X8931402D02*
D03*
X8683401D02*
D03*
X8435401D02*
D03*
X8187400D02*
D03*
X12351402Y5105803D02*
D03*
X12103402D02*
D03*
X11855401D02*
D03*
X11607401D02*
D03*
X11359400D02*
D03*
X12351402Y6741802D02*
D03*
X12103402D02*
D03*
X11855401D02*
D03*
X11607401D02*
D03*
X11359400D02*
D03*
X15711401Y5092803D02*
D03*
X15463402D02*
D03*
X15215401D02*
D03*
X14967401D02*
D03*
X14719400D02*
D03*
X15711401Y6728801D02*
D03*
X15463402D02*
D03*
X15215401D02*
D03*
X14967401D02*
D03*
X14719400D02*
D03*
X19155402Y5109803D02*
D03*
X18907402D02*
D03*
X18659401D02*
D03*
X18411401D02*
D03*
X18163400D02*
D03*
X19155402Y6745802D02*
D03*
X18907402D02*
D03*
X18659401D02*
D03*
X18411401D02*
D03*
X18163400D02*
D03*
D30*
X10453400Y6466002D02*
D03*
Y6196000D02*
D03*
X13625400Y6464002D02*
D03*
Y6194000D02*
D03*
X16985400Y6451002D02*
D03*
Y6181000D02*
D03*
X20429401Y6468002D02*
D03*
Y6198000D02*
D03*
D31*
X9640600Y6771401D02*
D03*
Y7211400D02*
D03*
X12812601Y6769401D02*
D03*
Y7209400D02*
D03*
X16172600Y6756401D02*
D03*
Y7196400D02*
D03*
X19616600Y6773401D02*
D03*
Y7213400D02*
D03*
D32*
X8865900Y7493051D02*
D03*
X12037900Y7491051D02*
D03*
X15397900Y7478051D02*
D03*
X18841901Y7495051D02*
D03*
D33*
X8675400Y7232701D02*
D03*
X8802400D02*
D03*
X8929400D02*
D03*
X9056400D02*
D03*
X8675400Y7753401D02*
D03*
X8802400D02*
D03*
X8929400D02*
D03*
X9056400D02*
D03*
X11847400Y7230701D02*
D03*
X11974400D02*
D03*
X12101400D02*
D03*
X12228400D02*
D03*
X11847400Y7751401D02*
D03*
X11974400D02*
D03*
X12101400D02*
D03*
X12228400D02*
D03*
X15207401Y7217701D02*
D03*
X15334399D02*
D03*
X15461400D02*
D03*
X15588400D02*
D03*
X15207401Y7738401D02*
D03*
X15334399D02*
D03*
X15461400D02*
D03*
X15588400D02*
D03*
X18651401Y7234701D02*
D03*
X18778400D02*
D03*
X18905400D02*
D03*
X19032401D02*
D03*
X18651401Y7755401D02*
D03*
X18778400D02*
D03*
X18905400D02*
D03*
X19032401D02*
D03*
D34*
X2926000Y6785002D02*
D03*
X2786000D02*
D03*
X5280003Y8752000D02*
D03*
X5420002D02*
D03*
X5427000Y8545000D02*
D03*
X5287000D02*
D03*
X22065448Y7674916D02*
D03*
X22205447D02*
D03*
X22092801Y6127801D02*
D03*
X22232800D02*
D03*
D35*
X21582001Y9604500D02*
D03*
Y10499500D02*
D03*
D36*
X5321318Y8123005D02*
D03*
X5532996D02*
D03*
D37*
X3887400Y8000000D02*
D03*
X3989000D02*
D03*
X4089000D02*
D03*
D38*
X22891399Y5746801D02*
D03*
Y5873801D02*
D03*
Y6000801D02*
D03*
Y6127801D02*
D03*
X22391400Y5746801D02*
D03*
Y5873801D02*
D03*
Y6000801D02*
D03*
X22864047Y7293916D02*
D03*
Y7420916D02*
D03*
Y7547916D02*
D03*
Y7674916D02*
D03*
X22364047Y7293916D02*
D03*
Y7420916D02*
D03*
Y7547916D02*
D03*
D39*
X22391400Y6127801D02*
D03*
X22364047Y7674916D02*
D03*
D40*
X3860800Y5373400D02*
D03*
Y5854700D02*
D03*
X5472000Y5704000D02*
D03*
Y6185300D02*
D03*
D41*
X4462000Y5820000D02*
D03*
X4692000D02*
D03*
X4922000D02*
D03*
D42*
X4692000Y6450000D02*
D03*
D43*
X12147820Y10589260D02*
D03*
Y10335260D02*
D03*
Y10081260D02*
D03*
X13037820Y10589260D02*
D03*
Y10335260D02*
D03*
X19615421Y10619740D02*
D03*
Y10365740D02*
D03*
Y10111740D02*
D03*
X20505420Y10619740D02*
D03*
Y10365740D02*
D03*
D44*
X13037820Y10081260D02*
D03*
X20505420Y10111740D02*
D03*
D45*
X4424000Y9174000D02*
D03*
X4504000D02*
D03*
X4584000D02*
D03*
X4664000D02*
D03*
X4744000D02*
D03*
X4824000D02*
D03*
X4904000D02*
D03*
X4984000D02*
D03*
Y8334000D02*
D03*
X4904000D02*
D03*
X4824000D02*
D03*
X4744000D02*
D03*
X4664000D02*
D03*
X4584000D02*
D03*
X4504000D02*
D03*
X4424000D02*
D03*
D46*
X5124000Y9034000D02*
D03*
Y8954000D02*
D03*
Y8874000D02*
D03*
Y8794000D02*
D03*
Y8714000D02*
D03*
Y8634000D02*
D03*
Y8554000D02*
D03*
Y8474000D02*
D03*
X4284000D02*
D03*
Y8554000D02*
D03*
Y8634000D02*
D03*
Y8714000D02*
D03*
Y8794000D02*
D03*
Y8874000D02*
D03*
Y8954000D02*
D03*
Y9034000D02*
D03*
D47*
X22588000Y2184000D02*
X23016000D01*
X23241000Y3841000D02*
X23749001D01*
X23241000Y3587000D02*
X23749001D01*
Y3079000D02*
Y3333000D01*
X23241000Y3079000D02*
X23749001D01*
X23241000D02*
Y3333000D01*
Y2571000D02*
Y2825000D01*
X23749001Y2571000D02*
Y2825000D01*
X23241000D02*
X23749001D01*
X23241000Y2317000D02*
X23749001D01*
X23241000Y2063000D02*
X23749001D01*
X23241000Y2033000D02*
Y2063000D01*
X22605000Y1846000D02*
X23053999D01*
X23241000Y2033000D01*
X23149001Y2317000D02*
X23241000D01*
X23016000Y2184000D02*
X23149001Y2317000D01*
D48*
X13790999Y5144999D02*
Y5230000D01*
X3377000Y9089460D02*
X3462000Y9174460D01*
X3377000Y9089460D02*
Y9098280D01*
Y8967540D02*
Y9089460D01*
X3389700Y8427720D02*
Y8561000D01*
X3462000Y9174460D02*
Y9734393D01*
X22402800Y6502400D02*
X22555200Y6654800D01*
X22391400Y6491000D02*
X22402800Y6502400D01*
X22391400Y6127801D02*
Y6491000D01*
X22250400Y6121400D02*
X22385001D01*
X22391400Y6127801D01*
X8940800Y8020200D02*
Y8102600D01*
X8966200Y8128000D01*
X21677000Y7672000D02*
X21680000Y7669000D01*
X21914999D01*
X21973698Y7608481D02*
Y7610302D01*
Y7608481D02*
X22034264Y7547916D01*
X22364047D01*
X21683000Y7813000D02*
X21771001D01*
X21681000Y7811000D02*
X21683000Y7813000D01*
X21771001D02*
X21914999Y7669000D01*
X21973698Y7610302D01*
X21674001Y7816000D02*
X21677000Y7813000D01*
X21911084Y7420916D02*
X22364047D01*
X21825999Y7506000D02*
X21911084Y7420916D01*
X21681000Y7506000D02*
X21825999D01*
X21911084Y7417084D02*
Y7420916D01*
X21778999Y7285000D02*
X21911084Y7417084D01*
X3471200Y9736200D02*
Y9919400D01*
X3462000Y9734393D02*
X3473392Y9723000D01*
X2930998Y6632000D02*
X2994000D01*
X3055000Y6571000D01*
X12112799Y8100600D02*
X12138200Y8126000D01*
X12112799Y8018200D02*
Y8100600D01*
X15472800Y8087600D02*
X15498199Y8113000D01*
X15472800Y8005200D02*
Y8087600D01*
X18916798Y8104600D02*
X18942200Y8130000D01*
X18916798Y8022200D02*
Y8104600D01*
D49*
X7442200Y5511800D02*
X13767200D01*
X13789000Y5388000D02*
Y5501000D01*
X13535001Y5651000D02*
X13789000D01*
X7289800Y6070200D02*
X7299000Y6061000D01*
X7289800Y6070200D02*
Y8864600D01*
X7366000Y5588000D02*
X7442200Y5511800D01*
X7086600Y9067800D02*
X7289800Y8864600D01*
X3911600Y2870200D02*
X4038600Y2743200D01*
X2489200Y3556000D02*
X2996000D01*
X2311400Y3378200D02*
X2489200Y3556000D01*
X2311400Y3022600D02*
Y3378200D01*
Y3022600D02*
X2463800Y2870200D01*
X3911600D01*
X10566400Y2743200D02*
X14350999D01*
X2467000Y3708400D02*
X2998400D01*
X10693400Y2895600D02*
X13970000D01*
X10414000Y3022600D02*
X12712000D01*
X7366000Y3200400D02*
X7442200D01*
X6604000Y3962400D02*
X7366000Y3200400D01*
X2467000Y3962400D02*
X6604000D01*
X3097600Y3048000D02*
X7645400D01*
X2467000Y3073400D02*
X2922200D01*
X9258402Y9531400D02*
X9290400Y9499402D01*
X9353199D01*
Y9671401D01*
X2467000Y4597400D02*
X2619400Y4445000D01*
X3326200Y4343400D02*
X3351600Y4318000D01*
X2514600Y9734393D02*
X3311997D01*
X9353199Y9032199D02*
Y9309400D01*
X9623201Y9032199D02*
Y9309400D01*
X3326200Y4343400D02*
X5461000D01*
X2619400Y4445000D02*
X5359400D01*
X2781001Y6632000D02*
Y6775999D01*
X5124000Y8474000D02*
X5188000D01*
X5376000Y8286000D01*
X4424000Y8167000D02*
Y8334000D01*
X4504000Y8168000D02*
Y8334000D01*
X4584000Y8164000D02*
Y8334000D01*
X4664000Y8164000D02*
Y8334000D01*
X5124000Y8714000D02*
X5266000D01*
X5295000Y9448000D02*
X5675200Y9067800D01*
X4966000Y9448000D02*
X5295000D01*
X4904000Y9386000D02*
X4966000Y9448000D01*
X4904000Y9177000D02*
Y9386000D01*
X5675200Y9067800D02*
X7086600D01*
X2590801Y6273800D02*
X3244800D01*
X4857000Y7630289D02*
X4857289D01*
X4154800Y7035800D02*
X4865000Y7746000D01*
X2590801Y7035800D02*
X4154800D01*
X3244800Y6273800D02*
X3912000Y6941000D01*
X4205710Y6979000D02*
X4857000Y7630289D01*
X4205710Y6978710D02*
Y6979000D01*
X4169000Y6942000D02*
X4205710Y6978710D01*
X4169000Y6941000D02*
Y6942000D01*
X3912000Y6941000D02*
X4169000D01*
X4857289Y7630289D02*
X4976000Y7749000D01*
Y8198613D01*
X4903000Y8271612D02*
X4976000Y8198613D01*
X4903000Y8271612D02*
Y8322000D01*
X4901000Y8324000D02*
X4903000Y8322000D01*
X2590801Y7289800D02*
X4269800D01*
X4838500Y7858500D01*
X5124000Y8405000D02*
Y8474000D01*
Y8405000D02*
X5151000Y8378000D01*
X5061400Y8201800D02*
Y8258600D01*
X4985000Y8335000D02*
X5061400Y8258600D01*
X4286000Y8419999D02*
Y8471000D01*
X3913999Y8198000D02*
Y8265999D01*
X4201000Y8553000D01*
X4280000D01*
X4089000Y8000000D02*
Y8175000D01*
X4065000Y8199000D02*
X4065001Y8199000D01*
X4089000Y8175000D01*
X4065001Y8199000D02*
X4286000Y8419999D01*
X3887400Y8000000D02*
Y8164400D01*
X3915000Y8192000D01*
X5249800Y8647800D02*
X5288400D01*
X5243000Y8641000D02*
X5249800Y8647800D01*
X5121000Y8641000D02*
X5243000D01*
X5143800Y8951800D02*
X5285400D01*
X5144400Y9038400D02*
Y9114800D01*
X4983000Y9231400D02*
X5058400Y9306800D01*
X4623000Y8695000D02*
X4770000D01*
X4911000Y8554000D01*
X5123000D01*
X4548000Y8695000D02*
X4623000D01*
X4491000Y8638000D02*
X4548000Y8695000D01*
X4295000Y8638000D02*
X4491000D01*
X4623000Y8695000D02*
Y8715000D01*
X4542000Y8796000D02*
X4623000Y8715000D01*
X4288000Y8796000D02*
X4542000D01*
X2492400Y8029600D02*
Y8178800D01*
Y8029600D02*
X3087000Y7435000D01*
X4196000D01*
X4746000Y7985000D01*
Y8329000D01*
X2355000Y8701800D02*
X2492400Y8839200D01*
X2355000Y7851000D02*
Y8701800D01*
Y7851000D02*
X2838000Y7368000D01*
X4218000D01*
X4824000Y7974000D01*
Y8329000D01*
X12795201Y9030199D02*
Y9307400D01*
X12525199Y9030199D02*
Y9307400D01*
Y9497402D02*
Y9669401D01*
X12462400Y9497402D02*
X12525199D01*
X12430402Y9529400D02*
X12462400Y9497402D01*
X16155202Y9017199D02*
Y9294399D01*
X15885199Y9017199D02*
Y9294399D01*
Y9484402D02*
Y9656400D01*
X15822400Y9484402D02*
X15885199D01*
X15790402Y9516400D02*
X15822400Y9484402D01*
X19599200Y9034199D02*
Y9311400D01*
X19329199Y9034199D02*
Y9311400D01*
Y9501402D02*
Y9673401D01*
X19266399Y9501402D02*
X19329199D01*
X19234401Y9533400D02*
X19266399Y9501402D01*
X5359400Y4445000D02*
X6705400Y5791000D01*
X5461000Y4343400D02*
X6858600Y5741000D01*
X17210001D01*
X17628000Y5323000D01*
X18537000Y4688000D02*
X18816000Y4409000D01*
X6705400Y5791000D02*
X18166000D01*
X18537000Y5420000D01*
Y4688000D02*
Y5420000D01*
D50*
X17134000Y3517000D02*
Y3685000D01*
X16928000Y3891000D02*
X17134000Y3685000D01*
X2494280Y8427720D02*
X3239700D01*
X2489200Y9098280D02*
X3227000D01*
X22707600Y8128000D02*
Y8356600D01*
X22503200Y7923600D02*
X22707600Y8128000D01*
X22378600Y7923600D02*
X22503200D01*
X9623201Y9499402D02*
X9767199D01*
X2514600Y4343400D02*
X3166200D01*
X7636000Y2484000D02*
Y2598000D01*
Y2484000D02*
X7784000Y2336000D01*
X8043000D01*
X12795201Y9497402D02*
X12939198D01*
X16155202Y9484402D02*
X16299199D01*
X19599200Y9501402D02*
X19743199D01*
D51*
X20667979Y10223500D02*
Y10233660D01*
X20556219Y10111740D02*
X20667979Y10223500D01*
X20657820D02*
X20667979Y10233660D01*
X20505420Y10111740D02*
X20556219D01*
X13238480Y10148960D02*
Y10233660D01*
X13170779Y10081260D02*
X13238480Y10148960D01*
X13037820Y10081260D02*
X13170779D01*
X2590801Y6781800D02*
X2778800D01*
X4824000Y9174000D02*
Y9178000D01*
X4742000Y8944200D02*
X4843400Y8842800D01*
X4742000Y8944200D02*
Y9181000D01*
X4825000Y8955000D02*
Y8976000D01*
X4824000Y8975000D02*
Y9174000D01*
X5532996Y8123005D02*
Y8280996D01*
X3989000Y9139000D02*
X4342000Y9492000D01*
X4552000D01*
X4674000Y9370000D01*
Y9179000D02*
Y9370000D01*
X3989000Y8514000D02*
Y9139000D01*
X3444500Y7969500D02*
X3989000Y8514000D01*
X4421000Y9274400D02*
X4505400Y9358800D01*
X4421000Y9224000D02*
Y9274400D01*
X4274400Y9041400D02*
Y9133800D01*
X4274000Y9041000D02*
X4274400Y9041400D01*
D52*
X22402800Y6502400D02*
Y6527800D01*
X22987000Y7823200D02*
X23012399Y7797800D01*
Y7720400D02*
Y7797800D01*
X23114000Y8051800D02*
X23241000Y8178800D01*
X23114000Y7672000D02*
Y8051800D01*
X23012399Y7570400D02*
X23114000Y7672000D01*
X22940315Y7674916D02*
X22987000Y7721600D01*
X22864047Y7674916D02*
X22940315D01*
X22864047Y7547916D02*
X22991116D01*
X22982884Y7420916D02*
X22987000Y7416800D01*
X22864047Y7420916D02*
X22982884D01*
X23119400Y7346000D02*
Y7447368D01*
X23067316Y7293916D02*
X23119400Y7346000D01*
X22864047Y7293916D02*
X23067316D01*
X23241000Y7543800D02*
Y7645400D01*
X23215800Y7518600D02*
X23241000Y7543800D01*
X23190633Y7518600D02*
X23215800D01*
X23119400Y7447368D02*
X23190633Y7518600D01*
X22205447Y7674916D02*
X22364047D01*
X22205447D02*
Y7674916D01*
Y7649774D02*
Y7674916D01*
X23037801Y7137400D02*
X23164799Y7264400D01*
X23190433D01*
X23190633Y7264600D01*
X23291368D01*
X23412968Y7143000D01*
X23749001D01*
X23190433Y7010400D02*
X23190633Y7010600D01*
X23291368D01*
X23412968Y6889000D01*
X23749001D01*
X23026401Y6160800D02*
X23037801Y6172200D01*
X22993401Y6127801D02*
X23026401Y6160800D01*
Y6262400D01*
X22891399Y6127801D02*
X22993401D01*
X22891399Y5873801D02*
X23018800D01*
X23723599Y6375400D02*
X23749001D01*
X22891399Y6000801D02*
X23349001D01*
X23723599Y6375400D01*
X23628401Y5746801D02*
X23749001Y5867400D01*
X22891399Y5746801D02*
X23628401D01*
X23235400Y5613400D02*
X23241000Y5619000D01*
X22682201Y5613400D02*
X23235400D01*
X22580600Y5715000D02*
X22682201Y5613400D01*
X22580600Y5715000D02*
Y5918200D01*
X22021800Y5715000D02*
X22174200Y5867400D01*
X22021800Y5537200D02*
Y5715000D01*
Y5537200D02*
X22194000Y5365000D01*
X23241000D01*
X22364047Y7674916D02*
Y7913048D01*
X21562000Y7507000D02*
X21564000D01*
X21517500Y7127500D02*
X21634599Y7010400D01*
X23190433D01*
X21456000Y7811000D02*
X21561000D01*
X21444000Y7665000D02*
X21557001D01*
X21622600Y7137400D02*
X23037801D01*
X21540500Y7216500D02*
X21617999Y7139000D01*
X21539500Y7216500D02*
X21540500D01*
X21458984Y7506985D02*
X21464000Y7512000D01*
X21467999D01*
X21473000Y7507000D01*
X21562000D01*
X21253000Y7567358D02*
Y7608000D01*
X21456000Y7811000D01*
X21252000Y7393000D02*
X21517500Y7127500D01*
X21252000Y7393000D02*
Y7566358D01*
X21253000Y7567358D01*
X21347000Y7409000D02*
X21539500Y7216500D01*
X21347000Y7409000D02*
Y7568000D01*
X21444000Y7665000D01*
X22402800Y5994400D02*
X22504401D01*
X22580600Y5918200D01*
X22174200Y5867400D02*
X22377400D01*
D53*
X3429000Y6045200D02*
X3708400Y6324600D01*
X2565401Y6045200D02*
X3429000D01*
X2336801Y6273800D02*
X2565401Y6045200D01*
X4692000Y5820000D02*
Y6462000D01*
X3659000Y5952000D02*
X3762000D01*
X3851000Y5863000D01*
X3860800Y5854700D02*
X4110500Y5605000D01*
X4915000D01*
X4919000Y5601000D02*
Y5823000D01*
D54*
X9155603Y6912803D02*
X9234200Y6991401D01*
X8929400Y7753401D02*
Y7835336D01*
X8930599Y6941800D02*
Y7033946D01*
Y7231502D01*
X8959596Y6912803D02*
X9155603D01*
X8930599Y6941800D02*
X8959596Y6912803D01*
X9056400Y7049750D02*
Y7232701D01*
X9080602Y7033946D02*
Y7208500D01*
X8801202Y7033946D02*
Y7231502D01*
X9234200Y6991401D02*
Y7043400D01*
X9056400Y7232701D02*
X9080602Y7208500D01*
X12228400Y7230701D02*
X12252601Y7206500D01*
X12406200Y6989401D02*
Y7041400D01*
X11973201Y7031946D02*
Y7229502D01*
X12252601Y7031946D02*
Y7206500D01*
X12228400Y7047750D02*
Y7230701D01*
X12102599Y6939800D02*
X12131596Y6910803D01*
X12327602D01*
X12102599Y7031946D02*
Y7229502D01*
Y6939800D02*
Y7031946D01*
X12101400Y7751401D02*
Y7833336D01*
X12327602Y6910803D02*
X12406200Y6989401D01*
X15588400Y7217701D02*
X15612601Y7193499D01*
X15766200Y6976401D02*
Y7028399D01*
X15333202Y7018946D02*
Y7216502D01*
X15612601Y7018946D02*
Y7193499D01*
X15588400Y7034749D02*
Y7217701D01*
X15462599Y6926799D02*
X15491595Y6897803D01*
X15687604D01*
X15462599Y7018946D02*
Y7216502D01*
Y6926799D02*
Y7018946D01*
X15461400Y7738401D02*
Y7820336D01*
X15687604Y6897803D02*
X15766200Y6976401D01*
X19032401Y7234701D02*
X19056601Y7210500D01*
X19210201Y6993401D02*
Y7045400D01*
X18777200Y7035946D02*
Y7233502D01*
X19056601Y7035946D02*
Y7210500D01*
X19032401Y7051750D02*
Y7234701D01*
X18906599Y6943800D02*
X18935596Y6914803D01*
X19131602D01*
X18906599Y7035946D02*
Y7233502D01*
Y6943800D02*
Y7035946D01*
X18905400Y7755401D02*
Y7837336D01*
X19131602Y6914803D02*
X19210201Y6993401D01*
D55*
X5124000Y8554000D02*
X5286000D01*
D56*
X3096300Y5794100D02*
D03*
Y5093100D02*
D03*
D57*
X2847300Y5218600D02*
D03*
Y5668600D02*
D03*
X23749001Y9937000D02*
D03*
Y9683000D02*
D03*
Y9429000D02*
D03*
Y9175000D02*
D03*
Y8921000D02*
D03*
Y8667000D02*
D03*
Y8413000D02*
D03*
Y8159000D02*
D03*
Y7905000D02*
D03*
Y7651000D02*
D03*
Y7397000D02*
D03*
Y7143000D02*
D03*
Y6889000D02*
D03*
Y6635000D02*
D03*
Y6381000D02*
D03*
Y6127000D02*
D03*
Y5873000D02*
D03*
Y5619000D02*
D03*
Y5365000D02*
D03*
Y5111000D02*
D03*
Y4857000D02*
D03*
Y4603000D02*
D03*
Y4349000D02*
D03*
Y4095000D02*
D03*
Y3841000D02*
D03*
Y3587000D02*
D03*
Y3333000D02*
D03*
Y3079000D02*
D03*
Y2825000D02*
D03*
Y2571000D02*
D03*
Y2317000D02*
D03*
Y2063000D02*
D03*
X23241000Y9937000D02*
D03*
Y9683000D02*
D03*
Y9429000D02*
D03*
Y9175000D02*
D03*
Y8921000D02*
D03*
Y8667000D02*
D03*
Y8413000D02*
D03*
Y8159000D02*
D03*
Y7905000D02*
D03*
Y7651000D02*
D03*
Y7397000D02*
D03*
Y7143000D02*
D03*
Y6889000D02*
D03*
Y6635000D02*
D03*
Y6381000D02*
D03*
Y6127000D02*
D03*
Y5873000D02*
D03*
Y5619000D02*
D03*
Y5365000D02*
D03*
Y5111000D02*
D03*
Y4857000D02*
D03*
Y4603000D02*
D03*
Y4349000D02*
D03*
Y4095000D02*
D03*
Y3841000D02*
D03*
Y3587000D02*
D03*
Y3333000D02*
D03*
Y3079000D02*
D03*
Y2825000D02*
D03*
Y2571000D02*
D03*
Y2317000D02*
D03*
Y2063000D02*
D03*
D58*
X2492400Y9474200D02*
D03*
Y9728200D02*
D03*
Y8432800D02*
D03*
Y8178800D02*
D03*
Y9093200D02*
D03*
Y8839200D02*
D03*
Y4597400D02*
D03*
Y4343400D02*
D03*
Y3962400D02*
D03*
Y3708400D02*
D03*
Y3327400D02*
D03*
Y3073400D02*
D03*
Y2692400D02*
D03*
Y2438400D02*
D03*
D59*
X2336801Y7289800D02*
D03*
X2590801D02*
D03*
Y7035800D02*
D03*
X2336801D02*
D03*
Y6781800D02*
D03*
X2590801D02*
D03*
X2336801Y6527800D02*
D03*
X2590801D02*
D03*
X2336801Y6273800D02*
D03*
X2590801D02*
D03*
D60*
X24003000Y10445000D02*
D03*
Y1555000D02*
D03*
D61*
X7924800Y8864600D02*
D03*
Y9144000D02*
D03*
D62*
X2557000Y10444400D02*
D03*
Y1554900D02*
D03*
D63*
X11222000Y5624000D02*
D03*
X11684000Y5620000D02*
D03*
X13789999Y5134000D02*
D03*
X14622000Y5573000D02*
D03*
X15077000Y5569000D02*
D03*
X12728000Y3037000D02*
D03*
X13528000Y5626000D02*
D03*
X21255000Y7515000D02*
D03*
D64*
X8331200Y10566400D02*
D03*
Y10464800D02*
D03*
Y10363200D02*
D03*
X8432800D02*
D03*
Y10464800D02*
D03*
Y10566400D02*
D03*
X13690601Y10236200D02*
D03*
Y10337800D02*
D03*
Y10439400D02*
D03*
X13589000Y10337800D02*
D03*
Y10439400D02*
D03*
Y10236200D02*
D03*
X22199600Y5638800D02*
D03*
X22301199D02*
D03*
X22402800D02*
D03*
X21361400Y5461000D02*
D03*
X21259801Y5638800D02*
D03*
Y5537200D02*
D03*
Y5410200D02*
D03*
X21158200D02*
D03*
Y5537200D02*
D03*
Y5638800D02*
D03*
X21056599Y5410200D02*
D03*
Y5537200D02*
D03*
Y5638800D02*
D03*
X9321800Y6832600D02*
D03*
X9398000Y6934200D02*
D03*
X9474200Y7035800D02*
D03*
Y7162800D02*
D03*
X9372600Y7264400D02*
D03*
Y7112000D02*
D03*
X8051800Y3429000D02*
D03*
Y3556000D02*
D03*
Y3683000D02*
D03*
Y3810000D02*
D03*
Y3937000D02*
D03*
Y4064000D02*
D03*
X8178800D02*
D03*
Y3937000D02*
D03*
Y3810000D02*
D03*
Y3683000D02*
D03*
Y3556000D02*
D03*
Y3429000D02*
D03*
X8305800Y4064000D02*
D03*
Y3937000D02*
D03*
Y3810000D02*
D03*
Y3683000D02*
D03*
Y3556000D02*
D03*
Y3429000D02*
D03*
X8178800Y4191000D02*
D03*
Y4318000D02*
D03*
Y4445000D02*
D03*
Y4572000D02*
D03*
Y4699000D02*
D03*
Y4826000D02*
D03*
Y4953000D02*
D03*
X8051800Y4191000D02*
D03*
Y4318000D02*
D03*
Y4445000D02*
D03*
Y4572000D02*
D03*
Y4699000D02*
D03*
Y4826000D02*
D03*
Y4953000D02*
D03*
X7924800Y3429000D02*
D03*
Y3556000D02*
D03*
Y3683000D02*
D03*
Y3810000D02*
D03*
Y3937000D02*
D03*
Y4064000D02*
D03*
Y4191000D02*
D03*
X7797800Y3429000D02*
D03*
Y3556000D02*
D03*
Y3683000D02*
D03*
Y3810000D02*
D03*
Y3937000D02*
D03*
Y4064000D02*
D03*
Y4191000D02*
D03*
X7670800D02*
D03*
Y4064000D02*
D03*
Y3937000D02*
D03*
Y3810000D02*
D03*
Y3683000D02*
D03*
Y3556000D02*
D03*
Y3429000D02*
D03*
X7924800Y5334000D02*
D03*
Y5207000D02*
D03*
Y5080000D02*
D03*
Y4953000D02*
D03*
Y4826000D02*
D03*
Y4699000D02*
D03*
Y4572000D02*
D03*
Y4445000D02*
D03*
Y4318000D02*
D03*
X7797800Y5334000D02*
D03*
Y5207000D02*
D03*
Y5080000D02*
D03*
Y4953000D02*
D03*
Y4826000D02*
D03*
Y4699000D02*
D03*
Y4572000D02*
D03*
Y4445000D02*
D03*
Y4318000D02*
D03*
X7670800D02*
D03*
Y4445000D02*
D03*
Y4572000D02*
D03*
Y4699000D02*
D03*
Y4826000D02*
D03*
Y4953000D02*
D03*
Y5080000D02*
D03*
Y5207000D02*
D03*
Y5334000D02*
D03*
X9525000Y8534400D02*
D03*
Y8280400D02*
D03*
Y8153400D02*
D03*
Y8407400D02*
D03*
X10541000Y7264400D02*
D03*
X10414000D02*
D03*
X10287000D02*
D03*
X10160000D02*
D03*
X10033000D02*
D03*
X9906000D02*
D03*
Y7391400D02*
D03*
X10033000D02*
D03*
X10160000D02*
D03*
X10287000D02*
D03*
X10414000D02*
D03*
X10541000D02*
D03*
X9398000Y8534400D02*
D03*
X9906000Y7645400D02*
D03*
X10033000D02*
D03*
X10160000D02*
D03*
X10287000D02*
D03*
X10414000D02*
D03*
X10541000D02*
D03*
Y7518400D02*
D03*
X10414000D02*
D03*
X10287000D02*
D03*
X10160000D02*
D03*
X10033000D02*
D03*
X9906000D02*
D03*
X9779000D02*
D03*
Y7645400D02*
D03*
X9804400Y7772400D02*
D03*
X9906000D02*
D03*
X10033000D02*
D03*
X10160000D02*
D03*
X10287000D02*
D03*
X10414000D02*
D03*
X10541000D02*
D03*
X10414000Y7899400D02*
D03*
X10289540Y7896860D02*
D03*
X10160000Y7899400D02*
D03*
X10033000D02*
D03*
X9906000D02*
D03*
X9779000D02*
D03*
X9652000Y7518400D02*
D03*
Y7645400D02*
D03*
Y7772400D02*
D03*
Y7899400D02*
D03*
X10541000D02*
D03*
Y8026400D02*
D03*
X10414000D02*
D03*
X10287000D02*
D03*
X10160000D02*
D03*
X10033000D02*
D03*
X9906000D02*
D03*
X9779000D02*
D03*
X9906000Y8153400D02*
D03*
X9779000D02*
D03*
X9652000D02*
D03*
X9906000Y8280400D02*
D03*
X9779000D02*
D03*
X9652000D02*
D03*
Y8407400D02*
D03*
X9779000D02*
D03*
X9906000D02*
D03*
X9652000Y8534400D02*
D03*
X9779000D02*
D03*
X9906000D02*
D03*
X10464800Y6096000D02*
D03*
X10287000Y6197600D02*
D03*
X8559800Y7213600D02*
D03*
Y7112000D02*
D03*
Y7010400D02*
D03*
Y6908800D02*
D03*
Y6604000D02*
D03*
X8610600Y6502400D02*
D03*
Y6400800D02*
D03*
Y6299200D02*
D03*
X8712200D02*
D03*
Y6400800D02*
D03*
X8813800Y6299200D02*
D03*
X8610600Y6197600D02*
D03*
Y6096000D02*
D03*
X8712200D02*
D03*
Y6197600D02*
D03*
X8813800D02*
D03*
Y6096000D02*
D03*
X8915400Y6197600D02*
D03*
Y6096000D02*
D03*
X9017000D02*
D03*
Y6197600D02*
D03*
X9118600D02*
D03*
Y6096000D02*
D03*
X9220200D02*
D03*
Y6197600D02*
D03*
X9321800D02*
D03*
Y6096000D02*
D03*
X9423400D02*
D03*
Y6197600D02*
D03*
X9525000D02*
D03*
Y6096000D02*
D03*
X9626600Y6197600D02*
D03*
Y6096000D02*
D03*
X9728200D02*
D03*
Y6197600D02*
D03*
X9829800D02*
D03*
Y6096000D02*
D03*
X10337800D02*
D03*
X10566400D02*
D03*
X9271000Y8534400D02*
D03*
X9144000D02*
D03*
X9017000D02*
D03*
X8890000D02*
D03*
X9398000Y8407400D02*
D03*
X9271000D02*
D03*
X9144000D02*
D03*
X9017000D02*
D03*
X9398000Y8280400D02*
D03*
Y8153400D02*
D03*
X9271000Y8280400D02*
D03*
X9144000D02*
D03*
X9017000D02*
D03*
X9271000Y8153400D02*
D03*
X21467999Y7512000D02*
D03*
X12443000Y8151400D02*
D03*
X12189000Y8278400D02*
D03*
X12316000D02*
D03*
X12443000D02*
D03*
X12570000Y8151400D02*
D03*
Y8278400D02*
D03*
X12189000Y8405400D02*
D03*
X12316000D02*
D03*
X12443000D02*
D03*
X12570000D02*
D03*
X12062000Y8532400D02*
D03*
X12189000D02*
D03*
X12316000D02*
D03*
X12443000D02*
D03*
X13738400Y6094000D02*
D03*
X13509801D02*
D03*
X11731800Y6906800D02*
D03*
Y7008400D02*
D03*
Y7110000D02*
D03*
Y7211600D02*
D03*
X13459000Y6195600D02*
D03*
X13636800Y6094000D02*
D03*
X13078000Y8532400D02*
D03*
X12950999D02*
D03*
X12824001D02*
D03*
X13078000Y8405400D02*
D03*
X12950999D02*
D03*
X12824001D02*
D03*
Y8278400D02*
D03*
X12950999D02*
D03*
X13078000D02*
D03*
X12824001Y8151400D02*
D03*
X12950999D02*
D03*
X13078000D02*
D03*
X12950999Y8024400D02*
D03*
X13078000D02*
D03*
X13205000D02*
D03*
X13332001D02*
D03*
X13459000D02*
D03*
X13586000D02*
D03*
X13713000D02*
D03*
Y7897400D02*
D03*
X12824001D02*
D03*
Y7770400D02*
D03*
Y7643400D02*
D03*
Y7516400D02*
D03*
X12950999Y7897400D02*
D03*
X13078000D02*
D03*
X13205000D02*
D03*
X13332001D02*
D03*
X13461540Y7894860D02*
D03*
X13586000Y7897400D02*
D03*
X13713000Y7770400D02*
D03*
X13586000D02*
D03*
X13459000D02*
D03*
X13332001D02*
D03*
X13205000D02*
D03*
X13078000D02*
D03*
X12976401D02*
D03*
X12950999Y7643400D02*
D03*
Y7516400D02*
D03*
X13078000D02*
D03*
X13205000D02*
D03*
X13332001D02*
D03*
X13459000D02*
D03*
X13586000D02*
D03*
X13713000D02*
D03*
Y7643400D02*
D03*
X13586000D02*
D03*
X13459000D02*
D03*
X13332001D02*
D03*
X13205000D02*
D03*
X13078000D02*
D03*
X12570000Y8532400D02*
D03*
X13713000Y7389400D02*
D03*
X13586000D02*
D03*
X13459000D02*
D03*
X13332001D02*
D03*
X13205000D02*
D03*
X13078000D02*
D03*
Y7262400D02*
D03*
X13205000D02*
D03*
X13332001D02*
D03*
X13459000D02*
D03*
X13586000D02*
D03*
X13713000D02*
D03*
X12697000Y8405400D02*
D03*
Y8151400D02*
D03*
Y8278400D02*
D03*
Y8532400D02*
D03*
X12544600Y7110000D02*
D03*
Y7262400D02*
D03*
X12646200Y7160800D02*
D03*
Y7033800D02*
D03*
X12570000Y6932200D02*
D03*
X12493800Y6830600D02*
D03*
X15803000Y8138400D02*
D03*
X15549001Y8265400D02*
D03*
X15675999D02*
D03*
X15803000D02*
D03*
X15930000Y8138400D02*
D03*
Y8265400D02*
D03*
X15549001Y8392400D02*
D03*
X15675999D02*
D03*
X15803000D02*
D03*
X15930000D02*
D03*
X15422000Y8519400D02*
D03*
X15549001D02*
D03*
X15675999D02*
D03*
X15803000D02*
D03*
X17098399Y6081000D02*
D03*
X16869800D02*
D03*
X16361800D02*
D03*
Y6182600D02*
D03*
X16260201D02*
D03*
Y6081000D02*
D03*
X16158600D02*
D03*
Y6182600D02*
D03*
X16057001Y6081000D02*
D03*
Y6182600D02*
D03*
X15955400D02*
D03*
Y6081000D02*
D03*
X15853799D02*
D03*
Y6182600D02*
D03*
X15752200D02*
D03*
Y6081000D02*
D03*
X15650600D02*
D03*
Y6182600D02*
D03*
X15549001D02*
D03*
Y6081000D02*
D03*
X15447400D02*
D03*
Y6182600D02*
D03*
X15345799Y6081000D02*
D03*
Y6182600D02*
D03*
X15244200D02*
D03*
Y6081000D02*
D03*
X15142599D02*
D03*
Y6182600D02*
D03*
X15345799Y6284200D02*
D03*
X15244200Y6385800D02*
D03*
Y6284200D02*
D03*
X15142599D02*
D03*
Y6385800D02*
D03*
Y6487400D02*
D03*
X15091800Y6589000D02*
D03*
Y6893800D02*
D03*
Y6995400D02*
D03*
Y7097000D02*
D03*
Y7198600D02*
D03*
X16819000Y6182600D02*
D03*
X16996800Y6081000D02*
D03*
X16438000Y8519400D02*
D03*
X16311000D02*
D03*
X16184000D02*
D03*
X16438000Y8392400D02*
D03*
X16311000D02*
D03*
X16184000D02*
D03*
Y8265400D02*
D03*
X16311000D02*
D03*
X16438000D02*
D03*
X16184000Y8138400D02*
D03*
X16311000D02*
D03*
X16438000D02*
D03*
X16311000Y8011400D02*
D03*
X16438000D02*
D03*
X16564999D02*
D03*
X16692000D02*
D03*
X16819000D02*
D03*
X16946001D02*
D03*
X17073000D02*
D03*
Y7884400D02*
D03*
X16184000D02*
D03*
Y7757400D02*
D03*
Y7630400D02*
D03*
Y7503400D02*
D03*
X16311000Y7884400D02*
D03*
X16438000D02*
D03*
X16564999D02*
D03*
X16692000D02*
D03*
X16821539Y7881860D02*
D03*
X16946001Y7884400D02*
D03*
X17073000Y7757400D02*
D03*
X16946001D02*
D03*
X16819000D02*
D03*
X16692000D02*
D03*
X16564999D02*
D03*
X16438000D02*
D03*
X16336400D02*
D03*
X16311000Y7630400D02*
D03*
Y7503400D02*
D03*
X16438000D02*
D03*
X16564999D02*
D03*
X16692000D02*
D03*
X16819000D02*
D03*
X16946001D02*
D03*
X17073000D02*
D03*
Y7630400D02*
D03*
X16946001D02*
D03*
X16819000D02*
D03*
X16692000D02*
D03*
X16564999D02*
D03*
X16438000D02*
D03*
X15930000Y8519400D02*
D03*
X17073000Y7376400D02*
D03*
X16946001D02*
D03*
X16819000D02*
D03*
X16692000D02*
D03*
X16564999D02*
D03*
X16438000D02*
D03*
Y7249400D02*
D03*
X16564999D02*
D03*
X16692000D02*
D03*
X16819000D02*
D03*
X16946001D02*
D03*
X17073000D02*
D03*
X16057001Y8392400D02*
D03*
Y8138400D02*
D03*
Y8265400D02*
D03*
Y8519400D02*
D03*
X15904601Y7097000D02*
D03*
Y7249400D02*
D03*
X16006200Y7147800D02*
D03*
Y7020800D02*
D03*
X15930000Y6919200D02*
D03*
X15853799Y6817600D02*
D03*
X19247000Y8155400D02*
D03*
X18992999Y8282400D02*
D03*
X19120000D02*
D03*
X19247000D02*
D03*
X19374001Y8155400D02*
D03*
Y8282400D02*
D03*
X18992999Y8409400D02*
D03*
X19120000D02*
D03*
X19247000D02*
D03*
X19374001D02*
D03*
X18866000Y8536400D02*
D03*
X18992999D02*
D03*
X19120000D02*
D03*
X19247000D02*
D03*
X20542400Y6098000D02*
D03*
X20313800D02*
D03*
X19805800D02*
D03*
Y6199600D02*
D03*
X19704201D02*
D03*
Y6098000D02*
D03*
X19602600D02*
D03*
Y6199600D02*
D03*
X19500999Y6098000D02*
D03*
Y6199600D02*
D03*
X19399400D02*
D03*
Y6098000D02*
D03*
X19297800D02*
D03*
Y6199600D02*
D03*
X19196201D02*
D03*
Y6098000D02*
D03*
X19094600D02*
D03*
Y6199600D02*
D03*
X18992999D02*
D03*
Y6098000D02*
D03*
X18891400D02*
D03*
Y6199600D02*
D03*
X18789799Y6098000D02*
D03*
Y6199600D02*
D03*
X18688200D02*
D03*
Y6098000D02*
D03*
X18586600D02*
D03*
Y6199600D02*
D03*
X18789799Y6301200D02*
D03*
X18688200Y6402800D02*
D03*
Y6301200D02*
D03*
X18586600D02*
D03*
Y6402800D02*
D03*
Y6504400D02*
D03*
X18535800Y6606000D02*
D03*
Y6910800D02*
D03*
Y7012400D02*
D03*
Y7114000D02*
D03*
Y7215600D02*
D03*
X20263000Y6199600D02*
D03*
X20440800Y6098000D02*
D03*
X19882001Y8536400D02*
D03*
X19755000D02*
D03*
X19628000D02*
D03*
X19882001Y8409400D02*
D03*
X19755000D02*
D03*
X19628000D02*
D03*
Y8282400D02*
D03*
X19755000D02*
D03*
X19882001D02*
D03*
X19628000Y8155400D02*
D03*
X19755000D02*
D03*
X19882001D02*
D03*
X19755000Y8028400D02*
D03*
X19882001D02*
D03*
X20009000D02*
D03*
X20136000D02*
D03*
X20263000D02*
D03*
X20389999D02*
D03*
X20517000D02*
D03*
Y7901400D02*
D03*
X19628000D02*
D03*
Y7774400D02*
D03*
Y7647400D02*
D03*
Y7520400D02*
D03*
X19755000Y7901400D02*
D03*
X19882001D02*
D03*
X20009000D02*
D03*
X20136000D02*
D03*
X20265540Y7898860D02*
D03*
X20389999Y7901400D02*
D03*
X20517000Y7774400D02*
D03*
X20389999D02*
D03*
X20263000D02*
D03*
X20136000D02*
D03*
X20009000D02*
D03*
X19882001D02*
D03*
X19780400D02*
D03*
X19755000Y7647400D02*
D03*
Y7520400D02*
D03*
X19882001D02*
D03*
X20009000D02*
D03*
X20136000D02*
D03*
X20263000D02*
D03*
X20389999D02*
D03*
X20517000D02*
D03*
Y7647400D02*
D03*
X20389999D02*
D03*
X20263000D02*
D03*
X20136000D02*
D03*
X20009000D02*
D03*
X19882001D02*
D03*
X19374001Y8536400D02*
D03*
X20517000Y7393400D02*
D03*
X20389999D02*
D03*
X20263000D02*
D03*
X20136000D02*
D03*
X20009000D02*
D03*
X19882001D02*
D03*
Y7266400D02*
D03*
X20009000D02*
D03*
X20136000D02*
D03*
X20263000D02*
D03*
X20389999D02*
D03*
X20517000D02*
D03*
X19500999Y8409400D02*
D03*
Y8155400D02*
D03*
Y8282400D02*
D03*
Y8536400D02*
D03*
X19348599Y7114000D02*
D03*
Y7266400D02*
D03*
X19450200Y7164800D02*
D03*
Y7037800D02*
D03*
X19374001Y6936200D02*
D03*
X19297800Y6834600D02*
D03*
X12995799Y6093000D02*
D03*
Y6194600D02*
D03*
X12894200D02*
D03*
Y6093000D02*
D03*
X12792600D02*
D03*
Y6194600D02*
D03*
X12691000Y6093000D02*
D03*
Y6194600D02*
D03*
X12589400D02*
D03*
Y6093000D02*
D03*
X12487800D02*
D03*
Y6194600D02*
D03*
X12386200D02*
D03*
Y6093000D02*
D03*
X12284600D02*
D03*
Y6194600D02*
D03*
X12183000D02*
D03*
Y6093000D02*
D03*
X12081400D02*
D03*
Y6194600D02*
D03*
X11979800Y6093000D02*
D03*
Y6194600D02*
D03*
X11878200D02*
D03*
Y6093000D02*
D03*
X11776600D02*
D03*
Y6194600D02*
D03*
X11979800Y6296200D02*
D03*
X11878200Y6397800D02*
D03*
Y6296200D02*
D03*
X11776600D02*
D03*
Y6397800D02*
D03*
Y6499400D02*
D03*
X11725800Y6601000D02*
D03*
X10835800Y5334000D02*
D03*
Y5207000D02*
D03*
Y5080000D02*
D03*
Y4953000D02*
D03*
Y4826000D02*
D03*
Y4699000D02*
D03*
Y4572000D02*
D03*
Y4445000D02*
D03*
Y4318000D02*
D03*
X10962800D02*
D03*
Y4445000D02*
D03*
Y4572000D02*
D03*
Y4699000D02*
D03*
Y4826000D02*
D03*
Y4953000D02*
D03*
Y5080000D02*
D03*
Y5207000D02*
D03*
Y5334000D02*
D03*
X11089800Y4318000D02*
D03*
Y4445000D02*
D03*
Y4572000D02*
D03*
Y4699000D02*
D03*
Y4826000D02*
D03*
Y4953000D02*
D03*
Y5080000D02*
D03*
Y5207000D02*
D03*
Y5334000D02*
D03*
X10835800Y3429000D02*
D03*
Y3556000D02*
D03*
Y3683000D02*
D03*
Y3810000D02*
D03*
Y3937000D02*
D03*
Y4064000D02*
D03*
Y4191000D02*
D03*
X10962800D02*
D03*
Y4064000D02*
D03*
Y3937000D02*
D03*
Y3810000D02*
D03*
Y3683000D02*
D03*
Y3556000D02*
D03*
Y3429000D02*
D03*
X11089800Y4191000D02*
D03*
Y4064000D02*
D03*
Y3937000D02*
D03*
Y3810000D02*
D03*
Y3683000D02*
D03*
Y3556000D02*
D03*
Y3429000D02*
D03*
X11216800Y4953000D02*
D03*
Y4826000D02*
D03*
Y4699000D02*
D03*
Y4572000D02*
D03*
Y4445000D02*
D03*
Y4318000D02*
D03*
Y4191000D02*
D03*
X11343800Y4953000D02*
D03*
Y4826000D02*
D03*
Y4699000D02*
D03*
Y4572000D02*
D03*
Y4445000D02*
D03*
Y4318000D02*
D03*
Y4191000D02*
D03*
X11470800Y3429000D02*
D03*
Y3556000D02*
D03*
Y3683000D02*
D03*
Y3810000D02*
D03*
Y3937000D02*
D03*
Y4064000D02*
D03*
X11343800Y3429000D02*
D03*
Y3556000D02*
D03*
Y3683000D02*
D03*
Y3810000D02*
D03*
Y3937000D02*
D03*
Y4064000D02*
D03*
X11216800D02*
D03*
Y3937000D02*
D03*
Y3810000D02*
D03*
Y3683000D02*
D03*
Y3556000D02*
D03*
Y3429000D02*
D03*
X14197800Y5314000D02*
D03*
Y5187000D02*
D03*
Y5060000D02*
D03*
Y4933000D02*
D03*
Y4806000D02*
D03*
Y4679000D02*
D03*
Y4552000D02*
D03*
Y4425000D02*
D03*
Y4298000D02*
D03*
X14324800D02*
D03*
Y4425000D02*
D03*
Y4552000D02*
D03*
Y4679000D02*
D03*
Y4806000D02*
D03*
Y4933000D02*
D03*
Y5060000D02*
D03*
Y5187000D02*
D03*
Y5314000D02*
D03*
X14451801Y4298000D02*
D03*
Y4425000D02*
D03*
Y4552000D02*
D03*
Y4679000D02*
D03*
Y4806000D02*
D03*
Y4933000D02*
D03*
Y5060000D02*
D03*
Y5187000D02*
D03*
Y5314000D02*
D03*
X14197800Y3409000D02*
D03*
Y3536000D02*
D03*
Y3663000D02*
D03*
Y3790000D02*
D03*
Y3917000D02*
D03*
Y4044000D02*
D03*
Y4171000D02*
D03*
X14324800D02*
D03*
Y4044000D02*
D03*
Y3917000D02*
D03*
Y3790000D02*
D03*
Y3663000D02*
D03*
Y3536000D02*
D03*
Y3409000D02*
D03*
X14451801Y4171000D02*
D03*
Y4044000D02*
D03*
Y3917000D02*
D03*
Y3790000D02*
D03*
Y3663000D02*
D03*
Y3536000D02*
D03*
Y3409000D02*
D03*
X14578799Y4933000D02*
D03*
Y4806000D02*
D03*
Y4679000D02*
D03*
Y4552000D02*
D03*
Y4425000D02*
D03*
Y4298000D02*
D03*
Y4171000D02*
D03*
X14705800Y4933000D02*
D03*
Y4806000D02*
D03*
Y4679000D02*
D03*
Y4552000D02*
D03*
Y4425000D02*
D03*
Y4298000D02*
D03*
Y4171000D02*
D03*
X14832800Y3409000D02*
D03*
Y3536000D02*
D03*
Y3663000D02*
D03*
Y3790000D02*
D03*
Y3917000D02*
D03*
Y4044000D02*
D03*
X14705800Y3409000D02*
D03*
Y3536000D02*
D03*
Y3663000D02*
D03*
Y3790000D02*
D03*
Y3917000D02*
D03*
Y4044000D02*
D03*
X14578799D02*
D03*
Y3917000D02*
D03*
Y3790000D02*
D03*
Y3663000D02*
D03*
Y3536000D02*
D03*
Y3409000D02*
D03*
X17637801Y5334000D02*
D03*
Y5207000D02*
D03*
Y5080000D02*
D03*
Y4953000D02*
D03*
Y4826000D02*
D03*
Y4699000D02*
D03*
Y4572000D02*
D03*
Y4445000D02*
D03*
Y4318000D02*
D03*
X17764799D02*
D03*
Y4445000D02*
D03*
Y4572000D02*
D03*
Y4699000D02*
D03*
Y4826000D02*
D03*
Y4953000D02*
D03*
Y5080000D02*
D03*
Y5207000D02*
D03*
Y5334000D02*
D03*
X17891800Y4318000D02*
D03*
Y4445000D02*
D03*
Y4572000D02*
D03*
Y4699000D02*
D03*
Y4826000D02*
D03*
Y4953000D02*
D03*
Y5080000D02*
D03*
Y5207000D02*
D03*
Y5334000D02*
D03*
X17637801Y4064000D02*
D03*
Y4191000D02*
D03*
X17764799D02*
D03*
Y4064000D02*
D03*
X17891800Y4191000D02*
D03*
Y4064000D02*
D03*
X18018800Y4953000D02*
D03*
Y4826000D02*
D03*
Y4699000D02*
D03*
Y4572000D02*
D03*
Y4445000D02*
D03*
Y4318000D02*
D03*
Y4191000D02*
D03*
X18145799Y4953000D02*
D03*
Y4826000D02*
D03*
Y4699000D02*
D03*
Y4572000D02*
D03*
Y4445000D02*
D03*
Y4318000D02*
D03*
Y4191000D02*
D03*
X18272800Y4064000D02*
D03*
X18145799D02*
D03*
X18018800D02*
D03*
D65*
X20667979Y10233660D02*
D03*
X13238480D02*
D03*
X3377000Y8967540D02*
D03*
X3389700Y8561000D02*
D03*
X22734200Y8383200D02*
D03*
X22378600Y7923600D02*
D03*
X22708800Y8177600D02*
D03*
X22555200Y6654800D02*
D03*
X22987000Y7823200D02*
D03*
Y7416800D02*
D03*
X23026401Y6262400D02*
D03*
X23018800Y5873801D02*
D03*
X10134600Y3505200D02*
D03*
Y3657600D02*
D03*
X9982200D02*
D03*
Y3505200D02*
D03*
X9829800Y3657600D02*
D03*
Y3505200D02*
D03*
Y3352800D02*
D03*
X9982200D02*
D03*
X10134600D02*
D03*
X9677400Y3505200D02*
D03*
X9321800Y3657600D02*
D03*
X9499600Y3352800D02*
D03*
X9677400D02*
D03*
X9144000Y3505200D02*
D03*
Y3657600D02*
D03*
X8991600D02*
D03*
Y3505200D02*
D03*
X8839200Y3657600D02*
D03*
Y3505200D02*
D03*
Y3352800D02*
D03*
X8991600D02*
D03*
X9144000D02*
D03*
X9677400Y3657600D02*
D03*
X9321800Y3505200D02*
D03*
Y3352800D02*
D03*
X9499600Y3505200D02*
D03*
Y3657600D02*
D03*
Y4114800D02*
D03*
Y3962400D02*
D03*
X9321800Y3810000D02*
D03*
Y3962400D02*
D03*
X9677400Y4267200D02*
D03*
Y4114800D02*
D03*
X9144000Y3810000D02*
D03*
X8991600D02*
D03*
X8839200D02*
D03*
Y3962400D02*
D03*
Y4114800D02*
D03*
X8991600Y3962400D02*
D03*
Y4114800D02*
D03*
X9144000D02*
D03*
Y3962400D02*
D03*
X9677400Y3810000D02*
D03*
X9499600D02*
D03*
X9321800Y4114800D02*
D03*
X9677400Y3962400D02*
D03*
X10134600Y3810000D02*
D03*
X9982200D02*
D03*
X9829800D02*
D03*
Y3962400D02*
D03*
Y4114800D02*
D03*
X9982200Y3962400D02*
D03*
Y4114800D02*
D03*
X10134600D02*
D03*
Y3962400D02*
D03*
Y4724400D02*
D03*
X9982200D02*
D03*
X9829800D02*
D03*
Y4876800D02*
D03*
X9982200D02*
D03*
X10134600D02*
D03*
X4038600Y2743200D02*
D03*
X10566400D02*
D03*
X13970000Y2895600D02*
D03*
X10693400D02*
D03*
X7442200Y3200400D02*
D03*
X10414000Y3022600D02*
D03*
X8991600Y4775200D02*
D03*
X9144000D02*
D03*
X8991600Y4267200D02*
D03*
X8839200Y4419600D02*
D03*
X8991600D02*
D03*
X9144000D02*
D03*
Y4267200D02*
D03*
X9321800D02*
D03*
X9499600D02*
D03*
X10134600Y4419600D02*
D03*
Y4572000D02*
D03*
X9982200D02*
D03*
Y4419600D02*
D03*
X9829800Y4572000D02*
D03*
Y4419600D02*
D03*
Y4267200D02*
D03*
X9982200D02*
D03*
X10134600D02*
D03*
X10541000Y9634220D02*
D03*
X8269000Y7753401D02*
D03*
X7366000Y5588000D02*
D03*
X7289800Y6045200D02*
D03*
X8966200Y8128000D02*
D03*
X5026000Y6525000D02*
D03*
X3659000Y5952000D02*
D03*
X3471200Y9919400D02*
D03*
X4355000Y6565000D02*
D03*
X3055000Y6569000D02*
D03*
X5283000Y6512000D02*
D03*
X4623000Y8695000D02*
D03*
X4181000Y6566000D02*
D03*
X4188000Y6049000D02*
D03*
X4511000Y6135000D02*
D03*
X4862000Y6143000D02*
D03*
X5147000Y6282000D02*
D03*
X4357000Y6401000D02*
D03*
X12138200Y8126000D02*
D03*
X11441000Y7751401D02*
D03*
X15498199Y8113000D02*
D03*
X14800999Y7738401D02*
D03*
X17073000Y9619220D02*
D03*
X18942200Y8130000D02*
D03*
X18245000Y7755401D02*
D03*
X20517000Y9636220D02*
D03*
X13299600Y4267200D02*
D03*
X13147200D02*
D03*
X12994800D02*
D03*
Y4419600D02*
D03*
Y4572000D02*
D03*
X13147200Y4419600D02*
D03*
Y4572000D02*
D03*
X13299600D02*
D03*
Y4419600D02*
D03*
X12664600Y4267200D02*
D03*
X12486800D02*
D03*
X12309000D02*
D03*
Y4419600D02*
D03*
X12156600D02*
D03*
X12004200D02*
D03*
X12156600Y4267200D02*
D03*
X12309000Y4775200D02*
D03*
X12156600D02*
D03*
X13299600Y4876800D02*
D03*
X13147200D02*
D03*
X12994800D02*
D03*
Y4724400D02*
D03*
X13147200D02*
D03*
X13299600D02*
D03*
Y3962400D02*
D03*
Y4114800D02*
D03*
X13147200D02*
D03*
Y3962400D02*
D03*
X12994800Y4114800D02*
D03*
Y3962400D02*
D03*
Y3810000D02*
D03*
X13147200D02*
D03*
X13299600D02*
D03*
X12842400Y3962400D02*
D03*
X12486800Y4114800D02*
D03*
X12664600Y3810000D02*
D03*
X12842400D02*
D03*
X12309000Y3962400D02*
D03*
Y4114800D02*
D03*
X12156600D02*
D03*
Y3962400D02*
D03*
X12004200Y4114800D02*
D03*
Y3962400D02*
D03*
Y3810000D02*
D03*
X12156600D02*
D03*
X12309000D02*
D03*
X12842400Y4114800D02*
D03*
Y4267200D02*
D03*
X12486800Y3962400D02*
D03*
Y3810000D02*
D03*
X12664600Y3962400D02*
D03*
Y4114800D02*
D03*
Y3657600D02*
D03*
Y3505200D02*
D03*
X12486800Y3352800D02*
D03*
Y3505200D02*
D03*
X12842400Y3657600D02*
D03*
X12309000Y3352800D02*
D03*
X12156600D02*
D03*
X12004200D02*
D03*
Y3505200D02*
D03*
Y3657600D02*
D03*
X12156600Y3505200D02*
D03*
Y3657600D02*
D03*
X12309000D02*
D03*
Y3505200D02*
D03*
X12842400Y3352800D02*
D03*
X12664600D02*
D03*
X12486800Y3657600D02*
D03*
X12842400Y3505200D02*
D03*
X13299600Y3352800D02*
D03*
X13147200D02*
D03*
X12994800D02*
D03*
Y3505200D02*
D03*
Y3657600D02*
D03*
X13147200Y3505200D02*
D03*
Y3657600D02*
D03*
X13299600D02*
D03*
Y3505200D02*
D03*
X16661600Y4247200D02*
D03*
X16509200D02*
D03*
X16356799D02*
D03*
Y4399600D02*
D03*
Y4552000D02*
D03*
X16509200Y4399600D02*
D03*
Y4552000D02*
D03*
X16661600D02*
D03*
Y4399600D02*
D03*
X16026601Y4247200D02*
D03*
X15848801D02*
D03*
X15671001D02*
D03*
Y4399600D02*
D03*
X15518600D02*
D03*
X15366200D02*
D03*
X15518600Y4247200D02*
D03*
X15671001Y4755200D02*
D03*
X15518600D02*
D03*
X16661600Y4856800D02*
D03*
X16509200D02*
D03*
X16356799D02*
D03*
Y4704400D02*
D03*
X16509200D02*
D03*
X16661600D02*
D03*
Y3942400D02*
D03*
Y4094800D02*
D03*
X16509200D02*
D03*
Y3942400D02*
D03*
X16356799Y4094800D02*
D03*
Y3942400D02*
D03*
Y3790000D02*
D03*
X16509200D02*
D03*
X16661600D02*
D03*
X16204401Y3942400D02*
D03*
X15848801Y4094800D02*
D03*
X16026601Y3790000D02*
D03*
X16204401D02*
D03*
X15671001Y3942400D02*
D03*
Y4094800D02*
D03*
X15518600D02*
D03*
Y3942400D02*
D03*
X15366200Y4094800D02*
D03*
Y3942400D02*
D03*
Y3790000D02*
D03*
X15518600D02*
D03*
X15671001D02*
D03*
X16204401Y4094800D02*
D03*
Y4247200D02*
D03*
X15848801Y3942400D02*
D03*
Y3790000D02*
D03*
X16026601Y3942400D02*
D03*
Y4094800D02*
D03*
Y3637600D02*
D03*
Y3485200D02*
D03*
X15848801Y3332800D02*
D03*
Y3485200D02*
D03*
X16204401Y3637600D02*
D03*
X15671001Y3332800D02*
D03*
X15518600D02*
D03*
X15366200Y3485200D02*
D03*
Y3637600D02*
D03*
X15518600Y3485200D02*
D03*
Y3637600D02*
D03*
X15671001D02*
D03*
Y3485200D02*
D03*
X16204401Y3332800D02*
D03*
X16026601D02*
D03*
X15848801Y3637600D02*
D03*
X16204401Y3485200D02*
D03*
X16509200Y3332800D02*
D03*
X16356799D02*
D03*
Y3485200D02*
D03*
Y3637600D02*
D03*
X16509200Y3485200D02*
D03*
Y3637600D02*
D03*
X20101601Y4267200D02*
D03*
X19949200D02*
D03*
X19796800D02*
D03*
Y4419600D02*
D03*
Y4572000D02*
D03*
X19949200Y4419600D02*
D03*
Y4572000D02*
D03*
X20101601D02*
D03*
Y4419600D02*
D03*
X19466600Y4267200D02*
D03*
X19288800D02*
D03*
X19111000D02*
D03*
Y4419600D02*
D03*
X18958600D02*
D03*
X18806200D02*
D03*
X18958600Y4267200D02*
D03*
X19111000Y4775200D02*
D03*
X18958600D02*
D03*
X20101601Y4876800D02*
D03*
X19949200D02*
D03*
X19796800D02*
D03*
Y4724400D02*
D03*
X19949200D02*
D03*
X20101601D02*
D03*
Y3962400D02*
D03*
Y4114800D02*
D03*
X19949200D02*
D03*
Y3962400D02*
D03*
X19796800Y4114800D02*
D03*
Y3962400D02*
D03*
X19644400D02*
D03*
X19288800Y4114800D02*
D03*
X19111000Y3962400D02*
D03*
Y4114800D02*
D03*
X18958600D02*
D03*
Y3962400D02*
D03*
X18806200Y4114800D02*
D03*
Y3962400D02*
D03*
X19644400Y4114800D02*
D03*
Y4267200D02*
D03*
X19288800Y3962400D02*
D03*
X19466600D02*
D03*
Y4114800D02*
D03*
D66*
X9611360Y9507220D02*
D03*
X12783360Y9505220D02*
D03*
X16143359Y9492220D02*
D03*
X19587360Y9509220D02*
D03*
D67*
X9347200Y9677400D02*
D03*
X12519200Y9675400D02*
D03*
X15879201Y9662400D02*
D03*
X19323199Y9679400D02*
D03*
D68*
X4843400Y8842800D02*
D03*
X4825000Y8955000D02*
D03*
X4666400Y8168800D02*
D03*
X4406000Y8166000D02*
D03*
X4492000Y8161000D02*
D03*
X4576000Y8151000D02*
D03*
X5061400Y8201800D02*
D03*
X5148400Y8379800D02*
D03*
X5058400Y9306800D02*
D03*
X4505400Y9358800D02*
D03*
X5144400Y9114800D02*
D03*
X5285400Y8951800D02*
D03*
X5288400Y8647800D02*
D03*
X3451000Y7970000D02*
D03*
D69*
X4844400Y7863800D02*
D03*
X4862400Y7751800D02*
D03*
X4274400Y9133800D02*
D03*
%TF.MD5,d24037986c91b46c82d3f01dfb5d91e0*%
M02*
