G04 Layer_Physical_Order=4*
G04 Layer_Color=16711680*
%FSLAX45Y45*%
%MOMM*%
%TF.FileFunction,Copper,L4,Bot,Signal*%
%TF.Part,Single*%
G01*
G75*
%TA.AperFunction,SMDPad,CuDef*%
%ADD10R,2.50000X1.50000*%
%ADD11R,2.60000X1.10000*%
%ADD12R,0.90000X0.70000*%
%ADD13R,0.70000X0.90000*%
%ADD15R,1.10000X2.60000*%
%ADD18R,3.50000X2.00000*%
%TA.AperFunction,Conductor*%
%ADD47C,2.00000*%
%ADD48C,0.63500*%
%ADD49C,0.30000*%
%ADD50C,0.50000*%
%ADD51C,0.25400*%
%ADD52C,0.50800*%
%ADD53C,1.27000*%
%TA.AperFunction,ComponentPad*%
%ADD56C,1.70000*%
%ADD57C,1.52400*%
%ADD58C,1.60000*%
G04:AMPARAMS|DCode=59|XSize=1.5748mm|YSize=1.5748mm|CornerRadius=0mm|HoleSize=0mm|Usage=FLASHONLY|Rotation=90.000|XOffset=0mm|YOffset=0mm|HoleType=Round|Shape=Octagon|*
%AMOCTAGOND59*
4,1,8,0.39370,0.78740,-0.39370,0.78740,-0.78740,0.39370,-0.78740,-0.39370,-0.39370,-0.78740,0.39370,-0.78740,0.78740,-0.39370,0.78740,0.39370,0.39370,0.78740,0.0*
%
%ADD59OCTAGOND59*%

%ADD60C,2.80000*%
%TA.AperFunction,ViaPad*%
%ADD61C,1.52400*%
%ADD62C,2.60000*%
%ADD63C,0.90000*%
%ADD64C,0.95000*%
%ADD65C,1.27000*%
%ADD66C,0.76200*%
%ADD67C,0.67200*%
%ADD68C,0.63500*%
%ADD69C,0.70000*%
%TA.AperFunction,SMDPad,CuDef*%
%ADD71R,3.30000X1.40000*%
%ADD72R,1.40000X3.30000*%
%ADD73R,2.18000X1.52000*%
%ADD74R,1.55000X3.30000*%
G36*
X23658949Y7938983D02*
X23655276Y7930113D01*
X23651970Y7905000D01*
X23655276Y7879887D01*
X23664969Y7856485D01*
X23680389Y7836389D01*
X23700485Y7820969D01*
X23723888Y7811276D01*
X23749001Y7807970D01*
X23774113Y7811276D01*
X23797514Y7820969D01*
X23804649Y7826443D01*
X23816039Y7820826D01*
X23816039Y7735174D01*
X23804649Y7729557D01*
X23797514Y7735031D01*
X23774113Y7744724D01*
X23749001Y7748030D01*
X23723888Y7744724D01*
X23700485Y7735031D01*
X23691405Y7728063D01*
X23367834Y8051634D01*
X23356256Y8059369D01*
X23342599Y8062086D01*
X23291599D01*
X23289072Y8074786D01*
X23289516Y8074969D01*
X23309610Y8090389D01*
X23325031Y8110485D01*
X23334724Y8133887D01*
X23338029Y8159000D01*
X23334724Y8184113D01*
X23325031Y8207515D01*
X23309610Y8227610D01*
X23303873Y8232014D01*
X23308183Y8244714D01*
X23353218D01*
X23658949Y7938983D01*
D02*
G37*
G36*
X23653780Y7664752D02*
X23651970Y7651000D01*
X23655276Y7625887D01*
X23664969Y7602485D01*
X23680389Y7582389D01*
X23700485Y7566969D01*
X23723888Y7557276D01*
X23749001Y7553970D01*
X23774113Y7557276D01*
X23797514Y7566969D01*
X23804649Y7572443D01*
X23816039Y7566826D01*
Y7481174D01*
X23804649Y7475557D01*
X23797514Y7481031D01*
X23774113Y7490724D01*
X23749001Y7494030D01*
X23747797Y7493871D01*
X23698035Y7543634D01*
X23686456Y7551369D01*
X23672800Y7554086D01*
X23291599D01*
X23289072Y7566786D01*
X23289516Y7566969D01*
X23309610Y7582389D01*
X23325031Y7602485D01*
X23334724Y7625887D01*
X23338029Y7651000D01*
X23334724Y7676113D01*
X23325031Y7699515D01*
X23309610Y7719610D01*
X23289516Y7735031D01*
X23266113Y7744724D01*
X23241000Y7748030D01*
X23215887Y7744724D01*
X23192485Y7735031D01*
X23172391Y7719610D01*
X23156969Y7699515D01*
X23147276Y7676113D01*
X23143970Y7651000D01*
X23147276Y7625887D01*
X23156969Y7602485D01*
X23172391Y7582389D01*
X23192485Y7566969D01*
X23192928Y7566786D01*
X23190402Y7554086D01*
X23027182D01*
X22758234Y7823034D01*
X22746655Y7830769D01*
X22733000Y7833486D01*
X22412428D01*
X22409901Y7846186D01*
X22420711Y7850663D01*
X22438153Y7864047D01*
X22443362Y7870836D01*
X22591800D01*
Y7868600D01*
X22721800D01*
Y7978599D01*
X22721800D01*
X22723213Y7990714D01*
X22769600D01*
Y7972600D01*
X22899600D01*
Y7990714D01*
X23173817D01*
X23178128Y7978014D01*
X23172391Y7973610D01*
X23156969Y7953515D01*
X23147276Y7930113D01*
X23143970Y7905000D01*
X23147050Y7881599D01*
X23144656Y7877002D01*
X23137836Y7869489D01*
X23056731D01*
X23046553Y7882753D01*
X23029111Y7896137D01*
X23008798Y7904551D01*
X22987000Y7907421D01*
X22965202Y7904551D01*
X22944890Y7896137D01*
X22927448Y7882753D01*
X22914062Y7865310D01*
X22905649Y7844998D01*
X22902779Y7823200D01*
X22905649Y7801402D01*
X22914062Y7781090D01*
X22927448Y7763647D01*
X22944890Y7750263D01*
X22965202Y7741849D01*
X22987000Y7738979D01*
X23008798Y7741849D01*
X23029111Y7750263D01*
X23046553Y7763647D01*
X23056731Y7776911D01*
X23164799D01*
X23164799Y7776910D01*
X23182513Y7780434D01*
X23197533Y7790468D01*
X23218054Y7810991D01*
X23241000Y7807970D01*
X23266113Y7811276D01*
X23289516Y7820969D01*
X23309610Y7836389D01*
X23325031Y7856485D01*
X23334724Y7879887D01*
X23338029Y7905000D01*
X23334724Y7930113D01*
X23325031Y7953515D01*
X23309610Y7973610D01*
X23303873Y7978014D01*
X23308183Y7990714D01*
X23327818D01*
X23653780Y7664752D01*
D02*
G37*
G36*
X22591800Y7718600D02*
X22721800D01*
Y7741940D01*
X22733533Y7746800D01*
X22970055Y7510278D01*
X22965971Y7498252D01*
X22965202Y7498151D01*
X22944890Y7489737D01*
X22927448Y7476353D01*
X22914062Y7458910D01*
X22905649Y7438598D01*
X22902779Y7416800D01*
X22905649Y7395002D01*
X22914062Y7374690D01*
X22927448Y7357247D01*
X22944890Y7343863D01*
X22965202Y7335449D01*
X22987000Y7332579D01*
X23008798Y7335449D01*
X23029111Y7343863D01*
X23046553Y7357247D01*
X23056731Y7370511D01*
X23147845D01*
X23156969Y7348485D01*
X23172391Y7328389D01*
X23192485Y7312969D01*
X23215887Y7303276D01*
X23241000Y7299970D01*
X23266113Y7303276D01*
X23289516Y7312969D01*
X23309610Y7328389D01*
X23325031Y7348485D01*
X23334724Y7371887D01*
X23338029Y7397000D01*
X23334724Y7422113D01*
X23325031Y7445515D01*
X23309610Y7465610D01*
X23303873Y7470014D01*
X23308183Y7482714D01*
X23658018D01*
X23678104Y7462630D01*
X23664969Y7445515D01*
X23655276Y7422113D01*
X23651970Y7397000D01*
X23655276Y7371887D01*
X23664969Y7348485D01*
X23680389Y7328389D01*
X23700485Y7312969D01*
X23723888Y7303276D01*
X23749001Y7299970D01*
X23774113Y7303276D01*
X23797514Y7312969D01*
X23804649Y7318444D01*
X23816039Y7312826D01*
Y7227174D01*
X23804649Y7221556D01*
X23797514Y7227031D01*
X23774113Y7236724D01*
X23749001Y7240030D01*
X23723888Y7236724D01*
X23700485Y7227031D01*
X23680389Y7211610D01*
X23664969Y7191515D01*
X23655276Y7168113D01*
X23651970Y7143000D01*
X23655276Y7117887D01*
X23664969Y7094485D01*
X23680389Y7074389D01*
X23700485Y7058969D01*
X23723888Y7049276D01*
X23749001Y7045970D01*
X23774113Y7049276D01*
X23797514Y7058969D01*
X23804649Y7064444D01*
X23816039Y7058826D01*
Y6973174D01*
X23804649Y6967556D01*
X23797514Y6973031D01*
X23774113Y6982724D01*
X23749001Y6986030D01*
X23723888Y6982724D01*
X23700485Y6973031D01*
X23680389Y6957610D01*
X23664969Y6937515D01*
X23655276Y6914113D01*
X23651970Y6889000D01*
X23655276Y6863887D01*
X23664969Y6840485D01*
X23680389Y6820389D01*
X23700485Y6804969D01*
X23723888Y6795276D01*
X23749001Y6791970D01*
X23774113Y6795276D01*
X23797514Y6804969D01*
X23804649Y6810444D01*
X23816039Y6804827D01*
Y6465173D01*
X23804649Y6459556D01*
X23797514Y6465031D01*
X23774113Y6474724D01*
X23749001Y6478030D01*
X23723888Y6474724D01*
X23700485Y6465031D01*
X23680389Y6449610D01*
X23664969Y6429515D01*
X23655276Y6406113D01*
X23651970Y6381000D01*
X23655276Y6355887D01*
X23664969Y6332485D01*
X23680389Y6312389D01*
X23700485Y6296969D01*
X23723888Y6287276D01*
X23749001Y6283970D01*
X23774113Y6287276D01*
X23797514Y6296969D01*
X23804649Y6302444D01*
X23816040Y6296827D01*
Y6211173D01*
X23804649Y6205556D01*
X23797514Y6211031D01*
X23774113Y6220724D01*
X23749001Y6224030D01*
X23723888Y6220724D01*
X23717702Y6218162D01*
X23643732Y6292132D01*
X23628714Y6302166D01*
X23611000Y6305690D01*
X23610999Y6305689D01*
X23098433D01*
X23085953Y6321953D01*
X23068510Y6335337D01*
X23048198Y6343751D01*
X23026401Y6346621D01*
X23004602Y6343751D01*
X22984290Y6335337D01*
X22966847Y6321953D01*
X22953464Y6304511D01*
X22945049Y6284198D01*
X22942180Y6262400D01*
X22945049Y6240602D01*
X22953464Y6220290D01*
X22966847Y6202847D01*
X22984290Y6189463D01*
X23004602Y6181049D01*
X23026401Y6178180D01*
X23048198Y6181049D01*
X23068510Y6189463D01*
X23085953Y6202847D01*
X23093828Y6213111D01*
X23591826D01*
X23654991Y6149946D01*
X23651970Y6127000D01*
X23655276Y6101887D01*
X23658295Y6094598D01*
D01*
X23664969Y6078485D01*
X23680389Y6058389D01*
X23700485Y6042969D01*
X23723888Y6033276D01*
X23749001Y6029970D01*
X23774113Y6033276D01*
X23797514Y6042969D01*
X23812500Y6054468D01*
X23825200Y6048205D01*
Y5951795D01*
X23812500Y5945532D01*
X23797514Y5957031D01*
X23774113Y5966724D01*
X23749001Y5970030D01*
X23723888Y5966724D01*
X23700485Y5957031D01*
X23680389Y5941610D01*
X23664969Y5921515D01*
X23655276Y5898113D01*
X23651970Y5873000D01*
X23655276Y5847887D01*
X23664969Y5824485D01*
X23680389Y5804389D01*
X23700485Y5788969D01*
X23723888Y5779276D01*
X23749001Y5775970D01*
X23774113Y5779276D01*
X23797514Y5788969D01*
X23812500Y5800468D01*
X23825200Y5794205D01*
Y5697795D01*
X23812500Y5691532D01*
X23797514Y5703031D01*
X23774113Y5712724D01*
X23749001Y5716030D01*
X23723888Y5712724D01*
X23717702Y5710162D01*
X23654732Y5773132D01*
X23639714Y5783166D01*
X23622000Y5786690D01*
X23621999Y5786689D01*
X23292374D01*
X23291368Y5786890D01*
X23291367Y5786889D01*
X23171176D01*
X23100839Y5857226D01*
X23103021Y5873801D01*
X23100153Y5895599D01*
X23091737Y5915911D01*
X23078354Y5933354D01*
X23060912Y5946738D01*
X23040599Y5955152D01*
X23018800Y5958021D01*
X22997003Y5955152D01*
X22976691Y5946738D01*
X22959248Y5933354D01*
X22945863Y5915911D01*
X22937450Y5895599D01*
X22934579Y5873801D01*
X22937450Y5852003D01*
X22945863Y5831691D01*
X22959248Y5814248D01*
X22976691Y5800864D01*
X22997003Y5792450D01*
X23018800Y5789580D01*
X23035376Y5791762D01*
X23119270Y5707868D01*
X23134286Y5697834D01*
X23152002Y5694310D01*
X23152003Y5694310D01*
X23161522D01*
X23167786Y5681610D01*
X23156969Y5667515D01*
X23147276Y5644113D01*
X23143970Y5619000D01*
X23147276Y5593887D01*
X23156969Y5570485D01*
X23172391Y5550389D01*
X23192485Y5534969D01*
X23215887Y5525276D01*
X23241000Y5521970D01*
X23266113Y5525276D01*
X23289516Y5534969D01*
X23309610Y5550389D01*
X23325031Y5570485D01*
X23334724Y5593887D01*
X23338029Y5619000D01*
X23334724Y5644113D01*
X23325031Y5667515D01*
X23314368Y5681411D01*
X23320631Y5694111D01*
X23602826D01*
X23654991Y5641946D01*
X23651970Y5619000D01*
X23655276Y5593887D01*
X23664969Y5570485D01*
X23680389Y5550389D01*
X23700485Y5534969D01*
X23723888Y5525276D01*
X23749001Y5521970D01*
X23774113Y5525276D01*
X23797514Y5534969D01*
X23812500Y5546468D01*
X23825200Y5540205D01*
Y5443795D01*
X23812500Y5437532D01*
X23797514Y5449031D01*
X23774113Y5458724D01*
X23749001Y5462030D01*
X23723888Y5458724D01*
X23700485Y5449031D01*
X23680389Y5433610D01*
X23664969Y5413515D01*
X23655276Y5390113D01*
X23651970Y5365000D01*
X23655276Y5339887D01*
X23664969Y5316485D01*
X23680389Y5296389D01*
X23700485Y5280969D01*
X23723888Y5271276D01*
X23749001Y5267970D01*
X23774113Y5271276D01*
X23797514Y5280969D01*
X23812500Y5292468D01*
X23825200Y5286205D01*
Y5029200D01*
X21384801D01*
Y5023200D01*
X20498000D01*
Y5378800D01*
X21005800D01*
Y5690215D01*
X21085693D01*
X21099352Y5692931D01*
X21110928Y5700667D01*
X21506032Y6095771D01*
X21899333Y6489072D01*
X21907069Y6500649D01*
X21909785Y6514305D01*
Y7508318D01*
X22163582Y7762114D01*
X22591800D01*
Y7718600D01*
D02*
G37*
G36*
X8356600Y5715000D02*
X8394139D01*
X8408472Y5700667D01*
X8420049Y5692931D01*
X8433706Y5690215D01*
X8610600D01*
Y5461000D01*
X7594600D01*
Y5816600D01*
X8255000D01*
X8356600Y5715000D01*
D02*
G37*
G36*
X23664969Y8618485D02*
X23680389Y8598389D01*
X23700485Y8582969D01*
X23723888Y8573276D01*
X23749001Y8569970D01*
X23774113Y8573276D01*
X23797514Y8582969D01*
X23804648Y8588443D01*
X23816039Y8582826D01*
X23816039Y8243174D01*
X23804649Y8237557D01*
X23797514Y8243031D01*
X23774113Y8252724D01*
X23749001Y8256030D01*
X23723888Y8252724D01*
X23707098Y8245770D01*
X23403435Y8549433D01*
X23391856Y8557169D01*
X23378200Y8559886D01*
X23261700D01*
X23260867Y8572586D01*
X23266113Y8573276D01*
X23289516Y8582969D01*
X23309610Y8598389D01*
X23325031Y8618485D01*
X23331316Y8633659D01*
X23658684D01*
X23664969Y8618485D01*
D02*
G37*
G36*
X22952744Y8486568D02*
X22949539Y8469611D01*
X22948489Y8468910D01*
X22948489Y8468909D01*
X22917780Y8438200D01*
X22797247D01*
X22793753Y8442753D01*
X22776311Y8456137D01*
X22755998Y8464551D01*
X22734200Y8467421D01*
X22712402Y8464551D01*
X22692090Y8456137D01*
X22674648Y8442753D01*
X22661263Y8425311D01*
X22652849Y8404998D01*
X22649980Y8383200D01*
X22652849Y8361402D01*
X22661263Y8341090D01*
X22670705Y8328786D01*
X22664441Y8316086D01*
X22522015D01*
X22517155Y8327819D01*
X22677850Y8488514D01*
X22795000D01*
Y8478200D01*
X22925000D01*
Y8488514D01*
X22951411D01*
X22952744Y8486568D01*
D02*
G37*
G36*
X23658949Y8192983D02*
X23655276Y8184113D01*
X23651970Y8159000D01*
X23655276Y8133887D01*
X23664969Y8110485D01*
X23680389Y8090389D01*
X23700485Y8074969D01*
X23723888Y8065276D01*
X23749001Y8061970D01*
X23774113Y8065276D01*
X23797514Y8074969D01*
X23804649Y8080443D01*
X23816039Y8074826D01*
Y7989174D01*
X23804649Y7983557D01*
X23797514Y7989031D01*
X23774113Y7998724D01*
X23749001Y8002030D01*
X23723888Y7998724D01*
X23707098Y7991770D01*
X23393234Y8305634D01*
X23381656Y8313369D01*
X23367999Y8316086D01*
X23102800D01*
Y8336600D01*
X22983380D01*
X22978119Y8349300D01*
X23005418Y8376600D01*
X23102800D01*
Y8486599D01*
X23114706Y8488514D01*
X23363419D01*
X23658949Y8192983D01*
D02*
G37*
G36*
X23178128Y8232014D02*
X23172391Y8227610D01*
X23156969Y8207515D01*
X23147276Y8184113D01*
X23143970Y8159000D01*
X23147276Y8133887D01*
X23156969Y8110485D01*
X23172391Y8090389D01*
X23192485Y8074969D01*
X23192928Y8074786D01*
X23190402Y8062086D01*
X22899600D01*
Y8082600D01*
X22769600D01*
Y8062086D01*
X22338725D01*
X22333865Y8073819D01*
X22504761Y8244714D01*
X22639041D01*
X22645303Y8232014D01*
X22635863Y8219710D01*
X22627449Y8199398D01*
X22624580Y8177600D01*
X22627449Y8155802D01*
X22635863Y8135489D01*
X22649248Y8118047D01*
X22666690Y8104663D01*
X22687003Y8096249D01*
X22708800Y8093379D01*
X22730598Y8096249D01*
X22750911Y8104663D01*
X22768353Y8118047D01*
X22771848Y8122600D01*
X22899600D01*
Y8232599D01*
X22899600D01*
X22901013Y8244714D01*
X22972800D01*
Y8226600D01*
X23102800D01*
Y8244714D01*
X23173817D01*
X23178128Y8232014D01*
D02*
G37*
G36*
X23798999Y2922000D02*
X23848000Y2873000D01*
X23848001Y2519000D01*
X23808020Y2479019D01*
X22572986Y2477492D01*
X22564000Y2486467D01*
Y2922000D01*
X23798999Y2922000D01*
D02*
G37*
G36*
X8726201Y6508801D02*
X8751601Y6483401D01*
X8929401Y6305601D01*
X8980201Y6254801D01*
X10605801D01*
X10605801Y6051601D01*
X8523001Y6051602D01*
X8523001Y7296201D01*
X8726201Y7296201D01*
Y6508801D01*
D02*
G37*
G36*
X18702200Y6510801D02*
X18727602Y6485401D01*
X18905402Y6307601D01*
X18956201Y6256801D01*
X20581801D01*
X20581801Y6053601D01*
X18499001Y6053602D01*
X18499001Y7298201D01*
X18702200Y7298201D01*
Y6510801D01*
D02*
G37*
G36*
X21998000Y3215956D02*
Y3011000D01*
X21809000D01*
X21595000Y2797000D01*
X20872000Y2074000D01*
X20832999D01*
Y2070399D01*
X12565000Y2070400D01*
X12565000Y2527600D01*
X20731599Y2527599D01*
X20739000Y2535000D01*
X20963998Y2534999D01*
X21656000Y3226999D01*
X21986957Y3227000D01*
X21998000Y3215956D01*
D02*
G37*
G36*
X15258202Y6493801D02*
X15283601Y6468401D01*
X15461401Y6290601D01*
X15512201Y6239801D01*
X17137801D01*
X17137801Y6036601D01*
X15055000Y6036601D01*
X15055000Y7281201D01*
X15258202Y7281201D01*
Y6493801D01*
D02*
G37*
G36*
X13388000Y4970300D02*
X13387999Y2956000D01*
X11782099Y2956000D01*
X11782100Y4970300D01*
X13388000Y4970300D01*
D02*
G37*
G36*
X11662600Y3403600D02*
X11658000D01*
X11658000Y1960111D01*
X20970023D01*
X20976134Y1954000D01*
X21009000D01*
X21750999Y2696000D01*
X21748000Y2699000D01*
Y2826642D01*
X21758894Y2833168D01*
X21989000Y2710000D01*
Y2470000D01*
X20978999Y1459999D01*
Y1459208D01*
X20970016Y1450230D01*
X10848000Y1455888D01*
Y1471394D01*
X10747986Y1471263D01*
X10739000Y1480238D01*
Y2825341D01*
X10752953Y2836047D01*
X10766337Y2853490D01*
X10774751Y2873802D01*
X10777621Y2895600D01*
X10774751Y2917398D01*
X10766337Y2937710D01*
X10752953Y2955153D01*
X10739000Y2965859D01*
Y5281762D01*
X10748201D01*
Y5410200D01*
X11662601D01*
X11662600Y3403600D01*
D02*
G37*
G36*
X11898201Y6506801D02*
X11923601Y6481401D01*
X12101401Y6303601D01*
X12152201Y6252801D01*
X13777802D01*
X13777802Y6049601D01*
X11695001Y6049602D01*
X11695000Y7294201D01*
X11898201Y7294201D01*
Y6506801D01*
D02*
G37*
G36*
X23156969Y8618485D02*
X23172391Y8598389D01*
X23192485Y8582969D01*
X23215887Y8573276D01*
X23221132Y8572586D01*
X23220300Y8559886D01*
X22925000D01*
Y8588200D01*
X22795000D01*
Y8559886D01*
X22695041D01*
X22690181Y8571619D01*
X22746622Y8628059D01*
X23153004D01*
X23156969Y8618485D01*
D02*
G37*
G36*
X15020000Y3321169D02*
X14121536Y3319993D01*
X14112550Y3328968D01*
Y5393598D01*
X15020000D01*
X15020000Y3321169D01*
D02*
G37*
G36*
X18421104Y5406999D02*
Y3302160D01*
X17480504D01*
X17480502Y5407000D01*
X18421104Y5406999D01*
D02*
G37*
G36*
X21989999Y3471000D02*
X21603001Y3471000D01*
X21289388Y3157388D01*
X21290266Y3155266D01*
X20996001Y2861000D01*
X17303000Y2860999D01*
X17303000Y3167000D01*
X20972000Y3167000D01*
X21440999Y3636000D01*
X21989999D01*
X21989999Y3471000D01*
D02*
G37*
G36*
X8497600Y3403600D02*
X7583200D01*
X7583200Y5410200D01*
X8497601D01*
X8497600Y3403600D01*
D02*
G37*
G36*
X23816039Y10021174D02*
X23804648Y10015557D01*
X23797514Y10021031D01*
X23774113Y10030724D01*
X23749001Y10034030D01*
X23723888Y10030724D01*
X23700485Y10021031D01*
X23680389Y10005610D01*
X23664969Y9985515D01*
X23655276Y9962113D01*
X23651970Y9937000D01*
X23655276Y9911887D01*
X23664969Y9888485D01*
X23680389Y9868389D01*
X23700485Y9852969D01*
X23723888Y9843276D01*
X23749001Y9839970D01*
X23774113Y9843276D01*
X23797514Y9852969D01*
X23804648Y9858443D01*
X23816039Y9852826D01*
Y9767174D01*
X23804648Y9761557D01*
X23797514Y9767031D01*
X23774113Y9776724D01*
X23749001Y9780030D01*
X23723888Y9776724D01*
X23700485Y9767031D01*
X23680389Y9751610D01*
X23664969Y9731515D01*
X23655276Y9708113D01*
X23651970Y9683000D01*
X23655276Y9657887D01*
X23664969Y9634485D01*
X23680389Y9614389D01*
X23700485Y9598969D01*
X23723888Y9589276D01*
X23749001Y9585970D01*
X23774113Y9589276D01*
X23797514Y9598969D01*
X23804648Y9604443D01*
X23816039Y9598826D01*
Y9513174D01*
X23804648Y9507557D01*
X23797514Y9513031D01*
X23774113Y9522724D01*
X23749001Y9526030D01*
X23723888Y9522724D01*
X23700945Y9513220D01*
X23289056D01*
X23266573Y9522533D01*
X23211563Y9577543D01*
X23213931Y9583970D01*
X23218079Y9588988D01*
X23241000Y9585970D01*
X23266113Y9589276D01*
X23289516Y9598969D01*
X23309610Y9614389D01*
X23325031Y9634485D01*
X23334724Y9657887D01*
X23338029Y9683000D01*
X23334724Y9708113D01*
X23325031Y9731515D01*
X23309610Y9751610D01*
X23289516Y9767031D01*
X23266113Y9776724D01*
X23241000Y9780030D01*
X23215887Y9776724D01*
X23192485Y9767031D01*
X23172391Y9751610D01*
X23156969Y9731515D01*
X23147276Y9708113D01*
X23143970Y9683000D01*
X23146988Y9660079D01*
X23141969Y9655932D01*
X23135542Y9653563D01*
X22643213Y10145893D01*
X22625771Y10159277D01*
X22605458Y10167691D01*
X22583659Y10170561D01*
X20740820D01*
X20734557Y10183261D01*
X20740916Y10191550D01*
X20749332Y10211862D01*
X20752200Y10233660D01*
X20749332Y10255458D01*
X20740916Y10275770D01*
X20727533Y10293213D01*
X20710091Y10306597D01*
X20696242Y10312334D01*
Y10543540D01*
X20693703Y10556299D01*
X20686476Y10567115D01*
X20432475Y10821115D01*
X20421658Y10828343D01*
X20408900Y10830881D01*
X13796001D01*
Y10855996D01*
X13666000D01*
Y10830881D01*
X6311195D01*
X6298436Y10828343D01*
X6287620Y10821115D01*
X6105765Y10639260D01*
X6098537Y10628444D01*
X6095999Y10615685D01*
Y10303670D01*
X5983130Y10190801D01*
X5057460D01*
X5044701Y10188263D01*
X5033885Y10181035D01*
X4256425Y9403575D01*
X4249197Y9392759D01*
X4246660Y9380000D01*
Y9181412D01*
X4234747Y9173453D01*
X4222592Y9155260D01*
X4218323Y9133800D01*
X4222592Y9112340D01*
X4234747Y9094147D01*
X4252940Y9081991D01*
X4274400Y9077723D01*
X4295860Y9081991D01*
X4314053Y9094147D01*
X4326209Y9112340D01*
X4330477Y9133800D01*
X4326209Y9155260D01*
X4314053Y9173453D01*
X4313341Y9173929D01*
Y9366190D01*
X5071270Y10124119D01*
X5427786D01*
X5433013Y10112250D01*
X5426754Y10104340D01*
X5220000D01*
X5207241Y10101803D01*
X5196425Y10094575D01*
X4512084Y9410234D01*
X4505400Y9411564D01*
X4485208Y9407548D01*
X4468090Y9396110D01*
X4456653Y9378992D01*
X4452636Y9358800D01*
X4456653Y9338608D01*
X4468090Y9321490D01*
X4485208Y9310053D01*
X4505400Y9306036D01*
X4525592Y9310053D01*
X4542710Y9321490D01*
X4554147Y9338608D01*
X4558164Y9358800D01*
X4557631Y9361480D01*
X5233810Y10037659D01*
X5443000D01*
X5455759Y10040197D01*
X5466575Y10047425D01*
X5479770Y10060619D01*
X6029960D01*
X6042719Y10063157D01*
X6053535Y10070385D01*
X6198315Y10215165D01*
X6205543Y10225981D01*
X6208081Y10238740D01*
Y10583070D01*
X6222169Y10597158D01*
X6233902Y10592298D01*
Y10254405D01*
X6397296D01*
X6624914Y10026787D01*
X6642357Y10013403D01*
X6662669Y10004989D01*
X6684467Y10002119D01*
X22548775D01*
X23147467Y9403427D01*
X23156969Y9380485D01*
X23172391Y9360389D01*
X23192485Y9344969D01*
X23215887Y9335276D01*
X23241000Y9331970D01*
X23266113Y9335276D01*
X23289056Y9344779D01*
X23700945D01*
X23723888Y9335276D01*
X23749001Y9331970D01*
X23774113Y9335276D01*
X23797514Y9344969D01*
X23804648Y9350443D01*
X23816039Y9344826D01*
X23816039Y9005174D01*
X23804648Y8999557D01*
X23797514Y9005031D01*
X23774113Y9014724D01*
X23749001Y9018030D01*
X23723888Y9014724D01*
X23700485Y9005031D01*
X23680389Y8989610D01*
X23664969Y8969515D01*
X23658684Y8954340D01*
X23331316D01*
X23325031Y8969515D01*
X23309610Y8989610D01*
X23289516Y9005031D01*
X23266113Y9014724D01*
X23241000Y9018030D01*
X23215887Y9014724D01*
X23192485Y9005031D01*
X23172391Y8989610D01*
X23156969Y8969515D01*
X23148364Y8948741D01*
X22911400D01*
X22898640Y8946203D01*
X22887825Y8938975D01*
X21607425Y7658575D01*
X21600197Y7647759D01*
X21597659Y7635000D01*
Y6628810D01*
X21052888Y6084038D01*
X20618275D01*
X20609901Y6093586D01*
X20610481Y6098000D01*
X20608162Y6115621D01*
X20602193Y6130032D01*
X20602193Y6256801D01*
X20600641Y6264605D01*
X20596220Y6271220D01*
X20589606Y6275641D01*
X20581801Y6277193D01*
X18964648D01*
X18919820Y6322020D01*
X18919820Y6322021D01*
X18742020Y6499820D01*
X18742020Y6499821D01*
X18722594Y6519248D01*
Y7298201D01*
X18721040Y7306005D01*
X18716620Y7312621D01*
X18710004Y7317041D01*
X18702200Y7318593D01*
X18499001Y7318593D01*
X18491197Y7317041D01*
X18484581Y7312620D01*
X18480161Y7306005D01*
X18478609Y7298201D01*
Y7251948D01*
X18476839Y7249641D01*
X18470036Y7233221D01*
X18467717Y7215600D01*
X18470036Y7197979D01*
X18476839Y7181559D01*
X18478609Y7179252D01*
Y7150348D01*
X18476839Y7148041D01*
X18470036Y7131621D01*
X18467717Y7114000D01*
X18470036Y7096379D01*
X18476839Y7079959D01*
X18478609Y7077652D01*
Y7048748D01*
X18476839Y7046441D01*
X18470036Y7030021D01*
X18467717Y7012400D01*
X18470036Y6994779D01*
X18476839Y6978359D01*
X18478609Y6976052D01*
Y6947148D01*
X18476839Y6944841D01*
X18470036Y6928421D01*
X18467717Y6910800D01*
X18470036Y6893179D01*
X18476839Y6876759D01*
X18478609Y6874452D01*
X18478609Y6642348D01*
X18476839Y6640041D01*
X18470036Y6623621D01*
X18467717Y6606000D01*
X18470036Y6588379D01*
X18476839Y6571959D01*
X18478609Y6569652D01*
Y6084038D01*
X17166081D01*
X17164163Y6098621D01*
X17158192Y6113032D01*
X17158192Y6239801D01*
X17156641Y6247604D01*
X17152222Y6254220D01*
X17145605Y6258641D01*
X17137801Y6260193D01*
X15520648D01*
X15475821Y6305020D01*
X15475819Y6305021D01*
X15448241Y6332600D01*
D01*
X15298021Y6482820D01*
X15298019Y6482821D01*
X15278593Y6502248D01*
Y7281201D01*
X15277042Y7289005D01*
X15272620Y7295620D01*
X15266005Y7300041D01*
X15258202Y7301593D01*
X15055000Y7301593D01*
X15047197Y7300041D01*
X15040581Y7295620D01*
X15036160Y7289004D01*
X15034608Y7281201D01*
Y7234947D01*
X15032838Y7232641D01*
X15026038Y7216221D01*
X15023717Y7198600D01*
X15026038Y7180979D01*
X15032838Y7164559D01*
X15034608Y7162252D01*
Y7133347D01*
X15032838Y7131041D01*
X15026038Y7114621D01*
X15023717Y7097000D01*
X15026038Y7079379D01*
X15032838Y7062959D01*
X15034608Y7060652D01*
Y7031748D01*
X15032838Y7029441D01*
X15026038Y7013021D01*
X15023717Y6995400D01*
X15026038Y6977779D01*
X15032838Y6961359D01*
X15034608Y6959052D01*
Y6930148D01*
X15032838Y6927841D01*
X15026038Y6911421D01*
X15023717Y6893800D01*
X15026038Y6876179D01*
X15032838Y6859759D01*
X15034608Y6857452D01*
X15034608Y6625348D01*
D01*
D01*
X15034000Y6624553D01*
X15032838Y6623041D01*
X15026038Y6606621D01*
X15023717Y6589000D01*
X15026038Y6571379D01*
X15032838Y6554959D01*
X15034608Y6552652D01*
Y6332599D01*
D01*
Y6084038D01*
X13814801D01*
X13806429Y6093586D01*
X13806482Y6094000D01*
X13804163Y6111621D01*
X13798193Y6126032D01*
X13798193Y6252801D01*
X13796642Y6260605D01*
X13792221Y6267220D01*
X13785605Y6271641D01*
X13777802Y6273193D01*
X12160648D01*
X12115821Y6318020D01*
X12115820Y6318021D01*
X11938021Y6495820D01*
X11938020Y6495821D01*
X11918593Y6515248D01*
Y7294201D01*
X11917041Y7302005D01*
X11912620Y7308621D01*
X11906005Y7313041D01*
X11898201Y7314593D01*
X11695000Y7314593D01*
X11687197Y7313041D01*
X11680581Y7308620D01*
X11676161Y7302005D01*
X11674609Y7294201D01*
Y7247948D01*
X11672839Y7245641D01*
X11666037Y7229221D01*
X11663717Y7211600D01*
X11666037Y7193979D01*
X11672839Y7177559D01*
X11674609Y7175252D01*
Y7146348D01*
X11672839Y7144041D01*
X11666037Y7127621D01*
X11663717Y7110000D01*
X11666037Y7092379D01*
X11672839Y7075959D01*
X11674609Y7073652D01*
Y7044748D01*
X11672839Y7042441D01*
X11666037Y7026021D01*
X11663717Y7008400D01*
X11666037Y6990779D01*
X11672839Y6974359D01*
X11674609Y6972052D01*
Y6943148D01*
X11672839Y6940841D01*
X11666037Y6924421D01*
X11663717Y6906800D01*
X11666037Y6889179D01*
X11672839Y6872759D01*
X11674609Y6870452D01*
X11674609Y6645168D01*
X11666839Y6635041D01*
X11660037Y6618621D01*
X11657717Y6601000D01*
X11660037Y6583379D01*
X11666839Y6566959D01*
X11674609Y6556832D01*
Y6084038D01*
X10642539D01*
X10634165Y6093586D01*
X10634482Y6096000D01*
X10632163Y6113621D01*
X10626193Y6128032D01*
X10626193Y6254801D01*
X10624641Y6262605D01*
X10620221Y6269220D01*
X10613605Y6273641D01*
X10605801Y6275193D01*
X8988648D01*
X8943821Y6320020D01*
X8943820Y6320021D01*
X8766021Y6497820D01*
X8766020Y6497821D01*
X8746593Y6517248D01*
Y7296201D01*
X8745041Y7304005D01*
X8740621Y7310621D01*
X8734005Y7315041D01*
X8726201Y7316593D01*
X8523001Y7316593D01*
X8515197Y7315041D01*
X8508581Y7310620D01*
X8504161Y7304005D01*
X8502609Y7296201D01*
Y7249948D01*
X8500839Y7247641D01*
X8494037Y7231221D01*
X8491718Y7213600D01*
X8494037Y7195979D01*
X8500839Y7179559D01*
X8502609Y7177252D01*
Y7148348D01*
X8500839Y7146041D01*
X8494037Y7129621D01*
X8491718Y7112000D01*
X8494037Y7094379D01*
X8500839Y7077959D01*
X8502609Y7075652D01*
Y7046748D01*
X8500839Y7044441D01*
X8494037Y7028021D01*
X8491718Y7010400D01*
X8494037Y6992779D01*
X8500839Y6976359D01*
X8502609Y6974052D01*
Y6945148D01*
X8500839Y6942841D01*
X8494037Y6926421D01*
X8491718Y6908800D01*
X8494037Y6891179D01*
X8500839Y6874759D01*
X8502609Y6872452D01*
X8502609Y6640348D01*
X8500839Y6638041D01*
X8494037Y6621621D01*
X8491718Y6604000D01*
X8494037Y6586379D01*
X8500839Y6569959D01*
X8502609Y6567652D01*
Y6084038D01*
X8466513D01*
X8221375Y6329176D01*
X8220902Y6331550D01*
X8213675Y6342367D01*
X8024467Y6531575D01*
X8013650Y6538803D01*
X8000891Y6541340D01*
X5948810D01*
X4811341Y7678810D01*
Y7708099D01*
X4824041Y7711283D01*
X4840940Y7699991D01*
X4862400Y7695723D01*
X4883860Y7699991D01*
X4902053Y7712147D01*
X4914209Y7730340D01*
X4918477Y7751800D01*
X4917546Y7756479D01*
X5173234Y8012167D01*
X5180969Y8023744D01*
X5183686Y8037400D01*
Y8341138D01*
X5185710Y8342490D01*
X5197148Y8359608D01*
X5201164Y8379800D01*
X5197148Y8399992D01*
X5185710Y8417110D01*
X5168592Y8428548D01*
X5148400Y8432564D01*
X5128208Y8428548D01*
X5111090Y8417110D01*
X5099653Y8399992D01*
X5095636Y8379800D01*
X5099653Y8359608D01*
X5111090Y8342490D01*
X5112314Y8341672D01*
Y8241609D01*
X5099614Y8237756D01*
X5098710Y8239110D01*
X5081592Y8250548D01*
X5061400Y8254564D01*
X5041208Y8250548D01*
X5024090Y8239110D01*
X5012653Y8221992D01*
X5008636Y8201800D01*
X5012653Y8181608D01*
X5024090Y8164490D01*
X5026314Y8163005D01*
Y8096182D01*
X4849079Y7918947D01*
X4844400Y7919877D01*
X4824041Y7915828D01*
X4820884Y7916228D01*
X4811341Y7921329D01*
Y8767190D01*
X4835715Y8791565D01*
X4843400Y8790036D01*
X4863592Y8794053D01*
X4880710Y8805490D01*
X4892147Y8822608D01*
X4896164Y8842800D01*
X4892147Y8862992D01*
X4880710Y8880110D01*
X4863592Y8891548D01*
X4848729Y8894504D01*
X4847466Y8898699D01*
X4847388Y8907720D01*
X4862310Y8917690D01*
X4873747Y8934808D01*
X4877764Y8955000D01*
X4873747Y8975192D01*
X4862310Y8992310D01*
X4845192Y9003748D01*
X4825000Y9007764D01*
X4804808Y9003748D01*
X4787690Y8992310D01*
X4776253Y8975192D01*
X4772236Y8955000D01*
X4773731Y8947486D01*
X4707725Y8881480D01*
X4700497Y8870664D01*
X4697959Y8857905D01*
Y8755337D01*
X4685259Y8751026D01*
X4682553Y8754553D01*
X4665110Y8767937D01*
X4644798Y8776351D01*
X4623000Y8779220D01*
X4601202Y8776351D01*
X4580889Y8767937D01*
X4563447Y8754553D01*
X4550063Y8737110D01*
X4541649Y8716798D01*
X4538779Y8695000D01*
X4541649Y8673202D01*
X4550063Y8652889D01*
X4563447Y8635447D01*
X4580889Y8622063D01*
X4601202Y8613649D01*
X4623000Y8610779D01*
X4644798Y8613649D01*
X4665110Y8622063D01*
X4682553Y8635447D01*
X4685259Y8638974D01*
X4697959Y8634663D01*
Y8223423D01*
X4688947Y8218605D01*
X4685259Y8217813D01*
X4666400Y8221564D01*
X4646208Y8217547D01*
X4629090Y8206110D01*
X4622516Y8196270D01*
X4615131Y8189885D01*
X4606241Y8193033D01*
X4596192Y8199747D01*
X4576000Y8203764D01*
X4555808Y8199747D01*
X4547384Y8194119D01*
X4530285Y8196850D01*
X4529310Y8198310D01*
X4512192Y8209747D01*
X4492000Y8213764D01*
X4471808Y8209747D01*
X4459692Y8201652D01*
X4444321Y8202801D01*
X4442927Y8203565D01*
X4426192Y8214747D01*
X4406000Y8218764D01*
X4385808Y8214747D01*
X4368690Y8203310D01*
X4357253Y8186192D01*
X4353236Y8166000D01*
X4357253Y8145808D01*
X4368690Y8128690D01*
X4372314Y8126269D01*
Y7691206D01*
X4375031Y7677550D01*
X4382766Y7665972D01*
X5811472Y6237267D01*
X5823049Y6229532D01*
X5836705Y6226815D01*
X7887815D01*
X7913621Y6201009D01*
X7914031Y6198950D01*
X7921766Y6187372D01*
X8013368Y6095771D01*
X8008508Y6084038D01*
X7601992D01*
X7337530Y5732811D01*
X7325486Y5736838D01*
Y5969602D01*
X7331910Y5972263D01*
X7349353Y5985647D01*
X7362737Y6003090D01*
X7371151Y6023402D01*
X7374021Y6045200D01*
X7371151Y6066998D01*
X7364399Y6083299D01*
X7364761Y6084038D01*
X7364093D01*
X7362737Y6087310D01*
X7349353Y6104753D01*
X7331910Y6118137D01*
X7311598Y6126551D01*
X7289800Y6129421D01*
X7268002Y6126551D01*
X7247690Y6118137D01*
X7230247Y6104753D01*
X7216863Y6087310D01*
X7215507Y6084038D01*
X7214839D01*
X7215201Y6083299D01*
X7208449Y6066998D01*
X7205579Y6045200D01*
X7208449Y6023402D01*
X7216863Y6003090D01*
X7230247Y5985647D01*
X7247690Y5972263D01*
X7254114Y5969602D01*
Y5664200D01*
X7256831Y5650544D01*
X7264566Y5638966D01*
X7265880Y5637653D01*
X7151000Y5485084D01*
X7151000Y3363086D01*
X2585857D01*
X2579749Y3377831D01*
X2563721Y3398721D01*
X2542831Y3414750D01*
X2518505Y3424826D01*
X2492400Y3428263D01*
X2466295Y3424826D01*
X2441969Y3414750D01*
X2421079Y3398721D01*
X2405050Y3377831D01*
X2394974Y3353505D01*
X2391537Y3327400D01*
X2394974Y3301295D01*
X2405050Y3276969D01*
X2421079Y3256079D01*
X2441969Y3240050D01*
X2466295Y3229974D01*
X2492400Y3226537D01*
X2518505Y3229974D01*
X2542831Y3240050D01*
X2563721Y3256079D01*
X2579749Y3276969D01*
X2585857Y3291714D01*
X7151000D01*
Y3058286D01*
X2797200D01*
X2783544Y3055569D01*
X2771966Y3047834D01*
X2514487Y2790355D01*
X2492400Y2793263D01*
X2466295Y2789826D01*
X2441969Y2779750D01*
X2421079Y2763721D01*
X2405050Y2742831D01*
X2394974Y2718505D01*
X2391537Y2692400D01*
X2394974Y2666295D01*
X2405050Y2641969D01*
X2421079Y2621079D01*
X2441969Y2605050D01*
X2466295Y2594974D01*
X2492400Y2591537D01*
X2518505Y2594974D01*
X2542831Y2605050D01*
X2563721Y2621079D01*
X2579749Y2641969D01*
X2589826Y2666295D01*
X2593263Y2692400D01*
X2589826Y2718505D01*
X2579749Y2742831D01*
X2574604Y2749537D01*
X2811981Y2986914D01*
X7151000D01*
Y2778886D01*
X4114198D01*
X4111537Y2785310D01*
X4098153Y2802753D01*
X4080710Y2816137D01*
X4060398Y2824551D01*
X4038600Y2827421D01*
X4016802Y2824551D01*
X3996490Y2816137D01*
X3979047Y2802753D01*
X3965663Y2785310D01*
X3957249Y2764998D01*
X3954379Y2743200D01*
X3957249Y2721402D01*
X3965663Y2701090D01*
X3979047Y2683647D01*
X3996490Y2670263D01*
X4016802Y2661849D01*
X4038600Y2658979D01*
X4060398Y2661849D01*
X4080710Y2670263D01*
X4098153Y2683647D01*
X4111537Y2701090D01*
X4114198Y2707514D01*
X7151000D01*
X7150999Y2474085D01*
X3203400D01*
Y2503400D01*
X3093400D01*
Y2373400D01*
X3203400D01*
Y2402714D01*
X7150999D01*
Y1778999D01*
X2311399Y1779000D01*
X2311400Y6083300D01*
X2311972Y6084038D01*
X2286000D01*
Y6162953D01*
X2298700Y6175060D01*
X2386171D01*
X2435541Y6224430D01*
Y6323170D01*
X2386171Y6372540D01*
X2287431D01*
X2286000Y6373133D01*
X2285999Y10935437D01*
X23816039Y10935438D01*
X23816039Y10021174D01*
D02*
G37*
G36*
X23853999Y3379000D02*
X23854001Y3025000D01*
X23814020Y2985019D01*
X22586986Y2983501D01*
X22578000Y2992476D01*
Y3428000D01*
X23804999D01*
X23853999Y3379000D01*
D02*
G37*
G36*
X10224799Y3301999D02*
X8610599Y3302000D01*
X8610601Y5690215D01*
X10224801D01*
X10224799Y3301999D01*
D02*
G37*
G36*
X16752000Y4961200D02*
X16752000Y3157000D01*
X15158099Y3157000D01*
X15158099Y4961200D01*
X16752000Y4961200D01*
D02*
G37*
G36*
X20629559Y10529730D02*
Y10308125D01*
X20625870Y10306597D01*
X20608427Y10293213D01*
X20595042Y10275770D01*
X20586629Y10255458D01*
X20583759Y10233660D01*
X20586629Y10211862D01*
X20595042Y10191550D01*
X20601402Y10183261D01*
X20595140Y10170561D01*
X13311320D01*
X13305057Y10183261D01*
X13311417Y10191550D01*
X13319830Y10211862D01*
X13322701Y10233660D01*
X13319830Y10255458D01*
X13311417Y10275770D01*
X13298033Y10293213D01*
X13280589Y10306597D01*
X13260278Y10315011D01*
X13238480Y10317881D01*
X13216682Y10315011D01*
X13207912Y10311378D01*
X13137595Y10381695D01*
X13126779Y10388923D01*
X13114020Y10391461D01*
X13102431D01*
X12741424Y10752466D01*
X12746285Y10764199D01*
X13666000D01*
Y10745996D01*
X13796001D01*
Y10764199D01*
X20395090D01*
X20629559Y10529730D01*
D02*
G37*
G36*
X23664969Y8872485D02*
X23680389Y8852389D01*
X23700485Y8836969D01*
X23723888Y8827276D01*
X23749001Y8823970D01*
X23774113Y8827276D01*
X23797514Y8836969D01*
X23804648Y8842443D01*
X23816039Y8836826D01*
Y8751174D01*
X23804648Y8745557D01*
X23797514Y8751031D01*
X23774113Y8760724D01*
X23749001Y8764030D01*
X23723888Y8760724D01*
X23700485Y8751031D01*
X23680389Y8735610D01*
X23664969Y8715515D01*
X23658684Y8700340D01*
X23331316D01*
X23325031Y8715515D01*
X23309610Y8735610D01*
X23289516Y8751031D01*
X23266113Y8760724D01*
X23241000Y8764030D01*
X23215887Y8760724D01*
X23192485Y8751031D01*
X23172391Y8735610D01*
X23156969Y8715515D01*
X23148364Y8694741D01*
X22754485D01*
X22749625Y8706474D01*
X22925211Y8882059D01*
X23153004D01*
X23156969Y8872485D01*
X23172391Y8852389D01*
X23192485Y8836969D01*
X23215887Y8827276D01*
X23241000Y8823970D01*
X23266113Y8827276D01*
X23289516Y8836969D01*
X23309610Y8852389D01*
X23325031Y8872485D01*
X23331316Y8887659D01*
X23658684D01*
X23664969Y8872485D01*
D02*
G37*
G36*
X13065045Y10334544D02*
X13075861Y10327317D01*
X13088620Y10324779D01*
X13100211D01*
X13160762Y10264228D01*
X13157129Y10255458D01*
X13154259Y10233660D01*
X13157129Y10211862D01*
X13165543Y10191550D01*
X13171902Y10183261D01*
X13165640Y10170561D01*
X6719352D01*
X6428902Y10461011D01*
Y10624405D01*
X6266009D01*
X6261149Y10636138D01*
X6335870Y10710859D01*
X9165360D01*
Y10660056D01*
X9295360D01*
Y10710859D01*
X12688730D01*
X13065045Y10334544D01*
D02*
G37*
G36*
X20260001Y5374999D02*
X20259999Y3611000D01*
X20723999Y3610999D01*
X21101001Y3988000D01*
X21989999Y3988000D01*
X21989999Y3805000D01*
X21305000Y3805000D01*
X21046097Y3546096D01*
X21046095D01*
X20745003Y3245000D01*
X19481799Y3245000D01*
Y3245393D01*
X18645000Y3245393D01*
X18645001Y5375000D01*
X20260001Y5374999D01*
D02*
G37*
%LPC*%
G36*
X23241000Y5462030D02*
X23215887Y5458724D01*
X23192485Y5449031D01*
X23172391Y5433610D01*
X23156969Y5413515D01*
X23147276Y5390113D01*
X23143970Y5365000D01*
X23147276Y5339887D01*
X23156969Y5316485D01*
X23172391Y5296389D01*
X23192485Y5280969D01*
X23215887Y5271276D01*
X23241000Y5267970D01*
X23266113Y5271276D01*
X23289516Y5280969D01*
X23309610Y5296389D01*
X23325031Y5316485D01*
X23334724Y5339887D01*
X23338029Y5365000D01*
X23334724Y5390113D01*
X23325031Y5413515D01*
X23309610Y5433610D01*
X23289516Y5449031D01*
X23266113Y5458724D01*
X23241000Y5462030D01*
D02*
G37*
G36*
X22555200Y6739021D02*
X22533401Y6736151D01*
X22513091Y6727737D01*
X22495647Y6714353D01*
X22482263Y6696910D01*
X22473849Y6676598D01*
X22470979Y6654800D01*
X22473849Y6633002D01*
X22482263Y6612690D01*
X22495647Y6595247D01*
X22513091Y6581863D01*
X22533401Y6573449D01*
X22555200Y6570579D01*
X22576997Y6573449D01*
X22597310Y6581863D01*
X22614754Y6595247D01*
X22628137Y6612690D01*
X22636551Y6633002D01*
X22639421Y6654800D01*
X22636551Y6676598D01*
X22628137Y6696910D01*
X22614754Y6714353D01*
X22597310Y6727737D01*
X22576997Y6736151D01*
X22555200Y6739021D01*
D02*
G37*
G36*
X23241000Y7240030D02*
X23215887Y7236724D01*
X23192485Y7227031D01*
X23172391Y7211610D01*
X23156969Y7191515D01*
X23147276Y7168113D01*
X23143970Y7143000D01*
X23147276Y7117887D01*
X23156969Y7094485D01*
X23172391Y7074389D01*
X23192485Y7058969D01*
X23215887Y7049276D01*
X23241000Y7045970D01*
X23266113Y7049276D01*
X23289516Y7058969D01*
X23309610Y7074389D01*
X23325031Y7094485D01*
X23334724Y7117887D01*
X23338029Y7143000D01*
X23334724Y7168113D01*
X23325031Y7191515D01*
X23309610Y7211610D01*
X23289516Y7227031D01*
X23266113Y7236724D01*
X23241000Y7240030D01*
D02*
G37*
G36*
X2640171Y6626540D02*
X2541431D01*
X2492061Y6577170D01*
Y6478430D01*
X2541431Y6429060D01*
X2640171D01*
X2689541Y6478430D01*
Y6577170D01*
X2640171Y6626540D01*
D02*
G37*
G36*
X3055000Y6653221D02*
X3033202Y6650351D01*
X3012890Y6641937D01*
X2995447Y6628553D01*
X2982063Y6611110D01*
X2973649Y6590798D01*
X2970779Y6569000D01*
X2973649Y6547202D01*
X2982063Y6526890D01*
X2995447Y6509447D01*
X3012890Y6496063D01*
X3033202Y6487649D01*
X3055000Y6484780D01*
X3076798Y6487649D01*
X3097110Y6496063D01*
X3114553Y6509447D01*
X3127937Y6526890D01*
X3136351Y6547202D01*
X3139221Y6569000D01*
X3136351Y6590798D01*
X3127937Y6611110D01*
X3114553Y6628553D01*
X3097110Y6641937D01*
X3076798Y6650351D01*
X3055000Y6653221D01*
D02*
G37*
G36*
X2640171Y6372540D02*
X2541431D01*
X2492061Y6323170D01*
Y6224430D01*
X2541431Y6175060D01*
X2640171D01*
X2689541Y6224430D01*
Y6323170D01*
X2640171Y6372540D01*
D02*
G37*
G36*
X2492400Y3174263D02*
X2466295Y3170826D01*
X2441969Y3160750D01*
X2421079Y3144721D01*
X2405050Y3123831D01*
X2394974Y3099505D01*
X2391537Y3073400D01*
X2394974Y3047295D01*
X2405050Y3022969D01*
X2421079Y3002079D01*
X2441969Y2986050D01*
X2466295Y2975974D01*
X2492400Y2972537D01*
X2518505Y2975974D01*
X2542831Y2986050D01*
X2563721Y3002079D01*
X2579749Y3022969D01*
X2589826Y3047295D01*
X2593263Y3073400D01*
X2589826Y3099505D01*
X2579749Y3123831D01*
X2563721Y3144721D01*
X2542831Y3160750D01*
X2518505Y3170826D01*
X2492400Y3174263D01*
D02*
G37*
G36*
X4181000Y6650221D02*
X4159202Y6647351D01*
X4138890Y6638937D01*
X4121447Y6625553D01*
X4120556Y6624392D01*
X4038600D01*
X4030796Y6622840D01*
X4024181Y6618419D01*
X4016940Y6611179D01*
X4012520Y6604563D01*
X4010968Y6596760D01*
Y6096000D01*
Y5936800D01*
X4012520Y5928996D01*
X4016940Y5922381D01*
X4023556Y5917960D01*
X4031360Y5916408D01*
X4281360Y5916408D01*
X5334000D01*
X5341803Y5917960D01*
X5348419Y5922380D01*
X5352839Y5928996D01*
X5354392Y5936800D01*
Y6096000D01*
D01*
X5354392Y6467876D01*
X5355937Y6469890D01*
X5364351Y6490202D01*
X5367221Y6512000D01*
X5364351Y6533798D01*
X5355937Y6554110D01*
X5354392Y6556124D01*
Y6604000D01*
X5352840Y6611804D01*
X5348419Y6618419D01*
X5341804Y6622840D01*
X5334000Y6624392D01*
X4414676D01*
X4414553Y6624553D01*
X4397110Y6637937D01*
X4376798Y6646351D01*
X4355000Y6649221D01*
X4333202Y6646351D01*
X4312890Y6637937D01*
X4295447Y6624553D01*
X4295324Y6624392D01*
X4241444D01*
X4240553Y6625553D01*
X4223110Y6638937D01*
X4202798Y6647351D01*
X4181000Y6650221D01*
D02*
G37*
G36*
X3096300Y5199006D02*
X3068889Y5195397D01*
X3043347Y5184817D01*
X3021413Y5167987D01*
X3004583Y5146053D01*
X2994003Y5120510D01*
X2990394Y5093100D01*
X2994003Y5065690D01*
X3004583Y5040147D01*
X3021413Y5018213D01*
X3043347Y5001383D01*
X3068889Y4990803D01*
X3096300Y4987194D01*
X3123710Y4990803D01*
X3149253Y5001383D01*
X3171187Y5018213D01*
X3188017Y5040147D01*
X3198597Y5065690D01*
X3202206Y5093100D01*
X3198597Y5120510D01*
X3188017Y5146053D01*
X3171187Y5167987D01*
X3149253Y5184817D01*
X3123710Y5195397D01*
X3096300Y5199006D01*
D02*
G37*
G36*
X2492400Y4698263D02*
X2466295Y4694826D01*
X2441969Y4684750D01*
X2421079Y4668721D01*
X2405050Y4647831D01*
X2394974Y4623505D01*
X2391537Y4597400D01*
X2394974Y4571295D01*
X2405050Y4546969D01*
X2421079Y4526079D01*
X2441969Y4510050D01*
X2466295Y4499974D01*
X2492400Y4496537D01*
X2518505Y4499974D01*
X2542831Y4510050D01*
X2563721Y4526079D01*
X2579749Y4546969D01*
X2589826Y4571295D01*
X2593263Y4597400D01*
X2589826Y4623505D01*
X2579749Y4647831D01*
X2563721Y4668721D01*
X2542831Y4684750D01*
X2518505Y4694826D01*
X2492400Y4698263D01*
D02*
G37*
G36*
Y4444263D02*
X2466295Y4440826D01*
X2441969Y4430750D01*
X2421079Y4414721D01*
X2405050Y4393831D01*
X2394974Y4369505D01*
X2391537Y4343400D01*
X2394974Y4317295D01*
X2405050Y4292969D01*
X2421079Y4272079D01*
X2441969Y4256050D01*
X2466295Y4245974D01*
X2492400Y4242537D01*
X2518505Y4245974D01*
X2542831Y4256050D01*
X2563721Y4272079D01*
X2579749Y4292969D01*
X2589826Y4317295D01*
X2593263Y4343400D01*
X2589826Y4369505D01*
X2579749Y4393831D01*
X2563721Y4414721D01*
X2542831Y4430750D01*
X2518505Y4440826D01*
X2492400Y4444263D01*
D02*
G37*
G36*
Y4063263D02*
X2466295Y4059826D01*
X2441969Y4049750D01*
X2421079Y4033721D01*
X2405050Y4012831D01*
X2394974Y3988505D01*
X2391537Y3962400D01*
X2394974Y3936295D01*
X2405050Y3911969D01*
X2421079Y3891079D01*
X2441969Y3875050D01*
X2466295Y3864974D01*
X2492400Y3861537D01*
X2518505Y3864974D01*
X2542831Y3875050D01*
X2563721Y3891079D01*
X2579749Y3911969D01*
X2589826Y3936295D01*
X2593263Y3962400D01*
X2589826Y3988505D01*
X2579749Y4012831D01*
X2563721Y4033721D01*
X2542831Y4049750D01*
X2518505Y4059826D01*
X2492400Y4063263D01*
D02*
G37*
G36*
X3096300Y5900006D02*
X3068889Y5896397D01*
X3043347Y5885817D01*
X3021413Y5868987D01*
X3004583Y5847053D01*
X2994003Y5821510D01*
X2990394Y5794100D01*
X2994003Y5766690D01*
X3004583Y5741147D01*
X3021413Y5719213D01*
X3043347Y5702383D01*
X3068889Y5691803D01*
X3096300Y5688194D01*
X3123710Y5691803D01*
X3149253Y5702383D01*
X3171187Y5719213D01*
X3188017Y5741147D01*
X3198597Y5766690D01*
X3202206Y5794100D01*
X3198597Y5821510D01*
X3188017Y5847053D01*
X3171187Y5868987D01*
X3149253Y5885817D01*
X3123710Y5896397D01*
X3096300Y5900006D01*
D02*
G37*
G36*
X2492400Y3809263D02*
X2466295Y3805826D01*
X2441969Y3795750D01*
X2421079Y3779721D01*
X2405050Y3758831D01*
X2394974Y3734505D01*
X2391537Y3708400D01*
X2394974Y3682295D01*
X2405050Y3657969D01*
X2421079Y3637079D01*
X2441969Y3621050D01*
X2466295Y3610974D01*
X2492400Y3607537D01*
X2518505Y3610974D01*
X2542831Y3621050D01*
X2563721Y3637079D01*
X2579749Y3657969D01*
X2589826Y3682295D01*
X2593263Y3708400D01*
X2589826Y3734505D01*
X2579749Y3758831D01*
X2563721Y3779721D01*
X2542831Y3795750D01*
X2518505Y3805826D01*
X2492400Y3809263D01*
D02*
G37*
G36*
X16143359Y9551458D02*
X16120689Y9546949D01*
X16101472Y9534107D01*
X16088631Y9514889D01*
X16084122Y9492220D01*
X16088631Y9469550D01*
X16101472Y9450332D01*
X16120689Y9437491D01*
X16143359Y9432982D01*
X16166029Y9437491D01*
X16185248Y9450332D01*
X16198090Y9469550D01*
X16202599Y9492220D01*
X16198090Y9514889D01*
X16185248Y9534107D01*
X16166029Y9546949D01*
X16143359Y9551458D01*
D02*
G37*
G36*
X12783360Y9564458D02*
X12760690Y9559949D01*
X12741472Y9547108D01*
X12728631Y9527890D01*
X12724122Y9505220D01*
X12728631Y9482551D01*
X12741472Y9463332D01*
X12760690Y9450491D01*
X12783360Y9445982D01*
X12806029Y9450491D01*
X12825247Y9463332D01*
X12838089Y9482551D01*
X12842598Y9505220D01*
X12838089Y9527890D01*
X12825247Y9547108D01*
X12806029Y9559949D01*
X12783360Y9564458D01*
D02*
G37*
G36*
X9611360Y9566458D02*
X9588690Y9561949D01*
X9569472Y9549108D01*
X9556631Y9529890D01*
X9552122Y9507220D01*
X9556631Y9484551D01*
X9569472Y9465332D01*
X9588690Y9452491D01*
X9611360Y9447982D01*
X9634029Y9452491D01*
X9653248Y9465332D01*
X9666089Y9484551D01*
X9670598Y9507220D01*
X9666089Y9529890D01*
X9653248Y9549108D01*
X9634029Y9561949D01*
X9611360Y9566458D01*
D02*
G37*
G36*
X3377000Y9051761D02*
X3355202Y9048891D01*
X3334890Y9040477D01*
X3317447Y9027093D01*
X3304063Y9009650D01*
X3295649Y8989338D01*
X3292780Y8967540D01*
X3295649Y8945742D01*
X3304063Y8925430D01*
X3317447Y8907987D01*
X3324236Y8902778D01*
Y8612849D01*
X3316763Y8603110D01*
X3308349Y8582798D01*
X3305480Y8561000D01*
X3308349Y8539202D01*
X3316763Y8518890D01*
X3330147Y8501447D01*
X3347590Y8488063D01*
X3367902Y8479649D01*
X3389700Y8476779D01*
X3411498Y8479649D01*
X3431810Y8488063D01*
X3449253Y8501447D01*
X3462637Y8518890D01*
X3471051Y8539202D01*
X3473921Y8561000D01*
X3471051Y8582798D01*
X3462637Y8603110D01*
X3449253Y8620553D01*
X3431810Y8633937D01*
X3429764Y8634785D01*
Y8902778D01*
X3436553Y8907987D01*
X3449937Y8925430D01*
X3458351Y8945742D01*
X3461221Y8967540D01*
X3458351Y8989338D01*
X3449937Y9009650D01*
X3436553Y9027093D01*
X3419110Y9040477D01*
X3398798Y9048891D01*
X3377000Y9051761D01*
D02*
G37*
G36*
X2492400Y8940063D02*
X2466295Y8936626D01*
X2441969Y8926550D01*
X2421079Y8910521D01*
X2405050Y8889631D01*
X2394974Y8865305D01*
X2391537Y8839200D01*
X2394974Y8813095D01*
X2405050Y8788769D01*
X2421079Y8767879D01*
X2441969Y8751850D01*
X2466295Y8741774D01*
X2492400Y8738337D01*
X2518505Y8741774D01*
X2542831Y8751850D01*
X2563721Y8767879D01*
X2579749Y8788769D01*
X2589826Y8813095D01*
X2593263Y8839200D01*
X2589826Y8865305D01*
X2579749Y8889631D01*
X2563721Y8910521D01*
X2542831Y8926550D01*
X2518505Y8936626D01*
X2492400Y8940063D01*
D02*
G37*
G36*
Y9194063D02*
X2466295Y9190626D01*
X2441969Y9180550D01*
X2421079Y9164521D01*
X2405050Y9143631D01*
X2394974Y9119305D01*
X2391537Y9093200D01*
X2394974Y9067095D01*
X2405050Y9042769D01*
X2421079Y9021879D01*
X2441969Y9005850D01*
X2466295Y8995774D01*
X2492400Y8992337D01*
X2518505Y8995774D01*
X2542831Y9005850D01*
X2563721Y9021879D01*
X2579749Y9042769D01*
X2589826Y9067095D01*
X2593263Y9093200D01*
X2589826Y9119305D01*
X2579749Y9143631D01*
X2563721Y9164521D01*
X2542831Y9180550D01*
X2518505Y9190626D01*
X2492400Y9194063D01*
D02*
G37*
G36*
X19587360Y9568458D02*
X19564690Y9563949D01*
X19545473Y9551108D01*
X19532631Y9531889D01*
X19528120Y9509220D01*
X19532631Y9486550D01*
X19545473Y9467332D01*
X19564690Y9454491D01*
X19587360Y9449982D01*
X19610030Y9454491D01*
X19629247Y9467332D01*
X19642088Y9486550D01*
X19646597Y9509220D01*
X19642088Y9531889D01*
X19629247Y9551108D01*
X19610030Y9563949D01*
X19587360Y9568458D01*
D02*
G37*
G36*
X23241000Y10034030D02*
X23215887Y10030724D01*
X23192485Y10021031D01*
X23172391Y10005610D01*
X23156969Y9985515D01*
X23147276Y9962113D01*
X23143970Y9937000D01*
X23147276Y9911887D01*
X23156969Y9888485D01*
X23172391Y9868389D01*
X23192485Y9852969D01*
X23215887Y9843276D01*
X23241000Y9839970D01*
X23266113Y9843276D01*
X23289516Y9852969D01*
X23309610Y9868389D01*
X23325031Y9888485D01*
X23334724Y9911887D01*
X23338029Y9937000D01*
X23334724Y9962113D01*
X23325031Y9985515D01*
X23309610Y10005610D01*
X23289516Y10021031D01*
X23266113Y10030724D01*
X23241000Y10034030D01*
D02*
G37*
G36*
X2557000Y10605174D02*
X2525635Y10602085D01*
X2495474Y10592936D01*
X2467679Y10578079D01*
X2443315Y10558085D01*
X2423321Y10533721D01*
X2408464Y10505926D01*
X2399315Y10475765D01*
X2396226Y10444400D01*
X2399315Y10413035D01*
X2408464Y10382874D01*
X2423321Y10355079D01*
X2443315Y10330715D01*
X2467679Y10310721D01*
X2495474Y10295864D01*
X2525635Y10286715D01*
X2557000Y10283626D01*
X2588365Y10286715D01*
X2618526Y10295864D01*
X2646321Y10310721D01*
X2670685Y10330715D01*
X2690679Y10355079D01*
X2705536Y10382874D01*
X2714685Y10413035D01*
X2717774Y10444400D01*
X2714685Y10475765D01*
X2705536Y10505926D01*
X2690679Y10533721D01*
X2670685Y10558085D01*
X2646321Y10578079D01*
X2618526Y10592936D01*
X2588365Y10602085D01*
X2557000Y10605174D01*
D02*
G37*
G36*
X6008898Y10624405D02*
X5813898D01*
Y10472821D01*
X4574000D01*
Y10490802D01*
X4316000D01*
Y10472821D01*
X3962400D01*
X3940602Y10469951D01*
X3920290Y10461537D01*
X3902847Y10448153D01*
X3600447Y10145753D01*
X3587063Y10128310D01*
X3578649Y10107998D01*
X3575779Y10086200D01*
Y6096000D01*
Y5960000D01*
X3575806Y5959798D01*
X3574779Y5952000D01*
X3577649Y5930202D01*
X3586063Y5909890D01*
X3599447Y5892447D01*
X3616890Y5879063D01*
X3637202Y5870649D01*
X3659000Y5867779D01*
X3680798Y5870649D01*
X3701110Y5879063D01*
X3718553Y5892447D01*
X3731937Y5909890D01*
X3740351Y5930202D01*
X3743221Y5952000D01*
X3743194Y5952202D01*
X3744221Y5960000D01*
Y6084038D01*
Y10051315D01*
X3997285Y10304379D01*
X4316000D01*
Y10298803D01*
X4574000D01*
Y10304379D01*
X5813898D01*
Y10254405D01*
X6008898D01*
Y10624405D01*
D02*
G37*
G36*
X19103000Y9941686D02*
X5660000D01*
X5646344Y9938969D01*
X5634766Y9931234D01*
X5062318Y9358785D01*
X5058400Y9359564D01*
X5038208Y9355547D01*
X5021090Y9344110D01*
X5009653Y9326992D01*
X5005636Y9306800D01*
X5009653Y9286608D01*
X5021090Y9269490D01*
X5038208Y9258053D01*
X5058400Y9254036D01*
X5078592Y9258053D01*
X5095710Y9269490D01*
X5107148Y9286608D01*
X5111138Y9306671D01*
X5674782Y9870314D01*
X5721543D01*
X5726403Y9858581D01*
X5117766Y9249944D01*
X5110031Y9238367D01*
X5107314Y9224710D01*
Y9152260D01*
X5107090Y9152110D01*
X5095653Y9134992D01*
X5091636Y9114800D01*
X5095653Y9094608D01*
X5107090Y9077490D01*
X5124208Y9066053D01*
X5144400Y9062036D01*
X5164592Y9066053D01*
X5181710Y9077490D01*
X5193148Y9094608D01*
X5197164Y9114800D01*
X5193148Y9134992D01*
X5181710Y9152110D01*
X5178686Y9154131D01*
Y9209929D01*
X5240581Y9271824D01*
X5252314Y9266964D01*
Y8991932D01*
X5248090Y8989110D01*
X5236653Y8971992D01*
X5232636Y8951800D01*
X5236653Y8931608D01*
X5248090Y8914490D01*
X5265208Y8903053D01*
X5285400Y8899036D01*
X5305592Y8903053D01*
X5322710Y8914490D01*
X5334148Y8931608D01*
X5338164Y8951800D01*
X5334148Y8971992D01*
X5323686Y8987649D01*
Y9284219D01*
X5807782Y9768314D01*
X5872070D01*
X5875922Y9755614D01*
X5873856Y9754234D01*
X5382766Y9263144D01*
X5375031Y9251567D01*
X5372314Y9237910D01*
Y8775782D01*
X5295654Y8699121D01*
X5288400Y8700564D01*
X5268208Y8696548D01*
X5251090Y8685110D01*
X5239653Y8667992D01*
X5235636Y8647800D01*
X5239653Y8627608D01*
X5251090Y8610490D01*
X5268208Y8599053D01*
X5288400Y8595036D01*
X5308592Y8599053D01*
X5325710Y8610490D01*
X5337148Y8627608D01*
X5340145Y8642678D01*
X5433234Y8735766D01*
X5440969Y8747344D01*
X5443686Y8761000D01*
Y9223129D01*
X5913871Y9693314D01*
X9280818D01*
X9293244Y9680889D01*
X9292550Y9677400D01*
X9296710Y9656486D01*
X9308557Y9638757D01*
X9326286Y9626910D01*
X9347200Y9622750D01*
X9368114Y9626910D01*
X9385843Y9638757D01*
X9397690Y9656486D01*
X9401850Y9677400D01*
X9397690Y9698314D01*
X9385843Y9716043D01*
X9368114Y9727890D01*
X9347200Y9732050D01*
X9343711Y9731356D01*
X9320834Y9754234D01*
X9318767Y9755614D01*
X9322620Y9768314D01*
X10642218D01*
X10865766Y9544766D01*
X10877344Y9537031D01*
X10891000Y9534314D01*
X12567000D01*
X12580656Y9537031D01*
X12592234Y9544766D01*
X12743081Y9695614D01*
X15795518D01*
X15825244Y9665888D01*
X15824550Y9662400D01*
X15828709Y9641486D01*
X15840556Y9623756D01*
X15858286Y9611910D01*
X15879201Y9607750D01*
X15900113Y9611910D01*
X15917844Y9623756D01*
X15929691Y9641486D01*
X15933850Y9662400D01*
X15929691Y9683313D01*
X15917844Y9701043D01*
X15900113Y9712890D01*
X15879201Y9717050D01*
X15875711Y9716356D01*
X15835533Y9756533D01*
X15823956Y9764269D01*
X15810300Y9766986D01*
X12728300D01*
X12714644Y9764269D01*
X12703066Y9756533D01*
X12552218Y9605686D01*
X10905782D01*
X10704886Y9806581D01*
X10709746Y9818314D01*
X12325818D01*
X12465244Y9678889D01*
X12464550Y9675400D01*
X12468710Y9654486D01*
X12480556Y9636757D01*
X12498286Y9624910D01*
X12519200Y9620750D01*
X12540113Y9624910D01*
X12557843Y9636757D01*
X12569690Y9654486D01*
X12573850Y9675400D01*
X12569690Y9696314D01*
X12557843Y9714043D01*
X12540113Y9725890D01*
X12519200Y9730050D01*
X12515711Y9729356D01*
X12386486Y9858581D01*
X12391346Y9870314D01*
X19088219D01*
X19210995Y9747538D01*
X19211630Y9744344D01*
X19219366Y9732767D01*
X19269244Y9682889D01*
X19268550Y9679400D01*
X19272710Y9658486D01*
X19284557Y9640757D01*
X19302286Y9628910D01*
X19323199Y9624750D01*
X19344113Y9628910D01*
X19361842Y9640757D01*
X19373689Y9658486D01*
X19377849Y9679400D01*
X19373689Y9700314D01*
X19361842Y9718043D01*
X19344113Y9729890D01*
X19323199Y9734050D01*
X19319711Y9733356D01*
X19282605Y9770462D01*
X19281969Y9773656D01*
X19274234Y9785234D01*
X19128233Y9931234D01*
X19116656Y9938969D01*
X19103000Y9941686D01*
D02*
G37*
G36*
X2492400Y9829063D02*
X2466295Y9825626D01*
X2441969Y9815550D01*
X2421079Y9799521D01*
X2405050Y9778631D01*
X2394974Y9754305D01*
X2391537Y9728200D01*
X2394974Y9702095D01*
X2405050Y9677769D01*
X2421079Y9656879D01*
X2441969Y9640850D01*
X2466295Y9630774D01*
X2492400Y9627337D01*
X2518505Y9630774D01*
X2542831Y9640850D01*
X2563721Y9656879D01*
X2579749Y9677769D01*
X2589826Y9702095D01*
X2593263Y9728200D01*
X2589826Y9754305D01*
X2579749Y9778631D01*
X2563721Y9799521D01*
X2542831Y9815550D01*
X2518505Y9825626D01*
X2492400Y9829063D01*
D02*
G37*
G36*
X3471200Y10003621D02*
X3449402Y10000751D01*
X3429089Y9992337D01*
X3411647Y9978953D01*
X3398263Y9961510D01*
X3389849Y9941198D01*
X3386979Y9919400D01*
X3389849Y9897602D01*
X3398263Y9877290D01*
X3411647Y9859847D01*
X3429089Y9846463D01*
X3449402Y9838049D01*
X3471200Y9835179D01*
X3492998Y9838049D01*
X3513310Y9846463D01*
X3530753Y9859847D01*
X3544137Y9877290D01*
X3552551Y9897602D01*
X3555420Y9919400D01*
X3552551Y9941198D01*
X3544137Y9961510D01*
X3530753Y9978953D01*
X3513310Y9992337D01*
X3492998Y10000751D01*
X3471200Y10003621D01*
D02*
G37*
G36*
X10605800Y8637394D02*
X8751601Y8637393D01*
X8743798Y8635841D01*
X8737182Y8631421D01*
X8732762Y8624805D01*
X8731209Y8617002D01*
X8731210Y8455800D01*
X8721400D01*
Y8155800D01*
X8721400D01*
Y8150999D01*
X8721400D01*
Y7851000D01*
X8731210D01*
X8731210Y7702602D01*
X8732763Y7694798D01*
X8737183Y7688182D01*
X8743799Y7683762D01*
X8751602Y7682210D01*
X8913436Y7682209D01*
X8921240Y7683762D01*
X8927855Y7688182D01*
X8932276Y7694798D01*
X8933828Y7702601D01*
Y8063238D01*
X8933566Y8064556D01*
X8933654Y8065900D01*
X8932796Y8068426D01*
X8932276Y8071042D01*
X8931528Y8072160D01*
X8931096Y8073434D01*
X8929337Y8075439D01*
X8927855Y8077657D01*
X8926737Y8078405D01*
X8925850Y8079416D01*
X8921191Y8082991D01*
X8911075Y8096174D01*
X8904716Y8111526D01*
X8902547Y8128000D01*
X8904716Y8144474D01*
X8911075Y8159826D01*
X8921191Y8173009D01*
X8934374Y8183125D01*
X8949726Y8189484D01*
X8966200Y8191653D01*
X8982674Y8189484D01*
X8998026Y8183125D01*
X9011209Y8173009D01*
X9021325Y8159826D01*
X9027684Y8144474D01*
X9029853Y8128000D01*
X9027684Y8111526D01*
X9021325Y8096174D01*
X9011209Y8082991D01*
X9006550Y8079416D01*
X9005663Y8078405D01*
X9004545Y8077657D01*
X9003063Y8075439D01*
X9001304Y8073434D01*
X9000872Y8072160D01*
X9000124Y8071042D01*
X8999604Y8068426D01*
X8998746Y8065900D01*
X8998834Y8064556D01*
X8998572Y8063238D01*
Y7702601D01*
X9000124Y7694798D01*
X9004545Y7688182D01*
X9011160Y7683762D01*
X9018964Y7682209D01*
X9163009Y7682209D01*
X9163010Y6661201D01*
X9164562Y6653398D01*
X9168982Y6646782D01*
X9175598Y6642362D01*
X9183401Y6640809D01*
X9259601Y6640809D01*
X9261316Y6641150D01*
X9263066Y6641105D01*
X9265183Y6641919D01*
X9267405Y6642361D01*
X9268860Y6643333D01*
X9270493Y6643961D01*
X9272136Y6645522D01*
X9274021Y6646782D01*
X9274993Y6648237D01*
X9276261Y6649441D01*
X9439910Y6881277D01*
X9446142Y6886058D01*
X9456961Y6900159D01*
X9462248Y6912922D01*
X9507004Y6976327D01*
X9508241Y6976839D01*
X9522342Y6987658D01*
X9533161Y7001759D01*
X9539963Y7018179D01*
X9540746Y7024127D01*
X9574968Y7072609D01*
X9691401Y7072609D01*
X10605801D01*
X10613604Y7074161D01*
X10620220Y7078582D01*
X10624640Y7085197D01*
X10626193Y7093001D01*
X10626192Y8617002D01*
X10624640Y8624805D01*
X10620219Y8631421D01*
X10613604Y8635842D01*
X10605800Y8637394D01*
D02*
G37*
G36*
X20581799Y8639394D02*
X18727602Y8639393D01*
X18719797Y8637841D01*
X18713182Y8633421D01*
X18708762Y8626805D01*
X18707208Y8619002D01*
X18707208Y8457800D01*
X18697400D01*
Y8157800D01*
X18697398D01*
Y8152999D01*
X18697400D01*
Y7853000D01*
X18707210D01*
X18707210Y7704602D01*
X18708762Y7696798D01*
X18713184Y7690182D01*
X18719798Y7685762D01*
X18727602Y7684210D01*
X18889436Y7684209D01*
X18897240Y7685762D01*
X18903854Y7690182D01*
X18908275Y7696798D01*
X18909828Y7704601D01*
Y8065238D01*
X18909566Y8066556D01*
X18909653Y8067900D01*
X18908797Y8070426D01*
X18908275Y8073042D01*
X18907529Y8074160D01*
X18907095Y8075434D01*
X18905338Y8077439D01*
X18903854Y8079657D01*
X18902736Y8080405D01*
X18901849Y8081416D01*
X18897189Y8084991D01*
X18887074Y8098174D01*
X18880716Y8113526D01*
X18878548Y8130000D01*
X18880716Y8146474D01*
X18887074Y8161826D01*
X18897191Y8175009D01*
X18910373Y8185125D01*
X18925726Y8191484D01*
X18942200Y8193653D01*
X18958675Y8191484D01*
X18974026Y8185125D01*
X18987209Y8175009D01*
X18997324Y8161826D01*
X19003683Y8146474D01*
X19005852Y8130000D01*
X19003683Y8113526D01*
X18997324Y8098174D01*
X18987209Y8084991D01*
X18982550Y8081416D01*
X18981664Y8080405D01*
X18980544Y8079657D01*
X18979062Y8077439D01*
X18977304Y8075434D01*
X18976871Y8074160D01*
X18976125Y8073042D01*
X18975604Y8070426D01*
X18974747Y8067900D01*
X18974834Y8066556D01*
X18974573Y8065238D01*
Y7704601D01*
X18976125Y7696798D01*
X18980544Y7690182D01*
X18987160Y7685762D01*
X18994965Y7684209D01*
X19139009Y7684209D01*
X19139009Y6663201D01*
X19140561Y6655398D01*
X19144981Y6648782D01*
X19151598Y6644362D01*
X19159401Y6642809D01*
X19235600Y6642809D01*
X19237315Y6643150D01*
X19239066Y6643105D01*
X19241182Y6643919D01*
X19243405Y6644361D01*
X19244859Y6645333D01*
X19246492Y6645961D01*
X19248135Y6647522D01*
X19250020Y6648782D01*
X19250993Y6650237D01*
X19252260Y6651441D01*
X19415909Y6883277D01*
X19422141Y6888058D01*
X19432961Y6902159D01*
X19438248Y6914922D01*
X19483003Y6978326D01*
X19484241Y6978839D01*
X19498341Y6989658D01*
X19509161Y7003759D01*
X19515962Y7020179D01*
X19516745Y7026127D01*
X19550967Y7074609D01*
X19667401Y7074609D01*
X20581799D01*
X20589604Y7076161D01*
X20596220Y7080582D01*
X20600639Y7087197D01*
X20602193Y7095001D01*
X20602191Y8619002D01*
X20600639Y8626805D01*
X20596219Y8633421D01*
X20589603Y8637841D01*
X20581799Y8639394D01*
D02*
G37*
G36*
X2492400Y2539263D02*
X2466295Y2535826D01*
X2441969Y2525750D01*
X2421079Y2509721D01*
X2405050Y2488831D01*
X2394974Y2464505D01*
X2391537Y2438400D01*
X2394974Y2412295D01*
X2405050Y2387969D01*
X2421079Y2367079D01*
X2441969Y2351050D01*
X2466295Y2340974D01*
X2492400Y2337537D01*
X2518505Y2340974D01*
X2542831Y2351050D01*
X2563721Y2367079D01*
X2579749Y2387969D01*
X2585857Y2402714D01*
X2943400D01*
Y2373400D01*
X3053400D01*
Y2503400D01*
X2943400D01*
Y2474085D01*
X2585857D01*
X2579749Y2488831D01*
X2563721Y2509721D01*
X2542831Y2525750D01*
X2518505Y2535826D01*
X2492400Y2539263D01*
D02*
G37*
G36*
X17137801Y8622393D02*
X15283601Y8622393D01*
X15275797Y8620841D01*
X15269182Y8616421D01*
X15264761Y8609805D01*
X15263210Y8602001D01*
X15263210Y8440799D01*
X15253400D01*
Y8140800D01*
X15253400D01*
Y8135999D01*
X15253400D01*
Y7836000D01*
X15263210D01*
X15263210Y7687601D01*
X15264761Y7679798D01*
X15269183Y7673182D01*
X15275800Y7668762D01*
X15283601Y7667209D01*
X15445436Y7667209D01*
X15453239Y7668761D01*
X15459856Y7673182D01*
X15464276Y7679797D01*
X15465828Y7687601D01*
Y8048238D01*
X15465565Y8049556D01*
X15465654Y8050899D01*
X15464796Y8053426D01*
X15464276Y8056041D01*
X15463528Y8057160D01*
X15463097Y8058434D01*
X15461337Y8060439D01*
X15459856Y8062657D01*
X15458736Y8063404D01*
X15457851Y8064416D01*
X15453191Y8067991D01*
X15443076Y8081174D01*
X15436716Y8096526D01*
X15434547Y8113000D01*
X15436716Y8129474D01*
X15443076Y8144826D01*
X15453191Y8158009D01*
X15466373Y8168124D01*
X15481726Y8174484D01*
X15498199Y8176652D01*
X15514674Y8174484D01*
X15530026Y8168125D01*
X15543208Y8158009D01*
X15553325Y8144826D01*
X15559685Y8129474D01*
X15561853Y8113000D01*
X15559685Y8096526D01*
X15553325Y8081174D01*
X15543208Y8067991D01*
X15538550Y8064416D01*
X15537663Y8063404D01*
X15536543Y8062657D01*
X15535062Y8060439D01*
X15533304Y8058434D01*
X15532870Y8057160D01*
X15532124Y8056041D01*
X15531604Y8053426D01*
X15530746Y8050899D01*
X15530833Y8049556D01*
X15530573Y8048238D01*
Y7687601D01*
X15532124Y7679797D01*
X15536543Y7673182D01*
X15543159Y7668761D01*
X15550964Y7667209D01*
X15695009Y7667209D01*
X15695010Y6646201D01*
X15696562Y6638397D01*
X15700983Y6631782D01*
X15707597Y6627361D01*
X15715401Y6625809D01*
X15791602Y6625809D01*
X15793317Y6626150D01*
X15795065Y6626105D01*
X15797183Y6626919D01*
X15799405Y6627361D01*
X15800859Y6628333D01*
X15802492Y6628961D01*
X15804137Y6630522D01*
X15806021Y6631782D01*
X15806993Y6633237D01*
X15808261Y6634441D01*
X15971910Y6866276D01*
X15978142Y6871058D01*
X15988960Y6885159D01*
X15994247Y6897922D01*
D01*
X16016995Y6930148D01*
X16039005Y6961326D01*
X16040240Y6961839D01*
X16054343Y6972658D01*
X16065161Y6986759D01*
X16071964Y7003179D01*
X16072746Y7009127D01*
X16106969Y7057609D01*
X16223401Y7057609D01*
X17137801D01*
X17145604Y7059161D01*
X17152220Y7063582D01*
X17156641Y7070197D01*
X17158192Y7078001D01*
X17158192Y8602002D01*
X17156641Y8609805D01*
X17152219Y8616421D01*
X17145604Y8620841D01*
X17137801Y8622393D01*
D02*
G37*
G36*
X13777800Y8635394D02*
X11923601Y8635393D01*
X11915797Y8633841D01*
X11909182Y8629421D01*
X11904761Y8622805D01*
X11903209Y8615002D01*
X11903209Y8453800D01*
X11893400D01*
Y8153800D01*
X11893399D01*
Y8148999D01*
X11893400D01*
Y7849000D01*
X11903210D01*
X11903210Y7700602D01*
X11904762Y7692798D01*
X11909183Y7686182D01*
X11915798Y7681762D01*
X11923602Y7680210D01*
X12085436Y7680209D01*
X12093239Y7681762D01*
X12099855Y7686182D01*
X12104276Y7692798D01*
X12105828Y7700601D01*
Y8061238D01*
X12105565Y8062556D01*
X12105653Y8063900D01*
X12104796Y8066426D01*
X12104276Y8069042D01*
X12103528Y8070160D01*
X12103096Y8071434D01*
X12101337Y8073439D01*
X12099855Y8075657D01*
X12098736Y8076405D01*
X12097850Y8077416D01*
X12093190Y8080991D01*
X12083075Y8094174D01*
X12076716Y8109526D01*
X12074547Y8126000D01*
X12076716Y8142474D01*
X12083075Y8157826D01*
X12093191Y8171009D01*
X12106374Y8181125D01*
X12121726Y8187484D01*
X12138200Y8189653D01*
X12154674Y8187484D01*
X12170026Y8181125D01*
X12183209Y8171009D01*
X12193325Y8157826D01*
X12199684Y8142474D01*
X12201852Y8126000D01*
X12199684Y8109526D01*
X12193325Y8094174D01*
X12183209Y8080991D01*
X12178550Y8077416D01*
X12177663Y8076405D01*
X12176544Y8075657D01*
X12175062Y8073439D01*
X12173304Y8071434D01*
X12172871Y8070160D01*
X12172124Y8069042D01*
X12171604Y8066426D01*
X12170746Y8063900D01*
X12170834Y8062556D01*
X12170572Y8061238D01*
Y7700601D01*
X12172124Y7692798D01*
X12176544Y7686182D01*
X12183160Y7681762D01*
X12190964Y7680209D01*
X12335009Y7680209D01*
X12335009Y6659201D01*
X12336562Y6651398D01*
X12340982Y6644782D01*
X12347598Y6640362D01*
X12355401Y6638809D01*
X12431601Y6638809D01*
X12433316Y6639150D01*
X12435066Y6639105D01*
X12437183Y6639919D01*
X12439405Y6640361D01*
X12440859Y6641333D01*
X12442492Y6641961D01*
X12444135Y6643522D01*
X12446021Y6644782D01*
X12446993Y6646237D01*
X12448261Y6647441D01*
X12611909Y6879277D01*
X12618141Y6884058D01*
X12628961Y6898159D01*
X12634248Y6910922D01*
X12679004Y6974327D01*
X12680241Y6974839D01*
X12694341Y6985658D01*
X12705161Y6999759D01*
X12711962Y7016179D01*
X12712745Y7022127D01*
X12746968Y7070609D01*
X12863400Y7070609D01*
X13777800D01*
X13785603Y7072161D01*
X13792220Y7076582D01*
X13796640Y7083197D01*
X13798192Y7091001D01*
X13798192Y8615002D01*
X13796638Y8622805D01*
X13792220Y8629421D01*
X13785603Y8633842D01*
X13777800Y8635394D01*
D02*
G37*
G36*
X3451000Y8022764D02*
X3430808Y8018747D01*
X3413690Y8007310D01*
X3402253Y7990192D01*
X3398236Y7970000D01*
X3402253Y7949808D01*
X3413690Y7932690D01*
X3417659Y7930038D01*
Y7651810D01*
X2643280Y6877430D01*
X2640171Y6880540D01*
X2541431D01*
X2492061Y6831170D01*
Y6732430D01*
X2541431Y6683060D01*
X2640171D01*
X2640822Y6683711D01*
X2765314Y6559218D01*
Y6100381D01*
X2748970Y6084038D01*
D01*
X2590966Y5926034D01*
X2583231Y5914456D01*
X2580514Y5900800D01*
Y5449700D01*
X2583231Y5436044D01*
X2590966Y5424466D01*
X2758890Y5256542D01*
X2753576Y5243713D01*
X2750270Y5218600D01*
X2753576Y5193487D01*
X2763270Y5170085D01*
X2778690Y5149989D01*
X2798785Y5134569D01*
X2822187Y5124876D01*
X2847300Y5121570D01*
X2872413Y5124876D01*
X2895815Y5134569D01*
X2915911Y5149989D01*
X2931331Y5170085D01*
X2941024Y5193487D01*
X2944330Y5218600D01*
X2941024Y5243713D01*
X2931331Y5267115D01*
X2915911Y5287210D01*
X2895815Y5302630D01*
X2872413Y5312324D01*
X2847300Y5315630D01*
X2822187Y5312324D01*
X2809358Y5307010D01*
X2651886Y5464482D01*
Y5886018D01*
X2826234Y6060366D01*
X2833969Y6071944D01*
X2836686Y6085600D01*
Y6096000D01*
X2837386D01*
X2836686Y6096738D01*
Y6574000D01*
X2833969Y6587656D01*
X2826234Y6599233D01*
X2689541Y6735926D01*
Y6829390D01*
X3474575Y7614425D01*
X3481803Y7625241D01*
X3484341Y7638000D01*
Y7930038D01*
X3488310Y7932690D01*
X3499747Y7949808D01*
X3503764Y7970000D01*
X3499747Y7990192D01*
X3488310Y8007310D01*
X3471192Y8018747D01*
X3451000Y8022764D01*
D02*
G37*
G36*
X21255000Y7580561D02*
X21238031Y7578327D01*
X21222220Y7571777D01*
X21208643Y7561358D01*
X21198222Y7547780D01*
X21191673Y7531968D01*
X21189439Y7515000D01*
X21191673Y7498031D01*
X21198222Y7482220D01*
X21208643Y7468642D01*
X21222220Y7458223D01*
X21238031Y7451673D01*
X21255000Y7449439D01*
X21271968Y7451673D01*
X21287781Y7458223D01*
X21297539Y7465710D01*
X21418437D01*
X21419858Y7463858D01*
X21433958Y7453039D01*
X21450378Y7446237D01*
X21467999Y7443918D01*
X21485622Y7446237D01*
X21502042Y7453039D01*
X21516142Y7463858D01*
X21526961Y7477959D01*
X21533763Y7494379D01*
X21536082Y7512000D01*
X21533763Y7529621D01*
X21526961Y7546041D01*
X21516142Y7560142D01*
X21502042Y7570961D01*
X21485622Y7577763D01*
X21467999Y7580082D01*
X21450378Y7577763D01*
X21433958Y7570961D01*
X21419858Y7560142D01*
X21418437Y7558289D01*
X21303712D01*
X21301358Y7561358D01*
X21287781Y7571777D01*
X21271968Y7578327D01*
X21255000Y7580561D01*
D02*
G37*
G36*
X2492400Y8279663D02*
X2466295Y8276226D01*
X2441969Y8266150D01*
X2421079Y8250121D01*
X2405050Y8229231D01*
X2394974Y8204905D01*
X2391537Y8178800D01*
X2394974Y8152695D01*
X2405050Y8128369D01*
X2421079Y8107479D01*
X2441969Y8091450D01*
X2466295Y8081374D01*
X2492400Y8077937D01*
X2518505Y8081374D01*
X2542831Y8091450D01*
X2563721Y8107479D01*
X2579749Y8128369D01*
X2589826Y8152695D01*
X2593263Y8178800D01*
X2589826Y8204905D01*
X2579749Y8229231D01*
X2563721Y8250121D01*
X2542831Y8266150D01*
X2518505Y8276226D01*
X2492400Y8279663D01*
D02*
G37*
G36*
Y8533663D02*
X2466295Y8530226D01*
X2441969Y8520150D01*
X2421079Y8504121D01*
X2405050Y8483231D01*
X2394974Y8458905D01*
X2391537Y8432800D01*
X2394974Y8406695D01*
X2405050Y8382369D01*
X2421079Y8361479D01*
X2441969Y8345450D01*
X2466295Y8335374D01*
X2492400Y8331937D01*
X2518505Y8335374D01*
X2542831Y8345450D01*
X2563721Y8361479D01*
X2579749Y8382369D01*
X2589826Y8406695D01*
X2593263Y8432800D01*
X2589826Y8458905D01*
X2579749Y8483231D01*
X2563721Y8504121D01*
X2542831Y8520150D01*
X2518505Y8530226D01*
X2492400Y8533663D01*
D02*
G37*
G36*
X2640171Y7134540D02*
X2541431D01*
X2492061Y7085170D01*
Y6986430D01*
X2541431Y6937060D01*
X2640171D01*
X2689541Y6986430D01*
Y7085170D01*
X2640171Y7134540D01*
D02*
G37*
G36*
Y7388540D02*
X2541431D01*
X2492061Y7339170D01*
Y7240430D01*
X2541431Y7191060D01*
X2640171D01*
X2689541Y7240430D01*
Y7339170D01*
X2640171Y7388540D01*
D02*
G37*
%LPD*%
G36*
X5334000Y5936800D02*
X4281360D01*
X4031360Y5936800D01*
Y6596760D01*
X4038600Y6604000D01*
X5334000D01*
X5334000Y5936800D01*
D02*
G37*
G36*
X10605801Y7093001D02*
X9691401D01*
X9564402Y7093001D01*
X9259601Y6661201D01*
X9183401Y6661201D01*
X9183401Y7702601D01*
X9018964Y7702601D01*
Y8063238D01*
X9025753Y8068447D01*
X9039137Y8085890D01*
X9047551Y8106202D01*
X9050421Y8128000D01*
X9047551Y8149798D01*
X9039137Y8170110D01*
X9025753Y8187553D01*
X9008310Y8200937D01*
X8987998Y8209351D01*
X8966200Y8212221D01*
X8944402Y8209351D01*
X8924090Y8200937D01*
X8906647Y8187553D01*
X8893263Y8170110D01*
X8884849Y8149798D01*
X8881979Y8128000D01*
X8884849Y8106202D01*
X8893263Y8085890D01*
X8906647Y8068447D01*
X8913436Y8063238D01*
Y7702601D01*
X8751602Y7702602D01*
X8751601Y8617002D01*
X10605800Y8617002D01*
X10605801Y7093001D01*
D02*
G37*
G36*
X20581799Y7095001D02*
X19667401D01*
X19540402Y7095001D01*
X19235600Y6663201D01*
X19159401Y6663201D01*
X19159401Y7704601D01*
X18994965Y7704601D01*
Y8065238D01*
X19001752Y8070447D01*
X19015137Y8087890D01*
X19023550Y8108202D01*
X19026421Y8130000D01*
X19023550Y8151798D01*
X19015137Y8172110D01*
X19001752Y8189553D01*
X18984309Y8202937D01*
X18963997Y8211351D01*
X18942200Y8214221D01*
X18920403Y8211351D01*
X18900089Y8202937D01*
X18882648Y8189553D01*
X18869263Y8172110D01*
X18860849Y8151798D01*
X18857979Y8130000D01*
X18860849Y8108202D01*
X18869263Y8087890D01*
X18882648Y8070447D01*
X18889436Y8065238D01*
Y7704601D01*
X18727602Y7704602D01*
X18727602Y8619002D01*
X20581799Y8619002D01*
X20581799Y7095001D01*
D02*
G37*
G36*
X17137801Y7078001D02*
X16223401D01*
X16096402Y7078001D01*
X15791602Y6646201D01*
X15715401Y6646201D01*
X15715401Y7687601D01*
X15550964Y7687601D01*
Y8048238D01*
X15557753Y8053447D01*
X15571136Y8070890D01*
X15579552Y8091202D01*
X15582420Y8113000D01*
X15579552Y8134798D01*
X15571136Y8155110D01*
X15557753Y8172553D01*
X15540311Y8185937D01*
X15519998Y8194351D01*
X15498199Y8197220D01*
X15476402Y8194351D01*
X15456088Y8185937D01*
X15438647Y8172553D01*
X15425262Y8155110D01*
X15416849Y8134798D01*
X15413979Y8113000D01*
X15416849Y8091202D01*
X15425262Y8070890D01*
X15438647Y8053447D01*
X15445436Y8048238D01*
Y7687601D01*
X15283601Y7687601D01*
X15283601Y8602001D01*
X17137801Y8602002D01*
X17137801Y7078001D01*
D02*
G37*
G36*
X13777800Y7091001D02*
X12863400D01*
X12736402Y7091001D01*
X12431601Y6659201D01*
X12355401Y6659201D01*
X12355401Y7700601D01*
X12190964Y7700601D01*
Y8061238D01*
X12197753Y8066447D01*
X12211137Y8083890D01*
X12219551Y8104202D01*
X12222420Y8126000D01*
X12219551Y8147798D01*
X12211137Y8168110D01*
X12197753Y8185553D01*
X12180310Y8198937D01*
X12159998Y8207351D01*
X12138200Y8210221D01*
X12116402Y8207351D01*
X12096090Y8198937D01*
X12078647Y8185553D01*
X12065263Y8168110D01*
X12056849Y8147798D01*
X12053979Y8126000D01*
X12056849Y8104202D01*
X12065263Y8083890D01*
X12078647Y8066447D01*
X12085436Y8061238D01*
Y7700601D01*
X11923602Y7700602D01*
X11923601Y8615002D01*
X13777800Y8615002D01*
X13777800Y7091001D01*
D02*
G37*
D10*
X22720000Y2762000D02*
D03*
X21870000Y3112000D02*
D03*
Y2762000D02*
D03*
X22720000Y3112000D02*
D03*
X22716000Y3552000D02*
D03*
X21866000Y3902000D02*
D03*
Y3552000D02*
D03*
X22716000Y3902000D02*
D03*
D11*
X13074001Y1880000D02*
D03*
Y2150000D02*
D03*
X13385001Y1882000D02*
D03*
Y2152000D02*
D03*
X13685001Y1880000D02*
D03*
Y2150000D02*
D03*
X19153000Y3079000D02*
D03*
Y3349000D02*
D03*
X19836000Y3071000D02*
D03*
Y3341000D02*
D03*
X19506000Y3079000D02*
D03*
Y3349000D02*
D03*
D12*
X17355000Y3299000D02*
D03*
Y3149000D02*
D03*
X22860001Y8383200D02*
D03*
Y8533200D02*
D03*
X23037801Y8431600D02*
D03*
Y8281600D02*
D03*
X22834599Y8177600D02*
D03*
Y8027600D02*
D03*
X22656799Y7923600D02*
D03*
Y7773600D02*
D03*
X12601000Y2678000D02*
D03*
Y2528000D02*
D03*
X13731000Y10800996D02*
D03*
Y10650999D02*
D03*
X9230360Y10715056D02*
D03*
Y10565059D02*
D03*
D13*
X2998400Y2438400D02*
D03*
X3148400D02*
D03*
D15*
X8796400Y8001000D02*
D03*
X8526400D02*
D03*
X8796400Y8305800D02*
D03*
X8526400D02*
D03*
X11592000Y3094000D02*
D03*
X11862000D02*
D03*
X11968400Y8303800D02*
D03*
X11698400D02*
D03*
X11968400Y7999000D02*
D03*
X11698400D02*
D03*
X15328400Y8290800D02*
D03*
X15058400D02*
D03*
X15328400Y7986000D02*
D03*
X15058400D02*
D03*
X18772400Y8307800D02*
D03*
X18502400D02*
D03*
X18772400Y8003000D02*
D03*
X18502400D02*
D03*
X18446001Y3652000D02*
D03*
X18716000D02*
D03*
D18*
X17786000Y3450000D02*
D03*
Y2960000D02*
D03*
X13016000Y2560000D02*
D03*
Y3050000D02*
D03*
D47*
X23241000Y4349000D02*
X23749001D01*
Y4095000D02*
Y4349000D01*
X23241000Y2063000D02*
X23749001D01*
X23241000Y2317000D02*
X23749001D01*
X23241000Y4095000D02*
Y4349000D01*
X23749001Y4603000D02*
Y4857000D01*
X23241000D02*
X23749001D01*
X23241000Y4603000D02*
Y4857000D01*
X22697000Y3573000D02*
X23746001D01*
X22689999Y3841000D02*
X23749001D01*
D48*
X11406000Y5625000D02*
X11693000D01*
X11405000Y5624000D02*
X11406000Y5625000D01*
X11222000Y5624000D02*
X11405000D01*
X14622000Y5573000D02*
X14853000D01*
X14861000Y5569000D02*
X15077000D01*
X14853000Y5573000D02*
X14856000Y5570000D01*
X3377000Y8550840D02*
Y8967540D01*
X22860001Y8382000D02*
X22936200D01*
X22734200Y8383200D02*
X22860001D01*
X22378600Y7923600D02*
X22656799D01*
X22708800Y8177600D02*
X22834599D01*
X22936200Y8382000D02*
X22985800Y8431600D01*
X23037801D01*
X8966200Y7569200D02*
Y8128000D01*
X23231100Y7152900D02*
X23241000Y7162800D01*
X12138200Y7567200D02*
Y8126000D01*
X15498199Y7554200D02*
Y8113000D01*
X18942200Y7571200D02*
Y8130000D01*
D49*
X10693400Y2895600D02*
Y3021600D01*
X10507000Y3208000D02*
X10693400Y3021600D01*
X7449800Y3208000D02*
X10507000D01*
X7442200Y3200400D02*
X7449800Y3208000D01*
X14781599Y2895600D02*
X15374001Y3488000D01*
X13970000Y2895600D02*
X14781599D01*
X5288000Y9299000D02*
X5793000Y9804000D01*
X10657000D01*
X9295600Y9729000D02*
X9347200Y9677400D01*
X5899090Y9729000D02*
X9295600D01*
X5408000Y9237910D02*
X5899090Y9729000D01*
X15810300Y9731300D02*
X15879201Y9662400D01*
X10657000Y9804000D02*
X10891000Y9570000D01*
X12567000D01*
X12728300Y9731300D01*
X15810300D01*
X12340600Y9854000D02*
X12519200Y9675400D01*
X9241310Y9854000D02*
X12340600D01*
X9239310Y9856000D02*
X9241310Y9854000D01*
X5775000Y9856000D02*
X9239310D01*
X19244598Y9758000D02*
X19323199Y9679400D01*
X19103000Y9906000D02*
X19249001Y9760000D01*
X5660000Y9906000D02*
X19103000D01*
X22733000Y7797800D02*
X23012399Y7518400D01*
X23672800D02*
X23774400Y7416800D01*
X23012399Y7518400D02*
X23672800D01*
X23342599Y8026400D02*
X23723599Y7645400D01*
X23367999Y8280400D02*
X23749001Y7899400D01*
X23378200Y8524200D02*
X23749001Y8153400D01*
X7947000Y6212606D02*
X8433706Y5725900D01*
X7997000Y6233316D02*
X8454416Y5775900D01*
X8047000Y6254027D02*
X8475127Y5825900D01*
X8097000Y6274737D02*
X8495837Y5875900D01*
X7902597Y6262501D02*
X7947000Y6218097D01*
X7923307Y6312501D02*
X7997000Y6238808D01*
X7944017Y6362501D02*
X8047000Y6259518D01*
X7964728Y6412501D02*
X8097000Y6280228D01*
Y6274737D02*
Y6280228D01*
X8047000Y6254027D02*
Y6259518D01*
X7997000Y6233316D02*
Y6238808D01*
X7947000Y6212606D02*
Y6218097D01*
X3148400Y2438400D02*
X11023600D01*
X2467000D02*
X2998400D01*
X4038600Y2743200D02*
X10566400D01*
X2797200Y3022600D02*
X10414000D01*
X2467000Y2692400D02*
X2797200Y3022600D01*
X2616200Y5449700D02*
Y5900800D01*
Y5449700D02*
X2847300Y5218600D01*
X2467000Y3327400D02*
X8796000D01*
X9767600Y4299001D01*
X7289800Y5664200D02*
X7366000Y5588000D01*
X7289800Y5664200D02*
Y6045200D01*
X22148801Y7797800D02*
X22733000D01*
X22306689Y8026400D02*
X23342599D01*
X22489980Y8280400D02*
X23367999D01*
X22663069Y8524200D02*
X23378200D01*
X21724100Y7585231D02*
X22663069Y8524200D01*
X21774100Y7564520D02*
X22489980Y8280400D01*
X21824100Y7543810D02*
X22306689Y8026400D01*
X21874100Y7523100D02*
X22148801Y7797800D01*
X21023563Y5875900D02*
X21724100Y6576437D01*
X21044273Y5825900D02*
X21774100Y6555726D01*
X21064984Y5775900D02*
X21824100Y6535016D01*
X21085693Y5725900D02*
X21874100Y6514305D01*
X8495837Y5875900D02*
X21023563D01*
X21724100Y6576437D02*
Y7585231D01*
X8475127Y5825900D02*
X21044273D01*
X21774100Y6555726D02*
Y7564520D01*
X8454416Y5775900D02*
X21064984D01*
X21824100Y6535016D02*
Y7543810D01*
X8433706Y5725900D02*
X21085693D01*
X21874100Y6514305D02*
Y7523100D01*
X2616200Y5900800D02*
X2801000Y6085600D01*
Y6574000D01*
X2599000Y6776000D02*
X2801000Y6574000D01*
X5408000Y8761000D02*
Y9237910D01*
X5288000Y8952000D02*
Y9299000D01*
X5143000Y9224710D02*
X5774290Y9856000D01*
X5143000Y9115000D02*
Y9224710D01*
X5063000Y9309000D02*
X5660000Y9906000D01*
X4408000Y7691206D02*
X5836705Y6262501D01*
X4486000Y7683917D02*
X5857416Y6312501D01*
X4570000Y7670627D02*
X5878126Y6362501D01*
X4663000Y7648337D02*
X5898837Y6412501D01*
X4663000Y7648337D02*
Y8166000D01*
X5898837Y6412501D02*
X7964728D01*
X4570000Y7670627D02*
Y8154000D01*
X5878126Y6362501D02*
X7944017D01*
X4486000Y7683917D02*
Y8163000D01*
X5857416Y6312501D02*
X7923307D01*
X4408000Y7691206D02*
Y8160000D01*
X5836705Y6262501D02*
X7902597D01*
X4844400Y7863800D02*
X5062000Y8081400D01*
X4862400Y7751800D02*
X5148000Y8037400D01*
Y8378000D01*
X5062000Y8081400D02*
Y8202000D01*
X5288000Y8641000D02*
X5408000Y8761000D01*
D50*
X12728000Y3038000D02*
X13014999D01*
X12601000Y2911000D02*
X12728000Y3038000D01*
X12601000Y2678000D02*
Y2911000D01*
X17528000Y3472000D02*
X17773000D01*
X17355000Y3299000D02*
X17528000Y3472000D01*
D51*
X20408900Y10797540D02*
X20662900Y10543540D01*
Y10259060D02*
Y10543540D01*
X6311195Y10797540D02*
X20408900D01*
X6129340Y10615685D02*
X6311195Y10797540D01*
X6129340Y10289860D02*
Y10615685D01*
X5996940Y10157460D02*
X6129340Y10289860D01*
X6174740Y10238740D02*
Y10596880D01*
X13114020Y10358120D02*
X13225780Y10246360D01*
X13088620Y10358120D02*
X13114020D01*
X12702540Y10744200D02*
X13088620Y10358120D01*
X6322060Y10744200D02*
X12702540D01*
X6174740Y10596880D02*
X6322060Y10744200D01*
X23235400Y8915400D02*
X23241000Y8921000D01*
X8144700Y6294495D02*
X8515595Y5923600D01*
X8190100Y6313300D02*
X8534400Y5969000D01*
X8190100Y6313300D02*
Y6318792D01*
X8144700Y6294495D02*
Y6299986D01*
X23241000Y8667000D02*
X23749001D01*
X23241000Y8921000D02*
X23749001D01*
X6029960Y10093960D02*
X6174740Y10238740D01*
X5465960Y10093960D02*
X6029960D01*
X22732811Y8661400D02*
X23241000D01*
X21676401Y7604989D02*
X22732811Y8661400D01*
X21631000Y7635000D02*
X22911400Y8915400D01*
X23235400D01*
X8534400Y5969000D02*
X20985001D01*
X21631000Y6615000D01*
Y7635000D01*
X21003806Y5923600D02*
X21676401Y6596195D01*
X8515595Y5923600D02*
X21003806D01*
X21676401Y6596195D02*
Y7604989D01*
X5443000Y10071000D02*
X5465960Y10093960D01*
X5220000Y10071000D02*
X5443000D01*
X4509000Y9360000D02*
X5220000Y10071000D01*
X5057460Y10157460D02*
X5996940D01*
X4280000Y9380000D02*
X5057460Y10157460D01*
X4280000Y9141000D02*
Y9380000D01*
X3451000Y7638000D02*
Y7970000D01*
X2598000Y6785000D02*
X3451000Y7638000D01*
X4778000Y7665000D02*
X5935000Y6508000D01*
X8000891D01*
X8190100Y6318792D01*
X5916195Y6462600D02*
X7982086D01*
X8144700Y6299986D01*
X4814395Y8941000D02*
X4830000D01*
X4778000Y8782000D02*
X4779000D01*
X4837400Y8840400D01*
X4778000Y7665000D02*
Y7834458D01*
X4776700Y7835758D02*
X4778000Y7834458D01*
X4776700Y7835758D02*
Y7891842D01*
X4778000Y7893142D01*
Y8782000D01*
X4731300Y7647495D02*
Y8857905D01*
Y7647495D02*
X5916195Y6462600D01*
X4731300Y8857905D02*
X4814395Y8941000D01*
D52*
X23215601Y7416800D02*
X23241000Y7391400D01*
X22987000Y7416800D02*
X23215601D01*
X23164799Y7823200D02*
X23241000Y7899400D01*
X22987000Y7823200D02*
X23164799D01*
X23611000Y6259400D02*
X23749001Y6121400D01*
X23029401Y6259400D02*
X23611000D01*
X23026401Y6262400D02*
X23029401Y6259400D01*
X23622000Y5740400D02*
X23749001Y5613400D01*
X23291568Y5740400D02*
X23622000D01*
X23291368Y5740600D02*
X23291568Y5740400D01*
X23152002Y5740600D02*
X23291368D01*
X23018800Y5873801D02*
X23152002Y5740600D01*
X21287000Y7512000D02*
X21467999D01*
D53*
X6684467Y10086340D02*
X22583659D01*
X6331402Y10439405D02*
X6684467Y10086340D01*
X22583659D02*
X23241000Y9429000D01*
X3962400Y10388600D02*
X5911398D01*
X23241000Y9429000D02*
X23749001D01*
X3660000Y10086200D02*
X3962400Y10388600D01*
X3660000Y5960000D02*
Y10086200D01*
D56*
X3096300Y5794100D02*
D03*
Y5093100D02*
D03*
D57*
X2847300Y5218600D02*
D03*
Y5668600D02*
D03*
X23749001Y9937000D02*
D03*
Y9683000D02*
D03*
Y9429000D02*
D03*
Y9175000D02*
D03*
Y8921000D02*
D03*
Y8667000D02*
D03*
Y8413000D02*
D03*
Y8159000D02*
D03*
Y7905000D02*
D03*
Y7651000D02*
D03*
Y7397000D02*
D03*
Y7143000D02*
D03*
Y6889000D02*
D03*
Y6635000D02*
D03*
Y6381000D02*
D03*
Y6127000D02*
D03*
Y5873000D02*
D03*
Y5619000D02*
D03*
Y5365000D02*
D03*
Y5111000D02*
D03*
Y4857000D02*
D03*
Y4603000D02*
D03*
Y4349000D02*
D03*
Y4095000D02*
D03*
Y3841000D02*
D03*
Y3587000D02*
D03*
Y3333000D02*
D03*
Y3079000D02*
D03*
Y2825000D02*
D03*
Y2571000D02*
D03*
Y2317000D02*
D03*
Y2063000D02*
D03*
X23241000Y9937000D02*
D03*
Y9683000D02*
D03*
Y9429000D02*
D03*
Y9175000D02*
D03*
Y8921000D02*
D03*
Y8667000D02*
D03*
Y8413000D02*
D03*
Y8159000D02*
D03*
Y7905000D02*
D03*
Y7651000D02*
D03*
Y7397000D02*
D03*
Y7143000D02*
D03*
Y6889000D02*
D03*
Y6635000D02*
D03*
Y6381000D02*
D03*
Y6127000D02*
D03*
Y5873000D02*
D03*
Y5619000D02*
D03*
Y5365000D02*
D03*
Y5111000D02*
D03*
Y4857000D02*
D03*
Y4603000D02*
D03*
Y4349000D02*
D03*
Y4095000D02*
D03*
Y3841000D02*
D03*
Y3587000D02*
D03*
Y3333000D02*
D03*
Y3079000D02*
D03*
Y2825000D02*
D03*
Y2571000D02*
D03*
Y2317000D02*
D03*
Y2063000D02*
D03*
D58*
X2492400Y9474200D02*
D03*
Y9728200D02*
D03*
Y8432800D02*
D03*
Y8178800D02*
D03*
Y9093200D02*
D03*
Y8839200D02*
D03*
Y4597400D02*
D03*
Y4343400D02*
D03*
Y3962400D02*
D03*
Y3708400D02*
D03*
Y3327400D02*
D03*
Y3073400D02*
D03*
Y2692400D02*
D03*
Y2438400D02*
D03*
D59*
X2336801Y7289800D02*
D03*
X2590801D02*
D03*
Y7035800D02*
D03*
X2336801D02*
D03*
Y6781800D02*
D03*
X2590801D02*
D03*
X2336801Y6527800D02*
D03*
X2590801D02*
D03*
X2336801Y6273800D02*
D03*
X2590801D02*
D03*
D60*
X24003000Y10445000D02*
D03*
Y1555000D02*
D03*
D61*
X7924800Y8864600D02*
D03*
Y9144000D02*
D03*
D62*
X2557000Y10444400D02*
D03*
Y1554900D02*
D03*
D63*
X11222000Y5624000D02*
D03*
X11684000Y5620000D02*
D03*
X13789999Y5134000D02*
D03*
X14622000Y5573000D02*
D03*
X15077000Y5569000D02*
D03*
X12728000Y3037000D02*
D03*
X13528000Y5626000D02*
D03*
X21255000Y7515000D02*
D03*
D64*
X8331200Y10566400D02*
D03*
Y10464800D02*
D03*
Y10363200D02*
D03*
X8432800D02*
D03*
Y10464800D02*
D03*
Y10566400D02*
D03*
X13690601Y10236200D02*
D03*
Y10337800D02*
D03*
Y10439400D02*
D03*
X13589000Y10337800D02*
D03*
Y10439400D02*
D03*
Y10236200D02*
D03*
X22199600Y5638800D02*
D03*
X22301199D02*
D03*
X22402800D02*
D03*
X21361400Y5461000D02*
D03*
X21259801Y5638800D02*
D03*
Y5537200D02*
D03*
Y5410200D02*
D03*
X21158200D02*
D03*
Y5537200D02*
D03*
Y5638800D02*
D03*
X21056599Y5410200D02*
D03*
Y5537200D02*
D03*
Y5638800D02*
D03*
X9321800Y6832600D02*
D03*
X9398000Y6934200D02*
D03*
X9474200Y7035800D02*
D03*
Y7162800D02*
D03*
X9372600Y7264400D02*
D03*
Y7112000D02*
D03*
X8051800Y3429000D02*
D03*
Y3556000D02*
D03*
Y3683000D02*
D03*
Y3810000D02*
D03*
Y3937000D02*
D03*
Y4064000D02*
D03*
X8178800D02*
D03*
Y3937000D02*
D03*
Y3810000D02*
D03*
Y3683000D02*
D03*
Y3556000D02*
D03*
Y3429000D02*
D03*
X8305800Y4064000D02*
D03*
Y3937000D02*
D03*
Y3810000D02*
D03*
Y3683000D02*
D03*
Y3556000D02*
D03*
Y3429000D02*
D03*
X8178800Y4191000D02*
D03*
Y4318000D02*
D03*
Y4445000D02*
D03*
Y4572000D02*
D03*
Y4699000D02*
D03*
Y4826000D02*
D03*
Y4953000D02*
D03*
X8051800Y4191000D02*
D03*
Y4318000D02*
D03*
Y4445000D02*
D03*
Y4572000D02*
D03*
Y4699000D02*
D03*
Y4826000D02*
D03*
Y4953000D02*
D03*
X7924800Y3429000D02*
D03*
Y3556000D02*
D03*
Y3683000D02*
D03*
Y3810000D02*
D03*
Y3937000D02*
D03*
Y4064000D02*
D03*
Y4191000D02*
D03*
X7797800Y3429000D02*
D03*
Y3556000D02*
D03*
Y3683000D02*
D03*
Y3810000D02*
D03*
Y3937000D02*
D03*
Y4064000D02*
D03*
Y4191000D02*
D03*
X7670800D02*
D03*
Y4064000D02*
D03*
Y3937000D02*
D03*
Y3810000D02*
D03*
Y3683000D02*
D03*
Y3556000D02*
D03*
Y3429000D02*
D03*
X7924800Y5334000D02*
D03*
Y5207000D02*
D03*
Y5080000D02*
D03*
Y4953000D02*
D03*
Y4826000D02*
D03*
Y4699000D02*
D03*
Y4572000D02*
D03*
Y4445000D02*
D03*
Y4318000D02*
D03*
X7797800Y5334000D02*
D03*
Y5207000D02*
D03*
Y5080000D02*
D03*
Y4953000D02*
D03*
Y4826000D02*
D03*
Y4699000D02*
D03*
Y4572000D02*
D03*
Y4445000D02*
D03*
Y4318000D02*
D03*
X7670800D02*
D03*
Y4445000D02*
D03*
Y4572000D02*
D03*
Y4699000D02*
D03*
Y4826000D02*
D03*
Y4953000D02*
D03*
Y5080000D02*
D03*
Y5207000D02*
D03*
Y5334000D02*
D03*
X9525000Y8534400D02*
D03*
Y8280400D02*
D03*
Y8153400D02*
D03*
Y8407400D02*
D03*
X10541000Y7264400D02*
D03*
X10414000D02*
D03*
X10287000D02*
D03*
X10160000D02*
D03*
X10033000D02*
D03*
X9906000D02*
D03*
Y7391400D02*
D03*
X10033000D02*
D03*
X10160000D02*
D03*
X10287000D02*
D03*
X10414000D02*
D03*
X10541000D02*
D03*
X9398000Y8534400D02*
D03*
X9906000Y7645400D02*
D03*
X10033000D02*
D03*
X10160000D02*
D03*
X10287000D02*
D03*
X10414000D02*
D03*
X10541000D02*
D03*
Y7518400D02*
D03*
X10414000D02*
D03*
X10287000D02*
D03*
X10160000D02*
D03*
X10033000D02*
D03*
X9906000D02*
D03*
X9779000D02*
D03*
Y7645400D02*
D03*
X9804400Y7772400D02*
D03*
X9906000D02*
D03*
X10033000D02*
D03*
X10160000D02*
D03*
X10287000D02*
D03*
X10414000D02*
D03*
X10541000D02*
D03*
X10414000Y7899400D02*
D03*
X10289540Y7896860D02*
D03*
X10160000Y7899400D02*
D03*
X10033000D02*
D03*
X9906000D02*
D03*
X9779000D02*
D03*
X9652000Y7518400D02*
D03*
Y7645400D02*
D03*
Y7772400D02*
D03*
Y7899400D02*
D03*
X10541000D02*
D03*
Y8026400D02*
D03*
X10414000D02*
D03*
X10287000D02*
D03*
X10160000D02*
D03*
X10033000D02*
D03*
X9906000D02*
D03*
X9779000D02*
D03*
X9906000Y8153400D02*
D03*
X9779000D02*
D03*
X9652000D02*
D03*
X9906000Y8280400D02*
D03*
X9779000D02*
D03*
X9652000D02*
D03*
Y8407400D02*
D03*
X9779000D02*
D03*
X9906000D02*
D03*
X9652000Y8534400D02*
D03*
X9779000D02*
D03*
X9906000D02*
D03*
X10464800Y6096000D02*
D03*
X10287000Y6197600D02*
D03*
X8559800Y7213600D02*
D03*
Y7112000D02*
D03*
Y7010400D02*
D03*
Y6908800D02*
D03*
Y6604000D02*
D03*
X8610600Y6502400D02*
D03*
Y6400800D02*
D03*
Y6299200D02*
D03*
X8712200D02*
D03*
Y6400800D02*
D03*
X8813800Y6299200D02*
D03*
X8610600Y6197600D02*
D03*
Y6096000D02*
D03*
X8712200D02*
D03*
Y6197600D02*
D03*
X8813800D02*
D03*
Y6096000D02*
D03*
X8915400Y6197600D02*
D03*
Y6096000D02*
D03*
X9017000D02*
D03*
Y6197600D02*
D03*
X9118600D02*
D03*
Y6096000D02*
D03*
X9220200D02*
D03*
Y6197600D02*
D03*
X9321800D02*
D03*
Y6096000D02*
D03*
X9423400D02*
D03*
Y6197600D02*
D03*
X9525000D02*
D03*
Y6096000D02*
D03*
X9626600Y6197600D02*
D03*
Y6096000D02*
D03*
X9728200D02*
D03*
Y6197600D02*
D03*
X9829800D02*
D03*
Y6096000D02*
D03*
X10337800D02*
D03*
X10566400D02*
D03*
X9271000Y8534400D02*
D03*
X9144000D02*
D03*
X9017000D02*
D03*
X8890000D02*
D03*
X9398000Y8407400D02*
D03*
X9271000D02*
D03*
X9144000D02*
D03*
X9017000D02*
D03*
X9398000Y8280400D02*
D03*
Y8153400D02*
D03*
X9271000Y8280400D02*
D03*
X9144000D02*
D03*
X9017000D02*
D03*
X9271000Y8153400D02*
D03*
X21467999Y7512000D02*
D03*
X12443000Y8151400D02*
D03*
X12189000Y8278400D02*
D03*
X12316000D02*
D03*
X12443000D02*
D03*
X12570000Y8151400D02*
D03*
Y8278400D02*
D03*
X12189000Y8405400D02*
D03*
X12316000D02*
D03*
X12443000D02*
D03*
X12570000D02*
D03*
X12062000Y8532400D02*
D03*
X12189000D02*
D03*
X12316000D02*
D03*
X12443000D02*
D03*
X13738400Y6094000D02*
D03*
X13509801D02*
D03*
X11731800Y6906800D02*
D03*
Y7008400D02*
D03*
Y7110000D02*
D03*
Y7211600D02*
D03*
X13459000Y6195600D02*
D03*
X13636800Y6094000D02*
D03*
X13078000Y8532400D02*
D03*
X12950999D02*
D03*
X12824001D02*
D03*
X13078000Y8405400D02*
D03*
X12950999D02*
D03*
X12824001D02*
D03*
Y8278400D02*
D03*
X12950999D02*
D03*
X13078000D02*
D03*
X12824001Y8151400D02*
D03*
X12950999D02*
D03*
X13078000D02*
D03*
X12950999Y8024400D02*
D03*
X13078000D02*
D03*
X13205000D02*
D03*
X13332001D02*
D03*
X13459000D02*
D03*
X13586000D02*
D03*
X13713000D02*
D03*
Y7897400D02*
D03*
X12824001D02*
D03*
Y7770400D02*
D03*
Y7643400D02*
D03*
Y7516400D02*
D03*
X12950999Y7897400D02*
D03*
X13078000D02*
D03*
X13205000D02*
D03*
X13332001D02*
D03*
X13461540Y7894860D02*
D03*
X13586000Y7897400D02*
D03*
X13713000Y7770400D02*
D03*
X13586000D02*
D03*
X13459000D02*
D03*
X13332001D02*
D03*
X13205000D02*
D03*
X13078000D02*
D03*
X12976401D02*
D03*
X12950999Y7643400D02*
D03*
Y7516400D02*
D03*
X13078000D02*
D03*
X13205000D02*
D03*
X13332001D02*
D03*
X13459000D02*
D03*
X13586000D02*
D03*
X13713000D02*
D03*
Y7643400D02*
D03*
X13586000D02*
D03*
X13459000D02*
D03*
X13332001D02*
D03*
X13205000D02*
D03*
X13078000D02*
D03*
X12570000Y8532400D02*
D03*
X13713000Y7389400D02*
D03*
X13586000D02*
D03*
X13459000D02*
D03*
X13332001D02*
D03*
X13205000D02*
D03*
X13078000D02*
D03*
Y7262400D02*
D03*
X13205000D02*
D03*
X13332001D02*
D03*
X13459000D02*
D03*
X13586000D02*
D03*
X13713000D02*
D03*
X12697000Y8405400D02*
D03*
Y8151400D02*
D03*
Y8278400D02*
D03*
Y8532400D02*
D03*
X12544600Y7110000D02*
D03*
Y7262400D02*
D03*
X12646200Y7160800D02*
D03*
Y7033800D02*
D03*
X12570000Y6932200D02*
D03*
X12493800Y6830600D02*
D03*
X15803000Y8138400D02*
D03*
X15549001Y8265400D02*
D03*
X15675999D02*
D03*
X15803000D02*
D03*
X15930000Y8138400D02*
D03*
Y8265400D02*
D03*
X15549001Y8392400D02*
D03*
X15675999D02*
D03*
X15803000D02*
D03*
X15930000D02*
D03*
X15422000Y8519400D02*
D03*
X15549001D02*
D03*
X15675999D02*
D03*
X15803000D02*
D03*
X17098399Y6081000D02*
D03*
X16869800D02*
D03*
X16361800D02*
D03*
Y6182600D02*
D03*
X16260201D02*
D03*
Y6081000D02*
D03*
X16158600D02*
D03*
Y6182600D02*
D03*
X16057001Y6081000D02*
D03*
Y6182600D02*
D03*
X15955400D02*
D03*
Y6081000D02*
D03*
X15853799D02*
D03*
Y6182600D02*
D03*
X15752200D02*
D03*
Y6081000D02*
D03*
X15650600D02*
D03*
Y6182600D02*
D03*
X15549001D02*
D03*
Y6081000D02*
D03*
X15447400D02*
D03*
Y6182600D02*
D03*
X15345799Y6081000D02*
D03*
Y6182600D02*
D03*
X15244200D02*
D03*
Y6081000D02*
D03*
X15142599D02*
D03*
Y6182600D02*
D03*
X15345799Y6284200D02*
D03*
X15244200Y6385800D02*
D03*
Y6284200D02*
D03*
X15142599D02*
D03*
Y6385800D02*
D03*
Y6487400D02*
D03*
X15091800Y6589000D02*
D03*
Y6893800D02*
D03*
Y6995400D02*
D03*
Y7097000D02*
D03*
Y7198600D02*
D03*
X16819000Y6182600D02*
D03*
X16996800Y6081000D02*
D03*
X16438000Y8519400D02*
D03*
X16311000D02*
D03*
X16184000D02*
D03*
X16438000Y8392400D02*
D03*
X16311000D02*
D03*
X16184000D02*
D03*
Y8265400D02*
D03*
X16311000D02*
D03*
X16438000D02*
D03*
X16184000Y8138400D02*
D03*
X16311000D02*
D03*
X16438000D02*
D03*
X16311000Y8011400D02*
D03*
X16438000D02*
D03*
X16564999D02*
D03*
X16692000D02*
D03*
X16819000D02*
D03*
X16946001D02*
D03*
X17073000D02*
D03*
Y7884400D02*
D03*
X16184000D02*
D03*
Y7757400D02*
D03*
Y7630400D02*
D03*
Y7503400D02*
D03*
X16311000Y7884400D02*
D03*
X16438000D02*
D03*
X16564999D02*
D03*
X16692000D02*
D03*
X16821539Y7881860D02*
D03*
X16946001Y7884400D02*
D03*
X17073000Y7757400D02*
D03*
X16946001D02*
D03*
X16819000D02*
D03*
X16692000D02*
D03*
X16564999D02*
D03*
X16438000D02*
D03*
X16336400D02*
D03*
X16311000Y7630400D02*
D03*
Y7503400D02*
D03*
X16438000D02*
D03*
X16564999D02*
D03*
X16692000D02*
D03*
X16819000D02*
D03*
X16946001D02*
D03*
X17073000D02*
D03*
Y7630400D02*
D03*
X16946001D02*
D03*
X16819000D02*
D03*
X16692000D02*
D03*
X16564999D02*
D03*
X16438000D02*
D03*
X15930000Y8519400D02*
D03*
X17073000Y7376400D02*
D03*
X16946001D02*
D03*
X16819000D02*
D03*
X16692000D02*
D03*
X16564999D02*
D03*
X16438000D02*
D03*
Y7249400D02*
D03*
X16564999D02*
D03*
X16692000D02*
D03*
X16819000D02*
D03*
X16946001D02*
D03*
X17073000D02*
D03*
X16057001Y8392400D02*
D03*
Y8138400D02*
D03*
Y8265400D02*
D03*
Y8519400D02*
D03*
X15904601Y7097000D02*
D03*
Y7249400D02*
D03*
X16006200Y7147800D02*
D03*
Y7020800D02*
D03*
X15930000Y6919200D02*
D03*
X15853799Y6817600D02*
D03*
X19247000Y8155400D02*
D03*
X18992999Y8282400D02*
D03*
X19120000D02*
D03*
X19247000D02*
D03*
X19374001Y8155400D02*
D03*
Y8282400D02*
D03*
X18992999Y8409400D02*
D03*
X19120000D02*
D03*
X19247000D02*
D03*
X19374001D02*
D03*
X18866000Y8536400D02*
D03*
X18992999D02*
D03*
X19120000D02*
D03*
X19247000D02*
D03*
X20542400Y6098000D02*
D03*
X20313800D02*
D03*
X19805800D02*
D03*
Y6199600D02*
D03*
X19704201D02*
D03*
Y6098000D02*
D03*
X19602600D02*
D03*
Y6199600D02*
D03*
X19500999Y6098000D02*
D03*
Y6199600D02*
D03*
X19399400D02*
D03*
Y6098000D02*
D03*
X19297800D02*
D03*
Y6199600D02*
D03*
X19196201D02*
D03*
Y6098000D02*
D03*
X19094600D02*
D03*
Y6199600D02*
D03*
X18992999D02*
D03*
Y6098000D02*
D03*
X18891400D02*
D03*
Y6199600D02*
D03*
X18789799Y6098000D02*
D03*
Y6199600D02*
D03*
X18688200D02*
D03*
Y6098000D02*
D03*
X18586600D02*
D03*
Y6199600D02*
D03*
X18789799Y6301200D02*
D03*
X18688200Y6402800D02*
D03*
Y6301200D02*
D03*
X18586600D02*
D03*
Y6402800D02*
D03*
Y6504400D02*
D03*
X18535800Y6606000D02*
D03*
Y6910800D02*
D03*
Y7012400D02*
D03*
Y7114000D02*
D03*
Y7215600D02*
D03*
X20263000Y6199600D02*
D03*
X20440800Y6098000D02*
D03*
X19882001Y8536400D02*
D03*
X19755000D02*
D03*
X19628000D02*
D03*
X19882001Y8409400D02*
D03*
X19755000D02*
D03*
X19628000D02*
D03*
Y8282400D02*
D03*
X19755000D02*
D03*
X19882001D02*
D03*
X19628000Y8155400D02*
D03*
X19755000D02*
D03*
X19882001D02*
D03*
X19755000Y8028400D02*
D03*
X19882001D02*
D03*
X20009000D02*
D03*
X20136000D02*
D03*
X20263000D02*
D03*
X20389999D02*
D03*
X20517000D02*
D03*
Y7901400D02*
D03*
X19628000D02*
D03*
Y7774400D02*
D03*
Y7647400D02*
D03*
Y7520400D02*
D03*
X19755000Y7901400D02*
D03*
X19882001D02*
D03*
X20009000D02*
D03*
X20136000D02*
D03*
X20265540Y7898860D02*
D03*
X20389999Y7901400D02*
D03*
X20517000Y7774400D02*
D03*
X20389999D02*
D03*
X20263000D02*
D03*
X20136000D02*
D03*
X20009000D02*
D03*
X19882001D02*
D03*
X19780400D02*
D03*
X19755000Y7647400D02*
D03*
Y7520400D02*
D03*
X19882001D02*
D03*
X20009000D02*
D03*
X20136000D02*
D03*
X20263000D02*
D03*
X20389999D02*
D03*
X20517000D02*
D03*
Y7647400D02*
D03*
X20389999D02*
D03*
X20263000D02*
D03*
X20136000D02*
D03*
X20009000D02*
D03*
X19882001D02*
D03*
X19374001Y8536400D02*
D03*
X20517000Y7393400D02*
D03*
X20389999D02*
D03*
X20263000D02*
D03*
X20136000D02*
D03*
X20009000D02*
D03*
X19882001D02*
D03*
Y7266400D02*
D03*
X20009000D02*
D03*
X20136000D02*
D03*
X20263000D02*
D03*
X20389999D02*
D03*
X20517000D02*
D03*
X19500999Y8409400D02*
D03*
Y8155400D02*
D03*
Y8282400D02*
D03*
Y8536400D02*
D03*
X19348599Y7114000D02*
D03*
Y7266400D02*
D03*
X19450200Y7164800D02*
D03*
Y7037800D02*
D03*
X19374001Y6936200D02*
D03*
X19297800Y6834600D02*
D03*
X12995799Y6093000D02*
D03*
Y6194600D02*
D03*
X12894200D02*
D03*
Y6093000D02*
D03*
X12792600D02*
D03*
Y6194600D02*
D03*
X12691000Y6093000D02*
D03*
Y6194600D02*
D03*
X12589400D02*
D03*
Y6093000D02*
D03*
X12487800D02*
D03*
Y6194600D02*
D03*
X12386200D02*
D03*
Y6093000D02*
D03*
X12284600D02*
D03*
Y6194600D02*
D03*
X12183000D02*
D03*
Y6093000D02*
D03*
X12081400D02*
D03*
Y6194600D02*
D03*
X11979800Y6093000D02*
D03*
Y6194600D02*
D03*
X11878200D02*
D03*
Y6093000D02*
D03*
X11776600D02*
D03*
Y6194600D02*
D03*
X11979800Y6296200D02*
D03*
X11878200Y6397800D02*
D03*
Y6296200D02*
D03*
X11776600D02*
D03*
Y6397800D02*
D03*
Y6499400D02*
D03*
X11725800Y6601000D02*
D03*
X10835800Y5334000D02*
D03*
Y5207000D02*
D03*
Y5080000D02*
D03*
Y4953000D02*
D03*
Y4826000D02*
D03*
Y4699000D02*
D03*
Y4572000D02*
D03*
Y4445000D02*
D03*
Y4318000D02*
D03*
X10962800D02*
D03*
Y4445000D02*
D03*
Y4572000D02*
D03*
Y4699000D02*
D03*
Y4826000D02*
D03*
Y4953000D02*
D03*
Y5080000D02*
D03*
Y5207000D02*
D03*
Y5334000D02*
D03*
X11089800Y4318000D02*
D03*
Y4445000D02*
D03*
Y4572000D02*
D03*
Y4699000D02*
D03*
Y4826000D02*
D03*
Y4953000D02*
D03*
Y5080000D02*
D03*
Y5207000D02*
D03*
Y5334000D02*
D03*
X10835800Y3429000D02*
D03*
Y3556000D02*
D03*
Y3683000D02*
D03*
Y3810000D02*
D03*
Y3937000D02*
D03*
Y4064000D02*
D03*
Y4191000D02*
D03*
X10962800D02*
D03*
Y4064000D02*
D03*
Y3937000D02*
D03*
Y3810000D02*
D03*
Y3683000D02*
D03*
Y3556000D02*
D03*
Y3429000D02*
D03*
X11089800Y4191000D02*
D03*
Y4064000D02*
D03*
Y3937000D02*
D03*
Y3810000D02*
D03*
Y3683000D02*
D03*
Y3556000D02*
D03*
Y3429000D02*
D03*
X11216800Y4953000D02*
D03*
Y4826000D02*
D03*
Y4699000D02*
D03*
Y4572000D02*
D03*
Y4445000D02*
D03*
Y4318000D02*
D03*
Y4191000D02*
D03*
X11343800Y4953000D02*
D03*
Y4826000D02*
D03*
Y4699000D02*
D03*
Y4572000D02*
D03*
Y4445000D02*
D03*
Y4318000D02*
D03*
Y4191000D02*
D03*
X11470800Y3429000D02*
D03*
Y3556000D02*
D03*
Y3683000D02*
D03*
Y3810000D02*
D03*
Y3937000D02*
D03*
Y4064000D02*
D03*
X11343800Y3429000D02*
D03*
Y3556000D02*
D03*
Y3683000D02*
D03*
Y3810000D02*
D03*
Y3937000D02*
D03*
Y4064000D02*
D03*
X11216800D02*
D03*
Y3937000D02*
D03*
Y3810000D02*
D03*
Y3683000D02*
D03*
Y3556000D02*
D03*
Y3429000D02*
D03*
X14197800Y5314000D02*
D03*
Y5187000D02*
D03*
Y5060000D02*
D03*
Y4933000D02*
D03*
Y4806000D02*
D03*
Y4679000D02*
D03*
Y4552000D02*
D03*
Y4425000D02*
D03*
Y4298000D02*
D03*
X14324800D02*
D03*
Y4425000D02*
D03*
Y4552000D02*
D03*
Y4679000D02*
D03*
Y4806000D02*
D03*
Y4933000D02*
D03*
Y5060000D02*
D03*
Y5187000D02*
D03*
Y5314000D02*
D03*
X14451801Y4298000D02*
D03*
Y4425000D02*
D03*
Y4552000D02*
D03*
Y4679000D02*
D03*
Y4806000D02*
D03*
Y4933000D02*
D03*
Y5060000D02*
D03*
Y5187000D02*
D03*
Y5314000D02*
D03*
X14197800Y3409000D02*
D03*
Y3536000D02*
D03*
Y3663000D02*
D03*
Y3790000D02*
D03*
Y3917000D02*
D03*
Y4044000D02*
D03*
Y4171000D02*
D03*
X14324800D02*
D03*
Y4044000D02*
D03*
Y3917000D02*
D03*
Y3790000D02*
D03*
Y3663000D02*
D03*
Y3536000D02*
D03*
Y3409000D02*
D03*
X14451801Y4171000D02*
D03*
Y4044000D02*
D03*
Y3917000D02*
D03*
Y3790000D02*
D03*
Y3663000D02*
D03*
Y3536000D02*
D03*
Y3409000D02*
D03*
X14578799Y4933000D02*
D03*
Y4806000D02*
D03*
Y4679000D02*
D03*
Y4552000D02*
D03*
Y4425000D02*
D03*
Y4298000D02*
D03*
Y4171000D02*
D03*
X14705800Y4933000D02*
D03*
Y4806000D02*
D03*
Y4679000D02*
D03*
Y4552000D02*
D03*
Y4425000D02*
D03*
Y4298000D02*
D03*
Y4171000D02*
D03*
X14832800Y3409000D02*
D03*
Y3536000D02*
D03*
Y3663000D02*
D03*
Y3790000D02*
D03*
Y3917000D02*
D03*
Y4044000D02*
D03*
X14705800Y3409000D02*
D03*
Y3536000D02*
D03*
Y3663000D02*
D03*
Y3790000D02*
D03*
Y3917000D02*
D03*
Y4044000D02*
D03*
X14578799D02*
D03*
Y3917000D02*
D03*
Y3790000D02*
D03*
Y3663000D02*
D03*
Y3536000D02*
D03*
Y3409000D02*
D03*
X17637801Y5334000D02*
D03*
Y5207000D02*
D03*
Y5080000D02*
D03*
Y4953000D02*
D03*
Y4826000D02*
D03*
Y4699000D02*
D03*
Y4572000D02*
D03*
Y4445000D02*
D03*
Y4318000D02*
D03*
X17764799D02*
D03*
Y4445000D02*
D03*
Y4572000D02*
D03*
Y4699000D02*
D03*
Y4826000D02*
D03*
Y4953000D02*
D03*
Y5080000D02*
D03*
Y5207000D02*
D03*
Y5334000D02*
D03*
X17891800Y4318000D02*
D03*
Y4445000D02*
D03*
Y4572000D02*
D03*
Y4699000D02*
D03*
Y4826000D02*
D03*
Y4953000D02*
D03*
Y5080000D02*
D03*
Y5207000D02*
D03*
Y5334000D02*
D03*
X17637801Y4064000D02*
D03*
Y4191000D02*
D03*
X17764799D02*
D03*
Y4064000D02*
D03*
X17891800Y4191000D02*
D03*
Y4064000D02*
D03*
X18018800Y4953000D02*
D03*
Y4826000D02*
D03*
Y4699000D02*
D03*
Y4572000D02*
D03*
Y4445000D02*
D03*
Y4318000D02*
D03*
Y4191000D02*
D03*
X18145799Y4953000D02*
D03*
Y4826000D02*
D03*
Y4699000D02*
D03*
Y4572000D02*
D03*
Y4445000D02*
D03*
Y4318000D02*
D03*
Y4191000D02*
D03*
X18272800Y4064000D02*
D03*
X18145799D02*
D03*
X18018800D02*
D03*
D65*
X20667979Y10233660D02*
D03*
X13238480D02*
D03*
X3377000Y8967540D02*
D03*
X3389700Y8561000D02*
D03*
X22734200Y8383200D02*
D03*
X22378600Y7923600D02*
D03*
X22708800Y8177600D02*
D03*
X22555200Y6654800D02*
D03*
X22987000Y7823200D02*
D03*
Y7416800D02*
D03*
X23026401Y6262400D02*
D03*
X23018800Y5873801D02*
D03*
X10134600Y3505200D02*
D03*
Y3657600D02*
D03*
X9982200D02*
D03*
Y3505200D02*
D03*
X9829800Y3657600D02*
D03*
Y3505200D02*
D03*
Y3352800D02*
D03*
X9982200D02*
D03*
X10134600D02*
D03*
X9677400Y3505200D02*
D03*
X9321800Y3657600D02*
D03*
X9499600Y3352800D02*
D03*
X9677400D02*
D03*
X9144000Y3505200D02*
D03*
Y3657600D02*
D03*
X8991600D02*
D03*
Y3505200D02*
D03*
X8839200Y3657600D02*
D03*
Y3505200D02*
D03*
Y3352800D02*
D03*
X8991600D02*
D03*
X9144000D02*
D03*
X9677400Y3657600D02*
D03*
X9321800Y3505200D02*
D03*
Y3352800D02*
D03*
X9499600Y3505200D02*
D03*
Y3657600D02*
D03*
Y4114800D02*
D03*
Y3962400D02*
D03*
X9321800Y3810000D02*
D03*
Y3962400D02*
D03*
X9677400Y4267200D02*
D03*
Y4114800D02*
D03*
X9144000Y3810000D02*
D03*
X8991600D02*
D03*
X8839200D02*
D03*
Y3962400D02*
D03*
Y4114800D02*
D03*
X8991600Y3962400D02*
D03*
Y4114800D02*
D03*
X9144000D02*
D03*
Y3962400D02*
D03*
X9677400Y3810000D02*
D03*
X9499600D02*
D03*
X9321800Y4114800D02*
D03*
X9677400Y3962400D02*
D03*
X10134600Y3810000D02*
D03*
X9982200D02*
D03*
X9829800D02*
D03*
Y3962400D02*
D03*
Y4114800D02*
D03*
X9982200Y3962400D02*
D03*
Y4114800D02*
D03*
X10134600D02*
D03*
Y3962400D02*
D03*
Y4724400D02*
D03*
X9982200D02*
D03*
X9829800D02*
D03*
Y4876800D02*
D03*
X9982200D02*
D03*
X10134600D02*
D03*
X4038600Y2743200D02*
D03*
X10566400D02*
D03*
X13970000Y2895600D02*
D03*
X10693400D02*
D03*
X7442200Y3200400D02*
D03*
X10414000Y3022600D02*
D03*
X8991600Y4775200D02*
D03*
X9144000D02*
D03*
X8991600Y4267200D02*
D03*
X8839200Y4419600D02*
D03*
X8991600D02*
D03*
X9144000D02*
D03*
Y4267200D02*
D03*
X9321800D02*
D03*
X9499600D02*
D03*
X10134600Y4419600D02*
D03*
Y4572000D02*
D03*
X9982200D02*
D03*
Y4419600D02*
D03*
X9829800Y4572000D02*
D03*
Y4419600D02*
D03*
Y4267200D02*
D03*
X9982200D02*
D03*
X10134600D02*
D03*
X10541000Y9634220D02*
D03*
X8269000Y7753401D02*
D03*
X7366000Y5588000D02*
D03*
X7289800Y6045200D02*
D03*
X8966200Y8128000D02*
D03*
X5026000Y6525000D02*
D03*
X3659000Y5952000D02*
D03*
X3471200Y9919400D02*
D03*
X4355000Y6565000D02*
D03*
X3055000Y6569000D02*
D03*
X5283000Y6512000D02*
D03*
X4623000Y8695000D02*
D03*
X4181000Y6566000D02*
D03*
X4188000Y6049000D02*
D03*
X4511000Y6135000D02*
D03*
X4862000Y6143000D02*
D03*
X5147000Y6282000D02*
D03*
X4357000Y6401000D02*
D03*
X12138200Y8126000D02*
D03*
X11441000Y7751401D02*
D03*
X15498199Y8113000D02*
D03*
X14800999Y7738401D02*
D03*
X17073000Y9619220D02*
D03*
X18942200Y8130000D02*
D03*
X18245000Y7755401D02*
D03*
X20517000Y9636220D02*
D03*
X13299600Y4267200D02*
D03*
X13147200D02*
D03*
X12994800D02*
D03*
Y4419600D02*
D03*
Y4572000D02*
D03*
X13147200Y4419600D02*
D03*
Y4572000D02*
D03*
X13299600D02*
D03*
Y4419600D02*
D03*
X12664600Y4267200D02*
D03*
X12486800D02*
D03*
X12309000D02*
D03*
Y4419600D02*
D03*
X12156600D02*
D03*
X12004200D02*
D03*
X12156600Y4267200D02*
D03*
X12309000Y4775200D02*
D03*
X12156600D02*
D03*
X13299600Y4876800D02*
D03*
X13147200D02*
D03*
X12994800D02*
D03*
Y4724400D02*
D03*
X13147200D02*
D03*
X13299600D02*
D03*
Y3962400D02*
D03*
Y4114800D02*
D03*
X13147200D02*
D03*
Y3962400D02*
D03*
X12994800Y4114800D02*
D03*
Y3962400D02*
D03*
Y3810000D02*
D03*
X13147200D02*
D03*
X13299600D02*
D03*
X12842400Y3962400D02*
D03*
X12486800Y4114800D02*
D03*
X12664600Y3810000D02*
D03*
X12842400D02*
D03*
X12309000Y3962400D02*
D03*
Y4114800D02*
D03*
X12156600D02*
D03*
Y3962400D02*
D03*
X12004200Y4114800D02*
D03*
Y3962400D02*
D03*
Y3810000D02*
D03*
X12156600D02*
D03*
X12309000D02*
D03*
X12842400Y4114800D02*
D03*
Y4267200D02*
D03*
X12486800Y3962400D02*
D03*
Y3810000D02*
D03*
X12664600Y3962400D02*
D03*
Y4114800D02*
D03*
Y3657600D02*
D03*
Y3505200D02*
D03*
X12486800Y3352800D02*
D03*
Y3505200D02*
D03*
X12842400Y3657600D02*
D03*
X12309000Y3352800D02*
D03*
X12156600D02*
D03*
X12004200D02*
D03*
Y3505200D02*
D03*
Y3657600D02*
D03*
X12156600Y3505200D02*
D03*
Y3657600D02*
D03*
X12309000D02*
D03*
Y3505200D02*
D03*
X12842400Y3352800D02*
D03*
X12664600D02*
D03*
X12486800Y3657600D02*
D03*
X12842400Y3505200D02*
D03*
X13299600Y3352800D02*
D03*
X13147200D02*
D03*
X12994800D02*
D03*
Y3505200D02*
D03*
Y3657600D02*
D03*
X13147200Y3505200D02*
D03*
Y3657600D02*
D03*
X13299600D02*
D03*
Y3505200D02*
D03*
X16661600Y4247200D02*
D03*
X16509200D02*
D03*
X16356799D02*
D03*
Y4399600D02*
D03*
Y4552000D02*
D03*
X16509200Y4399600D02*
D03*
Y4552000D02*
D03*
X16661600D02*
D03*
Y4399600D02*
D03*
X16026601Y4247200D02*
D03*
X15848801D02*
D03*
X15671001D02*
D03*
Y4399600D02*
D03*
X15518600D02*
D03*
X15366200D02*
D03*
X15518600Y4247200D02*
D03*
X15671001Y4755200D02*
D03*
X15518600D02*
D03*
X16661600Y4856800D02*
D03*
X16509200D02*
D03*
X16356799D02*
D03*
Y4704400D02*
D03*
X16509200D02*
D03*
X16661600D02*
D03*
Y3942400D02*
D03*
Y4094800D02*
D03*
X16509200D02*
D03*
Y3942400D02*
D03*
X16356799Y4094800D02*
D03*
Y3942400D02*
D03*
Y3790000D02*
D03*
X16509200D02*
D03*
X16661600D02*
D03*
X16204401Y3942400D02*
D03*
X15848801Y4094800D02*
D03*
X16026601Y3790000D02*
D03*
X16204401D02*
D03*
X15671001Y3942400D02*
D03*
Y4094800D02*
D03*
X15518600D02*
D03*
Y3942400D02*
D03*
X15366200Y4094800D02*
D03*
Y3942400D02*
D03*
Y3790000D02*
D03*
X15518600D02*
D03*
X15671001D02*
D03*
X16204401Y4094800D02*
D03*
Y4247200D02*
D03*
X15848801Y3942400D02*
D03*
Y3790000D02*
D03*
X16026601Y3942400D02*
D03*
Y4094800D02*
D03*
Y3637600D02*
D03*
Y3485200D02*
D03*
X15848801Y3332800D02*
D03*
Y3485200D02*
D03*
X16204401Y3637600D02*
D03*
X15671001Y3332800D02*
D03*
X15518600D02*
D03*
X15366200Y3485200D02*
D03*
Y3637600D02*
D03*
X15518600Y3485200D02*
D03*
Y3637600D02*
D03*
X15671001D02*
D03*
Y3485200D02*
D03*
X16204401Y3332800D02*
D03*
X16026601D02*
D03*
X15848801Y3637600D02*
D03*
X16204401Y3485200D02*
D03*
X16509200Y3332800D02*
D03*
X16356799D02*
D03*
Y3485200D02*
D03*
Y3637600D02*
D03*
X16509200Y3485200D02*
D03*
Y3637600D02*
D03*
X20101601Y4267200D02*
D03*
X19949200D02*
D03*
X19796800D02*
D03*
Y4419600D02*
D03*
Y4572000D02*
D03*
X19949200Y4419600D02*
D03*
Y4572000D02*
D03*
X20101601D02*
D03*
Y4419600D02*
D03*
X19466600Y4267200D02*
D03*
X19288800D02*
D03*
X19111000D02*
D03*
Y4419600D02*
D03*
X18958600D02*
D03*
X18806200D02*
D03*
X18958600Y4267200D02*
D03*
X19111000Y4775200D02*
D03*
X18958600D02*
D03*
X20101601Y4876800D02*
D03*
X19949200D02*
D03*
X19796800D02*
D03*
Y4724400D02*
D03*
X19949200D02*
D03*
X20101601D02*
D03*
Y3962400D02*
D03*
Y4114800D02*
D03*
X19949200D02*
D03*
Y3962400D02*
D03*
X19796800Y4114800D02*
D03*
Y3962400D02*
D03*
X19644400D02*
D03*
X19288800Y4114800D02*
D03*
X19111000Y3962400D02*
D03*
Y4114800D02*
D03*
X18958600D02*
D03*
Y3962400D02*
D03*
X18806200Y4114800D02*
D03*
Y3962400D02*
D03*
X19644400Y4114800D02*
D03*
Y4267200D02*
D03*
X19288800Y3962400D02*
D03*
X19466600D02*
D03*
Y4114800D02*
D03*
D66*
X9611360Y9507220D02*
D03*
X12783360Y9505220D02*
D03*
X16143359Y9492220D02*
D03*
X19587360Y9509220D02*
D03*
D67*
X9347200Y9677400D02*
D03*
X12519200Y9675400D02*
D03*
X15879201Y9662400D02*
D03*
X19323199Y9679400D02*
D03*
D68*
X4843400Y8842800D02*
D03*
X4825000Y8955000D02*
D03*
X4666400Y8168800D02*
D03*
X4406000Y8166000D02*
D03*
X4492000Y8161000D02*
D03*
X4576000Y8151000D02*
D03*
X5061400Y8201800D02*
D03*
X5148400Y8379800D02*
D03*
X5058400Y9306800D02*
D03*
X4505400Y9358800D02*
D03*
X5144400Y9114800D02*
D03*
X5285400Y8951800D02*
D03*
X5288400Y8647800D02*
D03*
X3451000Y7970000D02*
D03*
D69*
X4844400Y7863800D02*
D03*
X4862400Y7751800D02*
D03*
X4274400Y9133800D02*
D03*
D71*
X11449000Y5239000D02*
D03*
Y5619000D02*
D03*
X14850000Y5192000D02*
D03*
Y5572000D02*
D03*
X7747000Y5753600D02*
D03*
Y6133600D02*
D03*
D72*
X20188000Y5208000D02*
D03*
X20567999D02*
D03*
D73*
X4445000Y10394803D02*
D03*
Y10026802D02*
D03*
D74*
X5911398Y10439405D02*
D03*
X6331402D02*
D03*
%TF.MD5,f6370ee40d6ee135f2669d51893fa86f*%
M02*
