G04 Layer_Color=128*
%FSLAX45Y45*%
%MOMM*%
%TF.FileFunction,Paste,Bot*%
%TF.Part,Single*%
G01*
G75*
%TA.AperFunction,SMDPad,CuDef*%
%ADD11R,3.00000X1.52400*%
%ADD13R,1.40000X3.30000*%
%ADD14R,3.30000X1.40000*%
%ADD15R,1.10000X2.60000*%
%ADD19R,0.70000X0.90000*%
%ADD24R,0.90000X0.70000*%
%ADD44R,2.60000X1.10000*%
%ADD45R,3.50000X2.00000*%
%ADD48R,2.50000X1.50000*%
%ADD78R,1.55000X3.30000*%
%ADD79R,2.18000X1.52000*%
D11*
X7730000Y4010000D02*
D03*
Y4180000D02*
D03*
X8770000Y4030000D02*
D03*
X14260001D02*
D03*
Y4200000D02*
D03*
X15320000Y4020000D02*
D03*
X8770000Y4200000D02*
D03*
X15310001Y4190000D02*
D03*
D13*
X20567999Y5208000D02*
D03*
X20188000D02*
D03*
D14*
X20094000Y2355000D02*
D03*
Y2735000D02*
D03*
X20592999Y2591000D02*
D03*
Y2971000D02*
D03*
X7747000Y6133600D02*
D03*
Y5753600D02*
D03*
X14850000Y5572000D02*
D03*
Y5192000D02*
D03*
X11449000Y5619000D02*
D03*
Y5239000D02*
D03*
D15*
X18716000Y3652000D02*
D03*
X18446001D02*
D03*
X18502400Y8003000D02*
D03*
X18772400D02*
D03*
X18502400Y8307800D02*
D03*
X18772400D02*
D03*
X15058400Y7986000D02*
D03*
X15328400D02*
D03*
X15058400Y8290800D02*
D03*
X15328400D02*
D03*
X11698400Y7999000D02*
D03*
X11968400D02*
D03*
X11698400Y8303800D02*
D03*
X11968400D02*
D03*
X11862000Y3094000D02*
D03*
X11592000D02*
D03*
X8526400Y8305800D02*
D03*
X8796400D02*
D03*
X8526400Y8001000D02*
D03*
X8796400D02*
D03*
D19*
X3148400Y2438400D02*
D03*
X2998400D02*
D03*
D24*
X9230360Y10565059D02*
D03*
Y10715056D02*
D03*
X13731000Y10650999D02*
D03*
Y10800996D02*
D03*
X12609000Y2499000D02*
D03*
Y2649000D02*
D03*
X22656799Y7773600D02*
D03*
Y7923600D02*
D03*
X22834599Y8027600D02*
D03*
Y8177600D02*
D03*
X23037801Y8281600D02*
D03*
Y8431600D02*
D03*
X22860001Y8533200D02*
D03*
Y8383200D02*
D03*
X17355000Y3149000D02*
D03*
Y3299000D02*
D03*
D44*
X19506000Y3349000D02*
D03*
Y3079000D02*
D03*
X19836000Y3341000D02*
D03*
Y3071000D02*
D03*
X19153000Y3349000D02*
D03*
Y3079000D02*
D03*
X13685001Y2150000D02*
D03*
Y1880000D02*
D03*
X13385001Y2152000D02*
D03*
Y1882000D02*
D03*
X13074001Y2150000D02*
D03*
Y1880000D02*
D03*
D45*
X13016000Y3050000D02*
D03*
Y2560000D02*
D03*
X17786000Y2960000D02*
D03*
Y3450000D02*
D03*
D48*
X22716000Y3902000D02*
D03*
X21866000Y3552000D02*
D03*
Y3902000D02*
D03*
X22716000Y3552000D02*
D03*
X22720000Y3112000D02*
D03*
X21870000Y2762000D02*
D03*
Y3112000D02*
D03*
X22720000Y2762000D02*
D03*
D78*
X6331402Y10439405D02*
D03*
X5911398D02*
D03*
D79*
X4445000Y10026802D02*
D03*
Y10394803D02*
D03*
%TF.MD5,bbbb14e65bb08a1d0441823171c07ed2*%
M02*
