G04 Layer_Color=2752767*
%FSLAX45Y45*%
%MOMM*%
%TF.FileFunction,Drawing*%
%TF.Part,Single*%
G01*
G75*
%TA.AperFunction,NonConductor*%
%ADD83C,0.10160*%
%ADD84C,0.12700*%
%ADD170C,0.16933*%
D83*
X19617841Y9509220D02*
G03*
X19617841Y9509220I-30480J0D01*
G01*
X19353680Y9679400D02*
G03*
X19353680Y9679400I-30480J0D01*
G01*
X16173840Y9492220D02*
G03*
X16173840Y9492220I-30480J0D01*
G01*
X15909680Y9662400D02*
G03*
X15909680Y9662400I-30480J0D01*
G01*
X12813840Y9505220D02*
G03*
X12813840Y9505220I-30480J0D01*
G01*
X12549680Y9675400D02*
G03*
X12549680Y9675400I-30480J0D01*
G01*
X9377680Y9677400D02*
G03*
X9377680Y9677400I-30480J0D01*
G01*
X9641840Y9507220D02*
G03*
X9641840Y9507220I-30480J0D01*
G01*
D84*
X2506200Y1504100D02*
Y1605700D01*
X2607800D01*
Y1504100D01*
X2506200D01*
Y10393600D02*
Y10495200D01*
X2607800D01*
Y10393600D01*
X2506200D01*
X23952200Y1504200D02*
Y1605800D01*
X24053799D01*
Y1504200D01*
X23952200D01*
Y10394200D02*
Y10495800D01*
X24053799D01*
Y10394200D01*
X23952200D01*
X23241000Y2012200D02*
X23190199Y2113800D01*
X23291800D01*
X23241000Y2012200D01*
Y2266200D02*
X23190199Y2367800D01*
X23291800D01*
X23241000Y2266200D01*
Y2520200D02*
X23190199Y2621800D01*
X23291800D01*
X23241000Y2520200D01*
Y2774200D02*
X23190199Y2875800D01*
X23291800D01*
X23241000Y2774200D01*
Y3028200D02*
X23190199Y3129800D01*
X23291800D01*
X23241000Y3028200D01*
Y3282200D02*
X23190199Y3383800D01*
X23291800D01*
X23241000Y3282200D01*
Y3536200D02*
X23190199Y3637800D01*
X23291800D01*
X23241000Y3536200D01*
Y3790200D02*
X23190199Y3891800D01*
X23291800D01*
X23241000Y3790200D01*
Y4044200D02*
X23190199Y4145800D01*
X23291800D01*
X23241000Y4044200D01*
Y4298200D02*
X23190199Y4399800D01*
X23291800D01*
X23241000Y4298200D01*
Y4552200D02*
X23190199Y4653800D01*
X23291800D01*
X23241000Y4552200D01*
Y4806200D02*
X23190199Y4907800D01*
X23291800D01*
X23241000Y4806200D01*
Y5060200D02*
X23190199Y5161800D01*
X23291800D01*
X23241000Y5060200D01*
Y5314200D02*
X23190199Y5415800D01*
X23291800D01*
X23241000Y5314200D01*
Y5568200D02*
X23190199Y5669800D01*
X23291800D01*
X23241000Y5568200D01*
Y5822200D02*
X23190199Y5923800D01*
X23291800D01*
X23241000Y5822200D01*
Y6076200D02*
X23190199Y6177800D01*
X23291800D01*
X23241000Y6076200D01*
Y6330200D02*
X23190199Y6431800D01*
X23291800D01*
X23241000Y6330200D01*
Y6584200D02*
X23190199Y6685800D01*
X23291800D01*
X23241000Y6584200D01*
Y6838200D02*
X23190199Y6939800D01*
X23291800D01*
X23241000Y6838200D01*
Y7092200D02*
X23190199Y7193800D01*
X23291800D01*
X23241000Y7092200D01*
Y7346200D02*
X23190199Y7447800D01*
X23291800D01*
X23241000Y7346200D01*
Y7600200D02*
X23190199Y7701800D01*
X23291800D01*
X23241000Y7600200D01*
Y7854200D02*
X23190199Y7955800D01*
X23291800D01*
X23241000Y7854200D01*
Y8108200D02*
X23190199Y8209800D01*
X23291800D01*
X23241000Y8108200D01*
Y8362200D02*
X23190199Y8463800D01*
X23291800D01*
X23241000Y8362200D01*
Y8616200D02*
X23190199Y8717800D01*
X23291800D01*
X23241000Y8616200D01*
Y8870200D02*
X23190199Y8971800D01*
X23291800D01*
X23241000Y8870200D01*
Y9124200D02*
X23190199Y9225800D01*
X23291800D01*
X23241000Y9124200D01*
Y9378200D02*
X23190199Y9479800D01*
X23291800D01*
X23241000Y9378200D01*
Y9632200D02*
X23190199Y9733800D01*
X23291800D01*
X23241000Y9632200D01*
Y9886200D02*
X23190199Y9987800D01*
X23291800D01*
X23241000Y9886200D01*
X23749001Y2012200D02*
X23698199Y2113800D01*
X23799800D01*
X23749001Y2012200D01*
Y2266200D02*
X23698199Y2367800D01*
X23799800D01*
X23749001Y2266200D01*
Y2520200D02*
X23698199Y2621800D01*
X23799800D01*
X23749001Y2520200D01*
Y2774200D02*
X23698199Y2875800D01*
X23799800D01*
X23749001Y2774200D01*
Y3028200D02*
X23698199Y3129800D01*
X23799800D01*
X23749001Y3028200D01*
Y3282200D02*
X23698199Y3383800D01*
X23799800D01*
X23749001Y3282200D01*
Y3536200D02*
X23698199Y3637800D01*
X23799800D01*
X23749001Y3536200D01*
Y3790200D02*
X23698199Y3891800D01*
X23799800D01*
X23749001Y3790200D01*
Y4044200D02*
X23698199Y4145800D01*
X23799800D01*
X23749001Y4044200D01*
Y4298200D02*
X23698199Y4399800D01*
X23799800D01*
X23749001Y4298200D01*
Y4552200D02*
X23698199Y4653800D01*
X23799800D01*
X23749001Y4552200D01*
Y4806200D02*
X23698199Y4907800D01*
X23799800D01*
X23749001Y4806200D01*
Y5060200D02*
X23698199Y5161800D01*
X23799800D01*
X23749001Y5060200D01*
Y5314200D02*
X23698199Y5415800D01*
X23799800D01*
X23749001Y5314200D01*
Y5568200D02*
X23698199Y5669800D01*
X23799800D01*
X23749001Y5568200D01*
Y5822200D02*
X23698199Y5923800D01*
X23799800D01*
X23749001Y5822200D01*
Y6076200D02*
X23698199Y6177800D01*
X23799800D01*
X23749001Y6076200D01*
Y6330200D02*
X23698199Y6431800D01*
X23799800D01*
X23749001Y6330200D01*
Y6584200D02*
X23698199Y6685800D01*
X23799800D01*
X23749001Y6584200D01*
Y6838200D02*
X23698199Y6939800D01*
X23799800D01*
X23749001Y6838200D01*
Y7092200D02*
X23698199Y7193800D01*
X23799800D01*
X23749001Y7092200D01*
Y7346200D02*
X23698199Y7447800D01*
X23799800D01*
X23749001Y7346200D01*
Y7600200D02*
X23698199Y7701800D01*
X23799800D01*
X23749001Y7600200D01*
Y7854200D02*
X23698199Y7955800D01*
X23799800D01*
X23749001Y7854200D01*
Y8108200D02*
X23698199Y8209800D01*
X23799800D01*
X23749001Y8108200D01*
Y8362200D02*
X23698199Y8463800D01*
X23799800D01*
X23749001Y8362200D01*
Y8616200D02*
X23698199Y8717800D01*
X23799800D01*
X23749001Y8616200D01*
Y8870200D02*
X23698199Y8971800D01*
X23799800D01*
X23749001Y8870200D01*
Y9124200D02*
X23698199Y9225800D01*
X23799800D01*
X23749001Y9124200D01*
Y9378200D02*
X23698199Y9479800D01*
X23799800D01*
X23749001Y9378200D01*
Y9632200D02*
X23698199Y9733800D01*
X23799800D01*
X23749001Y9632200D01*
Y9886200D02*
X23698199Y9987800D01*
X23799800D01*
X23749001Y9886200D01*
X2590801Y6223000D02*
X2616201Y6248400D01*
X2641601D01*
X2616201Y6273800D01*
X2641601Y6299200D01*
X2616201D01*
X2590801Y6324600D01*
X2565401Y6299200D01*
X2540001D01*
X2565401Y6273800D01*
X2540001Y6248400D01*
X2565401D01*
X2590801Y6223000D01*
X2336801D02*
X2362201Y6248400D01*
X2387601D01*
X2362201Y6273800D01*
X2387601Y6299200D01*
X2362201D01*
X2336801Y6324600D01*
X2311401Y6299200D01*
X2286001D01*
X2311401Y6273800D01*
X2286001Y6248400D01*
X2311401D01*
X2336801Y6223000D01*
X2590801Y6477000D02*
X2616201Y6502400D01*
X2641601D01*
X2616201Y6527800D01*
X2641601Y6553200D01*
X2616201D01*
X2590801Y6578600D01*
X2565401Y6553200D01*
X2540001D01*
X2565401Y6527800D01*
X2540001Y6502400D01*
X2565401D01*
X2590801Y6477000D01*
X2336801D02*
X2362201Y6502400D01*
X2387601D01*
X2362201Y6527800D01*
X2387601Y6553200D01*
X2362201D01*
X2336801Y6578600D01*
X2311401Y6553200D01*
X2286001D01*
X2311401Y6527800D01*
X2286001Y6502400D01*
X2311401D01*
X2336801Y6477000D01*
X2590801Y6731000D02*
X2616201Y6756400D01*
X2641601D01*
X2616201Y6781800D01*
X2641601Y6807200D01*
X2616201D01*
X2590801Y6832600D01*
X2565401Y6807200D01*
X2540001D01*
X2565401Y6781800D01*
X2540001Y6756400D01*
X2565401D01*
X2590801Y6731000D01*
X2336801D02*
X2362201Y6756400D01*
X2387601D01*
X2362201Y6781800D01*
X2387601Y6807200D01*
X2362201D01*
X2336801Y6832600D01*
X2311401Y6807200D01*
X2286001D01*
X2311401Y6781800D01*
X2286001Y6756400D01*
X2311401D01*
X2336801Y6731000D01*
Y6985000D02*
X2362201Y7010400D01*
X2387601D01*
X2362201Y7035800D01*
X2387601Y7061200D01*
X2362201D01*
X2336801Y7086600D01*
X2311401Y7061200D01*
X2286001D01*
X2311401Y7035800D01*
X2286001Y7010400D01*
X2311401D01*
X2336801Y6985000D01*
X2590801D02*
X2616201Y7010400D01*
X2641601D01*
X2616201Y7035800D01*
X2641601Y7061200D01*
X2616201D01*
X2590801Y7086600D01*
X2565401Y7061200D01*
X2540001D01*
X2565401Y7035800D01*
X2540001Y7010400D01*
X2565401D01*
X2590801Y6985000D01*
Y7239000D02*
X2616201Y7264400D01*
X2641601D01*
X2616201Y7289800D01*
X2641601Y7315200D01*
X2616201D01*
X2590801Y7340600D01*
X2565401Y7315200D01*
X2540001D01*
X2565401Y7289800D01*
X2540001Y7264400D01*
X2565401D01*
X2590801Y7239000D01*
X2336801D02*
X2362201Y7264400D01*
X2387601D01*
X2362201Y7289800D01*
X2387601Y7315200D01*
X2362201D01*
X2336801Y7340600D01*
X2311401Y7315200D01*
X2286001D01*
X2311401Y7289800D01*
X2286001Y7264400D01*
X2311401D01*
X2336801Y7239000D01*
X2441600Y2387600D02*
X2467000Y2438400D01*
X2441600Y2489200D01*
X2492400Y2463800D01*
X2543200Y2489200D01*
X2517800Y2438400D01*
X2543200Y2387600D01*
X2492400Y2413000D01*
X2441600Y2387600D01*
Y2641600D02*
X2467000Y2692400D01*
X2441600Y2743200D01*
X2492400Y2717800D01*
X2543200Y2743200D01*
X2517800Y2692400D01*
X2543200Y2641600D01*
X2492400Y2667000D01*
X2441600Y2641600D01*
Y3022600D02*
X2467000Y3073400D01*
X2441600Y3124200D01*
X2492400Y3098800D01*
X2543200Y3124200D01*
X2517800Y3073400D01*
X2543200Y3022600D01*
X2492400Y3048000D01*
X2441600Y3022600D01*
Y3276600D02*
X2467000Y3327400D01*
X2441600Y3378200D01*
X2492400Y3352800D01*
X2543200Y3378200D01*
X2517800Y3327400D01*
X2543200Y3276600D01*
X2492400Y3302000D01*
X2441600Y3276600D01*
Y3657600D02*
X2467000Y3708400D01*
X2441600Y3759200D01*
X2492400Y3733800D01*
X2543200Y3759200D01*
X2517800Y3708400D01*
X2543200Y3657600D01*
X2492400Y3683000D01*
X2441600Y3657600D01*
Y3911600D02*
X2467000Y3962400D01*
X2441600Y4013200D01*
X2492400Y3987800D01*
X2543200Y4013200D01*
X2517800Y3962400D01*
X2543200Y3911600D01*
X2492400Y3937000D01*
X2441600Y3911600D01*
Y4292600D02*
X2467000Y4343400D01*
X2441600Y4394200D01*
X2492400Y4368800D01*
X2543200Y4394200D01*
X2517800Y4343400D01*
X2543200Y4292600D01*
X2492400Y4318000D01*
X2441600Y4292600D01*
Y4546600D02*
X2467000Y4597400D01*
X2441600Y4648200D01*
X2492400Y4622800D01*
X2543200Y4648200D01*
X2517800Y4597400D01*
X2543200Y4546600D01*
X2492400Y4572000D01*
X2441600Y4546600D01*
Y8788400D02*
X2467000Y8839200D01*
X2441600Y8890000D01*
X2492400Y8864600D01*
X2543200Y8890000D01*
X2517800Y8839200D01*
X2543200Y8788400D01*
X2492400Y8813800D01*
X2441600Y8788400D01*
Y9042400D02*
X2467000Y9093200D01*
X2441600Y9144000D01*
X2492400Y9118600D01*
X2543200Y9144000D01*
X2517800Y9093200D01*
X2543200Y9042400D01*
X2492400Y9067800D01*
X2441600Y9042400D01*
Y8128000D02*
X2467000Y8178800D01*
X2441600Y8229600D01*
X2492400Y8204200D01*
X2543200Y8229600D01*
X2517800Y8178800D01*
X2543200Y8128000D01*
X2492400Y8153400D01*
X2441600Y8128000D01*
Y8382000D02*
X2467000Y8432800D01*
X2441600Y8483600D01*
X2492400Y8458200D01*
X2543200Y8483600D01*
X2517800Y8432800D01*
X2543200Y8382000D01*
X2492400Y8407400D01*
X2441600Y8382000D01*
Y9677400D02*
X2467000Y9728200D01*
X2441600Y9779000D01*
X2492400Y9753600D01*
X2543200Y9779000D01*
X2517800Y9728200D01*
X2543200Y9677400D01*
X2492400Y9702800D01*
X2441600Y9677400D01*
Y9423400D02*
X2467000Y9474200D01*
X2441600Y9525000D01*
X2492400Y9499600D01*
X2543200Y9525000D01*
X2517800Y9474200D01*
X2543200Y9423400D01*
X2492400Y9448800D01*
X2441600Y9423400D01*
X2821900Y5643200D02*
Y5617800D01*
X2872700D01*
Y5643200D01*
X2898100D01*
Y5694000D01*
X2872700D01*
Y5719400D01*
X2821900D01*
Y5694000D01*
X2796500D01*
Y5643200D01*
X2821900D01*
Y5193200D02*
Y5167800D01*
X2872700D01*
Y5193200D01*
X2898100D01*
Y5244000D01*
X2872700D01*
Y5269400D01*
X2821900D01*
Y5244000D01*
X2796500D01*
Y5193200D01*
X2821900D01*
X3045500Y5042300D02*
X3070900D01*
X3096300Y5067700D01*
X3121700Y5042300D01*
X3147100D01*
Y5067700D01*
X3121700Y5093100D01*
X3147100Y5118500D01*
Y5143900D01*
X3121700D01*
X3096300Y5118500D01*
X3070900Y5143900D01*
X3045500D01*
Y5118500D01*
X3070900Y5093100D01*
X3045500Y5067700D01*
Y5042300D01*
Y5743300D02*
X3070900D01*
X3096300Y5768700D01*
X3121700Y5743300D01*
X3147100D01*
Y5768700D01*
X3121700Y5794100D01*
X3147100Y5819500D01*
Y5844900D01*
X3121700D01*
X3096300Y5819500D01*
X3070900Y5844900D01*
X3045500D01*
Y5819500D01*
X3070900Y5794100D01*
X3045500Y5768700D01*
Y5743300D01*
X7295200Y1720000D02*
X7346000Y1770800D01*
X7396800Y1720000D01*
X7346000Y1669200D01*
X7295200Y1720000D01*
X7294200Y1839000D02*
X7345000Y1889800D01*
X7395800Y1839000D01*
X7345000Y1788200D01*
X7294200Y1839000D01*
X7293200Y1960000D02*
X7344000Y2010800D01*
X7394800Y1960000D01*
X7344000Y1909200D01*
X7293200Y1960000D01*
X19794200Y2589000D02*
X19845000Y2639800D01*
X19895799Y2589000D01*
X19845000Y2538200D01*
X19794200Y2589000D01*
X20308200Y2600000D02*
X20359000Y2650800D01*
X20409801Y2600000D01*
X20359000Y2549200D01*
X20308200Y2600000D01*
X20775200Y2594000D02*
X20825999Y2644800D01*
X20876801Y2594000D01*
X20825999Y2543200D01*
X20775200Y2594000D01*
X12791600Y4216400D02*
Y4318000D01*
X12893201D01*
Y4216400D01*
X12791600D01*
X12811920Y4236720D02*
Y4297680D01*
X12872881D01*
Y4236720D01*
X12811920D01*
X12944000Y4673600D02*
Y4775200D01*
X13045599D01*
Y4673600D01*
X12944000D01*
X12964320Y4693920D02*
Y4754880D01*
X13025281D01*
Y4693920D01*
X12964320D01*
X12944000Y4826000D02*
Y4927600D01*
X13045599D01*
Y4826000D01*
X12944000D01*
X12964320Y4846320D02*
Y4907280D01*
X13025281D01*
Y4846320D01*
X12964320D01*
X11979200Y4769200D02*
Y4870800D01*
X12080800D01*
Y4769200D01*
X11979200D01*
X11999520Y4789520D02*
Y4850480D01*
X12060480D01*
Y4789520D01*
X11999520D01*
X12079200Y4239200D02*
Y4340800D01*
X12180800D01*
Y4239200D01*
X12079200D01*
X12099520Y4259520D02*
Y4320480D01*
X12160480D01*
Y4259520D01*
X12099520D01*
X12436000Y4216400D02*
Y4318000D01*
X12537600D01*
Y4216400D01*
X12436000D01*
X12456320Y4236720D02*
Y4297680D01*
X12517280D01*
Y4236720D01*
X12456320D01*
X12613800Y4216400D02*
Y4318000D01*
X12715400D01*
Y4216400D01*
X12613800D01*
X12634120Y4236720D02*
Y4297680D01*
X12695080D01*
Y4236720D01*
X12634120D01*
X12944000Y4521200D02*
Y4622800D01*
X13045599D01*
Y4521200D01*
X12944000D01*
X12964320Y4541520D02*
Y4602480D01*
X13025281D01*
Y4541520D01*
X12964320D01*
X12944000Y4368800D02*
Y4470400D01*
X13045599D01*
Y4368800D01*
X12944000D01*
X12964320Y4389120D02*
Y4450080D01*
X13025281D01*
Y4389120D01*
X12964320D01*
X12944000Y4216400D02*
Y4318000D01*
X13045599D01*
Y4216400D01*
X12944000D01*
X12964320Y4236720D02*
Y4297680D01*
X13025281D01*
Y4236720D01*
X12964320D01*
X20466200Y9585420D02*
Y9687020D01*
X20567799D01*
Y9585420D01*
X20466200D01*
X20486520Y9605740D02*
Y9666700D01*
X20547479D01*
Y9605740D01*
X20486520D01*
X18194200Y7704601D02*
Y7806201D01*
X18295799D01*
Y7704601D01*
X18194200D01*
X18214520Y7724921D02*
Y7785881D01*
X18275481D01*
Y7724921D01*
X18214520D01*
X17022200Y9568420D02*
Y9670020D01*
X17123801D01*
Y9568420D01*
X17022200D01*
X17042520Y9588740D02*
Y9649700D01*
X17103481D01*
Y9588740D01*
X17042520D01*
X14750200Y7687601D02*
Y7789201D01*
X14851801D01*
Y7687601D01*
X14750200D01*
X14770520Y7707921D02*
Y7768881D01*
X14831480D01*
Y7707921D01*
X14770520D01*
X11390200Y7700601D02*
Y7802201D01*
X11491800D01*
Y7700601D01*
X11390200D01*
X11410520Y7720921D02*
Y7781881D01*
X11471480D01*
Y7720921D01*
X11410520D01*
X4306200Y6350200D02*
Y6451800D01*
X4407800D01*
Y6350200D01*
X4306200D01*
X4326520Y6370520D02*
Y6431480D01*
X4387480D01*
Y6370520D01*
X4326520D01*
X5096200Y6231200D02*
Y6332800D01*
X5197800D01*
Y6231200D01*
X5096200D01*
X5116520Y6251520D02*
Y6312480D01*
X5177480D01*
Y6251520D01*
X5116520D01*
X4811200Y6092200D02*
Y6193800D01*
X4912800D01*
Y6092200D01*
X4811200D01*
X4831520Y6112520D02*
Y6173480D01*
X4892480D01*
Y6112520D01*
X4831520D01*
X4460200Y6084200D02*
Y6185800D01*
X4561800D01*
Y6084200D01*
X4460200D01*
X4480520Y6104520D02*
Y6165480D01*
X4541480D01*
Y6104520D01*
X4480520D01*
X4137200Y5998200D02*
Y6099800D01*
X4238800D01*
Y5998200D01*
X4137200D01*
X4157520Y6018520D02*
Y6079480D01*
X4218480D01*
Y6018520D01*
X4157520D01*
X4130200Y6515200D02*
Y6616800D01*
X4231800D01*
Y6515200D01*
X4130200D01*
X4150520Y6535520D02*
Y6596480D01*
X4211480D01*
Y6535520D01*
X4150520D01*
X3451000Y7919200D02*
X3400200Y8020800D01*
X3501800D01*
X3451000Y7919200D01*
Y7939520D02*
X3420520Y8000480D01*
X3481480D01*
X3451000Y7939520D01*
X4572200Y8644200D02*
Y8745800D01*
X4673800D01*
Y8644200D01*
X4572200D01*
X4592520Y8664520D02*
Y8725480D01*
X4653480D01*
Y8664520D01*
X4592520D01*
X5288400Y8597000D02*
X5237600Y8698600D01*
X5339200D01*
X5288400Y8597000D01*
Y8617320D02*
X5257920Y8678280D01*
X5318880D01*
X5288400Y8617320D01*
X5285400Y8901000D02*
X5234600Y9002600D01*
X5336200D01*
X5285400Y8901000D01*
Y8921320D02*
X5254920Y8982280D01*
X5315880D01*
X5285400Y8921320D01*
X5144400Y9064000D02*
X5093600Y9165600D01*
X5195200D01*
X5144400Y9064000D01*
Y9084320D02*
X5113920Y9145280D01*
X5174880D01*
X5144400Y9084320D01*
X4274400Y9083000D02*
X4223600Y9184600D01*
X4325200D01*
X4274400Y9083000D01*
Y9103320D02*
X4243920Y9164280D01*
X4304880D01*
X4274400Y9103320D01*
X4505400Y9308000D02*
X4454600Y9409600D01*
X4556200D01*
X4505400Y9308000D01*
Y9328320D02*
X4474920Y9389280D01*
X4535880D01*
X4505400Y9328320D01*
X5058400Y9256000D02*
X5007600Y9357600D01*
X5109200D01*
X5058400Y9256000D01*
Y9276320D02*
X5027920Y9337280D01*
X5088880D01*
X5058400Y9276320D01*
X5148400Y8329000D02*
X5097600Y8430600D01*
X5199200D01*
X5148400Y8329000D01*
Y8349320D02*
X5117920Y8410280D01*
X5178880D01*
X5148400Y8349320D01*
X5061400Y8151000D02*
X5010600Y8252600D01*
X5112200D01*
X5061400Y8151000D01*
Y8171320D02*
X5030920Y8232280D01*
X5091880D01*
X5061400Y8171320D01*
X4862400Y7701000D02*
X4811600Y7802600D01*
X4913200D01*
X4862400Y7701000D01*
Y7721320D02*
X4831920Y7782280D01*
X4892880D01*
X4862400Y7721320D01*
X4844400Y7813000D02*
X4793600Y7914600D01*
X4895200D01*
X4844400Y7813000D01*
Y7833320D02*
X4813920Y7894280D01*
X4874880D01*
X4844400Y7833320D01*
X5232200Y6461200D02*
Y6562800D01*
X5333800D01*
Y6461200D01*
X5232200D01*
X5252520Y6481520D02*
Y6542480D01*
X5313480D01*
Y6481520D01*
X5252520D01*
X3004200Y6518200D02*
Y6619800D01*
X3105800D01*
Y6518200D01*
X3004200D01*
X3024520Y6538520D02*
Y6599480D01*
X3085480D01*
Y6538520D01*
X3024520D01*
X4304200Y6514200D02*
Y6615800D01*
X4405800D01*
Y6514200D01*
X4304200D01*
X4324520Y6534520D02*
Y6595480D01*
X4385480D01*
Y6534520D01*
X4324520D01*
X3420400Y9868600D02*
Y9970200D01*
X3522000D01*
Y9868600D01*
X3420400D01*
X3440720Y9888920D02*
Y9949880D01*
X3501680D01*
Y9888920D01*
X3440720D01*
X4576000Y8100200D02*
X4525200Y8201800D01*
X4626800D01*
X4576000Y8100200D01*
Y8120520D02*
X4545520Y8181480D01*
X4606480D01*
X4576000Y8120520D01*
X4492000Y8110200D02*
X4441200Y8211800D01*
X4542800D01*
X4492000Y8110200D01*
Y8130520D02*
X4461520Y8191480D01*
X4522480D01*
X4492000Y8130520D01*
X4406000Y8115200D02*
X4355200Y8216800D01*
X4456800D01*
X4406000Y8115200D01*
Y8135520D02*
X4375520Y8196480D01*
X4436480D01*
X4406000Y8135520D01*
X4666400Y8118000D02*
X4615600Y8219600D01*
X4717200D01*
X4666400Y8118000D01*
Y8138320D02*
X4635920Y8199280D01*
X4696880D01*
X4666400Y8138320D01*
X4825000Y8904200D02*
X4774200Y9005800D01*
X4875800D01*
X4825000Y8904200D01*
Y8924520D02*
X4794520Y8985480D01*
X4855480D01*
X4825000Y8924520D01*
X4843400Y8792000D02*
X4792600Y8893600D01*
X4894200D01*
X4843400Y8792000D01*
Y8812320D02*
X4812920Y8873280D01*
X4873880D01*
X4843400Y8812320D01*
X3608200Y5901200D02*
Y6002800D01*
X3709800D01*
Y5901200D01*
X3608200D01*
X3628520Y5921520D02*
Y5982480D01*
X3689480D01*
Y5921520D01*
X3628520D01*
X4975200Y6474200D02*
Y6575800D01*
X5076800D01*
Y6474200D01*
X4975200D01*
X4995520Y6494520D02*
Y6555480D01*
X5056480D01*
Y6494520D01*
X4995520D01*
X8915400Y8077200D02*
Y8178800D01*
X9017000D01*
Y8077200D01*
X8915400D01*
X8935720Y8097520D02*
Y8158480D01*
X8996680D01*
Y8097520D01*
X8935720D01*
X7239000Y5994400D02*
Y6096000D01*
X7340600D01*
Y5994400D01*
X7239000D01*
X7259320Y6014720D02*
Y6075680D01*
X7320280D01*
Y6014720D01*
X7259320D01*
X7315200Y5537200D02*
Y5638800D01*
X7416800D01*
Y5537200D01*
X7315200D01*
X7335520Y5557520D02*
Y5618480D01*
X7396480D01*
Y5557520D01*
X7335520D01*
X8218200Y7702601D02*
Y7804201D01*
X8319800D01*
Y7702601D01*
X8218200D01*
X8238520Y7722921D02*
Y7783881D01*
X8299480D01*
Y7722921D01*
X8238520D01*
X10490200Y9583420D02*
Y9685020D01*
X10591800D01*
Y9583420D01*
X10490200D01*
X10510520Y9603740D02*
Y9664700D01*
X10571480D01*
Y9603740D01*
X10510520D01*
X10363200Y2971800D02*
Y3073400D01*
X10464800D01*
Y2971800D01*
X10363200D01*
X10383520Y2992120D02*
Y3053080D01*
X10444480D01*
Y2992120D01*
X10383520D01*
X7391400Y3149600D02*
Y3251200D01*
X7493000D01*
Y3149600D01*
X7391400D01*
X7411720Y3169920D02*
Y3230880D01*
X7472680D01*
Y3169920D01*
X7411720D01*
X13919200Y2844800D02*
Y2946400D01*
X14020799D01*
Y2844800D01*
X13919200D01*
X13939520Y2865120D02*
Y2926080D01*
X14000481D01*
Y2865120D01*
X13939520D01*
X10515600Y2692400D02*
Y2794000D01*
X10617200D01*
Y2692400D01*
X10515600D01*
X10535920Y2712720D02*
Y2773680D01*
X10596880D01*
Y2712720D01*
X10535920D01*
X3987800Y2692400D02*
Y2794000D01*
X4089400D01*
Y2692400D01*
X3987800D01*
X4008120Y2712720D02*
Y2773680D01*
X4069080D01*
Y2712720D01*
X4008120D01*
X21005800Y5638800D02*
X21056599Y5689600D01*
X21107401Y5638800D01*
X21056599Y5588000D01*
X21005800Y5638800D01*
Y5537200D02*
X21056599Y5588000D01*
X21107401Y5537200D01*
X21056599Y5486400D01*
X21005800Y5537200D01*
X21004201Y5435000D02*
X21055000Y5485800D01*
X21105800Y5435000D01*
X21055000Y5384200D01*
X21004201Y5435000D01*
X21107401Y5638800D02*
X21158200Y5689600D01*
X21209000Y5638800D01*
X21158200Y5588000D01*
X21107401Y5638800D01*
Y5537200D02*
X21158200Y5588000D01*
X21209000Y5537200D01*
X21158200Y5486400D01*
X21107401Y5537200D01*
X21109200Y5435000D02*
X21160001Y5485800D01*
X21210800Y5435000D01*
X21160001Y5384200D01*
X21109200Y5435000D01*
X21209200D02*
X21260001Y5485800D01*
X21310800Y5435000D01*
X21260001Y5384200D01*
X21209200Y5435000D01*
X21209000Y5537200D02*
X21259801Y5588000D01*
X21310600Y5537200D01*
X21259801Y5486400D01*
X21209000Y5537200D01*
Y5638800D02*
X21259801Y5689600D01*
X21310600Y5638800D01*
X21259801Y5588000D01*
X21209000Y5638800D01*
X22968001Y5823001D02*
Y5924601D01*
X23069601D01*
Y5823001D01*
X22968001D01*
X22988321Y5843321D02*
Y5904281D01*
X23049281D01*
Y5843321D01*
X22988321D01*
X22975600Y6211600D02*
Y6313200D01*
X23077200D01*
Y6211600D01*
X22975600D01*
X22995920Y6231920D02*
Y6292880D01*
X23056880D01*
Y6231920D01*
X22995920D01*
X22936200Y7366000D02*
Y7467600D01*
X23037801D01*
Y7366000D01*
X22936200D01*
X22956520Y7386320D02*
Y7447280D01*
X23017480D01*
Y7386320D01*
X22956520D01*
X22936200Y7772400D02*
Y7874000D01*
X23037801D01*
Y7772400D01*
X22936200D01*
X22956520Y7792720D02*
Y7853680D01*
X23017480D01*
Y7792720D01*
X22956520D01*
X22352000Y5638800D02*
X22402800Y5689600D01*
X22453600Y5638800D01*
X22402800Y5588000D01*
X22352000Y5638800D01*
X22250400D02*
X22301199Y5689600D01*
X22352000Y5638800D01*
X22301199Y5588000D01*
X22250400Y5638800D01*
X22148801D02*
X22199600Y5689600D01*
X22250400Y5638800D01*
X22199600Y5588000D01*
X22148801Y5638800D01*
X22504401Y6604000D02*
Y6705600D01*
X22606000D01*
Y6604000D01*
X22504401D01*
X22524719Y6624320D02*
Y6685280D01*
X22585680D01*
Y6624320D01*
X22524719D01*
X22658000Y8126800D02*
Y8228400D01*
X22759599D01*
Y8126800D01*
X22658000D01*
X22678320Y8147120D02*
Y8208080D01*
X22739281D01*
Y8147120D01*
X22678320D01*
X22327800Y7872800D02*
Y7974400D01*
X22429401D01*
Y7872800D01*
X22327800D01*
X22348120Y7893120D02*
Y7954080D01*
X22409081D01*
Y7893120D01*
X22348120D01*
X22683400Y8332400D02*
Y8434000D01*
X22785001D01*
Y8332400D01*
X22683400D01*
X22703720Y8352720D02*
Y8413680D01*
X22764680D01*
Y8352720D01*
X22703720D01*
X3338900Y8510200D02*
Y8611800D01*
X3440500D01*
Y8510200D01*
X3338900D01*
X3359220Y8530520D02*
Y8591480D01*
X3420180D01*
Y8530520D01*
X3359220D01*
X3326200Y8916740D02*
Y9018340D01*
X3427800D01*
Y8916740D01*
X3326200D01*
X3346520Y8937060D02*
Y8998020D01*
X3407480D01*
Y8937060D01*
X3346520D01*
X13187680Y10182860D02*
Y10284460D01*
X13289281D01*
Y10182860D01*
X13187680D01*
X13208000Y10203180D02*
Y10264140D01*
X13268961D01*
Y10203180D01*
X13208000D01*
X20617180Y10182860D02*
Y10284460D01*
X20718781D01*
Y10182860D01*
X20617180D01*
X20637500Y10203180D02*
Y10264140D01*
X20698460D01*
Y10203180D01*
X20637500D01*
X13538200Y10236200D02*
X13589000Y10287000D01*
X13639799Y10236200D01*
X13589000Y10185400D01*
X13538200Y10236200D01*
Y10439400D02*
X13589000Y10490200D01*
X13639799Y10439400D01*
X13589000Y10388600D01*
X13538200Y10439400D01*
Y10337800D02*
X13589000Y10388600D01*
X13639799Y10337800D01*
X13589000Y10287000D01*
X13538200Y10337800D01*
X13639799Y10439400D02*
X13690601Y10490200D01*
X13741400Y10439400D01*
X13690601Y10388600D01*
X13639799Y10439400D01*
Y10337800D02*
X13690601Y10388600D01*
X13741400Y10337800D01*
X13690601Y10287000D01*
X13639799Y10337800D01*
Y10236200D02*
X13690601Y10287000D01*
X13741400Y10236200D01*
X13690601Y10185400D01*
X13639799Y10236200D01*
X8382000Y10566400D02*
X8432800Y10617200D01*
X8483600Y10566400D01*
X8432800Y10515600D01*
X8382000Y10566400D01*
Y10464800D02*
X8432800Y10515600D01*
X8483600Y10464800D01*
X8432800Y10414000D01*
X8382000Y10464800D01*
Y10363200D02*
X8432800Y10414000D01*
X8483600Y10363200D01*
X8432800Y10312400D01*
X8382000Y10363200D01*
X8280400D02*
X8331200Y10414000D01*
X8382000Y10363200D01*
X8331200Y10312400D01*
X8280400Y10363200D01*
Y10464800D02*
X8331200Y10515600D01*
X8382000Y10464800D01*
X8331200Y10414000D01*
X8280400Y10464800D01*
Y10566400D02*
X8331200Y10617200D01*
X8382000Y10566400D01*
X8331200Y10515600D01*
X8280400Y10566400D01*
X13477200Y5626000D02*
X13528000Y5676800D01*
X13578799Y5626000D01*
X13528000Y5575200D01*
X13477200Y5626000D01*
X12677200Y3037000D02*
X12728000Y3087800D01*
X12778800Y3037000D01*
X12728000Y2986200D01*
X12677200Y3037000D01*
X15026199Y5569000D02*
X15077000Y5619800D01*
X15127800Y5569000D01*
X15077000Y5518200D01*
X15026199Y5569000D01*
X14571201Y5573000D02*
X14622000Y5623800D01*
X14672800Y5573000D01*
X14622000Y5522200D01*
X14571201Y5573000D01*
X13739200Y5134000D02*
X13789999Y5184800D01*
X13840800Y5134000D01*
X13789999Y5083200D01*
X13739200Y5134000D01*
X11633200Y5620000D02*
X11684000Y5670800D01*
X11734800Y5620000D01*
X11684000Y5569200D01*
X11633200Y5620000D01*
X11171200Y5624000D02*
X11222000Y5674800D01*
X11272800Y5624000D01*
X11222000Y5573200D01*
X11171200Y5624000D01*
X11979200Y4419200D02*
Y4520800D01*
X12080800D01*
Y4419200D01*
X11979200D01*
X11999520Y4439520D02*
Y4500480D01*
X12060480D01*
Y4439520D01*
X11999520D01*
X11979200Y4589200D02*
Y4690800D01*
X12080800D01*
Y4589200D01*
X11979200D01*
X11999520Y4609520D02*
Y4670480D01*
X12060480D01*
Y4609520D01*
X11999520D01*
X9499200Y6289200D02*
Y6390800D01*
X9600800D01*
Y6289200D01*
X9499200D01*
X9519520Y6309520D02*
Y6370480D01*
X9580480D01*
Y6309520D01*
X9519520D01*
X10539200Y2859200D02*
Y2960800D01*
X10640800D01*
Y2859200D01*
X10539200D01*
X10559520Y2879520D02*
Y2940480D01*
X10620480D01*
Y2879520D01*
X10559520D01*
X8879200Y3276600D02*
Y3378200D01*
X8980800D01*
Y3276600D01*
X8879200D01*
X8899520Y3296920D02*
Y3357880D01*
X8960480D01*
Y3296920D01*
X8899520D01*
X10329200Y4349200D02*
Y4450800D01*
X10430800D01*
Y4349200D01*
X10329200D01*
X10349520Y4369520D02*
Y4430480D01*
X10410480D01*
Y4369520D01*
X10349520D01*
X10329200Y4199200D02*
Y4300800D01*
X10430800D01*
Y4199200D01*
X10329200D01*
X10349520Y4219520D02*
Y4280480D01*
X10410480D01*
Y4219520D01*
X10349520D01*
X8029200Y4249200D02*
Y4350800D01*
X8130800D01*
Y4249200D01*
X8029200D01*
X8049520Y4269520D02*
Y4330480D01*
X8110480D01*
Y4269520D01*
X8049520D01*
X9794000Y4226400D02*
Y4328000D01*
X9895600D01*
Y4226400D01*
X9794000D01*
X9814320Y4246720D02*
Y4307680D01*
X9875280D01*
Y4246720D01*
X9814320D01*
X9794000Y4378800D02*
Y4480400D01*
X9895600D01*
Y4378800D01*
X9794000D01*
X9814320Y4399120D02*
Y4460080D01*
X9875280D01*
Y4399120D01*
X9814320D01*
X9794000Y4531200D02*
Y4632800D01*
X9895600D01*
Y4531200D01*
X9794000D01*
X9814320Y4551520D02*
Y4612480D01*
X9875280D01*
Y4551520D01*
X9814320D01*
X9463800Y4226400D02*
Y4328000D01*
X9565400D01*
Y4226400D01*
X9463800D01*
X9484120Y4246720D02*
Y4307680D01*
X9545080D01*
Y4246720D01*
X9484120D01*
X9286000Y4226400D02*
Y4328000D01*
X9387600D01*
Y4226400D01*
X9286000D01*
X9306320Y4246720D02*
Y4307680D01*
X9367280D01*
Y4246720D01*
X9306320D01*
X9794000Y4836000D02*
Y4937600D01*
X9895600D01*
Y4836000D01*
X9794000D01*
X9814320Y4856320D02*
Y4917280D01*
X9875280D01*
Y4856320D01*
X9814320D01*
X9794000Y4683600D02*
Y4785200D01*
X9895600D01*
Y4683600D01*
X9794000D01*
X9814320Y4703920D02*
Y4764880D01*
X9875280D01*
Y4703920D01*
X9814320D01*
X9641600Y4226400D02*
Y4328000D01*
X9743200D01*
Y4226400D01*
X9641600D01*
X9661920Y4246720D02*
Y4307680D01*
X9722880D01*
Y4246720D01*
X9661920D01*
X8819200Y4639200D02*
Y4740800D01*
X8920800D01*
Y4639200D01*
X8819200D01*
X8839520Y4659520D02*
Y4720480D01*
X8900480D01*
Y4659520D01*
X8839520D01*
X8819200Y4469200D02*
Y4570800D01*
X8920800D01*
Y4469200D01*
X8819200D01*
X8839520Y4489520D02*
Y4550480D01*
X8900480D01*
Y4489520D01*
X8839520D01*
X8819200Y4289200D02*
Y4390800D01*
X8920800D01*
Y4289200D01*
X8819200D01*
X8839520Y4309520D02*
Y4370480D01*
X8900480D01*
Y4309520D01*
X8839520D01*
X8819200Y4819200D02*
Y4920800D01*
X8920800D01*
Y4819200D01*
X8819200D01*
X8839520Y4839520D02*
Y4900480D01*
X8900480D01*
Y4839520D01*
X8839520D01*
X12671200Y6287200D02*
Y6388800D01*
X12772800D01*
Y6287200D01*
X12671200D01*
X12691520Y6307520D02*
Y6368480D01*
X12752480D01*
Y6307520D01*
X12691520D01*
X12087400Y8075200D02*
Y8176800D01*
X12189000D01*
Y8075200D01*
X12087400D01*
X12107720Y8095520D02*
Y8156480D01*
X12168680D01*
Y8095520D01*
X12107720D01*
X15447400Y8075200D02*
Y8176800D01*
X15549001D01*
Y8075200D01*
X15447400D01*
X15467720Y8095520D02*
Y8156480D01*
X15528680D01*
Y8095520D01*
X15467720D01*
X18877400Y8085200D02*
Y8186800D01*
X18978999D01*
Y8085200D01*
X18877400D01*
X18897720Y8105520D02*
Y8166480D01*
X18958681D01*
Y8105520D01*
X18897720D01*
X10779200Y5269200D02*
Y5370800D01*
X10880800D01*
Y5269200D01*
X10779200D01*
X10799520Y5289520D02*
Y5350480D01*
X10860480D01*
Y5289520D01*
X10799520D01*
X10779200Y5109200D02*
Y5210800D01*
X10880800D01*
Y5109200D01*
X10779200D01*
X10799520Y5129520D02*
Y5190480D01*
X10860480D01*
Y5129520D01*
X10799520D01*
X10779200Y4949200D02*
Y5050800D01*
X10880800D01*
Y4949200D01*
X10779200D01*
X10799520Y4969520D02*
Y5030480D01*
X10860480D01*
Y4969520D01*
X10799520D01*
X10779200Y4799200D02*
Y4900800D01*
X10880800D01*
Y4799200D01*
X10779200D01*
X10799520Y4819520D02*
Y4880480D01*
X10860480D01*
Y4819520D01*
X10799520D01*
X10779200Y4639200D02*
Y4740800D01*
X10880800D01*
Y4639200D01*
X10779200D01*
X10799520Y4659520D02*
Y4720480D01*
X10860480D01*
Y4659520D01*
X10799520D01*
X10779200Y4479200D02*
Y4580800D01*
X10880800D01*
Y4479200D01*
X10779200D01*
X10799520Y4499520D02*
Y4560480D01*
X10860480D01*
Y4499520D01*
X10799520D01*
X7619200Y5269200D02*
Y5370800D01*
X7720800D01*
Y5269200D01*
X7619200D01*
X7639520Y5289520D02*
Y5350480D01*
X7700480D01*
Y5289520D01*
X7639520D01*
X7619200Y5109200D02*
Y5210800D01*
X7720800D01*
Y5109200D01*
X7619200D01*
X7639520Y5129520D02*
Y5190480D01*
X7700480D01*
Y5129520D01*
X7639520D01*
X7619200Y4949200D02*
Y5050800D01*
X7720800D01*
Y4949200D01*
X7619200D01*
X7639520Y4969520D02*
Y5030480D01*
X7700480D01*
Y4969520D01*
X7639520D01*
X7619200Y4789200D02*
Y4890800D01*
X7720800D01*
Y4789200D01*
X7619200D01*
X7639520Y4809520D02*
Y4870480D01*
X7700480D01*
Y4809520D01*
X7639520D01*
X7619200Y4629200D02*
Y4730800D01*
X7720800D01*
Y4629200D01*
X7619200D01*
X7639520Y4649520D02*
Y4710480D01*
X7700480D01*
Y4649520D01*
X7639520D01*
X7619200Y4469200D02*
Y4570800D01*
X7720800D01*
Y4469200D01*
X7619200D01*
X7639520Y4489520D02*
Y4550480D01*
X7700480D01*
Y4489520D01*
X7639520D01*
X14149200Y4449200D02*
Y4550800D01*
X14250800D01*
Y4449200D01*
X14149200D01*
X14169521Y4469520D02*
Y4530480D01*
X14230479D01*
Y4469520D01*
X14169521D01*
X14149200Y4609200D02*
Y4710800D01*
X14250800D01*
Y4609200D01*
X14149200D01*
X14169521Y4629520D02*
Y4690480D01*
X14230479D01*
Y4629520D01*
X14169521D01*
X14149200Y4769200D02*
Y4870800D01*
X14250800D01*
Y4769200D01*
X14149200D01*
X14169521Y4789520D02*
Y4850480D01*
X14230479D01*
Y4789520D01*
X14169521D01*
X14149200Y4929200D02*
Y5030800D01*
X14250800D01*
Y4929200D01*
X14149200D01*
X14169521Y4949520D02*
Y5010480D01*
X14230479D01*
Y4949520D01*
X14169521D01*
X14149200Y5089200D02*
Y5190800D01*
X14250800D01*
Y5089200D01*
X14149200D01*
X14169521Y5109520D02*
Y5170480D01*
X14230479D01*
Y5109520D01*
X14169521D01*
X14149200Y5249200D02*
Y5350800D01*
X14250800D01*
Y5249200D01*
X14149200D01*
X14169521Y5269520D02*
Y5330480D01*
X14230479D01*
Y5269520D01*
X14169521D01*
X17599200Y5269200D02*
Y5370800D01*
X17700800D01*
Y5269200D01*
X17599200D01*
X17619521Y5289520D02*
Y5350480D01*
X17680479D01*
Y5289520D01*
X17619521D01*
X17599200Y5109200D02*
Y5210800D01*
X17700800D01*
Y5109200D01*
X17599200D01*
X17619521Y5129520D02*
Y5190480D01*
X17680479D01*
Y5129520D01*
X17619521D01*
X17599200Y4949200D02*
Y5050800D01*
X17700800D01*
Y4949200D01*
X17599200D01*
X17619521Y4969520D02*
Y5030480D01*
X17680479D01*
Y4969520D01*
X17619521D01*
X17599200Y4789200D02*
Y4890800D01*
X17700800D01*
Y4789200D01*
X17599200D01*
X17619521Y4809520D02*
Y4870480D01*
X17680479D01*
Y4809520D01*
X17619521D01*
X17599200Y4629200D02*
Y4730800D01*
X17700800D01*
Y4629200D01*
X17599200D01*
X17619521Y4649520D02*
Y4710480D01*
X17680479D01*
Y4649520D01*
X17619521D01*
X17599200Y4469200D02*
Y4570800D01*
X17700800D01*
Y4469200D01*
X17599200D01*
X17619521Y4489520D02*
Y4550480D01*
X17680479D01*
Y4489520D01*
X17619521D01*
X16019200Y6269200D02*
Y6370800D01*
X16120799D01*
Y6269200D01*
X16019200D01*
X16039520Y6289520D02*
Y6350480D01*
X16100481D01*
Y6289520D01*
X16039520D01*
X19449200Y6279200D02*
Y6380800D01*
X19550800D01*
Y6279200D01*
X19449200D01*
X19469521Y6299520D02*
Y6360480D01*
X19530479D01*
Y6299520D01*
X19469521D01*
X15374400Y4562400D02*
Y4664000D01*
X15475999D01*
Y4562400D01*
X15374400D01*
X15394720Y4582720D02*
Y4643680D01*
X15455679D01*
Y4582720D01*
X15394720D01*
X15374400Y4392400D02*
Y4494000D01*
X15475999D01*
Y4392400D01*
X15374400D01*
X15394720Y4412720D02*
Y4473680D01*
X15455679D01*
Y4412720D01*
X15394720D01*
X16339200Y4189600D02*
Y4291200D01*
X16440800D01*
Y4189600D01*
X16339200D01*
X16359520Y4209920D02*
Y4270880D01*
X16420480D01*
Y4209920D01*
X16359520D01*
X16339200Y4342000D02*
Y4443600D01*
X16440800D01*
Y4342000D01*
X16339200D01*
X16359520Y4362320D02*
Y4423280D01*
X16420480D01*
Y4362320D01*
X16359520D01*
X16339200Y4494400D02*
Y4596000D01*
X16440800D01*
Y4494400D01*
X16339200D01*
X16359520Y4514720D02*
Y4575680D01*
X16420480D01*
Y4514720D01*
X16359520D01*
X16009000Y4189600D02*
Y4291200D01*
X16110600D01*
Y4189600D01*
X16009000D01*
X16029320Y4209920D02*
Y4270880D01*
X16090280D01*
Y4209920D01*
X16029320D01*
X15831200Y4189600D02*
Y4291200D01*
X15932800D01*
Y4189600D01*
X15831200D01*
X15851520Y4209920D02*
Y4270880D01*
X15912480D01*
Y4209920D01*
X15851520D01*
X15374400Y4212400D02*
Y4314000D01*
X15475999D01*
Y4212400D01*
X15374400D01*
X15394720Y4232720D02*
Y4293680D01*
X15455679D01*
Y4232720D01*
X15394720D01*
X15374400Y4742400D02*
Y4844000D01*
X15475999D01*
Y4742400D01*
X15374400D01*
X15394720Y4762720D02*
Y4823680D01*
X15455679D01*
Y4762720D01*
X15394720D01*
X16339200Y4799200D02*
Y4900800D01*
X16440800D01*
Y4799200D01*
X16339200D01*
X16359520Y4819520D02*
Y4880480D01*
X16420480D01*
Y4819520D01*
X16359520D01*
X16339200Y4646800D02*
Y4748400D01*
X16440800D01*
Y4646800D01*
X16339200D01*
X16359520Y4667120D02*
Y4728080D01*
X16420480D01*
Y4667120D01*
X16359520D01*
X16186800Y4189600D02*
Y4291200D01*
X16288400D01*
Y4189600D01*
X16186800D01*
X16207120Y4209920D02*
Y4270880D01*
X16268080D01*
Y4209920D01*
X16207120D01*
X19636800Y4219600D02*
Y4321200D01*
X19738400D01*
Y4219600D01*
X19636800D01*
X19657120Y4239920D02*
Y4300880D01*
X19718080D01*
Y4239920D01*
X19657120D01*
X19789200Y4676800D02*
Y4778400D01*
X19890800D01*
Y4676800D01*
X19789200D01*
X19809520Y4697120D02*
Y4758080D01*
X19870480D01*
Y4697120D01*
X19809520D01*
X19789200Y4829200D02*
Y4930800D01*
X19890800D01*
Y4829200D01*
X19789200D01*
X19809520Y4849520D02*
Y4910480D01*
X19870480D01*
Y4849520D01*
X19809520D01*
X18824400Y4772400D02*
Y4874000D01*
X18925999D01*
Y4772400D01*
X18824400D01*
X18844720Y4792720D02*
Y4853680D01*
X18905679D01*
Y4792720D01*
X18844720D01*
X18909200Y4219200D02*
Y4320800D01*
X19010800D01*
Y4219200D01*
X18909200D01*
X18929520Y4239520D02*
Y4300480D01*
X18990480D01*
Y4239520D01*
X18929520D01*
X19281200Y4219600D02*
Y4321200D01*
X19382800D01*
Y4219600D01*
X19281200D01*
X19301520Y4239920D02*
Y4300880D01*
X19362480D01*
Y4239920D01*
X19301520D01*
X19459000Y4219600D02*
Y4321200D01*
X19560600D01*
Y4219600D01*
X19459000D01*
X19479320Y4239920D02*
Y4300880D01*
X19540280D01*
Y4239920D01*
X19479320D01*
X19789200Y4524400D02*
Y4626000D01*
X19890800D01*
Y4524400D01*
X19789200D01*
X19809520Y4544720D02*
Y4605680D01*
X19870480D01*
Y4544720D01*
X19809520D01*
X19789200Y4372000D02*
Y4473600D01*
X19890800D01*
Y4372000D01*
X19789200D01*
X19809520Y4392320D02*
Y4453280D01*
X19870480D01*
Y4392320D01*
X19809520D01*
X19789200Y4219600D02*
Y4321200D01*
X19890800D01*
Y4219600D01*
X19789200D01*
X19809520Y4239920D02*
Y4300880D01*
X19870480D01*
Y4239920D01*
X19809520D01*
X18824400Y4422400D02*
Y4524000D01*
X18925999D01*
Y4422400D01*
X18824400D01*
X18844720Y4442720D02*
Y4503680D01*
X18905679D01*
Y4442720D01*
X18844720D01*
X18824400Y4592400D02*
Y4694000D01*
X18925999D01*
Y4592400D01*
X18824400D01*
X18844720Y4612720D02*
Y4673680D01*
X18905679D01*
Y4612720D01*
X18844720D01*
X15199200Y3479200D02*
Y3580800D01*
X15300800D01*
Y3479200D01*
X15199200D01*
X15219521Y3499520D02*
Y3560480D01*
X15280479D01*
Y3499520D01*
X15219521D01*
X16839200Y4409200D02*
Y4510800D01*
X16940800D01*
Y4409200D01*
X16839200D01*
X16859520Y4429520D02*
Y4490480D01*
X16920480D01*
Y4429520D01*
X16859520D01*
X16839200Y4229200D02*
Y4330800D01*
X16940800D01*
Y4229200D01*
X16839200D01*
X16859520Y4249520D02*
Y4310480D01*
X16920480D01*
Y4249520D01*
X16859520D01*
X14559200Y4239200D02*
Y4340800D01*
X14660800D01*
Y4239200D01*
X14559200D01*
X14579520Y4259520D02*
Y4320480D01*
X14640480D01*
Y4259520D01*
X14579520D01*
X8899200Y8289200D02*
Y8390800D01*
X9000800D01*
Y8289200D01*
X8899200D01*
X8919520Y8309520D02*
Y8370480D01*
X8980480D01*
Y8309520D01*
X8919520D01*
X12059200Y8259200D02*
Y8360800D01*
X12160800D01*
Y8259200D01*
X12059200D01*
X12079520Y8279520D02*
Y8340480D01*
X12140480D01*
Y8279520D01*
X12079520D01*
X15429201Y8259200D02*
Y8360800D01*
X15530800D01*
Y8259200D01*
X15429201D01*
X15449519Y8279520D02*
Y8340480D01*
X15510480D01*
Y8279520D01*
X15449519D01*
X18869200Y8279200D02*
Y8380800D01*
X18970799D01*
Y8279200D01*
X18869200D01*
X18889520Y8299520D02*
Y8360480D01*
X18950481D01*
Y8299520D01*
X18889520D01*
X22459200Y7144200D02*
Y7245800D01*
X22560800D01*
Y7144200D01*
X22459200D01*
X22479520Y7164520D02*
Y7225480D01*
X22540480D01*
Y7164520D01*
X22479520D01*
D170*
X7975600Y9144000D02*
G03*
X7975600Y9144000I-50800J0D01*
G01*
Y8864600D02*
G03*
X7975600Y8864600I-50800J0D01*
G01*
X19638161Y9509220D02*
G03*
X19638161Y9509220I-50800J0D01*
G01*
X19374001Y9679400D02*
G03*
X19374001Y9679400I-50800J0D01*
G01*
X16194160Y9492220D02*
G03*
X16194160Y9492220I-50800J0D01*
G01*
X15930000Y9662400D02*
G03*
X15930000Y9662400I-50800J0D01*
G01*
X12834160Y9505220D02*
G03*
X12834160Y9505220I-50800J0D01*
G01*
X12570000Y9675400D02*
G03*
X12570000Y9675400I-50800J0D01*
G01*
X9398000Y9677400D02*
G03*
X9398000Y9677400I-50800J0D01*
G01*
X9662160Y9507220D02*
G03*
X9662160Y9507220I-50800J0D01*
G01*
%TF.MD5,c60c3866efd764800460ecc9917a2ff5*%
M02*
