G04 Layer_Physical_Order=4*
G04 Layer_Color=16711680*
%FSLAX45Y45*%
%MOMM*%
%TF.FileFunction,Copper,L4,Bot,Signal*%
%TF.Part,Single*%
G01*
G75*
%TA.AperFunction,SMDPad,CuDef*%
%ADD11R,3.00000X1.52400*%
%ADD13R,1.40000X3.30000*%
%ADD14R,3.30000X1.40000*%
%ADD15R,1.10000X2.60000*%
%ADD19R,0.70000X0.90000*%
%ADD24R,0.90000X0.70000*%
%ADD44R,2.60000X1.10000*%
%ADD45R,3.50000X2.00000*%
%ADD48R,2.50000X1.50000*%
%TA.AperFunction,Conductor*%
%ADD53C,2.00000*%
%ADD54C,1.27000*%
%ADD55C,0.30000*%
%ADD56C,0.50000*%
%ADD58C,0.63500*%
%ADD59C,0.25400*%
%ADD61C,0.50800*%
%TA.AperFunction,NonConductor*%
%ADD62C,0.25400*%
%TA.AperFunction,ViaPad*%
%ADD63C,4.00000*%
%ADD64C,1.52400*%
%TA.AperFunction,ComponentPad*%
%ADD65C,2.80000*%
%ADD66C,1.52400*%
G04:AMPARAMS|DCode=67|XSize=1.5748mm|YSize=1.5748mm|CornerRadius=0mm|HoleSize=0mm|Usage=FLASHONLY|Rotation=90.000|XOffset=0mm|YOffset=0mm|HoleType=Round|Shape=Octagon|*
%AMOCTAGOND67*
4,1,8,0.39370,0.78740,-0.39370,0.78740,-0.78740,0.39370,-0.78740,-0.39370,-0.39370,-0.78740,0.39370,-0.78740,0.78740,-0.39370,0.78740,0.39370,0.39370,0.78740,0.0*
%
%ADD67OCTAGOND67*%

%ADD68C,1.60000*%
%ADD69C,1.70000*%
%TA.AperFunction,ViaPad*%
%ADD70C,0.90000*%
%ADD71C,1.27000*%
%ADD72C,0.76200*%
%ADD73C,0.67200*%
%ADD74C,0.63500*%
%ADD75C,0.70000*%
%ADD76C,0.95000*%
%TA.AperFunction,Conductor*%
%ADD77C,1.00000*%
%TA.AperFunction,SMDPad,CuDef*%
%ADD78R,1.55000X3.30000*%
%ADD79R,2.18000X1.52000*%
G36*
X23178128Y8232014D02*
X23172391Y8227610D01*
X23156969Y8207515D01*
X23147276Y8184113D01*
X23143970Y8159000D01*
X23147276Y8133887D01*
X23156969Y8110485D01*
X23172391Y8090389D01*
X23192485Y8074969D01*
X23192928Y8074786D01*
X23190402Y8062086D01*
X22899992D01*
Y8062600D01*
X22898439Y8070403D01*
X22894019Y8077019D01*
X22887402Y8081440D01*
X22879601Y8082992D01*
X22789600D01*
X22781796Y8081440D01*
X22775182Y8077019D01*
X22770760Y8070403D01*
X22769208Y8062600D01*
Y8062086D01*
X22338725D01*
X22333865Y8073819D01*
X22504761Y8244714D01*
X22639041D01*
X22645303Y8232014D01*
X22635863Y8219710D01*
X22627449Y8199398D01*
X22624580Y8177600D01*
X22627449Y8155802D01*
X22635863Y8135489D01*
X22649248Y8118047D01*
X22666690Y8104663D01*
X22687003Y8096249D01*
X22708800Y8093379D01*
X22730598Y8096249D01*
X22750911Y8104663D01*
X22768353Y8118047D01*
X22773563Y8124836D01*
X22780186D01*
X22781796Y8123760D01*
X22789600Y8122208D01*
X22879601D01*
X22887402Y8123760D01*
X22894019Y8128181D01*
X22898439Y8134796D01*
X22899992Y8142600D01*
Y8212600D01*
X22898439Y8220403D01*
X22894019Y8227019D01*
X22887402Y8231439D01*
X22884514Y8232014D01*
X22885764Y8244714D01*
X22972783D01*
X22973959Y8238796D01*
X22978381Y8232181D01*
X22984996Y8227760D01*
X22992799Y8226208D01*
X23082800D01*
X23090604Y8227760D01*
X23097218Y8232181D01*
X23101639Y8238796D01*
X23102815Y8244714D01*
X23173817D01*
X23178128Y8232014D01*
D02*
G37*
G36*
X23664969Y8618485D02*
X23680389Y8598389D01*
X23700485Y8582969D01*
X23723888Y8573276D01*
X23749001Y8569970D01*
X23774113Y8573276D01*
X23797514Y8582969D01*
X23804648Y8588443D01*
X23816039Y8582826D01*
X23816039Y8243174D01*
X23804649Y8237557D01*
X23797514Y8243031D01*
X23774113Y8252724D01*
X23749001Y8256030D01*
X23723888Y8252724D01*
X23707098Y8245770D01*
X23403435Y8549433D01*
X23391856Y8557169D01*
X23378200Y8559886D01*
X23261700D01*
X23260867Y8572586D01*
X23266113Y8573276D01*
X23289516Y8582969D01*
X23309610Y8598389D01*
X23325031Y8618485D01*
X23331316Y8633659D01*
X23658684D01*
X23664969Y8618485D01*
D02*
G37*
G36*
X9939999Y4119999D02*
X8610599Y4120000D01*
X8610601Y5690215D01*
X9940000D01*
X9939999Y4119999D01*
D02*
G37*
G36*
X16539999Y4961200D02*
X16539999Y4109999D01*
X15158099Y4110000D01*
X15158099Y4961200D01*
X16539999Y4961200D01*
D02*
G37*
G36*
X22952744Y8486568D02*
X22949539Y8469611D01*
X22948489Y8468910D01*
X22948489Y8468909D01*
X22915092Y8435511D01*
X22912804Y8437040D01*
X22905000Y8438592D01*
X22814999D01*
X22807198Y8437040D01*
X22805586Y8435964D01*
X22798962D01*
X22793753Y8442753D01*
X22776311Y8456137D01*
X22755998Y8464551D01*
X22734200Y8467421D01*
X22712402Y8464551D01*
X22692090Y8456137D01*
X22674648Y8442753D01*
X22661263Y8425311D01*
X22652849Y8404998D01*
X22649980Y8383200D01*
X22652849Y8361402D01*
X22661263Y8341090D01*
X22670705Y8328786D01*
X22664441Y8316086D01*
X22522015D01*
X22517155Y8327819D01*
X22677850Y8488514D01*
X22797418D01*
X22800581Y8483781D01*
X22807198Y8479360D01*
X22814999Y8477808D01*
X22905000D01*
X22912804Y8479360D01*
X22919418Y8483781D01*
X22922581Y8488514D01*
X22951411D01*
X22952744Y8486568D01*
D02*
G37*
G36*
X23156969Y8618485D02*
X23172391Y8598389D01*
X23192485Y8582969D01*
X23215887Y8573276D01*
X23221132Y8572586D01*
X23220300Y8559886D01*
X22925392D01*
Y8568200D01*
X22923840Y8576004D01*
X22919418Y8582619D01*
X22912804Y8587040D01*
X22905000Y8588592D01*
X22814999D01*
X22807198Y8587040D01*
X22800581Y8582619D01*
X22796161Y8576004D01*
X22794608Y8568200D01*
Y8559886D01*
X22695041D01*
X22690181Y8571619D01*
X22746622Y8628059D01*
X23153004D01*
X23156969Y8618485D01*
D02*
G37*
G36*
X10530000Y3750000D02*
X10340000Y3560000D01*
X7580000D01*
Y3950000D01*
X8258965D01*
X8600926Y3947174D01*
X8601160Y3945996D01*
X8605581Y3939381D01*
X8612196Y3934960D01*
X8620000Y3933408D01*
X8920000D01*
X8927804Y3934960D01*
X8934419Y3939381D01*
X8938840Y3945996D01*
X8939636Y3950000D01*
X10170000D01*
X10197100Y3977100D01*
X10197099Y4407100D01*
X10249999Y4460000D01*
X10530000Y4460000D01*
Y3750000D01*
D02*
G37*
G36*
X17060001Y3755000D02*
X16870000Y3565000D01*
X15325882D01*
X15322937Y3572110D01*
X15309554Y3589553D01*
X15292110Y3602937D01*
X15271799Y3611351D01*
X15250000Y3614221D01*
X15228201Y3611351D01*
X15207890Y3602937D01*
X15190446Y3589553D01*
X15177063Y3572110D01*
X15174118Y3565000D01*
X14110001D01*
Y3955000D01*
X14662869D01*
X14667430Y3953111D01*
X14676894Y3949011D01*
X14677570Y3948911D01*
X14678201Y3948649D01*
X14688435Y3947302D01*
X14698642Y3945790D01*
X15150664Y3938500D01*
X15151160Y3935996D01*
X15155582Y3929381D01*
X15162196Y3924960D01*
X15170000Y3923408D01*
X15470000D01*
X15477805Y3924960D01*
X15484419Y3929381D01*
X15488840Y3935996D01*
X15490392Y3943800D01*
Y3955000D01*
X16700000D01*
X16727100Y3982100D01*
X16727100Y4412100D01*
X16779999Y4465000D01*
X17060001Y4465000D01*
Y3755000D01*
D02*
G37*
G36*
X22591408Y7738600D02*
X22592960Y7730796D01*
X22597382Y7724181D01*
X22603996Y7719760D01*
X22611800Y7718208D01*
X22701801D01*
X22709602Y7719760D01*
X22716219Y7724181D01*
X22720639Y7730796D01*
X22722192Y7738600D01*
Y7741548D01*
X22733925Y7746408D01*
X22970055Y7510278D01*
X22965971Y7498252D01*
X22965202Y7498151D01*
X22944890Y7489737D01*
X22927448Y7476353D01*
X22914062Y7458910D01*
X22905649Y7438598D01*
X22902779Y7416800D01*
X22905649Y7395002D01*
X22914062Y7374690D01*
X22927448Y7357247D01*
X22944890Y7343863D01*
X22965202Y7335449D01*
X22987000Y7332579D01*
X23008798Y7335449D01*
X23029111Y7343863D01*
X23046553Y7357247D01*
X23056731Y7370511D01*
X23147845D01*
X23156969Y7348485D01*
X23172391Y7328389D01*
X23192485Y7312969D01*
X23215887Y7303276D01*
X23241000Y7299970D01*
X23266113Y7303276D01*
X23289516Y7312969D01*
X23309610Y7328389D01*
X23325031Y7348485D01*
X23334724Y7371887D01*
X23338029Y7397000D01*
X23334724Y7422113D01*
X23325031Y7445515D01*
X23309610Y7465610D01*
X23303873Y7470014D01*
X23308183Y7482714D01*
X23658018D01*
X23678104Y7462630D01*
X23664969Y7445515D01*
X23655276Y7422113D01*
X23651970Y7397000D01*
X23655276Y7371887D01*
X23664969Y7348485D01*
X23680389Y7328389D01*
X23700485Y7312969D01*
X23723888Y7303276D01*
X23749001Y7299970D01*
X23774113Y7303276D01*
X23797514Y7312969D01*
X23804649Y7318444D01*
X23816039Y7312826D01*
Y7227174D01*
X23804649Y7221556D01*
X23797514Y7227031D01*
X23774113Y7236724D01*
X23749001Y7240030D01*
X23723888Y7236724D01*
X23700485Y7227031D01*
X23680389Y7211610D01*
X23664969Y7191515D01*
X23655276Y7168113D01*
X23651970Y7143000D01*
X23655276Y7117887D01*
X23664969Y7094485D01*
X23680389Y7074389D01*
X23700485Y7058969D01*
X23723888Y7049276D01*
X23749001Y7045970D01*
X23774113Y7049276D01*
X23797514Y7058969D01*
X23804649Y7064444D01*
X23816039Y7058826D01*
Y6973174D01*
X23804649Y6967556D01*
X23797514Y6973031D01*
X23774113Y6982724D01*
X23749001Y6986030D01*
X23723888Y6982724D01*
X23700485Y6973031D01*
X23680389Y6957610D01*
X23664969Y6937515D01*
X23655276Y6914113D01*
X23651970Y6889000D01*
X23655276Y6863887D01*
X23664969Y6840485D01*
X23680389Y6820389D01*
X23700485Y6804969D01*
X23723888Y6795276D01*
X23749001Y6791970D01*
X23774113Y6795276D01*
X23797514Y6804969D01*
X23804649Y6810444D01*
X23816039Y6804827D01*
Y6465173D01*
X23804649Y6459556D01*
X23797514Y6465031D01*
X23774113Y6474724D01*
X23749001Y6478030D01*
X23723888Y6474724D01*
X23700485Y6465031D01*
X23680389Y6449610D01*
X23664969Y6429515D01*
X23655276Y6406113D01*
X23651970Y6381000D01*
X23655276Y6355887D01*
X23664969Y6332485D01*
X23680389Y6312389D01*
X23700485Y6296969D01*
X23723888Y6287276D01*
X23749001Y6283970D01*
X23774113Y6287276D01*
X23797514Y6296969D01*
X23804649Y6302444D01*
X23816040Y6296827D01*
Y6211173D01*
X23804649Y6205556D01*
X23797514Y6211031D01*
X23774113Y6220724D01*
X23749001Y6224030D01*
X23723888Y6220724D01*
X23717702Y6218162D01*
X23643732Y6292132D01*
X23628714Y6302166D01*
X23611000Y6305690D01*
X23610999Y6305689D01*
X23098433D01*
X23085953Y6321953D01*
X23068510Y6335337D01*
X23048198Y6343751D01*
X23026401Y6346621D01*
X23004602Y6343751D01*
X22984290Y6335337D01*
X22966847Y6321953D01*
X22953464Y6304511D01*
X22945049Y6284198D01*
X22942180Y6262400D01*
X22945049Y6240602D01*
X22953464Y6220290D01*
X22966847Y6202847D01*
X22984290Y6189463D01*
X23004602Y6181049D01*
X23026401Y6178180D01*
X23048198Y6181049D01*
X23068510Y6189463D01*
X23085953Y6202847D01*
X23093828Y6213111D01*
X23591826D01*
X23654991Y6149946D01*
X23651970Y6127000D01*
X23655276Y6101887D01*
X23658295Y6094598D01*
D01*
X23664969Y6078485D01*
X23680389Y6058389D01*
X23700485Y6042969D01*
X23723888Y6033276D01*
X23749001Y6029970D01*
X23774113Y6033276D01*
X23797514Y6042969D01*
X23812500Y6054468D01*
X23825200Y6048205D01*
Y5951795D01*
X23812500Y5945532D01*
X23797514Y5957031D01*
X23774113Y5966724D01*
X23749001Y5970030D01*
X23723888Y5966724D01*
X23700485Y5957031D01*
X23680389Y5941610D01*
X23664969Y5921515D01*
X23655276Y5898113D01*
X23651970Y5873000D01*
X23655276Y5847887D01*
X23664969Y5824485D01*
X23680389Y5804389D01*
X23700485Y5788969D01*
X23723888Y5779276D01*
X23749001Y5775970D01*
X23774113Y5779276D01*
X23797514Y5788969D01*
X23812500Y5800468D01*
X23825200Y5794205D01*
Y5697795D01*
X23812500Y5691532D01*
X23797514Y5703031D01*
X23774113Y5712724D01*
X23749001Y5716030D01*
X23723888Y5712724D01*
X23717702Y5710162D01*
X23654732Y5773132D01*
X23639714Y5783166D01*
X23622000Y5786690D01*
X23621999Y5786689D01*
X23292374D01*
X23291368Y5786890D01*
X23291367Y5786889D01*
X23171176D01*
X23100839Y5857226D01*
X23103021Y5873801D01*
X23100153Y5895599D01*
X23091737Y5915911D01*
X23078354Y5933354D01*
X23060912Y5946738D01*
X23040599Y5955152D01*
X23018800Y5958021D01*
X22997003Y5955152D01*
X22976691Y5946738D01*
X22959248Y5933354D01*
X22945863Y5915911D01*
X22937450Y5895599D01*
X22934579Y5873801D01*
X22937450Y5852003D01*
X22945863Y5831691D01*
X22959248Y5814248D01*
X22976691Y5800864D01*
X22997003Y5792450D01*
X23018800Y5789580D01*
X23035376Y5791762D01*
X23119270Y5707868D01*
X23134286Y5697834D01*
X23152002Y5694310D01*
X23152003Y5694310D01*
X23161522D01*
X23167786Y5681610D01*
X23156969Y5667515D01*
X23147276Y5644113D01*
X23143970Y5619000D01*
X23147276Y5593887D01*
X23156969Y5570485D01*
X23172391Y5550389D01*
X23192485Y5534969D01*
X23215887Y5525276D01*
X23241000Y5521970D01*
X23266113Y5525276D01*
X23289516Y5534969D01*
X23309610Y5550389D01*
X23325031Y5570485D01*
X23334724Y5593887D01*
X23338029Y5619000D01*
X23334724Y5644113D01*
X23325031Y5667515D01*
X23314368Y5681411D01*
X23320631Y5694111D01*
X23602826D01*
X23654991Y5641946D01*
X23651970Y5619000D01*
X23655276Y5593887D01*
X23664969Y5570485D01*
X23680389Y5550389D01*
X23700485Y5534969D01*
X23723888Y5525276D01*
X23749001Y5521970D01*
X23774113Y5525276D01*
X23797514Y5534969D01*
X23812500Y5546468D01*
X23825200Y5540205D01*
Y5443795D01*
X23812500Y5437532D01*
X23797514Y5449031D01*
X23774113Y5458724D01*
X23749001Y5462030D01*
X23723888Y5458724D01*
X23700485Y5449031D01*
X23680389Y5433610D01*
X23664969Y5413515D01*
X23655276Y5390113D01*
X23651970Y5365000D01*
X23655276Y5339887D01*
X23664969Y5316485D01*
X23680389Y5296389D01*
X23700485Y5280969D01*
X23723888Y5271276D01*
X23749001Y5267970D01*
X23774113Y5271276D01*
X23797514Y5280969D01*
X23812500Y5292468D01*
X23825200Y5286205D01*
Y5029200D01*
X21384801D01*
Y5023200D01*
X20498000D01*
Y5378800D01*
X21005800D01*
Y5690215D01*
X21085693D01*
X21099352Y5692931D01*
X21110928Y5700667D01*
X21506032Y6095771D01*
X21899333Y6489072D01*
X21907069Y6500649D01*
X21909785Y6514305D01*
Y7508318D01*
X22163582Y7762114D01*
X22591408D01*
Y7738600D01*
D02*
G37*
G36*
X23658949Y7938983D02*
X23655276Y7930113D01*
X23651970Y7905000D01*
X23655276Y7879887D01*
X23664969Y7856485D01*
X23680389Y7836389D01*
X23700485Y7820969D01*
X23723888Y7811276D01*
X23749001Y7807970D01*
X23774113Y7811276D01*
X23797514Y7820969D01*
X23804649Y7826443D01*
X23816039Y7820826D01*
X23816039Y7735174D01*
X23804649Y7729557D01*
X23797514Y7735031D01*
X23774113Y7744724D01*
X23749001Y7748030D01*
X23723888Y7744724D01*
X23700485Y7735031D01*
X23691405Y7728063D01*
X23367834Y8051634D01*
X23356256Y8059369D01*
X23342599Y8062086D01*
X23291599D01*
X23289072Y8074786D01*
X23289516Y8074969D01*
X23309610Y8090389D01*
X23325031Y8110485D01*
X23334724Y8133887D01*
X23338029Y8159000D01*
X23334724Y8184113D01*
X23325031Y8207515D01*
X23309610Y8227610D01*
X23303873Y8232014D01*
X23308183Y8244714D01*
X23353218D01*
X23658949Y7938983D01*
D02*
G37*
G36*
X8726201Y6508801D02*
X8751601Y6483401D01*
X8929401Y6305601D01*
X8980201Y6254801D01*
X10605801D01*
X10605801Y6051601D01*
X8523001Y6051602D01*
X8523001Y7296201D01*
X8726201Y7296201D01*
Y6508801D01*
D02*
G37*
G36*
X8356600Y5715000D02*
X8394139D01*
X8408472Y5700667D01*
X8420049Y5692931D01*
X8433706Y5690215D01*
X8610600D01*
Y5461000D01*
X7594600D01*
Y5816600D01*
X8255000D01*
X8356600Y5715000D01*
D02*
G37*
G36*
X23653780Y7664752D02*
X23651970Y7651000D01*
X23655276Y7625887D01*
X23664969Y7602485D01*
X23680389Y7582389D01*
X23700485Y7566969D01*
X23723888Y7557276D01*
X23749001Y7553970D01*
X23774113Y7557276D01*
X23797514Y7566969D01*
X23804649Y7572443D01*
X23816039Y7566826D01*
Y7481174D01*
X23804649Y7475557D01*
X23797514Y7481031D01*
X23774113Y7490724D01*
X23749001Y7494030D01*
X23747797Y7493871D01*
X23698035Y7543634D01*
X23686456Y7551369D01*
X23672800Y7554086D01*
X23291599D01*
X23289072Y7566786D01*
X23289516Y7566969D01*
X23309610Y7582389D01*
X23325031Y7602485D01*
X23334724Y7625887D01*
X23338029Y7651000D01*
X23334724Y7676113D01*
X23325031Y7699515D01*
X23309610Y7719610D01*
X23289516Y7735031D01*
X23266113Y7744724D01*
X23241000Y7748030D01*
X23215887Y7744724D01*
X23192485Y7735031D01*
X23172391Y7719610D01*
X23156969Y7699515D01*
X23147276Y7676113D01*
X23143970Y7651000D01*
X23147276Y7625887D01*
X23156969Y7602485D01*
X23172391Y7582389D01*
X23192485Y7566969D01*
X23192928Y7566786D01*
X23190402Y7554086D01*
X23027182D01*
X22758234Y7823034D01*
X22746655Y7830769D01*
X22733000Y7833486D01*
X22412428D01*
X22409901Y7846186D01*
X22420711Y7850663D01*
X22438153Y7864047D01*
X22443362Y7870836D01*
X22602386D01*
X22603996Y7869760D01*
X22611800Y7868208D01*
X22701801D01*
X22709602Y7869760D01*
X22716219Y7874181D01*
X22720639Y7880796D01*
X22722192Y7888600D01*
Y7958600D01*
X22720639Y7966403D01*
X22716219Y7973019D01*
X22709602Y7977439D01*
X22706714Y7978014D01*
X22707964Y7990714D01*
X22769583D01*
X22770760Y7984796D01*
X22775182Y7978181D01*
X22781796Y7973760D01*
X22789600Y7972208D01*
X22879601D01*
X22887402Y7973760D01*
X22894019Y7978181D01*
X22898439Y7984796D01*
X22899615Y7990714D01*
X23173817D01*
X23178128Y7978014D01*
X23172391Y7973610D01*
X23156969Y7953515D01*
X23147276Y7930113D01*
X23143970Y7905000D01*
X23147050Y7881599D01*
X23144656Y7877002D01*
X23137836Y7869489D01*
X23056731D01*
X23046553Y7882753D01*
X23029111Y7896137D01*
X23008798Y7904551D01*
X22987000Y7907421D01*
X22965202Y7904551D01*
X22944890Y7896137D01*
X22927448Y7882753D01*
X22914062Y7865310D01*
X22905649Y7844998D01*
X22902779Y7823200D01*
X22905649Y7801402D01*
X22914062Y7781090D01*
X22927448Y7763647D01*
X22944890Y7750263D01*
X22965202Y7741849D01*
X22987000Y7738979D01*
X23008798Y7741849D01*
X23029111Y7750263D01*
X23046553Y7763647D01*
X23056731Y7776911D01*
X23164799D01*
X23164799Y7776910D01*
X23182513Y7780434D01*
X23197533Y7790468D01*
X23218054Y7810991D01*
X23241000Y7807970D01*
X23266113Y7811276D01*
X23289516Y7820969D01*
X23309610Y7836389D01*
X23325031Y7856485D01*
X23334724Y7879887D01*
X23338029Y7905000D01*
X23334724Y7930113D01*
X23325031Y7953515D01*
X23309610Y7973610D01*
X23303873Y7978014D01*
X23308183Y7990714D01*
X23327818D01*
X23653780Y7664752D01*
D02*
G37*
G36*
X23658949Y8192983D02*
X23655276Y8184113D01*
X23651970Y8159000D01*
X23655276Y8133887D01*
X23664969Y8110485D01*
X23680389Y8090389D01*
X23700485Y8074969D01*
X23723888Y8065276D01*
X23749001Y8061970D01*
X23774113Y8065276D01*
X23797514Y8074969D01*
X23804649Y8080443D01*
X23816039Y8074826D01*
Y7989174D01*
X23804649Y7983557D01*
X23797514Y7989031D01*
X23774113Y7998724D01*
X23749001Y8002030D01*
X23723888Y7998724D01*
X23707098Y7991770D01*
X23393234Y8305634D01*
X23381656Y8313369D01*
X23367999Y8316086D01*
X23103192D01*
Y8316600D01*
X23101639Y8324403D01*
X23097218Y8331019D01*
X23090604Y8335440D01*
X23082800Y8336992D01*
X22992799D01*
X22984996Y8335440D01*
X22978381Y8331019D01*
X22973959Y8324403D01*
X22972408Y8316600D01*
Y8316086D01*
X22927682D01*
X22922206Y8328786D01*
X22922630Y8329236D01*
X22936200D01*
X22956392Y8333253D01*
X22973511Y8344690D01*
X23005026Y8376208D01*
X23082800D01*
X23090604Y8377760D01*
X23097218Y8382181D01*
X23101639Y8388796D01*
X23103192Y8396600D01*
Y8466600D01*
X23101639Y8474403D01*
X23100697Y8475814D01*
X23107121Y8488514D01*
X23363419D01*
X23658949Y8192983D01*
D02*
G37*
G36*
X15024602Y4120000D02*
X14729106D01*
X14694221Y4154885D01*
Y4290000D01*
X14691351Y4311798D01*
X14682938Y4332110D01*
X14669553Y4349553D01*
X14652110Y4362937D01*
X14631798Y4371351D01*
X14610001Y4374221D01*
X14588202Y4371351D01*
X14567889Y4362937D01*
X14550447Y4349553D01*
X14537064Y4332110D01*
X14528648Y4311798D01*
X14525780Y4290000D01*
Y4120000D01*
X14525780Y4120000D01*
X14110201D01*
X14110201Y5390200D01*
X15024602D01*
X15024602Y4120000D01*
D02*
G37*
G36*
X8497600D02*
X8199106D01*
X8164221Y4154885D01*
Y4300000D01*
X8161351Y4321798D01*
X8152937Y4342110D01*
X8139553Y4359553D01*
X8122110Y4372937D01*
X8101798Y4381351D01*
X8080000Y4384221D01*
X8058202Y4381351D01*
X8037890Y4372937D01*
X8020447Y4359553D01*
X8007063Y4342110D01*
X7998649Y4321798D01*
X7995780Y4300000D01*
Y4120000D01*
X7583200D01*
X7583200Y5410200D01*
X8497601D01*
X8497600Y4120000D01*
D02*
G37*
G36*
X23798999Y2922000D02*
X23848000Y2873000D01*
X23848001Y2519000D01*
X23808020Y2479019D01*
X22572986Y2477492D01*
X22564000Y2486467D01*
Y2922000D01*
X23798999Y2922000D01*
D02*
G37*
G36*
X21998000Y3215956D02*
Y2960000D01*
X21799998Y2960000D01*
X20870000Y2030000D01*
X20721001D01*
Y2033000D01*
X12565000Y2033001D01*
X12565000Y2485000D01*
X20833000Y2485000D01*
Y2484000D01*
X20913000Y2484000D01*
X21656000Y3226999D01*
X21986957Y3227000D01*
X21998000Y3215956D01*
D02*
G37*
G36*
X13100000Y4970300D02*
X13099998Y2956000D01*
X11782099Y2956000D01*
X11782100Y4970300D01*
X13100000Y4970300D01*
D02*
G37*
G36*
X23816039Y10021174D02*
X23804648Y10015557D01*
X23797514Y10021031D01*
X23774113Y10030724D01*
X23749001Y10034030D01*
X23723888Y10030724D01*
X23700485Y10021031D01*
X23680389Y10005610D01*
X23664969Y9985515D01*
X23655276Y9962113D01*
X23651970Y9937000D01*
X23655276Y9911887D01*
X23664969Y9888485D01*
X23680389Y9868389D01*
X23700485Y9852969D01*
X23723888Y9843276D01*
X23749001Y9839970D01*
X23774113Y9843276D01*
X23797514Y9852969D01*
X23804648Y9858443D01*
X23816039Y9852826D01*
Y9767174D01*
X23804648Y9761557D01*
X23797514Y9767031D01*
X23774113Y9776724D01*
X23749001Y9780030D01*
X23723888Y9776724D01*
X23700485Y9767031D01*
X23680389Y9751610D01*
X23664969Y9731515D01*
X23655276Y9708113D01*
X23651970Y9683000D01*
X23655276Y9657887D01*
X23664969Y9634485D01*
X23680389Y9614389D01*
X23700485Y9598969D01*
X23723888Y9589276D01*
X23749001Y9585970D01*
X23774113Y9589276D01*
X23797514Y9598969D01*
X23804648Y9604443D01*
X23816039Y9598826D01*
Y9513174D01*
X23804648Y9507557D01*
X23797514Y9513031D01*
X23774113Y9522724D01*
X23749001Y9526030D01*
X23723888Y9522724D01*
X23700945Y9513220D01*
X23289056D01*
X23266573Y9522533D01*
X23211563Y9577543D01*
X23213931Y9583970D01*
X23218079Y9588988D01*
X23241000Y9585970D01*
X23266113Y9589276D01*
X23289516Y9598969D01*
X23309610Y9614389D01*
X23325031Y9634485D01*
X23334724Y9657887D01*
X23338029Y9683000D01*
X23334724Y9708113D01*
X23325031Y9731515D01*
X23309610Y9751610D01*
X23289516Y9767031D01*
X23266113Y9776724D01*
X23241000Y9780030D01*
X23215887Y9776724D01*
X23192485Y9767031D01*
X23172391Y9751610D01*
X23156969Y9731515D01*
X23147276Y9708113D01*
X23143970Y9683000D01*
X23146988Y9660079D01*
X23141969Y9655932D01*
X23135542Y9653563D01*
X22643213Y10145893D01*
X22625771Y10159277D01*
X22605458Y10167691D01*
X22583659Y10170561D01*
X20740820D01*
X20734557Y10183261D01*
X20740916Y10191550D01*
X20749332Y10211862D01*
X20752200Y10233660D01*
X20749332Y10255458D01*
X20740916Y10275770D01*
X20727533Y10293213D01*
X20710091Y10306597D01*
X20696242Y10312334D01*
Y10543540D01*
X20693703Y10556299D01*
X20686476Y10567115D01*
X20432475Y10821115D01*
X20421658Y10828343D01*
X20408900Y10830881D01*
X13796391D01*
Y10835996D01*
X13794839Y10843799D01*
X13790419Y10850415D01*
X13783804Y10854836D01*
X13775999Y10856388D01*
X13686000D01*
X13678197Y10854836D01*
X13671581Y10850415D01*
X13667160Y10843799D01*
X13665608Y10835996D01*
Y10830881D01*
X6311195D01*
X6298436Y10828343D01*
X6287620Y10821115D01*
X6105765Y10639260D01*
X6098537Y10628444D01*
X6095999Y10615685D01*
Y10303670D01*
X5983130Y10190801D01*
X5057460D01*
X5044701Y10188263D01*
X5033885Y10181035D01*
X4256425Y9403575D01*
X4249197Y9392759D01*
X4246660Y9380000D01*
Y9181412D01*
X4234747Y9173453D01*
X4222592Y9155260D01*
X4218323Y9133800D01*
X4222592Y9112340D01*
X4234747Y9094147D01*
X4252940Y9081991D01*
X4274400Y9077723D01*
X4295860Y9081991D01*
X4314053Y9094147D01*
X4326209Y9112340D01*
X4330477Y9133800D01*
X4326209Y9155260D01*
X4314053Y9173453D01*
X4313341Y9173929D01*
Y9366190D01*
X5071270Y10124119D01*
X5427786D01*
X5433013Y10112250D01*
X5426754Y10104340D01*
X5220000D01*
X5207241Y10101803D01*
X5196425Y10094575D01*
X4512084Y9410234D01*
X4505400Y9411564D01*
X4485208Y9407548D01*
X4468090Y9396110D01*
X4456653Y9378992D01*
X4452636Y9358800D01*
X4456653Y9338608D01*
X4468090Y9321490D01*
X4485208Y9310053D01*
X4505400Y9306036D01*
X4525592Y9310053D01*
X4542710Y9321490D01*
X4554147Y9338608D01*
X4558164Y9358800D01*
X4557631Y9361480D01*
X5233810Y10037659D01*
X5443000D01*
X5455759Y10040197D01*
X5466575Y10047425D01*
X5479770Y10060619D01*
X6029960D01*
X6042719Y10063157D01*
X6053535Y10070385D01*
X6198315Y10215165D01*
X6205543Y10225981D01*
X6208081Y10238740D01*
Y10583070D01*
X6220810Y10595800D01*
X6233510Y10590539D01*
Y10274405D01*
X6235062Y10266602D01*
X6239483Y10259986D01*
X6246099Y10255565D01*
X6253902Y10254013D01*
X6397688D01*
X6624914Y10026787D01*
X6642357Y10013403D01*
X6662669Y10004989D01*
X6684467Y10002119D01*
X22548775D01*
X23147467Y9403427D01*
X23156969Y9380485D01*
X23172391Y9360389D01*
X23192485Y9344969D01*
X23215887Y9335276D01*
X23241000Y9331970D01*
X23266113Y9335276D01*
X23289056Y9344779D01*
X23700945D01*
X23723888Y9335276D01*
X23749001Y9331970D01*
X23774113Y9335276D01*
X23797514Y9344969D01*
X23804648Y9350443D01*
X23816039Y9344826D01*
X23816039Y9005174D01*
X23804648Y8999557D01*
X23797514Y9005031D01*
X23774113Y9014724D01*
X23749001Y9018030D01*
X23723888Y9014724D01*
X23700485Y9005031D01*
X23680389Y8989610D01*
X23664969Y8969515D01*
X23658684Y8954340D01*
X23331316D01*
X23325031Y8969515D01*
X23309610Y8989610D01*
X23289516Y9005031D01*
X23266113Y9014724D01*
X23241000Y9018030D01*
X23215887Y9014724D01*
X23192485Y9005031D01*
X23172391Y8989610D01*
X23156969Y8969515D01*
X23148364Y8948741D01*
X22911400D01*
X22898640Y8946203D01*
X22887825Y8938975D01*
X21607425Y7658575D01*
X21600197Y7647759D01*
X21597659Y7635000D01*
Y6628810D01*
X21052888Y6084038D01*
X10626193Y6084038D01*
X10626193Y6254801D01*
X10624641Y6262605D01*
X10620221Y6269220D01*
X10613605Y6273641D01*
X10605801Y6275193D01*
X8988648D01*
X8943821Y6320020D01*
X8943820Y6320021D01*
X8766021Y6497820D01*
X8766020Y6497821D01*
X8746593Y6517248D01*
Y7296201D01*
X8745041Y7304005D01*
X8740621Y7310621D01*
X8734005Y7315041D01*
X8726201Y7316593D01*
X8523001Y7316593D01*
X8515197Y7315041D01*
X8508581Y7310620D01*
X8504161Y7304005D01*
X8502609Y7296201D01*
X8502609Y6084038D01*
X8466513D01*
X8221375Y6329176D01*
X8220902Y6331550D01*
X8213675Y6342367D01*
X8024467Y6531575D01*
X8013650Y6538803D01*
X8000891Y6541340D01*
X5948810D01*
X4811341Y7678810D01*
Y7708099D01*
X4824041Y7711283D01*
X4840940Y7699991D01*
X4862400Y7695723D01*
X4883860Y7699991D01*
X4902053Y7712147D01*
X4914209Y7730340D01*
X4918477Y7751800D01*
X4917546Y7756479D01*
X5173234Y8012167D01*
X5180969Y8023744D01*
X5183686Y8037400D01*
Y8341138D01*
X5185710Y8342490D01*
X5197148Y8359608D01*
X5201164Y8379800D01*
X5197148Y8399992D01*
X5185710Y8417110D01*
X5168592Y8428548D01*
X5148400Y8432564D01*
X5128208Y8428548D01*
X5111090Y8417110D01*
X5099653Y8399992D01*
X5095636Y8379800D01*
X5099653Y8359608D01*
X5111090Y8342490D01*
X5112314Y8341672D01*
Y8241609D01*
X5099614Y8237756D01*
X5098710Y8239110D01*
X5081592Y8250548D01*
X5061400Y8254564D01*
X5041208Y8250548D01*
X5024090Y8239110D01*
X5012653Y8221992D01*
X5008636Y8201800D01*
X5012653Y8181608D01*
X5024090Y8164490D01*
X5026314Y8163005D01*
Y8096182D01*
X4849079Y7918947D01*
X4844400Y7919877D01*
X4824041Y7915828D01*
X4820884Y7916228D01*
X4811341Y7921329D01*
Y8767190D01*
X4835715Y8791565D01*
X4843400Y8790036D01*
X4863592Y8794053D01*
X4880710Y8805490D01*
X4892147Y8822608D01*
X4896164Y8842800D01*
X4892147Y8862992D01*
X4880710Y8880110D01*
X4863592Y8891548D01*
X4848729Y8894504D01*
X4847466Y8898699D01*
X4847388Y8907720D01*
X4862310Y8917690D01*
X4873747Y8934808D01*
X4877764Y8955000D01*
X4873747Y8975192D01*
X4862310Y8992310D01*
X4845192Y9003748D01*
X4825000Y9007764D01*
X4804808Y9003748D01*
X4787690Y8992310D01*
X4776253Y8975192D01*
X4772236Y8955000D01*
X4773731Y8947486D01*
X4707725Y8881480D01*
X4700497Y8870664D01*
X4697959Y8857905D01*
Y8755337D01*
X4685259Y8751026D01*
X4682553Y8754553D01*
X4665110Y8767937D01*
X4644798Y8776351D01*
X4623000Y8779220D01*
X4601202Y8776351D01*
X4580889Y8767937D01*
X4563447Y8754553D01*
X4550063Y8737110D01*
X4541649Y8716798D01*
X4538779Y8695000D01*
X4541649Y8673202D01*
X4550063Y8652889D01*
X4563447Y8635447D01*
X4580889Y8622063D01*
X4601202Y8613649D01*
X4623000Y8610779D01*
X4644798Y8613649D01*
X4665110Y8622063D01*
X4682553Y8635447D01*
X4685259Y8638974D01*
X4697959Y8634663D01*
Y8223423D01*
X4688947Y8218605D01*
X4685259Y8217813D01*
X4666400Y8221564D01*
X4646208Y8217547D01*
X4629090Y8206110D01*
X4622516Y8196270D01*
X4615131Y8189885D01*
X4606241Y8193033D01*
X4596192Y8199747D01*
X4576000Y8203764D01*
X4555808Y8199747D01*
X4547384Y8194119D01*
X4530285Y8196850D01*
X4529310Y8198310D01*
X4512192Y8209747D01*
X4492000Y8213764D01*
X4471808Y8209747D01*
X4459692Y8201652D01*
X4444321Y8202801D01*
X4442927Y8203565D01*
X4426192Y8214747D01*
X4406000Y8218764D01*
X4385808Y8214747D01*
X4368690Y8203310D01*
X4357253Y8186192D01*
X4353236Y8166000D01*
X4357253Y8145808D01*
X4368690Y8128690D01*
X4372314Y8126269D01*
Y7691206D01*
X4375031Y7677550D01*
X4382766Y7665972D01*
X5811472Y6237267D01*
X5823049Y6229532D01*
X5836705Y6226815D01*
X7887815D01*
X7913621Y6201009D01*
X7914031Y6198950D01*
X7921766Y6187372D01*
X8013368Y6095771D01*
X8008508Y6084038D01*
X7601992D01*
X7337530Y5732811D01*
X7325486Y5736838D01*
Y5969602D01*
X7331910Y5972263D01*
X7349353Y5985647D01*
X7362737Y6003090D01*
X7371151Y6023402D01*
X7374021Y6045200D01*
X7371151Y6066998D01*
X7364399Y6083299D01*
X7364761Y6084038D01*
X7364093D01*
X7362737Y6087310D01*
X7349353Y6104753D01*
X7331910Y6118137D01*
X7311598Y6126551D01*
X7289800Y6129421D01*
X7268002Y6126551D01*
X7247690Y6118137D01*
X7230247Y6104753D01*
X7216863Y6087310D01*
X7215507Y6084038D01*
X7214839D01*
X7215201Y6083299D01*
X7208449Y6066998D01*
X7205579Y6045200D01*
X7208449Y6023402D01*
X7216863Y6003090D01*
X7230247Y5985647D01*
X7247690Y5972263D01*
X7254114Y5969602D01*
Y5664200D01*
X7256831Y5650544D01*
X7264566Y5638966D01*
X7265880Y5637653D01*
X7151000Y5485084D01*
X7151000Y3363086D01*
X2585857D01*
X2579749Y3377831D01*
X2563721Y3398721D01*
X2542831Y3414750D01*
X2518505Y3424826D01*
X2492400Y3428263D01*
X2466295Y3424826D01*
X2441969Y3414750D01*
X2421079Y3398721D01*
X2405050Y3377831D01*
X2394974Y3353505D01*
X2391537Y3327400D01*
X2394974Y3301295D01*
X2405050Y3276969D01*
X2421079Y3256079D01*
X2441969Y3240050D01*
X2466295Y3229974D01*
X2492400Y3226537D01*
X2518505Y3229974D01*
X2542831Y3240050D01*
X2563721Y3256079D01*
X2579749Y3276969D01*
X2585857Y3291714D01*
X7151000D01*
Y3058286D01*
X2797200D01*
X2783544Y3055569D01*
X2771966Y3047834D01*
X2514487Y2790355D01*
X2492400Y2793263D01*
X2466295Y2789826D01*
X2441969Y2779750D01*
X2421079Y2763721D01*
X2405050Y2742831D01*
X2394974Y2718505D01*
X2391537Y2692400D01*
X2394974Y2666295D01*
X2405050Y2641969D01*
X2421079Y2621079D01*
X2441969Y2605050D01*
X2466295Y2594974D01*
X2492400Y2591537D01*
X2518505Y2594974D01*
X2542831Y2605050D01*
X2563721Y2621079D01*
X2579749Y2641969D01*
X2589826Y2666295D01*
X2593263Y2692400D01*
X2589826Y2718505D01*
X2579749Y2742831D01*
X2574604Y2749537D01*
X2811981Y2986914D01*
X7151000D01*
Y2778886D01*
X4114198D01*
X4111537Y2785310D01*
X4098153Y2802753D01*
X4080710Y2816137D01*
X4060398Y2824551D01*
X4038600Y2827421D01*
X4016802Y2824551D01*
X3996490Y2816137D01*
X3979047Y2802753D01*
X3965663Y2785310D01*
X3957249Y2764998D01*
X3954379Y2743200D01*
X3957249Y2721402D01*
X3965663Y2701090D01*
X3979047Y2683647D01*
X3996490Y2670263D01*
X4016802Y2661849D01*
X4038600Y2658979D01*
X4060398Y2661849D01*
X4080710Y2670263D01*
X4098153Y2683647D01*
X4111537Y2701090D01*
X4114198Y2707514D01*
X7151000D01*
X7150999Y2474085D01*
X3203792D01*
Y2483400D01*
X3202240Y2491203D01*
X3197819Y2497819D01*
X3191204Y2502239D01*
X3183400Y2503792D01*
X3113400D01*
X3105597Y2502239D01*
X3098981Y2497819D01*
X3094560Y2491203D01*
X3093008Y2483400D01*
Y2393400D01*
X3094560Y2385596D01*
X3098981Y2378981D01*
X3105597Y2374560D01*
X3113400Y2373008D01*
X3183400D01*
X3191204Y2374560D01*
X3197819Y2378981D01*
X3202240Y2385596D01*
X3203792Y2393400D01*
Y2402714D01*
X7150999D01*
Y1778999D01*
X2311399Y1779000D01*
X2311400Y6083300D01*
X2311972Y6084038D01*
X2286000D01*
Y6164532D01*
X2296957Y6174247D01*
X2298700Y6174668D01*
X2376171D01*
X2383974Y6176220D01*
X2390590Y6180641D01*
X2429960Y6220011D01*
X2434380Y6226626D01*
X2435933Y6234430D01*
Y6313170D01*
X2434380Y6320974D01*
X2429960Y6327589D01*
X2390590Y6366959D01*
X2383974Y6371380D01*
X2376171Y6372932D01*
X2297431D01*
X2286000Y6383068D01*
X2285999Y10935437D01*
X23816039Y10935438D01*
X23816039Y10021174D01*
D02*
G37*
G36*
X20629559Y10529730D02*
Y10308125D01*
X20625870Y10306597D01*
X20608427Y10293213D01*
X20595042Y10275770D01*
X20586629Y10255458D01*
X20583759Y10233660D01*
X20586629Y10211862D01*
X20595042Y10191550D01*
X20601402Y10183261D01*
X20595140Y10170561D01*
X13311320D01*
X13305057Y10183261D01*
X13311417Y10191550D01*
X13319830Y10211862D01*
X13322701Y10233660D01*
X13319830Y10255458D01*
X13311417Y10275770D01*
X13298033Y10293213D01*
X13280589Y10306597D01*
X13260278Y10315011D01*
X13238480Y10317881D01*
X13216682Y10315011D01*
X13207912Y10311378D01*
X13137595Y10381695D01*
X13126779Y10388923D01*
X13114020Y10391461D01*
X13102431D01*
X12741424Y10752466D01*
X12746285Y10764199D01*
X13665965D01*
X13667160Y10758192D01*
X13671581Y10751577D01*
X13678197Y10747156D01*
X13686000Y10745604D01*
X13775999D01*
X13783804Y10747156D01*
X13790419Y10751577D01*
X13794839Y10758192D01*
X13796034Y10764199D01*
X20395090D01*
X20629559Y10529730D01*
D02*
G37*
G36*
X13065045Y10334544D02*
X13075861Y10327317D01*
X13088620Y10324779D01*
X13100211D01*
X13160762Y10264228D01*
X13157129Y10255458D01*
X13154259Y10233660D01*
X13157129Y10211862D01*
X13165543Y10191550D01*
X13171902Y10183261D01*
X13165640Y10170561D01*
X6719352D01*
X6429294Y10460619D01*
Y10604405D01*
X6427742Y10612209D01*
X6423321Y10618824D01*
X6416706Y10623245D01*
X6408902Y10624797D01*
X6267768D01*
X6262507Y10637497D01*
X6335870Y10710859D01*
X9164968D01*
Y10680056D01*
X9166520Y10672252D01*
X9170941Y10665637D01*
X9177556Y10661216D01*
X9185360Y10659664D01*
X9275360D01*
X9283164Y10661216D01*
X9289779Y10665637D01*
X9294200Y10672252D01*
X9295752Y10680056D01*
Y10710859D01*
X12688730D01*
X13065045Y10334544D01*
D02*
G37*
G36*
X11662600Y3403600D02*
X11658000D01*
X11658000Y1960111D01*
X20970023Y1960111D01*
X20976134Y1954000D01*
X21009000D01*
X21750999Y2696000D01*
X21748000Y2699000D01*
Y2835000D01*
X22022000D01*
X22022000Y2503000D01*
X20978999Y1459999D01*
Y1459208D01*
X20970016Y1450230D01*
X10740000Y1455949D01*
Y1479239D01*
X10739000Y1480238D01*
Y5281762D01*
X10748201D01*
Y5410200D01*
X11662601D01*
X11662600Y3403600D01*
D02*
G37*
G36*
X21989999Y3471000D02*
X21603001Y3471000D01*
X21289388Y3157388D01*
X21290266Y3155266D01*
X20996001Y2861000D01*
X17303000Y2860999D01*
X17303000Y3167000D01*
X20900999Y3167000D01*
X21370000Y3636000D01*
X21989999D01*
X21989999Y3471000D01*
D02*
G37*
G36*
X20095967Y5374999D02*
X20097607Y5373000D01*
Y5043000D01*
X20099159Y5035196D01*
X20103581Y5028581D01*
X20110196Y5024160D01*
X20117999Y5022608D01*
X20247301D01*
X20260001Y5010737D01*
X20259999Y3611000D01*
X20723999Y3610999D01*
X21101001Y3988000D01*
X21989999Y3988000D01*
X21989999Y3805000D01*
X21305000Y3805000D01*
X21046097Y3546096D01*
X21046095D01*
X20745003Y3245000D01*
X19481799Y3245000D01*
Y3245393D01*
X18645000Y3245393D01*
X18645001Y5375000D01*
X20095967Y5374999D01*
D02*
G37*
G36*
X23664969Y8872485D02*
X23680389Y8852389D01*
X23700485Y8836969D01*
X23723888Y8827276D01*
X23749001Y8823970D01*
X23774113Y8827276D01*
X23797514Y8836969D01*
X23804648Y8842443D01*
X23816039Y8836826D01*
Y8751174D01*
X23804648Y8745557D01*
X23797514Y8751031D01*
X23774113Y8760724D01*
X23749001Y8764030D01*
X23723888Y8760724D01*
X23700485Y8751031D01*
X23680389Y8735610D01*
X23664969Y8715515D01*
X23658684Y8700340D01*
X23331316D01*
X23325031Y8715515D01*
X23309610Y8735610D01*
X23289516Y8751031D01*
X23266113Y8760724D01*
X23241000Y8764030D01*
X23215887Y8760724D01*
X23192485Y8751031D01*
X23172391Y8735610D01*
X23156969Y8715515D01*
X23148364Y8694741D01*
X22754485D01*
X22749625Y8706474D01*
X22925211Y8882059D01*
X23153004D01*
X23156969Y8872485D01*
X23172391Y8852389D01*
X23192485Y8836969D01*
X23215887Y8827276D01*
X23241000Y8823970D01*
X23266113Y8827276D01*
X23289516Y8836969D01*
X23309610Y8852389D01*
X23325031Y8872485D01*
X23331316Y8887659D01*
X23658684D01*
X23664969Y8872485D01*
D02*
G37*
G36*
X23853999Y3379000D02*
X23854001Y3025000D01*
X23814020Y2985019D01*
X22586986Y2983501D01*
X22578000Y2992476D01*
Y3428000D01*
X23804999D01*
X23853999Y3379000D01*
D02*
G37*
G36*
X18421104Y5406999D02*
Y3302160D01*
X17480504D01*
X17480502Y5407000D01*
X18421104Y5406999D01*
D02*
G37*
%LPC*%
G36*
X23241000Y5462030D02*
X23215887Y5458724D01*
X23192485Y5449031D01*
X23172391Y5433610D01*
X23156969Y5413515D01*
X23147276Y5390113D01*
X23143970Y5365000D01*
X23147276Y5339887D01*
X23156969Y5316485D01*
X23172391Y5296389D01*
X23192485Y5280969D01*
X23215887Y5271276D01*
X23241000Y5267970D01*
X23266113Y5271276D01*
X23289516Y5280969D01*
X23309610Y5296389D01*
X23325031Y5316485D01*
X23334724Y5339887D01*
X23338029Y5365000D01*
X23334724Y5390113D01*
X23325031Y5413515D01*
X23309610Y5433610D01*
X23289516Y5449031D01*
X23266113Y5458724D01*
X23241000Y5462030D01*
D02*
G37*
G36*
Y7240030D02*
X23215887Y7236724D01*
X23192485Y7227031D01*
X23172391Y7211610D01*
X23156969Y7191515D01*
X23147276Y7168113D01*
X23143970Y7143000D01*
X23147276Y7117887D01*
X23156969Y7094485D01*
X23172391Y7074389D01*
X23192485Y7058969D01*
X23215887Y7049276D01*
X23241000Y7045970D01*
X23266113Y7049276D01*
X23289516Y7058969D01*
X23309610Y7074389D01*
X23325031Y7094485D01*
X23334724Y7117887D01*
X23338029Y7143000D01*
X23334724Y7168113D01*
X23325031Y7191515D01*
X23309610Y7211610D01*
X23289516Y7227031D01*
X23266113Y7236724D01*
X23241000Y7240030D01*
D02*
G37*
G36*
X22555200Y6739021D02*
X22533401Y6736151D01*
X22513091Y6727737D01*
X22495647Y6714353D01*
X22482263Y6696910D01*
X22473849Y6676598D01*
X22470979Y6654800D01*
X22473849Y6633002D01*
X22482263Y6612690D01*
X22495647Y6595247D01*
X22513091Y6581863D01*
X22533401Y6573449D01*
X22555200Y6570579D01*
X22576997Y6573449D01*
X22597310Y6581863D01*
X22614754Y6595247D01*
X22628137Y6612690D01*
X22636551Y6633002D01*
X22639421Y6654800D01*
X22636551Y6676598D01*
X22628137Y6696910D01*
X22614754Y6714353D01*
X22597310Y6727737D01*
X22576997Y6736151D01*
X22555200Y6739021D01*
D02*
G37*
G36*
X2492400Y3174263D02*
X2466295Y3170826D01*
X2441969Y3160750D01*
X2421079Y3144721D01*
X2405050Y3123831D01*
X2394974Y3099505D01*
X2391537Y3073400D01*
X2394974Y3047295D01*
X2405050Y3022969D01*
X2421079Y3002079D01*
X2441969Y2986050D01*
X2466295Y2975974D01*
X2492400Y2972537D01*
X2518505Y2975974D01*
X2542831Y2986050D01*
X2563721Y3002079D01*
X2579749Y3022969D01*
X2589826Y3047295D01*
X2593263Y3073400D01*
X2589826Y3099505D01*
X2579749Y3123831D01*
X2563721Y3144721D01*
X2542831Y3160750D01*
X2518505Y3170826D01*
X2492400Y3174263D01*
D02*
G37*
G36*
X4181000Y6650221D02*
X4159202Y6647351D01*
X4138890Y6638937D01*
X4121447Y6625553D01*
X4120556Y6624392D01*
X4038600D01*
X4030796Y6622840D01*
X4024181Y6618419D01*
X4016940Y6611179D01*
X4012520Y6604563D01*
X4010968Y6596760D01*
Y6096000D01*
Y5936800D01*
X4012520Y5928996D01*
X4016940Y5922381D01*
X4023556Y5917960D01*
X4031360Y5916408D01*
X4281360Y5916408D01*
X5334000D01*
X5341803Y5917960D01*
X5348419Y5922380D01*
X5352839Y5928996D01*
X5354392Y5936800D01*
Y6096000D01*
D01*
X5354392Y6467876D01*
X5355937Y6469890D01*
X5364351Y6490202D01*
X5367221Y6512000D01*
X5364351Y6533798D01*
X5355937Y6554110D01*
X5354392Y6556124D01*
Y6604000D01*
X5352840Y6611804D01*
X5348419Y6618419D01*
X5341804Y6622840D01*
X5334000Y6624392D01*
X4414676D01*
X4414553Y6624553D01*
X4397110Y6637937D01*
X4376798Y6646351D01*
X4355000Y6649221D01*
X4333202Y6646351D01*
X4312890Y6637937D01*
X4295447Y6624553D01*
X4295324Y6624392D01*
X4241444D01*
X4240553Y6625553D01*
X4223110Y6638937D01*
X4202798Y6647351D01*
X4181000Y6650221D01*
D02*
G37*
G36*
X2492400Y4063263D02*
X2466295Y4059826D01*
X2441969Y4049750D01*
X2421079Y4033721D01*
X2405050Y4012831D01*
X2394974Y3988505D01*
X2391537Y3962400D01*
X2394974Y3936295D01*
X2405050Y3911969D01*
X2421079Y3891079D01*
X2441969Y3875050D01*
X2466295Y3864974D01*
X2492400Y3861537D01*
X2518505Y3864974D01*
X2542831Y3875050D01*
X2563721Y3891079D01*
X2579749Y3911969D01*
X2589826Y3936295D01*
X2593263Y3962400D01*
X2589826Y3988505D01*
X2579749Y4012831D01*
X2563721Y4033721D01*
X2542831Y4049750D01*
X2518505Y4059826D01*
X2492400Y4063263D01*
D02*
G37*
G36*
X3096300Y5900006D02*
X3068889Y5896397D01*
X3043347Y5885817D01*
X3021413Y5868987D01*
X3004583Y5847053D01*
X2994003Y5821510D01*
X2990394Y5794100D01*
X2994003Y5766690D01*
X3004583Y5741147D01*
X3021413Y5719213D01*
X3043347Y5702383D01*
X3068889Y5691803D01*
X3096300Y5688194D01*
X3123710Y5691803D01*
X3149253Y5702383D01*
X3171187Y5719213D01*
X3188017Y5741147D01*
X3198597Y5766690D01*
X3202206Y5794100D01*
X3198597Y5821510D01*
X3188017Y5847053D01*
X3171187Y5868987D01*
X3149253Y5885817D01*
X3123710Y5896397D01*
X3096300Y5900006D01*
D02*
G37*
G36*
X2492400Y4444263D02*
X2466295Y4440826D01*
X2441969Y4430750D01*
X2421079Y4414721D01*
X2405050Y4393831D01*
X2394974Y4369505D01*
X2391537Y4343400D01*
X2394974Y4317295D01*
X2405050Y4292969D01*
X2421079Y4272079D01*
X2441969Y4256050D01*
X2466295Y4245974D01*
X2492400Y4242537D01*
X2518505Y4245974D01*
X2542831Y4256050D01*
X2563721Y4272079D01*
X2579749Y4292969D01*
X2589826Y4317295D01*
X2593263Y4343400D01*
X2589826Y4369505D01*
X2579749Y4393831D01*
X2563721Y4414721D01*
X2542831Y4430750D01*
X2518505Y4440826D01*
X2492400Y4444263D01*
D02*
G37*
G36*
Y3809263D02*
X2466295Y3805826D01*
X2441969Y3795750D01*
X2421079Y3779721D01*
X2405050Y3758831D01*
X2394974Y3734505D01*
X2391537Y3708400D01*
X2394974Y3682295D01*
X2405050Y3657969D01*
X2421079Y3637079D01*
X2441969Y3621050D01*
X2466295Y3610974D01*
X2492400Y3607537D01*
X2518505Y3610974D01*
X2542831Y3621050D01*
X2563721Y3637079D01*
X2579749Y3657969D01*
X2589826Y3682295D01*
X2593263Y3708400D01*
X2589826Y3734505D01*
X2579749Y3758831D01*
X2563721Y3779721D01*
X2542831Y3795750D01*
X2518505Y3805826D01*
X2492400Y3809263D01*
D02*
G37*
G36*
Y2539263D02*
X2466295Y2535826D01*
X2441969Y2525750D01*
X2421079Y2509721D01*
X2405050Y2488831D01*
X2394974Y2464505D01*
X2391537Y2438400D01*
X2394974Y2412295D01*
X2405050Y2387969D01*
X2421079Y2367079D01*
X2441969Y2351050D01*
X2466295Y2340974D01*
X2492400Y2337537D01*
X2518505Y2340974D01*
X2542831Y2351050D01*
X2563721Y2367079D01*
X2579749Y2387969D01*
X2585857Y2402714D01*
X2943008D01*
Y2393400D01*
X2944561Y2385596D01*
X2948981Y2378981D01*
X2955597Y2374560D01*
X2963400Y2373008D01*
X3033400D01*
X3041204Y2374560D01*
X3047819Y2378981D01*
X3052240Y2385596D01*
X3053792Y2393400D01*
Y2483400D01*
X3052240Y2491203D01*
X3047819Y2497819D01*
X3041204Y2502239D01*
X3033400Y2503792D01*
X2963400D01*
X2955597Y2502239D01*
X2948981Y2497819D01*
X2944561Y2491203D01*
X2943008Y2483400D01*
Y2474085D01*
X2585857D01*
X2579749Y2488831D01*
X2563721Y2509721D01*
X2542831Y2525750D01*
X2518505Y2535826D01*
X2492400Y2539263D01*
D02*
G37*
G36*
X3096300Y5199006D02*
X3068889Y5195397D01*
X3043347Y5184817D01*
X3021413Y5167987D01*
X3004583Y5146053D01*
X2994003Y5120510D01*
X2990394Y5093100D01*
X2994003Y5065690D01*
X3004583Y5040147D01*
X3021413Y5018213D01*
X3043347Y5001383D01*
X3068889Y4990803D01*
X3096300Y4987194D01*
X3123710Y4990803D01*
X3149253Y5001383D01*
X3171187Y5018213D01*
X3188017Y5040147D01*
X3198597Y5065690D01*
X3202206Y5093100D01*
X3198597Y5120510D01*
X3188017Y5146053D01*
X3171187Y5167987D01*
X3149253Y5184817D01*
X3123710Y5195397D01*
X3096300Y5199006D01*
D02*
G37*
G36*
X2492400Y4698263D02*
X2466295Y4694826D01*
X2441969Y4684750D01*
X2421079Y4668721D01*
X2405050Y4647831D01*
X2394974Y4623505D01*
X2391537Y4597400D01*
X2394974Y4571295D01*
X2405050Y4546969D01*
X2421079Y4526079D01*
X2441969Y4510050D01*
X2466295Y4499974D01*
X2492400Y4496537D01*
X2518505Y4499974D01*
X2542831Y4510050D01*
X2563721Y4526079D01*
X2579749Y4546969D01*
X2589826Y4571295D01*
X2593263Y4597400D01*
X2589826Y4623505D01*
X2579749Y4647831D01*
X2563721Y4668721D01*
X2542831Y4684750D01*
X2518505Y4694826D01*
X2492400Y4698263D01*
D02*
G37*
G36*
X2630171Y6372932D02*
X2551431D01*
X2543627Y6371380D01*
X2537011Y6366959D01*
X2497641Y6327589D01*
X2493221Y6320974D01*
X2491669Y6313170D01*
Y6234430D01*
X2493221Y6226626D01*
X2497641Y6220011D01*
X2537011Y6180641D01*
X2543627Y6176220D01*
X2551431Y6174668D01*
X2630171D01*
X2637974Y6176220D01*
X2644590Y6180641D01*
X2683960Y6220011D01*
X2688380Y6226626D01*
X2689933Y6234430D01*
Y6313170D01*
X2688380Y6320974D01*
X2683960Y6327589D01*
X2644590Y6366959D01*
X2637974Y6371380D01*
X2630171Y6372932D01*
D02*
G37*
G36*
X16143359Y9551458D02*
X16120689Y9546949D01*
X16101472Y9534107D01*
X16088631Y9514889D01*
X16084122Y9492220D01*
X16088631Y9469550D01*
X16101472Y9450332D01*
X16120689Y9437491D01*
X16143359Y9432982D01*
X16166029Y9437491D01*
X16185248Y9450332D01*
X16198090Y9469550D01*
X16202599Y9492220D01*
X16198090Y9514889D01*
X16185248Y9534107D01*
X16166029Y9546949D01*
X16143359Y9551458D01*
D02*
G37*
G36*
X12783360Y9564458D02*
X12760690Y9559949D01*
X12741472Y9547108D01*
X12728631Y9527890D01*
X12724122Y9505220D01*
X12728631Y9482551D01*
X12741472Y9463332D01*
X12760690Y9450491D01*
X12783360Y9445982D01*
X12806029Y9450491D01*
X12825247Y9463332D01*
X12838089Y9482551D01*
X12842598Y9505220D01*
X12838089Y9527890D01*
X12825247Y9547108D01*
X12806029Y9559949D01*
X12783360Y9564458D01*
D02*
G37*
G36*
X9611360Y9566458D02*
X9588690Y9561949D01*
X9569472Y9549108D01*
X9556631Y9529890D01*
X9552122Y9507220D01*
X9556631Y9484551D01*
X9569472Y9465332D01*
X9588690Y9452491D01*
X9611360Y9447982D01*
X9634029Y9452491D01*
X9653248Y9465332D01*
X9666089Y9484551D01*
X9670598Y9507220D01*
X9666089Y9529890D01*
X9653248Y9549108D01*
X9634029Y9561949D01*
X9611360Y9566458D01*
D02*
G37*
G36*
X3377000Y9051761D02*
X3355202Y9048891D01*
X3334890Y9040477D01*
X3317447Y9027093D01*
X3304063Y9009650D01*
X3295649Y8989338D01*
X3292780Y8967540D01*
X3295649Y8945742D01*
X3304063Y8925430D01*
X3317447Y8907987D01*
X3324236Y8902778D01*
Y8612849D01*
X3316763Y8603110D01*
X3308349Y8582798D01*
X3305480Y8561000D01*
X3308349Y8539202D01*
X3316763Y8518890D01*
X3330147Y8501447D01*
X3347590Y8488063D01*
X3367902Y8479649D01*
X3389700Y8476779D01*
X3411498Y8479649D01*
X3431810Y8488063D01*
X3449253Y8501447D01*
X3462637Y8518890D01*
X3471051Y8539202D01*
X3473921Y8561000D01*
X3471051Y8582798D01*
X3462637Y8603110D01*
X3449253Y8620553D01*
X3431810Y8633937D01*
X3429764Y8634785D01*
Y8902778D01*
X3436553Y8907987D01*
X3449937Y8925430D01*
X3458351Y8945742D01*
X3461221Y8967540D01*
X3458351Y8989338D01*
X3449937Y9009650D01*
X3436553Y9027093D01*
X3419110Y9040477D01*
X3398798Y9048891D01*
X3377000Y9051761D01*
D02*
G37*
G36*
X2492400Y8940063D02*
X2466295Y8936626D01*
X2441969Y8926550D01*
X2421079Y8910521D01*
X2405050Y8889631D01*
X2394974Y8865305D01*
X2391537Y8839200D01*
X2394974Y8813095D01*
X2405050Y8788769D01*
X2421079Y8767879D01*
X2441969Y8751850D01*
X2466295Y8741774D01*
X2492400Y8738337D01*
X2518505Y8741774D01*
X2542831Y8751850D01*
X2563721Y8767879D01*
X2579749Y8788769D01*
X2589826Y8813095D01*
X2593263Y8839200D01*
X2589826Y8865305D01*
X2579749Y8889631D01*
X2563721Y8910521D01*
X2542831Y8926550D01*
X2518505Y8936626D01*
X2492400Y8940063D01*
D02*
G37*
G36*
Y9194063D02*
X2466295Y9190626D01*
X2441969Y9180550D01*
X2421079Y9164521D01*
X2405050Y9143631D01*
X2394974Y9119305D01*
X2391537Y9093200D01*
X2394974Y9067095D01*
X2405050Y9042769D01*
X2421079Y9021879D01*
X2441969Y9005850D01*
X2466295Y8995774D01*
X2492400Y8992337D01*
X2518505Y8995774D01*
X2542831Y9005850D01*
X2563721Y9021879D01*
X2579749Y9042769D01*
X2589826Y9067095D01*
X2593263Y9093200D01*
X2589826Y9119305D01*
X2579749Y9143631D01*
X2563721Y9164521D01*
X2542831Y9180550D01*
X2518505Y9190626D01*
X2492400Y9194063D01*
D02*
G37*
G36*
X19587360Y9568458D02*
X19564690Y9563949D01*
X19545473Y9551108D01*
X19532631Y9531889D01*
X19528120Y9509220D01*
X19532631Y9486550D01*
X19545473Y9467332D01*
X19564690Y9454491D01*
X19587360Y9449982D01*
X19610030Y9454491D01*
X19629247Y9467332D01*
X19642088Y9486550D01*
X19646597Y9509220D01*
X19642088Y9531889D01*
X19629247Y9551108D01*
X19610030Y9563949D01*
X19587360Y9568458D01*
D02*
G37*
G36*
X23241000Y10034030D02*
X23215887Y10030724D01*
X23192485Y10021031D01*
X23172391Y10005610D01*
X23156969Y9985515D01*
X23147276Y9962113D01*
X23143970Y9937000D01*
X23147276Y9911887D01*
X23156969Y9888485D01*
X23172391Y9868389D01*
X23192485Y9852969D01*
X23215887Y9843276D01*
X23241000Y9839970D01*
X23266113Y9843276D01*
X23289516Y9852969D01*
X23309610Y9868389D01*
X23325031Y9888485D01*
X23334724Y9911887D01*
X23338029Y9937000D01*
X23334724Y9962113D01*
X23325031Y9985515D01*
X23309610Y10005610D01*
X23289516Y10021031D01*
X23266113Y10030724D01*
X23241000Y10034030D01*
D02*
G37*
G36*
X2557000Y10665464D02*
X2513873Y10661217D01*
X2472402Y10648637D01*
X2434183Y10628208D01*
X2400684Y10600716D01*
X2373192Y10567217D01*
X2352763Y10528998D01*
X2340183Y10487527D01*
X2335936Y10444400D01*
X2340183Y10401273D01*
X2352763Y10359802D01*
X2373192Y10321583D01*
X2400684Y10288084D01*
X2434183Y10260592D01*
X2472402Y10240163D01*
X2513873Y10227583D01*
X2557000Y10223336D01*
X2600127Y10227583D01*
X2641598Y10240163D01*
X2679817Y10260592D01*
X2713316Y10288084D01*
X2740808Y10321583D01*
X2761237Y10359802D01*
X2773817Y10401273D01*
X2778064Y10444400D01*
X2773817Y10487527D01*
X2761237Y10528998D01*
X2740808Y10567217D01*
X2713316Y10600716D01*
X2679817Y10628208D01*
X2641598Y10648637D01*
X2600127Y10661217D01*
X2557000Y10665464D01*
D02*
G37*
G36*
X5988898Y10624797D02*
X5833898D01*
X5826094Y10623245D01*
X5819479Y10618824D01*
X5815058Y10612209D01*
X5813506Y10604405D01*
Y10472821D01*
X4573991D01*
X4572840Y10478606D01*
X4568419Y10485222D01*
X4561804Y10489642D01*
X4554000Y10491194D01*
X4336000D01*
X4328196Y10489642D01*
X4321581Y10485222D01*
X4317160Y10478606D01*
X4316009Y10472821D01*
X3962400D01*
X3940602Y10469951D01*
X3920290Y10461537D01*
X3902847Y10448153D01*
X3600447Y10145753D01*
X3587063Y10128310D01*
X3578649Y10107998D01*
X3575779Y10086200D01*
Y6096000D01*
Y5960000D01*
X3575806Y5959798D01*
X3574779Y5952000D01*
X3577649Y5930202D01*
X3586063Y5909890D01*
X3599447Y5892447D01*
X3616890Y5879063D01*
X3637202Y5870649D01*
X3659000Y5867779D01*
X3680798Y5870649D01*
X3701110Y5879063D01*
X3718553Y5892447D01*
X3731937Y5909890D01*
X3740351Y5930202D01*
X3743221Y5952000D01*
X3743194Y5952202D01*
X3744221Y5960000D01*
Y6084038D01*
Y10051315D01*
X3997285Y10304379D01*
X4321587D01*
X4328196Y10299963D01*
X4336000Y10298411D01*
X4554000D01*
X4561804Y10299963D01*
X4568413Y10304379D01*
X5813506D01*
Y10274405D01*
X5815058Y10266602D01*
X5819479Y10259986D01*
X5826094Y10255565D01*
X5833898Y10254013D01*
X5988898D01*
X5996701Y10255565D01*
X6003317Y10259986D01*
X6007738Y10266602D01*
X6009290Y10274405D01*
Y10604405D01*
X6007738Y10612209D01*
X6003317Y10618824D01*
X5996701Y10623245D01*
X5988898Y10624797D01*
D02*
G37*
G36*
X19103000Y9941686D02*
X5660000D01*
X5646344Y9938969D01*
X5634766Y9931234D01*
X5062318Y9358785D01*
X5058400Y9359564D01*
X5038208Y9355547D01*
X5021090Y9344110D01*
X5009653Y9326992D01*
X5005636Y9306800D01*
X5009653Y9286608D01*
X5021090Y9269490D01*
X5038208Y9258053D01*
X5058400Y9254036D01*
X5078592Y9258053D01*
X5095710Y9269490D01*
X5107148Y9286608D01*
X5111138Y9306671D01*
X5674782Y9870314D01*
X5721543D01*
X5726403Y9858581D01*
X5117766Y9249944D01*
X5110031Y9238367D01*
X5107314Y9224710D01*
Y9152260D01*
X5107090Y9152110D01*
X5095653Y9134992D01*
X5091636Y9114800D01*
X5095653Y9094608D01*
X5107090Y9077490D01*
X5124208Y9066053D01*
X5144400Y9062036D01*
X5164592Y9066053D01*
X5181710Y9077490D01*
X5193148Y9094608D01*
X5197164Y9114800D01*
X5193148Y9134992D01*
X5181710Y9152110D01*
X5178686Y9154131D01*
Y9209929D01*
X5240581Y9271824D01*
X5252314Y9266964D01*
Y8991932D01*
X5248090Y8989110D01*
X5236653Y8971992D01*
X5232636Y8951800D01*
X5236653Y8931608D01*
X5248090Y8914490D01*
X5265208Y8903053D01*
X5285400Y8899036D01*
X5305592Y8903053D01*
X5322710Y8914490D01*
X5334148Y8931608D01*
X5338164Y8951800D01*
X5334148Y8971992D01*
X5323686Y8987649D01*
Y9284219D01*
X5807782Y9768314D01*
X5872070D01*
X5875922Y9755614D01*
X5873856Y9754234D01*
X5382766Y9263144D01*
X5375031Y9251567D01*
X5372314Y9237910D01*
Y8775782D01*
X5295654Y8699121D01*
X5288400Y8700564D01*
X5268208Y8696548D01*
X5251090Y8685110D01*
X5239653Y8667992D01*
X5235636Y8647800D01*
X5239653Y8627608D01*
X5251090Y8610490D01*
X5268208Y8599053D01*
X5288400Y8595036D01*
X5308592Y8599053D01*
X5325710Y8610490D01*
X5337148Y8627608D01*
X5340145Y8642678D01*
X5433234Y8735766D01*
X5440969Y8747344D01*
X5443686Y8761000D01*
Y9223129D01*
X5913871Y9693314D01*
X9280818D01*
X9293244Y9680889D01*
X9292550Y9677400D01*
X9296710Y9656486D01*
X9308557Y9638757D01*
X9326286Y9626910D01*
X9347200Y9622750D01*
X9368114Y9626910D01*
X9385843Y9638757D01*
X9397690Y9656486D01*
X9401850Y9677400D01*
X9397690Y9698314D01*
X9385843Y9716043D01*
X9368114Y9727890D01*
X9347200Y9732050D01*
X9343711Y9731356D01*
X9320834Y9754234D01*
X9318767Y9755614D01*
X9322620Y9768314D01*
X10642218D01*
X10865766Y9544766D01*
X10877344Y9537031D01*
X10891000Y9534314D01*
X12567000D01*
X12580656Y9537031D01*
X12592234Y9544766D01*
X12743081Y9695614D01*
X15795518D01*
X15825244Y9665888D01*
X15824550Y9662400D01*
X15828709Y9641486D01*
X15840556Y9623756D01*
X15858286Y9611910D01*
X15879201Y9607750D01*
X15900113Y9611910D01*
X15917844Y9623756D01*
X15929691Y9641486D01*
X15933850Y9662400D01*
X15929691Y9683313D01*
X15917844Y9701043D01*
X15900113Y9712890D01*
X15879201Y9717050D01*
X15875711Y9716356D01*
X15835533Y9756533D01*
X15823956Y9764269D01*
X15810300Y9766986D01*
X12728300D01*
X12714644Y9764269D01*
X12703066Y9756533D01*
X12552218Y9605686D01*
X10905782D01*
X10704886Y9806581D01*
X10709746Y9818314D01*
X12325818D01*
X12465244Y9678889D01*
X12464550Y9675400D01*
X12468710Y9654486D01*
X12480556Y9636757D01*
X12498286Y9624910D01*
X12519200Y9620750D01*
X12540113Y9624910D01*
X12557843Y9636757D01*
X12569690Y9654486D01*
X12573850Y9675400D01*
X12569690Y9696314D01*
X12557843Y9714043D01*
X12540113Y9725890D01*
X12519200Y9730050D01*
X12515711Y9729356D01*
X12386486Y9858581D01*
X12391346Y9870314D01*
X19088219D01*
X19210995Y9747538D01*
X19211630Y9744344D01*
X19219366Y9732767D01*
X19269244Y9682889D01*
X19268550Y9679400D01*
X19272710Y9658486D01*
X19284557Y9640757D01*
X19302286Y9628910D01*
X19323199Y9624750D01*
X19344113Y9628910D01*
X19361842Y9640757D01*
X19373689Y9658486D01*
X19377849Y9679400D01*
X19373689Y9700314D01*
X19361842Y9718043D01*
X19344113Y9729890D01*
X19323199Y9734050D01*
X19319711Y9733356D01*
X19282605Y9770462D01*
X19281969Y9773656D01*
X19274234Y9785234D01*
X19128233Y9931234D01*
X19116656Y9938969D01*
X19103000Y9941686D01*
D02*
G37*
G36*
X2492400Y9829063D02*
X2466295Y9825626D01*
X2441969Y9815550D01*
X2421079Y9799521D01*
X2405050Y9778631D01*
X2394974Y9754305D01*
X2391537Y9728200D01*
X2394974Y9702095D01*
X2405050Y9677769D01*
X2421079Y9656879D01*
X2441969Y9640850D01*
X2466295Y9630774D01*
X2492400Y9627337D01*
X2518505Y9630774D01*
X2542831Y9640850D01*
X2563721Y9656879D01*
X2579749Y9677769D01*
X2589826Y9702095D01*
X2593263Y9728200D01*
X2589826Y9754305D01*
X2579749Y9778631D01*
X2563721Y9799521D01*
X2542831Y9815550D01*
X2518505Y9825626D01*
X2492400Y9829063D01*
D02*
G37*
G36*
X3471200Y10003621D02*
X3449402Y10000751D01*
X3429089Y9992337D01*
X3411647Y9978953D01*
X3398263Y9961510D01*
X3389849Y9941198D01*
X3386979Y9919400D01*
X3389849Y9897602D01*
X3398263Y9877290D01*
X3411647Y9859847D01*
X3429089Y9846463D01*
X3449402Y9838049D01*
X3471200Y9835179D01*
X3492998Y9838049D01*
X3513310Y9846463D01*
X3530753Y9859847D01*
X3544137Y9877290D01*
X3552551Y9897602D01*
X3555420Y9919400D01*
X3552551Y9941198D01*
X3544137Y9961510D01*
X3530753Y9978953D01*
X3513310Y9992337D01*
X3492998Y10000751D01*
X3471200Y10003621D01*
D02*
G37*
G36*
X2492400Y8533663D02*
X2466295Y8530226D01*
X2441969Y8520150D01*
X2421079Y8504121D01*
X2405050Y8483231D01*
X2394974Y8458905D01*
X2391537Y8432800D01*
X2394974Y8406695D01*
X2405050Y8382369D01*
X2421079Y8361479D01*
X2441969Y8345450D01*
X2466295Y8335374D01*
X2492400Y8331937D01*
X2518505Y8335374D01*
X2542831Y8345450D01*
X2563721Y8361479D01*
X2579749Y8382369D01*
X2589826Y8406695D01*
X2593263Y8432800D01*
X2589826Y8458905D01*
X2579749Y8483231D01*
X2563721Y8504121D01*
X2542831Y8520150D01*
X2518505Y8530226D01*
X2492400Y8533663D01*
D02*
G37*
G36*
X3451000Y8022764D02*
X3430808Y8018747D01*
X3413690Y8007310D01*
X3402253Y7990192D01*
X3398236Y7970000D01*
X3402253Y7949808D01*
X3413690Y7932690D01*
X3417659Y7930038D01*
Y7651810D01*
X2642323Y6876474D01*
X2637974Y6879380D01*
X2630171Y6880932D01*
X2551431D01*
X2543627Y6879380D01*
X2537011Y6874959D01*
X2497641Y6835589D01*
X2493221Y6828974D01*
X2491669Y6821170D01*
Y6742430D01*
X2493221Y6734626D01*
X2497641Y6728011D01*
X2537011Y6688641D01*
X2543627Y6684220D01*
X2551431Y6682668D01*
X2630171D01*
X2637974Y6684220D01*
X2639376Y6685157D01*
X2765314Y6559218D01*
Y6100381D01*
X2748970Y6084038D01*
D01*
X2590966Y5926034D01*
X2583231Y5914456D01*
X2580514Y5900800D01*
Y5449700D01*
X2583231Y5436044D01*
X2590966Y5424466D01*
X2758890Y5256542D01*
X2753576Y5243713D01*
X2750270Y5218600D01*
X2753576Y5193487D01*
X2763270Y5170085D01*
X2778690Y5149989D01*
X2798785Y5134569D01*
X2822187Y5124876D01*
X2847300Y5121570D01*
X2872413Y5124876D01*
X2895815Y5134569D01*
X2915911Y5149989D01*
X2931331Y5170085D01*
X2941024Y5193487D01*
X2944330Y5218600D01*
X2941024Y5243713D01*
X2931331Y5267115D01*
X2915911Y5287210D01*
X2895815Y5302630D01*
X2872413Y5312324D01*
X2847300Y5315630D01*
X2822187Y5312324D01*
X2809358Y5307010D01*
X2651886Y5464482D01*
Y5886018D01*
X2826234Y6060366D01*
X2833969Y6071944D01*
X2836686Y6085600D01*
Y6096000D01*
X2837386D01*
X2836686Y6096738D01*
Y6574000D01*
X2833969Y6587656D01*
X2826234Y6599233D01*
X2688789Y6736678D01*
X2689933Y6742430D01*
Y6821170D01*
X2688504Y6828353D01*
X3474575Y7614425D01*
X3481803Y7625241D01*
X3484341Y7638000D01*
Y7930038D01*
X3488310Y7932690D01*
X3499747Y7949808D01*
X3503764Y7970000D01*
X3499747Y7990192D01*
X3488310Y8007310D01*
X3471192Y8018747D01*
X3451000Y8022764D01*
D02*
G37*
G36*
X2630171Y7134932D02*
X2551431D01*
X2543627Y7133380D01*
X2537011Y7128959D01*
X2497641Y7089589D01*
X2493221Y7082974D01*
X2491669Y7075170D01*
Y6996430D01*
X2493221Y6988626D01*
X2497641Y6982011D01*
X2537011Y6942641D01*
X2543627Y6938220D01*
X2551431Y6936668D01*
X2630171D01*
X2637974Y6938220D01*
X2644590Y6942641D01*
X2683960Y6982011D01*
X2688380Y6988626D01*
X2689933Y6996430D01*
Y7075170D01*
X2688380Y7082974D01*
X2683960Y7089589D01*
X2644590Y7128959D01*
X2637974Y7133380D01*
X2630171Y7134932D01*
D02*
G37*
G36*
Y6626932D02*
X2551431D01*
X2543627Y6625380D01*
X2537011Y6620959D01*
X2497641Y6581589D01*
X2493221Y6574974D01*
X2491669Y6567170D01*
Y6488430D01*
X2493221Y6480626D01*
X2497641Y6474011D01*
X2537011Y6434641D01*
X2543627Y6430220D01*
X2551431Y6428668D01*
X2630171D01*
X2637974Y6430220D01*
X2644590Y6434641D01*
X2683960Y6474011D01*
X2688380Y6480626D01*
X2689933Y6488430D01*
Y6567170D01*
X2688380Y6574974D01*
X2683960Y6581589D01*
X2644590Y6620959D01*
X2637974Y6625380D01*
X2630171Y6626932D01*
D02*
G37*
G36*
X3055000Y6653221D02*
X3033202Y6650351D01*
X3012890Y6641937D01*
X2995447Y6628553D01*
X2982063Y6611110D01*
X2973649Y6590798D01*
X2970779Y6569000D01*
X2973649Y6547202D01*
X2982063Y6526890D01*
X2995447Y6509447D01*
X3012890Y6496063D01*
X3033202Y6487649D01*
X3055000Y6484780D01*
X3076798Y6487649D01*
X3097110Y6496063D01*
X3114553Y6509447D01*
X3127937Y6526890D01*
X3136351Y6547202D01*
X3139221Y6569000D01*
X3136351Y6590798D01*
X3127937Y6611110D01*
X3114553Y6628553D01*
X3097110Y6641937D01*
X3076798Y6650351D01*
X3055000Y6653221D01*
D02*
G37*
G36*
X18827399Y8458192D02*
X18717400D01*
X18709596Y8456639D01*
X18702980Y8452219D01*
X18698560Y8445603D01*
X18697008Y8437800D01*
Y8343984D01*
X18691049Y8329598D01*
X18688179Y8307800D01*
Y8003000D01*
X18691049Y7981202D01*
X18697008Y7966815D01*
Y7873000D01*
X18698560Y7865196D01*
X18702980Y7858580D01*
X18709596Y7854160D01*
X18717400Y7852608D01*
X18827399D01*
X18835204Y7854160D01*
X18841818Y7858580D01*
X18846239Y7865196D01*
X18847791Y7873000D01*
Y7966815D01*
X18853751Y7981202D01*
X18856619Y8003000D01*
Y8245780D01*
X18920000D01*
X18941798Y8248649D01*
X18962109Y8257063D01*
X18979553Y8270447D01*
X18992937Y8287890D01*
X19001350Y8308202D01*
X19004221Y8330000D01*
X19001350Y8351798D01*
X18992937Y8372110D01*
X18979553Y8389553D01*
X18962109Y8402937D01*
X18941798Y8411351D01*
X18920000Y8414221D01*
X18847791D01*
Y8437800D01*
X18846239Y8445603D01*
X18841818Y8452219D01*
X18835204Y8456639D01*
X18827399Y8458192D01*
D02*
G37*
G36*
X2492400Y8279663D02*
X2466295Y8276226D01*
X2441969Y8266150D01*
X2421079Y8250121D01*
X2405050Y8229231D01*
X2394974Y8204905D01*
X2391537Y8178800D01*
X2394974Y8152695D01*
X2405050Y8128369D01*
X2421079Y8107479D01*
X2441969Y8091450D01*
X2466295Y8081374D01*
X2492400Y8077937D01*
X2518505Y8081374D01*
X2542831Y8091450D01*
X2563721Y8107479D01*
X2579749Y8128369D01*
X2589826Y8152695D01*
X2593263Y8178800D01*
X2589826Y8204905D01*
X2579749Y8229231D01*
X2563721Y8250121D01*
X2542831Y8266150D01*
X2518505Y8276226D01*
X2492400Y8279663D01*
D02*
G37*
G36*
X12023400Y8454192D02*
X11913400D01*
X11905596Y8452639D01*
X11898981Y8448219D01*
X11894560Y8441603D01*
X11893008Y8433800D01*
Y8173800D01*
X11894560Y8165996D01*
X11897796Y8161153D01*
Y8141646D01*
X11894560Y8136803D01*
X11893008Y8129000D01*
Y7869000D01*
X11894560Y7861196D01*
X11898981Y7854580D01*
X11905596Y7850160D01*
X11913400Y7848608D01*
X12023400D01*
X12031203Y7850160D01*
X12037819Y7854580D01*
X12042239Y7861196D01*
X12043792Y7869000D01*
Y8129000D01*
X12042239Y8136803D01*
X12039004Y8141646D01*
Y8161153D01*
X12042239Y8165996D01*
X12043792Y8173800D01*
Y8239396D01*
X12064849D01*
X12067890Y8237063D01*
X12088202Y8228649D01*
X12110000Y8225779D01*
X12131798Y8228649D01*
X12152110Y8237063D01*
X12169553Y8250447D01*
X12182937Y8267889D01*
X12191351Y8288202D01*
X12194220Y8310000D01*
X12191351Y8331798D01*
X12182937Y8352110D01*
X12169553Y8369553D01*
X12152110Y8382937D01*
X12131798Y8391351D01*
X12110000Y8394220D01*
X12088202Y8391351D01*
X12067890Y8382937D01*
X12064849Y8380604D01*
X12043792D01*
Y8433800D01*
X12042239Y8441603D01*
X12037819Y8448219D01*
X12031203Y8452639D01*
X12023400Y8454192D01*
D02*
G37*
G36*
X15383400Y8441191D02*
X15273399D01*
X15265596Y8439639D01*
X15258981Y8435219D01*
X15254559Y8428603D01*
X15253008Y8420800D01*
Y8326984D01*
X15247049Y8312597D01*
X15244179Y8290800D01*
Y7986000D01*
X15247049Y7964202D01*
X15253008Y7949815D01*
Y7856000D01*
X15254559Y7848196D01*
X15258981Y7841580D01*
X15265596Y7837160D01*
X15273399Y7835608D01*
X15383400D01*
X15391203Y7837160D01*
X15397820Y7841580D01*
X15402238Y7848196D01*
X15403792Y7856000D01*
Y7949815D01*
X15409750Y7964202D01*
X15412621Y7986000D01*
Y8206579D01*
X15460800D01*
X15482597Y8209449D01*
X15494496Y8214377D01*
X15502910Y8217862D01*
X15520352Y8231247D01*
X15539552Y8250447D01*
X15552937Y8267889D01*
X15561351Y8288202D01*
X15564221Y8310000D01*
X15561351Y8331798D01*
X15552937Y8352110D01*
X15539552Y8369553D01*
X15522110Y8382937D01*
X15501797Y8391351D01*
X15480000Y8394220D01*
X15458202Y8391351D01*
X15437891Y8382937D01*
X15427573Y8375020D01*
X15403792D01*
Y8420800D01*
X15402238Y8428603D01*
X15397820Y8435219D01*
X15391203Y8439639D01*
X15383400Y8441191D01*
D02*
G37*
G36*
X2630171Y7388932D02*
X2551431D01*
X2543627Y7387380D01*
X2537011Y7382959D01*
X2497641Y7343589D01*
X2493221Y7336974D01*
X2491669Y7329170D01*
Y7250430D01*
X2493221Y7242626D01*
X2497641Y7236011D01*
X2537011Y7196641D01*
X2543627Y7192220D01*
X2551431Y7190668D01*
X2630171D01*
X2637974Y7192220D01*
X2644590Y7196641D01*
X2683960Y7236011D01*
X2688380Y7242626D01*
X2689933Y7250430D01*
Y7329170D01*
X2688380Y7336974D01*
X2683960Y7343589D01*
X2644590Y7382959D01*
X2637974Y7387380D01*
X2630171Y7388932D01*
D02*
G37*
G36*
X8851400Y8456192D02*
X8741400D01*
X8733596Y8454639D01*
X8726981Y8450219D01*
X8722560Y8443603D01*
X8721008Y8435800D01*
Y8341984D01*
X8715049Y8327598D01*
X8712179Y8305800D01*
Y8001000D01*
X8715049Y7979202D01*
X8721008Y7964816D01*
Y7871000D01*
X8722560Y7863196D01*
X8726981Y7856580D01*
X8733596Y7852160D01*
X8741400Y7850608D01*
X8851400D01*
X8859204Y7852160D01*
X8865819Y7856580D01*
X8870240Y7863196D01*
X8871792Y7871000D01*
Y7964816D01*
X8877751Y7979202D01*
X8880621Y8001000D01*
Y8255780D01*
X8950000D01*
X8971798Y8258649D01*
X8992110Y8267063D01*
X9009553Y8280447D01*
X9022937Y8297890D01*
X9031351Y8318202D01*
X9034220Y8340000D01*
X9031351Y8361798D01*
X9022937Y8382110D01*
X9009553Y8399553D01*
X8992110Y8412937D01*
X8971798Y8421351D01*
X8950000Y8424221D01*
X8871792D01*
Y8435800D01*
X8870240Y8443603D01*
X8865819Y8450219D01*
X8859204Y8454639D01*
X8851400Y8456192D01*
D02*
G37*
%LPD*%
G36*
X5334000Y5936800D02*
X4281360D01*
X4031360Y5936800D01*
Y6596760D01*
X4038600Y6604000D01*
X5334000D01*
X5334000Y5936800D01*
D02*
G37*
D11*
X7730000Y4010000D02*
D03*
Y4180000D02*
D03*
X8770000Y4030000D02*
D03*
X14260001D02*
D03*
Y4200000D02*
D03*
X15320000Y4020000D02*
D03*
X8770000Y4200000D02*
D03*
X15310001Y4190000D02*
D03*
D13*
X20567999Y5208000D02*
D03*
X20188000D02*
D03*
D14*
X20094000Y2355000D02*
D03*
Y2735000D02*
D03*
X20592999Y2591000D02*
D03*
Y2971000D02*
D03*
X7747000Y6133600D02*
D03*
Y5753600D02*
D03*
X14850000Y5572000D02*
D03*
Y5192000D02*
D03*
X11449000Y5619000D02*
D03*
Y5239000D02*
D03*
D15*
X18716000Y3652000D02*
D03*
X18446001D02*
D03*
X18502400Y8003000D02*
D03*
X18772400D02*
D03*
X18502400Y8307800D02*
D03*
X18772400D02*
D03*
X15058400Y7986000D02*
D03*
X15328400D02*
D03*
X15058400Y8290800D02*
D03*
X15328400D02*
D03*
X11698400Y7999000D02*
D03*
X11968400D02*
D03*
X11698400Y8303800D02*
D03*
X11968400D02*
D03*
X11862000Y3094000D02*
D03*
X11592000D02*
D03*
X8526400Y8305800D02*
D03*
X8796400D02*
D03*
X8526400Y8001000D02*
D03*
X8796400D02*
D03*
D19*
X3148400Y2438400D02*
D03*
X2998400D02*
D03*
D24*
X9230360Y10565059D02*
D03*
Y10715056D02*
D03*
X13731000Y10650999D02*
D03*
Y10800996D02*
D03*
X12609000Y2499000D02*
D03*
Y2649000D02*
D03*
X22656799Y7773600D02*
D03*
Y7923600D02*
D03*
X22834599Y8027600D02*
D03*
Y8177600D02*
D03*
X23037801Y8281600D02*
D03*
Y8431600D02*
D03*
X22860001Y8533200D02*
D03*
Y8383200D02*
D03*
X17355000Y3149000D02*
D03*
Y3299000D02*
D03*
D44*
X19506000Y3349000D02*
D03*
Y3079000D02*
D03*
X19836000Y3341000D02*
D03*
Y3071000D02*
D03*
X19153000Y3349000D02*
D03*
Y3079000D02*
D03*
X13685001Y2150000D02*
D03*
Y1880000D02*
D03*
X13385001Y2152000D02*
D03*
Y1882000D02*
D03*
X13074001Y2150000D02*
D03*
Y1880000D02*
D03*
D45*
X13016000Y3050000D02*
D03*
Y2560000D02*
D03*
X17786000Y2960000D02*
D03*
Y3450000D02*
D03*
D48*
X22716000Y3902000D02*
D03*
X21866000Y3552000D02*
D03*
Y3902000D02*
D03*
X22716000Y3552000D02*
D03*
X22720000Y3112000D02*
D03*
X21870000Y2762000D02*
D03*
Y3112000D02*
D03*
X22720000Y2762000D02*
D03*
D53*
X22689999Y3841000D02*
X23749001D01*
X22697000Y3573000D02*
X23746001D01*
X23241000Y4603000D02*
Y4857000D01*
X23749001D01*
Y4603000D02*
Y4857000D01*
X23241000Y4095000D02*
Y4349000D01*
Y2317000D02*
X23749001D01*
X23241000Y2063000D02*
X23749001D01*
Y4095000D02*
Y4349000D01*
X23241000D02*
X23749001D01*
D54*
X3660000Y5960000D02*
Y10086200D01*
X3962400Y10388600D01*
X23241000Y9429000D02*
X23749001D01*
X3962400Y10388600D02*
X5911398D01*
X22583659Y10086340D02*
X23241000Y9429000D01*
X6331402Y10439405D02*
X6684467Y10086340D01*
X22583659D01*
X8080000Y4120000D02*
Y4300000D01*
Y4120000D02*
X8165000Y4035000D01*
X8770000Y4030000D01*
X14610001Y4120000D02*
Y4290000D01*
Y4120000D02*
X14700000Y4030000D01*
X15320000Y4020000D01*
X8796400Y8001000D02*
Y8305800D01*
X8830600Y8340000D01*
X8950000D01*
X15328400Y7986000D02*
Y8290800D01*
X15460800D01*
X15480000Y8310000D01*
X18772400Y8003000D02*
Y8307800D01*
X18794600Y8330000D01*
X18920000D01*
D55*
X8495837Y5875900D02*
X21023563D01*
X8475127Y5825900D02*
X21044273D01*
X8454416Y5775900D02*
X21064984D01*
X8433706Y5725900D02*
X21085693D01*
X5288000Y8641000D02*
X5408000Y8761000D01*
X5062000Y8081400D02*
Y8202000D01*
X5148000Y8037400D02*
Y8378000D01*
X4862400Y7751800D02*
X5148000Y8037400D01*
X4844400Y7863800D02*
X5062000Y8081400D01*
X5836705Y6262501D02*
X7902597D01*
X4408000Y7691206D02*
Y8160000D01*
X5857416Y6312501D02*
X7923307D01*
X4486000Y7683917D02*
Y8163000D01*
X5878126Y6362501D02*
X7944017D01*
X4570000Y7670627D02*
Y8154000D01*
X5898837Y6412501D02*
X7964728D01*
X4663000Y7648337D02*
Y8166000D01*
Y7648337D02*
X5898837Y6412501D01*
X4570000Y7670627D02*
X5878126Y6362501D01*
X4486000Y7683917D02*
X5857416Y6312501D01*
X4408000Y7691206D02*
X5836705Y6262501D01*
X5063000Y9309000D02*
X5660000Y9906000D01*
X5143000Y9115000D02*
Y9224710D01*
X5774290Y9856000D01*
X5288000Y8952000D02*
Y9299000D01*
X5408000Y8761000D02*
Y9237910D01*
X2599000Y6776000D02*
X2801000Y6574000D01*
Y6085600D02*
Y6574000D01*
X2616200Y5900800D02*
X2801000Y6085600D01*
X21874100Y6514305D02*
Y7523100D01*
X21824100Y6535016D02*
Y7543810D01*
X21774100Y6555726D02*
Y7564520D01*
X21724100Y6576437D02*
Y7585231D01*
X21085693Y5725900D02*
X21874100Y6514305D01*
X21064984Y5775900D02*
X21824100Y6535016D01*
X21044273Y5825900D02*
X21774100Y6555726D01*
X21023563Y5875900D02*
X21724100Y6576437D01*
X21874100Y7523100D02*
X22148801Y7797800D01*
X21824100Y7543810D02*
X22306689Y8026400D01*
X21774100Y7564520D02*
X22489980Y8280400D01*
X21724100Y7585231D02*
X22663069Y8524200D01*
X23378200D01*
X22489980Y8280400D02*
X23367999D01*
X22306689Y8026400D02*
X23342599D01*
X22148801Y7797800D02*
X22733000D01*
X7289800Y5664200D02*
Y6045200D01*
Y5664200D02*
X7366000Y5588000D01*
X2616200Y5449700D02*
X2847300Y5218600D01*
X2616200Y5449700D02*
Y5900800D01*
X2467000Y2692400D02*
X2797200Y3022600D01*
X10414000D01*
X4038600Y2743200D02*
X10566400D01*
X2467000Y2438400D02*
X2998400D01*
X3148400D02*
X11023600D01*
X7947000Y6212606D02*
Y6218097D01*
X7997000Y6233316D02*
Y6238808D01*
X8047000Y6254027D02*
Y6259518D01*
X8097000Y6274737D02*
Y6280228D01*
X7964728Y6412501D02*
X8097000Y6280228D01*
X7944017Y6362501D02*
X8047000Y6259518D01*
X7923307Y6312501D02*
X7997000Y6238808D01*
X7902597Y6262501D02*
X7947000Y6218097D01*
X8097000Y6274737D02*
X8495837Y5875900D01*
X8047000Y6254027D02*
X8475127Y5825900D01*
X7997000Y6233316D02*
X8454416Y5775900D01*
X7947000Y6212606D02*
X8433706Y5725900D01*
X23378200Y8524200D02*
X23749001Y8153400D01*
X23367999Y8280400D02*
X23749001Y7899400D01*
X23342599Y8026400D02*
X23723599Y7645400D01*
X23012399Y7518400D02*
X23672800D01*
X23774400Y7416800D01*
X22733000Y7797800D02*
X23012399Y7518400D01*
X5660000Y9906000D02*
X19103000D01*
X19249001Y9760000D01*
X19244598Y9758000D02*
X19323199Y9679400D01*
X5775000Y9856000D02*
X9239310D01*
X9241310Y9854000D01*
X12340600D01*
X12519200Y9675400D01*
X12728300Y9731300D02*
X15810300D01*
X12567000Y9570000D02*
X12728300Y9731300D01*
X10891000Y9570000D02*
X12567000D01*
X10657000Y9804000D02*
X10891000Y9570000D01*
X15810300Y9731300D02*
X15879201Y9662400D01*
X5408000Y9237910D02*
X5899090Y9729000D01*
X9295600D01*
X9347200Y9677400D01*
X5793000Y9804000D02*
X10657000D01*
X5288000Y9299000D02*
X5793000Y9804000D01*
X13970000Y2895600D02*
X14781599D01*
X15250000Y3364000D01*
X7442200Y3200400D02*
X7449800Y3208000D01*
X2467000Y3327400D02*
X8930000D01*
X7449800Y3208000D02*
X10367900D01*
X10590000Y2985900D01*
Y2910000D02*
Y2985900D01*
X15250000Y3364000D02*
Y3530000D01*
D56*
X17355000Y3299000D02*
X17528000Y3472000D01*
X17773000D01*
X12601000Y2678000D02*
Y2911000D01*
X12728000Y3038000D01*
X13014999D01*
D58*
X19989999Y2734000D02*
X20087000D01*
X19845000Y2589000D02*
X19989999Y2734000D01*
X20371001Y2594000D02*
X20819000D01*
X20371001D02*
X20374001Y2591000D01*
X20230000Y2735000D02*
X20371001Y2594000D01*
X20094000Y2735000D02*
X20230000D01*
X18942200Y7571200D02*
Y8130000D01*
X15498199Y7554200D02*
Y8113000D01*
X12138200Y7567200D02*
Y8126000D01*
X23231100Y7152900D02*
X23241000Y7162800D01*
X8966200Y7569200D02*
Y8128000D01*
X22985800Y8431600D02*
X23037801D01*
X22936200Y8382000D02*
X22985800Y8431600D01*
X22708800Y8177600D02*
X22834599D01*
X22378600Y7923600D02*
X22656799D01*
X22734200Y8383200D02*
X22860001D01*
X22860001Y8382000D02*
X22936200D01*
X3377000Y8550840D02*
Y8967540D01*
X14853000Y5573000D02*
X14856000Y5570000D01*
X14861000Y5569000D02*
X15077000D01*
X14622000Y5573000D02*
X14853000D01*
X11222000Y5624000D02*
X11405000D01*
X11406000Y5625000D01*
X11693000D01*
D59*
X8534400Y5969000D02*
X20985001D01*
X8515595Y5923600D02*
X21003806D01*
X4731300Y8857905D02*
X4814395Y8941000D01*
X4731300Y7647495D02*
X5916195Y6462600D01*
X4731300Y7647495D02*
Y8857905D01*
X4778000Y7893142D02*
Y8782000D01*
X4776700Y7891842D02*
X4778000Y7893142D01*
X4776700Y7835758D02*
Y7891842D01*
Y7835758D02*
X4778000Y7834458D01*
Y7665000D02*
Y7834458D01*
X4779000Y8782000D02*
X4837400Y8840400D01*
X4778000Y8782000D02*
X4779000D01*
X4814395Y8941000D02*
X4830000D01*
X7982086Y6462600D02*
X8144700Y6299986D01*
X5916195Y6462600D02*
X7982086D01*
X8000891Y6508000D02*
X8190100Y6318792D01*
X5935000Y6508000D02*
X8000891D01*
X4778000Y7665000D02*
X5935000Y6508000D01*
X2598000Y6785000D02*
X3451000Y7638000D01*
Y7970000D01*
X4280000Y9141000D02*
Y9380000D01*
X5057460Y10157460D01*
X5996940D01*
X4509000Y9360000D02*
X5220000Y10071000D01*
X5443000D01*
X5465960Y10093960D01*
X21676401Y6596195D02*
Y7604989D01*
X21003806Y5923600D02*
X21676401Y6596195D01*
X21631000Y6615000D02*
Y7635000D01*
X20985001Y5969000D02*
X21631000Y6615000D01*
X22911400Y8915400D02*
X23235400D01*
X21631000Y7635000D02*
X22911400Y8915400D01*
X21676401Y7604989D02*
X22732811Y8661400D01*
X23241000D01*
X5465960Y10093960D02*
X6029960D01*
X6174740Y10238740D01*
X23241000Y8921000D02*
X23749001D01*
X23241000Y8667000D02*
X23749001D01*
X8144700Y6294495D02*
Y6299986D01*
X8190100Y6313300D02*
Y6318792D01*
Y6313300D02*
X8534400Y5969000D01*
X8144700Y6294495D02*
X8515595Y5923600D01*
X23235400Y8915400D02*
X23241000Y8921000D01*
X6174740Y10596880D02*
X6322060Y10744200D01*
X12702540D01*
X13088620Y10358120D01*
X13114020D01*
X13225780Y10246360D01*
X6174740Y10238740D02*
Y10596880D01*
X5996940Y10157460D02*
X6129340Y10289860D01*
Y10615685D01*
X6311195Y10797540D01*
X20408900D01*
X20662900Y10259060D02*
Y10543540D01*
X20408900Y10797540D02*
X20662900Y10543540D01*
D61*
X23018800Y5873801D02*
X23152002Y5740600D01*
X23291368D01*
X23291568Y5740400D01*
X23622000D01*
X23749001Y5613400D01*
X23026401Y6262400D02*
X23029401Y6259400D01*
X23611000D01*
X23749001Y6121400D01*
X22987000Y7823200D02*
X23164799D01*
X23241000Y7899400D01*
X22987000Y7416800D02*
X23215601D01*
X23241000Y7391400D01*
D62*
X4935175Y1408000D02*
Y1560351D01*
X4859000Y1484175D01*
X4960567D01*
D63*
X2557000Y1554900D02*
D03*
Y10444400D02*
D03*
D64*
X7924800Y9144000D02*
D03*
Y8864600D02*
D03*
D65*
X24003000Y1555000D02*
D03*
Y10445000D02*
D03*
D66*
X23241000Y2063000D02*
D03*
Y2317000D02*
D03*
Y2571000D02*
D03*
Y2825000D02*
D03*
Y3079000D02*
D03*
Y3333000D02*
D03*
Y3587000D02*
D03*
Y3841000D02*
D03*
Y4095000D02*
D03*
Y4349000D02*
D03*
Y4603000D02*
D03*
Y4857000D02*
D03*
Y5111000D02*
D03*
Y5365000D02*
D03*
Y5619000D02*
D03*
Y5873000D02*
D03*
Y6127000D02*
D03*
Y6381000D02*
D03*
Y6635000D02*
D03*
Y6889000D02*
D03*
Y7143000D02*
D03*
Y7397000D02*
D03*
Y7651000D02*
D03*
Y7905000D02*
D03*
Y8159000D02*
D03*
Y8413000D02*
D03*
Y8667000D02*
D03*
Y8921000D02*
D03*
Y9175000D02*
D03*
Y9429000D02*
D03*
Y9683000D02*
D03*
Y9937000D02*
D03*
X23749001Y2063000D02*
D03*
Y2317000D02*
D03*
Y2571000D02*
D03*
Y2825000D02*
D03*
Y3079000D02*
D03*
Y3333000D02*
D03*
Y3587000D02*
D03*
Y3841000D02*
D03*
Y4095000D02*
D03*
Y4349000D02*
D03*
Y4603000D02*
D03*
Y4857000D02*
D03*
Y5111000D02*
D03*
Y5365000D02*
D03*
Y5619000D02*
D03*
Y5873000D02*
D03*
Y6127000D02*
D03*
Y6381000D02*
D03*
Y6635000D02*
D03*
Y6889000D02*
D03*
Y7143000D02*
D03*
Y7397000D02*
D03*
Y7651000D02*
D03*
Y7905000D02*
D03*
Y8159000D02*
D03*
Y8413000D02*
D03*
Y8667000D02*
D03*
Y8921000D02*
D03*
Y9175000D02*
D03*
Y9429000D02*
D03*
Y9683000D02*
D03*
Y9937000D02*
D03*
X2847300Y5668600D02*
D03*
Y5218600D02*
D03*
D67*
X2590801Y6273800D02*
D03*
X2336801D02*
D03*
X2590801Y6527800D02*
D03*
X2336801D02*
D03*
X2590801Y6781800D02*
D03*
X2336801D02*
D03*
Y7035800D02*
D03*
X2590801D02*
D03*
Y7289800D02*
D03*
X2336801D02*
D03*
D68*
X2492400Y2438400D02*
D03*
Y2692400D02*
D03*
Y3073400D02*
D03*
Y3327400D02*
D03*
Y3708400D02*
D03*
Y3962400D02*
D03*
Y4343400D02*
D03*
Y4597400D02*
D03*
Y8839200D02*
D03*
Y9093200D02*
D03*
Y8178800D02*
D03*
Y8432800D02*
D03*
Y9728200D02*
D03*
Y9474200D02*
D03*
D69*
X3096300Y5093100D02*
D03*
Y5794100D02*
D03*
D70*
X7346000Y1720000D02*
D03*
X7345000Y1839000D02*
D03*
X7344000Y1960000D02*
D03*
X19845000Y2589000D02*
D03*
X20359000Y2600000D02*
D03*
X20825999Y2594000D02*
D03*
X13528000Y5626000D02*
D03*
X12728000Y3037000D02*
D03*
X15077000Y5569000D02*
D03*
X14622000Y5573000D02*
D03*
X13789999Y5134000D02*
D03*
X11684000Y5620000D02*
D03*
X11222000Y5624000D02*
D03*
D71*
X12842400Y4267200D02*
D03*
X12994800Y4724400D02*
D03*
Y4876800D02*
D03*
X12030000Y4820000D02*
D03*
X12130000Y4290000D02*
D03*
X12486800Y4267200D02*
D03*
X12664600D02*
D03*
X12994800Y4572000D02*
D03*
Y4419600D02*
D03*
Y4267200D02*
D03*
X20517000Y9636220D02*
D03*
X18245000Y7755401D02*
D03*
X17073000Y9619220D02*
D03*
X14800999Y7738401D02*
D03*
X11441000Y7751401D02*
D03*
X4357000Y6401000D02*
D03*
X5147000Y6282000D02*
D03*
X4862000Y6143000D02*
D03*
X4511000Y6135000D02*
D03*
X4188000Y6049000D02*
D03*
X4181000Y6566000D02*
D03*
X4623000Y8695000D02*
D03*
X5283000Y6512000D02*
D03*
X3055000Y6569000D02*
D03*
X4355000Y6565000D02*
D03*
X3471200Y9919400D02*
D03*
X3659000Y5952000D02*
D03*
X5026000Y6525000D02*
D03*
X8966200Y8128000D02*
D03*
X7289800Y6045200D02*
D03*
X7366000Y5588000D02*
D03*
X8269000Y7753401D02*
D03*
X10541000Y9634220D02*
D03*
X10414000Y3022600D02*
D03*
X7442200Y3200400D02*
D03*
X13970000Y2895600D02*
D03*
X10566400Y2743200D02*
D03*
X4038600D02*
D03*
X23018800Y5873801D02*
D03*
X23026401Y6262400D02*
D03*
X22987000Y7416800D02*
D03*
Y7823200D02*
D03*
X22555200Y6654800D02*
D03*
X22708800Y8177600D02*
D03*
X22378600Y7923600D02*
D03*
X22734200Y8383200D02*
D03*
X3389700Y8561000D02*
D03*
X3377000Y8967540D02*
D03*
X13238480Y10233660D02*
D03*
X20667979D02*
D03*
X12030000Y4470000D02*
D03*
Y4640000D02*
D03*
X9550000Y6340000D02*
D03*
X10590000Y2910000D02*
D03*
X8930000Y3327400D02*
D03*
X10380000Y4400000D02*
D03*
Y4250000D02*
D03*
X8080000Y4300000D02*
D03*
X9844800Y4277200D02*
D03*
Y4429600D02*
D03*
Y4582000D02*
D03*
X9514600Y4277200D02*
D03*
X9336800D02*
D03*
X9844800Y4886800D02*
D03*
Y4734400D02*
D03*
X9692400Y4277200D02*
D03*
X8870000Y4690000D02*
D03*
Y4520000D02*
D03*
Y4340000D02*
D03*
Y4870000D02*
D03*
X12722000Y6338000D02*
D03*
X12138200Y8126000D02*
D03*
X15498199D02*
D03*
X18928200Y8136000D02*
D03*
X10830000Y5320000D02*
D03*
Y5160000D02*
D03*
Y5000000D02*
D03*
Y4850000D02*
D03*
Y4690000D02*
D03*
Y4530000D02*
D03*
X7670000Y5320000D02*
D03*
Y5160000D02*
D03*
Y5000000D02*
D03*
Y4840000D02*
D03*
Y4680000D02*
D03*
Y4520000D02*
D03*
X14200000Y4500000D02*
D03*
Y4660000D02*
D03*
Y4820000D02*
D03*
Y4980000D02*
D03*
Y5140000D02*
D03*
Y5300000D02*
D03*
X17650000Y5320000D02*
D03*
Y5160000D02*
D03*
Y5000000D02*
D03*
Y4840000D02*
D03*
Y4680000D02*
D03*
Y4520000D02*
D03*
X16070000Y6320000D02*
D03*
X19500000Y6330000D02*
D03*
X15425200Y4613200D02*
D03*
Y4443200D02*
D03*
X16389999Y4240400D02*
D03*
Y4392800D02*
D03*
Y4545200D02*
D03*
X16059801Y4240400D02*
D03*
X15882001D02*
D03*
X15425200Y4263200D02*
D03*
Y4793200D02*
D03*
X16389999Y4850000D02*
D03*
Y4697600D02*
D03*
X16237601Y4240400D02*
D03*
X19687601Y4270400D02*
D03*
X19839999Y4727600D02*
D03*
Y4880000D02*
D03*
X18875200Y4823200D02*
D03*
X18960001Y4270000D02*
D03*
X19332001Y4270400D02*
D03*
X19509801D02*
D03*
X19839999Y4575200D02*
D03*
Y4422800D02*
D03*
Y4270400D02*
D03*
X18875200Y4473200D02*
D03*
Y4643200D02*
D03*
X15250000Y3530000D02*
D03*
X16889999Y4460000D02*
D03*
Y4280000D02*
D03*
X14610001Y4290000D02*
D03*
X8950000Y8340000D02*
D03*
X12110000Y8310000D02*
D03*
X15480000D02*
D03*
X18920000Y8330000D02*
D03*
X22510001Y7195000D02*
D03*
D72*
X19587360Y9509220D02*
D03*
X16143359Y9492220D02*
D03*
X12783360Y9505220D02*
D03*
X9611360Y9507220D02*
D03*
D73*
X19323199Y9679400D02*
D03*
X15879201Y9662400D02*
D03*
X12519200Y9675400D02*
D03*
X9347200Y9677400D02*
D03*
D74*
X3451000Y7970000D02*
D03*
X5288400Y8647800D02*
D03*
X5285400Y8951800D02*
D03*
X5144400Y9114800D02*
D03*
X4505400Y9358800D02*
D03*
X5058400Y9306800D02*
D03*
X5148400Y8379800D02*
D03*
X5061400Y8201800D02*
D03*
X4576000Y8151000D02*
D03*
X4492000Y8161000D02*
D03*
X4406000Y8166000D02*
D03*
X4666400Y8168800D02*
D03*
X4825000Y8955000D02*
D03*
X4843400Y8842800D02*
D03*
D75*
X4274400Y9133800D02*
D03*
X4862400Y7751800D02*
D03*
X4844400Y7863800D02*
D03*
D76*
X21056599Y5638800D02*
D03*
Y5537200D02*
D03*
X21055000Y5435000D02*
D03*
X21158200Y5638800D02*
D03*
Y5537200D02*
D03*
X21160001Y5435000D02*
D03*
X21260001D02*
D03*
X21259801Y5537200D02*
D03*
Y5638800D02*
D03*
X22402800D02*
D03*
X22301199D02*
D03*
X22199600D02*
D03*
X13589000Y10236200D02*
D03*
Y10439400D02*
D03*
Y10337800D02*
D03*
X13690601Y10439400D02*
D03*
Y10337800D02*
D03*
Y10236200D02*
D03*
X8432800Y10566400D02*
D03*
Y10464800D02*
D03*
Y10363200D02*
D03*
X8331200D02*
D03*
Y10464800D02*
D03*
Y10566400D02*
D03*
D77*
X11968400Y7999000D02*
Y8303800D01*
X11974600Y8310000D01*
X12110000D01*
D78*
X6331402Y10439405D02*
D03*
X5911398D02*
D03*
D79*
X4445000Y10026802D02*
D03*
Y10394803D02*
D03*
%TF.MD5,b3204253994b6cd0ecf47d0989188cab*%
M02*
