G04 Layer_Color=32896*
%FSLAX44Y44*%
%MOMM*%
G71*
G01*
G75*
%ADD29C,0.5080*%
%ADD55C,0.2000*%
%ADD58C,0.1500*%
D29*
X1016000Y1524000D02*
Y2523998D01*
X3215640Y1524000D02*
Y2523998D01*
X1016000D02*
X3215640D01*
X1016000Y1524000D02*
X3215640D01*
D55*
X2390450Y1791240D02*
Y1795240D01*
X2397450Y1791240D02*
Y1795240D01*
X2408992Y1798860D02*
Y1802860D01*
X2415992Y1798860D02*
Y1802860D01*
X2435916Y1805718D02*
Y1809718D01*
X2442916Y1805718D02*
Y1809718D01*
X2365050Y1777778D02*
Y1781778D01*
X2372050Y1777778D02*
Y1781778D01*
D58*
X2356866Y1786382D02*
Y1794379D01*
X2352867D01*
X2351534Y1793047D01*
Y1790381D01*
X2352867Y1789048D01*
X2356866D01*
X2354200D02*
X2351534Y1786382D01*
X2348869D02*
X2346203D01*
X2347536D01*
Y1794379D01*
X2348869Y1793047D01*
X2338205Y1786382D02*
Y1794379D01*
X2342204Y1790381D01*
X2336872D01*
X2379980Y1798066D02*
Y1806063D01*
X2375981D01*
X2374648Y1804731D01*
Y1802065D01*
X2375981Y1800732D01*
X2379980D01*
X2377314D02*
X2374648Y1798066D01*
X2371983D02*
X2369317D01*
X2370650D01*
Y1806063D01*
X2371983Y1804731D01*
X2365318D02*
X2363985Y1806063D01*
X2361319D01*
X2359986Y1804731D01*
Y1803398D01*
X2361319Y1802065D01*
X2362652D01*
X2361319D01*
X2359986Y1800732D01*
Y1799399D01*
X2361319Y1798066D01*
X2363985D01*
X2365318Y1799399D01*
X2403856Y1814830D02*
Y1822827D01*
X2399857D01*
X2398524Y1821494D01*
Y1818829D01*
X2399857Y1817496D01*
X2403856D01*
X2401190D02*
X2398524Y1814830D01*
X2395859D02*
X2393193D01*
X2394526D01*
Y1822827D01*
X2395859Y1821494D01*
X2383862Y1814830D02*
X2389194D01*
X2383862Y1820162D01*
Y1821494D01*
X2385195Y1822827D01*
X2387861D01*
X2389194Y1821494D01*
X2431288Y1822196D02*
Y1830193D01*
X2427289D01*
X2425956Y1828860D01*
Y1826195D01*
X2427289Y1824862D01*
X2431288D01*
X2428622D02*
X2425956Y1822196D01*
X2423291D02*
X2420625D01*
X2421958D01*
Y1830193D01*
X2423291Y1828860D01*
X2416626Y1822196D02*
X2413960D01*
X2415293D01*
Y1830193D01*
X2416626Y1828860D01*
M02*
