G04 Layer_Physical_Order=2*
G04 Layer_Color=16711680*
%FSLAX44Y44*%
%MOMM*%
G71*
G01*
G75*
%ADD12R,0.9000X0.7000*%
%ADD29C,0.5080*%
%ADD30C,0.3048*%
%ADD31C,1.2700*%
%ADD32C,0.6096*%
%ADD33C,0.2540*%
%ADD34C,0.6350*%
%ADD35C,1.3000*%
%ADD36C,1.2700*%
%ADD37C,1.5240*%
%ADD38C,1.7000*%
%ADD39C,1.6000*%
%ADD40P,1.7046X8X112.5*%
%ADD41C,2.8000*%
%ADD42C,1.7240*%
%ADD43C,2.7000*%
%ADD44C,0.9000*%
%ADD45C,0.6350*%
%ADD46C,1.7780*%
%ADD47C,1.0160*%
%ADD48C,0.9144*%
G36*
X3215640Y1524000D02*
X1016000D01*
Y2523998D01*
X3215640D01*
Y1524000D01*
D02*
G37*
%LPC*%
G36*
X1203995Y1976938D02*
X1201654Y1976473D01*
X1199669Y1975147D01*
X1198666Y1973645D01*
X1170646D01*
X1169643Y1975147D01*
X1167658Y1976473D01*
X1165317Y1976938D01*
X1162976Y1976473D01*
X1160991Y1975147D01*
X1159665Y1973162D01*
X1159200Y1970821D01*
X1159665Y1968480D01*
X1160991Y1966495D01*
X1162976Y1965169D01*
X1165317Y1964703D01*
X1167658Y1965169D01*
X1169643Y1966495D01*
X1170646Y1967997D01*
X1198666D01*
X1199669Y1966495D01*
X1201654Y1965169D01*
X1203995Y1964703D01*
X1206336Y1965169D01*
X1208321Y1966495D01*
X1209647Y1968480D01*
X1210113Y1970821D01*
X1209647Y1973162D01*
X1208321Y1975147D01*
X1206336Y1976473D01*
X1203995Y1976938D01*
D02*
G37*
G36*
X1680464Y1986810D02*
X1678123Y1986344D01*
X1676138Y1985018D01*
X1674812Y1983033D01*
X1674346Y1980692D01*
X1674699Y1978921D01*
X1621783Y1926005D01*
X1620012Y1926358D01*
X1617671Y1925892D01*
X1615686Y1924566D01*
X1614360Y1922581D01*
X1613895Y1920240D01*
X1614360Y1917899D01*
X1615686Y1915914D01*
X1617671Y1914588D01*
X1620012Y1914122D01*
X1622353Y1914588D01*
X1624338Y1915914D01*
X1625664Y1917899D01*
X1626129Y1920240D01*
X1625777Y1922011D01*
X1678693Y1974927D01*
X1680464Y1974574D01*
X1682805Y1975040D01*
X1684790Y1976366D01*
X1686116Y1978351D01*
X1686582Y1980692D01*
X1686116Y1983033D01*
X1684790Y1985018D01*
X1682805Y1986344D01*
X1680464Y1986810D01*
D02*
G37*
G36*
X1045464Y1758880D02*
X1042984Y1758553D01*
X1040673Y1757596D01*
X1038689Y1756073D01*
X1037166Y1754089D01*
X1036208Y1751778D01*
X1035882Y1749298D01*
X1036208Y1746818D01*
X1037166Y1744507D01*
X1038689Y1742522D01*
X1040673Y1741000D01*
X1042984Y1740043D01*
X1045464Y1739716D01*
X1047944Y1740043D01*
X1050255Y1741000D01*
X1052240Y1742522D01*
X1053762Y1744507D01*
X1054719Y1746818D01*
X1055046Y1749298D01*
X1054719Y1751778D01*
X1053762Y1754089D01*
X1052240Y1756073D01*
X1050255Y1757596D01*
X1047944Y1758553D01*
X1045464Y1758880D01*
D02*
G37*
G36*
X1106428Y1800788D02*
X1103818Y1800445D01*
X1101385Y1799437D01*
X1099296Y1797834D01*
X1097693Y1795745D01*
X1096685Y1793313D01*
X1096342Y1790702D01*
X1096685Y1788091D01*
X1097693Y1785659D01*
X1099296Y1783570D01*
X1101385Y1781967D01*
X1103818Y1780959D01*
X1106428Y1780616D01*
X1109038Y1780959D01*
X1111471Y1781967D01*
X1113560Y1783570D01*
X1115163Y1785659D01*
X1116171Y1788091D01*
X1116514Y1790702D01*
X1116171Y1793313D01*
X1115163Y1795745D01*
X1113560Y1797834D01*
X1111471Y1799437D01*
X1109038Y1800445D01*
X1106428Y1800788D01*
D02*
G37*
G36*
X2374550Y1777278D02*
X2362550D01*
Y1773209D01*
X2361190D01*
X2360999Y1773497D01*
X2359452Y1774530D01*
X2357628Y1774893D01*
X2355804Y1774530D01*
X2354258Y1773497D01*
X2353224Y1771950D01*
X2352861Y1770126D01*
X2353224Y1768302D01*
X2354258Y1766756D01*
X2355804Y1765722D01*
X2357628Y1765359D01*
X2359452Y1765722D01*
X2360999Y1766756D01*
X2361190Y1767043D01*
X2370462D01*
X2371642Y1767278D01*
X2371643Y1767278D01*
X2374550D01*
Y1777278D01*
D02*
G37*
G36*
X1060057Y1965682D02*
X1050683D01*
X1045996Y1960995D01*
Y1951621D01*
X1050683Y1946934D01*
X1060057D01*
X1064744Y1951621D01*
Y1960995D01*
X1060057Y1965682D01*
D02*
G37*
G36*
X2634488Y2008827D02*
X2632664Y2008464D01*
X2631118Y2007431D01*
X2630926Y2007143D01*
X2615692D01*
X2615692Y2007143D01*
X2614565Y2006919D01*
X2613914Y2007049D01*
X2612090Y2006686D01*
X2610544Y2005652D01*
X2609510Y2004106D01*
X2609147Y2002282D01*
X2609510Y2000458D01*
X2610544Y1998911D01*
X2612090Y1997878D01*
X2613914Y1997515D01*
X2615738Y1997878D01*
X2617285Y1998911D01*
X2618318Y2000458D01*
X2618421Y2000977D01*
X2630926D01*
X2631118Y2000690D01*
X2632664Y1999656D01*
X2634488Y1999293D01*
X2636312Y1999656D01*
X2637859Y2000690D01*
X2638892Y2002236D01*
X2639254Y2004060D01*
X2638892Y2005884D01*
X2637859Y2007431D01*
X2636312Y2008464D01*
X2634488Y2008827D01*
D02*
G37*
G36*
X3108960Y2072187D02*
X3106579Y2071873D01*
X3104361Y2070954D01*
X3102455Y2069492D01*
X3100994Y2067587D01*
X3100075Y2065369D01*
X3099761Y2062988D01*
X3100075Y2060607D01*
X3100994Y2058389D01*
X3102455Y2056483D01*
X3104361Y2055022D01*
X3106579Y2054103D01*
X3108960Y2053789D01*
X3111341Y2054103D01*
X3113559Y2055022D01*
X3115464Y2056483D01*
X3116926Y2058389D01*
X3117845Y2060607D01*
X3118159Y2062988D01*
X3117845Y2065369D01*
X3116926Y2067587D01*
X3115464Y2069492D01*
X3113559Y2070954D01*
X3111341Y2071873D01*
X3108960Y2072187D01*
D02*
G37*
G36*
X3159760Y2097587D02*
X3157379Y2097273D01*
X3155161Y2096354D01*
X3153256Y2094892D01*
X3151794Y2092987D01*
X3150875Y2090769D01*
X3150561Y2088388D01*
X3150875Y2086007D01*
X3151794Y2083789D01*
X3153256Y2081884D01*
X3155161Y2080422D01*
X3157379Y2079503D01*
X3159760Y2079189D01*
X3162141Y2079503D01*
X3164359Y2080422D01*
X3166265Y2081884D01*
X3167726Y2083789D01*
X3168645Y2086007D01*
X3168959Y2088388D01*
X3168645Y2090769D01*
X3167726Y2092987D01*
X3166265Y2094892D01*
X3164359Y2096354D01*
X3162141Y2097273D01*
X3159760Y2097587D01*
D02*
G37*
G36*
X2505964Y2109790D02*
X2503252Y2109433D01*
X2500724Y2108386D01*
X2498554Y2106720D01*
X2496888Y2104550D01*
X2495841Y2102022D01*
X2495484Y2099310D01*
X2495841Y2096598D01*
X2496888Y2094070D01*
X2498046Y2092561D01*
Y2044768D01*
X2497142Y2043590D01*
X2496095Y2041062D01*
X2495738Y2038350D01*
X2496095Y2035638D01*
X2497142Y2033110D01*
X2498808Y2030940D01*
X2500978Y2029274D01*
X2503506Y2028227D01*
X2506218Y2027870D01*
X2508930Y2028227D01*
X2511458Y2029274D01*
X2513628Y2030940D01*
X2515294Y2033110D01*
X2516341Y2035638D01*
X2516698Y2038350D01*
X2516341Y2041062D01*
X2515294Y2043590D01*
X2513882Y2045430D01*
Y2091392D01*
X2710964D01*
X2715249Y2087107D01*
X2716889Y2085849D01*
X2718799Y2085058D01*
X2720848Y2084788D01*
X2722897Y2085058D01*
X2724807Y2085849D01*
X2726447Y2087107D01*
X2727705Y2088747D01*
X2728496Y2090657D01*
X2728766Y2092706D01*
X2728496Y2094755D01*
X2727705Y2096665D01*
X2726447Y2098305D01*
X2719843Y2104909D01*
X2718203Y2106167D01*
X2716293Y2106958D01*
X2714244Y2107228D01*
X2512713D01*
X2511204Y2108386D01*
X2508676Y2109433D01*
X2505964Y2109790D01*
D02*
G37*
G36*
X1184658Y1839514D02*
X1182609Y1839244D01*
X1180699Y1838453D01*
X1179059Y1837195D01*
X1177801Y1835555D01*
X1177010Y1833645D01*
X1176740Y1831596D01*
Y1794744D01*
X1131051Y1749055D01*
X1129793Y1747415D01*
X1129002Y1745505D01*
X1128732Y1743456D01*
Y1687830D01*
X1129002Y1685781D01*
X1129793Y1683871D01*
X1131051Y1682231D01*
X1132691Y1680973D01*
X1134601Y1680182D01*
X1136650Y1679912D01*
X1138699Y1680182D01*
X1140609Y1680973D01*
X1142249Y1682231D01*
X1143507Y1683871D01*
X1144298Y1685781D01*
X1144568Y1687830D01*
Y1740176D01*
X1190257Y1785865D01*
X1190257Y1785865D01*
X1191515Y1787505D01*
X1192306Y1789415D01*
X1192576Y1791464D01*
Y1831596D01*
X1192306Y1833645D01*
X1191515Y1835555D01*
X1190257Y1837195D01*
X1188617Y1838453D01*
X1186707Y1839244D01*
X1184658Y1839514D01*
D02*
G37*
G36*
X1307592Y2191707D02*
X1305768Y2191344D01*
X1304221Y2190311D01*
X1303188Y2188764D01*
X1302825Y2186940D01*
X1303188Y2185116D01*
X1304221Y2183569D01*
X1304509Y2183378D01*
Y2176025D01*
X1138675Y2010191D01*
X1064744D01*
Y2011795D01*
X1060057Y2016482D01*
X1050683D01*
X1045996Y2011795D01*
Y2002421D01*
X1050683Y1997734D01*
X1060057D01*
X1064744Y2002421D01*
Y2004025D01*
X1139952D01*
X1139952Y2004025D01*
X1141132Y2004259D01*
X1142132Y2004928D01*
X1309772Y2172568D01*
X1309772Y2172568D01*
X1310441Y2173568D01*
X1310675Y2174748D01*
X1310675Y2174748D01*
Y2183378D01*
X1310963Y2183569D01*
X1311996Y2185116D01*
X1312359Y2186940D01*
X1311996Y2188764D01*
X1310963Y2190311D01*
X1309416Y2191344D01*
X1307592Y2191707D01*
D02*
G37*
G36*
X3159760Y2046787D02*
X3157379Y2046473D01*
X3155161Y2045554D01*
X3153256Y2044093D01*
X3151794Y2042187D01*
X3150875Y2039969D01*
X3150561Y2037588D01*
X3150875Y2035207D01*
X3151794Y2032989D01*
X3153256Y2031084D01*
X3155161Y2029622D01*
X3157379Y2028703D01*
X3159760Y2028389D01*
X3162141Y2028703D01*
X3163657Y2029331D01*
X3167599Y2025389D01*
Y2018929D01*
X3166396Y2018521D01*
X3166265Y2018692D01*
X3164359Y2020154D01*
X3162141Y2021073D01*
X3159760Y2021387D01*
X3157379Y2021073D01*
X3155161Y2020154D01*
X3153256Y2018692D01*
X3151794Y2016787D01*
X3150875Y2014569D01*
X3150561Y2012188D01*
X3150875Y2009807D01*
X3151794Y2007589D01*
X3153256Y2005683D01*
X3155161Y2004222D01*
X3157379Y2003303D01*
X3159760Y2002989D01*
X3162141Y2003303D01*
X3164359Y2004222D01*
X3166265Y2005683D01*
X3166396Y2005855D01*
X3167599Y2005447D01*
Y1968129D01*
X3166396Y1967721D01*
X3166265Y1967892D01*
X3164359Y1969354D01*
X3162141Y1970273D01*
X3159760Y1970587D01*
X3157379Y1970273D01*
X3155863Y1969645D01*
X3149748Y1975760D01*
X3148748Y1976429D01*
X3147568Y1976663D01*
X3147568Y1976663D01*
X3111541D01*
X3111341Y1977903D01*
X3113559Y1978822D01*
X3115464Y1980284D01*
X3116926Y1982189D01*
X3117845Y1984407D01*
X3118159Y1986788D01*
X3117845Y1989169D01*
X3116926Y1991387D01*
X3115464Y1993293D01*
X3113559Y1994754D01*
X3111341Y1995673D01*
X3108960Y1995987D01*
X3106579Y1995673D01*
X3104361Y1994754D01*
X3102455Y1993293D01*
X3100994Y1991387D01*
X3100075Y1989169D01*
X3099761Y1986788D01*
X3100075Y1984407D01*
X3100994Y1982189D01*
X3102455Y1980284D01*
X3104361Y1978822D01*
X3106579Y1977903D01*
X3106379Y1976663D01*
X3089656D01*
X3088476Y1976429D01*
X3087476Y1975760D01*
X3087476Y1975760D01*
X2965048Y1853332D01*
X2964380Y1852332D01*
X2964145Y1851152D01*
X2964145Y1851152D01*
Y1775974D01*
X2963857Y1775782D01*
X2962824Y1774236D01*
X2962462Y1772412D01*
X2962824Y1770588D01*
X2963857Y1769041D01*
X2965404Y1768008D01*
X2967228Y1767645D01*
X2969052Y1768008D01*
X2970598Y1769041D01*
X2971632Y1770588D01*
X2971995Y1772412D01*
X2971632Y1774236D01*
X2970598Y1775782D01*
X2970311Y1775974D01*
Y1849875D01*
X3090933Y1970497D01*
X3146291D01*
X3151503Y1965285D01*
X3150875Y1963769D01*
X3150561Y1961388D01*
X3150875Y1959007D01*
X3151794Y1956789D01*
X3153256Y1954884D01*
X3155161Y1953422D01*
X3156693Y1952787D01*
X3156440Y1951517D01*
X3099054D01*
X3099054Y1951517D01*
X3097874Y1951283D01*
X3096874Y1950614D01*
X3096874Y1950614D01*
X2982828Y1836568D01*
X2982159Y1835568D01*
X2981925Y1834388D01*
X2981925Y1834388D01*
Y1778260D01*
X2981638Y1778069D01*
X2980604Y1776522D01*
X2980241Y1774698D01*
X2980604Y1772874D01*
X2981638Y1771328D01*
X2983184Y1770294D01*
X2985008Y1769931D01*
X2986832Y1770294D01*
X2988379Y1771328D01*
X2989412Y1772874D01*
X2989774Y1774698D01*
X2989412Y1776522D01*
X2988379Y1778069D01*
X2988091Y1778260D01*
Y1833111D01*
X3100331Y1945351D01*
X3104413D01*
X3104666Y1944081D01*
X3104361Y1943954D01*
X3102455Y1942493D01*
X3100994Y1940587D01*
X3100075Y1938369D01*
X3099761Y1935988D01*
X3100075Y1933607D01*
X3100994Y1931389D01*
X3102455Y1929483D01*
X3104361Y1928022D01*
X3106579Y1927103D01*
X3108960Y1926789D01*
X3111341Y1927103D01*
X3113559Y1928022D01*
X3115464Y1929483D01*
X3116926Y1931389D01*
X3117845Y1933607D01*
X3118159Y1935988D01*
X3117845Y1938369D01*
X3116926Y1940587D01*
X3115464Y1942493D01*
X3113559Y1943954D01*
X3113254Y1944081D01*
X3113507Y1945351D01*
X3155213D01*
X3155466Y1944081D01*
X3155161Y1943954D01*
X3153256Y1942493D01*
X3151794Y1940587D01*
X3150875Y1938369D01*
X3150561Y1935988D01*
X3150875Y1933607D01*
X3151794Y1931389D01*
X3153256Y1929483D01*
X3155161Y1928022D01*
X3157379Y1927103D01*
X3159760Y1926789D01*
X3162141Y1927103D01*
X3164359Y1928022D01*
X3166265Y1929483D01*
X3167726Y1931389D01*
X3168645Y1933607D01*
X3168959Y1935988D01*
X3168645Y1938369D01*
X3167726Y1940587D01*
X3166265Y1942493D01*
X3164359Y1943954D01*
X3163526Y1944300D01*
X3163495Y1945149D01*
X3163579Y1945652D01*
X3164480Y1946254D01*
X3172862Y1954636D01*
X3172862Y1954636D01*
X3173531Y1955636D01*
X3173765Y1956816D01*
Y2026666D01*
X3173765Y2026666D01*
X3173531Y2027846D01*
X3172862Y2028846D01*
X3172862Y2028846D01*
X3168017Y2033691D01*
X3168645Y2035207D01*
X3168959Y2037588D01*
X3168645Y2039969D01*
X3167726Y2042187D01*
X3166265Y2044093D01*
X3164359Y2045554D01*
X3162141Y2046473D01*
X3159760Y2046787D01*
D02*
G37*
G36*
X1045464Y1733480D02*
X1042984Y1733154D01*
X1040673Y1732196D01*
X1038689Y1730673D01*
X1037166Y1728689D01*
X1036208Y1726378D01*
X1035882Y1723898D01*
X1036208Y1721418D01*
X1037166Y1719107D01*
X1038689Y1717122D01*
X1040673Y1715600D01*
X1042984Y1714642D01*
X1045464Y1714316D01*
X1047944Y1714642D01*
X1050255Y1715600D01*
X1052240Y1717122D01*
X1053762Y1719107D01*
X1054719Y1721418D01*
X1055046Y1723898D01*
X1054719Y1726378D01*
X1053762Y1728689D01*
X1052240Y1730673D01*
X1050255Y1732196D01*
X1047944Y1733154D01*
X1045464Y1733480D01*
D02*
G37*
G36*
X1060057Y1940282D02*
X1050683D01*
X1045996Y1935595D01*
Y1926221D01*
X1050683Y1921534D01*
X1060057D01*
X1064744Y1926221D01*
Y1935595D01*
X1060057Y1940282D01*
D02*
G37*
G36*
X1717802Y1916960D02*
X1715461Y1916494D01*
X1713476Y1915168D01*
X1712150Y1913183D01*
X1711794Y1911392D01*
X1665182Y1864780D01*
X1663391Y1864424D01*
X1661406Y1863098D01*
X1660080Y1861113D01*
X1659615Y1858772D01*
X1660080Y1856431D01*
X1661406Y1854446D01*
X1663391Y1853120D01*
X1665732Y1852655D01*
X1668073Y1853120D01*
X1670058Y1854446D01*
X1671384Y1856431D01*
X1671740Y1858222D01*
X1718352Y1904834D01*
X1720143Y1905190D01*
X1722128Y1906516D01*
X1723454Y1908501D01*
X1723920Y1910842D01*
X1723454Y1913183D01*
X1722128Y1915168D01*
X1720143Y1916494D01*
X1717802Y1916960D01*
D02*
G37*
G36*
X1704594Y1931438D02*
X1702253Y1930972D01*
X1700268Y1929646D01*
X1698942Y1927661D01*
X1698586Y1925870D01*
X1653752Y1881036D01*
X1651961Y1880680D01*
X1649976Y1879354D01*
X1648650Y1877369D01*
X1648185Y1875028D01*
X1648650Y1872687D01*
X1649976Y1870702D01*
X1651961Y1869376D01*
X1654302Y1868911D01*
X1656643Y1869376D01*
X1658628Y1870702D01*
X1659954Y1872687D01*
X1660310Y1874478D01*
X1705144Y1919312D01*
X1706935Y1919668D01*
X1708920Y1920994D01*
X1710246Y1922979D01*
X1710712Y1925320D01*
X1710246Y1927661D01*
X1708920Y1929646D01*
X1706935Y1930972D01*
X1704594Y1931438D01*
D02*
G37*
G36*
X2862580Y1905449D02*
X2860756Y1905086D01*
X2859210Y1904052D01*
X2858176Y1902506D01*
X2857813Y1900682D01*
X2857965Y1899919D01*
X2831296Y1873251D01*
X2830322Y1873445D01*
X2828498Y1873082D01*
X2826952Y1872048D01*
X2825918Y1870502D01*
X2825555Y1868678D01*
X2825918Y1866854D01*
X2826952Y1865307D01*
X2828498Y1864274D01*
X2830322Y1863911D01*
X2832146Y1864274D01*
X2833693Y1865307D01*
X2834726Y1866854D01*
X2835000Y1868234D01*
X2862707Y1895941D01*
X2864404Y1896278D01*
X2865951Y1897312D01*
X2866984Y1898858D01*
X2867346Y1900682D01*
X2866984Y1902506D01*
X2865951Y1904052D01*
X2864404Y1905086D01*
X2862580Y1905449D01*
D02*
G37*
G36*
X1106428Y1870888D02*
X1103818Y1870545D01*
X1101385Y1869537D01*
X1099296Y1867934D01*
X1097693Y1865845D01*
X1096685Y1863412D01*
X1096342Y1860802D01*
X1096685Y1858192D01*
X1097693Y1855759D01*
X1099296Y1853670D01*
X1101385Y1852067D01*
X1103818Y1851059D01*
X1106428Y1850716D01*
X1109038Y1851059D01*
X1111471Y1852067D01*
X1113560Y1853670D01*
X1115163Y1855759D01*
X1116171Y1858192D01*
X1116514Y1860802D01*
X1116171Y1863412D01*
X1115163Y1865845D01*
X1113560Y1867934D01*
X1111471Y1869537D01*
X1109038Y1870545D01*
X1106428Y1870888D01*
D02*
G37*
G36*
X2947416Y1891479D02*
X2945592Y1891116D01*
X2944045Y1890083D01*
X2943012Y1888536D01*
X2942650Y1886712D01*
X2943012Y1884888D01*
X2944045Y1883342D01*
X2944333Y1883150D01*
Y1849381D01*
X2920577Y1825625D01*
X2920238Y1825693D01*
X2918414Y1825330D01*
X2916867Y1824297D01*
X2915834Y1822750D01*
X2915471Y1820926D01*
X2915834Y1819102D01*
X2916867Y1817556D01*
X2918414Y1816522D01*
X2920238Y1816159D01*
X2922062Y1816522D01*
X2923608Y1817556D01*
X2924642Y1819102D01*
X2925005Y1820926D01*
X2924937Y1821265D01*
X2949596Y1845924D01*
X2949596Y1845924D01*
X2950265Y1846924D01*
X2950499Y1848104D01*
X2950499Y1848104D01*
Y1883150D01*
X2950786Y1883342D01*
X2951820Y1884888D01*
X2952183Y1886712D01*
X2951820Y1888536D01*
X2950786Y1890083D01*
X2949240Y1891116D01*
X2947416Y1891479D01*
D02*
G37*
G36*
X3108960Y1843587D02*
X3106579Y1843273D01*
X3104361Y1842354D01*
X3102455Y1840892D01*
X3100994Y1838987D01*
X3100075Y1836769D01*
X3099761Y1834388D01*
X3100075Y1832007D01*
X3100994Y1829789D01*
X3102455Y1827883D01*
X3104361Y1826422D01*
X3106579Y1825503D01*
X3108960Y1825189D01*
X3111341Y1825503D01*
X3113559Y1826422D01*
X3115464Y1827883D01*
X3116926Y1829789D01*
X3117845Y1832007D01*
X3118159Y1834388D01*
X3117845Y1836769D01*
X3116926Y1838987D01*
X3115464Y1840892D01*
X3113559Y1842354D01*
X3111341Y1843273D01*
X3108960Y1843587D01*
D02*
G37*
G36*
X3159760Y1868987D02*
X3157379Y1868673D01*
X3155161Y1867754D01*
X3153256Y1866293D01*
X3151794Y1864387D01*
X3150875Y1862169D01*
X3150561Y1859788D01*
X3150875Y1857407D01*
X3151794Y1855189D01*
X3153256Y1853284D01*
X3155161Y1851822D01*
X3157379Y1850903D01*
X3159760Y1850589D01*
X3162141Y1850903D01*
X3164359Y1851822D01*
X3166265Y1853284D01*
X3167726Y1855189D01*
X3168645Y1857407D01*
X3168959Y1859788D01*
X3168645Y1862169D01*
X3167726Y1864387D01*
X3166265Y1866293D01*
X3164359Y1867754D01*
X3162141Y1868673D01*
X3159760Y1868987D01*
D02*
G37*
G36*
X1081528Y1812451D02*
X1079147Y1812137D01*
X1076929Y1811218D01*
X1075024Y1809756D01*
X1073562Y1807851D01*
X1072643Y1805633D01*
X1072329Y1803252D01*
X1072643Y1800871D01*
X1073562Y1798653D01*
X1075024Y1796747D01*
X1076929Y1795286D01*
X1079147Y1794367D01*
X1081528Y1794053D01*
X1083909Y1794367D01*
X1086127Y1795286D01*
X1088033Y1796747D01*
X1089494Y1798653D01*
X1090413Y1800871D01*
X1090727Y1803252D01*
X1090413Y1805633D01*
X1089494Y1807851D01*
X1088033Y1809756D01*
X1086127Y1811218D01*
X1083909Y1812137D01*
X1081528Y1812451D01*
D02*
G37*
G36*
X3108960Y1919787D02*
X3106579Y1919473D01*
X3104361Y1918554D01*
X3102455Y1917092D01*
X3100994Y1915187D01*
X3100075Y1912969D01*
X3099761Y1910588D01*
X3100075Y1908207D01*
X3100994Y1905989D01*
X3102455Y1904084D01*
X3104361Y1902622D01*
X3106579Y1901703D01*
X3108960Y1901389D01*
X3111341Y1901703D01*
X3113559Y1902622D01*
X3115464Y1904084D01*
X3116926Y1905989D01*
X3117845Y1908207D01*
X3118159Y1910588D01*
X3117845Y1912969D01*
X3116926Y1915187D01*
X3115464Y1917092D01*
X3113559Y1918554D01*
X3111341Y1919473D01*
X3108960Y1919787D01*
D02*
G37*
G36*
X2418492Y1798360D02*
X2406492D01*
Y1788360D01*
X2418492D01*
Y1790277D01*
X2420786D01*
X2421568Y1789108D01*
X2423114Y1788074D01*
X2424938Y1787711D01*
X2426762Y1788074D01*
X2428309Y1789108D01*
X2429342Y1790654D01*
X2429705Y1792478D01*
X2429342Y1794302D01*
X2428309Y1795849D01*
X2426762Y1796882D01*
X2424938Y1797245D01*
X2423114Y1796882D01*
X2422458Y1796443D01*
X2418492D01*
Y1798360D01*
D02*
G37*
G36*
X2445416Y1805218D02*
X2433416D01*
Y1795218D01*
X2445416D01*
Y1797135D01*
X2451352D01*
X2451794Y1796474D01*
X2453340Y1795440D01*
X2455164Y1795077D01*
X2456988Y1795440D01*
X2458535Y1796474D01*
X2459568Y1798020D01*
X2459931Y1799844D01*
X2459568Y1801668D01*
X2458535Y1803215D01*
X2456988Y1804248D01*
X2455164Y1804611D01*
X2453340Y1804248D01*
X2451923Y1803301D01*
X2445416D01*
Y1805218D01*
D02*
G37*
G36*
X3159760Y1894387D02*
X3157379Y1894073D01*
X3155161Y1893154D01*
X3153256Y1891693D01*
X3151794Y1889787D01*
X3150875Y1887569D01*
X3150561Y1885188D01*
X3150875Y1882807D01*
X3151794Y1880589D01*
X3153256Y1878683D01*
X3155161Y1877222D01*
X3157379Y1876303D01*
X3159760Y1875989D01*
X3162141Y1876303D01*
X3164359Y1877222D01*
X3166265Y1878683D01*
X3167726Y1880589D01*
X3168645Y1882807D01*
X3168959Y1885188D01*
X3168645Y1887569D01*
X3167726Y1889787D01*
X3166265Y1891693D01*
X3164359Y1893154D01*
X3162141Y1894073D01*
X3159760Y1894387D01*
D02*
G37*
G36*
X1034657Y1914882D02*
X1025283D01*
X1020596Y1910195D01*
Y1900821D01*
X1025283Y1896134D01*
X1025851D01*
Y1893062D01*
X1026164Y1891486D01*
X1027057Y1890149D01*
X1035439Y1881767D01*
X1036776Y1880874D01*
X1038352Y1880561D01*
X1117092D01*
X1118668Y1880874D01*
X1120005Y1881767D01*
X1122119Y1883881D01*
X1122172Y1883874D01*
X1124221Y1884144D01*
X1126131Y1884935D01*
X1127771Y1886193D01*
X1129029Y1887833D01*
X1129820Y1889743D01*
X1130090Y1891792D01*
X1129820Y1893841D01*
X1129029Y1895751D01*
X1127771Y1897391D01*
X1126131Y1898649D01*
X1124221Y1899440D01*
X1122172Y1899710D01*
X1120123Y1899440D01*
X1118213Y1898649D01*
X1116573Y1897391D01*
X1115315Y1895751D01*
X1114524Y1893841D01*
X1114254Y1891792D01*
X1114481Y1890069D01*
X1113714Y1888799D01*
X1040058D01*
X1034089Y1894768D01*
Y1896134D01*
X1034657D01*
X1039344Y1900821D01*
Y1910195D01*
X1034657Y1914882D01*
D02*
G37*
G36*
X2871978Y1897829D02*
X2870154Y1897466D01*
X2868607Y1896432D01*
X2867574Y1894886D01*
X2867211Y1893062D01*
X2867279Y1892723D01*
X2833498Y1858943D01*
X2832100Y1859221D01*
X2830276Y1858858D01*
X2828730Y1857825D01*
X2827696Y1856278D01*
X2827333Y1854454D01*
X2827696Y1852630D01*
X2828730Y1851084D01*
X2830276Y1850050D01*
X2832100Y1849687D01*
X2833924Y1850050D01*
X2835471Y1851084D01*
X2836504Y1852630D01*
X2836652Y1853376D01*
X2871639Y1888363D01*
X2871978Y1888295D01*
X2873802Y1888658D01*
X2875349Y1889691D01*
X2876382Y1891238D01*
X2876745Y1893062D01*
X2876382Y1894886D01*
X2875349Y1896432D01*
X2873802Y1897466D01*
X2871978Y1897829D01*
D02*
G37*
G36*
X2099056Y2095013D02*
X2096715Y2094548D01*
X2095196Y2093533D01*
X2024178D01*
X2023419Y2094040D01*
X2021078Y2094505D01*
X2018737Y2094040D01*
X2016752Y2092714D01*
X2015426Y2090729D01*
X2014960Y2088388D01*
X2015426Y2086047D01*
X2016752Y2084062D01*
X2018737Y2082736D01*
X2021078Y2082270D01*
X2023419Y2082736D01*
X2025404Y2084062D01*
X2025535Y2084259D01*
X2095196D01*
X2096715Y2083244D01*
X2099056Y2082778D01*
X2101397Y2083244D01*
X2103382Y2084570D01*
X2104708Y2086555D01*
X2105173Y2088896D01*
X2104708Y2091237D01*
X2103382Y2093222D01*
X2101397Y2094548D01*
X2099056Y2095013D01*
D02*
G37*
G36*
X1051560Y1594663D02*
X1048527Y1594364D01*
X1045611Y1593480D01*
X1042924Y1592043D01*
X1040568Y1590110D01*
X1038635Y1587754D01*
X1037198Y1585067D01*
X1036314Y1582151D01*
X1036015Y1579118D01*
X1036314Y1576085D01*
X1037198Y1573169D01*
X1038635Y1570482D01*
X1040568Y1568126D01*
X1042924Y1566193D01*
X1045611Y1564756D01*
X1048527Y1563872D01*
X1051560Y1563573D01*
X1054593Y1563872D01*
X1057509Y1564756D01*
X1060196Y1566193D01*
X1062552Y1568126D01*
X1064485Y1570482D01*
X1065922Y1573169D01*
X1066806Y1576085D01*
X1067105Y1579118D01*
X1066806Y1582151D01*
X1065922Y1585067D01*
X1064485Y1587754D01*
X1062552Y1590110D01*
X1060196Y1592043D01*
X1057509Y1593480D01*
X1054593Y1594364D01*
X1051560Y1594663D01*
D02*
G37*
G36*
X2997200Y2276849D02*
X2994558Y2276501D01*
X2992096Y2275482D01*
X2989982Y2273860D01*
X2988360Y2271746D01*
X2987340Y2269284D01*
X2986993Y2266642D01*
X2987340Y2264000D01*
X2988360Y2261538D01*
X2989982Y2259424D01*
X2992096Y2257802D01*
X2994558Y2256783D01*
X2997200Y2256435D01*
X2999842Y2256783D01*
X3002304Y2257802D01*
X3004418Y2259424D01*
X3006040Y2261538D01*
X3007060Y2264000D01*
X3007407Y2266642D01*
X3007060Y2269284D01*
X3006040Y2271746D01*
X3004418Y2273860D01*
X3002304Y2275482D01*
X2999842Y2276501D01*
X2997200Y2276849D01*
D02*
G37*
G36*
Y2314949D02*
X2994558Y2314601D01*
X2992096Y2313582D01*
X2989982Y2311960D01*
X2988360Y2309846D01*
X2987340Y2307384D01*
X2986993Y2304742D01*
X2987340Y2302100D01*
X2988360Y2299638D01*
X2989982Y2297524D01*
X2992096Y2295902D01*
X2994558Y2294883D01*
X2997200Y2294535D01*
X2999842Y2294883D01*
X3002304Y2295902D01*
X3004418Y2297524D01*
X3006040Y2299638D01*
X3007060Y2302100D01*
X3007407Y2304742D01*
X3007060Y2307384D01*
X3006040Y2309846D01*
X3004418Y2311960D01*
X3002304Y2313582D01*
X2999842Y2314601D01*
X2997200Y2314949D01*
D02*
G37*
G36*
X1045464Y2301170D02*
X1042984Y2300844D01*
X1040673Y2299886D01*
X1038689Y2298363D01*
X1037166Y2296379D01*
X1036208Y2294068D01*
X1035882Y2291588D01*
X1036208Y2289108D01*
X1037166Y2286797D01*
X1038689Y2284813D01*
X1040673Y2283290D01*
X1042984Y2282332D01*
X1045464Y2282006D01*
X1047944Y2282332D01*
X1050255Y2283290D01*
X1052240Y2284813D01*
X1053762Y2286797D01*
X1054719Y2289108D01*
X1055046Y2291588D01*
X1054719Y2294068D01*
X1053762Y2296379D01*
X1052240Y2298363D01*
X1050255Y2299886D01*
X1047944Y2300844D01*
X1045464Y2301170D01*
D02*
G37*
G36*
X3185160Y1595963D02*
X3182122Y1595664D01*
X3179200Y1594777D01*
X3176507Y1593338D01*
X3174147Y1591401D01*
X3172210Y1589041D01*
X3170771Y1586348D01*
X3169884Y1583427D01*
X3169585Y1580388D01*
X3169884Y1577350D01*
X3170771Y1574428D01*
X3172210Y1571735D01*
X3174147Y1569375D01*
X3176507Y1567438D01*
X3179200Y1565999D01*
X3182122Y1565112D01*
X3185160Y1564813D01*
X3188199Y1565112D01*
X3191120Y1565999D01*
X3193813Y1567438D01*
X3196173Y1569375D01*
X3198110Y1571735D01*
X3199549Y1574428D01*
X3200436Y1577350D01*
X3200735Y1580388D01*
X3200436Y1583427D01*
X3199549Y1586348D01*
X3198110Y1589041D01*
X3196173Y1591401D01*
X3193813Y1593338D01*
X3191120Y1594777D01*
X3188199Y1595664D01*
X3185160Y1595963D01*
D02*
G37*
G36*
X1045464Y2237670D02*
X1042984Y2237343D01*
X1040673Y2236386D01*
X1038689Y2234863D01*
X1037166Y2232879D01*
X1036208Y2230568D01*
X1035882Y2228088D01*
X1036208Y2225608D01*
X1037166Y2223297D01*
X1038689Y2221313D01*
X1040673Y2219790D01*
X1042984Y2218833D01*
X1045464Y2218506D01*
X1047944Y2218833D01*
X1050255Y2219790D01*
X1052240Y2221313D01*
X1053762Y2223297D01*
X1054719Y2225608D01*
X1055046Y2228088D01*
X1054719Y2230568D01*
X1053762Y2232879D01*
X1052240Y2234863D01*
X1050255Y2236386D01*
X1047944Y2237343D01*
X1045464Y2237670D01*
D02*
G37*
G36*
Y2263070D02*
X1042984Y2262744D01*
X1040673Y2261786D01*
X1038689Y2260263D01*
X1037166Y2258279D01*
X1036208Y2255968D01*
X1035882Y2253488D01*
X1036208Y2251008D01*
X1037166Y2248697D01*
X1038689Y2246713D01*
X1040673Y2245190D01*
X1042984Y2244232D01*
X1045464Y2243906D01*
X1047944Y2244232D01*
X1050255Y2245190D01*
X1052240Y2246713D01*
X1053762Y2248697D01*
X1054719Y2251008D01*
X1055046Y2253488D01*
X1054719Y2255968D01*
X1053762Y2258279D01*
X1052240Y2260263D01*
X1050255Y2261786D01*
X1047944Y2262744D01*
X1045464Y2263070D01*
D02*
G37*
G36*
X3159760Y2249987D02*
X3157379Y2249673D01*
X3155161Y2248754D01*
X3153256Y2247292D01*
X3151794Y2245387D01*
X3150875Y2243169D01*
X3150561Y2240788D01*
X3150875Y2238407D01*
X3151794Y2236189D01*
X3153256Y2234283D01*
X3155161Y2232822D01*
X3157379Y2231903D01*
X3159760Y2231589D01*
X3162141Y2231903D01*
X3164359Y2232822D01*
X3166265Y2234283D01*
X3167726Y2236189D01*
X3168645Y2238407D01*
X3168959Y2240788D01*
X3168645Y2243169D01*
X3167726Y2245387D01*
X3166265Y2247292D01*
X3164359Y2248754D01*
X3162141Y2249673D01*
X3159760Y2249987D01*
D02*
G37*
G36*
X1045464Y2326570D02*
X1042984Y2326243D01*
X1040673Y2325286D01*
X1038689Y2323763D01*
X1037166Y2321779D01*
X1036208Y2319468D01*
X1035882Y2316988D01*
X1036208Y2314508D01*
X1037166Y2312197D01*
X1038689Y2310213D01*
X1040673Y2308690D01*
X1042984Y2307733D01*
X1045464Y2307406D01*
X1047944Y2307733D01*
X1050255Y2308690D01*
X1052240Y2310213D01*
X1053762Y2312197D01*
X1054719Y2314508D01*
X1055046Y2316988D01*
X1054719Y2319468D01*
X1053762Y2321779D01*
X1052240Y2323763D01*
X1050255Y2325286D01*
X1047944Y2326243D01*
X1045464Y2326570D01*
D02*
G37*
G36*
X3159760Y2427787D02*
X3157379Y2427473D01*
X3155161Y2426554D01*
X3153256Y2425092D01*
X3151794Y2423187D01*
X3150875Y2420969D01*
X3150561Y2418588D01*
X3150875Y2416207D01*
X3151794Y2413989D01*
X3153256Y2412083D01*
X3155161Y2410622D01*
X3157379Y2409703D01*
X3159760Y2409389D01*
X3162141Y2409703D01*
X3164359Y2410622D01*
X3166265Y2412083D01*
X3167726Y2413989D01*
X3168645Y2416207D01*
X3168959Y2418588D01*
X3168645Y2420969D01*
X3167726Y2423187D01*
X3166265Y2425092D01*
X3164359Y2426554D01*
X3162141Y2427473D01*
X3159760Y2427787D01*
D02*
G37*
G36*
X3108960D02*
X3106579Y2427473D01*
X3104361Y2426554D01*
X3102455Y2425092D01*
X3100994Y2423187D01*
X3100075Y2420969D01*
X3099761Y2418588D01*
X3100075Y2416207D01*
X3100994Y2413989D01*
X3102455Y2412083D01*
X3104361Y2410622D01*
X3106579Y2409703D01*
X3108960Y2409389D01*
X3111341Y2409703D01*
X3113559Y2410622D01*
X3115464Y2412083D01*
X3116926Y2413989D01*
X3117845Y2416207D01*
X3118159Y2418588D01*
X3117845Y2420969D01*
X3116926Y2423187D01*
X3115464Y2425092D01*
X3113559Y2426554D01*
X3111341Y2427473D01*
X3108960Y2427787D01*
D02*
G37*
G36*
X3185160Y2484963D02*
X3182122Y2484664D01*
X3179200Y2483777D01*
X3176507Y2482338D01*
X3174147Y2480401D01*
X3172210Y2478041D01*
X3170771Y2475348D01*
X3169884Y2472426D01*
X3169585Y2469388D01*
X3169884Y2466349D01*
X3170771Y2463428D01*
X3172210Y2460735D01*
X3174147Y2458375D01*
X3176507Y2456438D01*
X3179200Y2454999D01*
X3182122Y2454112D01*
X3185160Y2453813D01*
X3188199Y2454112D01*
X3191120Y2454999D01*
X3193813Y2456438D01*
X3196173Y2458375D01*
X3198110Y2460735D01*
X3199549Y2463428D01*
X3200436Y2466349D01*
X3200735Y2469388D01*
X3200436Y2472426D01*
X3199549Y2475348D01*
X3198110Y2478041D01*
X3196173Y2480401D01*
X3193813Y2482338D01*
X3191120Y2483777D01*
X3188199Y2484664D01*
X3185160Y2484963D01*
D02*
G37*
G36*
X1051560Y2483663D02*
X1048527Y2483364D01*
X1045611Y2482480D01*
X1042924Y2481043D01*
X1040568Y2479110D01*
X1038635Y2476754D01*
X1037198Y2474067D01*
X1036314Y2471151D01*
X1036015Y2468118D01*
X1036314Y2465085D01*
X1037198Y2462169D01*
X1038635Y2459482D01*
X1040568Y2457126D01*
X1042924Y2455193D01*
X1045611Y2453756D01*
X1048527Y2452872D01*
X1051560Y2452573D01*
X1054593Y2452872D01*
X1057509Y2453756D01*
X1060196Y2455193D01*
X1062552Y2457126D01*
X1064485Y2459482D01*
X1065922Y2462169D01*
X1066806Y2465085D01*
X1067105Y2468118D01*
X1066806Y2471151D01*
X1065922Y2474067D01*
X1064485Y2476754D01*
X1062552Y2479110D01*
X1060196Y2481043D01*
X1057509Y2482480D01*
X1054593Y2483364D01*
X1051560Y2483663D01*
D02*
G37*
G36*
X3159760Y2326187D02*
X3157379Y2325873D01*
X3155161Y2324954D01*
X3153256Y2323492D01*
X3151922Y2321755D01*
X3116798D01*
X3115464Y2323492D01*
X3113559Y2324954D01*
X3111341Y2325873D01*
X3108960Y2326187D01*
X3106579Y2325873D01*
X3104361Y2324954D01*
X3102455Y2323492D01*
X3100994Y2321587D01*
X3100795Y2321107D01*
X3097646D01*
X3096070Y2320794D01*
X3094734Y2319901D01*
X3053747Y2278914D01*
X3052854Y2277578D01*
X3052541Y2276001D01*
Y2147176D01*
X3039504Y2134139D01*
X2309944D01*
X2308368Y2133826D01*
X2307032Y2132933D01*
X2126398Y1952299D01*
X1754306D01*
X1596001Y2110605D01*
X1594664Y2111498D01*
X1593088Y2111811D01*
X1531874D01*
X1530298Y2111498D01*
X1528961Y2110605D01*
X1515862Y2097505D01*
X1515618Y2097554D01*
X1513277Y2097088D01*
X1511292Y2095762D01*
X1509966Y2093777D01*
X1509500Y2091436D01*
X1509966Y2089095D01*
X1511292Y2087110D01*
X1513277Y2085784D01*
X1515618Y2085318D01*
X1517959Y2085784D01*
X1519944Y2087110D01*
X1521270Y2089095D01*
X1521270Y2089096D01*
X1522565D01*
X1522666Y2088587D01*
X1523992Y2086602D01*
X1525977Y2085276D01*
X1528318Y2084810D01*
X1530659Y2085276D01*
X1532644Y2086602D01*
X1532782Y2086809D01*
X1594430D01*
X1742575Y1938663D01*
X1743912Y1937770D01*
X1745488Y1937457D01*
X2130806D01*
X2132382Y1937770D01*
X2133719Y1938663D01*
X2314376Y2119321D01*
X3043936D01*
X3045512Y2119634D01*
X3046849Y2120527D01*
X3066153Y2139831D01*
X3067046Y2141168D01*
X3067359Y2142744D01*
Y2263720D01*
X3091108Y2287469D01*
X3100795D01*
X3100994Y2286989D01*
X3102455Y2285083D01*
X3104361Y2283622D01*
X3106579Y2282703D01*
X3108960Y2282389D01*
X3111341Y2282703D01*
X3113559Y2283622D01*
X3115464Y2285083D01*
X3116798Y2286821D01*
X3151922D01*
X3153256Y2285083D01*
X3155161Y2283622D01*
X3157379Y2282703D01*
X3159760Y2282389D01*
X3162141Y2282703D01*
X3164359Y2283622D01*
X3166265Y2285083D01*
X3167726Y2286989D01*
X3168645Y2289207D01*
X3168959Y2291588D01*
X3168645Y2293969D01*
X3167726Y2296187D01*
X3166265Y2298092D01*
X3164359Y2299554D01*
X3162141Y2300473D01*
X3159760Y2300787D01*
X3157379Y2300473D01*
X3155161Y2299554D01*
X3153256Y2298092D01*
X3151922Y2296355D01*
X3116798D01*
X3115464Y2298092D01*
X3113559Y2299554D01*
X3111341Y2300473D01*
X3108960Y2300787D01*
X3106579Y2300473D01*
X3104361Y2299554D01*
X3102455Y2298092D01*
X3100994Y2296187D01*
X3100795Y2295707D01*
X3089402D01*
X3087826Y2295394D01*
X3086489Y2294501D01*
X3061953Y2269964D01*
X3060779Y2270450D01*
Y2274295D01*
X3099353Y2312869D01*
X3100795D01*
X3100994Y2312389D01*
X3102455Y2310484D01*
X3104361Y2309022D01*
X3106579Y2308103D01*
X3108960Y2307789D01*
X3111341Y2308103D01*
X3113559Y2309022D01*
X3115464Y2310484D01*
X3116798Y2312221D01*
X3151922D01*
X3153256Y2310484D01*
X3155161Y2309022D01*
X3157379Y2308103D01*
X3159760Y2307789D01*
X3162141Y2308103D01*
X3164359Y2309022D01*
X3166265Y2310484D01*
X3167726Y2312389D01*
X3168645Y2314607D01*
X3168959Y2316988D01*
X3168645Y2319369D01*
X3167726Y2321587D01*
X3166265Y2323492D01*
X3164359Y2324954D01*
X3162141Y2325873D01*
X3159760Y2326187D01*
D02*
G37*
G36*
X2465070Y2333773D02*
X2462729Y2333308D01*
X2460744Y2331982D01*
X2459418Y2329997D01*
X2458952Y2327656D01*
X2459418Y2325315D01*
X2460744Y2323330D01*
X2462729Y2322004D01*
X2465070Y2321539D01*
X2467411Y2322004D01*
X2469396Y2323330D01*
X2470722Y2325315D01*
X2471187Y2327656D01*
X2470722Y2329997D01*
X2469396Y2331982D01*
X2467411Y2333308D01*
X2465070Y2333773D01*
D02*
G37*
G36*
X2970022Y2432499D02*
X2106676D01*
X2104588Y2432224D01*
X2102641Y2431418D01*
X2100970Y2430136D01*
X2099688Y2428465D01*
X2098882Y2426518D01*
X2098607Y2424430D01*
X2098882Y2422342D01*
X2099688Y2420396D01*
X2100970Y2418724D01*
X2102641Y2417442D01*
X2104588Y2416636D01*
X2106676Y2416361D01*
X2966680D01*
X2988369Y2394672D01*
Y2383128D01*
X2962509D01*
X2962390Y2383078D01*
X2962266Y2383109D01*
X2961830Y2382847D01*
X2961361Y2382652D01*
X2961312Y2382533D01*
X2961202Y2382467D01*
X2960266Y2381197D01*
X2960236Y2381073D01*
X2960138Y2380992D01*
X2960090Y2380485D01*
X2959987Y2380066D01*
X2502200D01*
X2501052Y2379590D01*
X2500576Y2378442D01*
Y2340292D01*
X2499306Y2340209D01*
X2499059Y2342084D01*
X2498040Y2344546D01*
X2496418Y2346660D01*
X2494304Y2348282D01*
X2493100Y2348781D01*
X2492959Y2350214D01*
X2493780Y2350762D01*
X2495106Y2352747D01*
X2495571Y2355088D01*
X2495106Y2357429D01*
X2493780Y2359414D01*
X2491795Y2360740D01*
X2489454Y2361205D01*
X2487113Y2360740D01*
X2485128Y2359414D01*
X2483802Y2357429D01*
X2483336Y2355088D01*
X2483802Y2352747D01*
X2485128Y2350762D01*
X2485755Y2350343D01*
X2485614Y2348910D01*
X2484096Y2348282D01*
X2481982Y2346660D01*
X2480360Y2344546D01*
X2479341Y2342084D01*
X2478993Y2339442D01*
X2479341Y2336800D01*
X2480360Y2334338D01*
X2481982Y2332224D01*
X2484096Y2330602D01*
X2486558Y2329583D01*
X2489200Y2329235D01*
X2491842Y2329583D01*
X2494304Y2330602D01*
X2496418Y2332224D01*
X2498040Y2334338D01*
X2499059Y2336800D01*
X2499306Y2338676D01*
X2500576Y2338592D01*
Y2153442D01*
X2501052Y2152294D01*
X2502200Y2151818D01*
X2961200D01*
X2962348Y2152294D01*
X2962823Y2153442D01*
Y2319428D01*
X3027172D01*
X3028320Y2319904D01*
X3059816Y2351400D01*
X3061372Y2352956D01*
X3176778D01*
X3177926Y2353432D01*
X3178401Y2354580D01*
Y2381399D01*
X3178278Y2381697D01*
X3178278Y2382020D01*
X3178050Y2382248D01*
X3177926Y2382547D01*
X3177628Y2382670D01*
X3177399Y2382899D01*
X3177145Y2383004D01*
X3176823Y2383004D01*
X3176524Y2383128D01*
X3162452D01*
X3162141Y2384303D01*
X3164359Y2385222D01*
X3166265Y2386684D01*
X3167726Y2388589D01*
X3168645Y2390807D01*
X3168959Y2393188D01*
X3168645Y2395569D01*
X3167726Y2397787D01*
X3166265Y2399693D01*
X3164359Y2401154D01*
X3162141Y2402073D01*
X3159760Y2402387D01*
X3157379Y2402073D01*
X3155161Y2401154D01*
X3153256Y2399693D01*
X3151794Y2397787D01*
X3150875Y2395569D01*
X3150561Y2393188D01*
X3150875Y2390807D01*
X3151794Y2388589D01*
X3153256Y2386684D01*
X3155161Y2385222D01*
X3157379Y2384303D01*
X3157068Y2383128D01*
X3111652D01*
X3111341Y2384303D01*
X3113559Y2385222D01*
X3115464Y2386684D01*
X3116926Y2388589D01*
X3117845Y2390807D01*
X3118159Y2393188D01*
X3117845Y2395569D01*
X3116926Y2397787D01*
X3115464Y2399693D01*
X3113559Y2401154D01*
X3111341Y2402073D01*
X3108960Y2402387D01*
X3106579Y2402073D01*
X3104361Y2401154D01*
X3102455Y2399693D01*
X3100994Y2397787D01*
X3100075Y2395569D01*
X3099761Y2393188D01*
X3100075Y2390807D01*
X3100994Y2388589D01*
X3102455Y2386684D01*
X3104361Y2385222D01*
X3106579Y2384303D01*
X3106268Y2383128D01*
X3004507D01*
Y2398014D01*
X3004232Y2400102D01*
X3003426Y2402048D01*
X3002144Y2403720D01*
X2975728Y2430136D01*
X2974056Y2431418D01*
X2972110Y2432224D01*
X2970022Y2432499D01*
D02*
G37*
G36*
X1045464Y2390070D02*
X1042984Y2389743D01*
X1040673Y2388786D01*
X1038689Y2387263D01*
X1037166Y2385279D01*
X1036208Y2382968D01*
X1035882Y2380488D01*
X1036208Y2378008D01*
X1037166Y2375697D01*
X1038689Y2373712D01*
X1040673Y2372190D01*
X1042984Y2371232D01*
X1045464Y2370906D01*
X1047944Y2371232D01*
X1050255Y2372190D01*
X1052240Y2373712D01*
X1053762Y2375697D01*
X1054719Y2378008D01*
X1055046Y2380488D01*
X1054719Y2382968D01*
X1053762Y2385279D01*
X1052240Y2387263D01*
X1050255Y2388786D01*
X1047944Y2389743D01*
X1045464Y2390070D01*
D02*
G37*
G36*
X1215136Y2279083D02*
X1213312Y2278720D01*
X1211766Y2277686D01*
X1210732Y2276140D01*
X1210369Y2274316D01*
X1210732Y2272492D01*
X1211766Y2270945D01*
X1213312Y2269912D01*
X1215009Y2269575D01*
X1250548Y2234036D01*
X1250548Y2234036D01*
X1251548Y2233367D01*
X1252728Y2233133D01*
X1368037D01*
X1435714Y2165456D01*
X1435714Y2165456D01*
X1436714Y2164787D01*
X1437894Y2164553D01*
X1437894Y2164553D01*
X1461510D01*
X1461702Y2164265D01*
X1463248Y2163232D01*
X1465072Y2162869D01*
X1466896Y2163232D01*
X1468443Y2164265D01*
X1469476Y2165812D01*
X1469839Y2167636D01*
X1469708Y2168293D01*
X1470806Y2169280D01*
X1472324Y2169582D01*
X1473871Y2170616D01*
X1474904Y2172162D01*
X1475267Y2173986D01*
X1475039Y2175128D01*
X1475413Y2176102D01*
X1475977Y2176426D01*
X1477325Y2176694D01*
X1478872Y2177728D01*
X1479905Y2179274D01*
X1480268Y2181098D01*
X1479935Y2182769D01*
X1480186Y2183294D01*
X1480716Y2183994D01*
X1482324Y2184314D01*
X1483870Y2185347D01*
X1484904Y2186894D01*
X1485267Y2188718D01*
X1484904Y2190542D01*
X1483870Y2192088D01*
X1482324Y2193122D01*
X1480500Y2193485D01*
X1478676Y2193122D01*
X1477130Y2192088D01*
X1476938Y2191801D01*
X1453903D01*
X1386734Y2258970D01*
X1385734Y2259639D01*
X1384554Y2259873D01*
X1384554Y2259873D01*
X1274832D01*
X1274641Y2260161D01*
X1273094Y2261194D01*
X1271270Y2261557D01*
X1269446Y2261194D01*
X1267899Y2260161D01*
X1266866Y2258614D01*
X1266503Y2256790D01*
X1266692Y2255840D01*
X1265522Y2255214D01*
X1252897Y2267839D01*
X1252923Y2267966D01*
X1252560Y2269790D01*
X1251526Y2271337D01*
X1249980Y2272370D01*
X1248156Y2272733D01*
X1246332Y2272370D01*
X1244786Y2271337D01*
X1243752Y2269790D01*
X1243389Y2267966D01*
X1243578Y2267019D01*
X1242834Y2265893D01*
X1242617Y2265834D01*
X1240998Y2265512D01*
X1239452Y2264478D01*
X1238418Y2262932D01*
X1238055Y2261108D01*
X1238418Y2259284D01*
X1239452Y2257737D01*
X1240998Y2256704D01*
X1242822Y2256341D01*
X1242949Y2256367D01*
X1257152Y2242164D01*
X1258152Y2241496D01*
X1259332Y2241261D01*
X1259332Y2241261D01*
X1371847D01*
X1441118Y2171989D01*
X1440969Y2171258D01*
X1440642Y2170719D01*
X1439171D01*
X1371494Y2238396D01*
X1370494Y2239064D01*
X1369314Y2239299D01*
X1369314Y2239299D01*
X1254005D01*
X1219751Y2273553D01*
X1219903Y2274316D01*
X1219540Y2276140D01*
X1218506Y2277686D01*
X1216960Y2278720D01*
X1215136Y2279083D01*
D02*
G37*
G36*
X1045464Y1695380D02*
X1042984Y1695054D01*
X1040673Y1694096D01*
X1038689Y1692573D01*
X1037166Y1690589D01*
X1036208Y1688278D01*
X1035882Y1685798D01*
X1036208Y1683318D01*
X1037166Y1681007D01*
X1038689Y1679023D01*
X1040673Y1677500D01*
X1042984Y1676543D01*
X1045464Y1676216D01*
X1047944Y1676543D01*
X1050255Y1677500D01*
X1052240Y1679023D01*
X1053762Y1681007D01*
X1054719Y1683318D01*
X1055046Y1685798D01*
X1054719Y1688278D01*
X1053762Y1690589D01*
X1052240Y1692573D01*
X1050255Y1694096D01*
X1047944Y1695054D01*
X1045464Y1695380D01*
D02*
G37*
G36*
Y2199570D02*
X1042984Y2199243D01*
X1040673Y2198286D01*
X1038689Y2196763D01*
X1037166Y2194779D01*
X1036208Y2192468D01*
X1035882Y2189988D01*
X1036208Y2187508D01*
X1037166Y2185197D01*
X1038689Y2183212D01*
X1040673Y2181690D01*
X1042984Y2180733D01*
X1045464Y2180406D01*
X1047944Y2180733D01*
X1050255Y2181690D01*
X1052240Y2183212D01*
X1053762Y2185197D01*
X1054719Y2187508D01*
X1055046Y2189988D01*
X1054719Y2192468D01*
X1053762Y2194779D01*
X1052240Y2196763D01*
X1050255Y2198286D01*
X1047944Y2199243D01*
X1045464Y2199570D01*
D02*
G37*
G36*
X1417203Y2289888D02*
X1415379Y2289525D01*
X1413833Y2288492D01*
X1412799Y2286945D01*
X1412437Y2285121D01*
X1412799Y2283297D01*
X1413833Y2281751D01*
Y2280572D01*
X1413696Y2280480D01*
X1412662Y2278934D01*
X1412299Y2277110D01*
X1412662Y2275286D01*
X1413696Y2273739D01*
X1415242Y2272706D01*
X1417066Y2272343D01*
X1418890Y2272706D01*
X1420437Y2273739D01*
X1420628Y2274027D01*
X1530089D01*
X1653159Y2150957D01*
X1653091Y2150618D01*
X1653454Y2148794D01*
X1654487Y2147247D01*
X1656034Y2146214D01*
X1656236Y2146174D01*
X1656605Y2144959D01*
X1655533Y2143887D01*
X1655195Y2143955D01*
X1653371Y2143592D01*
X1651824Y2142558D01*
X1650791Y2141012D01*
X1650428Y2139188D01*
X1650791Y2137364D01*
X1651824Y2135818D01*
X1653371Y2134784D01*
X1655195Y2134421D01*
X1657019Y2134784D01*
X1658565Y2135818D01*
X1659598Y2137364D01*
X1659961Y2139188D01*
X1659894Y2139527D01*
X1666237Y2145870D01*
X1666237Y2145870D01*
X1666906Y2146870D01*
X1667140Y2148050D01*
Y2154579D01*
X1667140Y2154579D01*
X1666906Y2155759D01*
X1666237Y2156759D01*
X1535695Y2287301D01*
X1534695Y2287970D01*
X1533515Y2288204D01*
X1533515Y2288204D01*
X1420766D01*
X1420574Y2288492D01*
X1419027Y2289525D01*
X1417203Y2289888D01*
D02*
G37*
G36*
X1965589Y2326798D02*
X1867291D01*
X1866143Y2326322D01*
X1865668Y2325174D01*
Y2224278D01*
X1866143Y2223130D01*
X1867291Y2222654D01*
X1945585D01*
Y2207768D01*
X1945898Y2206192D01*
X1946791Y2204855D01*
X2011879Y2139768D01*
Y2111176D01*
X1995688Y2094985D01*
X1922226D01*
X1922088Y2095192D01*
X1920103Y2096518D01*
X1917762Y2096983D01*
X1916648Y2096762D01*
X1916022Y2097932D01*
X1929934Y2111844D01*
X1931725Y2112200D01*
X1933710Y2113526D01*
X1935036Y2115511D01*
X1935502Y2117852D01*
X1935036Y2120193D01*
X1933710Y2122178D01*
X1931725Y2123504D01*
X1929384Y2123970D01*
X1927881Y2123671D01*
X1927386Y2124867D01*
X1927804Y2125146D01*
X1929130Y2127131D01*
X1929595Y2129472D01*
X1929130Y2131813D01*
X1927804Y2133798D01*
X1925819Y2135124D01*
X1923478Y2135589D01*
X1921137Y2135124D01*
X1919152Y2133798D01*
X1917826Y2131813D01*
X1917470Y2130022D01*
X1831650Y2044202D01*
X1831594Y2044214D01*
X1829253Y2043748D01*
X1827268Y2042422D01*
X1825942Y2040437D01*
X1825477Y2038096D01*
X1825942Y2035755D01*
X1827268Y2033770D01*
X1829253Y2032444D01*
X1831594Y2031978D01*
X1833935Y2032444D01*
X1834797Y2033020D01*
X1835712Y2032104D01*
X1835340Y2031547D01*
X1834875Y2029206D01*
X1835340Y2026865D01*
X1836666Y2024880D01*
X1838651Y2023554D01*
X1840992Y2023089D01*
X1843333Y2023554D01*
X1845318Y2024880D01*
X1846644Y2026865D01*
X1847063Y2028973D01*
X1910696Y2092606D01*
X1911866Y2091980D01*
X1911644Y2090866D01*
X1912110Y2088525D01*
X1913436Y2086540D01*
X1913643Y2086402D01*
Y2030414D01*
X1913956Y2028838D01*
X1914849Y2027501D01*
X1927675Y2014676D01*
X1927585Y2014220D01*
X1928050Y2011879D01*
X1929376Y2009894D01*
X1931361Y2008568D01*
X1933702Y2008103D01*
X1936043Y2008568D01*
X1938028Y2009894D01*
X1939354Y2011879D01*
X1939819Y2014220D01*
X1939354Y2016561D01*
X1938028Y2018546D01*
X1936043Y2019872D01*
X1933702Y2020338D01*
X1933670Y2020331D01*
X1921881Y2032120D01*
Y2086402D01*
X1922088Y2086540D01*
X1922226Y2086747D01*
X1931010D01*
X1931325Y2085477D01*
X1930082Y2083617D01*
X1929617Y2081276D01*
X1930082Y2078935D01*
X1931408Y2076950D01*
X1933393Y2075624D01*
X1935734Y2075159D01*
X1938075Y2075624D01*
X1940060Y2076950D01*
X1940890Y2078193D01*
X1962143D01*
X1999504Y2040832D01*
X1999212Y2039366D01*
X1999678Y2037025D01*
X2001004Y2035040D01*
X2002989Y2033714D01*
X2005330Y2033248D01*
X2007671Y2033714D01*
X2009656Y2035040D01*
X2010982Y2037025D01*
X2011447Y2039366D01*
X2010982Y2041707D01*
X2009656Y2043692D01*
X2007671Y2045018D01*
X2005330Y2045484D01*
X2003864Y2045192D01*
X1965600Y2083456D01*
X1964600Y2084124D01*
X1963420Y2084359D01*
X1963420Y2084359D01*
X1940890D01*
X1940143Y2085477D01*
X1940458Y2086747D01*
X1997394D01*
X1998970Y2087060D01*
X2000307Y2087953D01*
X2018911Y2106557D01*
X2019804Y2107894D01*
X2020117Y2109470D01*
Y2141474D01*
X2019804Y2143050D01*
X2018911Y2144387D01*
X1953823Y2209474D01*
Y2222654D01*
X1965589D01*
X1966737Y2223130D01*
X1967213Y2224278D01*
Y2325174D01*
X1966737Y2326322D01*
X1965589Y2326798D01*
D02*
G37*
G36*
X1860360Y2104984D02*
X1858019Y2104518D01*
X1856034Y2103192D01*
X1854819Y2101372D01*
X1849628D01*
X1849628Y2101372D01*
X1848547Y2101157D01*
X1847631Y2100545D01*
X1847631Y2100545D01*
X1800452Y2053366D01*
X1771137D01*
X1770134Y2054868D01*
X1768149Y2056194D01*
X1765808Y2056660D01*
X1763467Y2056194D01*
X1761482Y2054868D01*
X1760156Y2052883D01*
X1759691Y2050542D01*
X1760156Y2048201D01*
X1761482Y2046216D01*
X1763467Y2044890D01*
X1765808Y2044424D01*
X1768149Y2044890D01*
X1770134Y2046216D01*
X1771137Y2047718D01*
X1801622D01*
X1801622Y2047718D01*
X1802703Y2047933D01*
X1803619Y2048545D01*
X1850798Y2095724D01*
X1855243D01*
X1856034Y2094540D01*
X1858019Y2093214D01*
X1860360Y2092748D01*
X1862701Y2093214D01*
X1864686Y2094540D01*
X1866012Y2096525D01*
X1866478Y2098866D01*
X1866012Y2101207D01*
X1864686Y2103192D01*
X1862701Y2104518D01*
X1860360Y2104984D01*
D02*
G37*
G36*
X1045464Y2136070D02*
X1042984Y2135744D01*
X1040673Y2134786D01*
X1038689Y2133264D01*
X1037166Y2131279D01*
X1036208Y2128968D01*
X1035882Y2126488D01*
X1036208Y2124008D01*
X1037166Y2121697D01*
X1038689Y2119713D01*
X1040673Y2118190D01*
X1042984Y2117233D01*
X1045464Y2116906D01*
X1047944Y2117233D01*
X1050255Y2118190D01*
X1052240Y2119713D01*
X1053762Y2121697D01*
X1054719Y2124008D01*
X1055046Y2126488D01*
X1054719Y2128968D01*
X1053762Y2131279D01*
X1052240Y2133264D01*
X1050255Y2134786D01*
X1047944Y2135744D01*
X1045464Y2136070D01*
D02*
G37*
G36*
X3108960Y2249987D02*
X3106579Y2249673D01*
X3104361Y2248754D01*
X3102455Y2247292D01*
X3100994Y2245387D01*
X3100075Y2243169D01*
X3099761Y2240788D01*
X3100075Y2238407D01*
X3100994Y2236189D01*
X3102455Y2234283D01*
X3104361Y2232822D01*
X3106579Y2231903D01*
X3108960Y2231589D01*
X3111341Y2231903D01*
X3112857Y2232531D01*
X3135341Y2210047D01*
Y2195114D01*
X3134802Y2194787D01*
X3134071Y2194638D01*
X3117217Y2211491D01*
X3117845Y2213007D01*
X3118159Y2215388D01*
X3117845Y2217769D01*
X3116926Y2219987D01*
X3115464Y2221893D01*
X3113559Y2223354D01*
X3111341Y2224273D01*
X3108960Y2224587D01*
X3106579Y2224273D01*
X3104361Y2223354D01*
X3102455Y2221893D01*
X3100994Y2219987D01*
X3100075Y2217769D01*
X3099761Y2215388D01*
X3100075Y2213007D01*
X3100994Y2210789D01*
X3102455Y2208884D01*
X3104361Y2207422D01*
X3106579Y2206503D01*
X3108960Y2206189D01*
X3111341Y2206503D01*
X3112857Y2207131D01*
X3128991Y2190997D01*
Y2067567D01*
X3112739Y2051315D01*
X3104551D01*
X3104551Y2051315D01*
X3103371Y2051080D01*
X3102371Y2050412D01*
X3102371Y2050412D01*
X3084502Y2032543D01*
X2851617D01*
X2851131Y2033717D01*
X2852145Y2034731D01*
X2853408D01*
X2853408Y2034731D01*
X2854588Y2034966D01*
X2855588Y2035634D01*
X2855637Y2035683D01*
X2855976Y2035615D01*
X2857800Y2035978D01*
X2859347Y2037012D01*
X2860380Y2038558D01*
X2860742Y2040382D01*
X2860380Y2042206D01*
X2859347Y2043752D01*
X2857800Y2044786D01*
X2855976Y2045149D01*
X2854152Y2044786D01*
X2852606Y2043752D01*
X2851572Y2042206D01*
X2851508Y2041882D01*
X2850868Y2040898D01*
X2849688Y2040663D01*
X2848688Y2039995D01*
X2845960Y2037266D01*
X2841814D01*
X2841215Y2038386D01*
X2841330Y2038558D01*
X2841693Y2040382D01*
X2841330Y2042206D01*
X2840297Y2043752D01*
X2840009Y2043944D01*
Y2044446D01*
X2840009Y2044446D01*
X2839774Y2045626D01*
X2839106Y2046626D01*
X2839106Y2046626D01*
X2833264Y2052468D01*
X2833159Y2052539D01*
X2833544Y2053809D01*
X3062411D01*
X3062411Y2053809D01*
X3063591Y2054043D01*
X3064591Y2054712D01*
X3098649Y2088769D01*
X3099796Y2088121D01*
X3100075Y2086007D01*
X3100994Y2083789D01*
X3102455Y2081884D01*
X3104361Y2080422D01*
X3106579Y2079503D01*
X3108960Y2079189D01*
X3111341Y2079503D01*
X3113559Y2080422D01*
X3115464Y2081884D01*
X3116926Y2083789D01*
X3117845Y2086007D01*
X3118159Y2088388D01*
X3117845Y2090769D01*
X3116926Y2092987D01*
X3115464Y2094892D01*
X3114168Y2095887D01*
X3114157Y2095901D01*
X3114008Y2097387D01*
X3114062Y2097511D01*
X3121784Y2105234D01*
X3121784Y2105234D01*
X3122452Y2106234D01*
X3122687Y2107414D01*
Y2143597D01*
X3122452Y2144777D01*
X3121784Y2145777D01*
X3121784Y2145777D01*
X3112679Y2154882D01*
X3112977Y2156380D01*
X3113559Y2156622D01*
X3115464Y2158083D01*
X3116926Y2159989D01*
X3117845Y2162207D01*
X3118159Y2164588D01*
X3117845Y2166969D01*
X3116926Y2169187D01*
X3115464Y2171093D01*
X3113559Y2172554D01*
X3111341Y2173473D01*
X3108960Y2173787D01*
X3106579Y2173473D01*
X3104361Y2172554D01*
X3102455Y2171093D01*
X3100994Y2169187D01*
X3100075Y2166969D01*
X3099761Y2164588D01*
X3100075Y2162207D01*
X3100994Y2159989D01*
X3102455Y2158083D01*
X3104361Y2156622D01*
X3105877Y2155994D01*
Y2154241D01*
X3105877Y2154241D01*
X3106111Y2153061D01*
X3106780Y2152061D01*
X3109341Y2149499D01*
X3108693Y2148351D01*
X3106579Y2148073D01*
X3104361Y2147154D01*
X3102455Y2145692D01*
X3100994Y2143787D01*
X3100075Y2141569D01*
X3099761Y2139188D01*
X3100075Y2136807D01*
X3100703Y2135291D01*
X3045199Y2079787D01*
X2702058D01*
X2701866Y2080074D01*
X2700320Y2081108D01*
X2698496Y2081471D01*
X2696672Y2081108D01*
X2695125Y2080074D01*
X2694092Y2078528D01*
X2693729Y2076704D01*
X2694092Y2074880D01*
X2695125Y2073333D01*
X2696672Y2072300D01*
X2698496Y2071937D01*
X2700320Y2072300D01*
X2701866Y2073333D01*
X2702058Y2073621D01*
X3046476D01*
X3046476Y2073621D01*
X3047656Y2073855D01*
X3048656Y2074524D01*
X3105063Y2130931D01*
X3106579Y2130303D01*
X3108960Y2129989D01*
X3111341Y2130303D01*
X3113559Y2131222D01*
X3115251Y2132520D01*
X3116521Y2132166D01*
Y2108691D01*
X3109945Y2102115D01*
X3104551D01*
X3104551Y2102115D01*
X3103371Y2101880D01*
X3102371Y2101212D01*
X3061134Y2059975D01*
X2833839D01*
X2833240Y2061095D01*
X2833456Y2061418D01*
X2833819Y2063242D01*
X2833456Y2065066D01*
X2832422Y2066613D01*
X2830876Y2067646D01*
X2829052Y2068009D01*
X2827228Y2067646D01*
X2825681Y2066613D01*
X2825490Y2066325D01*
X2706547D01*
X2705677Y2067628D01*
X2704130Y2068662D01*
X2702306Y2069025D01*
X2700482Y2068662D01*
X2698936Y2067628D01*
X2697902Y2066082D01*
X2697539Y2064258D01*
X2697902Y2062434D01*
X2698628Y2061348D01*
X2698035Y2060078D01*
X2687169D01*
X2685989Y2059843D01*
X2684989Y2059175D01*
X2684989Y2059175D01*
X2670408Y2044594D01*
X2669739Y2043594D01*
X2669505Y2042414D01*
X2669505Y2042414D01*
Y2019272D01*
X2668235Y2018593D01*
X2667808Y2018878D01*
X2665984Y2019241D01*
X2664160Y2018878D01*
X2663837Y2018662D01*
X2662717Y2019261D01*
Y2058736D01*
X2664506Y2059092D01*
X2666053Y2060125D01*
X2667086Y2061672D01*
X2667449Y2063496D01*
X2667086Y2065320D01*
X2666053Y2066866D01*
X2664506Y2067900D01*
X2662682Y2068263D01*
X2660858Y2067900D01*
X2659312Y2066866D01*
X2658653Y2065881D01*
X2657383Y2066267D01*
Y2072463D01*
X2658687Y2073333D01*
X2659720Y2074880D01*
X2660083Y2076704D01*
X2659720Y2078528D01*
X2658687Y2080074D01*
X2657140Y2081108D01*
X2655316Y2081471D01*
X2653492Y2081108D01*
X2651945Y2080074D01*
X2650912Y2078528D01*
X2650549Y2076704D01*
X2650912Y2074880D01*
X2651217Y2074424D01*
Y1968610D01*
X2649947Y1967890D01*
X2648458Y1968187D01*
X2646634Y1967824D01*
X2645088Y1966790D01*
X2644054Y1965244D01*
X2643691Y1963420D01*
X2644054Y1961596D01*
X2645088Y1960049D01*
X2645121Y1960027D01*
Y1887467D01*
X2644745Y1886904D01*
X2644510Y1885724D01*
X2644510Y1885724D01*
Y1880588D01*
X2644510Y1880588D01*
X2644745Y1879408D01*
X2645121Y1878845D01*
Y1863598D01*
X2645121Y1863598D01*
X2645356Y1862418D01*
X2646024Y1861418D01*
X2659507Y1847935D01*
X2659439Y1847596D01*
X2659802Y1845772D01*
X2660836Y1844225D01*
X2662382Y1843192D01*
X2664206Y1842829D01*
X2666030Y1843192D01*
X2667577Y1844225D01*
X2668338Y1845365D01*
X2669608Y1844980D01*
Y1809388D01*
X2668488Y1808789D01*
X2668062Y1809074D01*
X2666238Y1809437D01*
X2665548Y1809299D01*
X2664784Y1810442D01*
X2664800Y1810466D01*
X2665163Y1812290D01*
X2664800Y1814114D01*
X2663766Y1815661D01*
X2663479Y1815852D01*
Y1832864D01*
X2663245Y1834044D01*
X2662576Y1835044D01*
X2662576Y1835044D01*
X2638587Y1859033D01*
Y1874897D01*
X2638587Y1874897D01*
X2638484Y1875415D01*
Y1879721D01*
X2638587Y1880239D01*
X2638587Y1880239D01*
Y1971868D01*
X2640376Y1972224D01*
X2641923Y1973257D01*
X2642956Y1974804D01*
X2643318Y1976628D01*
X2642956Y1978452D01*
X2641923Y1979998D01*
X2640376Y1981032D01*
X2638552Y1981395D01*
X2636728Y1981032D01*
X2635309Y1980084D01*
X2634722Y1980231D01*
X2634039Y1980575D01*
Y1986628D01*
X2634557Y1986974D01*
X2635590Y1988520D01*
X2635952Y1990344D01*
X2635590Y1992168D01*
X2634557Y1993714D01*
X2633010Y1994748D01*
X2631186Y1995111D01*
X2629362Y1994748D01*
X2627816Y1993714D01*
X2626782Y1992168D01*
X2626419Y1990344D01*
X2626782Y1988520D01*
X2627816Y1986974D01*
X2627873Y1986935D01*
Y1882537D01*
X2627770Y1882020D01*
X2627770Y1882019D01*
Y1873117D01*
X2627770Y1873116D01*
X2627873Y1872599D01*
Y1825030D01*
X2626603Y1824351D01*
X2625898Y1824822D01*
X2624074Y1825185D01*
X2622250Y1824822D01*
X2620703Y1823788D01*
X2620511Y1823501D01*
X2618747D01*
X2615840Y1826408D01*
X2614840Y1827077D01*
X2613660Y1827311D01*
X2613660Y1827311D01*
X2602827D01*
X2595372Y1834766D01*
X2594372Y1835435D01*
X2593192Y1835669D01*
X2593192Y1835669D01*
X1655095D01*
X1505747Y1985017D01*
Y2117083D01*
X1508929Y2120265D01*
X1509268Y2120197D01*
X1511092Y2120560D01*
X1512639Y2121593D01*
X1513672Y2123140D01*
X1514035Y2124964D01*
X1513672Y2126788D01*
X1512639Y2128335D01*
X1511092Y2129368D01*
X1509875Y2129610D01*
X1503602Y2135883D01*
X1502602Y2136552D01*
X1501422Y2136786D01*
X1501422Y2136786D01*
X1447450D01*
X1361080Y2223156D01*
X1360080Y2223824D01*
X1358900Y2224059D01*
X1358900Y2224059D01*
X1313942D01*
X1313942Y2224059D01*
X1312762Y2223824D01*
X1311762Y2223156D01*
X1311762Y2223156D01*
X1256277Y2167671D01*
X1054470D01*
X1053762Y2169379D01*
X1052240Y2171363D01*
X1050255Y2172886D01*
X1047944Y2173844D01*
X1045464Y2174170D01*
X1042984Y2173844D01*
X1040673Y2172886D01*
X1038689Y2171363D01*
X1037166Y2169379D01*
X1036208Y2167068D01*
X1035882Y2164588D01*
X1036208Y2162108D01*
X1037166Y2159797D01*
X1038689Y2157812D01*
X1040673Y2156290D01*
X1042984Y2155332D01*
X1045464Y2155006D01*
X1047944Y2155332D01*
X1050255Y2156290D01*
X1052240Y2157812D01*
X1053762Y2159797D01*
X1054470Y2161505D01*
X1257554D01*
X1257554Y2161505D01*
X1258734Y2161740D01*
X1259734Y2162408D01*
X1315219Y2217893D01*
X1357623D01*
X1443993Y2131523D01*
X1444993Y2130854D01*
X1446173Y2130620D01*
X1446173Y2130620D01*
X1493966D01*
X1494565Y2129500D01*
X1494450Y2129328D01*
X1494087Y2127504D01*
X1494155Y2127165D01*
X1490211Y2123221D01*
X1449839D01*
X1360826Y2212234D01*
X1359826Y2212903D01*
X1358646Y2213137D01*
X1358646Y2213137D01*
X1314450D01*
X1313270Y2212903D01*
X1312270Y2212234D01*
X1312270Y2212234D01*
X1204207Y2104171D01*
X1054470D01*
X1053762Y2105879D01*
X1052240Y2107863D01*
X1050255Y2109386D01*
X1047944Y2110343D01*
X1045464Y2110670D01*
X1042984Y2110343D01*
X1040673Y2109386D01*
X1038689Y2107863D01*
X1037166Y2105879D01*
X1036208Y2103568D01*
X1035882Y2101088D01*
X1036208Y2098608D01*
X1037166Y2096297D01*
X1038689Y2094312D01*
X1040673Y2092790D01*
X1042984Y2091832D01*
X1045464Y2091506D01*
X1047944Y2091832D01*
X1050255Y2092790D01*
X1052240Y2094312D01*
X1053762Y2096297D01*
X1054470Y2098005D01*
X1205484D01*
X1205484Y2098005D01*
X1206664Y2098239D01*
X1207664Y2098908D01*
X1315727Y2206971D01*
X1344282D01*
X1344961Y2205701D01*
X1344717Y2205336D01*
X1344397Y2205122D01*
X1344397Y2205122D01*
X1124066Y1984791D01*
X1064744D01*
Y1986395D01*
X1060057Y1991082D01*
X1050683D01*
X1045996Y1986395D01*
Y1977021D01*
X1050683Y1972334D01*
X1060057D01*
X1064744Y1977021D01*
Y1978625D01*
X1125343D01*
X1125343Y1978625D01*
X1126523Y1978860D01*
X1127523Y1979528D01*
X1341557Y2193561D01*
X1342772Y2193192D01*
X1342812Y2192990D01*
X1343846Y2191443D01*
X1343864Y2191251D01*
X1106784Y1954170D01*
X1106115Y1953170D01*
X1105881Y1951990D01*
X1105881Y1951990D01*
Y1943107D01*
X1071365Y1908591D01*
X1064744D01*
Y1910195D01*
X1060057Y1914882D01*
X1050683D01*
X1045996Y1910195D01*
Y1900821D01*
X1050683Y1896134D01*
X1060057D01*
X1064744Y1900821D01*
Y1902425D01*
X1072642D01*
X1072642Y1902425D01*
X1073822Y1902659D01*
X1074822Y1903328D01*
X1111144Y1939650D01*
X1111144Y1939650D01*
X1111813Y1940650D01*
X1112047Y1941830D01*
Y1950713D01*
X1349396Y2188062D01*
X1349396Y2188062D01*
X1350065Y2189062D01*
X1350299Y2190242D01*
Y2191252D01*
X1350587Y2191443D01*
X1351620Y2192990D01*
X1351983Y2194814D01*
X1351620Y2196638D01*
X1351068Y2197464D01*
X1350680Y2198290D01*
X1351392Y2199091D01*
X1352110Y2199572D01*
X1353144Y2201118D01*
X1353507Y2202942D01*
X1353144Y2204766D01*
X1352519Y2205701D01*
X1353198Y2206971D01*
X1357369D01*
X1446382Y2117958D01*
X1447382Y2117289D01*
X1448562Y2117055D01*
X1448562Y2117055D01*
X1491488D01*
X1491488Y2117055D01*
X1492668Y2117289D01*
X1493668Y2117958D01*
X1493859Y2118149D01*
X1495033Y2117663D01*
Y1981856D01*
X1495033Y1981856D01*
X1495267Y1980676D01*
X1495936Y1979676D01*
X1649754Y1825858D01*
X1649754Y1825858D01*
X1650754Y1825190D01*
X1651934Y1824955D01*
X2471193D01*
X2471445Y1823685D01*
X2470752Y1823398D01*
X2468582Y1821732D01*
X2466916Y1819562D01*
X2466823Y1819337D01*
X2445416D01*
Y1820218D01*
X2433416D01*
Y1819337D01*
X2419350D01*
X2417774Y1819024D01*
X2416437Y1818131D01*
X2411667Y1813360D01*
X2406492D01*
Y1812479D01*
X2401570D01*
X2399994Y1812166D01*
X2398657Y1811273D01*
X2393125Y1805740D01*
X2387950D01*
Y1804859D01*
X2382012D01*
X2380436Y1804546D01*
X2379099Y1803653D01*
X2367725Y1792278D01*
X2362550D01*
Y1782278D01*
X2374550D01*
Y1787453D01*
X2375607Y1788510D01*
X2376594Y1787700D01*
X2376592Y1787698D01*
X2376229Y1785874D01*
X2376592Y1784050D01*
X2377625Y1782504D01*
X2379172Y1781470D01*
X2380996Y1781107D01*
X2382820Y1781470D01*
X2384366Y1782504D01*
X2384558Y1782791D01*
X2387950D01*
Y1780740D01*
X2399950D01*
Y1790740D01*
X2387950D01*
Y1788957D01*
X2384558D01*
X2384366Y1789245D01*
X2382820Y1790278D01*
X2380996Y1790641D01*
X2379172Y1790278D01*
X2379170Y1790276D01*
X2378360Y1791263D01*
X2383718Y1796621D01*
X2387950D01*
Y1795740D01*
X2399950D01*
Y1800915D01*
X2403276Y1804241D01*
X2406492D01*
Y1803360D01*
X2418492D01*
Y1808535D01*
X2421056Y1811099D01*
X2433416D01*
Y1810218D01*
X2445416D01*
Y1811099D01*
X2466081D01*
X2466916Y1809082D01*
X2468582Y1806912D01*
X2470752Y1805246D01*
X2473280Y1804199D01*
X2475992Y1803842D01*
X2478704Y1804199D01*
X2481232Y1805246D01*
X2483402Y1806912D01*
X2485068Y1809082D01*
X2486115Y1811610D01*
X2486472Y1814322D01*
X2486115Y1817034D01*
X2485068Y1819562D01*
X2483402Y1821732D01*
X2481232Y1823398D01*
X2480539Y1823685D01*
X2480791Y1824955D01*
X2590031D01*
X2599171Y1815815D01*
X2598545Y1814645D01*
X2597912Y1814771D01*
X2596088Y1814408D01*
X2594542Y1813374D01*
X2593508Y1811828D01*
X2593145Y1810004D01*
X2593508Y1808180D01*
X2594542Y1806633D01*
X2594829Y1806442D01*
Y1785620D01*
X2594829Y1785620D01*
X2595063Y1784440D01*
X2595732Y1783440D01*
X2615911Y1763261D01*
Y1651762D01*
X2615911Y1651762D01*
X2616146Y1650582D01*
X2616814Y1649582D01*
X2622886Y1643510D01*
X2622886Y1643510D01*
X2623886Y1642841D01*
X2625066Y1642607D01*
X2625066Y1642607D01*
X2628149D01*
X2628341Y1642319D01*
X2629888Y1641286D01*
X2631712Y1640923D01*
X2633536Y1641286D01*
X2635082Y1642319D01*
X2636115Y1643866D01*
X2636478Y1645690D01*
X2636115Y1647514D01*
X2635082Y1649061D01*
X2633536Y1650094D01*
X2631712Y1650457D01*
X2629888Y1650094D01*
X2628341Y1649061D01*
X2628149Y1648773D01*
X2626343D01*
X2622077Y1653039D01*
Y1739082D01*
X2623347Y1739761D01*
X2624028Y1739306D01*
X2625852Y1738943D01*
X2627676Y1739306D01*
X2629222Y1740340D01*
X2629373Y1740564D01*
X2630643Y1740179D01*
Y1734826D01*
X2630356Y1734635D01*
X2629322Y1733088D01*
X2628959Y1731264D01*
X2629322Y1729440D01*
X2630356Y1727894D01*
X2631902Y1726860D01*
X2633726Y1726497D01*
X2635550Y1726860D01*
X2637097Y1727894D01*
X2638130Y1729440D01*
X2638493Y1731264D01*
X2638130Y1733088D01*
X2637097Y1734635D01*
X2636809Y1734826D01*
Y1743231D01*
X2638079Y1743356D01*
X2638243Y1742530D01*
X2638912Y1741530D01*
X2657313Y1723129D01*
Y1717046D01*
X2657025Y1716855D01*
X2655992Y1715308D01*
X2655629Y1713484D01*
X2655992Y1711660D01*
X2657025Y1710114D01*
X2658572Y1709080D01*
X2660396Y1708717D01*
X2662220Y1709080D01*
X2663766Y1710114D01*
X2664800Y1711660D01*
X2665163Y1713484D01*
X2664800Y1715308D01*
X2663766Y1716855D01*
X2663479Y1717046D01*
Y1724406D01*
X2663245Y1725586D01*
X2662576Y1726586D01*
X2662576Y1726586D01*
X2644175Y1744987D01*
Y1746458D01*
X2644714Y1746785D01*
X2645445Y1746934D01*
X2648818Y1743562D01*
X2648818Y1743562D01*
X2649818Y1742894D01*
X2650998Y1742659D01*
X2650998Y1742659D01*
X2655564D01*
X2655756Y1742372D01*
X2657302Y1741338D01*
X2659126Y1740975D01*
X2660950Y1741338D01*
X2662497Y1742372D01*
X2663530Y1743918D01*
X2663893Y1745742D01*
X2663530Y1747566D01*
X2662497Y1749113D01*
X2660950Y1750146D01*
X2659126Y1750509D01*
X2657302Y1750146D01*
X2655756Y1749113D01*
X2655564Y1748825D01*
X2652275D01*
X2650525Y1750575D01*
Y1764785D01*
X2658533Y1772793D01*
X2658872Y1772725D01*
X2660696Y1773088D01*
X2662242Y1774122D01*
X2663276Y1775668D01*
X2663639Y1777492D01*
X2663276Y1779316D01*
X2662242Y1780862D01*
X2660696Y1781896D01*
X2658872Y1782259D01*
X2657048Y1781896D01*
X2655501Y1780862D01*
X2654468Y1779316D01*
X2654106Y1777492D01*
X2654173Y1777153D01*
X2645445Y1768426D01*
X2644714Y1768575D01*
X2644175Y1768902D01*
Y1778755D01*
X2648457Y1783037D01*
X2649220Y1782885D01*
X2651044Y1783248D01*
X2652591Y1784281D01*
X2653624Y1785828D01*
X2653987Y1787652D01*
X2653624Y1789476D01*
X2652591Y1791022D01*
X2651044Y1792056D01*
X2649220Y1792419D01*
X2647396Y1792056D01*
X2645850Y1791022D01*
X2644816Y1789476D01*
X2644479Y1787779D01*
X2638912Y1782212D01*
X2638243Y1781212D01*
X2638079Y1780386D01*
X2636809Y1780511D01*
Y1785620D01*
X2636809Y1785620D01*
X2636574Y1786800D01*
X2635906Y1787800D01*
X2635906Y1787800D01*
X2603735Y1819971D01*
X2604221Y1821145D01*
X2612383D01*
X2615290Y1818238D01*
X2616290Y1817569D01*
X2617470Y1817335D01*
X2617470Y1817335D01*
X2620511D01*
X2620703Y1817047D01*
X2622250Y1816014D01*
X2624074Y1815651D01*
X2625898Y1816014D01*
X2626603Y1816485D01*
X2627873Y1815806D01*
Y1809726D01*
X2627873Y1809726D01*
X2628108Y1808546D01*
X2628776Y1807546D01*
X2636372Y1799950D01*
X2636372Y1799950D01*
X2637372Y1799281D01*
X2638552Y1799047D01*
X2638552Y1799047D01*
X2664206D01*
X2665386Y1799281D01*
X2666350Y1799926D01*
X2668062Y1800266D01*
X2668488Y1800551D01*
X2669608Y1799952D01*
Y1684384D01*
X2654335Y1669112D01*
X2653065Y1669638D01*
Y1716018D01*
X2653352Y1716210D01*
X2654386Y1717756D01*
X2654749Y1719580D01*
X2654386Y1721404D01*
X2653352Y1722950D01*
X2651806Y1723984D01*
X2649982Y1724347D01*
X2648158Y1723984D01*
X2646612Y1722950D01*
X2645578Y1721404D01*
X2645215Y1719580D01*
X2645578Y1717756D01*
X2646612Y1716210D01*
X2646899Y1716018D01*
Y1639563D01*
X2646523Y1639000D01*
X2646288Y1637820D01*
X2646288Y1637820D01*
Y1608431D01*
X2646288Y1608431D01*
X2646523Y1607251D01*
X2647191Y1606251D01*
X2669646Y1583796D01*
X2669646Y1583796D01*
X2670646Y1583127D01*
X2671826Y1582893D01*
X2671826Y1582893D01*
X2794508D01*
X2794508Y1582893D01*
X2795688Y1583127D01*
X2796688Y1583796D01*
X2817121Y1604229D01*
X3158490D01*
X3158490Y1604229D01*
X3159670Y1604464D01*
X3160670Y1605132D01*
X3162307Y1606769D01*
X3162554Y1606934D01*
X3182514Y1626894D01*
X3182514Y1626894D01*
X3183182Y1627894D01*
X3183417Y1629074D01*
X3183417Y1629074D01*
Y2093214D01*
X3183417Y2093214D01*
X3183182Y2094394D01*
X3182514Y2095394D01*
X3168017Y2109891D01*
X3168645Y2111407D01*
X3168959Y2113788D01*
X3168645Y2116169D01*
X3167726Y2118387D01*
X3166265Y2120293D01*
X3164359Y2121754D01*
X3162141Y2122673D01*
X3159760Y2122987D01*
X3157379Y2122673D01*
X3155161Y2121754D01*
X3153256Y2120293D01*
X3151794Y2118387D01*
X3150875Y2116169D01*
X3150561Y2113788D01*
X3150875Y2111407D01*
X3151794Y2109189D01*
X3153256Y2107283D01*
X3155161Y2105822D01*
X3157379Y2104903D01*
X3159760Y2104589D01*
X3162141Y2104903D01*
X3163657Y2105531D01*
X3177251Y2091937D01*
Y1630351D01*
X3175446Y1628547D01*
X3174273Y1629033D01*
Y1812611D01*
X3174273Y1812611D01*
X3174038Y1813791D01*
X3173370Y1814791D01*
X3173370Y1814791D01*
X3166349Y1821812D01*
X3165349Y1822480D01*
X3164169Y1822715D01*
X3164169Y1822715D01*
X3150393D01*
X3117217Y1855891D01*
X3117845Y1857407D01*
X3118159Y1859788D01*
X3117845Y1862169D01*
X3116926Y1864387D01*
X3115464Y1866293D01*
X3113559Y1867754D01*
X3111341Y1868673D01*
X3108960Y1868987D01*
X3106579Y1868673D01*
X3104361Y1867754D01*
X3102455Y1866293D01*
X3100994Y1864387D01*
X3100075Y1862169D01*
X3099761Y1859788D01*
X3100075Y1857407D01*
X3100994Y1855189D01*
X3102455Y1853284D01*
X3104361Y1851822D01*
X3106579Y1850903D01*
X3108960Y1850589D01*
X3111341Y1850903D01*
X3112857Y1851531D01*
X3146936Y1817452D01*
X3146936Y1817452D01*
X3147936Y1816783D01*
X3149116Y1816549D01*
X3149116Y1816549D01*
X3152738D01*
X3153092Y1815279D01*
X3151794Y1813587D01*
X3150875Y1811369D01*
X3150561Y1808988D01*
X3150875Y1806607D01*
X3151503Y1805091D01*
X3131164Y1784752D01*
X3130496Y1783752D01*
X3130261Y1782572D01*
X3130261Y1782572D01*
Y1735589D01*
X3116319Y1721647D01*
X3031236D01*
X3031236Y1721647D01*
X3030056Y1721413D01*
X3029056Y1720744D01*
X3029056Y1720744D01*
X3013957Y1705645D01*
X2990770D01*
X2990385Y1706915D01*
X2990490Y1706986D01*
X3013971Y1730467D01*
X3034538D01*
X3034538Y1730467D01*
X3035718Y1730701D01*
X3036718Y1731370D01*
X3046737Y1741389D01*
X3111500D01*
X3111500Y1741389D01*
X3112680Y1741624D01*
X3113680Y1742292D01*
X3123586Y1752198D01*
X3123586Y1752198D01*
X3124254Y1753198D01*
X3124489Y1754378D01*
Y1771142D01*
X3124489Y1771142D01*
X3124254Y1772322D01*
X3123586Y1773322D01*
X3123586Y1773322D01*
X3117217Y1779691D01*
X3117845Y1781207D01*
X3118159Y1783588D01*
X3117845Y1785969D01*
X3116926Y1788187D01*
X3115464Y1790092D01*
X3113559Y1791554D01*
X3111341Y1792473D01*
X3108960Y1792787D01*
X3106579Y1792473D01*
X3104361Y1791554D01*
X3102455Y1790092D01*
X3100994Y1788187D01*
X3100075Y1785969D01*
X3099761Y1783588D01*
X3100075Y1781207D01*
X3100994Y1778989D01*
X3102455Y1777083D01*
X3104361Y1775622D01*
X3106579Y1774703D01*
X3108960Y1774389D01*
X3111341Y1774703D01*
X3112857Y1775331D01*
X3118323Y1769865D01*
Y1762735D01*
X3117053Y1762482D01*
X3116926Y1762787D01*
X3115464Y1764693D01*
X3113559Y1766154D01*
X3111341Y1767073D01*
X3108960Y1767387D01*
X3106579Y1767073D01*
X3104361Y1766154D01*
X3102455Y1764693D01*
X3100994Y1762787D01*
X3100075Y1760569D01*
X3099900Y1759239D01*
X2965711D01*
X2890922Y1834028D01*
X2889922Y1834697D01*
X2888742Y1834931D01*
X2888742Y1834931D01*
X2843883D01*
X2843138Y1836201D01*
X2843156Y1836233D01*
X2843405Y1836385D01*
X2867660D01*
X2867660Y1836385D01*
X2868840Y1836620D01*
X2869840Y1837288D01*
X2948347Y1915795D01*
X2948686Y1915727D01*
X2950510Y1916090D01*
X2952057Y1917124D01*
X2953090Y1918670D01*
X2953452Y1920494D01*
X2953090Y1922318D01*
X2952057Y1923864D01*
X2950510Y1924898D01*
X2948686Y1925261D01*
X2946862Y1924898D01*
X2945316Y1923864D01*
X2944282Y1922318D01*
X2943919Y1920494D01*
X2943987Y1920155D01*
X2866383Y1842551D01*
X2842267D01*
X2842075Y1842838D01*
X2840528Y1843872D01*
X2838704Y1844235D01*
X2836880Y1843872D01*
X2835334Y1842838D01*
X2834300Y1841292D01*
X2833937Y1839468D01*
X2834300Y1837644D01*
X2834425Y1837458D01*
X2833438Y1836648D01*
X2781342Y1888744D01*
X2798071Y1905473D01*
X2834651D01*
X2835464Y1904231D01*
X2835405Y1903780D01*
X2834554Y1902506D01*
X2834191Y1900682D01*
X2834259Y1900343D01*
X2811519Y1877603D01*
X2809500D01*
X2809308Y1877890D01*
X2807762Y1878924D01*
X2805938Y1879287D01*
X2804114Y1878924D01*
X2802567Y1877890D01*
X2801534Y1876344D01*
X2801171Y1874520D01*
X2801534Y1872696D01*
X2802567Y1871149D01*
X2804114Y1870116D01*
X2805938Y1869753D01*
X2807762Y1870116D01*
X2809308Y1871149D01*
X2809500Y1871437D01*
X2812796D01*
X2812796Y1871437D01*
X2813976Y1871671D01*
X2814976Y1872340D01*
X2838619Y1895983D01*
X2838958Y1895915D01*
X2840782Y1896278D01*
X2842328Y1897312D01*
X2843362Y1898858D01*
X2843725Y1900682D01*
X2843362Y1902506D01*
X2842511Y1903780D01*
X2842402Y1904619D01*
X2842511Y1905458D01*
X2843362Y1906732D01*
X2843725Y1908556D01*
X2843362Y1910380D01*
X2843146Y1910703D01*
X2843745Y1911823D01*
X2894069D01*
X2894965Y1910927D01*
X2894897Y1910588D01*
X2895260Y1908764D01*
X2896294Y1907218D01*
X2897840Y1906184D01*
X2899664Y1905821D01*
X2901488Y1906184D01*
X2903034Y1907218D01*
X2904068Y1908764D01*
X2904431Y1910588D01*
X2904068Y1912412D01*
X2903034Y1913958D01*
X2901488Y1914992D01*
X2899664Y1915355D01*
X2899325Y1915287D01*
X2898217Y1916395D01*
X2898744Y1917665D01*
X2926080D01*
X2926080Y1917665D01*
X2927260Y1917899D01*
X2928260Y1918568D01*
X2929043Y1919351D01*
X2929382Y1919283D01*
X2931206Y1919646D01*
X2932752Y1920679D01*
X2933786Y1922226D01*
X2934149Y1924050D01*
X2933786Y1925874D01*
X2933161Y1926809D01*
X2933840Y1928079D01*
X3001264D01*
X3001264Y1928079D01*
X3002444Y1928313D01*
X3003444Y1928982D01*
X3096013Y2021551D01*
X3104413D01*
X3104666Y2020281D01*
X3104361Y2020154D01*
X3102455Y2018692D01*
X3100994Y2016787D01*
X3100075Y2014569D01*
X3099761Y2012188D01*
X3100075Y2009807D01*
X3100994Y2007589D01*
X3102455Y2005683D01*
X3104361Y2004222D01*
X3106579Y2003303D01*
X3108960Y2002989D01*
X3111341Y2003303D01*
X3113559Y2004222D01*
X3115464Y2005683D01*
X3116926Y2007589D01*
X3117845Y2009807D01*
X3118159Y2012188D01*
X3117845Y2014569D01*
X3116926Y2016787D01*
X3115464Y2018692D01*
X3113559Y2020154D01*
X3112541Y2020576D01*
X3112444Y2020966D01*
X3112507Y2021965D01*
X3113239Y2022454D01*
X3140604Y2049819D01*
X3141273Y2050819D01*
X3141507Y2051999D01*
X3141507Y2051999D01*
Y2211324D01*
X3141507Y2211324D01*
X3141273Y2212504D01*
X3140604Y2213504D01*
X3140604Y2213504D01*
X3117217Y2236891D01*
X3117845Y2238407D01*
X3118159Y2240788D01*
X3117845Y2243169D01*
X3116926Y2245387D01*
X3115464Y2247292D01*
X3113559Y2248754D01*
X3111341Y2249673D01*
X3108960Y2249987D01*
D02*
G37*
G36*
X2997200Y2238749D02*
X2994558Y2238401D01*
X2992096Y2237382D01*
X2989982Y2235760D01*
X2988360Y2233646D01*
X2987340Y2231184D01*
X2986993Y2228542D01*
X2987340Y2225900D01*
X2988360Y2223438D01*
X2989982Y2221324D01*
X2992096Y2219702D01*
X2994558Y2218683D01*
X2997200Y2218335D01*
X2999842Y2218683D01*
X3002304Y2219702D01*
X3004418Y2221324D01*
X3006040Y2223438D01*
X3007060Y2225900D01*
X3007407Y2228542D01*
X3007060Y2231184D01*
X3006040Y2233646D01*
X3004418Y2235760D01*
X3002304Y2237382D01*
X2999842Y2238401D01*
X2997200Y2238749D01*
D02*
G37*
G36*
X3159760Y2224587D02*
X3157379Y2224273D01*
X3155161Y2223354D01*
X3153256Y2221893D01*
X3151794Y2219987D01*
X3150875Y2217769D01*
X3150561Y2215388D01*
X3150875Y2213007D01*
X3151794Y2210789D01*
X3153256Y2208884D01*
X3155161Y2207422D01*
X3157379Y2206503D01*
X3159760Y2206189D01*
X3162141Y2206503D01*
X3164359Y2207422D01*
X3166265Y2208884D01*
X3167726Y2210789D01*
X3168645Y2213007D01*
X3168959Y2215388D01*
X3168645Y2217769D01*
X3167726Y2219987D01*
X3166265Y2221893D01*
X3164359Y2223354D01*
X3162141Y2224273D01*
X3159760Y2224587D01*
D02*
G37*
G36*
Y2199187D02*
X3157379Y2198873D01*
X3155161Y2197954D01*
X3153256Y2196492D01*
X3151794Y2194587D01*
X3150875Y2192369D01*
X3150561Y2189988D01*
X3150875Y2187607D01*
X3151794Y2185389D01*
X3153256Y2183483D01*
X3155161Y2182022D01*
X3157379Y2181103D01*
X3159760Y2180789D01*
X3162141Y2181103D01*
X3164359Y2182022D01*
X3166265Y2183483D01*
X3167726Y2185389D01*
X3168645Y2187607D01*
X3168959Y2189988D01*
X3168645Y2192369D01*
X3167726Y2194587D01*
X3166265Y2196492D01*
X3164359Y2197954D01*
X3162141Y2198873D01*
X3159760Y2199187D01*
D02*
G37*
G36*
X1045464Y1669980D02*
X1042984Y1669653D01*
X1040673Y1668696D01*
X1038689Y1667173D01*
X1037166Y1665189D01*
X1036208Y1662878D01*
X1035882Y1660398D01*
X1036208Y1657918D01*
X1037166Y1655607D01*
X1038689Y1653623D01*
X1040673Y1652100D01*
X1042984Y1651142D01*
X1045464Y1650816D01*
X1047944Y1651142D01*
X1050255Y1652100D01*
X1052240Y1653623D01*
X1053762Y1655607D01*
X1054719Y1657918D01*
X1055046Y1660398D01*
X1054719Y1662878D01*
X1053762Y1665189D01*
X1052240Y1667173D01*
X1050255Y1668696D01*
X1047944Y1669653D01*
X1045464Y1669980D01*
D02*
G37*
%LPD*%
G36*
X1747152Y1947803D02*
X1746734Y1946425D01*
X1746509Y1946380D01*
X1599049Y2093841D01*
X1597712Y2094734D01*
X1596136Y2095047D01*
X1532782D01*
X1532644Y2095254D01*
X1530659Y2096580D01*
X1528761Y2096958D01*
X1528232Y2098225D01*
X1533580Y2103573D01*
X1591382D01*
X1747152Y1947803D01*
D02*
G37*
G36*
X3176524Y2381504D02*
X3176778Y2381399D01*
Y2354580D01*
X3060700D01*
X3058668Y2352548D01*
X3027172Y2321052D01*
X2962823D01*
Y2378442D01*
X2962348Y2379590D01*
X2961688Y2379864D01*
X2961573Y2380234D01*
X2962509Y2381504D01*
X3176524D01*
D02*
G37*
G36*
X1445874Y2178918D02*
X1445874Y2178918D01*
X1446010Y2177299D01*
X1445961Y2177234D01*
X1444648Y2177180D01*
X1376661Y2245167D01*
X1377147Y2246341D01*
X1378451D01*
X1445874Y2178918D01*
D02*
G37*
G36*
X1450446Y2186538D02*
X1450446Y2186538D01*
X1451446Y2185869D01*
X1452626Y2185635D01*
X1470323D01*
X1471067Y2184365D01*
X1471049Y2184333D01*
X1470800Y2184181D01*
X1449331D01*
X1381908Y2251604D01*
X1380908Y2252272D01*
X1380082Y2252437D01*
X1380207Y2253707D01*
X1383277D01*
X1450446Y2186538D01*
D02*
G37*
G36*
X1533281Y2280995D02*
X1532546Y2279958D01*
X1531366Y2280193D01*
X1531366Y2280193D01*
X1421640D01*
X1421034Y2281463D01*
X1421499Y2282038D01*
X1532238D01*
X1533281Y2280995D01*
D02*
G37*
G36*
X1924342Y2123217D02*
X1924606Y2122834D01*
X1924885Y2121919D01*
X1923732Y2120193D01*
X1923376Y2118402D01*
X1840125Y2035151D01*
X1838651Y2034858D01*
X1837789Y2034282D01*
X1836874Y2035198D01*
X1837246Y2035755D01*
X1837476Y2036912D01*
X1923807Y2123244D01*
X1924342Y2123217D01*
D02*
G37*
G36*
X1965589Y2224278D02*
X1867291D01*
Y2325174D01*
X1965589D01*
Y2224278D01*
D02*
G37*
G36*
X2630643Y1784343D02*
Y1748293D01*
X2629373Y1747673D01*
X2628935Y1748014D01*
Y1773682D01*
X2628935Y1773682D01*
X2628701Y1774862D01*
X2628032Y1775862D01*
X2628032Y1775862D01*
X2623763Y1780131D01*
X2623848Y1781461D01*
X2623889Y1781487D01*
X2624922Y1783034D01*
X2625285Y1784858D01*
X2624922Y1786682D01*
X2623889Y1788228D01*
X2622342Y1789262D01*
X2620518Y1789625D01*
X2618694Y1789262D01*
X2617148Y1788228D01*
X2616114Y1786682D01*
X2615751Y1784858D01*
X2616114Y1783034D01*
X2617148Y1781487D01*
X2617435Y1781296D01*
Y1779016D01*
X2617435Y1779016D01*
X2617669Y1777836D01*
X2618338Y1776836D01*
X2622769Y1772405D01*
Y1766618D01*
X2621499Y1766232D01*
X2621174Y1766718D01*
X2621174Y1766718D01*
X2600995Y1786897D01*
Y1806442D01*
X2601282Y1806633D01*
X2602316Y1808180D01*
X2602679Y1810004D01*
X2602553Y1810637D01*
X2603723Y1811263D01*
X2630643Y1784343D01*
D02*
G37*
G36*
X3102455Y1751684D02*
X3104361Y1750222D01*
X3106579Y1749303D01*
X3108768Y1749015D01*
X3109187Y1748475D01*
X3109495Y1747779D01*
X3109356Y1747555D01*
X3045460D01*
X3045460Y1747555D01*
X3044280Y1747321D01*
X3043280Y1746652D01*
X3043280Y1746652D01*
X3036413Y1739785D01*
X3035243Y1740411D01*
X3035495Y1741678D01*
X3035132Y1743502D01*
X3034099Y1745049D01*
X3032552Y1746082D01*
X3030728Y1746445D01*
X3030389Y1746377D01*
X3024867Y1751899D01*
X3025353Y1753073D01*
X3101389D01*
X3102455Y1751684D01*
D02*
G37*
G36*
X2657313Y1831587D02*
Y1815852D01*
X2657025Y1815661D01*
X2655992Y1814114D01*
X2655991Y1814106D01*
X2654665Y1813949D01*
X2653860Y1815152D01*
X2653573Y1815344D01*
Y1823206D01*
X2653860Y1823398D01*
X2654894Y1824944D01*
X2655257Y1826768D01*
X2654894Y1828592D01*
X2653860Y1830139D01*
X2652314Y1831172D01*
X2650490Y1831535D01*
X2648666Y1831172D01*
X2647119Y1830139D01*
X2646086Y1828592D01*
X2645723Y1826768D01*
X2646086Y1824944D01*
X2647119Y1823398D01*
X2647407Y1823206D01*
Y1815344D01*
X2647119Y1815152D01*
X2646086Y1813606D01*
X2645723Y1811782D01*
X2646086Y1809958D01*
X2647119Y1808412D01*
X2648666Y1807378D01*
X2650490Y1807015D01*
X2652314Y1807378D01*
X2653860Y1808412D01*
X2654894Y1809958D01*
X2654895Y1809966D01*
X2656222Y1810123D01*
X2657025Y1808920D01*
X2658572Y1807886D01*
X2660396Y1807523D01*
X2661086Y1807661D01*
X2661850Y1806518D01*
X2661834Y1806494D01*
X2661580Y1805213D01*
X2639829D01*
X2634039Y1811003D01*
Y1853201D01*
X2635213Y1853687D01*
X2657313Y1831587D01*
D02*
G37*
G36*
X3102870Y1714211D02*
X3102455Y1713893D01*
X3100994Y1711987D01*
X3100075Y1709769D01*
X3099761Y1707388D01*
X3100075Y1705007D01*
X3100994Y1702789D01*
X3102455Y1700883D01*
X3103864Y1699803D01*
X3103432Y1698533D01*
X3017455D01*
X3017278Y1698763D01*
X3017414Y1700382D01*
X3032513Y1715481D01*
X3102439D01*
X3102870Y1714211D01*
D02*
G37*
G36*
X3026029Y1742017D02*
X3025961Y1741678D01*
X3026324Y1739854D01*
X3027357Y1738307D01*
X3027963Y1737903D01*
X3027577Y1736633D01*
X3012694D01*
X3012694Y1736633D01*
X3011514Y1736398D01*
X3010514Y1735730D01*
X2987287Y1712503D01*
X2858756D01*
X2858415Y1712941D01*
X2859035Y1714211D01*
X2951480D01*
X2951480Y1714211D01*
X2952660Y1714445D01*
X2953660Y1715114D01*
X2970953Y1732407D01*
X2971292Y1732339D01*
X2973116Y1732702D01*
X2974662Y1733736D01*
X2975696Y1735282D01*
X2976059Y1737106D01*
X2975696Y1738930D01*
X2974662Y1740477D01*
X2973116Y1741510D01*
X2971292Y1741873D01*
X2970668Y1743043D01*
X2975720Y1748096D01*
X3019950D01*
X3026029Y1742017D01*
D02*
G37*
G36*
X2683424Y1845264D02*
X2684457Y1843717D01*
X2686004Y1842684D01*
X2687828Y1842321D01*
X2688452Y1841151D01*
X2687831Y1840529D01*
X2687162Y1839529D01*
X2686928Y1838349D01*
X2686928Y1838349D01*
Y1766534D01*
X2685964Y1765092D01*
X2685602Y1763268D01*
X2685964Y1761444D01*
X2686997Y1759897D01*
X2687285Y1759706D01*
Y1720596D01*
X2687285Y1720596D01*
X2687520Y1719416D01*
X2688188Y1718416D01*
X2701650Y1704954D01*
X2713701Y1692903D01*
Y1685139D01*
X2712431Y1684753D01*
X2712026Y1685358D01*
X2710480Y1686392D01*
X2708656Y1686755D01*
X2706832Y1686392D01*
X2705286Y1685358D01*
X2704252Y1683812D01*
X2704149Y1683293D01*
X2697486D01*
X2697295Y1683580D01*
X2695748Y1684614D01*
X2693924Y1684977D01*
X2692100Y1684614D01*
X2690554Y1683580D01*
X2689520Y1682034D01*
X2689157Y1680210D01*
X2689520Y1678386D01*
X2690554Y1676839D01*
X2692100Y1675806D01*
X2693924Y1675443D01*
X2695748Y1675806D01*
X2697295Y1676839D01*
X2697486Y1677127D01*
X2706878D01*
X2706878Y1677127D01*
X2708005Y1677351D01*
X2708656Y1677221D01*
X2710480Y1677584D01*
X2712026Y1678618D01*
X2712431Y1679223D01*
X2713701Y1678837D01*
Y1648598D01*
X2709675Y1644572D01*
X2709006Y1643572D01*
X2708772Y1642392D01*
X2708772Y1642392D01*
Y1637256D01*
X2708772Y1637256D01*
X2709006Y1636076D01*
X2709675Y1635076D01*
X2711977Y1632774D01*
Y1631504D01*
X2711556Y1631082D01*
X2710887Y1630082D01*
X2710653Y1628902D01*
X2710887Y1627722D01*
X2711556Y1626722D01*
X2712556Y1626053D01*
X2713736Y1625819D01*
X2713736Y1625819D01*
X2714492D01*
X2714684Y1625531D01*
X2716230Y1624498D01*
X2718054Y1624135D01*
X2719878Y1624498D01*
X2721425Y1625531D01*
X2722458Y1627078D01*
X2722821Y1628902D01*
X2722458Y1630726D01*
X2721425Y1632272D01*
X2719878Y1633306D01*
X2719547Y1634250D01*
X2719878Y1635420D01*
X2721425Y1636454D01*
X2722458Y1638000D01*
X2722821Y1639824D01*
X2722753Y1640163D01*
X2725822Y1643232D01*
X2726490Y1644232D01*
X2726725Y1645412D01*
X2726725Y1645412D01*
Y1695189D01*
X2727854Y1696318D01*
X2728523Y1697318D01*
X2728757Y1698498D01*
X2728757Y1698498D01*
Y1713484D01*
X2728757Y1713484D01*
X2728523Y1714664D01*
X2727854Y1715664D01*
X2727854Y1715664D01*
X2724806Y1718712D01*
X2723806Y1719380D01*
X2722626Y1719615D01*
X2722626Y1719615D01*
X2720600D01*
X2720409Y1719902D01*
X2718862Y1720936D01*
X2717038Y1721299D01*
X2715214Y1720936D01*
X2713668Y1719902D01*
X2713476Y1719615D01*
X2712974D01*
X2711794Y1719380D01*
X2710794Y1718712D01*
X2710794Y1718712D01*
X2708903Y1716821D01*
X2705361D01*
X2699650Y1722532D01*
Y1767876D01*
X2700614Y1769318D01*
X2700977Y1771142D01*
X2700788Y1772092D01*
X2701958Y1772718D01*
X2703287Y1771389D01*
Y1765306D01*
X2703000Y1765114D01*
X2701966Y1763568D01*
X2701603Y1761744D01*
X2701966Y1759920D01*
X2703000Y1758374D01*
X2704546Y1757340D01*
X2706370Y1756977D01*
X2708194Y1757340D01*
X2709741Y1758374D01*
X2710774Y1759920D01*
X2711136Y1761744D01*
X2710774Y1763568D01*
X2709741Y1765114D01*
X2709453Y1765306D01*
Y1772666D01*
X2709453Y1772666D01*
X2709218Y1773846D01*
X2708550Y1774846D01*
X2699696Y1783700D01*
X2699786Y1784270D01*
X2701141Y1784711D01*
X2733400Y1752452D01*
X2734400Y1751783D01*
X2735580Y1751549D01*
X2735580Y1751549D01*
X2777483D01*
X2835762Y1693270D01*
X2835762Y1693270D01*
X2835898Y1691651D01*
X2835721Y1691421D01*
X2829821D01*
X2779416Y1741826D01*
X2778416Y1742495D01*
X2777236Y1742729D01*
X2777236Y1742729D01*
X2751842D01*
X2751650Y1743017D01*
X2750104Y1744050D01*
X2748280Y1744413D01*
X2746456Y1744050D01*
X2744909Y1743017D01*
X2743876Y1741470D01*
X2743513Y1739646D01*
X2743876Y1737822D01*
X2744909Y1736275D01*
X2746456Y1735242D01*
X2748280Y1734879D01*
X2750104Y1735242D01*
X2751650Y1736275D01*
X2751842Y1736563D01*
X2775959D01*
X2826618Y1685904D01*
X2826618Y1685904D01*
X2827618Y1685235D01*
X2828798Y1685001D01*
X2829978Y1685235D01*
X2830007Y1685255D01*
X2855970D01*
X2856161Y1684967D01*
X2857708Y1683934D01*
X2859532Y1683571D01*
X2861356Y1683934D01*
X2862903Y1684967D01*
X2863936Y1686514D01*
X2864299Y1688338D01*
X2863936Y1690162D01*
X2863311Y1691097D01*
X2863990Y1692367D01*
X3108194D01*
X3108277Y1691097D01*
X3106579Y1690873D01*
X3104361Y1689954D01*
X3102455Y1688492D01*
X3100994Y1686587D01*
X3100075Y1684369D01*
X3099761Y1681988D01*
X3100075Y1679607D01*
X3100994Y1677389D01*
X3102455Y1675484D01*
X3104361Y1674022D01*
X3106579Y1673103D01*
X3108960Y1672789D01*
X3111341Y1673103D01*
X3113559Y1674022D01*
X3115464Y1675484D01*
X3116926Y1677389D01*
X3117845Y1679607D01*
X3118027Y1680988D01*
X3119368Y1681444D01*
X3142961Y1657851D01*
Y1644904D01*
X3142961Y1644904D01*
X3143195Y1643724D01*
X3143864Y1642724D01*
X3151503Y1635085D01*
X3150875Y1633569D01*
X3150561Y1631188D01*
X3150875Y1628807D01*
X3151794Y1626589D01*
X3153256Y1624684D01*
X3155161Y1623222D01*
X3157379Y1622303D01*
X3159760Y1621989D01*
X3160797Y1622126D01*
X3161391Y1620923D01*
X3157213Y1616745D01*
X2862841D01*
X2832502Y1647084D01*
X2831502Y1647753D01*
X2830322Y1647987D01*
X2830322Y1647987D01*
X2766066D01*
X2765875Y1648275D01*
X2764328Y1649308D01*
X2762504Y1649671D01*
X2760680Y1649308D01*
X2759134Y1648275D01*
X2758475Y1647289D01*
X2757205Y1647675D01*
Y1648206D01*
X2756971Y1649386D01*
X2756302Y1650386D01*
X2756302Y1650386D01*
X2756281Y1650407D01*
X2756349Y1650746D01*
X2755986Y1652570D01*
X2754952Y1654117D01*
X2753406Y1655150D01*
X2751582Y1655513D01*
X2749758Y1655150D01*
X2748211Y1654117D01*
X2747178Y1652570D01*
X2746815Y1650746D01*
X2747178Y1648922D01*
X2748211Y1647375D01*
X2749758Y1646342D01*
X2751039Y1646087D01*
Y1624076D01*
X2751039Y1624076D01*
X2751273Y1622896D01*
X2751942Y1621896D01*
X2763739Y1610099D01*
Y1608328D01*
X2763739Y1608328D01*
X2763973Y1607148D01*
X2764642Y1606148D01*
X2775331Y1595459D01*
X2775263Y1595120D01*
X2775626Y1593296D01*
X2776660Y1591750D01*
X2778206Y1590716D01*
X2780030Y1590353D01*
X2781854Y1590716D01*
X2783401Y1591750D01*
X2784434Y1593296D01*
X2784796Y1595120D01*
X2784434Y1596944D01*
X2783401Y1598490D01*
X2781854Y1599524D01*
X2780030Y1599887D01*
X2779691Y1599819D01*
X2769905Y1609605D01*
Y1611376D01*
X2769905Y1611376D01*
X2769670Y1612556D01*
X2769002Y1613556D01*
X2769002Y1613556D01*
X2757205Y1625353D01*
Y1642133D01*
X2758475Y1642519D01*
X2759134Y1641534D01*
X2760680Y1640500D01*
X2762504Y1640137D01*
X2764328Y1640500D01*
X2765875Y1641534D01*
X2766066Y1641821D01*
X2829045D01*
X2859200Y1611665D01*
X2859051Y1610934D01*
X2858724Y1610395D01*
X2815844D01*
X2814664Y1610161D01*
X2813664Y1609492D01*
X2813664Y1609492D01*
X2793231Y1589059D01*
X2673103D01*
X2652454Y1609708D01*
Y1630364D01*
X2653574Y1630963D01*
X2653746Y1630848D01*
X2655570Y1630485D01*
X2657394Y1630848D01*
X2658940Y1631882D01*
X2659974Y1633428D01*
X2660337Y1635252D01*
X2659974Y1637076D01*
X2658940Y1638622D01*
X2658653Y1638814D01*
Y1664709D01*
X2674871Y1680927D01*
X2674871Y1680927D01*
X2675540Y1681927D01*
X2675774Y1683107D01*
X2675774Y1683107D01*
Y1712074D01*
X2675914Y1712181D01*
X2677044Y1712541D01*
X2684863Y1704723D01*
X2684948Y1704294D01*
X2685981Y1702747D01*
X2687528Y1701714D01*
X2689352Y1701351D01*
X2691176Y1701714D01*
X2692722Y1702747D01*
X2693756Y1704294D01*
X2694119Y1706118D01*
X2693756Y1707942D01*
X2692722Y1709489D01*
X2691176Y1710522D01*
X2689352Y1710885D01*
X2687742Y1710564D01*
X2682021Y1716285D01*
Y1845807D01*
X2683291Y1845933D01*
X2683424Y1845264D01*
D02*
G37*
G36*
X3168107Y1802798D02*
Y1789778D01*
X3166837Y1789347D01*
X3166265Y1790092D01*
X3164359Y1791554D01*
X3162141Y1792473D01*
X3159760Y1792787D01*
X3157379Y1792473D01*
X3155161Y1791554D01*
X3153256Y1790092D01*
X3151794Y1788187D01*
X3150875Y1785969D01*
X3150561Y1783588D01*
X3150875Y1781207D01*
X3151794Y1778989D01*
X3153256Y1777083D01*
X3155161Y1775622D01*
X3157379Y1774703D01*
X3159760Y1774389D01*
X3162141Y1774703D01*
X3164359Y1775622D01*
X3166265Y1777083D01*
X3166837Y1777829D01*
X3168107Y1777398D01*
Y1738978D01*
X3166837Y1738547D01*
X3166265Y1739292D01*
X3164359Y1740754D01*
X3162141Y1741673D01*
X3159760Y1741987D01*
X3157379Y1741673D01*
X3155161Y1740754D01*
X3153256Y1739292D01*
X3151794Y1737387D01*
X3150875Y1735169D01*
X3150561Y1732788D01*
X3150875Y1730407D01*
X3151794Y1728189D01*
X3153256Y1726284D01*
X3155161Y1724822D01*
X3157379Y1723903D01*
X3159760Y1723589D01*
X3162141Y1723903D01*
X3164359Y1724822D01*
X3166265Y1726284D01*
X3166837Y1727029D01*
X3168107Y1726598D01*
Y1713578D01*
X3166837Y1713147D01*
X3166265Y1713893D01*
X3164359Y1715354D01*
X3162141Y1716273D01*
X3159760Y1716587D01*
X3157379Y1716273D01*
X3155161Y1715354D01*
X3153256Y1713893D01*
X3151794Y1711987D01*
X3150875Y1709769D01*
X3150561Y1707388D01*
X3150875Y1705007D01*
X3151794Y1702789D01*
X3153256Y1700883D01*
X3155161Y1699422D01*
X3157379Y1698503D01*
X3159760Y1698189D01*
X3162141Y1698503D01*
X3164359Y1699422D01*
X3166265Y1700883D01*
X3166837Y1701629D01*
X3168107Y1701198D01*
Y1662778D01*
X3166837Y1662347D01*
X3166265Y1663092D01*
X3164359Y1664554D01*
X3162141Y1665473D01*
X3159760Y1665787D01*
X3157379Y1665473D01*
X3155161Y1664554D01*
X3153256Y1663092D01*
X3151794Y1661187D01*
X3150875Y1658969D01*
X3150561Y1656588D01*
X3150875Y1654207D01*
X3151794Y1651989D01*
X3153256Y1650083D01*
X3155161Y1648622D01*
X3157379Y1647703D01*
X3159760Y1647389D01*
X3162141Y1647703D01*
X3164359Y1648622D01*
X3166265Y1650083D01*
X3166837Y1650829D01*
X3168107Y1650398D01*
Y1637378D01*
X3166837Y1636947D01*
X3166265Y1637693D01*
X3164359Y1639154D01*
X3162141Y1640073D01*
X3159760Y1640387D01*
X3157379Y1640073D01*
X3155863Y1639445D01*
X3149127Y1646181D01*
Y1659128D01*
X3149127Y1659128D01*
X3148893Y1660308D01*
X3148224Y1661308D01*
X3148224Y1661308D01*
X3122576Y1686956D01*
X3122452Y1687577D01*
X3121784Y1688577D01*
X3121784Y1688577D01*
X3112731Y1697630D01*
X3112663Y1697676D01*
X3112804Y1699109D01*
X3113559Y1699422D01*
X3115464Y1700883D01*
X3116926Y1702789D01*
X3117845Y1705007D01*
X3118159Y1707388D01*
X3117845Y1709769D01*
X3116926Y1711987D01*
X3115464Y1713893D01*
X3115050Y1714211D01*
X3115481Y1715481D01*
X3117596D01*
X3117596Y1715481D01*
X3118776Y1715715D01*
X3119776Y1716384D01*
X3135524Y1732132D01*
X3135524Y1732132D01*
X3136193Y1733132D01*
X3136427Y1734312D01*
Y1781295D01*
X3155863Y1800731D01*
X3157379Y1800103D01*
X3159760Y1799789D01*
X3162141Y1800103D01*
X3164359Y1801022D01*
X3166265Y1802484D01*
X3166837Y1803229D01*
X3168107Y1802798D01*
D02*
G37*
G36*
X2833437Y2043575D02*
X2832522Y2042206D01*
X2832159Y2040382D01*
X2832522Y2038558D01*
X2832637Y2038386D01*
X2832038Y2037266D01*
X2824590D01*
X2818786Y2043070D01*
X2817786Y2043739D01*
X2816606Y2043973D01*
X2816606Y2043973D01*
X2756922D01*
X2756731Y2044261D01*
X2755504Y2045080D01*
X2755341Y2046165D01*
X2755409Y2046544D01*
X2755969Y2046918D01*
X2756160Y2047205D01*
X2829807D01*
X2833437Y2043575D01*
D02*
G37*
G36*
X2748479Y2052539D02*
X2748194Y2052112D01*
X2747831Y2050288D01*
X2748194Y2048464D01*
X2749228Y2046918D01*
X2750454Y2046098D01*
X2750617Y2045013D01*
X2750549Y2044634D01*
X2749990Y2044261D01*
X2748956Y2042714D01*
X2748593Y2040890D01*
X2748940Y2039147D01*
X2748935Y2038872D01*
X2748403Y2037877D01*
X2737612D01*
X2736432Y2037643D01*
X2735432Y2036974D01*
X2735432Y2036974D01*
X2696085Y1997627D01*
X2695656Y1997542D01*
X2694109Y1996508D01*
X2693076Y1994962D01*
X2692713Y1993138D01*
X2693076Y1991314D01*
X2694109Y1989767D01*
X2695656Y1988734D01*
X2697480Y1988371D01*
X2699304Y1988734D01*
X2700851Y1989767D01*
X2701884Y1991314D01*
X2702247Y1993138D01*
X2701926Y1994748D01*
X2717454Y2010276D01*
X2718832Y2009858D01*
X2718984Y2009094D01*
X2720017Y2007547D01*
X2720305Y2007356D01*
Y1998733D01*
X2702350Y1980778D01*
X2700528Y1981141D01*
X2698704Y1980778D01*
X2697158Y1979745D01*
X2696124Y1978198D01*
X2695761Y1976374D01*
X2696124Y1974550D01*
X2697158Y1973004D01*
X2698704Y1971970D01*
X2700528Y1971607D01*
X2702352Y1971970D01*
X2703899Y1973004D01*
X2704932Y1974550D01*
X2704954Y1974662D01*
X2725568Y1995276D01*
X2725568Y1995276D01*
X2726237Y1996276D01*
X2726471Y1997456D01*
X2726471Y1997456D01*
Y2007356D01*
X2726758Y2007547D01*
X2727792Y2009094D01*
X2728155Y2010918D01*
X2727792Y2012742D01*
X2726758Y2014288D01*
X2725212Y2015322D01*
X2724448Y2015474D01*
X2724030Y2016852D01*
X2731675Y2024496D01*
X2732845Y2023872D01*
X2733208Y2022048D01*
X2734242Y2020502D01*
X2735788Y2019468D01*
X2737612Y2019105D01*
X2739436Y2019468D01*
X2740982Y2020502D01*
X2742016Y2022048D01*
X2742379Y2023872D01*
X2742311Y2024211D01*
X2744985Y2026885D01*
X2758922D01*
X2759761Y2025615D01*
X2759635Y2024980D01*
X2758477Y2024202D01*
X2758277Y2024168D01*
X2757618Y2024441D01*
X2755900Y2024667D01*
X2754182Y2024441D01*
X2752581Y2023778D01*
X2751207Y2022723D01*
X2750152Y2021348D01*
X2749489Y2019748D01*
X2749263Y2018030D01*
X2749489Y2016312D01*
X2749587Y2016077D01*
X2748894Y2015384D01*
X2748225Y2014384D01*
X2747991Y2013204D01*
X2747991Y2013204D01*
Y2007619D01*
X2747756Y2007522D01*
X2746381Y2006467D01*
X2745327Y2005092D01*
X2744663Y2003492D01*
X2744437Y2001774D01*
X2744613Y2000436D01*
X2704849Y1960671D01*
X2704181Y1959671D01*
X2703946Y1958491D01*
X2703946Y1958491D01*
Y1942187D01*
X2703946Y1942187D01*
X2704181Y1941007D01*
X2704849Y1940007D01*
X2714350Y1930506D01*
X2714350Y1930506D01*
X2715350Y1929837D01*
X2715546Y1929798D01*
X2715411Y1928554D01*
X2714231Y1928320D01*
X2713231Y1927651D01*
X2713231Y1927651D01*
X2707926Y1922347D01*
X2706756Y1922972D01*
X2706819Y1923288D01*
X2706456Y1925112D01*
X2705422Y1926658D01*
X2703876Y1927692D01*
X2702052Y1928055D01*
X2700228Y1927692D01*
X2698682Y1926658D01*
X2698490Y1926371D01*
X2695455D01*
X2685069Y1936757D01*
Y1989575D01*
X2702708Y2007214D01*
X2703376Y2008214D01*
X2703611Y2009394D01*
X2703611Y2009394D01*
Y2047234D01*
X2703899Y2047426D01*
X2704932Y2048972D01*
X2705294Y2050796D01*
X2704948Y2052539D01*
X2704953Y2052814D01*
X2705485Y2053809D01*
X2747801D01*
X2748479Y2052539D01*
D02*
G37*
G36*
X2870814Y1958700D02*
X2870814Y1958700D01*
X2871814Y1958031D01*
X2872994Y1957797D01*
X2872994Y1957797D01*
X2894424D01*
X2895064Y1957074D01*
X2894633Y1955835D01*
X2757195D01*
X2756095Y1956816D01*
X2755732Y1958640D01*
X2754698Y1960186D01*
X2754411Y1960378D01*
Y1963413D01*
X2771542Y1980544D01*
X2771542Y1980544D01*
X2772210Y1981544D01*
X2772445Y1982724D01*
X2772445Y1982724D01*
Y2010664D01*
X2772445Y2010664D01*
X2772210Y2011844D01*
X2771542Y2012844D01*
X2771542Y2012844D01*
X2767365Y2017021D01*
Y2020818D01*
X2767653Y2021010D01*
X2768686Y2022556D01*
X2769048Y2024380D01*
X2768686Y2026204D01*
X2768571Y2026376D01*
X2769170Y2027496D01*
X2802018D01*
X2870814Y1958700D01*
D02*
G37*
G36*
X2762252Y2013413D02*
X2766279Y2009387D01*
Y1984001D01*
X2749148Y1966870D01*
X2748480Y1965870D01*
X2748245Y1964690D01*
X2748245Y1964690D01*
Y1960378D01*
X2747957Y1960186D01*
X2746924Y1958640D01*
X2746561Y1956816D01*
X2745462Y1955835D01*
X2715514D01*
X2714334Y1955600D01*
X2713656Y1955147D01*
X2713228Y1955233D01*
X2711404Y1954870D01*
X2711232Y1954755D01*
X2710112Y1955354D01*
Y1957214D01*
X2748582Y1995684D01*
X2749356Y1995363D01*
X2751074Y1995137D01*
X2752792Y1995363D01*
X2754392Y1996026D01*
X2755767Y1997081D01*
X2756822Y1998456D01*
X2757485Y2000056D01*
X2757711Y2001774D01*
X2757485Y2003492D01*
X2756822Y2005092D01*
X2755767Y2006467D01*
X2754392Y2007522D01*
X2754157Y2007619D01*
Y2010342D01*
X2755427Y2011456D01*
X2755900Y2011393D01*
X2757618Y2011619D01*
X2759218Y2012282D01*
X2760593Y2013337D01*
X2760664Y2013430D01*
X2761771Y2013533D01*
X2762252Y2013413D01*
D02*
G37*
G36*
X3134802Y2063777D02*
X3135341Y2063450D01*
Y2053276D01*
X3109782Y2027717D01*
X3094736D01*
X3094736Y2027717D01*
X3093556Y2027482D01*
X3092556Y2026814D01*
X2999987Y1934245D01*
X2898912D01*
X2898788Y1935515D01*
X2899456Y1935648D01*
X2901003Y1936682D01*
X2902036Y1938228D01*
X2902399Y1940052D01*
X2902036Y1941876D01*
X2901003Y1943423D01*
X2899456Y1944456D01*
X2897632Y1944819D01*
X2897293Y1944751D01*
X2893867Y1948177D01*
X2893535Y1948399D01*
X2893921Y1949669D01*
X2943259D01*
X2944173Y1948688D01*
X2944536Y1946864D01*
X2945569Y1945318D01*
X2947116Y1944284D01*
X2948940Y1943921D01*
X2950764Y1944284D01*
X2952310Y1945318D01*
X2953344Y1946864D01*
X2953707Y1948688D01*
X2953344Y1950512D01*
X2952310Y1952059D01*
X2950764Y1953092D01*
X2948940Y1953455D01*
X2948601Y1953387D01*
X2947056Y1954932D01*
X2946056Y1955600D01*
X2944876Y1955835D01*
X2944876Y1955835D01*
X2901291D01*
X2900905Y1957105D01*
X2901511Y1957509D01*
X2902544Y1959056D01*
X2902906Y1960880D01*
X2902544Y1962704D01*
X2901511Y1964250D01*
X2899964Y1965284D01*
X2898140Y1965647D01*
X2896316Y1965284D01*
X2894770Y1964250D01*
X2894578Y1963963D01*
X2874271D01*
X2813031Y2025203D01*
X2813517Y2026377D01*
X3085779D01*
X3085779Y2026377D01*
X3086959Y2026611D01*
X3087959Y2027280D01*
X3105828Y2045149D01*
X3112379D01*
X3112513Y2045060D01*
X3113693Y2044825D01*
X3114872Y2045060D01*
X3115872Y2045728D01*
X3134071Y2063926D01*
X3134802Y2063777D01*
D02*
G37*
G36*
X2687760Y1896490D02*
X2687996Y1895302D01*
X2689030Y1893755D01*
X2690576Y1892722D01*
X2692400Y1892359D01*
X2694224Y1892722D01*
X2695771Y1893755D01*
X2697084Y1893669D01*
X2727120Y1863633D01*
X2726594Y1862363D01*
X2700020D01*
X2700020Y1862363D01*
X2698840Y1862128D01*
X2697840Y1861460D01*
X2697840Y1861460D01*
X2688167Y1851787D01*
X2687828Y1851855D01*
X2686004Y1851492D01*
X2684457Y1850459D01*
X2683424Y1848912D01*
X2683291Y1848243D01*
X2682021Y1848369D01*
Y1892547D01*
X2686396Y1896922D01*
X2687760Y1896490D01*
D02*
G37*
G36*
X2733406Y1913512D02*
X2733407Y1913512D01*
X2734407Y1912843D01*
X2735587Y1912609D01*
X2735587Y1912609D01*
X2747055D01*
X2747733Y1911339D01*
X2747432Y1910888D01*
X2747069Y1909064D01*
X2747432Y1907240D01*
X2748466Y1905694D01*
X2750012Y1904660D01*
X2751836Y1904297D01*
X2752539Y1903142D01*
X2752403Y1902460D01*
X2752766Y1900636D01*
X2753799Y1899090D01*
X2755346Y1898056D01*
X2757170Y1897693D01*
X2758994Y1898056D01*
X2760540Y1899090D01*
X2760732Y1899377D01*
X2770632D01*
X2770632Y1899377D01*
X2770871Y1899424D01*
X2771955Y1898402D01*
X2771971Y1898348D01*
X2772324Y1896572D01*
X2773358Y1895025D01*
X2774904Y1893992D01*
X2775468Y1893880D01*
X2775898Y1892605D01*
X2775266Y1891827D01*
X2764543D01*
X2764351Y1892115D01*
X2762804Y1893148D01*
X2760980Y1893511D01*
X2759156Y1893148D01*
X2757610Y1892115D01*
X2756576Y1890568D01*
X2756340Y1889380D01*
X2754977Y1888948D01*
X2728606Y1915319D01*
X2728870Y1916538D01*
X2730012Y1916907D01*
X2733406Y1913512D01*
D02*
G37*
G36*
X2655865Y1891373D02*
X2655920Y1891092D01*
X2656089Y1890840D01*
X2655738Y1890314D01*
X2655375Y1888490D01*
X2655738Y1886666D01*
X2656772Y1885119D01*
X2658318Y1884086D01*
X2660142Y1883723D01*
X2661966Y1884086D01*
X2663513Y1885119D01*
X2664546Y1886666D01*
X2664909Y1888490D01*
X2664826Y1888905D01*
X2665854Y1890249D01*
X2666792Y1890436D01*
X2668339Y1891470D01*
X2669608Y1891083D01*
Y1850212D01*
X2668338Y1849827D01*
X2667577Y1850966D01*
X2666030Y1852000D01*
X2664206Y1852363D01*
X2663867Y1852295D01*
X2651287Y1864875D01*
Y1879977D01*
X2651287Y1879977D01*
X2651053Y1881157D01*
X2650676Y1881720D01*
Y1884592D01*
X2651053Y1885155D01*
X2651287Y1886335D01*
X2651287Y1886335D01*
Y1894155D01*
X2652557Y1894681D01*
X2655865Y1891373D01*
D02*
G37*
G36*
X2831698Y1829668D02*
X2831698Y1829668D01*
X2832698Y1828999D01*
X2833524Y1828835D01*
X2833399Y1827565D01*
X2783249D01*
X2782817Y1828835D01*
X2782945Y1828933D01*
X2784000Y1830308D01*
X2784662Y1831908D01*
X2784889Y1833626D01*
X2784662Y1835344D01*
X2784000Y1836944D01*
X2782945Y1838319D01*
X2781570Y1839374D01*
X2781335Y1839471D01*
Y1861312D01*
X2781335Y1861312D01*
X2781100Y1862492D01*
X2780432Y1863492D01*
X2761184Y1882741D01*
X2761617Y1884104D01*
X2762804Y1884340D01*
X2764351Y1885374D01*
X2764543Y1885661D01*
X2775705D01*
X2831698Y1829668D01*
D02*
G37*
G36*
X2735026Y1847346D02*
X2734570Y1846005D01*
X2733608Y1845879D01*
X2732008Y1845216D01*
X2730633Y1844161D01*
X2729579Y1842786D01*
X2728915Y1841186D01*
X2728689Y1839468D01*
X2728915Y1837750D01*
X2729579Y1836150D01*
X2730633Y1834775D01*
X2732008Y1833720D01*
X2732243Y1833623D01*
Y1794256D01*
X2732243Y1794256D01*
X2732477Y1793076D01*
X2733146Y1792076D01*
X2745338Y1779884D01*
X2745338Y1779884D01*
X2746338Y1779216D01*
X2747449Y1778994D01*
X2747578Y1778874D01*
X2747910Y1778278D01*
X2747228Y1777043D01*
X2734547D01*
X2717673Y1793917D01*
X2717740Y1794256D01*
X2717378Y1796080D01*
X2716345Y1797626D01*
X2714798Y1798660D01*
X2712974Y1799023D01*
X2711150Y1798660D01*
X2709604Y1797626D01*
X2708570Y1796080D01*
X2708207Y1794256D01*
X2708570Y1792432D01*
X2709604Y1790885D01*
X2711150Y1789852D01*
X2712974Y1789489D01*
X2713313Y1789557D01*
X2731090Y1771780D01*
X2731090Y1771780D01*
X2732090Y1771111D01*
X2733270Y1770877D01*
X2754486D01*
X2754611Y1769607D01*
X2753822Y1769450D01*
X2752275Y1768416D01*
X2751242Y1766870D01*
X2750880Y1765046D01*
X2751242Y1763222D01*
X2752275Y1761676D01*
X2753822Y1760642D01*
X2755646Y1760279D01*
X2757470Y1760642D01*
X2759016Y1761676D01*
X2759208Y1761963D01*
X2893822D01*
X2893822Y1761963D01*
X2895002Y1762198D01*
X2896002Y1762866D01*
X2902465Y1769329D01*
X2917184D01*
X2917375Y1769041D01*
X2918922Y1768008D01*
X2920746Y1767645D01*
X2922570Y1768008D01*
X2924117Y1769041D01*
X2925150Y1770588D01*
X2925513Y1772412D01*
X2925150Y1774236D01*
X2924117Y1775782D01*
X2922570Y1776816D01*
X2920746Y1777179D01*
X2918922Y1776816D01*
X2917375Y1775782D01*
X2917184Y1775495D01*
X2901188D01*
X2901188Y1775495D01*
X2900008Y1775260D01*
X2899008Y1774592D01*
X2892545Y1768129D01*
X2759208D01*
X2759016Y1768416D01*
X2757470Y1769450D01*
X2756681Y1769607D01*
X2756806Y1770877D01*
X2886428D01*
X2887680Y1770040D01*
X2889504Y1769677D01*
X2891328Y1770040D01*
X2892874Y1771073D01*
X2893908Y1772620D01*
X2894271Y1774444D01*
X2893908Y1776268D01*
X2892874Y1777814D01*
X2891328Y1778848D01*
X2889504Y1779211D01*
X2887680Y1778848D01*
X2886133Y1777814D01*
X2885618Y1777043D01*
X2759910D01*
X2759284Y1778313D01*
X2759615Y1778746D01*
X2760279Y1780346D01*
X2760505Y1782064D01*
X2760279Y1783782D01*
X2759615Y1785382D01*
X2758561Y1786757D01*
X2757186Y1787812D01*
X2755586Y1788475D01*
X2753868Y1788701D01*
X2752150Y1788475D01*
X2750550Y1787812D01*
X2749175Y1786757D01*
X2748897Y1786395D01*
X2747630Y1786312D01*
X2738409Y1795533D01*
Y1833623D01*
X2738644Y1833720D01*
X2740019Y1834775D01*
X2741074Y1836150D01*
X2741736Y1837750D01*
X2741863Y1838712D01*
X2743204Y1839167D01*
X2748499Y1833873D01*
Y1827790D01*
X2748211Y1827599D01*
X2747178Y1826052D01*
X2746815Y1824228D01*
X2747178Y1822404D01*
X2748211Y1820858D01*
X2749758Y1819824D01*
X2751582Y1819461D01*
X2753406Y1819824D01*
X2754952Y1820858D01*
X2755986Y1822404D01*
X2756349Y1824228D01*
X2755986Y1826052D01*
X2754952Y1827599D01*
X2754665Y1827790D01*
Y1834292D01*
X2755935Y1834818D01*
X2768452Y1822302D01*
X2768452Y1822302D01*
X2769452Y1821633D01*
X2770632Y1821399D01*
X2770632Y1821399D01*
X2866253D01*
X2866558Y1819864D01*
X2867592Y1818318D01*
X2869138Y1817284D01*
X2870962Y1816921D01*
X2872786Y1817284D01*
X2874333Y1818318D01*
X2875366Y1819864D01*
X2875728Y1821688D01*
X2875366Y1823512D01*
X2874333Y1825058D01*
X2872786Y1826092D01*
X2870962Y1826455D01*
X2870623Y1826387D01*
X2870348Y1826662D01*
X2869348Y1827330D01*
X2868522Y1827495D01*
X2868647Y1828765D01*
X2887465D01*
X2899712Y1816518D01*
X2899111Y1815322D01*
X2897586Y1815019D01*
X2896039Y1813985D01*
X2895847Y1813698D01*
X2768031D01*
X2767398Y1814644D01*
X2765852Y1815678D01*
X2764028Y1816041D01*
X2762204Y1815678D01*
X2760657Y1814644D01*
X2759624Y1813098D01*
X2759261Y1811274D01*
X2759624Y1809450D01*
X2760657Y1807903D01*
X2762204Y1806870D01*
X2764028Y1806507D01*
X2765852Y1806870D01*
X2766842Y1807532D01*
X2787842D01*
X2788441Y1806412D01*
X2788326Y1806240D01*
X2787963Y1804416D01*
X2788326Y1802592D01*
X2789359Y1801046D01*
X2790906Y1800012D01*
X2792730Y1799649D01*
X2793069Y1799717D01*
X2799694Y1793092D01*
X2799694Y1793092D01*
X2800694Y1792424D01*
X2801874Y1792189D01*
X2801874Y1792189D01*
X2864267D01*
X2864290Y1792155D01*
X2865836Y1791122D01*
X2867660Y1790759D01*
X2869484Y1791122D01*
X2871031Y1792155D01*
X2871053Y1792189D01*
X2905500D01*
X2905692Y1791902D01*
X2907238Y1790868D01*
X2909062Y1790505D01*
X2910886Y1790868D01*
X2912433Y1791902D01*
X2913466Y1793448D01*
X2913829Y1795272D01*
X2913466Y1797096D01*
X2912433Y1798642D01*
X2910886Y1799676D01*
X2909062Y1800039D01*
X2907238Y1799676D01*
X2905692Y1798642D01*
X2905500Y1798355D01*
X2871392D01*
X2871031Y1798896D01*
X2869484Y1799930D01*
X2867660Y1800293D01*
X2865836Y1799930D01*
X2864290Y1798896D01*
X2863928Y1798355D01*
X2803151D01*
X2797429Y1804077D01*
X2797497Y1804416D01*
X2797134Y1806240D01*
X2797019Y1806412D01*
X2797618Y1807532D01*
X2895847D01*
X2896039Y1807245D01*
X2897586Y1806211D01*
X2899410Y1805848D01*
X2901234Y1806211D01*
X2902780Y1807245D01*
X2903814Y1808791D01*
X2904117Y1810316D01*
X2905313Y1810917D01*
X2962254Y1753976D01*
X2962254Y1753976D01*
X2963254Y1753307D01*
X2964434Y1753073D01*
X2970317D01*
X2970803Y1751899D01*
X2945377Y1726473D01*
X2853443D01*
X2850177Y1729739D01*
X2850329Y1730502D01*
X2849966Y1732326D01*
X2848932Y1733873D01*
X2847386Y1734906D01*
X2845562Y1735269D01*
X2843738Y1734906D01*
X2842191Y1733873D01*
X2841158Y1732326D01*
X2840795Y1730502D01*
X2841158Y1728678D01*
X2842191Y1727132D01*
X2843738Y1726098D01*
X2845435Y1725761D01*
X2849548Y1721647D01*
X2849023Y1720377D01*
X2836933D01*
X2815088Y1742222D01*
X2814825Y1742616D01*
X2811194Y1746247D01*
X2810800Y1746510D01*
X2809183Y1748127D01*
X2809268Y1749457D01*
X2809308Y1749483D01*
X2810342Y1751030D01*
X2810705Y1752854D01*
X2810342Y1754678D01*
X2809308Y1756225D01*
X2807762Y1757258D01*
X2805938Y1757621D01*
X2804114Y1757258D01*
X2802567Y1756225D01*
X2801534Y1754678D01*
X2801171Y1752854D01*
X2801534Y1751030D01*
X2802567Y1749483D01*
X2802855Y1749292D01*
Y1747012D01*
X2802855Y1747012D01*
X2803090Y1745832D01*
X2803758Y1744832D01*
X2805004Y1743586D01*
X2804723Y1742385D01*
X2804562Y1742232D01*
X2803076Y1741239D01*
X2802042Y1739692D01*
X2801679Y1737868D01*
X2800509Y1737244D01*
X2780940Y1756812D01*
X2779940Y1757480D01*
X2778760Y1757715D01*
X2778760Y1757715D01*
X2736857D01*
X2705389Y1789183D01*
Y1824193D01*
X2715295D01*
X2715487Y1823905D01*
X2717033Y1822872D01*
X2718857Y1822509D01*
X2720681Y1822872D01*
X2722228Y1823905D01*
X2723261Y1825452D01*
X2723624Y1827276D01*
X2723261Y1829100D01*
X2722228Y1830647D01*
X2720681Y1831680D01*
X2718857Y1832043D01*
X2717033Y1831680D01*
X2715487Y1830647D01*
X2715295Y1830359D01*
X2706712D01*
X2706710Y1830370D01*
X2705677Y1831917D01*
X2704130Y1832950D01*
X2702306Y1833313D01*
X2701382Y1833129D01*
X2700756Y1834299D01*
X2703349Y1836893D01*
X2715254D01*
X2715446Y1836606D01*
X2716992Y1835572D01*
X2718816Y1835209D01*
X2720640Y1835572D01*
X2722187Y1836606D01*
X2723220Y1838152D01*
X2723582Y1839976D01*
X2723220Y1841800D01*
X2722187Y1843347D01*
X2720640Y1844380D01*
X2719259Y1844655D01*
X2718555Y1845887D01*
X2718648Y1846026D01*
X2719011Y1847850D01*
X2718648Y1849674D01*
X2717614Y1851221D01*
X2716068Y1852254D01*
X2714244Y1852617D01*
X2712420Y1852254D01*
X2710873Y1851221D01*
X2710681Y1850933D01*
X2699512D01*
X2699512Y1850933D01*
X2698332Y1850699D01*
X2697332Y1850030D01*
X2697332Y1850030D01*
X2694671Y1847370D01*
X2693321Y1847815D01*
X2693268Y1848168D01*
X2701297Y1856197D01*
X2726175D01*
X2735026Y1847346D01*
D02*
G37*
G36*
X2696239Y2052792D02*
X2696124Y2052620D01*
X2695761Y2050796D01*
X2696124Y2048972D01*
X2697158Y2047426D01*
X2697445Y2047234D01*
Y2010671D01*
X2679806Y1993032D01*
X2679138Y1992032D01*
X2678903Y1990852D01*
X2678903Y1990852D01*
Y1935480D01*
X2678903Y1935480D01*
X2679138Y1934300D01*
X2679806Y1933300D01*
X2692252Y1920854D01*
X2692252Y1920854D01*
X2693252Y1920186D01*
X2694432Y1919951D01*
X2695612Y1920186D01*
X2695641Y1920205D01*
X2698490D01*
X2698682Y1919917D01*
X2699042Y1919677D01*
X2699166Y1918413D01*
X2677044Y1896291D01*
X2675914Y1896651D01*
X2675774Y1896758D01*
Y1912902D01*
X2675774Y1912902D01*
X2675671Y1913419D01*
Y2041137D01*
X2688446Y2053912D01*
X2695640D01*
X2696239Y2052792D01*
D02*
G37*
G36*
X2877040Y1928982D02*
X2877040Y1928982D01*
X2878041Y1928313D01*
X2879221Y1928079D01*
X2924924D01*
X2925603Y1926809D01*
X2924978Y1925874D01*
X2924615Y1924050D01*
X2924436Y1923831D01*
X2874479D01*
X2873880Y1924951D01*
X2874096Y1925274D01*
X2874459Y1927098D01*
X2874096Y1928922D01*
X2873907Y1929204D01*
X2874456Y1930271D01*
X2875658Y1930365D01*
X2877040Y1928982D01*
D02*
G37*
G36*
X2892933Y1940391D02*
X2892865Y1940052D01*
X2893228Y1938228D01*
X2894261Y1936682D01*
X2895808Y1935648D01*
X2896477Y1935515D01*
X2896352Y1934245D01*
X2880498D01*
X2879115Y1935628D01*
X2878115Y1936297D01*
X2876935Y1936531D01*
X2876935Y1936531D01*
X2793707D01*
X2793108Y1937651D01*
X2793324Y1937974D01*
X2793687Y1939798D01*
X2793324Y1941622D01*
X2793209Y1941794D01*
X2793808Y1942914D01*
X2890410D01*
X2892933Y1940391D01*
D02*
G37*
G36*
X2716024Y1919927D02*
X2715707Y1919164D01*
X2715481Y1917446D01*
X2715707Y1915728D01*
X2716371Y1914128D01*
X2717425Y1912753D01*
X2718800Y1911698D01*
X2720400Y1911035D01*
X2722118Y1910809D01*
X2723836Y1911035D01*
X2724071Y1911133D01*
X2775169Y1860035D01*
Y1839471D01*
X2774933Y1839374D01*
X2773559Y1838319D01*
X2772504Y1836944D01*
X2771841Y1835344D01*
X2771615Y1833626D01*
X2771841Y1831908D01*
X2772504Y1830308D01*
X2773559Y1828933D01*
X2773687Y1828835D01*
X2773256Y1827565D01*
X2771909D01*
X2700168Y1899306D01*
X2699168Y1899975D01*
X2697988Y1900209D01*
X2697988Y1900209D01*
X2695963D01*
X2695771Y1900497D01*
X2694224Y1901530D01*
X2693036Y1901766D01*
X2692604Y1903129D01*
X2703480Y1914006D01*
X2707029D01*
X2707029Y1914006D01*
X2708209Y1914241D01*
X2709209Y1914909D01*
X2714947Y1920647D01*
X2716024Y1919927D01*
D02*
G37*
G36*
X2746580Y1948437D02*
X2746580Y1948437D01*
X2747580Y1947769D01*
X2748760Y1947534D01*
X2748760Y1947534D01*
X2751288D01*
X2751967Y1946264D01*
X2751750Y1945940D01*
X2751387Y1944116D01*
X2751750Y1942292D01*
X2752784Y1940746D01*
X2754330Y1939712D01*
X2756154Y1939349D01*
X2757104Y1939538D01*
X2757729Y1938368D01*
X2755731Y1936369D01*
X2755392Y1936437D01*
X2753568Y1936074D01*
X2752021Y1935040D01*
X2750988Y1933494D01*
X2750625Y1931670D01*
X2750988Y1929846D01*
X2752021Y1928300D01*
X2753568Y1927266D01*
X2755392Y1926903D01*
X2757216Y1927266D01*
X2758763Y1928300D01*
X2759796Y1929846D01*
X2760159Y1931670D01*
X2760091Y1932009D01*
X2762765Y1934683D01*
X2778973D01*
X2779459Y1933509D01*
X2764725Y1918775D01*
X2746194D01*
X2745568Y1920045D01*
X2745900Y1920478D01*
X2746562Y1922078D01*
X2746789Y1923796D01*
X2746562Y1925514D01*
X2745900Y1927114D01*
X2744845Y1928489D01*
X2743470Y1929544D01*
X2741870Y1930207D01*
X2740152Y1930433D01*
X2738434Y1930207D01*
X2736942Y1929588D01*
X2731664Y1934866D01*
X2730664Y1935535D01*
X2729484Y1935769D01*
X2729484Y1935769D01*
X2717807D01*
X2710112Y1943464D01*
Y1945578D01*
X2711232Y1946177D01*
X2711404Y1946062D01*
X2713228Y1945699D01*
X2715052Y1946062D01*
X2716599Y1947095D01*
X2717632Y1948642D01*
X2717836Y1949669D01*
X2745348D01*
X2746580Y1948437D01*
D02*
G37*
%LPC*%
G36*
X2721356Y1753903D02*
X2719638Y1753677D01*
X2718038Y1753014D01*
X2716663Y1751959D01*
X2715609Y1750584D01*
X2714945Y1748984D01*
X2714719Y1747266D01*
X2714945Y1745548D01*
X2715609Y1743948D01*
X2716663Y1742573D01*
X2718038Y1741518D01*
X2719638Y1740855D01*
X2721356Y1740629D01*
X2723074Y1740855D01*
X2724674Y1741518D01*
X2725498Y1742151D01*
X2728461D01*
X2732497Y1738115D01*
Y1677419D01*
X2732262Y1677322D01*
X2730887Y1676267D01*
X2729832Y1674892D01*
X2729169Y1673292D01*
X2728943Y1671574D01*
X2729169Y1669856D01*
X2729832Y1668256D01*
X2730887Y1666881D01*
X2732262Y1665826D01*
X2733862Y1665163D01*
X2735580Y1664937D01*
X2737298Y1665163D01*
X2738898Y1665826D01*
X2740273Y1666881D01*
X2741328Y1668256D01*
X2741991Y1669856D01*
X2742217Y1671574D01*
X2741991Y1673292D01*
X2741328Y1674892D01*
X2740273Y1676267D01*
X2738898Y1677322D01*
X2738663Y1677419D01*
Y1739392D01*
X2738663Y1739392D01*
X2738429Y1740572D01*
X2737760Y1741572D01*
X2737760Y1741572D01*
X2731918Y1747414D01*
X2730918Y1748082D01*
X2729738Y1748317D01*
X2729738Y1748317D01*
X2727854D01*
X2727767Y1748984D01*
X2727104Y1750584D01*
X2726049Y1751959D01*
X2724674Y1753014D01*
X2723074Y1753677D01*
X2721356Y1753903D01*
D02*
G37*
G36*
X3108960Y1665787D02*
X3106579Y1665473D01*
X3104361Y1664554D01*
X3102455Y1663092D01*
X3100994Y1661187D01*
X3100075Y1658969D01*
X3099761Y1656588D01*
X3100075Y1654207D01*
X3100994Y1651989D01*
X3102455Y1650083D01*
X3104361Y1648622D01*
X3106579Y1647703D01*
X3108960Y1647389D01*
X3111341Y1647703D01*
X3113559Y1648622D01*
X3115464Y1650083D01*
X3116926Y1651989D01*
X3117845Y1654207D01*
X3118159Y1656588D01*
X3117845Y1658969D01*
X3116926Y1661187D01*
X3115464Y1663092D01*
X3113559Y1664554D01*
X3111341Y1665473D01*
X3108960Y1665787D01*
D02*
G37*
G36*
Y1640387D02*
X3106579Y1640073D01*
X3104361Y1639154D01*
X3102455Y1637693D01*
X3100994Y1635787D01*
X3100075Y1633569D01*
X3099761Y1631188D01*
X3100075Y1628807D01*
X3100994Y1626589D01*
X3102455Y1624684D01*
X3104361Y1623222D01*
X3106579Y1622303D01*
X3108960Y1621989D01*
X3111341Y1622303D01*
X3113559Y1623222D01*
X3115464Y1624684D01*
X3116926Y1626589D01*
X3117845Y1628807D01*
X3118159Y1631188D01*
X3117845Y1633569D01*
X3116926Y1635787D01*
X3115464Y1637693D01*
X3113559Y1639154D01*
X3111341Y1640073D01*
X3108960Y1640387D01*
D02*
G37*
G36*
X2942844Y1761685D02*
X2941020Y1761322D01*
X2939474Y1760289D01*
X2939282Y1760001D01*
X2914650D01*
X2914650Y1760001D01*
X2913470Y1759767D01*
X2912470Y1759098D01*
X2912470Y1759098D01*
X2895177Y1741805D01*
X2894838Y1741873D01*
X2893014Y1741510D01*
X2891468Y1740477D01*
X2890434Y1738930D01*
X2890071Y1737106D01*
X2890434Y1735282D01*
X2891468Y1733736D01*
X2893014Y1732702D01*
X2894838Y1732339D01*
X2896662Y1732702D01*
X2898209Y1733736D01*
X2899242Y1735282D01*
X2899604Y1737106D01*
X2899537Y1737445D01*
X2915927Y1753835D01*
X2939282D01*
X2939474Y1753548D01*
X2941020Y1752514D01*
X2942844Y1752151D01*
X2944668Y1752514D01*
X2946215Y1753548D01*
X2947248Y1755094D01*
X2947610Y1756918D01*
X2947248Y1758742D01*
X2946215Y1760289D01*
X2944668Y1761322D01*
X2942844Y1761685D01*
D02*
G37*
%LPD*%
D12*
X2393950Y1800740D02*
D03*
Y1785740D02*
D03*
X2412492Y1808360D02*
D03*
Y1793360D02*
D03*
X2439416Y1815218D02*
D03*
Y1800218D02*
D03*
X2368550Y1787278D02*
D03*
Y1772278D02*
D03*
D29*
X1917762Y2030414D02*
X1933829Y2014347D01*
X2474722Y1814322D02*
X2475992D01*
X1917762Y2030414D02*
Y2090866D01*
X1949704Y2207768D02*
Y2234184D01*
Y2207768D02*
X2015998Y2141474D01*
Y2109470D02*
Y2141474D01*
X1997394Y2090866D02*
X2015998Y2109470D01*
X1917762Y2090866D02*
X1997394D01*
X2312670Y2123440D02*
X3043936D01*
X2309944Y2130020D02*
X3041211D01*
X2130806Y1941576D02*
X2312670Y2123440D01*
X2128105Y1948180D02*
X2309944Y2130020D01*
X3043936Y2123440D02*
X3063240Y2142744D01*
X3041211Y2130020D02*
X3056660Y2145470D01*
X1752600Y1948180D02*
X2128105D01*
X1745488Y1941576D02*
X2130806D01*
X3097646Y2316988D02*
X3108960D01*
X3056660Y2276001D02*
X3097646Y2316988D01*
X3056660Y2145470D02*
Y2276001D01*
X1593088Y2107692D02*
X1752600Y1948180D01*
X1531874Y2107692D02*
X1593088D01*
X1515618Y2091436D02*
X1531874Y2107692D01*
X1596136Y2090928D02*
X1745488Y1941576D01*
X1528318Y2090928D02*
X1596136D01*
X3063240Y2142744D02*
Y2265426D01*
X3089402Y2291588D02*
X3108960D01*
X3063240Y2265426D02*
X3089402Y2291588D01*
X1029970Y1893062D02*
Y1905508D01*
Y1893062D02*
X1038352Y1884680D01*
X1117092D01*
X1120267Y1887855D01*
X2368550Y1787278D02*
X2382012Y1800740D01*
X2393950D01*
X2401570Y1808360D01*
X2412492D01*
X2419350Y1815218D01*
X2439416D01*
X2475096D01*
X2475992Y1814322D01*
X1016000Y1524000D02*
Y2523998D01*
X3215640Y1524000D02*
Y2523998D01*
X1016000D02*
X3215640D01*
X1016000Y1524000D02*
X3215640D01*
D30*
X1963420Y2081276D02*
X2005330Y2039366D01*
X1935734Y2081276D02*
X1963420D01*
X2620518Y1779016D02*
Y1784858D01*
X2601550Y1824228D02*
X2613660D01*
X2593192Y1832586D02*
X2601550Y1824228D01*
X1653818Y1832586D02*
X2593192D01*
X1502664Y1983740D02*
X1653818Y1832586D01*
X2591308Y1828038D02*
X2633726Y1785620D01*
X1651934Y1828038D02*
X2591308D01*
X1498116Y1981856D02*
X1651934Y1828038D01*
X2613660Y1824228D02*
X2617470Y1820418D01*
X2597912Y1785620D02*
Y1810004D01*
Y1785620D02*
X2618994Y1764538D01*
X1271270Y2256790D02*
X1384554D01*
X1452626Y2188718D01*
X1480500D01*
X1248410Y2267966D02*
X1266952Y2249424D01*
X1379728D01*
X1448054Y2181098D01*
X1475501D01*
X1242568Y2261108D02*
X1259332Y2244344D01*
X1373124D01*
X1443482Y2173986D01*
X1470500D01*
X1214882Y2274062D02*
X1252728Y2236216D01*
X1369314D01*
X1437894Y2167636D01*
X2615692Y2004060D02*
X2634488D01*
X2613914Y2002282D02*
X2615692Y2004060D01*
X2659634Y1898396D02*
Y2060448D01*
Y1898396D02*
X2661412Y1896618D01*
X2659634Y2060448D02*
X2662682Y2063496D01*
X2654300Y1966345D02*
Y2077720D01*
Y1966345D02*
X2654657Y1965988D01*
Y1960852D02*
Y1965988D01*
X2654300Y1960495D02*
X2654657Y1960852D01*
X2654300Y1897298D02*
Y1960495D01*
X2648204Y1886335D02*
Y1961134D01*
X2635504Y1880239D02*
Y1973580D01*
X2630956Y1882122D02*
Y1990114D01*
X2635504Y1973580D02*
X2638552Y1976628D01*
X2654300Y1897298D02*
X2658769Y1892829D01*
X2617470Y1820418D02*
X2624074D01*
X2630956Y1809726D02*
Y1873013D01*
X1533515Y2285121D02*
X1664057Y2154579D01*
X1655195Y2139188D02*
X1664057Y2148050D01*
Y2154579D01*
X2920238Y1820926D02*
X2947416Y1848104D01*
Y1886712D01*
X2891687Y1945997D02*
X2897632Y1940052D01*
X2758035Y1945997D02*
X2891687D01*
X2756154Y1944116D02*
X2758035Y1945997D01*
X2756031Y1952752D02*
X2944876D01*
X2753896Y1950617D02*
X2756031Y1952752D01*
X2748760Y1950617D02*
X2753896D01*
X2746625Y1952752D02*
X2748760Y1950617D01*
X2715514Y1952752D02*
X2746625D01*
X2944876D02*
X2948940Y1948688D01*
X2713228Y1950466D02*
X2715514Y1952752D01*
X2789002Y1933448D02*
X2876935D01*
X2788772Y1933218D02*
X2789002Y1933448D01*
X2783528Y1933218D02*
X2788772D01*
X2766002Y1915692D02*
X2783528Y1933218D01*
X2786888Y1937766D02*
X2788920Y1939798D01*
X2761488Y1937766D02*
X2786888D01*
X2876935Y1933448D02*
X2879221Y1931162D01*
X2782316Y1925574D02*
X2868168D01*
X2869692Y1927098D01*
X2788920Y1920748D02*
X2926080D01*
X2793238Y1914906D02*
X2895346D01*
X2926080Y1920748D02*
X2929382Y1924050D01*
X2765806Y1909064D02*
X2782316Y1925574D01*
X2770632Y1902460D02*
X2788920Y1920748D01*
X2895346Y1914906D02*
X2899664Y1910588D01*
X2776728Y1898396D02*
X2793238Y1914906D01*
X2796540Y1908556D02*
X2838958D01*
X2796540D02*
X2796667Y1908429D01*
X2776982Y1888744D02*
X2796667Y1908429D01*
X2755392Y1931670D02*
X2761488Y1937766D01*
X2751074Y2013204D02*
X2755900Y2018030D01*
X2751074Y2001774D02*
Y2013204D01*
X2750312Y2001774D02*
X2751074D01*
X2707029Y1958491D02*
X2750312Y2001774D01*
X2805179Y2035127D02*
X2810846Y2029460D01*
X2755928Y2034691D02*
X2756364Y2035127D01*
X2803295Y2030579D02*
X2872994Y1960880D01*
X2761714Y2030579D02*
X2803295D01*
X2756364Y2035127D02*
X2805179D01*
X2761103Y2029968D02*
X2761714Y2030579D01*
X2743708Y2029968D02*
X2761103D01*
X2764282Y2015744D02*
Y2024380D01*
Y2015744D02*
X2769362Y2010664D01*
X2737612Y2023872D02*
X2743708Y2029968D01*
X2750792Y2034691D02*
X2755928D01*
X2750689Y2034794D02*
X2750792Y2034691D01*
X2737612Y2034794D02*
X2750689D01*
X2697734Y1994916D02*
X2737612Y2034794D01*
X2810846Y2029460D02*
X3085779D01*
X2872994Y1960880D02*
X2898140D01*
X3085779Y2029460D02*
X3104551Y2048232D01*
X2816606Y2040890D02*
X2823313Y2034183D01*
X2847237D01*
X2850868Y2037814D01*
X2753360Y2040890D02*
X2816606D01*
X2850868Y2037814D02*
X2853408D01*
X2855976Y2040382D01*
X2725475Y1925804D02*
X2735587Y1915692D01*
X2766002D01*
X2729484Y1932686D02*
X2738120Y1924050D01*
X2716530Y1932686D02*
X2729484D01*
X2707029Y1942187D02*
X2716530Y1932686D01*
X2707029Y1942187D02*
Y1958491D01*
X2778252Y1833626D02*
Y1861312D01*
X2722118Y1917446D02*
X2778252Y1861312D01*
X2770632Y1824482D02*
X2868168D01*
X2697988Y1897126D02*
X2770632Y1824482D01*
X2692400Y1897126D02*
X2697988D01*
X2889020Y1773960D02*
X2889504Y1774444D01*
X2712974Y1794256D02*
X2733270Y1773960D01*
X2889020D01*
X2747518Y1782064D02*
X2753868D01*
X2735326Y1794256D02*
X2747518Y1782064D01*
X2735326Y1794256D02*
Y1839468D01*
X2721356Y1747266D02*
X2723388Y1745234D01*
X2729738D01*
X2735580Y1739392D01*
Y1671574D02*
Y1739392D01*
X2769362Y1982724D02*
Y2010664D01*
X2751328Y1964690D02*
X2769362Y1982724D01*
X2718761Y1925804D02*
X2725475D01*
X2718428Y1925471D02*
X2718761Y1925804D01*
X2715411Y1925471D02*
X2718428D01*
X2707029Y1917089D02*
X2715411Y1925471D01*
X2702203Y1917089D02*
X2707029D01*
X2751582Y1824228D02*
Y1835150D01*
X2727452Y1859280D02*
X2751582Y1835150D01*
X2700020Y1859280D02*
X2727452D01*
X2638552Y1802130D02*
X2664206D01*
X2650490Y1811782D02*
Y1826768D01*
X2654300Y2077720D02*
X2655316Y2076704D01*
X2655570Y1665986D02*
X2672691Y1683107D01*
Y1912902D01*
X2672588Y1913005D02*
Y2042414D01*
Y1913005D02*
X2672691Y1912902D01*
X2660142Y1888490D02*
Y1890899D01*
X2658769Y1892272D02*
X2660142Y1890899D01*
X2658769Y1892272D02*
Y1892829D01*
X2867660Y1839468D02*
X2948686Y1920494D01*
X2838704Y1839468D02*
X2867660D01*
X2888742Y1831848D02*
X2964434Y1756156D01*
X2833878Y1831848D02*
X2888742D01*
X2776982Y1888744D02*
X2833878Y1831848D01*
X2868168Y1824482D02*
X2870962Y1821688D01*
X2687828Y1847088D02*
X2700020Y1859280D01*
X2812796Y1874520D02*
X2838958Y1900682D01*
X2805684Y1874520D02*
X2812796D01*
X2831084Y1868678D02*
X2862834Y1900428D01*
X2830322Y1868678D02*
X2831084D01*
X2832100Y1854454D02*
X2833370D01*
X2871978Y1893062D01*
X2751328Y1956816D02*
Y1964690D01*
X2694686Y1923288D02*
X2702052D01*
X2694432Y1923034D02*
X2694686Y1923288D01*
X2681986Y1935480D02*
X2694432Y1923034D01*
X2678938Y1893824D02*
X2702203Y1917089D01*
X2678938Y1715008D02*
Y1893824D01*
X2703576Y1827276D02*
X2718857D01*
X2702306Y1828546D02*
X2703576Y1827276D01*
X2702306Y1788922D02*
Y1828546D01*
X2701798Y1788414D02*
X2702306Y1788922D01*
X2836926Y2040382D02*
Y2044446D01*
X2831084Y2050288D02*
X2836926Y2044446D01*
X2760980Y1888744D02*
X2776982D01*
X2879221Y1931162D02*
X3001264D01*
X2702072Y1839976D02*
X2718816D01*
X2706370Y1761744D02*
Y1772666D01*
X2699512Y1847850D02*
X2714244D01*
X2690011Y1838349D02*
X2699512Y1847850D01*
X2690011Y1763625D02*
Y1838349D01*
Y1763625D02*
X2690368Y1763268D01*
X2701798Y1788414D02*
X2735580Y1754632D01*
X3113693Y2047908D02*
X3132074Y2066290D01*
X3113692Y2047908D02*
X3113693D01*
X3113369Y2048232D02*
X3113692Y2047908D01*
X3104551Y2048232D02*
X3113369D01*
X2752598Y2050288D02*
X2831084D01*
X3111059Y2024634D02*
X3138424Y2051999D01*
X3094736Y2024634D02*
X3111059D01*
X3001264Y1931162D02*
X3094736Y2024634D01*
X2665984Y1911604D02*
Y2014474D01*
X2681986Y1935480D02*
Y1990852D01*
X2697734Y1993138D02*
Y1994916D01*
X2702560Y1976628D02*
X2723388Y1997456D01*
Y2010918D01*
X3062411Y2056892D02*
X3104551Y2099032D01*
X2678938Y1715008D02*
X2687828Y1706118D01*
X3138424Y2051999D02*
Y2211324D01*
X3108960Y2240788D02*
X3138424Y2211324D01*
X3132074Y2066290D02*
Y2192274D01*
X3108960Y2215388D02*
X3132074Y2192274D01*
X2655570Y1635252D02*
Y1665986D01*
X2671826Y1585976D02*
X2794508D01*
X3104551Y2099032D02*
X3111222D01*
X3119604Y2107414D01*
Y2143597D01*
X3108960Y2154241D02*
X3119604Y2143597D01*
X3108960Y2154241D02*
Y2164588D01*
X3046476Y2076704D02*
X3108960Y2139188D01*
X2794508Y1585976D02*
X2815844Y1607312D01*
X2766822Y1608328D02*
X2780030Y1595120D01*
X2766822Y1608328D02*
Y1611376D01*
X2815844Y1607312D02*
X3158490D01*
X3160292Y1609114D01*
X3160374D01*
X3180334Y1629074D01*
Y2093214D01*
X3159760Y2113788D02*
X3180334Y2093214D01*
X3170682Y1956816D02*
Y2026666D01*
X3162300Y1948434D02*
X3170682Y1956816D01*
X3099054Y1948434D02*
X3162300D01*
X3159760Y2037588D02*
X3170682Y2026666D01*
X3164169Y1819632D02*
X3171190Y1812611D01*
Y1626362D02*
Y1812611D01*
X3158490Y1613662D02*
X3171190Y1626362D01*
X2618994Y1651762D02*
Y1764538D01*
X2633726Y1731264D02*
Y1785620D01*
X2703322Y2063242D02*
X2829052D01*
X2914650Y1756918D02*
X2942844D01*
X2894838Y1737106D02*
X2914650Y1756918D01*
X2829052Y1688338D02*
X2859532D01*
X2828798Y1688084D02*
X2829052Y1688338D01*
X2777236Y1739646D02*
X2828798Y1688084D01*
X2974443Y1751179D02*
X3021227D01*
X2946654Y1723390D02*
X2974443Y1751179D01*
X2852166Y1723390D02*
X2946654D01*
X2845562Y1729994D02*
X2852166Y1723390D01*
X2951480Y1717294D02*
X2971292Y1737106D01*
X2835656Y1717294D02*
X2951480D01*
X2812645Y1740305D02*
X2835656Y1717294D01*
X2854452Y1709420D02*
X2988056D01*
X2988310Y1709166D01*
X2841752Y1702562D02*
X3015234D01*
X2988310Y1709166D02*
X3012694Y1733550D01*
X2806446Y1737868D02*
X2841752Y1702562D01*
X3015234D02*
X3031236Y1718564D01*
X2755646Y1765046D02*
X2893822D01*
X2901188Y1772412D01*
X2837942Y1695450D02*
X3110551D01*
X2778760Y1754632D02*
X2837942Y1695450D01*
X2748280Y1739646D02*
X2777236D01*
X3146044Y1644904D02*
X3159760Y1631188D01*
X3146044Y1644904D02*
Y1659128D01*
X3119604Y1685568D02*
X3146044Y1659128D01*
X3119604Y1685568D02*
Y1686397D01*
X3110551Y1695450D02*
X3119604Y1686397D01*
X2735580Y1754632D02*
X2778760D01*
X2861564Y1613662D02*
X3158490D01*
X2805938Y1747012D02*
Y1752854D01*
Y1747012D02*
X2808883Y1744067D01*
X2809014D01*
X2812645Y1740436D01*
Y1740305D02*
Y1740436D01*
X3034538Y1733550D02*
X3045460Y1744472D01*
X3012694Y1733550D02*
X3034538D01*
X3021227Y1751179D02*
X3030728Y1741678D01*
X3106928Y1756156D02*
X3108960Y1758188D01*
X2964434Y1756156D02*
X3106928D01*
X3045460Y1744472D02*
X3111500D01*
X2985008Y1774698D02*
Y1834388D01*
X3099054Y1948434D01*
X3147568Y1973580D02*
X3159760Y1961388D01*
X3089656Y1973580D02*
X3147568D01*
X2967228Y1851152D02*
X3089656Y1973580D01*
X2967228Y1772412D02*
Y1851152D01*
X2751836Y1909064D02*
X2765806D01*
X2901188Y1772412D02*
X2920746D01*
X2765195Y1810615D02*
X2899410D01*
X2764282Y1811528D02*
X2765195Y1810615D01*
X2792730Y1804416D02*
X2801874Y1795272D01*
X2909062D01*
X3108960Y1783588D02*
X3121406Y1771142D01*
Y1754378D02*
Y1771142D01*
X3111500Y1744472D02*
X3121406Y1754378D01*
X3133344Y1734312D02*
Y1782572D01*
X2757170Y1902460D02*
X2770632D01*
X3117596Y1718564D02*
X3133344Y1734312D01*
X3031236Y1718564D02*
X3117596D01*
X2751582Y1650746D02*
X2754122Y1648206D01*
Y1624076D02*
Y1648206D01*
Y1624076D02*
X2766822Y1611376D01*
X2764028Y1811274D02*
X2764282Y1811528D01*
X2762504Y1644904D02*
X2830322D01*
X2861564Y1613662D01*
X3149116Y1819632D02*
X3164169D01*
X3108960Y1859788D02*
X3149116Y1819632D01*
X3133344Y1782572D02*
X3159760Y1808988D01*
X2693924Y1680210D02*
X2706878D01*
X2708656Y1681988D01*
X2711855Y1642392D02*
X2716784Y1647321D01*
X2711855Y1637256D02*
X2716784Y1632327D01*
Y1631950D02*
Y1632327D01*
Y1647321D02*
Y1694180D01*
X2711855Y1637256D02*
Y1642392D01*
X2690368Y1720596D02*
X2716784Y1694180D01*
X2713736Y1628902D02*
X2716784Y1631950D01*
X2723642Y1696466D02*
X2725674Y1698498D01*
X2723642Y1645412D02*
Y1696466D01*
X2718054Y1639824D02*
X2723642Y1645412D01*
X2650998Y1745742D02*
X2659126D01*
X2647442Y1749298D02*
X2650998Y1745742D01*
X2647442Y1749298D02*
Y1766062D01*
X2658872Y1777492D01*
X2725674Y1698498D02*
Y1713484D01*
X2722626Y1716532D02*
X2725674Y1713484D01*
X2717038Y1716532D02*
X2722626D01*
X2713736Y1628902D02*
X2718054D01*
X2712974Y1716532D02*
X2717038D01*
X2710180Y1713738D02*
X2712974Y1716532D01*
X2704084Y1713738D02*
X2710180D01*
X2696567Y1721255D02*
X2704084Y1713738D01*
X2696567Y1721255D02*
Y1770785D01*
X2696210Y1771142D02*
X2696567Y1770785D01*
X2703830Y1707134D02*
X2715768D01*
X2690368Y1720596D02*
X2703830Y1707134D01*
X2690368Y1720596D02*
Y1763268D01*
X1498116Y1981856D02*
Y2126766D01*
X1502664Y1983740D02*
Y2118360D01*
X1509268Y2124964D01*
X1055370Y1981708D02*
X1125343D01*
X1346577Y2202942D01*
X1348740D01*
X1055370Y2007108D02*
X1139952D01*
X1307592Y2174748D01*
Y2186940D01*
X1055370Y1905508D02*
X1072642D01*
X1108964Y1941830D01*
Y1951990D01*
X1347216Y2190242D01*
Y2194814D01*
X1531366Y2277110D02*
X1657858Y2150618D01*
X1417066Y2277110D02*
X1531366D01*
X1417203Y2285121D02*
X1533515D01*
X1045464Y2164588D02*
X1257554D01*
X1313942Y2220976D01*
X1358900D01*
X1446173Y2133703D01*
X1501422D01*
X1509268Y2125857D01*
Y2124964D02*
Y2125857D01*
X1045464Y2101088D02*
X1205484D01*
X1314450Y2210054D01*
X1358646D01*
X1448562Y2120138D01*
X1491488D01*
X1498116Y2126766D01*
X1498854Y2127504D01*
X2700528Y2009394D02*
Y2050796D01*
X2703096Y2056995D02*
X2703199Y2056892D01*
X3062411D01*
X2687169Y2056995D02*
X2703096D01*
X2681986Y1990852D02*
X2700528Y2009394D01*
X2672588Y2042414D02*
X2687169Y2056995D01*
X2698496Y2076704D02*
X3046476D01*
X2635504Y1857756D02*
X2660396Y1832864D01*
Y1812290D02*
Y1832864D01*
X2696107Y1782929D02*
Y1834011D01*
Y1782929D02*
X2706370Y1772666D01*
X2696107Y1834011D02*
X2702072Y1839976D01*
X2630956Y1990114D02*
X2631186Y1990344D01*
X2630956Y1809726D02*
X2638552Y1802130D01*
X2618994Y1651762D02*
X2625066Y1645690D01*
X2631712D01*
X2625852Y1743710D02*
Y1773682D01*
X2620518Y1779016D02*
X2625852Y1773682D01*
X2648204Y1863598D02*
X2664206Y1847596D01*
X2648204Y1863598D02*
Y1879977D01*
X2647593Y1880588D02*
X2648204Y1879977D01*
X2647593Y1880588D02*
Y1885724D01*
X2648204Y1886335D01*
X2635504Y1857756D02*
Y1874897D01*
X2635401Y1875000D02*
X2635504Y1874897D01*
X2635401Y1875000D02*
Y1880136D01*
X2635504Y1880239D01*
X2630853Y1873116D02*
X2630956Y1873013D01*
X2630853Y1873116D02*
Y1882020D01*
X2630956Y1882122D01*
X2357628Y1770126D02*
X2370462D01*
X2380996Y1785874D02*
X2393816D01*
X2439416Y1800218D02*
X2454790D01*
X2412492Y1793360D02*
X2424056D01*
X2649371Y1608431D02*
Y1637820D01*
X2649982Y1638431D01*
Y1719580D01*
X2649371Y1608431D02*
X2671826Y1585976D01*
X2660396Y1713484D02*
Y1724406D01*
X2641092Y1743710D02*
X2660396Y1724406D01*
X2641092Y1743710D02*
Y1780032D01*
X2648966Y1787906D01*
X1437894Y2167636D02*
X1465072D01*
D31*
X2505964Y2099310D02*
X2714244D01*
X2505964Y2038350D02*
Y2099310D01*
X1136650Y1687830D02*
Y1743456D01*
X1184658Y1791464D01*
Y1831596D01*
X2714244Y2099310D02*
X2720848Y2092706D01*
D32*
X2021586Y2088896D02*
X2099056D01*
X2021078Y2088388D02*
X2021586Y2088896D01*
X1665732Y1858772D02*
X1717802Y1910842D01*
X1654302Y1875028D02*
X1704594Y1925320D01*
X1832356Y2038350D02*
X1923478Y2129472D01*
X1840000Y2028468D02*
X1929384Y2117852D01*
D33*
X1849628Y2098548D02*
X1860550D01*
X1801622Y2050542D02*
X1849628Y2098548D01*
X1765808Y2050542D02*
X1801622D01*
X1620012Y1920240D02*
X1680464Y1980692D01*
X1165317Y1970821D02*
X1203995D01*
D34*
X3108960Y2291588D02*
X3159760D01*
X3108960Y2316988D02*
X3159760D01*
D35*
X2996438Y2342842D02*
Y2398014D01*
X2970022Y2424430D02*
X2996438Y2398014D01*
X2106676Y2424430D02*
X2970022D01*
D36*
X1051560Y1579118D02*
D03*
Y2468118D02*
D03*
X1184658Y1831596D02*
D03*
X1122172Y1891792D02*
D03*
X2106676Y2424430D02*
D03*
D37*
X1081528Y1848252D02*
D03*
Y1803252D02*
D03*
X3108960Y1631188D02*
D03*
Y1656588D02*
D03*
Y1681988D02*
D03*
Y1707388D02*
D03*
Y1732788D02*
D03*
Y1758188D02*
D03*
Y1783588D02*
D03*
Y1808988D02*
D03*
Y1834388D02*
D03*
Y1859788D02*
D03*
Y1885188D02*
D03*
Y1910588D02*
D03*
Y1935988D02*
D03*
Y1961388D02*
D03*
Y1986788D02*
D03*
Y2012188D02*
D03*
Y2037588D02*
D03*
Y2062988D02*
D03*
Y2088388D02*
D03*
Y2113788D02*
D03*
Y2139188D02*
D03*
Y2164588D02*
D03*
Y2189988D02*
D03*
Y2215388D02*
D03*
Y2240788D02*
D03*
Y2266188D02*
D03*
Y2291588D02*
D03*
Y2316988D02*
D03*
Y2342388D02*
D03*
Y2367788D02*
D03*
Y2393188D02*
D03*
Y2418588D02*
D03*
X3159760Y1631188D02*
D03*
Y1656588D02*
D03*
Y1681988D02*
D03*
Y1707388D02*
D03*
Y1732788D02*
D03*
Y1758188D02*
D03*
Y1783588D02*
D03*
Y1808988D02*
D03*
Y1834388D02*
D03*
Y1859788D02*
D03*
Y1885188D02*
D03*
Y1910588D02*
D03*
Y1935988D02*
D03*
Y1961388D02*
D03*
Y1986788D02*
D03*
Y2012188D02*
D03*
Y2037588D02*
D03*
Y2062988D02*
D03*
Y2088388D02*
D03*
Y2113788D02*
D03*
Y2139188D02*
D03*
Y2164588D02*
D03*
Y2189988D02*
D03*
Y2215388D02*
D03*
Y2240788D02*
D03*
Y2266188D02*
D03*
Y2291588D02*
D03*
Y2316988D02*
D03*
Y2342388D02*
D03*
Y2367788D02*
D03*
Y2393188D02*
D03*
Y2418588D02*
D03*
D38*
X1106428Y1790702D02*
D03*
Y1860802D02*
D03*
D39*
X1045464Y2164588D02*
D03*
Y2189988D02*
D03*
Y2355088D02*
D03*
Y2380488D02*
D03*
Y1723898D02*
D03*
Y1749298D02*
D03*
Y1660398D02*
D03*
Y1685798D02*
D03*
Y2126488D02*
D03*
Y2101088D02*
D03*
Y2316988D02*
D03*
Y2291588D02*
D03*
Y2228088D02*
D03*
Y2253488D02*
D03*
D40*
X1029970Y2007108D02*
D03*
X1055370D02*
D03*
Y1981708D02*
D03*
X1029970D02*
D03*
Y1956308D02*
D03*
X1055370D02*
D03*
X1029970Y1930908D02*
D03*
X1055370D02*
D03*
X1029970Y1905508D02*
D03*
X1055370D02*
D03*
D41*
X3185160Y1580388D02*
D03*
Y2469388D02*
D03*
D42*
X2489200Y2193442D02*
D03*
Y2339442D02*
D03*
Y2266442D02*
D03*
X2997200Y2228542D02*
D03*
Y2266642D02*
D03*
Y2304742D02*
D03*
D43*
Y2190442D02*
D03*
Y2342842D02*
D03*
D44*
X2005330Y2039366D02*
D03*
X1935734Y2081276D02*
D03*
X1933702Y2014220D02*
D03*
X1112012Y2289048D02*
D03*
X2099056Y2088896D02*
D03*
X2021078Y2088388D02*
D03*
X1840992Y2029206D02*
D03*
X1831594Y2038096D02*
D03*
X1717802Y1910842D02*
D03*
X1704594Y1925320D02*
D03*
X1665732Y1858772D02*
D03*
X1654302Y1875028D02*
D03*
X1136650Y1687830D02*
D03*
Y1743456D02*
D03*
X1860360Y2098866D02*
D03*
X1765808Y2050542D02*
D03*
X1680464Y1980692D02*
D03*
X1620012Y1920240D02*
D03*
X1165317Y1970821D02*
D03*
X1203995D02*
D03*
X1929384Y2117852D02*
D03*
X1923478Y2129472D02*
D03*
X2489454Y2355088D02*
D03*
X2465070Y2327656D02*
D03*
X1528318Y2090928D02*
D03*
X1515618Y2091436D02*
D03*
X2479294Y2209292D02*
D03*
X2478278Y2178304D02*
D03*
X2996438Y2363216D02*
D03*
X3013710Y2355088D02*
D03*
X2979928D02*
D03*
X2985008Y2367280D02*
D03*
X3009138Y2366518D02*
D03*
X2972816Y2366010D02*
D03*
X2996184Y2374138D02*
D03*
X3020314Y2363978D02*
D03*
X2996184Y2170430D02*
D03*
X2982722Y2175764D02*
D03*
X3009900Y2175256D02*
D03*
X3006090Y2163826D02*
D03*
X2985516Y2165096D02*
D03*
X3016758Y2185924D02*
D03*
X2975356Y2186940D02*
D03*
X2971546Y2170684D02*
D03*
X3020314Y2169668D02*
D03*
X1917762Y2090866D02*
D03*
X2006854Y2113534D02*
D03*
X1957578Y2146046D02*
D03*
D45*
X2620518Y1784858D02*
D03*
X2597912Y1810004D02*
D03*
X1215136Y2274316D02*
D03*
X1242822Y2261108D02*
D03*
X1248156Y2267966D02*
D03*
X1271270Y2256790D02*
D03*
X1480500Y2188718D02*
D03*
X1475501Y2181098D02*
D03*
X1470500Y2173986D02*
D03*
X2634488Y2004060D02*
D03*
X2613914Y2002282D02*
D03*
X2624074Y1820418D02*
D03*
X1655195Y2139188D02*
D03*
X2920238Y1820926D02*
D03*
X2947416Y1886712D02*
D03*
X2897632Y1940052D02*
D03*
X2788920Y1939798D02*
D03*
X2869692Y1927098D02*
D03*
X2756154Y1944116D02*
D03*
X2764282Y2024380D02*
D03*
X2855976Y2040382D02*
D03*
X2713228Y1950466D02*
D03*
X2650490Y1811782D02*
D03*
X2666238Y1804670D02*
D03*
X2631186Y1990344D02*
D03*
X2648458Y1963420D02*
D03*
X2655316Y2076704D02*
D03*
X2662682Y2063496D02*
D03*
X2666492Y1910334D02*
D03*
X2948686Y1920494D02*
D03*
X2838704Y1839468D02*
D03*
X2751582Y1824228D02*
D03*
X2687828Y1847088D02*
D03*
X2664206Y1847596D02*
D03*
X2867660Y1795526D02*
D03*
X2838958Y1908556D02*
D03*
Y1900682D02*
D03*
X2830322Y1868678D02*
D03*
X2832100Y1854454D02*
D03*
X2751328Y1956816D02*
D03*
X2702052Y1923288D02*
D03*
X2755392Y1931670D02*
D03*
X2692400Y1897126D02*
D03*
X2702306Y1828546D02*
D03*
X2718857Y1827276D02*
D03*
X2718816Y1839976D02*
D03*
X2805938Y1874520D02*
D03*
X2836926Y2040382D02*
D03*
X2706370Y1761744D02*
D03*
X2714244Y1847850D02*
D03*
X2862580Y1900682D02*
D03*
X2753360Y2040890D02*
D03*
X2752598Y2050288D02*
D03*
X2737612Y2023872D02*
D03*
X2665984Y2014474D02*
D03*
X2898140Y1960880D02*
D03*
X2948940Y1948688D02*
D03*
X2723388Y2010918D02*
D03*
X2660142Y1888490D02*
D03*
X2664968Y1894840D02*
D03*
X2689352Y1706118D02*
D03*
X2697480Y1993138D02*
D03*
X2655570Y1635252D02*
D03*
X2649982Y1719580D02*
D03*
X2780030Y1595120D02*
D03*
X2700528Y1976374D02*
D03*
X2829052Y2063242D02*
D03*
X2942844Y1756918D02*
D03*
X2894838Y1737106D02*
D03*
X2859532Y1688338D02*
D03*
X2854452Y1709420D02*
D03*
X2889504Y1774444D02*
D03*
X2748280Y1739646D02*
D03*
X2806446Y1737868D02*
D03*
X2985008Y1774698D02*
D03*
X2971292Y1737106D02*
D03*
X3030728Y1741678D02*
D03*
X2899664Y1910588D02*
D03*
X2929382Y1924050D02*
D03*
X2871978Y1893062D02*
D03*
X2751836Y1909064D02*
D03*
X2755646Y1765046D02*
D03*
X2920746Y1772412D02*
D03*
X2967228D02*
D03*
X2870962Y1821688D02*
D03*
X2899410Y1810615D02*
D03*
X2909062Y1795272D02*
D03*
X2760980Y1888744D02*
D03*
X2757170Y1902460D02*
D03*
X2751582Y1650746D02*
D03*
X2805938Y1752854D02*
D03*
X2764028Y1811274D02*
D03*
X2762504Y1644904D02*
D03*
X2776728Y1898396D02*
D03*
X2845562Y1730502D02*
D03*
X2792730Y1804416D02*
D03*
X2693924Y1680210D02*
D03*
X2708656Y1681988D02*
D03*
X2659126Y1745742D02*
D03*
X2658872Y1777492D02*
D03*
X2712974Y1794256D02*
D03*
X2718054Y1639824D02*
D03*
Y1628902D02*
D03*
X2718562Y1708658D02*
D03*
X2717038Y1716532D02*
D03*
X2696210Y1771142D02*
D03*
X2690368Y1763268D02*
D03*
X2650490Y1826768D02*
D03*
X2633726Y1731264D02*
D03*
X1498854Y2127504D02*
D03*
X1509268Y2124964D02*
D03*
X1307592Y2186940D02*
D03*
X1348740Y2202942D02*
D03*
X1347216Y2194814D02*
D03*
X1657858Y2150618D02*
D03*
X1417066Y2277110D02*
D03*
X1417203Y2285121D02*
D03*
X2782992Y2090212D02*
D03*
X2700528Y2050796D02*
D03*
X2702306Y2064258D02*
D03*
X2698496Y2076704D02*
D03*
X2784856Y1992630D02*
D03*
X2761996Y1925066D02*
D03*
X2757932Y1675384D02*
D03*
X2664460Y1616515D02*
D03*
X2662428Y1701546D02*
D03*
X2665984Y1788668D02*
D03*
X2743200Y1764538D02*
D03*
X2660396Y1812290D02*
D03*
X2692146Y1877822D02*
D03*
X2847086Y2016760D02*
D03*
X2879852Y2017776D02*
D03*
X2802951Y1891294D02*
D03*
X2749550Y1879346D02*
D03*
X2716208Y1898972D02*
D03*
X2662428Y1867408D02*
D03*
X2782918Y2019874D02*
D03*
X2638552Y1976628D02*
D03*
X2639753Y2035116D02*
D03*
X2641854Y1930341D02*
D03*
X2631712Y1645690D02*
D03*
X2625852Y1743710D02*
D03*
X2715260Y1759966D02*
D03*
X2653792Y1883156D02*
D03*
X2641600Y1877568D02*
D03*
X2624536Y1610446D02*
D03*
X2670810Y1672082D02*
D03*
X2357628Y1770126D02*
D03*
X2380996Y1785874D02*
D03*
X2424938Y1792478D02*
D03*
X2455164Y1799844D02*
D03*
X2660396Y1713484D02*
D03*
X2649220Y1787652D02*
D03*
X1465072Y2167636D02*
D03*
D46*
X2475992Y1814322D02*
D03*
X2506218Y2038350D02*
D03*
X2505964Y2099310D02*
D03*
D47*
X2720848Y2092706D02*
D03*
X2751074Y2001774D02*
D03*
X2755900Y2018030D02*
D03*
X2740152Y1923796D02*
D03*
X2778252Y1833626D02*
D03*
X2753868Y1782064D02*
D03*
X2722118Y1917446D02*
D03*
X2735326Y1839468D02*
D03*
X2721356Y1747266D02*
D03*
X2735580Y1671574D02*
D03*
D48*
X1926590Y2235200D02*
D03*
X1881378Y2229104D02*
D03*
X1902714Y2243582D02*
D03*
X1872996Y2240026D02*
D03*
X1918970Y2246630D02*
D03*
X1883156Y2248154D02*
D03*
X1949704Y2234184D02*
D03*
X1890776Y2238756D02*
D03*
X1912874Y2236216D02*
D03*
X1900682Y2230374D02*
D03*
M02*
