G04 Layer_Physical_Order=1*
G04 Layer_Color=255*
%FSLAX45Y45*%
%MOMM*%
%TF.FileFunction,Copper,L1,Top,Signal*%
%TF.Part,Single*%
G01*
G75*
%TA.AperFunction,SMDPad,CuDef*%
%ADD10O,0.29130X1.80000*%
%ADD11O,1.80000X0.29130*%
%ADD12R,0.70000X0.90000*%
%ADD13R,0.90000X0.70000*%
%ADD14R,0.90000X0.80000*%
%ADD15R,1.50000X2.00000*%
%ADD16R,3.80000X2.00000*%
%ADD17R,1.55000X3.30000*%
%ADD18R,2.18000X1.52000*%
%ADD19R,1.47320X0.35560*%
%ADD20R,0.80000X0.90000*%
%ADD21R,2.15900X2.74300*%
%ADD22R,1.40005X2.99999*%
%ADD23R,0.71120X2.00660*%
%ADD24O,0.55000X1.65000*%
%ADD25O,1.65000X0.55000*%
%ADD26R,1.32080X0.35560*%
%ADD27R,0.80000X2.60000*%
%ADD28R,1.47320X0.55880*%
%TA.AperFunction,Conductor*%
%ADD29C,0.30480*%
%ADD30C,0.25400*%
%ADD31C,1.27000*%
%ADD32C,0.60960*%
%ADD33C,0.50800*%
%ADD34C,1.30000*%
%ADD35C,0.63500*%
%TA.AperFunction,ComponentPad*%
%ADD36C,2.70000*%
%ADD37C,1.72400*%
%ADD38C,1.52400*%
%ADD39C,2.80000*%
%ADD40C,1.60000*%
G04:AMPARAMS|DCode=41|XSize=1.5748mm|YSize=1.5748mm|CornerRadius=0mm|HoleSize=0mm|Usage=FLASHONLY|Rotation=90.000|XOffset=0mm|YOffset=0mm|HoleType=Round|Shape=Octagon|*
%AMOCTAGOND41*
4,1,8,0.39370,0.78740,-0.39370,0.78740,-0.78740,0.39370,-0.78740,-0.39370,-0.39370,-0.78740,0.39370,-0.78740,0.78740,-0.39370,0.78740,0.39370,0.39370,0.78740,0.0*
%
%ADD41OCTAGOND41*%

%ADD42C,1.70000*%
%TA.AperFunction,ViaPad*%
%ADD43C,1.27000*%
%ADD44C,0.63500*%
%ADD45C,0.90000*%
%ADD46C,0.91440*%
%ADD47C,1.01600*%
%ADD48C,1.77800*%
G36*
X32156400Y15239999D02*
X10160000D01*
Y25239980D01*
X32156400D01*
Y15239999D01*
D02*
G37*
%LPC*%
G36*
X31851599Y24849631D02*
X31821216Y24846637D01*
X31791998Y24837775D01*
X31765070Y24823381D01*
X31741467Y24804012D01*
X31722098Y24780409D01*
X31707706Y24753484D01*
X31698843Y24724265D01*
X31695850Y24693880D01*
X31698843Y24663495D01*
X31707706Y24634277D01*
X31722098Y24607350D01*
X31741467Y24583748D01*
X31765070Y24564378D01*
X31791998Y24549986D01*
X31821216Y24541122D01*
X31851599Y24538130D01*
X31881985Y24541122D01*
X31911203Y24549986D01*
X31938129Y24564378D01*
X31961731Y24583748D01*
X31981100Y24607350D01*
X31995493Y24634277D01*
X32004358Y24663495D01*
X32007349Y24693880D01*
X32004358Y24724265D01*
X31995493Y24753484D01*
X31981100Y24780409D01*
X31961731Y24804012D01*
X31938129Y24823381D01*
X31911203Y24837775D01*
X31881985Y24846637D01*
X31851599Y24849631D01*
D02*
G37*
G36*
X10515600Y24836629D02*
X10485273Y24833643D01*
X10456112Y24824796D01*
X10429237Y24810431D01*
X10405681Y24791100D01*
X10386349Y24767543D01*
X10371984Y24740668D01*
X10363138Y24711507D01*
X10360151Y24681180D01*
X10363138Y24650853D01*
X10371984Y24621692D01*
X10386349Y24594817D01*
X10405681Y24571262D01*
X10429237Y24551929D01*
X10456112Y24537564D01*
X10485273Y24528719D01*
X10515600Y24525731D01*
X10545927Y24528719D01*
X10575088Y24537564D01*
X10601963Y24551929D01*
X10625519Y24571262D01*
X10644851Y24594817D01*
X10659216Y24621692D01*
X10668062Y24650853D01*
X10671049Y24681180D01*
X10668062Y24711507D01*
X10659216Y24740668D01*
X10644851Y24767543D01*
X10625519Y24791100D01*
X10601963Y24810431D01*
X10575088Y24824796D01*
X10545927Y24833643D01*
X10515600Y24836629D01*
D02*
G37*
G36*
X20484441Y24419220D02*
X20299440D01*
Y24318398D01*
X19941080D01*
Y24384979D01*
X19693080D01*
Y24318398D01*
X19227800D01*
X19207307Y24315698D01*
X19188211Y24307790D01*
X19171812Y24295207D01*
X18371384Y23494777D01*
X18011154D01*
Y23580598D01*
X17841148D01*
Y23250600D01*
X18011154D01*
Y23336423D01*
X18787904D01*
X18839220Y23285106D01*
Y23267979D01*
X18672913D01*
X18661430Y23263225D01*
X18656676Y23251744D01*
Y22872987D01*
X17543707D01*
X17294128Y23122565D01*
Y23250600D01*
X17299954D01*
Y23580598D01*
X17129948D01*
Y23332793D01*
X15095760D01*
Y23361960D01*
X15071593D01*
Y23480879D01*
X15071593Y23480881D01*
X15069244Y23492679D01*
X15062563Y23502682D01*
X15062561Y23502682D01*
X14758882Y23806361D01*
X14748878Y23813045D01*
X14737080Y23815392D01*
X14737079Y23815392D01*
X11151140D01*
Y23844560D01*
X11142331D01*
Y23874660D01*
X11139196Y23890424D01*
X11130267Y23903787D01*
X11037487Y23996567D01*
X11024123Y24005496D01*
X11008360Y24008630D01*
X10375900D01*
X10360137Y24005496D01*
X10346773Y23996567D01*
X10305113Y23954907D01*
X10296184Y23941544D01*
X10293049Y23925780D01*
Y22198080D01*
X10296184Y22182317D01*
X10305113Y22168953D01*
X10467213Y22006854D01*
X10461281Y21994826D01*
X10454640Y21995699D01*
X10429840Y21992435D01*
X10406730Y21982861D01*
X10386885Y21967635D01*
X10371658Y21947791D01*
X10362085Y21924680D01*
X10358821Y21899879D01*
X10362085Y21875079D01*
X10371658Y21851970D01*
X10386885Y21832124D01*
X10406730Y21816898D01*
X10429840Y21807326D01*
X10454640Y21804060D01*
X10479440Y21807326D01*
X10502550Y21816898D01*
X10522395Y21832124D01*
X10537622Y21851970D01*
X10538259Y21853510D01*
X10883360D01*
Y21809399D01*
X10983360D01*
Y21894553D01*
X10995093Y21899413D01*
X11027458Y21867049D01*
X11024389Y21851620D01*
Y21327420D01*
X11015580D01*
Y21207420D01*
X11067327D01*
X11805389Y20469357D01*
Y19136110D01*
X11723630D01*
Y18831810D01*
X11767403D01*
Y18315961D01*
X11770101Y18295467D01*
X11778010Y18276370D01*
X11790593Y18259973D01*
X11806991Y18247391D01*
X11826087Y18239481D01*
X11846580Y18236783D01*
X11867073Y18239481D01*
X11886169Y18247391D01*
X11902567Y18259973D01*
X11915150Y18276370D01*
X11923059Y18295467D01*
X11925757Y18315961D01*
Y18831810D01*
X11969530D01*
Y19136110D01*
X11887771D01*
Y20486420D01*
X11884636Y20502184D01*
X11875707Y20515547D01*
X11115580Y21275674D01*
Y21327420D01*
X11106772D01*
Y21809399D01*
X11133360D01*
Y21929401D01*
X11081614D01*
X10962627Y22048387D01*
X10949264Y22057317D01*
X10933500Y22060451D01*
X10530122D01*
X10406204Y22184370D01*
X10413398Y22195135D01*
X10429840Y22188326D01*
X10454640Y22185062D01*
X10479440Y22188326D01*
X10502550Y22197897D01*
X10522395Y22213126D01*
X10537622Y22232970D01*
X10545665Y22252390D01*
X10822400D01*
Y22233580D01*
X10922400D01*
Y22353580D01*
X10822400D01*
Y22334772D01*
X10533032D01*
X10522395Y22348634D01*
X10502550Y22363863D01*
X10479440Y22373434D01*
X10454640Y22376698D01*
X10429840Y22373434D01*
X10406730Y22363863D01*
X10388131Y22349591D01*
X10377451Y22351837D01*
X10375431Y22352522D01*
Y22463237D01*
X10377451Y22463924D01*
X10388131Y22466170D01*
X10406730Y22451898D01*
X10429840Y22442325D01*
X10454640Y22439061D01*
X10479440Y22442325D01*
X10502550Y22451898D01*
X10522395Y22467126D01*
X10537622Y22486971D01*
X10547195Y22510080D01*
X10550459Y22534880D01*
X10547195Y22559680D01*
X10544412Y22566399D01*
X10560602Y22582590D01*
X11038840D01*
X11054603Y22585724D01*
X11067967Y22594653D01*
X11175282Y22701968D01*
X11463020D01*
X11478783Y22705104D01*
X11486679Y22710381D01*
X11528468D01*
Y22669740D01*
X11528467Y22669740D01*
X11530815Y22657941D01*
X11537498Y22647939D01*
X11669818Y22515619D01*
X11669818Y22515617D01*
X11679821Y22508936D01*
X11691620Y22506589D01*
X12682219D01*
X12682220Y22506587D01*
X12694019Y22508936D01*
X12704022Y22515617D01*
X12709312Y22520908D01*
X12712700Y22520235D01*
X12730941Y22523862D01*
X12746405Y22534195D01*
X12756738Y22549660D01*
X12760366Y22567900D01*
X12756738Y22586140D01*
X12746405Y22601605D01*
X12730941Y22611938D01*
X12712700Y22615565D01*
X12694459Y22611938D01*
X12678995Y22601605D01*
X12668662Y22586140D01*
X12665104Y22568253D01*
X12469391D01*
X12464315Y22580952D01*
X12472258Y22592839D01*
X12475886Y22611079D01*
X12474002Y22620547D01*
X12481441Y22631813D01*
X12483608Y22632402D01*
X12499801Y22635622D01*
X12515265Y22645955D01*
X12525598Y22661420D01*
X12529226Y22679660D01*
X12525598Y22697900D01*
X12515265Y22713365D01*
X12499801Y22723698D01*
X12481560Y22727325D01*
X12463319Y22723698D01*
X12447855Y22713365D01*
X12445936Y22710492D01*
X12199229D01*
X12193242Y22721693D01*
X12195398Y22724919D01*
X12199026Y22743159D01*
X12195398Y22761401D01*
X12185065Y22776865D01*
X12169601Y22787198D01*
X12151360Y22790826D01*
X12133119Y22787198D01*
X12117655Y22776865D01*
X12115736Y22773991D01*
X11921514D01*
X11909820Y22776421D01*
Y22839920D01*
Y22905479D01*
X11909820Y22905479D01*
X11909820D01*
X11915466Y22915782D01*
X12753411Y23753728D01*
X14724309D01*
X15009927Y23468109D01*
Y23361960D01*
X14985760D01*
Y23241962D01*
X14985760D01*
X14987105Y23238713D01*
X14981728Y23230843D01*
X14967287Y23229659D01*
X14931592Y23265350D01*
Y23301961D01*
X14929245Y23313759D01*
X14922562Y23323763D01*
X14912560Y23330446D01*
X14900760Y23332793D01*
X14888960Y23330446D01*
X14878958Y23323763D01*
X14872275Y23313759D01*
X14869928Y23301961D01*
Y23252580D01*
X14869928Y23252580D01*
X14872275Y23240781D01*
X14878958Y23230779D01*
X14924181Y23185558D01*
Y23168488D01*
X14911479Y23160490D01*
X14905000Y23161778D01*
X14893465Y23159483D01*
X14883685Y23152950D01*
X14876315D01*
X14866536Y23159483D01*
X14855000Y23161778D01*
X14843465Y23159483D01*
X14833685Y23152950D01*
X14826315D01*
X14816536Y23159483D01*
X14805000Y23161778D01*
X14793465Y23159483D01*
X14789149Y23156601D01*
X14780000Y23153998D01*
X14770851Y23156601D01*
X14766536Y23159483D01*
X14755000Y23161778D01*
X14743465Y23159483D01*
X14733685Y23152950D01*
X14726315D01*
X14716536Y23159483D01*
X14705000Y23161778D01*
X14693465Y23159483D01*
X14689149Y23156601D01*
X14680000Y23153998D01*
X14670851Y23156601D01*
X14666536Y23159483D01*
X14655000Y23161778D01*
X14643465Y23159483D01*
X14633685Y23152950D01*
X14626315D01*
X14616536Y23159483D01*
X14605000Y23161778D01*
X14593465Y23159483D01*
X14583685Y23152950D01*
X14576315D01*
X14566536Y23159483D01*
X14555000Y23161778D01*
X14543465Y23159483D01*
X14539149Y23156601D01*
X14530000Y23153998D01*
X14520851Y23156601D01*
X14516536Y23159483D01*
X14505000Y23161778D01*
X14493465Y23159483D01*
X14483685Y23152950D01*
X14476315D01*
X14466536Y23159483D01*
X14455000Y23161778D01*
X14443465Y23159483D01*
X14439149Y23156601D01*
X14430000Y23153998D01*
X14420851Y23156601D01*
X14416536Y23159483D01*
X14405000Y23161778D01*
X14393465Y23159483D01*
X14383685Y23152950D01*
X14376315D01*
X14366536Y23159483D01*
X14355000Y23161778D01*
X14343465Y23159483D01*
X14333685Y23152950D01*
X14326315D01*
X14316536Y23159483D01*
X14305000Y23161778D01*
X14293465Y23159483D01*
X14289149Y23156601D01*
X14280000Y23153998D01*
X14270851Y23156601D01*
X14266536Y23159483D01*
X14255000Y23161778D01*
X14243465Y23159483D01*
X14233685Y23152950D01*
X14226315D01*
X14216536Y23159483D01*
X14205000Y23161778D01*
X14193465Y23159483D01*
X14189149Y23156601D01*
X14180000Y23153998D01*
X14170851Y23156601D01*
X14166536Y23159483D01*
X14155000Y23161778D01*
X14148534Y23160493D01*
X14136646Y23167986D01*
X14135876Y23180394D01*
X14216263Y23260780D01*
X14248441D01*
Y23370779D01*
X14128439D01*
Y23260780D01*
X14128439Y23260780D01*
X14128439D01*
X14120291Y23252014D01*
X14083199Y23214923D01*
X14076517Y23204919D01*
X14074168Y23193121D01*
X14074168Y23193120D01*
Y23101198D01*
X14074857Y23097743D01*
Y22980765D01*
X14077151Y22969229D01*
X14078651Y22966983D01*
X14071863Y22954283D01*
X14056499D01*
X14040532Y22970248D01*
Y23093909D01*
X14040533Y23093910D01*
X14039932Y23096930D01*
X14040781Y23101198D01*
X14037646Y23116962D01*
X14035144Y23120706D01*
Y23131635D01*
X14032849Y23143172D01*
X14026315Y23152950D01*
X14016536Y23159483D01*
X14005000Y23161778D01*
X13998546Y23160495D01*
X13953891Y23205150D01*
Y23236880D01*
X13967700D01*
Y23356880D01*
X13857700D01*
Y23236880D01*
X13871507D01*
Y23188087D01*
X13874644Y23172325D01*
X13883572Y23158961D01*
X13970464Y23072072D01*
X13974857Y23069136D01*
Y22980765D01*
X13977151Y22969229D01*
X13983685Y22959450D01*
X13984047Y22959209D01*
Y22958553D01*
X13984047Y22958551D01*
X13986197Y22947743D01*
X13992319Y22938580D01*
X14024829Y22906070D01*
X14024831Y22906068D01*
X14033992Y22899947D01*
X14044800Y22897797D01*
X14122124D01*
X14128516Y22885097D01*
X14126253Y22882043D01*
X13962305D01*
X13954295Y22894743D01*
X13955579Y22901199D01*
X13953284Y22912737D01*
X13946750Y22922514D01*
X13936971Y22929050D01*
X13925435Y22931345D01*
X13774565D01*
X13763029Y22929050D01*
X13753250Y22922514D01*
X13746716Y22912737D01*
X13744421Y22901199D01*
X13746716Y22889664D01*
X13749599Y22885349D01*
X13752202Y22876199D01*
X13749599Y22867052D01*
X13746716Y22862737D01*
X13744421Y22851199D01*
X13746716Y22839664D01*
X13753250Y22829884D01*
Y22822514D01*
X13746716Y22812737D01*
X13744421Y22801199D01*
X13746716Y22789664D01*
X13753250Y22779884D01*
Y22772514D01*
X13746716Y22762737D01*
X13744421Y22751199D01*
X13746716Y22739664D01*
X13749599Y22735349D01*
X13752202Y22726199D01*
X13749599Y22717052D01*
X13746716Y22712737D01*
X13744421Y22701199D01*
X13746716Y22689664D01*
X13753250Y22679884D01*
Y22672514D01*
X13746716Y22662737D01*
X13744421Y22651199D01*
X13746716Y22639664D01*
X13749599Y22635349D01*
X13752202Y22626199D01*
X13749599Y22617052D01*
X13746716Y22612737D01*
X13744421Y22601199D01*
X13746716Y22589664D01*
X13753250Y22579884D01*
Y22572514D01*
X13746716Y22562737D01*
X13744421Y22551199D01*
X13746716Y22539664D01*
X13753250Y22529884D01*
Y22522514D01*
X13746716Y22512737D01*
X13744421Y22501199D01*
X13746716Y22489664D01*
X13749599Y22485349D01*
X13752202Y22476199D01*
X13749599Y22467052D01*
X13746716Y22462737D01*
X13744421Y22451199D01*
X13746716Y22439664D01*
X13753250Y22429884D01*
X13763029Y22423351D01*
X13774565Y22421056D01*
X13801604D01*
X13805002Y22420380D01*
X14546356D01*
X14765656Y22201082D01*
X14237959Y21673387D01*
X14231277Y21663385D01*
X14229788Y21655904D01*
X14219530Y21649991D01*
X14216556Y21649487D01*
X14216229Y21649545D01*
X14205000Y21651779D01*
X14193465Y21649484D01*
X14189149Y21646600D01*
X14180000Y21643999D01*
X14170851Y21646600D01*
X14166536Y21649484D01*
X14155000Y21651779D01*
X14143465Y21649484D01*
X14133685Y21642950D01*
X14126315D01*
X14116536Y21649484D01*
X14105000Y21651779D01*
X14093465Y21649484D01*
X14083685Y21642950D01*
X14076315D01*
X14066536Y21649484D01*
X14055000Y21651779D01*
X14043465Y21649484D01*
X14039149Y21646600D01*
X14030000Y21643999D01*
X14020851Y21646600D01*
X14016536Y21649484D01*
X14005000Y21651779D01*
X13993465Y21649484D01*
X13983685Y21642950D01*
X13977151Y21633171D01*
X13974857Y21621635D01*
Y21470766D01*
X13977151Y21459229D01*
X13983685Y21449451D01*
X13993465Y21442915D01*
X14005000Y21440620D01*
X14016536Y21442915D01*
X14020851Y21445799D01*
X14030000Y21448402D01*
X14039149Y21445799D01*
X14043465Y21442915D01*
X14055000Y21440620D01*
X14066536Y21442915D01*
X14076315Y21449451D01*
X14083685D01*
X14093465Y21442915D01*
X14105000Y21440620D01*
X14116536Y21442915D01*
X14126315Y21449451D01*
X14133685D01*
X14143465Y21442915D01*
X14155000Y21440620D01*
X14164058Y21442422D01*
X14172769Y21437767D01*
X14176758Y21434473D01*
Y21407439D01*
X14171899Y21402580D01*
X14072560D01*
Y21380823D01*
X13684322D01*
X13684320Y21380823D01*
X13673512Y21378673D01*
X13664349Y21372551D01*
X13664349Y21372549D01*
X12057660Y19765862D01*
X12039949Y19769385D01*
X12016538Y19764728D01*
X11996692Y19751466D01*
X11983430Y19731619D01*
X11978774Y19708209D01*
X11983430Y19684798D01*
X11996692Y19664952D01*
X12016538Y19651691D01*
X12039949Y19647034D01*
X12063360Y19651691D01*
X12083207Y19664952D01*
X12096468Y19684798D01*
X12101125Y19708209D01*
X12097602Y19725920D01*
X13696017Y21324336D01*
X14072560D01*
Y21302580D01*
X14174658D01*
X14179919Y21289880D01*
X14142619Y21252580D01*
X14072560D01*
Y21152580D01*
X14192560D01*
Y21222638D01*
X14274957Y21305035D01*
X14274959Y21305037D01*
X14281081Y21314200D01*
X14283231Y21325008D01*
X14283231Y21325009D01*
Y21461147D01*
X14285144Y21470766D01*
Y21489532D01*
X14288248Y21494176D01*
X14290594Y21505975D01*
X14290594Y21505977D01*
Y21638814D01*
X14822148Y22170367D01*
X15247704D01*
X15255708Y22157668D01*
X15254420Y22151199D01*
X15256715Y22139664D01*
X15259599Y22135349D01*
X15262202Y22126199D01*
X15259599Y22117052D01*
X15256715Y22112737D01*
X15254420Y22101199D01*
X15256715Y22089664D01*
X15263251Y22079884D01*
Y22072514D01*
X15256715Y22062737D01*
X15254420Y22051199D01*
X15256715Y22039664D01*
X15263251Y22029884D01*
Y22022514D01*
X15256715Y22012737D01*
X15254420Y22001199D01*
X15256715Y21989664D01*
X15259599Y21985349D01*
X15262202Y21976199D01*
X15259599Y21967052D01*
X15256715Y21962737D01*
X15254420Y21951199D01*
X15256715Y21939664D01*
X15263251Y21929884D01*
Y21922514D01*
X15256715Y21912737D01*
X15254420Y21901199D01*
X15256715Y21889664D01*
X15263251Y21879884D01*
Y21872514D01*
X15256715Y21862737D01*
X15254420Y21851199D01*
X15256715Y21839664D01*
X15259599Y21835350D01*
X15262202Y21826199D01*
X15259599Y21817052D01*
X15256715Y21812737D01*
X15254420Y21801199D01*
X15256715Y21789664D01*
X15263251Y21779884D01*
Y21772514D01*
X15256715Y21762737D01*
X15254420Y21751199D01*
X15256715Y21739664D01*
X15259599Y21735349D01*
X15262202Y21726199D01*
X15259599Y21717052D01*
X15256715Y21712737D01*
X15254420Y21701199D01*
X15256715Y21689664D01*
X15263251Y21679884D01*
X15273029Y21673351D01*
X15284566Y21671056D01*
X15435435D01*
X15446971Y21673351D01*
X15456750Y21679884D01*
X15463284Y21689664D01*
X15465579Y21701199D01*
X15463284Y21712737D01*
X15460400Y21717052D01*
X15457797Y21726199D01*
X15460400Y21735349D01*
X15463284Y21739664D01*
X15465579Y21751199D01*
X15463284Y21762737D01*
X15456750Y21772514D01*
Y21779884D01*
X15463284Y21789664D01*
X15465579Y21801199D01*
X15463284Y21812737D01*
X15460400Y21817052D01*
X15457797Y21826199D01*
X15460400Y21835350D01*
X15463284Y21839664D01*
X15465579Y21851199D01*
X15463284Y21862737D01*
X15456750Y21872514D01*
Y21879884D01*
X15463284Y21889664D01*
X15465579Y21901199D01*
X15463284Y21912737D01*
X15456750Y21922514D01*
Y21929884D01*
X15463284Y21939664D01*
X15465579Y21951199D01*
X15463284Y21962737D01*
X15460400Y21967052D01*
X15457797Y21976199D01*
X15460400Y21985349D01*
X15463284Y21989664D01*
X15465579Y22001199D01*
X15463284Y22012737D01*
X15456750Y22022514D01*
Y22029884D01*
X15463284Y22039664D01*
X15465579Y22051199D01*
X15463284Y22062737D01*
X15456750Y22072514D01*
Y22079884D01*
X15463284Y22089664D01*
X15465579Y22101199D01*
X15463284Y22112737D01*
X15460400Y22117052D01*
X15457797Y22126199D01*
X15460400Y22135349D01*
X15463284Y22139664D01*
X15465579Y22151199D01*
X15463284Y22162737D01*
X15456750Y22172514D01*
Y22179884D01*
X15463284Y22189664D01*
X15465579Y22201199D01*
X15463284Y22212737D01*
X15456750Y22222514D01*
X15446971Y22229050D01*
X15435435Y22231345D01*
X15408459D01*
X15404997Y22232031D01*
X15035831D01*
Y22926041D01*
Y22943904D01*
X15048532Y22951907D01*
X15055000Y22950621D01*
X15066536Y22952916D01*
X15070850Y22955798D01*
X15080000Y22958401D01*
X15089149Y22955798D01*
X15093465Y22952916D01*
X15105000Y22950621D01*
X15116536Y22952916D01*
X15126315Y22959450D01*
X15133685D01*
X15143465Y22952916D01*
X15155000Y22950621D01*
X15166536Y22952916D01*
X15170851Y22955798D01*
X15180000Y22958401D01*
X15189149Y22955798D01*
X15193465Y22952916D01*
X15205000Y22950621D01*
X15216536Y22952916D01*
X15226315Y22959450D01*
X15232849Y22969229D01*
X15235144Y22980765D01*
Y23131635D01*
X15232849Y23143172D01*
X15226315Y23152950D01*
X15216536Y23159483D01*
X15205000Y23161778D01*
X15193465Y23159483D01*
X15189149Y23156601D01*
X15180000Y23153998D01*
X15170851Y23156601D01*
X15166536Y23159483D01*
X15155000Y23161778D01*
X15143465Y23159483D01*
X15133685Y23152950D01*
X15126315D01*
X15116536Y23159483D01*
X15105000Y23161778D01*
X15093465Y23159483D01*
X15089149Y23156601D01*
X15080000Y23153998D01*
X15070850Y23156601D01*
X15066536Y23159483D01*
X15055000Y23161778D01*
X15053307Y23161443D01*
X15040605Y23171686D01*
Y23193674D01*
X15062561Y23215630D01*
X15062563Y23215630D01*
X15069244Y23225632D01*
X15071593Y23237431D01*
Y23241960D01*
X15095760D01*
Y23271127D01*
X17129948D01*
Y23250600D01*
X17135774D01*
Y23089767D01*
X17138472Y23069276D01*
X17146382Y23050180D01*
X17158965Y23033781D01*
X17454922Y22737823D01*
X17471321Y22725240D01*
X17490417Y22717329D01*
X17510910Y22714632D01*
X18656676D01*
Y22247861D01*
X18661430Y22236378D01*
X18672913Y22231624D01*
X18801244D01*
X18813780Y22229131D01*
X18826315Y22231624D01*
X19655891D01*
X19667372Y22236378D01*
X19672128Y22247861D01*
Y22712827D01*
X22516739D01*
X24292453Y20937112D01*
X24308852Y20924530D01*
X24327946Y20916621D01*
X24348441Y20913922D01*
X24348442Y20913924D01*
X24992151D01*
X25007242Y20902344D01*
X25032516Y20891875D01*
X25059641Y20888303D01*
X25086763Y20891875D01*
X25112038Y20902344D01*
X25133742Y20918999D01*
X25150397Y20940701D01*
X25155038Y20951909D01*
X25351740D01*
X25367503Y20955045D01*
X25380867Y20963972D01*
X25780042Y21363148D01*
X25880917D01*
X25885776Y21351414D01*
X25355632Y20821271D01*
X21146687D01*
X21046210Y20921748D01*
X21036459Y20928264D01*
X21033817Y20932217D01*
X21013971Y20945479D01*
X20990559Y20950134D01*
X20967149Y20945479D01*
X20947302Y20932217D01*
X20934041Y20912370D01*
X20929385Y20888960D01*
X20934041Y20865549D01*
X20947302Y20845703D01*
X20967149Y20832442D01*
X20990559Y20827785D01*
X21005956Y20830847D01*
X21080057Y20756746D01*
X21075195Y20745012D01*
X20979991D01*
X20298622Y21426382D01*
X20288618Y21433066D01*
X20276820Y21435413D01*
X20276817Y21435413D01*
X20005580D01*
Y21464580D01*
X19905580D01*
Y21344580D01*
X20005580D01*
Y21373747D01*
X20264047D01*
X20310376Y21327420D01*
X20305115Y21314722D01*
X20304131Y21314720D01*
Y21314720D01*
X20303453Y21314720D01*
X20212920D01*
Y21207420D01*
X20212920Y21202534D01*
X20200220Y21201283D01*
X20198625Y21209299D01*
X20191942Y21219302D01*
X20162920Y21248325D01*
Y21314720D01*
X20062920D01*
Y21259492D01*
X19706586D01*
X19702019Y21270934D01*
X19702357Y21272992D01*
X19707449Y21277827D01*
X19709659D01*
X19709660Y21277827D01*
X19721458Y21280174D01*
X19731462Y21286858D01*
X19789185Y21344580D01*
X19855580D01*
Y21464580D01*
X19755580D01*
Y21398184D01*
X19698187Y21340791D01*
X19686363Y21348694D01*
X19669780Y21351991D01*
X19559779D01*
X19543198Y21348694D01*
X19529140Y21339301D01*
X19519746Y21325243D01*
X19516447Y21308659D01*
X19519746Y21292078D01*
X19529140Y21278020D01*
X19533643Y21275011D01*
Y21262309D01*
X19529140Y21259300D01*
X19519746Y21245242D01*
X19516447Y21228661D01*
X19519746Y21212077D01*
X19529140Y21198019D01*
X19533643Y21195010D01*
Y21182310D01*
X19529140Y21179300D01*
X19519746Y21165242D01*
X19516447Y21148660D01*
X19519746Y21132077D01*
X19529140Y21118019D01*
X19533643Y21115010D01*
Y21102310D01*
X19529140Y21099300D01*
X19519746Y21085243D01*
X19516447Y21068660D01*
X19519746Y21052077D01*
X19529140Y21038019D01*
X19533643Y21035010D01*
Y21022310D01*
X19529140Y21019299D01*
X19519746Y21005241D01*
X19516447Y20988660D01*
X19519746Y20972076D01*
X19526111Y20962550D01*
X19520244Y20949850D01*
X19222258D01*
X19220879Y20951917D01*
X19201031Y20965179D01*
X19177620Y20969835D01*
X19175183Y20969350D01*
X19115971Y21028561D01*
Y21354124D01*
X19128671Y21359991D01*
X19138197Y21353625D01*
X19154781Y21350327D01*
X19171362Y21353625D01*
X19175710Y21356531D01*
X19188409Y21349742D01*
Y21333318D01*
X19178261Y21318130D01*
X19173605Y21294720D01*
X19178261Y21271309D01*
X19191522Y21251462D01*
X19211369Y21238200D01*
X19234779Y21233545D01*
X19249808Y21236533D01*
X19254762Y21224570D01*
X19250583Y21221777D01*
X19237321Y21201932D01*
X19232664Y21178520D01*
X19237321Y21155109D01*
X19250583Y21135263D01*
X19270428Y21122002D01*
X19293840Y21117345D01*
X19317252Y21122002D01*
X19337097Y21135263D01*
X19350359Y21155109D01*
X19353922Y21173024D01*
X19358049Y21177150D01*
X19358049Y21177151D01*
X19368102Y21192195D01*
X19371631Y21209940D01*
X19371631Y21209941D01*
Y21332198D01*
X19369212Y21344354D01*
X19373615Y21348897D01*
X19379991Y21353268D01*
X19394780Y21350327D01*
X19411362Y21353625D01*
X19425420Y21363019D01*
X19434814Y21377077D01*
X19438112Y21393660D01*
Y21503661D01*
X19434814Y21520242D01*
X19425420Y21534302D01*
X19411362Y21543694D01*
X19394780Y21546992D01*
X19378197Y21543694D01*
X19364139Y21534302D01*
X19361130Y21529797D01*
X19348430D01*
X19345421Y21534302D01*
X19331363Y21543694D01*
X19314780Y21546992D01*
X19298196Y21543694D01*
X19284138Y21534302D01*
X19281129Y21529797D01*
X19268430D01*
X19265421Y21534302D01*
X19251363Y21543694D01*
X19234779Y21546992D01*
X19218198Y21543694D01*
X19204140Y21534302D01*
X19201131Y21529797D01*
X19188429D01*
X19185420Y21534302D01*
X19171362Y21543694D01*
X19154781Y21546992D01*
X19138197Y21543694D01*
X19124139Y21534302D01*
X19121130Y21529797D01*
X19108430D01*
X19105421Y21534302D01*
X19091364Y21543694D01*
X19074780Y21546992D01*
X19058197Y21543694D01*
X19044139Y21534302D01*
X19041130Y21529797D01*
X19028430D01*
X19025420Y21534302D01*
X19011363Y21543694D01*
X18994780Y21546992D01*
X18978197Y21543694D01*
X18964139Y21534302D01*
X18961130Y21529797D01*
X18948430D01*
X18945419Y21534302D01*
X18931361Y21543694D01*
X18914780Y21546992D01*
X18898196Y21543694D01*
X18884138Y21534302D01*
X18874747Y21520242D01*
X18871448Y21503661D01*
Y21393660D01*
X18874747Y21377077D01*
X18884138Y21363019D01*
X18898196Y21353625D01*
X18914780Y21350327D01*
X18931361Y21353625D01*
X18945419Y21363019D01*
X18948430Y21367523D01*
X18961130D01*
X18964139Y21363019D01*
X18978197Y21353625D01*
X18994780Y21350327D01*
X19011363Y21353625D01*
X19020889Y21359991D01*
X19033589Y21354124D01*
Y21011501D01*
X19036723Y20995737D01*
X19045653Y20982373D01*
X19116930Y20911098D01*
X19116444Y20908659D01*
X19117567Y20903020D01*
X18965652Y20751106D01*
X18956725Y20737743D01*
X18953587Y20721980D01*
Y20703197D01*
X18940887Y20697330D01*
X18931361Y20703694D01*
X18914780Y20706992D01*
X18898196Y20703694D01*
X18884138Y20694299D01*
X18874747Y20680243D01*
X18871448Y20663660D01*
Y20639491D01*
X17347939D01*
X16598940Y21388492D01*
X16599612Y21391879D01*
X16595984Y21410121D01*
X16585652Y21425584D01*
X16570187Y21435918D01*
X16551947Y21439546D01*
X16533707Y21435918D01*
X16518242Y21425584D01*
X16507909Y21410121D01*
X16504282Y21391879D01*
X16507909Y21373639D01*
X16518242Y21358176D01*
X16533707Y21347842D01*
X16551947Y21344214D01*
X16555334Y21344888D01*
X17313365Y20586859D01*
X17313365Y20586858D01*
X17323367Y20580174D01*
X17335167Y20577827D01*
X17335168Y20577827D01*
X17649449D01*
X17650700Y20565128D01*
X17634669Y20561938D01*
X17614822Y20548677D01*
X17604790Y20533662D01*
X17503140D01*
X17492332Y20531512D01*
X17483170Y20525391D01*
X17483170Y20525391D01*
X16822351Y19864574D01*
X16804640Y19868095D01*
X16781229Y19863438D01*
X16761383Y19850177D01*
X16748122Y19830331D01*
X16743465Y19806920D01*
X16748122Y19783508D01*
X16761383Y19763663D01*
X16781229Y19750401D01*
X16804640Y19745744D01*
X16828052Y19750401D01*
X16847897Y19763663D01*
X16861159Y19783508D01*
X16865816Y19806920D01*
X16862292Y19824631D01*
X17514838Y20477177D01*
X17604790D01*
X17614822Y20462163D01*
X17634669Y20448901D01*
X17658080Y20444244D01*
X17681491Y20448901D01*
X17701337Y20462163D01*
X17714600Y20482008D01*
X17719255Y20505420D01*
X17714600Y20528831D01*
X17701337Y20548677D01*
X17681491Y20561938D01*
X17665460Y20565128D01*
X17666711Y20577827D01*
X18871448D01*
Y20553661D01*
X18874747Y20537077D01*
X18884138Y20523019D01*
X18898196Y20513626D01*
X18914780Y20510327D01*
X18931361Y20513626D01*
X18940887Y20519991D01*
X18953587Y20514124D01*
Y20476302D01*
X18952766Y20475481D01*
X18896021D01*
Y20365480D01*
X19016020D01*
Y20422226D01*
X19023907Y20430115D01*
X19031248Y20441100D01*
X19043121Y20439320D01*
X19043948Y20438988D01*
Y20139111D01*
X19034479Y20129642D01*
X19027795Y20119640D01*
X19025447Y20107840D01*
X19025449Y20107838D01*
Y20092979D01*
X19006281D01*
Y20026584D01*
X18959479Y19979782D01*
X18952795Y19969778D01*
X18950447Y19957980D01*
X18950449Y19957979D01*
Y19934140D01*
X18926280D01*
Y19644141D01*
X19036279D01*
Y19934140D01*
X19016051D01*
X19013744Y19946840D01*
X19039883Y19972980D01*
X19106281D01*
Y20092979D01*
X19102985D01*
X19098418Y20101222D01*
X19097345Y20105679D01*
X19103265Y20114542D01*
X19105612Y20126340D01*
Y20516853D01*
X19117055Y20521420D01*
X19119112Y20521082D01*
X19123949Y20515990D01*
Y20084480D01*
X19123947Y20084480D01*
X19126294Y20072681D01*
X19132977Y20062679D01*
X19156281Y20039375D01*
Y19972980D01*
X19222676D01*
X19248816Y19946840D01*
X19246509Y19934140D01*
X19226280D01*
Y19644141D01*
X19336279D01*
Y19934140D01*
X19312112D01*
Y19957980D01*
X19309766Y19969778D01*
X19303082Y19979781D01*
X19303081Y19979782D01*
X19256281Y20026584D01*
Y20092979D01*
X19189883D01*
X19185612Y20097250D01*
Y20523306D01*
X19194814Y20537077D01*
X19198112Y20553661D01*
Y20663660D01*
X19194814Y20680243D01*
X19185420Y20694299D01*
X19171362Y20703694D01*
X19154781Y20706992D01*
X19138197Y20703694D01*
X19124139Y20694299D01*
X19121130Y20689796D01*
X19108430D01*
X19105421Y20694299D01*
X19091364Y20703694D01*
X19074780Y20706992D01*
X19058949Y20703844D01*
X19057977Y20703799D01*
X19044933Y20710104D01*
X19044362Y20713309D01*
X19178766Y20847713D01*
X19201031Y20852141D01*
X19220879Y20865402D01*
X19222258Y20867468D01*
X19310101D01*
X19313248Y20854768D01*
X19300821Y20836171D01*
X19296165Y20812759D01*
X19300821Y20789349D01*
X19314082Y20769502D01*
X19333929Y20756241D01*
X19357339Y20751585D01*
X19380751Y20756241D01*
X19400597Y20769502D01*
X19413860Y20789349D01*
X19415546Y20797829D01*
X19529427D01*
X19533643Y20795010D01*
Y20782310D01*
X19529140Y20779300D01*
X19519746Y20765242D01*
X19516447Y20748660D01*
X19519746Y20732077D01*
X19529140Y20718019D01*
X19543198Y20708626D01*
X19559779Y20705327D01*
X19614510D01*
X19754938Y20564899D01*
X19754938Y20564899D01*
X19764941Y20558215D01*
X19776740Y20555867D01*
X19776741Y20555869D01*
X20525668D01*
X20543367Y20538168D01*
X20543369Y20533032D01*
X20530759Y20520419D01*
X20365961D01*
Y20508311D01*
X19618732D01*
X19518112Y20608931D01*
Y20663660D01*
X19514815Y20680243D01*
X19505420Y20694299D01*
X19491364Y20703694D01*
X19474780Y20706992D01*
X19458197Y20703694D01*
X19444139Y20694299D01*
X19434746Y20680243D01*
X19431448Y20663660D01*
Y20553661D01*
X19434746Y20537077D01*
X19444139Y20523019D01*
X19458197Y20513626D01*
X19474780Y20510327D01*
X19491364Y20513626D01*
X19505420Y20523019D01*
X19515794Y20524042D01*
X19564355Y20475481D01*
X19559096Y20462781D01*
X19554265Y20462781D01*
X19444659D01*
Y20451431D01*
X19417340D01*
Y20460240D01*
X19365594D01*
X19355971Y20469862D01*
Y20542896D01*
X19358112Y20553661D01*
Y20663660D01*
X19354814Y20680243D01*
X19345421Y20694299D01*
X19331363Y20703694D01*
X19314780Y20706992D01*
X19298196Y20703694D01*
X19284138Y20694299D01*
X19274747Y20680243D01*
X19271448Y20663660D01*
Y20553661D01*
X19273589Y20542896D01*
Y20452800D01*
X19276724Y20437038D01*
X19285654Y20423672D01*
X19297340Y20411986D01*
Y20360240D01*
X19417340D01*
Y20369048D01*
X19444659D01*
Y20352780D01*
X19564661D01*
Y20451752D01*
X19564661Y20457214D01*
X19577361Y20462476D01*
X19584158Y20455678D01*
X19594160Y20448994D01*
X19605960Y20446648D01*
X19605962Y20446648D01*
X20003485D01*
X20008058Y20433948D01*
X19996780Y20417072D01*
X19992125Y20393660D01*
X19996780Y20370248D01*
X20010043Y20350403D01*
X20029889Y20337141D01*
X20053300Y20332484D01*
X20067957Y20335400D01*
X20102521Y20300838D01*
Y20251019D01*
X20168916D01*
X20206216Y20213721D01*
X20200957Y20201019D01*
X20102521D01*
Y20101019D01*
X20129147D01*
Y20041141D01*
X20099980D01*
Y19941141D01*
X20219980D01*
Y20041141D01*
X20190813D01*
Y20060143D01*
X20203513Y20067332D01*
X20211980Y20065646D01*
X20211981Y20065648D01*
X20365961D01*
Y20053540D01*
X20543280D01*
Y20139420D01*
X20365961D01*
Y20127312D01*
X20224751D01*
X20222520Y20129544D01*
Y20184718D01*
X20235220Y20193610D01*
X20240060Y20192648D01*
X20365961D01*
Y20180540D01*
X20543280D01*
Y20266420D01*
X20365961D01*
Y20254312D01*
X20252831D01*
X20222520Y20284624D01*
Y20351019D01*
X20139543D01*
X20111560Y20379002D01*
X20114474Y20393660D01*
X20109819Y20417072D01*
X20098541Y20433948D01*
X20103114Y20446648D01*
X20365961D01*
Y20434540D01*
X20530759D01*
X20543369Y20421928D01*
X20543367Y20416791D01*
X20519997Y20393420D01*
X20365961D01*
Y20307539D01*
X20543280D01*
Y20329495D01*
X20633900Y20420119D01*
X20633902Y20420119D01*
X20640585Y20430121D01*
X20642934Y20441920D01*
X20642932Y20441920D01*
Y20513039D01*
X20642934Y20513040D01*
X20640585Y20524838D01*
X20633902Y20534842D01*
X20560242Y20608502D01*
X20550240Y20615186D01*
X20538440Y20617532D01*
X20538438Y20617532D01*
X19789511D01*
X19699399Y20707645D01*
X19700421Y20718021D01*
X19709814Y20732077D01*
X19713112Y20748660D01*
X19709814Y20765242D01*
X19700421Y20779300D01*
X19695917Y20782310D01*
Y20795010D01*
X19700421Y20798019D01*
X19709814Y20812077D01*
X19713112Y20828661D01*
X19709814Y20845242D01*
X19700421Y20859300D01*
X19695917Y20862309D01*
Y20875011D01*
X19700421Y20878020D01*
X19709286Y20891286D01*
X19711462Y20893205D01*
X19722099Y20896432D01*
X19752000Y20866531D01*
Y20845380D01*
X19872000D01*
X19872420Y20832854D01*
Y20823880D01*
X19972420D01*
Y20943880D01*
X19983272Y20948340D01*
X20005580D01*
Y20977509D01*
X20101559D01*
X20101559Y20977509D01*
X20113359Y20979855D01*
X20123363Y20986539D01*
X20191940Y21055118D01*
X20191942Y21055118D01*
X20198625Y21065121D01*
X20200972Y21076920D01*
Y21188792D01*
X20200974Y21192905D01*
X20212920Y21194720D01*
X20213599Y21194720D01*
X20222383Y21194720D01*
X20312920D01*
Y21197829D01*
X20368849D01*
X20919778Y20646899D01*
X20919778Y20646898D01*
X20929781Y20640215D01*
X20941580Y20637868D01*
X20941582Y20637868D01*
X25418828D01*
X25418829Y20637868D01*
X25430627Y20640215D01*
X25440631Y20646898D01*
X25961981Y21168248D01*
X30449759D01*
X30449759Y21168246D01*
X30461560Y21170595D01*
X30471561Y21177278D01*
X30674521Y21380238D01*
X30674521Y21380238D01*
X30681204Y21390240D01*
X30683551Y21402040D01*
Y21579768D01*
X30835672Y21731888D01*
X31031012D01*
X31035324Y21719188D01*
X31024554Y21710925D01*
X31009937Y21691873D01*
X31000748Y21669688D01*
X30997614Y21645880D01*
X31000748Y21622072D01*
X31009937Y21599887D01*
X31024554Y21580835D01*
X31043607Y21566217D01*
X31065793Y21557027D01*
X31089600Y21553893D01*
X31113409Y21557027D01*
X31135593Y21566217D01*
X31154645Y21580835D01*
X31169263Y21599887D01*
X31178452Y21622072D01*
X31181586Y21645880D01*
X31178452Y21669688D01*
X31169263Y21691873D01*
X31154645Y21710925D01*
X31143875Y21719188D01*
X31148187Y21731888D01*
X31460440D01*
X31460440Y21731886D01*
X31472238Y21734235D01*
X31482242Y21740918D01*
X31558630Y21817307D01*
X31573792Y21811028D01*
X31597601Y21807893D01*
X31621408Y21811028D01*
X31643594Y21820216D01*
X31662646Y21834834D01*
X31677264Y21853886D01*
X31686453Y21876073D01*
X31689587Y21899879D01*
X31686453Y21923688D01*
X31677264Y21945872D01*
X31662646Y21964925D01*
X31643594Y21979543D01*
X31621408Y21988733D01*
X31597601Y21991867D01*
X31573792Y21988733D01*
X31551608Y21979543D01*
X31532556Y21964925D01*
X31517938Y21945872D01*
X31508746Y21923688D01*
X31505612Y21899879D01*
X31508746Y21876073D01*
X31515027Y21860912D01*
X31447668Y21793552D01*
X30822900D01*
X30822900Y21793553D01*
X30811102Y21791205D01*
X30801099Y21784521D01*
X30630917Y21614342D01*
X30624234Y21604340D01*
X30621887Y21592540D01*
X30621887Y21592538D01*
Y21425961D01*
X30620053Y21424736D01*
X30607352Y21431525D01*
Y21625488D01*
X30972830Y21990968D01*
X31465518D01*
X31465521Y21990967D01*
X31477319Y21993315D01*
X31487323Y21999998D01*
X31558630Y22071307D01*
X31573792Y22065027D01*
X31597601Y22061893D01*
X31621408Y22065027D01*
X31643594Y22074217D01*
X31662646Y22088835D01*
X31677264Y22107887D01*
X31686453Y22130072D01*
X31689587Y22153880D01*
X31686453Y22177689D01*
X31677264Y22199873D01*
X31662646Y22218925D01*
X31643594Y22233543D01*
X31621408Y22242732D01*
X31597601Y22245866D01*
X31573792Y22242732D01*
X31551608Y22233543D01*
X31532556Y22218925D01*
X31517938Y22199873D01*
X31508746Y22177689D01*
X31505612Y22153880D01*
X31508746Y22130072D01*
X31515027Y22114911D01*
X31452750Y22052632D01*
X31115405D01*
X31113409Y22065027D01*
X31135593Y22074217D01*
X31154645Y22088835D01*
X31169263Y22107887D01*
X31178452Y22130072D01*
X31181586Y22153880D01*
X31178452Y22177689D01*
X31169263Y22199873D01*
X31156516Y22216489D01*
X31160333Y22229189D01*
X31338278D01*
X31338281Y22229189D01*
X31356024Y22232719D01*
X31371069Y22242770D01*
X31489807Y22361510D01*
X31518228D01*
X31532556Y22342834D01*
X31551608Y22328217D01*
X31573792Y22319028D01*
X31597601Y22315894D01*
X31621408Y22319028D01*
X31643594Y22328217D01*
X31662646Y22342834D01*
X31677264Y22361887D01*
X31686453Y22384071D01*
X31689587Y22407880D01*
X31686453Y22431688D01*
X31677264Y22453873D01*
X31662646Y22472925D01*
X31643594Y22487543D01*
X31621408Y22496733D01*
X31597601Y22499867D01*
X31573792Y22496733D01*
X31551608Y22487543D01*
X31532556Y22472925D01*
X31518228Y22454251D01*
X31470599D01*
X31452856Y22450722D01*
X31437811Y22440669D01*
X31437811Y22440669D01*
X31319073Y22321931D01*
X31148264D01*
X31143951Y22334631D01*
X31154645Y22342834D01*
X31169263Y22361887D01*
X31178452Y22384071D01*
X31181586Y22407880D01*
X31178452Y22431688D01*
X31169263Y22453873D01*
X31154645Y22472925D01*
X31135593Y22487543D01*
X31113409Y22496733D01*
X31089600Y22499867D01*
X31065793Y22496733D01*
X31043607Y22487543D01*
X31024554Y22472925D01*
X31009937Y22453873D01*
X31000748Y22431688D01*
X30997614Y22407880D01*
X31000748Y22384071D01*
X31009937Y22361887D01*
X31024554Y22342834D01*
X31035803Y22334206D01*
X31032635Y22320625D01*
X31021454Y22318401D01*
X31006409Y22308350D01*
X31006409Y22308350D01*
X30464584Y21766525D01*
X30452850Y21771385D01*
Y21888138D01*
X30603107Y22038393D01*
X30612036Y22051756D01*
X30615170Y22067520D01*
Y23028358D01*
X30639453Y23052640D01*
X30758441D01*
Y23145441D01*
X30762341D01*
Y23265440D01*
X30662341D01*
Y23152640D01*
X30638440D01*
Y23143831D01*
X30631201D01*
X30615436Y23140697D01*
X30602072Y23131767D01*
X30544852Y23074547D01*
X30535925Y23061183D01*
X30532788Y23045419D01*
Y22828839D01*
X30530939Y22821640D01*
X30517654Y22819719D01*
X30511032Y22826340D01*
Y22922960D01*
X30507895Y22938724D01*
X30498969Y22952087D01*
X30271042Y23180011D01*
X30275644Y23193370D01*
X30283200Y23196500D01*
X30598160Y23511459D01*
X30613724Y23527023D01*
X31767780D01*
X31779260Y23531779D01*
X31784015Y23543260D01*
Y23811449D01*
X31782779Y23814432D01*
X31782779Y23817661D01*
X31780496Y23819943D01*
X31780084Y23820940D01*
X31781073Y23823328D01*
X31783704Y23827266D01*
X31783380Y23828897D01*
X31784015Y23830434D01*
Y24297639D01*
X31779260Y24309122D01*
X31697980Y24390401D01*
X31686499Y24395155D01*
X24542844D01*
X24542841Y24395155D01*
X24542838Y24395155D01*
X24537160Y24392802D01*
X24531361Y24390401D01*
X24531361Y24390398D01*
X24531358Y24390398D01*
X24522382Y24381413D01*
X24522380Y24381412D01*
X24522379Y24381412D01*
X24519914Y24375453D01*
X24517628Y24369933D01*
X24517630Y24369930D01*
X24517628Y24369928D01*
X24518330Y23131770D01*
X24520686Y23126093D01*
X24523085Y23120299D01*
X24523090Y23120297D01*
X24523093Y23120293D01*
X24528894Y23117892D01*
X24534566Y23115544D01*
X24994380D01*
X24995204Y23115886D01*
X25005763Y23108830D01*
Y21534419D01*
X25010519Y21522939D01*
X25022000Y21518184D01*
X29612000D01*
X29623480Y21522939D01*
X29628235Y21534419D01*
Y23191743D01*
X30109973D01*
X30112958Y23192979D01*
X30116187D01*
X30118469Y23195264D01*
X30121454Y23196500D01*
X30129892Y23198859D01*
X30136240Y23198306D01*
X30428647Y22905898D01*
Y22817360D01*
X30409839D01*
Y22720312D01*
X30409839Y22717360D01*
X30402716Y22707611D01*
X30064474D01*
X30060397Y22717458D01*
X30044177Y22738597D01*
X30023038Y22754819D01*
X29998419Y22765015D01*
X29972000Y22768494D01*
X29945581Y22765015D01*
X29920963Y22754819D01*
X29899823Y22738597D01*
X29883603Y22717458D01*
X29873404Y22692839D01*
X29869928Y22666420D01*
X29873404Y22640001D01*
X29883603Y22615382D01*
X29899823Y22594243D01*
X29920963Y22578021D01*
X29945581Y22567825D01*
X29972000Y22564346D01*
X29998419Y22567825D01*
X30023038Y22578021D01*
X30044177Y22594243D01*
X30060397Y22615382D01*
X30064474Y22625229D01*
X30403717D01*
X30409839Y22619107D01*
Y22567360D01*
X30428647D01*
Y22535420D01*
X30409839D01*
Y22435420D01*
X30529840Y22435420D01*
X30532788Y22423943D01*
Y22084583D01*
X30382532Y21934328D01*
X30373605Y21920963D01*
X30370468Y21905200D01*
Y21522121D01*
X30293878Y21445531D01*
X25762979D01*
X25747217Y21442397D01*
X25733853Y21433467D01*
X25334679Y21034291D01*
X25155038D01*
X25150397Y21045499D01*
X25133742Y21067203D01*
X25112038Y21083856D01*
X25086763Y21094325D01*
X25059641Y21097897D01*
X25032516Y21094325D01*
X25007242Y21083856D01*
X24992151Y21072276D01*
X24381236D01*
X22605524Y22847990D01*
X22589124Y22860574D01*
X22570029Y22868484D01*
X22549536Y22871182D01*
X19672128D01*
Y23251744D01*
X19667372Y23263225D01*
X19655891Y23267979D01*
X19479221D01*
X19467738Y23263225D01*
X19462984Y23251744D01*
Y23208316D01*
X19315456D01*
Y23251744D01*
X19310701Y23263225D01*
X19299220Y23267979D01*
X19249220D01*
Y23422079D01*
X19069220D01*
Y23267979D01*
X19019220D01*
Y23422079D01*
X19008397D01*
Y23484821D01*
X19005699Y23505313D01*
X18997791Y23524409D01*
X18988080Y23537064D01*
Y23540961D01*
X18985008D01*
X18968810Y23553391D01*
X18949713Y23561301D01*
X18929221Y23563998D01*
X18908727Y23561301D01*
X18889632Y23553391D01*
X18873431Y23540961D01*
X18868080D01*
Y23534093D01*
X18860651Y23524409D01*
X18852740Y23505313D01*
X18851805Y23498206D01*
X18850346Y23497363D01*
X18838240Y23492468D01*
X18820700Y23494777D01*
X18611925D01*
X18607063Y23506509D01*
X19260596Y24160043D01*
X20299440D01*
Y24059219D01*
X20484441D01*
Y24419220D01*
D02*
G37*
G36*
X20904440D02*
X20719440D01*
Y24059219D01*
X20904440D01*
Y24158530D01*
X21061681D01*
X21082564Y24161279D01*
X21102025Y24169341D01*
X21118736Y24182162D01*
X21131560Y24198875D01*
X21132391Y24200880D01*
X21135330Y24204710D01*
X21143239Y24223807D01*
X21145937Y24244299D01*
X21143239Y24264793D01*
X21135330Y24283888D01*
X21122746Y24300287D01*
X21106349Y24312869D01*
X21087253Y24320779D01*
X21066760Y24323477D01*
X21046268Y24320779D01*
X21044170Y24319910D01*
X20904440D01*
Y24419220D01*
D02*
G37*
G36*
X31597601Y23261867D02*
X31573792Y23258733D01*
X31551608Y23249544D01*
X31532556Y23234924D01*
X31517938Y23215874D01*
X31508746Y23193687D01*
X31505612Y23169881D01*
X31508746Y23146072D01*
X31517938Y23123888D01*
X31532556Y23104836D01*
X31551608Y23090218D01*
X31573792Y23081027D01*
X31597601Y23077893D01*
X31621408Y23081027D01*
X31643594Y23090218D01*
X31662646Y23104836D01*
X31677264Y23123888D01*
X31686453Y23146072D01*
X31689587Y23169881D01*
X31686453Y23193687D01*
X31677264Y23215874D01*
X31662646Y23234924D01*
X31643594Y23249544D01*
X31621408Y23258733D01*
X31597601Y23261867D01*
D02*
G37*
G36*
X30912341Y23265440D02*
X30812341D01*
Y23145441D01*
X30856802D01*
X30858551Y23144272D01*
X30876791Y23140643D01*
X30895032Y23144272D01*
X30896780Y23145441D01*
X30912341D01*
Y23153894D01*
X30999719D01*
X31000748Y23146072D01*
X31009937Y23123888D01*
X31024554Y23104836D01*
X31043607Y23090218D01*
X31065793Y23081027D01*
X31089600Y23077893D01*
X31113409Y23081027D01*
X31135593Y23090218D01*
X31154645Y23104836D01*
X31169263Y23123888D01*
X31178452Y23146072D01*
X31181586Y23169881D01*
X31178452Y23193687D01*
X31169263Y23215874D01*
X31154645Y23234924D01*
X31135593Y23249544D01*
X31113409Y23258733D01*
X31089600Y23261867D01*
X31065793Y23258733D01*
X31043607Y23249544D01*
X31043192Y23249226D01*
X30912341D01*
Y23265440D01*
D02*
G37*
G36*
X31089600Y23007867D02*
X31065793Y23004733D01*
X31043607Y22995543D01*
X31024554Y22980925D01*
X31009937Y22961873D01*
X31007947Y22957071D01*
X30758441D01*
Y23002640D01*
X30638440D01*
Y22902640D01*
X30690186D01*
X30706073Y22886752D01*
X30719437Y22877824D01*
X30735199Y22874689D01*
X31007947D01*
X31009937Y22869887D01*
X31024554Y22850835D01*
X31043607Y22836217D01*
X31065793Y22827026D01*
X31089600Y22823894D01*
X31113409Y22827026D01*
X31135593Y22836217D01*
X31154645Y22850835D01*
X31169263Y22869887D01*
X31178452Y22892072D01*
X31181586Y22915880D01*
X31178452Y22939688D01*
X31169263Y22961873D01*
X31154645Y22980925D01*
X31135593Y22995543D01*
X31113409Y23004733D01*
X31089600Y23007867D01*
D02*
G37*
G36*
X29972000Y23149493D02*
X29945581Y23146014D01*
X29920963Y23135818D01*
X29899823Y23119597D01*
X29883603Y23098457D01*
X29873404Y23073839D01*
X29869928Y23047420D01*
X29873404Y23021001D01*
X29883603Y22996384D01*
X29899823Y22975243D01*
X29920963Y22959023D01*
X29945581Y22948825D01*
X29972000Y22945348D01*
X29998419Y22948825D01*
X30023038Y22959023D01*
X30044177Y22975243D01*
X30060397Y22996384D01*
X30070596Y23021001D01*
X30074072Y23047420D01*
X30070596Y23073839D01*
X30060397Y23098457D01*
X30044177Y23119597D01*
X30023038Y23135818D01*
X29998419Y23146014D01*
X29972000Y23149493D01*
D02*
G37*
G36*
X31597601Y23007867D02*
X31573792Y23004733D01*
X31551608Y22995543D01*
X31532556Y22980925D01*
X31517938Y22961873D01*
X31508746Y22939688D01*
X31505612Y22915880D01*
X31508746Y22892072D01*
X31517938Y22869887D01*
X31532556Y22850835D01*
X31551608Y22836217D01*
X31573792Y22827026D01*
X31597601Y22823894D01*
X31621408Y22827026D01*
X31643594Y22836217D01*
X31662646Y22850835D01*
X31677264Y22869887D01*
X31686453Y22892072D01*
X31689587Y22915880D01*
X31686453Y22939688D01*
X31677264Y22961873D01*
X31662646Y22980925D01*
X31643594Y22995543D01*
X31621408Y23004733D01*
X31597601Y23007867D01*
D02*
G37*
G36*
X15435435Y22931345D02*
X15284566D01*
X15273029Y22929050D01*
X15263251Y22922514D01*
X15256715Y22912737D01*
X15254420Y22901199D01*
X15256715Y22889664D01*
X15259599Y22885349D01*
X15262202Y22876199D01*
X15259599Y22867052D01*
X15256715Y22862737D01*
X15254420Y22851199D01*
X15256715Y22839664D01*
X15263251Y22829884D01*
Y22822514D01*
X15256715Y22812737D01*
X15254420Y22801199D01*
X15256715Y22789664D01*
X15263251Y22779884D01*
Y22772514D01*
X15256715Y22762737D01*
X15254420Y22751199D01*
X15256715Y22739664D01*
X15259599Y22735349D01*
X15262202Y22726199D01*
X15259599Y22717052D01*
X15256715Y22712737D01*
X15254420Y22701199D01*
X15256715Y22689664D01*
X15263251Y22679884D01*
Y22672514D01*
X15256715Y22662737D01*
X15254420Y22651199D01*
X15256715Y22639664D01*
X15259599Y22635349D01*
X15262202Y22626199D01*
X15259599Y22617052D01*
X15256715Y22612737D01*
X15254420Y22601199D01*
X15256715Y22589664D01*
X15263251Y22579884D01*
Y22572514D01*
X15256715Y22562737D01*
X15254420Y22551199D01*
X15256715Y22539664D01*
X15263251Y22529884D01*
Y22522514D01*
X15256715Y22512737D01*
X15254420Y22501199D01*
X15256715Y22489664D01*
X15259599Y22485349D01*
X15262202Y22476199D01*
X15259599Y22467052D01*
X15256715Y22462737D01*
X15254420Y22451199D01*
X15256715Y22439664D01*
X15263251Y22429884D01*
Y22422514D01*
X15256715Y22412737D01*
X15254420Y22401199D01*
X15256715Y22389664D01*
X15259599Y22385349D01*
X15262202Y22376199D01*
X15259599Y22367052D01*
X15256715Y22362737D01*
X15254420Y22351199D01*
X15256715Y22339664D01*
X15263251Y22329884D01*
Y22322514D01*
X15256715Y22312737D01*
X15254420Y22301199D01*
X15256715Y22289664D01*
X15263251Y22279884D01*
X15273029Y22273351D01*
X15284566Y22271056D01*
X15435435D01*
X15446971Y22273351D01*
X15456750Y22279884D01*
X15463284Y22289664D01*
X15465579Y22301199D01*
X15463284Y22312737D01*
X15456750Y22322514D01*
Y22329884D01*
X15463284Y22339664D01*
X15465579Y22351199D01*
X15463284Y22362737D01*
X15460400Y22367052D01*
X15457797Y22376199D01*
X15460400Y22385349D01*
X15463284Y22389664D01*
X15465579Y22401199D01*
X15463284Y22412737D01*
X15456750Y22422514D01*
Y22429884D01*
X15463284Y22439664D01*
X15465579Y22451199D01*
X15463284Y22462737D01*
X15460400Y22467052D01*
X15457797Y22476199D01*
X15460400Y22485349D01*
X15463284Y22489664D01*
X15465579Y22501199D01*
X15463284Y22512737D01*
X15456750Y22522514D01*
Y22529884D01*
X15463284Y22539664D01*
X15465579Y22551199D01*
X15463284Y22562737D01*
X15456750Y22572514D01*
Y22579884D01*
X15463284Y22589664D01*
X15465579Y22601199D01*
X15463284Y22612737D01*
X15460400Y22617052D01*
X15457797Y22626199D01*
X15460400Y22635349D01*
X15463284Y22639664D01*
X15465579Y22651199D01*
X15463284Y22662737D01*
X15456750Y22672514D01*
Y22679884D01*
X15463284Y22689664D01*
X15465579Y22701199D01*
X15463284Y22712737D01*
X15460400Y22717052D01*
X15457797Y22726199D01*
X15460400Y22735349D01*
X15463284Y22739664D01*
X15465579Y22751199D01*
X15463284Y22762737D01*
X15456750Y22772514D01*
Y22779884D01*
X15463284Y22789664D01*
X15465579Y22801199D01*
X15463284Y22812737D01*
X15456750Y22822514D01*
Y22829884D01*
X15463284Y22839664D01*
X15465579Y22851199D01*
X15463284Y22862737D01*
X15460400Y22867052D01*
X15457797Y22876199D01*
X15460400Y22885349D01*
X15463284Y22889664D01*
X15465579Y22901199D01*
X15463284Y22912737D01*
X15456750Y22922514D01*
X15446971Y22929050D01*
X15435435Y22931345D01*
D02*
G37*
G36*
X29972000Y22387492D02*
X29945581Y22384015D01*
X29920963Y22373817D01*
X29899823Y22357597D01*
X29883603Y22336456D01*
X29873404Y22311839D01*
X29869928Y22285420D01*
X29873404Y22259001D01*
X29883603Y22234383D01*
X29899823Y22213243D01*
X29920963Y22197021D01*
X29945581Y22186826D01*
X29972000Y22183347D01*
X29998419Y22186826D01*
X30023038Y22197021D01*
X30044177Y22213243D01*
X30060397Y22234383D01*
X30070596Y22259001D01*
X30074072Y22285420D01*
X30070596Y22311839D01*
X30060397Y22336456D01*
X30044177Y22357597D01*
X30023038Y22373817D01*
X29998419Y22384015D01*
X29972000Y22387492D01*
D02*
G37*
G36*
X13925435Y22381345D02*
X13774565D01*
X13763029Y22379050D01*
X13753250Y22372514D01*
X13746716Y22362737D01*
X13744421Y22351199D01*
X13746716Y22339664D01*
X13753250Y22329884D01*
Y22322514D01*
X13746716Y22312737D01*
X13744421Y22301199D01*
X13746716Y22289664D01*
X13753250Y22279884D01*
Y22272514D01*
X13746716Y22262737D01*
X13744421Y22251199D01*
X13746716Y22239664D01*
X13749599Y22235349D01*
X13752202Y22226199D01*
X13749599Y22217052D01*
X13746716Y22212737D01*
X13744421Y22201199D01*
X13746716Y22189664D01*
X13753250Y22179884D01*
Y22172514D01*
X13746716Y22162737D01*
X13744421Y22151199D01*
X13746716Y22139664D01*
X13749599Y22135349D01*
X13752202Y22126199D01*
X13749599Y22117052D01*
X13746716Y22112737D01*
X13744421Y22101199D01*
X13746716Y22089664D01*
X13753250Y22079884D01*
Y22072514D01*
X13746716Y22062737D01*
X13744421Y22051199D01*
X13746716Y22039664D01*
X13753250Y22029884D01*
Y22022514D01*
X13746716Y22012737D01*
X13744421Y22001199D01*
X13745711Y21994720D01*
X13737712Y21982021D01*
X13609702D01*
X13576300Y22015422D01*
X13566296Y22022105D01*
X13554498Y22024454D01*
X13554497Y22024452D01*
X13547028D01*
X13535066Y22029420D01*
X13531438Y22047661D01*
X13521104Y22063126D01*
X13505641Y22073457D01*
X13487399Y22077086D01*
X13469159Y22073457D01*
X13453696Y22063126D01*
X13443362Y22047661D01*
X13439734Y22029420D01*
X13443362Y22011179D01*
X13448880Y22002922D01*
X13452756Y21994658D01*
X13445644Y21986647D01*
X13438455Y21981845D01*
X13428122Y21966380D01*
X13424493Y21948140D01*
X13428122Y21929900D01*
X13438455Y21914435D01*
X13440704Y21912932D01*
X13436852Y21900232D01*
X13111543D01*
X13109625Y21903105D01*
X13094160Y21913438D01*
X13075920Y21917065D01*
X13057680Y21913438D01*
X13042215Y21903105D01*
X13031882Y21887640D01*
X13028255Y21869400D01*
X13031882Y21851160D01*
X13042215Y21835695D01*
X13057680Y21825362D01*
X13075920Y21821735D01*
X13094160Y21825362D01*
X13109625Y21835695D01*
X13111543Y21838568D01*
X13484789D01*
X13493970Y21829387D01*
X13493970Y21829385D01*
X13503973Y21822704D01*
X13515771Y21820357D01*
X13515773Y21820357D01*
X13737695D01*
X13745705Y21807655D01*
X13744421Y21801199D01*
X13746716Y21789664D01*
X13753250Y21779884D01*
Y21772514D01*
X13746716Y21762737D01*
X13744421Y21751199D01*
X13746716Y21739664D01*
X13749599Y21735349D01*
X13752202Y21726199D01*
X13749599Y21717052D01*
X13746716Y21712737D01*
X13744421Y21701199D01*
X13746716Y21689664D01*
X13753250Y21679884D01*
X13763029Y21673351D01*
X13774565Y21671056D01*
X13925435D01*
X13936971Y21673351D01*
X13946750Y21679884D01*
X13953284Y21689664D01*
X13955579Y21701199D01*
X13953284Y21712737D01*
X13950401Y21717052D01*
X13947798Y21726199D01*
X13950401Y21735349D01*
X13953284Y21739664D01*
X13955579Y21751199D01*
X13953284Y21762737D01*
X13946750Y21772514D01*
Y21779884D01*
X13953284Y21789664D01*
X13955579Y21801199D01*
X13953284Y21812737D01*
X13950401Y21817052D01*
X13947798Y21826199D01*
X13950401Y21835350D01*
X13953284Y21839664D01*
X13955579Y21851199D01*
X13953284Y21862737D01*
X13946750Y21872514D01*
Y21879884D01*
X13953284Y21889664D01*
X13955579Y21901199D01*
X13953284Y21912737D01*
X13946750Y21922514D01*
Y21929884D01*
X13953284Y21939664D01*
X13955579Y21951199D01*
X13953284Y21962737D01*
X13950401Y21967052D01*
X13947798Y21976199D01*
X13950401Y21985349D01*
X13953284Y21989664D01*
X13955579Y22001199D01*
X13953284Y22012737D01*
X13946750Y22022514D01*
Y22029884D01*
X13953284Y22039664D01*
X13955579Y22051199D01*
X13953284Y22062737D01*
X13946750Y22072514D01*
Y22079884D01*
X13953284Y22089664D01*
X13955579Y22101199D01*
X13953284Y22112737D01*
X13950401Y22117052D01*
X13947798Y22126199D01*
X13950401Y22135349D01*
X13953284Y22139664D01*
X13955579Y22151199D01*
X13953284Y22162737D01*
X13946750Y22172514D01*
Y22179884D01*
X13953284Y22189664D01*
X13955579Y22201199D01*
X13953284Y22212737D01*
X13950401Y22217052D01*
X13947798Y22226199D01*
X13950401Y22235349D01*
X13953284Y22239664D01*
X13955579Y22251199D01*
X13953284Y22262737D01*
X13946750Y22272514D01*
Y22279884D01*
X13953284Y22289664D01*
X13955579Y22301199D01*
X13953284Y22312737D01*
X13946750Y22322514D01*
Y22329884D01*
X13953284Y22339664D01*
X13955579Y22351199D01*
X13953284Y22362737D01*
X13946750Y22372514D01*
X13936971Y22379050D01*
X13925435Y22381345D01*
D02*
G37*
G36*
X14805000Y21934846D02*
X14786758Y21931218D01*
X14771295Y21920885D01*
X14760962Y21905421D01*
X14757333Y21887180D01*
X14760657Y21870473D01*
X14758151Y21865224D01*
X14752853Y21858215D01*
X14736771Y21855019D01*
X14721307Y21844685D01*
X14710976Y21829221D01*
X14707347Y21810980D01*
X14709619Y21799556D01*
X14705879Y21789815D01*
X14700237Y21786578D01*
X14686758Y21783897D01*
X14671295Y21773566D01*
X14660962Y21758101D01*
X14657333Y21739861D01*
X14658640Y21733292D01*
X14647656Y21723416D01*
X14632478Y21720398D01*
X14617015Y21710065D01*
X14606682Y21694601D01*
X14603053Y21676360D01*
X14605544Y21663850D01*
X14605232Y21656955D01*
X14596742Y21650136D01*
X14593465Y21649484D01*
X14583685Y21642950D01*
X14576315D01*
X14566536Y21649484D01*
X14555000Y21651779D01*
X14543465Y21649484D01*
X14539149Y21646600D01*
X14530000Y21643999D01*
X14520851Y21646600D01*
X14516536Y21649484D01*
X14505000Y21651779D01*
X14493465Y21649484D01*
X14483685Y21642950D01*
X14476315D01*
X14466536Y21649484D01*
X14455000Y21651779D01*
X14443465Y21649484D01*
X14439149Y21646600D01*
X14430000Y21643999D01*
X14420851Y21646600D01*
X14416536Y21649484D01*
X14405000Y21651779D01*
X14393465Y21649484D01*
X14383685Y21642950D01*
X14376315D01*
X14366536Y21649484D01*
X14355000Y21651779D01*
X14343465Y21649484D01*
X14333685Y21642950D01*
X14327151Y21633171D01*
X14324857Y21621635D01*
Y21470766D01*
X14326746Y21461269D01*
Y21090067D01*
X14291589Y21054910D01*
X14285468Y21045747D01*
X14283318Y21034940D01*
X14283318Y21034940D01*
Y20981979D01*
X14261560D01*
Y20861980D01*
X14264922D01*
Y20825117D01*
X14231503D01*
Y20594458D01*
X14332623D01*
Y20825117D01*
X14321407D01*
Y20861980D01*
X14361560D01*
Y20981979D01*
X14339803D01*
Y21023241D01*
X14374957Y21058397D01*
X14374959Y21058397D01*
X14378076Y21063062D01*
X14391017Y21065913D01*
X14393616Y21065482D01*
X14442722Y21016377D01*
Y20981979D01*
X14411560D01*
Y20861980D01*
X14453696D01*
X14453821Y20861276D01*
Y20825117D01*
X14433104D01*
Y20594458D01*
X14534224D01*
Y20825117D01*
X14510307D01*
Y20861980D01*
X14511560D01*
Y20981979D01*
X14499207D01*
Y21011195D01*
X14511906Y21016457D01*
X18033363Y17495000D01*
X18033363Y17494998D01*
X18043367Y17488315D01*
X18055167Y17485968D01*
X18055168Y17485968D01*
X26224649D01*
X26228500Y17473268D01*
X26224814Y17470805D01*
X26214481Y17455341D01*
X26210855Y17437100D01*
X26214481Y17418858D01*
X26224295Y17404175D01*
Y16271092D01*
X26224295Y16271091D01*
X26226642Y16259293D01*
X26233325Y16249289D01*
X26304297Y16178317D01*
X26314297Y16171635D01*
X26326099Y16169287D01*
X26326099Y16169289D01*
X26525220D01*
X26525220Y16169287D01*
X26537018Y16171635D01*
X26547021Y16178317D01*
X26649750Y16281049D01*
X26682941D01*
Y16279100D01*
X26860260D01*
Y16395940D01*
X26860260Y16408159D01*
X26860260D01*
Y16408641D01*
X26860260D01*
Y16472141D01*
Y16527415D01*
X26872961Y16532677D01*
X26888327Y16517310D01*
Y16199881D01*
X26888327Y16199879D01*
X26890674Y16188081D01*
X26897357Y16178078D01*
X27074918Y16000517D01*
X27084921Y15993835D01*
X27096719Y15991487D01*
X27096722Y15991489D01*
X27755719D01*
X27762509Y15978789D01*
X27756262Y15969441D01*
X27752634Y15951199D01*
X27756262Y15932959D01*
X27766595Y15917496D01*
X27782059Y15907162D01*
X27800299Y15903534D01*
X27818542Y15907162D01*
X27834006Y15917496D01*
X27835925Y15920367D01*
X31457898D01*
X31457901Y15920367D01*
X31469699Y15922716D01*
X31479703Y15929398D01*
X31809900Y16259598D01*
X31809903Y16259598D01*
X31816586Y16269601D01*
X31818933Y16281400D01*
X31818933Y16281401D01*
Y18811908D01*
X31818933Y18811909D01*
X31816586Y18823708D01*
X31809903Y18833711D01*
X31809900Y18833711D01*
X31663492Y18980122D01*
X31653488Y18986806D01*
X31641690Y18989153D01*
X31641687Y18989153D01*
X31503931D01*
X31172174Y19320911D01*
X31178452Y19336072D01*
X31181586Y19359880D01*
X31178452Y19383688D01*
X31169263Y19405873D01*
X31154645Y19424925D01*
X31135593Y19439543D01*
X31113409Y19448734D01*
X31089600Y19451868D01*
X31065793Y19448734D01*
X31043607Y19439543D01*
X31024554Y19424925D01*
X31009937Y19405873D01*
X31000748Y19383688D01*
X30997614Y19359880D01*
X31000748Y19336072D01*
X31009937Y19313887D01*
X31024554Y19294835D01*
X31043607Y19280217D01*
X31065793Y19271027D01*
X31089600Y19267892D01*
X31113409Y19271027D01*
X31128568Y19277307D01*
X31469357Y18936519D01*
X31469357Y18936517D01*
X31479361Y18929836D01*
X31491159Y18927487D01*
X31491162Y18927489D01*
X31527383D01*
X31530917Y18914787D01*
X31517938Y18897873D01*
X31508746Y18875688D01*
X31505612Y18851880D01*
X31508746Y18828072D01*
X31517938Y18805887D01*
X31532556Y18786835D01*
X31551608Y18772217D01*
X31573792Y18763026D01*
X31597601Y18759892D01*
X31621408Y18763026D01*
X31636569Y18769307D01*
X31703928Y18701949D01*
Y17808011D01*
X31694690Y17798775D01*
X31683923Y17805968D01*
X31686453Y17812073D01*
X31689587Y17835880D01*
X31686453Y17859688D01*
X31677264Y17881873D01*
X31662646Y17900925D01*
X31643594Y17915543D01*
X31621408Y17924733D01*
X31597601Y17927867D01*
X31573792Y17924733D01*
X31551608Y17915543D01*
X31532556Y17900925D01*
X31517938Y17881873D01*
X31511658Y17866711D01*
X31379230D01*
X31266342Y17979602D01*
X31256339Y17986285D01*
X31244540Y17988634D01*
X31232742Y17986285D01*
X31228650Y17983553D01*
X29126245D01*
X29124326Y17986424D01*
X29108862Y17996758D01*
X29090619Y18000386D01*
X29072379Y17996758D01*
X29056915Y17986424D01*
X29046582Y17970961D01*
X29042953Y17952721D01*
X29046582Y17934479D01*
X29056915Y17919016D01*
X29072379Y17908682D01*
X29090619Y17905054D01*
X29108862Y17908682D01*
X29124326Y17919016D01*
X29126245Y17921889D01*
X31031012D01*
X31035324Y17909187D01*
X31024554Y17900925D01*
X31009937Y17881873D01*
X31000748Y17859688D01*
X30997614Y17835880D01*
X31000748Y17812073D01*
X31009937Y17789886D01*
X31024554Y17770834D01*
X31043607Y17756216D01*
X31065793Y17747028D01*
X31063794Y17734631D01*
X30368240D01*
X30368240Y17734633D01*
X30356442Y17732285D01*
X30346439Y17725603D01*
X30346439Y17725601D01*
X30022729Y17401892D01*
X29748544D01*
X29746625Y17404765D01*
X29731161Y17415099D01*
X29712921Y17418726D01*
X29694678Y17415099D01*
X29679214Y17404765D01*
X29668881Y17389301D01*
X29665253Y17371060D01*
X29668881Y17352818D01*
X29679214Y17337355D01*
X29694678Y17327022D01*
X29712921Y17323393D01*
X29731161Y17327022D01*
X29746625Y17337355D01*
X29748544Y17340228D01*
X30035498D01*
X30035501Y17340227D01*
X30047299Y17342575D01*
X30057303Y17349258D01*
X30381012Y17672968D01*
X31038437D01*
X31041452Y17666302D01*
X31041946Y17660268D01*
X31024554Y17646925D01*
X31009937Y17627873D01*
X31000748Y17605688D01*
X30997614Y17581880D01*
X31000748Y17558072D01*
X31009937Y17535887D01*
X31024554Y17516835D01*
X31043607Y17502217D01*
X31065793Y17493027D01*
X31089600Y17489893D01*
X31113409Y17493027D01*
X31135593Y17502217D01*
X31154645Y17516835D01*
X31169263Y17535887D01*
X31178452Y17558072D01*
X31181586Y17581880D01*
X31178452Y17605688D01*
X31169263Y17627873D01*
X31154645Y17646925D01*
X31137256Y17660268D01*
X31137747Y17666302D01*
X31140762Y17672968D01*
X31643320D01*
X31643320Y17672968D01*
X31655118Y17675314D01*
X31665121Y17681998D01*
X31744568Y17761444D01*
X31757269Y17756184D01*
Y16619235D01*
X31754968Y16617464D01*
X31738782Y16618831D01*
X31663492Y16694122D01*
X31653488Y16700806D01*
X31641690Y16703152D01*
X31641687Y16703152D01*
X31503931D01*
X31172174Y17034911D01*
X31178452Y17050072D01*
X31181586Y17073880D01*
X31178452Y17097688D01*
X31169263Y17119873D01*
X31154645Y17138925D01*
X31135593Y17153543D01*
X31113409Y17162733D01*
X31089600Y17165868D01*
X31065793Y17162733D01*
X31043607Y17153543D01*
X31024554Y17138925D01*
X31009937Y17119873D01*
X31000748Y17097688D01*
X30997614Y17073880D01*
X31000748Y17050072D01*
X31009937Y17027887D01*
X31024554Y17008835D01*
X31043607Y16994217D01*
X31065793Y16985027D01*
X31089600Y16981892D01*
X31113409Y16985027D01*
X31128568Y16991307D01*
X31469357Y16650519D01*
X31469357Y16650517D01*
X31479361Y16643835D01*
X31491159Y16641487D01*
X31491162Y16641489D01*
X31527383D01*
X31530917Y16628789D01*
X31517938Y16611873D01*
X31511658Y16596712D01*
X31313190D01*
X31174661Y16735242D01*
X31164658Y16741925D01*
X31159912Y16742870D01*
X31157126Y16749203D01*
X31155997Y16756598D01*
X31169263Y16773888D01*
X31178452Y16796072D01*
X31181586Y16819881D01*
X31178452Y16843687D01*
X31169263Y16865874D01*
X31154645Y16884924D01*
X31135593Y16899544D01*
X31113409Y16908733D01*
X31089600Y16911867D01*
X31065793Y16908733D01*
X31050632Y16902454D01*
X30783035Y17170049D01*
X30788297Y17182748D01*
X31137790D01*
X31268457Y17052078D01*
X31268457Y17052078D01*
X31278461Y17045395D01*
X31290259Y17043048D01*
X31511658D01*
X31517938Y17027887D01*
X31532556Y17008835D01*
X31551608Y16994217D01*
X31573792Y16985027D01*
X31597601Y16981892D01*
X31621408Y16985027D01*
X31643594Y16994217D01*
X31662646Y17008835D01*
X31677264Y17027887D01*
X31686453Y17050072D01*
X31689587Y17073880D01*
X31686453Y17097688D01*
X31677264Y17119873D01*
X31662646Y17138925D01*
X31643594Y17153543D01*
X31621408Y17162733D01*
X31597601Y17165868D01*
X31573792Y17162733D01*
X31551608Y17153543D01*
X31532556Y17138925D01*
X31517938Y17119873D01*
X31511658Y17104712D01*
X31303030D01*
X31172363Y17235382D01*
X31162360Y17242065D01*
X31150562Y17244414D01*
X31150558Y17244412D01*
X29619830D01*
X29199069Y17665173D01*
X29205325Y17676878D01*
X29207458Y17676454D01*
X29225702Y17680083D01*
X29241165Y17690414D01*
X29243085Y17693288D01*
X29636655D01*
X29638574Y17690414D01*
X29654037Y17680083D01*
X29672281Y17676454D01*
X29690521Y17680083D01*
X29705984Y17690414D01*
X29716318Y17705879D01*
X29719946Y17724120D01*
X29716318Y17742361D01*
X29705984Y17757825D01*
X29690521Y17768158D01*
X29672281Y17771786D01*
X29654037Y17768158D01*
X29638574Y17757825D01*
X29636655Y17754951D01*
X29243085D01*
X29241165Y17757825D01*
X29225702Y17768158D01*
X29207458Y17771786D01*
X29189218Y17768158D01*
X29173755Y17757825D01*
X29163422Y17742361D01*
X29159793Y17724120D01*
X29160220Y17721983D01*
X29148514Y17715729D01*
X28803952Y18060291D01*
Y18503900D01*
X28801605Y18515698D01*
X28794922Y18525702D01*
X28794922Y18525702D01*
X28370654Y18949969D01*
X28376910Y18961674D01*
X28389581Y18959154D01*
X28407822Y18962782D01*
X28423285Y18973116D01*
X28433618Y18988579D01*
X28437247Y19006821D01*
X28433618Y19025061D01*
X28423285Y19040524D01*
Y19051855D01*
X28433618Y19067319D01*
X28437247Y19085561D01*
X28433618Y19103801D01*
X28423285Y19119266D01*
X28420413Y19121184D01*
Y20373340D01*
X28418066Y20385139D01*
X28414325Y20390739D01*
X28416925Y20403819D01*
X28413297Y20422061D01*
X28402966Y20437524D01*
X28401074Y20438788D01*
X28404926Y20451488D01*
X28524094D01*
X28527945Y20438788D01*
X28526056Y20437524D01*
X28515723Y20422061D01*
X28512094Y20403819D01*
X28515723Y20385579D01*
X28526056Y20370116D01*
X28528928Y20368196D01*
Y19947269D01*
X28526196Y19943179D01*
X28523846Y19931380D01*
X28523849Y19931380D01*
Y18961101D01*
X28523846Y18961099D01*
X28526196Y18949301D01*
X28532877Y18939297D01*
X28644638Y18827538D01*
X28654642Y18820856D01*
X28666440Y18818507D01*
X28666440Y18818507D01*
X28740100D01*
X28740100Y18818507D01*
X28751898Y18820856D01*
X28761902Y18827538D01*
X28989062Y19054700D01*
X29004218D01*
X29736838Y18322079D01*
X29736838Y18322078D01*
X29746841Y18315395D01*
X29758640Y18313046D01*
X29758640Y18313048D01*
X31003656D01*
X31009937Y18297887D01*
X31024554Y18278835D01*
X31043607Y18264217D01*
X31065793Y18255026D01*
X31089600Y18251894D01*
X31113409Y18255026D01*
X31135593Y18264217D01*
X31154645Y18278835D01*
X31169263Y18297887D01*
X31178452Y18320071D01*
X31181586Y18343880D01*
X31178452Y18367688D01*
X31169263Y18389873D01*
X31154645Y18408925D01*
X31135593Y18423543D01*
X31113409Y18432733D01*
X31089600Y18435867D01*
X31065793Y18432733D01*
X31043607Y18423543D01*
X31024554Y18408925D01*
X31009937Y18389873D01*
X31003656Y18374712D01*
X29771411D01*
X29043631Y19102492D01*
X29044305Y19105881D01*
X29040677Y19124121D01*
X29030344Y19139584D01*
X29014880Y19149918D01*
X28996640Y19153546D01*
X28978400Y19149918D01*
X28962936Y19139584D01*
X28952603Y19124121D01*
X28948975Y19105881D01*
X28949649Y19102492D01*
X28819592Y18972433D01*
X28809225Y18979781D01*
X28811572Y18991580D01*
Y19588409D01*
X28912891Y19689728D01*
X31196280D01*
X31196280Y19689726D01*
X31208078Y19692075D01*
X31218082Y19698758D01*
X31558630Y20039307D01*
X31573792Y20033028D01*
X31597601Y20029893D01*
X31621408Y20033028D01*
X31643594Y20042216D01*
X31662646Y20056834D01*
X31677264Y20075887D01*
X31686453Y20098071D01*
X31689587Y20121880D01*
X31686453Y20145688D01*
X31677264Y20167873D01*
X31662646Y20186925D01*
X31643594Y20201543D01*
X31621408Y20210733D01*
X31597601Y20213867D01*
X31573792Y20210733D01*
X31551608Y20201543D01*
X31532556Y20186925D01*
X31517938Y20167873D01*
X31508746Y20145688D01*
X31505612Y20121880D01*
X31508746Y20098071D01*
X31515027Y20082912D01*
X31183508Y19751392D01*
X28900119D01*
X28888321Y19749045D01*
X28878317Y19742361D01*
X28878317Y19742361D01*
X28758939Y19622981D01*
X28752255Y19612979D01*
X28749908Y19601180D01*
X28749908Y19601180D01*
Y19298686D01*
X28737207Y19294833D01*
X28730624Y19304684D01*
X28727753Y19306604D01*
Y19705249D01*
X28859552Y19837048D01*
X31003656D01*
X31009937Y19821887D01*
X31024554Y19802835D01*
X31043607Y19788217D01*
X31065793Y19779027D01*
X31089600Y19775893D01*
X31113409Y19779027D01*
X31135593Y19788217D01*
X31154645Y19802835D01*
X31169263Y19821887D01*
X31178452Y19844072D01*
X31181586Y19867880D01*
X31178452Y19891689D01*
X31169263Y19913873D01*
X31154645Y19932925D01*
X31135593Y19947543D01*
X31113409Y19956734D01*
X31089600Y19959866D01*
X31065793Y19956734D01*
X31043607Y19947543D01*
X31024554Y19932925D01*
X31009937Y19913873D01*
X31003656Y19898712D01*
X28846780D01*
X28846780Y19898714D01*
X28834982Y19896365D01*
X28824979Y19889682D01*
X28675119Y19739822D01*
X28658932Y19738455D01*
X28656631Y19740227D01*
Y19804309D01*
X28808752Y19956429D01*
X30876239D01*
X30876239Y19956427D01*
X30888040Y19958775D01*
X30898041Y19965459D01*
X31000241Y20067659D01*
X31017099Y20066554D01*
X31024554Y20056834D01*
X31043607Y20042216D01*
X31065793Y20033028D01*
X31089600Y20029893D01*
X31113409Y20033028D01*
X31135593Y20042216D01*
X31154645Y20056834D01*
X31169263Y20075887D01*
X31178452Y20098071D01*
X31181586Y20121880D01*
X31178452Y20145688D01*
X31169263Y20167873D01*
X31154645Y20186925D01*
X31135593Y20201543D01*
X31113409Y20210733D01*
X31089600Y20213867D01*
X31065793Y20210733D01*
X31043607Y20201543D01*
X31024554Y20186925D01*
X31009937Y20167873D01*
X31003009Y20151151D01*
X30999060Y20150365D01*
X30989059Y20143681D01*
X30989059Y20143681D01*
X30863470Y20018092D01*
X28795981D01*
X28795981Y20018092D01*
X28784180Y20015746D01*
X28774179Y20009062D01*
X28611652Y19846536D01*
X28603998Y19841422D01*
X28587811Y19840054D01*
X28585513Y19841826D01*
Y19920570D01*
X28588245Y19924661D01*
X28590591Y19936459D01*
Y20368196D01*
X28593466Y20370116D01*
X28603799Y20385579D01*
X28607425Y20403819D01*
X28603799Y20422061D01*
X28593466Y20437524D01*
X28591574Y20438788D01*
X28595428Y20451488D01*
X31196280D01*
X31208078Y20453835D01*
X31218082Y20460518D01*
X31218564Y20461243D01*
X31558630Y20801308D01*
X31573792Y20795027D01*
X31597601Y20791893D01*
X31621408Y20795027D01*
X31643594Y20804218D01*
X31662646Y20818835D01*
X31677264Y20837888D01*
X31686453Y20860072D01*
X31689587Y20883881D01*
X31686453Y20907687D01*
X31677264Y20929874D01*
X31662646Y20948924D01*
X31643594Y20963544D01*
X31621408Y20972733D01*
X31597601Y20975867D01*
X31573792Y20972733D01*
X31551608Y20963544D01*
X31532556Y20948924D01*
X31517938Y20929874D01*
X31508746Y20907687D01*
X31505612Y20883881D01*
X31508746Y20860072D01*
X31515027Y20844911D01*
X31183270Y20513152D01*
X28351242D01*
X28351239Y20513153D01*
X28339441Y20510805D01*
X28329437Y20504121D01*
X28329437Y20504121D01*
X27955408Y20130092D01*
X27692517D01*
X27687256Y20142792D01*
X27733203Y20188737D01*
X27739886Y20198741D01*
X27742233Y20210539D01*
X27742233Y20210541D01*
Y20708620D01*
X27742233Y20708620D01*
X27739886Y20720419D01*
X27733203Y20730421D01*
X27630719Y20832903D01*
X27622742Y20841661D01*
X27622739D01*
X27622739Y20841661D01*
Y20961659D01*
X27569547D01*
X27567087Y20965154D01*
X27572885Y20977267D01*
X27907150D01*
X28210297Y20674120D01*
X28210297Y20674118D01*
X28220300Y20667435D01*
X28232101Y20665088D01*
X28242651D01*
X28248639Y20653886D01*
X28246481Y20650661D01*
X28242853Y20632420D01*
X28246481Y20614178D01*
X28256815Y20598715D01*
X28272278Y20588382D01*
X28290521Y20584753D01*
X28308762Y20588382D01*
X28324225Y20598715D01*
X28324448Y20599048D01*
X31003656D01*
X31009937Y20583887D01*
X31024554Y20564835D01*
X31043607Y20550217D01*
X31065793Y20541026D01*
X31089600Y20537894D01*
X31113409Y20541026D01*
X31135593Y20550217D01*
X31154645Y20564835D01*
X31169263Y20583887D01*
X31178452Y20606071D01*
X31181586Y20629880D01*
X31178452Y20653688D01*
X31169263Y20675873D01*
X31154645Y20694925D01*
X31135593Y20709543D01*
X31113409Y20718733D01*
X31089600Y20721867D01*
X31065793Y20718733D01*
X31043607Y20709543D01*
X31024554Y20694925D01*
X31009937Y20675873D01*
X31003656Y20660712D01*
X30926239D01*
X30922385Y20673412D01*
X30923441Y20674118D01*
X31050632Y20801308D01*
X31065793Y20795027D01*
X31089600Y20791893D01*
X31113409Y20795027D01*
X31135593Y20804218D01*
X31154645Y20818835D01*
X31169263Y20837888D01*
X31178452Y20860072D01*
X31181586Y20883881D01*
X31178452Y20907687D01*
X31169263Y20929874D01*
X31154645Y20948924D01*
X31135593Y20963544D01*
X31113409Y20972733D01*
X31089600Y20975867D01*
X31065793Y20972733D01*
X31043607Y20963544D01*
X31024554Y20948924D01*
X31009937Y20929874D01*
X31000748Y20907687D01*
X30997614Y20883881D01*
X31000748Y20860072D01*
X31007028Y20844911D01*
X30888870Y20726752D01*
X28244870D01*
X27941721Y21029903D01*
X27931720Y21036584D01*
X27919919Y21038933D01*
X27919919Y21038931D01*
X26232880D01*
X26232880Y21038933D01*
X26221082Y21036584D01*
X26211078Y21029903D01*
X26211078Y21029901D01*
X25957318Y20776141D01*
X25950635Y20766139D01*
X25948288Y20754340D01*
X25948288Y20754340D01*
Y18135664D01*
X25945416Y18133745D01*
X25935083Y18118282D01*
X25931454Y18100040D01*
X25935083Y18081799D01*
X25945416Y18066335D01*
X25960880Y18056001D01*
X25979120Y18052374D01*
X25997360Y18056001D01*
X26012823Y18066335D01*
X26025616Y18062617D01*
X26026541Y18056445D01*
X25996829Y18026732D01*
X24768416D01*
X24767584Y18039432D01*
X24787044Y18041994D01*
X24812318Y18052464D01*
X24834023Y18069118D01*
X24850676Y18090822D01*
X24861147Y18116096D01*
X24864014Y18137880D01*
X25118166Y18392032D01*
X25118167Y18392033D01*
X25130750Y18408432D01*
X25138660Y18427528D01*
X25141357Y18448019D01*
X25141357Y18448022D01*
Y20316011D01*
X25152936Y20331102D01*
X25163406Y20356377D01*
X25166977Y20383501D01*
X25163406Y20410623D01*
X25152936Y20435898D01*
X25136282Y20457602D01*
X25114578Y20474255D01*
X25089304Y20484726D01*
X25062180Y20488297D01*
X25035057Y20484726D01*
X25009782Y20474255D01*
X24988078Y20457602D01*
X24971423Y20435898D01*
X24960954Y20410623D01*
X24957384Y20383501D01*
X24960954Y20356377D01*
X24971423Y20331102D01*
X24983003Y20316011D01*
Y18480817D01*
X24748730Y18246542D01*
X24732797Y18244446D01*
X24707523Y18233977D01*
X24685818Y18217322D01*
X24669164Y18195618D01*
X24658694Y18170343D01*
X24655122Y18143221D01*
X24658694Y18116096D01*
X24669164Y18090822D01*
X24685818Y18069118D01*
X24707523Y18052464D01*
X24732797Y18041994D01*
X24752255Y18039432D01*
X24751424Y18026732D01*
X24588960D01*
X24585345Y18032146D01*
X24569881Y18042477D01*
X24551640Y18046106D01*
X24533398Y18042477D01*
X24517935Y18032146D01*
X24514319Y18026732D01*
X17978191D01*
X15163277Y20841647D01*
X15167458Y20855428D01*
X15179591Y20857841D01*
X15199437Y20871103D01*
X15212698Y20890948D01*
X15212700Y20890958D01*
X15225648D01*
X15226662Y20885869D01*
X15239923Y20866023D01*
X15259769Y20852760D01*
X15283180Y20848105D01*
X15306590Y20852760D01*
X15326437Y20866023D01*
X15339699Y20885869D01*
X15344354Y20909280D01*
X15339699Y20932690D01*
X15326437Y20952538D01*
X15306590Y20965799D01*
X15283180Y20970454D01*
X15265469Y20966933D01*
X15211711Y21020691D01*
X15202548Y21026813D01*
X15191740Y21028963D01*
X15191739Y21028963D01*
X15180579D01*
X14994025Y21215517D01*
X14998206Y21229297D01*
X15006781Y21231001D01*
X15022244Y21241335D01*
X15026956Y21248386D01*
X15043393Y21251028D01*
X15044962Y21249686D01*
X15045096Y21249226D01*
X15048642Y21231400D01*
X15058975Y21215935D01*
X15074438Y21205602D01*
X15092680Y21201974D01*
X15110921Y21205602D01*
X15126385Y21215935D01*
X15136719Y21231400D01*
X15140346Y21249640D01*
X15136719Y21267880D01*
X15126385Y21283345D01*
X15110921Y21293678D01*
X15098752Y21296098D01*
X15035831Y21359019D01*
Y21433904D01*
X15048532Y21441908D01*
X15055000Y21440620D01*
X15066536Y21442915D01*
X15070850Y21445799D01*
X15080000Y21448402D01*
X15089149Y21445799D01*
X15093465Y21442915D01*
X15105000Y21440620D01*
X15116536Y21442915D01*
X15126315Y21449451D01*
X15133685D01*
X15143465Y21442915D01*
X15155000Y21440620D01*
X15166536Y21442915D01*
X15170851Y21445799D01*
X15180000Y21448402D01*
X15189149Y21445799D01*
X15193465Y21442915D01*
X15205000Y21440620D01*
X15216536Y21442915D01*
X15226315Y21449451D01*
X15232849Y21459229D01*
X15235144Y21470766D01*
Y21621635D01*
X15232849Y21633171D01*
X15226315Y21642950D01*
X15216536Y21649484D01*
X15205000Y21651779D01*
X15193465Y21649484D01*
X15189149Y21646600D01*
X15180000Y21643999D01*
X15170851Y21646600D01*
X15166536Y21649484D01*
X15155000Y21651779D01*
X15143465Y21649484D01*
X15133685Y21642950D01*
X15126315D01*
X15116536Y21649484D01*
X15105000Y21651779D01*
X15093465Y21649484D01*
X15089149Y21646600D01*
X15080000Y21643999D01*
X15070850Y21646600D01*
X15066536Y21649484D01*
X15055000Y21651779D01*
X15043465Y21649484D01*
X15033685Y21642950D01*
X15026315D01*
X15016536Y21649484D01*
X15005000Y21651779D01*
X14993465Y21649484D01*
X14983685Y21642950D01*
X14976315D01*
X14966536Y21649484D01*
X14955000Y21651779D01*
X14943465Y21649484D01*
X14939149Y21646600D01*
X14930000Y21643999D01*
X14920851Y21646600D01*
X14916536Y21649484D01*
X14905000Y21651779D01*
X14893465Y21649484D01*
X14883685Y21642950D01*
X14876315D01*
X14866536Y21649484D01*
X14855000Y21651779D01*
X14851495Y21651082D01*
X14838795Y21660477D01*
Y21678065D01*
X14838803Y21678075D01*
X14838805Y21678076D01*
X14845488Y21688078D01*
X14847835Y21699876D01*
X14847835Y21699879D01*
Y21867139D01*
X14849037Y21868939D01*
X14852666Y21887180D01*
X14849037Y21905421D01*
X14838704Y21920885D01*
X14823241Y21931218D01*
X14805000Y21934846D01*
D02*
G37*
G36*
X10454640Y21741699D02*
X10429840Y21738435D01*
X10406730Y21728862D01*
X10386885Y21713634D01*
X10371658Y21693790D01*
X10362085Y21670680D01*
X10358821Y21645880D01*
X10362085Y21621080D01*
X10371658Y21597971D01*
X10386885Y21578125D01*
X10406730Y21562898D01*
X10429840Y21553325D01*
X10454640Y21550061D01*
X10479440Y21553325D01*
X10502550Y21562898D01*
X10522395Y21578125D01*
X10537622Y21597971D01*
X10547195Y21621080D01*
X10550459Y21645880D01*
X10547195Y21670680D01*
X10537622Y21693790D01*
X10522395Y21713634D01*
X10502550Y21728862D01*
X10479440Y21738435D01*
X10454640Y21741699D01*
D02*
G37*
G36*
X31089600Y21483867D02*
X31065793Y21480733D01*
X31043607Y21471542D01*
X31024554Y21456924D01*
X31009937Y21437872D01*
X31000748Y21415688D01*
X30997614Y21391879D01*
X31000748Y21368073D01*
X31009937Y21345888D01*
X31024554Y21326836D01*
X31043607Y21312218D01*
X31065793Y21303027D01*
X31089600Y21299893D01*
X31113409Y21303027D01*
X31135593Y21312218D01*
X31154645Y21326836D01*
X31169263Y21345888D01*
X31178452Y21368073D01*
X31181586Y21391879D01*
X31178452Y21415688D01*
X31169263Y21437872D01*
X31154645Y21456924D01*
X31135593Y21471542D01*
X31113409Y21480733D01*
X31089600Y21483867D01*
D02*
G37*
G36*
X10454640Y21360699D02*
X10429840Y21357436D01*
X10406730Y21347862D01*
X10386885Y21332635D01*
X10371658Y21312790D01*
X10362085Y21289680D01*
X10358821Y21264880D01*
X10362085Y21240080D01*
X10371658Y21216969D01*
X10386885Y21197125D01*
X10406730Y21181898D01*
X10429840Y21172325D01*
X10454640Y21169061D01*
X10479440Y21172325D01*
X10502550Y21181898D01*
X10522395Y21197125D01*
X10537622Y21216969D01*
X10540405Y21223689D01*
X10865580D01*
Y21207420D01*
X10965580D01*
Y21327420D01*
X10865580D01*
Y21306071D01*
X10540405D01*
X10537622Y21312790D01*
X10522395Y21332635D01*
X10502550Y21347862D01*
X10479440Y21357436D01*
X10454640Y21360699D01*
D02*
G37*
G36*
X31597601Y21229868D02*
X31573792Y21226733D01*
X31551608Y21217543D01*
X31532556Y21202925D01*
X31517938Y21183873D01*
X31508746Y21161688D01*
X31505612Y21137880D01*
X31508746Y21114072D01*
X31517938Y21091887D01*
X31532556Y21072835D01*
X31551608Y21058217D01*
X31573792Y21049026D01*
X31597601Y21045892D01*
X31621408Y21049026D01*
X31643594Y21058217D01*
X31662646Y21072835D01*
X31677264Y21091887D01*
X31686453Y21114072D01*
X31689587Y21137880D01*
X31686453Y21161688D01*
X31677264Y21183873D01*
X31662646Y21202925D01*
X31643594Y21217543D01*
X31621408Y21226733D01*
X31597601Y21229868D01*
D02*
G37*
G36*
X18829781Y21271992D02*
X18719780D01*
X18703197Y21268694D01*
X18689139Y21259300D01*
X18679745Y21245242D01*
X18676447Y21228661D01*
X18679745Y21212077D01*
X18689139Y21198019D01*
X18693643Y21195010D01*
Y21182310D01*
X18689139Y21179300D01*
X18679745Y21165242D01*
X18676447Y21148660D01*
X18679745Y21132077D01*
X18689139Y21118019D01*
X18693643Y21115010D01*
Y21102310D01*
X18689139Y21099300D01*
X18679745Y21085243D01*
X18676447Y21068660D01*
X18679745Y21052077D01*
X18689139Y21038019D01*
X18689243Y21037952D01*
X18690205Y21023730D01*
X18683183Y21016904D01*
X18656889D01*
X18646857Y21031917D01*
X18627011Y21045180D01*
X18603600Y21049835D01*
X18580190Y21045180D01*
X18560342Y21031917D01*
X18547081Y21012071D01*
X18542424Y20988660D01*
X18547081Y20965250D01*
X18560342Y20945403D01*
X18580190Y20932141D01*
X18603600Y20927484D01*
X18627011Y20932141D01*
X18646857Y20945403D01*
X18656889Y20960417D01*
X18687537D01*
X18689139Y20958018D01*
X18703197Y20948627D01*
X18719780Y20945328D01*
X18829781D01*
X18846362Y20948627D01*
X18860420Y20958018D01*
X18869814Y20972076D01*
X18873112Y20988660D01*
X18869814Y21005241D01*
X18860420Y21019299D01*
X18855917Y21022310D01*
Y21035010D01*
X18860420Y21038019D01*
X18869814Y21052077D01*
X18873112Y21068660D01*
X18869814Y21085243D01*
X18860420Y21099300D01*
X18855917Y21102310D01*
Y21115010D01*
X18860420Y21118019D01*
X18869814Y21132077D01*
X18873112Y21148660D01*
X18869814Y21165242D01*
X18860420Y21179300D01*
X18855917Y21182310D01*
Y21195010D01*
X18860420Y21198019D01*
X18869814Y21212077D01*
X18873112Y21228661D01*
X18869814Y21245242D01*
X18860420Y21259300D01*
X18846362Y21268694D01*
X18829781Y21271992D01*
D02*
G37*
G36*
X20210780Y20945055D02*
X20187369Y20940399D01*
X20172182Y20930251D01*
X20122420D01*
Y20943880D01*
X20022420D01*
Y20823880D01*
X20122420D01*
Y20837509D01*
X20172182D01*
X20187369Y20827361D01*
X20210780Y20822704D01*
X20234190Y20827361D01*
X20254037Y20840622D01*
X20267299Y20860469D01*
X20271956Y20883881D01*
X20267299Y20907291D01*
X20254037Y20927138D01*
X20234190Y20940399D01*
X20210780Y20945055D01*
D02*
G37*
G36*
X10454640Y21106699D02*
X10429840Y21103435D01*
X10406730Y21093861D01*
X10386885Y21078635D01*
X10371658Y21058791D01*
X10362085Y21035680D01*
X10358821Y21010880D01*
X10362085Y20986079D01*
X10371658Y20962970D01*
X10386885Y20943124D01*
X10406730Y20927898D01*
X10429840Y20918324D01*
X10454640Y20915060D01*
X10479440Y20918324D01*
X10502550Y20927898D01*
X10522395Y20943124D01*
X10537622Y20962970D01*
X10547195Y20986079D01*
X10550459Y21010880D01*
X10547195Y21035680D01*
X10537622Y21058791D01*
X10522395Y21078635D01*
X10502550Y21093861D01*
X10479440Y21103435D01*
X10454640Y21106699D01*
D02*
G37*
G36*
X16578580Y21553847D02*
X16560339Y21550218D01*
X16544875Y21539885D01*
X16534541Y21524422D01*
X16530914Y21506180D01*
X16534541Y21487939D01*
X16544875Y21472475D01*
X16560339Y21462141D01*
X16578580Y21458514D01*
X16584087Y21459610D01*
X17316838Y20726859D01*
X17316838Y20726859D01*
X17326842Y20720174D01*
X17338640Y20717827D01*
X18689426D01*
X18703197Y20708626D01*
X18719780Y20705327D01*
X18829781D01*
X18846362Y20708626D01*
X18860420Y20718019D01*
X18869814Y20732077D01*
X18873112Y20748660D01*
X18869814Y20765242D01*
X18860420Y20779300D01*
X18855917Y20782310D01*
Y20795010D01*
X18860420Y20798019D01*
X18869814Y20812077D01*
X18873112Y20828661D01*
X18869814Y20845242D01*
X18860420Y20859300D01*
X18846362Y20868694D01*
X18829781Y20871992D01*
X18719780D01*
X18703197Y20868694D01*
X18689139Y20859300D01*
X18679745Y20845242D01*
X18676447Y20828661D01*
X18679745Y20812077D01*
X18689139Y20798019D01*
X18687202Y20784328D01*
X18682111Y20779492D01*
X17351411D01*
X16625993Y21504910D01*
X16626247Y21506180D01*
X16622618Y21524422D01*
X16612285Y21539885D01*
X16596822Y21550218D01*
X16578580Y21553847D01*
D02*
G37*
G36*
X21269000Y20528819D02*
X21149001D01*
Y20518671D01*
X21086839D01*
Y20520419D01*
X20909520D01*
Y20518671D01*
X20876260D01*
X20860497Y20515536D01*
X20847133Y20506607D01*
X20699812Y20359286D01*
X20690884Y20345923D01*
X20687749Y20330161D01*
Y20108463D01*
X20461618Y19882332D01*
X20219980D01*
Y19891141D01*
X20099980D01*
Y19882332D01*
X20033601D01*
X19744608Y20171327D01*
X19731242Y20180257D01*
X19715480Y20183391D01*
X19381657D01*
X19380276Y20185457D01*
X19378210Y20186838D01*
Y20210240D01*
X19417340D01*
Y20310240D01*
X19297340D01*
Y20247520D01*
X19295828Y20239920D01*
Y20186838D01*
X19293764Y20185457D01*
X19280501Y20165611D01*
X19275845Y20142200D01*
X19280501Y20118790D01*
X19293764Y20098943D01*
X19313609Y20085681D01*
X19337019Y20081026D01*
X19360431Y20085681D01*
X19380276Y20098943D01*
X19381657Y20101009D01*
X19698418D01*
X19987413Y19812013D01*
X20000777Y19803084D01*
X20016541Y19799950D01*
X20099980D01*
Y19791141D01*
X20219980D01*
Y19799950D01*
X20478680D01*
X20494443Y19803084D01*
X20507806Y19812013D01*
X20758067Y20062273D01*
X20766995Y20075636D01*
X20770131Y20091400D01*
Y20313098D01*
X20893323Y20436288D01*
X20909520D01*
Y20434540D01*
X21086839D01*
Y20436288D01*
X21149001D01*
Y20418820D01*
X21269000D01*
Y20528819D01*
D02*
G37*
G36*
X18315939Y20442136D02*
X18292529Y20437479D01*
X18277342Y20427332D01*
X18173701D01*
X18173700Y20427332D01*
X18155956Y20423801D01*
X18140910Y20413750D01*
X18140910Y20413750D01*
X17040443Y19313281D01*
X17022530Y19309718D01*
X17002682Y19296457D01*
X16989421Y19276611D01*
X16984766Y19253200D01*
X16989421Y19229790D01*
X17002682Y19209943D01*
X17022530Y19196681D01*
X17045940Y19192026D01*
X17069351Y19196681D01*
X17089197Y19209943D01*
X17102460Y19229790D01*
X17106023Y19247704D01*
X18192908Y20334589D01*
X18277342D01*
X18292529Y20324442D01*
X18315939Y20319785D01*
X18339351Y20324442D01*
X18347968Y20330199D01*
X18357124Y20321043D01*
X18353401Y20315471D01*
X18349838Y20297556D01*
X17210896Y19158614D01*
X17201431Y19164938D01*
X17178020Y19169595D01*
X17154610Y19164938D01*
X17134763Y19151677D01*
X17121501Y19131831D01*
X17116846Y19108420D01*
X17121501Y19085008D01*
X17134763Y19065163D01*
X17154610Y19051901D01*
X17178020Y19047244D01*
X17201431Y19051901D01*
X17216618Y19062048D01*
X17226279D01*
X17226280Y19062048D01*
X17244025Y19065579D01*
X17259068Y19075632D01*
X18415416Y20231978D01*
X18433331Y20235541D01*
X18453177Y20248804D01*
X18466438Y20268649D01*
X18471095Y20292059D01*
X18466438Y20315471D01*
X18453177Y20335316D01*
X18433331Y20348579D01*
X18409920Y20353235D01*
X18386510Y20348579D01*
X18377892Y20342821D01*
X18368736Y20351978D01*
X18372459Y20357549D01*
X18377115Y20380960D01*
X18372459Y20404372D01*
X18359196Y20424217D01*
X18339351Y20437479D01*
X18315939Y20442136D01*
D02*
G37*
G36*
X21086839Y20393420D02*
X20909520D01*
Y20307539D01*
X21086839D01*
Y20393420D01*
D02*
G37*
G36*
X31597601Y20467867D02*
X31573792Y20464732D01*
X31551608Y20455544D01*
X31532556Y20440926D01*
X31517938Y20421873D01*
X31508746Y20399689D01*
X31505612Y20375880D01*
X31508746Y20352072D01*
X31517938Y20329887D01*
X31532556Y20310835D01*
X31551608Y20296217D01*
X31573792Y20287027D01*
X31597601Y20283893D01*
X31621408Y20287027D01*
X31643594Y20296217D01*
X31662646Y20310835D01*
X31677264Y20329887D01*
X31686453Y20352072D01*
X31689587Y20375880D01*
X31686453Y20399689D01*
X31677264Y20421873D01*
X31662646Y20440926D01*
X31643594Y20455544D01*
X31621408Y20464732D01*
X31597601Y20467867D01*
D02*
G37*
G36*
X21086839Y20266420D02*
X20909520D01*
Y20180540D01*
X21086839D01*
Y20266420D01*
D02*
G37*
G36*
X10600571Y20164819D02*
X10506831D01*
X10459961Y20117950D01*
Y20024210D01*
X10506831Y19977341D01*
X10600571D01*
X10647441Y20024210D01*
Y20117950D01*
X10600571Y20164819D01*
D02*
G37*
G36*
Y19910820D02*
X10506831D01*
X10459961Y19863950D01*
Y19770210D01*
X10506831Y19723340D01*
X10600571D01*
X10647441Y19770210D01*
Y19863950D01*
X10600571Y19910820D01*
D02*
G37*
G36*
X11534140Y19855482D02*
X11534139Y19855482D01*
X10817861D01*
X10807053Y19853333D01*
X10797890Y19847211D01*
X10604035Y19653355D01*
X10600571Y19656821D01*
X10506831D01*
X10459961Y19609950D01*
Y19516209D01*
X10463425Y19512746D01*
X10427290Y19476611D01*
X10421168Y19467448D01*
X10419018Y19456641D01*
X10419018Y19456639D01*
Y18400542D01*
X10419018Y18400539D01*
X10421168Y18389731D01*
X10427290Y18380569D01*
X10733780Y18074078D01*
X10726428Y18056328D01*
X10723293Y18032520D01*
X10726428Y18008711D01*
X10735617Y17986526D01*
X10750236Y17967474D01*
X10769287Y17952856D01*
X10791472Y17943668D01*
X10815280Y17940533D01*
X10839088Y17943668D01*
X10861274Y17952856D01*
X10880325Y17967474D01*
X10894943Y17986526D01*
X10902296Y18004277D01*
X11005898D01*
X11010209Y17991577D01*
X10992959Y17978342D01*
X10976930Y17957452D01*
X10966854Y17933125D01*
X10963417Y17907021D01*
X10966854Y17880914D01*
X10976930Y17856589D01*
X10992959Y17835699D01*
X11013848Y17819670D01*
X11038175Y17809595D01*
X11064280Y17806157D01*
X11090385Y17809595D01*
X11114711Y17819670D01*
X11135601Y17835699D01*
X11151629Y17856589D01*
X11161706Y17880914D01*
X11165143Y17907021D01*
X11161706Y17933125D01*
X11151629Y17957452D01*
X11135601Y17978342D01*
X11118351Y17991577D01*
X11122662Y18004277D01*
X11289760D01*
Y17989243D01*
X11316517D01*
Y17967000D01*
X11289760D01*
Y17847000D01*
X11399760D01*
Y17967000D01*
X11373003D01*
Y17989243D01*
X11399760D01*
Y18109242D01*
X11289760D01*
Y18060764D01*
X10902296D01*
X10894943Y18078513D01*
X10880325Y18097565D01*
X10861274Y18112183D01*
X10839088Y18121371D01*
X10815280Y18124507D01*
X10791472Y18121371D01*
X10773722Y18114020D01*
X10475504Y18412238D01*
Y18976074D01*
X10487237Y18980934D01*
X10506831Y18961340D01*
X10600571D01*
X10647441Y19008211D01*
Y19101950D01*
X10600571Y19148820D01*
X10506831D01*
X10487237Y19129227D01*
X10475504Y19134087D01*
Y19230074D01*
X10487237Y19234933D01*
X10506831Y19215340D01*
X10600571D01*
X10647441Y19262210D01*
Y19355949D01*
X10600571Y19402820D01*
X10506831D01*
X10487237Y19383226D01*
X10475504Y19388086D01*
Y19444942D01*
X10503367Y19472804D01*
X10506831Y19469341D01*
X10600571D01*
X10647441Y19516209D01*
Y19609950D01*
X10643976Y19613414D01*
X10829559Y19798997D01*
X11522441D01*
X11595518Y19725920D01*
X11591995Y19708209D01*
X11596652Y19684798D01*
X11609913Y19664952D01*
X11629760Y19651691D01*
X11653171Y19647034D01*
X11676582Y19651691D01*
X11696428Y19664952D01*
X11709690Y19684798D01*
X11714346Y19708209D01*
X11709690Y19731619D01*
X11696428Y19751466D01*
X11676582Y19764728D01*
X11653171Y19769385D01*
X11635460Y19765862D01*
X11554111Y19847211D01*
X11544948Y19853333D01*
X11534140Y19855482D01*
D02*
G37*
G36*
X31145239Y19538274D02*
X31145239Y19538272D01*
X29509961D01*
X29509961Y19538274D01*
X29498160Y19535925D01*
X29494559Y19533519D01*
X29489401Y19534546D01*
X29471158Y19530917D01*
X29455695Y19520586D01*
X29445361Y19505121D01*
X29441733Y19486880D01*
X29445361Y19468639D01*
X29455695Y19453175D01*
X29458569Y19451256D01*
Y19242261D01*
X29453156Y19238644D01*
X29442822Y19223181D01*
X29439194Y19204939D01*
X29442822Y19186699D01*
X29453156Y19171236D01*
X29468619Y19160902D01*
X29486859Y19157274D01*
X29505099Y19160902D01*
X29520566Y19171236D01*
X29530899Y19186699D01*
X29534525Y19204939D01*
X29530899Y19223181D01*
X29520566Y19238644D01*
X29520233Y19238867D01*
Y19451256D01*
X29523105Y19453175D01*
X29533438Y19468639D01*
X29535022Y19476608D01*
X31132468D01*
X31270999Y19338078D01*
X31270999Y19338078D01*
X31281000Y19331395D01*
X31292801Y19329048D01*
X31511658D01*
X31517938Y19313887D01*
X31532556Y19294835D01*
X31551608Y19280217D01*
X31573792Y19271027D01*
X31597601Y19267892D01*
X31621408Y19271027D01*
X31643594Y19280217D01*
X31662646Y19294835D01*
X31677264Y19313887D01*
X31686453Y19336072D01*
X31689587Y19359880D01*
X31686453Y19383688D01*
X31677264Y19405873D01*
X31662646Y19424925D01*
X31643594Y19439543D01*
X31621408Y19448734D01*
X31597601Y19451868D01*
X31573792Y19448734D01*
X31551608Y19439543D01*
X31532556Y19424925D01*
X31517938Y19405873D01*
X31511658Y19390712D01*
X31305573D01*
X31167041Y19529242D01*
X31157040Y19535925D01*
X31145239Y19538274D01*
D02*
G37*
G36*
X31597601Y19705867D02*
X31573792Y19702733D01*
X31551608Y19693542D01*
X31532556Y19678925D01*
X31517938Y19659872D01*
X31508746Y19637688D01*
X31505612Y19613879D01*
X31508746Y19590073D01*
X31517938Y19567886D01*
X31532556Y19548836D01*
X31551608Y19534216D01*
X31573792Y19525027D01*
X31597601Y19521893D01*
X31621408Y19525027D01*
X31643594Y19534216D01*
X31662646Y19548836D01*
X31677264Y19567886D01*
X31686453Y19590073D01*
X31689587Y19613879D01*
X31686453Y19637688D01*
X31677264Y19659872D01*
X31662646Y19678925D01*
X31643594Y19693542D01*
X31621408Y19702733D01*
X31597601Y19705867D01*
D02*
G37*
G36*
X16200121Y19263576D02*
X16176709Y19258919D01*
X16156863Y19245657D01*
X16143600Y19225810D01*
X16138945Y19202400D01*
X16142468Y19184689D01*
X15035263Y18077486D01*
X11539760D01*
Y18109242D01*
X11429760D01*
Y17989243D01*
X11539760D01*
Y18020999D01*
X15046960D01*
X15046962Y18020999D01*
X15057770Y18023149D01*
X15066933Y18029271D01*
X16182410Y19144748D01*
X16200121Y19141225D01*
X16223531Y19145882D01*
X16243378Y19159143D01*
X16256639Y19178989D01*
X16261295Y19202400D01*
X16256639Y19225810D01*
X16243378Y19245657D01*
X16223531Y19258919D01*
X16200121Y19263576D01*
D02*
G37*
G36*
X28981400Y19656467D02*
X28963159Y19652838D01*
X28947696Y19642505D01*
X28937363Y19627042D01*
X28933734Y19608800D01*
X28937363Y19590559D01*
X28947696Y19575095D01*
X28950568Y19573177D01*
Y19552921D01*
X28950568Y19552921D01*
X28952914Y19541121D01*
X28959598Y19531117D01*
X29246829Y19243887D01*
X29246155Y19240500D01*
X29249783Y19222260D01*
X29260114Y19206795D01*
X29275580Y19196461D01*
X29293820Y19192834D01*
X29297208Y19193507D01*
X29406638Y19084079D01*
X29406638Y19084077D01*
X29416641Y19077396D01*
X29428439Y19075047D01*
X31003656D01*
X31009937Y19059888D01*
X31024554Y19040836D01*
X31043607Y19026218D01*
X31065793Y19017027D01*
X31089600Y19013893D01*
X31113409Y19017027D01*
X31135593Y19026218D01*
X31154645Y19040836D01*
X31169263Y19059888D01*
X31178452Y19082072D01*
X31181586Y19105881D01*
X31178452Y19129688D01*
X31169263Y19151872D01*
X31154645Y19170924D01*
X31135593Y19185542D01*
X31113409Y19194733D01*
X31089600Y19197867D01*
X31065793Y19194733D01*
X31043607Y19185542D01*
X31024554Y19170924D01*
X31009937Y19151872D01*
X31003656Y19136713D01*
X29441211D01*
X29340811Y19237112D01*
X29341486Y19240500D01*
X29337857Y19258742D01*
X29327524Y19274205D01*
X29312061Y19284538D01*
X29293820Y19288165D01*
X29290433Y19287492D01*
X29015967Y19561955D01*
X29015106Y19575095D01*
X29025439Y19590559D01*
X29029065Y19608800D01*
X29025439Y19627042D01*
X29015106Y19642505D01*
X28999640Y19652838D01*
X28981400Y19656467D01*
D02*
G37*
G36*
X11527530Y19136110D02*
X11281630D01*
Y18986905D01*
X11268930Y18980643D01*
X11261309Y18986490D01*
X11242213Y18994398D01*
X11221720Y18997096D01*
X11201227Y18994398D01*
X11182131Y18986490D01*
X11165733Y18973907D01*
X11153150Y18957509D01*
X11145241Y18938412D01*
X11142543Y18917920D01*
X11145241Y18897427D01*
X11153150Y18878331D01*
X11165733Y18861932D01*
X11182131Y18849350D01*
X11201227Y18841441D01*
X11221720Y18838744D01*
X11242213Y18841441D01*
X11261309Y18849350D01*
X11268930Y18855199D01*
X11281630Y18848935D01*
Y18831810D01*
X11527530D01*
Y19136110D01*
D02*
G37*
G36*
X10346571Y19148820D02*
X10252831D01*
X10205961Y19101950D01*
Y19008211D01*
X10252831Y18961340D01*
X10346571D01*
X10393441Y19008211D01*
Y19101950D01*
X10346571Y19148820D01*
D02*
G37*
G36*
X28976321Y19448186D02*
X28958078Y19444559D01*
X28942615Y19434225D01*
X28932281Y19418761D01*
X28928653Y19400520D01*
X28932281Y19382278D01*
X28942615Y19366815D01*
X28945490Y19364896D01*
Y19301460D01*
X28945486Y19301460D01*
X28947836Y19289661D01*
X28954517Y19279659D01*
X29388858Y18845319D01*
X29388858Y18845319D01*
X29398862Y18838635D01*
X29410660Y18836288D01*
X29438535D01*
X29440454Y18833415D01*
X29455920Y18823082D01*
X29474161Y18819453D01*
X29492401Y18823082D01*
X29507864Y18833415D01*
X29518198Y18848878D01*
X29521826Y18867120D01*
X29518198Y18885361D01*
X29507864Y18900826D01*
X29492401Y18911159D01*
X29474161Y18914786D01*
X29455920Y18911159D01*
X29440454Y18900826D01*
X29438535Y18897952D01*
X29423431D01*
X29007153Y19314230D01*
Y19364896D01*
X29010025Y19366815D01*
X29020358Y19382278D01*
X29023987Y19400520D01*
X29020358Y19418761D01*
X29010025Y19434225D01*
X28994562Y19444559D01*
X28976321Y19448186D01*
D02*
G37*
G36*
X11064280Y18708884D02*
X11038175Y18705446D01*
X11013848Y18695370D01*
X10992959Y18679341D01*
X10976930Y18658450D01*
X10966854Y18634125D01*
X10963417Y18608020D01*
X10966854Y18581915D01*
X10976930Y18557588D01*
X10992959Y18536699D01*
X11013848Y18520670D01*
X11038175Y18510594D01*
X11064280Y18507156D01*
X11090385Y18510594D01*
X11114711Y18520670D01*
X11135601Y18536699D01*
X11151629Y18557588D01*
X11161706Y18581915D01*
X11165143Y18608020D01*
X11161706Y18634125D01*
X11151629Y18658450D01*
X11135601Y18679341D01*
X11114711Y18695370D01*
X11090385Y18705446D01*
X11064280Y18708884D01*
D02*
G37*
G36*
X31597601Y18689867D02*
X31573792Y18686732D01*
X31551608Y18677544D01*
X31532556Y18662926D01*
X31517938Y18643874D01*
X31508746Y18621687D01*
X31505612Y18597881D01*
X31508746Y18574072D01*
X31515027Y18558911D01*
X31191129Y18235011D01*
X29241397D01*
X29236084Y18242966D01*
X29220621Y18253297D01*
X29202380Y18256926D01*
X29184140Y18253297D01*
X29168674Y18242966D01*
X29158344Y18227501D01*
X29154715Y18209261D01*
X29155389Y18205872D01*
X29086499Y18136983D01*
X29029724D01*
X29027805Y18139854D01*
X29012341Y18150188D01*
X28994101Y18153816D01*
X28975858Y18150188D01*
X28960394Y18139854D01*
X28950061Y18124391D01*
X28946432Y18106149D01*
X28950061Y18087909D01*
X28960394Y18072446D01*
X28975858Y18062112D01*
X28994101Y18058484D01*
X29012341Y18062112D01*
X29027805Y18072446D01*
X29029724Y18075317D01*
X29099268D01*
X29099271Y18075317D01*
X29111069Y18077666D01*
X29121072Y18084348D01*
X29198993Y18162268D01*
X29202380Y18161594D01*
X29220621Y18165222D01*
X29232782Y18173347D01*
X31203900D01*
X31203900Y18173347D01*
X31215698Y18175694D01*
X31225702Y18182378D01*
X31558630Y18515308D01*
X31573792Y18509027D01*
X31597601Y18505893D01*
X31621408Y18509027D01*
X31643594Y18518217D01*
X31662646Y18532835D01*
X31677264Y18551888D01*
X31686453Y18574072D01*
X31689587Y18597881D01*
X31686453Y18621687D01*
X31677264Y18643874D01*
X31662646Y18662926D01*
X31643594Y18677544D01*
X31621408Y18686732D01*
X31597601Y18689867D01*
D02*
G37*
G36*
X31089600D02*
X31065793Y18686732D01*
X31043607Y18677544D01*
X31024554Y18662926D01*
X31009937Y18643874D01*
X31000748Y18621687D01*
X30997614Y18597881D01*
X31000748Y18574072D01*
X31009937Y18551888D01*
X31024554Y18532835D01*
X31043607Y18518217D01*
X31065793Y18509027D01*
X31089600Y18505893D01*
X31113409Y18509027D01*
X31135593Y18518217D01*
X31154645Y18532835D01*
X31169263Y18551888D01*
X31178452Y18574072D01*
X31181586Y18597881D01*
X31178452Y18621687D01*
X31169263Y18643874D01*
X31154645Y18662926D01*
X31135593Y18677544D01*
X31113409Y18686732D01*
X31089600Y18689867D01*
D02*
G37*
G36*
X31597601Y18181866D02*
X31573792Y18178732D01*
X31551608Y18169543D01*
X31532556Y18154926D01*
X31517938Y18135873D01*
X31508746Y18113689D01*
X31505612Y18089880D01*
X31508746Y18066072D01*
X31517938Y18043887D01*
X31532556Y18024835D01*
X31551608Y18010217D01*
X31573792Y18001027D01*
X31597601Y17997893D01*
X31621408Y18001027D01*
X31643594Y18010217D01*
X31662646Y18024835D01*
X31677264Y18043887D01*
X31686453Y18066072D01*
X31689587Y18089880D01*
X31686453Y18113689D01*
X31677264Y18135873D01*
X31662646Y18154926D01*
X31643594Y18169543D01*
X31621408Y18178732D01*
X31597601Y18181866D01*
D02*
G37*
G36*
X29850079Y17794646D02*
X29831839Y17791019D01*
X29816376Y17780685D01*
X29806042Y17765221D01*
X29802414Y17746980D01*
X29803088Y17743591D01*
X29659509Y17600012D01*
X29464062D01*
X29462146Y17602885D01*
X29446680Y17613219D01*
X29428439Y17616846D01*
X29410199Y17613219D01*
X29394736Y17602885D01*
X29384402Y17587421D01*
X29380774Y17569180D01*
X29384402Y17550938D01*
X29394736Y17535475D01*
X29410199Y17525142D01*
X29428439Y17521513D01*
X29446680Y17525142D01*
X29462146Y17535475D01*
X29464062Y17538348D01*
X29672278D01*
X29672281Y17538347D01*
X29684079Y17540695D01*
X29694083Y17547379D01*
X29846692Y17699988D01*
X29850079Y17699313D01*
X29868320Y17702942D01*
X29883786Y17713275D01*
X29894119Y17728738D01*
X29897745Y17746980D01*
X29894119Y17765221D01*
X29883786Y17780685D01*
X29868320Y17791019D01*
X29850079Y17794646D01*
D02*
G37*
G36*
X31045270Y17465393D02*
X31045270Y17465392D01*
X30325061D01*
X30325061Y17465393D01*
X30313791Y17463152D01*
X30307281Y17464445D01*
X30289038Y17460818D01*
X30273575Y17450485D01*
X30263242Y17435020D01*
X30259613Y17416780D01*
X30263242Y17398540D01*
X30273575Y17383075D01*
X30289038Y17372742D01*
X30307281Y17369115D01*
X30325522Y17372742D01*
X30340985Y17383075D01*
X30351318Y17398540D01*
X30352350Y17403728D01*
X31044305D01*
X31045511Y17403488D01*
X31120917D01*
X31218326Y17306079D01*
X31218326Y17306078D01*
X31228329Y17299396D01*
X31240128Y17297047D01*
X31511658D01*
X31517938Y17281886D01*
X31532556Y17262836D01*
X31551608Y17248216D01*
X31573792Y17239027D01*
X31597601Y17235893D01*
X31621408Y17239027D01*
X31643594Y17248216D01*
X31662646Y17262836D01*
X31677264Y17281886D01*
X31686453Y17304073D01*
X31689587Y17327879D01*
X31686453Y17351688D01*
X31677264Y17373872D01*
X31662646Y17392924D01*
X31643594Y17407542D01*
X31621408Y17416733D01*
X31597601Y17419867D01*
X31573792Y17416733D01*
X31551608Y17407542D01*
X31532556Y17392924D01*
X31517938Y17373872D01*
X31511658Y17358711D01*
X31252899D01*
X31155490Y17456122D01*
X31145490Y17462805D01*
X31133688Y17465154D01*
X31133688Y17465152D01*
X31046478D01*
X31045270Y17465393D01*
D02*
G37*
G36*
X10454640Y17588799D02*
X10429840Y17585535D01*
X10406730Y17575961D01*
X10386885Y17560735D01*
X10371658Y17540891D01*
X10362085Y17517780D01*
X10358821Y17492979D01*
X10362085Y17468179D01*
X10371658Y17445070D01*
X10386885Y17425224D01*
X10406730Y17409998D01*
X10429840Y17400426D01*
X10454640Y17397160D01*
X10479440Y17400426D01*
X10481075Y17401103D01*
X10989240D01*
X11009733Y17403801D01*
X11028829Y17411711D01*
X11045227Y17424294D01*
X11057234Y17439941D01*
X11064067Y17440886D01*
X11064413D01*
X11071246Y17439941D01*
X11083253Y17424294D01*
X11099651Y17411711D01*
X11118747Y17403801D01*
X11139240Y17401103D01*
X11287983D01*
X11310513Y17378574D01*
X11326912Y17365990D01*
X11346008Y17358081D01*
X11366500Y17355383D01*
X11386993Y17358081D01*
X11406089Y17365990D01*
X11422487Y17378574D01*
X11435070Y17394971D01*
X11442979Y17414067D01*
X11445677Y17434560D01*
X11442979Y17455052D01*
X11435070Y17474149D01*
X11422487Y17490547D01*
X11376767Y17536267D01*
X11360368Y17548849D01*
X11341272Y17556760D01*
X11320780Y17559457D01*
X11139240D01*
X11118747Y17556760D01*
X11099651Y17548849D01*
X11083253Y17536267D01*
X11071246Y17520619D01*
X11064413Y17519675D01*
X11064067D01*
X11057234Y17520619D01*
X11045227Y17536267D01*
X11028829Y17548849D01*
X11009733Y17556760D01*
X10989240Y17559457D01*
X10523374D01*
X10522395Y17560735D01*
X10502550Y17575961D01*
X10479440Y17585535D01*
X10454640Y17588799D01*
D02*
G37*
G36*
X16543021Y18811455D02*
X16519609Y18806799D01*
X16499763Y18793536D01*
X16486501Y18773691D01*
X16482938Y18755775D01*
X15012512Y17285352D01*
X10538259D01*
X10537622Y17286890D01*
X10522395Y17306734D01*
X10502550Y17321962D01*
X10479440Y17331535D01*
X10454640Y17334799D01*
X10429840Y17331535D01*
X10406730Y17321962D01*
X10386885Y17306734D01*
X10371658Y17286890D01*
X10362085Y17263780D01*
X10358821Y17238980D01*
X10362085Y17214180D01*
X10371658Y17191071D01*
X10386885Y17171225D01*
X10406730Y17155998D01*
X10429840Y17146425D01*
X10454640Y17143161D01*
X10479440Y17146425D01*
X10502550Y17155998D01*
X10522395Y17171225D01*
X10537622Y17191071D01*
X10538259Y17192609D01*
X15031718D01*
X15031720Y17192609D01*
X15049464Y17196140D01*
X15064510Y17206190D01*
X16548515Y18690198D01*
X16566431Y18693761D01*
X16586276Y18707024D01*
X16599539Y18726869D01*
X16604195Y18750281D01*
X16599539Y18773691D01*
X16586276Y18793536D01*
X16566431Y18806799D01*
X16543021Y18811455D01*
D02*
G37*
G36*
X11366500Y16957477D02*
X11346008Y16954779D01*
X11340257Y16952399D01*
X11172260D01*
X11151767Y16949699D01*
X11132671Y16941789D01*
X11116273Y16929207D01*
X11104266Y16913559D01*
X11097433Y16912614D01*
X11097087D01*
X11090254Y16913559D01*
X11078247Y16929207D01*
X11061849Y16941789D01*
X11042753Y16949699D01*
X11022260Y16952399D01*
X10469880D01*
X10467584Y16952095D01*
X10454640Y16953799D01*
X10429840Y16950536D01*
X10406730Y16940962D01*
X10386885Y16925734D01*
X10371658Y16905890D01*
X10362085Y16882780D01*
X10358821Y16857980D01*
X10362085Y16833180D01*
X10371658Y16810069D01*
X10386885Y16790225D01*
X10406730Y16774998D01*
X10429840Y16765425D01*
X10454640Y16762161D01*
X10479440Y16765425D01*
X10502550Y16774998D01*
X10522395Y16790225D01*
X10525324Y16794043D01*
X11022260D01*
X11042753Y16796741D01*
X11061849Y16804651D01*
X11078247Y16817233D01*
X11090254Y16832883D01*
X11097087Y16833826D01*
X11097433D01*
X11104266Y16832883D01*
X11116273Y16817233D01*
X11132671Y16804651D01*
X11151767Y16796741D01*
X11172260Y16794043D01*
X11361420D01*
X11381913Y16796741D01*
X11401009Y16804651D01*
X11417407Y16817233D01*
X11422487Y16822313D01*
X11435070Y16838712D01*
X11442979Y16857808D01*
X11445677Y16878300D01*
X11442979Y16898793D01*
X11435070Y16917889D01*
X11422487Y16934286D01*
X11406089Y16946870D01*
X11386993Y16954779D01*
X11366500Y16957477D01*
D02*
G37*
G36*
X16657320Y18648895D02*
X16633910Y18644238D01*
X16614062Y18630977D01*
X16600801Y18611131D01*
X16597238Y18593216D01*
X14654372Y16650351D01*
X10538259D01*
X10537622Y16651891D01*
X10522395Y16671735D01*
X10502550Y16686961D01*
X10479440Y16696535D01*
X10454640Y16699799D01*
X10429840Y16696535D01*
X10406730Y16686961D01*
X10386885Y16671735D01*
X10371658Y16651891D01*
X10362085Y16628780D01*
X10358821Y16603979D01*
X10362085Y16579179D01*
X10371658Y16556070D01*
X10386885Y16536226D01*
X10406730Y16520998D01*
X10429840Y16511424D01*
X10454640Y16508160D01*
X10479440Y16511424D01*
X10502550Y16520998D01*
X10522395Y16536226D01*
X10537622Y16556070D01*
X10538259Y16557610D01*
X14673579D01*
X14673579Y16557610D01*
X14691325Y16561139D01*
X14706369Y16571191D01*
X16662816Y18527638D01*
X16680731Y18531201D01*
X16700577Y18544463D01*
X16713840Y18564310D01*
X16718495Y18587720D01*
X16713840Y18611131D01*
X16700577Y18630977D01*
X16680731Y18644238D01*
X16657320Y18648895D01*
D02*
G37*
G36*
X31851599Y15959630D02*
X31821216Y15956638D01*
X31791998Y15947774D01*
X31765070Y15933382D01*
X31741467Y15914012D01*
X31722098Y15890410D01*
X31707706Y15863483D01*
X31698843Y15834265D01*
X31695850Y15803880D01*
X31698843Y15773495D01*
X31707706Y15744276D01*
X31722098Y15717349D01*
X31741467Y15693748D01*
X31765070Y15674379D01*
X31791998Y15659985D01*
X31821216Y15651123D01*
X31851599Y15648129D01*
X31881985Y15651123D01*
X31911203Y15659985D01*
X31938129Y15674379D01*
X31961731Y15693748D01*
X31981100Y15717349D01*
X31995493Y15744276D01*
X32004358Y15773495D01*
X32007349Y15803880D01*
X32004358Y15834265D01*
X31995493Y15863483D01*
X31981100Y15890410D01*
X31961731Y15914012D01*
X31938129Y15933382D01*
X31911203Y15947774D01*
X31881985Y15956638D01*
X31851599Y15959630D01*
D02*
G37*
G36*
X10515600Y15946629D02*
X10485273Y15943642D01*
X10456112Y15934796D01*
X10429237Y15920432D01*
X10405681Y15901099D01*
X10386349Y15877544D01*
X10371984Y15850668D01*
X10363138Y15821507D01*
X10360151Y15791180D01*
X10363138Y15760854D01*
X10371984Y15731693D01*
X10386349Y15704817D01*
X10405681Y15681261D01*
X10429237Y15661929D01*
X10456112Y15647565D01*
X10485273Y15638718D01*
X10515600Y15635732D01*
X10545927Y15638718D01*
X10575088Y15647565D01*
X10601963Y15661929D01*
X10625519Y15681261D01*
X10644851Y15704817D01*
X10659216Y15731693D01*
X10668062Y15760854D01*
X10671049Y15791180D01*
X10668062Y15821507D01*
X10659216Y15850668D01*
X10644851Y15877544D01*
X10625519Y15901099D01*
X10601963Y15920432D01*
X10575088Y15934796D01*
X10545927Y15943642D01*
X10515600Y15946629D01*
D02*
G37*
%LPD*%
G36*
X31767780Y24297639D02*
Y23830434D01*
X31765240Y23828735D01*
X29627856D01*
X29627682Y23828664D01*
X29627509Y23828732D01*
X29621970Y23826299D01*
X29616376Y23823981D01*
X29616302Y23823808D01*
X29616132Y23823734D01*
X29607803Y23815041D01*
X24996140D01*
X24994380Y23813280D01*
X24994380Y23131779D01*
X24534566D01*
X24533865Y24369937D01*
X24542844Y24378920D01*
X31686499D01*
X31767780Y24297639D01*
D02*
G37*
G36*
X11059948Y23857597D02*
Y23844560D01*
X11051140D01*
Y23724561D01*
X11151140D01*
Y23753728D01*
X12649610D01*
X12654471Y23741994D01*
X11817956Y22905479D01*
X11747740D01*
Y22854211D01*
X11735040Y22851973D01*
X11578507Y23008507D01*
X11565143Y23017436D01*
X11549380Y23020570D01*
X11287042D01*
X11108607Y23199007D01*
X11095243Y23207936D01*
X11079480Y23211070D01*
X10540405D01*
X10537622Y23217790D01*
X10522395Y23237634D01*
X10502550Y23252863D01*
X10479440Y23262434D01*
X10454640Y23265698D01*
X10429840Y23262434D01*
X10406730Y23252863D01*
X10388131Y23238591D01*
X10377451Y23240837D01*
X10375431Y23241524D01*
Y23733237D01*
X10377451Y23733923D01*
X10388131Y23736169D01*
X10406730Y23721898D01*
X10429840Y23712325D01*
X10454640Y23709061D01*
X10479440Y23712325D01*
X10502550Y23721898D01*
X10522395Y23737125D01*
X10537622Y23756970D01*
X10540405Y23763689D01*
X10901140D01*
Y23724561D01*
X11001140D01*
Y23844560D01*
X10938420D01*
X10930820Y23846071D01*
X10540405D01*
X10537622Y23852789D01*
X10522395Y23872633D01*
X10502550Y23887862D01*
X10479440Y23897435D01*
X10454640Y23900699D01*
X10429840Y23897435D01*
X10406730Y23887862D01*
X10388131Y23873592D01*
X10377451Y23875838D01*
X10375431Y23876523D01*
Y23908717D01*
X10392962Y23926250D01*
X10991298D01*
X11059948Y23857597D01*
D02*
G37*
G36*
X31765240Y23812500D02*
X31767780Y23811449D01*
Y23543260D01*
X30607001D01*
X30586679Y23522940D01*
X30271719Y23207980D01*
X30243073D01*
X29993506Y23457547D01*
X29980142Y23466476D01*
X29964380Y23469611D01*
X29948618Y23466476D01*
X29935254Y23457547D01*
X29926324Y23444183D01*
X29923190Y23428419D01*
X29926324Y23412657D01*
X29935254Y23399294D01*
X30114832Y23219713D01*
X30109973Y23207980D01*
X29628235D01*
Y23784419D01*
X29623480Y23795901D01*
X29615714Y23799117D01*
X29615686Y23799800D01*
X29627856Y23812500D01*
X31765240D01*
D02*
G37*
G36*
X19655891Y22247861D02*
X18672913D01*
Y23251744D01*
X18839220D01*
Y23192081D01*
X19019220D01*
Y23251744D01*
X19299220D01*
Y23192081D01*
X19479221D01*
Y23251744D01*
X19655891D01*
Y22247861D01*
D02*
G37*
G36*
X11240853Y22950253D02*
X11254217Y22941324D01*
X11269980Y22938190D01*
X11532318D01*
X11548640Y22921867D01*
X11546077Y22906470D01*
X11544060Y22905479D01*
X11381980D01*
Y22784351D01*
X11158220D01*
X11142457Y22781216D01*
X11129093Y22772287D01*
X11021778Y22664970D01*
X10543540D01*
X10527777Y22661836D01*
X10514413Y22652907D01*
X10486158Y22624652D01*
X10479440Y22627435D01*
X10454640Y22630699D01*
X10429840Y22627435D01*
X10406730Y22617862D01*
X10388131Y22603590D01*
X10377451Y22605836D01*
X10375431Y22606523D01*
Y22844237D01*
X10377451Y22844923D01*
X10388131Y22847169D01*
X10406730Y22832898D01*
X10429840Y22823325D01*
X10454640Y22820061D01*
X10479440Y22823325D01*
X10502550Y22832898D01*
X10522395Y22848126D01*
X10533032Y22861989D01*
X10832560D01*
Y22843179D01*
X10932560D01*
Y22963181D01*
X10832560D01*
Y22944373D01*
X10545665D01*
X10537622Y22963789D01*
X10522395Y22983633D01*
X10502550Y22998862D01*
X10479440Y23008435D01*
X10454640Y23011699D01*
X10429840Y23008435D01*
X10406730Y22998862D01*
X10388131Y22984592D01*
X10377451Y22986836D01*
X10375431Y22987523D01*
Y23098238D01*
X10377451Y23098923D01*
X10388131Y23101169D01*
X10406730Y23086897D01*
X10429840Y23077325D01*
X10454640Y23074062D01*
X10479440Y23077325D01*
X10502550Y23086897D01*
X10522395Y23102126D01*
X10537622Y23121970D01*
X10540405Y23128690D01*
X11062418D01*
X11240853Y22950253D01*
D02*
G37*
G36*
X14974167Y22232031D02*
X14821912D01*
X14580930Y22473013D01*
X14570927Y22479698D01*
X14559128Y22482045D01*
X14559126Y22482045D01*
X13962305D01*
X13954295Y22494745D01*
X13955579Y22501199D01*
X13953284Y22512737D01*
X13946750Y22522514D01*
Y22529884D01*
X13953284Y22539664D01*
X13955579Y22551199D01*
X13953284Y22562737D01*
X13946750Y22572514D01*
Y22579884D01*
X13953284Y22589664D01*
X13955579Y22601199D01*
X13953284Y22612737D01*
X13950401Y22617052D01*
X13947798Y22626199D01*
X13950401Y22635349D01*
X13953284Y22639664D01*
X13955579Y22651199D01*
X13953284Y22662737D01*
X13946750Y22672514D01*
Y22679884D01*
X13953284Y22689664D01*
X13955579Y22701199D01*
X13953284Y22712737D01*
X13950401Y22717052D01*
X13947798Y22726199D01*
X13950401Y22735349D01*
X13953284Y22739664D01*
X13955579Y22751199D01*
X13954292Y22757666D01*
X13962297Y22770367D01*
X14121606D01*
X14123521Y22768452D01*
X14126622Y22752859D01*
X14136955Y22737395D01*
X14152419Y22727061D01*
X14170660Y22723434D01*
X14188901Y22727061D01*
X14204366Y22737395D01*
X14214697Y22752859D01*
X14218326Y22771100D01*
X14214697Y22789342D01*
X14204366Y22804805D01*
Y22816589D01*
X14205736Y22817506D01*
X14216069Y22832971D01*
X14219698Y22851212D01*
X14216069Y22869453D01*
X14205736Y22884917D01*
X14205466Y22885097D01*
X14209319Y22897797D01*
X14974167D01*
Y22232031D01*
D02*
G37*
G36*
X30998013Y22150836D02*
X31000748Y22130072D01*
X31009937Y22107887D01*
X31024554Y22088835D01*
X31043607Y22074217D01*
X31065793Y22065027D01*
X31063794Y22052632D01*
X30960059D01*
X30948260Y22050285D01*
X30938257Y22043602D01*
X30938257Y22043600D01*
X30554718Y21660062D01*
X30548035Y21650060D01*
X30545688Y21638260D01*
X30545688Y21638258D01*
Y21414812D01*
X30406268Y21275392D01*
X30346597D01*
X30345346Y21288092D01*
X30358044Y21290619D01*
X30373090Y21300671D01*
X30515329Y21442909D01*
X30515329Y21442911D01*
X30525381Y21457954D01*
X30528912Y21475700D01*
X30528912Y21475700D01*
Y21699693D01*
X30986334Y22157117D01*
X30998013Y22150836D01*
D02*
G37*
G36*
X20062920Y21194720D02*
X20129317D01*
X20139308Y21184729D01*
Y21089691D01*
X20088789Y21039172D01*
X20005580D01*
Y21068340D01*
X19905580D01*
Y20948341D01*
X19894728Y20943880D01*
X19872420D01*
X19872000Y20945380D01*
X19867055D01*
X19855580Y20948341D01*
Y21068340D01*
X19793176D01*
X19791895Y21070261D01*
X19798682Y21082961D01*
X19865581D01*
Y21197829D01*
X20062920D01*
Y21194720D01*
D02*
G37*
G36*
X27154321Y20964568D02*
X27151004Y20960245D01*
X27144373Y20944237D01*
X27142111Y20927060D01*
X27144373Y20909883D01*
X27151004Y20893877D01*
X27160352Y20881693D01*
X27158893Y20875468D01*
X27155206Y20868993D01*
X27137430D01*
X27082962Y20923462D01*
X27072958Y20930145D01*
X27061160Y20932494D01*
X27061160Y20932492D01*
X26893280D01*
Y20934441D01*
X26715961D01*
Y20932492D01*
X26278842D01*
X26278839Y20932494D01*
X26267041Y20930145D01*
X26257037Y20923462D01*
X26257037Y20923460D01*
X26038599Y20705022D01*
X26031915Y20695020D01*
X26029568Y20683220D01*
X26029568Y20683218D01*
Y18135109D01*
X26017178Y18130797D01*
X26009952Y18137198D01*
Y20741570D01*
X26245651Y20977267D01*
X27148059D01*
X27154321Y20964568D01*
D02*
G37*
G36*
X27102859Y20816359D02*
X27102859Y20816357D01*
X27112860Y20809676D01*
X27124661Y20807327D01*
X27288467D01*
X27300159Y20804900D01*
Y20739340D01*
X27288892Y20735883D01*
X27033838D01*
X27027850Y20747083D01*
X27028998Y20748799D01*
X27032626Y20767039D01*
X27028998Y20785281D01*
X27018665Y20800745D01*
X27003201Y20811078D01*
X26984961Y20814706D01*
X26966718Y20811078D01*
X26951254Y20800745D01*
X26949335Y20797871D01*
X26948770D01*
X26940878Y20803145D01*
X26929080Y20805493D01*
X26929080Y20805492D01*
X26893280D01*
Y20870828D01*
X27048389D01*
X27102859Y20816359D01*
D02*
G37*
G36*
X26584946Y20656438D02*
X26582782Y20653201D01*
X26579153Y20634959D01*
X26582782Y20616719D01*
X26583929Y20615002D01*
X26577942Y20603802D01*
X26279193D01*
Y20669138D01*
X26578156D01*
X26584946Y20656438D01*
D02*
G37*
G36*
X27300159Y20480260D02*
X27288467Y20477832D01*
X27063702D01*
X27063699Y20477834D01*
X27058521Y20476802D01*
X27054156D01*
X27048172Y20488004D01*
X27049319Y20489719D01*
X27052945Y20507961D01*
X27049319Y20526201D01*
X27044769Y20533008D01*
X27051559Y20545708D01*
X27300159D01*
Y20480260D01*
D02*
G37*
G36*
X26715961D02*
X26704266Y20477832D01*
X26279193D01*
Y20542139D01*
X26715961D01*
Y20480260D01*
D02*
G37*
G36*
X27171439Y20295657D02*
X27181442Y20288976D01*
X27193240Y20286627D01*
X27193240Y20286629D01*
X27300159D01*
Y20284680D01*
X27325146D01*
X27331943Y20271980D01*
X27330591Y20269952D01*
X27329651Y20269553D01*
X27086630D01*
X26953745Y20402438D01*
X26953796Y20403830D01*
X26957758Y20415138D01*
X27051959D01*
X27171439Y20295657D01*
D02*
G37*
G36*
X26715961Y20413741D02*
Y20348180D01*
X26893280D01*
Y20350128D01*
X26918848D01*
X27048715Y20220262D01*
X27043985Y20207562D01*
X26714691D01*
X26714691Y20207562D01*
X26702890Y20205215D01*
X26692889Y20198532D01*
X26692889Y20198531D01*
X26681110Y20186754D01*
X26678082Y20188779D01*
X26659839Y20192406D01*
X26641599Y20188779D01*
X26626135Y20178445D01*
X26615802Y20162981D01*
X26612173Y20144740D01*
X26615802Y20126498D01*
X26626135Y20111035D01*
X26641599Y20100702D01*
X26659839Y20097073D01*
X26678082Y20100702D01*
X26693546Y20111035D01*
X26699075Y20119313D01*
X26704501Y20122939D01*
X26727460Y20145898D01*
X27186914D01*
X27193701Y20133199D01*
X27189841Y20127422D01*
X27186215Y20109180D01*
X27189841Y20090939D01*
X27200174Y20075475D01*
X27215640Y20065141D01*
X27233881Y20061514D01*
X27252121Y20065141D01*
X27257037Y20068428D01*
X27276556D01*
X27282379Y20058141D01*
Y19992693D01*
X27221252D01*
X27166782Y20047162D01*
X27156778Y20053845D01*
X27144980Y20056194D01*
X27144980Y20056192D01*
X26875500D01*
Y20058141D01*
X26698181D01*
Y20056192D01*
X26639590D01*
X26633383Y20062402D01*
X26623380Y20069086D01*
X26611581Y20071432D01*
X26611578Y20071432D01*
X26380505D01*
X26378586Y20074306D01*
X26363120Y20084637D01*
X26344879Y20088266D01*
X26326639Y20084637D01*
X26311176Y20074306D01*
X26300842Y20058841D01*
X26297214Y20040601D01*
X26300842Y20022359D01*
X26309793Y20008961D01*
X26307458Y20001205D01*
X26304230Y19996262D01*
X26279193D01*
Y20416168D01*
X26704266D01*
X26715961Y20413741D01*
D02*
G37*
G36*
X28323703Y20393219D02*
X28325223Y20385579D01*
X28335556Y20370116D01*
X28351019Y20359782D01*
X28358749Y20358244D01*
Y19121184D01*
X28355875Y19119266D01*
X28345541Y19103801D01*
X28345139Y19101778D01*
X28332986Y19098090D01*
X27562234Y19868840D01*
X27567496Y19881540D01*
X27663379D01*
Y20001540D01*
X27591983D01*
X27576953Y20016570D01*
X27577109Y20017740D01*
X27574847Y20034917D01*
X27568216Y20050925D01*
X27564529Y20055728D01*
X27570792Y20068428D01*
X27968179D01*
X27968179Y20068427D01*
X27979980Y20070775D01*
X27989981Y20077458D01*
X28309921Y20397398D01*
X28323703Y20393219D01*
D02*
G37*
G36*
X27186679Y19940059D02*
X27186679Y19940057D01*
X27196680Y19933376D01*
X27208481Y19931029D01*
X27270685D01*
X27282379Y19928600D01*
Y19863040D01*
X27270685Y19860612D01*
X26963837D01*
X26959985Y19873312D01*
X26961041Y19874017D01*
X26971411Y19884389D01*
X26974799Y19883714D01*
X26993042Y19887341D01*
X27008505Y19897675D01*
X27018839Y19913139D01*
X27022467Y19931380D01*
X27018839Y19949622D01*
X27008505Y19965085D01*
X26993042Y19975418D01*
X26974799Y19979047D01*
X26956558Y19975418D01*
X26941095Y19965085D01*
X26930762Y19949622D01*
X26927133Y19931380D01*
X26915125Y19926653D01*
X26887195D01*
X26875500Y19929080D01*
Y19994528D01*
X27132208D01*
X27186679Y19940059D01*
D02*
G37*
G36*
X27282379Y19603960D02*
X27270685Y19601532D01*
X27170380D01*
X27170380Y19601534D01*
X27170380Y19601532D01*
X26887195D01*
X26875500Y19603960D01*
Y19669408D01*
X27282379D01*
Y19603960D01*
D02*
G37*
G36*
X26698181Y19471880D02*
X26796561D01*
X26799539Y19471288D01*
X26802518Y19471880D01*
X26875500D01*
Y19473828D01*
X27096655D01*
X27098575Y19470955D01*
X27114038Y19460622D01*
X27132281Y19456995D01*
X27150522Y19460622D01*
X27165985Y19470955D01*
X27176318Y19486420D01*
X27179102Y19500414D01*
X27191684Y19505794D01*
X27275253Y19422221D01*
X27271649Y19410918D01*
X27270578Y19409521D01*
X26940271D01*
X26940271Y19409523D01*
X26928470Y19407175D01*
X26918469Y19400491D01*
X26762497Y19244522D01*
X26755814Y19234518D01*
X26753467Y19222720D01*
X26753467Y19222719D01*
Y19184380D01*
X26695639D01*
Y19152510D01*
X26684439Y19146523D01*
X26683160Y19147379D01*
X26664920Y19151006D01*
X26646680Y19147379D01*
X26631216Y19137045D01*
X26620883Y19121581D01*
X26617255Y19103340D01*
X26620883Y19085098D01*
X26631216Y19069635D01*
X26641068Y19063052D01*
X26637213Y19050352D01*
X26279193D01*
Y19536298D01*
X26698181D01*
Y19471880D01*
D02*
G37*
G36*
X28339072Y18734325D02*
X28330978Y18724458D01*
X28321460Y18730818D01*
X28303220Y18734447D01*
X28284979Y18730818D01*
X28269516Y18720485D01*
X28259183Y18705022D01*
X28255554Y18686780D01*
X28259183Y18668539D01*
X28269516Y18653075D01*
X28284979Y18642741D01*
X28303220Y18639114D01*
X28306607Y18639787D01*
X28349197Y18597198D01*
X28341101Y18587334D01*
X28339240Y18588577D01*
X28320999Y18592206D01*
X28302759Y18588577D01*
X28287296Y18578246D01*
X28276962Y18562781D01*
X28273334Y18544540D01*
X28274008Y18541151D01*
X28008508Y18275652D01*
X27832486D01*
X27828174Y18288351D01*
X27829449Y18289331D01*
X27839996Y18303076D01*
X27846625Y18319083D01*
X27848889Y18336259D01*
X27846625Y18353436D01*
X27839996Y18369444D01*
X27829449Y18383189D01*
X27815704Y18393736D01*
X27799698Y18400366D01*
X27782520Y18402628D01*
X27765344Y18400366D01*
X27749335Y18393736D01*
X27735590Y18383189D01*
X27733160Y18380020D01*
X27720599Y18379680D01*
X27720599Y18379681D01*
X27720599Y18379680D01*
X27600601D01*
Y18341692D01*
X27449539D01*
Y18343640D01*
X27413043D01*
X27406781Y18356340D01*
X27410736Y18361496D01*
X27417365Y18377502D01*
X27419629Y18394679D01*
X27417365Y18411858D01*
X27410736Y18427864D01*
X27400189Y18441609D01*
X27386444Y18452156D01*
X27370438Y18458786D01*
X27353259Y18461047D01*
X27336084Y18458786D01*
X27324112Y18453828D01*
X27316919Y18464595D01*
X27566690Y18714368D01*
X28023755D01*
X28025674Y18711494D01*
X28041138Y18701163D01*
X28059381Y18697534D01*
X28077621Y18701163D01*
X28093085Y18711494D01*
X28103418Y18726959D01*
X28107047Y18745200D01*
X28103418Y18763441D01*
X28093085Y18778905D01*
X28077621Y18789238D01*
X28059381Y18792867D01*
X28041138Y18789238D01*
X28025674Y18778905D01*
X28023755Y18776031D01*
X27553922D01*
X27553922Y18776033D01*
X27542120Y18773685D01*
X27532117Y18767001D01*
X27468893Y18703777D01*
X27457159Y18708636D01*
Y18727179D01*
X27457159D01*
Y18727661D01*
X27457159D01*
Y18793219D01*
X27457159D01*
Y18793701D01*
X27457159D01*
Y18856609D01*
X27574176D01*
X27576096Y18853735D01*
X27591559Y18843402D01*
X27609799Y18839774D01*
X27628040Y18843402D01*
X27643506Y18853735D01*
X27653839Y18869199D01*
X27657465Y18887440D01*
X27653839Y18905681D01*
X27648987Y18912939D01*
X27648972Y18913103D01*
X27655118Y18926624D01*
X27659698Y18927534D01*
X27669702Y18934218D01*
X27688611Y18953128D01*
X27731656D01*
X27733575Y18950255D01*
X27749039Y18939922D01*
X27767279Y18936295D01*
X27785522Y18939922D01*
X27800986Y18950255D01*
X27811319Y18965720D01*
X27814948Y18983960D01*
X27811319Y19002200D01*
X27800986Y19017665D01*
X27785522Y19027998D01*
X27767279Y19031625D01*
X27749039Y19027998D01*
X27733575Y19017665D01*
X27731656Y19014792D01*
X27675839D01*
X27664041Y19012445D01*
X27654037Y19005762D01*
X27654037Y19005762D01*
X27635129Y18986852D01*
X27617978D01*
X27611188Y18999551D01*
X27615738Y19006358D01*
X27619366Y19024600D01*
X27615738Y19042841D01*
X27605405Y19058305D01*
X27589941Y19068639D01*
X27571701Y19072266D01*
X27564670Y19083817D01*
X27566025Y19090640D01*
X27562399Y19108881D01*
X27561252Y19110597D01*
X27567236Y19121799D01*
X27626001D01*
Y19092641D01*
X27745999D01*
Y19202640D01*
X27626001D01*
Y19183463D01*
X27458649D01*
X27456750Y19185654D01*
X27453091Y19197079D01*
X27458997Y19204776D01*
X27465625Y19220782D01*
X27467889Y19237959D01*
X27465625Y19255138D01*
X27460263Y19268086D01*
X27465945Y19280788D01*
X27523520D01*
X27535678Y19272662D01*
X27553922Y19269034D01*
X27572162Y19272662D01*
X27587625Y19282996D01*
X27597958Y19298459D01*
X27601587Y19316701D01*
X27597958Y19334941D01*
X27596811Y19336658D01*
X27602798Y19347858D01*
X27725540D01*
X28339072Y18734325D01*
D02*
G37*
G36*
X28749908Y19243274D02*
Y19004350D01*
X28723169Y18977612D01*
X28719781Y18978287D01*
X28701538Y18974658D01*
X28686075Y18964325D01*
X28675742Y18948862D01*
X28672113Y18930620D01*
X28675742Y18912379D01*
X28686075Y18896915D01*
X28682358Y18884125D01*
X28676184Y18883199D01*
X28610043Y18949339D01*
X28616302Y18961044D01*
X28625800Y18959154D01*
X28644040Y18962782D01*
X28659506Y18973116D01*
X28669839Y18988579D01*
X28673465Y19006821D01*
X28669839Y19025061D01*
X28659506Y19040524D01*
X28656631Y19042444D01*
Y19226399D01*
X28669333Y19233188D01*
X28678680Y19226942D01*
X28696921Y19223314D01*
X28715161Y19226942D01*
X28730624Y19237276D01*
X28737207Y19247127D01*
X28749908Y19243274D01*
D02*
G37*
G36*
X26890295Y18937555D02*
X26905759Y18927222D01*
X26923999Y18923595D01*
X26942242Y18927222D01*
X26945468Y18929378D01*
X26956668Y18923392D01*
Y18702090D01*
X26865509Y18610931D01*
X26639520D01*
X26627722Y18608585D01*
X26617719Y18601901D01*
X26617719Y18601901D01*
X26556757Y18540942D01*
X26550076Y18530939D01*
X26548431Y18522684D01*
X26535733Y18523933D01*
Y18699409D01*
X26581461Y18745135D01*
X26585400Y18747768D01*
X26621713Y18784081D01*
X26624344Y18788020D01*
X26628400Y18792078D01*
X26780728D01*
X26780731Y18792078D01*
X26788885Y18793700D01*
X26872961D01*
Y18857201D01*
Y18922758D01*
X26872961D01*
Y18923241D01*
X26872961D01*
Y18940640D01*
X26885660Y18944492D01*
X26890295Y18937555D01*
D02*
G37*
G36*
X27415002Y18649887D02*
X27246997Y18481879D01*
X27235263Y18486740D01*
Y18626779D01*
X27268008Y18659525D01*
X27279840Y18661620D01*
X27279840Y18661620D01*
X27279840Y18661620D01*
X27410144D01*
X27415002Y18649887D01*
D02*
G37*
G36*
X26989062Y19268088D02*
X26986816Y19266585D01*
X26976483Y19251122D01*
X26972855Y19232880D01*
X26976483Y19214639D01*
X26986816Y19199174D01*
X27002280Y19188841D01*
X27020520Y19185214D01*
X27023907Y19185889D01*
X27146039Y19063759D01*
X27146039Y19063757D01*
X27156042Y19057076D01*
X27167841Y19054727D01*
X27167841Y19054729D01*
X27268146D01*
X27279840Y19052299D01*
Y18986740D01*
Y18923241D01*
X27279840D01*
Y18922758D01*
X27279840D01*
Y18857312D01*
X27178000D01*
X27166202Y18854965D01*
X27156198Y18848282D01*
X27156198Y18848280D01*
X27057138Y18749222D01*
X27050455Y18739220D01*
X27048108Y18727420D01*
X27048108Y18727419D01*
Y18340108D01*
X27047720Y18339503D01*
X27041010Y18335123D01*
X27036786Y18333696D01*
X27035858Y18333588D01*
X27027240Y18339345D01*
X27015439Y18341693D01*
X27015439Y18341692D01*
X26865341D01*
Y18343640D01*
X26688019D01*
Y18278081D01*
X26676328Y18275652D01*
X26647211D01*
X26609393Y18313470D01*
Y18428091D01*
X26620593Y18434077D01*
X26623819Y18431921D01*
X26642059Y18428294D01*
X26660300Y18431921D01*
X26675766Y18442255D01*
X26677682Y18445128D01*
X26839261D01*
X26844574Y18437175D01*
X26860040Y18426842D01*
X26878281Y18423215D01*
X26896521Y18426842D01*
X26911984Y18437175D01*
X26922318Y18452638D01*
X26925946Y18470880D01*
X26922318Y18489120D01*
X26911984Y18504585D01*
X26896521Y18514919D01*
X26878281Y18518546D01*
X26860040Y18514919D01*
X26847879Y18506792D01*
X26677682D01*
X26675766Y18509665D01*
X26660300Y18519998D01*
X26644186Y18523203D01*
X26640533Y18529753D01*
X26638986Y18535963D01*
X26652292Y18549268D01*
X26878278D01*
X26878281Y18549268D01*
X26890079Y18551614D01*
X26900082Y18558298D01*
X27009302Y18667519D01*
X27009302Y18667519D01*
X27015985Y18677521D01*
X27018332Y18689320D01*
X27018332Y18689320D01*
Y19100800D01*
X27015985Y19112599D01*
X27009302Y19122601D01*
X27009302Y19122601D01*
X26930942Y19200961D01*
Y19249559D01*
X26962170Y19280788D01*
X26985211D01*
X26989062Y19268088D01*
D02*
G37*
G36*
X28486777Y18459619D02*
Y17353897D01*
X28475577Y17347911D01*
X28473862Y17349059D01*
X28455621Y17352686D01*
X28437378Y17349059D01*
X28421915Y17338725D01*
X28419995Y17335852D01*
X28105630D01*
X28100555Y17348552D01*
X28108499Y17360439D01*
X28112125Y17378680D01*
X28108499Y17396921D01*
X28098166Y17412386D01*
X28082700Y17422717D01*
X28064459Y17426346D01*
X28046219Y17422717D01*
X28030756Y17412386D01*
X28028836Y17409512D01*
X27820621D01*
X27815472Y17408488D01*
X27809216Y17420193D01*
X27886731Y17497708D01*
X28023755D01*
X28025674Y17494835D01*
X28041138Y17484502D01*
X28059381Y17480875D01*
X28077621Y17484502D01*
X28093085Y17494835D01*
X28103418Y17510300D01*
X28107047Y17528540D01*
X28103418Y17546780D01*
X28093085Y17562245D01*
X28077621Y17572578D01*
X28059381Y17576205D01*
X28041138Y17572578D01*
X28025674Y17562245D01*
X28023755Y17559372D01*
X27873962D01*
X27873959Y17559373D01*
X27862161Y17557025D01*
X27852158Y17550342D01*
X27852158Y17550340D01*
X27602109Y17300291D01*
X27567078D01*
X27563809Y17305676D01*
X27562317Y17312991D01*
X27578262Y17328938D01*
X27584946Y17338940D01*
X27587292Y17350740D01*
X27587292Y17350742D01*
Y17614836D01*
X27590164Y17616756D01*
X27600497Y17632219D01*
X27604126Y17650459D01*
X27600497Y17668701D01*
X27590164Y17684164D01*
X27574701Y17694498D01*
X27556461Y17698126D01*
X27538220Y17694498D01*
X27536502Y17693352D01*
X27525302Y17699336D01*
Y17746404D01*
X27534851Y17754778D01*
X27538681Y17754272D01*
X27555856Y17756534D01*
X27571863Y17763164D01*
X27585608Y17773711D01*
X27596155Y17787456D01*
X27602786Y17803464D01*
X27605048Y17820641D01*
X27602786Y17837817D01*
X27596155Y17853824D01*
X27585608Y17867569D01*
X27571863Y17878116D01*
X27555856Y17884746D01*
X27538681Y17887009D01*
X27521503Y17884746D01*
X27505496Y17878116D01*
X27491751Y17867569D01*
X27481204Y17853824D01*
X27474573Y17837817D01*
X27472311Y17820641D01*
X27474573Y17803464D01*
X27475549Y17801111D01*
X27472668Y17798232D01*
X27465985Y17788229D01*
X27463638Y17776430D01*
X27463638Y17776430D01*
Y17624783D01*
X27463638Y17624783D01*
X27464667Y17619604D01*
Y17518451D01*
X27444037Y17497820D01*
X27428009D01*
X27418341Y17505141D01*
Y17615140D01*
X27381155D01*
X27375220Y17619106D01*
X27363419Y17621452D01*
X27351620Y17619106D01*
X27345685Y17615140D01*
X27298340D01*
Y17505141D01*
X27286322Y17503493D01*
X27272009D01*
X27271036Y17505844D01*
X27260489Y17519589D01*
X27246744Y17530136D01*
X27230737Y17536766D01*
X27213559Y17539027D01*
X27196384Y17536766D01*
X27180377Y17530136D01*
X27166632Y17519589D01*
X27156085Y17505844D01*
X27149454Y17489838D01*
X27149002Y17486401D01*
X27141254Y17484502D01*
X27135977Y17484773D01*
X27130191Y17493433D01*
X27130191Y17493433D01*
X27066284Y17557339D01*
X27070465Y17571120D01*
X27081940Y17573402D01*
X27097406Y17583736D01*
X27107739Y17599199D01*
X27111365Y17617439D01*
X27109427Y17627184D01*
X27303122Y17820880D01*
X27449539D01*
Y17886440D01*
X27449539Y17886440D01*
Y17886922D01*
X27449539D01*
X27449539Y17899139D01*
Y17952480D01*
X27449539Y17952480D01*
Y17952962D01*
X27449539D01*
X27449539Y17965179D01*
Y18013329D01*
X27891675D01*
X27893594Y18010455D01*
X27909058Y18000122D01*
X27927301Y17996494D01*
X27945541Y18000122D01*
X27961005Y18010455D01*
X27971338Y18025919D01*
X27974966Y18044160D01*
X27971338Y18062401D01*
X27961005Y18077866D01*
X27945541Y18088197D01*
X27927301Y18091826D01*
X27909058Y18088197D01*
X27893594Y18077866D01*
X27891675Y18074992D01*
X27686557D01*
X27679770Y18087692D01*
X27684317Y18094499D01*
X27687946Y18112740D01*
X27684317Y18130981D01*
X27681467Y18135248D01*
X27688254Y18147948D01*
X28171140D01*
X28171140Y18147948D01*
X28182938Y18150294D01*
X28192941Y18156978D01*
X28383652Y18347688D01*
X28387039Y18347014D01*
X28405280Y18350642D01*
X28420746Y18360976D01*
X28431079Y18376439D01*
X28434705Y18394679D01*
X28431079Y18412921D01*
X28420746Y18428384D01*
X28405280Y18438718D01*
X28387039Y18442346D01*
X28368799Y18438718D01*
X28353336Y18428384D01*
X28343002Y18412921D01*
X28339374Y18394679D01*
X28340048Y18391292D01*
X28158368Y18209612D01*
X28045877D01*
X28042026Y18222311D01*
X28043082Y18223018D01*
X28317612Y18497548D01*
X28320999Y18496873D01*
X28339240Y18500502D01*
X28354706Y18510835D01*
X28365039Y18526299D01*
X28368665Y18544540D01*
X28365039Y18562781D01*
X28363794Y18564641D01*
X28373660Y18572737D01*
X28486777Y18459619D01*
D02*
G37*
G36*
X28742288Y18491129D02*
Y18264749D01*
X28731088Y18258762D01*
X28727859Y18260918D01*
X28709619Y18264546D01*
X28691379Y18260918D01*
X28684573Y18256369D01*
X28671872Y18263158D01*
Y18540279D01*
X28671051Y18544405D01*
X28682755Y18550661D01*
X28742288Y18491129D01*
D02*
G37*
G36*
X26611887Y18975987D02*
X26605643Y18966641D01*
X26602014Y18948399D01*
X26602841Y18944247D01*
X26592566Y18930804D01*
X26583179Y18928938D01*
X26567715Y18918605D01*
X26557382Y18903140D01*
X26553754Y18884900D01*
X26557382Y18866660D01*
X26567715Y18851195D01*
X26576489Y18845332D01*
X26578873Y18829756D01*
X26578107Y18828992D01*
X26575476Y18825053D01*
X26544427Y18794003D01*
X26540488Y18791373D01*
X26540488Y18791371D01*
X26483099Y18733981D01*
X26476416Y18723979D01*
X26474066Y18712180D01*
X26474069Y18712180D01*
Y18303304D01*
X26471194Y18301385D01*
X26460861Y18285921D01*
X26457233Y18267680D01*
X26460861Y18249438D01*
X26471194Y18233975D01*
X26479507Y18228423D01*
X26475653Y18215723D01*
X26305341D01*
X26295081Y18225983D01*
X26285080Y18232664D01*
X26279193Y18233836D01*
Y18988689D01*
X26605099D01*
X26611887Y18975987D01*
D02*
G37*
G36*
X27124200Y18434462D02*
X27138013Y18431715D01*
X27145050Y18419389D01*
X27144122Y18418001D01*
X27140494Y18399760D01*
X27144122Y18381519D01*
X27154456Y18366055D01*
X27169919Y18355722D01*
X27171942Y18355321D01*
X27175629Y18343167D01*
X27166772Y18334309D01*
X27160089Y18324307D01*
X27157742Y18312508D01*
X27157742Y18312506D01*
Y18308385D01*
X27154868Y18306465D01*
X27144537Y18291000D01*
X27140909Y18272760D01*
X27144537Y18254520D01*
X27154868Y18239055D01*
X27170334Y18228722D01*
X27188574Y18225095D01*
X27206815Y18228722D01*
X27222278Y18239055D01*
X27232611Y18254520D01*
X27236240Y18272760D01*
X27232611Y18291000D01*
X27223825Y18304153D01*
X27259521Y18339850D01*
X27272220Y18334589D01*
Y18278081D01*
X27272220D01*
Y18277599D01*
X27272220D01*
Y18212041D01*
X27272220D01*
Y18211559D01*
X27272220D01*
Y18094720D01*
X27272220Y18082501D01*
X27272220D01*
Y18082019D01*
X27272220D01*
Y18040617D01*
X27260486Y18035757D01*
X27109772Y18186472D01*
Y18242352D01*
X27113535Y18247984D01*
X27115884Y18259782D01*
X27115881Y18259784D01*
Y18328915D01*
X27115884Y18328917D01*
X27113535Y18340717D01*
X27109772Y18346349D01*
Y18430630D01*
X27120972Y18436618D01*
X27124200Y18434462D01*
D02*
G37*
G36*
X26108307Y19979776D02*
Y18034071D01*
X26094135Y18019899D01*
X26084271Y18027995D01*
X26088885Y18034901D01*
X26091232Y18046700D01*
X26091232Y18046701D01*
Y19976988D01*
X26103931Y19983189D01*
X26108307Y19979776D01*
D02*
G37*
G36*
X26570255Y18089195D02*
X26585718Y18078862D01*
X26603961Y18075233D01*
X26610864Y18076607D01*
X26618500Y18065176D01*
X26618341Y18064941D01*
X26614713Y18046700D01*
X26618341Y18028459D01*
X26619489Y18026743D01*
X26613504Y18015543D01*
X26595312D01*
X26595309Y18015543D01*
X26583511Y18013194D01*
X26573508Y18006512D01*
X26573508Y18006511D01*
X26490930Y17923933D01*
X26473959Y17920558D01*
X26458496Y17910225D01*
X26448163Y17894762D01*
X26444788Y17877789D01*
X26299088Y17732092D01*
X23611903D01*
X23609985Y17734966D01*
X23594521Y17745297D01*
X23576280Y17748926D01*
X23558038Y17745297D01*
X23542575Y17734966D01*
X23540656Y17732092D01*
X18076433D01*
X17994891Y17813634D01*
X17999751Y17825368D01*
X23776033D01*
X23776254Y17825035D01*
X23791719Y17814702D01*
X23809959Y17811073D01*
X23828201Y17814702D01*
X23843665Y17825035D01*
X23843887Y17825368D01*
X26164465D01*
X26171475Y17814874D01*
X26186938Y17804543D01*
X26205179Y17800914D01*
X26223422Y17804543D01*
X26238885Y17814874D01*
X26245895Y17825368D01*
X26327100D01*
X26327100Y17825368D01*
X26338898Y17827715D01*
X26348901Y17834398D01*
X26526700Y18012198D01*
X26526703Y18012198D01*
X26533386Y18022202D01*
X26535733Y18034000D01*
Y18082196D01*
X26538605Y18084116D01*
X26548938Y18099579D01*
X26548953Y18099660D01*
X26562216Y18101228D01*
X26570255Y18089195D01*
D02*
G37*
G36*
X26979022Y18267220D02*
X26989355Y18251755D01*
X27004819Y18241422D01*
X27023059Y18237794D01*
X27035406Y18240250D01*
X27048108Y18231859D01*
Y18173701D01*
X27048108Y18173700D01*
X27050455Y18161900D01*
X27057138Y18151898D01*
X27227106Y17981931D01*
X27189774Y17944598D01*
X27176141Y17948924D01*
X27173779Y17960802D01*
X27163446Y17976265D01*
X27147980Y17986598D01*
X27129739Y17990227D01*
X27111499Y17986598D01*
X27096036Y17976265D01*
X27094116Y17973392D01*
X27073862D01*
X27073859Y17973393D01*
X27062061Y17971045D01*
X27052057Y17964362D01*
X26893448Y17805753D01*
X26624344D01*
X26622424Y17808624D01*
X26606961Y17818958D01*
X26588721Y17822586D01*
X26570480Y17818958D01*
X26555014Y17808624D01*
X26544681Y17793161D01*
X26541055Y17774921D01*
X26544681Y17756679D01*
X26555014Y17741216D01*
X26570480Y17730882D01*
X26588721Y17727254D01*
X26606961Y17730882D01*
X26622424Y17741216D01*
X26624344Y17744089D01*
X26906219D01*
X26906219Y17744087D01*
X26910031Y17744846D01*
X26917831Y17734373D01*
X26913586Y17725502D01*
X26878003D01*
X26866205Y17723155D01*
X26856201Y17716472D01*
X26856201Y17716470D01*
X26780933Y17641202D01*
X26527908D01*
X26527905Y17641202D01*
X26516107Y17638855D01*
X26515714Y17638593D01*
X18105615D01*
X18085512Y17658694D01*
X18090373Y17670428D01*
X23540656D01*
X23542575Y17667555D01*
X23558038Y17657222D01*
X23576280Y17653593D01*
X23594521Y17657222D01*
X23609985Y17667555D01*
X23611903Y17670428D01*
X26311859D01*
X26311859Y17670427D01*
X26323660Y17672775D01*
X26333661Y17679459D01*
X26484573Y17830371D01*
X26492200Y17828854D01*
X26510440Y17832481D01*
X26525906Y17842815D01*
X26536237Y17858279D01*
X26539865Y17876520D01*
X26538348Y17884146D01*
X26608081Y17953877D01*
X26688019D01*
Y17952960D01*
X26865341D01*
Y18016460D01*
Y18082019D01*
X26865341Y18082021D01*
Y18082501D01*
X26865341D01*
X26865341Y18094720D01*
Y18199339D01*
X26865341Y18211559D01*
X26865341D01*
Y18212041D01*
X26865341D01*
Y18277600D01*
X26877036Y18280028D01*
X26976474D01*
X26979022Y18267220D01*
D02*
G37*
G36*
X26317209Y20865443D02*
X26318704Y20858128D01*
X26226559Y20765982D01*
X26219876Y20755978D01*
X26217526Y20744180D01*
X26217529Y20744179D01*
Y19019521D01*
Y18244896D01*
X26207034Y18237885D01*
X26196701Y18222421D01*
X26193073Y18204179D01*
X26196701Y18185939D01*
X26207034Y18170474D01*
X26222498Y18160143D01*
X26240741Y18156514D01*
X26258981Y18160143D01*
X26259341Y18160384D01*
X26270767Y18163087D01*
X26280771Y18156406D01*
X26292569Y18154057D01*
X26457614D01*
X26464401Y18141357D01*
X26460861Y18136061D01*
X26457233Y18117821D01*
X26460861Y18099579D01*
X26471194Y18084116D01*
X26474069Y18082196D01*
Y18046771D01*
X26314328Y17887032D01*
X26231781D01*
X26223422Y17892618D01*
X26205179Y17896246D01*
X26186938Y17892618D01*
X26178580Y17887032D01*
X26063416D01*
X26059564Y17899731D01*
X26064423Y17902979D01*
X26160941Y17999498D01*
X26160941Y17999498D01*
X26167624Y18009502D01*
X26169971Y18021300D01*
Y19987196D01*
X26172845Y19989114D01*
X26183179Y20004579D01*
X26186807Y20022820D01*
X26183179Y20041061D01*
X26172845Y20056525D01*
X26157382Y20066858D01*
X26139139Y20070486D01*
X26120898Y20066858D01*
X26105435Y20056525D01*
X26103931Y20054276D01*
X26091232Y20058128D01*
Y20670448D01*
X26291611Y20870828D01*
X26313940D01*
X26317209Y20865443D01*
D02*
G37*
G36*
X28886499Y17803355D02*
X28882321Y17789577D01*
X28876797Y17788478D01*
X28861334Y17778145D01*
X28851001Y17762682D01*
X28847375Y17744440D01*
X28835666Y17738196D01*
X28678638Y17895226D01*
X28682965Y17908859D01*
X28694839Y17911221D01*
X28710306Y17921555D01*
X28720639Y17937019D01*
X28723001Y17948895D01*
X28736633Y17953223D01*
X28886499Y17803355D01*
D02*
G37*
G36*
X31344659Y17814079D02*
X31344659Y17814078D01*
X31354660Y17807394D01*
X31366461Y17805048D01*
X31366461Y17805048D01*
X31511658D01*
X31517938Y17789886D01*
X31532556Y17770834D01*
X31551608Y17756216D01*
X31573792Y17747028D01*
X31571793Y17734631D01*
X31115405D01*
X31113409Y17747028D01*
X31135593Y17756216D01*
X31154645Y17770834D01*
X31169263Y17789886D01*
X31178452Y17812073D01*
X31181586Y17835880D01*
X31178452Y17859688D01*
X31169263Y17881873D01*
X31154645Y17900925D01*
X31143875Y17909187D01*
X31148187Y17921889D01*
X31236850D01*
X31344659Y17814079D01*
D02*
G37*
G36*
X27077557Y17458859D02*
Y17019031D01*
X27077557Y17019031D01*
X27079153Y17011015D01*
X27045306Y16977168D01*
X27033572Y16982030D01*
Y17307559D01*
X27033572Y17307561D01*
X27031226Y17319359D01*
X27024542Y17329362D01*
X27024542Y17329362D01*
X26933102Y17420802D01*
X26923099Y17427486D01*
X26911301Y17429832D01*
X26911298Y17429832D01*
X26871954D01*
X26860260Y17432260D01*
Y17497820D01*
X26860260Y17497820D01*
X26860260D01*
X26864536Y17508961D01*
X26895432Y17539857D01*
X26996558D01*
X27077557Y17458859D01*
D02*
G37*
G36*
X26546747Y17473268D02*
X26543594Y17457420D01*
X26547223Y17439178D01*
X26557556Y17423715D01*
X26573019Y17413382D01*
X26591260Y17409753D01*
X26609500Y17413382D01*
X26624966Y17423715D01*
X26626883Y17426588D01*
X26642059D01*
X26642059Y17426587D01*
X26653860Y17428935D01*
X26663861Y17435619D01*
X26664990Y17436748D01*
X26672299D01*
X26682941Y17431779D01*
X26682941Y17366220D01*
X26671246Y17363792D01*
X26357581D01*
X26357581Y17363792D01*
X26345782Y17361446D01*
X26342511Y17359261D01*
X26337259Y17360306D01*
X26319019Y17356677D01*
X26303555Y17346346D01*
X26298660Y17339017D01*
X26285959Y17342870D01*
Y17399208D01*
X26292224Y17403395D01*
X26302557Y17418858D01*
X26306186Y17437100D01*
X26302557Y17455341D01*
X26292224Y17470805D01*
X26288538Y17473268D01*
X26292392Y17485968D01*
X26539999D01*
X26546747Y17473268D01*
D02*
G37*
G36*
X26971909Y17294789D02*
Y16900816D01*
X26917438Y16846347D01*
X26914313Y16841670D01*
X26905536Y16835805D01*
X26895203Y16820341D01*
X26891574Y16802100D01*
X26895203Y16783859D01*
X26905536Y16768394D01*
X26920999Y16758063D01*
X26939240Y16754434D01*
X26957480Y16758063D01*
X26966589Y16764146D01*
X26979288Y16757359D01*
Y16636829D01*
X26967554Y16631969D01*
X26940723Y16658801D01*
X26930719Y16665485D01*
X26918921Y16667833D01*
X26918918Y16667831D01*
X26860260D01*
Y16669780D01*
X26682941D01*
Y16604221D01*
X26682941D01*
Y16603738D01*
X26682941D01*
X26682941Y16538181D01*
X26670819Y16536781D01*
X26491925D01*
X26491922Y16536783D01*
X26486746Y16535751D01*
X26464331D01*
X26368091Y16631992D01*
Y17277016D01*
X26370966Y17278935D01*
X26381299Y17294398D01*
X26382834Y17302129D01*
X26545081D01*
X26548349Y17296742D01*
X26549844Y17289429D01*
X26503207Y17242792D01*
X26499820Y17243466D01*
X26481580Y17239838D01*
X26466116Y17229504D01*
X26455783Y17214041D01*
X26452155Y17195799D01*
X26455783Y17177559D01*
X26466116Y17162096D01*
X26481580Y17151762D01*
X26499820Y17148134D01*
X26518060Y17151762D01*
X26533524Y17162096D01*
X26543857Y17177559D01*
X26547485Y17195799D01*
X26546811Y17199188D01*
X26586252Y17238628D01*
X26671246D01*
X26682941Y17236200D01*
X26682941Y17223981D01*
Y17165672D01*
X26639584D01*
X26637665Y17168546D01*
X26622202Y17178877D01*
X26603961Y17182506D01*
X26585718Y17178877D01*
X26570255Y17168546D01*
X26559921Y17153081D01*
X26556293Y17134840D01*
X26559921Y17116599D01*
X26570255Y17101135D01*
X26585718Y17090802D01*
X26603961Y17087173D01*
X26622202Y17090802D01*
X26637665Y17101135D01*
X26639584Y17104008D01*
X26766519D01*
X26766519Y17104007D01*
X26778320Y17106355D01*
X26779495Y17107140D01*
X26855298D01*
X26858997Y17097099D01*
X26859518Y17094440D01*
X26849481Y17079420D01*
X26845853Y17061180D01*
X26849481Y17042940D01*
X26859814Y17027475D01*
X26875278Y17017142D01*
X26893521Y17013515D01*
X26911761Y17017142D01*
X26927225Y17027475D01*
X26937558Y17042940D01*
X26941187Y17061180D01*
X26937558Y17079420D01*
X26927225Y17094885D01*
X26924353Y17096803D01*
Y17180559D01*
X26924353Y17180560D01*
X26922006Y17192358D01*
X26915323Y17202362D01*
X26895001Y17222682D01*
X26884998Y17229366D01*
X26873199Y17231712D01*
X26873199Y17231712D01*
X26870901D01*
X26860260Y17236681D01*
X26860260Y17248900D01*
Y17300180D01*
X26860260Y17365739D01*
X26871954Y17368169D01*
X26898529D01*
X26971909Y17294789D01*
D02*
G37*
G36*
X27855176Y17335149D02*
X27846921Y17333505D01*
X27836917Y17326822D01*
X27360809Y16850713D01*
X27122183D01*
X27120264Y16853584D01*
X27104800Y16863918D01*
X27091476Y16866568D01*
X27086511Y16867622D01*
X27079053Y16879002D01*
Y16923709D01*
X27132352Y16977008D01*
X27267139D01*
Y16975060D01*
X27444461D01*
Y17040619D01*
X27444461Y17040620D01*
Y17041101D01*
X27444461D01*
X27444461Y17053320D01*
Y17106659D01*
X27444461D01*
Y17107141D01*
X27444461D01*
Y17172588D01*
X27645358D01*
X27645361Y17172588D01*
X27657159Y17174934D01*
X27667163Y17181618D01*
X27833392Y17347849D01*
X27853925D01*
X27855176Y17335149D01*
D02*
G37*
G36*
X27156085Y17439476D02*
X27166632Y17425731D01*
X27180377Y17415184D01*
X27196384Y17408554D01*
X27213559Y17406293D01*
X27230737Y17408554D01*
X27246744Y17415184D01*
X27254440Y17421089D01*
X27267139Y17414825D01*
Y17378439D01*
X27267139Y17366222D01*
X27267139D01*
Y17365739D01*
X27267139D01*
Y17300180D01*
X27267139Y17236681D01*
X27267139Y17223981D01*
Y17170752D01*
X27254272D01*
X27237903Y17187122D01*
X27227899Y17193805D01*
X27216101Y17196153D01*
X27216098Y17196152D01*
X27206003D01*
X27204086Y17199025D01*
X27188620Y17209358D01*
X27170380Y17212987D01*
X27152139Y17209358D01*
X27150424Y17208211D01*
X27139221Y17214197D01*
Y17446997D01*
X27151923Y17449522D01*
X27156085Y17439476D01*
D02*
G37*
G36*
X29472678Y17013979D02*
X29472678Y17013979D01*
X29482681Y17007295D01*
X29494479Y17004947D01*
X29494482Y17004948D01*
X30352930D01*
X31007028Y16350848D01*
X31000748Y16335687D01*
X30997614Y16311880D01*
X31000748Y16288072D01*
X31009937Y16265887D01*
X31024554Y16246835D01*
X31043607Y16232217D01*
X31065793Y16223027D01*
X31089600Y16219893D01*
X31113409Y16223027D01*
X31135593Y16232217D01*
X31151733Y16244601D01*
X31161923Y16242641D01*
X31165744Y16240439D01*
X31166095Y16238937D01*
X31056509Y16129352D01*
X27155212D01*
X26995471Y16289091D01*
Y16302130D01*
X27007205Y16306992D01*
X27156198Y16157999D01*
X27156198Y16157999D01*
X27166202Y16151315D01*
X27178000Y16148969D01*
X27267139D01*
Y16147020D01*
X27444461D01*
Y16212579D01*
X27444461D01*
Y16213062D01*
X27444461D01*
Y16278619D01*
X27444461D01*
Y16279102D01*
X27444461D01*
Y16344548D01*
X27731720D01*
X27731720Y16344547D01*
X27743518Y16346895D01*
X27753522Y16353578D01*
X28463312Y17063368D01*
X28508896D01*
X28510815Y17060495D01*
X28526279Y17050162D01*
X28544519Y17046535D01*
X28562762Y17050162D01*
X28578226Y17060495D01*
X28588559Y17075958D01*
X28592188Y17094200D01*
X28588559Y17112440D01*
X28578226Y17127905D01*
X28562762Y17138239D01*
X28544519Y17141866D01*
X28526279Y17138239D01*
X28510815Y17127905D01*
X28508896Y17125032D01*
X28483151D01*
X28478290Y17136766D01*
X28538382Y17196858D01*
X28538382Y17196858D01*
X28545065Y17206860D01*
X28547412Y17218660D01*
X28547412Y17218661D01*
Y17274165D01*
X28548444Y17279343D01*
X28548441Y17279344D01*
Y17920839D01*
X28549838Y17921909D01*
X28561142Y17925514D01*
X29472678Y17013979D01*
D02*
G37*
G36*
X27330176Y16776347D02*
X27322617Y16773216D01*
X27308871Y16762669D01*
X27298325Y16748924D01*
X27291693Y16732916D01*
X27289432Y16715739D01*
X27291693Y16698563D01*
X27298325Y16682556D01*
X27299387Y16681171D01*
X27293771Y16669780D01*
X27267139D01*
X27267139Y16604221D01*
X27267139Y16591521D01*
Y16538181D01*
X27267139Y16538181D01*
Y16537698D01*
X27267139D01*
X27267139Y16525481D01*
Y16408641D01*
X27267139D01*
Y16408159D01*
X27267139D01*
Y16357964D01*
X27254440Y16352704D01*
X27225003Y16382140D01*
X27228207Y16398241D01*
X27224579Y16416481D01*
X27214246Y16431944D01*
X27198782Y16442278D01*
X27180539Y16445906D01*
X27162299Y16442278D01*
X27146835Y16431944D01*
X27136502Y16416481D01*
X27132874Y16398241D01*
X27136502Y16379999D01*
X27146835Y16364536D01*
X27162299Y16354202D01*
X27167572Y16346169D01*
X27162595Y16333116D01*
X27162299Y16333058D01*
X27146835Y16322725D01*
X27136502Y16307262D01*
X27132874Y16289020D01*
X27133502Y16285863D01*
X27121799Y16279607D01*
X27040952Y16360451D01*
Y16781129D01*
X27049417Y16784718D01*
X27053653Y16785643D01*
X27068320Y16775842D01*
X27086560Y16772214D01*
X27104800Y16775842D01*
X27120264Y16786176D01*
X27122183Y16789047D01*
X27327649D01*
X27330176Y16776347D01*
D02*
G37*
G36*
X31007028Y16858849D02*
X31000748Y16843687D01*
X30997614Y16819881D01*
X31000748Y16796072D01*
X31009937Y16773888D01*
X31022916Y16756972D01*
X31019385Y16744272D01*
X30794791D01*
X30428143Y17110922D01*
X30427084Y17111629D01*
X30430939Y17124329D01*
X30741550D01*
X31007028Y16858849D01*
D02*
G37*
G36*
X28421915Y17271315D02*
X28437378Y17260982D01*
X28455621Y17257355D01*
X28473047Y17260822D01*
X28475797Y17260773D01*
X28485748Y17255453D01*
Y17231432D01*
X28423123Y17168806D01*
X28419904Y17168166D01*
X28409900Y17161482D01*
X27829889Y16581471D01*
X27742776D01*
X27730759Y16583121D01*
X27730759Y16594173D01*
Y16693120D01*
X27610760D01*
Y16667831D01*
X27444461D01*
Y16669780D01*
X27417831D01*
X27412213Y16681171D01*
X27413275Y16682556D01*
X27419907Y16698563D01*
X27422168Y16715739D01*
X27419907Y16732916D01*
X27413275Y16748924D01*
X27402728Y16762669D01*
X27388983Y16773216D01*
X27379285Y16777232D01*
X27380585Y16790440D01*
X27385379Y16791396D01*
X27395383Y16798077D01*
X27871490Y17274188D01*
X28419995D01*
X28421915Y17271315D01*
D02*
G37*
G36*
X26303555Y17278935D02*
X26306427Y17277016D01*
Y16619221D01*
X26306427Y16619220D01*
X26308774Y16607420D01*
X26315457Y16597418D01*
X26429758Y16483119D01*
X26429758Y16483118D01*
X26439761Y16476434D01*
X26451559Y16474088D01*
X26451562Y16474088D01*
X26490891D01*
X26490894Y16474088D01*
X26496072Y16475117D01*
X26682941D01*
Y16459552D01*
X26364255D01*
X26361154Y16475140D01*
X26350821Y16490605D01*
X26335358Y16500938D01*
X26317117Y16504565D01*
X26298877Y16500938D01*
X26297159Y16499791D01*
X26285959Y16505779D01*
Y17282410D01*
X26298660Y17286263D01*
X26303555Y17278935D01*
D02*
G37*
G36*
X30782019Y16682607D02*
X30782022Y16682608D01*
X31140088D01*
X31278619Y16544080D01*
X31278619Y16544078D01*
X31288620Y16537395D01*
X31300421Y16535048D01*
X31511658D01*
X31517938Y16519887D01*
X31532556Y16500835D01*
X31551608Y16486217D01*
X31573792Y16477026D01*
X31597601Y16473894D01*
X31621408Y16477026D01*
X31643594Y16486217D01*
X31662646Y16500835D01*
X31673447Y16514914D01*
X31686148Y16510603D01*
Y16367157D01*
X31673447Y16362846D01*
X31662646Y16376926D01*
X31643594Y16391544D01*
X31621408Y16400732D01*
X31597601Y16403867D01*
X31573792Y16400732D01*
X31551608Y16391544D01*
X31532556Y16376926D01*
X31517938Y16357874D01*
X31508746Y16335687D01*
X31505612Y16311880D01*
X31508746Y16288072D01*
X31517938Y16265887D01*
X31532556Y16246835D01*
X31551608Y16232217D01*
X31573792Y16223027D01*
X31594928Y16220245D01*
X31601413Y16208768D01*
X31445798Y16053152D01*
X27109491D01*
X26949991Y16212651D01*
Y16230769D01*
X26961725Y16235631D01*
X27120639Y16076720D01*
X27120639Y16076718D01*
X27130640Y16070035D01*
X27142441Y16067688D01*
X31069278D01*
X31069281Y16067686D01*
X31081079Y16070035D01*
X31091083Y16076718D01*
X31225702Y16211337D01*
X31225702Y16211337D01*
X31232385Y16221341D01*
X31234732Y16233141D01*
Y16543021D01*
X31232385Y16554819D01*
X31225702Y16564822D01*
X31225702Y16564822D01*
X31202841Y16587682D01*
X31192838Y16594365D01*
X31181039Y16596713D01*
X31181039Y16596712D01*
X31175543D01*
X31169263Y16611873D01*
X31154645Y16630925D01*
X31135593Y16645543D01*
X31113409Y16654733D01*
X31089600Y16657867D01*
X31065793Y16654733D01*
X31043607Y16645543D01*
X31024554Y16630925D01*
X31009937Y16611873D01*
X31000748Y16589688D01*
X30997614Y16565880D01*
X31000748Y16542072D01*
X31009937Y16519887D01*
X31024554Y16500835D01*
X31043607Y16486217D01*
X31065793Y16477026D01*
X31089600Y16473894D01*
X31113409Y16477026D01*
X31135593Y16486217D01*
X31154645Y16500835D01*
X31160367Y16508295D01*
X31173068Y16503983D01*
Y16373776D01*
X31160367Y16369466D01*
X31154645Y16376926D01*
X31135593Y16391544D01*
X31113409Y16400732D01*
X31089600Y16403867D01*
X31065793Y16400732D01*
X31050632Y16394453D01*
X30773788Y16671297D01*
X30780045Y16683002D01*
X30782019Y16682607D01*
D02*
G37*
G36*
X26298877Y16412863D02*
X26317117Y16409235D01*
X26320505Y16409908D01*
X26323495Y16406918D01*
X26333496Y16400235D01*
X26345297Y16397887D01*
X26345297Y16397888D01*
X26516589D01*
X26520105Y16390303D01*
X26521301Y16385188D01*
X26511661Y16370761D01*
X26508035Y16352521D01*
X26511661Y16334279D01*
X26521994Y16318816D01*
X26537460Y16308482D01*
X26555701Y16304854D01*
X26571542Y16308005D01*
X26577396Y16301045D01*
X26579028Y16297531D01*
X26512448Y16230952D01*
X26338870D01*
X26285959Y16283862D01*
Y16408023D01*
X26297159Y16414009D01*
X26298877Y16412863D01*
D02*
G37*
%LPC*%
G36*
X28948380Y17418726D02*
X28930139Y17415099D01*
X28914676Y17404765D01*
X28904343Y17389301D01*
X28900714Y17371060D01*
X28904343Y17352818D01*
X28907388Y17348260D01*
Y17239050D01*
X28598709Y16930373D01*
X28595319Y16931046D01*
X28577078Y16927419D01*
X28561615Y16917085D01*
X28551282Y16901620D01*
X28547653Y16883380D01*
X28551282Y16865138D01*
X28561615Y16849675D01*
X28577078Y16839342D01*
X28595319Y16835715D01*
X28613562Y16839342D01*
X28629025Y16849675D01*
X28639359Y16865138D01*
X28642987Y16883380D01*
X28642313Y16886768D01*
X28960022Y17204478D01*
X28960022Y17204478D01*
X28966705Y17214481D01*
X28969052Y17226280D01*
Y17328647D01*
X28982086Y17337355D01*
X28992419Y17352818D01*
X28996045Y17371060D01*
X28992419Y17389301D01*
X28982086Y17404765D01*
X28966620Y17415099D01*
X28948380Y17418726D01*
D02*
G37*
%LPD*%
D10*
X14005000Y23056200D02*
D03*
X14055000D02*
D03*
X14105000D02*
D03*
X14155000D02*
D03*
X14205000D02*
D03*
X14255000D02*
D03*
X14305000D02*
D03*
X14355000D02*
D03*
X14405000D02*
D03*
X14455000D02*
D03*
X14505000D02*
D03*
X14555000D02*
D03*
X14605000D02*
D03*
X14655000D02*
D03*
X14705000D02*
D03*
X14755000D02*
D03*
X14805000D02*
D03*
X14855000D02*
D03*
X14905000D02*
D03*
X14955000D02*
D03*
X15005000D02*
D03*
X15055000D02*
D03*
X15105000D02*
D03*
X15155000D02*
D03*
X15205000D02*
D03*
Y21546201D02*
D03*
X15155000D02*
D03*
X15105000D02*
D03*
X15055000D02*
D03*
X15005000D02*
D03*
X14955000D02*
D03*
X14905000D02*
D03*
X14855000D02*
D03*
X14805000D02*
D03*
X14755000D02*
D03*
X14705000D02*
D03*
X14655000D02*
D03*
X14605000D02*
D03*
X14555000D02*
D03*
X14505000D02*
D03*
X14455000D02*
D03*
X14405000D02*
D03*
X14355000D02*
D03*
X14305000D02*
D03*
X14255000D02*
D03*
X14205000D02*
D03*
X14155000D02*
D03*
X14105000D02*
D03*
X14055000D02*
D03*
X14005000D02*
D03*
D11*
X15360001Y22901199D02*
D03*
Y22851199D02*
D03*
Y22801199D02*
D03*
Y22751199D02*
D03*
Y22701199D02*
D03*
Y22651199D02*
D03*
Y22601199D02*
D03*
Y22551199D02*
D03*
Y22501199D02*
D03*
Y22451199D02*
D03*
Y22401199D02*
D03*
Y22351199D02*
D03*
Y22301199D02*
D03*
Y22251199D02*
D03*
Y22201199D02*
D03*
Y22151199D02*
D03*
Y22101199D02*
D03*
Y22051199D02*
D03*
Y22001199D02*
D03*
Y21951199D02*
D03*
Y21901199D02*
D03*
Y21851199D02*
D03*
Y21801199D02*
D03*
Y21751199D02*
D03*
Y21701199D02*
D03*
X13850000D02*
D03*
Y21751199D02*
D03*
Y21801199D02*
D03*
Y21851199D02*
D03*
Y21901199D02*
D03*
Y21951199D02*
D03*
Y22001199D02*
D03*
Y22051199D02*
D03*
Y22101199D02*
D03*
Y22151199D02*
D03*
Y22201199D02*
D03*
Y22251199D02*
D03*
Y22301199D02*
D03*
Y22351199D02*
D03*
Y22401199D02*
D03*
Y22451199D02*
D03*
Y22501199D02*
D03*
Y22551199D02*
D03*
Y22601199D02*
D03*
Y22651199D02*
D03*
Y22701199D02*
D03*
Y22751199D02*
D03*
Y22801199D02*
D03*
Y22851199D02*
D03*
Y22901199D02*
D03*
D12*
X19805580Y21404581D02*
D03*
X19955580D02*
D03*
X20112920Y21254720D02*
D03*
X20262920D02*
D03*
X20072420Y20883881D02*
D03*
X19922420D02*
D03*
X19805580Y21008340D02*
D03*
X19955580D02*
D03*
X14461560Y20921980D02*
D03*
X14311560D02*
D03*
X30862341Y23205440D02*
D03*
X30712341D02*
D03*
X11101140Y23784560D02*
D03*
X10951140D02*
D03*
X10915580Y21267419D02*
D03*
X11065580D02*
D03*
X10933360Y21869400D02*
D03*
X11083360D02*
D03*
X10872400Y22293581D02*
D03*
X11022400D02*
D03*
X10882560Y22903180D02*
D03*
X11032560D02*
D03*
X11139240Y17480280D02*
D03*
X10989240D02*
D03*
X11172260Y16873219D02*
D03*
X11022260D02*
D03*
X19056281Y20032980D02*
D03*
X19206281D02*
D03*
D13*
X19812000Y20895380D02*
D03*
Y20745380D02*
D03*
X19357339Y20410240D02*
D03*
Y20260240D02*
D03*
X30698441Y22952640D02*
D03*
Y23102640D02*
D03*
X30469839Y22617360D02*
D03*
Y22767360D02*
D03*
Y22335420D02*
D03*
Y22485420D02*
D03*
X14132561Y21352580D02*
D03*
Y21202580D02*
D03*
X20162520Y20301019D02*
D03*
Y20151019D02*
D03*
X20159979Y19991141D02*
D03*
Y19841141D02*
D03*
D14*
X19504660Y20407780D02*
D03*
Y20267780D02*
D03*
X14188440Y23455780D02*
D03*
Y23315781D02*
D03*
X27358340Y17560139D02*
D03*
Y17700140D02*
D03*
X27670761Y16638120D02*
D03*
Y16778120D02*
D03*
X27660599Y18324680D02*
D03*
Y18464680D02*
D03*
X27685999Y19147639D02*
D03*
Y19287640D02*
D03*
X18928081Y23485960D02*
D03*
Y23625960D02*
D03*
X18956020Y20420480D02*
D03*
Y20280479D02*
D03*
X21209000Y20333820D02*
D03*
Y20473820D02*
D03*
D15*
X19389220Y23307080D02*
D03*
X19159219D02*
D03*
X18929221D02*
D03*
D16*
X19159219Y22677080D02*
D03*
D17*
X20811940Y24239220D02*
D03*
X20391940D02*
D03*
D18*
X19817081Y24293980D02*
D03*
Y24661980D02*
D03*
D19*
X27355801Y17465041D02*
D03*
Y17399001D02*
D03*
Y17332961D02*
D03*
Y17269460D02*
D03*
Y17203419D02*
D03*
Y17139920D02*
D03*
Y17073880D02*
D03*
Y17007840D02*
D03*
X26771600D02*
D03*
Y17073880D02*
D03*
Y17139920D02*
D03*
Y17203419D02*
D03*
Y17269460D02*
D03*
Y17332961D02*
D03*
Y17399001D02*
D03*
Y17465041D02*
D03*
X27355801Y16637000D02*
D03*
Y16570959D02*
D03*
Y16504919D02*
D03*
Y16441420D02*
D03*
Y16375380D02*
D03*
Y16311880D02*
D03*
Y16245840D02*
D03*
Y16179800D02*
D03*
X26771600D02*
D03*
Y16245840D02*
D03*
Y16311880D02*
D03*
Y16375380D02*
D03*
Y16441420D02*
D03*
Y16504919D02*
D03*
Y16570959D02*
D03*
Y16637000D02*
D03*
X27360880Y18310860D02*
D03*
Y18244820D02*
D03*
Y18178780D02*
D03*
Y18115280D02*
D03*
Y18049240D02*
D03*
Y17985741D02*
D03*
Y17919701D02*
D03*
Y17853661D02*
D03*
X26776682D02*
D03*
Y17919701D02*
D03*
Y17985741D02*
D03*
Y18049240D02*
D03*
Y18115280D02*
D03*
Y18178780D02*
D03*
Y18244820D02*
D03*
Y18310860D02*
D03*
X27368500Y19151601D02*
D03*
Y19085561D02*
D03*
Y19019521D02*
D03*
Y18956020D02*
D03*
Y18889980D02*
D03*
Y18826480D02*
D03*
Y18760440D02*
D03*
Y18694400D02*
D03*
X26784299D02*
D03*
Y18760440D02*
D03*
Y18826480D02*
D03*
Y18889980D02*
D03*
Y18956020D02*
D03*
Y19019521D02*
D03*
Y19085561D02*
D03*
Y19151601D02*
D03*
X27388821Y20901660D02*
D03*
Y20838161D02*
D03*
Y20772121D02*
D03*
Y20706081D02*
D03*
Y20642580D02*
D03*
Y20576540D02*
D03*
Y20513040D02*
D03*
Y20447000D02*
D03*
Y20380960D02*
D03*
Y20317461D02*
D03*
X26804620D02*
D03*
Y20380960D02*
D03*
Y20447000D02*
D03*
Y20513040D02*
D03*
Y20576540D02*
D03*
Y20642580D02*
D03*
Y20706081D02*
D03*
Y20772121D02*
D03*
Y20838161D02*
D03*
Y20901660D02*
D03*
X27371039Y20025360D02*
D03*
Y19961861D02*
D03*
Y19895821D02*
D03*
Y19829781D02*
D03*
Y19766280D02*
D03*
Y19700240D02*
D03*
Y19636740D02*
D03*
Y19570700D02*
D03*
Y19504660D02*
D03*
Y19441161D02*
D03*
X26786841D02*
D03*
Y19504660D02*
D03*
Y19570700D02*
D03*
Y19636740D02*
D03*
Y19700240D02*
D03*
Y19766280D02*
D03*
Y19829781D02*
D03*
Y19895821D02*
D03*
Y19961861D02*
D03*
Y20025360D02*
D03*
D20*
X27608380Y19941541D02*
D03*
X27748380D02*
D03*
X27567740Y20901660D02*
D03*
X27707739D02*
D03*
X14900760Y23301961D02*
D03*
X15040759D02*
D03*
X19810580Y21142960D02*
D03*
X19950580D02*
D03*
X14052699Y23296880D02*
D03*
X13912700D02*
D03*
X11344760Y18049242D02*
D03*
X11484760D02*
D03*
X11484760Y17907001D02*
D03*
X11344760D02*
D03*
D21*
X11404580Y18983960D02*
D03*
X11846580D02*
D03*
D22*
X17926152Y23415601D02*
D03*
Y23895609D02*
D03*
X17214952Y23415601D02*
D03*
Y23895609D02*
D03*
D23*
X14483664Y20709789D02*
D03*
X14382063Y20709789D02*
D03*
X14282063D02*
D03*
D24*
X19474780Y20608659D02*
D03*
X19394780D02*
D03*
X19314780D02*
D03*
X19234779D02*
D03*
X19154781D02*
D03*
X19074780D02*
D03*
X18994780D02*
D03*
X18914780D02*
D03*
Y21448660D02*
D03*
X18994780D02*
D03*
X19074780D02*
D03*
X19154781D02*
D03*
X19234779D02*
D03*
X19314780D02*
D03*
X19394780D02*
D03*
X19474780D02*
D03*
D25*
X18774780Y20748660D02*
D03*
Y20828661D02*
D03*
Y20908659D02*
D03*
Y20988660D02*
D03*
Y21068660D02*
D03*
Y21148660D02*
D03*
Y21228661D02*
D03*
Y21308659D02*
D03*
X19614780D02*
D03*
Y21228661D02*
D03*
Y21148660D02*
D03*
Y21068660D02*
D03*
Y20988660D02*
D03*
Y20908659D02*
D03*
Y20828661D02*
D03*
Y20748660D02*
D03*
D26*
X11463020Y22872701D02*
D03*
Y22809200D02*
D03*
Y22743159D02*
D03*
Y22679660D02*
D03*
X11828780D02*
D03*
Y22743159D02*
D03*
Y22809200D02*
D03*
Y22872701D02*
D03*
D27*
X19131281Y19789140D02*
D03*
X18981281D02*
D03*
X19281281D02*
D03*
D28*
X20998180Y20477480D02*
D03*
Y20350481D02*
D03*
Y20223480D02*
D03*
Y20096480D02*
D03*
X20454620D02*
D03*
Y20223480D02*
D03*
Y20350481D02*
D03*
Y20477480D02*
D03*
D29*
X14559128Y22451212D02*
X14809258Y22201082D01*
X13805002Y22451212D02*
X14559128D01*
X14809377Y22201199D02*
X15404997D01*
X15004999D02*
Y22926041D01*
X14259763Y21651585D02*
X14809377Y22201199D01*
X14259763Y21505975D02*
Y21651585D01*
X14705000Y21501202D02*
Y21629666D01*
X14700493Y21634174D02*
X14705000Y21629666D01*
Y21739861D02*
X14717003Y21727856D01*
Y21661319D02*
Y21727856D01*
X14700493Y21634174D02*
X14714716Y21648396D01*
X14650720Y21505495D02*
Y21676360D01*
Y21505495D02*
X14655013Y21501202D01*
X14714716Y21659032D02*
X14717003Y21661319D01*
X14714716Y21648396D02*
Y21659032D01*
X14762483Y21642480D02*
Y21709676D01*
X14760194Y21640195D02*
X14762483Y21642480D01*
X14760194Y21629556D02*
Y21640195D01*
X14755013Y21624374D02*
X14760194Y21629556D01*
X14762483Y21709676D02*
X14766991Y21714183D01*
X14807964Y21690837D02*
X14817001Y21699876D01*
X14807964Y21504166D02*
Y21690837D01*
X26573480Y17269460D02*
X26771600D01*
X26499820Y17195799D02*
X26573480Y17269460D01*
X26603961Y17134840D02*
X26766519D01*
X26771600Y17139920D01*
X26345297Y16428720D02*
X26753821D01*
X26317117Y16456900D02*
X26345297Y16428720D01*
X24249380Y17924780D02*
X26042621D01*
X17972221D02*
X24249380D01*
X17965421Y17995900D02*
X26009601D01*
X26060400Y18046700D01*
X14805000Y21156320D02*
X17965421Y17995900D01*
X26042621Y17924780D02*
X26139139Y18021300D01*
X14758456Y21138547D02*
X17972221Y17924780D01*
X17973039Y17856200D02*
X26327100D01*
X23576280Y17701260D02*
X26311859D01*
X18063663D02*
X23576280D01*
X26599911Y18807190D02*
X26615631Y18822910D01*
X26599911Y18805882D02*
Y18807190D01*
X26563596Y18769569D02*
X26599911Y18805882D01*
X26562289Y18769569D02*
X26563596D01*
X26504901Y18712180D02*
X26562289Y18769569D01*
X26326099Y16200121D02*
X26525220D01*
X26255127Y16271091D02*
X26326099Y16200121D01*
X26255127Y16271091D02*
Y17433707D01*
X26258521Y17437100D01*
X26490894Y16504919D02*
X26491922Y16505949D01*
X26451559Y16504919D02*
X26490894D01*
X26337259Y16619220D02*
X26451559Y16504919D01*
X26491922Y16505949D02*
X26770569D01*
X26766519Y16380460D02*
X26771600Y16375380D01*
X26583640Y16380460D02*
X26766519D01*
X26555701Y16352521D02*
X26583640Y16380460D01*
X26753821Y16428720D02*
X26769061Y16443961D01*
X26504901Y18034000D02*
Y18117821D01*
X26770569Y18184891D02*
X26776682Y18178780D01*
X26603961Y18122900D02*
X26649680D01*
X27494470Y17776430D02*
X27538681Y17820641D01*
X27494470Y17624783D02*
Y17776430D01*
Y17624783D02*
X27495499Y17623753D01*
Y17505679D02*
Y17623753D01*
X27454861Y17465041D02*
X27495499Y17505679D01*
X26805649Y20705051D02*
X27387790D01*
X27388821Y20706081D01*
X26804620D02*
X26805649Y20705051D01*
X26936700Y20767039D02*
X26984961D01*
X26809698Y20642580D02*
X27023059D01*
X26807159Y20645120D02*
X26809698Y20642580D01*
X26805649Y20445970D02*
X27062671D01*
X27063699Y20447000D01*
X26804620D02*
X26805649Y20445970D01*
X14955013Y21311108D02*
X14991080Y21275040D01*
X14254988Y21501202D02*
X14259763Y21505975D01*
X15004999Y22926041D02*
Y23101198D01*
X14198599Y23286720D02*
Y23300540D01*
X14105000Y23193121D02*
X14198599Y23286720D01*
X14105000Y23101198D02*
Y23193121D01*
X15004999Y23101198D02*
X15009773Y23105972D01*
Y23206445D01*
X15040759Y23237431D01*
Y23301961D01*
X14955013Y23101198D02*
Y23198328D01*
X14900760Y23252580D02*
X14955013Y23198328D01*
X14900760Y23252580D02*
Y23301961D01*
X13805002Y22851212D02*
X14172032D01*
X13805002Y22801199D02*
X14134377D01*
X14166333Y22771100D02*
X14170660D01*
X14148212Y22789223D02*
X14166333Y22771100D01*
X14146355Y22789223D02*
X14148212D01*
X14134377Y22801199D02*
X14146355Y22789223D01*
X13515771Y21851189D02*
X13805002D01*
X13582599Y21901201D02*
X13805002D01*
X13472160Y21948140D02*
X13535660D01*
X13582599Y21901201D01*
X13596930Y21951189D02*
X13805002D01*
X13554498Y21993620D02*
X13596930Y21951189D01*
X13523199Y21993620D02*
X13554498D01*
X13492480Y22024339D02*
X13523199Y21993620D01*
X13075920Y21869400D02*
X13497560D01*
X13515771Y21851189D01*
X14955013Y21311108D02*
Y21501202D01*
X15092680Y21249640D02*
Y21258566D01*
X15004999Y21346248D02*
X15092680Y21258566D01*
X15004999Y21346248D02*
Y21501202D01*
X26357581Y17332961D02*
X26771600D01*
X26261060Y20447000D02*
X26804620D01*
X26258521Y19829781D02*
X27381201D01*
X26258521Y19700240D02*
X27381201D01*
X27193240Y20317461D02*
X27388821D01*
X27063699Y20447000D02*
X27193240Y20317461D01*
X27063699Y20447000D02*
X27388821D01*
X26804620Y20576540D02*
X27388821D01*
X26337259Y16619220D02*
Y17312640D01*
X26357581Y17332961D01*
X27275754Y17919701D02*
X27360880D01*
X27292300Y17853661D02*
X27360880D01*
X27274521Y17985741D02*
X27360880D01*
X26278839Y20901660D02*
X26804620D01*
X27061160D01*
X27124661Y20838161D01*
X27388821D01*
X26504901Y18267680D02*
Y18712180D01*
X26878003Y17694670D02*
X26929358D01*
X26966904Y17633710D02*
X26989764D01*
X27275754Y17919701D01*
X27178000Y16179800D02*
X27355801D01*
X27170380Y17165320D02*
X27216101D01*
X27241501Y17139920D01*
X27355801D01*
X27185620Y17086580D02*
X27228799D01*
X27244040Y17071339D01*
X27353259D01*
X27355801Y17073880D01*
X27180539Y16289020D02*
X27223721Y16245840D01*
X27355801D01*
X27180539Y16383000D02*
Y16398241D01*
Y16383000D02*
X27251660Y16311880D01*
X27355801D01*
X31089600Y16565880D02*
X31181039D01*
X31300421D02*
X31597601D01*
X27073859Y17942560D02*
X27129739D01*
X26906219Y17774921D02*
X27073859Y17942560D01*
X26588721Y17774921D02*
X26906219D01*
X26591260Y17457420D02*
X26642059D01*
X26652219Y17467580D01*
X26769061D01*
X26771600Y17465041D01*
X31089600Y17073880D02*
X31491159Y16672321D01*
X27010120Y16347681D02*
X27178000Y16179800D01*
X26771600Y16637000D02*
X26918921D01*
X26964639Y16591280D01*
Y16276320D02*
Y16591280D01*
X26919159Y16199879D02*
Y16530080D01*
X26878281Y16570959D02*
X26919159Y16530080D01*
X26771600Y16570959D02*
X26878281D01*
X31290259Y17073880D02*
X31597601D01*
X31150562Y17213580D02*
X31290259Y17073880D01*
X31240128Y17327879D02*
X31597601D01*
X31133688Y17434320D02*
X31240128Y17327879D01*
X31045511Y17434320D02*
X31133688D01*
X27086560Y16819881D02*
X27373581D01*
X26771600Y17399001D02*
X26911301D01*
X27355801Y16375380D02*
X27731720D01*
X31366461Y17835880D02*
X31597601D01*
X31244540Y17957800D02*
X31366461Y17835880D01*
X27365961Y18044160D02*
X27927301D01*
X27360880Y18049240D02*
X27365961Y18044160D01*
X27645361Y17203419D02*
X27820621Y17378680D01*
X27355801Y17203419D02*
X27645361D01*
X29758640Y18343880D02*
X31089600D01*
X27675839Y18983960D02*
X27767279D01*
X27355801Y16441420D02*
X27617419D01*
X27625040Y16449040D01*
X31203900Y18204179D02*
X31597601Y18597881D01*
X29197299Y18204179D02*
X31203900D01*
X27363419Y18112740D02*
X27640280D01*
X27873959Y17528540D02*
X28059381D01*
X27614880Y17269460D02*
X27873959Y17528540D01*
X27355801Y17269460D02*
X27614880D01*
X29428439Y19105881D02*
X31089600D01*
X27368500Y19019521D02*
X27373581Y19024600D01*
X31089600Y19359880D02*
X31491159Y18958321D01*
X31641690D01*
X27358340Y16507460D02*
X27515820D01*
X27355801Y16504919D02*
X27358340Y16507460D01*
X31292801Y19359880D02*
X31597601D01*
X27373581Y19024600D02*
X27571701D01*
X27368500Y18956020D02*
X27647900D01*
X27675839Y18983960D01*
X27371039Y18887440D02*
X27609799D01*
X31239459Y17952721D02*
X31244540Y17957800D01*
X29090619Y17952721D02*
X31239459D01*
X29099271Y18106149D02*
X29197299Y18204179D01*
X28994101Y18106149D02*
X29099271D01*
X29207458Y17724120D02*
X29672281D01*
X27556461Y17350740D02*
Y17650459D01*
X27538681Y17332961D02*
X27556461Y17350740D01*
X27355801Y17332961D02*
X27538681D01*
X27498041Y19090640D02*
X27518359D01*
X27492960Y19085561D02*
X27498041Y19090640D01*
X27368500Y19085561D02*
X27492960D01*
X31010861Y20121880D02*
X31089600D01*
X30876239Y19987260D02*
X31010861Y20121880D01*
X28846780Y19867880D02*
X31089600D01*
X28795981Y19987260D02*
X30876239D01*
X27543759Y16570959D02*
X27564081Y16550639D01*
X27355801Y16570959D02*
X27543759D01*
X31196280Y19720560D02*
X31597601Y20121880D01*
X31145239Y19507440D02*
X31292801Y19359880D01*
X28900119Y19720560D02*
X31196280D01*
X29293820Y19240500D02*
X29428439Y19105881D01*
X28996640D02*
X29758640Y18343880D01*
X30307281Y17416780D02*
X30325061Y17434560D01*
X31045270D01*
X31045511Y17434320D01*
X29712921Y17371060D02*
X30035501D01*
X30368240Y17703799D01*
X27564081Y16550639D02*
X27842661D01*
X27373581Y16819881D02*
X27858719Y17305020D01*
X28455621D01*
X27820621Y17378680D02*
X28064459D01*
X27355801Y17399001D02*
X27358340Y17396460D01*
X27482800D01*
X30754321Y17155161D02*
X31089600Y16819881D01*
X30365701Y17035780D02*
X31089600Y16311880D01*
X30406339Y17089120D02*
X30782019Y16713440D01*
X31152859D02*
X31300421Y16565880D01*
X30782019Y16713440D02*
X31152859D01*
X28516580Y17278313D02*
X28517609Y17279343D01*
X28516580Y17218660D02*
Y17278313D01*
X27360880Y18310860D02*
X27646780D01*
X27368500Y19151601D02*
Y19152631D01*
X31491159Y16672321D02*
X31641690D01*
X31716980Y16280731D02*
Y16597029D01*
X31641690Y16672321D02*
X31716980Y16597029D01*
X30368240Y17703799D02*
X31643320D01*
X31734760Y17795239D01*
Y18714720D01*
X31597601Y18851880D02*
X31734760Y18714720D01*
X31788101Y16281400D02*
Y18811909D01*
X31641690Y18958321D02*
X31788101Y18811909D01*
X31203900Y16233141D02*
Y16543021D01*
X31181039Y16565880D02*
X31203900Y16543021D01*
X26964639Y16276320D02*
X27142441Y16098520D01*
X31069281D01*
X31203900Y16233141D01*
X26919159Y16199879D02*
X27096719Y16022321D01*
X31458569D01*
X31716980Y16280731D01*
X29607059Y17213580D02*
X31150562D01*
X28450540Y17094200D02*
X28544519D01*
X28431702Y17139680D02*
X28437601D01*
X28516580Y17218660D01*
X27731720Y16375380D02*
X28450540Y17094200D01*
X27842661Y16550639D02*
X28431702Y17139680D01*
X28895041Y17744440D02*
X29550360Y17089120D01*
X30406339D01*
X28709619Y18023840D02*
Y18216879D01*
Y18023840D02*
X29578299Y17155161D01*
X30754321D01*
X28595319Y16883380D02*
X28938220Y17226280D01*
Y17368520D01*
X29428439Y17569180D02*
X29672281D01*
X29850079Y17746980D01*
X28293060Y20629880D02*
X31089600D01*
X26769061Y16443961D02*
X26771600Y16441420D01*
X30901639Y20695920D02*
X31089600Y20883881D01*
X28232101Y20695920D02*
X30901639D01*
X26799539Y19763741D02*
X27005280D01*
X27800299Y15951199D02*
X31457901D01*
X31788101Y16281400D01*
X26770569Y16505949D02*
X26771600Y16504919D01*
X26929080Y20774660D02*
X26936700Y20767039D01*
X26807159Y20774660D02*
X26929080D01*
X26804620Y20772121D02*
X26807159Y20774660D01*
X26319479Y19895821D02*
X26939240D01*
X26974799Y19931380D01*
X27119580Y17007840D02*
X27355801D01*
X27108389Y17019031D02*
X27119580Y17007840D01*
X27108389Y17019031D02*
Y17471629D01*
X27009329Y17570689D02*
X27108389Y17471629D01*
X26911301Y17399001D02*
X27002740Y17307561D01*
X27048221Y16936481D02*
X27119580Y17007840D01*
X27048221Y16869206D02*
Y16936481D01*
X27002740Y16888045D02*
Y17307561D01*
X26939240Y16802100D02*
Y16824545D01*
X27002740Y16888045D01*
X27010120Y16347681D02*
Y16831107D01*
X27048221Y16869206D01*
X26893521Y17061180D02*
Y17180560D01*
X26873199Y17200880D02*
X26893521Y17180560D01*
X26774139Y17200880D02*
X26873199D01*
X26771600Y17203419D02*
X26774139Y17200880D01*
X31196280Y20482561D02*
X31597601Y20883881D01*
X31196280Y20482320D02*
Y20482561D01*
X26248361Y19019521D02*
X26784299D01*
X26248361Y18204179D02*
Y19019521D01*
Y20744180D01*
X26601419Y18884900D02*
X26779221D01*
X26780731Y18822910D02*
X26784299Y18826480D01*
X26615631Y18822910D02*
X26780731D01*
X26649680Y18948399D02*
X26677621D01*
X26687781Y18958560D01*
X26781760D01*
X26804620Y20513040D02*
X26984961D01*
X29489401Y19486880D02*
X29509961Y19507440D01*
X31145239D01*
X26784299Y19085561D02*
X26789380Y19080479D01*
X26804620Y20380960D02*
X26931619D01*
X28981400Y19552921D02*
Y19608800D01*
Y19552921D02*
X29293820Y19240500D01*
X26789380Y19080479D02*
X26791919Y19083020D01*
X27073859Y20238721D02*
X27376120D01*
X26931619Y20380960D02*
X27073859Y20238721D01*
X27388821Y20772121D02*
X27541220D01*
X27647900Y20665440D01*
X27388821Y20642580D02*
X27536139D01*
X27599640Y20579080D01*
X27388821Y20513040D02*
X27515820D01*
X27388821Y20380960D02*
X27523441D01*
X28780740Y19601180D02*
X28900119Y19720560D01*
X28627069Y19818350D02*
X28795981Y19987260D01*
X28625800Y19819620D02*
X28627069Y19818350D01*
X28625800Y19006821D02*
Y19819620D01*
X28554681Y18961099D02*
Y19931380D01*
Y18961099D02*
X28666440Y18849339D01*
X28740100D01*
X28996640Y19105881D01*
X26776682Y18310860D02*
X27015439D01*
X27078940Y18173700D02*
X27266901Y17985741D01*
X27274521D01*
X26981149Y17692371D02*
X27274521Y17985741D01*
X27142441Y18478500D02*
Y18719800D01*
X27183081Y18760440D01*
X27368500D01*
X27078940Y18335027D02*
Y18727420D01*
X27178000Y18826480D01*
X27368500D01*
X27009329Y17570689D02*
X27292300Y17853661D01*
X27259280Y18694400D02*
X27368500D01*
X28369260Y20403819D02*
X28371799Y20401280D01*
X28366721Y20396201D02*
X28371799Y20401280D01*
X27188159Y18399760D02*
X27204431Y18416029D01*
Y18639549D01*
X27259280Y18694400D01*
X27015439Y18310860D02*
X27023059Y18303239D01*
Y18285460D02*
Y18303239D01*
X27078940Y18173700D02*
Y18253673D01*
X27085049Y18259782D01*
Y18328917D01*
X27078940Y18335027D02*
X27085049Y18328917D01*
X26791919Y19083020D02*
X26855005D01*
X26923999Y18971260D02*
Y19014026D01*
X26855005Y19083020D02*
X26923999Y19014026D01*
X26784299Y19151601D02*
Y19222720D01*
X26878281Y18580099D02*
X26987500Y18689320D01*
Y19100800D01*
X26900110Y19188190D02*
Y19262331D01*
Y19188190D02*
X26987500Y19100800D01*
X26784299Y19222720D02*
X26940271Y19378690D01*
X28021280Y18244820D02*
X28320999Y18544540D01*
X28303220Y18686780D02*
X28517609Y18472391D01*
Y17279343D02*
Y18472391D01*
X27381201Y19636740D02*
X27543759D01*
X27381201Y19766280D02*
X27510739D01*
X28366721Y20396201D02*
X28389581Y20373340D01*
Y19085561D02*
Y20373340D01*
X27491653Y19895821D02*
X28363904Y19023570D01*
X28372830D01*
X28389581Y19006821D01*
X27738309Y19378690D02*
X28580081Y18536920D01*
X27510739Y19766280D02*
X28773120Y18503900D01*
X28641040Y17990820D02*
Y18540279D01*
X29494479Y17035780D02*
X30365701D01*
X28580081Y17950180D02*
Y18536920D01*
Y17950180D02*
X29494479Y17035780D01*
X28641040Y17990820D02*
X28676599Y17955260D01*
X27381201Y19895821D02*
X27491653D01*
X26578561Y18519141D02*
X26639520Y18580099D01*
X26878281D01*
X26578561Y18300700D02*
Y18519141D01*
Y18300700D02*
X26634439Y18244820D01*
X26776682D01*
X26642059Y18475960D02*
X26873199D01*
X27360880Y18244820D02*
X28021280D01*
X27360880Y18178780D02*
X28171140D01*
X28773120Y18047517D02*
X29607059Y17213580D01*
X28773120Y18047517D02*
Y18503900D01*
X28171140Y18178780D02*
X28387039Y18394679D01*
X29489401Y19207480D02*
Y19486880D01*
X26248361Y20744180D02*
X26342340Y20838161D01*
X26804620D01*
X26253439Y20706081D02*
X26259549Y20699969D01*
X26793430Y19567130D02*
X26797000Y19570700D01*
X26261060D02*
X26264630Y19567130D01*
X26789380Y19629120D02*
X26797000Y19636740D01*
X26264630Y19567130D02*
X26793430D01*
X26682700Y20144740D02*
X26714691Y20176730D01*
X26659839Y20144740D02*
X26682700D01*
X26664920Y19085561D02*
X26784299D01*
X26664920D02*
Y19103340D01*
X26797000Y20634959D02*
X26804620Y20642580D01*
X26626819Y20634959D02*
X26797000D01*
X26258521Y20576540D02*
X26262091Y20572971D01*
X26553159Y20767039D02*
X26789380D01*
X26798511Y20699969D02*
X26804620Y20706081D01*
X26259549Y20699969D02*
X26798511D01*
X26784299Y19634200D02*
X26789380Y19629120D01*
X26484579Y19634200D02*
X26784299D01*
X26801050Y20572971D02*
X26804620Y20576540D01*
X26262091Y20572971D02*
X26801050D01*
X26266141Y19961861D02*
X26269711Y19965430D01*
X26793430D02*
X26797000Y19961861D01*
X26269711Y19965430D02*
X26793430D01*
X26311859Y19903439D02*
X26319479Y19895821D01*
X26662381Y18046700D02*
X26774139D01*
X26504901Y18049240D02*
Y18117821D01*
X26385519Y19766280D02*
X26797000D01*
X26649680Y18122900D02*
X26659839Y18112740D01*
X26774139D01*
X26776682Y18115280D01*
X31465521Y22021800D02*
X31597601Y22153880D01*
X30960059Y22021800D02*
X31465521D01*
X30576520Y21638260D02*
X30960059Y22021800D01*
X30576520Y21402040D02*
Y21638260D01*
X31460440Y21762720D02*
X31597601Y21899879D01*
X30822900Y21762720D02*
X31460440D01*
X30652719Y21592540D02*
X30822900Y21762720D01*
X30652719Y21402040D02*
Y21592540D01*
X27355801Y16637000D02*
X27669641D01*
X27355801D02*
Y16715739D01*
X27553922Y18745200D02*
X28059381D01*
X27250150Y18374083D02*
Y18425436D01*
X27249911Y18425677D02*
X27250150Y18425436D01*
X27249911Y18425677D02*
Y18441190D01*
X27553922Y18745200D01*
X27188574Y18272760D02*
Y18312508D01*
X27250150Y18374083D01*
X27020520Y19232880D02*
X27167841Y19085561D01*
X27368500D01*
X27360880Y18310860D02*
Y18371820D01*
X27355801Y17465041D02*
X27454861D01*
X27363419Y17472659D02*
Y17590620D01*
X27213559Y17472659D02*
X27363419D01*
X27244040Y19151601D02*
X27368500D01*
X27221179Y19174460D02*
X27244040Y19151601D01*
X27368500Y19152631D02*
X27681009D01*
X27660599Y18324680D02*
X27770941D01*
X26799539Y19502119D02*
X26802081Y19504660D01*
X26797000Y19570700D02*
X27381201D01*
X27170380D02*
X27299921Y19441161D01*
X27381201D01*
X26802081Y19504660D02*
X27132281D01*
X26900110Y19262331D02*
X26949399Y19311620D01*
X27360571D01*
X27367953Y19319000D01*
X27435089D01*
X27442468Y19311620D01*
X27548840D01*
X27284680Y19237959D02*
X27401520D01*
X27221179Y19174460D02*
X27284680Y19237959D01*
X27567740Y20852280D02*
X27711401Y20708620D01*
Y20210539D02*
Y20708620D01*
X27567740Y20852280D02*
Y20901660D01*
Y20901660D01*
X28351239Y20482320D02*
X31196280D01*
X28559760Y19936459D02*
Y20403819D01*
X28554681Y19931380D02*
X28559760Y19936459D01*
X27642819Y20243800D02*
X27647900Y20248880D01*
Y20665440D01*
X27655521Y20154660D02*
X27711401Y20210539D01*
X27524561Y20025360D02*
X27608380Y19941541D01*
X26714691Y20176730D02*
X27410651D01*
X27599640Y20365720D01*
Y20579080D01*
X27584641Y20154660D02*
X27655521D01*
X27559000Y20180299D02*
X27584641Y20154660D01*
X27516940Y20017740D02*
X27524561Y20025360D01*
X27510739Y20017740D02*
X27516940D01*
X27381201Y20025360D02*
X27388821Y20017740D01*
X27510739D01*
X27243799Y20099260D02*
X27968179D01*
X28351239Y20482320D01*
X27233881Y20109180D02*
X27243799Y20099260D01*
X30449759Y21199080D02*
X30652719Y21402040D01*
X30419040Y21244560D02*
X30576520Y21402040D01*
X25930371Y21244560D02*
X30419040D01*
X25949210Y21199080D02*
X30449759D01*
X25418829Y20668700D02*
X25949210Y21199080D01*
X25399991Y20714180D02*
X25930371Y21244560D01*
X26232880Y21008099D02*
X27919919D01*
X28232101Y20695920D01*
X27542340Y20901660D02*
X27567740D01*
X27513281Y19568159D02*
X27548840D01*
X27738309Y19378690D01*
X27543759Y19636740D02*
X27566861Y19613640D01*
X27567679D01*
X28641040Y18540279D01*
X27381201Y19504660D02*
X27477719D01*
X26940271Y19378690D02*
X27738309D01*
X27477719Y19504660D02*
X27541220Y19441161D01*
X27561539D01*
X28719781Y18930620D02*
X28780740Y18991580D01*
Y19601180D01*
X28696921Y19270979D02*
Y19718021D01*
X28846780Y19867880D01*
X28976321Y19301460D02*
Y19400520D01*
Y19301460D02*
X29410660Y18867120D01*
X29474161D01*
X26960794Y17627600D02*
X26966904Y17633710D01*
X26875253Y17627600D02*
X26960794D01*
X26882660Y17570689D02*
X27009329D01*
X26595309Y17984711D02*
X26775650D01*
X26776682Y17985741D01*
X16578580Y21506180D02*
X16581120D01*
X17338640Y20748660D01*
X18774780D01*
X16551947Y21391879D02*
X17335167Y20608659D01*
X18914780D01*
X19614780Y21308659D02*
X19709660D01*
X19805580Y21404581D01*
X19614780Y21228661D02*
X20086861D01*
X19955580Y21404581D02*
X20276820D01*
X20967220Y20714180D01*
X25399991D01*
X20276820Y21228661D02*
X20381619D01*
X20941580Y20668700D01*
X25418829D01*
X20086861Y21228661D02*
X20112920Y21254720D01*
X19955580Y21008340D02*
X20101559D01*
X20170140Y21076920D01*
Y21197501D01*
X20112920Y21254720D02*
X20170140Y21197501D01*
X26292569Y18184891D02*
X26770569D01*
X26273279Y18204179D02*
X26292569Y18184891D01*
X26240741Y18204179D02*
X26273279D01*
X14554987Y21145616D02*
Y21501202D01*
X14505000Y21131285D02*
Y21501202D01*
X14454988Y21116978D02*
Y21501202D01*
X14805000Y21156320D02*
Y21501202D01*
X14755013Y21138547D02*
X14758456D01*
X26060400Y20683220D02*
X26278839Y20901660D01*
X26344879Y20040601D02*
X26611581D01*
X26626819Y20025360D01*
X26786841D01*
X27144980D01*
X27208481Y19961861D01*
X27371039D01*
X14655800Y21109122D02*
Y21501202D01*
X14706599Y21122639D02*
Y21501202D01*
X14755013Y21138547D02*
Y21624374D01*
X14805000Y21501202D02*
X14807964Y21504166D01*
X14805000Y21887180D02*
X14817001Y21875177D01*
Y21699876D02*
Y21875177D01*
X14755013Y21810980D02*
X14766991Y21799004D01*
Y21714183D02*
Y21799004D01*
X11828780Y22679660D02*
X12481560D01*
X11828780Y22743159D02*
X12151360D01*
X11559300Y22669740D02*
Y22773466D01*
X11463020Y22809200D02*
X11523566D01*
X11559300Y22773466D01*
Y22669740D02*
X11691620Y22537421D01*
X12682220D01*
X11463020Y22872701D02*
X11544300D01*
X11689080Y22727921D01*
Y22677119D02*
Y22727921D01*
Y22677119D02*
X11755120Y22611079D01*
X12428220D01*
X12682220Y22537421D02*
X12712700Y22567900D01*
X15040759Y23301961D02*
X17156531D01*
X15040759D02*
Y23480881D01*
X14737080Y23784560D02*
X15040759Y23480881D01*
X11828780Y22872701D02*
X12740640Y23784560D01*
X11101140D02*
X12740640D01*
X14737080D01*
X18981281Y19789140D02*
Y19957980D01*
X19056281Y20032980D01*
Y20107840D01*
X19074780Y20126340D01*
Y20608659D01*
X19281281Y19789140D02*
Y19957980D01*
X19206281Y20032980D02*
X19281281Y19957980D01*
X19154781Y20084480D02*
X19206281Y20032980D01*
X19154781Y20084480D02*
Y20608659D01*
X26527905Y17610370D02*
X26793704D01*
X26546744Y17564890D02*
X26812540D01*
X26565582Y17519411D02*
X26831381D01*
X26882660Y17570689D01*
X26812540Y17564890D02*
X26875253Y17627600D01*
X26793704Y17610370D02*
X26878003Y17694670D01*
X26525220Y16200121D02*
X26636981Y16311880D01*
X26771600D01*
X25979120Y20754340D02*
X26232880Y21008099D01*
X25979120Y18100040D02*
Y20754340D01*
X26060400Y18046700D02*
Y20683220D01*
X26139139Y18021300D02*
Y20022820D01*
X26562973Y17516800D02*
X26565582Y17519411D01*
X14454988Y21116978D02*
X18055167Y17516800D01*
X26544135Y17562280D02*
X26546744Y17564890D01*
X14505000Y21131285D02*
X18074005Y17562280D01*
X26525296Y17607761D02*
X26527905Y17610370D01*
X14554987Y21145616D02*
X18092844Y17607761D01*
X18055167Y17516800D02*
X26562973D01*
X18074005Y17562280D02*
X26544135D01*
X18092844Y17607761D02*
X26525296D01*
X14706599Y21122639D02*
X17973039Y17856200D01*
X26327100D02*
X26504901Y18034000D01*
X14655800Y21109122D02*
X18063663Y17701260D01*
X26311859D02*
X26595309Y17984711D01*
X20159979Y19991141D02*
Y20148480D01*
X20211980Y20096480D02*
X20454620D01*
X20159979Y20148480D02*
X20211980Y20096480D01*
X20240060Y20223480D02*
X20454620D01*
X20162520Y20301019D02*
X20240060Y20223480D01*
X19776740Y20586700D02*
X20538440D01*
X19614780Y20748660D02*
X19776740Y20586700D01*
X19373241Y20828661D02*
X19614780D01*
X19357339Y20812759D02*
X19373241Y20828661D01*
X20053300Y20393660D02*
X20145940Y20301019D01*
X19605960Y20477480D02*
X20454620D01*
X19474780Y20608659D02*
X19605960Y20477480D01*
X20538440Y20586700D02*
X20612100Y20513040D01*
Y20441920D02*
Y20513040D01*
X20520660Y20350481D02*
X20612100Y20441920D01*
X20454620Y20350481D02*
X20520660D01*
D30*
X14044800Y22926041D02*
X15004999D01*
X14012289Y22958551D02*
X14044800Y22926041D01*
X14012289Y22958551D02*
Y23093910D01*
X14254988Y21325008D02*
Y21501202D01*
X14132561Y21202580D02*
X14254988Y21325008D01*
X12059920Y19728180D02*
X13684320Y21352580D01*
X14132561D01*
X14005000Y23101198D02*
X14012289Y23093910D01*
X14470964Y20925688D02*
X14471315Y20923729D01*
X14482063Y20863789D01*
X14470964Y20925688D02*
Y21028076D01*
X14405000Y21094040D02*
X14470964Y21028076D01*
X14405000Y21094040D02*
Y21501202D01*
X14293164Y20681187D02*
Y20921980D01*
X14311560D02*
Y21034940D01*
X14354988Y21078368D01*
Y21501202D01*
X14282063Y20657388D02*
Y20670088D01*
Y20709789D01*
Y20670088D02*
X14293164Y20681187D01*
X14482063Y20709789D02*
Y20863789D01*
X14132561Y21352580D02*
X14143919Y21363940D01*
X14173199D01*
X14205000Y21395741D01*
Y21501202D01*
X14855013Y21215527D02*
Y21501202D01*
Y21215527D02*
X15156180Y20914360D01*
X14904999Y21264601D02*
Y21501202D01*
Y21264601D02*
X15168880Y21000720D01*
X15191740D01*
X15283180Y20909280D01*
X10447261Y18400539D02*
X10815280Y18032520D01*
X10447261Y18400539D02*
Y19456641D01*
X10553701Y19563080D01*
X11534140Y19827240D02*
X11653171Y19708209D01*
X10817861Y19827240D02*
X11534140D01*
X10553701Y19563080D02*
X10817861Y19827240D01*
X10815280Y18032520D02*
X11328038D01*
X11484760Y18049242D02*
X15046962D01*
X16200121Y19202400D01*
X16804640Y19806920D02*
X17503140Y20505420D01*
X17658080D01*
X18603600Y20988660D02*
X18774780D01*
X11344760Y17924780D02*
Y18049242D01*
D31*
X24752299Y18138139D02*
X25062180Y18448019D01*
X17926152Y23415601D02*
X18404179D01*
X19227800Y24239220D01*
X20391940D01*
X17214952Y23415601D02*
Y23477805D01*
X19219051Y22792004D02*
X22549536D01*
X24348441Y20993100D02*
X25059641D01*
X22549536Y22792004D02*
X24348441Y20993100D01*
X18929221Y23307080D02*
Y23484821D01*
X18404179Y23415601D02*
X18820700D01*
X18929221Y23307080D01*
X17214952Y23089767D02*
X17510910Y22793810D01*
X19219046D01*
X10467340Y17480280D02*
X10989240D01*
X10469880Y16873219D02*
X11022260D01*
X11846580Y18315961D02*
Y18983960D01*
X11139240Y17480280D02*
X11320780D01*
X11366500Y17434560D01*
X11172260Y16873219D02*
X11361420D01*
X11366500Y16878300D01*
X25062180Y18448019D02*
Y20383501D01*
X17214952Y23089767D02*
Y23415601D01*
D32*
X20072420Y20883881D02*
X20210780D01*
X31470599Y22407880D02*
X31597601D01*
X31338281Y22275560D02*
X31470599Y22407880D01*
X31039200Y22275560D02*
X31338281D01*
X30482541Y21475700D02*
Y21718901D01*
X31039200Y22275560D01*
X30340302Y21333459D02*
X30482541Y21475700D01*
X25933401Y21333459D02*
X30340302D01*
X25374840Y20774899D02*
X25933401Y21333459D01*
X19234779Y21294720D02*
Y21448660D01*
X19314780Y21342677D02*
Y21448660D01*
Y21342677D02*
X19325259Y21332198D01*
Y21209940D02*
Y21332198D01*
X19293840Y21178520D02*
X19325259Y21209940D01*
X10454640Y21899879D02*
X10902880D01*
X10933360Y21869400D01*
X10454640Y16603979D02*
X14673579D01*
X16657320Y18587720D01*
X10454640Y17238980D02*
X15031720D01*
X16543021Y18750281D01*
X17045940Y19253200D02*
X18173700Y20380960D01*
X18315939D01*
X17178020Y19108420D02*
X17226280D01*
X18409920Y20292059D01*
X21127480Y20774899D02*
X25374840D01*
X20990559Y20888960D02*
X21013420D01*
X21127480Y20774899D01*
D33*
X19357339Y20410240D02*
X19502200D01*
X19314780Y20452800D02*
X19357339Y20410240D01*
X19314780Y20452800D02*
Y20608659D01*
X19074780Y21011501D02*
Y21448660D01*
Y21011501D02*
X19177620Y20908659D01*
X19812000Y20895380D02*
X19910921D01*
X19781406D02*
X19812000D01*
X19688126Y20988660D02*
X19781406Y20895380D01*
X19614780Y20988660D02*
X19688126D01*
X19785258Y21008340D02*
X19805580D01*
X19724940Y21068660D02*
X19785258Y21008340D01*
X19614780Y21068660D02*
X19724940D01*
X19181461Y20908659D02*
X19614780D01*
X30420779Y22666420D02*
X30469839Y22617360D01*
X29964380Y22666420D02*
X30420779D01*
X10454640Y21264880D02*
X10913040D01*
X10933500Y22019260D02*
X11083360Y21869400D01*
X10513060Y22019260D02*
X10933500D01*
X10334240Y22198080D02*
X10513060Y22019260D01*
X11221720Y18917920D02*
X11338540D01*
X11065580Y21267419D02*
X11846580Y20486420D01*
Y18983960D02*
Y20486420D01*
X11065580Y21851620D02*
X11083360Y21869400D01*
X11065580Y21267419D02*
Y21851620D01*
X10454640Y23804880D02*
X10930820D01*
X13912700Y23188087D02*
Y23296880D01*
Y23188087D02*
X13999590Y23101198D01*
X30698441Y22952640D02*
X30735199Y22915880D01*
X31089600D01*
X27208481Y20927060D02*
X27542340D01*
X25059641Y20993100D02*
X25351740D01*
X25762979Y21404340D01*
X30310941D01*
X30411661Y21505058D01*
Y21905200D01*
X30573981Y22067520D01*
Y23045419D01*
X30631201Y23102640D01*
X30698441D01*
X30712341Y23116541D01*
Y23205440D01*
X30469839Y22485420D02*
Y22617360D01*
Y22767360D02*
Y22922960D01*
X29964380Y23428419D02*
X30469839Y22922960D01*
X18994780Y20608659D02*
Y20721980D01*
X19614780Y21148660D02*
X19779482D01*
X19074780Y21448660D02*
X19154781D01*
X10334240Y23925780D02*
X10375900Y23967439D01*
X11008360D01*
X11101140Y23874660D01*
Y23784560D02*
Y23874660D01*
X10334240Y22198080D02*
Y23925780D01*
X11158220Y22743159D02*
X11463020D01*
X11038840Y22623779D02*
X11158220Y22743159D01*
X10543540Y22623779D02*
X11038840D01*
X10454640Y22534880D02*
X10543540Y22623779D01*
X11719560Y22809200D02*
X11828780D01*
X11549380Y22979379D02*
X11719560Y22809200D01*
X11269980Y22979379D02*
X11549380D01*
X11079480Y23169881D02*
X11269980Y22979379D01*
X10454640Y23169881D02*
X11079480D01*
X10467340Y22903180D02*
X10882560D01*
X10467340Y22293581D02*
X10872400D01*
X18994780Y20459241D02*
Y20608659D01*
X18956020Y20420480D02*
X18994780Y20459241D01*
Y20721980D02*
X19181461Y20908659D01*
X19337019Y20142200D02*
Y20239920D01*
Y20142200D02*
X19715480D01*
X20016541Y19841141D01*
X20159979D01*
X20478680D01*
X20728940Y20091400D01*
Y20330161D01*
X20876260Y20477480D01*
X20998180D01*
X21205341D01*
D34*
X20811940Y24239220D02*
X21061681D01*
D35*
X30863541Y23201559D02*
X30876791Y23188310D01*
X30863541Y23201559D02*
X31057919D01*
X31089600Y23169881D01*
D36*
X29972000Y23428419D02*
D03*
Y21904420D02*
D03*
D37*
Y23047420D02*
D03*
Y22666420D02*
D03*
Y22285420D02*
D03*
X24892000Y22664420D02*
D03*
Y23394420D02*
D03*
Y21934419D02*
D03*
D38*
X31597601Y24185880D02*
D03*
Y23931880D02*
D03*
Y23677879D02*
D03*
Y23423880D02*
D03*
Y23169881D02*
D03*
Y22915880D02*
D03*
Y22661880D02*
D03*
Y22407880D02*
D03*
Y22153880D02*
D03*
Y21899879D02*
D03*
Y21645880D02*
D03*
Y21391879D02*
D03*
Y21137880D02*
D03*
Y20883881D02*
D03*
Y20629880D02*
D03*
Y20375880D02*
D03*
Y20121880D02*
D03*
Y19867880D02*
D03*
Y19613879D02*
D03*
Y19359880D02*
D03*
Y19105881D02*
D03*
Y18851880D02*
D03*
Y18597881D02*
D03*
Y18343880D02*
D03*
Y18089880D02*
D03*
Y17835880D02*
D03*
Y17581880D02*
D03*
Y17327879D02*
D03*
Y17073880D02*
D03*
Y16819881D02*
D03*
Y16565880D02*
D03*
Y16311880D02*
D03*
X31089600Y24185880D02*
D03*
Y23931880D02*
D03*
Y23677879D02*
D03*
Y23423880D02*
D03*
Y23169881D02*
D03*
Y22915880D02*
D03*
Y22661880D02*
D03*
Y22407880D02*
D03*
Y22153880D02*
D03*
Y21899879D02*
D03*
Y21645880D02*
D03*
Y21391879D02*
D03*
Y21137880D02*
D03*
Y20883881D02*
D03*
Y20629880D02*
D03*
Y20375880D02*
D03*
Y20121880D02*
D03*
Y19867880D02*
D03*
Y19613879D02*
D03*
Y19359880D02*
D03*
Y19105881D02*
D03*
Y18851880D02*
D03*
Y18597881D02*
D03*
Y18343880D02*
D03*
Y18089880D02*
D03*
Y17835880D02*
D03*
Y17581880D02*
D03*
Y17327879D02*
D03*
Y17073880D02*
D03*
Y16819881D02*
D03*
Y16565880D02*
D03*
Y16311880D02*
D03*
X10815280Y18032520D02*
D03*
Y18482520D02*
D03*
D39*
X31851599Y24693880D02*
D03*
Y15803880D02*
D03*
D40*
X10454640Y22534880D02*
D03*
Y22280881D02*
D03*
Y22915880D02*
D03*
Y23169881D02*
D03*
Y21010880D02*
D03*
Y21264880D02*
D03*
Y16857980D02*
D03*
Y16603979D02*
D03*
Y17492979D02*
D03*
Y17238980D02*
D03*
Y23804880D02*
D03*
Y23550880D02*
D03*
Y21899879D02*
D03*
Y21645880D02*
D03*
D41*
X10553701Y19055080D02*
D03*
X10299701D02*
D03*
X10553701Y19309081D02*
D03*
X10299701D02*
D03*
X10553701Y19563080D02*
D03*
X10299701D02*
D03*
Y19817081D02*
D03*
X10553701D02*
D03*
Y20071080D02*
D03*
X10299701D02*
D03*
D42*
X11064280Y18608020D02*
D03*
Y17907021D02*
D03*
D43*
X10515600Y24681180D02*
D03*
Y15791180D02*
D03*
X21066760Y24244299D02*
D03*
X11221720Y18917920D02*
D03*
X11846580Y18315961D02*
D03*
D44*
X14650720Y21676360D02*
D03*
X26492200Y17876520D02*
D03*
X26603961Y17134840D02*
D03*
X24551640Y17998441D02*
D03*
X24249380Y17924780D02*
D03*
X23809959Y17858740D02*
D03*
X23576280Y17701260D02*
D03*
X26708099Y16720821D02*
D03*
X26245358Y16104459D02*
D03*
X26416000Y18775681D02*
D03*
X26537921Y18831560D02*
D03*
X27152600Y17599660D02*
D03*
X26258521Y17437100D02*
D03*
X26317117Y16456900D02*
D03*
X26418539Y19303406D02*
D03*
X26397534Y20351164D02*
D03*
X26385519Y19766280D02*
D03*
X27829184Y20198741D02*
D03*
X26624280Y18674080D02*
D03*
X27162076Y18989725D02*
D03*
X27495499Y18793460D02*
D03*
X28029510Y18912939D02*
D03*
X28798520Y20177760D02*
D03*
X28470859Y20167599D02*
D03*
X26921460Y18778220D02*
D03*
X26603961Y18122900D02*
D03*
X27432001Y17645380D02*
D03*
X26659839Y17886681D02*
D03*
X26624280Y17015460D02*
D03*
X26644601Y16165154D02*
D03*
X27579321Y16753841D02*
D03*
X27619958Y19250661D02*
D03*
X27848560Y19926300D02*
D03*
X26984961Y20767039D02*
D03*
X27023059Y20642580D02*
D03*
X27005280Y20507961D02*
D03*
X27829922Y20902121D02*
D03*
X14172032Y22851212D02*
D03*
X14170660Y22771100D02*
D03*
X16578580Y21506180D02*
D03*
X13472160Y21948140D02*
D03*
X13487399Y22029420D02*
D03*
X13075920Y21869400D02*
D03*
X15092680Y21249640D02*
D03*
X14988541Y21275040D02*
D03*
X26337259Y17312640D02*
D03*
X26504901Y18267680D02*
D03*
X26903680Y17632680D02*
D03*
X26962100Y17711420D02*
D03*
X27170380Y17165320D02*
D03*
X27185620Y17086580D02*
D03*
X27180539Y16289020D02*
D03*
Y16398241D02*
D03*
X27129739Y17942560D02*
D03*
X26588721Y17774921D02*
D03*
X26591260Y17457420D02*
D03*
X27086560Y16819881D02*
D03*
X26939240Y16802100D02*
D03*
X27927301Y18044160D02*
D03*
X28455621Y17305020D02*
D03*
X27767279Y18983960D02*
D03*
X27625040Y16449040D02*
D03*
X27640280Y18112740D02*
D03*
X28059381Y17528540D02*
D03*
X27515820Y16507460D02*
D03*
X27571701Y19024600D02*
D03*
X27609799Y18887440D02*
D03*
X29090619Y17952721D02*
D03*
X28994101Y18106149D02*
D03*
X28709619Y18216879D02*
D03*
X29672281Y17724120D02*
D03*
X29207458D02*
D03*
X27556461Y17650459D02*
D03*
X27518359Y19090640D02*
D03*
X28719781Y18930620D02*
D03*
X29293820Y19240500D02*
D03*
X28996640Y19105881D02*
D03*
X30307281Y17416780D02*
D03*
X29712921Y17371060D02*
D03*
X29850079Y17746980D02*
D03*
X28064459Y17378680D02*
D03*
X27482800Y17396460D02*
D03*
X28895041Y17744440D02*
D03*
X28544519Y17094200D02*
D03*
X28595319Y16883380D02*
D03*
X28948380Y17371060D02*
D03*
X29428439Y17569180D02*
D03*
X28290521Y20632420D02*
D03*
X27005280Y19763741D02*
D03*
X27800299Y15951199D02*
D03*
X26499820Y17195799D02*
D03*
X26555701Y16352521D02*
D03*
X26974799Y19931380D02*
D03*
X26893521Y17061180D02*
D03*
X26649680Y18948399D02*
D03*
X26601419Y18884900D02*
D03*
X27233881Y20109180D02*
D03*
X29489401Y19486880D02*
D03*
X28981400Y19608800D02*
D03*
X26659839Y20144740D02*
D03*
X27376120Y20238721D02*
D03*
X27525980Y20502879D02*
D03*
X27533600Y20408900D02*
D03*
X28625800Y19006821D02*
D03*
X27142441Y18478500D02*
D03*
X27063699Y17617439D02*
D03*
X28369260Y20403819D02*
D03*
X28059381Y18745200D02*
D03*
X27188159Y18399760D02*
D03*
X27188574Y18272760D02*
D03*
X27023059Y18285460D02*
D03*
X26923999Y18971260D02*
D03*
X27553922Y19316701D02*
D03*
X27020520Y19232880D02*
D03*
X27513281Y19568159D02*
D03*
X28320999Y18544540D02*
D03*
X28303220Y18686780D02*
D03*
X28389581Y19006821D02*
D03*
Y19085561D02*
D03*
X28676599Y17955260D02*
D03*
X26642059Y18475960D02*
D03*
X26878281Y18470880D02*
D03*
X27515820Y18242281D02*
D03*
X28387039Y18394679D02*
D03*
X29486859Y19204939D02*
D03*
X26664920Y19103340D02*
D03*
X26626819Y20634959D02*
D03*
X26553159Y20767039D02*
D03*
X26484579Y19634200D02*
D03*
X26311859Y19903439D02*
D03*
X26662381Y18046700D02*
D03*
X26504901Y18117821D02*
D03*
X27132281Y19504660D02*
D03*
X28559760Y20403819D02*
D03*
X27642819Y20243800D02*
D03*
X27561539Y19441161D02*
D03*
X28696921Y19270979D02*
D03*
X27889200Y19397980D02*
D03*
X28976321Y19400520D02*
D03*
X29474161Y18867120D02*
D03*
X29202380Y18209261D02*
D03*
X16551947Y21391879D02*
D03*
X26240741Y18204179D02*
D03*
X26139139Y20022820D02*
D03*
X26344879Y20040601D02*
D03*
X14705000Y21739861D02*
D03*
X14755013Y21810980D02*
D03*
X14805000Y21887180D02*
D03*
X12712700Y22567900D02*
D03*
X12481560Y22679660D02*
D03*
X12428220Y22611079D02*
D03*
X12151360Y22743159D02*
D03*
X25979120Y18100040D02*
D03*
X26205179Y17848579D02*
D03*
D45*
X19575780Y21460460D02*
D03*
X20068539Y21135339D02*
D03*
X19177620Y20908659D02*
D03*
X30203140Y21696680D02*
D03*
X29715460Y21706841D02*
D03*
X29753561Y21869400D02*
D03*
X30167581Y21859241D02*
D03*
X29855161Y21650960D02*
D03*
X30060901Y21638260D02*
D03*
X30098999Y21752560D02*
D03*
X29827219Y21757640D02*
D03*
X29961841Y21704300D02*
D03*
X30203140Y23639780D02*
D03*
X29961841Y23741380D02*
D03*
X29728159Y23660100D02*
D03*
X30091379Y23665179D02*
D03*
X29850079Y23672800D02*
D03*
X29799280Y23550880D02*
D03*
X30137100D02*
D03*
X29964380Y23632159D02*
D03*
X24782780Y21783040D02*
D03*
X24792940Y22092920D02*
D03*
X15156180Y20914360D02*
D03*
X15283180Y20909280D02*
D03*
X24650700Y23276559D02*
D03*
X24894540Y23550880D02*
D03*
X19234779Y21294720D02*
D03*
X19293840Y21178520D02*
D03*
X12039949Y19708209D02*
D03*
X11653171D02*
D03*
X16200121Y19202400D02*
D03*
X16804640Y19806920D02*
D03*
X17658080Y20505420D02*
D03*
X18603600Y20988660D02*
D03*
X11366500Y17434560D02*
D03*
Y16878300D02*
D03*
X16543021Y18750281D02*
D03*
X16657320Y18587720D02*
D03*
X17045940Y19253200D02*
D03*
X17178020Y19108420D02*
D03*
X18315939Y20380960D02*
D03*
X18409920Y20292059D02*
D03*
X20210780Y20883881D02*
D03*
X20990559Y20888960D02*
D03*
X11120120Y22890480D02*
D03*
X19337019Y20142200D02*
D03*
X19357339Y20812759D02*
D03*
X20053300Y20393660D02*
D03*
D46*
X19006821Y22303740D02*
D03*
X19128740Y22362160D02*
D03*
X18907761Y22387560D02*
D03*
X19497040Y22341840D02*
D03*
X18831560Y22481540D02*
D03*
X19189700Y22466299D02*
D03*
X18729961Y22400259D02*
D03*
X19027139Y22435820D02*
D03*
X18813780Y22291040D02*
D03*
X19265900Y22352000D02*
D03*
D47*
X27355801Y16715739D02*
D03*
X27213559Y17472659D02*
D03*
X27353259Y18394679D02*
D03*
X27221179Y19174460D02*
D03*
X27538681Y17820641D02*
D03*
X27782520Y18336259D02*
D03*
X27401520Y19237959D02*
D03*
X27559000Y20180299D02*
D03*
X27510739Y20017740D02*
D03*
X27208481Y20927060D02*
D03*
D48*
X25059641Y20993100D02*
D03*
X25062180Y20383501D02*
D03*
X24759920Y18143221D02*
D03*
%TF.MD5,c744d97e44893853be159157d97bd389*%
M02*
