G04 Layer_Color=2752767*
%FSLAX45Y45*%
%MOMM*%
%TF.FileFunction,Drawing*%
%TF.Part,Single*%
G01*
G75*
%TA.AperFunction,NonConductor*%
%ADD56C,0.12700*%
%ADD57C,0.10160*%
%ADD117C,0.16933*%
D56*
X10464800Y15740379D02*
Y15841980D01*
X10566400D01*
Y15740379D01*
X10464800D01*
Y24630380D02*
Y24731979D01*
X10566400D01*
Y24630380D01*
X10464800D01*
X11064280Y17856219D02*
X11013480Y17957820D01*
X11115080D01*
X11064280Y17856219D01*
Y18557220D02*
X11013480Y18658820D01*
X11115080D01*
X11064280Y18557220D01*
X10454640Y21595081D02*
X10480040Y21620480D01*
X10505440D01*
X10480040Y21645880D01*
X10505440Y21671280D01*
X10480040D01*
X10454640Y21696680D01*
X10429240Y21671280D01*
X10403840D01*
X10429240Y21645880D01*
X10403840Y21620480D01*
X10429240D01*
X10454640Y21595081D01*
Y21849080D02*
X10480040Y21874480D01*
X10505440D01*
X10480040Y21899879D01*
X10505440Y21925281D01*
X10480040D01*
X10454640Y21950681D01*
X10429240Y21925281D01*
X10403840D01*
X10429240Y21899879D01*
X10403840Y21874480D01*
X10429240D01*
X10454640Y21849080D01*
Y23500079D02*
X10480040Y23525481D01*
X10505440D01*
X10480040Y23550880D01*
X10505440Y23576280D01*
X10480040D01*
X10454640Y23601680D01*
X10429240Y23576280D01*
X10403840D01*
X10429240Y23550880D01*
X10403840Y23525481D01*
X10429240D01*
X10454640Y23500079D01*
Y23754080D02*
X10480040Y23779480D01*
X10505440D01*
X10480040Y23804880D01*
X10505440Y23830280D01*
X10480040D01*
X10454640Y23855679D01*
X10429240Y23830280D01*
X10403840D01*
X10429240Y23804880D01*
X10403840Y23779480D01*
X10429240D01*
X10454640Y23754080D01*
Y17188181D02*
X10480040Y17213580D01*
X10505440D01*
X10480040Y17238980D01*
X10505440Y17264380D01*
X10480040D01*
X10454640Y17289780D01*
X10429240Y17264380D01*
X10403840D01*
X10429240Y17238980D01*
X10403840Y17213580D01*
X10429240D01*
X10454640Y17188181D01*
Y17442180D02*
X10480040Y17467580D01*
X10505440D01*
X10480040Y17492979D01*
X10505440Y17518381D01*
X10480040D01*
X10454640Y17543781D01*
X10429240Y17518381D01*
X10403840D01*
X10429240Y17492979D01*
X10403840Y17467580D01*
X10429240D01*
X10454640Y17442180D01*
Y16553180D02*
X10480040Y16578580D01*
X10505440D01*
X10480040Y16603979D01*
X10505440Y16629379D01*
X10480040D01*
X10454640Y16654781D01*
X10429240Y16629379D01*
X10403840D01*
X10429240Y16603979D01*
X10403840Y16578580D01*
X10429240D01*
X10454640Y16553180D01*
Y16807179D02*
X10480040Y16832581D01*
X10505440D01*
X10480040Y16857980D01*
X10505440Y16883380D01*
X10480040D01*
X10454640Y16908780D01*
X10429240Y16883380D01*
X10403840D01*
X10429240Y16857980D01*
X10403840Y16832581D01*
X10429240D01*
X10454640Y16807179D01*
Y21214079D02*
X10480040Y21239481D01*
X10505440D01*
X10480040Y21264880D01*
X10505440Y21290280D01*
X10480040D01*
X10454640Y21315680D01*
X10429240Y21290280D01*
X10403840D01*
X10429240Y21264880D01*
X10403840Y21239481D01*
X10429240D01*
X10454640Y21214079D01*
Y20960080D02*
X10480040Y20985480D01*
X10505440D01*
X10480040Y21010880D01*
X10505440Y21036279D01*
X10480040D01*
X10454640Y21061681D01*
X10429240Y21036279D01*
X10403840D01*
X10429240Y21010880D01*
X10403840Y20985480D01*
X10429240D01*
X10454640Y20960080D01*
Y23119080D02*
X10480040Y23144479D01*
X10505440D01*
X10480040Y23169881D01*
X10505440Y23195280D01*
X10480040D01*
X10454640Y23220680D01*
X10429240Y23195280D01*
X10403840D01*
X10429240Y23169881D01*
X10403840Y23144479D01*
X10429240D01*
X10454640Y23119080D01*
Y22865080D02*
X10480040Y22890480D01*
X10505440D01*
X10480040Y22915880D01*
X10505440Y22941280D01*
X10480040D01*
X10454640Y22966679D01*
X10429240Y22941280D01*
X10403840D01*
X10429240Y22915880D01*
X10403840Y22890480D01*
X10429240D01*
X10454640Y22865080D01*
X10248901Y20020280D02*
X10274301Y20071080D01*
X10248901Y20121880D01*
X10299701Y20096480D01*
X10350501Y20121880D01*
X10325101Y20071080D01*
X10350501Y20020280D01*
X10299701Y20045680D01*
X10248901Y20020280D01*
X10502901D02*
X10528301Y20071080D01*
X10502901Y20121880D01*
X10553701Y20096480D01*
X10604501Y20121880D01*
X10579101Y20071080D01*
X10604501Y20020280D01*
X10553701Y20045680D01*
X10502901Y20020280D01*
Y19766280D02*
X10528301Y19817081D01*
X10502901Y19867880D01*
X10553701Y19842480D01*
X10604501Y19867880D01*
X10579101Y19817081D01*
X10604501Y19766280D01*
X10553701Y19791679D01*
X10502901Y19766280D01*
X10248901D02*
X10274301Y19817081D01*
X10248901Y19867880D01*
X10299701Y19842480D01*
X10350501Y19867880D01*
X10325101Y19817081D01*
X10350501Y19766280D01*
X10299701Y19791679D01*
X10248901Y19766280D01*
Y19512280D02*
X10274301Y19563080D01*
X10248901Y19613879D01*
X10299701Y19588480D01*
X10350501Y19613879D01*
X10325101Y19563080D01*
X10350501Y19512280D01*
X10299701Y19537680D01*
X10248901Y19512280D01*
X10502901D02*
X10528301Y19563080D01*
X10502901Y19613879D01*
X10553701Y19588480D01*
X10604501Y19613879D01*
X10579101Y19563080D01*
X10604501Y19512280D01*
X10553701Y19537680D01*
X10502901Y19512280D01*
X10248901Y19258279D02*
X10274301Y19309081D01*
X10248901Y19359880D01*
X10299701Y19334480D01*
X10350501Y19359880D01*
X10325101Y19309081D01*
X10350501Y19258279D01*
X10299701Y19283681D01*
X10248901Y19258279D01*
X10502901D02*
X10528301Y19309081D01*
X10502901Y19359880D01*
X10553701Y19334480D01*
X10604501Y19359880D01*
X10579101Y19309081D01*
X10604501Y19258279D01*
X10553701Y19283681D01*
X10502901Y19258279D01*
X10248901Y19004280D02*
X10274301Y19055080D01*
X10248901Y19105881D01*
X10299701Y19080479D01*
X10350501Y19105881D01*
X10325101Y19055080D01*
X10350501Y19004280D01*
X10299701Y19029680D01*
X10248901Y19004280D01*
X10502901D02*
X10528301Y19055080D01*
X10502901Y19105881D01*
X10553701Y19080479D01*
X10604501Y19105881D01*
X10579101Y19055080D01*
X10604501Y19004280D01*
X10553701Y19029680D01*
X10502901Y19004280D01*
X10454640Y22230080D02*
X10480040Y22255479D01*
X10505440D01*
X10480040Y22280881D01*
X10505440Y22306281D01*
X10480040D01*
X10454640Y22331680D01*
X10429240Y22306281D01*
X10403840D01*
X10429240Y22280881D01*
X10403840Y22255479D01*
X10429240D01*
X10454640Y22230080D01*
Y22484081D02*
X10480040Y22509480D01*
X10505440D01*
X10480040Y22534880D01*
X10505440Y22560280D01*
X10480040D01*
X10454640Y22585680D01*
X10429240Y22560280D01*
X10403840D01*
X10429240Y22534880D01*
X10403840Y22509480D01*
X10429240D01*
X10454640Y22484081D01*
X31826199Y15778481D02*
Y15753081D01*
X31876999D01*
Y15778481D01*
X31902399D01*
Y15829280D01*
X31876999D01*
Y15854680D01*
X31826199D01*
Y15829280D01*
X31800800D01*
Y15778481D01*
X31826199D01*
Y24668480D02*
Y24643080D01*
X31876999D01*
Y24668480D01*
X31902399D01*
Y24719279D01*
X31876999D01*
Y24744679D01*
X31826199D01*
Y24719279D01*
X31800800D01*
Y24668480D01*
X31826199D01*
X31038800Y16261079D02*
X31064200D01*
X31089600Y16286481D01*
X31114999Y16261079D01*
X31140399D01*
Y16286481D01*
X31114999Y16311880D01*
X31140399Y16337280D01*
Y16362680D01*
X31114999D01*
X31089600Y16337280D01*
X31064200Y16362680D01*
X31038800D01*
Y16337280D01*
X31064200Y16311880D01*
X31038800Y16286481D01*
Y16261079D01*
Y16515080D02*
X31064200D01*
X31089600Y16540480D01*
X31114999Y16515080D01*
X31140399D01*
Y16540480D01*
X31114999Y16565880D01*
X31140399Y16591280D01*
Y16616679D01*
X31114999D01*
X31089600Y16591280D01*
X31064200Y16616679D01*
X31038800D01*
Y16591280D01*
X31064200Y16565880D01*
X31038800Y16540480D01*
Y16515080D01*
Y16769080D02*
X31064200D01*
X31089600Y16794479D01*
X31114999Y16769080D01*
X31140399D01*
Y16794479D01*
X31114999Y16819881D01*
X31140399Y16845280D01*
Y16870680D01*
X31114999D01*
X31089600Y16845280D01*
X31064200Y16870680D01*
X31038800D01*
Y16845280D01*
X31064200Y16819881D01*
X31038800Y16794479D01*
Y16769080D01*
Y17023080D02*
X31064200D01*
X31089600Y17048480D01*
X31114999Y17023080D01*
X31140399D01*
Y17048480D01*
X31114999Y17073880D01*
X31140399Y17099280D01*
Y17124680D01*
X31114999D01*
X31089600Y17099280D01*
X31064200Y17124680D01*
X31038800D01*
Y17099280D01*
X31064200Y17073880D01*
X31038800Y17048480D01*
Y17023080D01*
Y17277080D02*
X31064200D01*
X31089600Y17302480D01*
X31114999Y17277080D01*
X31140399D01*
Y17302480D01*
X31114999Y17327879D01*
X31140399Y17353281D01*
Y17378680D01*
X31114999D01*
X31089600Y17353281D01*
X31064200Y17378680D01*
X31038800D01*
Y17353281D01*
X31064200Y17327879D01*
X31038800Y17302480D01*
Y17277080D01*
Y17531081D02*
X31064200D01*
X31089600Y17556480D01*
X31114999Y17531081D01*
X31140399D01*
Y17556480D01*
X31114999Y17581880D01*
X31140399Y17607280D01*
Y17632680D01*
X31114999D01*
X31089600Y17607280D01*
X31064200Y17632680D01*
X31038800D01*
Y17607280D01*
X31064200Y17581880D01*
X31038800Y17556480D01*
Y17531081D01*
Y17785080D02*
X31064200D01*
X31089600Y17810480D01*
X31114999Y17785080D01*
X31140399D01*
Y17810480D01*
X31114999Y17835880D01*
X31140399Y17861279D01*
Y17886681D01*
X31114999D01*
X31089600Y17861279D01*
X31064200Y17886681D01*
X31038800D01*
Y17861279D01*
X31064200Y17835880D01*
X31038800Y17810480D01*
Y17785080D01*
Y18039079D02*
X31064200D01*
X31089600Y18064481D01*
X31114999Y18039079D01*
X31140399D01*
Y18064481D01*
X31114999Y18089880D01*
X31140399Y18115280D01*
Y18140680D01*
X31114999D01*
X31089600Y18115280D01*
X31064200Y18140680D01*
X31038800D01*
Y18115280D01*
X31064200Y18089880D01*
X31038800Y18064481D01*
Y18039079D01*
Y18293080D02*
X31064200D01*
X31089600Y18318480D01*
X31114999Y18293080D01*
X31140399D01*
Y18318480D01*
X31114999Y18343880D01*
X31140399Y18369279D01*
Y18394679D01*
X31114999D01*
X31089600Y18369279D01*
X31064200Y18394679D01*
X31038800D01*
Y18369279D01*
X31064200Y18343880D01*
X31038800Y18318480D01*
Y18293080D01*
Y18547079D02*
X31064200D01*
X31089600Y18572479D01*
X31114999Y18547079D01*
X31140399D01*
Y18572479D01*
X31114999Y18597881D01*
X31140399Y18623280D01*
Y18648680D01*
X31114999D01*
X31089600Y18623280D01*
X31064200Y18648680D01*
X31038800D01*
Y18623280D01*
X31064200Y18597881D01*
X31038800Y18572479D01*
Y18547079D01*
Y18801080D02*
X31064200D01*
X31089600Y18826480D01*
X31114999Y18801080D01*
X31140399D01*
Y18826480D01*
X31114999Y18851880D01*
X31140399Y18877280D01*
Y18902679D01*
X31114999D01*
X31089600Y18877280D01*
X31064200Y18902679D01*
X31038800D01*
Y18877280D01*
X31064200Y18851880D01*
X31038800Y18826480D01*
Y18801080D01*
Y19055080D02*
X31064200D01*
X31089600Y19080479D01*
X31114999Y19055080D01*
X31140399D01*
Y19080479D01*
X31114999Y19105881D01*
X31140399Y19131281D01*
Y19156680D01*
X31114999D01*
X31089600Y19131281D01*
X31064200Y19156680D01*
X31038800D01*
Y19131281D01*
X31064200Y19105881D01*
X31038800Y19080479D01*
Y19055080D01*
Y19309081D02*
X31064200D01*
X31089600Y19334480D01*
X31114999Y19309081D01*
X31140399D01*
Y19334480D01*
X31114999Y19359880D01*
X31140399Y19385280D01*
Y19410680D01*
X31114999D01*
X31089600Y19385280D01*
X31064200Y19410680D01*
X31038800D01*
Y19385280D01*
X31064200Y19359880D01*
X31038800Y19334480D01*
Y19309081D01*
Y19563080D02*
X31064200D01*
X31089600Y19588480D01*
X31114999Y19563080D01*
X31140399D01*
Y19588480D01*
X31114999Y19613879D01*
X31140399Y19639281D01*
Y19664680D01*
X31114999D01*
X31089600Y19639281D01*
X31064200Y19664680D01*
X31038800D01*
Y19639281D01*
X31064200Y19613879D01*
X31038800Y19588480D01*
Y19563080D01*
Y19817081D02*
X31064200D01*
X31089600Y19842480D01*
X31114999Y19817081D01*
X31140399D01*
Y19842480D01*
X31114999Y19867880D01*
X31140399Y19893280D01*
Y19918680D01*
X31114999D01*
X31089600Y19893280D01*
X31064200Y19918680D01*
X31038800D01*
Y19893280D01*
X31064200Y19867880D01*
X31038800Y19842480D01*
Y19817081D01*
Y20071080D02*
X31064200D01*
X31089600Y20096480D01*
X31114999Y20071080D01*
X31140399D01*
Y20096480D01*
X31114999Y20121880D01*
X31140399Y20147279D01*
Y20172681D01*
X31114999D01*
X31089600Y20147279D01*
X31064200Y20172681D01*
X31038800D01*
Y20147279D01*
X31064200Y20121880D01*
X31038800Y20096480D01*
Y20071080D01*
Y20325079D02*
X31064200D01*
X31089600Y20350481D01*
X31114999Y20325079D01*
X31140399D01*
Y20350481D01*
X31114999Y20375880D01*
X31140399Y20401280D01*
Y20426680D01*
X31114999D01*
X31089600Y20401280D01*
X31064200Y20426680D01*
X31038800D01*
Y20401280D01*
X31064200Y20375880D01*
X31038800Y20350481D01*
Y20325079D01*
Y20579080D02*
X31064200D01*
X31089600Y20604480D01*
X31114999Y20579080D01*
X31140399D01*
Y20604480D01*
X31114999Y20629880D01*
X31140399Y20655280D01*
Y20680679D01*
X31114999D01*
X31089600Y20655280D01*
X31064200Y20680679D01*
X31038800D01*
Y20655280D01*
X31064200Y20629880D01*
X31038800Y20604480D01*
Y20579080D01*
Y20833080D02*
X31064200D01*
X31089600Y20858479D01*
X31114999Y20833080D01*
X31140399D01*
Y20858479D01*
X31114999Y20883881D01*
X31140399Y20909280D01*
Y20934680D01*
X31114999D01*
X31089600Y20909280D01*
X31064200Y20934680D01*
X31038800D01*
Y20909280D01*
X31064200Y20883881D01*
X31038800Y20858479D01*
Y20833080D01*
Y21087080D02*
X31064200D01*
X31089600Y21112480D01*
X31114999Y21087080D01*
X31140399D01*
Y21112480D01*
X31114999Y21137880D01*
X31140399Y21163280D01*
Y21188680D01*
X31114999D01*
X31089600Y21163280D01*
X31064200Y21188680D01*
X31038800D01*
Y21163280D01*
X31064200Y21137880D01*
X31038800Y21112480D01*
Y21087080D01*
Y21341080D02*
X31064200D01*
X31089600Y21366479D01*
X31114999Y21341080D01*
X31140399D01*
Y21366479D01*
X31114999Y21391879D01*
X31140399Y21417281D01*
Y21442680D01*
X31114999D01*
X31089600Y21417281D01*
X31064200Y21442680D01*
X31038800D01*
Y21417281D01*
X31064200Y21391879D01*
X31038800Y21366479D01*
Y21341080D01*
Y21595081D02*
X31064200D01*
X31089600Y21620480D01*
X31114999Y21595081D01*
X31140399D01*
Y21620480D01*
X31114999Y21645880D01*
X31140399Y21671280D01*
Y21696680D01*
X31114999D01*
X31089600Y21671280D01*
X31064200Y21696680D01*
X31038800D01*
Y21671280D01*
X31064200Y21645880D01*
X31038800Y21620480D01*
Y21595081D01*
Y21849080D02*
X31064200D01*
X31089600Y21874480D01*
X31114999Y21849080D01*
X31140399D01*
Y21874480D01*
X31114999Y21899879D01*
X31140399Y21925281D01*
Y21950681D01*
X31114999D01*
X31089600Y21925281D01*
X31064200Y21950681D01*
X31038800D01*
Y21925281D01*
X31064200Y21899879D01*
X31038800Y21874480D01*
Y21849080D01*
Y22103081D02*
X31064200D01*
X31089600Y22128481D01*
X31114999Y22103081D01*
X31140399D01*
Y22128481D01*
X31114999Y22153880D01*
X31140399Y22179280D01*
Y22204680D01*
X31114999D01*
X31089600Y22179280D01*
X31064200Y22204680D01*
X31038800D01*
Y22179280D01*
X31064200Y22153880D01*
X31038800Y22128481D01*
Y22103081D01*
Y22357080D02*
X31064200D01*
X31089600Y22382480D01*
X31114999Y22357080D01*
X31140399D01*
Y22382480D01*
X31114999Y22407880D01*
X31140399Y22433279D01*
Y22458681D01*
X31114999D01*
X31089600Y22433279D01*
X31064200Y22458681D01*
X31038800D01*
Y22433279D01*
X31064200Y22407880D01*
X31038800Y22382480D01*
Y22357080D01*
Y22611079D02*
X31064200D01*
X31089600Y22636481D01*
X31114999Y22611079D01*
X31140399D01*
Y22636481D01*
X31114999Y22661880D01*
X31140399Y22687280D01*
Y22712680D01*
X31114999D01*
X31089600Y22687280D01*
X31064200Y22712680D01*
X31038800D01*
Y22687280D01*
X31064200Y22661880D01*
X31038800Y22636481D01*
Y22611079D01*
Y22865080D02*
X31064200D01*
X31089600Y22890480D01*
X31114999Y22865080D01*
X31140399D01*
Y22890480D01*
X31114999Y22915880D01*
X31140399Y22941280D01*
Y22966679D01*
X31114999D01*
X31089600Y22941280D01*
X31064200Y22966679D01*
X31038800D01*
Y22941280D01*
X31064200Y22915880D01*
X31038800Y22890480D01*
Y22865080D01*
Y23119080D02*
X31064200D01*
X31089600Y23144479D01*
X31114999Y23119080D01*
X31140399D01*
Y23144479D01*
X31114999Y23169881D01*
X31140399Y23195280D01*
Y23220680D01*
X31114999D01*
X31089600Y23195280D01*
X31064200Y23220680D01*
X31038800D01*
Y23195280D01*
X31064200Y23169881D01*
X31038800Y23144479D01*
Y23119080D01*
Y23373080D02*
X31064200D01*
X31089600Y23398480D01*
X31114999Y23373080D01*
X31140399D01*
Y23398480D01*
X31114999Y23423880D01*
X31140399Y23449280D01*
Y23474680D01*
X31114999D01*
X31089600Y23449280D01*
X31064200Y23474680D01*
X31038800D01*
Y23449280D01*
X31064200Y23423880D01*
X31038800Y23398480D01*
Y23373080D01*
Y23627080D02*
X31064200D01*
X31089600Y23652480D01*
X31114999Y23627080D01*
X31140399D01*
Y23652480D01*
X31114999Y23677879D01*
X31140399Y23703281D01*
Y23728680D01*
X31114999D01*
X31089600Y23703281D01*
X31064200Y23728680D01*
X31038800D01*
Y23703281D01*
X31064200Y23677879D01*
X31038800Y23652480D01*
Y23627080D01*
Y23881081D02*
X31064200D01*
X31089600Y23906480D01*
X31114999Y23881081D01*
X31140399D01*
Y23906480D01*
X31114999Y23931880D01*
X31140399Y23957280D01*
Y23982680D01*
X31114999D01*
X31089600Y23957280D01*
X31064200Y23982680D01*
X31038800D01*
Y23957280D01*
X31064200Y23931880D01*
X31038800Y23906480D01*
Y23881081D01*
Y24135080D02*
X31064200D01*
X31089600Y24160480D01*
X31114999Y24135080D01*
X31140399D01*
Y24160480D01*
X31114999Y24185880D01*
X31140399Y24211279D01*
Y24236681D01*
X31114999D01*
X31089600Y24211279D01*
X31064200Y24236681D01*
X31038800D01*
Y24211279D01*
X31064200Y24185880D01*
X31038800Y24160480D01*
Y24135080D01*
X31546799Y16261079D02*
X31572198D01*
X31597601Y16286481D01*
X31623001Y16261079D01*
X31648401D01*
Y16286481D01*
X31623001Y16311880D01*
X31648401Y16337280D01*
Y16362680D01*
X31623001D01*
X31597601Y16337280D01*
X31572198Y16362680D01*
X31546799D01*
Y16337280D01*
X31572198Y16311880D01*
X31546799Y16286481D01*
Y16261079D01*
Y16515080D02*
X31572198D01*
X31597601Y16540480D01*
X31623001Y16515080D01*
X31648401D01*
Y16540480D01*
X31623001Y16565880D01*
X31648401Y16591280D01*
Y16616679D01*
X31623001D01*
X31597601Y16591280D01*
X31572198Y16616679D01*
X31546799D01*
Y16591280D01*
X31572198Y16565880D01*
X31546799Y16540480D01*
Y16515080D01*
Y16769080D02*
X31572198D01*
X31597601Y16794479D01*
X31623001Y16769080D01*
X31648401D01*
Y16794479D01*
X31623001Y16819881D01*
X31648401Y16845280D01*
Y16870680D01*
X31623001D01*
X31597601Y16845280D01*
X31572198Y16870680D01*
X31546799D01*
Y16845280D01*
X31572198Y16819881D01*
X31546799Y16794479D01*
Y16769080D01*
Y17023080D02*
X31572198D01*
X31597601Y17048480D01*
X31623001Y17023080D01*
X31648401D01*
Y17048480D01*
X31623001Y17073880D01*
X31648401Y17099280D01*
Y17124680D01*
X31623001D01*
X31597601Y17099280D01*
X31572198Y17124680D01*
X31546799D01*
Y17099280D01*
X31572198Y17073880D01*
X31546799Y17048480D01*
Y17023080D01*
Y17277080D02*
X31572198D01*
X31597601Y17302480D01*
X31623001Y17277080D01*
X31648401D01*
Y17302480D01*
X31623001Y17327879D01*
X31648401Y17353281D01*
Y17378680D01*
X31623001D01*
X31597601Y17353281D01*
X31572198Y17378680D01*
X31546799D01*
Y17353281D01*
X31572198Y17327879D01*
X31546799Y17302480D01*
Y17277080D01*
Y17531081D02*
X31572198D01*
X31597601Y17556480D01*
X31623001Y17531081D01*
X31648401D01*
Y17556480D01*
X31623001Y17581880D01*
X31648401Y17607280D01*
Y17632680D01*
X31623001D01*
X31597601Y17607280D01*
X31572198Y17632680D01*
X31546799D01*
Y17607280D01*
X31572198Y17581880D01*
X31546799Y17556480D01*
Y17531081D01*
Y17785080D02*
X31572198D01*
X31597601Y17810480D01*
X31623001Y17785080D01*
X31648401D01*
Y17810480D01*
X31623001Y17835880D01*
X31648401Y17861279D01*
Y17886681D01*
X31623001D01*
X31597601Y17861279D01*
X31572198Y17886681D01*
X31546799D01*
Y17861279D01*
X31572198Y17835880D01*
X31546799Y17810480D01*
Y17785080D01*
Y18039079D02*
X31572198D01*
X31597601Y18064481D01*
X31623001Y18039079D01*
X31648401D01*
Y18064481D01*
X31623001Y18089880D01*
X31648401Y18115280D01*
Y18140680D01*
X31623001D01*
X31597601Y18115280D01*
X31572198Y18140680D01*
X31546799D01*
Y18115280D01*
X31572198Y18089880D01*
X31546799Y18064481D01*
Y18039079D01*
Y18293080D02*
X31572198D01*
X31597601Y18318480D01*
X31623001Y18293080D01*
X31648401D01*
Y18318480D01*
X31623001Y18343880D01*
X31648401Y18369279D01*
Y18394679D01*
X31623001D01*
X31597601Y18369279D01*
X31572198Y18394679D01*
X31546799D01*
Y18369279D01*
X31572198Y18343880D01*
X31546799Y18318480D01*
Y18293080D01*
Y18547079D02*
X31572198D01*
X31597601Y18572479D01*
X31623001Y18547079D01*
X31648401D01*
Y18572479D01*
X31623001Y18597881D01*
X31648401Y18623280D01*
Y18648680D01*
X31623001D01*
X31597601Y18623280D01*
X31572198Y18648680D01*
X31546799D01*
Y18623280D01*
X31572198Y18597881D01*
X31546799Y18572479D01*
Y18547079D01*
Y18801080D02*
X31572198D01*
X31597601Y18826480D01*
X31623001Y18801080D01*
X31648401D01*
Y18826480D01*
X31623001Y18851880D01*
X31648401Y18877280D01*
Y18902679D01*
X31623001D01*
X31597601Y18877280D01*
X31572198Y18902679D01*
X31546799D01*
Y18877280D01*
X31572198Y18851880D01*
X31546799Y18826480D01*
Y18801080D01*
Y19055080D02*
X31572198D01*
X31597601Y19080479D01*
X31623001Y19055080D01*
X31648401D01*
Y19080479D01*
X31623001Y19105881D01*
X31648401Y19131281D01*
Y19156680D01*
X31623001D01*
X31597601Y19131281D01*
X31572198Y19156680D01*
X31546799D01*
Y19131281D01*
X31572198Y19105881D01*
X31546799Y19080479D01*
Y19055080D01*
Y19309081D02*
X31572198D01*
X31597601Y19334480D01*
X31623001Y19309081D01*
X31648401D01*
Y19334480D01*
X31623001Y19359880D01*
X31648401Y19385280D01*
Y19410680D01*
X31623001D01*
X31597601Y19385280D01*
X31572198Y19410680D01*
X31546799D01*
Y19385280D01*
X31572198Y19359880D01*
X31546799Y19334480D01*
Y19309081D01*
Y19563080D02*
X31572198D01*
X31597601Y19588480D01*
X31623001Y19563080D01*
X31648401D01*
Y19588480D01*
X31623001Y19613879D01*
X31648401Y19639281D01*
Y19664680D01*
X31623001D01*
X31597601Y19639281D01*
X31572198Y19664680D01*
X31546799D01*
Y19639281D01*
X31572198Y19613879D01*
X31546799Y19588480D01*
Y19563080D01*
Y19817081D02*
X31572198D01*
X31597601Y19842480D01*
X31623001Y19817081D01*
X31648401D01*
Y19842480D01*
X31623001Y19867880D01*
X31648401Y19893280D01*
Y19918680D01*
X31623001D01*
X31597601Y19893280D01*
X31572198Y19918680D01*
X31546799D01*
Y19893280D01*
X31572198Y19867880D01*
X31546799Y19842480D01*
Y19817081D01*
Y20071080D02*
X31572198D01*
X31597601Y20096480D01*
X31623001Y20071080D01*
X31648401D01*
Y20096480D01*
X31623001Y20121880D01*
X31648401Y20147279D01*
Y20172681D01*
X31623001D01*
X31597601Y20147279D01*
X31572198Y20172681D01*
X31546799D01*
Y20147279D01*
X31572198Y20121880D01*
X31546799Y20096480D01*
Y20071080D01*
Y20325079D02*
X31572198D01*
X31597601Y20350481D01*
X31623001Y20325079D01*
X31648401D01*
Y20350481D01*
X31623001Y20375880D01*
X31648401Y20401280D01*
Y20426680D01*
X31623001D01*
X31597601Y20401280D01*
X31572198Y20426680D01*
X31546799D01*
Y20401280D01*
X31572198Y20375880D01*
X31546799Y20350481D01*
Y20325079D01*
Y20579080D02*
X31572198D01*
X31597601Y20604480D01*
X31623001Y20579080D01*
X31648401D01*
Y20604480D01*
X31623001Y20629880D01*
X31648401Y20655280D01*
Y20680679D01*
X31623001D01*
X31597601Y20655280D01*
X31572198Y20680679D01*
X31546799D01*
Y20655280D01*
X31572198Y20629880D01*
X31546799Y20604480D01*
Y20579080D01*
Y20833080D02*
X31572198D01*
X31597601Y20858479D01*
X31623001Y20833080D01*
X31648401D01*
Y20858479D01*
X31623001Y20883881D01*
X31648401Y20909280D01*
Y20934680D01*
X31623001D01*
X31597601Y20909280D01*
X31572198Y20934680D01*
X31546799D01*
Y20909280D01*
X31572198Y20883881D01*
X31546799Y20858479D01*
Y20833080D01*
Y21087080D02*
X31572198D01*
X31597601Y21112480D01*
X31623001Y21087080D01*
X31648401D01*
Y21112480D01*
X31623001Y21137880D01*
X31648401Y21163280D01*
Y21188680D01*
X31623001D01*
X31597601Y21163280D01*
X31572198Y21188680D01*
X31546799D01*
Y21163280D01*
X31572198Y21137880D01*
X31546799Y21112480D01*
Y21087080D01*
Y21341080D02*
X31572198D01*
X31597601Y21366479D01*
X31623001Y21341080D01*
X31648401D01*
Y21366479D01*
X31623001Y21391879D01*
X31648401Y21417281D01*
Y21442680D01*
X31623001D01*
X31597601Y21417281D01*
X31572198Y21442680D01*
X31546799D01*
Y21417281D01*
X31572198Y21391879D01*
X31546799Y21366479D01*
Y21341080D01*
Y21595081D02*
X31572198D01*
X31597601Y21620480D01*
X31623001Y21595081D01*
X31648401D01*
Y21620480D01*
X31623001Y21645880D01*
X31648401Y21671280D01*
Y21696680D01*
X31623001D01*
X31597601Y21671280D01*
X31572198Y21696680D01*
X31546799D01*
Y21671280D01*
X31572198Y21645880D01*
X31546799Y21620480D01*
Y21595081D01*
Y21849080D02*
X31572198D01*
X31597601Y21874480D01*
X31623001Y21849080D01*
X31648401D01*
Y21874480D01*
X31623001Y21899879D01*
X31648401Y21925281D01*
Y21950681D01*
X31623001D01*
X31597601Y21925281D01*
X31572198Y21950681D01*
X31546799D01*
Y21925281D01*
X31572198Y21899879D01*
X31546799Y21874480D01*
Y21849080D01*
Y22103081D02*
X31572198D01*
X31597601Y22128481D01*
X31623001Y22103081D01*
X31648401D01*
Y22128481D01*
X31623001Y22153880D01*
X31648401Y22179280D01*
Y22204680D01*
X31623001D01*
X31597601Y22179280D01*
X31572198Y22204680D01*
X31546799D01*
Y22179280D01*
X31572198Y22153880D01*
X31546799Y22128481D01*
Y22103081D01*
Y22357080D02*
X31572198D01*
X31597601Y22382480D01*
X31623001Y22357080D01*
X31648401D01*
Y22382480D01*
X31623001Y22407880D01*
X31648401Y22433279D01*
Y22458681D01*
X31623001D01*
X31597601Y22433279D01*
X31572198Y22458681D01*
X31546799D01*
Y22433279D01*
X31572198Y22407880D01*
X31546799Y22382480D01*
Y22357080D01*
Y22611079D02*
X31572198D01*
X31597601Y22636481D01*
X31623001Y22611079D01*
X31648401D01*
Y22636481D01*
X31623001Y22661880D01*
X31648401Y22687280D01*
Y22712680D01*
X31623001D01*
X31597601Y22687280D01*
X31572198Y22712680D01*
X31546799D01*
Y22687280D01*
X31572198Y22661880D01*
X31546799Y22636481D01*
Y22611079D01*
Y22865080D02*
X31572198D01*
X31597601Y22890480D01*
X31623001Y22865080D01*
X31648401D01*
Y22890480D01*
X31623001Y22915880D01*
X31648401Y22941280D01*
Y22966679D01*
X31623001D01*
X31597601Y22941280D01*
X31572198Y22966679D01*
X31546799D01*
Y22941280D01*
X31572198Y22915880D01*
X31546799Y22890480D01*
Y22865080D01*
Y23119080D02*
X31572198D01*
X31597601Y23144479D01*
X31623001Y23119080D01*
X31648401D01*
Y23144479D01*
X31623001Y23169881D01*
X31648401Y23195280D01*
Y23220680D01*
X31623001D01*
X31597601Y23195280D01*
X31572198Y23220680D01*
X31546799D01*
Y23195280D01*
X31572198Y23169881D01*
X31546799Y23144479D01*
Y23119080D01*
Y23373080D02*
X31572198D01*
X31597601Y23398480D01*
X31623001Y23373080D01*
X31648401D01*
Y23398480D01*
X31623001Y23423880D01*
X31648401Y23449280D01*
Y23474680D01*
X31623001D01*
X31597601Y23449280D01*
X31572198Y23474680D01*
X31546799D01*
Y23449280D01*
X31572198Y23423880D01*
X31546799Y23398480D01*
Y23373080D01*
Y23627080D02*
X31572198D01*
X31597601Y23652480D01*
X31623001Y23627080D01*
X31648401D01*
Y23652480D01*
X31623001Y23677879D01*
X31648401Y23703281D01*
Y23728680D01*
X31623001D01*
X31597601Y23703281D01*
X31572198Y23728680D01*
X31546799D01*
Y23703281D01*
X31572198Y23677879D01*
X31546799Y23652480D01*
Y23627080D01*
Y23881081D02*
X31572198D01*
X31597601Y23906480D01*
X31623001Y23881081D01*
X31648401D01*
Y23906480D01*
X31623001Y23931880D01*
X31648401Y23957280D01*
Y23982680D01*
X31623001D01*
X31597601Y23957280D01*
X31572198Y23982680D01*
X31546799D01*
Y23957280D01*
X31572198Y23931880D01*
X31546799Y23906480D01*
Y23881081D01*
Y24135080D02*
X31572198D01*
X31597601Y24160480D01*
X31623001Y24135080D01*
X31648401D01*
Y24160480D01*
X31623001Y24185880D01*
X31648401Y24211279D01*
Y24236681D01*
X31623001D01*
X31597601Y24211279D01*
X31572198Y24236681D01*
X31546799D01*
Y24211279D01*
X31572198Y24185880D01*
X31546799Y24160480D01*
Y24135080D01*
X24841200Y21934419D02*
X24892000Y21985220D01*
X24942799Y21934419D01*
X24892000Y21883620D01*
X24841200Y21934419D01*
Y23394420D02*
X24892000Y23445219D01*
X24942799Y23394420D01*
X24892000Y23343620D01*
X24841200Y23394420D01*
Y22664420D02*
X24892000Y22715221D01*
X24942799Y22664420D01*
X24892000Y22613620D01*
X24841200Y22664420D01*
X29921201Y21853619D02*
Y21955220D01*
X30022800D01*
Y21853619D01*
X29921201D01*
X29941519Y21873940D02*
Y21934900D01*
X30002481D01*
Y21873940D01*
X29941519D01*
X29921201Y22285420D02*
X29972000Y22336220D01*
X30022800Y22285420D01*
X29972000Y22234621D01*
X29921201Y22285420D01*
Y22666420D02*
X29972000Y22717220D01*
X30022800Y22666420D01*
X29972000Y22615620D01*
X29921201Y22666420D01*
Y23047420D02*
X29972000Y23098219D01*
X30022800Y23047420D01*
X29972000Y22996620D01*
X29921201Y23047420D01*
Y23377620D02*
Y23479221D01*
X30022800D01*
Y23377620D01*
X29921201D01*
X29941519Y23397940D02*
Y23458900D01*
X30002481D01*
Y23397940D01*
X29941519D01*
X26205179Y17797780D02*
X26154379Y17899380D01*
X26255981D01*
X26205179Y17797780D01*
Y17818100D02*
X26174701Y17879060D01*
X26235660D01*
X26205179Y17818100D01*
X24709120Y18143221D02*
X24759920Y18194020D01*
X24810719Y18143221D01*
X24759920Y18092419D01*
X24709120Y18143221D01*
X25979120Y18049240D02*
X25928320Y18150841D01*
X26029919D01*
X25979120Y18049240D01*
Y18069560D02*
X25948639Y18130521D01*
X26009601D01*
X25979120Y18069560D01*
X12151360Y22692360D02*
X12100560Y22793961D01*
X12202160D01*
X12151360Y22692360D01*
Y22712680D02*
X12120880Y22773640D01*
X12181840D01*
X12151360Y22712680D01*
X12428220Y22560280D02*
X12377420Y22661880D01*
X12479020D01*
X12428220Y22560280D01*
Y22580600D02*
X12397740Y22641560D01*
X12458700D01*
X12428220Y22580600D01*
X12481560Y22628860D02*
X12430760Y22730460D01*
X12532360D01*
X12481560Y22628860D01*
Y22649181D02*
X12451080Y22710139D01*
X12512040D01*
X12481560Y22649181D01*
X12712700Y22517101D02*
X12661900Y22618700D01*
X12763500D01*
X12712700Y22517101D01*
Y22537421D02*
X12682220Y22598380D01*
X12743180D01*
X12712700Y22537421D01*
X14805000Y21836380D02*
X14754201Y21937981D01*
X14855800D01*
X14805000Y21836380D01*
Y21856700D02*
X14774519Y21917661D01*
X14835480D01*
X14805000Y21856700D01*
X14755013Y21760181D02*
X14704211Y21861780D01*
X14805812D01*
X14755013Y21760181D01*
Y21780499D02*
X14724532Y21841460D01*
X14785492D01*
X14755013Y21780499D01*
X14705000Y21689059D02*
X14654201Y21790660D01*
X14755800D01*
X14705000Y21689059D01*
Y21709380D02*
X14674519Y21770340D01*
X14735480D01*
X14705000Y21709380D01*
X26344879Y19989799D02*
X26294080Y20091400D01*
X26395679D01*
X26344879Y19989799D01*
Y20010120D02*
X26314401Y20071080D01*
X26375360D01*
X26344879Y20010120D01*
X26139139Y19972020D02*
X26088339Y20073621D01*
X26189941D01*
X26139139Y19972020D01*
Y19992340D02*
X26108661Y20053300D01*
X26169620D01*
X26139139Y19992340D01*
X25011380Y20383501D02*
X25062180Y20434300D01*
X25112981Y20383501D01*
X25062180Y20332700D01*
X25011380Y20383501D01*
X26240741Y18153380D02*
X26189941Y18254980D01*
X26291541D01*
X26240741Y18153380D01*
Y18173700D02*
X26210260Y18234660D01*
X26271219D01*
X26240741Y18173700D01*
X16551947Y21341080D02*
X16501147Y21442680D01*
X16602747D01*
X16551947Y21341080D01*
Y21361400D02*
X16521468Y21422360D01*
X16582426D01*
X16551947Y21361400D01*
X11846580Y18265160D02*
X11871980Y18290559D01*
X11897380D01*
X11871980Y18315961D01*
X11897380Y18341360D01*
X11871980D01*
X11846580Y18366760D01*
X11821180Y18341360D01*
X11795780D01*
X11821180Y18315961D01*
X11795780Y18290559D01*
X11821180D01*
X11846580Y18265160D01*
Y18285480D02*
X11861820Y18300720D01*
X11877060D01*
X11861820Y18315961D01*
X11877060Y18331200D01*
X11861820D01*
X11846580Y18346440D01*
X11831340Y18331200D01*
X11816100D01*
X11831340Y18315961D01*
X11816100Y18300720D01*
X11831340D01*
X11846580Y18285480D01*
X29202380Y18158459D02*
X29151581Y18260060D01*
X29253180D01*
X29202380Y18158459D01*
Y18178780D02*
X29171899Y18239740D01*
X29232861D01*
X29202380Y18178780D01*
X29474161Y18816319D02*
X29423361Y18917920D01*
X29524960D01*
X29474161Y18816319D01*
Y18836639D02*
X29443680Y18897600D01*
X29504639D01*
X29474161Y18836639D01*
X28976321Y19349719D02*
X28925519Y19451320D01*
X29027121D01*
X28976321Y19349719D01*
Y19370039D02*
X28945840Y19431000D01*
X29006799D01*
X28976321Y19370039D01*
X27889200Y19347180D02*
X27838400Y19448779D01*
X27939999D01*
X27889200Y19347180D01*
Y19367500D02*
X27858719Y19428461D01*
X27919681D01*
X27889200Y19367500D01*
X28696921Y19220180D02*
X28646121Y19321780D01*
X28747720D01*
X28696921Y19220180D01*
Y19240500D02*
X28666440Y19301460D01*
X28727399D01*
X28696921Y19240500D01*
X27561539Y19390359D02*
X27510739Y19491960D01*
X27612341D01*
X27561539Y19390359D01*
Y19410680D02*
X27531061Y19471640D01*
X27592020D01*
X27561539Y19410680D01*
X27157681Y20876260D02*
X27183081Y20927060D01*
X27157681Y20977859D01*
X27208481Y20952460D01*
X27259280Y20977859D01*
X27233881Y20927060D01*
X27259280Y20876260D01*
X27208481Y20901660D01*
X27157681Y20876260D01*
X27178000Y20896581D02*
X27193240Y20927060D01*
X27178000Y20957539D01*
X27208481Y20942300D01*
X27238959Y20957539D01*
X27223721Y20927060D01*
X27238959Y20896581D01*
X27208481Y20911819D01*
X27178000Y20896581D01*
X25008839Y20993100D02*
X25059641Y21043900D01*
X25110440Y20993100D01*
X25059641Y20942300D01*
X25008839Y20993100D01*
X27459940Y19966940D02*
X27485339Y20017740D01*
X27459940Y20068539D01*
X27510739Y20043140D01*
X27561539Y20068539D01*
X27536139Y20017740D01*
X27561539Y19966940D01*
X27510739Y19992340D01*
X27459940Y19966940D01*
X27480261Y19987260D02*
X27495499Y20017740D01*
X27480261Y20048219D01*
X27510739Y20032980D01*
X27541220Y20048219D01*
X27525980Y20017740D01*
X27541220Y19987260D01*
X27510739Y20002499D01*
X27480261Y19987260D01*
X27508200Y20129500D02*
X27533600Y20180299D01*
X27508200Y20231100D01*
X27559000Y20205701D01*
X27609799Y20231100D01*
X27584399Y20180299D01*
X27609799Y20129500D01*
X27559000Y20154900D01*
X27508200Y20129500D01*
X27528519Y20149820D02*
X27543759Y20180299D01*
X27528519Y20210780D01*
X27559000Y20195540D01*
X27589481Y20210780D01*
X27574240Y20180299D01*
X27589481Y20149820D01*
X27559000Y20165060D01*
X27528519Y20149820D01*
X27642819Y20192999D02*
X27592020Y20294600D01*
X27693619D01*
X27642819Y20192999D01*
Y20213319D02*
X27612341Y20274280D01*
X27673300D01*
X27642819Y20213319D01*
X28559760Y20353020D02*
X28508960Y20454620D01*
X28610559D01*
X28559760Y20353020D01*
Y20373340D02*
X28529279Y20434300D01*
X28590240D01*
X28559760Y20373340D01*
X27350720Y19187160D02*
X27376120Y19237959D01*
X27350720Y19288760D01*
X27401520Y19263361D01*
X27452319Y19288760D01*
X27426920Y19237959D01*
X27452319Y19187160D01*
X27401520Y19212560D01*
X27350720Y19187160D01*
X27371039Y19207480D02*
X27386279Y19237959D01*
X27371039Y19268440D01*
X27401520Y19253200D01*
X27432001Y19268440D01*
X27416760Y19237959D01*
X27432001Y19207480D01*
X27401520Y19222720D01*
X27371039Y19207480D01*
X27132281Y19453860D02*
X27081479Y19555460D01*
X27183081D01*
X27132281Y19453860D01*
Y19474181D02*
X27101801Y19535139D01*
X27162759D01*
X27132281Y19474181D01*
X27731720Y18285460D02*
X27757120Y18336259D01*
X27731720Y18387061D01*
X27782520Y18361659D01*
X27833319Y18387061D01*
X27807919Y18336259D01*
X27833319Y18285460D01*
X27782520Y18310860D01*
X27731720Y18285460D01*
X27752039Y18305780D02*
X27767279Y18336259D01*
X27752039Y18366740D01*
X27782520Y18351500D01*
X27813000Y18366740D01*
X27797760Y18336259D01*
X27813000Y18305780D01*
X27782520Y18321021D01*
X27752039Y18305780D01*
X27487881Y17769839D02*
X27513281Y17820641D01*
X27487881Y17871440D01*
X27538681Y17846040D01*
X27589481Y17871440D01*
X27564081Y17820641D01*
X27589481Y17769839D01*
X27538681Y17795239D01*
X27487881Y17769839D01*
X27508200Y17790160D02*
X27523441Y17820641D01*
X27508200Y17851120D01*
X27538681Y17835880D01*
X27569159Y17851120D01*
X27553922Y17820641D01*
X27569159Y17790160D01*
X27538681Y17805400D01*
X27508200Y17790160D01*
X27170380Y19123660D02*
X27195779Y19174460D01*
X27170380Y19225259D01*
X27221179Y19199860D01*
X27271979Y19225259D01*
X27246579Y19174460D01*
X27271979Y19123660D01*
X27221179Y19149060D01*
X27170380Y19123660D01*
X27190701Y19143980D02*
X27205939Y19174460D01*
X27190701Y19204939D01*
X27221179Y19189700D01*
X27251660Y19204939D01*
X27236420Y19174460D01*
X27251660Y19143980D01*
X27221179Y19159219D01*
X27190701Y19143980D01*
X27302460Y18343880D02*
X27327859Y18394679D01*
X27302460Y18445480D01*
X27353259Y18420081D01*
X27404059Y18445480D01*
X27378659Y18394679D01*
X27404059Y18343880D01*
X27353259Y18369279D01*
X27302460Y18343880D01*
X27322781Y18364200D02*
X27338019Y18394679D01*
X27322781Y18425160D01*
X27353259Y18409920D01*
X27383740Y18425160D01*
X27368500Y18394679D01*
X27383740Y18364200D01*
X27353259Y18379440D01*
X27322781Y18364200D01*
X27162759Y17421860D02*
X27188159Y17472659D01*
X27162759Y17523460D01*
X27213559Y17498061D01*
X27264359Y17523460D01*
X27238959Y17472659D01*
X27264359Y17421860D01*
X27213559Y17447260D01*
X27162759Y17421860D01*
X27183081Y17442180D02*
X27198318Y17472659D01*
X27183081Y17503140D01*
X27213559Y17487900D01*
X27244040Y17503140D01*
X27228799Y17472659D01*
X27244040Y17442180D01*
X27213559Y17457420D01*
X27183081Y17442180D01*
X27304999Y16664940D02*
X27330399Y16715739D01*
X27304999Y16766541D01*
X27355801Y16741141D01*
X27406601Y16766541D01*
X27381201Y16715739D01*
X27406601Y16664940D01*
X27355801Y16690340D01*
X27304999Y16664940D01*
X27325320Y16685260D02*
X27340561Y16715739D01*
X27325320Y16746220D01*
X27355801Y16730980D01*
X27386279Y16746220D01*
X27371039Y16715739D01*
X27386279Y16685260D01*
X27355801Y16700500D01*
X27325320Y16685260D01*
X26504901Y18067020D02*
X26454099Y18168620D01*
X26555701D01*
X26504901Y18067020D01*
Y18087340D02*
X26474420Y18148300D01*
X26535379D01*
X26504901Y18087340D01*
X26662381Y17995900D02*
X26611581Y18097501D01*
X26713181D01*
X26662381Y17995900D01*
Y18016220D02*
X26631900Y18077180D01*
X26692859D01*
X26662381Y18016220D01*
X26311859Y19852640D02*
X26261060Y19954240D01*
X26362659D01*
X26311859Y19852640D01*
Y19872960D02*
X26281381Y19933920D01*
X26342340D01*
X26311859Y19872960D01*
X26484579Y19583400D02*
X26433780Y19685001D01*
X26535379D01*
X26484579Y19583400D01*
Y19603720D02*
X26454099Y19664680D01*
X26515060D01*
X26484579Y19603720D01*
X26553159Y20716240D02*
X26502359Y20817841D01*
X26603961D01*
X26553159Y20716240D01*
Y20736560D02*
X26522681Y20797520D01*
X26583640D01*
X26553159Y20736560D01*
X26626819Y20584160D02*
X26576019Y20685760D01*
X26677621D01*
X26626819Y20584160D01*
Y20604480D02*
X26596341Y20665440D01*
X26657300D01*
X26626819Y20604480D01*
X26664920Y19052541D02*
X26614120Y19154140D01*
X26715720D01*
X26664920Y19052541D01*
Y19072861D02*
X26634439Y19133820D01*
X26695401D01*
X26664920Y19072861D01*
X29486859Y19154140D02*
X29436060Y19255740D01*
X29537659D01*
X29486859Y19154140D01*
Y19174460D02*
X29456381Y19235420D01*
X29517340D01*
X29486859Y19174460D01*
X28387039Y18343880D02*
X28336240Y18445480D01*
X28437839D01*
X28387039Y18343880D01*
Y18364200D02*
X28356561Y18425160D01*
X28417520D01*
X28387039Y18364200D01*
X27515820Y18191479D02*
X27465021Y18293080D01*
X27566620D01*
X27515820Y18191479D01*
Y18211800D02*
X27485339Y18272760D01*
X27546301D01*
X27515820Y18211800D01*
X26878281Y18420081D02*
X26827481Y18521680D01*
X26929080D01*
X26878281Y18420081D01*
Y18440401D02*
X26847800Y18501360D01*
X26908759D01*
X26878281Y18440401D01*
X26642059Y18425160D02*
X26591260Y18526759D01*
X26692859D01*
X26642059Y18425160D01*
Y18445480D02*
X26611581Y18506441D01*
X26672540D01*
X26642059Y18445480D01*
X28676599Y17904460D02*
X28625800Y18006059D01*
X28727399D01*
X28676599Y17904460D01*
Y17924780D02*
X28646121Y17985741D01*
X28707080D01*
X28676599Y17924780D01*
X28389581Y19034760D02*
X28338779Y19136360D01*
X28440381D01*
X28389581Y19034760D01*
Y19055080D02*
X28359100Y19116040D01*
X28420059D01*
X28389581Y19055080D01*
Y18956020D02*
X28338779Y19057620D01*
X28440381D01*
X28389581Y18956020D01*
Y18976340D02*
X28359100Y19037300D01*
X28420059D01*
X28389581Y18976340D01*
X28303220Y18635980D02*
X28252420Y18737579D01*
X28354019D01*
X28303220Y18635980D01*
Y18656300D02*
X28272739Y18717261D01*
X28333701D01*
X28303220Y18656300D01*
X28320999Y18493739D02*
X28270200Y18595340D01*
X28371799D01*
X28320999Y18493739D01*
Y18514059D02*
X28290521Y18575020D01*
X28351480D01*
X28320999Y18514059D01*
X27513281Y19517360D02*
X27462479Y19618961D01*
X27564081D01*
X27513281Y19517360D01*
Y19537680D02*
X27482800Y19598640D01*
X27543759D01*
X27513281Y19537680D01*
X27020520Y19182080D02*
X26969720Y19283681D01*
X27071320D01*
X27020520Y19182080D01*
Y19202400D02*
X26990039Y19263361D01*
X27051001D01*
X27020520Y19202400D01*
X27553922Y19265900D02*
X27503119Y19367500D01*
X27604721D01*
X27553922Y19265900D01*
Y19286220D02*
X27523441Y19347180D01*
X27584399D01*
X27553922Y19286220D01*
X26923999Y18920461D02*
X26873199Y19022060D01*
X26974799D01*
X26923999Y18920461D01*
Y18940781D02*
X26893521Y19001740D01*
X26954480D01*
X26923999Y18940781D01*
X27023059Y18234660D02*
X26972260Y18336259D01*
X27073859D01*
X27023059Y18234660D01*
Y18254980D02*
X26992581Y18315939D01*
X27053540D01*
X27023059Y18254980D01*
X27188574Y18221960D02*
X27137775Y18323560D01*
X27239374D01*
X27188574Y18221960D01*
Y18242281D02*
X27158093Y18303239D01*
X27219055D01*
X27188574Y18242281D01*
X27188159Y18348959D02*
X27137360Y18450560D01*
X27238959D01*
X27188159Y18348959D01*
Y18369279D02*
X27157681Y18430240D01*
X27218640D01*
X27188159Y18369279D01*
X28059381Y18694400D02*
X28008578Y18796001D01*
X28110181D01*
X28059381Y18694400D01*
Y18714720D02*
X28028900Y18775681D01*
X28089859D01*
X28059381Y18714720D01*
X28369260Y20353020D02*
X28318460Y20454620D01*
X28420059D01*
X28369260Y20353020D01*
Y20373340D02*
X28338779Y20434300D01*
X28399741D01*
X28369260Y20373340D01*
X27063699Y17566640D02*
X27012900Y17668240D01*
X27114499D01*
X27063699Y17566640D01*
Y17586960D02*
X27033221Y17647920D01*
X27094180D01*
X27063699Y17586960D01*
X27142441Y18427699D02*
X27091641Y18529300D01*
X27193240D01*
X27142441Y18427699D01*
Y18448019D02*
X27111960Y18508980D01*
X27172919D01*
X27142441Y18448019D01*
X28625800Y18956020D02*
X28575000Y19057620D01*
X28676599D01*
X28625800Y18956020D01*
Y18976340D02*
X28595319Y19037300D01*
X28656281D01*
X28625800Y18976340D01*
X27533600Y20358099D02*
X27482800Y20459700D01*
X27584399D01*
X27533600Y20358099D01*
Y20378419D02*
X27503119Y20439380D01*
X27564081D01*
X27533600Y20378419D01*
X27525980Y20452080D02*
X27475180Y20553680D01*
X27576779D01*
X27525980Y20452080D01*
Y20472400D02*
X27495499Y20533360D01*
X27556461D01*
X27525980Y20472400D01*
X27376120Y20187920D02*
X27325320Y20289520D01*
X27426920D01*
X27376120Y20187920D01*
Y20208240D02*
X27345639Y20269200D01*
X27406601D01*
X27376120Y20208240D01*
X26659839Y20093941D02*
X26609039Y20195540D01*
X26710641D01*
X26659839Y20093941D01*
Y20114259D02*
X26629361Y20175220D01*
X26690320D01*
X26659839Y20114259D01*
X28981400Y19558000D02*
X28930600Y19659599D01*
X29032199D01*
X28981400Y19558000D01*
Y19578320D02*
X28950919Y19639281D01*
X29011880D01*
X28981400Y19578320D01*
X29489401Y19436079D02*
X29438599Y19537680D01*
X29540201D01*
X29489401Y19436079D01*
Y19456400D02*
X29458920Y19517360D01*
X29519879D01*
X29489401Y19456400D01*
X27233881Y20058380D02*
X27183081Y20159979D01*
X27284680D01*
X27233881Y20058380D01*
Y20078700D02*
X27203400Y20139661D01*
X27264359D01*
X27233881Y20078700D01*
X26601419Y18834100D02*
X26550620Y18935699D01*
X26652219D01*
X26601419Y18834100D01*
Y18854420D02*
X26570941Y18915379D01*
X26631900D01*
X26601419Y18854420D01*
X26649680Y18897600D02*
X26598880Y18999200D01*
X26700479D01*
X26649680Y18897600D01*
Y18917920D02*
X26619199Y18978880D01*
X26680161D01*
X26649680Y18917920D01*
X26893521Y17010381D02*
X26842719Y17111980D01*
X26944321D01*
X26893521Y17010381D01*
Y17030701D02*
X26863040Y17091660D01*
X26923999D01*
X26893521Y17030701D01*
X26974799Y19880580D02*
X26923999Y19982179D01*
X27025601D01*
X26974799Y19880580D01*
Y19900900D02*
X26944321Y19961861D01*
X27005280D01*
X26974799Y19900900D01*
X26555701Y16301720D02*
X26504901Y16403320D01*
X26606500D01*
X26555701Y16301720D01*
Y16322040D02*
X26525220Y16383000D01*
X26586179D01*
X26555701Y16322040D01*
X26499820Y17145000D02*
X26449020Y17246600D01*
X26550620D01*
X26499820Y17145000D01*
Y17165320D02*
X26469339Y17226280D01*
X26530301D01*
X26499820Y17165320D01*
X27800299Y15900400D02*
X27749500Y16002000D01*
X27851099D01*
X27800299Y15900400D01*
Y15920720D02*
X27769821Y15981680D01*
X27830780D01*
X27800299Y15920720D01*
X27005280Y19712939D02*
X26954480Y19814540D01*
X27056079D01*
X27005280Y19712939D01*
Y19733260D02*
X26974799Y19794220D01*
X27035760D01*
X27005280Y19733260D01*
X28290521Y20581619D02*
X28239719Y20683220D01*
X28341321D01*
X28290521Y20581619D01*
Y20601939D02*
X28260040Y20662900D01*
X28320999D01*
X28290521Y20601939D01*
X29428439Y17518381D02*
X29377640Y17619980D01*
X29479239D01*
X29428439Y17518381D01*
Y17538699D02*
X29397961Y17599660D01*
X29458920D01*
X29428439Y17538699D01*
X28948380Y17320261D02*
X28897580Y17421860D01*
X28999179D01*
X28948380Y17320261D01*
Y17340581D02*
X28917899Y17401540D01*
X28978860D01*
X28948380Y17340581D01*
X28595319Y16832581D02*
X28544519Y16934180D01*
X28646121D01*
X28595319Y16832581D01*
Y16852901D02*
X28564841Y16913860D01*
X28625800D01*
X28595319Y16852901D01*
X28544519Y17043401D02*
X28493719Y17145000D01*
X28595319D01*
X28544519Y17043401D01*
Y17063721D02*
X28514041Y17124680D01*
X28575000D01*
X28544519Y17063721D01*
X28895041Y17693640D02*
X28844241Y17795239D01*
X28945840D01*
X28895041Y17693640D01*
Y17713960D02*
X28864560Y17774921D01*
X28925519D01*
X28895041Y17713960D01*
X27482800Y17345660D02*
X27432001Y17447260D01*
X27533600D01*
X27482800Y17345660D01*
Y17365981D02*
X27452319Y17426939D01*
X27513281D01*
X27482800Y17365981D01*
X28064459Y17327879D02*
X28013660Y17429480D01*
X28115259D01*
X28064459Y17327879D01*
Y17348199D02*
X28033981Y17409160D01*
X28094940D01*
X28064459Y17348199D01*
X29850079Y17696181D02*
X29799280Y17797780D01*
X29900879D01*
X29850079Y17696181D01*
Y17716499D02*
X29819601Y17777460D01*
X29880560D01*
X29850079Y17716499D01*
X29712921Y17320261D02*
X29662119Y17421860D01*
X29763721D01*
X29712921Y17320261D01*
Y17340581D02*
X29682440Y17401540D01*
X29743399D01*
X29712921Y17340581D01*
X30307281Y17365981D02*
X30256479Y17467580D01*
X30358081D01*
X30307281Y17365981D01*
Y17386301D02*
X30276801Y17447260D01*
X30337759D01*
X30307281Y17386301D01*
X28996640Y19055080D02*
X28945840Y19156680D01*
X29047440D01*
X28996640Y19055080D01*
Y19075400D02*
X28966159Y19136360D01*
X29027121D01*
X28996640Y19075400D01*
X29293820Y19189700D02*
X29243021Y19291299D01*
X29344620D01*
X29293820Y19189700D01*
Y19210020D02*
X29263339Y19270979D01*
X29324301D01*
X29293820Y19210020D01*
X28719781Y18879820D02*
X28668979Y18981419D01*
X28770581D01*
X28719781Y18879820D01*
Y18900140D02*
X28689301Y18961099D01*
X28750259D01*
X28719781Y18900140D01*
X27518359Y19039841D02*
X27467560Y19141440D01*
X27569159D01*
X27518359Y19039841D01*
Y19060159D02*
X27487881Y19121120D01*
X27548840D01*
X27518359Y19060159D01*
X27556461Y17599660D02*
X27505661Y17701260D01*
X27607260D01*
X27556461Y17599660D01*
Y17619980D02*
X27525980Y17680940D01*
X27586938D01*
X27556461Y17619980D01*
X29207458Y17673320D02*
X29156659Y17774921D01*
X29258261D01*
X29207458Y17673320D01*
Y17693640D02*
X29176981Y17754601D01*
X29237939D01*
X29207458Y17693640D01*
X29672281Y17673320D02*
X29621481Y17774921D01*
X29723080D01*
X29672281Y17673320D01*
Y17693640D02*
X29641800Y17754601D01*
X29702759D01*
X29672281Y17693640D01*
X28709619Y18166080D02*
X28658820Y18267680D01*
X28760419D01*
X28709619Y18166080D01*
Y18186400D02*
X28679141Y18247360D01*
X28740100D01*
X28709619Y18186400D01*
X28994101Y18055350D02*
X28943301Y18156950D01*
X29044901D01*
X28994101Y18055350D01*
Y18075670D02*
X28963620Y18136630D01*
X29024579D01*
X28994101Y18075670D01*
X29090619Y17901920D02*
X29039819Y18003520D01*
X29141422D01*
X29090619Y17901920D01*
Y17922240D02*
X29060141Y17983200D01*
X29121100D01*
X29090619Y17922240D01*
X27609799Y18836639D02*
X27559000Y18938240D01*
X27660599D01*
X27609799Y18836639D01*
Y18856960D02*
X27579321Y18917920D01*
X27640280D01*
X27609799Y18856960D01*
X27571701Y18973801D02*
X27520901Y19075400D01*
X27622501D01*
X27571701Y18973801D01*
Y18994119D02*
X27541220Y19055080D01*
X27602179D01*
X27571701Y18994119D01*
X27515820Y16456660D02*
X27465021Y16558260D01*
X27566620D01*
X27515820Y16456660D01*
Y16476981D02*
X27485339Y16537939D01*
X27546301D01*
X27515820Y16476981D01*
X28059381Y17477740D02*
X28008578Y17579340D01*
X28110181D01*
X28059381Y17477740D01*
Y17498061D02*
X28028900Y17559019D01*
X28089859D01*
X28059381Y17498061D01*
X27640280Y18061940D02*
X27589481Y18163541D01*
X27691080D01*
X27640280Y18061940D01*
Y18082260D02*
X27609799Y18143221D01*
X27670761D01*
X27640280Y18082260D01*
X27625040Y16398241D02*
X27574240Y16499840D01*
X27675839D01*
X27625040Y16398241D01*
Y16418559D02*
X27594559Y16479520D01*
X27655521D01*
X27625040Y16418559D01*
X27767279Y18933160D02*
X27716479Y19034760D01*
X27818079D01*
X27767279Y18933160D01*
Y18953481D02*
X27736801Y19014439D01*
X27797760D01*
X27767279Y18953481D01*
X28455621Y17254221D02*
X28404819Y17355820D01*
X28506421D01*
X28455621Y17254221D01*
Y17274541D02*
X28425140Y17335500D01*
X28486099D01*
X28455621Y17274541D01*
X27927301Y17993359D02*
X27876501Y18094960D01*
X27978101D01*
X27927301Y17993359D01*
Y18013680D02*
X27896820Y18074640D01*
X27957779D01*
X27927301Y18013680D01*
X26939240Y16751300D02*
X26888440Y16852901D01*
X26990039D01*
X26939240Y16751300D01*
Y16771620D02*
X26908759Y16832581D01*
X26969720D01*
X26939240Y16771620D01*
X27086560Y16769080D02*
X27035760Y16870680D01*
X27137360D01*
X27086560Y16769080D01*
Y16789400D02*
X27056079Y16850360D01*
X27117041D01*
X27086560Y16789400D01*
X26591260Y17406619D02*
X26540460Y17508220D01*
X26642059D01*
X26591260Y17406619D01*
Y17426939D02*
X26560779Y17487900D01*
X26621741D01*
X26591260Y17426939D01*
X26588721Y17724120D02*
X26537921Y17825720D01*
X26639520D01*
X26588721Y17724120D01*
Y17744440D02*
X26558240Y17805400D01*
X26619199D01*
X26588721Y17744440D01*
X27129739Y17891760D02*
X27078940Y17993359D01*
X27180539D01*
X27129739Y17891760D01*
Y17912080D02*
X27099261Y17973039D01*
X27160220D01*
X27129739Y17912080D01*
X27180539Y16347440D02*
X27129739Y16449040D01*
X27231339D01*
X27180539Y16347440D01*
Y16367760D02*
X27150061Y16428720D01*
X27211020D01*
X27180539Y16367760D01*
Y16238220D02*
X27129739Y16339819D01*
X27231339D01*
X27180539Y16238220D01*
Y16258540D02*
X27150061Y16319501D01*
X27211020D01*
X27180539Y16258540D01*
X27185620Y17035780D02*
X27134821Y17137379D01*
X27236420D01*
X27185620Y17035780D01*
Y17056100D02*
X27155139Y17117059D01*
X27216101D01*
X27185620Y17056100D01*
X27170380Y17114520D02*
X27119580Y17216119D01*
X27221179D01*
X27170380Y17114520D01*
Y17134840D02*
X27139899Y17195799D01*
X27200861D01*
X27170380Y17134840D01*
X26962100Y17660620D02*
X26911301Y17762219D01*
X27012900D01*
X26962100Y17660620D01*
Y17680940D02*
X26931619Y17741901D01*
X26992581D01*
X26962100Y17680940D01*
X26903680Y17581880D02*
X26852881Y17683479D01*
X26954480D01*
X26903680Y17581880D01*
Y17602200D02*
X26873199Y17663161D01*
X26934161D01*
X26903680Y17602200D01*
X26504901Y18216879D02*
X26454099Y18318480D01*
X26555701D01*
X26504901Y18216879D01*
Y18237199D02*
X26474420Y18298160D01*
X26535379D01*
X26504901Y18237199D01*
X26337259Y17261839D02*
X26286459Y17363440D01*
X26388062D01*
X26337259Y17261839D01*
Y17282159D02*
X26306781Y17343120D01*
X26367740D01*
X26337259Y17282159D01*
X14988541Y21224240D02*
X14937740Y21325841D01*
X15039340D01*
X14988541Y21224240D01*
Y21244560D02*
X14958060Y21305521D01*
X15019020D01*
X14988541Y21244560D01*
X15092680Y21198840D02*
X15041879Y21300439D01*
X15143480D01*
X15092680Y21198840D01*
Y21219160D02*
X15062199Y21280119D01*
X15123160D01*
X15092680Y21219160D01*
X13075920Y21818600D02*
X13025121Y21920200D01*
X13126720D01*
X13075920Y21818600D01*
Y21838921D02*
X13045441Y21899879D01*
X13106400D01*
X13075920Y21838921D01*
X13487399Y21978619D02*
X13436600Y22080220D01*
X13538200D01*
X13487399Y21978619D01*
Y21998940D02*
X13456920Y22059900D01*
X13517880D01*
X13487399Y21998940D01*
X13472160Y21897340D02*
X13421359Y21998940D01*
X13522960D01*
X13472160Y21897340D01*
Y21917661D02*
X13441679Y21978619D01*
X13502640D01*
X13472160Y21917661D01*
X16578580Y21455380D02*
X16527780Y21556979D01*
X16629379D01*
X16578580Y21455380D01*
Y21475700D02*
X16548100Y21536659D01*
X16609061D01*
X16578580Y21475700D01*
X14170660Y22720300D02*
X14119859Y22821899D01*
X14221460D01*
X14170660Y22720300D01*
Y22740620D02*
X14140179Y22801579D01*
X14201140D01*
X14170660Y22740620D01*
X14172032Y22800412D02*
X14121233Y22902013D01*
X14222832D01*
X14172032Y22800412D01*
Y22820732D02*
X14141553Y22881693D01*
X14202512D01*
X14172032Y22820732D01*
X19240500Y22326601D02*
Y22301199D01*
X19291299D01*
Y22326601D01*
X19316701D01*
Y22377400D01*
X19291299D01*
Y22402800D01*
X19240500D01*
Y22377400D01*
X19215100D01*
Y22326601D01*
X19240500D01*
X19250661Y22336760D02*
Y22321519D01*
X19281140D01*
Y22336760D01*
X19296381D01*
Y22367239D01*
X19281140D01*
Y22382480D01*
X19250661D01*
Y22367239D01*
X19235420D01*
Y22336760D01*
X19250661D01*
X18788380Y22265640D02*
Y22240240D01*
X18839180D01*
Y22265640D01*
X18864580D01*
Y22316440D01*
X18839180D01*
Y22341840D01*
X18788380D01*
Y22316440D01*
X18762981D01*
Y22265640D01*
X18788380D01*
X18798540Y22275800D02*
Y22260561D01*
X18829021D01*
Y22275800D01*
X18844260D01*
Y22306281D01*
X18829021D01*
Y22321519D01*
X18798540D01*
Y22306281D01*
X18783299D01*
Y22275800D01*
X18798540D01*
X19001740Y22410420D02*
Y22385020D01*
X19052541D01*
Y22410420D01*
X19077940D01*
Y22461220D01*
X19052541D01*
Y22486620D01*
X19001740D01*
Y22461220D01*
X18976340D01*
Y22410420D01*
X19001740D01*
X19011900Y22420580D02*
Y22405341D01*
X19042380D01*
Y22420580D01*
X19057620D01*
Y22451060D01*
X19042380D01*
Y22466299D01*
X19011900D01*
Y22451060D01*
X18996660D01*
Y22420580D01*
X19011900D01*
X18704559Y22374860D02*
Y22349460D01*
X18755360D01*
Y22374860D01*
X18780760D01*
Y22425661D01*
X18755360D01*
Y22451060D01*
X18704559D01*
Y22425661D01*
X18679160D01*
Y22374860D01*
X18704559D01*
X18714720Y22385020D02*
Y22369780D01*
X18745200D01*
Y22385020D01*
X18760440D01*
Y22415500D01*
X18745200D01*
Y22430740D01*
X18714720D01*
Y22415500D01*
X18699480D01*
Y22385020D01*
X18714720D01*
X19164301Y22440900D02*
Y22415500D01*
X19215100D01*
Y22440900D01*
X19240500D01*
Y22491701D01*
X19215100D01*
Y22517101D01*
X19164301D01*
Y22491701D01*
X19138901D01*
Y22440900D01*
X19164301D01*
X19174460Y22451060D02*
Y22435820D01*
X19204939D01*
Y22451060D01*
X19220180D01*
Y22481540D01*
X19204939D01*
Y22496780D01*
X19174460D01*
Y22481540D01*
X19159219D01*
Y22451060D01*
X19174460D01*
X18806160Y22456140D02*
Y22430740D01*
X18856960D01*
Y22456140D01*
X18882359D01*
Y22506940D01*
X18856960D01*
Y22532339D01*
X18806160D01*
Y22506940D01*
X18780760D01*
Y22456140D01*
X18806160D01*
X18816319Y22466299D02*
Y22451060D01*
X18846800D01*
Y22466299D01*
X18862041D01*
Y22496780D01*
X18846800D01*
Y22512019D01*
X18816319D01*
Y22496780D01*
X18801080D01*
Y22466299D01*
X18816319D01*
X19471640Y22316440D02*
Y22291040D01*
X19522440D01*
Y22316440D01*
X19547839D01*
Y22367239D01*
X19522440D01*
Y22392641D01*
X19471640D01*
Y22367239D01*
X19446240D01*
Y22316440D01*
X19471640D01*
X19481799Y22326601D02*
Y22311360D01*
X19512280D01*
Y22326601D01*
X19527521D01*
Y22357080D01*
X19512280D01*
Y22372321D01*
X19481799D01*
Y22357080D01*
X19466560D01*
Y22326601D01*
X19481799D01*
X18882359Y22362160D02*
Y22336760D01*
X18933160D01*
Y22362160D01*
X18958560D01*
Y22412959D01*
X18933160D01*
Y22438361D01*
X18882359D01*
Y22412959D01*
X18856960D01*
Y22362160D01*
X18882359D01*
X18892520Y22372321D02*
Y22357080D01*
X18923000D01*
Y22372321D01*
X18938240D01*
Y22402800D01*
X18923000D01*
Y22418040D01*
X18892520D01*
Y22402800D01*
X18877280D01*
Y22372321D01*
X18892520D01*
X19103340Y22336760D02*
Y22311360D01*
X19154140D01*
Y22336760D01*
X19179539D01*
Y22387560D01*
X19154140D01*
Y22412959D01*
X19103340D01*
Y22387560D01*
X19077940D01*
Y22336760D01*
X19103340D01*
X19113499Y22346919D02*
Y22331680D01*
X19143980D01*
Y22346919D01*
X19159219D01*
Y22377400D01*
X19143980D01*
Y22392641D01*
X19113499D01*
Y22377400D01*
X19098260D01*
Y22346919D01*
X19113499D01*
X18981419Y22278340D02*
Y22252940D01*
X19032220D01*
Y22278340D01*
X19057620D01*
Y22329140D01*
X19032220D01*
Y22354539D01*
X18981419D01*
Y22329140D01*
X18956020D01*
Y22278340D01*
X18981419D01*
X18991580Y22288499D02*
Y22273260D01*
X19022060D01*
Y22288499D01*
X19037300D01*
Y22318980D01*
X19022060D01*
Y22334219D01*
X18991580D01*
Y22318980D01*
X18976340D01*
Y22288499D01*
X18991580D01*
X11221720Y18867120D02*
X11247120Y18892520D01*
X11272520D01*
X11247120Y18917920D01*
X11272520Y18943320D01*
X11247120D01*
X11221720Y18968719D01*
X11196320Y18943320D01*
X11170920D01*
X11196320Y18917920D01*
X11170920Y18892520D01*
X11196320D01*
X11221720Y18867120D01*
Y18887440D02*
X11236960Y18902679D01*
X11252200D01*
X11236960Y18917920D01*
X11252200Y18933160D01*
X11236960D01*
X11221720Y18948399D01*
X11206480Y18933160D01*
X11191240D01*
X11206480Y18917920D01*
X11191240Y18902679D01*
X11206480D01*
X11221720Y18887440D01*
X27829922Y20851321D02*
X27779123Y20952921D01*
X27880722D01*
X27829922Y20851321D01*
Y20871642D02*
X27799442Y20932600D01*
X27860403D01*
X27829922Y20871642D01*
X27005280Y20457159D02*
X26954480Y20558760D01*
X27056079D01*
X27005280Y20457159D01*
Y20477480D02*
X26974799Y20538440D01*
X27035760D01*
X27005280Y20477480D01*
X27023059Y20591780D02*
X26972260Y20693381D01*
X27073859D01*
X27023059Y20591780D01*
Y20612100D02*
X26992581Y20673061D01*
X27053540D01*
X27023059Y20612100D01*
X26984961Y20716240D02*
X26934161Y20817841D01*
X27035760D01*
X26984961Y20716240D01*
Y20736560D02*
X26954480Y20797520D01*
X27015439D01*
X26984961Y20736560D01*
X27848560Y19875500D02*
X27797760Y19977100D01*
X27899359D01*
X27848560Y19875500D01*
Y19895821D02*
X27818079Y19956779D01*
X27879041D01*
X27848560Y19895821D01*
X27619958Y19199860D02*
X27569159Y19301460D01*
X27670761D01*
X27619958Y19199860D01*
Y19220180D02*
X27589481Y19281140D01*
X27650439D01*
X27619958Y19220180D01*
X27579321Y16703040D02*
X27528519Y16804640D01*
X27630121D01*
X27579321Y16703040D01*
Y16723360D02*
X27548840Y16784320D01*
X27609799D01*
X27579321Y16723360D01*
X26644601Y16114354D02*
X26593799Y16215955D01*
X26695401D01*
X26644601Y16114354D01*
Y16134674D02*
X26614120Y16195634D01*
X26675079D01*
X26644601Y16134674D01*
X26624280Y16964661D02*
X26573480Y17066260D01*
X26675079D01*
X26624280Y16964661D01*
Y16984979D02*
X26593799Y17045940D01*
X26654761D01*
X26624280Y16984979D01*
X26659839Y17835880D02*
X26609039Y17937480D01*
X26710641D01*
X26659839Y17835880D01*
Y17856200D02*
X26629361Y17917160D01*
X26690320D01*
X26659839Y17856200D01*
X27432001Y17594580D02*
X27381201Y17696181D01*
X27482800D01*
X27432001Y17594580D01*
Y17614900D02*
X27401520Y17675861D01*
X27462479D01*
X27432001Y17614900D01*
X26603961Y18072099D02*
X26553159Y18173700D01*
X26654761D01*
X26603961Y18072099D01*
Y18092419D02*
X26573480Y18153380D01*
X26634439D01*
X26603961Y18092419D01*
X26921460Y18727420D02*
X26870660Y18829021D01*
X26972260D01*
X26921460Y18727420D01*
Y18747740D02*
X26890979Y18808701D01*
X26951941D01*
X26921460Y18747740D01*
X28470859Y20116800D02*
X28420059Y20218401D01*
X28521661D01*
X28470859Y20116800D01*
Y20137120D02*
X28440381Y20198080D01*
X28501340D01*
X28470859Y20137120D01*
X28798520Y20126961D02*
X28747720Y20228560D01*
X28849319D01*
X28798520Y20126961D01*
Y20147279D02*
X28768039Y20208240D01*
X28829001D01*
X28798520Y20147279D01*
X28029510Y18862138D02*
X27978708Y18963739D01*
X28080310D01*
X28029510Y18862138D01*
Y18882458D02*
X27999030Y18943419D01*
X28059988D01*
X28029510Y18882458D01*
X27495499Y18742661D02*
X27444699Y18844260D01*
X27546301D01*
X27495499Y18742661D01*
Y18762981D02*
X27465021Y18823940D01*
X27525980D01*
X27495499Y18762981D01*
X27162076Y18938925D02*
X27111276Y19040524D01*
X27212875D01*
X27162076Y18938925D01*
Y18959245D02*
X27131595Y19020206D01*
X27192554D01*
X27162076Y18959245D01*
X26624280Y18623280D02*
X26573480Y18724879D01*
X26675079D01*
X26624280Y18623280D01*
Y18643600D02*
X26593799Y18704559D01*
X26654761D01*
X26624280Y18643600D01*
X27829184Y20147942D02*
X27778384Y20249541D01*
X27879984D01*
X27829184Y20147942D01*
Y20168262D02*
X27798703Y20229221D01*
X27859665D01*
X27829184Y20168262D01*
X26385519Y19715480D02*
X26334720Y19817081D01*
X26436319D01*
X26385519Y19715480D01*
Y19735800D02*
X26355042Y19796761D01*
X26416000D01*
X26385519Y19735800D01*
X21015961Y24193500D02*
X21041360D01*
X21066760Y24218900D01*
X21092160Y24193500D01*
X21117560D01*
Y24218900D01*
X21092160Y24244299D01*
X21117560Y24269701D01*
Y24295100D01*
X21092160D01*
X21066760Y24269701D01*
X21041360Y24295100D01*
X21015961D01*
Y24269701D01*
X21041360Y24244299D01*
X21015961Y24218900D01*
Y24193500D01*
X21036279Y24213820D02*
X21051520D01*
X21066760Y24229060D01*
X21082001Y24213820D01*
X21097240D01*
Y24229060D01*
X21082001Y24244299D01*
X21097240Y24259540D01*
Y24274780D01*
X21082001D01*
X21066760Y24259540D01*
X21051520Y24274780D01*
X21036279D01*
Y24259540D01*
X21051520Y24244299D01*
X21036279Y24229060D01*
Y24213820D01*
X26397534Y20300365D02*
X26346735Y20401965D01*
X26448334D01*
X26397534Y20300365D01*
Y20320685D02*
X26367056Y20381645D01*
X26428015D01*
X26397534Y20320685D01*
X26418539Y19252606D02*
X26367740Y19354205D01*
X26469339D01*
X26418539Y19252606D01*
Y19272926D02*
X26388062Y19333887D01*
X26449020D01*
X26418539Y19272926D01*
X26317117Y16406100D02*
X26266318Y16507700D01*
X26367917D01*
X26317117Y16406100D01*
Y16426421D02*
X26286636Y16487379D01*
X26347598D01*
X26317117Y16426421D01*
X26258521Y17386301D02*
X26207721Y17487900D01*
X26309320D01*
X26258521Y17386301D01*
Y17406619D02*
X26228040Y17467580D01*
X26289001D01*
X26258521Y17406619D01*
X27152600Y17548860D02*
X27101801Y17650459D01*
X27203400D01*
X27152600Y17548860D01*
Y17569180D02*
X27122119Y17630141D01*
X27183081D01*
X27152600Y17569180D01*
X26537921Y18780760D02*
X26487119Y18882359D01*
X26588721D01*
X26537921Y18780760D01*
Y18801080D02*
X26507440Y18862041D01*
X26568399D01*
X26537921Y18801080D01*
X26416000Y18724879D02*
X26365201Y18826480D01*
X26466800D01*
X26416000Y18724879D01*
Y18745200D02*
X26385519Y18806160D01*
X26446481D01*
X26416000Y18745200D01*
X26245358Y16053658D02*
X26194559Y16155258D01*
X26296158D01*
X26245358Y16053658D01*
Y16073978D02*
X26214880Y16134938D01*
X26275839D01*
X26245358Y16073978D01*
X26708099Y16670020D02*
X26657300Y16771620D01*
X26758899D01*
X26708099Y16670020D01*
Y16690340D02*
X26677621Y16751300D01*
X26738580D01*
X26708099Y16690340D01*
X23576280Y17650459D02*
X23525481Y17752060D01*
X23627080D01*
X23576280Y17650459D01*
Y17670779D02*
X23545799Y17731740D01*
X23606760D01*
X23576280Y17670779D01*
X23809959Y17807941D02*
X23759160Y17909540D01*
X23860760D01*
X23809959Y17807941D01*
Y17828259D02*
X23779480Y17889220D01*
X23840440D01*
X23809959Y17828259D01*
X24249380Y17873981D02*
X24198579Y17975580D01*
X24300180D01*
X24249380Y17873981D01*
Y17894299D02*
X24218900Y17955260D01*
X24279860D01*
X24249380Y17894299D01*
X24551640Y17947639D02*
X24500841Y18049240D01*
X24602440D01*
X24551640Y17947639D01*
Y17967960D02*
X24521159Y18028920D01*
X24582120D01*
X24551640Y17967960D01*
X26603961Y17084039D02*
X26553159Y17185640D01*
X26654761D01*
X26603961Y17084039D01*
Y17104359D02*
X26573480Y17165320D01*
X26634439D01*
X26603961Y17104359D01*
X26492200Y17825720D02*
X26441400Y17927319D01*
X26542999D01*
X26492200Y17825720D01*
Y17846040D02*
X26461719Y17907001D01*
X26522681D01*
X26492200Y17846040D01*
X14650720Y21625560D02*
X14599921Y21727161D01*
X14701520D01*
X14650720Y21625560D01*
Y21645880D02*
X14620239Y21706841D01*
X14681200D01*
X14650720Y21645880D01*
D57*
X20083780Y20393660D02*
G03*
X20083780Y20393660I-30480J0D01*
G01*
X19387820Y20812759D02*
G03*
X19387820Y20812759I-30480J0D01*
G01*
X19367500Y20142200D02*
G03*
X19367500Y20142200I-30480J0D01*
G01*
X11150600Y22890480D02*
G03*
X11150600Y22890480I-30480J0D01*
G01*
X21021040Y20888960D02*
G03*
X21021040Y20888960I-30480J0D01*
G01*
X20241260Y20883881D02*
G03*
X20241260Y20883881I-30480J0D01*
G01*
X18440401Y20292059D02*
G03*
X18440401Y20292059I-30480J0D01*
G01*
X18346420Y20380960D02*
G03*
X18346420Y20380960I-30480J0D01*
G01*
X17208501Y19108420D02*
G03*
X17208501Y19108420I-30480J0D01*
G01*
X17076421Y19253200D02*
G03*
X17076421Y19253200I-30480J0D01*
G01*
X16687801Y18587720D02*
G03*
X16687801Y18587720I-30480J0D01*
G01*
X16573500Y18750281D02*
G03*
X16573500Y18750281I-30480J0D01*
G01*
X11396980Y16878300D02*
G03*
X11396980Y16878300I-30480J0D01*
G01*
Y17434560D02*
G03*
X11396980Y17434560I-30480J0D01*
G01*
X18634081Y20988660D02*
G03*
X18634081Y20988660I-30480J0D01*
G01*
X17688560Y20505420D02*
G03*
X17688560Y20505420I-30480J0D01*
G01*
X16835120Y19806920D02*
G03*
X16835120Y19806920I-30480J0D01*
G01*
X16230600Y19202400D02*
G03*
X16230600Y19202400I-30480J0D01*
G01*
X11683651Y19708209D02*
G03*
X11683651Y19708209I-30480J0D01*
G01*
X12070429D02*
G03*
X12070429Y19708209I-30480J0D01*
G01*
X19324319Y21178520D02*
G03*
X19324319Y21178520I-30480J0D01*
G01*
X19265260Y21294720D02*
G03*
X19265260Y21294720I-30480J0D01*
G01*
X24925020Y23550880D02*
G03*
X24925020Y23550880I-30480J0D01*
G01*
X24681180Y23276559D02*
G03*
X24681180Y23276559I-30480J0D01*
G01*
X15313660Y20909280D02*
G03*
X15313660Y20909280I-30480J0D01*
G01*
X15186659Y20914360D02*
G03*
X15186659Y20914360I-30480J0D01*
G01*
X24823421Y22092920D02*
G03*
X24823421Y22092920I-30480J0D01*
G01*
X24813260Y21783040D02*
G03*
X24813260Y21783040I-30480J0D01*
G01*
X29994861Y23632159D02*
G03*
X29994861Y23632159I-30480J0D01*
G01*
X30167581Y23550880D02*
G03*
X30167581Y23550880I-30480J0D01*
G01*
X29829761D02*
G03*
X29829761Y23550880I-30480J0D01*
G01*
X29880560Y23672800D02*
G03*
X29880560Y23672800I-30480J0D01*
G01*
X30121860Y23665179D02*
G03*
X30121860Y23665179I-30480J0D01*
G01*
X29758640Y23660100D02*
G03*
X29758640Y23660100I-30480J0D01*
G01*
X29992319Y23741380D02*
G03*
X29992319Y23741380I-30480J0D01*
G01*
X30233621Y23639780D02*
G03*
X30233621Y23639780I-30480J0D01*
G01*
X29992319Y21704300D02*
G03*
X29992319Y21704300I-30480J0D01*
G01*
X29857700Y21757640D02*
G03*
X29857700Y21757640I-30480J0D01*
G01*
X30129480Y21752560D02*
G03*
X30129480Y21752560I-30480J0D01*
G01*
X30091379Y21638260D02*
G03*
X30091379Y21638260I-30480J0D01*
G01*
X29885641Y21650960D02*
G03*
X29885641Y21650960I-30480J0D01*
G01*
X30198059Y21859241D02*
G03*
X30198059Y21859241I-30480J0D01*
G01*
X29784039Y21869400D02*
G03*
X29784039Y21869400I-30480J0D01*
G01*
X29745941Y21706841D02*
G03*
X29745941Y21706841I-30480J0D01*
G01*
X30233621Y21696680D02*
G03*
X30233621Y21696680I-30480J0D01*
G01*
X19208099Y20908659D02*
G03*
X19208099Y20908659I-30480J0D01*
G01*
X20099020Y21135339D02*
G03*
X20099020Y21135339I-30480J0D01*
G01*
X19606261Y21460460D02*
G03*
X19606261Y21460460I-30480J0D01*
G01*
D117*
X10866080Y18482520D02*
G03*
X10866080Y18482520I-50800J0D01*
G01*
Y18032520D02*
G03*
X10866080Y18032520I-50800J0D01*
G01*
X20104100Y20393660D02*
G03*
X20104100Y20393660I-50800J0D01*
G01*
X19408141Y20812759D02*
G03*
X19408141Y20812759I-50800J0D01*
G01*
X19387820Y20142200D02*
G03*
X19387820Y20142200I-50800J0D01*
G01*
X11170920Y22890480D02*
G03*
X11170920Y22890480I-50800J0D01*
G01*
X21041360Y20888960D02*
G03*
X21041360Y20888960I-50800J0D01*
G01*
X20261580Y20883881D02*
G03*
X20261580Y20883881I-50800J0D01*
G01*
X18460719Y20292059D02*
G03*
X18460719Y20292059I-50800J0D01*
G01*
X18366740Y20380960D02*
G03*
X18366740Y20380960I-50800J0D01*
G01*
X17228819Y19108420D02*
G03*
X17228819Y19108420I-50800J0D01*
G01*
X17096741Y19253200D02*
G03*
X17096741Y19253200I-50800J0D01*
G01*
X16708121Y18587720D02*
G03*
X16708121Y18587720I-50800J0D01*
G01*
X16593820Y18750281D02*
G03*
X16593820Y18750281I-50800J0D01*
G01*
X11417300Y16878300D02*
G03*
X11417300Y16878300I-50800J0D01*
G01*
Y17434560D02*
G03*
X11417300Y17434560I-50800J0D01*
G01*
X18654401Y20988660D02*
G03*
X18654401Y20988660I-50800J0D01*
G01*
X17708881Y20505420D02*
G03*
X17708881Y20505420I-50800J0D01*
G01*
X16855440Y19806920D02*
G03*
X16855440Y19806920I-50800J0D01*
G01*
X16250920Y19202400D02*
G03*
X16250920Y19202400I-50800J0D01*
G01*
X11703971Y19708209D02*
G03*
X11703971Y19708209I-50800J0D01*
G01*
X12090749D02*
G03*
X12090749Y19708209I-50800J0D01*
G01*
X19344640Y21178520D02*
G03*
X19344640Y21178520I-50800J0D01*
G01*
X19285580Y21294720D02*
G03*
X19285580Y21294720I-50800J0D01*
G01*
X24945340Y23550880D02*
G03*
X24945340Y23550880I-50800J0D01*
G01*
X24701500Y23276559D02*
G03*
X24701500Y23276559I-50800J0D01*
G01*
X15333980Y20909280D02*
G03*
X15333980Y20909280I-50800J0D01*
G01*
X15206979Y20914360D02*
G03*
X15206979Y20914360I-50800J0D01*
G01*
X24843739Y22092920D02*
G03*
X24843739Y22092920I-50800J0D01*
G01*
X24833580Y21783040D02*
G03*
X24833580Y21783040I-50800J0D01*
G01*
X30015179Y23632159D02*
G03*
X30015179Y23632159I-50800J0D01*
G01*
X30187900Y23550880D02*
G03*
X30187900Y23550880I-50800J0D01*
G01*
X29850079D02*
G03*
X29850079Y23550880I-50800J0D01*
G01*
X29900879Y23672800D02*
G03*
X29900879Y23672800I-50800J0D01*
G01*
X30142181Y23665179D02*
G03*
X30142181Y23665179I-50800J0D01*
G01*
X29778961Y23660100D02*
G03*
X29778961Y23660100I-50800J0D01*
G01*
X30012640Y23741380D02*
G03*
X30012640Y23741380I-50800J0D01*
G01*
X30253940Y23639780D02*
G03*
X30253940Y23639780I-50800J0D01*
G01*
X30012640Y21704300D02*
G03*
X30012640Y21704300I-50800J0D01*
G01*
X29878021Y21757640D02*
G03*
X29878021Y21757640I-50800J0D01*
G01*
X30149799Y21752560D02*
G03*
X30149799Y21752560I-50800J0D01*
G01*
X30111700Y21638260D02*
G03*
X30111700Y21638260I-50800J0D01*
G01*
X29905960Y21650960D02*
G03*
X29905960Y21650960I-50800J0D01*
G01*
X30218381Y21859241D02*
G03*
X30218381Y21859241I-50800J0D01*
G01*
X29804361Y21869400D02*
G03*
X29804361Y21869400I-50800J0D01*
G01*
X29766260Y21706841D02*
G03*
X29766260Y21706841I-50800J0D01*
G01*
X30253940Y21696680D02*
G03*
X30253940Y21696680I-50800J0D01*
G01*
X19228419Y20908659D02*
G03*
X19228419Y20908659I-50800J0D01*
G01*
X20119341Y21135339D02*
G03*
X20119341Y21135339I-50800J0D01*
G01*
X19626579Y21460460D02*
G03*
X19626579Y21460460I-50800J0D01*
G01*
%TF.MD5,9294372c87d8e7ca894d453c3ddc350c*%
M02*
