G04 Layer_Color=8388736*
%FSLAX45Y45*%
%MOMM*%
%TF.FileFunction,Soldermask,Top*%
%TF.Part,Single*%
G01*
G75*
%TA.AperFunction,ViaPad*%
%ADD49C,1.01600*%
%TA.AperFunction,SMDPad,CuDef*%
%ADD63R,2.36160X2.26160*%
%ADD64R,2.40160X5.70160*%
%ADD65R,1.00160X0.90160*%
%ADD66R,1.57480X0.66040*%
%ADD67R,1.00160X0.80160*%
%ADD68R,0.80160X1.00160*%
%ADD69R,0.90160X2.70160*%
%ADD70R,1.42240X0.45720*%
%ADD71O,1.75160X0.65160*%
%ADD72O,0.65160X1.75160*%
%ADD73R,0.90160X1.00160*%
%ADD74R,0.81280X2.10820*%
%ADD75R,1.50165X3.10159*%
%ADD76R,2.26060X2.84460*%
%ADD77R,3.90160X2.10160*%
%ADD78R,1.60160X2.10160*%
%ADD79O,1.96000X0.45130*%
%ADD80O,0.45130X1.96000*%
%ADD81R,2.28160X1.62160*%
%ADD82R,1.65160X3.40160*%
%ADD83R,1.57480X0.45720*%
%TA.AperFunction,ViaPad*%
%ADD84C,1.37160*%
%TA.AperFunction,ComponentPad*%
%ADD85C,1.62560*%
%ADD86C,1.80160*%
%ADD87C,1.70160*%
G04:AMPARAMS|DCode=88|XSize=1.6764mm|YSize=1.6764mm|CornerRadius=0mm|HoleSize=0mm|Usage=FLASHONLY|Rotation=90.000|XOffset=0mm|YOffset=0mm|HoleType=Round|Shape=Octagon|*
%AMOCTAGOND88*
4,1,8,0.41910,0.83820,-0.41910,0.83820,-0.83820,0.41910,-0.83820,-0.41910,-0.41910,-0.83820,0.41910,-0.83820,0.83820,-0.41910,0.83820,0.41910,0.41910,0.83820,0.0*
%
%ADD88OCTAGOND88*%

%ADD89C,2.90160*%
%ADD90C,1.82560*%
%ADD91C,2.80160*%
%TA.AperFunction,ViaPad*%
%ADD92C,1.00160*%
%ADD93C,0.73660*%
%ADD94C,1.87960*%
%ADD95C,1.11760*%
D49*
X19265900Y22352000D02*
D03*
X18813780Y22291040D02*
D03*
X19027139Y22435820D02*
D03*
X18729961Y22400259D02*
D03*
X19189700Y22466299D02*
D03*
X18831560Y22481540D02*
D03*
X19497040Y22341840D02*
D03*
X18907761Y22387560D02*
D03*
X19128740Y22362160D02*
D03*
X19006821Y22303740D02*
D03*
D63*
X28153360Y24613760D02*
D03*
Y24123759D02*
D03*
D64*
X29406421Y24185880D02*
D03*
X30146420D02*
D03*
D65*
X21209000Y20473820D02*
D03*
Y20333820D02*
D03*
X18956020Y20280479D02*
D03*
Y20420480D02*
D03*
X18928081Y23625960D02*
D03*
Y23485960D02*
D03*
X27685999Y19287640D02*
D03*
Y19147639D02*
D03*
X27660599Y18464680D02*
D03*
Y18324680D02*
D03*
X27670761Y16778120D02*
D03*
Y16638120D02*
D03*
X27358340Y17700140D02*
D03*
Y17560139D02*
D03*
X14188440Y23315781D02*
D03*
Y23455780D02*
D03*
X19504660Y20267780D02*
D03*
Y20407780D02*
D03*
D66*
X20454620Y20477480D02*
D03*
Y20350481D02*
D03*
Y20223480D02*
D03*
Y20096480D02*
D03*
X20998180D02*
D03*
Y20223480D02*
D03*
Y20350481D02*
D03*
Y20477480D02*
D03*
D67*
X20159979Y19841141D02*
D03*
Y19991141D02*
D03*
X20162520Y20151019D02*
D03*
Y20301019D02*
D03*
X14132561Y21202580D02*
D03*
Y21352580D02*
D03*
X30469839Y22485420D02*
D03*
Y22335420D02*
D03*
X30698441Y23102640D02*
D03*
Y22952640D02*
D03*
X19357339Y20260240D02*
D03*
Y20410240D02*
D03*
X19812000Y20745380D02*
D03*
Y20895380D02*
D03*
D68*
X19206281Y20032980D02*
D03*
X19056281D02*
D03*
X11022260Y16873219D02*
D03*
X11172260D02*
D03*
X10989240Y17480280D02*
D03*
X11139240D02*
D03*
X11032560Y22903180D02*
D03*
X10882560D02*
D03*
X11022400Y22293581D02*
D03*
X10872400D02*
D03*
X11083360Y21869400D02*
D03*
X10933360D02*
D03*
X11065580Y21267419D02*
D03*
X10915580D02*
D03*
X10951140Y23784560D02*
D03*
X11101140D02*
D03*
X30712341Y23205440D02*
D03*
X30862341D02*
D03*
X14311560Y20921980D02*
D03*
X14461560D02*
D03*
X19955580Y21008340D02*
D03*
X19805580D02*
D03*
X19922420Y20883881D02*
D03*
X20072420D02*
D03*
X20262920Y21254720D02*
D03*
X20112920D02*
D03*
X19955580Y21404581D02*
D03*
X19805580D02*
D03*
D69*
X19281281Y19789140D02*
D03*
X18981281D02*
D03*
X19131281D02*
D03*
D70*
X11828780Y22872701D02*
D03*
Y22809200D02*
D03*
Y22743159D02*
D03*
Y22679660D02*
D03*
X11463020D02*
D03*
Y22743159D02*
D03*
Y22809200D02*
D03*
Y22872701D02*
D03*
D71*
X19614780Y20748660D02*
D03*
Y20828661D02*
D03*
Y20908659D02*
D03*
Y20988660D02*
D03*
Y21068660D02*
D03*
Y21148660D02*
D03*
Y21228661D02*
D03*
Y21308659D02*
D03*
X18774780D02*
D03*
Y21228661D02*
D03*
Y21148660D02*
D03*
Y21068660D02*
D03*
Y20988660D02*
D03*
Y20908659D02*
D03*
Y20828661D02*
D03*
Y20748660D02*
D03*
D72*
X19474780Y21448660D02*
D03*
X19394780D02*
D03*
X19314780D02*
D03*
X19234779D02*
D03*
X19154781D02*
D03*
X19074780D02*
D03*
X18994780D02*
D03*
X18914780D02*
D03*
Y20608659D02*
D03*
X18994780D02*
D03*
X19074780D02*
D03*
X19154781D02*
D03*
X19234779D02*
D03*
X19314780D02*
D03*
X19394780D02*
D03*
X19474780D02*
D03*
D73*
X11344760Y17907001D02*
D03*
X11484760D02*
D03*
X11484760Y18049242D02*
D03*
X11344760D02*
D03*
X13912700Y23296880D02*
D03*
X14052699D02*
D03*
X19950580Y21142960D02*
D03*
X19810580D02*
D03*
X15040759Y23301961D02*
D03*
X14900760D02*
D03*
X27707739Y20901660D02*
D03*
X27567740D02*
D03*
X27748380Y19941541D02*
D03*
X27608380D02*
D03*
D74*
X14282063Y20709789D02*
D03*
X14382063D02*
D03*
X14483664Y20709789D02*
D03*
D75*
X17214952Y23895609D02*
D03*
Y23415601D02*
D03*
X17926152Y23895609D02*
D03*
Y23415601D02*
D03*
D76*
X11846580Y18983960D02*
D03*
X11404580D02*
D03*
D77*
X19159219Y22677080D02*
D03*
D78*
X18929221Y23307080D02*
D03*
X19159219D02*
D03*
X19389220D02*
D03*
D79*
X13850000Y22901199D02*
D03*
Y22851199D02*
D03*
Y22801199D02*
D03*
Y22751199D02*
D03*
Y22701199D02*
D03*
Y22651199D02*
D03*
Y22601199D02*
D03*
Y22551199D02*
D03*
Y22501199D02*
D03*
Y22451199D02*
D03*
Y22401199D02*
D03*
Y22351199D02*
D03*
Y22301199D02*
D03*
Y22251199D02*
D03*
Y22201199D02*
D03*
Y22151199D02*
D03*
Y22101199D02*
D03*
Y22051199D02*
D03*
Y22001199D02*
D03*
Y21951199D02*
D03*
Y21901199D02*
D03*
Y21851199D02*
D03*
Y21801199D02*
D03*
Y21751199D02*
D03*
Y21701199D02*
D03*
X15360001D02*
D03*
Y21751199D02*
D03*
Y21801199D02*
D03*
Y21851199D02*
D03*
Y21901199D02*
D03*
Y21951199D02*
D03*
Y22001199D02*
D03*
Y22051199D02*
D03*
Y22101199D02*
D03*
Y22151199D02*
D03*
Y22201199D02*
D03*
Y22251199D02*
D03*
Y22301199D02*
D03*
Y22351199D02*
D03*
Y22401199D02*
D03*
Y22451199D02*
D03*
Y22501199D02*
D03*
Y22551199D02*
D03*
Y22601199D02*
D03*
Y22651199D02*
D03*
Y22701199D02*
D03*
Y22751199D02*
D03*
Y22801199D02*
D03*
Y22851199D02*
D03*
Y22901199D02*
D03*
D80*
X14005000Y21546201D02*
D03*
X14055000D02*
D03*
X14105000D02*
D03*
X14155000D02*
D03*
X14205000D02*
D03*
X14255000D02*
D03*
X14305000D02*
D03*
X14355000D02*
D03*
X14405000D02*
D03*
X14455000D02*
D03*
X14505000D02*
D03*
X14555000D02*
D03*
X14605000D02*
D03*
X14655000D02*
D03*
X14705000D02*
D03*
X14755000D02*
D03*
X14805000D02*
D03*
X14855000D02*
D03*
X14905000D02*
D03*
X14955000D02*
D03*
X15005000D02*
D03*
X15055000D02*
D03*
X15105000D02*
D03*
X15155000D02*
D03*
X15205000D02*
D03*
Y23056200D02*
D03*
X15155000D02*
D03*
X15105000D02*
D03*
X15055000D02*
D03*
X15005000D02*
D03*
X14955000D02*
D03*
X14905000D02*
D03*
X14855000D02*
D03*
X14805000D02*
D03*
X14755000D02*
D03*
X14705000D02*
D03*
X14655000D02*
D03*
X14605000D02*
D03*
X14555000D02*
D03*
X14505000D02*
D03*
X14455000D02*
D03*
X14405000D02*
D03*
X14355000D02*
D03*
X14305000D02*
D03*
X14255000D02*
D03*
X14205000D02*
D03*
X14155000D02*
D03*
X14105000D02*
D03*
X14055000D02*
D03*
X14005000D02*
D03*
D81*
X19817081Y24661980D02*
D03*
Y24293980D02*
D03*
D82*
X20391940Y24239220D02*
D03*
X20811940D02*
D03*
D83*
X27388821Y20901660D02*
D03*
Y20838161D02*
D03*
Y20772121D02*
D03*
Y20706081D02*
D03*
Y20642580D02*
D03*
Y20576540D02*
D03*
Y20513040D02*
D03*
Y20447000D02*
D03*
Y20380960D02*
D03*
Y20317461D02*
D03*
X26804620D02*
D03*
Y20380960D02*
D03*
Y20447000D02*
D03*
Y20513040D02*
D03*
Y20576540D02*
D03*
Y20642580D02*
D03*
Y20706081D02*
D03*
Y20772121D02*
D03*
Y20838161D02*
D03*
Y20901660D02*
D03*
X26784299Y19151601D02*
D03*
Y19085561D02*
D03*
Y19019521D02*
D03*
Y18956020D02*
D03*
Y18889980D02*
D03*
Y18826480D02*
D03*
Y18760440D02*
D03*
Y18694400D02*
D03*
X27368500D02*
D03*
Y18760440D02*
D03*
Y18826480D02*
D03*
Y18889980D02*
D03*
Y18956020D02*
D03*
Y19019521D02*
D03*
Y19085561D02*
D03*
Y19151601D02*
D03*
X26771600Y16637000D02*
D03*
Y16570959D02*
D03*
Y16504919D02*
D03*
Y16441420D02*
D03*
Y16375380D02*
D03*
Y16311880D02*
D03*
Y16245840D02*
D03*
Y16179800D02*
D03*
X27355801D02*
D03*
Y16245840D02*
D03*
Y16311880D02*
D03*
Y16375380D02*
D03*
Y16441420D02*
D03*
Y16504919D02*
D03*
Y16570959D02*
D03*
Y16637000D02*
D03*
X26776682Y18310860D02*
D03*
Y18244820D02*
D03*
Y18178780D02*
D03*
Y18115280D02*
D03*
Y18049240D02*
D03*
Y17985741D02*
D03*
Y17919701D02*
D03*
Y17853661D02*
D03*
X27360880D02*
D03*
Y17919701D02*
D03*
Y17985741D02*
D03*
Y18049240D02*
D03*
Y18115280D02*
D03*
Y18178780D02*
D03*
Y18244820D02*
D03*
Y18310860D02*
D03*
X26771600Y17465041D02*
D03*
Y17399001D02*
D03*
Y17332961D02*
D03*
Y17269460D02*
D03*
Y17203419D02*
D03*
Y17139920D02*
D03*
Y17073880D02*
D03*
Y17007840D02*
D03*
X27355801D02*
D03*
Y17073880D02*
D03*
Y17139920D02*
D03*
Y17203419D02*
D03*
Y17269460D02*
D03*
Y17332961D02*
D03*
Y17399001D02*
D03*
Y17465041D02*
D03*
X27371039Y20025360D02*
D03*
Y19961861D02*
D03*
Y19895821D02*
D03*
Y19829781D02*
D03*
Y19766280D02*
D03*
Y19700240D02*
D03*
Y19636740D02*
D03*
Y19570700D02*
D03*
Y19504660D02*
D03*
Y19441161D02*
D03*
X26786841D02*
D03*
Y19504660D02*
D03*
Y19570700D02*
D03*
Y19636740D02*
D03*
Y19700240D02*
D03*
Y19766280D02*
D03*
Y19829781D02*
D03*
Y19895821D02*
D03*
Y19961861D02*
D03*
Y20025360D02*
D03*
D84*
X10515600Y15791180D02*
D03*
Y24681180D02*
D03*
X11846580Y18315961D02*
D03*
X11221720Y18917920D02*
D03*
X21066760Y24244299D02*
D03*
D85*
X10815280Y18482520D02*
D03*
Y18032520D02*
D03*
X31089600Y16311880D02*
D03*
Y16565880D02*
D03*
Y16819881D02*
D03*
Y17073880D02*
D03*
Y17327879D02*
D03*
Y17581880D02*
D03*
Y17835880D02*
D03*
Y18089880D02*
D03*
Y18343880D02*
D03*
Y18597881D02*
D03*
Y18851880D02*
D03*
Y19105881D02*
D03*
Y19359880D02*
D03*
Y19613879D02*
D03*
Y19867880D02*
D03*
Y20121880D02*
D03*
Y20375880D02*
D03*
Y20629880D02*
D03*
Y20883881D02*
D03*
Y21137880D02*
D03*
Y21391879D02*
D03*
Y21645880D02*
D03*
Y21899879D02*
D03*
Y22153880D02*
D03*
Y22407880D02*
D03*
Y22661880D02*
D03*
Y22915880D02*
D03*
Y23169881D02*
D03*
Y23423880D02*
D03*
Y23677879D02*
D03*
Y23931880D02*
D03*
Y24185880D02*
D03*
X31597601Y16311880D02*
D03*
Y16565880D02*
D03*
Y16819881D02*
D03*
Y17073880D02*
D03*
Y17327879D02*
D03*
Y17581880D02*
D03*
Y17835880D02*
D03*
Y18089880D02*
D03*
Y18343880D02*
D03*
Y18597881D02*
D03*
Y18851880D02*
D03*
Y19105881D02*
D03*
Y19359880D02*
D03*
Y19613879D02*
D03*
Y19867880D02*
D03*
Y20121880D02*
D03*
Y20375880D02*
D03*
Y20629880D02*
D03*
Y20883881D02*
D03*
Y21137880D02*
D03*
Y21391879D02*
D03*
Y21645880D02*
D03*
Y21899879D02*
D03*
Y22153880D02*
D03*
Y22407880D02*
D03*
Y22661880D02*
D03*
Y22915880D02*
D03*
Y23169881D02*
D03*
Y23423880D02*
D03*
Y23677879D02*
D03*
Y23931880D02*
D03*
Y24185880D02*
D03*
D86*
X11064280Y17907021D02*
D03*
Y18608020D02*
D03*
D87*
X10454640Y21645880D02*
D03*
Y21899879D02*
D03*
Y23550880D02*
D03*
Y23804880D02*
D03*
Y17238980D02*
D03*
Y17492979D02*
D03*
Y16603979D02*
D03*
Y16857980D02*
D03*
Y21264880D02*
D03*
Y21010880D02*
D03*
Y23169881D02*
D03*
Y22915880D02*
D03*
Y22280881D02*
D03*
Y22534880D02*
D03*
D88*
X10299701Y20071080D02*
D03*
X10553701D02*
D03*
Y19817081D02*
D03*
X10299701D02*
D03*
Y19563080D02*
D03*
X10553701D02*
D03*
X10299701Y19309081D02*
D03*
X10553701D02*
D03*
X10299701Y19055080D02*
D03*
X10553701D02*
D03*
D89*
X31851599Y15803880D02*
D03*
Y24693880D02*
D03*
D90*
X24892000Y21934419D02*
D03*
Y23394420D02*
D03*
Y22664420D02*
D03*
X29972000Y22285420D02*
D03*
Y22666420D02*
D03*
Y23047420D02*
D03*
D91*
Y21904420D02*
D03*
Y23428419D02*
D03*
D92*
X20053300Y20393660D02*
D03*
X19357339Y20812759D02*
D03*
X19337019Y20142200D02*
D03*
X11120120Y22890480D02*
D03*
X20990559Y20888960D02*
D03*
X20210780Y20883881D02*
D03*
X18409920Y20292059D02*
D03*
X18315939Y20380960D02*
D03*
X17178020Y19108420D02*
D03*
X17045940Y19253200D02*
D03*
X16657320Y18587720D02*
D03*
X16543021Y18750281D02*
D03*
X11366500Y16878300D02*
D03*
Y17434560D02*
D03*
X18603600Y20988660D02*
D03*
X17658080Y20505420D02*
D03*
X16804640Y19806920D02*
D03*
X16200121Y19202400D02*
D03*
X11653171Y19708209D02*
D03*
X12039949D02*
D03*
X19293840Y21178520D02*
D03*
X19234779Y21294720D02*
D03*
X24894540Y23550880D02*
D03*
X24650700Y23276559D02*
D03*
X15283180Y20909280D02*
D03*
X15156180Y20914360D02*
D03*
X24792940Y22092920D02*
D03*
X24782780Y21783040D02*
D03*
X29964380Y23632159D02*
D03*
X30137100Y23550880D02*
D03*
X29799280D02*
D03*
X29850079Y23672800D02*
D03*
X30091379Y23665179D02*
D03*
X29728159Y23660100D02*
D03*
X29961841Y23741380D02*
D03*
X30203140Y23639780D02*
D03*
X29961841Y21704300D02*
D03*
X29827219Y21757640D02*
D03*
X30098999Y21752560D02*
D03*
X30060901Y21638260D02*
D03*
X29855161Y21650960D02*
D03*
X30167581Y21859241D02*
D03*
X29753561Y21869400D02*
D03*
X29715460Y21706841D02*
D03*
X30203140Y21696680D02*
D03*
X19177620Y20908659D02*
D03*
X20068539Y21135339D02*
D03*
X19575780Y21460460D02*
D03*
D93*
X26205179Y17848579D02*
D03*
X25979120Y18100040D02*
D03*
X12151360Y22743159D02*
D03*
X12428220Y22611079D02*
D03*
X12481560Y22679660D02*
D03*
X12712700Y22567900D02*
D03*
X14805000Y21887180D02*
D03*
X14755013Y21810980D02*
D03*
X14705000Y21739861D02*
D03*
X26344879Y20040601D02*
D03*
X26139139Y20022820D02*
D03*
X26240741Y18204179D02*
D03*
X16551947Y21391879D02*
D03*
X29202380Y18209261D02*
D03*
X29474161Y18867120D02*
D03*
X28976321Y19400520D02*
D03*
X27889200Y19397980D02*
D03*
X28696921Y19270979D02*
D03*
X27561539Y19441161D02*
D03*
X27642819Y20243800D02*
D03*
X28559760Y20403819D02*
D03*
X27132281Y19504660D02*
D03*
X26504901Y18117821D02*
D03*
X26662381Y18046700D02*
D03*
X26311859Y19903439D02*
D03*
X26484579Y19634200D02*
D03*
X26553159Y20767039D02*
D03*
X26626819Y20634959D02*
D03*
X26664920Y19103340D02*
D03*
X29486859Y19204939D02*
D03*
X28387039Y18394679D02*
D03*
X27515820Y18242281D02*
D03*
X26878281Y18470880D02*
D03*
X26642059Y18475960D02*
D03*
X28676599Y17955260D02*
D03*
X28389581Y19085561D02*
D03*
Y19006821D02*
D03*
X28303220Y18686780D02*
D03*
X28320999Y18544540D02*
D03*
X27513281Y19568159D02*
D03*
X27020520Y19232880D02*
D03*
X27553922Y19316701D02*
D03*
X26923999Y18971260D02*
D03*
X27023059Y18285460D02*
D03*
X27188574Y18272760D02*
D03*
X27188159Y18399760D02*
D03*
X28059381Y18745200D02*
D03*
X28369260Y20403819D02*
D03*
X27063699Y17617439D02*
D03*
X27142441Y18478500D02*
D03*
X28625800Y19006821D02*
D03*
X27533600Y20408900D02*
D03*
X27525980Y20502879D02*
D03*
X27376120Y20238721D02*
D03*
X26659839Y20144740D02*
D03*
X28981400Y19608800D02*
D03*
X29489401Y19486880D02*
D03*
X27233881Y20109180D02*
D03*
X26601419Y18884900D02*
D03*
X26649680Y18948399D02*
D03*
X26893521Y17061180D02*
D03*
X26974799Y19931380D02*
D03*
X26555701Y16352521D02*
D03*
X26499820Y17195799D02*
D03*
X27800299Y15951199D02*
D03*
X27005280Y19763741D02*
D03*
X28290521Y20632420D02*
D03*
X29428439Y17569180D02*
D03*
X28948380Y17371060D02*
D03*
X28595319Y16883380D02*
D03*
X28544519Y17094200D02*
D03*
X28895041Y17744440D02*
D03*
X27482800Y17396460D02*
D03*
X28064459Y17378680D02*
D03*
X29850079Y17746980D02*
D03*
X29712921Y17371060D02*
D03*
X30307281Y17416780D02*
D03*
X28996640Y19105881D02*
D03*
X29293820Y19240500D02*
D03*
X28719781Y18930620D02*
D03*
X27518359Y19090640D02*
D03*
X27556461Y17650459D02*
D03*
X29207458Y17724120D02*
D03*
X29672281D02*
D03*
X28709619Y18216879D02*
D03*
X28994101Y18106149D02*
D03*
X29090619Y17952721D02*
D03*
X27609799Y18887440D02*
D03*
X27571701Y19024600D02*
D03*
X27515820Y16507460D02*
D03*
X28059381Y17528540D02*
D03*
X27640280Y18112740D02*
D03*
X27625040Y16449040D02*
D03*
X27767279Y18983960D02*
D03*
X28455621Y17305020D02*
D03*
X27927301Y18044160D02*
D03*
X26939240Y16802100D02*
D03*
X27086560Y16819881D02*
D03*
X26591260Y17457420D02*
D03*
X26588721Y17774921D02*
D03*
X27129739Y17942560D02*
D03*
X27180539Y16398241D02*
D03*
Y16289020D02*
D03*
X27185620Y17086580D02*
D03*
X27170380Y17165320D02*
D03*
X26962100Y17711420D02*
D03*
X26903680Y17632680D02*
D03*
X26504901Y18267680D02*
D03*
X26337259Y17312640D02*
D03*
X14988541Y21275040D02*
D03*
X15092680Y21249640D02*
D03*
X13075920Y21869400D02*
D03*
X13487399Y22029420D02*
D03*
X13472160Y21948140D02*
D03*
X16578580Y21506180D02*
D03*
X14170660Y22771100D02*
D03*
X14172032Y22851212D02*
D03*
X27829922Y20902121D02*
D03*
X27005280Y20507961D02*
D03*
X27023059Y20642580D02*
D03*
X26984961Y20767039D02*
D03*
X27848560Y19926300D02*
D03*
X27619958Y19250661D02*
D03*
X27579321Y16753841D02*
D03*
X26644601Y16165154D02*
D03*
X26624280Y17015460D02*
D03*
X26659839Y17886681D02*
D03*
X27432001Y17645380D02*
D03*
X26603961Y18122900D02*
D03*
X26921460Y18778220D02*
D03*
X28470859Y20167599D02*
D03*
X28798520Y20177760D02*
D03*
X28029510Y18912939D02*
D03*
X27495499Y18793460D02*
D03*
X27162076Y18989725D02*
D03*
X26624280Y18674080D02*
D03*
X27829184Y20198741D02*
D03*
X26385519Y19766280D02*
D03*
X26397534Y20351164D02*
D03*
X26418539Y19303406D02*
D03*
X26317117Y16456900D02*
D03*
X26258521Y17437100D02*
D03*
X27152600Y17599660D02*
D03*
X26537921Y18831560D02*
D03*
X26416000Y18775681D02*
D03*
X26245358Y16104459D02*
D03*
X26708099Y16720821D02*
D03*
X23576280Y17701260D02*
D03*
X23809959Y17858740D02*
D03*
X24249380Y17924780D02*
D03*
X24551640Y17998441D02*
D03*
X26603961Y17134840D02*
D03*
X26492200Y17876520D02*
D03*
X14650720Y21676360D02*
D03*
D94*
X24759920Y18143221D02*
D03*
X25062180Y20383501D02*
D03*
X25059641Y20993100D02*
D03*
D95*
X27208481Y20927060D02*
D03*
X27510739Y20017740D02*
D03*
X27559000Y20180299D02*
D03*
X27401520Y19237959D02*
D03*
X27782520Y18336259D02*
D03*
X27538681Y17820641D02*
D03*
X27221179Y19174460D02*
D03*
X27353259Y18394679D02*
D03*
X27213559Y17472659D02*
D03*
X27355801Y16715739D02*
D03*
%TF.MD5,8f3a46018ea7adf28fb721770f7ca4c5*%
M02*
