G04 Layer_Physical_Order=2*
G04 Layer_Color=16711680*
%FSLAX45Y45*%
%MOMM*%
%TF.FileFunction,Copper,L2,Bot,Signal*%
%TF.Part,Single*%
G01*
G75*
%TA.AperFunction,SMDPad,CuDef*%
%ADD13R,0.90000X0.70000*%
%TA.AperFunction,Conductor*%
%ADD29C,0.30480*%
%ADD30C,0.25400*%
%ADD31C,1.27000*%
%ADD32C,0.60960*%
%ADD33C,0.50800*%
%ADD34C,1.30000*%
%ADD35C,0.63500*%
%TA.AperFunction,ComponentPad*%
%ADD36C,2.70000*%
%ADD37C,1.72400*%
%ADD38C,1.52400*%
%ADD39C,2.80000*%
%ADD40C,1.60000*%
G04:AMPARAMS|DCode=41|XSize=1.5748mm|YSize=1.5748mm|CornerRadius=0mm|HoleSize=0mm|Usage=FLASHONLY|Rotation=90.000|XOffset=0mm|YOffset=0mm|HoleType=Round|Shape=Octagon|*
%AMOCTAGOND41*
4,1,8,0.39370,0.78740,-0.39370,0.78740,-0.78740,0.39370,-0.78740,-0.39370,-0.39370,-0.78740,0.39370,-0.78740,0.78740,-0.39370,0.78740,0.39370,0.39370,0.78740,0.0*
%
%ADD41OCTAGOND41*%

%ADD42C,1.70000*%
%TA.AperFunction,ViaPad*%
%ADD43C,1.27000*%
%ADD44C,0.63500*%
%ADD45C,0.90000*%
%ADD46C,0.91440*%
%ADD47C,1.01600*%
%ADD48C,1.77800*%
G36*
X32156400Y15239999D02*
X10160000D01*
Y25239980D01*
X32156400D01*
Y15239999D01*
D02*
G37*
%LPC*%
G36*
X31851599Y24849631D02*
X31821216Y24846637D01*
X31791998Y24837775D01*
X31765070Y24823381D01*
X31741467Y24804012D01*
X31722098Y24780409D01*
X31707706Y24753484D01*
X31698843Y24724265D01*
X31695850Y24693880D01*
X31698843Y24663495D01*
X31707706Y24634277D01*
X31722098Y24607350D01*
X31741467Y24583748D01*
X31765070Y24564378D01*
X31791998Y24549986D01*
X31821216Y24541122D01*
X31851599Y24538130D01*
X31881985Y24541122D01*
X31911203Y24549986D01*
X31938129Y24564378D01*
X31961731Y24583748D01*
X31981100Y24607350D01*
X31995493Y24634277D01*
X32004358Y24663495D01*
X32007349Y24693880D01*
X32004358Y24724265D01*
X31995493Y24753484D01*
X31981100Y24780409D01*
X31961731Y24804012D01*
X31938129Y24823381D01*
X31911203Y24837775D01*
X31881985Y24846637D01*
X31851599Y24849631D01*
D02*
G37*
G36*
X10515600Y24836629D02*
X10485273Y24833643D01*
X10456112Y24824796D01*
X10429237Y24810431D01*
X10405681Y24791100D01*
X10386349Y24767543D01*
X10371984Y24740668D01*
X10363138Y24711507D01*
X10360151Y24681180D01*
X10363138Y24650853D01*
X10371984Y24621692D01*
X10386349Y24594817D01*
X10405681Y24571262D01*
X10429237Y24551929D01*
X10456112Y24537564D01*
X10485273Y24528719D01*
X10515600Y24525731D01*
X10545927Y24528719D01*
X10575088Y24537564D01*
X10601963Y24551929D01*
X10625519Y24571262D01*
X10644851Y24594817D01*
X10659216Y24621692D01*
X10668062Y24650853D01*
X10671049Y24681180D01*
X10668062Y24711507D01*
X10659216Y24740668D01*
X10644851Y24767543D01*
X10625519Y24791100D01*
X10601963Y24810431D01*
X10575088Y24824796D01*
X10545927Y24833643D01*
X10515600Y24836629D01*
D02*
G37*
G36*
X31597601Y24277867D02*
X31573792Y24274733D01*
X31551608Y24265543D01*
X31532556Y24250925D01*
X31517938Y24231873D01*
X31508746Y24209688D01*
X31505612Y24185880D01*
X31508746Y24162073D01*
X31517938Y24139886D01*
X31532556Y24120834D01*
X31551608Y24106216D01*
X31573792Y24097028D01*
X31597601Y24093893D01*
X31621408Y24097028D01*
X31643594Y24106216D01*
X31662646Y24120834D01*
X31677264Y24139886D01*
X31686453Y24162073D01*
X31689587Y24185880D01*
X31686453Y24209688D01*
X31677264Y24231873D01*
X31662646Y24250925D01*
X31643594Y24265543D01*
X31621408Y24274733D01*
X31597601Y24277867D01*
D02*
G37*
G36*
X31089600D02*
X31065793Y24274733D01*
X31043607Y24265543D01*
X31024554Y24250925D01*
X31009937Y24231873D01*
X31000748Y24209688D01*
X30997614Y24185880D01*
X31000748Y24162073D01*
X31009937Y24139886D01*
X31024554Y24120834D01*
X31043607Y24106216D01*
X31065793Y24097028D01*
X31089600Y24093893D01*
X31113409Y24097028D01*
X31135593Y24106216D01*
X31154645Y24120834D01*
X31169263Y24139886D01*
X31178452Y24162073D01*
X31181586Y24185880D01*
X31178452Y24209688D01*
X31169263Y24231873D01*
X31154645Y24250925D01*
X31135593Y24265543D01*
X31113409Y24274733D01*
X31089600Y24277867D01*
D02*
G37*
G36*
X29700220Y24324989D02*
X21066760D01*
X21045876Y24322241D01*
X21026414Y24314180D01*
X21009703Y24301357D01*
X20996880Y24284645D01*
X20988818Y24265184D01*
X20986070Y24244299D01*
X20988818Y24223416D01*
X20996880Y24203955D01*
X21009703Y24187244D01*
X21026414Y24174420D01*
X21045876Y24166359D01*
X21066760Y24163609D01*
X29666797D01*
X29883691Y23946716D01*
Y23831276D01*
X29625089D01*
X29623904Y23830785D01*
X29622656Y23831093D01*
X29618304Y23828465D01*
X29613608Y23826521D01*
X29613120Y23825334D01*
X29612018Y23824670D01*
X29602661Y23811971D01*
X29602356Y23810735D01*
X29601376Y23809921D01*
X29600903Y23804851D01*
X29599866Y23800656D01*
X25022000D01*
X25010519Y23795901D01*
X25005763Y23784419D01*
Y23402917D01*
X24993063Y23402086D01*
X24990594Y23420839D01*
X24980399Y23445457D01*
X24964177Y23466597D01*
X24943037Y23482819D01*
X24930998Y23487805D01*
X24929585Y23502136D01*
X24937798Y23507623D01*
X24951059Y23527469D01*
X24955714Y23550880D01*
X24951059Y23574290D01*
X24937798Y23594138D01*
X24917950Y23607399D01*
X24894540Y23612054D01*
X24871129Y23607399D01*
X24851283Y23594138D01*
X24838020Y23574290D01*
X24833365Y23550880D01*
X24838020Y23527469D01*
X24851283Y23507623D01*
X24857550Y23503435D01*
X24856139Y23489104D01*
X24840964Y23482819D01*
X24819823Y23466597D01*
X24803603Y23445457D01*
X24793405Y23420839D01*
X24789928Y23394420D01*
X24793405Y23368002D01*
X24803603Y23343382D01*
X24819823Y23322243D01*
X24840964Y23306023D01*
X24865581Y23295825D01*
X24892000Y23292348D01*
X24918419Y23295825D01*
X24943037Y23306023D01*
X24964177Y23322243D01*
X24980399Y23343382D01*
X24990594Y23368002D01*
X24993063Y23386755D01*
X25005763Y23385922D01*
Y21534419D01*
X25010519Y21522939D01*
X25022000Y21518184D01*
X29612000D01*
X29623480Y21522939D01*
X29628235Y21534419D01*
Y23194284D01*
X30271719D01*
X30283200Y23199039D01*
X30598160Y23513998D01*
X30613724Y23529564D01*
X31767780D01*
X31779260Y23534319D01*
X31784015Y23545799D01*
Y23813988D01*
X31782779Y23816971D01*
X31782779Y23820200D01*
X31780496Y23822484D01*
X31779260Y23825468D01*
X31776276Y23826704D01*
X31773993Y23828987D01*
X31771454Y23830040D01*
X31768225Y23830040D01*
X31765240Y23831276D01*
X31624521D01*
X31621408Y23843027D01*
X31643594Y23852217D01*
X31662646Y23866835D01*
X31677264Y23885887D01*
X31686453Y23908072D01*
X31689587Y23931880D01*
X31686453Y23955688D01*
X31677264Y23977873D01*
X31662646Y23996925D01*
X31643594Y24011543D01*
X31621408Y24020734D01*
X31597601Y24023866D01*
X31573792Y24020734D01*
X31551608Y24011543D01*
X31532556Y23996925D01*
X31517938Y23977873D01*
X31508746Y23955688D01*
X31505612Y23931880D01*
X31508746Y23908072D01*
X31517938Y23885887D01*
X31532556Y23866835D01*
X31551608Y23852217D01*
X31573792Y23843027D01*
X31570679Y23831276D01*
X31116519D01*
X31113409Y23843027D01*
X31135593Y23852217D01*
X31154645Y23866835D01*
X31169263Y23885887D01*
X31178452Y23908072D01*
X31181586Y23931880D01*
X31178452Y23955688D01*
X31169263Y23977873D01*
X31154645Y23996925D01*
X31135593Y24011543D01*
X31113409Y24020734D01*
X31089600Y24023866D01*
X31065793Y24020734D01*
X31043607Y24011543D01*
X31024554Y23996925D01*
X31009937Y23977873D01*
X31000748Y23955688D01*
X30997614Y23931880D01*
X31000748Y23908072D01*
X31009937Y23885887D01*
X31024554Y23866835D01*
X31043607Y23852217D01*
X31065793Y23843027D01*
X31062680Y23831276D01*
X30045071D01*
Y23980141D01*
X30042322Y24001024D01*
X30034259Y24020485D01*
X30021436Y24037196D01*
X29757278Y24301357D01*
X29740564Y24314180D01*
X29721103Y24322241D01*
X29700220Y24324989D01*
D02*
G37*
G36*
X10454640Y23900699D02*
X10429840Y23897435D01*
X10406730Y23887862D01*
X10386885Y23872633D01*
X10371658Y23852789D01*
X10362085Y23829680D01*
X10358821Y23804880D01*
X10362085Y23780080D01*
X10371658Y23756970D01*
X10386885Y23737125D01*
X10406730Y23721898D01*
X10429840Y23712325D01*
X10454640Y23709061D01*
X10479440Y23712325D01*
X10502550Y23721898D01*
X10522395Y23737125D01*
X10537622Y23756970D01*
X10547195Y23780080D01*
X10550459Y23804880D01*
X10547195Y23829680D01*
X10537622Y23852789D01*
X10522395Y23872633D01*
X10502550Y23887862D01*
X10479440Y23897435D01*
X10454640Y23900699D01*
D02*
G37*
G36*
X31597601Y23261867D02*
X31573792Y23258733D01*
X31551608Y23249544D01*
X31532556Y23234924D01*
X31519220Y23217546D01*
X31167981D01*
X31154645Y23234924D01*
X31135593Y23249544D01*
X31113409Y23258733D01*
X31089600Y23261867D01*
X31065793Y23258733D01*
X31043607Y23249544D01*
X31024554Y23234924D01*
X31009937Y23215874D01*
X31007947Y23211070D01*
X30976465D01*
X30960703Y23207936D01*
X30947339Y23199007D01*
X30537473Y22789142D01*
X30528543Y22775778D01*
X30525409Y22760014D01*
Y21471758D01*
X30395044Y21341391D01*
X23099445D01*
X23083682Y21338255D01*
X23070319Y21329327D01*
X21263983Y19522990D01*
X17543062D01*
X15960007Y21106047D01*
X15946643Y21114977D01*
X15930881Y21118111D01*
X15318739D01*
X15302977Y21114977D01*
X15289613Y21106047D01*
X15158617Y20975050D01*
X15156180Y20975536D01*
X15132768Y20970879D01*
X15112923Y20957617D01*
X15099661Y20937772D01*
X15095004Y20914360D01*
X15099661Y20890948D01*
X15112923Y20871103D01*
X15132768Y20857841D01*
X15156180Y20853185D01*
X15179591Y20857841D01*
X15199437Y20871103D01*
X15212698Y20890948D01*
X15212700Y20890958D01*
X15225648D01*
X15226662Y20885869D01*
X15239923Y20866023D01*
X15259769Y20852760D01*
X15283180Y20848105D01*
X15306590Y20852760D01*
X15326437Y20866023D01*
X15327818Y20868089D01*
X15944298D01*
X17425752Y19386633D01*
X17439117Y19377704D01*
X17454880Y19374570D01*
X21308060D01*
X21323824Y19377704D01*
X21337187Y19386633D01*
X23143762Y21193208D01*
X30439359D01*
X30455124Y21196344D01*
X30468488Y21205273D01*
X30661526Y21398312D01*
X30670456Y21411678D01*
X30673590Y21427440D01*
Y22637198D01*
X30911081Y22874689D01*
X31007947D01*
X31009937Y22869887D01*
X31024554Y22850835D01*
X31043607Y22836217D01*
X31065793Y22827026D01*
X31089600Y22823894D01*
X31113409Y22827026D01*
X31135593Y22836217D01*
X31154645Y22850835D01*
X31167981Y22868214D01*
X31519220D01*
X31532556Y22850835D01*
X31551608Y22836217D01*
X31573792Y22827026D01*
X31597601Y22823894D01*
X31621408Y22827026D01*
X31643594Y22836217D01*
X31662646Y22850835D01*
X31677264Y22869887D01*
X31686453Y22892072D01*
X31689587Y22915880D01*
X31686453Y22939688D01*
X31677264Y22961873D01*
X31662646Y22980925D01*
X31643594Y22995543D01*
X31621408Y23004733D01*
X31597601Y23007867D01*
X31573792Y23004733D01*
X31551608Y22995543D01*
X31532556Y22980925D01*
X31519220Y22963547D01*
X31167981D01*
X31154645Y22980925D01*
X31135593Y22995543D01*
X31113409Y23004733D01*
X31089600Y23007867D01*
X31065793Y23004733D01*
X31043607Y22995543D01*
X31024554Y22980925D01*
X31009937Y22961873D01*
X31007947Y22957071D01*
X30894019D01*
X30878256Y22953935D01*
X30864893Y22945007D01*
X30619525Y22699638D01*
X30607791Y22704498D01*
Y22742953D01*
X30993527Y23128690D01*
X31007947D01*
X31009937Y23123888D01*
X31024554Y23104836D01*
X31043607Y23090218D01*
X31065793Y23081027D01*
X31089600Y23077893D01*
X31113409Y23081027D01*
X31135593Y23090218D01*
X31154645Y23104836D01*
X31167981Y23122214D01*
X31519220D01*
X31532556Y23104836D01*
X31551608Y23090218D01*
X31573792Y23081027D01*
X31597601Y23077893D01*
X31621408Y23081027D01*
X31643594Y23090218D01*
X31662646Y23104836D01*
X31677264Y23123888D01*
X31686453Y23146072D01*
X31689587Y23169881D01*
X31686453Y23193687D01*
X31677264Y23215874D01*
X31662646Y23234924D01*
X31643594Y23249544D01*
X31621408Y23258733D01*
X31597601Y23261867D01*
D02*
G37*
G36*
X24650700Y23337735D02*
X24627289Y23333080D01*
X24607443Y23319817D01*
X24594180Y23299971D01*
X24589525Y23276559D01*
X24594180Y23253149D01*
X24607443Y23233302D01*
X24627289Y23220041D01*
X24650700Y23215385D01*
X24674110Y23220041D01*
X24693958Y23233302D01*
X24707219Y23253149D01*
X24711874Y23276559D01*
X24707219Y23299971D01*
X24693958Y23319817D01*
X24674110Y23333080D01*
X24650700Y23337735D01*
D02*
G37*
G36*
X10454640Y23265698D02*
X10429840Y23262434D01*
X10406730Y23252863D01*
X10386885Y23237634D01*
X10371658Y23217790D01*
X10362085Y23194679D01*
X10358821Y23169881D01*
X10362085Y23145081D01*
X10371658Y23121970D01*
X10386885Y23102126D01*
X10406730Y23086897D01*
X10429840Y23077325D01*
X10454640Y23074062D01*
X10479440Y23077325D01*
X10502550Y23086897D01*
X10522395Y23102126D01*
X10537622Y23121970D01*
X10547195Y23145081D01*
X10550459Y23169881D01*
X10547195Y23194679D01*
X10537622Y23217790D01*
X10522395Y23237634D01*
X10502550Y23252863D01*
X10479440Y23262434D01*
X10454640Y23265698D01*
D02*
G37*
G36*
X29972000Y23149493D02*
X29945581Y23146014D01*
X29920963Y23135818D01*
X29899823Y23119597D01*
X29883603Y23098457D01*
X29873404Y23073839D01*
X29869928Y23047420D01*
X29873404Y23021001D01*
X29883603Y22996384D01*
X29899823Y22975243D01*
X29920963Y22959023D01*
X29945581Y22948825D01*
X29972000Y22945348D01*
X29998419Y22948825D01*
X30023038Y22959023D01*
X30044177Y22975243D01*
X30060397Y22996384D01*
X30070596Y23021001D01*
X30074072Y23047420D01*
X30070596Y23073839D01*
X30060397Y23098457D01*
X30044177Y23119597D01*
X30023038Y23135818D01*
X29998419Y23146014D01*
X29972000Y23149493D01*
D02*
G37*
G36*
X10454640Y23011699D02*
X10429840Y23008435D01*
X10406730Y22998862D01*
X10386885Y22983633D01*
X10371658Y22963789D01*
X10362085Y22940680D01*
X10358821Y22915880D01*
X10362085Y22891080D01*
X10371658Y22867970D01*
X10386885Y22848126D01*
X10406730Y22832898D01*
X10429840Y22823325D01*
X10454640Y22820061D01*
X10479440Y22823325D01*
X10502550Y22832898D01*
X10522395Y22848126D01*
X10537622Y22867970D01*
X10547195Y22891080D01*
X10550459Y22915880D01*
X10547195Y22940680D01*
X10537622Y22963789D01*
X10522395Y22983633D01*
X10502550Y22998862D01*
X10479440Y23008435D01*
X10454640Y23011699D01*
D02*
G37*
G36*
X29972000Y22768494D02*
X29945581Y22765015D01*
X29920963Y22754819D01*
X29899823Y22738597D01*
X29883603Y22717458D01*
X29873404Y22692839D01*
X29869928Y22666420D01*
X29873404Y22640001D01*
X29883603Y22615382D01*
X29899823Y22594243D01*
X29920963Y22578021D01*
X29945581Y22567825D01*
X29972000Y22564346D01*
X29998419Y22567825D01*
X30023038Y22578021D01*
X30044177Y22594243D01*
X30060397Y22615382D01*
X30070596Y22640001D01*
X30074072Y22666420D01*
X30070596Y22692839D01*
X30060397Y22717458D01*
X30044177Y22738597D01*
X30023038Y22754819D01*
X29998419Y22765015D01*
X29972000Y22768494D01*
D02*
G37*
G36*
X10454640Y22630699D02*
X10429840Y22627435D01*
X10406730Y22617862D01*
X10386885Y22602634D01*
X10371658Y22582790D01*
X10362085Y22559680D01*
X10358821Y22534880D01*
X10362085Y22510080D01*
X10371658Y22486971D01*
X10386885Y22467126D01*
X10406730Y22451898D01*
X10429840Y22442325D01*
X10454640Y22439061D01*
X10479440Y22442325D01*
X10502550Y22451898D01*
X10522395Y22467126D01*
X10537622Y22486971D01*
X10547195Y22510080D01*
X10550459Y22534880D01*
X10547195Y22559680D01*
X10537622Y22582790D01*
X10522395Y22602634D01*
X10502550Y22617862D01*
X10479440Y22627435D01*
X10454640Y22630699D01*
D02*
G37*
G36*
X31597601Y22499867D02*
X31573792Y22496733D01*
X31551608Y22487543D01*
X31532556Y22472925D01*
X31517938Y22453873D01*
X31508746Y22431688D01*
X31505612Y22407880D01*
X31508746Y22384071D01*
X31517938Y22361887D01*
X31532556Y22342834D01*
X31551608Y22328217D01*
X31573792Y22319028D01*
X31597601Y22315894D01*
X31621408Y22319028D01*
X31643594Y22328217D01*
X31662646Y22342834D01*
X31677264Y22361887D01*
X31686453Y22384071D01*
X31689587Y22407880D01*
X31686453Y22431688D01*
X31677264Y22453873D01*
X31662646Y22472925D01*
X31643594Y22487543D01*
X31621408Y22496733D01*
X31597601Y22499867D01*
D02*
G37*
G36*
X10454640Y22376698D02*
X10429840Y22373434D01*
X10406730Y22363863D01*
X10386885Y22348634D01*
X10371658Y22328790D01*
X10362085Y22305679D01*
X10358821Y22280881D01*
X10362085Y22256081D01*
X10371658Y22232970D01*
X10386885Y22213126D01*
X10406730Y22197897D01*
X10429840Y22188326D01*
X10454640Y22185062D01*
X10479440Y22188326D01*
X10502550Y22197897D01*
X10522395Y22213126D01*
X10537622Y22232970D01*
X10547195Y22256081D01*
X10550459Y22280881D01*
X10547195Y22305679D01*
X10537622Y22328790D01*
X10522395Y22348634D01*
X10502550Y22363863D01*
X10479440Y22373434D01*
X10454640Y22376698D01*
D02*
G37*
G36*
X29972000Y22387492D02*
X29945581Y22384015D01*
X29920963Y22373817D01*
X29899823Y22357597D01*
X29883603Y22336456D01*
X29873404Y22311839D01*
X29869928Y22285420D01*
X29873404Y22259001D01*
X29883603Y22234383D01*
X29899823Y22213243D01*
X29920963Y22197021D01*
X29945581Y22186826D01*
X29972000Y22183347D01*
X29998419Y22186826D01*
X30023038Y22197021D01*
X30044177Y22213243D01*
X30060397Y22234383D01*
X30070596Y22259001D01*
X30074072Y22285420D01*
X30070596Y22311839D01*
X30060397Y22336456D01*
X30044177Y22357597D01*
X30023038Y22373817D01*
X29998419Y22384015D01*
X29972000Y22387492D01*
D02*
G37*
G36*
X31597601Y22245866D02*
X31573792Y22242732D01*
X31551608Y22233543D01*
X31532556Y22218925D01*
X31517938Y22199873D01*
X31508746Y22177689D01*
X31505612Y22153880D01*
X31508746Y22130072D01*
X31517938Y22107887D01*
X31532556Y22088835D01*
X31551608Y22074217D01*
X31573792Y22065027D01*
X31597601Y22061893D01*
X31621408Y22065027D01*
X31643594Y22074217D01*
X31662646Y22088835D01*
X31677264Y22107887D01*
X31686453Y22130072D01*
X31689587Y22153880D01*
X31686453Y22177689D01*
X31677264Y22199873D01*
X31662646Y22218925D01*
X31643594Y22233543D01*
X31621408Y22242732D01*
X31597601Y22245866D01*
D02*
G37*
G36*
X31089600Y22499867D02*
X31065793Y22496733D01*
X31043607Y22487543D01*
X31024554Y22472925D01*
X31009937Y22453873D01*
X31000748Y22431688D01*
X30997614Y22407880D01*
X31000748Y22384071D01*
X31009937Y22361887D01*
X31024554Y22342834D01*
X31043607Y22328217D01*
X31065793Y22319028D01*
X31089600Y22315894D01*
X31113409Y22319028D01*
X31128568Y22325307D01*
X31353409Y22100468D01*
Y21951138D01*
X31348022Y21947868D01*
X31340707Y21946376D01*
X31172174Y22114911D01*
X31178452Y22130072D01*
X31181586Y22153880D01*
X31178452Y22177689D01*
X31169263Y22199873D01*
X31154645Y22218925D01*
X31135593Y22233543D01*
X31113409Y22242732D01*
X31089600Y22245866D01*
X31065793Y22242732D01*
X31043607Y22233543D01*
X31024554Y22218925D01*
X31009937Y22199873D01*
X31000748Y22177689D01*
X30997614Y22153880D01*
X31000748Y22130072D01*
X31009937Y22107887D01*
X31024554Y22088835D01*
X31043607Y22074217D01*
X31065793Y22065027D01*
X31089600Y22061893D01*
X31113409Y22065027D01*
X31128568Y22071307D01*
X31289908Y21909969D01*
Y20675671D01*
X31127390Y20513152D01*
X31045511D01*
X31045511Y20513153D01*
X31033713Y20510805D01*
X31023709Y20504121D01*
X31023709Y20504121D01*
X30845020Y20325432D01*
X28516171D01*
X28511310Y20337166D01*
X28521454Y20347311D01*
X28534082D01*
X28534082Y20347311D01*
X28545883Y20349658D01*
X28555884Y20356342D01*
X28556372Y20356828D01*
X28559760Y20356154D01*
X28578000Y20359782D01*
X28593466Y20370116D01*
X28603799Y20385579D01*
X28607425Y20403819D01*
X28603799Y20422061D01*
X28593466Y20437524D01*
X28578000Y20447858D01*
X28559760Y20451486D01*
X28541519Y20447858D01*
X28526056Y20437524D01*
X28515723Y20422061D01*
X28515076Y20418816D01*
X28508682Y20408977D01*
X28496884Y20406628D01*
X28486880Y20399945D01*
X28459598Y20372662D01*
X28418137D01*
X28412152Y20383862D01*
X28413297Y20385579D01*
X28416925Y20403819D01*
X28413297Y20422061D01*
X28402966Y20437524D01*
X28400092Y20439444D01*
Y20444460D01*
X28400092Y20444460D01*
X28397745Y20456259D01*
X28391061Y20466261D01*
X28391061Y20466261D01*
X28332642Y20524683D01*
X28331586Y20525388D01*
X28335437Y20538087D01*
X30624109D01*
X30624112Y20538087D01*
X30635910Y20540434D01*
X30645914Y20547118D01*
X30986487Y20887692D01*
X30997964Y20881209D01*
X31000748Y20860072D01*
X31009937Y20837888D01*
X31024554Y20818835D01*
X31043607Y20804218D01*
X31065793Y20795027D01*
X31089600Y20791893D01*
X31113409Y20795027D01*
X31135593Y20804218D01*
X31154645Y20818835D01*
X31169263Y20837888D01*
X31178452Y20860072D01*
X31181586Y20883881D01*
X31178452Y20907687D01*
X31169263Y20929874D01*
X31154645Y20948924D01*
X31141684Y20958868D01*
X31141574Y20959007D01*
X31140076Y20973866D01*
X31140616Y20975113D01*
X31217841Y21052338D01*
X31217841Y21052338D01*
X31224524Y21062341D01*
X31226871Y21074139D01*
Y21435970D01*
X31224524Y21447768D01*
X31217841Y21457771D01*
X31217841Y21457771D01*
X31126788Y21548824D01*
X31129770Y21563805D01*
X31135593Y21566217D01*
X31154645Y21580835D01*
X31169263Y21599887D01*
X31178452Y21622072D01*
X31181586Y21645880D01*
X31178452Y21669688D01*
X31169263Y21691873D01*
X31154645Y21710925D01*
X31135593Y21725543D01*
X31113409Y21734734D01*
X31089600Y21737868D01*
X31065793Y21734734D01*
X31043607Y21725543D01*
X31024554Y21710925D01*
X31009937Y21691873D01*
X31000748Y21669688D01*
X30997614Y21645880D01*
X31000748Y21622072D01*
X31009937Y21599887D01*
X31024554Y21580835D01*
X31043607Y21566217D01*
X31058768Y21559937D01*
Y21542410D01*
X31058768Y21542409D01*
X31061115Y21530611D01*
X31067798Y21520607D01*
X31093414Y21494994D01*
X31086929Y21483514D01*
X31065793Y21480733D01*
X31043607Y21471542D01*
X31024554Y21456924D01*
X31009937Y21437872D01*
X31000748Y21415688D01*
X30997614Y21391879D01*
X31000748Y21368073D01*
X31007028Y21352911D01*
X30451990Y20797871D01*
X27020584D01*
X27018665Y20800745D01*
X27003201Y20811078D01*
X26984961Y20814706D01*
X26966718Y20811078D01*
X26951254Y20800745D01*
X26940921Y20785281D01*
X26937292Y20767039D01*
X26940921Y20748799D01*
X26951254Y20733334D01*
X26966718Y20723003D01*
X26984961Y20719374D01*
X27003201Y20723003D01*
X27018665Y20733334D01*
X27020584Y20736208D01*
X30464758D01*
X30464761Y20736208D01*
X30476559Y20738554D01*
X30486563Y20745238D01*
X31050632Y21309306D01*
X31065793Y21303027D01*
X31089600Y21299893D01*
X31113409Y21303027D01*
X31135593Y21312218D01*
X31152509Y21325195D01*
X31165207Y21321664D01*
Y21086911D01*
X31099448Y21021152D01*
X31045511D01*
X31045511Y21021153D01*
X31033713Y21018805D01*
X31023709Y21012122D01*
X30611340Y20599751D01*
X28338388D01*
X28332401Y20610953D01*
X28334558Y20614178D01*
X28338187Y20632420D01*
X28334558Y20650661D01*
X28324225Y20666125D01*
X28308762Y20676459D01*
X28290521Y20680086D01*
X28272278Y20676459D01*
X28256815Y20666125D01*
X28254895Y20663252D01*
X27065472D01*
X27056766Y20676285D01*
X27041302Y20686618D01*
X27023059Y20690247D01*
X27004819Y20686618D01*
X26989355Y20676285D01*
X26979022Y20660822D01*
X26975394Y20642580D01*
X26979022Y20624339D01*
X26986276Y20613483D01*
X26980347Y20600781D01*
X26871689D01*
X26859891Y20598434D01*
X26849887Y20591753D01*
X26849887Y20591751D01*
X26704077Y20445943D01*
X26697394Y20435939D01*
X26695047Y20424139D01*
X26695047Y20424139D01*
Y20192715D01*
X26682349Y20185927D01*
X26678082Y20188779D01*
X26659839Y20192406D01*
X26641599Y20188779D01*
X26638373Y20186623D01*
X26627173Y20192609D01*
Y20587364D01*
X26645062Y20590923D01*
X26660526Y20601254D01*
X26670859Y20616719D01*
X26674487Y20634959D01*
X26670859Y20653201D01*
X26660526Y20668665D01*
X26645062Y20678998D01*
X26626819Y20682626D01*
X26608578Y20678998D01*
X26593115Y20668665D01*
X26586533Y20658813D01*
X26573831Y20662666D01*
Y20724628D01*
X26586865Y20733334D01*
X26597198Y20748799D01*
X26600827Y20767039D01*
X26597198Y20785281D01*
X26586865Y20800745D01*
X26571402Y20811078D01*
X26553159Y20814706D01*
X26534918Y20811078D01*
X26519455Y20800745D01*
X26509122Y20785281D01*
X26505493Y20767039D01*
X26509122Y20748799D01*
X26512167Y20744241D01*
Y19686104D01*
X26499466Y19678905D01*
X26484579Y19681866D01*
X26466339Y19678238D01*
X26450876Y19667905D01*
X26440543Y19652441D01*
X26436914Y19634200D01*
X26440543Y19615959D01*
X26450876Y19600494D01*
X26451208Y19600273D01*
Y18874667D01*
X26447446Y18869035D01*
X26445096Y18857237D01*
X26445099Y18857236D01*
Y18805884D01*
X26445096Y18805882D01*
X26447446Y18794084D01*
X26451208Y18788452D01*
Y18635982D01*
X26451208Y18635980D01*
X26453555Y18624181D01*
X26460239Y18614178D01*
X26595068Y18479349D01*
X26594394Y18475960D01*
X26598022Y18457719D01*
X26608356Y18442255D01*
X26623819Y18431921D01*
X26642059Y18428294D01*
X26660300Y18431921D01*
X26675766Y18442255D01*
X26683377Y18453648D01*
X26696078Y18449796D01*
Y18093881D01*
X26684875Y18087894D01*
X26680621Y18090738D01*
X26662381Y18094366D01*
X26655478Y18092993D01*
X26647839Y18104424D01*
X26647998Y18104659D01*
X26651627Y18122900D01*
X26647998Y18141141D01*
X26637665Y18156606D01*
X26634793Y18158524D01*
Y18328641D01*
X26632446Y18340439D01*
X26625763Y18350443D01*
X26625760Y18350443D01*
X26385873Y18590331D01*
Y18748972D01*
X26385873Y18748973D01*
X26384842Y18754152D01*
Y18797208D01*
X26385873Y18802386D01*
X26385873Y18802388D01*
Y19718684D01*
X26403760Y19722243D01*
X26419226Y19732574D01*
X26429559Y19748039D01*
X26433185Y19766280D01*
X26429559Y19784521D01*
X26419226Y19799985D01*
X26403760Y19810318D01*
X26385519Y19813947D01*
X26367279Y19810318D01*
X26353091Y19800838D01*
X26347217Y19802306D01*
X26340393Y19805750D01*
Y19866280D01*
X26345566Y19869736D01*
X26355899Y19885199D01*
X26359525Y19903439D01*
X26355899Y19921681D01*
X26345566Y19937144D01*
X26330099Y19947478D01*
X26311859Y19951106D01*
X26293619Y19947478D01*
X26278156Y19937144D01*
X26267822Y19921681D01*
X26264194Y19903439D01*
X26267822Y19885199D01*
X26278156Y19869736D01*
X26278729Y19869353D01*
Y18825374D01*
X26277698Y18820195D01*
X26277698Y18820193D01*
Y18731166D01*
X26277698Y18731165D01*
X26278729Y18725986D01*
Y18250298D01*
X26266028Y18243509D01*
X26258981Y18248218D01*
X26240741Y18251846D01*
X26222498Y18248218D01*
X26207034Y18237885D01*
X26205115Y18235011D01*
X26187469D01*
X26158401Y18264082D01*
X26148398Y18270766D01*
X26136600Y18273112D01*
X26136600Y18273112D01*
X26028271D01*
X25953720Y18347662D01*
X25943716Y18354346D01*
X25931918Y18356693D01*
X25931918Y18356693D01*
X16550951D01*
X15057472Y19850171D01*
Y21170828D01*
X15089291Y21202647D01*
X15092680Y21201974D01*
X15110921Y21205602D01*
X15126385Y21215935D01*
X15136719Y21231400D01*
X15140346Y21249640D01*
X15136719Y21267880D01*
X15126385Y21283345D01*
X15110921Y21293678D01*
X15098752Y21296098D01*
X15036018Y21358832D01*
X15026016Y21365515D01*
X15014217Y21367863D01*
X15014217Y21367862D01*
X14474501D01*
X13610802Y22231561D01*
X13600800Y22238245D01*
X13589000Y22240593D01*
X13588998Y22240591D01*
X13139421D01*
X13139420Y22240593D01*
X13127621Y22238245D01*
X13117618Y22231561D01*
X13117618Y22231561D01*
X12562769Y21676712D01*
X10544696D01*
X10537622Y21693790D01*
X10522395Y21713634D01*
X10502550Y21728862D01*
X10479440Y21738435D01*
X10454640Y21741699D01*
X10429840Y21738435D01*
X10406730Y21728862D01*
X10386885Y21713634D01*
X10371658Y21693790D01*
X10362085Y21670680D01*
X10358821Y21645880D01*
X10362085Y21621080D01*
X10371658Y21597971D01*
X10386885Y21578125D01*
X10406730Y21562898D01*
X10429840Y21553325D01*
X10454640Y21550061D01*
X10479440Y21553325D01*
X10502550Y21562898D01*
X10522395Y21578125D01*
X10537622Y21597971D01*
X10544696Y21615048D01*
X12575539D01*
X12575540Y21615047D01*
X12587339Y21617395D01*
X12597342Y21624078D01*
X13152191Y22178928D01*
X13576228D01*
X14439928Y21315228D01*
X14449931Y21308545D01*
X14461729Y21306197D01*
X14461731Y21306198D01*
X14939664D01*
X14945650Y21294997D01*
X14944502Y21293282D01*
X14940874Y21275040D01*
X14941548Y21271652D01*
X14902109Y21232211D01*
X14498392D01*
X13608263Y22122342D01*
X13598259Y22129025D01*
X13586459Y22131374D01*
X13586459Y22131372D01*
X13144501D01*
X13132701Y22129025D01*
X13122697Y22122342D01*
X13122697Y22122340D01*
X12042069Y21041711D01*
X10544696D01*
X10537622Y21058791D01*
X10522395Y21078635D01*
X10502550Y21093861D01*
X10479440Y21103435D01*
X10454640Y21106699D01*
X10429840Y21103435D01*
X10406730Y21093861D01*
X10386885Y21078635D01*
X10371658Y21058791D01*
X10362085Y21035680D01*
X10358821Y21010880D01*
X10362085Y20986079D01*
X10371658Y20962970D01*
X10386885Y20943124D01*
X10406730Y20927898D01*
X10429840Y20918324D01*
X10454640Y20915060D01*
X10479440Y20918324D01*
X10502550Y20927898D01*
X10522395Y20943124D01*
X10537622Y20962970D01*
X10544696Y20980048D01*
X12054839D01*
X12054840Y20980048D01*
X12066639Y20982394D01*
X12076642Y20989078D01*
X13157271Y22069708D01*
X13442819D01*
X13449608Y22057008D01*
X13447169Y22053358D01*
X13443971Y22051222D01*
X13443971Y22051221D01*
X11240662Y19847913D01*
X10647441D01*
Y19863950D01*
X10600571Y19910820D01*
X10506831D01*
X10459961Y19863950D01*
Y19770210D01*
X10506831Y19723340D01*
X10600571D01*
X10647441Y19770210D01*
Y19786247D01*
X11253432D01*
X11253433Y19786247D01*
X11265232Y19788596D01*
X11275235Y19795277D01*
X13415567Y21935609D01*
X13427721Y21931923D01*
X13428122Y21929900D01*
X13438455Y21914435D01*
X13438644Y21912508D01*
X11067838Y19541702D01*
X11061155Y19531699D01*
X11058807Y19519901D01*
X11058808Y19519899D01*
Y19431071D01*
X10713649Y19085912D01*
X10647441D01*
Y19101950D01*
X10600571Y19148820D01*
X10506831D01*
X10459961Y19101950D01*
Y19008211D01*
X10506831Y18961340D01*
X10600571D01*
X10647441Y19008211D01*
Y19024248D01*
X10726419D01*
X10726420Y19024248D01*
X10738219Y19026595D01*
X10748222Y19033278D01*
X11111441Y19396498D01*
X11111442Y19396498D01*
X11118125Y19406500D01*
X11120472Y19418300D01*
Y19507129D01*
X13493961Y21880618D01*
X13493962Y21880618D01*
X13500645Y21890620D01*
X13502992Y21902420D01*
Y21912515D01*
X13505865Y21914435D01*
X13516199Y21929900D01*
X13519826Y21948140D01*
X13516199Y21966380D01*
X13510680Y21974638D01*
X13506804Y21982903D01*
X13513918Y21990913D01*
X13521104Y21995715D01*
X13531438Y22011179D01*
X13535066Y22029420D01*
X13531438Y22047661D01*
X13525192Y22057008D01*
X13531981Y22069708D01*
X13573689D01*
X14463818Y21179578D01*
X14473820Y21172894D01*
X14485620Y21170547D01*
X14485622Y21170547D01*
X14914879D01*
X14914880Y21170547D01*
X14926678Y21172894D01*
X14936682Y21179578D01*
X14938594Y21181491D01*
X14950328Y21176630D01*
Y19818562D01*
X14950327Y19818562D01*
X14952675Y19806763D01*
X14959358Y19796761D01*
X16497539Y18258578D01*
X16497540Y18258578D01*
X16507542Y18251895D01*
X16519342Y18249548D01*
X24711926D01*
X24714453Y18236848D01*
X24707523Y18233977D01*
X24685818Y18217322D01*
X24669164Y18195618D01*
X24668233Y18193372D01*
X24454160D01*
Y18202180D01*
X24334160D01*
Y18193372D01*
X24193500D01*
X24177737Y18190236D01*
X24164372Y18181306D01*
X24116666Y18133600D01*
X24064920D01*
Y18124791D01*
X24015700D01*
X23999937Y18121655D01*
X23986572Y18112727D01*
X23931245Y18057401D01*
X23879500D01*
Y18048592D01*
X23820120D01*
X23804356Y18045456D01*
X23790993Y18036526D01*
X23677246Y17922780D01*
X23625500D01*
Y17822780D01*
X23745500D01*
Y17874525D01*
X23756073Y17885100D01*
X23765938Y17877003D01*
X23765923Y17876981D01*
X23762294Y17858740D01*
X23765923Y17840498D01*
X23776254Y17825035D01*
X23791719Y17814702D01*
X23809959Y17811073D01*
X23828201Y17814702D01*
X23843665Y17825035D01*
X23845584Y17827908D01*
X23879500D01*
Y17807401D01*
X23999500D01*
Y17907401D01*
X23879500D01*
Y17889572D01*
X23845584D01*
X23843665Y17892445D01*
X23828201Y17902779D01*
X23809959Y17906406D01*
X23791719Y17902779D01*
X23791696Y17902762D01*
X23783600Y17912627D01*
X23837183Y17966208D01*
X23879500D01*
Y17957401D01*
X23999500D01*
Y18009146D01*
X24032762Y18042409D01*
X24064920D01*
Y18033600D01*
X24184920D01*
Y18085345D01*
X24210562Y18110988D01*
X24334160D01*
Y18102180D01*
X24454160D01*
Y18110988D01*
X24660809D01*
X24669164Y18090822D01*
X24685818Y18069118D01*
X24707523Y18052464D01*
X24732797Y18041994D01*
X24759920Y18038423D01*
X24787044Y18041994D01*
X24812318Y18052464D01*
X24834023Y18069118D01*
X24850676Y18090822D01*
X24861147Y18116096D01*
X24864717Y18143221D01*
X24861147Y18170343D01*
X24850676Y18195618D01*
X24834023Y18217322D01*
X24812318Y18233977D01*
X24805386Y18236848D01*
X24807913Y18249548D01*
X25900308D01*
X25991705Y18158151D01*
X25985449Y18146448D01*
X25979120Y18147707D01*
X25960880Y18144078D01*
X25945416Y18133745D01*
X25935083Y18118282D01*
X25931454Y18100040D01*
X25935083Y18081799D01*
X25945416Y18066335D01*
X25948288Y18064417D01*
Y17856201D01*
X25948288Y17856200D01*
X25950635Y17844402D01*
X25957318Y17834398D01*
X26159109Y17632610D01*
Y16517621D01*
X26159106Y16517619D01*
X26161456Y16505821D01*
X26168137Y16495818D01*
X26228857Y16435098D01*
X26228857Y16435098D01*
X26238861Y16428415D01*
X26250659Y16426067D01*
X26250662Y16426068D01*
X26281491D01*
X26283411Y16423195D01*
X26298877Y16412863D01*
X26317117Y16409235D01*
X26335358Y16412863D01*
X26350821Y16423195D01*
X26361154Y16438660D01*
X26364783Y16456900D01*
X26361154Y16475140D01*
X26350821Y16490605D01*
X26335358Y16500938D01*
X26317117Y16504565D01*
X26298877Y16500938D01*
X26283411Y16490605D01*
X26281491Y16487732D01*
X26263431D01*
X26220773Y16530391D01*
Y17390822D01*
X26233472Y17397610D01*
X26240280Y17393062D01*
X26258521Y17389433D01*
X26276761Y17393062D01*
X26292224Y17403395D01*
X26293729Y17405644D01*
X26306427Y17401791D01*
Y17348264D01*
X26303555Y17346346D01*
X26293222Y17330881D01*
X26289594Y17312640D01*
X26293222Y17294398D01*
X26303555Y17278935D01*
X26319019Y17268602D01*
X26337259Y17264973D01*
X26355502Y17268602D01*
X26370966Y17278935D01*
X26381299Y17294398D01*
X26384927Y17312640D01*
X26381299Y17330881D01*
X26370966Y17346346D01*
X26368091Y17348264D01*
Y17432306D01*
X26380792Y17433557D01*
X26382434Y17425301D01*
X26389117Y17415298D01*
X26573129Y17231290D01*
Y17170464D01*
X26570255Y17168546D01*
X26559921Y17153081D01*
X26556293Y17134840D01*
X26559921Y17116599D01*
X26570255Y17101135D01*
X26585718Y17090802D01*
X26603961Y17087173D01*
X26622202Y17090802D01*
X26637665Y17101135D01*
X26647998Y17116599D01*
X26651627Y17134840D01*
X26647998Y17153081D01*
X26637665Y17168546D01*
X26634793Y17170464D01*
Y17244060D01*
X26632446Y17255859D01*
X26625763Y17265862D01*
X26625760Y17265862D01*
X26441751Y17449870D01*
Y17464581D01*
X26447137Y17467850D01*
X26454453Y17469344D01*
X26488177Y17435619D01*
X26488177Y17435619D01*
X26498181Y17428935D01*
X26509979Y17426587D01*
X26509982Y17426588D01*
X26555637D01*
X26557556Y17423715D01*
X26573019Y17413382D01*
X26591260Y17409753D01*
X26609500Y17413382D01*
X26624966Y17423715D01*
X26635297Y17439178D01*
X26638925Y17457420D01*
X26635297Y17475661D01*
X26624966Y17491125D01*
X26609500Y17501459D01*
X26591260Y17505086D01*
X26573019Y17501459D01*
X26557556Y17491125D01*
X26555637Y17488252D01*
X26522751D01*
X26505252Y17505751D01*
Y17647849D01*
X26585333Y17727928D01*
X26588721Y17727254D01*
X26606961Y17730882D01*
X26622424Y17741216D01*
X26632758Y17756679D01*
X26636386Y17774921D01*
X26632758Y17793161D01*
X26622424Y17808624D01*
X26606961Y17818958D01*
X26588721Y17822586D01*
X26570480Y17818958D01*
X26555014Y17808624D01*
X26544681Y17793161D01*
X26541055Y17774921D01*
X26541727Y17771532D01*
X26454453Y17684256D01*
X26447137Y17685750D01*
X26441751Y17689018D01*
Y17787549D01*
X26484573Y17830371D01*
X26492200Y17828854D01*
X26510440Y17832481D01*
X26525906Y17842815D01*
X26536237Y17858279D01*
X26539865Y17876520D01*
X26536237Y17894762D01*
X26525906Y17910225D01*
X26510440Y17920558D01*
X26492200Y17924187D01*
X26473959Y17920558D01*
X26458496Y17910225D01*
X26448163Y17894762D01*
X26444788Y17877789D01*
X26389117Y17822122D01*
X26382434Y17812119D01*
X26380792Y17803864D01*
X26368091Y17805115D01*
Y17856200D01*
X26368094Y17856200D01*
X26365744Y17867999D01*
X26359061Y17878001D01*
X26359061Y17878001D01*
X26037350Y18199715D01*
X26042209Y18211449D01*
X26123828D01*
X26152899Y18182378D01*
X26162900Y18175694D01*
X26174701Y18173347D01*
X26174701Y18173347D01*
X26205115D01*
X26207034Y18170474D01*
X26222498Y18160143D01*
X26240741Y18156514D01*
X26258981Y18160143D01*
X26266028Y18164851D01*
X26278729Y18158063D01*
Y18097261D01*
X26278726Y18097260D01*
X26281076Y18085461D01*
X26287759Y18075458D01*
X26363718Y17999500D01*
X26363718Y17999498D01*
X26373721Y17992815D01*
X26385519Y17990466D01*
X26385522Y17990468D01*
X26642059D01*
X26653860Y17992815D01*
X26663501Y17999257D01*
X26680621Y18002663D01*
X26684875Y18005505D01*
X26696078Y17999519D01*
Y16843842D01*
X26543353Y16691116D01*
X26530652Y16696378D01*
Y17160176D01*
X26533524Y17162096D01*
X26543857Y17177559D01*
X26547485Y17195799D01*
X26543857Y17214041D01*
X26533524Y17229504D01*
X26518060Y17239838D01*
X26499820Y17243466D01*
X26481580Y17239838D01*
X26466116Y17229504D01*
X26455783Y17214041D01*
X26452155Y17195799D01*
X26455783Y17177559D01*
X26466116Y17162096D01*
X26468988Y17160176D01*
Y16395628D01*
X26465225Y16389996D01*
X26462878Y16378197D01*
X26462878Y16378197D01*
Y16084311D01*
X26462878Y16084309D01*
X26465225Y16072511D01*
X26471909Y16062508D01*
X26696457Y15837959D01*
X26696457Y15837958D01*
X26706461Y15831274D01*
X26718259Y15828928D01*
X26718262Y15828928D01*
X27945078D01*
X27945081Y15828928D01*
X27956879Y15831274D01*
X27966882Y15837958D01*
X28171210Y16042288D01*
X31584900D01*
X31584900Y16042287D01*
X31596698Y16044635D01*
X31606702Y16051318D01*
X31623074Y16067690D01*
X31625540Y16069337D01*
X31825140Y16268939D01*
X31825143Y16268941D01*
X31831824Y16278943D01*
X31834174Y16290742D01*
X31834171Y16290742D01*
Y20932140D01*
X31834174Y20932140D01*
X31831824Y20943939D01*
X31825143Y20953941D01*
X31680173Y21098911D01*
X31686453Y21114072D01*
X31689587Y21137880D01*
X31686453Y21161688D01*
X31677264Y21183873D01*
X31662646Y21202925D01*
X31643594Y21217543D01*
X31621408Y21226733D01*
X31597601Y21229868D01*
X31573792Y21226733D01*
X31551608Y21217543D01*
X31532556Y21202925D01*
X31517938Y21183873D01*
X31508746Y21161688D01*
X31505612Y21137880D01*
X31508746Y21114072D01*
X31517938Y21091887D01*
X31532556Y21072835D01*
X31551608Y21058217D01*
X31573792Y21049026D01*
X31597601Y21045892D01*
X31621408Y21049026D01*
X31636569Y21055307D01*
X31772507Y20919370D01*
Y16303513D01*
X31754465Y16285471D01*
X31742731Y16290331D01*
Y18126108D01*
X31742734Y18126109D01*
X31740384Y18137907D01*
X31733701Y18147911D01*
X31733701Y18147911D01*
X31663492Y18218121D01*
X31653488Y18224805D01*
X31641690Y18227153D01*
X31641687Y18227151D01*
X31503931D01*
X31172174Y18558911D01*
X31178452Y18574072D01*
X31181586Y18597881D01*
X31178452Y18621687D01*
X31169263Y18643874D01*
X31154645Y18662926D01*
X31135593Y18677544D01*
X31113409Y18686732D01*
X31089600Y18689867D01*
X31065793Y18686732D01*
X31043607Y18677544D01*
X31024554Y18662926D01*
X31009937Y18643874D01*
X31000748Y18621687D01*
X30997614Y18597881D01*
X31000748Y18574072D01*
X31009937Y18551888D01*
X31024554Y18532835D01*
X31043607Y18518217D01*
X31065793Y18509027D01*
X31089600Y18505893D01*
X31113409Y18509027D01*
X31128568Y18515308D01*
X31469357Y18174519D01*
X31469357Y18174518D01*
X31479361Y18167834D01*
X31491159Y18165488D01*
X31491162Y18165488D01*
X31527383D01*
X31530917Y18152788D01*
X31517938Y18135873D01*
X31508746Y18113689D01*
X31505612Y18089880D01*
X31508746Y18066072D01*
X31515027Y18050911D01*
X31311639Y17847522D01*
X31304956Y17837518D01*
X31302606Y17825720D01*
X31302609Y17825719D01*
Y17355891D01*
X31163190Y17216472D01*
X30312360D01*
X30312360Y17216473D01*
X30300562Y17214125D01*
X30290558Y17207442D01*
X30290558Y17207442D01*
X30139569Y17056451D01*
X29907697D01*
X29903845Y17069151D01*
X29904901Y17069858D01*
X30139713Y17304668D01*
X30345380D01*
X30345380Y17304668D01*
X30357178Y17307014D01*
X30367181Y17313698D01*
X30467371Y17413889D01*
X31114999D01*
X31114999Y17413887D01*
X31126797Y17416235D01*
X31136801Y17422919D01*
X31235861Y17521979D01*
X31235861Y17521979D01*
X31242545Y17531981D01*
X31244891Y17543781D01*
Y17711420D01*
X31244894Y17711420D01*
X31242545Y17723219D01*
X31235861Y17733221D01*
X31235861Y17733221D01*
X31172174Y17796912D01*
X31178452Y17812073D01*
X31181586Y17835880D01*
X31178452Y17859688D01*
X31169263Y17881873D01*
X31154645Y17900925D01*
X31135593Y17915543D01*
X31113409Y17924733D01*
X31089600Y17927867D01*
X31065793Y17924733D01*
X31043607Y17915543D01*
X31024554Y17900925D01*
X31009937Y17881873D01*
X31000748Y17859688D01*
X30997614Y17835880D01*
X31000748Y17812073D01*
X31009937Y17789886D01*
X31024554Y17770834D01*
X31043607Y17756216D01*
X31065793Y17747028D01*
X31089600Y17743893D01*
X31113409Y17747028D01*
X31128568Y17753307D01*
X31183228Y17698650D01*
Y17627347D01*
X31170529Y17624820D01*
X31169263Y17627873D01*
X31154645Y17646925D01*
X31135593Y17661543D01*
X31113409Y17670734D01*
X31089600Y17673866D01*
X31065793Y17670734D01*
X31043607Y17661543D01*
X31024554Y17646925D01*
X31009937Y17627873D01*
X31000748Y17605688D01*
X30998996Y17592392D01*
X29657111D01*
X28909222Y18340282D01*
X28899219Y18346965D01*
X28887421Y18349313D01*
X28887418Y18349312D01*
X28438828D01*
X28431381Y18362013D01*
X28431558Y18362331D01*
X28434052Y18363847D01*
X28676599D01*
X28676599Y18363847D01*
X28688400Y18366196D01*
X28698401Y18372878D01*
X29483472Y19157948D01*
X29486859Y19157274D01*
X29505099Y19160902D01*
X29520566Y19171236D01*
X29530899Y19186699D01*
X29534525Y19204939D01*
X29530899Y19223181D01*
X29520566Y19238644D01*
X29505099Y19248978D01*
X29486859Y19252606D01*
X29468619Y19248978D01*
X29453156Y19238644D01*
X29442822Y19223181D01*
X29439194Y19204939D01*
X29439868Y19201552D01*
X28663828Y18425513D01*
X28422665D01*
X28420746Y18428384D01*
X28405280Y18438718D01*
X28387039Y18442346D01*
X28368799Y18438718D01*
X28353336Y18428384D01*
X28343002Y18412921D01*
X28339374Y18394679D01*
X28343002Y18376439D01*
X28344247Y18374577D01*
X28334381Y18366483D01*
X27813425Y18887440D01*
X27980710Y19054729D01*
X28346515D01*
X28354639Y19042310D01*
X28354053Y19037798D01*
X28345541Y19025061D01*
X28341913Y19006821D01*
X28342587Y19003432D01*
X28115189Y18776031D01*
X28095004D01*
X28093085Y18778905D01*
X28077621Y18789238D01*
X28059381Y18792867D01*
X28041138Y18789238D01*
X28025674Y18778905D01*
X28015341Y18763441D01*
X28011713Y18745200D01*
X28015341Y18726959D01*
X28025674Y18711494D01*
X28041138Y18701163D01*
X28059381Y18697534D01*
X28077621Y18701163D01*
X28093085Y18711494D01*
X28095004Y18714368D01*
X28127960D01*
X28127960Y18714368D01*
X28139758Y18716714D01*
X28149762Y18723398D01*
X28386191Y18959828D01*
X28389581Y18959154D01*
X28407822Y18962782D01*
X28423285Y18973116D01*
X28433618Y18988579D01*
X28437247Y19006821D01*
X28433618Y19025061D01*
X28425107Y19037798D01*
X28424020Y19046190D01*
X28425107Y19054582D01*
X28433618Y19067319D01*
X28437247Y19085561D01*
X28433618Y19103801D01*
X28431461Y19107027D01*
X28437448Y19118228D01*
X28940689D01*
X28949649Y19109268D01*
X28948975Y19105881D01*
X28952603Y19087639D01*
X28962936Y19072176D01*
X28978400Y19061842D01*
X28996640Y19058214D01*
X29014880Y19061842D01*
X29030344Y19072176D01*
X29040677Y19087639D01*
X29044305Y19105881D01*
X29040677Y19124121D01*
X29030344Y19139584D01*
X29014880Y19149918D01*
X28996640Y19153546D01*
X28993253Y19152872D01*
X28982175Y19163948D01*
X28987436Y19176648D01*
X29260800D01*
X29260800Y19176646D01*
X29272598Y19178995D01*
X29282602Y19185678D01*
X29290433Y19193507D01*
X29293820Y19192834D01*
X29312061Y19196461D01*
X29327524Y19206795D01*
X29337857Y19222260D01*
X29341486Y19240500D01*
X29337857Y19258742D01*
X29331613Y19268088D01*
X29338400Y19280788D01*
X30012640D01*
X30012640Y19280788D01*
X30024438Y19283134D01*
X30034442Y19289818D01*
X30960132Y20215508D01*
X31044135D01*
X31046661Y20202808D01*
X31043607Y20201543D01*
X31024554Y20186925D01*
X31009937Y20167873D01*
X31000748Y20145688D01*
X30997614Y20121880D01*
X31000748Y20098071D01*
X31009937Y20075887D01*
X31024554Y20056834D01*
X31043607Y20042216D01*
X31065793Y20033028D01*
X31089600Y20029893D01*
X31113409Y20033028D01*
X31135593Y20042216D01*
X31154645Y20056834D01*
X31169263Y20075887D01*
X31178452Y20098071D01*
X31181586Y20121880D01*
X31178452Y20145688D01*
X31169263Y20167873D01*
X31154645Y20186925D01*
X31135593Y20201543D01*
X31125409Y20205762D01*
X31124435Y20209663D01*
X31125073Y20219649D01*
X31132391Y20224538D01*
X31406042Y20498189D01*
X31412726Y20508192D01*
X31415073Y20519991D01*
X31415073Y20519992D01*
Y22113239D01*
X31415073Y22113240D01*
X31412726Y22125040D01*
X31406042Y22135042D01*
X31406042Y22135042D01*
X31172174Y22368912D01*
X31178452Y22384071D01*
X31181586Y22407880D01*
X31178452Y22431688D01*
X31169263Y22453873D01*
X31154645Y22472925D01*
X31135593Y22487543D01*
X31113409Y22496733D01*
X31089600Y22499867D01*
D02*
G37*
G36*
X31597601Y21991867D02*
X31573792Y21988733D01*
X31551608Y21979543D01*
X31532556Y21964925D01*
X31517938Y21945872D01*
X31508746Y21923688D01*
X31505612Y21899879D01*
X31508746Y21876073D01*
X31517938Y21853886D01*
X31532556Y21834834D01*
X31551608Y21820216D01*
X31573792Y21811028D01*
X31597601Y21807893D01*
X31621408Y21811028D01*
X31643594Y21820216D01*
X31662646Y21834834D01*
X31677264Y21853886D01*
X31686453Y21876073D01*
X31689587Y21899879D01*
X31686453Y21923688D01*
X31677264Y21945872D01*
X31662646Y21964925D01*
X31643594Y21979543D01*
X31621408Y21988733D01*
X31597601Y21991867D01*
D02*
G37*
G36*
X10454640Y21995699D02*
X10429840Y21992435D01*
X10406730Y21982861D01*
X10386885Y21967635D01*
X10371658Y21947791D01*
X10362085Y21924680D01*
X10358821Y21899879D01*
X10362085Y21875079D01*
X10371658Y21851970D01*
X10386885Y21832124D01*
X10406730Y21816898D01*
X10429840Y21807326D01*
X10454640Y21804060D01*
X10479440Y21807326D01*
X10502550Y21816898D01*
X10522395Y21832124D01*
X10537622Y21851970D01*
X10547195Y21875079D01*
X10550459Y21899879D01*
X10547195Y21924680D01*
X10537622Y21947791D01*
X10522395Y21967635D01*
X10502550Y21982861D01*
X10479440Y21992435D01*
X10454640Y21995699D01*
D02*
G37*
G36*
X12151360Y22790826D02*
X12133119Y22787198D01*
X12117655Y22776865D01*
X12107322Y22761401D01*
X12103694Y22743159D01*
X12107322Y22724919D01*
X12117655Y22709454D01*
X12133119Y22699123D01*
X12150089Y22695747D01*
X12505478Y22340359D01*
X12505478Y22340358D01*
X12515481Y22333675D01*
X12527280Y22331328D01*
X13680370D01*
X14357138Y21654559D01*
X14357138Y21654558D01*
X14367142Y21647874D01*
X14378940Y21645528D01*
X14378941Y21645528D01*
X14615096D01*
X14617015Y21642654D01*
X14632478Y21632323D01*
X14650720Y21628694D01*
X14668961Y21632323D01*
X14684425Y21642654D01*
X14694759Y21658119D01*
X14698386Y21676360D01*
X14697079Y21682928D01*
X14708064Y21692804D01*
X14723241Y21695822D01*
X14738705Y21706155D01*
X14749037Y21721619D01*
X14752666Y21739861D01*
X14750394Y21751283D01*
X14754134Y21761024D01*
X14759775Y21764262D01*
X14773253Y21766942D01*
X14788718Y21777275D01*
X14799049Y21792738D01*
X14802678Y21810980D01*
X14799355Y21827689D01*
X14801860Y21832938D01*
X14807159Y21839944D01*
X14823241Y21843143D01*
X14838704Y21853474D01*
X14849037Y21868939D01*
X14852666Y21887180D01*
X14849037Y21905421D01*
X14838704Y21920885D01*
X14823241Y21931218D01*
X14805000Y21934846D01*
X14786758Y21931218D01*
X14771295Y21920885D01*
X14769376Y21918011D01*
X14539030D01*
X13867342Y22589702D01*
X13857339Y22596385D01*
X13845540Y22598734D01*
X13845538Y22598732D01*
X12748324D01*
X12746405Y22601605D01*
X12730941Y22611938D01*
X12712700Y22615565D01*
X12694459Y22611938D01*
X12678995Y22601605D01*
X12668662Y22586140D01*
X12665034Y22567900D01*
X12666924Y22558401D01*
X12655219Y22552144D01*
X12528973Y22678391D01*
X12529226Y22679660D01*
X12525598Y22697900D01*
X12515265Y22713365D01*
X12499801Y22723698D01*
X12481560Y22727325D01*
X12463319Y22723698D01*
X12447855Y22713365D01*
X12437522Y22697900D01*
X12433894Y22679660D01*
X12435778Y22670192D01*
X12428339Y22658926D01*
X12426172Y22658337D01*
X12409979Y22655118D01*
X12394515Y22644785D01*
X12384182Y22629321D01*
X12380554Y22611079D01*
X12384182Y22592839D01*
X12394515Y22577374D01*
X12409979Y22567043D01*
X12428220Y22563414D01*
X12429490Y22563667D01*
X12571518Y22421638D01*
X12581521Y22414955D01*
X12593320Y22412607D01*
X12593321Y22412608D01*
X13718469D01*
X14411185Y21719891D01*
X14409691Y21712579D01*
X14406421Y21707191D01*
X14391711D01*
X13714941Y22383961D01*
X13704939Y22390645D01*
X13693140Y22392993D01*
X13693140Y22392992D01*
X12540051D01*
X12197509Y22735535D01*
X12199026Y22743159D01*
X12195398Y22761401D01*
X12185065Y22776865D01*
X12169601Y22787198D01*
X12151360Y22790826D01*
D02*
G37*
G36*
X14172032Y22898877D02*
X14153790Y22895248D01*
X14138327Y22884917D01*
X14127994Y22869453D01*
X14124367Y22851212D01*
X14127994Y22832971D01*
X14138327Y22817506D01*
Y22805721D01*
X14136955Y22804805D01*
X14126622Y22789342D01*
X14122993Y22771100D01*
X14126622Y22752859D01*
X14136955Y22737395D01*
X14152419Y22727061D01*
X14170660Y22723434D01*
X14188901Y22727061D01*
X14204366Y22737395D01*
X14206284Y22740268D01*
X15300890D01*
X16531589Y21509567D01*
X16530914Y21506180D01*
X16534541Y21487939D01*
X16544875Y21472475D01*
X16560339Y21462141D01*
X16562363Y21461740D01*
X16566051Y21449586D01*
X16555334Y21438872D01*
X16551947Y21439546D01*
X16533707Y21435918D01*
X16518242Y21425584D01*
X16507909Y21410121D01*
X16504282Y21391879D01*
X16507909Y21373639D01*
X16518242Y21358176D01*
X16533707Y21347842D01*
X16551947Y21344214D01*
X16570187Y21347842D01*
X16585652Y21358176D01*
X16595984Y21373639D01*
X16599612Y21391879D01*
X16598940Y21395268D01*
X16662370Y21458701D01*
X16662372Y21458701D01*
X16669055Y21468704D01*
X16671402Y21480502D01*
Y21545789D01*
X16671404Y21545790D01*
X16669055Y21557590D01*
X16662372Y21567592D01*
X15356950Y22873013D01*
X15346947Y22879697D01*
X15335149Y22882043D01*
X15335147Y22882043D01*
X14207655D01*
X14205736Y22884917D01*
X14190273Y22895248D01*
X14172032Y22898877D01*
D02*
G37*
G36*
X10454640Y21360699D02*
X10429840Y21357436D01*
X10406730Y21347862D01*
X10386885Y21332635D01*
X10371658Y21312790D01*
X10362085Y21289680D01*
X10358821Y21264880D01*
X10362085Y21240080D01*
X10371658Y21216969D01*
X10386885Y21197125D01*
X10406730Y21181898D01*
X10429840Y21172325D01*
X10454640Y21169061D01*
X10479440Y21172325D01*
X10502550Y21181898D01*
X10522395Y21197125D01*
X10537622Y21216969D01*
X10547195Y21240080D01*
X10550459Y21264880D01*
X10547195Y21289680D01*
X10537622Y21312790D01*
X10522395Y21332635D01*
X10502550Y21347862D01*
X10479440Y21357436D01*
X10454640Y21360699D01*
D02*
G37*
G36*
X18603600Y21049835D02*
X18580190Y21045180D01*
X18560342Y21031917D01*
X18548186Y21013724D01*
X18496281D01*
X18496280Y21013724D01*
X18485472Y21011572D01*
X18476309Y21005450D01*
X18476309Y21005450D01*
X18004521Y20533662D01*
X17711369D01*
X17701337Y20548677D01*
X17681491Y20561938D01*
X17658080Y20566595D01*
X17634669Y20561938D01*
X17614822Y20548677D01*
X17601561Y20528831D01*
X17596906Y20505420D01*
X17601561Y20482008D01*
X17614822Y20462163D01*
X17634669Y20448901D01*
X17658080Y20444244D01*
X17681491Y20448901D01*
X17701337Y20462163D01*
X17711369Y20477177D01*
X18016219D01*
X18016220Y20477177D01*
X18027028Y20479327D01*
X18036191Y20485449D01*
X18507977Y20957237D01*
X18552434D01*
X18560342Y20945403D01*
X18580190Y20932141D01*
X18603600Y20927484D01*
X18627011Y20932141D01*
X18646857Y20945403D01*
X18660120Y20965250D01*
X18664775Y20988660D01*
X18660120Y21012071D01*
X18646857Y21031917D01*
X18627011Y21045180D01*
X18603600Y21049835D01*
D02*
G37*
G36*
X19655891Y23267979D02*
X18672913D01*
X18661430Y23263225D01*
X18656676Y23251744D01*
Y22242780D01*
X18661430Y22231299D01*
X18672913Y22226544D01*
X19455849D01*
Y22077679D01*
X19458984Y22061917D01*
X19467912Y22048553D01*
X20118790Y21397678D01*
Y21111761D01*
X19956879Y20949850D01*
X19222258D01*
X19220879Y20951917D01*
X19201031Y20965179D01*
X19177620Y20969835D01*
X19166478Y20967619D01*
X19160222Y20979323D01*
X19299336Y21118439D01*
X19317252Y21122002D01*
X19337097Y21135263D01*
X19350359Y21155109D01*
X19355016Y21178520D01*
X19350359Y21201932D01*
X19337097Y21221777D01*
X19317252Y21235039D01*
X19293840Y21239696D01*
X19278813Y21236707D01*
X19273859Y21248669D01*
X19278036Y21251462D01*
X19291299Y21271309D01*
X19295955Y21294720D01*
X19291299Y21318130D01*
X19278036Y21337978D01*
X19258191Y21351239D01*
X19234779Y21355894D01*
X19211369Y21351239D01*
X19191522Y21337978D01*
X19178261Y21318130D01*
X19174698Y21300217D01*
X18316504Y20442023D01*
X18315939Y20442136D01*
X18292529Y20437479D01*
X18272684Y20424217D01*
X18259421Y20404372D01*
X18254765Y20380960D01*
X18259421Y20357549D01*
X18272684Y20337703D01*
X18292529Y20324442D01*
X18315939Y20319785D01*
X18339351Y20324442D01*
X18347968Y20330199D01*
X18357124Y20321043D01*
X18353401Y20315471D01*
X18348746Y20292059D01*
X18353401Y20268649D01*
X18366663Y20248804D01*
X18386510Y20235541D01*
X18409920Y20230885D01*
X18433331Y20235541D01*
X18453177Y20248804D01*
X18466438Y20268649D01*
X18470633Y20289734D01*
X19106956Y20926057D01*
X19118661Y20919801D01*
X19116444Y20908659D01*
X19121101Y20885249D01*
X19134363Y20865402D01*
X19136429Y20864021D01*
Y20304140D01*
X19139565Y20288376D01*
X19148494Y20275014D01*
X19276752Y20146756D01*
X19275845Y20142200D01*
X19280501Y20118790D01*
X19293764Y20098943D01*
X19313609Y20085681D01*
X19337019Y20081026D01*
X19360431Y20085681D01*
X19380276Y20098943D01*
X19393539Y20118790D01*
X19398195Y20142200D01*
X19393539Y20165611D01*
X19380276Y20185457D01*
X19360431Y20198718D01*
X19337019Y20203375D01*
X19336700Y20203313D01*
X19218813Y20321202D01*
Y20864021D01*
X19220879Y20865402D01*
X19222258Y20867468D01*
X19310101D01*
X19313248Y20854768D01*
X19300821Y20836171D01*
X19296165Y20812759D01*
X19300821Y20789349D01*
X19314082Y20769502D01*
X19333929Y20756241D01*
X19357339Y20751585D01*
X19380751Y20756241D01*
X19400597Y20769502D01*
X19408900Y20781927D01*
X19621429D01*
X19995039Y20408318D01*
X19992125Y20393660D01*
X19996780Y20370248D01*
X20010043Y20350403D01*
X20029889Y20337141D01*
X20053300Y20332484D01*
X20076711Y20337141D01*
X20096558Y20350403D01*
X20109819Y20370248D01*
X20114474Y20393660D01*
X20109819Y20417072D01*
X20096558Y20436917D01*
X20076711Y20450179D01*
X20053300Y20454836D01*
X20038643Y20451920D01*
X19656001Y20834563D01*
X19645999Y20841245D01*
X19634200Y20843593D01*
X19634200Y20843591D01*
X19408900D01*
X19401431Y20854768D01*
X19404579Y20867468D01*
X19973940D01*
X19989703Y20870604D01*
X20003065Y20879533D01*
X20189107Y21065573D01*
X20198036Y21078937D01*
X20201170Y21094701D01*
Y21414740D01*
X20198036Y21430502D01*
X20189107Y21443867D01*
X19538231Y22094742D01*
Y22226544D01*
X19655891D01*
X19667372Y22231299D01*
X19672128Y22242780D01*
Y23251744D01*
X19667372Y23263225D01*
X19655891Y23267979D01*
D02*
G37*
G36*
X20990559Y20950134D02*
X20967149Y20945479D01*
X20951962Y20935332D01*
X20241776D01*
X20234190Y20940399D01*
X20210780Y20945055D01*
X20187369Y20940399D01*
X20167523Y20927138D01*
X20154260Y20907291D01*
X20149605Y20883881D01*
X20154260Y20860469D01*
X20167523Y20840622D01*
X20187369Y20827361D01*
X20210780Y20822704D01*
X20234190Y20827361D01*
X20254037Y20840622D01*
X20255351Y20842589D01*
X20951962D01*
X20967149Y20832442D01*
X20990559Y20827785D01*
X21013971Y20832442D01*
X21033817Y20845703D01*
X21047079Y20865549D01*
X21051735Y20888960D01*
X21047079Y20912370D01*
X21033817Y20932217D01*
X21013971Y20945479D01*
X20990559Y20950134D01*
D02*
G37*
G36*
X25059641Y21097897D02*
X25032516Y21094325D01*
X25007242Y21083856D01*
X24985538Y21067203D01*
X24968884Y21045499D01*
X24958414Y21020222D01*
X24954843Y20993100D01*
X24958414Y20965977D01*
X24968884Y20940701D01*
X24980463Y20925610D01*
Y20447678D01*
X24971423Y20435898D01*
X24960954Y20410623D01*
X24957384Y20383501D01*
X24960954Y20356377D01*
X24971423Y20331102D01*
X24988078Y20309398D01*
X25009782Y20292744D01*
X25035057Y20282274D01*
X25062180Y20278703D01*
X25089304Y20282274D01*
X25114578Y20292744D01*
X25136282Y20309398D01*
X25152936Y20331102D01*
X25163406Y20356377D01*
X25166977Y20383501D01*
X25163406Y20410623D01*
X25152936Y20435898D01*
X25138817Y20454298D01*
Y20913924D01*
X27109644D01*
X27152493Y20871072D01*
X27168893Y20858490D01*
X27187988Y20850580D01*
X27208481Y20847882D01*
X27228973Y20850580D01*
X27248068Y20858490D01*
X27264468Y20871072D01*
X27277051Y20887471D01*
X27284961Y20906567D01*
X27287659Y20927060D01*
X27284961Y20947552D01*
X27277051Y20966647D01*
X27264468Y20983047D01*
X27198428Y21049088D01*
X27182028Y21061670D01*
X27162933Y21069579D01*
X27142441Y21072276D01*
X25127129D01*
X25112038Y21083856D01*
X25086763Y21094325D01*
X25059641Y21097897D01*
D02*
G37*
G36*
X31597601Y20975867D02*
X31573792Y20972733D01*
X31551608Y20963544D01*
X31532556Y20948924D01*
X31517938Y20929874D01*
X31508746Y20907687D01*
X31505612Y20883881D01*
X31508746Y20860072D01*
X31517938Y20837888D01*
X31532556Y20818835D01*
X31551608Y20804218D01*
X31573792Y20795027D01*
X31597601Y20791893D01*
X31621408Y20795027D01*
X31643594Y20804218D01*
X31662646Y20818835D01*
X31677264Y20837888D01*
X31686453Y20860072D01*
X31689587Y20883881D01*
X31686453Y20907687D01*
X31677264Y20929874D01*
X31662646Y20948924D01*
X31643594Y20963544D01*
X31621408Y20972733D01*
X31597601Y20975867D01*
D02*
G37*
G36*
X31089600Y20721867D02*
X31065793Y20718733D01*
X31043607Y20709543D01*
X31024554Y20694925D01*
X31009937Y20675873D01*
X31000748Y20653688D01*
X30997614Y20629880D01*
X31000748Y20606071D01*
X31009937Y20583887D01*
X31024554Y20564835D01*
X31043607Y20550217D01*
X31065793Y20541026D01*
X31089600Y20537894D01*
X31113409Y20541026D01*
X31135593Y20550217D01*
X31154645Y20564835D01*
X31169263Y20583887D01*
X31178452Y20606071D01*
X31181586Y20629880D01*
X31178452Y20653688D01*
X31169263Y20675873D01*
X31154645Y20694925D01*
X31135593Y20709543D01*
X31113409Y20718733D01*
X31089600Y20721867D01*
D02*
G37*
G36*
X31597601Y20467867D02*
X31573792Y20464732D01*
X31551608Y20455544D01*
X31532556Y20440926D01*
X31517938Y20421873D01*
X31508746Y20399689D01*
X31505612Y20375880D01*
X31508746Y20352072D01*
X31517938Y20329887D01*
X31532556Y20310835D01*
X31551608Y20296217D01*
X31573792Y20287027D01*
X31597601Y20283893D01*
X31621408Y20287027D01*
X31636569Y20293307D01*
X31675989Y20253889D01*
Y20189291D01*
X31663962Y20185208D01*
X31662646Y20186925D01*
X31643594Y20201543D01*
X31621408Y20210733D01*
X31597601Y20213867D01*
X31573792Y20210733D01*
X31551608Y20201543D01*
X31532556Y20186925D01*
X31517938Y20167873D01*
X31508746Y20145688D01*
X31505612Y20121880D01*
X31508746Y20098071D01*
X31517938Y20075887D01*
X31532556Y20056834D01*
X31551608Y20042216D01*
X31573792Y20033028D01*
X31597601Y20029893D01*
X31621408Y20033028D01*
X31643594Y20042216D01*
X31662646Y20056834D01*
X31663962Y20058553D01*
X31675989Y20054469D01*
Y19681291D01*
X31663962Y19677208D01*
X31662646Y19678925D01*
X31643594Y19693542D01*
X31621408Y19702733D01*
X31597601Y19705867D01*
X31573792Y19702733D01*
X31558630Y19696452D01*
X31497482Y19757602D01*
X31487479Y19764285D01*
X31475681Y19766634D01*
X31475677Y19766632D01*
X31115405D01*
X31113409Y19779027D01*
X31135593Y19788217D01*
X31154645Y19802835D01*
X31169263Y19821887D01*
X31178452Y19844072D01*
X31181586Y19867880D01*
X31178452Y19891689D01*
X31169263Y19913873D01*
X31154645Y19932925D01*
X31135593Y19947543D01*
X31113409Y19956734D01*
X31089600Y19959866D01*
X31065793Y19956734D01*
X31043607Y19947543D01*
X31024554Y19932925D01*
X31009937Y19913873D01*
X31000748Y19891689D01*
X30997614Y19867880D01*
X31000748Y19844072D01*
X31009937Y19821887D01*
X31024554Y19802835D01*
X31043607Y19788217D01*
X31065793Y19779027D01*
X31063794Y19766632D01*
X30896561D01*
X30884760Y19764285D01*
X30874759Y19757602D01*
X30874759Y19757600D01*
X29650479Y18533322D01*
X29643796Y18523318D01*
X29641446Y18511520D01*
X29641449Y18511519D01*
Y17759744D01*
X29638574Y17757825D01*
X29628241Y17742361D01*
X29624615Y17724120D01*
X29628241Y17705879D01*
X29638574Y17690414D01*
X29654037Y17680083D01*
X29672281Y17676454D01*
X29690521Y17680083D01*
X29705984Y17690414D01*
X29716318Y17705879D01*
X29719946Y17724120D01*
X29716318Y17742361D01*
X29705984Y17757825D01*
X29703113Y17759744D01*
Y18498749D01*
X30909332Y19704968D01*
X31462909D01*
X31515027Y19652849D01*
X31508746Y19637688D01*
X31505612Y19613879D01*
X31508746Y19590073D01*
X31517938Y19567886D01*
X31532556Y19548836D01*
X31551608Y19534216D01*
X31566925Y19527872D01*
X31564398Y19515172D01*
X30990540D01*
X30990540Y19515173D01*
X30978741Y19512825D01*
X30968738Y19506142D01*
X30968738Y19506142D01*
X29828278Y18365681D01*
X29821594Y18355679D01*
X29819247Y18343880D01*
X29819247Y18343880D01*
Y17782603D01*
X29816376Y17780685D01*
X29806042Y17765221D01*
X29802414Y17746980D01*
X29806042Y17728738D01*
X29816376Y17713275D01*
X29831839Y17702942D01*
X29850079Y17699313D01*
X29868320Y17702942D01*
X29883786Y17713275D01*
X29894119Y17728738D01*
X29897745Y17746980D01*
X29894119Y17765221D01*
X29883786Y17780685D01*
X29880911Y17782603D01*
Y18331110D01*
X31003311Y19453508D01*
X31044135D01*
X31046661Y19440808D01*
X31043607Y19439543D01*
X31024554Y19424925D01*
X31009937Y19405873D01*
X31000748Y19383688D01*
X30997614Y19359880D01*
X31000748Y19336072D01*
X31009937Y19313887D01*
X31024554Y19294835D01*
X31043607Y19280217D01*
X31065793Y19271027D01*
X31089600Y19267892D01*
X31113409Y19271027D01*
X31135593Y19280217D01*
X31154645Y19294835D01*
X31169263Y19313887D01*
X31178452Y19336072D01*
X31181586Y19359880D01*
X31178452Y19383688D01*
X31169263Y19405873D01*
X31154645Y19424925D01*
X31135593Y19439543D01*
X31132541Y19440808D01*
X31135068Y19453508D01*
X31552133D01*
X31554660Y19440808D01*
X31551608Y19439543D01*
X31532556Y19424925D01*
X31517938Y19405873D01*
X31508746Y19383688D01*
X31505612Y19359880D01*
X31508746Y19336072D01*
X31517938Y19313887D01*
X31532556Y19294835D01*
X31551608Y19280217D01*
X31573792Y19271027D01*
X31597601Y19267892D01*
X31621408Y19271027D01*
X31643594Y19280217D01*
X31662646Y19294835D01*
X31677264Y19313887D01*
X31686453Y19336072D01*
X31689587Y19359880D01*
X31686453Y19383688D01*
X31677264Y19405873D01*
X31662646Y19424925D01*
X31643594Y19439543D01*
X31635257Y19442998D01*
X31634955Y19451488D01*
X31635794Y19456520D01*
X31644803Y19462538D01*
X31728622Y19546358D01*
X31728622Y19546358D01*
X31735306Y19556361D01*
X31737653Y19568159D01*
Y20266660D01*
X31737653Y20266660D01*
X31735306Y20278459D01*
X31728622Y20288461D01*
X31728622Y20288461D01*
X31680173Y20336911D01*
X31686453Y20352072D01*
X31689587Y20375880D01*
X31686453Y20399689D01*
X31677264Y20421873D01*
X31662646Y20440926D01*
X31643594Y20455544D01*
X31621408Y20464732D01*
X31597601Y20467867D01*
D02*
G37*
G36*
X13075920Y21917065D02*
X13057680Y21913438D01*
X13042215Y21903105D01*
X13031882Y21887640D01*
X13028255Y21869400D01*
X13031882Y21851160D01*
X13042215Y21835695D01*
X13045088Y21833775D01*
Y21760251D01*
X11386749Y20101912D01*
X10647441D01*
Y20117950D01*
X10600571Y20164819D01*
X10506831D01*
X10459961Y20117950D01*
Y20024210D01*
X10506831Y19977341D01*
X10600571D01*
X10647441Y20024210D01*
Y20040248D01*
X11399519D01*
X11399520Y20040247D01*
X11411319Y20042595D01*
X11421322Y20049278D01*
X13097720Y21725677D01*
X13097722Y21725677D01*
X13104405Y21735681D01*
X13106754Y21747479D01*
X13106752Y21747481D01*
Y21833775D01*
X13109625Y21835695D01*
X13119958Y21851160D01*
X13123586Y21869400D01*
X13119958Y21887640D01*
X13109625Y21903105D01*
X13094160Y21913438D01*
X13075920Y21917065D01*
D02*
G37*
G36*
X26344879Y20088266D02*
X26326639Y20084637D01*
X26311176Y20074306D01*
X26309256Y20071432D01*
X26156921D01*
X26156921Y20071432D01*
X26145651Y20069191D01*
X26139139Y20070486D01*
X26120898Y20066858D01*
X26105435Y20056525D01*
X26095102Y20041061D01*
X26091473Y20022820D01*
X26095102Y20004579D01*
X26105435Y19989114D01*
X26120898Y19978783D01*
X26139139Y19975154D01*
X26157382Y19978783D01*
X26172845Y19989114D01*
X26183179Y20004579D01*
X26184210Y20009769D01*
X26309256D01*
X26311176Y20006895D01*
X26326639Y19996562D01*
X26344879Y19992934D01*
X26363120Y19996562D01*
X26378586Y20006895D01*
X26388919Y20022359D01*
X26392545Y20040601D01*
X26388919Y20058841D01*
X26378586Y20074306D01*
X26363120Y20084637D01*
X26344879Y20088266D01*
D02*
G37*
G36*
X16804640Y19868095D02*
X16781229Y19863438D01*
X16761383Y19850177D01*
X16748122Y19830331D01*
X16743465Y19806920D01*
X16746988Y19789209D01*
X16217831Y19260052D01*
X16200121Y19263576D01*
X16176709Y19258919D01*
X16156863Y19245657D01*
X16143600Y19225810D01*
X16138945Y19202400D01*
X16143600Y19178989D01*
X16156863Y19159143D01*
X16176709Y19145882D01*
X16200121Y19141225D01*
X16223531Y19145882D01*
X16243378Y19159143D01*
X16256639Y19178989D01*
X16261295Y19202400D01*
X16257773Y19220111D01*
X16786929Y19749268D01*
X16804640Y19745744D01*
X16828052Y19750401D01*
X16847897Y19763663D01*
X16861159Y19783508D01*
X16865816Y19806920D01*
X16861159Y19830331D01*
X16847897Y19850177D01*
X16828052Y19863438D01*
X16804640Y19868095D01*
D02*
G37*
G36*
X12039949Y19769385D02*
X12016538Y19764728D01*
X11996692Y19751466D01*
X11986659Y19736452D01*
X11706461D01*
X11696428Y19751466D01*
X11676582Y19764728D01*
X11653171Y19769385D01*
X11629760Y19764728D01*
X11609913Y19751466D01*
X11596652Y19731619D01*
X11591995Y19708209D01*
X11596652Y19684798D01*
X11609913Y19664952D01*
X11629760Y19651691D01*
X11653171Y19647034D01*
X11676582Y19651691D01*
X11696428Y19664952D01*
X11706461Y19679967D01*
X11986659D01*
X11996692Y19664952D01*
X12016538Y19651691D01*
X12039949Y19647034D01*
X12063360Y19651691D01*
X12083207Y19664952D01*
X12096468Y19684798D01*
X12101125Y19708209D01*
X12096468Y19731619D01*
X12083207Y19751466D01*
X12063360Y19764728D01*
X12039949Y19769385D01*
D02*
G37*
G36*
X10600571Y19656821D02*
X10506831D01*
X10459961Y19609950D01*
Y19516209D01*
X10506831Y19469341D01*
X10600571D01*
X10647441Y19516209D01*
Y19609950D01*
X10600571Y19656821D01*
D02*
G37*
G36*
Y19402820D02*
X10506831D01*
X10459961Y19355949D01*
Y19262210D01*
X10506831Y19215340D01*
X10600571D01*
X10647441Y19262210D01*
Y19355949D01*
X10600571Y19402820D01*
D02*
G37*
G36*
X31089600Y19197867D02*
X31065793Y19194733D01*
X31043607Y19185542D01*
X31024554Y19170924D01*
X31009937Y19151872D01*
X31000748Y19129688D01*
X30997614Y19105881D01*
X31000748Y19082072D01*
X31009937Y19059888D01*
X31024554Y19040836D01*
X31043607Y19026218D01*
X31065793Y19017027D01*
X31089600Y19013893D01*
X31113409Y19017027D01*
X31135593Y19026218D01*
X31154645Y19040836D01*
X31169263Y19059888D01*
X31178452Y19082072D01*
X31181586Y19105881D01*
X31178452Y19129688D01*
X31169263Y19151872D01*
X31154645Y19170924D01*
X31135593Y19185542D01*
X31113409Y19194733D01*
X31089600Y19197867D01*
D02*
G37*
G36*
X28719781Y18978287D02*
X28701538Y18974658D01*
X28686075Y18964325D01*
X28675742Y18948862D01*
X28672113Y18930620D01*
X28672787Y18927232D01*
X28334982Y18589426D01*
X28320999Y18592206D01*
X28302759Y18588577D01*
X28287296Y18578246D01*
X28276962Y18562781D01*
X28273334Y18544540D01*
X28276962Y18526299D01*
X28287296Y18510835D01*
X28302759Y18500502D01*
X28320999Y18496873D01*
X28339240Y18500502D01*
X28354706Y18510835D01*
X28365039Y18526299D01*
X28366522Y18533757D01*
X28716391Y18883627D01*
X28719781Y18882954D01*
X28738022Y18886581D01*
X28753485Y18896915D01*
X28763818Y18912379D01*
X28767447Y18930620D01*
X28763818Y18948862D01*
X28753485Y18964325D01*
X28738022Y18974658D01*
X28719781Y18978287D01*
D02*
G37*
G36*
X10346571Y19148820D02*
X10252831D01*
X10205961Y19101950D01*
Y19008211D01*
X10252831Y18961340D01*
X10258509D01*
Y18930618D01*
X10261645Y18914856D01*
X10270574Y18901492D01*
X10354393Y18817673D01*
X10367757Y18808743D01*
X10383520Y18805609D01*
X11170920D01*
X11186683Y18808743D01*
X11200047Y18817673D01*
X11221186Y18838812D01*
X11221720Y18838744D01*
X11242213Y18841441D01*
X11261309Y18849350D01*
X11277707Y18861932D01*
X11290290Y18878331D01*
X11298199Y18897427D01*
X11300897Y18917920D01*
X11298199Y18938412D01*
X11290290Y18957509D01*
X11277707Y18973907D01*
X11261309Y18986490D01*
X11242213Y18994398D01*
X11221720Y18997096D01*
X11201227Y18994398D01*
X11182131Y18986490D01*
X11165733Y18973907D01*
X11153150Y18957509D01*
X11145241Y18938412D01*
X11142543Y18917920D01*
X11144811Y18900693D01*
X11137140Y18887991D01*
X10400582D01*
X10340892Y18947681D01*
Y18961340D01*
X10346571D01*
X10393441Y19008211D01*
Y19101950D01*
X10346571Y19148820D01*
D02*
G37*
G36*
X31597601Y18943867D02*
X31573792Y18940733D01*
X31551608Y18931543D01*
X31532556Y18916925D01*
X31517938Y18897873D01*
X31508746Y18875688D01*
X31505612Y18851880D01*
X31508746Y18828072D01*
X31517938Y18805887D01*
X31532556Y18786835D01*
X31551608Y18772217D01*
X31573792Y18763026D01*
X31597601Y18759892D01*
X31621408Y18763026D01*
X31643594Y18772217D01*
X31662646Y18786835D01*
X31677264Y18805887D01*
X31686453Y18828072D01*
X31689587Y18851880D01*
X31686453Y18875688D01*
X31677264Y18897873D01*
X31662646Y18916925D01*
X31643594Y18931543D01*
X31621408Y18940733D01*
X31597601Y18943867D01*
D02*
G37*
G36*
X28625800Y19054486D02*
X28607559Y19050858D01*
X28592096Y19040524D01*
X28581763Y19025061D01*
X28578134Y19006821D01*
X28579651Y18999194D01*
X28312964Y18732507D01*
X28303220Y18734447D01*
X28284979Y18730818D01*
X28269516Y18720485D01*
X28259183Y18705022D01*
X28255554Y18686780D01*
X28259183Y18668539D01*
X28269516Y18653075D01*
X28284979Y18642741D01*
X28303220Y18639114D01*
X28321460Y18642741D01*
X28336926Y18653075D01*
X28347260Y18668539D01*
X28350003Y18682339D01*
X28627072Y18959407D01*
X28644040Y18962782D01*
X28659506Y18973116D01*
X28669839Y18988579D01*
X28673465Y19006821D01*
X28669839Y19025061D01*
X28659506Y19040524D01*
X28644040Y19050858D01*
X28625800Y19054486D01*
D02*
G37*
G36*
X17045940Y19314375D02*
X17022530Y19309718D01*
X17002682Y19296457D01*
X16989421Y19276611D01*
X16985858Y19258696D01*
X16537523Y18810362D01*
X16519609Y18806799D01*
X16499763Y18793536D01*
X16486501Y18773691D01*
X16481845Y18750281D01*
X16486501Y18726869D01*
X16499763Y18707024D01*
X16519609Y18693761D01*
X16543021Y18689105D01*
X16566431Y18693761D01*
X16586276Y18707024D01*
X16599539Y18726869D01*
X16603102Y18744783D01*
X17051436Y19193118D01*
X17069351Y19196681D01*
X17089197Y19209943D01*
X17102460Y19229790D01*
X17107115Y19253200D01*
X17102460Y19276611D01*
X17089197Y19296457D01*
X17069351Y19309718D01*
X17045940Y19314375D01*
D02*
G37*
G36*
X17178020Y19169595D02*
X17154610Y19164938D01*
X17134763Y19151677D01*
X17121501Y19131831D01*
X17117938Y19113916D01*
X16651823Y18647803D01*
X16633910Y18644238D01*
X16614062Y18630977D01*
X16600801Y18611131D01*
X16596146Y18587720D01*
X16600801Y18564310D01*
X16614062Y18544463D01*
X16633910Y18531201D01*
X16657320Y18526546D01*
X16680731Y18531201D01*
X16700577Y18544463D01*
X16713840Y18564310D01*
X16717403Y18582224D01*
X17183516Y19048338D01*
X17201431Y19051901D01*
X17221277Y19065163D01*
X17234538Y19085008D01*
X17239195Y19108420D01*
X17234538Y19131831D01*
X17221277Y19151677D01*
X17201431Y19164938D01*
X17178020Y19169595D01*
D02*
G37*
G36*
X11064280Y18708884D02*
X11038175Y18705446D01*
X11013848Y18695370D01*
X10992959Y18679341D01*
X10976930Y18658450D01*
X10966854Y18634125D01*
X10963417Y18608020D01*
X10966854Y18581915D01*
X10976930Y18557588D01*
X10992959Y18536699D01*
X11013848Y18520670D01*
X11038175Y18510594D01*
X11064280Y18507156D01*
X11090385Y18510594D01*
X11114711Y18520670D01*
X11135601Y18536699D01*
X11151629Y18557588D01*
X11161706Y18581915D01*
X11165143Y18608020D01*
X11161706Y18634125D01*
X11151629Y18658450D01*
X11135601Y18679341D01*
X11114711Y18695370D01*
X11090385Y18705446D01*
X11064280Y18708884D01*
D02*
G37*
G36*
X31597601Y18689867D02*
X31573792Y18686732D01*
X31551608Y18677544D01*
X31532556Y18662926D01*
X31517938Y18643874D01*
X31508746Y18621687D01*
X31505612Y18597881D01*
X31508746Y18574072D01*
X31517938Y18551888D01*
X31532556Y18532835D01*
X31551608Y18518217D01*
X31573792Y18509027D01*
X31597601Y18505893D01*
X31621408Y18509027D01*
X31643594Y18518217D01*
X31662646Y18532835D01*
X31677264Y18551888D01*
X31686453Y18574072D01*
X31689587Y18597881D01*
X31686453Y18621687D01*
X31677264Y18643874D01*
X31662646Y18662926D01*
X31643594Y18677544D01*
X31621408Y18686732D01*
X31597601Y18689867D01*
D02*
G37*
G36*
X29474161Y18914786D02*
X29455920Y18911159D01*
X29440454Y18900826D01*
X29430121Y18885361D01*
X29426495Y18867120D01*
X29430121Y18848878D01*
X29440454Y18833415D01*
X29443329Y18831496D01*
Y18493811D01*
X29205768Y18256252D01*
X29202380Y18256926D01*
X29184140Y18253297D01*
X29168674Y18242966D01*
X29158344Y18227501D01*
X29154715Y18209261D01*
X29158344Y18191019D01*
X29168674Y18175555D01*
X29184140Y18165222D01*
X29202380Y18161594D01*
X29220621Y18165222D01*
X29236084Y18175555D01*
X29246417Y18191019D01*
X29250046Y18209261D01*
X29249371Y18212648D01*
X29495963Y18459238D01*
X29495963Y18459238D01*
X29502646Y18469241D01*
X29504993Y18481039D01*
X29504993Y18481041D01*
Y18831496D01*
X29507864Y18833415D01*
X29518198Y18848878D01*
X29521826Y18867120D01*
X29518198Y18885361D01*
X29507864Y18900826D01*
X29492401Y18911159D01*
X29474161Y18914786D01*
D02*
G37*
G36*
X31089600Y18435867D02*
X31065793Y18432733D01*
X31043607Y18423543D01*
X31024554Y18408925D01*
X31009937Y18389873D01*
X31000748Y18367688D01*
X30997614Y18343880D01*
X31000748Y18320071D01*
X31009937Y18297887D01*
X31024554Y18278835D01*
X31043607Y18264217D01*
X31065793Y18255026D01*
X31089600Y18251894D01*
X31113409Y18255026D01*
X31135593Y18264217D01*
X31154645Y18278835D01*
X31169263Y18297887D01*
X31178452Y18320071D01*
X31181586Y18343880D01*
X31178452Y18367688D01*
X31169263Y18389873D01*
X31154645Y18408925D01*
X31135593Y18423543D01*
X31113409Y18432733D01*
X31089600Y18435867D01*
D02*
G37*
G36*
X24454160Y18052180D02*
X24334160D01*
Y17952180D01*
X24454160D01*
Y17971349D01*
X24513518D01*
X24517935Y17964735D01*
X24533398Y17954402D01*
X24551640Y17950774D01*
X24569881Y17954402D01*
X24585345Y17964735D01*
X24595679Y17980199D01*
X24599306Y17998441D01*
X24595679Y18016681D01*
X24585345Y18032146D01*
X24569881Y18042477D01*
X24551640Y18046106D01*
X24533398Y18042477D01*
X24519234Y18033012D01*
X24454160D01*
Y18052180D01*
D02*
G37*
G36*
X10815280Y18124507D02*
X10791472Y18121371D01*
X10769287Y18112183D01*
X10750236Y18097565D01*
X10735617Y18078513D01*
X10726428Y18056328D01*
X10723293Y18032520D01*
X10726428Y18008711D01*
X10735617Y17986526D01*
X10750236Y17967474D01*
X10769287Y17952856D01*
X10791472Y17943668D01*
X10815280Y17940533D01*
X10839088Y17943668D01*
X10861274Y17952856D01*
X10880325Y17967474D01*
X10894943Y17986526D01*
X10904133Y18008711D01*
X10907267Y18032520D01*
X10904133Y18056328D01*
X10894943Y18078513D01*
X10880325Y18097565D01*
X10861274Y18112183D01*
X10839088Y18121371D01*
X10815280Y18124507D01*
D02*
G37*
G36*
X24184920Y17983600D02*
X24064920D01*
Y17883600D01*
X24184920D01*
Y17902768D01*
X24207861D01*
X24215675Y17891075D01*
X24231139Y17880742D01*
X24249380Y17877113D01*
X24267621Y17880742D01*
X24283086Y17891075D01*
X24293417Y17906538D01*
X24297046Y17924780D01*
X24293417Y17943021D01*
X24283086Y17958485D01*
X24267621Y17968819D01*
X24249380Y17972446D01*
X24231139Y17968819D01*
X24224576Y17964432D01*
X24184920D01*
Y17983600D01*
D02*
G37*
G36*
X11064280Y18007883D02*
X11038175Y18004446D01*
X11013848Y17994370D01*
X10992959Y17978342D01*
X10976930Y17957452D01*
X10966854Y17933125D01*
X10963417Y17907021D01*
X10966854Y17880914D01*
X10976930Y17856589D01*
X10992959Y17835699D01*
X11013848Y17819670D01*
X11038175Y17809595D01*
X11064280Y17806157D01*
X11090385Y17809595D01*
X11114711Y17819670D01*
X11135601Y17835699D01*
X11151629Y17856589D01*
X11161706Y17880914D01*
X11165143Y17907021D01*
X11161706Y17933125D01*
X11151629Y17957452D01*
X11135601Y17978342D01*
X11114711Y17994370D01*
X11090385Y18004446D01*
X11064280Y18007883D01*
D02*
G37*
G36*
X23745500Y17772780D02*
X23625500D01*
Y17732092D01*
X23611903D01*
X23609985Y17734966D01*
X23594521Y17745297D01*
X23576280Y17748926D01*
X23558038Y17745297D01*
X23542575Y17734966D01*
X23532242Y17719501D01*
X23528613Y17701260D01*
X23532242Y17683018D01*
X23542575Y17667555D01*
X23558038Y17657222D01*
X23576280Y17653593D01*
X23594521Y17657222D01*
X23609985Y17667555D01*
X23611903Y17670428D01*
X23704620D01*
X23716418Y17672775D01*
X23716428Y17672780D01*
X23745500D01*
Y17772780D01*
D02*
G37*
G36*
X10454640Y17588799D02*
X10429840Y17585535D01*
X10406730Y17575961D01*
X10386885Y17560735D01*
X10371658Y17540891D01*
X10362085Y17517780D01*
X10358821Y17492979D01*
X10362085Y17468179D01*
X10371658Y17445070D01*
X10386885Y17425224D01*
X10406730Y17409998D01*
X10429840Y17400426D01*
X10454640Y17397160D01*
X10479440Y17400426D01*
X10502550Y17409998D01*
X10522395Y17425224D01*
X10537622Y17445070D01*
X10547195Y17468179D01*
X10550459Y17492979D01*
X10547195Y17517780D01*
X10537622Y17540891D01*
X10522395Y17560735D01*
X10502550Y17575961D01*
X10479440Y17585535D01*
X10454640Y17588799D01*
D02*
G37*
G36*
Y17334799D02*
X10429840Y17331535D01*
X10406730Y17321962D01*
X10386885Y17306734D01*
X10371658Y17286890D01*
X10362085Y17263780D01*
X10358821Y17238980D01*
X10362085Y17214180D01*
X10371658Y17191071D01*
X10386885Y17171225D01*
X10406730Y17155998D01*
X10429840Y17146425D01*
X10454640Y17143161D01*
X10479440Y17146425D01*
X10502550Y17155998D01*
X10522395Y17171225D01*
X10537622Y17191071D01*
X10547195Y17214180D01*
X10550459Y17238980D01*
X10547195Y17263780D01*
X10537622Y17286890D01*
X10522395Y17306734D01*
X10502550Y17321962D01*
X10479440Y17331535D01*
X10454640Y17334799D01*
D02*
G37*
G36*
X11846580Y18395137D02*
X11826087Y18392439D01*
X11806991Y18384531D01*
X11790593Y18371947D01*
X11778010Y18355550D01*
X11770101Y18336453D01*
X11767403Y18315961D01*
Y17947437D01*
X11310513Y17490547D01*
X11297930Y17474149D01*
X11290021Y17455054D01*
X11287323Y17434560D01*
Y16878300D01*
X11290021Y16857806D01*
X11297930Y16838712D01*
X11310513Y16822313D01*
X11326911Y16809731D01*
X11346007Y16801820D01*
X11366500Y16799123D01*
X11386993Y16801820D01*
X11406089Y16809731D01*
X11422487Y16822313D01*
X11435070Y16838712D01*
X11442979Y16857806D01*
X11445677Y16878300D01*
Y17401764D01*
X11902566Y17858652D01*
X11902567Y17858653D01*
X11915150Y17875050D01*
X11923059Y17894147D01*
X11925757Y17914639D01*
Y18315961D01*
X11923059Y18336453D01*
X11915150Y18355550D01*
X11902567Y18371947D01*
X11886169Y18384531D01*
X11867073Y18392439D01*
X11846580Y18395137D01*
D02*
G37*
G36*
X10454640Y16953799D02*
X10429840Y16950536D01*
X10406730Y16940962D01*
X10386885Y16925734D01*
X10371658Y16905890D01*
X10362085Y16882780D01*
X10358821Y16857980D01*
X10362085Y16833180D01*
X10371658Y16810069D01*
X10386885Y16790225D01*
X10406730Y16774998D01*
X10429840Y16765425D01*
X10454640Y16762161D01*
X10479440Y16765425D01*
X10502550Y16774998D01*
X10522395Y16790225D01*
X10537622Y16810069D01*
X10547195Y16833180D01*
X10550459Y16857980D01*
X10547195Y16882780D01*
X10537622Y16905890D01*
X10522395Y16925734D01*
X10502550Y16940962D01*
X10479440Y16950536D01*
X10454640Y16953799D01*
D02*
G37*
G36*
Y16699799D02*
X10429840Y16696535D01*
X10406730Y16686961D01*
X10386885Y16671735D01*
X10371658Y16651891D01*
X10362085Y16628780D01*
X10358821Y16603979D01*
X10362085Y16579179D01*
X10371658Y16556070D01*
X10386885Y16536226D01*
X10406730Y16520998D01*
X10429840Y16511424D01*
X10454640Y16508160D01*
X10479440Y16511424D01*
X10502550Y16520998D01*
X10522395Y16536226D01*
X10537622Y16556070D01*
X10547195Y16579179D01*
X10550459Y16603979D01*
X10547195Y16628780D01*
X10537622Y16651891D01*
X10522395Y16671735D01*
X10502550Y16686961D01*
X10479440Y16696535D01*
X10454640Y16699799D01*
D02*
G37*
G36*
X31851599Y15959630D02*
X31821216Y15956638D01*
X31791998Y15947774D01*
X31765070Y15933382D01*
X31741467Y15914012D01*
X31722098Y15890410D01*
X31707706Y15863483D01*
X31698843Y15834265D01*
X31695850Y15803880D01*
X31698843Y15773495D01*
X31707706Y15744276D01*
X31722098Y15717349D01*
X31741467Y15693748D01*
X31765070Y15674379D01*
X31791998Y15659985D01*
X31821216Y15651123D01*
X31851599Y15648129D01*
X31881985Y15651123D01*
X31911203Y15659985D01*
X31938129Y15674379D01*
X31961731Y15693748D01*
X31981100Y15717349D01*
X31995493Y15744276D01*
X32004358Y15773495D01*
X32007349Y15803880D01*
X32004358Y15834265D01*
X31995493Y15863483D01*
X31981100Y15890410D01*
X31961731Y15914012D01*
X31938129Y15933382D01*
X31911203Y15947774D01*
X31881985Y15956638D01*
X31851599Y15959630D01*
D02*
G37*
G36*
X10515600Y15946629D02*
X10485273Y15943642D01*
X10456112Y15934796D01*
X10429237Y15920432D01*
X10405681Y15901099D01*
X10386349Y15877544D01*
X10371984Y15850668D01*
X10363138Y15821507D01*
X10360151Y15791180D01*
X10363138Y15760854D01*
X10371984Y15731693D01*
X10386349Y15704817D01*
X10405681Y15681261D01*
X10429237Y15661929D01*
X10456112Y15647565D01*
X10485273Y15638718D01*
X10515600Y15635732D01*
X10545927Y15638718D01*
X10575088Y15647565D01*
X10601963Y15661929D01*
X10625519Y15681261D01*
X10644851Y15704817D01*
X10659216Y15731693D01*
X10668062Y15760854D01*
X10671049Y15791180D01*
X10668062Y15821507D01*
X10659216Y15850668D01*
X10644851Y15877544D01*
X10625519Y15901099D01*
X10601963Y15920432D01*
X10575088Y15934796D01*
X10545927Y15943642D01*
X10515600Y15946629D01*
D02*
G37*
%LPD*%
G36*
X31765240Y23815041D02*
X31767780Y23813988D01*
Y23545799D01*
X30607001D01*
X30586679Y23525481D01*
X30271719Y23210519D01*
X29628235D01*
Y23784419D01*
X29623480Y23795901D01*
X29616876Y23798636D01*
X29615732Y23802341D01*
X29625089Y23815041D01*
X31765240D01*
D02*
G37*
G36*
X17471519Y19478027D02*
X17467339Y19464249D01*
X17465092Y19463802D01*
X15990488Y20938406D01*
X15977122Y20947336D01*
X15961360Y20950471D01*
X15327818D01*
X15326437Y20952538D01*
X15306590Y20965799D01*
X15287608Y20969576D01*
X15282321Y20982248D01*
X15335802Y21035728D01*
X15913818D01*
X17471519Y19478027D01*
D02*
G37*
G36*
X31348022Y20637772D02*
X31353409Y20634502D01*
Y20532764D01*
X31097818Y20277171D01*
X30947360D01*
X30947360Y20277173D01*
X30935562Y20274825D01*
X30925558Y20268143D01*
X29999869Y19342451D01*
X28989124D01*
X28987875Y19355151D01*
X28994562Y19356482D01*
X29010025Y19366815D01*
X29020358Y19382278D01*
X29023987Y19400520D01*
X29020358Y19418761D01*
X29010025Y19434225D01*
X28994562Y19444559D01*
X28976321Y19448186D01*
X28972931Y19447511D01*
X28938672Y19481772D01*
X28935355Y19483987D01*
X28939209Y19496687D01*
X29432587D01*
X29441733Y19486880D01*
X29445361Y19468639D01*
X29455695Y19453175D01*
X29471158Y19442842D01*
X29489401Y19439214D01*
X29507642Y19442842D01*
X29523105Y19453175D01*
X29533438Y19468639D01*
X29537067Y19486880D01*
X29533438Y19505121D01*
X29523105Y19520586D01*
X29507642Y19530917D01*
X29489401Y19534546D01*
X29486011Y19533871D01*
X29470563Y19549323D01*
X29460559Y19556004D01*
X29448761Y19558353D01*
X29448758Y19558353D01*
X29012906D01*
X29009055Y19571053D01*
X29015106Y19575095D01*
X29025439Y19590559D01*
X29029065Y19608800D01*
X29025439Y19627042D01*
X29015106Y19642505D01*
X28999640Y19652838D01*
X28981400Y19656467D01*
X28963159Y19652838D01*
X28947696Y19642505D01*
X28945776Y19639632D01*
X28742712D01*
X28130310Y20252034D01*
X28135172Y20263768D01*
X30857791D01*
X30857791Y20263766D01*
X30869589Y20266115D01*
X30879593Y20272798D01*
X31058282Y20451488D01*
X31123795D01*
X31125125Y20450600D01*
X31136926Y20448251D01*
X31148724Y20450600D01*
X31158725Y20457283D01*
X31340707Y20639264D01*
X31348022Y20637772D01*
D02*
G37*
G36*
X28334369Y20435748D02*
X28325223Y20422061D01*
X28321594Y20403819D01*
X28325223Y20385579D01*
X28326370Y20383862D01*
X28320383Y20372662D01*
X28245901D01*
X28187863Y20430702D01*
X28177859Y20437386D01*
X28166061Y20439732D01*
X28166058Y20439732D01*
X27569223D01*
X27567307Y20442606D01*
X27555042Y20450800D01*
X27553412Y20461652D01*
X27554092Y20465439D01*
X27559686Y20469176D01*
X27561603Y20472047D01*
X28298068D01*
X28334369Y20435748D01*
D02*
G37*
G36*
X27484793Y20525388D02*
X27481943Y20521121D01*
X27478314Y20502879D01*
X27481943Y20484639D01*
X27492276Y20469176D01*
X27504538Y20460982D01*
X27506168Y20450128D01*
X27505487Y20446341D01*
X27499896Y20442606D01*
X27489563Y20427141D01*
X27485934Y20408900D01*
X27489401Y20391472D01*
X27489352Y20388722D01*
X27484033Y20378772D01*
X27376120D01*
X27364322Y20376425D01*
X27354318Y20369742D01*
X27354318Y20369740D01*
X26960846Y19976270D01*
X26956558Y19975418D01*
X26941095Y19965085D01*
X26930762Y19949622D01*
X26927133Y19931380D01*
X26930762Y19913139D01*
X26941095Y19897675D01*
X26956558Y19887341D01*
X26974799Y19883714D01*
X26993042Y19887341D01*
X27008505Y19897675D01*
X27018839Y19913139D01*
X27022467Y19931380D01*
X27019263Y19947479D01*
X27174542Y20102759D01*
X27188324Y20098579D01*
X27189841Y20090939D01*
X27200174Y20075475D01*
X27203049Y20073557D01*
Y19987331D01*
X27023499Y19807782D01*
X27005280Y19811406D01*
X26987039Y19807777D01*
X26971576Y19797446D01*
X26961243Y19781981D01*
X26957614Y19763741D01*
X26961243Y19745499D01*
X26971576Y19730035D01*
X26987039Y19719702D01*
X27005280Y19716074D01*
X27023520Y19719702D01*
X27038986Y19730035D01*
X27049319Y19745499D01*
X27049539Y19746616D01*
X27255682Y19952757D01*
X27255682Y19952757D01*
X27262366Y19962761D01*
X27264713Y19974561D01*
X27264713Y19974561D01*
Y20073557D01*
X27267584Y20075475D01*
X27277917Y20090939D01*
X27281546Y20109180D01*
X27277917Y20127422D01*
X27267584Y20142885D01*
X27252121Y20153218D01*
X27244482Y20154736D01*
X27240302Y20168518D01*
X27316748Y20244965D01*
X27328455Y20238721D01*
X27332083Y20220479D01*
X27342416Y20205016D01*
X27357880Y20194682D01*
X27376120Y20191054D01*
X27394360Y20194682D01*
X27409824Y20205016D01*
X27420157Y20220479D01*
X27423785Y20238721D01*
X27423111Y20242108D01*
X27449850Y20268848D01*
X27589218D01*
X27597610Y20256146D01*
X27596347Y20249799D01*
X27584766Y20242020D01*
X27582767Y20241676D01*
X27576178Y20244406D01*
X27559000Y20246667D01*
X27541824Y20244406D01*
X27525815Y20237776D01*
X27512070Y20227229D01*
X27501523Y20213484D01*
X27494894Y20197478D01*
X27492633Y20180299D01*
X27494894Y20163123D01*
X27495868Y20160771D01*
X27488937Y20153842D01*
X27482254Y20143839D01*
X27479907Y20132040D01*
X27479907Y20132039D01*
Y20076190D01*
X27477557Y20075217D01*
X27463812Y20064668D01*
X27453265Y20050925D01*
X27446634Y20034917D01*
X27444373Y20017740D01*
X27446133Y20004358D01*
X27048489Y19606712D01*
X27041806Y19596709D01*
X27039456Y19584911D01*
X27039459Y19584909D01*
Y19421870D01*
X27039456Y19421870D01*
X27041806Y19410071D01*
X27048489Y19400069D01*
X27143497Y19305058D01*
X27143497Y19305058D01*
X27153500Y19298375D01*
X27155460Y19297984D01*
X27154111Y19285542D01*
X27142310Y19283195D01*
X27132309Y19276512D01*
X27132309Y19276511D01*
X27079263Y19223466D01*
X27067557Y19229723D01*
X27068185Y19232880D01*
X27064557Y19251122D01*
X27054224Y19266585D01*
X27038760Y19276918D01*
X27020520Y19280547D01*
X27002280Y19276918D01*
X26986816Y19266585D01*
X26984897Y19263712D01*
X26954550D01*
X26850693Y19367570D01*
Y19895749D01*
X27027081Y20072137D01*
X27033765Y20082141D01*
X27036115Y20093941D01*
X27036111Y20093941D01*
Y20472336D01*
X27038986Y20474255D01*
X27049319Y20489719D01*
X27052945Y20507961D01*
X27049478Y20525388D01*
X27049527Y20528139D01*
X27054846Y20538087D01*
X27478006D01*
X27484793Y20525388D01*
D02*
G37*
G36*
X27622522Y20134134D02*
X27662787Y20093869D01*
Y19840012D01*
X27491479Y19668703D01*
X27484796Y19658699D01*
X27482446Y19646899D01*
X27482449Y19646899D01*
Y19603784D01*
X27479575Y19601865D01*
X27469241Y19586401D01*
X27465613Y19568159D01*
X27454617Y19558353D01*
X27155139D01*
X27143341Y19556004D01*
X27136560Y19551474D01*
X27132281Y19552325D01*
X27114038Y19548698D01*
X27112323Y19547551D01*
X27101123Y19553537D01*
Y19572139D01*
X27485822Y19956841D01*
X27493564Y19953635D01*
X27510739Y19951372D01*
X27527917Y19953635D01*
X27543924Y19960265D01*
X27557669Y19970811D01*
X27568216Y19984557D01*
X27574847Y20000563D01*
X27577109Y20017740D01*
X27574847Y20034917D01*
X27568216Y20050925D01*
X27557669Y20064668D01*
X27543924Y20075217D01*
X27541571Y20076190D01*
Y20103416D01*
X27554272Y20114555D01*
X27559000Y20113931D01*
X27576178Y20116194D01*
X27592184Y20122824D01*
X27605930Y20133371D01*
X27606641Y20134297D01*
X27617712Y20135330D01*
X27622522Y20134134D01*
D02*
G37*
G36*
X28708139Y19587000D02*
X28708139Y19586998D01*
X28718140Y19580315D01*
X28729941Y19577966D01*
X28729941Y19577968D01*
X28944241D01*
X28950644Y19570741D01*
X28946332Y19558353D01*
X27571945D01*
X27560947Y19568159D01*
X27557318Y19586401D01*
X27546985Y19601865D01*
X27544113Y19603784D01*
Y19634129D01*
X27715421Y19805438D01*
X27715421Y19805438D01*
X27722104Y19815440D01*
X27724454Y19827240D01*
X27724451Y19827242D01*
Y20106639D01*
X27724454Y20106641D01*
X27722104Y20118439D01*
X27715421Y20128442D01*
X27715421Y20128442D01*
X27673651Y20170210D01*
Y20208176D01*
X27676526Y20210095D01*
X27686859Y20225558D01*
X27690485Y20243800D01*
X27686859Y20262041D01*
X27685712Y20263757D01*
X27691696Y20274957D01*
X28020178D01*
X28708139Y19587000D01*
D02*
G37*
G36*
X27465802Y19484369D02*
X27465802Y19484367D01*
X27475803Y19477686D01*
X27487604Y19475337D01*
X27487604Y19475339D01*
X27512878D01*
X27519666Y19462637D01*
X27517502Y19459401D01*
X27513873Y19441161D01*
X27517502Y19422919D01*
X27527835Y19407455D01*
X27543298Y19397122D01*
X27561539Y19393494D01*
X27571039Y19395384D01*
X27577295Y19383679D01*
X27557309Y19363692D01*
X27553922Y19364366D01*
X27535678Y19360738D01*
X27520215Y19350404D01*
X27509882Y19334941D01*
X27506253Y19316701D01*
X27509882Y19298459D01*
X27520215Y19282996D01*
X27535678Y19272662D01*
X27553922Y19269034D01*
X27572162Y19272662D01*
X27587625Y19282996D01*
X27597958Y19298459D01*
X27601587Y19316701D01*
X27600912Y19320088D01*
X27627652Y19346828D01*
X27789731D01*
X27794592Y19335094D01*
X27647250Y19187752D01*
X27461942D01*
X27455679Y19200452D01*
X27458997Y19204776D01*
X27465625Y19220782D01*
X27467889Y19237959D01*
X27465625Y19255138D01*
X27458997Y19271144D01*
X27448450Y19284889D01*
X27434705Y19295436D01*
X27418698Y19302066D01*
X27401520Y19304327D01*
X27384344Y19302066D01*
X27369418Y19295885D01*
X27316641Y19348662D01*
X27306638Y19355345D01*
X27294839Y19357693D01*
X27294839Y19357692D01*
X27178070D01*
X27101123Y19434641D01*
Y19455783D01*
X27112323Y19461769D01*
X27114038Y19460622D01*
X27132281Y19456995D01*
X27150522Y19460622D01*
X27165985Y19470955D01*
X27176318Y19486420D01*
X27178360Y19496687D01*
X27453482D01*
X27465802Y19484369D01*
D02*
G37*
G36*
X28929327Y19403908D02*
X28928653Y19400520D01*
X28932281Y19382278D01*
X28942615Y19366815D01*
X28958078Y19356482D01*
X28964767Y19355151D01*
X28963516Y19342451D01*
X28804977D01*
X28791150Y19356282D01*
X28781146Y19362965D01*
X28769348Y19365314D01*
X28769345Y19365312D01*
X27937070D01*
X27931082Y19376514D01*
X27933237Y19379739D01*
X27936865Y19397980D01*
X27933237Y19416222D01*
X27932092Y19417937D01*
X27938077Y19429138D01*
X28904099D01*
X28929327Y19403908D01*
D02*
G37*
G36*
X28770404Y19289819D02*
X28770404Y19289818D01*
X28780408Y19283134D01*
X28792206Y19280788D01*
X29249240D01*
X29256027Y19268088D01*
X29249783Y19258742D01*
X29246155Y19240500D01*
X29244360Y19238312D01*
X28744788D01*
X28738803Y19249513D01*
X28740958Y19252739D01*
X28744586Y19270979D01*
X28740958Y19289221D01*
X28739075Y19292039D01*
X28744565Y19302708D01*
X28756580Y19303645D01*
X28770404Y19289819D01*
D02*
G37*
G36*
X27160236Y19199272D02*
X27157074Y19191637D01*
X27154813Y19174460D01*
X27157074Y19157283D01*
X27163705Y19141277D01*
X27174252Y19127531D01*
X27187997Y19116985D01*
X27204004Y19110355D01*
X27221179Y19108092D01*
X27238358Y19110355D01*
X27240710Y19111328D01*
X27751688Y18600349D01*
Y18394710D01*
X27749335Y18393736D01*
X27735590Y18383189D01*
X27725043Y18369444D01*
X27718414Y18353436D01*
X27716153Y18336259D01*
X27718414Y18319083D01*
X27725043Y18303076D01*
X27735590Y18289331D01*
X27736865Y18288351D01*
X27732556Y18275652D01*
X27719092D01*
X27001682Y18993062D01*
X26991678Y18999745D01*
X26979880Y19002094D01*
X26979880Y19002092D01*
X26959625D01*
X26957706Y19004965D01*
X26942242Y19015298D01*
X26930365Y19017661D01*
X26926038Y19031294D01*
X27034802Y19140057D01*
X27070288D01*
X27070291Y19140057D01*
X27082089Y19142406D01*
X27092093Y19149088D01*
X27149469Y19206467D01*
X27160236Y19199272D01*
D02*
G37*
G36*
X26962390Y20527917D02*
X26961243Y20526201D01*
X26957614Y20507961D01*
X26961243Y20489719D01*
X26971576Y20474255D01*
X26974448Y20472336D01*
Y20106711D01*
X26798059Y19930322D01*
X26791376Y19920319D01*
X26789026Y19908521D01*
X26789029Y19908519D01*
Y19354800D01*
X26789026Y19354800D01*
X26791376Y19343001D01*
X26798059Y19332999D01*
X26922519Y19208539D01*
X26922519Y19208537D01*
X26932520Y19201855D01*
X26944321Y19199507D01*
X26956119Y19201855D01*
X26956409Y19202048D01*
X26984897D01*
X26986816Y19199174D01*
X26990417Y19196767D01*
X26991663Y19184128D01*
X26770441Y18962906D01*
X26759137Y18966512D01*
X26757742Y18967581D01*
Y19129016D01*
X26757742Y19129018D01*
X26756711Y19134195D01*
Y20411369D01*
X26884460Y20539117D01*
X26956403D01*
X26962390Y20527917D01*
D02*
G37*
G36*
X27334064Y19135120D02*
X27334067Y19135118D01*
X27344070Y19128435D01*
X27355869Y19126086D01*
X27355869Y19126088D01*
X27470547D01*
X27477335Y19113388D01*
X27474323Y19108881D01*
X27470694Y19090640D01*
X27474323Y19072398D01*
X27484656Y19056935D01*
X27500119Y19046602D01*
X27518359Y19042973D01*
X27525391Y19031424D01*
X27524033Y19024600D01*
X27527661Y19006358D01*
X27537994Y18990895D01*
X27553458Y18980562D01*
X27571701Y18976933D01*
X27589941Y18980562D01*
X27605405Y18990895D01*
X27607324Y18993768D01*
X27706320D01*
X27706320Y18993767D01*
X27708710Y18994243D01*
X27719550Y18984021D01*
X27719708Y18983482D01*
X27723242Y18965720D01*
X27733575Y18950255D01*
X27749039Y18939922D01*
X27754684Y18938800D01*
X27758978Y18926054D01*
X27752664Y18918272D01*
X27645425D01*
X27643506Y18921146D01*
X27628040Y18931477D01*
X27609799Y18935106D01*
X27591559Y18931477D01*
X27576096Y18921146D01*
X27565762Y18905681D01*
X27563400Y18893803D01*
X27549765Y18889478D01*
X27286057Y19153188D01*
X27288702Y19165378D01*
X27300116Y19169067D01*
X27334064Y19135120D01*
D02*
G37*
G36*
X26877600Y18964896D02*
X26879962Y18953020D01*
X26890295Y18937555D01*
X26905759Y18927222D01*
X26923999Y18923595D01*
X26942242Y18927222D01*
X26957706Y18937555D01*
X26970844Y18936691D01*
X27271204Y18636333D01*
X27265942Y18623631D01*
X27000201D01*
X27000201Y18623633D01*
X26988400Y18621284D01*
X26978397Y18614603D01*
X26978397Y18614601D01*
X26881668Y18517873D01*
X26878281Y18518546D01*
X26860040Y18514919D01*
X26844574Y18504585D01*
X26834241Y18489120D01*
X26832913Y18482434D01*
X26820212Y18483685D01*
Y18925468D01*
X26863965Y18969221D01*
X26877600Y18964896D01*
D02*
G37*
G36*
X26558646Y18913731D02*
X26559204Y18910924D01*
X26560895Y18908395D01*
X26557382Y18903140D01*
X26553754Y18884900D01*
X26557382Y18866660D01*
X26567715Y18851195D01*
X26583179Y18840862D01*
X26601419Y18837234D01*
X26619662Y18840862D01*
X26635126Y18851195D01*
X26645459Y18866660D01*
X26649088Y18884900D01*
X26648260Y18889053D01*
X26658536Y18902495D01*
X26667920Y18904362D01*
X26683386Y18914696D01*
X26696078Y18910832D01*
Y18502124D01*
X26683377Y18498273D01*
X26675766Y18509665D01*
X26660300Y18519998D01*
X26642059Y18523627D01*
X26638672Y18522952D01*
X26512872Y18648750D01*
Y18799773D01*
X26512872Y18799773D01*
X26510526Y18811572D01*
X26506763Y18817204D01*
Y18845917D01*
X26510526Y18851547D01*
X26512872Y18863347D01*
X26512872Y18863348D01*
Y18941545D01*
X26525571Y18946806D01*
X26558646Y18913731D01*
D02*
G37*
G36*
X27350256Y18473462D02*
X27345703Y18460052D01*
X27336084Y18458786D01*
X27320078Y18452156D01*
X27306332Y18441609D01*
X27295786Y18427864D01*
X27289154Y18411858D01*
X27286893Y18394679D01*
X27289154Y18377502D01*
X27295786Y18361496D01*
X27306332Y18347751D01*
X27320078Y18337204D01*
X27322427Y18336230D01*
Y17942561D01*
X27322427Y17942560D01*
X27324774Y17930762D01*
X27331458Y17920758D01*
X27453378Y17798839D01*
X27453378Y17798837D01*
X27463382Y17792155D01*
X27474493Y17789944D01*
X27475778Y17788741D01*
X27479105Y17782782D01*
X27472281Y17770432D01*
X27345471D01*
X27176733Y17939172D01*
X27177405Y17942560D01*
X27173779Y17960802D01*
X27163446Y17976265D01*
X27147980Y17986598D01*
X27129739Y17990227D01*
X27111499Y17986598D01*
X27096036Y17976265D01*
X27085703Y17960802D01*
X27082074Y17942560D01*
X27085703Y17924319D01*
X27096036Y17908855D01*
X27111499Y17898521D01*
X27129739Y17894894D01*
X27133127Y17895567D01*
X27310898Y17717799D01*
X27310898Y17717798D01*
X27320901Y17711115D01*
X27332700Y17708768D01*
X27544861D01*
X27546112Y17696068D01*
X27538220Y17694498D01*
X27522754Y17684164D01*
X27512421Y17668701D01*
X27508795Y17650459D01*
X27512421Y17632219D01*
X27522754Y17616756D01*
X27538220Y17606422D01*
X27556461Y17602794D01*
X27574701Y17606422D01*
X27590164Y17616756D01*
X27592084Y17619627D01*
X28938220D01*
X28938220Y17619627D01*
X28950018Y17621976D01*
X28960022Y17628658D01*
X29024652Y17693288D01*
X29171835D01*
X29173755Y17690414D01*
X29189218Y17680083D01*
X29207458Y17676454D01*
X29225702Y17680083D01*
X29241165Y17690414D01*
X29251498Y17705879D01*
X29255127Y17724120D01*
X29251498Y17742361D01*
X29241165Y17757825D01*
X29225702Y17768158D01*
X29207458Y17771786D01*
X29189218Y17768158D01*
X29173755Y17757825D01*
X29171835Y17754951D01*
X29011880D01*
X29011880Y17754953D01*
X29000082Y17752605D01*
X28990079Y17745921D01*
X28925449Y17681293D01*
X27592084D01*
X27590164Y17684164D01*
X27574701Y17694498D01*
X27566806Y17696068D01*
X27568057Y17708768D01*
X28864279D01*
X28876797Y17700401D01*
X28895041Y17696774D01*
X28913281Y17700401D01*
X28928745Y17710735D01*
X28939078Y17726199D01*
X28942706Y17744440D01*
X28939078Y17762682D01*
X28928745Y17778145D01*
X28913281Y17788478D01*
X28895041Y17792107D01*
X28876797Y17788478D01*
X28861334Y17778145D01*
X28856183Y17770432D01*
X27599103D01*
X27592838Y17783131D01*
X27596155Y17787456D01*
X27602786Y17803464D01*
X27605048Y17820641D01*
X27602786Y17837817D01*
X27596155Y17853824D01*
X27585608Y17867569D01*
X27571863Y17878116D01*
X27555856Y17884746D01*
X27538681Y17887009D01*
X27521503Y17884746D01*
X27505496Y17878116D01*
X27491751Y17867569D01*
X27488974Y17863953D01*
X27476303Y17863121D01*
X27384091Y17955331D01*
Y18336230D01*
X27386444Y18337204D01*
X27400189Y18347751D01*
X27410736Y18361496D01*
X27417365Y18377502D01*
X27418634Y18387123D01*
X27432043Y18391675D01*
X27484988Y18338728D01*
Y18277904D01*
X27482114Y18275986D01*
X27471783Y18260521D01*
X27468155Y18242281D01*
X27471783Y18224039D01*
X27482114Y18208575D01*
X27497580Y18198242D01*
X27515820Y18194614D01*
X27534061Y18198242D01*
X27549524Y18208575D01*
X27559857Y18224039D01*
X27563486Y18242281D01*
X27559857Y18260521D01*
X27549524Y18275986D01*
X27546652Y18277904D01*
Y18342924D01*
X27559351Y18348184D01*
X27684518Y18223019D01*
X27684518Y18223018D01*
X27694522Y18216335D01*
X27706320Y18213988D01*
X27706320Y18213988D01*
X28662531D01*
X28665582Y18198639D01*
X28675916Y18183176D01*
X28691379Y18172842D01*
X28709619Y18169214D01*
X28727859Y18172842D01*
X28743326Y18183176D01*
X28753659Y18198639D01*
X28757285Y18216879D01*
X28753659Y18235121D01*
X28743326Y18250584D01*
X28727859Y18260918D01*
X28709619Y18264546D01*
X28706232Y18263872D01*
X28703482Y18266621D01*
X28693478Y18273305D01*
X28685223Y18274948D01*
X28686475Y18287648D01*
X28874649D01*
X28997119Y18165179D01*
X28991113Y18153223D01*
X28975858Y18150188D01*
X28960394Y18139854D01*
X28958475Y18136983D01*
X27680307D01*
X27673984Y18146445D01*
X27658521Y18156778D01*
X27640280Y18160406D01*
X27622040Y18156778D01*
X27606573Y18146445D01*
X27596243Y18130981D01*
X27592615Y18112740D01*
X27596243Y18094499D01*
X27606573Y18079034D01*
X27622040Y18068703D01*
X27640280Y18065074D01*
X27658521Y18068703D01*
X27668420Y18075317D01*
X27878424D01*
X27884409Y18064117D01*
X27883261Y18062401D01*
X27879633Y18044160D01*
X27883261Y18025919D01*
X27893594Y18010455D01*
X27909058Y18000122D01*
X27927301Y17996494D01*
X27930688Y17997168D01*
X27996939Y17930919D01*
X27996939Y17930917D01*
X28006940Y17924236D01*
X28018741Y17921887D01*
X28018741Y17921889D01*
X28642673D01*
X28642896Y17921555D01*
X28658359Y17911221D01*
X28676599Y17907594D01*
X28694839Y17911221D01*
X28710306Y17921555D01*
X28710526Y17921889D01*
X29054996D01*
X29056915Y17919016D01*
X29072379Y17908682D01*
X29090619Y17905054D01*
X29108862Y17908682D01*
X29124326Y17919016D01*
X29134659Y17934479D01*
X29138287Y17952721D01*
X29134659Y17970961D01*
X29124326Y17986424D01*
X29108862Y17996758D01*
X29090619Y18000386D01*
X29072379Y17996758D01*
X29056915Y17986424D01*
X29054996Y17983553D01*
X28713922D01*
X28710306Y17988965D01*
X28694839Y17999298D01*
X28676599Y18002927D01*
X28658359Y17999298D01*
X28642896Y17988965D01*
X28639279Y17983553D01*
X28031512D01*
X27974292Y18040771D01*
X27974966Y18044160D01*
X27971338Y18062401D01*
X27970190Y18064117D01*
X27976178Y18075317D01*
X28958475D01*
X28960394Y18072446D01*
X28975858Y18062112D01*
X28994101Y18058484D01*
X29012341Y18062112D01*
X29027805Y18072446D01*
X29038138Y18087909D01*
X29041171Y18103165D01*
X29053128Y18109167D01*
X29622537Y17539758D01*
X29622537Y17539758D01*
X29632541Y17533075D01*
X29644339Y17530728D01*
X29703171D01*
X29708032Y17518994D01*
X29453769Y17264732D01*
X28534430D01*
X28501770Y17297394D01*
X28503287Y17305020D01*
X28499658Y17323260D01*
X28489325Y17338725D01*
X28473862Y17349059D01*
X28455621Y17352686D01*
X28437378Y17349059D01*
X28421915Y17338725D01*
X28411581Y17323260D01*
X28407953Y17305020D01*
X28411581Y17286778D01*
X28421915Y17271315D01*
X28437378Y17260982D01*
X28454349Y17257607D01*
X28495483Y17216472D01*
X28490225Y17203772D01*
X28369330D01*
X28150882Y17422220D01*
X28148251Y17426160D01*
X28111938Y17462473D01*
X28107999Y17465103D01*
X28091830Y17481274D01*
X28092685Y17494566D01*
X28093085Y17494835D01*
X28103418Y17510300D01*
X28107047Y17528540D01*
X28103418Y17546780D01*
X28093085Y17562245D01*
X28077621Y17572578D01*
X28059381Y17576205D01*
X28041138Y17572578D01*
X28025674Y17562245D01*
X28015341Y17546780D01*
X28011713Y17528540D01*
X28015341Y17510300D01*
X28025674Y17494835D01*
X28028549Y17492915D01*
Y17470120D01*
X28028546Y17470120D01*
X28030896Y17458321D01*
X28037579Y17448318D01*
X28050037Y17435860D01*
X28047226Y17423853D01*
X28045618Y17422318D01*
X28030756Y17412386D01*
X28020422Y17396921D01*
X28016794Y17378680D01*
X28005087Y17372437D01*
X27809402Y17568121D01*
X27799399Y17574805D01*
X27787601Y17577153D01*
X27787598Y17577151D01*
X27368570D01*
X27053891Y17891830D01*
Y18241928D01*
X27152951D01*
X27154868Y18239055D01*
X27170334Y18228722D01*
X27188574Y18225095D01*
X27206815Y18228722D01*
X27222278Y18239055D01*
X27232611Y18254520D01*
X27236240Y18272760D01*
X27232611Y18291000D01*
X27222278Y18306465D01*
X27206815Y18316798D01*
X27188574Y18320425D01*
X27170334Y18316798D01*
X27154868Y18306465D01*
X27152951Y18303592D01*
X27067120D01*
X27067099Y18303700D01*
X27056766Y18319165D01*
X27041302Y18329498D01*
X27023059Y18333125D01*
X27013815Y18331287D01*
X27007559Y18342992D01*
X27033493Y18368929D01*
X27152536D01*
X27154456Y18366055D01*
X27169919Y18355722D01*
X27188159Y18352094D01*
X27206400Y18355722D01*
X27221866Y18366055D01*
X27232199Y18381519D01*
X27235825Y18399760D01*
X27232199Y18418001D01*
X27221866Y18433466D01*
X27206400Y18443797D01*
X27192587Y18446545D01*
X27185550Y18458870D01*
X27186478Y18460258D01*
X27190106Y18478500D01*
X27186478Y18496741D01*
X27176144Y18512206D01*
X27160681Y18522539D01*
X27142441Y18526166D01*
X27124200Y18522539D01*
X27108734Y18512206D01*
X27106815Y18509332D01*
X26995120D01*
X26995120Y18509332D01*
X26983322Y18506985D01*
X26973318Y18500302D01*
X26973318Y18500301D01*
X26946713Y18473695D01*
X26933209Y18478152D01*
X26932684Y18481680D01*
X27012970Y18561967D01*
X27261749D01*
X27350256Y18473462D01*
D02*
G37*
G36*
X28316977Y18296680D02*
X28316977Y18296678D01*
X28326981Y18289995D01*
X28335236Y18288351D01*
X28333987Y18275652D01*
X27832486D01*
X27828174Y18288351D01*
X27829449Y18289331D01*
X27839996Y18303076D01*
X27846625Y18319083D01*
X27848889Y18336259D01*
X27846625Y18353436D01*
X27839996Y18369444D01*
X27829449Y18383189D01*
X27815704Y18393736D01*
X27813351Y18394710D01*
Y18613120D01*
X27813354Y18613120D01*
X27811005Y18624919D01*
X27804321Y18634921D01*
X27611838Y18827406D01*
X27616165Y18841040D01*
X27628040Y18843402D01*
X27643506Y18853735D01*
X27645425Y18856609D01*
X27757050D01*
X28316977Y18296680D01*
D02*
G37*
G36*
X26573129Y18315869D02*
Y18158524D01*
X26570255Y18156606D01*
X26559921Y18141141D01*
X26559906Y18141060D01*
X26546646Y18139491D01*
X26538605Y18151524D01*
X26535733Y18153444D01*
Y18232056D01*
X26538605Y18233975D01*
X26548938Y18249438D01*
X26552567Y18267680D01*
X26548938Y18285921D01*
X26538605Y18301385D01*
X26523141Y18311719D01*
X26504901Y18315346D01*
X26486658Y18311719D01*
X26471194Y18301385D01*
X26460861Y18285921D01*
X26457233Y18267680D01*
X26460861Y18249438D01*
X26471194Y18233975D01*
X26474069Y18232056D01*
Y18153444D01*
X26471194Y18151524D01*
X26460861Y18136061D01*
X26457233Y18117821D01*
X26460861Y18099579D01*
X26471194Y18084116D01*
X26486658Y18073782D01*
X26504901Y18070154D01*
X26523141Y18073782D01*
X26538605Y18084116D01*
X26548938Y18099579D01*
X26548953Y18099660D01*
X26562216Y18101228D01*
X26570255Y18089195D01*
X26585718Y18078862D01*
X26603961Y18075233D01*
X26610864Y18076607D01*
X26618500Y18065176D01*
X26618341Y18064941D01*
X26615796Y18052132D01*
X26398291D01*
X26340393Y18110031D01*
Y18532010D01*
X26352127Y18536871D01*
X26573129Y18315869D01*
D02*
G37*
G36*
X31681067Y18027983D02*
Y17897777D01*
X31668369Y17893466D01*
X31662646Y17900925D01*
X31643594Y17915543D01*
X31621408Y17924733D01*
X31597601Y17927867D01*
X31573792Y17924733D01*
X31551608Y17915543D01*
X31532556Y17900925D01*
X31517938Y17881873D01*
X31508746Y17859688D01*
X31505612Y17835880D01*
X31508746Y17812073D01*
X31517938Y17789886D01*
X31532556Y17770834D01*
X31551608Y17756216D01*
X31573792Y17747028D01*
X31597601Y17743893D01*
X31621408Y17747028D01*
X31643594Y17756216D01*
X31662646Y17770834D01*
X31668369Y17778294D01*
X31681067Y17773982D01*
Y17389777D01*
X31668369Y17385466D01*
X31662646Y17392924D01*
X31643594Y17407542D01*
X31621408Y17416733D01*
X31597601Y17419867D01*
X31573792Y17416733D01*
X31551608Y17407542D01*
X31532556Y17392924D01*
X31517938Y17373872D01*
X31508746Y17351688D01*
X31505612Y17327879D01*
X31508746Y17304073D01*
X31517938Y17281886D01*
X31532556Y17262836D01*
X31551608Y17248216D01*
X31573792Y17239027D01*
X31597601Y17235893D01*
X31621408Y17239027D01*
X31643594Y17248216D01*
X31662646Y17262836D01*
X31668369Y17270294D01*
X31681067Y17265984D01*
Y17135777D01*
X31668369Y17131467D01*
X31662646Y17138925D01*
X31643594Y17153543D01*
X31621408Y17162733D01*
X31597601Y17165868D01*
X31573792Y17162733D01*
X31551608Y17153543D01*
X31532556Y17138925D01*
X31517938Y17119873D01*
X31508746Y17097688D01*
X31505612Y17073880D01*
X31508746Y17050072D01*
X31517938Y17027887D01*
X31532556Y17008835D01*
X31551608Y16994217D01*
X31573792Y16985027D01*
X31597601Y16981892D01*
X31621408Y16985027D01*
X31643594Y16994217D01*
X31662646Y17008835D01*
X31668369Y17016293D01*
X31681067Y17011983D01*
Y16627777D01*
X31668369Y16623466D01*
X31662646Y16630925D01*
X31643594Y16645543D01*
X31621408Y16654733D01*
X31597601Y16657867D01*
X31573792Y16654733D01*
X31551608Y16645543D01*
X31532556Y16630925D01*
X31517938Y16611873D01*
X31508746Y16589688D01*
X31505612Y16565880D01*
X31508746Y16542072D01*
X31517938Y16519887D01*
X31532556Y16500835D01*
X31551608Y16486217D01*
X31573792Y16477026D01*
X31597601Y16473894D01*
X31621408Y16477026D01*
X31643594Y16486217D01*
X31662646Y16500835D01*
X31668369Y16508295D01*
X31681067Y16503983D01*
Y16373776D01*
X31668369Y16369466D01*
X31662646Y16376926D01*
X31643594Y16391544D01*
X31621408Y16400732D01*
X31597601Y16403867D01*
X31573792Y16400732D01*
X31558630Y16394453D01*
X31491272Y16461810D01*
Y16591280D01*
X31491272Y16591280D01*
X31488925Y16603079D01*
X31482242Y16613081D01*
X31482242Y16613081D01*
X31225760Y16869563D01*
X31224524Y16875768D01*
X31217841Y16885771D01*
X31217841Y16885771D01*
X31127310Y16976302D01*
X31126630Y16976756D01*
X31128040Y16991087D01*
X31135593Y16994217D01*
X31154645Y17008835D01*
X31169263Y17027887D01*
X31178452Y17050072D01*
X31181586Y17073880D01*
X31178452Y17097688D01*
X31169263Y17119873D01*
X31154645Y17138925D01*
X31150497Y17142108D01*
X31154807Y17154808D01*
X31175958D01*
X31175961Y17154807D01*
X31187759Y17157155D01*
X31197763Y17163838D01*
X31355240Y17321318D01*
X31355243Y17321318D01*
X31361926Y17331322D01*
X31364273Y17343120D01*
Y17812949D01*
X31558630Y18007307D01*
X31573792Y18001027D01*
X31597601Y17997893D01*
X31621408Y18001027D01*
X31643594Y18010217D01*
X31662646Y18024835D01*
X31668369Y18032294D01*
X31681067Y18027983D01*
D02*
G37*
G36*
X26306427Y17843430D02*
Y17482932D01*
X26293729Y17476730D01*
X26289352Y17480144D01*
Y17736819D01*
X26289352Y17736819D01*
X26287006Y17748619D01*
X26280322Y17758623D01*
X26280322Y17758623D01*
X26237628Y17801314D01*
X26238483Y17814607D01*
X26238885Y17814874D01*
X26249219Y17830339D01*
X26252847Y17848579D01*
X26249219Y17866821D01*
X26238885Y17882285D01*
X26223422Y17892618D01*
X26205179Y17896246D01*
X26186938Y17892618D01*
X26171475Y17882285D01*
X26161142Y17866821D01*
X26157513Y17848579D01*
X26161142Y17830339D01*
X26171475Y17814874D01*
X26174347Y17812956D01*
Y17790161D01*
X26174347Y17790160D01*
X26176694Y17778362D01*
X26183377Y17768358D01*
X26227689Y17724049D01*
Y17666177D01*
X26214987Y17662325D01*
X26211743Y17667181D01*
X26211740Y17667181D01*
X26009952Y17868971D01*
Y18064417D01*
X26012823Y18066335D01*
X26023157Y18081799D01*
X26026785Y18100040D01*
X26025528Y18106369D01*
X26037231Y18112625D01*
X26306427Y17843430D01*
D02*
G37*
G36*
X31024554Y17516835D02*
X31043607Y17502217D01*
X31065793Y17493027D01*
X31087680Y17490146D01*
X31091870Y17484753D01*
X31094949Y17477788D01*
X31093561Y17475552D01*
X30454602D01*
X30454599Y17475552D01*
X30442801Y17473206D01*
X30432797Y17466522D01*
X30432797Y17466521D01*
X30364130Y17397855D01*
X30352426Y17404111D01*
X30354947Y17416780D01*
X30351318Y17435020D01*
X30340985Y17450485D01*
X30325522Y17460818D01*
X30307281Y17464445D01*
X30303891Y17463773D01*
X30248669Y17518994D01*
X30253531Y17530728D01*
X31013895D01*
X31024554Y17516835D01*
D02*
G37*
G36*
X30260287Y17420168D02*
X30259613Y17416780D01*
X30263242Y17398540D01*
X30273575Y17383075D01*
X30279626Y17379031D01*
X30275772Y17366331D01*
X30126941D01*
X30126941Y17366333D01*
X30115140Y17363985D01*
X30105139Y17357301D01*
X29872870Y17125032D01*
X28587564D01*
X28584152Y17129408D01*
X28590353Y17142108D01*
X29514798D01*
X29514801Y17142107D01*
X29526599Y17144455D01*
X29536603Y17151138D01*
X29709531Y17324068D01*
X29712921Y17323393D01*
X29731161Y17327022D01*
X29746625Y17337355D01*
X29756958Y17352818D01*
X29760587Y17371060D01*
X29756958Y17389301D01*
X29746625Y17404765D01*
X29731161Y17415099D01*
X29712921Y17418726D01*
X29706677Y17430434D01*
X29757202Y17480959D01*
X30199500D01*
X30260287Y17420168D01*
D02*
G37*
G36*
X31028705Y17142108D02*
X31024554Y17138925D01*
X31009937Y17119873D01*
X31000748Y17097688D01*
X30997614Y17073880D01*
X31000748Y17050072D01*
X31009937Y17027887D01*
X31024554Y17008835D01*
X31038635Y16998032D01*
X31034323Y16985332D01*
X30174545D01*
X30172775Y16987631D01*
X30174142Y17003818D01*
X30325131Y17154808D01*
X31024393D01*
X31028705Y17142108D01*
D02*
G37*
G36*
X26834241Y18452638D02*
X26844574Y18437175D01*
X26860040Y18426842D01*
X26878281Y18423215D01*
X26884525Y18411507D01*
X26878308Y18405292D01*
X26871625Y18395290D01*
X26869278Y18383490D01*
X26869278Y18383488D01*
Y17665341D01*
X26859641Y17650922D01*
X26856015Y17632680D01*
X26859641Y17614439D01*
X26869974Y17598975D01*
X26872849Y17597057D01*
Y17205962D01*
X26872849Y17205960D01*
X26875195Y17194160D01*
X26881879Y17184158D01*
X27016498Y17049539D01*
X27137009Y16929028D01*
Y16851387D01*
X27124307Y16847534D01*
X27120264Y16853584D01*
X27104800Y16863918D01*
X27086560Y16867546D01*
X27068320Y16863918D01*
X27052856Y16853584D01*
X27042523Y16838121D01*
X27041489Y16832932D01*
X26974863D01*
X26972946Y16835805D01*
X26957480Y16846138D01*
X26939240Y16849767D01*
X26920999Y16846138D01*
X26905536Y16835805D01*
X26895203Y16820341D01*
X26891574Y16802100D01*
X26895203Y16783859D01*
X26905536Y16768394D01*
X26920999Y16758063D01*
X26939240Y16754434D01*
X26957480Y16758063D01*
X26972946Y16768394D01*
X26974863Y16771268D01*
X27068781D01*
X27068781Y16771268D01*
X27080048Y16773509D01*
X27086560Y16772214D01*
X27104800Y16775842D01*
X27120264Y16786176D01*
X27124307Y16792226D01*
X27137009Y16788373D01*
Y16485979D01*
X27096747Y16445718D01*
X27090063Y16435716D01*
X27087717Y16423917D01*
X27087717Y16423917D01*
Y16372565D01*
X27087717Y16372563D01*
X27090063Y16360764D01*
X27096747Y16350761D01*
X27119772Y16327737D01*
Y16315036D01*
X27115558Y16310822D01*
X27108875Y16300819D01*
X27106528Y16289020D01*
X27108875Y16277222D01*
X27115558Y16267218D01*
X27125562Y16260535D01*
X27137360Y16258186D01*
X27137360Y16258188D01*
X27144916D01*
X27146835Y16255315D01*
X27162299Y16244981D01*
X27180539Y16241354D01*
X27198782Y16244981D01*
X27214246Y16255315D01*
X27224579Y16270779D01*
X27228207Y16289020D01*
X27224579Y16307262D01*
X27214246Y16322725D01*
X27198782Y16333058D01*
X27195468Y16342503D01*
X27198782Y16354202D01*
X27214246Y16364536D01*
X27224579Y16379999D01*
X27228207Y16398241D01*
X27227533Y16401628D01*
X27258221Y16432318D01*
X27264905Y16442320D01*
X27267252Y16454120D01*
X27267252Y16454121D01*
Y16951889D01*
X27278543Y16963177D01*
X27285226Y16973181D01*
X27287573Y16984979D01*
X27287573Y16984981D01*
Y17134839D01*
X27287573Y17134840D01*
X27285226Y17146638D01*
X27278543Y17156642D01*
X27278540Y17156642D01*
X27248062Y17187122D01*
X27238058Y17193805D01*
X27226260Y17196153D01*
X27226260Y17196152D01*
X27206003D01*
X27204086Y17199025D01*
X27188620Y17209358D01*
X27170380Y17212987D01*
X27152139Y17209358D01*
X27136676Y17199025D01*
X27134756Y17196152D01*
X27129739D01*
X27117941Y17193805D01*
X27107938Y17187122D01*
X27107938Y17187122D01*
X27089029Y17168211D01*
X27053610D01*
X26996503Y17225320D01*
Y17678758D01*
X27006137Y17693179D01*
X27009766Y17711420D01*
X27007877Y17720918D01*
X27019580Y17727176D01*
X27032867Y17713889D01*
Y17653064D01*
X27029996Y17651144D01*
X27019662Y17635681D01*
X27016034Y17617439D01*
X27019662Y17599199D01*
X27029996Y17583736D01*
X27045459Y17573402D01*
X27063699Y17569774D01*
X27081940Y17573402D01*
X27097406Y17583736D01*
X27107739Y17599199D01*
X27111365Y17617439D01*
X27107739Y17635681D01*
X27097406Y17651144D01*
X27094531Y17653064D01*
Y17726659D01*
X27094534Y17726660D01*
X27092184Y17738458D01*
X27085501Y17748462D01*
X26996960Y17837003D01*
X26997858Y17842699D01*
X27011407Y17847108D01*
X27333997Y17524518D01*
X27344000Y17517834D01*
X27355801Y17515488D01*
X27355801Y17515488D01*
X27774829D01*
X28357617Y16932700D01*
X28357617Y16932698D01*
X28358984Y16916512D01*
X28357214Y16914212D01*
X28298212D01*
X27794162Y17418262D01*
X27784158Y17424945D01*
X27772360Y17427293D01*
X27772360Y17427292D01*
X27518423D01*
X27516504Y17430165D01*
X27501041Y17440498D01*
X27482800Y17444125D01*
X27464560Y17440498D01*
X27449094Y17430165D01*
X27438763Y17414700D01*
X27435135Y17396460D01*
X27438763Y17378220D01*
X27449094Y17362755D01*
X27464560Y17352422D01*
X27482800Y17348795D01*
X27501041Y17352422D01*
X27516504Y17362755D01*
X27518423Y17365628D01*
X27759589D01*
X28266177Y16859039D01*
X28266177Y16859038D01*
X28276181Y16852354D01*
X28287979Y16850008D01*
X28299780Y16852354D01*
X28300067Y16852548D01*
X28559695D01*
X28561615Y16849675D01*
X28577078Y16839342D01*
X28595319Y16835715D01*
X28613562Y16839342D01*
X28629025Y16849675D01*
X28639359Y16865138D01*
X28642987Y16883380D01*
X28639359Y16901620D01*
X28633112Y16910968D01*
X28639902Y16923668D01*
X31081937D01*
X31082770Y16910968D01*
X31065793Y16908733D01*
X31043607Y16899544D01*
X31024554Y16884924D01*
X31009937Y16865874D01*
X31000748Y16843687D01*
X30997614Y16819881D01*
X31000748Y16796072D01*
X31009937Y16773888D01*
X31024554Y16754836D01*
X31043607Y16740218D01*
X31065793Y16731027D01*
X31089600Y16727893D01*
X31113409Y16731027D01*
X31135593Y16740218D01*
X31154645Y16754836D01*
X31169263Y16773888D01*
X31178452Y16796072D01*
X31180270Y16809885D01*
X31193680Y16814436D01*
X31429608Y16578510D01*
Y16449042D01*
X31429608Y16449040D01*
X31431955Y16437241D01*
X31438638Y16427238D01*
X31515027Y16350848D01*
X31508746Y16335687D01*
X31505612Y16311880D01*
X31508746Y16288072D01*
X31517938Y16265887D01*
X31532556Y16246835D01*
X31551608Y16232217D01*
X31573792Y16223027D01*
X31597601Y16219893D01*
X31607974Y16221259D01*
X31613907Y16209230D01*
X31572128Y16167451D01*
X28628412D01*
X28325021Y16470842D01*
X28315018Y16477525D01*
X28303220Y16479874D01*
X28303220Y16479872D01*
X27660663D01*
X27658746Y16482745D01*
X27643280Y16493079D01*
X27625040Y16496706D01*
X27606799Y16493079D01*
X27591336Y16482745D01*
X27584753Y16472893D01*
X27572052Y16476746D01*
Y16482060D01*
X27569705Y16493858D01*
X27563022Y16503862D01*
X27563022Y16503862D01*
X27562811Y16504073D01*
X27563486Y16507460D01*
X27559857Y16525700D01*
X27549524Y16541165D01*
X27534061Y16551498D01*
X27515820Y16555125D01*
X27497580Y16551498D01*
X27482114Y16541165D01*
X27471783Y16525700D01*
X27468155Y16507460D01*
X27471783Y16489220D01*
X27482114Y16473755D01*
X27497580Y16463422D01*
X27510388Y16460875D01*
Y16240761D01*
X27510388Y16240759D01*
X27512735Y16228961D01*
X27519418Y16218958D01*
X27637387Y16100989D01*
Y16083281D01*
X27637387Y16083279D01*
X27639734Y16071481D01*
X27646417Y16061478D01*
X27753308Y15954588D01*
X27752634Y15951199D01*
X27756262Y15932959D01*
X27766595Y15917496D01*
X27782059Y15907162D01*
X27800299Y15903534D01*
X27818542Y15907162D01*
X27834006Y15917496D01*
X27844339Y15932959D01*
X27847964Y15951199D01*
X27844339Y15969441D01*
X27834006Y15984904D01*
X27818542Y15995238D01*
X27800299Y15998866D01*
X27796912Y15998192D01*
X27699051Y16096051D01*
Y16113759D01*
X27699054Y16113760D01*
X27696704Y16125558D01*
X27690021Y16135562D01*
X27690021Y16135562D01*
X27572052Y16253531D01*
Y16421333D01*
X27584753Y16425188D01*
X27591336Y16415335D01*
X27606799Y16405002D01*
X27625040Y16401373D01*
X27643280Y16405002D01*
X27658746Y16415335D01*
X27660663Y16418208D01*
X28290448D01*
X28592004Y16116652D01*
X28590512Y16109338D01*
X28587241Y16103952D01*
X28158441D01*
X28146640Y16101605D01*
X28136639Y16094922D01*
X28136639Y16094920D01*
X27932309Y15890591D01*
X26731030D01*
X26524542Y16097081D01*
Y16303642D01*
X26535742Y16309628D01*
X26537460Y16308482D01*
X26555701Y16304854D01*
X26573941Y16308482D01*
X26589404Y16318816D01*
X26599738Y16334279D01*
X26603366Y16352521D01*
X26599738Y16370761D01*
X26589404Y16386224D01*
X26586533Y16388144D01*
Y16647089D01*
X26748712Y16809268D01*
X26748712Y16809268D01*
X26755396Y16819270D01*
X26757742Y16831070D01*
X26757742Y16831071D01*
Y17120740D01*
X26759137Y17121809D01*
X26770441Y17125414D01*
X26848630Y17047227D01*
X26849481Y17042940D01*
X26859814Y17027475D01*
X26875278Y17017142D01*
X26893521Y17013515D01*
X26911761Y17017142D01*
X26927225Y17027475D01*
X26937558Y17042940D01*
X26941187Y17061180D01*
X26937558Y17079420D01*
X26927225Y17094885D01*
X26911761Y17105219D01*
X26893521Y17108846D01*
X26877420Y17105643D01*
X26820212Y17162851D01*
Y18458075D01*
X26832913Y18459326D01*
X26834241Y18452638D01*
D02*
G37*
%LPC*%
G36*
X29428439Y17616846D02*
X29410199Y17613219D01*
X29394736Y17602885D01*
X29392816Y17600012D01*
X29146500D01*
X29146500Y17600014D01*
X29134702Y17597665D01*
X29124698Y17590982D01*
X29124698Y17590981D01*
X28951767Y17418053D01*
X28948380Y17418726D01*
X28930139Y17415099D01*
X28914676Y17404765D01*
X28904343Y17389301D01*
X28900714Y17371060D01*
X28904343Y17352818D01*
X28914676Y17337355D01*
X28930139Y17327022D01*
X28948380Y17323393D01*
X28966620Y17327022D01*
X28982086Y17337355D01*
X28992419Y17352818D01*
X28996045Y17371060D01*
X28995370Y17374448D01*
X29159271Y17538348D01*
X29392816D01*
X29394736Y17535475D01*
X29410199Y17525142D01*
X29428439Y17521513D01*
X29446680Y17525142D01*
X29462146Y17535475D01*
X29472479Y17550938D01*
X29476105Y17569180D01*
X29472479Y17587421D01*
X29462146Y17602885D01*
X29446680Y17613219D01*
X29428439Y17616846D01*
D02*
G37*
G36*
X27213559Y17539027D02*
X27196384Y17536766D01*
X27180377Y17530136D01*
X27166632Y17519589D01*
X27156085Y17505844D01*
X27149454Y17489838D01*
X27147192Y17472659D01*
X27149454Y17455482D01*
X27156085Y17439476D01*
X27166632Y17425731D01*
X27180377Y17415184D01*
X27196384Y17408554D01*
X27213559Y17406293D01*
X27230737Y17408554D01*
X27246744Y17415184D01*
X27254984Y17421507D01*
X27284610D01*
X27324969Y17381149D01*
Y16774190D01*
X27322617Y16773216D01*
X27308871Y16762669D01*
X27298325Y16748924D01*
X27291693Y16732916D01*
X27289432Y16715739D01*
X27291693Y16698563D01*
X27298325Y16682556D01*
X27308871Y16668811D01*
X27322617Y16658264D01*
X27338623Y16651634D01*
X27355801Y16649371D01*
X27372977Y16651634D01*
X27388983Y16658264D01*
X27402728Y16668811D01*
X27413275Y16682556D01*
X27419907Y16698563D01*
X27422168Y16715739D01*
X27419907Y16732916D01*
X27413275Y16748924D01*
X27402728Y16762669D01*
X27388983Y16773216D01*
X27386633Y16774190D01*
Y17393919D01*
X27386633Y17393919D01*
X27384286Y17405719D01*
X27377603Y17415723D01*
X27377600Y17415723D01*
X27319183Y17474142D01*
X27309180Y17480824D01*
X27297379Y17483173D01*
X27297379Y17483173D01*
X27278543D01*
X27277667Y17489838D01*
X27271036Y17505844D01*
X27260489Y17519589D01*
X27246744Y17530136D01*
X27230737Y17536766D01*
X27213559Y17539027D01*
D02*
G37*
G36*
X31089600Y16657867D02*
X31065793Y16654733D01*
X31043607Y16645543D01*
X31024554Y16630925D01*
X31009937Y16611873D01*
X31000748Y16589688D01*
X30997614Y16565880D01*
X31000748Y16542072D01*
X31009937Y16519887D01*
X31024554Y16500835D01*
X31043607Y16486217D01*
X31065793Y16477026D01*
X31089600Y16473894D01*
X31113409Y16477026D01*
X31135593Y16486217D01*
X31154645Y16500835D01*
X31169263Y16519887D01*
X31178452Y16542072D01*
X31181586Y16565880D01*
X31178452Y16589688D01*
X31169263Y16611873D01*
X31154645Y16630925D01*
X31135593Y16645543D01*
X31113409Y16654733D01*
X31089600Y16657867D01*
D02*
G37*
G36*
Y16403867D02*
X31065793Y16400732D01*
X31043607Y16391544D01*
X31024554Y16376926D01*
X31009937Y16357874D01*
X31000748Y16335687D01*
X30997614Y16311880D01*
X31000748Y16288072D01*
X31009937Y16265887D01*
X31024554Y16246835D01*
X31043607Y16232217D01*
X31065793Y16223027D01*
X31089600Y16219893D01*
X31113409Y16223027D01*
X31135593Y16232217D01*
X31154645Y16246835D01*
X31169263Y16265887D01*
X31178452Y16288072D01*
X31181586Y16311880D01*
X31178452Y16335687D01*
X31169263Y16357874D01*
X31154645Y16376926D01*
X31135593Y16391544D01*
X31113409Y16400732D01*
X31089600Y16403867D01*
D02*
G37*
%LPD*%
G36*
X14504459Y21865379D02*
X14504459Y21865378D01*
X14514461Y21858694D01*
X14526260Y21856348D01*
X14703226D01*
X14710670Y21843646D01*
X14710493Y21843330D01*
X14708002Y21841812D01*
X14493311D01*
X13819083Y22516042D01*
X13809079Y22522725D01*
X13800822Y22524368D01*
X13802074Y22537068D01*
X13832768D01*
X14504459Y21865379D01*
D02*
G37*
G36*
X14458739Y21789178D02*
X14458739Y21789178D01*
X14460104Y21772990D01*
X14459607Y21772345D01*
X14446480Y21771803D01*
X13766609Y22451674D01*
X13771471Y22463408D01*
X13784509D01*
X14458739Y21789178D01*
D02*
G37*
G36*
X15332806Y22809950D02*
X15325459Y22799585D01*
X15313660Y22801933D01*
X15313660Y22801932D01*
X14216396D01*
X14210336Y22814632D01*
X14214990Y22820380D01*
X15322377D01*
X15332806Y22809950D01*
D02*
G37*
G36*
X19655891Y22242780D02*
X18672913D01*
Y23251744D01*
X19655891D01*
Y22242780D01*
D02*
G37*
G36*
X19243416Y21232172D02*
X19246057Y21228342D01*
X19248853Y21219188D01*
X19237321Y21201932D01*
X19233759Y21184016D01*
X18401253Y20351511D01*
X18386510Y20348579D01*
X18377892Y20342821D01*
X18368736Y20351978D01*
X18372459Y20357549D01*
X18374760Y20369122D01*
X19238074Y21232436D01*
X19243416Y21232172D01*
D02*
G37*
D13*
X23685500Y17722780D02*
D03*
Y17872780D02*
D03*
X24394160Y18002180D02*
D03*
Y18152180D02*
D03*
X24124921Y17933600D02*
D03*
Y18083600D02*
D03*
X23939500Y17857401D02*
D03*
Y18007401D02*
D03*
D29*
X14378940Y21676360D02*
X14650720D01*
X26410919Y17800320D02*
X26489661Y17879060D01*
X26410919Y17437100D02*
Y17800320D01*
Y17437100D02*
X26603961Y17244060D01*
Y17134840D02*
Y17244060D01*
X26493710Y16084309D02*
X26718259Y15859760D01*
X26499820Y16384306D02*
Y17195799D01*
X26493710Y16378197D02*
X26499820Y16384306D01*
X26493710Y16084309D02*
Y16378197D01*
X24124921Y17933600D02*
X24240559D01*
X24394160Y18002180D02*
X24547900D01*
X23809959Y17858740D02*
X23938161D01*
X23576280Y17701260D02*
X23704620D01*
X26308530Y18820195D02*
X26309561Y18821225D01*
X26308530Y18731165D02*
Y18820195D01*
Y18731165D02*
X26309561Y18730135D01*
X26354010Y18801357D02*
X26355042Y18802386D01*
X26354010Y18750003D02*
Y18801357D01*
Y18750003D02*
X26355042Y18748973D01*
Y18577560D02*
Y18748973D01*
X26475931Y18857237D02*
X26482040Y18863347D01*
X26475931Y18805882D02*
Y18857237D01*
Y18805882D02*
X26482040Y18799773D01*
Y18635980D02*
Y18799773D01*
Y18635980D02*
X26642059Y18475960D01*
X26205179Y17790160D02*
X26258521Y17736819D01*
Y17437100D02*
Y17736819D01*
X26250659Y16456900D02*
X26317117D01*
X26189941Y16517619D02*
X26250659Y16456900D01*
X26309561Y18097260D02*
X26385519Y18021300D01*
X26309561Y19901140D02*
X26311859Y19903439D01*
X26961069Y18340108D02*
X27020724Y18399760D01*
X26961069Y17829289D02*
X27063699Y17726660D01*
X26961069Y17829289D02*
Y18340108D01*
X26603961Y18122900D02*
Y18328641D01*
X26355042Y18577560D02*
X26603961Y18328641D01*
X26984961Y20767039D02*
X30464761D01*
X26725879Y20424139D02*
X26871689Y20569949D01*
X26819861Y19908521D02*
X27005280Y20093941D01*
X26871689Y20569949D02*
X27030957D01*
X27031989Y20568919D02*
X30624112D01*
X27030957Y20569949D02*
X27031989Y20568919D01*
X27005280Y20093941D02*
Y20507961D01*
X14981160Y21267661D02*
X14988541Y21275040D01*
X14914880Y21201379D02*
X14981160Y21267661D01*
X14485620Y21201379D02*
X14914880D01*
X13586459Y22100540D02*
X14485620Y21201379D01*
X13144501Y22100540D02*
X13586459D01*
X12054840Y21010880D02*
X13144501Y22100540D01*
X10454640Y21010880D02*
X12054840D01*
X15092680Y21249640D02*
Y21258566D01*
X15014217Y21337030D02*
X15092680Y21258566D01*
X14461729Y21337030D02*
X15014217D01*
X13589000Y22209760D02*
X14461729Y21337030D01*
X13139420Y22209760D02*
X13589000D01*
X12575540Y21645880D02*
X13139420Y22209760D01*
X10454640Y21645880D02*
X12575540D01*
X14172032Y22851212D02*
X15335149D01*
X14170660Y22771100D02*
X15313660D01*
X16578580Y21506180D01*
X13472160Y21902420D02*
Y21948140D01*
X11089640Y19519901D02*
X13472160Y21902420D01*
X11089640Y19418300D02*
Y19519901D01*
X10726420Y19055080D02*
X11089640Y19418300D01*
X10553701Y19055080D02*
X10726420D01*
X13075920Y21747479D02*
Y21869400D01*
X11399520Y20071080D02*
X13075920Y21747479D01*
X10553701Y20071080D02*
X11399520D01*
X13465773Y22029420D02*
X13487399D01*
X11253433Y19817081D02*
X13465773Y22029420D01*
X10553701Y19817081D02*
X11253433D01*
X15026640Y21183600D02*
X15092680Y21249640D01*
X15026640Y19837399D02*
Y21183600D01*
X14981160Y19818562D02*
Y21267661D01*
X26903680Y17205960D02*
Y17632680D01*
Y17205960D02*
X27038300Y17071339D01*
X27157681D01*
X26962100Y17711420D02*
X26965671Y17707851D01*
Y17212550D02*
Y17707851D01*
Y17212550D02*
X27040839Y17137379D01*
X27101801D01*
X27129739Y17165320D01*
X27170380D01*
X27137360Y16289020D02*
X27180539D01*
X27170380Y17165320D02*
X27226260D01*
X27256741Y17134840D01*
Y16984979D02*
Y17134840D01*
X26474420Y17660620D02*
X26588721Y17774921D01*
X26474420Y17492979D02*
Y17660620D01*
Y17492979D02*
X26509979Y17457420D01*
X26591260D01*
X27180539Y16398241D02*
X27236420Y16454120D01*
Y16964661D01*
X27256741Y16984979D01*
X27137360Y16289020D02*
X27167841Y16319501D01*
X26903680Y17205960D02*
X27167841Y16941800D01*
X27118549Y16372563D02*
Y16423917D01*
X27167841Y16473207D02*
Y16941800D01*
Y16319501D02*
Y16323273D01*
X27118549Y16372563D02*
X27167841Y16323273D01*
X27118549Y16423917D02*
X27167841Y16473207D01*
X27068781Y16802100D02*
X27086560Y16819881D01*
X26939240Y16802100D02*
X27068781D01*
X31333441Y17825720D02*
X31597601Y18089880D01*
X31089600Y18597881D02*
X31491159Y18196320D01*
X31641690D01*
X28303220Y16449040D02*
X28615640Y16136620D01*
X27625040Y16449040D02*
X28303220D01*
X27640280Y18112740D02*
X27642819Y18115280D01*
X27541220Y16240759D02*
X27668219Y16113760D01*
X27541220Y16240759D02*
Y16482060D01*
X27515820Y16507460D02*
X27541220Y16482060D01*
X30312360Y17185640D02*
X31175961D01*
X31333441Y17343120D01*
X27571701Y19024600D02*
X27706320D01*
X31333441Y17343120D02*
Y17825720D01*
X31114999Y17444720D02*
X31214059Y17543781D01*
Y17711420D01*
X31089600Y17835880D02*
X31214059Y17711420D01*
X28018741Y17952721D02*
X29090619D01*
X27927301Y18044160D02*
X28018741Y17952721D01*
X27642819Y18115280D02*
X27651950Y18106149D01*
X28994101D01*
X29011880Y17724120D02*
X29207458D01*
X27518359Y19090640D02*
X27658060D01*
X29672281Y17724120D02*
Y18511520D01*
X30896561Y19735800D01*
X31475681D01*
X31597601Y19613879D01*
X29850079Y18343880D02*
X30990540Y19484340D01*
X29850079Y17746980D02*
Y18343880D01*
X30454599Y17444720D02*
X31114999D01*
X29644339Y17561560D02*
X31069281D01*
X31089600Y17581880D01*
X30212271Y17511790D02*
X30307281Y17416780D01*
X30126941Y17335500D02*
X30345380D01*
X30454599Y17444720D01*
X28126450Y17403050D02*
Y17404356D01*
X28090137Y17440669D02*
X28126450Y17404356D01*
X28088831Y17440669D02*
X28090137D01*
X28059381Y17470120D02*
X28088831Y17440669D01*
X28059381Y17470120D02*
Y17528540D01*
X28615640Y16136620D02*
X31584900D01*
X27355801Y17546320D02*
X27787601D01*
X31105508Y16954500D02*
X31196039Y16863969D01*
Y16855679D02*
Y16863969D01*
Y16855679D02*
X31460440Y16591280D01*
Y16449040D02*
Y16591280D01*
Y16449040D02*
X31597601Y16311880D01*
X27482800Y17396460D02*
X27772360D01*
X27787601Y17546320D02*
X28379419Y16954500D01*
X31105508D01*
X28938220Y17650459D02*
X29011880Y17724120D01*
X27556461Y17650459D02*
X28938220D01*
X30152341Y17025620D02*
X30312360Y17185640D01*
X28064459Y17378680D02*
X28417520Y17025620D01*
X29883099Y17091660D02*
X30126941Y17335500D01*
X28417520Y17025620D02*
X30152341D01*
X29880560Y17094200D02*
X29883099Y17091660D01*
X28544519Y17094200D02*
X29880560D01*
X28126450Y17403050D02*
X28356561Y17172940D01*
X29514801D01*
X29712921Y17371060D01*
X28455621Y17299940D02*
X28521661Y17233900D01*
X29466541D01*
X29744431Y17511790D01*
X30212271D01*
X27772360Y17396460D02*
X28287979Y16880840D01*
X28290521Y16883380D01*
X28595319D01*
X28948380Y17371060D02*
X29146500Y17569180D01*
X29428439D01*
X27033221Y20632420D02*
X28290521D01*
X26337259Y17312640D02*
Y17856200D01*
X26189941Y16517619D02*
Y17645380D01*
X31584900Y16136620D02*
X31711899Y16263620D01*
Y18126109D01*
X31641690Y18196320D02*
X31711899Y18126109D01*
X31597601Y20375880D02*
X31706821Y20266660D01*
X30990540Y19484340D02*
X31623001D01*
X31706821Y19568159D01*
Y20266660D01*
X31597601Y21137880D02*
X31803339Y20932140D01*
Y16290742D02*
Y20932140D01*
X31603738Y16091141D02*
X31803339Y16290742D01*
X31602921Y16091141D02*
X31603738D01*
X31584900Y16073120D02*
X31602921Y16091141D01*
X28158441Y16073120D02*
X31584900D01*
X27668219Y16083279D02*
Y16113760D01*
Y16083279D02*
X27800299Y15951199D01*
X27945081Y15859760D02*
X28158441Y16073120D01*
X30464761Y20767039D02*
X31089600Y21391879D01*
Y21542409D02*
Y21645880D01*
Y21542409D02*
X31196039Y21435970D01*
Y21074139D02*
Y21435970D01*
X31112219Y20990320D02*
X31196039Y21074139D01*
X31045511Y20990320D02*
X31112219D01*
X26718259Y15859760D02*
X27945081D01*
X26555701Y16352521D02*
Y16659860D01*
X31089600Y22153880D02*
X31320740Y21922740D01*
Y20662900D02*
Y21922740D01*
X31089600Y22407880D02*
X31384241Y22113240D01*
Y20519991D02*
Y22113240D01*
X26789380Y17150079D02*
X26878281Y17061180D01*
X30624112Y20568919D02*
X31045511Y20990320D01*
X27233881Y19974561D02*
Y20109180D01*
X27025601Y19766280D02*
X27233881Y19974561D01*
X26977341Y19931380D02*
Y19949159D01*
X26819861Y19354800D02*
Y19908521D01*
X26659839Y19116040D02*
Y20144740D01*
X30012640Y19311620D02*
X30947360Y20246339D01*
X31110590D01*
X31384241Y20519991D01*
X27525980Y20502879D02*
X28310840D01*
X31045511Y20482320D02*
X31133688D01*
X31136923Y20479085D01*
X31136926D01*
X31320740Y20662900D01*
X27017981Y17884140D02*
X27355801Y17546320D01*
X26900110Y17636250D02*
X26903680Y17632680D01*
X26900110Y17636250D02*
Y18383490D01*
X26995120Y18478500D01*
X27142441D01*
X27063699Y17617439D02*
Y17726660D01*
X27020724Y18399760D02*
X27188159D01*
X28792206Y19311620D02*
X30012640D01*
X27609799Y18887440D02*
X27769821D01*
X28310840Y20502879D02*
X28369260Y20444460D01*
Y20403819D02*
Y20444460D01*
X27017981Y17884140D02*
X27023059Y17889220D01*
Y18285460D01*
X27035760Y18272760D01*
X27188574D01*
X26789380Y17150079D02*
Y18938240D01*
X27022031Y19170889D01*
X26819861Y19354800D02*
X26944321Y19230341D01*
X26946860Y19232880D01*
X27020520D01*
X27513281Y19568159D02*
Y19646899D01*
X28333701Y18544540D02*
X28719781Y18930620D01*
X28320999Y18544540D02*
X28333701D01*
X28303220Y18686780D02*
X28310840D01*
X28628339Y19004280D01*
X28056839Y18745200D02*
X28127960D01*
X28389581Y19006821D01*
X26878281Y18470880D02*
X27000201Y18592799D01*
X28681680Y18244820D02*
X28709619Y18216879D01*
X27769821Y18887440D02*
X28338779Y18318480D01*
X28887421D01*
X29644339Y17561560D01*
X28387039Y18394679D02*
X28676599D01*
X29486859Y19204939D01*
X26587689Y18922723D02*
Y18928291D01*
Y18922723D02*
X26601419Y18908994D01*
Y18884900D02*
Y18908994D01*
X26725879Y19130048D02*
X26726910Y19129018D01*
X26725879Y19130048D02*
Y20424139D01*
X26726910Y16831070D02*
Y19129018D01*
X26555701Y16659860D02*
X26726910Y16831070D01*
X26542999Y20777200D02*
X26553159Y20767039D01*
X26504901Y18117821D02*
Y18267680D01*
X26385519Y18021300D02*
X26642059D01*
X27000201Y18592799D02*
X27274521D01*
X27515820Y18351500D01*
Y18242281D02*
Y18351500D01*
X27022031Y19170889D02*
X27070291D01*
X27154111Y19254710D01*
X27184283D01*
X27187613Y19258040D01*
X27254749D01*
X27513281Y19646899D02*
X27693619Y19827240D01*
Y20106641D01*
X27355801Y16715739D02*
Y17393919D01*
X27297379Y17452341D02*
X27355801Y17393919D01*
X27233881Y17452341D02*
X27297379D01*
X27213559Y17472659D02*
X27233881Y17452341D01*
X27353259Y17942560D02*
Y18394679D01*
Y17942560D02*
X27475180Y17820641D01*
X27538681D01*
X27332700Y17739600D02*
X28890201D01*
X27129739Y17942560D02*
X27332700Y17739600D01*
X28890201D02*
X28895041Y17744440D01*
X26923999Y18971260D02*
X26979880D01*
X27706320Y18244820D01*
X28681680D01*
X27221179Y19174460D02*
X27782520Y18613120D01*
Y18336259D02*
Y18613120D01*
X27070291Y19421870D02*
Y19584911D01*
Y19421870D02*
X27165302Y19326860D01*
X27294839D01*
X27381201Y19240500D01*
X27355869Y19156920D02*
X27660022D01*
X27254749Y19258040D02*
X27355869Y19156920D01*
X28534082Y20378143D02*
X28559760Y20403819D01*
X28508682Y20378143D02*
X28534082D01*
X27533600Y20408900D02*
X28166061D01*
X28472369Y20341830D02*
X28508682Y20378143D01*
X28233130Y20341830D02*
X28472369D01*
X28166061Y20408900D02*
X28233130Y20341830D01*
X30857791Y20294600D02*
X31045511Y20482320D01*
X28729941Y19608800D02*
X28981400D01*
X28108459Y20294600D02*
X30857791D01*
X26977341Y19949159D02*
X27376120Y20347940D01*
X27506894D01*
X27507922Y20346910D01*
X27559277D01*
X27376120Y20238721D02*
X27437079Y20299680D01*
X27642819Y20157440D02*
X27693619Y20106641D01*
X27642819Y20157440D02*
Y20243800D01*
X27437079Y20299680D02*
X27611032D01*
X27617142Y20305791D01*
X27563638Y20351270D02*
X28051788D01*
X27617142Y20305791D02*
X28032950D01*
X28729941Y19608800D01*
X27559277Y20346910D02*
X27563638Y20351270D01*
X28051788D02*
X28108459Y20294600D01*
X27070291Y19584911D02*
X27503119Y20017740D01*
X27510739D01*
Y20132040D01*
X27559000Y20180299D01*
X27553922Y19316701D02*
X27614880Y19377660D01*
X27769821Y18887440D02*
X27966669Y19084290D01*
X27965399Y19085561D02*
X27966669Y19084290D01*
X27965399Y19085561D02*
X28389581D01*
X27767279Y18983960D02*
X27932379Y19149060D01*
X28953461D02*
X28996640Y19105881D01*
X27706320Y19024600D02*
X27889200Y19207480D01*
X27658060Y19090640D02*
X27823160Y19255740D01*
X29260800Y19207480D02*
X29293820Y19240500D01*
X27932379Y19149060D02*
X28953461D01*
X27889200Y19207480D02*
X29260800D01*
X28681680Y19255740D02*
X28696921Y19270979D01*
X27823160Y19255740D02*
X28681680D01*
X28769348Y19334480D02*
X28792206Y19311620D01*
X27614880Y19377660D02*
X27868881D01*
X27889200Y19397980D01*
X27660022Y19156920D02*
X27835281Y19332179D01*
X27887717D01*
X27890018Y19334480D01*
X28769348D01*
X27132281Y19504660D02*
X27155139Y19527521D01*
X29448761D02*
X29489401Y19486880D01*
X27155139Y19527521D02*
X27466254D01*
X27487604Y19506171D01*
X27538956D01*
X27560306Y19527521D01*
X29448761D01*
X27561539Y19441161D02*
X27580350Y19459970D01*
X28916870D01*
X28976321Y19400520D01*
X29474161Y18481039D02*
Y18867120D01*
X29202380Y18209261D02*
X29474161Y18481039D01*
X16640570Y21480502D02*
Y21545790D01*
X16551947Y21391879D02*
X16640570Y21480502D01*
X15335149Y22851212D02*
X16640570Y21545790D01*
X26309561Y18097260D02*
Y18730135D01*
X26174701Y18204179D02*
X26240741D01*
X26542999Y18972981D02*
X26587689Y18928291D01*
X26355042Y19735800D02*
X26385519Y19766280D01*
X26309561Y18821225D02*
Y19901140D01*
X26355042Y18802386D02*
Y19735800D01*
X26482040Y18863347D02*
Y19611340D01*
X26542999Y18972981D02*
Y19604953D01*
X26546570Y19608524D01*
Y19659877D01*
X26542999Y19663448D02*
X26546570Y19659877D01*
X26542999Y19663448D02*
Y20777200D01*
X26596341Y20604480D02*
X26626819Y20634959D01*
X26596341Y18983960D02*
X26614120Y18966180D01*
X26596341Y18983960D02*
Y20604480D01*
X26139139Y20022820D02*
X26156921Y20040601D01*
X26344879D01*
X13693140Y22362160D02*
X14378940Y21676360D01*
X12527280Y22362160D02*
X13693140D01*
X12148820Y22740620D02*
X12527280Y22362160D01*
X14434821Y21739861D02*
X14705000D01*
X13731239Y22443440D02*
X14434821Y21739861D01*
X12593320Y22443440D02*
X13731239D01*
X12425680Y22611079D02*
X12593320Y22443440D01*
X14480540Y21810980D02*
X14755013D01*
X13797279Y22494240D02*
X14480540Y21810980D01*
X12669520Y22494240D02*
X13797279D01*
X12484100Y22679660D02*
X12669520Y22494240D01*
X14526260Y21887180D02*
X14805000D01*
X13845540Y22567900D02*
X14526260Y21887180D01*
X12712700Y22567900D02*
X13845540D01*
X25979120Y17856200D02*
X26189941Y17645380D01*
X25979120Y17856200D02*
Y18100040D01*
X26136600Y18242281D02*
X26174701Y18204179D01*
X14981160Y19818562D02*
X16519342Y18280380D01*
X25913080D01*
X26337259Y17856200D01*
X15026640Y19837399D02*
X16538181Y18325861D01*
X25931918D01*
X26015497Y18242281D01*
X26136600D01*
X26205179Y17790160D02*
Y17848579D01*
X19357339Y20812759D02*
X19634200D01*
X20053300Y20393660D01*
D30*
X11653171Y19708209D02*
X12039949D01*
X16200121Y19202400D02*
X16804640Y19806920D01*
X17658080Y20505420D02*
X18016220D01*
X18496280Y20985480D01*
X18605499D01*
D31*
X27142441Y20993100D02*
X27208481Y20927060D01*
X11846580Y17914639D02*
Y18315961D01*
X11366500Y17434560D02*
X11846580Y17914639D01*
X11366500Y16878300D02*
Y17434560D01*
X25059641Y20383501D02*
Y20993100D01*
X27142441D01*
D32*
X18400000Y20284680D02*
X19293840Y21178520D01*
X18323560Y20383501D02*
X19234779Y21294720D01*
X16543021Y18750281D02*
X17045940Y19253200D01*
X16657320Y18587720D02*
X17178020Y19108420D01*
X20210780Y20883881D02*
X20215862Y20888960D01*
X20990559D01*
D33*
X24750960Y18152180D02*
X24759920Y18143221D01*
X24394160Y18152180D02*
X24750960D01*
X24193500D02*
X24394160D01*
X24124921Y18083600D02*
X24193500Y18152180D01*
X24015700Y18083600D02*
X24124921D01*
X23939500Y18007401D02*
X24015700Y18083600D01*
X23820120Y18007401D02*
X23939500D01*
X23685500Y17872780D02*
X23820120Y18007401D01*
X11170920Y18846800D02*
X11202670Y18878551D01*
X10383520Y18846800D02*
X11170920D01*
X10299701Y18930618D02*
X10383520Y18846800D01*
X10299701Y18930618D02*
Y19055080D01*
X30632401Y22654260D02*
X30894019Y22915880D01*
X31089600D01*
X30632401Y21427440D02*
Y22654260D01*
X15283180Y20909280D02*
X15961360D01*
X17454880Y19415759D01*
X15156180Y20914360D02*
X15318739Y21076920D01*
X15930881D01*
X17525999Y19481799D01*
X30566599Y21454695D02*
Y22760014D01*
X30976465Y23169881D01*
X31089600D01*
X17454880Y19415759D02*
X21308060D01*
X17525999Y19481799D02*
X21281046D01*
X30412106Y21300200D02*
X30566599Y21454695D01*
X30439359Y21234399D02*
X30632401Y21427440D01*
X21281046Y19481799D02*
X23099445Y21300200D01*
X21308060Y19415759D02*
X23126700Y21234399D01*
X23099445Y21300200D02*
X30412106D01*
X23126700Y21234399D02*
X30439359D01*
X19177620Y20908659D02*
X19973940D01*
X20159979Y21094701D01*
Y21414740D01*
X19497040Y22077679D02*
X20159979Y21414740D01*
X19497040Y22077679D02*
Y22341840D01*
X19177620Y20304140D02*
Y20908659D01*
X24747220Y18143221D02*
X24759920D01*
X19177620Y20304140D02*
X19338290Y20143469D01*
D34*
X21066760Y24244299D02*
X29700220D01*
X29964380Y23980141D01*
Y23428419D02*
Y23980141D01*
D35*
X31089600Y23169881D02*
X31597601D01*
X31089600Y22915880D02*
X31597601D01*
D36*
X29972000Y23428419D02*
D03*
Y21904420D02*
D03*
D37*
Y23047420D02*
D03*
Y22666420D02*
D03*
Y22285420D02*
D03*
X24892000Y22664420D02*
D03*
Y23394420D02*
D03*
Y21934419D02*
D03*
D38*
X31597601Y24185880D02*
D03*
Y23931880D02*
D03*
Y23677879D02*
D03*
Y23423880D02*
D03*
Y23169881D02*
D03*
Y22915880D02*
D03*
Y22661880D02*
D03*
Y22407880D02*
D03*
Y22153880D02*
D03*
Y21899879D02*
D03*
Y21645880D02*
D03*
Y21391879D02*
D03*
Y21137880D02*
D03*
Y20883881D02*
D03*
Y20629880D02*
D03*
Y20375880D02*
D03*
Y20121880D02*
D03*
Y19867880D02*
D03*
Y19613879D02*
D03*
Y19359880D02*
D03*
Y19105881D02*
D03*
Y18851880D02*
D03*
Y18597881D02*
D03*
Y18343880D02*
D03*
Y18089880D02*
D03*
Y17835880D02*
D03*
Y17581880D02*
D03*
Y17327879D02*
D03*
Y17073880D02*
D03*
Y16819881D02*
D03*
Y16565880D02*
D03*
Y16311880D02*
D03*
X31089600Y24185880D02*
D03*
Y23931880D02*
D03*
Y23677879D02*
D03*
Y23423880D02*
D03*
Y23169881D02*
D03*
Y22915880D02*
D03*
Y22661880D02*
D03*
Y22407880D02*
D03*
Y22153880D02*
D03*
Y21899879D02*
D03*
Y21645880D02*
D03*
Y21391879D02*
D03*
Y21137880D02*
D03*
Y20883881D02*
D03*
Y20629880D02*
D03*
Y20375880D02*
D03*
Y20121880D02*
D03*
Y19867880D02*
D03*
Y19613879D02*
D03*
Y19359880D02*
D03*
Y19105881D02*
D03*
Y18851880D02*
D03*
Y18597881D02*
D03*
Y18343880D02*
D03*
Y18089880D02*
D03*
Y17835880D02*
D03*
Y17581880D02*
D03*
Y17327879D02*
D03*
Y17073880D02*
D03*
Y16819881D02*
D03*
Y16565880D02*
D03*
Y16311880D02*
D03*
X10815280Y18032520D02*
D03*
Y18482520D02*
D03*
D39*
X31851599Y24693880D02*
D03*
Y15803880D02*
D03*
D40*
X10454640Y22534880D02*
D03*
Y22280881D02*
D03*
Y22915880D02*
D03*
Y23169881D02*
D03*
Y21010880D02*
D03*
Y21264880D02*
D03*
Y16857980D02*
D03*
Y16603979D02*
D03*
Y17492979D02*
D03*
Y17238980D02*
D03*
Y23804880D02*
D03*
Y23550880D02*
D03*
Y21899879D02*
D03*
Y21645880D02*
D03*
D41*
X10553701Y19055080D02*
D03*
X10299701D02*
D03*
X10553701Y19309081D02*
D03*
X10299701D02*
D03*
X10553701Y19563080D02*
D03*
X10299701D02*
D03*
Y19817081D02*
D03*
X10553701D02*
D03*
Y20071080D02*
D03*
X10299701D02*
D03*
D42*
X11064280Y18608020D02*
D03*
Y17907021D02*
D03*
D43*
X10515600Y24681180D02*
D03*
Y15791180D02*
D03*
X21066760Y24244299D02*
D03*
X11221720Y18917920D02*
D03*
X11846580Y18315961D02*
D03*
D44*
X14650720Y21676360D02*
D03*
X26492200Y17876520D02*
D03*
X26603961Y17134840D02*
D03*
X24551640Y17998441D02*
D03*
X24249380Y17924780D02*
D03*
X23809959Y17858740D02*
D03*
X23576280Y17701260D02*
D03*
X26708099Y16720821D02*
D03*
X26245358Y16104459D02*
D03*
X26416000Y18775681D02*
D03*
X26537921Y18831560D02*
D03*
X27152600Y17599660D02*
D03*
X26258521Y17437100D02*
D03*
X26317117Y16456900D02*
D03*
X26418539Y19303406D02*
D03*
X26397534Y20351164D02*
D03*
X26385519Y19766280D02*
D03*
X27829184Y20198741D02*
D03*
X26624280Y18674080D02*
D03*
X27162076Y18989725D02*
D03*
X27495499Y18793460D02*
D03*
X28029510Y18912939D02*
D03*
X28798520Y20177760D02*
D03*
X28470859Y20167599D02*
D03*
X26921460Y18778220D02*
D03*
X26603961Y18122900D02*
D03*
X27432001Y17645380D02*
D03*
X26659839Y17886681D02*
D03*
X26624280Y17015460D02*
D03*
X26644601Y16165154D02*
D03*
X27579321Y16753841D02*
D03*
X27619958Y19250661D02*
D03*
X27848560Y19926300D02*
D03*
X26984961Y20767039D02*
D03*
X27023059Y20642580D02*
D03*
X27005280Y20507961D02*
D03*
X27829922Y20902121D02*
D03*
X14172032Y22851212D02*
D03*
X14170660Y22771100D02*
D03*
X16578580Y21506180D02*
D03*
X13472160Y21948140D02*
D03*
X13487399Y22029420D02*
D03*
X13075920Y21869400D02*
D03*
X15092680Y21249640D02*
D03*
X14988541Y21275040D02*
D03*
X26337259Y17312640D02*
D03*
X26504901Y18267680D02*
D03*
X26903680Y17632680D02*
D03*
X26962100Y17711420D02*
D03*
X27170380Y17165320D02*
D03*
X27185620Y17086580D02*
D03*
X27180539Y16289020D02*
D03*
Y16398241D02*
D03*
X27129739Y17942560D02*
D03*
X26588721Y17774921D02*
D03*
X26591260Y17457420D02*
D03*
X27086560Y16819881D02*
D03*
X26939240Y16802100D02*
D03*
X27927301Y18044160D02*
D03*
X28455621Y17305020D02*
D03*
X27767279Y18983960D02*
D03*
X27625040Y16449040D02*
D03*
X27640280Y18112740D02*
D03*
X28059381Y17528540D02*
D03*
X27515820Y16507460D02*
D03*
X27571701Y19024600D02*
D03*
X27609799Y18887440D02*
D03*
X29090619Y17952721D02*
D03*
X28994101Y18106149D02*
D03*
X28709619Y18216879D02*
D03*
X29672281Y17724120D02*
D03*
X29207458D02*
D03*
X27556461Y17650459D02*
D03*
X27518359Y19090640D02*
D03*
X28719781Y18930620D02*
D03*
X29293820Y19240500D02*
D03*
X28996640Y19105881D02*
D03*
X30307281Y17416780D02*
D03*
X29712921Y17371060D02*
D03*
X29850079Y17746980D02*
D03*
X28064459Y17378680D02*
D03*
X27482800Y17396460D02*
D03*
X28895041Y17744440D02*
D03*
X28544519Y17094200D02*
D03*
X28595319Y16883380D02*
D03*
X28948380Y17371060D02*
D03*
X29428439Y17569180D02*
D03*
X28290521Y20632420D02*
D03*
X27005280Y19763741D02*
D03*
X27800299Y15951199D02*
D03*
X26499820Y17195799D02*
D03*
X26555701Y16352521D02*
D03*
X26974799Y19931380D02*
D03*
X26893521Y17061180D02*
D03*
X26649680Y18948399D02*
D03*
X26601419Y18884900D02*
D03*
X27233881Y20109180D02*
D03*
X29489401Y19486880D02*
D03*
X28981400Y19608800D02*
D03*
X26659839Y20144740D02*
D03*
X27376120Y20238721D02*
D03*
X27525980Y20502879D02*
D03*
X27533600Y20408900D02*
D03*
X28625800Y19006821D02*
D03*
X27142441Y18478500D02*
D03*
X27063699Y17617439D02*
D03*
X28369260Y20403819D02*
D03*
X28059381Y18745200D02*
D03*
X27188159Y18399760D02*
D03*
X27188574Y18272760D02*
D03*
X27023059Y18285460D02*
D03*
X26923999Y18971260D02*
D03*
X27553922Y19316701D02*
D03*
X27020520Y19232880D02*
D03*
X27513281Y19568159D02*
D03*
X28320999Y18544540D02*
D03*
X28303220Y18686780D02*
D03*
X28389581Y19006821D02*
D03*
Y19085561D02*
D03*
X28676599Y17955260D02*
D03*
X26642059Y18475960D02*
D03*
X26878281Y18470880D02*
D03*
X27515820Y18242281D02*
D03*
X28387039Y18394679D02*
D03*
X29486859Y19204939D02*
D03*
X26664920Y19103340D02*
D03*
X26626819Y20634959D02*
D03*
X26553159Y20767039D02*
D03*
X26484579Y19634200D02*
D03*
X26311859Y19903439D02*
D03*
X26662381Y18046700D02*
D03*
X26504901Y18117821D02*
D03*
X27132281Y19504660D02*
D03*
X28559760Y20403819D02*
D03*
X27642819Y20243800D02*
D03*
X27561539Y19441161D02*
D03*
X28696921Y19270979D02*
D03*
X27889200Y19397980D02*
D03*
X28976321Y19400520D02*
D03*
X29474161Y18867120D02*
D03*
X29202380Y18209261D02*
D03*
X16551947Y21391879D02*
D03*
X26240741Y18204179D02*
D03*
X26139139Y20022820D02*
D03*
X26344879Y20040601D02*
D03*
X14705000Y21739861D02*
D03*
X14755013Y21810980D02*
D03*
X14805000Y21887180D02*
D03*
X12712700Y22567900D02*
D03*
X12481560Y22679660D02*
D03*
X12428220Y22611079D02*
D03*
X12151360Y22743159D02*
D03*
X25979120Y18100040D02*
D03*
X26205179Y17848579D02*
D03*
D45*
X19575780Y21460460D02*
D03*
X20068539Y21135339D02*
D03*
X19177620Y20908659D02*
D03*
X30203140Y21696680D02*
D03*
X29715460Y21706841D02*
D03*
X29753561Y21869400D02*
D03*
X30167581Y21859241D02*
D03*
X29855161Y21650960D02*
D03*
X30060901Y21638260D02*
D03*
X30098999Y21752560D02*
D03*
X29827219Y21757640D02*
D03*
X29961841Y21704300D02*
D03*
X30203140Y23639780D02*
D03*
X29961841Y23741380D02*
D03*
X29728159Y23660100D02*
D03*
X30091379Y23665179D02*
D03*
X29850079Y23672800D02*
D03*
X29799280Y23550880D02*
D03*
X30137100D02*
D03*
X29964380Y23632159D02*
D03*
X24782780Y21783040D02*
D03*
X24792940Y22092920D02*
D03*
X15156180Y20914360D02*
D03*
X15283180Y20909280D02*
D03*
X24650700Y23276559D02*
D03*
X24894540Y23550880D02*
D03*
X19234779Y21294720D02*
D03*
X19293840Y21178520D02*
D03*
X12039949Y19708209D02*
D03*
X11653171D02*
D03*
X16200121Y19202400D02*
D03*
X16804640Y19806920D02*
D03*
X17658080Y20505420D02*
D03*
X18603600Y20988660D02*
D03*
X11366500Y17434560D02*
D03*
Y16878300D02*
D03*
X16543021Y18750281D02*
D03*
X16657320Y18587720D02*
D03*
X17045940Y19253200D02*
D03*
X17178020Y19108420D02*
D03*
X18315939Y20380960D02*
D03*
X18409920Y20292059D02*
D03*
X20210780Y20883881D02*
D03*
X20990559Y20888960D02*
D03*
X11120120Y22890480D02*
D03*
X19337019Y20142200D02*
D03*
X19357339Y20812759D02*
D03*
X20053300Y20393660D02*
D03*
D46*
X19006821Y22303740D02*
D03*
X19128740Y22362160D02*
D03*
X18907761Y22387560D02*
D03*
X19497040Y22341840D02*
D03*
X18831560Y22481540D02*
D03*
X19189700Y22466299D02*
D03*
X18729961Y22400259D02*
D03*
X19027139Y22435820D02*
D03*
X18813780Y22291040D02*
D03*
X19265900Y22352000D02*
D03*
D47*
X27355801Y16715739D02*
D03*
X27213559Y17472659D02*
D03*
X27353259Y18394679D02*
D03*
X27221179Y19174460D02*
D03*
X27538681Y17820641D02*
D03*
X27782520Y18336259D02*
D03*
X27401520Y19237959D02*
D03*
X27559000Y20180299D02*
D03*
X27510739Y20017740D02*
D03*
X27208481Y20927060D02*
D03*
D48*
X25059641Y20993100D02*
D03*
X25062180Y20383501D02*
D03*
X24759920Y18143221D02*
D03*
%TF.MD5,ac9dbf8b2cf928836cbcb7729ced9a6b*%
M02*
