G04 Layer_Color=32896*
%FSLAX45Y45*%
%MOMM*%
%TF.FileFunction,Other,Mechanical4*%
%TF.Part,Single*%
G01*
G75*
%TA.AperFunction,NonConductor*%
%ADD52C,0.15240*%
%ADD53C,0.25400*%
D52*
X32120856Y13685840D02*
X32095465Y13711232D01*
Y13762016D01*
X32120856Y13787408D01*
X32146249D01*
X32171640Y13762016D01*
X32197031Y13787408D01*
X32222424D01*
X32247815Y13762016D01*
Y13711232D01*
X32222424Y13685840D01*
X32197031D01*
X32171640Y13711232D01*
X32146249Y13685840D01*
X32120856D01*
X32171640Y13711232D02*
Y13762016D01*
X32095465Y13939758D02*
Y13838191D01*
X32171640D01*
X32146249Y13888976D01*
Y13914366D01*
X32171640Y13939758D01*
X32222424D01*
X32247815Y13914366D01*
Y13863583D01*
X32222424Y13838191D01*
X32247815Y14092110D02*
Y13990543D01*
X32146249Y14092110D01*
X32120856D01*
X32095465Y14066718D01*
Y14015935D01*
X32120856Y13990543D01*
Y14142892D02*
X32095465Y14168285D01*
Y14219067D01*
X32120856Y14244460D01*
X32222424D01*
X32247815Y14219067D01*
Y14168285D01*
X32222424Y14142892D01*
X32120856D01*
X32247815Y14295242D02*
X32222424D01*
Y14320634D01*
X32247815D01*
Y14295242D01*
X32120856Y14422202D02*
X32095465Y14447594D01*
Y14498376D01*
X32120856Y14523769D01*
X32222424D01*
X32247815Y14498376D01*
Y14447594D01*
X32222424Y14422202D01*
X32120856D01*
Y14574553D02*
X32095465Y14599945D01*
Y14650728D01*
X32120856Y14676120D01*
X32222424D01*
X32247815Y14650728D01*
Y14599945D01*
X32222424Y14574553D01*
X32120856D01*
X31843997Y13736624D02*
X31818604Y13762016D01*
Y13812799D01*
X31843997Y13838191D01*
X31869388D01*
X31894781Y13812799D01*
X31920172Y13838191D01*
X31945563D01*
X31970956Y13812799D01*
Y13762016D01*
X31945563Y13736624D01*
X31920172D01*
X31894781Y13762016D01*
X31869388Y13736624D01*
X31843997D01*
X31894781Y13762016D02*
Y13812799D01*
X31970956Y13965150D02*
X31818604D01*
X31894781Y13888976D01*
Y13990543D01*
X31970956Y14041325D02*
Y14092110D01*
Y14066718D01*
X31818604D01*
X31843997Y14041325D01*
X31970956Y14168285D02*
Y14219067D01*
Y14193677D01*
X31818604D01*
X31843997Y14168285D01*
X31970956Y14295242D02*
X31945563D01*
Y14320634D01*
X31970956D01*
Y14295242D01*
X31843997Y14422202D02*
X31818604Y14447594D01*
Y14498376D01*
X31843997Y14523769D01*
X31945563D01*
X31970956Y14498376D01*
Y14447594D01*
X31945563Y14422202D01*
X31843997D01*
Y14574553D02*
X31818604Y14599945D01*
Y14650728D01*
X31843997Y14676120D01*
X31945563D01*
X31970956Y14650728D01*
Y14599945D01*
X31945563Y14574553D01*
X31843997D01*
X10251415Y13863583D02*
Y13914366D01*
Y13888976D01*
X10099065D01*
X10124457Y13863583D01*
X10251415Y14066718D02*
X10099065D01*
X10175240Y13990543D01*
Y14092110D01*
X10124457Y14142892D02*
X10099065Y14168285D01*
Y14219067D01*
X10124457Y14244460D01*
X10226023D01*
X10251415Y14219067D01*
Y14168285D01*
X10226023Y14142892D01*
X10124457D01*
X10251415Y14295242D02*
X10226023D01*
Y14320634D01*
X10251415D01*
Y14295242D01*
X10124457Y14422202D02*
X10099065Y14447594D01*
Y14498376D01*
X10124457Y14523769D01*
X10226023D01*
X10251415Y14498376D01*
Y14447594D01*
X10226023Y14422202D01*
X10124457D01*
Y14574553D02*
X10099065Y14599945D01*
Y14650728D01*
X10124457Y14676120D01*
X10226023D01*
X10251415Y14650728D01*
Y14599945D01*
X10226023Y14574553D01*
X10124457D01*
X10480057Y14142892D02*
X10454665Y14168285D01*
Y14219067D01*
X10480057Y14244460D01*
X10581623D01*
X10607015Y14219067D01*
Y14168285D01*
X10581623Y14142892D01*
X10480057D01*
X10607015Y14295242D02*
X10581623D01*
Y14320634D01*
X10607015D01*
Y14295242D01*
X10480057Y14422202D02*
X10454665Y14447594D01*
Y14498376D01*
X10480057Y14523769D01*
X10581623D01*
X10607015Y14498376D01*
Y14447594D01*
X10581623Y14422202D01*
X10480057D01*
Y14574553D02*
X10454665Y14599945D01*
Y14650728D01*
X10480057Y14676120D01*
X10581623D01*
X10607015Y14650728D01*
Y14599945D01*
X10581623Y14574553D01*
X10480057D01*
X8605840Y25275523D02*
X8631232Y25300916D01*
X8682016D01*
X8707408Y25275523D01*
Y25250133D01*
X8682016Y25224741D01*
X8656624D01*
X8682016D01*
X8707408Y25199348D01*
Y25173956D01*
X8682016Y25148566D01*
X8631232D01*
X8605840Y25173956D01*
X8758191Y25300916D02*
X8859758D01*
Y25275523D01*
X8758191Y25173956D01*
Y25148566D01*
X9012109D02*
X8910542D01*
X9012109Y25250133D01*
Y25275523D01*
X8986717Y25300916D01*
X8935934D01*
X8910542Y25275523D01*
X9062892D02*
X9088284Y25300916D01*
X9139068D01*
X9164460Y25275523D01*
Y25173956D01*
X9139068Y25148566D01*
X9088284D01*
X9062892Y25173956D01*
Y25275523D01*
X9215243Y25148566D02*
Y25173956D01*
X9240635D01*
Y25148566D01*
X9215243D01*
X9342202Y25275523D02*
X9367594Y25300916D01*
X9418377D01*
X9443769Y25275523D01*
Y25173956D01*
X9418377Y25148566D01*
X9367594D01*
X9342202Y25173956D01*
Y25275523D01*
X9494553D02*
X9519945Y25300916D01*
X9570728D01*
X9596120Y25275523D01*
Y25173956D01*
X9570728Y25148566D01*
X9519945D01*
X9494553Y25173956D01*
Y25275523D01*
X8605840Y24734503D02*
X8631232Y24759895D01*
X8682016D01*
X8707408Y24734503D01*
Y24709113D01*
X8682016Y24683720D01*
X8656624D01*
X8682016D01*
X8707408Y24658328D01*
Y24632938D01*
X8682016Y24607545D01*
X8631232D01*
X8605840Y24632938D01*
X8859758Y24759895D02*
X8758191D01*
Y24683720D01*
X8808975Y24709113D01*
X8834366D01*
X8859758Y24683720D01*
Y24632938D01*
X8834366Y24607545D01*
X8783583D01*
X8758191Y24632938D01*
X8910542Y24734503D02*
X8935934Y24759895D01*
X8986717D01*
X9012109Y24734503D01*
Y24632938D01*
X8986717Y24607545D01*
X8935934D01*
X8910542Y24632938D01*
Y24734503D01*
X9062892Y24759895D02*
X9164460D01*
Y24734503D01*
X9062892Y24632938D01*
Y24607545D01*
X9215243D02*
Y24632938D01*
X9240635D01*
Y24607545D01*
X9215243D01*
X9342202Y24734503D02*
X9367594Y24759895D01*
X9418377D01*
X9443769Y24734503D01*
Y24632938D01*
X9418377Y24607545D01*
X9367594D01*
X9342202Y24632938D01*
Y24734503D01*
X9494553D02*
X9519945Y24759895D01*
X9570728D01*
X9596120Y24734503D01*
Y24632938D01*
X9570728Y24607545D01*
X9519945D01*
X9494553Y24632938D01*
Y24734503D01*
X8885150Y15148586D02*
X8783583D01*
X8885150Y15250153D01*
Y15275543D01*
X8859758Y15300935D01*
X8808975D01*
X8783583Y15275543D01*
X8935934Y15148586D02*
X8986717D01*
X8961325D01*
Y15300935D01*
X8935934Y15275543D01*
X9062892Y15300935D02*
X9164460D01*
Y15275543D01*
X9062892Y15173978D01*
Y15148586D01*
X9215243D02*
Y15173978D01*
X9240635D01*
Y15148586D01*
X9215243D01*
X9342202Y15275543D02*
X9367594Y15300935D01*
X9418377D01*
X9443769Y15275543D01*
Y15173978D01*
X9418377Y15148586D01*
X9367594D01*
X9342202Y15173978D01*
Y15275543D01*
X9494553D02*
X9519945Y15300935D01*
X9570728D01*
X9596120Y15275543D01*
Y15173978D01*
X9570728Y15148586D01*
X9519945D01*
X9494553Y15173978D01*
Y15275543D01*
X9062892Y15826723D02*
X9088284Y15852115D01*
X9139068D01*
X9164460Y15826723D01*
Y15725157D01*
X9139068Y15699765D01*
X9088284D01*
X9062892Y15725157D01*
Y15826723D01*
X9215243Y15699765D02*
Y15725157D01*
X9240635D01*
Y15699765D01*
X9215243D01*
X9342202Y15826723D02*
X9367594Y15852115D01*
X9418377D01*
X9443769Y15826723D01*
Y15725157D01*
X9418377Y15699765D01*
X9367594D01*
X9342202Y15725157D01*
Y15826723D01*
X9494553D02*
X9519945Y15852115D01*
X9570728D01*
X9596120Y15826723D01*
Y15725157D01*
X9570728Y15699765D01*
X9519945D01*
X9494553Y15725157D01*
Y15826723D01*
D53*
X32156400Y14732001D02*
Y15189200D01*
X31879541Y14732001D02*
Y15189200D01*
X10160000Y14732001D02*
Y15189200D01*
X10515600Y14732001D02*
Y15189200D01*
X9652000Y25239980D02*
X10109200D01*
X9652000Y24698959D02*
X10109200D01*
X9652000Y15239999D02*
X10109200D01*
X9652000Y15791180D02*
X10109200D01*
%TF.MD5,1a407e6877f441fe7b72a6675d3f19a0*%
M02*
