G04 Layer_Color=8421504*
%FSLAX45Y45*%
%MOMM*%
%TF.FileFunction,Paste,Top*%
%TF.Part,Single*%
G01*
G75*
%TA.AperFunction,SMDPad,CuDef*%
%ADD10R,0.90000X0.80000*%
%ADD11R,1.47320X0.55880*%
%ADD12R,0.90000X0.70000*%
%ADD13R,0.70000X0.90000*%
%ADD14R,0.80000X2.60000*%
%ADD15R,1.32080X0.35560*%
%ADD16O,1.65000X0.55000*%
%ADD17O,0.55000X1.65000*%
%ADD18R,1.47320X0.35560*%
%ADD19R,0.80000X0.90000*%
%ADD20R,0.71120X2.00660*%
%ADD21R,1.40005X2.99999*%
%ADD22R,2.15900X2.74300*%
%ADD23R,2.18000X1.52000*%
%ADD24R,1.55000X3.30000*%
%ADD25R,3.80000X2.00000*%
%ADD26R,1.50000X2.00000*%
%ADD27O,1.80000X0.29130*%
%ADD28O,0.29130X1.80000*%
D10*
X21209000Y20473820D02*
D03*
Y20333820D02*
D03*
X18956020Y20280479D02*
D03*
Y20420480D02*
D03*
X18928081Y23625960D02*
D03*
Y23485960D02*
D03*
X27685999Y19287640D02*
D03*
Y19147639D02*
D03*
X27660599Y18464680D02*
D03*
Y18324680D02*
D03*
X27670761Y16778120D02*
D03*
Y16638120D02*
D03*
X27358340Y17700140D02*
D03*
Y17560139D02*
D03*
X14188440Y23315781D02*
D03*
Y23455780D02*
D03*
X19504660Y20267780D02*
D03*
Y20407780D02*
D03*
D11*
X20454620Y20477480D02*
D03*
Y20350481D02*
D03*
Y20223480D02*
D03*
Y20096480D02*
D03*
X20998180D02*
D03*
Y20223480D02*
D03*
Y20350481D02*
D03*
Y20477480D02*
D03*
D12*
X20159979Y19841141D02*
D03*
Y19991141D02*
D03*
X20162520Y20151019D02*
D03*
Y20301019D02*
D03*
X14132561Y21202580D02*
D03*
Y21352580D02*
D03*
X30469839Y22485420D02*
D03*
Y22335420D02*
D03*
Y22767360D02*
D03*
Y22617360D02*
D03*
X30698441Y23102640D02*
D03*
Y22952640D02*
D03*
X19357339Y20260240D02*
D03*
Y20410240D02*
D03*
X19812000Y20745380D02*
D03*
Y20895380D02*
D03*
D13*
X19206281Y20032980D02*
D03*
X19056281D02*
D03*
X11022260Y16873219D02*
D03*
X11172260D02*
D03*
X10989240Y17480280D02*
D03*
X11139240D02*
D03*
X11032560Y22903180D02*
D03*
X10882560D02*
D03*
X11022400Y22293581D02*
D03*
X10872400D02*
D03*
X11083360Y21869400D02*
D03*
X10933360D02*
D03*
X11065580Y21267419D02*
D03*
X10915580D02*
D03*
X10951140Y23784560D02*
D03*
X11101140D02*
D03*
X30712341Y23205440D02*
D03*
X30862341D02*
D03*
X14311560Y20921980D02*
D03*
X14461560D02*
D03*
X19955580Y21008340D02*
D03*
X19805580D02*
D03*
X19922420Y20883881D02*
D03*
X20072420D02*
D03*
X20262920Y21254720D02*
D03*
X20112920D02*
D03*
X19955580Y21404581D02*
D03*
X19805580D02*
D03*
D14*
X19281281Y19789140D02*
D03*
X18981281D02*
D03*
X19131281D02*
D03*
D15*
X11828780Y22872701D02*
D03*
Y22809200D02*
D03*
Y22743159D02*
D03*
Y22679660D02*
D03*
X11463020D02*
D03*
Y22743159D02*
D03*
Y22809200D02*
D03*
Y22872701D02*
D03*
D16*
X19614780Y20748660D02*
D03*
Y20828661D02*
D03*
Y20908659D02*
D03*
Y20988660D02*
D03*
Y21068660D02*
D03*
Y21148660D02*
D03*
Y21228661D02*
D03*
Y21308659D02*
D03*
X18774780D02*
D03*
Y21228661D02*
D03*
Y21148660D02*
D03*
Y21068660D02*
D03*
Y20988660D02*
D03*
Y20908659D02*
D03*
Y20828661D02*
D03*
Y20748660D02*
D03*
D17*
X19474780Y21448660D02*
D03*
X19394780D02*
D03*
X19314780D02*
D03*
X19234779D02*
D03*
X19154781D02*
D03*
X19074780D02*
D03*
X18994780D02*
D03*
X18914780D02*
D03*
Y20608659D02*
D03*
X18994780D02*
D03*
X19074780D02*
D03*
X19154781D02*
D03*
X19234779D02*
D03*
X19314780D02*
D03*
X19394780D02*
D03*
X19474780D02*
D03*
D18*
X26786841Y20025360D02*
D03*
Y19961861D02*
D03*
Y19895821D02*
D03*
Y19829781D02*
D03*
Y19766280D02*
D03*
Y19700240D02*
D03*
Y19636740D02*
D03*
Y19570700D02*
D03*
Y19504660D02*
D03*
Y19441161D02*
D03*
X27371039D02*
D03*
Y19504660D02*
D03*
Y19570700D02*
D03*
Y19636740D02*
D03*
Y19700240D02*
D03*
Y19766280D02*
D03*
Y19829781D02*
D03*
Y19895821D02*
D03*
Y19961861D02*
D03*
Y20025360D02*
D03*
X26804620Y20901660D02*
D03*
Y20838161D02*
D03*
Y20772121D02*
D03*
Y20706081D02*
D03*
Y20642580D02*
D03*
Y20576540D02*
D03*
Y20513040D02*
D03*
Y20447000D02*
D03*
Y20380960D02*
D03*
Y20317461D02*
D03*
X27388821D02*
D03*
Y20380960D02*
D03*
Y20447000D02*
D03*
Y20513040D02*
D03*
Y20576540D02*
D03*
Y20642580D02*
D03*
Y20706081D02*
D03*
Y20772121D02*
D03*
Y20838161D02*
D03*
Y20901660D02*
D03*
X26784299Y19151601D02*
D03*
Y19085561D02*
D03*
Y19019521D02*
D03*
Y18956020D02*
D03*
Y18889980D02*
D03*
Y18826480D02*
D03*
Y18760440D02*
D03*
Y18694400D02*
D03*
X27368500D02*
D03*
Y18760440D02*
D03*
Y18826480D02*
D03*
Y18889980D02*
D03*
Y18956020D02*
D03*
Y19019521D02*
D03*
Y19085561D02*
D03*
Y19151601D02*
D03*
X26776682Y18310860D02*
D03*
Y18244820D02*
D03*
Y18178780D02*
D03*
Y18115280D02*
D03*
Y18049240D02*
D03*
Y17985741D02*
D03*
Y17919701D02*
D03*
Y17853661D02*
D03*
X27360880D02*
D03*
Y17919701D02*
D03*
Y17985741D02*
D03*
Y18049240D02*
D03*
Y18115280D02*
D03*
Y18178780D02*
D03*
Y18244820D02*
D03*
Y18310860D02*
D03*
X26771600Y16637000D02*
D03*
Y16570959D02*
D03*
Y16504919D02*
D03*
Y16441420D02*
D03*
Y16375380D02*
D03*
Y16311880D02*
D03*
Y16245840D02*
D03*
Y16179800D02*
D03*
X27355801D02*
D03*
Y16245840D02*
D03*
Y16311880D02*
D03*
Y16375380D02*
D03*
Y16441420D02*
D03*
Y16504919D02*
D03*
Y16570959D02*
D03*
Y16637000D02*
D03*
X26771600Y17465041D02*
D03*
Y17399001D02*
D03*
Y17332961D02*
D03*
Y17269460D02*
D03*
Y17203419D02*
D03*
Y17139920D02*
D03*
Y17073880D02*
D03*
Y17007840D02*
D03*
X27355801D02*
D03*
Y17073880D02*
D03*
Y17139920D02*
D03*
Y17203419D02*
D03*
Y17269460D02*
D03*
Y17332961D02*
D03*
Y17399001D02*
D03*
Y17465041D02*
D03*
D19*
X11344760Y17907001D02*
D03*
X11484760D02*
D03*
X11484760Y18049242D02*
D03*
X11344760D02*
D03*
X13912700Y23296880D02*
D03*
X14052699D02*
D03*
X19950580Y21142960D02*
D03*
X19810580D02*
D03*
X15040759Y23301961D02*
D03*
X14900760D02*
D03*
X27707739Y20901660D02*
D03*
X27567740D02*
D03*
X27748380Y19941541D02*
D03*
X27608380D02*
D03*
D20*
X14282063Y20709789D02*
D03*
X14382063D02*
D03*
X14483664Y20709789D02*
D03*
D21*
X17214952Y23895609D02*
D03*
Y23415601D02*
D03*
X17926152Y23895609D02*
D03*
Y23415601D02*
D03*
D22*
X11846580Y18983960D02*
D03*
X11404580D02*
D03*
D23*
X19817081Y24661980D02*
D03*
Y24293980D02*
D03*
D24*
X20391940Y24239220D02*
D03*
X20811940D02*
D03*
D25*
X19159219Y22677080D02*
D03*
D26*
X18929221Y23307080D02*
D03*
X19159219D02*
D03*
X19389220D02*
D03*
D27*
X13850000Y22901199D02*
D03*
Y22851199D02*
D03*
Y22801199D02*
D03*
Y22751199D02*
D03*
Y22701199D02*
D03*
Y22651199D02*
D03*
Y22601199D02*
D03*
Y22551199D02*
D03*
Y22501199D02*
D03*
Y22451199D02*
D03*
Y22401199D02*
D03*
Y22351199D02*
D03*
Y22301199D02*
D03*
Y22251199D02*
D03*
Y22201199D02*
D03*
Y22151199D02*
D03*
Y22101199D02*
D03*
Y22051199D02*
D03*
Y22001199D02*
D03*
Y21951199D02*
D03*
Y21901199D02*
D03*
Y21851199D02*
D03*
Y21801199D02*
D03*
Y21751199D02*
D03*
Y21701199D02*
D03*
X15360001D02*
D03*
Y21751199D02*
D03*
Y21801199D02*
D03*
Y21851199D02*
D03*
Y21901199D02*
D03*
Y21951199D02*
D03*
Y22001199D02*
D03*
Y22051199D02*
D03*
Y22101199D02*
D03*
Y22151199D02*
D03*
Y22201199D02*
D03*
Y22251199D02*
D03*
Y22301199D02*
D03*
Y22351199D02*
D03*
Y22401199D02*
D03*
Y22451199D02*
D03*
Y22501199D02*
D03*
Y22551199D02*
D03*
Y22601199D02*
D03*
Y22651199D02*
D03*
Y22701199D02*
D03*
Y22751199D02*
D03*
Y22801199D02*
D03*
Y22851199D02*
D03*
Y22901199D02*
D03*
D28*
X14005000Y21546201D02*
D03*
X14055000D02*
D03*
X14105000D02*
D03*
X14155000D02*
D03*
X14205000D02*
D03*
X14255000D02*
D03*
X14305000D02*
D03*
X14355000D02*
D03*
X14405000D02*
D03*
X14455000D02*
D03*
X14505000D02*
D03*
X14555000D02*
D03*
X14605000D02*
D03*
X14655000D02*
D03*
X14705000D02*
D03*
X14755000D02*
D03*
X14805000D02*
D03*
X14855000D02*
D03*
X14905000D02*
D03*
X14955000D02*
D03*
X15005000D02*
D03*
X15055000D02*
D03*
X15105000D02*
D03*
X15155000D02*
D03*
X15205000D02*
D03*
Y23056200D02*
D03*
X15155000D02*
D03*
X15105000D02*
D03*
X15055000D02*
D03*
X15005000D02*
D03*
X14955000D02*
D03*
X14905000D02*
D03*
X14855000D02*
D03*
X14805000D02*
D03*
X14755000D02*
D03*
X14705000D02*
D03*
X14655000D02*
D03*
X14605000D02*
D03*
X14555000D02*
D03*
X14505000D02*
D03*
X14455000D02*
D03*
X14405000D02*
D03*
X14355000D02*
D03*
X14305000D02*
D03*
X14255000D02*
D03*
X14205000D02*
D03*
X14155000D02*
D03*
X14105000D02*
D03*
X14055000D02*
D03*
X14005000D02*
D03*
%TF.MD5,7a6ae11c3864e554e62195be3be43e46*%
M02*
