%FSTAX23Y23*%
%MOMM*%
%SFA1B1*%

%IPPOS*%
%AMD48*
4,1,8,-0.784860,0.393700,-0.784860,-0.393700,-0.393700,-0.784860,0.393700,-0.784860,0.784860,-0.393700,0.784860,0.393700,0.393700,0.784860,-0.393700,0.784860,-0.784860,0.393700,0.0*
%
%ADD12R,0.899998X0.699999*%
%ADD13R,0.799998X0.899998*%
%ADD14R,0.699999X0.899998*%
%ADD15R,1.419997X3.019994*%
%ADD23R,1.519997X2.179996*%
%ADD32R,0.899998X0.799998*%
%ADD33R,3.299993X1.399997*%
%ADD34R,2.599995X1.099998*%
%ADD35R,1.999996X3.499993*%
%ADD36C,0.299999*%
%ADD37C,1.999996*%
%ADD38C,0.299999*%
%ADD39C,0.639999*%
%ADD40C,0.250000*%
%ADD41C,0.499999*%
%ADD42C,0.749999*%
%ADD43C,0.509999*%
%ADD45C,1.599997*%
%ADD46C,1.519997*%
%ADD47C,1.699997*%
G04~CAMADD=48~4~0.0~0.0~618.1~618.1~0.0~154.5~0~0.0~0.0~0.0~0.0~0~0.0~0.0~0.0~0.0~0~0.0~0.0~0.0~90.0~618.0~618.0*
%ADD48D48*%
%ADD49C,2.799994*%
%ADD50C,0.639999*%
%ADD51C,1.269997*%
%ADD52C,0.759998*%
%ADD53C,1.019998*%
%ADD54C,0.799998*%
%ADD55R,1.549997X3.299993*%
%ADD56R,0.709999X2.009996*%
%ADD57R,1.219998X1.219998*%
%ADD58O,0.299999X1.799996*%
%ADD59O,1.799996X0.299999*%
%ADD60C,1.269997*%
%LNlv1-1*%
%LPD*%
G36*
X102249Y57979D02*
Y41969D01*
X75579*
Y57979*
X102249*
G37*
G36*
X133489D02*
Y41969D01*
X106819*
Y57979*
X133489*
G37*
G36*
X238129Y78179D02*
Y77379D01*
X238009Y77319*
X237979Y77349*
X237739Y77449*
X237489Y77479*
X237239Y77449*
X236999Y77349*
X236799Y77199*
X236649Y76999*
X236549Y76759*
X236519Y76509*
X236549Y76259*
X236609Y76129*
X235709Y75239*
X235689Y75199*
X235559Y75239*
Y76619*
X237109Y78169*
X237239Y78109*
X237489Y78079*
X237739Y78109*
X237979Y78209*
X238009Y78239*
X238129Y78179*
G37*
G36*
X30059Y80979D02*
X30159Y80909D01*
X30289Y80879*
X30929*
X30979Y80759*
X28159Y77939*
X28079Y77819*
X28049Y77689*
Y67209*
X27929Y67159*
X27719Y67009*
X27569Y66809*
X27469Y66569*
X27439Y66319*
X27469Y66069*
X27569Y65829*
X27719Y65629*
X27929Y65479*
X28049Y65429*
Y62709*
X27929Y62659*
X27719Y62509*
X27569Y62309*
X27469Y62069*
X27439Y61819*
X27469Y61569*
X27569Y61329*
X27719Y61129*
X27789Y61089*
X27739Y60959*
X23049*
Y76039*
X23859*
X24359Y76529*
Y77519*
X23859Y78009*
X23049*
Y78579*
X23859*
X24359Y79069*
Y80059*
X23859Y80549*
X23049*
Y81119*
X23859*
X23869Y81129*
X24249Y80749*
X24349Y80679*
X24479Y80659*
X25359*
X25389Y80529*
X24919Y80059*
Y79069*
X25409Y78579*
X26399*
X26899Y79069*
Y80059*
X26419Y80529*
X26429Y80599*
X26449Y80659*
X26559Y80679*
X26669Y80749*
X27569Y81649*
X27739*
Y81379*
X29039*
Y81649*
X29389*
X30059Y80979*
G37*
G36*
X58039Y81749D02*
Y81339D01*
X57909Y81239*
X57869Y81249*
X57739Y81219*
X57619Y81139*
X57539Y81029*
X57519Y80889*
Y79389*
X57539Y79269*
Y79009*
X57439Y78879*
X57249*
X57229Y78899*
Y80139*
Y80889*
X57199Y81029*
X57119Y81139*
X57009Y81219*
X56869Y81249*
X56739Y81219*
X56619Y81149*
X56509Y81219*
X56369Y81249*
X56239Y81219*
X56119Y81149*
X56009Y81219*
X55869Y81249*
X55739Y81219*
X55619Y81149*
X55509Y81219*
X55369Y81249*
X55239Y81219*
X55119Y81149*
X55009Y81219*
X54869Y81249*
X54739Y81219*
X54619Y81149*
X54509Y81219*
X54369Y81249*
X54239Y81219*
X54119Y81149*
X54009Y81219*
X53869Y81249*
X53739Y81219*
X53619Y81149*
X53509Y81219*
X53369Y81249*
X53239Y81219*
X53119Y81149*
X53009Y81219*
X52869Y81249*
X52739Y81219*
X52619Y81149*
X52509Y81219*
X52369Y81249*
X52239Y81219*
X52119Y81149*
X52009Y81219*
X51869Y81249*
X51739Y81219*
X51619Y81149*
X51509Y81219*
X51369Y81249*
X51239Y81219*
X51119Y81149*
X51009Y81219*
X50869Y81249*
X50739Y81219*
X50619Y81149*
X50509Y81219*
X50369Y81249*
X50239Y81219*
X50119Y81149*
X50009Y81219*
X49869Y81249*
X49739Y81219*
X49619Y81149*
X49509Y81219*
X49369Y81249*
X49239Y81219*
X49119Y81149*
X49009Y81219*
X48869Y81249*
X48739Y81219*
X48729*
X48689Y81239*
X48669Y81389*
X49209Y81929*
X56969*
X57099Y81959*
X57209Y82029*
X57279Y82099*
X57679*
X58039Y81749*
G37*
G36*
X235609Y74419D02*
Y72789D01*
X233179Y70359*
X232619*
X232609Y70489*
X232659*
X232899Y70589*
X233099Y70739*
X233249Y70939*
X233349Y71179*
X233379Y71429*
X233349Y71679*
X233249Y71919*
X233129Y72069*
X233169Y72199*
X233179Y72209*
X233209*
X233319Y72289*
X235459Y74419*
X235479Y74459*
X235609Y74419*
G37*
G36*
X236079Y72069D02*
X236049Y72029D01*
X236019Y71889*
Y71429*
X233509Y68909*
X233369Y68959*
X233349Y69139*
X233249Y69379*
X233139Y69519*
X233199Y69649*
X233319*
X233459Y69669*
X233579Y69749*
X235979Y72149*
X236079Y72069*
G37*
G36*
X231679Y72059D02*
X231569Y71919D01*
X231469Y71679*
X231439Y71429*
X231469Y71179*
X231569Y70939*
X231719Y70739*
X231919Y70589*
X232159Y70489*
X232209*
X232199Y70359*
X231299*
X231159Y70329*
X231049Y70249*
X228799Y68009*
X227439*
X227389Y68129*
X231449Y72189*
X231619*
X231679Y72059*
G37*
G36*
X238129Y75639D02*
Y74839D01*
X238009Y74779*
X237979Y74809*
X237739Y74909*
X237489Y74939*
X237239Y74909*
X236999Y74809*
X236799Y74659*
X236649Y74459*
X236549Y74219*
X236519Y73969*
X236549Y73719*
X236649Y73479*
X236799Y73279*
X236959Y73159*
X236989Y73009*
X236359Y72379*
X236269Y72459*
X236299Y72509*
X236319Y72639*
Y74839*
X237109Y75629*
X237239Y75569*
X237489Y75539*
X237739Y75569*
X237979Y75669*
X238009Y75699*
X238129Y75639*
G37*
G36*
X231679Y69519D02*
X231569Y69379D01*
X231469Y69139*
X231439Y68889*
X231469Y68639*
X231569Y68399*
X231719Y68199*
X231919Y68049*
X232159Y67949*
X232209*
X232199Y67819*
X231949*
X231809Y67789*
X231699Y67709*
X231489Y67509*
X229479*
X229429Y67629*
X231449Y69649*
X231619*
X231679Y69519*
G37*
G36*
X194819Y57979D02*
Y33269D01*
Y38229*
X210689*
X210819Y38099*
X210699Y37979*
Y33269*
X194819*
X179459*
Y57979*
X194819*
G37*
G36*
X164479Y24379D02*
X194819D01*
Y18819*
X194729Y18729*
X148219Y18799*
Y24269*
Y57979*
X164479*
Y24379*
G37*
G36*
X236649Y91259D02*
X236799Y91059D01*
X236999Y90909*
X237239Y90809*
X237489Y90779*
X237739Y90809*
X237979Y90909*
X238009Y90939*
X238119Y90879*
Y90079*
X238009Y90019*
X237979Y90049*
X237739Y90149*
X237489Y90179*
X237239Y90149*
X236999Y90049*
X236799Y89899*
X236649Y89699*
X236589Y89539*
X233309*
X233249Y89699*
X233099Y89899*
X232899Y90049*
X232659Y90149*
X232409Y90179*
X232159Y90149*
X231919Y90049*
X231719Y89899*
X231569Y89699*
X231509Y89539*
X224669*
X224619Y89659*
X226369Y91419*
X231509*
X231569Y91259*
X231719Y91059*
X231919Y90909*
X232159Y90809*
X232409Y90779*
X232659Y90809*
X232899Y90909*
X233099Y91059*
X233249Y91259*
X233309Y91419*
X236589*
X236649Y91259*
G37*
G36*
X238509Y28699D02*
Y28189D01*
Y24639*
X231389*
X218439Y11679*
X211139*
X211069Y11749*
Y16619*
X216009*
X216149Y16759*
X228599Y29209*
X237999*
X238509Y28699*
G37*
G36*
X146949Y57979D02*
Y16759D01*
X195299*
Y16619*
X196399*
Y16759*
X196799*
Y16619*
X197899*
Y16759*
X210979*
X211069Y16669*
Y11749*
X210979Y11659*
X138039Y11709*
X137409Y12329*
Y16759*
X137549*
Y57979*
X146949*
G37*
G36*
X238119Y100239D02*
X238009Y100179D01*
X237979Y100209*
X237739Y100309*
X237489Y100339*
X237239Y100309*
X236999Y100209*
X236799Y100059*
X236649Y99859*
X236549Y99619*
X236519Y99369*
X236549Y99119*
X236649Y98879*
X236799Y98679*
X236999Y98529*
X237239Y98429*
X237489Y98399*
X237739Y98429*
X237979Y98529*
X238009Y98559*
X238119Y98499*
Y97699*
X238009Y97639*
X237979Y97669*
X237739Y97769*
X237489Y97799*
X237239Y97769*
X237009Y97669*
X232889*
X232669Y97769*
X232119Y98319*
X232139Y98379*
X232179Y98429*
X232409Y98399*
X232659Y98429*
X232899Y98529*
X233099Y98679*
X233249Y98879*
X233349Y99119*
X233379Y99369*
X233349Y99619*
X233249Y99859*
X233099Y100059*
X232899Y100209*
X232659Y100309*
X232409Y100339*
X232159Y100309*
X231919Y100209*
X231719Y100059*
X231569Y99859*
X231469Y99619*
X231439Y99369*
X231469Y99139*
X231419Y99099*
X231359Y99079*
X226459Y103969*
X226279Y104109*
X226079Y104189*
X225859Y104219*
X74389*
X72069Y106539*
X72079Y106549*
X72039Y106869*
X71909Y107159*
X71779Y107339*
Y108259*
X69949*
Y107759*
X67689*
X67379Y107719*
X67089Y107599*
X66839Y107409*
X66299Y106869*
X64289*
Y107509*
X62339*
Y106359*
X62269Y106269*
X62139Y105979*
X62099Y105659*
X62139Y105349*
X62269Y105059*
X62339Y104959*
Y103809*
X64289*
Y104449*
X66799*
X67119Y104489*
X67409Y104619*
X67659Y104809*
X68189Y105339*
X69949*
Y104839*
X71389*
X73449Y102779*
X73619Y102649*
X73819Y102559*
X74039Y102539*
X225509*
X231469Y96569*
X231569Y96339*
X231719Y96139*
X231919Y95989*
X232159Y95889*
X232409Y95859*
X232659Y95889*
X232889Y95989*
X237009*
X237239Y95889*
X237489Y95859*
X237739Y95889*
X237979Y95989*
X238009Y96019*
X238119Y95959*
Y92619*
X238009Y92559*
X237979Y92589*
X237739Y92689*
X237489Y92719*
X237239Y92689*
X236999Y92589*
X236799Y92439*
X236649Y92239*
X236589Y92079*
X233309*
X233249Y92239*
X233099Y92439*
X232899Y92589*
X232659Y92689*
X232409Y92719*
X232159Y92689*
X231919Y92589*
X231719Y92439*
X231569Y92239*
X231509Y92079*
X226239*
X226109Y92059*
X225999Y91989*
X207249Y73229*
X54689*
X52859Y75069*
Y76379*
X52829Y76499*
X52759Y76609*
X52419Y76959*
Y77579*
X52629*
Y78879*
X52329*
X52319Y78919*
X52339Y78949*
X52409Y79039*
X52509Y79059*
X52619Y79139*
X52739Y79059*
X52869Y79039*
X53009Y79059*
X53119Y79139*
X53239Y79059*
X53369Y79039*
X53509Y79059*
X53619Y79139*
X53739Y79059*
X53869Y79039*
X54009Y79059*
X54119Y79139*
X54239Y79059*
X54369Y79039*
X54509Y79059*
X54619Y79139*
X54739Y79059*
X54869Y79039*
X55009Y79059*
X55119Y79139*
X55239Y79059*
X55369Y79039*
X55509Y79059*
X55619Y79139*
X55739Y79059*
X55799Y79049*
X55889Y78929*
Y78909*
X55879Y78879*
X55339*
Y78169*
X55299Y78099*
X55269Y77969*
Y77399*
X55069*
Y74999*
X56179*
Y77399*
X55979*
Y77579*
X56439*
Y78279*
X56619Y78459*
X56659*
X56839Y78279*
Y77579*
X57249*
X57289Y77549*
Y77399*
X57089*
Y74999*
X58199*
Y77399*
X57999*
Y77699*
X57969Y77829*
X57939Y77879*
Y78309*
X58059Y78359*
X58389Y78019*
Y77069*
X58609*
Y76469*
X58629Y76339*
X58699Y76229*
X59509Y75429*
X59449Y75299*
X58939*
X58799Y75269*
X58689Y75199*
X58019Y74529*
X55269*
X53949Y75839*
Y77579*
X54129*
Y78879*
X53029*
Y77579*
X53229*
Y75689*
X53259Y75549*
X53339Y75439*
X54859Y73909*
X54979Y73839*
X55119Y73809*
X58169*
X58299Y73839*
X58419Y73909*
X59089Y74579*
X59579*
X59609Y74509*
X59739Y74339*
X59919Y74199*
X60119Y74119*
X60339Y74089*
X60559Y74119*
X60759Y74199*
X60929Y74339*
X61069Y74509*
X61149Y74709*
X61179Y74929*
X61149Y75119*
X67059Y81029*
X67129Y81139*
X67159Y81279*
Y91689*
X67129Y91829*
X67059Y91949*
X66619Y92379*
X66669Y92499*
X95249*
X95429Y92539*
X95579Y92639*
X96339Y93399*
X96489Y93429*
X96629Y93519*
X127169*
X127249Y93469*
X127469Y93419*
X127699Y93469*
X127779Y93519*
X157899*
X157979Y93469*
X158209Y93419*
X158429Y93469*
X158519Y93519*
X189119*
X189259Y93429*
X189479Y93389*
X189709Y93429*
X189899Y93559*
X190029Y93749*
X190079Y93979*
X190029Y94209*
X189899Y94399*
X189709Y94529*
X189479Y94569*
X189259Y94529*
X189119Y94439*
X158619*
X158429Y94559*
X158209Y94609*
X157979Y94559*
X157799Y94439*
X127879*
X127699Y94559*
X127469Y94609*
X127249Y94559*
X127059Y94439*
X96629*
X96489Y94529*
X96269Y94569*
X96039Y94529*
X95849Y94399*
X95719Y94209*
X95689Y94059*
X95059Y93429*
X66229*
X66129Y93559*
X66059Y93609*
Y93839*
X66189*
Y95139*
X64989*
Y94949*
X61419*
X60799Y95569*
X60729Y95619*
Y95989*
X60719Y96039*
X60819Y96159*
X64989*
Y95869*
X66189*
Y97169*
X64989*
Y96879*
X59689*
X59559Y96849*
X59439Y96769*
X59119Y96449*
X59099Y96419*
X59009Y96319*
X58869Y96349*
X58769Y96429*
Y96559*
X59889Y97689*
X92049*
X92689Y97059*
X92659Y96989*
X92629Y96769*
X92659Y96559*
X92739Y96349*
X92879Y96179*
X93049Y96039*
X93249Y95959*
X93469Y95929*
X93689Y95959*
X93889Y96039*
X94069Y96179*
X94199Y96349*
X94289Y96559*
X94309Y96769*
X94289Y96989*
X94199Y97199*
X94069Y97369*
X93889Y97499*
X93689Y97589*
X93469Y97619*
X93249Y97589*
X93189Y97559*
X92669Y98079*
X92719Y98199*
X122279*
X123929Y96549*
X123899Y96479*
X123869Y96269*
X123899Y96049*
X123979Y95839*
X124119Y95669*
X124289Y95539*
X124499Y95449*
X124709Y95419*
X124929Y95449*
X125139Y95539*
X125309Y95669*
X125439Y95839*
X125529Y96049*
X125559Y96269*
X125529Y96479*
X125439Y96689*
X125309Y96859*
X125139Y96999*
X124929Y97079*
X124709Y97109*
X124499Y97079*
X124429Y97049*
X122899Y98589*
X122949Y98699*
X152759*
X154659Y96799*
X154629Y96739*
X154609Y96519*
X154629Y96299*
X154719Y96099*
X154849Y95919*
X155029Y95789*
X155229Y95709*
X155449Y95679*
X155669Y95709*
X155869Y95789*
X156039Y95919*
X156179Y96099*
X156259Y96299*
X156289Y96519*
X156259Y96739*
X156179Y96939*
X156039Y97119*
X155869Y97249*
X155669Y97329*
X155449Y97359*
X155229Y97329*
X155169Y97309*
X153379Y99089*
X153429Y99209*
X183749*
X185649Y97309*
X185619Y97249*
X185589Y97029*
X185619Y96809*
X185709Y96609*
X185839Y96429*
X186009Y96299*
X186219Y96209*
X186439Y96189*
X186649Y96209*
X186859Y96299*
X187029Y96429*
X187169Y96609*
X187249Y96809*
X187279Y97029*
X187249Y97249*
X187169Y97449*
X187029Y97619*
X186859Y97759*
X186649Y97839*
X186439Y97869*
X186219Y97839*
X186149Y97809*
X184149Y99819*
X184029Y99899*
X183899Y99919*
X58929*
X58789Y99899*
X58679Y99819*
X56619Y97759*
X56539Y97649*
X56519Y97509*
Y96449*
X56389Y96349*
X56369*
X56239Y96319*
X56119Y96249*
X56009Y96319*
X55869Y96349*
X55739Y96319*
X55619Y96249*
X55509Y96319*
X55369Y96349*
X55239Y96319*
X55119Y96249*
X55009Y96319*
X54869Y96349*
X54739Y96319*
X54619Y96249*
X54509Y96319*
X54369Y96349*
X54239Y96319*
X54119Y96249*
X54009Y96319*
X53869Y96349*
X53739Y96319*
X53619Y96249*
X53509Y96319*
X53369Y96349*
X53239Y96319*
X53119Y96249*
X53009Y96319*
X52869Y96349*
X52739Y96319*
X52619Y96249*
X52509Y96319*
X52369Y96349*
X52239Y96319*
X52119Y96249*
X52009Y96319*
X51869Y96349*
X51739Y96319*
X51619Y96249*
X51509Y96319*
X51369Y96349*
X51239Y96319*
X51119Y96239*
X51039Y96129*
X51019Y95989*
Y94489*
X51039Y94359*
X51119Y94239*
X51239Y94159*
X51369Y94139*
X51509Y94159*
X51619Y94239*
X51739Y94159*
X51869Y94139*
X52009Y94159*
X52119Y94239*
X52239Y94159*
X52369Y94139*
X52509Y94159*
X52619Y94239*
X52739Y94159*
X52869Y94139*
X53009Y94159*
X53119Y94239*
X53239Y94159*
X53369Y94139*
X53509Y94159*
X53619Y94239*
X53739Y94159*
X53869Y94139*
X54009Y94159*
X54119Y94239*
X54239Y94159*
X54369Y94139*
X54509Y94159*
X54619Y94239*
X54739Y94159*
X54869Y94139*
X55009Y94159*
X55119Y94239*
X55239Y94159*
X55369Y94139*
X55509Y94159*
X55619Y94239*
X55739Y94159*
X55869Y94139*
X56009Y94159*
X56119Y94239*
X56239Y94159*
X56369Y94139*
X56509Y94159*
X56619Y94239*
X56739Y94159*
X56869Y94139*
X57009Y94159*
X57119Y94239*
X57239Y94159*
X57369Y94139*
X57509Y94159*
X57619Y94239*
X57739Y94159*
X57869Y94139*
X58009Y94159*
X58119Y94239*
X58239Y94159*
X58369Y94139*
X58389*
X58519Y94029*
Y91749*
X58539Y91609*
X58619Y91499*
X59419Y90699*
Y90679*
X59459Y90479*
X59569Y90299*
X59739Y90189*
X59939Y90149*
X60149Y90189*
X60319Y90299*
X60429Y90479*
X60469Y90679*
X60429Y90879*
X60319Y91049*
X60149Y91169*
X59939Y91209*
X59919Y91199*
X59229Y91899*
Y94029*
X59359Y94139*
X59369*
X59509Y94159*
X59619Y94239*
X59699Y94359*
X59729Y94489*
Y95239*
Y96039*
X59819Y96129*
X59939*
X60019Y96029*
Y95989*
Y95249*
X60009Y95239*
X60019Y95229*
Y94489*
X60039Y94359*
X60119Y94239*
X60239Y94159*
X60369Y94139*
X60509Y94159*
X60619Y94239*
X60629Y94249*
X60799Y94269*
X60899Y94159*
X60959Y94119*
Y93969*
X60919Y93939*
X60839Y93829*
X60819Y93689*
Y93679*
X60719Y93549*
X60589Y93559*
X60569Y93589*
X60399Y93709*
X60199Y93749*
X59999Y93709*
X59819Y93589*
X59709Y93419*
X59669Y93219*
X59709Y93019*
X59819Y92839*
X59999Y92729*
X60199Y92689*
X60269Y92699*
X60329Y92589*
X60219Y92469*
X60199Y92479*
X59999Y92439*
X59819Y92319*
X59709Y92149*
X59669Y91949*
X59709Y91749*
X59819Y91569*
X59999Y91459*
X60199Y91419*
X60399Y91459*
X60569Y91569*
X60689Y91749*
X60709Y91859*
X60839Y91869*
X60849Y91839*
X60839Y91829*
X60819Y91689*
X60839Y91559*
X60919Y91439*
X60839Y91329*
X60819Y91189*
X60839Y91059*
X60919Y90939*
X60839Y90829*
X60819Y90689*
X60839Y90559*
X60919Y90439*
X60839Y90329*
X60819Y90189*
X60839Y90059*
X60919Y89939*
X60839Y89829*
X60819Y89689*
X60839Y89559*
X60919Y89439*
X60839Y89329*
X60819Y89189*
X60839Y89059*
X60919Y88939*
X61039Y88859*
X61169Y88839*
X62669*
X62789Y88859*
X63359*
X63489Y88879*
X63599Y88959*
X63639Y88999*
X64419*
Y90199*
X64229*
Y91009*
X65369Y92139*
X65529Y92119*
X65749Y92149*
X65809Y92179*
X66439Y91549*
Y81429*
X60699Y75689*
X60559Y75749*
X60339Y75769*
X60129Y75749*
X59269Y76599*
Y77069*
X59489*
Y78039*
X59609Y78089*
X59889Y77799*
Y77069*
X60989*
Y78369*
X60259*
X59679Y78949*
X59709Y78999*
X59759Y79059*
X59869Y79039*
X60009Y79059*
X60119Y79139*
X60239Y79059*
X60369Y79039*
X60509Y79059*
X60619Y79139*
X60699Y79259*
X60729Y79389*
Y80889*
X60699Y81029*
X60619Y81139*
X60509Y81219*
X60369Y81249*
X60239Y81219*
X60119Y81149*
X60009Y81219*
X59869Y81249*
X59739Y81219*
X59619Y81149*
X59509Y81219*
X59369Y81249*
X59239Y81219*
X59119Y81149*
X59009Y81219*
X58869Y81249*
X58829Y81239*
X58709Y81339*
Y81879*
X58679Y82009*
X58609Y82119*
X58289Y82439*
X58339Y82549*
X60679*
X60819Y82579*
X60889Y82479*
X60919Y82439*
X60839Y82329*
X60819Y82189*
X60839Y82059*
X60919Y81939*
X60839Y81829*
X60819Y81689*
X60839Y81559*
X60919Y81439*
X61039Y81359*
X61169Y81339*
X62669*
X62809Y81359*
X62919Y81439*
X62999Y81559*
X63029Y81689*
X62999Y81829*
X62929Y81939*
X62999Y82059*
X63029Y82189*
X62999Y82329*
X62929Y82439*
X62999Y82559*
X63029Y82689*
X62999Y82829*
X62929Y82939*
X62999Y83059*
X63029Y83189*
X62999Y83329*
X62929Y83439*
X62999Y83559*
X63029Y83689*
Y83709*
X63129Y83839*
X64369*
X64499Y83859*
X64619Y83939*
X65229Y84549*
X65929*
Y85649*
X64629*
Y84959*
X64219Y84549*
X63129*
X63029Y84679*
Y84689*
X62999Y84829*
X62929Y84939*
X62999Y85059*
X63029Y85189*
X62999Y85329*
X62929Y85439*
X62999Y85559*
X63029Y85689*
X62999Y85829*
X62929Y85939*
X62999Y86059*
X63029Y86189*
X62999Y86329*
X62929Y86439*
X62999Y86559*
X63029Y86689*
X62999Y86829*
X62929Y86939*
X62999Y87059*
X63029Y87189*
X62999Y87329*
X62929Y87439*
X62999Y87559*
X63029Y87689*
X62999Y87829*
X62929Y87939*
X62999Y88059*
X63029Y88189*
X62999Y88329*
X62919Y88439*
X62809Y88519*
X62669Y88549*
X61169*
X61039Y88519*
X60919Y88439*
X60839Y88329*
X60819Y88189*
X60839Y88059*
X60919Y87939*
X60839Y87829*
X60819Y87689*
X60839Y87559*
X60919Y87439*
X60839Y87329*
X60819Y87189*
X60839Y87059*
X60919Y86939*
X60839Y86829*
X60819Y86689*
X60839Y86559*
X60919Y86439*
X60839Y86329*
X60819Y86189*
X60839Y86059*
X60919Y85939*
X60839Y85829*
X60819Y85689*
X60839Y85559*
X60919Y85439*
X60839Y85329*
X60819Y85189*
X60839Y85059*
X60919Y84939*
X60839Y84829*
X60819Y84689*
Y84679*
X60709Y84549*
X50499*
X50439Y84609*
X50319Y84689*
X50189Y84719*
X49779*
X49759Y84779*
X49649Y84959*
X49479Y85069*
X49279Y85109*
X49069Y85069*
X48899Y84959*
X48789Y84779*
X48749Y84579*
X48789Y84379*
X48899Y84209*
X49069Y84089*
X49279Y84049*
X49309Y84059*
X49359Y84029*
X49389Y84009*
X49429Y83909*
X49419Y83889*
X49379Y83689*
X49419Y83489*
X49489Y83389*
X49419Y83269*
X49259*
X49249Y83279*
X49079Y83399*
X48869Y83439*
X48669Y83399*
X48499Y83279*
X48389Y83109*
X48349Y82909*
X48389Y82709*
X48499Y82539*
X48609Y82459*
X48639Y82309*
X48049Y81719*
X47919Y81759*
X47899Y81829*
X47829Y81939*
X47899Y82059*
X47929Y82189*
X47899Y82329*
X47829Y82439*
X47899Y82559*
X47929Y82689*
X47899Y82829*
X47829Y82939*
X47899Y83059*
X47929Y83189*
X47899Y83329*
X47829Y83439*
X47899Y83559*
X47929Y83689*
X47899Y83829*
X47829Y83939*
X47899Y84059*
X47929Y84189*
X47899Y84329*
X47829Y84439*
X47899Y84559*
X47929Y84689*
X47899Y84829*
X47829Y84939*
X47899Y85059*
X47929Y85189*
X47899Y85329*
X47829Y85439*
X47899Y85559*
X47929Y85689*
X47899Y85829*
X47829Y85939*
X47899Y86059*
X47929Y86189*
X47899Y86329*
X47829Y86439*
X47899Y86559*
X47929Y86689*
X47899Y86829*
X47819Y86939*
X47709Y87019*
X47569Y87049*
X46069*
X45939Y87019*
X45909Y86999*
X45869*
X45749Y86979*
X45639Y86899*
X45459Y86719*
X45349Y86769*
X44049*
Y86689*
X43929Y86649*
X43839Y86759*
X43659Y86899*
X43459Y86979*
X43239Y87009*
X43019Y86979*
X42819Y86899*
X42649Y86759*
X42509Y86589*
X42429Y86389*
X42399Y86169*
X42429Y85949*
X42509Y85749*
X42649Y85569*
X42819Y85439*
X43019Y85349*
X43239Y85329*
X43459Y85349*
X43659Y85439*
X43839Y85569*
X43929Y85689*
X44049Y85649*
Y85569*
X45349*
Y85829*
X45369*
X45499Y85859*
X45569Y85909*
X45689Y85889*
X45729Y85869*
X45739Y85829*
X45719Y85689*
X45739Y85559*
X45819Y85439*
X45739Y85329*
X45719Y85189*
X45739Y85059*
X45819Y84939*
X45739Y84829*
X45719Y84689*
X45739Y84559*
X45819Y84439*
X45739Y84329*
X45719Y84189*
X45739Y84059*
X45819Y83939*
X45739Y83829*
X45719Y83689*
X45739Y83559*
X45819Y83439*
X45739Y83329*
X45719Y83189*
X45739Y83059*
X45819Y82939*
X45739Y82829*
X45719Y82689*
X45739Y82559*
X45819Y82439*
X45739Y82329*
X45719Y82189*
X45739Y82059*
X45819Y81939*
X45739Y81829*
X45719Y81689*
Y81679*
X45609Y81549*
X43639*
X43619Y81589*
X43449Y81699*
X43249Y81739*
X43039Y81699*
X42869Y81589*
X42759Y81419*
X42719Y81209*
X42759Y81009*
X42869Y80839*
X43039Y80729*
X43249Y80689*
X43449Y80729*
X43619Y80839*
X43639Y80879*
X48019*
Y79389*
X48039Y79259*
X48119Y79139*
X48239Y79059*
X48369Y79039*
X48509Y79059*
X48619Y79139*
X48739Y79059*
X48869Y79039*
X49009Y79059*
X49119Y79139*
X49239Y79059*
X49369Y79039*
X49509Y79059*
X49619Y79139*
X49739Y79059*
X49869Y79039*
X49889*
X49909Y79029*
X49949Y78899*
X49279Y78229*
X49199Y78109*
X49169Y77979*
Y74419*
X49199Y74289*
X49279Y74169*
X50329Y73119*
X50279Y72999*
X45869*
X44919Y73949*
X44939Y73969*
X44979Y74169*
X44939Y74369*
X44819Y74539*
X44649Y74659*
X44449Y74699*
X44249Y74659*
X44079Y74539*
X43959Y74369*
X43919Y74169*
X43959Y73969*
X44079Y73789*
X44129Y73759*
X44199Y73659*
X45249Y72609*
X45199Y72489*
X44879*
X43029Y74339*
Y74989*
X43049Y74999*
X43159Y75169*
X43199Y75379*
X43159Y75579*
X43049Y75749*
X42869Y75859*
X42669Y75899*
X42469Y75859*
X42389Y75809*
X42269Y75879*
Y91549*
X43059Y92339*
X44029*
X44099Y92209*
X44079Y92169*
X43979Y92149*
X43809Y92039*
X43699Y91869*
X43659Y91659*
X43699Y91459*
X43729Y91419*
X43659Y91289*
X43309*
X43299Y91309*
X43129Y91419*
X42929Y91459*
X42719Y91419*
X42549Y91309*
X42439Y91129*
X42399Y90929*
X42439Y90729*
X42549Y90559*
X42719Y90439*
X42929Y90399*
X43129Y90439*
X43299Y90559*
X43309Y90579*
X44449*
X44589Y90599*
X44699Y90679*
X45359Y91339*
X45609*
X45719Y91209*
Y91189*
X45739Y91059*
X45819Y90939*
X45739Y90829*
X45719Y90689*
X45739Y90559*
X45819Y90439*
X45739Y90329*
X45719Y90189*
X45739Y90059*
X45819Y89939*
X45739Y89829*
X45719Y89689*
X45739Y89559*
X45819Y89439*
X45739Y89329*
X45719Y89189*
X45739Y89059*
X45819Y88939*
X45739Y88829*
X45719Y88689*
X45739Y88559*
X45819Y88439*
X45739Y88329*
X45719Y88189*
X45739Y88059*
X45819Y87939*
X45739Y87829*
X45719Y87689*
X45739Y87559*
X45819Y87439*
X45939Y87359*
X46069Y87339*
X47569*
X47709Y87359*
X47819Y87439*
X47899Y87559*
X47929Y87689*
X47899Y87829*
X47829Y87939*
X47899Y88059*
X47929Y88189*
X47899Y88329*
X47829Y88439*
X47899Y88559*
X47929Y88689*
X47899Y88829*
X47829Y88939*
X47899Y89059*
X47929Y89189*
X47899Y89329*
X47829Y89439*
X47899Y89559*
X47929Y89689*
X47899Y89829*
X47829Y89939*
X47899Y90059*
X47929Y90189*
X47899Y90329*
X47829Y90439*
X47899Y90559*
X47929Y90689*
X47899Y90829*
X47829Y90939*
X47899Y91059*
X47929Y91189*
X47899Y91329*
X47829Y91439*
X47899Y91559*
X47929Y91689*
X47899Y91829*
X47829Y91939*
X47899Y92059*
X47929Y92189*
X47899Y92329*
X47829Y92439*
X47899Y92559*
X47929Y92689*
X47899Y92829*
X47829Y92939*
X47899Y93059*
X47929Y93189*
X47899Y93329*
X47829Y93439*
X47899Y93559*
X47929Y93689*
X47899Y93829*
X47819Y93939*
X47709Y94019*
X47569Y94049*
X42699*
X42659Y94169*
X43369Y94889*
X48019*
Y94489*
X48039Y94359*
X48119Y94239*
X48239Y94159*
X48369Y94139*
X48429Y94149*
X48559Y94059*
Y93969*
X48589Y93849*
X48659Y93739*
X54999Y87389*
X55109Y87319*
X55239Y87299*
X57259*
X57279Y87259*
X57459Y87139*
X57659Y87099*
X57859Y87139*
X58029Y87259*
X58149Y87429*
X58189Y87629*
X58179Y87659*
X58289Y87759*
X58419Y87739*
X58619Y87779*
X58789Y87889*
X58909Y88059*
X58949Y88259*
X58909Y88469*
X58789Y88639*
X58619Y88749*
X58419Y88789*
X58219Y88749*
X58049Y88639*
X58029Y88609*
X57389*
X57259Y88579*
X57159Y88509*
X57119Y88469*
X55509*
X49959Y94019*
X49999Y94159*
X50009*
X50119Y94239*
X50239Y94159*
X50369Y94139*
X50509Y94159*
X50619Y94239*
X50699Y94359*
X50729Y94489*
Y95989*
X50709Y96109*
Y96379*
X50829*
Y96919*
X51279Y97369*
X51349Y97479*
X51379Y97609*
Y97649*
X51589*
Y98189*
X54749Y101349*
X54849Y101499*
X54879Y101669*
Y104369*
X55379*
Y104449*
X58139*
Y103809*
X58589*
Y102819*
X58519Y102769*
X58379Y102599*
X58299Y102389*
X58269Y102179*
X58299Y101959*
X58379Y101749*
X58519Y101579*
X58689Y101449*
X58899Y101359*
X59109Y101329*
X59329Y101359*
X59539Y101449*
X59709Y101579*
X59839Y101749*
X59929Y101959*
X59959Y102179*
X59929Y102389*
X59839Y102599*
X59709Y102769*
X59639Y102819*
Y103809*
X60089*
Y104959*
X60159Y105059*
X60279Y105349*
X60319Y105659*
X60279Y105979*
X60159Y106269*
X60089Y106359*
Y107509*
X58139*
Y106869*
X55379*
Y106949*
X53459*
Y106379*
X53369Y106269*
X53249Y105979*
X53209Y105659*
X53249Y105349*
X53369Y105059*
X53459Y104939*
Y104369*
X53959*
Y101869*
X51039Y98949*
X50489*
Y97679*
X50089*
Y98949*
X48989*
Y97679*
X48229*
Y96379*
X48169Y96279*
X48119Y96239*
X48039Y96129*
X48019Y95989*
Y95599*
X43229*
X43089Y95569*
X42969Y95489*
X40129Y92649*
X40059Y92539*
X40029Y92399*
Y74849*
X40039Y74809*
Y73639*
X40059Y73509*
X40139Y73389*
X43679Y69849*
X43799Y69769*
X43929Y69749*
X50939*
X52469Y68209*
X52579Y68139*
X52719Y68109*
X209219*
X209359Y68139*
X209469Y68209*
X210999Y69749*
X212609*
X215959Y66399*
X216069Y66329*
X216209Y66299*
X230379*
X231699Y64989*
X231809Y64909*
X231949Y64879*
X232199*
X232209Y64749*
X232159*
X231919Y64649*
X231719Y64499*
X231569Y64299*
X231469Y64059*
X231439Y63809*
X231469Y63559*
X231569Y63319*
X231719Y63119*
X231919Y62969*
X232159Y62869*
X232409Y62839*
X232659Y62869*
X232899Y62969*
X233099Y63119*
X233249Y63319*
X233349Y63559*
X233379Y63809*
X233349Y64059*
X233249Y64299*
X233099Y64499*
X232899Y64649*
X232659Y64749*
X232609*
X232619Y64879*
X232869*
X233009Y64909*
X233119Y64989*
X233769Y65639*
X233849Y65749*
X233879Y65889*
Y67309*
X237109Y70549*
X237239Y70489*
X237489Y70459*
X237739Y70489*
X237979Y70589*
X238009Y70619*
X238129Y70559*
Y60959*
X233449*
X233359Y61089*
X233379Y61269*
X233349Y61519*
X233249Y61759*
X233099Y61959*
X232899Y62109*
X232659Y62209*
X232409Y62239*
X232159Y62209*
X231919Y62109*
X231719Y61959*
X231569Y61759*
X231469Y61519*
X231439Y61269*
X231459Y61089*
X231369Y60959*
X29079*
X29039Y61089*
X29099Y61129*
X29249Y61329*
X29349Y61569*
X29379Y61819*
X29349Y62069*
X29249Y62309*
X29099Y62509*
X28899Y62659*
X28769Y62709*
Y65429*
X28899Y65479*
X29099Y65629*
X29249Y65829*
X29349Y66069*
X29379Y66319*
X29349Y66569*
X29249Y66809*
X29099Y67009*
X28899Y67159*
X28769Y67209*
Y77539*
X32069Y80839*
X32199*
X32379Y80729*
X32579Y80689*
X32779Y80729*
X32949Y80839*
X33059Y81009*
X33099Y81209*
X33059Y81419*
X32949Y81589*
X32779Y81699*
X32579Y81739*
X32379Y81699*
X32199Y81589*
X32179Y81549*
X32059*
X31939Y81569*
X31819Y81549*
X30429*
X29759Y82219*
X29649Y82289*
X29529Y82309*
X29039*
Y82579*
X27739*
Y82309*
X27429*
X27299Y82289*
X27189Y82219*
X26299Y81319*
X24619*
X24339Y81599*
X24359Y81609*
Y82599*
X23859Y83089*
X23049*
Y109469*
X238119*
Y100239*
G37*
G36*
X178199Y57979D02*
Y31239D01*
X194819*
Y25399*
X178199*
X168799*
X168659Y25539*
Y31239*
X168799*
Y57979*
X178199*
G37*
G36*
X197879Y30729D02*
X210699D01*
Y25519*
X210649Y25399*
X197609*
Y30829*
X197729Y30879*
X197879Y30729*
G37*
G36*
X236649Y88719D02*
X236799Y88519D01*
X236999Y88369*
X237239Y88269*
X237489Y88239*
X237739Y88269*
X237979Y88369*
X238009Y88399*
X238119Y88339*
Y79919*
X238009Y79859*
X237979Y79889*
X237739Y79989*
X237489Y80019*
X237239Y79989*
X236999Y79889*
X236799Y79739*
X236649Y79539*
X236549Y79299*
X236519Y79049*
X236549Y78799*
X236609Y78669*
X234949Y77019*
X234869Y76899*
X234849Y76759*
Y74819*
X232919Y72899*
X232619*
X232609Y73029*
X232659*
X232899Y73129*
X233099Y73279*
X233249Y73479*
X233349Y73719*
X233379Y73969*
X233349Y74219*
X233249Y74459*
X233099Y74659*
X232899Y74809*
X232659Y74909*
X232409Y74939*
X232159Y74909*
X231919Y74809*
X231719Y74659*
X231569Y74459*
X231469Y74219*
X231439Y73969*
X231469Y73719*
X231569Y73479*
X231719Y73279*
X231919Y73129*
X232159Y73029*
X232209*
X232199Y72899*
X231299*
X231159Y72869*
X231049Y72789*
X226759Y68509*
X216979*
X213829Y71659*
X213879Y71779*
X216719*
X217029Y71469*
X216999Y71399*
X216979Y71179*
X216999Y70969*
X217089Y70759*
X217219Y70589*
X217399Y70449*
X217599Y70369*
X217819Y70339*
X218039Y70369*
X218239Y70449*
X218409Y70589*
X218549Y70759*
X218629Y70969*
X218659Y71179*
X218629Y71399*
X218549Y71609*
X218409Y71779*
X218239Y71909*
X218039Y71999*
X217819Y72029*
X217599Y71999*
X217539Y71969*
X217179Y72329*
X217209Y72479*
X217219Y72489*
X217399Y72619*
X217529Y72789*
X217619Y72999*
X217639Y73219*
X217619Y73429*
X217529Y73639*
X217399Y73809*
X217219Y73949*
X217019Y74029*
X216799Y74059*
X216579Y74029*
X216379Y73949*
X216209Y73809*
X216069Y73639*
X215989Y73429*
X215959Y73219*
X215979Y73099*
X215889Y72999*
X213699*
X213649Y73119*
X215759Y75219*
X215819Y75199*
X216039Y75169*
X216259Y75199*
X216459Y75279*
X216639Y75409*
X216769Y75589*
X216849Y75789*
X216879Y76009*
X216849Y76229*
X216769Y76429*
X216639Y76609*
X216459Y76739*
X216259Y76819*
X216039Y76849*
X215819Y76819*
X215619Y76739*
X215439Y76609*
X215309Y76429*
X215229Y76229*
X215199Y76009*
X215229Y75789*
X215249Y75729*
X213029Y73509*
X211419*
X211369Y73629*
X214489Y76749*
X214549Y76719*
X214769Y76689*
X214989Y76719*
X215189Y76799*
X215369Y76939*
X215499Y77109*
X215579Y77319*
X215609Y77529*
X215579Y77749*
X215499Y77959*
X215369Y78129*
X215189Y78259*
X214989Y78349*
X214769Y78379*
X214549Y78349*
X214349Y78259*
X214169Y78129*
X214039Y77959*
X213959Y77749*
X213929Y77529*
X213959Y77319*
X213979Y77249*
X210749Y74019*
X209779*
X209729Y74129*
X224479Y88879*
X231509*
X231569Y88719*
X231719Y88519*
X231919Y88369*
X232159Y88269*
X232409Y88239*
X232659Y88269*
X232899Y88369*
X233099Y88519*
X233249Y88719*
X233309Y88879*
X236589*
X236649Y88719*
G37*
G36*
X64989Y93839D02*
X65129D01*
Y93699*
X65109Y93689*
X64939Y93559*
X64799Y93389*
X64719Y93179*
X64689Y92959*
X64709Y92799*
X63439Y91529*
X63339Y91379*
X63309Y91199*
Y90199*
X63119*
X63019Y90259*
X62999Y90329*
X62929Y90439*
X62999Y90559*
X63029Y90689*
X62999Y90829*
X62929Y90939*
X62999Y91059*
X63029Y91189*
X62999Y91329*
X62929Y91439*
X62999Y91559*
X63029Y91689*
X62999Y91829*
X62929Y91939*
X62999Y92059*
X63029Y92189*
X62999Y92329*
X62929Y92439*
X62999Y92559*
X63029Y92689*
X62999Y92829*
X62929Y92939*
X62999Y93059*
X63029Y93189*
X62999Y93329*
X62929Y93439*
X62999Y93559*
X63029Y93689*
X62999Y93829*
X62959Y93899*
X63009Y94029*
X64989*
Y93839*
G37*
G36*
X238509Y34039D02*
Y33269D01*
Y29719*
X226569*
X216149Y19299*
X210859*
X210819Y19319*
Y19809*
X197609*
Y24379*
X213869*
X223769Y34289*
X238249*
X238509Y34039*
G37*
%LNlv1-2*%
%LPC*%
G36*
X28449Y90919D02*
X28189Y90889D01*
X27939Y90789*
X27729Y90629*
X27569Y90419*
X27469Y90179*
X27439Y89919*
X27469Y89649*
X27569Y89409*
X27729Y89199*
X27939Y89039*
X28189Y88939*
X28449Y88909*
X28709Y88939*
X28949Y89039*
X29159Y89199*
X29319Y89409*
X29419Y89649*
X29459Y89919*
X29419Y90179*
X29319Y90419*
X29159Y90629*
X28949Y90789*
X28709Y90889*
X28449Y90919*
G37*
G36*
Y88379D02*
X28189Y88349D01*
X27939Y88249*
X27729Y88089*
X27569Y87879*
X27469Y87639*
X27439Y87379*
X27469Y87109*
X27569Y86869*
X27729Y86659*
X27939Y86499*
X28189Y86399*
X28449Y86369*
X28709Y86399*
X28949Y86499*
X29159Y86659*
X29319Y86869*
X29419Y87109*
X29459Y87379*
X29419Y87639*
X29319Y87879*
X29159Y88089*
X28949Y88249*
X28709Y88349*
X28449Y88379*
G37*
G36*
Y94989D02*
X28189Y94949D01*
X27939Y94849*
X27729Y94689*
X27569Y94479*
X27469Y94239*
X27439Y93979*
X27469Y93719*
X27569Y93479*
X27729Y93269*
X27939Y93109*
X28189Y93009*
X28449Y92969*
X28709Y93009*
X28949Y93109*
X29159Y93269*
X29319Y93479*
X29419Y93719*
X29459Y93979*
X29419Y94239*
X29319Y94479*
X29159Y94689*
X28949Y94849*
X28709Y94949*
X28449Y94989*
G37*
G36*
X28389Y103939D02*
X28119Y103909D01*
X27879Y103809*
X27669Y103649*
X27509Y103439*
X27409Y103189*
X27379Y102929*
X27409Y102669*
X27509Y102429*
X27669Y102219*
X27879Y102059*
X28119Y101959*
X28389Y101919*
X28649Y101959*
X28889Y102059*
X29099Y102219*
X29259Y102429*
X29359Y102669*
X29389Y102929*
X29359Y103189*
X29259Y103439*
X29099Y103649*
X28889Y103809*
X28649Y103909*
X28389Y103939*
G37*
G36*
X28449Y97529D02*
X28189Y97489D01*
X27939Y97389*
X27729Y97229*
X27569Y97019*
X27469Y96779*
X27439Y96519*
X27469Y96259*
X27569Y96019*
X27729Y95809*
X27939Y95649*
X28189Y95549*
X28449Y95509*
X28709Y95549*
X28949Y95649*
X29159Y95809*
X29319Y96019*
X29419Y96259*
X29459Y96519*
X29419Y96779*
X29319Y97019*
X29159Y97229*
X28949Y97389*
X28709Y97489*
X28449Y97529*
G37*
G36*
X66089Y88659D02*
X64469D01*
Y87039*
X64629*
Y86049*
X65929*
Y87039*
X66089*
Y88659*
G37*
G36*
X232409Y77479D02*
X232159Y77449D01*
X231919Y77349*
X231719Y77199*
X231569Y76999*
X231469Y76759*
X231439Y76509*
X231469Y76259*
X231569Y76019*
X231719Y75819*
X231919Y75669*
X232159Y75569*
X232409Y75539*
X232659Y75569*
X232899Y75669*
X233099Y75819*
X233249Y76019*
X233349Y76259*
X233379Y76509*
X233349Y76759*
X233249Y76999*
X233099Y77199*
X232899Y77349*
X232659Y77449*
X232409Y77479*
G37*
G36*
X221119Y81169D02*
X220899Y81139D01*
X220699Y81059*
X220519Y80919*
X220389Y80749*
X220309Y80549*
X220279Y80329*
X220309Y80109*
X220389Y79909*
X220519Y79729*
X220659Y79629*
Y78679*
X220699Y78499*
X220799Y78349*
X222049Y77099*
Y71229*
X221209Y70399*
X221039Y70419*
X220819Y70389*
X220619Y70309*
X220439Y70169*
X220309Y69999*
X220229Y69799*
X220199Y69579*
X220229Y69359*
X220309Y69159*
X220439Y68979*
X220619Y68849*
X220819Y68759*
X221039Y68739*
X221259Y68759*
X221459Y68849*
X221629Y68979*
X221769Y69159*
X221849Y69359*
X221879Y69579*
X221859Y69749*
X222829Y70719*
X222929Y70869*
X222959Y71039*
Y77289*
X222929Y77469*
X222829Y77619*
X221579Y78869*
Y79629*
X221719Y79729*
X221849Y79909*
X221929Y80109*
X221959Y80329*
X221929Y80549*
X221849Y80749*
X221719Y80919*
X221539Y81059*
X221339Y81139*
X221119Y81169*
G37*
G36*
X26399Y78009D02*
X25409D01*
X24919Y77519*
Y76529*
X25409Y76039*
X26399*
X26899Y76529*
Y77519*
X26399Y78009*
G37*
G36*
X68069Y88919D02*
X67869Y88879D01*
X67699Y88769*
X67579Y88589*
X67539Y88389*
X67579Y88189*
X67699Y88019*
X67869Y87899*
X68069Y87859*
X68159Y87879*
X68269Y87769*
X68249Y87679*
X68289Y87479*
X68409Y87309*
X68579Y87199*
X68779Y87159*
X68979Y87199*
X69149Y87309*
X69179Y87349*
X90739*
X93959Y84129*
X93929Y84039*
X93899Y83819*
X93929Y83599*
X94009Y83399*
X94149Y83219*
X94319Y83089*
X94519Y83009*
X94739Y82979*
X94959Y83009*
X95159Y83089*
X95339Y83219*
X95469Y83399*
X95559Y83599*
X95579Y83819*
X95559Y84039*
X95469Y84239*
X95339Y84419*
X95159Y84549*
X94959Y84629*
X94739Y84659*
X94519Y84629*
X94439Y84599*
X91799Y87229*
X91849Y87349*
X122239*
X125209Y84379*
X125169Y84289*
X125139Y84069*
X125169Y83859*
X125249Y83649*
X125389Y83479*
X125559Y83339*
X125769Y83259*
X125979Y83229*
X126199Y83259*
X126409Y83339*
X126579Y83479*
X126709Y83649*
X126799Y83859*
X126829Y84069*
X126799Y84289*
X126709Y84499*
X126579Y84669*
X126409Y84799*
X126199Y84889*
X125979Y84919*
X125769Y84889*
X125679Y84849*
X122609Y87919*
X122589Y87929*
X122629Y88059*
X152259*
X155939Y84379*
X155899Y84289*
X155879Y84069*
X155899Y83859*
X155989Y83649*
X156119Y83479*
X156299Y83339*
X156499Y83259*
X156719Y83229*
X156939Y83259*
X157139Y83339*
X157309Y83479*
X157449Y83649*
X157529Y83859*
X157559Y84069*
X157529Y84289*
X157449Y84499*
X157309Y84669*
X157139Y84799*
X156939Y84889*
X156719Y84919*
X156499Y84889*
X156409Y84849*
X153449Y87809*
X153499Y87929*
X183629*
X187179Y84379*
X187149Y84289*
X187119Y84069*
X187149Y83859*
X187229Y83649*
X187359Y83479*
X187539Y83339*
X187739Y83259*
X187959Y83229*
X188179Y83259*
X188379Y83339*
X188559Y83479*
X188689Y83649*
X188769Y83859*
X188799Y84069*
X188769Y84289*
X188689Y84499*
X188559Y84669*
X188379Y84799*
X188179Y84889*
X187959Y84919*
X187739Y84889*
X187649Y84849*
X183999Y88499*
X183899Y88569*
X183769Y88599*
X152669*
X152639Y88629*
X152529Y88699*
X152399Y88729*
X68469*
X68449Y88769*
X68269Y88879*
X68069Y88919*
G37*
G36*
X232409Y80019D02*
X232159Y79989D01*
X231919Y79889*
X231719Y79739*
X231569Y79539*
X231469Y79299*
X231439Y79049*
X231469Y78799*
X231569Y78559*
X231719Y78359*
X231919Y78209*
X232159Y78109*
X232409Y78079*
X232659Y78109*
X232899Y78209*
X233099Y78359*
X233249Y78559*
X233349Y78799*
X233379Y79049*
X233349Y79299*
X233249Y79539*
X233099Y79739*
X232899Y79889*
X232659Y79989*
X232409Y80019*
G37*
%LNlv1-3*%
%LPD*%
G54D12*
X65279Y85099D03*
Y86599D03*
X51049Y75699D03*
Y77199D03*
X29209Y18279D03*
Y16779D03*
X30989Y18279D03*
Y16779D03*
X24889Y18529D03*
Y17029D03*
G54D13*
X65589Y94489D03*
X66989D03*
X65589Y96519D03*
X66989D03*
G54D14*
X53579Y78229D03*
X52079D03*
X49539Y98299D03*
X51039D03*
X48779Y97029D03*
X50279D03*
X57389Y78229D03*
X55889D03*
X60439Y77719D03*
X58939D03*
X195849Y32509D03*
X197349D03*
X195849Y17269D03*
X197349D03*
G54D15*
X70869Y106549D03*
Y101739D03*
G54D23*
X54419Y105659D03*
X50739D03*
G54D32*
X63769Y89599D03*
Y88199D03*
X44699Y86169D03*
Y87569D03*
X28389Y80579D03*
Y81979D03*
G54D33*
X95899Y57349D03*
Y61149D03*
X189619Y57349D03*
Y61149D03*
G54D34*
X188209Y30909D03*
Y33609D03*
X206249Y30649D03*
Y33349D03*
X209299Y30649D03*
Y33349D03*
X203199Y30649D03*
Y33349D03*
X188209Y16429D03*
Y19129D03*
X203449Y16939D03*
Y19639D03*
X206499Y16939D03*
Y19639D03*
X209539Y16939D03*
Y19639D03*
G54D35*
X198539Y28189D03*
X193639D03*
X198539Y21589D03*
X193639D03*
G54D36*
X58939Y74939D02*
X60459D01*
X51049Y74929D02*
X51309Y74679D01*
X51049Y74929D02*
Y75699D01*
X136649Y58129D02*
Y59689D01*
X135639Y52069D02*
Y53909D01*
X136139Y54409*
Y55369*
X137119Y56349*
Y57659*
X136649Y58129D02*
X137119Y57659D01*
X133859Y59179D02*
X135889Y57149D01*
X43239Y86169D02*
X44699D01*
X65529Y92959D02*
X66799Y91689D01*
Y81279D02*
Y91689D01*
X60459Y74939D02*
X66799Y81279D01*
X58169Y74169D02*
X58939Y74939D01*
X55119Y74169D02*
X58169D01*
X53589Y75689D02*
X55119Y74169D01*
X53589Y75689D02*
Y78219D01*
X53579Y78229D02*
X53589Y78219D01*
G54D37*
X232409Y20629D02*
X237489D01*
X232409Y23169D02*
X237489D01*
X210879Y38409D02*
X232409D01*
X209549Y37079D02*
X210879Y38409D01*
X208029Y37079D02*
X209549D01*
X220269Y35869D02*
X232409D01*
X212849Y28449D02*
X220269Y35869D01*
X209549Y28449D02*
X212849D01*
X67689Y106549D02*
X70869D01*
X66799Y105659D02*
X67689Y106549D01*
X63309Y105659D02*
X66799D01*
X237489Y40949D02*
Y43489D01*
X232409D02*
X237489D01*
X232409Y40949D02*
Y43489D01*
X237489Y46029D02*
Y48569D01*
X232409D02*
X237489D01*
X232409Y46029D02*
Y48569D01*
Y35869D02*
X237489D01*
X232409Y38409D02*
X237489D01*
X59109Y105659D02*
D01*
X54419D02*
X59109D01*
G54D38*
X49279Y84579D02*
X49499Y84359D01*
X50349Y84189D02*
X61919D01*
X50189Y84359D02*
X50349Y84189D01*
X49499Y84359D02*
X50189D01*
X49909Y83689D02*
X61919D01*
X48869Y82909D02*
X60679D01*
X60959Y83189*
X44159Y91669D02*
X44679Y92189D01*
X46819*
X42909Y92689D02*
X46819D01*
X42649Y93189D02*
X46819D01*
X42379Y93689D02*
X46819D01*
X40389Y92399D02*
X43229Y95239D01*
X48369*
X44449Y90929D02*
X45209Y91689D01*
X42929Y90929D02*
X44449D01*
X41909Y74249D02*
Y91689D01*
X41399Y74449D02*
Y91949D01*
X40889Y74649D02*
Y92199D01*
X40389Y74849D02*
Y92399D01*
X41909Y91689D02*
X42909Y92689D01*
X41399Y91949D02*
X42649Y93189D01*
X40889Y92199D02*
X42379Y93689D01*
X45209Y91689D02*
X46819D01*
X60219Y93189D02*
X61919D01*
X60199Y93219D02*
X60219Y93189D01*
X60199Y91949D02*
X60939Y92689D01*
X60199Y91949D02*
D01*
X135639Y55859D02*
X136619Y56849D01*
X135639Y55119D02*
Y55859D01*
X134869Y54359D02*
X135639Y55119D01*
X135129Y59689D02*
X135639Y59179D01*
Y58439D02*
Y59179D01*
Y58439D02*
X136619Y57449D01*
Y56849D02*
Y57449D01*
X111369Y60449D02*
X141129D01*
X111189Y60269D02*
X111369Y60449D01*
X97689Y60099D02*
X98049Y60449D01*
X93749D02*
X94099Y60099D01*
X52829Y60449D02*
X93749D01*
X98049D02*
X110399D01*
X141129D02*
X147019D01*
X110569Y60269D02*
X111189D01*
X110399Y60449D02*
X110569Y60269D01*
X94099Y60099D02*
X97689D01*
X147019Y60449D02*
X150509Y56959D01*
X31999Y39619D02*
X52829Y60449D01*
X58869Y91749D02*
X59939Y90679D01*
X58869Y91749D02*
Y95239D01*
X210859Y70099D02*
X212759D01*
X209219Y68469D02*
X210859Y70099D01*
X52719Y68469D02*
X209219D01*
X51079Y70099D02*
X52719Y68469D01*
X43929Y70099D02*
X51079D01*
X210659Y70609D02*
X212959D01*
X209009Y68969D02*
X210659Y70609D01*
X52929Y68969D02*
X209009D01*
X51279Y70609D02*
X52929Y68969D01*
X44129Y70609D02*
X51279D01*
X210459Y71119D02*
X213159D01*
X208809Y69469D02*
X210459Y71119D01*
X53129Y69469D02*
X208809D01*
X51479Y71119D02*
X53129Y69469D01*
X44329Y71119D02*
X51479D01*
X210259Y71629D02*
X213359D01*
X208599Y69969D02*
X210259Y71629D01*
X53339Y69969D02*
X208599D01*
X51679Y71629D02*
X53339Y69969D01*
X44529Y71629D02*
X51679D01*
X210059Y72139D02*
X216869D01*
X208389Y70469D02*
X210059Y72139D01*
X53549Y70469D02*
X208389D01*
X51879Y72139D02*
X53549Y70469D01*
X44729Y72139D02*
X51879D01*
X209859Y72639D02*
X216359D01*
X208179Y70969D02*
X209859Y72639D01*
X53759Y70969D02*
X208179D01*
X52079Y72639D02*
X53759Y70969D01*
X45719Y72639D02*
X52079D01*
X209659Y73149D02*
X213179D01*
X207979Y71469D02*
X209659Y73149D01*
X53959Y71469D02*
X207979D01*
X52279Y73149D02*
X53959Y71469D01*
X50799Y73149D02*
X52279D01*
X209459Y73659D02*
X210899D01*
X207769Y71969D02*
X209459Y73659D01*
X54169Y71969D02*
X207769D01*
X52479Y73659D02*
X54169Y71969D01*
X51309Y73659D02*
X52479D01*
X50039Y74929D02*
X51309Y73659D01*
X49529Y74419D02*
X50799Y73149D01*
X44449Y73909D02*
X45719Y72639D01*
X42669Y74199D02*
X44729Y72139D01*
X41909Y74249D02*
X44529Y71629D01*
X41409Y74039D02*
X44329Y71119D01*
X40899Y73839D02*
X44129Y70609D01*
X40389Y73639D02*
X43929Y70099D01*
X28409Y77689D02*
X31939Y81209D01*
X28409Y66319D02*
Y77689D01*
X27429Y30729D02*
X30989Y27179D01*
Y18279D02*
Y27179D01*
X27429Y20049D02*
Y24379D01*
Y20049D02*
X29209Y18279D01*
X24889Y34539D02*
X27429Y37079D01*
X24889Y18529D02*
Y34539D01*
Y15749D02*
X27939Y12699D01*
X24889Y15749D02*
Y17029D01*
D01*
X123329Y34349D02*
Y39429D01*
X102439Y13459D02*
X123329Y34349D01*
X26159Y17019D02*
X29719Y13459D01*
X26159Y17019D02*
Y25649D01*
X27429Y26919*
X138399Y33679D02*
Y44039D01*
X108339Y39939D02*
Y44259D01*
X82879Y14479D02*
X108339Y39939D01*
X29209Y15489D02*
X30229Y14479D01*
X29209Y15489D02*
Y16779D01*
X30989D02*
X61529D01*
X82179Y48579D02*
X87769Y42989D01*
X97679*
X27429Y39619D02*
X31999D01*
X28409Y61819D02*
Y66319D01*
X56369Y78709D02*
Y80139D01*
X55889Y78229D02*
X56369Y78709D01*
X56869Y78749D02*
Y80139D01*
Y78749D02*
X57389Y78229D01*
Y77949D02*
Y78229D01*
Y77949D02*
X57639Y77699D01*
Y76199D02*
Y77699D01*
X55629Y77969D02*
X55889Y78229D01*
X55629Y76199D02*
Y77969D01*
X60939Y92689D02*
X61919D01*
Y84189D02*
X64369D01*
X65279Y85099*
X41399Y74449D02*
X41409Y74439D01*
Y74039D02*
Y74439D01*
X40889Y74649D02*
X40899Y74639D01*
Y73839D02*
Y74639D01*
X40389Y74849D02*
Y74839D01*
Y73639D02*
Y74839D01*
X42669Y74199D02*
Y75379D01*
X44449Y73909D02*
Y74169D01*
X50869Y78559D02*
Y80139D01*
X50039Y77719D02*
X50869Y78559D01*
X50039Y74929D02*
Y77719D01*
X50369Y78819D02*
Y80139D01*
X49529Y77979D02*
X50369Y78819D01*
X49529Y74419D02*
Y77979D01*
X210899Y73659D02*
X214769Y77529D01*
X213179Y73149D02*
X216039Y76009D01*
X216359Y72639D02*
X216869Y73149D01*
Y72139D02*
X217819Y71179D01*
X213359Y71629D02*
X216829Y68159D01*
X226909*
X231299Y72539*
X233069*
X235199Y74679*
Y76759*
X237489Y79049*
X213159Y71119D02*
X216629Y67659D01*
X228949*
X231299Y69999*
X233319*
X235969Y72639*
Y74989*
X237489Y76509*
X212959Y70609D02*
X216419Y67159D01*
X231639*
X231949Y67459*
X232559*
X236379Y71279*
Y71889*
X237489Y72999*
Y73969*
X212759Y70099D02*
X216209Y66659D01*
X230529*
X231949Y65239*
X232869*
X233519Y65889*
Y67459*
X237489Y71429*
X60959Y83189D02*
X61919D01*
X61529Y16779D02*
X76839Y32079D01*
X27429Y33269D02*
X87959D01*
X97679Y42989*
X30229Y14479D02*
X82879D01*
X29719Y13459D02*
X102439D01*
X27939Y12699D02*
X117419D01*
X138399Y33679*
X59369Y95239D02*
Y96199D01*
X58369Y95239D02*
Y96469D01*
Y96669*
X57869Y95239D02*
Y96989D01*
X56869Y95239D02*
Y97509D01*
X57369Y95239D02*
Y97199D01*
X59369Y96199D02*
X59689Y96519D01*
X65589*
X58369Y96669D02*
X59739Y98039D01*
X92199*
X93469Y96769*
X57869Y96989D02*
X59439Y98549D01*
X122429*
X124709Y96269*
X57369Y97199D02*
X59239Y99059D01*
X152909*
X155449Y96519*
X56869Y97509D02*
X58929Y99569D01*
X183899*
X186439Y97029*
G54D39*
X59109Y102179D02*
X59179Y102109D01*
X59109Y102179D02*
Y105659D01*
G54D40*
X58939Y76469D02*
X60459Y74939D01*
X58939Y76469D02*
Y77719D01*
X57819Y82429D02*
X58369Y81879D01*
X57139Y82429D02*
X57819D01*
X56969Y82259D02*
X57139Y82429D01*
X49069Y82259D02*
X56969D01*
X48019Y81209D02*
X49069Y82259D01*
X48899Y93969D02*
X55239Y87629D01*
X57389Y88269D02*
X58409D01*
X58419Y88259*
X57249Y88139D02*
X57389Y88269D01*
X55369Y88139D02*
X57249D01*
X55239Y87629D02*
X57659D01*
X68069Y88389D02*
X152399D01*
X152529Y88259*
X50369Y96939D02*
X51039Y97609D01*
X45029Y87489D02*
X45599D01*
X44959Y87569D02*
X45029Y87489D01*
X45369Y86169D02*
X45869Y86669D01*
X44959Y86169D02*
X45369D01*
X45869Y86669D02*
X46799D01*
X58369Y80139D02*
Y81879D01*
X207569Y72439D02*
X224339Y89209D01*
X54369Y72439D02*
X207569D01*
X52639Y74169D02*
X54369Y72439D01*
X52639Y74169D02*
D01*
X207379Y72899D02*
X226239Y91749D01*
X54559Y72899D02*
X207379D01*
X52519Y74929D02*
X54559Y72899D01*
X31939Y81209D02*
X32579D01*
X30289D02*
X31939D01*
X27429Y81979D02*
X28389D01*
X26439Y80989D02*
X27429Y81979D01*
X24479Y80989D02*
X26439D01*
X23369Y82099D02*
X24479Y80989D01*
X28389Y81979D02*
X29529D01*
X30289Y81209*
X43249D02*
X48019D01*
X57869Y79009D02*
Y80139D01*
Y79009D02*
X58939Y77949D01*
Y77719D02*
Y77949D01*
X58369Y80139D02*
X58399Y80119D01*
Y79189D02*
Y80119D01*
Y79189D02*
X58669Y78909D01*
X59249*
X60439Y77719*
X51869Y78439D02*
Y80139D01*
Y78439D02*
X52079Y78229D01*
X51369Y77619D02*
Y80139D01*
X50369Y95239D02*
Y96939D01*
X51039Y97609D02*
Y98299D01*
X49369Y95239D02*
Y96359D01*
X49459Y96439*
Y97609*
X49369Y97699D02*
X49459Y97609D01*
X49369Y97699D02*
Y98129D01*
X49539Y98299*
X48849Y95259D02*
X48869Y95239D01*
X48849Y95259D02*
Y96959D01*
X48779Y97029D02*
X48849Y96959D01*
X45599Y87489D02*
X45869Y87209D01*
X46799*
X61919Y89189D02*
X63359D01*
X63769Y89599*
X61919Y88689D02*
X63279D01*
X63769Y88199*
X65279Y89709*
Y86599D02*
Y87849D01*
X51049Y77299D02*
X51369Y77619D01*
X216869Y73149D02*
X217209D01*
X51049Y77199D02*
X52069Y76189D01*
Y74679D02*
Y76189D01*
Y74679D02*
X52609Y74139D01*
X52639Y74169*
X224339Y89209D02*
X232409D01*
X237489*
X52079Y76819D02*
Y78229D01*
Y76819D02*
X52519Y76379D01*
Y74929D02*
Y76379D01*
X232409Y91749D02*
X237489D01*
X226239D02*
X232409D01*
X49369Y94139D02*
Y95239D01*
Y94139D02*
X55369Y88139D01*
X48869Y95239D02*
X48899Y95219D01*
Y93969D02*
Y95219D01*
X68779Y87679D02*
X90879D01*
X94739Y83819*
X152529Y88259D02*
X156719Y84069D01*
X90879Y87679D02*
X122369D01*
X125979Y84069*
X152529Y88259D02*
X183769D01*
X187959Y84069*
G54D41*
X96269Y93979D02*
X189479D01*
X221039Y69579D02*
X222499Y71039D01*
Y77289*
X221119Y78679D02*
X222499Y77289D01*
X221119Y78679D02*
Y80329D01*
X30899Y67569D02*
X30949Y67629D01*
X22019Y109999D02*
X242059D01*
X22509Y104199D02*
X22529Y104219D01*
X21999Y10409D02*
Y109979D01*
Y10349D02*
Y10409D01*
Y10349D02*
X22349Y09999D01*
X172969*
X242059*
Y109999*
G54D42*
X193639Y19479D02*
X195849Y17269D01*
X193639Y19479D02*
Y21589D01*
X197349Y17269D02*
X198539Y18459D01*
Y21589*
X193799Y30469D02*
X195849Y32509D01*
X193799Y28359D02*
Y30469D01*
X193639Y28189D02*
X193799Y28359D01*
X198539Y28189D02*
Y31319D01*
X197349Y32509D02*
X198539Y31319D01*
G54D43*
X95249Y92959D02*
X96269Y93979D01*
X65529Y92959D02*
X95249D01*
X63769Y89599D02*
Y91199D01*
X65529Y92959*
X65589Y93029*
Y94489*
X51039Y98299D02*
X54419Y101669D01*
Y105659*
X60479Y95239D02*
X61229Y94489D01*
X65589*
G54D45*
X27429Y26919D03*
Y24379D03*
Y33269D03*
Y30729D03*
Y39619D03*
Y37079D03*
Y45969D03*
Y43429D03*
X28449Y96519D03*
Y93979D03*
Y89919D03*
Y87379D03*
X28389Y100389D03*
Y102929D03*
G54D46*
X28409Y66319D03*
Y61819D03*
X232409Y20629D03*
Y23169D03*
Y25709D03*
Y28249D03*
Y30789D03*
Y33329D03*
Y35869D03*
Y38409D03*
Y40949D03*
Y43489D03*
Y46029D03*
Y48569D03*
Y51109D03*
Y53649D03*
Y56189D03*
Y58729D03*
Y61269D03*
Y63809D03*
Y66349D03*
Y68889D03*
Y71429D03*
Y73969D03*
Y76509D03*
Y79049D03*
Y81589D03*
Y84129D03*
Y86669D03*
Y89209D03*
Y91749D03*
Y94289D03*
Y96829D03*
Y99369D03*
X237489Y20629D03*
Y23169D03*
Y25709D03*
Y28249D03*
Y30789D03*
Y33329D03*
Y35869D03*
Y38409D03*
Y40949D03*
Y43489D03*
Y46029D03*
Y48569D03*
Y51109D03*
Y53649D03*
Y56189D03*
Y58729D03*
Y61269D03*
Y63809D03*
Y66349D03*
Y68889D03*
Y71429D03*
Y73969D03*
Y76509D03*
Y79049D03*
Y81589D03*
Y84129D03*
Y86669D03*
Y89209D03*
Y91749D03*
Y94289D03*
Y96829D03*
Y99369D03*
G54D47*
X30899Y60559D03*
Y67569D03*
G54D48*
X23369Y77019D03*
X25909D03*
X23369Y79559D03*
X25909D03*
X23369Y82099D03*
X25909D03*
G54D49*
X240029Y15549D03*
Y104449D03*
G54D50*
X51309Y74679D03*
X49279Y84579D03*
X49909Y83689D03*
X48869Y82909D03*
X57399Y81789D03*
X44189Y91659D03*
X42929Y90929D03*
X60199Y91949D03*
Y93219D03*
X57659Y87629D03*
X68069Y88389D03*
X58419Y88259D03*
X59939Y90679D03*
X32579Y81209D03*
X43249D03*
X42669Y75379D03*
X44449Y74169D03*
X68779Y87679D03*
G54D51*
X191769Y98039D03*
X60339Y74929D03*
X25149Y72389D03*
Y70609D03*
X43239Y86169D03*
X65529Y92959D03*
X59109Y102179D03*
X221039Y69579D03*
X189119Y42989D03*
X123329Y39429D03*
X76839Y32079D03*
X221119Y80329D03*
X217819Y71179D03*
X216799Y73219D03*
X138399Y44039D03*
X138319Y45779D03*
Y47559D03*
Y49339D03*
Y51119D03*
Y52899D03*
X158379Y42739D03*
X160159D03*
X161939D03*
X163719D03*
X169809Y53659D03*
Y51879D03*
Y50099D03*
Y48069D03*
Y46289D03*
Y44509D03*
X82689Y77529D03*
X97679Y42989D03*
X99449D03*
X101229D03*
X112919Y44259D03*
X111389D03*
X109869D03*
X108339D03*
X112919Y45779D03*
X111389D03*
X109869D03*
X108339D03*
X187589Y42989D03*
X191399Y44259D03*
Y45779D03*
X138059Y55689D03*
Y62799D03*
X169299D03*
X107329D03*
Y55689D03*
X216039Y76009D03*
X214769Y77529D03*
X220869Y74739D03*
X219599Y80069D03*
X93469Y96769D03*
X124709Y96269D03*
X155449Y96519D03*
X186439Y97029D03*
X94739Y83819D03*
X156719Y84069D03*
X125979D03*
X187959D03*
G54D52*
X135639Y52069D03*
X136649Y59689D03*
X134869Y54359D03*
X135889Y57149D03*
X133859Y59179D03*
X135129Y59689D03*
X189479Y93979D03*
X96269D03*
X127469Y94009D03*
X158209D03*
G54D53*
X183019Y82039D03*
X89799D03*
X121039D03*
X151779Y81789D03*
G54D54*
X140599Y55939D03*
Y62549D03*
X141619Y56449D03*
X141729Y62479D03*
Y61469D03*
X141619Y57469D03*
X139329Y55939D03*
Y62549D03*
X170569D03*
X172859Y61019D03*
Y62039D03*
X171839Y62549D03*
X108599D03*
Y55939D03*
X110879Y57469D03*
Y61019D03*
Y62039D03*
Y56449D03*
X109869Y62549D03*
Y55939D03*
G54D55*
X59109Y105659D03*
X63309D03*
G54D56*
X55629Y76199D03*
X56639D03*
X57639D03*
G54D57*
X65279Y89969D03*
Y87849D03*
G54D58*
X60369Y95239D03*
X59869D03*
X59369D03*
X58869D03*
X58369D03*
X57869D03*
X57369D03*
X56869D03*
X56369D03*
X55869D03*
X55369D03*
X54869D03*
X54369D03*
X53869D03*
X53369D03*
X52869D03*
X52369D03*
X51869D03*
X51369D03*
X50869D03*
X50369D03*
X49869D03*
X49369D03*
X48869D03*
X48369D03*
Y80139D03*
X48869D03*
X49369D03*
X49869D03*
X50369D03*
X50869D03*
X51369D03*
X51869D03*
X52369D03*
X52869D03*
X53369D03*
X53869D03*
X54369D03*
X54869D03*
X55369D03*
X55869D03*
X56369D03*
X56869D03*
X57369D03*
X57869D03*
X58369D03*
X58869D03*
X59369D03*
X59869D03*
X60369D03*
G54D59*
X46819Y93689D03*
Y93189D03*
Y92689D03*
Y92189D03*
Y91689D03*
Y91189D03*
Y90689D03*
Y90189D03*
Y89689D03*
Y89189D03*
Y88689D03*
Y88189D03*
Y87689D03*
Y87189D03*
Y86689D03*
Y86189D03*
Y85689D03*
Y85189D03*
Y84689D03*
Y84189D03*
Y83689D03*
Y83189D03*
Y82689D03*
Y82189D03*
Y81689D03*
X61919D03*
Y82189D03*
Y82689D03*
Y83189D03*
Y83689D03*
Y84189D03*
Y84689D03*
Y85189D03*
Y85689D03*
Y86189D03*
Y86689D03*
Y87189D03*
Y87689D03*
Y88189D03*
Y88689D03*
Y89189D03*
Y89689D03*
Y90189D03*
Y90689D03*
Y91189D03*
Y91689D03*
Y92189D03*
Y92689D03*
Y93189D03*
Y93689D03*
G54D60*
X70869Y106549D02*
X74039Y103379D01*
X225859*
X232409Y96829*
X237489*
M02*