%FSTAX23Y23*%
%MOMM*%
%SFA1B1*%

%IPPOS*%
%AMD22*
4,1,4,0.193040,-0.581660,0.581660,-0.193040,-0.193040,0.581660,-0.581660,0.193040,0.193040,-0.581660,0.0*
1,1,0.550000,0.388620,-0.388620*
1,1,0.550000,-0.388620,0.388620*
%
%AMD23*
4,1,4,-0.581660,-0.193040,-0.193040,-0.581660,0.581660,0.193040,0.193040,0.581660,-0.581660,-0.193040,0.0*
1,1,0.550000,-0.388620,-0.388620*
1,1,0.550000,0.388620,0.388620*
%
%AMD24*
4,1,8,-0.650240,0.675640,-0.650240,-0.675640,-0.551180,-0.774700,0.551180,-0.774700,0.650240,-0.675640,0.650240,0.675640,0.551180,0.774700,-0.551180,0.774700,-0.650240,0.675640,0.0*
1,1,0.200000,-0.551180,0.675640*
1,1,0.200000,-0.551180,-0.675640*
1,1,0.200000,0.551180,-0.675640*
1,1,0.200000,0.551180,0.675640*
%
%AMD40*
4,1,4,0.563880,-0.071120,-0.071120,0.563880,-0.563880,0.071120,0.071120,-0.563880,0.563880,-0.071120,0.0*
%
%AMD41*
4,1,4,0.035560,0.599440,-0.599440,-0.035560,-0.035560,-0.599440,0.599440,0.035560,0.035560,0.599440,0.0*
%
%AMD42*
4,1,4,-0.599440,0.035560,0.035560,-0.599440,0.599440,-0.035560,-0.035560,0.599440,-0.599440,0.035560,0.0*
%
%AMD43*
4,1,4,-0.071120,-0.563880,0.563880,0.071120,0.071120,0.563880,-0.563880,-0.071120,-0.071120,-0.563880,0.0*
%
%AMD62*
4,1,8,0.393700,0.784860,-0.393700,0.784860,-0.784860,0.393700,-0.784860,-0.393700,-0.393700,-0.784860,0.393700,-0.784860,0.784860,-0.393700,0.784860,0.393700,0.393700,0.784860,0.0*
%
%ADD10R,1.999996X3.499993*%
%ADD11R,3.609993X2.209996*%
%ADD12R,1.219998X2.239996*%
%ADD13R,1.099998X1.399997*%
%ADD14R,2.099996X1.799996*%
%ADD15R,1.879996X1.169998*%
%ADD16R,0.709999X2.009996*%
%ADD17R,1.549997X3.299993*%
%ADD18R,2.179996X1.519997*%
%ADD19R,1.799996X3.199994*%
%ADD20R,3.999992X3.099994*%
%ADD21R,1.219998X1.219998*%
G04~CAMADD=22~3~0.0~0.0~216.5~649.6~0.0~0.0~0~0.0~0.0~0.0~0.0~0~0.0~0.0~0.0~0.0~0~0.0~0.0~0.0~225.0~522.0~522.0*
%ADD22D22*%
G04~CAMADD=23~3~0.0~0.0~216.5~649.6~0.0~0.0~0~0.0~0.0~0.0~0.0~0~0.0~0.0~0.0~0.0~0~0.0~0.0~0.0~135.0~522.0~522.0*
%ADD23D23*%
G04~CAMADD=24~8~0.0~0.0~610.2~511.8~39.4~0.0~15~0.0~0.0~0.0~0.0~0~0.0~0.0~0.0~0.0~0~0.0~0.0~0.0~90.0~512.0~610.0*
%ADD24D24*%
%ADD25R,0.549999X0.999998*%
%ADD26O,0.549999X0.999998*%
%ADD27R,1.099998X1.699997*%
%ADD28R,0.899998X0.699999*%
%ADD29R,1.139998X0.759998*%
%ADD30R,2.259995X2.999994*%
%ADD31R,1.199998X1.199998*%
%ADD32R,2.599995X1.099998*%
%ADD33R,0.799998X0.899998*%
%ADD34R,0.899998X0.799998*%
%ADD35R,0.999998X0.549999*%
%ADD36O,0.999998X0.549999*%
%ADD37R,0.699999X0.899998*%
%ADD38R,1.399997X3.299993*%
%ADD39R,1.219998X1.219998*%
G04~CAMADD=40~9~0.0~0.0~354.3~275.6~0.0~0.0~0~0.0~0.0~0.0~0.0~0~0.0~0.0~0.0~0.0~0~0.0~0.0~0.0~315.0~444.0~443.0*
%ADD40D40*%
G04~CAMADD=41~9~0.0~0.0~354.3~315.0~0.0~0.0~0~0.0~0.0~0.0~0.0~0~0.0~0.0~0.0~0.0~0~0.0~0.0~0.0~45.0~472.0~471.0*
%ADD41D41*%
G04~CAMADD=42~9~0.0~0.0~354.3~315.0~0.0~0.0~0~0.0~0.0~0.0~0.0~0~0.0~0.0~0.0~0.0~0~0.0~0.0~0.0~135.0~472.0~471.0*
%ADD42D42*%
G04~CAMADD=43~9~0.0~0.0~354.3~275.6~0.0~0.0~0~0.0~0.0~0.0~0.0~0~0.0~0.0~0.0~0.0~0~0.0~0.0~0.0~225.0~444.0~443.0*
%ADD43D43*%
%ADD44R,1.519997X2.179996*%
%ADD45R,0.799998X1.399997*%
%ADD46O,0.799998X1.399997*%
%ADD47R,3.019994X1.419997*%
%ADD48R,1.419997X3.019994*%
%ADD49R,1.399997X1.389997*%
%ADD50R,4.859990X3.359993*%
%ADD51C,1.269997*%
%ADD52C,0.499999*%
%ADD53C,0.699999*%
%ADD54C,0.639999*%
%ADD55C,0.299999*%
%ADD56C,0.749999*%
%ADD57C,0.999998*%
%ADD58C,0.250000*%
%ADD59C,0.509999*%
%ADD60R,1.499997X1.499997*%
%ADD61C,1.499997*%
G04~CAMADD=62~4~0.0~0.0~618.1~618.1~0.0~154.5~0~0.0~0.0~0.0~0.0~0~0.0~0.0~0.0~0.0~0~0.0~0.0~0.0~0.0~618.1~618.1*
%ADD62D62*%
%ADD63C,4.759990*%
%ADD64R,1.689997X1.689997*%
%ADD65C,1.689997*%
%ADD66O,1.419997X2.839994*%
%ADD67C,2.299995*%
%ADD68C,1.779996*%
%ADD69C,2.999994*%
%ADD70C,3.249994*%
%ADD71C,2.399995*%
%ADD72C,1.369997*%
%ADD73R,1.369997X1.369997*%
%ADD74C,1.269997*%
%ADD75C,0.799998*%
%LNlv1-1*%
%LPD*%
G36*
X108619Y52829D02*
X108709Y52739D01*
Y43429*
X89749*
X89659Y43519*
Y52829*
X108619*
G37*
G36*
X128519Y50289D02*
Y47499D01*
Y46989*
X127759Y46229*
X125979Y44449*
X124969*
X121919Y44479*
Y45429*
X122939Y46449*
Y46739*
Y50289*
X125979*
X126749Y51049*
X127759*
X128519Y50289*
G37*
G36*
X39369Y33779D02*
Y33269D01*
X28629*
X27429Y34469*
Y39809*
X29849*
Y39319*
X31569*
Y40389*
X34469*
Y39319*
X36189*
Y40389*
X39369*
Y33779*
G37*
G36*
X82799Y41229D02*
Y39369D01*
X76799*
X76709Y39459*
Y41319*
X82709*
X82799Y41229*
G37*
G36*
X51729Y49129D02*
X51879Y49059D01*
X52009Y48959*
X52089Y48869*
X52099Y48859*
X52109Y48839*
X52139Y48819*
X52159Y48799*
X52179*
X52189Y48789*
X52219Y48779*
X52249Y48769*
X52269*
X52289*
X53899*
X53909*
X53919*
X53959Y48779*
X53999Y48789*
X54089Y48799*
X54229Y48619*
X54419Y48469*
X54629Y48379*
X54809Y48359*
X55049Y48119*
Y47049*
X54609*
X54409Y47009*
X54249Y46899*
X54139Y46729*
X54129Y46689*
X53909*
Y45389*
X53939Y45359*
Y44619*
X53829Y44579*
X53699Y44549*
X53579Y44469*
X52849Y43749*
X52739Y43769*
X51399*
X51309Y43859*
Y44459*
Y44479*
Y44489*
Y44499*
X51299Y44539*
X51289Y44579*
X51299Y44669*
X51319Y44699*
X51419Y44739*
X51559Y44649*
X51759Y44609*
X52209*
X52419Y44649*
X52589Y44769*
X52709Y44939*
X52749Y45149*
X52729Y45259*
X52769Y45389*
Y46589*
X51369*
X51309Y46689*
Y47789*
Y47799*
Y47819*
X51299Y47849*
X51289Y47889*
X51279Y47899*
X51269Y47919*
X51249Y47939*
X51229Y47969*
X51219Y47979*
X51209Y47989*
X51109Y48059*
X51009Y48199*
X50949Y48349*
X50929Y48509*
X50949Y48679*
X51009Y48829*
X51039Y48869*
X51109Y48959*
X51209Y49039*
X51239Y49059*
X51399Y49129*
X51559Y49149*
X51729Y49129*
G37*
G36*
X36399Y51619D02*
D01*
X37139Y50889*
Y50349*
X37069Y50319*
X36869Y50159*
X36709Y49959*
X36619Y49729*
X36579Y49479*
Y48199*
X36459Y48149*
X35979Y48629*
Y49479*
X35949Y49729*
X35849Y49959*
X35699Y50159*
X35499Y50319*
X35259Y50419*
X35009Y50449*
X34759Y50419*
X34529Y50319*
X34329Y50159*
X34169Y49959*
X34119Y49829*
X33989Y49859*
Y49939*
X33959Y50099*
X33869Y50229*
X33009Y51089*
Y51989*
X33119Y52039*
X33189Y51989*
X33399Y51899*
X33629Y51869*
X33869Y51899*
X34079Y51989*
X34269Y52139*
X34409Y52319*
X34419Y52359*
X35669*
X36399Y51619*
G37*
G36*
X87119Y73909D02*
Y53089D01*
X74679*
Y55029*
X74769Y55119*
X82549*
X82799Y55369*
X84579Y57149*
X85089Y57659*
Y73819*
X85179Y73909*
X87119*
G37*
G36*
X60199Y44849D02*
X60089Y44809D01*
X56289*
X56199Y44899*
Y48919*
Y48959*
X56129Y49019*
X56099*
X55819*
X55739Y49119*
X55759Y49249*
X55729Y49479*
X55639Y49689*
X55499Y49879*
X55309Y50019*
X55099Y50109*
X54859Y50139*
X54629Y50109*
X54419Y50019*
X54229Y49879*
X54089Y49689*
X53999Y49479*
X53969Y49249*
X53989Y49119*
X53899Y49019*
X52289*
X52189Y49149*
X52009Y49289*
X51789Y49379*
X51559Y49409*
X51329Y49379*
X51119Y49289*
X50929Y49149*
X50839Y49019*
X50789Y48959*
X50699Y48749*
X50669Y48509*
X50699Y48279*
X50789Y48069*
X50929Y47879*
X51049Y47789*
Y46449*
X50929Y46339*
X50799Y46359*
X50569Y46329*
X50349Y46239*
X50169Y46099*
X50029Y45909*
X49939Y45699*
X49909Y45469*
X49939Y45229*
X50029Y45019*
X50169Y44829*
X50349Y44689*
X50569Y44599*
X50799Y44569*
X50929Y44589*
X51049Y44479*
Y43429*
Y41639*
X50939Y41589*
X50379Y42149*
X50389Y42269*
X50419Y42289*
X50559Y42479*
X50649Y42689*
X50679Y42929*
X50649Y43159*
X50559Y43369*
X50419Y43559*
X50229Y43699*
X50019Y43789*
X49779Y43819*
X49549Y43789*
X49339Y43699*
X49149Y43559*
X49009Y43369*
X48919Y43159*
X48889Y42929*
X48919Y42689*
X49009Y42479*
X49149Y42289*
X49339Y42149*
X49379Y42129*
X49399Y42029*
X49409Y42009*
X49499Y41879*
X51049Y40319*
Y33019*
Y23369*
Y18649*
X47329*
X22609*
Y22499*
X47239*
Y22609*
X47749*
Y41919*
X48129Y42289*
X48269Y42479*
X48359Y42689*
X48389Y42929*
Y49109*
Y50629*
Y51309*
Y57399*
X56389*
Y61979*
X60199*
Y44849*
G37*
G36*
X31519Y51889D02*
Y50669D01*
X31069Y50229*
X30979Y50099*
Y50069*
X30949Y49939*
Y48079*
X29599Y46729*
X29439Y46739*
X29349Y46859*
X29149Y47019*
X28909Y47109*
X28789Y47129*
X28749Y47259*
X28789Y47309*
X28879Y47439*
X28909Y47599*
Y49449*
X31399Y51939*
X31519Y51889*
G37*
G36*
X60509Y43169D02*
X60649Y43109D01*
Y42859*
X60629*
Y41459*
X60669Y41419*
Y34579*
X60649Y34539*
X56129*
Y43179*
X60499*
X60509Y43169*
G37*
G36*
X86469Y41389D02*
Y20269D01*
X81419*
X81349Y20329*
X78969*
Y20269*
X74019*
Y21819*
X74109Y21909*
X74119*
Y22599*
X74519*
Y22399*
X76159*
X77249*
X77309Y22419*
X77949*
Y22599*
X81899*
X82149Y22849*
X83929Y24629*
X84439Y25139*
Y41299*
X84529Y41389*
X86469*
G37*
G36*
X99819Y29629D02*
Y26159D01*
X99309Y26029*
X97029Y23369*
X89659*
Y29719*
X99729*
X99819Y29629*
G37*
G36*
X113279Y50289D02*
D01*
X119799*
X119889Y50199*
Y46449*
X120899Y45429*
Y36829*
X113279*
Y20319*
Y19809*
Y16759*
X109589Y13069*
X109469Y13119*
Y12949*
X90029*
Y20319*
X109979*
X110489Y20829*
Y50199*
X110579Y50289*
X113279*
G37*
G36*
X109469Y40389D02*
Y30569D01*
Y21929*
X109379Y21839*
X98299*
Y22829*
X98549Y23079*
X100839Y25369*
Y30479*
X89149*
Y40299*
X89239Y40389*
X109469*
G37*
G36*
X57659Y23369D02*
X51909D01*
X51819Y23459*
Y33019*
X55879*
Y33119*
X57659*
Y23369*
G37*
G36*
X73149Y33269D02*
Y30729D01*
Y29969*
X74419*
Y28189*
X71479*
X76199*
Y26959*
X76109Y26869*
X75189*
X74519Y26199*
X73909Y25589*
Y22739*
X73879Y22689*
X73859Y22599*
Y22019*
X73839Y21999*
X73789Y21919*
X73769Y21819*
Y20269*
X73789Y20169*
X73839Y20089*
X73909Y20039*
Y19849*
X73819Y19759*
X73659*
Y19429*
X78969*
Y18659*
X81349*
Y19429*
X86989*
X87379Y19049*
Y17529*
Y13209*
X61809*
X61719Y13299*
Y17529*
Y20829*
X71479*
Y28189*
X71369*
Y30989*
X69599*
Y33439*
X69689Y33529*
X72899*
X73149Y33269*
G37*
G36*
X82549Y28099D02*
X82459Y28009D01*
X81209*
X77979Y31239*
Y38259*
X78069Y38349*
X82549*
Y28099*
G37*
G36*
X68429Y29479D02*
X69509Y28399D01*
Y28039*
X70079*
X70139Y28019*
X70209*
X70269Y28039*
X70609*
Y25019*
X70519Y24929*
X70429*
X70369Y24969*
X70129Y25019*
X68949*
X68939*
Y25509*
X68259*
X68169Y25599*
Y27389*
X67929Y27629*
X67559Y27799*
Y29729*
X67669Y29799*
X68429Y29479*
G37*
G36*
X76199Y41259D02*
Y32509D01*
X80959Y27749*
X81089Y27089*
X80899Y26619*
X79049*
X79039Y26709*
X78959Y26829*
X78899Y26909*
X77909Y27899*
Y28329*
X77289*
Y28369*
X77209Y28449*
X76199*
X76069*
X74679*
Y29969*
X74659Y30069*
X74599Y30149*
X74519Y30209*
X74419Y30229*
X73409*
Y30729*
Y33269*
X73389Y33369*
X73369Y33399*
X73329Y33449*
X73079Y33709*
X72999Y33759*
X72899Y33779*
X69689*
X69589Y33759*
X69509Y33709*
X69419Y33619*
X69359Y33539*
X69339Y33439*
Y32319*
X69209Y32309*
X69179Y32559*
X69069Y32829*
X68879Y33069*
X68649Y33249*
X68369Y33369*
X68069Y33409*
X67769Y33369*
X67499Y33249*
X67259Y33069*
X67079Y32829*
X66959Y32559*
X66919Y32259*
X66959Y31959*
X67079Y31679*
X67229Y31479*
Y30929*
X67279Y30699*
X67409Y30499*
X67709Y30199*
Y30169*
X67669Y30049*
X67639*
X67619*
X67599Y30039*
X67569Y30029*
X67549Y30019*
X67529Y30009*
X67419Y29939*
X67399Y29919*
X67379Y29909*
X67369Y29889*
X67349Y29869*
X67339Y29849*
X67329Y29819*
X67319Y29799*
X67309Y29779*
Y29749*
Y29729*
Y27799*
X67319Y27749*
X67329Y27699*
X67349Y27659*
X67379Y27619*
X67419Y27589*
X67459Y27559*
X67779Y27419*
X67919Y27279*
Y25599*
X67839Y25509*
X67639*
X67539*
X67519*
X67159*
X67089Y25539*
X66889Y25559*
X66109*
X65979Y25669*
X65759Y25749*
X65529Y25779*
X65299Y25749*
X65089Y25669*
X64899Y25519*
X64759Y25339*
X64669Y25119*
X64639Y24889*
X64669Y24659*
X64759Y24449*
X64899Y24259*
X65089Y24119*
X65299Y24029*
X65529Y23999*
X65759Y24029*
X65809Y24049*
X66889*
X67089Y24079*
X67159Y24109*
X67519*
X67539*
X67639*
X68129*
X68259Y23979*
X68459Y23839*
X68689Y23799*
X69309*
Y23669*
X70609*
Y22609*
X70399*
X70369Y22619*
X70129Y22649*
X69899Y22619*
X69869Y22609*
X59689*
Y28449*
Y32509*
X62739*
Y40979*
X63009Y41259*
X63079Y41349*
X76109*
X76199Y41259*
G37*
G36*
X83059Y63249D02*
X78489D01*
Y70869*
X83059*
Y63249*
G37*
G36*
X31689Y69579D02*
Y68569D01*
X32209Y68049*
X32319*
Y67919*
X32339Y67789*
X32349Y67759*
X32439Y67629*
X34259Y65809*
Y65679*
X34219Y65649*
X34099Y65469*
X34059Y65269*
X34099Y65059*
X34219Y64889*
X34389Y64769*
X34599Y64729*
X34629Y64699*
X34669Y64499*
X34779Y64319*
X34959Y64209*
X35159Y64169*
X35189Y64139*
X35229Y63929*
X35349Y63759*
X35519Y63639*
X35729Y63599*
X35759Y63569*
X35799Y63359*
X35919Y63189*
X36089Y63079*
X36289Y63029*
X36319Y62999*
X36369Y62799*
X36479Y62629*
X36649Y62509*
X36859Y62469*
X36889Y62439*
X36929Y62229*
X36979Y62159*
X37049Y62059*
X36969Y61969*
X35539Y60539*
X35499Y60549*
X35269Y60579*
X35029Y60549*
X34819Y60459*
X34629Y60319*
X34489Y60139*
X34419Y59969*
X34299Y59989*
Y60369*
X34259Y60529*
X34239Y60569*
X34179Y60659*
X33569Y61269*
X33439Y61359*
X33409*
X33279Y61389*
X32419*
X32289Y61359*
X32269*
X32139Y61269*
X31469Y60609*
X31349Y60669*
X31359Y60709*
X31329Y60939*
X31239Y61159*
X31099Y61339*
X30909Y61489*
X30699Y61569*
X30599Y61589*
X30579Y61599*
X30509Y61729*
X30539Y61869*
X30499Y62079*
X30379Y62249*
X29599Y63029*
X29429Y63149*
X29319Y63169*
X29139Y63339*
X29349Y63549*
X28499Y64399*
X27509Y63409*
X27559Y63359*
Y63229*
X27149Y62819*
X27119Y62839*
X26879Y62869*
X26649Y62839*
X26509Y62779*
X26439Y62889*
X27239Y63679*
X27299Y63619*
X28289Y64609*
X27439Y65459*
X27309Y65319*
X27139Y65489*
Y66339*
X28619Y67819*
X29419*
Y67599*
X29459Y67399*
X29569Y67239*
X31279Y65529*
X31249Y65379*
X31109Y65289*
X31079Y65259*
X30959Y65239*
X30209Y65989*
X29219Y64999*
X30139Y64079*
X30289Y64239*
X30419Y64179*
X30429Y64139*
X30539Y63969*
X31319Y63189*
X31489Y63079*
X31699Y63029*
X31899Y63079*
X32079Y63189*
X32189Y63359*
X32209Y63439*
X32339Y63479*
X33129Y62689*
X33099Y62479*
X33129Y62249*
X33219Y62039*
X33359Y61849*
X33549Y61709*
X33759Y61619*
X33999Y61589*
X34229Y61619*
X34439Y61709*
X34629Y61849*
X34769Y62039*
X34859Y62249*
X34889Y62479*
X34859Y62719*
X34769Y62929*
X34629Y63119*
X34439Y63259*
X34229Y63349*
X33999Y63379*
X33759Y63349*
X33669Y63309*
X32919Y64049*
X32959Y64189*
X33029Y64209*
X33209Y64319*
X33319Y64499*
X33359Y64699*
X33389Y64729*
X33599Y64769*
X33769Y64889*
X33889Y65059*
X33929Y65269*
X33889Y65469*
X33769Y65649*
X32999Y66419*
X32819Y66539*
X32669Y66569*
X31359Y67879*
Y69429*
X31579Y69649*
X31689Y69579*
G37*
G36*
X76709Y73819D02*
Y64769D01*
Y63499*
X81029Y60449*
Y59689*
X79049*
X78939Y59839*
X78159Y60629*
X77959Y60759*
X77799Y60789*
Y60899*
X76959*
Y60959*
X76139*
X76129Y60969*
X76039Y61029*
X75949Y61049*
X74419*
Y62389*
X74399Y62489*
X74349Y62569*
X74259Y62659*
X74179Y62719*
X74079Y62739*
X72479*
X72389Y62829*
Y66289*
X72369Y66389*
X72319Y66469*
X72229Y66529*
X72139Y66549*
X69429*
X69329Y66529*
X69249Y66469*
X69159Y66379*
X69109Y66299*
X69089Y66199*
Y65079*
X68959*
X68929Y65319*
X68809Y65599*
X68629Y65839*
X68389Y66019*
X68119Y66129*
X67819Y66169*
X67519Y66129*
X67239Y66019*
X67009Y65839*
X66819Y65599*
X66709Y65319*
X66669Y65019*
X66709Y64729*
X66819Y64449*
X67009Y64209*
X67229Y64039*
Y63719*
X67279Y63479*
X67409Y63289*
X67549Y63149*
X67479Y63039*
X66999Y63239*
X66969Y63249*
X66949Y63259*
X66919*
X66899*
X66869*
X66849*
X66829Y63249*
X66799Y63239*
X66779Y63229*
X66759Y63219*
X66649Y63149*
X66629Y63129*
X66609Y63119*
X66599Y63089*
X66579Y63079*
X66569Y63049*
X66559Y63029*
X66549Y63009*
X66539Y62989*
Y62959*
Y62939*
Y58499*
X66449Y58409*
X65999*
X65979Y58429*
X65759Y58519*
X65529Y58549*
X65299Y58519*
X65089Y58429*
X64899Y58289*
X64759Y58099*
X64669Y57889*
X64639Y57659*
X64669Y57429*
X64759Y57209*
X64899Y57029*
X65089Y56879*
X65299Y56799*
X65529Y56769*
X65759Y56799*
X65979Y56879*
X65999Y56899*
X66609*
X66809Y56929*
X66879Y56959*
X67229*
X67259*
X67359*
X68609*
X68849Y56719*
X68949Y56649*
X69049Y56579*
X69159Y56559*
X69279Y56539*
Y56519*
X70519*
X70609Y56429*
Y55489*
X70479Y55409*
X70339Y55469*
X70099Y55499*
X69869Y55469*
X69659Y55379*
X69639Y55369*
X61559*
X61469Y55459*
Y73909*
X76619*
X76709Y73819*
G37*
G36*
X28239Y62589D02*
X28249Y62579D01*
X28279Y62459*
X28159Y62289*
X28119Y62079*
X28159Y61879*
X28279Y61709*
X28529Y61459*
X28469Y61339*
X28409*
X28179Y61309*
X27959Y61229*
X27779Y61079*
X27629Y60899*
X27549Y60679*
X27519Y60449*
X27549Y60219*
X27629Y60009*
X27779Y59819*
X27959Y59679*
X28079Y59629*
X28159Y59529*
X28119Y59329*
X28159Y59119*
X28279Y58949*
X28449Y58829*
X28659Y58789*
X28689Y58759*
X28729Y58559*
X28789Y58469*
X28719Y58339*
X26459*
Y58609*
X25259*
Y57209*
X25459*
Y53959*
X25489Y53829*
Y53799*
X25579Y53669*
X26979Y52269*
Y50349*
X26909Y50319*
X26709Y50159*
X26549Y49959*
X26459Y49729*
X26419Y49479*
Y48059*
X26459Y47809*
X26549Y47569*
X26709Y47369*
X26909Y47219*
X27139Y47119*
X27259Y47109*
X27299Y46969*
X27059Y46729*
X26899Y46749*
X26809Y46859*
X26609Y47019*
X26369Y47109*
X26119Y47149*
X25869Y47109*
X25639Y47019*
X25439Y46859*
X25279Y46659*
X25189Y46429*
X25149Y46179*
Y44749*
X25189Y44499*
X25279Y44269*
X25439Y44069*
X25639Y43919*
X25869Y43819*
X26119Y43789*
X26369Y43819*
X26609Y43919*
X26809Y44069*
X26959Y44269*
X27059Y44499*
X27089Y44749*
Y45609*
X27569Y46079*
X27689Y46029*
Y44749*
X27729Y44499*
X27819Y44269*
X27979Y44069*
X28179Y43919*
X28409Y43819*
X28659Y43789*
X28909Y43819*
X29149Y43919*
X29349Y44069*
X29499Y44269*
X29599Y44499*
X29629Y44749*
Y45599*
X30109Y46079*
X30229Y46029*
Y44749*
X30269Y44499*
X30359Y44269*
X30519Y44069*
X30719Y43919*
X30949Y43819*
X31199Y43789*
X31449Y43819*
X31689Y43919*
X31889Y44069*
X32039Y44269*
X32139Y44499*
X32169Y44749*
Y45609*
X32649Y46079*
X32769Y46029*
Y44749*
X32809Y44499*
X32899Y44269*
X33059Y44069*
X33259Y43919*
X33489Y43819*
X33739Y43789*
X33989Y43819*
X34229Y43919*
X34429Y44069*
X34579Y44269*
X34679Y44499*
X34709Y44749*
Y46179*
X34679Y46429*
X34579Y46659*
X34429Y46859*
X34229Y47019*
X33989Y47109*
X33869Y47129*
X33829Y47259*
X33869Y47309*
X33959Y47439*
X33989Y47599*
Y47679*
X34119Y47699*
X34169Y47569*
X34329Y47369*
X34529Y47219*
X34759Y47119*
X35009Y47089*
X35259Y47119*
X35499Y47219*
X35699Y47369*
X35789Y47489*
X35949Y47499*
X36189Y47259*
X36149Y47129*
X36029Y47109*
X35799Y47019*
X35599Y46859*
X35439Y46659*
X35349Y46429*
X35309Y46179*
Y44749*
X35349Y44499*
X35439Y44269*
X35599Y44069*
X35799Y43919*
X36029Y43819*
X36279Y43789*
X36529Y43819*
X36769Y43919*
X36959Y44069*
X40389Y40639*
X39749Y39999*
Y39989*
X39619Y40029*
Y40389*
X39609Y40479*
X39549Y40569*
X39469Y40619*
X39369Y40639*
X36189*
X36089Y40619*
X36009Y40569*
X35959Y40479*
X35939Y40389*
Y39579*
X34729*
Y40389*
X34709Y40479*
X34649Y40569*
X34569Y40619*
X34469Y40639*
X33879*
Y42059*
X33529*
Y42189*
X33489Y42379*
X33379Y42549*
X33219Y42699*
Y43629*
X31919*
Y43439*
X25319*
X24089Y44659*
Y47269*
X24219Y47329*
X24369Y47219*
X24599Y47119*
X24849Y47089*
X25099Y47119*
X25339Y47219*
X25539Y47369*
X25689Y47569*
X25789Y47809*
X25819Y48059*
Y49479*
X25789Y49729*
X25689Y49959*
X25539Y50159*
X25339Y50319*
X25099Y50419*
X24849Y50449*
X24599Y50419*
X24369Y50319*
X24219Y50199*
X24089Y50269*
Y55919*
X24209Y56009*
X24359Y56199*
X24439Y56409*
X24469Y56639*
X24439Y56869*
X24359Y57089*
X24349Y57099*
X24399Y57209*
X24959*
Y58609*
X24089*
Y60539*
X25969Y62419*
X26079Y62349*
X26019Y62209*
X25989Y61979*
X26019Y61739*
X26109Y61529*
X26249Y61339*
X26439Y61199*
X26649Y61109*
X26879Y61079*
X27119Y61109*
X27329Y61199*
X27519Y61339*
X27659Y61529*
X27749Y61739*
X27779Y61979*
X27749Y62209*
X27729Y62249*
X28069Y62589*
X28239*
G37*
G36*
X60199Y73819D02*
Y65529D01*
X58889*
X56389*
Y73909*
X60109*
X60199Y73819*
G37*
G36*
X83569Y71119D02*
X83059D01*
X78489*
X78479*
X77309*
X77219Y71209*
Y73909*
X83569*
Y71119*
G37*
G36*
X34899Y73659D02*
X34909Y73529D01*
X34889*
X34749Y73439*
X33789Y72479*
X33719Y72369*
X33609Y72339*
X33569*
X33239Y72669*
X32209*
X31689Y72149*
Y72139*
X31459*
X31259Y72099*
X31099Y71989*
X29569Y70459*
X29459Y70299*
X29419Y70099*
Y68839*
X28739*
Y69279*
X28509*
Y70929*
X26789*
Y70519*
X26729Y70479*
X26229Y69979*
X26109Y69799*
X26059Y69569*
Y69279*
X26039*
Y67879*
X27079*
X27119Y67759*
X26269Y66909*
X26159Y66739*
X26119Y66549*
Y65279*
X26159Y65079*
X26269Y64919*
X26579Y64599*
X26449Y64469*
X26509Y64399*
X23219Y61109*
X23109Y60949*
X23069Y60749*
Y57909*
Y57369*
X22949Y57269*
X22809Y57089*
X22719Y56869*
X22689Y56639*
X22719Y56409*
X22809Y56199*
X22949Y56009*
X23069Y55919*
Y44449*
X23109Y44249*
X23219Y44089*
X24749Y42569*
X24909Y42459*
X25109Y42419*
X31919*
Y42229*
X32189*
X32219Y42189*
X32159Y42059*
Y40639*
X31639*
X31589Y40699*
X31569Y40869*
Y42059*
X29849*
Y41589*
X25719*
Y41709*
X23039*
Y39689*
X24889*
X25519Y39059*
Y34219*
X25549Y33989*
X25639Y33779*
X25779Y33589*
X29389Y29989*
Y28329*
X31439*
Y32129*
X29769*
X28999Y32899*
X29049Y33019*
X39369*
X39469Y33039*
X39549Y33089*
X39609Y33179*
X39619Y33269*
Y33779*
Y37389*
X42019*
Y39319*
X41759*
X41709Y39429*
X42279Y39999*
X45469*
X45699Y40029*
X45909Y40119*
X46099Y40259*
X46359Y40529*
X46479Y40479*
Y26159*
X46349Y26069*
X46279Y26099*
X42799Y29589*
X42609Y29729*
X42399Y29819*
X42159Y29849*
X41099*
X40499Y30449*
Y31949*
X36969*
Y31879*
X35639*
Y32129*
X33589*
Y28329*
X35639*
Y29989*
X35739Y30099*
X36969*
Y30029*
X38389*
X40099Y28319*
X40279Y28179*
X40499Y28089*
X40729Y28059*
X41789*
X45019Y24839*
X45099Y24639*
X45259Y24429*
X45469Y24269*
X45709Y24169*
X45969Y24139*
X46239Y24169*
X46349Y24219*
X46479Y24139*
Y23369*
X22439*
X22349Y23459*
Y72289*
X22479Y72309*
X22509Y72229*
X22669Y71919*
X22889Y71649*
X23149Y71439*
X23459Y71269*
X23789Y71169*
X24129Y71139*
X24469Y71169*
X24799Y71269*
X25109Y71439*
X25369Y71649*
X25589Y71919*
X25749Y72229*
X25849Y72549*
X25889Y72899*
X25849Y73239*
X25769Y73529*
X25829Y73659*
X34899*
G37*
G36*
X34229Y69549D02*
Y68569D01*
X34749Y68049*
X35779*
X35929Y68189*
X36049Y68149*
Y66379*
X35949Y66299*
X35829Y66319*
X35749Y66419*
X35579Y66539*
X35369Y66579*
X35169Y66539*
X34999Y66419*
X34959Y66389*
X34829*
X33219Y67999*
X33239Y68049*
X33759Y68569*
Y69609*
X33619Y69749*
X33669Y69869*
X33909*
X34229Y69549*
G37*
G36*
X55369Y73659D02*
Y64249D01*
X55249Y64199*
X55099Y64359*
X55069Y64379*
Y64839*
X54019*
Y63339*
X55029*
X55369Y62999*
Y62519*
X54989Y62139*
X54019*
Y60639*
X55069*
Y61129*
X55249Y61319*
X55369Y61269*
Y58669*
X53429*
X53349Y58869*
X53209Y59049*
X53119Y59119*
X53169Y59239*
Y60639*
X53149*
Y61029*
X53179Y61159*
Y61609*
X53139Y61819*
X53019Y61989*
X52849Y62109*
X52639Y62149*
X52439Y62109*
X52269Y61989*
X52149Y61819*
X52109Y61609*
Y61159*
X52129Y61029*
Y60639*
X51969*
Y59239*
X51989*
X52029Y59119*
X51949Y59049*
X51799Y58869*
X51719Y58659*
X48479Y58649*
X48389Y58739*
Y61609*
X50489Y63709*
X50609Y63659*
Y63549*
X52009*
X52119Y63509*
Y63339*
X53169*
Y64839*
X52119*
X52009Y64849*
X51999*
X51819*
Y65029*
X51939Y65149*
X52079Y65339*
X52139Y65489*
X52169Y65549*
X52199Y65789*
X52169Y66019*
X52079Y66229*
X51939Y66419*
X51749Y66559*
X51539Y66649*
X51309Y66679*
X51079Y66649*
X51009Y66619*
X50859Y66559*
X50679Y66419*
X46869Y62609*
X46719Y62419*
X46639Y62209*
X46609Y61979*
Y51309*
Y43299*
X45099Y41789*
X41909*
X41679Y41759*
X41459Y41669*
X41279Y41529*
X41159Y41399*
X41069*
X37249Y45219*
Y46179*
X37219Y46409*
X37239Y46459*
X37289Y46539*
X38009*
X38139Y46559*
X38169Y46569*
X38299Y46659*
X38519Y46879*
X39109*
X39339Y46659*
X39469Y46569*
X39629Y46539*
X40359*
X40409Y46459*
X40419Y46409*
X40389Y46179*
Y44749*
X40429Y44499*
X40519Y44269*
X40679Y44069*
X40879Y43919*
X41109Y43819*
X41359Y43789*
X41609Y43819*
X41849Y43919*
X42049Y44069*
X42199Y44269*
X42299Y44499*
X42329Y44749*
Y46179*
X42299Y46409*
X42319Y46459*
X42369Y46539*
X42899*
X42949Y46459*
X42959Y46409*
X42929Y46179*
Y44749*
X42969Y44499*
X43059Y44269*
X43219Y44069*
X43419Y43919*
X43649Y43819*
X43899Y43789*
X44149Y43819*
X44389Y43919*
X44589Y44069*
X44739Y44269*
X44839Y44499*
X44869Y44749*
Y46179*
X44839Y46429*
X44739Y46659*
X44649Y46789*
X44729Y46889*
X44959Y46859*
X45189Y46889*
X45399Y46979*
X45589Y47119*
X45729Y47309*
X45819Y47519*
X45849Y47749*
X45819Y47979*
X45729Y48199*
X45589Y48379*
X45399Y48529*
X45189Y48609*
X44959Y48639*
X44729Y48609*
X44509Y48529*
X44329Y48379*
X44179Y48199*
X44169Y48159*
X43899*
X43739Y48129*
X43729Y48119*
X43639Y48149*
X43599Y48189*
Y49479*
X43569Y49729*
X43469Y49959*
X43319Y50159*
X43119Y50319*
X42879Y50419*
X42629Y50449*
X42379Y50419*
X42149Y50319*
X41949Y50159*
X41789Y49959*
X41699Y49729*
X41659Y49479*
Y48059*
X41689Y47819*
X41679Y47769*
X41629Y47699*
X41099*
X41049Y47769*
X41029Y47819*
X41059Y48059*
Y49479*
X41029Y49729*
X40929Y49959*
X40779Y50159*
X40579Y50319*
X40339Y50419*
X40089Y50449*
X39839Y50419*
X39609Y50319*
X39409Y50159*
X39249Y49959*
X39159Y49729*
X39119Y49479*
Y48059*
X39149Y47819*
X39139Y47769*
X39089Y47699*
X38559*
X38509Y47769*
X38489Y47819*
X38519Y48059*
Y49479*
X38489Y49729*
X38389Y49959*
X38239Y50159*
X38039Y50319*
X37959Y50349*
Y51049*
X37929Y51179*
Y51209*
X37839Y51339*
X36979Y52199*
X36129Y53049*
X35999Y53139*
X35969Y53149*
X35839Y53169*
X34419*
X34409Y53209*
X34269Y53399*
X34079Y53539*
X33869Y53629*
X33629Y53659*
X33509Y53639*
X33409Y53729*
Y55409*
X33769Y55769*
X33889Y55939*
X33929Y56149*
X33889Y56349*
X33769Y56519*
X33599Y56639*
X33389Y56679*
X33359Y56709*
X33319Y56919*
X33209Y57089*
X33029Y57209*
X32919Y57229*
X32819Y57269*
X32779Y57369*
X32759Y57479*
X32639Y57659*
X32469Y57769*
X32259Y57809*
X32219Y57929*
X32209Y57959*
X32989Y58729*
X33069Y58699*
X33099Y58669*
X33129Y58439*
X33219Y58229*
X33359Y58039*
X33549Y57899*
X33759Y57809*
X33999Y57779*
X34229Y57809*
X34439Y57899*
X34629Y58039*
X34769Y58229*
X34859Y58439*
X34889Y58669*
X34879Y58769*
X34979Y58849*
X35029Y58829*
X35269Y58799*
X35499Y58829*
X35709Y58919*
X35899Y59059*
X36039Y59239*
X36129Y59459*
X36159Y59689*
X36129Y59919*
X36109Y59959*
X37509Y61359*
X37709*
X37799Y61369*
X37989Y61339*
X38019Y61309*
X38059Y61099*
X38179Y60929*
X38349Y60809*
X38559Y60769*
X38759Y60809*
X38939Y60929*
X39709Y61709*
X39829Y61879*
X39869Y62079*
X39829Y62289*
X39709Y62459*
X39539Y62579*
X39329Y62619*
X39299Y62649*
X39259Y62859*
X39149Y63029*
X38969Y63149*
X38769Y63189*
X38719Y63309*
X38699Y63399*
X38719Y63499*
Y64409*
X38799Y64419*
X39009Y64499*
X39199Y64649*
X39339Y64829*
X39429Y65049*
X39459Y65279*
X39429Y65509*
X39339Y65719*
X39199Y65909*
X39009Y66049*
X38799Y66139*
X38569Y66169*
X38339Y66139*
X38119Y66049*
X37939Y65909*
X37789Y65719*
X37709Y65509*
X37679Y65279*
X37709Y65049*
X37789Y64829*
X37899Y64689*
Y64379*
X37779Y64289*
X37639Y64319*
X37609Y64349*
X37569Y64549*
X37449Y64729*
X37279Y64839*
X37069Y64879*
X37039Y64909*
X36999Y65119*
X36879Y65289*
X36709Y65409*
X36509Y65449*
X36459Y65569*
X36449Y65589*
X36739Y65879*
X36799Y65969*
X36829Y66009*
X36859Y66169*
Y68309*
X36979Y68359*
X37289Y68049*
X38319*
X38719Y68449*
X39979*
Y68319*
X40009Y68189*
X40089Y68069*
X40199Y67989*
X40339Y67969*
X40769*
X42249Y66489*
Y63559*
X40769Y62079*
X40339*
X40199Y62049*
X40089Y61979*
X40009Y61859*
X39979Y61729*
Y60369*
X40009Y60239*
X40089Y60119*
X40199Y60039*
X40339Y60019*
X41439*
X41579Y60039*
X41689Y60119*
X41769Y60239*
X41799Y60369*
Y61309*
X43339Y62849*
X43469Y63059*
X43519Y63299*
Y66749*
X43469Y66989*
X43339Y67199*
X41799Y68739*
Y69679*
X41769Y69809*
X41689Y69929*
X41579Y69999*
X41439Y70029*
X40339*
X40199Y69999*
X40089Y69929*
X40009Y69809*
X39989Y69729*
X38719*
X38319Y70129*
X37289*
X36979Y69819*
X36859Y69869*
Y70439*
X36829Y70599*
X36799Y70639*
X36739Y70729*
X36299Y71169*
Y72149*
X35829Y72619*
X35889Y72739*
X37899*
X39759Y70889*
Y70169*
X40959*
Y71569*
X40229*
X38359Y73439*
X38229Y73529*
X38199*
X38219Y73659*
X55369*
G37*
G36*
X126489Y59439D02*
X128519D01*
Y55369*
X127759Y54609*
X125479*
X124709Y55369*
X122679*
Y58929*
X121449Y60159*
X120719*
X120649Y60229*
Y61179*
X124679*
X124709Y61209*
X126489Y59439*
G37*
G36*
X97789Y73659D02*
Y55969D01*
X97699Y55879*
X91439*
X90679Y56639*
Y73569*
X90769Y73659*
X97789*
G37*
G36*
X30279Y55489D02*
X30849Y56059D01*
X30969Y56009*
Y52659*
X28339Y50029*
X28169Y50039*
X28079Y50159*
X27879Y50319*
X27799Y50349*
Y52429*
X27769Y52589*
X27679Y52719*
X26279Y54129*
Y54409*
X26389Y54459*
X26929Y53919*
X26999Y53989*
X27149Y53889*
X27339Y53849*
X28149*
X28349Y53889*
X28509Y53999*
X29079Y54559*
X29219Y54429*
X30069Y55279*
X29319Y56019*
X29339Y56189*
X29439Y56269*
X29499*
X30279Y55489*
G37*
G36*
X72139Y66289D02*
Y62479D01*
X74079*
X74169Y62389*
Y60789*
X75949*
Y59689*
X74829*
X73909Y58779*
Y51559*
X78919*
X79009Y51469*
Y51379*
X81389*
Y51559*
X87029*
X87119Y51469*
Y43429*
X69219*
X69169Y43549*
X70719Y45099*
X70799Y45209*
X70829Y45269*
X70869Y45469*
Y49199*
X71059*
Y49489*
Y50399*
X69659*
Y49199*
X69839*
Y45679*
X67599Y43429*
X61889*
X61799Y43519*
Y43669*
X61819Y43709*
X61849Y43939*
X61819Y44169*
X61729Y44389*
X61589Y44569*
X61469Y44669*
Y51559*
Y53799*
X66339*
X71539*
X71629Y53709*
Y60709*
X71119*
Y60749*
Y60759*
Y63749*
X69339*
Y66199*
X69429Y66289*
X72139*
G37*
G36*
X119629Y73569D02*
Y54099D01*
X98389*
X98299Y54189*
Y73659*
X119539*
X119629Y73569*
G37*
G36*
X68249Y62449D02*
X69399Y61289D01*
Y60859*
X70039*
X70099Y60839*
X70159Y60859*
X70799*
X70869Y60749*
Y57999*
X70779Y57909*
X69389*
X69209Y58089*
X69139Y58139*
X69009Y58219*
X68909Y58239*
X68779Y58269*
X68659Y58279*
Y58359*
X67359*
X67259*
X67229*
X66879*
X66809Y58389*
X66789*
Y62939*
X66899Y63009*
X68249Y62449*
G37*
%LNlv1-2*%
%LPC*%
G36*
X64009Y61599D02*
X63779Y61569D01*
X63559Y61479*
X63379Y61339*
X63229Y61149*
X63149Y60939*
X63119Y60709*
X63149Y60469*
X63229Y60259*
X63379Y60069*
X63559Y59929*
X63779Y59839*
X64009Y59809*
X64239Y59839*
X64449Y59929*
X64629Y60069*
X65279*
X65289*
X65989*
Y61369*
X64589*
X64499Y61439*
X64449Y61479*
X64239Y61569*
X64009Y61599*
G37*
G36*
X43969Y71729D02*
X42249D01*
Y71569*
X41259*
Y70169*
X42249*
Y70009*
X43969*
Y71729*
G37*
G36*
X81349Y17849D02*
X78969D01*
Y16179*
X81349*
Y17849*
G37*
G36*
X35159Y57249D02*
X34959Y57209D01*
X34779Y57089*
X34669Y56919*
X34629Y56709*
X34599Y56679*
X34389Y56639*
X34219Y56519*
X34099Y56349*
X34059Y56149*
X34099Y55939*
X34219Y55769*
X34579Y55409*
Y55219*
X34529*
X34309Y55129*
X34129Y54989*
X33979Y54799*
X33899Y54589*
X33869Y54359*
X33899Y54119*
X33979Y53909*
X34129Y53719*
X34309Y53579*
X34529Y53489*
X34759Y53459*
X34989Y53489*
X35199Y53579*
X35389Y53719*
X35529Y53909*
X35619Y54119*
X35649Y54359*
X35619Y54589*
X35559Y54739*
X35579Y54849*
X35619Y54899*
X35749Y54989*
X35869Y55159*
X35909Y55369*
X35939Y55399*
X36149Y55439*
X36319Y55549*
X36439Y55729*
X36479Y55929*
X36439Y56139*
X36319Y56309*
X35539Y57089*
X35369Y57209*
X35159Y57249*
G37*
G36*
X64009Y63629D02*
X63779Y63599D01*
X63559Y63509*
X63379Y63369*
X63229Y63179*
X63149Y62969*
X63119Y62739*
X63149Y62509*
X63229Y62289*
X63379Y62109*
X63559Y61959*
X63779Y61879*
X64009Y61849*
X64239Y61879*
X64449Y61959*
X64459Y61969*
X65289*
X65489Y61989*
X65669Y62069*
X65679*
X65989*
Y62449*
X66019Y62529*
X66049Y62719*
X66019Y62919*
X65989Y62989*
Y63369*
X65679*
X65669Y63379*
X65489Y63449*
X65289Y63479*
X64499*
X64449Y63509*
X64239Y63599*
X64009Y63629*
G37*
G36*
X64259Y28829D02*
X64029Y28799D01*
X63819Y28709*
X63629Y28569*
X63489Y28389*
X63399Y28169*
X63369Y27939*
X63399Y27709*
X63489Y27489*
X63629Y27309*
X63819Y27169*
X64029Y27079*
X64259Y27049*
X64489Y27079*
X64709Y27169*
X64889Y27299*
X66039*
X66059Y27309*
X66759*
Y28609*
X65359*
Y28579*
X64889*
X64709Y28709*
X64489Y28799*
X64259Y28829*
G37*
G36*
Y30859D02*
X64029Y30829D01*
X63819Y30749*
X63629Y30599*
X63489Y30419*
X63399Y30199*
X63369Y29969*
X63399Y29739*
X63489Y29529*
X63629Y29339*
X63819Y29199*
X64029Y29109*
X64259Y29079*
X64489Y29109*
X64709Y29199*
X66059*
X66249Y29229*
X66429Y29299*
X66439Y29309*
X66759*
Y29689*
X66789Y29759*
X66809Y29959*
X66789Y30149*
X66759Y30229*
Y30609*
X66439*
X66429*
X66249Y30689*
X66059Y30709*
X64749*
X64709Y30749*
X64489Y30829*
X64259Y30859*
G37*
G36*
X81389Y50559D02*
X79009D01*
Y48899*
X81389*
Y50559*
G37*
G36*
X38559Y60639D02*
X38349Y60599D01*
X38179Y60479*
X38059Y60309*
X38019Y60099*
X37989Y60069*
X37789Y60029*
X37609Y59919*
X37499Y59739*
X37459Y59539*
X37429Y59509*
X37219Y59469*
X37049Y59349*
X36929Y59179*
X36889Y58969*
X36929Y58769*
X37049Y58599*
X37819Y57819*
X37929Y57739*
X38309Y57369*
Y56849*
X38159Y56699*
X37519Y57329*
X37449Y57439*
X36669Y58219*
X36499Y58339*
X36289Y58379*
X36089Y58339*
X35919Y58219*
X35799Y58049*
X35759Y57839*
X35799Y57639*
X35919Y57459*
X36689Y56689*
X36799Y56609*
X37239Y56179*
Y56049*
X37089Y55899*
X37629Y55369*
X37689Y55279*
X42019Y50949*
X42179Y50839*
X42379Y50799*
X44209*
X44309Y50679*
X44489Y50529*
X44709Y50449*
X44939Y50419*
X45169Y50449*
X45379Y50529*
X45569Y50679*
X45709Y50859*
X45799Y51079*
X45829Y51309*
X45799Y51539*
X45709Y51749*
X45569Y51939*
X45379Y52079*
X45169Y52169*
X44939Y52199*
X44709Y52169*
X44489Y52079*
X44309Y51939*
X44209Y51819*
X42589*
X39639Y54759*
X39689Y54879*
X40439*
Y57389*
X40449Y57469*
Y57509*
Y58319*
X40569Y58369*
X40749Y58189*
Y57469*
X41149*
X41249Y57389*
Y54879*
X42459*
Y57389*
X42259*
Y57659*
X42229Y57819*
X42139Y57949*
X41949Y58139*
Y58869*
X41229*
X40619Y59469*
X40489Y59559*
X40459*
X40329Y59589*
X39789*
X39709Y59709*
X38939Y60479*
X38759Y60599*
X38559Y60639*
G37*
%LNlv1-3*%
%LPD*%
G54D10*
X118709Y57149D03*
X123609D03*
X118959Y48509D03*
X123859D03*
G54D11*
X33019Y34469D03*
G54D12*
X30709Y40689D03*
X33019D03*
X35329D03*
G54D13*
X76209Y72139D03*
X77709D03*
X77199Y40389D03*
X75699D03*
G54D14*
X79919Y64259D03*
X75519D03*
X79019Y32199D03*
X74619D03*
G54D15*
X96559Y59649D03*
Y57169D03*
Y54689D03*
Y52209D03*
Y49729D03*
X80199Y59649D03*
Y57169D03*
Y54689D03*
Y52209D03*
Y49729D03*
X80159Y17019D03*
Y19499D03*
Y21979D03*
Y24459D03*
Y26939D03*
X96519Y17019D03*
Y19499D03*
Y21979D03*
Y24459D03*
Y26939D03*
G54D16*
X39839Y56129D03*
X40849D03*
X41849D03*
G54D17*
X59619Y36579D03*
X63819D03*
X59369Y70099D03*
X63569D03*
X30409Y30229D03*
X34609D03*
G54D18*
X62479Y52009D03*
Y55689D03*
X24379Y37019D03*
Y40699D03*
G54D19*
X85549Y36319D03*
X79049D03*
X86049Y68579D03*
X79549D03*
G54D20*
X58169Y60539D03*
Y64939D03*
Y46139D03*
Y41739D03*
G54D21*
X43109Y70869D03*
X45219D03*
G54D22*
X34989Y55759D03*
X35549Y56319D03*
X36119Y56889D03*
X36679Y57449D03*
X37249Y58019D03*
X37809Y58579D03*
X38379Y59149D03*
X38949Y59719D03*
X33009Y65659D03*
X32439Y65089D03*
X31869Y64519D03*
X31309Y63959D03*
X30739Y63389D03*
X30179Y62829D03*
X29609Y62259D03*
X29049Y61699D03*
G54D23*
X38949Y61699D03*
X38379Y62259D03*
X37809Y62829D03*
X37249Y63389D03*
X36679Y63959D03*
X36119Y64519D03*
X35549Y65089D03*
X34989Y65659D03*
X29049Y59719D03*
X29609Y59149D03*
X30179Y58579D03*
X30739Y58019D03*
X31309Y57449D03*
X31869Y56889D03*
X32439Y56319D03*
X33009Y55759D03*
G54D24*
X40889Y61049D03*
Y68999D03*
X45389Y61049D03*
Y68999D03*
G54D25*
X54539Y64089D03*
X52639D03*
X54539Y61389D03*
X53589D03*
G54D26*
X52639Y61389D03*
G54D27*
X84919Y40389D03*
X82219D03*
X82979Y72389D03*
X85679D03*
G54D28*
X70209Y27139D03*
Y28639D03*
X77299Y58659D03*
Y57159D03*
Y55869D03*
Y54369D03*
X70099Y61459D03*
Y59959D03*
X52069Y45989D03*
Y47489D03*
X77249Y21519D03*
Y23019D03*
Y24309D03*
Y25809D03*
X70359Y49799D03*
Y51299D03*
G54D29*
X70129Y25569D03*
Y24299D03*
Y23029D03*
Y21759D03*
X75339Y25569D03*
Y24299D03*
Y23029D03*
Y21759D03*
X75309Y54609D03*
Y55879D03*
Y57149D03*
Y58419D03*
X70099Y54609D03*
Y55879D03*
Y57149D03*
Y58419D03*
G54D30*
X72739Y23659D03*
X72709Y56509D03*
G54D31*
X105409Y19939D03*
Y22739D03*
X104899Y51939D03*
Y54739D03*
G54D32*
X99569Y22429D03*
Y19729D03*
X102619Y22429D03*
Y19729D03*
X67559Y53259D03*
Y55959D03*
X102359Y54689D03*
Y51989D03*
X99309Y54689D03*
Y51989D03*
X67339Y20409D03*
Y23109D03*
X108199Y19729D03*
Y22429D03*
X107439Y51989D03*
Y54689D03*
G54D33*
X33969Y42929D03*
X32569D03*
X68009Y57659D03*
X66609D03*
X66889Y24809D03*
X68289D03*
X113979Y12189D03*
X112579D03*
G54D34*
X51309Y64199D03*
Y62799D03*
X54609Y47439D03*
Y46039D03*
X66059Y27959D03*
Y29959D03*
X68059Y28959D03*
X65289Y60719D03*
Y62719D03*
X67289Y61719D03*
G54D35*
X54689Y43249D03*
Y45149D03*
X51989Y43249D03*
Y44199D03*
G54D36*
X51989Y45149D03*
G54D37*
X75809Y27629D03*
X77309D03*
X65799Y59439D03*
X67299D03*
X119389Y60709D03*
X120889D03*
X120659Y44959D03*
X122159D03*
X25859Y57909D03*
X24359D03*
X41859Y70869D03*
X40359D03*
X39849Y58169D03*
X41349D03*
X28139Y68579D03*
X26639D03*
X77199Y60199D03*
X75699D03*
X51069Y59939D03*
X52569D03*
X67319Y26919D03*
X68819D03*
X61229Y42159D03*
X62729D03*
X119109Y19049D03*
X117609D03*
X116319D03*
X114819D03*
G54D38*
X90289Y45209D03*
X86489D03*
G54D39*
X27649Y70069D03*
Y72189D03*
G54D40*
X30209Y56409D03*
X29149Y55349D03*
X27919Y55899D03*
X26859Y54839D03*
G54D41*
X29179Y66029D03*
X30169Y65039D03*
G54D42*
X37059Y54879D03*
X38049Y55869D03*
G54D43*
X28429Y63479D03*
X27369Y64539D03*
G54D44*
X56829Y30479D03*
X60509D03*
G54D45*
X115059Y12189D03*
G54D46*
X116329Y12189D03*
X117599D03*
X118869D03*
X115059Y17189D03*
X116329D03*
X117599D03*
X118869D03*
G54D47*
X45069Y38349D03*
X40259D03*
X43549Y30989D03*
X38739D03*
G54D48*
X41149Y25259D03*
Y20449D03*
G54D49*
X96859Y62069D03*
Y63909D03*
X99139Y27019D03*
Y28859D03*
G54D50*
X100839Y62989D03*
X103119Y27939D03*
G54D51*
X38689Y30989D02*
X40729Y28959D01*
X42159D02*
X45969Y25149D01*
X40729Y28959D02*
X42159D01*
X25149Y40699D02*
X30699D01*
X24379D02*
X25149D01*
X26419Y39429*
Y34219D02*
Y39429D01*
Y34219D02*
X30409Y30229D01*
X40389Y39369D02*
X41909Y40889D01*
X40389Y38609D02*
Y39369D01*
X40129Y38349D02*
X40389Y38609D01*
X70099Y53589D02*
Y54609D01*
X70129Y20599D02*
Y21759D01*
X41909Y40889D02*
X45469D01*
X47499Y42929*
Y61979D02*
X51309Y65789D01*
X47499Y42929D02*
Y51309D01*
Y61979*
X35369Y30989D02*
X38689D01*
X34609Y30229D02*
X35369Y30989D01*
X69599Y20069D02*
X70129Y20599D01*
G54D52*
X40849Y40889D02*
X41909D01*
X36279Y45469D02*
X40849Y40889D01*
X33019Y40689D02*
Y42189D01*
X32279Y42929D02*
X33019Y42189D01*
X25109Y42929D02*
X32279D01*
X23579Y44449D02*
X25109Y42929D01*
X23579Y60749D02*
X27369Y64539D01*
X23579Y57909D02*
Y60749D01*
Y57909D02*
X24339D01*
X23579Y44449D02*
Y57909D01*
X25109Y62269D02*
X27369Y64539D01*
X38049Y55869D02*
D01*
X38819Y56639*
Y57579*
X37809Y58579D02*
X38819Y57579D01*
X26629Y66549D02*
X28409Y68329D01*
X26629Y65279D02*
Y66549D01*
Y65279D02*
X27369Y64539D01*
X29929Y67599D02*
Y68329D01*
Y70099*
X28409Y68329D02*
X29929D01*
X42379Y51309D02*
X44939D01*
X38049Y55639D02*
X42379Y51309D01*
X38049Y55639D02*
Y55869D01*
X26859Y56719D02*
X26899Y56769D01*
X26859Y54849D02*
Y56719D01*
Y54849D02*
Y54839D01*
X27339Y54359D01*
X28149*
X29149Y55349*
X26859Y54839D02*
D01*
X38049Y55869D02*
Y56089D01*
X36679Y57449D02*
X38049Y56089D01*
X29929Y70099D02*
D01*
X31459Y71629D02*
X32729D01*
X29929Y70099D02*
X31459Y71629D01*
X29929Y67599D02*
X32439Y65089D01*
X52639Y60019D02*
Y61389D01*
X52569Y59939D02*
X52639Y60019D01*
X51309Y64199D02*
X52529D01*
X52639Y64089*
X52069Y45229D02*
Y45989D01*
X51989Y45149D02*
X52069Y45229D01*
X51669Y45469D02*
X51989Y45149D01*
X50799Y45469D02*
X51669D01*
X51309Y64199D02*
Y65789D01*
Y64199D02*
D01*
X55269Y46539D02*
X55559Y46829D01*
Y48339*
X54859Y49029D02*
X55559Y48339D01*
X54859Y49029D02*
Y49249D01*
X54689Y45149D02*
Y45959D01*
X54609Y46039D02*
X54689Y45959D01*
X54609Y46039D02*
Y46539D01*
X55269*
X115059Y17189D02*
Y17779D01*
X114809Y18029D02*
X115059Y17779D01*
X114809Y18029D02*
Y19039D01*
X114819Y19049*
X117599Y17189D02*
Y19039D01*
X117609Y19049*
X118869Y17189D02*
Y17779D01*
X119129Y18029*
Y19039*
X119109Y19049D02*
X119129Y19039D01*
X114819Y18289D02*
Y20589D01*
X118869Y24639*
X123949*
X117599Y16259D02*
Y17189D01*
Y16259D02*
X118359Y15489D01*
X118869*
X119629D02*
X123949Y19809D01*
Y22099*
X114689Y15989D02*
X116319D01*
X113969Y16709D02*
X114689Y15989D01*
X113969Y16709D02*
Y21009D01*
X121409Y28449*
X116319Y15989D02*
Y19049D01*
X118869Y15489D02*
X119629D01*
X117599Y10409D02*
Y12189D01*
X113979D02*
D01*
X115059*
X115819Y10409D02*
X116329Y10919D01*
Y12189*
X111249Y10409D02*
X115819D01*
X119109Y18289D02*
Y21829D01*
X120649Y23369*
X121409*
G54D53*
X67839Y30929D02*
Y32259D01*
Y30929D02*
X70139Y28639D01*
X67839Y63719D02*
Y65019D01*
Y63719D02*
X70099Y61459D01*
X77299Y57159D02*
X78219D01*
X78509Y57449*
Y59409*
X77719Y60199D02*
X78509Y59409D01*
X77199Y60199D02*
X77719D01*
X75309Y58419D02*
X75549Y58659D01*
X75309Y58419D02*
X77139D01*
X75549Y58659D02*
X77299D01*
X75319Y57159D02*
X77299D01*
X75319Y55869D02*
X77299D01*
X68009Y57659D02*
X68779D01*
X69279Y57149*
X70099*
X70129Y24299D02*
Y24409D01*
X68289Y24809D02*
X68689Y24409D01*
X77309Y27629D02*
X78469Y26479D01*
Y25169D02*
Y26479D01*
X77609Y24309D02*
X78469Y25169D01*
X77249Y24309D02*
X77609D01*
X75579Y25809D02*
X77249D01*
X75339Y25569D02*
X75579Y25809D01*
X75349Y23019D02*
X77249D01*
X75339Y23029D02*
X75349Y23019D01*
Y24309D02*
X77249D01*
X75339Y24299D02*
X75349Y24309D01*
X70139Y28639D02*
X70209D01*
X68689Y24409D02*
X70129D01*
G54D54*
X26639Y68579D02*
Y69569D01*
X27139Y70069*
X60959Y43939D02*
X61229Y43679D01*
Y42159D02*
Y43679D01*
G54D55*
X25859Y57929D02*
X29529D01*
X25859Y57909D02*
X25869Y57899D01*
Y53959D02*
Y57899D01*
Y53959D02*
X27389Y52429D01*
Y48769D02*
Y52429D01*
X25859Y57909D02*
X25869D01*
X38199Y62259D02*
X38379D01*
X37709Y61759D02*
X38199Y62259D01*
X37339Y61759D02*
X37709D01*
X35269Y59689D02*
X37339Y61759D01*
X38309Y65019D02*
X38569Y65279D01*
X38309Y63499D02*
Y65019D01*
X37809Y62999D02*
X38309Y63499D01*
X37809Y62829D02*
Y62999D01*
X38559Y59149D02*
X39079Y58629D01*
X39379*
X39849Y58169*
X40329Y59179D02*
X41349Y58169D01*
X39479Y59179D02*
X40329D01*
X38949Y59719D02*
X39479Y59179D01*
X34759Y54359D02*
X34989Y54579D01*
Y55759*
X36689Y51909D02*
X37549Y51049D01*
Y48769D02*
Y51049D01*
X36689Y51909D02*
D01*
X35839Y52769D02*
X36689Y51909D01*
X33629Y52769D02*
X35839D01*
X32599Y50919D02*
X33579Y49939D01*
X31449Y45469D02*
X33579Y47599D01*
Y49939*
X31199Y45469D02*
X31449D01*
X32599Y50919D02*
Y53199D01*
X33009Y53599*
Y55759*
X28659Y45469D02*
X28919D01*
X31359Y47909*
Y49939*
X31929Y50509*
Y55809*
X32439Y56319*
X26119Y45469D02*
X26369D01*
X28499Y47599*
Y49619*
X31379Y52499*
Y56209*
X31869Y56709*
Y56889*
X33919Y62479D02*
X33999D01*
X31869Y64519D02*
X33919Y62479D01*
X29789Y59149D02*
Y59499D01*
X33889Y58779D02*
X33999Y58669D01*
X33889Y58779D02*
Y60369D01*
X33279Y60979D02*
X33889Y60369D01*
X32419Y60979D02*
X33279D01*
X31089Y59649D02*
X32419Y60979D01*
X29929Y59649D02*
X31089D01*
X29789Y59499D02*
X29929Y59649D01*
X29609Y59149D02*
X29789D01*
X28409Y60449D02*
X29049Y59809D01*
Y59719D02*
Y59809D01*
X30179Y60709D02*
X30469D01*
X29199Y61699D02*
X30179Y60709D01*
X29049Y61699D02*
X29199D01*
X28389Y63479D02*
X28429D01*
X26879Y61979D02*
X28389Y63479D01*
X27919Y55899D02*
X28809Y56789D01*
Y56899*
X30569Y57669D02*
Y58019D01*
X28809Y56899D02*
X28919D01*
X29399Y57379*
X30289*
X30569Y57669*
Y58019D02*
X30739D01*
X30209Y56409D02*
X30269D01*
X31309Y57449*
Y57629D02*
X32849Y59169D01*
Y59939*
X31309Y57449D02*
Y57629D01*
X29529Y57929D02*
X30179Y58579D01*
X34079Y70279D02*
Y72189D01*
X35039Y73149*
X38069*
X40359Y70869*
X41859D02*
D01*
X43109*
X31249Y63959D02*
X31309D01*
X30169Y65039D02*
X31249Y63959D01*
X29609Y62259D02*
Y62299D01*
X28429Y63479D02*
X29609Y62299D01*
X38379Y59149D02*
X38559D01*
X39839Y58149D02*
X39849Y58169D01*
X39839Y56129D02*
Y58149D01*
X41349Y58169D02*
X41849Y57659D01*
Y56129D02*
Y57659D01*
X38949Y59719D02*
X39229Y59439D01*
X35269Y71629D02*
X36449Y70439D01*
Y66169D02*
Y70439D01*
X35549Y65269D02*
X36449Y66169D01*
X35549Y65089D02*
Y65269D01*
X32729Y67919D02*
Y69089D01*
Y67919D02*
X34989Y65659D01*
X34079Y70279D02*
X35269Y69089D01*
X31629Y70279D02*
X34079D01*
X30949Y69599D02*
X31629Y70279D01*
X30949Y67709D02*
Y69599D01*
Y67709D02*
X33009Y65659D01*
X35009Y48769D02*
X35259D01*
X37089Y46949*
X38009*
X38359Y47289*
X39279*
X39629Y46949*
X40549*
X40899Y47289*
X41819*
X42169Y46949*
X43089*
X43899Y47749*
X44959*
X52579Y58419D02*
Y59929D01*
X52569Y59939D02*
X52579Y59929D01*
X62729Y41549D02*
Y42159D01*
X61719Y40539D02*
X62729Y41549D01*
X61719Y34289D02*
Y40539D01*
X49779Y42159D02*
Y42929D01*
Y42159D02*
X52579Y39369D01*
Y35049D02*
Y39369D01*
Y35049D02*
X54099Y33529D01*
X60959*
X61719Y34289*
G54D56*
X40639Y68999D02*
X42889Y66749D01*
Y63299D02*
Y66749D01*
X40639Y61049D02*
X42889Y63299D01*
X40549Y69089D02*
X40639Y68999D01*
X37809Y69089D02*
X40549D01*
X64009Y60709D02*
X65279D01*
X65289Y60719*
X64259Y27939D02*
X66039D01*
X66059Y27959*
X52069Y47489D02*
Y48009D01*
X51559Y48509D02*
X52069Y48009D01*
X52119Y47439D02*
X54609D01*
X52069Y47489D02*
X52119Y47439D01*
X118869Y12189D02*
Y13209D01*
X112579Y12189D02*
Y13519D01*
X86359Y13459D02*
Y14219D01*
Y13459D02*
X88139Y11679D01*
X112079*
X112579Y12189*
Y13519D02*
X114049Y14989D01*
X117089*
X118869Y13209*
Y12189D02*
X121409D01*
X126239Y17019*
Y30729*
X124709Y32259D02*
X126239Y30729D01*
X122679Y32259D02*
X124709D01*
X121409Y30989D02*
X122679Y32259D01*
G54D57*
X65529Y57659D02*
X66609D01*
X65619Y24809D02*
X66889D01*
X64019Y62719D02*
X65289D01*
X64009Y62739D02*
X64019Y62719D01*
X64279Y29959D02*
X66059D01*
X64259Y29969D02*
X64279Y29959D01*
X115059Y12189D02*
Y13629D01*
G54D58*
X54539Y64089D02*
X54819D01*
X55919Y62989*
X57659*
X58169Y63499*
Y64939*
X54539Y61389D02*
X54779D01*
X55879Y62479*
X57659*
X58169Y61979*
Y60539D02*
Y61979D01*
X54689Y43249D02*
X55439D01*
X55879Y43689*
X57399*
X58169Y42929*
Y41739D02*
Y42929D01*
X51989Y43249D02*
X52899D01*
X53849Y44199*
X57399*
X58169Y44959*
Y46139*
G54D59*
X70359Y45469D02*
Y49799D01*
X67059Y42159D02*
X70359Y45469D01*
X62729Y42159D02*
X67059D01*
G54D60*
X48509Y25149D03*
G54D61*
X45969Y25149D03*
G54D62*
X37809Y71629D03*
Y69089D03*
X35269Y71629D03*
Y69089D03*
X32729Y71629D03*
Y69089D03*
G54D63*
X128679Y40339D03*
Y65329D03*
G54D64*
X127259Y58369D03*
G54D65*
X130099Y56989D03*
X127259Y55599D03*
X130099Y54219D03*
X127259Y52829D03*
X130099Y51449D03*
X127259Y50059D03*
X130099Y48679D03*
X127259Y47289D03*
G54D66*
X24849Y48769D03*
X27389D03*
X29929D03*
X32469D03*
X35009D03*
X37549D03*
X40089D03*
X42629D03*
X43899Y45469D03*
X41359D03*
X38819D03*
X36279D03*
X33739D03*
X31199D03*
X28659D03*
X26119D03*
G54D67*
X26419Y20949D03*
Y24759D03*
G54D68*
X70359Y65019D03*
X67819D03*
X70609Y32259D03*
X68069D03*
G54D69*
X24129Y72899D03*
X24379Y11679D03*
X134869Y72389D03*
X135129Y11939D03*
G54D70*
X130299Y32259D03*
Y20829D03*
G54D71*
X133349Y34339D03*
Y18749D03*
G54D72*
X121409Y30989D03*
X123949Y29719D03*
X121409Y28449D03*
X123949Y27179D03*
X121409Y25909D03*
X123949Y24639D03*
X121409Y23369D03*
G54D73*
X123949Y22099D03*
G54D74*
X73409Y27939D03*
X72139Y29459D03*
X91689Y32769D03*
Y31239D03*
X91439Y34289D03*
X89919Y34539D03*
X28449Y37079D03*
X30229D03*
X37589D03*
X35809D03*
X34039D03*
X31999D03*
X37589Y42419D03*
X23579Y56639D03*
X24089Y65279D03*
Y66799D03*
X45169Y53589D03*
X27899Y66039D03*
X24089Y68329D03*
X44939Y51309D03*
X26899Y56769D03*
X35269Y59689D03*
X38569Y65279D03*
X34759Y54359D03*
X33999Y62479D03*
Y58669D03*
X33629Y52769D03*
X28409Y60449D03*
X30469Y60709D03*
X26879Y61979D03*
X28809Y56899D03*
X32849Y59939D03*
X100329Y49019D03*
Y47499D03*
Y45969D03*
X101849Y49019D03*
X65529Y57659D03*
Y24889D03*
X66549Y18799D03*
X68069D03*
X64009Y60709D03*
X64259Y27939D03*
X64009Y62739D03*
X64259Y29969D03*
X50799Y45469D03*
X51309Y65789D03*
X44959Y47749D03*
X52579Y58419D03*
X41909Y40889D03*
X47499Y51309D03*
X51559Y48509D03*
X54859Y49249D03*
X38859Y50799D03*
X60959Y43939D03*
X49779Y42929D03*
X44959Y49529D03*
X45969Y34289D03*
X52579Y24379D03*
X54359D03*
X55879D03*
X108709Y39619D03*
Y38099D03*
Y36579D03*
X101849Y45969D03*
Y47499D03*
X117599Y10409D03*
X69599Y20069D03*
X65019D03*
X86359Y14219D03*
X115059Y13629D03*
X111249Y10409D03*
X108709Y35049D03*
Y33529D03*
Y31999D03*
Y30479D03*
Y28959D03*
Y27429D03*
Y25909D03*
Y24379D03*
X91949Y43939D03*
X84839D03*
X100329Y44449D03*
X101849D03*
G54D75*
X86609Y47499D03*
X85599D03*
X85089Y46479D03*
Y45209D03*
X90169Y47499D03*
X91189D03*
X91689Y45209D03*
Y46479D03*
M02*