%FSTAX23Y23*%
%MOIN*%
%SFA1B1*%

%IPPOS*%
%AMD57*
4,1,8,-0.030900,0.015500,-0.030900,-0.015500,-0.015500,-0.030900,0.015500,-0.030900,0.030900,-0.015500,0.030900,0.015500,0.015500,0.030900,-0.015500,0.030900,-0.030900,0.015500,0.0*
%
%ADD10R,0.027559X0.035433*%
%ADD11R,0.078740X0.137795*%
%ADD24R,0.031496X0.035433*%
%ADD30R,0.055905X0.118897*%
%ADD31R,0.102362X0.043307*%
%ADD32R,0.035433X0.031496*%
%ADD33R,0.129921X0.055118*%
%ADD34R,0.035433X0.027559*%
%ADD46C,0.011811*%
%ADD47C,0.009843*%
%ADD48C,0.011811*%
%ADD49C,0.025197*%
%ADD50C,0.020079*%
%ADD51C,0.029527*%
%ADD52C,0.019685*%
%ADD54C,0.078740*%
%ADD55C,0.031496*%
G04~CAMADD=57~4~0.0~0.0~618.1~618.1~0.0~154.5~0~0.0~0.0~0.0~0.0~0~0.0~0.0~0.0~0.0~0~0.0~0.0~0.0~90.0~618.0~618.0*
%ADD57D57*%
%ADD58C,0.102362*%
%ADD59C,0.062992*%
%ADD60C,0.110236*%
%ADD61C,0.059842*%
%ADD62C,0.066929*%
%ADD63C,0.050000*%
%ADD64C,0.025197*%
%ADD65C,0.040157*%
%ADD66C,0.029921*%
%ADD67C,0.035433*%
%ADD68R,0.149606X0.078740*%
%ADD69R,0.059055X0.078740*%
%ADD70O,0.070866X0.011811*%
%ADD71O,0.011811X0.070866*%
%ADD72R,0.059842X0.085827*%
%ADD73R,0.048031X0.048031*%
%ADD74R,0.027953X0.079134*%
%ADD75R,0.061024X0.129921*%
%ADD76C,0.050000*%
%LNlv1-1*%
%LPD*%
G36*
X09376Y03945D02*
X09372Y03943D01*
X09369Y03945*
X09359Y03949*
X0935Y0395*
X0934Y03949*
X0933Y03945*
X09322Y03939*
X09316Y03931*
X09312Y03922*
X09311Y03912*
X09312Y03902*
X09316Y03892*
X09322Y03885*
X0933Y03879*
X0934Y03875*
X0935Y03874*
X09359Y03875*
X09369Y03879*
X09372Y03881*
X09376Y03879*
Y03845*
X09372Y03843*
X09369Y03845*
X09359Y03849*
X0935Y0385*
X0934Y03849*
X0933Y03845*
X09322Y03839*
X09316Y03831*
X09312Y03822*
X09311Y03812*
X09312Y03802*
X09316Y03792*
X09322Y03785*
X0933Y03779*
X0934Y03775*
X0935Y03774*
X09359Y03775*
X09369Y03779*
X09372Y03781*
X09376Y03779*
Y03745*
X09372Y03743*
X09369Y03745*
X09359Y03749*
X0935Y0375*
X0934Y03749*
X09331Y03745*
X09168*
X0916Y03749*
X09138Y0377*
X09139Y03773*
X0914Y03775*
X0915Y03774*
X09159Y03775*
X09169Y03779*
X09177Y03785*
X09183Y03792*
X09187Y03802*
X09188Y03812*
X09187Y03822*
X09183Y03831*
X09177Y03839*
X09169Y03845*
X09159Y03849*
X0915Y0385*
X0914Y03849*
X0913Y03845*
X09122Y03839*
X09116Y03831*
X09112Y03822*
X09111Y03812*
X09112Y03803*
X09111Y03801*
X09108Y038*
X08815Y04093*
X08808Y04098*
X088Y04101*
X08792Y04103*
X02546*
X02531Y04118*
Y04182*
X02454*
Y04037*
X0253*
X02532*
X08778*
X09112Y03701*
X09116Y03692*
X09122Y03685*
X0913Y03679*
X0914Y03675*
X0915Y03674*
X09159Y03675*
X09168Y03679*
X09331*
X0934Y03675*
X0935Y03674*
X09359Y03675*
X09369Y03679*
X09372Y03681*
X09376Y03679*
Y03545*
X09372Y03543*
X09369Y03545*
X09359Y03549*
X0935Y0355*
X0934Y03549*
X0933Y03545*
X09322Y03539*
X09316Y03531*
X09314Y03525*
X09185*
X09183Y03531*
X09177Y03539*
X09169Y03545*
X09159Y03549*
X0915Y0355*
X0914Y03549*
X0913Y03545*
X09122Y03539*
X09116Y03531*
X09114Y03525*
X08807*
X08801Y03524*
X08797Y03521*
X08159Y02883*
X02153*
X02081Y02955*
Y03007*
X02079Y03011*
X02077Y03016*
X02063Y03029*
Y03079*
X02062Y03085*
X02059Y03089*
X02055Y03093*
Y03107*
X0206Y03111*
X02061*
X02067Y03112*
X02071Y03115*
X02076Y03112*
X02081Y03111*
X02087Y03112*
X02091Y03115*
X02096Y03112*
X02101Y03111*
X02106Y03112*
X02111Y03115*
X02115Y03112*
X0212Y03111*
X02126Y03112*
X0213Y03115*
X02135Y03112*
X0214Y03111*
X02146Y03112*
X0215Y03115*
X02155Y03112*
X0216Y03111*
X02165Y03112*
X0217Y03115*
X02174Y03112*
X02179Y03111*
X02185Y03112*
X02189Y03115*
X02194Y03112*
X02196Y03112*
X022Y03107*
Y03106*
X022Y03105*
X02178*
Y03077*
X02177Y03074*
X02175Y03069*
Y03047*
X02168*
Y02952*
X02211*
Y03047*
X02203*
Y03054*
X02222*
Y03081*
X02229Y03088*
X0223*
X02237Y03081*
Y03054*
X02253*
X02255Y03053*
Y03047*
X02247*
Y02952*
X02291*
Y03047*
X02283*
Y03059*
X02282Y03064*
X02281Y03066*
Y03083*
X02285Y03085*
X02298Y03071*
Y03034*
X02307*
Y0301*
X02308Y03005*
X02311Y03001*
X02346Y02965*
X02343Y02958*
X02342Y0295*
X02343Y02941*
X02346Y02933*
X02351Y02926*
X02359Y02921*
X02366Y02918*
X02375Y02916*
X02384Y02918*
X02392Y02921*
X02398Y02926*
X02404Y02933*
X02407Y02941*
X02408Y0295*
X02407Y02957*
X0264Y0319*
X02642Y03194*
X02644Y032*
Y03609*
X02642Y03615*
X0264Y0362*
X02622Y03637*
X02624Y03641*
X0375*
X03757Y03643*
X03762Y03647*
X03792Y03677*
X03798Y03678*
X03804Y03681*
X04552*
X04553Y0368*
X04555Y03674*
X0456Y03666*
X04567Y03661*
X04576Y03659*
X04585Y03661*
X04593Y03666*
X04598Y03674*
X046Y03681*
X05006*
X05009Y03679*
X05018Y03677*
X05027Y03679*
X0503Y03681*
X05888*
X05889Y03681*
X05889Y03678*
X0589Y03675*
X05895Y03668*
X05894Y03664*
X05894Y03662*
X05437*
X0543Y03669*
X05425Y03672*
X0542Y03673*
X0509*
X05085Y03672*
X05081Y03669*
X04904Y03493*
X02695*
X02694Y03494*
X02687Y03499*
X02679Y035*
X02672Y03499*
X02665Y03494*
X0266Y03487*
X02659Y03479*
X0266Y03472*
X02665Y03465*
X02672Y0346*
X02679Y03459*
X02683Y03459*
X02687Y03455*
X02687Y03451*
X02688Y03444*
X02693Y03437*
X027Y03433*
X02707Y03431*
X02715Y03433*
X02722Y03437*
X02723Y03438*
X03572*
X03699Y03312*
X03698Y03308*
X03696Y033*
X03698Y03291*
X03701Y03283*
X03706Y03276*
X03713Y03271*
X03721Y03268*
X03729Y03266*
X03738Y03268*
X03746Y03271*
X03753Y03276*
X03758Y03283*
X03762Y03291*
X03762Y033*
X03762Y03308*
X03758Y03316*
X03753Y03323*
X03746Y03328*
X03738Y03331*
X03729Y03333*
X03721Y03331*
X03718Y0333*
X03614Y03434*
X03616Y03438*
X05056*
X05061Y0344*
X05065Y03442*
X05231Y03608*
X05231Y03608*
X05232Y03607*
X05234Y03607*
X05235Y03607*
X05236Y03601*
X05231Y036*
X05226Y03596*
X05222Y0359*
X05219Y03584*
X05218Y03577*
X05219Y03571*
X05222Y03564*
X05226Y03559*
X05231Y03555*
Y03408*
X05227Y03407*
X05221Y03405*
X05216Y03401*
X05212Y03395*
X05209Y03389*
X05208Y03382*
X05209Y03375*
X05212Y0337*
X05216Y03364*
X05221Y0336*
X05227Y03357*
X05234Y03357*
X05241Y03357*
X05247Y0336*
X05252Y03364*
X05257Y0337*
X05259Y03375*
X0526Y03382*
X05259Y03389*
X05257Y03393*
Y03555*
X05262Y03559*
X05266Y03564*
X05269Y03571*
X0527Y03577*
X05269Y03584*
X05266Y0359*
X05262Y03596*
X05257Y036*
X05253Y03601*
X05254Y03606*
X05369*
X05371Y03603*
X05376Y03596*
X05383Y03591*
X05391Y03587*
X054Y03587*
X05408Y03587*
X05416Y03591*
X05423Y03596*
X05428Y03603*
X05431Y03611*
X05433Y0362*
X05431Y03628*
X0543Y03631*
Y03632*
X05433Y03637*
X06705*
X06709Y03631*
X06709Y03627*
X0671Y03619*
X06713Y03611*
X06718Y03604*
X06725Y03599*
X06733Y03595*
X06742Y03594*
X0675Y03595*
X06754Y03597*
X0681Y0354*
X06814Y03537*
X0682Y03537*
X07534*
X07749Y03322*
X07748Y03318*
X07746Y03309*
X07748Y03301*
X07751Y03293*
X07756Y03286*
X07763Y03281*
X07771Y03277*
X07779Y03276*
X07788Y03277*
X07796Y03281*
X07803Y03286*
X07808Y03293*
X07812Y03301*
X07812Y03309*
X07812Y03318*
X07808Y03326*
X07803Y03333*
X07796Y03338*
X07788Y03342*
X07779Y03343*
X07771Y03342*
X07768Y0334*
X07549Y03559*
X07544Y03562*
X0754Y03562*
X06825*
X06772Y03615*
X06774Y03619*
X06775Y03627*
X06774Y03636*
X0677Y03644*
X06765Y03651*
X06758Y03656*
X0675Y03659*
X06742Y03661*
X06733Y03659*
X0673Y03658*
X06729Y03659*
X06724Y03662*
X0672Y03662*
X05929*
X05929Y03664*
X05928Y03668*
X05933Y03675*
X05935Y03681*
X06216*
X06219Y03679*
X06228Y03677*
X06237Y03679*
X0624Y03681*
X07825*
X07831Y03678*
X0784Y03676*
X07848Y03678*
X07856Y03683*
X07861Y0369*
X07863Y037*
X07861Y03709*
X07856Y03716*
X07848Y03721*
X0784Y03723*
X07831Y03721*
X07825Y03718*
X06244*
X06237Y03722*
X06228Y03724*
X06219Y03722*
X06212Y03718*
X05903*
X05885Y03737*
X05879Y0374*
X05872Y03742*
X05864Y0374*
X05859Y03737*
X05855Y03731*
X05853Y03724*
X05854Y03722*
X05851Y03718*
X05034*
X05027Y03722*
X05018Y03724*
X05009Y03722*
X05002Y03718*
X04567*
X04549Y03736*
X04543Y0374*
X04536Y03741*
X04529Y0374*
X04524Y03736*
X0452Y0373*
X04518Y03723*
X04518Y03722*
X04515Y03718*
X03804*
X03798Y03721*
X0379Y03723*
X03781Y03721*
X03773Y03716*
X03768Y03709*
X03767Y03703*
X03742Y03678*
X02607*
X02603Y03683*
X026Y03685*
Y03694*
X02605*
Y03745*
X02558*
Y03738*
X02418*
X02393Y03762*
X0239Y03764*
Y03779*
X0239Y03781*
X02394Y03785*
X02558*
Y03774*
X02605*
Y03825*
X0261Y03826*
X03643*
X03649Y03821*
X03648Y03818*
X03646Y03809*
X03648Y03801*
X03651Y03793*
X03656Y03786*
X03663Y03781*
X03671Y03777*
X03679Y03776*
X03688Y03777*
X03696Y03781*
X03703Y03786*
X03708Y03793*
X03712Y03801*
X03712Y03809*
X03712Y03818*
X03708Y03826*
X03703Y03833*
X03696Y03838*
X03689Y03841*
X0369Y03846*
X04494*
X0453Y0381*
X04535Y03807*
X0454Y03805*
X0592*
X05925Y03807*
X05929Y0381*
X05938Y03818*
X05941Y03818*
X0595Y03816*
X05958Y03818*
X05966Y03821*
X05973Y03826*
X05978Y03833*
X05981Y03841*
X05983Y0385*
X05981Y03858*
X05978Y03866*
X05973Y03873*
X05966Y03878*
X05961Y03881*
X05961*
X05962Y03885*
X07634*
X07688Y03831*
X07687Y03828*
X07687Y0382*
X07687Y03811*
X07691Y03803*
X07696Y03796*
X07703Y03791*
X07711Y03787*
X0772Y03787*
X07728Y03787*
X07736Y03791*
X07743Y03796*
X07748Y03803*
X07751Y03811*
X07753Y0382*
X07751Y03828*
X07748Y03836*
X07743Y03843*
X07736Y03848*
X07728Y03851*
X0772Y03853*
X07711Y03851*
X07709Y0385*
X0765Y03909*
X07645Y03912*
X0764Y03914*
X023*
X02294Y03912*
X0229Y03909*
X02229Y03848*
X02225Y03844*
X02225Y03838*
Y03797*
X0222Y03793*
X02219*
X02214Y03792*
X02209Y03789*
X02205Y03792*
X02199Y03793*
X02194Y03792*
X02189Y03789*
X02185Y03792*
X02179Y03793*
X02174Y03792*
X0217Y03789*
X02165Y03792*
X0216Y03793*
X02155Y03792*
X0215Y03789*
X02146Y03792*
X0214Y03793*
X02135Y03792*
X0213Y03789*
X02126Y03792*
X0212Y03793*
X02115Y03792*
X02111Y03789*
X02106Y03792*
X02101Y03793*
X02096Y03792*
X02091Y03789*
X02087Y03792*
X02081Y03793*
X02076Y03792*
X02071Y03789*
X02067Y03792*
X02061Y03793*
X02056Y03792*
X02051Y03789*
X02047Y03792*
X02042Y03793*
X02037Y03792*
X02032Y03789*
X02027Y03792*
X02022Y03793*
X02017Y03792*
X02012Y03788*
X02009Y03784*
X02008Y03779*
Y0372*
X02009Y03714*
X02012Y0371*
X02017Y03707*
X02022Y03706*
X02027Y03707*
X02032Y0371*
X02037Y03707*
X02042Y03706*
X02047Y03707*
X02051Y0371*
X02056Y03707*
X02061Y03706*
X02067Y03707*
X02071Y0371*
X02076Y03707*
X02081Y03706*
X02087Y03707*
X02091Y0371*
X02096Y03707*
X02101Y03706*
X02106Y03707*
X02111Y0371*
X02115Y03707*
X0212Y03706*
X02126Y03707*
X0213Y0371*
X02135Y03707*
X0214Y03706*
X02146Y03707*
X0215Y0371*
X02155Y03707*
X0216Y03706*
X02165Y03707*
X0217Y0371*
X02174Y03707*
X02179Y03706*
X02185Y03707*
X02189Y0371*
X02194Y03707*
X02199Y03706*
X02205Y03707*
X02209Y0371*
X02214Y03707*
X02219Y03706*
X02224Y03707*
X02229Y0371*
X02233Y03707*
X02238Y03706*
X02244Y03707*
X02248Y0371*
X02253Y03707*
X02258Y03706*
X02264Y03707*
X02268Y0371*
X02273Y03707*
X02278Y03706*
X02283Y03707*
X02288Y0371*
X02292Y03707*
X02298Y03706*
X02298*
X02303Y03701*
Y03612*
X02304Y03606*
X02307Y03602*
X02339Y0357*
Y0357*
X0234Y03562*
X02345Y03555*
X02351Y0355*
X02359Y03549*
X02368Y0355*
X02374Y03555*
X02379Y03562*
X0238Y0357*
X02379Y03577*
X02374Y03584*
X02368Y03589*
X02359Y0359*
X02359Y0359*
X02331Y03618*
Y03701*
X02337Y03706*
X02337*
X02342Y03707*
X02347Y0371*
X0235Y03714*
X02351Y0372*
Y03749*
Y03781*
X02355Y03784*
X02359*
X02362Y0378*
Y03779*
Y0375*
X02362Y03749*
X02362Y03749*
Y0372*
X02363Y03714*
X02366Y0371*
X02371Y03707*
X02376Y03706*
X02382Y03707*
X02386Y0371*
X02387Y0371*
X02393Y03711*
X02397Y03707*
X024Y03705*
Y03699*
X02398Y03698*
X02395Y03694*
X02394Y03688*
Y03688*
X0239Y03683*
X02385Y03683*
X02384Y03684*
X02377Y03689*
X0237Y0369*
X02362Y03689*
X02355Y03684*
X0235Y03677*
X02349Y0367*
X0235Y03662*
X02355Y03655*
X02362Y0365*
X0237Y03649*
X02372Y03649*
X02375Y03645*
X0237Y0364*
X0237Y0364*
X02362Y03639*
X02355Y03634*
X0235Y03627*
X02349Y0362*
X0235Y03612*
X02355Y03605*
X02362Y036*
X0237Y03599*
X02377Y036*
X02384Y03605*
X02389Y03612*
X0239Y03616*
X02395Y03616*
X02395Y03615*
X02395Y03615*
X02394Y03609*
X02395Y03604*
X02398Y036*
X02395Y03595*
X02394Y0359*
X02395Y03585*
X02398Y0358*
X02395Y03575*
X02394Y0357*
X02395Y03565*
X02398Y0356*
X02395Y03556*
X02394Y0355*
X02395Y03545*
X02398Y0354*
X02395Y03536*
X02394Y03531*
X02395Y03525*
X02398Y03521*
X02395Y03516*
X02394Y03511*
X02395Y03506*
X02398Y03501*
X02403Y03498*
X02408Y03497*
X02467*
X02472Y03498*
X02494*
X02499Y03499*
X02503Y03502*
X02505Y03503*
X02536*
Y03551*
X02528*
Y03583*
X02573Y03627*
X02579Y03626*
X02588Y03627*
X0259Y03629*
X02615Y03604*
Y03205*
X02389Y02979*
X02384Y02982*
X02375Y02983*
X02367Y02982*
X02333Y03015*
Y03034*
X02342*
Y03072*
X02346Y03074*
X02357Y03062*
Y03034*
X02401*
Y03085*
X02372*
X02349Y03108*
X0235Y0311*
X02352Y03112*
X02357Y03111*
X02362Y03112*
X02366Y03115*
X02371Y03112*
X02376Y03111*
X02382Y03112*
X02386Y03115*
X02389Y0312*
X0239Y03125*
Y03184*
X02389Y0319*
X02386Y03194*
X02382Y03197*
X02376Y03198*
X02371Y03197*
X02366Y03194*
X02362Y03197*
X02357Y03198*
X02351Y03197*
X02347Y03194*
X02342Y03197*
X02337Y03198*
X02332Y03197*
X02327Y03194*
X02323Y03197*
X02317Y03198*
X02316Y03198*
X02311Y03202*
Y03223*
X0231Y03228*
X02307Y03233*
X02294Y03245*
X02296Y0325*
X02388*
X02394Y03251*
X02395Y0325*
Y0325*
X02398Y03245*
X02395Y03241*
X02394Y03235*
X02395Y0323*
X02398Y03225*
X02395Y03221*
X02394Y03216*
X02395Y03211*
X02398Y03206*
X02403Y03203*
X02408Y03202*
X02467*
X02472Y03203*
X02477Y03206*
X0248Y03211*
X02481Y03216*
X0248Y03221*
X02477Y03225*
X0248Y0323*
X02481Y03235*
X0248Y03241*
X02477Y03245*
X0248Y0325*
X02481Y03255*
X0248Y03261*
X02477Y03265*
X0248Y0327*
X02481Y03275*
X0248Y0328*
X02477Y03285*
X0248Y03289*
X02481Y03294*
Y03295*
X02485Y033*
X02534*
X02539Y03301*
X02544Y03304*
X02568Y03328*
X02595*
Y03372*
X02544*
Y03344*
X02528Y03328*
X02485*
X02481Y03333*
Y03334*
X0248Y03339*
X02477Y03344*
X0248Y03348*
X02481Y03353*
X0248Y03359*
X02477Y03363*
X0248Y03368*
X02481Y03373*
X0248Y03379*
X02477Y03383*
X0248Y03388*
X02481Y03393*
X0248Y03398*
X02477Y03403*
X0248Y03407*
X02481Y03412*
X0248Y03418*
X02477Y03422*
X0248Y03427*
X02481Y03432*
X0248Y03438*
X02477Y03442*
X0248Y03447*
X02481Y03452*
X0248Y03457*
X02477Y03462*
X0248Y03466*
X02481Y03472*
X0248Y03477*
X02477Y03481*
X02472Y03485*
X02467Y03486*
X02408*
X02403Y03485*
X02398Y03481*
X02395Y03477*
X02394Y03472*
X02395Y03466*
X02398Y03462*
X02395Y03457*
X02394Y03452*
X02395Y03447*
X02398Y03442*
X02395Y03438*
X02394Y03432*
X02395Y03427*
X02398Y03422*
X02395Y03418*
X02394Y03412*
X02395Y03407*
X02398Y03403*
X02395Y03398*
X02394Y03393*
X02395Y03388*
X02398Y03383*
X02395Y03379*
X02394Y03373*
X02395Y03368*
X02398Y03363*
X02395Y03359*
X02394Y03353*
X02395Y03348*
X02398Y03344*
X02395Y03339*
X02394Y03334*
Y03333*
X0239Y03328*
X0209*
X02088Y03331*
X02083Y03334*
X02078Y03335*
X01993*
X01987Y03339*
X01979Y0334*
X01972Y03339*
X01965Y03334*
X0196Y03327*
X01959Y0332*
X0196Y03312*
X01965Y03305*
X01972Y033*
X01979Y03299*
X01987Y033*
X01994Y03305*
X01996Y03307*
X02046*
X02046Y03306*
X02048Y03302*
X02046Y03294*
X02048Y03287*
X0205Y03283*
X02048Y03278*
X01939*
X01938Y03278*
X01932Y03283*
X01924Y03285*
X01916Y03283*
X01909Y03278*
X01905Y03272*
X01903Y03264*
X01905Y03256*
X01909Y03249*
X01913Y03246*
X01914Y0324*
X01891Y03217*
X01886Y03218*
X01885Y03221*
X01883Y03225*
X01885Y0323*
X01887Y03235*
X01885Y03241*
X01883Y03245*
X01885Y0325*
X01887Y03255*
X01885Y03261*
X01883Y03265*
X01885Y0327*
X01887Y03275*
X01885Y0328*
X01883Y03285*
X01885Y03289*
X01887Y03294*
X01885Y033*
X01883Y03304*
X01885Y03309*
X01887Y03314*
X01885Y0332*
X01883Y03324*
X01885Y03329*
X01887Y03334*
X01885Y03339*
X01883Y03344*
X01885Y03348*
X01887Y03353*
X01885Y03359*
X01883Y03363*
X01885Y03368*
X01887Y03373*
X01885Y03379*
X01883Y03383*
X01885Y03388*
X01887Y03393*
X01885Y03398*
X01883Y03403*
X01885Y03407*
X01887Y03412*
X01885Y03418*
X01882Y03422*
X01878Y03425*
X01872Y03427*
X01813*
X01808Y03425*
X01807Y03425*
X01805*
X01801Y03424*
X01796Y03421*
X01789Y03414*
X01785Y03416*
X01734*
Y03412*
X01729Y03411*
X01725Y03415*
X01718Y03421*
X01711Y03424*
X01702Y03425*
X01693Y03424*
X01685Y03421*
X01679Y03415*
X01673Y03409*
X0167Y03401*
X01669Y03392*
X0167Y03383*
X01673Y03375*
X01679Y03368*
X01685Y03363*
X01693Y0336*
X01702Y03359*
X01711Y0336*
X01718Y03363*
X01725Y03368*
X01729Y03373*
X01734Y03372*
Y03368*
X01785*
Y03379*
X01786*
X01791Y0338*
X01794Y03382*
X01798Y03381*
X018Y0338*
X018Y03379*
X018Y03373*
X018Y03368*
X01803Y03363*
X018Y03359*
X018Y03353*
X018Y03348*
X01803Y03344*
X018Y03339*
X018Y03334*
X018Y03329*
X01803Y03324*
X018Y0332*
X018Y03314*
X018Y03309*
X01803Y03304*
X018Y033*
X018Y03294*
X018Y03289*
X01803Y03285*
X018Y0328*
X018Y03275*
X018Y0327*
X01803Y03265*
X018Y03261*
X018Y03255*
X018Y0325*
X01803Y03245*
X018Y03241*
X018Y03235*
X018Y0323*
X01803Y03225*
X018Y03221*
X018Y03216*
X018Y03211*
X01803Y03206*
X01808Y03203*
X01813Y03202*
X01869*
X01871Y03197*
X01704Y03027*
X01702Y03028*
X01694Y03026*
X01687Y03022*
X01683Y03015*
X01681Y03007*
X01683Y02999*
X01687Y02992*
X0169Y0299*
X01687Y02986*
X01679Y02988*
X01672Y02986*
X01668Y02984*
X01664Y02987*
Y03604*
X01695Y03635*
X01733*
X01736Y0363*
X01735Y03628*
X01731Y03627*
X01724Y03623*
X0172Y03616*
X01718Y03608*
X0172Y036*
X01721Y03599*
X01718Y03594*
X01705*
X01704Y03594*
X01698Y03599*
X0169Y036*
X01681Y03599*
X01675Y03594*
X0167Y03587*
X01669Y03579*
X0167Y03572*
X01675Y03565*
X01681Y0356*
X0169Y03559*
X01698Y0356*
X01704Y03565*
X01705Y03566*
X0175*
X01755Y03566*
X01759Y0357*
X01785Y03596*
X01795*
X018Y0359*
Y0359*
X018Y03585*
X01803Y0358*
X018Y03575*
X018Y0357*
X018Y03565*
X01803Y0356*
X018Y03556*
X018Y0355*
X018Y03545*
X01803Y0354*
X018Y03536*
X018Y03531*
X018Y03525*
X01803Y03521*
X018Y03516*
X018Y03511*
X018Y03506*
X01803Y03501*
X018Y03497*
X018Y03491*
X018Y03486*
X01803Y03481*
X018Y03477*
X018Y03472*
X018Y03466*
X01803Y03462*
X018Y03457*
X018Y03452*
X018Y03447*
X01803Y03442*
X01808Y03439*
X01813Y03438*
X01872*
X01878Y03439*
X01882Y03442*
X01885Y03447*
X01887Y03452*
X01885Y03457*
X01883Y03462*
X01885Y03466*
X01887Y03472*
X01885Y03477*
X01883Y03481*
X01885Y03486*
X01887Y03491*
X01885Y03497*
X01883Y03501*
X01885Y03506*
X01887Y03511*
X01885Y03516*
X01883Y03521*
X01885Y03525*
X01887Y03531*
X01885Y03536*
X01883Y0354*
X01885Y03545*
X01887Y0355*
X01885Y03556*
X01883Y0356*
X01885Y03565*
X01887Y0357*
X01885Y03575*
X01883Y0358*
X01885Y03585*
X01887Y0359*
X01885Y03595*
X01883Y036*
X01885Y03604*
X01887Y03609*
X01885Y03615*
X01883Y03619*
X01885Y03624*
X01887Y03629*
X01885Y03635*
X01883Y03639*
X01885Y03644*
X01887Y03649*
X01885Y03654*
X01883Y03659*
X01885Y03663*
X01887Y03668*
X01885Y03674*
X01883Y03678*
X01885Y03683*
X01887Y03688*
X01885Y03694*
X01882Y03698*
X01878Y03701*
X01872Y03702*
X01681*
X01679Y03707*
X01707Y03735*
X0189*
Y0372*
X01891Y03714*
X01894Y0371*
X01899Y03707*
X01904Y03706*
X01906Y03706*
X01911Y03703*
Y03699*
X01912Y03694*
X01915Y0369*
X02165Y0344*
X02169Y03437*
X02174Y03437*
X02254*
X02255Y03435*
X02262Y0343*
X0227Y03429*
X02277Y0343*
X02284Y03435*
X02289Y03442*
X0229Y0345*
X02289Y03457*
X0229Y0346*
X02291Y03461*
X02296Y03462*
X02297Y03461*
X02305Y03459*
X02313Y03461*
X0232Y03465*
X02324Y03472*
X02326Y0348*
X02324Y03488*
X0232Y03495*
X02313Y03499*
X02305Y03501*
X02297Y03499*
X0229Y03495*
X02286Y03488*
X02179*
X01966Y03701*
X01968Y03707*
X01968*
X01973Y0371*
X01977Y03707*
X01983Y03706*
X01988Y03707*
X01992Y0371*
X01996Y03714*
X01997Y0372*
Y03779*
X01996Y03783*
Y03794*
X02001*
Y03815*
X02018Y03833*
X02021Y03837*
X02022Y03842*
Y03844*
X02031*
Y03865*
X02127Y03961*
X02302*
X02306Y03956*
X02313Y03951*
X02321Y03948*
X02329Y03946*
X02338Y03948*
X02346Y03951*
X02353Y03956*
X02358Y03963*
X02362Y03971*
X02362Y03979*
X02362Y03988*
X02358Y03996*
X02353Y04003*
X0235Y04005*
Y0402*
X02349Y04027*
X02346Y04032*
X02349Y04037*
X02365*
Y04082*
X02368Y04086*
X02373Y04097*
X02374Y04109*
X02373Y04122*
X02368Y04133*
X02365Y04137*
Y04182*
X02288*
Y04157*
X0218*
Y0416*
X02175*
Y04167*
X02174Y04175*
X02171Y04184*
X02165Y0419*
X02123Y04233*
X02116Y04238*
X02108Y04242*
X021Y04243*
X01679*
X01671Y04242*
X01663Y04238*
X01656Y04233*
X01416Y03993*
X01411Y03986*
X01407Y03978*
X01406Y0397*
Y024*
Y02372*
X01403*
Y02237*
X01475*
Y02271*
X01588*
Y02248*
X01594*
Y02203*
X01645*
Y02248*
X01663*
Y02329*
X01677*
Y02254*
X01678Y02251*
X01679Y02249*
Y02248*
X0168*
X01682Y02247*
X01685Y02246*
X01745*
X01748Y02247*
X0175Y02248*
X01754*
Y02252*
X01755Y02253*
X01757Y02255*
X01757Y02259*
Y02329*
X0177*
X01773Y02329*
X01775Y02331*
X01777Y02334*
X01777Y02335*
X01837*
X01837Y02334*
X01839Y02331*
X01842Y02329*
X01844Y02329*
X01964*
X01967Y02329*
X01969Y02331*
X01971Y02334*
Y02335*
X02028*
Y02334*
X0203Y02331*
X02032Y02329*
X02035Y02329*
X021*
X02103Y02329*
X02105Y02331*
X02107Y02334*
X02107Y02337*
Y024*
Y026*
X02107Y02603*
X02105Y02605*
X02103Y02607*
X021Y02607*
X0159*
X01587Y02607*
X01584Y02605*
X01581Y02602*
X01579Y026*
X01579Y02597*
Y024*
Y02347*
Y02346*
X01579Y02345*
X01579Y02344*
Y02344*
X0158Y02343*
X01577Y02338*
X01475*
Y02372*
X01473*
Y02395*
Y03956*
X01693Y04176*
X02086*
X02104Y04158*
Y04138*
X02101Y04133*
X02096Y04122*
X02094Y04109*
X02096Y04097*
X02101Y04086*
X02104Y04081*
Y04059*
X0218*
Y04062*
X02288*
Y04037*
X02311*
X02313Y04032*
X0231Y04027*
X02309Y0402*
Y04005*
X02306Y04003*
X02302Y03998*
X02119*
X02112Y03996*
X02106Y03992*
X02009Y03895*
X01987*
Y03845*
X01972*
Y03895*
X01928*
Y03845*
X01898*
Y03794*
X01896Y0379*
X01894Y03788*
X01891Y03784*
X0189Y03779*
Y03763*
X01701*
X01696Y03762*
X01691Y03759*
X01579Y03647*
X01577Y03643*
X01575Y03637*
Y02946*
X01576Y02945*
Y02899*
X01577Y02894*
X0158Y02889*
X01719Y0275*
X01724Y02746*
X01729Y02746*
X02005*
X02065Y02685*
X0207Y02682*
X02075Y02681*
X08237*
X08242Y02682*
X08246Y02685*
X08307Y02746*
X0837*
X08502Y02614*
X08506Y02611*
X08512Y0261*
X087*
X0878Y02529*
X08785Y02527*
X0879Y02525*
X08994*
Y02518*
X09045*
Y02525*
X09109*
X09112Y0252*
X09111Y02512*
X09112Y02502*
X09116Y02492*
X09122Y02485*
X0913Y02479*
X0914Y02475*
X0915Y02474*
X09159Y02475*
X09169Y02479*
X09177Y02485*
X09183Y02492*
X09187Y02502*
X09188Y02512*
X09187Y02522*
X09183Y02531*
X09177Y02539*
X0917Y02544*
X09169Y0255*
X09203Y02584*
X09206Y02588*
X09207Y02594*
Y0265*
X09335Y02777*
X0934Y02775*
X0935Y02774*
X09359Y02775*
X09369Y02779*
X09372Y02781*
X09376Y02779*
Y02395*
X09188*
X09185Y02399*
X09187Y02402*
X09188Y02412*
X09187Y02422*
X09183Y02431*
X09177Y02439*
X09169Y02445*
X09159Y02449*
X0915Y0245*
X0914Y02449*
X0913Y02445*
X09122Y02439*
X09116Y02431*
X09112Y02422*
X09111Y02412*
X09112Y02402*
X09114Y02399*
X09111Y02395*
X02914*
Y0242*
X02916Y02421*
X02923Y02426*
X02928Y02433*
X02931Y02441*
X02933Y0245*
X02931Y02458*
X02928Y02466*
X02923Y02473*
X02916Y02478*
X02908Y02481*
X029Y02483*
X02891Y02481*
X02883Y02478*
X02876Y02473*
X02871Y02466*
X02868Y02458*
X02866Y0245*
X02868Y02441*
X02871Y02433*
X02876Y02426*
X02883Y02421*
X02885Y0242*
Y02395*
X02694*
X02667Y02422*
X02668Y02423*
X02672Y02431*
X02673Y0244*
X02672Y02448*
X02668Y02456*
X02663Y02463*
X02656Y02468*
X02648Y02472*
X0264Y02473*
X02631Y02472*
X02623Y02468*
X02616Y02463*
X02611Y02456*
X02607Y02448*
X02606Y0244*
X02607Y02431*
X02611Y02423*
X02616Y02416*
X02623Y02411*
X02631Y02407*
X0264Y02406*
X02642Y02407*
X0265Y024*
X02648Y02395*
X02575*
X022Y0202*
X01257*
X01255Y02025*
X01248Y02034*
X01239Y02041*
X01229Y02045*
X01218Y02046*
X01208Y02045*
X01198Y02041*
X01189Y02034*
X01183Y02025*
X0118Y0202*
X01146*
X01144Y02025*
X01148Y02027*
X01153Y02035*
X01157Y02044*
X01159Y02054*
X01157Y02064*
X01153Y02073*
X01148Y02081*
X0114Y02087*
X0113Y02091*
X0112Y02092*
X01111Y02091*
X01105Y02089*
X01044Y02151*
Y02317*
X01126Y024*
X01128Y02401*
X01131Y02406*
X01132Y02411*
Y02633*
X01137Y02635*
X01151Y02621*
X01155Y02618*
X01161Y02617*
X01266*
X01267Y02615*
X01274Y02611*
X01282Y02609*
X0129Y02611*
X01297Y02615*
X01301Y02622*
X01303Y0263*
X01301Y02638*
X01297Y02645*
X0129Y02649*
X01282Y02651*
X01274Y02649*
X01267Y02645*
X01266Y02643*
X01166*
X01146Y02664*
Y02698*
X01098*
Y02687*
X01059*
Y02689*
X01039Y02709*
X01*
X00981Y02689*
Y0265*
X01Y02631*
X01039*
X01059Y0265*
Y02659*
X01098*
Y02647*
X01104*
Y02417*
X01082Y02395*
X0102Y02333*
X01016Y02328*
X01016Y02323*
Y02145*
X01016Y0214*
X0102Y02135*
X01086Y02069*
X01084Y02064*
X01082Y02054*
X01084Y02044*
X01087Y02035*
X01094Y02027*
X01097Y02025*
X01095Y0202*
X00909*
Y02394*
X0091Y02395*
X009*
Y02426*
X00905Y02431*
X00939*
X00959Y0245*
Y02489*
X00939Y02509*
X009*
X009*
Y04305*
X09376*
Y03945*
G37*
G36*
X05938Y03881D02*
X05933Y03878D01*
X05926Y03873*
X05921Y03866*
X05918Y03858*
X05916Y0385*
X05918Y03841*
X05918Y03838*
X05914Y03833*
X04637*
X04635Y03838*
X04638Y03843*
X04642Y03851*
X04643Y03859*
X04642Y03868*
X04638Y03876*
X04635Y03881*
X04637Y03885*
X05937*
X05938Y03881*
G37*
G36*
X02558Y03825D02*
Y03814D01*
X0235*
X02344Y03812*
X0234Y03809*
X02327Y03797*
X02326Y03796*
X02323Y03792*
X02319*
X02317Y03793*
X02313Y03796*
Y03801*
X02338Y03826*
X02554*
X02558Y03825*
G37*
G36*
X05375Y03642D02*
X05371Y03636D01*
X05369Y03633*
X05242*
X0524Y03635*
X05235Y03638*
X0523Y03639*
X05225Y03638*
X05221Y03635*
X0505Y03465*
X0492*
X04918Y0347*
X04919Y0347*
X05096Y03647*
X05374*
X05375Y03642*
G37*
G36*
X02558Y03694D02*
X02564D01*
Y03688*
X02563Y03688*
X02556Y03683*
X02551Y03676*
X02548Y03668*
X02546Y03659*
X02547Y03653*
X02497Y03603*
X02493Y03597*
X02492Y0359*
Y03551*
X02485*
X02481Y03553*
X0248Y03556*
X02477Y0356*
X0248Y03565*
X02481Y0357*
X0248Y03575*
X02477Y0358*
X0248Y03585*
X02481Y0359*
X0248Y03595*
X02477Y036*
X0248Y03604*
X02481Y03609*
X0248Y03615*
X02477Y03619*
X0248Y03624*
X02481Y03629*
X0248Y03635*
X02477Y03639*
X0248Y03644*
X02481Y03649*
X0248Y03654*
X02477Y03659*
X0248Y03663*
X02481Y03668*
X0248Y03674*
X02477Y03678*
X0248Y03683*
X02481Y03688*
X0248Y03694*
X02478Y03696*
X0248Y03701*
X02558*
Y03694*
G37*
G36*
X09316Y03492D02*
X09322Y03485D01*
X0933Y03479*
X0934Y03475*
X0935Y03474*
X09359Y03475*
X09369Y03479*
X09372Y03481*
X09376Y03479*
Y03445*
X09372Y03443*
X09369Y03445*
X09359Y03449*
X0935Y0345*
X0934Y03449*
X0933Y03445*
X09322Y03439*
X09316Y03431*
X09314Y03425*
X09185*
X09183Y03431*
X09177Y03439*
X09169Y03445*
X09159Y03449*
X0915Y0345*
X0914Y03449*
X0913Y03445*
X09122Y03439*
X09116Y03431*
X09114Y03425*
X08745*
X08743Y03429*
X08812Y03499*
X09114*
X09116Y03492*
X09122Y03485*
X0913Y03479*
X0914Y03475*
X0915Y03474*
X09159Y03475*
X09169Y03479*
X09177Y03485*
X09183Y03492*
X09185Y03499*
X09314*
X09316Y03492*
G37*
G36*
Y03392D02*
X09322Y03385D01*
X0933Y03379*
X0934Y03375*
X0935Y03374*
X09359Y03375*
X09369Y03379*
X09372Y03381*
X09376Y03379*
Y03145*
X09372Y03143*
X09369Y03145*
X09359Y03149*
X0935Y0315*
X0934Y03149*
X0933Y03145*
X09322Y03139*
X09316Y03131*
X09312Y03122*
X09311Y03112*
X09312Y03102*
X09315Y03097*
X0925Y03032*
X09246Y03027*
X09246Y03022*
Y02945*
X0917Y0287*
X09158*
X09157Y02875*
X09159*
X09169Y02879*
X09177Y02885*
X09183Y02892*
X09187Y02902*
X09188Y02912*
X09187Y02922*
X09183Y02931*
X09177Y02939*
X09169Y02945*
X09159Y02949*
X0915Y0295*
X0914Y02949*
X0913Y02945*
X09122Y02939*
X09116Y02931*
X09112Y02922*
X09111Y02912*
X09112Y02902*
X09116Y02892*
X09122Y02885*
X0913Y02879*
X0914Y02875*
X09142*
X09141Y0287*
X08975*
Y02881*
X08924*
Y0287*
X08885*
X0888Y02868*
X08875Y02865*
X08738Y02728*
X08735Y0273*
X08734Y02731*
X08735Y02739*
X08734Y02746*
X08772Y02784*
X08776Y0279*
X08777Y02796*
Y03042*
X08776Y0305*
X08772Y03055*
X08723Y03105*
Y03135*
X08729Y03138*
X08734Y03146*
X08737Y03153*
X08738Y03162*
X08737Y03171*
X08734Y03179*
X08729Y03185*
X08722Y03191*
X08714Y03194*
X08705Y03195*
X08696Y03194*
X08688Y03191*
X08681Y03185*
X08676Y03179*
X08673Y03171*
X08672Y03162*
X08673Y03153*
X08676Y03146*
X08681Y03138*
X08687Y03135*
Y03097*
X08688Y0309*
X08692Y03084*
X08742Y03035*
Y02804*
X08709Y02771*
X08702Y02772*
X08693Y02771*
X08685Y02768*
X08678Y02762*
X08673Y02755*
X0867Y02748*
X08669Y02739*
X0867Y0273*
X08673Y02722*
X08678Y02715*
X08685Y0271*
X08693Y02707*
X08702Y02706*
X0871Y02707*
X08711Y02705*
X08712Y02702*
X08707Y02697*
X08542*
X08418Y02821*
X0842Y02825*
X08532*
X08544Y02813*
X08543Y02811*
X08542Y02802*
X08543Y02794*
X08546Y02785*
X08551Y02779*
X08559Y02773*
X08566Y0277*
X08575Y02769*
X08584Y0277*
X08592Y02773*
X08598Y02779*
X08604Y02785*
X08607Y02794*
X08608Y02802*
X08607Y02811*
X08604Y02819*
X08598Y02825*
X08592Y02831*
X08584Y02834*
X08575Y02835*
X08566Y02834*
X08564Y02833*
X0855Y02847*
X08551Y02853*
X08551Y02853*
X08559Y02859*
X08564Y02865*
X08567Y02874*
X08568Y02882*
X08567Y0289*
X08564Y02899*
X08559Y02905*
X08551Y02911*
X08544Y02914*
X08535Y02915*
X08526Y02914*
X08518Y02911*
X08512Y02905*
X08506Y02899*
X08503Y0289*
X08502Y02882*
X08503Y02877*
X08499Y02874*
X08413*
X08411Y02878*
X08494Y02961*
X08496Y0296*
X08505Y02959*
X08514Y0296*
X08522Y02963*
X08529Y02968*
X08534Y02975*
X08537Y02983*
X08538Y02992*
X08537Y03001*
X08534Y03009*
X08529Y03016*
X08522Y03021*
X08514Y03024*
X08505Y03025*
X08496Y03024*
X08488Y03021*
X08481Y03016*
X08476Y03009*
X08473Y03001*
X08472Y02992*
X08473Y02983*
X08474Y02981*
X08387Y02894*
X08323*
X08321Y02898*
X08444Y03021*
X08446Y0302*
X08455Y03019*
X08464Y0302*
X08472Y03023*
X08479Y03029*
X08484Y03035*
X08487Y03044*
X08488Y03052*
X08487Y03061*
X08484Y03069*
X08479Y03075*
X08472Y03081*
X08464Y03084*
X08455Y03085*
X08446Y03084*
X08438Y03081*
X08431Y03075*
X08426Y03069*
X08423Y03061*
X08422Y03052*
X08423Y03044*
X08424Y03041*
X08297Y02914*
X08259*
X08257Y02918*
X08737Y03399*
X09114*
X09116Y03392*
X09122Y03385*
X0913Y03379*
X0914Y03375*
X0915Y03374*
X09159Y03375*
X09169Y03379*
X09177Y03385*
X09183Y03392*
X09185Y03399*
X09314*
X09316Y03392*
G37*
G36*
X02285Y03218D02*
Y03202D01*
X02279Y03198*
X02278Y03198*
X02273Y03197*
X02268Y03194*
X02265Y0319*
X02264Y03184*
Y03125*
X02265Y0312*
Y0311*
X02261Y03105*
X02253*
X02253Y03106*
Y03155*
Y03184*
X02251Y0319*
X02248Y03194*
X02244Y03197*
X02238Y03198*
X02233Y03197*
X02229Y03194*
X02224Y03197*
X02219Y03198*
X02214Y03197*
X02209Y03194*
X02205Y03197*
X02199Y03198*
X02194Y03197*
X02189Y03194*
X02185Y03197*
X02179Y03198*
X02174Y03197*
X0217Y03194*
X02165Y03197*
X0216Y03198*
X02155Y03197*
X0215Y03194*
X02146Y03197*
X0214Y03198*
X02135Y03197*
X0213Y03194*
X02126Y03197*
X0212Y03198*
X02115Y03197*
X02111Y03194*
X02106Y03197*
X02101Y03198*
X02096Y03197*
X02091Y03194*
X02087Y03197*
X02081Y03198*
X02076Y03197*
X02071Y03194*
X02067Y03197*
X02061Y03198*
X02056Y03197*
X02051Y03194*
X02047Y03197*
X02042Y03198*
X02037Y03197*
X02032Y03194*
X02027Y03197*
X02022Y03198*
X02017Y03197*
X02012Y03194*
X02008Y03197*
X02002Y03198*
X01997Y03197*
X01992Y03194*
X01988Y03197*
X01983Y03198*
X01977Y03197*
X01973Y03194*
X01968Y03197*
X01963Y03198*
X01958Y03197*
X01953Y03194*
X01949Y03197*
X01943Y03198*
X01938Y03197*
X01933Y03194*
X01929Y03197*
X01924Y03198*
X01918Y03197*
X01918*
X01916Y03198*
X01916Y03204*
X01937Y03225*
X02242*
X02248Y03226*
X02252Y03229*
X02255Y03232*
X0227*
X02285Y03218*
G37*
G36*
X09376Y03079D02*
Y03045D01*
X09372Y03043*
X09369Y03045*
X09359Y03049*
X0935Y0305*
X0934Y03049*
X0933Y03045*
X09322Y03039*
X09316Y03031*
X09312Y03022*
X09311Y03012*
X09312Y03002*
X09315Y02997*
X09279Y02962*
X09279Y0296*
X09274Y02962*
Y03016*
X09335Y03077*
X0934Y03075*
X0935Y03074*
X09359Y03075*
X09369Y03079*
X09372Y03081*
X09376Y03079*
G37*
G36*
X0189Y03172D02*
Y03125D01*
X01891Y0312*
X01894Y03115*
X01899Y03112*
X01904Y03111*
X01909Y03112*
X01914Y03115*
X01918Y03112*
X01924Y03111*
X01929Y03112*
X01933Y03115*
X01938Y03112*
X01943Y03111*
X01949Y03112*
X01953Y03115*
X01958Y03112*
X01963Y03111*
X01964*
X01964Y03111*
X01966Y03106*
X0194Y03079*
X01937Y03075*
X01935Y0307*
Y02929*
X01937Y02924*
X0194Y0292*
X01981Y02878*
X01979Y02874*
X01805*
X01768Y02911*
X01769Y02912*
X0177Y0292*
X01769Y02927*
X01764Y02934*
X01757Y02939*
X0175Y0294*
X01742Y02939*
X01735Y02934*
X0173Y02927*
X01729Y0292*
X0173Y02912*
X01735Y02905*
X01737Y02903*
X0174Y029*
X01781Y02858*
X01779Y02853*
X01766*
X01694Y02926*
Y02952*
X01694Y02952*
X01699Y02959*
X017Y02967*
X01699Y02975*
X01694Y02982*
X01692Y02984*
X01694Y02988*
X01702Y02986*
X0171Y02988*
X01717Y02992*
X01721Y02999*
X01723Y03007*
X01722Y03009*
X01885Y03174*
X0189Y03172*
G37*
G36*
X09376Y02979D02*
Y02945D01*
X09372Y02943*
X09369Y02945*
X09359Y02949*
X0935Y0295*
X0934Y02949*
X0933Y02945*
X09322Y02939*
X09316Y02931*
X09312Y02922*
X09311Y02912*
X09312Y02902*
X09316Y02892*
X09322Y02885*
X09329Y0288*
X0933Y02874*
X09305Y02849*
X09301Y02852*
X09303Y02854*
X09303Y02859*
Y02946*
X09335Y02977*
X0934Y02975*
X0935Y02974*
X09359Y02975*
X09369Y02979*
X09372Y02981*
X09376Y02979*
G37*
G36*
X02009Y03072D02*
Y03061D01*
X02Y03052*
X01998Y03048*
X01996Y03043*
X01997Y03041*
X01996Y03039*
X01998Y03034*
X02Y0303*
X02037Y02994*
Y0294*
X02037Y02935*
X0204Y0293*
X02052Y02918*
X0205Y02914*
X02025*
X01983Y02955*
Y03054*
X02004Y03074*
X02009Y03072*
G37*
G36*
X08924Y02837D02*
X08975D01*
Y02839*
X08979Y02841*
X08984Y02838*
Y02835*
X08982Y02834*
X0897Y02822*
X08924*
Y02804*
X08902Y02782*
X08899Y02783*
X0889Y02781*
X08883Y02778*
X08875Y02773*
X0887Y02766*
X08867Y02758*
X08866Y0275*
X08867Y02741*
X0887Y02733*
X08875Y02726*
X08883Y02721*
X0889Y02718*
X08899Y02716*
X08908Y02718*
X08916Y02721*
X08922Y02726*
X08928Y02733*
X08931Y02741*
X08932Y0275*
X08932Y02753*
X08957Y02778*
X08975*
Y02779*
X08978*
X0898Y0278*
X08984Y02777*
Y02769*
X08981Y02768*
X08976Y02765*
X08888Y02677*
X08733*
X08732Y02682*
X08891Y02842*
X08924*
Y02837*
G37*
G36*
X09275Y02929D02*
Y02865D01*
X0918Y0277*
X09158*
X09157Y02775*
X09159*
X09169Y02779*
X09177Y02785*
X09183Y02792*
X09187Y02802*
X09188Y02812*
X09187Y02822*
X09183Y02831*
X09178Y02837*
X09179Y02842*
X0918Y02842*
X09181*
X09185Y02846*
X0927Y02929*
X0927Y02931*
X09275Y02929*
G37*
G36*
X09121Y02837D02*
X09116Y02831D01*
X09112Y02822*
X09111Y02812*
X09112Y02802*
X09116Y02792*
X09122Y02785*
X0913Y02779*
X0914Y02775*
X09142*
X09141Y0277*
X09035*
Y02782*
X08996*
X08994Y02787*
X09005Y02798*
X09035*
Y02841*
X0904Y02842*
X09118*
X09121Y02837*
G37*
G36*
X09294Y02837D02*
X09293Y02835D01*
X09292Y0283*
Y02812*
X09193Y02712*
X09187Y02714*
X09187Y02722*
X09183Y02731*
X09178Y02737*
X09181Y02742*
X09185*
X09191Y02742*
X09196Y02746*
X0929Y0284*
X09294Y02837*
G37*
G36*
X09121Y02737D02*
X09116Y02731D01*
X09112Y02722*
X09111Y02712*
X09112Y02702*
X09116Y02692*
X09122Y02685*
X0913Y02679*
X0914Y02675*
X09142*
X09141Y0267*
X09131*
X09126Y02668*
X09122Y02665*
X09113Y02657*
X08987*
Y02662*
X08935*
Y02657*
X08914*
X08912Y02662*
X08988Y02738*
X09035*
Y02742*
X09118*
X09121Y02737*
G37*
G36*
X08935Y02619D02*
X08985D01*
X08987Y02614*
X08987Y02614*
X08976Y02603*
X08935*
Y02602*
X08893*
X08891Y02605*
X08884Y0261*
X08876Y02614*
X08867Y02615*
X08859Y02614*
X08851Y0261*
X08844Y02605*
X08839Y02598*
X08835Y0259*
X08834Y02582*
X08835Y02573*
X08839Y02565*
X08844Y02559*
X08843Y02555*
X08842Y02553*
X08796*
X08725Y02625*
X08727Y02629*
X08935*
Y02619*
G37*
G36*
X09114Y02625D02*
X09112Y02622D01*
X09111Y02612*
X09112Y02602*
X09116Y02592*
X09122Y02585*
X0913Y02579*
X0914Y02575*
X09142*
X09141Y0257*
X09131*
X09126Y02568*
X09122Y02565*
X0911Y02553*
X09045*
Y02562*
X09*
X08998Y02567*
X08998*
X09009Y02577*
X09045*
Y02621*
X08994*
Y0262*
X08991Y02619*
X08987Y02622*
Y02629*
X09111*
X09114Y02625*
G37*
G36*
X021Y02337D02*
X02035D01*
Y02342*
X01964*
Y02337*
X01844*
Y02343*
X0177*
Y02337*
X0175*
Y02259*
X01745Y02254*
X01685*
Y02337*
X01663*
Y02343*
X01588*
X01587Y02347*
Y02597*
X0159Y026*
X021*
Y02337*
G37*
G36*
X08084Y02286D02*
Y01505D01*
X08608*
X0861Y015*
X0842Y01309*
X07791*
Y01313*
Y01315*
X07748*
Y01313*
Y01309*
X07732*
Y01313*
Y01315*
X07688*
Y01313*
Y01309*
X0767*
Y01313*
X07479*
Y02286*
X08084*
G37*
G36*
X04025Y02282D02*
Y013D01*
X02979*
Y02282*
X04025*
G37*
G36*
X06681Y01293D02*
X06246D01*
Y01876*
X06681*
Y01293*
G37*
G36*
X06186Y01294D02*
X05608Y01293D01*
X05605Y01296*
Y02059*
X06186*
Y01294*
G37*
G36*
X0885Y01436D02*
X08623Y01209D01*
X08625Y01205*
X0842Y01*
X07779*
Y01213*
X07784Y01215*
X0779Y01209*
X08422*
X08421Y01211*
X08659Y0145*
X0885*
Y01436*
G37*
G36*
X0739Y02281D02*
Y01229D01*
X0767*
Y01*
X0739*
Y00998*
X07019*
Y02281*
X0739*
G37*
G36*
X0939Y0134D02*
Y01309D01*
Y0117*
X0892*
X08509Y00759*
X08301*
X083Y0076*
Y00779*
X07779*
Y00959*
X0842*
X08809Y0135*
X09379*
X0939Y0134*
G37*
G36*
X05346Y00959D02*
X0767D01*
Y0074*
X07666Y00737*
X05346Y0074*
Y0074*
X04911*
Y00741*
X04909*
Y00959*
X04911*
Y01875*
X05346*
Y00959*
G37*
G36*
X0939Y01129D02*
Y01109D01*
Y0097*
X09109*
X086Y00459*
X08312*
X08309Y00462*
Y00654*
X08504*
X08509Y00659*
X09Y0115*
X0937*
X0939Y01129*
G37*
G36*
X04851Y00659D02*
X07688D01*
Y00654*
X07732*
Y00659*
X07748*
Y00654*
X07791*
Y00659*
X08306*
X08309Y00656*
Y00462*
X08306Y00459*
X04851Y00461*
Y0046*
X04273Y00459*
X04272Y00461*
X0427*
Y00463*
Y02079*
X04851*
Y00659*
G37*
%LNlv1-2*%
%LPC*%
G36*
X01006Y04175D02*
X00994Y04174D01*
X00982Y0417*
X00971Y04164*
X00961Y04156*
X00953Y04147*
X00948Y04136*
X00944Y04124*
X00943Y04111*
X00944Y04099*
X00948Y04087*
X00953Y04076*
X00961Y04067*
X00971Y04059*
X00982Y04053*
X00994Y0405*
X01006Y04048*
X01018Y0405*
X01031Y04053*
X01041Y04059*
X01051Y04067*
X01059Y04076*
X01065Y04087*
X01068Y04099*
X0107Y04111*
X01068Y04124*
X01065Y04136*
X01059Y04147*
X01051Y04156*
X01041Y04164*
X01031Y0417*
X01018Y04174*
X01006Y04175*
G37*
G36*
X0915Y0395D02*
X0914Y03949D01*
X0913Y03945*
X09122Y03939*
X09116Y03931*
X09112Y03922*
X09111Y03912*
X09112Y03902*
X09116Y03892*
X09122Y03885*
X0913Y03879*
X0914Y03875*
X0915Y03874*
X09159Y03875*
X09169Y03879*
X09177Y03885*
X09183Y03892*
X09187Y03902*
X09188Y03912*
X09187Y03922*
X09183Y03931*
X09177Y03939*
X09169Y03945*
X09159Y03949*
X0915Y0395*
G37*
G36*
X00981Y03869D02*
X0097Y03868D01*
X00961Y03864*
X00953Y03858*
X00946Y0385*
X00942Y0384*
X00941Y03829*
X00942Y03819*
X00946Y0381*
X00953Y03801*
X00961Y03795*
X0097Y03791*
X00981Y0379*
X00991Y03791*
X01001Y03795*
X01009Y03801*
X01015Y0381*
X01019Y03819*
X0102Y03829*
X01019Y0384*
X01015Y0385*
X01009Y03858*
X01001Y03864*
X00991Y03868*
X00981Y03869*
G37*
G36*
Y03619D02*
X0097Y03618D01*
X00961Y03614*
X00953Y03608*
X00946Y036*
X00942Y0359*
X00941Y03579*
X00942Y03569*
X00946Y0356*
X00953Y03551*
X00961Y03545*
X0097Y03541*
X00981Y0354*
X00991Y03541*
X01001Y03545*
X01009Y03551*
X01015Y0356*
X01019Y03569*
X0102Y03579*
X01019Y0359*
X01015Y036*
X01009Y03608*
X01001Y03614*
X00991Y03618*
X00981Y03619*
G37*
G36*
Y03519D02*
X0097Y03518D01*
X00961Y03514*
X00953Y03508*
X00946Y035*
X00942Y0349*
X00941Y03479*
X00942Y03469*
X00946Y0346*
X00953Y03451*
X00961Y03445*
X0097Y03441*
X00981Y0344*
X00991Y03441*
X01001Y03445*
X01009Y03451*
X01015Y0346*
X01019Y03469*
X0102Y03479*
X01019Y0349*
X01015Y035*
X01009Y03508*
X01001Y03514*
X00991Y03518*
X00981Y03519*
G37*
G36*
X02601Y0349D02*
X02538D01*
Y03426*
X02544*
Y03387*
X02595*
Y03426*
X02601*
Y0349*
G37*
G36*
X06579Y03604D02*
X06573Y03603D01*
X06566Y03601*
X06561Y03597*
X06557Y03591*
X06555Y03585*
X06553Y03578*
X06555Y03572*
X06557Y03566*
X06561Y0356*
X06566Y03556*
Y03409*
X06563Y03409*
X06557Y03406*
X06551Y03402*
X06547Y03396*
X06544Y0339*
X06544Y03383*
X06544Y03377*
X06547Y0337*
X06551Y03365*
X06557Y03361*
X06563Y03359*
X06569Y03358*
X06576Y03359*
X06582Y03361*
X06588Y03365*
X06592Y0337*
X06594Y03377*
X06595Y03383*
X06594Y0339*
X06592Y03394*
Y03556*
X06598Y0356*
X06602Y03566*
X06604Y03572*
X06605Y03578*
X06604Y03585*
X06602Y03591*
X06598Y03597*
X06592Y03601*
X06586Y03603*
X06579Y03604*
G37*
G36*
X00981Y03359D02*
X0097Y03358D01*
X00961Y03354*
X00953Y03348*
X00946Y03339*
X00942Y0333*
X00941Y0332*
X00942Y03309*
X00946Y033*
X00953Y03291*
X00961Y03285*
X0097Y03281*
X00981Y0328*
X00991Y03281*
X01001Y03285*
X01009Y03291*
X01015Y033*
X01019Y03309*
X0102Y0332*
X01019Y0333*
X01015Y03339*
X01009Y03348*
X01001Y03354*
X00991Y03358*
X00981Y03359*
G37*
G36*
Y03259D02*
X0097Y03258D01*
X00961Y03254*
X00953Y03248*
X00946Y03239*
X00942Y0323*
X00941Y0322*
X00942Y03209*
X00946Y032*
X00953Y03191*
X00961Y03185*
X0097Y03181*
X00981Y0318*
X00991Y03181*
X01001Y03185*
X01009Y03191*
X01015Y032*
X01019Y03209*
X0102Y0322*
X01019Y0323*
X01015Y03239*
X01009Y03248*
X01001Y03254*
X00991Y03258*
X00981Y03259*
G37*
G36*
X06418Y03306D02*
X0641Y03305D01*
X06402Y03301*
X06395Y03296*
X0639Y03289*
X06387Y03281*
X06385Y03274*
X0634Y03228*
X06335Y0322*
X06333Y03211*
Y02987*
X06332Y02985*
X06328Y02977*
X06327Y02968*
X06328Y0296*
X06332Y02952*
X06337Y02945*
X06344Y0294*
X06352Y02937*
X06361Y02935*
X06369Y02937*
X06377Y0294*
X06384Y02945*
X06389Y02952*
X06392Y0296*
X06394Y02968*
X06392Y02977*
X06389Y02985*
X06384Y02992*
X06381Y02994*
Y03201*
X0642Y0324*
X06427Y0324*
X06435Y03244*
X06442Y03249*
X06447Y03256*
X0645Y03264*
X06451Y03273*
X0645Y03281*
X06447Y03289*
X06442Y03296*
X06435Y03301*
X06427Y03305*
X06418Y03306*
G37*
G36*
X05083Y03305D02*
X05075Y03303D01*
X05066Y033*
X0506Y03295*
X05054Y03288*
X05051Y0328*
X0505Y03273*
X05005Y03227*
X05Y03219*
X04998Y0321*
Y02985*
X04996Y02984*
X04993Y02976*
X04992Y02968*
X04993Y02959*
X04996Y02951*
X05002Y02944*
X05009Y02939*
X05016Y02935*
X05025Y02934*
X05034Y02935*
X05042Y02939*
X05049Y02944*
X05054Y02951*
X05057Y02959*
X05058Y02968*
X05057Y02976*
X05054Y02984*
X05049Y02991*
X05046Y02993*
Y032*
X05084Y03238*
X05092Y0324*
X051Y03243*
X05107Y03248*
X05112Y03255*
X05115Y03263*
X05116Y03272*
X05115Y0328*
X05112Y03288*
X05107Y03295*
X051Y033*
X05092Y03303*
X05083Y03305*
G37*
G36*
X01039Y02909D02*
X01D01*
X00981Y02889*
Y0285*
X01Y02831*
X01039*
X01059Y0285*
Y02889*
X01039Y02909*
G37*
G36*
Y02809D02*
X01D01*
X00981Y02789*
Y0275*
X01Y02731*
X01039*
X01059Y0275*
Y02789*
X01039Y02809*
G37*
G36*
Y02609D02*
X01D01*
X00981Y02589*
Y0255*
X01Y02531*
X01039*
X01059Y0255*
Y02589*
X01039Y02609*
G37*
G36*
Y02509D02*
X01D01*
X00981Y02489*
Y0245*
X01Y02431*
X01039*
X01059Y0245*
Y02489*
X01039Y02509*
G37*
G36*
X01218Y02322D02*
X01208Y02321D01*
X01198Y02317*
X01189Y0231*
X01183Y02301*
X01178Y02292*
X01177Y02281*
X01178Y0227*
X01183Y0226*
X01189Y02251*
X01198Y02244*
X01208Y0224*
X01218Y02239*
X01229Y0224*
X01239Y02244*
X01248Y02251*
X01255Y0226*
X01259Y0227*
X0126Y02281*
X01259Y02292*
X01255Y02301*
X01248Y0231*
X01239Y02317*
X01229Y02321*
X01218Y02322*
G37*
G36*
X0915Y0315D02*
X0914Y03149D01*
X0913Y03145*
X09122Y03139*
X09116Y03131*
X09112Y03122*
X09111Y03112*
X09112Y03102*
X09116Y03092*
X09122Y03085*
X0913Y03079*
X0914Y03075*
X0915Y03074*
X09159Y03075*
X09169Y03079*
X09177Y03085*
X09183Y03092*
X09187Y03102*
X09188Y03112*
X09187Y03122*
X09183Y03131*
X09177Y03139*
X09169Y03145*
X09159Y03149*
X0915Y0315*
G37*
G36*
Y0305D02*
X0914Y03049D01*
X0913Y03045*
X09122Y03039*
X09116Y03031*
X09112Y03022*
X09111Y03012*
X09112Y03002*
X09116Y02992*
X09122Y02985*
X0913Y02979*
X0914Y02975*
X0915Y02974*
X09159Y02975*
X09169Y02979*
X09177Y02985*
X09183Y02992*
X09187Y03002*
X09188Y03012*
X09187Y03022*
X09183Y03031*
X09177Y03039*
X09169Y03045*
X09159Y03049*
X0915Y0305*
G37*
%LNlv1-3*%
%LPD*%
G54D10*
X07769Y00679D03*
X0771D03*
X07769Y0129D03*
X0771D03*
X0232Y03059D03*
X02379D03*
X022Y03079D03*
X02259D03*
X01979Y0382D03*
X0192D03*
X02009Y0387D03*
X0195D03*
G54D11*
X07623Y0085D03*
X07816D03*
Y01109D03*
X07623D03*
G54D24*
X01122Y02673D03*
X01177D03*
X02637Y038D03*
X02582D03*
X02637Y0372D03*
X02582D03*
G54D30*
X0144Y02305D03*
Y02115D03*
X02Y02464D03*
Y02275D03*
G54D31*
X07529Y01312D03*
Y01206D03*
X0812Y01312D03*
Y01206D03*
X0824Y01312D03*
Y01206D03*
X08Y01312D03*
Y01206D03*
X07409Y00753D03*
Y00646D03*
X08009Y00773D03*
Y00666D03*
X08129Y00773D03*
Y00666D03*
X08249Y00773D03*
Y00666D03*
G54D32*
X01759Y03392D03*
Y03447D03*
X0251Y03527D03*
Y03472D03*
X0162Y02227D03*
Y02172D03*
G54D33*
X03775Y02407D03*
Y02257D03*
X07845Y02407D03*
Y02257D03*
G54D34*
X0115Y0066D03*
Y00719D03*
X0122Y0066D03*
Y00719D03*
X00929Y0077D03*
Y00829D03*
X0902Y0254D03*
Y02599D03*
X08961Y02641D03*
Y02582D03*
X09009Y0276D03*
Y02819D03*
X0895Y02859D03*
Y028D03*
X0257Y0335D03*
Y03409D03*
G54D46*
X0104Y0069D02*
X012Y00529D01*
X0104Y0069D02*
X01059D01*
X01979Y03321D02*
X02078D01*
X02085Y03314D02*
X02437D01*
X02078Y03321D02*
X02085Y03314D01*
X01924Y03264D02*
X02388D01*
X02437Y03314D02*
D01*
X02067Y03294D02*
X02437D01*
X01118Y02411D02*
Y02673D01*
X01122*
X01023D02*
X01118D01*
X029Y022D02*
Y0245D01*
X0414Y022D02*
X04879D01*
X05046Y02033*
X0542*
X00929Y00579D02*
X01009Y005D01*
X00929Y00579D02*
Y00766D01*
X0235Y038D02*
X02582D01*
X02337Y03787D02*
X0235Y038D01*
X02258Y03749D02*
Y03826D01*
X02238Y03749D02*
Y03838D01*
X02278Y03749D02*
Y03818D01*
X02298Y03798D02*
Y03805D01*
Y03798D02*
D01*
Y03749D02*
Y03798D01*
X02337Y03749D02*
Y03787D01*
X0119Y0057D02*
X03262D01*
X03462Y01309D02*
X03845Y01692D01*
X00971Y01309D02*
X03462D01*
X02437Y03275D02*
D01*
X024D02*
X02437D01*
X09193Y02594D02*
Y02655D01*
X08376Y02759D02*
X08512Y02624D01*
X09131Y02655D02*
X09155D01*
X09119Y02644D02*
X09131Y02655D01*
X0852Y02644D02*
X09119D01*
X08384Y02779D02*
X0852Y02644D01*
X08392Y028D02*
X08528Y02663D01*
X084Y0282D02*
X08536Y02683D01*
X08538Y0284D02*
X08575Y02802D01*
X08518Y02859D02*
X08538Y02879D01*
X08392D02*
X08505Y02992D01*
X08303Y029D02*
X08455Y03052D01*
X0195Y02929D02*
Y0307D01*
X01983Y03103*
Y03155*
X0197Y0295D02*
Y03059D01*
X02002Y03092*
Y03155*
X0175Y02909D02*
Y0292D01*
X01679Y02921D02*
Y02967D01*
X0159Y02899D02*
Y02946D01*
Y02946D02*
Y02946D01*
X0161Y02907D02*
Y02938D01*
X01609Y02938D02*
X0161Y02938D01*
X0163Y02914D02*
Y0293D01*
X01629Y02931D02*
X0163Y0293D01*
X02534Y03314D02*
X0257Y0335D01*
X02437Y03314D02*
X02534D01*
X02399Y03649D02*
X02437D01*
X0219Y03D02*
Y03069D01*
X022Y03079*
X02269Y03D02*
Y03059D01*
X02259Y03068D02*
X02269Y03059D01*
X02259Y03068D02*
Y03079D01*
X02238Y031D02*
X02259Y03079D01*
X02238Y031D02*
Y03155D01*
X022Y03079D02*
X02219Y03098D01*
Y03155*
X0115Y00609D02*
Y0066D01*
Y00609D02*
X0119Y0057D01*
X0122Y00719D02*
Y0096D01*
X00971Y01209D02*
X0122Y0096D01*
X0159Y02899D02*
X01729Y02759D01*
X0161Y02907D02*
X01737Y02779D01*
X0163Y02914D02*
X01745Y028D01*
X0165Y02923D02*
X01753Y0282D01*
X01679Y02921D02*
X01761Y0284D01*
X0175Y02909D02*
X018Y02859D01*
X0195Y02929D02*
X02Y02879D01*
X0197Y0295D02*
X0202Y029D01*
X02066*
X02132Y02833*
X08179*
X08246Y029*
X08303*
X02Y02879D02*
X02058D01*
X02124Y02813*
X08188*
X08254Y02879*
X08392*
X018Y02859D02*
X0205D01*
X02116Y02794*
X08196*
X08262Y02859*
X08518*
X01761Y0284D02*
X02042D01*
X02108Y02774*
X08204*
X0827Y0284*
X08538*
X01753Y0282D02*
X02034D01*
X021Y02754*
X08212*
X08277Y0282*
X084*
X01745Y028D02*
X02026D01*
X02091Y02735*
X0822*
X08285Y028*
X08392*
X01737Y02779D02*
X02018D01*
X02083Y02715*
X08228*
X08293Y02779*
X08384*
X01729Y02759D02*
X02011D01*
X02075Y02695*
X08237*
X08301Y02759*
X08376*
X02317Y03612D02*
Y03749D01*
Y03612D02*
X02359Y0357D01*
X0237Y0362D02*
D01*
X02399Y03649*
X0237Y0367D02*
X0237Y03668D01*
X02437D01*
X01779Y03609D02*
X01843D01*
X01609Y03629D02*
X01668Y03688D01*
X01629Y0362D02*
X01679Y03668D01*
X0165Y03609D02*
X01689Y03649D01*
X0159Y02946D02*
Y03637D01*
X01609Y02938D02*
Y03629D01*
X01629Y02931D02*
Y0362D01*
X0165Y02923D02*
Y03609D01*
X0169Y03579D02*
X0175D01*
X01779Y03609*
X01701Y03749D02*
X01904D01*
X0159Y03637D02*
X01701Y03749D01*
X01668Y03688D02*
X01843D01*
X01679Y03668D02*
X01843D01*
X01689Y03649D02*
X01843D01*
X01759Y03629D02*
X01843D01*
X01738Y03609D02*
X01759Y03629D01*
X02388Y03264D02*
X024Y03275D01*
X02238Y03838D02*
X023Y039D01*
X0764*
X0772Y0382*
X02258Y03826D02*
X02312Y0388D01*
X02278Y03818D02*
X0232Y0386D01*
X045*
X02298Y03805D02*
X02333Y0384D01*
X03649*
X03679Y03809*
X09175Y02855D02*
X09259Y0294D01*
Y03022*
X09185Y02755D02*
X0929Y02859D01*
Y02952*
X09155Y02655D02*
X09306Y02806D01*
Y0283*
X09193Y02655D02*
X0935Y02812D01*
Y02874D02*
Y02912D01*
X09306Y0283D02*
X0935Y02874D01*
X0929Y02952D02*
X0935Y03012D01*
X09259Y03022D02*
X0935Y03112D01*
X08528Y02663D02*
X08894D01*
X08986Y02755*
X09185*
X08536Y02683D02*
X08713D01*
X08885Y02855*
X09175*
X08512Y02624D02*
X08706D01*
X0879Y0254*
X09115*
X09131Y02555*
X09155*
X09193Y02594*
X01029Y02145D02*
X0112Y02054D01*
X01029Y02145D02*
Y02323D01*
X01118Y02411*
X012Y00529D02*
X03459D01*
X01009Y005D02*
X0349D01*
X03459Y00529D02*
X0409Y01159D01*
X0417*
X0349Y005D02*
X04409D01*
X03262Y0057D02*
X03912Y0122D01*
X0414*
X05479Y01159D02*
X06224D01*
X06455Y0139*
X03049Y0066D02*
X0305Y00659D01*
X0122Y0066D02*
X03049D01*
X0125Y01259D02*
X0422D01*
X02312Y0388D02*
X04589D01*
X04609Y03859*
X045Y0386D02*
X0454Y0382D01*
X0592*
X0595Y0385*
X00971Y00898D02*
X0115Y00719D01*
X00971Y00898D02*
Y00959D01*
G54D47*
X01931Y03238D02*
X02242D01*
X02249Y03245*
X01118Y02673D02*
X01161Y0263D01*
X01282*
X01943Y03706D02*
X02174Y03475D01*
X023*
X02305Y0348*
X0232Y0301D02*
X0238Y0295D01*
X0754Y0355D02*
X07779Y03309D01*
X03577Y03451D02*
X03729Y033D01*
X02707Y03451D02*
X03577D01*
X01925Y03699D02*
Y03748D01*
X01924Y03749D02*
X01925Y03748D01*
X01943Y03706D02*
Y03749D01*
X0915Y03512D02*
X0935D01*
X02067Y0295D02*
Y03007D01*
X0205Y03024D02*
X02067Y03007D01*
X0205Y03024D02*
Y03079D01*
X0915Y03412D02*
X0935D01*
X02071Y02918D02*
X02072Y0292D01*
X0205Y0294D02*
X02071Y02918D01*
X0205Y0294D02*
Y02999D01*
X02009Y03039D02*
X0205Y02999D01*
X08538Y02879D02*
X08551D01*
X02009Y03043D02*
X02022Y03055D01*
X0257Y03409D02*
Y03458D01*
X0251Y03472D02*
X0257Y03531D01*
X02491Y03491D02*
X0251Y03472D01*
X02437Y03491D02*
X02491D01*
X02494Y03511D02*
X0251Y03527D01*
X02437Y03511D02*
X02494D01*
X01805Y03433D02*
X01842D01*
X01795Y03444D02*
X01805Y03433D01*
X0192Y0382D02*
X01923Y03817D01*
Y0375D02*
Y03817D01*
Y0375D02*
X01924Y03749D01*
X01943Y03863D02*
X0195Y0387D01*
X01943Y03846D02*
Y03863D01*
Y03846D02*
X01947Y03842D01*
Y03796D02*
Y03842D01*
X01943Y03793D02*
X01947Y03796D01*
X01943Y03749D02*
Y03793D01*
X02009Y03842D02*
Y0387D01*
X01983Y03749D02*
Y03816D01*
X02022Y03055D02*
Y03155D01*
X02042Y03088D02*
X0205Y03079D01*
X02042Y03088D02*
Y03155D01*
X02332Y03106D02*
X02379Y03059D01*
X02309Y03106D02*
X02332D01*
X02299Y03117D02*
X02309Y03106D01*
X02299Y03117D02*
Y03154D01*
X02298Y03155D02*
X02299Y03154D01*
X0232Y03059D02*
Y03068D01*
X02278Y0311D02*
X0232Y03068D01*
X02278Y0311D02*
Y03155D01*
X01702Y03007D02*
X0189Y03197D01*
X02067Y0295D02*
X02148Y0287D01*
X08164*
X02072Y0292D02*
D01*
X0214Y02851*
X08172*
X02298Y03155D02*
Y03223D01*
X01805Y03412D02*
X01842D01*
X0177Y03392D02*
X01786D01*
X01805Y03412*
X0177Y03447D02*
X01772Y03444D01*
X01795*
X01983Y03816D02*
X02009Y03842D01*
X02174Y0345D02*
X0227D01*
X01925Y03699D02*
X02174Y0345D01*
X0189Y03197D02*
X01931Y03238D01*
X02249Y03245D02*
X02276D01*
X02298Y03223*
X0232Y0301D02*
Y03059D01*
X08732Y03412D02*
X0915D01*
X08172Y02851D02*
X08732Y03412D01*
X08807Y03512D02*
X0915D01*
X08164Y0287D02*
X08807Y03512D01*
X05234Y03382D02*
X05244Y03392D01*
Y03577*
X03577Y03451D02*
X05056D01*
X0523Y03626*
X06742Y03627D02*
X0682Y0355D01*
X0754*
X06569Y03383D02*
X06579Y03394D01*
Y03578*
X0542Y0366D02*
X05431Y0365D01*
X0672*
X06742Y03627*
X0523Y03626D02*
X05237Y0362D01*
X054*
X02679Y03479D02*
X04909D01*
X0509Y0366*
X0542*
G54D48*
X05509Y02003D02*
Y02459D01*
X0545Y01943D02*
X05509Y02003D01*
X0264Y02429D02*
Y0244D01*
Y02429D02*
X0282Y0225D01*
X042D02*
X04929D01*
X05Y02179*
X05409*
X0238Y0295D02*
X02629Y032D01*
Y03609*
X02579Y03659D02*
X02629Y03609D01*
X01702Y03392D02*
X01759D01*
X00909Y00849D02*
X00929Y00829D01*
X00909Y00849D02*
Y01398D01*
X00971Y01459*
G54D49*
X02329Y03979D02*
Y0402D01*
X08997Y02819D02*
X09009D01*
X08978Y028D02*
X08997Y02819D01*
X0895Y028D02*
X08978D01*
X09001Y02599D02*
X0902D01*
X08984Y02582D02*
X09001Y02599D01*
X08961Y02582D02*
X08984D01*
X08867D02*
X08961D01*
X08899Y0275D02*
X0895Y028D01*
G54D50*
X0162Y02227D02*
Y02289D01*
X02119Y03979D02*
X02329D01*
X0241Y0372D02*
X02582D01*
X02381Y03749D02*
X0241Y0372D01*
X02009Y0387D02*
X02119Y03979D01*
X02582Y03662D02*
Y0372D01*
X02579Y03659D02*
X02582Y03662D01*
X0251Y0359D02*
X02579Y03659D01*
X0251Y03527D02*
Y0359D01*
X02579Y03659D02*
X0375D01*
X0379Y037*
X04536Y03723D02*
X04576Y03683D01*
X05872Y03724D02*
X05911Y03684D01*
G54D51*
X07769Y01279D02*
X07816Y01233D01*
Y01109D02*
Y01233D01*
X07623Y01109D02*
X07629Y01116D01*
Y01199*
X0771Y01279*
X07816Y00726D02*
Y0085D01*
X07769Y00679D02*
X07816Y00726D01*
X07623Y00766D02*
Y0085D01*
Y00766D02*
X0771Y00679D01*
G54D52*
X08705Y03097D02*
Y03162D01*
Y03097D02*
X08759Y03042D01*
Y02796D02*
Y03042D01*
X08702Y02739D02*
X08759Y02796D01*
X0379Y037D02*
X0784D01*
X09529Y00393D02*
Y0433D01*
X06809Y00393D02*
X09529D01*
X00879D02*
X06809D01*
X00866Y00407D02*
X00879Y00393D01*
X00866Y00407D02*
Y00409D01*
Y04329*
X00866Y0433D02*
X09529D01*
G54D54*
X02142Y04109D02*
X02327D01*
X0915Y01512D02*
X0935D01*
X0915Y01412D02*
X0935D01*
X0915Y01812D02*
Y01912D01*
X0935*
Y01812D02*
Y01912D01*
X0915Y01612D02*
Y01712D01*
X0935*
Y01612D02*
Y01712D01*
X0825Y0112D02*
X08379D01*
X08672Y01412*
X0915*
X0819Y01459D02*
X0825D01*
X08302Y01512*
X0915*
Y00912D02*
X0935D01*
X0915Y00812D02*
X0935D01*
G54D55*
X05022Y02971D02*
Y0321D01*
X05083Y03272*
X06357Y03211D02*
X06418Y03273D01*
X06357Y02972D02*
Y03211D01*
G54D57*
X0102Y0247D03*
X0092D03*
X0102Y0257D03*
X0092D03*
X0102Y0267D03*
X0092D03*
Y0277D03*
X0102D03*
Y0287D03*
X0092D03*
G54D58*
X01006Y00612D03*
Y04111D03*
G54D59*
X00981Y03829D03*
Y03729D03*
Y0322D03*
Y0332D03*
Y03479D03*
Y03579D03*
X00971Y01709D03*
Y01809D03*
Y01459D03*
Y01559D03*
Y01209D03*
Y01309D03*
Y00959D03*
Y01059D03*
G54D60*
X0945Y00612D03*
Y04112D03*
G54D61*
X0915Y00812D03*
Y00912D03*
Y01012D03*
Y01112D03*
Y01212D03*
Y01312D03*
Y01412D03*
Y01512D03*
Y01612D03*
Y01712D03*
Y01812D03*
Y01912D03*
Y02012D03*
Y02112D03*
Y02212D03*
Y02312D03*
Y02412D03*
Y02512D03*
Y02612D03*
Y02712D03*
Y02812D03*
Y02912D03*
Y03012D03*
Y03112D03*
Y03212D03*
Y03312D03*
Y03412D03*
Y03512D03*
Y03612D03*
Y03712D03*
Y03812D03*
Y03912D03*
X0935Y00812D03*
Y00912D03*
Y01012D03*
Y01112D03*
Y01212D03*
Y01312D03*
Y01412D03*
Y01512D03*
Y01612D03*
Y01712D03*
Y01812D03*
Y01912D03*
Y02012D03*
Y02112D03*
Y02212D03*
Y02312D03*
Y02412D03*
Y02512D03*
Y02612D03*
Y02712D03*
Y02812D03*
Y02912D03*
Y03012D03*
Y03112D03*
Y03212D03*
Y03312D03*
Y03412D03*
Y03512D03*
Y03612D03*
Y03712D03*
Y03812D03*
Y03912D03*
X0112Y02231D03*
Y02054D03*
G54D62*
X01218Y02005D03*
Y02281D03*
G54D63*
X0712Y0179D03*
Y01859D03*
Y01929D03*
Y02009D03*
Y02079D03*
X01059Y0069D03*
X0264Y0244D03*
X029Y0245D03*
Y022D03*
X0282Y0225D03*
X0414Y022D03*
X042Y0225D03*
X01979Y0257D03*
X0192D03*
X07779Y03309D03*
X03729Y033D03*
X0772Y0382D03*
X03679Y03809D03*
X08645Y03152D03*
X08695Y02942D03*
X08455Y03052D03*
X08505Y02992D03*
X03255Y03052D03*
X07065Y01752D03*
Y01822D03*
Y01892D03*
Y01972D03*
Y02042D03*
Y02112D03*
X08535Y02882D03*
X08575Y02802D03*
X08705Y03162D03*
X08702Y02739D03*
X02579Y03659D03*
X01702Y03392D03*
X0119Y02479D03*
X02375Y0295D03*
X07929Y03859D03*
X02329Y03979D03*
X08867Y02582D03*
X08899Y0275D03*
X046Y03379D03*
X05083Y03272D03*
X05025Y02968D03*
X04809Y017D03*
X0474D03*
X0467D03*
X046D03*
X04529D03*
X04459D03*
X0439D03*
X04429Y0164D03*
X045D03*
X0457D03*
X0464D03*
X04709D03*
X044Y01579D03*
X0447D03*
X0454D03*
X04609D03*
X04679D03*
X0475D03*
X05Y0159D03*
Y01529D03*
Y0147D03*
Y01409D03*
X05059Y0139D03*
X0512D03*
X0524Y0159D03*
X05309D03*
X0524Y01529D03*
X05309D03*
Y0147D03*
X0524D03*
X05179Y0139D03*
X05309Y01409D03*
X0524D03*
X0449Y0152D03*
X0442D03*
X0449Y0145D03*
X0442D03*
X0449Y01379D03*
X0442D03*
X05755Y01381D03*
X05825D03*
X05755Y01451D03*
X05825D03*
X05755Y01521D03*
X05825D03*
X06575Y01411D03*
X06645D03*
X06515Y0139D03*
X06575Y01471D03*
X06645D03*
Y01531D03*
X06575D03*
X06645Y0159D03*
X06575D03*
X06455Y0139D03*
X06395D03*
X06335Y01411D03*
Y01471D03*
Y01531D03*
Y0159D03*
X06085Y01581D03*
X06015D03*
X05945D03*
X05875D03*
X05805D03*
X05735D03*
X06045Y0164D03*
X05975D03*
X05905D03*
X05835D03*
X05765D03*
X05725Y01701D03*
X05795D03*
X05865D03*
X05935D03*
X06005D03*
X06075D03*
X06145D03*
X06361Y02968D03*
X06418Y03273D03*
X06742Y03627D03*
X05935Y03381D03*
X077Y0169D03*
X0764D03*
X07529Y0185D03*
X0765D03*
Y01909D03*
X0417Y01159D03*
X0414Y0122D03*
X05479Y01159D03*
X0305Y00659D03*
X0422Y01259D03*
X0415Y03779D03*
X0595Y0385D03*
X04609Y03859D03*
X0722Y0329D03*
X0125Y01259D03*
X054Y0362D03*
X07759Y0169D03*
X0782D03*
X07879D03*
X0794D03*
X08D03*
X08059D03*
Y0175D03*
X08D03*
X0794D03*
Y01809D03*
X08D03*
X08059D03*
X07579Y0169D03*
X0759Y0185D03*
Y01909D03*
X0399Y01679D03*
X03929D03*
X0387D03*
Y0174D03*
Y018D03*
X03929Y0174D03*
Y018D03*
X0399D03*
Y0174D03*
X03809Y01679D03*
X0374D03*
X0367D03*
X036D03*
Y0174D03*
X0354D03*
X03479D03*
X0354Y01679D03*
X036Y01879D03*
X0354D03*
X01859Y0257D03*
G54D64*
X01979Y0332D03*
X02067Y03294D03*
X02305Y0348D03*
X02707Y03451D03*
X0175Y0292D03*
X01679Y02967D03*
X01702Y03007D03*
X01282Y0263D03*
X02359Y0357D03*
X02679Y03479D03*
X0227Y0345D03*
X0237Y0367D03*
Y0362D03*
X0169Y03579D03*
X01739Y03608D03*
X02259Y0322D03*
X01924Y03264D03*
G54D65*
X03535Y03229D03*
X07585D03*
G54D66*
X06228Y03701D03*
X05018D03*
X0379Y037D03*
X0784D03*
X0542Y02033D03*
X0545Y01943D03*
X04576Y03683D03*
X05911Y03684D03*
X05409Y02179D03*
G54D67*
X05244Y03577D03*
X05234Y03382D03*
X05389Y03377D03*
X05069Y03587D03*
X06405Y03588D03*
X06725Y03378D03*
X06569Y03383D03*
X06579Y03578D03*
G54D68*
X01716Y02544D03*
G54D69*
X01626Y02296D03*
X01716D03*
X01807D03*
G54D70*
X02437Y03688D03*
Y03668D03*
Y03649D03*
Y03629D03*
Y03609D03*
Y0359D03*
Y0357D03*
Y0355D03*
Y03531D03*
Y03511D03*
Y03491D03*
Y03472D03*
Y03452D03*
Y03432D03*
Y03412D03*
Y03393D03*
Y03373D03*
Y03353D03*
Y03334D03*
Y03314D03*
Y03294D03*
Y03275D03*
Y03255D03*
Y03235D03*
Y03216D03*
X01843D03*
Y03235D03*
Y03255D03*
Y03275D03*
Y03294D03*
Y03314D03*
Y03334D03*
Y03353D03*
Y03373D03*
Y03393D03*
Y03412D03*
Y03432D03*
Y03452D03*
Y03472D03*
Y03491D03*
Y03511D03*
Y03531D03*
Y0355D03*
Y0357D03*
Y0359D03*
Y03609D03*
Y03629D03*
Y03649D03*
Y03668D03*
Y03688D03*
G54D71*
X02376Y03155D03*
X02357D03*
X02337D03*
X02317D03*
X02298D03*
X02278D03*
X02258D03*
X02238D03*
X02219D03*
X02199D03*
X02179D03*
X0216D03*
X0214D03*
X0212D03*
X02101D03*
X02081D03*
X02061D03*
X02042D03*
X02022D03*
X02002D03*
X01983D03*
X01963D03*
X01943D03*
X01924D03*
X01904D03*
Y03749D03*
X01924D03*
X01943D03*
X01963D03*
X01983D03*
X02002D03*
X02022D03*
X02042D03*
X02061D03*
X02081D03*
X02101D03*
X0212D03*
X0214D03*
X0216D03*
X02179D03*
X02199D03*
X02219D03*
X02238D03*
X02258D03*
X02278D03*
X02298D03*
X02317D03*
X02337D03*
X02357D03*
X02376D03*
G54D72*
X01997Y04109D03*
X02142D03*
G54D73*
X0257Y03458D03*
Y03542D03*
G54D74*
X02269Y03D03*
X02229D03*
X0219D03*
G54D75*
X02492Y04109D03*
X02327D03*
G54D76*
X0144Y02305D02*
X01617D01*
X0144D02*
Y0397D01*
X01679Y04209*
X021*
X02142Y04167*
Y04109D02*
Y04167D01*
X02492Y04109D02*
X02532Y0407D01*
X0915Y03712D02*
X0935D01*
X02532Y0407D02*
X08792D01*
X0915Y03712*
M02*