%FSTAX23Y23*%
%MOIN*%
%SFA1B1*%

%IPPOS*%
%ADD11R,0.027559X0.035433*%
%ADD15R,0.031496X0.035433*%
%ADD17R,0.102362X0.043307*%
%ADD23R,0.035433X0.027559*%
%ADD24R,0.035433X0.031496*%
%ADD32R,0.129921X0.055118*%
%ADD33R,0.055905X0.118897*%
%ADD44R,0.078740X0.137795*%
%ADD50C,0.019685*%
%ADD67R,0.061024X0.129921*%
%ADD68R,0.027953X0.079134*%
%ADD69R,0.048031X0.048031*%
%ADD70R,0.059842X0.085827*%
%ADD71O,0.011811X0.070866*%
%ADD72O,0.070866X0.011811*%
%ADD73R,0.059055X0.078740*%
%ADD74R,0.149606X0.078740*%
%LNlv1-1*%
%LPD*%
G54D11*
X0195Y0387D03*
X02009D03*
X0192Y0382D03*
X01979D03*
X02259Y03079D03*
X022D03*
X02379Y03059D03*
X0232D03*
X0771Y0129D03*
X07769D03*
X0771Y00679D03*
X07769D03*
G54D15*
X02582Y0372D03*
X02637D03*
X02582Y038D03*
X02637D03*
X01177Y02853D03*
X01122D03*
G54D17*
X08249Y00666D03*
Y00773D03*
X08129Y00666D03*
Y00773D03*
X08009Y00666D03*
Y00773D03*
X07409Y00646D03*
Y00753D03*
X08Y01206D03*
Y01312D03*
X0824Y01206D03*
Y01312D03*
X0812Y01206D03*
Y01312D03*
X07529Y01206D03*
Y01312D03*
G54D23*
X0257Y03409D03*
Y0335D03*
X0895Y028D03*
Y02859D03*
X09009Y02819D03*
Y0276D03*
X08961Y02582D03*
Y02641D03*
X0902Y02599D03*
Y0254D03*
X00929Y00829D03*
Y0077D03*
X0122Y00719D03*
Y0066D03*
X0115Y00719D03*
Y0066D03*
G54D24*
X0162Y02172D03*
Y02227D03*
X0251Y03472D03*
Y03527D03*
X01759Y03447D03*
Y03392D03*
G54D32*
X07845Y02257D03*
Y02407D03*
X03775Y02257D03*
Y02407D03*
G54D33*
X02Y02275D03*
Y02464D03*
X0144Y02115D03*
Y02305D03*
G54D44*
X07623Y01109D03*
X07816D03*
Y0085D03*
X07623D03*
G54D50*
X00866Y0433D02*
X09529D01*
X00866Y00409D02*
Y04329D01*
Y00407D02*
Y00409D01*
Y00407D02*
X00879Y00393D01*
X06809*
X09529*
Y0433*
G54D67*
X02327Y04109D03*
X02492D03*
G54D68*
X0219Y03D03*
X02229D03*
X02269D03*
G54D69*
X0257Y03542D03*
Y03458D03*
G54D70*
X02142Y04109D03*
X01997D03*
G54D71*
X02376Y03749D03*
X02357D03*
X02337D03*
X02317D03*
X02298D03*
X02278D03*
X02258D03*
X02238D03*
X02219D03*
X02199D03*
X02179D03*
X0216D03*
X0214D03*
X0212D03*
X02101D03*
X02081D03*
X02061D03*
X02042D03*
X02022D03*
X02002D03*
X01983D03*
X01963D03*
X01943D03*
X01924D03*
X01904D03*
Y03155D03*
X01924D03*
X01943D03*
X01963D03*
X01983D03*
X02002D03*
X02022D03*
X02042D03*
X02061D03*
X02081D03*
X02101D03*
X0212D03*
X0214D03*
X0216D03*
X02179D03*
X02199D03*
X02219D03*
X02238D03*
X02258D03*
X02278D03*
X02298D03*
X02317D03*
X02337D03*
X02357D03*
X02376D03*
G54D72*
X01843Y03688D03*
Y03668D03*
Y03649D03*
Y03629D03*
Y03609D03*
Y0359D03*
Y0357D03*
Y0355D03*
Y03531D03*
Y03511D03*
Y03491D03*
Y03472D03*
Y03452D03*
Y03432D03*
Y03412D03*
Y03393D03*
Y03373D03*
Y03353D03*
Y03334D03*
Y03314D03*
Y03294D03*
Y03275D03*
Y03255D03*
Y03235D03*
Y03216D03*
X02437D03*
Y03235D03*
Y03255D03*
Y03275D03*
Y03294D03*
Y03314D03*
Y03334D03*
Y03353D03*
Y03373D03*
Y03393D03*
Y03412D03*
Y03432D03*
Y03452D03*
Y03472D03*
Y03491D03*
Y03511D03*
Y03531D03*
Y0355D03*
Y0357D03*
Y0359D03*
Y03609D03*
Y03629D03*
Y03649D03*
Y03668D03*
Y03688D03*
G54D73*
X01807Y02296D03*
X01716D03*
X01626D03*
G54D74*
X01716Y02544D03*
M02*