%FSTAX23Y23*%
%MOMM*%
%SFA1B1*%

%IPPOS*%
%AMD15*
4,1,4,-0.530860,-1.305560,1.305560,0.530860,0.530860,1.305560,-1.305560,-0.530860,-0.530860,-1.305560,0.0*
%
%AMD49*
4,1,8,0.393700,0.784860,-0.393700,0.784860,-0.784860,0.393700,-0.784860,-0.393700,-0.393700,-0.784860,0.393700,-0.784860,0.784860,-0.393700,0.784860,0.393700,0.393700,0.784860,0.0*
%
%ADD10R,0.699999X0.899998*%
%ADD11R,0.899998X0.699999*%
%ADD12R,3.499993X1.999996*%
%ADD13R,1.999996X3.499993*%
%ADD14R,2.599995X1.099998*%
G04~CAMADD=15~9~0.0~0.0~1023.6~433.1~0.0~0.0~0~0.0~0.0~0.0~0.0~0~0.0~0.0~0.0~0.0~0~0.0~0.0~0.0~225.0~1028.0~1027.0*
%ADD15D15*%
%ADD16R,3.299993X1.399997*%
%ADD17R,1.099998X2.599995*%
%ADD18R,0.759998X1.139998*%
%ADD19R,2.999994X2.259995*%
%ADD20R,1.799996X2.099996*%
%ADD21R,0.799998X0.899998*%
%ADD22R,1.699997X1.099998*%
%ADD23R,1.169998X1.879996*%
%ADD24R,1.199998X1.199998*%
%ADD25R,1.519997X2.179996*%
%ADD26R,3.099994X3.999992*%
%ADD27R,3.359993X4.859990*%
%ADD28R,1.389997X1.399997*%
%ADD29R,3.199994X1.799996*%
%ADD30R,1.399997X1.099998*%
%ADD31R,3.299993X1.549997*%
%ADD32O,0.999998X0.549999*%
%ADD33R,0.999998X0.549999*%
%ADD34R,0.899998X0.799998*%
%ADD35R,1.419997X3.019994*%
%ADD36R,1.399997X0.799998*%
%ADD37O,1.399997X0.799998*%
%ADD38R,8.129984X5.539989*%
%ADD39O,8.129984X1.519997*%
%ADD40R,8.129984X1.519997*%
%ADD41C,0.499999*%
%ADD42C,0.299999*%
%ADD43C,0.509999*%
%ADD44C,0.299999*%
%ADD45C,0.250000*%
%ADD46C,0.749999*%
%ADD47C,0.699999*%
%ADD48C,0.999998*%
G04~CAMADD=49~4~0.0~0.0~618.1~618.1~0.0~154.5~0~0.0~0.0~0.0~0.0~0~0.0~0.0~0.0~0.0~0~0.0~0.0~0.0~0.0~618.1~618.1*
%ADD49D49*%
%ADD50C,1.699997*%
%ADD51C,1.519997*%
%ADD52C,1.599997*%
%ADD53C,1.269997*%
%ADD54C,0.899998*%
%ADD55C,0.799998*%
%LNlv1-1*%
%LPD*%
G36*
X123189Y49279D02*
X115569D01*
Y53849*
X123189*
Y49279*
G37*
G36*
X92459D02*
X84839D01*
Y53849*
X92459*
Y49279*
G37*
G36*
X64259Y55629D02*
X55119D01*
X53849*
X50799Y51309*
X50039*
Y53349*
X50159Y53429*
X50939Y54209*
X51059Y54399*
X51099Y54579*
X51199*
Y55369*
X51309*
Y56219*
X51289Y56239*
X51329Y56309*
X51349Y56389*
Y57959*
X52829*
X52909Y57979*
X52979Y58019*
X53019Y58089*
X53039Y58169*
Y60199*
Y62989*
X53019Y63069*
X52979Y63139*
X52909Y63179*
X52829Y63199*
X52759*
X52689Y63299*
X53539Y65359*
X53549Y65379*
Y65399*
Y65419*
X53559Y65439*
X53549Y65459*
Y65479*
Y65489*
X53539Y65509*
X53529Y65529*
X53519Y65549*
X53449Y65649*
X53439Y65669*
X53429Y65689*
X53409Y65699*
X53399Y65709*
X53379Y65719*
X53359Y65729*
X53339*
X53319Y65739*
X53299*
X53279*
X48659*
Y66279*
X48739Y66379*
X48819Y66579*
X48849Y66799*
X48819Y67019*
X48739Y67219*
X48599Y67399*
X48429Y67529*
X48219Y67619*
X48009Y67639*
X47789Y67619*
X47579Y67529*
X47409Y67399*
X47279Y67219*
X47189Y67019*
X47159Y66799*
X47189Y66579*
X47279Y66379*
X47359Y66279*
Y65119*
X47919*
X48009Y65009*
X47999Y64939*
X47969Y64919*
X47359*
Y63719*
X47289Y63629*
X47099Y63449*
X47029Y63339*
X46979Y63259*
X46959Y63159*
X46949Y63119*
X46919Y62999*
Y61719*
X45719*
Y70869*
X64259*
Y55629*
G37*
G36*
X154429Y49279D02*
X146809D01*
Y53849*
X154429*
Y49279*
G37*
G36*
X61209D02*
X53589D01*
Y53849*
X61209*
Y49279*
G37*
G36*
X95499Y55119D02*
Y48769D01*
X92709*
Y55119*
X95499*
G37*
G36*
X64259D02*
Y48769D01*
X61469*
Y55119*
X64259*
G37*
G36*
X157479D02*
Y48769D01*
X154689*
Y55119*
X157479*
G37*
G36*
X126239D02*
Y48769D01*
X123439*
Y55119*
X126239*
G37*
G36*
X82099Y85089D02*
X82159Y84999D01*
Y84959*
X82139Y84759*
X82159Y84539*
X82249Y84329*
X82379Y84159*
X82559Y84029*
X82619Y83999*
Y80519*
X82579Y80409*
X81479*
Y79109*
X82579*
Y79139*
X82679Y79219*
X82749Y79209*
X83199*
X83389Y79239*
X83549Y79349*
X83649Y79499*
X83689Y79689*
X83649Y79879*
X83549Y80029*
X83389Y80139*
X83329Y80149*
Y83999*
X83399Y84029*
X83569Y84159*
X83709Y84329*
X83789Y84539*
X83819Y84759*
X83789Y84959*
X83799Y84999*
X83859Y85089*
X105839*
X105879Y84959*
X105829Y84919*
X105699Y84749*
X105609Y84549*
X105579Y84329*
X105609Y84159*
X102619Y81169*
X88839*
X88729Y81309*
X88559Y81439*
X88359Y81519*
X88139Y81549*
X87919Y81519*
X87719Y81439*
X87539Y81309*
X87409Y81129*
X87319Y80929*
X87299Y80709*
X87319Y80539*
X87069Y80289*
X86469*
Y80239*
X86379Y80169*
X84979*
Y79219*
X86379*
X86469Y79139*
Y79089*
X87769*
Y79699*
X87969Y79889*
X88139Y79869*
X88359Y79899*
X88559Y79979*
X88729Y80109*
X88839Y80249*
X102809*
X102979Y80289*
X103129Y80389*
X106049Y83309*
X106169Y83259*
Y76199*
Y63369*
X106679Y62859*
Y62739*
X107189*
Y60709*
X113029*
Y61209*
X113279*
Y62989*
X114809*
Y60199*
Y58169*
X113119*
Y56389*
X112009*
Y57509*
X111099Y58419*
X104139*
Y53269*
X103749*
Y50989*
X104139*
Y45209*
X96519*
Y76199*
Y77719*
X86379*
Y78259*
X84979*
Y77719*
X83679*
Y78259*
X82279*
Y77719*
X80259*
Y85089*
X82099*
G37*
G36*
X52159Y85339D02*
X52209Y85229D01*
X51479Y84499*
X51399Y84389*
X51379Y84249*
Y80769*
X51339Y80659*
X50239*
Y79359*
X50969*
X51109Y79329*
X51189*
X51329Y79239*
X51509Y79209*
X51959*
X52149Y79239*
X52299Y79349*
X52409Y79499*
X52449Y79689*
X52409Y79879*
X52299Y80029*
X52149Y80139*
X52099Y80149*
Y84099*
X52979Y84979*
X73919*
X73949Y84919*
X74079Y84749*
X74249Y84609*
X74459Y84529*
X74679Y84499*
X74889Y84529*
X75099Y84609*
X75269Y84749*
X75309Y84799*
X75439Y84759*
Y76449*
Y63369*
X75949Y62859*
Y62739*
X76449*
Y60709*
X82299*
Y61209*
X82549*
Y62989*
X84069*
Y60199*
Y58169*
X82379*
Y56389*
X81279*
Y57509*
X80369Y58419*
X73409*
Y53269*
X73019*
Y50989*
X73409*
Y45209*
X65099*
Y76449*
Y77979*
X55139*
Y78259*
X53739*
Y77979*
X52439*
Y78259*
X51039*
Y77979*
X49279*
Y85339*
X52159*
G37*
G36*
X160609Y70389D02*
X160679Y70369D01*
Y62989*
X160699Y62849*
X160779Y62739*
X161799Y61719*
X161909Y61639*
X162049Y61619*
X164829*
X164879Y61539*
X165069Y61409*
X165099*
Y61279*
X165069Y61269*
X164879Y61139*
X164819Y61059*
X161949*
X160379Y62629*
Y70409*
X160499Y70479*
X160609Y70389*
G37*
G36*
X174009Y61139D02*
X174249Y61039D01*
X174499Y61009*
X175769*
Y58989*
X174499*
X174249Y58959*
X174009Y58859*
X173809Y58699*
X173779Y58659*
X173649Y58649*
X171499Y60799*
X171469Y60939*
X171399Y61059*
X171459Y61179*
X172609*
Y61269*
X173839*
X174009Y61139*
G37*
G36*
X44199Y77219D02*
Y63369D01*
X44699Y62859*
Y62739*
X45209*
Y60709*
X51049*
Y61209*
X51309*
Y62989*
X52829*
Y60199*
Y58169*
X51139*
Y56389*
X50039*
Y57509*
X49119Y58419*
X42159*
Y53269*
X41769*
Y50989*
X42159*
Y45209*
X33859*
Y81709*
Y88729*
X39519Y94389*
X44199*
Y77219*
G37*
G36*
X126239Y55629D02*
X117089D01*
X115819*
X112779Y51309*
X112009*
Y53349*
X112129Y53429*
X112919Y54209*
X113039Y54399*
X113079Y54579*
X113169*
Y55369*
X113279*
Y56219*
X113259Y56239*
X113309Y56309*
X113319Y56389*
Y57959*
X114809*
X114889Y57979*
X114949Y58019*
X114999Y58089*
X115009Y58169*
Y60199*
Y62989*
X114999Y63069*
X114949Y63139*
X114889Y63179*
X114809Y63199*
X114739*
X114669Y63299*
X115519Y65359*
Y65379*
X115529Y65399*
Y65419*
Y65439*
Y65459*
Y65479*
X115519Y65489*
Y65509*
X115509Y65529*
X115499Y65549*
X115429Y65649*
X115409Y65669*
X115399Y65689*
X115389Y65699*
X115369Y65709*
X115349Y65719*
X115339Y65729*
X115319*
X115299Y65739*
X115279*
X115259*
X110629*
Y66279*
X110709Y66379*
X110799Y66579*
X110819Y66799*
X110799Y67019*
X110709Y67219*
X110579Y67399*
X110399Y67529*
X110199Y67619*
X109979Y67639*
X109759Y67619*
X109559Y67529*
X109389Y67399*
X109249Y67219*
X109169Y67019*
X109139Y66799*
X109169Y66579*
X109249Y66379*
X109329Y66279*
Y65119*
X109889*
X109989Y65009*
X109979Y64939*
X109969*
X109939Y64919*
X109329*
Y63719*
X109259Y63629*
X109079Y63449*
X109009Y63339*
X108959Y63259*
X108929Y63159*
Y63119*
X108889Y62999*
Y61719*
X107699*
Y70869*
X126239*
Y55629*
G37*
G36*
X95499D02*
X86359D01*
X85089*
X82039Y51309*
X81279*
Y53349*
X81399Y53429*
X82179Y54209*
X82309Y54399*
X82339Y54579*
X82439*
Y55369*
X82549*
Y56219*
X82529Y56239*
X82569Y56309*
X82589Y56389*
Y57959*
X84069*
X84149Y57979*
X84219Y58019*
X84259Y58089*
X84279Y58169*
Y60199*
Y62989*
X84259Y63069*
X84219Y63139*
X84149Y63179*
X84069Y63199*
X83999*
X83929Y63299*
X84779Y65359*
X84789Y65379*
X84799Y65399*
Y65419*
Y65439*
Y65459*
Y65479*
X84789Y65489*
X84779Y65509*
X84769Y65529*
Y65549*
X84699Y65649*
X84679Y65669*
X84669Y65689*
X84649Y65699*
X84639Y65709*
X84619Y65719*
X84599Y65729*
X84579*
X84569Y65739*
X84549*
X84529*
X79899*
Y66279*
X79979Y66379*
X80059Y66579*
X80089Y66799*
X80059Y67019*
X79979Y67219*
X79839Y67399*
X79669Y67529*
X79469Y67619*
X79249Y67639*
X79029Y67619*
X78829Y67529*
X78649Y67399*
X78519Y67219*
X78429Y67019*
X78409Y66799*
X78429Y66579*
X78519Y66379*
X78599Y66279*
Y65119*
X79159*
X79259Y65009*
X79239Y64939*
X79209Y64919*
X78599*
Y63719*
X78529Y63629*
X78339Y63449*
X78269Y63339*
X78219Y63259*
X78199Y63159*
X78189Y63119*
X78159Y62999*
Y61719*
X76959*
Y70869*
X95499*
Y55629*
G37*
G36*
X173299Y57689D02*
D01*
X173449Y57589*
X173629Y57559*
X173649*
X173659Y57529*
X173809Y57329*
X174009Y57179*
X174249Y57079*
X174499Y57049*
X175769*
Y55029*
X174499*
X174249Y54989*
X174009Y54899*
X173809Y54739*
X173659Y54539*
X173649Y54519*
X172959*
X171069Y56409*
Y58859*
X171139Y58869*
X171339Y58999*
X171469Y59199*
X171499Y59319*
X171629Y59359*
X173299Y57689*
G37*
G36*
X157479Y55629D02*
X148339D01*
X147069*
X144019Y51309*
X143259*
Y53349*
X143369Y53429*
X144159Y54209*
X144279Y54399*
X144319Y54579*
X144409*
Y55369*
X144529*
Y56219*
X144499Y56239*
X144549Y56309*
X144559Y56389*
Y57959*
X146049*
X146129Y57979*
X146189Y58019*
X146239Y58089*
X146249Y58169*
Y60199*
Y62989*
X146239Y63069*
X146189Y63139*
X146129Y63179*
X146049Y63199*
X145979*
X145909Y63299*
X146759Y65359*
Y65379*
X146769Y65399*
Y65419*
X146779Y65439*
X146769Y65459*
Y65479*
X146759Y65489*
Y65509*
X146749Y65529*
X146739Y65549*
X146669Y65649*
X146659Y65669*
X146649Y65689*
X146629Y65699*
X146609Y65709*
X146599Y65719*
X146579Y65729*
X146559*
X146539Y65739*
X146519*
X146499*
X141869*
Y66279*
X141949Y66379*
X142039Y66579*
X142069Y66799*
X142039Y67019*
X141949Y67219*
X141819Y67399*
X141649Y67529*
X141439Y67619*
X141219Y67639*
X141009Y67619*
X140799Y67529*
X140629Y67399*
X140489Y67219*
X140409Y67019*
X140379Y66799*
X140409Y66579*
X140489Y66379*
X140569Y66279*
Y65119*
X141129*
X141229Y65009*
X141219Y64939*
X141209*
X141189Y64919*
X140569*
Y63719*
X140499Y63629*
X140319Y63449*
X140249Y63339*
X140199Y63259*
X140179Y63159*
X140169Y63119*
X140129Y62999*
Y61719*
X138939*
Y70869*
X157479*
Y55629*
G37*
G36*
X153919Y34039D02*
Y26759D01*
X153829Y26669*
X137669*
Y34039*
X153919*
G37*
G36*
X122679D02*
Y26759D01*
X122589Y26669*
X106429*
Y34039*
X122679*
G37*
G36*
X136399Y42669D02*
Y26669D01*
X126999*
Y42669*
X136399*
G37*
G36*
X105159D02*
Y26669D01*
X95759*
Y42669*
X105159*
G37*
G36*
X160529Y42279D02*
X157479Y39229D01*
Y26669*
Y24889*
X155449Y22859*
X91599*
X80209*
X75689*
Y34039*
X91689*
Y25399*
X154429*
X154939Y25909*
Y41209*
X158879Y45149*
X158939Y45209*
X160529*
Y42279*
G37*
G36*
X60449Y34039D02*
Y17779D01*
X159509*
X161799Y20069*
Y28189*
X163579Y29969*
X164589Y30989*
X176529*
Y25649*
X163829*
Y25399*
Y17779*
Y15239*
X44699*
X44449*
Y34039*
X60449*
G37*
G36*
X43179Y13969D02*
X169159D01*
Y11429*
X43179*
X34039*
Y42669*
X43179*
Y13969*
G37*
G36*
X74419Y42669D02*
Y21589D01*
X155449*
X158239Y24379*
Y35049*
X162049Y38859*
X175509*
Y33529*
X162309*
X160779Y31999*
Y22859*
X156969Y19049*
X153159*
X74419*
X65019*
Y21589*
Y42669*
X74419*
G37*
G36*
X174239Y23109D02*
Y17659D01*
X174129Y17609*
X172469Y18799*
X165609*
X164589Y19809*
Y23109*
X174239*
G37*
G36*
X76709Y49779D02*
X76959Y49529D01*
X78739Y47749*
X79249Y47239*
X95409*
X95499Y47129*
Y45209*
X74679*
Y57659*
X76709*
Y49779*
G37*
G36*
X45469D02*
X45719Y49529D01*
X47499Y47749*
X48009Y47239*
X64259*
Y45209*
X43429*
Y57659*
X45469*
Y49779*
G37*
G36*
X138679D02*
X138939Y49529D01*
X140719Y47749*
X141219Y47239*
X157479*
Y45209*
X136649*
Y57659*
X138679*
Y49779*
G37*
G36*
X107439D02*
X107699Y49529D01*
X109469Y47749*
X109979Y47239*
X126239*
Y45209*
X105409*
Y57659*
X107439*
Y49779*
G37*
G36*
X175769Y41399D02*
X163579D01*
Y46989*
X175769*
Y41399*
G37*
G36*
X91689Y34539D02*
X77469D01*
Y40889*
X78229Y41659*
X91689*
Y34539*
G37*
G36*
X60449D02*
X46229D01*
Y40889*
X46989Y41659*
X60449*
Y34539*
G37*
G36*
X153919Y41569D02*
Y34539D01*
X140299*
X140209Y34629*
Y41659*
X153829*
X153919Y41569*
G37*
G36*
X122679Y34539D02*
X108199D01*
Y40889*
X108969Y41659*
X122679*
Y34539*
G37*
G36*
X173539Y64979D02*
X175769D01*
Y62949*
X174499*
X174249Y62919*
X174009Y62819*
X173809Y62669*
X173659Y62469*
X173559Y62229*
Y62199*
X172609*
Y62279*
X171499*
X171479Y62299*
X171349Y62389*
X171339Y62409*
X171189Y62509*
X171179Y62649*
Y62659*
X171229Y62699*
X171309Y62679*
X172609*
Y63779*
X172419*
Y65339*
X172559Y65479*
X173539*
Y64979*
G37*
G36*
X157479Y72139D02*
X149099D01*
Y73439*
Y76199*
X157479*
Y72139*
G37*
G36*
X164089Y76959D02*
X164199Y76889D01*
X164339Y76859*
X165079*
X165129Y76779*
X165329Y76649*
X165349*
Y76519*
X165329Y76509*
X165129Y76379*
X165079Y76299*
X160009*
X159989Y76369*
X159849Y76539*
X159769Y76609*
Y77109*
X163939*
X164089Y76959*
G37*
G36*
X173809Y77139D02*
X174009Y76989D01*
X174249Y76889*
X174499Y76859*
X175769*
Y74839*
X174499*
X174249Y74809*
X174009Y74709*
X173809Y74549*
X173659Y74349*
X173649Y74329*
X173469*
X171749Y76039*
X171729Y76179*
X171589Y76379*
X171399Y76509*
X171369Y76519*
Y76649*
X171399*
X171439Y76679*
X171559*
X172859*
Y76769*
X173239*
X173419Y76799*
X173569Y76899*
X173809Y77139*
G37*
G36*
X126239Y72139D02*
X117859D01*
Y73439*
Y76199*
X126239*
Y72139*
G37*
G36*
X172949Y73539D02*
D01*
X173099Y73439*
X173269Y73409*
X173649*
X173659Y73379*
X173809Y73179*
X174009Y73029*
X174249Y72929*
X174499Y72899*
X175769*
Y70879*
X174499*
X174249Y70839*
X174009Y70749*
X173809Y70589*
X173659Y70389*
X173649Y70369*
X172859*
X171319Y71899*
Y74099*
X171399Y74109*
X171589Y74239*
X171729Y74439*
X171749Y74559*
X171889Y74599*
X172949Y73539*
G37*
G36*
X64259Y72139D02*
X55879D01*
Y73439*
Y76199*
X64259*
Y72139*
G37*
G36*
X95499D02*
X87119D01*
Y73439*
Y76199*
X95499*
Y72139*
G37*
G36*
X173659Y81309D02*
X173809Y81109D01*
X174009Y80949*
X174249Y80859*
X174499Y80819*
X175769*
Y78799*
X174499*
X174249Y78769*
X174009Y78669*
X173809Y78519*
X173659Y78319*
X173619Y78229*
X173519Y78159*
X173049Y77689*
X172859*
Y77779*
X171559*
X171489Y77759*
X171429Y77809*
X171449Y77949*
X171589Y78049*
X171619Y78089*
X171719Y78159*
X171739Y78179*
X172859*
Y79279*
X172669*
Y80829*
X173169Y81329*
X173649*
X173659Y81309*
G37*
G36*
X176279Y97029D02*
X161039D01*
X150109Y86109*
X141729*
Y76959*
X142489Y76199*
X144019*
Y72139*
X138429*
Y86109*
X124609*
X124549Y86189*
X124369Y86329*
X124169Y86409*
X123949Y86439*
X123729Y86409*
X123529Y86329*
X123359Y86189*
X123289Y86109*
X122839*
X122769Y86189*
X122599Y86329*
X122389Y86409*
X122169Y86439*
X121959Y86409*
X121749Y86329*
X121579Y86189*
X121509Y86109*
X120799*
X120739Y86189*
X120559Y86329*
X120359Y86409*
X120139Y86439*
X119919Y86409*
X119719Y86329*
X119549Y86189*
X119479Y86109*
X112099*
X111979Y86159*
X111759Y86189*
X111539Y86159*
X111419Y86109*
X110739*
Y80409*
X110709*
Y79109*
X110739*
Y76959*
X111509Y76199*
X113029*
Y72139*
X107439*
Y86109*
X79759*
Y76959*
X80519Y76199*
X82039*
Y72139*
X76449*
Y86109*
X75019*
X74889Y86159*
X74679Y86189*
X74459Y86159*
X74329Y86109*
X48509*
Y76959*
X49279Y76199*
X50799*
Y72139*
X45209*
Y86109*
Y94389*
X113559*
X113579Y94369*
X113709Y94349*
X115909*
X116049Y94369*
X116169Y94449*
X116709Y94999*
X121769*
X121829Y94909*
X122009Y94769*
X122209Y94689*
X122429Y94659*
X122649Y94689*
X122849Y94769*
X123019Y94909*
X123089Y94999*
X123799*
X123859Y94909*
X124039Y94769*
X124239Y94689*
X124459Y94659*
X124679Y94689*
X124879Y94769*
X125059Y94909*
X125119Y94999*
X141479*
X151129*
X158499Y102359*
X176279*
Y97029*
G37*
G36*
X144269Y96769D02*
X143509Y96009D01*
X125779*
X125729Y96129*
X127579Y97969*
X127679Y98119*
X127709Y98299*
Y98359*
X127849Y98459*
X127979Y98639*
X128069Y98839*
X128099Y99059*
X128069Y99279*
X127979Y99479*
X127849Y99659*
X127679Y99789*
X127469Y99869*
X127249Y99899*
X127039Y99869*
X126829Y99789*
X126659Y99659*
X126519Y99479*
X126439Y99279*
X126409Y99059*
X126439Y98839*
X126519Y98639*
X126659Y98459*
X126669Y98359*
X124629Y96319*
X124459Y96349*
X124239Y96319*
X124039Y96229*
X123859Y96099*
X123799Y96009*
X123089*
X123019Y96099*
X122849Y96229*
X122649Y96319*
X122659Y96439*
X122679*
X122899Y96469*
X123099Y96549*
X123279Y96689*
X123409Y96859*
X123499Y97059*
X123519Y97279*
X123499Y97499*
X123409Y97699*
X123279Y97879*
X123099Y98009*
X122899Y98099*
X122679Y98119*
X122459Y98099*
X122259Y98009*
X122089Y97879*
X121949Y97699*
X121869Y97499*
Y97479*
X121059Y96669*
X115969*
Y97379*
X116099Y97549*
X116179Y97749*
X116209Y97969*
X116179Y98189*
X116099Y98389*
X115959Y98569*
X115859Y98649*
X115899Y98779*
X115969*
Y99879*
X114669*
Y98779*
X114829*
X114879Y98649*
X114769Y98569*
X114639Y98389*
X114549Y98189*
X114519Y97969*
X114549Y97749*
X114639Y97549*
X114669Y97509*
Y96669*
X95759*
Y99059*
X106169Y109469*
X144269*
Y96769*
G37*
G36*
X44199Y96669D02*
X34089D01*
X33989Y96649*
X33859Y96729*
Y97279*
X44199*
Y96669*
G37*
G36*
X175769Y90689D02*
X174499D01*
X174249Y90659*
X174009Y90559*
X173809Y90399*
X173659Y90199*
X173589Y90049*
X172579*
X172499Y90159*
X172519Y90209*
X172549Y90419*
X172519Y90639*
X172429Y90849*
X172299Y91019*
X172129Y91149*
X171919Y91239*
X171699Y91269*
X171489Y91239*
X171279Y91149*
X171109Y91019*
X170969Y90849*
X170889Y90639*
X170859Y90419*
X170889Y90209*
X170969Y89999*
X171109Y89829*
X171279Y89689*
X171489Y89609*
X171699Y89579*
X171919Y89609*
X172009Y89649*
X172169Y89479*
X172279Y89409*
X172409Y89379*
X173589*
X173659Y89229*
X173809Y89029*
X174009Y88879*
X174249Y88779*
X174499Y88749*
X175769*
Y86729*
X174499*
X174249Y86689*
X174009Y86599*
X173809Y86439*
X173659Y86239*
X173629Y86189*
X173489*
X173449Y86269*
X173319Y86449*
X173139Y86579*
X172939Y86669*
X172719Y86689*
X172499Y86669*
X172299Y86579*
X172119Y86449*
X171989Y86269*
X171909Y86069*
X171879Y85849*
X171909Y85629*
X171989Y85429*
X172119Y85259*
X172299Y85119*
X172499Y85039*
X172719Y85009*
X172939Y85039*
X173139Y85119*
X173319Y85259*
X173449Y85429*
Y85439*
X173589*
X173659Y85269*
X173809Y85069*
X174009Y84919*
X174249Y84819*
X174499Y84789*
X175769*
Y82759*
X174499*
X174249Y82729*
X174009Y82629*
X173809Y82479*
X173659Y82279*
X173649Y82259*
X172979*
X172799Y82219*
X172649Y82119*
X171879Y81349*
X171779Y81199*
X171749Y81029*
Y79279*
X171559*
Y79179*
X171459Y79159*
X171319Y79069*
X171159Y79099*
X170559*
X170329Y79049*
X170129Y78919*
X169999Y78719*
X169949Y78489*
X169999Y78249*
X170129Y78049*
X170329Y77919*
X170349*
Y77789*
X170329Y77779*
X170129Y77649*
X169999Y77449*
X169949Y77219*
X169999Y76979*
X170129Y76779*
X170329Y76649*
X170349*
Y76519*
X170329Y76509*
X170129Y76379*
X169999Y76179*
X169949Y75949*
X169999Y75709*
X170129Y75509*
X170329Y75379*
X170349*
Y75249*
X170329Y75239*
X170129Y75109*
X169999Y74909*
X169949Y74679*
X169999Y74439*
X170129Y74239*
X170329Y74109*
X170399Y74099*
Y71709*
X170429Y71529*
X170529Y71379*
X172339Y69579*
X172489Y69479*
X172659Y69439*
X173649*
X173659Y69419*
X173809Y69219*
X174009Y69069*
X174249Y68969*
X174499Y68939*
X175769*
Y66909*
X173539*
Y66409*
X172369*
X172189Y66369*
X172039Y66269*
X171629Y65859*
X171529Y65709*
X171499Y65529*
Y63779*
X171309*
X171179*
X171139Y63809*
X170909Y63859*
X170309*
X170069Y63809*
X169879Y63679*
X169739Y63479*
X169699Y63249*
X169739Y63009*
X169879Y62809*
X170069Y62679*
X170099*
Y62549*
X170069Y62539*
X169879Y62409*
X169739Y62209*
X169699Y61979*
X169739Y61739*
X169879Y61539*
X170069Y61409*
X170099*
Y61279*
X170069Y61269*
X169879Y61139*
X169739Y60939*
X169699Y60709*
X169739Y60469*
X169879Y60269*
X170069Y60139*
X170099*
Y60009*
X170069Y59999*
X169879Y59869*
X169739Y59669*
X169699Y59439*
X169739Y59199*
X169879Y58999*
X170069Y58869*
X170149Y58859*
Y56209*
X170179Y56039*
X170279Y55889*
X172439Y53729*
X172589Y53629*
X172769Y53589*
X173649*
X173659Y53569*
X173809Y53369*
X174009Y53219*
X174249Y53119*
X174499Y53089*
X175769*
Y52829*
X159769*
Y62049*
X159889Y62109*
X161549Y60449*
X161659Y60379*
X161799Y60349*
X164819*
X164879Y60269*
X165069Y60139*
X165309Y60089*
X165909*
X166139Y60139*
X166339Y60269*
X166469Y60469*
X166519Y60709*
X166469Y60939*
X166339Y61139*
X166139Y61269*
X166119Y61279*
Y61409*
X166139*
X166339Y61539*
X166469Y61739*
X166519Y61979*
X166469Y62209*
X166339Y62409*
X166179Y62519*
X166209Y62649*
X166509*
Y63849*
X164709*
X164619Y63899*
X164479*
Y68579*
X164619Y68679*
X164749Y68859*
X164839Y69059*
X164859Y69279*
X164839Y69499*
X164749Y69699*
X164619Y69879*
X164439Y70009*
X164239Y70089*
X164019Y70119*
X163799Y70089*
X163599Y70009*
X163429Y69879*
X163289Y69699*
X163209Y69499*
X163179Y69279*
X163209Y69059*
X163289Y68859*
X163429Y68679*
X163559Y68579*
Y63899*
X163419*
Y62599*
X164619*
X164709Y62649*
X164999*
X165039Y62519*
X164879Y62409*
X164829Y62339*
X162199*
X161399Y63139*
Y70369*
X161459Y70389*
X161629Y70519*
X161769Y70699*
X161849Y70899*
X161879Y71119*
X161849Y71339*
X161769Y71539*
X161629Y71719*
X161459Y71849*
X161249Y71929*
X161039Y71959*
X160819Y71929*
X160609Y71849*
X160499Y71759*
X160379Y71829*
Y72399*
X160439Y72419*
X160619Y72559*
X160749Y72729*
X160829Y72929*
X160859Y73149*
X160829Y73369*
X160749Y73569*
X160619Y73749*
X160439Y73879*
X160239Y73969*
X160019Y73989*
X159889Y73979*
X159769Y74079*
Y75279*
X159849Y75349*
X159989Y75519*
X160009Y75589*
X165079*
X165129Y75509*
X165329Y75379*
X165559Y75329*
X166159*
X166399Y75379*
X166589Y75509*
X166729Y75709*
X166769Y75949*
X166729Y76179*
X166589Y76379*
X166399Y76509*
X166369Y76519*
Y76649*
X166399*
X166589Y76779*
X166729Y76979*
X166769Y77219*
X166729Y77449*
X166589Y77649*
X166429Y77759*
X166469Y77889*
X166759*
Y79089*
X164959*
X164879Y79139*
X164729*
Y79519*
X164759Y79529*
X164929Y79669*
X165069Y79839*
X165149Y80049*
X165179Y80259*
X165149Y80479*
X165069Y80689*
X164929Y80859*
X164759Y80989*
X164559Y81079*
X164339Y81109*
X164119Y81079*
X163919Y80989*
X163739Y80859*
X163609Y80689*
X163519Y80479*
X163499Y80259*
X163519Y80049*
X163609Y79839*
X163739Y79669*
X163819Y79609*
Y79139*
X163679*
Y77839*
X163549Y77829*
X158739*
X158719Y77889*
X158579Y78069*
X158409Y78199*
X158209Y78279*
X157989Y78309*
X157769Y78279*
X157569Y78199*
X157389Y78069*
X157259Y77889*
X157169Y77689*
X157149Y77469*
X148349*
Y78259*
X146949*
Y77469*
X145649*
Y78259*
X144249*
Y77469*
X142489*
Y85089*
X150369*
X159649Y94369*
X159769Y94319*
Y94489*
X175769*
Y90689*
G37*
G36*
X137409Y85089D02*
Y76199D01*
Y63369*
X137919Y62859*
Y62739*
X138429*
Y60709*
X144269*
Y61209*
X144529*
Y62989*
X146049*
Y60199*
Y58169*
X144359*
Y56389*
X143259*
Y57509*
X142339Y58419*
X135379*
Y53269*
X134989*
Y50989*
X135379*
Y45209*
X127079*
Y76109*
X127169Y76199*
X127079*
X126999Y76279*
Y77719*
X117109*
Y78259*
X115709*
Y77719*
X114409*
Y78259*
X113009*
Y77719*
X111249*
Y80439*
X111379Y80479*
X111419Y80429*
X111589Y80299*
X111799Y80209*
X112009Y80179*
X112119Y80199*
X112209Y80109*
Y79109*
X113309*
Y79139*
X113409Y79219*
X113489Y79209*
X113939*
X114119Y79239*
X114279Y79349*
X114379Y79499*
X114419Y79689*
X114379Y79879*
X114279Y80029*
X114119Y80139*
X113939Y80169*
X113489*
X113409Y80159*
X113309Y80239*
Y80409*
X113099*
X113089*
X113019Y80529*
X112799Y80739*
X112829Y80809*
X112859Y81029*
X112829Y81239*
X112739Y81449*
X112609Y81619*
X112439Y81759*
X112229Y81839*
X112009Y81869*
X111799Y81839*
X111589Y81759*
X111419Y81619*
X111379Y81569*
X111249Y81609*
Y82719*
X111379Y82769*
X111419Y82719*
X111589Y82579*
X111799Y82499*
X112009Y82469*
X112179Y82489*
X113209Y81459*
X113359Y81359*
X113539Y81329*
X117409*
X118049Y80689*
X118029Y80519*
X118049Y80399*
X117949Y80289*
X117209*
Y80239*
X117109Y80169*
X115709*
Y79219*
X117109*
X117209Y79139*
Y79089*
X118509*
Y79499*
X118699Y79699*
X118869Y79679*
X119089Y79699*
X119289Y79789*
X119469Y79919*
X119569Y80059*
X126749*
X126919Y80089*
X127069Y80189*
X128349Y81479*
X128519Y81449*
X128739Y81479*
X128949Y81569*
X129119Y81699*
X129249Y81869*
X129339Y82079*
X129369Y82299*
X129339Y82509*
X129249Y82719*
X129119Y82889*
X128949Y83029*
X128739Y83109*
X128519Y83139*
X128309Y83109*
X128099Y83029*
X127929Y82889*
X127789Y82719*
X127709Y82509*
X127679Y82299*
X127699Y82129*
X126559Y80979*
X119569*
X119469Y81109*
X119289Y81249*
X119089Y81329*
X118869Y81359*
X118699Y81339*
X117929Y82109*
X117779Y82209*
X117599Y82249*
X113729*
X112829Y83139*
X112859Y83309*
X112829Y83529*
X112779Y83639*
X112889Y83709*
X113289Y83309*
X113399Y83239*
X113539Y83209*
X116589*
X116619Y83139*
X116749Y82969*
X116929Y82839*
X117129Y82749*
X117349Y82719*
X117569Y82749*
X117769Y82839*
X117939Y82969*
X118079Y83139*
X118159Y83349*
X118189Y83569*
X118159Y83779*
X118079Y83989*
X117939Y84159*
X117769Y84299*
X117569Y84379*
X117349Y84409*
X117129Y84379*
X116929Y84299*
X116749Y84159*
X116619Y83989*
X116589Y83919*
X113689*
X112649Y84959*
X112699Y85089*
X119479*
X119549Y84999*
X119719Y84869*
X119789Y84839*
Y83059*
X119809Y82919*
X119889Y82809*
X119949Y82749*
X119919Y82719*
X119839Y82509*
X119809Y82299*
X119839Y82079*
X119919Y81869*
X120049Y81699*
X120229Y81569*
X120429Y81479*
X120649Y81449*
X120869Y81479*
X121069Y81569*
X121249Y81699*
X121379Y81869*
X121459Y82079*
X121469Y82159*
X121599*
X121609Y82079*
X121699Y81869*
X121829Y81699*
X122009Y81569*
X122209Y81479*
X122429Y81449*
X122649Y81479*
X122849Y81569*
X123019Y81699*
X123159Y81869*
X123239Y82079*
X123269Y82299*
X123239Y82509*
X123159Y82719*
X123019Y82889*
X122849Y83029*
X122649Y83109*
X122529Y83119*
Y84839*
X122599Y84869*
X122769Y84999*
X122839Y85089*
X123289*
X123359Y84999*
X123529Y84869*
X123599Y84839*
Y82799*
X123619Y82669*
X123679Y82589*
X123649Y82509*
X123619Y82299*
X123649Y82079*
X123729Y81869*
X123859Y81699*
X124039Y81569*
X124239Y81479*
X124459Y81449*
X124679Y81479*
X124879Y81569*
X125059Y81699*
X125189Y81869*
X125269Y82079*
X125299Y82299*
X125269Y82509*
X125189Y82719*
X125059Y82889*
X124879Y83029*
X124679Y83109*
X124459Y83139*
X124399Y83129*
X124309Y83209*
Y84839*
X124369Y84869*
X124549Y84999*
X124609Y85089*
X137409*
G37*
G36*
X121579Y84999D02*
X121749Y84869D01*
X121819Y84839*
Y82869*
X121699Y82719*
X121609Y82509*
X121599Y82429*
X121469*
X121459Y82509*
X121379Y82719*
X121249Y82889*
X121069Y83029*
X120869Y83109*
X120649Y83139*
X120589Y83129*
X120499Y83219*
Y84839*
X120559Y84869*
X120739Y84999*
X120799Y85089*
X121509*
X121579Y84999*
G37*
G36*
X44199Y95099D02*
X39369D01*
X39229Y95069*
X39119Y94989*
X33979Y89849*
X33859Y89899*
Y95589*
X34229Y95959*
X44199*
Y95099*
G37*
G36*
X84599Y65439D02*
X83669Y63199D01*
X82549*
X82469Y63179*
X82409Y63139*
X82359Y63069*
X82349Y62989*
Y61469*
X79589*
X79499Y61559*
Y63019*
X79639Y63159*
X79719Y63269*
X79769Y63339*
X79789Y63449*
X79809Y63559*
Y63719*
X79899*
Y64919*
X79609*
X79519Y65019*
X79539Y65119*
X79899*
Y65539*
X84529*
X84599Y65439*
G37*
G36*
X53349D02*
X52429Y63199D01*
X51309*
X51229Y63179*
X51159Y63139*
X51119Y63069*
X51099Y62989*
Y61469*
X48349*
X48259Y61559*
Y63019*
X48399Y63159*
X48479Y63269*
X48519Y63339*
X48549Y63449*
X48569Y63559*
Y63719*
X48659*
Y64919*
X48369*
X48279Y65019*
X48299Y65119*
X48659*
Y65539*
X53279*
X53349Y65439*
G37*
G36*
X146569D02*
X145639Y63199D01*
X144529*
X144449Y63179*
X144379Y63139*
X144339Y63069*
X144319Y62989*
Y61469*
X141569*
X141479Y61559*
Y63019*
X141619Y63159*
X141699Y63269*
X141739Y63339*
X141759Y63449*
X141779Y63559*
Y63719*
X141869*
Y64919*
X141589*
X141499Y65019*
X141519Y65119*
X141869*
Y65539*
X146499*
X146569Y65439*
G37*
G36*
X115329D02*
X114399Y63199D01*
X113279*
X113209Y63179*
X113139Y63139*
X113099Y63069*
X113079Y62989*
Y61469*
X110329*
X110239Y61559*
Y63019*
X110379Y63159*
X110449Y63269*
X110499Y63339*
X110519Y63449*
X110539Y63559*
Y63719*
X110629*
Y64919*
X110349*
X110259Y65019*
X110279Y65119*
X110629*
Y65539*
X115259*
X115329Y65439*
G37*
%LNlv1-2*%
%LPC*%
G36*
X129289Y70949D02*
X129069Y70919D01*
X128859Y70829*
X128689Y70699*
X128559Y70529*
X128469Y70319*
X128439Y70099*
X128469Y69889*
X128559Y69679*
X128689Y69509*
X128829Y69399*
Y67249*
X128689Y67139*
X128559Y66969*
X128469Y66769*
X128439Y66549*
X128469Y66329*
X128559Y66129*
X128689Y65949*
X128859Y65819*
X129069Y65729*
X129289Y65709*
X129499Y65729*
X129709Y65819*
X129879Y65949*
X130019Y66129*
X130099Y66329*
X130129Y66549*
X130099Y66769*
X130019Y66969*
X129879Y67139*
X129739Y67249*
Y69399*
X129879Y69509*
X130019Y69679*
X130099Y69889*
X130129Y70099*
X130099Y70319*
X130019Y70529*
X129879Y70699*
X129709Y70829*
X129499Y70919*
X129289Y70949*
G37*
G36*
X142479Y107159D02*
X141489D01*
X140999Y106669*
Y105679*
X141489Y105179*
X142479*
X142969Y105679*
Y106669*
X142479Y107159*
G37*
G36*
X84329Y69169D02*
X84109Y69139D01*
X83909Y69059*
X83729Y68919*
X83599Y68749*
X83509Y68539*
X83489Y68329*
X83509Y68109*
X83599Y67899*
X83609*
Y67039*
X83629Y66859*
X83699Y66689*
X83709Y66669*
Y66389*
X84049*
X84129Y66359*
X84309Y66329*
X84489Y66359*
X84569Y66389*
X84909*
Y66669*
X84919Y66689*
X84989Y66859*
X85019Y67039*
Y67849*
X85059Y67899*
X85139Y68109*
X85169Y68329*
X85139Y68539*
X85059Y68749*
X84919Y68919*
X84749Y69059*
X84549Y69139*
X84329Y69169*
G37*
G36*
X53089D02*
X52869Y69139D01*
X52659Y69059*
X52489Y68919*
X52359Y68749*
X52269Y68539*
X52239Y68329*
X52269Y68109*
X52359Y67899*
Y67039*
X52389Y66859*
X52459Y66689*
X52469Y66669*
Y66389*
X52809*
X52889Y66359*
X53069Y66329*
X53249Y66359*
X53329Y66389*
X53669*
Y66669*
X53679Y66689*
X53749Y66859*
X53779Y67039*
Y67849*
X53819Y67899*
X53899Y68109*
X53929Y68329*
X53899Y68539*
X53819Y68749*
X53679Y68919*
X53509Y69059*
X53299Y69139*
X53089Y69169*
G37*
G36*
X142479Y104619D02*
X141489D01*
X140999Y104129*
Y103139*
X141489Y102639*
X142479*
X142969Y103139*
Y104129*
X142479Y104619*
G37*
G36*
X139939D02*
X138949D01*
X138459Y104129*
Y103139*
X138949Y102639*
X139939*
X140429Y103139*
Y104129*
X139939Y104619*
G37*
G36*
Y107159D02*
X138949D01*
X138459Y106669*
Y105679*
X138949Y105179*
X139939*
X140429Y105679*
Y106669*
X139939Y107159*
G37*
G36*
X137399D02*
X136409D01*
X135919Y106669*
Y105679*
X136409Y105179*
X137399*
X137889Y105679*
Y106669*
X137399Y107159*
G37*
G36*
X56899Y81549D02*
X56679Y81519D01*
X56469Y81439*
X56299Y81309*
X56169Y81129*
X56079Y80929*
X56049Y80709*
X56079Y80539*
X55829Y80289*
X55229*
Y80239*
X55139Y80169*
X53739*
Y79219*
X55139*
X55229Y79139*
Y79089*
X56529*
Y79699*
X56729Y79889*
X56899Y79869*
X57109Y79899*
X57319Y79979*
X57489Y80109*
X57629Y80289*
X57709Y80489*
X57739Y80709*
X57709Y80929*
X57629Y81129*
X57489Y81309*
X57319Y81439*
X57109Y81519*
X56899Y81549*
G37*
G36*
X40859Y53269D02*
X39289D01*
Y50989*
X40859*
Y53269*
G37*
G36*
X72109D02*
X70539D01*
Y50989*
X72109*
Y53269*
G37*
G36*
X102839D02*
X101269D01*
Y50989*
X102839*
Y53269*
G37*
G36*
X113029Y69169D02*
X112809Y69139D01*
X112609Y69059*
X112429Y68919*
X112299Y68749*
X112219Y68539*
X112189Y68329*
X112219Y68109*
X112299Y67899*
X112429Y67729*
X112439Y67719*
Y67059*
X112449Y67039*
Y66389*
X113649*
Y67689*
X113679Y67799*
X113759Y67899*
X113839Y68109*
X113869Y68329*
X113839Y68539*
X113759Y68749*
X113629Y68919*
X113449Y69059*
X113249Y69139*
X113029Y69169*
G37*
G36*
X144269D02*
X144049Y69139D01*
X143849Y69059*
X143679Y68919*
X143539Y68749*
X143459Y68539*
X143429Y68329*
X143459Y68109*
X143539Y67899*
X143679Y67729*
X143689Y67719*
Y67059*
Y67039*
Y66389*
X144889*
Y67689*
X144919Y67799*
X144999Y67899*
X145089Y68109*
X145109Y68329*
X145089Y68539*
X144999Y68749*
X144869Y68919*
X144689Y69059*
X144489Y69139*
X144269Y69169*
G37*
G36*
X82299D02*
X82079Y69139D01*
X81869Y69059*
X81699Y68919*
X81569Y68749*
X81479Y68539*
X81449Y68329*
X81479Y68109*
X81569Y67899*
X81699Y67729*
X81709Y67719*
Y67059*
Y67039*
Y66389*
X82909*
Y67689*
X82949Y67799*
X83029Y67899*
X83109Y68109*
X83139Y68329*
X83109Y68539*
X83029Y68749*
X82889Y68919*
X82719Y69059*
X82509Y69139*
X82299Y69169*
G37*
G36*
X115059D02*
X114839Y69139D01*
X114639Y69059*
X114469Y68919*
X114329Y68749*
X114249Y68539*
X114219Y68329*
X114249Y68109*
X114329Y67899*
X114339*
Y67039*
X114359Y66859*
X114429Y66689*
X114449Y66669*
Y66389*
X114789*
X114859Y66359*
X115049Y66329*
X115229Y66359*
X115309Y66389*
X115649*
Y66669*
X115659Y66689*
X115729Y66859*
X115749Y67039*
Y67849*
X115789Y67899*
X115879Y68109*
X115899Y68329*
X115879Y68539*
X115789Y68749*
X115659Y68919*
X115479Y69059*
X115279Y69139*
X115059Y69169*
G37*
G36*
X144949Y84329D02*
X144739Y84299D01*
X144529Y84219*
X144359Y84079*
X144219Y83909*
X144139Y83699*
X144109Y83489*
X144139Y83269*
X144219Y83059*
X144359Y82889*
X144529Y82759*
X144599Y82729*
Y80519*
X144559Y80409*
X143459*
Y79109*
X144559*
Y79139*
X144649Y79219*
X144729Y79209*
X145179*
X145359Y79239*
X145519Y79349*
X145629Y79499*
X145659Y79689*
X145629Y79879*
X145519Y80029*
X145359Y80139*
X145309Y80149*
Y82729*
X145379Y82759*
X145549Y82889*
X145679Y83059*
X145769Y83269*
X145799Y83489*
X145769Y83699*
X145679Y83909*
X145549Y84079*
X145379Y84219*
X145169Y84299*
X144949Y84329*
G37*
G36*
X150109Y81359D02*
X149899Y81329D01*
X149689Y81249*
X149519Y81109*
X149379Y80939*
X149299Y80739*
X149269Y80519*
X149289Y80399*
X149189Y80289*
X148449*
Y80239*
X148349Y80169*
X146949*
Y79219*
X148349*
X148449Y79139*
Y79089*
X149749*
Y79499*
X149939Y79699*
X150109Y79679*
X150329Y79699*
X150539Y79789*
X150709Y79919*
X150839Y80099*
X150929Y80299*
X150959Y80519*
X150929Y80739*
X150839Y80939*
X150709Y81109*
X150539Y81249*
X150329Y81329*
X150109Y81359*
G37*
G36*
X134079Y53269D02*
X132509D01*
Y50989*
X134079*
Y53269*
G37*
G36*
X51049Y69169D02*
X50839Y69139D01*
X50629Y69059*
X50459Y68919*
X50319Y68749*
X50239Y68539*
X50209Y68329*
X50239Y68109*
X50319Y67899*
X50459Y67729*
X50469Y67719*
Y67059*
Y67039*
Y66389*
X51669*
Y67689*
X51699Y67799*
X51779Y67899*
X51869Y68109*
X51899Y68329*
X51869Y68539*
X51779Y68749*
X51649Y68919*
X51479Y69059*
X51269Y69139*
X51049Y69169*
G37*
G36*
X146299D02*
X146089Y69139D01*
X145879Y69059*
X145709Y68919*
X145569Y68749*
X145489Y68539*
X145459Y68329*
X145489Y68109*
X145569Y67899*
X145579*
Y67039*
X145609Y66859*
X145679Y66689*
X145689Y66669*
Y66389*
X146029*
X146109Y66359*
X146289Y66329*
X146469Y66359*
X146549Y66389*
X146889*
Y66669*
X146899Y66689*
X146969Y66859*
X146989Y67039*
Y67849*
X147029Y67899*
X147119Y68109*
X147149Y68329*
X147119Y68539*
X147029Y68749*
X146899Y68919*
X146729Y69059*
X146519Y69139*
X146299Y69169*
G37*
%LNlv1-3*%
%LPD*%
G54D10*
X34019Y91689D03*
X32519D03*
X34019Y85339D03*
X32519D03*
X33259Y43429D03*
X31759D03*
X161299Y49279D03*
X162799D03*
X109489Y55039D03*
X110989D03*
X112279Y62229D03*
X113779D03*
X112759Y79759D03*
X111259D03*
X106689Y55039D03*
X108189D03*
X137929D03*
X139429D03*
X144009Y79759D03*
X142509D03*
X143519Y62229D03*
X145019D03*
X140729Y55039D03*
X142229D03*
X75959D03*
X77459D03*
X82029Y79759D03*
X80529D03*
X81549Y62229D03*
X83049D03*
X78749Y55039D03*
X80249D03*
X44719D03*
X46219D03*
X50789Y80009D03*
X49289D03*
X50299Y62229D03*
X51799D03*
X47509Y55039D03*
X49009D03*
X34279Y100839D03*
X32779D03*
G54D11*
X170939Y16779D03*
Y18279D03*
X111759Y65039D03*
Y66539D03*
X112519Y56629D03*
Y55129D03*
X143759Y56629D03*
Y55129D03*
X142999Y65039D03*
Y66539D03*
X81789Y56629D03*
Y55129D03*
X81029Y65039D03*
Y66539D03*
X50549Y56629D03*
Y55129D03*
X49779Y65039D03*
Y66539D03*
X115319Y95519D03*
Y97019D03*
Y99329D03*
Y100829D03*
X172209Y77229D03*
Y78729D03*
X171959Y63229D03*
Y61729D03*
G54D12*
X167389Y14819D03*
Y19719D03*
G54D13*
X159599Y44959D03*
X164499D03*
G54D14*
X171699Y23029D03*
Y25729D03*
X168659Y23029D03*
Y25729D03*
X165609Y23029D03*
Y25729D03*
X162309Y13379D03*
Y16079D03*
X171699Y38779D03*
Y41479D03*
X168659Y38779D03*
Y41479D03*
X165609Y38779D03*
Y41479D03*
G54D15*
X160719Y38159D03*
X158809Y40069D03*
G54D16*
X97539Y45839D03*
Y42039D03*
X66799Y45839D03*
Y42039D03*
G54D17*
X108279Y64769D03*
X105579D03*
X104309Y33019D03*
X107009D03*
X104309Y29969D03*
X107009D03*
X135559D03*
X138259D03*
X135559Y33019D03*
X138259D03*
X139529Y64769D03*
X136829D03*
X73579Y29969D03*
X76279D03*
X73579Y33019D03*
X76279D03*
X77549Y64769D03*
X74849D03*
X42339Y29969D03*
X45039D03*
X42339Y33019D03*
X45039D03*
X46309Y64769D03*
X43609D03*
G54D18*
X110739Y62229D03*
X109469D03*
X108199D03*
X106929D03*
X110739Y57019D03*
X109469D03*
X108199D03*
X106929D03*
X141989Y62229D03*
X140719D03*
X139449D03*
X138179D03*
X141989Y57019D03*
X140719D03*
X139449D03*
X138179D03*
X80009Y62229D03*
X78739D03*
X77469D03*
X76199D03*
X80009Y57019D03*
X78739D03*
X77469D03*
X76199D03*
X48769Y62229D03*
X47499D03*
X46229D03*
X44959D03*
X48769Y57019D03*
X47499D03*
X46229D03*
X44959D03*
G54D19*
X108839Y59629D03*
X140079D03*
X78109D03*
X46859D03*
G54D20*
X116589Y56809D03*
Y52409D03*
X147829Y56809D03*
Y52409D03*
X85849Y56809D03*
Y52409D03*
X54609Y56809D03*
Y52409D03*
G54D21*
X114049Y65039D03*
X115049Y67039D03*
X113049D03*
X145289Y65039D03*
X146289Y67039D03*
X144289D03*
X83309Y65039D03*
X84309Y67039D03*
X82309D03*
X52069Y65039D03*
X53069Y67039D03*
X51069D03*
X162619Y63249D03*
X164019D03*
X162879Y78489D03*
X164279D03*
G54D22*
X124709Y46659D03*
Y49359D03*
X155959Y46659D03*
Y49359D03*
X93979Y46659D03*
Y49359D03*
X62739Y46659D03*
Y49359D03*
G54D23*
X102049Y52129D03*
X104529D03*
X107009D03*
X109489D03*
X111969D03*
X102049Y35769D03*
X104529D03*
X107009D03*
X109489D03*
X111969D03*
X133299Y52129D03*
X135779D03*
X138259D03*
X140739D03*
X143219D03*
X133299Y35769D03*
X135779D03*
X138259D03*
X140739D03*
X143219D03*
X71319Y52129D03*
X73799D03*
X76279D03*
X78759D03*
X81239D03*
X71319Y35769D03*
X73799D03*
X76279D03*
X78759D03*
X81239D03*
X40079Y52129D03*
X42559D03*
X45039D03*
X47519D03*
X49999D03*
X40079Y35769D03*
X42559D03*
X45039D03*
X47519D03*
X49999D03*
G54D24*
X107059Y27429D03*
X104259D03*
X138309D03*
X135509D03*
X76329D03*
X73529D03*
X45089D03*
X42289D03*
G54D25*
X104329Y69849D03*
X108009D03*
X135569D03*
X139249D03*
X73599D03*
X77279D03*
X42359D03*
X46039D03*
G54D26*
X117259Y74169D03*
X112859D03*
X148499D03*
X144099D03*
X86529D03*
X82129D03*
X55289D03*
X50889D03*
G54D27*
X115319Y31499D03*
X146559D03*
X84579D03*
X53339D03*
G54D28*
X116239Y35479D03*
X114399D03*
X147479D03*
X145639D03*
X85499D03*
X83659D03*
X54259D03*
X52419D03*
G54D29*
X120899Y52779D03*
Y46279D03*
X152149Y52779D03*
Y46279D03*
X90169Y52779D03*
Y46279D03*
X58929Y52779D03*
Y46279D03*
G54D30*
X124459Y54619D03*
Y56119D03*
X155699Y54619D03*
Y56119D03*
X93729Y54619D03*
Y56119D03*
X62479Y54619D03*
Y56119D03*
G54D31*
X122429Y68769D03*
Y72969D03*
X153669Y68769D03*
Y72969D03*
X91689Y68769D03*
Y72969D03*
X60449Y68769D03*
Y72969D03*
G54D32*
X113709Y79689D03*
X144949D03*
X82979D03*
X51739D03*
G54D33*
X113709Y78739D03*
Y77789D03*
X116409Y79689D03*
Y77789D03*
X144949Y78739D03*
Y77789D03*
X147649Y79689D03*
Y77789D03*
X82979Y78739D03*
Y77789D03*
X85679Y79689D03*
Y77789D03*
X51739Y78739D03*
Y77789D03*
X54439Y79689D03*
Y77789D03*
G54D34*
X109979Y65719D03*
Y64319D03*
X117859Y79689D03*
Y78289D03*
X149099Y79689D03*
Y78289D03*
X141219Y65719D03*
Y64319D03*
X87119Y79689D03*
Y78289D03*
X79249Y65719D03*
Y64319D03*
X55879Y79689D03*
Y78289D03*
X48009Y65719D03*
Y64319D03*
G54D35*
X168149Y93549D03*
Y98359D03*
G54D36*
X165859Y78489D03*
X165609Y63249D03*
G54D37*
X165859Y77219D03*
Y75949D03*
Y74679D03*
X170859Y78489D03*
Y77219D03*
Y75949D03*
Y74679D03*
X165609Y61979D03*
Y60709D03*
Y59439D03*
X170609Y63249D03*
Y61979D03*
Y60709D03*
Y59439D03*
G54D38*
X177799Y20379D03*
Y28329D03*
Y36229D03*
Y44179D03*
Y99619D03*
G54D39*
X177799Y50089D03*
Y54059D03*
Y58019D03*
Y61979D03*
Y69909D03*
Y73869D03*
Y77829D03*
Y81789D03*
Y85759D03*
Y89719D03*
Y93679D03*
G54D40*
X177799Y65939D03*
G54D41*
X127249Y98299D02*
Y99059D01*
X124459Y95499D02*
X127249Y98299D01*
X27429Y43429D02*
X31759D01*
X28189Y85339D02*
X32519D01*
X27939Y91949D02*
X32269D01*
X34279Y100839D02*
X36819Y98299D01*
X96769*
X162809Y78549D02*
Y80009D01*
Y78549D02*
X162879Y78489D01*
X164079Y74679D02*
X165859D01*
X163829Y59439D02*
X165609D01*
X164279Y78489D02*
X165859D01*
X164019Y63249D02*
X165609D01*
X54439Y79689D02*
X55879D01*
X85679D02*
X87119D01*
X147649D02*
X149089D01*
X116409D02*
X117849D01*
X55879D02*
X56899Y80709D01*
X87119Y79689D02*
X88139Y80709D01*
X117859Y79689D02*
X118049D01*
X118869Y80519*
X149099Y79689D02*
X149289D01*
X150109Y80519*
X162619Y63249D02*
X162809Y63439D01*
Y65789*
X164019Y63249D02*
Y69279D01*
X164279Y78489D02*
Y80199D01*
X164339Y80259*
X118869Y80519D02*
X126749D01*
X128519Y82299*
X117599Y81789D02*
X118869Y80519D01*
X113539Y81789D02*
X117599D01*
X112009Y83309D02*
X113539Y81789D01*
X88139Y80709D02*
X102809D01*
X106429Y84329*
X129289Y66549D02*
Y70099D01*
X181859Y15239D02*
Y102869D01*
X181119Y14479D02*
X181859Y15219D01*
X181099Y14479D02*
X181119D01*
X173499D02*
X181099D01*
X173479Y14459D02*
X173499Y14479D01*
X172969Y13949D02*
X173479Y14459D01*
X172969Y09999D02*
Y13969D01*
X22349Y09999D02*
X172969D01*
X21999Y10409D02*
Y109979D01*
X22019Y109999D02*
X173479D01*
Y105659D02*
Y109999D01*
Y105659D02*
X173649Y105499D01*
X180089*
X180339*
X180429Y105409*
X181859Y103979*
Y103889D02*
Y103979D01*
Y102869D02*
Y103889D01*
G54D42*
X121199Y96319D02*
X122169Y97279D01*
X116709Y95499D02*
X122429D01*
X115909Y94699D02*
X116709Y95499D01*
X113709Y94699D02*
X115909D01*
X113679Y94739D02*
X113709Y94699D01*
X39369Y94739D02*
X113679D01*
X32769Y88139D02*
X39369Y94739D01*
X27939Y100839D02*
X32779D01*
X27939Y88139D02*
X32769D01*
X122169Y97279D02*
X122679D01*
X27939Y94489D02*
X32259D01*
X34089Y96319*
X121199*
X115319Y97019D02*
Y99329D01*
X123949Y82799D02*
X124459Y82299D01*
X123949Y82799D02*
Y85599D01*
X122429Y82299D02*
Y82549D01*
X122169Y82799D02*
X122429Y82549D01*
X122169Y82799D02*
Y85599D01*
X120649Y82299D02*
Y82549D01*
X120139Y83059D02*
X120649Y82549D01*
X120139Y83059D02*
Y85599D01*
X111759Y85339D02*
X113539Y83569D01*
X117349*
X164339Y77219D02*
X165859D01*
X164079Y77469D02*
X164339Y77219D01*
X157989Y77469D02*
X164079D01*
X159259Y75949D02*
X165859D01*
X161799Y60709D02*
X165609D01*
X160019Y62479D02*
X161799Y60709D01*
X160019Y62479D02*
Y73149D01*
X144009Y79759D02*
X144889D01*
X144949Y79689D02*
Y83489D01*
X112759Y79759D02*
X113649D01*
X82029D02*
X82909D01*
X82979Y79689D02*
Y84759D01*
X112759Y79759D02*
Y80279D01*
X112009Y81029D02*
X112759Y80279D01*
X138259Y33019D02*
X139189Y33959D01*
Y41659*
X137159Y43689D02*
X139189Y41659D01*
X128019Y38349D02*
Y41149D01*
X125979Y43179D02*
X128019Y41149D01*
X33519Y43179D02*
X125979D01*
X33259Y43429D02*
X33519Y43179D01*
X35049Y43689D02*
X137159D01*
X34289Y44449D02*
X35049Y43689D01*
X28959Y44449D02*
X34289D01*
X27429Y45969D02*
X28959Y44449D01*
G54D43*
X114049Y95499D02*
X115299D01*
X172769Y54059D02*
X177799D01*
X170609Y56209D02*
X172769Y54059D01*
X170609Y56209D02*
Y59439D01*
X173629Y58019D02*
X177799D01*
X170939Y60709D02*
X173629Y58019D01*
X170609Y60709D02*
X170939D01*
X171959Y61729D02*
X177549D01*
X171399D02*
X171959D01*
X171149Y61979D02*
X171399Y61729D01*
X170609Y61979D02*
X171149D01*
X171949Y63249D02*
X171959Y63259D01*
X172369Y65939D02*
X177799D01*
X171959Y65529D02*
X172369Y65939D01*
X171959Y63259D02*
Y65529D01*
X170609Y63249D02*
X171949D01*
X172659Y69909D02*
X177799D01*
X170859Y71709D02*
X172659Y69909D01*
X170859Y71709D02*
Y74679D01*
X173269Y73869D02*
X177799D01*
X171199Y75949D02*
X173269Y73869D01*
X170859Y75949D02*
X171199D01*
X173239Y77229D02*
X173839Y77829D01*
X172209Y77229D02*
X173239D01*
X172979Y81789D02*
X177799D01*
X172209Y81029D02*
X172979Y81789D01*
X172209Y78729D02*
Y81029D01*
X172199Y77219D02*
X172209Y77229D01*
X170859Y77219D02*
X172199D01*
X171639Y78729D02*
X172209D01*
X171399Y78489D02*
X171639Y78729D01*
X170859Y78489D02*
X171399D01*
G54D44*
X52829Y85339D02*
X74679D01*
X51739Y84249D02*
X52829Y85339D01*
X51739Y79689D02*
Y84249D01*
X51109Y79689D02*
X51739D01*
X50789Y80009D02*
X51109Y79689D01*
X162049Y61979D02*
X165609D01*
X161039Y62989D02*
Y71119D01*
Y62989D02*
X162049Y61979D01*
G54D45*
X172719Y85849D02*
X177699D01*
X172409Y89719D02*
X177799D01*
X171699Y90419D02*
X172409Y89719D01*
X51739Y77549D02*
Y77789D01*
X53849Y74169D02*
X55289D01*
X54439Y77509D02*
Y77789D01*
X53339Y74679D02*
Y76409D01*
X50889Y74169D02*
X52319D01*
X53339Y74679D02*
X53849Y74169D01*
X53339Y76409D02*
X54439Y77509D01*
X85089Y74169D02*
X86529D01*
X85679Y77509D02*
Y77789D01*
X82129Y74169D02*
X83569D01*
X84579Y74679D02*
X85089Y74169D01*
X144949Y77549D02*
Y77789D01*
X147069Y74169D02*
X148499D01*
X147649Y77509D02*
Y77789D01*
X146049Y74679D02*
Y76449D01*
X146559Y74679D02*
Y76409D01*
X145539Y74169D02*
X146049Y74679D01*
X144949Y77549D02*
X146049Y76449D01*
X144099Y74169D02*
X145539D01*
X146559Y74679D02*
X147069Y74169D01*
X146559Y76409D02*
X147649Y77509D01*
X112859Y74169D02*
X114299D01*
X116409Y77509D02*
Y77789D01*
X113709Y77549D02*
Y77789D01*
X84579Y74679D02*
Y76409D01*
X85679Y77509*
X82979Y77549D02*
Y77789D01*
X115819Y74169D02*
X117259D01*
X52319D02*
X52829Y74679D01*
Y76449*
X51739Y77549D02*
X52829Y76449D01*
X83569Y74169D02*
X84069Y74679D01*
Y76449*
X82979Y77549D02*
X84069Y76449D01*
X114299Y74169D02*
X114809Y74679D01*
Y76449*
X113709Y77549D02*
X114809Y76449D01*
X115319Y76409D02*
X116409Y77509D01*
X115319Y74679D02*
Y76409D01*
Y74679D02*
X115819Y74169D01*
G54D46*
X167389Y19719D02*
X169499D01*
X170939Y18279*
X167389Y14819D02*
X168989D01*
X170939Y16779*
X164499Y44959D02*
Y46809D01*
X162799Y48509D02*
X164499Y46809D01*
X159599D02*
X161299Y48509D01*
X51049Y67059D02*
X51069Y67039D01*
X51049Y67059D02*
Y68329D01*
X82299Y67059D02*
X82309Y67039D01*
X82299Y67059D02*
Y68329D01*
X79249Y65719D02*
Y66799D01*
X144269Y67059D02*
X144289Y67039D01*
X144269Y67059D02*
Y68329D01*
X141219Y65719D02*
Y66799D01*
X109979Y65719D02*
Y66799D01*
X113029Y67059D02*
Y68329D01*
Y67059D02*
X113049Y67039D01*
X48009Y65719D02*
Y66799D01*
X161299Y48509D02*
Y49279D01*
X162799Y48509D02*
Y49279D01*
G54D47*
X48769Y57019D02*
X49009Y56779D01*
X50549Y54609D02*
Y55129D01*
X46219Y55039D02*
Y57009D01*
X49009Y55039D02*
Y56779D01*
X48769Y55189D02*
Y57019D01*
X48009Y63559D02*
Y64319D01*
X47499Y63049D02*
X48009Y63559D01*
X47509Y54109D02*
X47799Y53819D01*
X49759*
X47509Y55039D02*
Y57009D01*
Y54109D02*
Y55039D01*
X47499Y62229D02*
Y63049D01*
X49759Y53819D02*
X50549Y54609D01*
X80009Y57019D02*
X80249Y56779D01*
X81789Y54609D02*
Y55129D01*
X77459Y55039D02*
Y57009D01*
X80249Y55039D02*
Y56779D01*
X80009Y55189D02*
Y57019D01*
X79249Y63559D02*
Y64319D01*
X78739Y63049D02*
X79249Y63559D01*
X78749Y54109D02*
X79039Y53819D01*
X80999*
X78749Y55039D02*
Y57009D01*
Y54109D02*
Y55039D01*
X78739Y62229D02*
Y63049D01*
X80999Y53819D02*
X81789Y54609D01*
X141989Y57019D02*
X142229Y56779D01*
X143759Y54609D02*
Y55129D01*
X139429Y55039D02*
Y57009D01*
X142229Y55039D02*
Y56779D01*
X141989Y55189D02*
Y57019D01*
X141219Y63559D02*
Y64319D01*
X140719Y63049D02*
X141219Y63559D01*
X140729Y54109D02*
X141019Y53819D01*
X142979*
X140729Y55039D02*
Y57009D01*
Y54109D02*
Y55039D01*
X140719Y62229D02*
Y63049D01*
X142979Y53819D02*
X143759Y54609D01*
X111739Y53819D02*
X112519Y54609D01*
X109469Y62229D02*
Y63049D01*
X109489Y54109D02*
Y55039D01*
Y57009*
X109779Y53819D02*
X111739D01*
X109489Y54109D02*
X109779Y53819D01*
X109469Y63049D02*
X109979Y63559D01*
Y64319*
X110739Y55189D02*
Y57019D01*
X110989Y55039D02*
Y56779D01*
X108189Y55039D02*
Y57009D01*
X112519Y54609D02*
Y55129D01*
X110739Y57019D02*
X110989Y56779D01*
G54D48*
X53069Y68309D02*
X53089Y68329D01*
X53069Y67039D02*
Y68309D01*
X84309D02*
X84329Y68329D01*
X84309Y67039D02*
Y68309D01*
X146289D02*
X146299Y68329D01*
X146289Y67039D02*
Y68309D01*
X115049Y67039D02*
Y68309D01*
X115059Y68329*
G54D49*
X141989Y103629D03*
Y106169D03*
X139449Y103629D03*
Y106169D03*
X136909Y103629D03*
Y106169D03*
G54D50*
X30449Y79709D03*
Y72689D03*
G54D51*
X27969Y73949D03*
Y78449D03*
G54D52*
X27939Y100839D03*
Y98299D03*
Y91949D03*
Y94489D03*
Y85599D03*
Y88139D03*
X27429Y43429D03*
Y45969D03*
Y37079D03*
Y39619D03*
Y30729D03*
Y33269D03*
Y24379D03*
Y26919D03*
G54D53*
X127249Y99059D03*
X124459Y95499D03*
X119889Y97539D03*
X34799Y92959D03*
X115369Y97969D03*
X162809Y80009D03*
X164079Y74679D03*
X163829Y59439D03*
X124459Y82299D03*
X122429D03*
X120649D03*
X123949Y85599D03*
X122169D03*
X120139D03*
X111759Y85339D03*
X117349Y83569D03*
X74679Y85339D03*
X144949Y83489D03*
X82979Y84759D03*
X172719Y85849D03*
X171699Y90419D03*
X157989Y77469D03*
X159259Y75949D03*
X53089Y68329D03*
X51049D03*
X65529Y40389D03*
Y47499D03*
X79249Y66799D03*
X84329Y68329D03*
X82299D03*
X127509Y47499D03*
X141219Y66799D03*
X146299Y68329D03*
X144269D03*
X113029D03*
X115059D03*
X109979Y66799D03*
X96269Y47499D03*
Y40389D03*
X149609Y30479D03*
Y28959D03*
X145799Y27689D03*
X66549Y30479D03*
X68069D03*
X69599D03*
X71119D03*
X66549Y28959D03*
X68069D03*
X69599D03*
X71119D03*
X59439Y27689D03*
X57659D03*
X55879D03*
X48009Y66799D03*
X40889Y62229D03*
X128019Y29209D03*
Y30989D03*
Y32769D03*
Y34799D03*
Y36579D03*
Y38349D03*
X121919Y27429D03*
X120139D03*
X118359D03*
X116589D03*
X96519Y37589D03*
Y35809D03*
Y34039D03*
Y32259D03*
Y30479D03*
X96609Y28729D03*
X143759Y100329D03*
Y98809D03*
Y97279D03*
X129539Y100079D03*
X123189Y101599D03*
X124209Y97029D03*
X122429Y95499D03*
X122679Y97279D03*
X115059Y105159D03*
X56899Y80709D03*
X88139D03*
X118869Y80519D03*
X150109D03*
X162809Y65789D03*
X160019Y73149D03*
X161039Y71119D03*
X164019Y69279D03*
X164339Y80259D03*
X128519Y82299D03*
X112009Y81029D03*
Y83309D03*
X106429Y84329D03*
X96769Y98299D03*
X35039Y16779D03*
X81529Y24129D03*
X147319Y27689D03*
X129289Y66549D03*
Y70099D03*
G54D54*
X114049Y95499D03*
G54D55*
X68069Y40639D03*
Y47239D03*
X69089Y41149D03*
Y46739D03*
Y45719D03*
Y42159D03*
X66799Y40639D03*
Y47239D03*
X130049D03*
X131059Y46739D03*
Y45719D03*
X128779Y47239D03*
X97539D03*
Y40639D03*
X99819Y42159D03*
Y45719D03*
Y46739D03*
Y41149D03*
X98809Y47239D03*
Y40639D03*
M02*