%FSTAX23Y23*%
%MOMM*%
%SFA1B1*%

%IPPOS*%
%ADD38C,0.250000*%
%ADD41C,0.499999*%
%ADD65C,0.200000*%
%ADD66C,0.250000*%
%ADD67C,0.599999*%
%ADD68C,0.100000*%
%ADD70C,0.150000*%
%ADD116C,0.200000*%
%ADD117C,0.150000*%
%ADD118C,0.230000*%
%ADD119R,0.150000X0.299999*%
%ADD120R,0.150000X0.299999*%
%ADD121R,0.299999X0.299999*%
%LNlv1-1*%
%LPD*%
G36*
X42339Y57959D02*
X42359D01*
X42389Y57949*
X42409Y57939*
X42429*
X42439Y57929*
X42449*
X42459Y57919*
X42469Y57909*
X42479*
Y57899*
X42489Y57889*
X42499Y57879*
X42519Y57859*
X42529Y57829*
X42549Y57809*
Y57799*
Y57789*
X42559Y57779*
Y57769*
Y57759*
Y57749*
X42459Y57729*
Y57759*
X42449Y57779*
X42439Y57799*
Y57809*
X42429Y57829*
X42419Y57839*
X42399Y57849*
X42379Y57859*
X42369Y57869*
X42349*
X42339Y57879*
X42329*
X42319*
X42299*
X42279Y57869*
X42259*
X42249Y57859*
X42239Y57849*
X42229*
Y57839*
X42219*
X42209Y57829*
X42199Y57809*
Y57799*
X42189Y57779*
Y57769*
Y57759*
Y57749*
Y57739*
Y57729*
Y57709*
X42199Y57689*
X42209Y57669*
X42219Y57659*
X42229*
X42239Y57649*
X42259Y57639*
X42279Y57629*
X42299*
X42309Y57619*
X42329*
X42339*
X42359*
X42369*
X42379Y57529*
X42359*
X42349Y57539*
X42339*
X42329*
X42319*
X42309*
X42279*
X42259Y57529*
X42239*
X42219Y57519*
X42209Y57509*
X42199*
Y57499*
X42189*
Y57489*
X42179Y57479*
X42169Y57459*
X42159Y57439*
X42149Y57429*
Y57409*
Y57399*
Y57389*
Y57369*
Y57359*
X42159Y57339*
X42169Y57319*
Y57299*
X42179Y57289*
X42189Y57269*
X42199*
X42209Y57259*
X42219Y57249*
X42239Y57239*
X42259Y57229*
X42279Y57219*
X42289*
X42299*
X42309*
X42319*
X42339*
X42359*
X42369Y57229*
X42389Y57239*
X42399*
X42409Y57249*
X42419*
Y57259*
X42429Y57269*
X42439Y57289*
X42449Y57309*
X42459Y57329*
X42469Y57349*
Y57359*
Y57369*
Y57379*
X42569Y57359*
Y57349*
Y57329*
X42559Y57309*
Y57299*
X42549Y57279*
X42539Y57269*
Y57249*
X42529Y57239*
X42519Y57229*
Y57219*
X42509*
X42499Y57209*
Y57199*
X42489*
X42479Y57189*
X42469Y57179*
X42449Y57169*
X42429Y57159*
X42419*
X42409Y57149*
X42379Y57139*
X42369*
X42349*
X42339*
X42329*
X42319*
X42289*
X42269*
X42249*
X42239Y57149*
X42219*
X42199Y57159*
X42189Y57169*
X42169*
X42159Y57179*
X42149Y57189*
X42139*
Y57199*
X42129*
Y57209*
X42119*
X42109Y57219*
X42099Y57239*
X42089Y57249*
X42079Y57269*
X42069Y57279*
X42059Y57299*
Y57309*
X42049Y57329*
Y57339*
Y57349*
Y57359*
Y57369*
X42039Y57379*
Y57389*
X42049Y57419*
Y57439*
X42059Y57459*
Y57479*
X42069Y57499*
X42079Y57509*
Y57519*
X42099Y57529*
X42119Y57549*
X42139Y57559*
X42149Y57569*
X42169Y57579*
X42179*
X42189*
Y57589*
X42199*
X42179Y57599*
X42159Y57609*
X42149Y57619*
X42129Y57629*
X42119Y57639*
Y57649*
X42109*
X42099Y57669*
Y57689*
X42089Y57699*
Y57719*
Y57729*
X42079Y57739*
Y57749*
X42089Y57769*
Y57789*
Y57809*
X42099Y57819*
X42109Y57839*
Y57849*
X42129Y57869*
X42139Y57889*
X42149Y57899*
X42169Y57909*
X42179Y57919*
X42189Y57929*
X42199*
X42219Y57939*
X42239Y57949*
X42259*
X42279Y57959*
X42299*
X42309*
X42319*
X42339*
G37*
G36*
X41709Y64289D02*
Y64199D01*
X41359*
Y64009*
X41259*
Y64199*
X41149*
Y64289*
X41259*
Y64809*
X41339*
X41709Y64289*
G37*
G36*
X44639Y57949D02*
X44659D01*
X44679*
X44699Y57939*
X44719*
X44729Y57929*
X44739*
X44759Y57919*
X44769Y57909*
X44779*
X44789Y57899*
X44799*
Y57889*
X44809*
X44819Y57879*
X44829Y57869*
X44839Y57849*
X44849Y57839*
Y57819*
X44859Y57809*
X44869Y57779*
Y57769*
X44879Y57759*
Y57749*
Y57739*
Y57729*
Y57719*
X44779Y57709*
Y57729*
Y57759*
X44769Y57779*
X44759Y57799*
X44749Y57809*
Y57819*
X44739*
Y57829*
X44719Y57839*
X44699Y57849*
X44679Y57859*
X44669*
X44649Y57869*
X44639*
X44629*
X44599*
X44579Y57859*
X44559*
X44539Y57849*
X44529Y57839*
X44519Y57829*
X44499Y57809*
X44489Y57799*
X44479Y57779*
Y57759*
X44469Y57749*
Y57739*
Y57729*
Y57719*
Y57709*
X44479Y57689*
X44489Y57669*
X44499Y57649*
Y57629*
X44509*
Y57619*
X44519*
Y57609*
X44529Y57599*
X44539Y57579*
X44549Y57569*
X44569Y57559*
X44599Y57529*
X44629Y57499*
X44639Y57489*
X44649Y57479*
X44669Y57469*
X44679Y57459*
Y57449*
X44689Y57439*
X44699*
X44729Y57409*
X44749Y57389*
X44779Y57369*
X44789Y57349*
X44809Y57339*
X44819Y57329*
Y57319*
X44829*
X44839Y57299*
X44859Y57279*
X44869Y57259*
X44879Y57239*
Y57229*
X44889Y57219*
Y57209*
X44899Y57199*
Y57179*
Y57169*
Y57159*
Y57149*
Y57139*
X44369*
Y57239*
X44769*
X44749Y57249*
X44739Y57259*
Y57269*
X44729Y57279*
X44719Y57289*
X44709Y57299*
X44699Y57309*
Y57319*
X44679Y57329*
X44659Y57349*
X44639Y57369*
X44629*
X44619Y57379*
X44609Y57389*
X44589Y57409*
X44569Y57419*
X44559Y57439*
X44539Y57449*
X44529Y57459*
X44509Y57479*
X44499Y57489*
X44489Y57499*
X44479*
Y57509*
X44469Y57519*
X44459*
Y57529*
X44439Y57549*
X44429Y57569*
X44419Y57589*
X44409Y57599*
X44399Y57609*
X44389Y57619*
Y57629*
X44379Y57649*
Y57669*
Y57679*
X44369Y57699*
Y57709*
Y57719*
Y57729*
Y57739*
Y57759*
X44379Y57779*
Y57789*
X44389Y57819*
X44399Y57829*
Y57839*
X44409Y57849*
X44419Y57859*
Y57869*
X44429*
Y57879*
X44439*
Y57889*
X44449Y57899*
X44469Y57909*
X44479Y57919*
X44499*
X44509Y57929*
X44529*
X44559Y57939*
X44569Y57949*
X44579*
X44589*
X44599*
X44609*
X44619*
X44639*
G37*
G36*
X46839Y57939D02*
X46859Y57919D01*
X46869Y57899*
X46889Y57889*
X46899Y57869*
X46909Y57859*
X46919*
Y57849*
X46949Y57829*
X46969Y57809*
X46989Y57799*
X47019Y57779*
X47039Y57769*
X47049*
Y57759*
X47059*
X47069*
Y57659*
X47049Y57669*
X47029Y57679*
X47009Y57689*
X46999*
X46979Y57699*
X46969Y57709*
X46959*
X46939Y57719*
X46919Y57739*
X46909Y57749*
X46889Y57759*
X46879Y57769*
X46869Y57779*
Y57149*
X46769*
Y57959*
X46829*
X46839Y57939*
G37*
%LNlv1-2*%
%LPC*%
G36*
X41359Y64659D02*
Y64289D01*
X41609*
X41359Y64659*
G37*
%LNlv1-3*%
%LPD*%
G54D38*
X56009Y101889D02*
Y106889D01*
G54D41*
X242059Y09999D02*
Y109999D01*
X172969Y09999D02*
X242059D01*
X22349D02*
X172969D01*
X21999Y10349D02*
X22349Y09999D01*
X21999Y10349D02*
Y10409D01*
Y109979*
X22019Y109999D02*
X242059D01*
G54D65*
X24729Y20369D02*
Y20769D01*
X24029Y20369D02*
Y20769D01*
X31339Y17329D02*
Y17729D01*
X30639Y17329D02*
Y17729D01*
X29559Y17329D02*
Y17729D01*
X28859Y17329D02*
Y17729D01*
X196399Y17619D02*
X196799D01*
X196399Y16919D02*
X196799D01*
X196399Y32859D02*
X196799D01*
X196399Y32159D02*
X196799D01*
X208339Y17889D02*
Y18689D01*
X210739Y17889D02*
Y18689D01*
X205299Y17889D02*
Y18689D01*
X207699Y17889D02*
Y18689D01*
X202249Y17889D02*
Y18689D01*
X204649Y17889D02*
Y18689D01*
X187009Y17379D02*
Y18179D01*
X189409Y17379D02*
Y18179D01*
X201999Y31599D02*
Y32399D01*
X204399Y31599D02*
Y32399D01*
X208099Y31599D02*
Y32399D01*
X210499Y31599D02*
Y32399D01*
X205049Y31599D02*
Y32399D01*
X207449Y31599D02*
Y32399D01*
X187009Y31859D02*
Y32659D01*
X189409Y31859D02*
Y32659D01*
X188069Y58449D02*
Y60049D01*
X191169Y58449D02*
Y60049D01*
X94349Y58449D02*
Y60049D01*
X97449Y58449D02*
Y60049D01*
X60619Y81439D02*
Y93939D01*
X48119Y81439D02*
Y93939D01*
X60619*
X48119Y81439D02*
X60619D01*
X59489Y77369D02*
X59889D01*
X59489Y78069D02*
X59889D01*
X56439Y77879D02*
X56839D01*
X56439Y78579D02*
X56839D01*
X56589Y104389D02*
Y106889D01*
X48569D02*
X56589D01*
X48569Y101889D02*
Y106889D01*
Y101889D02*
X56589D01*
Y104389*
X49329Y97379D02*
X49729D01*
X49329Y96679D02*
X49729D01*
X50089Y98649D02*
X50489D01*
X50089Y97949D02*
X50489D01*
X50699Y76249D02*
Y76649D01*
X51399Y76249D02*
Y76649D01*
X52629Y77879D02*
X53029D01*
X52629Y78579D02*
X53029D01*
X64929Y85649D02*
Y86049D01*
X65629Y85649D02*
Y86049D01*
X64939Y101889D02*
Y104389D01*
X57489Y101889D02*
X64939D01*
X57489D02*
Y106889D01*
X64939*
Y104389D02*
Y106889D01*
G54D66*
X62049Y94389D02*
D01*
D01*
G75*
G03X61809I-00119J0D01*
G74*G01*
D01*
G75*
G03X62049I00119J0D01*
G74*G01*
G54D67*
X59919Y92939D02*
D01*
D01*
G75*
G03X59319I-00299J0D01*
G74*G01*
D01*
G75*
G03X59919I00299J0D01*
G74*G01*
G54D68*
X49849Y63169D02*
D01*
D01*
G75*
G03Y57249I00949J-02960D01*
G74*G01*
X51769D02*
D01*
D01*
G75*
G03Y63169I-00949J02960D01*
G74*G01*
X35629Y59109D02*
D01*
D01*
G75*
G03Y53179I00956J-02964D01*
G74*G01*
X37539D02*
D01*
D01*
G75*
G03Y59109I-00956J02965D01*
G74*G01*
X47549Y56949D02*
X49849D01*
X47549D02*
Y61769D01*
X49249Y63449*
X49849*
X51769D02*
X52369D01*
X54049Y61769*
Y56949D02*
Y61769D01*
X51769Y56949D02*
X54049D01*
X33329Y52879D02*
X35629D01*
X33329D02*
Y57709D01*
X35029Y59389*
X35629*
X37539D02*
X38149D01*
X39829Y57709*
Y52879D02*
Y57709D01*
X37539Y52879D02*
X39829D01*
G54D70*
X44199Y55629D02*
Y56159D01*
X43929Y56429*
X43659Y56159*
Y55629*
Y56029*
X44199*
X42859Y56289D02*
X42999Y56429D01*
X43259*
X43399Y56289*
Y55759*
X43259Y55629*
X42999*
X42859Y55759*
X42059Y56429D02*
X42329Y56289D01*
X42599Y56029*
Y55759*
X42459Y55629*
X42199*
X42059Y55759*
Y55889*
X42199Y56029*
X42599*
X55279Y57939D02*
X55409Y57799D01*
Y57539*
X55279Y57399*
X54739*
X54609Y57539*
Y57799*
X54739Y57939*
X54609Y58739D02*
Y58199D01*
X55139Y58739*
X55279*
X55409Y58599*
Y58339*
X55279Y58199*
X54609Y58999D02*
Y59269D01*
Y59139*
X55409*
X55279Y58999*
X44699Y67349D02*
Y66549D01*
X44169*
X43899Y67349D02*
Y66549D01*
X43499*
X43369Y66679*
Y67209*
X43499Y67349*
X43899*
X42699D02*
X42969D01*
X43099Y67209*
Y66679*
X42969Y66549*
X42699*
X42569Y66679*
Y67209*
X42699Y67349*
X42299Y66549D02*
X42039D01*
X42169*
Y67349*
X42299Y67209*
X32229Y53499D02*
X32369Y53629D01*
X32629*
X32769Y53499*
Y52969*
X32629Y52829*
X32369*
X32229Y52969*
X31429Y52829D02*
X31969D01*
X31429Y53369*
Y53499*
X31569Y53629*
X31829*
X31969Y53499*
X31169D02*
X31029Y53629D01*
X30769*
X30629Y53499*
Y52969*
X30769Y52829*
X31029*
X31169Y52969*
Y53499*
X66269Y105189D02*
X66799D01*
Y104789*
X66539*
X66799*
Y104389*
X65999Y105059D02*
X65869Y105189D01*
X65599*
X65469Y105059*
Y104929*
X65599Y104789*
X65739*
X65599*
X65469Y104659*
Y104529*
X65599Y104389*
X65869*
X65999Y104529*
X57149Y74709D02*
Y74579D01*
X56879Y74309*
X56619Y74579*
Y74709*
X56879Y74309D02*
Y73909D01*
X56349D02*
X56079D01*
X56219*
Y74709*
X56349Y74579*
X69849Y85599D02*
Y86399D01*
X69449*
X69319Y86259*
Y85999*
X69449Y85859*
X69849*
X69579D02*
X69319Y85599D01*
X69049Y86399D02*
Y85599D01*
X68519*
X67719Y86399D02*
X68249D01*
Y85599*
X67719*
X68249Y85999D02*
X67979D01*
X67449Y86399D02*
Y85599D01*
X67049*
X66919Y85729*
Y86259*
X67049Y86399*
X67449*
X66119Y85599D02*
X66649D01*
X66119Y86129*
Y86259*
X66249Y86399*
X66519*
X66649Y86259*
X53089Y77469D02*
X52289D01*
Y77069*
X52419Y76939*
X52689*
X52819Y77069*
Y77469*
Y77199D02*
X53089Y76939D01*
X53219Y76669D02*
Y76139D01*
X53349Y75869D02*
X52549D01*
Y75469*
X52689Y75339*
X52949*
X53089Y75469*
Y75869*
X52549Y75069D02*
X52949D01*
X53089Y74939*
Y74539*
X52549*
X53089Y73869D02*
X52289D01*
X52689Y74269*
Y73739*
X50039Y75949D02*
Y76749D01*
X49639*
X49499Y76609*
Y76349*
X49639Y76209*
X50039*
X49769D02*
X49499Y75949D01*
X49239Y75809D02*
X48709D01*
X48439Y75679D02*
Y76479D01*
X48039*
X47909Y76349*
Y76079*
X48039Y75949*
X48439*
X47639Y76479D02*
Y76079D01*
X47509Y75949*
X47109*
Y76479*
X46839Y76609D02*
X46709Y76749D01*
X46439*
X46309Y76609*
Y76479*
X46439Y76349*
X46569*
X46439*
X46309Y76209*
Y76079*
X46439Y75949*
X46709*
X46839Y76079*
X50039Y99309D02*
X50839D01*
Y99709*
X50699Y99849*
X50439*
X50299Y99709*
Y99309*
Y99579D02*
X50039Y99849D01*
X49899Y100109D02*
Y100649D01*
X49769Y100909D02*
X50569D01*
Y101309*
X50439Y101449*
X50169*
X50039Y101309*
Y100909*
X50569Y101709D02*
X50169D01*
X50039Y101849*
Y102249*
X50569*
X50039Y103049D02*
Y102509D01*
X50569Y103049*
X50699*
X50839Y102909*
Y102649*
X50699Y102509*
X46989Y97029D02*
X47789D01*
Y97429*
X47659Y97559*
X47389*
X47259Y97429*
Y97029*
Y97289D02*
X46989Y97559D01*
X46859Y97829D02*
Y98359D01*
X46719Y98629D02*
X47519D01*
Y99029*
X47389Y99159*
X47119*
X46989Y99029*
Y98629*
X47519Y99429D02*
X47119D01*
X46989Y99559*
Y99959*
X47519*
X46989Y100229D02*
Y100489D01*
Y100359*
X47789*
X47659Y100229*
X69089Y90459D02*
Y89659D01*
X68549*
X67759Y90459D02*
X68289D01*
Y89659*
X67759*
X68289Y90059D02*
X68019D01*
X67489Y90459D02*
Y89659D01*
X67089*
X66959Y89799*
Y90329*
X67089Y90459*
X67489*
X66159Y89659D02*
X66689D01*
X66159Y90199*
Y90329*
X66289Y90459*
X66559*
X66689Y90329*
X27609Y74929D02*
Y74659D01*
Y74799*
X28409*
Y74929*
Y74659*
X27739Y73729D02*
X27609Y73859D01*
Y74129*
X27739Y74259*
X28279*
X28409Y74129*
Y73859*
X28279Y73729*
X27739Y72929D02*
X27609Y73059D01*
Y73329*
X27739Y73459*
X27879*
X28009Y73329*
Y73059*
X28139Y72929*
X28279*
X28409Y73059*
Y73329*
X28279Y73459*
X28409Y72659D02*
X27609D01*
Y72259*
X27739Y72129*
X28009*
X28139Y72259*
Y72659*
X28409Y71859D02*
Y71599D01*
Y71729*
X27609*
X27739Y71859*
X44959Y103849D02*
Y104649D01*
X45359*
X45489Y104509*
Y103979*
X45359Y103849*
X44959*
X45759D02*
X46289D01*
X46019*
Y104649*
X46559Y103849D02*
Y104379D01*
X46819Y104649*
X47089Y104379*
Y103849*
X47889Y103979D02*
X47759Y103849D01*
X47489*
X47359Y103979*
Y104109*
X47489Y104249*
X47759*
X47889Y104379*
Y104509*
X47759Y104649*
X47489*
X47359Y104509*
X54359Y76449D02*
X54889D01*
X55159Y76719*
X54889Y76989*
X54359*
X54759*
Y76449*
X54359Y77249D02*
X55159D01*
Y77649*
X55019Y77789*
X54759*
X54619Y77649*
Y77249*
Y77519D02*
X54359Y77789D01*
Y78589D02*
Y78049D01*
X54889Y78589*
X55019*
X55159Y78449*
Y78189*
X55019Y78049*
X66059Y97279D02*
X65519D01*
X65259Y97019*
X65519Y96749*
X66059*
X65659*
Y97279*
X65389Y95949D02*
X65259Y96079D01*
Y96349*
X65389Y96479*
X65919*
X66059Y96349*
Y96079*
X65919Y95949*
X65259Y95149D02*
Y95679D01*
X65659*
X65519Y95419*
Y95279*
X65659Y95149*
X65919*
X66059Y95279*
Y95549*
X65919Y95679*
X64009Y87629D02*
X63469D01*
X63209Y87359*
X63469Y87099*
X64009*
X63609*
Y87629*
X63339Y86299D02*
X63209Y86429D01*
Y86699*
X63339Y86829*
X63869*
X64009Y86699*
Y86429*
X63869Y86299*
X64009Y85629D02*
X63209D01*
X63609Y86029*
Y85499*
X44449Y83309D02*
X44979D01*
X45249Y83579*
X44979Y83849*
X44449*
X44849*
Y83309*
X45119Y84639D02*
X45249Y84509D01*
Y84249*
X45119Y84109*
X44579*
X44449Y84249*
Y84509*
X44579Y84639*
X45119Y84909D02*
X45249Y85039D01*
Y85309*
X45119Y85439*
X44979*
X44849Y85309*
Y85179*
Y85309*
X44719Y85439*
X44579*
X44449Y85309*
Y85039*
X44579Y84909*
X66039Y97539D02*
X66569D01*
X66839Y97799*
X66569Y98069*
X66039*
X66439*
Y97539*
X66709Y98869D02*
X66839Y98739D01*
Y98469*
X66709Y98339*
X66169*
X66039Y98469*
Y98739*
X66169Y98869*
X66039Y99669D02*
Y99139D01*
X66569Y99669*
X66709*
X66839Y99539*
Y99269*
X66709Y99139*
X31749Y78229D02*
X31219D01*
X30949Y77969*
X31219Y77699*
X31749*
X31349*
Y78229*
X31079Y76899D02*
X30949Y77029D01*
Y77299*
X31079Y77429*
X31619*
X31749Y77299*
Y77029*
X31619Y76899*
X31749Y76629D02*
Y76369D01*
Y76499*
X30949*
X31079Y76629*
X65279Y77219D02*
Y78019D01*
X64879*
X64739Y77879*
Y77619*
X64879Y77479*
X65279*
X65009D02*
X64739Y77219D01*
X64479Y77079D02*
X63949D01*
X63679Y76949D02*
Y77749D01*
X63279*
X63149Y77619*
Y77349*
X63279Y77219*
X63679*
X62879Y77749D02*
Y77349D01*
X62749Y77219*
X62349*
Y77749*
X61549Y78019D02*
X62079D01*
Y77619*
X61809Y77749*
X61679*
X61549Y77619*
Y77349*
X61679Y77219*
X61949*
X62079Y77349*
X47369Y95289D02*
Y94619D01*
X47239Y94489*
X46969*
X46839Y94619*
Y95289*
X46569Y95149D02*
X46439Y95289D01*
X46169*
X46039Y95149*
Y95019*
X46169Y94889*
X46309*
X46169*
X46039Y94749*
Y94619*
X46169Y94489*
X46439*
X46569Y94619*
X92809Y62409D02*
X92949Y62549D01*
X93209*
X93349Y62409*
Y61879*
X93209Y61749*
X92949*
X92809Y61879*
X92549Y62409D02*
X92409Y62549D01*
X92149*
X92009Y62409*
Y62279*
X92149Y62149*
X92279*
X92149*
X92009Y62009*
Y61879*
X92149Y61749*
X92409*
X92549Y61879*
X91749Y61749D02*
X91479D01*
X91609*
Y62549*
X91749Y62409*
X186799Y61439D02*
X186939Y61569D01*
X187199*
X187339Y61439*
Y60899*
X187199Y60769*
X186939*
X186799Y60899*
X186539Y61439D02*
X186399Y61569D01*
X186139*
X186009Y61439*
Y61299*
X186139Y61169*
X186269*
X186139*
X186009Y61039*
Y60899*
X186139Y60769*
X186399*
X186539Y60899*
X185739Y61439D02*
X185609Y61569D01*
X185339*
X185209Y61439*
Y61299*
X185339Y61169*
X185469*
X185339*
X185209Y61039*
Y60899*
X185339Y60769*
X185609*
X185739Y60899*
X184679Y31589D02*
X184549Y31459D01*
X184279*
X184149Y31589*
Y32119*
X184279Y32259*
X184549*
X184679Y32119*
X184949Y32259D02*
X185219D01*
X185079*
Y31459*
X184949Y31589*
X186149Y32259D02*
X185619D01*
X186149Y31719*
Y31589*
X186019Y31459*
X185749*
X185619Y31589*
X205769Y34629D02*
X205629Y34499D01*
X205369*
X205229Y34629*
Y35159*
X205369Y35299*
X205629*
X205769Y35159*
X206029Y35299D02*
X206299D01*
X206169*
Y34499*
X206029Y34629*
X206699D02*
X206829Y34499D01*
X207099*
X207229Y34629*
Y34759*
X207099Y34899*
X206959*
X207099*
X207229Y35029*
Y35159*
X207099Y35299*
X206829*
X206699Y35159*
X209069Y34629D02*
X208929Y34499D01*
X208669*
X208529Y34629*
Y35159*
X208669Y35299*
X208929*
X209069Y35159*
X209329Y35299D02*
X209599D01*
X209469*
Y34499*
X209329Y34629*
X210399Y35299D02*
Y34499D01*
X209999Y34899*
X210529*
X202719Y34629D02*
X202579Y34499D01*
X202319*
X202179Y34629*
Y35159*
X202319Y35299*
X202579*
X202719Y35159*
X202979Y35299D02*
X203249D01*
X203119*
Y34499*
X202979Y34629*
X204179Y34499D02*
X203649D01*
Y34899*
X203919Y34759*
X204049*
X204179Y34899*
Y35159*
X204049Y35299*
X203779*
X203649Y35159*
X184429Y17109D02*
X184299Y16979D01*
X184029*
X183899Y17109*
Y17649*
X184029Y17779*
X184299*
X184429Y17649*
X184699Y17779D02*
X184959D01*
X184829*
Y16979*
X184699Y17109*
X185899Y16979D02*
X185629Y17109D01*
X185359Y17379*
Y17649*
X185499Y17779*
X185759*
X185899Y17649*
Y17509*
X185759Y17379*
X185359*
X203229Y20669D02*
X203089Y20539D01*
X202829*
X202689Y20669*
Y21199*
X202829Y21339*
X203089*
X203229Y21199*
X203489Y21339D02*
X203759D01*
X203629*
Y20539*
X203489Y20669*
X204159Y20539D02*
X204689D01*
Y20669*
X204159Y21199*
Y21339*
X206019Y20669D02*
X205889Y20539D01*
X205619*
X205489Y20669*
Y21199*
X205619Y21339*
X205889*
X206019Y21199*
X206289Y21339D02*
X206549D01*
X206419*
Y20539*
X206289Y20669*
X206949D02*
X207089Y20539D01*
X207349*
X207489Y20669*
Y20799*
X207349Y20939*
X207489Y21069*
Y21199*
X207349Y21339*
X207089*
X206949Y21199*
Y21069*
X207089Y20939*
X206949Y20799*
Y20669*
X207089Y20939D02*
X207349D01*
X209049Y20669D02*
X208919Y20539D01*
X208649*
X208519Y20669*
Y21199*
X208649Y21339*
X208919*
X209049Y21199*
X209319Y21339D02*
X209579D01*
X209449*
Y20539*
X209319Y20669*
X209979Y21199D02*
X210119Y21339D01*
X210379*
X210519Y21199*
Y20669*
X210379Y20539*
X210119*
X209979Y20669*
Y20799*
X210119Y20939*
X210519*
X196849Y25949D02*
Y25149D01*
X196319*
X196049Y25809D02*
X195919Y25949D01*
X195649*
X195519Y25809*
Y25679*
X195649Y25549*
X195779*
X195649*
X195519Y25409*
Y25279*
X195649Y25149*
X195919*
X196049Y25279*
X196849Y24419D02*
Y23619D01*
X196319*
X195649D02*
Y24419D01*
X196049Y24019*
X195519*
X197869Y33779D02*
Y34579D01*
X197469*
X197329Y34449*
Y34179*
X197469Y34049*
X197869*
X197599D02*
X197329Y33779D01*
X197069Y33649D02*
X196529D01*
X196269Y34579D02*
Y33779D01*
X195729*
X195469Y34449D02*
X195329Y34579D01*
X195069*
X194929Y34449*
Y34319*
X195069Y34179*
X195199*
X195069*
X194929Y34049*
Y33919*
X195069Y33779*
X195329*
X195469Y33919*
X197869Y15489D02*
Y16289D01*
X197469*
X197329Y16159*
Y15889*
X197469Y15759*
X197869*
X197599D02*
X197329Y15489D01*
X197069Y15359D02*
X196529D01*
X196269Y16289D02*
Y15489D01*
X195729*
X195069D02*
Y16289D01*
X195469Y15889*
X194929*
X30989Y19299D02*
Y20099D01*
X30589*
X30449Y19969*
Y19699*
X30589Y19569*
X30989*
X30719D02*
X30449Y19299D01*
X30189Y19169D02*
X29659D01*
X29389Y20099D02*
Y19299D01*
X28859*
X28059Y20099D02*
X28589D01*
Y19299*
X28059*
X28589Y19699D02*
X28319D01*
X27789Y20099D02*
Y19299D01*
X27389*
X27259Y19439*
Y19969*
X27389Y20099*
X27789*
X26989Y19299D02*
X26719D01*
X26859*
Y20099*
X26989Y19969*
X34799Y14989D02*
Y15789D01*
X34399*
X34259Y15649*
Y15389*
X34399Y15249*
X34799*
X34529D02*
X34259Y14989D01*
X33999Y14849D02*
X33469D01*
X33199Y15789D02*
Y14989D01*
X32669*
X31869Y15789D02*
X32399D01*
Y14989*
X31869*
X32399Y15389D02*
X32129D01*
X31599Y15789D02*
Y14989D01*
X31199*
X31069Y15119*
Y15649*
X31199Y15789*
X31599*
X30269Y14989D02*
X30799D01*
X30269Y15519*
Y15649*
X30399Y15789*
X30669*
X30799Y15649*
X26919Y18029D02*
Y18829D01*
X26519*
X26389Y18699*
Y18429*
X26519Y18299*
X26919*
X26659D02*
X26389Y18029D01*
X26119Y17899D02*
X25589D01*
X25319Y18829D02*
Y18029D01*
X24789*
X23989Y18829D02*
X24519D01*
Y18029*
X23989*
X24519Y18429D02*
X24259D01*
X23729Y18829D02*
Y18029D01*
X23329*
X23189Y18169*
Y18699*
X23329Y18829*
X23729*
X22929Y18699D02*
X22789Y18829D01*
X22529*
X22389Y18699*
Y18569*
X22529Y18429*
X22659*
X22529*
X22389Y18299*
Y18169*
X22529Y18029*
X22789*
X22929Y18169*
G54D116*
X40339Y63249D02*
X46889D01*
Y59689D02*
Y63249D01*
X40339Y59689D02*
X46889D01*
X40339D02*
Y63249D01*
G54D117*
X22099Y77339D02*
Y78609D01*
X22729Y79249D02*
X26539D01*
X27179Y78609*
Y77339D02*
Y78609D01*
X26539Y76709D02*
X27179Y77339D01*
X22099Y78609D02*
X22729Y79249D01*
X22099Y77339D02*
X22729Y76709D01*
X22099Y72259D02*
Y73529D01*
Y74799D02*
Y76069D01*
X22729Y76709D02*
X26539D01*
X22729Y74169D02*
X26539D01*
Y76709D02*
X27179Y76069D01*
Y74799D02*
Y76069D01*
X26539Y74169D02*
X27179Y74799D01*
X26539Y74169D02*
X27179Y73529D01*
Y72259D02*
Y73529D01*
X26539Y71629D02*
X27179Y72259D01*
X22729Y71629D02*
X26539D01*
X22099Y76069D02*
X22729Y76709D01*
X22099Y74799D02*
X22729Y74169D01*
X22099Y73529D02*
X22729Y74169D01*
X22099Y72259D02*
X22729Y71629D01*
G54D118*
X58239Y75399D02*
Y77009D01*
X55039Y75399D02*
Y77009D01*
G54D119*
X65879Y89049D03*
G54D120*
X64669Y89049D03*
G54D121*
X65279Y89049D03*
M02*