%FSTAX23Y23*%
%MOMM*%
%SFA1B1*%

%IPPOS*%
%AMD48*
4,1,8,-0.784860,0.393700,-0.784860,-0.393700,-0.393700,-0.784860,0.393700,-0.784860,0.784860,-0.393700,0.784860,0.393700,0.393700,0.784860,-0.393700,0.784860,-0.784860,0.393700,0.0*
%
%ADD10O,1.399997X0.799998*%
%ADD11R,1.399997X0.799998*%
%ADD12R,0.899998X0.699999*%
%ADD13R,0.799998X0.899998*%
%ADD14R,0.699999X0.899998*%
%ADD15R,1.419997X3.019994*%
%ADD16R,1.099998X2.599995*%
%ADD17R,2.999994X2.259995*%
%ADD18R,0.759998X1.139998*%
%ADD19R,1.799996X2.099996*%
%ADD20R,1.699997X1.099998*%
%ADD21R,1.169998X1.879996*%
%ADD22R,1.199998X1.199998*%
%ADD23R,1.519997X2.179996*%
%ADD24R,3.099994X3.999992*%
%ADD25R,1.389997X1.399997*%
%ADD26R,3.359993X4.859990*%
%ADD27R,3.199994X1.799996*%
%ADD28R,1.399997X1.099998*%
%ADD29R,3.299993X1.549997*%
%ADD30R,0.999998X0.549999*%
%ADD31O,0.999998X0.549999*%
%ADD32R,0.899998X0.799998*%
%ADD33R,3.299993X1.399997*%
%ADD34R,2.599995X1.099998*%
%ADD35R,1.999996X3.499993*%
%ADD36C,0.299999*%
%ADD37C,1.999996*%
%ADD38C,0.299999*%
%ADD39C,0.639999*%
%ADD40C,0.250000*%
%ADD41C,0.499999*%
%ADD42C,0.749999*%
%ADD43C,0.509999*%
%ADD44C,0.699999*%
%ADD45C,1.599997*%
%ADD46C,1.519997*%
%ADD47C,1.699997*%
G04~CAMADD=48~4~0.0~0.0~618.1~618.1~0.0~154.5~0~0.0~0.0~0.0~0.0~0~0.0~0.0~0.0~0.0~0~0.0~0.0~0.0~90.0~618.0~618.0*
%ADD48D48*%
%ADD49C,2.799994*%
%ADD50C,0.639999*%
%ADD51C,1.269997*%
%ADD52C,0.759998*%
%ADD53C,1.019998*%
%ADD54C,0.799998*%
%LNlv1-1*%
%LPD*%
G36*
X199279Y70419D02*
Y64069D01*
X196479*
Y70419*
X199279*
G37*
G36*
X168029D02*
Y64069D01*
X165239*
Y70419*
X168029*
G37*
G36*
X134249Y64579D02*
X126629D01*
Y69149*
X134249*
Y64579*
G37*
G36*
X103009D02*
X95389D01*
Y69149*
X103009*
Y64579*
G37*
G36*
X180479Y65089D02*
X180729Y64829D01*
X182509Y63059*
X183019Y62549*
X199279*
Y60519*
X178449*
Y72959*
X180479*
Y65089*
G37*
G36*
X149239D02*
X149489Y64829D01*
X151269Y63059*
X151779Y62549*
X168029*
Y60519*
X147209*
Y72959*
X149239*
Y65089*
G37*
G36*
X137299Y70419D02*
Y64069D01*
X134509*
Y70419*
X137299*
G37*
G36*
X106059D02*
Y64069D01*
X103259*
Y70419*
X106059*
G37*
G36*
X126389Y80739D02*
X125459Y78499D01*
X124349*
X124269Y78479*
X124199Y78439*
X124159Y78369*
X124139Y78299*
Y76769*
X121389*
X121299Y76859*
Y78319*
X121439Y78459*
X121519Y78579*
X121559Y78649*
X121579Y78749*
X121599Y78859*
Y79029*
X121689*
Y80229*
X121409*
X121319Y80329*
X121339Y80429*
X121689*
Y80849*
X126319*
X126389Y80739*
G37*
G36*
X95149D02*
X94219Y78499D01*
X93099*
X93029Y78479*
X92959Y78439*
X92919Y78369*
X92899Y78299*
Y76769*
X90149*
X90059Y76859*
Y78319*
X90199Y78459*
X90269Y78579*
X90319Y78649*
X90339Y78749*
X90359Y78859*
Y79029*
X90449*
Y80229*
X90169*
X90079Y80329*
X90099Y80429*
X90449*
Y80849*
X95079*
X95149Y80739*
G37*
G36*
X188369D02*
X187439Y78499D01*
X186319*
X186239Y78479*
X186179Y78439*
X186129Y78369*
X186119Y78299*
Y76769*
X183359*
X183269Y76859*
Y78319*
X183419Y78459*
X183489Y78579*
X183539Y78649*
X183559Y78749*
X183579Y78859*
Y79029*
X183669*
Y80229*
X183379*
X183299Y80329*
X183309Y80429*
X183669*
Y80849*
X188299*
X188369Y80739*
G37*
G36*
X157129D02*
X156199Y78499D01*
X155079*
X154999Y78479*
X154939Y78439*
X154889Y78369*
X154879Y78299*
Y76769*
X152119*
X152029Y76859*
Y78319*
X152169Y78459*
X152249Y78579*
X152299Y78649*
X152319Y78749*
X152339Y78859*
Y79029*
X152429*
Y80229*
X152139*
X152049Y80329*
X152069Y80429*
X152429*
Y80849*
X157059*
X157129Y80739*
G37*
G36*
X196229Y64579D02*
X188609D01*
Y69149*
X196229*
Y64579*
G37*
G36*
X164989D02*
X157369D01*
Y69149*
X164989*
Y64579*
G37*
G36*
X48879Y84179D02*
X48819Y84049D01*
X30039*
X29899Y84019*
X29779Y83939*
X26389Y80549*
X25409*
X24919Y80059*
Y79069*
X25089Y78899*
X25039Y78779*
X24769*
X24629Y78759*
X24519Y78679*
X23849Y78009*
X23369*
Y78579*
X23859*
X24359Y79069*
Y80049*
X25019Y80709*
X25099Y80829*
X25129Y80969*
Y82489*
X26859Y84229*
X48839*
X48879Y84179*
G37*
G36*
X228599Y95499D02*
X228849Y95249D01*
X238249*
Y92539*
X238119Y92479*
X237979Y92589*
X237739Y92689*
X237489Y92719*
X237239Y92689*
X236999Y92589*
X236799Y92439*
X236649Y92239*
X236549Y91999*
X236519Y91749*
X236549Y91499*
X236649Y91259*
X236799Y91059*
X236999Y90909*
X237239Y90809*
X237489Y90779*
X237739Y90809*
X237979Y90909*
X238119Y91019*
X238249Y90959*
Y89999*
X238119Y89939*
X237979Y90049*
X237739Y90149*
X237489Y90179*
X237239Y90149*
X236999Y90049*
X236799Y89899*
X236649Y89699*
X236549Y89459*
X236519Y89209*
X236549Y88959*
X236649Y88719*
X236799Y88519*
X236999Y88369*
X237239Y88269*
X237489Y88239*
X237739Y88269*
X237979Y88369*
X238119Y88479*
X238249Y88419*
Y79839*
X238119Y79779*
X237979Y79889*
X237739Y79989*
X237489Y80019*
X237239Y79989*
X236999Y79889*
X236799Y79739*
X236649Y79539*
X236549Y79299*
X236519Y79049*
X236549Y78799*
X236649Y78559*
X236799Y78359*
X236999Y78209*
X237239Y78109*
X237489Y78079*
X237739Y78109*
X237979Y78209*
X238119Y78319*
X238249Y78259*
Y77299*
X238119Y77239*
X237979Y77349*
X237739Y77449*
X237489Y77479*
X237239Y77449*
X236999Y77349*
X236799Y77199*
X236649Y76999*
X236549Y76759*
X236519Y76509*
X236549Y76259*
X236649Y76019*
X236799Y75819*
X236999Y75669*
X237239Y75569*
X237489Y75539*
X237739Y75569*
X237979Y75669*
X238119Y75779*
X238249Y75719*
Y74759*
X238119Y74699*
X237979Y74809*
X237739Y74909*
X237489Y74939*
X237239Y74909*
X236999Y74809*
X236799Y74659*
X236649Y74459*
X236549Y74219*
X236519Y73969*
X236549Y73719*
X236649Y73479*
X236799Y73279*
X236999Y73129*
X237239Y73029*
X237489Y72999*
X237739Y73029*
X237979Y73129*
X238119Y73239*
X238249Y73179*
Y72219*
X238119Y72159*
X237979Y72269*
X237739Y72369*
X237489Y72399*
X237239Y72369*
X236999Y72269*
X236799Y72119*
X236649Y71919*
X236549Y71679*
X236519Y71429*
X236549Y71179*
X236649Y70939*
X236799Y70739*
X236999Y70589*
X237239Y70489*
X237489Y70459*
X237739Y70489*
X237979Y70589*
X238119Y70699*
X238249Y70639*
Y50289*
X201559*
Y94539*
X206139*
X220289Y80389*
X220279Y80329*
X220309Y80109*
X220389Y79909*
X220519Y79729*
X220599Y79679*
Y79199*
X220459*
Y77899*
X220329Y77889*
X215529*
X215499Y77959*
X215369Y78129*
X215189Y78259*
X214989Y78349*
X214769Y78379*
X214549Y78349*
X214349Y78259*
X214169Y78129*
X214039Y77959*
X213959Y77749*
X213929Y77529*
X213959Y77319*
X214039Y77109*
X214169Y76939*
X214349Y76799*
X214549Y76719*
X214769Y76689*
X214989Y76719*
X215189Y76799*
X215369Y76939*
X215499Y77109*
X215529Y77179*
X220719*
X220869Y77029*
X220979Y76949*
X221119Y76919*
X221859*
X221909Y76849*
X222109Y76709*
X222139*
Y76579*
X222109*
X221909Y76439*
X221859Y76369*
X216799*
X216769Y76429*
X216639Y76609*
X216459Y76739*
X216259Y76819*
X216039Y76849*
X215819Y76819*
X215619Y76739*
X215439Y76609*
X215309Y76429*
X215229Y76229*
X215199Y76009*
X215229Y75789*
X215309Y75589*
X215439Y75409*
X215619Y75279*
X215819Y75199*
X216039Y75169*
X216259Y75199*
X216459Y75279*
X216639Y75409*
X216769Y75589*
X216799Y75649*
X221859*
X221909Y75579*
X222109Y75439*
X222339Y75399*
X222939*
X223179Y75439*
X223379Y75579*
X223509Y75779*
X223559Y76009*
X223509Y76239*
X223379Y76439*
X223179Y76579*
X223149*
Y76709*
X223179*
X223379Y76849*
X223509Y77049*
X223559Y77279*
X223509Y77509*
X223379Y77709*
X223209Y77819*
X223249Y77949*
X223539*
Y79149*
X221739*
X221659Y79199*
X221519*
Y79589*
X221539Y79599*
X221719Y79729*
X221849Y79909*
X221929Y80109*
X221959Y80329*
X221929Y80549*
X221849Y80749*
X221719Y80919*
X221539Y81059*
X221339Y81139*
X221119Y81169*
X220899Y81139*
X220849Y81119*
X206649Y95319*
X206499Y95419*
X206329Y95459*
X201559*
Y100389*
X228599*
Y95499*
G37*
G36*
X238509Y49019D02*
Y45209D01*
X225809*
X213109Y32509*
X210819*
X197609*
Y38099*
X213869*
X225299Y49529*
X232159*
X237999*
X238509Y49019*
G37*
G36*
X133489Y49339D02*
Y38229D01*
X194819*
Y32379*
X117599*
Y32509*
X117489*
Y49339*
X133489*
G37*
G36*
X195719D02*
Y42059D01*
X195629Y41969*
X179459*
Y49339*
X195719*
G37*
G36*
X164479D02*
Y42059D01*
X164389Y41969*
X148219*
Y49339*
X164479*
G37*
G36*
X211069Y12189D02*
X197609D01*
Y17529*
X197869Y17779*
X211069*
Y12189*
G37*
G36*
X84979Y17779D02*
X194819D01*
Y12159*
X75829*
Y17779*
Y57819*
X84979*
Y17779*
G37*
G36*
X110929Y57979D02*
X111209Y57699D01*
X111329Y57619*
X111459Y57589*
X116219*
Y30049*
X210569*
Y30649*
X213869*
X227669Y44449*
X237739*
X238509Y43689*
Y40129*
X229109*
X214379Y25399*
X116219*
X106819*
Y57909*
X106829Y57919*
X106889Y57979*
X110929*
G37*
G36*
X102249Y49339D02*
Y24379D01*
X211069*
Y19809*
X86109*
Y24379*
X86249*
Y49339*
X102249*
G37*
G36*
X195719Y49849D02*
X181999D01*
Y56959*
X195719*
Y49849*
G37*
G36*
X164479D02*
X149999D01*
Y56199*
X150759Y56959*
X164479*
Y49849*
G37*
G36*
X118499Y65089D02*
X118759Y64829D01*
X120539Y63059*
X121039Y62549*
X136909*
Y60519*
X116469*
Y72959*
X118499*
Y65089*
G37*
G36*
X87259D02*
X87519Y64829D01*
X89289Y63059*
X89799Y62549*
X106059*
Y60519*
X85229*
Y72959*
X87259*
Y65089*
G37*
G36*
X178189Y57979D02*
Y41969D01*
X168799*
Y57979*
X178189*
G37*
G36*
X141669D02*
X141719Y57919D01*
X141839Y57839*
X141969Y57819*
X146949*
Y41969*
X137549*
Y57909*
X137619Y57979*
X141669*
G37*
G36*
X133489Y49849D02*
X119269D01*
Y56199*
X120029Y56959*
X133489*
Y49849*
G37*
G36*
X102249D02*
X88019D01*
Y56199*
X88789Y56959*
X102249*
Y49849*
G37*
G36*
X30719Y83209D02*
X27009Y79499D01*
X26899Y79549*
Y80049*
X30179Y83339*
X30669*
X30719Y83209*
G37*
G36*
X137299Y87249D02*
X128919D01*
Y88549*
Y91309*
X137299*
Y87249*
G37*
G36*
X168029D02*
X159649D01*
Y88549*
Y91309*
X168029*
Y87249*
G37*
G36*
X199279Y87439D02*
X190889D01*
Y88739*
Y91499*
X199279*
Y87439*
G37*
G36*
Y70929D02*
X190129D01*
X188859*
X185809Y66609*
X185049*
Y68649*
X185169Y68729*
X185959Y69519*
X186079Y69699*
X186109Y69879*
X186209*
Y70679*
X186319*
Y71529*
X186299Y71549*
X186339Y71609*
X186359Y71689*
Y73269*
X187849*
X187919Y73279*
X187989Y73329*
X188029Y73389*
X188049Y73469*
Y75499*
Y78299*
X188029Y78369*
X187989Y78439*
X187919Y78479*
X187849Y78499*
X187779*
X187699Y78609*
X188559Y80659*
Y80679*
X188569Y80699*
Y80719*
Y80739*
Y80759*
Y80779*
X188559Y80799*
Y80819*
X188549Y80829*
X188539Y80849*
X188469Y80959*
X188449Y80969*
X188439Y80989*
X188429Y80999*
X188409Y81009*
X188389Y81019*
X188379Y81029*
X188359Y81039*
X188339Y81049*
X188319*
X188299*
X183669*
Y81539*
X183799Y81629*
X184349Y82179*
X185419*
X185479Y82109*
Y81689*
X186679*
Y82989*
X186259*
X186079Y83179*
X185889Y83309*
X185659Y83349*
X184109*
X183889Y83309*
X183699Y83179*
X183229Y82719*
X183199Y82729*
X183019Y82759*
X182839Y82729*
X182659Y82659*
X182519Y82549*
X182399Y82399*
X182329Y82229*
X182309Y82039*
X182329Y81859*
X182369Y81759*
Y81629*
Y80429*
X182929*
X183029Y80309*
X183009Y80249*
Y80239*
X182979Y80229*
X182369*
Y79029*
X182299Y78929*
X182119Y78749*
X182049Y78649*
X181989Y78569*
X181969Y78459*
X181959Y78419*
X181929Y78309*
Y77029*
X180729*
Y86169*
X199279*
Y70929*
G37*
G36*
X51539Y83089D02*
Y80739D01*
X49089Y78289*
X26979*
X26929Y78399*
X31099Y82579*
X31229Y82549*
X48489*
X48499Y82539*
X48669Y82419*
X48869Y82379*
X49079Y82419*
X49249Y82539*
X49359Y82709*
X49399Y82909*
X49359Y83109*
X49319Y83179*
X49389Y83299*
X49559*
X49709Y83199*
X49909Y83159*
X50109Y83199*
X50279Y83319*
X50399Y83489*
X50439Y83689*
X50399Y83889*
X50279Y84069*
X50109Y84179*
X49909Y84219*
X49789Y84199*
X49719Y84309*
X49759Y84379*
X49799Y84579*
X49789Y84669*
X49899Y84729*
X51539Y83089*
G37*
G36*
X106059Y87249D02*
X97679D01*
Y88549*
Y91309*
X106059*
Y87249*
G37*
G36*
X85989Y92519D02*
Y78669D01*
X86499Y78169*
Y78039*
X87009*
Y76009*
X92849*
Y76519*
X93099*
Y78299*
X94629*
Y75499*
Y73469*
X92939*
Y71689*
X91829*
Y72809*
X90919Y73719*
X83959*
Y68579*
X83569*
Y66299*
X83959*
Y60519*
X77149*
X73249Y64409*
Y85599*
X73229Y85729*
X73149Y85849*
X68069Y90929*
X67949Y91009*
X67819Y91029*
X60329*
X60319Y91049*
X60149Y91169*
X59939Y91209*
X59869Y91189*
X59809Y91309*
X59979Y91469*
X59999Y91459*
X60199Y91419*
X60399Y91459*
X60569Y91569*
X60689Y91749*
X60729Y91949*
X60689Y92149*
X60569Y92319*
X60399Y92439*
X60279Y92459*
X60239Y92599*
X60369Y92719*
X60399Y92729*
X60569Y92839*
X60689Y93019*
X60729Y93219*
X60689Y93419*
X60569Y93589*
X60399Y93709*
X60199Y93749*
X59999Y93709*
X59819Y93589*
X59709Y93419*
X59669Y93219*
X59699Y93059*
X53849Y87209*
X53769Y87099*
X53749Y86959*
Y77559*
X52759Y76579*
X45419*
X45279Y76549*
X45159Y76469*
X44419Y75729*
X43059*
X43049Y75749*
X42869Y75859*
X42669Y75899*
X42469Y75859*
X42299Y75749*
X42179Y75579*
X42139Y75379*
X42179Y75169*
X42299Y74999*
X42469Y74889*
X42669Y74849*
X42869Y74889*
X43049Y74999*
X43059Y75019*
X44249*
X44299Y74899*
X44199Y74799*
X44119Y74679*
X44089Y74549*
X44079Y74539*
X43959Y74369*
X43919Y74169*
X43959Y73969*
X44079Y73789*
X44249Y73679*
X44449Y73639*
X44649Y73679*
X44819Y73789*
X44939Y73969*
X44979Y74169*
X44939Y74369*
X44869Y74469*
X45769Y75359*
X53109*
X53249Y75389*
X53369Y75469*
X54859Y76959*
X54939Y77079*
X54969Y77219*
Y86469*
X59309Y90809*
X59429Y90749*
X59419Y90679*
X59459Y90479*
X59569Y90299*
X59739Y90189*
X59939Y90149*
X60149Y90189*
X60319Y90299*
X60329Y90319*
X67669*
X72539Y85449*
Y64259*
X72569Y64129*
X72649Y64009*
X76019Y60629*
X75969Y60519*
X69789*
X60699Y69599*
Y74179*
X60759Y74199*
X60929Y74339*
X61069Y74509*
X61149Y74709*
X61179Y74929*
X61149Y75149*
X61069Y75349*
X60929Y75529*
X60759Y75659*
X60559Y75749*
X60339Y75769*
X60119Y75749*
X59919Y75659*
X59739Y75529*
X59609Y75349*
X59519Y75149*
X59509Y75039*
X51689*
X51679Y75049*
X51509Y75159*
X51309Y75199*
X51109Y75159*
X50929Y75049*
X50819Y74879*
X50779Y74679*
X50819Y74469*
X50929Y74299*
X51109Y74189*
X51309Y74149*
X51509Y74189*
X51679Y74299*
X51689Y74319*
X59769*
X59919Y74199*
X59979Y74179*
Y69459*
X60009Y69319*
X60079Y69199*
X68649Y60629*
X68599Y60519*
X23369*
Y76039*
X23859*
X24359Y76529*
Y77509*
X24919Y78069*
X25289*
X25349Y77939*
X24919Y77519*
Y76529*
X25409Y76039*
X26399*
X26899Y76529*
Y77229*
X49309*
X49509Y77269*
X49679Y77389*
X52439Y80139*
X52559Y80319*
X52599Y80519*
Y83309*
X52559Y83509*
X52439Y83689*
X49589Y86539*
X49419Y86659*
X49209Y86699*
X44549*
X44499Y86809*
X59029Y101339*
X59109Y101329*
X59199Y101339*
X64999Y95539*
Y93609*
X64939Y93559*
X64799Y93389*
X64719Y93179*
X64689Y92959*
X64719Y92749*
X64799Y92539*
X64939Y92369*
X65109Y92229*
X65309Y92149*
X65529Y92119*
X65749Y92149*
X65949Y92229*
X66129Y92369*
X66259Y92539*
X66349Y92749*
X66369Y92959*
X66349Y93179*
X66259Y93389*
X66129Y93559*
X66059Y93609*
Y95759*
X66019Y95959*
X65909Y96129*
X59949Y102089*
X59959Y102179*
X59929Y102389*
X59839Y102599*
X59709Y102769*
X59539Y102909*
X59329Y102989*
X59109Y103019*
X58899Y102989*
X58689Y102909*
X58519Y102769*
X58469Y102699*
X35699*
X35269Y103129*
Y103579*
X34169*
Y102279*
X34629*
X35109Y101799*
X35279Y101689*
X35479Y101649*
X57669*
X57719Y101529*
X43199Y86999*
X43019Y86979*
X42819Y86899*
X42649Y86759*
X42509Y86589*
X42429Y86389*
X42399Y86169*
X42429Y85949*
X42509Y85749*
X42649Y85569*
X42819Y85439*
X43019Y85349*
X43239Y85329*
X43459Y85349*
X43659Y85439*
X43839Y85569*
X43889Y85639*
X48999*
X49429Y85209*
X49359Y85089*
X49279Y85109*
X49069Y85069*
X48899Y84959*
X48889Y84939*
X26709*
X26569Y84909*
X26459Y84829*
X24519Y82899*
X24439Y82779*
X24429Y82709*
X24289Y82659*
X23859Y83089*
X23369*
Y106489*
X85989*
Y92519*
G37*
G36*
X201559Y92769D02*
X190149D01*
Y93569*
X190039*
X189979Y93679*
X190029Y93749*
X190079Y93979*
X190029Y94209*
X189939Y94339*
Y94429*
X190029Y94519*
X190149*
X190239Y94439*
Y94399*
X191539*
Y94539*
X201559*
Y92769*
G37*
G36*
Y100389D02*
Y95459D01*
X191539*
Y95599*
X190239*
Y95549*
X190149Y95469*
X188749*
Y94519*
X189029*
Y94339*
X188939Y94209*
X188889Y93979*
X188939Y93749*
X188989Y93679*
X188929Y93569*
X188749*
Y92769*
X187449*
Y93569*
X186049*
Y92899*
X185929Y92769*
X184289*
Y100389*
X201559*
G37*
G36*
X238249Y101599D02*
D01*
Y98299*
X232159*
X231389Y99059*
Y101409*
X183529*
Y92069*
X184289Y91309*
X185809*
Y87249*
X180229*
Y101409*
X152539*
Y95709*
X152509*
Y94409*
X152539*
Y92069*
X153299Y91309*
X154829*
Y87249*
X149239*
Y101409*
X121549*
Y92069*
X122309Y91309*
X123839*
Y87249*
X118249*
Y101409*
X90309*
Y92069*
X91069Y91309*
X92599*
Y87249*
X87009*
Y101409*
Y106489*
X90309*
X238249*
Y101599*
G37*
G36*
X117229Y100459D02*
Y91569D01*
Y78669*
X117739Y78169*
Y78039*
X118249*
Y76009*
X124089*
Y76519*
X124349*
Y78299*
X125869*
Y75499*
Y73469*
X124179*
Y71689*
X123079*
Y72809*
X122159Y73719*
X115199*
Y68579*
X114809*
Y66299*
X115199*
Y60519*
X106899*
Y91569*
Y93089*
X96929*
Y93569*
X96819*
X96759Y93679*
X96809Y93749*
X96859Y93979*
X96809Y94209*
X96719Y94339*
Y94429*
X96809Y94519*
X96929*
X97029Y94439*
Y94399*
X98329*
Y95599*
X97029*
Y95549*
X96929Y95469*
X95529*
Y94519*
X95809*
Y94339*
X95719Y94209*
X95669Y93979*
X95719Y93749*
X95769Y93679*
X95709Y93569*
X95529*
Y93089*
X94229*
Y93569*
X92829*
Y93089*
X91069*
Y100459*
X117229*
G37*
G36*
X147969Y100199D02*
Y91499D01*
Y78669*
X148479Y78169*
Y78039*
X148979*
Y76009*
X154829*
Y76519*
X155079*
Y78299*
X156599*
Y75499*
Y73469*
X154909*
Y71689*
X153809*
Y72809*
X152899Y73719*
X145939*
Y68579*
X145549*
Y66299*
X145939*
Y60519*
X138319*
Y91499*
Y92839*
X128169*
Y93569*
X128029*
X127959Y93699*
X128019Y93789*
X128069Y94009*
X128019Y94239*
X127929Y94369*
Y94519*
X128169*
X128269Y94439*
Y94399*
X129569*
Y95599*
X128269*
Y95549*
X128169Y95469*
X126769*
Y94519*
X127019*
Y94369*
X126929Y94239*
X126879Y94009*
X126929Y93789*
X126989Y93699*
X126919Y93569*
X126769*
Y92839*
X125469*
Y93569*
X124069*
Y92899*
X124009Y92839*
X122059*
Y100199*
X147969*
G37*
G36*
X179209D02*
Y91309D01*
Y78669*
X179719Y78169*
Y78039*
X180229*
Y76009*
X186069*
Y76519*
X186319*
Y78299*
X187849*
Y75499*
Y73469*
X186159*
Y71689*
X185049*
Y72809*
X184139Y73719*
X177179*
Y68579*
X176789*
Y66299*
X177179*
Y60519*
X168869*
Y91309*
X168799Y91389*
Y92839*
X158909*
Y93569*
X158759*
X158689Y93699*
X158759Y93789*
X158799Y94009*
X158759Y94239*
X158669Y94369*
Y94519*
X158909*
X158999Y94439*
Y94399*
X160299*
Y95599*
X158999*
Y95549*
X158909Y95469*
X157509*
Y94519*
X157749*
Y94369*
X157659Y94239*
X157619Y94009*
X157659Y93789*
X157719Y93699*
X157649Y93569*
X157509*
Y92839*
X156209*
Y93569*
X154809*
Y92839*
X153049*
Y100199*
X179209*
G37*
G36*
X137299Y70929D02*
X128159D01*
X126889*
X123839Y66609*
X123079*
Y68649*
X123189Y68729*
X123979Y69519*
X124099Y69699*
X124139Y69879*
X124229*
Y70679*
X124349*
Y71529*
X124319Y71549*
X124369Y71609*
X124379Y71689*
Y73269*
X125869*
X125949Y73279*
X126009Y73329*
X126059Y73389*
X126069Y73469*
Y75499*
Y78299*
X126059Y78369*
X126009Y78439*
X125949Y78479*
X125869Y78499*
X125799*
X125729Y78609*
X126579Y80659*
Y80679*
X126589Y80699*
Y80719*
X126599Y80739*
X126589Y80759*
Y80779*
X126579Y80799*
Y80819*
X126569Y80829*
X126559Y80849*
X126489Y80959*
X126479Y80969*
X126469Y80989*
X126449Y80999*
X126429Y81009*
X126419Y81019*
X126399Y81029*
X126379Y81039*
X126359Y81049*
X126339*
X126319*
X121689*
Y81539*
X121829Y81629*
X122379Y82179*
X123439*
X123509Y82109*
Y81689*
X124709*
Y82989*
X124289*
X124099Y83179*
X123909Y83309*
X123689Y83349*
X122129*
X121909Y83309*
X121719Y83179*
X121259Y82719*
X121229Y82729*
X121039Y82759*
X120859Y82729*
X120689Y82659*
X120539Y82549*
X120429Y82399*
X120349Y82229*
X120329Y82039*
X120349Y81859*
X120399Y81759*
X120389Y81629*
Y80429*
X120949*
X121049Y80309*
X121039Y80249*
X121029Y80239*
X121009Y80229*
X120389*
Y79029*
X120319Y78929*
X120139Y78749*
X120069Y78649*
X120019Y78569*
X119999Y78459*
X119989Y78419*
X119959Y78309*
Y77029*
X118759*
Y86169*
X137299*
Y70929*
G37*
G36*
X168029D02*
X158889D01*
X157619*
X154569Y66609*
X153809*
Y68649*
X153929Y68729*
X154709Y69519*
X154839Y69699*
X154869Y69879*
X154969*
Y70679*
X155079*
Y71529*
X155059Y71549*
X155099Y71609*
X155119Y71689*
Y73269*
X156599*
X156679Y73279*
X156749Y73329*
X156789Y73389*
X156809Y73469*
Y75499*
Y78299*
X156789Y78369*
X156749Y78439*
X156679Y78479*
X156599Y78499*
X156529*
X156459Y78609*
X157309Y80659*
X157319Y80679*
X157329Y80699*
Y80719*
Y80739*
Y80759*
Y80779*
X157319Y80799*
X157309Y80819*
X157299Y80829*
Y80849*
X157229Y80959*
X157209Y80969*
X157199Y80989*
X157179Y80999*
X157169Y81009*
X157149Y81019*
X157129Y81029*
X157109Y81039*
X157099Y81049*
X157079*
X157059*
X152429*
Y81509*
X152469Y81599*
Y81659*
X153039Y82219*
X154139*
X154239Y82109*
Y81689*
X155439*
Y82989*
X155019*
X154799Y83219*
X154609Y83349*
X154379Y83389*
X152789*
X152569Y83349*
X152379Y83219*
X151649Y82479*
X151589*
X151419Y82409*
X151269Y82289*
X151159Y82149*
X151089Y81969*
X151059Y81789*
X151089Y81599*
X151129Y81509*
Y80429*
X151689*
X151789Y80309*
X151769Y80249*
Y80239*
X151739Y80229*
X151129*
Y79029*
X151059Y78929*
X150869Y78749*
X150799Y78649*
X150749Y78569*
X150729Y78459*
X150719Y78419*
X150689Y78309*
Y77029*
X149489*
Y86169*
X168029*
Y70929*
G37*
G36*
X106059D02*
X96909D01*
X95639*
X92599Y66609*
X91829*
Y68649*
X91949Y68729*
X92739Y69519*
X92859Y69699*
X92899Y69879*
X92989*
Y70679*
X93099*
Y71529*
X93079Y71549*
X93129Y71609*
X93139Y71689*
Y73269*
X94629*
X94709Y73279*
X94769Y73329*
X94819Y73389*
X94829Y73469*
Y75499*
Y78299*
X94819Y78369*
X94769Y78439*
X94709Y78479*
X94629Y78499*
X94559*
X94489Y78609*
X95339Y80659*
Y80679*
X95349Y80699*
Y80719*
Y80739*
Y80759*
Y80779*
X95339Y80799*
Y80819*
X95329Y80829*
X95319Y80849*
X95249Y80959*
X95229Y80969*
X95219Y80989*
X95209Y80999*
X95189Y81009*
X95169Y81019*
X95159Y81029*
X95139Y81039*
X95119Y81049*
X95099*
X95079*
X90449*
Y81539*
X90579Y81629*
X91129Y82179*
X92029*
X92059Y82149*
Y82119*
X92189Y81929*
X92269Y81879*
Y81689*
X93469*
Y82989*
X92869*
X92679Y83179*
X92489Y83309*
X92269Y83349*
X90889*
X90669Y83309*
X90479Y83179*
X90019Y82719*
X89989Y82729*
X89799Y82759*
X89619Y82729*
X89439Y82659*
X89299Y82549*
X89179Y82399*
X89109Y82229*
X89089Y82039*
X89109Y81859*
X89149Y81759*
Y81629*
Y80429*
X89709*
X89809Y80309*
X89799Y80249*
X89789Y80239*
X89759Y80229*
X89149*
Y79029*
X89079Y78929*
X88899Y78749*
X88829Y78649*
X88779Y78569*
X88749Y78459*
Y78419*
X88709Y78309*
Y77029*
X87519*
Y86169*
X106059*
Y70929*
G37*
%LNlv1-2*%
%LPC*%
G36*
X94739Y84659D02*
X94519Y84629D01*
X94319Y84549*
X94149Y84419*
X94009Y84239*
X93929Y84039*
X93899Y83819*
X93929Y83599*
X94009Y83399*
X94149Y83219*
X94279Y83119*
X94269Y82989*
Y81689*
X95469*
Y82989*
X95249*
X95199Y83119*
X95339Y83219*
X95469Y83399*
X95559Y83599*
X95579Y83819*
X95559Y84039*
X95469Y84239*
X95339Y84419*
X95159Y84549*
X94959Y84629*
X94739Y84659*
G37*
G36*
X28449Y97529D02*
X28189Y97489D01*
X27939Y97389*
X27729Y97229*
X27569Y97019*
X27469Y96779*
X27439Y96519*
X27469Y96259*
X27569Y96019*
X27729Y95809*
X27939Y95649*
X28189Y95549*
X28449Y95509*
X28709Y95549*
X28949Y95649*
X29159Y95809*
X29319Y96019*
X29379Y96159*
X34399*
X39139Y91419*
Y91399*
X39099Y91289*
X34949*
X34799Y91439*
X34679Y91519*
X34539Y91539*
X34409Y91519*
X34289Y91439*
X33129Y90269*
X29379*
X29319Y90419*
X29159Y90629*
X28949Y90789*
X28709Y90889*
X28449Y90919*
X28189Y90889*
X27939Y90789*
X27729Y90629*
X27569Y90419*
X27469Y90179*
X27439Y89919*
X27469Y89649*
X27569Y89409*
X27729Y89199*
X27939Y89039*
X28189Y88939*
X28449Y88909*
X28709Y88939*
X28949Y89039*
X29159Y89199*
X29319Y89409*
X29379Y89559*
X33269*
X33409Y89589*
X33529Y89659*
X34539Y90679*
X34549*
X34659Y90599*
X34799Y90579*
X42539*
X42549Y90559*
X42719Y90439*
X42929Y90399*
X43129Y90439*
X43299Y90559*
X43409Y90729*
X43449Y90929*
X43409Y91129*
X43379Y91179*
X43449Y91309*
X43799*
X43809Y91289*
X43979Y91179*
X44189Y91139*
X44389Y91179*
X44559Y91289*
X44669Y91459*
X44709Y91659*
X44669Y91869*
X44559Y92039*
X44389Y92149*
X44189Y92189*
X43979Y92149*
X43809Y92039*
X43799Y92019*
X39549*
X34799Y96769*
X34679Y96849*
X34539Y96879*
X29379*
X29319Y97019*
X29159Y97229*
X28949Y97389*
X28709Y97489*
X28449Y97529*
G37*
G36*
Y94989D02*
X28189Y94949D01*
X27939Y94849*
X27729Y94689*
X27569Y94479*
X27469Y94239*
X27439Y93979*
X27469Y93719*
X27569Y93479*
X27729Y93269*
X27939Y93109*
X28189Y93009*
X28449Y92969*
X28709Y93009*
X28949Y93109*
X29159Y93269*
X29319Y93479*
X29379Y93619*
X32479*
Y93079*
X33579*
Y94379*
X32479*
Y94339*
X29379*
X29319Y94479*
X29159Y94689*
X28949Y94849*
X28709Y94949*
X28449Y94989*
G37*
G36*
X125979Y84919D02*
X125769Y84889D01*
X125559Y84799*
X125389Y84669*
X125249Y84499*
X125169Y84289*
X125139Y84069*
X125169Y83859*
X125249Y83649*
X125389Y83479*
X125559Y83339*
X125649Y83309*
Y82989*
X125509*
Y81689*
X126709*
Y82989*
X126319*
Y83309*
X126409Y83339*
X126579Y83479*
X126709Y83649*
X126799Y83859*
X126829Y84069*
X126799Y84289*
X126709Y84499*
X126579Y84669*
X126409Y84799*
X126199Y84889*
X125979Y84919*
G37*
G36*
X43249Y81739D02*
X43039Y81699D01*
X42869Y81589*
X42849Y81549*
X32979*
X32949Y81589*
X32779Y81699*
X32579Y81739*
X32379Y81699*
X32199Y81589*
X32089Y81419*
X32049Y81209*
X32089Y81009*
X32199Y80839*
X32379Y80729*
X32579Y80689*
X32779Y80729*
X32949Y80839*
X32979Y80879*
X42849*
X42869Y80839*
X43039Y80729*
X43249Y80689*
X43449Y80729*
X43619Y80839*
X43729Y81009*
X43769Y81209*
X43729Y81419*
X43619Y81589*
X43449Y81699*
X43249Y81739*
G37*
G36*
X28389Y103939D02*
X28119Y103909D01*
X27879Y103809*
X27669Y103649*
X27509Y103439*
X27409Y103189*
X27379Y102929*
X27409Y102669*
X27509Y102429*
X27669Y102219*
X27879Y102059*
X28119Y101959*
X28389Y101919*
X28649Y101959*
X28889Y102059*
X29099Y102219*
X29259Y102429*
X29319Y102579*
X32669*
Y102279*
X33769*
Y103579*
X32669*
Y103289*
X29319*
X29259Y103439*
X29099Y103649*
X28889Y103809*
X28649Y103909*
X28389Y103939*
G37*
G36*
X232409Y80019D02*
X232159Y79989D01*
X231919Y79889*
X231719Y79739*
X231569Y79539*
X231469Y79299*
Y79249*
X229639*
Y79339*
X228339*
Y79239*
X228239Y79219*
X228109Y79129*
X227939Y79159*
X227339*
X227109Y79119*
X226909Y78979*
X226779Y78779*
X226729Y78549*
X226779Y78319*
X226909Y78119*
X227109Y77979*
X227139*
Y77849*
X227109*
X226909Y77709*
X226779Y77509*
X226729Y77279*
X226779Y77049*
X226909Y76849*
X227109Y76709*
X227139*
Y76579*
X227109*
X226909Y76439*
X226779Y76239*
X226729Y76009*
X226779Y75779*
X226909Y75579*
X227109Y75439*
X227139*
Y75309*
X227109*
X226909Y75169*
X226779Y74969*
X226729Y74739*
X226779Y74509*
X226909Y74309*
X227109Y74169*
X227339Y74129*
X227939*
X228179Y74169*
X228189Y74179*
X231269Y71099*
X231419Y70999*
X231559Y70979*
X231569Y70939*
X231719Y70739*
X231919Y70589*
X232159Y70489*
X232409Y70459*
X232659Y70489*
X232899Y70589*
X233099Y70739*
X233249Y70939*
X233349Y71179*
X233379Y71429*
X233349Y71679*
X233249Y71919*
X233099Y72119*
X232899Y72269*
X232659Y72369*
X232409Y72399*
X232159Y72369*
X231919Y72269*
X231719Y72119*
X231709Y72099*
X231589*
X228619Y75069*
X228469Y75169*
X228349Y75189*
X228179Y75309*
X228149*
Y75439*
X228179*
X228329Y75549*
X229369*
X231269Y73639*
X231419Y73539*
X231559Y73519*
X231569Y73479*
X231719Y73279*
X231919Y73129*
X232159Y73029*
X232409Y72999*
X232659Y73029*
X232899Y73129*
X233099Y73279*
X233249Y73479*
X233349Y73719*
X233379Y73969*
X233349Y74219*
X233249Y74459*
X233099Y74659*
X232899Y74809*
X232659Y74909*
X232409Y74939*
X232159Y74909*
X231919Y74809*
X231719Y74659*
X231709Y74639*
X231589*
X229889Y76339*
X229739Y76439*
X229559Y76469*
X228329*
X228179Y76579*
X228149*
Y76709*
X228179*
X228219Y76739*
X228339*
X229639*
Y76829*
X230619*
X231269Y76179*
X231419Y76079*
X231559Y76059*
X231569Y76019*
X231719Y75819*
X231919Y75669*
X232159Y75569*
X232409Y75539*
X232659Y75569*
X232899Y75669*
X233099Y75819*
X233249Y76019*
X233349Y76259*
X233379Y76509*
X233349Y76759*
X233249Y76999*
X233099Y77199*
X232899Y77349*
X232659Y77449*
X232409Y77479*
X232159Y77449*
X231919Y77349*
X231719Y77199*
X231709Y77179*
X231589*
X231139Y77619*
X230989Y77719*
X230819Y77749*
X229639*
Y77839*
X228339*
X228269Y77829*
X228219Y77869*
X228209Y77879*
X228229Y78019*
X228379Y78119*
X228399Y78149*
X228499Y78219*
X228519Y78239*
X229639*
Y78329*
X231769*
X231919Y78209*
X232159Y78109*
X232409Y78079*
X232659Y78109*
X232899Y78209*
X233099Y78359*
X233249Y78559*
X233349Y78799*
X233379Y79049*
X233349Y79299*
X233249Y79539*
X233099Y79739*
X232899Y79889*
X232659Y79989*
X232409Y80019*
G37*
G36*
X186439Y97869D02*
X186219Y97839D01*
X186009Y97759*
X185839Y97619*
X185709Y97449*
X185619Y97249*
X185589Y97029*
X185619Y96809*
X185709Y96609*
X185839Y96429*
X186009Y96299*
X186079Y96269*
Y95709*
X185249*
Y94409*
X186349*
Y94439*
X186449Y94519*
X186519Y94509*
X186979*
X187159Y94549*
X187319Y94649*
X187419Y94809*
X187459Y94989*
X187419Y95179*
X187319Y95339*
X187159Y95439*
X186979Y95479*
X186789*
Y96269*
X186859Y96299*
X187029Y96429*
X187169Y96609*
X187249Y96809*
X187279Y97029*
X187249Y97249*
X187169Y97449*
X187029Y97619*
X186859Y97759*
X186649Y97839*
X186439Y97869*
G37*
G36*
X93469Y97619D02*
X93249Y97589D01*
X93049Y97499*
X92879Y97369*
X92739Y97199*
X92659Y96989*
X92629Y96769*
X92659Y96559*
X92739Y96349*
X92879Y96179*
X92989Y96089*
X92949Y95959*
X92029*
Y94659*
X92769*
X92899Y94639*
X92989*
X93119Y94549*
X93309Y94509*
X93759*
X93939Y94549*
X94099Y94649*
X94199Y94809*
X94239Y94989*
X94199Y95179*
X94099Y95339*
X93939Y95439*
X93889Y95449*
Y96039*
X94069Y96179*
X94199Y96349*
X94289Y96559*
X94309Y96769*
X94289Y96989*
X94199Y97199*
X94069Y97369*
X93889Y97499*
X93689Y97589*
X93469Y97619*
G37*
G36*
X124709Y97109D02*
X124499Y97079D01*
X124289Y96999*
X124119Y96859*
X123979Y96689*
X123899Y96479*
X123869Y96269*
X123899Y96049*
X123979Y95839*
X123999Y95819*
X123939Y95709*
X123279*
Y94409*
X124379*
Y94439*
X124469Y94519*
X124549Y94509*
X124999*
X125179Y94549*
X125339Y94649*
X125449Y94809*
X125479Y94989*
X125449Y95179*
X125339Y95339*
X125199Y95429*
X125179Y95509*
Y95569*
X125309Y95669*
X125439Y95839*
X125529Y96049*
X125559Y96269*
X125529Y96479*
X125439Y96689*
X125309Y96859*
X125139Y96999*
X124929Y97079*
X124709Y97109*
G37*
G36*
X155449Y97359D02*
X155229Y97329D01*
X155029Y97249*
X154849Y97119*
X154719Y96939*
X154629Y96739*
X154609Y96519*
X154629Y96299*
X154719Y96099*
X154849Y95919*
X154969Y95839*
X154919Y95709*
X154009*
Y94409*
X155109*
Y94439*
X155209Y94519*
X155279Y94509*
X155729*
X155919Y94549*
X156079Y94649*
X156179Y94809*
X156219Y94989*
X156179Y95179*
X156079Y95339*
X155919Y95439*
X155859Y95449*
Y95789*
X155869*
X156039Y95919*
X156179Y96099*
X156259Y96299*
X156289Y96519*
X156259Y96739*
X156179Y96939*
X156039Y97119*
X155869Y97249*
X155669Y97329*
X155449Y97359*
G37*
G36*
X232409Y92719D02*
X232159Y92689D01*
X231919Y92589*
X231719Y92439*
X231569Y92239*
X231469Y91999*
X231439Y91749*
X231469Y91499*
X231569Y91259*
X231719Y91059*
X231919Y90909*
X232159Y90809*
X232409Y90779*
X232659Y90809*
X232899Y90909*
X233099Y91059*
X233249Y91259*
X233349Y91499*
X233379Y91749*
X233349Y91999*
X233249Y92239*
X233099Y92439*
X232899Y92589*
X232659Y92689*
X232409Y92719*
G37*
G36*
X82659Y68579D02*
X81089D01*
Y66299*
X82659*
Y68579*
G37*
G36*
X216799Y74059D02*
X216579Y74029D01*
X216379Y73949*
X216209Y73809*
X216069Y73639*
X215989Y73429*
X215959Y73219*
X215989Y72999*
X216069Y72789*
X216209Y72619*
X216379Y72489*
X216449Y72459*
Y66869*
X216469Y66729*
X216549Y66609*
X218349Y64809*
X218469Y64739*
X218599Y64709*
X221839*
X221889Y64629*
X222089Y64499*
X222319Y64449*
X222919*
X223159Y64499*
X223359Y64629*
X223489Y64829*
X223539Y65069*
X223489Y65299*
X223359Y65499*
X223159Y65629*
X223129Y65639*
Y65759*
X223159Y65769*
X223359Y65899*
X223489Y66099*
X223539Y66339*
X223489Y66569*
X223359Y66769*
X223189Y66879*
X223229Y67009*
X223519*
Y68209*
X221719*
X221639Y68259*
X221499*
Y68879*
X221629Y68979*
X221769Y69159*
X221849Y69359*
X221879Y69579*
X221849Y69799*
X221769Y69999*
X221629Y70169*
X221459Y70309*
X221259Y70389*
X221039Y70419*
X220819Y70389*
X220619Y70309*
X220439Y70169*
X220309Y69999*
X220229Y69799*
X220199Y69579*
X220229Y69359*
X220309Y69159*
X220439Y68979*
X220579Y68879*
Y68259*
X220439*
Y66959*
X221639*
X221719Y67009*
X222019*
X222059Y66879*
X221889Y66769*
X221859Y66719*
X219239*
X218179Y67779*
Y70429*
X218239Y70449*
X218409Y70589*
X218549Y70759*
X218629Y70969*
X218659Y71179*
X218629Y71399*
X218549Y71609*
X218409Y71779*
X218239Y71909*
X218039Y71999*
X217819Y72029*
X217599Y71999*
X217399Y71909*
X217289Y71829*
X217159Y71889*
Y72459*
X217219Y72489*
X217399Y72619*
X217529Y72789*
X217619Y72999*
X217639Y73219*
X217619Y73429*
X217529Y73639*
X217399Y73809*
X217219Y73949*
X217019Y74029*
X216799Y74059*
G37*
G36*
X28449Y88379D02*
X28189Y88349D01*
X27939Y88249*
X27729Y88089*
X27569Y87879*
X27469Y87639*
X27439Y87379*
X27469Y87109*
X27569Y86869*
X27729Y86659*
X27939Y86499*
X28189Y86399*
X28449Y86369*
X28709Y86399*
X28949Y86499*
X29159Y86659*
X29319Y86869*
X29379Y87019*
X32479*
Y86469*
X33579*
Y87769*
X32479*
Y87739*
X29379*
X29319Y87879*
X29159Y88089*
X28949Y88249*
X28709Y88349*
X28449Y88379*
G37*
G36*
X28409Y67289D02*
X28159Y67259D01*
X27929Y67159*
X27719Y67009*
X27569Y66809*
X27469Y66569*
X27439Y66319*
X27469Y66069*
X27569Y65829*
X27719Y65629*
X27929Y65479*
X28159Y65379*
X28409Y65349*
X28659Y65379*
X28899Y65479*
X29099Y65629*
X29249Y65829*
X29349Y66069*
X29379Y66319*
X29349Y66569*
X29249Y66809*
X29099Y67009*
X28899Y67159*
X28659Y67259*
X28409Y67289*
G37*
G36*
X156719Y84919D02*
X156499Y84889D01*
X156299Y84799*
X156119Y84669*
X155989Y84499*
X155899Y84289*
X155879Y84069*
X155899Y83859*
X155989Y83649*
X156119Y83479*
X156299Y83339*
X156379Y83309*
Y82989*
X156239*
Y81689*
X157439*
Y82989*
X157049*
Y83309*
X157139Y83339*
X157309Y83479*
X157449Y83649*
X157529Y83859*
X157559Y84069*
X157529Y84289*
X157449Y84499*
X157309Y84669*
X157139Y84799*
X156939Y84889*
X156719Y84919*
G37*
G36*
X187959D02*
X187739Y84889D01*
X187539Y84799*
X187359Y84669*
X187229Y84499*
X187149Y84289*
X187119Y84069*
X187149Y83859*
X187229Y83649*
X187359Y83479*
X187539Y83339*
X187629Y83309*
Y82989*
X187479*
Y81689*
X188679*
Y82989*
X188289*
Y83309*
X188379Y83339*
X188559Y83479*
X188689Y83649*
X188769Y83859*
X188799Y84069*
X188769Y84289*
X188689Y84499*
X188559Y84669*
X188379Y84799*
X188179Y84889*
X187959Y84919*
G37*
G36*
X113899Y68579D02*
X112329D01*
Y66299*
X113899*
Y68579*
G37*
G36*
X232409Y69859D02*
X232159Y69829D01*
X231919Y69729*
X231719Y69579*
X231599Y69419*
X230569*
X230399Y69379*
X230249Y69279*
X229109Y68139*
X228319*
X228199*
X228159Y68169*
X227919Y68219*
X227319*
X227089Y68169*
X226889Y68039*
X226759Y67839*
X226709Y67609*
X226759Y67369*
X226889Y67169*
X227089Y67039*
X227119Y67029*
Y66909*
X227089Y66899*
X226889Y66769*
X226759Y66569*
X226709Y66339*
X226759Y66099*
X226889Y65899*
X227089Y65769*
X227119Y65759*
Y65639*
X227089Y65629*
X226889Y65499*
X226759Y65299*
X226709Y65069*
X226759Y64829*
X226889Y64629*
X227089Y64499*
X227119Y64489*
Y64369*
X227089Y64359*
X226889Y64229*
X226759Y64029*
X226709Y63799*
X226759Y63559*
X226889Y63359*
X227089Y63229*
X227319Y63179*
X227919*
X228159Y63229*
X228309Y63329*
X228319*
X229679Y61969*
X229829Y61869*
X230009Y61829*
X230579*
X231209Y61199*
X231359Y61099*
X231459Y61079*
X231469Y61019*
X231569Y60779*
X231719Y60579*
X231919Y60429*
X232159Y60329*
X232409Y60299*
X232659Y60329*
X232899Y60429*
X233099Y60579*
X233249Y60779*
X233349Y61019*
X233379Y61269*
X233349Y61519*
X233249Y61759*
X233099Y61959*
X232899Y62109*
X232659Y62209*
X232409Y62239*
X232159Y62209*
X231919Y62109*
X231769Y61989*
X231729*
X231099Y62619*
X230949Y62719*
X230769Y62759*
X230199*
X228839Y64119*
X228689Y64219*
X228509Y64259*
X228309*
X228159Y64359*
X228129Y64369*
Y64489*
X228159Y64499*
X228309Y64599*
X230859*
X231209Y64249*
X231359Y64149*
X231469Y64039*
X231439Y63809*
X231469Y63559*
X231569Y63319*
X231719Y63119*
X231919Y62969*
X232159Y62869*
X232409Y62839*
X232659Y62869*
X232899Y62969*
X233099Y63119*
X233249Y63319*
X233349Y63559*
X233379Y63809*
X233349Y64059*
X233249Y64299*
X233099Y64499*
X232899Y64649*
X232659Y64749*
X232409Y64779*
X232159Y64749*
X232099Y64719*
X231919Y64909*
X231769Y65009*
X231759*
X231379Y65389*
X231229Y65489*
X231049Y65529*
X230389*
X230379Y65659*
X230429Y65669*
X230579Y65769*
X230769Y65949*
X231529*
X231569Y65859*
X231719Y65659*
X231919Y65509*
X232159Y65409*
X232409Y65379*
X232659Y65409*
X232899Y65509*
X233099Y65659*
X233249Y65859*
X233349Y66099*
X233379Y66349*
X233349Y66599*
X233249Y66839*
X233099Y67039*
X232899Y67189*
X232659Y67289*
X232409Y67319*
X232159Y67289*
X231919Y67189*
X231719Y67039*
X231599Y66879*
X230569*
X230399Y66839*
X230249Y66739*
X230059Y66559*
X229619*
Y66639*
X228519*
X228499Y66659*
X228369Y66749*
X228359Y66769*
X228209Y66869*
X228189Y67009*
X228199Y67019*
X228249Y67059*
X228319Y67039*
X229619*
Y67349*
X230769Y68489*
X231529*
X231569Y68399*
X231719Y68199*
X231919Y68049*
X232159Y67949*
X232409Y67919*
X232659Y67949*
X232899Y68049*
X233099Y68199*
X233249Y68399*
X233349Y68639*
X233379Y68889*
X233349Y69139*
X233249Y69379*
X233099Y69579*
X232899Y69729*
X232659Y69829*
X232409Y69859*
G37*
G36*
Y90179D02*
X232159Y90149D01*
X231919Y90049*
X231719Y89899*
X231569Y89699*
X231469Y89459*
X231439Y89209*
X231469Y88959*
X231569Y88719*
X231719Y88519*
X231919Y88369*
X232159Y88269*
X232409Y88239*
X232659Y88269*
X232899Y88369*
X233099Y88519*
X233249Y88719*
X233349Y88959*
X233379Y89209*
X233349Y89459*
X233249Y89699*
X233099Y89899*
X232899Y90049*
X232659Y90149*
X232409Y90179*
G37*
G36*
X68069Y88919D02*
X67869Y88879D01*
X67699Y88769*
X67669Y88729*
X58659*
X58619Y88749*
X58419Y88789*
X58219Y88749*
X58049Y88639*
X57929Y88469*
X57889Y88259*
X57899Y88229*
X57789Y88129*
X57659Y88159*
X57459Y88119*
X57279Y87999*
X57169Y87829*
X57129Y87629*
X57169Y87429*
X57279Y87259*
X57459Y87139*
X57659Y87099*
X57859Y87139*
X58029Y87259*
X58059Y87299*
X68429*
X68579Y87199*
X68779Y87159*
X68979Y87199*
X69149Y87309*
X69269Y87479*
X69309Y87679*
X69269Y87889*
X69149Y88059*
X68979Y88169*
X68779Y88209*
X68689Y88189*
X68579Y88299*
X68599Y88389*
X68559Y88589*
X68449Y88769*
X68269Y88879*
X68069Y88919*
G37*
G36*
X175879Y68579D02*
X174309D01*
Y66299*
X175879*
Y68579*
G37*
G36*
X144629D02*
X143069D01*
Y66299*
X144629*
Y68579*
G37*
G36*
X28409Y62789D02*
X28159Y62759D01*
X27929Y62659*
X27719Y62509*
X27569Y62309*
X27469Y62069*
X27439Y61819*
X27469Y61569*
X27569Y61329*
X27719Y61129*
X27929Y60979*
X28159Y60879*
X28409Y60849*
X28659Y60879*
X28899Y60979*
X29099Y61129*
X29249Y61329*
X29349Y61569*
X29379Y61819*
X29349Y62069*
X29249Y62309*
X29099Y62509*
X28899Y62659*
X28659Y62759*
X28409Y62789*
G37*
%LNlv1-3*%
%LPD*%
G36*
X217399Y70449D02*
X217459Y70429D01*
Y67629*
X217489Y67489*
X217559Y67369*
X218829Y66099*
X218949Y66029*
X219089Y65999*
X221829*
X221889Y65899*
X222089Y65769*
X222119Y65759*
Y65639*
X222089Y65629*
X221889Y65499*
X221839Y65419*
X218749*
X217159Y67009*
Y70479*
X217289Y70539*
X217399Y70449*
G37*
G54D10*
X227619Y63799D03*
Y65069D03*
Y66339D03*
Y67609D03*
X222619Y63799D03*
Y65069D03*
Y66339D03*
X227639Y74739D03*
Y76009D03*
Y77279D03*
Y78549D03*
X222639Y74739D03*
Y76009D03*
Y77279D03*
G54D11*
X222619Y67609D03*
X222639Y78549D03*
G54D12*
X228969Y66089D03*
Y67589D03*
X228989Y78789D03*
Y77289D03*
X134619Y57139D03*
Y55639D03*
Y53329D03*
Y51829D03*
X91579Y81839D03*
Y80339D03*
X92339Y70429D03*
Y71929D03*
X122819Y81839D03*
Y80339D03*
X123579Y70429D03*
Y71929D03*
X184799Y81839D03*
Y80339D03*
X185559Y70429D03*
Y71929D03*
X154319Y70429D03*
Y71929D03*
X153559Y81839D03*
Y80339D03*
G54D13*
X221059Y78549D03*
X219659D03*
X221039Y67609D03*
X219639D03*
X92869Y82339D03*
X94869D03*
X93869Y80339D03*
X124109Y82339D03*
X126109D03*
X125109Y80339D03*
X186079Y82339D03*
X188079D03*
X187079Y80339D03*
X154839Y82339D03*
X156839D03*
X155839Y80339D03*
G54D14*
X33219Y102929D03*
X34719D03*
X90809Y70339D03*
X89309D03*
X93599Y77529D03*
X92099D03*
X91079Y95309D03*
X92579D03*
X88009Y70339D03*
X86509D03*
X122049D03*
X120549D03*
X124839Y77529D03*
X123339D03*
X122329Y95059D03*
X123829D03*
X119249Y70339D03*
X117749D03*
X184019D03*
X182519D03*
X186819Y77529D03*
X185319D03*
X184299Y95059D03*
X185799D03*
X181229Y70339D03*
X179729D03*
X149989D03*
X148489D03*
X153059Y95059D03*
X154559D03*
X155579Y77529D03*
X154079D03*
X152779Y70339D03*
X151279D03*
X197349Y30729D03*
X195849D03*
X197349Y19049D03*
X195849D03*
X31759Y43429D03*
X33259D03*
X33029Y93729D03*
X34529D03*
X33029Y87119D03*
X34529D03*
G54D15*
X208669Y103569D03*
Y98759D03*
G54D16*
X85399Y80069D03*
X88099D03*
X86829Y48319D03*
X84129D03*
X86829Y45279D03*
X84129D03*
X116649Y80069D03*
X119349D03*
X118079Y48319D03*
X115379D03*
X118079Y45279D03*
X115379D03*
X178619Y80069D03*
X181319D03*
X180049Y48319D03*
X177349D03*
X180049Y45279D03*
X177349D03*
X148809D03*
X146109D03*
X148809Y48319D03*
X146109D03*
X147379Y80069D03*
X150079D03*
G54D17*
X88659Y74929D03*
X119899D03*
X181879D03*
X150629D03*
G54D18*
X86749Y72329D03*
X88019D03*
X89289D03*
X90559D03*
X86749Y77529D03*
X88019D03*
X89289D03*
X90559D03*
X117999Y72329D03*
X119269D03*
X120539D03*
X121809D03*
X117999Y77529D03*
X119269D03*
X120539D03*
X121809D03*
X179969Y72329D03*
X181239D03*
X182509D03*
X183779D03*
X179969Y77529D03*
X181239D03*
X182509D03*
X183779D03*
X148729Y72329D03*
X149999D03*
X151269D03*
X152539D03*
X148729Y77529D03*
X149999D03*
X151269D03*
X152539D03*
G54D19*
X96409Y67709D03*
Y72109D03*
X127649Y67709D03*
Y72109D03*
X189619Y67709D03*
Y72109D03*
X158379Y67709D03*
Y72109D03*
G54D20*
X104529Y64659D03*
Y61959D03*
X135779Y64659D03*
Y61959D03*
X197749Y64659D03*
Y61959D03*
X166509Y64659D03*
Y61959D03*
G54D21*
X91789Y51079D03*
X89309D03*
X86829D03*
X84349D03*
X81869D03*
X91789Y67439D03*
X89309D03*
X86829D03*
X84349D03*
X81869D03*
X123039Y51079D03*
X120559D03*
X118079D03*
X115599D03*
X113119D03*
X123039Y67439D03*
X120559D03*
X118079D03*
X115599D03*
X113119D03*
X185009Y51079D03*
X182529D03*
X180049D03*
X177569D03*
X175089D03*
X185009Y67439D03*
X182529D03*
X180049D03*
X177569D03*
X175089D03*
X153769Y51079D03*
X151289D03*
X148809D03*
X146329D03*
X143849D03*
X153769Y67439D03*
X151289D03*
X148809D03*
X146329D03*
X143849D03*
G54D22*
X84079Y42739D03*
X86879D03*
X115329D03*
X118129D03*
X177299D03*
X180099D03*
X146059D03*
X148859D03*
G54D23*
X87829Y85149D03*
X84149D03*
X119069D03*
X115389D03*
X181049D03*
X177369D03*
X149809D03*
X146129D03*
G54D24*
X92679Y89469D03*
X97079D03*
X123919D03*
X128319D03*
X185899D03*
X190299D03*
X154659D03*
X159059D03*
G54D25*
X94219Y50779D03*
X96059D03*
X125459D03*
X127299D03*
X187429D03*
X189269D03*
X156189D03*
X158029D03*
G54D26*
X95139Y46799D03*
X126379D03*
X188349D03*
X157109D03*
G54D27*
X100719Y61579D03*
Y68079D03*
X131969Y61579D03*
Y68079D03*
X193939Y61579D03*
Y68079D03*
X162699Y61579D03*
Y68079D03*
G54D28*
X104279Y71429D03*
Y69929D03*
X135519Y71429D03*
Y69929D03*
X197499Y71429D03*
Y69929D03*
X166259Y71429D03*
Y69929D03*
G54D29*
X102249Y88269D03*
Y84069D03*
X133489Y88269D03*
Y84069D03*
X195469Y88269D03*
Y84069D03*
X164219Y88269D03*
Y84069D03*
G54D30*
X96229Y93089D03*
Y94989D03*
X93529Y93089D03*
Y94039D03*
X127469Y93089D03*
Y94989D03*
X124769Y93089D03*
Y94039D03*
X189449Y93089D03*
Y94989D03*
X186749Y93089D03*
Y94039D03*
X158209Y93089D03*
Y94989D03*
X155509Y93089D03*
Y94039D03*
G54D31*
X93529Y94989D03*
X124769D03*
X186749D03*
X155509D03*
G54D32*
X89799Y79629D03*
Y81029D03*
X97679Y93599D03*
Y94999D03*
X121039Y79629D03*
Y81029D03*
X128919Y93599D03*
Y94999D03*
X183019Y79629D03*
Y81029D03*
X190889Y93599D03*
Y94999D03*
X159649Y93599D03*
Y94999D03*
X151779Y79629D03*
Y81029D03*
G54D33*
X108599Y57349D03*
Y61149D03*
X139329Y57349D03*
Y61149D03*
G54D34*
X188209Y32599D03*
Y29899D03*
X203199Y32849D03*
Y30149D03*
X206249Y32849D03*
Y30149D03*
X209299Y32849D03*
Y30149D03*
X188209Y20149D03*
Y17449D03*
X203449Y20149D03*
Y17449D03*
X206499Y20149D03*
Y17449D03*
X209549Y20149D03*
Y17449D03*
G54D35*
X198539Y35049D03*
X193639D03*
X198539Y14989D03*
X193639D03*
G54D36*
X60339Y69459D02*
Y74929D01*
X51309Y74679D02*
X60079D01*
X28449Y87379D02*
X32779D01*
X28449Y93979D02*
X32779D01*
X134629Y51819D02*
X135379D01*
X135639Y52069*
X136649Y59689D02*
X137879D01*
X139329Y61149*
X134629Y57149D02*
X135889D01*
X60339Y69459D02*
X70399Y59399D01*
X111429D02*
X111649Y59179D01*
X70399Y59399D02*
X111429D01*
X111649Y59179D02*
X133859D01*
X219089Y66359D02*
X222599D01*
X217819Y67629D02*
X219089Y66359D01*
X217819Y67629D02*
Y71179D01*
G54D37*
X232409Y38409D02*
X237489D01*
X232409Y35869D02*
X237489D01*
X226819Y16759D02*
X230689Y20629D01*
X209299Y16759D02*
X226819D01*
X209799Y23169D02*
X232409D01*
X237489Y30789D02*
Y33329D01*
X232409Y30789D02*
X237489D01*
X232409D02*
Y33329D01*
Y25709D02*
Y28249D01*
X237489Y25709D02*
Y28249D01*
X232409D02*
X237489D01*
X232409Y23169D02*
X237489D01*
X230689Y20629D02*
X232409D01*
X237489*
G54D38*
X24769Y82639D02*
X26709Y84579D01*
X49279*
X48999Y83659D02*
X49879D01*
X48969Y83689D02*
X48999Y83659D01*
X30039Y83689D02*
X48969D01*
X49879Y83659D02*
X49909Y83689D01*
X31229Y82909D02*
X48869D01*
X31079Y83059D02*
X31229Y82909D01*
X26449Y78429D02*
X31079Y83059D01*
X39399Y91659D02*
X44189D01*
X34539Y96519D02*
X39399Y91659D01*
X34799Y90929D02*
X42929D01*
X34539Y91189D02*
X34799Y90929D01*
X54099Y86959D02*
X60199Y93059D01*
Y93219*
X59939Y91949D02*
X60199D01*
X54609Y86609D02*
X59939Y91949D01*
X54099Y77419D02*
Y86959D01*
X134869Y53579D02*
Y54359D01*
X134619Y54609D02*
Y55639D01*
X136879Y58449D02*
X137329Y58899D01*
X137089Y57949D02*
X137539Y58399D01*
X111669Y58449D02*
X136879D01*
X111219Y58899D02*
X111669Y58449D01*
X111019Y58399D02*
X111459Y57949D01*
X106799Y58399D02*
X111019D01*
X106579Y58169D02*
X106799Y58399D01*
X111459Y57949D02*
X137089D01*
X106599Y58899D02*
X111219D01*
X106369Y58669D02*
X106599Y58899D01*
X141749Y58399D02*
X141969Y58169D01*
X137539Y58399D02*
X141749D01*
X69349Y58169D02*
X106579D01*
X141959Y58899D02*
X142179Y58669D01*
X137329Y58899D02*
X141959D01*
X142179Y58669D02*
X179269D01*
X68829D02*
X106369D01*
X141969Y58169D02*
X168089D01*
X169809Y56449*
X54609Y43429D02*
X69349Y58169D01*
X179269Y58669D02*
X180989Y56959D01*
X54609Y44449D02*
X68829Y58669D01*
X134869Y59939D02*
X135129Y59689D01*
X77219Y59939D02*
X134869D01*
X72899Y64259D02*
X77219Y59939D01*
X72899Y64259D02*
Y85599D01*
X67819Y90679D02*
X72899Y85599D01*
X59939Y90679D02*
X67819D01*
X92579Y95309D02*
X92899Y94989D01*
X93529*
Y96709*
X124769Y94989D02*
Y96209D01*
X123889Y94989D02*
X124769D01*
X155509D02*
Y96459D01*
X154559Y95059D02*
X155439D01*
X185869Y94989D02*
X186749D01*
X186439Y95309D02*
X186749Y94989D01*
X186439Y95309D02*
Y97029D01*
X218599Y65069D02*
X222619D01*
X216799Y66869D02*
X218599Y65069D01*
X27429Y45969D02*
X28959Y44449D01*
X54609*
X33259Y43429D02*
X33519Y43179D01*
X169809Y53659D02*
Y56449D01*
X180989Y49259D02*
Y56959D01*
X180049Y48319D02*
X180989Y49259D01*
X216799Y66869D02*
Y73219D01*
X216039Y76009D02*
X222639D01*
X214769Y77529D02*
X220869D01*
X221119Y77279*
X222639*
X28389Y102929D02*
X33219D01*
X44449Y74169D02*
Y74549D01*
X93529Y90319D02*
Y93089D01*
X96229Y90319D02*
Y93089D01*
X123919Y89469D02*
Y92239D01*
X124769Y93089*
X127469Y90319D02*
Y93089D01*
X155509Y90319D02*
Y93089D01*
X185899Y89469D02*
Y92239D01*
X186749Y93089*
X189449Y90319D02*
Y93089D01*
X44449Y74549D02*
X45619Y75719D01*
X53109*
X42669Y75379D02*
X44569D01*
X45419Y76219*
X52909*
X24769Y80969D02*
Y82639D01*
X23369Y79559D02*
X24769Y80969D01*
X25909Y79559D02*
X30039Y83689D01*
X24769Y78429D02*
X26449D01*
X23369Y77019D02*
X24769Y78429D01*
X33269Y89919D02*
X34539Y91189D01*
X28449Y89919D02*
X33269D01*
X28449Y96519D02*
X34539D01*
X52909Y76219D02*
X54099Y77419D01*
X53109Y75719D02*
X54609Y77219D01*
Y86609*
X33259Y43429D02*
X54609D01*
G54D39*
X49209Y86169D02*
X52069Y83309D01*
Y80519D02*
Y83309D01*
X34719Y102929D02*
X35479Y102179D01*
X59109*
X25909Y77019D02*
X26639Y77759D01*
X49309*
X52069Y80519*
X43239Y86169D02*
X49209D01*
X43239D02*
Y86299D01*
X59109Y102179*
X65529Y92959D02*
Y95759D01*
X59109Y102179D02*
X65529Y95759D01*
G54D40*
X57659Y87629D02*
X68729D01*
X68779Y87679*
X58549Y88389D02*
X68069D01*
X58419Y88259D02*
X58549Y88389D01*
X32579Y81209D02*
X43249D01*
X158209Y90319D02*
Y93089D01*
X187959Y82469D02*
Y84069D01*
X156719Y82469D02*
Y84069D01*
X125979Y82469D02*
Y84069D01*
X94739Y82469D02*
Y83819D01*
G54D41*
X189479Y93979D02*
Y94959D01*
X189449Y94989D02*
X189479Y94959D01*
X96229Y94989D02*
X97669D01*
X96269Y93979D02*
Y94959D01*
X127469Y94009D02*
Y94989D01*
X158209Y94009D02*
Y94989D01*
X127469D02*
X128909D01*
X158209Y94999D02*
X159649D01*
X189449Y94989D02*
X190889D01*
X206329Y94999D02*
X221059Y80269D01*
X190889Y94999D02*
X206329D01*
X221039Y67609D02*
Y69579D01*
X221059Y78549D02*
Y80269D01*
X221039Y67609D02*
X222619D01*
X221059Y78549D02*
X222639D01*
X220869Y74739D02*
X222639D01*
X219599Y78609D02*
X219659Y78549D01*
X219599Y78609D02*
Y80069D01*
X27429Y43429D02*
X31759D01*
X22019Y109999D02*
X242059D01*
X22509Y104199D02*
X22529Y104219D01*
X21999Y10409D02*
Y109979D01*
Y10349D02*
Y10409D01*
Y10349D02*
X22349Y09999D01*
X172969*
X242059*
Y109999*
G54D42*
X92609Y82339D02*
Y82429D01*
X89799Y81029D02*
Y82039D01*
X92269Y82769D02*
X92609Y82429D01*
X90889Y82769D02*
X92269D01*
X90169Y82039D02*
X90889Y82769D01*
X89799Y82039D02*
X90169D01*
X121039Y81029D02*
Y82039D01*
X123689Y82769D02*
X124109Y82339D01*
X122129Y82769D02*
X123689D01*
X121409Y82039D02*
X122129Y82769D01*
X121039Y82039D02*
X121409D01*
X154379Y82799D02*
X154839Y82339D01*
X152789Y82799D02*
X154379D01*
X151779Y81789D02*
X152789Y82799D01*
X183019Y81029D02*
Y82039D01*
X185659Y82769D02*
X186079Y82339D01*
X184109Y82769D02*
X185659D01*
X183389Y82039D02*
X184109Y82769D01*
X183019Y82039D02*
X183389D01*
X151779Y81029D02*
Y81789D01*
X193639Y32939D02*
Y35049D01*
Y32939D02*
X195849Y30729D01*
X197349D02*
X198539Y31929D01*
Y35049*
X197349Y19049D02*
X198629Y17769D01*
Y14819D02*
Y17769D01*
X198539Y14729D02*
X198629Y14819D01*
X193639Y14729D02*
X193799Y14899D01*
Y17009*
X195849Y19049*
G54D43*
X230769Y62289D02*
X231529Y61529D01*
X230569Y68949D02*
X232409D01*
X230569Y66409D02*
X232409D01*
X231049Y65069D02*
X231529Y64579D01*
X227639Y74739D02*
X228289D01*
X231599Y71429*
X229559Y76009D02*
X231599Y73969D01*
X227639Y76009D02*
X229559D01*
X230819Y77289D02*
X231599Y76509D01*
X228959Y67609D02*
X228969Y67619D01*
X229209Y67589D02*
X230569Y68949D01*
X228969Y67589D02*
X229209D01*
X230249Y66089D02*
X230569Y66409D01*
X228969Y66089D02*
X230249D01*
X227619Y65069D02*
X231049D01*
X230009Y62289D02*
X230769D01*
X228509Y63799D02*
X230009Y62289D01*
X227619Y63799D02*
X228509D01*
X228989Y77289D02*
X230819D01*
X227639Y78549D02*
X228179D01*
X228419Y78789*
X228989*
X227639Y77279D02*
X228979D01*
X228989Y77289*
X227619Y67609D02*
X228959D01*
X227619Y66339D02*
X228169D01*
X228409Y66089*
X228969*
X231529Y64579D02*
X231589D01*
X232299Y63869*
X231529Y61529D02*
X232099D01*
X228989Y78789D02*
X231969D01*
X231599Y76509D02*
X232409D01*
X231599Y73969D02*
X232409D01*
X231599Y71429D02*
X232409D01*
G54D44*
X152539Y72329D02*
X152779Y72079D01*
X154319Y69909D02*
Y70429D01*
X149989Y70339D02*
Y72319D01*
X152779Y70339D02*
Y72079D01*
X152539Y70499D02*
Y72329D01*
X151779Y78859D02*
Y79629D01*
X151269Y78349D02*
X151779Y78859D01*
X151279Y69419D02*
X151569Y69129D01*
X153529*
X151279Y70339D02*
Y72319D01*
Y69419D02*
Y70339D01*
X151269Y77529D02*
Y78349D01*
X153529Y69129D02*
X154319Y69909D01*
X184769Y69129D02*
X185559Y69909D01*
X182509Y77529D02*
Y78349D01*
X182519Y69419D02*
Y70339D01*
Y72319*
X182809Y69129D02*
X184769D01*
X182519Y69419D02*
X182809Y69129D01*
X182509Y78349D02*
X183019Y78859D01*
Y79629*
X183779Y70499D02*
Y72329D01*
X184019Y70339D02*
Y72079D01*
X181229Y70339D02*
Y72319D01*
X185559Y69909D02*
Y70429D01*
X183779Y72329D02*
X184019Y72079D01*
X122799Y69129D02*
X123579Y69909D01*
X120539Y77529D02*
Y78349D01*
X120549Y69419D02*
Y70339D01*
Y72319*
X120839Y69129D02*
X122799D01*
X120549Y69419D02*
X120839Y69129D01*
X120539Y78349D02*
X121039Y78859D01*
Y79629*
X121809Y70499D02*
Y72329D01*
X122049Y70339D02*
Y72079D01*
X119249Y70339D02*
Y72319D01*
X123579Y69909D02*
Y70429D01*
X121809Y72329D02*
X122049Y72079D01*
X91559Y69129D02*
X92339Y69909D01*
X89289Y77529D02*
Y78349D01*
X89309Y69419D02*
Y70339D01*
Y72319*
X89599Y69129D02*
X91559D01*
X89309Y69419D02*
X89599Y69129D01*
X89289Y78349D02*
X89799Y78859D01*
Y79629*
X90559Y70499D02*
Y72329D01*
X90809Y70339D02*
Y72079D01*
X88009Y70339D02*
Y72319D01*
X92339Y69909D02*
Y70429D01*
X90559Y72329D02*
X90809Y72079D01*
G54D45*
X27429Y26919D03*
Y24379D03*
Y33269D03*
Y30729D03*
Y39619D03*
Y37079D03*
Y45969D03*
Y43429D03*
X28449Y96519D03*
Y93979D03*
Y89919D03*
Y87379D03*
X28389Y100389D03*
Y102929D03*
G54D46*
X28409Y66319D03*
Y61819D03*
X232409Y20629D03*
Y23169D03*
Y25709D03*
Y28249D03*
Y30789D03*
Y33329D03*
Y35869D03*
Y38409D03*
Y40949D03*
Y43489D03*
Y46029D03*
Y48569D03*
Y51109D03*
Y53649D03*
Y56189D03*
Y58729D03*
Y61269D03*
Y63809D03*
Y66349D03*
Y68889D03*
Y71429D03*
Y73969D03*
Y76509D03*
Y79049D03*
Y81589D03*
Y84129D03*
Y86669D03*
Y89209D03*
Y91749D03*
Y94289D03*
Y96829D03*
Y99369D03*
X237489Y20629D03*
Y23169D03*
Y25709D03*
Y28249D03*
Y30789D03*
Y33329D03*
Y35869D03*
Y38409D03*
Y40949D03*
Y43489D03*
Y46029D03*
Y48569D03*
Y51109D03*
Y53649D03*
Y56189D03*
Y58729D03*
Y61269D03*
Y63809D03*
Y66349D03*
Y68889D03*
Y71429D03*
Y73969D03*
Y76509D03*
Y79049D03*
Y81589D03*
Y84129D03*
Y86669D03*
Y89209D03*
Y91749D03*
Y94289D03*
Y96829D03*
Y99369D03*
G54D47*
X30899Y60559D03*
Y67569D03*
G54D48*
X23369Y77019D03*
X25909D03*
X23369Y79559D03*
X25909D03*
X23369Y82099D03*
X25909D03*
G54D49*
X240029Y15549D03*
Y104449D03*
G54D50*
X51309Y74679D03*
X49279Y84579D03*
X49909Y83689D03*
X48869Y82909D03*
X57399Y81789D03*
X44189Y91659D03*
X42929Y90929D03*
X60199Y91949D03*
Y93219D03*
X57659Y87629D03*
X68069Y88389D03*
X58419Y88259D03*
X59939Y90679D03*
X32579Y81209D03*
X43249D03*
X42669Y75379D03*
X44449Y74169D03*
X68779Y87679D03*
G54D51*
X191769Y98039D03*
X60339Y74929D03*
X25149Y72389D03*
Y70609D03*
X43239Y86169D03*
X65529Y92959D03*
X59109Y102179D03*
X221039Y69579D03*
X189119Y42989D03*
X123329Y39429D03*
X76839Y32079D03*
X221119Y80329D03*
X217819Y71179D03*
X216799Y73219D03*
X138399Y44039D03*
X138319Y45779D03*
Y47559D03*
Y49339D03*
Y51119D03*
Y52899D03*
X158379Y42739D03*
X160159D03*
X161939D03*
X163719D03*
X169809Y53659D03*
Y51879D03*
Y50099D03*
Y48069D03*
Y46289D03*
Y44509D03*
X82689Y77529D03*
X97679Y42989D03*
X99449D03*
X101229D03*
X112919Y44259D03*
X111389D03*
X109869D03*
X108339D03*
X112919Y45779D03*
X111389D03*
X109869D03*
X108339D03*
X187589Y42989D03*
X191399Y44259D03*
Y45779D03*
X138059Y55689D03*
Y62799D03*
X169299D03*
X107329D03*
Y55689D03*
X216039Y76009D03*
X214769Y77529D03*
X220869Y74739D03*
X219599Y80069D03*
X93469Y96769D03*
X124709Y96269D03*
X155449Y96519D03*
X186439Y97029D03*
X94739Y83819D03*
X156719Y84069D03*
X125979D03*
X187959D03*
G54D52*
X135639Y52069D03*
X136649Y59689D03*
X134869Y54359D03*
X135889Y57149D03*
X133859Y59179D03*
X135129Y59689D03*
X189479Y93979D03*
X96269D03*
X127469Y94009D03*
X158209D03*
G54D53*
X183019Y82039D03*
X89799D03*
X121039D03*
X151779Y81789D03*
G54D54*
X140599Y55939D03*
Y62549D03*
X141619Y56449D03*
X141729Y62479D03*
Y61469D03*
X141619Y57469D03*
X139329Y55939D03*
Y62549D03*
X170569D03*
X172859Y61019D03*
Y62039D03*
X171839Y62549D03*
X108599D03*
Y55939D03*
X110879Y57469D03*
Y61019D03*
Y62039D03*
Y56449D03*
X109869Y62549D03*
Y55939D03*
M02*