%FSTAX23Y23*%
%MOIN*%
%SFA1B1*%

%IPPOS*%
%AMD128*
4,1,8,-0.033100,0.016500,-0.033100,-0.016500,-0.016500,-0.033100,0.016500,-0.033100,0.033100,-0.016500,0.033100,0.016500,0.016500,0.033100,-0.016500,0.033100,-0.033100,0.016500,0.0*
%
%ADD51C,0.019685*%
%ADD89R,0.031496X0.039370*%
%ADD93R,0.035433X0.039370*%
%ADD95R,0.106299X0.047244*%
%ADD101R,0.039370X0.031496*%
%ADD102R,0.039370X0.035433*%
%ADD110R,0.133858X0.059055*%
%ADD111R,0.059842X0.122834*%
%ADD122R,0.082677X0.141732*%
%ADD123C,0.070866*%
%ADD124C,0.064173*%
%ADD125C,0.114173*%
%ADD126C,0.066929*%
%ADD127C,0.106299*%
G04~CAMADD=128~4~0.0~0.0~661.4~661.4~0.0~165.4~0~0.0~0.0~0.0~0.0~0~0.0~0.0~0.0~0.0~0~0.0~0.0~0.0~90.0~662.0~662.0*
%ADD128D128*%
%ADD129C,0.053937*%
%ADD130C,0.033858*%
%ADD131C,0.039370*%
%ADD132C,0.029134*%
%ADD133C,0.044094*%
%ADD134R,0.064960X0.133858*%
%ADD135R,0.031890X0.083071*%
%ADD136R,0.051968X0.051968*%
%ADD137R,0.063779X0.089764*%
%ADD138O,0.015748X0.074803*%
%ADD139O,0.074803X0.015748*%
%ADD140R,0.062992X0.082677*%
%ADD141R,0.153543X0.082677*%
%LNlv1-1*%
%LPD*%
G54D51*
X00866Y0433D02*
X09529D01*
X00866Y00409D02*
Y04329D01*
Y00407D02*
Y00409D01*
Y00407D02*
X00879Y00393D01*
X06809*
X09529*
Y0433*
G54D89*
X0195Y0387D03*
X02009D03*
X0192Y0382D03*
X01979D03*
X02259Y03079D03*
X022D03*
X02379Y03059D03*
X0232D03*
X0771Y0129D03*
X07769D03*
X0771Y00679D03*
X07769D03*
G54D93*
X02582Y0372D03*
X02637D03*
X02582Y038D03*
X02637D03*
X01177Y02673D03*
X01122D03*
G54D95*
X08249Y00666D03*
Y00773D03*
X08129Y00666D03*
Y00773D03*
X08009Y00666D03*
Y00773D03*
X07409Y00646D03*
Y00753D03*
X08Y01206D03*
Y01312D03*
X0824Y01206D03*
Y01312D03*
X0812Y01206D03*
Y01312D03*
X07529Y01206D03*
Y01312D03*
G54D101*
X0257Y03409D03*
Y0335D03*
X0895Y028D03*
Y02859D03*
X09009Y02819D03*
Y0276D03*
X08961Y02582D03*
Y02641D03*
X0902Y02599D03*
Y0254D03*
X00929Y00829D03*
Y0077D03*
X0122Y00719D03*
Y0066D03*
X0115Y00719D03*
Y0066D03*
G54D102*
X0162Y02172D03*
Y02227D03*
X0251Y03472D03*
Y03527D03*
X01759Y03447D03*
Y03392D03*
G54D110*
X07845Y02257D03*
Y02407D03*
X03775Y02257D03*
Y02407D03*
G54D111*
X02Y02275D03*
Y02464D03*
X0144Y02115D03*
Y02305D03*
G54D122*
X07623Y01109D03*
X07816D03*
Y0085D03*
X07623D03*
G54D123*
X01218Y02281D03*
Y02005D03*
G54D124*
X0112Y02054D03*
Y02231D03*
X0935Y03912D03*
Y03812D03*
Y03712D03*
Y03612D03*
Y03512D03*
Y03412D03*
Y03312D03*
Y03212D03*
Y03112D03*
Y03012D03*
Y02912D03*
Y02812D03*
Y02712D03*
Y02612D03*
Y02512D03*
Y02412D03*
Y02312D03*
Y02212D03*
Y02112D03*
Y02012D03*
Y01912D03*
Y01812D03*
Y01712D03*
Y01612D03*
Y01512D03*
Y01412D03*
Y01312D03*
Y01212D03*
Y01112D03*
Y01012D03*
Y00912D03*
Y00812D03*
X0915Y03912D03*
Y03812D03*
Y03712D03*
Y03612D03*
Y03512D03*
Y03412D03*
Y03312D03*
Y03212D03*
Y03112D03*
Y03012D03*
Y02912D03*
Y02812D03*
Y02712D03*
Y02612D03*
Y02512D03*
Y02412D03*
Y02312D03*
Y02212D03*
Y02112D03*
Y02012D03*
Y01912D03*
Y01812D03*
Y01712D03*
Y01612D03*
Y01512D03*
Y01412D03*
Y01312D03*
Y01212D03*
Y01112D03*
Y01012D03*
Y00912D03*
Y00812D03*
G54D125*
X0945Y04112D03*
Y00612D03*
G54D126*
X00971Y01059D03*
Y00959D03*
Y01309D03*
Y01209D03*
Y01559D03*
Y01459D03*
Y01809D03*
Y01709D03*
X00981Y03579D03*
Y03479D03*
Y0332D03*
Y0322D03*
Y03729D03*
Y03829D03*
G54D127*
X01006Y04111D03*
Y00612D03*
G54D128*
X0092Y0287D03*
X0102D03*
Y0277D03*
X0092D03*
Y0267D03*
X0102D03*
X0092Y0257D03*
X0102D03*
X0092Y0247D03*
X0102D03*
G54D129*
X01859Y0257D03*
X0354Y01879D03*
X036D03*
X0354Y01679D03*
X03479Y0174D03*
X0354D03*
X036D03*
Y01679D03*
X0367D03*
X0374D03*
X03809D03*
X0399Y0174D03*
Y018D03*
X03929D03*
Y0174D03*
X0387Y018D03*
Y0174D03*
Y01679D03*
X03929D03*
X0399D03*
X0759Y01909D03*
Y0185D03*
X07579Y0169D03*
X08059Y01809D03*
X08D03*
X0794D03*
Y0175D03*
X08D03*
X08059D03*
Y0169D03*
X08D03*
X0794D03*
X07879D03*
X0782D03*
X07759D03*
X054Y0362D03*
X0125Y01259D03*
X0722Y0329D03*
X04609Y03859D03*
X0595Y0385D03*
X0415Y03779D03*
X0422Y01259D03*
X0305Y00659D03*
X05479Y01159D03*
X0414Y0122D03*
X0417Y01159D03*
X0765Y01909D03*
Y0185D03*
X07529D03*
X0764Y0169D03*
X077D03*
X05935Y03381D03*
X06742Y03627D03*
X06418Y03273D03*
X06361Y02968D03*
X06145Y01701D03*
X06075D03*
X06005D03*
X05935D03*
X05865D03*
X05795D03*
X05725D03*
X05765Y0164D03*
X05835D03*
X05905D03*
X05975D03*
X06045D03*
X05735Y01581D03*
X05805D03*
X05875D03*
X05945D03*
X06015D03*
X06085D03*
X06335Y0159D03*
Y01531D03*
Y01471D03*
Y01411D03*
X06395Y0139D03*
X06455D03*
X06575Y0159D03*
X06645D03*
X06575Y01531D03*
X06645D03*
Y01471D03*
X06575D03*
X06515Y0139D03*
X06645Y01411D03*
X06575D03*
X05825Y01521D03*
X05755D03*
X05825Y01451D03*
X05755D03*
X05825Y01381D03*
X05755D03*
X0442Y01379D03*
X0449D03*
X0442Y0145D03*
X0449D03*
X0442Y0152D03*
X0449D03*
X0524Y01409D03*
X05309D03*
X05179Y0139D03*
X0524Y0147D03*
X05309D03*
Y01529D03*
X0524D03*
X05309Y0159D03*
X0524D03*
X0512Y0139D03*
X05059D03*
X05Y01409D03*
Y0147D03*
Y01529D03*
Y0159D03*
X0475Y01579D03*
X04679D03*
X04609D03*
X0454D03*
X0447D03*
X044D03*
X04709Y0164D03*
X0464D03*
X0457D03*
X045D03*
X04429D03*
X0439Y017D03*
X04459D03*
X04529D03*
X046D03*
X0467D03*
X0474D03*
X04809D03*
X05025Y02968D03*
X05083Y03272D03*
X046Y03379D03*
X08899Y0275D03*
X08867Y02582D03*
X02329Y03979D03*
X07929Y03859D03*
X02375Y0295D03*
X0119Y02479D03*
X01702Y03392D03*
X02579Y03659D03*
X08702Y02739D03*
X08705Y03162D03*
X08575Y02802D03*
X08535Y02882D03*
X07065Y02112D03*
Y02042D03*
Y01972D03*
Y01892D03*
Y01822D03*
Y01752D03*
X03255Y03052D03*
X08505Y02992D03*
X08455Y03052D03*
X08695Y02942D03*
X08645Y03152D03*
X03679Y03809D03*
X0772Y0382D03*
X03729Y033D03*
X07779Y03309D03*
X0192Y0257D03*
X01979D03*
X042Y0225D03*
X0414Y022D03*
X0282Y0225D03*
X029Y022D03*
Y0245D03*
X0264Y0244D03*
X01059Y0069D03*
X0712Y02079D03*
Y02009D03*
Y01929D03*
Y01859D03*
Y0179D03*
G54D130*
X05409Y02179D03*
X05911Y03684D03*
X04576Y03683D03*
X0545Y01943D03*
X0542Y02033D03*
X0784Y037D03*
X0379D03*
X05018Y03701D03*
X06228D03*
G54D131*
X06579Y03578D03*
X06569Y03383D03*
X06725Y03378D03*
X06405Y03588D03*
X05069Y03587D03*
X05389Y03377D03*
X05234Y03382D03*
X05244Y03577D03*
G54D132*
X0202Y0294D03*
X01924Y03264D03*
X02259Y0322D03*
X01739Y03608D03*
X0169Y03579D03*
X0237Y0362D03*
Y0367D03*
X0227Y0345D03*
X02679Y03479D03*
X02359Y0357D03*
X01282Y0263D03*
X01702Y03007D03*
X01679Y02967D03*
X0175Y0292D03*
X02707Y03451D03*
X02305Y0348D03*
X02067Y03294D03*
X01979Y0332D03*
G54D133*
X07585Y03229D03*
X03535D03*
G54D134*
X02327Y04109D03*
X02492D03*
G54D135*
X0219Y03D03*
X02229D03*
X02269D03*
G54D136*
X0257Y03542D03*
Y03458D03*
G54D137*
X02142Y04109D03*
X01997D03*
G54D138*
X02376Y03749D03*
X02357D03*
X02337D03*
X02317D03*
X02298D03*
X02278D03*
X02258D03*
X02238D03*
X02219D03*
X02199D03*
X02179D03*
X0216D03*
X0214D03*
X0212D03*
X02101D03*
X02081D03*
X02061D03*
X02042D03*
X02022D03*
X02002D03*
X01983D03*
X01963D03*
X01943D03*
X01924D03*
X01904D03*
Y03155D03*
X01924D03*
X01943D03*
X01963D03*
X01983D03*
X02002D03*
X02022D03*
X02042D03*
X02061D03*
X02081D03*
X02101D03*
X0212D03*
X0214D03*
X0216D03*
X02179D03*
X02199D03*
X02219D03*
X02238D03*
X02258D03*
X02278D03*
X02298D03*
X02317D03*
X02337D03*
X02357D03*
X02376D03*
G54D139*
X01843Y03688D03*
Y03668D03*
Y03649D03*
Y03629D03*
Y03609D03*
Y0359D03*
Y0357D03*
Y0355D03*
Y03531D03*
Y03511D03*
Y03491D03*
Y03472D03*
Y03452D03*
Y03432D03*
Y03412D03*
Y03393D03*
Y03373D03*
Y03353D03*
Y03334D03*
Y03314D03*
Y03294D03*
Y03275D03*
Y03255D03*
Y03235D03*
Y03216D03*
X02437D03*
Y03235D03*
Y03255D03*
Y03275D03*
Y03294D03*
Y03314D03*
Y03334D03*
Y03353D03*
Y03373D03*
Y03393D03*
Y03412D03*
Y03432D03*
Y03452D03*
Y03472D03*
Y03491D03*
Y03511D03*
Y03531D03*
Y0355D03*
Y0357D03*
Y0359D03*
Y03609D03*
Y03629D03*
Y03649D03*
Y03668D03*
Y03688D03*
G54D140*
X01807Y02296D03*
X01716D03*
X01626D03*
G54D141*
X01716Y02544D03*
M02*