%FSTAX23Y23*%
%MOMM*%
%SFA1B1*%

%IPPOS*%
%ADD10R,0.699999X0.899998*%
%ADD11R,1.999996X3.499993*%
%ADD12R,2.599995X1.099998*%
%ADD13R,3.299993X1.399997*%
%ADD14R,1.099998X2.599995*%
%ADD15R,0.759998X1.139998*%
%ADD16R,2.999994X2.259995*%
%ADD17R,0.899998X0.699999*%
%ADD18R,1.799996X2.099996*%
%ADD19R,0.799998X0.899998*%
%ADD20R,1.699997X1.099998*%
%ADD21R,1.169998X1.879996*%
%ADD22R,1.199998X1.199998*%
%ADD23R,1.519997X2.179996*%
%ADD24R,3.099994X3.999992*%
%ADD25R,3.359993X4.859990*%
%ADD26R,1.389997X1.399997*%
%ADD27R,3.199994X1.799996*%
%ADD28R,1.399997X1.099998*%
%ADD29R,3.299993X1.549997*%
%ADD30O,0.999998X0.549999*%
%ADD31R,0.999998X0.549999*%
%ADD32R,0.899998X0.799998*%
%ADD33R,1.419997X3.019994*%
%ADD34R,1.399997X0.799998*%
%ADD35O,1.399997X0.799998*%
%ADD41C,0.499999*%
%LNlv1-1*%
%LPD*%
G54D10*
X34789Y81529D03*
X33289D03*
X34789Y88139D03*
X33289D03*
X33259Y43429D03*
X31759D03*
X195849Y19809D03*
X197349D03*
X195849Y30729D03*
X197349D03*
X151279Y70339D03*
X152779D03*
X154079Y77529D03*
X155579D03*
X154559Y95059D03*
X153059D03*
X148489Y70339D03*
X149989D03*
X179729D03*
X181229D03*
X185799Y95059D03*
X184299D03*
X185319Y77529D03*
X186819D03*
X182519Y70339D03*
X184019D03*
X117749D03*
X119249D03*
X123829Y95059D03*
X122329D03*
X123339Y77529D03*
X124839D03*
X120549Y70339D03*
X122049D03*
X86509D03*
X88009D03*
X92579Y95309D03*
X91079D03*
X92099Y77529D03*
X93599D03*
X89309Y70339D03*
X90809D03*
X34619Y97339D03*
X33119D03*
G54D11*
X193639Y15489D03*
X198539D03*
X193639Y35049D03*
X198539D03*
G54D12*
X209549Y17699D03*
Y20399D03*
X206499Y17699D03*
Y20399D03*
X203449Y17699D03*
Y20399D03*
X188209Y17779D03*
Y20479D03*
X209299Y30149D03*
Y32849D03*
X206249Y30149D03*
Y32849D03*
X203199Y30149D03*
Y32849D03*
X188209Y29899D03*
Y32599D03*
G54D13*
X139329Y61149D03*
Y57349D03*
X108599Y61149D03*
Y57349D03*
G54D14*
X150079Y80069D03*
X147379D03*
X146109Y48319D03*
X148809D03*
X146109Y45279D03*
X148809D03*
X177349D03*
X180049D03*
X177349Y48319D03*
X180049D03*
X181319Y80069D03*
X178619D03*
X115379Y45279D03*
X118079D03*
X115379Y48319D03*
X118079D03*
X119349Y80069D03*
X116649D03*
X84129Y45279D03*
X86829D03*
X84129Y48319D03*
X86829D03*
X88099Y80069D03*
X85399D03*
G54D15*
X152539Y77529D03*
X151269D03*
X149999D03*
X148729D03*
X152539Y72329D03*
X151269D03*
X149999D03*
X148729D03*
X183779Y77529D03*
X182509D03*
X181239D03*
X179969D03*
X183779Y72329D03*
X182509D03*
X181239D03*
X179969D03*
X121809Y77529D03*
X120539D03*
X119269D03*
X117999D03*
X121809Y72329D03*
X120539D03*
X119269D03*
X117999D03*
X90559Y77529D03*
X89289D03*
X88019D03*
X86749D03*
X90559Y72329D03*
X89289D03*
X88019D03*
X86749D03*
G54D16*
X150629Y74929D03*
X181879D03*
X119899D03*
X88659D03*
G54D17*
X153559Y80339D03*
Y81839D03*
X154319Y71929D03*
Y70429D03*
X185559Y71929D03*
Y70429D03*
X184799Y80339D03*
Y81839D03*
X123579Y71929D03*
Y70429D03*
X122819Y80339D03*
Y81839D03*
X92339Y71929D03*
Y70429D03*
X91579Y80339D03*
Y81839D03*
X134619Y51829D03*
Y53329D03*
Y55639D03*
Y57139D03*
X228989Y77289D03*
Y78789D03*
X228969Y67589D03*
Y66089D03*
G54D18*
X158379Y72109D03*
Y67709D03*
X189619Y72109D03*
Y67709D03*
X127649Y72109D03*
Y67709D03*
X96409Y72109D03*
Y67709D03*
G54D19*
X155839Y80339D03*
X156839Y82339D03*
X154839D03*
X187079Y80339D03*
X188079Y82339D03*
X186079D03*
X125109Y80339D03*
X126109Y82339D03*
X124109D03*
X93869Y80339D03*
X94869Y82339D03*
X92869D03*
X219639Y67609D03*
X221039D03*
X219659Y78549D03*
X221059D03*
G54D20*
X166509Y61959D03*
Y64659D03*
X197749Y61959D03*
Y64659D03*
X135779Y61959D03*
Y64659D03*
X104529Y61959D03*
Y64659D03*
G54D21*
X143849Y67439D03*
X146329D03*
X148809D03*
X151289D03*
X153769D03*
X143849Y51079D03*
X146329D03*
X148809D03*
X151289D03*
X153769D03*
X175089Y67439D03*
X177569D03*
X180049D03*
X182529D03*
X185009D03*
X175089Y51079D03*
X177569D03*
X180049D03*
X182529D03*
X185009D03*
X113119Y67439D03*
X115599D03*
X118079D03*
X120559D03*
X123039D03*
X113119Y51079D03*
X115599D03*
X118079D03*
X120559D03*
X123039D03*
X81869Y67439D03*
X84349D03*
X86829D03*
X89309D03*
X91789D03*
X81869Y51079D03*
X84349D03*
X86829D03*
X89309D03*
X91789D03*
G54D22*
X148859Y42739D03*
X146059D03*
X180099D03*
X177299D03*
X118129D03*
X115329D03*
X86879D03*
X84079D03*
G54D23*
X146129Y85149D03*
X149809D03*
X177369D03*
X181049D03*
X115389D03*
X119069D03*
X84149D03*
X87829D03*
G54D24*
X159059Y89469D03*
X154659D03*
X190299D03*
X185899D03*
X128319D03*
X123919D03*
X97079D03*
X92679D03*
G54D25*
X157109Y46799D03*
X188349D03*
X126379D03*
X95139D03*
G54D26*
X158029Y50779D03*
X156189D03*
X189269D03*
X187429D03*
X127299D03*
X125459D03*
X96059D03*
X94219D03*
G54D27*
X162699Y68079D03*
Y61579D03*
X193939Y68079D03*
Y61579D03*
X131969Y68079D03*
Y61579D03*
X100719Y68079D03*
Y61579D03*
G54D28*
X166259Y69929D03*
Y71429D03*
X197499Y69929D03*
Y71429D03*
X135519Y69929D03*
Y71429D03*
X104279Y69929D03*
Y71429D03*
G54D29*
X164219Y84069D03*
Y88269D03*
X195469Y84069D03*
Y88269D03*
X133489Y84069D03*
Y88269D03*
X102249Y84069D03*
Y88269D03*
G54D30*
X155509Y94989D03*
X186749D03*
X124769D03*
X93529D03*
G54D31*
X155509Y94039D03*
Y93089D03*
X158209Y94989D03*
Y93089D03*
X186749Y94039D03*
Y93089D03*
X189449Y94989D03*
Y93089D03*
X124769Y94039D03*
Y93089D03*
X127469Y94989D03*
Y93089D03*
X93529Y94039D03*
Y93089D03*
X96229Y94989D03*
Y93089D03*
G54D32*
X151779Y81029D03*
Y79629D03*
X159649Y94999D03*
Y93599D03*
X190889Y94999D03*
Y93599D03*
X183019Y81029D03*
Y79629D03*
X128919Y94999D03*
Y93599D03*
X121039Y81029D03*
Y79629D03*
X97679Y94999D03*
Y93599D03*
X89799Y81029D03*
Y79629D03*
G54D33*
X208669Y98759D03*
Y103569D03*
G54D34*
X222639Y78549D03*
X222619Y67609D03*
G54D35*
X222639Y77279D03*
Y76009D03*
Y74739D03*
X227639Y78549D03*
Y77279D03*
Y76009D03*
Y74739D03*
X222619Y66339D03*
Y65069D03*
Y63799D03*
X227619Y67609D03*
Y66339D03*
Y65069D03*
Y63799D03*
G54D41*
X242059Y09999D02*
Y109999D01*
X172969Y09999D02*
X242059D01*
X22349D02*
X172969D01*
X21999Y10349D02*
X22349Y09999D01*
X21999Y10349D02*
Y10409D01*
Y109979*
X22019Y109999D02*
X242059D01*
M02*