%FSTAX23Y23*%
%MOIN*%
%SFA1B1*%

%IPPOS*%
%ADD10R,0.102362X0.043307*%
%ADD11O,0.064960X0.025591*%
%ADD12R,0.064960X0.025591*%
%ADD13R,0.066929X0.043307*%
%ADD14R,0.055905X0.118897*%
%ADD15O,0.055118X0.031496*%
%ADD16R,0.055118X0.031496*%
%ADD17R,0.035433X0.027559*%
%ADD18R,0.031496X0.035433*%
%ADD19R,0.027559X0.035433*%
%ADD20R,0.043307X0.102362*%
%ADD21R,0.118110X0.088976*%
%ADD22R,0.029921X0.044882*%
%ADD23R,0.070866X0.082677*%
%ADD24R,0.046063X0.074016*%
%ADD25R,0.047244X0.047244*%
%ADD26R,0.122047X0.157480*%
%ADD27R,0.054724X0.055118*%
%ADD28R,0.132283X0.191338*%
%ADD29R,0.125984X0.070866*%
%ADD30R,0.055118X0.043307*%
%ADD31R,0.129921X0.061024*%
%ADD32R,0.039370X0.021654*%
%ADD33O,0.039370X0.021654*%
%ADD34R,0.035433X0.031496*%
%ADD35R,0.129921X0.055118*%
%ADD36R,0.078740X0.137795*%
%ADD37R,0.085827X0.059842*%
%ADD38R,0.157480X0.122047*%
%ADD39R,0.021654X0.039370*%
%ADD40O,0.021654X0.039370*%
%ADD41R,0.043307X0.055118*%
%ADD42O,0.064960X0.011811*%
%ADD43R,0.050000X0.120078*%
%ADD44R,0.047244X0.025591*%
%ADD45R,0.023622X0.023622*%
%ADD46R,0.085039X0.107874*%
%ADD50C,0.019685*%
%LNlv1-1*%
%LPD*%
G54D10*
X05519Y02783D03*
Y02676D03*
X0685Y02783D03*
Y02676D03*
X07409Y01283D03*
Y01177D03*
X08Y01293D03*
Y01187D03*
X0812Y01293D03*
Y01187D03*
X0824Y01293D03*
Y01187D03*
X07409Y00806D03*
Y007D03*
X08009Y00803D03*
Y00696D03*
X08129Y00803D03*
Y00696D03*
X0825Y00803D03*
Y00696D03*
X05394Y02785D03*
Y02678D03*
X06729Y02783D03*
Y02676D03*
G54D11*
X07722Y04181D03*
Y04081D03*
Y03981D03*
X08072Y04181D03*
Y04081D03*
X04782Y04168D03*
Y04068D03*
Y03968D03*
X05133Y04168D03*
Y04068D03*
G54D12*
X08072Y03981D03*
X05133Y03968D03*
G54D13*
X06Y03103D03*
Y02996D03*
X04659Y03103D03*
Y02996D03*
X04115Y02545D03*
Y02439D03*
X08165Y02545D03*
Y02439D03*
X0475Y03103D03*
Y02996D03*
X05466Y03063D03*
Y02957D03*
X06801Y03064D03*
Y02957D03*
X0609Y03103D03*
Y02996D03*
G54D14*
X02Y02275D03*
Y02464D03*
X0152Y02115D03*
Y02305D03*
X0842Y03923D03*
Y04112D03*
G54D15*
X09001Y02871D03*
Y02921D03*
Y02971D03*
Y03021D03*
X08804Y02871D03*
Y02921D03*
Y02971D03*
X09012Y02262D03*
Y02312D03*
Y02362D03*
Y02412D03*
X08815Y02262D03*
Y02312D03*
Y02362D03*
G54D16*
X08804Y03021D03*
X08815Y02412D03*
G54D17*
X09059Y03039D03*
Y0298D03*
X09065Y02362D03*
Y02422D03*
X03594Y03163D03*
Y03222D03*
X03635Y02772D03*
Y02831D03*
X07635Y03162D03*
Y03221D03*
X07685Y02772D03*
Y02831D03*
X0119Y01459D03*
Y014D03*
X05187Y03592D03*
Y03651D03*
X05131D03*
Y03592D03*
X04939Y03522D03*
Y03581D03*
X05009Y03237D03*
Y03296D03*
X06344Y03238D03*
Y03297D03*
X06274Y03523D03*
Y03582D03*
X06467Y03652D03*
Y03593D03*
X06522D03*
Y03652D03*
G54D18*
X08698Y02412D03*
X08753D03*
X08687Y03021D03*
X08742D03*
X04561Y03629D03*
X04616D03*
X04882Y03479D03*
X04937D03*
X05037Y03522D03*
X04982D03*
X05037Y0357D03*
X04982D03*
X06377D03*
X06322D03*
X06377Y0352D03*
X06322D03*
X06212Y0347D03*
X06267D03*
X05897Y03631D03*
X05952D03*
G54D19*
X01303Y03832D03*
X01362D03*
X05499Y02179D03*
X0544D03*
X03575Y02769D03*
X03516D03*
X03685Y03052D03*
X03625D03*
X03585Y03752D03*
X03644D03*
X03464Y02769D03*
X03405D03*
X07625D03*
X07566D03*
X07735Y03052D03*
X07675D03*
X07635Y03742D03*
X07694D03*
X07514Y02769D03*
X07455D03*
X07769Y01209D03*
X0771D03*
X07769Y00779D03*
X0771D03*
X0116Y012D03*
X01219D03*
X0125Y01709D03*
X01309D03*
X0127Y03581D03*
X01329D03*
X01275Y03318D03*
X01334D03*
X04711Y03788D03*
X04652D03*
X05256Y03502D03*
X05315D03*
X04885Y03366D03*
X04944D03*
X04929Y0342D03*
X0487D03*
X06269D03*
X0621D03*
X0622Y03368D03*
X06279D03*
X06592Y03503D03*
X06651D03*
X06046Y03789D03*
X05987D03*
G54D20*
X03362Y03152D03*
X03468D03*
X03423Y019D03*
X03316D03*
X03418Y01782D03*
X03312D03*
X07406Y0315D03*
X07512D03*
X07468Y01902D03*
X07362D03*
X07468Y01782D03*
X07362D03*
X04827Y01447D03*
X04934D03*
X04827Y01577D03*
X04934D03*
X06163Y01578D03*
X06269D03*
X06163Y01448D03*
X06269D03*
X07512Y03279D03*
X07406D03*
X03468Y0327D03*
X03362D03*
G54D21*
X0349Y0295D03*
X0754D03*
G54D22*
X03415Y02847D03*
X03465D03*
X03515D03*
X03565D03*
X03415Y03052D03*
X03465D03*
X03515D03*
X03565D03*
X07465Y02847D03*
X07515D03*
X07565D03*
X07615D03*
X07465Y03052D03*
X07515D03*
X07565D03*
X07615D03*
G54D23*
X03795Y02665D03*
Y02838D03*
X07845Y02665D03*
Y02838D03*
G54D24*
X03613Y02011D03*
X03516D03*
X03418D03*
X0332D03*
X03223D03*
X03613Y02655D03*
X03516D03*
X03418D03*
X0332D03*
X03223D03*
X07663Y02011D03*
X07566D03*
X07468D03*
X0737D03*
X07273D03*
X07663Y02655D03*
X07566D03*
X07468D03*
X0737D03*
X07273D03*
G54D25*
X0331Y01682D03*
X0342D03*
X0736D03*
X0747D03*
X04825Y01337D03*
X04936D03*
X06161Y01338D03*
X06271D03*
G54D26*
X03648Y03522D03*
X03822D03*
X07698D03*
X07872D03*
G54D27*
X03709Y01999D03*
X03781D03*
X07759D03*
X07831D03*
X0509Y01694D03*
X05162D03*
X06425Y01695D03*
X06497D03*
G54D28*
X03745Y01842D03*
X07795D03*
X05126Y01537D03*
X06461Y01538D03*
G54D29*
X03965Y02424D03*
Y0268D03*
X08015Y02424D03*
Y0268D03*
G54D30*
X04105Y02812D03*
Y02753D03*
X08155Y02812D03*
Y02753D03*
G54D31*
X04025Y03475D03*
Y03309D03*
X08075Y03475D03*
Y03309D03*
X04401Y0345D03*
Y03284D03*
X05736Y03451D03*
Y03285D03*
G54D32*
X03788Y03664D03*
Y03739D03*
X03682Y03664D03*
Y03702D03*
X07838Y03664D03*
Y03739D03*
X07732Y03664D03*
Y03702D03*
G54D33*
X03682Y03739D03*
X07732D03*
G54D34*
X0352Y03102D03*
Y03157D03*
X03845Y03685D03*
Y0374D03*
X0757Y03102D03*
Y03157D03*
X07895Y03685D03*
Y0374D03*
G54D35*
X04329Y02375D03*
Y02524D03*
X05679Y02375D03*
Y02524D03*
G54D36*
X07816Y01379D03*
X07623D03*
X07816Y00609D03*
X07623D03*
G54D37*
X08696Y03951D03*
Y04096D03*
G54D38*
X04399Y03826D03*
Y03653D03*
X05734Y03827D03*
Y03654D03*
G54D39*
X04542Y03687D03*
X04616D03*
X04542Y03793D03*
X04579D03*
X05877Y03687D03*
X05951D03*
X05877Y03794D03*
X05914D03*
G54D40*
X04616Y03793D03*
X05951Y03794D03*
G54D41*
X05338Y0334D03*
X05279D03*
X04879Y031D03*
X0482D03*
X05344Y03422D03*
X05285D03*
X06679Y03423D03*
X0662D03*
X06219Y031D03*
X0616D03*
X06674Y0334D03*
X06615D03*
G54D42*
X05012Y03475D03*
Y03456D03*
Y03436D03*
Y03416D03*
Y03377D03*
Y03338D03*
X05176Y03475D03*
Y03456D03*
Y03436D03*
Y03416D03*
Y03377D03*
Y03338D03*
X06348Y03477D03*
Y03457D03*
Y03437D03*
Y03418D03*
Y03378D03*
Y03339D03*
X06511Y03477D03*
Y03457D03*
Y03437D03*
Y03418D03*
Y03378D03*
Y03339D03*
G54D43*
X04589Y01809D03*
X04707D03*
X04825D03*
X04943D03*
X05061D03*
X05179D03*
X04589Y02853D03*
X04707D03*
X04825D03*
X04943D03*
X05061D03*
X05179D03*
X05924Y01811D03*
X06042D03*
X06161D03*
X06279D03*
X06397D03*
X06515D03*
X05924Y02855D03*
X06042D03*
X06161D03*
X06279D03*
X06397D03*
X06515D03*
G54D44*
X05402Y03119D03*
Y03169D03*
Y03219D03*
Y03269D03*
X05181Y03273D03*
Y0322D03*
Y03168D03*
Y03115D03*
X06737Y0312D03*
Y0317D03*
Y0322D03*
Y0327D03*
X06516Y03274D03*
Y03221D03*
Y03169D03*
Y03116D03*
G54D45*
X05127Y0305D03*
X05041D03*
X06463Y03051D03*
X06376D03*
G54D46*
X01453Y0249D03*
X01627D03*
G54D50*
X00866Y0433D02*
X09529D01*
X00866Y00409D02*
Y04329D01*
Y00407D02*
Y00409D01*
Y00407D02*
X00879Y00393D01*
X06809*
X09529*
Y0433*
M02*