%FSTAX23Y23*%
%MOIN*%
%SFA1B1*%

%IPPOS*%
%AMD61*
4,1,8,-0.030900,0.015500,-0.030900,-0.015500,-0.015500,-0.030900,0.015500,-0.030900,0.030900,-0.015500,0.030900,0.015500,0.015500,0.030900,-0.015500,0.030900,-0.030900,0.015500,0.0*
%
%ADD10R,0.102362X0.043307*%
%ADD17R,0.035433X0.027559*%
%ADD18R,0.031496X0.035433*%
%ADD19R,0.027559X0.035433*%
%ADD20R,0.043307X0.102362*%
%ADD34R,0.035433X0.031496*%
%ADD35R,0.129921X0.055118*%
%ADD36R,0.078740X0.137795*%
%ADD37R,0.085827X0.059842*%
%ADD47C,0.011811*%
%ADD48C,0.009843*%
%ADD49C,0.025197*%
%ADD50C,0.019685*%
%ADD51C,0.011811*%
%ADD52C,0.020079*%
%ADD53C,0.050000*%
%ADD54C,0.031496*%
%ADD56C,0.029527*%
%ADD57C,0.078740*%
%ADD59C,0.059842*%
%ADD60C,0.110236*%
G04~CAMADD=61~4~0.0~0.0~618.1~618.1~0.0~154.5~0~0.0~0.0~0.0~0.0~0~0.0~0.0~0.0~0.0~0~0.0~0.0~0.0~90.0~618.0~618.0*
%ADD61D61*%
%ADD62C,0.062992*%
%ADD63C,0.066929*%
%ADD64C,0.102362*%
%ADD65C,0.035433*%
%ADD66C,0.050000*%
%ADD67C,0.025197*%
%ADD68C,0.029921*%
%ADD69R,0.059055X0.078740*%
%ADD70R,0.149606X0.078740*%
%ADD71R,0.061024X0.129921*%
%ADD72R,0.027953X0.079134*%
%ADD73R,0.048031X0.048031*%
%ADD74O,0.011811X0.070866*%
%ADD75O,0.070866X0.011811*%
%ADD76R,0.055118X0.129921*%
%LNlv1-1*%
%LPD*%
G36*
X08122Y04145D02*
Y04058D01*
X0812Y04057*
X08113Y04052*
X08108Y04045*
X08105Y04037*
X08103Y04029*
X08105Y0402*
X08108Y04012*
X0811Y04009*
X08108Y04004*
X0524*
X05238Y04009*
X0524Y04012*
X05244Y0402*
X05245Y04029*
X05244Y04037*
X0524Y04045*
X05235Y04052*
X05228Y04057*
X0522Y04061*
X05211Y04062*
X05203Y04061*
X052Y04059*
X05172Y04087*
X05168Y0409*
X05162Y0409*
X05158*
X05016Y04233*
X05018Y04237*
X05392*
Y04214*
X05443*
Y04237*
X08029*
X08122Y04145*
G37*
G36*
X05143Y04068D02*
X05148Y04065D01*
X05153Y04064*
X05157*
X05181Y0404*
X05179Y04037*
X05178Y04029*
X05179Y0402*
X05183Y04012*
X05185Y04009*
X05183Y04004*
X02645*
X02531Y04118*
Y04182*
X02466*
X02464Y04187*
X02494Y04216*
X03608*
Y04196*
X03659*
Y04216*
X04995*
X05143Y04068*
G37*
G36*
X09376Y03945D02*
X09372Y03943D01*
X09369Y03945*
X09359Y03949*
X0935Y0395*
X0934Y03949*
X0933Y03945*
X09322Y03939*
X09316Y03931*
X09312Y03922*
X09311Y03912*
X09312Y03902*
X09316Y03892*
X09322Y03885*
X0933Y03879*
X0934Y03875*
X0935Y03874*
X09359Y03875*
X09369Y03879*
X09372Y03881*
X09376Y03879*
Y03845*
X09372Y03843*
X09369Y03845*
X09359Y03849*
X0935Y0385*
X0934Y03849*
X0933Y03845*
X09322Y03839*
X09316Y03831*
X09312Y03822*
X09311Y03812*
X09312Y03802*
X09316Y03792*
X09322Y03785*
X0933Y03779*
X0934Y03775*
X0935Y03774*
X09359Y03775*
X09369Y03779*
X09372Y03781*
X09376Y03779*
Y03745*
X09372Y03743*
X09369Y03745*
X09359Y03749*
X0935Y0375*
X0934Y03749*
X09331Y03745*
X09168*
X0916Y03749*
X09138Y0377*
X09139Y03773*
X0914Y03775*
X0915Y03774*
X09159Y03775*
X09169Y03779*
X09177Y03785*
X09183Y03792*
X09187Y03802*
X09188Y03812*
X09187Y03822*
X09183Y03831*
X09177Y03839*
X09169Y03845*
X09159Y03849*
X0915Y0385*
X0914Y03849*
X0913Y03845*
X09122Y03839*
X09116Y03831*
X09112Y03822*
X09111Y03812*
X09112Y03803*
X09111Y03801*
X09108Y038*
X08914Y03994*
X08907Y03999*
X08899Y04003*
X08891Y04004*
X08165*
X08163Y04009*
X08165Y04012*
X08168Y0402*
X0817Y04029*
X08168Y04037*
X08165Y04045*
X0816Y04052*
X08153Y04057*
X08148Y04059*
Y04151*
X08147Y04155*
X08144Y0416*
X08044Y0426*
X0804Y04262*
X08035Y04264*
X02484*
X02479Y04262*
X02475Y0426*
X02403Y04188*
X02401Y04184*
X024Y04179*
Y04056*
X02355Y04012*
X02114*
X02109Y04011*
X02105Y04008*
X01914Y03817*
X01911Y03812*
X01911Y03808*
Y03796*
X01905Y03792*
X01904Y03793*
X01899Y03792*
X01894Y03788*
X01891Y03784*
X0189Y03779*
Y03763*
X01701*
X01696Y03762*
X01691Y03759*
X0154Y03608*
X01537Y03604*
X01537Y03598*
Y02938*
X01537Y02933*
X0154Y02928*
X01719Y0275*
X01724Y02746*
X01729Y02746*
X02005*
X02295Y02455*
X023Y02452*
X02305Y02451*
X03105*
X03115Y02441*
Y0244*
X03118Y02435*
X03154Y024*
X03153Y02395*
X02899*
X02898Y02396*
X02893Y02403*
X02886Y02408*
X02878Y02412*
X0287Y02412*
X02861Y02412*
X02853Y02408*
X02846Y02403*
X02841Y02396*
X0284Y02395*
X02719*
X02718Y02396*
X02713Y02403*
X02706Y02408*
X02698Y02412*
X0269Y02412*
X02681Y02412*
X02673Y02408*
X02666Y02403*
X02661Y02396*
X0266Y02395*
X02575*
X022Y0202*
X01257*
X01255Y02025*
X01248Y02034*
X01239Y02041*
X01229Y02045*
X01218Y02046*
X01208Y02045*
X01198Y02041*
X01189Y02034*
X01183Y02025*
X0118Y0202*
X01146*
X01144Y02025*
X01148Y02027*
X01153Y02035*
X01157Y02044*
X01159Y02054*
X01157Y02064*
X01153Y02073*
X01148Y02081*
X0114Y02087*
X0113Y02091*
X0112Y02092*
X01111Y02091*
X01105Y02089*
X01044Y02151*
Y02317*
X01126Y024*
X01128Y02401*
X01131Y02406*
X01132Y02411*
Y02633*
X01137Y02635*
X01151Y02621*
X01155Y02618*
X01161Y02617*
X01266*
X01267Y02615*
X01274Y02611*
X01282Y02609*
X0129Y02611*
X01297Y02615*
X01301Y02622*
X01303Y0263*
X01301Y02638*
X01297Y02645*
X0129Y02649*
X01282Y02651*
X01274Y02649*
X01267Y02645*
X01266Y02643*
X01166*
X01146Y02664*
Y02698*
X01098*
Y02687*
X01059*
Y02689*
X01039Y02709*
X01*
X00981Y02689*
Y0265*
X01Y02631*
X01039*
X01059Y0265*
Y02659*
X01098*
Y02647*
X01104*
Y02417*
X01082Y02395*
X0102Y02333*
X01016Y02328*
X01016Y02323*
Y02145*
X01016Y0214*
X0102Y02135*
X01086Y02069*
X01084Y02064*
X01082Y02054*
X01084Y02044*
X01087Y02035*
X01094Y02027*
X01097Y02025*
X01095Y0202*
X00909*
Y02394*
X0091Y02395*
X009*
Y02426*
X00905Y02431*
X00939*
X00959Y0245*
Y02489*
X00939Y02509*
X009*
X009*
Y04305*
X09376*
Y03945*
G37*
G36*
X05938Y03881D02*
X05933Y03878D01*
X05926Y03873*
X05921Y03866*
X05918Y03858*
X05916Y0385*
X05917Y03844*
X05913Y0384*
X05307*
X05302Y03838*
X05298Y03835*
X05297Y03835*
X04638*
X04636Y0384*
X04638Y03843*
X04642Y03851*
X04643Y03859*
X04642Y03868*
X04638Y03876*
X04635Y03881*
X04637Y03885*
X05937*
X05938Y03881*
G37*
G36*
X02386Y03927D02*
X02391Y0392D01*
X02393Y03918*
X02391Y03914*
X023*
X02294Y03912*
X0229Y03909*
X02229Y03848*
X02225Y03844*
X02225Y03838*
Y03797*
X0222Y03793*
X02219*
X02214Y03792*
X02209Y03789*
X02205Y03792*
X02199Y03793*
X02194Y03792*
X02189Y03789*
X02185Y03792*
X02179Y03793*
X02174Y03792*
X0217Y03789*
X02165Y03792*
X0216Y03793*
X02155Y03792*
X0215Y03789*
X02146Y03792*
X0214Y03793*
X02135Y03792*
X0213Y03789*
X02126Y03792*
X0212Y03793*
X02115Y03792*
X02111Y03789*
X02106Y03792*
X02101Y03793*
X02096Y03792*
X02091Y03789*
X02087Y03792*
X02081Y03793*
X02076Y03792*
X02071Y03789*
X02067Y03792*
X02061Y03793*
X02056Y03792*
X02051Y03789*
X02047Y03792*
X02042Y03793*
X02037Y03792*
X02032Y03789*
X02027Y03792*
X02022Y03793*
X02017Y03792*
X02012Y03788*
X02009Y03784*
X02008Y03779*
Y0372*
X02009Y03714*
X02012Y0371*
X02017Y03707*
X02022Y03706*
X02027Y03707*
X02032Y0371*
X02037Y03707*
X02042Y03706*
X02047Y03707*
X02051Y0371*
X02056Y03707*
X02061Y03706*
X02067Y03707*
X02071Y0371*
X02076Y03707*
X02081Y03706*
X02087Y03707*
X02091Y0371*
X02096Y03707*
X02101Y03706*
X02106Y03707*
X02111Y0371*
X02115Y03707*
X0212Y03706*
X02126Y03707*
X0213Y0371*
X02135Y03707*
X0214Y03706*
X02146Y03707*
X0215Y0371*
X02155Y03707*
X0216Y03706*
X02165Y03707*
X0217Y0371*
X02174Y03707*
X02179Y03706*
X02185Y03707*
X02189Y0371*
X02194Y03707*
X02199Y03706*
X02205Y03707*
X02209Y0371*
X02214Y03707*
X02219Y03706*
X02224Y03707*
X02229Y0371*
X02233Y03707*
X02238Y03706*
X02244Y03707*
X02248Y0371*
X02253Y03707*
X02258Y03706*
X02264Y03707*
X02268Y0371*
X02273Y03707*
X02278Y03706*
X02283Y03707*
X02288Y0371*
X02292Y03707*
X02298Y03706*
X02298*
X02303Y03701*
Y03612*
X02304Y03606*
X02307Y03602*
X02339Y0357*
Y0357*
X0234Y03562*
X02345Y03555*
X02351Y0355*
X02359Y03549*
X02368Y0355*
X02374Y03555*
X02379Y03562*
X0238Y0357*
X02379Y03577*
X02374Y03584*
X02368Y03589*
X02359Y0359*
X02359Y0359*
X02331Y03618*
Y03701*
X02337Y03706*
X02337*
X02342Y03707*
X02347Y0371*
X0235Y03714*
X02351Y0372*
Y03749*
Y03781*
X02355Y03784*
X02359*
X02362Y0378*
Y03779*
Y0375*
X02362Y03749*
X02362Y03749*
Y0372*
X02363Y03714*
X02366Y0371*
X02371Y03707*
X02376Y03706*
X02382Y03707*
X02386Y0371*
X02387Y0371*
X02393Y03711*
X02397Y03707*
X024Y03705*
Y03699*
X02398Y03698*
X02395Y03694*
X02394Y03688*
X02395Y03683*
X02398Y03678*
X02395Y03674*
X02394Y03668*
X02395Y03663*
X02398Y03659*
X02395Y03654*
X02394Y03649*
X02395Y03644*
X02398Y03639*
X02395Y03635*
X02394Y03629*
X02395Y03624*
X02398Y03619*
X02395Y03615*
X02394Y03609*
X02395Y03604*
X02398Y036*
X02395Y03595*
X02394Y0359*
X02395Y03585*
X02398Y0358*
X02395Y03575*
X02394Y0357*
X02395Y03565*
X02398Y0356*
X02395Y03556*
X02394Y0355*
X02395Y03545*
X02398Y0354*
X02395Y03536*
X02394Y03531*
X02395Y03525*
X02398Y03521*
X02395Y03516*
X02394Y03511*
X02395Y03506*
X02398Y03501*
X02403Y03498*
X02408Y03497*
X02467*
X02472Y03498*
X02478*
Y03494*
X02525*
Y03518*
X02527Y0352*
X02528Y03527*
Y03583*
X02573Y03627*
X02579Y03626*
X02588Y03627*
X0259Y03629*
X02715Y03504*
Y03305*
X02637Y03226*
X02631Y03229*
Y0329*
X0257*
X02568*
X02565Y03294*
Y03331*
X02514*
Y03328*
X02485*
X02481Y03333*
Y03334*
X0248Y03339*
X02477Y03344*
X0248Y03348*
X02481Y03353*
X0248Y03359*
X02477Y03363*
X0248Y03368*
X02481Y03373*
X0248Y03379*
X02477Y03383*
X0248Y03388*
X02481Y03393*
X0248Y03398*
X02477Y03403*
X0248Y03407*
X02481Y03412*
X0248Y03418*
X02477Y03422*
X0248Y03427*
X02481Y03432*
X0248Y03438*
X02477Y03442*
X0248Y03447*
X02481Y03452*
X0248Y03457*
X02477Y03462*
X0248Y03466*
X02481Y03472*
X0248Y03477*
X02477Y03481*
X02472Y03485*
X02467Y03486*
X02408*
X02403Y03485*
X02398Y03481*
X02395Y03477*
X02394Y03472*
X02395Y03466*
X02398Y03462*
X02395Y03457*
X02394Y03452*
X02395Y03447*
X02398Y03442*
X02395Y03438*
X02394Y03432*
X02395Y03427*
X02398Y03422*
X02395Y03418*
X02394Y03412*
X02395Y03407*
X02398Y03403*
X02395Y03398*
X02394Y03393*
X02395Y03388*
X02398Y03383*
X02395Y03379*
X02394Y03373*
X02395Y03368*
X02398Y03363*
X02395Y03359*
X02394Y03353*
X02395Y03348*
X02398Y03344*
X02395Y03339*
X02394Y03334*
Y03333*
X0239Y03328*
X0209*
X02088Y03331*
X02083Y03334*
X02078Y03335*
X01993*
X01987Y03339*
X01979Y0334*
X01972Y03339*
X01965Y03334*
X0196Y03327*
X01959Y0332*
X0196Y03312*
X01965Y03305*
X01972Y033*
X01979Y03299*
X01987Y033*
X01994Y03305*
X01996Y03307*
X02046*
X02046Y03306*
X02048Y03302*
X02046Y03294*
X02048Y03287*
X0205Y03283*
X02048Y03278*
X01939*
X01938Y03278*
X01932Y03283*
X01924Y03285*
X01916Y03283*
X01909Y03278*
X01905Y03272*
X01903Y03264*
X01905Y03256*
X01909Y03249*
X01913Y03246*
X01914Y0324*
X01891Y03217*
X01886Y03218*
X01885Y03221*
X01883Y03225*
X01885Y0323*
X01887Y03235*
X01885Y03241*
X01883Y03245*
X01885Y0325*
X01887Y03255*
X01885Y03261*
X01883Y03265*
X01885Y0327*
X01887Y03275*
X01885Y0328*
X01883Y03285*
X01885Y03289*
X01887Y03294*
X01885Y033*
X01883Y03304*
X01885Y03309*
X01887Y03314*
X01885Y0332*
X01883Y03324*
X01885Y03329*
X01887Y03334*
X01885Y03339*
X01883Y03344*
X01885Y03348*
X01887Y03353*
X01885Y03359*
X01883Y03363*
X01885Y03368*
X01887Y03373*
X01885Y03379*
X01883Y03383*
X01885Y03388*
X01887Y03393*
X01885Y03398*
X01883Y03403*
X01885Y03407*
X01887Y03412*
X01885Y03418*
X01882Y03422*
X01878Y03425*
X01872Y03427*
X01813*
X01808Y03425*
X01807Y03425*
X01805*
X01801Y03424*
X01796Y03421*
X01789Y03413*
X01785Y03411*
X01734*
X01729Y03411*
X01725Y03415*
X01718Y03421*
X01711Y03424*
X01702Y03425*
X01693Y03424*
X01685Y03421*
X01679Y03415*
X01673Y03409*
X0167Y03401*
X01669Y03392*
X0167Y03383*
X01673Y03375*
X01679Y03368*
X01685Y03363*
X01693Y0336*
X01702Y03359*
X01711Y0336*
X01718Y03363*
X01725Y03368*
X01729Y03373*
X01734Y03372*
Y03363*
X01785*
Y03379*
X01786*
X01791Y0338*
X01794Y03382*
X01798Y03381*
X018Y0338*
X018Y03379*
X018Y03373*
X018Y03368*
X01803Y03363*
X018Y03359*
X018Y03353*
X018Y03348*
X01803Y03344*
X018Y03339*
X018Y03334*
X018Y03329*
X01803Y03324*
X018Y0332*
X018Y03314*
X018Y03309*
X01803Y03304*
X018Y033*
X018Y03294*
X018Y03289*
X01803Y03285*
X018Y0328*
X018Y03275*
X018Y0327*
X01803Y03265*
X018Y03261*
X018Y03255*
X018Y0325*
X01803Y03245*
X018Y03241*
X018Y03235*
X018Y0323*
X01803Y03225*
X018Y03221*
X018Y03216*
X018Y03211*
X01803Y03206*
X01808Y03203*
X01813Y03202*
X01869*
X01871Y03197*
X0174Y03066*
X01737Y03061*
X01737Y03056*
Y03035*
X01735Y03034*
X0173Y03027*
X01729Y0302*
X0173Y03012*
X01735Y03005*
X01742Y03*
X0175Y02999*
X01757Y03*
X01764Y03005*
X01769Y03012*
X0177Y0302*
X01769Y03027*
X01764Y03034*
X01762Y03035*
Y03051*
X01885Y03174*
X0189Y03172*
Y03125*
X01891Y0312*
X01894Y03115*
X01899Y03112*
X01904Y03111*
X01909Y03112*
X01914Y03115*
X01918Y03112*
X01924Y03111*
X01929Y03112*
X01933Y03115*
X01938Y03112*
X01943Y03111*
X01949Y03112*
X01953Y03115*
X01958Y03112*
X01963Y03111*
X01968Y03112*
X01973Y03115*
X01977Y03112*
X01983Y03111*
X01988Y03112*
X01992Y03115*
X01997Y03112*
X02002Y03111*
X02004*
X02009Y03107*
Y03042*
X0201Y03037*
X02013Y03033*
X02485Y0256*
X02489Y02557*
X02494Y02556*
X03111*
X03125Y02543*
X03123Y02538*
X02335*
X02044Y02829*
X0204Y02833*
X02034Y02833*
X01759*
X01624Y02968*
Y03564*
X01695Y03635*
X01733*
X01736Y0363*
X01735Y03628*
X01731Y03627*
X01724Y03623*
X0172Y03616*
X01718Y03608*
X0172Y036*
X01721Y03599*
X01718Y03594*
X01705*
X01704Y03594*
X01698Y03599*
X0169Y036*
X01681Y03599*
X01675Y03594*
X0167Y03587*
X01669Y03579*
X0167Y03572*
X01675Y03565*
X01681Y0356*
X0169Y03559*
X01698Y0356*
X01704Y03565*
X01705Y03566*
X0175*
X01755Y03566*
X01759Y0357*
X01785Y03596*
X01795*
X018Y0359*
Y0359*
X018Y03585*
X01803Y0358*
X018Y03575*
X018Y0357*
X018Y03565*
X01803Y0356*
X018Y03556*
X018Y0355*
X018Y03545*
X01803Y0354*
X018Y03536*
X018Y03531*
X018Y03525*
X01803Y03521*
X018Y03516*
X018Y03511*
X018Y03506*
X01803Y03501*
X018Y03497*
X018Y03491*
X018Y03486*
X01803Y03481*
X018Y03477*
X018Y03472*
X018Y03466*
X01803Y03462*
X018Y03457*
X018Y03452*
X018Y03447*
X01803Y03442*
X01808Y03439*
X01813Y03438*
X01872*
X01878Y03439*
X01882Y03442*
X01885Y03447*
X01887Y03452*
X01885Y03457*
X01883Y03462*
X01885Y03466*
X01887Y03472*
X01885Y03477*
X01883Y03481*
X01885Y03486*
X01887Y03491*
X01885Y03497*
X01883Y03501*
X01885Y03506*
X01887Y03511*
X01885Y03516*
X01883Y03521*
X01885Y03525*
X01887Y03531*
X01885Y03536*
X01883Y0354*
X01885Y03545*
X01887Y0355*
X01885Y03556*
X01883Y0356*
X01885Y03565*
X01887Y0357*
X01885Y03575*
X01883Y0358*
X01885Y03585*
X01887Y0359*
X01885Y03595*
X01883Y036*
X01885Y03604*
X01887Y03609*
X01885Y03615*
X01883Y03619*
X01885Y03624*
X01887Y03629*
X01885Y03635*
X01883Y03639*
X01885Y03644*
X01887Y03649*
X01885Y03654*
X01883Y03659*
X01885Y03663*
X01887Y03668*
X01885Y03674*
X01883Y03678*
X01885Y03683*
X01887Y03688*
X01885Y03694*
X01882Y03698*
X01878Y03701*
X01872Y03702*
X01681*
X01679Y03707*
X01707Y03735*
X0189*
Y0372*
X01891Y03714*
X01894Y0371*
X01899Y03707*
X01904Y03706*
X01909Y03707*
X01914Y0371*
X01918Y03707*
X01924Y03706*
X01929Y03707*
X01933Y0371*
X01938Y03707*
X01943Y03706*
X01949Y03707*
X01953Y0371*
X01958Y03707*
X01963Y03706*
X01968Y03707*
X01973Y0371*
X01977Y03707*
X01983Y03706*
X01988Y03707*
X01992Y0371*
X01996Y03714*
X01997Y0372*
Y03779*
Y0379*
X02137Y0393*
X02385*
X02386Y03927*
G37*
G36*
X02558Y03825D02*
Y03814D01*
X0235*
X02344Y03812*
X0234Y03809*
X02327Y03797*
X02326Y03796*
X02323Y03792*
X02319*
X02317Y03793*
X02313Y03796*
Y03801*
X02338Y03826*
X02554*
X02558Y03825*
G37*
G36*
X02454Y0417D02*
Y04037D01*
X02518*
X02608Y03947*
X02614Y03942*
X02623Y03938*
X02631Y03937*
X08877*
X09112Y03701*
X09116Y03692*
X09122Y03685*
X0913Y03679*
X0914Y03675*
X0915Y03674*
X09159Y03675*
X09168Y03679*
X09331*
X0934Y03675*
X0935Y03674*
X09359Y03675*
X09369Y03679*
X09372Y03681*
X09376Y03679*
Y03545*
X09372Y03543*
X09369Y03545*
X09359Y03549*
X0935Y0355*
X0934Y03549*
X0933Y03545*
X09322Y03539*
X09316Y03531*
X09314Y03525*
X09185*
X09183Y03531*
X09177Y03539*
X09169Y03545*
X09159Y03549*
X0915Y0355*
X0914Y03549*
X0913Y03545*
X09122Y03539*
X09116Y03531*
X09113Y03523*
X09024*
X09019Y03522*
X09015Y03519*
X08348Y02852*
X08345Y02848*
X08344Y02843*
Y02838*
X08332Y02826*
X08329Y02822*
X08329Y02817*
Y02472*
X08251Y02395*
X08243*
Y02462*
X08242Y02465*
X08241Y02468*
X08238Y0247*
X08235Y0247*
X08115*
X08112Y02472*
X08106Y02474*
X081Y02475*
X08093Y02474*
X08087Y02472*
X08084Y0247*
X07935*
X07933Y02472*
X07926Y02474*
X0792Y02475*
X07913Y02474*
X07907Y02472*
X07904Y0247*
X07895*
X07892Y02472*
X07886Y02474*
X07879Y02475*
X07873Y02474*
X07866Y02472*
X07864Y0247*
X07855*
X07852Y02472*
X07846Y02474*
X0784Y02475*
X07833Y02474*
X07827Y02472*
X07824Y0247*
X07815*
X07812Y02472*
X07806Y02474*
X078Y02475*
X07793Y02474*
X07787Y02472*
X07784Y0247*
X07775*
X07772Y02472*
X07766Y02474*
X07759Y02475*
X07753Y02474*
X07747Y02472*
X07744Y0247*
X07735*
X07733Y02472*
X07726Y02474*
X0772Y02475*
X07713Y02474*
X07707Y02472*
X07704Y0247*
X07695*
X07692Y02472*
X07686Y02474*
X07679Y02475*
X07673Y02474*
X07666Y02472*
X07664Y0247*
X07655*
X07652Y02472*
X07646Y02474*
X0764Y02475*
X07633Y02474*
X07627Y02472*
X07624Y0247*
X07615*
X07612Y02472*
X07606Y02474*
X076Y02475*
X07594Y02475*
X07581Y02488*
X07511Y02558*
X07503Y02565*
Y02872*
X07502Y02875*
X07501Y02878*
X07498Y02879*
X07495Y0288*
X07415*
X07412Y02879*
X07409Y02878*
X07408Y02875*
X07407Y02872*
X07407*
X07401Y02868*
X07397Y02862*
X07394Y02856*
X07394Y0285*
X07394Y02843*
X07397Y02837*
X07401Y02831*
Y02828*
X07397Y02822*
X07394Y02816*
X07394Y02809*
X07394Y02803*
X07397Y02797*
X07401Y02791*
Y02788*
X07397Y02783*
X07394Y02776*
X07394Y0277*
X07394Y02763*
X07397Y02757*
X07401Y02751*
Y02748*
X07397Y02742*
X07394Y02736*
X07394Y02729*
X07394Y02723*
X07397Y02716*
X07401Y02711*
Y02708*
X07397Y02702*
X07394Y02696*
X07394Y0269*
X07394Y02683*
X07397Y02677*
X07401Y02671*
Y02668*
X07397Y02662*
X07394Y02656*
X07394Y0265*
X07394Y02643*
X07397Y02637*
X07401Y02631*
Y02628*
X07397Y02622*
X07394Y02616*
X07394Y02609*
X07394Y02603*
X07397Y02597*
X07401Y02591*
X07407Y02587*
X07407Y02587*
Y02395*
X05485*
Y02412*
X05434*
Y02408*
X05429Y02406*
X05428Y02408*
X05422Y02412*
X05416Y02414*
X05409Y02415*
X05403Y02414*
X05397Y02412*
X05391Y02408*
X05387Y02402*
X05385Y02396*
Y02395*
X04188*
X04185Y02399*
Y024*
X04185Y02406*
X04183Y02409*
Y02462*
X04183Y02465*
X04181Y02468*
X04178Y0247*
X04175Y0247*
X03538*
X03521Y02488*
X03451Y02558*
X03443Y02565*
Y02872*
X03442Y02875*
X03441Y02878*
X03438Y02879*
X03435Y0288*
X03355*
X03352Y02879*
X0335Y02878*
X03348Y02875*
X03347Y02872*
Y02852*
X03344Y02846*
X03344Y0284*
X03344Y02833*
X03347Y02827*
Y02812*
X03344Y02806*
X03344Y028*
X03344Y02793*
X03347Y02787*
Y02772*
X03344Y02766*
X03344Y02759*
X03344Y02753*
X03347Y02747*
Y02732*
X03344Y02726*
X03344Y0272*
X03344Y02713*
X03347Y02707*
Y02692*
X03344Y02686*
X03344Y02679*
X03344Y02673*
X03347Y02667*
Y02652*
X03344Y02646*
X03344Y0264*
X03344Y02633*
X03347Y02627*
Y02612*
X03344Y02606*
X03344Y026*
X03344Y02593*
X03347Y02587*
Y02395*
X03333*
X03236Y02491*
Y02492*
X03233Y02496*
X03131Y02599*
X03127Y02601*
X03122Y02603*
X02505*
X02055Y03053*
Y03107*
X0206Y03111*
X02061*
X02067Y03112*
X02071Y03115*
X02076Y03112*
X02081Y03111*
X02087Y03112*
X02091Y03115*
X02096Y03112*
X02101Y03111*
X02106Y03112*
X02111Y03115*
X02115Y03112*
X0212Y03111*
X02126Y03112*
X0213Y03115*
X02135Y03112*
X0214Y03111*
X02146Y03112*
X0215Y03115*
X02155Y03112*
X0216Y03111*
X02165Y03112*
X0217Y03115*
X02174Y03112*
X02179Y03111*
X02185Y03112*
X02189Y03115*
X02194Y03112*
X02196Y03112*
X022Y03107*
Y03106*
X022Y03105*
X02178*
Y03077*
X02177Y03074*
X02175Y03069*
Y03047*
X02168*
Y02952*
X02211*
Y03047*
X02203*
Y03054*
X02222*
Y03081*
X02229Y03088*
X0223*
X02237Y03081*
Y03054*
X02253*
X02255Y03053*
Y03047*
X02247*
Y02952*
X02291*
Y03047*
X02283*
Y03059*
X02282Y03064*
X02281Y03066*
Y03083*
X02285Y03085*
X02298Y03071*
Y03034*
X02307*
Y0301*
X02308Y03005*
X02311Y03001*
X02346Y02965*
X02343Y02958*
X02342Y0295*
X02343Y02941*
X02346Y02933*
X02351Y02926*
X02359Y02921*
X02366Y02918*
X02375Y02916*
X02384Y02918*
X02392Y02921*
X02398Y02926*
X02404Y02933*
X02407Y02941*
X02408Y0295*
X02407Y02957*
X0274Y0329*
X02742Y03294*
X02744Y033*
Y03509*
X02742Y03515*
X0274Y0352*
X02622Y03637*
X02624Y03641*
X0375*
X03753Y03642*
X03757Y03643*
X03759Y03645*
X03762Y03647*
X03764Y0365*
X03766Y03653*
X03795Y03723*
X03798Y03724*
X04558*
Y03697*
X04555Y03692*
X04553Y03683*
X04555Y03674*
X0456Y03666*
X04567Y03661*
X04576Y03659*
X04585Y03661*
X04593Y03666*
X04598Y03674*
X046Y03683*
X04598Y03692*
X04594Y03697*
Y03724*
X05892*
Y03696*
X0589Y03693*
X05888Y03684*
X0589Y03675*
X05895Y03667*
X05903Y03662*
X05911Y03661*
X0592Y03662*
X05928Y03667*
X05933Y03675*
X05935Y03684*
X05933Y03693*
X05929Y037*
Y03724*
X07819*
X07825Y03721*
X07833Y03719*
X07842Y03721*
X0785Y03726*
X07855Y03734*
X07857Y03742*
X07855Y03751*
X0785Y03759*
X07842Y03764*
X07833Y03766*
X07825Y03764*
X07819Y03761*
X04583*
X04583Y03761*
X04575Y03762*
X04568Y03761*
X04568Y03761*
X03798*
X03792Y03764*
X03783Y03766*
X03775Y03764*
X03767Y03759*
X03762Y03751*
X0376Y03742*
X03761Y03737*
X03737Y03678*
X02607*
X02603Y03683*
X026Y03685*
Y03694*
X02605*
Y03745*
X02558*
Y03738*
X02418*
X02393Y03762*
X0239Y03764*
Y03779*
X0239Y03781*
X02394Y03785*
X02558*
Y03774*
X02605*
Y03825*
X0261Y03826*
X03643*
X03649Y03821*
X03648Y03818*
X03646Y03809*
X03648Y03801*
X03651Y03793*
X03656Y03786*
X03663Y03781*
X03671Y03777*
X03679Y03776*
X03688Y03777*
X03696Y03781*
X03703Y03786*
X03708Y03793*
X03712Y03801*
X03712Y03809*
X03712Y03818*
X03708Y03826*
X03703Y03833*
X03696Y03838*
X03689Y03841*
X0369Y03846*
X04494*
X04529Y03811*
X04533Y03808*
X04539Y03807*
X05303*
X05308Y03808*
X05312Y03811*
X05313Y03811*
X05925*
X05931Y03812*
X05935Y03816*
X05938Y03818*
X05941Y03818*
X0595Y03816*
X05958Y03818*
X05966Y03821*
X05973Y03826*
X05978Y03833*
X05981Y03841*
X05983Y0385*
X05981Y03858*
X05978Y03866*
X05973Y03873*
X05966Y03878*
X05961Y03881*
X05961*
X05962Y03885*
X07634*
X07688Y03831*
X07687Y03828*
X07687Y0382*
X07687Y03811*
X07691Y03803*
X07696Y03796*
X07703Y03791*
X07711Y03787*
X0772Y03787*
X07728Y03787*
X07736Y03791*
X07743Y03796*
X07748Y03803*
X07751Y03811*
X07753Y0382*
X07751Y03828*
X07748Y03836*
X07743Y03843*
X07736Y03848*
X07728Y03851*
X0772Y03853*
X07711Y03851*
X07709Y0385*
X0765Y03909*
X07645Y03912*
X0764Y03914*
X02438*
X02436Y03918*
X02438Y0392*
X02443Y03927*
X02446Y03935*
X02448Y03944*
X02446Y03952*
X02443Y0396*
X02438Y03967*
X02431Y03972*
X02423Y03975*
X02414Y03977*
X02406Y03975*
X02398Y03972*
X02398Y03972*
X02394Y03976*
X0244Y04021*
X02443Y04025*
X02444Y04031*
Y04166*
X02449Y04172*
X02454Y0417*
G37*
G36*
X02558Y03694D02*
X02564D01*
Y03688*
X02563Y03688*
X02556Y03683*
X02551Y03676*
X02548Y03668*
X02546Y03659*
X02547Y03653*
X02497Y03603*
X02493Y03597*
X02492Y0359*
Y03545*
X02484*
X02481Y03549*
X02481Y0355*
X0248Y03556*
X02477Y0356*
X0248Y03565*
X02481Y0357*
X0248Y03575*
X02477Y0358*
X0248Y03585*
X02481Y0359*
X0248Y03595*
X02477Y036*
X0248Y03604*
X02481Y03609*
X0248Y03615*
X02477Y03619*
X0248Y03624*
X02481Y03629*
X0248Y03635*
X02477Y03639*
X0248Y03644*
X02481Y03649*
X0248Y03654*
X02477Y03659*
X0248Y03663*
X02481Y03668*
X0248Y03674*
X02477Y03678*
X0248Y03683*
X02481Y03688*
X0248Y03694*
X02478Y03696*
X0248Y03701*
X02558*
Y03694*
G37*
G36*
X09316Y03492D02*
X09322Y03485D01*
X0933Y03479*
X0934Y03475*
X0935Y03474*
X09359Y03475*
X09369Y03479*
X09372Y03481*
X09376Y03479*
Y03445*
X09372Y03443*
X09369Y03445*
X09359Y03449*
X0935Y0345*
X0934Y03449*
X0933Y03445*
X09322Y03439*
X09316Y03431*
X09314Y03425*
X09185*
X09183Y03431*
X09177Y03439*
X09169Y03445*
X09159Y03449*
X0915Y0345*
X0914Y03449*
X0913Y03445*
X09122Y03439*
X09116Y03431*
X09113Y03423*
X08962*
X08961Y03427*
X09029Y03496*
X09115*
X09116Y03492*
X09122Y03485*
X0913Y03479*
X0914Y03475*
X0915Y03474*
X09159Y03475*
X09169Y03479*
X09177Y03485*
X09183Y03492*
X09185Y03499*
X09314*
X09316Y03492*
G37*
G36*
X09116Y03392D02*
X09122Y03385D01*
X0913Y03379*
X0914Y03375*
X09142*
X09141Y0337*
X09025*
Y03381*
X08974*
Y0337*
X08935*
X08933Y03374*
X08955Y03396*
X09115*
X09116Y03392*
G37*
G36*
X09036Y03341D02*
X09035Y03334D01*
X09034Y03334*
X09022Y03322*
X08975*
X08974Y03324*
X08966Y03329*
X08959Y03332*
X0895Y03333*
X08941Y03332*
X08933Y03329*
X08927Y03324*
X08921Y03316*
X08918Y03309*
X08917Y033*
X08918Y03291*
X08921Y03283*
X08925Y03279*
X08922Y03274*
X08866*
X08864Y03278*
X08928Y03342*
X08974*
Y03337*
X09025*
Y03342*
X09035*
X09036Y03341*
G37*
G36*
X09316Y03392D02*
X09322Y03385D01*
X0933Y03379*
X0934Y03375*
X0935Y03374*
X09359Y03375*
X09369Y03379*
X09372Y03381*
X09376Y03379*
Y03245*
X09372Y03243*
X09369Y03245*
X09359Y03249*
X0935Y0325*
X0934Y03249*
X09333Y03246*
X09213Y03365*
X09209Y03368*
X09203Y0337*
X09158*
X09157Y03375*
X09159*
X09169Y03379*
X09177Y03385*
X09183Y03392*
X09185Y03399*
X09314*
X09316Y03392*
G37*
G36*
X09125Y0324D02*
X09122Y03239D01*
X09116Y03231*
X09112Y03222*
X09111Y03212*
X09112Y03202*
X09116Y03192*
X09122Y03185*
X0913Y03179*
X09131*
X09129Y03174*
X09015*
Y03182*
X08964*
Y03174*
X08794*
X08792Y03178*
X0886Y03246*
X08912*
X08915Y0324*
X08911Y03236*
X08908Y03227*
X08907Y03219*
X08908Y03211*
X08911Y03202*
X08916Y03196*
X08924Y0319*
X08931Y03187*
X0894Y03186*
X08949Y03187*
X08957Y0319*
X08963Y03196*
X08965Y03198*
X09015*
Y03241*
X09016Y03246*
X09044*
Y03238*
X09095*
Y03246*
X09123*
X09125Y0324*
G37*
G36*
X02514Y03287D02*
X02562D01*
X02565*
X02568Y03283*
Y03275*
X02565Y03272*
X02514*
Y03228*
X02565*
X02568Y03226*
X02629*
X02631Y03221*
X02389Y02979*
X02384Y02982*
X02375Y02983*
X02367Y02982*
X02333Y03015*
Y03034*
X02342*
Y03072*
X02346Y03074*
X02357Y03062*
Y03034*
X02401*
Y03085*
X02372*
X02349Y03108*
X0235Y0311*
X02352Y03112*
X02357Y03111*
X02362Y03112*
X02366Y03115*
X02371Y03112*
X02376Y03111*
X02382Y03112*
X02386Y03115*
X02389Y0312*
X0239Y03125*
Y03184*
X02389Y0319*
X02386Y03194*
X02382Y03197*
X02376Y03198*
X02371Y03197*
X02366Y03194*
X02362Y03197*
X02357Y03198*
X02351Y03197*
X02347Y03194*
X02342Y03197*
X02337Y03198*
X02332Y03197*
X02327Y03194*
X02323Y03197*
X02317Y03198*
X02316Y03198*
X02311Y03202*
Y03223*
X0231Y03228*
X02307Y03233*
X02294Y03245*
X02296Y0325*
X02388*
X02394Y03251*
X02395Y0325*
Y0325*
X02398Y03245*
X02395Y03241*
X02394Y03235*
X02395Y0323*
X02398Y03225*
X02395Y03221*
X02394Y03216*
X02395Y03211*
X02398Y03206*
X02403Y03203*
X02408Y03202*
X02467*
X02472Y03203*
X02477Y03206*
X0248Y03211*
X02481Y03216*
X0248Y03221*
X02477Y03225*
X0248Y0323*
X02481Y03235*
X0248Y03241*
X02477Y03245*
X0248Y0325*
X02481Y03255*
X0248Y03261*
X02477Y03265*
X0248Y0327*
X02481Y03275*
X0248Y0328*
X02477Y03285*
X0248Y03289*
X02481Y03294*
Y03295*
X02485Y033*
X02514*
Y03287*
G37*
G36*
X02285Y03218D02*
Y03202D01*
X02279Y03198*
X02278Y03198*
X02273Y03197*
X02268Y03194*
X02265Y0319*
X02264Y03184*
Y03125*
X02265Y0312*
Y0311*
X02261Y03105*
X02253*
X02253Y03106*
Y03155*
Y03184*
X02251Y0319*
X02248Y03194*
X02244Y03197*
X02238Y03198*
X02233Y03197*
X02229Y03194*
X02224Y03197*
X02219Y03198*
X02214Y03197*
X02209Y03194*
X02205Y03197*
X02199Y03198*
X02194Y03197*
X02189Y03194*
X02185Y03197*
X02179Y03198*
X02174Y03197*
X0217Y03194*
X02165Y03197*
X0216Y03198*
X02155Y03197*
X0215Y03194*
X02146Y03197*
X0214Y03198*
X02135Y03197*
X0213Y03194*
X02126Y03197*
X0212Y03198*
X02115Y03197*
X02111Y03194*
X02106Y03197*
X02101Y03198*
X02096Y03197*
X02091Y03194*
X02087Y03197*
X02081Y03198*
X02076Y03197*
X02071Y03194*
X02067Y03197*
X02061Y03198*
X02056Y03197*
X02051Y03194*
X02047Y03197*
X02042Y03198*
X02037Y03197*
X02032Y03194*
X02027Y03197*
X02022Y03198*
X02017Y03197*
X02012Y03194*
X02008Y03197*
X02002Y03198*
X01997Y03197*
X01992Y03194*
X01988Y03197*
X01983Y03198*
X01977Y03197*
X01973Y03194*
X01968Y03197*
X01963Y03198*
X01958Y03197*
X01953Y03194*
X01949Y03197*
X01943Y03198*
X01938Y03197*
X01933Y03194*
X01929Y03197*
X01924Y03198*
X01918Y03197*
X01918*
X01916Y03198*
X01916Y03204*
X01937Y03225*
X02242*
X02248Y03226*
X02252Y03229*
X02255Y03232*
X0227*
X02285Y03218*
G37*
G36*
X09314Y03225D02*
X09312Y03222D01*
X09311Y03212*
X09312Y03202*
X09316Y03192*
X09322Y03185*
X0933Y03179*
X0934Y03175*
X0935Y03174*
X09359Y03175*
X09369Y03179*
X09372Y03181*
X09376Y03179*
Y03145*
X09372Y03143*
X09369Y03145*
X09359Y03149*
X0935Y0315*
X0934Y03149*
X09333Y03146*
X09209Y0327*
X09205Y03272*
X092Y03274*
X09095*
Y03282*
X09048*
X09046Y03287*
X09057Y03298*
X09095*
Y03341*
X091Y03342*
X09198*
X09314Y03225*
G37*
G36*
X09312Y03017D02*
X09311Y03012D01*
X09312Y03002*
X09316Y02992*
X09322Y02985*
X0933Y02979*
X0934Y02975*
X0935Y02974*
X09359Y02975*
X09369Y02979*
X09372Y02981*
X09376Y02979*
Y02945*
X09372Y02943*
X09369Y02945*
X09359Y02949*
X0935Y0295*
X09349*
X09329Y0297*
X09325Y02972*
X0932Y02974*
X0917*
X09168Y02979*
X09169*
X09177Y02985*
X09183Y02992*
X09187Y03002*
X09188Y03012*
X09187Y03022*
X09183Y03031*
X09177Y03039*
X09169Y03045*
X09159Y03049*
X0915Y0305*
X0914Y03049*
X0913Y03045*
X09122Y03039*
X09116Y03031*
X09112Y03022*
X09111Y03012*
X09112Y03002*
X09116Y02992*
X09122Y02985*
X0913Y02979*
X09131*
X09129Y02974*
X09065*
X08959Y03079*
X08955Y03083*
X0895Y03083*
X08823*
X08822Y03088*
X08827Y0309*
X08833Y03096*
X08835Y03098*
X08894*
Y03098*
X08945*
Y03141*
X08946Y03146*
X08964*
Y03138*
X09015*
Y03146*
X09123*
X09125Y0314*
X09122Y03139*
X09116Y03131*
X09112Y03122*
X09111Y03112*
X09112Y03103*
X09112Y03101*
X09109Y03098*
X09077*
X09073Y03103*
X09066Y03108*
X09058Y03112*
X0905Y03112*
X09041Y03112*
X09033Y03108*
X09026Y03103*
X09021Y03096*
X09018Y03088*
X09016Y03079*
X09018Y03071*
X09021Y03063*
X09026Y03056*
X09033Y03051*
X09041Y03048*
X0905Y03046*
X09058Y03048*
X09066Y03051*
X09073Y03056*
X09077Y03061*
X0912*
X09127Y03062*
X09133Y03066*
X0914Y03075*
X0915Y03074*
X09159Y03075*
X09169Y03079*
X09177Y03085*
X09183Y03092*
X09187Y03102*
X09188Y03112*
X09187Y03122*
X09183Y03131*
X09177Y03139*
X09174Y0314*
X09176Y03146*
X09184*
X09312Y03017*
G37*
G36*
X09314Y03125D02*
X09312Y03122D01*
X09311Y03112*
X09312Y03102*
X09316Y03092*
X09322Y03085*
X0933Y03079*
X0934Y03075*
X0935Y03074*
X09359Y03075*
X09369Y03079*
X09372Y03081*
X09376Y03079*
Y03045*
X09372Y03043*
X09369Y03045*
X09359Y03049*
X0935Y0305*
X0934Y03049*
X0933Y03045*
X09327Y03042*
X092Y0317*
X09195Y03172*
X0919Y03174*
X0917*
X09168Y03179*
X09169*
X09177Y03185*
X09183Y03192*
X09187Y03202*
X09188Y03212*
X09187Y03222*
X09183Y03231*
X09177Y03239*
X09174Y0324*
X09176Y03246*
X09194*
X09314Y03125*
G37*
G36*
X08894Y03038D02*
X08945D01*
Y03048*
X0895Y0305*
X09043Y02956*
X09041Y02951*
X09041*
X09033Y02948*
X09026Y02943*
X09021Y02936*
X09018Y02928*
X09016Y0292*
X09018Y02911*
X09021Y02903*
X09026Y02896*
X09033Y02891*
X09041Y02887*
X0905Y02887*
X09058Y02887*
X09066Y02891*
X09073Y02896*
X09077Y02901*
X09113*
X09116Y02892*
X09122Y02885*
X0913Y02879*
X0914Y02875*
X0915Y02874*
X09159Y02875*
X09169Y02879*
X09177Y02885*
X09183Y02892*
X09187Y02902*
X09188Y02912*
X09187Y02922*
X09183Y02931*
X09177Y02939*
X09174Y0294*
X09176Y02946*
X09314*
X09322Y02938*
X09316Y02931*
X09312Y02922*
X09311Y02912*
X09312Y02902*
X09316Y02892*
X09322Y02885*
X0933Y02879*
X0934Y02875*
X0935Y02874*
X09359Y02875*
X09369Y02879*
X09372Y02881*
X09376Y02879*
Y02845*
X09372Y02843*
X09369Y02845*
X09359Y02849*
X0935Y0285*
X0934Y02849*
X0933Y02845*
X09322Y02839*
X09316Y02831*
X09312Y02822*
X09311Y02812*
X09312Y02802*
X09316Y02792*
X09322Y02785*
X0933Y02779*
X0934Y02775*
X0935Y02774*
X09359Y02775*
X09369Y02779*
X09372Y02781*
X09376Y02779*
Y02745*
X09372Y02743*
X09369Y02745*
X09359Y02749*
X0935Y0275*
X0934Y02749*
X0933Y02745*
X09322Y02739*
X09316Y02731*
X09312Y02722*
X09311Y02712*
X09312Y02702*
X09316Y02692*
X09322Y02685*
X0933Y02679*
X0934Y02675*
X0935Y02674*
X09359Y02675*
X09369Y02679*
X09372Y02681*
X09376Y02679*
Y02545*
X09372Y02543*
X09369Y02545*
X09359Y02549*
X0935Y0255*
X0934Y02549*
X0933Y02545*
X09322Y02539*
X09316Y02531*
X09312Y02522*
X09311Y02512*
X09312Y02502*
X09316Y02492*
X09322Y02485*
X0933Y02479*
X0934Y02475*
X0935Y02474*
X09359Y02475*
X09369Y02479*
X09372Y02481*
X09376Y02479*
Y02445*
X09372Y02443*
X09369Y02445*
X09359Y02449*
X0935Y0245*
X0934Y02449*
X09337Y02448*
X09308Y02477*
X09302Y02481*
X09295Y02482*
X09093*
X09088Y02488*
X09082Y02494*
X09074Y02497*
X09065Y02498*
X09057Y02497*
X09048Y02494*
X09042Y02488*
X09036Y02482*
X09033Y02474*
X09032Y02465*
X09033Y02457*
X09036Y02448*
X09042Y02442*
X09048Y02436*
X09057Y02433*
X09065Y02432*
X09074Y02433*
X09082Y02436*
X09088Y02442*
X09092Y02446*
X09288*
X09312Y02421*
X09311Y02412*
X09312Y02402*
X09314Y02399*
X09316Y02392*
X09322Y02385*
X0933Y02379*
X0934Y02375*
X0935Y02374*
X09359Y02375*
X09369Y02379*
X09374Y02383*
X09379Y02381*
Y02343*
X09374Y0234*
X09369Y02345*
X09359Y02349*
X0935Y0235*
X0934Y02349*
X0933Y02345*
X09322Y02339*
X09316Y02331*
X09312Y02322*
X09311Y02312*
X09312Y02302*
X09316Y02292*
X09322Y02285*
X0933Y02279*
X0934Y02275*
X0935Y02274*
X09359Y02275*
X09369Y02279*
X09374Y02283*
X09379Y02281*
Y02243*
X09374Y0224*
X09369Y02245*
X09359Y02249*
X0935Y0225*
X0934Y02249*
X09337Y02248*
X09312Y02272*
X09307Y02276*
X093Y02278*
X0917*
X09169*
X09122*
X09094Y02305*
X09095Y02312*
X09094Y02321*
X09091Y02329*
X09085Y02335*
X09079Y02341*
X09071Y02344*
X09062Y02345*
X09053Y02344*
X09046Y02341*
X09038Y02335*
X09033Y02329*
X0903Y02321*
X09029Y02312*
X0903Y02303*
X09033Y02296*
X09038Y02288*
X09046Y02283*
X09053Y0228*
X09062Y02279*
X09068Y0228*
X09101Y02247*
X09107Y02243*
X09114Y02241*
X09118*
X09121Y02237*
X09116Y02231*
X09112Y02222*
X09111Y02212*
X09112Y02202*
X09116Y02192*
X09122Y02185*
X0913Y02179*
X0914Y02175*
X0915Y02174*
X09159Y02175*
X09169Y02179*
X09177Y02185*
X09183Y02192*
X09187Y02202*
X09188Y02212*
X09187Y02222*
X09183Y02231*
X09178Y02236*
X09181Y02241*
X09292*
X09312Y02221*
X09311Y02212*
X09312Y02202*
X09316Y02192*
X09322Y02185*
X0933Y02179*
X0934Y02175*
X0935Y02174*
X09359Y02175*
X09369Y02179*
X09374Y02183*
X09379Y02181*
Y02143*
X09374Y0214*
X09369Y02145*
X09359Y02149*
X0935Y0215*
X0934Y02149*
X0933Y02145*
X09322Y02139*
X09316Y02131*
X09312Y02122*
X09311Y02112*
X09312Y02102*
X09316Y02092*
X09322Y02085*
X0933Y02079*
X0934Y02075*
X0935Y02074*
X09359Y02075*
X09369Y02079*
X09374Y02083*
X09379Y02081*
Y01979*
X0827*
Y021*
X082*
Y0224*
X0827*
X08279*
X08285Y02241*
X08289Y02244*
X08445Y024*
X08463Y02418*
X08466Y02422*
X08467Y02428*
Y02797*
X08725Y03055*
X08894*
Y03038*
G37*
G36*
X07495Y02562D02*
X07505Y02552D01*
X07575Y02482*
X07595Y02462*
X08235*
Y02382*
X07415*
Y02872*
X07495*
Y02562*
G37*
G36*
X03435D02*
X03445Y02552D01*
X03515Y02482*
X03535Y02462*
X04175*
Y02382*
X03355*
Y02872*
X03435*
Y02562*
G37*
G36*
X0329Y0225D02*
X03304D01*
X0331Y02244*
X03314Y02241*
X0332Y0224*
X0339*
Y0215*
X0299*
Y0229*
X0325*
X0329Y0225*
G37*
G36*
X03345Y0134D02*
X02985D01*
Y02129*
X03345*
Y0134*
G37*
G36*
X08084Y01505D02*
X08608D01*
X0861Y015*
X0842Y01309*
X07791*
Y01313*
Y01315*
X07748*
Y01313*
Y01309*
X07732*
Y01313*
Y01315*
X07688*
Y01313*
Y01309*
X0767*
Y01313*
X07479*
Y0224*
X08084*
Y01505*
G37*
G36*
X04025Y013D02*
X0339D01*
Y0224*
X04025*
Y013*
G37*
G36*
X06681Y01293D02*
X06246D01*
Y01876*
X06681*
Y01293*
G37*
G36*
X06186Y01294D02*
X05608Y01293D01*
X05605Y01296*
Y02059*
X06186*
Y01294*
G37*
G36*
X0885Y01436D02*
X08623Y01209D01*
X08625Y01205*
X0842Y01*
X07779*
Y01213*
X07784Y01215*
X0779Y01209*
X08422*
X08421Y01211*
X08659Y0145*
X0885*
Y01436*
G37*
G36*
X0739Y01229D02*
X0767D01*
Y01*
X0739*
Y00998*
X07019*
Y0224*
X0739*
Y01229*
G37*
G36*
X0939Y0134D02*
Y01309D01*
Y0117*
X0892*
X08509Y00759*
X08301*
X083Y0076*
Y00779*
X07779*
Y00959*
X0842*
X08809Y0135*
X09379*
X0939Y0134*
G37*
G36*
X05346Y00959D02*
X0767D01*
Y0074*
X07666Y00737*
X05346Y0074*
Y0074*
X04911*
Y00741*
X04909*
Y00959*
X04911*
Y01875*
X05346*
Y00959*
G37*
G36*
X0939Y01129D02*
Y01109D01*
Y0097*
X09109*
X086Y00459*
X08312*
X08309Y00462*
Y00654*
X08504*
X08509Y00659*
X09Y0115*
X0937*
X0939Y01129*
G37*
G36*
X04851Y00659D02*
X07688D01*
Y00654*
X07732*
Y00659*
X07748*
Y00654*
X07791*
Y00659*
X08306*
X08309Y00656*
Y00462*
X08306Y00459*
X04851Y00461*
Y0046*
X04273Y00459*
X04272Y00461*
X0427*
Y00463*
Y02079*
X04851*
Y00659*
G37*
%LNlv1-2*%
%LPC*%
G36*
X02365Y04182D02*
X02288D01*
Y04123*
X018*
Y0413*
X01699*
Y04123*
X01559*
X01551Y04122*
X01543Y04118*
X01536Y04113*
X01416Y03993*
X01411Y03986*
X01407Y03978*
X01406Y0397*
Y024*
Y02305*
X01407Y02296*
X01411Y02288*
X01416Y02281*
X01423Y02276*
X01431Y02272*
X0144Y02271*
X01588*
Y02248*
X01594*
Y02203*
X01645*
Y02248*
X01663*
Y02329*
X01677*
Y02254*
X01678Y02251*
X01679Y02249*
Y02248*
X0168*
X01682Y02247*
X01685Y02246*
X01745*
X01748Y02247*
X0175Y02248*
X01754*
Y02252*
X01755Y02253*
X01757Y02255*
X01757Y02259*
Y02329*
X0177*
X01773Y02329*
X01775Y02331*
X01777Y02334*
X01777Y02335*
X01837*
X01837Y02334*
X01839Y02331*
X01842Y02329*
X01844Y02329*
X021*
X02103Y02329*
X02105Y02331*
X02107Y02334*
X02107Y02337*
Y024*
Y026*
X02107Y02603*
X02105Y02605*
X02103Y02607*
X021Y02607*
X0159*
X01587Y02607*
X01584Y02605*
X01581Y02602*
X01579Y026*
X01579Y02597*
Y024*
Y02347*
Y02346*
X01577Y02343*
X01575Y02342*
X01575*
X0157Y02343*
X01561Y02342*
X01553Y02338*
X01552Y02338*
X01473*
Y02395*
Y03956*
X01573Y04056*
X01699*
Y04054*
X018*
Y04056*
X02288*
Y04037*
X02365*
Y04182*
G37*
G36*
X01006Y04175D02*
X00994Y04174D01*
X00982Y0417*
X00971Y04164*
X00961Y04156*
X00953Y04147*
X00948Y04136*
X00944Y04124*
X00943Y04111*
X00944Y04099*
X00948Y04087*
X00953Y04076*
X00961Y04067*
X00971Y04059*
X00982Y04053*
X00994Y0405*
X01006Y04048*
X01018Y0405*
X01031Y04053*
X01041Y04059*
X01051Y04067*
X01059Y04076*
X01065Y04087*
X01068Y04099*
X0107Y04111*
X01068Y04124*
X01065Y04136*
X01059Y04147*
X01051Y04156*
X01041Y04164*
X01031Y0417*
X01018Y04174*
X01006Y04175*
G37*
G36*
X0915Y0395D02*
X0914Y03949D01*
X0913Y03945*
X09122Y03939*
X09116Y03931*
X09112Y03922*
X09111Y03912*
X09112Y03902*
X09116Y03892*
X09122Y03885*
X0913Y03879*
X0914Y03875*
X0915Y03874*
X09159Y03875*
X09169Y03879*
X09177Y03885*
X09183Y03892*
X09187Y03902*
X09188Y03912*
X09187Y03922*
X09183Y03931*
X09177Y03939*
X09169Y03945*
X09159Y03949*
X0915Y0395*
G37*
G36*
X00981Y03869D02*
X0097Y03868D01*
X00961Y03864*
X00953Y03858*
X00946Y0385*
X00942Y0384*
X00941Y03829*
X00942Y03819*
X00946Y0381*
X00953Y03801*
X00961Y03795*
X0097Y03791*
X00981Y0379*
X00991Y03791*
X01001Y03795*
X01009Y03801*
X01015Y0381*
X01019Y03819*
X0102Y03829*
X01019Y0384*
X01015Y0385*
X01009Y03858*
X01001Y03864*
X00991Y03868*
X00981Y03869*
G37*
G36*
Y03619D02*
X0097Y03618D01*
X00961Y03614*
X00953Y03608*
X00946Y036*
X00942Y0359*
X00941Y03579*
X00942Y03569*
X00946Y0356*
X00953Y03551*
X00961Y03545*
X0097Y03541*
X00981Y0354*
X00991Y03541*
X01001Y03545*
X01009Y03551*
X01015Y0356*
X01019Y03569*
X0102Y03579*
X01019Y0359*
X01015Y036*
X01009Y03608*
X01001Y03614*
X00991Y03618*
X00981Y03619*
G37*
G36*
Y03519D02*
X0097Y03518D01*
X00961Y03514*
X00953Y03508*
X00946Y035*
X00942Y0349*
X00941Y03479*
X00942Y03469*
X00946Y0346*
X00953Y03451*
X00961Y03445*
X0097Y03441*
X00981Y0344*
X00991Y03441*
X01001Y03445*
X01009Y03451*
X01015Y0346*
X01019Y03469*
X0102Y03479*
X01019Y0349*
X01015Y035*
X01009Y03508*
X01001Y03514*
X00991Y03518*
X00981Y03519*
G37*
G36*
X01329Y03563D02*
X0132Y03562D01*
X01312Y03559*
X01305Y03553*
X013Y03547*
X01297Y03538*
X01296Y0353*
X01297Y03522*
X013Y03513*
X01305Y03507*
X01308Y03505*
Y0339*
X01305Y03387*
X01302Y03379*
X01301Y0337*
X01302Y03361*
X01305Y03353*
X01311Y03346*
X01318Y03341*
X01325Y03338*
X01334Y03337*
X01342Y03338*
X01351Y03341*
X01357Y03346*
X01363Y03353*
X01366Y03361*
X01367Y0337*
X01366Y03379*
X01363Y03387*
X01357Y03394*
X01351Y03399*
X0135Y03399*
Y03505*
X01353Y03507*
X01358Y03513*
X01361Y03522*
X01362Y0353*
X01361Y03538*
X01358Y03547*
X01353Y03553*
X01346Y03559*
X01338Y03562*
X01329Y03563*
G37*
G36*
X00981Y03359D02*
X0097Y03358D01*
X00961Y03354*
X00953Y03348*
X00946Y03339*
X00942Y0333*
X00941Y0332*
X00942Y03309*
X00946Y033*
X00953Y03291*
X00961Y03285*
X0097Y03281*
X00981Y0328*
X00991Y03281*
X01001Y03285*
X01009Y03291*
X01015Y033*
X01019Y03309*
X0102Y0332*
X01019Y0333*
X01015Y03339*
X01009Y03348*
X01001Y03354*
X00991Y03358*
X00981Y03359*
G37*
G36*
Y03259D02*
X0097Y03258D01*
X00961Y03254*
X00953Y03248*
X00946Y03239*
X00942Y0323*
X00941Y0322*
X00942Y03209*
X00946Y032*
X00953Y03191*
X00961Y03185*
X0097Y03181*
X00981Y0318*
X00991Y03181*
X01001Y03185*
X01009Y03191*
X01015Y032*
X01019Y03209*
X0102Y0322*
X01019Y0323*
X01015Y03239*
X01009Y03248*
X01001Y03254*
X00991Y03258*
X00981Y03259*
G37*
G36*
X01039Y02909D02*
X01D01*
X00981Y02889*
Y0285*
X01Y02831*
X01039*
X01059Y0285*
Y02889*
X01039Y02909*
G37*
G36*
Y02809D02*
X01D01*
X00981Y02789*
Y0275*
X01Y02731*
X01039*
X01059Y0275*
Y02789*
X01039Y02809*
G37*
G36*
Y02609D02*
X01D01*
X00981Y02589*
Y0255*
X01Y02531*
X01039*
X01059Y0255*
Y02589*
X01039Y02609*
G37*
G36*
Y02509D02*
X01D01*
X00981Y02489*
Y0245*
X01Y02431*
X01039*
X01059Y0245*
Y02489*
X01039Y02509*
G37*
G36*
X01218Y02322D02*
X01208Y02321D01*
X01198Y02317*
X01189Y0231*
X01183Y02301*
X01178Y02292*
X01177Y02281*
X01178Y0227*
X01183Y0226*
X01189Y02251*
X01198Y02244*
X01208Y0224*
X01218Y02239*
X01229Y0224*
X01239Y02244*
X01248Y02251*
X01255Y0226*
X01259Y0227*
X0126Y02281*
X01259Y02292*
X01255Y02301*
X01248Y0231*
X01239Y02317*
X01229Y02321*
X01218Y02322*
G37*
G36*
X06579Y03604D02*
X06573Y03603D01*
X06566Y03601*
X06561Y03597*
X06557Y03591*
X06555Y03585*
X06553Y03578*
X06555Y03572*
X06557Y03566*
X06561Y0356*
X06566Y03556*
Y03409*
X06563Y03409*
X06557Y03406*
X06551Y03402*
X06547Y03396*
X06544Y0339*
X06544Y03383*
X06544Y03377*
X06547Y0337*
X06551Y03365*
X06557Y03361*
X06563Y03359*
X06569Y03358*
X06576Y03359*
X06582Y03361*
X06588Y03365*
X06592Y0337*
X06594Y03377*
X06595Y03383*
X06594Y0339*
X06594Y03392*
X06592Y03394*
Y03556*
X06598Y0356*
X06602Y03566*
X06604Y03572*
X06605Y03578*
X06604Y03585*
X06602Y03591*
X06598Y03597*
X06592Y03601*
X06586Y03603*
X06579Y03604*
G37*
G36*
X05244Y03603D02*
X05237Y03602D01*
X05231Y036*
X05226Y03596*
X05222Y0359*
X05219Y03584*
X05218Y03577*
X05219Y03571*
X05222Y03564*
X05226Y03559*
X05231Y03555*
Y03408*
X05227Y03407*
X05221Y03405*
X05216Y03401*
X05212Y03395*
X05209Y03389*
X05208Y03382*
X05209Y03375*
X05212Y0337*
X05216Y03364*
X05221Y0336*
X05227Y03357*
X05234Y03357*
X05241Y03357*
X05247Y0336*
X05252Y03364*
X05257Y0337*
X05259Y03375*
X0526Y03382*
X05259Y03389*
X05257Y03393*
Y03555*
X05262Y03559*
X05266Y03564*
X05269Y03571*
X0527Y03577*
X05269Y03584*
X05266Y0359*
X05262Y03596*
X05257Y036*
X05251Y03602*
X05244Y03603*
G37*
G36*
X0554Y03245D02*
X05534Y03244D01*
X05505*
X055Y03245*
X05494Y03244*
X05375*
X05372Y03244*
X0537Y03242*
X05368Y0324*
X05367Y03237*
Y0304*
X05368Y03037*
X0537Y03035*
X05372Y03033*
X05375Y03032*
X05559*
X05562Y03033*
X05565Y03035*
X05567Y03037*
X05567Y0304*
Y03237*
X05567Y0324*
X05565Y03242*
X05562Y03244*
X05559Y03244*
X05545*
X0554Y03245*
G37*
G36*
X06176Y03198D02*
X05879D01*
X05876Y03197*
X05874Y03195*
X05872Y03192*
X05872Y0319*
Y03073*
X05872Y0307*
X05874Y03068*
X05876Y03066*
X05879Y03065*
X05901*
X05903Y03064*
X05909Y03064*
X05916Y03064*
X05918Y03065*
X06177*
X0618Y03066*
X06183Y03066*
X06183Y03067*
X06185Y03068*
X06187Y03071*
X06188Y03074*
Y03186*
X06187Y03189*
X06185Y03192*
X06182Y03195*
X06179Y03197*
X06176Y03198*
G37*
G36*
X04846D02*
X0455D01*
X04546Y03197*
X04544Y03195*
X04542Y03192*
X04542Y0319*
Y03073*
X04542Y0307*
X04544Y03068*
X04546Y03066*
X0455Y03065*
X04562*
X04563Y03064*
X0457Y03064*
X04576Y03064*
X04577Y03065*
X04847*
X0485Y03066*
X04853Y03066*
X04853Y03067*
X04855Y03068*
X04857Y03071*
X04857Y03074*
Y03186*
X04857Y03189*
X04855Y03192*
X04851Y03195*
X04849Y03197*
X04846Y03198*
G37*
G36*
X06418Y03306D02*
X0641Y03305D01*
X06402Y03301*
X06395Y03296*
X0639Y03289*
X06387Y03281*
X06385Y03274*
X0634Y03228*
X06335Y0322*
X06333Y03211*
Y02987*
X06332Y02985*
X06328Y02977*
X06327Y02968*
X06328Y0296*
X06332Y02952*
X06337Y02945*
X06344Y0294*
X06352Y02937*
X06361Y02935*
X06369Y02937*
X06375Y02939*
X06379Y02936*
Y02922*
X06375Y02918*
X0637*
X06366Y02917*
X06364Y02915*
X06362Y02912*
X06361Y02909*
Y0279*
X06362Y02787*
X06364Y02784*
X06366Y02782*
X0637Y02781*
X06629*
X06633Y02782*
X06635Y02784*
X06669Y02818*
X0667Y02819*
X0667Y0282*
X06671Y0282*
Y0282*
X06671Y02822*
X06672Y02822*
Y02824*
X06674Y02828*
X06676Y02832*
X0668Y02835*
X06684Y02837*
X06686Y02837*
X06687Y02837*
X06688*
X06688Y02838*
X06689*
X0669Y02838*
X0669Y02839*
X06695Y02844*
X06697Y02846*
X06697Y02849*
Y03035*
X067Y03037*
X06702Y03037*
X06704Y03036*
X06707Y03035*
X06871*
X06873Y03035*
X06879Y03034*
X06886Y03035*
X06888Y03035*
X06892*
X06895Y03036*
X06897Y03038*
X06899Y0304*
X069Y03043*
Y03044*
X06902Y03047*
X06905Y03053*
X06905Y03059*
X06905Y03066*
X06902Y03072*
X069Y03075*
Y03084*
X06902Y03087*
X06905Y03093*
X06905Y031*
X06905Y03106*
X06902Y03112*
X069Y03115*
Y03124*
X06902Y03127*
X06905Y03133*
X06905Y0314*
X06905Y03146*
X06902Y03152*
X069Y03155*
Y03164*
X06902Y03166*
X06905Y03173*
X06905Y03179*
X06905Y03186*
X06902Y03192*
X069Y03194*
X069Y03196*
Y03203*
X06902Y03207*
X06905Y03213*
X06905Y0322*
X06905Y03226*
X06902Y03233*
X069Y03235*
Y0324*
X06899Y03242*
X06897Y03245*
X06895Y03247*
X06892Y03248*
X06707*
X06704Y03247*
X06702Y03246*
X067Y03246*
X06697Y03247*
Y03285*
X06697Y03288*
X06695Y0329*
X06692Y03292*
X06689Y03292*
X06485*
X06482Y03292*
X0648Y0329*
X06456Y03266*
X06451Y03268*
X06451Y03273*
X0645Y03281*
X06447Y03289*
X06442Y03296*
X06435Y03301*
X06427Y03305*
X06418Y03306*
G37*
G36*
X05083Y03305D02*
X05075Y03303D01*
X05066Y033*
X0506Y03295*
X05054Y03288*
X05051Y0328*
X0505Y03273*
X05005Y03227*
X05Y03219*
X04998Y0321*
Y02985*
X04996Y02984*
X04993Y02976*
X04992Y02968*
X04993Y02959*
X04996Y02951*
X05002Y02944*
X05009Y02939*
X05016Y02935*
X05025Y02934*
X05034Y02935*
X05035Y02936*
X0504Y02933*
Y02922*
X05036Y0292*
X05034*
X05031Y02919*
X05029Y02917*
X05027Y02914*
X05026Y02912*
Y02792*
X05027Y02788*
X05029Y02786*
X05031Y02784*
X05034Y02783*
X05294*
X05297Y02784*
X053Y02786*
X05329Y02815*
X05329Y02816*
X0533Y02816*
Y02817*
X05331Y02817*
Y02818*
X05331Y02819*
X05332Y02824*
X05333Y02828*
X05336Y02832*
X0534Y02835*
X05344Y02837*
X05349Y02837*
X0535Y02838*
X05351*
X05351Y02838*
X05352*
X05353Y02839*
X05353Y0284*
X0536Y02846*
X05361Y02848*
X05362Y02851*
Y03287*
X05361Y0329*
X0536Y03292*
X05357Y03294*
X05354Y03294*
X0515*
X05147Y03294*
X05144Y03292*
X05121Y03269*
X05116Y03271*
X05116Y03272*
X05115Y0328*
X05112Y03288*
X05107Y03295*
X051Y033*
X05092Y03303*
X05083Y03305*
G37*
G36*
X04175Y034D02*
X03445D01*
X03442Y034*
X03439Y03398*
X03438Y03395*
X03437Y03392*
Y03329*
X03433*
Y03211*
Y03209*
Y0309*
X03437*
Y03032*
X03438Y03029*
X03439Y03026*
X03442Y03025*
X03445Y03024*
X03509*
X03512Y03025*
X03514Y03026*
X03516Y03029*
X03517Y03032*
Y03174*
Y03175*
Y03175*
X03516Y03176*
X03516Y03177*
Y03177*
X03516Y03178*
X03515Y03179*
X03514Y0318*
X03514*
X03514Y0318*
X03512Y03182*
X03508Y03187*
X03505Y03193*
X03505Y032*
X03505Y03206*
X03508Y03212*
X03512Y03217*
X03517Y03221*
X03523Y03224*
X03529Y03225*
X03536Y03224*
X03542Y03221*
X03547Y03217*
X03551Y03212*
X03554Y03206*
X03555Y032*
X03554Y03193*
X03551Y03187*
X03547Y03182*
X03546Y0318*
X03545Y0318*
X03545*
X03544Y03179*
X03543Y03178*
Y03177*
X03543Y03177*
Y03176*
X03542Y03175*
Y03175*
Y03174*
Y03032*
X03543Y03029*
X03545Y03026*
X03547Y03025*
X0355Y03024*
X03607*
Y02622*
X03608Y02619*
X03609Y02616*
X03612Y02614*
X03615Y02614*
X03645*
X03646*
X03646*
X03647Y02614*
X03648*
X03649Y02615*
X03649Y02615*
X0365Y02616*
X03651Y02616*
X03651Y02617*
X03651Y02617*
X03719Y02712*
X03722Y02716*
X03722Y02718*
X03744Y02748*
X03748Y02751*
X03752Y02757*
X03755Y02763*
Y02763*
X03769Y02784*
X03815*
X04175*
X04178Y02785*
X04181Y02787*
X04183Y02789*
X04183Y02792*
Y03392*
X04183Y03395*
X04181Y03398*
X04178Y034*
X04175Y034*
G37*
G36*
X0822Y03398D02*
X0749D01*
X07487Y03397*
X07484Y03395*
X07482Y03392*
X07481Y0339*
Y03029*
X07482Y03026*
X07484Y03024*
X07487Y03022*
X0749Y03022*
X07579*
X07582Y03022*
X07585Y03024*
X07586Y03026*
X07587Y03029*
Y03161*
X07586Y03164*
X07585Y03166*
X07579Y03172*
X07578Y03173*
X07578Y03173*
X07577Y03174*
X07576Y03174*
X07575*
X07575Y03175*
X07574*
X07573*
X07572*
X07572*
X0757Y03174*
X07563Y03175*
X07557Y03178*
X07552Y03182*
X07548Y03187*
X07545Y03193*
X07544Y032*
X07545Y03206*
X07548Y03212*
X07552Y03217*
X07557Y03221*
X07563Y03224*
X0757Y03225*
X07576Y03224*
X07582Y03221*
X07587Y03217*
X07591Y03212*
X07594Y03206*
X07594Y032*
Y03197*
Y03197*
Y03196*
Y03195*
Y03194*
X07595Y03194*
Y03193*
X07596Y03192*
X07596Y03191*
X07596Y03191*
Y0319*
X07608Y03179*
X07611Y03174*
X07612Y03169*
Y03029*
X07613Y03026*
X07614Y03024*
X07617Y03022*
X0762Y03022*
X07651*
Y0262*
X07652Y02616*
X07654Y02614*
X07657Y02612*
X07659Y02611*
X0769*
X0769Y02612*
X07691*
X07692Y02612*
X07692*
X07693Y02612*
X07694Y02613*
X07694Y02613*
X07695Y02614*
X07696Y02614*
X07696Y02615*
X07734Y02668*
X07738Y02671*
X07742Y02677*
X07744Y02683*
Y02683*
X07761Y02707*
X07762Y02707*
X07768Y02711*
X07772Y02716*
X07774Y02723*
X07775Y02727*
X07788Y02746*
X07792Y02747*
X07798Y02751*
X07802Y02757*
X07805Y02763*
X07805Y0277*
X07814Y02781*
X07859*
X0822*
X08223Y02782*
X08225Y02784*
X08227Y02787*
X08227Y0279*
Y0339*
X08227Y03392*
X08225Y03395*
X08223Y03397*
X0822Y03398*
G37*
G36*
X04499Y03327D02*
X04309D01*
X04307Y03327*
X04304Y03325*
X04302Y03323*
X04301Y0332*
Y0274*
Y026*
X04302Y02596*
X04304Y02594*
X04307Y02592*
X04309Y02592*
X056*
X05603Y02592*
X05605Y02594*
X05607Y02596*
X05607Y026*
Y0274*
X05607Y02742*
X05605Y02745*
X05603Y02747*
X056Y02748*
X05328*
Y02748*
X05322Y02752*
X05316Y02755*
X05309Y02755*
X05303Y02755*
X05297Y02752*
X05291Y02748*
X05288*
X05283Y02752*
X05276Y02755*
X0527Y02755*
X05263Y02755*
X05257Y02752*
X05252Y02749*
X05248Y02748*
X05242Y02752*
X05236Y02755*
X05229Y02755*
X05223Y02755*
X05216Y02752*
X05212Y02749*
X05209Y02748*
X05207Y02749*
X05202Y02752*
X05196Y02755*
X0519Y02755*
X05183Y02755*
X05177Y02752*
X05171Y02748*
X05168*
X05162Y02752*
X05156Y02755*
X0515Y02755*
X05143Y02755*
X05137Y02752*
X05133Y02749*
X05128Y02748*
X05122Y02752*
X05116Y02755*
X05109Y02755*
X05103Y02755*
X05097Y02752*
X05091Y02748*
X05087Y02749*
X05083Y02752*
X05076Y02755*
X0507Y02755*
X05063Y02755*
X05057Y02752*
X05052Y02749*
X0505Y02748*
X05047Y02749*
X05042Y02752*
X05036Y02755*
X05029Y02755*
X05023Y02755*
X05016Y02752*
X05012Y02749*
X05008Y02748*
X05002Y02752*
X04996Y02755*
X0499Y02755*
X04983Y02755*
X04977Y02752*
X04971Y02748*
X04966Y02749*
X04962Y02752*
X04956Y02755*
X0495Y02755*
X04943Y02755*
X04937Y02752*
X04933Y02749*
X04929Y02748*
X04927Y02749*
X04922Y02752*
X04916Y02755*
X04909Y02755*
X04903Y02755*
X04897Y02752*
X04891Y02748*
X04887Y02749*
X04883Y02752*
X04876Y02755*
X0487Y02755*
X04863Y02755*
X04857Y02752*
X04852Y02749*
X0485Y02748*
X04847Y02749*
X04842Y02752*
X04836Y02755*
X04829Y02755*
X04823Y02755*
X04816Y02752*
X04812Y02749*
X04809Y02748*
X04807Y02749*
X04802Y02752*
X04796Y02755*
X0479Y02755*
X04783Y02755*
X04777Y02752*
X04771Y02748*
X04766Y02749*
X04762Y02752*
X04756Y02755*
X0475Y02755*
X04743Y02755*
X04737Y02752*
X04733Y02749*
X04729Y02748*
X04727Y02749*
X04722Y02752*
X04716Y02755*
X04709Y02755*
X04703Y02755*
X04697Y02752*
X04692Y02749*
X0469Y02748*
X04687Y02749*
X04683Y02752*
X04676Y02755*
X0467Y02755*
X04663Y02755*
X04657Y02752*
X04651Y02748*
X04647Y02749*
X04642Y02752*
X04636Y02755*
X04629Y02755*
X04623Y02755*
X04616Y02752*
X04612Y02749*
X04609Y02748*
X04607Y02749*
X04602Y02752*
X04596Y02755*
X0459Y02755*
X04583Y02755*
X04577Y02752*
X04571Y02748*
X04566Y02749*
X04562Y02752*
X04556Y02755*
X0455Y02755*
X04543Y02755*
X04537Y02752*
X04533Y02749*
X04529Y02748*
X04527Y02749*
X04522Y02752*
X04516Y02755*
X04509Y02755*
X04507Y02757*
Y03319*
X04507Y03322*
X04505Y03325*
Y03325*
X04502Y03327*
X04499Y03327*
G37*
G36*
X05849Y0333D02*
X05659D01*
X05657Y03329*
X05654Y03327*
X05652Y03325*
X05651Y03322*
Y0274*
Y026*
X05652Y02596*
X05654Y02594*
X05657Y02592*
X05659Y02592*
X0695*
X06953Y02592*
X06955Y02594*
X06957Y02596*
X06957Y026*
Y0274*
X06957Y02742*
X06955Y02745*
X06953Y02747*
X0695Y02748*
X06941*
X06668*
X06668Y02748*
X06662Y02752*
X06656Y02755*
X0665Y02755*
X06643Y02755*
X06637Y02752*
X06631Y02748*
X06628*
X06622Y02752*
X06616Y02755*
X06609Y02755*
X06603Y02755*
X06597Y02752*
X06592Y02749*
X06591Y02748*
X0659*
X06588*
X06583Y02752*
X06576Y02755*
X0657Y02755*
X06563Y02755*
X06557Y02752*
X06552Y02749*
X06551Y02748*
X06547Y02749*
X06546Y0275*
X06542Y02752*
X06536Y02755*
X06529Y02755*
X06523Y02755*
X06516Y02752*
X06512Y02749*
X06511Y02748*
X06507Y02749*
X06502Y02752*
X06496Y02755*
X0649Y02755*
X06483Y02755*
X06477Y02752*
X06471Y02748*
X06468*
X06466Y02749*
X06462Y02752*
X06456Y02755*
X0645Y02755*
X06443Y02755*
X06437Y02752*
X06433Y02749*
X06431Y02748*
X06429*
X06427Y02749*
X06422Y02752*
X06416Y02755*
X06409Y02755*
X06403Y02755*
X06397Y02752*
X06392Y02749*
X0639Y02748*
X06387Y02749*
X06383Y02752*
X06376Y02755*
X0637Y02755*
X06363Y02755*
X06357Y02752*
X06352Y02749*
X0635Y02748*
X06347Y02749*
X06342Y02752*
X06336Y02755*
X06329Y02755*
X06323Y02755*
X06316Y02752*
X06311Y02748*
X06308*
X06307Y02749*
X06302Y02752*
X06296Y02755*
X0629Y02755*
X06283Y02755*
X06277Y02752*
X06271Y02748*
X06268*
X06266Y02749*
X06262Y02752*
X06256Y02755*
X0625Y02755*
X06243Y02755*
X06237Y02752*
X06233Y02749*
X06231Y02748*
X06229*
X06228*
X06227Y02749*
X06222Y02752*
X06216Y02755*
X06209Y02755*
X06203Y02755*
X06197Y02752*
X06191Y02748*
X06188*
X06187Y02749*
X06183Y02752*
X06176Y02755*
X0617Y02755*
X06163Y02755*
X06157Y02752*
X06152Y02749*
X06151Y02748*
X06148*
X06147Y02749*
X06142Y02752*
X06136Y02755*
X06129Y02755*
X06123Y02755*
X06116Y02752*
X06111Y02748*
X06108*
X06102Y02752*
X06096Y02755*
X0609Y02755*
X06083Y02755*
X06077Y02752*
X06071Y02748*
X06068*
X06062Y02752*
X06056Y02755*
X0605Y02755*
X06043Y02755*
X06037Y02752*
X06033Y02749*
X06031Y02748*
X06028*
X06022Y02752*
X06016Y02755*
X06009Y02755*
X06003Y02755*
X05997Y02752*
X05992Y02749*
X05991Y02748*
X05988*
X05987Y02749*
X05983Y02752*
X05976Y02755*
X0597Y02755*
X05963Y02755*
X05957Y02752*
X05951Y02748*
X05948*
X05942Y02752*
X05936Y02755*
X05929Y02755*
X05923Y02755*
X05916Y02752*
X05911Y02748*
X05908*
X05902Y02752*
X05896Y02755*
X0589Y02755*
X05883Y02755*
X05877Y02752*
X05871Y02748*
X05868*
X05866Y02749*
X05862Y02752*
X05857Y02754*
Y03322*
X05857Y03325*
X05855Y03327*
X05852Y03329*
X05849Y0333*
G37*
G36*
X0915Y0285D02*
X0914Y02849D01*
X0913Y02845*
X09122Y02839*
X09116Y02831*
X09112Y02822*
X09111Y02812*
Y02811*
X08941Y0264*
X08905*
X08903Y02643*
X08896Y02648*
X08888Y02651*
X08879Y02653*
X08871Y02651*
X08863Y02648*
X08856Y02643*
X08851Y02636*
X08848Y02628*
X08846Y0262*
X08848Y02611*
X08851Y02603*
X08856Y02596*
X08863Y02591*
X08871Y02587*
X08879Y02587*
X08888Y02587*
X08896Y02591*
X08903Y02596*
X08905Y02599*
X0895*
X08957Y026*
X08964Y02605*
X09136Y02776*
X0914Y02775*
X0915Y02774*
X09159Y02775*
X09169Y02779*
X09177Y02785*
X09183Y02792*
X09187Y02802*
X09188Y02812*
X09187Y02822*
X09183Y02831*
X09177Y02839*
X09169Y02845*
X09159Y02849*
X0915Y0285*
G37*
G36*
Y0215D02*
X0914Y02149D01*
X0913Y02145*
X09122Y02139*
X09116Y02131*
X09112Y02122*
X09111Y02112*
X09112Y02102*
X09116Y02092*
X09122Y02085*
X0913Y02079*
X0914Y02075*
X0915Y02074*
X09159Y02075*
X09169Y02079*
X09177Y02085*
X09183Y02092*
X09187Y02102*
X09188Y02112*
X09187Y02122*
X09183Y02131*
X09177Y02139*
X09169Y02145*
X09159Y02149*
X0915Y0215*
G37*
%LNlv1-3*%
%LPD*%
G36*
X021Y02337D02*
X01844D01*
Y02343*
X0177*
Y02337*
X0175*
Y02259*
X01745Y02254*
X01685*
Y02337*
X01663*
Y02343*
X01588*
X01587Y02347*
Y02597*
X0159Y026*
X021*
Y02337*
G37*
G36*
X05559Y0304D02*
X05375D01*
Y03237*
X05559*
Y0304*
G37*
G36*
X06179Y03186D02*
Y03074D01*
X06177Y03073*
X05879*
Y0319*
X06176*
X06179Y03186*
G37*
G36*
X0485D02*
Y03074D01*
X04847Y03073*
X0455*
Y0319*
X04846*
X0485Y03186*
G37*
G36*
X06892Y03043D02*
X06707D01*
Y0324*
X06892*
Y03043*
G37*
G36*
X06689Y02849D02*
X06685Y02845D01*
X06682Y02844*
X06676Y02842*
X0667Y02838*
X06666Y02833*
X06664Y02826*
Y02824*
X06629Y0279*
X0637*
Y02909*
X0642*
X06429Y0292*
X0645*
Y0294*
X06455Y02944*
Y0307*
Y03253*
X06485Y03285*
X06689*
Y02849*
G37*
G36*
X05354Y02851D02*
X05348Y02845D01*
X05342Y02844*
X05336Y02842*
X05331Y02838*
X05326Y02833*
X05324Y02826*
X05323Y0282*
X05294Y02792*
X05034*
Y02912*
X05084*
X05095Y02922*
X05118*
Y02946*
X05119Y02947*
Y03072*
Y03256*
X0515Y03287*
X05354*
Y02851*
G37*
G36*
X04175Y02792D02*
X03815D01*
X03765*
X03645Y02622*
X03615*
Y03032*
X0355*
Y03174*
X03553Y03176*
X03558Y03183*
X03562Y03191*
X03562Y032*
X03562Y03208*
X03558Y03216*
X03553Y03223*
X03546Y03228*
X03538Y03231*
X03529Y03233*
X03521Y03231*
X03513Y03228*
X03506Y03223*
X03501Y03216*
X03498Y03208*
X03496Y032*
X03498Y03191*
X03501Y03183*
X03506Y03176*
X03509Y03174*
Y03032*
X03445*
Y03392*
X04175*
Y02792*
G37*
G36*
X0822Y0279D02*
X07859D01*
X07809*
X0769Y0262*
X07659*
Y03029*
X0762*
Y0317*
X07619Y03177*
X07614Y03184*
X07602Y03196*
X07603Y032*
X07601Y03208*
X07598Y03216*
X07593Y03223*
X07586Y03228*
X07578Y03231*
X0757Y03233*
X07561Y03231*
X07553Y03228*
X07546Y03223*
X07541Y03216*
X07537Y03208*
X07537Y032*
X07537Y03191*
X07541Y03183*
X07546Y03176*
X07553Y03171*
X07561Y03168*
X0757Y03166*
X07573Y03167*
X07579Y03161*
Y03029*
X0749*
Y0339*
X0822*
Y0279*
G37*
G36*
X045Y03319D02*
Y0274D01*
X056*
Y026*
X04309*
Y0274*
Y0332*
X04499*
X045Y03319*
G37*
G36*
X0585Y03322D02*
Y0274D01*
X0695*
Y026*
X05659*
Y0274*
Y03322*
X05849*
X0585Y03322*
G37*
G54D10*
X0685Y02676D03*
Y02783D03*
X0539Y02676D03*
Y02783D03*
X05509Y02676D03*
Y02783D03*
X06729Y02676D03*
Y02783D03*
X07529Y01206D03*
Y01312D03*
X0812Y01206D03*
Y01312D03*
X0824Y01206D03*
Y01312D03*
X08Y01206D03*
Y01312D03*
X07409Y00646D03*
Y00753D03*
X08009Y00666D03*
Y00773D03*
X08129Y00666D03*
Y00773D03*
X08249Y00666D03*
Y00773D03*
G54D17*
X0254Y0325D03*
Y03309D03*
X03633Y04218D03*
Y04159D03*
X05418Y04236D03*
Y04177D03*
X05459Y02449D03*
Y0239D03*
X0892Y03119D03*
Y0306D03*
X0899Y03219D03*
Y0316D03*
X0907Y03319D03*
Y0326D03*
X09Y033D03*
Y03359D03*
G54D18*
X02582Y0372D03*
X02637D03*
X02557Y0352D03*
X02502D03*
X02582Y038D03*
X02637D03*
X01177Y02673D03*
X01122D03*
G54D19*
X02259Y03079D03*
X022D03*
X02379Y03059D03*
X0232D03*
X0771Y0129D03*
X07769D03*
X0771Y00679D03*
X07769D03*
X0118Y00959D03*
X01239D03*
G54D20*
X07512Y03279D03*
X07406D03*
X07512Y0315D03*
X07406D03*
X03462D03*
X03356D03*
X03462Y0327D03*
X03356D03*
G54D34*
X0162Y02172D03*
Y02227D03*
X01759Y03332D03*
Y03387D03*
G54D35*
X0305Y02265D03*
Y02414D03*
G54D36*
X07623Y01109D03*
X07816D03*
Y0085D03*
X07623D03*
G54D37*
X0175Y04092D03*
Y03947D03*
G54D47*
X023Y039D02*
X0764D01*
X02312Y0388D02*
X04589D01*
X0232Y0386D02*
X045D01*
X02333Y0384D02*
X03649D01*
X02238Y03838D02*
X023Y039D01*
X02258Y03826D02*
X02312Y0388D01*
X02278Y03818D02*
X0232Y0386D01*
X02298Y03805D02*
X02333Y0384D01*
X0235Y038D02*
X02582D01*
X05303Y03821D02*
X05307Y03825D01*
X045Y0386D02*
X04539Y03821D01*
X05303*
X05307Y03825D02*
X05925D01*
X0595Y0385*
X0895Y0307D02*
X09059Y02959D01*
X0872Y0307D02*
X0895D01*
X08453Y02803D02*
X0872Y0307D01*
X0932Y02959D02*
X09359Y0292D01*
X09059Y02959D02*
X0932D01*
X08433Y02811D02*
X08782Y03159D01*
X0919D02*
X0934Y03009D01*
X08782Y03159D02*
X0919D01*
X092Y03259D02*
X0935Y03109D01*
X08854Y03259D02*
X092D01*
X08414Y0282D02*
X08854Y03259D01*
X09203Y03355D02*
X0935Y03209D01*
X08394Y02827D02*
X08922Y03355D01*
X09203*
X08433Y02436D02*
Y02811D01*
X08394Y02794D02*
Y02827D01*
X0839Y0279D02*
X08394Y02794D01*
X08414Y02784D02*
Y0282D01*
X08413Y02783D02*
X08414Y02784D01*
X08453Y02428D02*
Y02803D01*
X08413Y02444D02*
Y02783D01*
X0839Y02448D02*
Y0279D01*
X08279Y02254D02*
X08453Y02428D01*
X08271Y02274D02*
X08433Y02436D01*
X08263Y02293D02*
X08413Y02444D01*
X08255Y02313D02*
X0839Y02448D01*
X03344Y02313D02*
X08255D01*
X03336Y02293D02*
X08263D01*
X03328Y02274D02*
X08271D01*
X0332Y02254D02*
X08279D01*
X0495Y02129D02*
X0542D01*
X04909Y0217D02*
X0495Y02129D01*
X03128Y02446D02*
X0332Y02254D01*
X03148Y02453D02*
X03328Y02274D01*
X03168Y02462D02*
X03336Y02293D01*
X03187Y0247D02*
X03344Y02313D01*
X05409Y0239D02*
X0545D01*
X03111Y02465D02*
X03128Y02448D01*
X02305Y02465D02*
X03111D01*
X03119Y02485D02*
X03148Y02456D01*
X02313Y02485D02*
X03119D01*
X03127Y02505D02*
X03168Y02464D01*
X02322Y02505D02*
X03127D01*
X03135Y02524D02*
X03187Y02472D01*
X02329Y02524D02*
X03135D01*
X03187Y0247D02*
Y02472D01*
X03168Y02462D02*
Y02464D01*
X03148Y02453D02*
Y02456D01*
X03128Y02446D02*
Y02448D01*
X04129Y0217D02*
X04909D01*
X02034Y0282D02*
X02329Y02524D01*
X01753Y0282D02*
X02034D01*
X02026Y028D02*
X02322Y02505D01*
X01745Y028D02*
X02026D01*
X02018Y02779D02*
X02313Y02485D01*
X01737Y02779D02*
X02018D01*
X02011Y02759D02*
X02305Y02465D01*
X01729Y02759D02*
X02011D01*
X01609Y02963D02*
X01753Y0282D01*
X0159Y02955D02*
X01745Y028D01*
X0157Y02946D02*
X01737Y02779D01*
X0155Y02938D02*
X01729Y02759D01*
X01609Y02963D02*
Y0357D01*
X0159Y02955D02*
Y03578D01*
X0157Y02946D02*
Y0359D01*
X0155Y02938D02*
Y03598D01*
X01701Y03749*
X0157Y0359D02*
X01668Y03688D01*
X0159Y03578D02*
X01681Y03668D01*
X01697*
X01843*
X01609Y0357D02*
X01689Y03649D01*
X01239Y00959D02*
X0434D01*
X00971D02*
X0118D01*
X0159Y01079D02*
X04159D01*
X01101Y0119D02*
X041D01*
X00971Y01059D02*
X01101Y0119D01*
X055Y0114D02*
X06144D01*
X04204D02*
X04209D01*
X02929Y01259D02*
X02961Y01228D01*
X04589Y0388D02*
X04609Y03859D01*
X01029Y02323D02*
X01118Y02411D01*
X01029Y02145D02*
Y02323D01*
Y02145D02*
X0112Y02054D01*
X03649Y0384D02*
X03679Y03809D01*
X0764Y039D02*
X0772Y0382D01*
X02388Y03264D02*
X024Y03275D01*
X01738Y03609D02*
X01759Y03629D01*
X01843*
X01689Y03649D02*
X01843D01*
X01668Y03688D02*
X01843D01*
X01701Y03749D02*
X01904D01*
X0175Y03579D02*
X01779Y03609D01*
X0169Y03579D02*
X0175D01*
X01779Y03609D02*
X01843D01*
X02317Y03612D02*
X02359Y0357D01*
X02317Y03612D02*
Y03749D01*
X02219Y03098D02*
Y03155D01*
X022Y03079D02*
X02219Y03098D01*
X02238Y031D02*
Y03155D01*
Y031D02*
X02259Y03079D01*
Y03068D02*
Y03079D01*
Y03068D02*
X02269Y03059D01*
Y03D02*
Y03059D01*
X0219Y03069D02*
X022Y03079D01*
X0219Y03D02*
Y03069D01*
X02437Y03314D02*
X02534D01*
X024Y03275D02*
X02437D01*
X02337Y03749D02*
Y03787D01*
X02298Y03749D02*
Y03798D01*
Y03805*
X02278Y03749D02*
Y03818D01*
X02238Y03749D02*
Y03838D01*
X02258Y03749D02*
Y03826D01*
X02337Y03787D02*
X0235Y038D01*
X01023Y02673D02*
X01118D01*
X01122*
X01118Y02411D02*
Y02673D01*
X02067Y03294D02*
X02437D01*
Y03314D02*
D01*
X01924Y03264D02*
X02388D01*
X02078Y03321D02*
X02085Y03314D01*
X02437*
X01979Y03321D02*
X02078D01*
X06144Y0114D02*
X06395Y0139D01*
X02961Y01228D02*
X04116D01*
X04204Y0114*
X00971Y01309D02*
X03462D01*
X03845Y01692*
X0287Y02229D02*
X029Y022D01*
X0287Y02229D02*
Y02379D01*
G54D48*
X08035Y04251D02*
X08135Y04151D01*
Y04038D02*
Y04151D01*
X02484Y04251D02*
X08035D01*
X02412Y04179D02*
X02484Y04251D01*
X02412Y04051D02*
Y04179D01*
X02361Y03998D02*
X02412Y04051D01*
X02114Y03998D02*
X02361D01*
X01924Y03808D02*
X02114Y03998D01*
X01924Y03749D02*
Y03808D01*
X02431Y04031D02*
Y04172D01*
X02374Y03974D02*
X02431Y04031D01*
X02123Y03974D02*
X02374D01*
X01944Y03795D02*
X02123Y03974D01*
X02133Y03944D02*
X02414D01*
X02132D02*
X02133D01*
X01983Y03795D02*
X02132Y03944D01*
X05162Y04077D02*
X05207Y04033D01*
X05153Y04077D02*
X05162D01*
X01944Y03749D02*
Y03795D01*
X05001Y04229D02*
X05153Y04077D01*
X02488Y04229D02*
X05001D01*
X02431Y04172D02*
X02488Y04229D01*
X01943Y03749D02*
X01944D01*
X0232Y0301D02*
X0238Y0295D01*
X0895Y03409D02*
X0915D01*
X08375Y02835D02*
X0895Y03409D01*
X08357Y02843D02*
X09024Y03509D01*
X09147*
X08357Y02833D02*
Y02843D01*
X08342Y02817D02*
X08357Y02833D01*
X08375Y02815D02*
Y02835D01*
X08359Y028D02*
X08375Y02815D01*
X08342Y02467D02*
Y02817D01*
X08359Y02459D02*
Y028D01*
X09147Y03509D02*
X0915Y03512D01*
X08224Y0235D02*
X08342Y02467D01*
X08232Y02332D02*
X08359Y02459D01*
X03359Y0235D02*
X08224D01*
X03352Y02332D02*
X08232D01*
X03206Y02477D02*
X03352Y02332D01*
X03224Y02485D02*
X03359Y0235D01*
X025Y0259D02*
X03122D01*
X03116Y0257D02*
X03206Y0248D01*
X02494Y0257D02*
X03116D01*
X03122Y0259D02*
X03224Y02487D01*
Y02485D02*
Y02487D01*
X03206Y02477D02*
Y0248D01*
X02022Y03042D02*
X02494Y0257D01*
X02042Y03047D02*
X025Y0259D01*
X01983Y0375D02*
Y03795D01*
X01983Y03749D02*
X01983Y0375D01*
X02022Y03042D02*
Y03155D01*
X02042Y03047D02*
Y03155D01*
X0175Y03056D02*
X01931Y03238D01*
X0175Y0302D02*
Y03056D01*
X02494Y03511D02*
X0251Y03527D01*
X06579Y03394D02*
Y03578D01*
X06569Y03383D02*
X06579Y03394D01*
X05244Y03392D02*
Y03577D01*
X05234Y03382D02*
X05244Y03392D01*
X0232Y0301D02*
Y03059D01*
X02249Y03245D02*
X02276D01*
X01786Y03392D02*
X01805Y03412D01*
X0177Y03392D02*
X01786D01*
X01805Y03412D02*
X01842D01*
X02278Y0311D02*
Y03155D01*
Y0311D02*
X0232Y03068D01*
Y03059D02*
Y03068D01*
X02298Y03155D02*
X02299Y03154D01*
Y03117D02*
Y03154D01*
Y03117D02*
X02309Y03106D01*
X02332*
X02379Y03059*
X02437Y03511D02*
X02494D01*
X0915Y03412D02*
X0935D01*
X0915Y03512D02*
X0935D01*
X01924Y03749D02*
X01925Y03748D01*
X01161Y0263D02*
X01282D01*
X01118Y02673D02*
X01161Y0263D01*
X02242Y03238D02*
X02249Y03245D01*
X01931Y03238D02*
X02242D01*
X02298Y03155D02*
Y03223D01*
X02276Y03245D02*
X02298Y03223D01*
G54D49*
X01329Y03366D02*
X01331Y03364D01*
X01329Y03366D02*
Y0353D01*
X09Y033D02*
X09029D01*
X0895Y033D02*
X09D01*
X0881Y03119D02*
X0892D01*
X0894Y03219D02*
X0899D01*
X09029Y033D02*
X09049Y03319D01*
X0907*
X0895Y0262D02*
X0915Y0282D01*
X08879Y0262D02*
X0895D01*
X0757Y0297D02*
X076Y03D01*
Y0317*
X0757Y032D02*
X076Y0317D01*
X03529Y02979D02*
Y032D01*
G54D50*
X04576Y03742D02*
X05911D01*
X03783D02*
X04576D01*
Y03744*
Y03683D02*
Y03742D01*
X04575Y03744D02*
X04576Y03744D01*
X05911Y03742D02*
X07833D01*
X05911Y03681D02*
Y03742D01*
X00866Y0433D02*
X09529D01*
X00866Y00409D02*
Y04329D01*
Y00407D02*
Y00409D01*
Y00407D02*
X00879Y00393D01*
X06809*
X09529*
Y0433*
G54D51*
X05Y02179D02*
X054D01*
X0497Y02209D02*
X05Y02179D01*
X042Y02209D02*
X0497D01*
X0254Y0325D02*
X02591D01*
X02729Y033D02*
Y03509D01*
X02579Y03659D02*
X02729Y03509D01*
X0238Y0295D02*
X02729Y033D01*
X01702Y03392D02*
X01759D01*
X0269Y02379D02*
X0282Y0225D01*
G54D52*
X0914Y0292D02*
X0915Y02909D01*
X0905Y0292D02*
X0914D01*
X0912Y03079D02*
X0915Y03109D01*
X0905Y03079D02*
X0912D01*
X09295Y02464D02*
X0935Y02409D01*
X09066Y02464D02*
X09295D01*
X09065Y02465D02*
X09066Y02464D01*
X093Y02259D02*
X0935Y02209D01*
X0917Y02259D02*
X093D01*
X09169Y0226D02*
X0917Y02259D01*
X09114Y0226D02*
X09169D01*
X09062Y02312D02*
X09114Y0226D01*
X0375Y03659D02*
X03783Y03742D01*
X02579Y03659D02*
X0375D01*
X0251Y03527D02*
Y0359D01*
X02579Y03659*
X02582Y03662*
Y0372*
X02381Y03749D02*
X0241Y0372D01*
X02582*
X0162Y02227D02*
Y02289D01*
G54D53*
X02631Y0397D02*
X08891D01*
X02492Y04109D02*
X02631Y0397D01*
X08891D02*
X0915Y03712D01*
X0144Y02305D02*
X01617D01*
X01559Y0409D02*
X02327D01*
X0144Y0397D02*
X01559Y0409D01*
X0915Y03712D02*
X0935D01*
X0144Y02305D02*
Y0397D01*
G54D54*
X06357Y02972D02*
Y03211D01*
X06418Y03273*
X05022Y0321D02*
X05083Y03272D01*
X05022Y02971D02*
Y0321D01*
G54D56*
X07623Y00766D02*
X0771Y00679D01*
X07623Y00766D02*
Y0085D01*
X07769Y00679D02*
X07816Y00726D01*
Y0085*
X07629Y01199D02*
X0771Y01279D01*
X07629Y01116D02*
Y01199D01*
X07623Y01109D02*
X07629Y01116D01*
X07816Y01109D02*
Y01233D01*
X07769Y01279D02*
X07816Y01233D01*
G54D57*
X0915Y01712D02*
X0935D01*
Y01612D02*
Y01712D01*
X0915Y00812D02*
X0935D01*
X0915Y00912D02*
X0935D01*
X08302Y01512D02*
X0915D01*
X0825Y01459D02*
X08302Y01512D01*
X0819Y01459D02*
X0825D01*
X08672Y01412D02*
X0915D01*
X08379Y0112D02*
X08672Y01412D01*
X0825Y0112D02*
X08379D01*
X0915Y01612D02*
Y01712D01*
X0935Y01812D02*
Y01912D01*
X0915D02*
X0935D01*
X0915Y01812D02*
Y01912D01*
Y01412D02*
X0935D01*
X0915Y01512D02*
X0935D01*
G54D59*
X0935Y03912D03*
Y03812D03*
Y03712D03*
Y03612D03*
Y03512D03*
Y03412D03*
Y03312D03*
Y03212D03*
Y03112D03*
Y03012D03*
Y02912D03*
Y02812D03*
Y02712D03*
Y02612D03*
Y02512D03*
Y02412D03*
Y02312D03*
Y02212D03*
Y02112D03*
Y02012D03*
Y01912D03*
Y01812D03*
Y01712D03*
Y01612D03*
Y01512D03*
Y01412D03*
Y01312D03*
Y01212D03*
Y01112D03*
Y01012D03*
Y00912D03*
Y00812D03*
X0915Y03912D03*
Y03812D03*
Y03712D03*
Y03612D03*
Y03512D03*
Y03412D03*
Y03312D03*
Y03212D03*
Y03112D03*
Y03012D03*
Y02912D03*
Y02812D03*
Y02712D03*
Y02612D03*
Y02512D03*
Y02412D03*
Y02312D03*
Y02212D03*
Y02112D03*
Y02012D03*
Y01912D03*
Y01812D03*
Y01712D03*
Y01612D03*
Y01512D03*
Y01412D03*
Y01312D03*
Y01212D03*
Y01112D03*
Y01012D03*
Y00912D03*
Y00812D03*
X0112Y02054D03*
Y02231D03*
G54D60*
X0945Y04112D03*
Y00612D03*
G54D61*
X0092Y0287D03*
X0102D03*
Y0277D03*
X0092D03*
Y0267D03*
X0102D03*
X0092Y0257D03*
X0102D03*
X0092Y0247D03*
X0102D03*
G54D62*
X00981Y01059D03*
Y00959D03*
Y01309D03*
Y01209D03*
Y01559D03*
Y01459D03*
Y01809D03*
Y01709D03*
Y03579D03*
Y03479D03*
Y0332D03*
Y0322D03*
Y03729D03*
Y03829D03*
G54D63*
X01218Y02281D03*
Y02005D03*
G54D64*
X01006Y04111D03*
Y00612D03*
G54D65*
X0689Y0282D03*
X03279Y04159D03*
Y0412D03*
Y04079D03*
X0332D03*
Y0412D03*
Y04159D03*
X0539Y04029D03*
Y0407D03*
Y04109D03*
X0535Y0407D03*
Y04109D03*
Y04029D03*
X0874Y0222D03*
X08779D03*
X0882D03*
X0817Y02409D03*
X0665Y02679D03*
Y02729D03*
X0645Y02679D03*
X0649D03*
X06529D03*
X0657D03*
X06609D03*
X06209D03*
X0625D03*
X0629D03*
X06329D03*
X0637D03*
X06409D03*
X0597D03*
X06009D03*
X0605D03*
X0609D03*
X06129D03*
X0617D03*
X0589D03*
X05929D03*
X0585D03*
X05809D03*
X0577D03*
X05729D03*
X0569D03*
X0645Y02729D03*
X0649D03*
X06529D03*
X0657D03*
X06609D03*
X06209D03*
X0625D03*
X0629D03*
X06329D03*
X0637D03*
X06409D03*
X0597D03*
X06009D03*
X0605D03*
X0609D03*
X06129D03*
X0617D03*
X0589D03*
X05929D03*
X0585D03*
X05809D03*
X0577D03*
X05729D03*
X0569D03*
X0435D03*
X0439D03*
X04429D03*
X0447D03*
X04509D03*
X0459D03*
X0455D03*
X04829D03*
X0479D03*
X0475D03*
X04709D03*
X0467D03*
X04629D03*
X0507D03*
X05029D03*
X0499D03*
X0495D03*
X04909D03*
X0487D03*
X05309D03*
X0527D03*
X05229D03*
X0519D03*
X0515D03*
X05109D03*
X0435Y02679D03*
X0439D03*
X04429D03*
X0447D03*
X04509D03*
X0459D03*
X0455D03*
X04829D03*
X0479D03*
X0475D03*
X04709D03*
X0467D03*
X04629D03*
X0507D03*
X05029D03*
X0499D03*
X0495D03*
X04909D03*
X0487D03*
X05309D03*
X0527D03*
X05229D03*
X0519D03*
X0515D03*
X05109D03*
X0542Y02129D03*
X054Y02179D03*
X05409Y0239D03*
X08409Y0215D03*
X0837Y0222D03*
Y02179D03*
Y02129D03*
X08329D03*
Y02179D03*
Y0222D03*
X0829Y02129D03*
Y02179D03*
Y0222D03*
X0367Y0269D03*
X037Y02729D03*
X03729Y0277D03*
Y0282D03*
X0369Y02859D03*
Y028D03*
X0774D03*
Y02859D03*
X07779Y0282D03*
Y0277D03*
X0775Y02729D03*
X0772Y0269D03*
X08209Y02409D03*
X0812D03*
X0792D03*
Y0245D03*
X07879D03*
Y02409D03*
X0784D03*
Y0245D03*
X078Y02409D03*
Y0245D03*
X07759D03*
Y02409D03*
X0772D03*
Y0245D03*
X07679D03*
Y02409D03*
X0764D03*
Y0245D03*
X076D03*
Y02409D03*
X07559D03*
Y0245D03*
X0752Y02409D03*
Y0245D03*
X07479D03*
Y02409D03*
X0744D03*
Y0245D03*
X0752Y0249D03*
X07479Y02529D03*
Y0249D03*
X0744D03*
Y02529D03*
Y0257D03*
X0742Y02609D03*
Y0265D03*
Y0269D03*
Y02729D03*
Y0277D03*
Y02809D03*
Y0285D03*
X081Y0245D03*
X0795Y0337D03*
X079D03*
X0785D03*
X0795Y0332D03*
X079D03*
X0785D03*
Y0327D03*
X079D03*
X0795D03*
X0785Y0322D03*
X079D03*
X0795D03*
X08D03*
X0805D03*
X081D03*
X0815D03*
X082D03*
X0785Y0317D03*
X079D03*
X0795D03*
X08D03*
X0805D03*
X081D03*
X0815D03*
X082D03*
Y0312D03*
X0785D03*
Y0307D03*
Y0302D03*
Y0297D03*
X079Y0312D03*
X0795D03*
X08D03*
X0805D03*
X08101D03*
X0815D03*
X082Y0307D03*
X0815D03*
X081D03*
X0805D03*
X08D03*
X0795D03*
X07909D03*
X079Y0302D03*
Y0297D03*
X0795D03*
X08D03*
X0805D03*
X081D03*
X0815D03*
X082D03*
Y0302D03*
X0815D03*
X081D03*
X0805D03*
X08D03*
X0795D03*
X0775Y0337D03*
X082Y0292D03*
X0815D03*
X081D03*
X0805D03*
X08D03*
X0795D03*
Y0287D03*
X08D03*
X0805D03*
X081D03*
X0815D03*
X082D03*
X078Y0327D03*
Y0322D03*
Y0332D03*
Y0337D03*
X07079Y021D03*
Y0205D03*
Y02D03*
Y0195D03*
Y019D03*
Y0185D03*
Y018D03*
Y0175D03*
Y017D03*
X07129D03*
Y0175D03*
Y018D03*
Y0185D03*
Y019D03*
Y0195D03*
Y02D03*
Y0205D03*
Y021D03*
X07179Y017D03*
Y0175D03*
Y018D03*
Y0185D03*
Y019D03*
Y0195D03*
Y02D03*
Y0205D03*
Y021D03*
X07079Y0155D03*
Y016D03*
Y0165D03*
X07129D03*
Y016D03*
Y0155D03*
X07179Y0165D03*
Y016D03*
Y0155D03*
X07229Y0195D03*
Y019D03*
Y0185D03*
Y018D03*
Y0175D03*
Y017D03*
Y0165D03*
X07279Y0195D03*
Y019D03*
Y0185D03*
Y018D03*
Y0175D03*
Y017D03*
Y0165D03*
X07329Y0155D03*
Y016D03*
X07279Y0155D03*
Y016D03*
X07229D03*
Y0155D03*
X0317Y0135D03*
Y014D03*
Y0145D03*
Y015D03*
Y0155D03*
Y016D03*
X0322D03*
Y0155D03*
Y015D03*
Y0145D03*
Y014D03*
Y0135D03*
X0327Y016D03*
Y0155D03*
Y015D03*
Y0145D03*
Y014D03*
Y0135D03*
X0322Y0165D03*
Y017D03*
Y0175D03*
Y018D03*
Y0185D03*
Y019D03*
Y0195D03*
X0317Y0165D03*
Y017D03*
Y0175D03*
Y018D03*
Y0185D03*
Y019D03*
Y0195D03*
X0312Y0135D03*
Y014D03*
Y0145D03*
Y015D03*
Y0155D03*
Y016D03*
Y0165D03*
X0307Y0135D03*
Y014D03*
Y0145D03*
Y015D03*
Y0155D03*
Y016D03*
Y0165D03*
X0302D03*
Y016D03*
Y0155D03*
Y015D03*
Y0145D03*
Y014D03*
Y0135D03*
X0312Y021D03*
Y0205D03*
Y02D03*
Y0195D03*
Y019D03*
Y0185D03*
Y018D03*
Y0175D03*
Y017D03*
X0307Y021D03*
Y0205D03*
Y02D03*
Y0195D03*
Y019D03*
Y0185D03*
Y018D03*
Y0175D03*
Y017D03*
X0302D03*
Y0175D03*
Y018D03*
Y0185D03*
Y019D03*
Y0195D03*
Y02D03*
Y0205D03*
Y021D03*
X0375Y03359D03*
Y03259D03*
Y03209D03*
Y03309D03*
X0415Y02859D03*
X041D03*
X0405D03*
X04D03*
X0395D03*
X039D03*
Y02909D03*
X0395D03*
X04D03*
X0405D03*
X041D03*
X0415D03*
X0642Y036D03*
X037Y03359D03*
X039Y03009D03*
X0395D03*
X04D03*
X0405D03*
X041D03*
X0415D03*
Y02959D03*
X041D03*
X0405D03*
X04D03*
X0395D03*
X039D03*
X0385D03*
Y03009D03*
X03859Y03059D03*
X039D03*
X0395D03*
X04D03*
X0405D03*
X041D03*
X0415D03*
X041Y03109D03*
X04051Y03109D03*
X04Y03109D03*
X0395D03*
X039D03*
X0385D03*
X038Y02959D03*
Y03009D03*
Y03059D03*
Y03109D03*
X0415D03*
Y03159D03*
X041D03*
X0405D03*
X04D03*
X0395D03*
X039D03*
X0385D03*
X0415Y03209D03*
X041D03*
X0405D03*
X04D03*
X0395D03*
X039D03*
X0385D03*
X038D03*
X039Y03259D03*
X0385D03*
X038D03*
Y03309D03*
X0385D03*
X039D03*
X038Y03359D03*
X0385D03*
X039D03*
X0412Y024D03*
X0405Y0244D03*
X0337Y0284D03*
Y028D03*
Y02759D03*
Y0272D03*
Y02679D03*
Y0264D03*
Y026D03*
X0339Y02559D03*
Y0252D03*
Y02479D03*
X03429D03*
Y0252D03*
X0347Y02479D03*
X0339Y0244D03*
Y024D03*
X03429D03*
Y0244D03*
X0347D03*
Y024D03*
X03509Y0244D03*
Y024D03*
X0355D03*
Y0244D03*
X0359D03*
Y024D03*
X03629D03*
Y0244D03*
X0367D03*
Y024D03*
X03709D03*
Y0244D03*
X0375D03*
Y024D03*
X0379Y0244D03*
Y024D03*
X03829D03*
Y0244D03*
X0387D03*
Y024D03*
X0407D03*
X04159D03*
X06689Y0282D03*
X06729D03*
X06629D03*
X0659D03*
X0667Y02859D03*
X0659D03*
X06629D03*
X0667Y029D03*
X06629D03*
X0659D03*
Y02979D03*
X06629D03*
X0667D03*
X0655D03*
X06509D03*
Y02942D03*
X06629D03*
X0655D03*
X0659D03*
X0667D03*
Y0302D03*
X068Y032D03*
X0684Y031D03*
X06879Y03059D03*
Y031D03*
Y0314D03*
X0684D03*
X068Y0312D03*
X06879Y03179D03*
X0684D03*
X068Y03159D03*
X06879Y0322D03*
X0684D03*
X0677Y0282D03*
X06809D03*
X0685D03*
X0659Y0302D03*
X0655D03*
X06629D03*
X06509D03*
Y03059D03*
X0655D03*
X0667D03*
X06629D03*
X0659D03*
X0569Y02629D03*
X05729D03*
X0577D03*
X05809D03*
X0585D03*
X05929D03*
X0589D03*
X0617D03*
X06129D03*
X0609D03*
X0605D03*
X06009D03*
X0597D03*
X06409D03*
X0637D03*
X06329D03*
X0629D03*
X0625D03*
X06209D03*
X0665D03*
X06609D03*
X0657D03*
X06529D03*
X0649D03*
X0645D03*
X0669D03*
X06729D03*
X0677D03*
X06809D03*
X0685D03*
X0689D03*
X06579Y03578D03*
X06569Y03383D03*
X06725Y03378D03*
X05079Y036D03*
X05389Y03377D03*
X05234Y03382D03*
X05244Y03577D03*
X0525Y03059D03*
X0529D03*
X05329D03*
X05209D03*
X0517D03*
Y0302D03*
X0529D03*
X05209D03*
X0525D03*
X0555Y0282D03*
X05509D03*
X0547D03*
X05429D03*
X055Y0322D03*
X0554D03*
X05459Y03159D03*
X055Y03179D03*
X0554D03*
X05459Y0312D03*
X055Y0314D03*
X0554D03*
Y031D03*
Y03059D03*
X055Y031D03*
X05459Y032D03*
X05329Y0302D03*
Y02942D03*
X0525D03*
X05209D03*
X0529D03*
X0517D03*
Y02979D03*
X05209D03*
X05329D03*
X0529D03*
X0525D03*
Y029D03*
X0529D03*
X05329D03*
X0529Y02859D03*
X0525D03*
X05329D03*
X0525Y0282D03*
X0529D03*
X0539D03*
X05349D03*
X0555Y02629D03*
X05509D03*
X0547D03*
X05429D03*
X0539D03*
X0535D03*
X0457Y0317D03*
X04609D03*
X0457Y0309D03*
Y03129D03*
X0465Y0317D03*
X0469D03*
X04729D03*
X0477D03*
X04809D03*
X04609Y03129D03*
X05109Y02629D03*
X0515D03*
X0519D03*
X05229D03*
X0527D03*
X05309D03*
X0487D03*
X04909D03*
X0495D03*
X0499D03*
X05029D03*
X0507D03*
X04629D03*
X0467D03*
X04709D03*
X0475D03*
X0479D03*
X04829D03*
X0455D03*
X0459D03*
X04509D03*
X0447D03*
X04429D03*
X0439D03*
X0435D03*
X0615Y0317D03*
X06109D03*
X0607D03*
X06029D03*
X0599D03*
X0595D03*
X05909D03*
Y03129D03*
Y0309D03*
X0595Y03129D03*
X0775Y0332D03*
Y0327D03*
Y0322D03*
X077D03*
Y0327D03*
Y0332D03*
Y0337D03*
X0765D03*
Y0332D03*
Y0327D03*
X076D03*
Y0332D03*
Y0337D03*
X0755D03*
X0365Y03359D03*
X036D03*
X0355D03*
X035D03*
X037Y03309D03*
X0365D03*
X036D03*
X0355D03*
X037Y03259D03*
Y03209D03*
X0365Y03259D03*
X036D03*
X0355D03*
X0365Y03209D03*
G54D66*
X08137Y04029D03*
X02414Y03944D03*
X05211Y04029D03*
X01329Y0353D03*
X01334Y0337D03*
X01979Y0257D03*
X0204D03*
X0895Y033D03*
X0881Y03119D03*
X0894Y03219D03*
X08879Y0262D03*
X0905Y03079D03*
Y0292D03*
X09065Y02465D03*
X09062Y02312D03*
X0805Y01679D03*
X0799D03*
X07929D03*
Y0174D03*
Y018D03*
X0799Y0174D03*
Y018D03*
X0805D03*
Y0174D03*
X078Y01679D03*
X07729D03*
X07659D03*
Y0174D03*
X076D03*
X0754D03*
X076Y01679D03*
X07659Y01879D03*
X076D03*
X0805Y0192D03*
X0799D03*
X07929D03*
Y01859D03*
X0799D03*
X0805D03*
Y01559D03*
Y0162D03*
X0799D03*
Y01559D03*
X07929Y0162D03*
Y01559D03*
X0787D03*
X07729Y0162D03*
X07659Y01559D03*
Y0162D03*
X076D03*
Y01559D03*
X0754Y0162D03*
Y01559D03*
X0787Y0162D03*
Y01679D03*
X07729Y01559D03*
X078D03*
Y0162D03*
X0399Y01379D03*
Y0144D03*
X03929D03*
Y01379D03*
X0387Y0144D03*
Y01379D03*
Y0132D03*
X03929D03*
X0399D03*
X03809Y01379D03*
X0367Y0144D03*
X0374Y0132D03*
X03809D03*
X036Y01379D03*
Y0144D03*
X0354D03*
Y01379D03*
X03479Y0144D03*
Y01379D03*
Y0132D03*
X0354D03*
X036D03*
X03809Y0144D03*
X0367Y01379D03*
Y0132D03*
X0374Y01379D03*
Y0144D03*
Y0162D03*
Y01559D03*
X0367Y015D03*
Y01559D03*
X03809Y01679D03*
Y0162D03*
X036Y015D03*
X0354D03*
X03479D03*
Y01559D03*
Y0162D03*
X0354Y01559D03*
Y0162D03*
X036D03*
Y01559D03*
X03809Y015D03*
X0374D03*
X0367Y0162D03*
X03809Y01559D03*
X0399Y015D03*
X03929D03*
X0387D03*
Y01559D03*
Y0162D03*
X03929Y01559D03*
Y0162D03*
X0399D03*
Y01559D03*
Y01859D03*
X03929D03*
X0387D03*
Y0192D03*
X03929D03*
X0399D03*
X042Y02209D03*
X04129Y0217D03*
X0614Y017D03*
X0607D03*
X06D03*
X05929D03*
X05859D03*
X0579D03*
X0572D03*
X05759Y0164D03*
X05829D03*
X059D03*
X0597D03*
X0604D03*
X05729Y01579D03*
X058D03*
X0587D03*
X0594D03*
X06009D03*
X06079D03*
X0582Y0152D03*
X0575D03*
X0582Y0145D03*
X0575D03*
X0582Y01379D03*
X0575D03*
X0572Y01759D03*
Y0182D03*
Y01879D03*
Y0194D03*
Y02D03*
Y02059D03*
X05659Y017D03*
Y01759D03*
Y0182D03*
Y01879D03*
Y0194D03*
Y02D03*
Y02059D03*
X057Y0164D03*
X0564D03*
X0567Y01579D03*
X0569Y0152D03*
Y0145D03*
Y01379D03*
X05629D03*
Y0145D03*
Y0152D03*
X05779Y02059D03*
X0584D03*
X05779Y02D03*
X0584D03*
Y0194D03*
X05779D03*
Y01879D03*
X0584D03*
Y0182D03*
X05779D03*
Y01759D03*
X0584D03*
X0157Y02309D03*
X06959Y0242D03*
X04509Y01759D03*
X0445D03*
Y0182D03*
X04509D03*
Y01879D03*
X0445D03*
Y0194D03*
X04509D03*
Y02D03*
X0445D03*
X04509Y02059D03*
X0445D03*
X043Y0152D03*
Y0145D03*
Y01379D03*
X04359D03*
Y0145D03*
Y0152D03*
X0434Y01579D03*
X04309Y0164D03*
X0437D03*
X04329Y02059D03*
Y02D03*
Y0194D03*
Y01879D03*
Y0182D03*
Y01759D03*
Y017D03*
X0439Y02059D03*
Y02D03*
Y0194D03*
Y01879D03*
Y0182D03*
Y01759D03*
X01759Y03279D03*
X0159Y01079D03*
X04159D03*
X06515Y0139D03*
X055Y0114D03*
X04209D03*
X02929Y01259D03*
X041Y0119D03*
X05059Y0139D03*
X01859Y0257D03*
X0354Y01879D03*
X036D03*
X0354Y01679D03*
X03479Y0174D03*
X0354D03*
X036D03*
Y01679D03*
X0367D03*
X0374D03*
X0399Y0174D03*
Y018D03*
X03929D03*
Y0174D03*
X0387Y018D03*
Y0174D03*
Y01679D03*
X03929D03*
X0399D03*
X0714Y0329D03*
X04609Y03859D03*
X0595Y0385D03*
X0415Y03792D03*
X05935Y03381D03*
X06418Y03273D03*
X06361Y02968D03*
X06335Y0159D03*
Y01531D03*
Y01471D03*
Y01411D03*
X06395Y0139D03*
X06455D03*
X06575Y0159D03*
X06645D03*
X06575Y01531D03*
X06645D03*
Y01471D03*
X06575D03*
X06645Y01411D03*
X06575D03*
X0442Y01379D03*
X0449D03*
X0442Y0145D03*
X0449D03*
X0442Y0152D03*
X0449D03*
X0524Y01409D03*
X05309D03*
X05179Y0139D03*
X0524Y0147D03*
X05309D03*
Y01529D03*
X0524D03*
X05309Y0159D03*
X0524D03*
X0512Y0139D03*
X05Y01409D03*
Y0147D03*
Y01529D03*
Y0159D03*
X0475Y01579D03*
X04679D03*
X04609D03*
X0454D03*
X0447D03*
X044D03*
X04709Y0164D03*
X0464D03*
X0457D03*
X045D03*
X04429D03*
X0439Y017D03*
X04459D03*
X04529D03*
X046D03*
X0467D03*
X0474D03*
X04809D03*
X05025Y02968D03*
X05083Y03272D03*
X046Y03379D03*
X07929Y03859D03*
X02375Y0295D03*
X0119Y02479D03*
X01702Y03392D03*
X02579Y03659D03*
X03255Y03052D03*
X03679Y03809D03*
X0772Y0382D03*
X0192Y0257D03*
X0282Y0225D03*
X029Y022D03*
X0269Y02379D03*
X0287D03*
X0757Y032D03*
X03529D03*
G54D67*
X0175Y0302D03*
X01924Y03264D03*
X02259Y0322D03*
X01739Y03608D03*
X0169Y03579D03*
X02359Y0357D03*
X01282Y0263D03*
X02067Y03294D03*
X01979Y0332D03*
G54D68*
X05911Y03684D03*
X04576Y03683D03*
X07833Y03742D03*
X03783D03*
G54D69*
X01807Y02296D03*
X01716D03*
X01626D03*
G54D70*
X01716Y02544D03*
G54D71*
X02327Y04109D03*
X02492D03*
G54D72*
X0219Y03D03*
X02229D03*
X02269D03*
G54D73*
X026Y03342D03*
Y03258D03*
G54D74*
X02376Y03749D03*
X02357D03*
X02337D03*
X02317D03*
X02298D03*
X02278D03*
X02258D03*
X02238D03*
X02219D03*
X02199D03*
X02179D03*
X0216D03*
X0214D03*
X0212D03*
X02101D03*
X02081D03*
X02061D03*
X02042D03*
X02022D03*
X02002D03*
X01983D03*
X01963D03*
X01943D03*
X01924D03*
X01904D03*
Y03155D03*
X01924D03*
X01943D03*
X01963D03*
X01983D03*
X02002D03*
X02022D03*
X02042D03*
X02061D03*
X02081D03*
X02101D03*
X0212D03*
X0214D03*
X0216D03*
X02179D03*
X02199D03*
X02219D03*
X02238D03*
X02258D03*
X02278D03*
X02298D03*
X02317D03*
X02337D03*
X02357D03*
X02376D03*
G54D75*
X01843Y03688D03*
Y03668D03*
Y03649D03*
Y03629D03*
Y03609D03*
Y0359D03*
Y0357D03*
Y0355D03*
Y03531D03*
Y03511D03*
Y03491D03*
Y03472D03*
Y03452D03*
Y03432D03*
Y03412D03*
Y03393D03*
Y03373D03*
Y03353D03*
Y03334D03*
Y03314D03*
Y03294D03*
Y03275D03*
Y03255D03*
Y03235D03*
Y03216D03*
X02437D03*
Y03235D03*
Y03255D03*
Y03275D03*
Y03294D03*
Y03314D03*
Y03334D03*
Y03353D03*
Y03373D03*
Y03393D03*
Y03412D03*
Y03432D03*
Y03452D03*
Y03472D03*
Y03491D03*
Y03511D03*
Y03531D03*
Y0355D03*
Y0357D03*
Y0359D03*
Y03609D03*
Y03629D03*
Y03649D03*
Y03668D03*
Y03688D03*
G54D76*
X08075Y0217D03*
X08224D03*
M02*