%FSTAX23Y23*%
%MOIN*%
%SFA1B1*%

%IPPOS*%
%ADD84C,0.007874*%
%ADD90C,0.010000*%
%ADD94C,0.005905*%
%LNlv1_legend_bot-1*%
%LPD*%
G54D84*
X06897Y02714D02*
Y02745D01*
X06802Y02714D02*
Y02745D01*
X05437Y02714D02*
Y02745D01*
X05342Y02714D02*
Y02745D01*
X05557Y02714D02*
Y02745D01*
X05462Y02714D02*
Y02745D01*
X06777Y02714D02*
Y02745D01*
X06682Y02714D02*
Y02745D01*
X07444Y03327D02*
X07475D01*
X07444Y03232D02*
X07475D01*
X07444Y03197D02*
X07475D01*
X07444Y03102D02*
X07475D01*
X03394Y03197D02*
X03425D01*
X03394Y03102D02*
X03425D01*
X02556Y0411D02*
Y04208D01*
X02263D02*
X02556D01*
X02263Y04011D02*
Y04208D01*
Y04011D02*
X02556D01*
Y0411*
X0362Y04181D02*
Y04196D01*
X03647Y04181D02*
Y04196D01*
X05404Y04199D02*
Y04214D01*
X05431Y04199D02*
Y04214D01*
X05446Y02412D02*
Y02427D01*
X05473Y02412D02*
Y02427D01*
X03111Y02308D02*
Y02371D01*
X02988Y02308D02*
Y02371D01*
X08118Y02108D02*
X08181D01*
X08118Y02231D02*
X08181D01*
X07412Y01373D02*
X07444D01*
X07412Y01467D02*
X07444D01*
X07726Y01249D02*
Y01281D01*
X07632Y01249D02*
Y01281D01*
X07856Y01246D02*
Y01277D01*
X07762Y01246D02*
Y01277D01*
X07587Y01249D02*
Y01281D01*
X07493Y01249D02*
Y01281D01*
X04864Y01178D02*
X04896D01*
X04864Y01272D02*
X04896D01*
X05435Y00777D02*
Y00809D01*
X0534Y00777D02*
Y00809D01*
X05316Y00778D02*
Y00809D01*
X05222Y00778D02*
Y00809D01*
X05194Y00777D02*
Y00809D01*
X05099Y00777D02*
Y00809D01*
X06957Y01283D02*
Y01298D01*
X06985Y01283D02*
Y01298D01*
X04928Y01077D02*
Y01093D01*
X04956Y01077D02*
Y01093D01*
X01202Y00946D02*
X01217D01*
X01202Y00973D02*
X01217D01*
X08906Y03082D02*
Y03097D01*
X08933Y03082D02*
Y03097D01*
X08976Y03182D02*
Y03197D01*
X09003Y03182D02*
Y03197D01*
X09056Y03282D02*
Y03297D01*
X09083Y03282D02*
Y03297D01*
X09013Y03322D02*
Y03337D01*
X08986Y03322D02*
Y03337D01*
X03394Y03317D02*
X03425D01*
X03394Y03222D02*
X03425D01*
X0175Y04177D02*
X01848D01*
Y03862D02*
Y04177D01*
X01651Y03862D02*
X01848D01*
X01651D02*
Y04177D01*
X0175*
G54D90*
X09053Y01257D02*
X0908Y01229D01*
X08895Y01257D02*
X09053D01*
X08895Y01079D02*
Y01257D01*
Y01079D02*
X0908D01*
Y01229*
X09032Y0156D02*
X0906Y01532D01*
X08875Y0156D02*
X09032D01*
X08875Y01383D02*
Y0156D01*
Y01383D02*
X0906D01*
Y01532*
X01651Y04155D02*
X01848D01*
G54D94*
X07039Y02756D02*
X07044Y02761D01*
X07054*
X0706Y02756*
Y02735*
X07054Y0273*
X07044*
X07039Y02735*
X07028Y0273D02*
X07018D01*
X07023*
Y02761*
X07028Y02756*
X07002Y02761D02*
X06981D01*
Y02756*
X07002Y02735*
Y0273*
X0697Y02724D02*
X06949D01*
X06918Y02756D02*
X06923Y02761D01*
X06934*
X06939Y02756*
Y02735*
X06934Y0273*
X06923*
X06918Y02735*
X05299Y02786D02*
X05304Y02791D01*
X05314*
X0532Y02786*
Y02765*
X05314Y0276*
X05304*
X05299Y02765*
X05288Y0276D02*
X05278D01*
X05283*
Y02791*
X05288Y02786*
X05262Y02791D02*
X05241D01*
Y02786*
X05262Y02765*
Y0276*
X0523Y02754D02*
X05209D01*
X05199Y02791D02*
Y0276D01*
X05183*
X05178Y02765*
Y0277*
X05183Y02775*
X05199*
X05183*
X05178Y0278*
Y02786*
X05183Y02791*
X05199*
X06629Y02796D02*
X06634Y02801D01*
X06644*
X0665Y02796*
Y02775*
X06644Y0277*
X06634*
X06629Y02775*
X06618Y0277D02*
X06608D01*
X06613*
Y02801*
X06618Y02796*
X06571Y02801D02*
X06581Y02796D01*
X06592Y02785*
Y02775*
X06587Y0277*
X06576*
X06571Y02775*
Y0278*
X06576Y02785*
X06592*
X0656Y02764D02*
X06539D01*
X06508Y02796D02*
X06513Y02801D01*
X06524*
X06529Y02796*
Y02775*
X06524Y0277*
X06513*
X06508Y02775*
X05699Y02796D02*
X05704Y02801D01*
X05714*
X05719Y02796*
Y02775*
X05714Y0277*
X05704*
X05699Y02775*
X05688Y0277D02*
X05678D01*
X05683*
Y02801*
X05688Y02796*
X05641Y02801D02*
X05651Y02796D01*
X05662Y02785*
Y02775*
X05657Y0277*
X05646*
X05641Y02775*
Y0278*
X05646Y02785*
X05662*
X0563Y02764D02*
X05609D01*
X05599Y02801D02*
Y0277D01*
X05583*
X05578Y02775*
Y0278*
X05583Y02785*
X05599*
X05583*
X05578Y0279*
Y02796*
X05583Y02801*
X05599*
X03279Y03166D02*
X03284Y03171D01*
X03294*
X033Y03166*
Y03145*
X03294Y0314*
X03284*
X03279Y03145*
X03268Y03166D02*
X03263Y03171D01*
X03252*
X03247Y03166*
Y0316*
X03252Y03155*
X03247Y0315*
Y03145*
X03252Y0314*
X03263*
X03268Y03145*
Y0315*
X03263Y03155*
X03268Y0316*
Y03166*
X03263Y03155D02*
X03252D01*
X03237Y03134D02*
X03216D01*
X03205Y0314D02*
Y0316D01*
X03195Y03171*
X03184Y0316*
Y0314*
Y03155*
X03205*
X07439Y03396D02*
X07444Y03401D01*
X07454*
X07459Y03396*
Y03375*
X07454Y0337*
X07444*
X07439Y03375*
X07428Y03396D02*
X07423Y03401D01*
X07412*
X07407Y03396*
Y0339*
X07412Y03385*
X07407Y0338*
Y03375*
X07412Y0337*
X07423*
X07428Y03375*
Y0338*
X07423Y03385*
X07428Y0339*
Y03396*
X07423Y03385D02*
X07412D01*
X07397Y03364D02*
X07376D01*
X07365Y03401D02*
Y0337D01*
X07349*
X07344Y03375*
Y03396*
X07349Y03401*
X07365*
X03279Y03286D02*
X03284Y03291D01*
X03294*
X033Y03286*
Y03265*
X03294Y0326*
X03284*
X03279Y03265*
X03268Y03291D02*
X03247D01*
Y03286*
X03268Y03265*
Y0326*
X03237Y03254D02*
X03216D01*
X03205Y0326D02*
Y0328D01*
X03195Y03291*
X03184Y0328*
Y0326*
Y03275*
X03205*
X07329Y03156D02*
X07334Y03161D01*
X07344*
X0735Y03156*
Y03135*
X07344Y0313*
X07334*
X07329Y03135*
X07318Y03161D02*
X07297D01*
Y03156*
X07318Y03135*
Y0313*
X07287Y03124D02*
X07266D01*
X07255Y03161D02*
Y0313D01*
X07239*
X07234Y03135*
Y03156*
X07239Y03161*
X07255*
X0896Y0335D02*
Y03381D01*
X08944*
X08939Y03376*
Y03365*
X08944Y0336*
X0896*
X08949D02*
X08939Y0335D01*
X08928D02*
X08918D01*
X08923*
Y03381*
X08928Y03376*
X08902D02*
X08897Y03381D01*
X08886*
X08881Y03376*
Y0337*
X08886Y03365*
X08881Y0336*
Y03355*
X08886Y0335*
X08897*
X08902Y03355*
Y0336*
X08897Y03365*
X08902Y0337*
Y03376*
X08897Y03365D02*
X08886D01*
X091Y032D02*
Y03231D01*
X09084*
X09079Y03226*
Y03215*
X09084Y0321*
X091*
X09089D02*
X09079Y032D01*
X09068D02*
X09058D01*
X09063*
Y03231*
X09068Y03226*
X09042Y03205D02*
X09037Y032D01*
X09026*
X09021Y03205*
Y03226*
X09026Y03231*
X09037*
X09042Y03226*
Y0322*
X09037Y03215*
X09021*
X0895Y0315D02*
Y03181D01*
X08934*
X08929Y03176*
Y03165*
X08934Y0316*
X0895*
X08939D02*
X08929Y0315D01*
X08897D02*
X08918D01*
X08897Y0317*
Y03176*
X08902Y03181*
X08913*
X08918Y03176*
X08887D02*
X08881Y03181D01*
X08871*
X08866Y03176*
Y03155*
X08871Y0315*
X08881*
X08887Y03155*
Y03176*
X0887Y0305D02*
Y03081D01*
X08854*
X08849Y03076*
Y03065*
X08854Y0306*
X0887*
X08859D02*
X08849Y0305D01*
X08817D02*
X08838D01*
X08817Y0307*
Y03076*
X08822Y03081*
X08833*
X08838Y03076*
X08807Y0305D02*
X08796D01*
X08801*
Y03081*
X08807Y03076*
X0146Y0095D02*
Y00981D01*
X01444*
X01439Y00976*
Y00965*
X01444Y0096*
X0146*
X01449D02*
X01439Y0095D01*
X01428Y00976D02*
X01423Y00981D01*
X01412*
X01407Y00976*
Y0097*
X01412Y00965*
X01418*
X01412*
X01407Y0096*
Y00955*
X01412Y0095*
X01423*
X01428Y00955*
X01397Y00976D02*
X01391Y00981D01*
X01381*
X01376Y00976*
Y00955*
X01381Y0095*
X01391*
X01397Y00955*
Y00976*
X04903Y01066D02*
Y01098D01*
X04887*
X04882Y01092*
Y01082*
X04887Y01077*
X04903*
X04892D02*
X04882Y01066D01*
X0485D02*
X04871D01*
X0485Y01087*
Y01092*
X04855Y01098*
X04866*
X04871Y01092*
X04819Y01098D02*
X04829Y01092D01*
X0484Y01082*
Y01071*
X04834Y01066*
X04824*
X04819Y01071*
Y01077*
X04824Y01082*
X0484*
X06921Y01275D02*
Y01307D01*
X06905*
X069Y01301*
Y01291*
X06905Y01286*
X06921*
X06911D02*
X069Y01275D01*
X06869D02*
X0689D01*
X06869Y01296*
Y01301*
X06874Y01307*
X06884*
X0689Y01301*
X06837Y01307D02*
X06858D01*
Y01291*
X06848Y01296*
X06842*
X06837Y01291*
Y0128*
X06842Y01275*
X06853*
X06858Y0128*
X053Y01221D02*
Y0119D01*
X05279*
X05268Y01216D02*
X05263Y01221D01*
X05252*
X05247Y01216*
Y01211*
X05252Y01205*
X05258*
X05252*
X05247Y012*
Y01195*
X05252Y0119*
X05263*
X05268Y01195*
X07359Y01314D02*
Y01283D01*
X07338*
X07306D02*
X07327D01*
X07306Y01304*
Y01309*
X07311Y01314*
X07322*
X07327Y01309*
X05166Y00909D02*
X05171Y00914D01*
X05182*
X05187Y00909*
Y00888*
X05182Y00883*
X05171*
X05166Y00888*
X05156Y00909D02*
X0515Y00914D01*
X0514*
X05135Y00909*
Y00904*
X0514Y00899*
X05145*
X0514*
X05135Y00893*
Y00888*
X0514Y00883*
X0515*
X05156Y00888*
X05103Y00914D02*
X05124D01*
Y00899*
X05114Y00904*
X05108*
X05103Y00899*
Y00888*
X05108Y00883*
X05119*
X05124Y00888*
X05288Y0091D02*
X05293Y00915D01*
X05304*
X05309Y0091*
Y00889*
X05304Y00884*
X05293*
X05288Y00889*
X05278Y0091D02*
X05272Y00915D01*
X05262*
X05257Y0091*
Y00905*
X05262Y00899*
X05267*
X05262*
X05257Y00894*
Y00889*
X05262Y00884*
X05272*
X05278Y00889*
X05225Y00915D02*
X05236Y0091D01*
X05246Y00899*
Y00889*
X05241Y00884*
X0523*
X05225Y00889*
Y00894*
X0523Y00899*
X05246*
X05397Y00909D02*
X05402Y00914D01*
X05412*
X05418Y00909*
Y00888*
X05412Y00883*
X05402*
X05397Y00888*
X05386Y00909D02*
X05381Y00914D01*
X0537*
X05365Y00909*
Y00904*
X0537Y00899*
X05376*
X0537*
X05365Y00893*
Y00888*
X0537Y00883*
X05381*
X05386Y00888*
X05355Y00914D02*
X05334D01*
Y00909*
X05355Y00888*
Y00883*
X04756Y01234D02*
X04761Y01239D01*
X04772*
X04777Y01234*
Y01213*
X04772Y01208*
X04761*
X04756Y01213*
X04746Y01234D02*
X0474Y01239D01*
X0473*
X04725Y01234*
Y01229*
X0473Y01224*
X04735*
X0473*
X04725Y01218*
Y01213*
X0473Y01208*
X0474*
X04746Y01213*
X04714Y01234D02*
X04709Y01239D01*
X04698*
X04693Y01234*
Y01229*
X04698Y01224*
X04693Y01218*
Y01213*
X04698Y01208*
X04709*
X04714Y01213*
Y01218*
X04709Y01224*
X04714Y01229*
Y01234*
X04709Y01224D02*
X04698D01*
X07559Y01391D02*
X07564Y01397D01*
X07575*
X0758Y01391*
Y0137*
X07575Y01365*
X07564*
X07559Y0137*
X07549Y01391D02*
X07543Y01397D01*
X07533*
X07528Y01391*
Y01386*
X07533Y01381*
X07538*
X07533*
X07528Y01376*
Y0137*
X07533Y01365*
X07543*
X07549Y0137*
X07517Y01365D02*
X07507D01*
X07512*
Y01397*
X07517Y01391*
X07828Y01388D02*
X07833Y01394D01*
X07844*
X07849Y01388*
Y01367*
X07844Y01362*
X07833*
X07828Y01367*
X07817Y01388D02*
X07812Y01394D01*
X07802*
X07796Y01388*
Y01383*
X07802Y01378*
X07807*
X07802*
X07796Y01373*
Y01367*
X07802Y01362*
X07812*
X07817Y01367*
X07765Y01362D02*
X07786D01*
X07765Y01383*
Y01388*
X0777Y01394*
X07781*
X07786Y01388*
X07698Y01391D02*
X07703Y01397D01*
X07714*
X07719Y01391*
Y0137*
X07714Y01365*
X07703*
X07698Y0137*
X07688Y01391D02*
X07682Y01397D01*
X07672*
X07667Y01391*
Y01386*
X07672Y01381*
X07677*
X07672*
X07667Y01376*
Y0137*
X07672Y01365*
X07682*
X07688Y0137*
X07656Y01391D02*
X07651Y01397D01*
X0764*
X07635Y01391*
Y01386*
X0764Y01381*
X07646*
X0764*
X07635Y01376*
Y0137*
X0764Y01365*
X07651*
X07656Y0137*
X07438Y01528D02*
X07444Y01533D01*
X07454*
X07459Y01528*
Y01507*
X07454Y01502*
X07444*
X07438Y01507*
X07428Y01528D02*
X07423Y01533D01*
X07412*
X07407Y01528*
Y01523*
X07412Y01518*
X07417*
X07412*
X07407Y01512*
Y01507*
X07412Y01502*
X07423*
X07428Y01507*
X07381Y01502D02*
Y01533D01*
X07396Y01518*
X07375*
X08169Y02086D02*
X08174Y02091D01*
X08184*
X0819Y02086*
Y02065*
X08184Y0206*
X08174*
X08169Y02065*
X08158Y02086D02*
X08153Y02091D01*
X08142*
X08137Y02086*
Y0208*
X08142Y02075*
X08148*
X08142*
X08137Y0207*
Y02065*
X08142Y0206*
X08153*
X08158Y02065*
X08127D02*
X08121Y0206D01*
X08111*
X08106Y02065*
Y02086*
X08111Y02091*
X08121*
X08127Y02086*
Y0208*
X08121Y02075*
X08106*
X02928Y02464D02*
X02933Y02469D01*
X02944*
X02949Y02464*
Y02443*
X02944Y02438*
X02933*
X02928Y02443*
X02902Y02438D02*
Y02469D01*
X02918Y02454*
X02897*
X02865Y02469D02*
X02876Y02464D01*
X02886Y02454*
Y02443*
X02881Y02438*
X0287*
X02865Y02443*
Y02448*
X0287Y02454*
X02886*
X018Y04231D02*
Y042D01*
X01784*
X01779Y04205*
Y04226*
X01784Y04231*
X018*
X01768D02*
X01747D01*
X01758*
Y042*
X01737Y04231D02*
Y0421D01*
X01726Y042*
X01716Y0421*
Y04231*
X01684Y04226D02*
X01689Y04231D01*
X017*
X01705Y04226*
Y0422*
X017Y04215*
X01689*
X01684Y0421*
Y04205*
X01689Y042*
X017*
X01705Y04205*
X01674Y042D02*
X01663D01*
X01668*
Y04231*
X01674Y04226*
X0541Y0244D02*
Y02471D01*
X05389Y0244*
Y02471*
X05378D02*
X05357D01*
X05368*
Y0244*
X05326Y02466D02*
X05331Y02471D01*
X05341*
X05347Y02466*
Y02445*
X05341Y0244*
X05331*
X05326Y02445*
X05315Y0244D02*
X05305D01*
X0531*
Y02471*
X05315Y02466*
X05589Y0419D02*
Y0421D01*
X05579Y04221*
X05569Y0421*
Y0419*
Y04205*
X05589*
X05558Y0419D02*
Y04221D01*
X05542*
X05537Y04216*
Y04205*
X05542Y042*
X05558*
X05548D02*
X05537Y0419D01*
X05506Y04221D02*
X05527D01*
Y04205*
X05516Y0421*
X05511*
X05506Y04205*
Y04195*
X05511Y0419*
X05521*
X05527Y04195*
X0359Y0418D02*
Y042D01*
X03579Y04211*
X03569Y042*
Y0418*
Y04195*
X0359*
X03558Y0418D02*
Y04211D01*
X03542*
X03537Y04206*
Y04195*
X03542Y0419*
X03558*
X03548D02*
X03537Y0418D01*
X03511D02*
Y04211D01*
X03527Y04195*
X03506*
X02609Y04141D02*
X0263D01*
Y04125*
X02619*
X0263*
Y0411*
X02598D02*
X02588D01*
X02593*
Y04141*
X02598Y04136*
X0881Y0148D02*
Y01448D01*
X08789*
X08758Y0148D02*
X08768Y01475D01*
X08779Y01464*
Y01454*
X08773Y01448*
X08763*
X08758Y01454*
Y01459*
X08763Y01464*
X08779*
X08807Y01179D02*
Y01147D01*
X08786*
X08775Y01179D02*
X08755D01*
Y01173*
X08775Y01152*
Y01147*
M02*