%FSTAX23Y23*%
%MOIN*%
%SFA1B1*%

%IPPOS*%
%ADD10R,0.102362X0.043307*%
%ADD17R,0.035433X0.027559*%
%ADD19R,0.027559X0.035433*%
%ADD20R,0.043307X0.102362*%
%ADD34R,0.129921X0.055118*%
%ADD36R,0.137795X0.078740*%
%ADD46R,0.049212X0.037401*%
%ADD81R,0.061024X0.129921*%
%ADD82R,0.055118X0.129921*%
%ADD83R,0.085827X0.059842*%
%LNlv1_paste_bot-1*%
%LPD*%
G54D10*
X0685Y02676D03*
Y02783D03*
X0539Y02676D03*
Y02783D03*
X0551Y02676D03*
Y02783D03*
X0673Y02676D03*
Y02783D03*
X07679Y01212D03*
Y01318D03*
X07809Y01209D03*
Y01315D03*
X0754Y01212D03*
Y01318D03*
X05387Y0074D03*
Y00846D03*
X05269Y0074D03*
Y00847D03*
X05147Y0074D03*
Y00846D03*
G54D17*
X03634Y04218D03*
Y04159D03*
X05418Y04236D03*
Y04177D03*
X0546Y02449D03*
Y0239D03*
X06971Y0132D03*
Y01261D03*
X04942Y01114D03*
Y01055D03*
X08919Y03119D03*
Y0306D03*
X08989Y03219D03*
Y0316D03*
X0907Y03319D03*
Y0326D03*
X09Y033D03*
Y03359D03*
G54D19*
X0118Y0096D03*
X01239D03*
G54D20*
X07513Y0328D03*
X07406D03*
X07513Y0315D03*
X07406D03*
X03463D03*
X03356D03*
X07375Y0142D03*
X07481D03*
X04827Y01225D03*
X04933D03*
X03463Y0327D03*
X03356D03*
G54D34*
X0305Y02265D03*
Y02414D03*
G54D36*
X07197Y01397D03*
Y01204D03*
X05124Y01007D03*
Y012D03*
G54D46*
X09083Y01201D03*
X08896Y01123D03*
Y01201D03*
X09083Y01123D03*
X09063Y01505D03*
X08876Y01426D03*
Y01505D03*
X09063Y01426D03*
G54D81*
X02327Y0411D03*
X02492D03*
G54D82*
X08075Y0217D03*
X08224D03*
G54D83*
X0175Y04092D03*
Y03947D03*
M02*