%FSTAX23Y23*%
%MOIN*%
%SFA1B1*%

%IPPOS*%
%AMD70*
4,1,8,-0.031000,0.015500,-0.031000,-0.015500,-0.015500,-0.031000,0.015500,-0.031000,0.031000,-0.015500,0.031000,0.015500,0.015500,0.031000,-0.015500,0.031000,-0.031000,0.015500,0.0*
%
%ADD58C,0.025000*%
%ADD59C,0.019685*%
%ADD64C,0.039370*%
%ADD67C,0.060000*%
%ADD68C,0.060000*%
%ADD69C,0.110236*%
G04~CAMADD=70~4~0.0~0.0~620.0~620.0~0.0~155.0~0~0.0~0.0~0.0~0.0~0~0.0~0.0~0.0~0.0~0~0.0~0.0~0.0~90.0~620.0~620.0*
%ADD70D70*%
%ADD71C,0.062992*%
%ADD72C,0.066929*%
%ADD73C,0.102362*%
%ADD74C,0.037401*%
%ADD75C,0.050000*%
%ADD76C,0.026457*%
%ADD77C,0.030000*%
%ADD78C,0.035433*%
%ADD79C,0.025000*%
%ADD80C,0.027559*%
%LNlv1_copper_signal_2-1*%
%LPD*%
G36*
X02479Y02231D02*
X01379D01*
Y02992*
X02479*
Y02231*
G37*
%LNlv1_copper_signal_2-2*%
%LPC*%
G36*
X0144Y02376D02*
X01431Y02375D01*
X01423Y02372*
X01417Y02366*
X01411Y02359*
X01408Y02351*
X01407Y02343*
X01408Y02334*
X01411Y02326*
X01417Y02319*
X01423Y02314*
X01431Y02311*
X0144Y0231*
X01449Y02311*
X01457Y02314*
X01463Y02319*
X01469Y02326*
X01472Y02334*
X01473Y02343*
X01472Y02351*
X01469Y02359*
X01463Y02366*
X01457Y02372*
X01449Y02375*
X0144Y02376*
G37*
%LNlv1_copper_signal_2-3*%
%LPD*%
G54D58*
X0274Y0366D02*
X02768Y03687D01*
X03711*
X07776*
X07834Y03743D02*
X08188D01*
X08809Y03122*
X07776Y03687D02*
X07833Y03744D01*
X0881Y02689D02*
Y03119D01*
Y02689D02*
X0888Y0262D01*
X08957*
X0915Y02812D02*
X09247Y02714D01*
Y02213D02*
Y02714D01*
X08957Y0262D02*
X0915Y02813D01*
X09247Y02213D02*
X0935Y0211D01*
X01962Y03904D02*
X02207Y0366D01*
X01365Y03904D02*
X01962D01*
X01201Y02584D02*
X01714D01*
X02207Y0366D02*
X0274D01*
G54D59*
X03766Y03743D02*
X03784D01*
X03711Y03687D02*
X03766Y03743D01*
X0198Y0257D02*
X02296Y02253D01*
X05327*
X05401Y02179*
G54D64*
X0198Y0257D02*
X01992D01*
X0237Y02948*
X02375Y0295D02*
X02576Y0315D01*
Y03496*
X02739Y0366*
X01978Y02568D02*
Y03136D01*
X01827Y03287D02*
X01978Y03136D01*
X01827Y03287D02*
Y03415D01*
G54D67*
X0312Y0349D03*
Y036D03*
G54D68*
X0935Y03912D03*
Y03812D03*
Y03712D03*
Y03612D03*
Y03512D03*
Y03412D03*
Y03312D03*
Y03212D03*
Y03112D03*
Y03012D03*
Y02912D03*
Y02812D03*
Y02712D03*
Y02612D03*
Y02512D03*
Y02412D03*
Y02312D03*
Y02212D03*
Y02112D03*
Y02012D03*
Y01912D03*
Y01812D03*
Y01712D03*
Y01612D03*
Y01512D03*
Y01412D03*
Y01312D03*
Y01212D03*
Y01112D03*
Y01012D03*
Y00912D03*
Y00812D03*
X0915Y03912D03*
Y03812D03*
Y03712D03*
Y03612D03*
Y03512D03*
Y03412D03*
Y03312D03*
Y03212D03*
Y03112D03*
Y03012D03*
Y02912D03*
Y02812D03*
Y02712D03*
Y02612D03*
Y02512D03*
Y02412D03*
Y02312D03*
Y02212D03*
Y02112D03*
Y02012D03*
Y01912D03*
Y01812D03*
Y01712D03*
Y01612D03*
Y01512D03*
Y01412D03*
Y01312D03*
Y01212D03*
Y01112D03*
Y01012D03*
Y00912D03*
Y00812D03*
X0112Y02054D03*
Y02231D03*
G54D69*
X0945Y04112D03*
Y00612D03*
G54D70*
X0092Y0287D03*
X0102D03*
Y0277D03*
X0092D03*
Y0267D03*
X0102D03*
X0092Y0257D03*
X0102D03*
X0092Y0247D03*
X0102D03*
G54D71*
X00981Y0106D03*
Y0096D03*
Y0131D03*
Y0121D03*
Y0156D03*
Y0146D03*
Y0181D03*
Y0171D03*
Y0358D03*
Y0348D03*
Y0332D03*
Y0322D03*
Y0373D03*
Y0383D03*
G54D72*
X01219Y02281D03*
Y02005D03*
G54D73*
X01006Y04111D03*
Y00612D03*
G54D74*
X0689Y0282D03*
X0328Y0416D03*
Y0412D03*
Y0408D03*
X0332D03*
Y0412D03*
Y0416D03*
X0539Y0403D03*
Y0407D03*
Y0411D03*
X0535Y0407D03*
Y0411D03*
Y0403D03*
X0874Y0222D03*
X08779D03*
X0882D03*
X0817Y0241D03*
X0665Y0268D03*
Y0273D03*
X0645Y0268D03*
X06489D03*
X0653D03*
X0657D03*
X0661D03*
X06209D03*
X0625D03*
X0629D03*
X0633D03*
X0637D03*
X0641D03*
X0597D03*
X0601D03*
X0605D03*
X0609D03*
X0613D03*
X0617D03*
X0589D03*
X05929D03*
X0585D03*
X0581D03*
X0577D03*
X0573D03*
X0569D03*
X0645Y0273D03*
X06489D03*
X0653D03*
X0657D03*
X0661D03*
X06209D03*
X0625D03*
X0629D03*
X0633D03*
X0637D03*
X0641D03*
X0597D03*
X0601D03*
X0605D03*
X0609D03*
X0613D03*
X0617D03*
X0589D03*
X05929D03*
X0585D03*
X0581D03*
X0577D03*
X0573D03*
X0569D03*
X0435D03*
X0439D03*
X0443D03*
X0447D03*
X0451D03*
X0459D03*
X0455D03*
X0483D03*
X0479D03*
X0475D03*
X0471D03*
X0467D03*
X0463D03*
X0507D03*
X0503D03*
X0499D03*
X0495D03*
X0491D03*
X0487D03*
X05309D03*
X0527D03*
X0523D03*
X0519D03*
X0515D03*
X0511D03*
X0435Y0268D03*
X0439D03*
X0443D03*
X0447D03*
X0451D03*
X0459D03*
X0455D03*
X0483D03*
X0479D03*
X0475D03*
X0471D03*
X0467D03*
X0463D03*
X0507D03*
X0503D03*
X0499D03*
X0495D03*
X0491D03*
X0487D03*
X05309D03*
X0527D03*
X0523D03*
X0519D03*
X0515D03*
X0511D03*
X0542Y0213D03*
X054Y0218D03*
X0541Y0239D03*
X0841Y0215D03*
X0837Y0222D03*
Y0218D03*
Y0213D03*
X0833D03*
Y0218D03*
Y0222D03*
X08289Y0213D03*
Y0218D03*
Y0222D03*
X0367Y0269D03*
X037Y0273D03*
X0373Y0277D03*
Y0282D03*
X0369Y0286D03*
Y028D03*
X07739D03*
Y0286D03*
X0778Y0282D03*
Y0277D03*
X0775Y0273D03*
X0772Y0269D03*
X0821Y0241D03*
X0812D03*
X0792D03*
Y0245D03*
X07879D03*
Y0241D03*
X0784D03*
Y0245D03*
X078Y0241D03*
Y0245D03*
X0776D03*
Y0241D03*
X0772D03*
Y0245D03*
X0768D03*
Y0241D03*
X0764D03*
Y0245D03*
X07599D03*
Y0241D03*
X0756D03*
Y0245D03*
X0752Y0241D03*
Y0245D03*
X0748D03*
Y0241D03*
X0744D03*
Y0245D03*
X0752Y0249D03*
X0748Y0253D03*
Y0249D03*
X0744D03*
Y0253D03*
Y0257D03*
X0742Y0261D03*
Y0273D03*
Y0277D03*
Y0281D03*
Y0285D03*
X081Y0245D03*
X07949Y0337D03*
X079D03*
X0785D03*
X07949Y0332D03*
X079D03*
X0785D03*
Y0327D03*
X079D03*
X07949D03*
X0785Y0322D03*
X079D03*
X07949D03*
X0785Y0317D03*
X079D03*
X07949D03*
X08D03*
X0805D03*
X081D03*
X08149D03*
X082D03*
Y0312D03*
X0785D03*
Y0307D03*
Y0302D03*
Y0297D03*
X079Y0312D03*
X07949D03*
X08D03*
X0805D03*
X08101D03*
X08149D03*
X082Y0307D03*
X08149D03*
X081D03*
X0805D03*
X08D03*
X07949D03*
X0791D03*
X079Y0302D03*
Y0297D03*
X07949D03*
X08D03*
X0805D03*
X081D03*
X08149D03*
X082D03*
Y0302D03*
X08149D03*
X081D03*
X0805D03*
X08D03*
X07949D03*
X0775Y0337D03*
X082Y0292D03*
X08149D03*
X081D03*
X0805D03*
X08D03*
X07949D03*
Y0287D03*
X08D03*
X0805D03*
X081D03*
X08149D03*
X082D03*
X078Y0327D03*
Y0322D03*
Y0332D03*
Y0337D03*
X0708Y021D03*
Y0205D03*
Y02D03*
Y0195D03*
Y019D03*
Y0185D03*
Y018D03*
Y0175D03*
Y017D03*
X0713D03*
Y0175D03*
Y018D03*
Y0185D03*
Y019D03*
Y0195D03*
Y02D03*
Y0205D03*
Y021D03*
X07179Y017D03*
Y0175D03*
Y018D03*
Y0185D03*
Y019D03*
Y0195D03*
Y02D03*
Y0205D03*
Y021D03*
X0708Y0155D03*
Y016D03*
Y0165D03*
X0713D03*
Y016D03*
Y0155D03*
X07179Y0165D03*
Y016D03*
Y0155D03*
X0723Y0195D03*
Y019D03*
Y0185D03*
Y018D03*
Y0175D03*
Y017D03*
Y0165D03*
X0728Y0195D03*
Y019D03*
Y0185D03*
Y018D03*
Y0175D03*
Y017D03*
Y0165D03*
X0733Y0155D03*
Y016D03*
X0728Y0155D03*
Y016D03*
X0723D03*
Y0155D03*
X0317Y0135D03*
Y014D03*
Y0145D03*
Y015D03*
Y0155D03*
Y016D03*
X0322D03*
Y0155D03*
Y015D03*
Y0145D03*
Y014D03*
Y0135D03*
X0327Y016D03*
Y0155D03*
Y015D03*
Y0145D03*
Y014D03*
Y0135D03*
X0322Y0165D03*
Y017D03*
Y0175D03*
Y018D03*
Y0185D03*
Y019D03*
Y0195D03*
X0317Y0165D03*
Y017D03*
Y0175D03*
Y018D03*
Y0185D03*
Y019D03*
Y0195D03*
X0312Y0135D03*
Y014D03*
Y0145D03*
Y015D03*
Y0155D03*
Y016D03*
Y0165D03*
X0307Y0135D03*
Y014D03*
Y0145D03*
Y015D03*
Y0155D03*
Y016D03*
Y0165D03*
X0302D03*
Y016D03*
Y0155D03*
Y015D03*
Y0145D03*
Y014D03*
Y0135D03*
X0312Y021D03*
Y0205D03*
Y02D03*
Y0195D03*
Y019D03*
Y0185D03*
Y018D03*
Y0175D03*
Y017D03*
X0307Y021D03*
Y0205D03*
Y02D03*
Y0195D03*
Y019D03*
Y0185D03*
Y018D03*
Y0175D03*
Y017D03*
X0302D03*
Y0175D03*
Y018D03*
Y0185D03*
Y019D03*
Y0195D03*
Y02D03*
Y0205D03*
Y021D03*
X0375Y0336D03*
Y0326D03*
Y0321D03*
Y0331D03*
X0415Y0286D03*
X041D03*
X0405D03*
X04D03*
X0395D03*
X039D03*
Y0291D03*
X0395D03*
X04D03*
X0405D03*
X041D03*
X0415D03*
X06419Y036D03*
X037Y0336D03*
X039Y0301D03*
X0395D03*
X04D03*
X0405D03*
X041D03*
X0415D03*
Y0296D03*
X041D03*
X0405D03*
X04D03*
X0395D03*
X039D03*
X0385D03*
Y0301D03*
X0386Y0306D03*
X039D03*
X0395D03*
X04D03*
X0405D03*
X041D03*
X0415D03*
X041Y0311D03*
X04051Y03109D03*
X04Y0311D03*
X0395D03*
X039D03*
X0385D03*
X038Y0296D03*
Y0301D03*
Y0306D03*
Y0311D03*
X0415D03*
Y0316D03*
X041D03*
X0405D03*
X04D03*
X0395D03*
X039D03*
X0385D03*
X039Y0321D03*
X0385D03*
X038D03*
X039Y0326D03*
X0385D03*
X038D03*
Y0331D03*
X0385D03*
X039D03*
X038Y0336D03*
X0385D03*
X039D03*
X0412Y024D03*
X0405Y0244D03*
X0337Y0284D03*
Y028D03*
Y0276D03*
Y0272D03*
Y026D03*
X0339Y0256D03*
Y0252D03*
Y0248D03*
X0343D03*
Y0252D03*
X0347Y0248D03*
X0339Y0244D03*
Y024D03*
X0343D03*
Y0244D03*
X0347D03*
Y024D03*
X0351Y0244D03*
Y024D03*
X0355D03*
Y0244D03*
X0359D03*
Y024D03*
X0363D03*
Y0244D03*
X0367D03*
Y024D03*
X0371D03*
Y0244D03*
X0375D03*
Y024D03*
X0379Y0244D03*
Y024D03*
X0383D03*
Y0244D03*
X0387D03*
Y024D03*
X0407D03*
X0416D03*
X0673Y0282D03*
X06629D03*
X0659D03*
X0667Y0286D03*
X0659D03*
X06629D03*
X0667Y029D03*
X06629D03*
X0659D03*
Y0298D03*
X06629D03*
X0667D03*
X0655D03*
X0651D03*
Y02942D03*
X06629D03*
X0655D03*
X0659D03*
X0667D03*
Y0302D03*
X068Y032D03*
X06839Y031D03*
X0688Y0306D03*
Y031D03*
Y0314D03*
X06839D03*
X068Y0312D03*
X0688Y0318D03*
X06839D03*
X068Y0316D03*
X0688Y0322D03*
X06839D03*
X06769Y0282D03*
X0681D03*
X0685D03*
X0659Y0302D03*
X0655D03*
X06629D03*
X0651D03*
Y0306D03*
X0655D03*
X0667D03*
X06629D03*
X0659D03*
X0569Y0263D03*
X0573D03*
X0577D03*
X0581D03*
X0585D03*
X05929D03*
X0589D03*
X0617D03*
X0613D03*
X0609D03*
X0605D03*
X0601D03*
X0597D03*
X0641D03*
X0637D03*
X0633D03*
X0629D03*
X0625D03*
X06209D03*
X0665D03*
X0661D03*
X0657D03*
X0653D03*
X06489D03*
X0645D03*
X06689D03*
X0673D03*
X06769D03*
X0681D03*
X0685D03*
X0689D03*
X06579Y03578D03*
X06569Y03383D03*
X0508Y036D03*
X05234Y03382D03*
X05244Y03577D03*
X0525Y0306D03*
X0529D03*
X0533D03*
X0521D03*
X05169D03*
Y0302D03*
X0529D03*
X0521D03*
X0525D03*
X0555Y0282D03*
X05509D03*
X0547D03*
X0543D03*
X055Y0322D03*
X0554D03*
X0546Y0316D03*
X055Y0318D03*
X0554D03*
X0546Y0312D03*
X055Y0314D03*
X0554D03*
Y031D03*
Y0306D03*
X055Y031D03*
X0546Y032D03*
X0533Y0302D03*
Y02942D03*
X0525D03*
X0521D03*
X0529D03*
X05169D03*
X0517Y02981D03*
X0521Y0298D03*
X0533D03*
X0529D03*
X0525D03*
Y029D03*
X0529D03*
X0533D03*
X0529Y0286D03*
X0525D03*
X0533D03*
X0525Y0282D03*
X0529D03*
X0539D03*
X0555Y0263D03*
X05509D03*
X0547D03*
X0543D03*
X0539D03*
X0535D03*
X0457Y0317D03*
X0461D03*
X0457Y0309D03*
Y0313D03*
X0465Y0317D03*
X0469D03*
X0473D03*
X0477D03*
X0481D03*
X0461Y0313D03*
X0511Y0263D03*
X0515D03*
X0519D03*
X0523D03*
X0527D03*
X05309D03*
X0487D03*
X0491D03*
X0495D03*
X0499D03*
X0503D03*
X0507D03*
X0463D03*
X0467D03*
X0471D03*
X0475D03*
X0479D03*
X0483D03*
X0455D03*
X0459D03*
X0451D03*
X0447D03*
X0443D03*
X0439D03*
X0435D03*
X0615Y0317D03*
X0611D03*
X06069D03*
X0603D03*
X0599D03*
X0595D03*
X0591D03*
Y0313D03*
Y0309D03*
X0595Y0313D03*
X0775Y0332D03*
Y0327D03*
Y0322D03*
X077D03*
Y0327D03*
Y0332D03*
Y0337D03*
X0765D03*
Y0332D03*
Y0327D03*
X07599D03*
Y0332D03*
Y0337D03*
X0755D03*
X0365Y0336D03*
X036D03*
X0355D03*
X035D03*
X037Y0331D03*
X0365D03*
X036D03*
X0355D03*
X037Y0326D03*
Y0321D03*
X0365Y0326D03*
X036D03*
X0355D03*
X0365Y0321D03*
X05385Y0337D03*
X0672Y03377D03*
X08451Y02957D03*
G54D75*
X08136Y04029D03*
X05212D03*
X01329Y0353D03*
X01334Y0337D03*
X0895Y033D03*
X0881Y03119D03*
X0894Y03219D03*
X0888Y0262D03*
X0905Y0308D03*
Y0292D03*
X09065Y02465D03*
X09062Y02312D03*
X0805Y0168D03*
X0799D03*
X0793D03*
Y0174D03*
Y018D03*
X0799Y0174D03*
Y018D03*
X0805D03*
Y0174D03*
X078Y0168D03*
X0773D03*
X0766D03*
Y0174D03*
X07599D03*
X0754D03*
X07599Y0168D03*
X0766Y0188D03*
X07599D03*
X0805Y0192D03*
X0799D03*
X0793D03*
Y0186D03*
X0799D03*
X0805D03*
Y0156D03*
Y0162D03*
X0799D03*
Y0156D03*
X0793Y0162D03*
Y0156D03*
X07869D03*
X0773Y0162D03*
X0766Y0156D03*
Y0162D03*
X07599D03*
Y0156D03*
X0754Y0162D03*
Y0156D03*
X07869Y0162D03*
Y0168D03*
X0773Y0156D03*
X078D03*
Y0162D03*
X0399Y0138D03*
Y0144D03*
X0393D03*
Y0138D03*
X0387Y0144D03*
Y0138D03*
Y0132D03*
X0393D03*
X0399D03*
X0381Y0138D03*
X0367Y0144D03*
X0374Y0132D03*
X0381D03*
X036Y0138D03*
Y0144D03*
X0354D03*
Y0138D03*
X0348Y0144D03*
Y0138D03*
Y0132D03*
X0354D03*
X036D03*
X0381Y0144D03*
X0367Y0138D03*
Y0132D03*
X0374Y0138D03*
Y0144D03*
Y0162D03*
Y0156D03*
X0367Y015D03*
Y0156D03*
X0381Y0168D03*
Y0162D03*
X036Y015D03*
X0354D03*
X0348D03*
Y0156D03*
Y0162D03*
X0354Y0156D03*
Y0162D03*
X036D03*
Y0156D03*
X0381Y015D03*
X0374D03*
X0367Y0162D03*
X0381Y0156D03*
X0399Y015D03*
X0393D03*
X0387D03*
Y0156D03*
Y0162D03*
X0393Y0156D03*
Y0162D03*
X0399D03*
Y0156D03*
Y0186D03*
X0393D03*
X0387D03*
Y0192D03*
X0393D03*
X0399D03*
X0413Y0217D03*
X06139Y017D03*
X06069D03*
X05999D03*
X05929D03*
X05859D03*
X05789D03*
X05719D03*
X0576Y0164D03*
X0583D03*
X059D03*
X0597D03*
X0604D03*
X0573Y0158D03*
X058D03*
X0587D03*
X0594D03*
X0601D03*
X0608D03*
X0582Y0152D03*
X0575D03*
X0582Y0145D03*
X0575D03*
X0582Y0138D03*
X0575D03*
X05719Y0176D03*
Y0182D03*
Y0188D03*
Y0194D03*
Y02D03*
Y0206D03*
X0566Y017D03*
Y0176D03*
Y0182D03*
Y0188D03*
Y0194D03*
Y02D03*
Y0206D03*
X057Y0164D03*
X0564D03*
X0567Y0158D03*
X0569Y0152D03*
Y0145D03*
Y0138D03*
X0563D03*
Y0145D03*
Y0152D03*
X0578Y0206D03*
X0584D03*
X0578Y02D03*
X0584D03*
Y0194D03*
X0578D03*
Y0188D03*
X0584D03*
Y0182D03*
X0578D03*
Y0176D03*
X0584D03*
X0696Y0242D03*
X0451Y0176D03*
X0445D03*
Y0182D03*
X0451D03*
Y0188D03*
X0445D03*
Y0194D03*
X0451D03*
Y02D03*
X0445D03*
X0451Y0206D03*
X0445D03*
X043Y0152D03*
Y0145D03*
Y0138D03*
X0436D03*
Y0145D03*
Y0152D03*
X0434Y0158D03*
X0431Y0164D03*
X0437D03*
X0433Y0206D03*
Y02D03*
Y0194D03*
Y0188D03*
Y0182D03*
Y0176D03*
Y017D03*
X0439Y0206D03*
Y02D03*
Y0194D03*
Y0188D03*
Y0182D03*
Y0176D03*
X0159Y0108D03*
X0416D03*
X06515Y01391D03*
X055Y0114D03*
X0421D03*
X0293Y0126D03*
X041Y0119D03*
X0506Y0139D03*
X0354Y0188D03*
X036D03*
X0354Y0168D03*
X0348Y0174D03*
X0354D03*
X036D03*
Y0168D03*
X0367D03*
X0374D03*
X0399Y0174D03*
Y018D03*
X0393D03*
Y0174D03*
X0387Y018D03*
Y0174D03*
Y0168D03*
X0393D03*
X0399D03*
X0714Y0329D03*
X0415Y03793D03*
X05935Y03381D03*
X06418Y03273D03*
X0636Y02969D03*
X06335Y01591D03*
Y01531D03*
Y01471D03*
Y01411D03*
X06395Y01391D03*
X06455D03*
X06575Y01591D03*
X06645D03*
X06575Y01531D03*
X06645D03*
X06575Y01471D03*
Y01411D03*
X0442Y0138D03*
X0449D03*
X0442Y0145D03*
X0449D03*
X0442Y0152D03*
X0449D03*
X05239Y0141D03*
X05309D03*
X0518Y0139D03*
X05239Y0147D03*
X05309D03*
Y0153D03*
X05239D03*
X05309Y0159D03*
X05239D03*
X0512Y0139D03*
X05Y0141D03*
Y0147D03*
Y0153D03*
Y0159D03*
X0475Y0158D03*
X0468D03*
X0461D03*
X0454D03*
X0447D03*
X044D03*
X0471Y0164D03*
X0464D03*
X0457D03*
X045D03*
X0443D03*
X0439Y017D03*
X0446D03*
X0453D03*
X046D03*
X0467D03*
X0474D03*
X0481D03*
X05025Y02967D03*
X05083Y03272D03*
X046Y0338D03*
X0793Y0386D03*
X03255Y03052D03*
X029Y022D03*
X0287Y0238D03*
X0757Y032D03*
X0353D03*
X01978Y02568D03*
X0144Y02343D03*
X01366Y03905D03*
X01714Y02584D03*
X01202Y02586D03*
X02079Y02563D03*
X0182Y03423D03*
X01646Y02585D03*
X01648Y02381D03*
X01775Y02415D03*
X01914Y02418D03*
X02026Y02473D03*
X01715Y0252D03*
G54D76*
X0461Y0386D03*
X0595Y0385D03*
X0368Y0381D03*
X0772Y0382D03*
G54D77*
X05912Y03684D03*
X04576Y03683D03*
X07834Y03743D03*
X03784D03*
G54D78*
X08368Y02958D03*
G54D79*
X01906Y03481D03*
X01899Y03525D03*
X01837Y03216D03*
X01734Y03214D03*
X01768Y03212D03*
X01801Y03209D03*
X01992Y03229D03*
X02026Y03299D03*
X01991Y03664D03*
X01773Y03684D03*
X02025Y03588D03*
X0208Y03524D03*
X02082Y03404D03*
X01358Y03137D03*
G54D80*
X01907Y03095D03*
X01914Y03051D03*
X01682Y03595D03*
M02*