%FSTAX23Y23*%
%MOMM*%
%SFA1B1*%

%IPPOS*%
%AMD30*
4,1,4,-0.071120,-0.563880,0.563880,0.071120,0.071120,0.563880,-0.563880,-0.071120,-0.071120,-0.563880,0.0*
%
%AMD34*
4,1,4,-0.599440,0.035560,0.035560,-0.599440,0.599440,-0.035560,-0.035560,0.599440,-0.599440,0.035560,0.0*
%
%AMD35*
4,1,4,0.035560,0.599440,-0.599440,-0.035560,-0.035560,-0.599440,0.599440,0.035560,0.035560,0.599440,0.0*
%
%AMD36*
4,1,4,0.563880,-0.071120,-0.071120,0.563880,-0.563880,0.071120,0.071120,-0.563880,0.563880,-0.071120,0.0*
%
%AMD44*
4,1,8,-0.650240,0.678180,-0.650240,-0.678180,-0.553720,-0.774700,0.553720,-0.774700,0.650240,-0.678180,0.650240,0.678180,0.553720,0.774700,-0.553720,0.774700,-0.650240,0.678180,0.0*
1,1,0.195000,-0.553720,0.678180*
1,1,0.195000,-0.553720,-0.678180*
1,1,0.195000,0.553720,-0.678180*
1,1,0.195000,0.553720,0.678180*
%
%AMD45*
4,1,4,-0.581660,-0.193040,-0.193040,-0.581660,0.581660,0.193040,0.193040,0.581660,-0.581660,-0.193040,0.0*
1,1,0.550000,-0.388620,-0.388620*
1,1,0.550000,0.388620,0.388620*
%
%AMD46*
4,1,4,0.193040,-0.581660,0.581660,-0.193040,-0.193040,0.581660,-0.581660,0.193040,0.193040,-0.581660,0.0*
1,1,0.550000,0.388620,-0.388620*
1,1,0.550000,-0.388620,0.388620*
%
%AMD71*
4,1,8,0.393700,0.787400,-0.393700,0.787400,-0.787400,0.393700,-0.787400,-0.393700,-0.393700,-0.787400,0.393700,-0.787400,0.787400,-0.393700,0.787400,0.393700,0.393700,0.787400,0.0*
%
%ADD10R,4.859990X3.359993*%
%ADD11R,1.399997X1.389997*%
%ADD12R,1.422397X3.022594*%
%ADD13R,3.022594X1.422397*%
%ADD14R,0.699999X0.899998*%
%ADD15O,0.799998X1.399997*%
%ADD16R,0.799998X1.399997*%
%ADD17R,0.799998X0.899998*%
%ADD18R,2.599995X1.099998*%
%ADD19R,1.999996X3.499993*%
%ADD20R,2.179996X1.519997*%
%ADD21R,1.549997X3.299993*%
%ADD22R,1.519997X2.179996*%
%ADD23R,0.899998X0.699999*%
%ADD24R,0.899998X0.799998*%
%ADD25R,1.142998X0.761998*%
%ADD26R,2.260595X2.997194*%
%ADD27R,1.879996X1.169998*%
%ADD28R,1.099998X1.399997*%
%ADD29R,1.099998X1.699997*%
G04~CAMADD=30~9~0.0~0.0~354.3~275.6~0.0~0.0~0~0.0~0.0~0.0~0.0~0~0.0~0.0~0.0~0.0~0~0.0~0.0~0.0~225.0~444.0~443.0*
%ADD30D30*%
%ADD31R,1.799996X3.199994*%
%ADD32R,1.199998X1.199998*%
%ADD33R,3.999992X3.099994*%
G04~CAMADD=34~9~0.0~0.0~354.3~315.0~0.0~0.0~0~0.0~0.0~0.0~0.0~0~0.0~0.0~0.0~0.0~0~0.0~0.0~0.0~135.0~472.0~471.0*
%ADD34D34*%
G04~CAMADD=35~9~0.0~0.0~354.3~315.0~0.0~0.0~0~0.0~0.0~0.0~0.0~0~0.0~0.0~0.0~0.0~0~0.0~0.0~0.0~45.0~472.0~471.0*
%ADD35D35*%
G04~CAMADD=36~9~0.0~0.0~354.3~275.6~0.0~0.0~0~0.0~0.0~0.0~0.0~0~0.0~0.0~0.0~0.0~0~0.0~0.0~0.0~315.0~444.0~443.0*
%ADD36D36*%
%ADD37R,1.219198X1.219198*%
%ADD38R,1.399997X3.299993*%
%ADD39R,2.099996X1.799996*%
%ADD40O,0.999998X0.549999*%
%ADD41R,0.999998X0.549999*%
%ADD42O,0.549999X0.999998*%
%ADD43R,0.549999X0.999998*%
G04~CAMADD=44~8~0.0~0.0~610.2~511.8~38.4~0.0~15~0.0~0.0~0.0~0.0~0~0.0~0.0~0.0~0.0~0~0.0~0.0~0.0~90.0~512.0~610.0*
%ADD44D44*%
G04~CAMADD=45~3~0.0~0.0~216.5~649.6~0.0~0.0~0~0.0~0.0~0.0~0.0~0~0.0~0.0~0.0~0.0~0~0.0~0.0~0.0~135.0~522.0~522.0*
%ADD45D45*%
G04~CAMADD=46~3~0.0~0.0~216.5~649.6~0.0~0.0~0~0.0~0.0~0.0~0.0~0~0.0~0.0~0.0~0.0~0~0.0~0.0~0.0~225.0~522.0~522.0*
%ADD46D46*%
%ADD47R,1.219198X1.219198*%
%ADD48R,0.711199X2.006596*%
%ADD49R,1.219198X2.235196*%
%ADD50R,3.606793X2.209796*%
%ADD51C,0.499999*%
%ADD52C,0.999998*%
%ADD53C,0.749999*%
%ADD54C,1.269997*%
%ADD55C,0.299999*%
%ADD56C,0.634999*%
%ADD57C,0.507999*%
%ADD58C,0.253999*%
%ADD59C,0.699999*%
%ADD60R,1.371597X1.371597*%
%ADD61C,1.371597*%
%ADD62C,2.400295*%
%ADD63C,3.251193*%
%ADD64C,2.999994*%
%ADD65O,1.422397X2.844794*%
%ADD66C,1.777996*%
%ADD67C,2.299995*%
%ADD68C,1.689997*%
%ADD69R,1.689997X1.689997*%
%ADD70C,4.759990*%
G04~CAMADD=71~4~0.0~0.0~620.0~620.0~0.0~155.0~0~0.0~0.0~0.0~0.0~0~0.0~0.0~0.0~0.0~0~0.0~0.0~0.0~0.0~620.0~620.0*
%ADD71D71*%
%ADD72C,1.269997*%
%ADD73C,0.799998*%
%LNlv1-1*%
%LPD*%
G36*
X82803Y41225D02*
Y39369D01*
X76797*
X76707Y39459*
Y41315*
X82714*
X82803Y41225*
G37*
G36*
X108622Y52831D02*
X108711Y52742D01*
Y43433*
X89751*
X89661Y43523*
Y52831*
X108622*
G37*
G36*
X60513Y43168D02*
X60647Y43113D01*
Y42863*
X60625*
Y41463*
X60665Y41423*
Y34583*
X60649Y34543*
X56133*
Y43179*
X60499*
X60513Y43168*
G37*
G36*
X39369Y33781D02*
Y33273D01*
X28626*
X27431Y34468*
Y39809*
X29848*
Y39323*
X31568*
Y40385*
X34471*
Y39323*
X3619*
Y40385*
X39369*
Y33781*
G37*
G36*
X128523Y50291D02*
Y47497D01*
Y46989*
X127761Y46227*
X125983Y44449*
X124967*
X121919Y44482*
Y45432*
X122935Y46448*
Y46735*
Y50291*
X125983*
X126745Y51053*
X127761*
X128523Y50291*
G37*
G36*
X36404Y51624D02*
D01*
X37144Y50885*
Y5035*
X37067Y50318*
X36866Y50164*
X36712Y49963*
X36615Y4973*
X36582Y49479*
Y48204*
X36455Y48151*
X35981Y48625*
Y49479*
X35948Y4973*
X35851Y49963*
X35697Y50164*
X35496Y50318*
X35262Y50415*
X35011Y50448*
X34761Y50415*
X34527Y50318*
X34326Y50164*
X34172Y49963*
X34117Y49832*
X3399Y49857*
Y49939*
X33959Y50095*
X33871Y50227*
X33007Y51091*
Y51988*
X33121Y52044*
X33188Y51993*
X33403Y51904*
X33634Y51873*
X33865Y51904*
X3408Y51993*
X34265Y52135*
X34407Y5232*
X34423Y52358*
X3567*
X36404Y51624*
G37*
G36*
X87121Y73913D02*
Y53085D01*
X74675*
Y55028*
X74765Y55117*
X82549*
X82803Y55371*
X84581Y57149*
X85089Y57657*
Y73824*
X85179Y73913*
X87121*
G37*
G36*
X51726Y49127D02*
X51879Y49064D01*
X52011Y48963*
X52085Y48866*
X52098Y48855*
X52107Y48841*
X52135Y48823*
X5216Y48801*
X52176Y48795*
X5219Y48786*
X52222Y48779*
X52254Y48769*
X52271Y4877*
X52287Y48767*
X53904*
X53912Y48768*
X53921Y48767*
X53961Y48778*
X54002Y48786*
X5409Y488*
X54232Y48615*
X54417Y48474*
X54632Y48384*
X54813Y4836*
X5505Y48124*
Y47045*
X54609*
X54414Y47006*
X54249Y46896*
X54138Y46731*
X54129Y46685*
X53909*
Y45385*
X53939Y45355*
Y4462*
X53831Y44576*
X537Y44551*
X53576Y44467*
X52854Y43746*
X52739Y4377*
X51398*
X51308Y4386*
Y44463*
Y44481*
X51306Y44491*
X51308Y44501*
X51298Y44542*
X51289Y44579*
X51295Y44674*
X51324Y44703*
X5142Y44744*
X5156Y44651*
X51764Y4461*
X52214*
X52419Y44651*
X52593Y44767*
X52709Y44941*
X5275Y45145*
X52727Y45258*
X52769Y45385*
Y46585*
X51369*
X51308Y46687*
Y47788*
X51305Y47804*
X51306Y47821*
X51295Y47853*
X51289Y47885*
X5128Y47899*
X51274Y47915*
X51252Y4794*
X51234Y47968*
X5122Y47977*
X51209Y4799*
X51112Y48064*
X51011Y48196*
X50948Y48349*
X50926Y48513*
X50948Y48678*
X51011Y48831*
X51038Y48866*
X51112Y48963*
X51209Y49037*
X51244Y49064*
X51397Y49127*
X51561Y49149*
X51726Y49127*
G37*
G36*
X31518Y51894D02*
Y50674D01*
X31072Y50227*
X30983Y50095*
X30978Y50069*
X30952Y49939*
Y48079*
X29604Y46731*
X29438Y46744*
X29347Y46862*
X29146Y47016*
X28912Y47113*
X28792Y47129*
X28746Y47263*
X28791Y47308*
X28879Y4744*
X2891Y47596*
Y49452*
X31401Y51943*
X31518Y51894*
G37*
G36*
X89661Y33703D02*
D01*
Y30303*
X88441*
X88391Y30253*
X87663Y29525*
X8706*
X86867Y29717*
Y34035*
X89329*
X89661Y33703*
G37*
G36*
X86469Y41392D02*
Y20265D01*
X81416*
X81349Y20332*
X78969*
Y20265*
X74023*
Y21824*
X74113Y21914*
X74117*
Y22596*
X74519*
Y22396*
X76162*
Y22404*
X77245*
X77305Y22415*
X77945*
Y22596*
X81897*
X82151Y2285*
X83929Y24628*
X84437Y25136*
Y41303*
X84527Y41392*
X86469*
G37*
G36*
X99821Y29628D02*
Y26161D01*
X99313Y26034*
X97027Y23367*
X89661*
Y29717*
X99732*
X99821Y29628*
G37*
G36*
X113283Y50291D02*
D01*
X119798*
X119887Y50202*
Y46448*
X120903Y45432*
Y36829*
X113283*
Y20319*
Y19811*
Y16763*
X109591Y13071*
X109473Y13119*
Y12953*
X90025*
Y20319*
X109981*
X110489Y20827*
Y50202*
X110579Y50291*
X113283*
G37*
G36*
X109473Y40385D02*
Y30569D01*
Y21933*
X109384Y21843*
X98297*
Y22827*
X98551Y23081*
X100837Y25367*
Y30479*
X92201*
Y40296*
X92291Y40385*
X109473*
G37*
G36*
X57657Y23367D02*
X51905D01*
X51815Y23457*
Y33019*
X55879*
Y3312*
X57657*
Y23367*
G37*
G36*
X73151Y33273D02*
Y30733D01*
Y29971*
X74421*
Y28193*
X71483*
X76199*
Y26959*
X7611Y26869*
X75192*
X74521Y26198*
X74519*
Y26196*
X73913Y25591*
Y22741*
X73882Y22694*
X73862Y22596*
Y22023*
X73843Y22004*
X73788Y21922*
X73769Y21824*
Y20265*
X73788Y20168*
X73843Y20085*
X73913Y20038*
Y19847*
X73824Y19757*
X73659*
Y19431*
X78969*
Y18662*
X81349*
Y19431*
X86993*
X87375Y19049*
Y17525*
Y13207*
X61811*
X61721Y13297*
Y17525*
Y20827*
X71483*
Y28193*
X71373*
Y30987*
X69595*
Y33438*
X69685Y33527*
X72897*
X73151Y33273*
G37*
G36*
X82549Y28102D02*
X8246Y28012D01*
X81206*
X77977Y31241*
Y38264*
X78067Y38353*
X82549*
Y28102*
G37*
G36*
X68425Y29484D02*
X69513Y28396D01*
Y28035*
X7008*
X70139Y28024*
X70213*
X70273Y28035*
X70611*
Y25018*
X70522Y24928*
X70434*
X70368Y24973*
X70133Y25019*
X68945*
X68944Y25021*
Y25505*
X68262*
X68172Y25595*
Y27387*
X67927Y27631*
X67563Y27795*
Y29726*
X67669Y29797*
X68425Y29484*
G37*
G36*
X76199Y41258D02*
Y32511D01*
X80962Y27749*
X81094Y27088*
X80898Y26615*
X79053*
X79035Y2671*
X78955Y26829*
X78902Y26908*
X77913Y27897*
Y28331*
X77293*
Y2837*
X7721Y28452*
X76199*
X76072Y28448*
X74676*
Y29971*
X74657Y30069*
X74602Y30152*
X74519Y30207*
X74421Y30226*
X73406*
Y30733*
Y33273*
X73387Y33371*
X73369Y33398*
X73332Y33454*
X73078Y33708*
X72995Y33763*
X72897Y33782*
X69685*
X69588Y33763*
X69505Y33708*
X69415Y33618*
X6936Y33535*
X69341Y33438*
Y32317*
X69214Y32309*
X69181Y32555*
X69066Y32832*
X68884Y3307*
X68646Y33252*
X68369Y33367*
X68071Y33406*
X67774Y33367*
X67497Y33252*
X67259Y3307*
X67077Y32832*
X66962Y32555*
X66923Y32257*
X66962Y3196*
X67077Y31683*
X6723Y31483*
Y30933*
X67276Y30699*
X67409Y305*
X67712Y30197*
X67708Y30172*
X67669Y30052*
X67644Y30047*
X67619*
X67596Y30037*
X67571Y30032*
X67551Y30019*
X67527Y30009*
X67422Y29938*
X67404Y29921*
X67383Y29907*
X67369Y29886*
X67351Y29868*
X67342Y29845*
X67328Y29824*
X67323Y29799*
X67313Y29776*
Y29751*
X67309Y29726*
Y27795*
X67318Y2775*
X67325Y27704*
X67327Y27701*
X67328Y27697*
X67354Y27659*
X67378Y2762*
X67381Y27618*
X67383Y27615*
X67422Y27589*
X67459Y27562*
X6778Y27418*
X67918Y27281*
Y25595*
X67844Y25505*
X67644*
X67543*
X67517*
X67163*
X67089Y25536*
X66894Y25562*
X66111*
X65978Y25665*
X65762Y25754*
X65531Y25784*
X653Y25754*
X65085Y25665*
X649Y25523*
X64758Y25338*
X64669Y25122*
X64639Y24891*
X64669Y2466*
X64758Y24445*
X649Y2426*
X65085Y24118*
X653Y24029*
X65531Y23999*
X65762Y24029*
X6581Y24049*
X66894*
X67089Y24075*
X67163Y24105*
X67517*
X67543*
X67544*
X67644*
X68128*
X68259Y23975*
X68457Y23842*
X68691Y23796*
X69312*
Y23666*
X70611*
Y22605*
X70399*
X70365Y2262*
X70133Y2265*
X69902Y2262*
X69868Y22605*
X59689*
Y28447*
Y32511*
X62739*
Y40982*
X63014Y41257*
X63075Y41347*
X7611*
X76199Y41258*
G37*
G36*
X72135Y66293D02*
Y62483D01*
X74078*
X74167Y62394*
Y60793*
X75945*
Y59689*
X74828*
X73913Y58775*
Y51561*
X7892*
X79009Y51472*
Y51374*
X81389*
Y51561*
X87032*
X87121Y51472*
Y43433*
X69218*
X6917Y43551*
X70721Y45102*
X70795Y45213*
X70832Y45269*
X70871Y45465*
Y49195*
X71057*
Y49485*
Y50395*
X69657*
Y49195*
X69844*
Y45678*
X67599Y43433*
X61894*
X61804Y43523*
Y43668*
X61822Y4371*
X61852Y43941*
X61822Y44172*
X61733Y44388*
X61591Y44573*
X61467Y44667*
Y51561*
Y53803*
X66338*
X71538*
X71627Y53713*
Y60705*
X7112*
Y60754*
X71119Y60759*
Y63753*
X69341*
Y66204*
X69431Y66293*
X72135*
G37*
G36*
X83057Y63245D02*
X78485D01*
Y70865*
X83057*
Y63245*
G37*
G36*
X31688Y6958D02*
Y68569D01*
X32207Y6805*
X32318*
Y67915*
X32344Y67785*
X32349Y67759*
X32437Y67627*
X34255Y65809*
Y65682*
X34218Y65645*
X34102Y65471*
X34061Y65266*
X34102Y65061*
X34218Y64888*
X34392Y64772*
X34596Y64731*
X34627Y64701*
X34668Y64496*
X34784Y64322*
X34957Y64206*
X35162Y64165*
X35193Y64135*
X35233Y6393*
X35349Y63756*
X35523Y6364*
X35728Y636*
X35758Y63569*
X35799Y63364*
X35915Y63191*
X36089Y63075*
X36294Y63034*
X36324Y63004*
X36365Y62799*
X36481Y62625*
X36654Y62509*
X36859Y62468*
X3689Y62438*
X3693Y62233*
X36981Y62157*
X37046Y62059*
X36967Y61967*
X35535Y60536*
X35496Y60552*
X35265Y60582*
X35034Y60552*
X34819Y60463*
X34634Y60321*
X34492Y60136*
X34422Y59966*
X34295Y59992*
Y60372*
X34264Y60528*
X34235Y60572*
X34176Y60661*
X3357Y61267*
X33437Y61355*
X33411Y6136*
X33281Y61386*
X32424*
X32294Y6136*
X32268Y61355*
X32135Y61267*
X31474Y60605*
X31354Y60665*
X3136Y60712*
X3133Y60943*
X3124Y61158*
X31099Y61343*
X30914Y61485*
X30698Y61574*
X30595Y61588*
X30577Y61602*
X30507Y61728*
X30536Y61872*
X30495Y62077*
X30379Y62251*
X29601Y63028*
X29427Y63145*
X29317Y63166*
X29142Y63341*
X29349Y63548*
X285Y64396*
X27511Y63406*
X27561Y63356*
Y63229*
X27153Y62822*
X27114Y62838*
X26883Y62868*
X26652Y62838*
X26511Y62779*
X26439Y62887*
X27235Y63682*
X27298Y63619*
X28288Y64608*
X2744Y65457*
X27305Y65323*
X27139Y65489*
Y66336*
X28619Y67816*
X29422*
Y67598*
X2946Y67403*
X29571Y67237*
X31281Y65527*
X31245Y65384*
X31107Y65291*
X31083Y65255*
X30956Y65243*
X30208Y65991*
X29218Y65001*
X30137Y64082*
X30292Y64237*
X30417Y64182*
X30425Y64142*
X30541Y63969*
X31319Y63191*
X31493Y63075*
X31697Y63034*
X31902Y63075*
X32076Y63191*
X32192Y63364*
X32206Y63436*
X32344Y63477*
X3313Y62691*
X33103Y62483*
X33133Y62252*
X33222Y62037*
X33364Y61852*
X33549Y6171*
X33764Y61621*
X33995Y61591*
X34226Y61621*
X34442Y6171*
X34627Y61852*
X34769Y62037*
X34858Y62252*
X34888Y62483*
X34858Y62714*
X34769Y6293*
X34627Y63115*
X34442Y63256*
X34226Y63346*
X33995Y63376*
X33764Y63346*
X33669Y63306*
X32921Y64054*
X32962Y64192*
X33034Y64206*
X33207Y64322*
X33323Y64496*
X33364Y64701*
X33394Y64731*
X33599Y64772*
X33773Y64888*
X33889Y65061*
X3393Y65266*
X33889Y65471*
X33773Y65645*
X32995Y66423*
X32821Y66539*
X32668Y66569*
X31355Y67882*
Y69427*
X3158Y69651*
X31688Y6958*
G37*
G36*
X76707Y73824D02*
Y64769D01*
Y63499*
X81025Y60451*
Y59689*
X79045*
X78942Y59844*
X78156Y6063*
X77958Y60763*
X77803Y60793*
Y60897*
X76961*
Y60959*
X76135*
X76126Y60974*
X76043Y61029*
X75945Y61048*
X74422*
Y62394*
X74403Y62491*
X74348Y62574*
X74258Y62664*
X74175Y62719*
X74078Y62738*
X7248*
X7239Y62828*
Y66293*
X72371Y66391*
X72316Y66474*
X72233Y66529*
X72135Y66548*
X69431*
X69334Y66529*
X69251Y66474*
X69161Y66384*
X69106Y66301*
X69087Y66204*
Y65083*
X6896Y65075*
X68927Y65321*
X68812Y65598*
X6863Y65836*
X68392Y66018*
X68115Y66133*
X67817Y66172*
X6752Y66133*
X67243Y66018*
X67005Y65836*
X66823Y65598*
X66708Y65321*
X66669Y65023*
X66708Y64726*
X66823Y64449*
X67005Y64211*
X6723Y64039*
Y63717*
X67276Y63483*
X67409Y63285*
X67546Y63148*
X67475Y63042*
X66996Y63241*
X66971Y63246*
X66948Y63256*
X66923*
X66898Y63261*
X66873Y63256*
X66848*
X66825Y63246*
X668Y63241*
X6678Y63227*
X66756Y63218*
X66651Y63147*
X66633Y63129*
X66612Y63115*
X66598Y63094*
X6658Y63077*
X66571Y63053*
X66557Y63033*
X66552Y63008*
X66542Y62985*
Y6296*
X66537Y62935*
Y58504*
X66448Y58414*
X65999*
X65978Y5843*
X65762Y5852*
X65531Y5855*
X653Y5852*
X65085Y5843*
X649Y58289*
X64758Y58104*
X64669Y57888*
X64639Y57657*
X64669Y57426*
X64758Y57211*
X649Y57026*
X65085Y56884*
X653Y56795*
X65531Y56765*
X65762Y56795*
X65978Y56884*
X65999Y56901*
X66609*
X66805Y56927*
X66879Y56957*
X67232*
X67259*
X67359*
X68611*
X68852Y56717*
X6895Y56651*
X6905Y56584*
X69157Y56563*
X69282Y56538*
Y56518*
X70522*
X70611Y56429*
Y55487*
X70611Y55486*
X70484Y5541*
X70334Y55472*
X70103Y55502*
X69872Y55472*
X69657Y55382*
X69643Y55371*
X61557*
X61467Y55461*
Y73913*
X76618*
X76707Y73824*
G37*
G36*
X28237Y62586D02*
X28246Y62577D01*
X28278Y62463*
X28162Y62289*
X28122Y62084*
X28162Y61879*
X28278Y61706*
X28528Y61456*
X28468Y61336*
X28407Y61344*
X28176Y61314*
X27961Y61225*
X27776Y61083*
X27634Y60898*
X27545Y60682*
X27515Y60451*
X27545Y6022*
X27634Y60005*
X27776Y5982*
X27961Y59678*
X28076Y59631*
X28162Y59531*
X28122Y59327*
X28162Y59122*
X28278Y58948*
X28452Y58832*
X28657Y58791*
X28687Y58761*
X28728Y58556*
X28786Y58469*
X28718Y58342*
X26455*
Y58611*
X25255*
Y57211*
X2546*
Y53957*
X25486Y53827*
X25491Y53801*
X25579Y53669*
X26984Y52264*
Y5035*
X26907Y50318*
X26706Y50164*
X26552Y49963*
X26455Y4973*
X26422Y49479*
Y48056*
X26455Y47805*
X26552Y47571*
X26706Y47371*
X26907Y47217*
X27141Y4712*
X27255Y47105*
X27301Y46971*
X27063Y46733*
X26896Y46746*
X26807Y46862*
X26606Y47016*
X26372Y47113*
X26121Y47146*
X25871Y47113*
X25637Y47016*
X25436Y46862*
X25282Y46661*
X25185Y46428*
X25152Y46177*
Y44754*
X25185Y44503*
X25282Y4427*
X25436Y44069*
X25637Y43915*
X25871Y43818*
X26121Y43785*
X26372Y43818*
X26606Y43915*
X26807Y44069*
X26961Y4427*
X27058Y44503*
X27091Y44754*
Y45608*
X27565Y46082*
X27692Y46029*
Y44754*
X27725Y44503*
X27822Y4427*
X27976Y44069*
X28177Y43915*
X28411Y43818*
X28661Y43785*
X28912Y43818*
X29146Y43915*
X29347Y44069*
X29501Y4427*
X29598Y44503*
X29631Y44754*
Y45604*
X30105Y46078*
X30232Y46026*
Y44754*
X30265Y44503*
X30362Y4427*
X30516Y44069*
X30717Y43915*
X30951Y43818*
X31201Y43785*
X31452Y43818*
X31686Y43915*
X31887Y44069*
X32041Y4427*
X32138Y44503*
X32171Y44754*
Y45608*
X32645Y46082*
X32772Y46029*
Y44754*
X32805Y44503*
X32902Y4427*
X33056Y44069*
X33257Y43915*
X33491Y43818*
X33741Y43785*
X33992Y43818*
X34226Y43915*
X34427Y44069*
X34581Y4427*
X34678Y44503*
X34711Y44754*
Y46177*
X34678Y46428*
X34581Y46661*
X34427Y46862*
X34226Y47016*
X33992Y47113*
X33872Y47129*
X33826Y47263*
X33871Y47308*
X33959Y4744*
X3399Y47596*
Y47677*
X34117Y47703*
X34172Y47571*
X34326Y47371*
X34527Y47217*
X34761Y4712*
X35011Y47087*
X35262Y4712*
X35496Y47217*
X35697Y47371*
X35786Y47487*
X35953Y475*
X36191Y47262*
X36145Y47128*
X36031Y47113*
X35797Y47016*
X35596Y46862*
X35442Y46661*
X35345Y46428*
X35312Y46177*
Y44754*
X35345Y44503*
X35442Y4427*
X35596Y44069*
X35797Y43915*
X36031Y43818*
X36281Y43785*
X36532Y43818*
X36766Y43915*
X36961Y44064*
X4039Y40636*
X39754Y40001*
X39745Y39988*
X39624Y40029*
Y40385*
X39605Y40483*
X3955Y40566*
X39467Y40621*
X39369Y4064*
X3619*
X36093Y40621*
X3601Y40566*
X35955Y40483*
X35936Y40385*
Y39578*
X34726*
Y40385*
X34707Y40483*
X34651Y40566*
X34569Y40621*
X34471Y4064*
X33879*
Y42058*
X33529*
Y42185*
X3349Y42381*
X3338Y42546*
X33223Y42702*
Y43625*
X31923*
Y43435*
X25317*
X24091Y44661*
Y47268*
X24218Y47331*
X24367Y47217*
X24601Y4712*
X24851Y47087*
X25102Y4712*
X25336Y47217*
X25537Y47371*
X25691Y47571*
X25788Y47805*
X25821Y48056*
Y49479*
X25788Y4973*
X25691Y49963*
X25537Y50164*
X25336Y50318*
X25102Y50415*
X24851Y50448*
X24601Y50415*
X24367Y50318*
X24218Y50204*
X24091Y50267*
Y55917*
X24213Y5601*
X24354Y56195*
X24444Y5641*
X24474Y56641*
X24444Y56872*
X24354Y57088*
X24347Y57098*
X24403Y57211*
X24955*
Y58611*
X24091*
Y60539*
X25972Y6242*
X2608Y62348*
X26021Y62206*
X25991Y61975*
X26021Y61744*
X2611Y61529*
X26252Y61344*
X26437Y61202*
X26652Y61113*
X26883Y61083*
X27114Y61113*
X2733Y61202*
X27515Y61344*
X27656Y61529*
X27746Y61744*
X27776Y61975*
X27746Y62206*
X2773Y62245*
X28073Y62589*
X28237Y62586*
G37*
G36*
X60197Y73824D02*
Y65531D01*
X58893*
X56133*
Y66674*
Y73913*
X60108*
X60197Y73824*
G37*
G36*
X83565Y71119D02*
X83062D01*
X83057Y7112*
X78485*
X78481Y71119*
X77305*
X77215Y71209*
Y73913*
X83565*
Y71119*
G37*
G36*
X34895Y73659D02*
X34908Y73532D01*
X34887Y73528*
X34754Y7344*
X3379Y72475*
X33719Y7237*
X33608Y72338*
X33573Y72336*
X33244Y72665*
X32207*
X31688Y72146*
Y72137*
X31455*
X3126Y72098*
X31095Y71988*
X29571Y70464*
X2946Y70299*
X29422Y70103*
Y68835*
X28741*
Y69279*
X28505*
Y70929*
X26786*
Y70517*
X26728Y70479*
X26232Y69983*
X26107Y69795*
X26063Y69573*
Y69279*
X26041*
Y67879*
X27075*
X27123Y67762*
X26269Y66908*
X26158Y66743*
X2612Y66547*
Y65277*
X26158Y65082*
X26269Y64917*
X26584Y64602*
X2645Y64467*
X26514Y64403*
X23221Y61111*
X2311Y60945*
X23072Y6075*
Y57911*
Y57366*
X2295Y57273*
X22808Y57088*
X22719Y56872*
X22689Y56641*
X22719Y5641*
X22808Y56195*
X2295Y5601*
X23072Y55917*
Y44449*
X2311Y44254*
X23221Y44089*
X24745Y42565*
X2491Y42454*
X25105Y42416*
X31923*
Y42225*
X32193*
X32223Y42185*
X3216Y42058*
Y4064*
X31643*
X31589Y40701*
X31568Y40867*
Y42058*
X29848*
Y41594*
X25723*
Y41711*
X23043*
Y39691*
X24893*
X25523Y39062*
Y34221*
X25553Y3399*
X25642Y33775*
X25784Y3359*
X29386Y29988*
Y28325*
X31436*
Y32125*
X29774*
X28998Y32901*
X29047Y33019*
X39369*
X39467Y33038*
X3955Y33093*
X39605Y33176*
X39624Y33273*
Y33781*
Y37392*
X4202*
Y39315*
X41759*
X4171Y39432*
X42279Y40001*
X45465*
X45696Y40031*
X45912Y4012*
X46097Y40262*
X46364Y4053*
X46481Y40481*
Y29848*
X41096*
X40496Y30449*
Y31949*
X36973*
Y3188*
X35636*
Y32125*
X33586*
Y28325*
X35636*
Y29988*
X35743Y30095*
X36973*
Y30026*
X38393*
X40095Y28324*
X4028Y28182*
X40495Y28093*
X40726Y28063*
X46481*
Y23367*
X22441*
X22351Y23457*
Y72293*
X22478Y72311*
X22505Y72225*
X22667Y71921*
X22886Y71654*
X23152Y71435*
X23457Y71273*
X23786Y71173*
X24129Y71139*
X24473Y71173*
X24802Y71273*
X25106Y71435*
X25373Y71654*
X25592Y71921*
X25754Y72225*
X25854Y72554*
X25888Y72897*
X25854Y73241*
X25766Y73532*
X25833Y73659*
X34895*
G37*
G36*
X34228Y69548D02*
Y68569D01*
X34747Y6805*
X35784*
X35928Y68194*
X36045Y68145*
Y66375*
X35954Y66295*
X35825Y66315*
X35753Y66423*
X35579Y66539*
X35374Y66579*
X35169Y66539*
X34996Y66423*
X34959Y66386*
X34832*
X33222Y67996*
X33244Y6805*
X33763Y68569*
Y69606*
X33619Y6975*
X33668Y69867*
X33909*
X34228Y69548*
G37*
G36*
X55879Y73659D02*
Y66674D01*
Y65531*
X55898Y65434*
X55915Y65408*
Y63705*
X55798Y63656*
X55095Y64359*
X55068Y64377*
Y64837*
X54018*
Y63337*
X5503*
X55521Y62846*
X5552Y62668*
X5499Y62137*
X54018*
Y60637*
X55068*
Y61129*
X55761Y61822*
X55879Y61773*
Y58166*
X53562*
X53453Y58293*
X5347Y58419*
X5344Y5865*
X53351Y58866*
X53209Y59051*
X53123Y59116*
X53165Y59243*
Y60643*
X53153*
Y61034*
X53179Y61162*
Y61612*
X53138Y61817*
X53022Y61991*
X52848Y62107*
X52643Y62148*
X52439Y62107*
X52265Y61991*
X52149Y61817*
X52108Y61612*
Y61162*
X52134Y61034*
Y60643*
X51965*
Y59243*
X51989*
X52032Y59116*
X51946Y59051*
X51804Y58866*
X51715Y5865*
X51685Y58419*
X51701Y58293*
X51592Y58166*
X4848*
X4839Y58256*
Y61606*
X5049Y63706*
X50607Y63657*
Y63549*
X52007*
X52118Y63511*
Y63337*
X53168*
Y64837*
X52118*
X52007Y64849*
X51996*
X51817*
Y65033*
X51939Y65154*
X52081Y65339*
X52144Y65491*
X5217Y65554*
X522Y65785*
X5217Y66016*
X52081Y66232*
X51939Y66417*
X51754Y66559*
X51538Y66648*
X51307Y66678*
X51076Y66648*
X51013Y66622*
X50861Y66559*
X50676Y66417*
X46866Y62607*
X46724Y62422*
X46635Y62206*
X46605Y61975*
Y51307*
Y43295*
X45096Y41786*
X41909*
X41678Y41756*
X41463Y41666*
X41278Y41525*
X41157Y41403*
X41065*
X37251Y45217*
Y46177*
X3722Y4641*
X37238Y46464*
X37287Y46537*
X38012*
X38142Y46563*
X38168Y46568*
X383Y46657*
X38523Y4688*
X39113*
X39336Y46657*
X39468Y46568*
X39625Y46537*
X40356*
X40405Y46464*
X40423Y4641*
X40392Y46177*
Y44754*
X40425Y44503*
X40522Y4427*
X40676Y44069*
X40877Y43915*
X41111Y43818*
X41361Y43785*
X41612Y43818*
X41846Y43915*
X42047Y44069*
X42201Y4427*
X42298Y44503*
X42331Y44754*
Y46177*
X423Y4641*
X42318Y46464*
X42367Y46537*
X42896*
X42945Y46464*
X42963Y4641*
X42932Y46177*
Y44754*
X42965Y44503*
X43062Y4427*
X43216Y44069*
X43417Y43915*
X43651Y43818*
X43901Y43785*
X44152Y43818*
X44386Y43915*
X44587Y44069*
X44741Y4427*
X44838Y44503*
X44871Y44754*
Y46177*
X44838Y46428*
X44741Y46661*
X44646Y46785*
X44726Y46889*
X44726*
X44957Y46859*
X45188Y46889*
X45404Y46978*
X45589Y4712*
X4573Y47305*
X4582Y4752*
X4585Y47751*
X4582Y47982*
X4573Y48198*
X45589Y48383*
X45404Y48525*
X45188Y48614*
X44957Y48644*
X44726Y48614*
X44511Y48525*
X44326Y48383*
X44184Y48198*
X44168Y48159*
X43898*
X43742Y48128*
X43728Y48119*
X43642Y4815*
X43601Y48187*
Y49479*
X43568Y4973*
X43471Y49963*
X43317Y50164*
X43116Y50318*
X42882Y50415*
X42631Y50448*
X42381Y50415*
X42147Y50318*
X41946Y50164*
X41792Y49963*
X41695Y4973*
X41662Y49479*
Y48056*
X41693Y47823*
X41675Y47769*
X41626Y47696*
X41097*
X41048Y47769*
X4103Y47823*
X41061Y48056*
Y49479*
X41028Y4973*
X40931Y49963*
X40777Y50164*
X40576Y50318*
X40342Y50415*
X40091Y50448*
X39841Y50415*
X39607Y50318*
X39406Y50164*
X39252Y49963*
X39155Y4973*
X39122Y49479*
Y48056*
X39153Y47823*
X39135Y47769*
X39086Y47696*
X38557*
X38508Y47769*
X3849Y47823*
X38521Y48056*
Y49479*
X38488Y4973*
X38391Y49963*
X38237Y50164*
X38036Y50318*
X37959Y5035*
Y51053*
X37933Y51184*
X37928Y5121*
X3784Y51342*
X36981Y52201*
X36127Y53054*
X35995Y53143*
X35969Y53148*
X35839Y53174*
X34423*
X34407Y53212*
X34265Y53397*
X3408Y53539*
X33865Y53628*
X33634Y53659*
X33509Y53642*
X33413Y53726*
Y55407*
X33773Y55766*
X33889Y5594*
X3393Y56145*
X33889Y56349*
X33773Y56523*
X33599Y56639*
X33394Y5668*
X33364Y5671*
X33323Y56915*
X33207Y57089*
X33034Y57205*
X32918Y57228*
X3282Y57267*
X32781Y57365*
X32758Y57481*
X32642Y57654*
X32468Y57771*
X32263Y57811*
X32215Y57931*
X3221Y57955*
X32989Y58734*
X33066Y58696*
X33103Y58668*
X33133Y58442*
X33222Y58227*
X33364Y58042*
X33549Y579*
X33764Y57811*
X33995Y57781*
X34226Y57811*
X34442Y579*
X34627Y58042*
X34769Y58227*
X34858Y58442*
X34888Y58673*
X34875Y58774*
X34976Y58852*
X35034Y58827*
X35265Y58797*
X35496Y58827*
X35712Y58916*
X35897Y59058*
X36039Y59243*
X36128Y59458*
X36158Y59689*
X36128Y5992*
X36112Y59959*
X37508Y61355*
X37705*
X37802Y61374*
X37991Y61337*
X38021Y61306*
X38062Y61102*
X38178Y60928*
X38351Y60812*
X38556Y60771*
X38761Y60812*
X38935Y60928*
X39713Y61706*
X39829Y61879*
X39869Y62084*
X39829Y62289*
X39713Y62463*
X39539Y62579*
X39334Y6262*
X39304Y6265*
X39263Y62855*
X39147Y63028*
X38973Y63145*
X38768Y63185*
X3872Y63305*
X387Y63404*
X3872Y63502*
Y64405*
X38798Y64415*
X39014Y64504*
X39199Y64646*
X3934Y64831*
X3943Y65046*
X3946Y65277*
X3943Y65508*
X3934Y65724*
X39199Y65909*
X39014Y6605*
X38798Y6614*
X38567Y6617*
X38336Y6614*
X38121Y6605*
X37936Y65909*
X37794Y65724*
X37705Y65508*
X37675Y65277*
X37705Y65046*
X37794Y64831*
X37904Y64688*
Y64375*
X37777Y64289*
X37637Y64317*
X37607Y64347*
X37566Y64552*
X3745Y64726*
X37276Y64842*
X37071Y64882*
X37041Y64913*
X37Y65118*
X36884Y65291*
X36711Y65407*
X36506Y65448*
X36457Y65568*
X36453Y65591*
X36741Y6588*
X368Y65968*
X3683Y66012*
X36861Y66168*
Y6831*
X36978Y68359*
X37287Y6805*
X38324*
X38724Y6845*
X39983*
Y68321*
X4001Y68185*
X40086Y6807*
X40201Y67994*
X40337Y67967*
X40766*
X42248Y66484*
Y63562*
X40766Y6208*
X40337*
X40201Y62053*
X40086Y61976*
X4001Y61862*
X39983Y61726*
Y60371*
X4001Y60235*
X40086Y6012*
X40201Y60044*
X40337Y60017*
X41442*
X41578Y60044*
X41692Y6012*
X41769Y60235*
X41796Y60371*
Y61308*
X43336Y62848*
X43474Y63055*
X43523Y63298*
Y66748*
X43474Y66992*
X43336Y67199*
X41796Y68739*
Y69676*
X41769Y69812*
X41692Y69926*
X41578Y70003*
X41442Y7003*
X40337*
X40201Y70003*
X40086Y69926*
X4001Y69812*
X39992Y69725*
X38724*
X38324Y70125*
X37287*
X36978Y69816*
X36861Y69865*
Y7044*
X3683Y70596*
X368Y7064*
X36741Y70728*
X36303Y71167*
Y72146*
X35832Y72617*
X35885Y72744*
X37903*
X39757Y70889*
Y70165*
X40957*
Y71565*
X40234*
X3836Y7344*
X38228Y73528*
X38202Y73533*
X38219Y73659*
X55879*
G37*
G36*
X126491Y59435D02*
X128523D01*
Y55371*
X127761Y54609*
X125475*
X124713Y55371*
X122681*
Y58927*
X121453Y60155*
X120724*
X120649Y6023*
Y6118*
X12468*
X124713Y61213*
X126491Y59435*
G37*
G36*
X97789Y73659D02*
Y55969D01*
X977Y55879*
X91439*
X90677Y56641*
Y7357*
X90767Y73659*
X97789*
G37*
G36*
X119634Y7357D02*
X119633Y54101D01*
X98387*
X98297Y54191*
Y73659*
X119544*
X119634Y7357*
G37*
G36*
X30278Y55491D02*
X30851Y56063D01*
X30968Y56014*
Y52664*
X28335Y5003*
X28169Y50044*
X28077Y50164*
X27876Y50318*
X27799Y5035*
Y52433*
X27768Y52589*
X2768Y52722*
X26275Y54126*
Y54412*
X26393Y54461*
X26932Y53922*
X26995Y53985*
X27147Y53884*
X27342Y53846*
X28153*
X28349Y53884*
X28514Y53995*
X29083Y54564*
X29218Y5443*
X30066Y55278*
X29322Y56022*
X29336Y56188*
X2944Y56268*
X29498Y56271*
X30278Y55491*
G37*
G36*
X68247Y62447D02*
X69403Y6129D01*
Y60855*
X70044*
X70103Y60844*
X70163Y60855*
X70803*
X70865Y60754*
Y58001*
X70776Y57911*
X69387*
X69209Y5809*
Y5809*
X69135Y58139*
X6901Y58223*
X68909Y58243*
X68776Y58269*
X68659Y58284*
Y58357*
X67359*
X67259*
X67232*
X66879*
X66805Y58388*
X66792Y5839*
Y62935*
X66898Y63006*
X68247Y62447*
G37*
G36*
X60197Y44851D02*
X60093Y44807D01*
X5629*
X562Y44897*
Y48922*
Y48922*
Y48955*
X56133Y49021*
X561*
X55823*
X55739Y49117*
X55756Y49247*
X55726Y49478*
X55637Y49693*
X55495Y49878*
X5531Y5002*
X55094Y50109*
X54863Y50139*
X54632Y50109*
X54417Y5002*
X54232Y49878*
X5409Y49693*
X54001Y49478*
X53971Y49247*
X53988Y49117*
X53904Y49021*
X52287*
X52193Y49145*
X52008Y49286*
X51792Y49376*
X51561Y49406*
X5133Y49376*
X51115Y49286*
X5093Y49145*
X50836Y49021*
X50788Y4896*
X50699Y48744*
X50669Y48513*
X50699Y48282*
X50788Y48067*
X5093Y47882*
X51053Y47788*
Y4645*
X50926Y46341*
X50799Y46358*
X50568Y46328*
X50353Y46239*
X50168Y46097*
X50026Y45912*
X49937Y45696*
X49907Y45465*
X49937Y45234*
X50026Y45019*
X50168Y44834*
X50353Y44692*
X50568Y44603*
X50799Y44573*
X50926Y4459*
X51053Y44481*
Y43433*
Y41636*
X50936Y41588*
X50378Y42146*
X50386Y42272*
X50415Y42294*
X50556Y42479*
X50646Y42694*
X50676Y42925*
X50646Y43156*
X50556Y43372*
X50415Y43557*
X5023Y43699*
X50014Y43788*
X49783Y43818*
X49552Y43788*
X49337Y43699*
X49152Y43557*
X4901Y43372*
X48921Y43156*
X48891Y42925*
X48921Y42694*
X4901Y42479*
X49152Y42294*
X49337Y42152*
X49381Y42134*
X49402Y42033*
X49407Y42007*
X49495Y41875*
X51053Y40317*
Y33019*
Y23367*
Y18648*
X47333*
X22605*
Y22499*
X47243*
Y22605*
X47751*
Y41917*
X48129Y42294*
X4827Y42479*
X4836Y42694*
X4839Y42925*
Y49111*
Y50628*
Y51307*
Y57911*
X51852*
X51946Y57788*
X52131Y57646*
X52346Y57557*
X52577Y57527*
X52808Y57557*
X53024Y57646*
X53209Y57788*
X53303Y57911*
X56133*
Y61975*
X60197*
Y44851*
G37*
%LNlv1-2*%
%LPC*%
G36*
X35162Y57246D02*
X34957Y57205D01*
X34784Y57089*
X34668Y56915*
X34627Y5671*
X34596Y5668*
X34392Y56639*
X34218Y56523*
X34102Y56349*
X34061Y56145*
X34102Y5594*
X34218Y55766*
X34578Y55407*
Y55224*
X34526Y55218*
X34311Y55129*
X34126Y54987*
X33984Y54802*
X33895Y54586*
X33865Y54355*
X33895Y54124*
X33984Y53909*
X34126Y53724*
X34311Y53582*
X34526Y53493*
X34757Y53463*
X34988Y53493*
X35204Y53582*
X35389Y53724*
X35531Y53909*
X3562Y54124*
X3565Y54355*
X3562Y54586*
X35557Y54738*
X35576Y54852*
X35617Y54898*
X35753Y54988*
X35869Y55162*
X3591Y55367*
X3594Y55397*
X36145Y55438*
X36318Y55554*
X36435Y55728*
X36475Y55932*
X36435Y56137*
X36318Y56311*
X35541Y57089*
X35367Y57205*
X35162Y57246*
G37*
G36*
X43965Y71725D02*
X42246D01*
Y71565*
X41257*
Y70165*
X42246*
Y70006*
X43965*
Y71725*
G37*
G36*
X81349Y17852D02*
X78969D01*
Y16182*
X81349*
Y17852*
G37*
G36*
X64007Y61598D02*
X63776Y61568D01*
X63561Y61478*
X63376Y61337*
X63234Y61152*
X63145Y60936*
X63115Y60705*
X63145Y60474*
X63234Y60259*
X63376Y60074*
X63561Y59932*
X63776Y59843*
X64007Y59813*
X64238Y59843*
X64454Y59932*
X64631Y60068*
X65277*
X65294Y60071*
X65993*
Y61371*
X64593*
X645Y61443*
X64454Y61478*
X64238Y61568*
X64007Y61598*
G37*
G36*
X64261Y28832D02*
X6403Y28802D01*
X63815Y28713*
X6363Y28571*
X63488Y28386*
X63399Y2817*
X63369Y27939*
X63399Y27708*
X63488Y27493*
X6363Y27308*
X63815Y27166*
X6403Y27077*
X64261Y27047*
X64492Y27077*
X64708Y27166*
X64885Y27302*
X66039*
X66056Y27305*
X66755*
Y28605*
X65355*
Y28577*
X64885*
X64708Y28713*
X64492Y28802*
X64261Y28832*
G37*
G36*
X64007Y6363D02*
X63776Y636D01*
X63561Y63511*
X63376Y63369*
X63234Y63184*
X63145Y62968*
X63115Y62737*
X63145Y62506*
X63234Y62291*
X63376Y62106*
X63561Y61964*
X63776Y61875*
X64007Y61845*
X64238Y61875*
X64454Y61964*
X64455Y61965*
X65293*
X65489Y61991*
X65672Y62066*
X65678Y62071*
X65993*
Y62452*
X66024Y62526*
X6605Y62721*
X66024Y62917*
X65993Y62991*
Y63371*
X65678*
X65672Y63377*
X65489Y63452*
X65293Y63478*
X64496*
X64454Y63511*
X64238Y636*
X64007Y6363*
G37*
G36*
X38556Y6064D02*
X38351Y60599D01*
X38178Y60483*
X38062Y60309*
X38021Y60104*
X37991Y60074*
X37786Y60033*
X37612Y59917*
X37496Y59744*
X37455Y59539*
X37425Y59508*
X3722Y59468*
X37046Y59352*
X3693Y59178*
X3689Y58973*
X3693Y58768*
X37046Y58595*
X37824Y57817*
X37933Y57744*
X38312Y57365*
Y56853*
X38158Y56699*
X37522Y57334*
X3745Y57442*
X36672Y5822*
X36498Y58336*
X36294Y58377*
X36089Y58336*
X35915Y5822*
X35799Y58047*
X35758Y57842*
X35799Y57637*
X35915Y57463*
X36693Y56685*
X36801Y56613*
X37239Y56176*
Y56049*
X37092Y55902*
X37626Y55367*
X37686Y55278*
X42017Y50947*
X42182Y50836*
X42377Y50798*
X44212*
X44305Y50676*
X4449Y50534*
X44705Y50445*
X44936Y50415*
X45167Y50445*
X45383Y50534*
X45568Y50676*
X45709Y50861*
X45799Y51076*
X45829Y51307*
X45799Y51538*
X45709Y51754*
X45568Y51939*
X45383Y52081*
X45167Y5217*
X44936Y522*
X44705Y5217*
X4449Y52081*
X44305Y51939*
X44212Y51817*
X42589*
X39643Y54763*
X39692Y5488*
X40443*
Y57387*
X40449Y57465*
Y57511*
Y58323*
X40567Y58371*
X40749Y58189*
Y57465*
X41153*
X41248Y57387*
Y5488*
X42459*
Y57387*
X42261*
Y57661*
X4223Y57818*
X42142Y5795*
X41949Y58142*
Y58865*
X41226*
X40622Y5947*
X4049Y59558*
X40464Y59563*
X40333Y59589*
X3979*
X39713Y59705*
X38935Y60483*
X38761Y60599*
X38556Y6064*
G37*
G36*
X81389Y50564D02*
X79009D01*
Y48894*
X81389*
Y50564*
G37*
G36*
X64261Y30864D02*
X6403Y30834D01*
X63815Y30745*
X6363Y30603*
X63488Y30418*
X63399Y30202*
X63369Y29971*
X63399Y2974*
X63488Y29525*
X6363Y2934*
X63815Y29198*
X6403Y29109*
X64261Y29079*
X64492Y29109*
X64708Y29198*
X64709Y29199*
X66055*
X66251Y29225*
X66434Y293*
X6644Y29305*
X66755*
Y29686*
X66786Y2976*
X66812Y29955*
X66786Y30151*
X66755Y30225*
Y30605*
X6644*
X66434Y30611*
X66251Y30686*
X66055Y30712*
X6475*
X64708Y30745*
X64492Y30834*
X64261Y30864*
G37*
%LNlv1-3*%
%LPD*%
G54D10*
X103123Y27939D03*
X100837Y62991D03*
G54D11*
X99141Y28859D03*
Y27019D03*
X96855Y63911D03*
Y62071D03*
G54D12*
X41147Y20446D03*
Y25259D03*
G54D13*
X38734Y30987D03*
X43547D03*
X40258Y38353D03*
X45071D03*
G54D14*
X114819Y19049D03*
X116319D03*
X117613D03*
X119113D03*
X62725Y42163D03*
X61225D03*
X68821Y26923D03*
X67321D03*
X52565Y59943D03*
X51065D03*
X75703Y60197D03*
X77203D03*
X26641Y68579D03*
X28141D03*
X41349Y58165D03*
X39849D03*
X40357Y70865D03*
X41857D03*
X24355Y57911D03*
X25855D03*
X122161Y44957D03*
X120661D03*
X120891Y60705D03*
X119391D03*
X67297Y59435D03*
X65797D03*
X77313Y27631D03*
X75813D03*
G54D15*
X118871Y17191D03*
X117601D03*
X116331D03*
X115061D03*
X118871Y12191D03*
X117601D03*
X116331D03*
G54D16*
X115061Y12191D03*
G54D17*
X112583Y12191D03*
X113983D03*
X68294Y24805D03*
X66894D03*
X66609Y57657D03*
X68009D03*
X32573Y42925D03*
X33973D03*
G54D18*
X107441Y54689D03*
Y51989D03*
X108203Y22431D03*
Y19731D03*
X67339Y23107D03*
Y20407D03*
X99313Y51989D03*
Y54689D03*
X102361Y51989D03*
Y54689D03*
X67563Y55959D03*
Y53259D03*
X102615Y19731D03*
Y22431D03*
X99567Y19731D03*
Y22431D03*
G54D19*
X123861Y48513D03*
X118961D03*
X123607Y57149D03*
X118707D03*
G54D20*
X24383Y40701D03*
Y37021D03*
X62483Y55687D03*
Y52007D03*
G54D21*
X34611Y30225D03*
X30411D03*
X63567Y70103D03*
X59367D03*
X63821Y36575D03*
X59621D03*
G54D22*
X60513Y30479D03*
X56833D03*
G54D23*
X70357Y51295D03*
Y49795D03*
X77245Y25809D03*
Y24309D03*
Y23015D03*
Y21515D03*
X52069Y47485D03*
Y45985D03*
X70103Y59955D03*
Y61455D03*
X77298Y54367D03*
Y55867D03*
Y57161D03*
Y58661D03*
X70213Y28635D03*
Y27135D03*
G54D24*
X67293Y61721D03*
X65293Y62721D03*
Y60721D03*
X68055Y28955D03*
X66055Y29955D03*
Y27955D03*
X54609Y46035D03*
Y47435D03*
X51307Y62799D03*
Y64199D03*
G54D25*
X70103Y58419D03*
Y57149D03*
Y55879D03*
Y54609D03*
X7531Y58419D03*
Y57149D03*
Y55879D03*
Y54609D03*
X7534Y21757D03*
Y23027D03*
Y24297D03*
Y25567D03*
X70133Y21757D03*
Y23027D03*
Y24297D03*
Y25567D03*
G54D26*
X72707Y56514D03*
X72737Y23662D03*
G54D27*
X96519Y26937D03*
Y24457D03*
Y21977D03*
Y19497D03*
Y17017D03*
X80159Y26937D03*
Y24457D03*
Y21977D03*
Y19497D03*
Y17017D03*
X80199Y49729D03*
Y52209D03*
Y54689D03*
Y57169D03*
Y59649D03*
X96559Y49729D03*
Y52209D03*
Y54689D03*
Y57169D03*
Y59649D03*
G54D28*
X75703Y40385D03*
X77203D03*
X77711Y72135D03*
X76211D03*
G54D29*
X85677Y72389D03*
X82977D03*
X82215Y40385D03*
X84915D03*
G54D30*
X27369Y64538D03*
X2843Y63477D03*
G54D31*
X79553Y68579D03*
X86053D03*
X79045Y36321D03*
X85545D03*
G54D32*
X104901Y54739D03*
Y51939D03*
X105409Y22735D03*
Y19935D03*
G54D33*
X58165Y41741D03*
Y46141D03*
Y64937D03*
Y60537D03*
G54D34*
X38046Y55866D03*
X37056Y54876D03*
G54D35*
X30172Y65036D03*
X29182Y66026D03*
G54D36*
X26861Y54841D03*
X27922Y55902D03*
X29147Y55349D03*
X30208Y5641D03*
G54D37*
X27645Y72186D03*
Y70069D03*
G54D38*
X86491Y45211D03*
X90291D03*
X89031Y32003D03*
X92831D03*
G54D39*
X74617Y32203D03*
X79017D03*
X75523Y64261D03*
X79923D03*
G54D40*
X51989Y45145D03*
G54D41*
X51989Y44195D03*
Y43245D03*
X54689Y45145D03*
Y43245D03*
G54D42*
X52643Y61387D03*
G54D43*
X53593Y61387D03*
X54543D03*
X52643Y64087D03*
X54543D03*
G54D44*
X45389Y68998D03*
Y61048D03*
X40889Y68998D03*
Y61048D03*
G54D45*
X33006Y55756D03*
X3244Y56321D03*
X31874Y56887D03*
X31308Y57453D03*
X30743Y58018D03*
X30177Y58584D03*
X29611Y5915D03*
X29046Y59715D03*
X34985Y65655D03*
X35551Y6509D03*
X36117Y64524D03*
X36682Y63958D03*
X37248Y63392D03*
X37814Y62827D03*
X3838Y62261D03*
X38945Y61695D03*
G54D46*
X29046Y61695D03*
X29611Y62261D03*
X30177Y62827D03*
X30743Y63392D03*
X31308Y63958D03*
X31874Y64524D03*
X3244Y6509D03*
X33006Y65655D03*
X38945Y59715D03*
X3838Y5915D03*
X37814Y58584D03*
X37248Y58018D03*
X36682Y57453D03*
X36117Y56887D03*
X35551Y56321D03*
X34985Y55756D03*
G54D47*
X45222Y70865D03*
X43105D03*
G54D48*
X41853Y56133D03*
X40853D03*
X39837D03*
G54D49*
X35331Y4069D03*
X33019D03*
X30708D03*
G54D50*
X33019Y34467D03*
G54D51*
X116331Y10921D02*
Y12191D01*
X115823Y10413D02*
X116331Y10921D01*
X109727Y10413D02*
X115823D01*
X113983Y12191D02*
X115061D01*
X113983D02*
D01*
X117601Y10413D02*
Y12191D01*
X118871Y15493D02*
X119633D01*
X116319Y15991D02*
Y19049D01*
X113969Y21005D02*
X121411Y28447D01*
X113969Y16711D02*
Y21005D01*
Y16711D02*
X114689Y15991D01*
X116319*
X123951Y19811D02*
Y22097D01*
X119633Y15493D02*
X123951Y19811D01*
X118363Y15493D02*
X118871D01*
X117601Y16255D02*
X118363Y15493D01*
X117601Y16255D02*
Y17191D01*
X121411Y22859D02*
Y23367D01*
X119113Y20561D02*
X121411Y22859D01*
X119113Y18287D02*
Y20561D01*
X118871Y24637D02*
X123951D01*
X114819Y20585D02*
X118871Y24637D01*
X114819Y18287D02*
Y20585D01*
X119113Y19049D02*
X119125Y19037D01*
Y18033D02*
Y19037D01*
X118871Y17779D02*
X119125Y18033D01*
X118871Y17191D02*
Y17779D01*
X117601Y19037D02*
X117613Y19049D01*
X117601Y17191D02*
Y19037D01*
X114807D02*
X114819Y19049D01*
X114807Y18033D02*
Y19037D01*
Y18033D02*
X115061Y17779D01*
Y17191D02*
Y17779D01*
X54609Y46535D02*
X55267D01*
X54609Y46035D02*
Y46535D01*
Y46035D02*
X54689Y45955D01*
Y45145D02*
Y45955D01*
X54863Y49031D02*
Y49247D01*
Y49031D02*
X55559Y48335D01*
Y46828D02*
Y48335D01*
X55267Y46535D02*
X55559Y46828D01*
X51307Y64199D02*
D01*
Y65785*
X50799Y45465D02*
X51669D01*
X51989Y45145*
X52069Y45225*
Y45985*
X52531Y64199D02*
X52643Y64087D01*
X51307Y64199D02*
X52531D01*
X52565Y59943D02*
X52643Y60021D01*
Y61387*
X29931Y67598D02*
X3244Y6509D01*
X29931Y70103D02*
X31455Y71627D01*
X32725*
X29931Y70103D02*
D01*
X36682Y57453D02*
X38046Y56089D01*
Y55866D02*
Y56089D01*
X26861Y54836D02*
Y54841D01*
X28153Y54355D02*
X29147Y55349D01*
X27342Y54355D02*
X28153D01*
X26861Y54836D02*
X27342Y54355D01*
X26856Y54846D02*
X26861Y54841D01*
X26856Y54846D02*
Y56724D01*
X26902Y5677*
X38046Y55638D02*
Y55866D01*
Y55638D02*
X42377Y51307D01*
X44936*
X28407Y68325D02*
X29931D01*
Y70103*
Y67598D02*
Y68325D01*
X26629Y65277D02*
X27369Y64538D01*
X26629Y65277D02*
Y66547D01*
X28407Y68325*
X37814Y58584D02*
X38821Y57576D01*
Y56641D02*
Y57576D01*
X38046Y55866D02*
X38821Y56641D01*
X38046Y55866D02*
D01*
X25105Y62274D02*
X27369Y64538D01*
X23581Y44449D02*
Y57911D01*
X24343*
X23581D02*
Y6075D01*
X27369Y64538*
X23581Y44449D02*
X25105Y42925D01*
X32279*
X33019Y42185*
Y4069D02*
Y42185D01*
X36281Y45465D02*
X40853Y40893D01*
X41909*
G54D52*
X115061Y12191D02*
Y13626D01*
X64261Y29971D02*
X64277Y29955D01*
X66055*
X64007Y62737D02*
X64023Y62721D01*
X65293*
X65617Y24805D02*
X66894D01*
X65531Y57657D02*
X66609D01*
G54D53*
X117093Y14985D02*
X118871Y13207D01*
X114045Y14985D02*
X117093D01*
X112583Y13523D02*
X114045Y14985D01*
X112075Y11683D02*
X112583Y12191D01*
X88137Y11683D02*
X112075D01*
X86359Y13461D02*
X88137Y11683D01*
X86359Y13461D02*
Y14223D01*
X112583Y12191D02*
Y13523D01*
X118871Y12191D02*
Y13207D01*
X52069Y47485D02*
X52119Y47435D01*
X54609*
X51561Y48513D02*
X52069Y48005D01*
Y47485D02*
Y48005D01*
X66039Y27939D02*
X66055Y27955D01*
X64261Y27939D02*
X66039D01*
X65277Y60705D02*
X65293Y60721D01*
X64007Y60705D02*
X65277D01*
X37805Y69087D02*
X40546D01*
X40635Y68998*
Y61048D02*
X42885Y63298D01*
Y66748*
X40635Y68998D02*
X42885Y66748D01*
G54D54*
X69595Y20065D02*
X70133Y20603D01*
X34611Y30225D02*
X35373Y30987D01*
X38694*
X47497Y51307D02*
Y61975D01*
Y42925D02*
Y51307D01*
Y61975D02*
X51307Y65785D01*
X45465Y40893D02*
X47497Y42925D01*
X41909Y40893D02*
X45465D01*
X70133Y20603D02*
Y21757D01*
X70103Y53593D02*
Y54609D01*
X38694Y30987D02*
X40726Y28955D01*
X48473*
X40131Y38353D02*
X40385Y38607D01*
Y39369*
X41909Y40893*
X26415Y34221D02*
X30411Y30225D01*
X26415Y34221D02*
Y39431D01*
X25145Y40701D02*
X26415Y39431D01*
X24383Y40701D02*
X25145D01*
X30697*
G54D55*
X60959Y33527D02*
X6172Y34288D01*
X54101Y33527D02*
X60959D01*
X52577Y35051D02*
X54101Y33527D01*
X52577Y35051D02*
Y39369D01*
X49783Y42163D02*
X52577Y39369D01*
X49783Y42163D02*
Y42925D01*
X6172Y34288D02*
Y40539D01*
X62725Y41545*
Y42163*
X52565Y59943D02*
X52577Y59931D01*
Y58419D02*
Y59931D01*
X43898Y47751D02*
X44957D01*
X43092Y46945D02*
X43898Y47751D01*
X42165Y46945D02*
X43092D01*
X41822Y47288D02*
X42165Y46945D01*
X40895Y47288D02*
X41822D01*
X40552Y46945D02*
X40895Y47288D01*
X39625Y46945D02*
X40552D01*
X39282Y47288D02*
X39625Y46945D01*
X38355Y47288D02*
X39282D01*
X38012Y46945D02*
X38355Y47288D01*
X37085Y46945D02*
X38012D01*
X35262Y48767D02*
X37085Y46945D01*
X35011Y48767D02*
X35262D01*
X30947Y67713D02*
X33006Y65655D01*
X30947Y67713D02*
Y69595D01*
X31627Y70275*
X34078*
X35265Y69087*
X32725Y67915D02*
X34985Y65655D01*
X32725Y67915D02*
Y69087D01*
X35551Y6509D02*
Y65266D01*
X36453Y66168*
Y7044*
X35265Y71627D02*
X36453Y7044D01*
X38945Y59715D02*
X39225Y59435D01*
X41853Y56133D02*
Y57661D01*
X41349Y58165D02*
X41853Y57661D01*
X39837Y56133D02*
Y58153D01*
X39849Y58165*
X3838Y5915D02*
X38556D01*
X2843Y63477D02*
X29611Y62296D01*
Y62261D02*
Y62296D01*
X30172Y65036D02*
X31251Y63958D01*
X31308*
X41857Y70865D02*
X43105D01*
X41857D02*
D01*
X38071Y73151D02*
X40357Y70865D01*
X35043Y73151D02*
X38071D01*
X34078Y72187D02*
X35043Y73151D01*
X34078Y70275D02*
Y72187D01*
X29527Y57934D02*
X30177Y58584D01*
X31308Y57453D02*
Y5763D01*
X32852Y59174D02*
Y59943D01*
X31308Y5763D02*
X32852Y59174D01*
X30265Y5641D02*
X31308Y57453D01*
X30208Y5641D02*
X30265D01*
X30566Y58018D02*
X30743D01*
X30285Y57384D02*
X30566Y57665D01*
X29404Y57384D02*
X30285D01*
X28919Y56899D02*
X29404Y57384D01*
X28809Y56899D02*
X28919D01*
X30566Y57665D02*
Y58018D01*
X28809Y56789D02*
Y56899D01*
X27922Y55902D02*
X28809Y56789D01*
X26883Y61975D02*
X28385Y63477D01*
X2843*
X29046Y61695D02*
X29196D01*
X30179Y60712*
X30467*
X29046Y59715D02*
Y59813D01*
X28407Y60451D02*
X29046Y59813D01*
X29611Y5915D02*
X29788D01*
Y59503D02*
X29933Y59648D01*
X31093*
X32424Y60978*
X33281*
X33887Y60372*
Y58781D02*
Y60372D01*
Y58781D02*
X33995Y58673D01*
X29788Y5915D02*
Y59503D01*
X31874Y64524D02*
X33915Y62483D01*
X33995*
X31874Y5671D02*
Y56887D01*
X31376Y56212D02*
X31874Y5671D01*
X31376Y52495D02*
Y56212D01*
X28503Y49621D02*
X31376Y52495D01*
X28503Y47596D02*
Y49621D01*
X26372Y45465D02*
X28503Y47596D01*
X26121Y45465D02*
X26372D01*
X31926Y55807D02*
X3244Y56321D01*
X31926Y50505D02*
Y55807D01*
X3136Y49939D02*
X31926Y50505D01*
X3136Y4791D02*
Y49939D01*
X28915Y45465D02*
X3136Y4791D01*
X28661Y45465D02*
X28915D01*
X33006Y53601D02*
Y55756D01*
X32599Y53195D02*
X33006Y53601D01*
X32599Y50922D02*
Y53195D01*
X31201Y45465D02*
X31452D01*
X33583Y47596D02*
Y49939D01*
X31452Y45465D02*
X33583Y47596D01*
X32599Y50922D02*
X33583Y49939D01*
X33634Y52766D02*
X35839D01*
X36693Y51912*
Y51912D02*
Y51912D01*
X37551Y48767D02*
Y51053D01*
X36693Y51912D02*
X37551Y51053D01*
X34985Y54583D02*
Y55756D01*
X34757Y54355D02*
X34985Y54583D01*
X38945Y59715D02*
X39479Y59181D01*
X40333*
X41349Y58165*
X39383Y58631D02*
X39849Y58165D01*
X39075Y58631D02*
X39383D01*
X38556Y5915D02*
X39075Y58631D01*
X37814Y62827D02*
Y63004D01*
X38312Y63502*
Y65022*
X38567Y65277*
X35265Y59689D02*
X37339Y61763D01*
X37705*
X38203Y62261*
X3838*
X25855Y57911D02*
X25867D01*
X27391Y48767D02*
Y52433D01*
X25867Y53957D02*
X27391Y52433D01*
X25867Y53957D02*
Y57899D01*
X25855Y57911D02*
X25867Y57899D01*
X25855Y57934D02*
X29527D01*
G54D56*
X61225Y42163D02*
Y43675D01*
X60959Y43941D02*
X61225Y43675D01*
X26641Y69573D02*
X27137Y70069D01*
X26641Y68579D02*
Y69573D01*
G54D57*
X62725Y42163D02*
X67055D01*
X70357Y45465*
Y49795*
G54D58*
X58165Y44957D02*
Y46141D01*
X57403Y44195D02*
X58165Y44957D01*
X53847Y44195D02*
X57403D01*
X52897Y43245D02*
X53847Y44195D01*
X51989Y43245D02*
X52897D01*
X58165Y41741D02*
Y42925D01*
X57403Y43687D02*
X58165Y42925D01*
X55879Y43687D02*
X57403D01*
X55437Y43245D02*
X55879Y43687D01*
X54689Y43245D02*
X55437D01*
X58165Y60537D02*
Y61975D01*
X57657Y62483D02*
X58165Y61975D01*
X55879Y62483D02*
X57657D01*
X54783Y61387D02*
X55879Y62483D01*
X54543Y61387D02*
X54783D01*
X58165Y63499D02*
Y64937D01*
X57657Y62991D02*
X58165Y63499D01*
X55919Y62991D02*
X57657D01*
X54823Y64087D02*
X55919Y62991D01*
X54543Y64087D02*
X54823D01*
G54D59*
X68691Y24407D02*
X70133D01*
X70139Y28635D02*
X70213D01*
X7534Y24297D02*
X75352Y24309D01*
X77245*
X7534Y23027D02*
X75352Y23015D01*
X77245*
X7534Y25567D02*
X75582Y25809D01*
X77245*
Y24309D02*
X77606D01*
X78469Y25173*
Y26475*
X77313Y27631D02*
X78469Y26475D01*
X68294Y24805D02*
X68691Y24407D01*
X70133Y24297D02*
Y24407D01*
X69284Y57149D02*
X70103D01*
X68776Y57657D02*
X69284Y57149D01*
X68009Y57657D02*
X68776D01*
X75322Y55867D02*
X77298D01*
X75322Y57161D02*
X77298D01*
X75552Y58661D02*
X77298D01*
X7531Y58419D02*
X7714D01*
X7531D02*
X75552Y58661D01*
X77203Y60197D02*
X77723D01*
X78509Y59411*
Y57451D02*
Y59411D01*
X78219Y57161D02*
X78509Y57451D01*
X77298Y57161D02*
X78219D01*
X67841Y63717D02*
X70103Y61455D01*
X67841Y63717D02*
Y65023D01*
Y30933D02*
X70139Y28635D01*
X67841Y30933D02*
Y32257D01*
G54D60*
X123951Y22097D03*
G54D61*
X121411Y23367D03*
X123951Y24637D03*
X121411Y25907D03*
X123951Y27177D03*
X121411Y28447D03*
X123951Y29717D03*
X121411Y30987D03*
G54D62*
X133351Y18747D03*
Y3434D03*
G54D63*
X130301Y20827D03*
Y32257D03*
G54D64*
X135127Y11937D03*
X134873Y72389D03*
X24383Y11683D03*
X24129Y72897D03*
G54D65*
X26121Y45465D03*
X28661D03*
X31201D03*
X33741D03*
X36281D03*
X38821D03*
X41361D03*
X43901D03*
X42631Y48767D03*
X40091D03*
X37551D03*
X35011D03*
X32471D03*
X29931D03*
X27391D03*
X24851D03*
G54D66*
X68071Y32257D03*
X70611D03*
X67817Y65023D03*
X70357D03*
G54D67*
X26415Y24764D03*
Y20954D03*
G54D68*
X127255Y47291D03*
X130095Y48676D03*
X127255Y50061D03*
X130095Y51446D03*
X127255Y52831D03*
X130095Y54216D03*
X127255Y55601D03*
X130095Y56986D03*
G54D69*
X127255Y58371D03*
G54D70*
X128675Y65326D03*
Y40336D03*
G54D71*
X32725Y69087D03*
Y71627D03*
X35265Y69087D03*
Y71627D03*
X37805Y69087D03*
Y71627D03*
G54D72*
X115061Y13626D03*
X86359Y14223D03*
X65023Y20065D03*
X69595D03*
X117601Y10413D03*
X109727D03*
X101853Y47497D03*
Y45973D03*
X102615Y36067D03*
Y37591D03*
Y39115D03*
X55879Y24383D03*
X54355D03*
X52577D03*
X45973Y34289D03*
X44957Y49529D03*
X49783Y42925D03*
X60959Y43941D03*
X38861Y50799D03*
X54863Y49247D03*
X51561Y48513D03*
X47497Y51307D03*
X41909Y40893D03*
X52577Y58419D03*
X44957Y47751D03*
X51307Y65785D03*
X50799Y45465D03*
X64261Y29971D03*
X64007Y62737D03*
X64261Y27939D03*
X64007Y60705D03*
X68071Y18795D03*
X66547D03*
X65531Y24891D03*
Y57657D03*
X101853Y49021D03*
X100329Y45973D03*
Y47497D03*
Y49021D03*
X32852Y59943D03*
X28809Y56899D03*
X26883Y61975D03*
X30467Y60712D03*
X28407Y60451D03*
X33634Y52766D03*
X33995Y58673D03*
Y62483D03*
X34757Y54355D03*
X38567Y65277D03*
X35265Y59689D03*
X26902Y5677D03*
X44936Y51307D03*
X24089Y68325D03*
X27899Y66039D03*
X45171Y53593D03*
X24089Y66801D03*
Y65277D03*
X23581Y56641D03*
X37591Y42417D03*
X32003Y37083D03*
X34035D03*
X35813D03*
X37591D03*
X30225D03*
X28447D03*
X87375Y33273D03*
Y31749D03*
Y30225D03*
X92963Y34543D03*
X94487Y34035D03*
Y32257D03*
Y30733D03*
G54D73*
X91693Y46481D03*
Y45211D03*
X91185Y47497D03*
X90169D03*
X85089Y45211D03*
Y46481D03*
X85597Y47497D03*
X86613D03*
M02*