%FSTAX23Y23*%
%MOMM*%
%SFA1B1*%

%IPPOS*%
%AMD26*
4,1,4,-0.071120,-0.563880,0.563880,0.071120,0.071120,0.563880,-0.563880,-0.071120,-0.071120,-0.563880,0.0*
%
%AMD32*
4,1,4,-0.599440,0.035560,0.035560,-0.599440,0.599440,-0.035560,-0.035560,0.599440,-0.599440,0.035560,0.0*
%
%AMD33*
4,1,4,0.035560,0.599440,-0.599440,-0.035560,-0.035560,-0.599440,0.599440,0.035560,0.035560,0.599440,0.0*
%
%AMD34*
4,1,4,0.563880,-0.071120,-0.071120,0.563880,-0.563880,0.071120,0.071120,-0.563880,0.563880,-0.071120,0.0*
%
%AMD42*
4,1,8,-0.650240,0.678180,-0.650240,-0.678180,-0.553720,-0.774700,0.553720,-0.774700,0.650240,-0.678180,0.650240,0.678180,0.553720,0.774700,-0.553720,0.774700,-0.650240,0.678180,0.0*
1,1,0.195000,-0.553720,0.678180*
1,1,0.195000,-0.553720,-0.678180*
1,1,0.195000,0.553720,-0.678180*
1,1,0.195000,0.553720,0.678180*
%
%AMD43*
4,1,4,-0.581660,-0.193040,-0.193040,-0.581660,0.581660,0.193040,0.193040,0.581660,-0.581660,-0.193040,0.0*
1,1,0.550000,-0.388620,-0.388620*
1,1,0.550000,0.388620,0.388620*
%
%AMD44*
4,1,4,0.193040,-0.581660,0.581660,-0.193040,-0.193040,0.581660,-0.581660,0.193040,0.193040,-0.581660,0.0*
1,1,0.550000,0.388620,-0.388620*
1,1,0.550000,-0.388620,0.388620*
%
%ADD10R,2.599995X1.099998*%
%ADD11R,3.499993X1.999996*%
%ADD12R,2.179996X1.519997*%
%ADD13R,1.549997X3.299993*%
%ADD14R,1.519997X2.179996*%
%ADD15R,0.899998X0.699999*%
%ADD16R,0.699999X0.899998*%
%ADD17R,0.899998X0.799998*%
%ADD18R,1.142998X0.761998*%
%ADD19R,2.260595X2.997194*%
%ADD20R,1.422397X3.022594*%
%ADD21R,1.879996X1.169998*%
%ADD22R,1.099998X1.399997*%
%ADD23R,0.799998X0.899998*%
%ADD24R,3.022594X1.422397*%
%ADD25R,1.099998X1.699997*%
G04~CAMADD=26~9~0.0~0.0~354.3~275.6~0.0~0.0~0~0.0~0.0~0.0~0.0~0~0.0~0.0~0.0~0.0~0~0.0~0.0~0.0~225.0~444.0~443.0*
%ADD26D26*%
%ADD27R,1.799996X3.199994*%
%ADD28R,1.199998X1.199998*%
%ADD29R,1.399997X1.389997*%
%ADD30R,4.859990X3.359993*%
%ADD31R,3.999992X3.099994*%
G04~CAMADD=32~9~0.0~0.0~354.3~315.0~0.0~0.0~0~0.0~0.0~0.0~0.0~0~0.0~0.0~0.0~0.0~0~0.0~0.0~0.0~135.0~472.0~471.0*
%ADD32D32*%
G04~CAMADD=33~9~0.0~0.0~354.3~315.0~0.0~0.0~0~0.0~0.0~0.0~0.0~0~0.0~0.0~0.0~0.0~0~0.0~0.0~0.0~45.0~472.0~471.0*
%ADD33D33*%
G04~CAMADD=34~9~0.0~0.0~354.3~275.6~0.0~0.0~0~0.0~0.0~0.0~0.0~0~0.0~0.0~0.0~0.0~0~0.0~0.0~0.0~315.0~444.0~443.0*
%ADD34D34*%
%ADD35R,1.219198X1.219198*%
%ADD36R,1.399997X3.299993*%
%ADD37R,2.099996X1.799996*%
%ADD38O,0.999998X0.549999*%
%ADD39R,0.999998X0.549999*%
%ADD40O,0.549999X0.999998*%
%ADD41R,0.549999X0.999998*%
G04~CAMADD=42~8~0.0~0.0~610.2~511.8~38.4~0.0~15~0.0~0.0~0.0~0.0~0~0.0~0.0~0.0~0.0~0~0.0~0.0~0.0~90.0~512.0~610.0*
%ADD42D42*%
G04~CAMADD=43~3~0.0~0.0~216.5~649.6~0.0~0.0~0~0.0~0.0~0.0~0.0~0~0.0~0.0~0.0~0.0~0~0.0~0.0~0.0~135.0~522.0~522.0*
%ADD43D43*%
G04~CAMADD=44~3~0.0~0.0~216.5~649.6~0.0~0.0~0~0.0~0.0~0.0~0.0~0~0.0~0.0~0.0~0.0~0~0.0~0.0~0.0~225.0~522.0~522.0*
%ADD44D44*%
%ADD45R,1.219198X1.219198*%
%ADD46R,0.711199X2.006596*%
%ADD47R,1.219198X2.235196*%
%ADD48R,3.606793X2.209796*%
%ADD49R,1.999996X3.499993*%
%LNlv1-1*%
%LPD*%
G54D10*
X86613Y44275D03*
Y41575D03*
X87375Y14049D03*
Y11349D03*
X46511Y12693D03*
Y09993D03*
X78485Y41575D03*
Y44275D03*
X81533Y41575D03*
Y44275D03*
X46735Y45545D03*
Y42845D03*
X82295Y11349D03*
Y14049D03*
X79247Y11349D03*
Y14049D03*
G54D11*
X93217Y15911D03*
Y11011D03*
G54D12*
X03555Y30287D03*
Y26607D03*
X41655Y45273D03*
Y41593D03*
G54D13*
X13783Y19811D03*
X09583D03*
X42739Y59689D03*
X38539D03*
X42993Y26161D03*
X38793D03*
G54D14*
X39685Y20065D03*
X36005D03*
G54D15*
X49529Y40881D03*
Y39381D03*
X56417Y15395D03*
Y13895D03*
Y12601D03*
Y11101D03*
X31241Y37071D03*
Y35571D03*
X49275Y49541D03*
Y51041D03*
X5647Y43953D03*
Y45453D03*
Y46747D03*
Y48247D03*
X89661Y13195D03*
Y11695D03*
X49385Y18221D03*
Y16721D03*
G54D16*
X41897Y31749D03*
X40397D03*
X47993Y16509D03*
X46493D03*
X31737Y49529D03*
X30237D03*
X54875Y49783D03*
X56375D03*
X05813Y58165D03*
X07313D03*
X20521Y47751D03*
X19021D03*
X19529Y60451D03*
X21029D03*
X03527Y47497D03*
X05027D03*
X89039Y49021D03*
X87539D03*
X46469D03*
X44969D03*
X56485Y17217D03*
X54985D03*
G54D17*
X46465Y51307D03*
X44465Y52307D03*
Y50307D03*
X47227Y18541D03*
X45227Y19541D03*
Y17541D03*
X33781Y35621D03*
Y37021D03*
X30479Y52385D03*
Y53785D03*
G54D18*
X49275Y48005D03*
Y46735D03*
Y45465D03*
Y44195D03*
X54482Y48005D03*
Y46735D03*
Y45465D03*
Y44195D03*
X54512Y11343D03*
Y12613D03*
Y13883D03*
Y15153D03*
X49305Y11343D03*
Y12613D03*
Y13883D03*
Y15153D03*
G54D19*
X51879Y461D03*
X51909Y13248D03*
G54D20*
X20319Y14845D03*
Y10032D03*
G54D21*
X75691Y16523D03*
Y14043D03*
Y11563D03*
Y09083D03*
Y06603D03*
X59331Y16523D03*
Y14043D03*
Y11563D03*
Y09083D03*
Y06603D03*
X59371Y39315D03*
Y41795D03*
Y44275D03*
Y46755D03*
Y49235D03*
X75731Y39315D03*
Y41795D03*
Y44275D03*
Y46755D03*
Y49235D03*
G54D22*
X54875Y29971D03*
X56375D03*
X56883Y61721D03*
X55383D03*
G54D23*
X47465Y14391D03*
X46066D03*
X45781Y47243D03*
X47181D03*
X11745Y32511D03*
X13145D03*
G54D24*
X17866Y20573D03*
X22679D03*
X1943Y27939D03*
X24243D03*
G54D25*
X64849Y61975D03*
X62149D03*
X61387Y29971D03*
X64087D03*
G54D26*
X06541Y54124D03*
X07602Y53063D03*
G54D27*
X58725Y58165D03*
X65225D03*
X58217Y25907D03*
X64717D03*
G54D28*
X84073Y44325D03*
Y41525D03*
X84835Y14099D03*
Y11299D03*
G54D29*
X75773Y51911D03*
Y53751D03*
X78313Y16605D03*
Y18445D03*
G54D30*
X79755Y52831D03*
X82295Y17525D03*
G54D31*
X37337Y31327D03*
Y35727D03*
Y54523D03*
Y50123D03*
G54D32*
X17218Y45452D03*
X16228Y44462D03*
G54D33*
X09344Y54622D03*
X08354Y55612D03*
G54D34*
X06033Y44427D03*
X07094Y45488D03*
X08319Y44935D03*
X0938Y45996D03*
G54D35*
X06817Y61772D03*
Y59655D03*
G54D36*
X65663Y34797D03*
X69463D03*
X68203Y21589D03*
X72003D03*
G54D37*
X53789Y21789D03*
X58189D03*
X54695Y53847D03*
X59095D03*
G54D38*
X31161Y34731D03*
G54D39*
X31161Y33781D03*
Y32831D03*
X33861Y34731D03*
Y32831D03*
G54D40*
X31815Y50973D03*
G54D41*
X32765Y50973D03*
X33715D03*
X31815Y53673D03*
X33715D03*
G54D42*
X24561Y58584D03*
Y50634D03*
X20061Y58584D03*
Y50634D03*
G54D43*
X12178Y45342D03*
X11612Y45907D03*
X11046Y46473D03*
X1048Y47039D03*
X09915Y47604D03*
X09349Y4817D03*
X08783Y48736D03*
X08218Y49302D03*
X14157Y55241D03*
X14723Y54676D03*
X15289Y5411D03*
X15854Y53544D03*
X1642Y52978D03*
X16986Y52413D03*
X17552Y51847D03*
X18117Y51281D03*
G54D44*
X08218Y51281D03*
X08783Y51847D03*
X09349Y52413D03*
X09915Y52978D03*
X1048Y53544D03*
X11046Y5411D03*
X11612Y54676D03*
X12178Y55241D03*
X18117Y49302D03*
X17552Y48736D03*
X16986Y4817D03*
X1642Y47604D03*
X15854Y47039D03*
X15289Y46473D03*
X14723Y45907D03*
X14157Y45342D03*
G54D45*
X24394Y60451D03*
X22277D03*
G54D46*
X21025Y45719D03*
X20025D03*
X19009D03*
G54D47*
X14503Y30276D03*
X12191D03*
X0988D03*
G54D48*
X12191Y24053D03*
G54D49*
X90079Y52577D03*
X85179D03*
M02*