%FSTAX23Y23*%
%MOMM*%
%SFA1B1*%

%IPPOS*%
%AMD133*
4,1,8,0.419100,0.838200,-0.419100,0.838200,-0.838200,0.419100,-0.838200,-0.419100,-0.419100,-0.838200,0.419100,-0.838200,0.838200,-0.419100,0.838200,0.419100,0.419100,0.838200,0.0*
%
%ADD86R,2.701595X1.201598*%
%ADD126C,3.101594*%
%ADD127O,1.523997X2.946394*%
%ADD128C,1.879596*%
%ADD129C,2.401595*%
%ADD130C,1.791596*%
%ADD131R,1.791596X1.791596*%
%ADD132C,4.861590*%
G04~CAMADD=133~4~0.0~0.0~660.0~660.0~0.0~165.0~0~0.0~0.0~0.0~0.0~0~0.0~0.0~0.0~0.0~0~0.0~0.0~0.0~0.0~660.0~660.0*
%ADD133D133*%
%ADD134C,1.371597*%
%ADD135C,0.901598*%
%LNlv1-1*%
%LPD*%
G54D86*
X90423Y27859D03*
Y30559D03*
X87375Y27859D03*
Y30559D03*
X84327Y27859D03*
Y30559D03*
X83565Y38273D03*
Y40973D03*
X86613Y38273D03*
Y40973D03*
X89661Y38273D03*
Y40973D03*
G54D126*
X95249Y04825D03*
X95503Y62229D03*
X03555Y04825D03*
X03301Y62483D03*
G54D127*
X05293Y35051D03*
X07833D03*
X10373D03*
X12913D03*
X15453D03*
X17993D03*
X20533D03*
X23073D03*
X21803Y38353D03*
X19263D03*
X16723D03*
X14183D03*
X11643D03*
X09103D03*
X06563D03*
X04023D03*
G54D128*
X47243Y21843D03*
X49783D03*
X46989Y54609D03*
X49529D03*
G54D129*
X05587Y1435D03*
Y1054D03*
G54D130*
X93219Y27733D03*
X96059Y29118D03*
X93219Y30503D03*
X96059Y31888D03*
X93219Y33273D03*
X96059Y34658D03*
X93219Y36043D03*
X96059Y37428D03*
G54D131*
X93219Y38813D03*
G54D132*
X94639Y45768D03*
Y20778D03*
G54D133*
X11897Y58673D03*
Y61213D03*
X14437Y58673D03*
Y61213D03*
X16977Y58673D03*
Y61213D03*
G54D134*
X81025Y37083D03*
Y35559D03*
X81787Y25653D03*
Y27177D03*
Y28701D03*
X35051Y13969D03*
X33527D03*
X31749D03*
X25145Y23875D03*
X24129Y39115D03*
X28955Y32511D03*
X40131Y33527D03*
X18033Y40385D03*
X34035Y38833D03*
X30733Y38099D03*
X26669Y40893D03*
X21081Y30479D03*
X31749Y48005D03*
X24129Y37337D03*
X30479Y55371D03*
X29971Y35051D03*
X43433Y19557D03*
X43179Y52323D03*
X43433Y17525D03*
X43179Y50291D03*
X44195Y09651D03*
X48767D03*
X47243Y08381D03*
X45719D03*
X44703Y14477D03*
Y47243D03*
X81025Y38607D03*
X79501Y35559D03*
Y37083D03*
Y38607D03*
X12024Y49529D03*
X07981Y46485D03*
X06055Y51561D03*
X09639Y50298D03*
X07579Y50037D03*
X12806Y42352D03*
X13167Y48259D03*
Y52069D03*
X13929Y43941D03*
X17739Y54863D03*
X14437Y49275D03*
X06074Y46356D03*
X24108Y40893D03*
X03261Y57911D03*
X07071Y55625D03*
X24343Y43179D03*
X03261Y56387D03*
Y54863D03*
X02753Y46227D03*
X16763Y32003D03*
X11175Y26669D03*
X13207D03*
X14985D03*
X16763D03*
X09397D03*
X07619D03*
X66547Y22859D03*
Y21335D03*
Y19811D03*
X72135Y24129D03*
X73659Y23621D03*
Y21843D03*
Y20319D03*
G54D135*
X70865Y36067D03*
Y34797D03*
X70357Y37083D03*
X69341D03*
X64261Y34797D03*
Y36067D03*
X64769Y37083D03*
X65785D03*
M02*