%FSTAX23Y23*%
%MOMM*%
%SFA1B1*%

%IPPOS*%
%AMD30*
4,1,4,-0.071120,-0.563880,0.563880,0.071120,0.071120,0.563880,-0.563880,-0.071120,-0.071120,-0.563880,0.0*
%
%AMD34*
4,1,4,-0.599440,0.035560,0.035560,-0.599440,0.599440,-0.035560,-0.035560,0.599440,-0.599440,0.035560,0.0*
%
%AMD35*
4,1,4,0.035560,0.599440,-0.599440,-0.035560,-0.035560,-0.599440,0.599440,0.035560,0.035560,0.599440,0.0*
%
%AMD36*
4,1,4,0.563880,-0.071120,-0.071120,0.563880,-0.563880,0.071120,0.071120,-0.563880,0.563880,-0.071120,0.0*
%
%AMD44*
4,1,8,-0.650240,0.675640,-0.650240,-0.675640,-0.551180,-0.774700,0.551180,-0.774700,0.650240,-0.675640,0.650240,0.675640,0.551180,0.774700,-0.551180,0.774700,-0.650240,0.675640,0.0*
1,1,0.200000,-0.551180,0.675640*
1,1,0.200000,-0.551180,-0.675640*
1,1,0.200000,0.551180,-0.675640*
1,1,0.200000,0.551180,0.675640*
%
%AMD45*
4,1,4,-0.581660,-0.193040,-0.193040,-0.581660,0.581660,0.193040,0.193040,0.581660,-0.581660,-0.193040,0.0*
1,1,0.550000,-0.388620,-0.388620*
1,1,0.550000,0.388620,0.388620*
%
%AMD46*
4,1,4,0.193040,-0.581660,0.581660,-0.193040,-0.193040,0.581660,-0.581660,0.193040,0.193040,-0.581660,0.0*
1,1,0.550000,0.388620,-0.388620*
1,1,0.550000,-0.388620,0.388620*
%
%ADD10R,4.859990X3.359993*%
%ADD11R,1.399997X1.389997*%
%ADD12R,1.419997X3.019994*%
%ADD13R,3.019994X1.419997*%
%ADD14R,0.699999X0.899998*%
%ADD15O,0.799998X1.399997*%
%ADD16R,0.799998X1.399997*%
%ADD17R,0.799998X0.899998*%
%ADD18R,2.599995X1.099998*%
%ADD19R,1.999996X3.499993*%
%ADD20R,2.179996X1.519997*%
%ADD21R,1.549997X3.299993*%
%ADD22R,1.519997X2.179996*%
%ADD23R,0.899998X0.699999*%
%ADD24R,0.899998X0.799998*%
%ADD25R,1.139998X0.759998*%
%ADD26R,2.259995X2.999994*%
%ADD27R,1.879996X1.169998*%
%ADD28R,1.099998X1.399997*%
%ADD29R,1.099998X1.699997*%
G04~CAMADD=30~9~0.0~0.0~354.3~275.6~0.0~0.0~0~0.0~0.0~0.0~0.0~0~0.0~0.0~0.0~0.0~0~0.0~0.0~0.0~225.0~444.0~443.0*
%ADD30D30*%
%ADD31R,1.799996X3.199994*%
%ADD32R,1.199998X1.199998*%
%ADD33R,3.999992X3.099994*%
G04~CAMADD=34~9~0.0~0.0~354.3~315.0~0.0~0.0~0~0.0~0.0~0.0~0.0~0~0.0~0.0~0.0~0.0~0~0.0~0.0~0.0~135.0~472.0~471.0*
%ADD34D34*%
G04~CAMADD=35~9~0.0~0.0~354.3~315.0~0.0~0.0~0~0.0~0.0~0.0~0.0~0~0.0~0.0~0.0~0.0~0~0.0~0.0~0.0~45.0~472.0~471.0*
%ADD35D35*%
G04~CAMADD=36~9~0.0~0.0~354.3~275.6~0.0~0.0~0~0.0~0.0~0.0~0.0~0~0.0~0.0~0.0~0.0~0~0.0~0.0~0.0~315.0~444.0~443.0*
%ADD36D36*%
%ADD37R,1.219998X1.219998*%
%ADD38R,1.399997X3.299993*%
%ADD39R,2.099996X1.799996*%
%ADD40O,0.999998X0.549999*%
%ADD41R,0.999998X0.549999*%
%ADD42O,0.549999X0.999998*%
%ADD43R,0.549999X0.999998*%
G04~CAMADD=44~8~0.0~0.0~610.2~511.8~39.4~0.0~15~0.0~0.0~0.0~0.0~0~0.0~0.0~0.0~0.0~0~0.0~0.0~0.0~90.0~512.0~610.0*
%ADD44D44*%
G04~CAMADD=45~3~0.0~0.0~216.5~649.6~0.0~0.0~0~0.0~0.0~0.0~0.0~0~0.0~0.0~0.0~0.0~0~0.0~0.0~0.0~135.0~522.0~522.0*
%ADD45D45*%
G04~CAMADD=46~3~0.0~0.0~216.5~649.6~0.0~0.0~0~0.0~0.0~0.0~0.0~0~0.0~0.0~0.0~0.0~0~0.0~0.0~0.0~225.0~522.0~522.0*
%ADD46D46*%
%ADD47R,1.219998X1.219998*%
%ADD48R,0.709999X2.009996*%
%ADD49R,1.219998X2.239996*%
%ADD50R,3.609993X2.209996*%
%LNlv1-1*%
%LPD*%
G54D10*
X103119Y27939D03*
X100839Y62989D03*
G54D11*
X99139Y28859D03*
Y27019D03*
X96859Y63909D03*
Y62069D03*
G54D12*
X41149Y20449D03*
Y25259D03*
G54D13*
X38739Y30989D03*
X43549D03*
X40259Y38349D03*
X45069D03*
G54D14*
X114819Y19049D03*
X116319D03*
X117609D03*
X119109D03*
X62729Y42159D03*
X61229D03*
X68819Y26919D03*
X67319D03*
X52569Y59939D03*
X51069D03*
X75699Y60199D03*
X77199D03*
X26639Y68579D03*
X28139D03*
X41349Y58169D03*
X39849D03*
X40359Y70869D03*
X41859D03*
X24359Y57909D03*
X25859D03*
X122159Y44959D03*
X120659D03*
X120889Y60709D03*
X119389D03*
X67299Y59439D03*
X65799D03*
X77309Y27629D03*
X75809D03*
G54D15*
X118869Y17189D03*
X117599D03*
X116329D03*
X115059D03*
X118869Y12189D03*
X117599D03*
X116329D03*
G54D16*
X115059Y12189D03*
G54D17*
X112579Y12189D03*
X113979D03*
X68289Y24809D03*
X66889D03*
X66609Y57659D03*
X68009D03*
X32569Y42929D03*
X33969D03*
G54D18*
X107439Y54689D03*
Y51989D03*
X108199Y22429D03*
Y19729D03*
X67339Y23109D03*
Y20409D03*
X99309Y51989D03*
Y54689D03*
X102359Y51989D03*
Y54689D03*
X67559Y55959D03*
Y53259D03*
X102619Y19729D03*
Y22429D03*
X99569Y19729D03*
Y22429D03*
G54D19*
X123859Y48509D03*
X118959D03*
X123609Y57149D03*
X118709D03*
G54D20*
X24379Y40699D03*
Y37019D03*
X62479Y55689D03*
Y52009D03*
G54D21*
X34609Y30229D03*
X30409D03*
X63569Y70099D03*
X59369D03*
X63819Y36579D03*
X59619D03*
G54D22*
X60509Y30479D03*
X56829D03*
G54D23*
X70359Y51299D03*
Y49799D03*
X77249Y25809D03*
Y24309D03*
Y23019D03*
Y21519D03*
X52069Y47489D03*
Y45989D03*
X70099Y59959D03*
Y61459D03*
X77299Y54369D03*
Y55869D03*
Y57159D03*
Y58659D03*
X70209Y28639D03*
Y27139D03*
G54D24*
X67289Y61719D03*
X65289Y62719D03*
Y60719D03*
X68059Y28959D03*
X66059Y29959D03*
Y27959D03*
X54609Y46039D03*
Y47439D03*
X51309Y62799D03*
Y64199D03*
G54D25*
X70099Y58419D03*
Y57149D03*
Y55879D03*
Y54609D03*
X75309Y58419D03*
Y57149D03*
Y55879D03*
Y54609D03*
X75339Y21759D03*
Y23029D03*
Y24299D03*
Y25569D03*
X70129Y21759D03*
Y23029D03*
Y24299D03*
Y25569D03*
G54D26*
X72709Y56509D03*
X72739Y23659D03*
G54D27*
X96519Y26939D03*
Y24459D03*
Y21979D03*
Y19499D03*
Y17019D03*
X80159Y26939D03*
Y24459D03*
Y21979D03*
Y19499D03*
Y17019D03*
X80199Y49729D03*
Y52209D03*
Y54689D03*
Y57169D03*
Y59649D03*
X96559Y49729D03*
Y52209D03*
Y54689D03*
Y57169D03*
Y59649D03*
G54D28*
X75699Y40389D03*
X77199D03*
X77709Y72139D03*
X76209D03*
G54D29*
X85679Y72389D03*
X82979D03*
X82219Y40389D03*
X84919D03*
G54D30*
X27369Y64539D03*
X28429Y63479D03*
G54D31*
X79549Y68579D03*
X86049D03*
X79049Y36319D03*
X85549D03*
G54D32*
X104899Y54739D03*
Y51939D03*
X105409Y22739D03*
Y19939D03*
G54D33*
X58169Y41739D03*
Y46139D03*
Y64939D03*
Y60539D03*
G54D34*
X38049Y55869D03*
X37059Y54879D03*
G54D35*
X30169Y65039D03*
X29179Y66029D03*
G54D36*
X26859Y54839D03*
X27919Y55899D03*
X29149Y55349D03*
X30209Y56409D03*
G54D37*
X27649Y72189D03*
Y70069D03*
G54D38*
X86489Y45209D03*
X90289D03*
X89029Y31999D03*
X92829D03*
G54D39*
X74619Y32199D03*
X79019D03*
X75519Y64259D03*
X79919D03*
G54D40*
X51989Y45149D03*
G54D41*
X51989Y44199D03*
Y43249D03*
X54689Y45149D03*
Y43249D03*
G54D42*
X52639Y61389D03*
G54D43*
X53589Y61389D03*
X54539D03*
X52639Y64089D03*
X54539D03*
G54D44*
X45389Y68999D03*
Y61049D03*
X40889Y68999D03*
Y61049D03*
G54D45*
X33009Y55759D03*
X32439Y56319D03*
X31869Y56889D03*
X31309Y57449D03*
X30739Y58019D03*
X30179Y58579D03*
X29609Y59149D03*
X29049Y59719D03*
X34989Y65659D03*
X35549Y65089D03*
X36119Y64519D03*
X36679Y63959D03*
X37249Y63389D03*
X37809Y62829D03*
X38379Y62259D03*
X38949Y61699D03*
G54D46*
X29049Y61699D03*
X29609Y62259D03*
X30179Y62829D03*
X30739Y63389D03*
X31309Y63959D03*
X31869Y64519D03*
X32439Y65089D03*
X33009Y65659D03*
X38949Y59719D03*
X38379Y59149D03*
X37809Y58579D03*
X37249Y58019D03*
X36679Y57449D03*
X36119Y56889D03*
X35549Y56319D03*
X34989Y55759D03*
G54D47*
X45219Y70869D03*
X43109D03*
G54D48*
X41849Y56129D03*
X40849D03*
X39839D03*
G54D49*
X35329Y40689D03*
X33019D03*
X30709D03*
G54D50*
X33019Y34469D03*
M02*