%FSTAX23Y23*%
%MOMM*%
%SFA1B1*%

%IPPOS*%
%AMD71*
4,1,8,0.393700,0.787400,-0.393700,0.787400,-0.787400,0.393700,-0.787400,-0.393700,-0.393700,-0.787400,0.393700,-0.787400,0.787400,-0.393700,0.787400,0.393700,0.393700,0.787400,0.0*
%
%ADD18R,2.599995X1.099998*%
%ADD51C,0.499999*%
%ADD52C,0.999998*%
%ADD54C,1.269997*%
%ADD55C,0.299999*%
%ADD56C,0.634999*%
%ADD60R,1.371597X1.371597*%
%ADD61C,1.371597*%
%ADD62C,2.400295*%
%ADD63C,3.251193*%
%ADD64C,2.999994*%
%ADD65O,1.422397X2.844794*%
%ADD66C,1.777996*%
%ADD67C,2.299995*%
%ADD68C,1.689997*%
%ADD69R,1.689997X1.689997*%
%ADD70C,4.759990*%
G04~CAMADD=71~4~0.0~0.0~620.0~620.0~0.0~155.0~0~0.0~0.0~0.0~0.0~0~0.0~0.0~0.0~0.0~0~0.0~0.0~0.0~0.0~620.0~620.0*
%ADD71D71*%
%ADD72C,1.269997*%
%ADD73C,0.799998*%
%LNlv1-1*%
%LPD*%
G36*
X35034Y58827D02*
X35265Y58797D01*
X35496Y58827*
X35535Y58843*
X40954Y53425*
Y50143*
X40827Y501*
X40777Y50164*
X40576Y50318*
X40499Y5035*
Y52577*
X40468Y52734*
X40439Y52777*
X4038Y52866*
X34842Y58404*
X34858Y58442*
X34888Y58673*
X34875Y58774*
X34976Y58852*
X35034Y58827*
G37*
G36*
X33188Y51993D02*
X33403Y51904D01*
X33634Y51873*
X33865Y51904*
X3408Y51993*
X34223Y52102*
X3435Y52046*
Y50968*
X33453Y50072*
X33419Y50021*
X33415Y50019*
X33267Y50021*
X33157Y50164*
X32956Y50318*
X32879Y5035*
Y52098*
X3296Y52126*
X33006Y52132*
X33188Y51993*
G37*
G36*
X102179Y73913D02*
D01*
X109024*
X123443*
X126713Y67078*
X126541Y66877*
X126325Y66524*
X126166Y66142*
X12607Y65739*
X126037Y65326*
X12607Y64914*
X126166Y64511*
X126325Y64129*
X126541Y63776*
X12681Y63461*
X127125Y63192*
X127478Y62976*
X12786Y62817*
X128263Y62721*
X128675Y62688*
X128807Y62699*
X129031Y62229*
X131571Y59689*
Y57403*
Y54355*
X130555Y53339*
X129793*
X129285Y53847*
Y60197*
X128523Y60959*
X116077*
X111759Y56641*
Y49529*
X109219Y46989*
X106171Y43941*
X102615*
X89751*
X89661Y44031*
Y73913*
X102179*
G37*
G36*
X42224Y53679D02*
Y5035D01*
X42147Y50318*
X41946Y50164*
X41896Y501*
X41769Y50143*
Y53593*
X41738Y5375*
X41709Y53793*
X4165Y53882*
X36112Y5942*
X36128Y59458*
X36144Y59579*
X36278Y59624*
X42224Y53679*
G37*
G36*
X128523Y50291D02*
Y46989D01*
X127761Y46227*
X117267*
X116759Y46735*
X116839Y46815*
Y51053*
X127761*
X128523Y50291*
G37*
G36*
X131317Y51815D02*
X131825Y51307D01*
Y36829*
X131063Y36067*
X111251*
X110489Y35305*
Y16509*
X107575Y13595*
X8928*
Y39788*
X8937Y39877*
X103542*
X103587Y39832*
X103632Y39877*
X107187*
X112267Y44957*
X127507*
X129031Y46481*
X129285Y46735*
Y52069*
X129793Y52577*
X130555*
X131317Y51815*
G37*
G36*
X38861Y38648D02*
Y34289D01*
X27685*
Y41147*
X27939Y41401*
X36108*
X38861Y38648*
G37*
G36*
X41946Y47371D02*
X42147Y47217D01*
X42381Y4712*
X42631Y47087*
X42882Y4712*
X43116Y47217*
X43317Y47371*
X43367Y47435*
X43494Y47392*
Y47048*
X43417Y47016*
X43216Y46862*
X43062Y46661*
X42965Y46428*
X42932Y46177*
Y44754*
X42965Y44503*
X43062Y4427*
X43216Y44069*
X43347Y43968*
X43304Y43841*
X41959*
X41916Y43968*
X42047Y44069*
X42201Y4427*
X42298Y44503*
X42331Y44754*
Y46177*
X42298Y46428*
X42201Y46661*
X42047Y46862*
X41846Y47016*
X41769Y47048*
Y47392*
X41896Y47435*
X41946Y47371*
G37*
G36*
X39684Y52409D02*
Y5035D01*
X39607Y50318*
X39406Y50164*
X39252Y49963*
X39155Y4973*
X39122Y49479*
Y48056*
X39155Y47805*
X39252Y47571*
X39406Y47371*
X39607Y47217*
X39684Y47185*
Y43981*
X3971Y43851*
X39715Y43825*
X39803Y43693*
X40351Y43145*
X40483Y43057*
X40496Y43054*
X40483Y42927*
X39581*
X38061Y44447*
Y47236*
X38237Y47371*
X38391Y47571*
X38488Y47805*
X38521Y48056*
Y49479*
X38488Y4973*
X38391Y49963*
X38237Y50164*
X38036Y50318*
X37802Y50415*
X37551Y50448*
X37301Y50415*
X37067Y50318*
X36866Y50164*
X36712Y49963*
X36615Y4973*
X36582Y49479*
Y48056*
X36615Y47805*
X36712Y47571*
X36866Y47371*
X37042Y47236*
Y46965*
X36915Y46902*
X36766Y47016*
X36532Y47113*
X36281Y47146*
X36031Y47113*
X35797Y47016*
X35596Y46862*
X35442Y46661*
X35345Y46428*
X35312Y46177*
Y44754*
X35345Y44503*
X35442Y4427*
X35596Y44069*
X35797Y43915*
X36031Y43818*
X36281Y43785*
X36532Y43818*
X36766Y43915*
X36948Y44054*
X3703Y44046*
X37092Y44023*
X37191Y43875*
X39009Y42057*
X39174Y41946*
X39369Y41908*
X4186*
X41868Y41781*
X41678Y41756*
X41463Y41666*
X41278Y41525*
X41136Y4134*
X41047Y41124*
X41017Y40893*
X41047Y40662*
X41136Y40447*
X41278Y40262*
X41463Y4012*
X41678Y40031*
X41909Y40001*
X51307*
X51538Y40031*
X5161Y40061*
X57657*
X57879Y40105*
X58067Y4023*
X60894Y43057*
X60959Y43049*
X6119Y43079*
X61406Y43168*
X61591Y4331*
X61599Y43322*
X6172Y43281*
Y32003*
X61758Y31808*
X61869Y31643*
X62929Y30583*
X62881Y30465*
X48487*
X35048Y43904*
X34883Y44014*
X34688Y44053*
X34575*
X34512Y4418*
X34581Y4427*
X34678Y44503*
X34711Y44754*
Y46177*
X34678Y46428*
X34581Y46661*
X34427Y46862*
X34226Y47016*
X34149Y47048*
Y47392*
X34276Y47435*
X34326Y47371*
X34527Y47217*
X34761Y4712*
X35011Y47087*
X35262Y4712*
X35496Y47217*
X35697Y47371*
X35851Y47571*
X35948Y47805*
X35981Y48056*
Y4916*
X36179Y49358*
X36267Y4949*
X36272Y49516*
X36298Y49646*
Y55289*
X36272Y55419*
X36267Y55445*
X36179Y55578*
X34091Y57665*
X34136Y57799*
X34226Y57811*
X34265Y57827*
X39684Y52409*
G37*
G36*
X33226Y55056D02*
Y53555D01*
X33188Y53539*
X33006Y534*
X3296Y53406*
X32879Y53434*
Y54805*
X32853Y54935*
X32848Y54961*
X3276Y55093*
X28419Y59434*
X28466Y59567*
X28638Y59589*
X28677Y59605*
X33226Y55056*
G37*
G36*
X87121Y7357D02*
Y34035D01*
X88137*
Y29463*
X87121*
Y13595*
X79676*
X76734Y16536*
X76578Y16657*
X76395Y16732*
X76199Y16758*
X44763*
X29204Y32317*
Y34035*
X38861*
X38959Y34054*
X39042Y34109*
X39097Y34192*
X39116Y34289*
Y38228*
X39234Y38276*
X47915Y29595*
X4808Y29484*
X48113Y29478*
X48275Y29446*
X63549*
X6363Y2934*
X63815Y29198*
X6403Y29109*
X64261Y29079*
X64492Y29109*
X64708Y29198*
X64893Y2934*
X65034Y29525*
X65124Y2974*
X65154Y29971*
X65124Y30202*
X65034Y30418*
X64893Y30603*
X64708Y30745*
X64492Y30834*
X64261Y30864*
X6411Y30844*
X62739Y32215*
Y60748*
X63856Y61865*
X64007Y61845*
X64238Y61875*
X64454Y61964*
X64639Y62106*
X64781Y62291*
X6487Y62506*
X649Y62737*
X6487Y62968*
X64781Y63184*
X64639Y63369*
X64454Y63511*
X64238Y636*
X64007Y6363*
X63776Y636*
X63561Y63511*
X63376Y63369*
X63234Y63184*
X63145Y62968*
X63115Y62737*
X63135Y62586*
X61869Y6132*
X61758Y61155*
X6172Y60959*
Y44602*
X61599Y44561*
X61591Y44573*
X61406Y44714*
X6119Y44804*
X60959Y44834*
X60728Y44804*
X60513Y44714*
X60328Y44573*
X60186Y44388*
X60097Y44172*
X60067Y43941*
X60075Y43876*
X57418Y41218*
X5306*
X53012Y41335*
X53971Y42294*
X54112Y42479*
X54202Y42694*
X54232Y42925*
Y47353*
X55495Y48615*
X55637Y488*
X55726Y49016*
X55756Y49247*
X55726Y49478*
X55637Y49693*
X55495Y49878*
X5531Y5002*
X55094Y50109*
X54863Y50139*
X54632Y50109*
X54417Y5002*
X54232Y49878*
X53983Y49628*
X53951Y49607*
X53929Y49575*
X52708Y48354*
X52566Y48169*
X52477Y47954*
X52447Y47723*
Y43295*
X50938Y41786*
X46648*
X46636Y41913*
X46804Y41946*
X46969Y42057*
X49868Y44956*
X50075*
X50168Y44834*
X50353Y44692*
X50568Y44603*
X50689Y44587*
X50735Y44453*
X50053Y43772*
X50014Y43788*
X49783Y43818*
X49552Y43788*
X49337Y43699*
X49152Y43557*
X4901Y43372*
X48921Y43156*
X48891Y42925*
X48921Y42694*
X4901Y42479*
X49152Y42294*
X49337Y42152*
X49552Y42063*
X49783Y42033*
X50014Y42063*
X5023Y42152*
X50415Y42294*
X50556Y42479*
X50646Y42694*
X50676Y42925*
X50646Y43156*
X5063Y43195*
X52123Y44688*
X52211Y4482*
X52242Y44976*
Y45894*
X52211Y4605*
X52182Y46094*
X52123Y46183*
X51517Y46789*
X51384Y46877*
X51358Y46882*
X51228Y46908*
X49772*
X49616Y46877*
X49572Y46848*
X49484Y46789*
X46536Y43841*
X44499*
X44456Y43968*
X44587Y44069*
X44741Y4427*
X44838Y44503*
X44871Y44754*
Y46177*
X44838Y46428*
X44741Y46661*
X44646Y46785*
X44726Y46889*
X44726*
X44957Y46859*
X45188Y46889*
X45404Y46978*
X45589Y4712*
X4573Y47305*
X45746Y47344*
X48767*
X48898Y4737*
X48924Y47375*
X49056Y47463*
X54898Y53305*
X54986Y53437*
X55017Y53593*
Y56387*
X54991Y56518*
X54986Y56544*
X54898Y56676*
X53424Y5815*
X5344Y58188*
X5347Y58419*
X5344Y5865*
X53351Y58866*
X53209Y59051*
X53024Y59193*
X52808Y59282*
X52577Y59312*
X52346Y59282*
X52131Y59193*
X51946Y59051*
X51804Y58866*
X51715Y5865*
X51685Y58419*
X51715Y58188*
X51804Y57973*
X51946Y57788*
X52131Y57646*
X52346Y57557*
X52577Y57527*
X52808Y57557*
X52847Y57573*
X54202Y56219*
Y53762*
X48599Y48159*
X45746*
X4573Y48198*
X45589Y48383*
X45404Y48525*
X45188Y48614*
X44957Y48644*
X44726Y48614*
X44511Y48525*
X44436Y48467*
X44309Y4853*
Y5053*
X44423Y50586*
X4449Y50534*
X44705Y50445*
X44936Y50415*
X45167Y50445*
X45383Y50534*
X45568Y50676*
X45661Y50798*
X46773*
X46866Y50676*
X47051Y50534*
X47266Y50445*
X47497Y50415*
X47728Y50445*
X47944Y50534*
X48129Y50676*
X4827Y50861*
X4836Y51076*
X4839Y51307*
X4836Y51538*
X4827Y51754*
X48129Y51939*
X47944Y52081*
X47728Y5217*
X47497Y522*
X47266Y5217*
X47051Y52081*
X46866Y51939*
X46773Y51817*
X45661*
X45568Y51939*
X45383Y52081*
X45167Y5217*
X44936Y522*
X44705Y5217*
X4449Y52081*
X44423Y52029*
X44309Y52085*
Y59943*
X44278Y601*
X4419Y60232*
X39414Y65008*
X3943Y65046*
X3946Y65277*
X3943Y65508*
X3934Y65724*
X39199Y65909*
X39014Y6605*
X38798Y6614*
X38567Y6617*
X38336Y6614*
X38121Y6605*
X37936Y65909*
X37794Y65724*
X37705Y65508*
X37675Y65277*
X37705Y65046*
X37794Y64831*
X37936Y64646*
X38121Y64504*
X38336Y64415*
X38567Y64385*
X38798Y64415*
X38837Y64431*
X43494Y59775*
Y50143*
X43367Y501*
X43317Y50164*
X43116Y50318*
X43039Y5035*
Y53847*
X43008Y54004*
X4292Y54136*
X34842Y62214*
X34858Y62252*
X34888Y62483*
X34858Y62714*
X34769Y6293*
X34627Y63115*
X34442Y63256*
X34226Y63346*
X33995Y63376*
X33847Y63357*
X33788Y63477*
X38094Y67783*
X38182Y67915*
X38209Y6805*
X38324*
X38843Y68569*
Y69606*
X38324Y70125*
X37287*
X36768Y69606*
Y68569*
X37247Y6809*
X31675Y62518*
X31587Y62386*
X31582Y6236*
X31556Y62229*
Y60832*
X31582Y60702*
X31587Y60676*
X31675Y60544*
X32006Y60213*
X3199Y60174*
X31964Y59972*
X31848Y59909*
X31314Y60443*
X3133Y60481*
X3136Y60712*
X3133Y60943*
X3124Y61158*
X31099Y61343*
X30914Y61485*
X30698Y61574*
X30467Y61605*
X30236Y61574*
X30021Y61485*
X29836Y61343*
X29694Y61158*
X29605Y60943*
X29575Y60712*
X29605Y60481*
X29694Y60266*
X29836Y60081*
X30021Y59939*
X30236Y5985*
X30467Y5982*
X30698Y5985*
X30737Y59866*
X35428Y55174*
X35418Y55124*
X35278Y55072*
X35204Y55129*
X34988Y55218*
X34757Y55248*
X34526Y55218*
X34311Y55129*
X34169Y55019*
X34042Y55075*
Y55225*
X34011Y55381*
X33922Y55513*
Y55513*
X29254Y60182*
X2927Y6022*
X293Y60451*
X2927Y60682*
X2918Y60898*
X29039Y61083*
X28854Y61225*
X28638Y61314*
X28407Y61344*
X28176Y61314*
X27961Y61225*
X27776Y61083*
X27634Y60898*
X27545Y60682*
X27523Y6051*
X2739Y60463*
X27291Y60562*
Y61186*
X2733Y61202*
X27515Y61344*
X27656Y61529*
X27746Y61744*
X27776Y61975*
X27746Y62206*
X27656Y62422*
X27515Y62607*
X2733Y62749*
X27114Y62838*
X26883Y62868*
X26652Y62838*
X26437Y62749*
X26252Y62607*
X2611Y62422*
X26021Y62206*
X25991Y61975*
X26021Y61744*
X2611Y61529*
X26252Y61344*
X26437Y61202*
X26476Y61186*
Y60393*
X26502Y60263*
X26507Y60237*
X26595Y60104*
X28783Y57916*
X28738Y57782*
X28578Y57761*
X28362Y57672*
X28178Y5753*
X28036Y57345*
X27947Y5713*
X27916Y56899*
X27945Y5668*
X27917Y56645*
X27906Y56637*
X27787Y56707*
X27795Y5677*
X27765Y57001*
X27675Y57217*
X27534Y57402*
X27349Y57543*
X27133Y57633*
X26902Y57663*
X26671Y57633*
X26456Y57543*
X26271Y57402*
X26129Y57217*
X26102Y57151*
X24306*
X24213Y57273*
X24028Y57415*
X23812Y57504*
X23581Y57534*
X2335Y57504*
X23135Y57415*
X2295Y57273*
X22808Y57088*
X22719Y56872*
X22689Y56641*
X22719Y5641*
X22808Y56195*
X2295Y5601*
X23135Y55868*
X2335Y55779*
X23581Y55749*
X23812Y55779*
X24028Y55868*
X24213Y5601*
X24306Y56132*
X26281*
X26456Y55997*
X26671Y55908*
X26902Y55878*
X27051Y55897*
X2711Y55777*
X24563Y5323*
X24475Y53097*
X2447Y53072*
X24444Y52941*
Y5035*
X24367Y50318*
X24166Y50164*
X24012Y49963*
X23915Y4973*
X23882Y49479*
Y48056*
X23915Y47805*
X24012Y47571*
X24166Y47371*
X24367Y47217*
X24601Y4712*
X24851Y47087*
X25102Y4712*
X25336Y47217*
X25537Y47371*
X25691Y47571*
X25788Y47805*
X25821Y48056*
Y49479*
X25788Y4973*
X25691Y49963*
X25537Y50164*
X25336Y50318*
X25259Y5035*
Y52772*
X28539Y56053*
X28578Y56037*
X28809Y56006*
X2904Y56037*
X29255Y56126*
X2944Y56268*
X29582Y56452*
X29671Y56668*
X29692Y56828*
X29826Y56873*
X32064Y54636*
Y5035*
X31987Y50318*
X31786Y50164*
X31632Y49963*
X31535Y4973*
X31502Y49479*
Y48056*
X31535Y47805*
X31632Y47571*
X31786Y47371*
X31962Y47236*
Y46965*
X31835Y46902*
X31686Y47016*
X31452Y47113*
X31201Y47146*
X30951Y47113*
X30717Y47016*
X30516Y46862*
X30362Y46661*
X30265Y46428*
X30232Y46177*
Y44754*
X30265Y44503*
X30362Y4427*
X30516Y44069*
X30717Y43915*
X30951Y43818*
X31201Y43785*
X31452Y43818*
X31686Y43915*
X31887Y44069*
X31928Y44123*
X32052Y44094*
X32059Y44057*
X3217Y43892*
X32879Y43183*
X33045Y43072*
X3324Y43033*
X34477*
X35736Y41774*
X35688Y41656*
X27939*
X27842Y41637*
X27814Y41619*
X27759Y41582*
X27505Y41328*
X2745Y41245*
X27431Y41147*
Y34289*
X2745Y34192*
X27505Y34109*
X27588Y34054*
X27685Y34035*
X27691*
Y32003*
X27717Y31808*
X27792Y31625*
X27913Y31469*
X43915Y15467*
X44043Y15368*
X4401Y15241*
X43137*
X25655Y32723*
Y40428*
X29022Y43795*
X29085Y43889*
X29146Y43915*
X29347Y44069*
X29501Y4427*
X29598Y44503*
X29631Y44754*
Y46177*
X29598Y46428*
X29501Y46661*
X29347Y46862*
X29146Y47016*
X28912Y47113*
X28661Y47146*
X28411Y47113*
X28177Y47016*
X27976Y46862*
X27822Y46661*
X27725Y46428*
X27692Y46177*
Y44754*
X27725Y44503*
X27822Y4427*
X27923Y44138*
X24785Y41*
X24766Y40972*
X24639Y4101*
Y43262*
X25441Y44064*
X25637Y43915*
X25871Y43818*
X26121Y43785*
X26372Y43818*
X26606Y43915*
X26807Y44069*
X26961Y4427*
X27058Y44503*
X27091Y44754*
Y46177*
X27058Y46428*
X26961Y46661*
X26807Y46862*
X26606Y47016*
X26372Y47113*
X26121Y47146*
X25871Y47113*
X25637Y47016*
X25436Y46862*
X25282Y46661*
X25185Y46428*
X25152Y46177*
Y45217*
X23769Y43834*
X23658Y43669*
X2362Y43473*
Y32257*
X23658Y32062*
X23769Y31897*
X42311Y13355*
X42342Y13334*
X42303Y13207*
X28955*
X22351Y19811*
Y72293*
X22478Y72312*
X22505Y72225*
X22667Y71921*
X22886Y71654*
X23152Y71435*
X23457Y71273*
X23786Y71173*
X24129Y71139*
X24473Y71173*
X24802Y71273*
X25106Y71435*
X25373Y71654*
X25592Y71921*
X25754Y72225*
X25854Y72554*
X25888Y72897*
X25854Y73241*
X25766Y73532*
X25833Y73659*
X87032Y7366*
X87121Y7357*
G37*
G36*
X33122Y62632D02*
X33103Y62483D01*
X33133Y62252*
X33222Y62037*
X33364Y61852*
X33549Y6171*
X33764Y61621*
X33995Y61591*
X34226Y61621*
X34265Y61637*
X352Y60702*
X35155Y60568*
X35034Y60552*
X34819Y60463*
X34634Y60321*
X34492Y60136*
X34403Y5992*
X34373Y59689*
X34386Y59589*
X34285Y59511*
X34226Y59536*
X33995Y59566*
X3378Y59538*
X33736Y59573*
X33685Y5964*
X33715Y59712*
X33745Y59943*
X33715Y60174*
X33625Y6039*
X33484Y60575*
X33299Y60716*
X33083Y60806*
X32852Y60836*
X32621Y60806*
X32583Y6079*
X32371Y61001*
Y62061*
X33002Y62691*
X33122Y62632*
G37*
G36*
X128523Y55371D02*
X127761Y54609D01*
X117601*
X117347Y54863*
X116505Y55705*
Y59435*
X128523*
Y55371*
G37*
%LNlv1-2*%
%LPC*%
G36*
X128675Y42975D02*
X128263Y42942D01*
X12786Y42845*
X127478Y42687*
X127125Y42471*
X12681Y42202*
X126541Y41887*
X126325Y41534*
X126166Y41152*
X12607Y40749*
X126037Y40336*
X12607Y39924*
X126166Y39521*
X126325Y39139*
X126541Y38786*
X12681Y38471*
X127125Y38202*
X127478Y37986*
X12786Y37827*
X128263Y37731*
X128675Y37698*
X129088Y37731*
X129491Y37827*
X129873Y37986*
X130226Y38202*
X130541Y38471*
X13081Y38786*
X131026Y39139*
X131184Y39521*
X131281Y39924*
X131314Y40336*
X131281Y40749*
X131184Y41152*
X131026Y41534*
X13081Y41887*
X130541Y42202*
X130226Y42471*
X129873Y42687*
X129491Y42845*
X129088Y42942*
X128675Y42975*
G37*
G36*
X35784Y72665D02*
X34747D01*
X34228Y72146*
Y71109*
X34747Y7059*
X35784*
X36303Y71109*
Y72146*
X35784Y72665*
G37*
G36*
X26415Y22367D02*
X2605Y22318D01*
X25709Y22177*
X25417Y21953*
X25193Y2166*
X25051Y2132*
X25003Y20954*
X25051Y20589*
X25193Y20248*
X25417Y19956*
X25709Y19732*
X2605Y1959*
X26415Y19542*
X26781Y1959*
X27121Y19732*
X27414Y19956*
X27638Y20248*
X27779Y20589*
X27828Y20954*
X27779Y2132*
X27638Y2166*
X27414Y21953*
X27121Y22177*
X26781Y22318*
X26415Y22367*
G37*
G36*
X68071Y33406D02*
X67774Y33367D01*
X67497Y33252*
X67259Y3307*
X67077Y32832*
X66962Y32555*
X66923Y32257*
X66962Y3196*
X67077Y31683*
X67259Y31445*
X67497Y31263*
X67774Y31148*
X68071Y31109*
X68369Y31148*
X68646Y31263*
X68884Y31445*
X69066Y31683*
X69181Y3196*
X6922Y32257*
X69181Y32555*
X69066Y32832*
X68884Y3307*
X68646Y33252*
X68369Y33367*
X68071Y33406*
G37*
G36*
X33244Y72665D02*
X32207D01*
X31688Y72146*
Y71109*
X32207Y7059*
X33244*
X33763Y71109*
Y72146*
X33244Y72665*
G37*
G36*
X51307Y66678D02*
X51076Y66648D01*
X50861Y66559*
X50676Y66417*
X50534Y66232*
X50445Y66016*
X50415Y65785*
X50445Y65554*
X50534Y65339*
X50676Y65154*
X50861Y65012*
X51076Y64923*
X51307Y64893*
X51538Y64923*
X51754Y65012*
X51939Y65154*
X52081Y65339*
X5217Y65554*
X522Y65785*
X5217Y66016*
X52081Y66232*
X51939Y66417*
X51754Y66559*
X51538Y66648*
X51307Y66678*
G37*
G36*
X67817Y66172D02*
X6752Y66133D01*
X67243Y66018*
X67005Y65836*
X66823Y65598*
X66708Y65321*
X66669Y65023*
X66708Y64726*
X66823Y64449*
X67005Y64211*
X67243Y64029*
X6752Y63914*
X67817Y63875*
X68115Y63914*
X68392Y64029*
X6863Y64211*
X68812Y64449*
X68927Y64726*
X68966Y65023*
X68927Y65321*
X68812Y65598*
X6863Y65836*
X68392Y66018*
X68115Y66133*
X67817Y66172*
G37*
G36*
X27391Y50448D02*
X27141Y50415D01*
X26907Y50318*
X26706Y50164*
X26552Y49963*
X26455Y4973*
X26422Y49479*
Y48056*
X26455Y47805*
X26552Y47571*
X26706Y47371*
X26907Y47217*
X27141Y4712*
X27391Y47087*
X27642Y4712*
X27876Y47217*
X28077Y47371*
X28231Y47571*
X28328Y47805*
X28361Y48056*
Y49479*
X28328Y4973*
X28231Y49963*
X28077Y50164*
X27876Y50318*
X27642Y50415*
X27391Y50448*
G37*
G36*
X35784Y70125D02*
X34747D01*
X34228Y69606*
Y68569*
X34747Y6805*
X35784*
X36303Y68569*
Y69606*
X35784Y70125*
G37*
G36*
X33244D02*
X32207D01*
X31688Y69606*
Y68569*
X32207Y6805*
X33244*
X33763Y68569*
Y69606*
X33244Y70125*
G37*
%LNlv1-3*%
%LPD*%
G54D18*
X124205Y44369D03*
Y47069D03*
X121157Y44369D03*
Y47069D03*
X118109Y44369D03*
Y47069D03*
X117855Y58847D03*
Y61547D03*
X120903Y58847D03*
Y61547D03*
X123951Y58847D03*
Y61547D03*
G54D51*
X25145Y40639D02*
X28661Y44155D01*
X25145Y32511D02*
Y40639D01*
Y32511D02*
X42925Y14731D01*
X75691*
X78874Y11548*
X75183Y13715D02*
X78485Y10413D01*
X42671Y13715D02*
X75183D01*
X24129Y32257D02*
X42671Y13715D01*
X111894Y11548D02*
X113029Y10413D01*
X78874Y11548D02*
X111894D01*
X113029Y10413D02*
X117601D01*
X78485D02*
X109727D01*
X28661Y44155D02*
Y45465D01*
X24129Y43473D02*
X26121Y45465D01*
X24129Y32257D02*
Y43473D01*
X54311Y49247D02*
X54863D01*
X44936Y51307D02*
X47497D01*
X49657Y45465D02*
X50799D01*
X62229Y32003D02*
X64261Y29971D01*
X62229Y60959D02*
X64007Y62737D01*
X62229Y32003D02*
Y60959D01*
X26773Y56641D02*
X26902Y5677D01*
X23581Y56641D02*
X26773D01*
X37551Y44235D02*
Y48767D01*
Y44235D02*
X39369Y42417D01*
X32471Y46737D02*
X3253Y46678D01*
X32471Y46737D02*
Y48767D01*
X3253Y44253D02*
X3324Y43543D01*
X3253Y44253D02*
Y46678D01*
X3324Y43543D02*
X34688D01*
X48275Y29955*
X64277*
X39369Y42417D02*
X46609D01*
X49657Y45465*
G54D52*
X76199Y16001D02*
X79362Y12838D01*
X44449Y16001D02*
X76199D01*
X28447Y32003D02*
X44449Y16001D01*
X79362Y12838D02*
X111644D01*
X112432Y13626D02*
X115061D01*
X111644Y12838D02*
X112432Y13626D01*
X28447Y32003D02*
Y37083D01*
G54D54*
X53339Y47723D02*
X54863Y49247D01*
X53339Y42925D02*
Y47723D01*
X41909Y40893D02*
X51307D01*
X53339Y42925*
G54D55*
X49783Y42925D02*
X51834Y44976D01*
Y45894*
X51228Y465D02*
X51834Y45894D01*
X49772Y465D02*
X51228D01*
X46705Y43433D02*
X49772Y465D01*
X40639Y43433D02*
X46705D01*
X40091Y43981D02*
X40639Y43433D01*
X40091Y43981D02*
Y48767D01*
X54609Y53593D02*
Y56387D01*
X48767Y47751D02*
X54609Y53593D01*
X44957Y47751D02*
X48767D01*
X52577Y58419D02*
X54609Y56387D01*
X24851Y48767D02*
Y52941D01*
X28809Y56899*
X26883Y60393D02*
X32471Y54805D01*
X26883Y60393D02*
Y61975D01*
X28407Y60451D02*
X33634Y55225D01*
Y52766D02*
Y55225D01*
X33995Y58673D02*
X40091Y52577D01*
Y48767D02*
Y52577D01*
X37805Y68071D02*
Y69087D01*
X31963Y60832D02*
X32852Y59943D01*
X31963Y60832D02*
Y62229D01*
X37805Y68071*
X33995Y62483D02*
X42631Y53847D01*
Y48767D02*
Y53847D01*
X35011Y48767D02*
X3589Y49646D01*
Y55289*
X30467Y60712D02*
X3589Y55289D01*
X34757Y50799D02*
Y54355D01*
X38567Y65277D02*
X43901Y59943D01*
Y45465D02*
Y59943D01*
X41361Y45465D02*
Y53593D01*
X35265Y59689D02*
X41361Y53593D01*
X33741Y49783D02*
X34757Y50799D01*
X32471Y48767D02*
Y54805D01*
X33741Y45465D02*
Y49783D01*
G54D56*
X50545Y40639D02*
X57657D01*
X60959Y43941*
G54D60*
X123951Y22097D03*
G54D61*
X121411Y23367D03*
X123951Y24637D03*
X121411Y25907D03*
X123951Y27177D03*
X121411Y28447D03*
X123951Y29717D03*
X121411Y30987D03*
G54D62*
X133351Y18747D03*
Y3434D03*
G54D63*
X130301Y20827D03*
Y32257D03*
G54D64*
X135127Y11937D03*
X134873Y72389D03*
X24383Y11683D03*
X24129Y72897D03*
G54D65*
X26121Y45465D03*
X28661D03*
X31201D03*
X33741D03*
X36281D03*
X38821D03*
X41361D03*
X43901D03*
X42631Y48767D03*
X40091D03*
X37551D03*
X35011D03*
X32471D03*
X29931D03*
X27391D03*
X24851D03*
G54D66*
X68071Y32257D03*
X70611D03*
X67817Y65023D03*
X70357D03*
G54D67*
X26415Y24764D03*
Y20954D03*
G54D68*
X127255Y47291D03*
X130095Y48676D03*
X127255Y50061D03*
X130095Y51446D03*
X127255Y52831D03*
X130095Y54216D03*
X127255Y55601D03*
X130095Y56986D03*
G54D69*
X127255Y58371D03*
G54D70*
X128675Y65326D03*
Y40336D03*
G54D71*
X32725Y69087D03*
Y71627D03*
X35265Y69087D03*
Y71627D03*
X37805Y69087D03*
Y71627D03*
G54D72*
X115061Y13626D03*
X86359Y14223D03*
X65023Y20065D03*
X69595D03*
X117601Y10413D03*
X109727D03*
X101853Y47497D03*
Y45973D03*
X102615Y36067D03*
Y37591D03*
Y39115D03*
X55879Y24383D03*
X54355D03*
X52577D03*
X45973Y34289D03*
X44957Y49529D03*
X49783Y42925D03*
X60959Y43941D03*
X38861Y50799D03*
X54863Y49247D03*
X51561Y48513D03*
X47497Y51307D03*
X41909Y40893D03*
X52577Y58419D03*
X44957Y47751D03*
X51307Y65785D03*
X50799Y45465D03*
X64261Y29971D03*
X64007Y62737D03*
X64261Y27939D03*
X64007Y60705D03*
X68071Y18795D03*
X66547D03*
X65531Y24891D03*
Y57657D03*
X101853Y49021D03*
X100329Y45973D03*
Y47497D03*
Y49021D03*
X32852Y59943D03*
X28809Y56899D03*
X26883Y61975D03*
X30467Y60712D03*
X28407Y60451D03*
X33634Y52766D03*
X33995Y58673D03*
Y62483D03*
X34757Y54355D03*
X38567Y65277D03*
X35265Y59689D03*
X26902Y5677D03*
X44936Y51307D03*
X24089Y68325D03*
X27899Y66039D03*
X45171Y53593D03*
X24089Y66801D03*
Y65277D03*
X23581Y56641D03*
X37591Y42417D03*
X32003Y37083D03*
X34035D03*
X35813D03*
X37591D03*
X30225D03*
X28447D03*
X87375Y33273D03*
Y31749D03*
Y30225D03*
X92963Y34543D03*
X94487Y34035D03*
Y32257D03*
Y30733D03*
G54D73*
X91693Y46481D03*
Y45211D03*
X91185Y47497D03*
X90169D03*
X85089Y45211D03*
Y46481D03*
X85597Y47497D03*
X86613D03*
M02*