%FSTAX23Y23*%
%MOIN*%
%SFA1B1*%

%IPPOS*%
%AMD38*
4,1,8,-0.031000,-0.012900,-0.012900,-0.031000,0.012900,-0.031000,0.031000,-0.012900,0.031000,0.012900,0.012900,0.031000,-0.012900,0.031000,-0.031000,0.012900,-0.031000,-0.012900,0.0*
%
%ADD10R,0.027560X0.035430*%
%ADD11R,0.035430X0.027560*%
%ADD12R,0.035430X0.031500*%
%ADD13R,0.059060X0.078740*%
%ADD14R,0.149610X0.078740*%
%ADD15R,0.061020X0.129920*%
%ADD16R,0.085830X0.059840*%
%ADD17R,0.058000X0.014000*%
%ADD18R,0.031500X0.035430*%
%ADD19R,0.085000X0.107990*%
%ADD20R,0.055120X0.118110*%
%ADD21R,0.011810X0.059060*%
%ADD22R,0.059060X0.011810*%
%ADD23R,0.028000X0.079000*%
%ADD24O,0.021650X0.064960*%
%ADD25O,0.064960X0.021650*%
%ADD26C,0.024000*%
%ADD27C,0.012000*%
%ADD28C,0.020000*%
%ADD29C,0.050000*%
%ADD30C,0.051180*%
%ADD31C,0.010000*%
%ADD32C,0.025000*%
%ADD33C,0.106300*%
%ADD34C,0.067870*%
%ADD35C,0.060000*%
%ADD36C,0.110240*%
%ADD37C,0.062990*%
G04~CAMADD=38~4~0.0~0.0~620.0~620.0~0.0~181.6~0~0.0~0.0~0.0~0.0~0~0.0~0.0~0.0~0.0~0~0.0~0.0~0.0~135.0~620.0~620.0*
%ADD38D38*%
%ADD39C,0.066930*%
%ADD40C,0.050000*%
%ADD41C,0.035430*%
%ADD42C,0.025000*%
%ADD43C,0.036000*%
%ADD44C,0.040000*%
%ADD45C,0.070000*%
%LNeurocard_vme_3u_(3.937_x_8.660_inches)-1*%
%LPD*%
G36*
X1266Y06D02*
X04D01*
Y09937*
X1266*
Y06*
G37*
%LNeurocard_vme_3u_(3.937_x_8.660_inches)-2*%
%LPC*%
G36*
X1254Y09783D02*
X12528Y09782D01*
X12516Y09778*
X12505Y09772*
X12496Y09765*
X12489Y09756*
X12483Y09745*
X12479Y09733*
X12478Y09722*
X12479Y0971*
X12483Y09698*
X12489Y09687*
X12496Y09678*
X12505Y09671*
X12516Y09665*
X12528Y09661*
X1254Y0966*
X12551Y09661*
X12563Y09665*
X12574Y09671*
X12583Y09678*
X1259Y09687*
X12596Y09698*
X126Y0971*
X12601Y09722*
X126Y09733*
X12596Y09745*
X1259Y09756*
X12583Y09765*
X12574Y09772*
X12563Y09778*
X12551Y09782*
X1254Y09783*
G37*
G36*
X0414Y09778D02*
X04128Y09777D01*
X04116Y09773*
X04106Y09767*
X04096Y0976*
X04089Y09751*
X04083Y0974*
X04079Y09728*
X04078Y09717*
X04079Y09705*
X04083Y09693*
X04089Y09683*
X04096Y09673*
X04106Y09666*
X04116Y0966*
X04128Y09656*
X0414Y09655*
X04151Y09656*
X04163Y0966*
X04174Y09666*
X04183Y09673*
X0419Y09683*
X04196Y09693*
X042Y09705*
X04201Y09717*
X042Y09728*
X04196Y0974*
X0419Y09751*
X04183Y0976*
X04174Y09767*
X04163Y09773*
X04151Y09777*
X0414Y09778*
G37*
G36*
X08064Y09613D02*
X07991D01*
Y09574*
X0785*
Y096*
X07753*
Y09574*
X0757*
X07561Y09573*
X07554Y0957*
X07547Y09565*
X07232Y09249*
X07091*
Y09283*
X07024*
Y09153*
X07091*
Y09187*
X07396*
X07417Y09167*
Y0916*
X07351*
X07347Y09158*
X07345Y09154*
Y09005*
X06906*
X06808Y09103*
Y09153*
X06811*
Y09283*
X06781*
X06727Y09337*
X0672Y09342*
X06713Y09345*
X06705Y09346*
X06675*
X06666Y09345*
X06659Y09342*
X06653Y09337*
X0652Y09205*
X05921*
X05913Y09204*
X05905Y09201*
X05901Y09197*
X05899*
Y09196*
X05899Y09196*
X05894Y09189*
X05891Y09182*
X0589Y09174*
X05891Y09165*
X05894Y09158*
X05897Y09154*
X05899Y0915*
X05898Y09146*
X05892Y09146*
X05878Y09159*
Y09174*
X05877Y09178*
X05875Y09182*
X05871Y09185*
X05866Y09186*
X05861Y09185*
X05857Y09182*
X05855Y09178*
X05854Y09174*
Y09154*
X05855Y09149*
X05857Y09145*
X05868Y09135*
X05866Y0913*
X05576*
X05574Y09135*
X05596Y09157*
X05609*
Y09201*
X05562*
Y09157*
X05559Y09154*
X05544Y09139*
X05541Y09135*
X05541Y09131*
Y09094*
X05541Y09093*
Y09059*
X05879*
Y0908*
X05884Y09083*
X05887Y09082*
X0589Y09083*
X05895Y0908*
Y09037*
X05549*
X05527Y09059*
Y09092*
X05527Y09093*
X05527Y09094*
X05526Y09101*
X05525Y09102*
Y0913*
X05501*
X05497Y09132*
X05493Y09135*
Y09148*
X05499*
Y09195*
X05455*
Y09148*
X05461*
Y09129*
X05462Y09122*
X05465Y09117*
X055Y09083*
X05501Y09082*
Y09059*
X05505*
Y09054*
Y09054*
X05506Y0905*
X05508Y09046*
X05537Y09018*
X0554Y09015*
X05545Y09014*
X05559*
X05562Y09009*
X05561Y09008*
X0547*
Y09028*
X05399*
Y09004*
Y08965*
Y08925*
Y08886*
Y08851*
X05378*
X05368Y08861*
X05364Y08863*
X0536Y08864*
X04731*
X04731Y08865*
X04726Y08872*
X04719Y08877*
X04712Y0888*
X04704Y08881*
X04695Y0888*
X04688Y08877*
X04681Y08872*
X04677Y08865*
X04673Y08858*
X04672Y0885*
X04673Y08841*
X04677Y08834*
X04681Y08827*
X04688Y08823*
X04695Y08819*
X04704Y08818*
X04712Y08819*
X04719Y08823*
X04726Y08827*
X04731Y08834*
X04733Y0884*
X05354*
X05364Y0883*
X05364*
X05368Y08827*
X05373Y08826*
X05832*
X05898Y0876*
X05902Y08757*
X059Y08752*
X05887*
X05883Y08751*
X05879Y08749*
X05674Y08544*
X05638*
X05634Y08543*
X0563Y0854*
X05605Y08515*
X05602Y08511*
X05601Y08507*
Y085*
X05501*
Y08429*
X05536*
X0554Y08426*
Y08417*
X05387*
X05383Y08416*
X05379Y08414*
X04747Y07781*
X0474Y07783*
X0473Y07781*
X04723Y07776*
X04717Y07768*
X04716Y07759*
X04717Y07749*
X04723Y07742*
X0473Y07736*
X0474Y07735*
X04749Y07736*
X04757Y07742*
X04762Y07749*
X04764Y07759*
X04762Y07766*
X05392Y08395*
X0554*
Y08386*
X0558*
X05582Y08381*
X05567Y08367*
X0554*
Y08327*
X05587*
Y08355*
X0562Y08387*
X05622Y08391*
X05623Y08395*
Y08429*
X05624*
Y0846*
X05625Y08462*
X05626Y08466*
Y08502*
X05644Y08519*
X05679*
X05683Y0852*
X05687Y08523*
X05892Y08728*
X06029*
Y08689*
Y0865*
Y0861*
Y08571*
Y08531*
X061*
Y08551*
Y08591*
Y0863*
Y08669*
Y08709*
Y08752*
X06066*
X06064Y08752*
X05941*
X05919Y08774*
Y09026*
Y09059*
X05998*
Y0913*
X05927*
X05925Y09135*
X0593Y0914*
X05932Y09142*
X06533*
X06541Y09143*
X06548Y09147*
X06555Y09151*
X06687Y09283*
X06692*
X06744Y09232*
Y09153*
X06746*
Y0909*
X06747Y09082*
X0675Y09074*
X06755Y09068*
X06872Y08951*
X06878Y08946*
X06885Y08943*
X06894Y08942*
X07345*
Y08759*
X07347Y08754*
X07351Y08752*
X07402*
X07407Y08751*
X07411Y08752*
X07738*
X07743Y08754*
X07744Y08759*
Y08942*
X08864*
X09563Y08242*
X0957Y08238*
X09577Y08234*
X09586Y08233*
X09839*
X09845Y08229*
X09855Y08225*
X09866Y08223*
X09876Y08225*
X09886Y08229*
X09895Y08235*
X09901Y08244*
X09903Y08248*
X09981*
X09987Y0825*
X09992Y08253*
X10149Y0841*
X10189*
X10191Y08406*
X09982Y08197*
X08193*
X08165Y08225*
X08164Y08231*
X08159Y08239*
X08151Y08244*
X08145Y08245*
X07837Y08552*
X07831Y08556*
X07825Y08558*
X07574*
X07567Y08556*
X07561Y08552*
X07528Y0852*
X07524Y08514*
X07522Y08507*
X07523*
Y08483*
X07518Y0848*
X07516Y08481*
X07509Y08483*
X07503Y08481*
X07497Y08478*
X07496Y08476*
X07491*
X0749Y08478*
X07484Y08481*
X07478Y08483*
X07471Y08481*
X07466Y08478*
X07465Y08476*
X0746*
X07458Y08478*
X07453Y08481*
X07446Y08483*
X0744Y08481*
X07434Y08478*
X07431Y08472*
X07429Y08466*
Y08422*
X07431Y08416*
X07434Y0841*
X0744Y08406*
X07446Y08405*
X07453Y08406*
X07458Y0841*
X0746Y08412*
X07465*
X07466Y0841*
X07471Y08406*
X07478Y08405*
X07484Y08406*
X07488Y08409*
X07493Y08407*
Y08272*
X07494Y08266*
X07498Y0826*
X07526Y08232*
X07526Y08231*
X07526Y08229*
X07466Y08169*
X07463Y08164*
X07462Y08158*
Y0815*
X07457Y08148*
X07453Y08151*
X07446Y08152*
X0744Y08151*
X07434Y08147*
X07431Y08141*
X07429Y08135*
Y08135*
X07313*
Y0814*
X07273*
Y08093*
X07313*
Y08098*
X07429*
Y08091*
X07431Y08085*
X07434Y08079*
X0744Y08076*
X07446Y08074*
X07453Y08076*
X07457Y08078*
X07462Y08076*
Y08049*
X07463Y08043*
X07466Y08038*
X07482Y08022*
X07487Y08019*
X07494Y08017*
X07494*
Y0801*
X075*
Y07978*
X07501Y07972*
X07504Y07967*
X07536Y07935*
X07541Y07932*
X07548Y0793*
X07591*
X07597Y07932*
X07602Y07935*
X07624Y07956*
X07644*
Y07996*
X07597*
Y07975*
X07584Y07963*
X07554*
X07532Y07985*
Y0801*
X07538*
Y08057*
X07494*
X07494Y08062*
Y08076*
X07499Y08078*
X07503Y08076*
X07509Y08074*
X07516Y08076*
X07521Y08079*
X07523Y08081*
X07528*
X07529Y08079*
X07534Y08076*
X07541Y08074*
X07547Y08076*
X07553Y08079*
X07557Y08085*
X07558Y08091*
Y08135*
X07557Y08141*
X07553Y08147*
X07547Y08151*
X07541Y08152*
X07534Y08151*
X07529Y08147*
X07528Y08145*
X07523*
X07521Y08147*
X07516Y08151*
X07509Y08152*
X07503Y08151*
X07503Y08151*
X07498Y08153*
X07497Y08154*
X0755Y08207*
X07559Y08209*
X07567Y08214*
X07567Y08215*
X07685*
X07687Y0821*
X07684Y08206*
X07683Y082*
X07684Y08193*
X07688Y08188*
X0769Y08187*
Y08182*
X07688Y0818*
X07684Y08175*
X07683Y08168*
X07684Y08162*
X07688Y08156*
X07694Y08153*
X077Y08151*
X07744*
X0775Y08153*
X07756Y08156*
X07759Y08162*
X07761Y08168*
X07759Y08175*
X07756Y0818*
X07754Y08182*
Y08187*
X07756Y08188*
X07759Y08193*
X07761Y082*
X07759Y08206*
X07756Y08212*
X07754Y08213*
Y08218*
X07756Y08219*
X07759Y08224*
X0776Y08225*
X07764Y08226*
X07776Y08215*
Y08206*
X07823*
X07823Y08201*
Y08198*
X07863*
Y08245*
X07867Y08247*
X07876*
Y08258*
X07991*
X08122Y08128*
X08125Y08126*
X0813Y08125*
X10007*
X10012Y08126*
X10016Y08128*
X10221Y08333*
X11988*
X11992Y08334*
X11996Y08337*
X12076Y08417*
X12079Y08421*
X1208Y08426*
Y08495*
X1214Y08555*
X12216*
X12218Y0855*
X12214Y08547*
X12208Y0854*
X12205Y08531*
X12203Y08522*
X12205Y08512*
X12208Y08503*
X12214Y08496*
X12221Y0849*
X1223Y08487*
X1224Y08485*
X12249Y08487*
X12258Y0849*
X12265Y08496*
X12271Y08503*
X12274Y08512*
X12276Y08522*
X12274Y08531*
X12271Y0854*
X12265Y08547*
X12261Y0855*
X12263Y08555*
X12386*
X1239Y08556*
X12394Y08559*
X12424Y08589*
X1243Y08587*
X1244Y08585*
X12449Y08587*
X12458Y0859*
X12465Y08596*
X12471Y08603*
X12474Y08612*
X12476Y08622*
X12474Y08631*
X12471Y0864*
X12465Y08647*
X12458Y08653*
X12449Y08656*
X1244Y08658*
X1243Y08656*
X12421Y08653*
X12414Y08647*
X12408Y0864*
X12405Y08631*
X12403Y08622*
X12405Y08612*
X12407Y08606*
X1238Y0858*
X12135*
X1213Y08579*
X12126Y08576*
X12059Y08509*
X12056Y08505*
X12055Y08501*
Y08435*
X12055Y08434*
X1205Y08437*
Y08513*
X12194Y08657*
X12388*
X12392Y08658*
X12396Y08661*
X12424Y08689*
X1243Y08687*
X1244Y08685*
X12449Y08687*
X12458Y0869*
X12465Y08696*
X12471Y08703*
X12474Y08712*
X12476Y08722*
X12474Y08731*
X12471Y0874*
X12465Y08747*
X12458Y08753*
X12449Y08756*
X1244Y08758*
X1243Y08756*
X12421Y08753*
X12414Y08747*
X12408Y0874*
X12405Y08731*
X12403Y08722*
X12405Y08712*
X12407Y08706*
X12382Y08682*
X1225*
X12249Y08687*
X12258Y0869*
X12265Y08696*
X12271Y08703*
X12274Y08712*
X12276Y08722*
X12274Y08731*
X12271Y0874*
X12266Y08746*
X12267Y08751*
X12337*
X12337*
X12344Y08753*
X1235Y08757*
X12397Y08803*
X12408*
X12414Y08796*
X12421Y0879*
X1243Y08787*
X1244Y08785*
X12449Y08787*
X12458Y0879*
X12465Y08796*
X12471Y08803*
X12474Y08812*
X12476Y08822*
X12474Y08831*
X12471Y0884*
X12465Y08847*
X12458Y08853*
X12449Y08856*
X1244Y08858*
X1243Y08856*
X12421Y08853*
X12414Y08847*
X12408Y0884*
X1239*
X12383Y08838*
X12377Y08834*
X1233Y08788*
X12263*
X12261Y08793*
X12265Y08796*
X12271Y08803*
X12274Y08812*
X12276Y08822*
X12274Y08831*
X12271Y0884*
X12265Y08847*
X12258Y08853*
X12249Y08856*
X1224Y08858*
X1223Y08856*
X12221Y08853*
X12214Y08847*
X12208Y0884*
X12205Y08831*
X12203Y08822*
X12205Y08812*
X12208Y08803*
X12214Y08796*
X12218Y08792*
X12217Y08787*
X12213Y08786*
X12207Y08782*
X11993Y08569*
X11989Y08571*
Y08617*
X12048Y08676*
X12051Y08681*
X12053Y08688*
Y09066*
X12062Y09075*
X12109*
Y09112*
X12111*
Y09159*
X12071*
Y09115*
X12062*
Y09111*
X12059*
X12053Y0911*
X12048Y09106*
X12025Y09084*
X12022Y09079*
X1202Y09073*
Y08987*
X1202Y08984*
X12014Y08984*
X12012Y08986*
Y09024*
X1201Y0903*
X12007Y09036*
X11917Y09125*
X11919Y09131*
X11922Y09132*
X12046Y09256*
X12052Y09262*
X12507*
X12511Y09264*
X12513Y09269*
Y09374*
X12512Y09375*
Y09377*
X12512Y09377*
X12511Y09378*
X12512Y09379*
X12513Y0938*
X12513Y09381*
X12513Y09382*
Y09566*
X12511Y0957*
X12479Y09602*
X12475Y09604*
X09662*
X09662*
X0966Y09603*
X09658Y09602*
X09654Y09598*
X09653Y09596*
X09652Y09594*
X09652Y09107*
X09653Y09104*
X09654Y09102*
X09657Y09101*
X09659Y091*
X0984*
X0984Y091*
X09844Y09097*
Y08478*
X09846Y08473*
X09851Y08471*
X11658*
X11662Y08473*
X11664Y08478*
Y0913*
X11854*
X11855Y09131*
X11856*
X11857Y09131*
X11858Y09132*
X11862Y09133*
X11864Y09133*
X11979Y09018*
Y08983*
X11972*
Y08945*
Y08943*
X11969Y0894*
X11836*
X11834Y08943*
X11828Y08952*
X1182Y08958*
X1181Y08962*
X118Y08963*
X11789Y08962*
X11779Y08958*
X11771Y08952*
X11765Y08943*
X11761Y08934*
X11759Y08923*
X11761Y08913*
X11765Y08903*
X11771Y08895*
X11779Y08888*
X11789Y08884*
X118Y08883*
X1181Y08884*
X1182Y08888*
X11828Y08895*
X11834Y08903*
X11836Y08907*
X11969*
X11972Y08905*
Y08884*
X11979*
Y08872*
X11972*
Y08832*
X12019*
X1202Y08828*
Y08694*
X11961Y08635*
X11958Y0863*
X11956Y08624*
Y08473*
X11926Y08443*
X10142*
X10136Y08441*
X10131Y08438*
X09974Y08281*
X09903*
X09901Y08285*
X09895Y08294*
X09886Y083*
X09876Y08304*
X09866Y08306*
X09855Y08304*
X09845Y083*
X09839Y08296*
X09598*
X08899Y08995*
X08893Y09*
X08885Y09003*
X08877Y09004*
X07744*
Y09154*
X07743Y09158*
X07738Y0916*
X07668*
X07664Y09158*
X07662Y09154*
Y09137*
X07604*
Y09154*
X07602Y09158*
X07598Y0916*
X07578*
Y09221*
X07507*
Y0916*
X07487*
Y09221*
X07483*
Y09245*
X07482Y09254*
X07479Y09261*
X07475Y09266*
Y09268*
X07474*
X07468Y09272*
X0746Y09276*
X07452Y09277*
X07444Y09276*
X07436Y09272*
X0743Y09268*
X07428*
Y09265*
X07425Y09261*
X07422Y09254*
X07421Y09251*
X07421Y0925*
X07416Y09249*
X07409Y09249*
X07327*
X07325Y09254*
X07582Y09511*
X07991*
Y09472*
X08064*
Y09613*
G37*
G36*
X0823D02*
X08157D01*
Y09472*
X0823*
Y09511*
X08292*
X083Y09512*
X08307Y09515*
X08314Y0952*
X08319Y09527*
X08319Y09527*
X08321Y09529*
X08324Y09536*
X08325Y09545*
X08324Y09553*
X08321Y0956*
X08316Y09567*
X08309Y09572*
X08302Y09575*
X08294Y09576*
X08285Y09575*
X08285Y09574*
X0823*
Y09613*
G37*
G36*
X04116Y09409D02*
X04106Y09408D01*
X04097Y09404*
X04089Y09398*
X04083Y0939*
X04079Y09381*
X04078Y09372*
X04079Y09362*
X04083Y09353*
X04089Y09345*
X04097Y09339*
X04106Y09335*
X04116Y09334*
X04125Y09335*
X04134Y09339*
X04142Y09345*
X04148Y09353*
X04149Y09355*
X04291*
Y0934*
X04331*
Y09387*
X04306*
X04303Y09388*
X04149*
X04148Y0939*
X04142Y09398*
X04134Y09404*
X04125Y09408*
X04116Y09409*
G37*
G36*
X0439Y09387D02*
X0435D01*
Y0934*
X04354*
Y09143*
X04354Y09143*
X04333*
Y09096*
X04334Y09091*
X04328Y09085*
X04138*
X04136Y0909*
X04142Y09095*
X04148Y09103*
X04149Y09105*
X04274*
Y09096*
X04314*
Y09143*
X04274*
Y09138*
X04149*
X04148Y0914*
X04142Y09148*
X04134Y09154*
X04125Y09158*
X04116Y09159*
X04106Y09158*
X04097Y09154*
X04089Y09148*
X04083Y0914*
X04079Y09131*
X04078Y09122*
X04079Y09112*
X04083Y09103*
X04089Y09095*
X04095Y0909*
X04094Y09085*
X0409Y09084*
X04084Y0908*
X04057Y09053*
X04053Y09047*
X04052Y09041*
Y08984*
Y08739*
X04053Y08733*
X04057Y08727*
X0412Y08664*
X04118Y08659*
X04116Y08659*
X04106Y08658*
X04097Y08654*
X04089Y08648*
X04083Y0864*
X04079Y08631*
X04078Y08622*
X04079Y08612*
X04083Y08603*
X04089Y08595*
X04097Y08589*
X04106Y08585*
X04116Y08584*
X04125Y08585*
X04134Y08589*
X04142Y08595*
X04148Y08603*
X04148Y08603*
X04284*
Y08586*
X04324*
Y08619*
X04328Y08621*
X04341Y08609*
X0434Y08603*
Y08396*
X04336*
Y08349*
X04357*
X04647Y08058*
Y07533*
X04615*
Y07414*
X04632*
Y07211*
X04633Y07202*
X04637Y07195*
X04641Y07188*
X04648Y07184*
X04655Y0718*
X04664Y07179*
X04672Y0718*
X04679Y07184*
X04686Y07188*
X04691Y07195*
X04694Y07202*
X04695Y07211*
Y07414*
X04712*
Y07533*
X0468*
Y08065*
X04678Y08071*
X04675Y08076*
X04376Y08376*
Y08396*
X04372*
Y08586*
X04383*
Y08633*
X04362*
X04316Y0868*
X0431Y08683*
X04304Y08685*
X04145*
X04096Y08734*
X04099Y08738*
X04106Y08735*
X04116Y08734*
X04125Y08735*
X04132Y08738*
X04163Y08707*
X04167Y08704*
X04172Y08703*
X0448*
X04629Y08554*
X04633Y08552*
X04638Y08551*
X05399*
Y08531*
X0547*
Y08571*
Y0861*
Y0865*
Y08689*
Y08728*
Y08768*
Y08811*
X05399*
Y08768*
Y08728*
Y08689*
Y08654*
X05358*
X05345Y08667*
X05341Y0867*
X05336Y08671*
X05333*
X05328Y08673*
X05327Y0868*
X05323Y08686*
X05317Y0869*
X0531Y08691*
X05302Y0869*
X05296Y08686*
X05292Y0868*
X05291Y08673*
X05292Y08665*
X05294Y08662*
X05296Y08659*
X05293Y08656*
X0529Y08654*
X05286Y08648*
X05285Y08641*
X05286Y08633*
X0529Y08627*
X05291Y08627*
X0529Y08622*
X05162*
X05161Y08623*
X05155Y08627*
X05148Y08628*
X0514Y08627*
X05134Y08623*
X0513Y08617*
X05129Y0861*
X0513Y08602*
X05132Y086*
X05129Y08595*
X04877*
X04442Y0903*
X04438Y09033*
X04434Y09034*
X04151*
X04148Y0904*
X04143Y09048*
X04143Y09052*
X04144Y09053*
X04335*
X04341Y09054*
X04346Y09057*
X04365Y09076*
X04368Y09081*
X04369Y09087*
Y09096*
X04373*
Y09116*
X04382Y09125*
X04385Y0913*
X04386Y09137*
Y0934*
X0439*
Y09387*
G37*
G36*
X1244Y09158D02*
X1243Y09156D01*
X12421Y09153*
X12414Y09147*
X12408Y0914*
X12405Y09131*
X12403Y09122*
X12405Y09112*
X12408Y09103*
X12414Y09096*
X12421Y0909*
X1243Y09087*
X1244Y09085*
X12449Y09087*
X12458Y0909*
X12465Y09096*
X12471Y09103*
X12474Y09112*
X12476Y09122*
X12474Y09131*
X12471Y0914*
X12465Y09147*
X12458Y09153*
X12449Y09156*
X1244Y09158*
G37*
G36*
X1217Y09159D02*
X1213D01*
Y09112*
X12148*
X12149Y09111*
X12156Y0911*
X12163Y09111*
X12164Y09112*
X1217*
Y09115*
X12204*
X12205Y09112*
X12208Y09103*
X12214Y09096*
X12221Y0909*
X1223Y09087*
X1224Y09085*
X12249Y09087*
X12258Y0909*
X12265Y09096*
X12271Y09103*
X12274Y09112*
X12276Y09122*
X12274Y09131*
X12271Y0914*
X12265Y09147*
X12258Y09153*
X12249Y09156*
X1224Y09158*
X1223Y09156*
X12221Y09153*
X12221Y09153*
X1217*
Y09159*
G37*
G36*
X1224Y09058D02*
X1223Y09056D01*
X12221Y09053*
X12214Y09047*
X12208Y0904*
X12207Y09038*
X12109*
Y09056*
X12062*
Y09016*
X12082*
X12089Y0901*
X12094Y09007*
X121Y09005*
X12207*
X12208Y09003*
X12214Y08996*
X12221Y0899*
X1223Y08987*
X1224Y08985*
X12249Y08987*
X12258Y0899*
X12265Y08996*
X12271Y09003*
X12274Y09012*
X12276Y09022*
X12274Y09031*
X12271Y0904*
X12265Y09047*
X12258Y09053*
X12249Y09056*
X1224Y09058*
G37*
G36*
X118Y09113D02*
X11789Y09112D01*
X11779Y09108*
X11771Y09102*
X11765Y09093*
X11761Y09084*
X11759Y09073*
X11761Y09063*
X11765Y09053*
X11771Y09045*
X11779Y09038*
X11789Y09034*
X118Y09033*
X1181Y09034*
X1182Y09038*
X11828Y09045*
X11834Y09053*
X11838Y09063*
X1184Y09073*
X11838Y09084*
X11834Y09093*
X11828Y09102*
X1182Y09108*
X1181Y09112*
X118Y09113*
G37*
G36*
X1244Y09058D02*
X1243Y09056D01*
X12421Y09053*
X12414Y09047*
X12408Y0904*
X12405Y09031*
X12403Y09022*
X12405Y09012*
X12408Y09003*
X12414Y08996*
X12421Y0899*
X1243Y08987*
X1244Y08985*
X12449Y08987*
X12458Y0899*
X12465Y08996*
X12471Y09003*
X12474Y09012*
X12476Y09022*
X12474Y09031*
X12471Y0904*
X12465Y09047*
X12458Y09053*
X12449Y09056*
X1244Y09058*
G37*
G36*
X061Y09028D02*
X06029D01*
Y09004*
Y08965*
Y08925*
Y08886*
Y08846*
Y08807*
Y08768*
X061*
Y08807*
Y08846*
Y08886*
Y08925*
Y08965*
Y09004*
Y09028*
G37*
G36*
X118Y08813D02*
X11789Y08812D01*
X11779Y08808*
X11771Y08802*
X11765Y08793*
X11761Y08784*
X11759Y08773*
X11761Y08763*
X11765Y08753*
X11771Y08745*
X11779Y08738*
X11789Y08734*
X118Y08733*
X1181Y08734*
X1182Y08738*
X11828Y08745*
X11834Y08753*
X11838Y08763*
X1184Y08773*
X11838Y08784*
X11834Y08793*
X11828Y08802*
X1182Y08808*
X1181Y08812*
X118Y08813*
G37*
G36*
X04116Y08559D02*
X04106Y08558D01*
X04097Y08554*
X04089Y08548*
X04083Y0854*
X04079Y08531*
X04078Y08522*
X04079Y08512*
X04083Y08503*
X04089Y08495*
X04097Y08489*
X04106Y08485*
X04116Y08484*
X04125Y08485*
X04134Y08489*
X04142Y08495*
X04148Y08503*
X04152Y08512*
X04153Y08522*
X04152Y08531*
X04148Y0854*
X04142Y08548*
X04134Y08554*
X04125Y08558*
X04116Y08559*
G37*
G36*
X1224Y08458D02*
X1223Y08456D01*
X12221Y08453*
X12214Y08447*
X12208Y0844*
X12205Y08431*
X12203Y08422*
X12205Y08412*
X12208Y08403*
X12214Y08396*
X12221Y0839*
X1223Y08387*
X1224Y08385*
X12249Y08387*
X12258Y0839*
X12265Y08396*
X12271Y08403*
X12274Y08412*
X12276Y08422*
X12274Y08431*
X12271Y0844*
X12265Y08447*
X12258Y08453*
X12249Y08456*
X1224Y08458*
G37*
G36*
X04116Y08409D02*
X04106Y08408D01*
X04097Y08404*
X04089Y08398*
X04083Y0839*
X04079Y08381*
X04078Y08372*
X04079Y08362*
X04083Y08353*
X04089Y08345*
X04097Y08339*
X04106Y08335*
X04116Y08334*
X04125Y08335*
X04134Y08339*
X04142Y08345*
X04148Y08353*
X04149Y08355*
X04277*
Y08349*
X04317*
Y08396*
X04277*
Y08388*
X04149*
X04148Y0839*
X04142Y08398*
X04134Y08404*
X04125Y08408*
X04116Y08409*
G37*
G36*
X05998Y085D02*
X05639D01*
Y08429*
X0564*
Y08303*
X05626Y08289*
X05624Y08285*
X05623Y08281*
Y0826*
X05614*
Y08213*
X05616*
Y08198*
X05602*
Y08108*
X05642*
Y08198*
X05638*
Y08213*
X05654*
Y0826*
X05645*
Y08276*
X05659Y0829*
X0566Y08292*
X05665Y08293*
X05666Y08293*
X05686Y08274*
Y0826*
X05673*
Y08213*
X0569*
X0569Y08213*
Y08198*
X05682*
Y08108*
X05722*
Y08198*
X05712*
Y08213*
X05713*
Y0826*
X05708*
Y08278*
X05707Y08283*
X05705Y08286*
X05682Y08309*
Y08341*
X05687Y08343*
X07121Y06909*
X07125Y06906*
X07129Y06905*
X10628*
X1066Y06873*
Y067*
X10661Y06697*
X10647Y06683*
X10643Y06685*
Y06814*
X10642Y06818*
X10639Y06822*
X10603Y06858*
X10599Y06861*
X10595Y06862*
X10579*
X10574Y06863*
Y06867*
Y06888*
X1054*
X10539Y06889*
X10493*
X10488Y06888*
X10484Y06885*
X1048Y06887*
X10476Y0689*
X10469Y06891*
X10461Y0689*
X10455Y06886*
X10451Y0688*
X1045Y06873*
X10451Y06865*
X10455Y06859*
X10461Y06855*
X10469Y06854*
X10476Y06855*
X10482Y06859*
X10483Y0686*
X10489*
X10493Y06861*
X10497Y06864*
X10498Y06864*
X105*
X10505Y06862*
Y06858*
Y06837*
X105Y06836*
X10377*
X10372Y06835*
X10371Y06834*
X10369Y06834*
X10361Y06833*
X10355Y06829*
X10353Y06826*
X10348Y06827*
Y0685*
X10351Y06851*
X10355Y06857*
X10356Y06865*
X10355Y06872*
X10351Y06878*
X10345Y06882*
X10338Y06883*
X1033Y06882*
X10324Y06878*
X1032Y06872*
X10319Y06865*
X1032Y06857*
X10324Y06852*
Y06405*
X10325Y06401*
X10328Y06397*
X10356Y06369*
X10359Y06366*
X10364Y06365*
X10364*
X10443*
X10447Y06366*
X10451Y06369*
X10478Y06396*
X10481Y06396*
X10488Y06397*
X10494Y06401*
X10498Y06407*
X10498Y06409*
X10505*
Y06409*
X10574*
Y06455*
Y06459*
Y0646*
Y06485*
Y06506*
X10579Y06508*
X10585Y06502*
Y06377*
Y06377*
X10586Y06373*
X10589Y06369*
X10659Y06299*
X10663Y06296*
X10668Y06295*
X10927*
X1093Y0629*
X10927Y06287*
X10926Y0628*
X10927Y06272*
X10931Y06266*
X10937Y06262*
X10945Y06261*
X10952Y06262*
X10958Y06266*
X10959Y06267*
X12385*
X12389Y06268*
X12393Y06271*
X12523Y06401*
X12526Y06405*
X12527Y0641*
Y07406*
X12526Y0741*
X12523Y07414*
X12465Y07472*
X12462Y07475*
X12457Y07476*
X12403*
X12272Y07606*
X12274Y07612*
X12276Y07622*
X12274Y07631*
X12271Y0764*
X12265Y07647*
X12258Y07653*
X12249Y07656*
X1224Y07658*
X1223Y07656*
X12221Y07653*
X12214Y07647*
X12208Y0764*
X12205Y07631*
X12203Y07622*
X12205Y07612*
X12208Y07603*
X12214Y07596*
X12221Y0759*
X1223Y07587*
X1224Y07585*
X12249Y07587*
X12255Y07589*
X12389Y07455*
X12393Y07452*
X12398Y07451*
X12398*
X12412*
X12413Y07446*
X12408Y0744*
X12405Y07431*
X12403Y07422*
X12405Y07412*
X12408Y07403*
X12414Y07396*
X12421Y0739*
X1243Y07387*
X1244Y07385*
X12449Y07387*
X12455Y07389*
X12481Y07362*
Y07011*
X12478Y07007*
X12473Y0701*
X12474Y07012*
X12476Y07022*
X12474Y07031*
X12471Y0704*
X12465Y07047*
X12458Y07053*
X12449Y07056*
X1244Y07058*
X1243Y07056*
X12421Y07053*
X12414Y07047*
X12408Y0704*
X12406Y07034*
X12354*
X12309Y07078*
X12305Y07081*
X12301Y07082*
X12296Y07081*
X12294Y0708*
X11467*
X11466Y07081*
X1146Y07085*
X11453Y07086*
X11445Y07085*
X11439Y07081*
X11435Y07075*
X11434Y07068*
X11435Y0706*
X11439Y07054*
X11445Y0705*
X11453Y07049*
X1146Y0705*
X11466Y07054*
X11467Y07055*
X12216*
X12218Y0705*
X12214Y07047*
X12208Y0704*
X12205Y07031*
X12203Y07022*
X12205Y07012*
X12208Y07003*
X12214Y06996*
X12221Y0699*
X1223Y06987*
X12229Y06982*
X11956*
X11951Y06981*
X11947Y06978*
X11819Y06851*
X11712*
X11711Y06852*
X11705Y06856*
X11698Y06857*
X1169Y06856*
X11684Y06852*
X1168Y06846*
X11679Y06839*
X1168Y06831*
X11684Y06825*
X1169Y06821*
X11698Y0682*
X11705Y06821*
X11711Y06825*
X11712Y06826*
X11825*
X11829Y06827*
X11833Y0683*
X11961Y06957*
X12219*
X12221Y06955*
X12221Y06952*
X12214Y06947*
X12208Y0694*
X12205Y06931*
X12203Y06922*
X12205Y06912*
X12208Y06903*
X12214Y06896*
X12221Y0689*
X1223Y06887*
X1224Y06885*
X12249Y06887*
X12258Y0689*
X12265Y06896*
X12271Y06903*
X12274Y06912*
X12276Y06922*
X12274Y06931*
X12271Y0694*
X12265Y06947*
X12258Y06952*
X12258Y06955*
X1226Y06957*
X12458*
X12462Y06958*
X12466Y06961*
X12497Y06992*
X12502Y0699*
Y06543*
X12501Y06542*
X12495Y06542*
X12465Y06572*
X12462Y06575*
X12457Y06576*
X12403*
X12272Y06706*
X12274Y06712*
X12276Y06722*
X12274Y06731*
X12271Y0674*
X12265Y06747*
X12258Y06753*
X12249Y06756*
X1224Y06758*
X1223Y06756*
X12221Y06753*
X12214Y06747*
X12208Y0674*
X12205Y06731*
X12203Y06722*
X12205Y06712*
X12208Y06703*
X12214Y06696*
X12221Y0669*
X1223Y06687*
X1224Y06685*
X12249Y06687*
X12255Y06689*
X12389Y06555*
X12393Y06552*
X12398Y06551*
X12398*
X12412*
X12413Y06546*
X12408Y0654*
X12406Y06534*
X12328*
X12273Y06588*
X12269Y06591*
X12267Y06591*
X12266Y06594*
X12266Y06597*
X12271Y06603*
X12274Y06612*
X12276Y06622*
X12274Y06631*
X12271Y0664*
X12265Y06647*
X12258Y06653*
X12249Y06656*
X1224Y06658*
X1223Y06656*
X12224Y06654*
X12119Y06759*
X12121Y06764*
X12258*
X1231Y06713*
X12314Y0671*
X12319Y06709*
X12406*
X12408Y06703*
X12414Y06696*
X12421Y0669*
X1243Y06687*
X1244Y06685*
X12449Y06687*
X12458Y0669*
X12465Y06696*
X12471Y06703*
X12474Y06712*
X12476Y06722*
X12474Y06731*
X12471Y0674*
X12465Y06747*
X12458Y06753*
X12449Y06756*
X1244Y06758*
X1243Y06756*
X12421Y06753*
X12414Y06747*
X12408Y0674*
X12406Y06734*
X12324*
X12272Y06785*
X12268Y06788*
X12264Y06789*
X11661*
X11495Y06954*
X11498Y06959*
X11499Y06959*
X11506Y0696*
X11512Y06964*
X11513Y06965*
X11667*
X11668Y06964*
X11674Y0696*
X11682Y06959*
X11689Y0696*
X11695Y06964*
X11699Y0697*
X117Y06978*
X11699Y06985*
X11695Y06991*
X11689Y06995*
X11682Y06996*
X11674Y06995*
X11668Y06991*
X11667Y0699*
X11513*
X11512Y06991*
X11506Y06995*
X11499Y06996*
X11491Y06995*
X11485Y06991*
X11481Y06985*
X1148Y06978*
X1148Y06977*
X11475Y06974*
X1134Y0711*
Y07285*
X11339Y07289*
X11336Y07293*
X11169Y0746*
X11172Y07465*
X11177Y07464*
X11184Y07465*
X1119Y07469*
X11194Y07475*
X11195Y07483*
X11194Y0749*
X1119Y07496*
Y075*
X11194Y07506*
X11195Y07514*
X11194Y07521*
X1119Y07527*
X11189Y07528*
Y08021*
X11188Y08025*
X11186Y08027*
X11187Y08033*
X11186Y0804*
X11182Y08046*
X11181Y08046*
X11183Y08051*
X11229*
X11231Y08046*
X1123Y08046*
X11226Y0804*
X11225Y08033*
X11226Y08025*
X1123Y08019*
X11231Y08018*
Y07853*
X1123Y07851*
X11229Y07847*
Y07465*
X1123Y0746*
X11233Y07456*
X11277Y07412*
X11281Y07409*
X11286Y07408*
X11315*
X11319Y07409*
X11323Y07412*
X11413Y07501*
X11418*
X11707Y07213*
X11711Y0721*
X11716Y07209*
X12206*
X12208Y07203*
X12214Y07196*
X12221Y0719*
X1223Y07187*
X1224Y07185*
X12249Y07187*
X12258Y0719*
X12265Y07196*
X12271Y07203*
X12274Y07212*
X12276Y07222*
X12274Y07231*
X12271Y0724*
X12265Y07247*
X12258Y07253*
X12249Y07256*
X1224Y07258*
X1223Y07256*
X12221Y07253*
X12214Y07247*
X12208Y0724*
X12206Y07234*
X11721*
X11434Y0752*
X11434Y07522*
X11433Y07529*
X11429Y07535*
X11423Y07539*
X11416Y0754*
X11408Y07539*
X11402Y07535*
X11398Y07529*
X11397Y07522*
X11397Y0752*
X11346Y07469*
X11342Y07472*
X11343Y07477*
Y07711*
X11383Y07751*
X12282*
X12286Y07752*
X1229Y07755*
X12424Y07889*
X1243Y07887*
X1244Y07885*
X12449Y07887*
X12458Y0789*
X12465Y07896*
X12471Y07903*
X12474Y07912*
X12476Y07922*
X12474Y07931*
X12471Y0794*
X12465Y07947*
X12458Y07953*
X12449Y07956*
X1244Y07958*
X1243Y07956*
X12421Y07953*
X12414Y07947*
X12408Y0794*
X12405Y07931*
X12403Y07922*
X12405Y07912*
X12407Y07906*
X12276Y07776*
X11378*
X11373Y07775*
X11369Y07772*
X11322Y07725*
X11319Y07721*
X11318Y07717*
Y07597*
X11313Y07596*
X11311Y076*
X1131Y07601*
Y07757*
X11362Y07809*
X12206*
X12208Y07803*
X12214Y07796*
X12221Y0779*
X1223Y07787*
X1224Y07785*
X12249Y07787*
X12258Y0779*
X12265Y07796*
X12271Y07803*
X12274Y07812*
X12276Y07822*
X12274Y07831*
X12271Y0784*
X12265Y07847*
X12258Y07853*
X12249Y07856*
X1224Y07858*
X1223Y07856*
X12221Y07853*
X12214Y07847*
X12208Y0784*
X12206Y07834*
X11357*
X11352Y07833*
X11348Y0783*
X11289Y07771*
X11283Y07771*
X11282Y07771*
Y07796*
X11342Y07856*
X12156*
X1216Y07857*
X12164Y0786*
X12204Y079*
X12211Y079*
X12214Y07896*
X12221Y0789*
X1223Y07887*
X1224Y07885*
X12249Y07887*
X12258Y0789*
X12265Y07896*
X12271Y07903*
X12274Y07912*
X12276Y07922*
X12274Y07931*
X12271Y0794*
X12265Y07947*
X12258Y07953*
X12249Y07956*
X1224Y07958*
X1223Y07956*
X12221Y07953*
X12214Y07947*
X12208Y0794*
X12205Y07933*
X12204Y07933*
X122Y0793*
X1215Y07881*
X11337*
X11332Y0788*
X11328Y07877*
X11264Y07813*
X11261Y07811*
X11255Y07811*
X11254Y07811*
Y07842*
X11255Y07844*
X11256Y07849*
Y08018*
X11257Y08019*
X11261Y08025*
X11262Y08033*
X11261Y0804*
X11257Y08046*
X11256Y08046*
X11258Y08051*
X12282*
X12286Y08052*
X1229Y08055*
X1229Y08055*
X12424Y08189*
X1243Y08187*
X1244Y08185*
X12449Y08187*
X12458Y0819*
X12465Y08196*
X12471Y08203*
X12474Y08212*
X12476Y08222*
X12474Y08231*
X12471Y0824*
X12465Y08247*
X12458Y08253*
X12449Y08256*
X1244Y08258*
X1243Y08256*
X12421Y08253*
X12414Y08247*
X12408Y0824*
X12405Y08231*
X12403Y08222*
X12405Y08212*
X12407Y08206*
X12276Y08076*
X11161*
X11157Y08075*
X11153Y08072*
X11006Y07925*
X10902*
X109Y0793*
X10918Y07948*
X10921Y07952*
X10922Y07956*
Y07956*
Y08153*
X10921Y08157*
X10918Y08161*
X10878Y08201*
X10875Y08205*
X10875*
Y08252*
X10854*
X10853Y08254*
X10855Y08258*
X10987*
X11106Y08139*
X1111Y08136*
X11115Y08135*
X11119*
X11121Y08131*
X1112Y0813*
X11119Y08123*
X1112Y08115*
X11124Y08109*
X1113Y08105*
X11138Y08104*
X11145Y08105*
X11151Y08109*
X11151Y08109*
X12206*
X12208Y08103*
X12214Y08096*
X12221Y0809*
X1223Y08087*
X1224Y08085*
X12249Y08087*
X12258Y0809*
X12265Y08096*
X12271Y08103*
X12274Y08112*
X12276Y08122*
X12274Y08131*
X12271Y0814*
X12265Y08147*
X12258Y08153*
X12249Y08156*
X1224Y08158*
X1223Y08156*
X12221Y08153*
X12214Y08147*
X12208Y0814*
X12206Y08134*
X12175*
X12174Y08139*
X12174Y08139*
X12224Y08189*
X1223Y08187*
X1224Y08185*
X12249Y08187*
X12258Y0819*
X12265Y08196*
X12271Y08203*
X12274Y08212*
X12276Y08222*
X12274Y08231*
X12271Y0824*
X12265Y08247*
X12258Y08253*
X12249Y08256*
X1224Y08258*
X1223Y08256*
X12221Y08253*
X12214Y08247*
X12208Y0824*
X12205Y08231*
X12203Y08222*
X12205Y08212*
X12207Y08206*
X1216Y0816*
X1112*
X11Y08279*
X10996Y08282*
X10992Y08283*
X10327*
X10323Y08282*
X10319Y08279*
X1026Y0822*
X10257Y08216*
X10256Y08212*
Y07063*
X10255Y07062*
X10251Y07056*
X1025Y07049*
X10251Y07041*
X10255Y07035*
X10261Y07031*
X10269Y0703*
X10273Y07031*
X10276Y07026*
X10261Y07011*
X07156*
X05963Y08205*
X05965Y0821*
X05967Y08209*
X05976Y08211*
X05984Y08216*
X05989Y08224*
Y08224*
X05994*
X05994Y08222*
X05999Y08214*
X06007Y08209*
X06017Y08207*
X06026Y08209*
X06034Y08214*
X06039Y08222*
X06041Y08232*
X06039Y08241*
X06034Y08249*
X06026Y08254*
X06017Y08256*
X0601Y08254*
X05988Y08275*
X05985Y08278*
X05981Y08279*
X05976*
X05903Y08352*
X05904Y08357*
X05908Y08358*
X05914Y08362*
X05916Y08365*
X05922Y08366*
X05923Y08366*
X05923Y08365*
X05924Y08358*
X05928Y08352*
X05934Y08348*
X05942Y08347*
X05949Y08348*
X05955Y08352*
X05959Y08358*
X0596Y08366*
X05959Y08373*
X05955Y08379*
X05949Y08383*
X05944Y08384*
X05919Y08409*
Y08429*
X05998*
Y085*
G37*
G36*
X1244Y08358D02*
X1243Y08356D01*
X12421Y08353*
X12414Y08347*
X12408Y0834*
X12405Y08331*
X12403Y08322*
X12405Y08312*
X12408Y08303*
X12414Y08296*
X12421Y0829*
X1243Y08287*
X1244Y08285*
X12449Y08287*
X12458Y0829*
X12465Y08296*
X12471Y08303*
X12474Y08312*
X12476Y08322*
X12474Y08331*
X12471Y0834*
X12465Y08347*
X12458Y08353*
X12449Y08356*
X1244Y08358*
G37*
G36*
X07413Y08374D02*
X07369D01*
X07363Y08373*
X07357Y08369*
X07354Y08364*
X07352Y08357*
X07354Y08351*
X07357Y08345*
X07359Y08344*
Y08339*
X07357Y08338*
X07354Y08332*
X07352Y08326*
X07354Y08319*
X07357Y08314*
X07359Y08313*
Y08308*
X07357Y08306*
X07354Y08301*
X07352Y08294*
X07354Y08288*
X07357Y08282*
X07357Y08282*
X07358Y08277*
X07355Y08274*
X07345*
X07341Y0828*
X07333Y08285*
X07324Y08287*
X07315Y08285*
X07307Y0828*
X07302Y08272*
X073Y08263*
X07302Y08254*
X07307Y08246*
X07315Y08241*
X07324Y08239*
X07333Y08241*
X07341Y08246*
X07345Y08252*
X07357*
X07357Y08251*
X07363Y08247*
X07369Y08246*
X07413*
X07419Y08247*
X07425Y08251*
X07429Y08256*
X0743Y08263*
X07429Y08269*
X07425Y08275*
X07423Y08276*
Y08281*
X07425Y08282*
X07429Y08288*
X0743Y08294*
X07429Y08301*
X07425Y08306*
X07423Y08308*
Y08313*
X07425Y08314*
X07429Y08319*
X0743Y08326*
X07429Y08332*
X07425Y08338*
X07423Y08339*
Y08344*
X07425Y08345*
X07429Y08351*
X0743Y08357*
X07429Y08364*
X07425Y08369*
X07419Y08373*
X07413Y08374*
G37*
G36*
X07957Y08253D02*
X07948Y08252D01*
X07941Y08249*
X07934Y08244*
X07932Y0824*
X07922*
Y08245*
X07882*
Y08198*
X07922*
Y08203*
X07932*
X07934Y08199*
X07941Y08195*
X07948Y08191*
X07957Y0819*
X07965Y08191*
X07972Y08195*
X07979Y08199*
X07984Y08206*
X07987Y08213*
X07988Y08222*
X07987Y0823*
X07984Y08237*
X07979Y08244*
X07972Y08249*
X07965Y08252*
X07957Y08253*
G37*
G36*
X04116Y08309D02*
X04106Y08308D01*
X04097Y08304*
X04089Y08298*
X04083Y0829*
X04079Y08281*
X04078Y08272*
X04079Y08262*
X04083Y08253*
X04089Y08245*
X04097Y08239*
X04106Y08235*
X04116Y08234*
X04125Y08235*
X04134Y08239*
X04142Y08245*
X04148Y08253*
X04152Y08262*
X04153Y08272*
X04152Y08281*
X04148Y0829*
X04142Y08298*
X04134Y08304*
X04125Y08308*
X04116Y08309*
G37*
G36*
X07413Y08217D02*
X07369D01*
X07363Y08216*
X07357Y08212*
X07354Y08206*
X07352Y082*
X07354Y08193*
X07355Y08192*
X07352Y08187*
X07313*
Y08199*
X07273*
Y08152*
X07293*
X07293Y08151*
X073Y0815*
X07391*
X07397Y08151*
X07413*
X07419Y08153*
X07425Y08156*
X07429Y08162*
X0743Y08168*
X07429Y08175*
X07425Y0818*
X07423Y08182*
Y08187*
X07425Y08188*
X07429Y08193*
X0743Y082*
X07429Y08206*
X07425Y08212*
X07419Y08216*
X07413Y08217*
G37*
G36*
X06572Y08514D02*
X06564Y08513D01*
X06558Y08509*
X06554Y08503*
X06553Y08496*
X06554Y08488*
X06558Y08482*
X06564Y08478*
X06572Y08477*
X06573Y08477*
X0689Y0816*
X06894Y08157*
X06899Y08156*
X07195*
X072Y08157*
X07204Y0816*
X07208Y08163*
X07214*
Y08152*
X07254*
Y08199*
X07214*
Y08188*
X07203*
X07198Y08187*
X07194Y08184*
X0719Y0818*
X06904*
X0659Y08494*
X0659Y08496*
X06589Y08503*
X06585Y08509*
X06579Y08513*
X06572Y08514*
G37*
G36*
X06527Y08485D02*
X06519Y08484D01*
X06513Y0848*
X06509Y08474*
X06508Y08467*
X06509Y08459*
X06513Y08453*
X06519Y08449*
X06527Y08448*
X06528Y08448*
X06871Y08105*
X06875Y08102*
X0688Y08101*
X06948*
X06949Y08096*
X06942Y08095*
X06934Y0809*
X06931Y08084*
X06891*
X06886Y08083*
X06883Y0808*
X06622Y0782*
X06616Y07822*
X06606Y0782*
X06598Y07815*
X06593Y07807*
X06591Y07798*
X06593Y07788*
X06598Y0778*
X06606Y07775*
X06616Y07773*
X06625Y07775*
X06633Y0778*
X06638Y07788*
X0664Y07798*
X06638Y07804*
X06895Y08061*
X06931*
X06934Y08055*
X06942Y0805*
X06952Y08048*
X06961Y0805*
X06969Y08055*
X06974Y08063*
X06976Y08073*
X06974Y08082*
X06969Y0809*
X06961Y08095*
X06954Y08096*
X06955Y08101*
X07115*
X07119Y08102*
X07123Y08104*
X07214*
Y08093*
X07254*
Y0814*
X07214*
Y08129*
X07118*
X07113Y08128*
X0711Y08125*
X06885*
X06545Y08465*
X06545Y08467*
X06544Y08474*
X0654Y0848*
X06534Y08484*
X06527Y08485*
G37*
G36*
X07667Y08152D02*
X0766Y08151D01*
X07655Y08147*
X07651Y08141*
X0765Y08135*
Y08091*
X07651Y08085*
X07655Y08079*
X0766Y08076*
X07667Y08074*
X07673Y08076*
X07679Y08079*
X07683Y08085*
X07684Y08091*
Y08135*
X07683Y08141*
X07679Y08147*
X07673Y08151*
X07667Y08152*
G37*
G36*
X07211Y08048D02*
X07201Y08046D01*
X07195Y08042*
X07155*
X07148Y0804*
X07142Y08036*
X06708Y07603*
X06701Y07602*
X06693Y07597*
X06688Y07589*
X06686Y0758*
X06688Y0757*
X06693Y07562*
X06701Y07557*
X06711Y07555*
X0672Y07557*
X06728Y07562*
X06733Y0757*
X06734Y07577*
X07162Y08005*
X07195*
X07201Y08001*
X07211Y07999*
X0722Y08001*
X07223Y08004*
X07227Y08*
X07225Y07998*
X07224Y07991*
X06775Y07542*
X06772Y07545*
X06763Y07547*
X06753Y07545*
X06745Y0754*
X0674Y07532*
X06738Y07523*
X0674Y07513*
X06745Y07505*
X06753Y075*
X06763Y07498*
X06772Y075*
X06778Y07504*
X06782*
X06788Y07506*
X06794Y0751*
X0725Y07965*
X07257Y07966*
X07265Y07971*
X0727Y07979*
X07272Y07989*
X0727Y07998*
X07265Y08006*
X07257Y08011*
X07248Y08013*
X07238Y08011*
X07235Y08008*
X07231Y08012*
X07233Y08014*
X07235Y08024*
X07233Y08033*
X07228Y08041*
X0722Y08046*
X07211Y08048*
G37*
G36*
X07604Y08152D02*
X07597Y08151D01*
X07592Y08147*
X07588Y08141*
X07587Y08135*
Y08091*
X07588Y08087*
Y08052*
X07589Y08046*
X07592Y0804*
X07597Y08036*
Y08015*
X07644*
Y08019*
X07655*
Y08012*
X07702*
Y08056*
X07655*
Y08051*
X07644*
Y08055*
X07624*
X0762Y08059*
Y08087*
X07621Y08091*
Y08135*
X0762Y08141*
X07616Y08147*
X0761Y08151*
X07604Y08152*
G37*
G36*
X1244Y08058D02*
X1243Y08056D01*
X12421Y08053*
X12414Y08047*
X12408Y0804*
X12405Y08031*
X12403Y08022*
X12405Y08012*
X12408Y08003*
X12414Y07996*
X12421Y0799*
X1243Y07987*
X1244Y07985*
X12449Y07987*
X12458Y0799*
X12465Y07996*
X12471Y08003*
X12474Y08012*
X12476Y08022*
X12474Y08031*
X12471Y0804*
X12465Y08047*
X12458Y08053*
X12449Y08056*
X1244Y08058*
G37*
G36*
X04173Y07938D02*
X04136D01*
X04118Y0792*
Y07883*
X04136Y07865*
X04173*
X04191Y07883*
Y0792*
X04173Y07938*
G37*
G36*
Y07838D02*
X04136D01*
X04118Y0782*
Y07783*
X04136Y07765*
X04173*
X04191Y07783*
Y0782*
X04173Y07838*
G37*
G36*
X04541Y07817D02*
D01*
X04259*
X04254Y07816*
X04251Y07813*
X04174Y07737*
X04173Y07738*
X04136*
X04118Y0772*
Y07683*
X04119Y07682*
X04105Y07667*
X04102Y07664*
X04101Y0766*
X04101Y0766*
Y07244*
X04101*
X04102Y0724*
X04105Y07236*
X04225Y07115*
X04223Y07108*
X04221Y07099*
X04223Y0709*
X04226Y07081*
X04232Y07073*
X04239Y07068*
X04248Y07064*
X04257Y07063*
X04267Y07064*
X04276Y07068*
X04283Y07073*
X04289Y07081*
X04292Y07088*
X04333*
X04334Y07083*
X04327Y07078*
X04321Y07069*
X04317Y0706*
X04316Y0705*
X04317Y07039*
X04321Y0703*
X04327Y07021*
X04336Y07015*
X04345Y07011*
X04356Y0701*
X04366Y07011*
X04375Y07015*
X04384Y07021*
X0439Y0703*
X04394Y07039*
X04395Y0705*
X04394Y0706*
X0439Y07069*
X04384Y07078*
X04377Y07083*
X04379Y07088*
X04444*
Y07082*
X04455*
Y07073*
X04444*
Y07026*
X04488*
Y07073*
X04477*
Y07082*
X04488*
Y07129*
X04444*
Y0711*
X04292*
X04289Y07117*
X04283Y07125*
X04276Y0713*
X04267Y07134*
X04257Y07135*
X04248Y07134*
X04241Y07131*
X04124Y07248*
Y0747*
X04128Y07472*
X04136Y07465*
X04173*
X04191Y07483*
Y0752*
X04173Y07538*
X04136*
X04128Y07531*
X04124Y07533*
Y0757*
X04128Y07572*
X04136Y07565*
X04173*
X04191Y07583*
Y0762*
X04173Y07638*
X04136*
X04128Y07631*
X04124Y07633*
Y07655*
X04135Y07666*
X04136Y07665*
X04173*
X04191Y07683*
Y0772*
X0419Y07721*
X04263Y07794*
X04536*
X04565Y07766*
X04563Y07759*
X04565Y07749*
X0457Y07742*
X04578Y07736*
X04587Y07735*
X04597Y07736*
X04604Y07742*
X0461Y07749*
X04611Y07759*
X0461Y07768*
X04604Y07776*
X04597Y07781*
X04587Y07783*
X0458Y07781*
X04548Y07813*
X04545Y07816*
X04541Y07817*
G37*
G36*
X12261Y07692D02*
X12261D01*
X11618*
X11618*
X11613Y07691*
X11612Y0769*
X1161Y0769*
X11602Y07689*
X11596Y07685*
X11592Y07679*
X11591Y07672*
X11592Y07664*
X11596Y07658*
X11597Y07657*
Y07575*
X11595Y07574*
X11591Y07568*
X1159Y07561*
X11591Y07553*
X11595Y07547*
X11601Y07543*
X11609Y07542*
X11616Y07543*
X11622Y07547*
X11626Y07553*
X11627Y07561*
X11626Y07568*
X11622Y07574*
X11622Y07574*
Y07657*
X11623Y07658*
X11627Y07664*
X11627Y07667*
X12256*
X12311Y07613*
X12315Y0761*
X1232Y07609*
X12406*
X12408Y07603*
X12414Y07596*
X12421Y0759*
X1243Y07587*
X1244Y07585*
X12449Y07587*
X12458Y0759*
X12465Y07596*
X12471Y07603*
X12474Y07612*
X12476Y07622*
X12474Y07631*
X12471Y0764*
X12465Y07647*
X12458Y07653*
X12449Y07656*
X1244Y07658*
X1243Y07656*
X12421Y07653*
X12414Y07647*
X12408Y0764*
X12406Y07634*
X12325*
X1227Y07688*
X12266Y07691*
X12261Y07692*
G37*
G36*
X1244Y07758D02*
X1243Y07756D01*
X12421Y07753*
X12414Y07747*
X12408Y0774*
X12405Y07731*
X12403Y07722*
X12405Y07712*
X12408Y07703*
X12414Y07696*
X12421Y0769*
X1243Y07687*
X1244Y07685*
X12449Y07687*
X12458Y0769*
X12465Y07696*
X12471Y07703*
X12474Y07712*
X12476Y07722*
X12474Y07731*
X12471Y0774*
X12465Y07747*
X12458Y07753*
X12449Y07756*
X1244Y07758*
G37*
G36*
X06378Y07584D02*
X06368Y07582D01*
X0636Y07577*
X06355Y07569*
X06353Y0756*
X06355Y07553*
X05919Y07117*
X04543*
Y07129*
X04499*
Y07082*
X04543*
Y07094*
X05924*
X05928Y07095*
X05931Y07098*
X06371Y07537*
X06378Y07535*
X06387Y07537*
X06395Y07542*
X064Y0755*
X06402Y0756*
X064Y07569*
X06395Y07577*
X06387Y07582*
X06378Y07584*
G37*
G36*
X1141Y07738D02*
X11402Y07737D01*
X11396Y07733*
X11392Y07727*
X11391Y0772*
X11392Y07712*
X11396Y07706*
X11397Y07705*
Y07698*
X11398Y07693*
X11401Y07689*
X11514Y07576*
X11514Y07575*
X11515Y07567*
X11519Y07561*
X11525Y07557*
X11533Y07556*
X11534Y07556*
X11577Y07513*
X11581Y0751*
X11586Y07509*
X12206*
X12208Y07503*
X12214Y07496*
X12221Y0749*
X1223Y07487*
X1224Y07485*
X12249Y07487*
X12258Y0749*
X12265Y07496*
X12271Y07503*
X12274Y07512*
X12276Y07522*
X12274Y07531*
X12271Y0754*
X12265Y07547*
X12258Y07553*
X12249Y07556*
X1224Y07558*
X1223Y07556*
X12221Y07553*
X12214Y07547*
X12208Y0754*
X12206Y07534*
X11591*
X11551Y07573*
X11551Y07575*
X1155Y07582*
X11546Y07588*
X1154Y07592*
X11533Y07593*
X11531Y07593*
X11423Y07701*
X11423Y07706*
X11427Y07712*
X11428Y0772*
X11427Y07727*
X11423Y07733*
X11417Y07737*
X1141Y07738*
G37*
G36*
X04538Y07533D02*
X04441D01*
Y07475*
X04436Y07472*
X04433Y07475*
X04426Y07478*
X04418Y07479*
X04409Y07478*
X04402Y07475*
X04395Y0747*
X04391Y07463*
X04387Y07456*
X04386Y07448*
X04387Y07439*
X04391Y07432*
X04395Y07425*
X04402Y07421*
X04409Y07417*
X04418Y07416*
X04426Y07417*
X04433Y07421*
X04436Y07423*
X04441Y0742*
Y07414*
X04538*
Y07533*
G37*
G36*
X04073Y07538D02*
X04036D01*
X04018Y0752*
Y07483*
X04036Y07465*
X04073*
X04091Y07483*
Y0752*
X04073Y07538*
G37*
G36*
X11408Y07656D02*
X114Y07655D01*
X11394Y07651*
X1139Y07645*
X11389Y07638*
X1139Y0763*
X11394Y07624*
X11395Y07623*
Y07599*
X11396Y07594*
X11399Y0759*
X1157Y07419*
X11574Y07416*
X11579Y07415*
X11589*
X1159Y07414*
X11596Y0741*
X11604Y07409*
X11611Y0741*
X11617Y07414*
X11621Y0742*
X11622Y07428*
X11621Y07435*
X11617Y07441*
X11611Y07445*
X11604Y07446*
X11596Y07445*
X1159Y07441*
X11589Y0744*
X11584*
X1142Y07604*
Y07623*
X11421Y07624*
X11425Y0763*
X11426Y07638*
X11425Y07645*
X11421Y07651*
X11415Y07655*
X11408Y07656*
G37*
G36*
X04356Y07365D02*
X04345Y07364D01*
X04336Y0736*
X04327Y07354*
X04321Y07345*
X04317Y07336*
X04316Y07325*
X04317Y07315*
X04321Y07306*
X04327Y07297*
X04336Y07291*
X04345Y07287*
X04356Y07286*
X04366Y07287*
X04375Y07291*
X04384Y07297*
X0439Y07306*
X04394Y07315*
X04395Y07325*
X04394Y07336*
X0439Y07345*
X04384Y07354*
X04375Y0736*
X04366Y07364*
X04356Y07365*
G37*
G36*
X1244Y07358D02*
X1243Y07356D01*
X12421Y07353*
X12414Y07347*
X12408Y0734*
X12405Y07331*
X12403Y07322*
X12405Y07312*
X12407Y07306*
X12279Y07179*
X11512*
X1151Y07182*
X11504Y07186*
X11497Y07187*
X11489Y07186*
X11483Y07182*
X11479Y07176*
X11478Y07169*
X11478Y07167*
X11451Y0714*
X11429*
X11428Y07141*
X11422Y07145*
X11415Y07147*
X11407Y07145*
X11401Y07141*
X11397Y07135*
X11396Y07128*
X11397Y07121*
X11401Y07115*
X11407Y07111*
X11415Y07109*
X11422Y07111*
X11428Y07115*
X11429Y07116*
X11456*
X11456*
X11461Y07117*
X11464Y07119*
X11495Y0715*
X11497Y0715*
X11504Y07151*
X11508Y07154*
X12285*
X12289Y07155*
X12293Y07158*
X12424Y07289*
X1243Y07287*
X1244Y07285*
X12449Y07287*
X12458Y0729*
X12465Y07296*
X12471Y07303*
X12474Y07312*
X12476Y07322*
X12474Y07331*
X12471Y0734*
X12465Y07347*
X12458Y07353*
X12449Y07356*
X1244Y07358*
G37*
G36*
X1224D02*
X1223Y07356D01*
X12221Y07353*
X12214Y07347*
X12208Y0734*
X12205Y07331*
X12203Y07322*
X12205Y07312*
X12208Y07303*
X12214Y07296*
X12221Y0729*
X1223Y07287*
X1224Y07285*
X12249Y07287*
X12258Y0729*
X12265Y07296*
X12271Y07303*
X12274Y07312*
X12276Y07322*
X12274Y07331*
X12271Y0734*
X12265Y07347*
X12258Y07353*
X12249Y07356*
X1224Y07358*
G37*
G36*
X1244Y07158D02*
X1243Y07156D01*
X12421Y07153*
X12414Y07147*
X12408Y0714*
X12405Y07131*
X12403Y07122*
X12405Y07112*
X12408Y07103*
X12414Y07096*
X12421Y0709*
X1243Y07087*
X1244Y07085*
X12449Y07087*
X12458Y0709*
X12465Y07096*
X12471Y07103*
X12474Y07112*
X12476Y07122*
X12474Y07131*
X12471Y0714*
X12465Y07147*
X12458Y07153*
X12449Y07156*
X1244Y07158*
G37*
G36*
X11752Y07005D02*
X11744Y07004D01*
X11738Y07*
X11734Y06994*
X11733Y06987*
X11733Y06985*
X11676Y06929*
X116*
X11599Y0693*
X11593Y06934*
X11586Y06935*
X11578Y06934*
X11572Y0693*
X11568Y06924*
X11567Y06917*
X11568Y06909*
X11572Y06903*
X11578Y06899*
X11586Y06898*
X11593Y06899*
X11599Y06903*
X116Y06904*
X11682*
X11686Y06905*
X1169Y06908*
X1175Y06968*
X11752Y06968*
X11759Y06969*
X11765Y06973*
X11769Y06979*
X1177Y06987*
X11769Y06994*
X11765Y07*
X11759Y07004*
X11752Y07005*
G37*
G36*
X12222Y06876D02*
D01*
X11939*
X11934Y06875*
X11932Y06875*
X11924Y06874*
X11918Y0687*
X11914Y06864*
X11913Y06857*
X11914Y06849*
X11918Y06843*
X11924Y06839*
X11932Y06838*
X11939Y06839*
X11945Y06843*
X11949Y06849*
X11949Y06851*
X12222*
X12222Y06851*
X12252*
X1229Y06813*
X12294Y0681*
X12299Y06809*
X12406*
X12408Y06803*
X12414Y06796*
X12421Y0679*
X1243Y06787*
X1244Y06785*
X12449Y06787*
X12458Y0679*
X12465Y06796*
X12471Y06803*
X12474Y06812*
X12476Y06822*
X12474Y06831*
X12471Y0684*
X12465Y06847*
X12458Y06853*
X12449Y06856*
X1244Y06858*
X1243Y06856*
X12421Y06853*
X12414Y06847*
X12408Y0684*
X12406Y06834*
X12304*
X12265Y06872*
X12262Y06875*
X12257Y06876*
X12223*
X12222Y06876*
G37*
G36*
X04116Y06924D02*
X04106Y06923D01*
X04097Y06919*
X04089Y06913*
X04083Y06905*
X04079Y06896*
X04078Y06887*
X04079Y06877*
X04083Y06868*
X04089Y0686*
X04097Y06854*
X04106Y0685*
X04116Y06849*
X04125Y0685*
X04126Y0685*
X04326*
X04334Y06851*
X04342Y06855*
X04348Y06859*
X04353Y06866*
X04355Y06866*
X04356*
X04358Y06866*
X04363Y06859*
X04369Y06855*
X04377Y06851*
X04385Y0685*
X04444*
X04452Y06841*
X04459Y06837*
X04466Y06833*
X04475Y06832*
X04483Y06833*
X0449Y06837*
X04497Y06841*
X04502Y06848*
X04505Y06855*
X04506Y06864*
X04505Y06872*
X04502Y06879*
X04497Y06886*
X04479Y06904*
X04472Y06909*
X04465Y06912*
X04457Y06913*
X04385*
X04377Y06912*
X04369Y06909*
X04363Y06904*
X04358Y06897*
X04356Y06897*
X04355*
X04353Y06897*
X04348Y06904*
X04342Y06909*
X04334Y06912*
X04326Y06913*
X04143*
X04142Y06913*
X04134Y06919*
X04125Y06923*
X04116Y06924*
G37*
G36*
X06513Y07406D02*
X06503Y07404D01*
X06495Y07399*
X0649Y07391*
X06489Y07384*
X0591Y06805*
X04148*
X04148Y06805*
X04142Y06813*
X04134Y06819*
X04125Y06823*
X04116Y06824*
X04106Y06823*
X04097Y06819*
X04089Y06813*
X04083Y06805*
X04079Y06796*
X04078Y06787*
X04079Y06777*
X04083Y06768*
X04089Y0676*
X04097Y06754*
X04106Y0675*
X04116Y06749*
X04125Y0675*
X04134Y06754*
X04142Y0676*
X04148Y06768*
X04148Y06768*
X05918*
X05924Y0677*
X0593Y06774*
X06515Y07358*
X06522Y07359*
X0653Y07364*
X06535Y07372*
X06537Y07382*
X06535Y07391*
X0653Y07399*
X06522Y07404*
X06513Y07406*
G37*
G36*
X04475Y06676D02*
X04466Y06675D01*
X04464Y06674*
X04398*
X0439Y06673*
X04382Y0667*
X04376Y06665*
X04371Y06658*
X04369Y06658*
X04368*
X04366Y06658*
X04361Y06665*
X04355Y0667*
X04347Y06673*
X04339Y06674*
X04122*
X04121Y06674*
X04116Y06674*
X04106Y06673*
X04097Y06669*
X04089Y06663*
X04083Y06655*
X04079Y06646*
X04078Y06637*
X04079Y06627*
X04083Y06618*
X04089Y0661*
X04097Y06604*
X04106Y066*
X04116Y06599*
X04125Y066*
X04134Y06604*
X04142Y0661*
X04143Y06611*
X04339*
X04347Y06612*
X04355Y06616*
X04361Y0662*
X04366Y06627*
X04368Y06627*
X04369*
X04371Y06627*
X04376Y0662*
X04382Y06616*
X0439Y06612*
X04398Y06611*
X04473*
X04481Y06612*
X04488Y06616*
X04495Y0662*
X04497Y06622*
X04502Y06629*
X04505Y06636*
X04506Y06645*
X04505Y06653*
X04502Y0666*
X04497Y06667*
X0449Y06672*
X04483Y06675*
X04475Y06676*
G37*
G36*
X06558Y07342D02*
X06548Y0734D01*
X0654Y07335*
X06535Y07327*
X06534Y0732*
X05769Y06555*
X04148*
X04148Y06555*
X04142Y06563*
X04134Y06569*
X04125Y06573*
X04116Y06574*
X04106Y06573*
X04097Y06569*
X04089Y06563*
X04083Y06555*
X04079Y06546*
X04078Y06537*
X04079Y06527*
X04083Y06518*
X04089Y0651*
X04097Y06504*
X04106Y065*
X04116Y06499*
X04125Y065*
X04134Y06504*
X04142Y0651*
X04148Y06518*
X04148Y06518*
X05777*
X05783Y0652*
X05789Y06524*
X0656Y07294*
X06567Y07295*
X06575Y073*
X0658Y07308*
X06582Y07318*
X0658Y07327*
X06575Y07335*
X06567Y0734*
X06558Y07342*
G37*
G36*
X1254Y06283D02*
X12528Y06282D01*
X12516Y06278*
X12505Y06272*
X12496Y06265*
X12489Y06256*
X12483Y06245*
X12479Y06233*
X12478Y06222*
X12479Y0621*
X12483Y06198*
X12489Y06187*
X12496Y06178*
X12505Y06171*
X12516Y06165*
X12528Y06161*
X1254Y0616*
X12551Y06161*
X12563Y06165*
X12574Y06171*
X12583Y06178*
X1259Y06187*
X12596Y06198*
X126Y0621*
X12601Y06222*
X126Y06233*
X12596Y06245*
X1259Y06256*
X12583Y06265*
X12574Y06272*
X12563Y06278*
X12551Y06282*
X1254Y06283*
G37*
G36*
X0414Y06278D02*
X04128Y06277D01*
X04116Y06273*
X04106Y06267*
X04096Y0626*
X04089Y06251*
X04083Y0624*
X04079Y06228*
X04078Y06217*
X04079Y06205*
X04083Y06193*
X04089Y06183*
X04096Y06173*
X04106Y06166*
X04116Y0616*
X04128Y06156*
X0414Y06155*
X04151Y06156*
X04163Y0616*
X04174Y06166*
X04183Y06173*
X0419Y06183*
X04196Y06193*
X042Y06205*
X04201Y06217*
X042Y06228*
X04196Y0624*
X0419Y06251*
X04183Y0626*
X04174Y06267*
X04163Y06273*
X04151Y06277*
X0414Y06278*
G37*
%LNeurocard_vme_3u_(3.937_x_8.660_inches)-3*%
%LPD*%
G36*
X12507Y09566D02*
Y09382D01*
X12506Y09381*
X11664*
X11664Y09381*
X11664Y09381*
X11662Y0938*
X11659Y09379*
X11659Y09379*
X11659Y09379*
X11656Y09376*
X09841*
X0984Y09375*
Y09107*
X09659*
X09659Y09594*
X09662Y09598*
X12475*
X12507Y09566*
G37*
G36*
X12506Y09375D02*
X12507Y09374D01*
Y09269*
X1205*
X12042Y09261*
X11918Y09137*
X11906*
X11808Y09235*
X11803Y09238*
X11797Y0924*
X1179Y09238*
X11785Y09235*
X11782Y09229*
X1178Y09223*
X11782Y09217*
X11785Y09212*
X11856Y09141*
X11854Y09137*
X11664*
Y09363*
X11662Y09368*
X11659Y09369*
X11659Y0937*
X11664Y09375*
X12506*
G37*
G36*
X07738Y08759D02*
X07351D01*
Y09154*
X07417*
Y0913*
X07487*
Y09154*
X07598*
Y0913*
X07668*
Y09154*
X07738*
Y08759*
G37*
G36*
X05895Y08805D02*
X0589Y08803D01*
X05846Y08847*
X05842Y0885*
X05837Y08851*
X0547*
Y08886*
Y08925*
Y08964*
X05559*
X0556Y08963*
X05561Y08957*
X05565Y08951*
X05571Y08947*
X05579Y08946*
X05586Y08947*
X05592Y08951*
X05596Y08957*
X05597Y08965*
X05596Y08972*
X05592Y08978*
Y08982*
X05592Y08983*
X05596Y08989*
X05598Y08996*
X05596Y09003*
X05592Y09009*
X05592Y09009*
X05594Y09014*
X05895*
Y08805*
G37*
G36*
X08118Y08221D02*
X08119Y08212D01*
X08124Y08204*
X08132Y08199*
X08141Y08198*
X08167Y08171*
X08165Y08167*
X08143*
X07912Y08397*
X07908Y084*
X07903Y08401*
X07755*
X0775Y08405*
X07744Y08406*
X077*
X07694Y08405*
X07688Y08401*
X07684Y08395*
X07683Y08389*
X07684Y08382*
X07688Y08377*
X0769Y08375*
Y0837*
X07688Y08369*
X07684Y08364*
X07683Y08357*
X07684Y08351*
X07688Y08345*
X0769Y08344*
Y08339*
X07688Y08338*
X07684Y08332*
X07683Y08326*
X07684Y08319*
X07688Y08314*
X0769Y08313*
Y08308*
X07688Y08306*
X07684Y08301*
X07683Y08294*
X07684Y08288*
X07688Y08282*
X0769Y08281*
Y08276*
X07688Y08275*
X07684Y08269*
X07683Y08263*
X07684Y08256*
X07687Y08252*
X07685Y08247*
X07567*
X07567Y08248*
X07559Y08254*
X0755Y08255*
X07549Y08255*
X07525Y08278*
Y08407*
X0753Y08409*
X07534Y08406*
X07541Y08405*
X07547Y08406*
X07549Y08408*
X07554Y08405*
Y08398*
X0755Y08392*
X07548Y08383*
X0755Y08374*
X07555Y08366*
X07563Y08361*
X07572Y08359*
X07578Y0836*
X0758Y08356*
X07578Y08355*
X07573Y08347*
X07571Y08338*
X07573Y08328*
X07578Y0832*
X07586Y08315*
X07596Y08313*
X07605Y08315*
X07613Y0832*
X07618Y08328*
X07619Y08335*
X07621Y08337*
X07625Y08343*
X07626Y0835*
Y08398*
X07625Y08403*
X07627Y08405*
X07629Y08406*
X07635Y08405*
X07642Y08406*
X07647Y0841*
X07651Y08416*
X07652Y08422*
Y08466*
X07651Y08472*
X07647Y08478*
X07642Y08481*
X07635Y08483*
X07629Y08481*
X07623Y08478*
X07622Y08476*
X07617*
X07616Y08478*
X0761Y08481*
X07604Y08483*
X07597Y08481*
X07592Y08478*
X07591Y08476*
X07586*
X07584Y08478*
X07579Y08481*
X07572Y08483*
X07566Y08481*
X07564Y0848*
X07559Y08483*
Y08499*
X07581Y08521*
X07817*
X08118Y08221*
G37*
G36*
X12203Y0872D02*
X12205Y08712D01*
X12208Y08703*
X12214Y08696*
X12221Y0869*
X1223Y08687*
X12229Y08682*
X12189*
X12184Y08681*
X1218Y08678*
X12029Y08527*
X12026Y08523*
X12025Y08519*
Y08431*
X1197Y08376*
X11947*
X11946Y08381*
X11951Y08382*
X11957Y08386*
X12013Y08442*
X12017Y08448*
X12019Y08455*
Y08543*
X12199Y08723*
X12203Y0872*
G37*
G36*
X07962Y08287D02*
X07961Y08283D01*
X07876*
Y08294*
X07836*
Y08247*
X07832Y08245*
X07823*
X07823Y08246*
X07821*
X07817Y08247*
Y08294*
X07821Y08297*
X07822*
Y08344*
X07826Y08345*
X07905*
X07962Y08287*
G37*
G36*
X04858Y0858D02*
X04856Y08575D01*
X04643*
X04494Y08724*
X0449Y08727*
X04486Y08728*
X04177*
X04149Y08755*
X04152Y08762*
X04153Y08772*
X04152Y08781*
X04148Y0879*
X04142Y08798*
X04134Y08804*
X04125Y08808*
X04116Y08809*
X04106Y08808*
X04097Y08804*
X04089Y08799*
X04085Y08799*
X04084Y088*
Y08843*
X04085Y08844*
X04089Y08844*
X04097Y08839*
X04106Y08835*
X04116Y08834*
X04125Y08835*
X04134Y08839*
X04142Y08845*
X04148Y08853*
X04148Y08853*
X04271*
X04274Y0885*
Y08833*
X04314*
Y08866*
X04318Y08868*
X04333Y08853*
Y08833*
X04373*
Y08839*
X04435*
X04437Y08836*
X04441Y08829*
X04448Y08825*
X04455Y08821*
X04464Y0882*
X04472Y08821*
X04479Y08825*
X04486Y08829*
X04491Y08836*
X04494Y08843*
X04495Y08852*
X04494Y0886*
X04491Y08867*
X04486Y08874*
X04479Y08879*
X04472Y08882*
X04464Y08883*
X04455Y08882*
X04448Y08879*
X04441Y08874*
X04437Y08867*
X04435Y08864*
X04373*
Y0888*
X04352*
X04294Y08938*
X04289Y08941*
X04283Y08943*
X04132*
X04086Y08989*
X04086Y08989*
X04087Y0899*
X04092Y08992*
X04097Y08989*
X04106Y08985*
X04116Y08984*
X04125Y08985*
X04134Y08989*
X04142Y08995*
X04148Y09003*
X04151Y09009*
X04428*
X04858Y0858*
G37*
G36*
X043Y08887D02*
X04298Y08881D01*
X04295Y08881*
X04292Y08884*
X04286Y08888*
X04279Y0889*
X04148*
X04148Y0889*
X04142Y08898*
X04134Y08904*
X04132Y08905*
X04133Y0891*
X04276*
X043Y08887*
G37*
G36*
X05796Y08324D02*
X05792Y08322D01*
X05742Y08372*
Y08429*
X05796*
Y08324*
G37*
G36*
X1069Y08253D02*
X10689Y08252D01*
X10686Y08245*
X10685Y08239*
X10686Y08232*
X10689Y08225*
X10693Y08221*
X10692Y08218*
X10691Y08216*
X10684*
X10662Y08237*
X10658Y0824*
X10654Y08241*
X10587*
Y08241*
X10518*
Y08241*
X10346*
X10341Y0824*
X10337Y08237*
X10292Y08192*
X10289Y08188*
X10288Y08184*
Y079*
X10286Y07898*
X10281Y07899*
Y08206*
X10332Y08258*
X10688*
X1069Y08253*
G37*
G36*
X1067Y08195D02*
D01*
X10674Y08192*
X10679Y08191*
X10743*
X10748Y0819*
Y08165*
X10743Y08163*
X10643*
X1064Y08168*
X10641Y08168*
X10642Y08176*
X10641Y08183*
X10637Y08189*
X10631Y08193*
X10624Y08194*
X10616Y08193*
X1061Y08189*
X10609Y08188*
X10609*
X10606Y0819*
X10602Y08191*
X10587*
Y08216*
X10648*
X1067Y08195*
G37*
G36*
X10466Y08132D02*
X10465Y08131D01*
X10464Y08124*
X10465Y08116*
X10466Y08116*
X10463Y08111*
X10346*
Y08137*
X10463*
X10466Y08132*
G37*
G36*
X10748Y08063D02*
X10743Y08062D01*
X10655*
X10652Y08061*
X10651*
X10648Y08066*
X10649Y08066*
X1065Y08074*
X10649Y08081*
X10647Y08083*
X1065Y08088*
X10748*
Y08063*
G37*
G36*
X10518D02*
X10513Y08062D01*
X10346*
Y08087*
X10518*
Y08063*
G37*
G36*
X10697Y0799D02*
X10701Y07987D01*
X10706Y07986*
X10748*
Y07986*
X10757*
X1076Y07981*
X1076Y0798*
X10759Y0798*
X10664*
X10611Y08032*
X10611Y08033*
X10613Y08037*
X1065*
X10697Y0799*
G37*
G36*
X10518Y08036D02*
Y08011D01*
X10587*
Y08011*
X10597*
X10649Y0796*
X10647Y07955*
X10517*
X10517*
X10512Y07954*
X10509Y07952*
X10504Y07947*
X10503Y07948*
X10496Y07949*
X10488Y07948*
X10482Y07944*
X10478Y07938*
X10477Y07931*
X10478Y07923*
X10482Y07917*
X10488Y07913*
X10496Y07912*
X10503Y07913*
X10509Y07917*
X10511Y0792*
X10513Y07922*
X10522Y07931*
X10703*
X10706Y07926*
X10704Y07924*
X10703Y07917*
X10704Y07909*
X10708Y07903*
X10714Y07899*
X10722Y07898*
X10729Y07899*
X10731Y079*
X10738*
X10741Y07896*
Y07871*
X10676*
X10654Y07892*
X1065Y07895*
X10646Y07896*
X1058*
Y07896*
X10511*
Y07896*
X10379*
X10379Y07897*
X10375Y07903*
X10369Y07907*
X10362Y07908*
X10354Y07907*
X10351Y07904*
X10346Y07907*
Y08037*
X10513*
X10518Y08036*
G37*
G36*
X11151Y08028D02*
X11151Y08025D01*
X11155Y08019*
X11161Y08015*
X11164Y08015*
Y07528*
X11163Y07527*
X11159Y07521*
X11159Y0752*
X11154Y07518*
X10851Y07822*
X10853Y07827*
X10891*
Y07874*
X10862*
X10857Y0788*
X10857Y07881*
X10856Y07887*
X10853Y07894*
X10852Y07895*
X10854Y079*
X11011*
X11015Y07901*
X11019Y07904*
X11145Y0803*
X11151Y08028*
G37*
G36*
X10361Y08214D02*
X10361Y08211D01*
X10325Y08175*
X10322Y08171*
X10321Y08167*
Y07896*
X10316Y07895*
X10314Y07899*
X10313Y079*
Y08178*
X10351Y08216*
X10359*
X10361Y08214*
G37*
G36*
X10662Y0785D02*
D01*
X10666Y07847*
X10671Y07846*
X10736*
X10741Y07845*
Y0782*
X10736Y07819*
X10615*
X10614Y07824*
X10614Y07824*
X10618Y07828*
X1062Y07828*
X10627Y07829*
X10633Y07833*
X10637Y07839*
X10638Y07847*
X10637Y07854*
X10633Y0786*
X10627Y07864*
X1062Y07865*
X10612Y07864*
X10606Y0786*
X10602Y07854*
X10601Y07847*
X10596Y07845*
X10585*
X1058Y07846*
Y07871*
X1064*
X10662Y0785*
G37*
G36*
X10741Y07718D02*
X10736Y07717D01*
X10697*
X10585*
X1058Y07718*
Y07743*
X10741*
Y07718*
G37*
G36*
X10511Y07666D02*
X10549D01*
X10551Y07665*
X10552Y07666*
X1058*
Y07666*
X10667*
X10668Y07665*
X10674Y07661*
X10682Y0766*
X10689Y07661*
X10695Y07665*
X10699Y07671*
X107Y07677*
X10705Y07679*
X10738Y07646*
X10736Y07642*
X10736Y07641*
X10606*
X10601Y0764*
X10597Y07637*
X10536Y07576*
X10533Y07572*
X10532Y07568*
Y07552*
X1051*
Y0754*
X10505Y07538*
X10505Y07538*
X10498Y07539*
X1049Y07538*
X10484Y07534*
X1048Y07528*
X10479Y07521*
X1048Y07513*
X10484Y07507*
X10488Y07505*
X10487Y075*
X10346*
Y07691*
X10511*
Y07666*
G37*
G36*
X11157Y07375D02*
X11153Y07371D01*
X1115Y07374*
X11143Y07375*
X11135Y07374*
X11129Y0737*
X11125Y07364*
X11124Y07357*
X11125Y07349*
X11129Y07343*
X11135Y07339*
X11143Y07338*
X11144Y07338*
X11161Y07321*
X11157Y07317*
X11157Y07318*
X1115Y07319*
X11142Y07318*
X11136Y07314*
X11132Y07308*
X11131Y07301*
X11131Y07299*
X11026Y07195*
X10957*
X10955Y072*
X10956Y072*
X1096Y07205*
X10963Y07212*
X10964Y07219*
X10963Y07225*
X1096Y07232*
X10956Y07237*
X10951Y07241*
X10944Y07244*
X10938Y07245*
X10931Y07244*
X10924Y07241*
X10919Y07237*
X10918Y07236*
X10913Y07236*
X10866*
Y07221*
X10806*
Y07221*
X10792*
X1079Y07226*
X10791Y07228*
X10794Y07235*
X10795Y07242*
X10794Y07248*
X10791Y07255*
X10787Y0726*
X10782Y07264*
X10775Y07267*
X10769Y07268*
X10762Y07267*
X10757Y07265*
X10754Y07269*
X10853Y07367*
X11032*
X11033Y07366*
X11039Y07362*
X11047Y07361*
X11054Y07362*
X1106Y07366*
X11064Y07372*
X11065Y0738*
X11064Y07387*
X1106Y07393*
X11054Y07397*
X11047Y07398*
X11039Y07397*
X11033Y07393*
X11032Y07392*
X10848*
X10843Y07391*
X10839Y07388*
X10814Y07363*
X10809Y07365*
Y07372*
Y07373*
Y07398*
Y07399*
Y07423*
X10855*
X10856Y07422*
X10862Y07418*
X1087Y07417*
X10877Y07418*
X10883Y07422*
X10887Y07428*
X10888Y07436*
X10887Y07443*
X10885Y07446*
X10885Y07446*
X10887Y07451*
X10889Y07451*
X10893Y07454*
X10901Y07461*
X10917*
X10918Y0746*
X10924Y07456*
X10932Y07455*
X10939Y07456*
X10945Y0746*
X10949Y07466*
X1095Y07474*
X10949Y07481*
X10945Y07487*
X10939Y07491*
X10932Y07492*
X10924Y07491*
X10918Y07487*
X10917Y07486*
X10896*
X10891Y07485*
X10887Y07482*
X10879Y07475*
X10873*
X1087Y0748*
X10872Y07482*
X10873Y0749*
X10872Y07497*
X10868Y07503*
X10862Y07507*
X10855Y07508*
X10852Y07513*
X10852Y07516*
X10851Y07523*
X1085Y07523*
X10853Y07528*
X10876*
Y07516*
X10923*
Y0756*
X10876*
Y07552*
X1081*
X10809Y07553*
X10808Y07557*
X1081Y0756*
X10813Y07567*
X10814Y07574*
X10813Y0758*
X10811Y07585*
X10813Y0759*
X10836*
X1084Y07587*
X10848Y07586*
X10855Y07587*
X10861Y07591*
X10865Y07597*
X10866Y07605*
X10865Y07612*
X10864Y07612*
X10867Y07617*
X10915*
X11157Y07375*
G37*
G36*
X11318Y07576D02*
Y07482D01*
X11308Y07471*
X11307Y07471*
X11299Y0747*
X11293Y07466*
X11289Y0746*
X11288Y07453*
X11289Y07445*
X11293Y07439*
X11292Y07434*
X11289Y07434*
X11263Y0746*
X11266Y07464*
X1127Y07464*
X11277Y07465*
X11283Y07469*
X11287Y07475*
X11288Y07483*
X11287Y0749*
X11283Y07496*
X11282Y07497*
Y07569*
X11287Y07572*
X1129Y07569*
X11298Y07568*
X11305Y07569*
X11311Y07573*
X11313Y07577*
X11318Y07576*
G37*
G36*
X10586Y07455D02*
X10592Y07451D01*
X106Y0745*
X10607Y07451*
X10608Y07452*
X10612Y0745*
Y07363*
X10576Y07327*
X10488*
X10483Y07326*
X10479Y07323*
X10455Y07299*
X10452Y07295*
X10452Y07292*
X10447Y07292*
Y07361*
X10465Y07379*
X10466Y07381*
X1048Y07395*
X10482Y07396*
X10483Y07398*
X10543*
X10546Y07399*
X10579*
Y07424*
Y07449*
Y0745*
Y07456*
X10584Y07458*
X10586Y07455*
G37*
G36*
X10793Y07342D02*
X10727Y07276D01*
X10722Y07278*
Y07333*
X10735Y07346*
X1074Y07347*
X1074*
Y07347*
X10791*
X10793Y07342*
G37*
G36*
X10625Y07585D02*
X10624Y07585D01*
X1062Y07579*
X10619Y07572*
X1062Y07564*
X10624Y07558*
X1063Y07554*
X10638Y07553*
X10639Y07553*
X10687Y07505*
X10691Y07502*
X10696Y07501*
X10735*
X1074Y075*
Y07475*
Y0745*
Y07449*
Y07424*
X107*
X10695Y07423*
X10691Y0742*
X10652Y07381*
X10649Y07377*
X10648Y07373*
Y0722*
X10648Y0722*
X10646Y07218*
X10644Y07217*
X10644Y07217*
X1064Y0722*
X10636Y07221*
X10576*
Y07221*
X10507*
Y07196*
X10502Y07195*
X10491*
X10476Y0721*
Y07255*
X1048Y07257*
X10481Y07256*
X10489Y07255*
X10496Y07256*
X10502Y0726*
X10503Y07261*
X10566*
X10568Y07258*
X10574Y07254*
X10582Y07253*
X10589Y07254*
X10595Y07258*
X10599Y07264*
X106Y07272*
X10599Y07279*
X10595Y07285*
X10589Y07289*
X10582Y0729*
X10574Y07289*
X1057Y07286*
X10503*
X10502Y07287*
X10496Y07291*
X10489Y07292*
X10488Y07295*
X10487Y07297*
X10493Y07302*
X10582*
X10586Y07303*
X1059Y07306*
X10633Y07349*
X10636Y07353*
X10637Y07358*
Y0752*
X10636Y07524*
X10633Y07528*
X10602Y07559*
Y07578*
X10615Y0759*
X10624*
X10625Y07585*
G37*
G36*
X11215Y07267D02*
Y06832D01*
X1121Y06829*
X1121Y0683*
X11203Y06831*
X11195Y0683*
X11189Y06826*
X11188Y06825*
X11065*
X11063Y0683*
X11066Y06834*
X11067Y06842*
X11066Y06849*
X11062Y06855*
X11056Y06859*
X11049Y0686*
X11041Y06859*
X11035Y06855*
X11034Y06854*
X10953*
X1095Y06853*
X10948Y06858*
X10979Y06888*
X11032*
X11033Y06887*
X11039Y06883*
X11047Y06882*
X11054Y06883*
X1106Y06887*
X11064Y06893*
X11065Y06901*
X11064Y06908*
X1106Y06914*
X11054Y06918*
X11047Y06919*
X11039Y06918*
X11033Y06914*
X11032Y06913*
X10974*
X10969Y06912*
X10965Y06909*
X10866Y06811*
X10853*
X10851Y06813*
X10851Y06816*
X10857Y06822*
X1086Y06826*
X10861Y06831*
Y06934*
X10862Y06935*
X10866Y06941*
X10867Y06949*
X10866Y06956*
X10862Y06962*
X10856Y06966*
X10849Y06967*
X10841Y06966*
X10841Y06965*
X10836Y06968*
Y06986*
X1084Y0699*
X10842Y06989*
X10848Y0699*
X10855Y06993*
X1086Y06997*
X10864Y07002*
X10867Y07009*
X10868Y07016*
X10867Y07022*
X10864Y07029*
X1086Y07034*
X10855Y07038*
X10848Y07041*
X10842Y07042*
X10835Y07041*
X10828Y07038*
X10823Y07034*
X10819Y07029*
X10816Y07022*
X10815Y07016*
X10816Y07009*
X10817Y07008*
X10816Y07007*
X10813Y07003*
X10812Y06998*
Y06998*
Y06938*
X10812Y06936*
Y06897*
X10804Y06888*
X10798*
X10794Y06891*
Y06935*
X10779*
X10777Y06936*
X10773Y06937*
X10768Y06936*
X10766Y06935*
X10747*
Y06891*
X10742Y06891*
X10737*
X10736Y06892*
X10732Y06897*
X10727Y06901*
X1072Y06904*
X10714Y06905*
X10707Y06904*
X107Y06901*
X10695Y06897*
X10691Y06892*
X10688Y06885*
X10688Y06884*
X10685Y06883*
X10683Y06883*
X10681Y06887*
X10656Y06912*
X10657Y06917*
X10662Y06918*
X10668Y06922*
X10672Y06928*
X10673Y06936*
X10673Y06939*
X10749Y07016*
X10806*
Y07041*
Y07042*
Y07046*
Y07067*
Y07068*
Y07072*
Y07091*
X1098*
X10981Y0709*
X10987Y07086*
X10995Y07085*
X11002Y07086*
X11008Y0709*
X11012Y07096*
X11013Y07104*
X11012Y07111*
X11008Y07117*
X11002Y07121*
X10995Y07122*
X10987Y07121*
X10981Y07117*
X1098Y07116*
X109*
X10897Y07121*
X10899Y07123*
X109Y07131*
X10899Y07138*
X10898Y07139*
X109Y07144*
X11091*
X11095Y07145*
X11099Y07148*
X11174Y07223*
X11176Y07223*
X11183Y07224*
X11189Y07228*
X11193Y07234*
X11194Y07242*
X11193Y07249*
X11189Y07255*
X11183Y07259*
X11176Y0726*
X11168Y07259*
X11162Y07255*
X11158Y07249*
X11157Y07242*
X11157Y0724*
X11085Y07169*
X11041*
X1104Y07174*
X1104Y07174*
X11148Y07282*
X1115Y07282*
X11157Y07283*
X11163Y07287*
X11167Y07293*
X11168Y07301*
X11167Y07308*
X11166Y07308*
X1117Y07312*
X11215Y07267*
G37*
G36*
X11315Y07279D02*
Y0719D01*
X11311Y07188*
X1131Y07189*
X11303Y0719*
X11295Y07189*
X11293Y07187*
X11288Y0719*
Y07299*
X11287Y073*
X11292Y07303*
X11315Y07279*
G37*
G36*
X10477Y0747D02*
X10474Y07467D01*
X10473Y0746*
X10473Y07458*
X10469Y07453*
X10465Y07452*
X10459Y07448*
X10455Y07442*
X10454Y07435*
X10455Y07427*
X10459Y07421*
X10463Y07419*
X10464Y07413*
X10463Y07412*
X10462Y07411*
X1045Y07399*
X10449Y07398*
X10426Y07375*
X10423Y07371*
X10422Y07367*
Y07206*
X10421Y07205*
X10417Y07199*
X10416Y07192*
X10417Y07184*
X10421Y07178*
X10425Y07176*
X10423Y07171*
X10351*
X10351Y07171*
X10346Y07175*
Y07475*
X10474*
X10477Y0747*
G37*
G36*
X10321Y07875D02*
Y07488D01*
Y07155*
X10318Y07153*
X10318Y07152*
X10313Y07153*
Y07871*
X10314Y07872*
X10316Y07876*
X10321Y07875*
G37*
G36*
X10419Y07142D02*
X10417Y0714D01*
X10416Y07133*
X10417Y07125*
X10421Y07119*
X10422Y07118*
Y07105*
X10333Y07015*
X10326Y07016*
X10318Y07015*
X10312Y07011*
X10308Y07005*
X10307Y06998*
X10307Y06997*
X10304Y06993*
X10284*
X10282Y06998*
X10309Y07025*
X10312Y07029*
X10313Y07034*
Y07126*
X10318Y07127*
X10318Y07126*
X10324Y07122*
X10332Y07121*
X10339Y07122*
X10345Y07126*
X10349Y07132*
X1035Y0714*
X1035Y07141*
X10356Y07147*
X10416*
X10419Y07142*
G37*
G36*
X10678Y07257D02*
X10684Y07256D01*
X10687Y07251*
X10686Y07251*
X10685Y07244*
X10686Y07236*
X1069Y0723*
X10696Y07226*
X10697Y07226*
X10699Y07221*
X10695Y07218*
X10692Y07214*
X10692Y07209*
Y07208*
X1069Y07207*
X10686Y07201*
X10685Y07194*
X10686Y07186*
X1069Y0718*
X10696Y07176*
X10704Y07175*
X10711Y07176*
X10717Y0718*
X10721Y07186*
X10722Y07194*
X10721Y07201*
X10718Y07206*
X10732Y0722*
X10737Y07218*
Y07196*
Y07195*
Y0717*
Y07169*
Y07123*
Y07119*
Y07118*
Y07102*
X10732Y071*
X10673Y0716*
Y07182*
X10674Y07184*
X10675Y07188*
Y07216*
X10674Y0722*
X10673Y07222*
Y07256*
X10677Y07258*
X10678Y07257*
G37*
G36*
X10621Y07191D02*
X10625Y07185D01*
X10631Y07181*
X10639Y0718*
X10643Y07181*
X10648Y07177*
Y07155*
X10649Y0715*
X10652Y07146*
X10719Y07079*
X10704Y07064*
X10699Y07066*
X10698Y07071*
X10694Y07077*
X10688Y07081*
X10681Y07082*
X10673Y07081*
X10667Y07077*
X10666Y07076*
X10659*
X10654Y07075*
X1065Y07072*
X10587Y0701*
X10482*
X10481Y07011*
X10475Y07015*
X10468Y07016*
X1046Y07015*
X10454Y07011*
X1045Y07005*
X10449Y06998*
X1045Y0699*
X10454Y06984*
X10456Y06983*
X10457Y06977*
X10456Y06976*
X10337*
X10336Y06977*
X10337Y06983*
X10339Y06984*
X10343Y0699*
X10343Y06991*
X10424Y07072*
X10426Y07072*
X1043Y07069*
X10435Y07068*
X10507*
Y07068*
X10576*
Y07093*
Y07118*
Y07119*
Y07123*
Y07165*
Y07169*
Y0717*
Y07195*
X10581Y07196*
X1062*
X10621Y07191*
G37*
G36*
X10288Y07871D02*
Y07062D01*
X10283Y07061*
X10281Y07063*
Y07872*
X10286Y07873*
X10288Y07871*
G37*
G36*
X11372Y07009D02*
X1137Y07003D01*
X11368Y07003*
X11362Y06999*
X11358Y06993*
X11357Y06986*
X11352Y06983*
X1129Y07045*
X11292Y0705*
X11297Y07051*
X11303Y07055*
X11307Y07061*
X11308Y07066*
X11313Y07068*
X11372Y07009*
G37*
G36*
X1234Y07013D02*
D01*
X12344Y0701*
X12349Y07009*
X12406*
X12408Y07003*
X12414Y06996*
X12421Y0699*
X1243Y06987*
X12429Y06982*
X1225*
X12249Y06987*
X12258Y0699*
X12265Y06996*
X12271Y07003*
X12274Y07012*
X12276Y07022*
X12274Y07031*
X12271Y0704*
X12265Y07047*
X12261Y0705*
X12263Y07055*
X12297*
X1234Y07013*
G37*
G36*
X10618Y06808D02*
Y06653D01*
X10597Y06632*
X10596Y0663*
X10592Y06628*
X10588Y06622*
X10587Y06615*
X10588Y06607*
X10592Y06601*
X10598Y06597*
X10606Y06596*
X10613Y06597*
X10616Y066*
X10621Y06597*
Y06549*
X10617Y06548*
X10606Y06558*
X10602Y06561*
X10598Y06562*
X10574*
Y06562*
X10505*
Y06537*
Y06536*
Y06511*
X105Y0651*
X10429*
X10427Y0651*
X10419*
X10381Y06548*
Y06801*
X10382Y06802*
X10386Y06808*
X10386Y06811*
X10482*
X10484Y06809*
X10484Y06806*
X10459Y06782*
X10447*
X10446Y06783*
X1044Y06787*
X10433Y06788*
X10425Y06787*
X10419Y06783*
X10415Y06777*
X10414Y0677*
X10415Y06762*
X10419Y06756*
X10425Y06752*
X10433Y06751*
X1044Y06752*
X10446Y06756*
X10447Y06757*
X10463*
X10467Y06754*
X10468Y06753*
X10469Y06746*
X10473Y0674*
X10479Y06736*
X10487Y06735*
X10494Y06736*
X10495Y06737*
X10497Y06736*
X105Y06736*
X10505Y06735*
Y06735*
X10572*
X10574Y06731*
X10574Y0673*
X1057Y06724*
X10569Y06717*
X1057Y06709*
X10574Y06703*
X1058Y06699*
X10588Y06698*
X10595Y06699*
X10601Y06703*
X10605Y06709*
X10606Y06717*
X10605Y06724*
X10601Y0673*
X106Y06731*
Y06764*
X10599Y06768*
X10596Y06772*
X10588Y0678*
X10584Y06783*
X1058Y06784*
X10579*
X10574Y06786*
Y06811*
Y06836*
X10579Y06837*
X10589*
X10618Y06808*
G37*
G36*
X10966Y06824D02*
X10963Y06824D01*
X10959Y06821*
X10771Y06634*
X10678*
X10677Y06635*
X10671Y06639*
X10665Y0664*
X10663Y0664*
X10661Y06645*
Y06662*
X10682Y06683*
X10735*
Y06683*
X10804*
Y06708*
Y06709*
Y06713*
Y06734*
Y06735*
Y0676*
X10884*
X10888Y06761*
X10892Y06764*
X10958Y06829*
X10966*
X10966Y06824*
G37*
G36*
X10691Y06865D02*
X10695Y0686D01*
X107Y06856*
X10707Y06853*
X10714Y06852*
X1072Y06853*
X10727Y06856*
X1073Y06858*
X10735Y06856*
Y06841*
Y06837*
Y06836*
Y06811*
Y06786*
Y06781*
Y0676*
X1073*
X10723Y06766*
X10719Y06769*
X10715Y0677*
X10711*
X1071Y06771*
X10704Y06775*
X10697Y06776*
X10689Y06775*
X10689Y06774*
X10684Y06777*
Y06868*
X10689Y06869*
X10691Y06865*
G37*
G36*
X11603Y06698D02*
D01*
X11607Y06695*
X11612Y06694*
X11949*
X12207Y06437*
X12205Y06431*
X12203Y06422*
X12205Y06412*
X12208Y06403*
X12214Y06396*
X12221Y0639*
X1223Y06387*
X1224Y06385*
X12249Y06387*
X12258Y0639*
X12264Y06395*
X12268Y06394*
X12269Y06393*
X1227Y06393*
X12226Y0635*
X10691*
X10628Y06413*
Y06418*
X10632Y0642*
X10691Y06361*
X10695Y06358*
X107Y06357*
X10735*
Y06357*
X10804*
Y06382*
Y06383*
Y06408*
Y06409*
Y06434*
X10918*
X10922Y06435*
X10926Y06438*
X11206Y06717*
X11223*
X11224Y06716*
X1123Y06712*
X11238Y06711*
X11245Y06712*
X11251Y06716*
X11255Y06722*
X11256Y0673*
X11255Y06737*
X11251Y06743*
X11245Y06747*
X11238Y06748*
X1123Y06747*
X11224Y06743*
X11223Y06742*
X11213*
X11211Y06746*
X11235Y0677*
X11238Y06774*
X11239Y06779*
Y068*
X11239Y06802*
Y07055*
X1124Y07055*
X11244Y07057*
X11603Y06698*
G37*
G36*
X10759Y06604D02*
X10756Y06603D01*
X10751Y06599*
X10747Y06594*
X10744Y06587*
X10743Y06581*
X10744Y06574*
X10747Y06567*
X10747Y06567*
X10745Y06562*
X10735*
Y06537*
Y06532*
Y06511*
Y0651*
Y06506*
Y0646*
Y06459*
Y0644*
X1073Y06438*
X10718Y06449*
X10719Y06456*
X10718Y06463*
X10714Y06469*
X10708Y06473*
X10701Y06474*
X10693Y06473*
X10687Y06469*
X10683Y06463*
X10682Y06456*
X10683Y06448*
X10687Y06442*
X10693Y06438*
X10695Y06435*
X10693Y0643*
X10693Y0643*
X10687Y06426*
X10683Y0642*
X10682Y06413*
X10682Y06411*
X10677Y06409*
X10646Y06441*
Y06606*
X10649Y06608*
X10651Y06608*
X10656Y06604*
X10664Y06603*
X10671Y06604*
X10677Y06608*
X10678Y06609*
X10758*
X10759Y06604*
G37*
G36*
X12207Y06637D02*
X12205Y06631D01*
X12203Y06622*
X12205Y06612*
X12208Y06603*
X12213Y06597*
X12212Y06592*
X12123*
X11979Y06736*
X11979Y06736*
X1198Y06741*
X12102*
X12207Y06637*
G37*
G36*
X11189Y06799D02*
X11195Y06795D01*
X11203Y06794*
X11209Y06795*
X1121Y06795*
X11214Y06793*
Y06784*
X1119Y06759*
X11188Y06759*
X11185Y06756*
X10956Y06528*
X10922*
X10917Y06528*
Y06533*
Y06572*
X1087*
Y06562*
X10804*
Y06562*
X10794*
X10792Y06567*
X10792Y06567*
X10795Y06574*
X10796Y06581*
X10795Y06587*
X10792Y06594*
X10788Y06599*
X10783Y06603*
X10779Y06605*
X10779Y0661*
X10781Y0661*
X10785Y06613*
X10973Y068*
X11188*
X11189Y06799*
G37*
G36*
X10355Y06802D02*
X10356Y06801D01*
Y06543*
X10357Y06538*
X1036Y06534*
X10398Y06495*
X10397Y06491*
X10375*
X10374Y06492*
X10368Y06496*
X10361Y06497*
X10353Y06496*
X10353Y06495*
X10348Y06498*
Y06804*
X10353Y06805*
X10355Y06802*
G37*
G36*
X10505Y06461D02*
X10466D01*
X10461Y0646*
X10457Y06457*
X10456Y06456*
X10455Y06456*
X10447Y06455*
X10441Y06451*
X10437Y06445*
X10436Y06438*
X10437Y0643*
X10441Y06424*
X10447Y0642*
X10455Y06419*
X10459Y06415*
X10459Y06411*
X10437Y0639*
X10369*
X10348Y0641*
Y06459*
X10353Y06462*
X10353Y06461*
X10361Y0646*
X10368Y06461*
X10374Y06465*
X10375Y06466*
X10505*
Y06461*
G37*
G36*
X12118Y06567D02*
D01*
X12259*
X12314Y06513*
X12318Y0651*
X12323Y06509*
X12406*
X12408Y06503*
X12414Y06496*
X12421Y0649*
X1243Y06487*
X1244Y06485*
X12449Y06487*
X12458Y0649*
X12465Y06496*
X12469Y06501*
X12474Y065*
Y06443*
X12469Y06442*
X12465Y06447*
X12458Y06453*
X12449Y06456*
X1244Y06458*
X1243Y06456*
X12421Y06453*
X12414Y06447*
X12408Y0644*
X12405Y06431*
X12403Y06422*
X12405Y06412*
X12408Y06403*
X12414Y06396*
X12421Y0639*
X1243Y06387*
X12438Y06385*
X12441Y06381*
X1238Y0632*
X10673*
X1061Y06382*
Y0639*
X10614Y06391*
X10677Y06329*
X10681Y06326*
X10686Y06325*
X12232*
X12236Y06326*
X1224Y06329*
X12293Y06382*
X12296Y06386*
X12297Y06391*
Y06513*
X12296Y06517*
X12293Y06521*
X12284Y0653*
X1228Y06533*
X12276Y06534*
X12273*
X12271Y0654*
X12265Y06547*
X12258Y06553*
X12249Y06556*
X1224Y06558*
X1223Y06556*
X12221Y06553*
X12214Y06547*
X12208Y0654*
X12205Y06531*
X12203Y06522*
X12205Y06512*
X12208Y06503*
X12214Y06496*
X12221Y0649*
X1223Y06487*
X1224Y06485*
X12249Y06487*
X12258Y0649*
X12265Y06496*
X12267Y06499*
X12272Y06497*
Y06446*
X12267Y06444*
X12265Y06447*
X12258Y06453*
X12249Y06456*
X1224Y06458*
X1223Y06456*
X12224Y06454*
X12115Y06563*
X12118Y06568*
X12118Y06567*
G37*
%LNeurocard_vme_3u_(3.937_x_8.660_inches)-4*%
%LPC*%
G36*
X11397Y06857D02*
X11389Y06856D01*
X11383Y06852*
X11379Y06846*
X11378Y06839*
X11379Y06831*
X1138Y0683*
Y06787*
X11259Y06665*
X11258Y06665*
X1125Y06664*
X11244Y0666*
X1124Y06654*
X11239Y06647*
X1124Y06639*
X11244Y06633*
X1125Y06629*
X11258Y06628*
X11265Y06629*
X11271Y06633*
X11275Y06639*
X11276Y06647*
X11276Y06648*
X11401Y06773*
X11404Y06777*
X11405Y06782*
Y06822*
X1141Y06825*
X11414Y06831*
X11415Y06839*
X11414Y06846*
X1141Y06852*
X11404Y06856*
X11397Y06857*
G37*
%LNeurocard_vme_3u_(3.937_x_8.660_inches)-5*%
%LPD*%
G54D10*
X07234Y08117D03*
X07293D03*
X07234Y08176D03*
X07293D03*
X07902Y08222D03*
X07843D03*
X07797Y08271D03*
X07856D03*
X05693Y08237D03*
X05634D03*
X1215Y09136D03*
X12091D03*
X0437Y09364D03*
X04311D03*
X04297Y08373D03*
X04356D03*
X04304Y0861D03*
X04363D03*
X04294Y08857D03*
X04353D03*
X04294Y0912D03*
X04353D03*
X04385Y06882D03*
X04326D03*
X04398Y06643D03*
X04339D03*
G54D11*
X078Y08226D03*
Y08167D03*
X07621Y08035D03*
Y07976D03*
X12086Y09036D03*
Y09095D03*
X11996Y08904D03*
Y08963D03*
Y08793D03*
Y08852D03*
X05564Y08406D03*
Y08347D03*
G54D12*
X07679Y08034D03*
Y07979D03*
X05586Y09234D03*
Y09179D03*
X10771Y06913D03*
Y06968D03*
X10894Y0655D03*
Y06605D03*
X1089Y07214D03*
Y07269D03*
X109Y07538D03*
Y07593D03*
X07452Y09246D03*
Y09301D03*
G54D13*
X07633Y09176D03*
X07543D03*
X07452D03*
G54D14*
X07543Y08927D03*
G54D15*
X08193Y09543D03*
X08028D03*
G54D16*
X07802Y09564D03*
Y09709D03*
G54D17*
X1077Y06876D03*
Y0685D03*
Y06824D03*
Y06799D03*
Y06773D03*
Y06748D03*
Y06722D03*
Y06696D03*
X1054D03*
Y06722D03*
Y06748D03*
Y06773D03*
Y06799D03*
Y06824D03*
Y0685D03*
Y06876D03*
X1077Y0655D03*
Y06524D03*
Y06498D03*
Y06473D03*
Y06447D03*
Y06422D03*
Y06396D03*
Y0637D03*
X1054D03*
Y06396D03*
Y06422D03*
Y06447D03*
Y06473D03*
Y06498D03*
Y06524D03*
Y0655D03*
X10772Y07209D03*
Y07183D03*
Y07157D03*
Y07132D03*
Y07106D03*
Y07081D03*
Y07055D03*
Y07029D03*
X10542D03*
Y07055D03*
Y07081D03*
Y07106D03*
Y07132D03*
Y07157D03*
Y07183D03*
Y07209D03*
X10775Y0754D03*
Y07514D03*
Y07488D03*
Y07463D03*
Y07437D03*
Y07412D03*
Y07386D03*
Y0736D03*
X10545D03*
Y07386D03*
Y07412D03*
Y07437D03*
Y07463D03*
Y07488D03*
Y07514D03*
Y0754D03*
X10783Y08229D03*
Y08204D03*
Y08178D03*
Y08152D03*
Y08127D03*
Y08101D03*
Y08076D03*
Y0805D03*
Y08024D03*
Y07999D03*
X10553D03*
Y08024D03*
Y0805D03*
Y08076D03*
Y08101D03*
Y08127D03*
Y08152D03*
Y08178D03*
Y08204D03*
Y08229D03*
X10776Y07884D03*
Y07859D03*
Y07833D03*
Y07807D03*
Y07782D03*
Y07756D03*
Y07731D03*
Y07705D03*
Y07679D03*
Y07654D03*
X10546D03*
Y07679D03*
Y07705D03*
Y07731D03*
Y07756D03*
Y07782D03*
Y07807D03*
Y07833D03*
Y07859D03*
Y07884D03*
G54D18*
X10869Y07851D03*
X10924D03*
X10853Y08229D03*
X10908D03*
X05866Y09174D03*
X05921D03*
X078Y08321D03*
X07855D03*
X05532Y09172D03*
X05477D03*
X04466Y07106D03*
X04521D03*
Y0705D03*
X04466D03*
X07516Y08034D03*
X07571D03*
G54D19*
X04489Y07474D03*
X04664D03*
G54D20*
X07057Y09218D03*
Y09407D03*
X06777Y09218D03*
Y09407D03*
G54D21*
X05513Y09094D03*
X05533D03*
X05553D03*
X05572D03*
X05592D03*
X05612D03*
X05631D03*
X05651D03*
X05671D03*
X0569D03*
X0571D03*
X0573D03*
X0575D03*
X05769D03*
X05789D03*
X05809D03*
X05828D03*
X05848D03*
X05868D03*
X05887D03*
X05907D03*
X05927D03*
X05946D03*
X05966D03*
X05986D03*
Y08465D03*
X05966D03*
X05946D03*
X05927D03*
X05907D03*
X05887D03*
X05868D03*
X05848D03*
X05828D03*
X05809D03*
X05789D03*
X05769D03*
X0575D03*
X0573D03*
X0571D03*
X0569D03*
X05671D03*
X05651D03*
X05631D03*
X05612D03*
X05592D03*
X05572D03*
X05553D03*
X05533D03*
X05513D03*
G54D22*
X06064Y09016D03*
Y08996D03*
Y08976D03*
Y08957D03*
Y08937D03*
Y08917D03*
Y08898D03*
Y08878D03*
Y08858D03*
Y08839D03*
Y08819D03*
Y08799D03*
Y0878D03*
Y0876D03*
Y0874D03*
Y0872D03*
Y08701D03*
Y08681D03*
Y08661D03*
Y08642D03*
Y08622D03*
Y08602D03*
Y08583D03*
Y08563D03*
Y08543D03*
X05435D03*
Y08563D03*
Y08583D03*
Y08602D03*
Y08622D03*
Y08642D03*
Y08661D03*
Y08681D03*
Y08701D03*
Y0872D03*
Y0874D03*
Y0876D03*
Y0878D03*
Y08799D03*
Y08819D03*
Y08839D03*
Y08858D03*
Y08878D03*
Y08898D03*
Y08917D03*
Y08937D03*
Y08957D03*
Y08976D03*
Y08996D03*
Y09016D03*
G54D23*
X05702Y08153D03*
X05662D03*
X05622D03*
G54D24*
X07667Y08113D03*
X07635D03*
X07604D03*
X07572D03*
X07541D03*
X07509D03*
X07478D03*
X07446D03*
Y08444D03*
X07478D03*
X07509D03*
X07541D03*
X07572D03*
X07604D03*
X07635D03*
X07667D03*
G54D25*
X07391Y08168D03*
Y082D03*
Y08231D03*
Y08263D03*
Y08294D03*
Y08326D03*
Y08357D03*
Y08389D03*
X07722D03*
Y08357D03*
Y08326D03*
Y08294D03*
Y08263D03*
Y08231D03*
Y082D03*
Y08168D03*
G54D26*
X07293Y08117D02*
X07443D01*
X073Y08168D02*
X07391D01*
X08185Y08179D02*
X0999D01*
X07825Y0854D02*
X08185Y08179D01*
X07574Y0854D02*
X07825D01*
X07902Y08222D02*
X07957D01*
X1239Y08822D02*
X1244D01*
X12337Y08769D02*
X1239Y08822D01*
X1222Y08769D02*
X12337D01*
X12001Y08455D02*
Y0855D01*
X1222Y08769*
X11945Y08399D02*
X12001Y08455D01*
X1021Y08399D02*
X11945D01*
X0999Y08179D02*
X1021Y08399D01*
X07541Y08507D02*
X07574Y0854D01*
X07541Y08444D02*
Y08507D01*
X07572Y08383D02*
Y08444D01*
X07604Y08402D02*
Y08444D01*
Y08402D02*
X07608Y08398D01*
Y0835D02*
Y08398D01*
X07596Y08338D02*
X07608Y0835D01*
X04116Y08622D02*
X04292D01*
X04304Y0861*
X04116Y08872D02*
X04279D01*
X04294Y08857*
X04116Y06537D02*
X05777D01*
X06558Y07318*
X04116Y06787D02*
X05918D01*
X06513Y07382*
X06711Y0758D02*
X07155Y08024D01*
X07211*
X06763Y07523D02*
X06782D01*
X07248Y07989*
G54D27*
X07115Y08113D02*
X07118Y08117D01*
X07234*
X06899Y08168D02*
X07195D01*
X07203Y08176*
X07234*
X0791Y08357D02*
X0813Y08137D01*
X07856Y08271D02*
X07994D01*
X10472Y07404D02*
X10478Y0741D01*
X10472Y07403D02*
Y07404D01*
X10458Y07389D02*
X10472Y07403D01*
X10457Y07389D02*
X10458D01*
X10435Y07367D02*
X10457Y07389D01*
X10316Y06981D02*
X10435Y071D01*
X10364Y06378D02*
X10443D01*
X10336Y06405D02*
X10364Y06378D01*
X10336Y06405D02*
Y06863D01*
X10338Y06865*
X10361Y06479D02*
X10521D01*
X10533Y06468*
X10429Y06498D02*
X10429Y06498D01*
X10414Y06498D02*
X10429D01*
X10369Y06543D02*
X10414Y06498D01*
X10429Y06498D02*
X10539D01*
X10538Y06449D02*
X1054Y06447D01*
X10466Y06449D02*
X10538D01*
X10455Y06438D02*
X10466Y06449D01*
X10533Y06468D02*
X10539Y06474D01*
X10435Y071D02*
Y07133D01*
X07141Y06981D02*
X10316D01*
X10443Y06378D02*
X1048Y06415D01*
X10481*
X10502Y06748D02*
X1054D01*
X10496Y06754D02*
X10502Y06748D01*
X10487Y06754D02*
X10496D01*
X10489Y06422D02*
X1054D01*
X10338Y07756D02*
X1055D01*
X10539Y07159D02*
X10542Y07157D01*
X10332Y0714D02*
X10351Y07159D01*
X10539*
X10474Y07135D02*
X10492D01*
X10824Y06998D02*
X10842Y07016D01*
X10824Y06938D02*
Y06998D01*
Y06938D02*
X10825Y06938D01*
Y06892D02*
Y06938D01*
X10809Y06876D02*
X10825Y06892D01*
X10553Y08151D02*
X10782D01*
X10783Y08152*
X10553D02*
X10553Y08151D01*
X10605Y08176D02*
X10624D01*
X10555Y08127D02*
X10639D01*
X10554Y08128D02*
X10555Y08127D01*
X10553Y08049D02*
X10654D01*
X10655Y0805*
X10553D02*
X10553Y08049D01*
X05887Y0839D02*
X05902Y08376D01*
X04358Y08852D02*
X04464D01*
X04704Y0885D02*
X04706Y08852D01*
X0536*
X05614Y08466D02*
Y08507D01*
X05638Y08531*
X05679*
X05887Y0874*
X05936*
X05612Y08465D02*
X05614Y08466D01*
X05837Y08839D02*
X05907Y08769D01*
X05435Y08839D02*
X05837D01*
X05907Y09026D02*
Y09094D01*
Y08769D02*
Y09026D01*
X05936Y0874D02*
X06064D01*
X05907Y08769D02*
X05936Y0874D01*
X0559Y09168D02*
Y09173D01*
X05553Y09131D02*
X0559Y09168D01*
X05553Y09094D02*
Y09131D01*
X05907Y09094D02*
X05909Y09096D01*
Y09136*
X05921Y09148*
Y09174*
X05887Y09094D02*
Y09133D01*
X05866Y09154D02*
X05887Y09133D01*
X05866Y09154D02*
Y09174D01*
X05373Y08839D02*
X05435D01*
X0536Y08852D02*
X05373Y08839D01*
X05435Y08996D02*
X05579D01*
X05435Y08976D02*
X05564D01*
X05577Y08965D02*
X05579D01*
X0557Y08972D02*
X05577Y08965D01*
X05569Y08972D02*
X0557D01*
X05564Y08976D02*
X05569Y08972D01*
X04172Y08716D02*
X04486D01*
X04116Y08772D02*
X04172Y08716D01*
X04116Y09022D02*
X04434D01*
X05321Y08602D02*
X05435D01*
X05347Y08622D02*
X05435D01*
X05304Y08641D02*
X05329D01*
X05347Y08622*
X05353Y08642D02*
X05435D01*
X05336Y08658D02*
X05353Y08642D01*
X05324Y08658D02*
X05336D01*
X05312Y08671D02*
X05324Y08658D01*
X04486Y08716D02*
X04638Y08563D01*
X05435*
X04434Y09022D02*
X04872Y08583D01*
X05435*
X05148Y0861D02*
X05314D01*
X05321Y08602*
X0573Y08367D02*
Y08465D01*
X0571Y08362D02*
Y08465D01*
X0569Y08356D02*
Y08465D01*
X05887Y0839D02*
Y08465D01*
X05942Y08366D02*
Y08369D01*
X05907Y08404D02*
X05942Y08369D01*
X05907Y08404D02*
Y08465D01*
X10377Y06824D02*
X1054D01*
X10339Y0805D02*
X10553D01*
X1055Y07807D02*
X1078D01*
X1055Y07756D02*
X1078D01*
X10706Y07999D02*
X10783D01*
X10655Y0805D02*
X10706Y07999D01*
X10655Y0805D02*
X10783D01*
X10553Y08101D02*
X10783D01*
X10369Y06543D02*
Y06816D01*
X10377Y06824*
X10738Y07055D02*
X10772D01*
X10745Y07029D02*
X10772D01*
X10738Y07081D02*
X10772D01*
X10346Y08229D02*
X10553D01*
X10654*
X10679Y08204*
X10783*
X1055Y07884D02*
X10646D01*
X10671Y07859*
X1078*
X10435Y07192D02*
Y07367D01*
X0569Y08356D02*
X07129Y06917D01*
X0573Y08367D02*
X07134Y06963D01*
X10579*
X10581Y06966*
X10602*
X0571Y08362D02*
X07132Y0694D01*
X10614D02*
X10616Y06942D01*
X10625*
X10738Y07055*
X07129Y06917D02*
X10633D01*
X107Y0637D02*
X1077D01*
X10697Y06758D02*
X10715D01*
X10725Y06748*
X1077*
X10703Y06727D02*
X1072D01*
X10726Y06721*
X10769*
X1077Y06722*
X10701Y06413D02*
X10718Y06396D01*
X1077*
X10701Y0645D02*
Y06456D01*
Y0645D02*
X10729Y06422D01*
X1077*
X1224Y06522D02*
X12276D01*
X12323D02*
X1244D01*
X10659Y07064D02*
X10681D01*
X10593Y06998D02*
X10659Y07064D01*
X10468Y06998D02*
X10593D01*
X10469Y06873D02*
X10489D01*
X10493Y06877*
X10539*
X1054Y06876*
X1224Y06722D02*
X12398Y06563D01*
X10633Y06436D02*
X107Y0637D01*
X1054Y0655D02*
X10598D01*
X10616Y06532*
Y06408D02*
Y06532D01*
X10598Y06377D02*
Y06507D01*
X10582Y06524D02*
X10598Y06507D01*
X1054Y06524D02*
X10582D01*
X12319Y06722D02*
X1244D01*
X12264Y06777D02*
X12319Y06722D01*
X12299Y06822D02*
X1244D01*
X12257Y06863D02*
X12299Y06822D01*
X12222Y06863D02*
X12257D01*
X10664Y06622D02*
X10777D01*
X1054Y0685D02*
X10595D01*
X1077Y06447D02*
X10918D01*
X12349Y07022D02*
X1244D01*
X12301Y0707D02*
X12349Y07022D01*
X10774Y07104D02*
X10995D01*
X10772Y07106D02*
X10774Y07104D01*
X10884Y06773D02*
X10953Y06842D01*
X1077Y06773D02*
X10884D01*
X11716Y07222D02*
X1224D01*
X10896Y07474D02*
X10932D01*
X1077Y06473D02*
X10873D01*
X10876Y06476*
X12285Y07167D02*
X1244Y07322D01*
X11495Y07167D02*
X12285D01*
X10773Y07131D02*
X10882D01*
X10974Y06901D02*
X11047D01*
X10872Y06799D02*
X10974Y06901D01*
X1077Y06799D02*
X10872D01*
X11586Y07522D02*
X1224D01*
X10775Y07488D02*
X10777Y0749D01*
X1224Y07622D02*
X12398Y07463D01*
X12457*
X10771Y06499D02*
X10833D01*
X1077Y06498D02*
X10771Y06499D01*
X1232Y07622D02*
X1244D01*
X10777Y0749D02*
X10855D01*
X10775Y07463D02*
X10885D01*
X10896Y07474*
X10776Y07436D02*
X1087D01*
X12299Y07068D02*
X12301Y0707D01*
X11453Y07068D02*
X12299D01*
X11456Y07128D02*
X11495Y07167D01*
X11415Y07128D02*
X11456D01*
X11499Y06978D02*
X11682D01*
X10849Y06831D02*
Y06949D01*
X10842Y06824D02*
X10849Y06831D01*
X1077Y06824D02*
X10842D01*
X10826Y07516D02*
X10834D01*
X10824Y07514D02*
X10826Y07516D01*
X10775Y07514D02*
X10824D01*
X12209Y07922D02*
X1224D01*
X12156Y07869D02*
X12209Y07922D01*
X11357Y07822D02*
X1224D01*
X11337Y07869D02*
X12156D01*
X10844Y06524D02*
X10852Y06516D01*
X1077Y06524D02*
X10844D01*
X12282Y07764D02*
X1244Y07922D01*
X12261Y0768D02*
X1232Y07622D01*
X11378Y07764D02*
X12282D01*
X11533Y07575D02*
X11586Y07522D01*
X11416D02*
X11716Y07222D01*
X11932Y06857D02*
X11939Y06864D01*
X12222*
X12222Y06863*
X11698Y06839D02*
X11825D01*
X11956Y0697*
X10852Y06516D02*
X10961D01*
X10777Y06622D02*
X10968Y06813D01*
X11203*
X10953Y06842D02*
X11049D01*
X1077Y0685D02*
X10771Y06849D01*
X1082*
X12108Y06754D02*
X1224Y06622D01*
X11955Y06707D02*
X1224Y06422D01*
X11971Y06728D02*
X12118Y0658D01*
X12264D02*
X12323Y06522D01*
X12118Y0658D02*
X12264D01*
X11227Y06802D02*
X11227Y06802D01*
X11227Y06779D02*
Y06802D01*
X10772Y07209D02*
X10884D01*
X10775Y0754D02*
Y0754D01*
X12398Y06563D02*
X12457D01*
X12487Y06409D02*
Y06534D01*
X12457Y06563D02*
X12487Y06534D01*
X11956Y0697D02*
X12458D01*
X12494Y07006*
Y07368*
X1244Y07422D02*
X12494Y07368D01*
X12515Y0641D02*
Y07406D01*
X12457Y07463D02*
X12515Y07406D01*
X12285Y06391D02*
Y06513D01*
X12276Y06522D02*
X12285Y06513D01*
X10616Y06408D02*
X10686Y06338D01*
X12232*
X12285Y06391*
X10598Y06377D02*
X10668Y06308D01*
X12385*
X12487Y06409*
X11656Y06777D02*
X12264D01*
X11201Y0673D02*
X11238D01*
X11193Y06747D02*
X11195D01*
X11227Y06779*
X10918Y06447D02*
X11201Y0673D01*
X10961Y06516D02*
X11193Y06747D01*
X11376Y06986D02*
X11634Y06728D01*
X11971*
X11303Y07096D02*
Y07172D01*
Y07096D02*
X11645Y06754D01*
X12108*
X11258Y06647D02*
X11393Y06782D01*
Y06838*
X11586Y06917D02*
X11682D01*
X11752Y06987*
X11139Y08122D02*
X1224D01*
X10539Y06474D02*
X1054Y06473D01*
X12166Y08148D02*
X1224Y08222D01*
X11115Y08148D02*
X12166D01*
X10551Y07781D02*
X10632D01*
X10945Y0628D02*
X12385D01*
X12515Y0641*
X10494Y06799D02*
X1054D01*
X10433Y0677D02*
X10465D01*
X10539Y06498D02*
X1054Y06498D01*
X10465Y0677D02*
X10494Y06799D01*
X10602Y08179D02*
X10605Y08176D01*
X10554Y08179D02*
X10602D01*
X10553Y08178D02*
X10554Y08179D01*
X1055Y07833D02*
X10606D01*
X1062Y07847*
X10677Y06696D02*
X1077D01*
X10672Y067D02*
X10677Y06696D01*
X10672Y067D02*
Y06878D01*
X10633Y06917D02*
X10672Y06878D01*
X10595Y0685D02*
X10631Y06814D01*
X10648Y06667D02*
X10677Y06696D01*
X10648Y06641D02*
Y06667D01*
X10631Y06648D02*
Y06814D01*
X10606Y06615D02*
Y06623D01*
X10631Y06648*
X10633Y06436D02*
Y06626D01*
X10648Y06641*
X10588Y06717D02*
Y06764D01*
X1058Y06772D02*
X10588Y06764D01*
X10541Y06772D02*
X1058D01*
X1054Y06773D02*
X10541Y06772D01*
X12282Y08064D02*
X1244Y08222D01*
X12282Y08063D02*
Y08064D01*
X10266Y06999D02*
X10301Y07034D01*
Y07886D02*
Y08184D01*
X10346Y08229*
X10269Y07049D02*
Y08212D01*
X10362Y0789D02*
X10368Y07884D01*
X1055*
X10301Y07034D02*
Y07886D01*
X10334Y07488D02*
X10545D01*
X10334Y0714D02*
Y07488D01*
Y08167*
X10473Y07435D02*
X10543D01*
X10543Y0741D02*
X10545Y07412D01*
X10478Y0741D02*
X10543D01*
X10492Y0746D02*
X10503D01*
X10507Y07464*
X10544*
X10553Y08076D02*
X10624D01*
X1161Y07672D02*
X11618Y0768D01*
X12261*
X10545Y07514D02*
X10547Y07512D01*
X10553Y08024D02*
X10603D01*
X1141Y07698D02*
Y0772D01*
Y07698D02*
X11533Y07575D01*
X10547Y07512D02*
X10548Y07513D01*
X10659Y07968D02*
X10778D01*
X10603Y08024D02*
X10659Y07968D01*
X10783Y08178D02*
X10843D01*
X10885Y08136*
X10783Y08127D02*
X10841D01*
X10866Y08102*
X10783Y08076D02*
X10833D01*
X10783Y08024D02*
X10836D01*
X11331Y07717D02*
X11378Y07764D01*
X1127Y07802D02*
X11337Y07869D01*
X1127Y07803D02*
X1127Y07802D01*
X1127Y07483D02*
Y07803D01*
X11242Y07465D02*
Y07847D01*
Y07465D02*
X11286Y07421D01*
X11315*
X11416Y07522*
X10542Y07209D02*
X10636D01*
X10661Y07155D02*
X10735Y07081D01*
X10738*
X10622Y06965D02*
X10738Y07081D01*
X07132Y0694D02*
X10614D01*
X10686Y07275D02*
Y0737D01*
X10702Y07386*
X10775*
X10661Y07218D02*
Y07373D01*
X107Y07412*
X10775*
X10633Y06917D02*
X10745Y07029D01*
X10732Y0736D02*
X10775D01*
X11169Y08033D02*
X1117Y08032D01*
X11168Y0803D02*
X1117Y08032D01*
X10704Y07244D02*
X1071Y0725D01*
Y07338*
X10732Y0736*
X10636Y07209D02*
X10639Y07206D01*
Y07199D02*
Y07206D01*
X10661Y07155D02*
Y07186D01*
X10663Y07188*
Y07216*
X10661Y07218D02*
X10663Y07216D01*
X10548Y07513D02*
X10572D01*
X106Y07469D02*
Y07485D01*
X10572Y07513D02*
X106Y07485D01*
X10545Y0754D02*
Y07568D01*
X10582Y07315D02*
X10625Y07358D01*
Y0752*
X1059Y07554D02*
Y07583D01*
Y07554D02*
X10625Y0752D01*
X10545Y07568D02*
X10606Y07629D01*
X11032Y07183D02*
X1115Y07301D01*
X11143Y07357D02*
X11227Y07272D01*
Y06802D02*
Y07272D01*
X1078Y07731D02*
X10844D01*
X1078Y07782D02*
X10831D01*
X11168Y0803D02*
X11177Y08021D01*
Y07514D02*
Y08021D01*
X10823Y07833D02*
X11166Y07489D01*
X1117*
X11177Y07483*
X1092Y07629D02*
X11252Y07298D01*
X10831Y07782D02*
X11328Y07285D01*
X11276Y07083D02*
Y07299D01*
X11612Y06707D02*
X11955D01*
X11252Y07067D02*
Y07298D01*
Y07067D02*
X11612Y06707D01*
X11276Y07083D02*
X1129Y07069D01*
X1078Y07833D02*
X10823D01*
X10464Y07291D02*
X10488Y07315D01*
X10582*
X10464Y07205D02*
Y07291D01*
Y07205D02*
X10486Y07183D01*
X10542*
X10489Y07274D02*
X1058D01*
X10772Y07183D02*
X11032D01*
X10772Y07157D02*
X11091D01*
X11328Y07105D02*
X11656Y06777D01*
X11328Y07105D02*
Y07285D01*
X11091Y07157D02*
X11176Y07242D01*
X1161Y07562D02*
Y07672D01*
X10334Y08167D02*
X10371Y08204D01*
X10553*
X10336Y08152D02*
X10338Y08149D01*
X10548Y07703D02*
X1055Y07705D01*
X10339D02*
X1034Y07703D01*
X10547Y07728D02*
X1055Y07731D01*
X1034Y07703D02*
X10548D01*
X10505Y07931D02*
X10517Y07943D01*
X10496Y07931D02*
X10505D01*
X10498Y07514D02*
X10545D01*
X10498D02*
Y07521D01*
X1055Y08124D02*
X10553Y08127D01*
X10483Y08124D02*
X1055D01*
X10338Y08101D02*
X10339Y08099D01*
X10454Y08176D02*
X10547D01*
X1055Y08149D02*
X10553Y08152D01*
X10338Y08149D02*
X1055D01*
X10545Y0773D02*
X10547Y07728D01*
X10427Y0773D02*
X10545D01*
X10551Y08099D02*
X10553Y08101D01*
X10339Y08099D02*
X10551D01*
X10338Y07807D02*
X1055D01*
X10341Y07859D02*
X10342Y0786D01*
X10548D02*
X1055Y07859D01*
X10342Y0786D02*
X10548D01*
X10359Y07836D02*
X10362Y07833D01*
X1055*
X10497Y07105D02*
X10541D01*
X10507Y0708D02*
X10507Y07081D01*
X10542*
X10435Y0708D02*
Y07133D01*
Y0708D02*
X10507D01*
X10388Y07782D02*
X1055D01*
X10492Y07135D02*
X10496Y07131D01*
X10541*
X10542Y07132*
X07151Y06999D02*
X10266D01*
X05828Y08322D02*
Y08465D01*
X05809Y08314D02*
Y08465D01*
X05828Y08322D02*
X07151Y06999D01*
X05809Y08314D02*
X07141Y06981D01*
X12388Y0867D02*
X1244Y08722D01*
X12189Y0867D02*
X12388D01*
X12038Y08519D02*
X12189Y0867D01*
X12038Y08426D02*
Y08519D01*
X12386Y08568D02*
X1244Y08622D01*
X12135Y08568D02*
X12386D01*
X12068Y08501D02*
X12135Y08568D01*
X12068Y08426D02*
Y08501D01*
X1077Y0655D02*
X10893D01*
X1077D02*
Y06581D01*
X10848Y0738D02*
X11047D01*
X10728Y07233D02*
Y07254D01*
X10728Y07254D02*
X10728Y07254D01*
X10728Y07254D02*
Y0726D01*
X10848Y0738*
X10704Y07194D02*
Y07209D01*
X10728Y07233*
X10638Y07572D02*
X10696Y07514D01*
X10775*
X10772Y07209D02*
Y07233D01*
X1077Y06876D02*
X10809D01*
X10773Y06879D02*
Y06925D01*
X10714Y06879D02*
X10773D01*
X10726Y0754D02*
X10775D01*
X10717Y07549D02*
X10726Y0754D01*
X10775Y0754D02*
X10898D01*
X1089Y07214D02*
X10933D01*
X10551Y07678D02*
X10552Y07679D01*
X1055Y07705D02*
X1078D01*
X10697D02*
X10748Y07654D01*
X1078*
X10552Y07679D02*
X10682D01*
X1059Y07583D02*
X1061Y07603D01*
X10771*
X10774Y07605*
X10801*
X10804Y07603*
X10846*
X10742Y07574D02*
X10788D01*
X10717Y07549D02*
X10742Y07574D01*
X10853Y08209D02*
X1091Y08153D01*
Y07956D02*
Y08153D01*
X10853Y08209D02*
Y08229D01*
X11161Y08063D02*
X12282D01*
X11244Y07849D02*
Y08033D01*
X11242Y07847D02*
X11244Y07849D01*
X10883Y0797D02*
X10885Y07972D01*
Y08136*
X10888Y07934D02*
X1091Y07956D01*
X10836Y07884D02*
X10869Y07851D01*
X10517Y07943D02*
X10791D01*
X10866Y08018*
Y08102*
X1086Y07934D02*
X10888D01*
X1085Y07945D02*
X1086Y07934D01*
X10833Y07881D02*
X10836Y07884D01*
X10831Y07881D02*
X10833D01*
X1078Y07884D02*
X10783Y07881D01*
X10831*
X10725Y07913D02*
X11011D01*
X11161Y08063*
X10722Y07917D02*
X10725Y07913D01*
X11988Y08346D02*
X12068Y08426D01*
X11976Y08364D02*
X12038Y08426D01*
X10208Y08364D02*
X11976D01*
X10216Y08346D02*
X11988D01*
X10007Y08137D02*
X10216Y08346D01*
X1Y08155D02*
X10208Y08364D01*
X0813Y08137D02*
X10007D01*
X08138Y08155D02*
X1D01*
X10327Y0827D02*
X10992D01*
X10269Y08212D02*
X10327Y0827D01*
X10992D02*
X11115Y08148D01*
X10843Y08229D02*
X10853D01*
X10832Y07704D02*
X10846D01*
X1092Y07629*
X10844Y07731D02*
X10853Y07721D01*
X10853*
X11276Y07299*
X1078Y07679D02*
X10818D01*
X10606Y07629D02*
X1092D01*
X10818Y07679D02*
X10843Y07654D01*
X10851*
X11307Y07453D02*
X11331Y07477D01*
Y07717*
X11298Y07587D02*
Y07763D01*
X11357Y07822*
X11408Y07599D02*
Y07638D01*
Y07599D02*
X11579Y07428D01*
X11604*
X07903Y08389D02*
X08138Y08155D01*
X07722Y08389D02*
X07903D01*
X07722Y08357D02*
X0791D01*
X06572Y08496D02*
X06899Y08168D01*
X06527Y08467D02*
X0688Y08113D01*
X07115*
G54D28*
X07621Y08035D02*
X07678D01*
X07591Y07947D02*
X07621Y07976D01*
X07548Y07947D02*
X07591D01*
X07516Y07978D02*
X07548Y07947D01*
X07516Y07978D02*
Y08034D01*
X07604Y08052D02*
X07621Y08035D01*
X07604Y08052D02*
Y08113D01*
X07478Y08158D02*
X07551Y08231D01*
X07509Y08272D02*
Y08444D01*
Y08272D02*
X0755Y08231D01*
X078Y08226D02*
X07838D01*
X07787D02*
X078D01*
X07751Y08263D02*
X07787Y08226D01*
X07722Y08263D02*
X07751D01*
X07789Y08271D02*
X07797D01*
X07765Y08294D02*
X07789Y08271D01*
X07722Y08294D02*
X07765D01*
X07551Y08231D02*
X07722D01*
X11976Y08923D02*
X11996Y08904D01*
X11797Y08923D02*
X11976D01*
X04116Y08372D02*
X04296D01*
X04304Y08669D02*
X04363Y0861D01*
X04139Y08669D02*
X04304D01*
X04068Y08739D02*
X04139Y08669D01*
X04068Y08739D02*
Y08984D01*
X04283Y08927D02*
X04353Y08857D01*
X04126Y08927D02*
X04283D01*
X04068Y08984D02*
X04126Y08927D01*
X04068Y08984D02*
Y09041D01*
X04096Y09069*
X04335*
X04353Y09087*
Y0912*
X04418Y07448D02*
X04463D01*
X04356Y08373D02*
X04664Y08065D01*
Y07474D02*
Y08065D01*
X04356Y08603D02*
X04363Y0861D01*
X04356Y08373D02*
Y08603D01*
X04353Y0912D02*
X0437Y09137D01*
Y09364*
X04116Y09372D02*
X04303D01*
X04116Y09122D02*
X04292D01*
X05921Y09174D02*
X06516D01*
X05477Y09129D02*
Y09172D01*
Y09129D02*
X05511Y09094D01*
X12086Y09036D02*
X121Y09022D01*
X1224*
X10712Y08239D02*
X10843D01*
X09866Y08265D02*
X09981D01*
X10142Y08426*
X11933*
X11973Y08466*
Y08624*
X12037Y08688*
Y09073*
X12059Y09095*
X12086*
X12091Y09101*
Y09136*
X11996Y08852D02*
Y08904D01*
Y08963D02*
Y09024D01*
X11797Y09223D02*
X11996Y09024D01*
X07478Y08113D02*
Y08158D01*
X07722Y08326D02*
X07787D01*
X07478Y08049D02*
Y08113D01*
Y08049D02*
X07494Y08034D01*
X07516*
X04Y06D02*
X1266D01*
X04Y09937D02*
X1266D01*
Y06D02*
Y09937D01*
X04Y06D02*
Y09937D01*
G54D29*
X07057Y09218D02*
X07245D01*
X0757Y09543*
X08028*
X06705Y09315D02*
X06777Y09243D01*
X06675Y09315D02*
X06705D01*
X06777Y09218D02*
Y09243D01*
X06533Y09174D02*
X06675Y09315D01*
X07566Y08973D02*
X08877D01*
X09586Y08265D02*
X09866D01*
X08877Y08973D02*
X09586Y08265D01*
X07452Y09176D02*
Y09245D01*
X07245Y09218D02*
X07409D01*
X07452Y09176*
X06777Y0909D02*
Y09218D01*
Y0909D02*
X06894Y08973D01*
X07566*
X05921Y09174D02*
X06533D01*
X04121Y06882D02*
X04326D01*
X04122Y06643D02*
X04339D01*
X04664Y07211D02*
Y07474D01*
X04385Y06882D02*
X04457D01*
X04475Y06864*
X04398Y06643D02*
X04473D01*
X04475Y06645*
G54D30*
X08193Y09543D02*
X08292D01*
G54D31*
X05612Y08395D02*
Y08465D01*
X05564Y08347D02*
X05612Y08395D01*
X04748Y07767D02*
X05387Y08406D01*
X05564*
X05545Y09026D02*
X05907D01*
X05516Y09054D02*
X05545Y09026D01*
X05516Y09054D02*
Y09092D01*
X05513Y09094D02*
X05516Y09092D01*
X05697Y08238D02*
X05697Y08237D01*
X05701Y08214*
X05697Y08238D02*
Y08278D01*
X05671Y08304D02*
X05697Y08278D01*
X05671Y08304D02*
Y08465D01*
X05627Y08142D02*
Y08237D01*
X05634D02*
Y08281D01*
X05651Y08298*
Y08465*
X05622Y08132D02*
Y08137D01*
Y08153*
Y08137D02*
X05627Y08142D01*
X05701Y08153D02*
Y08214D01*
X05564Y08406D02*
X05568Y08411D01*
X0558*
X05592Y08423*
Y08465*
X05848Y08352D02*
Y08465D01*
Y08352D02*
X05967Y08234D01*
X05868Y08371D02*
Y08465D01*
Y08371D02*
X05972Y08268D01*
X05981*
X06017Y08232*
X04113Y07244D02*
X04257Y07099D01*
X04113Y07244D02*
Y0766D01*
X04155Y07702*
X04541Y07806D02*
X04587Y07759D01*
X04259Y07806D02*
X04541D01*
X04155Y07702D02*
X04259Y07806D01*
X04257Y07099D02*
X04459D01*
X04521Y07106D02*
X05924D01*
X06378Y0756*
X06616Y07798D02*
X06891Y08073D01*
X06952*
X07324Y08263D02*
X07391D01*
X04466Y07057D02*
Y07106D01*
G54D32*
X12151Y09134D02*
X12156Y09129D01*
X12151Y09134D02*
X12227D01*
X1224Y09122*
G54D33*
X118Y09223D03*
Y08623D03*
G54D34*
X118Y09073D03*
Y08923D03*
Y08773D03*
X098Y08923D03*
Y0921D03*
Y08635D03*
G54D35*
X1244Y09522D03*
Y09422D03*
Y09322D03*
Y09222D03*
Y09122D03*
Y09022D03*
Y08922D03*
Y08822D03*
Y08722D03*
Y08622D03*
Y08522D03*
Y08422D03*
Y08322D03*
Y08222D03*
Y08122D03*
Y08022D03*
Y07922D03*
Y07822D03*
Y07722D03*
Y07622D03*
Y07522D03*
Y07422D03*
Y07322D03*
Y07222D03*
Y07122D03*
Y07022D03*
Y06922D03*
Y06822D03*
Y06722D03*
Y06622D03*
Y06522D03*
Y06422D03*
X1224Y09522D03*
Y09422D03*
Y09322D03*
Y09222D03*
Y09122D03*
Y09022D03*
Y08922D03*
Y08822D03*
Y08722D03*
Y08622D03*
Y08522D03*
Y08422D03*
Y08322D03*
Y08222D03*
Y08122D03*
Y08022D03*
Y07922D03*
Y07822D03*
Y07722D03*
Y07622D03*
Y07522D03*
Y07422D03*
Y07322D03*
Y07222D03*
Y07122D03*
Y07022D03*
Y06922D03*
Y06822D03*
Y06722D03*
Y06622D03*
Y06522D03*
Y06422D03*
X04257Y07099D03*
Y07276D03*
G54D36*
X1254Y09722D03*
Y06222D03*
G54D37*
X04116Y08872D03*
Y08772D03*
Y09022D03*
Y09122D03*
Y08272D03*
Y08372D03*
Y06637D03*
Y06537D03*
Y06887D03*
Y06787D03*
Y09372D03*
Y09272D03*
Y08622D03*
Y08522D03*
G54D38*
X04155Y07502D03*
X04055D03*
X04155Y07602D03*
X04055D03*
X04155Y07702D03*
X04055D03*
Y07802D03*
X04155D03*
Y07902D03*
X04055D03*
G54D39*
X04356Y07325D03*
Y0705D03*
G54D40*
X0414Y09717D03*
Y06217D03*
X07957Y08222D03*
X08294Y09545D03*
X04464Y08852D03*
X04704Y0885D03*
X04418Y07448D03*
X04664Y07211D03*
G54D41*
X07707Y08449D03*
X07901Y08321D03*
X08142Y08222D03*
X0755Y08231D03*
X11891Y08542D03*
X11699Y08546D03*
X11714Y0861D03*
X11877Y08606D03*
X11754Y08524D03*
X11835Y08519D03*
X1185Y08564D03*
X11743Y08566D03*
X11796Y08545D03*
X11891Y09307D03*
X11796Y09347D03*
X11704Y09315D03*
X11847Y09317D03*
X11752Y0932D03*
X11732Y09272D03*
X11865D03*
X11797Y09304D03*
X09757Y08576D03*
X09761Y08698D03*
X05967Y08234D03*
X06017Y08232D03*
X09705Y09164D03*
X09801Y09272D03*
X07572Y08383D03*
X07596Y08338D03*
X0474Y07759D03*
X04587D03*
X06378Y0756D03*
X06616Y07798D03*
X06952Y08073D03*
X07324Y08263D03*
X04475Y06864D03*
Y06645D03*
X06513Y07382D03*
X06558Y07318D03*
X06711Y0758D03*
X06763Y07523D03*
X07211Y08024D03*
X07248Y07989D03*
G54D42*
X10515Y06583D03*
X10332Y0634D03*
X104Y07392D03*
X10448Y07414D03*
X1069Y06929D03*
X10326Y06998D03*
X10338Y06865D03*
X10361Y06479D03*
X10487Y06754D03*
X10481Y06415D03*
X10401Y07599D03*
X10392Y08012D03*
X10388Y07782D03*
X10956Y07952D03*
X10482Y07352D03*
X10693Y07476D03*
X10825Y07399D03*
X11035Y07446D03*
X11338Y07944D03*
X11209Y0794D03*
X10599Y07393D03*
X10474Y07135D03*
X108Y06947D03*
X10496Y07042D03*
X10484Y06714D03*
X1049Y06364D03*
X10858Y06596D03*
X10874Y07579D03*
X10964Y07845D03*
X10624Y08176D03*
X10639Y08127D03*
X10632Y08074D03*
X10956Y08229D03*
X05579Y08996D03*
X05579Y08965D03*
X06572Y08496D03*
X06527Y08467D03*
X05304Y08641D03*
X0531Y08673D03*
X05148Y0861D03*
X05942Y08366D03*
X05901Y08376D03*
X10369Y06816D03*
X10435Y07192D03*
X10592Y06942D03*
X10615Y06973D03*
X10697Y06758D03*
X10703Y06727D03*
X10701Y06413D03*
Y06456D03*
X10681Y07064D03*
X10468Y06998D03*
X10469Y06873D03*
X10664Y06622D03*
X10606Y06615D03*
X10995Y07104D03*
X11203Y06813D03*
X10932Y07474D03*
X10876Y06476D03*
X10882Y07131D03*
X11047Y06901D03*
X10833Y06499D03*
X10855Y0749D03*
X1087Y07436D03*
X11453Y07068D03*
X11415Y07128D03*
X11303Y07172D03*
X11682Y06978D03*
X11499D03*
X10849Y06949D03*
X10834Y07516D03*
X11307Y07453D03*
X11533Y07575D03*
X11416Y07522D03*
X11932Y06857D03*
X11698Y06839D03*
X11752Y06987D03*
X11049Y06842D03*
X1082Y06849D03*
X11376Y06986D03*
X11238Y0673D03*
X11258Y06647D03*
X11397Y06839D03*
X11586Y06917D03*
X11138Y08123D03*
X10269Y07049D03*
X10632Y07781D03*
X10945Y0628D03*
X10433Y0677D03*
X10455Y06438D03*
X1062Y07847D03*
X10588Y06717D03*
X10301Y07886D03*
X10362Y0789D03*
X10492Y0746D03*
X10473Y07435D03*
X10722Y07917D03*
X1161Y07672D03*
X1141Y0772D03*
X10496Y07931D03*
X10778Y07968D03*
X10837Y08072D03*
X1084Y08035D03*
X1127Y07483D03*
X10686Y07275D03*
X10655Y06936D03*
X11169Y08033D03*
X11047Y0738D03*
X10704Y07244D03*
X10704Y07194D03*
X10639Y07199D03*
X106Y07469D03*
X10848Y07605D03*
X10638Y07572D03*
X10832Y07704D03*
X1115Y07301D03*
X11143Y07357D03*
X11177Y07483D03*
Y07514D03*
X1129Y07069D03*
X10489Y07274D03*
X10582Y07272D03*
X10833Y07182D03*
X11176Y07242D03*
X11609Y07561D03*
X10498Y07521D03*
X10483Y08124D03*
X10454Y08176D03*
X10427Y0773D03*
X10359Y07836D03*
X10497Y07105D03*
X10332Y0714D03*
X10435Y07133D03*
X10682Y07679D03*
X11244Y08033D03*
X10883Y0797D03*
X10851Y07654D03*
X11298Y07587D03*
X1098Y07637D03*
X11408Y07638D03*
X11604Y07428D03*
X11497Y07169D03*
G54D43*
X07483Y08781D03*
X07531Y08804D03*
X07444Y08814D03*
X07676Y08796D03*
X07414Y08851D03*
X07555Y08845D03*
X07374Y08819D03*
X07491Y08833D03*
X07407Y08776D03*
X07585Y088D03*
G54D44*
X1077Y06581D03*
X10714Y06879D03*
X10769Y07242D03*
X10717Y07549D03*
X10842Y07016D03*
X10938Y07219D03*
X10788Y07574D03*
X1085Y07945D03*
X10831Y07881D03*
X10712Y08239D03*
G54D45*
X09866Y08265D03*
M02*
