%FSTAX23Y23*%
%MOIN*%
%SFA1B1*%

%IPPOS*%
%ADD29C,0.020000*%
%ADD30C,0.012000*%
%ADD33C,0.010000*%
%ADD49C,0.000000*%
%ADD50C,0.006000*%
%ADD51C,0.009843*%
%ADD52C,0.023622*%
%ADD53C,0.005000*%
%ADD54C,0.004000*%
%ADD55C,0.007874*%
%ADD56C,0.009000*%
%ADD57C,0.008000*%
%ADD58C,0.005905*%
%ADD59C,0.003402*%
%LNeurocard_vme_3u_(3.937_x_8.660_inches)-1*%
%LPD*%
G36*
X04493Y09064D02*
Y09064D01*
Y09064*
Y09063*
X04493Y09063*
Y09063*
X04493Y09062*
X04493Y0906*
X04493Y09059*
X04493Y09057*
X04492Y09056*
X04492*
X04492Y09056*
X04493Y09056*
X04493Y09056*
X04493Y09056*
X04494Y09056*
X04495Y09057*
X04496Y09057*
X04497Y09058*
X04499Y09058*
X045Y09059*
X04502Y09054*
X04502*
X04502Y09054*
X04501Y09054*
X04501Y09054*
X04501Y09054*
X045Y09053*
X04499Y09053*
X04498Y09053*
X04497Y09053*
X04495Y09052*
X04493Y09052*
X04494Y09052*
X04494Y09052*
X04494Y09051*
X04495Y09051*
X04496Y0905*
X04497Y09049*
X04498Y09047*
X04499Y09047*
X04499Y09046*
X04495Y09043*
X04495Y09043*
X04495Y09043*
X04494Y09044*
X04494Y09045*
X04493Y09046*
X04492Y09047*
X04491Y09048*
X04491Y0905*
Y0905*
X0449Y0905*
X0449Y0905*
X0449Y09049*
X0449Y09049*
X0449Y09048*
X04489Y09047*
X04488Y09046*
X04488Y09045*
X04487Y09044*
X04486Y09043*
X04482Y09046*
X04482Y09046*
X04482Y09046*
X04483Y09046*
X04483Y09046*
X04483Y09047*
X04484Y09047*
X04484Y09048*
X04485Y09049*
X04486Y0905*
X04487Y09051*
X04487Y09052*
X04488Y09052*
X04488*
X04488Y09052*
X04487*
X04487Y09052*
X04487Y09052*
X04486Y09052*
X04485Y09053*
X04484Y09053*
X04482Y09053*
X04481Y09054*
X0448Y09054*
X04481Y09059*
X04481*
X04481Y09059*
X04482Y09059*
X04482Y09058*
X04482Y09058*
X04483Y09058*
X04484Y09058*
X04485Y09057*
X04487Y09057*
X04488Y09056*
X04488Y09056*
X04489Y09055*
Y09056*
Y09056*
X04489Y09056*
X04489Y09056*
Y09057*
X04489Y09058*
X04489Y09059*
X04488Y0906*
X04488Y09062*
X04488Y09063*
Y09063*
Y09064*
X04493*
Y09064*
G37*
G36*
X08033Y08129D02*
Y08129D01*
Y08129*
Y08128*
X08033Y08128*
Y08128*
X08033Y08127*
X08033Y08125*
X08033Y08124*
X08033Y08122*
X08032Y08121*
X08032*
X08032Y08121*
X08033Y08121*
X08033Y08121*
X08033Y08121*
X08034Y08121*
X08035Y08122*
X08036Y08122*
X08037Y08123*
X08039Y08123*
X0804Y08124*
X08042Y08119*
X08042*
X08042Y08119*
X08041Y08119*
X08041Y08119*
X08041Y08119*
X0804Y08118*
X08039Y08118*
X08038Y08118*
X08037Y08118*
X08035Y08117*
X08033Y08117*
X08034Y08117*
X08034Y08117*
X08034Y08116*
X08035Y08116*
X08036Y08115*
X08037Y08114*
X08038Y08112*
X08039Y08112*
X08039Y08111*
X08035Y08108*
X08035Y08108*
X08035Y08108*
X08034Y08109*
X08034Y0811*
X08033Y08111*
X08032Y08112*
X08031Y08113*
X08031Y08115*
Y08115*
X0803Y08115*
X0803Y08115*
X0803Y08114*
X0803Y08114*
X0803Y08113*
X08029Y08112*
X08028Y08111*
X08028Y0811*
X08027Y08109*
X08026Y08108*
X08022Y08111*
X08022Y08111*
X08022Y08111*
X08023Y08111*
X08023Y08111*
X08023Y08112*
X08024Y08112*
X08024Y08113*
X08025Y08114*
X08026Y08115*
X08027Y08116*
X08027Y08117*
X08028Y08117*
X08028*
X08028Y08117*
X08027*
X08027Y08117*
X08027Y08117*
X08026Y08117*
X08025Y08118*
X08024Y08118*
X08022Y08118*
X08021Y08119*
X0802Y08119*
X08021Y08124*
X08021*
X08021Y08124*
X08022Y08124*
X08022Y08123*
X08022Y08123*
X08023Y08123*
X08024Y08123*
X08025Y08122*
X08027Y08122*
X08028Y08121*
X08028Y08121*
X08029Y0812*
Y08121*
Y08121*
X08029Y08121*
X08029Y08121*
Y08122*
X08029Y08123*
X08029Y08124*
X08028Y08125*
X08028Y08127*
X08028Y08128*
Y08128*
Y08129*
X08033*
Y08129*
G37*
G54D29*
X04Y06D02*
Y09937D01*
X1266Y06D02*
Y09937D01*
X04D02*
X1266D01*
X04Y06D02*
X1266D01*
G54D30*
X06914Y07763D02*
D01*
X06914Y07763*
X06914Y07764*
X06914Y07764*
X06914Y07765*
X06914Y07765*
X06913Y07766*
X06913Y07766*
X06913Y07766*
X06913Y07767*
X06912Y07767*
X06912Y07768*
X06912Y07768*
X06911Y07768*
X06911Y07769*
X06911Y07769*
X0691Y07769*
X0691Y07769*
X06909Y07769*
X06909Y0777*
X06908Y0777*
X06908Y0777*
X06907Y0777*
X06907*
X06906Y0777*
X06906Y0777*
X06905Y0777*
X06905Y07769*
X06904Y07769*
X06904Y07769*
X06904Y07769*
X06903Y07769*
X06903Y07768*
X06902Y07768*
X06902Y07768*
X06902Y07767*
X06901Y07767*
X06901Y07766*
X06901Y07766*
X06901Y07766*
X069Y07765*
X069Y07765*
X069Y07764*
X069Y07764*
X069Y07763*
X069Y07763*
X069Y07762*
X069Y07762*
X069Y07761*
X069Y07761*
X069Y0776*
X06901Y0776*
X06901Y07759*
X06901Y07759*
X06901Y07759*
X06902Y07758*
X06902Y07758*
X06902Y07757*
X06903Y07757*
X06903Y07757*
X06904Y07757*
X06904Y07756*
X06904Y07756*
X06905Y07756*
X06905Y07756*
X06906Y07756*
X06906Y07756*
X06907Y07756*
X06907*
X06908Y07756*
X06908Y07756*
X06909Y07756*
X06909Y07756*
X0691Y07756*
X0691Y07756*
X06911Y07757*
X06911Y07757*
X06911Y07757*
X06912Y07757*
X06912Y07758*
X06912Y07758*
X06913Y07759*
X06913Y07759*
X06913Y07759*
X06913Y0776*
X06914Y0776*
X06914Y07761*
X06914Y07761*
X06914Y07762*
X06914Y07762*
X06914Y07763*
G54D33*
X04252Y09717D02*
D01*
X04252Y09724*
X04251Y09732*
X0425Y0974*
X04248Y09748*
X04245Y09755*
X04242Y09762*
X04239Y09769*
X04235Y09776*
X04231Y09783*
X04226Y09789*
X0422Y09795*
X04215Y098*
X04209Y09805*
X04202Y0981*
X04196Y09814*
X04189Y09818*
X04182Y09821*
X04174Y09823*
X04167Y09826*
X04159Y09827*
X04151Y09828*
X04143Y09829*
X04136*
X04128Y09828*
X0412Y09827*
X04112Y09826*
X04105Y09823*
X04097Y09821*
X0409Y09818*
X04083Y09814*
X04077Y0981*
X0407Y09805*
X04064Y098*
X04059Y09795*
X04053Y09789*
X04048Y09783*
X04044Y09776*
X0404Y09769*
X04037Y09762*
X04034Y09755*
X04031Y09748*
X04029Y0974*
X04028Y09732*
X04027Y09724*
X04027Y09717*
X04027Y09709*
X04028Y09701*
X04029Y09693*
X04031Y09685*
X04034Y09678*
X04037Y09671*
X0404Y09664*
X04044Y09657*
X04048Y0965*
X04053Y09644*
X04059Y09638*
X04064Y09633*
X0407Y09628*
X04077Y09623*
X04083Y09619*
X0409Y09615*
X04097Y09612*
X04105Y0961*
X04112Y09607*
X0412Y09606*
X04128Y09605*
X04136Y09604*
X04143*
X04151Y09605*
X04159Y09606*
X04167Y09607*
X04174Y0961*
X04182Y09612*
X04189Y09615*
X04196Y09619*
X04202Y09623*
X04209Y09628*
X04215Y09633*
X0422Y09638*
X04226Y09644*
X04231Y0965*
X04235Y09657*
X04239Y09664*
X04242Y09671*
X04245Y09678*
X04248Y09685*
X0425Y09693*
X04251Y09701*
X04252Y09709*
X04252Y09717*
Y06217D02*
D01*
X04252Y06224*
X04251Y06232*
X0425Y0624*
X04248Y06248*
X04245Y06255*
X04242Y06262*
X04239Y06269*
X04235Y06276*
X04231Y06283*
X04226Y06289*
X0422Y06295*
X04215Y063*
X04209Y06305*
X04202Y0631*
X04196Y06314*
X04189Y06318*
X04182Y06321*
X04174Y06323*
X04167Y06326*
X04159Y06327*
X04151Y06328*
X04143Y06329*
X04136*
X04128Y06328*
X0412Y06327*
X04112Y06326*
X04105Y06323*
X04097Y06321*
X0409Y06318*
X04083Y06314*
X04077Y0631*
X0407Y06305*
X04064Y063*
X04059Y06295*
X04053Y06289*
X04048Y06283*
X04044Y06276*
X0404Y06269*
X04037Y06262*
X04034Y06255*
X04031Y06248*
X04029Y0624*
X04028Y06232*
X04027Y06224*
X04027Y06217*
X04027Y06209*
X04028Y06201*
X04029Y06193*
X04031Y06185*
X04034Y06178*
X04037Y06171*
X0404Y06164*
X04044Y06157*
X04048Y0615*
X04053Y06144*
X04059Y06138*
X04064Y06133*
X0407Y06128*
X04077Y06123*
X04083Y06119*
X0409Y06115*
X04097Y06112*
X04105Y0611*
X04112Y06107*
X0412Y06106*
X04128Y06105*
X04136Y06104*
X04143*
X04151Y06105*
X04159Y06106*
X04167Y06107*
X04174Y0611*
X04182Y06112*
X04189Y06115*
X04196Y06119*
X04202Y06123*
X04209Y06128*
X04215Y06133*
X0422Y06138*
X04226Y06144*
X04231Y0615*
X04235Y06157*
X04239Y06164*
X04242Y06171*
X04245Y06178*
X04248Y06185*
X0425Y06193*
X04251Y06201*
X04252Y06209*
X04252Y06217*
X04663Y07404D02*
Y07544D01*
X0449D02*
X0466D01*
X0449Y07404D02*
Y07544D01*
X04493Y07403D02*
X04663D01*
X04612D02*
Y07544D01*
X0966Y08474D02*
Y09371D01*
X11939*
Y08474D02*
Y09371D01*
X0966Y08474D02*
X11939D01*
X07703Y09502D02*
X079D01*
G54D49*
X08148Y08085D02*
D01*
X08148Y08084*
X08148Y08083*
X08148Y08082*
X08148Y08081*
X08148Y0808*
X08149Y0808*
X08149Y08079*
X08149Y08078*
X0815Y08077*
X0815Y08077*
X08151Y08076*
X08151Y08076*
X08152Y08075*
X08153Y08075*
X08154Y08074*
X08154Y08074*
X08155Y08073*
X08156Y08073*
X08157Y08073*
X08157Y08073*
X08158Y08073*
X08159Y08073*
X0816*
X08161Y08073*
X08162Y08073*
X08162Y08073*
X08163Y08073*
X08164Y08073*
X08165Y08074*
X08166Y08074*
X08166Y08075*
X08167Y08075*
X08168Y08076*
X08168Y08076*
X08169Y08077*
X08169Y08077*
X0817Y08078*
X0817Y08079*
X0817Y0808*
X08171Y0808*
X08171Y08081*
X08171Y08082*
X08171Y08083*
X08171Y08084*
X08172Y08085*
G54D50*
X04573Y09029D02*
D01*
X04573Y09028*
X04573Y09027*
X04573Y09026*
X04573Y09025*
X04573Y09024*
X04574Y09024*
X04574Y09023*
X04574Y09022*
X04575Y09021*
X04575Y09021*
X04576Y0902*
X04576Y0902*
X04577Y09019*
X04578Y09019*
X04579Y09018*
X04579Y09018*
X0458Y09017*
X04581Y09017*
X04582Y09017*
X04582Y09017*
X04583Y09017*
X04584Y09017*
X04585*
X04586Y09017*
X04587Y09017*
X04587Y09017*
X04588Y09017*
X04589Y09017*
X0459Y09018*
X04591Y09018*
X04591Y09019*
X04592Y09019*
X04593Y0902*
X04593Y0902*
X04594Y09021*
X04594Y09021*
X04595Y09022*
X04595Y09023*
X04595Y09024*
X04596Y09024*
X04596Y09025*
X04596Y09026*
X04596Y09027*
X04596Y09028*
X04597Y09029*
X10649Y07899D02*
D01*
X10649Y07898*
X10649Y07897*
X10649Y07896*
X10649Y07895*
X10649Y07894*
X1065Y07894*
X1065Y07893*
X1065Y07892*
X10651Y07891*
X10651Y07891*
X10652Y0789*
X10652Y0789*
X10653Y07889*
X10654Y07889*
X10655Y07888*
X10655Y07888*
X10656Y07887*
X10657Y07887*
X10658Y07887*
X10658Y07887*
X10659Y07887*
X1066Y07887*
X10661*
X10662Y07887*
X10663Y07887*
X10663Y07887*
X10664Y07887*
X10665Y07887*
X10666Y07888*
X10667Y07888*
X10667Y07889*
X10668Y07889*
X10669Y0789*
X10669Y0789*
X1067Y07891*
X1067Y07891*
X10671Y07892*
X10671Y07893*
X10671Y07894*
X10672Y07894*
X10672Y07895*
X10672Y07896*
X10672Y07897*
X10672Y07898*
X10673Y07899*
X10656Y08244D02*
D01*
X10656Y08243*
X10656Y08242*
X10656Y08241*
X10656Y0824*
X10656Y08239*
X10657Y08239*
X10657Y08238*
X10657Y08237*
X10658Y08236*
X10658Y08236*
X10659Y08235*
X10659Y08235*
X1066Y08234*
X10661Y08234*
X10662Y08233*
X10662Y08233*
X10663Y08232*
X10664Y08232*
X10665Y08232*
X10665Y08232*
X10666Y08232*
X10667Y08232*
X10668*
X10669Y08232*
X1067Y08232*
X1067Y08232*
X10671Y08232*
X10672Y08232*
X10673Y08233*
X10674Y08233*
X10674Y08234*
X10675Y08234*
X10676Y08235*
X10676Y08235*
X10677Y08236*
X10677Y08236*
X10678Y08237*
X10678Y08238*
X10678Y08239*
X10679Y08239*
X10679Y0824*
X10679Y08241*
X10679Y08242*
X10679Y08243*
X1068Y08244*
X10648Y0755D02*
D01*
X10648Y07549*
X10648Y07548*
X10648Y07547*
X10648Y07546*
X10648Y07545*
X10649Y07545*
X10649Y07544*
X10649Y07543*
X1065Y07542*
X1065Y07542*
X10651Y07541*
X10651Y07541*
X10652Y0754*
X10653Y0754*
X10654Y07539*
X10654Y07539*
X10655Y07538*
X10656Y07538*
X10657Y07538*
X10657Y07538*
X10658Y07538*
X10659Y07538*
X1066*
X10661Y07538*
X10662Y07538*
X10662Y07538*
X10663Y07538*
X10664Y07538*
X10665Y07539*
X10666Y07539*
X10666Y0754*
X10667Y0754*
X10668Y07541*
X10668Y07541*
X10669Y07542*
X10669Y07542*
X1067Y07543*
X1067Y07544*
X1067Y07545*
X10671Y07545*
X10671Y07546*
X10671Y07547*
X10671Y07548*
X10671Y07549*
X10672Y0755*
X10645Y07219D02*
D01*
X10645Y07218*
X10645Y07217*
X10645Y07216*
X10645Y07215*
X10645Y07214*
X10646Y07214*
X10646Y07213*
X10646Y07212*
X10647Y07211*
X10647Y07211*
X10648Y0721*
X10648Y0721*
X10649Y07209*
X1065Y07209*
X10651Y07208*
X10651Y07208*
X10652Y07207*
X10653Y07207*
X10654Y07207*
X10654Y07207*
X10655Y07207*
X10656Y07207*
X10657*
X10658Y07207*
X10659Y07207*
X10659Y07207*
X1066Y07207*
X10661Y07207*
X10662Y07208*
X10663Y07208*
X10663Y07209*
X10664Y07209*
X10665Y0721*
X10665Y0721*
X10666Y07211*
X10666Y07211*
X10667Y07212*
X10667Y07213*
X10667Y07214*
X10668Y07214*
X10668Y07215*
X10668Y07216*
X10668Y07217*
X10668Y07218*
X10669Y07219*
X10643Y0656D02*
D01*
X10643Y06559*
X10643Y06558*
X10643Y06557*
X10643Y06556*
X10643Y06555*
X10644Y06555*
X10644Y06554*
X10644Y06553*
X10645Y06552*
X10645Y06552*
X10646Y06551*
X10646Y06551*
X10647Y0655*
X10648Y0655*
X10649Y06549*
X10649Y06549*
X1065Y06548*
X10651Y06548*
X10652Y06548*
X10652Y06548*
X10653Y06548*
X10654Y06548*
X10655*
X10656Y06548*
X10657Y06548*
X10657Y06548*
X10658Y06548*
X10659Y06548*
X1066Y06549*
X10661Y06549*
X10661Y0655*
X10662Y0655*
X10663Y06551*
X10663Y06551*
X10664Y06552*
X10664Y06552*
X10665Y06553*
X10665Y06554*
X10665Y06555*
X10666Y06555*
X10666Y06556*
X10666Y06557*
X10666Y06558*
X10666Y06559*
X10667Y0656*
X10643Y06886D02*
D01*
X10643Y06885*
X10643Y06884*
X10643Y06883*
X10643Y06882*
X10643Y06881*
X10644Y06881*
X10644Y0688*
X10644Y06879*
X10645Y06878*
X10645Y06878*
X10646Y06877*
X10646Y06877*
X10647Y06876*
X10648Y06876*
X10649Y06875*
X10649Y06875*
X1065Y06874*
X10651Y06874*
X10652Y06874*
X10652Y06874*
X10653Y06874*
X10654Y06874*
X10655*
X10656Y06874*
X10657Y06874*
X10657Y06874*
X10658Y06874*
X10659Y06874*
X1066Y06875*
X10661Y06875*
X10661Y06876*
X10662Y06876*
X10663Y06877*
X10663Y06877*
X10664Y06878*
X10664Y06878*
X10665Y06879*
X10665Y0688*
X10665Y06881*
X10666Y06881*
X10666Y06882*
X10666Y06883*
X10666Y06884*
X10666Y06885*
X10667Y06886*
X08086Y07889D02*
X08234D01*
X08172Y08085D02*
X08234D01*
X08148D02*
X08172D01*
X08086D02*
X08148D01*
X04528Y09029D02*
X04573D01*
X04597*
X04642*
X04528Y08905D02*
X04642D01*
X10585Y07639D02*
X10737D01*
X10673Y07899D02*
X10737D01*
X10649D02*
X10673D01*
X10585D02*
X10649D01*
X0403Y07952D02*
X0418D01*
X04205Y07877D02*
Y07927D01*
X04005D02*
X0403Y07952D01*
X04005Y07877D02*
Y07927D01*
Y07877D02*
X0403Y07852D01*
X0418Y07952D02*
X04205Y07927D01*
X0418Y07852D02*
X04205Y07877D01*
X0403Y07852D02*
X0418D01*
X0403Y07752D02*
X0418D01*
X04205Y07777*
X0418Y07852D02*
X04205Y07827D01*
X04005Y07777D02*
X0403Y07752D01*
X04005Y07777D02*
Y07827D01*
X0403Y07852*
X04205Y07777D02*
Y07827D01*
X0403Y07852D02*
X0418D01*
X0403Y07752D02*
X0418D01*
X04205Y07677D02*
Y07727D01*
X04005D02*
X0403Y07752D01*
X04005Y07677D02*
Y07727D01*
Y07677D02*
X0403Y07652D01*
X0418Y07752D02*
X04205Y07727D01*
X0418Y07652D02*
X04205Y07677D01*
Y07477D02*
Y07527D01*
Y07577D02*
Y07627D01*
X0403Y07652D02*
X0418D01*
X0403Y07552D02*
X0418D01*
X04005Y07627D02*
X0403Y07652D01*
X04005Y07577D02*
Y07627D01*
Y07577D02*
X0403Y07552D01*
X04005Y07527D02*
X0403Y07552D01*
X04005Y07477D02*
Y07527D01*
Y07477D02*
X0403Y07452D01*
X0418*
Y07652D02*
X04205Y07627D01*
X0418Y07552D02*
X04205Y07577D01*
X0418Y07552D02*
X04205Y07527D01*
X0418Y07452D02*
X04205Y07477D01*
X10592Y07984D02*
X10744D01*
X1068Y08244D02*
X10744D01*
X10656D02*
X1068D01*
X10592D02*
X10656D01*
X10586Y0735D02*
X10734D01*
X10672Y0755D02*
X10734D01*
X10648D02*
X10672D01*
X10586D02*
X10648D01*
X10583Y07019D02*
X10731D01*
X10669Y07219D02*
X10731D01*
X10645D02*
X10669D01*
X10583D02*
X10645D01*
X10581Y0636D02*
X10729D01*
X10667Y0656D02*
X10729D01*
X10643D02*
X10667D01*
X10581D02*
X10643D01*
X10581Y06686D02*
X10729D01*
X10667Y06886D02*
X10729D01*
X10643D02*
X10667D01*
X10581D02*
X10643D01*
G54D51*
X07727Y08136D02*
D01*
X07727Y08136*
X07727Y08136*
X07727Y08137*
X07727Y08137*
X07726Y08137*
X07726Y08138*
X07726Y08138*
X07726Y08138*
X07726Y08139*
X07726Y08139*
X07725Y08139*
X07725Y08139*
X07725Y0814*
X07725Y0814*
X07724Y0814*
X07724Y0814*
X07724Y0814*
X07723Y0814*
X07723Y08141*
X07723Y08141*
X07722Y08141*
X07722Y08141*
X07722*
X07721Y08141*
X07721Y08141*
X07721Y08141*
X0772Y0814*
X0772Y0814*
X0772Y0814*
X07719Y0814*
X07719Y0814*
X07719Y0814*
X07719Y08139*
X07718Y08139*
X07718Y08139*
X07718Y08139*
X07718Y08138*
X07718Y08138*
X07717Y08138*
X07717Y08137*
X07717Y08137*
X07717Y08137*
X07717Y08136*
X07717Y08136*
X07717Y08136*
X07717Y08135*
X07717Y08135*
X07717Y08135*
X07717Y08134*
X07717Y08134*
X07717Y08134*
X07718Y08133*
X07718Y08133*
X07718Y08133*
X07718Y08133*
X07718Y08132*
X07719Y08132*
X07719Y08132*
X07719Y08132*
X07719Y08132*
X0772Y08131*
X0772Y08131*
X0772Y08131*
X07721Y08131*
X07721Y08131*
X07721Y08131*
X07722Y08131*
X07722*
X07722Y08131*
X07723Y08131*
X07723Y08131*
X07723Y08131*
X07724Y08131*
X07724Y08131*
X07724Y08132*
X07725Y08132*
X07725Y08132*
X07725Y08132*
X07725Y08132*
X07726Y08133*
X07726Y08133*
X07726Y08133*
X07726Y08133*
X07726Y08134*
X07726Y08134*
X07727Y08134*
X07727Y08135*
X07727Y08135*
X07727Y08135*
X07727Y08136*
X05457Y09043D02*
D01*
X05457Y09044*
X05457Y09044*
X05457Y09044*
X05457Y09045*
X05457Y09045*
X05457Y09045*
X05457Y09046*
X05456Y09046*
X05456Y09046*
X05456Y09046*
X05456Y09047*
X05456Y09047*
X05455Y09047*
X05455Y09047*
X05455Y09048*
X05454Y09048*
X05454Y09048*
X05454Y09048*
X05453Y09048*
X05453Y09048*
X05453Y09048*
X05452Y09048*
X05452*
X05452Y09048*
X05451Y09048*
X05451Y09048*
X05451Y09048*
X0545Y09048*
X0545Y09048*
X0545Y09048*
X0545Y09047*
X05449Y09047*
X05449Y09047*
X05449Y09047*
X05448Y09046*
X05448Y09046*
X05448Y09046*
X05448Y09046*
X05448Y09045*
X05448Y09045*
X05448Y09045*
X05447Y09044*
X05447Y09044*
X05447Y09044*
X05447Y09043*
X05447Y09043*
X05447Y09043*
X05447Y09042*
X05448Y09042*
X05448Y09042*
X05448Y09041*
X05448Y09041*
X05448Y09041*
X05448Y0904*
X05448Y0904*
X05449Y0904*
X05449Y0904*
X05449Y09039*
X0545Y09039*
X0545Y09039*
X0545Y09039*
X0545Y09039*
X05451Y09039*
X05451Y09039*
X05451Y09038*
X05452Y09038*
X05452Y09038*
X05452*
X05453Y09038*
X05453Y09038*
X05453Y09039*
X05454Y09039*
X05454Y09039*
X05454Y09039*
X05455Y09039*
X05455Y09039*
X05455Y09039*
X05456Y0904*
X05456Y0904*
X05456Y0904*
X05456Y0904*
X05456Y09041*
X05457Y09041*
X05457Y09041*
X05457Y09042*
X05457Y09042*
X05457Y09042*
X05457Y09043*
X05457Y09043*
X05457Y09043*
G54D52*
X07645Y08202D02*
D01*
X07645Y08203*
X07645Y08203*
X07645Y08204*
X07645Y08205*
X07644Y08206*
X07644Y08207*
X07644Y08207*
X07643Y08208*
X07643Y08209*
X07642Y08209*
X07642Y0821*
X07641Y08211*
X07641Y08211*
X0764Y08212*
X07639Y08212*
X07638Y08212*
X07638Y08213*
X07637Y08213*
X07636Y08213*
X07635Y08213*
X07635Y08213*
X07634Y08214*
X07633*
X07632Y08213*
X07631Y08213*
X0763Y08213*
X0763Y08213*
X07629Y08213*
X07628Y08212*
X07627Y08212*
X07627Y08212*
X07626Y08211*
X07625Y08211*
X07625Y0821*
X07624Y08209*
X07624Y08209*
X07623Y08208*
X07623Y08207*
X07622Y08207*
X07622Y08206*
X07622Y08205*
X07622Y08204*
X07622Y08203*
X07621Y08203*
X07621Y08202*
X07621Y08201*
X07622Y082*
X07622Y08199*
X07622Y08198*
X07622Y08198*
X07622Y08197*
X07623Y08196*
X07623Y08195*
X07624Y08195*
X07624Y08194*
X07625Y08194*
X07625Y08193*
X07626Y08192*
X07627Y08192*
X07627Y08191*
X07628Y08191*
X07629Y08191*
X0763Y0819*
X0763Y0819*
X07631Y0819*
X07632Y0819*
X07633Y0819*
X07634*
X07635Y0819*
X07635Y0819*
X07636Y0819*
X07637Y0819*
X07638Y08191*
X07638Y08191*
X07639Y08191*
X0764Y08192*
X07641Y08192*
X07641Y08193*
X07642Y08194*
X07642Y08194*
X07643Y08195*
X07643Y08195*
X07644Y08196*
X07644Y08197*
X07644Y08198*
X07645Y08198*
X07645Y08199*
X07645Y082*
X07645Y08201*
X07645Y08202*
X05555Y08986D02*
D01*
X05555Y08987*
X05555Y08988*
X05554Y08989*
X05554Y08989*
X05554Y0899*
X05554Y08991*
X05553Y08992*
X05553Y08992*
X05552Y08993*
X05552Y08994*
X05551Y08994*
X05551Y08995*
X0555Y08996*
X05549Y08996*
X05549Y08996*
X05548Y08997*
X05547Y08997*
X05546Y08997*
X05546Y08998*
X05545Y08998*
X05544Y08998*
X05543Y08998*
X05542*
X05542Y08998*
X05541Y08998*
X0554Y08998*
X05539Y08997*
X05538Y08997*
X05538Y08997*
X05537Y08996*
X05536Y08996*
X05536Y08996*
X05535Y08995*
X05534Y08994*
X05534Y08994*
X05533Y08993*
X05533Y08992*
X05532Y08992*
X05532Y08991*
X05532Y0899*
X05531Y08989*
X05531Y08989*
X05531Y08988*
X05531Y08987*
X05531Y08986*
X05531Y08985*
X05531Y08985*
X05531Y08984*
X05531Y08983*
X05532Y08982*
X05532Y08981*
X05532Y08981*
X05533Y0898*
X05533Y08979*
X05534Y08979*
X05534Y08978*
X05535Y08977*
X05536Y08977*
X05536Y08976*
X05537Y08976*
X05538Y08976*
X05538Y08975*
X05539Y08975*
X0554Y08975*
X05541Y08975*
X05542Y08974*
X05542Y08974*
X05543*
X05544Y08974*
X05545Y08975*
X05546Y08975*
X05546Y08975*
X05547Y08975*
X05548Y08976*
X05549Y08976*
X05549Y08976*
X0555Y08977*
X05551Y08977*
X05551Y08978*
X05552Y08979*
X05552Y08979*
X05553Y0898*
X05553Y08981*
X05554Y08981*
X05554Y08982*
X05554Y08983*
X05554Y08984*
X05555Y08985*
X05555Y08985*
X05555Y08986*
G54D53*
X03836Y08629D02*
D01*
X03832Y08628*
X03828Y08628*
X03824Y08627*
X0382Y08626*
X03816Y08625*
X03812Y08624*
X03809Y08622*
X03805Y0862*
X03802Y08618*
X03799Y08615*
X03796Y08613*
X03793Y0861*
X03791Y08607*
X03788Y08603*
X03786Y086*
X03784Y08597*
X03783Y08593*
X03781Y08589*
X0378Y08585*
X03779Y08581*
X03779Y08577*
X03778Y08573*
Y0857*
X03779Y08566*
X03779Y08562*
X0378Y08558*
X03781Y08554*
X03783Y0855*
X03784Y08546*
X03786Y08543*
X03788Y0854*
X03791Y08536*
X03793Y08533*
X03796Y0853*
X03799Y08528*
X03802Y08525*
X03805Y08523*
X03809Y08521*
X03812Y08519*
X03816Y08518*
X0382Y08517*
X03824Y08516*
X03828Y08515*
X03832Y08515*
X03836Y08514*
Y09379D02*
D01*
X03832Y09378*
X03828Y09378*
X03824Y09377*
X0382Y09376*
X03816Y09375*
X03812Y09374*
X03809Y09372*
X03805Y0937*
X03802Y09368*
X03799Y09365*
X03796Y09363*
X03793Y0936*
X03791Y09357*
X03788Y09353*
X03786Y0935*
X03784Y09347*
X03783Y09343*
X03781Y09339*
X0378Y09335*
X03779Y09331*
X03779Y09327*
X03778Y09323*
Y0932*
X03779Y09316*
X03779Y09312*
X0378Y09308*
X03781Y09304*
X03783Y093*
X03784Y09296*
X03786Y09293*
X03788Y0929*
X03791Y09286*
X03793Y09283*
X03796Y0928*
X03799Y09278*
X03802Y09275*
X03805Y09273*
X03809Y09271*
X03812Y09269*
X03816Y09268*
X0382Y09267*
X03824Y09266*
X03828Y09265*
X03832Y09265*
X03836Y09264*
Y06894D02*
D01*
X03832Y06893*
X03828Y06893*
X03824Y06892*
X0382Y06891*
X03816Y0689*
X03812Y06889*
X03809Y06887*
X03805Y06885*
X03802Y06883*
X03799Y0688*
X03796Y06878*
X03793Y06875*
X03791Y06872*
X03788Y06868*
X03786Y06865*
X03784Y06862*
X03783Y06858*
X03781Y06854*
X0378Y0685*
X03779Y06846*
X03779Y06842*
X03778Y06838*
Y06835*
X03779Y06831*
X03779Y06827*
X0378Y06823*
X03781Y06819*
X03783Y06815*
X03784Y06811*
X03786Y06808*
X03788Y06805*
X03791Y06801*
X03793Y06798*
X03796Y06795*
X03799Y06793*
X03802Y0679*
X03805Y06788*
X03809Y06786*
X03812Y06784*
X03816Y06783*
X0382Y06782*
X03824Y06781*
X03828Y0678*
X03832Y0678*
X03836Y06779*
Y06644D02*
D01*
X03832Y06643*
X03828Y06643*
X03824Y06642*
X0382Y06641*
X03816Y0664*
X03812Y06639*
X03809Y06637*
X03805Y06635*
X03802Y06633*
X03799Y0663*
X03796Y06628*
X03793Y06625*
X03791Y06622*
X03788Y06618*
X03786Y06615*
X03784Y06612*
X03783Y06608*
X03781Y06604*
X0378Y066*
X03779Y06596*
X03779Y06592*
X03778Y06588*
Y06585*
X03779Y06581*
X03779Y06577*
X0378Y06573*
X03781Y06569*
X03783Y06565*
X03784Y06561*
X03786Y06558*
X03788Y06555*
X03791Y06551*
X03793Y06548*
X03796Y06545*
X03799Y06543*
X03802Y0654*
X03805Y06538*
X03809Y06536*
X03812Y06534*
X03816Y06533*
X0382Y06532*
X03824Y06531*
X03828Y0653*
X03832Y0653*
X03836Y06529*
Y08379D02*
D01*
X03832Y08378*
X03828Y08378*
X03824Y08377*
X0382Y08376*
X03816Y08375*
X03812Y08374*
X03809Y08372*
X03805Y0837*
X03802Y08368*
X03799Y08365*
X03796Y08363*
X03793Y0836*
X03791Y08357*
X03788Y08353*
X03786Y0835*
X03784Y08347*
X03783Y08343*
X03781Y08339*
X0378Y08335*
X03779Y08331*
X03779Y08327*
X03778Y08323*
Y0832*
X03779Y08316*
X03779Y08312*
X0378Y08308*
X03781Y08304*
X03783Y083*
X03784Y08296*
X03786Y08293*
X03788Y0829*
X03791Y08286*
X03793Y08283*
X03796Y0828*
X03799Y08278*
X03802Y08275*
X03805Y08273*
X03809Y08271*
X03812Y08269*
X03816Y08268*
X0382Y08267*
X03824Y08266*
X03828Y08265*
X03832Y08265*
X03836Y08264*
Y09129D02*
D01*
X03832Y09128*
X03828Y09128*
X03824Y09127*
X0382Y09126*
X03816Y09125*
X03812Y09124*
X03809Y09122*
X03805Y0912*
X03802Y09118*
X03799Y09115*
X03796Y09113*
X03793Y0911*
X03791Y09107*
X03788Y09103*
X03786Y091*
X03784Y09097*
X03783Y09093*
X03781Y09089*
X0378Y09085*
X03779Y09081*
X03779Y09077*
X03778Y09073*
Y0907*
X03779Y09066*
X03779Y09062*
X0378Y09058*
X03781Y09054*
X03783Y0905*
X03784Y09046*
X03786Y09043*
X03788Y0904*
X03791Y09036*
X03793Y09033*
X03796Y0903*
X03799Y09028*
X03802Y09025*
X03805Y09023*
X03809Y09021*
X03812Y09019*
X03816Y09018*
X0382Y09017*
X03824Y09016*
X03828Y09015*
X03832Y09015*
X03836Y09014*
Y08879D02*
D01*
X03832Y08878*
X03828Y08878*
X03824Y08877*
X0382Y08876*
X03816Y08875*
X03812Y08874*
X03809Y08872*
X03805Y0887*
X03802Y08868*
X03799Y08865*
X03796Y08863*
X03793Y0886*
X03791Y08857*
X03788Y08853*
X03786Y0885*
X03784Y08847*
X03783Y08843*
X03781Y08839*
X0378Y08835*
X03779Y08831*
X03779Y08827*
X03778Y08823*
Y0882*
X03779Y08816*
X03779Y08812*
X0378Y08808*
X03781Y08804*
X03783Y088*
X03784Y08796*
X03786Y08793*
X03788Y0879*
X03791Y08786*
X03793Y08783*
X03796Y0878*
X03799Y08778*
X03802Y08775*
X03805Y08773*
X03809Y08771*
X03812Y08769*
X03816Y08768*
X0382Y08767*
X03824Y08766*
X03828Y08765*
X03832Y08765*
X03836Y08764*
X04266Y08452D02*
Y08692D01*
X03886Y08452D02*
X04266D01*
X03886D02*
Y08692D01*
X04266*
X03839Y08514D02*
X03882D01*
X03839Y08629D02*
X03882D01*
X04266Y09202D02*
Y09442D01*
X03886Y09202D02*
X04266D01*
X03886D02*
Y09442D01*
X04266*
X03839Y09264D02*
X03882D01*
X03839Y09379D02*
X03882D01*
X04266Y06717D02*
Y06957D01*
X03886Y06717D02*
X04266D01*
X03886D02*
Y06957D01*
X04266*
X03839Y06779D02*
X03882D01*
X03839Y06894D02*
X03882D01*
X04266Y06467D02*
Y06707D01*
X03886Y06467D02*
X04266D01*
X03886D02*
Y06707D01*
X04266*
X03839Y06529D02*
X03882D01*
X03839Y06644D02*
X03882D01*
X03839Y08379D02*
X03882D01*
X03839Y08264D02*
X03882D01*
X03886Y08442D02*
X04266D01*
X03886Y08202D02*
Y08442D01*
Y08202D02*
X04266D01*
Y08442*
X03839Y09129D02*
X03882D01*
X03839Y09014D02*
X03882D01*
X03886Y09192D02*
X04266D01*
X03886Y08952D02*
Y09192D01*
Y08952D02*
X04266D01*
Y09192*
Y08702D02*
Y08942D01*
X03886Y08702D02*
X04266D01*
X03886D02*
Y08942D01*
X04266*
X03839Y08764D02*
X03882D01*
X03839Y08879D02*
X03882D01*
G54D54*
X06814Y09197D02*
D01*
X06822Y09199*
X0683Y09203*
X06838Y09207*
X06845Y09211*
X06852Y09216*
X06858Y09222*
X06865Y09228*
X0687Y09234*
X06876Y09241*
X0688Y09248*
X06885Y09255*
X06888Y09263*
X06892Y09271*
X06894Y09279*
X06896Y09287*
X06898Y09295*
X06899Y09304*
X06899Y09312*
X06899Y09321*
X06898Y09329*
X06896Y09338*
X06894Y09346*
X06892Y09354*
X06889Y09362*
X06885Y0937*
X06881Y09377*
X06876Y09384*
X06871Y09391*
X06865Y09397*
X06859Y09403*
X06852Y09409*
X06846Y09414*
X06838Y09418*
X06831Y09422*
X06823Y09426*
X06815Y09429*
X06814Y09429*
X0674D02*
D01*
X06732Y09426*
X06724Y09423*
X06716Y09419*
X06709Y09414*
X06702Y09409*
X06696Y09404*
X06689Y09398*
X06684Y09391*
X06679Y09385*
X06674Y09378*
X06669Y0937*
X06666Y09363*
X06662Y09355*
X0666Y09347*
X06658Y09338*
X06656Y0933*
X06655Y09322*
X06655Y09313*
X06655Y09305*
X06656Y09296*
X06658Y09288*
X0666Y09279*
X06662Y09271*
X06665Y09263*
X06669Y09256*
X06673Y09248*
X06678Y09241*
X06683Y09235*
X06689Y09228*
X06695Y09222*
X06702Y09217*
X06709Y09212*
X06716Y09207*
X06723Y09203*
X06731Y092*
X06739Y09197*
X0674Y09197*
X07094D02*
D01*
X07102Y09199*
X0711Y09203*
X07118Y09207*
X07125Y09211*
X07132Y09216*
X07138Y09222*
X07145Y09228*
X0715Y09234*
X07156Y09241*
X0716Y09248*
X07165Y09255*
X07168Y09263*
X07172Y09271*
X07174Y09279*
X07176Y09287*
X07178Y09295*
X07179Y09304*
X07179Y09312*
X07179Y09321*
X07178Y09329*
X07176Y09338*
X07174Y09346*
X07172Y09354*
X07169Y09362*
X07165Y0937*
X07161Y09377*
X07156Y09384*
X07151Y09391*
X07145Y09397*
X07139Y09403*
X07132Y09409*
X07126Y09414*
X07118Y09418*
X07111Y09422*
X07103Y09426*
X07095Y09429*
X07094Y09429*
X0702D02*
D01*
X07012Y09426*
X07004Y09423*
X06996Y09419*
X06989Y09414*
X06982Y09409*
X06976Y09404*
X06969Y09398*
X06964Y09391*
X06959Y09385*
X06954Y09378*
X06949Y0937*
X06946Y09363*
X06942Y09355*
X0694Y09347*
X06938Y09338*
X06936Y0933*
X06935Y09322*
X06935Y09313*
X06935Y09305*
X06936Y09296*
X06938Y09288*
X0694Y09279*
X06942Y09271*
X06945Y09263*
X06949Y09256*
X06953Y09248*
X06958Y09241*
X06963Y09235*
X06969Y09228*
X06975Y09222*
X06982Y09217*
X06989Y09212*
X06996Y09207*
X07003Y09203*
X07011Y092*
X07019Y09197*
X0702Y09197*
X06814Y09441D02*
X06905D01*
Y09252D02*
Y09441D01*
X06838Y09185D02*
X06905Y09252D01*
X06814Y09185D02*
X06838D01*
X06716D02*
X0674D01*
X06649Y09252D02*
X06716Y09185D01*
X06649Y09252D02*
Y09441D01*
X0674*
X07094D02*
X07185D01*
Y09252D02*
Y09441D01*
X07118Y09185D02*
X07185Y09252D01*
X07094Y09185D02*
X07118D01*
X06996D02*
X0702D01*
X06929Y09252D02*
X06996Y09185D01*
X06929Y09252D02*
Y09441D01*
X0702*
G54D55*
X07923Y07833D02*
Y07848D01*
X0795Y07833D02*
Y07848D01*
X07924Y07955D02*
Y0797D01*
X07951Y07955D02*
Y0797D01*
X07524Y07873D02*
X07539D01*
X07524Y079D02*
X07539D01*
X07673Y08162D02*
Y08395D01*
X0744Y08162D02*
Y08395D01*
Y08162D02*
X07673D01*
X0744Y08395D02*
X07673D01*
X04361Y06656D02*
X04376D01*
X04361Y06629D02*
X04376D01*
X04348Y06895D02*
X04363D01*
X04348Y06868D02*
X04363D01*
X04306Y09003D02*
X04321D01*
X04306Y0903D02*
X04321D01*
X04302Y08763D02*
X04317D01*
X04302Y0879D02*
X04317D01*
X04326Y08596D02*
X04341D01*
X04326Y08623D02*
X04341D01*
X04319Y08359D02*
X04334D01*
X04319Y08386D02*
X04334D01*
X0555Y08369D02*
Y08384D01*
X05577Y08369D02*
Y08384D01*
X12009Y08815D02*
Y0883D01*
X11982Y08815D02*
Y0883D01*
X12009Y08926D02*
Y08941D01*
X11982Y08926D02*
Y08941D01*
X04333Y09377D02*
X04348D01*
X04333Y0935D02*
X04348D01*
X12113Y09149D02*
X12128D01*
X12113Y09122D02*
X12128D01*
X12099Y09058D02*
Y09073D01*
X12072Y09058D02*
Y09073D01*
X05656Y0825D02*
X05671D01*
X05656Y08223D02*
X05671D01*
X07703Y09479D02*
X07802D01*
X07703D02*
Y09794D01*
X079*
Y09479D02*
Y09794D01*
X07802Y09479D02*
X079D01*
X08257Y09444D02*
Y09543D01*
X07964Y09444D02*
X08257D01*
X07964D02*
Y09641D01*
X08257*
Y09543D02*
Y09641D01*
X07607Y07998D02*
Y08013D01*
X07634Y07998D02*
Y08013D01*
X07786Y08189D02*
Y08204D01*
X07813Y08189D02*
Y08204D01*
X07819Y08257D02*
X07834D01*
X07819Y08284D02*
X07834D01*
X07865Y08235D02*
X0788D01*
X07865Y08208D02*
X0788D01*
X0794Y08354D02*
X07955D01*
X0794Y08381D02*
X07955D01*
X07819Y08413D02*
X07834D01*
X07819Y0844D02*
X07834D01*
X05503Y08533D02*
Y09026D01*
X05996Y08533D02*
Y09026D01*
X05503D02*
X05996D01*
X05503Y08533D02*
X05996D01*
G54D56*
X05599Y08121D02*
Y08185D01*
X05725Y08121D02*
Y08185D01*
G54D57*
X07414Y08982D02*
X07672D01*
Y09122*
X07414D02*
X07672D01*
X07414Y08982D02*
Y09122D01*
G54D58*
X08052Y08145D02*
Y08119D01*
X08057Y08114*
X08067*
X08072Y08119*
Y08145*
X08083Y08114D02*
X08093D01*
X08088*
Y08145*
X08083Y0814*
X08109D02*
X08114Y08145D01*
X08125*
X0813Y0814*
Y08119*
X08125Y08114*
X08114*
X08109Y08119*
Y0814*
X0782Y07826D02*
Y07857D01*
X07835*
X0784Y07852*
Y07841*
X07835Y07836*
X0782*
X0783D02*
X0784Y07826D01*
X07851D02*
X07861D01*
X07856*
Y07857*
X07851Y07852*
X07877Y07857D02*
X07898D01*
Y07852*
X07877Y07831*
Y07826*
X0782Y07949D02*
Y0798D01*
X07835*
X0784Y07975*
Y07964*
X07835Y07959*
X0782*
X0783D02*
X0784Y07949D01*
X07851D02*
X07861D01*
X07856*
Y0798*
X07851Y07975*
X07898Y0798D02*
X07888Y07975D01*
X07877Y07964*
Y07954*
X07882Y07949*
X07893*
X07898Y07954*
Y07959*
X07893Y07964*
X07877*
X08416Y08044D02*
X08411Y08049D01*
X08401*
X08396Y08044*
Y08023*
X08401Y08018*
X08411*
X08416Y08023*
X08427Y08018D02*
X08437D01*
X08432*
Y08049*
X08427Y08044*
X08469Y08018D02*
Y08049D01*
X08453Y08033*
X08474*
X07384Y07813D02*
Y07808D01*
X07394Y07797*
X07404Y07808*
Y07813*
X07394Y07797D02*
Y07782D01*
X07436D02*
X07415D01*
X07436Y07802*
Y07808*
X07431Y07813*
X0742*
X07415Y07808*
X07391Y07874D02*
Y07905D01*
X07406*
X07411Y079*
Y07889*
X07406Y07884*
X07391*
X07401D02*
X07411Y07874D01*
X07422D02*
X07432D01*
X07427*
Y07905*
X07422Y079*
X07469Y07905D02*
X07448D01*
Y07889*
X07459Y07894*
X07464*
X07469Y07889*
Y07879*
X07464Y07874*
X07453*
X07448Y07879*
X04549Y09088D02*
Y09062D01*
X04554Y09057*
X04564*
X04569Y09062*
Y09088*
X0458Y09062D02*
X04585Y09057D01*
X04596*
X04601Y09062*
Y09083*
X04596Y09088*
X04585*
X0458Y09083*
Y09077*
X04585Y09072*
X04601*
X07355Y08544D02*
Y08518D01*
X0736Y08513*
X0737*
X07375Y08518*
Y08544*
X07386Y08513D02*
X07396D01*
X07391*
Y08544*
X07386Y08539*
X10521Y07959D02*
Y07933D01*
X10526Y07928*
X10536*
X10541Y07933*
Y07959*
X10552Y07954D02*
X10557Y07959D01*
X10568*
X10573Y07954*
Y07948*
X10568Y07943*
X10573Y07938*
Y07933*
X10568Y07928*
X10557*
X10552Y07933*
Y07938*
X10557Y07943*
X10552Y07948*
Y07954*
X10557Y07943D02*
X10568D01*
X04023Y07387D02*
Y07418D01*
X04038*
X04043Y07413*
Y07402*
X04038Y07397*
X04023*
X04033D02*
X04043Y07387D01*
X04075Y07418D02*
X04054D01*
Y07387*
X04075*
X04054Y07402D02*
X04064D01*
X04106Y07413D02*
X04101Y07418D01*
X04091*
X04085Y07413*
Y07407*
X04091Y07402*
X04101*
X04106Y07397*
Y07392*
X04101Y07387*
X04091*
X04085Y07392*
X04138Y07418D02*
X04117D01*
Y07387*
X04138*
X04117Y07402D02*
X04127D01*
X04148Y07418D02*
X04169D01*
X04159*
Y07387*
X0418D02*
X0419D01*
X04185*
Y07418*
X0418Y07413*
X04516Y0663D02*
Y06661D01*
X04531*
X04536Y06656*
Y06645*
X04531Y0664*
X04516*
X04526D02*
X04536Y0663D01*
X04547Y06624D02*
X04568D01*
X04578Y06661D02*
Y0663D01*
X04599*
X04631Y06661D02*
X0461D01*
Y0663*
X04631*
X0461Y06645D02*
X0462D01*
X04641Y06661D02*
Y0663D01*
X04657*
X04662Y06635*
Y06656*
X04657Y06661*
X04641*
X04694D02*
X04683Y06656D01*
X04673Y06645*
Y06635*
X04678Y0663*
X04689*
X04694Y06635*
Y0664*
X04689Y06645*
X04673*
X04436Y06895D02*
Y06926D01*
X04451*
X04456Y06921*
Y0691*
X04451Y06905*
X04436*
X04446D02*
X04456Y06895D01*
X04467Y06889D02*
X04488D01*
X04498Y06926D02*
Y06895D01*
X04519*
X04551Y06926D02*
X0453D01*
Y06895*
X04551*
X0453Y0691D02*
X0454D01*
X04561Y06926D02*
Y06895D01*
X04577*
X04582Y069*
Y06921*
X04577Y06926*
X04561*
X04614D02*
X04593D01*
Y0691*
X04603Y06915*
X04609*
X04614Y0691*
Y069*
X04609Y06895*
X04598*
X04593Y069*
X04289Y08513D02*
Y08482D01*
X04304*
X04309Y08487*
Y08508*
X04304Y08513*
X04289*
X0432Y08508D02*
X04325Y08513D01*
X04336*
X04341Y08508*
Y08502*
X04336Y08497*
X0433*
X04336*
X04341Y08492*
Y08487*
X04336Y08482*
X04325*
X0432Y08487*
X07394Y08024D02*
X07389Y08029D01*
X07379*
X07374Y08024*
Y08003*
X07379Y07998*
X07389*
X07394Y08003*
X07421Y07998D02*
Y08029D01*
X07405Y08013*
X07426*
X07511Y09289D02*
X07506Y09294D01*
X07496*
X07491Y09289*
Y09268*
X07496Y09263*
X07506*
X07511Y09268*
X07522Y09263D02*
X07532D01*
X07527*
Y09294*
X07522Y09289*
X0457Y07038D02*
Y07058D01*
X0458Y07069*
X0459Y07058*
Y07038*
Y07053*
X0457*
X04622Y07064D02*
X04617Y07069D01*
X04606*
X04601Y07064*
Y07043*
X04606Y07038*
X04617*
X04622Y07043*
X04653Y07038D02*
X04632D01*
X04653Y07058*
Y07064*
X04648Y07069*
X04638*
X04632Y07064*
X04303Y09461D02*
Y0943D01*
X04323*
X04355Y09461D02*
X04334D01*
Y0943*
X04355*
X04334Y09445D02*
X04344D01*
X04365Y09461D02*
Y0943D01*
X04381*
X04386Y09435*
Y09456*
X04381Y09461*
X04365*
X04397Y0943D02*
X04407D01*
X04402*
Y09461*
X04397Y09456*
X04298Y06777D02*
Y06746D01*
X04313*
X04318Y06751*
Y06772*
X04313Y06777*
X04298*
X0435D02*
X04329D01*
Y06761*
X04339Y06766*
X04345*
X0435Y06761*
Y06751*
X04345Y06746*
X04334*
X04329Y06751*
X04287Y0651D02*
Y06479D01*
X04302*
X04307Y06484*
Y06505*
X04302Y0651*
X04287*
X04339D02*
X04328Y06505D01*
X04318Y06494*
Y06484*
X04323Y06479*
X04334*
X04339Y06484*
Y06489*
X04334Y06494*
X04318*
X0431Y08279D02*
Y08248D01*
X04325*
X0433Y08253*
Y08274*
X04325Y08279*
X0431*
X04357Y08248D02*
Y08279D01*
X04341Y08263*
X04362*
X04299Y08971D02*
Y0894D01*
X04314*
X04319Y08945*
Y08966*
X04314Y08971*
X04299*
X0433Y0894D02*
X0434D01*
X04335*
Y08971*
X0433Y08966*
X04067Y08011D02*
X04077D01*
X04072*
Y0798*
X04067*
X04077*
X04114Y08006D02*
X04108Y08011D01*
X04098*
X04093Y08006*
Y07985*
X04098Y0798*
X04108*
X04114Y07985*
X04145Y08006D02*
X0414Y08011D01*
X04129*
X04124Y08006*
Y08*
X04129Y07995*
X0414*
X04145Y0799*
Y07985*
X0414Y0798*
X04129*
X04124Y07985*
X04156Y0798D02*
Y08011D01*
X04171*
X04177Y08006*
Y07995*
X04171Y0799*
X04156*
X04187Y0798D02*
X04198D01*
X04192*
Y08011*
X04187Y08006*
X04575Y0709D02*
Y0711D01*
X04585Y07121*
X04595Y0711*
Y0709*
Y07105*
X04575*
X04627Y07116D02*
X04622Y07121D01*
X04611*
X04606Y07116*
Y07095*
X04611Y0709*
X04622*
X04627Y07095*
X04637Y0709D02*
X04648D01*
X04643*
Y07121*
X04637Y07116*
X04126Y08772D02*
X04094D01*
Y08756*
X041Y08751*
X04121*
X04126Y08756*
Y08772*
X04094Y0872D02*
Y08741D01*
X04115Y0872*
X04121*
X04126Y08725*
Y08735*
X04121Y08741*
X05529Y08169D02*
Y08164D01*
X05539Y08153*
X05549Y08164*
Y08169*
X05539Y08153D02*
Y08138D01*
X0556D02*
X0557D01*
X05565*
Y08169*
X0556Y08164*
X05494Y09247D02*
X05489Y09252D01*
X05479*
X05474Y09247*
Y09226*
X05479Y09221*
X05489*
X05494Y09226*
X05526Y09252D02*
X05505D01*
Y09236*
X05515Y09241*
X05521*
X05526Y09236*
Y09226*
X05521Y09221*
X0551*
X05505Y09226*
X05311Y09107D02*
X05321D01*
X05316*
Y09076*
X05311*
X05321*
X05358Y09102D02*
X05352Y09107D01*
X05342*
X05337Y09102*
Y09081*
X05342Y09076*
X05352*
X05358Y09081*
X05368Y09102D02*
X05373Y09107D01*
X05384*
X05389Y09102*
Y09096*
X05384Y09091*
X05379*
X05384*
X05389Y09086*
Y09081*
X05384Y09076*
X05373*
X05368Y09081*
X07956Y08338D02*
X07951Y08343D01*
X07941*
X07936Y08338*
Y08317*
X07941Y08312*
X07951*
X07956Y08317*
X07988Y08343D02*
X07977Y08338D01*
X07967Y08327*
Y08317*
X07972Y08312*
X07983*
X07988Y08317*
Y08322*
X07983Y08327*
X07967*
X06757Y09367D02*
X06789D01*
X06773Y09383*
Y09362*
X06789Y09351D02*
Y0933D01*
X06783*
X06762Y09351*
X06757*
X06778Y0932D02*
X06762D01*
X06757Y09315*
Y09299*
X06778*
X07037Y09367D02*
X07069D01*
X07053Y09383*
Y09362*
X07069Y09351D02*
Y0933D01*
X07063*
X07042Y09351*
X07037*
X07058Y0932D02*
X07042D01*
X07037Y09315*
Y09299*
X07058*
X0452Y07354D02*
Y07323D01*
X04535*
X0454Y07328*
Y07349*
X04535Y07354*
X0452*
X04551D02*
X04572D01*
Y07349*
X04551Y07328*
Y07323*
X12064Y06412D02*
X12054D01*
X12059*
Y06386*
X12054Y06381*
X12049*
X12044Y06386*
X12075Y06381D02*
X12085D01*
X1208*
Y06412*
X12075Y06407*
X04288Y09061D02*
Y09092D01*
X04303*
X04308Y09087*
Y09076*
X04303Y09071*
X04288*
X04298D02*
X04308Y09061D01*
X04319Y09055D02*
X0434D01*
X0435Y09092D02*
Y09061D01*
X04371*
X04403Y09092D02*
X04382D01*
Y09061*
X04403*
X04382Y09076D02*
X04392D01*
X04413Y09092D02*
Y09061D01*
X04429*
X04434Y09066*
Y09087*
X04429Y09092*
X04413*
X04445Y09061D02*
X04455D01*
X0445*
Y09092*
X04445Y09087*
X04383Y08772D02*
Y08803D01*
X04398*
X04403Y08798*
Y08787*
X04398Y08782*
X04383*
X04393D02*
X04403Y08772D01*
X04414Y08766D02*
X04435D01*
X04445Y08803D02*
Y08772D01*
X04466*
X04498Y08803D02*
X04477D01*
Y08772*
X04498*
X04477Y08787D02*
X04487D01*
X04508Y08803D02*
Y08772D01*
X04524*
X04529Y08777*
Y08798*
X04524Y08803*
X04508*
X04561Y08772D02*
X0454D01*
X04561Y08792*
Y08798*
X04556Y08803*
X04545*
X0454Y08798*
X04417Y08604D02*
Y08635D01*
X04432*
X04437Y0863*
Y08619*
X04432Y08614*
X04417*
X04427D02*
X04437Y08604D01*
X04448Y08598D02*
X04469D01*
X04479Y08635D02*
Y08604D01*
X045*
X04532Y08635D02*
X04511D01*
Y08604*
X04532*
X04511Y08619D02*
X04521D01*
X04542Y08635D02*
Y08604D01*
X04558*
X04563Y08609*
Y0863*
X04558Y08635*
X04542*
X04574Y0863D02*
X04579Y08635D01*
X0459*
X04595Y0863*
Y08624*
X0459Y08619*
X04584*
X0459*
X04595Y08614*
Y08609*
X0459Y08604*
X04579*
X04574Y08609*
X0441Y08361D02*
Y08392D01*
X04425*
X0443Y08387*
Y08376*
X04425Y08371*
X0441*
X0442D02*
X0443Y08361D01*
X04441Y08355D02*
X04462D01*
X04472Y08392D02*
Y08361D01*
X04493*
X04525Y08392D02*
X04504D01*
Y08361*
X04525*
X04504Y08376D02*
X04514D01*
X04535Y08392D02*
Y08361D01*
X04551*
X04556Y08366*
Y08387*
X04551Y08392*
X04535*
X04583Y08361D02*
Y08392D01*
X04567Y08376*
X04588*
X05375Y08362D02*
Y08393D01*
X0539*
X05395Y08388*
Y08377*
X0539Y08372*
X05375*
X05385D02*
X05395Y08362D01*
X05406Y08356D02*
X05427D01*
X05437Y08351D02*
Y08382D01*
X05453*
X05458Y08377*
Y08367*
X05453Y08362*
X05437*
X05469Y08382D02*
Y08367D01*
X05474Y08362*
X0549*
Y08382*
X055Y08362D02*
X05511D01*
X05506*
Y08393*
X055Y08388*
X1201Y08469D02*
X11978D01*
Y08484*
X11983Y08489*
X11994*
X11999Y08484*
Y08469*
Y08479D02*
X1201Y08489D01*
X11983Y08505D02*
X11989D01*
Y085*
Y0851*
Y08505*
X12004*
X1201Y0851*
X11989Y08526D02*
X1201D01*
X11999*
X11994Y08531*
X11989Y08537*
Y08542*
X1201Y08558D02*
Y08568D01*
Y08563*
X11989*
Y08558*
X1201Y08584D02*
X11989D01*
Y08589*
X11994Y08594*
X1201*
X11994*
X11989Y086*
X11994Y08605*
X1201*
X12015Y08615D02*
Y08636D01*
X11978Y08668D02*
X1201D01*
Y08652*
X12004Y08647*
X11994*
X11989Y08652*
Y08668*
X1201Y08684D02*
Y08694D01*
X12004Y08699*
X11994*
X11989Y08694*
Y08684*
X11994Y08678*
X12004*
X1201Y08684*
X11989Y0871D02*
X12004D01*
X1201Y08715*
X12004Y0872*
X1201Y08726*
X12004Y08731*
X11989*
X1201Y08741D02*
X11989D01*
Y08757*
X11994Y08762*
X1201*
Y08773D02*
Y08783D01*
Y08778*
X11978*
X11983Y08773*
X12009Y09001D02*
X11977D01*
Y09016*
X11982Y09021*
X11993*
X11998Y09016*
Y09001*
Y09011D02*
X12009Y09021D01*
X11982Y09037D02*
X11988D01*
Y09032*
Y09042*
Y09037*
X12003*
X12009Y09042*
X11988Y09058D02*
X12009D01*
X11998*
X11993Y09063*
X11988Y09069*
Y09074*
X12009Y0909D02*
Y091D01*
Y09095*
X11988*
Y0909*
X12009Y09116D02*
X11988D01*
Y09121*
X11993Y09126*
X12009*
X11993*
X11988Y09132*
X11993Y09137*
X12009*
X12014Y09147D02*
Y09168D01*
X11988Y09179D02*
X12003D01*
X12009Y09184*
Y092*
X11988*
X12019Y0921D02*
X11988D01*
Y09226*
X11993Y09231*
X12003*
X12009Y09226*
Y0921*
Y09242D02*
Y09252D01*
Y09247*
X11977*
X11982Y09242*
X10528Y08304D02*
Y08278D01*
X10533Y08273*
X10543*
X10548Y08278*
Y08304*
X1058Y08273D02*
X10559D01*
X1058Y08293*
Y08299*
X10575Y08304*
X10564*
X10559Y08299*
X10484Y07618D02*
Y07592D01*
X10489Y07587*
X10499*
X10504Y07592*
Y07618*
X10515Y07613D02*
X1052Y07618D01*
X10531*
X10536Y07613*
Y07607*
X10531Y07602*
X10525*
X10531*
X10536Y07597*
Y07592*
X10531Y07587*
X1052*
X10515Y07592*
X09661Y09403D02*
Y09434D01*
X09676*
X09681Y09429*
Y09418*
X09676Y09413*
X09661*
X09692Y09403D02*
X09702D01*
X09697*
Y09434*
X09692Y09429*
X04418Y09354D02*
Y09385D01*
X04433*
X04438Y0938*
Y09369*
X04433Y09364*
X04418*
X04428D02*
X04438Y09354D01*
X04449Y0938D02*
X04454Y09385D01*
X04465*
X0447Y0938*
Y09374*
X04465Y09369*
X04459*
X04465*
X0447Y09364*
Y09359*
X04465Y09354*
X04454*
X04449Y09359*
X121Y09174D02*
Y09205D01*
X12115*
X1212Y092*
Y09189*
X12115Y09184*
X121*
X1211D02*
X1212Y09174D01*
X12131D02*
X12141D01*
X12136*
Y09205*
X12131Y092*
X12125Y09055D02*
Y09086D01*
X1214*
X12145Y09081*
Y0907*
X1214Y09065*
X12125*
X12135D02*
X12145Y09055D01*
X12177D02*
X12156D01*
X12177Y09075*
Y09081*
X12172Y09086*
X12161*
X12156Y09081*
X05884Y09244D02*
X05879Y09249D01*
X05869*
X05864Y09244*
Y09223*
X05869Y09218*
X05879*
X05884Y09223*
X05895Y09244D02*
X059Y09249D01*
X05911*
X05916Y09244*
Y09238*
X05911Y09233*
X05905*
X05911*
X05916Y09228*
Y09223*
X05911Y09218*
X059*
X05895Y09223*
X05549Y08219D02*
Y0825D01*
X05564*
X05569Y08245*
Y08234*
X05564Y08229*
X05549*
X05559D02*
X05569Y08219D01*
X05596D02*
Y0825D01*
X0558Y08234*
X05601*
X10953Y08175D02*
X10948Y0818D01*
X10938*
X10933Y08175*
Y08154*
X10938Y08149*
X10948*
X10953Y08154*
X10964Y0818D02*
X10985D01*
Y08175*
X10964Y08154*
Y08149*
X11025Y0786D02*
X1102Y07865D01*
X1101*
X11005Y0786*
Y07839*
X1101Y07834*
X1102*
X11025Y07839*
X11036Y07834D02*
X11046D01*
X11041*
Y07865*
X11036Y0786*
X11083Y07834D02*
X11062D01*
X11083Y07854*
Y0786*
X11078Y07865*
X11067*
X11062Y0786*
X10902Y07667D02*
X10897Y07672D01*
X10887*
X10882Y07667*
Y07646*
X10887Y07641*
X10897*
X10902Y07646*
X10913Y07667D02*
X10918Y07672D01*
X10929*
X10934Y07667*
Y07661*
X10929Y07656*
X10934Y07651*
Y07646*
X10929Y07641*
X10918*
X10913Y07646*
Y07651*
X10918Y07656*
X10913Y07661*
Y07667*
X10918Y07656D02*
X10929D01*
X10892Y07343D02*
X10887Y07348D01*
X10877*
X10872Y07343*
Y07322*
X10877Y07317*
X10887*
X10892Y07322*
X10903Y07317D02*
X10913D01*
X10908*
Y07348*
X10903Y07343*
X10929D02*
X10934Y07348D01*
X10945*
X1095Y07343*
Y07322*
X10945Y07317*
X10934*
X10929Y07322*
Y07343*
X10965Y06587D02*
X1096Y06592D01*
X1095*
X10945Y06587*
Y06566*
X1095Y06561*
X1096*
X10965Y06566*
X10976D02*
X10981Y06561D01*
X10992*
X10997Y06566*
Y06587*
X10992Y06592*
X10981*
X10976Y06587*
Y06581*
X10981Y06576*
X10997*
X10863Y069D02*
X10858Y06905D01*
X10848*
X10843Y069*
Y06879*
X10848Y06874*
X10858*
X10863Y06879*
X10874Y06874D02*
X10884D01*
X10879*
Y06905*
X10874Y069*
X109Y06874D02*
X10911D01*
X10905*
Y06905*
X109Y069*
X10373Y07264D02*
Y07238D01*
X10378Y07233*
X10388*
X10393Y07238*
Y07264*
X10425D02*
X10414Y07259D01*
X10404Y07248*
Y07238*
X10409Y07233*
X1042*
X10425Y07238*
Y07243*
X1042Y07248*
X10404*
X1048Y06655D02*
Y06629D01*
X10485Y06624*
X10495*
X105Y06629*
Y06655*
X10527Y06624D02*
Y06655D01*
X10511Y06639*
X10532*
X10515Y06946D02*
Y0692D01*
X1052Y06915*
X1053*
X10535Y0692*
Y06946*
X10546D02*
X10567D01*
Y06941*
X10546Y0692*
Y06915*
X05644Y09223D02*
X05639Y09228D01*
X05629*
X05624Y09223*
Y09202*
X05629Y09197*
X05639*
X05644Y09202*
X05676Y09197D02*
X05655D01*
X05676Y09217*
Y09223*
X05671Y09228*
X0566*
X05655Y09223*
X07704Y09856D02*
Y09825D01*
X07719*
X07724Y0983*
Y09851*
X07719Y09856*
X07704*
X07735D02*
X07756D01*
X07745*
Y09825*
X07766Y09856D02*
Y09835D01*
X07777Y09825*
X07787Y09835*
Y09856*
X07819Y09851D02*
X07814Y09856D01*
X07803*
X07798Y09851*
Y09845*
X07803Y0984*
X07814*
X07819Y09835*
Y0983*
X07814Y09825*
X07803*
X07798Y0983*
X07829Y09825D02*
X0784D01*
X07835*
Y09856*
X07829Y09851*
X07986Y09702D02*
X07966D01*
Y09686*
X07976*
X07966*
Y09671*
X07997D02*
X08007D01*
X08002*
Y09702*
X07997Y09697*
X07701Y0923D02*
Y09199D01*
X07721*
X07732Y0923D02*
Y09199D01*
X07748*
X07753Y09204*
Y09225*
X07748Y0923*
X07732*
X07779D02*
X07769D01*
X07763Y09225*
Y09204*
X07769Y09199*
X07779*
X07784Y09204*
Y09225*
X07779Y0923*
X07795Y09199D02*
X07805D01*
X078*
Y0923*
X07795Y09225*
X07739Y08019D02*
X07734Y08024D01*
X07724*
X07719Y08019*
Y07998*
X07724Y07993*
X07734*
X07739Y07998*
X0775Y07993D02*
X0776D01*
X07755*
Y08024*
X0775Y08019*
X07776D02*
X07781Y08024D01*
X07792*
X07797Y08019*
Y08013*
X07792Y08008*
X07787*
X07792*
X07797Y08003*
Y07998*
X07792Y07993*
X07781*
X07776Y07998*
X07603Y07911D02*
Y07942D01*
X07618*
X07623Y07937*
Y07926*
X07618Y07921*
X07603*
X07613D02*
X07623Y07911D01*
X07655Y07942D02*
X07634D01*
Y07926*
X07644Y07931*
X0765*
X07655Y07926*
Y07916*
X0765Y07911*
X07639*
X07634Y07916*
X07686Y08414D02*
Y08446D01*
X07702*
X07707Y08441*
Y0843*
X07702Y08425*
X07686*
X07696D02*
X07707Y08414D01*
X07738Y08446D02*
X07728Y08441D01*
X07717Y0843*
Y0842*
X07723Y08414*
X07733*
X07738Y0842*
Y08425*
X07733Y0843*
X07717*
X07809Y08357D02*
Y08388D01*
X07824*
X07829Y08383*
Y08372*
X07824Y08367*
X07809*
X07819D02*
X07829Y08357D01*
X0784Y08388D02*
X07861D01*
Y08383*
X0784Y08362*
Y08357*
X07938Y08259D02*
Y0829D01*
X07953*
X07958Y08285*
Y08274*
X07953Y08269*
X07938*
X07948D02*
X07958Y08259D01*
X07969Y08285D02*
X07974Y0829D01*
X07985*
X0799Y08285*
Y08279*
X07985Y08274*
X0799Y08269*
Y08264*
X07985Y08259*
X07974*
X07969Y08264*
Y08269*
X07974Y08274*
X07969Y08279*
Y08285*
X07974Y08274D02*
X07985D01*
X07995Y0821D02*
Y08241D01*
X0801*
X08015Y08236*
Y08225*
X0801Y0822*
X07995*
X08005D02*
X08015Y0821D01*
X08026Y08215D02*
X08031Y0821D01*
X08042*
X08047Y08215*
Y08236*
X08042Y08241*
X08031*
X08026Y08236*
Y0823*
X08031Y08225*
X08047*
X07844Y08152D02*
Y08183D01*
X07859*
X07864Y08178*
Y08167*
X07859Y08162*
X07844*
X07854D02*
X07864Y08152D01*
X07875D02*
X07885D01*
X0788*
Y08183*
X07875Y08178*
X07901D02*
X07906Y08183D01*
X07917*
X07922Y08178*
Y08157*
X07917Y08152*
X07906*
X07901Y08157*
Y08178*
G54D59*
X0756Y09222D02*
X07593D01*
X0756Y09189*
Y09181*
X07569Y09172*
X07585*
X07593Y09181*
X07678Y09222D02*
X07662D01*
X0767*
Y09172*
X07678Y0918*
X07443Y08952D02*
Y08902D01*
X07468Y08927*
X07434*
X07502Y0918D02*
X07493Y09172D01*
X07477*
X07468Y0918*
Y09188*
X07477Y09197*
X07485*
X07477*
X07468Y09205*
Y09213*
X07477Y09222*
X07493*
X07502Y09213*
M02*